<?xml version="1.0" standalone="no"?>
<!DOCTYPE svg PUBLIC "-//W3C//DTD SVG 1.1//EN"
	"http://www.w3.org/Graphics/SVG/1.1/DTD/svg11.dtd">
<svg xmlns="http://www.w3.org/2000/svg" version="1.1"
	xmlns:xlink="http://www.w3.org/1999/xlink"
	color="black"
	width="757.10px" height="300.73px">
<style type="text/css">
.fill {fill: currentColor}
.stroke {stroke: currentColor; fill: none}
text{white-space: pre}
</style>
<title>./K516f-5-7-11-2-6-2-12-11-8-5-8-10-5-8-7-9.abc (1925) tune 1</title>
<!-- Creator: abcm2ps-8.13.8 -->
<!-- CreationDate: Sep  7, 2017 11:18 -->
<!-- CommandLine: ./K516f-5-7-11-2-6-2-12-11-8-5-8-10-5-8-7-9.abc -O ./K516f-5-7-11-2-6-2-12-11-8-5-8-10-5-8-7-9.svg -g -->
<rect width="100%" height="100%" fill="white"/>
<g stroke-width="0.70" transform="scale(0.867)">
<!-- title: 5-7-11-2-6-2-12-11-8-5-8-10-5-8-7-9 -->
</g>
<g stroke-width="0.70" transform="scale(0.867)" font-family="Times" font-size="20.00">
<text x="436.84" y="22.00" text-anchor="middle">5-7-11-2-6-2-12-11-8-5-8-10-5-8-7-9</text>
</g>
<g stroke-width="0.70" transform="scale(0.867)" font-family="Times" font-size="20.00">
<!-- subtitle: $1K.516f::40:157:165:41:80:122:106:33:16:176:57:82:67:168:23:111::$0 -->
</g>
<g stroke-width="0.70" transform="scale(0.867)" font-family="Courier" font-size="8.00" font-weight="bold">
<text x="436.84" y="41.80" text-anchor="middle">K.516f::40:157:165:41:80:122:106:33:16:176:57:82:67:168:23:111::</text>
</g>
<g stroke-width="0.70" transform="scale(0.867)" font-family="Courier" font-size="8.00" font-weight="bold">
<!-- subtitle: $1Perm. No.: 192522490849759$0 -->
<text x="436.84" y="60.80" text-anchor="middle">Perm. No.: 192522490849759</text>
</g>
<g stroke-width="0.70" transform="scale(0.607)" font-family="Courier" font-size="8.00" font-weight="bold">
<defs>
<ellipse id="hd" rx="4.1" ry="2.9"
	transform="rotate(-20)" class="fill"/>
</defs>
<use x="103.06" y="121.29" xlink:href="#hd"/>
<path d="M106.56 121.29v-21.00" class="stroke"/>
<path class="fill"
	d="M106.56 100.29c0.6 5.6 9.6 9 5.6 18.4
	1.6 -6 -1.3 -11.6 -5.6 -12.8
"/>
</g>
<g stroke-width="0.70" transform="scale(0.867)" font-family="Times" font-size="15.00" font-weight="bold">
<text x="81.24" y="87.00">= 111</text>
<path class="stroke" stroke-width="1"
	d="M11.54 183.00v-82.00"/>
<path class="fill"
	d="M6.54 98.00
	c10.5 1 12 -4.5 12 -3.5c0 1 -3.5 5.5 -8.5 5.5
	v84.00
	c5 0 8.5 4.5 8.5 5.5c0 1 -1.5 -4.5 -12 -3.5"/>
<defs>
<g id="rdots" class="fill">
	<circle cx="0" cy="-9" r="1.2"/>
	<circle cx="0" cy="-15" r="1.2"/>
</g>
</defs>
<use x="70.54" y="125.00" xlink:href="#rdots"/>
<path class="stroke" stroke-width="1"
	d="M66.54 125.00v-24.00"/>
<path class="stroke" stroke-width="3"
	d="M62.04 125.00v-24.00"/>
<use x="70.54" y="183.00" xlink:href="#rdots"/>
<path class="stroke" stroke-width="1"
	d="M66.54 183.00v-58.00"/>
<path class="stroke" stroke-width="3"
	d="M62.04 183.00v-58.00"/>
<path class="stroke" stroke-width="1"
	d="M183.14 125.00v-24.00"/>
<path class="stroke" stroke-width="1"
	d="M183.14 183.00v-58.00"/>
<path class="stroke" stroke-width="1"
	d="M294.64 125.00v-24.00"/>
<path class="stroke" stroke-width="1"
	d="M294.64 183.00v-58.00"/>
<path class="stroke" stroke-width="1"
	d="M374.74 125.00v-24.00"/>
<path class="stroke" stroke-width="1"
	d="M374.74 183.00v-58.00"/>
<path class="stroke" stroke-width="1"
	d="M474.74 125.00v-24.00"/>
<path class="stroke" stroke-width="1"
	d="M474.74 183.00v-58.00"/>
<path class="stroke" stroke-width="1"
	d="M554.94 125.00v-24.00"/>
<path class="stroke" stroke-width="1"
	d="M554.94 183.00v-58.00"/>
<path class="stroke" stroke-width="1"
	d="M656.04 125.00v-24.00"/>
<path class="stroke" stroke-width="1"
	d="M656.04 183.00v-58.00"/>
<path class="stroke" stroke-width="1"
	d="M757.54 125.00v-24.00"/>
<path class="stroke" stroke-width="1"
	d="M757.54 183.00v-58.00"/>
<path class="stroke" stroke-width="3"
	d="M860.54 125.00v-24.00"/>
<path class="stroke" stroke-width="1"
	d="M856.04 125.00v-24.00"/>
<use x="852.04" y="125.00" xlink:href="#rdots"/>
<path class="stroke" stroke-width="3"
	d="M860.54 183.00v-58.00"/>
<path class="stroke" stroke-width="1"
	d="M856.04 183.00v-58.00"/>
<use x="852.04" y="183.00" xlink:href="#rdots"/>
<path d="m11.54 125.00
	h850.50
	M11.54 119.00
	h850.50
	M11.54 113.00
	h850.50
	M11.54 107.00
	h850.50
	M11.54 101.00
	h850.50
	" class="stroke"/>
<path d="m11.54 183.00
	h850.50
	M11.54 177.00
	h850.50
	M11.54 171.00
	h850.50
	M11.54 165.00
	h850.50
	M11.54 159.00
	h850.50
	" class="stroke"/>
<path class="fill"
	d="M312.14 103.40c6.84 -3.01 37.07 2.22 43.91 7.60
	v-0.24c-8.16 -7.13 -35.75 -12.37 -43.91 -7.36"/>
</g>
<g stroke-width="0.70" transform="scale(0.867)" font-family="Times" font-size="13.00">
<text x="761.54" y="86.40">1</text>
<path class="stroke"
	d="M757.54 75.00m0 20v-20h96.50v20"/>
<defs>
<path id="utclef" class="fill" d="m-50 -90
	c-72 -41 -72 -158 52 -188
	150 -10 220 188 90 256
	-114 52 -275 0 -293 -136
	-15 -181 93 -229 220 -334
	88 -87 79 -133 62 -210
	-51 33 -94 105 -89 186
	17 267 36 374 49 574
	6 96 -19 134 -77 135
	-80 1 -126 -93 -61 -133
	85 -41 133 101 31 105
	23 17 92 37 90 -92
	-10 -223 -39 -342 -50 -617
	0 -90 0 -162 96 -232
	56 72 63 230 22 289
	-74 106 -257 168 -255 316
	9 153 148 185 252 133
	86 -65 29 -192 -80 -176
	-71 12 -105 67 -59 124"/>
<use id="tclef" transform="translate(0,6) scale(0.045)"
	xlink:href="#utclef"/>
</defs>
<use x="23.54" y="119.00" xlink:href="#tclef"/>
<g font-family="serif" font-size="16" font-weight="bold" font-style="normal"
	transform="translate(42.04,124.50) scale(1.2,1)">
	<text text-anchor="middle">8</text>
	<text y="-12" text-anchor="middle">3</text>
</g>
<path class="fill"
	d="M81.14 141.20l85.50 0.00v-3.20l-85.50 -0.00"/>
<path class="fill"
	d="M81.44 136.20l84.90 0.00v-3.20l-84.90 -0.00"/>
<use x="84.94" y="110.00" xlink:href="#hd"/>
<path d="M81.44 110.00v30.20" class="stroke"/>
<use x="101.94" y="113.00" xlink:href="#hd"/>
<path d="M98.44 113.00v27.20" class="stroke"/>
<use x="118.94" y="110.00" xlink:href="#hd"/>
<path d="M115.44 110.00v30.20" class="stroke"/>
<use x="135.84" y="104.00" xlink:href="#hd"/>
<path d="M132.34 104.00v36.20" class="stroke"/>
<use x="152.84" y="119.00" xlink:href="#hd"/>
<path d="M149.34 119.00v21.20" class="stroke"/>
<use x="169.84" y="110.00" xlink:href="#hd"/>
<path d="M166.34 110.00v30.20" class="stroke"/>
<path class="fill"
	d="M192.74 130.50l85.50 -6.40v-3.20l-85.50 6.40"/>
<path class="fill"
	d="M193.04 125.50l84.90 -6.30v-3.20l-84.90 6.30"/>
<use x="196.54" y="104.00" xlink:href="#hd"/>
<path d="M193.04 104.00v25.50" class="stroke"/>
<use x="213.54" y="107.00" xlink:href="#hd"/>
<path d="M210.04 107.00v21.20" class="stroke"/>
<use x="230.44" y="104.00" xlink:href="#hd"/>
<path d="M226.94 104.00v22.90" class="stroke"/>
<use x="247.44" y="98.00" xlink:href="#hd"/>
<path d="M243.94 98.00v27.70" class="stroke"/>
<defs>
<path id="hl" class="stroke" d="m-6 0h12"/>
</defs>
<use x="264.44" y="95.00" xlink:href="#hl"/>
<use x="264.44" y="89.00" xlink:href="#hl"/>
<use x="264.44" y="89.00" xlink:href="#hd"/>
<path d="M260.94 89.00v35.40" class="stroke"/>
<use x="281.34" y="98.00" xlink:href="#hd"/>
<path d="M277.84 98.00v25.10" class="stroke"/>
<path class="fill"
	d="M304.24 130.10l48.60 8.10v-3.20l-48.60 -8.10"/>
<use x="308.14" y="107.00" xlink:href="#hd"/>
<path d="M304.64 107.00v22.20" class="stroke"/>
<use x="332.04" y="113.00" xlink:href="#hd"/>
<path d="M328.54 113.00v20.20" class="stroke"/>
<use x="356.04" y="119.00" xlink:href="#hd"/>
<path d="M352.54 119.00v18.20" class="stroke"/>
<path class="fill"
	d="M384.34 138.20l68.60 0.00v-3.20l-68.60 -0.00"/>
<path class="fill"
	d="M384.64 133.20l50.90 0.00v-3.20l-50.90 -0.00"/>
<use x="388.14" y="110.00" xlink:href="#hd"/>
<path d="M384.64 110.00v27.20" class="stroke"/>
<use x="405.14" y="113.00" xlink:href="#hd"/>
<path d="M401.64 113.00v24.20" class="stroke"/>
<use x="422.14" y="110.00" xlink:href="#hd"/>
<path d="M418.64 110.00v27.20" class="stroke"/>
<use x="439.04" y="104.00" xlink:href="#hd"/>
<path d="M435.54 104.00v33.20" class="stroke"/>
<use x="456.04" y="119.00" xlink:href="#hd"/>
<path d="M452.54 119.00v18.20" class="stroke"/>
<path class="fill"
	d="M484.34 136.80l48.70 -3.20v-3.20l-48.70 3.20"/>
<use x="488.14" y="107.00" xlink:href="#hd"/>
<path d="M484.64 107.00v28.80" class="stroke"/>
<use x="512.14" y="116.00" xlink:href="#hd"/>
<path d="M508.64 116.00v18.20" class="stroke"/>
<use x="536.24" y="101.00" xlink:href="#hd"/>
<defs>
<path id="usharp" class="fill" d="
	m136 -702
	v890
	h32
	v-890
	m128 840
	h32
	v-888
	h-32
	m-232 286
	v116
	l338 -96
	v-116
	m-338 442
	v116
	l338 -98
	v-114"/>
<use id="sh0" transform="translate(-4,5) scale(0.018)"
	xlink:href="#usharp"/>
</defs>
<use x="527.24" y="101.00" xlink:href="#sh0"/>
<path d="M532.74 101.00v31.60" class="stroke"/>
<path class="fill"
	d="M564.54 127.00l69.60 0.00v-3.20l-69.60 -0.00"/>
<path class="fill"
	d="M564.84 122.00l51.90 0.00v-3.20l-51.90 -0.00"/>
<use x="568.34" y="98.00" xlink:href="#hd"/>
<path d="M564.84 98.00v28.00" class="stroke"/>
<use x="586.34" y="101.00" xlink:href="#hd"/>
<use x="577.34" y="101.00" xlink:href="#sh0"/>
<path d="M582.84 101.00v25.00" class="stroke"/>
<use x="603.34" y="98.00" xlink:href="#hd"/>
<path d="M599.84 98.00v28.00" class="stroke"/>
<use x="620.34" y="95.00" xlink:href="#hl"/>
<use x="620.34" y="92.00" xlink:href="#hd"/>
<path d="M616.84 92.00v34.00" class="stroke"/>
<use x="637.24" y="107.00" xlink:href="#hd"/>
<path d="M633.74 107.00v19.00" class="stroke"/>
<path class="fill"
	d="M665.54 138.20l75.50 0.00v-3.20l-75.50 -0.00"/>
<path class="fill"
	d="M689.84 133.20l50.90 0.00v-3.20l-50.90 -0.00"/>
<use x="669.44" y="116.00" xlink:href="#hd"/>
<path d="M665.94 116.00v21.20" class="stroke"/>
<use x="693.34" y="107.00" xlink:href="#hd"/>
<path d="M689.84 107.00v30.20" class="stroke"/>
<use x="710.34" y="110.00" xlink:href="#hd"/>
<path d="M706.84 110.00v27.20" class="stroke"/>
<use x="727.34" y="113.00" xlink:href="#hd"/>
<path d="M723.84 113.00v24.20" class="stroke"/>
<use x="744.34" y="116.00" xlink:href="#hd"/>
<path d="M740.84 116.00v21.20" class="stroke"/>
<use x="771.04" y="98.00" xlink:href="#hd"/>
<path d="M767.54 98.00v40.00" class="stroke"/>
<use x="771.04" y="119.00" xlink:href="#hd"/>
<use x="771.04" y="113.00" xlink:href="#hd"/>
<use x="771.04" y="107.00" xlink:href="#hd"/>
<defs>
<path id="r8e" class="fill" d="m 0 0
	c-1.5 1.5 -2.4 2 -3.6 2
	2.4 -2.8 -2.8 -4 -2.8 -1.2
	c0 2.7 4.3 2.4 5.9 0.6"/>
<g id="r8">
	<path d="m3.3 -4l-3.4 9.6" class="stroke"/>
	<use x="3.4" y="-4" xlink:href="#r8e"/>
</g>
</defs>
<use x="829.94" y="113.00" xlink:href="#r8"/>
<defs>
<path id="ubclef" class="fill" d="m-200 -87
	c124 -35 222 -78 254 -236
	43 -228 -167 -246 -192 -103
	59 -80 157 22 92 78
	-62 47 -115 -22 -106 -88
	21 -141 270 -136 274 52
	-1 175 -106 264 -322 297
	m357 -250
	c0 -36 51 -34 51 0
	0 37 -51 36 -51 0
	m-2 -129
	c0 -36 51 -34 51 0
	0 38 -51 37 -51 0"/>
<use id="bclef" transform="translate(0,18) scale(0.045)"
	xlink:href="#ubclef"/>
</defs>
<use x="23.54" y="165.00" xlink:href="#bclef"/>
<g font-family="serif" font-size="16" font-weight="bold" font-style="normal"
	transform="translate(42.04,182.50) scale(1.2,1)">
	<text text-anchor="middle">8</text>
	<text y="-12" text-anchor="middle">3</text>
</g>
<use x="84.94" y="168.00" xlink:href="#hd"/>
<path d="M81.44 168.00v25.00" class="stroke"/>
<use x="84.94" y="174.00" xlink:href="#hd"/>
<use x="152.84" y="171.00" xlink:href="#r8"/>
<use x="196.54" y="174.00" xlink:href="#hd"/>
<path d="M200.04 174.00v-21.00" class="stroke"/>
<use x="264.44" y="171.00" xlink:href="#r8"/>
<use x="308.14" y="177.00" xlink:href="#hd"/>
<path d="M311.64 177.00v-21.00" class="stroke"/>
<use x="356.04" y="171.00" xlink:href="#r8"/>
<use x="388.14" y="168.00" xlink:href="#hd"/>
<path d="M384.64 168.00v25.00" class="stroke"/>
<use x="388.14" y="174.00" xlink:href="#hd"/>
<use x="456.04" y="171.00" xlink:href="#r8"/>
<use x="488.14" y="174.00" xlink:href="#hd"/>
<path d="M491.64 174.00v-21.00" class="stroke"/>
<use x="536.24" y="171.00" xlink:href="#r8"/>
<path class="fill"
	d="M571.54 149.50l69.60 -4.70v3.20l-69.60 4.70"/>
<use x="568.34" y="177.00" xlink:href="#hd"/>
<path d="M571.84 177.00v-26.60" class="stroke"/>
<use x="568.34" y="171.00" xlink:href="#hd"/>
<use x="603.34" y="177.00" xlink:href="#hd"/>
<path d="M606.84 177.00v-28.90" class="stroke"/>
<use x="603.34" y="171.00" xlink:href="#hd"/>
<use x="637.24" y="177.00" xlink:href="#hd"/>
<path d="M640.74 177.00v-31.20" class="stroke"/>
<use x="637.24" y="162.00" xlink:href="#hd"/>
<path class="fill"
	d="M672.54 148.30l58.60 8.30v3.20l-58.60 -8.30"/>
<use x="669.44" y="174.00" xlink:href="#hd"/>
<path d="M672.94 174.00v-24.60" class="stroke"/>
<use x="693.34" y="171.00" xlink:href="#hd"/>
<path d="M696.84 171.00v-18.20" class="stroke"/>
<use x="727.34" y="189.00" xlink:href="#hl"/>
<use x="727.34" y="192.00" xlink:href="#hd"/>
<path d="M730.84 192.00v-34.40" class="stroke"/>
<path class="fill"
	d="M767.14 202.20l76.60 0.00v-3.20l-76.60 -0.00"/>
<path class="fill"
	d="M791.44 197.20l51.90 0.00v-3.20l-51.90 -0.00"/>
<use x="771.04" y="183.00" xlink:href="#hd"/>
<path d="M767.54 183.00v18.20" class="stroke"/>
<use x="794.94" y="162.00" xlink:href="#hd"/>
<path d="M791.44 162.00v39.20" class="stroke"/>
<use x="812.94" y="165.00" xlink:href="#hd"/>
<defs>
<path id="unat" class="fill" d="
	m96 -750
	h-32
	v716
	l32 -8
	182 -54
	v282
	h32
	v-706
	l-34 10
	-180 50
	v-290
	m0 592
	v-190
	l182 -52
	v188"/>
<use id="nt0" transform="translate(-3,5) scale(0.018)"
	xlink:href="#unat"/>
</defs>
<use x="803.94" y="165.00" xlink:href="#nt0"/>
<path d="M809.44 165.00v36.20" class="stroke"/>
<use x="829.94" y="168.00" xlink:href="#hd"/>
<path d="M826.44 168.00v33.20" class="stroke"/>
<use x="846.94" y="171.00" xlink:href="#hd"/>
<path d="M843.44 171.00v30.20" class="stroke"/>
<defs>
<path id="turn" class="fill" d="
	m5.2 -8
	c1.4 0.5 0.9 4.8 -2.2 2.8
	l-4.8 -3.5
	c-3 -2 -5.8 1.8 -3.6 4.4
	1 1.1 2 0.8 2.1 -0.1
	0.1 -0.9 -0.7 -1.2 -1.9 -0.6
	-1.4 -0.5 -0.9 -4.8 2.2 -2.8
	l4.8 3.5
	c3 2 5.8 -1.8 3.6 -4.4
	-1 -1.1 -2 -0.8 -2.1 0.1
	-0.1 0.9 0.7 1.2 1.9 0.6"/>
</defs>
<use x="512.14" y="95.00" xlink:href="#turn"/>
</g>
<g stroke-width="0.70" transform="scale(0.867)" font-family="Times" font-size="13.00">
<path class="stroke" stroke-width="1"
	d="M11.54 324.00v-90.00"/>
<path class="fill"
	d="M6.54 231.00
	c10.5 1 12 -4.5 12 -3.5c0 1 -3.5 5.5 -8.5 5.5
	v92.00
	c5 0 8.5 4.5 8.5 5.5c0 1 -1.5 -4.5 -12 -3.5"/>
<use x="143.84" y="258.00" xlink:href="#rdots"/>
<path class="stroke" stroke-width="1"
	d="M139.84 258.00v-24.00"/>
<path class="stroke" stroke-width="3"
	d="M135.34 258.00v-24.00"/>
<use x="143.84" y="324.00" xlink:href="#rdots"/>
<path class="stroke" stroke-width="1"
	d="M139.84 324.00v-66.00"/>
<path class="stroke" stroke-width="3"
	d="M135.34 324.00v-66.00"/>
<path class="stroke" stroke-width="1"
	d="M221.84 258.00v-24.00"/>
<path class="stroke" stroke-width="1"
	d="M221.84 324.00v-66.00"/>
<path class="stroke" stroke-width="1"
	d="M320.84 258.00v-24.00"/>
<path class="stroke" stroke-width="1"
	d="M320.84 324.00v-66.00"/>
<path class="stroke" stroke-width="1"
	d="M419.84 258.00v-24.00"/>
<path class="stroke" stroke-width="1"
	d="M419.84 324.00v-66.00"/>
<path class="stroke" stroke-width="1"
	d="M499.64 258.00v-24.00"/>
<path class="stroke" stroke-width="1"
	d="M499.64 324.00v-66.00"/>
<path class="stroke" stroke-width="1"
	d="M598.64 258.00v-24.00"/>
<path class="stroke" stroke-width="1"
	d="M598.64 324.00v-66.00"/>
<path class="stroke" stroke-width="1"
	d="M688.74 258.00v-24.00"/>
<path class="stroke" stroke-width="1"
	d="M688.74 324.00v-66.00"/>
<path class="stroke" stroke-width="1"
	d="M787.74 258.00v-24.00"/>
<path class="stroke" stroke-width="1"
	d="M787.74 324.00v-66.00"/>
<path class="stroke" stroke-width="3"
	d="M860.54 258.00v-24.00"/>
<path class="stroke" stroke-width="1"
	d="M856.04 258.00v-24.00"/>
<use x="852.04" y="258.00" xlink:href="#rdots"/>
<path class="stroke" stroke-width="3"
	d="M860.54 324.00v-66.00"/>
<path class="stroke" stroke-width="1"
	d="M856.04 324.00v-66.00"/>
<use x="852.04" y="324.00" xlink:href="#rdots"/>
<path d="m11.54 258.00
	h850.50
	M11.54 252.00
	h850.50
	M11.54 246.00
	h850.50
	M11.54 240.00
	h850.50
	M11.54 234.00
	h850.50
	" class="stroke"/>
<path d="m11.54 324.00
	h850.50
	M11.54 318.00
	h850.50
	M11.54 312.00
	h850.50
	M11.54 306.00
	h850.50
	M11.54 300.00
	h850.50
	" class="stroke"/>
<path class="fill"
	d="M166.34 223.80c6.15 -3.47 32.88 -0.59 39.03 4.20
	v-0.24c-7.32 -6.55 -31.71 -9.43 -39.03 -3.96"/>
<text x="47.54" y="219.40">2</text>
<path class="stroke"
	d="M43.54 208.00m0 20v-20h89.30v20"/>
<use x="23.54" y="252.00" xlink:href="#tclef"/>
<use x="56.04" y="231.00" xlink:href="#hd"/>
<path d="M52.54 231.00v40.00" class="stroke"/>
<use x="56.04" y="252.00" xlink:href="#hd"/>
<use x="56.04" y="246.00" xlink:href="#hd"/>
<use x="56.04" y="240.00" xlink:href="#hd"/>
<use x="109.44" y="246.00" xlink:href="#r8"/>
<path class="fill"
	d="M159.44 251.50l42.70 7.80v-3.20l-42.70 -7.80"/>
<use x="163.34" y="228.00" xlink:href="#hl"/>
<use x="163.34" y="228.00" xlink:href="#hd"/>
<path d="M159.84 228.00v22.60" class="stroke"/>
<use x="184.64" y="234.00" xlink:href="#hd"/>
<use x="175.64" y="234.00" xlink:href="#sh0"/>
<path d="M181.14 234.00v20.40" class="stroke"/>
<use x="205.34" y="240.00" xlink:href="#hd"/>
<path d="M201.84 240.00v18.20" class="stroke"/>
<path class="fill"
	d="M230.44 260.00l74.70 0.00v-3.20l-74.70 -0.00"/>
<path class="fill"
	d="M230.84 255.00l74.00 0.00v-3.20l-74.00 -0.00"/>
<use x="234.34" y="228.00" xlink:href="#hl"/>
<use x="234.34" y="228.00" xlink:href="#hd"/>
<path d="M230.84 228.00v31.00" class="stroke"/>
<use x="249.14" y="231.00" xlink:href="#hd"/>
<path d="M245.64 231.00v28.00" class="stroke"/>
<use x="263.94" y="228.00" xlink:href="#hl"/>
<use x="263.94" y="225.00" xlink:href="#hd"/>
<path d="M260.44 225.00v34.00" class="stroke"/>
<use x="278.74" y="231.00" xlink:href="#hd"/>
<path d="M275.24 231.00v28.00" class="stroke"/>
<use x="293.54" y="240.00" xlink:href="#hd"/>
<path d="M290.04 240.00v19.00" class="stroke"/>
<use x="308.34" y="231.00" xlink:href="#hd"/>
<path d="M304.84 231.00v28.00" class="stroke"/>
<path class="fill"
	d="M329.54 264.30l59.90 7.00v-3.20l-59.90 -7.00"/>
<use x="333.34" y="237.00" xlink:href="#hd"/>
<path d="M329.84 237.00v26.30" class="stroke"/>
<use x="362.94" y="243.00" xlink:href="#hd"/>
<path d="M359.44 243.00v23.70" class="stroke"/>
<use x="392.54" y="252.00" xlink:href="#hd"/>
<path d="M389.04 252.00v18.20" class="stroke"/>
<path class="fill"
	d="M428.54 273.70l50.90 -4.30v-3.20l-50.90 4.30"/>
<path class="fill"
	d="M428.84 268.70l14.80 -1.20v-3.20l-14.80 1.20"/>
<use x="432.34" y="240.00" xlink:href="#hd"/>
<path d="M428.84 240.00v32.70" class="stroke"/>
<use x="447.24" y="246.00" xlink:href="#hd"/>
<path d="M443.74 246.00v25.40" class="stroke"/>
<use x="462.04" y="252.00" xlink:href="#hd"/>
<path d="M458.54 252.00v18.20" class="stroke"/>
<use x="482.64" y="231.00" xlink:href="#hd"/>
<path d="M479.14 231.00v37.50" class="stroke"/>
<path class="fill"
	d="M508.34 274.20l74.70 0.00v-3.20l-74.70 -0.00"/>
<path class="fill"
	d="M508.64 269.20l74.00 0.00v-3.20l-74.00 -0.00"/>
<use x="512.14" y="243.00" xlink:href="#hd"/>
<path d="M508.64 243.00v30.20" class="stroke"/>
<use x="526.94" y="246.00" xlink:href="#hd"/>
<path d="M523.44 246.00v27.20" class="stroke"/>
<use x="541.74" y="243.00" xlink:href="#hd"/>
<path d="M538.24 243.00v30.20" class="stroke"/>
<use x="556.54" y="237.00" xlink:href="#hd"/>
<path d="M553.04 237.00v36.20" class="stroke"/>
<use x="571.34" y="252.00" xlink:href="#hd"/>
<path d="M567.84 252.00v21.20" class="stroke"/>
<use x="586.14" y="243.00" xlink:href="#hd"/>
<path d="M582.64 243.00v30.20" class="stroke"/>
<path class="fill"
	d="M607.34 256.30l65.70 8.90v-3.20l-65.70 -8.90"/>
<path class="fill"
	d="M628.34 254.20l44.40 6.00v-3.20l-44.40 -6.00"/>
<use x="611.14" y="231.00" xlink:href="#hd"/>
<path d="M607.64 231.00v24.40" class="stroke"/>
<use x="631.84" y="234.00" xlink:href="#hd"/>
<path d="M628.34 234.00v24.20" class="stroke"/>
<use x="646.64" y="237.00" xlink:href="#hd"/>
<path d="M643.14 237.00v23.20" class="stroke"/>
<use x="661.44" y="240.00" xlink:href="#hd"/>
<path d="M657.94 240.00v22.20" class="stroke"/>
<use x="676.24" y="243.00" xlink:href="#hd"/>
<path d="M672.74 243.00v21.20" class="stroke"/>
<path class="fill"
	d="M697.34 260.00l74.70 0.00v-3.20l-74.70 -0.00"/>
<path class="fill"
	d="M697.74 255.00l74.00 0.00v-3.20l-74.00 -0.00"/>
<use x="701.24" y="234.00" xlink:href="#hd"/>
<path d="M697.74 234.00v25.00" class="stroke"/>
<use x="716.04" y="237.00" xlink:href="#hd"/>
<path d="M712.54 237.00v22.00" class="stroke"/>
<use x="730.84" y="240.00" xlink:href="#hd"/>
<path d="M727.34 240.00v19.00" class="stroke"/>
<use x="745.64" y="237.00" xlink:href="#hd"/>
<path d="M742.14 237.00v22.00" class="stroke"/>
<use x="760.44" y="234.00" xlink:href="#hd"/>
<path d="M756.94 234.00v25.00" class="stroke"/>
<use x="775.24" y="231.00" xlink:href="#hd"/>
<path d="M771.74 231.00v28.00" class="stroke"/>
<use x="800.24" y="243.00" xlink:href="#hd"/>
<path d="M796.74 243.00v21.00" class="stroke"/>
<use x="841.54" y="246.00" xlink:href="#r8"/>
<use x="23.54" y="306.00" xlink:href="#bclef"/>
<path class="fill"
	d="M52.24 343.20l68.90 -5.00v-3.20l-68.90 5.00"/>
<path class="fill"
	d="M73.14 336.70l47.60 -3.50v-3.20l-47.60 3.50"/>
<use x="56.04" y="324.00" xlink:href="#hd"/>
<path d="M52.54 324.00v18.20" class="stroke"/>
<use x="76.64" y="297.00" xlink:href="#hd"/>
<path d="M73.14 297.00v43.70" class="stroke"/>
<use x="91.44" y="303.00" xlink:href="#hd"/>
<path d="M87.94 303.00v36.60" class="stroke"/>
<use x="109.44" y="306.00" xlink:href="#hd"/>
<use x="100.44" y="306.00" xlink:href="#sh0"/>
<path d="M105.94 306.00v32.30" class="stroke"/>
<use x="124.34" y="309.00" xlink:href="#hd"/>
<path d="M120.84 309.00v28.20" class="stroke"/>
<use x="163.34" y="306.00" xlink:href="#hd"/>
<use x="154.34" y="306.00" xlink:href="#sh0"/>
<path d="M159.84 306.00v25.00" class="stroke"/>
<use x="163.34" y="312.00" xlink:href="#hd"/>
<use x="205.34" y="306.00" xlink:href="#hd"/>
<path d="M201.84 306.00v28.00" class="stroke"/>
<path class="fill"
	d="M201.84 334.00c0.6 -5.6 9.6 -9 5.6 -18.4
	1.6 6 -1.3 11.6 -5.6 12.8
"/>
<use x="205.34" y="315.00" xlink:href="#hd"/>
<use x="234.34" y="318.00" xlink:href="#hd"/>
<path d="M237.84 318.00v-25.00" class="stroke"/>
<use x="234.34" y="312.00" xlink:href="#hd"/>
<use x="293.54" y="318.00" xlink:href="#hd"/>
<path d="M297.04 318.00v-25.00" class="stroke"/>
<path class="fill"
	d="M297.04 293.00c0.6 5.6 9.6 9 5.6 18.4
	1.6 -6 -1.3 -11.6 -5.6 -12.8
"/>
<use x="293.54" y="312.00" xlink:href="#hd"/>
<path class="fill"
	d="M329.54 331.90l74.70 0.00v-3.20l-74.70 -0.00"/>
<path class="fill"
	d="M329.84 326.90l74.00 0.00v-3.20l-74.00 -0.00"/>
<use x="333.34" y="309.00" xlink:href="#hd"/>
<path d="M329.84 309.00v21.90" class="stroke"/>
<use x="333.34" y="315.00" xlink:href="#hd"/>
<use x="348.14" y="303.00" xlink:href="#hd"/>
<path d="M344.64 303.00v27.90" class="stroke"/>
<use x="362.94" y="309.00" xlink:href="#hd"/>
<path d="M359.44 309.00v21.90" class="stroke"/>
<use x="362.94" y="315.00" xlink:href="#hd"/>
<use x="377.74" y="303.00" xlink:href="#hd"/>
<path d="M374.24 303.00v27.90" class="stroke"/>
<use x="392.54" y="309.00" xlink:href="#hd"/>
<path d="M389.04 309.00v21.90" class="stroke"/>
<use x="392.54" y="315.00" xlink:href="#hd"/>
<use x="407.34" y="303.00" xlink:href="#hd"/>
<path d="M403.84 303.00v27.90" class="stroke"/>
<use x="432.34" y="303.00" xlink:href="#hd"/>
<path d="M435.84 303.00v-21.00" class="stroke"/>
<use x="482.64" y="318.00" xlink:href="#hd"/>
<path d="M486.14 318.00v-25.00" class="stroke"/>
<path class="fill"
	d="M486.14 293.00c0.6 5.6 9.6 9 5.6 18.4
	1.6 -6 -1.3 -11.6 -5.6 -12.8
"/>
<use x="482.64" y="312.00" xlink:href="#hd"/>
<use x="512.14" y="309.00" xlink:href="#hd"/>
<path d="M508.64 309.00v25.00" class="stroke"/>
<use x="512.14" y="315.00" xlink:href="#hd"/>
<use x="571.34" y="303.00" xlink:href="#hd"/>
<path d="M567.84 303.00v25.00" class="stroke"/>
<path class="fill"
	d="M567.84 328.00c0.6 -5.6 9.6 -9 5.6 -18.4
	1.6 6 -1.3 11.6 -5.6 12.8
"/>
<use x="571.34" y="309.00" xlink:href="#hd"/>
<use x="611.14" y="309.00" xlink:href="#hd"/>
<path d="M607.64 309.00v25.00" class="stroke"/>
<use x="611.14" y="315.00" xlink:href="#hd"/>
<use x="661.44" y="303.00" xlink:href="#hd"/>
<path d="M657.94 303.00v25.00" class="stroke"/>
<path class="fill"
	d="M657.94 328.00c0.6 -5.6 9.6 -9 5.6 -18.4
	1.6 6 -1.3 11.6 -5.6 12.8
"/>
<use x="661.44" y="309.00" xlink:href="#hd"/>
<path class="fill"
	d="M697.34 325.90l74.70 0.00v-3.20l-74.70 -0.00"/>
<path class="fill"
	d="M697.74 320.90l74.00 0.00v-3.20l-74.00 -0.00"/>
<use x="701.24" y="300.00" xlink:href="#hd"/>
<path d="M697.74 300.00v25.00" class="stroke"/>
<use x="716.04" y="303.00" xlink:href="#hd"/>
<path d="M712.54 303.00v22.00" class="stroke"/>
<use x="730.84" y="306.00" xlink:href="#hd"/>
<path d="M727.34 306.00v19.00" class="stroke"/>
<use x="745.64" y="303.00" xlink:href="#hd"/>
<path d="M742.14 303.00v22.00" class="stroke"/>
<use x="760.44" y="300.00" xlink:href="#hd"/>
<path d="M756.94 300.00v25.00" class="stroke"/>
<use x="775.24" y="297.00" xlink:href="#hd"/>
<path d="M771.74 297.00v28.00" class="stroke"/>
<path class="fill"
	d="M803.44 295.70l42.00 9.80v3.20l-42.00 -9.80"/>
<use x="800.24" y="315.00" xlink:href="#hd"/>
<path d="M803.74 315.00v-18.20" class="stroke"/>
<use x="820.94" y="324.00" xlink:href="#hd"/>
<path d="M824.44 324.00v-22.40" class="stroke"/>
<use x="841.54" y="330.00" xlink:href="#hl"/>
<use x="841.54" y="336.00" xlink:href="#hl"/>
<use x="841.54" y="336.00" xlink:href="#hd"/>
<path d="M845.04 336.00v-29.60" class="stroke"/>
<use x="432.34" y="318.00" xlink:href="#hd"/>
<path d="M428.84 318.00v21.00" class="stroke"/>
</g>
</svg>
