<?xml version="1.0" standalone="no"?>
<!DOCTYPE svg PUBLIC "-//W3C//DTD SVG 1.1//EN"
	"http://www.w3.org/Graphics/SVG/1.1/DTD/svg11.dtd">
<svg xmlns="http://www.w3.org/2000/svg" version="1.1"
	xmlns:xlink="http://www.w3.org/1999/xlink"
	color="black"
	width="757.10px" height="293.80px">
<style type="text/css">
.fill {fill: currentColor}
.stroke {stroke: currentColor; fill: none}
text{white-space: pre}
</style>
<title>./K516f-2-7-5-10-11-2-4-9-8-9-2-3-3-9-2-4.abc (2228) tune 1</title>
<!-- Creator: abcm2ps-8.13.8 -->
<!-- CreationDate: Sep  7, 2017 11:20 -->
<!-- CommandLine: ./K516f-2-7-5-10-11-2-4-9-8-9-2-3-3-9-2-4.abc -O ./K516f-2-7-5-10-11-2-4-9-8-9-2-3-3-9-2-4.svg -g -->
<rect width="100%" height="100%" fill="white"/>
<g stroke-width="0.70" transform="scale(0.867)">
<!-- title: 2-7-5-10-11-2-4-9-8-9-2-3-3-9-2-4 -->
</g>
<g stroke-width="0.70" transform="scale(0.867)" font-family="Times" font-size="20.00">
<text x="436.84" y="22.00" text-anchor="middle">2-7-5-10-11-2-4-9-8-9-2-3-3-9-2-4</text>
</g>
<g stroke-width="0.70" transform="scale(0.867)" font-family="Times" font-size="20.00">
<!-- subtitle: $1K.516f::96:157:113:156:135:122:110:94:16:88:26:56:174:115:109:79::$0 -->
</g>
<g stroke-width="0.70" transform="scale(0.867)" font-family="Courier" font-size="8.00" font-weight="bold">
<text x="436.84" y="41.80" text-anchor="middle">K.516f::96:157:113:156:135:122:110:94:16:88:26:56:174:115:109:79::</text>
</g>
<g stroke-width="0.70" transform="scale(0.867)" font-family="Courier" font-size="8.00" font-weight="bold">
<!-- subtitle: $1Perm. No.: 22281868853410$0 -->
<text x="436.84" y="60.80" text-anchor="middle">Perm. No.: 22281868853410</text>
</g>
<g stroke-width="0.70" transform="scale(0.607)" font-family="Courier" font-size="8.00" font-weight="bold">
<defs>
<ellipse id="hd" rx="4.1" ry="2.9"
	transform="rotate(-20)" class="fill"/>
</defs>
<use x="103.06" y="121.29" xlink:href="#hd"/>
<path d="M106.56 121.29v-21.00" class="stroke"/>
<path class="fill"
	d="M106.56 100.29c0.6 5.6 9.6 9 5.6 18.4
	1.6 -6 -1.3 -11.6 -5.6 -12.8
"/>
</g>
<g stroke-width="0.70" transform="scale(0.867)" font-family="Times" font-size="15.00" font-weight="bold">
<text x="81.24" y="87.00">= 111</text>
<path class="stroke" stroke-width="1"
	d="M11.54 183.00v-82.00"/>
<path class="fill"
	d="M6.54 98.00
	c10.5 1 12 -4.5 12 -3.5c0 1 -3.5 5.5 -8.5 5.5
	v84.00
	c5 0 8.5 4.5 8.5 5.5c0 1 -1.5 -4.5 -12 -3.5"/>
<defs>
<g id="rdots" class="fill">
	<circle cx="0" cy="-9" r="1.2"/>
	<circle cx="0" cy="-15" r="1.2"/>
</g>
</defs>
<use x="70.54" y="125.00" xlink:href="#rdots"/>
<path class="stroke" stroke-width="1"
	d="M66.54 125.00v-24.00"/>
<path class="stroke" stroke-width="3"
	d="M62.04 125.00v-24.00"/>
<use x="70.54" y="183.00" xlink:href="#rdots"/>
<path class="stroke" stroke-width="1"
	d="M66.54 183.00v-58.00"/>
<path class="stroke" stroke-width="3"
	d="M62.04 183.00v-58.00"/>
<path class="stroke" stroke-width="1"
	d="M151.44 125.00v-24.00"/>
<path class="stroke" stroke-width="1"
	d="M151.44 183.00v-58.00"/>
<path class="stroke" stroke-width="1"
	d="M263.04 125.00v-24.00"/>
<path class="stroke" stroke-width="1"
	d="M263.04 183.00v-58.00"/>
<path class="stroke" stroke-width="1"
	d="M342.94 125.00v-24.00"/>
<path class="stroke" stroke-width="1"
	d="M342.94 183.00v-58.00"/>
<path class="stroke" stroke-width="1"
	d="M442.94 125.00v-24.00"/>
<path class="stroke" stroke-width="1"
	d="M442.94 183.00v-58.00"/>
<path class="stroke" stroke-width="1"
	d="M544.04 125.00v-24.00"/>
<path class="stroke" stroke-width="1"
	d="M544.04 183.00v-58.00"/>
<path class="stroke" stroke-width="1"
	d="M645.04 125.00v-24.00"/>
<path class="stroke" stroke-width="1"
	d="M645.04 183.00v-58.00"/>
<path class="stroke" stroke-width="1"
	d="M757.64 125.00v-24.00"/>
<path class="stroke" stroke-width="1"
	d="M757.64 183.00v-58.00"/>
<path class="stroke" stroke-width="3"
	d="M860.54 125.00v-24.00"/>
<path class="stroke" stroke-width="1"
	d="M856.04 125.00v-24.00"/>
<use x="852.04" y="125.00" xlink:href="#rdots"/>
<path class="stroke" stroke-width="3"
	d="M860.54 183.00v-58.00"/>
<path class="stroke" stroke-width="1"
	d="M856.04 183.00v-58.00"/>
<use x="852.04" y="183.00" xlink:href="#rdots"/>
<path d="m11.54 125.00
	h850.50
	M11.54 119.00
	h850.50
	M11.54 113.00
	h850.50
	M11.54 107.00
	h850.50
	M11.54 101.00
	h850.50
	" class="stroke"/>
<path d="m11.54 183.00
	h850.50
	M11.54 177.00
	h850.50
	M11.54 171.00
	h850.50
	M11.54 165.00
	h850.50
	M11.54 159.00
	h850.50
	" class="stroke"/>
<path class="fill"
	d="M658.54 119.00c2.43 4.14 13.01 5.58 15.45 2.10
	v0.22c-2.90 5.26 -12.55 3.82 -15.45 -2.32"/>
<path class="fill"
	d="M692.44 122.00c2.43 4.14 13.01 5.58 15.45 2.10
	v0.22c-2.90 5.26 -12.55 3.82 -15.45 -2.32"/>
<path class="fill"
	d="M726.34 125.00c2.36 4.46 12.64 7.34 15.00 4.20
	v0.22c-2.81 4.93 -12.19 2.05 -15.00 -4.41"/>
</g>
<g stroke-width="0.70" transform="scale(0.867)" font-family="Times" font-size="13.00">
<text x="761.64" y="86.40">1</text>
<path class="stroke"
	d="M757.64 75.00m0 20v-20h96.40v20"/>
<defs>
<path id="utclef" class="fill" d="m-50 -90
	c-72 -41 -72 -158 52 -188
	150 -10 220 188 90 256
	-114 52 -275 0 -293 -136
	-15 -181 93 -229 220 -334
	88 -87 79 -133 62 -210
	-51 33 -94 105 -89 186
	17 267 36 374 49 574
	6 96 -19 134 -77 135
	-80 1 -126 -93 -61 -133
	85 -41 133 101 31 105
	23 17 92 37 90 -92
	-10 -223 -39 -342 -50 -617
	0 -90 0 -162 96 -232
	56 72 63 230 22 289
	-74 106 -257 168 -255 316
	9 153 148 185 252 133
	86 -65 29 -192 -80 -176
	-71 12 -105 67 -59 124"/>
<use id="tclef" transform="translate(0,6) scale(0.045)"
	xlink:href="#utclef"/>
</defs>
<use x="23.54" y="119.00" xlink:href="#tclef"/>
<g font-family="serif" font-size="16" font-weight="bold" font-style="normal"
	transform="translate(42.04,124.50) scale(1.2,1)">
	<text text-anchor="middle">8</text>
	<text y="-12" text-anchor="middle">3</text>
</g>
<path class="fill"
	d="M81.14 131.60l48.40 6.60v-3.20l-48.40 -6.60"/>
<use x="85.04" y="104.00" xlink:href="#hd"/>
<path d="M81.54 104.00v26.70" class="stroke"/>
<use x="108.84" y="110.00" xlink:href="#hd"/>
<path d="M105.34 110.00v23.90" class="stroke"/>
<use x="132.74" y="119.00" xlink:href="#hd"/>
<path d="M129.24 119.00v18.20" class="stroke"/>
<path class="fill"
	d="M161.14 130.50l85.40 -6.40v-3.20l-85.40 6.40"/>
<path class="fill"
	d="M161.44 125.50l84.70 -6.30v-3.20l-84.70 6.30"/>
<use x="164.94" y="104.00" xlink:href="#hd"/>
<path d="M161.44 104.00v25.50" class="stroke"/>
<use x="181.84" y="107.00" xlink:href="#hd"/>
<path d="M178.34 107.00v21.20" class="stroke"/>
<use x="198.84" y="104.00" xlink:href="#hd"/>
<path d="M195.34 104.00v22.90" class="stroke"/>
<use x="215.74" y="98.00" xlink:href="#hd"/>
<path d="M212.24 98.00v27.70" class="stroke"/>
<defs>
<path id="hl" class="stroke" d="m-6 0h12"/>
</defs>
<use x="232.74" y="95.00" xlink:href="#hl"/>
<use x="232.74" y="89.00" xlink:href="#hl"/>
<use x="232.74" y="89.00" xlink:href="#hd"/>
<path d="M229.24 89.00v35.40" class="stroke"/>
<use x="249.64" y="98.00" xlink:href="#hd"/>
<path d="M246.14 98.00v25.10" class="stroke"/>
<path class="fill"
	d="M272.64 124.20l48.40 8.10v-3.20l-48.40 -8.10"/>
<use x="276.44" y="101.00" xlink:href="#hd"/>
<path d="M272.94 101.00v22.20" class="stroke"/>
<use x="300.34" y="107.00" xlink:href="#hd"/>
<path d="M296.84 107.00v20.20" class="stroke"/>
<use x="324.24" y="113.00" xlink:href="#hd"/>
<path d="M320.74 113.00v18.20" class="stroke"/>
<path class="fill"
	d="M352.54 142.80l68.50 -6.50v-3.20l-68.50 6.50"/>
<path class="fill"
	d="M352.94 137.80l50.80 -4.80v-3.20l-50.80 4.80"/>
<use x="356.44" y="110.00" xlink:href="#hd"/>
<path d="M352.94 110.00v31.80" class="stroke"/>
<use x="373.34" y="119.00" xlink:href="#hd"/>
<path d="M369.84 119.00v21.20" class="stroke"/>
<use x="390.34" y="104.00" xlink:href="#hd"/>
<path d="M386.84 104.00v34.60" class="stroke"/>
<use x="407.24" y="110.00" xlink:href="#hd"/>
<path d="M403.74 110.00v27.00" class="stroke"/>
<use x="424.14" y="98.00" xlink:href="#hd"/>
<path d="M420.64 98.00v37.40" class="stroke"/>
<path class="fill"
	d="M457.54 127.00l58.80 0.00v-3.20l-58.80 -0.00"/>
<path class="fill"
	d="M482.14 122.00l16.90 0.00v-3.20l-16.90 -0.00"/>
<use x="461.44" y="101.00" xlink:href="#hd"/>
<defs>
<path id="usharp" class="fill" d="
	m136 -702
	v890
	h32
	v-890
	m128 840
	h32
	v-888
	h-32
	m-232 286
	v116
	l338 -96
	v-116
	m-338 442
	v116
	l338 -98
	v-114"/>
<use id="sh0" transform="translate(-4,5) scale(0.018)"
	xlink:href="#usharp"/>
</defs>
<use x="452.44" y="101.00" xlink:href="#sh0"/>
<path d="M457.94 101.00v25.00" class="stroke"/>
<use x="485.64" y="101.00" xlink:href="#hd"/>
<path d="M482.14 101.00v25.00" class="stroke"/>
<use x="502.54" y="107.00" xlink:href="#hd"/>
<path d="M499.04 107.00v19.00" class="stroke"/>
<use x="519.54" y="95.00" xlink:href="#hl"/>
<use x="519.54" y="95.00" xlink:href="#hd"/>
<path d="M516.04 95.00v31.00" class="stroke"/>
<path class="fill"
	d="M553.64 127.00l69.50 0.00v-3.20l-69.50 -0.00"/>
<path class="fill"
	d="M554.04 122.00l51.90 0.00v-3.20l-51.90 -0.00"/>
<use x="557.54" y="98.00" xlink:href="#hd"/>
<path d="M554.04 98.00v28.00" class="stroke"/>
<use x="575.54" y="101.00" xlink:href="#hd"/>
<use x="566.54" y="101.00" xlink:href="#sh0"/>
<path d="M572.04 101.00v25.00" class="stroke"/>
<use x="592.44" y="98.00" xlink:href="#hd"/>
<path d="M588.94 98.00v28.00" class="stroke"/>
<use x="609.44" y="95.00" xlink:href="#hl"/>
<use x="609.44" y="92.00" xlink:href="#hd"/>
<path d="M605.94 92.00v34.00" class="stroke"/>
<use x="626.34" y="107.00" xlink:href="#hd"/>
<path d="M622.84 107.00v19.00" class="stroke"/>
<path class="fill"
	d="M661.74 88.80l86.50 0.00v3.20l-86.50 -0.00"/>
<path class="fill"
	d="M662.04 93.80l85.80 0.00v3.20l-85.80 -0.00"/>
<use x="658.54" y="113.00" xlink:href="#hd"/>
<path d="M662.04 113.00v-23.20" class="stroke"/>
<use x="658.54" y="107.00" xlink:href="#hd"/>
<use x="675.54" y="116.00" xlink:href="#hd"/>
<path d="M679.04 116.00v-26.20" class="stroke"/>
<use x="675.54" y="110.00" xlink:href="#hd"/>
<use x="692.44" y="116.00" xlink:href="#hd"/>
<path d="M695.94 116.00v-26.20" class="stroke"/>
<use x="692.44" y="110.00" xlink:href="#hd"/>
<use x="709.34" y="119.00" xlink:href="#hd"/>
<path d="M712.84 119.00v-29.20" class="stroke"/>
<use x="709.34" y="113.00" xlink:href="#hd"/>
<use x="726.34" y="119.00" xlink:href="#hd"/>
<path d="M729.84 119.00v-29.20" class="stroke"/>
<use x="726.34" y="113.00" xlink:href="#hd"/>
<use x="744.34" y="122.00" xlink:href="#hd"/>
<use x="735.34" y="122.00" xlink:href="#sh0"/>
<path d="M747.84 122.00v-32.20" class="stroke"/>
<use x="744.34" y="116.00" xlink:href="#hd"/>
<use x="771.14" y="98.00" xlink:href="#hd"/>
<path d="M767.64 98.00v40.00" class="stroke"/>
<use x="771.14" y="119.00" xlink:href="#hd"/>
<use x="771.14" y="113.00" xlink:href="#hd"/>
<use x="771.14" y="107.00" xlink:href="#hd"/>
<defs>
<path id="r8e" class="fill" d="m 0 0
	c-1.5 1.5 -2.4 2 -3.6 2
	2.4 -2.8 -2.8 -4 -2.8 -1.2
	c0 2.7 4.3 2.4 5.9 0.6"/>
<g id="r8">
	<path d="m3.3 -4l-3.4 9.6" class="stroke"/>
	<use x="3.4" y="-4" xlink:href="#r8e"/>
</g>
</defs>
<use x="829.94" y="113.00" xlink:href="#r8"/>
<defs>
<path id="ubclef" class="fill" d="m-200 -87
	c124 -35 222 -78 254 -236
	43 -228 -167 -246 -192 -103
	59 -80 157 22 92 78
	-62 47 -115 -22 -106 -88
	21 -141 270 -136 274 52
	-1 175 -106 264 -322 297
	m357 -250
	c0 -36 51 -34 51 0
	0 37 -51 36 -51 0
	m-2 -129
	c0 -36 51 -34 51 0
	0 38 -51 37 -51 0"/>
<use id="bclef" transform="translate(0,18) scale(0.045)"
	xlink:href="#ubclef"/>
</defs>
<use x="23.54" y="165.00" xlink:href="#bclef"/>
<g font-family="serif" font-size="16" font-weight="bold" font-style="normal"
	transform="translate(42.04,182.50) scale(1.2,1)">
	<text text-anchor="middle">8</text>
	<text y="-12" text-anchor="middle">3</text>
</g>
<use x="85.04" y="174.00" xlink:href="#hd"/>
<path d="M88.54 174.00v-21.00" class="stroke"/>
<use x="132.74" y="171.00" xlink:href="#r8"/>
<use x="164.94" y="174.00" xlink:href="#hd"/>
<path d="M168.44 174.00v-21.00" class="stroke"/>
<use x="232.74" y="171.00" xlink:href="#r8"/>
<use x="276.44" y="156.00" xlink:href="#hd"/>
<path d="M272.94 156.00v25.00" class="stroke"/>
<use x="276.44" y="162.00" xlink:href="#hd"/>
<use x="324.24" y="171.00" xlink:href="#r8"/>
<use x="356.44" y="162.00" xlink:href="#hd"/>
<path d="M352.94 162.00v25.00" class="stroke"/>
<use x="356.44" y="168.00" xlink:href="#hd"/>
<use x="424.14" y="171.00" xlink:href="#r8"/>
<path class="fill"
	d="M464.54 150.00l58.80 0.00v3.20l-58.80 -0.00"/>
<use x="461.44" y="171.00" xlink:href="#hd"/>
<path d="M464.94 171.00v-20.00" class="stroke"/>
<use x="485.64" y="171.00" xlink:href="#hd"/>
<path d="M489.14 171.00v-20.00" class="stroke"/>
<use x="519.54" y="171.00" xlink:href="#hd"/>
<path d="M523.04 171.00v-20.00" class="stroke"/>
<path class="fill"
	d="M560.64 149.50l69.50 -4.70v3.20l-69.50 4.70"/>
<use x="557.54" y="177.00" xlink:href="#hd"/>
<path d="M561.04 177.00v-26.60" class="stroke"/>
<use x="557.54" y="171.00" xlink:href="#hd"/>
<use x="592.44" y="177.00" xlink:href="#hd"/>
<path d="M595.94 177.00v-28.90" class="stroke"/>
<use x="592.44" y="171.00" xlink:href="#hd"/>
<use x="626.34" y="177.00" xlink:href="#hd"/>
<path d="M629.84 177.00v-31.20" class="stroke"/>
<use x="626.34" y="162.00" xlink:href="#hd"/>
<path class="fill"
	d="M661.74 147.70l68.50 8.30v3.20l-68.50 -8.30"/>
<use x="658.54" y="174.00" xlink:href="#hd"/>
<path d="M662.04 174.00v-25.30" class="stroke"/>
<use x="692.44" y="171.00" xlink:href="#hd"/>
<path d="M695.94 171.00v-18.20" class="stroke"/>
<use x="726.34" y="189.00" xlink:href="#hl"/>
<use x="726.34" y="192.00" xlink:href="#hd"/>
<path d="M729.84 192.00v-35.10" class="stroke"/>
<path class="fill"
	d="M767.24 202.20l76.40 0.00v-3.20l-76.40 -0.00"/>
<path class="fill"
	d="M791.54 197.20l51.90 0.00v-3.20l-51.90 -0.00"/>
<use x="771.14" y="183.00" xlink:href="#hd"/>
<path d="M767.64 183.00v18.20" class="stroke"/>
<use x="795.04" y="162.00" xlink:href="#hd"/>
<path d="M791.54 162.00v39.20" class="stroke"/>
<use x="813.04" y="165.00" xlink:href="#hd"/>
<defs>
<path id="unat" class="fill" d="
	m96 -750
	h-32
	v716
	l32 -8
	182 -54
	v282
	h32
	v-706
	l-34 10
	-180 50
	v-290
	m0 592
	v-190
	l182 -52
	v188"/>
<use id="nt0" transform="translate(-3,5) scale(0.018)"
	xlink:href="#unat"/>
</defs>
<use x="804.04" y="165.00" xlink:href="#nt0"/>
<path d="M809.54 165.00v36.20" class="stroke"/>
<use x="829.94" y="168.00" xlink:href="#hd"/>
<path d="M826.44 168.00v33.20" class="stroke"/>
<use x="846.84" y="171.00" xlink:href="#hd"/>
<path d="M843.34 171.00v30.20" class="stroke"/>
<path class="fill"
	d="M465.54 195.00l58.80 0.00v-3.20l-58.80 -0.00"/>
<use x="469.44" y="174.00" xlink:href="#hd"/>
<path d="M465.94 174.00v20.00" class="stroke"/>
<use x="493.64" y="174.00" xlink:href="#hd"/>
<path d="M490.14 174.00v20.00" class="stroke"/>
<use x="527.54" y="174.00" xlink:href="#hd"/>
<path d="M524.04 174.00v20.00" class="stroke"/>
</g>
<g stroke-width="0.70" transform="scale(0.867)" font-family="Times" font-size="13.00">
<path class="stroke" stroke-width="1"
	d="M11.54 316.00v-82.00"/>
<path class="fill"
	d="M6.54 231.00
	c10.5 1 12 -4.5 12 -3.5c0 1 -3.5 5.5 -8.5 5.5
	v84.00
	c5 0 8.5 4.5 8.5 5.5c0 1 -1.5 -4.5 -12 -3.5"/>
<use x="143.04" y="258.00" xlink:href="#rdots"/>
<path class="stroke" stroke-width="1"
	d="M139.04 258.00v-24.00"/>
<path class="stroke" stroke-width="3"
	d="M134.54 258.00v-24.00"/>
<use x="143.04" y="316.00" xlink:href="#rdots"/>
<path class="stroke" stroke-width="1"
	d="M139.04 316.00v-58.00"/>
<path class="stroke" stroke-width="3"
	d="M134.54 316.00v-58.00"/>
<path class="stroke" stroke-width="1"
	d="M220.24 258.00v-24.00"/>
<path class="stroke" stroke-width="1"
	d="M220.24 316.00v-58.00"/>
<path class="stroke" stroke-width="1"
	d="M318.24 258.00v-24.00"/>
<path class="stroke" stroke-width="1"
	d="M318.24 316.00v-58.00"/>
<path class="stroke" stroke-width="1"
	d="M416.24 258.00v-24.00"/>
<path class="stroke" stroke-width="1"
	d="M416.24 316.00v-58.00"/>
<path class="stroke" stroke-width="1"
	d="M494.54 258.00v-24.00"/>
<path class="stroke" stroke-width="1"
	d="M494.54 316.00v-58.00"/>
<path class="stroke" stroke-width="1"
	d="M592.44 258.00v-24.00"/>
<path class="stroke" stroke-width="1"
	d="M592.44 316.00v-58.00"/>
<path class="stroke" stroke-width="1"
	d="M690.44 258.00v-24.00"/>
<path class="stroke" stroke-width="1"
	d="M690.44 316.00v-58.00"/>
<path class="stroke" stroke-width="1"
	d="M788.44 258.00v-24.00"/>
<path class="stroke" stroke-width="1"
	d="M788.44 316.00v-58.00"/>
<path class="stroke" stroke-width="3"
	d="M860.54 258.00v-24.00"/>
<path class="stroke" stroke-width="1"
	d="M856.04 258.00v-24.00"/>
<use x="852.04" y="258.00" xlink:href="#rdots"/>
<path class="stroke" stroke-width="3"
	d="M860.54 316.00v-58.00"/>
<path class="stroke" stroke-width="1"
	d="M856.04 316.00v-58.00"/>
<use x="852.04" y="316.00" xlink:href="#rdots"/>
<path d="m11.54 258.00
	h850.50
	M11.54 252.00
	h850.50
	M11.54 246.00
	h850.50
	M11.54 240.00
	h850.50
	M11.54 234.00
	h850.50
	" class="stroke"/>
<path d="m11.54 316.00
	h850.50
	M11.54 310.00
	h850.50
	M11.54 304.00
	h850.50
	M11.54 298.00
	h850.50
	M11.54 292.00
	h850.50
	" class="stroke"/>
<path class="fill"
	d="M165.54 223.80c6.05 -3.46 32.39 -0.58 38.44 4.20
	v-0.24c-7.21 -6.54 -31.24 -9.42 -38.44 -3.96"/>
<text x="47.54" y="219.40">2</text>
<path class="stroke"
	d="M43.54 208.00m0 20v-20h88.50v20"/>
<use x="23.54" y="252.00" xlink:href="#tclef"/>
<use x="56.04" y="231.00" xlink:href="#hd"/>
<path d="M52.54 231.00v40.00" class="stroke"/>
<use x="56.04" y="252.00" xlink:href="#hd"/>
<use x="56.04" y="246.00" xlink:href="#hd"/>
<use x="56.04" y="240.00" xlink:href="#hd"/>
<use x="108.94" y="246.00" xlink:href="#r8"/>
<path class="fill"
	d="M158.74 251.50l42.10 7.70v-3.20l-42.10 -7.70"/>
<use x="162.54" y="228.00" xlink:href="#hl"/>
<use x="162.54" y="228.00" xlink:href="#hd"/>
<path d="M159.04 228.00v22.60" class="stroke"/>
<use x="183.64" y="234.00" xlink:href="#hd"/>
<use x="174.64" y="234.00" xlink:href="#sh0"/>
<path d="M180.14 234.00v20.50" class="stroke"/>
<use x="203.94" y="240.00" xlink:href="#hd"/>
<path d="M200.44 240.00v18.20" class="stroke"/>
<path class="fill"
	d="M228.94 260.00l73.70 0.00v-3.20l-73.70 -0.00"/>
<path class="fill"
	d="M229.24 255.00l73.00 0.00v-3.20l-73.00 -0.00"/>
<use x="232.74" y="231.00" xlink:href="#hd"/>
<path d="M229.24 231.00v28.00" class="stroke"/>
<use x="247.34" y="240.00" xlink:href="#hd"/>
<path d="M243.84 240.00v19.00" class="stroke"/>
<use x="261.94" y="231.00" xlink:href="#hd"/>
<path d="M258.44 231.00v28.00" class="stroke"/>
<use x="276.54" y="228.00" xlink:href="#hl"/>
<use x="276.54" y="225.00" xlink:href="#hd"/>
<path d="M273.04 225.00v34.00" class="stroke"/>
<use x="291.14" y="231.00" xlink:href="#hd"/>
<path d="M287.64 231.00v28.00" class="stroke"/>
<use x="305.74" y="240.00" xlink:href="#hd"/>
<path d="M302.24 240.00v19.00" class="stroke"/>
<path class="fill"
	d="M326.94 261.00l59.10 0.00v-3.20l-59.10 -0.00"/>
<use x="330.74" y="237.00" xlink:href="#hd"/>
<path d="M327.24 237.00v23.00" class="stroke"/>
<use x="330.74" y="243.00" xlink:href="#hd"/>
<use x="359.94" y="237.00" xlink:href="#hd"/>
<path d="M356.44 237.00v23.00" class="stroke"/>
<use x="359.94" y="243.00" xlink:href="#hd"/>
<use x="389.14" y="237.00" xlink:href="#hd"/>
<path d="M385.64 237.00v23.00" class="stroke"/>
<use x="389.14" y="243.00" xlink:href="#hd"/>
<path class="fill"
	d="M424.84 265.60l29.90 6.70v-3.20l-29.90 -6.70"/>
<path class="fill"
	d="M425.24 260.70l14.60 3.30v-3.20l-14.60 -3.30"/>
<use x="428.74" y="240.00" xlink:href="#hd"/>
<path d="M425.24 240.00v24.70" class="stroke"/>
<use x="443.34" y="246.00" xlink:href="#hd"/>
<path d="M439.84 246.00v22.00" class="stroke"/>
<use x="457.94" y="252.00" xlink:href="#hd"/>
<path d="M454.44 252.00v19.30" class="stroke"/>
<use x="478.24" y="246.00" xlink:href="#r8"/>
<path class="fill"
	d="M503.14 271.20l59.10 -7.00v-3.20l-59.10 7.00"/>
<use x="507.04" y="252.00" xlink:href="#hd"/>
<path d="M503.54 252.00v18.20" class="stroke"/>
<use x="536.24" y="243.00" xlink:href="#hd"/>
<path d="M532.74 243.00v23.80" class="stroke"/>
<use x="565.44" y="237.00" xlink:href="#hd"/>
<path d="M561.94 237.00v26.30" class="stroke"/>
<path class="fill"
	d="M601.14 275.50l73.70 -6.20v-3.20l-73.70 6.20"/>
<path class="fill"
	d="M601.44 270.40l73.00 -6.20v-3.20l-73.00 6.20"/>
<use x="604.94" y="243.00" xlink:href="#hd"/>
<path d="M601.44 243.00v31.40" class="stroke"/>
<use x="619.54" y="252.00" xlink:href="#hd"/>
<path d="M616.04 252.00v21.20" class="stroke"/>
<use x="634.14" y="237.00" xlink:href="#hd"/>
<path d="M630.64 237.00v35.00" class="stroke"/>
<use x="648.74" y="243.00" xlink:href="#hd"/>
<path d="M645.24 243.00v27.70" class="stroke"/>
<use x="663.34" y="231.00" xlink:href="#hd"/>
<path d="M659.84 231.00v38.50" class="stroke"/>
<use x="677.94" y="237.00" xlink:href="#hd"/>
<path d="M674.44 237.00v31.20" class="stroke"/>
<path class="fill"
	d="M699.14 266.00l73.70 0.00v-3.20l-73.70 -0.00"/>
<path class="fill"
	d="M699.44 261.00l73.00 0.00v-3.20l-73.00 -0.00"/>
<use x="702.94" y="240.00" xlink:href="#hd"/>
<path d="M699.44 240.00v24.90" class="stroke"/>
<use x="717.54" y="234.00" xlink:href="#hd"/>
<path d="M714.04 234.00v30.90" class="stroke"/>
<use x="732.14" y="240.00" xlink:href="#hd"/>
<path d="M728.64 240.00v24.90" class="stroke"/>
<use x="746.74" y="234.00" xlink:href="#hd"/>
<path d="M743.24 234.00v30.90" class="stroke"/>
<use x="761.34" y="246.00" xlink:href="#hd"/>
<path d="M757.84 246.00v18.90" class="stroke"/>
<use x="775.94" y="240.00" xlink:href="#hd"/>
<path d="M772.44 240.00v24.90" class="stroke"/>
<use x="800.94" y="243.00" xlink:href="#hd"/>
<path d="M797.44 243.00v21.00" class="stroke"/>
<use x="841.54" y="246.00" xlink:href="#r8"/>
<use x="23.54" y="298.00" xlink:href="#bclef"/>
<path class="fill"
	d="M52.24 335.20l68.20 -5.00v-3.20l-68.20 5.00"/>
<path class="fill"
	d="M72.84 328.70l47.20 -3.40v-3.20l-47.20 3.40"/>
<use x="56.04" y="316.00" xlink:href="#hd"/>
<path d="M52.54 316.00v18.20" class="stroke"/>
<use x="76.34" y="289.00" xlink:href="#hd"/>
<path d="M72.84 289.00v43.70" class="stroke"/>
<use x="90.94" y="295.00" xlink:href="#hd"/>
<path d="M87.44 295.00v36.70" class="stroke"/>
<use x="108.94" y="298.00" xlink:href="#hd"/>
<use x="99.94" y="298.00" xlink:href="#sh0"/>
<path d="M105.44 298.00v32.30" class="stroke"/>
<use x="123.54" y="301.00" xlink:href="#hd"/>
<path d="M120.04 301.00v28.30" class="stroke"/>
<use x="162.54" y="298.00" xlink:href="#hd"/>
<use x="153.54" y="298.00" xlink:href="#sh0"/>
<path d="M159.04 298.00v25.00" class="stroke"/>
<use x="162.54" y="304.00" xlink:href="#hd"/>
<use x="203.94" y="298.00" xlink:href="#hd"/>
<path d="M200.44 298.00v28.00" class="stroke"/>
<path class="fill"
	d="M200.44 326.00c0.6 -5.6 9.6 -9 5.6 -18.4
	1.6 6 -1.3 11.6 -5.6 12.8
"/>
<use x="203.94" y="307.00" xlink:href="#hd"/>
<use x="232.74" y="310.00" xlink:href="#hd"/>
<path d="M236.24 310.00v-25.00" class="stroke"/>
<use x="232.74" y="304.00" xlink:href="#hd"/>
<use x="291.14" y="310.00" xlink:href="#hd"/>
<path d="M294.64 310.00v-25.00" class="stroke"/>
<path class="fill"
	d="M294.64 285.00c0.6 5.6 9.6 9 5.6 18.4
	1.6 -6 -1.3 -11.6 -5.6 -12.8
"/>
<use x="291.14" y="304.00" xlink:href="#hd"/>
<path class="fill"
	d="M326.94 329.20l73.70 0.00v-3.20l-73.70 -0.00"/>
<path class="fill"
	d="M327.24 324.20l73.00 0.00v-3.20l-73.00 -0.00"/>
<use x="330.74" y="307.00" xlink:href="#hd"/>
<path d="M327.24 307.00v21.20" class="stroke"/>
<use x="345.34" y="301.00" xlink:href="#hd"/>
<path d="M341.84 301.00v27.20" class="stroke"/>
<use x="359.94" y="295.00" xlink:href="#hd"/>
<path d="M356.44 295.00v33.20" class="stroke"/>
<use x="374.54" y="301.00" xlink:href="#hd"/>
<path d="M371.04 301.00v27.20" class="stroke"/>
<use x="389.14" y="286.00" xlink:href="#hl"/>
<use x="389.14" y="286.00" xlink:href="#hd"/>
<path d="M385.64 286.00v42.20" class="stroke"/>
<use x="403.74" y="307.00" xlink:href="#hd"/>
<path d="M400.24 307.00v21.20" class="stroke"/>
<use x="428.74" y="316.00" xlink:href="#hd"/>
<path d="M432.24 316.00v-40.00" class="stroke"/>
<use x="428.74" y="295.00" xlink:href="#hd"/>
<use x="478.24" y="295.00" xlink:href="#hd"/>
<path d="M474.74 295.00v21.00" class="stroke"/>
<path class="fill"
	d="M474.74 316.00c0.6 -5.6 9.6 -9 5.6 -18.4
	1.6 6 -1.3 11.6 -5.6 12.8
"/>
<path class="fill"
	d="M503.14 323.90l73.70 0.00v-3.20l-73.70 -0.00"/>
<path class="fill"
	d="M503.54 318.90l73.00 0.00v-3.20l-73.00 -0.00"/>
<use x="507.04" y="301.00" xlink:href="#hd"/>
<path d="M503.54 301.00v21.90" class="stroke"/>
<use x="507.04" y="307.00" xlink:href="#hd"/>
<use x="521.64" y="295.00" xlink:href="#hd"/>
<path d="M518.14 295.00v27.90" class="stroke"/>
<use x="536.24" y="301.00" xlink:href="#hd"/>
<path d="M532.74 301.00v21.90" class="stroke"/>
<use x="536.24" y="307.00" xlink:href="#hd"/>
<use x="550.84" y="295.00" xlink:href="#hd"/>
<path d="M547.34 295.00v27.90" class="stroke"/>
<use x="565.44" y="301.00" xlink:href="#hd"/>
<path d="M561.94 301.00v21.90" class="stroke"/>
<use x="565.44" y="307.00" xlink:href="#hd"/>
<use x="579.94" y="295.00" xlink:href="#hd"/>
<path d="M576.44 295.00v27.90" class="stroke"/>
<use x="604.94" y="301.00" xlink:href="#hd"/>
<path d="M601.44 301.00v25.00" class="stroke"/>
<use x="604.94" y="307.00" xlink:href="#hd"/>
<use x="663.34" y="304.00" xlink:href="#r8"/>
<use x="702.94" y="292.00" xlink:href="#hd"/>
<path d="M699.44 292.00v25.00" class="stroke"/>
<use x="702.94" y="298.00" xlink:href="#hd"/>
<use x="761.34" y="286.00" xlink:href="#hl"/>
<use x="761.34" y="283.00" xlink:href="#hd"/>
<path d="M757.84 283.00v31.00" class="stroke"/>
<path class="fill"
	d="M757.84 314.00c0.6 -5.6 9.6 -9 5.6 -18.4
	1.6 6 -1.3 11.6 -5.6 12.8
"/>
<use x="761.34" y="295.00" xlink:href="#hd"/>
<path class="fill"
	d="M804.14 287.70l41.30 9.70v3.20l-41.30 -9.70"/>
<use x="800.94" y="307.00" xlink:href="#hd"/>
<path d="M804.44 307.00v-18.20" class="stroke"/>
<use x="821.24" y="316.00" xlink:href="#hd"/>
<path d="M824.74 316.00v-22.40" class="stroke"/>
<use x="841.54" y="322.00" xlink:href="#hl"/>
<use x="841.54" y="328.00" xlink:href="#hl"/>
<use x="841.54" y="328.00" xlink:href="#hd"/>
<path d="M845.04 328.00v-29.70" class="stroke"/>
</g>
</svg>
