<?xml version="1.0" standalone="no"?>
<!DOCTYPE svg PUBLIC "-//W3C//DTD SVG 1.1//EN"
	"http://www.w3.org/Graphics/SVG/1.1/DTD/svg11.dtd">
<svg xmlns="http://www.w3.org/2000/svg" version="1.1"
	xmlns:xlink="http://www.w3.org/1999/xlink"
	color="black"
	width="757.10px" height="296.40px">
<style type="text/css">
.fill {fill: currentColor}
.stroke {stroke: currentColor; fill: none}
text{white-space: pre}
</style>
<title>./K516f-8-6-2-10-8-4-4-7-2-8-6-11-3-9-12-4.abc (3677) tune 1</title>
<!-- Creator: abcm2ps-8.13.8 -->
<!-- CreationDate: Sep  7, 2017 11:19 -->
<!-- CommandLine: ./K516f-8-6-2-10-8-4-4-7-2-8-6-11-3-9-12-4.abc -O ./K516f-8-6-2-10-8-4-4-7-2-8-6-11-3-9-12-4.svg -g -->
<rect width="100%" height="100%" fill="white"/>
<g stroke-width="0.70" transform="scale(0.867)">
<!-- title: 8-6-2-10-8-4-4-7-2-8-6-11-3-9-12-4 -->
</g>
<g stroke-width="0.70" transform="scale(0.867)" font-family="Times" font-size="20.00">
<text x="436.84" y="22.00" text-anchor="middle">8-6-2-10-8-4-4-7-2-8-6-11-3-9-12-4</text>
</g>
<g stroke-width="0.70" transform="scale(0.867)" font-family="Times" font-size="20.00">
<!-- subtitle: $1K.516f::152:74:141:156:99:55:110:91:70:155:64:164:174:115:44:79::$0 -->
</g>
<g stroke-width="0.70" transform="scale(0.867)" font-family="Courier" font-size="8.00" font-weight="bold">
<text x="436.84" y="41.80" text-anchor="middle">K.516f::152:74:141:156:99:55:110:91:70:155:64:164:174:115:44:79::</text>
</g>
<g stroke-width="0.70" transform="scale(0.867)" font-family="Courier" font-size="8.00" font-weight="bold">
<!-- subtitle: $1Perm. No.: 367725590476196$0 -->
<text x="436.84" y="60.80" text-anchor="middle">Perm. No.: 367725590476196</text>
</g>
<g stroke-width="0.70" transform="scale(0.607)" font-family="Courier" font-size="8.00" font-weight="bold">
<defs>
<ellipse id="hd" rx="4.1" ry="2.9"
	transform="rotate(-20)" class="fill"/>
</defs>
<use x="103.06" y="121.29" xlink:href="#hd"/>
<path d="M106.56 121.29v-21.00" class="stroke"/>
<path class="fill"
	d="M106.56 100.29c0.6 5.6 9.6 9 5.6 18.4
	1.6 -6 -1.3 -11.6 -5.6 -12.8
"/>
</g>
<g stroke-width="0.70" transform="scale(0.867)" font-family="Times" font-size="15.00" font-weight="bold">
<text x="81.24" y="87.00">= 111</text>
<path class="stroke" stroke-width="1"
	d="M11.54 183.00v-82.00"/>
<path class="fill"
	d="M6.54 98.00
	c10.5 1 12 -4.5 12 -3.5c0 1 -3.5 5.5 -8.5 5.5
	v84.00
	c5 0 8.5 4.5 8.5 5.5c0 1 -1.5 -4.5 -12 -3.5"/>
<defs>
<g id="rdots" class="fill">
	<circle cx="0" cy="-9" r="1.2"/>
	<circle cx="0" cy="-15" r="1.2"/>
</g>
</defs>
<use x="70.54" y="125.00" xlink:href="#rdots"/>
<path class="stroke" stroke-width="1"
	d="M66.54 125.00v-24.00"/>
<path class="stroke" stroke-width="3"
	d="M62.04 125.00v-24.00"/>
<use x="70.54" y="183.00" xlink:href="#rdots"/>
<path class="stroke" stroke-width="1"
	d="M66.54 183.00v-58.00"/>
<path class="stroke" stroke-width="3"
	d="M62.04 183.00v-58.00"/>
<path class="stroke" stroke-width="1"
	d="M170.94 125.00v-24.00"/>
<path class="stroke" stroke-width="1"
	d="M170.94 183.00v-58.00"/>
<path class="stroke" stroke-width="1"
	d="M280.14 125.00v-24.00"/>
<path class="stroke" stroke-width="1"
	d="M280.14 183.00v-58.00"/>
<path class="stroke" stroke-width="1"
	d="M389.24 125.00v-24.00"/>
<path class="stroke" stroke-width="1"
	d="M389.24 183.00v-58.00"/>
<path class="stroke" stroke-width="1"
	d="M487.14 125.00v-24.00"/>
<path class="stroke" stroke-width="1"
	d="M487.14 183.00v-58.00"/>
<path class="stroke" stroke-width="1"
	d="M570.64 125.00v-24.00"/>
<path class="stroke" stroke-width="1"
	d="M570.64 183.00v-58.00"/>
<path class="stroke" stroke-width="1"
	d="M648.94 125.00v-24.00"/>
<path class="stroke" stroke-width="1"
	d="M648.94 183.00v-58.00"/>
<path class="stroke" stroke-width="1"
	d="M759.44 125.00v-24.00"/>
<path class="stroke" stroke-width="1"
	d="M759.44 183.00v-58.00"/>
<path class="stroke" stroke-width="3"
	d="M860.54 125.00v-24.00"/>
<path class="stroke" stroke-width="1"
	d="M856.04 125.00v-24.00"/>
<use x="852.04" y="125.00" xlink:href="#rdots"/>
<path class="stroke" stroke-width="3"
	d="M860.54 183.00v-58.00"/>
<path class="stroke" stroke-width="1"
	d="M856.04 183.00v-58.00"/>
<use x="852.04" y="183.00" xlink:href="#rdots"/>
<path d="m11.54 125.00
	h850.50
	M11.54 119.00
	h850.50
	M11.54 113.00
	h850.50
	M11.54 107.00
	h850.50
	M11.54 101.00
	h850.50
	" class="stroke"/>
<path d="m11.54 183.00
	h850.50
	M11.54 177.00
	h850.50
	M11.54 171.00
	h850.50
	M11.54 165.00
	h850.50
	M11.54 159.00
	h850.50
	" class="stroke"/>
<path class="fill"
	d="M662.14 119.00c2.38 4.13 12.71 5.57 15.09 2.10
	v0.22c-2.83 5.26 -12.26 3.82 -15.09 -2.32"/>
<path class="fill"
	d="M695.24 122.00c2.38 4.13 12.71 5.57 15.09 2.10
	v0.22c-2.83 5.26 -12.26 3.82 -15.09 -2.32"/>
<path class="fill"
	d="M728.44 125.00c2.36 4.46 12.64 7.34 15.00 4.20
	v0.22c-2.81 4.93 -12.19 2.05 -15.00 -4.41"/>
</g>
<g stroke-width="0.70" transform="scale(0.867)" font-family="Times" font-size="13.00">
<text x="763.44" y="86.40">1</text>
<path class="stroke"
	d="M759.44 75.00m0 20v-20h94.60v20"/>
<defs>
<path id="utclef" class="fill" d="m-50 -90
	c-72 -41 -72 -158 52 -188
	150 -10 220 188 90 256
	-114 52 -275 0 -293 -136
	-15 -181 93 -229 220 -334
	88 -87 79 -133 62 -210
	-51 33 -94 105 -89 186
	17 267 36 374 49 574
	6 96 -19 134 -77 135
	-80 1 -126 -93 -61 -133
	85 -41 133 101 31 105
	23 17 92 37 90 -92
	-10 -223 -39 -342 -50 -617
	0 -90 0 -162 96 -232
	56 72 63 230 22 289
	-74 106 -257 168 -255 316
	9 153 148 185 252 133
	86 -65 29 -192 -80 -176
	-71 12 -105 67 -59 124"/>
<use id="tclef" transform="translate(0,6) scale(0.045)"
	xlink:href="#utclef"/>
</defs>
<use x="23.54" y="119.00" xlink:href="#tclef"/>
<g font-family="serif" font-size="16" font-weight="bold" font-style="normal"
	transform="translate(42.04,124.50) scale(1.2,1)">
	<text text-anchor="middle">8</text>
	<text y="-12" text-anchor="middle">3</text>
</g>
<path class="fill"
	d="M80.84 123.00l73.80 9.20v-3.20l-73.80 -9.20"/>
<path class="fill"
	d="M104.64 121.00l49.80 6.20v-3.20l-49.80 -6.20"/>
<use x="84.74" y="98.00" xlink:href="#hd"/>
<path d="M81.24 98.00v24.10" class="stroke"/>
<use x="108.14" y="101.00" xlink:href="#hd"/>
<path d="M104.64 101.00v24.00" class="stroke"/>
<use x="124.64" y="104.00" xlink:href="#hd"/>
<path d="M121.14 104.00v23.10" class="stroke"/>
<use x="141.24" y="107.00" xlink:href="#hd"/>
<path d="M137.74 107.00v22.10" class="stroke"/>
<use x="157.84" y="110.00" xlink:href="#hd"/>
<path d="M154.34 110.00v21.20" class="stroke"/>
<path class="fill"
	d="M180.24 122.60l83.70 9.60v-3.20l-83.70 -9.60"/>
<path class="fill"
	d="M180.54 117.70l83.00 9.50v-3.20l-83.00 -9.50"/>
<defs>
<path id="hl" class="stroke" d="m-6 0h12"/>
</defs>
<use x="184.04" y="95.00" xlink:href="#hl"/>
<use x="184.04" y="89.00" xlink:href="#hl"/>
<use x="184.04" y="89.00" xlink:href="#hd"/>
<path d="M180.54 89.00v32.70" class="stroke"/>
<use x="200.74" y="95.00" xlink:href="#hl"/>
<use x="200.74" y="92.00" xlink:href="#hd"/>
<path d="M197.24 92.00v31.60" class="stroke"/>
<use x="217.34" y="95.00" xlink:href="#hl"/>
<use x="217.34" y="89.00" xlink:href="#hl"/>
<use x="217.34" y="89.00" xlink:href="#hd"/>
<path d="M213.84 89.00v36.50" class="stroke"/>
<use x="233.94" y="98.00" xlink:href="#hd"/>
<path d="M230.44 98.00v29.40" class="stroke"/>
<use x="250.54" y="104.00" xlink:href="#hd"/>
<path d="M247.04 104.00v25.30" class="stroke"/>
<use x="267.04" y="110.00" xlink:href="#hd"/>
<path d="M263.54 110.00v21.20" class="stroke"/>
<path class="fill"
	d="M289.44 133.00l83.60 0.00v-3.20l-83.60 -0.00"/>
<path class="fill"
	d="M289.84 128.00l82.90 0.00v-3.20l-82.90 -0.00"/>
<use x="293.34" y="107.00" xlink:href="#hd"/>
<path d="M289.84 107.00v24.90" class="stroke"/>
<use x="309.84" y="104.00" xlink:href="#hd"/>
<path d="M306.34 104.00v27.90" class="stroke"/>
<use x="326.44" y="101.00" xlink:href="#hd"/>
<path d="M322.94 101.00v30.90" class="stroke"/>
<use x="343.04" y="107.00" xlink:href="#hd"/>
<path d="M339.54 107.00v24.90" class="stroke"/>
<use x="359.64" y="110.00" xlink:href="#hd"/>
<path d="M356.14 110.00v21.90" class="stroke"/>
<use x="376.24" y="113.00" xlink:href="#hd"/>
<path d="M372.74 113.00v18.90" class="stroke"/>
<path class="fill"
	d="M398.64 142.80l67.00 -6.50v-3.20l-67.00 6.50"/>
<path class="fill"
	d="M398.94 137.80l49.80 -4.80v-3.20l-49.80 4.80"/>
<use x="402.44" y="110.00" xlink:href="#hd"/>
<path d="M398.94 110.00v31.80" class="stroke"/>
<use x="419.04" y="119.00" xlink:href="#hd"/>
<path d="M415.54 119.00v21.20" class="stroke"/>
<use x="435.64" y="104.00" xlink:href="#hd"/>
<path d="M432.14 104.00v34.60" class="stroke"/>
<use x="452.24" y="110.00" xlink:href="#hd"/>
<path d="M448.74 110.00v27.00" class="stroke"/>
<use x="468.84" y="98.00" xlink:href="#hd"/>
<path d="M465.34 98.00v37.40" class="stroke"/>
<path class="fill"
	d="M501.74 123.10l47.40 3.20v-3.20l-47.40 -3.20"/>
<use x="505.64" y="101.00" xlink:href="#hd"/>
<defs>
<path id="usharp" class="fill" d="
	m136 -702
	v890
	h32
	v-890
	m128 840
	h32
	v-888
	h-32
	m-232 286
	v116
	l338 -96
	v-116
	m-338 442
	v116
	l338 -98
	v-114"/>
<use id="sh0" transform="translate(-4,5) scale(0.018)"
	xlink:href="#usharp"/>
</defs>
<use x="496.64" y="101.00" xlink:href="#sh0"/>
<path d="M502.14 101.00v21.10" class="stroke"/>
<use x="528.94" y="95.00" xlink:href="#hl"/>
<use x="528.94" y="95.00" xlink:href="#hd"/>
<path d="M525.44 95.00v28.60" class="stroke"/>
<use x="552.34" y="107.00" xlink:href="#hd"/>
<path d="M548.84 107.00v18.20" class="stroke"/>
<path class="fill"
	d="M580.04 121.80l47.40 4.50v-3.20l-47.40 -4.50"/>
<use x="583.84" y="98.00" xlink:href="#hd"/>
<path d="M580.34 98.00v22.80" class="stroke"/>
<use x="607.24" y="95.00" xlink:href="#hl"/>
<use x="607.24" y="92.00" xlink:href="#hd"/>
<path d="M603.74 92.00v31.00" class="stroke"/>
<use x="630.64" y="107.00" xlink:href="#hd"/>
<path d="M627.14 107.00v18.20" class="stroke"/>
<path class="fill"
	d="M665.24 88.80l85.00 0.00v3.20l-85.00 -0.00"/>
<path class="fill"
	d="M665.64 93.80l84.30 0.00v3.20l-84.30 -0.00"/>
<use x="662.14" y="113.00" xlink:href="#hd"/>
<path d="M665.64 113.00v-23.20" class="stroke"/>
<use x="662.14" y="107.00" xlink:href="#hd"/>
<use x="678.64" y="116.00" xlink:href="#hd"/>
<path d="M682.14 116.00v-26.20" class="stroke"/>
<use x="678.64" y="110.00" xlink:href="#hd"/>
<use x="695.24" y="116.00" xlink:href="#hd"/>
<path d="M698.74 116.00v-26.20" class="stroke"/>
<use x="695.24" y="110.00" xlink:href="#hd"/>
<use x="711.84" y="119.00" xlink:href="#hd"/>
<path d="M715.34 119.00v-29.20" class="stroke"/>
<use x="711.84" y="113.00" xlink:href="#hd"/>
<use x="728.44" y="119.00" xlink:href="#hd"/>
<path d="M731.94 119.00v-29.20" class="stroke"/>
<use x="728.44" y="113.00" xlink:href="#hd"/>
<use x="746.44" y="122.00" xlink:href="#hd"/>
<use x="737.44" y="122.00" xlink:href="#sh0"/>
<path d="M749.94 122.00v-32.20" class="stroke"/>
<use x="746.44" y="116.00" xlink:href="#hd"/>
<use x="772.64" y="98.00" xlink:href="#hd"/>
<path d="M769.14 98.00v40.00" class="stroke"/>
<use x="772.64" y="119.00" xlink:href="#hd"/>
<use x="772.64" y="113.00" xlink:href="#hd"/>
<use x="772.64" y="107.00" xlink:href="#hd"/>
<defs>
<path id="r8e" class="fill" d="m 0 0
	c-1.5 1.5 -2.4 2 -3.6 2
	2.4 -2.8 -2.8 -4 -2.8 -1.2
	c0 2.7 4.3 2.4 5.9 0.6"/>
<g id="r8">
	<path d="m3.3 -4l-3.4 9.6" class="stroke"/>
	<use x="3.4" y="-4" xlink:href="#r8e"/>
</g>
</defs>
<use x="830.64" y="113.00" xlink:href="#r8"/>
<defs>
<path id="ubclef" class="fill" d="m-200 -87
	c124 -35 222 -78 254 -236
	43 -228 -167 -246 -192 -103
	59 -80 157 22 92 78
	-62 47 -115 -22 -106 -88
	21 -141 270 -136 274 52
	-1 175 -106 264 -322 297
	m357 -250
	c0 -36 51 -34 51 0
	0 37 -51 36 -51 0
	m-2 -129
	c0 -36 51 -34 51 0
	0 38 -51 37 -51 0"/>
<use id="bclef" transform="translate(0,18) scale(0.045)"
	xlink:href="#ubclef"/>
</defs>
<use x="23.54" y="165.00" xlink:href="#bclef"/>
<g font-family="serif" font-size="16" font-weight="bold" font-style="normal"
	transform="translate(42.04,182.50) scale(1.2,1)">
	<text text-anchor="middle">8</text>
	<text y="-12" text-anchor="middle">3</text>
</g>
<use x="84.74" y="168.00" xlink:href="#hd"/>
<path d="M81.24 168.00v25.00" class="stroke"/>
<use x="84.74" y="174.00" xlink:href="#hd"/>
<use x="141.24" y="171.00" xlink:href="#r8"/>
<use x="184.04" y="168.00" xlink:href="#hd"/>
<path d="M187.54 168.00v-21.00" class="stroke"/>
<use x="250.54" y="171.00" xlink:href="#r8"/>
<use x="293.34" y="162.00" xlink:href="#hd"/>
<path d="M289.84 162.00v34.00" class="stroke"/>
<use x="293.34" y="177.00" xlink:href="#hd"/>
<use x="359.64" y="183.00" xlink:href="#hd"/>
<path d="M363.14 183.00v-21.00" class="stroke"/>
<path class="fill"
	d="M363.14 162.00c0.6 5.6 9.6 9 5.6 18.4
	1.6 -6 -1.3 -11.6 -5.6 -12.8
"/>
<use x="402.44" y="162.00" xlink:href="#hd"/>
<path d="M398.94 162.00v25.00" class="stroke"/>
<use x="402.44" y="168.00" xlink:href="#hd"/>
<use x="468.84" y="171.00" xlink:href="#r8"/>
<use x="505.64" y="159.00" xlink:href="#hd"/>
<path d="M502.14 159.00v34.00" class="stroke"/>
<use x="505.64" y="174.00" xlink:href="#hd"/>
<use x="552.34" y="159.00" xlink:href="#hd"/>
<path d="M548.84 159.00v34.00" class="stroke"/>
<path class="fill"
	d="M548.84 193.00c0.6 -5.6 9.6 -9 5.6 -18.4
	1.6 6 -1.3 11.6 -5.6 12.8
"/>
<use x="552.34" y="174.00" xlink:href="#hd"/>
<use x="583.84" y="177.00" xlink:href="#hd"/>
<path d="M587.34 177.00v-25.00" class="stroke"/>
<use x="583.84" y="171.00" xlink:href="#hd"/>
<use x="630.64" y="171.00" xlink:href="#r8"/>
<path class="fill"
	d="M665.24 147.70l67.00 8.20v3.20l-67.00 -8.20"/>
<use x="662.14" y="174.00" xlink:href="#hd"/>
<path d="M665.64 174.00v-25.30" class="stroke"/>
<use x="695.24" y="171.00" xlink:href="#hd"/>
<path d="M698.74 171.00v-18.20" class="stroke"/>
<use x="728.44" y="189.00" xlink:href="#hl"/>
<use x="728.44" y="192.00" xlink:href="#hd"/>
<path d="M731.94 192.00v-35.10" class="stroke"/>
<path class="fill"
	d="M768.84 202.20l75.20 0.00v-3.20l-75.20 -0.00"/>
<path class="fill"
	d="M792.54 197.20l51.20 0.00v-3.20l-51.20 -0.00"/>
<use x="772.64" y="183.00" xlink:href="#hd"/>
<path d="M769.14 183.00v18.20" class="stroke"/>
<use x="796.04" y="162.00" xlink:href="#hd"/>
<path d="M792.54 162.00v39.20" class="stroke"/>
<use x="814.04" y="165.00" xlink:href="#hd"/>
<defs>
<path id="unat" class="fill" d="
	m96 -750
	h-32
	v716
	l32 -8
	182 -54
	v282
	h32
	v-706
	l-34 10
	-180 50
	v-290
	m0 592
	v-190
	l182 -52
	v188"/>
<use id="nt0" transform="translate(-3,5) scale(0.018)"
	xlink:href="#unat"/>
</defs>
<use x="805.04" y="165.00" xlink:href="#nt0"/>
<path d="M810.54 165.00v36.20" class="stroke"/>
<use x="830.64" y="168.00" xlink:href="#hd"/>
<path d="M827.14 168.00v33.20" class="stroke"/>
<use x="847.24" y="171.00" xlink:href="#hd"/>
<path d="M843.74 171.00v30.20" class="stroke"/>
<use x="184.04" y="174.00" xlink:href="#hd"/>
<path d="M180.54 174.00v21.00" class="stroke"/>
</g>
<g stroke-width="0.70" transform="scale(0.867)" font-family="Times" font-size="13.00">
<path class="stroke" stroke-width="1"
	d="M11.54 316.00v-82.00"/>
<path class="fill"
	d="M6.54 231.00
	c10.5 1 12 -4.5 12 -3.5c0 1 -3.5 5.5 -8.5 5.5
	v84.00
	c5 0 8.5 4.5 8.5 5.5c0 1 -1.5 -4.5 -12 -3.5"/>
<use x="139.84" y="258.00" xlink:href="#rdots"/>
<path class="stroke" stroke-width="1"
	d="M135.84 258.00v-24.00"/>
<path class="stroke" stroke-width="3"
	d="M131.34 258.00v-24.00"/>
<use x="139.84" y="316.00" xlink:href="#rdots"/>
<path class="stroke" stroke-width="1"
	d="M135.84 316.00v-58.00"/>
<path class="stroke" stroke-width="3"
	d="M131.34 316.00v-58.00"/>
<path class="stroke" stroke-width="1"
	d="M231.94 258.00v-24.00"/>
<path class="stroke" stroke-width="1"
	d="M231.94 316.00v-58.00"/>
<path class="stroke" stroke-width="1"
	d="M325.74 258.00v-24.00"/>
<path class="stroke" stroke-width="1"
	d="M325.74 316.00v-58.00"/>
<path class="stroke" stroke-width="1"
	d="M419.44 258.00v-24.00"/>
<path class="stroke" stroke-width="1"
	d="M419.44 316.00v-58.00"/>
<path class="stroke" stroke-width="1"
	d="M518.74 258.00v-24.00"/>
<path class="stroke" stroke-width="1"
	d="M518.74 316.00v-58.00"/>
<path class="stroke" stroke-width="1"
	d="M612.54 258.00v-24.00"/>
<path class="stroke" stroke-width="1"
	d="M612.54 316.00v-58.00"/>
<path class="stroke" stroke-width="1"
	d="M706.24 258.00v-24.00"/>
<path class="stroke" stroke-width="1"
	d="M706.24 316.00v-58.00"/>
<path class="stroke" stroke-width="1"
	d="M791.34 258.00v-24.00"/>
<path class="stroke" stroke-width="1"
	d="M791.34 316.00v-58.00"/>
<path class="stroke" stroke-width="3"
	d="M860.54 258.00v-24.00"/>
<path class="stroke" stroke-width="1"
	d="M856.04 258.00v-24.00"/>
<use x="852.04" y="258.00" xlink:href="#rdots"/>
<path class="stroke" stroke-width="3"
	d="M860.54 316.00v-58.00"/>
<path class="stroke" stroke-width="1"
	d="M856.04 316.00v-58.00"/>
<use x="852.04" y="316.00" xlink:href="#rdots"/>
<path d="m11.54 258.00
	h850.50
	M11.54 252.00
	h850.50
	M11.54 246.00
	h850.50
	M11.54 240.00
	h850.50
	M11.54 234.00
	h850.50
	" class="stroke"/>
<path d="m11.54 316.00
	h850.50
	M11.54 310.00
	h850.50
	M11.54 304.00
	h850.50
	M11.54 298.00
	h850.50
	M11.54 292.00
	h850.50
	" class="stroke"/>
<text x="47.54" y="219.40">2</text>
<path class="stroke"
	d="M43.54 208.00m0 20v-20h85.30v20"/>
<use x="23.54" y="252.00" xlink:href="#tclef"/>
<use x="56.04" y="231.00" xlink:href="#hd"/>
<path d="M52.54 231.00v40.00" class="stroke"/>
<use x="56.04" y="252.00" xlink:href="#hd"/>
<use x="56.04" y="246.00" xlink:href="#hd"/>
<use x="56.04" y="240.00" xlink:href="#hd"/>
<use x="106.64" y="246.00" xlink:href="#r8"/>
<path class="fill"
	d="M155.54 260.00l60.80 0.00v-3.20l-60.80 -0.00"/>
<path class="fill"
	d="M174.74 255.00l41.20 0.00v-3.20l-41.20 -0.00"/>
<use x="159.34" y="234.00" xlink:href="#hd"/>
<use x="150.34" y="234.00" xlink:href="#sh0"/>
<path d="M155.84 234.00v25.00" class="stroke"/>
<use x="178.24" y="228.00" xlink:href="#hl"/>
<use x="178.24" y="228.00" xlink:href="#hd"/>
<path d="M174.74 228.00v31.00" class="stroke"/>
<use x="192.04" y="234.00" xlink:href="#hd"/>
<path d="M188.54 234.00v25.00" class="stroke"/>
<use x="205.74" y="240.00" xlink:href="#hd"/>
<path d="M202.24 240.00v19.00" class="stroke"/>
<use x="219.44" y="234.00" xlink:href="#hd"/>
<path d="M215.94 234.00v25.00" class="stroke"/>
<path class="fill"
	d="M240.64 263.60l69.40 10.60v-3.20l-69.40 -10.60"/>
<path class="fill"
	d="M240.94 258.70l68.70 10.50v-3.20l-68.70 -10.50"/>
<use x="244.44" y="231.00" xlink:href="#hd"/>
<path d="M240.94 231.00v31.70" class="stroke"/>
<use x="258.24" y="228.00" xlink:href="#hl"/>
<use x="258.24" y="225.00" xlink:href="#hd"/>
<path d="M254.74 225.00v39.80" class="stroke"/>
<use x="271.94" y="231.00" xlink:href="#hd"/>
<path d="M268.44 231.00v35.90" class="stroke"/>
<use x="285.74" y="240.00" xlink:href="#hd"/>
<path d="M282.24 240.00v29.00" class="stroke"/>
<use x="299.44" y="246.00" xlink:href="#hd"/>
<path d="M295.94 246.00v25.10" class="stroke"/>
<use x="313.24" y="252.00" xlink:href="#hd"/>
<path d="M309.74 252.00v21.20" class="stroke"/>
<path class="fill"
	d="M334.34 266.00l69.40 0.00v-3.20l-69.40 -0.00"/>
<path class="fill"
	d="M334.74 261.00l68.70 0.00v-3.20l-68.70 -0.00"/>
<use x="338.24" y="237.00" xlink:href="#hd"/>
<path d="M334.74 237.00v27.90" class="stroke"/>
<use x="351.94" y="231.00" xlink:href="#hd"/>
<path d="M348.44 231.00v33.90" class="stroke"/>
<use x="365.74" y="228.00" xlink:href="#hl"/>
<use x="365.74" y="222.00" xlink:href="#hl"/>
<use x="365.74" y="222.00" xlink:href="#hd"/>
<path d="M362.24 222.00v42.90" class="stroke"/>
<use x="379.44" y="231.00" xlink:href="#hd"/>
<path d="M375.94 231.00v33.90" class="stroke"/>
<use x="393.14" y="237.00" xlink:href="#hd"/>
<path d="M389.64 237.00v27.90" class="stroke"/>
<use x="406.94" y="243.00" xlink:href="#hd"/>
<path d="M403.44 243.00v21.90" class="stroke"/>
<use x="431.94" y="240.00" xlink:href="#hd"/>
<path d="M428.44 240.00v21.00" class="stroke"/>
<path class="fill"
	d="M428.44 261.00c0.6 -5.6 9.6 -9 5.6 -18.4
	1.6 6 -1.3 11.6 -5.6 12.8
"/>
<use x="465.04" y="252.00" xlink:href="#hd"/>
<path d="M468.54 252.00v-21.00" class="stroke"/>
<path class="fill"
	d="M527.44 271.20l55.70 -6.90v-3.20l-55.70 6.90"/>
<use x="531.24" y="252.00" xlink:href="#hd"/>
<path d="M527.74 252.00v18.20" class="stroke"/>
<use x="558.74" y="243.00" xlink:href="#hd"/>
<path d="M555.24 243.00v23.80" class="stroke"/>
<use x="586.24" y="237.00" xlink:href="#hd"/>
<path d="M582.74 237.00v26.40" class="stroke"/>
<path class="fill"
	d="M621.14 275.50l69.40 -6.20v-3.20l-69.40 6.20"/>
<path class="fill"
	d="M621.54 270.40l68.70 -6.10v-3.20l-68.70 6.10"/>
<use x="625.04" y="243.00" xlink:href="#hd"/>
<path d="M621.54 243.00v31.40" class="stroke"/>
<use x="638.74" y="252.00" xlink:href="#hd"/>
<path d="M635.24 252.00v21.20" class="stroke"/>
<use x="652.54" y="237.00" xlink:href="#hd"/>
<path d="M649.04 237.00v35.00" class="stroke"/>
<use x="666.24" y="243.00" xlink:href="#hd"/>
<path d="M662.74 243.00v27.70" class="stroke"/>
<use x="679.94" y="231.00" xlink:href="#hd"/>
<path d="M676.44 231.00v38.50" class="stroke"/>
<use x="693.74" y="237.00" xlink:href="#hd"/>
<path d="M690.24 237.00v31.30" class="stroke"/>
<path class="fill"
	d="M714.84 268.20l60.80 -7.90v-3.20l-60.80 7.90"/>
<path class="fill"
	d="M734.04 260.70l41.20 -5.40v-3.20l-41.20 5.40"/>
<use x="718.74" y="249.00" xlink:href="#hd"/>
<path d="M715.24 249.00v18.20" class="stroke"/>
<use x="737.54" y="234.00" xlink:href="#hd"/>
<path d="M734.04 234.00v30.70" class="stroke"/>
<use x="751.34" y="240.00" xlink:href="#hd"/>
<path d="M747.84 240.00v23.00" class="stroke"/>
<use x="765.04" y="228.00" xlink:href="#hl"/>
<use x="765.04" y="228.00" xlink:href="#hd"/>
<path d="M761.54 228.00v33.20" class="stroke"/>
<use x="778.84" y="231.00" xlink:href="#hd"/>
<path d="M775.34 231.00v28.40" class="stroke"/>
<use x="803.84" y="243.00" xlink:href="#hd"/>
<path d="M800.34 243.00v21.00" class="stroke"/>
<use x="841.54" y="246.00" xlink:href="#r8"/>
<use x="23.54" y="298.00" xlink:href="#bclef"/>
<path class="fill"
	d="M52.24 335.20l65.00 0.00v-3.20l-65.00 -0.00"/>
<path class="fill"
	d="M71.44 330.20l45.50 0.00v-3.20l-45.50 -0.00"/>
<use x="56.04" y="316.00" xlink:href="#hd"/>
<path d="M52.54 316.00v18.20" class="stroke"/>
<use x="74.94" y="289.00" xlink:href="#hd"/>
<path d="M71.44 289.00v45.20" class="stroke"/>
<use x="88.64" y="295.00" xlink:href="#hd"/>
<path d="M85.14 295.00v39.20" class="stroke"/>
<use x="106.64" y="298.00" xlink:href="#hd"/>
<use x="97.64" y="298.00" xlink:href="#sh0"/>
<path d="M103.14 298.00v36.20" class="stroke"/>
<use x="120.34" y="301.00" xlink:href="#hd"/>
<path d="M116.84 301.00v33.20" class="stroke"/>
<use x="159.34" y="304.00" xlink:href="#hd"/>
<path d="M162.84 304.00v-21.00" class="stroke"/>
<use x="205.74" y="307.00" xlink:href="#hd"/>
<path d="M209.24 307.00v-21.00" class="stroke"/>
<path class="fill"
	d="M209.24 286.00c0.6 5.6 9.6 9 5.6 18.4
	1.6 -6 -1.3 -11.6 -5.6 -12.8
"/>
<use x="244.44" y="310.00" xlink:href="#hd"/>
<path d="M247.94 310.00v-25.00" class="stroke"/>
<use x="244.44" y="304.00" xlink:href="#hd"/>
<use x="299.44" y="304.00" xlink:href="#r8"/>
<use x="338.24" y="295.00" xlink:href="#hd"/>
<path d="M334.74 295.00v31.00" class="stroke"/>
<use x="338.24" y="307.00" xlink:href="#hd"/>
<use x="393.14" y="295.00" xlink:href="#hd"/>
<path d="M389.64 295.00v31.00" class="stroke"/>
<path class="fill"
	d="M389.64 326.00c0.6 -5.6 9.6 -9 5.6 -18.4
	1.6 6 -1.3 11.6 -5.6 12.8
"/>
<use x="393.14" y="307.00" xlink:href="#hd"/>
<path class="fill"
	d="M428.14 328.60l75.00 9.60v-3.20l-75.00 -9.60"/>
<path class="fill"
	d="M428.44 323.70l74.30 9.50v-3.20l-74.30 -9.50"/>
<use x="431.94" y="295.00" xlink:href="#hd"/>
<path d="M428.44 295.00v32.70" class="stroke"/>
<use x="449.94" y="298.00" xlink:href="#hd"/>
<use x="440.94" y="298.00" xlink:href="#sh0"/>
<path d="M446.44 298.00v32.00" class="stroke"/>
<use x="465.04" y="295.00" xlink:href="#hd"/>
<path d="M461.54 295.00v36.90" class="stroke"/>
<use x="478.74" y="304.00" xlink:href="#hd"/>
<path d="M475.24 304.00v29.70" class="stroke"/>
<use x="492.54" y="310.00" xlink:href="#hd"/>
<path d="M489.04 310.00v25.40" class="stroke"/>
<use x="506.24" y="316.00" xlink:href="#hd"/>
<path d="M502.74 316.00v21.20" class="stroke"/>
<path class="fill"
	d="M527.44 323.90l69.40 0.00v-3.20l-69.40 -0.00"/>
<path class="fill"
	d="M527.74 318.90l68.70 0.00v-3.20l-68.70 -0.00"/>
<use x="531.24" y="301.00" xlink:href="#hd"/>
<path d="M527.74 301.00v21.90" class="stroke"/>
<use x="531.24" y="307.00" xlink:href="#hd"/>
<use x="545.04" y="295.00" xlink:href="#hd"/>
<path d="M541.54 295.00v27.90" class="stroke"/>
<use x="558.74" y="301.00" xlink:href="#hd"/>
<path d="M555.24 301.00v21.90" class="stroke"/>
<use x="558.74" y="307.00" xlink:href="#hd"/>
<use x="572.54" y="295.00" xlink:href="#hd"/>
<path d="M569.04 295.00v27.90" class="stroke"/>
<use x="586.24" y="301.00" xlink:href="#hd"/>
<path d="M582.74 301.00v21.90" class="stroke"/>
<use x="586.24" y="307.00" xlink:href="#hd"/>
<use x="600.04" y="295.00" xlink:href="#hd"/>
<path d="M596.54 295.00v27.90" class="stroke"/>
<use x="625.04" y="301.00" xlink:href="#hd"/>
<path d="M621.54 301.00v25.00" class="stroke"/>
<use x="625.04" y="307.00" xlink:href="#hd"/>
<use x="679.94" y="304.00" xlink:href="#r8"/>
<use x="718.74" y="298.00" xlink:href="#hd"/>
<path d="M715.24 298.00v21.00" class="stroke"/>
<use x="765.04" y="295.00" xlink:href="#hd"/>
<path d="M761.54 295.00v21.00" class="stroke"/>
<path class="fill"
	d="M761.54 316.00c0.6 -5.6 9.6 -9 5.6 -18.4
	1.6 6 -1.3 11.6 -5.6 12.8
"/>
<path class="fill"
	d="M806.94 287.70l38.40 9.40v3.20l-38.40 -9.40"/>
<use x="803.84" y="307.00" xlink:href="#hd"/>
<path d="M807.34 307.00v-18.20" class="stroke"/>
<use x="822.64" y="316.00" xlink:href="#hd"/>
<path d="M826.14 316.00v-22.60" class="stroke"/>
<use x="841.54" y="322.00" xlink:href="#hl"/>
<use x="841.54" y="328.00" xlink:href="#hl"/>
<use x="841.54" y="328.00" xlink:href="#hd"/>
<path d="M845.04 328.00v-30.00" class="stroke"/>
</g>
</svg>
