<?xml version="1.0" standalone="no"?>
<!DOCTYPE svg PUBLIC "-//W3C//DTD SVG 1.1//EN"
	"http://www.w3.org/Graphics/SVG/1.1/DTD/svg11.dtd">
<svg xmlns="http://www.w3.org/2000/svg" version="1.1"
	xmlns:xlink="http://www.w3.org/1999/xlink"
	color="black"
	width="757.10px" height="299.87px">
<style type="text/css">
.fill {fill: currentColor}
.stroke {stroke: currentColor; fill: none}
text{white-space: pre}
</style>
<title>./K516f-9-4-5-9-6-11-8-6-10-12-5-11-3-8-6-2.abc (1574) tune 1</title>
<!-- Creator: abcm2ps-8.13.8 -->
<!-- CreationDate: Sep  7, 2017 11:18 -->
<!-- CommandLine: ./K516f-9-4-5-9-6-11-8-6-10-12-5-11-3-8-6-2.abc -O ./K516f-9-4-5-9-6-11-8-6-10-12-5-11-3-8-6-2.svg -g -->
<rect width="100%" height="100%" fill="white"/>
<g stroke-width="0.70" transform="scale(0.867)">
<!-- title: 9-4-5-9-6-11-8-6-10-12-5-11-3-8-6-2 -->
</g>
<g stroke-width="0.70" transform="scale(0.867)" font-family="Times" font-size="20.00">
<text x="436.84" y="22.00" text-anchor="middle">9-4-5-9-6-11-8-6-10-12-5-11-3-8-6-2</text>
</g>
<g stroke-width="0.70" transform="scale(0.867)" font-family="Times" font-size="20.00">
<!-- subtitle: $1K.516f::119:95:113:50:80:47:21:107:65:20:7:164:174:168:1:14::$0 -->
</g>
<g stroke-width="0.70" transform="scale(0.867)" font-family="Courier" font-size="8.00" font-weight="bold">
<text x="436.84" y="41.80" text-anchor="middle">K.516f::119:95:113:50:80:47:21:107:65:20:7:164:174:168:1:14::</text>
</g>
<g stroke-width="0.70" transform="scale(0.867)" font-family="Courier" font-size="8.00" font-weight="bold">
<!-- subtitle: $1Perm. No.: 157449552804420$0 -->
<text x="436.84" y="60.80" text-anchor="middle">Perm. No.: 157449552804420</text>
</g>
<g stroke-width="0.70" transform="scale(0.607)" font-family="Courier" font-size="8.00" font-weight="bold">
<defs>
<ellipse id="hd" rx="4.1" ry="2.9"
	transform="rotate(-20)" class="fill"/>
</defs>
<use x="103.06" y="121.29" xlink:href="#hd"/>
<path d="M106.56 121.29v-21.00" class="stroke"/>
<path class="fill"
	d="M106.56 100.29c0.6 5.6 9.6 9 5.6 18.4
	1.6 -6 -1.3 -11.6 -5.6 -12.8
"/>
</g>
<g stroke-width="0.70" transform="scale(0.867)" font-family="Times" font-size="15.00" font-weight="bold">
<text x="81.24" y="87.00">= 111</text>
<path class="stroke" stroke-width="1"
	d="M11.54 183.00v-82.00"/>
<path class="fill"
	d="M6.54 98.00
	c10.5 1 12 -4.5 12 -3.5c0 1 -3.5 5.5 -8.5 5.5
	v84.00
	c5 0 8.5 4.5 8.5 5.5c0 1 -1.5 -4.5 -12 -3.5"/>
<defs>
<g id="rdots" class="fill">
	<circle cx="0" cy="-9" r="1.2"/>
	<circle cx="0" cy="-15" r="1.2"/>
</g>
</defs>
<use x="70.54" y="125.00" xlink:href="#rdots"/>
<path class="stroke" stroke-width="1"
	d="M66.54 125.00v-24.00"/>
<path class="stroke" stroke-width="3"
	d="M62.04 125.00v-24.00"/>
<use x="70.54" y="183.00" xlink:href="#rdots"/>
<path class="stroke" stroke-width="1"
	d="M66.54 183.00v-58.00"/>
<path class="stroke" stroke-width="3"
	d="M62.04 183.00v-58.00"/>
<path class="stroke" stroke-width="1"
	d="M189.54 125.00v-24.00"/>
<path class="stroke" stroke-width="1"
	d="M189.54 183.00v-58.00"/>
<path class="stroke" stroke-width="1"
	d="M274.34 125.00v-24.00"/>
<path class="stroke" stroke-width="1"
	d="M274.34 183.00v-58.00"/>
<path class="stroke" stroke-width="1"
	d="M359.14 125.00v-24.00"/>
<path class="stroke" stroke-width="1"
	d="M359.14 183.00v-58.00"/>
<path class="stroke" stroke-width="1"
	d="M454.44 125.00v-24.00"/>
<path class="stroke" stroke-width="1"
	d="M454.44 183.00v-58.00"/>
<path class="stroke" stroke-width="1"
	d="M539.24 125.00v-24.00"/>
<path class="stroke" stroke-width="1"
	d="M539.24 183.00v-58.00"/>
<path class="stroke" stroke-width="1"
	d="M634.54 125.00v-24.00"/>
<path class="stroke" stroke-width="1"
	d="M634.54 183.00v-58.00"/>
<path class="stroke" stroke-width="1"
	d="M752.54 125.00v-24.00"/>
<path class="stroke" stroke-width="1"
	d="M752.54 183.00v-58.00"/>
<path class="stroke" stroke-width="3"
	d="M860.54 125.00v-24.00"/>
<path class="stroke" stroke-width="1"
	d="M856.04 125.00v-24.00"/>
<use x="852.04" y="125.00" xlink:href="#rdots"/>
<path class="stroke" stroke-width="3"
	d="M860.54 183.00v-58.00"/>
<path class="stroke" stroke-width="1"
	d="M856.04 183.00v-58.00"/>
<use x="852.04" y="183.00" xlink:href="#rdots"/>
<path d="m11.54 125.00
	h850.50
	M11.54 119.00
	h850.50
	M11.54 113.00
	h850.50
	M11.54 107.00
	h850.50
	M11.54 101.00
	h850.50
	" class="stroke"/>
<path d="m11.54 183.00
	h850.50
	M11.54 177.00
	h850.50
	M11.54 171.00
	h850.50
	M11.54 165.00
	h850.50
	M11.54 159.00
	h850.50
	" class="stroke"/>
</g>
<g stroke-width="0.70" transform="scale(0.867)" font-family="Times" font-size="13.00">
<text x="756.54" y="86.40">1</text>
<path class="stroke"
	d="M752.54 75.00m0 20v-20h101.50v20"/>
<defs>
<path id="utclef" class="fill" d="m-50 -90
	c-72 -41 -72 -158 52 -188
	150 -10 220 188 90 256
	-114 52 -275 0 -293 -136
	-15 -181 93 -229 220 -334
	88 -87 79 -133 62 -210
	-51 33 -94 105 -89 186
	17 267 36 374 49 574
	6 96 -19 134 -77 135
	-80 1 -126 -93 -61 -133
	85 -41 133 101 31 105
	23 17 92 37 90 -92
	-10 -223 -39 -342 -50 -617
	0 -90 0 -162 96 -232
	56 72 63 230 22 289
	-74 106 -257 168 -255 316
	9 153 148 185 252 133
	86 -65 29 -192 -80 -176
	-71 12 -105 67 -59 124"/>
<use id="tclef" transform="translate(0,6) scale(0.045)"
	xlink:href="#utclef"/>
</defs>
<use x="23.54" y="119.00" xlink:href="#tclef"/>
<g font-family="serif" font-size="16" font-weight="bold" font-style="normal"
	transform="translate(42.04,124.50) scale(1.2,1)">
	<text text-anchor="middle">8</text>
	<text y="-12" text-anchor="middle">3</text>
</g>
<path class="fill"
	d="M81.84 133.50l90.60 -6.30v-3.20l-90.60 6.30"/>
<path class="fill"
	d="M82.14 128.40l89.90 -6.20v-3.20l-89.90 6.20"/>
<use x="85.64" y="104.00" xlink:href="#hd"/>
<path d="M82.14 104.00v28.40" class="stroke"/>
<use x="103.64" y="110.00" xlink:href="#hd"/>
<path d="M100.14 110.00v21.20" class="stroke"/>
<use x="121.64" y="98.00" xlink:href="#hd"/>
<path d="M118.14 98.00v32.00" class="stroke"/>
<use x="139.64" y="104.00" xlink:href="#hd"/>
<path d="M136.14 104.00v24.70" class="stroke"/>
<defs>
<path id="hl" class="stroke" d="m-6 0h12"/>
</defs>
<use x="157.54" y="95.00" xlink:href="#hl"/>
<use x="157.54" y="89.00" xlink:href="#hl"/>
<use x="157.54" y="89.00" xlink:href="#hd"/>
<path d="M154.04 89.00v38.50" class="stroke"/>
<use x="175.54" y="98.00" xlink:href="#hd"/>
<path d="M172.04 98.00v28.20" class="stroke"/>
<path class="fill"
	d="M199.84 121.00l51.60 8.30v-3.20l-51.60 -8.30"/>
<use x="203.64" y="98.00" xlink:href="#hd"/>
<path d="M200.14 98.00v22.00" class="stroke"/>
<use x="229.14" y="104.00" xlink:href="#hd"/>
<path d="M225.64 104.00v20.10" class="stroke"/>
<use x="254.54" y="110.00" xlink:href="#hd"/>
<path d="M251.04 110.00v18.20" class="stroke"/>
<path class="fill"
	d="M284.64 124.00l51.60 8.30v-3.20l-51.60 -8.30"/>
<use x="288.44" y="101.00" xlink:href="#hd"/>
<path d="M284.94 101.00v22.00" class="stroke"/>
<use x="313.94" y="107.00" xlink:href="#hd"/>
<path d="M310.44 107.00v20.10" class="stroke"/>
<use x="339.34" y="113.00" xlink:href="#hd"/>
<path d="M335.84 113.00v18.20" class="stroke"/>
<path class="fill"
	d="M369.44 133.50l62.10 4.70v-3.20l-62.10 -4.70"/>
<path class="fill"
	d="M395.14 130.50l18.00 1.40v-3.20l-18.00 -1.40"/>
<use x="373.24" y="110.00" xlink:href="#hd"/>
<path d="M369.74 110.00v22.50" class="stroke"/>
<use x="398.64" y="104.00" xlink:href="#hd"/>
<path d="M395.14 104.00v30.50" class="stroke"/>
<use x="416.64" y="110.00" xlink:href="#hd"/>
<path d="M413.14 110.00v25.80" class="stroke"/>
<use x="434.64" y="119.00" xlink:href="#hd"/>
<path d="M431.14 119.00v18.20" class="stroke"/>
<path class="fill"
	d="M464.74 136.80l51.60 -3.20v-3.20l-51.60 3.20"/>
<use x="468.54" y="107.00" xlink:href="#hd"/>
<path d="M465.04 107.00v28.80" class="stroke"/>
<use x="493.94" y="116.00" xlink:href="#hd"/>
<path d="M490.44 116.00v18.20" class="stroke"/>
<use x="519.44" y="101.00" xlink:href="#hd"/>
<defs>
<path id="usharp" class="fill" d="
	m136 -702
	v890
	h32
	v-890
	m128 840
	h32
	v-888
	h-32
	m-232 286
	v116
	l338 -96
	v-116
	m-338 442
	v116
	l338 -98
	v-114"/>
<use id="sh0" transform="translate(-4,5) scale(0.018)"
	xlink:href="#usharp"/>
</defs>
<use x="510.44" y="101.00" xlink:href="#sh0"/>
<path d="M515.94 101.00v31.60" class="stroke"/>
<path class="fill"
	d="M549.54 127.00l62.10 0.00v-3.20l-62.10 -0.00"/>
<path class="fill"
	d="M575.24 122.00l18.00 0.00v-3.20l-18.00 -0.00"/>
<use x="553.34" y="98.00" xlink:href="#hd"/>
<path d="M549.84 98.00v28.00" class="stroke"/>
<use x="578.74" y="98.00" xlink:href="#hd"/>
<path d="M575.24 98.00v28.00" class="stroke"/>
<use x="596.74" y="107.00" xlink:href="#hd"/>
<path d="M593.24 107.00v19.00" class="stroke"/>
<use x="614.74" y="95.00" xlink:href="#hl"/>
<use x="614.74" y="92.00" xlink:href="#hd"/>
<path d="M611.24 92.00v34.00" class="stroke"/>
<path class="fill"
	d="M644.84 138.20l90.60 0.00v-3.20l-90.60 -0.00"/>
<path class="fill"
	d="M645.14 133.20l89.90 0.00v-3.20l-89.90 -0.00"/>
<use x="648.64" y="110.00" xlink:href="#hd"/>
<path d="M645.14 110.00v27.20" class="stroke"/>
<use x="666.64" y="104.00" xlink:href="#hd"/>
<path d="M663.14 104.00v33.20" class="stroke"/>
<use x="684.64" y="98.00" xlink:href="#hd"/>
<path d="M681.14 98.00v39.20" class="stroke"/>
<use x="702.54" y="107.00" xlink:href="#hd"/>
<path d="M699.04 107.00v30.20" class="stroke"/>
<use x="720.54" y="116.00" xlink:href="#hd"/>
<path d="M717.04 116.00v21.20" class="stroke"/>
<use x="738.54" y="101.00" xlink:href="#hd"/>
<use x="729.54" y="101.00" xlink:href="#sh0"/>
<path d="M735.04 101.00v36.20" class="stroke"/>
<use x="766.64" y="98.00" xlink:href="#hd"/>
<path d="M763.14 98.00v40.00" class="stroke"/>
<use x="766.64" y="119.00" xlink:href="#hd"/>
<use x="766.64" y="113.00" xlink:href="#hd"/>
<use x="766.64" y="107.00" xlink:href="#hd"/>
<defs>
<path id="r8e" class="fill" d="m 0 0
	c-1.5 1.5 -2.4 2 -3.6 2
	2.4 -2.8 -2.8 -4 -2.8 -1.2
	c0 2.7 4.3 2.4 5.9 0.6"/>
<g id="r8">
	<path d="m3.3 -4l-3.4 9.6" class="stroke"/>
	<use x="3.4" y="-4" xlink:href="#r8e"/>
</g>
</defs>
<use x="828.04" y="113.00" xlink:href="#r8"/>
<defs>
<path id="ubclef" class="fill" d="m-200 -87
	c124 -35 222 -78 254 -236
	43 -228 -167 -246 -192 -103
	59 -80 157 22 92 78
	-62 47 -115 -22 -106 -88
	21 -141 270 -136 274 52
	-1 175 -106 264 -322 297
	m357 -250
	c0 -36 51 -34 51 0
	0 37 -51 36 -51 0
	m-2 -129
	c0 -36 51 -34 51 0
	0 38 -51 37 -51 0"/>
<use id="bclef" transform="translate(0,18) scale(0.045)"
	xlink:href="#ubclef"/>
</defs>
<use x="23.54" y="165.00" xlink:href="#bclef"/>
<g font-family="serif" font-size="16" font-weight="bold" font-style="normal"
	transform="translate(42.04,182.50) scale(1.2,1)">
	<text text-anchor="middle">8</text>
	<text y="-12" text-anchor="middle">3</text>
</g>
<use x="85.64" y="168.00" xlink:href="#hd"/>
<path d="M82.14 168.00v25.00" class="stroke"/>
<use x="85.64" y="174.00" xlink:href="#hd"/>
<use x="157.54" y="171.00" xlink:href="#r8"/>
<use x="203.64" y="168.00" xlink:href="#hd"/>
<path d="M207.14 168.00v-21.00" class="stroke"/>
<use x="254.54" y="171.00" xlink:href="#r8"/>
<use x="288.44" y="156.00" xlink:href="#hd"/>
<path d="M284.94 156.00v25.00" class="stroke"/>
<use x="288.44" y="162.00" xlink:href="#hd"/>
<use x="339.34" y="171.00" xlink:href="#r8"/>
<use x="373.24" y="162.00" xlink:href="#hd"/>
<path d="M369.74 162.00v25.00" class="stroke"/>
<use x="373.24" y="168.00" xlink:href="#hd"/>
<use x="434.64" y="171.00" xlink:href="#r8"/>
<use x="468.54" y="174.00" xlink:href="#hd"/>
<path d="M472.04 174.00v-21.00" class="stroke"/>
<use x="519.44" y="171.00" xlink:href="#r8"/>
<use x="553.34" y="177.00" xlink:href="#hd"/>
<path d="M556.84 177.00v-25.00" class="stroke"/>
<use x="553.34" y="171.00" xlink:href="#hd"/>
<use x="614.74" y="171.00" xlink:href="#r8"/>
<path class="fill"
	d="M651.84 147.60l72.60 8.40v3.20l-72.60 -8.40"/>
<use x="648.64" y="174.00" xlink:href="#hd"/>
<path d="M652.14 174.00v-25.40" class="stroke"/>
<use x="684.64" y="171.00" xlink:href="#hd"/>
<path d="M688.14 171.00v-18.20" class="stroke"/>
<use x="720.54" y="189.00" xlink:href="#hl"/>
<use x="720.54" y="192.00" xlink:href="#hd"/>
<path d="M724.04 192.00v-35.00" class="stroke"/>
<path class="fill"
	d="M762.84 202.20l80.10 0.00v-3.20l-80.10 -0.00"/>
<path class="fill"
	d="M788.64 197.20l54.00 0.00v-3.20l-54.00 -0.00"/>
<use x="766.64" y="183.00" xlink:href="#hd"/>
<path d="M763.14 183.00v18.20" class="stroke"/>
<use x="792.14" y="162.00" xlink:href="#hd"/>
<path d="M788.64 162.00v39.20" class="stroke"/>
<use x="810.14" y="165.00" xlink:href="#hd"/>
<defs>
<path id="unat" class="fill" d="
	m96 -750
	h-32
	v716
	l32 -8
	182 -54
	v282
	h32
	v-706
	l-34 10
	-180 50
	v-290
	m0 592
	v-190
	l182 -52
	v188"/>
<use id="nt0" transform="translate(-3,5) scale(0.018)"
	xlink:href="#unat"/>
</defs>
<use x="801.14" y="165.00" xlink:href="#nt0"/>
<path d="M806.64 165.00v36.20" class="stroke"/>
<use x="828.04" y="168.00" xlink:href="#hd"/>
<path d="M824.54 168.00v33.20" class="stroke"/>
<use x="846.04" y="171.00" xlink:href="#hd"/>
<path d="M842.54 171.00v30.20" class="stroke"/>
<use x="203.64" y="174.00" xlink:href="#hd"/>
<path d="M200.14 174.00v21.00" class="stroke"/>
<defs>
<path id="turn" class="fill" d="
	m5.2 -8
	c1.4 0.5 0.9 4.8 -2.2 2.8
	l-4.8 -3.5
	c-3 -2 -5.8 1.8 -3.6 4.4
	1 1.1 2 0.8 2.1 -0.1
	0.1 -0.9 -0.7 -1.2 -1.9 -0.6
	-1.4 -0.5 -0.9 -4.8 2.2 -2.8
	l4.8 3.5
	c3 2 5.8 -1.8 3.6 -4.4
	-1 -1.1 -2 -0.8 -2.1 0.1
	-0.1 0.9 0.7 1.2 1.9 0.6"/>
</defs>
<use x="493.94" y="99.00" xlink:href="#turn"/>
</g>
<g stroke-width="0.70" transform="scale(0.867)" font-family="Times" font-size="13.00">
<path class="stroke" stroke-width="1"
	d="M11.54 320.00v-86.00"/>
<path class="fill"
	d="M6.54 231.00
	c10.5 1 12 -4.5 12 -3.5c0 1 -3.5 5.5 -8.5 5.5
	v88.00
	c5 0 8.5 4.5 8.5 5.5c0 1 -1.5 -4.5 -12 -3.5"/>
<use x="145.24" y="258.00" xlink:href="#rdots"/>
<path class="stroke" stroke-width="1"
	d="M141.24 258.00v-24.00"/>
<path class="stroke" stroke-width="3"
	d="M136.74 258.00v-24.00"/>
<use x="145.24" y="320.00" xlink:href="#rdots"/>
<path class="stroke" stroke-width="1"
	d="M141.24 320.00v-62.00"/>
<path class="stroke" stroke-width="3"
	d="M136.74 320.00v-62.00"/>
<path class="stroke" stroke-width="1"
	d="M233.94 258.00v-24.00"/>
<path class="stroke" stroke-width="1"
	d="M233.94 320.00v-62.00"/>
<path class="stroke" stroke-width="1"
	d="M315.14 258.00v-24.00"/>
<path class="stroke" stroke-width="1"
	d="M315.14 320.00v-62.00"/>
<path class="stroke" stroke-width="1"
	d="M416.14 258.00v-24.00"/>
<path class="stroke" stroke-width="1"
	d="M416.14 320.00v-62.00"/>
<path class="stroke" stroke-width="1"
	d="M521.64 258.00v-24.00"/>
<path class="stroke" stroke-width="1"
	d="M521.64 320.00v-62.00"/>
<path class="stroke" stroke-width="1"
	d="M622.64 258.00v-24.00"/>
<path class="stroke" stroke-width="1"
	d="M622.64 320.00v-62.00"/>
<path class="stroke" stroke-width="1"
	d="M714.54 258.00v-24.00"/>
<path class="stroke" stroke-width="1"
	d="M714.54 320.00v-62.00"/>
<path class="stroke" stroke-width="1"
	d="M786.54 258.00v-24.00"/>
<path class="stroke" stroke-width="1"
	d="M786.54 320.00v-62.00"/>
<path class="stroke" stroke-width="3"
	d="M860.54 258.00v-24.00"/>
<path class="stroke" stroke-width="1"
	d="M856.04 258.00v-24.00"/>
<use x="852.04" y="258.00" xlink:href="#rdots"/>
<path class="stroke" stroke-width="3"
	d="M860.54 320.00v-62.00"/>
<path class="stroke" stroke-width="1"
	d="M856.04 320.00v-62.00"/>
<use x="852.04" y="320.00" xlink:href="#rdots"/>
<path d="m11.54 258.00
	h850.50
	M11.54 252.00
	h850.50
	M11.54 246.00
	h850.50
	M11.54 240.00
	h850.50
	M11.54 234.00
	h850.50
	" class="stroke"/>
<path d="m11.54 320.00
	h850.50
	M11.54 314.00
	h850.50
	M11.54 308.00
	h850.50
	M11.54 302.00
	h850.50
	M11.54 296.00
	h850.50
	" class="stroke"/>
<text x="47.54" y="219.40">2</text>
<path class="stroke"
	d="M43.54 208.00m0 20v-20h90.70v20"/>
<use x="23.54" y="252.00" xlink:href="#tclef"/>
<use x="56.04" y="231.00" xlink:href="#hd"/>
<path d="M52.54 231.00v40.00" class="stroke"/>
<use x="56.04" y="252.00" xlink:href="#hd"/>
<use x="56.04" y="246.00" xlink:href="#hd"/>
<use x="56.04" y="240.00" xlink:href="#hd"/>
<use x="110.54" y="246.00" xlink:href="#r8"/>
<path class="fill"
	d="M160.84 272.60l53.00 -4.60v-3.20l-53.00 4.60"/>
<path class="fill"
	d="M161.24 267.50l15.20 -1.30v-3.20l-15.20 1.30"/>
<use x="164.74" y="240.00" xlink:href="#hd"/>
<path d="M161.24 240.00v31.50" class="stroke"/>
<use x="179.94" y="249.00" xlink:href="#hd"/>
<path d="M176.44 249.00v21.20" class="stroke"/>
<use x="195.14" y="240.00" xlink:href="#hd"/>
<path d="M191.64 240.00v28.90" class="stroke"/>
<use x="217.04" y="234.00" xlink:href="#hd"/>
<use x="208.04" y="234.00" xlink:href="#sh0"/>
<path d="M213.54 234.00v33.00" class="stroke"/>
<path class="fill"
	d="M242.54 260.00l52.50 0.00v-3.20l-52.50 -0.00"/>
<path class="fill"
	d="M264.24 255.00l15.30 0.00v-3.20l-15.30 -0.00"/>
<use x="246.44" y="231.00" xlink:href="#hd"/>
<path d="M242.94 231.00v28.00" class="stroke"/>
<use x="267.74" y="228.00" xlink:href="#hl"/>
<use x="267.74" y="225.00" xlink:href="#hd"/>
<path d="M264.24 225.00v34.00" class="stroke"/>
<use x="283.04" y="228.00" xlink:href="#hl"/>
<use x="283.04" y="222.00" xlink:href="#hl"/>
<use x="283.04" y="219.00" xlink:href="#hd"/>
<path d="M279.54 219.00v40.00" class="stroke"/>
<use x="298.24" y="240.00" xlink:href="#hd"/>
<path d="M294.74 240.00v19.00" class="stroke"/>
<path class="fill"
	d="M323.74 266.60l76.70 -6.80v-3.20l-76.70 6.80"/>
<path class="fill"
	d="M324.14 261.60l76.00 -6.80v-3.20l-76.00 6.80"/>
<use x="327.64" y="237.00" xlink:href="#hd"/>
<path d="M324.14 237.00v28.60" class="stroke"/>
<use x="342.84" y="243.00" xlink:href="#hd"/>
<path d="M339.34 243.00v21.20" class="stroke"/>
<use x="358.04" y="237.00" xlink:href="#hd"/>
<path d="M354.54 237.00v25.80" class="stroke"/>
<use x="373.24" y="231.00" xlink:href="#hd"/>
<path d="M369.74 231.00v30.50" class="stroke"/>
<use x="388.44" y="228.00" xlink:href="#hl"/>
<use x="388.44" y="222.00" xlink:href="#hl"/>
<use x="388.44" y="222.00" xlink:href="#hd"/>
<path d="M384.94 222.00v38.10" class="stroke"/>
<use x="403.64" y="231.00" xlink:href="#hd"/>
<path d="M400.14 231.00v27.80" class="stroke"/>
<use x="428.64" y="240.00" xlink:href="#hd"/>
<path d="M425.14 240.00v21.00" class="stroke"/>
<path class="fill"
	d="M425.14 261.00c0.6 -5.6 9.6 -9 5.6 -18.4
	1.6 6 -1.3 11.6 -5.6 12.8
"/>
<use x="463.54" y="252.00" xlink:href="#hd"/>
<path d="M467.04 252.00v-21.00" class="stroke"/>
<path class="fill"
	d="M530.24 271.20l61.50 -7.00v-3.20l-61.50 7.00"/>
<use x="534.14" y="252.00" xlink:href="#hd"/>
<path d="M530.64 252.00v18.20" class="stroke"/>
<use x="564.54" y="243.00" xlink:href="#hd"/>
<path d="M561.04 243.00v23.70" class="stroke"/>
<use x="594.94" y="237.00" xlink:href="#hd"/>
<path d="M591.44 237.00v26.30" class="stroke"/>
<path class="fill"
	d="M631.34 256.20l67.60 9.00v-3.20l-67.60 -9.00"/>
<path class="fill"
	d="M652.94 254.10l45.60 6.10v-3.20l-45.60 -6.10"/>
<use x="635.14" y="231.00" xlink:href="#hd"/>
<path d="M631.64 231.00v24.30" class="stroke"/>
<use x="656.44" y="234.00" xlink:href="#hd"/>
<path d="M652.94 234.00v24.10" class="stroke"/>
<use x="671.64" y="237.00" xlink:href="#hd"/>
<path d="M668.14 237.00v23.10" class="stroke"/>
<use x="686.84" y="240.00" xlink:href="#hd"/>
<path d="M683.34 240.00v22.20" class="stroke"/>
<use x="702.04" y="243.00" xlink:href="#hd"/>
<path d="M698.54 243.00v21.20" class="stroke"/>
<path class="fill"
	d="M723.24 258.20l43.20 0.00v-3.20l-43.20 -0.00"/>
<use x="727.04" y="234.00" xlink:href="#hd"/>
<path d="M723.54 234.00v23.20" class="stroke"/>
<use x="748.34" y="240.00" xlink:href="#hd"/>
<path d="M744.84 240.00v17.20" class="stroke"/>
<use x="769.54" y="231.00" xlink:href="#hd"/>
<path d="M766.04 231.00v26.20" class="stroke"/>
<use x="799.04" y="243.00" xlink:href="#hd"/>
<path d="M795.54 243.00v21.00" class="stroke"/>
<use x="841.54" y="246.00" xlink:href="#r8"/>
<use x="23.54" y="302.00" xlink:href="#bclef"/>
<path class="fill"
	d="M52.24 339.20l70.40 -5.10v-3.20l-70.40 5.10"/>
<path class="fill"
	d="M73.84 332.70l48.40 -3.50v-3.20l-48.40 3.50"/>
<use x="56.04" y="320.00" xlink:href="#hd"/>
<path d="M52.54 320.00v18.20" class="stroke"/>
<use x="77.34" y="293.00" xlink:href="#hd"/>
<path d="M73.84 293.00v43.70" class="stroke"/>
<use x="92.54" y="299.00" xlink:href="#hd"/>
<path d="M89.04 299.00v36.60" class="stroke"/>
<use x="110.54" y="302.00" xlink:href="#hd"/>
<use x="101.54" y="302.00" xlink:href="#sh0"/>
<path d="M107.04 302.00v32.30" class="stroke"/>
<use x="125.74" y="305.00" xlink:href="#hd"/>
<path d="M122.24 305.00v28.20" class="stroke"/>
<use x="164.74" y="302.00" xlink:href="#hd"/>
<use x="155.74" y="302.00" xlink:href="#sh0"/>
<path d="M168.24 302.00v-21.00" class="stroke"/>
<use x="217.04" y="308.00" xlink:href="#r8"/>
<use x="246.44" y="314.00" xlink:href="#hd"/>
<path d="M249.94 314.00v-21.00" class="stroke"/>
<use x="298.24" y="308.00" xlink:href="#r8"/>
<use x="327.64" y="299.00" xlink:href="#hd"/>
<path d="M324.14 299.00v31.00" class="stroke"/>
<use x="327.64" y="311.00" xlink:href="#hd"/>
<use x="388.44" y="308.00" xlink:href="#r8"/>
<path class="fill"
	d="M424.84 332.50l81.10 9.80v-3.20l-81.10 -9.80"/>
<path class="fill"
	d="M425.14 327.50l80.50 9.70v-3.20l-80.50 -9.70"/>
<use x="428.64" y="299.00" xlink:href="#hd"/>
<path d="M425.14 299.00v32.50" class="stroke"/>
<use x="446.64" y="302.00" xlink:href="#hd"/>
<use x="437.64" y="302.00" xlink:href="#sh0"/>
<path d="M443.14 302.00v31.70" class="stroke"/>
<use x="463.54" y="299.00" xlink:href="#hd"/>
<path d="M460.04 299.00v36.70" class="stroke"/>
<use x="478.74" y="308.00" xlink:href="#hd"/>
<path d="M475.24 308.00v29.50" class="stroke"/>
<use x="493.94" y="314.00" xlink:href="#hd"/>
<path d="M490.44 314.00v25.40" class="stroke"/>
<use x="509.14" y="320.00" xlink:href="#hd"/>
<path d="M505.64 320.00v21.20" class="stroke"/>
<path class="fill"
	d="M530.24 327.90l76.70 0.00v-3.20l-76.70 -0.00"/>
<path class="fill"
	d="M530.64 322.90l76.00 0.00v-3.20l-76.00 -0.00"/>
<use x="534.14" y="305.00" xlink:href="#hd"/>
<path d="M530.64 305.00v21.90" class="stroke"/>
<use x="534.14" y="311.00" xlink:href="#hd"/>
<use x="549.34" y="299.00" xlink:href="#hd"/>
<path d="M545.84 299.00v27.90" class="stroke"/>
<use x="564.54" y="305.00" xlink:href="#hd"/>
<path d="M561.04 305.00v21.90" class="stroke"/>
<use x="564.54" y="311.00" xlink:href="#hd"/>
<use x="579.74" y="299.00" xlink:href="#hd"/>
<path d="M576.24 299.00v27.90" class="stroke"/>
<use x="594.94" y="305.00" xlink:href="#hd"/>
<path d="M591.44 305.00v21.90" class="stroke"/>
<use x="594.94" y="311.00" xlink:href="#hd"/>
<use x="610.14" y="299.00" xlink:href="#hd"/>
<path d="M606.64 299.00v27.90" class="stroke"/>
<use x="635.14" y="305.00" xlink:href="#hd"/>
<path d="M631.64 305.00v25.00" class="stroke"/>
<use x="635.14" y="311.00" xlink:href="#hd"/>
<use x="686.84" y="299.00" xlink:href="#hd"/>
<path d="M683.34 299.00v25.00" class="stroke"/>
<path class="fill"
	d="M683.34 324.00c0.6 -5.6 9.6 -9 5.6 -18.4
	1.6 6 -1.3 11.6 -5.6 12.8
"/>
<use x="686.84" y="305.00" xlink:href="#hd"/>
<path class="fill"
	d="M723.24 327.20l43.20 0.00v-3.20l-43.20 -0.00"/>
<use x="727.04" y="302.00" xlink:href="#hd"/>
<path d="M723.54 302.00v24.20" class="stroke"/>
<use x="748.34" y="308.00" xlink:href="#hd"/>
<path d="M744.84 308.00v18.20" class="stroke"/>
<use x="769.54" y="299.00" xlink:href="#hd"/>
<path d="M766.04 299.00v27.20" class="stroke"/>
<path class="fill"
	d="M802.14 291.70l43.20 9.90v3.20l-43.20 -9.90"/>
<use x="799.04" y="311.00" xlink:href="#hd"/>
<path d="M802.54 311.00v-18.20" class="stroke"/>
<use x="820.24" y="320.00" xlink:href="#hd"/>
<path d="M823.74 320.00v-22.30" class="stroke"/>
<use x="841.54" y="326.00" xlink:href="#hl"/>
<use x="841.54" y="332.00" xlink:href="#hl"/>
<use x="841.54" y="332.00" xlink:href="#hd"/>
<path d="M845.04 332.00v-29.50" class="stroke"/>
<use x="164.74" y="308.00" xlink:href="#hd"/>
<path d="M161.24 308.00v21.00" class="stroke"/>
</g>
</svg>
