<?xml version="1.0" standalone="no"?>
<!DOCTYPE svg PUBLIC "-//W3C//DTD SVG 1.1//EN"
	"http://www.w3.org/Graphics/SVG/1.1/DTD/svg11.dtd">
<svg xmlns="http://www.w3.org/2000/svg" version="1.1"
	xmlns:xlink="http://www.w3.org/1999/xlink"
	color="black"
	width="757.10px" height="293.80px">
<style type="text/css">
.fill {fill: currentColor}
.stroke {stroke: currentColor; fill: none}
text{white-space: pre}
</style>
<title>./K516f-5-3-7-5-2-2-12-10-11-6-4-12-7-9-7-5.abc (1962) tune 1</title>
<!-- Creator: abcm2ps-8.13.8 -->
<!-- CreationDate: Sep  7, 2017 11:19 -->
<!-- CommandLine: ./K516f-5-3-7-5-2-2-12-10-11-6-4-12-7-9-7-5.abc -O ./K516f-5-3-7-5-2-2-12-10-11-6-4-12-7-9-7-5.svg -g -->
<rect width="100%" height="100%" fill="white"/>
<g stroke-width="0.70" transform="scale(0.867)">
<!-- title: 5-3-7-5-2-2-12-10-11-6-4-12-7-9-7-5 -->
</g>
<g stroke-width="0.70" transform="scale(0.867)" font-family="Times" font-size="20.00">
<text x="436.84" y="22.00" text-anchor="middle">5-3-7-5-2-2-12-10-11-6-4-12-7-9-7-5</text>
</g>
<g stroke-width="0.70" transform="scale(0.867)" font-family="Times" font-size="20.00">
<!-- subtitle: $1K.516f::40:06:27:85:105:122:106:123:102:143:15:92:101:115:23:170::$0 -->
</g>
<g stroke-width="0.70" transform="scale(0.867)" font-family="Courier" font-size="8.00" font-weight="bold">
<text x="436.84" y="41.80" text-anchor="middle">K.516f::40:06:27:85:105:122:106:123:102:143:15:92:101:115:23:170::</text>
</g>
<g stroke-width="0.70" transform="scale(0.867)" font-family="Courier" font-size="8.00" font-weight="bold">
<!-- subtitle: $1Perm. No.: 196274258391435$0 -->
<text x="436.84" y="60.80" text-anchor="middle">Perm. No.: 196274258391435</text>
</g>
<g stroke-width="0.70" transform="scale(0.607)" font-family="Courier" font-size="8.00" font-weight="bold">
<defs>
<ellipse id="hd" rx="4.1" ry="2.9"
	transform="rotate(-20)" class="fill"/>
</defs>
<use x="103.06" y="121.29" xlink:href="#hd"/>
<path d="M106.56 121.29v-21.00" class="stroke"/>
<path class="fill"
	d="M106.56 100.29c0.6 5.6 9.6 9 5.6 18.4
	1.6 -6 -1.3 -11.6 -5.6 -12.8
"/>
</g>
<g stroke-width="0.70" transform="scale(0.867)" font-family="Times" font-size="15.00" font-weight="bold">
<text x="81.24" y="87.00">= 111</text>
<path class="stroke" stroke-width="1"
	d="M11.54 183.00v-82.00"/>
<path class="fill"
	d="M6.54 98.00
	c10.5 1 12 -4.5 12 -3.5c0 1 -3.5 5.5 -8.5 5.5
	v84.00
	c5 0 8.5 4.5 8.5 5.5c0 1 -1.5 -4.5 -12 -3.5"/>
<defs>
<g id="rdots" class="fill">
	<circle cx="0" cy="-9" r="1.2"/>
	<circle cx="0" cy="-15" r="1.2"/>
</g>
</defs>
<use x="70.54" y="125.00" xlink:href="#rdots"/>
<path class="stroke" stroke-width="1"
	d="M66.54 125.00v-24.00"/>
<path class="stroke" stroke-width="3"
	d="M62.04 125.00v-24.00"/>
<use x="70.54" y="183.00" xlink:href="#rdots"/>
<path class="stroke" stroke-width="1"
	d="M66.54 183.00v-58.00"/>
<path class="stroke" stroke-width="3"
	d="M62.04 183.00v-58.00"/>
<path class="stroke" stroke-width="1"
	d="M182.14 125.00v-24.00"/>
<path class="stroke" stroke-width="1"
	d="M182.14 183.00v-58.00"/>
<path class="stroke" stroke-width="1"
	d="M261.44 125.00v-24.00"/>
<path class="stroke" stroke-width="1"
	d="M261.44 183.00v-58.00"/>
<path class="stroke" stroke-width="1"
	d="M372.14 125.00v-24.00"/>
<path class="stroke" stroke-width="1"
	d="M372.14 183.00v-58.00"/>
<path class="stroke" stroke-width="1"
	d="M451.44 125.00v-24.00"/>
<path class="stroke" stroke-width="1"
	d="M451.44 183.00v-58.00"/>
<path class="stroke" stroke-width="1"
	d="M557.24 125.00v-24.00"/>
<path class="stroke" stroke-width="1"
	d="M557.24 183.00v-58.00"/>
<path class="stroke" stroke-width="1"
	d="M657.64 125.00v-24.00"/>
<path class="stroke" stroke-width="1"
	d="M657.64 183.00v-58.00"/>
<path class="stroke" stroke-width="1"
	d="M758.34 125.00v-24.00"/>
<path class="stroke" stroke-width="1"
	d="M758.34 183.00v-58.00"/>
<path class="stroke" stroke-width="3"
	d="M860.54 125.00v-24.00"/>
<path class="stroke" stroke-width="1"
	d="M856.04 125.00v-24.00"/>
<use x="852.04" y="125.00" xlink:href="#rdots"/>
<path class="stroke" stroke-width="3"
	d="M860.54 183.00v-58.00"/>
<path class="stroke" stroke-width="1"
	d="M856.04 183.00v-58.00"/>
<use x="852.04" y="183.00" xlink:href="#rdots"/>
<path d="m11.54 125.00
	h850.50
	M11.54 119.00
	h850.50
	M11.54 113.00
	h850.50
	M11.54 107.00
	h850.50
	M11.54 101.00
	h850.50
	" class="stroke"/>
<path d="m11.54 183.00
	h850.50
	M11.54 177.00
	h850.50
	M11.54 171.00
	h850.50
	M11.54 165.00
	h850.50
	M11.54 159.00
	h850.50
	" class="stroke"/>
</g>
<g stroke-width="0.70" transform="scale(0.867)" font-family="Times" font-size="13.00">
<text x="762.34" y="86.40">1</text>
<path class="stroke"
	d="M758.34 75.00m0 20v-20h95.70v20"/>
<defs>
<path id="utclef" class="fill" d="m-50 -90
	c-72 -41 -72 -158 52 -188
	150 -10 220 188 90 256
	-114 52 -275 0 -293 -136
	-15 -181 93 -229 220 -334
	88 -87 79 -133 62 -210
	-51 33 -94 105 -89 186
	17 267 36 374 49 574
	6 96 -19 134 -77 135
	-80 1 -126 -93 -61 -133
	85 -41 133 101 31 105
	23 17 92 37 90 -92
	-10 -223 -39 -342 -50 -617
	0 -90 0 -162 96 -232
	56 72 63 230 22 289
	-74 106 -257 168 -255 316
	9 153 148 185 252 133
	86 -65 29 -192 -80 -176
	-71 12 -105 67 -59 124"/>
<use id="tclef" transform="translate(0,6) scale(0.045)"
	xlink:href="#utclef"/>
</defs>
<use x="23.54" y="119.00" xlink:href="#tclef"/>
<g font-family="serif" font-size="16" font-weight="bold" font-style="normal"
	transform="translate(42.04,124.50) scale(1.2,1)">
	<text text-anchor="middle">8</text>
	<text y="-12" text-anchor="middle">3</text>
</g>
<path class="fill"
	d="M81.04 141.20l84.80 0.00v-3.20l-84.80 -0.00"/>
<path class="fill"
	d="M81.34 136.20l84.10 0.00v-3.20l-84.10 -0.00"/>
<use x="84.84" y="110.00" xlink:href="#hd"/>
<path d="M81.34 110.00v30.20" class="stroke"/>
<use x="101.74" y="113.00" xlink:href="#hd"/>
<path d="M98.24 113.00v27.20" class="stroke"/>
<use x="118.54" y="110.00" xlink:href="#hd"/>
<path d="M115.04 110.00v30.20" class="stroke"/>
<use x="135.34" y="104.00" xlink:href="#hd"/>
<path d="M131.84 104.00v36.20" class="stroke"/>
<use x="152.14" y="119.00" xlink:href="#hd"/>
<path d="M148.64 119.00v21.20" class="stroke"/>
<use x="168.94" y="110.00" xlink:href="#hd"/>
<path d="M165.44 110.00v30.20" class="stroke"/>
<path class="fill"
	d="M191.64 138.20l48.10 -6.60v-3.20l-48.10 6.60"/>
<use x="195.44" y="119.00" xlink:href="#hd"/>
<path d="M191.94 119.00v18.20" class="stroke"/>
<use x="219.24" y="110.00" xlink:href="#hd"/>
<path d="M215.74 110.00v23.90" class="stroke"/>
<use x="242.94" y="104.00" xlink:href="#hd"/>
<path d="M239.44 104.00v26.70" class="stroke"/>
<path class="fill"
	d="M270.94 129.00l84.80 6.20v-3.20l-84.80 -6.20"/>
<path class="fill"
	d="M271.34 124.10l84.10 6.10v-3.20l-84.10 -6.10"/>
<use x="274.84" y="101.00" xlink:href="#hd"/>
<path d="M271.34 101.00v27.10" class="stroke"/>
<use x="291.64" y="104.00" xlink:href="#hd"/>
<path d="M288.14 104.00v25.30" class="stroke"/>
<use x="308.44" y="101.00" xlink:href="#hd"/>
<path d="M304.94 101.00v29.50" class="stroke"/>
<use x="325.24" y="107.00" xlink:href="#hd"/>
<path d="M321.74 107.00v24.70" class="stroke"/>
<use x="342.04" y="110.00" xlink:href="#hd"/>
<path d="M338.54 110.00v23.00" class="stroke"/>
<use x="358.94" y="113.00" xlink:href="#hd"/>
<path d="M355.44 113.00v21.20" class="stroke"/>
<path class="fill"
	d="M381.64 133.80l48.10 4.50v-3.20l-48.10 -4.50"/>
<use x="385.44" y="110.00" xlink:href="#hd"/>
<path d="M381.94 110.00v22.80" class="stroke"/>
<use x="409.14" y="104.00" xlink:href="#hd"/>
<path d="M405.64 104.00v31.00" class="stroke"/>
<use x="432.84" y="119.00" xlink:href="#hd"/>
<path d="M429.34 119.00v18.20" class="stroke"/>
<path class="fill"
	d="M466.04 127.00l74.80 0.00v-3.20l-74.80 -0.00"/>
<path class="fill"
	d="M490.14 122.00l50.40 0.00v-3.20l-50.40 -0.00"/>
<use x="469.94" y="101.00" xlink:href="#hd"/>
<defs>
<path id="usharp" class="fill" d="
	m136 -702
	v890
	h32
	v-890
	m128 840
	h32
	v-888
	h-32
	m-232 286
	v116
	l338 -96
	v-116
	m-338 442
	v116
	l338 -98
	v-114"/>
<use id="sh0" transform="translate(-4,5) scale(0.018)"
	xlink:href="#usharp"/>
</defs>
<use x="460.94" y="101.00" xlink:href="#sh0"/>
<path d="M466.44 101.00v25.00" class="stroke"/>
<defs>
<path id="hl" class="stroke" d="m-6 0h12"/>
</defs>
<use x="493.64" y="95.00" xlink:href="#hl"/>
<use x="493.64" y="95.00" xlink:href="#hd"/>
<path d="M490.14 95.00v31.00" class="stroke"/>
<use x="510.44" y="101.00" xlink:href="#hd"/>
<path d="M506.94 101.00v25.00" class="stroke"/>
<use x="527.24" y="107.00" xlink:href="#hd"/>
<path d="M523.74 107.00v19.00" class="stroke"/>
<use x="544.14" y="101.00" xlink:href="#hd"/>
<path d="M540.64 101.00v25.00" class="stroke"/>
<path class="fill"
	d="M566.74 127.00l69.10 0.00v-3.20l-69.10 -0.00"/>
<path class="fill"
	d="M567.14 122.00l51.60 0.00v-3.20l-51.60 -0.00"/>
<use x="570.64" y="98.00" xlink:href="#hd"/>
<path d="M567.14 98.00v28.00" class="stroke"/>
<use x="588.64" y="101.00" xlink:href="#hd"/>
<use x="579.64" y="101.00" xlink:href="#sh0"/>
<path d="M585.14 101.00v25.00" class="stroke"/>
<use x="605.44" y="98.00" xlink:href="#hd"/>
<path d="M601.94 98.00v28.00" class="stroke"/>
<use x="622.24" y="95.00" xlink:href="#hl"/>
<use x="622.24" y="92.00" xlink:href="#hd"/>
<path d="M618.74 92.00v34.00" class="stroke"/>
<use x="639.04" y="107.00" xlink:href="#hd"/>
<path d="M635.54 107.00v19.00" class="stroke"/>
<path class="fill"
	d="M667.14 138.20l74.80 0.00v-3.20l-74.80 -0.00"/>
<path class="fill"
	d="M691.14 133.20l50.40 0.00v-3.20l-50.40 -0.00"/>
<use x="670.94" y="116.00" xlink:href="#hd"/>
<path d="M667.44 116.00v21.20" class="stroke"/>
<use x="694.64" y="107.00" xlink:href="#hd"/>
<path d="M691.14 107.00v30.20" class="stroke"/>
<use x="711.54" y="110.00" xlink:href="#hd"/>
<path d="M708.04 110.00v27.20" class="stroke"/>
<use x="728.34" y="113.00" xlink:href="#hd"/>
<path d="M724.84 113.00v24.20" class="stroke"/>
<use x="745.14" y="116.00" xlink:href="#hd"/>
<path d="M741.64 116.00v21.20" class="stroke"/>
<use x="771.64" y="98.00" xlink:href="#hd"/>
<path d="M768.14 98.00v40.00" class="stroke"/>
<use x="771.64" y="119.00" xlink:href="#hd"/>
<use x="771.64" y="113.00" xlink:href="#hd"/>
<use x="771.64" y="107.00" xlink:href="#hd"/>
<defs>
<path id="r8e" class="fill" d="m 0 0
	c-1.5 1.5 -2.4 2 -3.6 2
	2.4 -2.8 -2.8 -4 -2.8 -1.2
	c0 2.7 4.3 2.4 5.9 0.6"/>
<g id="r8">
	<path d="m3.3 -4l-3.4 9.6" class="stroke"/>
	<use x="3.4" y="-4" xlink:href="#r8e"/>
</g>
</defs>
<use x="830.24" y="113.00" xlink:href="#r8"/>
<defs>
<path id="ubclef" class="fill" d="m-200 -87
	c124 -35 222 -78 254 -236
	43 -228 -167 -246 -192 -103
	59 -80 157 22 92 78
	-62 47 -115 -22 -106 -88
	21 -141 270 -136 274 52
	-1 175 -106 264 -322 297
	m357 -250
	c0 -36 51 -34 51 0
	0 37 -51 36 -51 0
	m-2 -129
	c0 -36 51 -34 51 0
	0 38 -51 37 -51 0"/>
<use id="bclef" transform="translate(0,18) scale(0.045)"
	xlink:href="#ubclef"/>
</defs>
<use x="23.54" y="165.00" xlink:href="#bclef"/>
<g font-family="serif" font-size="16" font-weight="bold" font-style="normal"
	transform="translate(42.04,182.50) scale(1.2,1)">
	<text text-anchor="middle">8</text>
	<text y="-12" text-anchor="middle">3</text>
</g>
<use x="84.84" y="168.00" xlink:href="#hd"/>
<path d="M81.34 168.00v25.00" class="stroke"/>
<use x="84.84" y="174.00" xlink:href="#hd"/>
<use x="152.14" y="171.00" xlink:href="#r8"/>
<use x="195.44" y="168.00" xlink:href="#hd"/>
<path d="M191.94 168.00v25.00" class="stroke"/>
<use x="195.44" y="174.00" xlink:href="#hd"/>
<use x="242.94" y="171.00" xlink:href="#r8"/>
<use x="274.84" y="156.00" xlink:href="#hd"/>
<path d="M271.34 156.00v25.00" class="stroke"/>
<use x="274.84" y="162.00" xlink:href="#hd"/>
<use x="342.04" y="171.00" xlink:href="#r8"/>
<use x="385.44" y="162.00" xlink:href="#hd"/>
<path d="M381.94 162.00v25.00" class="stroke"/>
<use x="385.44" y="168.00" xlink:href="#hd"/>
<use x="432.84" y="171.00" xlink:href="#r8"/>
<use x="469.94" y="174.00" xlink:href="#hd"/>
<path d="M473.44 174.00v-21.00" class="stroke"/>
<use x="527.24" y="171.00" xlink:href="#r8"/>
<path class="fill"
	d="M573.74 149.50l69.10 -4.70v3.20l-69.10 4.70"/>
<use x="570.64" y="177.00" xlink:href="#hd"/>
<path d="M574.14 177.00v-26.60" class="stroke"/>
<use x="570.64" y="171.00" xlink:href="#hd"/>
<use x="605.44" y="177.00" xlink:href="#hd"/>
<path d="M608.94 177.00v-28.90" class="stroke"/>
<use x="605.44" y="171.00" xlink:href="#hd"/>
<use x="639.04" y="177.00" xlink:href="#hd"/>
<path d="M642.54 177.00v-31.20" class="stroke"/>
<use x="639.04" y="162.00" xlink:href="#hd"/>
<path class="fill"
	d="M674.14 148.40l58.00 8.30v3.20l-58.00 -8.30"/>
<use x="670.94" y="174.00" xlink:href="#hd"/>
<path d="M674.44 174.00v-24.60" class="stroke"/>
<use x="694.64" y="171.00" xlink:href="#hd"/>
<path d="M698.14 171.00v-18.20" class="stroke"/>
<use x="728.34" y="189.00" xlink:href="#hl"/>
<use x="728.34" y="192.00" xlink:href="#hd"/>
<path d="M731.84 192.00v-34.40" class="stroke"/>
<path class="fill"
	d="M767.84 202.20l76.00 0.00v-3.20l-76.00 -0.00"/>
<path class="fill"
	d="M791.84 197.20l51.60 0.00v-3.20l-51.60 -0.00"/>
<use x="771.64" y="183.00" xlink:href="#hd"/>
<path d="M768.14 183.00v18.20" class="stroke"/>
<use x="795.34" y="162.00" xlink:href="#hd"/>
<path d="M791.84 162.00v39.20" class="stroke"/>
<use x="813.34" y="165.00" xlink:href="#hd"/>
<defs>
<path id="unat" class="fill" d="
	m96 -750
	h-32
	v716
	l32 -8
	182 -54
	v282
	h32
	v-706
	l-34 10
	-180 50
	v-290
	m0 592
	v-190
	l182 -52
	v188"/>
<use id="nt0" transform="translate(-3,5) scale(0.018)"
	xlink:href="#unat"/>
</defs>
<use x="804.34" y="165.00" xlink:href="#nt0"/>
<path d="M809.84 165.00v36.20" class="stroke"/>
<use x="830.24" y="168.00" xlink:href="#hd"/>
<path d="M826.74 168.00v33.20" class="stroke"/>
<use x="847.04" y="171.00" xlink:href="#hd"/>
<path d="M843.54 171.00v30.20" class="stroke"/>
</g>
<g stroke-width="0.70" transform="scale(0.867)" font-family="Times" font-size="13.00">
<path class="stroke" stroke-width="1"
	d="M11.54 316.00v-82.00"/>
<path class="fill"
	d="M6.54 231.00
	c10.5 1 12 -4.5 12 -3.5c0 1 -3.5 5.5 -8.5 5.5
	v84.00
	c5 0 8.5 4.5 8.5 5.5c0 1 -1.5 -4.5 -12 -3.5"/>
<use x="145.64" y="258.00" xlink:href="#rdots"/>
<path class="stroke" stroke-width="1"
	d="M141.64 258.00v-24.00"/>
<path class="stroke" stroke-width="3"
	d="M137.14 258.00v-24.00"/>
<use x="145.64" y="316.00" xlink:href="#rdots"/>
<path class="stroke" stroke-width="1"
	d="M141.64 316.00v-58.00"/>
<path class="stroke" stroke-width="3"
	d="M137.14 316.00v-58.00"/>
<path class="stroke" stroke-width="1"
	d="M236.54 258.00v-24.00"/>
<path class="stroke" stroke-width="1"
	d="M236.54 316.00v-58.00"/>
<path class="stroke" stroke-width="1"
	d="M318.34 258.00v-24.00"/>
<path class="stroke" stroke-width="1"
	d="M318.34 316.00v-58.00"/>
<path class="stroke" stroke-width="1"
	d="M399.94 258.00v-24.00"/>
<path class="stroke" stroke-width="1"
	d="M399.94 316.00v-58.00"/>
<path class="stroke" stroke-width="1"
	d="M481.44 258.00v-24.00"/>
<path class="stroke" stroke-width="1"
	d="M481.44 316.00v-58.00"/>
<path class="stroke" stroke-width="1"
	d="M583.04 258.00v-24.00"/>
<path class="stroke" stroke-width="1"
	d="M583.04 316.00v-58.00"/>
<path class="stroke" stroke-width="1"
	d="M684.54 258.00v-24.00"/>
<path class="stroke" stroke-width="1"
	d="M684.54 316.00v-58.00"/>
<path class="stroke" stroke-width="1"
	d="M786.14 258.00v-24.00"/>
<path class="stroke" stroke-width="1"
	d="M786.14 316.00v-58.00"/>
<path class="stroke" stroke-width="3"
	d="M860.54 258.00v-24.00"/>
<path class="stroke" stroke-width="1"
	d="M856.04 258.00v-24.00"/>
<use x="852.04" y="258.00" xlink:href="#rdots"/>
<path class="stroke" stroke-width="3"
	d="M860.54 316.00v-58.00"/>
<path class="stroke" stroke-width="1"
	d="M856.04 316.00v-58.00"/>
<use x="852.04" y="316.00" xlink:href="#rdots"/>
<path d="m11.54 258.00
	h850.50
	M11.54 252.00
	h850.50
	M11.54 246.00
	h850.50
	M11.54 240.00
	h850.50
	M11.54 234.00
	h850.50
	" class="stroke"/>
<path d="m11.54 316.00
	h850.50
	M11.54 310.00
	h850.50
	M11.54 304.00
	h850.50
	M11.54 298.00
	h850.50
	M11.54 292.00
	h850.50
	" class="stroke"/>
<text x="47.54" y="219.40">2</text>
<path class="stroke"
	d="M43.54 208.00m0 20v-20h91.10v20"/>
<use x="23.54" y="252.00" xlink:href="#tclef"/>
<use x="56.04" y="231.00" xlink:href="#hd"/>
<path d="M52.54 231.00v40.00" class="stroke"/>
<use x="56.04" y="252.00" xlink:href="#hd"/>
<use x="56.04" y="246.00" xlink:href="#hd"/>
<use x="56.04" y="240.00" xlink:href="#hd"/>
<use x="110.84" y="246.00" xlink:href="#r8"/>
<path class="fill"
	d="M161.24 262.50l31.30 5.80v-3.20l-31.30 -5.80"/>
<path class="fill"
	d="M161.64 257.50l15.30 2.80v-3.20l-15.30 -2.80"/>
<use x="165.14" y="234.00" xlink:href="#hd"/>
<use x="156.14" y="234.00" xlink:href="#sh0"/>
<path d="M161.64 234.00v27.50" class="stroke"/>
<use x="180.44" y="240.00" xlink:href="#hd"/>
<path d="M176.94 240.00v24.40" class="stroke"/>
<use x="195.74" y="249.00" xlink:href="#hd"/>
<path d="M192.24 249.00v18.20" class="stroke"/>
<use x="219.54" y="234.00" xlink:href="#hd"/>
<path d="M216.04 234.00v21.00" class="stroke"/>
<path class="fill"
	d="M216.04 255.00c0.6 -5.6 9.6 -9 5.6 -18.4
	1.6 6 -1.3 11.6 -5.6 12.8
"/>
<path class="fill"
	d="M245.14 262.60l52.80 8.70v-3.20l-52.80 -8.70"/>
<path class="fill"
	d="M266.94 261.20l15.30 2.50v-3.20l-15.30 -2.50"/>
<use x="249.04" y="231.00" xlink:href="#hd"/>
<path d="M245.54 231.00v30.70" class="stroke"/>
<use x="270.44" y="240.00" xlink:href="#hd"/>
<path d="M266.94 240.00v25.20" class="stroke"/>
<use x="285.84" y="246.00" xlink:href="#hd"/>
<path d="M282.34 246.00v21.70" class="stroke"/>
<use x="301.14" y="252.00" xlink:href="#hd"/>
<path d="M297.64 252.00v18.20" class="stroke"/>
<path class="fill"
	d="M327.04 260.00l52.80 0.00v-3.20l-52.80 -0.00"/>
<path class="fill"
	d="M348.84 255.00l15.30 0.00v-3.20l-15.30 -0.00"/>
<use x="330.84" y="237.00" xlink:href="#hd"/>
<path d="M327.34 237.00v22.00" class="stroke"/>
<use x="352.34" y="231.00" xlink:href="#hd"/>
<path d="M348.84 231.00v28.00" class="stroke"/>
<use x="367.64" y="237.00" xlink:href="#hd"/>
<path d="M364.14 237.00v22.00" class="stroke"/>
<use x="382.94" y="243.00" xlink:href="#hd"/>
<path d="M379.44 243.00v16.00" class="stroke"/>
<path class="fill"
	d="M408.54 264.20l52.80 0.00v-3.20l-52.80 -0.00"/>
<path class="fill"
	d="M430.34 259.20l15.30 0.00v-3.20l-15.30 -0.00"/>
<use x="412.44" y="240.00" xlink:href="#hd"/>
<path d="M408.94 240.00v23.20" class="stroke"/>
<use x="412.44" y="246.00" xlink:href="#hd"/>
<use x="433.84" y="231.00" xlink:href="#hd"/>
<path d="M430.34 231.00v32.20" class="stroke"/>
<use x="449.14" y="228.00" xlink:href="#hl"/>
<use x="449.14" y="225.00" xlink:href="#hd"/>
<path d="M445.64 225.00v38.20" class="stroke"/>
<use x="464.44" y="240.00" xlink:href="#hd"/>
<path d="M460.94 240.00v23.20" class="stroke"/>
<path class="fill"
	d="M490.14 263.50l77.20 -6.30v-3.20l-77.20 6.30"/>
<path class="fill"
	d="M490.44 258.40l76.50 -6.20v-3.20l-76.50 6.20"/>
<use x="493.94" y="237.00" xlink:href="#hd"/>
<path d="M490.44 237.00v25.40" class="stroke"/>
<use x="509.24" y="240.00" xlink:href="#hd"/>
<path d="M505.74 240.00v21.20" class="stroke"/>
<use x="524.64" y="237.00" xlink:href="#hd"/>
<path d="M521.14 237.00v23.00" class="stroke"/>
<use x="539.94" y="231.00" xlink:href="#hd"/>
<path d="M536.44 231.00v27.70" class="stroke"/>
<use x="555.24" y="228.00" xlink:href="#hl"/>
<use x="555.24" y="222.00" xlink:href="#hl"/>
<use x="555.24" y="222.00" xlink:href="#hd"/>
<path d="M551.74 222.00v35.50" class="stroke"/>
<use x="570.54" y="231.00" xlink:href="#hd"/>
<path d="M567.04 231.00v25.20" class="stroke"/>
<path class="fill"
	d="M591.64 275.50l77.20 -6.30v-3.20l-77.20 6.30"/>
<path class="fill"
	d="M592.04 270.40l76.50 -6.20v-3.20l-76.50 6.20"/>
<use x="595.54" y="243.00" xlink:href="#hd"/>
<path d="M592.04 243.00v31.40" class="stroke"/>
<use x="610.84" y="252.00" xlink:href="#hd"/>
<path d="M607.34 252.00v21.20" class="stroke"/>
<use x="626.14" y="237.00" xlink:href="#hd"/>
<path d="M622.64 237.00v35.00" class="stroke"/>
<use x="641.44" y="243.00" xlink:href="#hd"/>
<path d="M637.94 243.00v27.70" class="stroke"/>
<use x="656.74" y="231.00" xlink:href="#hd"/>
<path d="M653.24 231.00v38.50" class="stroke"/>
<use x="672.04" y="237.00" xlink:href="#hd"/>
<path d="M668.54 237.00v31.20" class="stroke"/>
<path class="fill"
	d="M693.24 260.00l77.20 0.00v-3.20l-77.20 -0.00"/>
<path class="fill"
	d="M693.54 255.00l76.50 0.00v-3.20l-76.50 -0.00"/>
<use x="697.04" y="234.00" xlink:href="#hd"/>
<path d="M693.54 234.00v25.00" class="stroke"/>
<use x="712.34" y="237.00" xlink:href="#hd"/>
<path d="M708.84 237.00v22.00" class="stroke"/>
<use x="727.64" y="240.00" xlink:href="#hd"/>
<path d="M724.14 240.00v19.00" class="stroke"/>
<use x="743.04" y="237.00" xlink:href="#hd"/>
<path d="M739.54 237.00v22.00" class="stroke"/>
<use x="758.34" y="234.00" xlink:href="#hd"/>
<path d="M754.84 234.00v25.00" class="stroke"/>
<use x="773.64" y="231.00" xlink:href="#hd"/>
<path d="M770.14 231.00v28.00" class="stroke"/>
<use x="798.64" y="243.00" xlink:href="#hd"/>
<path d="M795.14 243.00v21.00" class="stroke"/>
<use x="841.54" y="246.00" xlink:href="#r8"/>
<use x="23.54" y="298.00" xlink:href="#bclef"/>
<path class="fill"
	d="M52.24 335.20l70.80 -5.10v-3.20l-70.80 5.10"/>
<path class="fill"
	d="M74.04 328.70l48.60 -3.50v-3.20l-48.60 3.50"/>
<use x="56.04" y="316.00" xlink:href="#hd"/>
<path d="M52.54 316.00v18.20" class="stroke"/>
<use x="77.54" y="289.00" xlink:href="#hd"/>
<path d="M74.04 289.00v43.70" class="stroke"/>
<use x="92.84" y="295.00" xlink:href="#hd"/>
<path d="M89.34 295.00v36.60" class="stroke"/>
<use x="110.84" y="298.00" xlink:href="#hd"/>
<use x="101.84" y="298.00" xlink:href="#sh0"/>
<path d="M107.34 298.00v32.30" class="stroke"/>
<use x="126.14" y="301.00" xlink:href="#hd"/>
<path d="M122.64 301.00v28.20" class="stroke"/>
<use x="165.14" y="292.00" xlink:href="#hd"/>
<path d="M161.64 292.00v34.00" class="stroke"/>
<use x="165.14" y="307.00" xlink:href="#hd"/>
<use x="219.54" y="292.00" xlink:href="#hd"/>
<path d="M216.04 292.00v34.00" class="stroke"/>
<path class="fill"
	d="M216.04 326.00c0.6 -5.6 9.6 -9 5.6 -18.4
	1.6 6 -1.3 11.6 -5.6 12.8
"/>
<use x="219.54" y="307.00" xlink:href="#hd"/>
<use x="249.04" y="310.00" xlink:href="#hd"/>
<path d="M252.54 310.00v-25.00" class="stroke"/>
<use x="249.04" y="304.00" xlink:href="#hd"/>
<use x="301.14" y="310.00" xlink:href="#hd"/>
<path d="M304.64 310.00v-25.00" class="stroke"/>
<path class="fill"
	d="M304.64 285.00c0.6 5.6 9.6 9 5.6 18.4
	1.6 -6 -1.3 -11.6 -5.6 -12.8
"/>
<use x="301.14" y="304.00" xlink:href="#hd"/>
<use x="330.84" y="295.00" xlink:href="#hd"/>
<path d="M327.34 295.00v31.00" class="stroke"/>
<use x="330.84" y="307.00" xlink:href="#hd"/>
<use x="382.94" y="301.00" xlink:href="#hd"/>
<path d="M379.44 301.00v25.00" class="stroke"/>
<path class="fill"
	d="M379.44 326.00c0.6 -5.6 9.6 -9 5.6 -18.4
	1.6 6 -1.3 11.6 -5.6 12.8
"/>
<use x="382.94" y="307.00" xlink:href="#hd"/>
<use x="412.44" y="316.00" xlink:href="#hd"/>
<path d="M415.94 316.00v-40.00" class="stroke"/>
<use x="412.44" y="295.00" xlink:href="#hd"/>
<use x="464.44" y="295.00" xlink:href="#hd"/>
<path d="M460.94 295.00v21.00" class="stroke"/>
<path class="fill"
	d="M460.94 316.00c0.6 -5.6 9.6 -9 5.6 -18.4
	1.6 6 -1.3 11.6 -5.6 12.8
"/>
<use x="493.94" y="295.00" xlink:href="#hd"/>
<path d="M497.44 295.00v-21.00" class="stroke"/>
<use x="555.24" y="301.00" xlink:href="#hd"/>
<path d="M558.74 301.00v-21.00" class="stroke"/>
<path class="fill"
	d="M558.74 280.00c0.6 5.6 9.6 9 5.6 18.4
	1.6 -6 -1.3 -11.6 -5.6 -12.8
"/>
<use x="595.54" y="301.00" xlink:href="#hd"/>
<path d="M592.04 301.00v25.00" class="stroke"/>
<use x="595.54" y="307.00" xlink:href="#hd"/>
<use x="656.74" y="304.00" xlink:href="#r8"/>
<path class="fill"
	d="M693.24 317.90l77.20 0.00v-3.20l-77.20 -0.00"/>
<path class="fill"
	d="M693.54 312.90l76.50 0.00v-3.20l-76.50 -0.00"/>
<use x="697.04" y="292.00" xlink:href="#hd"/>
<path d="M693.54 292.00v25.00" class="stroke"/>
<use x="712.34" y="295.00" xlink:href="#hd"/>
<path d="M708.84 295.00v22.00" class="stroke"/>
<use x="727.64" y="298.00" xlink:href="#hd"/>
<path d="M724.14 298.00v19.00" class="stroke"/>
<use x="743.04" y="295.00" xlink:href="#hd"/>
<path d="M739.54 295.00v22.00" class="stroke"/>
<use x="758.34" y="292.00" xlink:href="#hd"/>
<path d="M754.84 292.00v25.00" class="stroke"/>
<use x="773.64" y="289.00" xlink:href="#hd"/>
<path d="M770.14 289.00v28.00" class="stroke"/>
<path class="fill"
	d="M801.74 287.70l43.60 9.90v3.20l-43.60 -9.90"/>
<use x="798.64" y="307.00" xlink:href="#hd"/>
<path d="M802.14 307.00v-18.20" class="stroke"/>
<use x="820.04" y="316.00" xlink:href="#hd"/>
<path d="M823.54 316.00v-22.30" class="stroke"/>
<use x="841.54" y="322.00" xlink:href="#hl"/>
<use x="841.54" y="328.00" xlink:href="#hl"/>
<use x="841.54" y="328.00" xlink:href="#hd"/>
<path d="M845.04 328.00v-29.40" class="stroke"/>
<use x="493.94" y="307.00" xlink:href="#hd"/>
<path d="M490.44 307.00v21.00" class="stroke"/>
<use x="555.24" y="307.00" xlink:href="#hd"/>
<path d="M551.74 307.00v21.00" class="stroke"/>
<path class="fill"
	d="M551.74 328.00c0.6 -5.6 9.6 -9 5.6 -18.4
	1.6 6 -1.3 11.6 -5.6 12.8
"/>
</g>
</svg>
