<?xml version="1.0" standalone="no"?>
<!DOCTYPE svg PUBLIC "-//W3C//DTD SVG 1.1//EN"
	"http://www.w3.org/Graphics/SVG/1.1/DTD/svg11.dtd">
<svg xmlns="http://www.w3.org/2000/svg" version="1.1"
	xmlns:xlink="http://www.w3.org/1999/xlink"
	color="black"
	width="757.10px" height="304.21px">
<style type="text/css">
.fill {fill: currentColor}
.stroke {stroke: currentColor; fill: none}
text{white-space: pre}
</style>
<title>./K516f-4-8-5-10-10-11-6-11-7-11-6-10-7-12-12-9.abc (3782) tune 1</title>
<!-- Creator: abcm2ps-8.13.8 -->
<!-- CreationDate: Sep  7, 2017 11:20 -->
<!-- CommandLine: ./K516f-4-8-5-10-10-11-6-11-7-11-6-10-7-12-12-9.abc -O ./K516f-4-8-5-10-10-11-6-11-7-11-6-10-7-12-12-9.svg -g -->
<rect width="100%" height="100%" fill="white"/>
<g stroke-width="0.70" transform="scale(0.867)">
<!-- title: 4-8-5-10-10-11-6-11-7-11-6-10-7-12-12-9 -->
</g>
<g stroke-width="0.70" transform="scale(0.867)" font-family="Times" font-size="20.00">
<text x="436.84" y="22.00" text-anchor="middle">4-8-5-10-10-11-6-11-7-11-6-10-7-12-12-9</text>
</g>
<g stroke-width="0.70" transform="scale(0.867)" font-family="Times" font-size="20.00">
<!-- subtitle: $1K.516f::69:60:113:156:75:47:36:33:138:4:64:82:101:124:44:111::$0 -->
</g>
<g stroke-width="0.70" transform="scale(0.867)" font-family="Courier" font-size="8.00" font-weight="bold">
<text x="436.84" y="41.80" text-anchor="middle">K.516f::69:60:113:156:75:47:36:33:138:4:64:82:101:124:44:111::</text>
</g>
<g stroke-width="0.70" transform="scale(0.867)" font-family="Courier" font-size="8.00" font-weight="bold">
<!-- subtitle: $1Perm. No.: 378256930076842$0 -->
<text x="436.84" y="60.80" text-anchor="middle">Perm. No.: 378256930076842</text>
</g>
<g stroke-width="0.70" transform="scale(0.607)" font-family="Courier" font-size="8.00" font-weight="bold">
<defs>
<ellipse id="hd" rx="4.1" ry="2.9"
	transform="rotate(-20)" class="fill"/>
</defs>
<use x="103.06" y="121.29" xlink:href="#hd"/>
<path d="M106.56 121.29v-21.00" class="stroke"/>
<path class="fill"
	d="M106.56 100.29c0.6 5.6 9.6 9 5.6 18.4
	1.6 -6 -1.3 -11.6 -5.6 -12.8
"/>
</g>
<g stroke-width="0.70" transform="scale(0.867)" font-family="Times" font-size="15.00" font-weight="bold">
<text x="81.24" y="87.00">= 111</text>
<path class="stroke" stroke-width="1"
	d="M11.54 184.00v-82.00"/>
<path class="fill"
	d="M6.54 99.00
	c10.5 1 12 -4.5 12 -3.5c0 1 -3.5 5.5 -8.5 5.5
	v84.00
	c5 0 8.5 4.5 8.5 5.5c0 1 -1.5 -4.5 -12 -3.5"/>
<defs>
<g id="rdots" class="fill">
	<circle cx="0" cy="-9" r="1.2"/>
	<circle cx="0" cy="-15" r="1.2"/>
</g>
</defs>
<use x="70.54" y="126.00" xlink:href="#rdots"/>
<path class="stroke" stroke-width="1"
	d="M66.54 126.00v-24.00"/>
<path class="stroke" stroke-width="3"
	d="M62.04 126.00v-24.00"/>
<use x="70.54" y="184.00" xlink:href="#rdots"/>
<path class="stroke" stroke-width="1"
	d="M66.54 184.00v-58.00"/>
<path class="stroke" stroke-width="3"
	d="M62.04 184.00v-58.00"/>
<path class="stroke" stroke-width="1"
	d="M155.84 126.00v-24.00"/>
<path class="stroke" stroke-width="1"
	d="M155.84 184.00v-58.00"/>
<path class="stroke" stroke-width="1"
	d="M262.64 126.00v-24.00"/>
<path class="stroke" stroke-width="1"
	d="M262.64 184.00v-58.00"/>
<path class="stroke" stroke-width="1"
	d="M346.94 126.00v-24.00"/>
<path class="stroke" stroke-width="1"
	d="M346.94 184.00v-58.00"/>
<path class="stroke" stroke-width="1"
	d="M452.14 126.00v-24.00"/>
<path class="stroke" stroke-width="1"
	d="M452.14 184.00v-58.00"/>
<path class="stroke" stroke-width="1"
	d="M540.84 126.00v-24.00"/>
<path class="stroke" stroke-width="1"
	d="M540.84 184.00v-58.00"/>
<path class="stroke" stroke-width="1"
	d="M635.64 126.00v-24.00"/>
<path class="stroke" stroke-width="1"
	d="M635.64 184.00v-58.00"/>
<path class="stroke" stroke-width="1"
	d="M753.04 126.00v-24.00"/>
<path class="stroke" stroke-width="1"
	d="M753.04 184.00v-58.00"/>
<path class="stroke" stroke-width="3"
	d="M860.54 126.00v-24.00"/>
<path class="stroke" stroke-width="1"
	d="M856.04 126.00v-24.00"/>
<use x="852.04" y="126.00" xlink:href="#rdots"/>
<path class="stroke" stroke-width="3"
	d="M860.54 184.00v-58.00"/>
<path class="stroke" stroke-width="1"
	d="M856.04 184.00v-58.00"/>
<use x="852.04" y="184.00" xlink:href="#rdots"/>
<path d="m11.54 126.00
	h850.50
	M11.54 120.00
	h850.50
	M11.54 114.00
	h850.50
	M11.54 108.00
	h850.50
	M11.54 102.00
	h850.50
	" class="stroke"/>
<path d="m11.54 184.00
	h850.50
	M11.54 178.00
	h850.50
	M11.54 172.00
	h850.50
	M11.54 166.00
	h850.50
	M11.54 160.00
	h850.50
	" class="stroke"/>
<path class="fill"
	d="M89.64 95.40c7.19 -3.05 39.36 2.20 46.55 7.60
	v-0.25c-8.59 -7.16 -37.96 -12.41 -46.55 -7.35"/>
</g>
<g stroke-width="0.70" transform="scale(0.867)" font-family="Times" font-size="13.00">
<text x="757.04" y="87.40">1</text>
<path class="stroke"
	d="M753.04 76.00m0 20v-20h101.00v20"/>
<defs>
<path id="utclef" class="fill" d="m-50 -90
	c-72 -41 -72 -158 52 -188
	150 -10 220 188 90 256
	-114 52 -275 0 -293 -136
	-15 -181 93 -229 220 -334
	88 -87 79 -133 62 -210
	-51 33 -94 105 -89 186
	17 267 36 374 49 574
	6 96 -19 134 -77 135
	-80 1 -126 -93 -61 -133
	85 -41 133 101 31 105
	23 17 92 37 90 -92
	-10 -223 -39 -342 -50 -617
	0 -90 0 -162 96 -232
	56 72 63 230 22 289
	-74 106 -257 168 -255 316
	9 153 148 185 252 133
	86 -65 29 -192 -80 -176
	-71 12 -105 67 -59 124"/>
<use id="tclef" transform="translate(0,6) scale(0.045)"
	xlink:href="#utclef"/>
</defs>
<use x="23.54" y="120.00" xlink:href="#tclef"/>
<g font-family="serif" font-size="16" font-weight="bold" font-style="normal"
	transform="translate(42.04,125.50) scale(1.2,1)">
	<text text-anchor="middle">8</text>
	<text y="-12" text-anchor="middle">3</text>
</g>
<path class="fill"
	d="M81.74 122.00l51.20 8.20v-3.20l-51.20 -8.20"/>
<use x="85.64" y="99.00" xlink:href="#hd"/>
<path d="M82.14 99.00v22.10" class="stroke"/>
<use x="110.84" y="105.00" xlink:href="#hd"/>
<path d="M107.34 105.00v20.10" class="stroke"/>
<use x="136.14" y="111.00" xlink:href="#hd"/>
<path d="M132.64 111.00v18.20" class="stroke"/>
<path class="fill"
	d="M166.04 123.90l79.60 9.40v-3.20l-79.60 -9.40"/>
<path class="fill"
	d="M191.64 121.90l53.60 6.30v-3.20l-53.60 -6.30"/>
<use x="169.84" y="99.00" xlink:href="#hd"/>
<path d="M166.34 99.00v23.90" class="stroke"/>
<use x="195.14" y="102.00" xlink:href="#hd"/>
<path d="M191.64 102.00v23.90" class="stroke"/>
<use x="213.04" y="105.00" xlink:href="#hd"/>
<path d="M209.54 105.00v23.00" class="stroke"/>
<use x="230.94" y="108.00" xlink:href="#hd"/>
<path d="M227.44 108.00v22.10" class="stroke"/>
<use x="248.74" y="111.00" xlink:href="#hd"/>
<path d="M245.24 111.00v21.20" class="stroke"/>
<path class="fill"
	d="M272.94 125.00l51.20 8.20v-3.20l-51.20 -8.20"/>
<use x="276.74" y="102.00" xlink:href="#hd"/>
<path d="M273.24 102.00v22.10" class="stroke"/>
<use x="302.04" y="108.00" xlink:href="#hd"/>
<path d="M298.54 108.00v20.10" class="stroke"/>
<use x="327.24" y="114.00" xlink:href="#hd"/>
<path d="M323.74 114.00v18.20" class="stroke"/>
<path class="fill"
	d="M357.14 143.90l72.20 -6.50v-3.20l-72.20 6.50"/>
<path class="fill"
	d="M357.54 138.80l53.60 -4.90v-3.20l-53.60 4.90"/>
<use x="361.04" y="111.00" xlink:href="#hd"/>
<path d="M357.54 111.00v31.80" class="stroke"/>
<use x="378.84" y="120.00" xlink:href="#hd"/>
<path d="M375.34 120.00v21.20" class="stroke"/>
<use x="396.74" y="105.00" xlink:href="#hd"/>
<path d="M393.24 105.00v34.60" class="stroke"/>
<use x="414.64" y="111.00" xlink:href="#hd"/>
<path d="M411.14 111.00v27.00" class="stroke"/>
<use x="432.54" y="99.00" xlink:href="#hd"/>
<path d="M429.04 99.00v37.30" class="stroke"/>
<path class="fill"
	d="M466.84 126.30l51.20 0.00v-3.20l-51.20 -0.00"/>
<use x="470.64" y="102.00" xlink:href="#hd"/>
<defs>
<path id="usharp" class="fill" d="
	m136 -702
	v890
	h32
	v-890
	m128 840
	h32
	v-888
	h-32
	m-232 286
	v116
	l338 -96
	v-116
	m-338 442
	v116
	l338 -98
	v-114"/>
<use id="sh0" transform="translate(-4,5) scale(0.018)"
	xlink:href="#usharp"/>
</defs>
<use x="461.64" y="102.00" xlink:href="#sh0"/>
<path d="M467.14 102.00v23.20" class="stroke"/>
<use x="470.64" y="108.00" xlink:href="#hd"/>
<use x="495.94" y="102.00" xlink:href="#hd"/>
<path d="M492.44 102.00v23.20" class="stroke"/>
<use x="495.94" y="108.00" xlink:href="#hd"/>
<use x="521.24" y="102.00" xlink:href="#hd"/>
<path d="M517.74 102.00v23.20" class="stroke"/>
<use x="521.24" y="108.00" xlink:href="#hd"/>
<path class="fill"
	d="M551.14 128.00l61.70 0.00v-3.20l-61.70 -0.00"/>
<path class="fill"
	d="M576.74 123.00l17.90 0.00v-3.20l-17.90 -0.00"/>
<use x="554.94" y="99.00" xlink:href="#hd"/>
<path d="M551.44 99.00v28.00" class="stroke"/>
<use x="580.24" y="99.00" xlink:href="#hd"/>
<path d="M576.74 99.00v28.00" class="stroke"/>
<use x="598.14" y="108.00" xlink:href="#hd"/>
<path d="M594.64 108.00v19.00" class="stroke"/>
<defs>
<path id="hl" class="stroke" d="m-6 0h12"/>
</defs>
<use x="615.94" y="96.00" xlink:href="#hl"/>
<use x="615.94" y="93.00" xlink:href="#hd"/>
<path d="M612.44 93.00v34.00" class="stroke"/>
<path class="fill"
	d="M645.84 139.20l90.20 -8.60v-3.20l-90.20 8.60"/>
<path class="fill"
	d="M646.24 134.20l89.50 -8.50v-3.20l-89.50 8.50"/>
<use x="649.74" y="117.00" xlink:href="#hd"/>
<path d="M646.24 117.00v21.20" class="stroke"/>
<use x="667.54" y="105.00" xlink:href="#hd"/>
<path d="M664.04 105.00v31.50" class="stroke"/>
<use x="685.44" y="108.00" xlink:href="#hd"/>
<path d="M681.94 108.00v26.80" class="stroke"/>
<use x="703.34" y="99.00" xlink:href="#hd"/>
<path d="M699.84 99.00v34.10" class="stroke"/>
<use x="721.34" y="102.00" xlink:href="#hd"/>
<use x="712.34" y="102.00" xlink:href="#sh0"/>
<path d="M717.84 102.00v29.40" class="stroke"/>
<use x="739.14" y="96.00" xlink:href="#hl"/>
<use x="739.14" y="96.00" xlink:href="#hd"/>
<path d="M735.64 96.00v33.70" class="stroke"/>
<use x="767.14" y="99.00" xlink:href="#hd"/>
<path d="M763.64 99.00v40.00" class="stroke"/>
<use x="767.14" y="120.00" xlink:href="#hd"/>
<use x="767.14" y="114.00" xlink:href="#hd"/>
<use x="767.14" y="108.00" xlink:href="#hd"/>
<defs>
<path id="r8e" class="fill" d="m 0 0
	c-1.5 1.5 -2.4 2 -3.6 2
	2.4 -2.8 -2.8 -4 -2.8 -1.2
	c0 2.7 4.3 2.4 5.9 0.6"/>
<g id="r8">
	<path d="m3.3 -4l-3.4 9.6" class="stroke"/>
	<use x="3.4" y="-4" xlink:href="#r8e"/>
</g>
</defs>
<use x="828.24" y="114.00" xlink:href="#r8"/>
<defs>
<path id="ubclef" class="fill" d="m-200 -87
	c124 -35 222 -78 254 -236
	43 -228 -167 -246 -192 -103
	59 -80 157 22 92 78
	-62 47 -115 -22 -106 -88
	21 -141 270 -136 274 52
	-1 175 -106 264 -322 297
	m357 -250
	c0 -36 51 -34 51 0
	0 37 -51 36 -51 0
	m-2 -129
	c0 -36 51 -34 51 0
	0 38 -51 37 -51 0"/>
<use id="bclef" transform="translate(0,18) scale(0.045)"
	xlink:href="#ubclef"/>
</defs>
<use x="23.54" y="166.00" xlink:href="#bclef"/>
<g font-family="serif" font-size="16" font-weight="bold" font-style="normal"
	transform="translate(42.04,183.50) scale(1.2,1)">
	<text text-anchor="middle">8</text>
	<text y="-12" text-anchor="middle">3</text>
</g>
<use x="85.64" y="169.00" xlink:href="#hd"/>
<path d="M82.14 169.00v25.00" class="stroke"/>
<use x="85.64" y="175.00" xlink:href="#hd"/>
<use x="136.14" y="172.00" xlink:href="#r8"/>
<use x="169.84" y="169.00" xlink:href="#hd"/>
<path d="M166.34 169.00v25.00" class="stroke"/>
<use x="169.84" y="175.00" xlink:href="#hd"/>
<use x="230.94" y="172.00" xlink:href="#r8"/>
<use x="276.74" y="157.00" xlink:href="#hd"/>
<path d="M273.24 157.00v25.00" class="stroke"/>
<use x="276.74" y="163.00" xlink:href="#hd"/>
<use x="327.24" y="172.00" xlink:href="#r8"/>
<use x="361.04" y="163.00" xlink:href="#hd"/>
<path d="M357.54 163.00v25.00" class="stroke"/>
<use x="361.04" y="169.00" xlink:href="#hd"/>
<use x="432.54" y="172.00" xlink:href="#r8"/>
<path class="fill"
	d="M473.84 154.00l51.20 0.00v3.20l-51.20 -0.00"/>
<use x="470.64" y="175.00" xlink:href="#hd"/>
<path d="M474.14 175.00v-20.00" class="stroke"/>
<use x="495.94" y="175.00" xlink:href="#hd"/>
<path d="M499.44 175.00v-20.00" class="stroke"/>
<use x="521.24" y="175.00" xlink:href="#hd"/>
<path d="M524.74 175.00v-20.00" class="stroke"/>
<use x="554.94" y="178.00" xlink:href="#hd"/>
<path d="M558.44 178.00v-25.00" class="stroke"/>
<use x="554.94" y="172.00" xlink:href="#hd"/>
<use x="615.94" y="172.00" xlink:href="#r8"/>
<path class="fill"
	d="M652.84 148.60l72.30 8.40v3.20l-72.30 -8.40"/>
<use x="649.74" y="175.00" xlink:href="#hd"/>
<path d="M653.24 175.00v-25.30" class="stroke"/>
<use x="685.44" y="172.00" xlink:href="#hd"/>
<path d="M688.94 172.00v-18.20" class="stroke"/>
<use x="721.34" y="190.00" xlink:href="#hl"/>
<use x="721.34" y="193.00" xlink:href="#hd"/>
<path d="M724.84 193.00v-35.00" class="stroke"/>
<path class="fill"
	d="M763.34 203.20l79.70 0.00v-3.20l-79.70 -0.00"/>
<path class="fill"
	d="M788.94 198.20l53.70 0.00v-3.20l-53.70 -0.00"/>
<use x="767.14" y="184.00" xlink:href="#hd"/>
<path d="M763.64 184.00v18.20" class="stroke"/>
<use x="792.44" y="163.00" xlink:href="#hd"/>
<path d="M788.94 163.00v39.20" class="stroke"/>
<use x="810.44" y="166.00" xlink:href="#hd"/>
<defs>
<path id="unat" class="fill" d="
	m96 -750
	h-32
	v716
	l32 -8
	182 -54
	v282
	h32
	v-706
	l-34 10
	-180 50
	v-290
	m0 592
	v-190
	l182 -52
	v188"/>
<use id="nt0" transform="translate(-3,5) scale(0.018)"
	xlink:href="#unat"/>
</defs>
<use x="801.44" y="166.00" xlink:href="#nt0"/>
<path d="M806.94 166.00v36.20" class="stroke"/>
<use x="828.24" y="169.00" xlink:href="#hd"/>
<path d="M824.74 169.00v33.20" class="stroke"/>
<use x="846.14" y="172.00" xlink:href="#hd"/>
<path d="M842.64 172.00v30.20" class="stroke"/>
</g>
<g stroke-width="0.70" transform="scale(0.867)" font-family="Times" font-size="13.00">
<path class="stroke" stroke-width="1"
	d="M11.54 325.01v-90.00"/>
<path class="fill"
	d="M6.54 232.01
	c10.5 1 12 -4.5 12 -3.5c0 1 -3.5 5.5 -8.5 5.5
	v92.00
	c5 0 8.5 4.5 8.5 5.5c0 1 -1.5 -4.5 -12 -3.5"/>
<use x="145.04" y="259.01" xlink:href="#rdots"/>
<path class="stroke" stroke-width="1"
	d="M141.04 259.01v-24.00"/>
<path class="stroke" stroke-width="3"
	d="M136.54 259.01v-24.00"/>
<use x="145.04" y="325.01" xlink:href="#rdots"/>
<path class="stroke" stroke-width="1"
	d="M141.04 325.01v-66.00"/>
<path class="stroke" stroke-width="3"
	d="M136.54 325.01v-66.00"/>
<path class="stroke" stroke-width="1"
	d="M258.44 259.01v-24.00"/>
<path class="stroke" stroke-width="1"
	d="M258.44 325.01v-66.00"/>
<path class="stroke" stroke-width="1"
	d="M340.84 259.01v-24.00"/>
<path class="stroke" stroke-width="1"
	d="M340.84 325.01v-66.00"/>
<path class="stroke" stroke-width="1"
	d="M441.54 259.01v-24.00"/>
<path class="stroke" stroke-width="1"
	d="M441.54 325.01v-66.00"/>
<path class="stroke" stroke-width="1"
	d="M522.74 259.01v-24.00"/>
<path class="stroke" stroke-width="1"
	d="M522.74 325.01v-66.00"/>
<path class="stroke" stroke-width="1"
	d="M623.44 259.01v-24.00"/>
<path class="stroke" stroke-width="1"
	d="M623.44 325.01v-66.00"/>
<path class="stroke" stroke-width="1"
	d="M695.14 259.01v-24.00"/>
<path class="stroke" stroke-width="1"
	d="M695.14 325.01v-66.00"/>
<path class="stroke" stroke-width="1"
	d="M786.74 259.01v-24.00"/>
<path class="stroke" stroke-width="1"
	d="M786.74 325.01v-66.00"/>
<path class="stroke" stroke-width="3"
	d="M860.54 259.01v-24.00"/>
<path class="stroke" stroke-width="1"
	d="M856.04 259.01v-24.00"/>
<use x="852.04" y="259.01" xlink:href="#rdots"/>
<path class="stroke" stroke-width="3"
	d="M860.54 325.01v-66.00"/>
<path class="stroke" stroke-width="1"
	d="M856.04 325.01v-66.00"/>
<use x="852.04" y="325.01" xlink:href="#rdots"/>
<path d="m11.54 259.01
	h850.50
	M11.54 253.01
	h850.50
	M11.54 247.01
	h850.50
	M11.54 241.01
	h850.50
	M11.54 235.01
	h850.50
	" class="stroke"/>
<path d="m11.54 325.01
	h850.50
	M11.54 319.01
	h850.50
	M11.54 313.01
	h850.50
	M11.54 307.01
	h850.50
	M11.54 301.01
	h850.50
	" class="stroke"/>
<text x="47.54" y="220.41">2</text>
<path class="stroke"
	d="M43.54 209.01m0 20v-20h90.50v20"/>
<use x="23.54" y="253.01" xlink:href="#tclef"/>
<use x="56.04" y="232.01" xlink:href="#hd"/>
<path d="M52.54 232.01v40.00" class="stroke"/>
<use x="56.04" y="253.01" xlink:href="#hd"/>
<use x="56.04" y="247.01" xlink:href="#hd"/>
<use x="56.04" y="241.01" xlink:href="#hd"/>
<use x="110.34" y="247.01" xlink:href="#r8"/>
<use x="164.54" y="235.01" xlink:href="#hd"/>
<use x="155.54" y="235.01" xlink:href="#sh0"/>
<path d="M161.04 235.01v34.00" class="stroke"/>
<path class="fill"
	d="M161.04 269.01c0.6 -5.6 9.6 -9 5.6 -18.4
	1.6 6 -1.3 11.6 -5.6 12.8
"/>
<use x="164.54" y="250.01" xlink:href="#hd"/>
<use x="164.54" y="241.01" xlink:href="#hd"/>
<use x="197.64" y="235.01" xlink:href="#hd"/>
<path d="M194.14 235.01v21.00" class="stroke"/>
<use x="270.94" y="232.01" xlink:href="#hd"/>
<path d="M267.44 232.01v21.00" class="stroke"/>
<path class="fill"
	d="M267.44 253.01c0.6 -5.6 9.6 -9 5.6 -18.4
	1.6 6 -1.3 11.6 -5.6 12.8
"/>
<use x="302.84" y="241.01" xlink:href="#hd"/>
<path d="M299.34 241.01v21.00" class="stroke"/>
<path class="fill"
	d="M349.54 267.01l76.40 0.00v-3.20l-76.40 -0.00"/>
<path class="fill"
	d="M349.84 262.01l75.70 0.00v-3.20l-75.70 -0.00"/>
<use x="353.34" y="238.01" xlink:href="#hd"/>
<path d="M349.84 238.01v27.90" class="stroke"/>
<use x="368.54" y="232.01" xlink:href="#hd"/>
<path d="M365.04 232.01v33.90" class="stroke"/>
<use x="383.64" y="229.01" xlink:href="#hl"/>
<use x="383.64" y="223.01" xlink:href="#hl"/>
<use x="383.64" y="223.01" xlink:href="#hd"/>
<path d="M380.14 223.01v42.90" class="stroke"/>
<use x="398.74" y="232.01" xlink:href="#hd"/>
<path d="M395.24 232.01v33.90" class="stroke"/>
<use x="413.94" y="238.01" xlink:href="#hd"/>
<path d="M410.44 238.01v27.90" class="stroke"/>
<use x="429.04" y="244.01" xlink:href="#hd"/>
<path d="M425.54 244.01v21.90" class="stroke"/>
<path class="fill"
	d="M450.24 274.71l52.10 -4.30v-3.20l-52.10 4.30"/>
<path class="fill"
	d="M450.54 269.71l15.10 -1.30v-3.20l-15.10 1.30"/>
<use x="454.04" y="241.01" xlink:href="#hd"/>
<path d="M450.54 241.01v32.70" class="stroke"/>
<use x="469.24" y="247.01" xlink:href="#hd"/>
<path d="M465.74 247.01v25.50" class="stroke"/>
<use x="484.34" y="253.01" xlink:href="#hd"/>
<path d="M480.84 253.01v18.20" class="stroke"/>
<use x="505.54" y="232.01" xlink:href="#hd"/>
<path d="M502.04 232.01v37.50" class="stroke"/>
<path class="fill"
	d="M531.34 264.51l76.40 -6.30v-3.20l-76.40 6.30"/>
<path class="fill"
	d="M531.74 259.41l75.70 -6.20v-3.20l-75.70 6.20"/>
<use x="535.24" y="238.01" xlink:href="#hd"/>
<path d="M531.74 238.01v25.40" class="stroke"/>
<use x="550.34" y="241.01" xlink:href="#hd"/>
<path d="M546.84 241.01v21.20" class="stroke"/>
<use x="565.54" y="238.01" xlink:href="#hd"/>
<path d="M562.04 238.01v23.00" class="stroke"/>
<use x="580.64" y="232.01" xlink:href="#hd"/>
<path d="M577.14 232.01v27.70" class="stroke"/>
<use x="595.84" y="229.01" xlink:href="#hl"/>
<use x="595.84" y="223.01" xlink:href="#hl"/>
<use x="595.84" y="223.01" xlink:href="#hd"/>
<path d="M592.34 223.01v35.50" class="stroke"/>
<use x="610.94" y="232.01" xlink:href="#hd"/>
<path d="M607.44 232.01v25.20" class="stroke"/>
<path class="fill"
	d="M639.14 225.01l43.00 0.00v3.20l-43.00 -0.00"/>
<use x="635.94" y="259.01" xlink:href="#hd"/>
<path d="M639.44 259.01v-33.00" class="stroke"/>
<use x="635.94" y="244.01" xlink:href="#hd"/>
<use x="657.14" y="259.01" xlink:href="#hd"/>
<path d="M660.64 259.01v-33.00" class="stroke"/>
<use x="657.14" y="244.01" xlink:href="#hd"/>
<use x="678.24" y="259.01" xlink:href="#hd"/>
<path d="M681.74 259.01v-33.00" class="stroke"/>
<use x="678.24" y="244.01" xlink:href="#hd"/>
<path class="fill"
	d="M703.74 269.21l67.30 -8.10v-3.20l-67.30 8.10"/>
<path class="fill"
	d="M725.24 261.61l45.40 -5.50v-3.20l-45.40 5.50"/>
<use x="707.64" y="250.01" xlink:href="#hd"/>
<path d="M704.14 250.01v18.20" class="stroke"/>
<use x="728.74" y="235.01" xlink:href="#hd"/>
<path d="M725.24 235.01v30.60" class="stroke"/>
<use x="743.94" y="241.01" xlink:href="#hd"/>
<path d="M740.44 241.01v22.80" class="stroke"/>
<use x="759.04" y="229.01" xlink:href="#hl"/>
<use x="759.04" y="229.01" xlink:href="#hd"/>
<path d="M755.54 229.01v33.00" class="stroke"/>
<use x="774.24" y="232.01" xlink:href="#hd"/>
<path d="M770.74 232.01v28.20" class="stroke"/>
<use x="799.24" y="244.01" xlink:href="#hd"/>
<path d="M795.74 244.01v21.00" class="stroke"/>
<use x="841.54" y="247.01" xlink:href="#r8"/>
<use x="23.54" y="307.01" xlink:href="#bclef"/>
<path class="fill"
	d="M52.24 344.21l70.10 -5.10v-3.20l-70.10 5.10"/>
<path class="fill"
	d="M73.74 337.71l48.30 -3.50v-3.20l-48.30 3.50"/>
<use x="56.04" y="325.01" xlink:href="#hd"/>
<path d="M52.54 325.01v18.20" class="stroke"/>
<use x="77.24" y="298.01" xlink:href="#hd"/>
<path d="M73.74 298.01v43.70" class="stroke"/>
<use x="92.34" y="304.01" xlink:href="#hd"/>
<path d="M88.84 304.01v36.60" class="stroke"/>
<use x="110.34" y="307.01" xlink:href="#hd"/>
<use x="101.34" y="307.01" xlink:href="#sh0"/>
<path d="M106.84 307.01v32.30" class="stroke"/>
<use x="125.54" y="310.01" xlink:href="#hd"/>
<path d="M122.04 310.01v28.20" class="stroke"/>
<path class="fill"
	d="M167.64 292.11l82.10 -6.90v3.20l-82.10 6.90"/>
<path class="fill"
	d="M168.04 297.11l81.40 -6.90v3.20l-81.40 6.90"/>
<use x="164.54" y="331.01" xlink:href="#hl"/>
<use x="164.54" y="334.01" xlink:href="#hd"/>
<path d="M168.04 334.01v-40.90" class="stroke"/>
<use x="179.64" y="313.01" xlink:href="#hd"/>
<path d="M183.14 313.01v-21.20" class="stroke"/>
<use x="197.64" y="316.01" xlink:href="#hd"/>
<use x="188.64" y="316.01" xlink:href="#sh0"/>
<path d="M201.14 316.01v-25.70" class="stroke"/>
<use x="212.74" y="313.01" xlink:href="#hd"/>
<path d="M216.24 313.01v-24.00" class="stroke"/>
<use x="230.74" y="316.01" xlink:href="#hd"/>
<use x="221.74" y="316.01" xlink:href="#sh0"/>
<path d="M234.24 316.01v-28.50" class="stroke"/>
<use x="245.94" y="313.01" xlink:href="#hd"/>
<path d="M249.44 313.01v-26.80" class="stroke"/>
<path class="fill"
	d="M267.14 347.31l53.70 -10.70v-3.20l-53.70 10.70"/>
<path class="fill"
	d="M267.44 342.21l15.10 -3.00v-3.20l-15.10 3.00"/>
<use x="270.94" y="325.01" xlink:href="#hd"/>
<path d="M267.44 325.01v21.20" class="stroke"/>
<use x="286.04" y="319.01" xlink:href="#hd"/>
<path d="M282.54 319.01v24.20" class="stroke"/>
<use x="302.84" y="304.01" xlink:href="#hd"/>
<path d="M299.34 304.01v35.90" class="stroke"/>
<use x="324.04" y="298.01" xlink:href="#hd"/>
<path d="M320.54 298.01v37.70" class="stroke"/>
<use x="353.34" y="304.01" xlink:href="#hd"/>
<path d="M349.84 304.01v31.00" class="stroke"/>
<use x="353.34" y="316.01" xlink:href="#hd"/>
<use x="413.94" y="304.01" xlink:href="#hd"/>
<path d="M410.44 304.01v31.00" class="stroke"/>
<path class="fill"
	d="M410.44 335.01c0.6 -5.6 9.6 -9 5.6 -18.4
	1.6 6 -1.3 11.6 -5.6 12.8
"/>
<use x="413.94" y="316.01" xlink:href="#hd"/>
<use x="454.04" y="304.01" xlink:href="#hd"/>
<path d="M457.54 304.01v-21.00" class="stroke"/>
<use x="505.54" y="319.01" xlink:href="#hd"/>
<path d="M509.04 319.01v-25.00" class="stroke"/>
<path class="fill"
	d="M509.04 294.01c0.6 5.6 9.6 9 5.6 18.4
	1.6 -6 -1.3 -11.6 -5.6 -12.8
"/>
<use x="505.54" y="313.01" xlink:href="#hd"/>
<use x="535.24" y="304.01" xlink:href="#hd"/>
<path d="M538.74 304.01v-21.00" class="stroke"/>
<use x="595.84" y="310.01" xlink:href="#hd"/>
<path d="M599.34 310.01v-21.00" class="stroke"/>
<path class="fill"
	d="M599.34 289.01c0.6 5.6 9.6 9 5.6 18.4
	1.6 -6 -1.3 -11.6 -5.6 -12.8
"/>
<path class="fill"
	d="M639.14 295.01l43.00 0.00v3.20l-43.00 -0.00"/>
<use x="635.94" y="316.01" xlink:href="#hd"/>
<path d="M639.44 316.01v-20.00" class="stroke"/>
<use x="657.14" y="316.01" xlink:href="#hd"/>
<path d="M660.64 316.01v-20.00" class="stroke"/>
<use x="678.24" y="316.01" xlink:href="#hd"/>
<path d="M681.74 316.01v-20.00" class="stroke"/>
<use x="707.64" y="307.01" xlink:href="#hd"/>
<path d="M704.14 307.01v21.00" class="stroke"/>
<use x="759.04" y="304.01" xlink:href="#hd"/>
<path d="M755.54 304.01v21.00" class="stroke"/>
<path class="fill"
	d="M755.54 325.01c0.6 -5.6 9.6 -9 5.6 -18.4
	1.6 6 -1.3 11.6 -5.6 12.8
"/>
<path class="fill"
	d="M802.34 296.71l43.00 9.90v3.20l-43.00 -9.90"/>
<use x="799.24" y="316.01" xlink:href="#hd"/>
<path d="M802.74 316.01v-18.20" class="stroke"/>
<use x="820.34" y="325.01" xlink:href="#hd"/>
<path d="M823.84 325.01v-22.30" class="stroke"/>
<use x="841.54" y="331.01" xlink:href="#hl"/>
<use x="841.54" y="337.01" xlink:href="#hl"/>
<use x="841.54" y="337.01" xlink:href="#hd"/>
<path d="M845.04 337.01v-29.50" class="stroke"/>
<use x="454.04" y="319.01" xlink:href="#hd"/>
<path d="M450.54 319.01v21.00" class="stroke"/>
<use x="535.24" y="316.01" xlink:href="#hd"/>
<path d="M531.74 316.01v21.00" class="stroke"/>
<use x="595.84" y="316.01" xlink:href="#hd"/>
<path d="M592.34 316.01v21.00" class="stroke"/>
<path class="fill"
	d="M592.34 337.01c0.6 -5.6 9.6 -9 5.6 -18.4
	1.6 6 -1.3 11.6 -5.6 12.8
"/>
<defs>
<text id="trl" font-family="serif" font-size="16" font-style="italic"
	x="-2" y="-4">tr</text>
</defs>
<use x="197.64" y="229.01" xlink:href="#trl"/>
<use x="302.84" y="233.01" xlink:href="#trl"/>
</g>
</svg>
