<?xml version="1.0" standalone="no"?>
<!DOCTYPE svg PUBLIC "-//W3C//DTD SVG 1.1//EN"
	"http://www.w3.org/Graphics/SVG/1.1/DTD/svg11.dtd">
<svg xmlns="http://www.w3.org/2000/svg" version="1.1"
	xmlns:xlink="http://www.w3.org/1999/xlink"
	color="black"
	width="757.10px" height="298.14px">
<style type="text/css">
.fill {fill: currentColor}
.stroke {stroke: currentColor; fill: none}
text{white-space: pre}
</style>
<title>./K516f-4-3-7-8-5-12-10-11-10-8-8-4-8-12-5-9.abc (1367) tune 1</title>
<!-- Creator: abcm2ps-8.13.8 -->
<!-- CreationDate: Sep  7, 2017 11:18 -->
<!-- CommandLine: ./K516f-4-3-7-8-5-12-10-11-10-8-8-4-8-12-5-9.abc -O ./K516f-4-3-7-8-5-12-10-11-10-8-8-4-8-12-5-9.svg -g -->
<rect width="100%" height="100%" fill="white"/>
<g stroke-width="0.70" transform="scale(0.867)">
<!-- title: 4-3-7-8-5-12-10-11-10-8-8-4-8-12-5-9 -->
</g>
<g stroke-width="0.70" transform="scale(0.867)" font-family="Times" font-size="20.00">
<text x="436.84" y="22.00" text-anchor="middle">4-3-7-8-5-12-10-11-10-8-8-4-8-12-5-9</text>
</g>
<g stroke-width="0.70" transform="scale(0.867)" font-family="Times" font-size="20.00">
<!-- subtitle: $1K.516f::69:06:27:53:161:37:62:33:65:155:57:132:43:124:52:111::$0 -->
</g>
<g stroke-width="0.70" transform="scale(0.867)" font-family="Courier" font-size="8.00" font-weight="bold">
<text x="436.84" y="41.80" text-anchor="middle">K.516f::69:06:27:53:161:37:62:33:65:155:57:132:43:124:52:111::</text>
</g>
<g stroke-width="0.70" transform="scale(0.867)" font-family="Courier" font-size="8.00" font-weight="bold">
<!-- subtitle: $1Perm. No.: 136731770644197$0 -->
<text x="436.84" y="60.80" text-anchor="middle">Perm. No.: 136731770644197</text>
</g>
<g stroke-width="0.70" transform="scale(0.607)" font-family="Courier" font-size="8.00" font-weight="bold">
<defs>
<ellipse id="hd" rx="4.1" ry="2.9"
	transform="rotate(-20)" class="fill"/>
</defs>
<use x="103.06" y="121.29" xlink:href="#hd"/>
<path d="M106.56 121.29v-21.00" class="stroke"/>
<path class="fill"
	d="M106.56 100.29c0.6 5.6 9.6 9 5.6 18.4
	1.6 -6 -1.3 -11.6 -5.6 -12.8
"/>
</g>
<g stroke-width="0.70" transform="scale(0.867)" font-family="Times" font-size="15.00" font-weight="bold">
<text x="81.24" y="87.00">= 111</text>
<path class="stroke" stroke-width="1"
	d="M11.54 184.00v-82.00"/>
<path class="fill"
	d="M6.54 99.00
	c10.5 1 12 -4.5 12 -3.5c0 1 -3.5 5.5 -8.5 5.5
	v84.00
	c5 0 8.5 4.5 8.5 5.5c0 1 -1.5 -4.5 -12 -3.5"/>
<defs>
<g id="rdots" class="fill">
	<circle cx="0" cy="-9" r="1.2"/>
	<circle cx="0" cy="-15" r="1.2"/>
</g>
</defs>
<use x="70.54" y="126.00" xlink:href="#rdots"/>
<path class="stroke" stroke-width="1"
	d="M66.54 126.00v-24.00"/>
<path class="stroke" stroke-width="3"
	d="M62.04 126.00v-24.00"/>
<use x="70.54" y="184.00" xlink:href="#rdots"/>
<path class="stroke" stroke-width="1"
	d="M66.54 184.00v-58.00"/>
<path class="stroke" stroke-width="3"
	d="M62.04 184.00v-58.00"/>
<path class="stroke" stroke-width="1"
	d="M154.64 126.00v-24.00"/>
<path class="stroke" stroke-width="1"
	d="M154.64 184.00v-58.00"/>
<path class="stroke" stroke-width="1"
	d="M237.64 126.00v-24.00"/>
<path class="stroke" stroke-width="1"
	d="M237.64 184.00v-58.00"/>
<path class="stroke" stroke-width="1"
	d="M353.34 126.00v-24.00"/>
<path class="stroke" stroke-width="1"
	d="M353.34 184.00v-58.00"/>
<path class="stroke" stroke-width="1"
	d="M446.74 126.00v-24.00"/>
<path class="stroke" stroke-width="1"
	d="M446.74 184.00v-58.00"/>
<path class="stroke" stroke-width="1"
	d="M534.54 126.00v-24.00"/>
<path class="stroke" stroke-width="1"
	d="M534.54 184.00v-58.00"/>
<path class="stroke" stroke-width="1"
	d="M638.34 126.00v-24.00"/>
<path class="stroke" stroke-width="1"
	d="M638.34 184.00v-58.00"/>
<path class="stroke" stroke-width="1"
	d="M754.34 126.00v-24.00"/>
<path class="stroke" stroke-width="1"
	d="M754.34 184.00v-58.00"/>
<path class="stroke" stroke-width="3"
	d="M860.54 126.00v-24.00"/>
<path class="stroke" stroke-width="1"
	d="M856.04 126.00v-24.00"/>
<use x="852.04" y="126.00" xlink:href="#rdots"/>
<path class="stroke" stroke-width="3"
	d="M860.54 184.00v-58.00"/>
<path class="stroke" stroke-width="1"
	d="M856.04 184.00v-58.00"/>
<use x="852.04" y="184.00" xlink:href="#rdots"/>
<path d="m11.54 126.00
	h850.50
	M11.54 120.00
	h850.50
	M11.54 114.00
	h850.50
	M11.54 108.00
	h850.50
	M11.54 102.00
	h850.50
	" class="stroke"/>
<path d="m11.54 184.00
	h850.50
	M11.54 178.00
	h850.50
	M11.54 172.00
	h850.50
	M11.54 166.00
	h850.50
	M11.54 160.00
	h850.50
	" class="stroke"/>
<path class="fill"
	d="M89.44 95.40c7.09 -3.04 38.70 2.20 45.79 7.60
	v-0.25c-8.47 -7.15 -37.32 -12.40 -45.79 -7.35"/>
</g>
<g stroke-width="0.70" transform="scale(0.867)" font-family="Times" font-size="13.00">
<text x="758.34" y="87.40">1</text>
<path class="stroke"
	d="M754.34 76.00m0 20v-20h99.70v20"/>
<defs>
<path id="utclef" class="fill" d="m-50 -90
	c-72 -41 -72 -158 52 -188
	150 -10 220 188 90 256
	-114 52 -275 0 -293 -136
	-15 -181 93 -229 220 -334
	88 -87 79 -133 62 -210
	-51 33 -94 105 -89 186
	17 267 36 374 49 574
	6 96 -19 134 -77 135
	-80 1 -126 -93 -61 -133
	85 -41 133 101 31 105
	23 17 92 37 90 -92
	-10 -223 -39 -342 -50 -617
	0 -90 0 -162 96 -232
	56 72 63 230 22 289
	-74 106 -257 168 -255 316
	9 153 148 185 252 133
	86 -65 29 -192 -80 -176
	-71 12 -105 67 -59 124"/>
<use id="tclef" transform="translate(0,6) scale(0.045)"
	xlink:href="#utclef"/>
</defs>
<use x="23.54" y="120.00" xlink:href="#tclef"/>
<g font-family="serif" font-size="16" font-weight="bold" font-style="normal"
	transform="translate(42.04,125.50) scale(1.2,1)">
	<text text-anchor="middle">8</text>
	<text y="-12" text-anchor="middle">3</text>
</g>
<path class="fill"
	d="M81.54 122.10l50.50 8.20v-3.20l-50.50 -8.20"/>
<use x="85.44" y="99.00" xlink:href="#hd"/>
<path d="M81.94 99.00v22.10" class="stroke"/>
<use x="110.34" y="105.00" xlink:href="#hd"/>
<path d="M106.84 105.00v20.20" class="stroke"/>
<use x="135.24" y="111.00" xlink:href="#hd"/>
<path d="M131.74 111.00v18.20" class="stroke"/>
<path class="fill"
	d="M164.64 139.30l50.50 -6.70v-3.20l-50.50 6.70"/>
<use x="168.54" y="120.00" xlink:href="#hd"/>
<path d="M165.04 120.00v18.20" class="stroke"/>
<use x="193.34" y="111.00" xlink:href="#hd"/>
<path d="M189.84 111.00v23.90" class="stroke"/>
<use x="218.24" y="105.00" xlink:href="#hd"/>
<path d="M214.74 105.00v26.60" class="stroke"/>
<path class="fill"
	d="M247.74 130.00l88.70 6.20v-3.20l-88.70 -6.20"/>
<path class="fill"
	d="M248.04 125.00l88.10 6.20v-3.20l-88.10 -6.20"/>
<use x="251.54" y="102.00" xlink:href="#hd"/>
<path d="M248.04 102.00v27.00" class="stroke"/>
<use x="269.14" y="105.00" xlink:href="#hd"/>
<path d="M265.64 105.00v25.20" class="stroke"/>
<use x="286.74" y="102.00" xlink:href="#hd"/>
<path d="M283.24 102.00v29.50" class="stroke"/>
<use x="304.44" y="108.00" xlink:href="#hd"/>
<path d="M300.94 108.00v24.70" class="stroke"/>
<use x="322.04" y="111.00" xlink:href="#hd"/>
<path d="M318.54 111.00v23.00" class="stroke"/>
<use x="339.64" y="114.00" xlink:href="#hd"/>
<path d="M336.14 114.00v21.20" class="stroke"/>
<path class="fill"
	d="M363.44 128.00l60.80 0.00v-3.20l-60.80 -0.00"/>
<path class="fill"
	d="M388.64 123.00l17.60 0.00v-3.20l-17.60 -0.00"/>
<use x="367.24" y="105.00" xlink:href="#hd"/>
<path d="M363.74 105.00v22.00" class="stroke"/>
<use x="367.24" y="111.00" xlink:href="#hd"/>
<use x="392.14" y="105.00" xlink:href="#hd"/>
<path d="M388.64 105.00v22.00" class="stroke"/>
<use x="392.14" y="111.00" xlink:href="#hd"/>
<use x="409.74" y="102.00" xlink:href="#hd"/>
<path d="M406.24 102.00v25.00" class="stroke"/>
<use x="409.74" y="108.00" xlink:href="#hd"/>
<use x="427.34" y="99.00" xlink:href="#hd"/>
<path d="M423.84 99.00v28.00" class="stroke"/>
<use x="427.34" y="105.00" xlink:href="#hd"/>
<path class="fill"
	d="M468.44 89.00l50.60 0.00v3.20l-50.60 -0.00"/>
<use x="465.24" y="123.00" xlink:href="#hd"/>
<defs>
<path id="usharp" class="fill" d="
	m136 -702
	v890
	h32
	v-890
	m128 840
	h32
	v-888
	h-32
	m-232 286
	v116
	l338 -96
	v-116
	m-338 442
	v116
	l338 -98
	v-114"/>
<use id="sh0" transform="translate(-4,5) scale(0.018)"
	xlink:href="#usharp"/>
</defs>
<use x="456.24" y="123.00" xlink:href="#sh0"/>
<path d="M468.74 123.00v-33.00" class="stroke"/>
<use x="465.24" y="108.00" xlink:href="#hd"/>
<use x="490.24" y="123.00" xlink:href="#hd"/>
<use x="481.24" y="123.00" xlink:href="#sh0"/>
<path d="M493.74 123.00v-33.00" class="stroke"/>
<use x="490.24" y="108.00" xlink:href="#hd"/>
<use x="515.14" y="123.00" xlink:href="#hd"/>
<use x="506.14" y="123.00" xlink:href="#sh0"/>
<path d="M518.64 123.00v-33.00" class="stroke"/>
<use x="515.14" y="108.00" xlink:href="#hd"/>
<path class="fill"
	d="M544.64 124.90l71.10 8.30v-3.20l-71.10 -8.30"/>
<path class="fill"
	d="M544.94 119.90l52.80 6.20v-3.20l-52.80 -6.20"/>
<use x="548.44" y="99.00" xlink:href="#hd"/>
<path d="M544.94 99.00v24.90" class="stroke"/>
<defs>
<path id="hl" class="stroke" d="m-6 0h12"/>
</defs>
<use x="566.04" y="96.00" xlink:href="#hl"/>
<use x="566.04" y="93.00" xlink:href="#hd"/>
<path d="M562.54 93.00v33.00" class="stroke"/>
<use x="583.64" y="99.00" xlink:href="#hd"/>
<path d="M580.14 99.00v29.10" class="stroke"/>
<use x="601.24" y="108.00" xlink:href="#hd"/>
<path d="M597.74 108.00v22.10" class="stroke"/>
<use x="618.94" y="114.00" xlink:href="#hd"/>
<path d="M615.44 114.00v18.20" class="stroke"/>
<path class="fill"
	d="M655.34 82.80l89.10 8.10v3.20l-89.10 -8.10"/>
<path class="fill"
	d="M655.64 87.80l88.40 8.00v3.20l-88.40 -8.00"/>
<use x="652.14" y="105.00" xlink:href="#hd"/>
<path d="M655.64 105.00v-21.20" class="stroke"/>
<use x="669.84" y="111.00" xlink:href="#hd"/>
<path d="M673.34 111.00v-25.60" class="stroke"/>
<use x="687.44" y="114.00" xlink:href="#hd"/>
<path d="M690.94 114.00v-27.00" class="stroke"/>
<use x="705.04" y="120.00" xlink:href="#hd"/>
<path d="M708.54 120.00v-31.40" class="stroke"/>
<use x="722.64" y="117.00" xlink:href="#hd"/>
<path d="M726.14 117.00v-26.80" class="stroke"/>
<use x="740.64" y="123.00" xlink:href="#hd"/>
<use x="731.64" y="123.00" xlink:href="#sh0"/>
<path d="M744.14 123.00v-31.20" class="stroke"/>
<use x="768.24" y="99.00" xlink:href="#hd"/>
<path d="M764.74 99.00v40.00" class="stroke"/>
<use x="768.24" y="120.00" xlink:href="#hd"/>
<use x="768.24" y="114.00" xlink:href="#hd"/>
<use x="768.24" y="108.00" xlink:href="#hd"/>
<defs>
<path id="r8e" class="fill" d="m 0 0
	c-1.5 1.5 -2.4 2 -3.6 2
	2.4 -2.8 -2.8 -4 -2.8 -1.2
	c0 2.7 4.3 2.4 5.9 0.6"/>
<g id="r8">
	<path d="m3.3 -4l-3.4 9.6" class="stroke"/>
	<use x="3.4" y="-4" xlink:href="#r8e"/>
</g>
</defs>
<use x="828.74" y="114.00" xlink:href="#r8"/>
<defs>
<path id="ubclef" class="fill" d="m-200 -87
	c124 -35 222 -78 254 -236
	43 -228 -167 -246 -192 -103
	59 -80 157 22 92 78
	-62 47 -115 -22 -106 -88
	21 -141 270 -136 274 52
	-1 175 -106 264 -322 297
	m357 -250
	c0 -36 51 -34 51 0
	0 37 -51 36 -51 0
	m-2 -129
	c0 -36 51 -34 51 0
	0 38 -51 37 -51 0"/>
<use id="bclef" transform="translate(0,18) scale(0.045)"
	xlink:href="#ubclef"/>
</defs>
<use x="23.54" y="166.00" xlink:href="#bclef"/>
<g font-family="serif" font-size="16" font-weight="bold" font-style="normal"
	transform="translate(42.04,183.50) scale(1.2,1)">
	<text text-anchor="middle">8</text>
	<text y="-12" text-anchor="middle">3</text>
</g>
<use x="85.44" y="169.00" xlink:href="#hd"/>
<path d="M81.94 169.00v25.00" class="stroke"/>
<use x="85.44" y="175.00" xlink:href="#hd"/>
<use x="135.24" y="172.00" xlink:href="#r8"/>
<use x="168.54" y="169.00" xlink:href="#hd"/>
<path d="M165.04 169.00v25.00" class="stroke"/>
<use x="168.54" y="175.00" xlink:href="#hd"/>
<use x="218.24" y="172.00" xlink:href="#r8"/>
<use x="251.54" y="157.00" xlink:href="#hd"/>
<path d="M248.04 157.00v25.00" class="stroke"/>
<use x="251.54" y="163.00" xlink:href="#hd"/>
<use x="322.04" y="172.00" xlink:href="#r8"/>
<use x="367.24" y="175.00" xlink:href="#hd"/>
<path d="M370.74 175.00v-21.00" class="stroke"/>
<use x="427.34" y="172.00" xlink:href="#r8"/>
<path class="fill"
	d="M468.44 154.00l50.60 0.00v3.20l-50.60 -0.00"/>
<use x="465.24" y="175.00" xlink:href="#hd"/>
<path d="M468.74 175.00v-20.00" class="stroke"/>
<use x="490.24" y="175.00" xlink:href="#hd"/>
<path d="M493.74 175.00v-20.00" class="stroke"/>
<use x="515.14" y="175.00" xlink:href="#hd"/>
<path d="M518.64 175.00v-20.00" class="stroke"/>
<use x="548.44" y="178.00" xlink:href="#hd"/>
<path d="M551.94 178.00v-25.00" class="stroke"/>
<use x="548.44" y="172.00" xlink:href="#hd"/>
<use x="618.94" y="172.00" xlink:href="#r8"/>
<path class="fill"
	d="M655.34 148.60l71.10 8.30v3.20l-71.10 -8.30"/>
<use x="652.14" y="175.00" xlink:href="#hd"/>
<path d="M655.64 175.00v-25.30" class="stroke"/>
<use x="687.44" y="172.00" xlink:href="#hd"/>
<path d="M690.94 172.00v-18.20" class="stroke"/>
<use x="722.64" y="190.00" xlink:href="#hl"/>
<use x="722.64" y="193.00" xlink:href="#hd"/>
<path d="M726.14 193.00v-35.10" class="stroke"/>
<path class="fill"
	d="M764.44 203.20l78.80 0.00v-3.20l-78.80 -0.00"/>
<path class="fill"
	d="M789.64 198.20l53.20 0.00v-3.20l-53.20 -0.00"/>
<use x="768.24" y="184.00" xlink:href="#hd"/>
<path d="M764.74 184.00v18.20" class="stroke"/>
<use x="793.14" y="163.00" xlink:href="#hd"/>
<path d="M789.64 163.00v39.20" class="stroke"/>
<use x="811.14" y="166.00" xlink:href="#hd"/>
<defs>
<path id="unat" class="fill" d="
	m96 -750
	h-32
	v716
	l32 -8
	182 -54
	v282
	h32
	v-706
	l-34 10
	-180 50
	v-290
	m0 592
	v-190
	l182 -52
	v188"/>
<use id="nt0" transform="translate(-3,5) scale(0.018)"
	xlink:href="#unat"/>
</defs>
<use x="802.14" y="166.00" xlink:href="#nt0"/>
<path d="M807.64 166.00v36.20" class="stroke"/>
<use x="828.74" y="169.00" xlink:href="#hd"/>
<path d="M825.24 169.00v33.20" class="stroke"/>
<use x="846.34" y="172.00" xlink:href="#hd"/>
<path d="M842.84 172.00v30.20" class="stroke"/>
</g>
<g stroke-width="0.70" transform="scale(0.867)" font-family="Times" font-size="13.00">
<path class="stroke" stroke-width="1"
	d="M11.54 321.01v-86.00"/>
<path class="fill"
	d="M6.54 232.01
	c10.5 1 12 -4.5 12 -3.5c0 1 -3.5 5.5 -8.5 5.5
	v88.00
	c5 0 8.5 4.5 8.5 5.5c0 1 -1.5 -4.5 -12 -3.5"/>
<use x="145.34" y="259.01" xlink:href="#rdots"/>
<path class="stroke" stroke-width="1"
	d="M141.34 259.01v-24.00"/>
<path class="stroke" stroke-width="3"
	d="M136.84 259.01v-24.00"/>
<use x="145.34" y="321.01" xlink:href="#rdots"/>
<path class="stroke" stroke-width="1"
	d="M141.34 321.01v-62.00"/>
<path class="stroke" stroke-width="3"
	d="M136.84 321.01v-62.00"/>
<path class="stroke" stroke-width="1"
	d="M234.24 259.01v-24.00"/>
<path class="stroke" stroke-width="1"
	d="M234.24 321.01v-62.00"/>
<path class="stroke" stroke-width="1"
	d="M335.54 259.01v-24.00"/>
<path class="stroke" stroke-width="1"
	d="M335.54 321.01v-62.00"/>
<path class="stroke" stroke-width="1"
	d="M436.84 259.01v-24.00"/>
<path class="stroke" stroke-width="1"
	d="M436.84 321.01v-62.00"/>
<path class="stroke" stroke-width="1"
	d="M518.14 259.01v-24.00"/>
<path class="stroke" stroke-width="1"
	d="M518.14 321.01v-62.00"/>
<path class="stroke" stroke-width="1"
	d="M610.24 259.01v-24.00"/>
<path class="stroke" stroke-width="1"
	d="M610.24 321.01v-62.00"/>
<path class="stroke" stroke-width="1"
	d="M682.34 259.01v-24.00"/>
<path class="stroke" stroke-width="1"
	d="M682.34 321.01v-62.00"/>
<path class="stroke" stroke-width="1"
	d="M786.34 259.01v-24.00"/>
<path class="stroke" stroke-width="1"
	d="M786.34 321.01v-62.00"/>
<path class="stroke" stroke-width="3"
	d="M860.54 259.01v-24.00"/>
<path class="stroke" stroke-width="1"
	d="M856.04 259.01v-24.00"/>
<use x="852.04" y="259.01" xlink:href="#rdots"/>
<path class="stroke" stroke-width="3"
	d="M860.54 321.01v-62.00"/>
<path class="stroke" stroke-width="1"
	d="M856.04 321.01v-62.00"/>
<use x="852.04" y="321.01" xlink:href="#rdots"/>
<path d="m11.54 259.01
	h850.50
	M11.54 253.01
	h850.50
	M11.54 247.01
	h850.50
	M11.54 241.01
	h850.50
	M11.54 235.01
	h850.50
	" class="stroke"/>
<path d="m11.54 321.01
	h850.50
	M11.54 315.01
	h850.50
	M11.54 309.01
	h850.50
	M11.54 303.01
	h850.50
	M11.54 297.01
	h850.50
	" class="stroke"/>
<path class="fill"
	d="M694.84 235.01c2.76 -3.95 14.74 -4.43 17.50 -0.70
	v-0.22c-3.28 -5.51 -14.22 -5.03 -17.50 0.92"/>
<text x="47.54" y="220.41">2</text>
<path class="stroke"
	d="M43.54 209.01m0 20v-20h90.80v20"/>
<use x="23.54" y="253.01" xlink:href="#tclef"/>
<use x="56.04" y="232.01" xlink:href="#hd"/>
<path d="M52.54 232.01v40.00" class="stroke"/>
<use x="56.04" y="253.01" xlink:href="#hd"/>
<use x="56.04" y="247.01" xlink:href="#hd"/>
<use x="56.04" y="241.01" xlink:href="#hd"/>
<use x="110.64" y="247.01" xlink:href="#r8"/>
<path class="fill"
	d="M161.04 273.61l53.10 -4.60v-3.20l-53.10 4.60"/>
<path class="fill"
	d="M161.34 268.51l15.30 -1.30v-3.20l-15.30 1.30"/>
<use x="164.84" y="241.01" xlink:href="#hd"/>
<path d="M161.34 241.01v31.50" class="stroke"/>
<use x="180.14" y="250.01" xlink:href="#hd"/>
<path d="M176.64 250.01v21.20" class="stroke"/>
<use x="195.44" y="241.01" xlink:href="#hd"/>
<path d="M191.94 241.01v28.90" class="stroke"/>
<use x="217.34" y="235.01" xlink:href="#hd"/>
<use x="208.34" y="235.01" xlink:href="#sh0"/>
<path d="M213.84 235.01v33.00" class="stroke"/>
<path class="fill"
	d="M242.94 264.31l76.90 11.00v-3.20l-76.90 -11.00"/>
<path class="fill"
	d="M243.24 259.31l76.30 10.90v-3.20l-76.30 -10.90"/>
<use x="246.74" y="232.01" xlink:href="#hd"/>
<path d="M243.24 232.01v31.30" class="stroke"/>
<use x="262.04" y="229.01" xlink:href="#hl"/>
<use x="262.04" y="226.01" xlink:href="#hd"/>
<path d="M258.54 226.01v39.50" class="stroke"/>
<use x="277.24" y="232.01" xlink:href="#hd"/>
<path d="M273.74 232.01v35.70" class="stroke"/>
<use x="292.54" y="241.01" xlink:href="#hd"/>
<path d="M289.04 241.01v28.90" class="stroke"/>
<use x="307.74" y="247.01" xlink:href="#hd"/>
<path d="M304.24 247.01v25.00" class="stroke"/>
<use x="323.04" y="253.01" xlink:href="#hd"/>
<path d="M319.54 253.01v21.20" class="stroke"/>
<path class="fill"
	d="M344.24 265.21l61.70 7.00v-3.20l-61.70 -7.00"/>
<use x="348.04" y="238.01" xlink:href="#hd"/>
<path d="M344.54 238.01v26.30" class="stroke"/>
<use x="378.54" y="244.01" xlink:href="#hd"/>
<path d="M375.04 244.01v23.70" class="stroke"/>
<use x="409.04" y="253.01" xlink:href="#hd"/>
<path d="M405.54 253.01v18.20" class="stroke"/>
<path class="fill"
	d="M452.44 220.21l52.50 6.20v3.20l-52.50 -6.20"/>
<path class="fill"
	d="M474.14 227.81l15.30 1.80v3.20l-15.30 -1.80"/>
<use x="449.34" y="244.01" xlink:href="#hd"/>
<path d="M452.84 244.01v-22.70" class="stroke"/>
<use x="449.34" y="238.01" xlink:href="#hd"/>
<use x="470.64" y="253.01" xlink:href="#hd"/>
<path d="M474.14 253.01v-29.20" class="stroke"/>
<use x="470.64" y="241.01" xlink:href="#hd"/>
<use x="485.94" y="253.01" xlink:href="#hd"/>
<path d="M489.44 253.01v-27.40" class="stroke"/>
<use x="485.94" y="247.01" xlink:href="#hd"/>
<use x="501.14" y="253.01" xlink:href="#hd"/>
<path d="M504.64 253.01v-25.60" class="stroke"/>
<path class="fill"
	d="M526.74 257.21l67.80 9.00v-3.20l-67.80 -9.00"/>
<path class="fill"
	d="M548.44 255.11l45.80 6.10v-3.20l-45.80 -6.10"/>
<use x="530.64" y="232.01" xlink:href="#hd"/>
<path d="M527.14 232.01v24.30" class="stroke"/>
<use x="551.94" y="235.01" xlink:href="#hd"/>
<path d="M548.44 235.01v24.10" class="stroke"/>
<use x="567.24" y="238.01" xlink:href="#hd"/>
<path d="M563.74 238.01v23.10" class="stroke"/>
<use x="582.44" y="241.01" xlink:href="#hd"/>
<path d="M578.94 241.01v22.20" class="stroke"/>
<use x="597.74" y="244.01" xlink:href="#hd"/>
<path d="M594.24 244.01v21.20" class="stroke"/>
<path class="fill"
	d="M625.84 225.01l43.40 0.00v3.20l-43.40 -0.00"/>
<use x="622.74" y="259.01" xlink:href="#hd"/>
<path d="M626.24 259.01v-33.00" class="stroke"/>
<use x="622.74" y="244.01" xlink:href="#hd"/>
<use x="644.04" y="259.01" xlink:href="#hd"/>
<path d="M647.54 259.01v-33.00" class="stroke"/>
<use x="644.04" y="244.01" xlink:href="#hd"/>
<use x="665.34" y="259.01" xlink:href="#hd"/>
<path d="M668.84 259.01v-33.00" class="stroke"/>
<use x="665.34" y="244.01" xlink:href="#hd"/>
<path class="fill"
	d="M691.04 275.21l79.70 0.00v-3.20l-79.70 -0.00"/>
<path class="fill"
	d="M691.34 270.21l79.00 0.00v-3.20l-79.00 -0.00"/>
<use x="694.84" y="241.01" xlink:href="#hd"/>
<path d="M691.34 241.01v33.20" class="stroke"/>
<use x="712.84" y="244.01" xlink:href="#hd"/>
<use x="703.84" y="244.01" xlink:href="#sh0"/>
<path d="M709.34 244.01v30.20" class="stroke"/>
<use x="728.14" y="241.01" xlink:href="#hd"/>
<path d="M724.64 241.01v33.20" class="stroke"/>
<use x="743.34" y="235.01" xlink:href="#hd"/>
<path d="M739.84 235.01v39.20" class="stroke"/>
<use x="758.64" y="253.01" xlink:href="#hd"/>
<path d="M755.14 253.01v21.20" class="stroke"/>
<use x="773.84" y="247.01" xlink:href="#hd"/>
<path d="M770.34 247.01v27.20" class="stroke"/>
<use x="798.84" y="244.01" xlink:href="#hd"/>
<path d="M795.34 244.01v21.00" class="stroke"/>
<use x="841.54" y="247.01" xlink:href="#r8"/>
<use x="23.54" y="303.01" xlink:href="#bclef"/>
<path class="fill"
	d="M52.24 340.21l70.50 -5.10v-3.20l-70.50 5.10"/>
<path class="fill"
	d="M73.84 333.71l48.50 -3.50v-3.20l-48.50 3.50"/>
<use x="56.04" y="321.01" xlink:href="#hd"/>
<path d="M52.54 321.01v18.20" class="stroke"/>
<use x="77.34" y="294.01" xlink:href="#hd"/>
<path d="M73.84 294.01v43.70" class="stroke"/>
<use x="92.64" y="300.01" xlink:href="#hd"/>
<path d="M89.14 300.01v36.60" class="stroke"/>
<use x="110.64" y="303.01" xlink:href="#hd"/>
<use x="101.64" y="303.01" xlink:href="#sh0"/>
<path d="M107.14 303.01v32.30" class="stroke"/>
<use x="125.84" y="306.01" xlink:href="#hd"/>
<path d="M122.34 306.01v28.20" class="stroke"/>
<use x="164.84" y="303.01" xlink:href="#hd"/>
<use x="155.84" y="303.01" xlink:href="#sh0"/>
<path d="M168.34 303.01v-21.00" class="stroke"/>
<use x="217.34" y="309.01" xlink:href="#r8"/>
<use x="246.74" y="315.01" xlink:href="#hd"/>
<path d="M250.24 315.01v-25.00" class="stroke"/>
<use x="246.74" y="309.01" xlink:href="#hd"/>
<use x="307.74" y="309.01" xlink:href="#r8"/>
<path class="fill"
	d="M344.24 328.91l76.90 0.00v-3.20l-76.90 -0.00"/>
<path class="fill"
	d="M344.54 323.91l76.30 0.00v-3.20l-76.30 -0.00"/>
<use x="348.04" y="306.01" xlink:href="#hd"/>
<path d="M344.54 306.01v21.90" class="stroke"/>
<use x="348.04" y="312.01" xlink:href="#hd"/>
<use x="363.34" y="300.01" xlink:href="#hd"/>
<path d="M359.84 300.01v27.90" class="stroke"/>
<use x="378.54" y="306.01" xlink:href="#hd"/>
<path d="M375.04 306.01v21.90" class="stroke"/>
<use x="378.54" y="312.01" xlink:href="#hd"/>
<use x="393.84" y="300.01" xlink:href="#hd"/>
<path d="M390.34 300.01v27.90" class="stroke"/>
<use x="409.04" y="306.01" xlink:href="#hd"/>
<path d="M405.54 306.01v21.90" class="stroke"/>
<use x="409.04" y="312.01" xlink:href="#hd"/>
<use x="424.34" y="300.01" xlink:href="#hd"/>
<path d="M420.84 300.01v27.90" class="stroke"/>
<path class="fill"
	d="M452.44 280.71l22.00 7.30v3.20l-22.00 -7.30"/>
<use x="449.34" y="300.01" xlink:href="#hd"/>
<path d="M452.84 300.01v-18.20" class="stroke"/>
<use x="470.64" y="321.01" xlink:href="#hd"/>
<path d="M474.14 321.01v-32.10" class="stroke"/>
<use x="501.14" y="309.01" xlink:href="#r8"/>
<use x="530.64" y="306.01" xlink:href="#hd"/>
<path d="M527.14 306.01v25.00" class="stroke"/>
<use x="530.64" y="312.01" xlink:href="#hd"/>
<use x="582.44" y="309.01" xlink:href="#r8"/>
<path class="fill"
	d="M625.84 291.01l43.40 0.00v3.20l-43.40 -0.00"/>
<use x="622.74" y="312.01" xlink:href="#hd"/>
<path d="M626.24 312.01v-20.00" class="stroke"/>
<use x="644.04" y="312.01" xlink:href="#hd"/>
<path d="M647.54 312.01v-20.00" class="stroke"/>
<use x="665.34" y="312.01" xlink:href="#hd"/>
<path d="M668.84 312.01v-20.00" class="stroke"/>
<use x="694.84" y="303.01" xlink:href="#hd"/>
<path d="M691.34 303.01v21.00" class="stroke"/>
<use x="758.64" y="300.01" xlink:href="#hd"/>
<path d="M755.14 300.01v21.00" class="stroke"/>
<path class="fill"
	d="M755.14 321.01c0.6 -5.6 9.6 -9 5.6 -18.4
	1.6 6 -1.3 11.6 -5.6 12.8
"/>
<path class="fill"
	d="M802.04 292.71l43.40 9.90v3.20l-43.40 -9.90"/>
<use x="798.84" y="312.01" xlink:href="#hd"/>
<path d="M802.34 312.01v-18.20" class="stroke"/>
<use x="820.24" y="321.01" xlink:href="#hd"/>
<path d="M823.74 321.01v-22.30" class="stroke"/>
<use x="841.54" y="327.01" xlink:href="#hl"/>
<use x="841.54" y="333.01" xlink:href="#hl"/>
<use x="841.54" y="333.01" xlink:href="#hd"/>
<path d="M845.04 333.01v-29.40" class="stroke"/>
<use x="164.84" y="309.01" xlink:href="#hd"/>
<path d="M161.34 309.01v21.00" class="stroke"/>
</g>
</svg>
