<?xml version="1.0" standalone="no"?>
<!DOCTYPE svg PUBLIC "-//W3C//DTD SVG 1.1//EN"
	"http://www.w3.org/Graphics/SVG/1.1/DTD/svg11.dtd">
<svg xmlns="http://www.w3.org/2000/svg" version="1.1"
	xmlns:xlink="http://www.w3.org/1999/xlink"
	color="black"
	width="757.10px" height="293.80px">
<style type="text/css">
.fill {fill: currentColor}
.stroke {stroke: currentColor; fill: none}
text{white-space: pre}
</style>
<title>./K516f-2-5-6-6-7-10-2-9-4-7-10-12-4-6-2-3.abc (1340) tune 1</title>
<!-- Creator: abcm2ps-8.13.8 -->
<!-- CreationDate: Sep  7, 2017 11:17 -->
<!-- CommandLine: ./K516f-2-5-6-6-7-10-2-9-4-7-10-12-4-6-2-3.abc -O ./K516f-2-5-6-6-7-10-2-9-4-7-10-12-4-6-2-3.svg -g -->
<rect width="100%" height="100%" fill="white"/>
<g stroke-width="0.70" transform="scale(0.867)">
<!-- title: 2-5-6-6-7-10-2-9-4-7-10-12-4-6-2-3 -->
</g>
<g stroke-width="0.70" transform="scale(0.867)" font-family="Times" font-size="20.00">
<text x="436.84" y="22.00" text-anchor="middle">2-5-6-6-7-10-2-9-4-7-10-12-4-6-2-3</text>
</g>
<g stroke-width="0.70" transform="scale(0.867)" font-family="Times" font-size="20.00">
<!-- subtitle: $1K.516f::96:17:163:45:154:129:11:94:66:71:19:92:73:136:109:83::$0 -->
</g>
<g stroke-width="0.70" transform="scale(0.867)" font-family="Courier" font-size="8.00" font-weight="bold">
<text x="436.84" y="41.80" text-anchor="middle">K.516f::96:17:163:45:154:129:11:94:66:71:19:92:73:136:109:83::</text>
</g>
<g stroke-width="0.70" transform="scale(0.867)" font-family="Courier" font-size="8.00" font-weight="bold">
<!-- subtitle: $1Perm. No.: 13403686811846$0 -->
<text x="436.84" y="60.80" text-anchor="middle">Perm. No.: 13403686811846</text>
</g>
<g stroke-width="0.70" transform="scale(0.607)" font-family="Courier" font-size="8.00" font-weight="bold">
<defs>
<ellipse id="hd" rx="4.1" ry="2.9"
	transform="rotate(-20)" class="fill"/>
</defs>
<use x="103.06" y="121.29" xlink:href="#hd"/>
<path d="M106.56 121.29v-21.00" class="stroke"/>
<path class="fill"
	d="M106.56 100.29c0.6 5.6 9.6 9 5.6 18.4
	1.6 -6 -1.3 -11.6 -5.6 -12.8
"/>
</g>
<g stroke-width="0.70" transform="scale(0.867)" font-family="Times" font-size="15.00" font-weight="bold">
<text x="81.24" y="87.00">= 111</text>
<path class="stroke" stroke-width="1"
	d="M11.54 183.00v-82.00"/>
<path class="fill"
	d="M6.54 98.00
	c10.5 1 12 -4.5 12 -3.5c0 1 -3.5 5.5 -8.5 5.5
	v84.00
	c5 0 8.5 4.5 8.5 5.5c0 1 -1.5 -4.5 -12 -3.5"/>
<defs>
<g id="rdots" class="fill">
	<circle cx="0" cy="-9" r="1.2"/>
	<circle cx="0" cy="-15" r="1.2"/>
</g>
</defs>
<use x="70.54" y="125.00" xlink:href="#rdots"/>
<path class="stroke" stroke-width="1"
	d="M66.54 125.00v-24.00"/>
<path class="stroke" stroke-width="3"
	d="M62.04 125.00v-24.00"/>
<use x="70.54" y="183.00" xlink:href="#rdots"/>
<path class="stroke" stroke-width="1"
	d="M66.54 183.00v-58.00"/>
<path class="stroke" stroke-width="3"
	d="M62.04 183.00v-58.00"/>
<path class="stroke" stroke-width="1"
	d="M145.04 125.00v-24.00"/>
<path class="stroke" stroke-width="1"
	d="M145.04 183.00v-58.00"/>
<path class="stroke" stroke-width="1"
	d="M248.04 125.00v-24.00"/>
<path class="stroke" stroke-width="1"
	d="M248.04 183.00v-58.00"/>
<path class="stroke" stroke-width="1"
	d="M353.44 125.00v-24.00"/>
<path class="stroke" stroke-width="1"
	d="M353.44 183.00v-58.00"/>
<path class="stroke" stroke-width="1"
	d="M456.44 125.00v-24.00"/>
<path class="stroke" stroke-width="1"
	d="M456.44 183.00v-58.00"/>
<path class="stroke" stroke-width="1"
	d="M564.34 125.00v-24.00"/>
<path class="stroke" stroke-width="1"
	d="M564.34 183.00v-58.00"/>
<path class="stroke" stroke-width="1"
	d="M658.94 125.00v-24.00"/>
<path class="stroke" stroke-width="1"
	d="M658.94 183.00v-58.00"/>
<path class="stroke" stroke-width="1"
	d="M764.44 125.00v-24.00"/>
<path class="stroke" stroke-width="1"
	d="M764.44 183.00v-58.00"/>
<path class="stroke" stroke-width="3"
	d="M860.54 125.00v-24.00"/>
<path class="stroke" stroke-width="1"
	d="M856.04 125.00v-24.00"/>
<use x="852.04" y="125.00" xlink:href="#rdots"/>
<path class="stroke" stroke-width="3"
	d="M860.54 183.00v-58.00"/>
<path class="stroke" stroke-width="1"
	d="M856.04 183.00v-58.00"/>
<use x="852.04" y="183.00" xlink:href="#rdots"/>
<path d="m11.54 125.00
	h850.50
	M11.54 119.00
	h850.50
	M11.54 113.00
	h850.50
	M11.54 107.00
	h850.50
	M11.54 101.00
	h850.50
	" class="stroke"/>
<path d="m11.54 183.00
	h850.50
	M11.54 177.00
	h850.50
	M11.54 171.00
	h850.50
	M11.54 165.00
	h850.50
	M11.54 159.00
	h850.50
	" class="stroke"/>
</g>
<g stroke-width="0.70" transform="scale(0.867)" font-family="Times" font-size="13.00">
<text x="768.44" y="86.40">1</text>
<path class="stroke"
	d="M764.44 75.00m0 20v-20h89.60v20"/>
<defs>
<path id="utclef" class="fill" d="m-50 -90
	c-72 -41 -72 -158 52 -188
	150 -10 220 188 90 256
	-114 52 -275 0 -293 -136
	-15 -181 93 -229 220 -334
	88 -87 79 -133 62 -210
	-51 33 -94 105 -89 186
	17 267 36 374 49 574
	6 96 -19 134 -77 135
	-80 1 -126 -93 -61 -133
	85 -41 133 101 31 105
	23 17 92 37 90 -92
	-10 -223 -39 -342 -50 -617
	0 -90 0 -162 96 -232
	56 72 63 230 22 289
	-74 106 -257 168 -255 316
	9 153 148 185 252 133
	86 -65 29 -192 -80 -176
	-71 12 -105 67 -59 124"/>
<use id="tclef" transform="translate(0,6) scale(0.045)"
	xlink:href="#utclef"/>
</defs>
<use x="23.54" y="119.00" xlink:href="#tclef"/>
<g font-family="serif" font-size="16" font-weight="bold" font-style="normal"
	transform="translate(42.04,124.50) scale(1.2,1)">
	<text text-anchor="middle">8</text>
	<text y="-12" text-anchor="middle">3</text>
</g>
<path class="fill"
	d="M80.34 131.80l44.20 6.50v-3.20l-44.20 -6.50"/>
<use x="84.14" y="104.00" xlink:href="#hd"/>
<path d="M80.64 104.00v26.80" class="stroke"/>
<use x="105.94" y="110.00" xlink:href="#hd"/>
<path d="M102.44 110.00v24.00" class="stroke"/>
<use x="127.64" y="119.00" xlink:href="#hd"/>
<path d="M124.14 119.00v18.20" class="stroke"/>
<path class="fill"
	d="M153.84 141.20l78.50 0.00v-3.20l-78.50 -0.00"/>
<path class="fill"
	d="M154.14 136.20l77.80 0.00v-3.20l-77.80 -0.00"/>
<use x="157.64" y="110.00" xlink:href="#hd"/>
<path d="M154.14 110.00v30.20" class="stroke"/>
<use x="173.24" y="119.00" xlink:href="#hd"/>
<path d="M169.74 119.00v21.20" class="stroke"/>
<use x="188.84" y="110.00" xlink:href="#hd"/>
<path d="M185.34 110.00v30.20" class="stroke"/>
<use x="204.34" y="104.00" xlink:href="#hd"/>
<path d="M200.84 104.00v36.20" class="stroke"/>
<use x="219.94" y="119.00" xlink:href="#hd"/>
<path d="M216.44 119.00v21.20" class="stroke"/>
<use x="235.54" y="110.00" xlink:href="#hd"/>
<path d="M232.04 110.00v30.20" class="stroke"/>
<path class="fill"
	d="M256.84 131.40l81.00 9.80v-3.20l-81.00 -9.80"/>
<path class="fill"
	d="M257.14 126.40l80.30 9.80v-3.20l-80.30 -9.80"/>
<use x="260.64" y="98.00" xlink:href="#hd"/>
<path d="M257.14 98.00v32.40" class="stroke"/>
<use x="278.64" y="101.00" xlink:href="#hd"/>
<defs>
<path id="usharp" class="fill" d="
	m136 -702
	v890
	h32
	v-890
	m128 840
	h32
	v-888
	h-32
	m-232 286
	v116
	l338 -96
	v-116
	m-338 442
	v116
	l338 -98
	v-114"/>
<use id="sh0" transform="translate(-4,5) scale(0.018)"
	xlink:href="#usharp"/>
</defs>
<use x="269.64" y="101.00" xlink:href="#sh0"/>
<path d="M275.14 101.00v31.60" class="stroke"/>
<use x="294.24" y="98.00" xlink:href="#hd"/>
<path d="M290.74 98.00v36.50" class="stroke"/>
<use x="309.84" y="107.00" xlink:href="#hd"/>
<path d="M306.34 107.00v29.40" class="stroke"/>
<use x="325.34" y="113.00" xlink:href="#hd"/>
<path d="M321.84 113.00v25.30" class="stroke"/>
<use x="340.94" y="119.00" xlink:href="#hd"/>
<path d="M337.44 119.00v21.20" class="stroke"/>
<path class="fill"
	d="M369.24 83.90l78.50 9.70v3.20l-78.50 -9.70"/>
<path class="fill"
	d="M369.54 88.90l77.80 9.70v3.20l-77.80 -9.70"/>
<use x="366.04" y="110.00" xlink:href="#hd"/>
<path d="M369.54 110.00v-25.10" class="stroke"/>
<use x="381.64" y="113.00" xlink:href="#hd"/>
<path d="M385.14 113.00v-26.10" class="stroke"/>
<use x="397.24" y="110.00" xlink:href="#hd"/>
<path d="M400.74 110.00v-21.20" class="stroke"/>
<use x="412.84" y="119.00" xlink:href="#hd"/>
<path d="M416.34 119.00v-28.30" class="stroke"/>
<use x="428.34" y="125.00" xlink:href="#hd"/>
<path d="M431.84 125.00v-32.30" class="stroke"/>
<defs>
<path id="hl" class="stroke" d="m-6 0h12"/>
</defs>
<use x="443.94" y="131.00" xlink:href="#hl"/>
<use x="443.94" y="131.00" xlink:href="#hd"/>
<path d="M447.44 131.00v-36.40" class="stroke"/>
<path class="fill"
	d="M465.24 133.00l83.40 0.00v-3.20l-83.40 -0.00"/>
<path class="fill"
	d="M465.54 128.00l82.70 0.00v-3.20l-82.70 -0.00"/>
<use x="469.04" y="107.00" xlink:href="#hd"/>
<path d="M465.54 107.00v24.90" class="stroke"/>
<use x="487.04" y="110.00" xlink:href="#hd"/>
<use x="478.04" y="110.00" xlink:href="#sh0"/>
<path d="M483.54 110.00v21.90" class="stroke"/>
<use x="502.64" y="107.00" xlink:href="#hd"/>
<path d="M499.14 107.00v24.90" class="stroke"/>
<use x="520.64" y="101.00" xlink:href="#hd"/>
<use x="511.64" y="101.00" xlink:href="#sh0"/>
<path d="M517.14 101.00v30.90" class="stroke"/>
<use x="536.24" y="95.00" xlink:href="#hl"/>
<use x="536.24" y="95.00" xlink:href="#hd"/>
<path d="M532.74 95.00v36.90" class="stroke"/>
<use x="551.84" y="101.00" xlink:href="#hd"/>
<path d="M548.34 101.00v30.90" class="stroke"/>
<path class="fill"
	d="M573.14 121.30l65.40 4.90v-3.20l-65.40 -4.90"/>
<path class="fill"
	d="M573.44 116.40l49.10 3.70v-3.20l-49.10 -3.70"/>
<use x="576.94" y="95.00" xlink:href="#hl"/>
<use x="576.94" y="95.00" xlink:href="#hd"/>
<path d="M573.44 95.00v25.40" class="stroke"/>
<use x="592.54" y="98.00" xlink:href="#hd"/>
<path d="M589.04 98.00v23.50" class="stroke"/>
<use x="610.54" y="101.00" xlink:href="#hd"/>
<use x="601.54" y="101.00" xlink:href="#sh0"/>
<path d="M607.04 101.00v21.90" class="stroke"/>
<use x="626.04" y="98.00" xlink:href="#hd"/>
<path d="M622.54 98.00v26.00" class="stroke"/>
<use x="641.64" y="107.00" xlink:href="#hd"/>
<path d="M638.14 107.00v18.20" class="stroke"/>
<path class="fill"
	d="M674.74 81.80l81.00 8.30v3.20l-81.00 -8.30"/>
<path class="fill"
	d="M675.14 86.80l80.30 8.20v3.20l-80.30 -8.20"/>
<use x="671.64" y="104.00" xlink:href="#hd"/>
<path d="M675.14 104.00v-21.20" class="stroke"/>
<use x="687.14" y="110.00" xlink:href="#hd"/>
<path d="M690.64 110.00v-25.60" class="stroke"/>
<use x="702.74" y="113.00" xlink:href="#hd"/>
<path d="M706.24 113.00v-27.00" class="stroke"/>
<use x="718.34" y="116.00" xlink:href="#hd"/>
<path d="M721.84 116.00v-28.40" class="stroke"/>
<use x="733.94" y="119.00" xlink:href="#hd"/>
<path d="M737.44 119.00v-29.80" class="stroke"/>
<use x="751.94" y="122.00" xlink:href="#hd"/>
<use x="742.94" y="122.00" xlink:href="#sh0"/>
<path d="M755.44 122.00v-31.00" class="stroke"/>
<use x="777.04" y="98.00" xlink:href="#hd"/>
<path d="M773.54 98.00v40.00" class="stroke"/>
<use x="777.04" y="119.00" xlink:href="#hd"/>
<use x="777.04" y="113.00" xlink:href="#hd"/>
<use x="777.04" y="107.00" xlink:href="#hd"/>
<defs>
<path id="r8e" class="fill" d="m 0 0
	c-1.5 1.5 -2.4 2 -3.6 2
	2.4 -2.8 -2.8 -4 -2.8 -1.2
	c0 2.7 4.3 2.4 5.9 0.6"/>
<g id="r8">
	<path d="m3.3 -4l-3.4 9.6" class="stroke"/>
	<use x="3.4" y="-4" xlink:href="#r8e"/>
</g>
</defs>
<use x="832.34" y="113.00" xlink:href="#r8"/>
<defs>
<path id="ubclef" class="fill" d="m-200 -87
	c124 -35 222 -78 254 -236
	43 -228 -167 -246 -192 -103
	59 -80 157 22 92 78
	-62 47 -115 -22 -106 -88
	21 -141 270 -136 274 52
	-1 175 -106 264 -322 297
	m357 -250
	c0 -36 51 -34 51 0
	0 37 -51 36 -51 0
	m-2 -129
	c0 -36 51 -34 51 0
	0 38 -51 37 -51 0"/>
<use id="bclef" transform="translate(0,18) scale(0.045)"
	xlink:href="#ubclef"/>
</defs>
<use x="23.54" y="165.00" xlink:href="#bclef"/>
<g font-family="serif" font-size="16" font-weight="bold" font-style="normal"
	transform="translate(42.04,182.50) scale(1.2,1)">
	<text text-anchor="middle">8</text>
	<text y="-12" text-anchor="middle">3</text>
</g>
<use x="84.14" y="174.00" xlink:href="#hd"/>
<path d="M87.64 174.00v-21.00" class="stroke"/>
<use x="127.64" y="171.00" xlink:href="#r8"/>
<use x="157.64" y="162.00" xlink:href="#hd"/>
<path d="M154.14 162.00v25.00" class="stroke"/>
<use x="157.64" y="168.00" xlink:href="#hd"/>
<use x="219.94" y="171.00" xlink:href="#r8"/>
<use x="260.64" y="177.00" xlink:href="#hd"/>
<path d="M264.14 177.00v-25.00" class="stroke"/>
<use x="260.64" y="171.00" xlink:href="#hd"/>
<use x="325.34" y="171.00" xlink:href="#r8"/>
<use x="366.04" y="162.00" xlink:href="#hd"/>
<path d="M362.54 162.00v25.00" class="stroke"/>
<use x="366.04" y="168.00" xlink:href="#hd"/>
<use x="428.34" y="171.00" xlink:href="#r8"/>
<use x="469.04" y="174.00" xlink:href="#hd"/>
<path d="M472.54 174.00v-21.00" class="stroke"/>
<use x="536.24" y="171.00" xlink:href="#r8"/>
<path class="fill"
	d="M580.14 149.40l65.40 -4.60v3.20l-65.40 4.60"/>
<use x="576.94" y="177.00" xlink:href="#hd"/>
<path d="M580.44 177.00v-26.60" class="stroke"/>
<use x="576.94" y="171.00" xlink:href="#hd"/>
<use x="610.54" y="177.00" xlink:href="#hd"/>
<path d="M614.04 177.00v-29.00" class="stroke"/>
<use x="610.54" y="171.00" xlink:href="#hd"/>
<use x="641.64" y="177.00" xlink:href="#hd"/>
<path d="M645.14 177.00v-31.20" class="stroke"/>
<use x="641.64" y="162.00" xlink:href="#hd"/>
<path class="fill"
	d="M674.74 147.70l63.00 8.10v3.20l-63.00 -8.10"/>
<use x="671.64" y="174.00" xlink:href="#hd"/>
<path d="M675.14 174.00v-25.20" class="stroke"/>
<use x="702.74" y="171.00" xlink:href="#hd"/>
<path d="M706.24 171.00v-18.20" class="stroke"/>
<use x="733.94" y="189.00" xlink:href="#hl"/>
<use x="733.94" y="192.00" xlink:href="#hd"/>
<path d="M737.44 192.00v-35.20" class="stroke"/>
<path class="fill"
	d="M773.24 202.20l71.60 0.00v-3.20l-71.60 -0.00"/>
<path class="fill"
	d="M795.34 197.20l49.10 0.00v-3.20l-49.10 -0.00"/>
<use x="777.04" y="183.00" xlink:href="#hd"/>
<path d="M773.54 183.00v18.20" class="stroke"/>
<use x="798.84" y="162.00" xlink:href="#hd"/>
<path d="M795.34 162.00v39.20" class="stroke"/>
<use x="816.84" y="165.00" xlink:href="#hd"/>
<defs>
<path id="unat" class="fill" d="
	m96 -750
	h-32
	v716
	l32 -8
	182 -54
	v282
	h32
	v-706
	l-34 10
	-180 50
	v-290
	m0 592
	v-190
	l182 -52
	v188"/>
<use id="nt0" transform="translate(-3,5) scale(0.018)"
	xlink:href="#unat"/>
</defs>
<use x="807.84" y="165.00" xlink:href="#nt0"/>
<path d="M813.34 165.00v36.20" class="stroke"/>
<use x="832.34" y="168.00" xlink:href="#hd"/>
<path d="M828.84 168.00v33.20" class="stroke"/>
<use x="847.94" y="171.00" xlink:href="#hd"/>
<path d="M844.44 171.00v30.20" class="stroke"/>
</g>
<g stroke-width="0.70" transform="scale(0.867)" font-family="Times" font-size="13.00">
<path class="stroke" stroke-width="1"
	d="M11.54 316.00v-82.00"/>
<path class="fill"
	d="M6.54 231.00
	c10.5 1 12 -4.5 12 -3.5c0 1 -3.5 5.5 -8.5 5.5
	v84.00
	c5 0 8.5 4.5 8.5 5.5c0 1 -1.5 -4.5 -12 -3.5"/>
<use x="145.04" y="258.00" xlink:href="#rdots"/>
<path class="stroke" stroke-width="1"
	d="M141.04 258.00v-24.00"/>
<path class="stroke" stroke-width="3"
	d="M136.54 258.00v-24.00"/>
<use x="145.04" y="316.00" xlink:href="#rdots"/>
<path class="stroke" stroke-width="1"
	d="M141.04 316.00v-58.00"/>
<path class="stroke" stroke-width="3"
	d="M136.54 316.00v-58.00"/>
<path class="stroke" stroke-width="1"
	d="M232.04 258.00v-24.00"/>
<path class="stroke" stroke-width="1"
	d="M232.04 316.00v-58.00"/>
<path class="stroke" stroke-width="1"
	d="M322.54 258.00v-24.00"/>
<path class="stroke" stroke-width="1"
	d="M322.54 316.00v-58.00"/>
<path class="stroke" stroke-width="1"
	d="M403.34 258.00v-24.00"/>
<path class="stroke" stroke-width="1"
	d="M403.34 316.00v-58.00"/>
<path class="stroke" stroke-width="1"
	d="M484.24 258.00v-24.00"/>
<path class="stroke" stroke-width="1"
	d="M484.24 316.00v-58.00"/>
<path class="stroke" stroke-width="1"
	d="M584.94 258.00v-24.00"/>
<path class="stroke" stroke-width="1"
	d="M584.94 316.00v-58.00"/>
<path class="stroke" stroke-width="1"
	d="M685.94 258.00v-24.00"/>
<path class="stroke" stroke-width="1"
	d="M685.94 316.00v-58.00"/>
<path class="stroke" stroke-width="1"
	d="M786.74 258.00v-24.00"/>
<path class="stroke" stroke-width="1"
	d="M786.74 316.00v-58.00"/>
<path class="stroke" stroke-width="3"
	d="M860.54 258.00v-24.00"/>
<path class="stroke" stroke-width="1"
	d="M856.04 258.00v-24.00"/>
<use x="852.04" y="258.00" xlink:href="#rdots"/>
<path class="stroke" stroke-width="3"
	d="M860.54 316.00v-58.00"/>
<path class="stroke" stroke-width="1"
	d="M856.04 316.00v-58.00"/>
<use x="852.04" y="316.00" xlink:href="#rdots"/>
<path d="m11.54 258.00
	h850.50
	M11.54 252.00
	h850.50
	M11.54 246.00
	h850.50
	M11.54 240.00
	h850.50
	M11.54 234.00
	h850.50
	" class="stroke"/>
<path d="m11.54 316.00
	h850.50
	M11.54 310.00
	h850.50
	M11.54 304.00
	h850.50
	M11.54 298.00
	h850.50
	M11.54 292.00
	h850.50
	" class="stroke"/>
<text x="47.54" y="219.40">2</text>
<path class="stroke"
	d="M43.54 208.00m0 20v-20h90.50v20"/>
<use x="23.54" y="252.00" xlink:href="#tclef"/>
<use x="56.04" y="231.00" xlink:href="#hd"/>
<path d="M52.54 231.00v40.00" class="stroke"/>
<use x="56.04" y="252.00" xlink:href="#hd"/>
<use x="56.04" y="246.00" xlink:href="#hd"/>
<use x="56.04" y="240.00" xlink:href="#hd"/>
<use x="110.34" y="246.00" xlink:href="#r8"/>
<path class="fill"
	d="M160.64 252.20l43.70 0.00v-3.20l-43.70 -0.00"/>
<use x="164.54" y="234.00" xlink:href="#hd"/>
<use x="155.54" y="234.00" xlink:href="#sh0"/>
<path d="M161.04 234.00v17.20" class="stroke"/>
<use x="186.34" y="228.00" xlink:href="#hl"/>
<use x="186.34" y="228.00" xlink:href="#hd"/>
<path d="M182.84 228.00v23.20" class="stroke"/>
<use x="207.54" y="234.00" xlink:href="#hd"/>
<path d="M204.04 234.00v17.20" class="stroke"/>
<path class="fill"
	d="M240.64 254.00l61.50 0.00v-3.20l-61.50 -0.00"/>
<path class="fill"
	d="M241.04 249.00l45.70 0.00v-3.20l-45.70 -0.00"/>
<use x="244.54" y="231.00" xlink:href="#hd"/>
<path d="M241.04 231.00v21.90" class="stroke"/>
<use x="259.64" y="228.00" xlink:href="#hl"/>
<use x="259.64" y="225.00" xlink:href="#hd"/>
<path d="M256.14 225.00v27.90" class="stroke"/>
<use x="274.94" y="228.00" xlink:href="#hl"/>
<use x="274.94" y="222.00" xlink:href="#hl"/>
<use x="274.94" y="219.00" xlink:href="#hd"/>
<path d="M271.44 219.00v33.90" class="stroke"/>
<use x="290.14" y="228.00" xlink:href="#hl"/>
<use x="290.14" y="225.00" xlink:href="#hd"/>
<path d="M286.64 225.00v27.90" class="stroke"/>
<use x="305.34" y="231.00" xlink:href="#hd"/>
<path d="M301.84 231.00v21.90" class="stroke"/>
<path class="fill"
	d="M331.14 266.40l52.20 -4.20v-3.20l-52.20 4.20"/>
<path class="fill"
	d="M331.54 261.40l15.20 -1.20v-3.20l-15.20 1.20"/>
<use x="335.04" y="237.00" xlink:href="#hd"/>
<path d="M331.54 237.00v28.40" class="stroke"/>
<use x="350.14" y="243.00" xlink:href="#hd"/>
<path d="M346.64 243.00v21.20" class="stroke"/>
<use x="365.34" y="237.00" xlink:href="#hd"/>
<path d="M361.84 237.00v26.00" class="stroke"/>
<use x="386.54" y="231.00" xlink:href="#hd"/>
<path d="M383.04 231.00v30.30" class="stroke"/>
<path class="fill"
	d="M412.04 264.20l52.20 0.00v-3.20l-52.20 -0.00"/>
<path class="fill"
	d="M433.54 259.20l15.20 0.00v-3.20l-15.20 -0.00"/>
<use x="415.84" y="240.00" xlink:href="#hd"/>
<path d="M412.34 240.00v23.20" class="stroke"/>
<use x="415.84" y="246.00" xlink:href="#hd"/>
<use x="437.04" y="231.00" xlink:href="#hd"/>
<path d="M433.54 231.00v32.20" class="stroke"/>
<use x="452.14" y="228.00" xlink:href="#hl"/>
<use x="452.14" y="225.00" xlink:href="#hd"/>
<path d="M448.64 225.00v38.20" class="stroke"/>
<use x="467.34" y="240.00" xlink:href="#hd"/>
<path d="M463.84 240.00v23.20" class="stroke"/>
<path class="fill"
	d="M492.84 253.70l61.30 8.70v-3.20l-61.30 -8.70"/>
<use x="496.74" y="231.00" xlink:href="#hd"/>
<path d="M493.24 231.00v21.70" class="stroke"/>
<use x="527.04" y="237.00" xlink:href="#hd"/>
<path d="M523.54 237.00v20.00" class="stroke"/>
<use x="557.34" y="243.00" xlink:href="#hd"/>
<path d="M553.84 243.00v18.30" class="stroke"/>
<path class="fill"
	d="M593.64 255.80l76.70 9.40v-3.20l-76.70 -9.40"/>
<path class="fill"
	d="M593.94 250.90l76.00 9.30v-3.20l-76.00 -9.30"/>
<use x="597.44" y="228.00" xlink:href="#hl"/>
<use x="597.44" y="222.00" xlink:href="#hl"/>
<use x="597.44" y="222.00" xlink:href="#hd"/>
<path d="M593.94 222.00v32.90" class="stroke"/>
<use x="612.74" y="228.00" xlink:href="#hl"/>
<use x="612.74" y="225.00" xlink:href="#hd"/>
<path d="M609.24 225.00v31.80" class="stroke"/>
<use x="627.94" y="228.00" xlink:href="#hl"/>
<use x="627.94" y="222.00" xlink:href="#hl"/>
<use x="627.94" y="222.00" xlink:href="#hd"/>
<path d="M624.44 222.00v36.60" class="stroke"/>
<use x="643.14" y="231.00" xlink:href="#hd"/>
<path d="M639.64 231.00v29.50" class="stroke"/>
<use x="658.34" y="237.00" xlink:href="#hd"/>
<path d="M654.84 237.00v25.30" class="stroke"/>
<use x="673.44" y="243.00" xlink:href="#hd"/>
<path d="M669.94 243.00v21.20" class="stroke"/>
<path class="fill"
	d="M694.64 266.00l76.40 0.00v-3.20l-76.40 -0.00"/>
<path class="fill"
	d="M694.94 261.00l75.80 0.00v-3.20l-75.80 -0.00"/>
<use x="698.44" y="240.00" xlink:href="#hd"/>
<path d="M694.94 240.00v24.90" class="stroke"/>
<use x="713.64" y="234.00" xlink:href="#hd"/>
<path d="M710.14 234.00v30.90" class="stroke"/>
<use x="728.74" y="240.00" xlink:href="#hd"/>
<path d="M725.24 240.00v24.90" class="stroke"/>
<use x="743.94" y="234.00" xlink:href="#hd"/>
<path d="M740.44 234.00v30.90" class="stroke"/>
<use x="759.04" y="246.00" xlink:href="#hd"/>
<path d="M755.54 246.00v18.90" class="stroke"/>
<use x="774.24" y="240.00" xlink:href="#hd"/>
<path d="M770.74 240.00v24.90" class="stroke"/>
<use x="799.24" y="243.00" xlink:href="#hd"/>
<path d="M795.74 243.00v21.00" class="stroke"/>
<use x="841.54" y="246.00" xlink:href="#r8"/>
<use x="23.54" y="298.00" xlink:href="#bclef"/>
<path class="fill"
	d="M52.24 335.20l70.20 -5.10v-3.20l-70.20 5.10"/>
<path class="fill"
	d="M73.74 328.70l48.30 -3.50v-3.20l-48.30 3.50"/>
<use x="56.04" y="316.00" xlink:href="#hd"/>
<path d="M52.54 316.00v18.20" class="stroke"/>
<use x="77.24" y="289.00" xlink:href="#hd"/>
<path d="M73.74 289.00v43.70" class="stroke"/>
<use x="92.34" y="295.00" xlink:href="#hd"/>
<path d="M88.84 295.00v36.60" class="stroke"/>
<use x="110.34" y="298.00" xlink:href="#hd"/>
<use x="101.34" y="298.00" xlink:href="#sh0"/>
<path d="M106.84 298.00v32.30" class="stroke"/>
<use x="125.54" y="301.00" xlink:href="#hd"/>
<path d="M122.04 301.00v28.20" class="stroke"/>
<path class="fill"
	d="M167.64 272.70l43.70 7.80v3.20l-43.70 -7.80"/>
<use x="164.54" y="292.00" xlink:href="#hd"/>
<path d="M168.04 292.00v-18.20" class="stroke"/>
<use x="186.34" y="298.00" xlink:href="#hd"/>
<use x="177.34" y="298.00" xlink:href="#sh0"/>
<path d="M189.84 298.00v-20.30" class="stroke"/>
<use x="207.54" y="304.00" xlink:href="#hd"/>
<path d="M211.04 304.00v-22.50" class="stroke"/>
<use x="244.54" y="310.00" xlink:href="#hd"/>
<path d="M248.04 310.00v-25.00" class="stroke"/>
<use x="244.54" y="304.00" xlink:href="#hd"/>
<use x="305.34" y="310.00" xlink:href="#hd"/>
<path d="M308.84 310.00v-25.00" class="stroke"/>
<path class="fill"
	d="M308.84 285.00c0.6 5.6 9.6 9 5.6 18.4
	1.6 -6 -1.3 -11.6 -5.6 -12.8
"/>
<use x="305.34" y="304.00" xlink:href="#hd"/>
<use x="335.04" y="295.00" xlink:href="#hd"/>
<path d="M331.54 295.00v31.00" class="stroke"/>
<use x="335.04" y="307.00" xlink:href="#hd"/>
<use x="386.54" y="301.00" xlink:href="#hd"/>
<path d="M383.04 301.00v25.00" class="stroke"/>
<path class="fill"
	d="M383.04 326.00c0.6 -5.6 9.6 -9 5.6 -18.4
	1.6 6 -1.3 11.6 -5.6 12.8
"/>
<use x="386.54" y="307.00" xlink:href="#hd"/>
<use x="415.84" y="316.00" xlink:href="#hd"/>
<path d="M419.34 316.00v-40.00" class="stroke"/>
<use x="415.84" y="295.00" xlink:href="#hd"/>
<use x="467.34" y="295.00" xlink:href="#hd"/>
<path d="M463.84 295.00v21.00" class="stroke"/>
<path class="fill"
	d="M463.84 316.00c0.6 -5.6 9.6 -9 5.6 -18.4
	1.6 6 -1.3 11.6 -5.6 12.8
"/>
<path class="fill"
	d="M492.84 323.90l76.40 0.00v-3.20l-76.40 -0.00"/>
<path class="fill"
	d="M493.24 318.90l75.80 0.00v-3.20l-75.80 -0.00"/>
<use x="496.74" y="301.00" xlink:href="#hd"/>
<path d="M493.24 301.00v21.90" class="stroke"/>
<use x="496.74" y="307.00" xlink:href="#hd"/>
<use x="511.84" y="295.00" xlink:href="#hd"/>
<path d="M508.34 295.00v27.90" class="stroke"/>
<use x="527.04" y="301.00" xlink:href="#hd"/>
<path d="M523.54 301.00v21.90" class="stroke"/>
<use x="527.04" y="307.00" xlink:href="#hd"/>
<use x="542.14" y="295.00" xlink:href="#hd"/>
<path d="M538.64 295.00v27.90" class="stroke"/>
<use x="557.34" y="301.00" xlink:href="#hd"/>
<path d="M553.84 301.00v21.90" class="stroke"/>
<use x="557.34" y="307.00" xlink:href="#hd"/>
<use x="572.44" y="295.00" xlink:href="#hd"/>
<path d="M568.94 295.00v27.90" class="stroke"/>
<use x="597.44" y="301.00" xlink:href="#hd"/>
<path d="M593.94 301.00v25.00" class="stroke"/>
<use x="597.44" y="307.00" xlink:href="#hd"/>
<use x="658.34" y="304.00" xlink:href="#r8"/>
<use x="698.44" y="292.00" xlink:href="#hd"/>
<path d="M694.94 292.00v25.00" class="stroke"/>
<use x="698.44" y="298.00" xlink:href="#hd"/>
<use x="759.04" y="286.00" xlink:href="#hl"/>
<use x="759.04" y="283.00" xlink:href="#hd"/>
<path d="M755.54 283.00v31.00" class="stroke"/>
<path class="fill"
	d="M755.54 314.00c0.6 -5.6 9.6 -9 5.6 -18.4
	1.6 6 -1.3 11.6 -5.6 12.8
"/>
<use x="759.04" y="295.00" xlink:href="#hd"/>
<path class="fill"
	d="M802.34 287.70l43.00 9.90v3.20l-43.00 -9.90"/>
<use x="799.24" y="307.00" xlink:href="#hd"/>
<path d="M802.74 307.00v-18.20" class="stroke"/>
<use x="820.34" y="316.00" xlink:href="#hd"/>
<path d="M823.84 316.00v-22.30" class="stroke"/>
<use x="841.54" y="322.00" xlink:href="#hl"/>
<use x="841.54" y="328.00" xlink:href="#hl"/>
<use x="841.54" y="328.00" xlink:href="#hd"/>
<path d="M845.04 328.00v-29.50" class="stroke"/>
<path class="fill"
	d="M160.64 326.20l51.70 0.00v-3.20l-51.70 -0.00"/>
<use x="164.54" y="304.00" xlink:href="#hd"/>
<path d="M161.04 304.00v21.20" class="stroke"/>
<use x="186.34" y="304.00" xlink:href="#hd"/>
<path d="M182.84 304.00v21.20" class="stroke"/>
<use x="215.54" y="307.00" xlink:href="#hd"/>
<path d="M212.04 307.00v18.20" class="stroke"/>
</g>
</svg>
