<?xml version="1.0" standalone="no"?>
<!DOCTYPE svg PUBLIC "-//W3C//DTD SVG 1.1//EN"
	"http://www.w3.org/Graphics/SVG/1.1/DTD/svg11.dtd">
<svg xmlns="http://www.w3.org/2000/svg" version="1.1"
	xmlns:xlink="http://www.w3.org/1999/xlink"
	color="black"
	width="757.10px" height="293.80px">
<style type="text/css">
.fill {fill: currentColor}
.stroke {stroke: currentColor; fill: none}
text{white-space: pre}
</style>
<title>./K516f-2-10-12-7-6-10-10-10-9-9-3-3-5-4-9-2.abc (2488) tune 1</title>
<!-- Creator: abcm2ps-8.13.8 -->
<!-- CreationDate: Sep  7, 2017 11:17 -->
<!-- CommandLine: ./K516f-2-10-12-7-6-10-10-10-9-9-3-3-5-4-9-2.abc -O ./K516f-2-10-12-7-6-10-10-10-9-9-3-3-5-4-9-2.svg -g -->
<rect width="100%" height="100%" fill="white"/>
<g stroke-width="0.70" transform="scale(0.867)">
<!-- title: 2-10-12-7-6-10-10-10-9-9-3-3-5-4-9-2 -->
</g>
<g stroke-width="0.70" transform="scale(0.867)" font-family="Times" font-size="20.00">
<text x="436.84" y="22.00" text-anchor="middle">2-10-12-7-6-10-10-10-9-9-3-3-5-4-9-2</text>
</g>
<g stroke-width="0.70" transform="scale(0.867)" font-family="Times" font-size="20.00">
<!-- subtitle: $1K.516f::96:142:10:167:80:129:62:123:120:88:126:56:67:58:72:14::$0 -->
</g>
<g stroke-width="0.70" transform="scale(0.867)" font-family="Courier" font-size="8.00" font-weight="bold">
<text x="436.84" y="41.80" text-anchor="middle">K.516f::96:142:10:167:80:129:62:123:120:88:126:56:67:58:72:14::</text>
</g>
<g stroke-width="0.70" transform="scale(0.867)" font-family="Courier" font-size="8.00" font-weight="bold">
<!-- subtitle: $1Perm. No.: 248821724594862$0 -->
<text x="436.84" y="60.80" text-anchor="middle">Perm. No.: 248821724594862</text>
</g>
<g stroke-width="0.70" transform="scale(0.607)" font-family="Courier" font-size="8.00" font-weight="bold">
<defs>
<ellipse id="hd" rx="4.1" ry="2.9"
	transform="rotate(-20)" class="fill"/>
</defs>
<use x="103.06" y="121.29" xlink:href="#hd"/>
<path d="M106.56 121.29v-21.00" class="stroke"/>
<path class="fill"
	d="M106.56 100.29c0.6 5.6 9.6 9 5.6 18.4
	1.6 -6 -1.3 -11.6 -5.6 -12.8
"/>
</g>
<g stroke-width="0.70" transform="scale(0.867)" font-family="Times" font-size="15.00" font-weight="bold">
<text x="81.24" y="87.00">= 111</text>
<path class="stroke" stroke-width="1"
	d="M11.54 183.00v-82.00"/>
<path class="fill"
	d="M6.54 98.00
	c10.5 1 12 -4.5 12 -3.5c0 1 -3.5 5.5 -8.5 5.5
	v84.00
	c5 0 8.5 4.5 8.5 5.5c0 1 -1.5 -4.5 -12 -3.5"/>
<defs>
<g id="rdots" class="fill">
	<circle cx="0" cy="-9" r="1.2"/>
	<circle cx="0" cy="-15" r="1.2"/>
</g>
</defs>
<use x="70.54" y="125.00" xlink:href="#rdots"/>
<path class="stroke" stroke-width="1"
	d="M66.54 125.00v-24.00"/>
<path class="stroke" stroke-width="3"
	d="M62.04 125.00v-24.00"/>
<use x="70.54" y="183.00" xlink:href="#rdots"/>
<path class="stroke" stroke-width="1"
	d="M66.54 183.00v-58.00"/>
<path class="stroke" stroke-width="3"
	d="M62.04 183.00v-58.00"/>
<path class="stroke" stroke-width="1"
	d="M155.14 125.00v-24.00"/>
<path class="stroke" stroke-width="1"
	d="M155.14 183.00v-58.00"/>
<path class="stroke" stroke-width="1"
	d="M238.64 125.00v-24.00"/>
<path class="stroke" stroke-width="1"
	d="M238.64 183.00v-58.00"/>
<path class="stroke" stroke-width="1"
	d="M355.04 125.00v-24.00"/>
<path class="stroke" stroke-width="1"
	d="M355.04 183.00v-58.00"/>
<path class="stroke" stroke-width="1"
	d="M448.94 125.00v-24.00"/>
<path class="stroke" stroke-width="1"
	d="M448.94 183.00v-58.00"/>
<path class="stroke" stroke-width="1"
	d="M532.54 125.00v-24.00"/>
<path class="stroke" stroke-width="1"
	d="M532.54 183.00v-58.00"/>
<path class="stroke" stroke-width="1"
	d="M637.24 125.00v-24.00"/>
<path class="stroke" stroke-width="1"
	d="M637.24 183.00v-58.00"/>
<path class="stroke" stroke-width="1"
	d="M753.84 125.00v-24.00"/>
<path class="stroke" stroke-width="1"
	d="M753.84 183.00v-58.00"/>
<path class="stroke" stroke-width="3"
	d="M860.54 125.00v-24.00"/>
<path class="stroke" stroke-width="1"
	d="M856.04 125.00v-24.00"/>
<use x="852.04" y="125.00" xlink:href="#rdots"/>
<path class="stroke" stroke-width="3"
	d="M860.54 183.00v-58.00"/>
<path class="stroke" stroke-width="1"
	d="M856.04 183.00v-58.00"/>
<use x="852.04" y="183.00" xlink:href="#rdots"/>
<path d="m11.54 125.00
	h850.50
	M11.54 119.00
	h850.50
	M11.54 113.00
	h850.50
	M11.54 107.00
	h850.50
	M11.54 101.00
	h850.50
	" class="stroke"/>
<path d="m11.54 183.00
	h850.50
	M11.54 177.00
	h850.50
	M11.54 171.00
	h850.50
	M11.54 165.00
	h850.50
	M11.54 159.00
	h850.50
	" class="stroke"/>
</g>
<g stroke-width="0.70" transform="scale(0.867)" font-family="Times" font-size="13.00">
<text x="757.84" y="86.40">1</text>
<path class="stroke"
	d="M753.84 75.00m0 20v-20h100.20v20"/>
<defs>
<path id="utclef" class="fill" d="m-50 -90
	c-72 -41 -72 -158 52 -188
	150 -10 220 188 90 256
	-114 52 -275 0 -293 -136
	-15 -181 93 -229 220 -334
	88 -87 79 -133 62 -210
	-51 33 -94 105 -89 186
	17 267 36 374 49 574
	6 96 -19 134 -77 135
	-80 1 -126 -93 -61 -133
	85 -41 133 101 31 105
	23 17 92 37 90 -92
	-10 -223 -39 -342 -50 -617
	0 -90 0 -162 96 -232
	56 72 63 230 22 289
	-74 106 -257 168 -255 316
	9 153 148 185 252 133
	86 -65 29 -192 -80 -176
	-71 12 -105 67 -59 124"/>
<use id="tclef" transform="translate(0,6) scale(0.045)"
	xlink:href="#utclef"/>
</defs>
<use x="23.54" y="119.00" xlink:href="#tclef"/>
<g font-family="serif" font-size="16" font-weight="bold" font-style="normal"
	transform="translate(42.04,124.50) scale(1.2,1)">
	<text text-anchor="middle">8</text>
	<text y="-12" text-anchor="middle">3</text>
</g>
<path class="fill"
	d="M81.64 131.50l50.80 6.70v-3.20l-50.80 -6.70"/>
<use x="85.54" y="104.00" xlink:href="#hd"/>
<path d="M82.04 104.00v26.60" class="stroke"/>
<use x="110.54" y="110.00" xlink:href="#hd"/>
<path d="M107.04 110.00v23.90" class="stroke"/>
<use x="135.64" y="119.00" xlink:href="#hd"/>
<path d="M132.14 119.00v18.20" class="stroke"/>
<path class="fill"
	d="M165.24 139.80l50.80 -3.20v-3.20l-50.80 3.20"/>
<use x="169.04" y="110.00" xlink:href="#hd"/>
<path d="M165.54 110.00v28.80" class="stroke"/>
<use x="194.14" y="119.00" xlink:href="#hd"/>
<path d="M190.64 119.00v18.20" class="stroke"/>
<use x="219.14" y="104.00" xlink:href="#hd"/>
<path d="M215.64 104.00v31.60" class="stroke"/>
<path class="fill"
	d="M248.84 138.20l89.30 0.00v-3.20l-89.30 -0.00"/>
<path class="fill"
	d="M249.14 133.20l88.60 0.00v-3.20l-88.60 -0.00"/>
<use x="252.64" y="113.00" xlink:href="#hd"/>
<path d="M249.14 113.00v24.20" class="stroke"/>
<use x="270.34" y="116.00" xlink:href="#hd"/>
<path d="M266.84 116.00v21.20" class="stroke"/>
<use x="288.04" y="113.00" xlink:href="#hd"/>
<path d="M284.54 113.00v24.20" class="stroke"/>
<use x="305.74" y="110.00" xlink:href="#hd"/>
<path d="M302.24 110.00v27.20" class="stroke"/>
<use x="323.54" y="107.00" xlink:href="#hd"/>
<path d="M320.04 107.00v30.20" class="stroke"/>
<use x="341.24" y="113.00" xlink:href="#hd"/>
<path d="M337.74 113.00v24.20" class="stroke"/>
<path class="fill"
	d="M365.14 133.00l61.20 0.00v-3.20l-61.20 -0.00"/>
<path class="fill"
	d="M390.54 128.00l17.70 0.00v-3.20l-17.70 -0.00"/>
<use x="368.94" y="110.00" xlink:href="#hd"/>
<path d="M365.44 110.00v21.90" class="stroke"/>
<use x="394.04" y="110.00" xlink:href="#hd"/>
<path d="M390.54 110.00v21.90" class="stroke"/>
<use x="411.74" y="107.00" xlink:href="#hd"/>
<path d="M408.24 107.00v24.90" class="stroke"/>
<use x="429.44" y="104.00" xlink:href="#hd"/>
<path d="M425.94 104.00v27.90" class="stroke"/>
<path class="fill"
	d="M459.04 136.80l50.80 -3.20v-3.20l-50.80 3.20"/>
<use x="462.94" y="107.00" xlink:href="#hd"/>
<path d="M459.44 107.00v28.80" class="stroke"/>
<use x="487.94" y="116.00" xlink:href="#hd"/>
<path d="M484.44 116.00v18.20" class="stroke"/>
<use x="513.04" y="101.00" xlink:href="#hd"/>
<defs>
<path id="usharp" class="fill" d="
	m136 -702
	v890
	h32
	v-890
	m128 840
	h32
	v-888
	h-32
	m-232 286
	v116
	l338 -96
	v-116
	m-338 442
	v116
	l338 -98
	v-114"/>
<use id="sh0" transform="translate(-4,5) scale(0.018)"
	xlink:href="#usharp"/>
</defs>
<use x="504.04" y="101.00" xlink:href="#sh0"/>
<path d="M509.54 101.00v31.60" class="stroke"/>
<path class="fill"
	d="M542.74 121.20l71.80 5.00v-3.20l-71.80 -5.00"/>
<path class="fill"
	d="M543.04 116.20l53.40 3.70v-3.20l-53.40 -3.70"/>
<defs>
<path id="hl" class="stroke" d="m-6 0h12"/>
</defs>
<use x="546.54" y="95.00" xlink:href="#hl"/>
<use x="546.54" y="95.00" xlink:href="#hd"/>
<path d="M543.04 95.00v25.20" class="stroke"/>
<use x="564.24" y="98.00" xlink:href="#hd"/>
<path d="M560.74 98.00v23.50" class="stroke"/>
<use x="582.24" y="101.00" xlink:href="#hd"/>
<use x="573.24" y="101.00" xlink:href="#sh0"/>
<path d="M578.74 101.00v21.70" class="stroke"/>
<use x="599.94" y="98.00" xlink:href="#hd"/>
<path d="M596.44 98.00v26.00" class="stroke"/>
<use x="617.74" y="107.00" xlink:href="#hd"/>
<path d="M614.24 107.00v18.20" class="stroke"/>
<path class="fill"
	d="M654.34 81.80l89.50 8.10v3.20l-89.50 -8.10"/>
<path class="fill"
	d="M654.64 86.80l88.90 8.00v3.20l-88.90 -8.00"/>
<use x="651.14" y="104.00" xlink:href="#hd"/>
<path d="M654.64 104.00v-21.20" class="stroke"/>
<use x="668.84" y="110.00" xlink:href="#hd"/>
<path d="M672.34 110.00v-25.60" class="stroke"/>
<use x="686.64" y="113.00" xlink:href="#hd"/>
<path d="M690.14 113.00v-27.00" class="stroke"/>
<use x="704.34" y="119.00" xlink:href="#hd"/>
<path d="M707.84 119.00v-31.40" class="stroke"/>
<use x="722.04" y="116.00" xlink:href="#hd"/>
<path d="M725.54 116.00v-26.80" class="stroke"/>
<use x="740.04" y="122.00" xlink:href="#hd"/>
<use x="731.04" y="122.00" xlink:href="#sh0"/>
<path d="M743.54 122.00v-31.20" class="stroke"/>
<use x="767.74" y="98.00" xlink:href="#hd"/>
<path d="M764.24 98.00v40.00" class="stroke"/>
<use x="767.74" y="119.00" xlink:href="#hd"/>
<use x="767.74" y="113.00" xlink:href="#hd"/>
<use x="767.74" y="107.00" xlink:href="#hd"/>
<defs>
<path id="r8e" class="fill" d="m 0 0
	c-1.5 1.5 -2.4 2 -3.6 2
	2.4 -2.8 -2.8 -4 -2.8 -1.2
	c0 2.7 4.3 2.4 5.9 0.6"/>
<g id="r8">
	<path d="m3.3 -4l-3.4 9.6" class="stroke"/>
	<use x="3.4" y="-4" xlink:href="#r8e"/>
</g>
</defs>
<use x="828.54" y="113.00" xlink:href="#r8"/>
<defs>
<path id="ubclef" class="fill" d="m-200 -87
	c124 -35 222 -78 254 -236
	43 -228 -167 -246 -192 -103
	59 -80 157 22 92 78
	-62 47 -115 -22 -106 -88
	21 -141 270 -136 274 52
	-1 175 -106 264 -322 297
	m357 -250
	c0 -36 51 -34 51 0
	0 37 -51 36 -51 0
	m-2 -129
	c0 -36 51 -34 51 0
	0 38 -51 37 -51 0"/>
<use id="bclef" transform="translate(0,18) scale(0.045)"
	xlink:href="#ubclef"/>
</defs>
<use x="23.54" y="165.00" xlink:href="#bclef"/>
<g font-family="serif" font-size="16" font-weight="bold" font-style="normal"
	transform="translate(42.04,182.50) scale(1.2,1)">
	<text text-anchor="middle">8</text>
	<text y="-12" text-anchor="middle">3</text>
</g>
<use x="85.54" y="174.00" xlink:href="#hd"/>
<path d="M89.04 174.00v-21.00" class="stroke"/>
<use x="135.64" y="171.00" xlink:href="#r8"/>
<use x="169.04" y="168.00" xlink:href="#hd"/>
<path d="M165.54 168.00v25.00" class="stroke"/>
<use x="169.04" y="174.00" xlink:href="#hd"/>
<use x="219.14" y="171.00" xlink:href="#r8"/>
<use x="252.64" y="162.00" xlink:href="#hd"/>
<path d="M249.14 162.00v21.00" class="stroke"/>
<use x="323.54" y="171.00" xlink:href="#r8"/>
<use x="368.94" y="168.00" xlink:href="#hd"/>
<path d="M365.44 168.00v25.00" class="stroke"/>
<use x="368.94" y="174.00" xlink:href="#hd"/>
<use x="429.44" y="171.00" xlink:href="#r8"/>
<use x="462.94" y="174.00" xlink:href="#hd"/>
<path d="M466.44 174.00v-21.00" class="stroke"/>
<use x="513.04" y="171.00" xlink:href="#r8"/>
<path class="fill"
	d="M549.74 149.50l71.80 -4.70v3.20l-71.80 4.70"/>
<use x="546.54" y="177.00" xlink:href="#hd"/>
<path d="M550.04 177.00v-26.50" class="stroke"/>
<use x="546.54" y="171.00" xlink:href="#hd"/>
<use x="582.24" y="177.00" xlink:href="#hd"/>
<path d="M585.74 177.00v-28.90" class="stroke"/>
<use x="582.24" y="171.00" xlink:href="#hd"/>
<use x="617.74" y="177.00" xlink:href="#hd"/>
<path d="M621.24 177.00v-31.20" class="stroke"/>
<use x="617.74" y="162.00" xlink:href="#hd"/>
<path class="fill"
	d="M654.34 147.60l71.50 8.40v3.20l-71.50 -8.40"/>
<use x="651.14" y="174.00" xlink:href="#hd"/>
<path d="M654.64 174.00v-25.30" class="stroke"/>
<use x="686.64" y="171.00" xlink:href="#hd"/>
<path d="M690.14 171.00v-18.20" class="stroke"/>
<use x="722.04" y="189.00" xlink:href="#hl"/>
<use x="722.04" y="192.00" xlink:href="#hd"/>
<path d="M725.54 192.00v-35.10" class="stroke"/>
<path class="fill"
	d="M763.94 202.20l79.20 0.00v-3.20l-79.20 -0.00"/>
<path class="fill"
	d="M789.34 197.20l53.40 0.00v-3.20l-53.40 -0.00"/>
<use x="767.74" y="183.00" xlink:href="#hd"/>
<path d="M764.24 183.00v18.20" class="stroke"/>
<use x="792.84" y="162.00" xlink:href="#hd"/>
<path d="M789.34 162.00v39.20" class="stroke"/>
<use x="810.84" y="165.00" xlink:href="#hd"/>
<defs>
<path id="unat" class="fill" d="
	m96 -750
	h-32
	v716
	l32 -8
	182 -54
	v282
	h32
	v-706
	l-34 10
	-180 50
	v-290
	m0 592
	v-190
	l182 -52
	v188"/>
<use id="nt0" transform="translate(-3,5) scale(0.018)"
	xlink:href="#unat"/>
</defs>
<use x="801.84" y="165.00" xlink:href="#nt0"/>
<path d="M807.34 165.00v36.20" class="stroke"/>
<use x="828.54" y="168.00" xlink:href="#hd"/>
<path d="M825.04 168.00v33.20" class="stroke"/>
<use x="846.24" y="171.00" xlink:href="#hd"/>
<path d="M842.74 171.00v30.20" class="stroke"/>
<defs>
<path id="turn" class="fill" d="
	m5.2 -8
	c1.4 0.5 0.9 4.8 -2.2 2.8
	l-4.8 -3.5
	c-3 -2 -5.8 1.8 -3.6 4.4
	1 1.1 2 0.8 2.1 -0.1
	0.1 -0.9 -0.7 -1.2 -1.9 -0.6
	-1.4 -0.5 -0.9 -4.8 2.2 -2.8
	l4.8 3.5
	c3 2 5.8 -1.8 3.6 -4.4
	-1 -1.1 -2 -0.8 -2.1 0.1
	-0.1 0.9 0.7 1.2 1.9 0.6"/>
</defs>
<use x="487.94" y="99.00" xlink:href="#turn"/>
</g>
<g stroke-width="0.70" transform="scale(0.867)" font-family="Times" font-size="13.00">
<path class="stroke" stroke-width="1"
	d="M11.54 316.00v-82.00"/>
<path class="fill"
	d="M6.54 231.00
	c10.5 1 12 -4.5 12 -3.5c0 1 -3.5 5.5 -8.5 5.5
	v84.00
	c5 0 8.5 4.5 8.5 5.5c0 1 -1.5 -4.5 -12 -3.5"/>
<use x="140.94" y="258.00" xlink:href="#rdots"/>
<path class="stroke" stroke-width="1"
	d="M136.94 258.00v-24.00"/>
<path class="stroke" stroke-width="3"
	d="M132.44 258.00v-24.00"/>
<use x="140.94" y="316.00" xlink:href="#rdots"/>
<path class="stroke" stroke-width="1"
	d="M136.94 316.00v-58.00"/>
<path class="stroke" stroke-width="3"
	d="M132.44 316.00v-58.00"/>
<path class="stroke" stroke-width="1"
	d="M238.64 258.00v-24.00"/>
<path class="stroke" stroke-width="1"
	d="M238.64 316.00v-58.00"/>
<path class="stroke" stroke-width="1"
	d="M333.84 258.00v-24.00"/>
<path class="stroke" stroke-width="1"
	d="M333.84 316.00v-58.00"/>
<path class="stroke" stroke-width="1"
	d="M429.04 258.00v-24.00"/>
<path class="stroke" stroke-width="1"
	d="M429.04 316.00v-58.00"/>
<path class="stroke" stroke-width="1"
	d="M504.74 258.00v-24.00"/>
<path class="stroke" stroke-width="1"
	d="M504.74 316.00v-58.00"/>
<path class="stroke" stroke-width="1"
	d="M599.94 258.00v-24.00"/>
<path class="stroke" stroke-width="1"
	d="M599.94 316.00v-58.00"/>
<path class="stroke" stroke-width="1"
	d="M695.14 258.00v-24.00"/>
<path class="stroke" stroke-width="1"
	d="M695.14 316.00v-58.00"/>
<path class="stroke" stroke-width="1"
	d="M790.34 258.00v-24.00"/>
<path class="stroke" stroke-width="1"
	d="M790.34 316.00v-58.00"/>
<path class="stroke" stroke-width="3"
	d="M860.54 258.00v-24.00"/>
<path class="stroke" stroke-width="1"
	d="M856.04 258.00v-24.00"/>
<use x="852.04" y="258.00" xlink:href="#rdots"/>
<path class="stroke" stroke-width="3"
	d="M860.54 316.00v-58.00"/>
<path class="stroke" stroke-width="1"
	d="M856.04 316.00v-58.00"/>
<use x="852.04" y="316.00" xlink:href="#rdots"/>
<path d="m11.54 258.00
	h850.50
	M11.54 252.00
	h850.50
	M11.54 246.00
	h850.50
	M11.54 240.00
	h850.50
	M11.54 234.00
	h850.50
	" class="stroke"/>
<path d="m11.54 316.00
	h850.50
	M11.54 310.00
	h850.50
	M11.54 304.00
	h850.50
	M11.54 298.00
	h850.50
	M11.54 292.00
	h850.50
	" class="stroke"/>
<text x="47.54" y="219.40">2</text>
<path class="stroke"
	d="M43.54 208.00m0 20v-20h86.40v20"/>
<use x="23.54" y="252.00" xlink:href="#tclef"/>
<use x="56.04" y="231.00" xlink:href="#hd"/>
<path d="M52.54 231.00v40.00" class="stroke"/>
<use x="56.04" y="252.00" xlink:href="#hd"/>
<use x="56.04" y="246.00" xlink:href="#hd"/>
<use x="56.04" y="240.00" xlink:href="#hd"/>
<use x="107.44" y="246.00" xlink:href="#r8"/>
<path class="fill"
	d="M156.64 260.70l66.30 10.50v-3.20l-66.30 -10.50"/>
<path class="fill"
	d="M176.54 258.90l46.10 7.30v-3.20l-46.10 -7.30"/>
<use x="160.44" y="228.00" xlink:href="#hl"/>
<use x="160.44" y="222.00" xlink:href="#hl"/>
<use x="160.44" y="219.00" xlink:href="#hd"/>
<path d="M156.94 219.00v40.80" class="stroke"/>
<use x="180.04" y="228.00" xlink:href="#hl"/>
<use x="180.04" y="228.00" xlink:href="#hd"/>
<path d="M176.54 228.00v34.90" class="stroke"/>
<use x="198.04" y="234.00" xlink:href="#hd"/>
<use x="189.04" y="234.00" xlink:href="#sh0"/>
<path d="M194.54 234.00v31.80" class="stroke"/>
<use x="212.04" y="240.00" xlink:href="#hd"/>
<path d="M208.54 240.00v28.00" class="stroke"/>
<use x="226.14" y="249.00" xlink:href="#hd"/>
<path d="M222.64 249.00v21.20" class="stroke"/>
<path class="fill"
	d="M247.24 260.00l70.90 0.00v-3.20l-70.90 -0.00"/>
<path class="fill"
	d="M247.64 255.00l70.20 0.00v-3.20l-70.20 -0.00"/>
<use x="251.14" y="231.00" xlink:href="#hd"/>
<path d="M247.64 231.00v28.00" class="stroke"/>
<use x="265.14" y="240.00" xlink:href="#hd"/>
<path d="M261.64 240.00v19.00" class="stroke"/>
<use x="279.24" y="231.00" xlink:href="#hd"/>
<path d="M275.74 231.00v28.00" class="stroke"/>
<use x="293.24" y="228.00" xlink:href="#hl"/>
<use x="293.24" y="225.00" xlink:href="#hd"/>
<path d="M289.74 225.00v34.00" class="stroke"/>
<use x="307.24" y="231.00" xlink:href="#hd"/>
<path d="M303.74 231.00v28.00" class="stroke"/>
<use x="321.34" y="240.00" xlink:href="#hd"/>
<path d="M317.84 240.00v19.00" class="stroke"/>
<path class="fill"
	d="M342.44 274.20l70.90 0.00v-3.20l-70.90 -0.00"/>
<path class="fill"
	d="M342.84 269.20l70.20 0.00v-3.20l-70.20 -0.00"/>
<use x="346.34" y="243.00" xlink:href="#hd"/>
<path d="M342.84 243.00v30.20" class="stroke"/>
<use x="360.34" y="252.00" xlink:href="#hd"/>
<path d="M356.84 252.00v21.20" class="stroke"/>
<use x="374.34" y="243.00" xlink:href="#hd"/>
<path d="M370.84 243.00v30.20" class="stroke"/>
<use x="388.44" y="237.00" xlink:href="#hd"/>
<path d="M384.94 237.00v36.20" class="stroke"/>
<use x="402.44" y="231.00" xlink:href="#hd"/>
<path d="M398.94 231.00v42.20" class="stroke"/>
<use x="416.54" y="237.00" xlink:href="#hd"/>
<path d="M413.04 237.00v36.20" class="stroke"/>
<use x="416.54" y="243.00" xlink:href="#hd"/>
<path class="fill"
	d="M437.64 265.70l28.80 6.60v-3.20l-28.80 -6.60"/>
<path class="fill"
	d="M438.04 260.80l14.00 3.20v-3.20l-14.00 -3.20"/>
<use x="441.54" y="240.00" xlink:href="#hd"/>
<path d="M438.04 240.00v24.80" class="stroke"/>
<use x="455.54" y="246.00" xlink:href="#hd"/>
<path d="M452.04 246.00v22.00" class="stroke"/>
<use x="469.54" y="252.00" xlink:href="#hd"/>
<path d="M466.04 252.00v19.20" class="stroke"/>
<use x="488.94" y="246.00" xlink:href="#r8"/>
<path class="fill"
	d="M513.44 274.20l70.90 0.00v-3.20l-70.90 -0.00"/>
<path class="fill"
	d="M513.74 269.20l70.20 0.00v-3.20l-70.20 -0.00"/>
<use x="517.24" y="243.00" xlink:href="#hd"/>
<path d="M513.74 243.00v30.20" class="stroke"/>
<use x="531.24" y="246.00" xlink:href="#hd"/>
<path d="M527.74 246.00v27.20" class="stroke"/>
<use x="545.34" y="243.00" xlink:href="#hd"/>
<path d="M541.84 243.00v30.20" class="stroke"/>
<use x="559.34" y="237.00" xlink:href="#hd"/>
<path d="M555.84 237.00v36.20" class="stroke"/>
<use x="573.44" y="252.00" xlink:href="#hd"/>
<path d="M569.94 252.00v21.20" class="stroke"/>
<use x="587.44" y="243.00" xlink:href="#hd"/>
<path d="M583.94 243.00v30.20" class="stroke"/>
<path class="fill"
	d="M608.64 253.70l56.80 8.50v-3.20l-56.80 -8.50"/>
<use x="612.44" y="231.00" xlink:href="#hd"/>
<path d="M608.94 231.00v21.80" class="stroke"/>
<use x="640.54" y="237.00" xlink:href="#hd"/>
<path d="M637.04 237.00v20.00" class="stroke"/>
<use x="668.64" y="243.00" xlink:href="#hd"/>
<path d="M665.14 243.00v18.20" class="stroke"/>
<path class="fill"
	d="M703.84 266.00l70.90 0.00v-3.20l-70.90 -0.00"/>
<path class="fill"
	d="M704.14 261.00l70.20 0.00v-3.20l-70.20 -0.00"/>
<use x="707.64" y="234.00" xlink:href="#hd"/>
<path d="M704.14 234.00v30.90" class="stroke"/>
<use x="721.64" y="237.00" xlink:href="#hd"/>
<path d="M718.14 237.00v27.90" class="stroke"/>
<use x="735.74" y="240.00" xlink:href="#hd"/>
<path d="M732.24 240.00v24.90" class="stroke"/>
<use x="749.74" y="243.00" xlink:href="#hd"/>
<path d="M746.24 243.00v21.90" class="stroke"/>
<use x="763.74" y="246.00" xlink:href="#hd"/>
<path d="M760.24 246.00v18.90" class="stroke"/>
<use x="777.84" y="240.00" xlink:href="#hd"/>
<path d="M774.34 240.00v24.90" class="stroke"/>
<use x="802.84" y="243.00" xlink:href="#hd"/>
<path d="M799.34 243.00v21.00" class="stroke"/>
<use x="841.54" y="246.00" xlink:href="#r8"/>
<use x="23.54" y="298.00" xlink:href="#bclef"/>
<path class="fill"
	d="M52.24 335.20l66.10 -4.90v-3.20l-66.10 4.90"/>
<path class="fill"
	d="M71.94 328.80l46.10 -3.40v-3.20l-46.10 3.40"/>
<use x="56.04" y="316.00" xlink:href="#hd"/>
<path d="M52.54 316.00v18.20" class="stroke"/>
<use x="75.44" y="289.00" xlink:href="#hd"/>
<path d="M71.94 289.00v43.80" class="stroke"/>
<use x="89.44" y="295.00" xlink:href="#hd"/>
<path d="M85.94 295.00v36.70" class="stroke"/>
<use x="107.44" y="298.00" xlink:href="#hd"/>
<use x="98.44" y="298.00" xlink:href="#sh0"/>
<path d="M103.94 298.00v32.40" class="stroke"/>
<use x="121.44" y="301.00" xlink:href="#hd"/>
<path d="M117.94 301.00v28.40" class="stroke"/>
<use x="160.44" y="298.00" xlink:href="#hd"/>
<use x="151.44" y="298.00" xlink:href="#sh0"/>
<path d="M156.94 298.00v25.00" class="stroke"/>
<use x="160.44" y="304.00" xlink:href="#hd"/>
<use x="212.04" y="298.00" xlink:href="#hd"/>
<path d="M208.54 298.00v28.00" class="stroke"/>
<path class="fill"
	d="M208.54 326.00c0.6 -5.6 9.6 -9 5.6 -18.4
	1.6 6 -1.3 11.6 -5.6 12.8
"/>
<use x="212.04" y="307.00" xlink:href="#hd"/>
<use x="251.14" y="310.00" xlink:href="#hd"/>
<path d="M254.64 310.00v-25.00" class="stroke"/>
<use x="251.14" y="304.00" xlink:href="#hd"/>
<use x="307.24" y="310.00" xlink:href="#hd"/>
<path d="M310.74 310.00v-25.00" class="stroke"/>
<path class="fill"
	d="M310.74 285.00c0.6 5.6 9.6 9 5.6 18.4
	1.6 -6 -1.3 -11.6 -5.6 -12.8
"/>
<use x="307.24" y="304.00" xlink:href="#hd"/>
<use x="346.34" y="301.00" xlink:href="#hd"/>
<path d="M342.84 301.00v21.00" class="stroke"/>
<path class="fill"
	d="M398.64 325.90l14.70 3.40v-3.20l-14.70 -3.40"/>
<path class="fill"
	d="M398.94 321.00l14.00 3.20v-3.20l-14.00 -3.20"/>
<use x="402.44" y="301.00" xlink:href="#hd"/>
<path d="M398.94 301.00v24.00" class="stroke"/>
<use x="416.54" y="307.00" xlink:href="#hd"/>
<path d="M413.04 307.00v21.20" class="stroke"/>
<use x="441.54" y="316.00" xlink:href="#hd"/>
<path d="M445.04 316.00v-40.00" class="stroke"/>
<use x="441.54" y="295.00" xlink:href="#hd"/>
<use x="488.94" y="295.00" xlink:href="#hd"/>
<path d="M485.44 295.00v21.00" class="stroke"/>
<path class="fill"
	d="M485.44 316.00c0.6 -5.6 9.6 -9 5.6 -18.4
	1.6 6 -1.3 11.6 -5.6 12.8
"/>
<use x="517.24" y="301.00" xlink:href="#hd"/>
<path d="M513.74 301.00v25.00" class="stroke"/>
<use x="517.24" y="307.00" xlink:href="#hd"/>
<use x="573.44" y="295.00" xlink:href="#hd"/>
<path d="M569.94 295.00v25.00" class="stroke"/>
<path class="fill"
	d="M569.94 320.00c0.6 -5.6 9.6 -9 5.6 -18.4
	1.6 6 -1.3 11.6 -5.6 12.8
"/>
<use x="573.44" y="301.00" xlink:href="#hd"/>
<path class="fill"
	d="M608.64 323.90l70.90 0.00v-3.20l-70.90 -0.00"/>
<path class="fill"
	d="M608.94 318.90l70.20 0.00v-3.20l-70.20 -0.00"/>
<use x="612.44" y="301.00" xlink:href="#hd"/>
<path d="M608.94 301.00v21.90" class="stroke"/>
<use x="612.44" y="307.00" xlink:href="#hd"/>
<use x="626.44" y="295.00" xlink:href="#hd"/>
<path d="M622.94 295.00v27.90" class="stroke"/>
<use x="640.54" y="301.00" xlink:href="#hd"/>
<path d="M637.04 301.00v21.90" class="stroke"/>
<use x="640.54" y="307.00" xlink:href="#hd"/>
<use x="654.54" y="295.00" xlink:href="#hd"/>
<path d="M651.04 295.00v27.90" class="stroke"/>
<use x="668.64" y="301.00" xlink:href="#hd"/>
<path d="M665.14 301.00v21.90" class="stroke"/>
<use x="668.64" y="307.00" xlink:href="#hd"/>
<use x="682.64" y="295.00" xlink:href="#hd"/>
<path d="M679.14 295.00v27.90" class="stroke"/>
<use x="707.64" y="298.00" xlink:href="#hd"/>
<path d="M704.14 298.00v21.00" class="stroke"/>
<use x="763.74" y="295.00" xlink:href="#hd"/>
<path d="M760.24 295.00v21.00" class="stroke"/>
<path class="fill"
	d="M760.24 316.00c0.6 -5.6 9.6 -9 5.6 -18.4
	1.6 6 -1.3 11.6 -5.6 12.8
"/>
<path class="fill"
	d="M805.94 287.70l39.40 9.50v3.20l-39.40 -9.50"/>
<use x="802.84" y="307.00" xlink:href="#hd"/>
<path d="M806.34 307.00v-18.20" class="stroke"/>
<use x="822.14" y="316.00" xlink:href="#hd"/>
<path d="M825.64 316.00v-22.50" class="stroke"/>
<use x="841.54" y="322.00" xlink:href="#hl"/>
<use x="841.54" y="328.00" xlink:href="#hl"/>
<use x="841.54" y="328.00" xlink:href="#hd"/>
<path d="M845.04 328.00v-29.90" class="stroke"/>
</g>
</svg>
