<?xml version="1.0" standalone="no"?>
<!DOCTYPE svg PUBLIC "-//W3C//DTD SVG 1.1//EN"
	"http://www.w3.org/Graphics/SVG/1.1/DTD/svg11.dtd">
<svg xmlns="http://www.w3.org/2000/svg" version="1.1"
	xmlns:xlink="http://www.w3.org/1999/xlink"
	color="black"
	width="757.10px" height="301.60px">
<style type="text/css">
.fill {fill: currentColor}
.stroke {stroke: currentColor; fill: none}
text{white-space: pre}
</style>
<title>./K516f-8-11-11-10-6-9-10-8-6-11-3-11-10-5-3-12.abc (4645) tune 1</title>
<!-- Creator: abcm2ps-8.13.8 -->
<!-- CreationDate: Sep  7, 2017 11:19 -->
<!-- CommandLine: ./K516f-8-11-11-10-6-9-10-8-6-11-3-11-10-5-3-12.abc -O ./K516f-8-11-11-10-6-9-10-8-6-11-3-11-10-5-3-12.svg -g -->
<rect width="100%" height="100%" fill="white"/>
<g stroke-width="0.70" transform="scale(0.867)">
<!-- title: 8-11-11-10-6-9-10-8-6-11-3-11-10-5-3-12 -->
</g>
<g stroke-width="0.70" transform="scale(0.867)" font-family="Times" font-size="20.00">
<text x="436.84" y="22.00" text-anchor="middle">8-11-11-10-6-9-10-8-6-11-3-11-10-5-3-12</text>
</g>
<g stroke-width="0.70" transform="scale(0.867)" font-family="Times" font-size="20.00">
<!-- subtitle: $1K.516f::152:87:165:156:80:86:62:127:25:4:126:164:137:160:116:131::$0 -->
</g>
<g stroke-width="0.70" transform="scale(0.867)" font-family="Courier" font-size="8.00" font-weight="bold">
<text x="436.84" y="41.80" text-anchor="middle">K.516f::152:87:165:156:80:86:62:127:25:4:126:164:137:160:116:131::</text>
</g>
<g stroke-width="0.70" transform="scale(0.867)" font-family="Courier" font-size="8.00" font-weight="bold">
<!-- subtitle: $1Perm. No.: 46458307956947$0 -->
<text x="436.84" y="60.80" text-anchor="middle">Perm. No.: 46458307956947</text>
</g>
<g stroke-width="0.70" transform="scale(0.607)" font-family="Courier" font-size="8.00" font-weight="bold">
<defs>
<ellipse id="hd" rx="4.1" ry="2.9"
	transform="rotate(-20)" class="fill"/>
</defs>
<use x="103.06" y="121.29" xlink:href="#hd"/>
<path d="M106.56 121.29v-21.00" class="stroke"/>
<path class="fill"
	d="M106.56 100.29c0.6 5.6 9.6 9 5.6 18.4
	1.6 -6 -1.3 -11.6 -5.6 -12.8
"/>
</g>
<g stroke-width="0.70" transform="scale(0.867)" font-family="Times" font-size="15.00" font-weight="bold">
<text x="81.24" y="87.00">= 111</text>
<path class="stroke" stroke-width="1"
	d="M11.54 183.00v-82.00"/>
<path class="fill"
	d="M6.54 98.00
	c10.5 1 12 -4.5 12 -3.5c0 1 -3.5 5.5 -8.5 5.5
	v84.00
	c5 0 8.5 4.5 8.5 5.5c0 1 -1.5 -4.5 -12 -3.5"/>
<defs>
<g id="rdots" class="fill">
	<circle cx="0" cy="-9" r="1.2"/>
	<circle cx="0" cy="-15" r="1.2"/>
</g>
</defs>
<use x="70.54" y="125.00" xlink:href="#rdots"/>
<path class="stroke" stroke-width="1"
	d="M66.54 125.00v-24.00"/>
<path class="stroke" stroke-width="3"
	d="M62.04 125.00v-24.00"/>
<use x="70.54" y="183.00" xlink:href="#rdots"/>
<path class="stroke" stroke-width="1"
	d="M66.54 183.00v-58.00"/>
<path class="stroke" stroke-width="3"
	d="M62.04 183.00v-58.00"/>
<path class="stroke" stroke-width="1"
	d="M179.04 125.00v-24.00"/>
<path class="stroke" stroke-width="1"
	d="M179.04 183.00v-58.00"/>
<path class="stroke" stroke-width="1"
	d="M263.84 125.00v-24.00"/>
<path class="stroke" stroke-width="1"
	d="M263.84 183.00v-58.00"/>
<path class="stroke" stroke-width="1"
	d="M348.64 125.00v-24.00"/>
<path class="stroke" stroke-width="1"
	d="M348.64 183.00v-58.00"/>
<path class="stroke" stroke-width="1"
	d="M454.44 125.00v-24.00"/>
<path class="stroke" stroke-width="1"
	d="M454.44 183.00v-58.00"/>
<path class="stroke" stroke-width="1"
	d="M539.24 125.00v-24.00"/>
<path class="stroke" stroke-width="1"
	d="M539.24 183.00v-58.00"/>
<path class="stroke" stroke-width="1"
	d="M634.54 125.00v-24.00"/>
<path class="stroke" stroke-width="1"
	d="M634.54 183.00v-58.00"/>
<path class="stroke" stroke-width="1"
	d="M752.54 125.00v-24.00"/>
<path class="stroke" stroke-width="1"
	d="M752.54 183.00v-58.00"/>
<path class="stroke" stroke-width="3"
	d="M860.54 125.00v-24.00"/>
<path class="stroke" stroke-width="1"
	d="M856.04 125.00v-24.00"/>
<use x="852.04" y="125.00" xlink:href="#rdots"/>
<path class="stroke" stroke-width="3"
	d="M860.54 183.00v-58.00"/>
<path class="stroke" stroke-width="1"
	d="M856.04 183.00v-58.00"/>
<use x="852.04" y="183.00" xlink:href="#rdots"/>
<path d="m11.54 125.00
	h850.50
	M11.54 119.00
	h850.50
	M11.54 113.00
	h850.50
	M11.54 107.00
	h850.50
	M11.54 101.00
	h850.50
	" class="stroke"/>
<path d="m11.54 183.00
	h850.50
	M11.54 177.00
	h850.50
	M11.54 171.00
	h850.50
	M11.54 165.00
	h850.50
	M11.54 159.00
	h850.50
	" class="stroke"/>
<path class="fill"
	d="M281.94 103.40c7.24 -3.06 39.63 2.19 46.87 7.60
	v-0.25c-8.64 -7.16 -38.23 -12.41 -46.87 -7.35"/>
</g>
<g stroke-width="0.70" transform="scale(0.867)" font-family="Times" font-size="13.00">
<text x="756.54" y="86.40">1</text>
<path class="stroke"
	d="M752.54 75.00m0 20v-20h101.50v20"/>
<defs>
<path id="utclef" class="fill" d="m-50 -90
	c-72 -41 -72 -158 52 -188
	150 -10 220 188 90 256
	-114 52 -275 0 -293 -136
	-15 -181 93 -229 220 -334
	88 -87 79 -133 62 -210
	-51 33 -94 105 -89 186
	17 267 36 374 49 574
	6 96 -19 134 -77 135
	-80 1 -126 -93 -61 -133
	85 -41 133 101 31 105
	23 17 92 37 90 -92
	-10 -223 -39 -342 -50 -617
	0 -90 0 -162 96 -232
	56 72 63 230 22 289
	-74 106 -257 168 -255 316
	9 153 148 185 252 133
	86 -65 29 -192 -80 -176
	-71 12 -105 67 -59 124"/>
<use id="tclef" transform="translate(0,6) scale(0.045)"
	xlink:href="#utclef"/>
</defs>
<use x="23.54" y="119.00" xlink:href="#tclef"/>
<g font-family="serif" font-size="16" font-weight="bold" font-style="normal"
	transform="translate(42.04,124.50) scale(1.2,1)">
	<text text-anchor="middle">8</text>
	<text y="-12" text-anchor="middle">3</text>
</g>
<path class="fill"
	d="M81.84 122.90l80.00 9.40v-3.20l-80.00 -9.40"/>
<path class="fill"
	d="M107.64 120.90l53.90 6.30v-3.20l-53.90 -6.30"/>
<use x="85.64" y="98.00" xlink:href="#hd"/>
<path d="M82.14 98.00v23.90" class="stroke"/>
<use x="111.14" y="101.00" xlink:href="#hd"/>
<path d="M107.64 101.00v23.90" class="stroke"/>
<use x="129.04" y="104.00" xlink:href="#hd"/>
<path d="M125.54 104.00v23.00" class="stroke"/>
<use x="147.04" y="107.00" xlink:href="#hd"/>
<path d="M143.54 107.00v22.10" class="stroke"/>
<use x="165.04" y="110.00" xlink:href="#hd"/>
<path d="M161.54 110.00v21.20" class="stroke"/>
<path class="fill"
	d="M189.34 127.60l51.60 3.20v-3.20l-51.60 -3.20"/>
<use x="193.14" y="98.00" xlink:href="#hd"/>
<path d="M189.64 98.00v28.60" class="stroke"/>
<use x="218.54" y="110.00" xlink:href="#hd"/>
<path d="M215.04 110.00v18.20" class="stroke"/>
<use x="244.04" y="104.00" xlink:href="#hd"/>
<path d="M240.54 104.00v25.80" class="stroke"/>
<path class="fill"
	d="M274.14 130.00l51.60 8.30v-3.20l-51.60 -8.30"/>
<use x="277.94" y="107.00" xlink:href="#hd"/>
<path d="M274.44 107.00v22.00" class="stroke"/>
<use x="303.34" y="113.00" xlink:href="#hd"/>
<path d="M299.84 113.00v20.10" class="stroke"/>
<use x="328.84" y="119.00" xlink:href="#hd"/>
<path d="M325.34 119.00v18.20" class="stroke"/>
<path class="fill"
	d="M358.94 142.90l72.60 -6.60v-3.20l-72.60 6.60"/>
<path class="fill"
	d="M359.24 137.80l53.90 -4.90v-3.20l-53.90 4.90"/>
<use x="362.74" y="110.00" xlink:href="#hd"/>
<path d="M359.24 110.00v31.80" class="stroke"/>
<use x="380.74" y="119.00" xlink:href="#hd"/>
<path d="M377.24 119.00v21.20" class="stroke"/>
<use x="398.64" y="104.00" xlink:href="#hd"/>
<path d="M395.14 104.00v34.60" class="stroke"/>
<use x="416.64" y="110.00" xlink:href="#hd"/>
<path d="M413.14 110.00v27.00" class="stroke"/>
<use x="434.64" y="98.00" xlink:href="#hd"/>
<path d="M431.14 98.00v37.30" class="stroke"/>
<path class="fill"
	d="M464.74 136.80l51.60 -3.20v-3.20l-51.60 3.20"/>
<use x="468.54" y="107.00" xlink:href="#hd"/>
<path d="M465.04 107.00v28.80" class="stroke"/>
<use x="493.94" y="116.00" xlink:href="#hd"/>
<path d="M490.44 116.00v18.20" class="stroke"/>
<use x="519.44" y="101.00" xlink:href="#hd"/>
<defs>
<path id="usharp" class="fill" d="
	m136 -702
	v890
	h32
	v-890
	m128 840
	h32
	v-888
	h-32
	m-232 286
	v116
	l338 -96
	v-116
	m-338 442
	v116
	l338 -98
	v-114"/>
<use id="sh0" transform="translate(-4,5) scale(0.018)"
	xlink:href="#usharp"/>
</defs>
<use x="510.44" y="101.00" xlink:href="#sh0"/>
<path d="M515.94 101.00v31.60" class="stroke"/>
<path class="fill"
	d="M549.54 132.20l62.10 -7.20v-3.20l-62.10 7.20"/>
<path class="fill"
	d="M575.24 124.20l18.00 -2.10v-3.20l-18.00 2.10"/>
<use x="553.34" y="107.00" xlink:href="#hd"/>
<path d="M549.84 107.00v24.20" class="stroke"/>
<use x="578.74" y="107.00" xlink:href="#hd"/>
<path d="M575.24 107.00v21.20" class="stroke"/>
<use x="596.74" y="98.00" xlink:href="#hd"/>
<path d="M593.24 98.00v28.10" class="stroke"/>
<defs>
<path id="hl" class="stroke" d="m-6 0h12"/>
</defs>
<use x="614.74" y="95.00" xlink:href="#hl"/>
<use x="614.74" y="92.00" xlink:href="#hd"/>
<path d="M611.24 92.00v32.00" class="stroke"/>
<path class="fill"
	d="M651.84 81.80l90.60 8.10v3.20l-90.60 -8.10"/>
<path class="fill"
	d="M652.14 86.80l89.90 8.00v3.20l-89.90 -8.00"/>
<use x="648.64" y="104.00" xlink:href="#hd"/>
<path d="M652.14 104.00v-21.20" class="stroke"/>
<use x="666.64" y="110.00" xlink:href="#hd"/>
<path d="M670.14 110.00v-25.60" class="stroke"/>
<use x="684.64" y="113.00" xlink:href="#hd"/>
<path d="M688.14 113.00v-27.00" class="stroke"/>
<use x="702.54" y="119.00" xlink:href="#hd"/>
<path d="M706.04 119.00v-31.40" class="stroke"/>
<use x="720.54" y="116.00" xlink:href="#hd"/>
<path d="M724.04 116.00v-26.80" class="stroke"/>
<use x="738.54" y="122.00" xlink:href="#hd"/>
<use x="729.54" y="122.00" xlink:href="#sh0"/>
<path d="M742.04 122.00v-31.20" class="stroke"/>
<use x="766.64" y="98.00" xlink:href="#hd"/>
<path d="M763.14 98.00v40.00" class="stroke"/>
<use x="766.64" y="119.00" xlink:href="#hd"/>
<use x="766.64" y="113.00" xlink:href="#hd"/>
<use x="766.64" y="107.00" xlink:href="#hd"/>
<defs>
<path id="r8e" class="fill" d="m 0 0
	c-1.5 1.5 -2.4 2 -3.6 2
	2.4 -2.8 -2.8 -4 -2.8 -1.2
	c0 2.7 4.3 2.4 5.9 0.6"/>
<g id="r8">
	<path d="m3.3 -4l-3.4 9.6" class="stroke"/>
	<use x="3.4" y="-4" xlink:href="#r8e"/>
</g>
</defs>
<use x="828.04" y="113.00" xlink:href="#r8"/>
<defs>
<path id="ubclef" class="fill" d="m-200 -87
	c124 -35 222 -78 254 -236
	43 -228 -167 -246 -192 -103
	59 -80 157 22 92 78
	-62 47 -115 -22 -106 -88
	21 -141 270 -136 274 52
	-1 175 -106 264 -322 297
	m357 -250
	c0 -36 51 -34 51 0
	0 37 -51 36 -51 0
	m-2 -129
	c0 -36 51 -34 51 0
	0 38 -51 37 -51 0"/>
<use id="bclef" transform="translate(0,18) scale(0.045)"
	xlink:href="#ubclef"/>
</defs>
<use x="23.54" y="165.00" xlink:href="#bclef"/>
<g font-family="serif" font-size="16" font-weight="bold" font-style="normal"
	transform="translate(42.04,182.50) scale(1.2,1)">
	<text text-anchor="middle">8</text>
	<text y="-12" text-anchor="middle">3</text>
</g>
<use x="85.64" y="168.00" xlink:href="#hd"/>
<path d="M82.14 168.00v25.00" class="stroke"/>
<use x="85.64" y="174.00" xlink:href="#hd"/>
<use x="147.04" y="171.00" xlink:href="#r8"/>
<use x="193.14" y="168.00" xlink:href="#hd"/>
<path d="M189.64 168.00v25.00" class="stroke"/>
<use x="193.14" y="174.00" xlink:href="#hd"/>
<use x="244.04" y="162.00" xlink:href="#hd"/>
<path d="M240.54 162.00v31.00" class="stroke"/>
<path class="fill"
	d="M240.54 193.00c0.6 -5.6 9.6 -9 5.6 -18.4
	1.6 6 -1.3 11.6 -5.6 12.8
"/>
<use x="244.04" y="174.00" xlink:href="#hd"/>
<use x="277.94" y="177.00" xlink:href="#hd"/>
<path d="M281.44 177.00v-21.00" class="stroke"/>
<use x="328.84" y="171.00" xlink:href="#r8"/>
<use x="362.74" y="162.00" xlink:href="#hd"/>
<path d="M359.24 162.00v25.00" class="stroke"/>
<use x="362.74" y="168.00" xlink:href="#hd"/>
<use x="434.64" y="171.00" xlink:href="#r8"/>
<use x="468.54" y="174.00" xlink:href="#hd"/>
<path d="M472.04 174.00v-21.00" class="stroke"/>
<use x="519.44" y="171.00" xlink:href="#r8"/>
<use x="553.34" y="162.00" xlink:href="#hd"/>
<path d="M549.84 162.00v34.00" class="stroke"/>
<use x="553.34" y="177.00" xlink:href="#hd"/>
<use x="614.74" y="171.00" xlink:href="#r8"/>
<path class="fill"
	d="M651.84 147.60l72.60 8.40v3.20l-72.60 -8.40"/>
<use x="648.64" y="174.00" xlink:href="#hd"/>
<path d="M652.14 174.00v-25.40" class="stroke"/>
<use x="684.64" y="171.00" xlink:href="#hd"/>
<path d="M688.14 171.00v-18.20" class="stroke"/>
<use x="720.54" y="189.00" xlink:href="#hl"/>
<use x="720.54" y="192.00" xlink:href="#hd"/>
<path d="M724.04 192.00v-35.00" class="stroke"/>
<path class="fill"
	d="M762.84 202.20l80.10 0.00v-3.20l-80.10 -0.00"/>
<path class="fill"
	d="M788.64 197.20l54.00 0.00v-3.20l-54.00 -0.00"/>
<use x="766.64" y="183.00" xlink:href="#hd"/>
<path d="M763.14 183.00v18.20" class="stroke"/>
<use x="792.14" y="162.00" xlink:href="#hd"/>
<path d="M788.64 162.00v39.20" class="stroke"/>
<use x="810.14" y="165.00" xlink:href="#hd"/>
<defs>
<path id="unat" class="fill" d="
	m96 -750
	h-32
	v716
	l32 -8
	182 -54
	v282
	h32
	v-706
	l-34 10
	-180 50
	v-290
	m0 592
	v-190
	l182 -52
	v188"/>
<use id="nt0" transform="translate(-3,5) scale(0.018)"
	xlink:href="#unat"/>
</defs>
<use x="801.14" y="165.00" xlink:href="#nt0"/>
<path d="M806.64 165.00v36.20" class="stroke"/>
<use x="828.04" y="168.00" xlink:href="#hd"/>
<path d="M824.54 168.00v33.20" class="stroke"/>
<use x="846.04" y="171.00" xlink:href="#hd"/>
<path d="M842.54 171.00v30.20" class="stroke"/>
<defs>
<path id="turn" class="fill" d="
	m5.2 -8
	c1.4 0.5 0.9 4.8 -2.2 2.8
	l-4.8 -3.5
	c-3 -2 -5.8 1.8 -3.6 4.4
	1 1.1 2 0.8 2.1 -0.1
	0.1 -0.9 -0.7 -1.2 -1.9 -0.6
	-1.4 -0.5 -0.9 -4.8 2.2 -2.8
	l4.8 3.5
	c3 2 5.8 -1.8 3.6 -4.4
	-1 -1.1 -2 -0.8 -2.1 0.1
	-0.1 0.9 0.7 1.2 1.9 0.6"/>
</defs>
<use x="493.94" y="99.00" xlink:href="#turn"/>
</g>
<g stroke-width="0.70" transform="scale(0.867)" font-family="Times" font-size="13.00">
<path class="stroke" stroke-width="1"
	d="M11.54 322.00v-88.00"/>
<path class="fill"
	d="M6.54 231.00
	c10.5 1 12 -4.5 12 -3.5c0 1 -3.5 5.5 -8.5 5.5
	v90.00
	c5 0 8.5 4.5 8.5 5.5c0 1 -1.5 -4.5 -12 -3.5"/>
<use x="139.64" y="258.00" xlink:href="#rdots"/>
<path class="stroke" stroke-width="1"
	d="M135.64 258.00v-24.00"/>
<path class="stroke" stroke-width="3"
	d="M131.14 258.00v-24.00"/>
<use x="139.64" y="322.00" xlink:href="#rdots"/>
<path class="stroke" stroke-width="1"
	d="M135.64 322.00v-64.00"/>
<path class="stroke" stroke-width="3"
	d="M131.14 322.00v-64.00"/>
<path class="stroke" stroke-width="1"
	d="M242.84 258.00v-24.00"/>
<path class="stroke" stroke-width="1"
	d="M242.84 322.00v-64.00"/>
<path class="stroke" stroke-width="1"
	d="M318.34 258.00v-24.00"/>
<path class="stroke" stroke-width="1"
	d="M318.34 322.00v-64.00"/>
<path class="stroke" stroke-width="1"
	d="M411.84 258.00v-24.00"/>
<path class="stroke" stroke-width="1"
	d="M411.84 322.00v-64.00"/>
<path class="stroke" stroke-width="1"
	d="M511.04 258.00v-24.00"/>
<path class="stroke" stroke-width="1"
	d="M511.04 322.00v-64.00"/>
<path class="stroke" stroke-width="1"
	d="M604.54 258.00v-24.00"/>
<path class="stroke" stroke-width="1"
	d="M604.54 322.00v-64.00"/>
<path class="stroke" stroke-width="1"
	d="M698.04 258.00v-24.00"/>
<path class="stroke" stroke-width="1"
	d="M698.04 322.00v-64.00"/>
<path class="stroke" stroke-width="1"
	d="M791.54 258.00v-24.00"/>
<path class="stroke" stroke-width="1"
	d="M791.54 322.00v-64.00"/>
<path class="stroke" stroke-width="3"
	d="M860.54 258.00v-24.00"/>
<path class="stroke" stroke-width="1"
	d="M856.04 258.00v-24.00"/>
<use x="852.04" y="258.00" xlink:href="#rdots"/>
<path class="stroke" stroke-width="3"
	d="M860.54 322.00v-64.00"/>
<path class="stroke" stroke-width="1"
	d="M856.04 322.00v-64.00"/>
<use x="852.04" y="322.00" xlink:href="#rdots"/>
<path d="m11.54 258.00
	h850.50
	M11.54 252.00
	h850.50
	M11.54 246.00
	h850.50
	M11.54 240.00
	h850.50
	M11.54 234.00
	h850.50
	" class="stroke"/>
<path d="m11.54 322.00
	h850.50
	M11.54 316.00
	h850.50
	M11.54 310.00
	h850.50
	M11.54 304.00
	h850.50
	M11.54 298.00
	h850.50
	" class="stroke"/>
<text x="47.54" y="219.40">2</text>
<path class="stroke"
	d="M43.54 208.00m0 20v-20h85.10v20"/>
<use x="23.54" y="252.00" xlink:href="#tclef"/>
<use x="56.04" y="231.00" xlink:href="#hd"/>
<path d="M52.54 231.00v40.00" class="stroke"/>
<use x="56.04" y="252.00" xlink:href="#hd"/>
<use x="56.04" y="246.00" xlink:href="#hd"/>
<use x="56.04" y="240.00" xlink:href="#hd"/>
<use x="106.44" y="246.00" xlink:href="#r8"/>
<path class="fill"
	d="M149.34 281.30l77.80 -13.10v-3.20l-77.80 13.10"/>
<path class="fill"
	d="M149.64 276.20l77.10 -13.00v-3.20l-77.10 13.00"/>
<use x="153.14" y="261.00" xlink:href="#hd"/>
<path d="M149.64 261.00v19.20" class="stroke"/>
<use x="171.14" y="255.00" xlink:href="#hd"/>
<use x="162.14" y="255.00" xlink:href="#sh0"/>
<path d="M167.64 255.00v22.20" class="stroke"/>
<use x="184.94" y="249.00" xlink:href="#hd"/>
<path d="M181.44 249.00v25.90" class="stroke"/>
<use x="198.64" y="240.00" xlink:href="#hd"/>
<path d="M195.14 240.00v32.60" class="stroke"/>
<use x="216.64" y="234.00" xlink:href="#hd"/>
<use x="207.64" y="234.00" xlink:href="#sh0"/>
<path d="M213.14 234.00v35.50" class="stroke"/>
<use x="230.34" y="228.00" xlink:href="#hl"/>
<use x="230.34" y="228.00" xlink:href="#hd"/>
<path d="M226.84 228.00v39.20" class="stroke"/>
<use x="255.34" y="231.00" xlink:href="#hd"/>
<path d="M251.84 231.00v21.00" class="stroke"/>
<path class="fill"
	d="M251.84 252.00c0.6 -5.6 9.6 -9 5.6 -18.4
	1.6 6 -1.3 11.6 -5.6 12.8
"/>
<use x="284.04" y="240.00" xlink:href="#hd"/>
<path d="M280.54 240.00v21.00" class="stroke"/>
<path class="fill"
	d="M326.94 274.20l69.20 0.00v-3.20l-69.20 -0.00"/>
<path class="fill"
	d="M327.34 269.20l68.50 0.00v-3.20l-68.50 -0.00"/>
<use x="330.84" y="243.00" xlink:href="#hd"/>
<path d="M327.34 243.00v30.20" class="stroke"/>
<use x="344.54" y="252.00" xlink:href="#hd"/>
<path d="M341.04 252.00v21.20" class="stroke"/>
<use x="358.24" y="243.00" xlink:href="#hd"/>
<path d="M354.74 243.00v30.20" class="stroke"/>
<use x="371.94" y="237.00" xlink:href="#hd"/>
<path d="M368.44 237.00v36.20" class="stroke"/>
<use x="385.64" y="231.00" xlink:href="#hd"/>
<path d="M382.14 231.00v42.20" class="stroke"/>
<use x="399.34" y="237.00" xlink:href="#hd"/>
<path d="M395.84 237.00v36.20" class="stroke"/>
<use x="399.34" y="243.00" xlink:href="#hd"/>
<use x="424.34" y="240.00" xlink:href="#hd"/>
<path d="M420.84 240.00v21.00" class="stroke"/>
<path class="fill"
	d="M420.84 261.00c0.6 -5.6 9.6 -9 5.6 -18.4
	1.6 6 -1.3 11.6 -5.6 12.8
"/>
<use x="457.44" y="252.00" xlink:href="#hd"/>
<path d="M460.94 252.00v-21.00" class="stroke"/>
<path class="fill"
	d="M519.64 272.80l55.50 -3.20v-3.20l-55.50 3.20"/>
<use x="523.54" y="243.00" xlink:href="#hd"/>
<path d="M520.04 243.00v28.80" class="stroke"/>
<use x="550.94" y="252.00" xlink:href="#hd"/>
<path d="M547.44 252.00v18.20" class="stroke"/>
<use x="578.34" y="237.00" xlink:href="#hd"/>
<path d="M574.84 237.00v31.60" class="stroke"/>
<path class="fill"
	d="M613.14 274.20l69.20 0.00v-3.20l-69.20 -0.00"/>
<path class="fill"
	d="M613.54 269.20l68.50 0.00v-3.20l-68.50 -0.00"/>
<use x="617.04" y="243.00" xlink:href="#hd"/>
<path d="M613.54 243.00v30.20" class="stroke"/>
<use x="630.74" y="246.00" xlink:href="#hd"/>
<path d="M627.24 246.00v27.20" class="stroke"/>
<use x="644.44" y="243.00" xlink:href="#hd"/>
<path d="M640.94 243.00v30.20" class="stroke"/>
<use x="658.14" y="237.00" xlink:href="#hd"/>
<path d="M654.64 237.00v36.20" class="stroke"/>
<use x="671.84" y="252.00" xlink:href="#hd"/>
<path d="M668.34 252.00v21.20" class="stroke"/>
<use x="685.54" y="243.00" xlink:href="#hd"/>
<path d="M682.04 243.00v30.20" class="stroke"/>
<path class="fill"
	d="M706.74 266.00l69.20 0.00v-3.20l-69.20 -0.00"/>
<path class="fill"
	d="M707.04 261.00l68.50 0.00v-3.20l-68.50 -0.00"/>
<use x="710.54" y="240.00" xlink:href="#hd"/>
<path d="M707.04 240.00v24.90" class="stroke"/>
<use x="724.24" y="234.00" xlink:href="#hd"/>
<path d="M720.74 234.00v30.90" class="stroke"/>
<use x="737.94" y="228.00" xlink:href="#hl"/>
<use x="737.94" y="228.00" xlink:href="#hd"/>
<path d="M734.44 228.00v36.90" class="stroke"/>
<use x="751.64" y="234.00" xlink:href="#hd"/>
<path d="M748.14 234.00v30.90" class="stroke"/>
<use x="765.34" y="240.00" xlink:href="#hd"/>
<path d="M761.84 240.00v24.90" class="stroke"/>
<use x="779.04" y="246.00" xlink:href="#hd"/>
<path d="M775.54 246.00v18.90" class="stroke"/>
<use x="804.04" y="243.00" xlink:href="#hd"/>
<path d="M800.54 243.00v21.00" class="stroke"/>
<use x="841.54" y="246.00" xlink:href="#r8"/>
<use x="23.54" y="304.00" xlink:href="#bclef"/>
<path class="fill"
	d="M52.24 341.20l64.80 0.00v-3.20l-64.80 -0.00"/>
<path class="fill"
	d="M71.24 336.20l45.40 0.00v-3.20l-45.40 -0.00"/>
<use x="56.04" y="322.00" xlink:href="#hd"/>
<path d="M52.54 322.00v18.20" class="stroke"/>
<use x="74.74" y="295.00" xlink:href="#hd"/>
<path d="M71.24 295.00v45.20" class="stroke"/>
<use x="88.44" y="301.00" xlink:href="#hd"/>
<path d="M84.94 301.00v39.20" class="stroke"/>
<use x="106.44" y="304.00" xlink:href="#hd"/>
<use x="97.44" y="304.00" xlink:href="#sh0"/>
<path d="M102.94 304.00v36.20" class="stroke"/>
<use x="120.14" y="307.00" xlink:href="#hd"/>
<path d="M116.64 307.00v33.20" class="stroke"/>
<use x="153.14" y="310.00" xlink:href="#hd"/>
<path d="M156.64 310.00v-21.00" class="stroke"/>
<use x="216.64" y="313.00" xlink:href="#hd"/>
<path d="M220.14 313.00v-21.00" class="stroke"/>
<path class="fill"
	d="M220.14 292.00c0.6 5.6 9.6 9 5.6 18.4
	1.6 -6 -1.3 -11.6 -5.6 -12.8
"/>
<path class="fill"
	d="M251.44 344.30l48.20 -10.20v-3.20l-48.20 10.20"/>
<path class="fill"
	d="M251.84 339.20l13.70 -2.90v-3.20l-13.70 2.90"/>
<use x="255.34" y="322.00" xlink:href="#hd"/>
<path d="M251.84 322.00v21.20" class="stroke"/>
<use x="269.04" y="316.00" xlink:href="#hd"/>
<path d="M265.54 316.00v24.30" class="stroke"/>
<use x="284.04" y="301.00" xlink:href="#hd"/>
<path d="M280.54 301.00v36.10" class="stroke"/>
<use x="302.84" y="295.00" xlink:href="#hd"/>
<path d="M299.34 295.00v38.10" class="stroke"/>
<use x="330.84" y="307.00" xlink:href="#hd"/>
<path d="M327.34 307.00v21.00" class="stroke"/>
<path class="fill"
	d="M381.84 331.90l14.40 3.40v-3.20l-14.40 -3.40"/>
<path class="fill"
	d="M382.14 327.00l13.70 3.20v-3.20l-13.70 -3.20"/>
<use x="385.64" y="307.00" xlink:href="#hd"/>
<path d="M382.14 307.00v24.00" class="stroke"/>
<use x="399.34" y="313.00" xlink:href="#hd"/>
<path d="M395.84 313.00v21.20" class="stroke"/>
<path class="fill"
	d="M420.54 334.60l74.80 9.60v-3.20l-74.80 -9.60"/>
<path class="fill"
	d="M420.84 329.70l74.20 9.50v-3.20l-74.20 -9.50"/>
<use x="424.34" y="301.00" xlink:href="#hd"/>
<path d="M420.84 301.00v32.70" class="stroke"/>
<use x="442.34" y="304.00" xlink:href="#hd"/>
<use x="433.34" y="304.00" xlink:href="#sh0"/>
<path d="M438.84 304.00v32.00" class="stroke"/>
<use x="457.44" y="301.00" xlink:href="#hd"/>
<path d="M453.94 301.00v36.90" class="stroke"/>
<use x="471.14" y="310.00" xlink:href="#hd"/>
<path d="M467.64 310.00v29.70" class="stroke"/>
<use x="484.84" y="316.00" xlink:href="#hd"/>
<path d="M481.34 316.00v25.40" class="stroke"/>
<use x="498.54" y="322.00" xlink:href="#hd"/>
<path d="M495.04 322.00v21.20" class="stroke"/>
<path class="fill"
	d="M519.64 329.90l69.20 0.00v-3.20l-69.20 -0.00"/>
<path class="fill"
	d="M520.04 324.90l68.50 0.00v-3.20l-68.50 -0.00"/>
<use x="523.54" y="307.00" xlink:href="#hd"/>
<path d="M520.04 307.00v21.90" class="stroke"/>
<use x="523.54" y="313.00" xlink:href="#hd"/>
<use x="537.24" y="301.00" xlink:href="#hd"/>
<path d="M533.74 301.00v27.90" class="stroke"/>
<use x="550.94" y="307.00" xlink:href="#hd"/>
<path d="M547.44 307.00v21.90" class="stroke"/>
<use x="550.94" y="313.00" xlink:href="#hd"/>
<use x="564.64" y="301.00" xlink:href="#hd"/>
<path d="M561.14 301.00v27.90" class="stroke"/>
<use x="578.34" y="307.00" xlink:href="#hd"/>
<path d="M574.84 307.00v21.90" class="stroke"/>
<use x="578.34" y="313.00" xlink:href="#hd"/>
<use x="592.04" y="301.00" xlink:href="#hd"/>
<path d="M588.54 301.00v27.90" class="stroke"/>
<use x="617.04" y="307.00" xlink:href="#hd"/>
<path d="M613.54 307.00v25.00" class="stroke"/>
<use x="617.04" y="313.00" xlink:href="#hd"/>
<use x="671.84" y="307.00" xlink:href="#hd"/>
<path d="M668.34 307.00v25.00" class="stroke"/>
<path class="fill"
	d="M668.34 332.00c0.6 -5.6 9.6 -9 5.6 -18.4
	1.6 6 -1.3 11.6 -5.6 12.8
"/>
<use x="671.84" y="313.00" xlink:href="#hd"/>
<use x="710.54" y="304.00" xlink:href="#hd"/>
<path d="M707.04 304.00v21.00" class="stroke"/>
<use x="765.34" y="301.00" xlink:href="#hd"/>
<path d="M761.84 301.00v21.00" class="stroke"/>
<path class="fill"
	d="M761.84 322.00c0.6 -5.6 9.6 -9 5.6 -18.4
	1.6 6 -1.3 11.6 -5.6 12.8
"/>
<path class="fill"
	d="M807.24 293.70l38.20 9.30v3.20l-38.20 -9.30"/>
<use x="804.04" y="313.00" xlink:href="#hd"/>
<path d="M807.54 313.00v-18.20" class="stroke"/>
<use x="822.84" y="322.00" xlink:href="#hd"/>
<path d="M826.34 322.00v-22.60" class="stroke"/>
<use x="841.54" y="328.00" xlink:href="#hl"/>
<use x="841.54" y="334.00" xlink:href="#hl"/>
<use x="841.54" y="334.00" xlink:href="#hd"/>
<path d="M845.04 334.00v-30.00" class="stroke"/>
<defs>
<text id="trl" font-family="serif" font-size="16" font-style="italic"
	x="-2" y="-4">tr</text>
</defs>
<use x="284.04" y="232.00" xlink:href="#trl"/>
</g>
</svg>
