<?xml version="1.0" standalone="no"?>
<!DOCTYPE svg PUBLIC "-//W3C//DTD SVG 1.1//EN"
	"http://www.w3.org/Graphics/SVG/1.1/DTD/svg11.dtd">
<svg xmlns="http://www.w3.org/2000/svg" version="1.1"
	xmlns:xlink="http://www.w3.org/1999/xlink"
	color="black"
	width="757.10px" height="297.27px">
<style type="text/css">
.fill {fill: currentColor}
.stroke {stroke: currentColor; fill: none}
text{white-space: pre}
</style>
<title>./K516f-9-12-6-3-12-7-2-2-10-9-8-9-10-3-12-2.abc (3508) tune 1</title>
<!-- Creator: abcm2ps-8.13.8 -->
<!-- CreationDate: Sep  7, 2017 11:20 -->
<!-- CommandLine: ./K516f-9-12-6-3-12-7-2-2-10-9-8-9-10-3-12-2.abc -O ./K516f-9-12-6-3-12-7-2-2-10-9-8-9-10-3-12-2.svg -g -->
<rect width="100%" height="100%" fill="white"/>
<g stroke-width="0.70" transform="scale(0.867)">
<!-- title: 9-12-6-3-12-7-2-2-10-9-8-9-10-3-12-2 -->
</g>
<g stroke-width="0.70" transform="scale(0.867)" font-family="Times" font-size="20.00">
<text x="436.84" y="22.00" text-anchor="middle">9-12-6-3-12-7-2-2-10-9-8-9-10-3-12-2</text>
</g>
<g stroke-width="0.70" transform="scale(0.867)" font-family="Times" font-size="20.00">
<!-- subtitle: $1K.516f::119:130:163:63:28:68:11:30:65:88:57:166:137:18:44:14::$0 -->
</g>
<g stroke-width="0.70" transform="scale(0.867)" font-family="Courier" font-size="8.00" font-weight="bold">
<text x="436.84" y="41.80" text-anchor="middle">K.516f::119:130:163:63:28:68:11:30:65:88:57:166:137:18:44:14::</text>
</g>
<g stroke-width="0.70" transform="scale(0.867)" font-family="Courier" font-size="8.00" font-weight="bold">
<!-- subtitle: $1Perm. No.: 350845410202405$0 -->
<text x="436.84" y="60.80" text-anchor="middle">Perm. No.: 350845410202405</text>
</g>
<g stroke-width="0.70" transform="scale(0.607)" font-family="Courier" font-size="8.00" font-weight="bold">
<defs>
<ellipse id="hd" rx="4.1" ry="2.9"
	transform="rotate(-20)" class="fill"/>
</defs>
<use x="103.06" y="121.29" xlink:href="#hd"/>
<path d="M106.56 121.29v-21.00" class="stroke"/>
<path class="fill"
	d="M106.56 100.29c0.6 5.6 9.6 9 5.6 18.4
	1.6 -6 -1.3 -11.6 -5.6 -12.8
"/>
</g>
<g stroke-width="0.70" transform="scale(0.867)" font-family="Times" font-size="15.00" font-weight="bold">
<text x="81.24" y="87.00">= 111</text>
<path class="stroke" stroke-width="1"
	d="M11.54 183.00v-82.00"/>
<path class="fill"
	d="M6.54 98.00
	c10.5 1 12 -4.5 12 -3.5c0 1 -3.5 5.5 -8.5 5.5
	v84.00
	c5 0 8.5 4.5 8.5 5.5c0 1 -1.5 -4.5 -12 -3.5"/>
<defs>
<g id="rdots" class="fill">
	<circle cx="0" cy="-9" r="1.2"/>
	<circle cx="0" cy="-15" r="1.2"/>
</g>
</defs>
<use x="70.54" y="125.00" xlink:href="#rdots"/>
<path class="stroke" stroke-width="1"
	d="M66.54 125.00v-24.00"/>
<path class="stroke" stroke-width="3"
	d="M62.04 125.00v-24.00"/>
<use x="70.54" y="183.00" xlink:href="#rdots"/>
<path class="stroke" stroke-width="1"
	d="M66.54 183.00v-58.00"/>
<path class="stroke" stroke-width="3"
	d="M62.04 183.00v-58.00"/>
<path class="stroke" stroke-width="1"
	d="M176.04 125.00v-24.00"/>
<path class="stroke" stroke-width="1"
	d="M176.04 183.00v-58.00"/>
<path class="stroke" stroke-width="1"
	d="M250.84 125.00v-24.00"/>
<path class="stroke" stroke-width="1"
	d="M250.84 183.00v-58.00"/>
<path class="stroke" stroke-width="1"
	d="M357.44 125.00v-24.00"/>
<path class="stroke" stroke-width="1"
	d="M357.44 183.00v-58.00"/>
<path class="stroke" stroke-width="1"
	d="M451.14 125.00v-24.00"/>
<path class="stroke" stroke-width="1"
	d="M451.14 183.00v-58.00"/>
<path class="stroke" stroke-width="1"
	d="M561.44 125.00v-24.00"/>
<path class="stroke" stroke-width="1"
	d="M561.44 183.00v-58.00"/>
<path class="stroke" stroke-width="1"
	d="M656.44 125.00v-24.00"/>
<path class="stroke" stroke-width="1"
	d="M656.44 183.00v-58.00"/>
<path class="stroke" stroke-width="1"
	d="M763.14 125.00v-24.00"/>
<path class="stroke" stroke-width="1"
	d="M763.14 183.00v-58.00"/>
<path class="stroke" stroke-width="3"
	d="M860.54 125.00v-24.00"/>
<path class="stroke" stroke-width="1"
	d="M856.04 125.00v-24.00"/>
<use x="852.04" y="125.00" xlink:href="#rdots"/>
<path class="stroke" stroke-width="3"
	d="M860.54 183.00v-58.00"/>
<path class="stroke" stroke-width="1"
	d="M856.04 183.00v-58.00"/>
<use x="852.04" y="183.00" xlink:href="#rdots"/>
<path d="m11.54 125.00
	h850.50
	M11.54 119.00
	h850.50
	M11.54 113.00
	h850.50
	M11.54 107.00
	h850.50
	M11.54 101.00
	h850.50
	" class="stroke"/>
<path d="m11.54 183.00
	h850.50
	M11.54 177.00
	h850.50
	M11.54 171.00
	h850.50
	M11.54 165.00
	h850.50
	M11.54 159.00
	h850.50
	" class="stroke"/>
</g>
<g stroke-width="0.70" transform="scale(0.867)" font-family="Times" font-size="13.00">
<text x="767.14" y="86.40">1</text>
<path class="stroke"
	d="M763.14 75.00m0 20v-20h90.90v20"/>
<defs>
<path id="utclef" class="fill" d="m-50 -90
	c-72 -41 -72 -158 52 -188
	150 -10 220 188 90 256
	-114 52 -275 0 -293 -136
	-15 -181 93 -229 220 -334
	88 -87 79 -133 62 -210
	-51 33 -94 105 -89 186
	17 267 36 374 49 574
	6 96 -19 134 -77 135
	-80 1 -126 -93 -61 -133
	85 -41 133 101 31 105
	23 17 92 37 90 -92
	-10 -223 -39 -342 -50 -617
	0 -90 0 -162 96 -232
	56 72 63 230 22 289
	-74 106 -257 168 -255 316
	9 153 148 185 252 133
	86 -65 29 -192 -80 -176
	-71 12 -105 67 -59 124"/>
<use id="tclef" transform="translate(0,6) scale(0.045)"
	xlink:href="#utclef"/>
</defs>
<use x="23.54" y="119.00" xlink:href="#tclef"/>
<g font-family="serif" font-size="16" font-weight="bold" font-style="normal"
	transform="translate(42.04,124.50) scale(1.2,1)">
	<text text-anchor="middle">8</text>
	<text y="-12" text-anchor="middle">3</text>
</g>
<path class="fill"
	d="M80.44 133.40l79.90 -6.10v-3.20l-79.90 6.10"/>
<path class="fill"
	d="M80.74 128.40l79.20 -6.10v-3.20l-79.20 6.10"/>
<use x="84.24" y="104.00" xlink:href="#hd"/>
<path d="M80.74 104.00v28.40" class="stroke"/>
<use x="100.14" y="110.00" xlink:href="#hd"/>
<path d="M96.64 110.00v21.20" class="stroke"/>
<use x="115.94" y="98.00" xlink:href="#hd"/>
<path d="M112.44 98.00v32.00" class="stroke"/>
<use x="131.74" y="104.00" xlink:href="#hd"/>
<path d="M128.24 104.00v24.80" class="stroke"/>
<defs>
<path id="hl" class="stroke" d="m-6 0h12"/>
</defs>
<use x="147.64" y="95.00" xlink:href="#hl"/>
<use x="147.64" y="89.00" xlink:href="#hl"/>
<use x="147.64" y="89.00" xlink:href="#hd"/>
<path d="M144.14 89.00v38.50" class="stroke"/>
<use x="163.44" y="98.00" xlink:href="#hd"/>
<path d="M159.94 98.00v28.30" class="stroke"/>
<path class="fill"
	d="M191.94 91.00l45.10 0.00v3.20l-45.10 -0.00"/>
<use x="188.74" y="125.00" xlink:href="#hd"/>
<path d="M192.24 125.00v-33.00" class="stroke"/>
<use x="188.74" y="110.00" xlink:href="#hd"/>
<use x="211.04" y="125.00" xlink:href="#hd"/>
<path d="M214.54 125.00v-33.00" class="stroke"/>
<use x="211.04" y="110.00" xlink:href="#hd"/>
<use x="233.24" y="125.00" xlink:href="#hd"/>
<path d="M236.74 125.00v-33.00" class="stroke"/>
<use x="233.24" y="110.00" xlink:href="#hd"/>
<path class="fill"
	d="M259.64 131.40l82.00 9.90v-3.20l-82.00 -9.90"/>
<path class="fill"
	d="M260.04 126.40l81.40 9.80v-3.20l-81.40 -9.80"/>
<use x="263.54" y="98.00" xlink:href="#hd"/>
<path d="M260.04 98.00v32.40" class="stroke"/>
<use x="281.54" y="101.00" xlink:href="#hd"/>
<defs>
<path id="usharp" class="fill" d="
	m136 -702
	v890
	h32
	v-890
	m128 840
	h32
	v-888
	h-32
	m-232 286
	v116
	l338 -96
	v-116
	m-338 442
	v116
	l338 -98
	v-114"/>
<use id="sh0" transform="translate(-4,5) scale(0.018)"
	xlink:href="#usharp"/>
</defs>
<use x="272.54" y="101.00" xlink:href="#sh0"/>
<path d="M278.04 101.00v31.60" class="stroke"/>
<use x="297.34" y="98.00" xlink:href="#hd"/>
<path d="M293.84 98.00v36.50" class="stroke"/>
<use x="313.24" y="107.00" xlink:href="#hd"/>
<path d="M309.74 107.00v29.40" class="stroke"/>
<use x="329.04" y="113.00" xlink:href="#hd"/>
<path d="M325.54 113.00v25.30" class="stroke"/>
<use x="344.84" y="119.00" xlink:href="#hd"/>
<path d="M341.34 119.00v21.20" class="stroke"/>
<path class="fill"
	d="M366.34 132.30l64.00 5.90v-3.20l-64.00 -5.90"/>
<path class="fill"
	d="M366.74 127.30l47.50 4.40v-3.20l-47.50 -4.40"/>
<use x="370.24" y="104.00" xlink:href="#hd"/>
<path d="M366.74 104.00v27.30" class="stroke"/>
<use x="386.04" y="110.00" xlink:href="#hd"/>
<path d="M382.54 110.00v22.80" class="stroke"/>
<use x="401.84" y="113.00" xlink:href="#hd"/>
<path d="M398.34 113.00v21.30" class="stroke"/>
<use x="417.74" y="110.00" xlink:href="#hd"/>
<path d="M414.24 110.00v25.70" class="stroke"/>
<use x="433.54" y="119.00" xlink:href="#hd"/>
<path d="M430.04 119.00v18.20" class="stroke"/>
<path class="fill"
	d="M465.74 138.20l79.90 0.00v-3.20l-79.90 -0.00"/>
<path class="fill"
	d="M466.14 133.20l79.20 0.00v-3.20l-79.20 -0.00"/>
<use x="469.64" y="101.00" xlink:href="#hd"/>
<use x="460.64" y="101.00" xlink:href="#sh0"/>
<path d="M466.14 101.00v36.20" class="stroke"/>
<use x="485.44" y="107.00" xlink:href="#hd"/>
<path d="M481.94 107.00v30.20" class="stroke"/>
<use x="501.34" y="116.00" xlink:href="#hd"/>
<path d="M497.84 116.00v21.20" class="stroke"/>
<use x="517.14" y="95.00" xlink:href="#hl"/>
<use x="517.14" y="95.00" xlink:href="#hd"/>
<path d="M513.64 95.00v42.20" class="stroke"/>
<use x="532.94" y="101.00" xlink:href="#hd"/>
<path d="M529.44 101.00v36.20" class="stroke"/>
<use x="548.84" y="107.00" xlink:href="#hd"/>
<path d="M545.34 107.00v30.20" class="stroke"/>
<path class="fill"
	d="M570.34 127.00l70.40 0.00v-3.20l-70.40 -0.00"/>
<path class="fill"
	d="M592.84 122.00l47.50 0.00v-3.20l-47.50 -0.00"/>
<use x="574.14" y="98.00" xlink:href="#hd"/>
<path d="M570.64 98.00v28.00" class="stroke"/>
<use x="596.34" y="95.00" xlink:href="#hl"/>
<use x="596.34" y="92.00" xlink:href="#hd"/>
<path d="M592.84 92.00v34.00" class="stroke"/>
<use x="612.24" y="98.00" xlink:href="#hd"/>
<path d="M608.74 98.00v28.00" class="stroke"/>
<use x="628.04" y="107.00" xlink:href="#hd"/>
<path d="M624.54 107.00v19.00" class="stroke"/>
<use x="643.84" y="98.00" xlink:href="#hd"/>
<path d="M640.34 98.00v28.00" class="stroke"/>
<path class="fill"
	d="M672.34 81.80l82.00 8.30v3.20l-82.00 -8.30"/>
<path class="fill"
	d="M672.74 86.80l81.40 8.20v3.20l-81.40 -8.20"/>
<use x="669.24" y="104.00" xlink:href="#hd"/>
<path d="M672.74 104.00v-21.20" class="stroke"/>
<use x="685.04" y="110.00" xlink:href="#hd"/>
<path d="M688.54 110.00v-25.60" class="stroke"/>
<use x="700.84" y="113.00" xlink:href="#hd"/>
<path d="M704.34 113.00v-27.00" class="stroke"/>
<use x="716.74" y="116.00" xlink:href="#hd"/>
<path d="M720.24 116.00v-28.40" class="stroke"/>
<use x="732.54" y="119.00" xlink:href="#hd"/>
<path d="M736.04 119.00v-29.80" class="stroke"/>
<use x="750.54" y="122.00" xlink:href="#hd"/>
<use x="741.54" y="122.00" xlink:href="#sh0"/>
<path d="M754.04 122.00v-31.00" class="stroke"/>
<use x="775.84" y="98.00" xlink:href="#hd"/>
<path d="M772.34 98.00v40.00" class="stroke"/>
<use x="775.84" y="119.00" xlink:href="#hd"/>
<use x="775.84" y="113.00" xlink:href="#hd"/>
<use x="775.84" y="107.00" xlink:href="#hd"/>
<defs>
<path id="r8e" class="fill" d="m 0 0
	c-1.5 1.5 -2.4 2 -3.6 2
	2.4 -2.8 -2.8 -4 -2.8 -1.2
	c0 2.7 4.3 2.4 5.9 0.6"/>
<g id="r8">
	<path d="m3.3 -4l-3.4 9.6" class="stroke"/>
	<use x="3.4" y="-4" xlink:href="#r8e"/>
</g>
</defs>
<use x="831.94" y="113.00" xlink:href="#r8"/>
<defs>
<path id="ubclef" class="fill" d="m-200 -87
	c124 -35 222 -78 254 -236
	43 -228 -167 -246 -192 -103
	59 -80 157 22 92 78
	-62 47 -115 -22 -106 -88
	21 -141 270 -136 274 52
	-1 175 -106 264 -322 297
	m357 -250
	c0 -36 51 -34 51 0
	0 37 -51 36 -51 0
	m-2 -129
	c0 -36 51 -34 51 0
	0 38 -51 37 -51 0"/>
<use id="bclef" transform="translate(0,18) scale(0.045)"
	xlink:href="#ubclef"/>
</defs>
<use x="23.54" y="165.00" xlink:href="#bclef"/>
<g font-family="serif" font-size="16" font-weight="bold" font-style="normal"
	transform="translate(42.04,182.50) scale(1.2,1)">
	<text text-anchor="middle">8</text>
	<text y="-12" text-anchor="middle">3</text>
</g>
<use x="84.24" y="168.00" xlink:href="#hd"/>
<path d="M80.74 168.00v25.00" class="stroke"/>
<use x="84.24" y="174.00" xlink:href="#hd"/>
<use x="147.64" y="171.00" xlink:href="#r8"/>
<path class="fill"
	d="M191.94 153.00l45.10 0.00v3.20l-45.10 -0.00"/>
<use x="188.74" y="174.00" xlink:href="#hd"/>
<path d="M192.24 174.00v-20.00" class="stroke"/>
<use x="211.04" y="174.00" xlink:href="#hd"/>
<path d="M214.54 174.00v-20.00" class="stroke"/>
<use x="233.24" y="174.00" xlink:href="#hd"/>
<path d="M236.74 174.00v-20.00" class="stroke"/>
<use x="263.54" y="177.00" xlink:href="#hd"/>
<path d="M267.04 177.00v-25.00" class="stroke"/>
<use x="263.54" y="171.00" xlink:href="#hd"/>
<use x="329.04" y="171.00" xlink:href="#r8"/>
<use x="370.24" y="174.00" xlink:href="#hd"/>
<path d="M373.74 174.00v-21.00" class="stroke"/>
<use x="433.54" y="171.00" xlink:href="#r8"/>
<use x="469.64" y="159.00" xlink:href="#hd"/>
<path d="M466.14 159.00v34.00" class="stroke"/>
<use x="469.64" y="174.00" xlink:href="#hd"/>
<use x="532.94" y="171.00" xlink:href="#r8"/>
<use x="574.14" y="177.00" xlink:href="#hd"/>
<path d="M577.64 177.00v-21.00" class="stroke"/>
<use x="628.04" y="171.00" xlink:href="#r8"/>
<path class="fill"
	d="M672.34 147.70l64.00 8.10v3.20l-64.00 -8.10"/>
<use x="669.24" y="174.00" xlink:href="#hd"/>
<path d="M672.74 174.00v-25.20" class="stroke"/>
<use x="700.84" y="171.00" xlink:href="#hd"/>
<path d="M704.34 171.00v-18.20" class="stroke"/>
<use x="732.54" y="189.00" xlink:href="#hl"/>
<use x="732.54" y="192.00" xlink:href="#hd"/>
<path d="M736.04 192.00v-35.20" class="stroke"/>
<path class="fill"
	d="M772.04 202.20l72.60 0.00v-3.20l-72.60 -0.00"/>
<path class="fill"
	d="M794.64 197.20l49.70 0.00v-3.20l-49.70 -0.00"/>
<use x="775.84" y="183.00" xlink:href="#hd"/>
<path d="M772.34 183.00v18.20" class="stroke"/>
<use x="798.14" y="162.00" xlink:href="#hd"/>
<path d="M794.64 162.00v39.20" class="stroke"/>
<use x="816.14" y="165.00" xlink:href="#hd"/>
<defs>
<path id="unat" class="fill" d="
	m96 -750
	h-32
	v716
	l32 -8
	182 -54
	v282
	h32
	v-706
	l-34 10
	-180 50
	v-290
	m0 592
	v-190
	l182 -52
	v188"/>
<use id="nt0" transform="translate(-3,5) scale(0.018)"
	xlink:href="#unat"/>
</defs>
<use x="807.14" y="165.00" xlink:href="#nt0"/>
<path d="M812.64 165.00v36.20" class="stroke"/>
<use x="831.94" y="168.00" xlink:href="#hd"/>
<path d="M828.44 168.00v33.20" class="stroke"/>
<use x="847.74" y="171.00" xlink:href="#hd"/>
<path d="M844.24 171.00v30.20" class="stroke"/>
</g>
<g stroke-width="0.70" transform="scale(0.867)" font-family="Times" font-size="13.00">
<path class="stroke" stroke-width="1"
	d="M11.54 320.00v-86.00"/>
<path class="fill"
	d="M6.54 231.00
	c10.5 1 12 -4.5 12 -3.5c0 1 -3.5 5.5 -8.5 5.5
	v88.00
	c5 0 8.5 4.5 8.5 5.5c0 1 -1.5 -4.5 -12 -3.5"/>
<use x="144.84" y="258.00" xlink:href="#rdots"/>
<path class="stroke" stroke-width="1"
	d="M140.84 258.00v-24.00"/>
<path class="stroke" stroke-width="3"
	d="M136.34 258.00v-24.00"/>
<use x="144.84" y="320.00" xlink:href="#rdots"/>
<path class="stroke" stroke-width="1"
	d="M140.84 320.00v-62.00"/>
<path class="stroke" stroke-width="3"
	d="M136.34 320.00v-62.00"/>
<path class="stroke" stroke-width="1"
	d="M232.94 258.00v-24.00"/>
<path class="stroke" stroke-width="1"
	d="M232.94 320.00v-62.00"/>
<path class="stroke" stroke-width="1"
	d="M333.44 258.00v-24.00"/>
<path class="stroke" stroke-width="1"
	d="M333.44 320.00v-62.00"/>
<path class="stroke" stroke-width="1"
	d="M433.84 258.00v-24.00"/>
<path class="stroke" stroke-width="1"
	d="M433.84 320.00v-62.00"/>
<path class="stroke" stroke-width="1"
	d="M523.54 258.00v-24.00"/>
<path class="stroke" stroke-width="1"
	d="M523.54 320.00v-62.00"/>
<path class="stroke" stroke-width="1"
	d="M623.94 258.00v-24.00"/>
<path class="stroke" stroke-width="1"
	d="M623.94 320.00v-62.00"/>
<path class="stroke" stroke-width="1"
	d="M695.44 258.00v-24.00"/>
<path class="stroke" stroke-width="1"
	d="M695.44 320.00v-62.00"/>
<path class="stroke" stroke-width="1"
	d="M786.84 258.00v-24.00"/>
<path class="stroke" stroke-width="1"
	d="M786.84 320.00v-62.00"/>
<path class="stroke" stroke-width="3"
	d="M860.54 258.00v-24.00"/>
<path class="stroke" stroke-width="1"
	d="M856.04 258.00v-24.00"/>
<use x="852.04" y="258.00" xlink:href="#rdots"/>
<path class="stroke" stroke-width="3"
	d="M860.54 320.00v-62.00"/>
<path class="stroke" stroke-width="1"
	d="M856.04 320.00v-62.00"/>
<use x="852.04" y="320.00" xlink:href="#rdots"/>
<path d="m11.54 258.00
	h850.50
	M11.54 252.00
	h850.50
	M11.54 246.00
	h850.50
	M11.54 240.00
	h850.50
	M11.54 234.00
	h850.50
	" class="stroke"/>
<path d="m11.54 320.00
	h850.50
	M11.54 314.00
	h850.50
	M11.54 308.00
	h850.50
	M11.54 302.00
	h850.50
	M11.54 296.00
	h850.50
	" class="stroke"/>
<path class="fill"
	d="M636.44 241.00c6.02 -5.31 32.19 -10.52 38.21 -7.60
	v-0.24c-7.17 -4.68 -31.05 0.53 -38.21 7.84"/>
<text x="47.54" y="219.40">2</text>
<path class="stroke"
	d="M43.54 208.00m0 20v-20h90.30v20"/>
<use x="23.54" y="252.00" xlink:href="#tclef"/>
<use x="56.04" y="231.00" xlink:href="#hd"/>
<path d="M52.54 231.00v40.00" class="stroke"/>
<use x="56.04" y="252.00" xlink:href="#hd"/>
<use x="56.04" y="246.00" xlink:href="#hd"/>
<use x="56.04" y="240.00" xlink:href="#hd"/>
<use x="110.24" y="246.00" xlink:href="#r8"/>
<path class="fill"
	d="M160.44 272.60l52.60 -4.60v-3.20l-52.60 4.60"/>
<path class="fill"
	d="M160.84 267.50l15.10 -1.30v-3.20l-15.10 1.30"/>
<use x="164.34" y="240.00" xlink:href="#hd"/>
<path d="M160.84 240.00v31.50" class="stroke"/>
<use x="179.44" y="249.00" xlink:href="#hd"/>
<path d="M175.94 249.00v21.20" class="stroke"/>
<use x="194.54" y="240.00" xlink:href="#hd"/>
<path d="M191.04 240.00v28.90" class="stroke"/>
<use x="216.24" y="234.00" xlink:href="#hd"/>
<use x="207.24" y="234.00" xlink:href="#sh0"/>
<path d="M212.74 234.00v33.00" class="stroke"/>
<path class="fill"
	d="M241.64 260.00l76.10 0.00v-3.20l-76.10 -0.00"/>
<path class="fill"
	d="M241.94 255.00l75.40 0.00v-3.20l-75.40 -0.00"/>
<use x="245.44" y="231.00" xlink:href="#hd"/>
<path d="M241.94 231.00v28.00" class="stroke"/>
<use x="260.54" y="240.00" xlink:href="#hd"/>
<path d="M257.04 240.00v19.00" class="stroke"/>
<use x="275.64" y="231.00" xlink:href="#hd"/>
<path d="M272.14 231.00v28.00" class="stroke"/>
<use x="290.74" y="228.00" xlink:href="#hl"/>
<use x="290.74" y="225.00" xlink:href="#hd"/>
<path d="M287.24 225.00v34.00" class="stroke"/>
<use x="305.84" y="231.00" xlink:href="#hd"/>
<path d="M302.34 231.00v28.00" class="stroke"/>
<use x="320.94" y="240.00" xlink:href="#hd"/>
<path d="M317.44 240.00v19.00" class="stroke"/>
<path class="fill"
	d="M342.04 264.20l61.00 7.00v-3.20l-61.00 -7.00"/>
<use x="345.94" y="237.00" xlink:href="#hd"/>
<path d="M342.44 237.00v26.30" class="stroke"/>
<use x="376.14" y="243.00" xlink:href="#hd"/>
<path d="M372.64 243.00v23.70" class="stroke"/>
<use x="406.24" y="252.00" xlink:href="#hd"/>
<path d="M402.74 252.00v18.20" class="stroke"/>
<path class="fill"
	d="M442.54 262.20l61.00 5.40v-3.20l-61.00 -5.40"/>
<path class="fill"
	d="M442.84 257.20l45.30 4.00v-3.20l-45.30 -4.00"/>
<use x="446.34" y="240.00" xlink:href="#hd"/>
<path d="M442.84 240.00v21.20" class="stroke"/>
<use x="461.44" y="228.00" xlink:href="#hl"/>
<use x="461.44" y="225.00" xlink:href="#hd"/>
<path d="M457.94 225.00v37.50" class="stroke"/>
<use x="476.54" y="231.00" xlink:href="#hd"/>
<path d="M473.04 231.00v32.90" class="stroke"/>
<use x="491.64" y="240.00" xlink:href="#hd"/>
<path d="M488.14 240.00v25.20" class="stroke"/>
<use x="506.74" y="246.00" xlink:href="#hd"/>
<path d="M503.24 246.00v20.50" class="stroke"/>
<path class="fill"
	d="M532.14 272.80l61.00 -3.30v-3.20l-61.00 3.30"/>
<use x="536.04" y="243.00" xlink:href="#hd"/>
<path d="M532.54 243.00v28.80" class="stroke"/>
<use x="566.24" y="252.00" xlink:href="#hd"/>
<path d="M562.74 252.00v18.20" class="stroke"/>
<use x="596.34" y="237.00" xlink:href="#hd"/>
<path d="M592.84 237.00v31.60" class="stroke"/>
<path class="fill"
	d="M632.64 271.30l42.90 -6.40v-3.20l-42.90 6.40"/>
<use x="636.44" y="252.00" xlink:href="#hd"/>
<path d="M632.94 252.00v18.20" class="stroke"/>
<use x="657.54" y="243.00" xlink:href="#hd"/>
<path d="M654.04 243.00v24.00" class="stroke"/>
<use x="678.64" y="237.00" xlink:href="#hd"/>
<path d="M675.14 237.00v26.90" class="stroke"/>
<path class="fill"
	d="M704.14 268.20l67.10 -8.10v-3.20l-67.10 8.10"/>
<path class="fill"
	d="M725.54 260.60l45.30 -5.50v-3.20l-45.30 5.50"/>
<use x="707.94" y="249.00" xlink:href="#hd"/>
<path d="M704.44 249.00v18.20" class="stroke"/>
<use x="729.04" y="234.00" xlink:href="#hd"/>
<path d="M725.54 234.00v30.60" class="stroke"/>
<use x="744.14" y="240.00" xlink:href="#hd"/>
<path d="M740.64 240.00v22.80" class="stroke"/>
<use x="759.24" y="228.00" xlink:href="#hl"/>
<use x="759.24" y="228.00" xlink:href="#hd"/>
<path d="M755.74 228.00v33.00" class="stroke"/>
<use x="774.34" y="231.00" xlink:href="#hd"/>
<path d="M770.84 231.00v28.20" class="stroke"/>
<use x="799.34" y="243.00" xlink:href="#hd"/>
<path d="M795.84 243.00v21.00" class="stroke"/>
<use x="841.54" y="246.00" xlink:href="#r8"/>
<use x="23.54" y="302.00" xlink:href="#bclef"/>
<path class="fill"
	d="M52.24 339.20l70.00 -5.10v-3.20l-70.00 5.10"/>
<path class="fill"
	d="M73.64 332.70l48.20 -3.50v-3.20l-48.20 3.50"/>
<use x="56.04" y="320.00" xlink:href="#hd"/>
<path d="M52.54 320.00v18.20" class="stroke"/>
<use x="77.14" y="293.00" xlink:href="#hd"/>
<path d="M73.64 293.00v43.70" class="stroke"/>
<use x="92.24" y="299.00" xlink:href="#hd"/>
<path d="M88.74 299.00v36.60" class="stroke"/>
<use x="110.24" y="302.00" xlink:href="#hd"/>
<use x="101.24" y="302.00" xlink:href="#sh0"/>
<path d="M106.74 302.00v32.30" class="stroke"/>
<use x="125.34" y="305.00" xlink:href="#hd"/>
<path d="M121.84 305.00v28.20" class="stroke"/>
<use x="164.34" y="302.00" xlink:href="#hd"/>
<use x="155.34" y="302.00" xlink:href="#sh0"/>
<path d="M167.84 302.00v-21.00" class="stroke"/>
<use x="216.24" y="308.00" xlink:href="#r8"/>
<use x="245.44" y="314.00" xlink:href="#hd"/>
<path d="M248.94 314.00v-25.00" class="stroke"/>
<use x="245.44" y="308.00" xlink:href="#hd"/>
<use x="305.84" y="314.00" xlink:href="#hd"/>
<path d="M309.34 314.00v-25.00" class="stroke"/>
<path class="fill"
	d="M309.34 289.00c0.6 5.6 9.6 9 5.6 18.4
	1.6 -6 -1.3 -11.6 -5.6 -12.8
"/>
<use x="305.84" y="308.00" xlink:href="#hd"/>
<path class="fill"
	d="M342.04 327.90l76.10 0.00v-3.20l-76.10 -0.00"/>
<path class="fill"
	d="M342.44 322.90l75.40 0.00v-3.20l-75.40 -0.00"/>
<use x="345.94" y="305.00" xlink:href="#hd"/>
<path d="M342.44 305.00v21.90" class="stroke"/>
<use x="345.94" y="311.00" xlink:href="#hd"/>
<use x="361.04" y="299.00" xlink:href="#hd"/>
<path d="M357.54 299.00v27.90" class="stroke"/>
<use x="376.14" y="305.00" xlink:href="#hd"/>
<path d="M372.64 305.00v21.90" class="stroke"/>
<use x="376.14" y="311.00" xlink:href="#hd"/>
<use x="391.24" y="299.00" xlink:href="#hd"/>
<path d="M387.74 299.00v27.90" class="stroke"/>
<use x="406.24" y="305.00" xlink:href="#hd"/>
<path d="M402.74 305.00v21.90" class="stroke"/>
<use x="406.24" y="311.00" xlink:href="#hd"/>
<use x="421.34" y="299.00" xlink:href="#hd"/>
<path d="M417.84 299.00v27.90" class="stroke"/>
<use x="446.34" y="293.00" xlink:href="#hd"/>
<path d="M442.84 293.00v25.00" class="stroke"/>
<use x="446.34" y="299.00" xlink:href="#hd"/>
<use x="506.74" y="308.00" xlink:href="#r8"/>
<path class="fill"
	d="M532.14 327.90l76.10 0.00v-3.20l-76.10 -0.00"/>
<path class="fill"
	d="M532.54 322.90l75.40 0.00v-3.20l-75.40 -0.00"/>
<use x="536.04" y="305.00" xlink:href="#hd"/>
<path d="M532.54 305.00v21.90" class="stroke"/>
<use x="536.04" y="311.00" xlink:href="#hd"/>
<use x="551.14" y="299.00" xlink:href="#hd"/>
<path d="M547.64 299.00v27.90" class="stroke"/>
<use x="566.24" y="305.00" xlink:href="#hd"/>
<path d="M562.74 305.00v21.90" class="stroke"/>
<use x="566.24" y="311.00" xlink:href="#hd"/>
<use x="581.24" y="299.00" xlink:href="#hd"/>
<path d="M577.74 299.00v27.90" class="stroke"/>
<use x="596.34" y="305.00" xlink:href="#hd"/>
<path d="M592.84 305.00v21.90" class="stroke"/>
<use x="596.34" y="311.00" xlink:href="#hd"/>
<use x="611.44" y="299.00" xlink:href="#hd"/>
<path d="M607.94 299.00v27.90" class="stroke"/>
<use x="636.44" y="305.00" xlink:href="#hd"/>
<path d="M632.94 305.00v25.00" class="stroke"/>
<use x="636.44" y="311.00" xlink:href="#hd"/>
<use x="678.64" y="299.00" xlink:href="#hd"/>
<path d="M675.14 299.00v31.00" class="stroke"/>
<path class="fill"
	d="M675.14 330.00c0.6 -5.6 9.6 -9 5.6 -18.4
	1.6 6 -1.3 11.6 -5.6 12.8
"/>
<use x="678.64" y="311.00" xlink:href="#hd"/>
<use x="707.94" y="302.00" xlink:href="#hd"/>
<path d="M704.44 302.00v21.00" class="stroke"/>
<use x="759.24" y="299.00" xlink:href="#hd"/>
<path d="M755.74 299.00v21.00" class="stroke"/>
<path class="fill"
	d="M755.74 320.00c0.6 -5.6 9.6 -9 5.6 -18.4
	1.6 6 -1.3 11.6 -5.6 12.8
"/>
<path class="fill"
	d="M802.44 291.70l42.90 9.90v3.20l-42.90 -9.90"/>
<use x="799.34" y="311.00" xlink:href="#hd"/>
<path d="M802.84 311.00v-18.20" class="stroke"/>
<use x="820.44" y="320.00" xlink:href="#hd"/>
<path d="M823.94 320.00v-22.30" class="stroke"/>
<use x="841.54" y="326.00" xlink:href="#hl"/>
<use x="841.54" y="332.00" xlink:href="#hl"/>
<use x="841.54" y="332.00" xlink:href="#hd"/>
<path d="M845.04 332.00v-29.50" class="stroke"/>
<use x="164.34" y="308.00" xlink:href="#hd"/>
<path d="M160.84 308.00v21.00" class="stroke"/>
</g>
</svg>
