<?xml version="1.0" standalone="no"?>
<!DOCTYPE svg PUBLIC "-//W3C//DTD SVG 1.1//EN"
	"http://www.w3.org/Graphics/SVG/1.1/DTD/svg11.dtd">
<svg xmlns="http://www.w3.org/2000/svg" version="1.1"
	xmlns:xlink="http://www.w3.org/1999/xlink"
	color="black"
	width="757.10px" height="296.40px">
<style type="text/css">
.fill {fill: currentColor}
.stroke {stroke: currentColor; fill: none}
text{white-space: pre}
</style>
<title>./K516f-8-2-4-3-10-9-10-6-8-3-12-8-10-9-8-7.abc (2315) tune 1</title>
<!-- Creator: abcm2ps-8.13.8 -->
<!-- CreationDate: Sep  7, 2017 11:20 -->
<!-- CommandLine: ./K516f-8-2-4-3-10-9-10-6-8-3-12-8-10-9-8-7.abc -O ./K516f-8-2-4-3-10-9-10-6-8-3-12-8-10-9-8-7.svg -g -->
<rect width="100%" height="100%" fill="white"/>
<g stroke-width="0.70" transform="scale(0.867)">
<!-- title: 8-2-4-3-10-9-10-6-8-3-12-8-10-9-8-7 -->
</g>
<g stroke-width="0.70" transform="scale(0.867)" font-family="Times" font-size="20.00">
<text x="436.84" y="22.00" text-anchor="middle">8-2-4-3-10-9-10-6-8-3-12-8-10-9-8-7</text>
</g>
<g stroke-width="0.70" transform="scale(0.867)" font-family="Times" font-size="20.00">
<!-- subtitle: $1K.516f::152:22:158:63:75:86:62:107:16:39:108:175:137:115:89:151::$0 -->
</g>
<g stroke-width="0.70" transform="scale(0.867)" font-family="Courier" font-size="8.00" font-weight="bold">
<text x="436.84" y="41.80" text-anchor="middle">K.516f::152:22:158:63:75:86:62:107:16:39:108:175:137:115:89:151::</text>
</g>
<g stroke-width="0.70" transform="scale(0.867)" font-family="Courier" font-size="8.00" font-weight="bold">
<!-- subtitle: $1Perm. No.: 231567315590497$0 -->
<text x="436.84" y="60.80" text-anchor="middle">Perm. No.: 231567315590497</text>
</g>
<g stroke-width="0.70" transform="scale(0.607)" font-family="Courier" font-size="8.00" font-weight="bold">
<defs>
<ellipse id="hd" rx="4.1" ry="2.9"
	transform="rotate(-20)" class="fill"/>
</defs>
<use x="103.06" y="121.29" xlink:href="#hd"/>
<path d="M106.56 121.29v-21.00" class="stroke"/>
<path class="fill"
	d="M106.56 100.29c0.6 5.6 9.6 9 5.6 18.4
	1.6 -6 -1.3 -11.6 -5.6 -12.8
"/>
</g>
<g stroke-width="0.70" transform="scale(0.867)" font-family="Times" font-size="15.00" font-weight="bold">
<text x="81.24" y="87.00">= 111</text>
<path class="stroke" stroke-width="1"
	d="M11.54 183.00v-82.00"/>
<path class="fill"
	d="M6.54 98.00
	c10.5 1 12 -4.5 12 -3.5c0 1 -3.5 5.5 -8.5 5.5
	v84.00
	c5 0 8.5 4.5 8.5 5.5c0 1 -1.5 -4.5 -12 -3.5"/>
<defs>
<g id="rdots" class="fill">
	<circle cx="0" cy="-9" r="1.2"/>
	<circle cx="0" cy="-15" r="1.2"/>
</g>
</defs>
<use x="70.54" y="125.00" xlink:href="#rdots"/>
<path class="stroke" stroke-width="1"
	d="M66.54 125.00v-24.00"/>
<path class="stroke" stroke-width="3"
	d="M62.04 125.00v-24.00"/>
<use x="70.54" y="183.00" xlink:href="#rdots"/>
<path class="stroke" stroke-width="1"
	d="M66.54 183.00v-58.00"/>
<path class="stroke" stroke-width="3"
	d="M62.04 183.00v-58.00"/>
<path class="stroke" stroke-width="1"
	d="M175.24 125.00v-24.00"/>
<path class="stroke" stroke-width="1"
	d="M175.24 183.00v-58.00"/>
<path class="stroke" stroke-width="1"
	d="M256.94 125.00v-24.00"/>
<path class="stroke" stroke-width="1"
	d="M256.94 183.00v-58.00"/>
<path class="stroke" stroke-width="1"
	d="M360.64 125.00v-24.00"/>
<path class="stroke" stroke-width="1"
	d="M360.64 183.00v-58.00"/>
<path class="stroke" stroke-width="1"
	d="M462.74 125.00v-24.00"/>
<path class="stroke" stroke-width="1"
	d="M462.74 183.00v-58.00"/>
<path class="stroke" stroke-width="1"
	d="M549.34 125.00v-24.00"/>
<path class="stroke" stroke-width="1"
	d="M549.34 183.00v-58.00"/>
<path class="stroke" stroke-width="1"
	d="M641.24 125.00v-24.00"/>
<path class="stroke" stroke-width="1"
	d="M641.24 183.00v-58.00"/>
<path class="stroke" stroke-width="1"
	d="M755.74 125.00v-24.00"/>
<path class="stroke" stroke-width="1"
	d="M755.74 183.00v-58.00"/>
<path class="stroke" stroke-width="3"
	d="M860.54 125.00v-24.00"/>
<path class="stroke" stroke-width="1"
	d="M856.04 125.00v-24.00"/>
<use x="852.04" y="125.00" xlink:href="#rdots"/>
<path class="stroke" stroke-width="3"
	d="M860.54 183.00v-58.00"/>
<path class="stroke" stroke-width="1"
	d="M856.04 183.00v-58.00"/>
<use x="852.04" y="183.00" xlink:href="#rdots"/>
<path d="m11.54 125.00
	h850.50
	M11.54 119.00
	h850.50
	M11.54 113.00
	h850.50
	M11.54 107.00
	h850.50
	M11.54 101.00
	h850.50
	" class="stroke"/>
<path d="m11.54 183.00
	h850.50
	M11.54 177.00
	h850.50
	M11.54 171.00
	h850.50
	M11.54 165.00
	h850.50
	M11.54 159.00
	h850.50
	" class="stroke"/>
</g>
<g stroke-width="0.70" transform="scale(0.867)" font-family="Times" font-size="13.00">
<text x="759.74" y="86.40">1</text>
<path class="stroke"
	d="M755.74 75.00m0 20v-20h98.30v20"/>
<defs>
<path id="utclef" class="fill" d="m-50 -90
	c-72 -41 -72 -158 52 -188
	150 -10 220 188 90 256
	-114 52 -275 0 -293 -136
	-15 -181 93 -229 220 -334
	88 -87 79 -133 62 -210
	-51 33 -94 105 -89 186
	17 267 36 374 49 574
	6 96 -19 134 -77 135
	-80 1 -126 -93 -61 -133
	85 -41 133 101 31 105
	23 17 92 37 90 -92
	-10 -223 -39 -342 -50 -617
	0 -90 0 -162 96 -232
	56 72 63 230 22 289
	-74 106 -257 168 -255 316
	9 153 148 185 252 133
	86 -65 29 -192 -80 -176
	-71 12 -105 67 -59 124"/>
<use id="tclef" transform="translate(0,6) scale(0.045)"
	xlink:href="#utclef"/>
</defs>
<use x="23.54" y="119.00" xlink:href="#tclef"/>
<g font-family="serif" font-size="16" font-weight="bold" font-style="normal"
	transform="translate(42.04,124.50) scale(1.2,1)">
	<text text-anchor="middle">8</text>
	<text y="-12" text-anchor="middle">3</text>
</g>
<path class="fill"
	d="M81.34 122.90l77.10 9.30v-3.20l-77.10 -9.30"/>
<path class="fill"
	d="M106.24 120.90l52.00 6.30v-3.20l-52.00 -6.30"/>
<use x="85.24" y="98.00" xlink:href="#hd"/>
<path d="M81.74 98.00v24.00" class="stroke"/>
<use x="109.74" y="101.00" xlink:href="#hd"/>
<path d="M106.24 101.00v23.90" class="stroke"/>
<use x="127.04" y="104.00" xlink:href="#hd"/>
<path d="M123.54 104.00v23.00" class="stroke"/>
<use x="144.34" y="107.00" xlink:href="#hd"/>
<path d="M140.84 107.00v22.10" class="stroke"/>
<use x="161.64" y="110.00" xlink:href="#hd"/>
<path d="M158.14 110.00v21.20" class="stroke"/>
<path class="fill"
	d="M185.04 131.60l49.60 6.70v-3.20l-49.60 -6.70"/>
<use x="188.94" y="104.00" xlink:href="#hd"/>
<path d="M185.44 104.00v26.60" class="stroke"/>
<use x="213.44" y="110.00" xlink:href="#hd"/>
<path d="M209.94 110.00v23.90" class="stroke"/>
<use x="237.84" y="119.00" xlink:href="#hd"/>
<path d="M234.34 119.00v18.20" class="stroke"/>
<path class="fill"
	d="M273.84 84.80l77.10 0.00v3.20l-77.10 -0.00"/>
<path class="fill"
	d="M298.64 89.80l52.00 0.00v3.20l-52.00 -0.00"/>
<use x="270.64" y="113.00" xlink:href="#hd"/>
<path d="M274.14 113.00v-27.20" class="stroke"/>
<use x="295.14" y="107.00" xlink:href="#hd"/>
<path d="M298.64 107.00v-21.20" class="stroke"/>
<use x="312.44" y="113.00" xlink:href="#hd"/>
<path d="M315.94 113.00v-27.20" class="stroke"/>
<use x="329.74" y="116.00" xlink:href="#hd"/>
<path d="M333.24 116.00v-30.20" class="stroke"/>
<use x="347.14" y="119.00" xlink:href="#hd"/>
<path d="M350.64 119.00v-33.20" class="stroke"/>
<path class="fill"
	d="M370.54 132.20l70.00 6.00v-3.20l-70.00 -6.00"/>
<path class="fill"
	d="M370.84 127.20l52.00 4.50v-3.20l-52.00 -4.50"/>
<use x="374.34" y="104.00" xlink:href="#hd"/>
<path d="M370.84 104.00v27.20" class="stroke"/>
<use x="391.64" y="110.00" xlink:href="#hd"/>
<path d="M388.14 110.00v22.70" class="stroke"/>
<use x="409.04" y="113.00" xlink:href="#hd"/>
<path d="M405.54 113.00v21.20" class="stroke"/>
<use x="426.34" y="110.00" xlink:href="#hd"/>
<path d="M422.84 110.00v25.70" class="stroke"/>
<use x="443.64" y="119.00" xlink:href="#hd"/>
<path d="M440.14 119.00v18.20" class="stroke"/>
<path class="fill"
	d="M477.44 125.20l49.60 0.00v-3.20l-49.60 -0.00"/>
<use x="481.24" y="101.00" xlink:href="#hd"/>
<defs>
<path id="usharp" class="fill" d="
	m136 -702
	v890
	h32
	v-890
	m128 840
	h32
	v-888
	h-32
	m-232 286
	v116
	l338 -96
	v-116
	m-338 442
	v116
	l338 -98
	v-114"/>
<use id="sh0" transform="translate(-4,5) scale(0.018)"
	xlink:href="#usharp"/>
</defs>
<use x="472.24" y="101.00" xlink:href="#sh0"/>
<path d="M477.74 101.00v23.20" class="stroke"/>
<use x="481.24" y="107.00" xlink:href="#hd"/>
<use x="505.74" y="101.00" xlink:href="#hd"/>
<path d="M502.24 101.00v23.20" class="stroke"/>
<use x="505.74" y="107.00" xlink:href="#hd"/>
<use x="530.24" y="101.00" xlink:href="#hd"/>
<path d="M526.74 101.00v23.20" class="stroke"/>
<use x="530.24" y="107.00" xlink:href="#hd"/>
<path class="fill"
	d="M559.14 132.20l59.80 -7.20v-3.20l-59.80 7.20"/>
<path class="fill"
	d="M583.94 124.20l17.30 -2.10v-3.20l-17.30 2.10"/>
<use x="563.04" y="107.00" xlink:href="#hd"/>
<path d="M559.54 107.00v24.10" class="stroke"/>
<use x="587.44" y="107.00" xlink:href="#hd"/>
<path d="M583.94 107.00v21.20" class="stroke"/>
<use x="604.84" y="98.00" xlink:href="#hd"/>
<path d="M601.34 98.00v28.10" class="stroke"/>
<defs>
<path id="hl" class="stroke" d="m-6 0h12"/>
</defs>
<use x="622.14" y="95.00" xlink:href="#hl"/>
<use x="622.14" y="92.00" xlink:href="#hd"/>
<path d="M618.64 92.00v32.00" class="stroke"/>
<path class="fill"
	d="M658.04 81.80l88.00 8.10v3.20l-88.00 -8.10"/>
<path class="fill"
	d="M658.44 86.80l87.30 8.00v3.20l-87.30 -8.00"/>
<use x="654.94" y="104.00" xlink:href="#hd"/>
<path d="M658.44 104.00v-21.20" class="stroke"/>
<use x="672.24" y="110.00" xlink:href="#hd"/>
<path d="M675.74 110.00v-25.60" class="stroke"/>
<use x="689.54" y="113.00" xlink:href="#hd"/>
<path d="M693.04 113.00v-27.00" class="stroke"/>
<use x="706.94" y="119.00" xlink:href="#hd"/>
<path d="M710.44 119.00v-31.40" class="stroke"/>
<use x="724.24" y="116.00" xlink:href="#hd"/>
<path d="M727.74 116.00v-26.90" class="stroke"/>
<use x="742.24" y="122.00" xlink:href="#hd"/>
<use x="733.24" y="122.00" xlink:href="#sh0"/>
<path d="M745.74 122.00v-31.20" class="stroke"/>
<use x="769.44" y="98.00" xlink:href="#hd"/>
<path d="M765.94 98.00v40.00" class="stroke"/>
<use x="769.44" y="119.00" xlink:href="#hd"/>
<use x="769.44" y="113.00" xlink:href="#hd"/>
<use x="769.44" y="107.00" xlink:href="#hd"/>
<defs>
<path id="r8e" class="fill" d="m 0 0
	c-1.5 1.5 -2.4 2 -3.6 2
	2.4 -2.8 -2.8 -4 -2.8 -1.2
	c0 2.7 4.3 2.4 5.9 0.6"/>
<g id="r8">
	<path d="m3.3 -4l-3.4 9.6" class="stroke"/>
	<use x="3.4" y="-4" xlink:href="#r8e"/>
</g>
</defs>
<use x="829.24" y="113.00" xlink:href="#r8"/>
<defs>
<path id="ubclef" class="fill" d="m-200 -87
	c124 -35 222 -78 254 -236
	43 -228 -167 -246 -192 -103
	59 -80 157 22 92 78
	-62 47 -115 -22 -106 -88
	21 -141 270 -136 274 52
	-1 175 -106 264 -322 297
	m357 -250
	c0 -36 51 -34 51 0
	0 37 -51 36 -51 0
	m-2 -129
	c0 -36 51 -34 51 0
	0 38 -51 37 -51 0"/>
<use id="bclef" transform="translate(0,18) scale(0.045)"
	xlink:href="#ubclef"/>
</defs>
<use x="23.54" y="165.00" xlink:href="#bclef"/>
<g font-family="serif" font-size="16" font-weight="bold" font-style="normal"
	transform="translate(42.04,182.50) scale(1.2,1)">
	<text text-anchor="middle">8</text>
	<text y="-12" text-anchor="middle">3</text>
</g>
<use x="85.24" y="168.00" xlink:href="#hd"/>
<path d="M81.74 168.00v25.00" class="stroke"/>
<use x="85.24" y="174.00" xlink:href="#hd"/>
<use x="144.34" y="171.00" xlink:href="#r8"/>
<use x="188.94" y="174.00" xlink:href="#hd"/>
<path d="M192.44 174.00v-21.00" class="stroke"/>
<use x="237.84" y="171.00" xlink:href="#r8"/>
<use x="270.64" y="162.00" xlink:href="#hd"/>
<path d="M267.14 162.00v21.00" class="stroke"/>
<use x="329.74" y="171.00" xlink:href="#r8"/>
<use x="374.34" y="174.00" xlink:href="#hd"/>
<path d="M377.84 174.00v-21.00" class="stroke"/>
<use x="443.64" y="171.00" xlink:href="#r8"/>
<path class="fill"
	d="M484.44 153.00l49.60 0.00v3.20l-49.60 -0.00"/>
<use x="481.24" y="174.00" xlink:href="#hd"/>
<path d="M484.74 174.00v-20.00" class="stroke"/>
<use x="505.74" y="174.00" xlink:href="#hd"/>
<path d="M509.24 174.00v-20.00" class="stroke"/>
<use x="530.24" y="174.00" xlink:href="#hd"/>
<path d="M533.74 174.00v-20.00" class="stroke"/>
<use x="563.04" y="162.00" xlink:href="#hd"/>
<path d="M559.54 162.00v34.00" class="stroke"/>
<use x="563.04" y="177.00" xlink:href="#hd"/>
<use x="622.14" y="171.00" xlink:href="#r8"/>
<path class="fill"
	d="M658.04 147.60l70.00 8.30v3.20l-70.00 -8.30"/>
<use x="654.94" y="174.00" xlink:href="#hd"/>
<path d="M658.44 174.00v-25.30" class="stroke"/>
<use x="689.54" y="171.00" xlink:href="#hd"/>
<path d="M693.04 171.00v-18.20" class="stroke"/>
<use x="724.24" y="189.00" xlink:href="#hl"/>
<use x="724.24" y="192.00" xlink:href="#hd"/>
<path d="M727.74 192.00v-35.10" class="stroke"/>
<path class="fill"
	d="M765.64 202.20l77.80 0.00v-3.20l-77.80 -0.00"/>
<path class="fill"
	d="M790.44 197.20l52.70 0.00v-3.20l-52.70 -0.00"/>
<use x="769.44" y="183.00" xlink:href="#hd"/>
<path d="M765.94 183.00v18.20" class="stroke"/>
<use x="793.94" y="162.00" xlink:href="#hd"/>
<path d="M790.44 162.00v39.20" class="stroke"/>
<use x="811.94" y="165.00" xlink:href="#hd"/>
<defs>
<path id="unat" class="fill" d="
	m96 -750
	h-32
	v716
	l32 -8
	182 -54
	v282
	h32
	v-706
	l-34 10
	-180 50
	v-290
	m0 592
	v-190
	l182 -52
	v188"/>
<use id="nt0" transform="translate(-3,5) scale(0.018)"
	xlink:href="#unat"/>
</defs>
<use x="802.94" y="165.00" xlink:href="#nt0"/>
<path d="M808.44 165.00v36.20" class="stroke"/>
<use x="829.24" y="168.00" xlink:href="#hd"/>
<path d="M825.74 168.00v33.20" class="stroke"/>
<use x="846.64" y="171.00" xlink:href="#hd"/>
<path d="M843.14 171.00v30.20" class="stroke"/>
</g>
<g stroke-width="0.70" transform="scale(0.867)" font-family="Times" font-size="13.00">
<path class="stroke" stroke-width="1"
	d="M11.54 316.00v-82.00"/>
<path class="fill"
	d="M6.54 231.00
	c10.5 1 12 -4.5 12 -3.5c0 1 -3.5 5.5 -8.5 5.5
	v84.00
	c5 0 8.5 4.5 8.5 5.5c0 1 -1.5 -4.5 -12 -3.5"/>
<use x="146.64" y="258.00" xlink:href="#rdots"/>
<path class="stroke" stroke-width="1"
	d="M142.64 258.00v-24.00"/>
<path class="stroke" stroke-width="3"
	d="M138.14 258.00v-24.00"/>
<use x="146.64" y="316.00" xlink:href="#rdots"/>
<path class="stroke" stroke-width="1"
	d="M142.64 316.00v-58.00"/>
<path class="stroke" stroke-width="3"
	d="M138.14 316.00v-58.00"/>
<path class="stroke" stroke-width="1"
	d="M227.64 258.00v-24.00"/>
<path class="stroke" stroke-width="1"
	d="M227.64 316.00v-58.00"/>
<path class="stroke" stroke-width="1"
	d="M330.64 258.00v-24.00"/>
<path class="stroke" stroke-width="1"
	d="M330.64 316.00v-58.00"/>
<path class="stroke" stroke-width="1"
	d="M404.24 258.00v-24.00"/>
<path class="stroke" stroke-width="1"
	d="M404.24 316.00v-58.00"/>
<path class="stroke" stroke-width="1"
	d="M496.34 258.00v-24.00"/>
<path class="stroke" stroke-width="1"
	d="M496.34 316.00v-58.00"/>
<path class="stroke" stroke-width="1"
	d="M599.34 258.00v-24.00"/>
<path class="stroke" stroke-width="1"
	d="M599.34 316.00v-58.00"/>
<path class="stroke" stroke-width="1"
	d="M702.34 258.00v-24.00"/>
<path class="stroke" stroke-width="1"
	d="M702.34 316.00v-58.00"/>
<path class="stroke" stroke-width="1"
	d="M785.24 258.00v-24.00"/>
<path class="stroke" stroke-width="1"
	d="M785.24 316.00v-58.00"/>
<path class="stroke" stroke-width="3"
	d="M860.54 258.00v-24.00"/>
<path class="stroke" stroke-width="1"
	d="M856.04 258.00v-24.00"/>
<use x="852.04" y="258.00" xlink:href="#rdots"/>
<path class="stroke" stroke-width="3"
	d="M860.54 316.00v-58.00"/>
<path class="stroke" stroke-width="1"
	d="M856.04 316.00v-58.00"/>
<use x="852.04" y="316.00" xlink:href="#rdots"/>
<path d="m11.54 258.00
	h850.50
	M11.54 252.00
	h850.50
	M11.54 246.00
	h850.50
	M11.54 240.00
	h850.50
	M11.54 234.00
	h850.50
	" class="stroke"/>
<path d="m11.54 316.00
	h850.50
	M11.54 310.00
	h850.50
	M11.54 304.00
	h850.50
	M11.54 298.00
	h850.50
	M11.54 292.00
	h850.50
	" class="stroke"/>
<path class="fill"
	d="M169.14 223.80c6.47 -3.50 34.74 -0.62 41.20 4.20
	v-0.24c-7.70 -6.57 -33.50 -9.46 -41.20 -3.96"/>
<path class="fill"
	d="M343.14 229.00c6.27 -5.81 33.55 -13.07 39.83 -10.60
	v-0.24c-7.47 -4.23 -32.36 3.03 -39.83 10.84"/>
<text x="47.54" y="219.40">2</text>
<path class="stroke"
	d="M43.54 208.00m0 20v-20h92.10v20"/>
<use x="23.54" y="252.00" xlink:href="#tclef"/>
<use x="56.04" y="231.00" xlink:href="#hd"/>
<path d="M52.54 231.00v40.00" class="stroke"/>
<use x="56.04" y="252.00" xlink:href="#hd"/>
<use x="56.04" y="246.00" xlink:href="#hd"/>
<use x="56.04" y="240.00" xlink:href="#hd"/>
<use x="111.54" y="246.00" xlink:href="#r8"/>
<path class="fill"
	d="M162.34 251.40l44.90 7.90v-3.20l-44.90 -7.90"/>
<use x="166.14" y="228.00" xlink:href="#hl"/>
<use x="166.14" y="228.00" xlink:href="#hd"/>
<path d="M162.64 228.00v22.40" class="stroke"/>
<use x="188.44" y="234.00" xlink:href="#hd"/>
<use x="179.44" y="234.00" xlink:href="#sh0"/>
<path d="M184.94 234.00v20.30" class="stroke"/>
<use x="210.34" y="240.00" xlink:href="#hd"/>
<path d="M206.84 240.00v18.20" class="stroke"/>
<path class="fill"
	d="M236.24 266.70l63.10 9.10v-3.20l-63.10 -9.10"/>
<use x="240.14" y="231.00" xlink:href="#hd"/>
<path d="M236.64 231.00v34.70" class="stroke"/>
<use x="271.34" y="252.00" xlink:href="#hd"/>
<path d="M267.84 252.00v18.20" class="stroke"/>
<use x="302.54" y="252.00" xlink:href="#hd"/>
<path d="M299.04 252.00v22.70" class="stroke"/>
<path class="fill"
	d="M339.24 256.30l44.50 -7.90v-3.20l-44.50 7.90"/>
<use x="343.14" y="237.00" xlink:href="#hd"/>
<path d="M339.64 237.00v18.20" class="stroke"/>
<use x="365.04" y="231.00" xlink:href="#hd"/>
<path d="M361.54 231.00v20.30" class="stroke"/>
<use x="386.94" y="228.00" xlink:href="#hl"/>
<use x="386.94" y="222.00" xlink:href="#hl"/>
<use x="386.94" y="222.00" xlink:href="#hd"/>
<path d="M383.44 222.00v25.40" class="stroke"/>
<path class="fill"
	d="M412.84 268.20l63.10 0.00v-3.20l-63.10 -0.00"/>
<path class="fill"
	d="M413.24 263.20l46.80 0.00v-3.20l-46.80 -0.00"/>
<use x="416.74" y="237.00" xlink:href="#hd"/>
<path d="M413.24 237.00v30.20" class="stroke"/>
<use x="432.34" y="243.00" xlink:href="#hd"/>
<path d="M428.84 243.00v24.20" class="stroke"/>
<use x="447.94" y="246.00" xlink:href="#hd"/>
<path d="M444.44 246.00v21.20" class="stroke"/>
<use x="463.54" y="240.00" xlink:href="#hd"/>
<path d="M460.04 240.00v27.20" class="stroke"/>
<use x="479.14" y="231.00" xlink:href="#hd"/>
<path d="M475.64 231.00v36.20" class="stroke"/>
<path class="fill"
	d="M505.04 272.80l63.10 -3.30v-3.20l-63.10 3.30"/>
<use x="508.84" y="243.00" xlink:href="#hd"/>
<path d="M505.34 243.00v28.80" class="stroke"/>
<use x="540.04" y="252.00" xlink:href="#hd"/>
<path d="M536.54 252.00v18.20" class="stroke"/>
<use x="571.24" y="237.00" xlink:href="#hd"/>
<path d="M567.74 237.00v31.60" class="stroke"/>
<path class="fill"
	d="M608.04 275.50l78.70 -6.30v-3.20l-78.70 6.30"/>
<path class="fill"
	d="M608.34 270.50l78.00 -6.30v-3.20l-78.00 6.30"/>
<use x="611.84" y="243.00" xlink:href="#hd"/>
<path d="M608.34 243.00v31.50" class="stroke"/>
<use x="627.44" y="252.00" xlink:href="#hd"/>
<path d="M623.94 252.00v21.20" class="stroke"/>
<use x="643.04" y="237.00" xlink:href="#hd"/>
<path d="M639.54 237.00v34.90" class="stroke"/>
<use x="658.64" y="243.00" xlink:href="#hd"/>
<path d="M655.14 243.00v27.70" class="stroke"/>
<use x="674.24" y="231.00" xlink:href="#hd"/>
<path d="M670.74 231.00v38.40" class="stroke"/>
<use x="689.84" y="237.00" xlink:href="#hd"/>
<path d="M686.34 237.00v31.20" class="stroke"/>
<path class="fill"
	d="M711.04 260.00l53.80 0.00v-3.20l-53.80 -0.00"/>
<path class="fill"
	d="M711.34 255.00l15.60 0.00v-3.20l-15.60 -0.00"/>
<use x="714.84" y="234.00" xlink:href="#hd"/>
<path d="M711.34 234.00v25.00" class="stroke"/>
<use x="730.44" y="237.00" xlink:href="#hd"/>
<path d="M726.94 237.00v22.00" class="stroke"/>
<use x="746.04" y="240.00" xlink:href="#hd"/>
<path d="M742.54 240.00v19.00" class="stroke"/>
<use x="767.94" y="231.00" xlink:href="#hd"/>
<path d="M764.44 231.00v28.00" class="stroke"/>
<use x="797.74" y="243.00" xlink:href="#hd"/>
<path d="M794.24 243.00v21.00" class="stroke"/>
<use x="841.54" y="246.00" xlink:href="#r8"/>
<use x="23.54" y="298.00" xlink:href="#bclef"/>
<path class="fill"
	d="M52.24 335.20l71.80 -5.10v-3.20l-71.80 5.10"/>
<path class="fill"
	d="M74.44 328.60l49.20 -3.50v-3.20l-49.20 3.50"/>
<use x="56.04" y="316.00" xlink:href="#hd"/>
<path d="M52.54 316.00v18.20" class="stroke"/>
<use x="77.94" y="289.00" xlink:href="#hd"/>
<path d="M74.44 289.00v43.60" class="stroke"/>
<use x="93.54" y="295.00" xlink:href="#hd"/>
<path d="M90.04 295.00v36.50" class="stroke"/>
<use x="111.54" y="298.00" xlink:href="#hd"/>
<use x="102.54" y="298.00" xlink:href="#sh0"/>
<path d="M108.04 298.00v32.20" class="stroke"/>
<use x="127.14" y="301.00" xlink:href="#hd"/>
<path d="M123.64 301.00v28.10" class="stroke"/>
<use x="166.14" y="298.00" xlink:href="#hd"/>
<use x="157.14" y="298.00" xlink:href="#sh0"/>
<path d="M162.64 298.00v25.00" class="stroke"/>
<use x="166.14" y="304.00" xlink:href="#hd"/>
<use x="210.34" y="298.00" xlink:href="#hd"/>
<path d="M206.84 298.00v28.00" class="stroke"/>
<path class="fill"
	d="M206.84 326.00c0.6 -5.6 9.6 -9 5.6 -18.4
	1.6 6 -1.3 11.6 -5.6 12.8
"/>
<use x="210.34" y="307.00" xlink:href="#hd"/>
<path class="fill"
	d="M236.24 338.20l78.70 0.00v-3.20l-78.70 -0.00"/>
<path class="fill"
	d="M236.64 333.20l78.00 0.00v-3.20l-78.00 -0.00"/>
<use x="240.14" y="310.00" xlink:href="#hd"/>
<path d="M236.64 310.00v27.20" class="stroke"/>
<use x="255.74" y="304.00" xlink:href="#hd"/>
<path d="M252.24 304.00v33.20" class="stroke"/>
<use x="271.34" y="295.00" xlink:href="#hd"/>
<path d="M267.84 295.00v42.20" class="stroke"/>
<use x="286.94" y="304.00" xlink:href="#hd"/>
<path d="M283.44 304.00v33.20" class="stroke"/>
<use x="302.54" y="289.00" xlink:href="#hd"/>
<path d="M299.04 289.00v48.20" class="stroke"/>
<use x="318.14" y="316.00" xlink:href="#hd"/>
<path d="M314.64 316.00v21.20" class="stroke"/>
<use x="343.14" y="295.00" xlink:href="#hd"/>
<path d="M339.64 295.00v31.00" class="stroke"/>
<use x="343.14" y="307.00" xlink:href="#hd"/>
<use x="386.94" y="301.00" xlink:href="#hd"/>
<path d="M383.44 301.00v25.00" class="stroke"/>
<path class="fill"
	d="M383.44 326.00c0.6 -5.6 9.6 -9 5.6 -18.4
	1.6 6 -1.3 11.6 -5.6 12.8
"/>
<use x="386.94" y="307.00" xlink:href="#hd"/>
<path class="fill"
	d="M419.84 275.70l31.90 9.10v3.20l-31.90 -9.10"/>
<use x="416.74" y="295.00" xlink:href="#hd"/>
<path d="M420.24 295.00v-18.20" class="stroke"/>
<use x="447.94" y="316.00" xlink:href="#hd"/>
<path d="M451.44 316.00v-30.30" class="stroke"/>
<use x="479.14" y="304.00" xlink:href="#r8"/>
<path class="fill"
	d="M505.04 323.90l78.70 0.00v-3.20l-78.70 -0.00"/>
<path class="fill"
	d="M505.34 318.90l78.00 0.00v-3.20l-78.00 -0.00"/>
<use x="508.84" y="301.00" xlink:href="#hd"/>
<path d="M505.34 301.00v21.90" class="stroke"/>
<use x="508.84" y="307.00" xlink:href="#hd"/>
<use x="524.44" y="295.00" xlink:href="#hd"/>
<path d="M520.94 295.00v27.90" class="stroke"/>
<use x="540.04" y="301.00" xlink:href="#hd"/>
<path d="M536.54 301.00v21.90" class="stroke"/>
<use x="540.04" y="307.00" xlink:href="#hd"/>
<use x="555.64" y="295.00" xlink:href="#hd"/>
<path d="M552.14 295.00v27.90" class="stroke"/>
<use x="571.24" y="301.00" xlink:href="#hd"/>
<path d="M567.74 301.00v21.90" class="stroke"/>
<use x="571.24" y="307.00" xlink:href="#hd"/>
<use x="586.84" y="295.00" xlink:href="#hd"/>
<path d="M583.34 295.00v27.90" class="stroke"/>
<use x="611.84" y="301.00" xlink:href="#hd"/>
<path d="M608.34 301.00v25.00" class="stroke"/>
<use x="611.84" y="307.00" xlink:href="#hd"/>
<use x="674.24" y="304.00" xlink:href="#r8"/>
<path class="fill"
	d="M711.04 323.90l53.80 0.00v-3.20l-53.80 -0.00"/>
<path class="fill"
	d="M711.34 318.90l15.60 0.00v-3.20l-15.60 -0.00"/>
<use x="714.84" y="298.00" xlink:href="#hd"/>
<path d="M711.34 298.00v24.90" class="stroke"/>
<use x="730.44" y="301.00" xlink:href="#hd"/>
<path d="M726.94 301.00v21.90" class="stroke"/>
<use x="746.04" y="304.00" xlink:href="#hd"/>
<path d="M742.54 304.00v18.90" class="stroke"/>
<use x="767.94" y="295.00" xlink:href="#hd"/>
<path d="M764.44 295.00v27.90" class="stroke"/>
<path class="fill"
	d="M800.84 287.70l44.50 10.00v3.20l-44.50 -10.00"/>
<use x="797.74" y="307.00" xlink:href="#hd"/>
<path d="M801.24 307.00v-18.20" class="stroke"/>
<use x="819.64" y="316.00" xlink:href="#hd"/>
<path d="M823.14 316.00v-22.30" class="stroke"/>
<use x="841.54" y="322.00" xlink:href="#hl"/>
<use x="841.54" y="328.00" xlink:href="#hl"/>
<use x="841.54" y="328.00" xlink:href="#hd"/>
<path d="M845.04 328.00v-29.30" class="stroke"/>
</g>
</svg>
