<?xml version="1.0" standalone="no"?>
<!DOCTYPE svg PUBLIC "-//W3C//DTD SVG 1.1//EN"
	"http://www.w3.org/Graphics/SVG/1.1/DTD/svg11.dtd">
<svg xmlns="http://www.w3.org/2000/svg" version="1.1"
	xmlns:xlink="http://www.w3.org/1999/xlink"
	color="black"
	width="757.10px" height="293.80px">
<style type="text/css">
.fill {fill: currentColor}
.stroke {stroke: currentColor; fill: none}
text{white-space: pre}
</style>
<title>./K516f-8-8-10-10-12-2-10-12-2-12-4-4-3-3-11-12.abc (3141) tune 1</title>
<!-- Creator: abcm2ps-8.13.8 -->
<!-- CreationDate: Sep  7, 2017 11:17 -->
<!-- CommandLine: ./K516f-8-8-10-10-12-2-10-12-2-12-4-4-3-3-11-12.abc -O ./K516f-8-8-10-10-12-2-10-12-2-12-4-4-3-3-11-12.svg -g -->
<rect width="100%" height="100%" fill="white"/>
<g stroke-width="0.70" transform="scale(0.867)">
<!-- title: 8-8-10-10-12-2-10-12-2-12-4-4-3-3-11-12 -->
</g>
<g stroke-width="0.70" transform="scale(0.867)" font-family="Times" font-size="20.00">
<text x="436.84" y="22.00" text-anchor="middle">8-8-10-10-12-2-10-12-2-12-4-4-3-3-11-12</text>
</g>
<g stroke-width="0.70" transform="scale(0.867)" font-family="Times" font-size="20.00">
<!-- subtitle: $1K.516f::152:60:42:156:28:122:62:5:70:20:15:132:174:18:173:131::$0 -->
</g>
<g stroke-width="0.70" transform="scale(0.867)" font-family="Courier" font-size="8.00" font-weight="bold">
<text x="436.84" y="41.80" text-anchor="middle">K.516f::152:60:42:156:28:122:62:5:70:20:15:132:174:18:173:131::</text>
</g>
<g stroke-width="0.70" transform="scale(0.867)" font-family="Courier" font-size="8.00" font-weight="bold">
<!-- subtitle: $1Perm. No.: 314186898006692$0 -->
<text x="436.84" y="60.80" text-anchor="middle">Perm. No.: 314186898006692</text>
</g>
<g stroke-width="0.70" transform="scale(0.607)" font-family="Courier" font-size="8.00" font-weight="bold">
<defs>
<ellipse id="hd" rx="4.1" ry="2.9"
	transform="rotate(-20)" class="fill"/>
</defs>
<use x="103.06" y="121.29" xlink:href="#hd"/>
<path d="M106.56 121.29v-21.00" class="stroke"/>
<path class="fill"
	d="M106.56 100.29c0.6 5.6 9.6 9 5.6 18.4
	1.6 -6 -1.3 -11.6 -5.6 -12.8
"/>
</g>
<g stroke-width="0.70" transform="scale(0.867)" font-family="Times" font-size="15.00" font-weight="bold">
<text x="81.24" y="87.00">= 111</text>
<path class="stroke" stroke-width="1"
	d="M11.54 183.00v-82.00"/>
<path class="fill"
	d="M6.54 98.00
	c10.5 1 12 -4.5 12 -3.5c0 1 -3.5 5.5 -8.5 5.5
	v84.00
	c5 0 8.5 4.5 8.5 5.5c0 1 -1.5 -4.5 -12 -3.5"/>
<defs>
<g id="rdots" class="fill">
	<circle cx="0" cy="-9" r="1.2"/>
	<circle cx="0" cy="-15" r="1.2"/>
</g>
</defs>
<use x="70.54" y="125.00" xlink:href="#rdots"/>
<path class="stroke" stroke-width="1"
	d="M66.54 125.00v-24.00"/>
<path class="stroke" stroke-width="3"
	d="M62.04 125.00v-24.00"/>
<use x="70.54" y="183.00" xlink:href="#rdots"/>
<path class="stroke" stroke-width="1"
	d="M66.54 183.00v-58.00"/>
<path class="stroke" stroke-width="3"
	d="M62.04 183.00v-58.00"/>
<path class="stroke" stroke-width="1"
	d="M165.34 125.00v-24.00"/>
<path class="stroke" stroke-width="1"
	d="M165.34 183.00v-58.00"/>
<path class="stroke" stroke-width="1"
	d="M259.24 125.00v-24.00"/>
<path class="stroke" stroke-width="1"
	d="M259.24 183.00v-58.00"/>
<path class="stroke" stroke-width="1"
	d="M362.44 125.00v-24.00"/>
<path class="stroke" stroke-width="1"
	d="M362.44 183.00v-58.00"/>
<path class="stroke" stroke-width="1"
	d="M454.84 125.00v-24.00"/>
<path class="stroke" stroke-width="1"
	d="M454.84 183.00v-58.00"/>
<path class="stroke" stroke-width="1"
	d="M563.94 125.00v-24.00"/>
<path class="stroke" stroke-width="1"
	d="M563.94 183.00v-58.00"/>
<path class="stroke" stroke-width="1"
	d="M658.64 125.00v-24.00"/>
<path class="stroke" stroke-width="1"
	d="M658.64 183.00v-58.00"/>
<path class="stroke" stroke-width="1"
	d="M764.24 125.00v-24.00"/>
<path class="stroke" stroke-width="1"
	d="M764.24 183.00v-58.00"/>
<path class="stroke" stroke-width="3"
	d="M860.54 125.00v-24.00"/>
<path class="stroke" stroke-width="1"
	d="M856.04 125.00v-24.00"/>
<use x="852.04" y="125.00" xlink:href="#rdots"/>
<path class="stroke" stroke-width="3"
	d="M860.54 183.00v-58.00"/>
<path class="stroke" stroke-width="1"
	d="M856.04 183.00v-58.00"/>
<use x="852.04" y="183.00" xlink:href="#rdots"/>
<path d="m11.54 125.00
	h850.50
	M11.54 119.00
	h850.50
	M11.54 113.00
	h850.50
	M11.54 107.00
	h850.50
	M11.54 101.00
	h850.50
	" class="stroke"/>
<path d="m11.54 183.00
	h850.50
	M11.54 177.00
	h850.50
	M11.54 171.00
	h850.50
	M11.54 165.00
	h850.50
	M11.54 159.00
	h850.50
	" class="stroke"/>
</g>
<g stroke-width="0.70" transform="scale(0.867)" font-family="Times" font-size="13.00">
<text x="768.24" y="86.40">1</text>
<path class="stroke"
	d="M764.24 75.00m0 20v-20h89.80v20"/>
<defs>
<path id="utclef" class="fill" d="m-50 -90
	c-72 -41 -72 -158 52 -188
	150 -10 220 188 90 256
	-114 52 -275 0 -293 -136
	-15 -181 93 -229 220 -334
	88 -87 79 -133 62 -210
	-51 33 -94 105 -89 186
	17 267 36 374 49 574
	6 96 -19 134 -77 135
	-80 1 -126 -93 -61 -133
	85 -41 133 101 31 105
	23 17 92 37 90 -92
	-10 -223 -39 -342 -50 -617
	0 -90 0 -162 96 -232
	56 72 63 230 22 289
	-74 106 -257 168 -255 316
	9 153 148 185 252 133
	86 -65 29 -192 -80 -176
	-71 12 -105 67 -59 124"/>
<use id="tclef" transform="translate(0,6) scale(0.045)"
	xlink:href="#utclef"/>
</defs>
<use x="23.54" y="119.00" xlink:href="#tclef"/>
<g font-family="serif" font-size="16" font-weight="bold" font-style="normal"
	transform="translate(42.04,124.50) scale(1.2,1)">
	<text text-anchor="middle">8</text>
	<text y="-12" text-anchor="middle">3</text>
</g>
<path class="fill"
	d="M80.24 123.20l69.40 9.10v-3.20l-69.40 -9.10"/>
<path class="fill"
	d="M102.54 121.10l46.90 6.10v-3.20l-46.90 -6.10"/>
<use x="84.14" y="98.00" xlink:href="#hd"/>
<path d="M80.64 98.00v24.20" class="stroke"/>
<use x="106.04" y="101.00" xlink:href="#hd"/>
<path d="M102.54 101.00v24.10" class="stroke"/>
<use x="121.64" y="104.00" xlink:href="#hd"/>
<path d="M118.14 104.00v23.10" class="stroke"/>
<use x="137.24" y="107.00" xlink:href="#hd"/>
<path d="M133.74 107.00v22.20" class="stroke"/>
<use x="152.84" y="110.00" xlink:href="#hd"/>
<path d="M149.34 110.00v21.20" class="stroke"/>
<path class="fill"
	d="M174.14 123.20l69.40 9.10v-3.20l-69.40 -9.10"/>
<path class="fill"
	d="M196.34 121.10l46.90 6.10v-3.20l-46.90 -6.10"/>
<use x="177.94" y="98.00" xlink:href="#hd"/>
<path d="M174.44 98.00v24.20" class="stroke"/>
<use x="199.84" y="101.00" xlink:href="#hd"/>
<path d="M196.34 101.00v24.10" class="stroke"/>
<use x="215.44" y="104.00" xlink:href="#hd"/>
<path d="M211.94 104.00v23.10" class="stroke"/>
<use x="231.04" y="107.00" xlink:href="#hd"/>
<path d="M227.54 107.00v22.20" class="stroke"/>
<use x="246.74" y="110.00" xlink:href="#hd"/>
<path d="M243.24 110.00v21.20" class="stroke"/>
<path class="fill"
	d="M267.94 141.20l78.80 0.00v-3.20l-78.80 -0.00"/>
<path class="fill"
	d="M268.34 136.20l78.10 0.00v-3.20l-78.10 -0.00"/>
<use x="271.84" y="113.00" xlink:href="#hd"/>
<path d="M268.34 113.00v27.20" class="stroke"/>
<use x="287.44" y="110.00" xlink:href="#hd"/>
<path d="M283.94 110.00v30.20" class="stroke"/>
<use x="303.04" y="107.00" xlink:href="#hd"/>
<path d="M299.54 107.00v33.20" class="stroke"/>
<use x="318.64" y="113.00" xlink:href="#hd"/>
<path d="M315.14 113.00v27.20" class="stroke"/>
<use x="334.24" y="116.00" xlink:href="#hd"/>
<path d="M330.74 116.00v24.20" class="stroke"/>
<use x="349.94" y="119.00" xlink:href="#hd"/>
<path d="M346.44 119.00v21.20" class="stroke"/>
<path class="fill"
	d="M371.14 142.80l63.20 -6.40v-3.20l-63.20 6.40"/>
<path class="fill"
	d="M371.44 137.80l46.90 -4.70v-3.20l-46.90 4.70"/>
<use x="374.94" y="110.00" xlink:href="#hd"/>
<path d="M371.44 110.00v31.80" class="stroke"/>
<use x="390.64" y="119.00" xlink:href="#hd"/>
<path d="M387.14 119.00v21.20" class="stroke"/>
<use x="406.24" y="104.00" xlink:href="#hd"/>
<path d="M402.74 104.00v34.60" class="stroke"/>
<use x="421.84" y="110.00" xlink:href="#hd"/>
<path d="M418.34 110.00v27.00" class="stroke"/>
<use x="437.44" y="98.00" xlink:href="#hd"/>
<path d="M433.94 98.00v37.50" class="stroke"/>
<path class="fill"
	d="M469.44 138.20l78.80 0.00v-3.20l-78.80 -0.00"/>
<path class="fill"
	d="M469.84 133.20l78.10 0.00v-3.20l-78.10 -0.00"/>
<use x="473.34" y="101.00" xlink:href="#hd"/>
<defs>
<path id="usharp" class="fill" d="
	m136 -702
	v890
	h32
	v-890
	m128 840
	h32
	v-888
	h-32
	m-232 286
	v116
	l338 -96
	v-116
	m-338 442
	v116
	l338 -98
	v-114"/>
<use id="sh0" transform="translate(-4,5) scale(0.018)"
	xlink:href="#usharp"/>
</defs>
<use x="464.34" y="101.00" xlink:href="#sh0"/>
<path d="M469.84 101.00v36.20" class="stroke"/>
<use x="488.94" y="107.00" xlink:href="#hd"/>
<path d="M485.44 107.00v30.20" class="stroke"/>
<use x="504.54" y="116.00" xlink:href="#hd"/>
<path d="M501.04 116.00v21.20" class="stroke"/>
<defs>
<path id="hl" class="stroke" d="m-6 0h12"/>
</defs>
<use x="520.14" y="95.00" xlink:href="#hl"/>
<use x="520.14" y="95.00" xlink:href="#hd"/>
<path d="M516.64 95.00v42.20" class="stroke"/>
<use x="535.74" y="101.00" xlink:href="#hd"/>
<path d="M532.24 101.00v36.20" class="stroke"/>
<use x="551.44" y="107.00" xlink:href="#hd"/>
<path d="M547.94 107.00v30.20" class="stroke"/>
<path class="fill"
	d="M572.64 127.00l65.50 0.00v-3.20l-65.50 -0.00"/>
<path class="fill"
	d="M572.94 122.00l49.20 0.00v-3.20l-49.20 -0.00"/>
<use x="576.44" y="98.00" xlink:href="#hd"/>
<path d="M572.94 98.00v28.00" class="stroke"/>
<use x="594.44" y="101.00" xlink:href="#hd"/>
<use x="585.44" y="101.00" xlink:href="#sh0"/>
<path d="M590.94 101.00v25.00" class="stroke"/>
<use x="610.14" y="98.00" xlink:href="#hd"/>
<path d="M606.64 98.00v28.00" class="stroke"/>
<use x="625.74" y="95.00" xlink:href="#hl"/>
<use x="625.74" y="92.00" xlink:href="#hd"/>
<path d="M622.24 92.00v34.00" class="stroke"/>
<use x="641.34" y="107.00" xlink:href="#hd"/>
<path d="M637.84 107.00v19.00" class="stroke"/>
<path class="fill"
	d="M674.44 81.80l81.20 8.00v3.20l-81.20 -8.00"/>
<path class="fill"
	d="M674.74 86.80l80.50 7.90v3.20l-80.50 -7.90"/>
<use x="671.24" y="104.00" xlink:href="#hd"/>
<path d="M674.74 104.00v-21.20" class="stroke"/>
<use x="686.84" y="110.00" xlink:href="#hd"/>
<path d="M690.34 110.00v-25.70" class="stroke"/>
<use x="702.54" y="113.00" xlink:href="#hd"/>
<path d="M706.04 113.00v-27.10" class="stroke"/>
<use x="718.14" y="119.00" xlink:href="#hd"/>
<path d="M721.64 119.00v-31.60" class="stroke"/>
<use x="733.74" y="116.00" xlink:href="#hd"/>
<path d="M737.24 116.00v-27.10" class="stroke"/>
<use x="751.74" y="122.00" xlink:href="#hd"/>
<use x="742.74" y="122.00" xlink:href="#sh0"/>
<path d="M755.24 122.00v-31.30" class="stroke"/>
<use x="776.84" y="98.00" xlink:href="#hd"/>
<path d="M773.34 98.00v40.00" class="stroke"/>
<use x="776.84" y="119.00" xlink:href="#hd"/>
<use x="776.84" y="113.00" xlink:href="#hd"/>
<use x="776.84" y="107.00" xlink:href="#hd"/>
<defs>
<path id="r8e" class="fill" d="m 0 0
	c-1.5 1.5 -2.4 2 -3.6 2
	2.4 -2.8 -2.8 -4 -2.8 -1.2
	c0 2.7 4.3 2.4 5.9 0.6"/>
<g id="r8">
	<path d="m3.3 -4l-3.4 9.6" class="stroke"/>
	<use x="3.4" y="-4" xlink:href="#r8e"/>
</g>
</defs>
<use x="832.34" y="113.00" xlink:href="#r8"/>
<defs>
<path id="ubclef" class="fill" d="m-200 -87
	c124 -35 222 -78 254 -236
	43 -228 -167 -246 -192 -103
	59 -80 157 22 92 78
	-62 47 -115 -22 -106 -88
	21 -141 270 -136 274 52
	-1 175 -106 264 -322 297
	m357 -250
	c0 -36 51 -34 51 0
	0 37 -51 36 -51 0
	m-2 -129
	c0 -36 51 -34 51 0
	0 38 -51 37 -51 0"/>
<use id="bclef" transform="translate(0,18) scale(0.045)"
	xlink:href="#ubclef"/>
</defs>
<use x="23.54" y="165.00" xlink:href="#bclef"/>
<g font-family="serif" font-size="16" font-weight="bold" font-style="normal"
	transform="translate(42.04,182.50) scale(1.2,1)">
	<text text-anchor="middle">8</text>
	<text y="-12" text-anchor="middle">3</text>
</g>
<use x="84.14" y="168.00" xlink:href="#hd"/>
<path d="M80.64 168.00v25.00" class="stroke"/>
<use x="84.14" y="174.00" xlink:href="#hd"/>
<use x="137.24" y="171.00" xlink:href="#r8"/>
<use x="177.94" y="168.00" xlink:href="#hd"/>
<path d="M174.44 168.00v25.00" class="stroke"/>
<use x="177.94" y="174.00" xlink:href="#hd"/>
<use x="231.04" y="171.00" xlink:href="#r8"/>
<use x="271.84" y="183.00" xlink:href="#hd"/>
<path d="M275.34 183.00v-21.00" class="stroke"/>
<use x="334.24" y="171.00" xlink:href="#r8"/>
<use x="374.94" y="162.00" xlink:href="#hd"/>
<path d="M371.44 162.00v25.00" class="stroke"/>
<use x="374.94" y="168.00" xlink:href="#hd"/>
<use x="437.44" y="171.00" xlink:href="#r8"/>
<use x="473.34" y="159.00" xlink:href="#hd"/>
<path d="M469.84 159.00v34.00" class="stroke"/>
<use x="473.34" y="174.00" xlink:href="#hd"/>
<use x="535.74" y="171.00" xlink:href="#r8"/>
<path class="fill"
	d="M579.64 149.40l65.50 -4.60v3.20l-65.50 4.60"/>
<use x="576.44" y="177.00" xlink:href="#hd"/>
<path d="M579.94 177.00v-26.60" class="stroke"/>
<use x="576.44" y="171.00" xlink:href="#hd"/>
<use x="610.14" y="177.00" xlink:href="#hd"/>
<path d="M613.64 177.00v-29.00" class="stroke"/>
<use x="610.14" y="171.00" xlink:href="#hd"/>
<use x="641.34" y="177.00" xlink:href="#hd"/>
<path d="M644.84 177.00v-31.20" class="stroke"/>
<use x="641.34" y="162.00" xlink:href="#hd"/>
<path class="fill"
	d="M674.44 147.70l63.20 8.10v3.20l-63.20 -8.10"/>
<use x="671.24" y="174.00" xlink:href="#hd"/>
<path d="M674.74 174.00v-25.20" class="stroke"/>
<use x="702.54" y="171.00" xlink:href="#hd"/>
<path d="M706.04 171.00v-18.20" class="stroke"/>
<use x="733.74" y="189.00" xlink:href="#hl"/>
<use x="733.74" y="192.00" xlink:href="#hd"/>
<path d="M737.24 192.00v-35.20" class="stroke"/>
<path class="fill"
	d="M773.04 202.20l71.80 0.00v-3.20l-71.80 -0.00"/>
<path class="fill"
	d="M795.24 197.20l49.20 0.00v-3.20l-49.20 -0.00"/>
<use x="776.84" y="183.00" xlink:href="#hd"/>
<path d="M773.34 183.00v18.20" class="stroke"/>
<use x="798.74" y="162.00" xlink:href="#hd"/>
<path d="M795.24 162.00v39.20" class="stroke"/>
<use x="816.74" y="165.00" xlink:href="#hd"/>
<defs>
<path id="unat" class="fill" d="
	m96 -750
	h-32
	v716
	l32 -8
	182 -54
	v282
	h32
	v-706
	l-34 10
	-180 50
	v-290
	m0 592
	v-190
	l182 -52
	v188"/>
<use id="nt0" transform="translate(-3,5) scale(0.018)"
	xlink:href="#unat"/>
</defs>
<use x="807.74" y="165.00" xlink:href="#nt0"/>
<path d="M813.24 165.00v36.20" class="stroke"/>
<use x="832.34" y="168.00" xlink:href="#hd"/>
<path d="M828.84 168.00v33.20" class="stroke"/>
<use x="847.94" y="171.00" xlink:href="#hd"/>
<path d="M844.44 171.00v30.20" class="stroke"/>
</g>
<g stroke-width="0.70" transform="scale(0.867)" font-family="Times" font-size="13.00">
<path class="stroke" stroke-width="1"
	d="M11.54 316.00v-82.00"/>
<path class="fill"
	d="M6.54 231.00
	c10.5 1 12 -4.5 12 -3.5c0 1 -3.5 5.5 -8.5 5.5
	v84.00
	c5 0 8.5 4.5 8.5 5.5c0 1 -1.5 -4.5 -12 -3.5"/>
<use x="148.14" y="258.00" xlink:href="#rdots"/>
<path class="stroke" stroke-width="1"
	d="M144.14 258.00v-24.00"/>
<path class="stroke" stroke-width="3"
	d="M139.64 258.00v-24.00"/>
<use x="148.14" y="316.00" xlink:href="#rdots"/>
<path class="stroke" stroke-width="1"
	d="M144.14 316.00v-58.00"/>
<path class="stroke" stroke-width="3"
	d="M139.64 316.00v-58.00"/>
<path class="stroke" stroke-width="1"
	d="M250.64 258.00v-24.00"/>
<path class="stroke" stroke-width="1"
	d="M250.64 316.00v-58.00"/>
<path class="stroke" stroke-width="1"
	d="M335.44 258.00v-24.00"/>
<path class="stroke" stroke-width="1"
	d="M335.44 316.00v-58.00"/>
<path class="stroke" stroke-width="1"
	d="M420.24 258.00v-24.00"/>
<path class="stroke" stroke-width="1"
	d="M420.24 316.00v-58.00"/>
<path class="stroke" stroke-width="1"
	d="M505.04 258.00v-24.00"/>
<path class="stroke" stroke-width="1"
	d="M505.04 316.00v-58.00"/>
<path class="stroke" stroke-width="1"
	d="M610.14 258.00v-24.00"/>
<path class="stroke" stroke-width="1"
	d="M610.14 316.00v-58.00"/>
<path class="stroke" stroke-width="1"
	d="M685.54 258.00v-24.00"/>
<path class="stroke" stroke-width="1"
	d="M685.54 316.00v-58.00"/>
<path class="stroke" stroke-width="1"
	d="M783.84 258.00v-24.00"/>
<path class="stroke" stroke-width="1"
	d="M783.84 316.00v-58.00"/>
<path class="stroke" stroke-width="3"
	d="M860.54 258.00v-24.00"/>
<path class="stroke" stroke-width="1"
	d="M856.04 258.00v-24.00"/>
<use x="852.04" y="258.00" xlink:href="#rdots"/>
<path class="stroke" stroke-width="3"
	d="M860.54 316.00v-58.00"/>
<path class="stroke" stroke-width="1"
	d="M856.04 316.00v-58.00"/>
<use x="852.04" y="316.00" xlink:href="#rdots"/>
<path d="m11.54 258.00
	h850.50
	M11.54 252.00
	h850.50
	M11.54 246.00
	h850.50
	M11.54 240.00
	h850.50
	M11.54 234.00
	h850.50
	" class="stroke"/>
<path d="m11.54 316.00
	h850.50
	M11.54 310.00
	h850.50
	M11.54 304.00
	h850.50
	M11.54 298.00
	h850.50
	M11.54 292.00
	h850.50
	" class="stroke"/>
<path class="fill"
	d="M622.94 241.00c6.43 -5.35 34.52 -10.56 40.95 -7.60
	v-0.24c-7.66 -4.72 -33.29 0.49 -40.95 7.84"/>
<text x="47.54" y="219.40">2</text>
<path class="stroke"
	d="M43.54 208.00m0 20v-20h93.60v20"/>
<use x="23.54" y="252.00" xlink:href="#tclef"/>
<use x="56.24" y="231.00" xlink:href="#hd"/>
<path d="M52.74 231.00v40.00" class="stroke"/>
<use x="56.24" y="252.00" xlink:href="#hd"/>
<use x="56.24" y="246.00" xlink:href="#hd"/>
<use x="56.24" y="240.00" xlink:href="#hd"/>
<use x="112.74" y="246.00" xlink:href="#r8"/>
<path class="fill"
	d="M163.84 260.00l71.10 0.00v-3.20l-71.10 -0.00"/>
<path class="fill"
	d="M186.64 255.00l47.90 0.00v-3.20l-47.90 -0.00"/>
<use x="167.64" y="234.00" xlink:href="#hd"/>
<use x="158.64" y="234.00" xlink:href="#sh0"/>
<path d="M164.14 234.00v25.00" class="stroke"/>
<use x="190.14" y="228.00" xlink:href="#hl"/>
<use x="190.14" y="228.00" xlink:href="#hd"/>
<path d="M186.64 228.00v31.00" class="stroke"/>
<use x="206.14" y="234.00" xlink:href="#hd"/>
<path d="M202.64 234.00v25.00" class="stroke"/>
<use x="222.04" y="240.00" xlink:href="#hd"/>
<path d="M218.54 240.00v19.00" class="stroke"/>
<use x="238.04" y="234.00" xlink:href="#hd"/>
<path d="M234.54 234.00v25.00" class="stroke"/>
<path class="fill"
	d="M259.54 260.00l55.10 0.00v-3.20l-55.10 -0.00"/>
<path class="fill"
	d="M282.34 255.00l16.00 0.00v-3.20l-16.00 -0.00"/>
<use x="263.34" y="231.00" xlink:href="#hd"/>
<path d="M259.84 231.00v28.00" class="stroke"/>
<use x="285.84" y="228.00" xlink:href="#hl"/>
<use x="285.84" y="225.00" xlink:href="#hd"/>
<path d="M282.34 225.00v34.00" class="stroke"/>
<use x="301.84" y="228.00" xlink:href="#hl"/>
<use x="301.84" y="222.00" xlink:href="#hl"/>
<use x="301.84" y="219.00" xlink:href="#hd"/>
<path d="M298.34 219.00v40.00" class="stroke"/>
<use x="317.84" y="240.00" xlink:href="#hd"/>
<path d="M314.34 240.00v19.00" class="stroke"/>
<path class="fill"
	d="M344.34 260.00l55.10 0.00v-3.20l-55.10 -0.00"/>
<path class="fill"
	d="M367.14 255.00l16.00 0.00v-3.20l-16.00 -0.00"/>
<use x="348.14" y="237.00" xlink:href="#hd"/>
<path d="M344.64 237.00v22.00" class="stroke"/>
<use x="370.64" y="231.00" xlink:href="#hd"/>
<path d="M367.14 231.00v28.00" class="stroke"/>
<use x="386.64" y="237.00" xlink:href="#hd"/>
<path d="M383.14 237.00v22.00" class="stroke"/>
<use x="402.64" y="243.00" xlink:href="#hd"/>
<path d="M399.14 243.00v16.00" class="stroke"/>
<path class="fill"
	d="M436.14 219.20l55.10 6.30v3.20l-55.10 -6.30"/>
<path class="fill"
	d="M458.94 226.80l16.00 1.80v3.20l-16.00 -1.80"/>
<use x="432.94" y="243.00" xlink:href="#hd"/>
<path d="M436.44 243.00v-22.80" class="stroke"/>
<use x="432.94" y="237.00" xlink:href="#hd"/>
<use x="455.44" y="252.00" xlink:href="#hd"/>
<path d="M458.94 252.00v-29.20" class="stroke"/>
<use x="455.44" y="240.00" xlink:href="#hd"/>
<use x="471.44" y="252.00" xlink:href="#hd"/>
<path d="M474.94 252.00v-27.40" class="stroke"/>
<use x="471.44" y="246.00" xlink:href="#hd"/>
<use x="487.34" y="252.00" xlink:href="#hd"/>
<path d="M490.84 252.00v-25.60" class="stroke"/>
<path class="fill"
	d="M513.94 271.20l64.50 -7.10v-3.20l-64.50 7.10"/>
<use x="517.74" y="252.00" xlink:href="#hd"/>
<path d="M514.24 252.00v18.20" class="stroke"/>
<use x="549.64" y="243.00" xlink:href="#hd"/>
<path d="M546.14 243.00v23.70" class="stroke"/>
<use x="581.64" y="237.00" xlink:href="#hd"/>
<path d="M578.14 237.00v26.20" class="stroke"/>
<path class="fill"
	d="M619.04 271.20l45.60 -6.50v-3.20l-45.60 6.50"/>
<use x="622.94" y="252.00" xlink:href="#hd"/>
<path d="M619.44 252.00v18.20" class="stroke"/>
<use x="645.34" y="243.00" xlink:href="#hd"/>
<path d="M641.84 243.00v24.00" class="stroke"/>
<use x="667.84" y="237.00" xlink:href="#hd"/>
<path d="M664.34 237.00v26.80" class="stroke"/>
<path class="fill"
	d="M694.34 256.30l16.60 -3.60v-3.20l-16.60 3.60"/>
<path class="fill"
	d="M694.74 251.20l16.00 -3.40v-3.20l-16.00 3.40"/>
<use x="698.24" y="234.00" xlink:href="#hd"/>
<path d="M694.74 234.00v21.20" class="stroke"/>
<use x="714.14" y="228.00" xlink:href="#hl"/>
<use x="714.14" y="228.00" xlink:href="#hd"/>
<path d="M710.64 228.00v23.80" class="stroke"/>
<use x="730.14" y="249.00" xlink:href="#hd"/>
<path d="M733.64 249.00v-21.00" class="stroke"/>
<path class="fill"
	d="M733.64 228.00c0.6 5.6 9.6 9 5.6 18.4
	1.6 -6 -1.3 -11.6 -5.6 -12.8
"/>
<path class="fill"
	d="M751.44 268.30l16.60 -3.60v-3.20l-16.60 3.60"/>
<path class="fill"
	d="M751.84 263.20l16.00 -3.40v-3.20l-16.00 3.40"/>
<use x="755.34" y="246.00" xlink:href="#hd"/>
<path d="M751.84 246.00v21.20" class="stroke"/>
<use x="771.24" y="240.00" xlink:href="#hd"/>
<path d="M767.74 240.00v23.80" class="stroke"/>
<use x="796.54" y="243.00" xlink:href="#hd"/>
<path d="M793.04 243.00v21.00" class="stroke"/>
<use x="841.54" y="246.00" xlink:href="#r8"/>
<use x="23.54" y="298.00" xlink:href="#bclef"/>
<path class="fill"
	d="M52.44 335.20l73.10 -5.20v-3.20l-73.10 5.20"/>
<path class="fill"
	d="M75.24 328.60l49.90 -3.50v-3.20l-49.90 3.50"/>
<use x="56.24" y="316.00" xlink:href="#hd"/>
<path d="M52.74 316.00v18.20" class="stroke"/>
<use x="78.74" y="289.00" xlink:href="#hd"/>
<path d="M75.24 289.00v43.60" class="stroke"/>
<use x="94.74" y="295.00" xlink:href="#hd"/>
<path d="M91.24 295.00v36.50" class="stroke"/>
<use x="112.74" y="298.00" xlink:href="#hd"/>
<use x="103.74" y="298.00" xlink:href="#sh0"/>
<path d="M109.24 298.00v32.20" class="stroke"/>
<use x="128.64" y="301.00" xlink:href="#hd"/>
<path d="M125.14 301.00v28.10" class="stroke"/>
<use x="167.64" y="304.00" xlink:href="#hd"/>
<path d="M171.14 304.00v-21.00" class="stroke"/>
<use x="222.04" y="307.00" xlink:href="#hd"/>
<path d="M225.54 307.00v-21.00" class="stroke"/>
<path class="fill"
	d="M225.54 286.00c0.6 5.6 9.6 9 5.6 18.4
	1.6 -6 -1.3 -11.6 -5.6 -12.8
"/>
<use x="263.34" y="310.00" xlink:href="#hd"/>
<path d="M266.84 310.00v-21.00" class="stroke"/>
<use x="317.84" y="304.00" xlink:href="#r8"/>
<use x="348.14" y="295.00" xlink:href="#hd"/>
<path d="M344.64 295.00v31.00" class="stroke"/>
<use x="348.14" y="307.00" xlink:href="#hd"/>
<use x="402.64" y="301.00" xlink:href="#hd"/>
<path d="M399.14 301.00v25.00" class="stroke"/>
<path class="fill"
	d="M399.14 326.00c0.6 -5.6 9.6 -9 5.6 -18.4
	1.6 6 -1.3 11.6 -5.6 12.8
"/>
<use x="402.64" y="307.00" xlink:href="#hd"/>
<path class="fill"
	d="M436.14 275.70l23.20 7.50v3.20l-23.20 -7.50"/>
<use x="432.94" y="295.00" xlink:href="#hd"/>
<path d="M436.44 295.00v-18.20" class="stroke"/>
<use x="455.44" y="316.00" xlink:href="#hd"/>
<path d="M458.94 316.00v-31.90" class="stroke"/>
<use x="487.34" y="304.00" xlink:href="#r8"/>
<path class="fill"
	d="M513.94 323.90l80.50 0.00v-3.20l-80.50 -0.00"/>
<path class="fill"
	d="M514.24 318.90l79.80 0.00v-3.20l-79.80 -0.00"/>
<use x="517.74" y="301.00" xlink:href="#hd"/>
<path d="M514.24 301.00v21.90" class="stroke"/>
<use x="517.74" y="307.00" xlink:href="#hd"/>
<use x="533.74" y="295.00" xlink:href="#hd"/>
<path d="M530.24 295.00v27.90" class="stroke"/>
<use x="549.64" y="301.00" xlink:href="#hd"/>
<path d="M546.14 301.00v21.90" class="stroke"/>
<use x="549.64" y="307.00" xlink:href="#hd"/>
<use x="565.64" y="295.00" xlink:href="#hd"/>
<path d="M562.14 295.00v27.90" class="stroke"/>
<use x="581.64" y="301.00" xlink:href="#hd"/>
<path d="M578.14 301.00v21.90" class="stroke"/>
<use x="581.64" y="307.00" xlink:href="#hd"/>
<use x="597.54" y="295.00" xlink:href="#hd"/>
<path d="M594.04 295.00v27.90" class="stroke"/>
<use x="622.94" y="301.00" xlink:href="#hd"/>
<path d="M619.44 301.00v25.00" class="stroke"/>
<use x="622.94" y="307.00" xlink:href="#hd"/>
<use x="667.84" y="295.00" xlink:href="#hd"/>
<path d="M664.34 295.00v31.00" class="stroke"/>
<path class="fill"
	d="M664.34 326.00c0.6 -5.6 9.6 -9 5.6 -18.4
	1.6 6 -1.3 11.6 -5.6 12.8
"/>
<use x="667.84" y="307.00" xlink:href="#hd"/>
<use x="698.24" y="298.00" xlink:href="#hd"/>
<path d="M694.74 298.00v21.00" class="stroke"/>
<use x="755.34" y="295.00" xlink:href="#hd"/>
<path d="M751.84 295.00v21.00" class="stroke"/>
<path class="fill"
	d="M751.84 316.00c0.6 -5.6 9.6 -9 5.6 -18.4
	1.6 6 -1.3 11.6 -5.6 12.8
"/>
<path class="fill"
	d="M799.74 287.70l45.60 10.10v3.20l-45.60 -10.10"/>
<use x="796.54" y="307.00" xlink:href="#hd"/>
<path d="M800.04 307.00v-18.20" class="stroke"/>
<use x="819.04" y="316.00" xlink:href="#hd"/>
<path d="M822.54 316.00v-22.20" class="stroke"/>
<use x="841.54" y="322.00" xlink:href="#hl"/>
<use x="841.54" y="328.00" xlink:href="#hl"/>
<use x="841.54" y="328.00" xlink:href="#hd"/>
<path d="M845.04 328.00v-29.20" class="stroke"/>
</g>
</svg>
