<?xml version="1.0" standalone="no"?>
<!DOCTYPE svg PUBLIC "-//W3C//DTD SVG 1.1//EN"
	"http://www.w3.org/Graphics/SVG/1.1/DTD/svg11.dtd">
<svg xmlns="http://www.w3.org/2000/svg" version="1.1"
	xmlns:xlink="http://www.w3.org/1999/xlink"
	color="black"
	width="757.10px" height="293.80px">
<style type="text/css">
.fill {fill: currentColor}
.stroke {stroke: currentColor; fill: none}
text{white-space: pre}
</style>
<title>./K516f-2-3-9-5-8-12-3-10-12-7-2-2-6-2-3-12.abc (3566) tune 1</title>
<!-- Creator: abcm2ps-8.13.8 -->
<!-- CreationDate: Sep  7, 2017 11:18 -->
<!-- CommandLine: ./K516f-2-3-9-5-8-12-3-10-12-7-2-2-6-2-3-12.abc -O ./K516f-2-3-9-5-8-12-3-10-12-7-2-2-6-2-3-12.svg -g -->
<rect width="100%" height="100%" fill="white"/>
<g stroke-width="0.70" transform="scale(0.867)">
<!-- title: 2-3-9-5-8-12-3-10-12-7-2-2-6-2-3-12 -->
</g>
<g stroke-width="0.70" transform="scale(0.867)" font-family="Times" font-size="20.00">
<text x="436.84" y="22.00" text-anchor="middle">2-3-9-5-8-12-3-10-12-7-2-2-6-2-3-12</text>
</g>
<g stroke-width="0.70" transform="scale(0.867)" font-family="Times" font-size="20.00">
<!-- subtitle: $1K.516f::96:06:114:85:99:37:134:123:35:71:26:9:76:49:116:131::$0 -->
</g>
<g stroke-width="0.70" transform="scale(0.867)" font-family="Courier" font-size="8.00" font-weight="bold">
<text x="436.84" y="41.80" text-anchor="middle">K.516f::96:06:114:85:99:37:134:123:35:71:26:9:76:49:116:131::</text>
</g>
<g stroke-width="0.70" transform="scale(0.867)" font-family="Courier" font-size="8.00" font-weight="bold">
<!-- subtitle: $1Perm. No.: 35665228967259$0 -->
<text x="436.84" y="60.80" text-anchor="middle">Perm. No.: 35665228967259</text>
</g>
<g stroke-width="0.70" transform="scale(0.607)" font-family="Courier" font-size="8.00" font-weight="bold">
<defs>
<ellipse id="hd" rx="4.1" ry="2.9"
	transform="rotate(-20)" class="fill"/>
</defs>
<use x="103.06" y="121.29" xlink:href="#hd"/>
<path d="M106.56 121.29v-21.00" class="stroke"/>
<path class="fill"
	d="M106.56 100.29c0.6 5.6 9.6 9 5.6 18.4
	1.6 -6 -1.3 -11.6 -5.6 -12.8
"/>
</g>
<g stroke-width="0.70" transform="scale(0.867)" font-family="Times" font-size="15.00" font-weight="bold">
<text x="81.24" y="87.00">= 111</text>
<path class="stroke" stroke-width="1"
	d="M11.54 183.00v-82.00"/>
<path class="fill"
	d="M6.54 98.00
	c10.5 1 12 -4.5 12 -3.5c0 1 -3.5 5.5 -8.5 5.5
	v84.00
	c5 0 8.5 4.5 8.5 5.5c0 1 -1.5 -4.5 -12 -3.5"/>
<defs>
<g id="rdots" class="fill">
	<circle cx="0" cy="-9" r="1.2"/>
	<circle cx="0" cy="-15" r="1.2"/>
</g>
</defs>
<use x="70.54" y="125.00" xlink:href="#rdots"/>
<path class="stroke" stroke-width="1"
	d="M66.54 125.00v-24.00"/>
<path class="stroke" stroke-width="3"
	d="M62.04 125.00v-24.00"/>
<use x="70.54" y="183.00" xlink:href="#rdots"/>
<path class="stroke" stroke-width="1"
	d="M66.54 183.00v-58.00"/>
<path class="stroke" stroke-width="3"
	d="M62.04 183.00v-58.00"/>
<path class="stroke" stroke-width="1"
	d="M159.64 125.00v-24.00"/>
<path class="stroke" stroke-width="1"
	d="M159.64 183.00v-58.00"/>
<path class="stroke" stroke-width="1"
	d="M247.74 125.00v-24.00"/>
<path class="stroke" stroke-width="1"
	d="M247.74 183.00v-58.00"/>
<path class="stroke" stroke-width="1"
	d="M335.74 125.00v-24.00"/>
<path class="stroke" stroke-width="1"
	d="M335.74 183.00v-58.00"/>
<path class="stroke" stroke-width="1"
	d="M423.84 125.00v-24.00"/>
<path class="stroke" stroke-width="1"
	d="M423.84 183.00v-58.00"/>
<path class="stroke" stroke-width="1"
	d="M515.84 125.00v-24.00"/>
<path class="stroke" stroke-width="1"
	d="M515.84 183.00v-58.00"/>
<path class="stroke" stroke-width="1"
	d="M625.74 125.00v-24.00"/>
<path class="stroke" stroke-width="1"
	d="M625.74 183.00v-58.00"/>
<path class="stroke" stroke-width="1"
	d="M748.34 125.00v-24.00"/>
<path class="stroke" stroke-width="1"
	d="M748.34 183.00v-58.00"/>
<path class="stroke" stroke-width="3"
	d="M860.54 125.00v-24.00"/>
<path class="stroke" stroke-width="1"
	d="M856.04 125.00v-24.00"/>
<use x="852.04" y="125.00" xlink:href="#rdots"/>
<path class="stroke" stroke-width="3"
	d="M860.54 183.00v-58.00"/>
<path class="stroke" stroke-width="1"
	d="M856.04 183.00v-58.00"/>
<use x="852.04" y="183.00" xlink:href="#rdots"/>
<path d="m11.54 125.00
	h850.50
	M11.54 119.00
	h850.50
	M11.54 113.00
	h850.50
	M11.54 107.00
	h850.50
	M11.54 101.00
	h850.50
	" class="stroke"/>
<path d="m11.54 183.00
	h850.50
	M11.54 177.00
	h850.50
	M11.54 171.00
	h850.50
	M11.54 165.00
	h850.50
	M11.54 159.00
	h850.50
	" class="stroke"/>
</g>
<g stroke-width="0.70" transform="scale(0.867)" font-family="Times" font-size="13.00">
<text x="752.34" y="86.40">1</text>
<path class="stroke"
	d="M748.34 75.00m0 20v-20h105.70v20"/>
<defs>
<path id="utclef" class="fill" d="m-50 -90
	c-72 -41 -72 -158 52 -188
	150 -10 220 188 90 256
	-114 52 -275 0 -293 -136
	-15 -181 93 -229 220 -334
	88 -87 79 -133 62 -210
	-51 33 -94 105 -89 186
	17 267 36 374 49 574
	6 96 -19 134 -77 135
	-80 1 -126 -93 -61 -133
	85 -41 133 101 31 105
	23 17 92 37 90 -92
	-10 -223 -39 -342 -50 -617
	0 -90 0 -162 96 -232
	56 72 63 230 22 289
	-74 106 -257 168 -255 316
	9 153 148 185 252 133
	86 -65 29 -192 -80 -176
	-71 12 -105 67 -59 124"/>
<use id="tclef" transform="translate(0,6) scale(0.045)"
	xlink:href="#utclef"/>
</defs>
<use x="23.54" y="119.00" xlink:href="#tclef"/>
<g font-family="serif" font-size="16" font-weight="bold" font-style="normal"
	transform="translate(42.04,124.50) scale(1.2,1)">
	<text text-anchor="middle">8</text>
	<text y="-12" text-anchor="middle">3</text>
</g>
<path class="fill"
	d="M82.34 131.40l53.50 6.80v-3.20l-53.50 -6.80"/>
<use x="86.24" y="104.00" xlink:href="#hd"/>
<path d="M82.74 104.00v26.50" class="stroke"/>
<use x="112.64" y="110.00" xlink:href="#hd"/>
<path d="M109.14 110.00v23.80" class="stroke"/>
<use x="139.04" y="119.00" xlink:href="#hd"/>
<path d="M135.54 119.00v18.20" class="stroke"/>
<path class="fill"
	d="M170.44 138.20l53.50 -6.80v-3.20l-53.50 6.80"/>
<use x="174.34" y="119.00" xlink:href="#hd"/>
<path d="M170.84 119.00v18.20" class="stroke"/>
<use x="200.74" y="110.00" xlink:href="#hd"/>
<path d="M197.24 110.00v23.80" class="stroke"/>
<use x="227.14" y="104.00" xlink:href="#hd"/>
<path d="M223.64 104.00v26.50" class="stroke"/>
<path class="fill"
	d="M258.54 132.00l53.50 0.00v-3.20l-53.50 -0.00"/>
<use x="262.34" y="107.00" xlink:href="#hd"/>
<path d="M258.84 107.00v24.00" class="stroke"/>
<use x="262.34" y="113.00" xlink:href="#hd"/>
<use x="288.84" y="107.00" xlink:href="#hd"/>
<path d="M285.34 107.00v24.00" class="stroke"/>
<use x="288.84" y="113.00" xlink:href="#hd"/>
<use x="315.24" y="107.00" xlink:href="#hd"/>
<path d="M311.74 107.00v24.00" class="stroke"/>
<use x="315.24" y="113.00" xlink:href="#hd"/>
<path class="fill"
	d="M346.64 133.70l53.50 4.50v-3.20l-53.50 -4.50"/>
<use x="350.44" y="110.00" xlink:href="#hd"/>
<path d="M346.94 110.00v22.70" class="stroke"/>
<use x="376.84" y="104.00" xlink:href="#hd"/>
<path d="M373.34 104.00v31.00" class="stroke"/>
<use x="403.34" y="119.00" xlink:href="#hd"/>
<path d="M399.84 119.00v18.20" class="stroke"/>
<path class="fill"
	d="M438.54 123.00l53.50 3.20v-3.20l-53.50 -3.20"/>
<use x="442.44" y="101.00" xlink:href="#hd"/>
<defs>
<path id="usharp" class="fill" d="
	m136 -702
	v890
	h32
	v-890
	m128 840
	h32
	v-888
	h-32
	m-232 286
	v116
	l338 -96
	v-116
	m-338 442
	v116
	l338 -98
	v-114"/>
<use id="sh0" transform="translate(-4,5) scale(0.018)"
	xlink:href="#usharp"/>
</defs>
<use x="433.44" y="101.00" xlink:href="#sh0"/>
<path d="M438.94 101.00v21.00" class="stroke"/>
<defs>
<path id="hl" class="stroke" d="m-6 0h12"/>
</defs>
<use x="468.84" y="95.00" xlink:href="#hl"/>
<use x="468.84" y="95.00" xlink:href="#hd"/>
<path d="M465.34 95.00v28.60" class="stroke"/>
<use x="495.24" y="107.00" xlink:href="#hd"/>
<path d="M491.74 107.00v18.20" class="stroke"/>
<path class="fill"
	d="M526.64 123.80l75.40 8.50v-3.20l-75.40 -8.50"/>
<path class="fill"
	d="M526.94 118.80l56.00 6.30v-3.20l-56.00 -6.30"/>
<use x="530.44" y="98.00" xlink:href="#hd"/>
<path d="M526.94 98.00v24.80" class="stroke"/>
<use x="549.14" y="95.00" xlink:href="#hl"/>
<use x="549.14" y="92.00" xlink:href="#hd"/>
<path d="M545.64 92.00v32.90" class="stroke"/>
<use x="567.84" y="98.00" xlink:href="#hd"/>
<path d="M564.34 98.00v29.00" class="stroke"/>
<use x="586.54" y="107.00" xlink:href="#hd"/>
<path d="M583.04 107.00v22.10" class="stroke"/>
<use x="605.14" y="113.00" xlink:href="#hd"/>
<path d="M601.64 113.00v18.20" class="stroke"/>
<path class="fill"
	d="M636.54 140.20l94.10 0.00v-3.20l-94.10 -0.00"/>
<path class="fill"
	d="M636.94 135.20l93.40 0.00v-3.20l-93.40 -0.00"/>
<use x="640.44" y="116.00" xlink:href="#hd"/>
<path d="M636.94 116.00v23.20" class="stroke"/>
<use x="659.14" y="104.00" xlink:href="#hd"/>
<path d="M655.64 104.00v35.20" class="stroke"/>
<use x="677.74" y="107.00" xlink:href="#hd"/>
<path d="M674.24 107.00v32.20" class="stroke"/>
<use x="677.74" y="113.00" xlink:href="#hd"/>
<use x="696.44" y="110.00" xlink:href="#hd"/>
<path d="M692.94 110.00v29.20" class="stroke"/>
<use x="696.44" y="116.00" xlink:href="#hd"/>
<use x="715.14" y="113.00" xlink:href="#hd"/>
<path d="M711.64 113.00v26.20" class="stroke"/>
<use x="715.14" y="119.00" xlink:href="#hd"/>
<use x="733.74" y="116.00" xlink:href="#hd"/>
<path d="M730.24 116.00v23.20" class="stroke"/>
<use x="733.74" y="122.00" xlink:href="#hd"/>
<use x="724.74" y="122.00" xlink:href="#sh0"/>
<use x="763.04" y="98.00" xlink:href="#hd"/>
<path d="M759.54 98.00v40.00" class="stroke"/>
<use x="763.04" y="119.00" xlink:href="#hd"/>
<use x="763.04" y="113.00" xlink:href="#hd"/>
<use x="763.04" y="107.00" xlink:href="#hd"/>
<defs>
<path id="r8e" class="fill" d="m 0 0
	c-1.5 1.5 -2.4 2 -3.6 2
	2.4 -2.8 -2.8 -4 -2.8 -1.2
	c0 2.7 4.3 2.4 5.9 0.6"/>
<g id="r8">
	<path d="m3.3 -4l-3.4 9.6" class="stroke"/>
	<use x="3.4" y="-4" xlink:href="#r8e"/>
</g>
</defs>
<use x="826.74" y="113.00" xlink:href="#r8"/>
<defs>
<path id="ubclef" class="fill" d="m-200 -87
	c124 -35 222 -78 254 -236
	43 -228 -167 -246 -192 -103
	59 -80 157 22 92 78
	-62 47 -115 -22 -106 -88
	21 -141 270 -136 274 52
	-1 175 -106 264 -322 297
	m357 -250
	c0 -36 51 -34 51 0
	0 37 -51 36 -51 0
	m-2 -129
	c0 -36 51 -34 51 0
	0 38 -51 37 -51 0"/>
<use id="bclef" transform="translate(0,18) scale(0.045)"
	xlink:href="#ubclef"/>
</defs>
<use x="23.54" y="165.00" xlink:href="#bclef"/>
<g font-family="serif" font-size="16" font-weight="bold" font-style="normal"
	transform="translate(42.04,182.50) scale(1.2,1)">
	<text text-anchor="middle">8</text>
	<text y="-12" text-anchor="middle">3</text>
</g>
<use x="86.24" y="174.00" xlink:href="#hd"/>
<path d="M89.74 174.00v-21.00" class="stroke"/>
<use x="139.04" y="171.00" xlink:href="#r8"/>
<use x="174.34" y="168.00" xlink:href="#hd"/>
<path d="M170.84 168.00v25.00" class="stroke"/>
<use x="174.34" y="174.00" xlink:href="#hd"/>
<use x="227.14" y="171.00" xlink:href="#r8"/>
<path class="fill"
	d="M258.54 183.20l53.50 0.00v-3.20l-53.50 -0.00"/>
<use x="262.34" y="162.00" xlink:href="#hd"/>
<path d="M258.84 162.00v20.20" class="stroke"/>
<use x="288.84" y="162.00" xlink:href="#hd"/>
<path d="M285.34 162.00v20.20" class="stroke"/>
<use x="315.24" y="162.00" xlink:href="#hd"/>
<path d="M311.74 162.00v20.20" class="stroke"/>
<use x="350.44" y="162.00" xlink:href="#hd"/>
<path d="M346.94 162.00v25.00" class="stroke"/>
<use x="350.44" y="168.00" xlink:href="#hd"/>
<use x="403.34" y="171.00" xlink:href="#r8"/>
<use x="442.44" y="159.00" xlink:href="#hd"/>
<path d="M438.94 159.00v34.00" class="stroke"/>
<use x="442.44" y="174.00" xlink:href="#hd"/>
<use x="495.24" y="159.00" xlink:href="#hd"/>
<path d="M491.74 159.00v34.00" class="stroke"/>
<path class="fill"
	d="M491.74 193.00c0.6 -5.6 9.6 -9 5.6 -18.4
	1.6 6 -1.3 11.6 -5.6 12.8
"/>
<use x="495.24" y="174.00" xlink:href="#hd"/>
<use x="530.44" y="177.00" xlink:href="#hd"/>
<path d="M533.94 177.00v-25.00" class="stroke"/>
<use x="530.44" y="171.00" xlink:href="#hd"/>
<use x="605.14" y="171.00" xlink:href="#r8"/>
<path class="fill"
	d="M643.54 147.60l75.40 8.50v3.20l-75.40 -8.50"/>
<use x="640.44" y="174.00" xlink:href="#hd"/>
<path d="M643.94 174.00v-25.40" class="stroke"/>
<use x="677.74" y="171.00" xlink:href="#hd"/>
<path d="M681.24 171.00v-18.20" class="stroke"/>
<use x="715.14" y="189.00" xlink:href="#hl"/>
<use x="715.14" y="192.00" xlink:href="#hd"/>
<path d="M718.64 192.00v-35.00" class="stroke"/>
<path class="fill"
	d="M759.14 202.20l83.10 0.00v-3.20l-83.10 -0.00"/>
<path class="fill"
	d="M785.94 197.20l56.00 0.00v-3.20l-56.00 -0.00"/>
<use x="763.04" y="183.00" xlink:href="#hd"/>
<path d="M759.54 183.00v18.20" class="stroke"/>
<use x="789.44" y="162.00" xlink:href="#hd"/>
<path d="M785.94 162.00v39.20" class="stroke"/>
<use x="808.14" y="165.00" xlink:href="#hd"/>
<defs>
<path id="unat" class="fill" d="
	m96 -750
	h-32
	v716
	l32 -8
	182 -54
	v282
	h32
	v-706
	l-34 10
	-180 50
	v-290
	m0 592
	v-190
	l182 -52
	v188"/>
<use id="nt0" transform="translate(-3,5) scale(0.018)"
	xlink:href="#unat"/>
</defs>
<use x="799.14" y="165.00" xlink:href="#nt0"/>
<path d="M804.64 165.00v36.20" class="stroke"/>
<use x="826.74" y="168.00" xlink:href="#hd"/>
<path d="M823.24 168.00v33.20" class="stroke"/>
<use x="845.44" y="171.00" xlink:href="#hd"/>
<path d="M841.94 171.00v30.20" class="stroke"/>
</g>
<g stroke-width="0.70" transform="scale(0.867)" font-family="Times" font-size="13.00">
<path class="stroke" stroke-width="1"
	d="M11.54 316.00v-82.00"/>
<path class="fill"
	d="M6.54 231.00
	c10.5 1 12 -4.5 12 -3.5c0 1 -3.5 5.5 -8.5 5.5
	v84.00
	c5 0 8.5 4.5 8.5 5.5c0 1 -1.5 -4.5 -12 -3.5"/>
<use x="144.74" y="258.00" xlink:href="#rdots"/>
<path class="stroke" stroke-width="1"
	d="M140.74 258.00v-24.00"/>
<path class="stroke" stroke-width="3"
	d="M136.24 258.00v-24.00"/>
<use x="144.74" y="316.00" xlink:href="#rdots"/>
<path class="stroke" stroke-width="1"
	d="M140.74 316.00v-58.00"/>
<path class="stroke" stroke-width="3"
	d="M136.24 316.00v-58.00"/>
<path class="stroke" stroke-width="1"
	d="M223.74 258.00v-24.00"/>
<path class="stroke" stroke-width="1"
	d="M223.74 316.00v-58.00"/>
<path class="stroke" stroke-width="1"
	d="M313.74 258.00v-24.00"/>
<path class="stroke" stroke-width="1"
	d="M313.74 316.00v-58.00"/>
<path class="stroke" stroke-width="1"
	d="M414.04 258.00v-24.00"/>
<path class="stroke" stroke-width="1"
	d="M414.04 316.00v-58.00"/>
<path class="stroke" stroke-width="1"
	d="M485.74 258.00v-24.00"/>
<path class="stroke" stroke-width="1"
	d="M485.74 316.00v-58.00"/>
<path class="stroke" stroke-width="1"
	d="M586.24 258.00v-24.00"/>
<path class="stroke" stroke-width="1"
	d="M586.24 316.00v-58.00"/>
<path class="stroke" stroke-width="1"
	d="M686.64 258.00v-24.00"/>
<path class="stroke" stroke-width="1"
	d="M686.64 316.00v-58.00"/>
<path class="stroke" stroke-width="1"
	d="M786.94 258.00v-24.00"/>
<path class="stroke" stroke-width="1"
	d="M786.94 316.00v-58.00"/>
<path class="stroke" stroke-width="3"
	d="M860.54 258.00v-24.00"/>
<path class="stroke" stroke-width="1"
	d="M856.04 258.00v-24.00"/>
<use x="852.04" y="258.00" xlink:href="#rdots"/>
<path class="stroke" stroke-width="3"
	d="M860.54 316.00v-58.00"/>
<path class="stroke" stroke-width="1"
	d="M856.04 316.00v-58.00"/>
<use x="852.04" y="316.00" xlink:href="#rdots"/>
<path d="m11.54 258.00
	h850.50
	M11.54 252.00
	h850.50
	M11.54 246.00
	h850.50
	M11.54 240.00
	h850.50
	M11.54 234.00
	h850.50
	" class="stroke"/>
<path d="m11.54 316.00
	h850.50
	M11.54 310.00
	h850.50
	M11.54 304.00
	h850.50
	M11.54 298.00
	h850.50
	M11.54 292.00
	h850.50
	" class="stroke"/>
<path class="fill"
	d="M602.74 233.40c8.45 -3.22 47.81 2.10 56.26 7.60
	v-0.26c-10.14 -7.24 -46.12 -12.56 -56.26 -7.34"/>
<text x="47.54" y="219.40">2</text>
<path class="stroke"
	d="M43.54 208.00m0 20v-20h90.20v20"/>
<use x="23.54" y="252.00" xlink:href="#tclef"/>
<use x="56.04" y="231.00" xlink:href="#hd"/>
<path d="M52.54 231.00v40.00" class="stroke"/>
<use x="56.04" y="252.00" xlink:href="#hd"/>
<use x="56.04" y="246.00" xlink:href="#hd"/>
<use x="56.04" y="240.00" xlink:href="#hd"/>
<use x="110.14" y="246.00" xlink:href="#r8"/>
<path class="fill"
	d="M160.34 268.30l43.40 -6.40v-3.20l-43.40 6.40"/>
<use x="164.24" y="249.00" xlink:href="#hd"/>
<path d="M160.74 249.00v18.20" class="stroke"/>
<use x="185.24" y="240.00" xlink:href="#hd"/>
<path d="M181.74 240.00v24.10" class="stroke"/>
<use x="206.94" y="234.00" xlink:href="#hd"/>
<use x="197.94" y="234.00" xlink:href="#sh0"/>
<path d="M203.44 234.00v26.90" class="stroke"/>
<path class="fill"
	d="M232.34 254.00l61.10 0.00v-3.20l-61.10 -0.00"/>
<path class="fill"
	d="M232.74 249.00l45.40 0.00v-3.20l-45.40 -0.00"/>
<use x="236.24" y="231.00" xlink:href="#hd"/>
<path d="M232.74 231.00v21.90" class="stroke"/>
<use x="251.24" y="228.00" xlink:href="#hl"/>
<use x="251.24" y="225.00" xlink:href="#hd"/>
<path d="M247.74 225.00v27.90" class="stroke"/>
<use x="266.44" y="228.00" xlink:href="#hl"/>
<use x="266.44" y="222.00" xlink:href="#hl"/>
<use x="266.44" y="219.00" xlink:href="#hd"/>
<path d="M262.94 219.00v33.90" class="stroke"/>
<use x="281.64" y="228.00" xlink:href="#hl"/>
<use x="281.64" y="225.00" xlink:href="#hd"/>
<path d="M278.14 225.00v27.90" class="stroke"/>
<use x="296.64" y="231.00" xlink:href="#hd"/>
<path d="M293.14 231.00v21.90" class="stroke"/>
<path class="fill"
	d="M322.44 261.00l60.90 0.00v-3.20l-60.90 -0.00"/>
<use x="326.24" y="237.00" xlink:href="#hd"/>
<path d="M322.74 237.00v23.00" class="stroke"/>
<use x="326.24" y="243.00" xlink:href="#hd"/>
<use x="356.34" y="237.00" xlink:href="#hd"/>
<path d="M352.84 237.00v23.00" class="stroke"/>
<use x="356.34" y="243.00" xlink:href="#hd"/>
<use x="386.54" y="237.00" xlink:href="#hd"/>
<path d="M383.04 237.00v23.00" class="stroke"/>
<use x="386.54" y="243.00" xlink:href="#hd"/>
<path class="fill"
	d="M422.74 262.30l21.70 2.40v-3.20l-21.70 -2.40"/>
<use x="426.54" y="237.00" xlink:href="#hd"/>
<path d="M423.04 237.00v24.30" class="stroke"/>
<use x="426.54" y="243.00" xlink:href="#hd"/>
<use x="447.64" y="240.00" xlink:href="#hd"/>
<path d="M444.14 240.00v23.70" class="stroke"/>
<use x="447.64" y="246.00" xlink:href="#hd"/>
<use x="468.64" y="246.00" xlink:href="#r8"/>
<path class="fill"
	d="M494.44 255.90l76.20 9.40v-3.20l-76.20 -9.40"/>
<path class="fill"
	d="M494.74 250.90l75.50 9.30v-3.20l-75.50 -9.30"/>
<use x="498.24" y="228.00" xlink:href="#hl"/>
<use x="498.24" y="222.00" xlink:href="#hl"/>
<use x="498.24" y="222.00" xlink:href="#hd"/>
<path d="M494.74 222.00v32.90" class="stroke"/>
<use x="513.44" y="228.00" xlink:href="#hl"/>
<use x="513.44" y="225.00" xlink:href="#hd"/>
<path d="M509.94 225.00v31.80" class="stroke"/>
<use x="528.64" y="228.00" xlink:href="#hl"/>
<use x="528.64" y="222.00" xlink:href="#hl"/>
<use x="528.64" y="222.00" xlink:href="#hd"/>
<path d="M525.14 222.00v36.60" class="stroke"/>
<use x="543.64" y="231.00" xlink:href="#hd"/>
<path d="M540.14 231.00v29.50" class="stroke"/>
<use x="558.74" y="237.00" xlink:href="#hd"/>
<path d="M555.24 237.00v25.30" class="stroke"/>
<use x="573.74" y="243.00" xlink:href="#hd"/>
<path d="M570.24 243.00v21.20" class="stroke"/>
<path class="fill"
	d="M594.94 264.20l60.90 7.00v-3.20l-60.90 -7.00"/>
<use x="598.74" y="237.00" xlink:href="#hd"/>
<path d="M595.24 237.00v26.30" class="stroke"/>
<use x="628.94" y="243.00" xlink:href="#hd"/>
<path d="M625.44 243.00v23.70" class="stroke"/>
<use x="659.04" y="252.00" xlink:href="#hd"/>
<path d="M655.54 252.00v18.20" class="stroke"/>
<path class="fill"
	d="M695.24 266.00l76.00 0.00v-3.20l-76.00 -0.00"/>
<path class="fill"
	d="M695.64 261.00l75.30 0.00v-3.20l-75.30 -0.00"/>
<use x="699.14" y="240.00" xlink:href="#hd"/>
<path d="M695.64 240.00v24.90" class="stroke"/>
<use x="714.14" y="234.00" xlink:href="#hd"/>
<path d="M710.64 234.00v30.90" class="stroke"/>
<use x="729.24" y="228.00" xlink:href="#hl"/>
<use x="729.24" y="228.00" xlink:href="#hd"/>
<path d="M725.74 228.00v36.90" class="stroke"/>
<use x="744.34" y="234.00" xlink:href="#hd"/>
<path d="M740.84 234.00v30.90" class="stroke"/>
<use x="759.34" y="240.00" xlink:href="#hd"/>
<path d="M755.84 240.00v24.90" class="stroke"/>
<use x="774.44" y="246.00" xlink:href="#hd"/>
<path d="M770.94 246.00v18.90" class="stroke"/>
<use x="799.44" y="243.00" xlink:href="#hd"/>
<path d="M795.94 243.00v21.00" class="stroke"/>
<use x="841.54" y="246.00" xlink:href="#r8"/>
<use x="23.54" y="298.00" xlink:href="#bclef"/>
<path class="fill"
	d="M52.24 335.20l69.90 -5.00v-3.20l-69.90 5.00"/>
<path class="fill"
	d="M73.64 328.70l48.10 -3.50v-3.20l-48.10 3.50"/>
<use x="56.04" y="316.00" xlink:href="#hd"/>
<path d="M52.54 316.00v18.20" class="stroke"/>
<use x="77.14" y="289.00" xlink:href="#hd"/>
<path d="M73.64 289.00v43.70" class="stroke"/>
<use x="92.14" y="295.00" xlink:href="#hd"/>
<path d="M88.64 295.00v36.60" class="stroke"/>
<use x="110.14" y="298.00" xlink:href="#hd"/>
<use x="101.14" y="298.00" xlink:href="#sh0"/>
<path d="M106.64 298.00v32.30" class="stroke"/>
<use x="125.24" y="301.00" xlink:href="#hd"/>
<path d="M121.74 301.00v28.20" class="stroke"/>
<use x="164.24" y="298.00" xlink:href="#hd"/>
<use x="155.24" y="298.00" xlink:href="#sh0"/>
<path d="M160.74 298.00v25.00" class="stroke"/>
<use x="164.24" y="304.00" xlink:href="#hd"/>
<use x="206.94" y="292.00" xlink:href="#hd"/>
<path d="M203.44 292.00v34.00" class="stroke"/>
<path class="fill"
	d="M203.44 326.00c0.6 -5.6 9.6 -9 5.6 -18.4
	1.6 6 -1.3 11.6 -5.6 12.8
"/>
<use x="206.94" y="307.00" xlink:href="#hd"/>
<use x="236.24" y="310.00" xlink:href="#hd"/>
<path d="M239.74 310.00v-25.00" class="stroke"/>
<use x="236.24" y="304.00" xlink:href="#hd"/>
<use x="296.64" y="310.00" xlink:href="#hd"/>
<path d="M300.14 310.00v-25.00" class="stroke"/>
<path class="fill"
	d="M300.14 285.00c0.6 5.6 9.6 9 5.6 18.4
	1.6 -6 -1.3 -11.6 -5.6 -12.8
"/>
<use x="296.64" y="304.00" xlink:href="#hd"/>
<path class="fill"
	d="M322.44 329.20l76.00 0.00v-3.20l-76.00 -0.00"/>
<path class="fill"
	d="M322.74 324.20l75.30 0.00v-3.20l-75.30 -0.00"/>
<use x="326.24" y="307.00" xlink:href="#hd"/>
<path d="M322.74 307.00v21.20" class="stroke"/>
<use x="341.34" y="301.00" xlink:href="#hd"/>
<path d="M337.84 301.00v27.20" class="stroke"/>
<use x="356.34" y="295.00" xlink:href="#hd"/>
<path d="M352.84 295.00v33.20" class="stroke"/>
<use x="371.44" y="301.00" xlink:href="#hd"/>
<path d="M367.94 301.00v27.20" class="stroke"/>
<use x="386.54" y="286.00" xlink:href="#hl"/>
<use x="386.54" y="286.00" xlink:href="#hd"/>
<path d="M383.04 286.00v42.20" class="stroke"/>
<use x="401.54" y="307.00" xlink:href="#hd"/>
<path d="M398.04 307.00v21.20" class="stroke"/>
<use x="426.54" y="295.00" xlink:href="#hd"/>
<path d="M423.04 295.00v21.00" class="stroke"/>
<use x="468.64" y="316.00" xlink:href="#hd"/>
<path d="M472.14 316.00v-21.00" class="stroke"/>
<path class="fill"
	d="M472.14 295.00c0.6 5.6 9.6 9 5.6 18.4
	1.6 -6 -1.3 -11.6 -5.6 -12.8
"/>
<use x="498.24" y="301.00" xlink:href="#hd"/>
<path d="M494.74 301.00v25.00" class="stroke"/>
<use x="498.24" y="307.00" xlink:href="#hd"/>
<use x="558.74" y="295.00" xlink:href="#hd"/>
<path d="M555.24 295.00v31.00" class="stroke"/>
<path class="fill"
	d="M555.24 326.00c0.6 -5.6 9.6 -9 5.6 -18.4
	1.6 6 -1.3 11.6 -5.6 12.8
"/>
<use x="558.74" y="307.00" xlink:href="#hd"/>
<path class="fill"
	d="M594.94 323.90l76.00 0.00v-3.20l-76.00 -0.00"/>
<path class="fill"
	d="M595.24 318.90l75.30 0.00v-3.20l-75.30 -0.00"/>
<use x="598.74" y="301.00" xlink:href="#hd"/>
<path d="M595.24 301.00v21.90" class="stroke"/>
<use x="598.74" y="307.00" xlink:href="#hd"/>
<use x="613.84" y="295.00" xlink:href="#hd"/>
<path d="M610.34 295.00v27.90" class="stroke"/>
<use x="628.94" y="301.00" xlink:href="#hd"/>
<path d="M625.44 301.00v21.90" class="stroke"/>
<use x="628.94" y="307.00" xlink:href="#hd"/>
<use x="643.94" y="295.00" xlink:href="#hd"/>
<path d="M640.44 295.00v27.90" class="stroke"/>
<use x="659.04" y="301.00" xlink:href="#hd"/>
<path d="M655.54 301.00v21.90" class="stroke"/>
<use x="659.04" y="307.00" xlink:href="#hd"/>
<use x="674.14" y="295.00" xlink:href="#hd"/>
<path d="M670.64 295.00v27.90" class="stroke"/>
<use x="699.14" y="298.00" xlink:href="#hd"/>
<path d="M695.64 298.00v21.00" class="stroke"/>
<use x="759.34" y="295.00" xlink:href="#hd"/>
<path d="M755.84 295.00v21.00" class="stroke"/>
<path class="fill"
	d="M755.84 316.00c0.6 -5.6 9.6 -9 5.6 -18.4
	1.6 6 -1.3 11.6 -5.6 12.8
"/>
<path class="fill"
	d="M802.54 287.70l42.80 9.90v3.20l-42.80 -9.90"/>
<use x="799.44" y="307.00" xlink:href="#hd"/>
<path d="M802.94 307.00v-18.20" class="stroke"/>
<use x="820.44" y="316.00" xlink:href="#hd"/>
<path d="M823.94 316.00v-22.30" class="stroke"/>
<use x="841.54" y="322.00" xlink:href="#hl"/>
<use x="841.54" y="328.00" xlink:href="#hl"/>
<use x="841.54" y="328.00" xlink:href="#hd"/>
<path d="M845.04 328.00v-29.50" class="stroke"/>
</g>
</svg>
