<?xml version="1.0" standalone="no"?>
<!DOCTYPE svg PUBLIC "-//W3C//DTD SVG 1.1//EN"
	"http://www.w3.org/Graphics/SVG/1.1/DTD/svg11.dtd">
<svg xmlns="http://www.w3.org/2000/svg" version="1.1"
	xmlns:xlink="http://www.w3.org/1999/xlink"
	color="black"
	width="757.10px" height="294.68px">
<style type="text/css">
.fill {fill: currentColor}
.stroke {stroke: currentColor; fill: none}
text{white-space: pre}
</style>
<title>./K516f-4-3-10-4-3-10-5-4-4-10-3-2-9-8-6-4.abc (1589) tune 1</title>
<!-- Creator: abcm2ps-8.13.8 -->
<!-- CreationDate: Sep  7, 2017 11:18 -->
<!-- CommandLine: ./K516f-4-3-10-4-3-10-5-4-4-10-3-2-9-8-6-4.abc -O ./K516f-4-3-10-4-3-10-5-4-4-10-3-2-9-8-6-4.svg -g -->
<rect width="100%" height="100%" fill="white"/>
<g stroke-width="0.70" transform="scale(0.867)">
<!-- title: 4-3-10-4-3-10-5-4-4-10-3-2-9-8-6-4 -->
</g>
<g stroke-width="0.70" transform="scale(0.867)" font-family="Times" font-size="20.00">
<text x="436.84" y="22.00" text-anchor="middle">4-3-10-4-3-10-5-4-4-10-3-2-9-8-6-4</text>
</g>
<g stroke-width="0.70" transform="scale(0.867)" font-family="Times" font-size="20.00">
<!-- subtitle: $1K.516f::69:06:42:13:146:129:159:24:66:77:126:9:51:168:1:79::$0 -->
</g>
<g stroke-width="0.70" transform="scale(0.867)" font-family="Courier" font-size="8.00" font-weight="bold">
<text x="436.84" y="41.80" text-anchor="middle">K.516f::69:06:42:13:146:129:159:24:66:77:126:9:51:168:1:79::</text>
</g>
<g stroke-width="0.70" transform="scale(0.867)" font-family="Courier" font-size="8.00" font-weight="bold">
<!-- subtitle: $1Perm. No.: 158922718944784$0 -->
<text x="436.84" y="60.80" text-anchor="middle">Perm. No.: 158922718944784</text>
</g>
<g stroke-width="0.70" transform="scale(0.607)" font-family="Courier" font-size="8.00" font-weight="bold">
<defs>
<ellipse id="hd" rx="4.1" ry="2.9"
	transform="rotate(-20)" class="fill"/>
</defs>
<use x="103.06" y="121.29" xlink:href="#hd"/>
<path d="M106.56 121.29v-21.00" class="stroke"/>
<path class="fill"
	d="M106.56 100.29c0.6 5.6 9.6 9 5.6 18.4
	1.6 -6 -1.3 -11.6 -5.6 -12.8
"/>
</g>
<g stroke-width="0.70" transform="scale(0.867)" font-family="Times" font-size="15.00" font-weight="bold">
<text x="81.24" y="87.00">= 111</text>
<path class="stroke" stroke-width="1"
	d="M11.54 184.00v-82.00"/>
<path class="fill"
	d="M6.54 99.00
	c10.5 1 12 -4.5 12 -3.5c0 1 -3.5 5.5 -8.5 5.5
	v84.00
	c5 0 8.5 4.5 8.5 5.5c0 1 -1.5 -4.5 -12 -3.5"/>
<defs>
<g id="rdots" class="fill">
	<circle cx="0" cy="-9" r="1.2"/>
	<circle cx="0" cy="-15" r="1.2"/>
</g>
</defs>
<use x="70.54" y="126.00" xlink:href="#rdots"/>
<path class="stroke" stroke-width="1"
	d="M66.54 126.00v-24.00"/>
<path class="stroke" stroke-width="3"
	d="M62.04 126.00v-24.00"/>
<use x="70.54" y="184.00" xlink:href="#rdots"/>
<path class="stroke" stroke-width="1"
	d="M66.54 184.00v-58.00"/>
<path class="stroke" stroke-width="3"
	d="M62.04 184.00v-58.00"/>
<path class="stroke" stroke-width="1"
	d="M155.84 126.00v-24.00"/>
<path class="stroke" stroke-width="1"
	d="M155.84 184.00v-58.00"/>
<path class="stroke" stroke-width="1"
	d="M240.14 126.00v-24.00"/>
<path class="stroke" stroke-width="1"
	d="M240.14 184.00v-58.00"/>
<path class="stroke" stroke-width="1"
	d="M357.44 126.00v-24.00"/>
<path class="stroke" stroke-width="1"
	d="M357.44 184.00v-58.00"/>
<path class="stroke" stroke-width="1"
	d="M441.74 126.00v-24.00"/>
<path class="stroke" stroke-width="1"
	d="M441.74 184.00v-58.00"/>
<path class="stroke" stroke-width="1"
	d="M530.44 126.00v-24.00"/>
<path class="stroke" stroke-width="1"
	d="M530.44 184.00v-58.00"/>
<path class="stroke" stroke-width="1"
	d="M635.74 126.00v-24.00"/>
<path class="stroke" stroke-width="1"
	d="M635.74 184.00v-58.00"/>
<path class="stroke" stroke-width="1"
	d="M753.04 126.00v-24.00"/>
<path class="stroke" stroke-width="1"
	d="M753.04 184.00v-58.00"/>
<path class="stroke" stroke-width="3"
	d="M860.54 126.00v-24.00"/>
<path class="stroke" stroke-width="1"
	d="M856.04 126.00v-24.00"/>
<use x="852.04" y="126.00" xlink:href="#rdots"/>
<path class="stroke" stroke-width="3"
	d="M860.54 184.00v-58.00"/>
<path class="stroke" stroke-width="1"
	d="M856.04 184.00v-58.00"/>
<use x="852.04" y="184.00" xlink:href="#rdots"/>
<path d="m11.54 126.00
	h850.50
	M11.54 120.00
	h850.50
	M11.54 114.00
	h850.50
	M11.54 108.00
	h850.50
	M11.54 102.00
	h850.50
	" class="stroke"/>
<path d="m11.54 184.00
	h850.50
	M11.54 178.00
	h850.50
	M11.54 172.00
	h850.50
	M11.54 166.00
	h850.50
	M11.54 160.00
	h850.50
	" class="stroke"/>
<path class="fill"
	d="M89.64 95.40c7.19 -3.05 39.36 2.20 46.55 7.60
	v-0.25c-8.59 -7.16 -37.96 -12.41 -46.55 -7.35"/>
<path class="fill"
	d="M371.44 122.00c7.19 5.40 39.36 10.65 46.55 7.60
	v0.25c-8.59 4.81 -37.96 -0.44 -46.55 -7.85"/>
</g>
<g stroke-width="0.70" transform="scale(0.867)" font-family="Times" font-size="13.00">
<text x="757.04" y="87.40">1</text>
<path class="stroke"
	d="M753.04 76.00m0 20v-20h101.00v20"/>
<defs>
<path id="utclef" class="fill" d="m-50 -90
	c-72 -41 -72 -158 52 -188
	150 -10 220 188 90 256
	-114 52 -275 0 -293 -136
	-15 -181 93 -229 220 -334
	88 -87 79 -133 62 -210
	-51 33 -94 105 -89 186
	17 267 36 374 49 574
	6 96 -19 134 -77 135
	-80 1 -126 -93 -61 -133
	85 -41 133 101 31 105
	23 17 92 37 90 -92
	-10 -223 -39 -342 -50 -617
	0 -90 0 -162 96 -232
	56 72 63 230 22 289
	-74 106 -257 168 -255 316
	9 153 148 185 252 133
	86 -65 29 -192 -80 -176
	-71 12 -105 67 -59 124"/>
<use id="tclef" transform="translate(0,6) scale(0.045)"
	xlink:href="#utclef"/>
</defs>
<use x="23.54" y="120.00" xlink:href="#tclef"/>
<g font-family="serif" font-size="16" font-weight="bold" font-style="normal"
	transform="translate(42.04,125.50) scale(1.2,1)">
	<text text-anchor="middle">8</text>
	<text y="-12" text-anchor="middle">3</text>
</g>
<path class="fill"
	d="M81.74 122.00l51.20 8.20v-3.20l-51.20 -8.20"/>
<use x="85.64" y="99.00" xlink:href="#hd"/>
<path d="M82.14 99.00v22.10" class="stroke"/>
<use x="110.84" y="105.00" xlink:href="#hd"/>
<path d="M107.34 105.00v20.10" class="stroke"/>
<use x="136.14" y="111.00" xlink:href="#hd"/>
<path d="M132.64 111.00v18.20" class="stroke"/>
<path class="fill"
	d="M166.04 139.30l51.20 -6.70v-3.20l-51.20 6.70"/>
<use x="169.84" y="120.00" xlink:href="#hd"/>
<path d="M166.34 120.00v18.20" class="stroke"/>
<use x="195.14" y="111.00" xlink:href="#hd"/>
<path d="M191.64 111.00v23.90" class="stroke"/>
<use x="220.44" y="105.00" xlink:href="#hd"/>
<path d="M216.94 105.00v26.60" class="stroke"/>
<path class="fill"
	d="M250.34 142.20l90.00 0.00v-3.20l-90.00 -0.00"/>
<path class="fill"
	d="M250.64 137.20l89.30 0.00v-3.20l-89.30 -0.00"/>
<use x="254.14" y="114.00" xlink:href="#hd"/>
<path d="M250.64 114.00v27.20" class="stroke"/>
<use x="272.04" y="111.00" xlink:href="#hd"/>
<path d="M268.54 111.00v30.20" class="stroke"/>
<use x="289.94" y="108.00" xlink:href="#hd"/>
<path d="M286.44 108.00v33.20" class="stroke"/>
<use x="307.74" y="114.00" xlink:href="#hd"/>
<path d="M304.24 114.00v27.20" class="stroke"/>
<use x="325.64" y="117.00" xlink:href="#hd"/>
<path d="M322.14 117.00v24.20" class="stroke"/>
<use x="343.54" y="120.00" xlink:href="#hd"/>
<path d="M340.04 120.00v21.20" class="stroke"/>
<path class="fill"
	d="M374.64 91.80l51.20 6.70v3.20l-51.20 -6.70"/>
<use x="371.44" y="111.00" xlink:href="#hd"/>
<path d="M374.94 111.00v-18.20" class="stroke"/>
<use x="396.74" y="120.00" xlink:href="#hd"/>
<path d="M400.24 120.00v-23.90" class="stroke"/>
<use x="422.04" y="126.00" xlink:href="#hd"/>
<path d="M425.54 126.00v-26.60" class="stroke"/>
<path class="fill"
	d="M456.34 140.30l51.30 -8.50v-3.20l-51.30 8.50"/>
<use x="460.24" y="108.00" xlink:href="#hd"/>
<path d="M456.74 108.00v31.20" class="stroke"/>
<use x="460.24" y="123.00" xlink:href="#hd"/>
<defs>
<path id="usharp" class="fill" d="
	m136 -702
	v890
	h32
	v-890
	m128 840
	h32
	v-888
	h-32
	m-232 286
	v116
	l338 -96
	v-116
	m-338 442
	v116
	l338 -98
	v-114"/>
<use id="sh0" transform="translate(-4,5) scale(0.018)"
	xlink:href="#usharp"/>
</defs>
<use x="451.24" y="123.00" xlink:href="#sh0"/>
<use x="485.44" y="102.00" xlink:href="#hd"/>
<use x="476.44" y="102.00" xlink:href="#sh0"/>
<path d="M481.94 102.00v33.00" class="stroke"/>
<use x="485.44" y="108.00" xlink:href="#hd"/>
<defs>
<path id="hl" class="stroke" d="m-6 0h12"/>
</defs>
<use x="510.74" y="96.00" xlink:href="#hl"/>
<use x="510.74" y="96.00" xlink:href="#hd"/>
<path d="M507.24 96.00v34.80" class="stroke"/>
<use x="510.74" y="102.00" xlink:href="#hd"/>
<path class="fill"
	d="M540.64 122.20l72.30 5.00v-3.20l-72.30 -5.00"/>
<path class="fill"
	d="M541.04 117.30l53.70 3.70v-3.20l-53.70 -3.70"/>
<use x="544.54" y="96.00" xlink:href="#hl"/>
<use x="544.54" y="96.00" xlink:href="#hd"/>
<path d="M541.04 96.00v25.20" class="stroke"/>
<use x="562.34" y="99.00" xlink:href="#hd"/>
<path d="M558.84 99.00v23.50" class="stroke"/>
<use x="580.34" y="102.00" xlink:href="#hd"/>
<use x="571.34" y="102.00" xlink:href="#sh0"/>
<path d="M576.84 102.00v21.70" class="stroke"/>
<use x="598.24" y="99.00" xlink:href="#hd"/>
<path d="M594.74 99.00v26.00" class="stroke"/>
<use x="616.14" y="108.00" xlink:href="#hd"/>
<path d="M612.64 108.00v18.20" class="stroke"/>
<path class="fill"
	d="M645.94 131.50l90.00 7.70v-3.20l-90.00 -7.70"/>
<path class="fill"
	d="M646.34 126.50l89.30 7.70v-3.20l-89.30 -7.70"/>
<use x="649.84" y="105.00" xlink:href="#hd"/>
<path d="M646.34 105.00v25.50" class="stroke"/>
<use x="667.74" y="99.00" xlink:href="#hd"/>
<path d="M664.24 99.00v33.10" class="stroke"/>
<use x="685.54" y="108.00" xlink:href="#hd"/>
<path d="M682.04 108.00v25.60" class="stroke"/>
<use x="703.44" y="111.00" xlink:href="#hd"/>
<path d="M699.94 111.00v24.10" class="stroke"/>
<use x="721.34" y="114.00" xlink:href="#hd"/>
<path d="M717.84 114.00v22.70" class="stroke"/>
<use x="739.14" y="117.00" xlink:href="#hd"/>
<path d="M735.64 117.00v21.20" class="stroke"/>
<use x="767.14" y="99.00" xlink:href="#hd"/>
<path d="M763.64 99.00v40.00" class="stroke"/>
<use x="767.14" y="120.00" xlink:href="#hd"/>
<use x="767.14" y="114.00" xlink:href="#hd"/>
<use x="767.14" y="108.00" xlink:href="#hd"/>
<defs>
<path id="r8e" class="fill" d="m 0 0
	c-1.5 1.5 -2.4 2 -3.6 2
	2.4 -2.8 -2.8 -4 -2.8 -1.2
	c0 2.7 4.3 2.4 5.9 0.6"/>
<g id="r8">
	<path d="m3.3 -4l-3.4 9.6" class="stroke"/>
	<use x="3.4" y="-4" xlink:href="#r8e"/>
</g>
</defs>
<use x="828.24" y="114.00" xlink:href="#r8"/>
<defs>
<path id="ubclef" class="fill" d="m-200 -87
	c124 -35 222 -78 254 -236
	43 -228 -167 -246 -192 -103
	59 -80 157 22 92 78
	-62 47 -115 -22 -106 -88
	21 -141 270 -136 274 52
	-1 175 -106 264 -322 297
	m357 -250
	c0 -36 51 -34 51 0
	0 37 -51 36 -51 0
	m-2 -129
	c0 -36 51 -34 51 0
	0 38 -51 37 -51 0"/>
<use id="bclef" transform="translate(0,18) scale(0.045)"
	xlink:href="#ubclef"/>
</defs>
<use x="23.54" y="166.00" xlink:href="#bclef"/>
<g font-family="serif" font-size="16" font-weight="bold" font-style="normal"
	transform="translate(42.04,183.50) scale(1.2,1)">
	<text text-anchor="middle">8</text>
	<text y="-12" text-anchor="middle">3</text>
</g>
<use x="85.64" y="169.00" xlink:href="#hd"/>
<path d="M82.14 169.00v25.00" class="stroke"/>
<use x="85.64" y="175.00" xlink:href="#hd"/>
<use x="136.14" y="172.00" xlink:href="#r8"/>
<use x="169.84" y="169.00" xlink:href="#hd"/>
<path d="M166.34 169.00v25.00" class="stroke"/>
<use x="169.84" y="175.00" xlink:href="#hd"/>
<use x="220.44" y="172.00" xlink:href="#r8"/>
<use x="254.14" y="184.00" xlink:href="#hd"/>
<path d="M257.64 184.00v-21.00" class="stroke"/>
<use x="325.64" y="172.00" xlink:href="#r8"/>
<use x="371.44" y="163.00" xlink:href="#hd"/>
<path d="M367.94 163.00v25.00" class="stroke"/>
<use x="371.44" y="169.00" xlink:href="#hd"/>
<use x="422.04" y="172.00" xlink:href="#r8"/>
<path class="fill"
	d="M463.34 154.00l51.30 0.00v3.20l-51.30 -0.00"/>
<use x="460.24" y="175.00" xlink:href="#hd"/>
<path d="M463.74 175.00v-20.00" class="stroke"/>
<use x="485.44" y="175.00" xlink:href="#hd"/>
<path d="M488.94 175.00v-20.00" class="stroke"/>
<use x="510.74" y="175.00" xlink:href="#hd"/>
<path d="M514.24 175.00v-20.00" class="stroke"/>
<path class="fill"
	d="M547.64 150.50l72.30 -4.70v3.20l-72.30 4.70"/>
<use x="544.54" y="178.00" xlink:href="#hd"/>
<path d="M548.04 178.00v-26.50" class="stroke"/>
<use x="544.54" y="172.00" xlink:href="#hd"/>
<use x="580.34" y="178.00" xlink:href="#hd"/>
<path d="M583.84 178.00v-28.90" class="stroke"/>
<use x="580.34" y="172.00" xlink:href="#hd"/>
<use x="616.14" y="178.00" xlink:href="#hd"/>
<path d="M619.64 178.00v-31.20" class="stroke"/>
<use x="616.14" y="163.00" xlink:href="#hd"/>
<path class="fill"
	d="M652.94 148.60l72.20 8.40v3.20l-72.20 -8.40"/>
<use x="649.84" y="175.00" xlink:href="#hd"/>
<path d="M653.34 175.00v-25.30" class="stroke"/>
<use x="685.54" y="172.00" xlink:href="#hd"/>
<path d="M689.04 172.00v-18.20" class="stroke"/>
<use x="721.34" y="190.00" xlink:href="#hl"/>
<use x="721.34" y="193.00" xlink:href="#hd"/>
<path d="M724.84 193.00v-35.10" class="stroke"/>
<path class="fill"
	d="M763.34 203.20l79.70 0.00v-3.20l-79.70 -0.00"/>
<path class="fill"
	d="M788.94 198.20l53.70 0.00v-3.20l-53.70 -0.00"/>
<use x="767.14" y="184.00" xlink:href="#hd"/>
<path d="M763.64 184.00v18.20" class="stroke"/>
<use x="792.44" y="163.00" xlink:href="#hd"/>
<path d="M788.94 163.00v39.20" class="stroke"/>
<use x="810.44" y="166.00" xlink:href="#hd"/>
<defs>
<path id="unat" class="fill" d="
	m96 -750
	h-32
	v716
	l32 -8
	182 -54
	v282
	h32
	v-706
	l-34 10
	-180 50
	v-290
	m0 592
	v-190
	l182 -52
	v188"/>
<use id="nt0" transform="translate(-3,5) scale(0.018)"
	xlink:href="#unat"/>
</defs>
<use x="801.44" y="166.00" xlink:href="#nt0"/>
<path d="M806.94 166.00v36.20" class="stroke"/>
<use x="828.24" y="169.00" xlink:href="#hd"/>
<path d="M824.74 169.00v33.20" class="stroke"/>
<use x="846.14" y="172.00" xlink:href="#hd"/>
<path d="M842.64 172.00v30.20" class="stroke"/>
</g>
<g stroke-width="0.70" transform="scale(0.867)" font-family="Times" font-size="13.00">
<path class="stroke" stroke-width="1"
	d="M11.54 317.01v-82.00"/>
<path class="fill"
	d="M6.54 232.01
	c10.5 1 12 -4.5 12 -3.5c0 1 -3.5 5.5 -8.5 5.5
	v84.00
	c5 0 8.5 4.5 8.5 5.5c0 1 -1.5 -4.5 -12 -3.5"/>
<use x="148.64" y="259.01" xlink:href="#rdots"/>
<path class="stroke" stroke-width="1"
	d="M144.64 259.01v-24.00"/>
<path class="stroke" stroke-width="3"
	d="M140.14 259.01v-24.00"/>
<use x="148.64" y="317.01" xlink:href="#rdots"/>
<path class="stroke" stroke-width="1"
	d="M144.64 317.01v-58.00"/>
<path class="stroke" stroke-width="3"
	d="M140.14 317.01v-58.00"/>
<path class="stroke" stroke-width="1"
	d="M238.14 259.01v-24.00"/>
<path class="stroke" stroke-width="1"
	d="M238.14 317.01v-58.00"/>
<path class="stroke" stroke-width="1"
	d="M323.54 259.01v-24.00"/>
<path class="stroke" stroke-width="1"
	d="M323.54 317.01v-58.00"/>
<path class="stroke" stroke-width="1"
	d="M429.44 259.01v-24.00"/>
<path class="stroke" stroke-width="1"
	d="M429.44 317.01v-58.00"/>
<path class="stroke" stroke-width="1"
	d="M505.44 259.01v-24.00"/>
<path class="stroke" stroke-width="1"
	d="M505.44 317.01v-58.00"/>
<path class="stroke" stroke-width="1"
	d="M611.24 259.01v-24.00"/>
<path class="stroke" stroke-width="1"
	d="M611.24 317.01v-58.00"/>
<path class="stroke" stroke-width="1"
	d="M707.64 259.01v-24.00"/>
<path class="stroke" stroke-width="1"
	d="M707.64 317.01v-58.00"/>
<path class="stroke" stroke-width="1"
	d="M783.44 259.01v-24.00"/>
<path class="stroke" stroke-width="1"
	d="M783.44 317.01v-58.00"/>
<path class="stroke" stroke-width="3"
	d="M860.54 259.01v-24.00"/>
<path class="stroke" stroke-width="1"
	d="M856.04 259.01v-24.00"/>
<use x="852.04" y="259.01" xlink:href="#rdots"/>
<path class="stroke" stroke-width="3"
	d="M860.54 317.01v-58.00"/>
<path class="stroke" stroke-width="1"
	d="M856.04 317.01v-58.00"/>
<use x="852.04" y="317.01" xlink:href="#rdots"/>
<path d="m11.54 259.01
	h850.50
	M11.54 253.01
	h850.50
	M11.54 247.01
	h850.50
	M11.54 241.01
	h850.50
	M11.54 235.01
	h850.50
	" class="stroke"/>
<path d="m11.54 317.01
	h850.50
	M11.54 311.01
	h850.50
	M11.54 305.01
	h850.50
	M11.54 299.01
	h850.50
	M11.54 293.01
	h850.50
	" class="stroke"/>
<text x="47.54" y="220.41">2</text>
<path class="stroke"
	d="M43.54 209.01m0 20v-20h94.10v20"/>
<use x="23.54" y="253.01" xlink:href="#tclef"/>
<use x="56.34" y="232.01" xlink:href="#hd"/>
<path d="M52.84 232.01v40.00" class="stroke"/>
<use x="56.34" y="253.01" xlink:href="#hd"/>
<use x="56.34" y="247.01" xlink:href="#hd"/>
<use x="56.34" y="241.01" xlink:href="#hd"/>
<use x="113.04" y="247.01" xlink:href="#r8"/>
<path class="fill"
	d="M164.24 253.21l46.20 0.00v-3.20l-46.20 -0.00"/>
<use x="168.14" y="235.01" xlink:href="#hd"/>
<use x="159.14" y="235.01" xlink:href="#sh0"/>
<path d="M164.64 235.01v17.20" class="stroke"/>
<use x="191.04" y="229.01" xlink:href="#hl"/>
<use x="191.04" y="229.01" xlink:href="#hd"/>
<path d="M187.54 229.01v23.20" class="stroke"/>
<use x="213.64" y="235.01" xlink:href="#hd"/>
<path d="M210.14 235.01v17.20" class="stroke"/>
<path class="fill"
	d="M247.14 255.21l55.40 5.10v-3.20l-55.40 -5.10"/>
<path class="fill"
	d="M247.44 250.21l16.10 1.50v-3.20l-16.10 -1.50"/>
<use x="250.94" y="232.01" xlink:href="#hd"/>
<path d="M247.44 232.01v22.20" class="stroke"/>
<use x="267.04" y="229.01" xlink:href="#hl"/>
<use x="267.04" y="226.01" xlink:href="#hd"/>
<path d="M263.54 226.01v29.70" class="stroke"/>
<use x="283.14" y="232.01" xlink:href="#hd"/>
<path d="M279.64 232.01v25.10" class="stroke"/>
<use x="305.74" y="241.01" xlink:href="#hd"/>
<path d="M302.24 241.01v18.20" class="stroke"/>
<path class="fill"
	d="M332.54 275.21l81.00 0.00v-3.20l-81.00 -0.00"/>
<path class="fill"
	d="M332.84 270.21l80.40 0.00v-3.20l-80.40 -0.00"/>
<use x="336.34" y="244.01" xlink:href="#hd"/>
<path d="M332.84 244.01v30.20" class="stroke"/>
<use x="352.44" y="253.01" xlink:href="#hd"/>
<path d="M348.94 253.01v21.20" class="stroke"/>
<use x="368.44" y="244.01" xlink:href="#hd"/>
<path d="M364.94 244.01v30.20" class="stroke"/>
<use x="384.54" y="238.01" xlink:href="#hd"/>
<path d="M381.04 238.01v36.20" class="stroke"/>
<use x="400.64" y="232.01" xlink:href="#hd"/>
<path d="M397.14 232.01v42.20" class="stroke"/>
<use x="416.74" y="238.01" xlink:href="#hd"/>
<path d="M413.24 238.01v36.20" class="stroke"/>
<use x="416.74" y="244.01" xlink:href="#hd"/>
<path class="fill"
	d="M438.44 263.31l23.30 2.40v-3.20l-23.30 -2.40"/>
<use x="442.24" y="238.01" xlink:href="#hd"/>
<path d="M438.74 238.01v24.30" class="stroke"/>
<use x="442.24" y="244.01" xlink:href="#hd"/>
<use x="464.84" y="241.01" xlink:href="#hd"/>
<path d="M461.34 241.01v23.70" class="stroke"/>
<use x="464.84" y="247.01" xlink:href="#hd"/>
<use x="487.44" y="247.01" xlink:href="#r8"/>
<path class="fill"
	d="M514.34 276.51l81.00 -6.30v-3.20l-81.00 6.30"/>
<path class="fill"
	d="M514.74 271.51l80.40 -6.30v-3.20l-80.40 6.30"/>
<use x="518.24" y="244.01" xlink:href="#hd"/>
<path d="M514.74 244.01v31.50" class="stroke"/>
<use x="534.34" y="253.01" xlink:href="#hd"/>
<path d="M530.84 253.01v21.20" class="stroke"/>
<use x="550.34" y="238.01" xlink:href="#hd"/>
<path d="M546.84 238.01v34.90" class="stroke"/>
<use x="566.44" y="244.01" xlink:href="#hd"/>
<path d="M562.94 244.01v27.70" class="stroke"/>
<use x="582.54" y="232.01" xlink:href="#hd"/>
<path d="M579.04 232.01v38.40" class="stroke"/>
<use x="598.54" y="238.01" xlink:href="#hd"/>
<path d="M595.04 238.01v31.20" class="stroke"/>
<path class="fill"
	d="M620.24 257.11l71.50 9.10v-3.20l-71.50 -9.10"/>
<path class="fill"
	d="M643.24 255.01l48.20 6.20v-3.20l-48.20 -6.20"/>
<use x="624.14" y="232.01" xlink:href="#hd"/>
<path d="M620.64 232.01v24.20" class="stroke"/>
<use x="646.74" y="235.01" xlink:href="#hd"/>
<path d="M643.24 235.01v24.00" class="stroke"/>
<use x="662.74" y="238.01" xlink:href="#hd"/>
<path d="M659.24 238.01v23.10" class="stroke"/>
<use x="678.84" y="241.01" xlink:href="#hd"/>
<path d="M675.34 241.01v22.10" class="stroke"/>
<use x="694.94" y="244.01" xlink:href="#hd"/>
<path d="M691.44 244.01v21.20" class="stroke"/>
<path class="fill"
	d="M716.64 259.21l45.90 0.00v-3.20l-45.90 -0.00"/>
<use x="720.44" y="235.01" xlink:href="#hd"/>
<path d="M716.94 235.01v23.20" class="stroke"/>
<use x="743.04" y="241.01" xlink:href="#hd"/>
<path d="M739.54 241.01v17.20" class="stroke"/>
<use x="765.64" y="232.01" xlink:href="#hd"/>
<path d="M762.14 232.01v26.20" class="stroke"/>
<use x="796.24" y="244.01" xlink:href="#hd"/>
<path d="M792.74 244.01v21.00" class="stroke"/>
<use x="841.54" y="247.01" xlink:href="#r8"/>
<use x="23.54" y="299.01" xlink:href="#bclef"/>
<path class="fill"
	d="M52.54 336.21l73.40 -5.20v-3.20l-73.40 5.20"/>
<path class="fill"
	d="M75.44 329.61l50.10 -3.50v-3.20l-50.10 3.50"/>
<use x="56.34" y="317.01" xlink:href="#hd"/>
<path d="M52.84 317.01v18.20" class="stroke"/>
<use x="78.94" y="290.01" xlink:href="#hd"/>
<path d="M75.44 290.01v43.60" class="stroke"/>
<use x="95.04" y="296.01" xlink:href="#hd"/>
<path d="M91.54 296.01v36.50" class="stroke"/>
<use x="113.04" y="299.01" xlink:href="#hd"/>
<use x="104.04" y="299.01" xlink:href="#sh0"/>
<path d="M109.54 299.01v32.20" class="stroke"/>
<use x="129.14" y="302.01" xlink:href="#hd"/>
<path d="M125.64 302.01v28.10" class="stroke"/>
<path class="fill"
	d="M171.24 273.71l46.20 8.00v3.20l-46.20 -8.00"/>
<use x="168.14" y="293.01" xlink:href="#hd"/>
<path d="M171.64 293.01v-18.20" class="stroke"/>
<use x="191.04" y="299.01" xlink:href="#hd"/>
<use x="182.04" y="299.01" xlink:href="#sh0"/>
<path d="M194.54 299.01v-20.20" class="stroke"/>
<use x="213.64" y="305.01" xlink:href="#hd"/>
<path d="M217.14 305.01v-22.30" class="stroke"/>
<use x="250.94" y="311.01" xlink:href="#hd"/>
<path d="M254.44 311.01v-25.00" class="stroke"/>
<use x="250.94" y="305.01" xlink:href="#hd"/>
<use x="305.74" y="296.01" xlink:href="#hd"/>
<path d="M302.24 296.01v34.00" class="stroke"/>
<path class="fill"
	d="M302.24 330.01c0.6 -5.6 9.6 -9 5.6 -18.4
	1.6 6 -1.3 11.6 -5.6 12.8
"/>
<use x="305.74" y="311.01" xlink:href="#hd"/>
<use x="336.34" y="302.01" xlink:href="#hd"/>
<path d="M332.84 302.01v21.00" class="stroke"/>
<path class="fill"
	d="M396.84 326.71l16.80 3.60v-3.20l-16.80 -3.60"/>
<path class="fill"
	d="M397.14 321.81l16.10 3.40v-3.20l-16.10 -3.40"/>
<use x="400.64" y="302.01" xlink:href="#hd"/>
<path d="M397.14 302.01v23.80" class="stroke"/>
<use x="416.74" y="308.01" xlink:href="#hd"/>
<path d="M413.24 308.01v21.20" class="stroke"/>
<use x="442.24" y="296.01" xlink:href="#hd"/>
<path d="M438.74 296.01v21.00" class="stroke"/>
<use x="487.44" y="317.01" xlink:href="#hd"/>
<path d="M490.94 317.01v-21.00" class="stroke"/>
<path class="fill"
	d="M490.94 296.01c0.6 5.6 9.6 9 5.6 18.4
	1.6 -6 -1.3 -11.6 -5.6 -12.8
"/>
<use x="518.24" y="302.01" xlink:href="#hd"/>
<path d="M514.74 302.01v25.00" class="stroke"/>
<use x="518.24" y="308.01" xlink:href="#hd"/>
<use x="582.54" y="305.01" xlink:href="#r8"/>
<use x="624.14" y="302.01" xlink:href="#hd"/>
<path d="M620.64 302.01v25.00" class="stroke"/>
<use x="624.14" y="308.01" xlink:href="#hd"/>
<use x="678.84" y="296.01" xlink:href="#hd"/>
<path d="M675.34 296.01v25.00" class="stroke"/>
<path class="fill"
	d="M675.34 321.01c0.6 -5.6 9.6 -9 5.6 -18.4
	1.6 6 -1.3 11.6 -5.6 12.8
"/>
<use x="678.84" y="302.01" xlink:href="#hd"/>
<path class="fill"
	d="M716.64 324.21l45.90 0.00v-3.20l-45.90 -0.00"/>
<use x="720.44" y="299.01" xlink:href="#hd"/>
<path d="M716.94 299.01v24.20" class="stroke"/>
<use x="743.04" y="305.01" xlink:href="#hd"/>
<path d="M739.54 305.01v18.20" class="stroke"/>
<use x="765.64" y="296.01" xlink:href="#hd"/>
<path d="M762.14 296.01v27.20" class="stroke"/>
<path class="fill"
	d="M799.44 288.71l45.90 10.20v3.20l-45.90 -10.20"/>
<use x="796.24" y="308.01" xlink:href="#hd"/>
<path d="M799.74 308.01v-18.20" class="stroke"/>
<use x="818.84" y="317.01" xlink:href="#hd"/>
<path d="M822.34 317.01v-22.20" class="stroke"/>
<use x="841.54" y="323.01" xlink:href="#hl"/>
<use x="841.54" y="329.01" xlink:href="#hl"/>
<use x="841.54" y="329.01" xlink:href="#hd"/>
<path d="M845.04 329.01v-29.20" class="stroke"/>
<path class="fill"
	d="M164.24 327.21l54.20 0.00v-3.20l-54.20 -0.00"/>
<use x="168.14" y="305.01" xlink:href="#hd"/>
<path d="M164.64 305.01v21.20" class="stroke"/>
<use x="191.04" y="305.01" xlink:href="#hd"/>
<path d="M187.54 305.01v21.20" class="stroke"/>
<use x="221.64" y="308.01" xlink:href="#hd"/>
<path d="M218.14 308.01v18.20" class="stroke"/>
</g>
</svg>
