<?xml version="1.0" standalone="no"?>
<!DOCTYPE svg PUBLIC "-//W3C//DTD SVG 1.1//EN"
	"http://www.w3.org/Graphics/SVG/1.1/DTD/svg11.dtd">
<svg xmlns="http://www.w3.org/2000/svg" version="1.1"
	xmlns:xlink="http://www.w3.org/1999/xlink"
	color="black"
	width="757.10px" height="300.73px">
<style type="text/css">
.fill {fill: currentColor}
.stroke {stroke: currentColor; fill: none}
text{white-space: pre}
</style>
<title>./K516f-9-10-9-5-2-10-6-4-7-2-4-10-2-2-5-2.abc (1037) tune 1</title>
<!-- Creator: abcm2ps-8.13.8 -->
<!-- CreationDate: Sep  7, 2017 11:20 -->
<!-- CommandLine: ./K516f-9-10-9-5-2-10-6-4-7-2-4-10-2-2-5-2.abc -O ./K516f-9-10-9-5-2-10-6-4-7-2-4-10-2-2-5-2.svg -g -->
<rect width="100%" height="100%" fill="white"/>
<g stroke-width="0.70" transform="scale(0.867)">
<!-- title: 9-10-9-5-2-10-6-4-7-2-4-10-2-2-5-2 -->
</g>
<g stroke-width="0.70" transform="scale(0.867)" font-family="Times" font-size="20.00">
<text x="436.84" y="22.00" text-anchor="middle">9-10-9-5-2-10-6-4-7-2-4-10-2-2-5-2</text>
</g>
<g stroke-width="0.70" transform="scale(0.867)" font-family="Times" font-size="20.00">
<!-- subtitle: $1K.516f::119:142:114:85:105:129:36:24:138:121:15:82:112:49:52:14::$0 -->
</g>
<g stroke-width="0.70" transform="scale(0.867)" font-family="Courier" font-size="8.00" font-weight="bold">
<text x="436.84" y="41.80" text-anchor="middle">K.516f::119:142:114:85:105:129:36:24:138:121:15:82:112:49:52:14::</text>
</g>
<g stroke-width="0.70" transform="scale(0.867)" font-family="Courier" font-size="8.00" font-weight="bold">
<!-- subtitle: $1Perm. No.: 103780457539426$0 -->
<text x="436.84" y="60.80" text-anchor="middle">Perm. No.: 103780457539426</text>
</g>
<g stroke-width="0.70" transform="scale(0.607)" font-family="Courier" font-size="8.00" font-weight="bold">
<defs>
<ellipse id="hd" rx="4.1" ry="2.9"
	transform="rotate(-20)" class="fill"/>
</defs>
<use x="103.06" y="121.29" xlink:href="#hd"/>
<path d="M106.56 121.29v-21.00" class="stroke"/>
<path class="fill"
	d="M106.56 100.29c0.6 5.6 9.6 9 5.6 18.4
	1.6 -6 -1.3 -11.6 -5.6 -12.8
"/>
</g>
<g stroke-width="0.70" transform="scale(0.867)" font-family="Times" font-size="15.00" font-weight="bold">
<text x="81.24" y="87.00">= 111</text>
<path class="stroke" stroke-width="1"
	d="M11.54 183.00v-82.00"/>
<path class="fill"
	d="M6.54 98.00
	c10.5 1 12 -4.5 12 -3.5c0 1 -3.5 5.5 -8.5 5.5
	v84.00
	c5 0 8.5 4.5 8.5 5.5c0 1 -1.5 -4.5 -12 -3.5"/>
<defs>
<g id="rdots" class="fill">
	<circle cx="0" cy="-9" r="1.2"/>
	<circle cx="0" cy="-15" r="1.2"/>
</g>
</defs>
<use x="70.54" y="125.00" xlink:href="#rdots"/>
<path class="stroke" stroke-width="1"
	d="M66.54 125.00v-24.00"/>
<path class="stroke" stroke-width="3"
	d="M62.04 125.00v-24.00"/>
<use x="70.54" y="183.00" xlink:href="#rdots"/>
<path class="stroke" stroke-width="1"
	d="M66.54 183.00v-58.00"/>
<path class="stroke" stroke-width="3"
	d="M62.04 183.00v-58.00"/>
<path class="stroke" stroke-width="1"
	d="M185.34 125.00v-24.00"/>
<path class="stroke" stroke-width="1"
	d="M185.34 183.00v-58.00"/>
<path class="stroke" stroke-width="1"
	d="M266.94 125.00v-24.00"/>
<path class="stroke" stroke-width="1"
	d="M266.94 183.00v-58.00"/>
<path class="stroke" stroke-width="1"
	d="M348.64 125.00v-24.00"/>
<path class="stroke" stroke-width="1"
	d="M348.64 183.00v-58.00"/>
<path class="stroke" stroke-width="1"
	d="M430.24 125.00v-24.00"/>
<path class="stroke" stroke-width="1"
	d="M430.24 183.00v-58.00"/>
<path class="stroke" stroke-width="1"
	d="M538.74 125.00v-24.00"/>
<path class="stroke" stroke-width="1"
	d="M538.74 183.00v-58.00"/>
<path class="stroke" stroke-width="1"
	d="M641.44 125.00v-24.00"/>
<path class="stroke" stroke-width="1"
	d="M641.44 183.00v-58.00"/>
<path class="stroke" stroke-width="1"
	d="M755.84 125.00v-24.00"/>
<path class="stroke" stroke-width="1"
	d="M755.84 183.00v-58.00"/>
<path class="stroke" stroke-width="3"
	d="M860.54 125.00v-24.00"/>
<path class="stroke" stroke-width="1"
	d="M856.04 125.00v-24.00"/>
<use x="852.04" y="125.00" xlink:href="#rdots"/>
<path class="stroke" stroke-width="3"
	d="M860.54 183.00v-58.00"/>
<path class="stroke" stroke-width="1"
	d="M856.04 183.00v-58.00"/>
<use x="852.04" y="183.00" xlink:href="#rdots"/>
<path d="m11.54 125.00
	h850.50
	M11.54 119.00
	h850.50
	M11.54 113.00
	h850.50
	M11.54 107.00
	h850.50
	M11.54 101.00
	h850.50
	" class="stroke"/>
<path d="m11.54 183.00
	h850.50
	M11.54 177.00
	h850.50
	M11.54 171.00
	h850.50
	M11.54 165.00
	h850.50
	M11.54 159.00
	h850.50
	" class="stroke"/>
</g>
<g stroke-width="0.70" transform="scale(0.867)" font-family="Times" font-size="13.00">
<text x="759.84" y="86.40">1</text>
<path class="stroke"
	d="M755.84 75.00m0 20v-20h98.20v20"/>
<defs>
<path id="utclef" class="fill" d="m-50 -90
	c-72 -41 -72 -158 52 -188
	150 -10 220 188 90 256
	-114 52 -275 0 -293 -136
	-15 -181 93 -229 220 -334
	88 -87 79 -133 62 -210
	-51 33 -94 105 -89 186
	17 267 36 374 49 574
	6 96 -19 134 -77 135
	-80 1 -126 -93 -61 -133
	85 -41 133 101 31 105
	23 17 92 37 90 -92
	-10 -223 -39 -342 -50 -617
	0 -90 0 -162 96 -232
	56 72 63 230 22 289
	-74 106 -257 168 -255 316
	9 153 148 185 252 133
	86 -65 29 -192 -80 -176
	-71 12 -105 67 -59 124"/>
<use id="tclef" transform="translate(0,6) scale(0.045)"
	xlink:href="#utclef"/>
</defs>
<use x="23.54" y="119.00" xlink:href="#tclef"/>
<g font-family="serif" font-size="16" font-weight="bold" font-style="normal"
	transform="translate(42.04,124.50) scale(1.2,1)">
	<text text-anchor="middle">8</text>
	<text y="-12" text-anchor="middle">3</text>
</g>
<path class="fill"
	d="M81.34 133.50l87.20 -6.20v-3.20l-87.20 6.20"/>
<path class="fill"
	d="M81.74 128.40l86.60 -6.20v-3.20l-86.60 6.20"/>
<use x="85.24" y="104.00" xlink:href="#hd"/>
<path d="M81.74 104.00v28.40" class="stroke"/>
<use x="102.54" y="110.00" xlink:href="#hd"/>
<path d="M99.04 110.00v21.20" class="stroke"/>
<use x="119.84" y="98.00" xlink:href="#hd"/>
<path d="M116.34 98.00v32.00" class="stroke"/>
<use x="137.14" y="104.00" xlink:href="#hd"/>
<path d="M133.64 104.00v24.70" class="stroke"/>
<defs>
<path id="hl" class="stroke" d="m-6 0h12"/>
</defs>
<use x="154.44" y="95.00" xlink:href="#hl"/>
<use x="154.44" y="89.00" xlink:href="#hl"/>
<use x="154.44" y="89.00" xlink:href="#hd"/>
<path d="M150.94 89.00v38.50" class="stroke"/>
<use x="171.74" y="98.00" xlink:href="#hd"/>
<path d="M168.24 98.00v28.30" class="stroke"/>
<path class="fill"
	d="M195.14 139.80l49.60 -3.20v-3.20l-49.60 3.20"/>
<use x="199.04" y="110.00" xlink:href="#hd"/>
<path d="M195.54 110.00v28.80" class="stroke"/>
<use x="223.44" y="119.00" xlink:href="#hd"/>
<path d="M219.94 119.00v18.20" class="stroke"/>
<use x="247.84" y="104.00" xlink:href="#hd"/>
<path d="M244.34 104.00v31.60" class="stroke"/>
<path class="fill"
	d="M276.84 132.00l49.60 0.00v-3.20l-49.60 -0.00"/>
<use x="280.64" y="107.00" xlink:href="#hd"/>
<path d="M277.14 107.00v24.00" class="stroke"/>
<use x="280.64" y="113.00" xlink:href="#hd"/>
<use x="305.14" y="107.00" xlink:href="#hd"/>
<path d="M301.64 107.00v24.00" class="stroke"/>
<use x="305.14" y="113.00" xlink:href="#hd"/>
<use x="329.54" y="107.00" xlink:href="#hd"/>
<path d="M326.04 107.00v24.00" class="stroke"/>
<use x="329.54" y="113.00" xlink:href="#hd"/>
<path class="fill"
	d="M358.44 133.70l49.60 4.50v-3.20l-49.60 -4.50"/>
<use x="362.34" y="110.00" xlink:href="#hd"/>
<path d="M358.84 110.00v22.80" class="stroke"/>
<use x="386.74" y="104.00" xlink:href="#hd"/>
<path d="M383.24 104.00v31.00" class="stroke"/>
<use x="411.24" y="119.00" xlink:href="#hd"/>
<path d="M407.74 119.00v18.20" class="stroke"/>
<path class="fill"
	d="M444.94 127.00l77.10 0.00v-3.20l-77.10 -0.00"/>
<path class="fill"
	d="M469.74 122.00l51.90 0.00v-3.20l-51.90 -0.00"/>
<use x="448.74" y="101.00" xlink:href="#hd"/>
<defs>
<path id="usharp" class="fill" d="
	m136 -702
	v890
	h32
	v-890
	m128 840
	h32
	v-888
	h-32
	m-232 286
	v116
	l338 -96
	v-116
	m-338 442
	v116
	l338 -98
	v-114"/>
<use id="sh0" transform="translate(-4,5) scale(0.018)"
	xlink:href="#usharp"/>
</defs>
<use x="439.74" y="101.00" xlink:href="#sh0"/>
<path d="M445.24 101.00v25.00" class="stroke"/>
<use x="473.24" y="95.00" xlink:href="#hl"/>
<use x="473.24" y="95.00" xlink:href="#hd"/>
<path d="M469.74 95.00v31.00" class="stroke"/>
<use x="490.54" y="101.00" xlink:href="#hd"/>
<path d="M487.04 101.00v25.00" class="stroke"/>
<use x="507.84" y="107.00" xlink:href="#hd"/>
<path d="M504.34 107.00v19.00" class="stroke"/>
<use x="525.14" y="101.00" xlink:href="#hd"/>
<path d="M521.64 101.00v25.00" class="stroke"/>
<path class="fill"
	d="M548.54 121.20l70.60 5.00v-3.20l-70.60 -5.00"/>
<path class="fill"
	d="M548.84 116.30l52.60 3.70v-3.20l-52.60 -3.70"/>
<use x="552.34" y="95.00" xlink:href="#hl"/>
<use x="552.34" y="95.00" xlink:href="#hd"/>
<path d="M548.84 95.00v25.30" class="stroke"/>
<use x="569.64" y="98.00" xlink:href="#hd"/>
<path d="M566.14 98.00v23.50" class="stroke"/>
<use x="587.64" y="101.00" xlink:href="#hd"/>
<use x="578.64" y="101.00" xlink:href="#sh0"/>
<path d="M584.14 101.00v21.80" class="stroke"/>
<use x="605.04" y="98.00" xlink:href="#hd"/>
<path d="M601.54 98.00v26.00" class="stroke"/>
<use x="622.34" y="107.00" xlink:href="#hd"/>
<path d="M618.84 107.00v18.20" class="stroke"/>
<path class="fill"
	d="M651.24 138.20l87.90 -8.50v-3.20l-87.90 8.50"/>
<path class="fill"
	d="M651.54 133.20l87.20 -8.50v-3.20l-87.20 8.50"/>
<use x="655.04" y="116.00" xlink:href="#hd"/>
<path d="M651.54 116.00v21.20" class="stroke"/>
<use x="672.34" y="104.00" xlink:href="#hd"/>
<path d="M668.84 104.00v31.50" class="stroke"/>
<use x="689.74" y="107.00" xlink:href="#hd"/>
<path d="M686.24 107.00v26.80" class="stroke"/>
<use x="707.04" y="98.00" xlink:href="#hd"/>
<path d="M703.54 98.00v34.20" class="stroke"/>
<use x="725.04" y="101.00" xlink:href="#hd"/>
<use x="716.04" y="101.00" xlink:href="#sh0"/>
<path d="M721.54 101.00v29.40" class="stroke"/>
<use x="742.34" y="95.00" xlink:href="#hl"/>
<use x="742.34" y="95.00" xlink:href="#hd"/>
<path d="M738.84 95.00v33.70" class="stroke"/>
<use x="769.54" y="98.00" xlink:href="#hd"/>
<path d="M766.04 98.00v40.00" class="stroke"/>
<use x="769.54" y="119.00" xlink:href="#hd"/>
<use x="769.54" y="113.00" xlink:href="#hd"/>
<use x="769.54" y="107.00" xlink:href="#hd"/>
<defs>
<path id="r8e" class="fill" d="m 0 0
	c-1.5 1.5 -2.4 2 -3.6 2
	2.4 -2.8 -2.8 -4 -2.8 -1.2
	c0 2.7 4.3 2.4 5.9 0.6"/>
<g id="r8">
	<path d="m3.3 -4l-3.4 9.6" class="stroke"/>
	<use x="3.4" y="-4" xlink:href="#r8e"/>
</g>
</defs>
<use x="829.34" y="113.00" xlink:href="#r8"/>
<defs>
<path id="ubclef" class="fill" d="m-200 -87
	c124 -35 222 -78 254 -236
	43 -228 -167 -246 -192 -103
	59 -80 157 22 92 78
	-62 47 -115 -22 -106 -88
	21 -141 270 -136 274 52
	-1 175 -106 264 -322 297
	m357 -250
	c0 -36 51 -34 51 0
	0 37 -51 36 -51 0
	m-2 -129
	c0 -36 51 -34 51 0
	0 38 -51 37 -51 0"/>
<use id="bclef" transform="translate(0,18) scale(0.045)"
	xlink:href="#ubclef"/>
</defs>
<use x="23.54" y="165.00" xlink:href="#bclef"/>
<g font-family="serif" font-size="16" font-weight="bold" font-style="normal"
	transform="translate(42.04,182.50) scale(1.2,1)">
	<text text-anchor="middle">8</text>
	<text y="-12" text-anchor="middle">3</text>
</g>
<use x="85.24" y="168.00" xlink:href="#hd"/>
<path d="M81.74 168.00v25.00" class="stroke"/>
<use x="85.24" y="174.00" xlink:href="#hd"/>
<use x="154.44" y="171.00" xlink:href="#r8"/>
<use x="199.04" y="168.00" xlink:href="#hd"/>
<path d="M195.54 168.00v25.00" class="stroke"/>
<use x="199.04" y="174.00" xlink:href="#hd"/>
<use x="247.84" y="171.00" xlink:href="#r8"/>
<path class="fill"
	d="M276.84 183.20l49.60 0.00v-3.20l-49.60 -0.00"/>
<use x="280.64" y="162.00" xlink:href="#hd"/>
<path d="M277.14 162.00v20.20" class="stroke"/>
<use x="305.14" y="162.00" xlink:href="#hd"/>
<path d="M301.64 162.00v20.20" class="stroke"/>
<use x="329.54" y="162.00" xlink:href="#hd"/>
<path d="M326.04 162.00v20.20" class="stroke"/>
<use x="362.34" y="162.00" xlink:href="#hd"/>
<path d="M358.84 162.00v25.00" class="stroke"/>
<use x="362.34" y="168.00" xlink:href="#hd"/>
<use x="411.24" y="171.00" xlink:href="#r8"/>
<use x="448.74" y="174.00" xlink:href="#hd"/>
<path d="M452.24 174.00v-21.00" class="stroke"/>
<use x="507.84" y="171.00" xlink:href="#r8"/>
<path class="fill"
	d="M555.54 149.50l70.60 -4.70v3.20l-70.60 4.70"/>
<use x="552.34" y="177.00" xlink:href="#hd"/>
<path d="M555.84 177.00v-26.50" class="stroke"/>
<use x="552.34" y="171.00" xlink:href="#hd"/>
<use x="587.64" y="177.00" xlink:href="#hd"/>
<path d="M591.14 177.00v-28.90" class="stroke"/>
<use x="587.64" y="171.00" xlink:href="#hd"/>
<use x="622.34" y="177.00" xlink:href="#hd"/>
<path d="M625.84 177.00v-31.20" class="stroke"/>
<use x="622.34" y="162.00" xlink:href="#hd"/>
<path class="fill"
	d="M658.24 147.70l70.60 8.40v3.20l-70.60 -8.40"/>
<use x="655.04" y="174.00" xlink:href="#hd"/>
<path d="M658.54 174.00v-25.30" class="stroke"/>
<use x="689.74" y="171.00" xlink:href="#hd"/>
<path d="M693.24 171.00v-18.20" class="stroke"/>
<use x="725.04" y="189.00" xlink:href="#hl"/>
<use x="725.04" y="192.00" xlink:href="#hd"/>
<path d="M728.54 192.00v-35.00" class="stroke"/>
<path class="fill"
	d="M765.74 202.20l77.70 0.00v-3.20l-77.70 -0.00"/>
<path class="fill"
	d="M790.44 197.20l52.60 0.00v-3.20l-52.60 -0.00"/>
<use x="769.54" y="183.00" xlink:href="#hd"/>
<path d="M766.04 183.00v18.20" class="stroke"/>
<use x="793.94" y="162.00" xlink:href="#hd"/>
<path d="M790.44 162.00v39.20" class="stroke"/>
<use x="811.94" y="165.00" xlink:href="#hd"/>
<defs>
<path id="unat" class="fill" d="
	m96 -750
	h-32
	v716
	l32 -8
	182 -54
	v282
	h32
	v-706
	l-34 10
	-180 50
	v-290
	m0 592
	v-190
	l182 -52
	v188"/>
<use id="nt0" transform="translate(-3,5) scale(0.018)"
	xlink:href="#unat"/>
</defs>
<use x="802.94" y="165.00" xlink:href="#nt0"/>
<path d="M808.44 165.00v36.20" class="stroke"/>
<use x="829.34" y="168.00" xlink:href="#hd"/>
<path d="M825.84 168.00v33.20" class="stroke"/>
<use x="846.64" y="171.00" xlink:href="#hd"/>
<path d="M843.14 171.00v30.20" class="stroke"/>
</g>
<g stroke-width="0.70" transform="scale(0.867)" font-family="Times" font-size="13.00">
<path class="stroke" stroke-width="1"
	d="M11.54 324.00v-90.00"/>
<path class="fill"
	d="M6.54 231.00
	c10.5 1 12 -4.5 12 -3.5c0 1 -3.5 5.5 -8.5 5.5
	v92.00
	c5 0 8.5 4.5 8.5 5.5c0 1 -1.5 -4.5 -12 -3.5"/>
<use x="143.04" y="258.00" xlink:href="#rdots"/>
<path class="stroke" stroke-width="1"
	d="M139.04 258.00v-24.00"/>
<path class="stroke" stroke-width="3"
	d="M134.54 258.00v-24.00"/>
<use x="143.04" y="324.00" xlink:href="#rdots"/>
<path class="stroke" stroke-width="1"
	d="M139.04 324.00v-66.00"/>
<path class="stroke" stroke-width="3"
	d="M134.54 324.00v-66.00"/>
<path class="stroke" stroke-width="1"
	d="M254.94 258.00v-24.00"/>
<path class="stroke" stroke-width="1"
	d="M254.94 324.00v-66.00"/>
<path class="stroke" stroke-width="1"
	d="M333.34 258.00v-24.00"/>
<path class="stroke" stroke-width="1"
	d="M333.34 324.00v-66.00"/>
<path class="stroke" stroke-width="1"
	d="M411.74 258.00v-24.00"/>
<path class="stroke" stroke-width="1"
	d="M411.74 324.00v-66.00"/>
<path class="stroke" stroke-width="1"
	d="M490.74 258.00v-24.00"/>
<path class="stroke" stroke-width="1"
	d="M490.74 324.00v-66.00"/>
<path class="stroke" stroke-width="1"
	d="M588.84 258.00v-24.00"/>
<path class="stroke" stroke-width="1"
	d="M588.84 324.00v-66.00"/>
<path class="stroke" stroke-width="1"
	d="M687.04 258.00v-24.00"/>
<path class="stroke" stroke-width="1"
	d="M687.04 324.00v-66.00"/>
<path class="stroke" stroke-width="1"
	d="M788.44 258.00v-24.00"/>
<path class="stroke" stroke-width="1"
	d="M788.44 324.00v-66.00"/>
<path class="stroke" stroke-width="3"
	d="M860.54 258.00v-24.00"/>
<path class="stroke" stroke-width="1"
	d="M856.04 258.00v-24.00"/>
<use x="852.04" y="258.00" xlink:href="#rdots"/>
<path class="stroke" stroke-width="3"
	d="M860.54 324.00v-66.00"/>
<path class="stroke" stroke-width="1"
	d="M856.04 324.00v-66.00"/>
<use x="852.04" y="324.00" xlink:href="#rdots"/>
<path d="m11.54 258.00
	h850.50
	M11.54 252.00
	h850.50
	M11.54 246.00
	h850.50
	M11.54 240.00
	h850.50
	M11.54 234.00
	h850.50
	" class="stroke"/>
<path d="m11.54 324.00
	h850.50
	M11.54 318.00
	h850.50
	M11.54 312.00
	h850.50
	M11.54 306.00
	h850.50
	M11.54 300.00
	h850.50
	" class="stroke"/>
<path class="fill"
	d="M605.34 233.40c8.23 -3.19 46.26 2.12 54.49 7.60
	v-0.25c-9.86 -7.23 -44.63 -12.53 -54.49 -7.35"/>
<path class="fill"
	d="M699.54 234.00c2.76 -3.95 14.74 -4.43 17.50 -0.70
	v-0.22c-3.28 -5.51 -14.22 -5.03 -17.50 0.92"/>
<text x="47.54" y="219.40">2</text>
<path class="stroke"
	d="M43.54 208.00m0 20v-20h88.50v20"/>
<use x="23.54" y="252.00" xlink:href="#tclef"/>
<use x="56.04" y="231.00" xlink:href="#hd"/>
<path d="M52.54 231.00v40.00" class="stroke"/>
<use x="56.04" y="252.00" xlink:href="#hd"/>
<use x="56.04" y="246.00" xlink:href="#hd"/>
<use x="56.04" y="240.00" xlink:href="#hd"/>
<use x="108.94" y="246.00" xlink:href="#r8"/>
<use x="162.54" y="234.00" xlink:href="#hd"/>
<use x="153.54" y="234.00" xlink:href="#sh0"/>
<path d="M159.04 234.00v34.00" class="stroke"/>
<path class="fill"
	d="M159.04 268.00c0.6 -5.6 9.6 -9 5.6 -18.4
	1.6 6 -1.3 11.6 -5.6 12.8
"/>
<use x="162.54" y="249.00" xlink:href="#hd"/>
<use x="162.54" y="240.00" xlink:href="#hd"/>
<use x="195.14" y="234.00" xlink:href="#hd"/>
<path d="M191.64 234.00v21.00" class="stroke"/>
<path class="fill"
	d="M263.64 254.60l50.20 4.60v-3.20l-50.20 -4.60"/>
<path class="fill"
	d="M284.24 251.50l14.60 1.30v-3.20l-14.60 -1.30"/>
<use x="267.44" y="231.00" xlink:href="#hd"/>
<path d="M263.94 231.00v22.70" class="stroke"/>
<use x="287.74" y="228.00" xlink:href="#hl"/>
<use x="287.74" y="225.00" xlink:href="#hd"/>
<path d="M284.24 225.00v30.50" class="stroke"/>
<use x="302.34" y="231.00" xlink:href="#hd"/>
<path d="M298.84 231.00v25.90" class="stroke"/>
<use x="316.94" y="240.00" xlink:href="#hd"/>
<path d="M313.44 240.00v18.20" class="stroke"/>
<path class="fill"
	d="M342.04 260.00l50.20 0.00v-3.20l-50.20 -0.00"/>
<path class="fill"
	d="M362.64 255.00l14.60 0.00v-3.20l-14.60 -0.00"/>
<use x="345.84" y="237.00" xlink:href="#hd"/>
<path d="M342.34 237.00v22.00" class="stroke"/>
<use x="366.14" y="231.00" xlink:href="#hd"/>
<path d="M362.64 231.00v28.00" class="stroke"/>
<use x="380.74" y="237.00" xlink:href="#hd"/>
<path d="M377.24 237.00v22.00" class="stroke"/>
<use x="395.34" y="243.00" xlink:href="#hd"/>
<path d="M391.84 243.00v16.00" class="stroke"/>
<path class="fill"
	d="M420.44 273.70l50.20 -4.30v-3.20l-50.20 4.30"/>
<path class="fill"
	d="M420.74 268.70l14.60 -1.20v-3.20l-14.60 1.20"/>
<use x="424.24" y="240.00" xlink:href="#hd"/>
<path d="M420.74 240.00v32.70" class="stroke"/>
<use x="438.84" y="246.00" xlink:href="#hd"/>
<path d="M435.34 246.00v25.40" class="stroke"/>
<use x="453.44" y="252.00" xlink:href="#hd"/>
<path d="M449.94 252.00v18.20" class="stroke"/>
<use x="473.74" y="231.00" xlink:href="#hd"/>
<path d="M470.24 231.00v37.50" class="stroke"/>
<path class="fill"
	d="M499.44 264.30l59.20 7.00v-3.20l-59.20 -7.00"/>
<use x="503.24" y="237.00" xlink:href="#hd"/>
<path d="M499.74 237.00v26.30" class="stroke"/>
<use x="532.54" y="243.00" xlink:href="#hd"/>
<path d="M529.04 243.00v23.80" class="stroke"/>
<use x="561.74" y="252.00" xlink:href="#hd"/>
<path d="M558.24 252.00v18.20" class="stroke"/>
<path class="fill"
	d="M597.54 264.30l59.20 7.00v-3.20l-59.20 -7.00"/>
<use x="601.34" y="237.00" xlink:href="#hd"/>
<path d="M597.84 237.00v26.30" class="stroke"/>
<use x="630.64" y="243.00" xlink:href="#hd"/>
<path d="M627.14 243.00v23.80" class="stroke"/>
<use x="659.84" y="252.00" xlink:href="#hd"/>
<path d="M656.34 252.00v18.20" class="stroke"/>
<path class="fill"
	d="M695.64 274.20l77.20 0.00v-3.20l-77.20 -0.00"/>
<path class="fill"
	d="M696.04 269.20l76.50 0.00v-3.20l-76.50 -0.00"/>
<use x="699.54" y="240.00" xlink:href="#hd"/>
<path d="M696.04 240.00v33.20" class="stroke"/>
<use x="717.54" y="243.00" xlink:href="#hd"/>
<use x="708.54" y="243.00" xlink:href="#sh0"/>
<path d="M714.04 243.00v30.20" class="stroke"/>
<use x="732.14" y="240.00" xlink:href="#hd"/>
<path d="M728.64 240.00v33.20" class="stroke"/>
<use x="746.74" y="234.00" xlink:href="#hd"/>
<path d="M743.24 234.00v39.20" class="stroke"/>
<use x="761.34" y="252.00" xlink:href="#hd"/>
<path d="M757.84 252.00v21.20" class="stroke"/>
<use x="775.94" y="246.00" xlink:href="#hd"/>
<path d="M772.44 246.00v27.20" class="stroke"/>
<use x="800.94" y="243.00" xlink:href="#hd"/>
<path d="M797.44 243.00v21.00" class="stroke"/>
<use x="841.54" y="246.00" xlink:href="#r8"/>
<use x="23.54" y="306.00" xlink:href="#bclef"/>
<path class="fill"
	d="M52.24 343.20l68.20 -5.00v-3.20l-68.20 5.00"/>
<path class="fill"
	d="M72.84 336.70l47.20 -3.40v-3.20l-47.20 3.40"/>
<use x="56.04" y="324.00" xlink:href="#hd"/>
<path d="M52.54 324.00v18.20" class="stroke"/>
<use x="76.34" y="297.00" xlink:href="#hd"/>
<path d="M72.84 297.00v43.70" class="stroke"/>
<use x="90.94" y="303.00" xlink:href="#hd"/>
<path d="M87.44 303.00v36.70" class="stroke"/>
<use x="108.94" y="306.00" xlink:href="#hd"/>
<use x="99.94" y="306.00" xlink:href="#sh0"/>
<path d="M105.44 306.00v32.30" class="stroke"/>
<use x="123.54" y="309.00" xlink:href="#hd"/>
<path d="M120.04 309.00v28.30" class="stroke"/>
<path class="fill"
	d="M165.74 291.10l80.50 -6.90v3.20l-80.50 6.90"/>
<path class="fill"
	d="M166.04 296.00l79.90 -6.80v3.20l-79.90 6.80"/>
<use x="162.54" y="330.00" xlink:href="#hl"/>
<use x="162.54" y="333.00" xlink:href="#hd"/>
<path d="M166.04 333.00v-41.00" class="stroke"/>
<use x="177.14" y="312.00" xlink:href="#hd"/>
<path d="M180.64 312.00v-21.20" class="stroke"/>
<use x="195.14" y="315.00" xlink:href="#hd"/>
<use x="186.14" y="315.00" xlink:href="#sh0"/>
<path d="M198.64 315.00v-25.70" class="stroke"/>
<use x="209.84" y="312.00" xlink:href="#hd"/>
<path d="M213.34 312.00v-24.00" class="stroke"/>
<use x="227.84" y="315.00" xlink:href="#hd"/>
<use x="218.84" y="315.00" xlink:href="#sh0"/>
<path d="M231.34 315.00v-28.50" class="stroke"/>
<use x="242.44" y="312.00" xlink:href="#hd"/>
<path d="M245.94 312.00v-26.80" class="stroke"/>
<use x="267.44" y="303.00" xlink:href="#hd"/>
<path d="M263.94 303.00v34.00" class="stroke"/>
<use x="267.44" y="318.00" xlink:href="#hd"/>
<use x="316.94" y="312.00" xlink:href="#r8"/>
<use x="345.84" y="303.00" xlink:href="#hd"/>
<path d="M342.34 303.00v31.00" class="stroke"/>
<use x="345.84" y="315.00" xlink:href="#hd"/>
<use x="395.34" y="309.00" xlink:href="#hd"/>
<path d="M391.84 309.00v25.00" class="stroke"/>
<path class="fill"
	d="M391.84 334.00c0.6 -5.6 9.6 -9 5.6 -18.4
	1.6 6 -1.3 11.6 -5.6 12.8
"/>
<use x="395.34" y="315.00" xlink:href="#hd"/>
<use x="424.24" y="303.00" xlink:href="#hd"/>
<path d="M427.74 303.00v-21.00" class="stroke"/>
<use x="473.74" y="318.00" xlink:href="#hd"/>
<path d="M477.24 318.00v-25.00" class="stroke"/>
<path class="fill"
	d="M477.24 293.00c0.6 5.6 9.6 9 5.6 18.4
	1.6 -6 -1.3 -11.6 -5.6 -12.8
"/>
<use x="473.74" y="312.00" xlink:href="#hd"/>
<path class="fill"
	d="M499.44 331.90l73.80 0.00v-3.20l-73.80 -0.00"/>
<path class="fill"
	d="M499.74 326.90l73.10 0.00v-3.20l-73.10 -0.00"/>
<use x="503.24" y="309.00" xlink:href="#hd"/>
<path d="M499.74 309.00v21.90" class="stroke"/>
<use x="503.24" y="315.00" xlink:href="#hd"/>
<use x="517.84" y="303.00" xlink:href="#hd"/>
<path d="M514.34 303.00v27.90" class="stroke"/>
<use x="532.54" y="309.00" xlink:href="#hd"/>
<path d="M529.04 309.00v21.90" class="stroke"/>
<use x="532.54" y="315.00" xlink:href="#hd"/>
<use x="547.14" y="303.00" xlink:href="#hd"/>
<path d="M543.64 303.00v27.90" class="stroke"/>
<use x="561.74" y="309.00" xlink:href="#hd"/>
<path d="M558.24 309.00v21.90" class="stroke"/>
<use x="561.74" y="315.00" xlink:href="#hd"/>
<use x="576.34" y="303.00" xlink:href="#hd"/>
<path d="M572.84 303.00v27.90" class="stroke"/>
<path class="fill"
	d="M597.54 331.90l73.80 0.00v-3.20l-73.80 -0.00"/>
<path class="fill"
	d="M597.84 326.90l73.10 0.00v-3.20l-73.10 -0.00"/>
<use x="601.34" y="309.00" xlink:href="#hd"/>
<path d="M597.84 309.00v21.90" class="stroke"/>
<use x="601.34" y="315.00" xlink:href="#hd"/>
<use x="616.04" y="303.00" xlink:href="#hd"/>
<path d="M612.54 303.00v27.90" class="stroke"/>
<use x="630.64" y="309.00" xlink:href="#hd"/>
<path d="M627.14 309.00v21.90" class="stroke"/>
<use x="630.64" y="315.00" xlink:href="#hd"/>
<use x="645.24" y="303.00" xlink:href="#hd"/>
<path d="M641.74 303.00v27.90" class="stroke"/>
<use x="659.84" y="309.00" xlink:href="#hd"/>
<path d="M656.34 309.00v21.90" class="stroke"/>
<use x="659.84" y="315.00" xlink:href="#hd"/>
<use x="674.54" y="303.00" xlink:href="#hd"/>
<path d="M671.04 303.00v27.90" class="stroke"/>
<use x="699.54" y="306.00" xlink:href="#hd"/>
<path d="M696.04 306.00v21.00" class="stroke"/>
<use x="761.34" y="303.00" xlink:href="#hd"/>
<path d="M757.84 303.00v21.00" class="stroke"/>
<path class="fill"
	d="M757.84 324.00c0.6 -5.6 9.6 -9 5.6 -18.4
	1.6 6 -1.3 11.6 -5.6 12.8
"/>
<path class="fill"
	d="M804.14 295.70l41.20 9.70v3.20l-41.20 -9.70"/>
<use x="800.94" y="315.00" xlink:href="#hd"/>
<path d="M804.44 315.00v-18.20" class="stroke"/>
<use x="821.24" y="324.00" xlink:href="#hd"/>
<path d="M824.74 324.00v-22.40" class="stroke"/>
<use x="841.54" y="330.00" xlink:href="#hl"/>
<use x="841.54" y="336.00" xlink:href="#hl"/>
<use x="841.54" y="336.00" xlink:href="#hd"/>
<path d="M845.04 336.00v-29.70" class="stroke"/>
<use x="424.24" y="318.00" xlink:href="#hd"/>
<path d="M420.74 318.00v21.00" class="stroke"/>
<defs>
<text id="trl" font-family="serif" font-size="16" font-style="italic"
	x="-2" y="-4">tr</text>
</defs>
<use x="195.14" y="228.00" xlink:href="#trl"/>
</g>
</svg>
