<?xml version="1.0" standalone="no"?>
<!DOCTYPE svg PUBLIC "-//W3C//DTD SVG 1.1//EN"
	"http://www.w3.org/Graphics/SVG/1.1/DTD/svg11.dtd">
<svg xmlns="http://www.w3.org/2000/svg" version="1.1"
	xmlns:xlink="http://www.w3.org/1999/xlink"
	color="black"
	width="757.10px" height="293.80px">
<style type="text/css">
.fill {fill: currentColor}
.stroke {stroke: currentColor; fill: none}
text{white-space: pre}
</style>
<title>./K516f-2-12-3-12-4-11-12-7-9-6-2-9-3-9-7-12.abc (1950) tune 1</title>
<!-- Creator: abcm2ps-8.13.8 -->
<!-- CreationDate: Sep  7, 2017 11:18 -->
<!-- CommandLine: ./K516f-2-12-3-12-4-11-12-7-9-6-2-9-3-9-7-12.abc -O ./K516f-2-12-3-12-4-11-12-7-9-6-2-9-3-9-7-12.svg -g -->
<rect width="100%" height="100%" fill="white"/>
<g stroke-width="0.70" transform="scale(0.867)">
<!-- title: 2-12-3-12-4-11-12-7-9-6-2-9-3-9-7-12 -->
</g>
<g stroke-width="0.70" transform="scale(0.867)" font-family="Times" font-size="20.00">
<text x="436.84" y="22.00" text-anchor="middle">2-12-3-12-4-11-12-7-9-6-2-9-3-9-7-12</text>
</g>
<g stroke-width="0.70" transform="scale(0.867)" font-family="Times" font-size="20.00">
<!-- subtitle: $1K.516f::96:130:128:103:153:47:106:91:120:143:26:166:174:115:23:131::$0 -->
</g>
<g stroke-width="0.70" transform="scale(0.867)" font-family="Courier" font-size="8.00" font-weight="bold">
<text x="436.84" y="41.80" text-anchor="middle">K.516f::96:130:128:103:153:47:106:91:120:143:26:166:174:115:23:131::</text>
</g>
<g stroke-width="0.70" transform="scale(0.867)" font-family="Courier" font-size="8.00" font-weight="bold">
<!-- subtitle: $1Perm. No.: 195050446053134$0 -->
<text x="436.84" y="60.80" text-anchor="middle">Perm. No.: 195050446053134</text>
</g>
<g stroke-width="0.70" transform="scale(0.607)" font-family="Courier" font-size="8.00" font-weight="bold">
<defs>
<ellipse id="hd" rx="4.1" ry="2.9"
	transform="rotate(-20)" class="fill"/>
</defs>
<use x="103.06" y="121.29" xlink:href="#hd"/>
<path d="M106.56 121.29v-21.00" class="stroke"/>
<path class="fill"
	d="M106.56 100.29c0.6 5.6 9.6 9 5.6 18.4
	1.6 -6 -1.3 -11.6 -5.6 -12.8
"/>
</g>
<g stroke-width="0.70" transform="scale(0.867)" font-family="Times" font-size="15.00" font-weight="bold">
<text x="81.24" y="87.00">= 111</text>
<path class="stroke" stroke-width="1"
	d="M11.54 183.00v-82.00"/>
<path class="fill"
	d="M6.54 98.00
	c10.5 1 12 -4.5 12 -3.5c0 1 -3.5 5.5 -8.5 5.5
	v84.00
	c5 0 8.5 4.5 8.5 5.5c0 1 -1.5 -4.5 -12 -3.5"/>
<defs>
<g id="rdots" class="fill">
	<circle cx="0" cy="-9" r="1.2"/>
	<circle cx="0" cy="-15" r="1.2"/>
</g>
</defs>
<use x="70.54" y="125.00" xlink:href="#rdots"/>
<path class="stroke" stroke-width="1"
	d="M66.54 125.00v-24.00"/>
<path class="stroke" stroke-width="3"
	d="M62.04 125.00v-24.00"/>
<use x="70.54" y="183.00" xlink:href="#rdots"/>
<path class="stroke" stroke-width="1"
	d="M66.54 183.00v-58.00"/>
<path class="stroke" stroke-width="3"
	d="M62.04 183.00v-58.00"/>
<path class="stroke" stroke-width="1"
	d="M156.34 125.00v-24.00"/>
<path class="stroke" stroke-width="1"
	d="M156.34 183.00v-58.00"/>
<path class="stroke" stroke-width="1"
	d="M241.14 125.00v-24.00"/>
<path class="stroke" stroke-width="1"
	d="M241.14 183.00v-58.00"/>
<path class="stroke" stroke-width="1"
	d="M325.94 125.00v-24.00"/>
<path class="stroke" stroke-width="1"
	d="M325.94 183.00v-58.00"/>
<path class="stroke" stroke-width="1"
	d="M431.74 125.00v-24.00"/>
<path class="stroke" stroke-width="1"
	d="M431.74 183.00v-58.00"/>
<path class="stroke" stroke-width="1"
	d="M549.74 125.00v-24.00"/>
<path class="stroke" stroke-width="1"
	d="M549.74 183.00v-58.00"/>
<path class="stroke" stroke-width="1"
	d="M645.04 125.00v-24.00"/>
<path class="stroke" stroke-width="1"
	d="M645.04 183.00v-58.00"/>
<path class="stroke" stroke-width="1"
	d="M752.54 125.00v-24.00"/>
<path class="stroke" stroke-width="1"
	d="M752.54 183.00v-58.00"/>
<path class="stroke" stroke-width="3"
	d="M860.54 125.00v-24.00"/>
<path class="stroke" stroke-width="1"
	d="M856.04 125.00v-24.00"/>
<use x="852.04" y="125.00" xlink:href="#rdots"/>
<path class="stroke" stroke-width="3"
	d="M860.54 183.00v-58.00"/>
<path class="stroke" stroke-width="1"
	d="M856.04 183.00v-58.00"/>
<use x="852.04" y="183.00" xlink:href="#rdots"/>
<path d="m11.54 125.00
	h850.50
	M11.54 119.00
	h850.50
	M11.54 113.00
	h850.50
	M11.54 107.00
	h850.50
	M11.54 101.00
	h850.50
	" class="stroke"/>
<path d="m11.54 183.00
	h850.50
	M11.54 177.00
	h850.50
	M11.54 171.00
	h850.50
	M11.54 165.00
	h850.50
	M11.54 159.00
	h850.50
	" class="stroke"/>
</g>
<g stroke-width="0.70" transform="scale(0.867)" font-family="Times" font-size="13.00">
<text x="756.54" y="86.40">1</text>
<path class="stroke"
	d="M752.54 75.00m0 20v-20h101.50v20"/>
<defs>
<path id="utclef" class="fill" d="m-50 -90
	c-72 -41 -72 -158 52 -188
	150 -10 220 188 90 256
	-114 52 -275 0 -293 -136
	-15 -181 93 -229 220 -334
	88 -87 79 -133 62 -210
	-51 33 -94 105 -89 186
	17 267 36 374 49 574
	6 96 -19 134 -77 135
	-80 1 -126 -93 -61 -133
	85 -41 133 101 31 105
	23 17 92 37 90 -92
	-10 -223 -39 -342 -50 -617
	0 -90 0 -162 96 -232
	56 72 63 230 22 289
	-74 106 -257 168 -255 316
	9 153 148 185 252 133
	86 -65 29 -192 -80 -176
	-71 12 -105 67 -59 124"/>
<use id="tclef" transform="translate(0,6) scale(0.045)"
	xlink:href="#utclef"/>
</defs>
<use x="23.54" y="119.00" xlink:href="#tclef"/>
<g font-family="serif" font-size="16" font-weight="bold" font-style="normal"
	transform="translate(42.04,124.50) scale(1.2,1)">
	<text text-anchor="middle">8</text>
	<text y="-12" text-anchor="middle">3</text>
</g>
<path class="fill"
	d="M81.84 131.50l51.60 6.70v-3.20l-51.60 -6.70"/>
<use x="85.64" y="104.00" xlink:href="#hd"/>
<path d="M82.14 104.00v26.60" class="stroke"/>
<use x="111.14" y="110.00" xlink:href="#hd"/>
<path d="M107.64 110.00v23.90" class="stroke"/>
<use x="136.54" y="119.00" xlink:href="#hd"/>
<path d="M133.04 119.00v18.20" class="stroke"/>
<path class="fill"
	d="M173.64 91.00l51.60 0.00v3.20l-51.60 -0.00"/>
<use x="170.44" y="125.00" xlink:href="#hd"/>
<path d="M173.94 125.00v-33.00" class="stroke"/>
<use x="170.44" y="110.00" xlink:href="#hd"/>
<use x="195.94" y="125.00" xlink:href="#hd"/>
<path d="M199.44 125.00v-33.00" class="stroke"/>
<use x="195.94" y="110.00" xlink:href="#hd"/>
<use x="221.34" y="125.00" xlink:href="#hd"/>
<path d="M224.84 125.00v-33.00" class="stroke"/>
<use x="221.34" y="110.00" xlink:href="#hd"/>
<path class="fill"
	d="M251.44 132.20l51.60 -6.70v-3.20l-51.60 6.70"/>
<use x="255.24" y="113.00" xlink:href="#hd"/>
<path d="M251.74 113.00v18.20" class="stroke"/>
<use x="280.64" y="107.00" xlink:href="#hd"/>
<path d="M277.14 107.00v20.90" class="stroke"/>
<use x="306.14" y="98.00" xlink:href="#hd"/>
<path d="M302.64 98.00v26.60" class="stroke"/>
<path class="fill"
	d="M343.24 79.70l72.60 8.40v3.20l-72.60 -8.40"/>
<path class="fill"
	d="M343.54 84.70l53.90 6.20v3.20l-53.90 -6.20"/>
<use x="340.04" y="110.00" xlink:href="#hd"/>
<path d="M343.54 110.00v-29.30" class="stroke"/>
<use x="358.04" y="104.00" xlink:href="#hd"/>
<path d="M361.54 104.00v-21.20" class="stroke"/>
<use x="376.04" y="110.00" xlink:href="#hd"/>
<path d="M379.54 110.00v-25.10" class="stroke"/>
<use x="393.94" y="119.00" xlink:href="#hd"/>
<path d="M397.44 119.00v-32.00" class="stroke"/>
<use x="411.94" y="125.00" xlink:href="#hd"/>
<path d="M415.44 125.00v-36.00" class="stroke"/>
<path class="fill"
	d="M442.04 139.50l90.60 -6.40v-3.20l-90.60 6.40"/>
<path class="fill"
	d="M442.34 134.50l89.90 -6.40v-3.20l-89.90 6.40"/>
<use x="445.84" y="107.00" xlink:href="#hd"/>
<path d="M442.34 107.00v31.50" class="stroke"/>
<use x="463.84" y="116.00" xlink:href="#hd"/>
<path d="M460.34 116.00v21.20" class="stroke"/>
<use x="481.84" y="101.00" xlink:href="#hd"/>
<defs>
<path id="usharp" class="fill" d="
	m136 -702
	v890
	h32
	v-890
	m128 840
	h32
	v-888
	h-32
	m-232 286
	v116
	l338 -96
	v-116
	m-338 442
	v116
	l338 -98
	v-114"/>
<use id="sh0" transform="translate(-4,5) scale(0.018)"
	xlink:href="#usharp"/>
</defs>
<use x="472.84" y="101.00" xlink:href="#sh0"/>
<path d="M478.34 101.00v34.90" class="stroke"/>
<use x="499.84" y="107.00" xlink:href="#hd"/>
<path d="M496.34 107.00v27.60" class="stroke"/>
<defs>
<path id="hl" class="stroke" d="m-6 0h12"/>
</defs>
<use x="517.84" y="95.00" xlink:href="#hl"/>
<use x="517.84" y="95.00" xlink:href="#hd"/>
<path d="M514.34 95.00v38.40" class="stroke"/>
<use x="535.74" y="101.00" xlink:href="#hd"/>
<path d="M532.24 101.00v31.10" class="stroke"/>
<path class="fill"
	d="M560.04 127.00l62.10 0.00v-3.20l-62.10 -0.00"/>
<path class="fill"
	d="M585.84 122.00l18.00 0.00v-3.20l-18.00 -0.00"/>
<use x="563.84" y="98.00" xlink:href="#hd"/>
<path d="M560.34 98.00v28.00" class="stroke"/>
<use x="589.34" y="98.00" xlink:href="#hd"/>
<path d="M585.84 98.00v28.00" class="stroke"/>
<use x="607.34" y="107.00" xlink:href="#hd"/>
<path d="M603.84 107.00v19.00" class="stroke"/>
<use x="625.24" y="95.00" xlink:href="#hl"/>
<use x="625.24" y="92.00" xlink:href="#hd"/>
<path d="M621.74 92.00v34.00" class="stroke"/>
<path class="fill"
	d="M655.34 138.20l80.00 0.00v-3.20l-80.00 -0.00"/>
<path class="fill"
	d="M681.14 133.20l53.90 0.00v-3.20l-53.90 -0.00"/>
<use x="659.24" y="116.00" xlink:href="#hd"/>
<path d="M655.74 116.00v21.20" class="stroke"/>
<use x="684.64" y="107.00" xlink:href="#hd"/>
<path d="M681.14 107.00v30.20" class="stroke"/>
<use x="702.64" y="110.00" xlink:href="#hd"/>
<path d="M699.14 110.00v27.20" class="stroke"/>
<use x="720.54" y="113.00" xlink:href="#hd"/>
<path d="M717.04 113.00v24.20" class="stroke"/>
<use x="738.54" y="116.00" xlink:href="#hd"/>
<path d="M735.04 116.00v21.20" class="stroke"/>
<use x="766.64" y="98.00" xlink:href="#hd"/>
<path d="M763.14 98.00v40.00" class="stroke"/>
<use x="766.64" y="119.00" xlink:href="#hd"/>
<use x="766.64" y="113.00" xlink:href="#hd"/>
<use x="766.64" y="107.00" xlink:href="#hd"/>
<defs>
<path id="r8e" class="fill" d="m 0 0
	c-1.5 1.5 -2.4 2 -3.6 2
	2.4 -2.8 -2.8 -4 -2.8 -1.2
	c0 2.7 4.3 2.4 5.9 0.6"/>
<g id="r8">
	<path d="m3.3 -4l-3.4 9.6" class="stroke"/>
	<use x="3.4" y="-4" xlink:href="#r8e"/>
</g>
</defs>
<use x="828.04" y="113.00" xlink:href="#r8"/>
<defs>
<path id="ubclef" class="fill" d="m-200 -87
	c124 -35 222 -78 254 -236
	43 -228 -167 -246 -192 -103
	59 -80 157 22 92 78
	-62 47 -115 -22 -106 -88
	21 -141 270 -136 274 52
	-1 175 -106 264 -322 297
	m357 -250
	c0 -36 51 -34 51 0
	0 37 -51 36 -51 0
	m-2 -129
	c0 -36 51 -34 51 0
	0 38 -51 37 -51 0"/>
<use id="bclef" transform="translate(0,18) scale(0.045)"
	xlink:href="#ubclef"/>
</defs>
<use x="23.54" y="165.00" xlink:href="#bclef"/>
<g font-family="serif" font-size="16" font-weight="bold" font-style="normal"
	transform="translate(42.04,182.50) scale(1.2,1)">
	<text text-anchor="middle">8</text>
	<text y="-12" text-anchor="middle">3</text>
</g>
<use x="85.64" y="174.00" xlink:href="#hd"/>
<path d="M89.14 174.00v-21.00" class="stroke"/>
<use x="136.54" y="171.00" xlink:href="#r8"/>
<path class="fill"
	d="M173.64 153.00l51.60 0.00v3.20l-51.60 -0.00"/>
<use x="170.44" y="174.00" xlink:href="#hd"/>
<path d="M173.94 174.00v-20.00" class="stroke"/>
<use x="195.94" y="174.00" xlink:href="#hd"/>
<path d="M199.44 174.00v-20.00" class="stroke"/>
<use x="221.34" y="174.00" xlink:href="#hd"/>
<path d="M224.84 174.00v-20.00" class="stroke"/>
<use x="255.24" y="183.00" xlink:href="#hd"/>
<path d="M258.74 183.00v-21.00" class="stroke"/>
<use x="306.14" y="171.00" xlink:href="#r8"/>
<use x="340.04" y="168.00" xlink:href="#hd"/>
<path d="M336.54 168.00v25.00" class="stroke"/>
<use x="340.04" y="174.00" xlink:href="#hd"/>
<use x="411.94" y="171.00" xlink:href="#r8"/>
<use x="445.84" y="174.00" xlink:href="#hd"/>
<path d="M449.34 174.00v-21.00" class="stroke"/>
<use x="517.84" y="171.00" xlink:href="#r8"/>
<use x="563.84" y="177.00" xlink:href="#hd"/>
<path d="M567.34 177.00v-25.00" class="stroke"/>
<use x="563.84" y="171.00" xlink:href="#hd"/>
<use x="625.24" y="171.00" xlink:href="#r8"/>
<path class="fill"
	d="M662.34 148.30l62.10 8.50v3.20l-62.10 -8.50"/>
<use x="659.24" y="174.00" xlink:href="#hd"/>
<path d="M662.74 174.00v-24.70" class="stroke"/>
<use x="684.64" y="171.00" xlink:href="#hd"/>
<path d="M688.14 171.00v-18.20" class="stroke"/>
<use x="720.54" y="189.00" xlink:href="#hl"/>
<use x="720.54" y="192.00" xlink:href="#hd"/>
<path d="M724.04 192.00v-34.30" class="stroke"/>
<path class="fill"
	d="M762.84 202.20l80.10 0.00v-3.20l-80.10 -0.00"/>
<path class="fill"
	d="M788.64 197.20l54.00 0.00v-3.20l-54.00 -0.00"/>
<use x="766.64" y="183.00" xlink:href="#hd"/>
<path d="M763.14 183.00v18.20" class="stroke"/>
<use x="792.14" y="162.00" xlink:href="#hd"/>
<path d="M788.64 162.00v39.20" class="stroke"/>
<use x="810.14" y="165.00" xlink:href="#hd"/>
<defs>
<path id="unat" class="fill" d="
	m96 -750
	h-32
	v716
	l32 -8
	182 -54
	v282
	h32
	v-706
	l-34 10
	-180 50
	v-290
	m0 592
	v-190
	l182 -52
	v188"/>
<use id="nt0" transform="translate(-3,5) scale(0.018)"
	xlink:href="#unat"/>
</defs>
<use x="801.14" y="165.00" xlink:href="#nt0"/>
<path d="M806.64 165.00v36.20" class="stroke"/>
<use x="828.04" y="168.00" xlink:href="#hd"/>
<path d="M824.54 168.00v33.20" class="stroke"/>
<use x="846.04" y="171.00" xlink:href="#hd"/>
<path d="M842.54 171.00v30.20" class="stroke"/>
</g>
<g stroke-width="0.70" transform="scale(0.867)" font-family="Times" font-size="13.00">
<path class="stroke" stroke-width="1"
	d="M11.54 316.00v-82.00"/>
<path class="fill"
	d="M6.54 231.00
	c10.5 1 12 -4.5 12 -3.5c0 1 -3.5 5.5 -8.5 5.5
	v84.00
	c5 0 8.5 4.5 8.5 5.5c0 1 -1.5 -4.5 -12 -3.5"/>
<use x="141.84" y="258.00" xlink:href="#rdots"/>
<path class="stroke" stroke-width="1"
	d="M137.84 258.00v-24.00"/>
<path class="stroke" stroke-width="3"
	d="M133.34 258.00v-24.00"/>
<use x="141.84" y="316.00" xlink:href="#rdots"/>
<path class="stroke" stroke-width="1"
	d="M137.84 316.00v-58.00"/>
<path class="stroke" stroke-width="3"
	d="M133.34 316.00v-58.00"/>
<path class="stroke" stroke-width="1"
	d="M240.34 258.00v-24.00"/>
<path class="stroke" stroke-width="1"
	d="M240.34 316.00v-58.00"/>
<path class="stroke" stroke-width="1"
	d="M318.24 258.00v-24.00"/>
<path class="stroke" stroke-width="1"
	d="M318.24 316.00v-58.00"/>
<path class="stroke" stroke-width="1"
	d="M414.64 258.00v-24.00"/>
<path class="stroke" stroke-width="1"
	d="M414.64 316.00v-58.00"/>
<path class="stroke" stroke-width="1"
	d="M500.24 258.00v-24.00"/>
<path class="stroke" stroke-width="1"
	d="M500.24 316.00v-58.00"/>
<path class="stroke" stroke-width="1"
	d="M596.74 258.00v-24.00"/>
<path class="stroke" stroke-width="1"
	d="M596.74 316.00v-58.00"/>
<path class="stroke" stroke-width="1"
	d="M693.14 258.00v-24.00"/>
<path class="stroke" stroke-width="1"
	d="M693.14 316.00v-58.00"/>
<path class="stroke" stroke-width="1"
	d="M789.54 258.00v-24.00"/>
<path class="stroke" stroke-width="1"
	d="M789.54 316.00v-58.00"/>
<path class="stroke" stroke-width="3"
	d="M860.54 258.00v-24.00"/>
<path class="stroke" stroke-width="1"
	d="M856.04 258.00v-24.00"/>
<use x="852.04" y="258.00" xlink:href="#rdots"/>
<path class="stroke" stroke-width="3"
	d="M860.54 316.00v-58.00"/>
<path class="stroke" stroke-width="1"
	d="M856.04 316.00v-58.00"/>
<use x="852.04" y="316.00" xlink:href="#rdots"/>
<path d="m11.54 258.00
	h850.50
	M11.54 252.00
	h850.50
	M11.54 246.00
	h850.50
	M11.54 240.00
	h850.50
	M11.54 234.00
	h850.50
	" class="stroke"/>
<path d="m11.54 316.00
	h850.50
	M11.54 310.00
	h850.50
	M11.54 304.00
	h850.50
	M11.54 298.00
	h850.50
	M11.54 292.00
	h850.50
	" class="stroke"/>
<text x="47.54" y="219.40">2</text>
<path class="stroke"
	d="M43.54 208.00m0 20v-20h87.30v20"/>
<use x="23.54" y="252.00" xlink:href="#tclef"/>
<use x="56.04" y="231.00" xlink:href="#hd"/>
<path d="M52.54 231.00v40.00" class="stroke"/>
<use x="56.04" y="252.00" xlink:href="#hd"/>
<use x="56.04" y="246.00" xlink:href="#hd"/>
<use x="56.04" y="240.00" xlink:href="#hd"/>
<use x="108.04" y="246.00" xlink:href="#r8"/>
<path class="fill"
	d="M157.54 260.70l67.20 10.60v-3.20l-67.20 -10.60"/>
<path class="fill"
	d="M177.84 258.90l46.60 7.30v-3.20l-46.60 -7.30"/>
<use x="161.34" y="228.00" xlink:href="#hl"/>
<use x="161.34" y="222.00" xlink:href="#hl"/>
<use x="161.34" y="219.00" xlink:href="#hd"/>
<path d="M157.84 219.00v40.70" class="stroke"/>
<use x="181.34" y="228.00" xlink:href="#hl"/>
<use x="181.34" y="228.00" xlink:href="#hd"/>
<path d="M177.84 228.00v34.90" class="stroke"/>
<use x="199.34" y="234.00" xlink:href="#hd"/>
<use x="190.34" y="234.00" xlink:href="#sh0"/>
<path d="M195.84 234.00v31.70" class="stroke"/>
<use x="213.54" y="240.00" xlink:href="#hd"/>
<path d="M210.04 240.00v28.00" class="stroke"/>
<use x="227.84" y="249.00" xlink:href="#hd"/>
<path d="M224.34 249.00v21.20" class="stroke"/>
<path class="fill"
	d="M249.04 262.80l49.00 8.40v-3.20l-49.00 -8.40"/>
<path class="fill"
	d="M269.14 261.30l14.30 2.50v-3.20l-14.30 -2.50"/>
<use x="252.84" y="231.00" xlink:href="#hd"/>
<path d="M249.34 231.00v30.90" class="stroke"/>
<use x="272.64" y="240.00" xlink:href="#hd"/>
<path d="M269.14 240.00v25.30" class="stroke"/>
<use x="286.94" y="246.00" xlink:href="#hd"/>
<path d="M283.44 246.00v21.70" class="stroke"/>
<use x="301.24" y="252.00" xlink:href="#hd"/>
<path d="M297.74 252.00v18.20" class="stroke"/>
<path class="fill"
	d="M326.84 261.00l57.80 0.00v-3.20l-57.80 -0.00"/>
<use x="330.74" y="237.00" xlink:href="#hd"/>
<path d="M327.24 237.00v23.00" class="stroke"/>
<use x="330.74" y="243.00" xlink:href="#hd"/>
<use x="359.24" y="237.00" xlink:href="#hd"/>
<path d="M355.74 237.00v23.00" class="stroke"/>
<use x="359.24" y="243.00" xlink:href="#hd"/>
<use x="387.84" y="237.00" xlink:href="#hd"/>
<path d="M384.34 237.00v23.00" class="stroke"/>
<use x="387.84" y="243.00" xlink:href="#hd"/>
<path class="fill"
	d="M423.24 262.20l57.80 5.30v-3.20l-57.80 -5.30"/>
<path class="fill"
	d="M423.64 257.20l42.80 4.00v-3.20l-42.80 -4.00"/>
<use x="427.14" y="240.00" xlink:href="#hd"/>
<path d="M423.64 240.00v21.20" class="stroke"/>
<use x="441.44" y="228.00" xlink:href="#hl"/>
<use x="441.44" y="225.00" xlink:href="#hd"/>
<path d="M437.94 225.00v37.50" class="stroke"/>
<use x="455.64" y="231.00" xlink:href="#hd"/>
<path d="M452.14 231.00v32.80" class="stroke"/>
<use x="469.94" y="240.00" xlink:href="#hd"/>
<path d="M466.44 240.00v25.20" class="stroke"/>
<use x="484.24" y="246.00" xlink:href="#hd"/>
<path d="M480.74 246.00v20.50" class="stroke"/>
<path class="fill"
	d="M508.94 271.20l57.80 -6.90v-3.20l-57.80 6.90"/>
<use x="512.74" y="252.00" xlink:href="#hd"/>
<path d="M509.24 252.00v18.20" class="stroke"/>
<use x="541.34" y="243.00" xlink:href="#hd"/>
<path d="M537.84 243.00v23.80" class="stroke"/>
<use x="569.94" y="237.00" xlink:href="#hd"/>
<path d="M566.44 237.00v26.40" class="stroke"/>
<path class="fill"
	d="M605.34 275.50l72.10 -6.20v-3.20l-72.10 6.20"/>
<path class="fill"
	d="M605.74 270.40l71.40 -6.20v-3.20l-71.40 6.20"/>
<use x="609.24" y="243.00" xlink:href="#hd"/>
<path d="M605.74 243.00v31.40" class="stroke"/>
<use x="623.44" y="252.00" xlink:href="#hd"/>
<path d="M619.94 252.00v21.20" class="stroke"/>
<use x="637.74" y="237.00" xlink:href="#hd"/>
<path d="M634.24 237.00v35.00" class="stroke"/>
<use x="652.04" y="243.00" xlink:href="#hd"/>
<path d="M648.54 243.00v27.70" class="stroke"/>
<use x="666.34" y="231.00" xlink:href="#hd"/>
<path d="M662.84 231.00v38.50" class="stroke"/>
<use x="680.64" y="237.00" xlink:href="#hd"/>
<path d="M677.14 237.00v31.30" class="stroke"/>
<path class="fill"
	d="M701.74 260.00l72.10 0.00v-3.20l-72.10 -0.00"/>
<path class="fill"
	d="M702.14 255.00l71.40 0.00v-3.20l-71.40 -0.00"/>
<use x="705.64" y="234.00" xlink:href="#hd"/>
<path d="M702.14 234.00v25.00" class="stroke"/>
<use x="719.94" y="237.00" xlink:href="#hd"/>
<path d="M716.44 237.00v22.00" class="stroke"/>
<use x="734.14" y="240.00" xlink:href="#hd"/>
<path d="M730.64 240.00v19.00" class="stroke"/>
<use x="748.44" y="237.00" xlink:href="#hd"/>
<path d="M744.94 237.00v22.00" class="stroke"/>
<use x="762.74" y="234.00" xlink:href="#hd"/>
<path d="M759.24 234.00v25.00" class="stroke"/>
<use x="777.04" y="231.00" xlink:href="#hd"/>
<path d="M773.54 231.00v28.00" class="stroke"/>
<use x="802.04" y="243.00" xlink:href="#hd"/>
<path d="M798.54 243.00v21.00" class="stroke"/>
<use x="841.54" y="246.00" xlink:href="#r8"/>
<use x="23.54" y="298.00" xlink:href="#bclef"/>
<path class="fill"
	d="M52.24 335.20l67.00 -4.90v-3.20l-67.00 4.90"/>
<path class="fill"
	d="M72.34 328.80l46.60 -3.40v-3.20l-46.60 3.40"/>
<use x="56.04" y="316.00" xlink:href="#hd"/>
<path d="M52.54 316.00v18.20" class="stroke"/>
<use x="75.84" y="289.00" xlink:href="#hd"/>
<path d="M72.34 289.00v43.80" class="stroke"/>
<use x="90.04" y="295.00" xlink:href="#hd"/>
<path d="M86.54 295.00v36.70" class="stroke"/>
<use x="108.04" y="298.00" xlink:href="#hd"/>
<use x="99.04" y="298.00" xlink:href="#sh0"/>
<path d="M104.54 298.00v32.40" class="stroke"/>
<use x="122.34" y="301.00" xlink:href="#hd"/>
<path d="M118.84 301.00v28.30" class="stroke"/>
<use x="161.34" y="298.00" xlink:href="#hd"/>
<use x="152.34" y="298.00" xlink:href="#sh0"/>
<path d="M157.84 298.00v25.00" class="stroke"/>
<use x="161.34" y="304.00" xlink:href="#hd"/>
<use x="213.54" y="298.00" xlink:href="#hd"/>
<path d="M210.04 298.00v28.00" class="stroke"/>
<path class="fill"
	d="M210.04 326.00c0.6 -5.6 9.6 -9 5.6 -18.4
	1.6 6 -1.3 11.6 -5.6 12.8
"/>
<use x="213.54" y="307.00" xlink:href="#hd"/>
<use x="252.84" y="310.00" xlink:href="#hd"/>
<path d="M256.34 310.00v-25.00" class="stroke"/>
<use x="252.84" y="304.00" xlink:href="#hd"/>
<use x="301.24" y="310.00" xlink:href="#hd"/>
<path d="M304.74 310.00v-25.00" class="stroke"/>
<path class="fill"
	d="M304.74 285.00c0.6 5.6 9.6 9 5.6 18.4
	1.6 -6 -1.3 -11.6 -5.6 -12.8
"/>
<use x="301.24" y="304.00" xlink:href="#hd"/>
<path class="fill"
	d="M326.84 329.20l72.10 0.00v-3.20l-72.10 -0.00"/>
<path class="fill"
	d="M327.24 324.20l71.40 0.00v-3.20l-71.40 -0.00"/>
<use x="330.74" y="307.00" xlink:href="#hd"/>
<path d="M327.24 307.00v21.20" class="stroke"/>
<use x="344.94" y="301.00" xlink:href="#hd"/>
<path d="M341.44 301.00v27.20" class="stroke"/>
<use x="359.24" y="295.00" xlink:href="#hd"/>
<path d="M355.74 295.00v33.20" class="stroke"/>
<use x="373.54" y="301.00" xlink:href="#hd"/>
<path d="M370.04 301.00v27.20" class="stroke"/>
<use x="387.84" y="286.00" xlink:href="#hl"/>
<use x="387.84" y="286.00" xlink:href="#hd"/>
<path d="M384.34 286.00v42.20" class="stroke"/>
<use x="402.14" y="307.00" xlink:href="#hd"/>
<path d="M398.64 307.00v21.20" class="stroke"/>
<use x="427.14" y="289.00" xlink:href="#hd"/>
<path d="M423.64 289.00v25.00" class="stroke"/>
<use x="427.14" y="295.00" xlink:href="#hd"/>
<use x="484.24" y="304.00" xlink:href="#r8"/>
<path class="fill"
	d="M508.94 323.90l72.10 0.00v-3.20l-72.10 -0.00"/>
<path class="fill"
	d="M509.24 318.90l71.40 0.00v-3.20l-71.40 -0.00"/>
<use x="512.74" y="301.00" xlink:href="#hd"/>
<path d="M509.24 301.00v21.90" class="stroke"/>
<use x="512.74" y="307.00" xlink:href="#hd"/>
<use x="527.04" y="295.00" xlink:href="#hd"/>
<path d="M523.54 295.00v27.90" class="stroke"/>
<use x="541.34" y="301.00" xlink:href="#hd"/>
<path d="M537.84 301.00v21.90" class="stroke"/>
<use x="541.34" y="307.00" xlink:href="#hd"/>
<use x="555.64" y="295.00" xlink:href="#hd"/>
<path d="M552.14 295.00v27.90" class="stroke"/>
<use x="569.94" y="301.00" xlink:href="#hd"/>
<path d="M566.44 301.00v21.90" class="stroke"/>
<use x="569.94" y="307.00" xlink:href="#hd"/>
<use x="584.24" y="295.00" xlink:href="#hd"/>
<path d="M580.74 295.00v27.90" class="stroke"/>
<use x="609.24" y="301.00" xlink:href="#hd"/>
<path d="M605.74 301.00v25.00" class="stroke"/>
<use x="609.24" y="307.00" xlink:href="#hd"/>
<use x="666.34" y="304.00" xlink:href="#r8"/>
<path class="fill"
	d="M701.74 317.90l72.10 0.00v-3.20l-72.10 -0.00"/>
<path class="fill"
	d="M702.14 312.90l71.40 0.00v-3.20l-71.40 -0.00"/>
<use x="705.64" y="292.00" xlink:href="#hd"/>
<path d="M702.14 292.00v25.00" class="stroke"/>
<use x="719.94" y="295.00" xlink:href="#hd"/>
<path d="M716.44 295.00v22.00" class="stroke"/>
<use x="734.14" y="298.00" xlink:href="#hd"/>
<path d="M730.64 298.00v19.00" class="stroke"/>
<use x="748.44" y="295.00" xlink:href="#hd"/>
<path d="M744.94 295.00v22.00" class="stroke"/>
<use x="762.74" y="292.00" xlink:href="#hd"/>
<path d="M759.24 292.00v25.00" class="stroke"/>
<use x="777.04" y="289.00" xlink:href="#hd"/>
<path d="M773.54 289.00v28.00" class="stroke"/>
<path class="fill"
	d="M805.14 287.70l40.20 9.60v3.20l-40.20 -9.60"/>
<use x="802.04" y="307.00" xlink:href="#hd"/>
<path d="M805.54 307.00v-18.20" class="stroke"/>
<use x="821.74" y="316.00" xlink:href="#hd"/>
<path d="M825.24 316.00v-22.50" class="stroke"/>
<use x="841.54" y="322.00" xlink:href="#hl"/>
<use x="841.54" y="328.00" xlink:href="#hl"/>
<use x="841.54" y="328.00" xlink:href="#hd"/>
<path d="M845.04 328.00v-29.80" class="stroke"/>
</g>
</svg>
