<?xml version="1.0" standalone="no"?>
<!DOCTYPE svg PUBLIC "-//W3C//DTD SVG 1.1//EN"
	"http://www.w3.org/Graphics/SVG/1.1/DTD/svg11.dtd">
<svg xmlns="http://www.w3.org/2000/svg" version="1.1"
	xmlns:xlink="http://www.w3.org/1999/xlink"
	color="black"
	width="757.10px" height="293.80px">
<style type="text/css">
.fill {fill: currentColor}
.stroke {stroke: currentColor; fill: none}
text{white-space: pre}
</style>
<title>./K516f-5-8-6-5-11-12-10-2-4-7-8-2-8-10-3-11.abc (6135) tune 1</title>
<!-- Creator: abcm2ps-8.13.8 -->
<!-- CreationDate: Sep  7, 2017 11:18 -->
<!-- CommandLine: ./K516f-5-8-6-5-11-12-10-2-4-7-8-2-8-10-3-11.abc -O ./K516f-5-8-6-5-11-12-10-2-4-7-8-2-8-10-3-11.svg -g -->
<rect width="100%" height="100%" fill="white"/>
<g stroke-width="0.70" transform="scale(0.867)">
<!-- title: 5-8-6-5-11-12-10-2-4-7-8-2-8-10-3-11 -->
</g>
<g stroke-width="0.70" transform="scale(0.867)" font-family="Times" font-size="20.00">
<text x="436.84" y="22.00" text-anchor="middle">5-8-6-5-11-12-10-2-4-7-8-2-8-10-3-11</text>
</g>
<g stroke-width="0.70" transform="scale(0.867)" font-family="Times" font-size="20.00">
<!-- subtitle: $1K.516f::40:60:163:85:135:37:62:30:66:71:57:9:43:38:116:78::$0 -->
</g>
<g stroke-width="0.70" transform="scale(0.867)" font-family="Courier" font-size="8.00" font-weight="bold">
<text x="436.84" y="41.80" text-anchor="middle">K.516f::40:60:163:85:135:37:62:30:66:71:57:9:43:38:116:78::</text>
</g>
<g stroke-width="0.70" transform="scale(0.867)" font-family="Courier" font-size="8.00" font-weight="bold">
<!-- subtitle: $1Perm. No.: 61357283555572$0 -->
<text x="436.84" y="60.80" text-anchor="middle">Perm. No.: 61357283555572</text>
</g>
<g stroke-width="0.70" transform="scale(0.607)" font-family="Courier" font-size="8.00" font-weight="bold">
<defs>
<ellipse id="hd" rx="4.1" ry="2.9"
	transform="rotate(-20)" class="fill"/>
</defs>
<use x="103.06" y="121.29" xlink:href="#hd"/>
<path d="M106.56 121.29v-21.00" class="stroke"/>
<path class="fill"
	d="M106.56 100.29c0.6 5.6 9.6 9 5.6 18.4
	1.6 -6 -1.3 -11.6 -5.6 -12.8
"/>
</g>
<g stroke-width="0.70" transform="scale(0.867)" font-family="Times" font-size="15.00" font-weight="bold">
<text x="81.24" y="87.00">= 111</text>
<path class="stroke" stroke-width="1"
	d="M11.54 183.00v-82.00"/>
<path class="fill"
	d="M6.54 98.00
	c10.5 1 12 -4.5 12 -3.5c0 1 -3.5 5.5 -8.5 5.5
	v84.00
	c5 0 8.5 4.5 8.5 5.5c0 1 -1.5 -4.5 -12 -3.5"/>
<defs>
<g id="rdots" class="fill">
	<circle cx="0" cy="-9" r="1.2"/>
	<circle cx="0" cy="-15" r="1.2"/>
</g>
</defs>
<use x="70.54" y="125.00" xlink:href="#rdots"/>
<path class="stroke" stroke-width="1"
	d="M66.54 125.00v-24.00"/>
<path class="stroke" stroke-width="3"
	d="M62.04 125.00v-24.00"/>
<use x="70.54" y="183.00" xlink:href="#rdots"/>
<path class="stroke" stroke-width="1"
	d="M66.54 183.00v-58.00"/>
<path class="stroke" stroke-width="3"
	d="M62.04 183.00v-58.00"/>
<path class="stroke" stroke-width="1"
	d="M178.04 125.00v-24.00"/>
<path class="stroke" stroke-width="1"
	d="M178.04 183.00v-58.00"/>
<path class="stroke" stroke-width="1"
	d="M274.84 125.00v-24.00"/>
<path class="stroke" stroke-width="1"
	d="M274.84 183.00v-58.00"/>
<path class="stroke" stroke-width="1"
	d="M383.14 125.00v-24.00"/>
<path class="stroke" stroke-width="1"
	d="M383.14 183.00v-58.00"/>
<path class="stroke" stroke-width="1"
	d="M459.24 125.00v-24.00"/>
<path class="stroke" stroke-width="1"
	d="M459.24 183.00v-58.00"/>
<path class="stroke" stroke-width="1"
	d="M557.94 125.00v-24.00"/>
<path class="stroke" stroke-width="1"
	d="M557.94 183.00v-58.00"/>
<path class="stroke" stroke-width="1"
	d="M653.34 125.00v-24.00"/>
<path class="stroke" stroke-width="1"
	d="M653.34 183.00v-58.00"/>
<path class="stroke" stroke-width="1"
	d="M761.64 125.00v-24.00"/>
<path class="stroke" stroke-width="1"
	d="M761.64 183.00v-58.00"/>
<path class="stroke" stroke-width="3"
	d="M860.54 125.00v-24.00"/>
<path class="stroke" stroke-width="1"
	d="M856.04 125.00v-24.00"/>
<use x="852.04" y="125.00" xlink:href="#rdots"/>
<path class="stroke" stroke-width="3"
	d="M860.54 183.00v-58.00"/>
<path class="stroke" stroke-width="1"
	d="M856.04 183.00v-58.00"/>
<use x="852.04" y="183.00" xlink:href="#rdots"/>
<path d="m11.54 125.00
	h850.50
	M11.54 119.00
	h850.50
	M11.54 113.00
	h850.50
	M11.54 107.00
	h850.50
	M11.54 101.00
	h850.50
	" class="stroke"/>
<path d="m11.54 183.00
	h850.50
	M11.54 177.00
	h850.50
	M11.54 171.00
	h850.50
	M11.54 165.00
	h850.50
	M11.54 159.00
	h850.50
	" class="stroke"/>
</g>
<g stroke-width="0.70" transform="scale(0.867)" font-family="Times" font-size="13.00">
<text x="765.64" y="86.40">1</text>
<path class="stroke"
	d="M761.64 75.00m0 20v-20h92.40v20"/>
<defs>
<path id="utclef" class="fill" d="m-50 -90
	c-72 -41 -72 -158 52 -188
	150 -10 220 188 90 256
	-114 52 -275 0 -293 -136
	-15 -181 93 -229 220 -334
	88 -87 79 -133 62 -210
	-51 33 -94 105 -89 186
	17 267 36 374 49 574
	6 96 -19 134 -77 135
	-80 1 -126 -93 -61 -133
	85 -41 133 101 31 105
	23 17 92 37 90 -92
	-10 -223 -39 -342 -50 -617
	0 -90 0 -162 96 -232
	56 72 63 230 22 289
	-74 106 -257 168 -255 316
	9 153 148 185 252 133
	86 -65 29 -192 -80 -176
	-71 12 -105 67 -59 124"/>
<use id="tclef" transform="translate(0,6) scale(0.045)"
	xlink:href="#utclef"/>
</defs>
<use x="23.54" y="119.00" xlink:href="#tclef"/>
<g font-family="serif" font-size="16" font-weight="bold" font-style="normal"
	transform="translate(42.04,124.50) scale(1.2,1)">
	<text text-anchor="middle">8</text>
	<text y="-12" text-anchor="middle">3</text>
</g>
<path class="fill"
	d="M80.64 141.20l81.40 0.00v-3.20l-81.40 -0.00"/>
<path class="fill"
	d="M81.04 136.20l80.70 0.00v-3.20l-80.70 -0.00"/>
<use x="84.54" y="110.00" xlink:href="#hd"/>
<path d="M81.04 110.00v30.20" class="stroke"/>
<use x="100.64" y="113.00" xlink:href="#hd"/>
<path d="M97.14 113.00v27.20" class="stroke"/>
<use x="116.74" y="110.00" xlink:href="#hd"/>
<path d="M113.24 110.00v30.20" class="stroke"/>
<use x="132.94" y="104.00" xlink:href="#hd"/>
<path d="M129.44 104.00v36.20" class="stroke"/>
<use x="149.04" y="119.00" xlink:href="#hd"/>
<path d="M145.54 119.00v21.20" class="stroke"/>
<use x="165.14" y="110.00" xlink:href="#hd"/>
<path d="M161.64 110.00v30.20" class="stroke"/>
<path class="fill"
	d="M187.14 123.10l71.70 9.10v-3.20l-71.70 -9.10"/>
<path class="fill"
	d="M210.14 121.00l48.40 6.20v-3.20l-48.40 -6.20"/>
<use x="190.94" y="98.00" xlink:href="#hd"/>
<path d="M187.44 98.00v24.10" class="stroke"/>
<use x="213.64" y="101.00" xlink:href="#hd"/>
<path d="M210.14 101.00v24.00" class="stroke"/>
<use x="229.74" y="104.00" xlink:href="#hd"/>
<path d="M226.24 104.00v23.10" class="stroke"/>
<use x="245.84" y="107.00" xlink:href="#hd"/>
<path d="M242.34 107.00v22.10" class="stroke"/>
<use x="262.04" y="110.00" xlink:href="#hd"/>
<path d="M258.54 110.00v21.20" class="stroke"/>
<path class="fill"
	d="M283.94 131.30l83.20 9.90v-3.20l-83.20 -9.90"/>
<path class="fill"
	d="M284.24 126.40l82.50 9.80v-3.20l-82.50 -9.80"/>
<use x="287.74" y="98.00" xlink:href="#hd"/>
<path d="M284.24 98.00v32.40" class="stroke"/>
<use x="305.74" y="101.00" xlink:href="#hd"/>
<defs>
<path id="usharp" class="fill" d="
	m136 -702
	v890
	h32
	v-890
	m128 840
	h32
	v-888
	h-32
	m-232 286
	v116
	l338 -96
	v-116
	m-338 442
	v116
	l338 -98
	v-114"/>
<use id="sh0" transform="translate(-4,5) scale(0.018)"
	xlink:href="#usharp"/>
</defs>
<use x="296.74" y="101.00" xlink:href="#sh0"/>
<path d="M302.24 101.00v31.50" class="stroke"/>
<use x="321.94" y="98.00" xlink:href="#hd"/>
<path d="M318.44 98.00v36.40" class="stroke"/>
<use x="338.04" y="107.00" xlink:href="#hd"/>
<path d="M334.54 107.00v29.40" class="stroke"/>
<use x="354.14" y="113.00" xlink:href="#hd"/>
<path d="M350.64 113.00v25.30" class="stroke"/>
<use x="370.34" y="119.00" xlink:href="#hd"/>
<path d="M366.84 119.00v21.20" class="stroke"/>
<path class="fill"
	d="M392.24 133.80l46.00 4.40v-3.20l-46.00 -4.40"/>
<use x="396.14" y="110.00" xlink:href="#hd"/>
<path d="M392.64 110.00v22.80" class="stroke"/>
<use x="418.74" y="104.00" xlink:href="#hd"/>
<path d="M415.24 104.00v31.00" class="stroke"/>
<use x="441.44" y="119.00" xlink:href="#hd"/>
<path d="M437.94 119.00v18.20" class="stroke"/>
<path class="fill"
	d="M473.94 127.00l56.30 0.00v-3.20l-56.30 -0.00"/>
<path class="fill"
	d="M497.54 122.00l16.10 0.00v-3.20l-16.10 -0.00"/>
<use x="477.74" y="101.00" xlink:href="#hd"/>
<use x="468.74" y="101.00" xlink:href="#sh0"/>
<path d="M474.24 101.00v25.00" class="stroke"/>
<use x="501.04" y="101.00" xlink:href="#hd"/>
<path d="M497.54 101.00v25.00" class="stroke"/>
<use x="517.14" y="107.00" xlink:href="#hd"/>
<path d="M513.64 107.00v19.00" class="stroke"/>
<defs>
<path id="hl" class="stroke" d="m-6 0h12"/>
</defs>
<use x="533.44" y="95.00" xlink:href="#hl"/>
<use x="533.44" y="95.00" xlink:href="#hd"/>
<path d="M529.94 95.00v31.00" class="stroke"/>
<path class="fill"
	d="M567.04 124.10l65.20 8.20v-3.20l-65.20 -8.20"/>
<path class="fill"
	d="M567.44 119.10l48.40 6.10v-3.20l-48.40 -6.10"/>
<use x="570.94" y="98.00" xlink:href="#hd"/>
<path d="M567.44 98.00v25.10" class="stroke"/>
<use x="587.04" y="95.00" xlink:href="#hl"/>
<use x="587.04" y="92.00" xlink:href="#hd"/>
<path d="M583.54 92.00v33.10" class="stroke"/>
<use x="603.14" y="98.00" xlink:href="#hd"/>
<path d="M599.64 98.00v29.20" class="stroke"/>
<use x="619.34" y="107.00" xlink:href="#hd"/>
<path d="M615.84 107.00v22.20" class="stroke"/>
<use x="635.44" y="113.00" xlink:href="#hd"/>
<path d="M631.94 113.00v18.20" class="stroke"/>
<path class="fill"
	d="M669.44 81.80l83.20 8.00v3.20l-83.20 -8.00"/>
<path class="fill"
	d="M669.74 86.80l82.50 7.90v3.20l-82.50 -7.90"/>
<use x="666.24" y="104.00" xlink:href="#hd"/>
<path d="M669.74 104.00v-21.20" class="stroke"/>
<use x="682.44" y="110.00" xlink:href="#hd"/>
<path d="M685.94 110.00v-25.60" class="stroke"/>
<use x="698.54" y="113.00" xlink:href="#hd"/>
<path d="M702.04 113.00v-27.10" class="stroke"/>
<use x="714.74" y="119.00" xlink:href="#hd"/>
<path d="M718.24 119.00v-31.50" class="stroke"/>
<use x="730.84" y="116.00" xlink:href="#hd"/>
<path d="M734.34 116.00v-27.00" class="stroke"/>
<use x="748.84" y="122.00" xlink:href="#hd"/>
<use x="739.84" y="122.00" xlink:href="#sh0"/>
<path d="M752.34 122.00v-31.30" class="stroke"/>
<use x="774.64" y="98.00" xlink:href="#hd"/>
<path d="M771.14 98.00v40.00" class="stroke"/>
<use x="774.64" y="119.00" xlink:href="#hd"/>
<use x="774.64" y="113.00" xlink:href="#hd"/>
<use x="774.64" y="107.00" xlink:href="#hd"/>
<defs>
<path id="r8e" class="fill" d="m 0 0
	c-1.5 1.5 -2.4 2 -3.6 2
	2.4 -2.8 -2.8 -4 -2.8 -1.2
	c0 2.7 4.3 2.4 5.9 0.6"/>
<g id="r8">
	<path d="m3.3 -4l-3.4 9.6" class="stroke"/>
	<use x="3.4" y="-4" xlink:href="#r8e"/>
</g>
</defs>
<use x="831.34" y="113.00" xlink:href="#r8"/>
<defs>
<path id="ubclef" class="fill" d="m-200 -87
	c124 -35 222 -78 254 -236
	43 -228 -167 -246 -192 -103
	59 -80 157 22 92 78
	-62 47 -115 -22 -106 -88
	21 -141 270 -136 274 52
	-1 175 -106 264 -322 297
	m357 -250
	c0 -36 51 -34 51 0
	0 37 -51 36 -51 0
	m-2 -129
	c0 -36 51 -34 51 0
	0 38 -51 37 -51 0"/>
<use id="bclef" transform="translate(0,18) scale(0.045)"
	xlink:href="#ubclef"/>
</defs>
<use x="23.54" y="165.00" xlink:href="#bclef"/>
<g font-family="serif" font-size="16" font-weight="bold" font-style="normal"
	transform="translate(42.04,182.50) scale(1.2,1)">
	<text text-anchor="middle">8</text>
	<text y="-12" text-anchor="middle">3</text>
</g>
<use x="84.54" y="168.00" xlink:href="#hd"/>
<path d="M81.04 168.00v25.00" class="stroke"/>
<use x="84.54" y="174.00" xlink:href="#hd"/>
<use x="149.04" y="171.00" xlink:href="#r8"/>
<use x="190.94" y="168.00" xlink:href="#hd"/>
<path d="M187.44 168.00v25.00" class="stroke"/>
<use x="190.94" y="174.00" xlink:href="#hd"/>
<use x="245.84" y="171.00" xlink:href="#r8"/>
<use x="287.74" y="177.00" xlink:href="#hd"/>
<path d="M291.24 177.00v-25.00" class="stroke"/>
<use x="287.74" y="171.00" xlink:href="#hd"/>
<use x="354.14" y="171.00" xlink:href="#r8"/>
<use x="396.14" y="162.00" xlink:href="#hd"/>
<path d="M392.64 162.00v25.00" class="stroke"/>
<use x="396.14" y="168.00" xlink:href="#hd"/>
<use x="441.44" y="171.00" xlink:href="#r8"/>
<path class="fill"
	d="M480.94 150.00l56.30 0.00v3.20l-56.30 -0.00"/>
<use x="477.74" y="171.00" xlink:href="#hd"/>
<path d="M481.24 171.00v-20.00" class="stroke"/>
<use x="501.04" y="171.00" xlink:href="#hd"/>
<path d="M504.54 171.00v-20.00" class="stroke"/>
<use x="533.44" y="171.00" xlink:href="#hd"/>
<path d="M536.94 171.00v-20.00" class="stroke"/>
<use x="570.94" y="177.00" xlink:href="#hd"/>
<path d="M574.44 177.00v-25.00" class="stroke"/>
<use x="570.94" y="171.00" xlink:href="#hd"/>
<use x="635.44" y="171.00" xlink:href="#r8"/>
<path class="fill"
	d="M669.44 147.70l65.20 8.20v3.20l-65.20 -8.20"/>
<use x="666.24" y="174.00" xlink:href="#hd"/>
<path d="M669.74 174.00v-25.20" class="stroke"/>
<use x="698.54" y="171.00" xlink:href="#hd"/>
<path d="M702.04 171.00v-18.20" class="stroke"/>
<use x="730.84" y="189.00" xlink:href="#hl"/>
<use x="730.84" y="192.00" xlink:href="#hd"/>
<path d="M734.34 192.00v-35.20" class="stroke"/>
<path class="fill"
	d="M770.74 202.20l73.60 0.00v-3.20l-73.60 -0.00"/>
<path class="fill"
	d="M793.74 197.20l50.30 0.00v-3.20l-50.30 -0.00"/>
<use x="774.64" y="183.00" xlink:href="#hd"/>
<path d="M771.14 183.00v18.20" class="stroke"/>
<use x="797.24" y="162.00" xlink:href="#hd"/>
<path d="M793.74 162.00v39.20" class="stroke"/>
<use x="815.24" y="165.00" xlink:href="#hd"/>
<defs>
<path id="unat" class="fill" d="
	m96 -750
	h-32
	v716
	l32 -8
	182 -54
	v282
	h32
	v-706
	l-34 10
	-180 50
	v-290
	m0 592
	v-190
	l182 -52
	v188"/>
<use id="nt0" transform="translate(-3,5) scale(0.018)"
	xlink:href="#unat"/>
</defs>
<use x="806.24" y="165.00" xlink:href="#nt0"/>
<path d="M811.74 165.00v36.20" class="stroke"/>
<use x="831.34" y="168.00" xlink:href="#hd"/>
<path d="M827.84 168.00v33.20" class="stroke"/>
<use x="847.54" y="171.00" xlink:href="#hd"/>
<path d="M844.04 171.00v30.20" class="stroke"/>
<path class="fill"
	d="M481.94 195.00l56.30 0.00v-3.20l-56.30 -0.00"/>
<use x="485.74" y="174.00" xlink:href="#hd"/>
<path d="M482.24 174.00v20.00" class="stroke"/>
<use x="509.04" y="174.00" xlink:href="#hd"/>
<path d="M505.54 174.00v20.00" class="stroke"/>
<use x="541.44" y="174.00" xlink:href="#hd"/>
<path d="M537.94 174.00v20.00" class="stroke"/>
</g>
<g stroke-width="0.70" transform="scale(0.867)" font-family="Times" font-size="13.00">
<path class="stroke" stroke-width="1"
	d="M11.54 316.00v-82.00"/>
<path class="fill"
	d="M6.54 231.00
	c10.5 1 12 -4.5 12 -3.5c0 1 -3.5 5.5 -8.5 5.5
	v84.00
	c5 0 8.5 4.5 8.5 5.5c0 1 -1.5 -4.5 -12 -3.5"/>
<use x="144.34" y="258.00" xlink:href="#rdots"/>
<path class="stroke" stroke-width="1"
	d="M140.34 258.00v-24.00"/>
<path class="stroke" stroke-width="3"
	d="M135.84 258.00v-24.00"/>
<use x="144.34" y="316.00" xlink:href="#rdots"/>
<path class="stroke" stroke-width="1"
	d="M140.34 316.00v-58.00"/>
<path class="stroke" stroke-width="3"
	d="M135.84 316.00v-58.00"/>
<path class="stroke" stroke-width="1"
	d="M230.94 258.00v-24.00"/>
<path class="stroke" stroke-width="1"
	d="M230.94 316.00v-58.00"/>
<path class="stroke" stroke-width="1"
	d="M320.74 258.00v-24.00"/>
<path class="stroke" stroke-width="1"
	d="M320.74 316.00v-58.00"/>
<path class="stroke" stroke-width="1"
	d="M420.74 258.00v-24.00"/>
<path class="stroke" stroke-width="1"
	d="M420.74 316.00v-58.00"/>
<path class="stroke" stroke-width="1"
	d="M492.04 258.00v-24.00"/>
<path class="stroke" stroke-width="1"
	d="M492.04 316.00v-58.00"/>
<path class="stroke" stroke-width="1"
	d="M582.94 258.00v-24.00"/>
<path class="stroke" stroke-width="1"
	d="M582.94 316.00v-58.00"/>
<path class="stroke" stroke-width="1"
	d="M682.84 258.00v-24.00"/>
<path class="stroke" stroke-width="1"
	d="M682.84 316.00v-58.00"/>
<path class="stroke" stroke-width="1"
	d="M782.84 258.00v-24.00"/>
<path class="stroke" stroke-width="1"
	d="M782.84 316.00v-58.00"/>
<path class="stroke" stroke-width="3"
	d="M860.54 258.00v-24.00"/>
<path class="stroke" stroke-width="1"
	d="M856.04 258.00v-24.00"/>
<use x="852.04" y="258.00" xlink:href="#rdots"/>
<path class="stroke" stroke-width="3"
	d="M860.54 316.00v-58.00"/>
<path class="stroke" stroke-width="1"
	d="M856.04 316.00v-58.00"/>
<use x="852.04" y="316.00" xlink:href="#rdots"/>
<path d="m11.54 258.00
	h850.50
	M11.54 252.00
	h850.50
	M11.54 246.00
	h850.50
	M11.54 240.00
	h850.50
	M11.54 234.00
	h850.50
	" class="stroke"/>
<path d="m11.54 316.00
	h850.50
	M11.54 310.00
	h850.50
	M11.54 304.00
	h850.50
	M11.54 298.00
	h850.50
	M11.54 292.00
	h850.50
	" class="stroke"/>
<text x="47.54" y="219.40">2</text>
<path class="stroke"
	d="M43.54 208.00m0 20v-20h89.80v20"/>
<use x="23.54" y="252.00" xlink:href="#tclef"/>
<use x="56.04" y="231.00" xlink:href="#hd"/>
<path d="M52.54 231.00v40.00" class="stroke"/>
<use x="56.04" y="252.00" xlink:href="#hd"/>
<use x="56.04" y="246.00" xlink:href="#hd"/>
<use x="56.04" y="240.00" xlink:href="#hd"/>
<use x="109.94" y="246.00" xlink:href="#r8"/>
<path class="fill"
	d="M160.04 252.20l43.20 0.00v-3.20l-43.20 -0.00"/>
<use x="163.84" y="234.00" xlink:href="#hd"/>
<use x="154.84" y="234.00" xlink:href="#sh0"/>
<path d="M160.34 234.00v17.20" class="stroke"/>
<use x="185.54" y="228.00" xlink:href="#hl"/>
<use x="185.54" y="228.00" xlink:href="#hd"/>
<path d="M182.04 228.00v23.20" class="stroke"/>
<use x="206.44" y="234.00" xlink:href="#hd"/>
<path d="M202.94 234.00v17.20" class="stroke"/>
<path class="fill"
	d="M239.64 254.00l60.90 0.00v-3.20l-60.90 -0.00"/>
<path class="fill"
	d="M239.94 249.00l45.20 0.00v-3.20l-45.20 -0.00"/>
<use x="243.44" y="231.00" xlink:href="#hd"/>
<path d="M239.94 231.00v21.90" class="stroke"/>
<use x="258.44" y="228.00" xlink:href="#hl"/>
<use x="258.44" y="225.00" xlink:href="#hd"/>
<path d="M254.94 225.00v27.90" class="stroke"/>
<use x="273.54" y="228.00" xlink:href="#hl"/>
<use x="273.54" y="222.00" xlink:href="#hl"/>
<use x="273.54" y="219.00" xlink:href="#hd"/>
<path d="M270.04 219.00v33.90" class="stroke"/>
<use x="288.64" y="228.00" xlink:href="#hl"/>
<use x="288.64" y="225.00" xlink:href="#hd"/>
<path d="M285.14 225.00v27.90" class="stroke"/>
<use x="303.64" y="231.00" xlink:href="#hd"/>
<path d="M300.14 231.00v21.90" class="stroke"/>
<path class="fill"
	d="M329.44 264.20l60.60 7.00v-3.20l-60.60 -7.00"/>
<use x="333.24" y="237.00" xlink:href="#hd"/>
<path d="M329.74 237.00v26.30" class="stroke"/>
<use x="363.24" y="243.00" xlink:href="#hd"/>
<path d="M359.74 243.00v23.70" class="stroke"/>
<use x="393.24" y="252.00" xlink:href="#hd"/>
<path d="M389.74 252.00v18.20" class="stroke"/>
<path class="fill"
	d="M429.34 262.30l21.60 2.40v-3.20l-21.60 -2.40"/>
<use x="433.24" y="237.00" xlink:href="#hd"/>
<path d="M429.74 237.00v24.30" class="stroke"/>
<use x="433.24" y="243.00" xlink:href="#hd"/>
<use x="454.04" y="240.00" xlink:href="#hd"/>
<path d="M450.54 240.00v23.70" class="stroke"/>
<use x="454.04" y="246.00" xlink:href="#hd"/>
<use x="474.94" y="246.00" xlink:href="#r8"/>
<path class="fill"
	d="M500.74 256.30l66.50 9.00v-3.20l-66.50 -9.00"/>
<path class="fill"
	d="M521.94 254.10l45.00 6.10v-3.20l-45.00 -6.10"/>
<use x="504.54" y="231.00" xlink:href="#hd"/>
<path d="M501.04 231.00v24.30" class="stroke"/>
<use x="525.44" y="234.00" xlink:href="#hd"/>
<path d="M521.94 234.00v24.10" class="stroke"/>
<use x="540.44" y="237.00" xlink:href="#hd"/>
<path d="M536.94 237.00v23.20" class="stroke"/>
<use x="555.44" y="240.00" xlink:href="#hd"/>
<path d="M551.94 240.00v22.20" class="stroke"/>
<use x="570.44" y="243.00" xlink:href="#hd"/>
<path d="M566.94 243.00v21.20" class="stroke"/>
<path class="fill"
	d="M591.54 272.80l60.60 -3.30v-3.20l-60.60 3.30"/>
<use x="595.44" y="243.00" xlink:href="#hd"/>
<path d="M591.94 243.00v28.80" class="stroke"/>
<use x="625.44" y="252.00" xlink:href="#hd"/>
<path d="M621.94 252.00v18.20" class="stroke"/>
<use x="655.34" y="237.00" xlink:href="#hd"/>
<path d="M651.84 237.00v31.60" class="stroke"/>
<path class="fill"
	d="M691.54 266.00l75.60 0.00v-3.20l-75.60 -0.00"/>
<path class="fill"
	d="M691.84 261.00l74.90 0.00v-3.20l-74.90 -0.00"/>
<use x="695.34" y="240.00" xlink:href="#hd"/>
<path d="M691.84 240.00v24.90" class="stroke"/>
<use x="710.34" y="234.00" xlink:href="#hd"/>
<path d="M706.84 234.00v30.90" class="stroke"/>
<use x="725.34" y="228.00" xlink:href="#hl"/>
<use x="725.34" y="228.00" xlink:href="#hd"/>
<path d="M721.84 228.00v36.90" class="stroke"/>
<use x="740.34" y="234.00" xlink:href="#hd"/>
<path d="M736.84 234.00v30.90" class="stroke"/>
<use x="755.34" y="240.00" xlink:href="#hd"/>
<path d="M751.84 240.00v24.90" class="stroke"/>
<use x="770.34" y="246.00" xlink:href="#hd"/>
<path d="M766.84 246.00v18.90" class="stroke"/>
<path class="fill"
	d="M798.44 223.70l21.60 7.20v3.20l-21.60 -7.20"/>
<use x="795.34" y="243.00" xlink:href="#hd"/>
<path d="M798.84 243.00v-18.20" class="stroke"/>
<use x="816.14" y="264.00" xlink:href="#hl"/>
<use x="816.14" y="264.00" xlink:href="#hd"/>
<path d="M819.64 264.00v-32.20" class="stroke"/>
<use x="837.04" y="246.00" xlink:href="#r8"/>
<use x="23.54" y="298.00" xlink:href="#bclef"/>
<path class="fill"
	d="M52.24 335.20l69.50 -5.00v-3.20l-69.50 5.00"/>
<path class="fill"
	d="M73.44 328.70l48.00 -3.50v-3.20l-48.00 3.50"/>
<use x="56.04" y="316.00" xlink:href="#hd"/>
<path d="M52.54 316.00v18.20" class="stroke"/>
<use x="76.94" y="289.00" xlink:href="#hd"/>
<path d="M73.44 289.00v43.70" class="stroke"/>
<use x="91.94" y="295.00" xlink:href="#hd"/>
<path d="M88.44 295.00v36.60" class="stroke"/>
<use x="109.94" y="298.00" xlink:href="#hd"/>
<use x="100.94" y="298.00" xlink:href="#sh0"/>
<path d="M106.44 298.00v32.30" class="stroke"/>
<use x="124.84" y="301.00" xlink:href="#hd"/>
<path d="M121.34 301.00v28.20" class="stroke"/>
<path class="fill"
	d="M167.04 272.70l43.20 7.80v3.20l-43.20 -7.80"/>
<use x="163.84" y="292.00" xlink:href="#hd"/>
<path d="M167.34 292.00v-18.20" class="stroke"/>
<use x="185.54" y="298.00" xlink:href="#hd"/>
<use x="176.54" y="298.00" xlink:href="#sh0"/>
<path d="M189.04 298.00v-20.30" class="stroke"/>
<use x="206.44" y="304.00" xlink:href="#hd"/>
<path d="M209.94 304.00v-22.50" class="stroke"/>
<use x="243.44" y="310.00" xlink:href="#hd"/>
<path d="M246.94 310.00v-25.00" class="stroke"/>
<use x="243.44" y="304.00" xlink:href="#hd"/>
<use x="303.64" y="310.00" xlink:href="#hd"/>
<path d="M307.14 310.00v-25.00" class="stroke"/>
<path class="fill"
	d="M307.14 285.00c0.6 5.6 9.6 9 5.6 18.4
	1.6 -6 -1.3 -11.6 -5.6 -12.8
"/>
<use x="303.64" y="304.00" xlink:href="#hd"/>
<path class="fill"
	d="M329.44 323.90l75.60 0.00v-3.20l-75.60 -0.00"/>
<path class="fill"
	d="M329.74 318.90l74.90 0.00v-3.20l-74.90 -0.00"/>
<use x="333.24" y="301.00" xlink:href="#hd"/>
<path d="M329.74 301.00v21.90" class="stroke"/>
<use x="333.24" y="307.00" xlink:href="#hd"/>
<use x="348.24" y="295.00" xlink:href="#hd"/>
<path d="M344.74 295.00v27.90" class="stroke"/>
<use x="363.24" y="301.00" xlink:href="#hd"/>
<path d="M359.74 301.00v21.90" class="stroke"/>
<use x="363.24" y="307.00" xlink:href="#hd"/>
<use x="378.24" y="295.00" xlink:href="#hd"/>
<path d="M374.74 295.00v27.90" class="stroke"/>
<use x="393.24" y="301.00" xlink:href="#hd"/>
<path d="M389.74 301.00v21.90" class="stroke"/>
<use x="393.24" y="307.00" xlink:href="#hd"/>
<use x="408.24" y="295.00" xlink:href="#hd"/>
<path d="M404.74 295.00v27.90" class="stroke"/>
<use x="433.24" y="295.00" xlink:href="#hd"/>
<path d="M429.74 295.00v21.00" class="stroke"/>
<use x="474.94" y="316.00" xlink:href="#hd"/>
<path d="M478.44 316.00v-21.00" class="stroke"/>
<path class="fill"
	d="M478.44 295.00c0.6 5.6 9.6 9 5.6 18.4
	1.6 -6 -1.3 -11.6 -5.6 -12.8
"/>
<use x="504.54" y="301.00" xlink:href="#hd"/>
<path d="M501.04 301.00v25.00" class="stroke"/>
<use x="504.54" y="307.00" xlink:href="#hd"/>
<use x="555.44" y="304.00" xlink:href="#r8"/>
<path class="fill"
	d="M591.54 323.90l75.60 0.00v-3.20l-75.60 -0.00"/>
<path class="fill"
	d="M591.94 318.90l74.90 0.00v-3.20l-74.90 -0.00"/>
<use x="595.44" y="301.00" xlink:href="#hd"/>
<path d="M591.94 301.00v21.90" class="stroke"/>
<use x="595.44" y="307.00" xlink:href="#hd"/>
<use x="610.44" y="295.00" xlink:href="#hd"/>
<path d="M606.94 295.00v27.90" class="stroke"/>
<use x="625.44" y="301.00" xlink:href="#hd"/>
<path d="M621.94 301.00v21.90" class="stroke"/>
<use x="625.44" y="307.00" xlink:href="#hd"/>
<use x="640.34" y="295.00" xlink:href="#hd"/>
<path d="M636.84 295.00v27.90" class="stroke"/>
<use x="655.34" y="301.00" xlink:href="#hd"/>
<path d="M651.84 301.00v21.90" class="stroke"/>
<use x="655.34" y="307.00" xlink:href="#hd"/>
<use x="670.34" y="295.00" xlink:href="#hd"/>
<path d="M666.84 295.00v27.90" class="stroke"/>
<use x="695.34" y="298.00" xlink:href="#hd"/>
<path d="M691.84 298.00v21.00" class="stroke"/>
<use x="755.34" y="295.00" xlink:href="#hd"/>
<path d="M751.84 295.00v21.00" class="stroke"/>
<path class="fill"
	d="M751.84 316.00c0.6 -5.6 9.6 -9 5.6 -18.4
	1.6 6 -1.3 11.6 -5.6 12.8
"/>
<use x="795.34" y="307.00" xlink:href="#hd"/>
<path d="M798.84 307.00v-21.00" class="stroke"/>
<use x="837.04" y="322.00" xlink:href="#hl"/>
<use x="837.04" y="328.00" xlink:href="#hl"/>
<use x="837.04" y="328.00" xlink:href="#hd"/>
<path d="M840.54 328.00v-24.00" class="stroke"/>
<path class="fill"
	d="M840.54 304.00c0.6 5.6 9.6 9 5.6 18.4
	1.6 -6 -1.3 -11.6 -5.6 -12.8
"/>
<path class="fill"
	d="M160.04 326.20l51.20 0.00v-3.20l-51.20 -0.00"/>
<use x="163.84" y="304.00" xlink:href="#hd"/>
<path d="M160.34 304.00v21.20" class="stroke"/>
<use x="185.54" y="304.00" xlink:href="#hd"/>
<path d="M182.04 304.00v21.20" class="stroke"/>
<use x="214.44" y="307.00" xlink:href="#hd"/>
<path d="M210.94 307.00v18.20" class="stroke"/>
</g>
</svg>
