<?xml version="1.0" standalone="no"?>
<!DOCTYPE svg PUBLIC "-//W3C//DTD SVG 1.1//EN"
	"http://www.w3.org/Graphics/SVG/1.1/DTD/svg11.dtd">
<svg xmlns="http://www.w3.org/2000/svg" version="1.1"
	xmlns:xlink="http://www.w3.org/1999/xlink"
	color="black"
	width="757.10px" height="294.68px">
<style type="text/css">
.fill {fill: currentColor}
.stroke {stroke: currentColor; fill: none}
text{white-space: pre}
</style>
<title>./K516f-4-11-7-11-3-4-2-10-12-8-3-9-6-12-12-10.abc (3779) tune 1</title>
<!-- Creator: abcm2ps-8.13.8 -->
<!-- CreationDate: Sep  7, 2017 11:19 -->
<!-- CommandLine: ./K516f-4-11-7-11-3-4-2-10-12-8-3-9-6-12-12-10.abc -O ./K516f-4-11-7-11-3-4-2-10-12-8-3-9-6-12-12-10.svg -g -->
<rect width="100%" height="100%" fill="white"/>
<g stroke-width="0.70" transform="scale(0.867)">
<!-- title: 4-11-7-11-3-4-2-10-12-8-3-9-6-12-12-10 -->
</g>
<g stroke-width="0.70" transform="scale(0.867)" font-family="Times" font-size="20.00">
<text x="436.84" y="22.00" text-anchor="middle">4-11-7-11-3-4-2-10-12-8-3-9-6-12-12-10</text>
</g>
<g stroke-width="0.70" transform="scale(0.867)" font-family="Times" font-size="20.00">
<!-- subtitle: $1K.516f::69:87:27:61:146:55:11:123:35:155:126:166:76:124:44:8::$0 -->
</g>
<g stroke-width="0.70" transform="scale(0.867)" font-family="Courier" font-size="8.00" font-weight="bold">
<text x="436.84" y="41.80" text-anchor="middle">K.516f::69:87:27:61:146:55:11:123:35:155:126:166:76:124:44:8::</text>
</g>
<g stroke-width="0.70" transform="scale(0.867)" font-family="Courier" font-size="8.00" font-weight="bold">
<!-- subtitle: $1Perm. No.: 377938053183287$0 -->
<text x="436.84" y="60.80" text-anchor="middle">Perm. No.: 377938053183287</text>
</g>
<g stroke-width="0.70" transform="scale(0.607)" font-family="Courier" font-size="8.00" font-weight="bold">
<defs>
<ellipse id="hd" rx="4.1" ry="2.9"
	transform="rotate(-20)" class="fill"/>
</defs>
<use x="103.06" y="121.29" xlink:href="#hd"/>
<path d="M106.56 121.29v-21.00" class="stroke"/>
<path class="fill"
	d="M106.56 100.29c0.6 5.6 9.6 9 5.6 18.4
	1.6 -6 -1.3 -11.6 -5.6 -12.8
"/>
</g>
<g stroke-width="0.70" transform="scale(0.867)" font-family="Times" font-size="15.00" font-weight="bold">
<text x="81.24" y="87.00">= 111</text>
<path class="stroke" stroke-width="1"
	d="M11.54 184.00v-82.00"/>
<path class="fill"
	d="M6.54 99.00
	c10.5 1 12 -4.5 12 -3.5c0 1 -3.5 5.5 -8.5 5.5
	v84.00
	c5 0 8.5 4.5 8.5 5.5c0 1 -1.5 -4.5 -12 -3.5"/>
<defs>
<g id="rdots" class="fill">
	<circle cx="0" cy="-9" r="1.2"/>
	<circle cx="0" cy="-15" r="1.2"/>
</g>
</defs>
<use x="70.54" y="126.00" xlink:href="#rdots"/>
<path class="stroke" stroke-width="1"
	d="M66.54 126.00v-24.00"/>
<path class="stroke" stroke-width="3"
	d="M62.04 126.00v-24.00"/>
<use x="70.54" y="184.00" xlink:href="#rdots"/>
<path class="stroke" stroke-width="1"
	d="M66.54 184.00v-58.00"/>
<path class="stroke" stroke-width="3"
	d="M62.04 184.00v-58.00"/>
<path class="stroke" stroke-width="1"
	d="M157.04 126.00v-24.00"/>
<path class="stroke" stroke-width="1"
	d="M157.04 184.00v-58.00"/>
<path class="stroke" stroke-width="1"
	d="M242.44 126.00v-24.00"/>
<path class="stroke" stroke-width="1"
	d="M242.44 184.00v-58.00"/>
<path class="stroke" stroke-width="1"
	d="M361.44 126.00v-24.00"/>
<path class="stroke" stroke-width="1"
	d="M361.44 184.00v-58.00"/>
<path class="stroke" stroke-width="1"
	d="M457.54 126.00v-24.00"/>
<path class="stroke" stroke-width="1"
	d="M457.54 184.00v-58.00"/>
<path class="stroke" stroke-width="1"
	d="M547.24 126.00v-24.00"/>
<path class="stroke" stroke-width="1"
	d="M547.24 184.00v-58.00"/>
<path class="stroke" stroke-width="1"
	d="M632.74 126.00v-24.00"/>
<path class="stroke" stroke-width="1"
	d="M632.74 184.00v-58.00"/>
<path class="stroke" stroke-width="1"
	d="M751.64 126.00v-24.00"/>
<path class="stroke" stroke-width="1"
	d="M751.64 184.00v-58.00"/>
<path class="stroke" stroke-width="3"
	d="M860.54 126.00v-24.00"/>
<path class="stroke" stroke-width="1"
	d="M856.04 126.00v-24.00"/>
<use x="852.04" y="126.00" xlink:href="#rdots"/>
<path class="stroke" stroke-width="3"
	d="M860.54 184.00v-58.00"/>
<path class="stroke" stroke-width="1"
	d="M856.04 184.00v-58.00"/>
<use x="852.04" y="184.00" xlink:href="#rdots"/>
<path d="m11.54 126.00
	h850.50
	M11.54 120.00
	h850.50
	M11.54 114.00
	h850.50
	M11.54 108.00
	h850.50
	M11.54 102.00
	h850.50
	" class="stroke"/>
<path d="m11.54 184.00
	h850.50
	M11.54 178.00
	h850.50
	M11.54 172.00
	h850.50
	M11.54 166.00
	h850.50
	M11.54 160.00
	h850.50
	" class="stroke"/>
<path class="fill"
	d="M89.74 95.40c7.29 -3.07 39.99 2.19 47.28 7.60
	v-0.25c-8.71 -7.16 -38.57 -12.42 -47.28 -7.35"/>
</g>
<g stroke-width="0.70" transform="scale(0.867)" font-family="Times" font-size="13.00">
<text x="755.64" y="87.40">1</text>
<path class="stroke"
	d="M751.64 76.00m0 20v-20h102.40v20"/>
<defs>
<path id="utclef" class="fill" d="m-50 -90
	c-72 -41 -72 -158 52 -188
	150 -10 220 188 90 256
	-114 52 -275 0 -293 -136
	-15 -181 93 -229 220 -334
	88 -87 79 -133 62 -210
	-51 33 -94 105 -89 186
	17 267 36 374 49 574
	6 96 -19 134 -77 135
	-80 1 -126 -93 -61 -133
	85 -41 133 101 31 105
	23 17 92 37 90 -92
	-10 -223 -39 -342 -50 -617
	0 -90 0 -162 96 -232
	56 72 63 230 22 289
	-74 106 -257 168 -255 316
	9 153 148 185 252 133
	86 -65 29 -192 -80 -176
	-71 12 -105 67 -59 124"/>
<use id="tclef" transform="translate(0,6) scale(0.045)"
	xlink:href="#utclef"/>
</defs>
<use x="23.54" y="120.00" xlink:href="#tclef"/>
<g font-family="serif" font-size="16" font-weight="bold" font-style="normal"
	transform="translate(42.04,125.50) scale(1.2,1)">
	<text text-anchor="middle">8</text>
	<text y="-12" text-anchor="middle">3</text>
</g>
<path class="fill"
	d="M81.94 122.00l52.00 8.30v-3.20l-52.00 -8.30"/>
<use x="85.74" y="99.00" xlink:href="#hd"/>
<path d="M82.24 99.00v22.00" class="stroke"/>
<use x="111.44" y="105.00" xlink:href="#hd"/>
<path d="M107.94 105.00v20.10" class="stroke"/>
<use x="137.04" y="111.00" xlink:href="#hd"/>
<path d="M133.54 111.00v18.20" class="stroke"/>
<path class="fill"
	d="M167.44 128.60l52.00 3.20v-3.20l-52.00 -3.20"/>
<use x="171.24" y="99.00" xlink:href="#hd"/>
<path d="M167.74 99.00v28.60" class="stroke"/>
<use x="196.94" y="111.00" xlink:href="#hd"/>
<path d="M193.44 111.00v18.20" class="stroke"/>
<use x="222.54" y="105.00" xlink:href="#hd"/>
<path d="M219.04 105.00v25.80" class="stroke"/>
<path class="fill"
	d="M252.94 130.00l91.30 6.30v-3.20l-91.30 -6.30"/>
<path class="fill"
	d="M253.24 125.00l90.60 6.20v-3.20l-90.60 -6.20"/>
<use x="256.74" y="102.00" xlink:href="#hd"/>
<path d="M253.24 102.00v27.00" class="stroke"/>
<use x="274.84" y="105.00" xlink:href="#hd"/>
<path d="M271.34 105.00v25.20" class="stroke"/>
<use x="292.94" y="102.00" xlink:href="#hd"/>
<path d="M289.44 102.00v29.50" class="stroke"/>
<use x="311.14" y="108.00" xlink:href="#hd"/>
<path d="M307.64 108.00v24.70" class="stroke"/>
<use x="329.24" y="111.00" xlink:href="#hd"/>
<path d="M325.74 111.00v23.00" class="stroke"/>
<use x="347.34" y="114.00" xlink:href="#hd"/>
<path d="M343.84 114.00v21.20" class="stroke"/>
<path class="fill"
	d="M371.84 136.40l62.60 -4.60v-3.20l-62.60 4.60"/>
<path class="fill"
	d="M397.84 129.50l18.10 -1.30v-3.20l-18.10 1.30"/>
<use x="375.64" y="111.00" xlink:href="#hd"/>
<path d="M372.14 111.00v24.40" class="stroke"/>
<use x="401.34" y="105.00" xlink:href="#hd"/>
<path d="M397.84 105.00v28.50" class="stroke"/>
<use x="419.44" y="111.00" xlink:href="#hd"/>
<path d="M415.94 111.00v21.20" class="stroke"/>
<use x="437.54" y="99.00" xlink:href="#hd"/>
<path d="M434.04 99.00v31.90" class="stroke"/>
<path class="fill"
	d="M472.14 140.30l52.00 -8.60v-3.20l-52.00 8.60"/>
<use x="476.04" y="108.00" xlink:href="#hd"/>
<path d="M472.54 108.00v31.20" class="stroke"/>
<use x="476.04" y="123.00" xlink:href="#hd"/>
<defs>
<path id="usharp" class="fill" d="
	m136 -702
	v890
	h32
	v-890
	m128 840
	h32
	v-888
	h-32
	m-232 286
	v116
	l338 -96
	v-116
	m-338 442
	v116
	l338 -98
	v-114"/>
<use id="sh0" transform="translate(-4,5) scale(0.018)"
	xlink:href="#usharp"/>
</defs>
<use x="467.04" y="123.00" xlink:href="#sh0"/>
<use x="501.64" y="102.00" xlink:href="#hd"/>
<use x="492.64" y="102.00" xlink:href="#sh0"/>
<path d="M498.14 102.00v33.00" class="stroke"/>
<use x="501.64" y="108.00" xlink:href="#hd"/>
<defs>
<path id="hl" class="stroke" d="m-6 0h12"/>
</defs>
<use x="527.34" y="96.00" xlink:href="#hl"/>
<use x="527.34" y="96.00" xlink:href="#hd"/>
<path d="M523.84 96.00v34.80" class="stroke"/>
<use x="527.34" y="102.00" xlink:href="#hd"/>
<path class="fill"
	d="M557.64 122.70l52.00 4.50v-3.20l-52.00 -4.50"/>
<use x="561.54" y="99.00" xlink:href="#hd"/>
<path d="M558.04 99.00v22.70" class="stroke"/>
<use x="587.14" y="96.00" xlink:href="#hl"/>
<use x="587.14" y="93.00" xlink:href="#hd"/>
<path d="M583.64 93.00v31.00" class="stroke"/>
<use x="612.74" y="108.00" xlink:href="#hd"/>
<path d="M609.24 108.00v18.20" class="stroke"/>
<path class="fill"
	d="M650.14 82.80l91.30 8.40v3.20l-91.30 -8.40"/>
<path class="fill"
	d="M650.44 87.80l90.60 8.40v3.20l-90.60 -8.40"/>
<use x="646.94" y="105.00" xlink:href="#hd"/>
<path d="M650.44 105.00v-21.20" class="stroke"/>
<use x="665.14" y="111.00" xlink:href="#hd"/>
<path d="M668.64 111.00v-25.50" class="stroke"/>
<use x="683.24" y="114.00" xlink:href="#hd"/>
<path d="M686.74 114.00v-26.80" class="stroke"/>
<use x="701.34" y="117.00" xlink:href="#hd"/>
<path d="M704.84 117.00v-28.20" class="stroke"/>
<use x="719.44" y="120.00" xlink:href="#hd"/>
<path d="M722.94 120.00v-29.50" class="stroke"/>
<use x="737.54" y="123.00" xlink:href="#hd"/>
<use x="728.54" y="123.00" xlink:href="#sh0"/>
<path d="M741.04 123.00v-30.80" class="stroke"/>
<use x="765.94" y="99.00" xlink:href="#hd"/>
<path d="M762.44 99.00v40.00" class="stroke"/>
<use x="765.94" y="120.00" xlink:href="#hd"/>
<use x="765.94" y="114.00" xlink:href="#hd"/>
<use x="765.94" y="108.00" xlink:href="#hd"/>
<defs>
<path id="r8e" class="fill" d="m 0 0
	c-1.5 1.5 -2.4 2 -3.6 2
	2.4 -2.8 -2.8 -4 -2.8 -1.2
	c0 2.7 4.3 2.4 5.9 0.6"/>
<g id="r8">
	<path d="m3.3 -4l-3.4 9.6" class="stroke"/>
	<use x="3.4" y="-4" xlink:href="#r8e"/>
</g>
</defs>
<use x="827.84" y="114.00" xlink:href="#r8"/>
<defs>
<path id="ubclef" class="fill" d="m-200 -87
	c124 -35 222 -78 254 -236
	43 -228 -167 -246 -192 -103
	59 -80 157 22 92 78
	-62 47 -115 -22 -106 -88
	21 -141 270 -136 274 52
	-1 175 -106 264 -322 297
	m357 -250
	c0 -36 51 -34 51 0
	0 37 -51 36 -51 0
	m-2 -129
	c0 -36 51 -34 51 0
	0 38 -51 37 -51 0"/>
<use id="bclef" transform="translate(0,18) scale(0.045)"
	xlink:href="#ubclef"/>
</defs>
<use x="23.54" y="166.00" xlink:href="#bclef"/>
<g font-family="serif" font-size="16" font-weight="bold" font-style="normal"
	transform="translate(42.04,183.50) scale(1.2,1)">
	<text text-anchor="middle">8</text>
	<text y="-12" text-anchor="middle">3</text>
</g>
<use x="85.74" y="169.00" xlink:href="#hd"/>
<path d="M82.24 169.00v25.00" class="stroke"/>
<use x="85.74" y="175.00" xlink:href="#hd"/>
<use x="137.04" y="172.00" xlink:href="#r8"/>
<use x="171.24" y="169.00" xlink:href="#hd"/>
<path d="M167.74 169.00v25.00" class="stroke"/>
<use x="171.24" y="175.00" xlink:href="#hd"/>
<use x="222.54" y="163.00" xlink:href="#hd"/>
<path d="M219.04 163.00v31.00" class="stroke"/>
<path class="fill"
	d="M219.04 194.00c0.6 -5.6 9.6 -9 5.6 -18.4
	1.6 6 -1.3 11.6 -5.6 12.8
"/>
<use x="222.54" y="175.00" xlink:href="#hd"/>
<use x="256.74" y="157.00" xlink:href="#hd"/>
<path d="M253.24 157.00v25.00" class="stroke"/>
<use x="256.74" y="163.00" xlink:href="#hd"/>
<use x="329.24" y="172.00" xlink:href="#r8"/>
<use x="375.64" y="163.00" xlink:href="#hd"/>
<path d="M372.14 163.00v25.00" class="stroke"/>
<use x="375.64" y="169.00" xlink:href="#hd"/>
<use x="437.54" y="172.00" xlink:href="#r8"/>
<path class="fill"
	d="M479.14 154.00l52.00 0.00v3.20l-52.00 -0.00"/>
<use x="476.04" y="175.00" xlink:href="#hd"/>
<path d="M479.54 175.00v-20.00" class="stroke"/>
<use x="501.64" y="175.00" xlink:href="#hd"/>
<path d="M505.14 175.00v-20.00" class="stroke"/>
<use x="527.34" y="175.00" xlink:href="#hd"/>
<path d="M530.84 175.00v-20.00" class="stroke"/>
<use x="561.54" y="178.00" xlink:href="#hd"/>
<path d="M565.04 178.00v-25.00" class="stroke"/>
<use x="561.54" y="172.00" xlink:href="#hd"/>
<use x="612.74" y="172.00" xlink:href="#r8"/>
<path class="fill"
	d="M650.14 148.60l73.20 8.40v3.20l-73.20 -8.40"/>
<use x="646.94" y="175.00" xlink:href="#hd"/>
<path d="M650.44 175.00v-25.40" class="stroke"/>
<use x="683.24" y="172.00" xlink:href="#hd"/>
<path d="M686.74 172.00v-18.20" class="stroke"/>
<use x="719.44" y="190.00" xlink:href="#hl"/>
<use x="719.44" y="193.00" xlink:href="#hd"/>
<path d="M722.94 193.00v-35.00" class="stroke"/>
<path class="fill"
	d="M762.04 203.20l80.70 0.00v-3.20l-80.70 -0.00"/>
<path class="fill"
	d="M788.04 198.20l54.40 0.00v-3.20l-54.40 -0.00"/>
<use x="765.94" y="184.00" xlink:href="#hd"/>
<path d="M762.44 184.00v18.20" class="stroke"/>
<use x="791.54" y="163.00" xlink:href="#hd"/>
<path d="M788.04 163.00v39.20" class="stroke"/>
<use x="809.64" y="166.00" xlink:href="#hd"/>
<defs>
<path id="unat" class="fill" d="
	m96 -750
	h-32
	v716
	l32 -8
	182 -54
	v282
	h32
	v-706
	l-34 10
	-180 50
	v-290
	m0 592
	v-190
	l182 -52
	v188"/>
<use id="nt0" transform="translate(-3,5) scale(0.018)"
	xlink:href="#unat"/>
</defs>
<use x="800.64" y="166.00" xlink:href="#nt0"/>
<path d="M806.14 166.00v36.20" class="stroke"/>
<use x="827.84" y="169.00" xlink:href="#hd"/>
<path d="M824.34 169.00v33.20" class="stroke"/>
<use x="845.94" y="172.00" xlink:href="#hd"/>
<path d="M842.44 172.00v30.20" class="stroke"/>
</g>
<g stroke-width="0.70" transform="scale(0.867)" font-family="Times" font-size="13.00">
<path class="stroke" stroke-width="1"
	d="M11.54 317.01v-82.00"/>
<path class="fill"
	d="M6.54 232.01
	c10.5 1 12 -4.5 12 -3.5c0 1 -3.5 5.5 -8.5 5.5
	v84.00
	c5 0 8.5 4.5 8.5 5.5c0 1 -1.5 -4.5 -12 -3.5"/>
<use x="145.64" y="259.01" xlink:href="#rdots"/>
<path class="stroke" stroke-width="1"
	d="M141.64 259.01v-24.00"/>
<path class="stroke" stroke-width="3"
	d="M137.14 259.01v-24.00"/>
<use x="145.64" y="317.01" xlink:href="#rdots"/>
<path class="stroke" stroke-width="1"
	d="M141.64 317.01v-58.00"/>
<path class="stroke" stroke-width="3"
	d="M137.14 317.01v-58.00"/>
<path class="stroke" stroke-width="1"
	d="M225.54 259.01v-24.00"/>
<path class="stroke" stroke-width="1"
	d="M225.54 317.01v-58.00"/>
<path class="stroke" stroke-width="1"
	d="M327.14 259.01v-24.00"/>
<path class="stroke" stroke-width="1"
	d="M327.14 317.01v-58.00"/>
<path class="stroke" stroke-width="1"
	d="M428.74 259.01v-24.00"/>
<path class="stroke" stroke-width="1"
	d="M428.74 317.01v-58.00"/>
<path class="stroke" stroke-width="1"
	d="M519.54 259.01v-24.00"/>
<path class="stroke" stroke-width="1"
	d="M519.54 317.01v-58.00"/>
<path class="stroke" stroke-width="1"
	d="M621.24 259.01v-24.00"/>
<path class="stroke" stroke-width="1"
	d="M621.24 317.01v-58.00"/>
<path class="stroke" stroke-width="1"
	d="M693.64 259.01v-24.00"/>
<path class="stroke" stroke-width="1"
	d="M693.64 317.01v-58.00"/>
<path class="stroke" stroke-width="1"
	d="M786.14 259.01v-24.00"/>
<path class="stroke" stroke-width="1"
	d="M786.14 317.01v-58.00"/>
<path class="stroke" stroke-width="3"
	d="M860.54 259.01v-24.00"/>
<path class="stroke" stroke-width="1"
	d="M856.04 259.01v-24.00"/>
<use x="852.04" y="259.01" xlink:href="#rdots"/>
<path class="stroke" stroke-width="3"
	d="M860.54 317.01v-58.00"/>
<path class="stroke" stroke-width="1"
	d="M856.04 317.01v-58.00"/>
<use x="852.04" y="317.01" xlink:href="#rdots"/>
<path d="m11.54 259.01
	h850.50
	M11.54 253.01
	h850.50
	M11.54 247.01
	h850.50
	M11.54 241.01
	h850.50
	M11.54 235.01
	h850.50
	" class="stroke"/>
<path d="m11.54 317.01
	h850.50
	M11.54 311.01
	h850.50
	M11.54 305.01
	h850.50
	M11.54 299.01
	h850.50
	M11.54 293.01
	h850.50
	" class="stroke"/>
<text x="47.54" y="220.41">2</text>
<path class="stroke"
	d="M43.54 209.01m0 20v-20h91.10v20"/>
<use x="23.54" y="253.01" xlink:href="#tclef"/>
<use x="56.04" y="232.01" xlink:href="#hd"/>
<path d="M52.54 232.01v40.00" class="stroke"/>
<use x="56.04" y="253.01" xlink:href="#hd"/>
<use x="56.04" y="247.01" xlink:href="#hd"/>
<use x="56.04" y="241.01" xlink:href="#hd"/>
<use x="110.84" y="247.01" xlink:href="#r8"/>
<path class="fill"
	d="M161.34 269.21l44.10 -6.50v-3.20l-44.10 6.50"/>
<use x="165.14" y="250.01" xlink:href="#hd"/>
<path d="M161.64 250.01v18.20" class="stroke"/>
<use x="186.64" y="241.01" xlink:href="#hd"/>
<path d="M183.14 241.01v24.10" class="stroke"/>
<use x="208.54" y="235.01" xlink:href="#hd"/>
<use x="199.54" y="235.01" xlink:href="#sh0"/>
<path d="M205.04 235.01v26.80" class="stroke"/>
<path class="fill"
	d="M234.24 264.31l77.30 11.00v-3.20l-77.30 -11.00"/>
<path class="fill"
	d="M234.54 259.31l76.60 10.90v-3.20l-76.60 -10.90"/>
<use x="238.04" y="232.01" xlink:href="#hd"/>
<path d="M234.54 232.01v31.30" class="stroke"/>
<use x="253.34" y="229.01" xlink:href="#hl"/>
<use x="253.34" y="226.01" xlink:href="#hd"/>
<path d="M249.84 226.01v39.50" class="stroke"/>
<use x="268.74" y="232.01" xlink:href="#hd"/>
<path d="M265.24 232.01v35.70" class="stroke"/>
<use x="284.04" y="241.01" xlink:href="#hd"/>
<path d="M280.54 241.01v28.90" class="stroke"/>
<use x="299.34" y="247.01" xlink:href="#hd"/>
<path d="M295.84 247.01v25.00" class="stroke"/>
<use x="314.64" y="253.01" xlink:href="#hd"/>
<path d="M311.14 253.01v21.20" class="stroke"/>
<path class="fill"
	d="M335.84 275.21l77.30 0.00v-3.20l-77.30 -0.00"/>
<path class="fill"
	d="M336.14 270.21l76.60 0.00v-3.20l-76.60 -0.00"/>
<use x="339.64" y="244.01" xlink:href="#hd"/>
<path d="M336.14 244.01v30.20" class="stroke"/>
<use x="354.94" y="253.01" xlink:href="#hd"/>
<path d="M351.44 253.01v21.20" class="stroke"/>
<use x="370.24" y="244.01" xlink:href="#hd"/>
<path d="M366.74 244.01v30.20" class="stroke"/>
<use x="385.64" y="238.01" xlink:href="#hd"/>
<path d="M382.14 238.01v36.20" class="stroke"/>
<use x="400.94" y="232.01" xlink:href="#hd"/>
<path d="M397.44 232.01v42.20" class="stroke"/>
<use x="416.24" y="238.01" xlink:href="#hd"/>
<path d="M412.74 238.01v36.20" class="stroke"/>
<use x="416.24" y="244.01" xlink:href="#hd"/>
<path class="fill"
	d="M437.44 263.21l61.90 5.40v-3.20l-61.90 -5.40"/>
<path class="fill"
	d="M437.74 258.21l46.00 4.00v-3.20l-46.00 -4.00"/>
<use x="441.24" y="241.01" xlink:href="#hd"/>
<path d="M437.74 241.01v21.20" class="stroke"/>
<use x="456.54" y="229.01" xlink:href="#hl"/>
<use x="456.54" y="226.01" xlink:href="#hd"/>
<path d="M453.04 226.01v37.50" class="stroke"/>
<use x="471.84" y="232.01" xlink:href="#hd"/>
<path d="M468.34 232.01v32.90" class="stroke"/>
<use x="487.14" y="241.01" xlink:href="#hd"/>
<path d="M483.64 241.01v25.20" class="stroke"/>
<use x="502.54" y="247.01" xlink:href="#hd"/>
<path d="M499.04 247.01v20.50" class="stroke"/>
<path class="fill"
	d="M528.14 256.81l77.40 9.40v-3.20l-77.40 -9.40"/>
<path class="fill"
	d="M528.54 251.91l76.70 9.30v-3.20l-76.70 -9.30"/>
<use x="532.04" y="229.01" xlink:href="#hl"/>
<use x="532.04" y="223.01" xlink:href="#hl"/>
<use x="532.04" y="223.01" xlink:href="#hd"/>
<path d="M528.54 223.01v32.90" class="stroke"/>
<use x="547.44" y="229.01" xlink:href="#hl"/>
<use x="547.44" y="226.01" xlink:href="#hd"/>
<path d="M543.94 226.01v31.70" class="stroke"/>
<use x="562.84" y="229.01" xlink:href="#hl"/>
<use x="562.84" y="223.01" xlink:href="#hl"/>
<use x="562.84" y="223.01" xlink:href="#hd"/>
<path d="M559.34 223.01v36.60" class="stroke"/>
<use x="578.14" y="232.01" xlink:href="#hd"/>
<path d="M574.64 232.01v29.50" class="stroke"/>
<use x="593.44" y="238.01" xlink:href="#hd"/>
<path d="M589.94 238.01v25.30" class="stroke"/>
<use x="608.74" y="244.01" xlink:href="#hd"/>
<path d="M605.24 244.01v21.20" class="stroke"/>
<path class="fill"
	d="M636.94 225.01l43.60 0.00v3.20l-43.60 -0.00"/>
<use x="633.74" y="259.01" xlink:href="#hd"/>
<path d="M637.24 259.01v-33.00" class="stroke"/>
<use x="633.74" y="244.01" xlink:href="#hd"/>
<use x="655.24" y="259.01" xlink:href="#hd"/>
<path d="M658.74 259.01v-33.00" class="stroke"/>
<use x="655.24" y="244.01" xlink:href="#hd"/>
<use x="676.64" y="259.01" xlink:href="#hd"/>
<path d="M680.14 259.01v-33.00" class="stroke"/>
<use x="676.64" y="244.01" xlink:href="#hd"/>
<path class="fill"
	d="M702.34 269.21l68.10 -8.10v-3.20l-68.10 8.10"/>
<path class="fill"
	d="M724.14 261.61l46.00 -5.50v-3.20l-46.00 5.50"/>
<use x="706.14" y="250.01" xlink:href="#hd"/>
<path d="M702.64 250.01v18.20" class="stroke"/>
<use x="727.64" y="235.01" xlink:href="#hd"/>
<path d="M724.14 235.01v30.60" class="stroke"/>
<use x="742.94" y="241.01" xlink:href="#hd"/>
<path d="M739.44 241.01v22.80" class="stroke"/>
<use x="758.24" y="229.01" xlink:href="#hl"/>
<use x="758.24" y="229.01" xlink:href="#hd"/>
<path d="M754.74 229.01v33.00" class="stroke"/>
<use x="773.64" y="232.01" xlink:href="#hd"/>
<path d="M770.14 232.01v28.10" class="stroke"/>
<use x="798.64" y="244.01" xlink:href="#hd"/>
<path d="M795.14 244.01v21.00" class="stroke"/>
<use x="841.54" y="247.01" xlink:href="#r8"/>
<use x="23.54" y="299.01" xlink:href="#bclef"/>
<path class="fill"
	d="M52.24 336.21l70.80 -5.10v-3.20l-70.80 5.10"/>
<path class="fill"
	d="M74.04 329.71l48.60 -3.50v-3.20l-48.60 3.50"/>
<use x="56.04" y="317.01" xlink:href="#hd"/>
<path d="M52.54 317.01v18.20" class="stroke"/>
<use x="77.54" y="290.01" xlink:href="#hd"/>
<path d="M74.04 290.01v43.70" class="stroke"/>
<use x="92.84" y="296.01" xlink:href="#hd"/>
<path d="M89.34 296.01v36.60" class="stroke"/>
<use x="110.84" y="299.01" xlink:href="#hd"/>
<use x="101.84" y="299.01" xlink:href="#sh0"/>
<path d="M107.34 299.01v32.30" class="stroke"/>
<use x="126.14" y="302.01" xlink:href="#hd"/>
<path d="M122.64 302.01v28.20" class="stroke"/>
<use x="165.14" y="299.01" xlink:href="#hd"/>
<use x="156.14" y="299.01" xlink:href="#sh0"/>
<path d="M161.64 299.01v25.00" class="stroke"/>
<use x="165.14" y="305.01" xlink:href="#hd"/>
<use x="208.54" y="293.01" xlink:href="#hd"/>
<path d="M205.04 293.01v34.00" class="stroke"/>
<path class="fill"
	d="M205.04 327.01c0.6 -5.6 9.6 -9 5.6 -18.4
	1.6 6 -1.3 11.6 -5.6 12.8
"/>
<use x="208.54" y="308.01" xlink:href="#hd"/>
<use x="238.04" y="311.01" xlink:href="#hd"/>
<path d="M241.54 311.01v-25.00" class="stroke"/>
<use x="238.04" y="305.01" xlink:href="#hd"/>
<use x="299.34" y="305.01" xlink:href="#r8"/>
<use x="339.64" y="302.01" xlink:href="#hd"/>
<path d="M336.14 302.01v21.00" class="stroke"/>
<path class="fill"
	d="M397.04 326.81l16.00 3.50v-3.20l-16.00 -3.50"/>
<path class="fill"
	d="M397.44 321.81l15.30 3.40v-3.20l-15.30 -3.40"/>
<use x="400.94" y="302.01" xlink:href="#hd"/>
<path d="M397.44 302.01v23.80" class="stroke"/>
<use x="416.24" y="308.01" xlink:href="#hd"/>
<path d="M412.74 308.01v21.20" class="stroke"/>
<use x="441.24" y="290.01" xlink:href="#hd"/>
<path d="M437.74 290.01v25.00" class="stroke"/>
<use x="441.24" y="296.01" xlink:href="#hd"/>
<use x="502.54" y="305.01" xlink:href="#r8"/>
<use x="532.04" y="302.01" xlink:href="#hd"/>
<path d="M528.54 302.01v25.00" class="stroke"/>
<use x="532.04" y="308.01" xlink:href="#hd"/>
<use x="593.44" y="296.01" xlink:href="#hd"/>
<path d="M589.94 296.01v31.00" class="stroke"/>
<path class="fill"
	d="M589.94 327.01c0.6 -5.6 9.6 -9 5.6 -18.4
	1.6 6 -1.3 11.6 -5.6 12.8
"/>
<use x="593.44" y="308.01" xlink:href="#hd"/>
<path class="fill"
	d="M636.94 287.01l43.60 0.00v3.20l-43.60 -0.00"/>
<use x="633.74" y="308.01" xlink:href="#hd"/>
<path d="M637.24 308.01v-20.00" class="stroke"/>
<use x="655.24" y="308.01" xlink:href="#hd"/>
<path d="M658.74 308.01v-20.00" class="stroke"/>
<use x="676.64" y="308.01" xlink:href="#hd"/>
<path d="M680.14 308.01v-20.00" class="stroke"/>
<use x="706.14" y="299.01" xlink:href="#hd"/>
<path d="M702.64 299.01v21.00" class="stroke"/>
<use x="758.24" y="296.01" xlink:href="#hd"/>
<path d="M754.74 296.01v21.00" class="stroke"/>
<path class="fill"
	d="M754.74 317.01c0.6 -5.6 9.6 -9 5.6 -18.4
	1.6 6 -1.3 11.6 -5.6 12.8
"/>
<path class="fill"
	d="M801.74 288.71l43.60 9.90v3.20l-43.60 -9.90"/>
<use x="798.64" y="308.01" xlink:href="#hd"/>
<path d="M802.14 308.01v-18.20" class="stroke"/>
<use x="820.04" y="317.01" xlink:href="#hd"/>
<path d="M823.54 317.01v-22.30" class="stroke"/>
<use x="841.54" y="323.01" xlink:href="#hl"/>
<use x="841.54" y="329.01" xlink:href="#hl"/>
<use x="841.54" y="329.01" xlink:href="#hd"/>
<path d="M845.04 329.01v-29.40" class="stroke"/>
</g>
</svg>
