<?xml version="1.0" standalone="no"?>
<!DOCTYPE svg PUBLIC "-//W3C//DTD SVG 1.1//EN"
	"http://www.w3.org/Graphics/SVG/1.1/DTD/svg11.dtd">
<svg xmlns="http://www.w3.org/2000/svg" version="1.1"
	xmlns:xlink="http://www.w3.org/1999/xlink"
	color="black"
	width="757.10px" height="296.40px">
<style type="text/css">
.fill {fill: currentColor}
.stroke {stroke: currentColor; fill: none}
text{white-space: pre}
</style>
<title>./K516f-10-11-8-7-3-8-3-3-4-6-7-6-11-12-12-3.abc (3792) tune 1</title>
<!-- Creator: abcm2ps-8.13.8 -->
<!-- CreationDate: Sep  7, 2017 11:18 -->
<!-- CommandLine: ./K516f-10-11-8-7-3-8-3-3-4-6-7-6-11-12-12-3.abc -O ./K516f-10-11-8-7-3-8-3-3-4-6-7-6-11-12-12-3.svg -g -->
<rect width="100%" height="100%" fill="white"/>
<g stroke-width="0.70" transform="scale(0.867)">
<!-- title: 10-11-8-7-3-8-3-3-4-6-7-6-11-12-12-3 -->
</g>
<g stroke-width="0.70" transform="scale(0.867)" font-family="Times" font-size="20.00">
<text x="436.84" y="22.00" text-anchor="middle">10-11-8-7-3-8-3-3-4-6-7-6-11-12-12-3</text>
</g>
<g stroke-width="0.70" transform="scale(0.867)" font-family="Times" font-size="20.00">
<!-- subtitle: $1K.516f::98:87:171:167:146:133:134:81:66:143:150:125:144:124:44:83::$0 -->
</g>
<g stroke-width="0.70" transform="scale(0.867)" font-family="Courier" font-size="8.00" font-weight="bold">
<text x="436.84" y="41.80" text-anchor="middle">K.516f::98:87:171:167:146:133:134:81:66:143:150:125:144:124:44:83::</text>
</g>
<g stroke-width="0.70" transform="scale(0.867)" font-family="Courier" font-size="8.00" font-weight="bold">
<!-- subtitle: $1Perm. No.: 379295648848741$0 -->
<text x="436.84" y="60.80" text-anchor="middle">Perm. No.: 379295648848741</text>
</g>
<g stroke-width="0.70" transform="scale(0.607)" font-family="Courier" font-size="8.00" font-weight="bold">
<defs>
<ellipse id="hd" rx="4.1" ry="2.9"
	transform="rotate(-20)" class="fill"/>
</defs>
<use x="103.06" y="121.29" xlink:href="#hd"/>
<path d="M106.56 121.29v-21.00" class="stroke"/>
<path class="fill"
	d="M106.56 100.29c0.6 5.6 9.6 9 5.6 18.4
	1.6 -6 -1.3 -11.6 -5.6 -12.8
"/>
</g>
<g stroke-width="0.70" transform="scale(0.867)" font-family="Times" font-size="15.00" font-weight="bold">
<text x="81.24" y="87.00">= 111</text>
<path class="stroke" stroke-width="1"
	d="M11.54 183.00v-82.00"/>
<path class="fill"
	d="M6.54 98.00
	c10.5 1 12 -4.5 12 -3.5c0 1 -3.5 5.5 -8.5 5.5
	v84.00
	c5 0 8.5 4.5 8.5 5.5c0 1 -1.5 -4.5 -12 -3.5"/>
<defs>
<g id="rdots" class="fill">
	<circle cx="0" cy="-9" r="1.2"/>
	<circle cx="0" cy="-15" r="1.2"/>
</g>
</defs>
<use x="70.54" y="125.00" xlink:href="#rdots"/>
<path class="stroke" stroke-width="1"
	d="M66.54 125.00v-24.00"/>
<path class="stroke" stroke-width="3"
	d="M62.04 125.00v-24.00"/>
<use x="70.54" y="183.00" xlink:href="#rdots"/>
<path class="stroke" stroke-width="1"
	d="M66.54 183.00v-58.00"/>
<path class="stroke" stroke-width="3"
	d="M62.04 183.00v-58.00"/>
<path class="stroke" stroke-width="1"
	d="M182.14 125.00v-24.00"/>
<path class="stroke" stroke-width="1"
	d="M182.14 183.00v-58.00"/>
<path class="stroke" stroke-width="1"
	d="M261.44 125.00v-24.00"/>
<path class="stroke" stroke-width="1"
	d="M261.44 183.00v-58.00"/>
<path class="stroke" stroke-width="1"
	d="M372.04 125.00v-24.00"/>
<path class="stroke" stroke-width="1"
	d="M372.04 183.00v-58.00"/>
<path class="stroke" stroke-width="1"
	d="M461.24 125.00v-24.00"/>
<path class="stroke" stroke-width="1"
	d="M461.24 183.00v-58.00"/>
<path class="stroke" stroke-width="1"
	d="M545.94 125.00v-24.00"/>
<path class="stroke" stroke-width="1"
	d="M545.94 183.00v-58.00"/>
<path class="stroke" stroke-width="1"
	d="M646.54 125.00v-24.00"/>
<path class="stroke" stroke-width="1"
	d="M646.54 183.00v-58.00"/>
<path class="stroke" stroke-width="1"
	d="M758.34 125.00v-24.00"/>
<path class="stroke" stroke-width="1"
	d="M758.34 183.00v-58.00"/>
<path class="stroke" stroke-width="3"
	d="M860.54 125.00v-24.00"/>
<path class="stroke" stroke-width="1"
	d="M856.04 125.00v-24.00"/>
<use x="852.04" y="125.00" xlink:href="#rdots"/>
<path class="stroke" stroke-width="3"
	d="M860.54 183.00v-58.00"/>
<path class="stroke" stroke-width="1"
	d="M856.04 183.00v-58.00"/>
<use x="852.04" y="183.00" xlink:href="#rdots"/>
<path d="m11.54 125.00
	h850.50
	M11.54 119.00
	h850.50
	M11.54 113.00
	h850.50
	M11.54 107.00
	h850.50
	M11.54 101.00
	h850.50
	" class="stroke"/>
<path d="m11.54 183.00
	h850.50
	M11.54 177.00
	h850.50
	M11.54 171.00
	h850.50
	M11.54 165.00
	h850.50
	M11.54 159.00
	h850.50
	" class="stroke"/>
</g>
<g stroke-width="0.70" transform="scale(0.867)" font-family="Times" font-size="13.00">
<text x="762.34" y="86.40">1</text>
<path class="stroke"
	d="M758.34 75.00m0 20v-20h95.70v20"/>
<defs>
<path id="utclef" class="fill" d="m-50 -90
	c-72 -41 -72 -158 52 -188
	150 -10 220 188 90 256
	-114 52 -275 0 -293 -136
	-15 -181 93 -229 220 -334
	88 -87 79 -133 62 -210
	-51 33 -94 105 -89 186
	17 267 36 374 49 574
	6 96 -19 134 -77 135
	-80 1 -126 -93 -61 -133
	85 -41 133 101 31 105
	23 17 92 37 90 -92
	-10 -223 -39 -342 -50 -617
	0 -90 0 -162 96 -232
	56 72 63 230 22 289
	-74 106 -257 168 -255 316
	9 153 148 185 252 133
	86 -65 29 -192 -80 -176
	-71 12 -105 67 -59 124"/>
<use id="tclef" transform="translate(0,6) scale(0.045)"
	xlink:href="#utclef"/>
</defs>
<use x="23.54" y="119.00" xlink:href="#tclef"/>
<g font-family="serif" font-size="16" font-weight="bold" font-style="normal"
	transform="translate(42.04,124.50) scale(1.2,1)">
	<text text-anchor="middle">8</text>
	<text y="-12" text-anchor="middle">3</text>
</g>
<path class="fill"
	d="M81.04 139.80l67.90 -3.30v-3.20l-67.90 3.30"/>
<use x="84.84" y="110.00" xlink:href="#hd"/>
<path d="M81.34 110.00v28.80" class="stroke"/>
<use x="118.54" y="119.00" xlink:href="#hd"/>
<path d="M115.04 119.00v18.20" class="stroke"/>
<use x="152.14" y="104.00" xlink:href="#hd"/>
<path d="M148.64 104.00v31.60" class="stroke"/>
<path class="fill"
	d="M191.64 127.60l48.10 3.20v-3.20l-48.10 -3.20"/>
<use x="195.44" y="98.00" xlink:href="#hd"/>
<path d="M191.94 98.00v28.60" class="stroke"/>
<use x="219.14" y="110.00" xlink:href="#hd"/>
<path d="M215.64 110.00v18.20" class="stroke"/>
<use x="242.84" y="104.00" xlink:href="#hd"/>
<path d="M239.34 104.00v25.80" class="stroke"/>
<path class="fill"
	d="M270.94 133.00l84.70 0.00v-3.20l-84.70 -0.00"/>
<path class="fill"
	d="M271.24 128.00l84.10 0.00v-3.20l-84.10 -0.00"/>
<use x="274.74" y="113.00" xlink:href="#hd"/>
<path d="M271.24 113.00v18.90" class="stroke"/>
<use x="291.54" y="110.00" xlink:href="#hd"/>
<path d="M288.04 110.00v21.90" class="stroke"/>
<use x="308.34" y="107.00" xlink:href="#hd"/>
<path d="M304.84 107.00v24.90" class="stroke"/>
<use x="325.24" y="104.00" xlink:href="#hd"/>
<path d="M321.74 104.00v27.90" class="stroke"/>
<use x="342.04" y="101.00" xlink:href="#hd"/>
<path d="M338.54 101.00v30.90" class="stroke"/>
<use x="358.84" y="107.00" xlink:href="#hd"/>
<path d="M355.34 107.00v24.90" class="stroke"/>
<path class="fill"
	d="M381.54 133.00l58.00 0.00v-3.20l-58.00 -0.00"/>
<path class="fill"
	d="M405.54 128.00l16.80 0.00v-3.20l-16.80 -0.00"/>
<use x="385.34" y="110.00" xlink:href="#hd"/>
<path d="M381.84 110.00v21.90" class="stroke"/>
<use x="409.04" y="110.00" xlink:href="#hd"/>
<path d="M405.54 110.00v21.90" class="stroke"/>
<use x="425.84" y="107.00" xlink:href="#hd"/>
<path d="M422.34 107.00v24.90" class="stroke"/>
<use x="442.64" y="104.00" xlink:href="#hd"/>
<path d="M439.14 104.00v27.90" class="stroke"/>
<path class="fill"
	d="M475.94 139.30l48.30 -8.40v-3.20l-48.30 8.40"/>
<use x="479.74" y="107.00" xlink:href="#hd"/>
<path d="M476.24 107.00v31.20" class="stroke"/>
<use x="479.74" y="122.00" xlink:href="#hd"/>
<defs>
<path id="usharp" class="fill" d="
	m136 -702
	v890
	h32
	v-890
	m128 840
	h32
	v-888
	h-32
	m-232 286
	v116
	l338 -96
	v-116
	m-338 442
	v116
	l338 -98
	v-114"/>
<use id="sh0" transform="translate(-4,5) scale(0.018)"
	xlink:href="#usharp"/>
</defs>
<use x="470.74" y="122.00" xlink:href="#sh0"/>
<use x="503.64" y="101.00" xlink:href="#hd"/>
<use x="494.64" y="101.00" xlink:href="#sh0"/>
<path d="M500.14 101.00v33.10" class="stroke"/>
<use x="503.64" y="107.00" xlink:href="#hd"/>
<defs>
<path id="hl" class="stroke" d="m-6 0h12"/>
</defs>
<use x="527.34" y="95.00" xlink:href="#hl"/>
<use x="527.34" y="95.00" xlink:href="#hd"/>
<path d="M523.84 95.00v35.00" class="stroke"/>
<use x="527.34" y="101.00" xlink:href="#hd"/>
<path class="fill"
	d="M555.44 135.20l74.80 0.00v-3.20l-74.80 -0.00"/>
<path class="fill"
	d="M579.44 130.20l50.40 0.00v-3.20l-50.40 -0.00"/>
<use x="559.24" y="107.00" xlink:href="#hd"/>
<path d="M555.74 107.00v27.20" class="stroke"/>
<use x="582.94" y="98.00" xlink:href="#hd"/>
<path d="M579.44 98.00v36.20" class="stroke"/>
<use x="599.74" y="107.00" xlink:href="#hd"/>
<path d="M596.24 107.00v27.20" class="stroke"/>
<use x="616.54" y="113.00" xlink:href="#hd"/>
<path d="M613.04 113.00v21.20" class="stroke"/>
<use x="633.34" y="107.00" xlink:href="#hd"/>
<path d="M629.84 107.00v27.20" class="stroke"/>
<path class="fill"
	d="M656.04 140.20l85.90 0.00v-3.20l-85.90 -0.00"/>
<path class="fill"
	d="M656.44 135.20l85.20 0.00v-3.20l-85.20 -0.00"/>
<use x="659.94" y="116.00" xlink:href="#hd"/>
<path d="M656.44 116.00v23.20" class="stroke"/>
<use x="676.74" y="104.00" xlink:href="#hd"/>
<path d="M673.24 104.00v35.20" class="stroke"/>
<use x="693.54" y="107.00" xlink:href="#hd"/>
<path d="M690.04 107.00v32.20" class="stroke"/>
<use x="693.54" y="113.00" xlink:href="#hd"/>
<use x="710.34" y="110.00" xlink:href="#hd"/>
<path d="M706.84 110.00v29.20" class="stroke"/>
<use x="710.34" y="116.00" xlink:href="#hd"/>
<use x="727.14" y="113.00" xlink:href="#hd"/>
<path d="M723.64 113.00v26.20" class="stroke"/>
<use x="727.14" y="119.00" xlink:href="#hd"/>
<use x="745.14" y="116.00" xlink:href="#hd"/>
<path d="M741.64 116.00v23.20" class="stroke"/>
<use x="745.14" y="122.00" xlink:href="#hd"/>
<use x="736.14" y="122.00" xlink:href="#sh0"/>
<use x="771.74" y="98.00" xlink:href="#hd"/>
<path d="M768.24 98.00v40.00" class="stroke"/>
<use x="771.74" y="119.00" xlink:href="#hd"/>
<use x="771.74" y="113.00" xlink:href="#hd"/>
<use x="771.74" y="107.00" xlink:href="#hd"/>
<defs>
<path id="r8e" class="fill" d="m 0 0
	c-1.5 1.5 -2.4 2 -3.6 2
	2.4 -2.8 -2.8 -4 -2.8 -1.2
	c0 2.7 4.3 2.4 5.9 0.6"/>
<g id="r8">
	<path d="m3.3 -4l-3.4 9.6" class="stroke"/>
	<use x="3.4" y="-4" xlink:href="#r8e"/>
</g>
</defs>
<use x="830.24" y="113.00" xlink:href="#r8"/>
<defs>
<path id="ubclef" class="fill" d="m-200 -87
	c124 -35 222 -78 254 -236
	43 -228 -167 -246 -192 -103
	59 -80 157 22 92 78
	-62 47 -115 -22 -106 -88
	21 -141 270 -136 274 52
	-1 175 -106 264 -322 297
	m357 -250
	c0 -36 51 -34 51 0
	0 37 -51 36 -51 0
	m-2 -129
	c0 -36 51 -34 51 0
	0 38 -51 37 -51 0"/>
<use id="bclef" transform="translate(0,18) scale(0.045)"
	xlink:href="#ubclef"/>
</defs>
<use x="23.54" y="165.00" xlink:href="#bclef"/>
<g font-family="serif" font-size="16" font-weight="bold" font-style="normal"
	transform="translate(42.04,182.50) scale(1.2,1)">
	<text text-anchor="middle">8</text>
	<text y="-12" text-anchor="middle">3</text>
</g>
<path class="fill"
	d="M81.04 190.90l84.70 0.00v-3.20l-84.70 -0.00"/>
<path class="fill"
	d="M81.34 185.90l84.10 0.00v-3.20l-84.10 -0.00"/>
<use x="84.84" y="168.00" xlink:href="#hd"/>
<path d="M81.34 168.00v21.90" class="stroke"/>
<use x="84.84" y="174.00" xlink:href="#hd"/>
<use x="101.64" y="162.00" xlink:href="#hd"/>
<path d="M98.14 162.00v27.90" class="stroke"/>
<use x="118.54" y="168.00" xlink:href="#hd"/>
<path d="M115.04 168.00v21.90" class="stroke"/>
<use x="118.54" y="174.00" xlink:href="#hd"/>
<use x="135.34" y="162.00" xlink:href="#hd"/>
<path d="M131.84 162.00v27.90" class="stroke"/>
<use x="152.14" y="168.00" xlink:href="#hd"/>
<path d="M148.64 168.00v21.90" class="stroke"/>
<use x="152.14" y="174.00" xlink:href="#hd"/>
<use x="168.94" y="162.00" xlink:href="#hd"/>
<path d="M165.44 162.00v27.90" class="stroke"/>
<use x="195.44" y="168.00" xlink:href="#hd"/>
<path d="M191.94 168.00v25.00" class="stroke"/>
<use x="195.44" y="174.00" xlink:href="#hd"/>
<use x="242.84" y="162.00" xlink:href="#hd"/>
<path d="M239.34 162.00v31.00" class="stroke"/>
<path class="fill"
	d="M239.34 193.00c0.6 -5.6 9.6 -9 5.6 -18.4
	1.6 6 -1.3 11.6 -5.6 12.8
"/>
<use x="242.84" y="174.00" xlink:href="#hd"/>
<use x="274.74" y="183.00" xlink:href="#hd"/>
<path d="M278.24 183.00v-40.00" class="stroke"/>
<use x="274.74" y="162.00" xlink:href="#hd"/>
<use x="342.04" y="162.00" xlink:href="#hd"/>
<path d="M338.54 162.00v34.00" class="stroke"/>
<path class="fill"
	d="M338.54 196.00c0.6 -5.6 9.6 -9 5.6 -18.4
	1.6 6 -1.3 11.6 -5.6 12.8
"/>
<use x="342.04" y="177.00" xlink:href="#hd"/>
<use x="385.34" y="168.00" xlink:href="#hd"/>
<path d="M381.84 168.00v25.00" class="stroke"/>
<use x="385.34" y="174.00" xlink:href="#hd"/>
<use x="442.64" y="171.00" xlink:href="#r8"/>
<path class="fill"
	d="M482.94 153.00l48.30 0.00v3.20l-48.30 -0.00"/>
<use x="479.74" y="174.00" xlink:href="#hd"/>
<path d="M483.24 174.00v-20.00" class="stroke"/>
<use x="503.64" y="174.00" xlink:href="#hd"/>
<path d="M507.14 174.00v-20.00" class="stroke"/>
<use x="527.34" y="174.00" xlink:href="#hd"/>
<path d="M530.84 174.00v-20.00" class="stroke"/>
<use x="559.24" y="162.00" xlink:href="#hd"/>
<path d="M555.74 162.00v34.00" class="stroke"/>
<use x="559.24" y="177.00" xlink:href="#hd"/>
<use x="616.54" y="171.00" xlink:href="#r8"/>
<path class="fill"
	d="M663.04 147.70l67.90 8.30v3.20l-67.90 -8.30"/>
<use x="659.94" y="174.00" xlink:href="#hd"/>
<path d="M663.44 174.00v-25.30" class="stroke"/>
<use x="693.54" y="171.00" xlink:href="#hd"/>
<path d="M697.04 171.00v-18.20" class="stroke"/>
<use x="727.14" y="189.00" xlink:href="#hl"/>
<use x="727.14" y="192.00" xlink:href="#hd"/>
<path d="M730.64 192.00v-35.10" class="stroke"/>
<path class="fill"
	d="M767.84 202.20l76.00 0.00v-3.20l-76.00 -0.00"/>
<path class="fill"
	d="M791.94 197.20l51.60 0.00v-3.20l-51.60 -0.00"/>
<use x="771.74" y="183.00" xlink:href="#hd"/>
<path d="M768.24 183.00v18.20" class="stroke"/>
<use x="795.44" y="162.00" xlink:href="#hd"/>
<path d="M791.94 162.00v39.20" class="stroke"/>
<use x="813.44" y="165.00" xlink:href="#hd"/>
<defs>
<path id="unat" class="fill" d="
	m96 -750
	h-32
	v716
	l32 -8
	182 -54
	v282
	h32
	v-706
	l-34 10
	-180 50
	v-290
	m0 592
	v-190
	l182 -52
	v188"/>
<use id="nt0" transform="translate(-3,5) scale(0.018)"
	xlink:href="#unat"/>
</defs>
<use x="804.44" y="165.00" xlink:href="#nt0"/>
<path d="M809.94 165.00v36.20" class="stroke"/>
<use x="830.24" y="168.00" xlink:href="#hd"/>
<path d="M826.74 168.00v33.20" class="stroke"/>
<use x="847.04" y="171.00" xlink:href="#hd"/>
<path d="M843.54 171.00v30.20" class="stroke"/>
</g>
<g stroke-width="0.70" transform="scale(0.867)" font-family="Times" font-size="13.00">
<path class="stroke" stroke-width="1"
	d="M11.54 319.00v-85.00"/>
<path class="fill"
	d="M6.54 231.00
	c10.5 1 12 -4.5 12 -3.5c0 1 -3.5 5.5 -8.5 5.5
	v87.00
	c5 0 8.5 4.5 8.5 5.5c0 1 -1.5 -4.5 -12 -3.5"/>
<use x="146.44" y="258.00" xlink:href="#rdots"/>
<path class="stroke" stroke-width="1"
	d="M142.44 258.00v-24.00"/>
<path class="stroke" stroke-width="3"
	d="M137.94 258.00v-24.00"/>
<use x="146.44" y="319.00" xlink:href="#rdots"/>
<path class="stroke" stroke-width="1"
	d="M142.44 319.00v-61.00"/>
<path class="stroke" stroke-width="3"
	d="M137.94 319.00v-61.00"/>
<path class="stroke" stroke-width="1"
	d="M234.44 258.00v-24.00"/>
<path class="stroke" stroke-width="1"
	d="M234.44 319.00v-61.00"/>
<path class="stroke" stroke-width="1"
	d="M317.34 258.00v-24.00"/>
<path class="stroke" stroke-width="1"
	d="M317.34 319.00v-61.00"/>
<path class="stroke" stroke-width="1"
	d="M424.14 258.00v-24.00"/>
<path class="stroke" stroke-width="1"
	d="M424.14 319.00v-61.00"/>
<path class="stroke" stroke-width="1"
	d="M516.04 258.00v-24.00"/>
<path class="stroke" stroke-width="1"
	d="M516.04 319.00v-61.00"/>
<path class="stroke" stroke-width="1"
	d="M618.84 258.00v-24.00"/>
<path class="stroke" stroke-width="1"
	d="M618.84 319.00v-61.00"/>
<path class="stroke" stroke-width="1"
	d="M692.14 258.00v-24.00"/>
<path class="stroke" stroke-width="1"
	d="M692.14 319.00v-61.00"/>
<path class="stroke" stroke-width="1"
	d="M785.44 258.00v-24.00"/>
<path class="stroke" stroke-width="1"
	d="M785.44 319.00v-61.00"/>
<path class="stroke" stroke-width="3"
	d="M860.54 258.00v-24.00"/>
<path class="stroke" stroke-width="1"
	d="M856.04 258.00v-24.00"/>
<use x="852.04" y="258.00" xlink:href="#rdots"/>
<path class="stroke" stroke-width="3"
	d="M860.54 319.00v-61.00"/>
<path class="stroke" stroke-width="1"
	d="M856.04 319.00v-61.00"/>
<use x="852.04" y="319.00" xlink:href="#rdots"/>
<path d="m11.54 258.00
	h850.50
	M11.54 252.00
	h850.50
	M11.54 246.00
	h850.50
	M11.54 240.00
	h850.50
	M11.54 234.00
	h850.50
	" class="stroke"/>
<path d="m11.54 319.00
	h850.50
	M11.54 313.00
	h850.50
	M11.54 307.00
	h850.50
	M11.54 301.00
	h850.50
	M11.54 295.00
	h850.50
	" class="stroke"/>
<text x="47.54" y="219.40">2</text>
<path class="stroke"
	d="M43.54 208.00m0 20v-20h91.90v20"/>
<use x="23.54" y="252.00" xlink:href="#tclef"/>
<use x="56.04" y="231.00" xlink:href="#hd"/>
<path d="M52.54 231.00v40.00" class="stroke"/>
<use x="56.04" y="252.00" xlink:href="#hd"/>
<use x="56.04" y="246.00" xlink:href="#hd"/>
<use x="56.04" y="240.00" xlink:href="#hd"/>
<use x="111.34" y="246.00" xlink:href="#r8"/>
<path class="fill"
	d="M162.04 252.20l44.70 0.00v-3.20l-44.70 -0.00"/>
<use x="165.94" y="234.00" xlink:href="#hd"/>
<use x="156.94" y="234.00" xlink:href="#sh0"/>
<path d="M162.44 234.00v17.20" class="stroke"/>
<use x="188.24" y="228.00" xlink:href="#hl"/>
<use x="188.24" y="228.00" xlink:href="#hd"/>
<path d="M184.74 228.00v23.20" class="stroke"/>
<use x="209.94" y="234.00" xlink:href="#hd"/>
<path d="M206.44 234.00v17.20" class="stroke"/>
<path class="fill"
	d="M243.14 262.60l53.50 8.70v-3.20l-53.50 -8.70"/>
<path class="fill"
	d="M265.24 261.20l15.50 2.50v-3.20l-15.50 -2.50"/>
<use x="246.94" y="231.00" xlink:href="#hd"/>
<path d="M243.44 231.00v30.60" class="stroke"/>
<use x="268.74" y="240.00" xlink:href="#hd"/>
<path d="M265.24 240.00v25.20" class="stroke"/>
<use x="284.24" y="246.00" xlink:href="#hd"/>
<path d="M280.74 246.00v21.70" class="stroke"/>
<use x="299.84" y="252.00" xlink:href="#hd"/>
<path d="M296.34 252.00v18.20" class="stroke"/>
<use x="329.84" y="237.00" xlink:href="#hd"/>
<path d="M326.34 237.00v34.00" class="stroke"/>
<path class="fill"
	d="M326.34 271.00c0.6 -5.6 9.6 -9 5.6 -18.4
	1.6 6 -1.3 11.6 -5.6 12.8
"/>
<use x="329.84" y="252.00" xlink:href="#hd"/>
<use x="329.84" y="243.00" xlink:href="#hd"/>
<use x="362.64" y="237.00" xlink:href="#hd"/>
<path d="M359.14 237.00v21.00" class="stroke"/>
<path class="fill"
	d="M432.84 262.40l62.80 8.90v-3.20l-62.80 -8.90"/>
<path class="fill"
	d="M433.24 257.40l46.60 6.60v-3.20l-46.60 -6.60"/>
<use x="436.74" y="231.00" xlink:href="#hd"/>
<path d="M433.24 231.00v30.40" class="stroke"/>
<use x="452.24" y="237.00" xlink:href="#hd"/>
<path d="M448.74 237.00v26.60" class="stroke"/>
<use x="467.74" y="240.00" xlink:href="#hd"/>
<path d="M464.24 240.00v25.80" class="stroke"/>
<use x="483.34" y="246.00" xlink:href="#hd"/>
<path d="M479.84 246.00v22.00" class="stroke"/>
<use x="498.84" y="252.00" xlink:href="#hd"/>
<path d="M495.34 252.00v18.20" class="stroke"/>
<path class="fill"
	d="M524.74 260.60l62.80 3.30v-3.20l-62.80 -3.30"/>
<use x="528.64" y="231.00" xlink:href="#hd"/>
<path d="M525.14 231.00v28.60" class="stroke"/>
<use x="559.74" y="243.00" xlink:href="#hd"/>
<path d="M556.24 243.00v18.20" class="stroke"/>
<use x="590.74" y="237.00" xlink:href="#hd"/>
<path d="M587.24 237.00v25.80" class="stroke"/>
<path class="fill"
	d="M634.44 224.00l44.20 0.00v3.20l-44.20 -0.00"/>
<use x="631.34" y="258.00" xlink:href="#hd"/>
<path d="M634.84 258.00v-33.00" class="stroke"/>
<use x="631.34" y="243.00" xlink:href="#hd"/>
<use x="653.04" y="258.00" xlink:href="#hd"/>
<path d="M656.54 258.00v-33.00" class="stroke"/>
<use x="653.04" y="243.00" xlink:href="#hd"/>
<use x="674.84" y="258.00" xlink:href="#hd"/>
<path d="M678.34 258.00v-33.00" class="stroke"/>
<use x="674.84" y="243.00" xlink:href="#hd"/>
<path class="fill"
	d="M700.74 268.20l69.00 -8.20v-3.20l-69.00 8.20"/>
<path class="fill"
	d="M722.84 260.60l46.60 -5.50v-3.20l-46.60 5.50"/>
<use x="704.64" y="249.00" xlink:href="#hd"/>
<path d="M701.14 249.00v18.20" class="stroke"/>
<use x="726.34" y="234.00" xlink:href="#hd"/>
<path d="M722.84 234.00v30.60" class="stroke"/>
<use x="741.94" y="240.00" xlink:href="#hd"/>
<path d="M738.44 240.00v22.80" class="stroke"/>
<use x="757.44" y="228.00" xlink:href="#hl"/>
<use x="757.44" y="228.00" xlink:href="#hd"/>
<path d="M753.94 228.00v33.00" class="stroke"/>
<use x="772.94" y="231.00" xlink:href="#hd"/>
<path d="M769.44 231.00v28.10" class="stroke"/>
<use x="798.04" y="243.00" xlink:href="#hd"/>
<path d="M794.54 243.00v21.00" class="stroke"/>
<use x="841.54" y="246.00" xlink:href="#r8"/>
<use x="23.54" y="301.00" xlink:href="#bclef"/>
<path class="fill"
	d="M52.24 338.20l71.50 -5.10v-3.20l-71.50 5.10"/>
<path class="fill"
	d="M74.34 331.60l49.10 -3.50v-3.20l-49.10 3.50"/>
<use x="56.04" y="319.00" xlink:href="#hd"/>
<path d="M52.54 319.00v18.20" class="stroke"/>
<use x="77.84" y="292.00" xlink:href="#hd"/>
<path d="M74.34 292.00v43.60" class="stroke"/>
<use x="93.34" y="298.00" xlink:href="#hd"/>
<path d="M89.84 298.00v36.50" class="stroke"/>
<use x="111.34" y="301.00" xlink:href="#hd"/>
<use x="102.34" y="301.00" xlink:href="#sh0"/>
<path d="M107.84 301.00v32.20" class="stroke"/>
<use x="126.94" y="304.00" xlink:href="#hd"/>
<path d="M123.44 304.00v28.10" class="stroke"/>
<path class="fill"
	d="M169.04 275.70l44.70 7.90v3.20l-44.70 -7.90"/>
<use x="165.94" y="295.00" xlink:href="#hd"/>
<path d="M169.44 295.00v-18.20" class="stroke"/>
<use x="188.24" y="301.00" xlink:href="#hd"/>
<use x="179.24" y="301.00" xlink:href="#sh0"/>
<path d="M191.74 301.00v-20.30" class="stroke"/>
<use x="209.94" y="307.00" xlink:href="#hd"/>
<path d="M213.44 307.00v-22.40" class="stroke"/>
<use x="246.94" y="313.00" xlink:href="#hd"/>
<path d="M250.44 313.00v-25.00" class="stroke"/>
<use x="246.94" y="307.00" xlink:href="#hd"/>
<use x="299.84" y="313.00" xlink:href="#hd"/>
<path d="M303.34 313.00v-25.00" class="stroke"/>
<path class="fill"
	d="M303.34 288.00c0.6 5.6 9.6 9 5.6 18.4
	1.6 -6 -1.3 -11.6 -5.6 -12.8
"/>
<use x="299.84" y="307.00" xlink:href="#hd"/>
<path class="fill"
	d="M333.04 278.80l82.50 0.00v3.20l-82.50 -0.00"/>
<path class="fill"
	d="M333.34 283.80l81.80 0.00v3.20l-81.80 -0.00"/>
<use x="329.84" y="310.00" xlink:href="#hd"/>
<path d="M333.34 310.00v-30.20" class="stroke"/>
<use x="345.44" y="313.00" xlink:href="#hd"/>
<path d="M348.94 313.00v-33.20" class="stroke"/>
<use x="362.64" y="310.00" xlink:href="#hd"/>
<path d="M366.14 310.00v-30.20" class="stroke"/>
<use x="378.14" y="307.00" xlink:href="#hd"/>
<path d="M381.64 307.00v-27.20" class="stroke"/>
<use x="393.64" y="304.00" xlink:href="#hd"/>
<path d="M397.14 304.00v-24.20" class="stroke"/>
<use x="411.64" y="301.00" xlink:href="#hd"/>
<use x="402.64" y="301.00" xlink:href="#sh0"/>
<path d="M415.14 301.00v-21.20" class="stroke"/>
<path class="fill"
	d="M439.84 278.70l31.70 9.10v3.20l-31.70 -9.10"/>
<use x="436.74" y="298.00" xlink:href="#hd"/>
<path d="M440.24 298.00v-18.20" class="stroke"/>
<use x="467.74" y="319.00" xlink:href="#hd"/>
<path d="M471.24 319.00v-30.30" class="stroke"/>
<use x="498.84" y="307.00" xlink:href="#r8"/>
<path class="fill"
	d="M524.74 326.90l78.40 0.00v-3.20l-78.40 -0.00"/>
<path class="fill"
	d="M525.14 321.90l77.70 0.00v-3.20l-77.70 -0.00"/>
<use x="528.64" y="304.00" xlink:href="#hd"/>
<path d="M525.14 304.00v21.90" class="stroke"/>
<use x="528.64" y="310.00" xlink:href="#hd"/>
<use x="544.14" y="298.00" xlink:href="#hd"/>
<path d="M540.64 298.00v27.90" class="stroke"/>
<use x="559.74" y="304.00" xlink:href="#hd"/>
<path d="M556.24 304.00v21.90" class="stroke"/>
<use x="559.74" y="310.00" xlink:href="#hd"/>
<use x="575.24" y="298.00" xlink:href="#hd"/>
<path d="M571.74 298.00v27.90" class="stroke"/>
<use x="590.74" y="304.00" xlink:href="#hd"/>
<path d="M587.24 304.00v21.90" class="stroke"/>
<use x="590.74" y="310.00" xlink:href="#hd"/>
<use x="606.34" y="298.00" xlink:href="#hd"/>
<path d="M602.84 298.00v27.90" class="stroke"/>
<path class="fill"
	d="M634.44 289.00l44.20 0.00v3.20l-44.20 -0.00"/>
<use x="631.34" y="310.00" xlink:href="#hd"/>
<path d="M634.84 310.00v-20.00" class="stroke"/>
<use x="653.04" y="310.00" xlink:href="#hd"/>
<path d="M656.54 310.00v-20.00" class="stroke"/>
<use x="674.84" y="310.00" xlink:href="#hd"/>
<path d="M678.34 310.00v-20.00" class="stroke"/>
<use x="704.64" y="301.00" xlink:href="#hd"/>
<path d="M701.14 301.00v21.00" class="stroke"/>
<use x="757.44" y="298.00" xlink:href="#hd"/>
<path d="M753.94 298.00v21.00" class="stroke"/>
<path class="fill"
	d="M753.94 319.00c0.6 -5.6 9.6 -9 5.6 -18.4
	1.6 6 -1.3 11.6 -5.6 12.8
"/>
<path class="fill"
	d="M801.14 290.70l44.20 10.00v3.20l-44.20 -10.00"/>
<use x="798.04" y="310.00" xlink:href="#hd"/>
<path d="M801.54 310.00v-18.20" class="stroke"/>
<use x="819.74" y="319.00" xlink:href="#hd"/>
<path d="M823.24 319.00v-22.30" class="stroke"/>
<use x="841.54" y="325.00" xlink:href="#hl"/>
<use x="841.54" y="331.00" xlink:href="#hl"/>
<use x="841.54" y="331.00" xlink:href="#hd"/>
<path d="M845.04 331.00v-29.30" class="stroke"/>
<path class="fill"
	d="M162.04 329.20l52.70 0.00v-3.20l-52.70 -0.00"/>
<use x="165.94" y="307.00" xlink:href="#hd"/>
<path d="M162.44 307.00v21.20" class="stroke"/>
<use x="188.24" y="307.00" xlink:href="#hd"/>
<path d="M184.74 307.00v21.20" class="stroke"/>
<use x="217.94" y="310.00" xlink:href="#hd"/>
<path d="M214.44 310.00v18.20" class="stroke"/>
<defs>
<text id="trl" font-family="serif" font-size="16" font-style="italic"
	x="-2" y="-4">tr</text>
</defs>
<use x="362.64" y="231.00" xlink:href="#trl"/>
</g>
</svg>
