<?xml version="1.0" standalone="no"?>
<!DOCTYPE svg PUBLIC "-//W3C//DTD SVG 1.1//EN"
	"http://www.w3.org/Graphics/SVG/1.1/DTD/svg11.dtd">
<svg xmlns="http://www.w3.org/2000/svg" version="1.1"
	xmlns:xlink="http://www.w3.org/1999/xlink"
	color="black"
	width="757.10px" height="293.80px">
<style type="text/css">
.fill {fill: currentColor}
.stroke {stroke: currentColor; fill: none}
text{white-space: pre}
</style>
<title>./K516f-2-5-4-3-3-7-7-12-12-5-9-5-7-11-7-10.abc (2023) tune 1</title>
<!-- Creator: abcm2ps-8.13.8 -->
<!-- CreationDate: Sep  7, 2017 11:18 -->
<!-- CommandLine: ./K516f-2-5-4-3-3-7-7-12-12-5-9-5-7-11-7-10.abc -O ./K516f-2-5-4-3-3-7-7-12-12-5-9-5-7-11-7-10.svg -g -->
<rect width="100%" height="100%" fill="white"/>
<g stroke-width="0.70" transform="scale(0.867)">
<!-- title: 2-5-4-3-3-7-7-12-12-5-9-5-7-11-7-10 -->
</g>
<g stroke-width="0.70" transform="scale(0.867)" font-family="Times" font-size="20.00">
<text x="436.84" y="22.00" text-anchor="middle">2-5-4-3-3-7-7-12-12-5-9-5-7-11-7-10</text>
</g>
<g stroke-width="0.70" transform="scale(0.867)" font-family="Times" font-size="20.00">
<!-- subtitle: $1K.516f::96:17:158:63:146:68:118:5:35:176:48:34:101:59:23:8::$0 -->
</g>
<g stroke-width="0.70" transform="scale(0.867)" font-family="Courier" font-size="8.00" font-weight="bold">
<text x="436.84" y="41.80" text-anchor="middle">K.516f::96:17:158:63:146:68:118:5:35:176:48:34:101:59:23:8::</text>
</g>
<g stroke-width="0.70" transform="scale(0.867)" font-family="Courier" font-size="8.00" font-weight="bold">
<!-- subtitle: $1Perm. No.: 202381139998500$0 -->
<text x="436.84" y="60.80" text-anchor="middle">Perm. No.: 202381139998500</text>
</g>
<g stroke-width="0.70" transform="scale(0.607)" font-family="Courier" font-size="8.00" font-weight="bold">
<defs>
<ellipse id="hd" rx="4.1" ry="2.9"
	transform="rotate(-20)" class="fill"/>
</defs>
<use x="103.06" y="121.29" xlink:href="#hd"/>
<path d="M106.56 121.29v-21.00" class="stroke"/>
<path class="fill"
	d="M106.56 100.29c0.6 5.6 9.6 9 5.6 18.4
	1.6 -6 -1.3 -11.6 -5.6 -12.8
"/>
</g>
<g stroke-width="0.70" transform="scale(0.867)" font-family="Times" font-size="15.00" font-weight="bold">
<text x="81.24" y="87.00">= 111</text>
<path class="stroke" stroke-width="1"
	d="M11.54 183.00v-82.00"/>
<path class="fill"
	d="M6.54 98.00
	c10.5 1 12 -4.5 12 -3.5c0 1 -3.5 5.5 -8.5 5.5
	v84.00
	c5 0 8.5 4.5 8.5 5.5c0 1 -1.5 -4.5 -12 -3.5"/>
<defs>
<g id="rdots" class="fill">
	<circle cx="0" cy="-9" r="1.2"/>
	<circle cx="0" cy="-15" r="1.2"/>
</g>
</defs>
<use x="70.54" y="125.00" xlink:href="#rdots"/>
<path class="stroke" stroke-width="1"
	d="M66.54 125.00v-24.00"/>
<path class="stroke" stroke-width="3"
	d="M62.04 125.00v-24.00"/>
<use x="70.54" y="183.00" xlink:href="#rdots"/>
<path class="stroke" stroke-width="1"
	d="M66.54 183.00v-58.00"/>
<path class="stroke" stroke-width="3"
	d="M62.04 183.00v-58.00"/>
<path class="stroke" stroke-width="1"
	d="M150.84 125.00v-24.00"/>
<path class="stroke" stroke-width="1"
	d="M150.84 183.00v-58.00"/>
<path class="stroke" stroke-width="1"
	d="M261.44 125.00v-24.00"/>
<path class="stroke" stroke-width="1"
	d="M261.44 183.00v-58.00"/>
<path class="stroke" stroke-width="1"
	d="M362.14 125.00v-24.00"/>
<path class="stroke" stroke-width="1"
	d="M362.14 183.00v-58.00"/>
<path class="stroke" stroke-width="1"
	d="M461.24 125.00v-24.00"/>
<path class="stroke" stroke-width="1"
	d="M461.24 183.00v-58.00"/>
<path class="stroke" stroke-width="1"
	d="M545.94 125.00v-24.00"/>
<path class="stroke" stroke-width="1"
	d="M545.94 183.00v-58.00"/>
<path class="stroke" stroke-width="1"
	d="M646.54 125.00v-24.00"/>
<path class="stroke" stroke-width="1"
	d="M646.54 183.00v-58.00"/>
<path class="stroke" stroke-width="1"
	d="M758.34 125.00v-24.00"/>
<path class="stroke" stroke-width="1"
	d="M758.34 183.00v-58.00"/>
<path class="stroke" stroke-width="3"
	d="M860.54 125.00v-24.00"/>
<path class="stroke" stroke-width="1"
	d="M856.04 125.00v-24.00"/>
<use x="852.04" y="125.00" xlink:href="#rdots"/>
<path class="stroke" stroke-width="3"
	d="M860.54 183.00v-58.00"/>
<path class="stroke" stroke-width="1"
	d="M856.04 183.00v-58.00"/>
<use x="852.04" y="183.00" xlink:href="#rdots"/>
<path d="m11.54 125.00
	h850.50
	M11.54 119.00
	h850.50
	M11.54 113.00
	h850.50
	M11.54 107.00
	h850.50
	M11.54 101.00
	h850.50
	" class="stroke"/>
<path d="m11.54 183.00
	h850.50
	M11.54 177.00
	h850.50
	M11.54 171.00
	h850.50
	M11.54 165.00
	h850.50
	M11.54 159.00
	h850.50
	" class="stroke"/>
</g>
<g stroke-width="0.70" transform="scale(0.867)" font-family="Times" font-size="13.00">
<text x="762.34" y="86.40">1</text>
<path class="stroke"
	d="M758.34 75.00m0 20v-20h95.70v20"/>
<defs>
<path id="utclef" class="fill" d="m-50 -90
	c-72 -41 -72 -158 52 -188
	150 -10 220 188 90 256
	-114 52 -275 0 -293 -136
	-15 -181 93 -229 220 -334
	88 -87 79 -133 62 -210
	-51 33 -94 105 -89 186
	17 267 36 374 49 574
	6 96 -19 134 -77 135
	-80 1 -126 -93 -61 -133
	85 -41 133 101 31 105
	23 17 92 37 90 -92
	-10 -223 -39 -342 -50 -617
	0 -90 0 -162 96 -232
	56 72 63 230 22 289
	-74 106 -257 168 -255 316
	9 153 148 185 252 133
	86 -65 29 -192 -80 -176
	-71 12 -105 67 -59 124"/>
<use id="tclef" transform="translate(0,6) scale(0.045)"
	xlink:href="#utclef"/>
</defs>
<use x="23.54" y="119.00" xlink:href="#tclef"/>
<g font-family="serif" font-size="16" font-weight="bold" font-style="normal"
	transform="translate(42.04,124.50) scale(1.2,1)">
	<text text-anchor="middle">8</text>
	<text y="-12" text-anchor="middle">3</text>
</g>
<path class="fill"
	d="M81.04 131.60l48.10 6.60v-3.20l-48.10 -6.60"/>
<use x="84.84" y="104.00" xlink:href="#hd"/>
<path d="M81.34 104.00v26.70" class="stroke"/>
<use x="108.54" y="110.00" xlink:href="#hd"/>
<path d="M105.04 110.00v23.90" class="stroke"/>
<use x="132.24" y="119.00" xlink:href="#hd"/>
<path d="M128.74 119.00v18.20" class="stroke"/>
<path class="fill"
	d="M160.34 141.20l84.70 0.00v-3.20l-84.70 -0.00"/>
<path class="fill"
	d="M160.64 136.20l84.10 0.00v-3.20l-84.10 -0.00"/>
<use x="164.14" y="110.00" xlink:href="#hd"/>
<path d="M160.64 110.00v30.20" class="stroke"/>
<use x="181.04" y="119.00" xlink:href="#hd"/>
<path d="M177.54 119.00v21.20" class="stroke"/>
<use x="197.84" y="110.00" xlink:href="#hd"/>
<path d="M194.34 110.00v30.20" class="stroke"/>
<use x="214.64" y="104.00" xlink:href="#hd"/>
<path d="M211.14 104.00v36.20" class="stroke"/>
<use x="231.44" y="119.00" xlink:href="#hd"/>
<path d="M227.94 119.00v21.20" class="stroke"/>
<use x="248.24" y="110.00" xlink:href="#hd"/>
<path d="M244.74 110.00v30.20" class="stroke"/>
<path class="fill"
	d="M277.94 84.80l74.80 0.00v3.20l-74.80 -0.00"/>
<path class="fill"
	d="M301.94 89.80l50.40 0.00v3.20l-50.40 -0.00"/>
<use x="274.74" y="113.00" xlink:href="#hd"/>
<path d="M278.24 113.00v-27.20" class="stroke"/>
<use x="298.44" y="107.00" xlink:href="#hd"/>
<path d="M301.94 107.00v-21.20" class="stroke"/>
<use x="315.24" y="113.00" xlink:href="#hd"/>
<path d="M318.74 113.00v-27.20" class="stroke"/>
<use x="332.14" y="116.00" xlink:href="#hd"/>
<path d="M335.64 116.00v-30.20" class="stroke"/>
<use x="348.94" y="119.00" xlink:href="#hd"/>
<path d="M352.44 119.00v-33.20" class="stroke"/>
<path class="fill"
	d="M371.64 132.20l67.90 6.00v-3.20l-67.90 -6.00"/>
<path class="fill"
	d="M371.94 127.30l50.40 4.40v-3.20l-50.40 -4.40"/>
<use x="375.44" y="104.00" xlink:href="#hd"/>
<path d="M371.94 104.00v27.30" class="stroke"/>
<use x="392.24" y="110.00" xlink:href="#hd"/>
<path d="M388.74 110.00v22.80" class="stroke"/>
<use x="409.04" y="113.00" xlink:href="#hd"/>
<path d="M405.54 113.00v21.20" class="stroke"/>
<use x="425.84" y="110.00" xlink:href="#hd"/>
<path d="M422.34 110.00v25.70" class="stroke"/>
<use x="442.64" y="119.00" xlink:href="#hd"/>
<path d="M439.14 119.00v18.20" class="stroke"/>
<path class="fill"
	d="M475.94 139.30l48.30 -8.40v-3.20l-48.30 8.40"/>
<use x="479.74" y="107.00" xlink:href="#hd"/>
<path d="M476.24 107.00v31.20" class="stroke"/>
<use x="479.74" y="122.00" xlink:href="#hd"/>
<defs>
<path id="usharp" class="fill" d="
	m136 -702
	v890
	h32
	v-890
	m128 840
	h32
	v-888
	h-32
	m-232 286
	v116
	l338 -96
	v-116
	m-338 442
	v116
	l338 -98
	v-114"/>
<use id="sh0" transform="translate(-4,5) scale(0.018)"
	xlink:href="#usharp"/>
</defs>
<use x="470.74" y="122.00" xlink:href="#sh0"/>
<use x="503.64" y="101.00" xlink:href="#hd"/>
<use x="494.64" y="101.00" xlink:href="#sh0"/>
<path d="M500.14 101.00v33.10" class="stroke"/>
<use x="503.64" y="107.00" xlink:href="#hd"/>
<defs>
<path id="hl" class="stroke" d="m-6 0h12"/>
</defs>
<use x="527.34" y="95.00" xlink:href="#hl"/>
<use x="527.34" y="95.00" xlink:href="#hd"/>
<path d="M523.84 95.00v35.00" class="stroke"/>
<use x="527.34" y="101.00" xlink:href="#hd"/>
<path class="fill"
	d="M555.44 127.00l74.80 0.00v-3.20l-74.80 -0.00"/>
<path class="fill"
	d="M579.44 122.00l50.40 0.00v-3.20l-50.40 -0.00"/>
<use x="559.24" y="98.00" xlink:href="#hd"/>
<path d="M555.74 98.00v28.00" class="stroke"/>
<use x="582.94" y="95.00" xlink:href="#hl"/>
<use x="582.94" y="92.00" xlink:href="#hd"/>
<path d="M579.44 92.00v34.00" class="stroke"/>
<use x="599.74" y="98.00" xlink:href="#hd"/>
<path d="M596.24 98.00v28.00" class="stroke"/>
<use x="616.54" y="107.00" xlink:href="#hd"/>
<path d="M613.04 107.00v19.00" class="stroke"/>
<use x="633.34" y="98.00" xlink:href="#hd"/>
<path d="M629.84 98.00v28.00" class="stroke"/>
<path class="fill"
	d="M656.04 127.00l85.90 0.00v-3.20l-85.90 -0.00"/>
<path class="fill"
	d="M656.44 122.00l85.20 0.00v-3.20l-85.20 -0.00"/>
<use x="659.94" y="104.00" xlink:href="#hd"/>
<path d="M656.44 104.00v22.00" class="stroke"/>
<use x="676.74" y="95.00" xlink:href="#hl"/>
<use x="676.74" y="95.00" xlink:href="#hd"/>
<path d="M673.24 95.00v31.00" class="stroke"/>
<use x="693.54" y="98.00" xlink:href="#hd"/>
<path d="M690.04 98.00v28.00" class="stroke"/>
<use x="710.34" y="95.00" xlink:href="#hl"/>
<use x="710.34" y="92.00" xlink:href="#hd"/>
<path d="M706.84 92.00v34.00" class="stroke"/>
<use x="728.34" y="101.00" xlink:href="#hd"/>
<use x="719.34" y="101.00" xlink:href="#sh0"/>
<path d="M724.84 101.00v25.00" class="stroke"/>
<use x="745.14" y="95.00" xlink:href="#hl"/>
<use x="745.14" y="95.00" xlink:href="#hd"/>
<path d="M741.64 95.00v31.00" class="stroke"/>
<use x="771.74" y="98.00" xlink:href="#hd"/>
<path d="M768.24 98.00v40.00" class="stroke"/>
<use x="771.74" y="119.00" xlink:href="#hd"/>
<use x="771.74" y="113.00" xlink:href="#hd"/>
<use x="771.74" y="107.00" xlink:href="#hd"/>
<defs>
<path id="r8e" class="fill" d="m 0 0
	c-1.5 1.5 -2.4 2 -3.6 2
	2.4 -2.8 -2.8 -4 -2.8 -1.2
	c0 2.7 4.3 2.4 5.9 0.6"/>
<g id="r8">
	<path d="m3.3 -4l-3.4 9.6" class="stroke"/>
	<use x="3.4" y="-4" xlink:href="#r8e"/>
</g>
</defs>
<use x="830.24" y="113.00" xlink:href="#r8"/>
<defs>
<path id="ubclef" class="fill" d="m-200 -87
	c124 -35 222 -78 254 -236
	43 -228 -167 -246 -192 -103
	59 -80 157 22 92 78
	-62 47 -115 -22 -106 -88
	21 -141 270 -136 274 52
	-1 175 -106 264 -322 297
	m357 -250
	c0 -36 51 -34 51 0
	0 37 -51 36 -51 0
	m-2 -129
	c0 -36 51 -34 51 0
	0 38 -51 37 -51 0"/>
<use id="bclef" transform="translate(0,18) scale(0.045)"
	xlink:href="#ubclef"/>
</defs>
<use x="23.54" y="165.00" xlink:href="#bclef"/>
<g font-family="serif" font-size="16" font-weight="bold" font-style="normal"
	transform="translate(42.04,182.50) scale(1.2,1)">
	<text text-anchor="middle">8</text>
	<text y="-12" text-anchor="middle">3</text>
</g>
<use x="84.84" y="174.00" xlink:href="#hd"/>
<path d="M88.34 174.00v-21.00" class="stroke"/>
<use x="132.24" y="171.00" xlink:href="#r8"/>
<use x="164.14" y="162.00" xlink:href="#hd"/>
<path d="M160.64 162.00v25.00" class="stroke"/>
<use x="164.14" y="168.00" xlink:href="#hd"/>
<use x="231.44" y="171.00" xlink:href="#r8"/>
<use x="274.74" y="162.00" xlink:href="#hd"/>
<path d="M271.24 162.00v21.00" class="stroke"/>
<use x="332.14" y="171.00" xlink:href="#r8"/>
<use x="375.44" y="174.00" xlink:href="#hd"/>
<path d="M378.94 174.00v-21.00" class="stroke"/>
<use x="442.64" y="171.00" xlink:href="#r8"/>
<path class="fill"
	d="M482.94 153.00l48.30 0.00v3.20l-48.30 -0.00"/>
<use x="479.74" y="174.00" xlink:href="#hd"/>
<path d="M483.24 174.00v-20.00" class="stroke"/>
<use x="503.64" y="174.00" xlink:href="#hd"/>
<path d="M507.14 174.00v-20.00" class="stroke"/>
<use x="527.34" y="174.00" xlink:href="#hd"/>
<path d="M530.84 174.00v-20.00" class="stroke"/>
<use x="559.24" y="177.00" xlink:href="#hd"/>
<path d="M562.74 177.00v-21.00" class="stroke"/>
<use x="616.54" y="171.00" xlink:href="#r8"/>
<path class="fill"
	d="M663.04 147.70l69.10 8.30v3.20l-69.10 -8.30"/>
<use x="659.94" y="174.00" xlink:href="#hd"/>
<path d="M663.44 174.00v-25.30" class="stroke"/>
<use x="693.54" y="171.00" xlink:href="#hd"/>
<path d="M697.04 171.00v-18.20" class="stroke"/>
<use x="728.34" y="189.00" xlink:href="#hl"/>
<use x="728.34" y="192.00" xlink:href="#hd"/>
<path d="M731.84 192.00v-35.00" class="stroke"/>
<path class="fill"
	d="M767.84 202.20l76.00 0.00v-3.20l-76.00 -0.00"/>
<path class="fill"
	d="M791.94 197.20l51.60 0.00v-3.20l-51.60 -0.00"/>
<use x="771.74" y="183.00" xlink:href="#hd"/>
<path d="M768.24 183.00v18.20" class="stroke"/>
<use x="795.44" y="162.00" xlink:href="#hd"/>
<path d="M791.94 162.00v39.20" class="stroke"/>
<use x="813.44" y="165.00" xlink:href="#hd"/>
<defs>
<path id="unat" class="fill" d="
	m96 -750
	h-32
	v716
	l32 -8
	182 -54
	v282
	h32
	v-706
	l-34 10
	-180 50
	v-290
	m0 592
	v-190
	l182 -52
	v188"/>
<use id="nt0" transform="translate(-3,5) scale(0.018)"
	xlink:href="#unat"/>
</defs>
<use x="804.44" y="165.00" xlink:href="#nt0"/>
<path d="M809.94 165.00v36.20" class="stroke"/>
<use x="830.24" y="168.00" xlink:href="#hd"/>
<path d="M826.74 168.00v33.20" class="stroke"/>
<use x="847.04" y="171.00" xlink:href="#hd"/>
<path d="M843.54 171.00v30.20" class="stroke"/>
</g>
<g stroke-width="0.70" transform="scale(0.867)" font-family="Times" font-size="13.00">
<path class="stroke" stroke-width="1"
	d="M11.54 316.00v-82.00"/>
<path class="fill"
	d="M6.54 231.00
	c10.5 1 12 -4.5 12 -3.5c0 1 -3.5 5.5 -8.5 5.5
	v84.00
	c5 0 8.5 4.5 8.5 5.5c0 1 -1.5 -4.5 -12 -3.5"/>
<use x="143.04" y="258.00" xlink:href="#rdots"/>
<path class="stroke" stroke-width="1"
	d="M139.04 258.00v-24.00"/>
<path class="stroke" stroke-width="3"
	d="M134.54 258.00v-24.00"/>
<use x="143.04" y="316.00" xlink:href="#rdots"/>
<path class="stroke" stroke-width="1"
	d="M139.04 316.00v-58.00"/>
<path class="stroke" stroke-width="3"
	d="M134.54 316.00v-58.00"/>
<path class="stroke" stroke-width="1"
	d="M220.24 258.00v-24.00"/>
<path class="stroke" stroke-width="1"
	d="M220.24 316.00v-58.00"/>
<path class="stroke" stroke-width="1"
	d="M318.24 258.00v-24.00"/>
<path class="stroke" stroke-width="1"
	d="M318.24 316.00v-58.00"/>
<path class="stroke" stroke-width="1"
	d="M407.34 258.00v-24.00"/>
<path class="stroke" stroke-width="1"
	d="M407.34 316.00v-58.00"/>
<path class="stroke" stroke-width="1"
	d="M494.54 258.00v-24.00"/>
<path class="stroke" stroke-width="1"
	d="M494.54 316.00v-58.00"/>
<path class="stroke" stroke-width="1"
	d="M592.44 258.00v-24.00"/>
<path class="stroke" stroke-width="1"
	d="M592.44 316.00v-58.00"/>
<path class="stroke" stroke-width="1"
	d="M690.44 258.00v-24.00"/>
<path class="stroke" stroke-width="1"
	d="M690.44 316.00v-58.00"/>
<path class="stroke" stroke-width="1"
	d="M788.44 258.00v-24.00"/>
<path class="stroke" stroke-width="1"
	d="M788.44 316.00v-58.00"/>
<path class="stroke" stroke-width="3"
	d="M860.54 258.00v-24.00"/>
<path class="stroke" stroke-width="1"
	d="M856.04 258.00v-24.00"/>
<use x="852.04" y="258.00" xlink:href="#rdots"/>
<path class="stroke" stroke-width="3"
	d="M860.54 316.00v-58.00"/>
<path class="stroke" stroke-width="1"
	d="M856.04 316.00v-58.00"/>
<use x="852.04" y="316.00" xlink:href="#rdots"/>
<path d="m11.54 258.00
	h850.50
	M11.54 252.00
	h850.50
	M11.54 246.00
	h850.50
	M11.54 240.00
	h850.50
	M11.54 234.00
	h850.50
	" class="stroke"/>
<path d="m11.54 316.00
	h850.50
	M11.54 310.00
	h850.50
	M11.54 304.00
	h850.50
	M11.54 298.00
	h850.50
	M11.54 292.00
	h850.50
	" class="stroke"/>
<text x="47.54" y="219.40">2</text>
<path class="stroke"
	d="M43.54 208.00m0 20v-20h88.50v20"/>
<use x="23.54" y="252.00" xlink:href="#tclef"/>
<use x="56.04" y="231.00" xlink:href="#hd"/>
<path d="M52.54 231.00v40.00" class="stroke"/>
<use x="56.04" y="252.00" xlink:href="#hd"/>
<use x="56.04" y="246.00" xlink:href="#hd"/>
<use x="56.04" y="240.00" xlink:href="#hd"/>
<use x="108.94" y="246.00" xlink:href="#r8"/>
<path class="fill"
	d="M158.74 268.30l42.10 -6.40v-3.20l-42.10 6.40"/>
<use x="162.54" y="249.00" xlink:href="#hd"/>
<path d="M159.04 249.00v18.20" class="stroke"/>
<use x="182.84" y="240.00" xlink:href="#hd"/>
<path d="M179.34 240.00v24.10" class="stroke"/>
<use x="203.94" y="234.00" xlink:href="#hd"/>
<use x="194.94" y="234.00" xlink:href="#sh0"/>
<path d="M200.44 234.00v26.90" class="stroke"/>
<path class="fill"
	d="M228.94 260.00l73.70 0.00v-3.20l-73.70 -0.00"/>
<path class="fill"
	d="M229.24 255.00l73.00 0.00v-3.20l-73.00 -0.00"/>
<use x="232.74" y="228.00" xlink:href="#hl"/>
<use x="232.74" y="228.00" xlink:href="#hd"/>
<path d="M229.24 228.00v31.00" class="stroke"/>
<use x="247.34" y="231.00" xlink:href="#hd"/>
<path d="M243.84 231.00v28.00" class="stroke"/>
<use x="261.94" y="228.00" xlink:href="#hl"/>
<use x="261.94" y="225.00" xlink:href="#hd"/>
<path d="M258.44 225.00v34.00" class="stroke"/>
<use x="276.54" y="231.00" xlink:href="#hd"/>
<path d="M273.04 231.00v28.00" class="stroke"/>
<use x="291.14" y="240.00" xlink:href="#hd"/>
<path d="M287.64 240.00v19.00" class="stroke"/>
<use x="305.74" y="231.00" xlink:href="#hd"/>
<path d="M302.24 231.00v28.00" class="stroke"/>
<path class="fill"
	d="M326.94 267.50l64.80 -7.30v-3.20l-64.80 7.30"/>
<path class="fill"
	d="M347.54 260.20l43.80 -4.90v-3.20l-43.80 4.90"/>
<use x="330.74" y="237.00" xlink:href="#hd"/>
<path d="M327.24 237.00v29.50" class="stroke"/>
<use x="351.04" y="243.00" xlink:href="#hd"/>
<path d="M347.54 243.00v21.20" class="stroke"/>
<use x="365.64" y="237.00" xlink:href="#hd"/>
<path d="M362.14 237.00v25.60" class="stroke"/>
<use x="380.24" y="231.00" xlink:href="#hd"/>
<path d="M376.74 231.00v29.90" class="stroke"/>
<use x="394.84" y="228.00" xlink:href="#hl"/>
<use x="394.84" y="222.00" xlink:href="#hl"/>
<use x="394.84" y="222.00" xlink:href="#hd"/>
<path d="M391.34 222.00v37.30" class="stroke"/>
<path class="fill"
	d="M416.04 264.90l59.10 6.30v-3.20l-59.10 -6.30"/>
<path class="fill"
	d="M416.34 260.00l43.80 4.70v-3.20l-43.80 -4.70"/>
<use x="419.84" y="237.00" xlink:href="#hd"/>
<path d="M416.34 237.00v27.00" class="stroke"/>
<use x="434.44" y="243.00" xlink:href="#hd"/>
<path d="M430.94 243.00v22.50" class="stroke"/>
<use x="449.04" y="240.00" xlink:href="#hd"/>
<path d="M445.54 240.00v27.10" class="stroke"/>
<use x="463.64" y="246.00" xlink:href="#hd"/>
<path d="M460.14 246.00v22.60" class="stroke"/>
<use x="478.24" y="252.00" xlink:href="#hd"/>
<path d="M474.74 252.00v18.20" class="stroke"/>
<path class="fill"
	d="M503.14 263.50l73.70 -6.20v-3.20l-73.70 6.20"/>
<path class="fill"
	d="M503.54 258.40l73.00 -6.20v-3.20l-73.00 6.20"/>
<use x="507.04" y="237.00" xlink:href="#hd"/>
<path d="M503.54 237.00v25.40" class="stroke"/>
<use x="521.64" y="240.00" xlink:href="#hd"/>
<path d="M518.14 240.00v21.20" class="stroke"/>
<use x="536.24" y="237.00" xlink:href="#hd"/>
<path d="M532.74 237.00v23.00" class="stroke"/>
<use x="550.84" y="231.00" xlink:href="#hd"/>
<path d="M547.34 231.00v27.70" class="stroke"/>
<use x="565.44" y="228.00" xlink:href="#hl"/>
<use x="565.44" y="222.00" xlink:href="#hl"/>
<use x="565.44" y="222.00" xlink:href="#hd"/>
<path d="M561.94 222.00v35.50" class="stroke"/>
<use x="579.94" y="231.00" xlink:href="#hd"/>
<path d="M576.44 231.00v25.20" class="stroke"/>
<path class="fill"
	d="M601.14 260.60l59.10 3.20v-3.20l-59.10 -3.20"/>
<use x="604.94" y="231.00" xlink:href="#hd"/>
<path d="M601.44 231.00v28.60" class="stroke"/>
<use x="634.14" y="243.00" xlink:href="#hd"/>
<path d="M630.64 243.00v18.20" class="stroke"/>
<use x="663.34" y="237.00" xlink:href="#hd"/>
<path d="M659.84 237.00v25.80" class="stroke"/>
<path class="fill"
	d="M699.14 260.00l73.70 0.00v-3.20l-73.70 -0.00"/>
<path class="fill"
	d="M699.44 255.00l73.00 0.00v-3.20l-73.00 -0.00"/>
<use x="702.94" y="234.00" xlink:href="#hd"/>
<path d="M699.44 234.00v25.00" class="stroke"/>
<use x="717.54" y="237.00" xlink:href="#hd"/>
<path d="M714.04 237.00v22.00" class="stroke"/>
<use x="732.14" y="240.00" xlink:href="#hd"/>
<path d="M728.64 240.00v19.00" class="stroke"/>
<use x="746.74" y="237.00" xlink:href="#hd"/>
<path d="M743.24 237.00v22.00" class="stroke"/>
<use x="761.34" y="234.00" xlink:href="#hd"/>
<path d="M757.84 234.00v25.00" class="stroke"/>
<use x="775.94" y="231.00" xlink:href="#hd"/>
<path d="M772.44 231.00v28.00" class="stroke"/>
<use x="800.94" y="243.00" xlink:href="#hd"/>
<path d="M797.44 243.00v21.00" class="stroke"/>
<use x="841.54" y="246.00" xlink:href="#r8"/>
<use x="23.54" y="298.00" xlink:href="#bclef"/>
<path class="fill"
	d="M52.24 335.20l68.20 -5.00v-3.20l-68.20 5.00"/>
<path class="fill"
	d="M72.84 328.70l47.20 -3.40v-3.20l-47.20 3.40"/>
<use x="56.04" y="316.00" xlink:href="#hd"/>
<path d="M52.54 316.00v18.20" class="stroke"/>
<use x="76.34" y="289.00" xlink:href="#hd"/>
<path d="M72.84 289.00v43.70" class="stroke"/>
<use x="90.94" y="295.00" xlink:href="#hd"/>
<path d="M87.44 295.00v36.70" class="stroke"/>
<use x="108.94" y="298.00" xlink:href="#hd"/>
<use x="99.94" y="298.00" xlink:href="#sh0"/>
<path d="M105.44 298.00v32.30" class="stroke"/>
<use x="123.54" y="301.00" xlink:href="#hd"/>
<path d="M120.04 301.00v28.30" class="stroke"/>
<use x="162.54" y="298.00" xlink:href="#hd"/>
<use x="153.54" y="298.00" xlink:href="#sh0"/>
<path d="M159.04 298.00v25.00" class="stroke"/>
<use x="162.54" y="304.00" xlink:href="#hd"/>
<use x="203.94" y="292.00" xlink:href="#hd"/>
<path d="M200.44 292.00v34.00" class="stroke"/>
<path class="fill"
	d="M200.44 326.00c0.6 -5.6 9.6 -9 5.6 -18.4
	1.6 6 -1.3 11.6 -5.6 12.8
"/>
<use x="203.94" y="307.00" xlink:href="#hd"/>
<use x="232.74" y="310.00" xlink:href="#hd"/>
<path d="M236.24 310.00v-25.00" class="stroke"/>
<use x="232.74" y="304.00" xlink:href="#hd"/>
<use x="291.14" y="310.00" xlink:href="#hd"/>
<path d="M294.64 310.00v-25.00" class="stroke"/>
<path class="fill"
	d="M294.64 285.00c0.6 5.6 9.6 9 5.6 18.4
	1.6 -6 -1.3 -11.6 -5.6 -12.8
"/>
<use x="291.14" y="304.00" xlink:href="#hd"/>
<use x="330.74" y="295.00" xlink:href="#hd"/>
<path d="M327.24 295.00v31.00" class="stroke"/>
<use x="330.74" y="307.00" xlink:href="#hd"/>
<use x="380.24" y="301.00" xlink:href="#hd"/>
<path d="M376.74 301.00v25.00" class="stroke"/>
<path class="fill"
	d="M376.74 326.00c0.6 -5.6 9.6 -9 5.6 -18.4
	1.6 6 -1.3 11.6 -5.6 12.8
"/>
<use x="380.24" y="307.00" xlink:href="#hd"/>
<use x="419.84" y="295.00" xlink:href="#hd"/>
<path d="M416.34 295.00v21.00" class="stroke"/>
<use x="478.24" y="304.00" xlink:href="#r8"/>
<use x="507.04" y="295.00" xlink:href="#hd"/>
<path d="M510.54 295.00v-21.00" class="stroke"/>
<use x="565.44" y="301.00" xlink:href="#hd"/>
<path d="M568.94 301.00v-21.00" class="stroke"/>
<path class="fill"
	d="M568.94 280.00c0.6 5.6 9.6 9 5.6 18.4
	1.6 -6 -1.3 -11.6 -5.6 -12.8
"/>
<path class="fill"
	d="M601.14 323.90l73.70 0.00v-3.20l-73.70 -0.00"/>
<path class="fill"
	d="M601.44 318.90l73.00 0.00v-3.20l-73.00 -0.00"/>
<use x="604.94" y="301.00" xlink:href="#hd"/>
<path d="M601.44 301.00v21.90" class="stroke"/>
<use x="604.94" y="307.00" xlink:href="#hd"/>
<use x="619.54" y="295.00" xlink:href="#hd"/>
<path d="M616.04 295.00v27.90" class="stroke"/>
<use x="634.14" y="301.00" xlink:href="#hd"/>
<path d="M630.64 301.00v21.90" class="stroke"/>
<use x="634.14" y="307.00" xlink:href="#hd"/>
<use x="648.74" y="295.00" xlink:href="#hd"/>
<path d="M645.24 295.00v27.90" class="stroke"/>
<use x="663.34" y="301.00" xlink:href="#hd"/>
<path d="M659.84 301.00v21.90" class="stroke"/>
<use x="663.34" y="307.00" xlink:href="#hd"/>
<use x="677.94" y="295.00" xlink:href="#hd"/>
<path d="M674.44 295.00v27.90" class="stroke"/>
<path class="fill"
	d="M699.14 317.90l73.70 0.00v-3.20l-73.70 -0.00"/>
<path class="fill"
	d="M699.44 312.90l73.00 0.00v-3.20l-73.00 -0.00"/>
<use x="702.94" y="292.00" xlink:href="#hd"/>
<path d="M699.44 292.00v25.00" class="stroke"/>
<use x="717.54" y="295.00" xlink:href="#hd"/>
<path d="M714.04 295.00v22.00" class="stroke"/>
<use x="732.14" y="298.00" xlink:href="#hd"/>
<path d="M728.64 298.00v19.00" class="stroke"/>
<use x="746.74" y="295.00" xlink:href="#hd"/>
<path d="M743.24 295.00v22.00" class="stroke"/>
<use x="761.34" y="292.00" xlink:href="#hd"/>
<path d="M757.84 292.00v25.00" class="stroke"/>
<use x="775.94" y="289.00" xlink:href="#hd"/>
<path d="M772.44 289.00v28.00" class="stroke"/>
<path class="fill"
	d="M804.14 287.70l41.30 9.70v3.20l-41.30 -9.70"/>
<use x="800.94" y="307.00" xlink:href="#hd"/>
<path d="M804.44 307.00v-18.20" class="stroke"/>
<use x="821.24" y="316.00" xlink:href="#hd"/>
<path d="M824.74 316.00v-22.40" class="stroke"/>
<use x="841.54" y="322.00" xlink:href="#hl"/>
<use x="841.54" y="328.00" xlink:href="#hl"/>
<use x="841.54" y="328.00" xlink:href="#hd"/>
<path d="M845.04 328.00v-29.70" class="stroke"/>
<use x="507.04" y="307.00" xlink:href="#hd"/>
<path d="M503.54 307.00v21.00" class="stroke"/>
<use x="565.44" y="307.00" xlink:href="#hd"/>
<path d="M561.94 307.00v21.00" class="stroke"/>
<path class="fill"
	d="M561.94 328.00c0.6 -5.6 9.6 -9 5.6 -18.4
	1.6 6 -1.3 11.6 -5.6 12.8
"/>
</g>
</svg>
