<?xml version="1.0" standalone="no"?>
<!DOCTYPE svg PUBLIC "-//W3C//DTD SVG 1.1//EN"
	"http://www.w3.org/Graphics/SVG/1.1/DTD/svg11.dtd">
<svg xmlns="http://www.w3.org/2000/svg" version="1.1"
	xmlns:xlink="http://www.w3.org/1999/xlink"
	color="black"
	width="757.10px" height="300.73px">
<style type="text/css">
.fill {fill: currentColor}
.stroke {stroke: currentColor; fill: none}
text{white-space: pre}
</style>
<title>./K516f-6-4-8-2-12-3-8-11-11-4-6-6-7-11-11-5.abc (3404) tune 1</title>
<!-- Creator: abcm2ps-8.13.8 -->
<!-- CreationDate: Sep  7, 2017 11:19 -->
<!-- CommandLine: ./K516f-6-4-8-2-12-3-8-11-11-4-6-6-7-11-11-5.abc -O ./K516f-6-4-8-2-12-3-8-11-11-4-6-6-7-11-11-5.svg -g -->
<rect width="100%" height="100%" fill="white"/>
<g stroke-width="0.70" transform="scale(0.867)">
<!-- title: 6-4-8-2-12-3-8-11-11-4-6-6-7-11-11-5 -->
</g>
<g stroke-width="0.70" transform="scale(0.867)" font-family="Times" font-size="20.00">
<text x="436.84" y="22.00" text-anchor="middle">6-4-8-2-12-3-8-11-11-4-6-6-7-11-11-5</text>
</g>
<g stroke-width="0.70" transform="scale(0.867)" font-family="Times" font-size="20.00">
<!-- subtitle: $1K.516f::148:95:171:41:28:46:21:33:102:139:64:125:101:59:173:170::$0 -->
</g>
<g stroke-width="0.70" transform="scale(0.867)" font-family="Courier" font-size="8.00" font-weight="bold">
<text x="436.84" y="41.80" text-anchor="middle">K.516f::148:95:171:41:28:46:21:33:102:139:64:125:101:59:173:170::</text>
</g>
<g stroke-width="0.70" transform="scale(0.867)" font-family="Courier" font-size="8.00" font-weight="bold">
<!-- subtitle: $1Perm. No.: 340490619567972$0 -->
<text x="436.84" y="60.80" text-anchor="middle">Perm. No.: 340490619567972</text>
</g>
<g stroke-width="0.70" transform="scale(0.607)" font-family="Courier" font-size="8.00" font-weight="bold">
<defs>
<ellipse id="hd" rx="4.1" ry="2.9"
	transform="rotate(-20)" class="fill"/>
</defs>
<use x="103.06" y="121.29" xlink:href="#hd"/>
<path d="M106.56 121.29v-21.00" class="stroke"/>
<path class="fill"
	d="M106.56 100.29c0.6 5.6 9.6 9 5.6 18.4
	1.6 -6 -1.3 -11.6 -5.6 -12.8
"/>
</g>
<g stroke-width="0.70" transform="scale(0.867)" font-family="Times" font-size="15.00" font-weight="bold">
<text x="81.24" y="87.00">= 111</text>
<path class="stroke" stroke-width="1"
	d="M11.54 191.00v-82.00"/>
<path class="fill"
	d="M6.54 106.00
	c10.5 1 12 -4.5 12 -3.5c0 1 -3.5 5.5 -8.5 5.5
	v84.00
	c5 0 8.5 4.5 8.5 5.5c0 1 -1.5 -4.5 -12 -3.5"/>
<defs>
<g id="rdots" class="fill">
	<circle cx="0" cy="-9" r="1.2"/>
	<circle cx="0" cy="-15" r="1.2"/>
</g>
</defs>
<use x="70.54" y="133.00" xlink:href="#rdots"/>
<path class="stroke" stroke-width="1"
	d="M66.54 133.00v-24.00"/>
<path class="stroke" stroke-width="3"
	d="M62.04 133.00v-24.00"/>
<use x="70.54" y="191.00" xlink:href="#rdots"/>
<path class="stroke" stroke-width="1"
	d="M66.54 191.00v-58.00"/>
<path class="stroke" stroke-width="3"
	d="M62.04 191.00v-58.00"/>
<path class="stroke" stroke-width="1"
	d="M176.44 133.00v-24.00"/>
<path class="stroke" stroke-width="1"
	d="M176.44 191.00v-58.00"/>
<path class="stroke" stroke-width="1"
	d="M251.44 133.00v-24.00"/>
<path class="stroke" stroke-width="1"
	d="M251.44 191.00v-58.00"/>
<path class="stroke" stroke-width="1"
	d="M356.24 133.00v-24.00"/>
<path class="stroke" stroke-width="1"
	d="M356.24 191.00v-58.00"/>
<path class="stroke" stroke-width="1"
	d="M450.14 133.00v-24.00"/>
<path class="stroke" stroke-width="1"
	d="M450.14 191.00v-58.00"/>
<path class="stroke" stroke-width="1"
	d="M560.74 133.00v-24.00"/>
<path class="stroke" stroke-width="1"
	d="M560.74 191.00v-58.00"/>
<path class="stroke" stroke-width="1"
	d="M656.04 133.00v-24.00"/>
<path class="stroke" stroke-width="1"
	d="M656.04 191.00v-58.00"/>
<path class="stroke" stroke-width="1"
	d="M762.94 133.00v-24.00"/>
<path class="stroke" stroke-width="1"
	d="M762.94 191.00v-58.00"/>
<path class="stroke" stroke-width="3"
	d="M860.54 133.00v-24.00"/>
<path class="stroke" stroke-width="1"
	d="M856.04 133.00v-24.00"/>
<use x="852.04" y="133.00" xlink:href="#rdots"/>
<path class="stroke" stroke-width="3"
	d="M860.54 191.00v-58.00"/>
<path class="stroke" stroke-width="1"
	d="M856.04 191.00v-58.00"/>
<use x="852.04" y="191.00" xlink:href="#rdots"/>
<path d="m11.54 133.00
	h850.50
	M11.54 127.00
	h850.50
	M11.54 121.00
	h850.50
	M11.54 115.00
	h850.50
	M11.54 109.00
	h850.50
	" class="stroke"/>
<path d="m11.54 191.00
	h850.50
	M11.54 185.00
	h850.50
	M11.54 179.00
	h850.50
	M11.54 173.00
	h850.50
	M11.54 167.00
	h850.50
	" class="stroke"/>
</g>
<g stroke-width="0.70" transform="scale(0.867)" font-family="Times" font-size="13.00">
<text x="766.94" y="94.40">1</text>
<path class="stroke"
	d="M762.94 83.00m0 20v-20h91.10v20"/>
<defs>
<path id="utclef" class="fill" d="m-50 -90
	c-72 -41 -72 -158 52 -188
	150 -10 220 188 90 256
	-114 52 -275 0 -293 -136
	-15 -181 93 -229 220 -334
	88 -87 79 -133 62 -210
	-51 33 -94 105 -89 186
	17 267 36 374 49 574
	6 96 -19 134 -77 135
	-80 1 -126 -93 -61 -133
	85 -41 133 101 31 105
	23 17 92 37 90 -92
	-10 -223 -39 -342 -50 -617
	0 -90 0 -162 96 -232
	56 72 63 230 22 289
	-74 106 -257 168 -255 316
	9 153 148 185 252 133
	86 -65 29 -192 -80 -176
	-71 12 -105 67 -59 124"/>
<use id="tclef" transform="translate(0,6) scale(0.045)"
	xlink:href="#utclef"/>
</defs>
<use x="23.54" y="127.00" xlink:href="#tclef"/>
<g font-family="serif" font-size="16" font-weight="bold" font-style="normal"
	transform="translate(42.04,132.50) scale(1.2,1)">
	<text text-anchor="middle">8</text>
	<text y="-12" text-anchor="middle">3</text>
</g>
<path class="fill"
	d="M80.44 130.70l80.30 9.50v-3.20l-80.30 -9.50"/>
<path class="fill"
	d="M80.74 125.80l79.60 9.40v-3.20l-79.60 -9.40"/>
<defs>
<path id="hl" class="stroke" d="m-6 0h12"/>
</defs>
<use x="84.24" y="103.00" xlink:href="#hl"/>
<use x="84.24" y="97.00" xlink:href="#hl"/>
<use x="84.24" y="97.00" xlink:href="#hd"/>
<path d="M80.74 97.00v32.80" class="stroke"/>
<use x="100.24" y="103.00" xlink:href="#hl"/>
<use x="100.24" y="100.00" xlink:href="#hd"/>
<path d="M96.74 100.00v31.70" class="stroke"/>
<use x="116.14" y="103.00" xlink:href="#hl"/>
<use x="116.14" y="97.00" xlink:href="#hl"/>
<use x="116.14" y="97.00" xlink:href="#hd"/>
<path d="M112.64 97.00v36.60" class="stroke"/>
<use x="132.04" y="106.00" xlink:href="#hd"/>
<path d="M128.54 106.00v29.40" class="stroke"/>
<use x="147.94" y="112.00" xlink:href="#hd"/>
<path d="M144.44 112.00v25.30" class="stroke"/>
<use x="163.84" y="118.00" xlink:href="#hd"/>
<path d="M160.34 118.00v21.20" class="stroke"/>
<path class="fill"
	d="M185.34 129.30l45.30 7.90v-3.20l-45.30 -7.90"/>
<use x="189.14" y="106.00" xlink:href="#hd"/>
<path d="M185.64 106.00v22.40" class="stroke"/>
<use x="211.54" y="112.00" xlink:href="#hd"/>
<path d="M208.04 112.00v20.30" class="stroke"/>
<use x="233.84" y="118.00" xlink:href="#hd"/>
<path d="M230.34 118.00v18.20" class="stroke"/>
<path class="fill"
	d="M260.34 140.90l80.10 0.00v-3.20l-80.10 -0.00"/>
<path class="fill"
	d="M260.64 135.90l79.50 0.00v-3.20l-79.50 -0.00"/>
<use x="264.14" y="121.00" xlink:href="#hd"/>
<path d="M260.64 121.00v18.90" class="stroke"/>
<use x="280.04" y="118.00" xlink:href="#hd"/>
<path d="M276.54 118.00v21.90" class="stroke"/>
<use x="295.94" y="115.00" xlink:href="#hd"/>
<path d="M292.44 115.00v24.90" class="stroke"/>
<use x="311.84" y="112.00" xlink:href="#hd"/>
<path d="M308.34 112.00v27.90" class="stroke"/>
<use x="327.74" y="109.00" xlink:href="#hd"/>
<path d="M324.24 109.00v30.90" class="stroke"/>
<use x="343.64" y="115.00" xlink:href="#hd"/>
<path d="M340.14 115.00v24.90" class="stroke"/>
<path class="fill"
	d="M365.14 146.20l64.30 0.00v-3.20l-64.30 -0.00"/>
<path class="fill"
	d="M365.44 141.20l47.70 0.00v-3.20l-47.70 -0.00"/>
<use x="368.94" y="118.00" xlink:href="#hd"/>
<path d="M365.44 118.00v27.20" class="stroke"/>
<use x="384.84" y="121.00" xlink:href="#hd"/>
<path d="M381.34 121.00v24.20" class="stroke"/>
<use x="400.74" y="118.00" xlink:href="#hd"/>
<path d="M397.24 118.00v27.20" class="stroke"/>
<use x="416.64" y="112.00" xlink:href="#hd"/>
<path d="M413.14 112.00v33.20" class="stroke"/>
<use x="432.54" y="127.00" xlink:href="#hd"/>
<path d="M429.04 127.00v18.20" class="stroke"/>
<path class="fill"
	d="M464.84 146.20l80.10 0.00v-3.20l-80.10 -0.00"/>
<path class="fill"
	d="M465.14 141.20l79.50 0.00v-3.20l-79.50 -0.00"/>
<use x="468.64" y="109.00" xlink:href="#hd"/>
<defs>
<path id="usharp" class="fill" d="
	m136 -702
	v890
	h32
	v-890
	m128 840
	h32
	v-888
	h-32
	m-232 286
	v116
	l338 -96
	v-116
	m-338 442
	v116
	l338 -98
	v-114"/>
<use id="sh0" transform="translate(-4,5) scale(0.018)"
	xlink:href="#usharp"/>
</defs>
<use x="459.64" y="109.00" xlink:href="#sh0"/>
<path d="M465.14 109.00v36.20" class="stroke"/>
<use x="484.54" y="115.00" xlink:href="#hd"/>
<path d="M481.04 115.00v30.20" class="stroke"/>
<use x="500.44" y="124.00" xlink:href="#hd"/>
<path d="M496.94 124.00v21.20" class="stroke"/>
<use x="516.34" y="103.00" xlink:href="#hl"/>
<use x="516.34" y="103.00" xlink:href="#hd"/>
<path d="M512.84 103.00v42.20" class="stroke"/>
<use x="532.24" y="109.00" xlink:href="#hd"/>
<path d="M528.74 109.00v36.20" class="stroke"/>
<use x="548.14" y="115.00" xlink:href="#hd"/>
<path d="M544.64 115.00v30.20" class="stroke"/>
<path class="fill"
	d="M569.54 135.10l70.70 8.10v-3.20l-70.70 -8.10"/>
<path class="fill"
	d="M592.24 132.70l47.70 5.50v-3.20l-47.70 -5.50"/>
<use x="573.44" y="106.00" xlink:href="#hd"/>
<path d="M569.94 106.00v28.20" class="stroke"/>
<use x="595.74" y="103.00" xlink:href="#hl"/>
<use x="595.74" y="100.00" xlink:href="#hd"/>
<path d="M592.24 100.00v36.70" class="stroke"/>
<use x="611.64" y="106.00" xlink:href="#hd"/>
<path d="M608.14 106.00v32.50" class="stroke"/>
<use x="627.54" y="115.00" xlink:href="#hd"/>
<path d="M624.04 115.00v25.40" class="stroke"/>
<use x="643.44" y="121.00" xlink:href="#hd"/>
<path d="M639.94 121.00v21.20" class="stroke"/>
<path class="fill"
	d="M664.94 146.20l82.30 0.00v-3.20l-82.30 -0.00"/>
<path class="fill"
	d="M665.24 141.20l81.60 0.00v-3.20l-81.60 -0.00"/>
<use x="668.74" y="118.00" xlink:href="#hd"/>
<path d="M665.24 118.00v27.20" class="stroke"/>
<use x="684.64" y="112.00" xlink:href="#hd"/>
<path d="M681.14 112.00v33.20" class="stroke"/>
<use x="700.54" y="106.00" xlink:href="#hd"/>
<path d="M697.04 106.00v39.20" class="stroke"/>
<use x="716.44" y="115.00" xlink:href="#hd"/>
<path d="M712.94 115.00v30.20" class="stroke"/>
<use x="732.34" y="124.00" xlink:href="#hd"/>
<path d="M728.84 124.00v21.20" class="stroke"/>
<use x="750.34" y="109.00" xlink:href="#hd"/>
<use x="741.34" y="109.00" xlink:href="#sh0"/>
<path d="M746.84 109.00v36.20" class="stroke"/>
<use x="775.64" y="106.00" xlink:href="#hd"/>
<path d="M772.14 106.00v40.00" class="stroke"/>
<use x="775.64" y="127.00" xlink:href="#hd"/>
<use x="775.64" y="121.00" xlink:href="#hd"/>
<use x="775.64" y="115.00" xlink:href="#hd"/>
<defs>
<path id="r8e" class="fill" d="m 0 0
	c-1.5 1.5 -2.4 2 -3.6 2
	2.4 -2.8 -2.8 -4 -2.8 -1.2
	c0 2.7 4.3 2.4 5.9 0.6"/>
<g id="r8">
	<path d="m3.3 -4l-3.4 9.6" class="stroke"/>
	<use x="3.4" y="-4" xlink:href="#r8e"/>
</g>
</defs>
<use x="831.84" y="121.00" xlink:href="#r8"/>
<defs>
<path id="ubclef" class="fill" d="m-200 -87
	c124 -35 222 -78 254 -236
	43 -228 -167 -246 -192 -103
	59 -80 157 22 92 78
	-62 47 -115 -22 -106 -88
	21 -141 270 -136 274 52
	-1 175 -106 264 -322 297
	m357 -250
	c0 -36 51 -34 51 0
	0 37 -51 36 -51 0
	m-2 -129
	c0 -36 51 -34 51 0
	0 38 -51 37 -51 0"/>
<use id="bclef" transform="translate(0,18) scale(0.045)"
	xlink:href="#ubclef"/>
</defs>
<use x="23.54" y="173.00" xlink:href="#bclef"/>
<g font-family="serif" font-size="16" font-weight="bold" font-style="normal"
	transform="translate(42.04,190.50) scale(1.2,1)">
	<text text-anchor="middle">8</text>
	<text y="-12" text-anchor="middle">3</text>
</g>
<use x="84.24" y="176.00" xlink:href="#hd"/>
<path d="M80.74 176.00v25.00" class="stroke"/>
<use x="84.24" y="182.00" xlink:href="#hd"/>
<use x="147.94" y="179.00" xlink:href="#r8"/>
<use x="189.14" y="176.00" xlink:href="#hd"/>
<path d="M192.64 176.00v-21.00" class="stroke"/>
<use x="233.84" y="179.00" xlink:href="#r8"/>
<use x="264.14" y="191.00" xlink:href="#hd"/>
<path d="M267.64 191.00v-40.00" class="stroke"/>
<use x="264.14" y="170.00" xlink:href="#hd"/>
<use x="327.74" y="170.00" xlink:href="#hd"/>
<path d="M324.24 170.00v34.00" class="stroke"/>
<path class="fill"
	d="M324.24 204.00c0.6 -5.6 9.6 -9 5.6 -18.4
	1.6 6 -1.3 11.6 -5.6 12.8
"/>
<use x="327.74" y="185.00" xlink:href="#hd"/>
<use x="368.94" y="176.00" xlink:href="#hd"/>
<path d="M365.44 176.00v25.00" class="stroke"/>
<use x="368.94" y="182.00" xlink:href="#hd"/>
<use x="432.54" y="179.00" xlink:href="#r8"/>
<use x="468.64" y="167.00" xlink:href="#hd"/>
<path d="M465.14 167.00v34.00" class="stroke"/>
<use x="468.64" y="182.00" xlink:href="#hd"/>
<use x="532.24" y="179.00" xlink:href="#r8"/>
<use x="573.44" y="185.00" xlink:href="#hd"/>
<path d="M576.94 185.00v-25.00" class="stroke"/>
<use x="573.44" y="179.00" xlink:href="#hd"/>
<use x="627.54" y="179.00" xlink:href="#r8"/>
<path class="fill"
	d="M671.94 155.70l64.30 8.10v3.20l-64.30 -8.10"/>
<use x="668.74" y="182.00" xlink:href="#hd"/>
<path d="M672.24 182.00v-25.20" class="stroke"/>
<use x="700.54" y="179.00" xlink:href="#hd"/>
<path d="M704.04 179.00v-18.20" class="stroke"/>
<use x="732.34" y="197.00" xlink:href="#hl"/>
<use x="732.34" y="200.00" xlink:href="#hd"/>
<path d="M735.84 200.00v-35.20" class="stroke"/>
<path class="fill"
	d="M771.84 210.20l72.80 0.00v-3.20l-72.80 -0.00"/>
<path class="fill"
	d="M794.44 205.20l49.80 0.00v-3.20l-49.80 -0.00"/>
<use x="775.64" y="191.00" xlink:href="#hd"/>
<path d="M772.14 191.00v18.20" class="stroke"/>
<use x="797.94" y="170.00" xlink:href="#hd"/>
<path d="M794.44 170.00v39.20" class="stroke"/>
<use x="815.94" y="173.00" xlink:href="#hd"/>
<defs>
<path id="unat" class="fill" d="
	m96 -750
	h-32
	v716
	l32 -8
	182 -54
	v282
	h32
	v-706
	l-34 10
	-180 50
	v-290
	m0 592
	v-190
	l182 -52
	v188"/>
<use id="nt0" transform="translate(-3,5) scale(0.018)"
	xlink:href="#unat"/>
</defs>
<use x="806.94" y="173.00" xlink:href="#nt0"/>
<path d="M812.44 173.00v36.20" class="stroke"/>
<use x="831.84" y="176.00" xlink:href="#hd"/>
<path d="M828.34 176.00v33.20" class="stroke"/>
<use x="847.74" y="179.00" xlink:href="#hd"/>
<path d="M844.24 179.00v30.20" class="stroke"/>
<use x="189.14" y="182.00" xlink:href="#hd"/>
<path d="M185.64 182.00v21.00" class="stroke"/>
</g>
<g stroke-width="0.70" transform="scale(0.867)" font-family="Times" font-size="13.00">
<path class="stroke" stroke-width="1"
	d="M11.54 324.00v-82.00"/>
<path class="fill"
	d="M6.54 239.00
	c10.5 1 12 -4.5 12 -3.5c0 1 -3.5 5.5 -8.5 5.5
	v84.00
	c5 0 8.5 4.5 8.5 5.5c0 1 -1.5 -4.5 -12 -3.5"/>
<use x="142.84" y="266.00" xlink:href="#rdots"/>
<path class="stroke" stroke-width="1"
	d="M138.84 266.00v-24.00"/>
<path class="stroke" stroke-width="3"
	d="M134.34 266.00v-24.00"/>
<use x="142.84" y="324.00" xlink:href="#rdots"/>
<path class="stroke" stroke-width="1"
	d="M138.84 324.00v-58.00"/>
<path class="stroke" stroke-width="3"
	d="M134.34 324.00v-58.00"/>
<path class="stroke" stroke-width="1"
	d="M230.04 266.00v-24.00"/>
<path class="stroke" stroke-width="1"
	d="M230.04 324.00v-58.00"/>
<path class="stroke" stroke-width="1"
	d="M316.94 266.00v-24.00"/>
<path class="stroke" stroke-width="1"
	d="M316.94 324.00v-58.00"/>
<path class="stroke" stroke-width="1"
	d="M414.64 266.00v-24.00"/>
<path class="stroke" stroke-width="1"
	d="M414.64 324.00v-58.00"/>
<path class="stroke" stroke-width="1"
	d="M501.54 266.00v-24.00"/>
<path class="stroke" stroke-width="1"
	d="M501.54 324.00v-58.00"/>
<path class="stroke" stroke-width="1"
	d="M599.24 266.00v-24.00"/>
<path class="stroke" stroke-width="1"
	d="M599.24 324.00v-58.00"/>
<path class="stroke" stroke-width="1"
	d="M696.94 266.00v-24.00"/>
<path class="stroke" stroke-width="1"
	d="M696.94 324.00v-58.00"/>
<path class="stroke" stroke-width="1"
	d="M788.54 266.00v-24.00"/>
<path class="stroke" stroke-width="1"
	d="M788.54 324.00v-58.00"/>
<path class="stroke" stroke-width="3"
	d="M860.54 266.00v-24.00"/>
<path class="stroke" stroke-width="1"
	d="M856.04 266.00v-24.00"/>
<use x="852.04" y="266.00" xlink:href="#rdots"/>
<path class="stroke" stroke-width="3"
	d="M860.54 324.00v-58.00"/>
<path class="stroke" stroke-width="1"
	d="M856.04 324.00v-58.00"/>
<use x="852.04" y="324.00" xlink:href="#rdots"/>
<path d="m11.54 266.00
	h850.50
	M11.54 260.00
	h850.50
	M11.54 254.00
	h850.50
	M11.54 248.00
	h850.50
	M11.54 242.00
	h850.50
	" class="stroke"/>
<path d="m11.54 324.00
	h850.50
	M11.54 318.00
	h850.50
	M11.54 312.00
	h850.50
	M11.54 306.00
	h850.50
	M11.54 300.00
	h850.50
	" class="stroke"/>
<text x="47.54" y="227.40">2</text>
<path class="stroke"
	d="M43.54 216.00m0 20v-20h88.30v20"/>
<use x="23.54" y="260.00" xlink:href="#tclef"/>
<use x="56.04" y="239.00" xlink:href="#hd"/>
<path d="M52.54 239.00v40.00" class="stroke"/>
<use x="56.04" y="260.00" xlink:href="#hd"/>
<use x="56.04" y="254.00" xlink:href="#hd"/>
<use x="56.04" y="248.00" xlink:href="#hd"/>
<use x="108.84" y="254.00" xlink:href="#r8"/>
<path class="fill"
	d="M158.54 270.60l29.80 5.70v-3.20l-29.80 -5.70"/>
<path class="fill"
	d="M158.84 265.60l14.50 2.80v-3.20l-14.50 -2.80"/>
<use x="162.34" y="242.00" xlink:href="#hd"/>
<use x="153.34" y="242.00" xlink:href="#sh0"/>
<path d="M158.84 242.00v27.60" class="stroke"/>
<use x="176.84" y="248.00" xlink:href="#hd"/>
<path d="M173.34 248.00v24.40" class="stroke"/>
<use x="191.44" y="257.00" xlink:href="#hd"/>
<path d="M187.94 257.00v18.20" class="stroke"/>
<use x="213.84" y="242.00" xlink:href="#hd"/>
<path d="M210.34 242.00v21.00" class="stroke"/>
<path class="fill"
	d="M210.34 263.00c0.6 -5.6 9.6 -9 5.6 -18.4
	1.6 6 -1.3 11.6 -5.6 12.8
"/>
<path class="fill"
	d="M238.74 268.00l58.80 0.00v-3.20l-58.80 -0.00"/>
<path class="fill"
	d="M239.04 263.00l43.60 0.00v-3.20l-43.60 -0.00"/>
<use x="242.54" y="239.00" xlink:href="#hd"/>
<path d="M239.04 239.00v28.00" class="stroke"/>
<use x="257.04" y="236.00" xlink:href="#hl"/>
<use x="257.04" y="233.00" xlink:href="#hd"/>
<path d="M253.54 233.00v34.00" class="stroke"/>
<use x="271.64" y="239.00" xlink:href="#hd"/>
<path d="M268.14 239.00v28.00" class="stroke"/>
<use x="286.14" y="236.00" xlink:href="#hl"/>
<use x="286.14" y="233.00" xlink:href="#hd"/>
<path d="M282.64 233.00v34.00" class="stroke"/>
<use x="300.74" y="248.00" xlink:href="#hd"/>
<path d="M297.24 248.00v19.00" class="stroke"/>
<path class="fill"
	d="M325.64 274.00l73.40 0.00v-3.20l-73.40 -0.00"/>
<path class="fill"
	d="M325.94 269.00l72.70 0.00v-3.20l-72.70 -0.00"/>
<use x="329.44" y="245.00" xlink:href="#hd"/>
<path d="M325.94 245.00v27.90" class="stroke"/>
<use x="343.94" y="239.00" xlink:href="#hd"/>
<path d="M340.44 239.00v33.90" class="stroke"/>
<use x="358.54" y="236.00" xlink:href="#hl"/>
<use x="358.54" y="230.00" xlink:href="#hl"/>
<use x="358.54" y="230.00" xlink:href="#hd"/>
<path d="M355.04 230.00v42.90" class="stroke"/>
<use x="373.04" y="239.00" xlink:href="#hd"/>
<path d="M369.54 239.00v33.90" class="stroke"/>
<use x="387.64" y="245.00" xlink:href="#hd"/>
<path d="M384.14 245.00v27.90" class="stroke"/>
<use x="402.14" y="251.00" xlink:href="#hd"/>
<path d="M398.64 251.00v21.90" class="stroke"/>
<path class="fill"
	d="M423.34 270.50l58.80 8.70v-3.20l-58.80 -8.70"/>
<path class="fill"
	d="M423.64 265.60l43.60 6.50v-3.20l-43.60 -6.50"/>
<use x="427.14" y="239.00" xlink:href="#hd"/>
<path d="M423.64 239.00v30.60" class="stroke"/>
<use x="441.64" y="245.00" xlink:href="#hd"/>
<path d="M438.14 245.00v26.70" class="stroke"/>
<use x="456.24" y="248.00" xlink:href="#hd"/>
<path d="M452.74 248.00v25.90" class="stroke"/>
<use x="470.74" y="254.00" xlink:href="#hd"/>
<path d="M467.24 254.00v22.00" class="stroke"/>
<use x="485.34" y="260.00" xlink:href="#hd"/>
<path d="M481.84 260.00v18.20" class="stroke"/>
<path class="fill"
	d="M510.24 271.50l73.40 -6.20v-3.20l-73.40 6.20"/>
<path class="fill"
	d="M510.54 266.40l72.70 -6.20v-3.20l-72.70 6.20"/>
<use x="514.04" y="245.00" xlink:href="#hd"/>
<path d="M510.54 245.00v25.40" class="stroke"/>
<use x="528.54" y="248.00" xlink:href="#hd"/>
<path d="M525.04 248.00v21.20" class="stroke"/>
<use x="543.14" y="245.00" xlink:href="#hd"/>
<path d="M539.64 245.00v23.00" class="stroke"/>
<use x="557.64" y="239.00" xlink:href="#hd"/>
<path d="M554.14 239.00v27.70" class="stroke"/>
<use x="572.24" y="236.00" xlink:href="#hl"/>
<use x="572.24" y="230.00" xlink:href="#hl"/>
<use x="572.24" y="230.00" xlink:href="#hd"/>
<path d="M568.74 230.00v35.50" class="stroke"/>
<use x="586.74" y="239.00" xlink:href="#hd"/>
<path d="M583.24 239.00v25.20" class="stroke"/>
<path class="fill"
	d="M607.94 268.60l58.80 3.20v-3.20l-58.80 -3.20"/>
<use x="611.74" y="239.00" xlink:href="#hd"/>
<path d="M608.24 239.00v28.60" class="stroke"/>
<use x="640.84" y="251.00" xlink:href="#hd"/>
<path d="M637.34 251.00v18.20" class="stroke"/>
<use x="669.94" y="245.00" xlink:href="#hd"/>
<path d="M666.44 245.00v25.80" class="stroke"/>
<path class="fill"
	d="M705.64 264.30l15.20 -3.40v-3.20l-15.20 3.40"/>
<path class="fill"
	d="M705.94 259.20l14.50 -3.30v-3.20l-14.50 3.30"/>
<use x="709.44" y="242.00" xlink:href="#hd"/>
<path d="M705.94 242.00v21.20" class="stroke"/>
<use x="723.94" y="236.00" xlink:href="#hl"/>
<use x="723.94" y="236.00" xlink:href="#hd"/>
<path d="M720.44 236.00v23.90" class="stroke"/>
<use x="738.54" y="257.00" xlink:href="#hd"/>
<path d="M742.04 257.00v-21.00" class="stroke"/>
<path class="fill"
	d="M742.04 236.00c0.6 5.6 9.6 9 5.6 18.4
	1.6 -6 -1.3 -11.6 -5.6 -12.8
"/>
<path class="fill"
	d="M757.74 276.30l15.20 -3.40v-3.20l-15.20 3.40"/>
<path class="fill"
	d="M758.04 271.20l14.50 -3.30v-3.20l-14.50 3.30"/>
<use x="761.54" y="254.00" xlink:href="#hd"/>
<path d="M758.04 254.00v21.20" class="stroke"/>
<use x="776.04" y="248.00" xlink:href="#hd"/>
<path d="M772.54 248.00v23.90" class="stroke"/>
<use x="801.04" y="251.00" xlink:href="#hd"/>
<path d="M797.54 251.00v21.00" class="stroke"/>
<use x="841.54" y="254.00" xlink:href="#r8"/>
<use x="23.54" y="306.00" xlink:href="#bclef"/>
<path class="fill"
	d="M52.24 343.20l68.00 -5.00v-3.20l-68.00 5.00"/>
<path class="fill"
	d="M72.74 336.70l47.10 -3.40v-3.20l-47.10 3.40"/>
<use x="56.04" y="324.00" xlink:href="#hd"/>
<path d="M52.54 324.00v18.20" class="stroke"/>
<use x="76.24" y="297.00" xlink:href="#hd"/>
<path d="M72.74 297.00v43.70" class="stroke"/>
<use x="90.84" y="303.00" xlink:href="#hd"/>
<path d="M87.34 303.00v36.70" class="stroke"/>
<use x="108.84" y="306.00" xlink:href="#hd"/>
<use x="99.84" y="306.00" xlink:href="#sh0"/>
<path d="M105.34 306.00v32.30" class="stroke"/>
<use x="123.34" y="309.00" xlink:href="#hd"/>
<path d="M119.84 309.00v28.30" class="stroke"/>
<use x="162.34" y="300.00" xlink:href="#hd"/>
<path d="M158.84 300.00v34.00" class="stroke"/>
<use x="162.34" y="315.00" xlink:href="#hd"/>
<use x="213.84" y="300.00" xlink:href="#hd"/>
<path d="M210.34 300.00v34.00" class="stroke"/>
<path class="fill"
	d="M210.34 334.00c0.6 -5.6 9.6 -9 5.6 -18.4
	1.6 6 -1.3 11.6 -5.6 12.8
"/>
<use x="213.84" y="315.00" xlink:href="#hd"/>
<use x="242.54" y="318.00" xlink:href="#hd"/>
<path d="M246.04 318.00v-21.00" class="stroke"/>
<use x="300.74" y="312.00" xlink:href="#r8"/>
<use x="329.44" y="303.00" xlink:href="#hd"/>
<path d="M325.94 303.00v31.00" class="stroke"/>
<use x="329.44" y="315.00" xlink:href="#hd"/>
<use x="387.64" y="303.00" xlink:href="#hd"/>
<path d="M384.14 303.00v31.00" class="stroke"/>
<path class="fill"
	d="M384.14 334.00c0.6 -5.6 9.6 -9 5.6 -18.4
	1.6 6 -1.3 11.6 -5.6 12.8
"/>
<use x="387.64" y="315.00" xlink:href="#hd"/>
<path class="fill"
	d="M430.34 283.70l29.80 8.80v3.20l-29.80 -8.80"/>
<use x="427.14" y="303.00" xlink:href="#hd"/>
<path d="M430.64 303.00v-18.20" class="stroke"/>
<use x="456.24" y="324.00" xlink:href="#hd"/>
<path d="M459.74 324.00v-30.60" class="stroke"/>
<use x="485.34" y="312.00" xlink:href="#r8"/>
<use x="514.04" y="303.00" xlink:href="#hd"/>
<path d="M517.54 303.00v-21.00" class="stroke"/>
<use x="572.24" y="309.00" xlink:href="#hd"/>
<path d="M575.74 309.00v-21.00" class="stroke"/>
<path class="fill"
	d="M575.74 288.00c0.6 5.6 9.6 9 5.6 18.4
	1.6 -6 -1.3 -11.6 -5.6 -12.8
"/>
<path class="fill"
	d="M607.94 331.90l73.40 0.00v-3.20l-73.40 -0.00"/>
<path class="fill"
	d="M608.24 326.90l72.70 0.00v-3.20l-72.70 -0.00"/>
<use x="611.74" y="309.00" xlink:href="#hd"/>
<path d="M608.24 309.00v21.90" class="stroke"/>
<use x="611.74" y="315.00" xlink:href="#hd"/>
<use x="626.24" y="303.00" xlink:href="#hd"/>
<path d="M622.74 303.00v27.90" class="stroke"/>
<use x="640.84" y="309.00" xlink:href="#hd"/>
<path d="M637.34 309.00v21.90" class="stroke"/>
<use x="640.84" y="315.00" xlink:href="#hd"/>
<use x="655.34" y="303.00" xlink:href="#hd"/>
<path d="M651.84 303.00v27.90" class="stroke"/>
<use x="669.94" y="309.00" xlink:href="#hd"/>
<path d="M666.44 309.00v21.90" class="stroke"/>
<use x="669.94" y="315.00" xlink:href="#hd"/>
<use x="684.44" y="303.00" xlink:href="#hd"/>
<path d="M680.94 303.00v27.90" class="stroke"/>
<use x="709.44" y="306.00" xlink:href="#hd"/>
<path d="M705.94 306.00v21.00" class="stroke"/>
<use x="761.54" y="303.00" xlink:href="#hd"/>
<path d="M758.04 303.00v21.00" class="stroke"/>
<path class="fill"
	d="M758.04 324.00c0.6 -5.6 9.6 -9 5.6 -18.4
	1.6 6 -1.3 11.6 -5.6 12.8
"/>
<path class="fill"
	d="M804.24 295.70l41.10 9.70v3.20l-41.10 -9.70"/>
<use x="801.04" y="315.00" xlink:href="#hd"/>
<path d="M804.54 315.00v-18.20" class="stroke"/>
<use x="821.34" y="324.00" xlink:href="#hd"/>
<path d="M824.84 324.00v-22.40" class="stroke"/>
<use x="841.54" y="330.00" xlink:href="#hl"/>
<use x="841.54" y="336.00" xlink:href="#hl"/>
<use x="841.54" y="336.00" xlink:href="#hd"/>
<path d="M845.04 336.00v-29.70" class="stroke"/>
<use x="514.04" y="315.00" xlink:href="#hd"/>
<path d="M510.54 315.00v21.00" class="stroke"/>
<use x="572.24" y="315.00" xlink:href="#hd"/>
<path d="M568.74 315.00v21.00" class="stroke"/>
<path class="fill"
	d="M568.74 336.00c0.6 -5.6 9.6 -9 5.6 -18.4
	1.6 6 -1.3 11.6 -5.6 12.8
"/>
</g>
</svg>
