<?xml version="1.0" standalone="no"?>
<!DOCTYPE svg PUBLIC "-//W3C//DTD SVG 1.1//EN"
	"http://www.w3.org/Graphics/SVG/1.1/DTD/svg11.dtd">
<svg xmlns="http://www.w3.org/2000/svg" version="1.1"
	xmlns:xlink="http://www.w3.org/1999/xlink"
	color="black"
	width="757.10px" height="293.80px">
<style type="text/css">
.fill {fill: currentColor}
.stroke {stroke: currentColor; fill: none}
text{white-space: pre}
</style>
<title>./K516f-5-11-12-5-5-3-12-7-2-6-3-7-5-9-2-11.abc (2295) tune 1</title>
<!-- Creator: abcm2ps-8.13.8 -->
<!-- CreationDate: Sep  7, 2017 11:19 -->
<!-- CommandLine: ./K516f-5-11-12-5-5-3-12-7-2-6-3-7-5-9-2-11.abc -O ./K516f-5-11-12-5-5-3-12-7-2-6-3-7-5-9-2-11.svg -g -->
<rect width="100%" height="100%" fill="white"/>
<g stroke-width="0.70" transform="scale(0.867)">
<!-- title: 5-11-12-5-5-3-12-7-2-6-3-7-5-9-2-11 -->
</g>
<g stroke-width="0.70" transform="scale(0.867)" font-family="Times" font-size="20.00">
<text x="436.84" y="22.00" text-anchor="middle">5-11-12-5-5-3-12-7-2-6-3-7-5-9-2-11</text>
</g>
<g stroke-width="0.70" transform="scale(0.867)" font-family="Times" font-size="20.00">
<!-- subtitle: $1K.516f::40:87:10:85:161:46:106:91:70:143:126:29:67:115:109:78::$0 -->
</g>
<g stroke-width="0.70" transform="scale(0.867)" font-family="Courier" font-size="8.00" font-weight="bold">
<text x="436.84" y="41.80" text-anchor="middle">K.516f::40:87:10:85:161:46:106:91:70:143:126:29:67:115:109:78::</text>
</g>
<g stroke-width="0.70" transform="scale(0.867)" font-family="Courier" font-size="8.00" font-weight="bold">
<!-- subtitle: $1Perm. No.: 22957854080990$0 -->
<text x="436.84" y="60.80" text-anchor="middle">Perm. No.: 22957854080990</text>
</g>
<g stroke-width="0.70" transform="scale(0.607)" font-family="Courier" font-size="8.00" font-weight="bold">
<defs>
<ellipse id="hd" rx="4.1" ry="2.9"
	transform="rotate(-20)" class="fill"/>
</defs>
<use x="103.06" y="121.29" xlink:href="#hd"/>
<path d="M106.56 121.29v-21.00" class="stroke"/>
<path class="fill"
	d="M106.56 100.29c0.6 5.6 9.6 9 5.6 18.4
	1.6 -6 -1.3 -11.6 -5.6 -12.8
"/>
</g>
<g stroke-width="0.70" transform="scale(0.867)" font-family="Times" font-size="15.00" font-weight="bold">
<text x="81.24" y="87.00">= 111</text>
<path class="stroke" stroke-width="1"
	d="M11.54 183.00v-82.00"/>
<path class="fill"
	d="M6.54 98.00
	c10.5 1 12 -4.5 12 -3.5c0 1 -3.5 5.5 -8.5 5.5
	v84.00
	c5 0 8.5 4.5 8.5 5.5c0 1 -1.5 -4.5 -12 -3.5"/>
<defs>
<g id="rdots" class="fill">
	<circle cx="0" cy="-9" r="1.2"/>
	<circle cx="0" cy="-15" r="1.2"/>
</g>
</defs>
<use x="70.54" y="125.00" xlink:href="#rdots"/>
<path class="stroke" stroke-width="1"
	d="M66.54 125.00v-24.00"/>
<path class="stroke" stroke-width="3"
	d="M62.04 125.00v-24.00"/>
<use x="70.54" y="183.00" xlink:href="#rdots"/>
<path class="stroke" stroke-width="1"
	d="M66.54 183.00v-58.00"/>
<path class="stroke" stroke-width="3"
	d="M62.04 183.00v-58.00"/>
<path class="stroke" stroke-width="1"
	d="M185.24 125.00v-24.00"/>
<path class="stroke" stroke-width="1"
	d="M185.24 183.00v-58.00"/>
<path class="stroke" stroke-width="1"
	d="M266.84 125.00v-24.00"/>
<path class="stroke" stroke-width="1"
	d="M266.84 183.00v-58.00"/>
<path class="stroke" stroke-width="1"
	d="M380.54 125.00v-24.00"/>
<path class="stroke" stroke-width="1"
	d="M380.54 183.00v-58.00"/>
<path class="stroke" stroke-width="1"
	d="M462.14 125.00v-24.00"/>
<path class="stroke" stroke-width="1"
	d="M462.14 183.00v-58.00"/>
<path class="stroke" stroke-width="1"
	d="M548.84 125.00v-24.00"/>
<path class="stroke" stroke-width="1"
	d="M548.84 183.00v-58.00"/>
<path class="stroke" stroke-width="1"
	d="M652.34 125.00v-24.00"/>
<path class="stroke" stroke-width="1"
	d="M652.34 183.00v-58.00"/>
<path class="stroke" stroke-width="1"
	d="M755.94 125.00v-24.00"/>
<path class="stroke" stroke-width="1"
	d="M755.94 183.00v-58.00"/>
<path class="stroke" stroke-width="3"
	d="M860.54 125.00v-24.00"/>
<path class="stroke" stroke-width="1"
	d="M856.04 125.00v-24.00"/>
<use x="852.04" y="125.00" xlink:href="#rdots"/>
<path class="stroke" stroke-width="3"
	d="M860.54 183.00v-58.00"/>
<path class="stroke" stroke-width="1"
	d="M856.04 183.00v-58.00"/>
<use x="852.04" y="183.00" xlink:href="#rdots"/>
<path d="m11.54 125.00
	h850.50
	M11.54 119.00
	h850.50
	M11.54 113.00
	h850.50
	M11.54 107.00
	h850.50
	M11.54 101.00
	h850.50
	" class="stroke"/>
<path d="m11.54 183.00
	h850.50
	M11.54 177.00
	h850.50
	M11.54 171.00
	h850.50
	M11.54 165.00
	h850.50
	M11.54 159.00
	h850.50
	" class="stroke"/>
</g>
<g stroke-width="0.70" transform="scale(0.867)" font-family="Times" font-size="13.00">
<text x="759.94" y="86.40">1</text>
<path class="stroke"
	d="M755.94 75.00m0 20v-20h98.10v20"/>
<defs>
<path id="utclef" class="fill" d="m-50 -90
	c-72 -41 -72 -158 52 -188
	150 -10 220 188 90 256
	-114 52 -275 0 -293 -136
	-15 -181 93 -229 220 -334
	88 -87 79 -133 62 -210
	-51 33 -94 105 -89 186
	17 267 36 374 49 574
	6 96 -19 134 -77 135
	-80 1 -126 -93 -61 -133
	85 -41 133 101 31 105
	23 17 92 37 90 -92
	-10 -223 -39 -342 -50 -617
	0 -90 0 -162 96 -232
	56 72 63 230 22 289
	-74 106 -257 168 -255 316
	9 153 148 185 252 133
	86 -65 29 -192 -80 -176
	-71 12 -105 67 -59 124"/>
<use id="tclef" transform="translate(0,6) scale(0.045)"
	xlink:href="#utclef"/>
</defs>
<use x="23.54" y="119.00" xlink:href="#tclef"/>
<g font-family="serif" font-size="16" font-weight="bold" font-style="normal"
	transform="translate(42.04,124.50) scale(1.2,1)">
	<text text-anchor="middle">8</text>
	<text y="-12" text-anchor="middle">3</text>
</g>
<path class="fill"
	d="M81.34 141.20l87.20 0.00v-3.20l-87.20 -0.00"/>
<path class="fill"
	d="M81.74 136.20l86.50 0.00v-3.20l-86.50 -0.00"/>
<use x="85.24" y="110.00" xlink:href="#hd"/>
<path d="M81.74 110.00v30.20" class="stroke"/>
<use x="102.54" y="113.00" xlink:href="#hd"/>
<path d="M99.04 113.00v27.20" class="stroke"/>
<use x="119.84" y="110.00" xlink:href="#hd"/>
<path d="M116.34 110.00v30.20" class="stroke"/>
<use x="137.14" y="104.00" xlink:href="#hd"/>
<path d="M133.64 104.00v36.20" class="stroke"/>
<use x="154.44" y="119.00" xlink:href="#hd"/>
<path d="M150.94 119.00v21.20" class="stroke"/>
<use x="171.74" y="110.00" xlink:href="#hd"/>
<path d="M168.24 110.00v30.20" class="stroke"/>
<path class="fill"
	d="M195.04 127.60l49.60 3.20v-3.20l-49.60 -3.20"/>
<use x="198.94" y="98.00" xlink:href="#hd"/>
<path d="M195.44 98.00v28.60" class="stroke"/>
<use x="223.34" y="110.00" xlink:href="#hd"/>
<path d="M219.84 110.00v18.20" class="stroke"/>
<use x="247.84" y="104.00" xlink:href="#hd"/>
<path d="M244.34 104.00v25.80" class="stroke"/>
<path class="fill"
	d="M276.64 138.20l87.20 0.00v-3.20l-87.20 -0.00"/>
<path class="fill"
	d="M277.04 133.20l86.50 0.00v-3.20l-86.50 -0.00"/>
<use x="280.54" y="113.00" xlink:href="#hd"/>
<path d="M277.04 113.00v24.20" class="stroke"/>
<use x="297.84" y="116.00" xlink:href="#hd"/>
<path d="M294.34 116.00v21.20" class="stroke"/>
<use x="315.14" y="113.00" xlink:href="#hd"/>
<path d="M311.64 113.00v24.20" class="stroke"/>
<use x="332.44" y="110.00" xlink:href="#hd"/>
<path d="M328.94 110.00v27.20" class="stroke"/>
<use x="349.74" y="107.00" xlink:href="#hd"/>
<path d="M346.24 107.00v30.20" class="stroke"/>
<use x="367.04" y="113.00" xlink:href="#hd"/>
<path d="M363.54 113.00v24.20" class="stroke"/>
<path class="fill"
	d="M390.34 133.70l49.60 4.50v-3.20l-49.60 -4.50"/>
<use x="394.24" y="110.00" xlink:href="#hd"/>
<path d="M390.74 110.00v22.80" class="stroke"/>
<use x="418.64" y="104.00" xlink:href="#hd"/>
<path d="M415.14 104.00v31.00" class="stroke"/>
<use x="443.14" y="119.00" xlink:href="#hd"/>
<path d="M439.64 119.00v18.20" class="stroke"/>
<path class="fill"
	d="M483.84 88.00l49.80 0.00v3.20l-49.80 -0.00"/>
<use x="480.64" y="122.00" xlink:href="#hd"/>
<defs>
<path id="usharp" class="fill" d="
	m136 -702
	v890
	h32
	v-890
	m128 840
	h32
	v-888
	h-32
	m-232 286
	v116
	l338 -96
	v-116
	m-338 442
	v116
	l338 -98
	v-114"/>
<use id="sh0" transform="translate(-4,5) scale(0.018)"
	xlink:href="#usharp"/>
</defs>
<use x="471.64" y="122.00" xlink:href="#sh0"/>
<path d="M484.14 122.00v-33.00" class="stroke"/>
<use x="480.64" y="107.00" xlink:href="#hd"/>
<use x="505.24" y="122.00" xlink:href="#hd"/>
<use x="496.24" y="122.00" xlink:href="#sh0"/>
<path d="M508.74 122.00v-33.00" class="stroke"/>
<use x="505.24" y="107.00" xlink:href="#hd"/>
<use x="529.74" y="122.00" xlink:href="#hd"/>
<use x="520.74" y="122.00" xlink:href="#sh0"/>
<path d="M533.24 122.00v-33.00" class="stroke"/>
<use x="529.74" y="107.00" xlink:href="#hd"/>
<path class="fill"
	d="M558.64 127.00l77.00 8.30v-3.20l-77.00 -8.30"/>
<path class="fill"
	d="M583.44 124.60l51.90 5.60v-3.20l-51.90 -5.60"/>
<use x="562.54" y="98.00" xlink:href="#hd"/>
<path d="M559.04 98.00v28.00" class="stroke"/>
<defs>
<path id="hl" class="stroke" d="m-6 0h12"/>
</defs>
<use x="586.94" y="95.00" xlink:href="#hl"/>
<use x="586.94" y="92.00" xlink:href="#hd"/>
<path d="M583.44 92.00v36.60" class="stroke"/>
<use x="604.24" y="98.00" xlink:href="#hd"/>
<path d="M600.74 98.00v32.50" class="stroke"/>
<use x="621.54" y="107.00" xlink:href="#hd"/>
<path d="M618.04 107.00v25.30" class="stroke"/>
<use x="638.84" y="113.00" xlink:href="#hd"/>
<path d="M635.34 113.00v21.20" class="stroke"/>
<path class="fill"
	d="M662.24 138.20l77.00 0.00v-3.20l-77.00 -0.00"/>
<path class="fill"
	d="M686.94 133.20l51.90 0.00v-3.20l-51.90 -0.00"/>
<use x="666.04" y="116.00" xlink:href="#hd"/>
<path d="M662.54 116.00v21.20" class="stroke"/>
<use x="690.44" y="107.00" xlink:href="#hd"/>
<path d="M686.94 107.00v30.20" class="stroke"/>
<use x="707.74" y="110.00" xlink:href="#hd"/>
<path d="M704.24 110.00v27.20" class="stroke"/>
<use x="725.04" y="113.00" xlink:href="#hd"/>
<path d="M721.54 113.00v24.20" class="stroke"/>
<use x="742.44" y="116.00" xlink:href="#hd"/>
<path d="M738.94 116.00v21.20" class="stroke"/>
<use x="769.54" y="98.00" xlink:href="#hd"/>
<path d="M766.04 98.00v40.00" class="stroke"/>
<use x="769.54" y="119.00" xlink:href="#hd"/>
<use x="769.54" y="113.00" xlink:href="#hd"/>
<use x="769.54" y="107.00" xlink:href="#hd"/>
<defs>
<path id="r8e" class="fill" d="m 0 0
	c-1.5 1.5 -2.4 2 -3.6 2
	2.4 -2.8 -2.8 -4 -2.8 -1.2
	c0 2.7 4.3 2.4 5.9 0.6"/>
<g id="r8">
	<path d="m3.3 -4l-3.4 9.6" class="stroke"/>
	<use x="3.4" y="-4" xlink:href="#r8e"/>
</g>
</defs>
<use x="829.34" y="113.00" xlink:href="#r8"/>
<defs>
<path id="ubclef" class="fill" d="m-200 -87
	c124 -35 222 -78 254 -236
	43 -228 -167 -246 -192 -103
	59 -80 157 22 92 78
	-62 47 -115 -22 -106 -88
	21 -141 270 -136 274 52
	-1 175 -106 264 -322 297
	m357 -250
	c0 -36 51 -34 51 0
	0 37 -51 36 -51 0
	m-2 -129
	c0 -36 51 -34 51 0
	0 38 -51 37 -51 0"/>
<use id="bclef" transform="translate(0,18) scale(0.045)"
	xlink:href="#ubclef"/>
</defs>
<use x="23.54" y="165.00" xlink:href="#bclef"/>
<g font-family="serif" font-size="16" font-weight="bold" font-style="normal"
	transform="translate(42.04,182.50) scale(1.2,1)">
	<text text-anchor="middle">8</text>
	<text y="-12" text-anchor="middle">3</text>
</g>
<use x="85.24" y="168.00" xlink:href="#hd"/>
<path d="M81.74 168.00v25.00" class="stroke"/>
<use x="85.24" y="174.00" xlink:href="#hd"/>
<use x="154.44" y="171.00" xlink:href="#r8"/>
<use x="198.94" y="168.00" xlink:href="#hd"/>
<path d="M195.44 168.00v25.00" class="stroke"/>
<use x="198.94" y="174.00" xlink:href="#hd"/>
<use x="247.84" y="162.00" xlink:href="#hd"/>
<path d="M244.34 162.00v31.00" class="stroke"/>
<path class="fill"
	d="M244.34 193.00c0.6 -5.6 9.6 -9 5.6 -18.4
	1.6 6 -1.3 11.6 -5.6 12.8
"/>
<use x="247.84" y="174.00" xlink:href="#hd"/>
<use x="280.54" y="162.00" xlink:href="#hd"/>
<path d="M277.04 162.00v21.00" class="stroke"/>
<use x="349.74" y="171.00" xlink:href="#r8"/>
<use x="394.24" y="162.00" xlink:href="#hd"/>
<path d="M390.74 162.00v25.00" class="stroke"/>
<use x="394.24" y="168.00" xlink:href="#hd"/>
<use x="443.14" y="171.00" xlink:href="#r8"/>
<path class="fill"
	d="M483.84 153.00l49.80 0.00v3.20l-49.80 -0.00"/>
<use x="480.64" y="174.00" xlink:href="#hd"/>
<path d="M484.14 174.00v-20.00" class="stroke"/>
<use x="505.24" y="174.00" xlink:href="#hd"/>
<path d="M508.74 174.00v-20.00" class="stroke"/>
<use x="529.74" y="174.00" xlink:href="#hd"/>
<path d="M533.24 174.00v-20.00" class="stroke"/>
<use x="562.54" y="177.00" xlink:href="#hd"/>
<path d="M566.04 177.00v-25.00" class="stroke"/>
<use x="562.54" y="171.00" xlink:href="#hd"/>
<use x="621.54" y="171.00" xlink:href="#r8"/>
<path class="fill"
	d="M669.24 148.30l59.70 8.40v3.20l-59.70 -8.40"/>
<use x="666.04" y="174.00" xlink:href="#hd"/>
<path d="M669.54 174.00v-24.60" class="stroke"/>
<use x="690.44" y="171.00" xlink:href="#hd"/>
<path d="M693.94 171.00v-18.20" class="stroke"/>
<use x="725.04" y="189.00" xlink:href="#hl"/>
<use x="725.04" y="192.00" xlink:href="#hd"/>
<path d="M728.54 192.00v-34.30" class="stroke"/>
<path class="fill"
	d="M765.74 202.20l77.70 0.00v-3.20l-77.70 -0.00"/>
<path class="fill"
	d="M790.54 197.20l52.60 0.00v-3.20l-52.60 -0.00"/>
<use x="769.54" y="183.00" xlink:href="#hd"/>
<path d="M766.04 183.00v18.20" class="stroke"/>
<use x="794.04" y="162.00" xlink:href="#hd"/>
<path d="M790.54 162.00v39.20" class="stroke"/>
<use x="812.04" y="165.00" xlink:href="#hd"/>
<defs>
<path id="unat" class="fill" d="
	m96 -750
	h-32
	v716
	l32 -8
	182 -54
	v282
	h32
	v-706
	l-34 10
	-180 50
	v-290
	m0 592
	v-190
	l182 -52
	v188"/>
<use id="nt0" transform="translate(-3,5) scale(0.018)"
	xlink:href="#unat"/>
</defs>
<use x="803.04" y="165.00" xlink:href="#nt0"/>
<path d="M808.54 165.00v36.20" class="stroke"/>
<use x="829.34" y="168.00" xlink:href="#hd"/>
<path d="M825.84 168.00v33.20" class="stroke"/>
<use x="846.64" y="171.00" xlink:href="#hd"/>
<path d="M843.14 171.00v30.20" class="stroke"/>
</g>
<g stroke-width="0.70" transform="scale(0.867)" font-family="Times" font-size="13.00">
<path class="stroke" stroke-width="1"
	d="M11.54 316.00v-82.00"/>
<path class="fill"
	d="M6.54 231.00
	c10.5 1 12 -4.5 12 -3.5c0 1 -3.5 5.5 -8.5 5.5
	v84.00
	c5 0 8.5 4.5 8.5 5.5c0 1 -1.5 -4.5 -12 -3.5"/>
<use x="141.74" y="258.00" xlink:href="#rdots"/>
<path class="stroke" stroke-width="1"
	d="M137.74 258.00v-24.00"/>
<path class="stroke" stroke-width="3"
	d="M133.24 258.00v-24.00"/>
<use x="141.74" y="316.00" xlink:href="#rdots"/>
<path class="stroke" stroke-width="1"
	d="M137.74 316.00v-58.00"/>
<path class="stroke" stroke-width="3"
	d="M133.24 316.00v-58.00"/>
<path class="stroke" stroke-width="1"
	d="M236.14 258.00v-24.00"/>
<path class="stroke" stroke-width="1"
	d="M236.14 316.00v-58.00"/>
<path class="stroke" stroke-width="1"
	d="M313.84 258.00v-24.00"/>
<path class="stroke" stroke-width="1"
	d="M313.84 316.00v-58.00"/>
<path class="stroke" stroke-width="1"
	d="M410.04 258.00v-24.00"/>
<path class="stroke" stroke-width="1"
	d="M410.04 316.00v-58.00"/>
<path class="stroke" stroke-width="1"
	d="M496.54 258.00v-24.00"/>
<path class="stroke" stroke-width="1"
	d="M496.54 316.00v-58.00"/>
<path class="stroke" stroke-width="1"
	d="M592.74 258.00v-24.00"/>
<path class="stroke" stroke-width="1"
	d="M592.74 316.00v-58.00"/>
<path class="stroke" stroke-width="1"
	d="M688.94 258.00v-24.00"/>
<path class="stroke" stroke-width="1"
	d="M688.94 316.00v-58.00"/>
<path class="stroke" stroke-width="1"
	d="M785.14 258.00v-24.00"/>
<path class="stroke" stroke-width="1"
	d="M785.14 316.00v-58.00"/>
<path class="stroke" stroke-width="3"
	d="M860.54 258.00v-24.00"/>
<path class="stroke" stroke-width="1"
	d="M856.04 258.00v-24.00"/>
<use x="852.04" y="258.00" xlink:href="#rdots"/>
<path class="stroke" stroke-width="3"
	d="M860.54 316.00v-58.00"/>
<path class="stroke" stroke-width="1"
	d="M856.04 316.00v-58.00"/>
<use x="852.04" y="316.00" xlink:href="#rdots"/>
<path d="m11.54 258.00
	h850.50
	M11.54 252.00
	h850.50
	M11.54 246.00
	h850.50
	M11.54 240.00
	h850.50
	M11.54 234.00
	h850.50
	" class="stroke"/>
<path d="m11.54 316.00
	h850.50
	M11.54 310.00
	h850.50
	M11.54 304.00
	h850.50
	M11.54 298.00
	h850.50
	M11.54 292.00
	h850.50
	" class="stroke"/>
<text x="47.54" y="219.40">2</text>
<path class="stroke"
	d="M43.54 208.00m0 20v-20h87.20v20"/>
<use x="23.54" y="252.00" xlink:href="#tclef"/>
<use x="56.04" y="231.00" xlink:href="#hd"/>
<path d="M52.54 231.00v40.00" class="stroke"/>
<use x="56.04" y="252.00" xlink:href="#hd"/>
<use x="56.04" y="246.00" xlink:href="#hd"/>
<use x="56.04" y="240.00" xlink:href="#hd"/>
<use x="107.94" y="246.00" xlink:href="#r8"/>
<path class="fill"
	d="M157.34 260.00l63.10 0.00v-3.20l-63.10 -0.00"/>
<path class="fill"
	d="M177.44 255.00l42.70 0.00v-3.20l-42.70 -0.00"/>
<use x="161.24" y="234.00" xlink:href="#hd"/>
<use x="152.24" y="234.00" xlink:href="#sh0"/>
<path d="M157.74 234.00v25.00" class="stroke"/>
<use x="180.94" y="228.00" xlink:href="#hl"/>
<use x="180.94" y="228.00" xlink:href="#hd"/>
<path d="M177.44 228.00v31.00" class="stroke"/>
<use x="195.14" y="234.00" xlink:href="#hd"/>
<path d="M191.64 234.00v25.00" class="stroke"/>
<use x="209.44" y="240.00" xlink:href="#hd"/>
<path d="M205.94 240.00v19.00" class="stroke"/>
<use x="223.64" y="234.00" xlink:href="#hd"/>
<path d="M220.14 234.00v25.00" class="stroke"/>
<path class="fill"
	d="M244.84 262.80l48.90 8.40v-3.20l-48.90 -8.40"/>
<path class="fill"
	d="M264.84 261.30l14.20 2.50v-3.20l-14.20 -2.50"/>
<use x="248.64" y="231.00" xlink:href="#hd"/>
<path d="M245.14 231.00v30.90" class="stroke"/>
<use x="268.34" y="240.00" xlink:href="#hd"/>
<path d="M264.84 240.00v25.30" class="stroke"/>
<use x="282.54" y="246.00" xlink:href="#hd"/>
<path d="M279.04 246.00v21.70" class="stroke"/>
<use x="296.84" y="252.00" xlink:href="#hd"/>
<path d="M293.34 252.00v18.20" class="stroke"/>
<path class="fill"
	d="M322.44 274.20l71.90 0.00v-3.20l-71.90 -0.00"/>
<path class="fill"
	d="M322.84 269.20l71.20 0.00v-3.20l-71.20 -0.00"/>
<use x="326.34" y="243.00" xlink:href="#hd"/>
<path d="M322.84 243.00v30.20" class="stroke"/>
<use x="340.54" y="252.00" xlink:href="#hd"/>
<path d="M337.04 252.00v21.20" class="stroke"/>
<use x="354.84" y="243.00" xlink:href="#hd"/>
<path d="M351.34 243.00v30.20" class="stroke"/>
<use x="369.04" y="237.00" xlink:href="#hd"/>
<path d="M365.54 237.00v36.20" class="stroke"/>
<use x="383.34" y="231.00" xlink:href="#hd"/>
<path d="M379.84 231.00v42.20" class="stroke"/>
<use x="397.54" y="237.00" xlink:href="#hd"/>
<path d="M394.04 237.00v36.20" class="stroke"/>
<use x="397.54" y="243.00" xlink:href="#hd"/>
<path class="fill"
	d="M418.74 266.00l57.70 0.00v-3.20l-57.70 -0.00"/>
<path class="fill"
	d="M419.04 261.00l42.70 0.00v-3.20l-42.70 -0.00"/>
<use x="422.54" y="246.00" xlink:href="#hd"/>
<path d="M419.04 246.00v18.90" class="stroke"/>
<use x="436.74" y="240.00" xlink:href="#hd"/>
<path d="M433.24 240.00v24.90" class="stroke"/>
<use x="451.04" y="231.00" xlink:href="#hd"/>
<path d="M447.54 231.00v33.90" class="stroke"/>
<use x="465.24" y="240.00" xlink:href="#hd"/>
<path d="M461.74 240.00v24.90" class="stroke"/>
<use x="479.54" y="246.00" xlink:href="#hd"/>
<path d="M476.04 246.00v18.90" class="stroke"/>
<path class="fill"
	d="M505.14 274.20l71.90 0.00v-3.20l-71.90 -0.00"/>
<path class="fill"
	d="M505.54 269.20l71.20 0.00v-3.20l-71.20 -0.00"/>
<use x="509.04" y="243.00" xlink:href="#hd"/>
<path d="M505.54 243.00v30.20" class="stroke"/>
<use x="523.24" y="246.00" xlink:href="#hd"/>
<path d="M519.74 246.00v27.20" class="stroke"/>
<use x="537.54" y="243.00" xlink:href="#hd"/>
<path d="M534.04 243.00v30.20" class="stroke"/>
<use x="551.74" y="237.00" xlink:href="#hd"/>
<path d="M548.24 237.00v36.20" class="stroke"/>
<use x="565.94" y="252.00" xlink:href="#hd"/>
<path d="M562.44 252.00v21.20" class="stroke"/>
<use x="580.24" y="243.00" xlink:href="#hd"/>
<path d="M576.74 243.00v30.20" class="stroke"/>
<path class="fill"
	d="M601.34 275.50l71.90 -6.20v-3.20l-71.90 6.20"/>
<path class="fill"
	d="M601.74 270.40l71.20 -6.20v-3.20l-71.20 6.20"/>
<use x="605.24" y="243.00" xlink:href="#hd"/>
<path d="M601.74 243.00v31.40" class="stroke"/>
<use x="619.44" y="252.00" xlink:href="#hd"/>
<path d="M615.94 252.00v21.20" class="stroke"/>
<use x="633.74" y="237.00" xlink:href="#hd"/>
<path d="M630.24 237.00v35.00" class="stroke"/>
<use x="647.94" y="243.00" xlink:href="#hd"/>
<path d="M644.44 243.00v27.70" class="stroke"/>
<use x="662.24" y="231.00" xlink:href="#hd"/>
<path d="M658.74 231.00v38.50" class="stroke"/>
<use x="676.44" y="237.00" xlink:href="#hd"/>
<path d="M672.94 237.00v31.30" class="stroke"/>
<path class="fill"
	d="M697.64 266.00l71.90 0.00v-3.20l-71.90 -0.00"/>
<path class="fill"
	d="M697.94 261.00l71.20 0.00v-3.20l-71.20 -0.00"/>
<use x="701.44" y="240.00" xlink:href="#hd"/>
<path d="M697.94 240.00v24.90" class="stroke"/>
<use x="715.64" y="234.00" xlink:href="#hd"/>
<path d="M712.14 234.00v30.90" class="stroke"/>
<use x="729.94" y="240.00" xlink:href="#hd"/>
<path d="M726.44 240.00v24.90" class="stroke"/>
<use x="744.14" y="234.00" xlink:href="#hd"/>
<path d="M740.64 234.00v30.90" class="stroke"/>
<use x="758.44" y="246.00" xlink:href="#hd"/>
<path d="M754.94 246.00v18.90" class="stroke"/>
<use x="772.64" y="240.00" xlink:href="#hd"/>
<path d="M769.14 240.00v24.90" class="stroke"/>
<path class="fill"
	d="M800.84 223.70l20.40 6.90v3.20l-20.40 -6.90"/>
<use x="797.64" y="243.00" xlink:href="#hd"/>
<path d="M801.14 243.00v-18.20" class="stroke"/>
<use x="817.34" y="264.00" xlink:href="#hl"/>
<use x="817.34" y="264.00" xlink:href="#hd"/>
<path d="M820.84 264.00v-32.50" class="stroke"/>
<use x="837.04" y="246.00" xlink:href="#r8"/>
<use x="23.54" y="298.00" xlink:href="#bclef"/>
<path class="fill"
	d="M52.24 335.20l66.90 -4.90v-3.20l-66.90 4.90"/>
<path class="fill"
	d="M72.24 328.80l46.50 -3.40v-3.20l-46.50 3.40"/>
<use x="56.04" y="316.00" xlink:href="#hd"/>
<path d="M52.54 316.00v18.20" class="stroke"/>
<use x="75.74" y="289.00" xlink:href="#hd"/>
<path d="M72.24 289.00v43.80" class="stroke"/>
<use x="89.94" y="295.00" xlink:href="#hd"/>
<path d="M86.44 295.00v36.70" class="stroke"/>
<use x="107.94" y="298.00" xlink:href="#hd"/>
<use x="98.94" y="298.00" xlink:href="#sh0"/>
<path d="M104.44 298.00v32.40" class="stroke"/>
<use x="122.24" y="301.00" xlink:href="#hd"/>
<path d="M118.74 301.00v28.30" class="stroke"/>
<use x="161.24" y="304.00" xlink:href="#hd"/>
<path d="M164.74 304.00v-21.00" class="stroke"/>
<use x="209.44" y="307.00" xlink:href="#hd"/>
<path d="M212.94 307.00v-21.00" class="stroke"/>
<path class="fill"
	d="M212.94 286.00c0.6 5.6 9.6 9 5.6 18.4
	1.6 -6 -1.3 -11.6 -5.6 -12.8
"/>
<use x="248.64" y="310.00" xlink:href="#hd"/>
<path d="M252.14 310.00v-25.00" class="stroke"/>
<use x="248.64" y="304.00" xlink:href="#hd"/>
<use x="296.84" y="310.00" xlink:href="#hd"/>
<path d="M300.34 310.00v-25.00" class="stroke"/>
<path class="fill"
	d="M300.34 285.00c0.6 5.6 9.6 9 5.6 18.4
	1.6 -6 -1.3 -11.6 -5.6 -12.8
"/>
<use x="296.84" y="304.00" xlink:href="#hd"/>
<use x="326.34" y="301.00" xlink:href="#hd"/>
<path d="M322.84 301.00v21.00" class="stroke"/>
<path class="fill"
	d="M379.44 325.90l14.90 3.40v-3.20l-14.90 -3.40"/>
<path class="fill"
	d="M379.84 320.90l14.20 3.30v-3.20l-14.20 -3.30"/>
<use x="383.34" y="301.00" xlink:href="#hd"/>
<path d="M379.84 301.00v23.90" class="stroke"/>
<use x="397.54" y="307.00" xlink:href="#hd"/>
<path d="M394.04 307.00v21.20" class="stroke"/>
<use x="422.54" y="295.00" xlink:href="#hd"/>
<path d="M419.04 295.00v21.00" class="stroke"/>
<use x="479.54" y="316.00" xlink:href="#hd"/>
<path d="M483.04 316.00v-21.00" class="stroke"/>
<path class="fill"
	d="M483.04 295.00c0.6 5.6 9.6 9 5.6 18.4
	1.6 -6 -1.3 -11.6 -5.6 -12.8
"/>
<use x="509.04" y="301.00" xlink:href="#hd"/>
<path d="M505.54 301.00v25.00" class="stroke"/>
<use x="509.04" y="307.00" xlink:href="#hd"/>
<use x="565.94" y="295.00" xlink:href="#hd"/>
<path d="M562.44 295.00v25.00" class="stroke"/>
<path class="fill"
	d="M562.44 320.00c0.6 -5.6 9.6 -9 5.6 -18.4
	1.6 6 -1.3 11.6 -5.6 12.8
"/>
<use x="565.94" y="301.00" xlink:href="#hd"/>
<use x="605.24" y="301.00" xlink:href="#hd"/>
<path d="M601.74 301.00v25.00" class="stroke"/>
<use x="605.24" y="307.00" xlink:href="#hd"/>
<use x="662.24" y="304.00" xlink:href="#r8"/>
<use x="701.44" y="292.00" xlink:href="#hd"/>
<path d="M697.94 292.00v25.00" class="stroke"/>
<use x="701.44" y="298.00" xlink:href="#hd"/>
<use x="758.44" y="286.00" xlink:href="#hl"/>
<use x="758.44" y="283.00" xlink:href="#hd"/>
<path d="M754.94 283.00v31.00" class="stroke"/>
<path class="fill"
	d="M754.94 314.00c0.6 -5.6 9.6 -9 5.6 -18.4
	1.6 6 -1.3 11.6 -5.6 12.8
"/>
<use x="758.44" y="295.00" xlink:href="#hd"/>
<use x="797.64" y="307.00" xlink:href="#hd"/>
<path d="M801.14 307.00v-21.00" class="stroke"/>
<use x="837.04" y="322.00" xlink:href="#hl"/>
<use x="837.04" y="328.00" xlink:href="#hl"/>
<use x="837.04" y="328.00" xlink:href="#hd"/>
<path d="M840.54 328.00v-24.00" class="stroke"/>
<path class="fill"
	d="M840.54 304.00c0.6 5.6 9.6 9 5.6 18.4
	1.6 -6 -1.3 -11.6 -5.6 -12.8
"/>
</g>
</svg>
