<?xml version="1.0" standalone="no"?>
<!DOCTYPE svg PUBLIC "-//W3C//DTD SVG 1.1//EN"
	"http://www.w3.org/Graphics/SVG/1.1/DTD/svg11.dtd">
<svg xmlns="http://www.w3.org/2000/svg" version="1.1"
	xmlns:xlink="http://www.w3.org/1999/xlink"
	color="black"
	width="757.10px" height="296.40px">
<style type="text/css">
.fill {fill: currentColor}
.stroke {stroke: currentColor; fill: none}
text{white-space: pre}
</style>
<title>./K516f-8-3-6-10-2-9-11-7-12-10-7-2-4-6-8-7.abc (2202) tune 1</title>
<!-- Creator: abcm2ps-8.13.8 -->
<!-- CreationDate: Sep  7, 2017 11:18 -->
<!-- CommandLine: ./K516f-8-3-6-10-2-9-11-7-12-10-7-2-4-6-8-7.abc -O ./K516f-8-3-6-10-2-9-11-7-12-10-7-2-4-6-8-7.svg -g -->
<rect width="100%" height="100%" fill="white"/>
<g stroke-width="0.70" transform="scale(0.867)">
<!-- title: 8-3-6-10-2-9-11-7-12-10-7-2-4-6-8-7 -->
</g>
<g stroke-width="0.70" transform="scale(0.867)" font-family="Times" font-size="20.00">
<text x="436.84" y="22.00" text-anchor="middle">8-3-6-10-2-9-11-7-12-10-7-2-4-6-8-7</text>
</g>
<g stroke-width="0.70" transform="scale(0.867)" font-family="Times" font-size="20.00">
<!-- subtitle: $1K.516f::152:06:163:156:105:86:147:91:35:77:150:9:73:136:89:151::$0 -->
</g>
<g stroke-width="0.70" transform="scale(0.867)" font-family="Courier" font-size="8.00" font-weight="bold">
<text x="436.84" y="41.80" text-anchor="middle">K.516f::152:06:163:156:105:86:147:91:35:77:150:9:73:136:89:151::</text>
</g>
<g stroke-width="0.70" transform="scale(0.867)" font-family="Courier" font-size="8.00" font-weight="bold">
<!-- subtitle: $1Perm. No.: 220274326275461$0 -->
<text x="436.84" y="60.80" text-anchor="middle">Perm. No.: 220274326275461</text>
</g>
<g stroke-width="0.70" transform="scale(0.607)" font-family="Courier" font-size="8.00" font-weight="bold">
<defs>
<ellipse id="hd" rx="4.1" ry="2.9"
	transform="rotate(-20)" class="fill"/>
</defs>
<use x="103.06" y="121.29" xlink:href="#hd"/>
<path d="M106.56 121.29v-21.00" class="stroke"/>
<path class="fill"
	d="M106.56 100.29c0.6 5.6 9.6 9 5.6 18.4
	1.6 -6 -1.3 -11.6 -5.6 -12.8
"/>
</g>
<g stroke-width="0.70" transform="scale(0.867)" font-family="Times" font-size="15.00" font-weight="bold">
<text x="81.24" y="87.00">= 111</text>
<path class="stroke" stroke-width="1"
	d="M11.54 183.00v-82.00"/>
<path class="fill"
	d="M6.54 98.00
	c10.5 1 12 -4.5 12 -3.5c0 1 -3.5 5.5 -8.5 5.5
	v84.00
	c5 0 8.5 4.5 8.5 5.5c0 1 -1.5 -4.5 -12 -3.5"/>
<defs>
<g id="rdots" class="fill">
	<circle cx="0" cy="-9" r="1.2"/>
	<circle cx="0" cy="-15" r="1.2"/>
</g>
</defs>
<use x="70.54" y="125.00" xlink:href="#rdots"/>
<path class="stroke" stroke-width="1"
	d="M66.54 125.00v-24.00"/>
<path class="stroke" stroke-width="3"
	d="M62.04 125.00v-24.00"/>
<use x="70.54" y="183.00" xlink:href="#rdots"/>
<path class="stroke" stroke-width="1"
	d="M66.54 183.00v-58.00"/>
<path class="stroke" stroke-width="3"
	d="M62.04 183.00v-58.00"/>
<path class="stroke" stroke-width="1"
	d="M170.74 125.00v-24.00"/>
<path class="stroke" stroke-width="1"
	d="M170.74 183.00v-58.00"/>
<path class="stroke" stroke-width="1"
	d="M248.74 125.00v-24.00"/>
<path class="stroke" stroke-width="1"
	d="M248.74 183.00v-58.00"/>
<path class="stroke" stroke-width="1"
	d="M359.14 125.00v-24.00"/>
<path class="stroke" stroke-width="1"
	d="M359.14 183.00v-58.00"/>
<path class="stroke" stroke-width="1"
	d="M456.84 125.00v-24.00"/>
<path class="stroke" stroke-width="1"
	d="M456.84 183.00v-58.00"/>
<path class="stroke" stroke-width="1"
	d="M561.34 125.00v-24.00"/>
<path class="stroke" stroke-width="1"
	d="M561.34 183.00v-58.00"/>
<path class="stroke" stroke-width="1"
	d="M649.24 125.00v-24.00"/>
<path class="stroke" stroke-width="1"
	d="M649.24 183.00v-58.00"/>
<path class="stroke" stroke-width="1"
	d="M759.64 125.00v-24.00"/>
<path class="stroke" stroke-width="1"
	d="M759.64 183.00v-58.00"/>
<path class="stroke" stroke-width="3"
	d="M860.54 125.00v-24.00"/>
<path class="stroke" stroke-width="1"
	d="M856.04 125.00v-24.00"/>
<use x="852.04" y="125.00" xlink:href="#rdots"/>
<path class="stroke" stroke-width="3"
	d="M860.54 183.00v-58.00"/>
<path class="stroke" stroke-width="1"
	d="M856.04 183.00v-58.00"/>
<use x="852.04" y="183.00" xlink:href="#rdots"/>
<path d="m11.54 125.00
	h850.50
	M11.54 119.00
	h850.50
	M11.54 113.00
	h850.50
	M11.54 107.00
	h850.50
	M11.54 101.00
	h850.50
	" class="stroke"/>
<path d="m11.54 183.00
	h850.50
	M11.54 177.00
	h850.50
	M11.54 171.00
	h850.50
	M11.54 165.00
	h850.50
	M11.54 159.00
	h850.50
	" class="stroke"/>
</g>
<g stroke-width="0.70" transform="scale(0.867)" font-family="Times" font-size="13.00">
<text x="763.64" y="86.40">1</text>
<path class="stroke"
	d="M759.64 75.00m0 20v-20h94.40v20"/>
<defs>
<path id="utclef" class="fill" d="m-50 -90
	c-72 -41 -72 -158 52 -188
	150 -10 220 188 90 256
	-114 52 -275 0 -293 -136
	-15 -181 93 -229 220 -334
	88 -87 79 -133 62 -210
	-51 33 -94 105 -89 186
	17 267 36 374 49 574
	6 96 -19 134 -77 135
	-80 1 -126 -93 -61 -133
	85 -41 133 101 31 105
	23 17 92 37 90 -92
	-10 -223 -39 -342 -50 -617
	0 -90 0 -162 96 -232
	56 72 63 230 22 289
	-74 106 -257 168 -255 316
	9 153 148 185 252 133
	86 -65 29 -192 -80 -176
	-71 12 -105 67 -59 124"/>
<use id="tclef" transform="translate(0,6) scale(0.045)"
	xlink:href="#utclef"/>
</defs>
<use x="23.54" y="119.00" xlink:href="#tclef"/>
<g font-family="serif" font-size="16" font-weight="bold" font-style="normal"
	transform="translate(42.04,124.50) scale(1.2,1)">
	<text text-anchor="middle">8</text>
	<text y="-12" text-anchor="middle">3</text>
</g>
<path class="fill"
	d="M80.84 123.00l73.60 9.20v-3.20l-73.60 -9.20"/>
<path class="fill"
	d="M104.54 121.00l49.60 6.20v-3.20l-49.60 -6.20"/>
<use x="84.74" y="98.00" xlink:href="#hd"/>
<path d="M81.24 98.00v24.10" class="stroke"/>
<use x="108.04" y="101.00" xlink:href="#hd"/>
<path d="M104.54 101.00v24.00" class="stroke"/>
<use x="124.54" y="104.00" xlink:href="#hd"/>
<path d="M121.04 104.00v23.10" class="stroke"/>
<use x="141.14" y="107.00" xlink:href="#hd"/>
<path d="M137.64 107.00v22.10" class="stroke"/>
<use x="157.64" y="110.00" xlink:href="#hd"/>
<path d="M154.14 110.00v21.20" class="stroke"/>
<path class="fill"
	d="M180.04 138.20l47.30 -6.60v-3.20l-47.30 6.60"/>
<use x="183.84" y="119.00" xlink:href="#hd"/>
<path d="M180.34 119.00v18.20" class="stroke"/>
<use x="207.14" y="110.00" xlink:href="#hd"/>
<path d="M203.64 110.00v24.00" class="stroke"/>
<use x="230.44" y="104.00" xlink:href="#hd"/>
<path d="M226.94 104.00v26.70" class="stroke"/>
<path class="fill"
	d="M258.14 131.30l84.90 9.90v-3.20l-84.90 -9.90"/>
<path class="fill"
	d="M258.44 126.30l84.20 9.90v-3.20l-84.20 -9.90"/>
<use x="261.94" y="98.00" xlink:href="#hd"/>
<path d="M258.44 98.00v32.30" class="stroke"/>
<use x="279.94" y="101.00" xlink:href="#hd"/>
<defs>
<path id="usharp" class="fill" d="
	m136 -702
	v890
	h32
	v-890
	m128 840
	h32
	v-888
	h-32
	m-232 286
	v116
	l338 -96
	v-116
	m-338 442
	v116
	l338 -98
	v-114"/>
<use id="sh0" transform="translate(-4,5) scale(0.018)"
	xlink:href="#usharp"/>
</defs>
<use x="270.94" y="101.00" xlink:href="#sh0"/>
<path d="M276.44 101.00v31.40" class="stroke"/>
<use x="296.54" y="98.00" xlink:href="#hd"/>
<path d="M293.04 98.00v36.40" class="stroke"/>
<use x="313.04" y="107.00" xlink:href="#hd"/>
<path d="M309.54 107.00v29.30" class="stroke"/>
<use x="329.64" y="113.00" xlink:href="#hd"/>
<path d="M326.14 113.00v25.30" class="stroke"/>
<use x="346.14" y="119.00" xlink:href="#hd"/>
<path d="M342.64 119.00v21.20" class="stroke"/>
<path class="fill"
	d="M368.54 142.80l66.90 -6.50v-3.20l-66.90 6.50"/>
<path class="fill"
	d="M368.84 137.80l49.60 -4.80v-3.20l-49.60 4.80"/>
<use x="372.34" y="110.00" xlink:href="#hd"/>
<path d="M368.84 110.00v31.80" class="stroke"/>
<use x="388.94" y="119.00" xlink:href="#hd"/>
<path d="M385.44 119.00v21.20" class="stroke"/>
<use x="405.44" y="104.00" xlink:href="#hd"/>
<path d="M401.94 104.00v34.60" class="stroke"/>
<use x="422.04" y="110.00" xlink:href="#hd"/>
<path d="M418.54 110.00v27.00" class="stroke"/>
<use x="438.54" y="98.00" xlink:href="#hd"/>
<path d="M435.04 98.00v37.40" class="stroke"/>
<path class="fill"
	d="M471.54 127.00l73.60 0.00v-3.20l-73.60 -0.00"/>
<path class="fill"
	d="M495.14 122.00l49.60 0.00v-3.20l-49.60 -0.00"/>
<use x="475.34" y="101.00" xlink:href="#hd"/>
<use x="466.34" y="101.00" xlink:href="#sh0"/>
<path d="M471.84 101.00v25.00" class="stroke"/>
<defs>
<path id="hl" class="stroke" d="m-6 0h12"/>
</defs>
<use x="498.64" y="95.00" xlink:href="#hl"/>
<use x="498.64" y="95.00" xlink:href="#hd"/>
<path d="M495.14 95.00v31.00" class="stroke"/>
<use x="515.24" y="101.00" xlink:href="#hd"/>
<path d="M511.74 101.00v25.00" class="stroke"/>
<use x="531.74" y="107.00" xlink:href="#hd"/>
<path d="M528.24 107.00v19.00" class="stroke"/>
<use x="548.24" y="101.00" xlink:href="#hd"/>
<path d="M544.74 101.00v25.00" class="stroke"/>
<path class="fill"
	d="M570.64 132.10l57.10 -7.10v-3.20l-57.10 7.10"/>
<path class="fill"
	d="M594.34 124.20l16.50 -2.10v-3.20l-16.50 2.10"/>
<use x="574.54" y="107.00" xlink:href="#hd"/>
<path d="M571.04 107.00v24.10" class="stroke"/>
<use x="597.84" y="107.00" xlink:href="#hd"/>
<path d="M594.34 107.00v21.20" class="stroke"/>
<use x="614.34" y="98.00" xlink:href="#hd"/>
<path d="M610.84 98.00v28.10" class="stroke"/>
<use x="630.94" y="95.00" xlink:href="#hl"/>
<use x="630.94" y="92.00" xlink:href="#hd"/>
<path d="M627.44 92.00v32.10" class="stroke"/>
<path class="fill"
	d="M658.54 127.00l84.90 0.00v-3.20l-84.90 -0.00"/>
<path class="fill"
	d="M658.84 122.00l84.20 0.00v-3.20l-84.20 -0.00"/>
<use x="662.34" y="104.00" xlink:href="#hd"/>
<path d="M658.84 104.00v22.00" class="stroke"/>
<use x="678.94" y="95.00" xlink:href="#hl"/>
<use x="678.94" y="89.00" xlink:href="#hl"/>
<use x="678.94" y="89.00" xlink:href="#hd"/>
<path d="M675.44 89.00v37.00" class="stroke"/>
<use x="695.54" y="95.00" xlink:href="#hl"/>
<use x="695.54" y="92.00" xlink:href="#hd"/>
<path d="M692.04 92.00v34.00" class="stroke"/>
<use x="712.04" y="98.00" xlink:href="#hd"/>
<path d="M708.54 98.00v28.00" class="stroke"/>
<use x="728.64" y="95.00" xlink:href="#hl"/>
<use x="728.64" y="95.00" xlink:href="#hd"/>
<path d="M725.14 95.00v31.00" class="stroke"/>
<use x="746.64" y="101.00" xlink:href="#hd"/>
<use x="737.64" y="101.00" xlink:href="#sh0"/>
<path d="M743.14 101.00v25.00" class="stroke"/>
<use x="772.84" y="98.00" xlink:href="#hd"/>
<path d="M769.34 98.00v40.00" class="stroke"/>
<use x="772.84" y="119.00" xlink:href="#hd"/>
<use x="772.84" y="113.00" xlink:href="#hd"/>
<use x="772.84" y="107.00" xlink:href="#hd"/>
<defs>
<path id="r8e" class="fill" d="m 0 0
	c-1.5 1.5 -2.4 2 -3.6 2
	2.4 -2.8 -2.8 -4 -2.8 -1.2
	c0 2.7 4.3 2.4 5.9 0.6"/>
<g id="r8">
	<path d="m3.3 -4l-3.4 9.6" class="stroke"/>
	<use x="3.4" y="-4" xlink:href="#r8e"/>
</g>
</defs>
<use x="830.64" y="113.00" xlink:href="#r8"/>
<defs>
<path id="ubclef" class="fill" d="m-200 -87
	c124 -35 222 -78 254 -236
	43 -228 -167 -246 -192 -103
	59 -80 157 22 92 78
	-62 47 -115 -22 -106 -88
	21 -141 270 -136 274 52
	-1 175 -106 264 -322 297
	m357 -250
	c0 -36 51 -34 51 0
	0 37 -51 36 -51 0
	m-2 -129
	c0 -36 51 -34 51 0
	0 38 -51 37 -51 0"/>
<use id="bclef" transform="translate(0,18) scale(0.045)"
	xlink:href="#ubclef"/>
</defs>
<use x="23.54" y="165.00" xlink:href="#bclef"/>
<g font-family="serif" font-size="16" font-weight="bold" font-style="normal"
	transform="translate(42.04,182.50) scale(1.2,1)">
	<text text-anchor="middle">8</text>
	<text y="-12" text-anchor="middle">3</text>
</g>
<use x="84.74" y="168.00" xlink:href="#hd"/>
<path d="M81.24 168.00v25.00" class="stroke"/>
<use x="84.74" y="174.00" xlink:href="#hd"/>
<use x="141.14" y="171.00" xlink:href="#r8"/>
<use x="183.84" y="168.00" xlink:href="#hd"/>
<path d="M180.34 168.00v25.00" class="stroke"/>
<use x="183.84" y="174.00" xlink:href="#hd"/>
<use x="230.44" y="171.00" xlink:href="#r8"/>
<use x="261.94" y="177.00" xlink:href="#hd"/>
<path d="M265.44 177.00v-25.00" class="stroke"/>
<use x="261.94" y="171.00" xlink:href="#hd"/>
<use x="329.64" y="171.00" xlink:href="#r8"/>
<use x="372.34" y="162.00" xlink:href="#hd"/>
<path d="M368.84 162.00v25.00" class="stroke"/>
<use x="372.34" y="168.00" xlink:href="#hd"/>
<use x="438.54" y="171.00" xlink:href="#r8"/>
<use x="475.34" y="174.00" xlink:href="#hd"/>
<path d="M478.84 174.00v-21.00" class="stroke"/>
<use x="531.74" y="171.00" xlink:href="#r8"/>
<use x="574.54" y="162.00" xlink:href="#hd"/>
<path d="M571.04 162.00v34.00" class="stroke"/>
<use x="574.54" y="177.00" xlink:href="#hd"/>
<use x="630.94" y="171.00" xlink:href="#r8"/>
<path class="fill"
	d="M665.54 147.70l66.90 8.20v3.20l-66.90 -8.20"/>
<use x="662.34" y="174.00" xlink:href="#hd"/>
<path d="M665.84 174.00v-25.30" class="stroke"/>
<use x="695.54" y="171.00" xlink:href="#hd"/>
<path d="M699.04 171.00v-18.20" class="stroke"/>
<use x="728.64" y="189.00" xlink:href="#hl"/>
<use x="728.64" y="192.00" xlink:href="#hd"/>
<path d="M732.14 192.00v-35.10" class="stroke"/>
<path class="fill"
	d="M768.94 202.20l75.10 0.00v-3.20l-75.10 -0.00"/>
<path class="fill"
	d="M792.64 197.20l51.10 0.00v-3.20l-51.10 -0.00"/>
<use x="772.84" y="183.00" xlink:href="#hd"/>
<path d="M769.34 183.00v18.20" class="stroke"/>
<use x="796.14" y="162.00" xlink:href="#hd"/>
<path d="M792.64 162.00v39.20" class="stroke"/>
<use x="814.14" y="165.00" xlink:href="#hd"/>
<defs>
<path id="unat" class="fill" d="
	m96 -750
	h-32
	v716
	l32 -8
	182 -54
	v282
	h32
	v-706
	l-34 10
	-180 50
	v-290
	m0 592
	v-190
	l182 -52
	v188"/>
<use id="nt0" transform="translate(-3,5) scale(0.018)"
	xlink:href="#unat"/>
</defs>
<use x="805.14" y="165.00" xlink:href="#nt0"/>
<path d="M810.64 165.00v36.20" class="stroke"/>
<use x="830.64" y="168.00" xlink:href="#hd"/>
<path d="M827.14 168.00v33.20" class="stroke"/>
<use x="847.24" y="171.00" xlink:href="#hd"/>
<path d="M843.74 171.00v30.20" class="stroke"/>
</g>
<g stroke-width="0.70" transform="scale(0.867)" font-family="Times" font-size="13.00">
<path class="stroke" stroke-width="1"
	d="M11.54 319.00v-85.00"/>
<path class="fill"
	d="M6.54 231.00
	c10.5 1 12 -4.5 12 -3.5c0 1 -3.5 5.5 -8.5 5.5
	v87.00
	c5 0 8.5 4.5 8.5 5.5c0 1 -1.5 -4.5 -12 -3.5"/>
<use x="147.14" y="258.00" xlink:href="#rdots"/>
<path class="stroke" stroke-width="1"
	d="M143.14 258.00v-24.00"/>
<path class="stroke" stroke-width="3"
	d="M138.64 258.00v-24.00"/>
<use x="147.14" y="319.00" xlink:href="#rdots"/>
<path class="stroke" stroke-width="1"
	d="M143.14 319.00v-61.00"/>
<path class="stroke" stroke-width="3"
	d="M138.64 319.00v-61.00"/>
<path class="stroke" stroke-width="1"
	d="M228.54 258.00v-24.00"/>
<path class="stroke" stroke-width="1"
	d="M228.54 319.00v-61.00"/>
<path class="stroke" stroke-width="1"
	d="M312.04 258.00v-24.00"/>
<path class="stroke" stroke-width="1"
	d="M312.04 319.00v-61.00"/>
<path class="stroke" stroke-width="1"
	d="M419.64 258.00v-24.00"/>
<path class="stroke" stroke-width="1"
	d="M419.64 319.00v-61.00"/>
<path class="stroke" stroke-width="1"
	d="M493.94 258.00v-24.00"/>
<path class="stroke" stroke-width="1"
	d="M493.94 319.00v-61.00"/>
<path class="stroke" stroke-width="1"
	d="M597.54 258.00v-24.00"/>
<path class="stroke" stroke-width="1"
	d="M597.54 319.00v-61.00"/>
<path class="stroke" stroke-width="1"
	d="M701.34 258.00v-24.00"/>
<path class="stroke" stroke-width="1"
	d="M701.34 319.00v-61.00"/>
<path class="stroke" stroke-width="1"
	d="M784.84 258.00v-24.00"/>
<path class="stroke" stroke-width="1"
	d="M784.84 319.00v-61.00"/>
<path class="stroke" stroke-width="3"
	d="M860.54 258.00v-24.00"/>
<path class="stroke" stroke-width="1"
	d="M856.04 258.00v-24.00"/>
<use x="852.04" y="258.00" xlink:href="#rdots"/>
<path class="stroke" stroke-width="3"
	d="M860.54 319.00v-61.00"/>
<path class="stroke" stroke-width="1"
	d="M856.04 319.00v-61.00"/>
<use x="852.04" y="319.00" xlink:href="#rdots"/>
<path d="m11.54 258.00
	h850.50
	M11.54 252.00
	h850.50
	M11.54 246.00
	h850.50
	M11.54 240.00
	h850.50
	M11.54 234.00
	h850.50
	" class="stroke"/>
<path d="m11.54 319.00
	h850.50
	M11.54 313.00
	h850.50
	M11.54 307.00
	h850.50
	M11.54 301.00
	h850.50
	M11.54 295.00
	h850.50
	" class="stroke"/>
<text x="47.54" y="219.40">2</text>
<path class="stroke"
	d="M43.54 208.00m0 20v-20h92.60v20"/>
<use x="23.54" y="252.00" xlink:href="#tclef"/>
<use x="56.14" y="231.00" xlink:href="#hd"/>
<path d="M52.64 231.00v40.00" class="stroke"/>
<use x="56.14" y="252.00" xlink:href="#hd"/>
<use x="56.14" y="246.00" xlink:href="#hd"/>
<use x="56.14" y="240.00" xlink:href="#hd"/>
<use x="111.94" y="246.00" xlink:href="#r8"/>
<path class="fill"
	d="M162.74 268.20l45.20 -6.50v-3.20l-45.20 6.50"/>
<use x="166.64" y="249.00" xlink:href="#hd"/>
<path d="M163.14 249.00v18.20" class="stroke"/>
<use x="188.64" y="240.00" xlink:href="#hd"/>
<path d="M185.14 240.00v24.00" class="stroke"/>
<use x="211.14" y="234.00" xlink:href="#hd"/>
<use x="202.14" y="234.00" xlink:href="#sh0"/>
<path d="M207.64 234.00v26.80" class="stroke"/>
<path class="fill"
	d="M237.24 254.20l54.20 5.10v-3.20l-54.20 -5.10"/>
<path class="fill"
	d="M237.64 249.20l15.70 1.50v-3.20l-15.70 -1.50"/>
<use x="241.14" y="231.00" xlink:href="#hd"/>
<path d="M237.64 231.00v22.20" class="stroke"/>
<use x="256.84" y="228.00" xlink:href="#hl"/>
<use x="256.84" y="225.00" xlink:href="#hd"/>
<path d="M253.34 225.00v29.70" class="stroke"/>
<use x="272.54" y="231.00" xlink:href="#hd"/>
<path d="M269.04 231.00v25.10" class="stroke"/>
<use x="294.64" y="240.00" xlink:href="#hd"/>
<path d="M291.14 240.00v18.20" class="stroke"/>
<use x="324.64" y="237.00" xlink:href="#hd"/>
<path d="M321.14 237.00v34.00" class="stroke"/>
<path class="fill"
	d="M321.14 271.00c0.6 -5.6 9.6 -9 5.6 -18.4
	1.6 6 -1.3 11.6 -5.6 12.8
"/>
<use x="324.64" y="252.00" xlink:href="#hd"/>
<use x="324.64" y="243.00" xlink:href="#hd"/>
<use x="357.74" y="237.00" xlink:href="#hd"/>
<path d="M354.24 237.00v21.00" class="stroke"/>
<path class="fill"
	d="M428.34 262.30l22.70 2.40v-3.20l-22.70 -2.40"/>
<use x="432.24" y="237.00" xlink:href="#hd"/>
<path d="M428.74 237.00v24.30" class="stroke"/>
<use x="432.24" y="243.00" xlink:href="#hd"/>
<use x="454.24" y="240.00" xlink:href="#hd"/>
<path d="M450.74 240.00v23.70" class="stroke"/>
<use x="454.24" y="246.00" xlink:href="#hd"/>
<use x="476.34" y="246.00" xlink:href="#r8"/>
<path class="fill"
	d="M502.74 253.60l63.50 8.80v-3.20l-63.50 -8.80"/>
<use x="506.54" y="231.00" xlink:href="#hd"/>
<path d="M503.04 231.00v21.70" class="stroke"/>
<use x="537.94" y="237.00" xlink:href="#hd"/>
<path d="M534.44 237.00v20.00" class="stroke"/>
<use x="569.34" y="243.00" xlink:href="#hd"/>
<path d="M565.84 243.00v18.30" class="stroke"/>
<path class="fill"
	d="M606.34 255.80l79.40 9.50v-3.20l-79.40 -9.50"/>
<path class="fill"
	d="M606.64 250.80l78.70 9.40v-3.20l-78.70 -9.40"/>
<use x="610.14" y="228.00" xlink:href="#hl"/>
<use x="610.14" y="222.00" xlink:href="#hl"/>
<use x="610.14" y="222.00" xlink:href="#hd"/>
<path d="M606.64 222.00v32.80" class="stroke"/>
<use x="625.94" y="228.00" xlink:href="#hl"/>
<use x="625.94" y="225.00" xlink:href="#hd"/>
<path d="M622.44 225.00v31.70" class="stroke"/>
<use x="641.74" y="228.00" xlink:href="#hl"/>
<use x="641.74" y="222.00" xlink:href="#hl"/>
<use x="641.74" y="222.00" xlink:href="#hd"/>
<path d="M638.24 222.00v36.60" class="stroke"/>
<use x="657.44" y="231.00" xlink:href="#hd"/>
<path d="M653.94 231.00v29.40" class="stroke"/>
<use x="673.14" y="237.00" xlink:href="#hd"/>
<path d="M669.64 237.00v25.30" class="stroke"/>
<use x="688.84" y="243.00" xlink:href="#hd"/>
<path d="M685.34 243.00v21.20" class="stroke"/>
<path class="fill"
	d="M710.14 260.00l54.20 0.00v-3.20l-54.20 -0.00"/>
<path class="fill"
	d="M710.44 255.00l15.70 0.00v-3.20l-15.70 -0.00"/>
<use x="713.94" y="234.00" xlink:href="#hd"/>
<path d="M710.44 234.00v25.00" class="stroke"/>
<use x="729.64" y="237.00" xlink:href="#hd"/>
<path d="M726.14 237.00v22.00" class="stroke"/>
<use x="745.34" y="240.00" xlink:href="#hd"/>
<path d="M741.84 240.00v19.00" class="stroke"/>
<use x="767.44" y="231.00" xlink:href="#hd"/>
<path d="M763.94 231.00v28.00" class="stroke"/>
<use x="797.44" y="243.00" xlink:href="#hd"/>
<path d="M793.94 243.00v21.00" class="stroke"/>
<use x="841.54" y="246.00" xlink:href="#r8"/>
<use x="23.54" y="301.00" xlink:href="#bclef"/>
<path class="fill"
	d="M52.34 338.20l72.20 -5.10v-3.20l-72.20 5.10"/>
<path class="fill"
	d="M74.74 331.60l49.40 -3.50v-3.20l-49.40 3.50"/>
<use x="56.14" y="319.00" xlink:href="#hd"/>
<path d="M52.64 319.00v18.20" class="stroke"/>
<use x="78.24" y="292.00" xlink:href="#hd"/>
<path d="M74.74 292.00v43.60" class="stroke"/>
<use x="93.94" y="298.00" xlink:href="#hd"/>
<path d="M90.44 298.00v36.50" class="stroke"/>
<use x="111.94" y="301.00" xlink:href="#hd"/>
<use x="102.94" y="301.00" xlink:href="#sh0"/>
<path d="M108.44 301.00v32.20" class="stroke"/>
<use x="127.64" y="304.00" xlink:href="#hd"/>
<path d="M124.14 304.00v28.10" class="stroke"/>
<use x="166.64" y="301.00" xlink:href="#hd"/>
<use x="157.64" y="301.00" xlink:href="#sh0"/>
<path d="M163.14 301.00v25.00" class="stroke"/>
<use x="166.64" y="307.00" xlink:href="#hd"/>
<use x="211.14" y="295.00" xlink:href="#hd"/>
<path d="M207.64 295.00v34.00" class="stroke"/>
<path class="fill"
	d="M207.64 329.00c0.6 -5.6 9.6 -9 5.6 -18.4
	1.6 6 -1.3 11.6 -5.6 12.8
"/>
<use x="211.14" y="310.00" xlink:href="#hd"/>
<use x="241.14" y="313.00" xlink:href="#hd"/>
<path d="M244.64 313.00v-25.00" class="stroke"/>
<use x="241.14" y="307.00" xlink:href="#hd"/>
<use x="294.64" y="298.00" xlink:href="#hd"/>
<path d="M291.14 298.00v34.00" class="stroke"/>
<path class="fill"
	d="M291.14 332.00c0.6 -5.6 9.6 -9 5.6 -18.4
	1.6 6 -1.3 11.6 -5.6 12.8
"/>
<use x="294.64" y="313.00" xlink:href="#hd"/>
<path class="fill"
	d="M327.74 278.80l83.20 0.00v3.20l-83.20 -0.00"/>
<path class="fill"
	d="M328.14 283.80l82.50 0.00v3.20l-82.50 -0.00"/>
<use x="324.64" y="310.00" xlink:href="#hd"/>
<path d="M328.14 310.00v-30.20" class="stroke"/>
<use x="340.34" y="313.00" xlink:href="#hd"/>
<path d="M343.84 313.00v-33.20" class="stroke"/>
<use x="357.74" y="310.00" xlink:href="#hd"/>
<path d="M361.24 310.00v-30.20" class="stroke"/>
<use x="373.44" y="307.00" xlink:href="#hd"/>
<path d="M376.94 307.00v-27.20" class="stroke"/>
<use x="389.14" y="304.00" xlink:href="#hd"/>
<path d="M392.64 304.00v-24.20" class="stroke"/>
<use x="407.14" y="301.00" xlink:href="#hd"/>
<use x="398.14" y="301.00" xlink:href="#sh0"/>
<path d="M410.64 301.00v-21.20" class="stroke"/>
<use x="432.24" y="298.00" xlink:href="#hd"/>
<path d="M428.74 298.00v21.00" class="stroke"/>
<use x="476.34" y="319.00" xlink:href="#hd"/>
<path d="M479.84 319.00v-21.00" class="stroke"/>
<path class="fill"
	d="M479.84 298.00c0.6 5.6 9.6 9 5.6 18.4
	1.6 -6 -1.3 -11.6 -5.6 -12.8
"/>
<path class="fill"
	d="M502.74 326.90l79.20 0.00v-3.20l-79.20 -0.00"/>
<path class="fill"
	d="M503.04 321.90l78.50 0.00v-3.20l-78.50 -0.00"/>
<use x="506.54" y="304.00" xlink:href="#hd"/>
<path d="M503.04 304.00v21.90" class="stroke"/>
<use x="506.54" y="310.00" xlink:href="#hd"/>
<use x="522.24" y="298.00" xlink:href="#hd"/>
<path d="M518.74 298.00v27.90" class="stroke"/>
<use x="537.94" y="304.00" xlink:href="#hd"/>
<path d="M534.44 304.00v21.90" class="stroke"/>
<use x="537.94" y="310.00" xlink:href="#hd"/>
<use x="553.64" y="298.00" xlink:href="#hd"/>
<path d="M550.14 298.00v27.90" class="stroke"/>
<use x="569.34" y="304.00" xlink:href="#hd"/>
<path d="M565.84 304.00v21.90" class="stroke"/>
<use x="569.34" y="310.00" xlink:href="#hd"/>
<use x="585.04" y="298.00" xlink:href="#hd"/>
<path d="M581.54 298.00v27.90" class="stroke"/>
<use x="610.14" y="304.00" xlink:href="#hd"/>
<path d="M606.64 304.00v25.00" class="stroke"/>
<use x="610.14" y="310.00" xlink:href="#hd"/>
<use x="673.14" y="307.00" xlink:href="#r8"/>
<path class="fill"
	d="M710.14 326.90l54.20 0.00v-3.20l-54.20 -0.00"/>
<path class="fill"
	d="M710.44 321.90l15.70 0.00v-3.20l-15.70 -0.00"/>
<use x="713.94" y="301.00" xlink:href="#hd"/>
<path d="M710.44 301.00v24.90" class="stroke"/>
<use x="729.64" y="304.00" xlink:href="#hd"/>
<path d="M726.14 304.00v21.90" class="stroke"/>
<use x="745.34" y="307.00" xlink:href="#hd"/>
<path d="M741.84 307.00v18.90" class="stroke"/>
<use x="767.44" y="298.00" xlink:href="#hd"/>
<path d="M763.94 298.00v27.90" class="stroke"/>
<path class="fill"
	d="M800.54 290.70l44.80 10.10v3.20l-44.80 -10.10"/>
<use x="797.44" y="310.00" xlink:href="#hd"/>
<path d="M800.94 310.00v-18.20" class="stroke"/>
<use x="819.44" y="319.00" xlink:href="#hd"/>
<path d="M822.94 319.00v-22.20" class="stroke"/>
<use x="841.54" y="325.00" xlink:href="#hl"/>
<use x="841.54" y="331.00" xlink:href="#hl"/>
<use x="841.54" y="331.00" xlink:href="#hd"/>
<path d="M845.04 331.00v-29.30" class="stroke"/>
<defs>
<text id="trl" font-family="serif" font-size="16" font-style="italic"
	x="-2" y="-4">tr</text>
</defs>
<use x="357.74" y="231.00" xlink:href="#trl"/>
</g>
</svg>
