<?xml version="1.0" standalone="no"?>
<!DOCTYPE svg PUBLIC "-//W3C//DTD SVG 1.1//EN"
	"http://www.w3.org/Graphics/SVG/1.1/DTD/svg11.dtd">
<svg xmlns="http://www.w3.org/2000/svg" version="1.1"
	xmlns:xlink="http://www.w3.org/1999/xlink"
	color="black"
	width="757.10px" height="294.68px">
<style type="text/css">
.fill {fill: currentColor}
.stroke {stroke: currentColor; fill: none}
text{white-space: pre}
</style>
<title>./K516f-4-7-9-8-3-11-10-7-11-2-3-3-9-10-6-6.abc (1652) tune 1</title>
<!-- Creator: abcm2ps-8.13.8 -->
<!-- CreationDate: Sep  7, 2017 11:19 -->
<!-- CommandLine: ./K516f-4-7-9-8-3-11-10-7-11-2-3-3-9-10-6-6.abc -O ./K516f-4-7-9-8-3-11-10-7-11-2-3-3-9-10-6-6.svg -g -->
<rect width="100%" height="100%" fill="white"/>
<g stroke-width="0.70" transform="scale(0.867)">
<!-- title: 4-7-9-8-3-11-10-7-11-2-3-3-9-10-6-6 -->
</g>
<g stroke-width="0.70" transform="scale(0.867)" font-family="Times" font-size="20.00">
<text x="436.84" y="22.00" text-anchor="middle">4-7-9-8-3-11-10-7-11-2-3-3-9-10-6-6</text>
</g>
<g stroke-width="0.70" transform="scale(0.867)" font-family="Times" font-size="20.00">
<!-- subtitle: $1K.516f::69:157:114:53:146:47:62:91:102:121:126:56:51:38:1:93::$0 -->
</g>
<g stroke-width="0.70" transform="scale(0.867)" font-family="Courier" font-size="8.00" font-weight="bold">
<text x="436.84" y="41.80" text-anchor="middle">K.516f::69:157:114:53:146:47:62:91:102:121:126:56:51:38:1:93::</text>
</g>
<g stroke-width="0.70" transform="scale(0.867)" font-family="Courier" font-size="8.00" font-weight="bold">
<!-- subtitle: $1Perm. No.: 165223943686079$0 -->
<text x="436.84" y="60.80" text-anchor="middle">Perm. No.: 165223943686079</text>
</g>
<g stroke-width="0.70" transform="scale(0.607)" font-family="Courier" font-size="8.00" font-weight="bold">
<defs>
<ellipse id="hd" rx="4.1" ry="2.9"
	transform="rotate(-20)" class="fill"/>
</defs>
<use x="103.06" y="121.29" xlink:href="#hd"/>
<path d="M106.56 121.29v-21.00" class="stroke"/>
<path class="fill"
	d="M106.56 100.29c0.6 5.6 9.6 9 5.6 18.4
	1.6 -6 -1.3 -11.6 -5.6 -12.8
"/>
</g>
<g stroke-width="0.70" transform="scale(0.867)" font-family="Times" font-size="15.00" font-weight="bold">
<text x="81.24" y="87.00">= 111</text>
<path class="stroke" stroke-width="1"
	d="M11.54 184.00v-82.00"/>
<path class="fill"
	d="M6.54 99.00
	c10.5 1 12 -4.5 12 -3.5c0 1 -3.5 5.5 -8.5 5.5
	v84.00
	c5 0 8.5 4.5 8.5 5.5c0 1 -1.5 -4.5 -12 -3.5"/>
<defs>
<g id="rdots" class="fill">
	<circle cx="0" cy="-9" r="1.2"/>
	<circle cx="0" cy="-15" r="1.2"/>
</g>
</defs>
<use x="70.54" y="126.00" xlink:href="#rdots"/>
<path class="stroke" stroke-width="1"
	d="M66.54 126.00v-24.00"/>
<path class="stroke" stroke-width="3"
	d="M62.04 126.00v-24.00"/>
<use x="70.54" y="184.00" xlink:href="#rdots"/>
<path class="stroke" stroke-width="1"
	d="M66.54 184.00v-58.00"/>
<path class="stroke" stroke-width="3"
	d="M62.04 184.00v-58.00"/>
<path class="stroke" stroke-width="1"
	d="M155.84 126.00v-24.00"/>
<path class="stroke" stroke-width="1"
	d="M155.84 184.00v-58.00"/>
<path class="stroke" stroke-width="1"
	d="M273.14 126.00v-24.00"/>
<path class="stroke" stroke-width="1"
	d="M273.14 184.00v-58.00"/>
<path class="stroke" stroke-width="1"
	d="M357.44 126.00v-24.00"/>
<path class="stroke" stroke-width="1"
	d="M357.44 184.00v-58.00"/>
<path class="stroke" stroke-width="1"
	d="M452.14 126.00v-24.00"/>
<path class="stroke" stroke-width="1"
	d="M452.14 184.00v-58.00"/>
<path class="stroke" stroke-width="1"
	d="M540.94 126.00v-24.00"/>
<path class="stroke" stroke-width="1"
	d="M540.94 184.00v-58.00"/>
<path class="stroke" stroke-width="1"
	d="M635.64 126.00v-24.00"/>
<path class="stroke" stroke-width="1"
	d="M635.64 184.00v-58.00"/>
<path class="stroke" stroke-width="1"
	d="M753.04 126.00v-24.00"/>
<path class="stroke" stroke-width="1"
	d="M753.04 184.00v-58.00"/>
<path class="stroke" stroke-width="3"
	d="M860.54 126.00v-24.00"/>
<path class="stroke" stroke-width="1"
	d="M856.04 126.00v-24.00"/>
<use x="852.04" y="126.00" xlink:href="#rdots"/>
<path class="stroke" stroke-width="3"
	d="M860.54 184.00v-58.00"/>
<path class="stroke" stroke-width="1"
	d="M856.04 184.00v-58.00"/>
<use x="852.04" y="184.00" xlink:href="#rdots"/>
<path d="m11.54 126.00
	h850.50
	M11.54 120.00
	h850.50
	M11.54 114.00
	h850.50
	M11.54 108.00
	h850.50
	M11.54 102.00
	h850.50
	" class="stroke"/>
<path d="m11.54 184.00
	h850.50
	M11.54 178.00
	h850.50
	M11.54 172.00
	h850.50
	M11.54 166.00
	h850.50
	M11.54 160.00
	h850.50
	" class="stroke"/>
<path class="fill"
	d="M89.64 95.40c7.19 -3.05 39.36 2.20 46.55 7.60
	v-0.25c-8.59 -7.16 -37.96 -12.41 -46.55 -7.35"/>
</g>
<g stroke-width="0.70" transform="scale(0.867)" font-family="Times" font-size="13.00">
<text x="757.04" y="87.40">1</text>
<path class="stroke"
	d="M753.04 76.00m0 20v-20h101.00v20"/>
<defs>
<path id="utclef" class="fill" d="m-50 -90
	c-72 -41 -72 -158 52 -188
	150 -10 220 188 90 256
	-114 52 -275 0 -293 -136
	-15 -181 93 -229 220 -334
	88 -87 79 -133 62 -210
	-51 33 -94 105 -89 186
	17 267 36 374 49 574
	6 96 -19 134 -77 135
	-80 1 -126 -93 -61 -133
	85 -41 133 101 31 105
	23 17 92 37 90 -92
	-10 -223 -39 -342 -50 -617
	0 -90 0 -162 96 -232
	56 72 63 230 22 289
	-74 106 -257 168 -255 316
	9 153 148 185 252 133
	86 -65 29 -192 -80 -176
	-71 12 -105 67 -59 124"/>
<use id="tclef" transform="translate(0,6) scale(0.045)"
	xlink:href="#utclef"/>
</defs>
<use x="23.54" y="120.00" xlink:href="#tclef"/>
<g font-family="serif" font-size="16" font-weight="bold" font-style="normal"
	transform="translate(42.04,125.50) scale(1.2,1)">
	<text text-anchor="middle">8</text>
	<text y="-12" text-anchor="middle">3</text>
</g>
<path class="fill"
	d="M81.74 122.00l51.20 8.20v-3.20l-51.20 -8.20"/>
<use x="85.64" y="99.00" xlink:href="#hd"/>
<path d="M82.14 99.00v22.10" class="stroke"/>
<use x="110.84" y="105.00" xlink:href="#hd"/>
<path d="M107.34 105.00v20.10" class="stroke"/>
<use x="136.14" y="111.00" xlink:href="#hd"/>
<path d="M132.64 111.00v18.20" class="stroke"/>
<path class="fill"
	d="M166.04 131.50l90.00 -6.40v-3.20l-90.00 6.40"/>
<path class="fill"
	d="M166.34 126.50l89.30 -6.40v-3.20l-89.30 6.40"/>
<use x="169.84" y="105.00" xlink:href="#hd"/>
<path d="M166.34 105.00v25.50" class="stroke"/>
<use x="187.74" y="108.00" xlink:href="#hd"/>
<path d="M184.24 108.00v21.20" class="stroke"/>
<use x="205.64" y="105.00" xlink:href="#hd"/>
<path d="M202.14 105.00v22.90" class="stroke"/>
<use x="223.44" y="99.00" xlink:href="#hd"/>
<path d="M219.94 99.00v27.60" class="stroke"/>
<defs>
<path id="hl" class="stroke" d="m-6 0h12"/>
</defs>
<use x="241.34" y="96.00" xlink:href="#hl"/>
<use x="241.34" y="90.00" xlink:href="#hl"/>
<use x="241.34" y="90.00" xlink:href="#hd"/>
<path d="M237.84 90.00v35.40" class="stroke"/>
<use x="259.24" y="99.00" xlink:href="#hd"/>
<path d="M255.74 99.00v25.10" class="stroke"/>
<path class="fill"
	d="M283.34 133.00l51.20 0.00v-3.20l-51.20 -0.00"/>
<use x="287.14" y="108.00" xlink:href="#hd"/>
<path d="M283.64 108.00v24.00" class="stroke"/>
<use x="287.14" y="114.00" xlink:href="#hd"/>
<use x="312.44" y="108.00" xlink:href="#hd"/>
<path d="M308.94 108.00v24.00" class="stroke"/>
<use x="312.44" y="114.00" xlink:href="#hd"/>
<use x="337.74" y="108.00" xlink:href="#hd"/>
<path d="M334.24 108.00v24.00" class="stroke"/>
<use x="337.74" y="114.00" xlink:href="#hd"/>
<path class="fill"
	d="M367.64 128.00l61.70 0.00v-3.20l-61.70 -0.00"/>
<path class="fill"
	d="M393.24 123.00l17.90 0.00v-3.20l-17.90 -0.00"/>
<use x="371.44" y="105.00" xlink:href="#hd"/>
<path d="M367.94 105.00v22.00" class="stroke"/>
<use x="371.44" y="111.00" xlink:href="#hd"/>
<use x="396.74" y="105.00" xlink:href="#hd"/>
<path d="M393.24 105.00v22.00" class="stroke"/>
<use x="396.74" y="111.00" xlink:href="#hd"/>
<use x="414.64" y="102.00" xlink:href="#hd"/>
<path d="M411.14 102.00v25.00" class="stroke"/>
<use x="414.64" y="108.00" xlink:href="#hd"/>
<use x="432.44" y="99.00" xlink:href="#hd"/>
<path d="M428.94 99.00v28.00" class="stroke"/>
<use x="432.44" y="105.00" xlink:href="#hd"/>
<path class="fill"
	d="M466.84 140.30l51.30 -8.50v-3.20l-51.30 8.50"/>
<use x="470.64" y="108.00" xlink:href="#hd"/>
<path d="M467.14 108.00v31.20" class="stroke"/>
<use x="470.64" y="123.00" xlink:href="#hd"/>
<defs>
<path id="usharp" class="fill" d="
	m136 -702
	v890
	h32
	v-890
	m128 840
	h32
	v-888
	h-32
	m-232 286
	v116
	l338 -96
	v-116
	m-338 442
	v116
	l338 -98
	v-114"/>
<use id="sh0" transform="translate(-4,5) scale(0.018)"
	xlink:href="#usharp"/>
</defs>
<use x="461.64" y="123.00" xlink:href="#sh0"/>
<use x="495.94" y="102.00" xlink:href="#hd"/>
<use x="486.94" y="102.00" xlink:href="#sh0"/>
<path d="M492.44 102.00v33.00" class="stroke"/>
<use x="495.94" y="108.00" xlink:href="#hd"/>
<use x="521.24" y="96.00" xlink:href="#hl"/>
<use x="521.24" y="96.00" xlink:href="#hd"/>
<path d="M517.74 96.00v34.80" class="stroke"/>
<use x="521.24" y="102.00" xlink:href="#hd"/>
<path class="fill"
	d="M551.14 128.00l61.70 0.00v-3.20l-61.70 -0.00"/>
<path class="fill"
	d="M576.74 123.00l17.90 0.00v-3.20l-17.90 -0.00"/>
<use x="554.94" y="99.00" xlink:href="#hd"/>
<path d="M551.44 99.00v28.00" class="stroke"/>
<use x="580.24" y="99.00" xlink:href="#hd"/>
<path d="M576.74 99.00v28.00" class="stroke"/>
<use x="598.14" y="108.00" xlink:href="#hd"/>
<path d="M594.64 108.00v19.00" class="stroke"/>
<use x="615.94" y="96.00" xlink:href="#hl"/>
<use x="615.94" y="93.00" xlink:href="#hd"/>
<path d="M612.44 93.00v34.00" class="stroke"/>
<path class="fill"
	d="M652.84 82.80l90.20 8.10v3.20l-90.20 -8.10"/>
<path class="fill"
	d="M653.24 87.80l89.50 8.00v3.20l-89.50 -8.00"/>
<use x="649.74" y="105.00" xlink:href="#hd"/>
<path d="M653.24 105.00v-21.20" class="stroke"/>
<use x="667.54" y="111.00" xlink:href="#hd"/>
<path d="M671.04 111.00v-25.60" class="stroke"/>
<use x="685.44" y="114.00" xlink:href="#hd"/>
<path d="M688.94 114.00v-27.00" class="stroke"/>
<use x="703.34" y="120.00" xlink:href="#hd"/>
<path d="M706.84 120.00v-31.40" class="stroke"/>
<use x="721.14" y="117.00" xlink:href="#hd"/>
<path d="M724.64 117.00v-26.80" class="stroke"/>
<use x="739.14" y="123.00" xlink:href="#hd"/>
<use x="730.14" y="123.00" xlink:href="#sh0"/>
<path d="M742.64 123.00v-31.20" class="stroke"/>
<use x="767.14" y="99.00" xlink:href="#hd"/>
<path d="M763.64 99.00v40.00" class="stroke"/>
<use x="767.14" y="120.00" xlink:href="#hd"/>
<use x="767.14" y="114.00" xlink:href="#hd"/>
<use x="767.14" y="108.00" xlink:href="#hd"/>
<defs>
<path id="r8e" class="fill" d="m 0 0
	c-1.5 1.5 -2.4 2 -3.6 2
	2.4 -2.8 -2.8 -4 -2.8 -1.2
	c0 2.7 4.3 2.4 5.9 0.6"/>
<g id="r8">
	<path d="m3.3 -4l-3.4 9.6" class="stroke"/>
	<use x="3.4" y="-4" xlink:href="#r8e"/>
</g>
</defs>
<use x="828.24" y="114.00" xlink:href="#r8"/>
<defs>
<path id="ubclef" class="fill" d="m-200 -87
	c124 -35 222 -78 254 -236
	43 -228 -167 -246 -192 -103
	59 -80 157 22 92 78
	-62 47 -115 -22 -106 -88
	21 -141 270 -136 274 52
	-1 175 -106 264 -322 297
	m357 -250
	c0 -36 51 -34 51 0
	0 37 -51 36 -51 0
	m-2 -129
	c0 -36 51 -34 51 0
	0 38 -51 37 -51 0"/>
<use id="bclef" transform="translate(0,18) scale(0.045)"
	xlink:href="#ubclef"/>
</defs>
<use x="23.54" y="166.00" xlink:href="#bclef"/>
<g font-family="serif" font-size="16" font-weight="bold" font-style="normal"
	transform="translate(42.04,183.50) scale(1.2,1)">
	<text text-anchor="middle">8</text>
	<text y="-12" text-anchor="middle">3</text>
</g>
<use x="85.64" y="169.00" xlink:href="#hd"/>
<path d="M82.14 169.00v25.00" class="stroke"/>
<use x="85.64" y="175.00" xlink:href="#hd"/>
<use x="136.14" y="172.00" xlink:href="#r8"/>
<use x="169.84" y="175.00" xlink:href="#hd"/>
<path d="M173.34 175.00v-21.00" class="stroke"/>
<use x="241.34" y="172.00" xlink:href="#r8"/>
<path class="fill"
	d="M283.34 184.30l51.20 0.00v-3.20l-51.20 -0.00"/>
<use x="287.14" y="163.00" xlink:href="#hd"/>
<path d="M283.64 163.00v20.20" class="stroke"/>
<use x="312.44" y="163.00" xlink:href="#hd"/>
<path d="M308.94 163.00v20.20" class="stroke"/>
<use x="337.74" y="163.00" xlink:href="#hd"/>
<path d="M334.24 163.00v20.20" class="stroke"/>
<use x="371.44" y="175.00" xlink:href="#hd"/>
<path d="M374.94 175.00v-21.00" class="stroke"/>
<use x="432.44" y="172.00" xlink:href="#r8"/>
<path class="fill"
	d="M473.84 154.00l51.30 0.00v3.20l-51.30 -0.00"/>
<use x="470.64" y="175.00" xlink:href="#hd"/>
<path d="M474.14 175.00v-20.00" class="stroke"/>
<use x="495.94" y="175.00" xlink:href="#hd"/>
<path d="M499.44 175.00v-20.00" class="stroke"/>
<use x="521.24" y="175.00" xlink:href="#hd"/>
<path d="M524.74 175.00v-20.00" class="stroke"/>
<use x="554.94" y="178.00" xlink:href="#hd"/>
<path d="M558.44 178.00v-25.00" class="stroke"/>
<use x="554.94" y="172.00" xlink:href="#hd"/>
<use x="615.94" y="172.00" xlink:href="#r8"/>
<path class="fill"
	d="M652.84 148.60l72.20 8.40v3.20l-72.20 -8.40"/>
<use x="649.74" y="175.00" xlink:href="#hd"/>
<path d="M653.24 175.00v-25.30" class="stroke"/>
<use x="685.44" y="172.00" xlink:href="#hd"/>
<path d="M688.94 172.00v-18.20" class="stroke"/>
<use x="721.14" y="190.00" xlink:href="#hl"/>
<use x="721.14" y="193.00" xlink:href="#hd"/>
<path d="M724.64 193.00v-35.10" class="stroke"/>
<path class="fill"
	d="M763.34 203.20l79.70 0.00v-3.20l-79.70 -0.00"/>
<path class="fill"
	d="M788.94 198.20l53.70 0.00v-3.20l-53.70 -0.00"/>
<use x="767.14" y="184.00" xlink:href="#hd"/>
<path d="M763.64 184.00v18.20" class="stroke"/>
<use x="792.44" y="163.00" xlink:href="#hd"/>
<path d="M788.94 163.00v39.20" class="stroke"/>
<use x="810.44" y="166.00" xlink:href="#hd"/>
<defs>
<path id="unat" class="fill" d="
	m96 -750
	h-32
	v716
	l32 -8
	182 -54
	v282
	h32
	v-706
	l-34 10
	-180 50
	v-290
	m0 592
	v-190
	l182 -52
	v188"/>
<use id="nt0" transform="translate(-3,5) scale(0.018)"
	xlink:href="#unat"/>
</defs>
<use x="801.44" y="166.00" xlink:href="#nt0"/>
<path d="M806.94 166.00v36.20" class="stroke"/>
<use x="828.24" y="169.00" xlink:href="#hd"/>
<path d="M824.74 169.00v33.20" class="stroke"/>
<use x="846.14" y="172.00" xlink:href="#hd"/>
<path d="M842.64 172.00v30.20" class="stroke"/>
</g>
<g stroke-width="0.70" transform="scale(0.867)" font-family="Times" font-size="13.00">
<path class="stroke" stroke-width="1"
	d="M11.54 317.01v-82.00"/>
<path class="fill"
	d="M6.54 232.01
	c10.5 1 12 -4.5 12 -3.5c0 1 -3.5 5.5 -8.5 5.5
	v84.00
	c5 0 8.5 4.5 8.5 5.5c0 1 -1.5 -4.5 -12 -3.5"/>
<use x="146.44" y="259.01" xlink:href="#rdots"/>
<path class="stroke" stroke-width="1"
	d="M142.44 259.01v-24.00"/>
<path class="stroke" stroke-width="3"
	d="M137.94 259.01v-24.00"/>
<use x="146.44" y="317.01" xlink:href="#rdots"/>
<path class="stroke" stroke-width="1"
	d="M142.44 317.01v-58.00"/>
<path class="stroke" stroke-width="3"
	d="M137.94 317.01v-58.00"/>
<path class="stroke" stroke-width="1"
	d="M238.54 259.01v-24.00"/>
<path class="stroke" stroke-width="1"
	d="M238.54 317.01v-58.00"/>
<path class="stroke" stroke-width="1"
	d="M321.14 259.01v-24.00"/>
<path class="stroke" stroke-width="1"
	d="M321.14 317.01v-58.00"/>
<path class="stroke" stroke-width="1"
	d="M423.84 259.01v-24.00"/>
<path class="stroke" stroke-width="1"
	d="M423.84 317.01v-58.00"/>
<path class="stroke" stroke-width="1"
	d="M506.54 259.01v-24.00"/>
<path class="stroke" stroke-width="1"
	d="M506.54 317.01v-58.00"/>
<path class="stroke" stroke-width="1"
	d="M609.24 259.01v-24.00"/>
<path class="stroke" stroke-width="1"
	d="M609.24 317.01v-58.00"/>
<path class="stroke" stroke-width="1"
	d="M711.94 259.01v-24.00"/>
<path class="stroke" stroke-width="1"
	d="M711.94 317.01v-58.00"/>
<path class="stroke" stroke-width="1"
	d="M785.34 259.01v-24.00"/>
<path class="stroke" stroke-width="1"
	d="M785.34 317.01v-58.00"/>
<path class="stroke" stroke-width="3"
	d="M860.54 259.01v-24.00"/>
<path class="stroke" stroke-width="1"
	d="M856.04 259.01v-24.00"/>
<use x="852.04" y="259.01" xlink:href="#rdots"/>
<path class="stroke" stroke-width="3"
	d="M860.54 317.01v-58.00"/>
<path class="stroke" stroke-width="1"
	d="M856.04 317.01v-58.00"/>
<use x="852.04" y="317.01" xlink:href="#rdots"/>
<path d="m11.54 259.01
	h850.50
	M11.54 253.01
	h850.50
	M11.54 247.01
	h850.50
	M11.54 241.01
	h850.50
	M11.54 235.01
	h850.50
	" class="stroke"/>
<path d="m11.54 317.01
	h850.50
	M11.54 311.01
	h850.50
	M11.54 305.01
	h850.50
	M11.54 299.01
	h850.50
	M11.54 293.01
	h850.50
	" class="stroke"/>
<text x="47.54" y="220.41">2</text>
<path class="stroke"
	d="M43.54 209.01m0 20v-20h91.90v20"/>
<use x="23.54" y="253.01" xlink:href="#tclef"/>
<use x="56.04" y="232.01" xlink:href="#hd"/>
<path d="M52.54 232.01v40.00" class="stroke"/>
<use x="56.04" y="253.01" xlink:href="#hd"/>
<use x="56.04" y="247.01" xlink:href="#hd"/>
<use x="56.04" y="241.01" xlink:href="#hd"/>
<use x="111.44" y="247.01" xlink:href="#r8"/>
<path class="fill"
	d="M162.14 263.41l31.80 5.80v-3.20l-31.80 -5.80"/>
<path class="fill"
	d="M162.44 258.51l15.50 2.80v-3.20l-15.50 -2.80"/>
<use x="165.94" y="235.01" xlink:href="#hd"/>
<use x="156.94" y="235.01" xlink:href="#sh0"/>
<path d="M162.44 235.01v27.50" class="stroke"/>
<use x="181.54" y="241.01" xlink:href="#hd"/>
<path d="M178.04 241.01v24.40" class="stroke"/>
<use x="197.04" y="250.01" xlink:href="#hd"/>
<path d="M193.54 250.01v18.20" class="stroke"/>
<use x="221.24" y="235.01" xlink:href="#hd"/>
<path d="M217.74 235.01v21.00" class="stroke"/>
<path class="fill"
	d="M217.74 256.01c0.6 -5.6 9.6 -9 5.6 -18.4
	1.6 6 -1.3 11.6 -5.6 12.8
"/>
<path class="fill"
	d="M247.14 255.61l53.60 4.60v-3.20l-53.60 -4.60"/>
<path class="fill"
	d="M269.34 252.51l15.50 1.30v-3.20l-15.50 -1.30"/>
<use x="251.04" y="232.01" xlink:href="#hd"/>
<path d="M247.54 232.01v22.60" class="stroke"/>
<use x="272.84" y="229.01" xlink:href="#hl"/>
<use x="272.84" y="226.01" xlink:href="#hd"/>
<path d="M269.34 226.01v30.50" class="stroke"/>
<use x="288.34" y="232.01" xlink:href="#hd"/>
<path d="M284.84 232.01v25.90" class="stroke"/>
<use x="303.94" y="241.01" xlink:href="#hd"/>
<path d="M300.44 241.01v18.20" class="stroke"/>
<path class="fill"
	d="M329.84 275.21l78.40 0.00v-3.20l-78.40 -0.00"/>
<path class="fill"
	d="M330.14 270.21l77.70 0.00v-3.20l-77.70 -0.00"/>
<use x="333.64" y="244.01" xlink:href="#hd"/>
<path d="M330.14 244.01v30.20" class="stroke"/>
<use x="349.24" y="253.01" xlink:href="#hd"/>
<path d="M345.74 253.01v21.20" class="stroke"/>
<use x="364.74" y="244.01" xlink:href="#hd"/>
<path d="M361.24 244.01v30.20" class="stroke"/>
<use x="380.24" y="238.01" xlink:href="#hd"/>
<path d="M376.74 238.01v36.20" class="stroke"/>
<use x="395.84" y="232.01" xlink:href="#hd"/>
<path d="M392.34 232.01v42.20" class="stroke"/>
<use x="411.34" y="238.01" xlink:href="#hd"/>
<path d="M407.84 238.01v36.20" class="stroke"/>
<use x="411.34" y="244.01" xlink:href="#hd"/>
<path class="fill"
	d="M432.54 266.51l31.80 6.90v-3.20l-31.80 -6.90"/>
<path class="fill"
	d="M432.84 261.61l15.50 3.40v-3.20l-15.50 -3.40"/>
<use x="436.34" y="241.01" xlink:href="#hd"/>
<path d="M432.84 241.01v24.60" class="stroke"/>
<use x="451.94" y="247.01" xlink:href="#hd"/>
<path d="M448.44 247.01v22.00" class="stroke"/>
<use x="467.44" y="253.01" xlink:href="#hd"/>
<path d="M463.94 253.01v19.40" class="stroke"/>
<use x="489.34" y="247.01" xlink:href="#r8"/>
<path class="fill"
	d="M515.14 276.51l78.40 -6.30v-3.20l-78.40 6.30"/>
<path class="fill"
	d="M515.54 271.51l77.70 -6.30v-3.20l-77.70 6.30"/>
<use x="519.04" y="244.01" xlink:href="#hd"/>
<path d="M515.54 244.01v31.50" class="stroke"/>
<use x="534.54" y="253.01" xlink:href="#hd"/>
<path d="M531.04 253.01v21.20" class="stroke"/>
<use x="550.14" y="238.01" xlink:href="#hd"/>
<path d="M546.64 238.01v34.90" class="stroke"/>
<use x="565.64" y="244.01" xlink:href="#hd"/>
<path d="M562.14 244.01v27.70" class="stroke"/>
<use x="581.24" y="232.01" xlink:href="#hd"/>
<path d="M577.74 232.01v38.40" class="stroke"/>
<use x="596.74" y="238.01" xlink:href="#hd"/>
<path d="M593.24 238.01v31.20" class="stroke"/>
<path class="fill"
	d="M617.94 273.81l62.90 -3.30v-3.20l-62.90 3.30"/>
<use x="621.74" y="244.01" xlink:href="#hd"/>
<path d="M618.24 244.01v28.80" class="stroke"/>
<use x="652.84" y="253.01" xlink:href="#hd"/>
<path d="M649.34 253.01v18.20" class="stroke"/>
<use x="683.94" y="238.01" xlink:href="#hd"/>
<path d="M680.44 238.01v31.60" class="stroke"/>
<path class="fill"
	d="M720.64 259.21l44.40 0.00v-3.20l-44.40 -0.00"/>
<use x="724.44" y="235.01" xlink:href="#hd"/>
<path d="M720.94 235.01v23.20" class="stroke"/>
<use x="746.34" y="241.01" xlink:href="#hd"/>
<path d="M742.84 241.01v17.20" class="stroke"/>
<use x="768.14" y="232.01" xlink:href="#hd"/>
<path d="M764.64 232.01v26.20" class="stroke"/>
<use x="797.84" y="244.01" xlink:href="#hd"/>
<path d="M794.34 244.01v21.00" class="stroke"/>
<use x="841.54" y="247.01" xlink:href="#r8"/>
<use x="23.54" y="299.01" xlink:href="#bclef"/>
<path class="fill"
	d="M52.24 336.21l71.60 -5.10v-3.20l-71.60 5.10"/>
<path class="fill"
	d="M74.34 329.61l49.10 -3.50v-3.20l-49.10 3.50"/>
<use x="56.04" y="317.01" xlink:href="#hd"/>
<path d="M52.54 317.01v18.20" class="stroke"/>
<use x="77.84" y="290.01" xlink:href="#hd"/>
<path d="M74.34 290.01v43.60" class="stroke"/>
<use x="93.44" y="296.01" xlink:href="#hd"/>
<path d="M89.94 296.01v36.50" class="stroke"/>
<use x="111.44" y="299.01" xlink:href="#hd"/>
<use x="102.44" y="299.01" xlink:href="#sh0"/>
<path d="M107.94 299.01v32.20" class="stroke"/>
<use x="126.94" y="302.01" xlink:href="#hd"/>
<path d="M123.44 302.01v28.10" class="stroke"/>
<use x="165.94" y="293.01" xlink:href="#hd"/>
<path d="M162.44 293.01v34.00" class="stroke"/>
<use x="165.94" y="308.01" xlink:href="#hd"/>
<use x="221.24" y="293.01" xlink:href="#hd"/>
<path d="M217.74 293.01v34.00" class="stroke"/>
<path class="fill"
	d="M217.74 327.01c0.6 -5.6 9.6 -9 5.6 -18.4
	1.6 6 -1.3 11.6 -5.6 12.8
"/>
<use x="221.24" y="308.01" xlink:href="#hd"/>
<use x="251.04" y="296.01" xlink:href="#hd"/>
<path d="M247.54 296.01v34.00" class="stroke"/>
<use x="251.04" y="311.01" xlink:href="#hd"/>
<use x="303.94" y="305.01" xlink:href="#r8"/>
<use x="333.64" y="302.01" xlink:href="#hd"/>
<path d="M330.14 302.01v21.00" class="stroke"/>
<path class="fill"
	d="M391.94 326.71l16.20 3.50v-3.20l-16.20 -3.50"/>
<path class="fill"
	d="M392.34 321.81l15.50 3.40v-3.20l-15.50 -3.40"/>
<use x="395.84" y="302.01" xlink:href="#hd"/>
<path d="M392.34 302.01v23.80" class="stroke"/>
<use x="411.34" y="308.01" xlink:href="#hd"/>
<path d="M407.84 308.01v21.20" class="stroke"/>
<use x="436.34" y="317.01" xlink:href="#hd"/>
<path d="M439.84 317.01v-40.00" class="stroke"/>
<use x="436.34" y="296.01" xlink:href="#hd"/>
<use x="489.34" y="296.01" xlink:href="#hd"/>
<path d="M485.84 296.01v21.00" class="stroke"/>
<path class="fill"
	d="M485.84 317.01c0.6 -5.6 9.6 -9 5.6 -18.4
	1.6 6 -1.3 11.6 -5.6 12.8
"/>
<use x="519.04" y="302.01" xlink:href="#hd"/>
<path d="M515.54 302.01v25.00" class="stroke"/>
<use x="519.04" y="308.01" xlink:href="#hd"/>
<use x="581.24" y="305.01" xlink:href="#r8"/>
<path class="fill"
	d="M617.94 324.91l78.40 0.00v-3.20l-78.40 -0.00"/>
<path class="fill"
	d="M618.24 319.91l77.70 0.00v-3.20l-77.70 -0.00"/>
<use x="621.74" y="302.01" xlink:href="#hd"/>
<path d="M618.24 302.01v21.90" class="stroke"/>
<use x="621.74" y="308.01" xlink:href="#hd"/>
<use x="637.34" y="296.01" xlink:href="#hd"/>
<path d="M633.84 296.01v27.90" class="stroke"/>
<use x="652.84" y="302.01" xlink:href="#hd"/>
<path d="M649.34 302.01v21.90" class="stroke"/>
<use x="652.84" y="308.01" xlink:href="#hd"/>
<use x="668.34" y="296.01" xlink:href="#hd"/>
<path d="M664.84 296.01v27.90" class="stroke"/>
<use x="683.94" y="302.01" xlink:href="#hd"/>
<path d="M680.44 302.01v21.90" class="stroke"/>
<use x="683.94" y="308.01" xlink:href="#hd"/>
<use x="699.44" y="296.01" xlink:href="#hd"/>
<path d="M695.94 296.01v27.90" class="stroke"/>
<path class="fill"
	d="M720.64 324.21l44.40 0.00v-3.20l-44.40 -0.00"/>
<use x="724.44" y="299.01" xlink:href="#hd"/>
<path d="M720.94 299.01v24.20" class="stroke"/>
<use x="746.34" y="305.01" xlink:href="#hd"/>
<path d="M742.84 305.01v18.20" class="stroke"/>
<use x="768.14" y="296.01" xlink:href="#hd"/>
<path d="M764.64 296.01v27.20" class="stroke"/>
<path class="fill"
	d="M801.04 288.71l44.40 10.00v3.20l-44.40 -10.00"/>
<use x="797.84" y="308.01" xlink:href="#hd"/>
<path d="M801.34 308.01v-18.20" class="stroke"/>
<use x="819.74" y="317.01" xlink:href="#hd"/>
<path d="M823.24 317.01v-22.30" class="stroke"/>
<use x="841.54" y="323.01" xlink:href="#hl"/>
<use x="841.54" y="329.01" xlink:href="#hl"/>
<use x="841.54" y="329.01" xlink:href="#hd"/>
<path d="M845.04 329.01v-29.30" class="stroke"/>
</g>
</svg>
