<?xml version="1.0" standalone="no"?>
<!DOCTYPE svg PUBLIC "-//W3C//DTD SVG 1.1//EN"
	"http://www.w3.org/Graphics/SVG/1.1/DTD/svg11.dtd">
<svg xmlns="http://www.w3.org/2000/svg" version="1.1"
	xmlns:xlink="http://www.w3.org/1999/xlink"
	color="black"
	width="757.10px" height="293.80px">
<style type="text/css">
.fill {fill: currentColor}
.stroke {stroke: currentColor; fill: none}
text{white-space: pre}
</style>
<title>./K516f-3-12-5-7-11-6-3-7-2-9-12-3-8-7-2-4.abc (1745) tune 1</title>
<!-- Creator: abcm2ps-8.13.8 -->
<!-- CreationDate: Sep  7, 2017 11:20 -->
<!-- CommandLine: ./K516f-3-12-5-7-11-6-3-7-2-9-12-3-8-7-2-4.abc -O ./K516f-3-12-5-7-11-6-3-7-2-9-12-3-8-7-2-4.svg -g -->
<rect width="100%" height="100%" fill="white"/>
<g stroke-width="0.70" transform="scale(0.867)">
<!-- title: 3-12-5-7-11-6-3-7-2-9-12-3-8-7-2-4 -->
</g>
<g stroke-width="0.70" transform="scale(0.867)" font-family="Times" font-size="20.00">
<text x="436.84" y="22.00" text-anchor="middle">3-12-5-7-11-6-3-7-2-9-12-3-8-7-2-4</text>
</g>
<g stroke-width="0.70" transform="scale(0.867)" font-family="Times" font-size="20.00">
<!-- subtitle: $1K.516f::32:130:113:167:135:97:134:91:70:88:108:56:43:162:109:79::$0 -->
</g>
<g stroke-width="0.70" transform="scale(0.867)" font-family="Courier" font-size="8.00" font-weight="bold">
<text x="436.84" y="41.80" text-anchor="middle">K.516f::32:130:113:167:135:97:134:91:70:88:108:56:43:162:109:79::</text>
</g>
<g stroke-width="0.70" transform="scale(0.867)" font-family="Courier" font-size="8.00" font-weight="bold">
<!-- subtitle: $1Perm. No.: 17455031875613$0 -->
<text x="436.84" y="60.80" text-anchor="middle">Perm. No.: 17455031875613</text>
</g>
<g stroke-width="0.70" transform="scale(0.607)" font-family="Courier" font-size="8.00" font-weight="bold">
<defs>
<ellipse id="hd" rx="4.1" ry="2.9"
	transform="rotate(-20)" class="fill"/>
</defs>
<use x="103.06" y="121.29" xlink:href="#hd"/>
<path d="M106.56 121.29v-21.00" class="stroke"/>
<path class="fill"
	d="M106.56 100.29c0.6 5.6 9.6 9 5.6 18.4
	1.6 -6 -1.3 -11.6 -5.6 -12.8
"/>
</g>
<g stroke-width="0.70" transform="scale(0.867)" font-family="Times" font-size="15.00" font-weight="bold">
<text x="81.24" y="87.00">= 111</text>
<path class="stroke" stroke-width="1"
	d="M11.54 183.00v-82.00"/>
<path class="fill"
	d="M6.54 98.00
	c10.5 1 12 -4.5 12 -3.5c0 1 -3.5 5.5 -8.5 5.5
	v84.00
	c5 0 8.5 4.5 8.5 5.5c0 1 -1.5 -4.5 -12 -3.5"/>
<defs>
<g id="rdots" class="fill">
	<circle cx="0" cy="-9" r="1.2"/>
	<circle cx="0" cy="-15" r="1.2"/>
</g>
</defs>
<use x="70.54" y="125.00" xlink:href="#rdots"/>
<path class="stroke" stroke-width="1"
	d="M66.54 125.00v-24.00"/>
<path class="stroke" stroke-width="3"
	d="M62.04 125.00v-24.00"/>
<use x="70.54" y="183.00" xlink:href="#rdots"/>
<path class="stroke" stroke-width="1"
	d="M66.54 183.00v-58.00"/>
<path class="stroke" stroke-width="3"
	d="M62.04 183.00v-58.00"/>
<path class="stroke" stroke-width="1"
	d="M155.24 125.00v-24.00"/>
<path class="stroke" stroke-width="1"
	d="M155.24 183.00v-58.00"/>
<path class="stroke" stroke-width="1"
	d="M238.84 125.00v-24.00"/>
<path class="stroke" stroke-width="1"
	d="M238.84 183.00v-58.00"/>
<path class="stroke" stroke-width="1"
	d="M322.54 125.00v-24.00"/>
<path class="stroke" stroke-width="1"
	d="M322.54 183.00v-58.00"/>
<path class="stroke" stroke-width="1"
	d="M416.54 125.00v-24.00"/>
<path class="stroke" stroke-width="1"
	d="M416.54 183.00v-58.00"/>
<path class="stroke" stroke-width="1"
	d="M520.24 125.00v-24.00"/>
<path class="stroke" stroke-width="1"
	d="M520.24 183.00v-58.00"/>
<path class="stroke" stroke-width="1"
	d="M636.94 125.00v-24.00"/>
<path class="stroke" stroke-width="1"
	d="M636.94 183.00v-58.00"/>
<path class="stroke" stroke-width="1"
	d="M753.74 125.00v-24.00"/>
<path class="stroke" stroke-width="1"
	d="M753.74 183.00v-58.00"/>
<path class="stroke" stroke-width="3"
	d="M860.54 125.00v-24.00"/>
<path class="stroke" stroke-width="1"
	d="M856.04 125.00v-24.00"/>
<use x="852.04" y="125.00" xlink:href="#rdots"/>
<path class="stroke" stroke-width="3"
	d="M860.54 183.00v-58.00"/>
<path class="stroke" stroke-width="1"
	d="M856.04 183.00v-58.00"/>
<use x="852.04" y="183.00" xlink:href="#rdots"/>
<path d="m11.54 125.00
	h850.50
	M11.54 119.00
	h850.50
	M11.54 113.00
	h850.50
	M11.54 107.00
	h850.50
	M11.54 101.00
	h850.50
	" class="stroke"/>
<path d="m11.54 183.00
	h850.50
	M11.54 177.00
	h850.50
	M11.54 171.00
	h850.50
	M11.54 165.00
	h850.50
	M11.54 159.00
	h850.50
	" class="stroke"/>
</g>
<g stroke-width="0.70" transform="scale(0.867)" font-family="Times" font-size="13.00">
<text x="757.74" y="86.40">1</text>
<path class="stroke"
	d="M753.74 75.00m0 20v-20h100.30v20"/>
<defs>
<path id="utclef" class="fill" d="m-50 -90
	c-72 -41 -72 -158 52 -188
	150 -10 220 188 90 256
	-114 52 -275 0 -293 -136
	-15 -181 93 -229 220 -334
	88 -87 79 -133 62 -210
	-51 33 -94 105 -89 186
	17 267 36 374 49 574
	6 96 -19 134 -77 135
	-80 1 -126 -93 -61 -133
	85 -41 133 101 31 105
	23 17 92 37 90 -92
	-10 -223 -39 -342 -50 -617
	0 -90 0 -162 96 -232
	56 72 63 230 22 289
	-74 106 -257 168 -255 316
	9 153 148 185 252 133
	86 -65 29 -192 -80 -176
	-71 12 -105 67 -59 124"/>
<use id="tclef" transform="translate(0,6) scale(0.045)"
	xlink:href="#utclef"/>
</defs>
<use x="23.54" y="119.00" xlink:href="#tclef"/>
<g font-family="serif" font-size="16" font-weight="bold" font-style="normal"
	transform="translate(42.04,124.50) scale(1.2,1)">
	<text text-anchor="middle">8</text>
	<text y="-12" text-anchor="middle">3</text>
</g>
<path class="fill"
	d="M81.64 138.20l50.80 -6.70v-3.20l-50.80 6.70"/>
<use x="85.54" y="119.00" xlink:href="#hd"/>
<path d="M82.04 119.00v18.20" class="stroke"/>
<use x="110.64" y="110.00" xlink:href="#hd"/>
<path d="M107.14 110.00v23.90" class="stroke"/>
<use x="135.64" y="104.00" xlink:href="#hd"/>
<path d="M132.14 104.00v26.60" class="stroke"/>
<path class="fill"
	d="M172.34 91.00l50.80 0.00v3.20l-50.80 -0.00"/>
<use x="169.14" y="125.00" xlink:href="#hd"/>
<path d="M172.64 125.00v-33.00" class="stroke"/>
<use x="169.14" y="110.00" xlink:href="#hd"/>
<use x="194.24" y="125.00" xlink:href="#hd"/>
<path d="M197.74 125.00v-33.00" class="stroke"/>
<use x="194.24" y="110.00" xlink:href="#hd"/>
<use x="219.34" y="125.00" xlink:href="#hd"/>
<path d="M222.84 125.00v-33.00" class="stroke"/>
<use x="219.34" y="110.00" xlink:href="#hd"/>
<path class="fill"
	d="M249.04 124.00l50.80 8.20v-3.20l-50.80 -8.20"/>
<use x="252.84" y="101.00" xlink:href="#hd"/>
<path d="M249.34 101.00v22.10" class="stroke"/>
<use x="277.94" y="107.00" xlink:href="#hd"/>
<path d="M274.44 107.00v20.10" class="stroke"/>
<use x="302.94" y="113.00" xlink:href="#hd"/>
<path d="M299.44 113.00v18.20" class="stroke"/>
<path class="fill"
	d="M332.64 133.00l61.20 0.00v-3.20l-61.20 -0.00"/>
<path class="fill"
	d="M358.04 128.00l17.70 0.00v-3.20l-17.70 -0.00"/>
<use x="336.54" y="110.00" xlink:href="#hd"/>
<path d="M333.04 110.00v21.90" class="stroke"/>
<use x="361.54" y="110.00" xlink:href="#hd"/>
<path d="M358.04 110.00v21.90" class="stroke"/>
<use x="379.34" y="107.00" xlink:href="#hd"/>
<path d="M375.84 107.00v24.90" class="stroke"/>
<use x="397.04" y="104.00" xlink:href="#hd"/>
<path d="M393.54 104.00v27.90" class="stroke"/>
<path class="fill"
	d="M431.24 127.00l61.30 0.00v-3.20l-61.30 -0.00"/>
<path class="fill"
	d="M456.74 122.00l17.70 0.00v-3.20l-17.70 -0.00"/>
<use x="435.04" y="101.00" xlink:href="#hd"/>
<defs>
<path id="usharp" class="fill" d="
	m136 -702
	v890
	h32
	v-890
	m128 840
	h32
	v-888
	h-32
	m-232 286
	v116
	l338 -96
	v-116
	m-338 442
	v116
	l338 -98
	v-114"/>
<use id="sh0" transform="translate(-4,5) scale(0.018)"
	xlink:href="#usharp"/>
</defs>
<use x="426.04" y="101.00" xlink:href="#sh0"/>
<path d="M431.54 101.00v25.00" class="stroke"/>
<use x="460.24" y="101.00" xlink:href="#hd"/>
<path d="M456.74 101.00v25.00" class="stroke"/>
<use x="477.94" y="107.00" xlink:href="#hd"/>
<path d="M474.44 107.00v19.00" class="stroke"/>
<defs>
<path id="hl" class="stroke" d="m-6 0h12"/>
</defs>
<use x="495.74" y="95.00" xlink:href="#hl"/>
<use x="495.74" y="95.00" xlink:href="#hd"/>
<path d="M492.24 95.00v31.00" class="stroke"/>
<path class="fill"
	d="M530.34 131.20l89.60 10.10v-3.20l-89.60 -10.10"/>
<path class="fill"
	d="M530.74 126.20l88.90 10.00v-3.20l-88.90 -10.00"/>
<use x="534.24" y="98.00" xlink:href="#hd"/>
<path d="M530.74 98.00v32.20" class="stroke"/>
<use x="552.24" y="101.00" xlink:href="#hd"/>
<use x="543.24" y="101.00" xlink:href="#sh0"/>
<path d="M548.74 101.00v31.20" class="stroke"/>
<use x="569.94" y="98.00" xlink:href="#hd"/>
<path d="M566.44 98.00v36.20" class="stroke"/>
<use x="587.64" y="107.00" xlink:href="#hd"/>
<path d="M584.14 107.00v29.20" class="stroke"/>
<use x="605.44" y="113.00" xlink:href="#hd"/>
<path d="M601.94 113.00v25.20" class="stroke"/>
<use x="623.14" y="119.00" xlink:href="#hd"/>
<path d="M619.64 119.00v21.20" class="stroke"/>
<path class="fill"
	d="M647.14 140.20l89.60 0.00v-3.20l-89.60 -0.00"/>
<path class="fill"
	d="M647.44 135.20l88.90 0.00v-3.20l-88.90 -0.00"/>
<use x="650.94" y="116.00" xlink:href="#hd"/>
<path d="M647.44 116.00v23.20" class="stroke"/>
<use x="668.64" y="104.00" xlink:href="#hd"/>
<path d="M665.14 104.00v35.20" class="stroke"/>
<use x="686.44" y="107.00" xlink:href="#hd"/>
<path d="M682.94 107.00v32.20" class="stroke"/>
<use x="686.44" y="113.00" xlink:href="#hd"/>
<use x="704.14" y="110.00" xlink:href="#hd"/>
<path d="M700.64 110.00v29.20" class="stroke"/>
<use x="704.14" y="116.00" xlink:href="#hd"/>
<use x="721.94" y="113.00" xlink:href="#hd"/>
<path d="M718.44 113.00v26.20" class="stroke"/>
<use x="721.94" y="119.00" xlink:href="#hd"/>
<use x="739.94" y="116.00" xlink:href="#hd"/>
<path d="M736.44 116.00v23.20" class="stroke"/>
<use x="739.94" y="122.00" xlink:href="#hd"/>
<use x="730.94" y="122.00" xlink:href="#sh0"/>
<use x="767.74" y="98.00" xlink:href="#hd"/>
<path d="M764.24 98.00v40.00" class="stroke"/>
<use x="767.74" y="119.00" xlink:href="#hd"/>
<use x="767.74" y="113.00" xlink:href="#hd"/>
<use x="767.74" y="107.00" xlink:href="#hd"/>
<defs>
<path id="r8e" class="fill" d="m 0 0
	c-1.5 1.5 -2.4 2 -3.6 2
	2.4 -2.8 -2.8 -4 -2.8 -1.2
	c0 2.7 4.3 2.4 5.9 0.6"/>
<g id="r8">
	<path d="m3.3 -4l-3.4 9.6" class="stroke"/>
	<use x="3.4" y="-4" xlink:href="#r8e"/>
</g>
</defs>
<use x="828.54" y="113.00" xlink:href="#r8"/>
<defs>
<path id="ubclef" class="fill" d="m-200 -87
	c124 -35 222 -78 254 -236
	43 -228 -167 -246 -192 -103
	59 -80 157 22 92 78
	-62 47 -115 -22 -106 -88
	21 -141 270 -136 274 52
	-1 175 -106 264 -322 297
	m357 -250
	c0 -36 51 -34 51 0
	0 37 -51 36 -51 0
	m-2 -129
	c0 -36 51 -34 51 0
	0 38 -51 37 -51 0"/>
<use id="bclef" transform="translate(0,18) scale(0.045)"
	xlink:href="#ubclef"/>
</defs>
<use x="23.54" y="165.00" xlink:href="#bclef"/>
<g font-family="serif" font-size="16" font-weight="bold" font-style="normal"
	transform="translate(42.04,182.50) scale(1.2,1)">
	<text text-anchor="middle">8</text>
	<text y="-12" text-anchor="middle">3</text>
</g>
<use x="85.54" y="168.00" xlink:href="#hd"/>
<path d="M82.04 168.00v25.00" class="stroke"/>
<use x="85.54" y="174.00" xlink:href="#hd"/>
<use x="135.64" y="171.00" xlink:href="#r8"/>
<path class="fill"
	d="M172.34 153.00l50.80 0.00v3.20l-50.80 -0.00"/>
<use x="169.14" y="174.00" xlink:href="#hd"/>
<path d="M172.64 174.00v-20.00" class="stroke"/>
<use x="194.24" y="174.00" xlink:href="#hd"/>
<path d="M197.74 174.00v-20.00" class="stroke"/>
<use x="219.34" y="174.00" xlink:href="#hd"/>
<path d="M222.84 174.00v-20.00" class="stroke"/>
<use x="252.84" y="156.00" xlink:href="#hd"/>
<path d="M249.34 156.00v25.00" class="stroke"/>
<use x="252.84" y="162.00" xlink:href="#hd"/>
<use x="302.94" y="171.00" xlink:href="#r8"/>
<use x="336.54" y="168.00" xlink:href="#hd"/>
<path d="M333.04 168.00v25.00" class="stroke"/>
<use x="336.54" y="174.00" xlink:href="#hd"/>
<use x="397.04" y="171.00" xlink:href="#r8"/>
<path class="fill"
	d="M438.24 150.00l61.30 0.00v3.20l-61.30 -0.00"/>
<use x="435.04" y="171.00" xlink:href="#hd"/>
<path d="M438.54 171.00v-20.00" class="stroke"/>
<use x="460.24" y="171.00" xlink:href="#hd"/>
<path d="M463.74 171.00v-20.00" class="stroke"/>
<use x="495.74" y="171.00" xlink:href="#hd"/>
<path d="M499.24 171.00v-20.00" class="stroke"/>
<use x="534.24" y="177.00" xlink:href="#hd"/>
<path d="M537.74 177.00v-25.00" class="stroke"/>
<use x="534.24" y="171.00" xlink:href="#hd"/>
<use x="605.44" y="162.00" xlink:href="#hd"/>
<path d="M601.94 162.00v34.00" class="stroke"/>
<path class="fill"
	d="M601.94 196.00c0.6 -5.6 9.6 -9 5.6 -18.4
	1.6 6 -1.3 11.6 -5.6 12.8
"/>
<use x="605.44" y="177.00" xlink:href="#hd"/>
<path class="fill"
	d="M654.14 147.60l71.60 8.40v3.20l-71.60 -8.40"/>
<use x="650.94" y="174.00" xlink:href="#hd"/>
<path d="M654.44 174.00v-25.30" class="stroke"/>
<use x="686.44" y="171.00" xlink:href="#hd"/>
<path d="M689.94 171.00v-18.20" class="stroke"/>
<use x="721.94" y="189.00" xlink:href="#hl"/>
<use x="721.94" y="192.00" xlink:href="#hd"/>
<path d="M725.44 192.00v-35.10" class="stroke"/>
<path class="fill"
	d="M763.84 202.20l79.20 0.00v-3.20l-79.20 -0.00"/>
<path class="fill"
	d="M789.24 197.20l53.50 0.00v-3.20l-53.50 -0.00"/>
<use x="767.74" y="183.00" xlink:href="#hd"/>
<path d="M764.24 183.00v18.20" class="stroke"/>
<use x="792.74" y="162.00" xlink:href="#hd"/>
<path d="M789.24 162.00v39.20" class="stroke"/>
<use x="810.74" y="165.00" xlink:href="#hd"/>
<defs>
<path id="unat" class="fill" d="
	m96 -750
	h-32
	v716
	l32 -8
	182 -54
	v282
	h32
	v-706
	l-34 10
	-180 50
	v-290
	m0 592
	v-190
	l182 -52
	v188"/>
<use id="nt0" transform="translate(-3,5) scale(0.018)"
	xlink:href="#unat"/>
</defs>
<use x="801.74" y="165.00" xlink:href="#nt0"/>
<path d="M807.24 165.00v36.20" class="stroke"/>
<use x="828.54" y="168.00" xlink:href="#hd"/>
<path d="M825.04 168.00v33.20" class="stroke"/>
<use x="846.24" y="171.00" xlink:href="#hd"/>
<path d="M842.74 171.00v30.20" class="stroke"/>
<path class="fill"
	d="M439.24 195.00l61.30 0.00v-3.20l-61.30 -0.00"/>
<use x="443.04" y="174.00" xlink:href="#hd"/>
<path d="M439.54 174.00v20.00" class="stroke"/>
<use x="468.24" y="174.00" xlink:href="#hd"/>
<path d="M464.74 174.00v20.00" class="stroke"/>
<use x="503.74" y="174.00" xlink:href="#hd"/>
<path d="M500.24 174.00v20.00" class="stroke"/>
</g>
<g stroke-width="0.70" transform="scale(0.867)" font-family="Times" font-size="13.00">
<path class="stroke" stroke-width="1"
	d="M11.54 316.00v-82.00"/>
<path class="fill"
	d="M6.54 231.00
	c10.5 1 12 -4.5 12 -3.5c0 1 -3.5 5.5 -8.5 5.5
	v84.00
	c5 0 8.5 4.5 8.5 5.5c0 1 -1.5 -4.5 -12 -3.5"/>
<use x="144.74" y="258.00" xlink:href="#rdots"/>
<path class="stroke" stroke-width="1"
	d="M140.74 258.00v-24.00"/>
<path class="stroke" stroke-width="3"
	d="M136.24 258.00v-24.00"/>
<use x="144.74" y="316.00" xlink:href="#rdots"/>
<path class="stroke" stroke-width="1"
	d="M140.74 316.00v-58.00"/>
<path class="stroke" stroke-width="3"
	d="M136.24 316.00v-58.00"/>
<path class="stroke" stroke-width="1"
	d="M242.94 258.00v-24.00"/>
<path class="stroke" stroke-width="1"
	d="M242.94 316.00v-58.00"/>
<path class="stroke" stroke-width="1"
	d="M343.24 258.00v-24.00"/>
<path class="stroke" stroke-width="1"
	d="M343.24 316.00v-58.00"/>
<path class="stroke" stroke-width="1"
	d="M414.64 258.00v-24.00"/>
<path class="stroke" stroke-width="1"
	d="M414.64 316.00v-58.00"/>
<path class="stroke" stroke-width="1"
	d="M495.04 258.00v-24.00"/>
<path class="stroke" stroke-width="1"
	d="M495.04 316.00v-58.00"/>
<path class="stroke" stroke-width="1"
	d="M586.34 258.00v-24.00"/>
<path class="stroke" stroke-width="1"
	d="M586.34 316.00v-58.00"/>
<path class="stroke" stroke-width="1"
	d="M686.64 258.00v-24.00"/>
<path class="stroke" stroke-width="1"
	d="M686.64 316.00v-58.00"/>
<path class="stroke" stroke-width="1"
	d="M786.94 258.00v-24.00"/>
<path class="stroke" stroke-width="1"
	d="M786.94 316.00v-58.00"/>
<path class="stroke" stroke-width="3"
	d="M860.54 258.00v-24.00"/>
<path class="stroke" stroke-width="1"
	d="M856.04 258.00v-24.00"/>
<use x="852.04" y="258.00" xlink:href="#rdots"/>
<path class="stroke" stroke-width="3"
	d="M860.54 316.00v-58.00"/>
<path class="stroke" stroke-width="1"
	d="M856.04 316.00v-58.00"/>
<use x="852.04" y="316.00" xlink:href="#rdots"/>
<path d="m11.54 258.00
	h850.50
	M11.54 252.00
	h850.50
	M11.54 246.00
	h850.50
	M11.54 240.00
	h850.50
	M11.54 234.00
	h850.50
	" class="stroke"/>
<path d="m11.54 316.00
	h850.50
	M11.54 310.00
	h850.50
	M11.54 304.00
	h850.50
	M11.54 298.00
	h850.50
	M11.54 292.00
	h850.50
	" class="stroke"/>
<path class="fill"
	d="M355.74 229.00c6.00 -5.78 32.12 -13.05 38.12 -10.60
	v-0.24c-7.15 -4.21 -30.98 3.05 -38.12 10.84"/>
<text x="47.54" y="219.40">2</text>
<path class="stroke"
	d="M43.54 208.00m0 20v-20h90.20v20"/>
<use x="23.54" y="252.00" xlink:href="#tclef"/>
<use x="56.04" y="231.00" xlink:href="#hd"/>
<path d="M52.54 231.00v40.00" class="stroke"/>
<use x="56.04" y="252.00" xlink:href="#hd"/>
<use x="56.04" y="246.00" xlink:href="#hd"/>
<use x="56.04" y="240.00" xlink:href="#hd"/>
<use x="110.14" y="246.00" xlink:href="#r8"/>
<path class="fill"
	d="M160.34 260.00l66.90 0.00v-3.20l-66.90 -0.00"/>
<path class="fill"
	d="M181.74 255.00l45.20 0.00v-3.20l-45.20 -0.00"/>
<use x="164.24" y="234.00" xlink:href="#hd"/>
<use x="155.24" y="234.00" xlink:href="#sh0"/>
<path d="M160.74 234.00v25.00" class="stroke"/>
<use x="185.24" y="228.00" xlink:href="#hl"/>
<use x="185.24" y="228.00" xlink:href="#hd"/>
<path d="M181.74 228.00v31.00" class="stroke"/>
<use x="200.34" y="234.00" xlink:href="#hd"/>
<path d="M196.84 234.00v25.00" class="stroke"/>
<use x="215.44" y="240.00" xlink:href="#hd"/>
<path d="M211.94 240.00v19.00" class="stroke"/>
<use x="230.44" y="234.00" xlink:href="#hd"/>
<path d="M226.94 234.00v25.00" class="stroke"/>
<path class="fill"
	d="M251.64 260.00l76.00 0.00v-3.20l-76.00 -0.00"/>
<path class="fill"
	d="M251.94 255.00l75.30 0.00v-3.20l-75.30 -0.00"/>
<use x="255.44" y="231.00" xlink:href="#hd"/>
<path d="M251.94 231.00v28.00" class="stroke"/>
<use x="270.54" y="240.00" xlink:href="#hd"/>
<path d="M267.04 240.00v19.00" class="stroke"/>
<use x="285.54" y="231.00" xlink:href="#hd"/>
<path d="M282.04 231.00v28.00" class="stroke"/>
<use x="300.64" y="228.00" xlink:href="#hl"/>
<use x="300.64" y="225.00" xlink:href="#hd"/>
<path d="M297.14 225.00v34.00" class="stroke"/>
<use x="315.74" y="231.00" xlink:href="#hd"/>
<path d="M312.24 231.00v28.00" class="stroke"/>
<use x="330.74" y="240.00" xlink:href="#hd"/>
<path d="M327.24 240.00v19.00" class="stroke"/>
<path class="fill"
	d="M351.94 256.30l42.80 -7.80v-3.20l-42.80 7.80"/>
<use x="355.74" y="237.00" xlink:href="#hd"/>
<path d="M352.24 237.00v18.20" class="stroke"/>
<use x="376.84" y="231.00" xlink:href="#hd"/>
<path d="M373.34 231.00v20.40" class="stroke"/>
<use x="397.94" y="228.00" xlink:href="#hl"/>
<use x="397.94" y="222.00" xlink:href="#hl"/>
<use x="397.94" y="222.00" xlink:href="#hd"/>
<path d="M394.44 222.00v25.60" class="stroke"/>
<path class="fill"
	d="M423.34 265.60l30.80 6.80v-3.20l-30.80 -6.80"/>
<path class="fill"
	d="M423.64 260.70l15.10 3.30v-3.20l-15.10 -3.30"/>
<use x="427.14" y="240.00" xlink:href="#hd"/>
<path d="M423.64 240.00v24.70" class="stroke"/>
<use x="442.24" y="246.00" xlink:href="#hd"/>
<path d="M438.74 246.00v22.00" class="stroke"/>
<use x="457.24" y="252.00" xlink:href="#hd"/>
<path d="M453.74 252.00v19.30" class="stroke"/>
<use x="478.34" y="246.00" xlink:href="#r8"/>
<path class="fill"
	d="M503.74 256.30l66.90 9.00v-3.20l-66.90 -9.00"/>
<path class="fill"
	d="M525.14 254.10l45.20 6.10v-3.20l-45.20 -6.10"/>
<use x="507.54" y="231.00" xlink:href="#hd"/>
<path d="M504.04 231.00v24.30" class="stroke"/>
<use x="528.64" y="234.00" xlink:href="#hd"/>
<path d="M525.14 234.00v24.10" class="stroke"/>
<use x="543.74" y="237.00" xlink:href="#hd"/>
<path d="M540.24 237.00v23.20" class="stroke"/>
<use x="558.74" y="240.00" xlink:href="#hd"/>
<path d="M555.24 240.00v22.20" class="stroke"/>
<use x="573.84" y="243.00" xlink:href="#hd"/>
<path d="M570.34 243.00v21.20" class="stroke"/>
<path class="fill"
	d="M594.94 263.50l76.00 -6.30v-3.20l-76.00 6.30"/>
<path class="fill"
	d="M595.34 258.40l75.30 -6.20v-3.20l-75.30 6.20"/>
<use x="598.84" y="237.00" xlink:href="#hd"/>
<path d="M595.34 237.00v25.40" class="stroke"/>
<use x="613.84" y="240.00" xlink:href="#hd"/>
<path d="M610.34 240.00v21.20" class="stroke"/>
<use x="628.94" y="237.00" xlink:href="#hd"/>
<path d="M625.44 237.00v23.00" class="stroke"/>
<use x="644.04" y="231.00" xlink:href="#hd"/>
<path d="M640.54 231.00v27.70" class="stroke"/>
<use x="659.04" y="228.00" xlink:href="#hl"/>
<use x="659.04" y="222.00" xlink:href="#hl"/>
<use x="659.04" y="222.00" xlink:href="#hd"/>
<path d="M655.54 222.00v35.50" class="stroke"/>
<use x="674.14" y="231.00" xlink:href="#hd"/>
<path d="M670.64 231.00v25.20" class="stroke"/>
<path class="fill"
	d="M695.24 266.00l76.00 0.00v-3.20l-76.00 -0.00"/>
<path class="fill"
	d="M695.64 261.00l75.30 0.00v-3.20l-75.30 -0.00"/>
<use x="699.14" y="240.00" xlink:href="#hd"/>
<path d="M695.64 240.00v24.90" class="stroke"/>
<use x="714.14" y="234.00" xlink:href="#hd"/>
<path d="M710.64 234.00v30.90" class="stroke"/>
<use x="729.24" y="240.00" xlink:href="#hd"/>
<path d="M725.74 240.00v24.90" class="stroke"/>
<use x="744.34" y="234.00" xlink:href="#hd"/>
<path d="M740.84 234.00v30.90" class="stroke"/>
<use x="759.34" y="246.00" xlink:href="#hd"/>
<path d="M755.84 246.00v18.90" class="stroke"/>
<use x="774.44" y="240.00" xlink:href="#hd"/>
<path d="M770.94 240.00v24.90" class="stroke"/>
<use x="799.44" y="243.00" xlink:href="#hd"/>
<path d="M795.94 243.00v21.00" class="stroke"/>
<use x="841.54" y="246.00" xlink:href="#r8"/>
<use x="23.54" y="298.00" xlink:href="#bclef"/>
<path class="fill"
	d="M52.24 335.20l69.90 -5.00v-3.20l-69.90 5.00"/>
<path class="fill"
	d="M73.64 328.70l48.10 -3.50v-3.20l-48.10 3.50"/>
<use x="56.04" y="316.00" xlink:href="#hd"/>
<path d="M52.54 316.00v18.20" class="stroke"/>
<use x="77.14" y="289.00" xlink:href="#hd"/>
<path d="M73.64 289.00v43.70" class="stroke"/>
<use x="92.14" y="295.00" xlink:href="#hd"/>
<path d="M88.64 295.00v36.60" class="stroke"/>
<use x="110.14" y="298.00" xlink:href="#hd"/>
<use x="101.14" y="298.00" xlink:href="#sh0"/>
<path d="M106.64 298.00v32.30" class="stroke"/>
<use x="125.24" y="301.00" xlink:href="#hd"/>
<path d="M121.74 301.00v28.20" class="stroke"/>
<use x="164.24" y="304.00" xlink:href="#hd"/>
<path d="M167.74 304.00v-21.00" class="stroke"/>
<use x="215.44" y="307.00" xlink:href="#hd"/>
<path d="M218.94 307.00v-21.00" class="stroke"/>
<path class="fill"
	d="M218.94 286.00c0.6 5.6 9.6 9 5.6 18.4
	1.6 -6 -1.3 -11.6 -5.6 -12.8
"/>
<use x="255.44" y="310.00" xlink:href="#hd"/>
<path d="M258.94 310.00v-25.00" class="stroke"/>
<use x="255.44" y="304.00" xlink:href="#hd"/>
<use x="315.74" y="310.00" xlink:href="#hd"/>
<path d="M319.24 310.00v-25.00" class="stroke"/>
<path class="fill"
	d="M319.24 285.00c0.6 5.6 9.6 9 5.6 18.4
	1.6 -6 -1.3 -11.6 -5.6 -12.8
"/>
<use x="315.74" y="304.00" xlink:href="#hd"/>
<use x="355.74" y="295.00" xlink:href="#hd"/>
<path d="M352.24 295.00v31.00" class="stroke"/>
<use x="355.74" y="307.00" xlink:href="#hd"/>
<use x="397.94" y="301.00" xlink:href="#hd"/>
<path d="M394.44 301.00v25.00" class="stroke"/>
<path class="fill"
	d="M394.44 326.00c0.6 -5.6 9.6 -9 5.6 -18.4
	1.6 6 -1.3 11.6 -5.6 12.8
"/>
<use x="397.94" y="307.00" xlink:href="#hd"/>
<use x="427.14" y="316.00" xlink:href="#hd"/>
<path d="M430.64 316.00v-40.00" class="stroke"/>
<use x="427.14" y="295.00" xlink:href="#hd"/>
<use x="478.34" y="295.00" xlink:href="#hd"/>
<path d="M474.84 295.00v21.00" class="stroke"/>
<path class="fill"
	d="M474.84 316.00c0.6 -5.6 9.6 -9 5.6 -18.4
	1.6 6 -1.3 11.6 -5.6 12.8
"/>
<use x="507.54" y="301.00" xlink:href="#hd"/>
<path d="M504.04 301.00v25.00" class="stroke"/>
<use x="507.54" y="307.00" xlink:href="#hd"/>
<use x="558.74" y="304.00" xlink:href="#r8"/>
<use x="598.84" y="295.00" xlink:href="#hd"/>
<path d="M595.34 295.00v31.00" class="stroke"/>
<use x="598.84" y="307.00" xlink:href="#hd"/>
<use x="659.04" y="301.00" xlink:href="#hd"/>
<path d="M655.54 301.00v25.00" class="stroke"/>
<path class="fill"
	d="M655.54 326.00c0.6 -5.6 9.6 -9 5.6 -18.4
	1.6 6 -1.3 11.6 -5.6 12.8
"/>
<use x="659.04" y="307.00" xlink:href="#hd"/>
<use x="699.14" y="292.00" xlink:href="#hd"/>
<path d="M695.64 292.00v25.00" class="stroke"/>
<use x="699.14" y="298.00" xlink:href="#hd"/>
<use x="759.34" y="286.00" xlink:href="#hl"/>
<use x="759.34" y="283.00" xlink:href="#hd"/>
<path d="M755.84 283.00v31.00" class="stroke"/>
<path class="fill"
	d="M755.84 314.00c0.6 -5.6 9.6 -9 5.6 -18.4
	1.6 6 -1.3 11.6 -5.6 12.8
"/>
<use x="759.34" y="295.00" xlink:href="#hd"/>
<path class="fill"
	d="M802.54 287.70l42.80 9.90v3.20l-42.80 -9.90"/>
<use x="799.44" y="307.00" xlink:href="#hd"/>
<path d="M802.94 307.00v-18.20" class="stroke"/>
<use x="820.44" y="316.00" xlink:href="#hd"/>
<path d="M823.94 316.00v-22.30" class="stroke"/>
<use x="841.54" y="322.00" xlink:href="#hl"/>
<use x="841.54" y="328.00" xlink:href="#hl"/>
<use x="841.54" y="328.00" xlink:href="#hd"/>
<path d="M845.04 328.00v-29.50" class="stroke"/>
</g>
</svg>
