<?xml version="1.0" standalone="no"?>
<!DOCTYPE svg PUBLIC "-//W3C//DTD SVG 1.1//EN"
	"http://www.w3.org/Graphics/SVG/1.1/DTD/svg11.dtd">
<svg xmlns="http://www.w3.org/2000/svg" version="1.1"
	xmlns:xlink="http://www.w3.org/1999/xlink"
	color="black"
	width="757.10px" height="297.27px">
<style type="text/css">
.fill {fill: currentColor}
.stroke {stroke: currentColor; fill: none}
text{white-space: pre}
</style>
<title>./K516f-12-10-2-4-7-6-12-9-9-4-8-9-2-10-6-4.abc (1633) tune 1</title>
<!-- Creator: abcm2ps-8.13.8 -->
<!-- CreationDate: Sep  7, 2017 11:20 -->
<!-- CommandLine: ./K516f-12-10-2-4-7-6-12-9-9-4-8-9-2-10-6-4.abc -O ./K516f-12-10-2-4-7-6-12-9-9-4-8-9-2-10-6-4.svg -g -->
<rect width="100%" height="100%" fill="white"/>
<g stroke-width="0.70" transform="scale(0.867)">
<!-- title: 12-10-2-4-7-6-12-9-9-4-8-9-2-10-6-4 -->
</g>
<g stroke-width="0.70" transform="scale(0.867)" font-family="Times" font-size="20.00">
<text x="436.84" y="22.00" text-anchor="middle">12-10-2-4-7-6-12-9-9-4-8-9-2-10-6-4</text>
</g>
<g stroke-width="0.70" transform="scale(0.867)" font-family="Times" font-size="20.00">
<!-- subtitle: $1K.516f::54:142:141:13:154:97:106:94:120:139:57:166:112:38:1:79::$0 -->
</g>
<g stroke-width="0.70" transform="scale(0.867)" font-family="Courier" font-size="8.00" font-weight="bold">
<text x="436.84" y="41.80" text-anchor="middle">K.516f::54:142:141:13:154:97:106:94:120:139:57:166:112:38:1:79::</text>
</g>
<g stroke-width="0.70" transform="scale(0.867)" font-family="Courier" font-size="8.00" font-weight="bold">
<!-- subtitle: $1Perm. No.: 163394568811584$0 -->
<text x="436.84" y="60.80" text-anchor="middle">Perm. No.: 163394568811584</text>
</g>
<g stroke-width="0.70" transform="scale(0.607)" font-family="Courier" font-size="8.00" font-weight="bold">
<defs>
<ellipse id="hd" rx="4.1" ry="2.9"
	transform="rotate(-20)" class="fill"/>
</defs>
<use x="103.06" y="121.29" xlink:href="#hd"/>
<path d="M106.56 121.29v-21.00" class="stroke"/>
<path class="fill"
	d="M106.56 100.29c0.6 5.6 9.6 9 5.6 18.4
	1.6 -6 -1.3 -11.6 -5.6 -12.8
"/>
</g>
<g stroke-width="0.70" transform="scale(0.867)" font-family="Times" font-size="15.00" font-weight="bold">
<text x="81.24" y="87.00">= 111</text>
<path class="stroke" stroke-width="1"
	d="M11.54 187.00v-82.00"/>
<path class="fill"
	d="M6.54 102.00
	c10.5 1 12 -4.5 12 -3.5c0 1 -3.5 5.5 -8.5 5.5
	v84.00
	c5 0 8.5 4.5 8.5 5.5c0 1 -1.5 -4.5 -12 -3.5"/>
<defs>
<g id="rdots" class="fill">
	<circle cx="0" cy="-9" r="1.2"/>
	<circle cx="0" cy="-15" r="1.2"/>
</g>
</defs>
<use x="70.54" y="129.00" xlink:href="#rdots"/>
<path class="stroke" stroke-width="1"
	d="M66.54 129.00v-24.00"/>
<path class="stroke" stroke-width="3"
	d="M62.04 129.00v-24.00"/>
<use x="70.54" y="187.00" xlink:href="#rdots"/>
<path class="stroke" stroke-width="1"
	d="M66.54 187.00v-58.00"/>
<path class="stroke" stroke-width="3"
	d="M62.04 187.00v-58.00"/>
<path class="stroke" stroke-width="1"
	d="M152.34 129.00v-24.00"/>
<path class="stroke" stroke-width="1"
	d="M152.34 187.00v-58.00"/>
<path class="stroke" stroke-width="1"
	d="M233.14 129.00v-24.00"/>
<path class="stroke" stroke-width="1"
	d="M233.14 187.00v-58.00"/>
<path class="stroke" stroke-width="1"
	d="M345.64 129.00v-24.00"/>
<path class="stroke" stroke-width="1"
	d="M345.64 187.00v-58.00"/>
<path class="stroke" stroke-width="1"
	d="M426.44 129.00v-24.00"/>
<path class="stroke" stroke-width="1"
	d="M426.44 187.00v-58.00"/>
<path class="stroke" stroke-width="1"
	d="M540.84 129.00v-24.00"/>
<path class="stroke" stroke-width="1"
	d="M540.84 187.00v-58.00"/>
<path class="stroke" stroke-width="1"
	d="M654.24 129.00v-24.00"/>
<path class="stroke" stroke-width="1"
	d="M654.24 187.00v-58.00"/>
<path class="stroke" stroke-width="1"
	d="M756.74 129.00v-24.00"/>
<path class="stroke" stroke-width="1"
	d="M756.74 187.00v-58.00"/>
<path class="stroke" stroke-width="3"
	d="M860.54 129.00v-24.00"/>
<path class="stroke" stroke-width="1"
	d="M856.04 129.00v-24.00"/>
<use x="852.04" y="129.00" xlink:href="#rdots"/>
<path class="stroke" stroke-width="3"
	d="M860.54 187.00v-58.00"/>
<path class="stroke" stroke-width="1"
	d="M856.04 187.00v-58.00"/>
<use x="852.04" y="187.00" xlink:href="#rdots"/>
<path d="m11.54 129.00
	h850.50
	M11.54 123.00
	h850.50
	M11.54 117.00
	h850.50
	M11.54 111.00
	h850.50
	M11.54 105.00
	h850.50
	" class="stroke"/>
<path d="m11.54 187.00
	h850.50
	M11.54 181.00
	h850.50
	M11.54 175.00
	h850.50
	M11.54 169.00
	h850.50
	M11.54 163.00
	h850.50
	" class="stroke"/>
<path class="fill"
	d="M359.24 125.00c6.90 5.38 37.43 10.62 44.33 7.60
	v0.24c-8.23 4.77 -36.10 -0.46 -44.33 -7.84"/>
</g>
<g stroke-width="0.70" transform="scale(0.867)" font-family="Times" font-size="13.00">
<text x="760.74" y="90.40">1</text>
<path class="stroke"
	d="M756.74 79.00m0 20v-20h97.30v20"/>
<defs>
<path id="utclef" class="fill" d="m-50 -90
	c-72 -41 -72 -158 52 -188
	150 -10 220 188 90 256
	-114 52 -275 0 -293 -136
	-15 -181 93 -229 220 -334
	88 -87 79 -133 62 -210
	-51 33 -94 105 -89 186
	17 267 36 374 49 574
	6 96 -19 134 -77 135
	-80 1 -126 -93 -61 -133
	85 -41 133 101 31 105
	23 17 92 37 90 -92
	-10 -223 -39 -342 -50 -617
	0 -90 0 -162 96 -232
	56 72 63 230 22 289
	-74 106 -257 168 -255 316
	9 153 148 185 252 133
	86 -65 29 -192 -80 -176
	-71 12 -105 67 -59 124"/>
<use id="tclef" transform="translate(0,6) scale(0.045)"
	xlink:href="#utclef"/>
</defs>
<use x="23.54" y="123.00" xlink:href="#tclef"/>
<g font-family="serif" font-size="16" font-weight="bold" font-style="normal"
	transform="translate(42.04,128.50) scale(1.2,1)">
	<text text-anchor="middle">8</text>
	<text y="-12" text-anchor="middle">3</text>
</g>
<path class="fill"
	d="M88.24 95.00l49.00 0.00v3.20l-49.00 -0.00"/>
<use x="85.14" y="129.00" xlink:href="#hd"/>
<path d="M88.64 129.00v-33.00" class="stroke"/>
<use x="85.14" y="114.00" xlink:href="#hd"/>
<use x="109.24" y="129.00" xlink:href="#hd"/>
<path d="M112.74 129.00v-33.00" class="stroke"/>
<use x="109.24" y="114.00" xlink:href="#hd"/>
<use x="133.44" y="129.00" xlink:href="#hd"/>
<path d="M136.94 129.00v-33.00" class="stroke"/>
<use x="133.44" y="114.00" xlink:href="#hd"/>
<path class="fill"
	d="M162.04 143.80l49.00 -3.20v-3.20l-49.00 3.20"/>
<use x="165.84" y="114.00" xlink:href="#hd"/>
<path d="M162.34 114.00v28.80" class="stroke"/>
<use x="190.04" y="123.00" xlink:href="#hd"/>
<path d="M186.54 123.00v18.20" class="stroke"/>
<use x="214.24" y="108.00" xlink:href="#hd"/>
<path d="M210.74 108.00v31.60" class="stroke"/>
<path class="fill"
	d="M242.84 136.90l86.30 0.00v-3.20l-86.30 -0.00"/>
<path class="fill"
	d="M243.14 131.90l85.60 0.00v-3.20l-85.60 -0.00"/>
<use x="246.64" y="111.00" xlink:href="#hd"/>
<path d="M243.14 111.00v24.90" class="stroke"/>
<use x="263.74" y="108.00" xlink:href="#hd"/>
<path d="M260.24 108.00v27.90" class="stroke"/>
<use x="280.94" y="105.00" xlink:href="#hd"/>
<path d="M277.44 105.00v30.90" class="stroke"/>
<use x="298.04" y="111.00" xlink:href="#hd"/>
<path d="M294.54 111.00v24.90" class="stroke"/>
<use x="315.14" y="114.00" xlink:href="#hd"/>
<path d="M311.64 114.00v21.90" class="stroke"/>
<use x="332.24" y="117.00" xlink:href="#hd"/>
<path d="M328.74 117.00v18.90" class="stroke"/>
<path class="fill"
	d="M362.44 94.80l49.00 6.60v3.20l-49.00 -6.60"/>
<use x="359.24" y="114.00" xlink:href="#hd"/>
<path d="M362.74 114.00v-18.20" class="stroke"/>
<use x="383.44" y="123.00" xlink:href="#hd"/>
<path d="M386.94 123.00v-23.90" class="stroke"/>
<use x="407.54" y="129.00" xlink:href="#hd"/>
<path d="M411.04 129.00v-26.60" class="stroke"/>
<path class="fill"
	d="M436.14 136.90l88.10 0.00v-3.20l-88.10 -0.00"/>
<path class="fill"
	d="M436.54 131.90l87.40 0.00v-3.20l-87.40 -0.00"/>
<use x="440.04" y="111.00" xlink:href="#hd"/>
<path d="M436.54 111.00v24.90" class="stroke"/>
<use x="458.04" y="114.00" xlink:href="#hd"/>
<defs>
<path id="usharp" class="fill" d="
	m136 -702
	v890
	h32
	v-890
	m128 840
	h32
	v-888
	h-32
	m-232 286
	v116
	l338 -96
	v-116
	m-338 442
	v116
	l338 -98
	v-114"/>
<use id="sh0" transform="translate(-4,5) scale(0.018)"
	xlink:href="#usharp"/>
</defs>
<use x="449.04" y="114.00" xlink:href="#sh0"/>
<path d="M454.54 114.00v21.90" class="stroke"/>
<use x="475.14" y="111.00" xlink:href="#hd"/>
<path d="M471.64 111.00v24.90" class="stroke"/>
<use x="493.14" y="105.00" xlink:href="#hd"/>
<use x="484.14" y="105.00" xlink:href="#sh0"/>
<path d="M489.64 105.00v30.90" class="stroke"/>
<defs>
<path id="hl" class="stroke" d="m-6 0h12"/>
</defs>
<use x="510.24" y="99.00" xlink:href="#hl"/>
<use x="510.24" y="99.00" xlink:href="#hd"/>
<path d="M506.74 99.00v36.90" class="stroke"/>
<use x="527.44" y="105.00" xlink:href="#hd"/>
<path d="M523.94 105.00v30.90" class="stroke"/>
<path class="fill"
	d="M550.54 135.20l87.20 10.00v-3.20l-87.20 -10.00"/>
<path class="fill"
	d="M550.84 130.30l86.50 9.90v-3.20l-86.50 -9.90"/>
<use x="554.34" y="102.00" xlink:href="#hd"/>
<path d="M550.84 102.00v32.30" class="stroke"/>
<use x="572.34" y="105.00" xlink:href="#hd"/>
<use x="563.34" y="105.00" xlink:href="#sh0"/>
<path d="M568.84 105.00v31.30" class="stroke"/>
<use x="589.54" y="102.00" xlink:href="#hd"/>
<path d="M586.04 102.00v36.30" class="stroke"/>
<use x="606.64" y="111.00" xlink:href="#hd"/>
<path d="M603.14 111.00v29.30" class="stroke"/>
<use x="623.74" y="117.00" xlink:href="#hd"/>
<path d="M620.24 117.00v25.20" class="stroke"/>
<use x="640.84" y="123.00" xlink:href="#hd"/>
<path d="M637.34 123.00v21.20" class="stroke"/>
<path class="fill"
	d="M664.04 142.20l76.20 0.00v-3.20l-76.20 -0.00"/>
<path class="fill"
	d="M688.54 137.20l51.40 0.00v-3.20l-51.40 -0.00"/>
<use x="667.84" y="120.00" xlink:href="#hd"/>
<path d="M664.34 120.00v21.20" class="stroke"/>
<use x="692.04" y="111.00" xlink:href="#hd"/>
<path d="M688.54 111.00v30.20" class="stroke"/>
<use x="709.14" y="114.00" xlink:href="#hd"/>
<path d="M705.64 114.00v27.20" class="stroke"/>
<use x="726.24" y="117.00" xlink:href="#hd"/>
<path d="M722.74 117.00v24.20" class="stroke"/>
<use x="743.34" y="120.00" xlink:href="#hd"/>
<path d="M739.84 120.00v21.20" class="stroke"/>
<use x="770.34" y="102.00" xlink:href="#hd"/>
<path d="M766.84 102.00v40.00" class="stroke"/>
<use x="770.34" y="123.00" xlink:href="#hd"/>
<use x="770.34" y="117.00" xlink:href="#hd"/>
<use x="770.34" y="111.00" xlink:href="#hd"/>
<defs>
<path id="r8e" class="fill" d="m 0 0
	c-1.5 1.5 -2.4 2 -3.6 2
	2.4 -2.8 -2.8 -4 -2.8 -1.2
	c0 2.7 4.3 2.4 5.9 0.6"/>
<g id="r8">
	<path d="m3.3 -4l-3.4 9.6" class="stroke"/>
	<use x="3.4" y="-4" xlink:href="#r8e"/>
</g>
</defs>
<use x="829.64" y="117.00" xlink:href="#r8"/>
<defs>
<path id="ubclef" class="fill" d="m-200 -87
	c124 -35 222 -78 254 -236
	43 -228 -167 -246 -192 -103
	59 -80 157 22 92 78
	-62 47 -115 -22 -106 -88
	21 -141 270 -136 274 52
	-1 175 -106 264 -322 297
	m357 -250
	c0 -36 51 -34 51 0
	0 37 -51 36 -51 0
	m-2 -129
	c0 -36 51 -34 51 0
	0 38 -51 37 -51 0"/>
<use id="bclef" transform="translate(0,18) scale(0.045)"
	xlink:href="#ubclef"/>
</defs>
<use x="23.54" y="169.00" xlink:href="#bclef"/>
<g font-family="serif" font-size="16" font-weight="bold" font-style="normal"
	transform="translate(42.04,186.50) scale(1.2,1)">
	<text text-anchor="middle">8</text>
	<text y="-12" text-anchor="middle">3</text>
</g>
<path class="fill"
	d="M88.24 157.00l49.00 0.00v3.20l-49.00 -0.00"/>
<use x="85.14" y="178.00" xlink:href="#hd"/>
<path d="M88.64 178.00v-20.00" class="stroke"/>
<use x="109.24" y="178.00" xlink:href="#hd"/>
<path d="M112.74 178.00v-20.00" class="stroke"/>
<use x="133.44" y="178.00" xlink:href="#hd"/>
<path d="M136.94 178.00v-20.00" class="stroke"/>
<use x="165.84" y="172.00" xlink:href="#hd"/>
<path d="M162.34 172.00v25.00" class="stroke"/>
<use x="165.84" y="178.00" xlink:href="#hd"/>
<use x="214.24" y="175.00" xlink:href="#r8"/>
<use x="246.64" y="166.00" xlink:href="#hd"/>
<path d="M243.14 166.00v34.00" class="stroke"/>
<use x="246.64" y="181.00" xlink:href="#hd"/>
<use x="315.14" y="187.00" xlink:href="#hd"/>
<path d="M318.64 187.00v-21.00" class="stroke"/>
<path class="fill"
	d="M318.64 166.00c0.6 5.6 9.6 9 5.6 18.4
	1.6 -6 -1.3 -11.6 -5.6 -12.8
"/>
<use x="359.24" y="166.00" xlink:href="#hd"/>
<path d="M355.74 166.00v25.00" class="stroke"/>
<use x="359.24" y="172.00" xlink:href="#hd"/>
<use x="407.54" y="175.00" xlink:href="#r8"/>
<use x="440.04" y="178.00" xlink:href="#hd"/>
<path d="M443.54 178.00v-21.00" class="stroke"/>
<use x="510.24" y="175.00" xlink:href="#r8"/>
<use x="554.34" y="181.00" xlink:href="#hd"/>
<path d="M557.84 181.00v-25.00" class="stroke"/>
<use x="554.34" y="175.00" xlink:href="#hd"/>
<use x="623.74" y="166.00" xlink:href="#hd"/>
<path d="M620.24 166.00v34.00" class="stroke"/>
<path class="fill"
	d="M620.24 200.00c0.6 -5.6 9.6 -9 5.6 -18.4
	1.6 6 -1.3 11.6 -5.6 12.8
"/>
<use x="623.74" y="181.00" xlink:href="#hd"/>
<path class="fill"
	d="M671.04 152.30l59.10 8.40v3.20l-59.10 -8.40"/>
<use x="667.84" y="178.00" xlink:href="#hd"/>
<path d="M671.34 178.00v-24.60" class="stroke"/>
<use x="692.04" y="175.00" xlink:href="#hd"/>
<path d="M695.54 175.00v-18.20" class="stroke"/>
<use x="726.24" y="193.00" xlink:href="#hl"/>
<use x="726.24" y="196.00" xlink:href="#hd"/>
<path d="M729.74 196.00v-34.40" class="stroke"/>
<path class="fill"
	d="M766.54 206.20l77.10 0.00v-3.20l-77.10 -0.00"/>
<path class="fill"
	d="M791.04 201.20l52.20 0.00v-3.20l-52.20 -0.00"/>
<use x="770.34" y="187.00" xlink:href="#hd"/>
<path d="M766.84 187.00v18.20" class="stroke"/>
<use x="794.54" y="166.00" xlink:href="#hd"/>
<path d="M791.04 166.00v39.20" class="stroke"/>
<use x="812.54" y="169.00" xlink:href="#hd"/>
<defs>
<path id="unat" class="fill" d="
	m96 -750
	h-32
	v716
	l32 -8
	182 -54
	v282
	h32
	v-706
	l-34 10
	-180 50
	v-290
	m0 592
	v-190
	l182 -52
	v188"/>
<use id="nt0" transform="translate(-3,5) scale(0.018)"
	xlink:href="#unat"/>
</defs>
<use x="803.54" y="169.00" xlink:href="#nt0"/>
<path d="M809.04 169.00v36.20" class="stroke"/>
<use x="829.64" y="172.00" xlink:href="#hd"/>
<path d="M826.14 172.00v33.20" class="stroke"/>
<use x="846.74" y="175.00" xlink:href="#hd"/>
<path d="M843.24 175.00v30.20" class="stroke"/>
</g>
<g stroke-width="0.70" transform="scale(0.867)" font-family="Times" font-size="13.00">
<path class="stroke" stroke-width="1"
	d="M11.54 320.00v-82.00"/>
<path class="fill"
	d="M6.54 235.00
	c10.5 1 12 -4.5 12 -3.5c0 1 -3.5 5.5 -8.5 5.5
	v84.00
	c5 0 8.5 4.5 8.5 5.5c0 1 -1.5 -4.5 -12 -3.5"/>
<use x="143.74" y="262.00" xlink:href="#rdots"/>
<path class="stroke" stroke-width="1"
	d="M139.74 262.00v-24.00"/>
<path class="stroke" stroke-width="3"
	d="M135.24 262.00v-24.00"/>
<use x="143.74" y="320.00" xlink:href="#rdots"/>
<path class="stroke" stroke-width="1"
	d="M139.74 320.00v-58.00"/>
<path class="stroke" stroke-width="3"
	d="M135.24 320.00v-58.00"/>
<path class="stroke" stroke-width="1"
	d="M244.14 262.00v-24.00"/>
<path class="stroke" stroke-width="1"
	d="M244.14 320.00v-58.00"/>
<path class="stroke" stroke-width="1"
	d="M332.34 262.00v-24.00"/>
<path class="stroke" stroke-width="1"
	d="M332.34 320.00v-58.00"/>
<path class="stroke" stroke-width="1"
	d="M431.34 262.00v-24.00"/>
<path class="stroke" stroke-width="1"
	d="M431.34 320.00v-58.00"/>
<path class="stroke" stroke-width="1"
	d="M519.54 262.00v-24.00"/>
<path class="stroke" stroke-width="1"
	d="M519.54 320.00v-58.00"/>
<path class="stroke" stroke-width="1"
	d="M618.54 262.00v-24.00"/>
<path class="stroke" stroke-width="1"
	d="M618.54 320.00v-58.00"/>
<path class="stroke" stroke-width="1"
	d="M717.54 262.00v-24.00"/>
<path class="stroke" stroke-width="1"
	d="M717.54 320.00v-58.00"/>
<path class="stroke" stroke-width="1"
	d="M787.84 262.00v-24.00"/>
<path class="stroke" stroke-width="1"
	d="M787.84 320.00v-58.00"/>
<path class="stroke" stroke-width="3"
	d="M860.54 262.00v-24.00"/>
<path class="stroke" stroke-width="1"
	d="M856.04 262.00v-24.00"/>
<use x="852.04" y="262.00" xlink:href="#rdots"/>
<path class="stroke" stroke-width="3"
	d="M860.54 320.00v-58.00"/>
<path class="stroke" stroke-width="1"
	d="M856.04 320.00v-58.00"/>
<use x="852.04" y="320.00" xlink:href="#rdots"/>
<path d="m11.54 262.00
	h850.50
	M11.54 256.00
	h850.50
	M11.54 250.00
	h850.50
	M11.54 244.00
	h850.50
	M11.54 238.00
	h850.50
	" class="stroke"/>
<path d="m11.54 320.00
	h850.50
	M11.54 314.00
	h850.50
	M11.54 308.00
	h850.50
	M11.54 302.00
	h850.50
	M11.54 296.00
	h850.50
	" class="stroke"/>
<text x="47.54" y="223.40">2</text>
<path class="stroke"
	d="M43.54 212.00m0 20v-20h89.20v20"/>
<use x="23.54" y="256.00" xlink:href="#tclef"/>
<use x="56.04" y="235.00" xlink:href="#hd"/>
<path d="M52.54 235.00v40.00" class="stroke"/>
<use x="56.04" y="256.00" xlink:href="#hd"/>
<use x="56.04" y="250.00" xlink:href="#hd"/>
<use x="56.04" y="244.00" xlink:href="#hd"/>
<use x="109.44" y="250.00" xlink:href="#r8"/>
<path class="fill"
	d="M159.44 264.60l69.00 10.70v-3.20l-69.00 -10.70"/>
<path class="fill"
	d="M180.54 262.80l47.60 7.40v-3.20l-47.60 -7.40"/>
<use x="163.24" y="232.00" xlink:href="#hl"/>
<use x="163.24" y="226.00" xlink:href="#hl"/>
<use x="163.24" y="223.00" xlink:href="#hd"/>
<path d="M159.74 223.00v40.60" class="stroke"/>
<use x="184.04" y="232.00" xlink:href="#hl"/>
<use x="184.04" y="232.00" xlink:href="#hd"/>
<path d="M180.54 232.00v34.80" class="stroke"/>
<use x="202.04" y="238.00" xlink:href="#hd"/>
<use x="193.04" y="238.00" xlink:href="#sh0"/>
<path d="M198.54 238.00v31.60" class="stroke"/>
<use x="216.84" y="244.00" xlink:href="#hd"/>
<path d="M213.34 244.00v27.90" class="stroke"/>
<use x="231.64" y="253.00" xlink:href="#hd"/>
<path d="M228.14 253.00v21.20" class="stroke"/>
<path class="fill"
	d="M252.74 264.00l59.90 0.00v-3.20l-59.90 -0.00"/>
<path class="fill"
	d="M253.14 259.00l44.40 0.00v-3.20l-44.40 -0.00"/>
<use x="256.64" y="235.00" xlink:href="#hd"/>
<path d="M253.14 235.00v28.00" class="stroke"/>
<use x="271.44" y="232.00" xlink:href="#hl"/>
<use x="271.44" y="229.00" xlink:href="#hd"/>
<path d="M267.94 229.00v34.00" class="stroke"/>
<use x="286.24" y="235.00" xlink:href="#hd"/>
<path d="M282.74 235.00v28.00" class="stroke"/>
<use x="301.04" y="232.00" xlink:href="#hl"/>
<use x="301.04" y="229.00" xlink:href="#hd"/>
<path d="M297.54 229.00v34.00" class="stroke"/>
<use x="315.84" y="244.00" xlink:href="#hd"/>
<path d="M312.34 244.00v19.00" class="stroke"/>
<path class="fill"
	d="M340.94 268.30l59.90 7.00v-3.20l-59.90 -7.00"/>
<use x="344.84" y="241.00" xlink:href="#hd"/>
<path d="M341.34 241.00v26.30" class="stroke"/>
<use x="374.44" y="247.00" xlink:href="#hd"/>
<path d="M370.94 247.00v23.70" class="stroke"/>
<use x="404.04" y="256.00" xlink:href="#hd"/>
<path d="M400.54 256.00v18.20" class="stroke"/>
<path class="fill"
	d="M439.94 266.20l59.90 5.40v-3.20l-59.90 -5.40"/>
<path class="fill"
	d="M440.34 261.20l44.40 4.00v-3.20l-44.40 -4.00"/>
<use x="443.84" y="244.00" xlink:href="#hd"/>
<path d="M440.34 244.00v21.20" class="stroke"/>
<use x="458.64" y="232.00" xlink:href="#hl"/>
<use x="458.64" y="229.00" xlink:href="#hd"/>
<path d="M455.14 229.00v37.50" class="stroke"/>
<use x="473.44" y="235.00" xlink:href="#hd"/>
<path d="M469.94 235.00v32.90" class="stroke"/>
<use x="488.24" y="244.00" xlink:href="#hd"/>
<path d="M484.74 244.00v25.20" class="stroke"/>
<use x="503.04" y="250.00" xlink:href="#hd"/>
<path d="M499.54 250.00v20.50" class="stroke"/>
<path class="fill"
	d="M528.24 268.30l59.90 7.00v-3.20l-59.90 -7.00"/>
<use x="532.04" y="241.00" xlink:href="#hd"/>
<path d="M528.54 241.00v26.30" class="stroke"/>
<use x="561.64" y="247.00" xlink:href="#hd"/>
<path d="M558.14 247.00v23.70" class="stroke"/>
<use x="591.24" y="256.00" xlink:href="#hd"/>
<path d="M587.74 256.00v18.20" class="stroke"/>
<path class="fill"
	d="M627.24 276.80l59.90 -3.20v-3.20l-59.90 3.20"/>
<use x="631.04" y="247.00" xlink:href="#hd"/>
<path d="M627.54 247.00v28.80" class="stroke"/>
<use x="660.64" y="256.00" xlink:href="#hd"/>
<path d="M657.14 256.00v18.20" class="stroke"/>
<use x="690.24" y="241.00" xlink:href="#hd"/>
<path d="M686.74 241.00v31.60" class="stroke"/>
<path class="fill"
	d="M726.24 262.20l41.90 0.00v-3.20l-41.90 -0.00"/>
<use x="730.04" y="238.00" xlink:href="#hd"/>
<path d="M726.54 238.00v23.20" class="stroke"/>
<use x="750.64" y="244.00" xlink:href="#hd"/>
<path d="M747.14 244.00v17.20" class="stroke"/>
<use x="771.24" y="235.00" xlink:href="#hd"/>
<path d="M767.74 235.00v26.20" class="stroke"/>
<use x="800.34" y="247.00" xlink:href="#hd"/>
<path d="M796.84 247.00v21.00" class="stroke"/>
<use x="841.54" y="250.00" xlink:href="#r8"/>
<use x="23.54" y="302.00" xlink:href="#bclef"/>
<path class="fill"
	d="M52.24 339.20l68.90 -5.00v-3.20l-68.90 5.00"/>
<path class="fill"
	d="M73.14 332.70l47.60 -3.50v-3.20l-47.60 3.50"/>
<use x="56.04" y="320.00" xlink:href="#hd"/>
<path d="M52.54 320.00v18.20" class="stroke"/>
<use x="76.64" y="293.00" xlink:href="#hd"/>
<path d="M73.14 293.00v43.70" class="stroke"/>
<use x="91.44" y="299.00" xlink:href="#hd"/>
<path d="M87.94 299.00v36.60" class="stroke"/>
<use x="109.44" y="302.00" xlink:href="#hd"/>
<use x="100.44" y="302.00" xlink:href="#sh0"/>
<path d="M105.94 302.00v32.30" class="stroke"/>
<use x="124.24" y="305.00" xlink:href="#hd"/>
<path d="M120.74 305.00v28.20" class="stroke"/>
<use x="163.24" y="302.00" xlink:href="#hd"/>
<use x="154.24" y="302.00" xlink:href="#sh0"/>
<path d="M159.74 302.00v25.00" class="stroke"/>
<use x="163.24" y="308.00" xlink:href="#hd"/>
<use x="216.84" y="302.00" xlink:href="#hd"/>
<path d="M213.34 302.00v28.00" class="stroke"/>
<path class="fill"
	d="M213.34 330.00c0.6 -5.6 9.6 -9 5.6 -18.4
	1.6 6 -1.3 11.6 -5.6 12.8
"/>
<use x="216.84" y="311.00" xlink:href="#hd"/>
<use x="256.64" y="314.00" xlink:href="#hd"/>
<path d="M260.14 314.00v-21.00" class="stroke"/>
<use x="315.84" y="308.00" xlink:href="#r8"/>
<path class="fill"
	d="M340.94 327.90l74.70 0.00v-3.20l-74.70 -0.00"/>
<path class="fill"
	d="M341.34 322.90l74.00 0.00v-3.20l-74.00 -0.00"/>
<use x="344.84" y="305.00" xlink:href="#hd"/>
<path d="M341.34 305.00v21.90" class="stroke"/>
<use x="344.84" y="311.00" xlink:href="#hd"/>
<use x="359.64" y="299.00" xlink:href="#hd"/>
<path d="M356.14 299.00v27.90" class="stroke"/>
<use x="374.44" y="305.00" xlink:href="#hd"/>
<path d="M370.94 305.00v21.90" class="stroke"/>
<use x="374.44" y="311.00" xlink:href="#hd"/>
<use x="389.24" y="299.00" xlink:href="#hd"/>
<path d="M385.74 299.00v27.90" class="stroke"/>
<use x="404.04" y="305.00" xlink:href="#hd"/>
<path d="M400.54 305.00v21.90" class="stroke"/>
<use x="404.04" y="311.00" xlink:href="#hd"/>
<use x="418.84" y="299.00" xlink:href="#hd"/>
<path d="M415.34 299.00v27.90" class="stroke"/>
<use x="443.84" y="293.00" xlink:href="#hd"/>
<path d="M440.34 293.00v25.00" class="stroke"/>
<use x="443.84" y="299.00" xlink:href="#hd"/>
<use x="503.04" y="308.00" xlink:href="#r8"/>
<path class="fill"
	d="M528.24 327.90l74.70 0.00v-3.20l-74.70 -0.00"/>
<path class="fill"
	d="M528.54 322.90l74.00 0.00v-3.20l-74.00 -0.00"/>
<use x="532.04" y="305.00" xlink:href="#hd"/>
<path d="M528.54 305.00v21.90" class="stroke"/>
<use x="532.04" y="311.00" xlink:href="#hd"/>
<use x="546.84" y="299.00" xlink:href="#hd"/>
<path d="M543.34 299.00v27.90" class="stroke"/>
<use x="561.64" y="305.00" xlink:href="#hd"/>
<path d="M558.14 305.00v21.90" class="stroke"/>
<use x="561.64" y="311.00" xlink:href="#hd"/>
<use x="576.44" y="299.00" xlink:href="#hd"/>
<path d="M572.94 299.00v27.90" class="stroke"/>
<use x="591.24" y="305.00" xlink:href="#hd"/>
<path d="M587.74 305.00v21.90" class="stroke"/>
<use x="591.24" y="311.00" xlink:href="#hd"/>
<use x="606.04" y="299.00" xlink:href="#hd"/>
<path d="M602.54 299.00v27.90" class="stroke"/>
<path class="fill"
	d="M627.24 327.90l74.70 0.00v-3.20l-74.70 -0.00"/>
<path class="fill"
	d="M627.54 322.90l74.00 0.00v-3.20l-74.00 -0.00"/>
<use x="631.04" y="305.00" xlink:href="#hd"/>
<path d="M627.54 305.00v21.90" class="stroke"/>
<use x="631.04" y="311.00" xlink:href="#hd"/>
<use x="645.84" y="299.00" xlink:href="#hd"/>
<path d="M642.34 299.00v27.90" class="stroke"/>
<use x="660.64" y="305.00" xlink:href="#hd"/>
<path d="M657.14 305.00v21.90" class="stroke"/>
<use x="660.64" y="311.00" xlink:href="#hd"/>
<use x="675.44" y="299.00" xlink:href="#hd"/>
<path d="M671.94 299.00v27.90" class="stroke"/>
<use x="690.24" y="305.00" xlink:href="#hd"/>
<path d="M686.74 305.00v21.90" class="stroke"/>
<use x="690.24" y="311.00" xlink:href="#hd"/>
<use x="705.04" y="299.00" xlink:href="#hd"/>
<path d="M701.54 299.00v27.90" class="stroke"/>
<path class="fill"
	d="M726.24 327.20l41.90 0.00v-3.20l-41.90 -0.00"/>
<use x="730.04" y="302.00" xlink:href="#hd"/>
<path d="M726.54 302.00v24.20" class="stroke"/>
<use x="750.64" y="308.00" xlink:href="#hd"/>
<path d="M747.14 308.00v18.20" class="stroke"/>
<use x="771.24" y="299.00" xlink:href="#hd"/>
<path d="M767.74 299.00v27.20" class="stroke"/>
<path class="fill"
	d="M803.44 291.70l41.90 9.80v3.20l-41.90 -9.80"/>
<use x="800.34" y="311.00" xlink:href="#hd"/>
<path d="M803.84 311.00v-18.20" class="stroke"/>
<use x="820.94" y="320.00" xlink:href="#hd"/>
<path d="M824.44 320.00v-22.40" class="stroke"/>
<use x="841.54" y="326.00" xlink:href="#hl"/>
<use x="841.54" y="332.00" xlink:href="#hl"/>
<use x="841.54" y="332.00" xlink:href="#hd"/>
<path d="M845.04 332.00v-29.60" class="stroke"/>
</g>
</svg>
