<?xml version="1.0" standalone="no"?>
<!DOCTYPE svg PUBLIC "-//W3C//DTD SVG 1.1//EN"
	"http://www.w3.org/Graphics/SVG/1.1/DTD/svg11.dtd">
<svg xmlns="http://www.w3.org/2000/svg" version="1.1"
	xmlns:xlink="http://www.w3.org/1999/xlink"
	color="black"
	width="757.10px" height="299.00px">
<style type="text/css">
.fill {fill: currentColor}
.stroke {stroke: currentColor; fill: none}
text{white-space: pre}
</style>
<title>./K516f-9-6-12-5-8-8-8-12-6-5-5-4-6-12-11-7.abc (3432) tune 1</title>
<!-- Creator: abcm2ps-8.13.8 -->
<!-- CreationDate: Sep  7, 2017 11:20 -->
<!-- CommandLine: ./K516f-9-6-12-5-8-8-8-12-6-5-5-4-6-12-11-7.abc -O ./K516f-9-6-12-5-8-8-8-12-6-5-5-4-6-12-11-7.svg -g -->
<rect width="100%" height="100%" fill="white"/>
<g stroke-width="0.70" transform="scale(0.867)">
<!-- title: 9-6-12-5-8-8-8-12-6-5-5-4-6-12-11-7 -->
</g>
<g stroke-width="0.70" transform="scale(0.867)" font-family="Times" font-size="20.00">
<text x="436.84" y="22.00" text-anchor="middle">9-6-12-5-8-8-8-12-6-5-5-4-6-12-11-7</text>
</g>
<g stroke-width="0.70" transform="scale(0.867)" font-family="Times" font-size="20.00">
<!-- subtitle: $1K.516f::119:74:10:85:99:133:21:5:25:176:7:132:76:124:173:151::$0 -->
</g>
<g stroke-width="0.70" transform="scale(0.867)" font-family="Courier" font-size="8.00" font-weight="bold">
<text x="436.84" y="41.80" text-anchor="middle">K.516f::119:74:10:85:99:133:21:5:25:176:7:132:76:124:173:151::</text>
</g>
<g stroke-width="0.70" transform="scale(0.867)" font-family="Courier" font-size="8.00" font-weight="bold">
<!-- subtitle: $1Perm. No.: 343289621151408$0 -->
<text x="436.84" y="60.80" text-anchor="middle">Perm. No.: 343289621151408</text>
</g>
<g stroke-width="0.70" transform="scale(0.607)" font-family="Courier" font-size="8.00" font-weight="bold">
<defs>
<ellipse id="hd" rx="4.1" ry="2.9"
	transform="rotate(-20)" class="fill"/>
</defs>
<use x="103.06" y="121.29" xlink:href="#hd"/>
<path d="M106.56 121.29v-21.00" class="stroke"/>
<path class="fill"
	d="M106.56 100.29c0.6 5.6 9.6 9 5.6 18.4
	1.6 -6 -1.3 -11.6 -5.6 -12.8
"/>
</g>
<g stroke-width="0.70" transform="scale(0.867)" font-family="Times" font-size="15.00" font-weight="bold">
<text x="81.24" y="87.00">= 111</text>
<path class="stroke" stroke-width="1"
	d="M11.54 183.00v-82.00"/>
<path class="fill"
	d="M6.54 98.00
	c10.5 1 12 -4.5 12 -3.5c0 1 -3.5 5.5 -8.5 5.5
	v84.00
	c5 0 8.5 4.5 8.5 5.5c0 1 -1.5 -4.5 -12 -3.5"/>
<defs>
<g id="rdots" class="fill">
	<circle cx="0" cy="-9" r="1.2"/>
	<circle cx="0" cy="-15" r="1.2"/>
</g>
</defs>
<use x="70.54" y="125.00" xlink:href="#rdots"/>
<path class="stroke" stroke-width="1"
	d="M66.54 125.00v-24.00"/>
<path class="stroke" stroke-width="3"
	d="M62.04 125.00v-24.00"/>
<use x="70.54" y="183.00" xlink:href="#rdots"/>
<path class="stroke" stroke-width="1"
	d="M66.54 183.00v-58.00"/>
<path class="stroke" stroke-width="3"
	d="M62.04 183.00v-58.00"/>
<path class="stroke" stroke-width="1"
	d="M179.04 125.00v-24.00"/>
<path class="stroke" stroke-width="1"
	d="M179.04 183.00v-58.00"/>
<path class="stroke" stroke-width="1"
	d="M286.64 125.00v-24.00"/>
<path class="stroke" stroke-width="1"
	d="M286.64 183.00v-58.00"/>
<path class="stroke" stroke-width="1"
	d="M394.14 125.00v-24.00"/>
<path class="stroke" stroke-width="1"
	d="M394.14 183.00v-58.00"/>
<path class="stroke" stroke-width="1"
	d="M471.24 125.00v-24.00"/>
<path class="stroke" stroke-width="1"
	d="M471.24 183.00v-58.00"/>
<path class="stroke" stroke-width="1"
	d="M553.74 125.00v-24.00"/>
<path class="stroke" stroke-width="1"
	d="M553.74 183.00v-58.00"/>
<path class="stroke" stroke-width="1"
	d="M651.54 125.00v-24.00"/>
<path class="stroke" stroke-width="1"
	d="M651.54 183.00v-58.00"/>
<path class="stroke" stroke-width="1"
	d="M760.74 125.00v-24.00"/>
<path class="stroke" stroke-width="1"
	d="M760.74 183.00v-58.00"/>
<path class="stroke" stroke-width="3"
	d="M860.54 125.00v-24.00"/>
<path class="stroke" stroke-width="1"
	d="M856.04 125.00v-24.00"/>
<use x="852.04" y="125.00" xlink:href="#rdots"/>
<path class="stroke" stroke-width="3"
	d="M860.54 183.00v-58.00"/>
<path class="stroke" stroke-width="1"
	d="M856.04 183.00v-58.00"/>
<use x="852.04" y="183.00" xlink:href="#rdots"/>
<path d="m11.54 125.00
	h850.50
	M11.54 119.00
	h850.50
	M11.54 113.00
	h850.50
	M11.54 107.00
	h850.50
	M11.54 101.00
	h850.50
	" class="stroke"/>
<path d="m11.54 183.00
	h850.50
	M11.54 177.00
	h850.50
	M11.54 171.00
	h850.50
	M11.54 165.00
	h850.50
	M11.54 159.00
	h850.50
	" class="stroke"/>
</g>
<g stroke-width="0.70" transform="scale(0.867)" font-family="Times" font-size="13.00">
<text x="764.74" y="86.40">1</text>
<path class="stroke"
	d="M760.74 75.00m0 20v-20h93.30v20"/>
<defs>
<path id="utclef" class="fill" d="m-50 -90
	c-72 -41 -72 -158 52 -188
	150 -10 220 188 90 256
	-114 52 -275 0 -293 -136
	-15 -181 93 -229 220 -334
	88 -87 79 -133 62 -210
	-51 33 -94 105 -89 186
	17 267 36 374 49 574
	6 96 -19 134 -77 135
	-80 1 -126 -93 -61 -133
	85 -41 133 101 31 105
	23 17 92 37 90 -92
	-10 -223 -39 -342 -50 -617
	0 -90 0 -162 96 -232
	56 72 63 230 22 289
	-74 106 -257 168 -255 316
	9 153 148 185 252 133
	86 -65 29 -192 -80 -176
	-71 12 -105 67 -59 124"/>
<use id="tclef" transform="translate(0,6) scale(0.045)"
	xlink:href="#utclef"/>
</defs>
<use x="23.54" y="119.00" xlink:href="#tclef"/>
<g font-family="serif" font-size="16" font-weight="bold" font-style="normal"
	transform="translate(42.04,124.50) scale(1.2,1)">
	<text text-anchor="middle">8</text>
	<text y="-12" text-anchor="middle">3</text>
</g>
<path class="fill"
	d="M80.74 133.40l82.30 -6.20v-3.20l-82.30 6.20"/>
<path class="fill"
	d="M81.04 128.40l81.60 -6.10v-3.20l-81.60 6.10"/>
<use x="84.54" y="104.00" xlink:href="#hd"/>
<path d="M81.04 104.00v28.40" class="stroke"/>
<use x="100.84" y="110.00" xlink:href="#hd"/>
<path d="M97.34 110.00v21.20" class="stroke"/>
<use x="117.24" y="98.00" xlink:href="#hd"/>
<path d="M113.74 98.00v32.00" class="stroke"/>
<use x="133.54" y="104.00" xlink:href="#hd"/>
<path d="M130.04 104.00v24.80" class="stroke"/>
<defs>
<path id="hl" class="stroke" d="m-6 0h12"/>
</defs>
<use x="149.84" y="95.00" xlink:href="#hl"/>
<use x="149.84" y="89.00" xlink:href="#hl"/>
<use x="149.84" y="89.00" xlink:href="#hd"/>
<path d="M146.34 89.00v38.50" class="stroke"/>
<use x="166.14" y="98.00" xlink:href="#hd"/>
<path d="M162.64 98.00v28.30" class="stroke"/>
<path class="fill"
	d="M188.24 122.70l82.40 9.60v-3.20l-82.40 -9.60"/>
<path class="fill"
	d="M188.54 117.70l81.70 9.50v-3.20l-81.70 -9.50"/>
<use x="192.04" y="95.00" xlink:href="#hl"/>
<use x="192.04" y="89.00" xlink:href="#hl"/>
<use x="192.04" y="89.00" xlink:href="#hd"/>
<path d="M188.54 89.00v32.70" class="stroke"/>
<use x="208.44" y="95.00" xlink:href="#hl"/>
<use x="208.44" y="92.00" xlink:href="#hd"/>
<path d="M204.94 92.00v31.60" class="stroke"/>
<use x="224.84" y="95.00" xlink:href="#hl"/>
<use x="224.84" y="89.00" xlink:href="#hl"/>
<use x="224.84" y="89.00" xlink:href="#hd"/>
<path d="M221.34 89.00v36.50" class="stroke"/>
<use x="241.14" y="98.00" xlink:href="#hd"/>
<path d="M237.64 98.00v29.40" class="stroke"/>
<use x="257.44" y="104.00" xlink:href="#hd"/>
<path d="M253.94 104.00v25.30" class="stroke"/>
<use x="273.84" y="110.00" xlink:href="#hd"/>
<path d="M270.34 110.00v21.20" class="stroke"/>
<path class="fill"
	d="M295.84 138.20l82.30 0.00v-3.20l-82.30 -0.00"/>
<path class="fill"
	d="M296.14 133.20l81.60 0.00v-3.20l-81.60 -0.00"/>
<use x="299.64" y="113.00" xlink:href="#hd"/>
<path d="M296.14 113.00v24.20" class="stroke"/>
<use x="316.04" y="116.00" xlink:href="#hd"/>
<path d="M312.54 116.00v21.20" class="stroke"/>
<use x="332.34" y="113.00" xlink:href="#hd"/>
<path d="M328.84 113.00v24.20" class="stroke"/>
<use x="348.64" y="110.00" xlink:href="#hd"/>
<path d="M345.14 110.00v27.20" class="stroke"/>
<use x="364.94" y="107.00" xlink:href="#hd"/>
<path d="M361.44 107.00v30.20" class="stroke"/>
<use x="381.34" y="113.00" xlink:href="#hd"/>
<path d="M377.84 113.00v24.20" class="stroke"/>
<path class="fill"
	d="M403.34 133.80l46.60 4.40v-3.20l-46.60 -4.40"/>
<use x="407.24" y="110.00" xlink:href="#hd"/>
<path d="M403.74 110.00v22.80" class="stroke"/>
<use x="430.14" y="104.00" xlink:href="#hd"/>
<path d="M426.64 104.00v31.00" class="stroke"/>
<use x="453.14" y="119.00" xlink:href="#hd"/>
<path d="M449.64 119.00v18.20" class="stroke"/>
<path class="fill"
	d="M485.84 123.10l46.60 3.20v-3.20l-46.60 -3.20"/>
<use x="489.74" y="101.00" xlink:href="#hd"/>
<defs>
<path id="usharp" class="fill" d="
	m136 -702
	v890
	h32
	v-890
	m128 840
	h32
	v-888
	h-32
	m-232 286
	v116
	l338 -96
	v-116
	m-338 442
	v116
	l338 -98
	v-114"/>
<use id="sh0" transform="translate(-4,5) scale(0.018)"
	xlink:href="#usharp"/>
</defs>
<use x="480.74" y="101.00" xlink:href="#sh0"/>
<path d="M486.24 101.00v21.10" class="stroke"/>
<use x="512.74" y="95.00" xlink:href="#hl"/>
<use x="512.74" y="95.00" xlink:href="#hd"/>
<path d="M509.24 95.00v28.60" class="stroke"/>
<use x="535.64" y="107.00" xlink:href="#hd"/>
<path d="M532.14 107.00v18.20" class="stroke"/>
<path class="fill"
	d="M562.94 135.20l72.60 0.00v-3.20l-72.60 -0.00"/>
<path class="fill"
	d="M586.24 130.20l49.00 0.00v-3.20l-49.00 -0.00"/>
<use x="566.74" y="107.00" xlink:href="#hd"/>
<path d="M563.24 107.00v27.20" class="stroke"/>
<use x="589.74" y="98.00" xlink:href="#hd"/>
<path d="M586.24 98.00v36.20" class="stroke"/>
<use x="606.04" y="107.00" xlink:href="#hd"/>
<path d="M602.54 107.00v27.20" class="stroke"/>
<use x="622.34" y="113.00" xlink:href="#hd"/>
<path d="M618.84 113.00v21.20" class="stroke"/>
<use x="638.74" y="107.00" xlink:href="#hd"/>
<path d="M635.24 107.00v27.20" class="stroke"/>
<path class="fill"
	d="M660.74 138.20l84.00 0.00v-3.20l-84.00 -0.00"/>
<path class="fill"
	d="M661.04 133.20l83.30 0.00v-3.20l-83.30 -0.00"/>
<use x="664.54" y="110.00" xlink:href="#hd"/>
<path d="M661.04 110.00v27.20" class="stroke"/>
<use x="680.94" y="104.00" xlink:href="#hd"/>
<path d="M677.44 104.00v33.20" class="stroke"/>
<use x="697.24" y="98.00" xlink:href="#hd"/>
<path d="M693.74 98.00v39.20" class="stroke"/>
<use x="713.54" y="107.00" xlink:href="#hd"/>
<path d="M710.04 107.00v30.20" class="stroke"/>
<use x="729.94" y="116.00" xlink:href="#hd"/>
<path d="M726.44 116.00v21.20" class="stroke"/>
<use x="747.94" y="101.00" xlink:href="#hd"/>
<use x="738.94" y="101.00" xlink:href="#sh0"/>
<path d="M744.44 101.00v36.20" class="stroke"/>
<use x="773.74" y="98.00" xlink:href="#hd"/>
<path d="M770.24 98.00v40.00" class="stroke"/>
<use x="773.74" y="119.00" xlink:href="#hd"/>
<use x="773.74" y="113.00" xlink:href="#hd"/>
<use x="773.74" y="107.00" xlink:href="#hd"/>
<defs>
<path id="r8e" class="fill" d="m 0 0
	c-1.5 1.5 -2.4 2 -3.6 2
	2.4 -2.8 -2.8 -4 -2.8 -1.2
	c0 2.7 4.3 2.4 5.9 0.6"/>
<g id="r8">
	<path d="m3.3 -4l-3.4 9.6" class="stroke"/>
	<use x="3.4" y="-4" xlink:href="#r8e"/>
</g>
</defs>
<use x="831.04" y="113.00" xlink:href="#r8"/>
<defs>
<path id="ubclef" class="fill" d="m-200 -87
	c124 -35 222 -78 254 -236
	43 -228 -167 -246 -192 -103
	59 -80 157 22 92 78
	-62 47 -115 -22 -106 -88
	21 -141 270 -136 274 52
	-1 175 -106 264 -322 297
	m357 -250
	c0 -36 51 -34 51 0
	0 37 -51 36 -51 0
	m-2 -129
	c0 -36 51 -34 51 0
	0 38 -51 37 -51 0"/>
<use id="bclef" transform="translate(0,18) scale(0.045)"
	xlink:href="#ubclef"/>
</defs>
<use x="23.54" y="165.00" xlink:href="#bclef"/>
<g font-family="serif" font-size="16" font-weight="bold" font-style="normal"
	transform="translate(42.04,182.50) scale(1.2,1)">
	<text text-anchor="middle">8</text>
	<text y="-12" text-anchor="middle">3</text>
</g>
<use x="84.54" y="168.00" xlink:href="#hd"/>
<path d="M81.04 168.00v25.00" class="stroke"/>
<use x="84.54" y="174.00" xlink:href="#hd"/>
<use x="149.84" y="171.00" xlink:href="#r8"/>
<use x="192.04" y="168.00" xlink:href="#hd"/>
<path d="M195.54 168.00v-21.00" class="stroke"/>
<use x="257.44" y="171.00" xlink:href="#r8"/>
<use x="299.64" y="162.00" xlink:href="#hd"/>
<path d="M296.14 162.00v21.00" class="stroke"/>
<use x="364.94" y="171.00" xlink:href="#r8"/>
<use x="407.24" y="162.00" xlink:href="#hd"/>
<path d="M403.74 162.00v25.00" class="stroke"/>
<use x="407.24" y="168.00" xlink:href="#hd"/>
<use x="453.14" y="171.00" xlink:href="#r8"/>
<use x="489.74" y="159.00" xlink:href="#hd"/>
<path d="M486.24 159.00v34.00" class="stroke"/>
<use x="489.74" y="174.00" xlink:href="#hd"/>
<use x="535.64" y="159.00" xlink:href="#hd"/>
<path d="M532.14 159.00v34.00" class="stroke"/>
<path class="fill"
	d="M532.14 193.00c0.6 -5.6 9.6 -9 5.6 -18.4
	1.6 6 -1.3 11.6 -5.6 12.8
"/>
<use x="535.64" y="174.00" xlink:href="#hd"/>
<use x="566.74" y="162.00" xlink:href="#hd"/>
<path d="M563.24 162.00v34.00" class="stroke"/>
<use x="566.74" y="177.00" xlink:href="#hd"/>
<use x="622.34" y="171.00" xlink:href="#r8"/>
<path class="fill"
	d="M667.74 147.70l66.00 8.20v3.20l-66.00 -8.20"/>
<use x="664.54" y="174.00" xlink:href="#hd"/>
<path d="M668.04 174.00v-25.30" class="stroke"/>
<use x="697.24" y="171.00" xlink:href="#hd"/>
<path d="M700.74 171.00v-18.20" class="stroke"/>
<use x="729.94" y="189.00" xlink:href="#hl"/>
<use x="729.94" y="192.00" xlink:href="#hd"/>
<path d="M733.44 192.00v-35.10" class="stroke"/>
<path class="fill"
	d="M769.94 202.20l74.30 0.00v-3.20l-74.30 -0.00"/>
<path class="fill"
	d="M793.24 197.20l50.70 0.00v-3.20l-50.70 -0.00"/>
<use x="773.74" y="183.00" xlink:href="#hd"/>
<path d="M770.24 183.00v18.20" class="stroke"/>
<use x="796.74" y="162.00" xlink:href="#hd"/>
<path d="M793.24 162.00v39.20" class="stroke"/>
<use x="814.74" y="165.00" xlink:href="#hd"/>
<defs>
<path id="unat" class="fill" d="
	m96 -750
	h-32
	v716
	l32 -8
	182 -54
	v282
	h32
	v-706
	l-34 10
	-180 50
	v-290
	m0 592
	v-190
	l182 -52
	v188"/>
<use id="nt0" transform="translate(-3,5) scale(0.018)"
	xlink:href="#unat"/>
</defs>
<use x="805.74" y="165.00" xlink:href="#nt0"/>
<path d="M811.24 165.00v36.20" class="stroke"/>
<use x="831.04" y="168.00" xlink:href="#hd"/>
<path d="M827.54 168.00v33.20" class="stroke"/>
<use x="847.44" y="171.00" xlink:href="#hd"/>
<path d="M843.94 171.00v30.20" class="stroke"/>
<use x="192.04" y="174.00" xlink:href="#hd"/>
<path d="M188.54 174.00v21.00" class="stroke"/>
</g>
<g stroke-width="0.70" transform="scale(0.867)" font-family="Times" font-size="13.00">
<path class="stroke" stroke-width="1"
	d="M11.54 322.00v-88.00"/>
<path class="fill"
	d="M6.54 231.00
	c10.5 1 12 -4.5 12 -3.5c0 1 -3.5 5.5 -8.5 5.5
	v90.00
	c5 0 8.5 4.5 8.5 5.5c0 1 -1.5 -4.5 -12 -3.5"/>
<use x="143.54" y="258.00" xlink:href="#rdots"/>
<path class="stroke" stroke-width="1"
	d="M139.54 258.00v-24.00"/>
<path class="stroke" stroke-width="3"
	d="M135.04 258.00v-24.00"/>
<use x="143.54" y="322.00" xlink:href="#rdots"/>
<path class="stroke" stroke-width="1"
	d="M139.54 322.00v-64.00"/>
<path class="stroke" stroke-width="3"
	d="M135.04 322.00v-64.00"/>
<path class="stroke" stroke-width="1"
	d="M249.84 258.00v-24.00"/>
<path class="stroke" stroke-width="1"
	d="M249.84 322.00v-64.00"/>
<path class="stroke" stroke-width="1"
	d="M348.54 258.00v-24.00"/>
<path class="stroke" stroke-width="1"
	d="M348.54 322.00v-64.00"/>
<path class="stroke" stroke-width="1"
	d="M447.34 258.00v-24.00"/>
<path class="stroke" stroke-width="1"
	d="M447.34 322.00v-64.00"/>
<path class="stroke" stroke-width="1"
	d="M526.34 258.00v-24.00"/>
<path class="stroke" stroke-width="1"
	d="M526.34 322.00v-64.00"/>
<path class="stroke" stroke-width="1"
	d="M625.34 258.00v-24.00"/>
<path class="stroke" stroke-width="1"
	d="M625.34 322.00v-64.00"/>
<path class="stroke" stroke-width="1"
	d="M695.34 258.00v-24.00"/>
<path class="stroke" stroke-width="1"
	d="M695.34 322.00v-64.00"/>
<path class="stroke" stroke-width="1"
	d="M788.04 258.00v-24.00"/>
<path class="stroke" stroke-width="1"
	d="M788.04 322.00v-64.00"/>
<path class="stroke" stroke-width="3"
	d="M860.54 258.00v-24.00"/>
<path class="stroke" stroke-width="1"
	d="M856.04 258.00v-24.00"/>
<use x="852.04" y="258.00" xlink:href="#rdots"/>
<path class="stroke" stroke-width="3"
	d="M860.54 322.00v-64.00"/>
<path class="stroke" stroke-width="1"
	d="M856.04 322.00v-64.00"/>
<use x="852.04" y="322.00" xlink:href="#rdots"/>
<path d="m11.54 258.00
	h850.50
	M11.54 252.00
	h850.50
	M11.54 246.00
	h850.50
	M11.54 240.00
	h850.50
	M11.54 234.00
	h850.50
	" class="stroke"/>
<path d="m11.54 322.00
	h850.50
	M11.54 316.00
	h850.50
	M11.54 310.00
	h850.50
	M11.54 304.00
	h850.50
	M11.54 298.00
	h850.50
	" class="stroke"/>
<text x="47.54" y="219.40">2</text>
<path class="stroke"
	d="M43.54 208.00m0 20v-20h89.00v20"/>
<use x="23.54" y="252.00" xlink:href="#tclef"/>
<use x="56.04" y="231.00" xlink:href="#hd"/>
<path d="M52.54 231.00v40.00" class="stroke"/>
<use x="56.04" y="252.00" xlink:href="#hd"/>
<use x="56.04" y="246.00" xlink:href="#hd"/>
<use x="56.04" y="240.00" xlink:href="#hd"/>
<use x="109.34" y="246.00" xlink:href="#r8"/>
<path class="fill"
	d="M153.24 281.30l80.90 -13.20v-3.20l-80.90 13.20"/>
<path class="fill"
	d="M153.54 276.20l80.30 -13.10v-3.20l-80.30 13.10"/>
<use x="157.04" y="261.00" xlink:href="#hd"/>
<path d="M153.54 261.00v19.20" class="stroke"/>
<use x="175.04" y="255.00" xlink:href="#hd"/>
<use x="166.04" y="255.00" xlink:href="#sh0"/>
<path d="M171.54 255.00v22.30" class="stroke"/>
<use x="189.84" y="249.00" xlink:href="#hd"/>
<path d="M186.34 249.00v25.80" class="stroke"/>
<use x="204.54" y="240.00" xlink:href="#hd"/>
<path d="M201.04 240.00v32.40" class="stroke"/>
<use x="222.54" y="234.00" xlink:href="#hd"/>
<use x="213.54" y="234.00" xlink:href="#sh0"/>
<path d="M219.04 234.00v35.50" class="stroke"/>
<use x="237.34" y="228.00" xlink:href="#hl"/>
<use x="237.34" y="228.00" xlink:href="#hd"/>
<path d="M233.84 228.00v39.10" class="stroke"/>
<path class="fill"
	d="M258.44 260.00l74.40 0.00v-3.20l-74.40 -0.00"/>
<path class="fill"
	d="M258.84 255.00l73.80 0.00v-3.20l-73.80 -0.00"/>
<use x="262.34" y="228.00" xlink:href="#hl"/>
<use x="262.34" y="228.00" xlink:href="#hd"/>
<path d="M258.84 228.00v31.00" class="stroke"/>
<use x="277.04" y="231.00" xlink:href="#hd"/>
<path d="M273.54 231.00v28.00" class="stroke"/>
<use x="291.84" y="228.00" xlink:href="#hl"/>
<use x="291.84" y="225.00" xlink:href="#hd"/>
<path d="M288.34 225.00v34.00" class="stroke"/>
<use x="306.54" y="231.00" xlink:href="#hd"/>
<path d="M303.04 231.00v28.00" class="stroke"/>
<use x="321.34" y="240.00" xlink:href="#hd"/>
<path d="M317.84 240.00v19.00" class="stroke"/>
<use x="336.04" y="231.00" xlink:href="#hd"/>
<path d="M332.54 231.00v28.00" class="stroke"/>
<path class="fill"
	d="M357.24 266.60l74.40 -6.80v-3.20l-74.40 6.80"/>
<path class="fill"
	d="M357.54 261.50l73.80 -6.70v-3.20l-73.80 6.70"/>
<use x="361.04" y="237.00" xlink:href="#hd"/>
<path d="M357.54 237.00v28.50" class="stroke"/>
<use x="375.84" y="243.00" xlink:href="#hd"/>
<path d="M372.34 243.00v21.20" class="stroke"/>
<use x="390.54" y="237.00" xlink:href="#hd"/>
<path d="M387.04 237.00v25.90" class="stroke"/>
<use x="405.34" y="231.00" xlink:href="#hd"/>
<path d="M401.84 231.00v30.50" class="stroke"/>
<use x="420.04" y="228.00" xlink:href="#hl"/>
<use x="420.04" y="222.00" xlink:href="#hl"/>
<use x="420.04" y="222.00" xlink:href="#hd"/>
<path d="M416.54 222.00v38.20" class="stroke"/>
<use x="434.84" y="231.00" xlink:href="#hd"/>
<path d="M431.34 231.00v27.80" class="stroke"/>
<path class="fill"
	d="M462.94 219.30l50.70 6.10v3.20l-50.70 -6.10"/>
<path class="fill"
	d="M483.84 226.80l14.80 1.80v3.20l-14.80 -1.80"/>
<use x="459.84" y="243.00" xlink:href="#hd"/>
<path d="M463.34 243.00v-22.70" class="stroke"/>
<use x="459.84" y="237.00" xlink:href="#hd"/>
<use x="480.34" y="252.00" xlink:href="#hd"/>
<path d="M483.84 252.00v-29.20" class="stroke"/>
<use x="480.34" y="240.00" xlink:href="#hd"/>
<use x="495.14" y="252.00" xlink:href="#hd"/>
<path d="M498.64 252.00v-27.40" class="stroke"/>
<use x="495.14" y="246.00" xlink:href="#hd"/>
<use x="509.84" y="252.00" xlink:href="#hd"/>
<path d="M513.34 252.00v-25.60" class="stroke"/>
<path class="fill"
	d="M534.94 255.90l74.70 9.30v-3.20l-74.70 -9.30"/>
<path class="fill"
	d="M535.34 250.90l74.00 9.30v-3.20l-74.00 -9.30"/>
<use x="538.84" y="228.00" xlink:href="#hl"/>
<use x="538.84" y="222.00" xlink:href="#hl"/>
<use x="538.84" y="222.00" xlink:href="#hd"/>
<path d="M535.34 222.00v32.90" class="stroke"/>
<use x="553.74" y="228.00" xlink:href="#hl"/>
<use x="553.74" y="225.00" xlink:href="#hd"/>
<path d="M550.24 225.00v31.80" class="stroke"/>
<use x="568.64" y="228.00" xlink:href="#hl"/>
<use x="568.64" y="222.00" xlink:href="#hl"/>
<use x="568.64" y="222.00" xlink:href="#hd"/>
<path d="M565.14 222.00v36.70" class="stroke"/>
<use x="583.34" y="231.00" xlink:href="#hd"/>
<path d="M579.84 231.00v29.50" class="stroke"/>
<use x="598.14" y="237.00" xlink:href="#hd"/>
<path d="M594.64 237.00v25.40" class="stroke"/>
<use x="612.84" y="243.00" xlink:href="#hd"/>
<path d="M609.34 243.00v21.20" class="stroke"/>
<path class="fill"
	d="M641.04 224.00l41.70 0.00v3.20l-41.70 -0.00"/>
<use x="637.84" y="258.00" xlink:href="#hd"/>
<path d="M641.34 258.00v-33.00" class="stroke"/>
<use x="637.84" y="243.00" xlink:href="#hd"/>
<use x="658.34" y="258.00" xlink:href="#hd"/>
<path d="M661.84 258.00v-33.00" class="stroke"/>
<use x="658.34" y="243.00" xlink:href="#hd"/>
<use x="678.94" y="258.00" xlink:href="#hd"/>
<path d="M682.44 258.00v-33.00" class="stroke"/>
<use x="678.94" y="243.00" xlink:href="#hd"/>
<path class="fill"
	d="M704.04 256.30l15.40 -3.50v-3.20l-15.40 3.50"/>
<path class="fill"
	d="M704.34 251.20l14.80 -3.30v-3.20l-14.80 3.30"/>
<use x="707.84" y="234.00" xlink:href="#hd"/>
<path d="M704.34 234.00v21.20" class="stroke"/>
<use x="722.64" y="228.00" xlink:href="#hl"/>
<use x="722.64" y="228.00" xlink:href="#hd"/>
<path d="M719.14 228.00v23.90" class="stroke"/>
<use x="737.34" y="249.00" xlink:href="#hd"/>
<path d="M740.84 249.00v-21.00" class="stroke"/>
<path class="fill"
	d="M740.84 228.00c0.6 5.6 9.6 9 5.6 18.4
	1.6 -6 -1.3 -11.6 -5.6 -12.8
"/>
<path class="fill"
	d="M756.94 268.30l15.40 -3.50v-3.20l-15.40 3.50"/>
<path class="fill"
	d="M757.24 263.20l14.80 -3.30v-3.20l-14.80 3.30"/>
<use x="760.74" y="246.00" xlink:href="#hd"/>
<path d="M757.24 246.00v21.20" class="stroke"/>
<use x="775.54" y="240.00" xlink:href="#hd"/>
<path d="M772.04 240.00v23.90" class="stroke"/>
<use x="800.54" y="243.00" xlink:href="#hd"/>
<path d="M797.04 243.00v21.00" class="stroke"/>
<use x="841.54" y="246.00" xlink:href="#r8"/>
<use x="23.54" y="304.00" xlink:href="#bclef"/>
<path class="fill"
	d="M52.24 341.20l68.70 -5.00v-3.20l-68.70 5.00"/>
<path class="fill"
	d="M73.04 334.70l47.50 -3.50v-3.20l-47.50 3.50"/>
<use x="56.04" y="322.00" xlink:href="#hd"/>
<path d="M52.54 322.00v18.20" class="stroke"/>
<use x="76.54" y="295.00" xlink:href="#hd"/>
<path d="M73.04 295.00v43.70" class="stroke"/>
<use x="91.34" y="301.00" xlink:href="#hd"/>
<path d="M87.84 301.00v36.60" class="stroke"/>
<use x="109.34" y="304.00" xlink:href="#hd"/>
<use x="100.34" y="304.00" xlink:href="#sh0"/>
<path d="M105.84 304.00v32.30" class="stroke"/>
<use x="124.04" y="307.00" xlink:href="#hd"/>
<path d="M120.54 307.00v28.30" class="stroke"/>
<use x="157.04" y="310.00" xlink:href="#hd"/>
<path d="M160.54 310.00v-21.00" class="stroke"/>
<use x="222.54" y="313.00" xlink:href="#hd"/>
<path d="M226.04 313.00v-21.00" class="stroke"/>
<path class="fill"
	d="M226.04 292.00c0.6 5.6 9.6 9 5.6 18.4
	1.6 -6 -1.3 -11.6 -5.6 -12.8
"/>
<use x="262.34" y="316.00" xlink:href="#hd"/>
<path d="M265.84 316.00v-25.00" class="stroke"/>
<use x="262.34" y="310.00" xlink:href="#hd"/>
<use x="321.34" y="316.00" xlink:href="#hd"/>
<path d="M324.84 316.00v-25.00" class="stroke"/>
<path class="fill"
	d="M324.84 291.00c0.6 5.6 9.6 9 5.6 18.4
	1.6 -6 -1.3 -11.6 -5.6 -12.8
"/>
<use x="321.34" y="310.00" xlink:href="#hd"/>
<use x="361.04" y="301.00" xlink:href="#hd"/>
<path d="M357.54 301.00v31.00" class="stroke"/>
<use x="361.04" y="313.00" xlink:href="#hd"/>
<use x="420.04" y="310.00" xlink:href="#r8"/>
<path class="fill"
	d="M462.94 281.70l21.20 7.10v3.20l-21.20 -7.10"/>
<use x="459.84" y="301.00" xlink:href="#hd"/>
<path d="M463.34 301.00v-18.20" class="stroke"/>
<use x="480.34" y="322.00" xlink:href="#hd"/>
<path d="M483.84 322.00v-32.30" class="stroke"/>
<use x="509.84" y="310.00" xlink:href="#r8"/>
<use x="538.84" y="307.00" xlink:href="#hd"/>
<path d="M535.34 307.00v25.00" class="stroke"/>
<use x="538.84" y="313.00" xlink:href="#hd"/>
<use x="598.14" y="301.00" xlink:href="#hd"/>
<path d="M594.64 301.00v31.00" class="stroke"/>
<path class="fill"
	d="M594.64 332.00c0.6 -5.6 9.6 -9 5.6 -18.4
	1.6 6 -1.3 11.6 -5.6 12.8
"/>
<use x="598.14" y="313.00" xlink:href="#hd"/>
<path class="fill"
	d="M641.04 292.00l41.70 0.00v3.20l-41.70 -0.00"/>
<use x="637.84" y="313.00" xlink:href="#hd"/>
<path d="M641.34 313.00v-20.00" class="stroke"/>
<use x="658.34" y="313.00" xlink:href="#hd"/>
<path d="M661.84 313.00v-20.00" class="stroke"/>
<use x="678.94" y="313.00" xlink:href="#hd"/>
<path d="M682.44 313.00v-20.00" class="stroke"/>
<use x="707.84" y="304.00" xlink:href="#hd"/>
<path d="M704.34 304.00v21.00" class="stroke"/>
<use x="760.74" y="301.00" xlink:href="#hd"/>
<path d="M757.24 301.00v21.00" class="stroke"/>
<path class="fill"
	d="M757.24 322.00c0.6 -5.6 9.6 -9 5.6 -18.4
	1.6 6 -1.3 11.6 -5.6 12.8
"/>
<path class="fill"
	d="M803.64 293.70l41.70 9.70v3.20l-41.70 -9.70"/>
<use x="800.54" y="313.00" xlink:href="#hd"/>
<path d="M804.04 313.00v-18.20" class="stroke"/>
<use x="821.04" y="322.00" xlink:href="#hd"/>
<path d="M824.54 322.00v-22.40" class="stroke"/>
<use x="841.54" y="328.00" xlink:href="#hl"/>
<use x="841.54" y="334.00" xlink:href="#hl"/>
<use x="841.54" y="334.00" xlink:href="#hd"/>
<path d="M845.04 334.00v-29.60" class="stroke"/>
</g>
</svg>
