<?xml version="1.0" standalone="no"?>
<!DOCTYPE svg PUBLIC "-//W3C//DTD SVG 1.1//EN"
	"http://www.w3.org/Graphics/SVG/1.1/DTD/svg11.dtd">
<svg xmlns="http://www.w3.org/2000/svg" version="1.1"
	xmlns:xlink="http://www.w3.org/1999/xlink"
	color="black"
	width="757.10px" height="293.80px">
<style type="text/css">
.fill {fill: currentColor}
.stroke {stroke: currentColor; fill: none}
text{white-space: pre}
</style>
<title>./K516f-2-12-3-10-6-10-8-7-12-10-12-2-3-12-10-12.abc (3078) tune 1</title>
<!-- Creator: abcm2ps-8.13.8 -->
<!-- CreationDate: Sep  7, 2017 11:20 -->
<!-- CommandLine: ./K516f-2-12-3-10-6-10-8-7-12-10-12-2-3-12-10-12.abc -O ./K516f-2-12-3-10-6-10-8-7-12-10-12-2-3-12-10-12.svg -g -->
<rect width="100%" height="100%" fill="white"/>
<g stroke-width="0.70" transform="scale(0.867)">
<!-- title: 2-12-3-10-6-10-8-7-12-10-12-2-3-12-10-12 -->
</g>
<g stroke-width="0.70" transform="scale(0.867)" font-family="Times" font-size="20.00">
<text x="436.84" y="22.00" text-anchor="middle">2-12-3-10-6-10-8-7-12-10-12-2-3-12-10-12</text>
</g>
<g stroke-width="0.70" transform="scale(0.867)" font-family="Times" font-size="20.00">
<!-- subtitle: $1K.516f::96:130:128:156:80:129:21:91:35:77:108:9:174:124:149:131::$0 -->
</g>
<g stroke-width="0.70" transform="scale(0.867)" font-family="Courier" font-size="8.00" font-weight="bold">
<text x="436.84" y="41.80" text-anchor="middle">K.516f::96:130:128:156:80:129:21:91:35:77:108:9:174:124:149:131::</text>
</g>
<g stroke-width="0.70" transform="scale(0.867)" font-family="Courier" font-size="8.00" font-weight="bold">
<!-- subtitle: $1Perm. No.: 307876793796155$0 -->
<text x="436.84" y="60.80" text-anchor="middle">Perm. No.: 307876793796155</text>
</g>
<g stroke-width="0.70" transform="scale(0.607)" font-family="Courier" font-size="8.00" font-weight="bold">
<defs>
<ellipse id="hd" rx="4.1" ry="2.9"
	transform="rotate(-20)" class="fill"/>
</defs>
<use x="103.06" y="121.29" xlink:href="#hd"/>
<path d="M106.56 121.29v-21.00" class="stroke"/>
<path class="fill"
	d="M106.56 100.29c0.6 5.6 9.6 9 5.6 18.4
	1.6 -6 -1.3 -11.6 -5.6 -12.8
"/>
</g>
<g stroke-width="0.70" transform="scale(0.867)" font-family="Times" font-size="15.00" font-weight="bold">
<text x="81.24" y="87.00">= 111</text>
<path class="stroke" stroke-width="1"
	d="M11.54 183.00v-82.00"/>
<path class="fill"
	d="M6.54 98.00
	c10.5 1 12 -4.5 12 -3.5c0 1 -3.5 5.5 -8.5 5.5
	v84.00
	c5 0 8.5 4.5 8.5 5.5c0 1 -1.5 -4.5 -12 -3.5"/>
<defs>
<g id="rdots" class="fill">
	<circle cx="0" cy="-9" r="1.2"/>
	<circle cx="0" cy="-15" r="1.2"/>
</g>
</defs>
<use x="70.54" y="125.00" xlink:href="#rdots"/>
<path class="stroke" stroke-width="1"
	d="M66.54 125.00v-24.00"/>
<path class="stroke" stroke-width="3"
	d="M62.04 125.00v-24.00"/>
<use x="70.54" y="183.00" xlink:href="#rdots"/>
<path class="stroke" stroke-width="1"
	d="M66.54 183.00v-58.00"/>
<path class="stroke" stroke-width="3"
	d="M62.04 183.00v-58.00"/>
<path class="stroke" stroke-width="1"
	d="M157.64 125.00v-24.00"/>
<path class="stroke" stroke-width="1"
	d="M157.64 183.00v-58.00"/>
<path class="stroke" stroke-width="1"
	d="M243.74 125.00v-24.00"/>
<path class="stroke" stroke-width="1"
	d="M243.74 183.00v-58.00"/>
<path class="stroke" stroke-width="1"
	d="M329.94 125.00v-24.00"/>
<path class="stroke" stroke-width="1"
	d="M329.94 183.00v-58.00"/>
<path class="stroke" stroke-width="1"
	d="M437.34 125.00v-24.00"/>
<path class="stroke" stroke-width="1"
	d="M437.34 183.00v-58.00"/>
<path class="stroke" stroke-width="1"
	d="M523.54 125.00v-24.00"/>
<path class="stroke" stroke-width="1"
	d="M523.54 183.00v-58.00"/>
<path class="stroke" stroke-width="1"
	d="M631.04 125.00v-24.00"/>
<path class="stroke" stroke-width="1"
	d="M631.04 183.00v-58.00"/>
<path class="stroke" stroke-width="1"
	d="M750.84 125.00v-24.00"/>
<path class="stroke" stroke-width="1"
	d="M750.84 183.00v-58.00"/>
<path class="stroke" stroke-width="3"
	d="M860.54 125.00v-24.00"/>
<path class="stroke" stroke-width="1"
	d="M856.04 125.00v-24.00"/>
<use x="852.04" y="125.00" xlink:href="#rdots"/>
<path class="stroke" stroke-width="3"
	d="M860.54 183.00v-58.00"/>
<path class="stroke" stroke-width="1"
	d="M856.04 183.00v-58.00"/>
<use x="852.04" y="183.00" xlink:href="#rdots"/>
<path d="m11.54 125.00
	h850.50
	M11.54 119.00
	h850.50
	M11.54 113.00
	h850.50
	M11.54 107.00
	h850.50
	M11.54 101.00
	h850.50
	" class="stroke"/>
<path d="m11.54 183.00
	h850.50
	M11.54 177.00
	h850.50
	M11.54 171.00
	h850.50
	M11.54 165.00
	h850.50
	M11.54 159.00
	h850.50
	" class="stroke"/>
</g>
<g stroke-width="0.70" transform="scale(0.867)" font-family="Times" font-size="13.00">
<text x="754.84" y="86.40">1</text>
<path class="stroke"
	d="M750.84 75.00m0 20v-20h103.20v20"/>
<defs>
<path id="utclef" class="fill" d="m-50 -90
	c-72 -41 -72 -158 52 -188
	150 -10 220 188 90 256
	-114 52 -275 0 -293 -136
	-15 -181 93 -229 220 -334
	88 -87 79 -133 62 -210
	-51 33 -94 105 -89 186
	17 267 36 374 49 574
	6 96 -19 134 -77 135
	-80 1 -126 -93 -61 -133
	85 -41 133 101 31 105
	23 17 92 37 90 -92
	-10 -223 -39 -342 -50 -617
	0 -90 0 -162 96 -232
	56 72 63 230 22 289
	-74 106 -257 168 -255 316
	9 153 148 185 252 133
	86 -65 29 -192 -80 -176
	-71 12 -105 67 -59 124"/>
<use id="tclef" transform="translate(0,6) scale(0.045)"
	xlink:href="#utclef"/>
</defs>
<use x="23.54" y="119.00" xlink:href="#tclef"/>
<g font-family="serif" font-size="16" font-weight="bold" font-style="normal"
	transform="translate(42.04,124.50) scale(1.2,1)">
	<text text-anchor="middle">8</text>
	<text y="-12" text-anchor="middle">3</text>
</g>
<path class="fill"
	d="M82.04 131.50l52.40 6.80v-3.20l-52.40 -6.80"/>
<use x="85.94" y="104.00" xlink:href="#hd"/>
<path d="M82.44 104.00v26.50" class="stroke"/>
<use x="111.74" y="110.00" xlink:href="#hd"/>
<path d="M108.24 110.00v23.90" class="stroke"/>
<use x="137.54" y="119.00" xlink:href="#hd"/>
<path d="M134.04 119.00v18.20" class="stroke"/>
<path class="fill"
	d="M175.14 91.00l52.40 0.00v3.20l-52.40 -0.00"/>
<use x="172.04" y="125.00" xlink:href="#hd"/>
<path d="M175.54 125.00v-33.00" class="stroke"/>
<use x="172.04" y="110.00" xlink:href="#hd"/>
<use x="197.84" y="125.00" xlink:href="#hd"/>
<path d="M201.34 125.00v-33.00" class="stroke"/>
<use x="197.84" y="110.00" xlink:href="#hd"/>
<use x="223.64" y="125.00" xlink:href="#hd"/>
<path d="M227.14 125.00v-33.00" class="stroke"/>
<use x="223.64" y="110.00" xlink:href="#hd"/>
<path class="fill"
	d="M254.34 132.20l52.40 -6.80v-3.20l-52.40 6.80"/>
<use x="258.14" y="113.00" xlink:href="#hd"/>
<path d="M254.64 113.00v18.20" class="stroke"/>
<use x="283.94" y="107.00" xlink:href="#hd"/>
<path d="M280.44 107.00v20.90" class="stroke"/>
<use x="309.84" y="98.00" xlink:href="#hd"/>
<path d="M306.34 98.00v26.50" class="stroke"/>
<path class="fill"
	d="M340.44 142.90l73.70 -6.60v-3.20l-73.70 6.60"/>
<path class="fill"
	d="M340.74 137.80l54.80 -4.90v-3.20l-54.80 4.90"/>
<use x="344.24" y="110.00" xlink:href="#hd"/>
<path d="M340.74 110.00v31.80" class="stroke"/>
<use x="362.54" y="119.00" xlink:href="#hd"/>
<path d="M359.04 119.00v21.20" class="stroke"/>
<use x="380.74" y="104.00" xlink:href="#hd"/>
<path d="M377.24 104.00v34.60" class="stroke"/>
<use x="399.04" y="110.00" xlink:href="#hd"/>
<path d="M395.54 110.00v26.90" class="stroke"/>
<use x="417.34" y="98.00" xlink:href="#hd"/>
<path d="M413.84 98.00v37.30" class="stroke"/>
<path class="fill"
	d="M447.94 136.80l52.40 -3.20v-3.20l-52.40 3.20"/>
<use x="451.74" y="107.00" xlink:href="#hd"/>
<path d="M448.24 107.00v28.80" class="stroke"/>
<use x="477.54" y="116.00" xlink:href="#hd"/>
<path d="M474.04 116.00v18.20" class="stroke"/>
<use x="503.44" y="101.00" xlink:href="#hd"/>
<defs>
<path id="usharp" class="fill" d="
	m136 -702
	v890
	h32
	v-890
	m128 840
	h32
	v-888
	h-32
	m-232 286
	v116
	l338 -96
	v-116
	m-338 442
	v116
	l338 -98
	v-114"/>
<use id="sh0" transform="translate(-4,5) scale(0.018)"
	xlink:href="#usharp"/>
</defs>
<use x="494.44" y="101.00" xlink:href="#sh0"/>
<path d="M499.94 101.00v31.60" class="stroke"/>
<path class="fill"
	d="M534.04 121.20l73.70 5.00v-3.20l-73.70 -5.00"/>
<path class="fill"
	d="M534.34 116.20l54.80 3.70v-3.20l-54.80 -3.70"/>
<defs>
<path id="hl" class="stroke" d="m-6 0h12"/>
</defs>
<use x="537.84" y="95.00" xlink:href="#hl"/>
<use x="537.84" y="95.00" xlink:href="#hd"/>
<path d="M534.34 95.00v25.20" class="stroke"/>
<use x="556.14" y="98.00" xlink:href="#hd"/>
<path d="M552.64 98.00v23.50" class="stroke"/>
<use x="574.34" y="101.00" xlink:href="#hd"/>
<use x="565.34" y="101.00" xlink:href="#sh0"/>
<path d="M570.84 101.00v21.70" class="stroke"/>
<use x="592.64" y="98.00" xlink:href="#hd"/>
<path d="M589.14 98.00v26.00" class="stroke"/>
<use x="610.94" y="107.00" xlink:href="#hd"/>
<path d="M607.44 107.00v18.20" class="stroke"/>
<path class="fill"
	d="M641.54 138.20l92.00 0.00v-3.20l-92.00 -0.00"/>
<path class="fill"
	d="M641.84 133.20l91.30 0.00v-3.20l-91.30 -0.00"/>
<use x="645.34" y="110.00" xlink:href="#hd"/>
<path d="M641.84 110.00v27.20" class="stroke"/>
<use x="663.64" y="104.00" xlink:href="#hd"/>
<path d="M660.14 104.00v33.20" class="stroke"/>
<use x="681.84" y="98.00" xlink:href="#hd"/>
<path d="M678.34 98.00v39.20" class="stroke"/>
<use x="700.14" y="107.00" xlink:href="#hd"/>
<path d="M696.64 107.00v30.20" class="stroke"/>
<use x="718.34" y="116.00" xlink:href="#hd"/>
<path d="M714.84 116.00v21.20" class="stroke"/>
<use x="736.64" y="101.00" xlink:href="#hd"/>
<use x="727.64" y="101.00" xlink:href="#sh0"/>
<path d="M733.14 101.00v36.20" class="stroke"/>
<use x="765.24" y="98.00" xlink:href="#hd"/>
<path d="M761.74 98.00v40.00" class="stroke"/>
<use x="765.24" y="119.00" xlink:href="#hd"/>
<use x="765.24" y="113.00" xlink:href="#hd"/>
<use x="765.24" y="107.00" xlink:href="#hd"/>
<defs>
<path id="r8e" class="fill" d="m 0 0
	c-1.5 1.5 -2.4 2 -3.6 2
	2.4 -2.8 -2.8 -4 -2.8 -1.2
	c0 2.7 4.3 2.4 5.9 0.6"/>
<g id="r8">
	<path d="m3.3 -4l-3.4 9.6" class="stroke"/>
	<use x="3.4" y="-4" xlink:href="#r8e"/>
</g>
</defs>
<use x="827.54" y="113.00" xlink:href="#r8"/>
<defs>
<path id="ubclef" class="fill" d="m-200 -87
	c124 -35 222 -78 254 -236
	43 -228 -167 -246 -192 -103
	59 -80 157 22 92 78
	-62 47 -115 -22 -106 -88
	21 -141 270 -136 274 52
	-1 175 -106 264 -322 297
	m357 -250
	c0 -36 51 -34 51 0
	0 37 -51 36 -51 0
	m-2 -129
	c0 -36 51 -34 51 0
	0 38 -51 37 -51 0"/>
<use id="bclef" transform="translate(0,18) scale(0.045)"
	xlink:href="#ubclef"/>
</defs>
<use x="23.54" y="165.00" xlink:href="#bclef"/>
<g font-family="serif" font-size="16" font-weight="bold" font-style="normal"
	transform="translate(42.04,182.50) scale(1.2,1)">
	<text text-anchor="middle">8</text>
	<text y="-12" text-anchor="middle">3</text>
</g>
<use x="85.94" y="174.00" xlink:href="#hd"/>
<path d="M89.44 174.00v-21.00" class="stroke"/>
<use x="137.54" y="171.00" xlink:href="#r8"/>
<path class="fill"
	d="M175.14 153.00l52.40 0.00v3.20l-52.40 -0.00"/>
<use x="172.04" y="174.00" xlink:href="#hd"/>
<path d="M175.54 174.00v-20.00" class="stroke"/>
<use x="197.84" y="174.00" xlink:href="#hd"/>
<path d="M201.34 174.00v-20.00" class="stroke"/>
<use x="223.64" y="174.00" xlink:href="#hd"/>
<path d="M227.14 174.00v-20.00" class="stroke"/>
<use x="258.14" y="183.00" xlink:href="#hd"/>
<path d="M261.64 183.00v-21.00" class="stroke"/>
<use x="309.84" y="171.00" xlink:href="#r8"/>
<use x="344.24" y="162.00" xlink:href="#hd"/>
<path d="M340.74 162.00v25.00" class="stroke"/>
<use x="344.24" y="168.00" xlink:href="#hd"/>
<use x="417.34" y="171.00" xlink:href="#r8"/>
<use x="451.74" y="174.00" xlink:href="#hd"/>
<path d="M455.24 174.00v-21.00" class="stroke"/>
<use x="503.44" y="171.00" xlink:href="#r8"/>
<path class="fill"
	d="M541.04 149.50l73.70 -4.70v3.20l-73.70 4.70"/>
<use x="537.84" y="177.00" xlink:href="#hd"/>
<path d="M541.34 177.00v-26.50" class="stroke"/>
<use x="537.84" y="171.00" xlink:href="#hd"/>
<use x="574.34" y="177.00" xlink:href="#hd"/>
<path d="M577.84 177.00v-28.80" class="stroke"/>
<use x="574.34" y="171.00" xlink:href="#hd"/>
<use x="610.94" y="177.00" xlink:href="#hd"/>
<path d="M614.44 177.00v-31.20" class="stroke"/>
<use x="610.94" y="162.00" xlink:href="#hd"/>
<path class="fill"
	d="M648.54 147.60l73.70 8.40v3.20l-73.70 -8.40"/>
<use x="645.34" y="174.00" xlink:href="#hd"/>
<path d="M648.84 174.00v-25.40" class="stroke"/>
<use x="681.84" y="171.00" xlink:href="#hd"/>
<path d="M685.34 171.00v-18.20" class="stroke"/>
<use x="718.34" y="189.00" xlink:href="#hl"/>
<use x="718.34" y="192.00" xlink:href="#hd"/>
<path d="M721.84 192.00v-35.00" class="stroke"/>
<path class="fill"
	d="M761.34 202.20l81.30 0.00v-3.20l-81.30 -0.00"/>
<path class="fill"
	d="M787.54 197.20l54.80 0.00v-3.20l-54.80 -0.00"/>
<use x="765.24" y="183.00" xlink:href="#hd"/>
<path d="M761.74 183.00v18.20" class="stroke"/>
<use x="791.04" y="162.00" xlink:href="#hd"/>
<path d="M787.54 162.00v39.20" class="stroke"/>
<use x="809.34" y="165.00" xlink:href="#hd"/>
<defs>
<path id="unat" class="fill" d="
	m96 -750
	h-32
	v716
	l32 -8
	182 -54
	v282
	h32
	v-706
	l-34 10
	-180 50
	v-290
	m0 592
	v-190
	l182 -52
	v188"/>
<use id="nt0" transform="translate(-3,5) scale(0.018)"
	xlink:href="#unat"/>
</defs>
<use x="800.34" y="165.00" xlink:href="#nt0"/>
<path d="M805.84 165.00v36.20" class="stroke"/>
<use x="827.54" y="168.00" xlink:href="#hd"/>
<path d="M824.04 168.00v33.20" class="stroke"/>
<use x="845.84" y="171.00" xlink:href="#hd"/>
<path d="M842.34 171.00v30.20" class="stroke"/>
<defs>
<path id="turn" class="fill" d="
	m5.2 -8
	c1.4 0.5 0.9 4.8 -2.2 2.8
	l-4.8 -3.5
	c-3 -2 -5.8 1.8 -3.6 4.4
	1 1.1 2 0.8 2.1 -0.1
	0.1 -0.9 -0.7 -1.2 -1.9 -0.6
	-1.4 -0.5 -0.9 -4.8 2.2 -2.8
	l4.8 3.5
	c3 2 5.8 -1.8 3.6 -4.4
	-1 -1.1 -2 -0.8 -2.1 0.1
	-0.1 0.9 0.7 1.2 1.9 0.6"/>
</defs>
<use x="477.54" y="99.00" xlink:href="#turn"/>
</g>
<g stroke-width="0.70" transform="scale(0.867)" font-family="Times" font-size="13.00">
<path class="stroke" stroke-width="1"
	d="M11.54 316.00v-82.00"/>
<path class="fill"
	d="M6.54 231.00
	c10.5 1 12 -4.5 12 -3.5c0 1 -3.5 5.5 -8.5 5.5
	v84.00
	c5 0 8.5 4.5 8.5 5.5c0 1 -1.5 -4.5 -12 -3.5"/>
<use x="153.24" y="258.00" xlink:href="#rdots"/>
<path class="stroke" stroke-width="1"
	d="M149.24 258.00v-24.00"/>
<path class="stroke" stroke-width="3"
	d="M144.74 258.00v-24.00"/>
<use x="153.24" y="316.00" xlink:href="#rdots"/>
<path class="stroke" stroke-width="1"
	d="M149.24 316.00v-58.00"/>
<path class="stroke" stroke-width="3"
	d="M144.74 316.00v-58.00"/>
<path class="stroke" stroke-width="1"
	d="M240.24 258.00v-24.00"/>
<path class="stroke" stroke-width="1"
	d="M240.24 316.00v-58.00"/>
<path class="stroke" stroke-width="1"
	d="M331.34 258.00v-24.00"/>
<path class="stroke" stroke-width="1"
	d="M331.34 316.00v-58.00"/>
<path class="stroke" stroke-width="1"
	d="M412.34 258.00v-24.00"/>
<path class="stroke" stroke-width="1"
	d="M412.34 316.00v-58.00"/>
<path class="stroke" stroke-width="1"
	d="M493.34 258.00v-24.00"/>
<path class="stroke" stroke-width="1"
	d="M493.34 316.00v-58.00"/>
<path class="stroke" stroke-width="1"
	d="M606.24 258.00v-24.00"/>
<path class="stroke" stroke-width="1"
	d="M606.24 316.00v-58.00"/>
<path class="stroke" stroke-width="1"
	d="M687.14 258.00v-24.00"/>
<path class="stroke" stroke-width="1"
	d="M687.14 316.00v-58.00"/>
<path class="stroke" stroke-width="1"
	d="M778.24 258.00v-24.00"/>
<path class="stroke" stroke-width="1"
	d="M778.24 316.00v-58.00"/>
<path class="stroke" stroke-width="3"
	d="M860.54 258.00v-24.00"/>
<path class="stroke" stroke-width="1"
	d="M856.04 258.00v-24.00"/>
<use x="852.04" y="258.00" xlink:href="#rdots"/>
<path class="stroke" stroke-width="3"
	d="M860.54 316.00v-58.00"/>
<path class="stroke" stroke-width="1"
	d="M856.04 316.00v-58.00"/>
<use x="852.04" y="316.00" xlink:href="#rdots"/>
<path d="m11.54 258.00
	h850.50
	M11.54 252.00
	h850.50
	M11.54 246.00
	h850.50
	M11.54 240.00
	h850.50
	M11.54 234.00
	h850.50
	" class="stroke"/>
<path d="m11.54 316.00
	h850.50
	M11.54 310.00
	h850.50
	M11.54 304.00
	h850.50
	M11.54 298.00
	h850.50
	M11.54 292.00
	h850.50
	" class="stroke"/>
<path class="fill"
	d="M344.84 229.00c6.92 -5.85 37.59 -13.15 44.51 -10.60
	v-0.24c-8.26 -4.31 -36.26 3.00 -44.51 10.84"/>
<text x="47.54" y="219.40">2</text>
<path class="stroke"
	d="M43.54 208.00m0 20v-20h98.70v20"/>
<use x="23.54" y="252.00" xlink:href="#tclef"/>
<use x="57.14" y="231.00" xlink:href="#hd"/>
<path d="M53.64 231.00v40.00" class="stroke"/>
<use x="57.14" y="252.00" xlink:href="#hd"/>
<use x="57.14" y="246.00" xlink:href="#hd"/>
<use x="57.14" y="240.00" xlink:href="#hd"/>
<use x="116.54" y="246.00" xlink:href="#r8"/>
<path class="fill"
	d="M168.84 268.20l49.30 -6.70v-3.20l-49.30 6.70"/>
<use x="172.74" y="249.00" xlink:href="#hd"/>
<path d="M169.24 249.00v18.20" class="stroke"/>
<use x="196.94" y="240.00" xlink:href="#hd"/>
<path d="M193.44 240.00v23.90" class="stroke"/>
<use x="221.34" y="234.00" xlink:href="#hd"/>
<use x="212.34" y="234.00" xlink:href="#sh0"/>
<path d="M217.84 234.00v26.60" class="stroke"/>
<path class="fill"
	d="M249.94 254.10l59.30 5.10v-3.20l-59.30 -5.10"/>
<path class="fill"
	d="M250.34 249.10l17.20 1.50v-3.20l-17.20 -1.50"/>
<use x="253.84" y="231.00" xlink:href="#hd"/>
<path d="M250.34 231.00v22.10" class="stroke"/>
<use x="270.94" y="228.00" xlink:href="#hl"/>
<use x="270.94" y="225.00" xlink:href="#hd"/>
<path d="M267.44 225.00v29.60" class="stroke"/>
<use x="288.14" y="231.00" xlink:href="#hd"/>
<path d="M284.64 231.00v25.10" class="stroke"/>
<use x="312.44" y="240.00" xlink:href="#hd"/>
<path d="M308.94 240.00v18.20" class="stroke"/>
<path class="fill"
	d="M341.04 256.30l49.20 -8.10v-3.20l-49.20 8.10"/>
<use x="344.84" y="237.00" xlink:href="#hd"/>
<path d="M341.34 237.00v18.20" class="stroke"/>
<use x="369.14" y="231.00" xlink:href="#hd"/>
<path d="M365.64 231.00v20.20" class="stroke"/>
<use x="393.34" y="228.00" xlink:href="#hl"/>
<use x="393.34" y="222.00" xlink:href="#hl"/>
<use x="393.34" y="222.00" xlink:href="#hd"/>
<path d="M389.84 222.00v25.20" class="stroke"/>
<path class="fill"
	d="M422.04 262.30l24.90 2.50v-3.20l-24.90 -2.50"/>
<use x="425.84" y="237.00" xlink:href="#hd"/>
<path d="M422.34 237.00v24.30" class="stroke"/>
<use x="425.84" y="243.00" xlink:href="#hd"/>
<use x="450.14" y="240.00" xlink:href="#hd"/>
<path d="M446.64 240.00v23.70" class="stroke"/>
<use x="450.14" y="246.00" xlink:href="#hd"/>
<use x="474.34" y="246.00" xlink:href="#r8"/>
<path class="fill"
	d="M503.04 271.20l69.40 -7.20v-3.20l-69.40 7.20"/>
<use x="506.94" y="252.00" xlink:href="#hd"/>
<path d="M503.44 252.00v18.20" class="stroke"/>
<use x="541.24" y="243.00" xlink:href="#hd"/>
<path d="M537.74 243.00v23.60" class="stroke"/>
<use x="575.64" y="237.00" xlink:href="#hd"/>
<path d="M572.14 237.00v26.10" class="stroke"/>
<path class="fill"
	d="M622.94 224.00l49.20 0.00v3.20l-49.20 -0.00"/>
<use x="619.74" y="258.00" xlink:href="#hd"/>
<path d="M623.24 258.00v-33.00" class="stroke"/>
<use x="619.74" y="243.00" xlink:href="#hd"/>
<use x="644.04" y="258.00" xlink:href="#hd"/>
<path d="M647.54 258.00v-33.00" class="stroke"/>
<use x="644.04" y="243.00" xlink:href="#hd"/>
<use x="668.24" y="258.00" xlink:href="#hd"/>
<path d="M671.74 258.00v-33.00" class="stroke"/>
<use x="668.24" y="243.00" xlink:href="#hd"/>
<path class="fill"
	d="M696.94 264.70l59.30 6.00v-3.20l-59.30 -6.00"/>
<path class="fill"
	d="M697.24 259.70l17.20 1.70v-3.20l-17.20 -1.70"/>
<use x="700.74" y="234.00" xlink:href="#hd"/>
<path d="M697.24 234.00v29.70" class="stroke"/>
<use x="717.94" y="240.00" xlink:href="#hd"/>
<path d="M714.44 240.00v25.50" class="stroke"/>
<use x="735.04" y="249.00" xlink:href="#hd"/>
<path d="M731.54 249.00v18.20" class="stroke"/>
<use x="759.34" y="246.00" xlink:href="#hd"/>
<path d="M755.84 246.00v23.70" class="stroke"/>
<use x="791.84" y="243.00" xlink:href="#hd"/>
<path d="M788.34 243.00v21.00" class="stroke"/>
<use x="840.34" y="246.00" xlink:href="#r8"/>
<use x="23.54" y="298.00" xlink:href="#bclef"/>
<path class="fill"
	d="M53.24 335.20l77.30 -5.30v-3.20l-77.30 5.30"/>
<path class="fill"
	d="M77.84 328.50l52.30 -3.60v-3.20l-52.30 3.60"/>
<use x="57.14" y="316.00" xlink:href="#hd"/>
<path d="M53.64 316.00v18.20" class="stroke"/>
<use x="81.34" y="289.00" xlink:href="#hd"/>
<path d="M77.84 289.00v43.50" class="stroke"/>
<use x="98.54" y="295.00" xlink:href="#hd"/>
<path d="M95.04 295.00v36.30" class="stroke"/>
<use x="116.54" y="298.00" xlink:href="#hd"/>
<use x="107.54" y="298.00" xlink:href="#sh0"/>
<path d="M113.04 298.00v32.10" class="stroke"/>
<use x="133.74" y="301.00" xlink:href="#hd"/>
<path d="M130.24 301.00v27.90" class="stroke"/>
<use x="172.74" y="298.00" xlink:href="#hd"/>
<use x="163.74" y="298.00" xlink:href="#sh0"/>
<path d="M169.24 298.00v25.00" class="stroke"/>
<use x="172.74" y="304.00" xlink:href="#hd"/>
<use x="221.34" y="292.00" xlink:href="#hd"/>
<path d="M217.84 292.00v34.00" class="stroke"/>
<path class="fill"
	d="M217.84 326.00c0.6 -5.6 9.6 -9 5.6 -18.4
	1.6 6 -1.3 11.6 -5.6 12.8
"/>
<use x="221.34" y="307.00" xlink:href="#hd"/>
<use x="253.84" y="310.00" xlink:href="#hd"/>
<path d="M257.34 310.00v-25.00" class="stroke"/>
<use x="253.84" y="304.00" xlink:href="#hd"/>
<use x="312.44" y="295.00" xlink:href="#hd"/>
<path d="M308.94 295.00v34.00" class="stroke"/>
<path class="fill"
	d="M308.94 329.00c0.6 -5.6 9.6 -9 5.6 -18.4
	1.6 6 -1.3 11.6 -5.6 12.8
"/>
<use x="312.44" y="310.00" xlink:href="#hd"/>
<use x="344.84" y="295.00" xlink:href="#hd"/>
<path d="M341.34 295.00v31.00" class="stroke"/>
<use x="344.84" y="307.00" xlink:href="#hd"/>
<use x="393.34" y="301.00" xlink:href="#hd"/>
<path d="M389.84 301.00v25.00" class="stroke"/>
<path class="fill"
	d="M389.84 326.00c0.6 -5.6 9.6 -9 5.6 -18.4
	1.6 6 -1.3 11.6 -5.6 12.8
"/>
<use x="393.34" y="307.00" xlink:href="#hd"/>
<use x="425.84" y="295.00" xlink:href="#hd"/>
<path d="M422.34 295.00v21.00" class="stroke"/>
<use x="474.34" y="316.00" xlink:href="#hd"/>
<path d="M477.84 316.00v-21.00" class="stroke"/>
<path class="fill"
	d="M477.84 295.00c0.6 5.6 9.6 9 5.6 18.4
	1.6 -6 -1.3 -11.6 -5.6 -12.8
"/>
<path class="fill"
	d="M503.04 323.90l86.50 0.00v-3.20l-86.50 -0.00"/>
<path class="fill"
	d="M503.44 318.90l85.90 0.00v-3.20l-85.90 -0.00"/>
<use x="506.94" y="301.00" xlink:href="#hd"/>
<path d="M503.44 301.00v21.90" class="stroke"/>
<use x="506.94" y="307.00" xlink:href="#hd"/>
<use x="524.14" y="295.00" xlink:href="#hd"/>
<path d="M520.64 295.00v27.90" class="stroke"/>
<use x="541.24" y="301.00" xlink:href="#hd"/>
<path d="M537.74 301.00v21.90" class="stroke"/>
<use x="541.24" y="307.00" xlink:href="#hd"/>
<use x="558.44" y="295.00" xlink:href="#hd"/>
<path d="M554.94 295.00v27.90" class="stroke"/>
<use x="575.64" y="301.00" xlink:href="#hd"/>
<path d="M572.14 301.00v21.90" class="stroke"/>
<use x="575.64" y="307.00" xlink:href="#hd"/>
<use x="592.74" y="295.00" xlink:href="#hd"/>
<path d="M589.24 295.00v27.90" class="stroke"/>
<path class="fill"
	d="M622.94 286.00l49.20 0.00v3.20l-49.20 -0.00"/>
<use x="619.74" y="307.00" xlink:href="#hd"/>
<path d="M623.24 307.00v-20.00" class="stroke"/>
<use x="644.04" y="307.00" xlink:href="#hd"/>
<path d="M647.54 307.00v-20.00" class="stroke"/>
<use x="668.24" y="307.00" xlink:href="#hd"/>
<path d="M671.74 307.00v-20.00" class="stroke"/>
<use x="700.74" y="298.00" xlink:href="#hd"/>
<path d="M697.24 298.00v21.00" class="stroke"/>
<use x="759.34" y="295.00" xlink:href="#hd"/>
<path d="M755.84 295.00v21.00" class="stroke"/>
<path class="fill"
	d="M755.84 316.00c0.6 -5.6 9.6 -9 5.6 -18.4
	1.6 6 -1.3 11.6 -5.6 12.8
"/>
<path class="fill"
	d="M794.94 287.70l49.20 10.50v3.20l-49.20 -10.50"/>
<use x="791.84" y="307.00" xlink:href="#hd"/>
<path d="M795.34 307.00v-18.20" class="stroke"/>
<use x="816.04" y="316.00" xlink:href="#hd"/>
<path d="M819.54 316.00v-22.00" class="stroke"/>
<use x="840.34" y="322.00" xlink:href="#hl"/>
<use x="840.34" y="328.00" xlink:href="#hl"/>
<use x="840.34" y="328.00" xlink:href="#hd"/>
<path d="M843.84 328.00v-28.90" class="stroke"/>
</g>
</svg>
