<?xml version="1.0" standalone="no"?>
<!DOCTYPE svg PUBLIC "-//W3C//DTD SVG 1.1//EN"
	"http://www.w3.org/Graphics/SVG/1.1/DTD/svg11.dtd">
<svg xmlns="http://www.w3.org/2000/svg" version="1.1"
	xmlns:xlink="http://www.w3.org/1999/xlink"
	color="black"
	width="757.10px" height="293.80px">
<style type="text/css">
.fill {fill: currentColor}
.stroke {stroke: currentColor; fill: none}
text{white-space: pre}
</style>
<title>./K516f-11-6-7-12-11-8-9-3-11-6-11-5-11-3-2-11.abc (5806) tune 1</title>
<!-- Creator: abcm2ps-8.13.8 -->
<!-- CreationDate: Sep  7, 2017 11:20 -->
<!-- CommandLine: ./K516f-11-6-7-12-11-8-9-3-11-6-11-5-11-3-2-11.abc -O ./K516f-11-6-7-12-11-8-9-3-11-6-11-5-11-3-2-11.svg -g -->
<rect width="100%" height="100%" fill="white"/>
<g stroke-width="0.70" transform="scale(0.867)">
<!-- title: 11-6-7-12-11-8-9-3-11-6-11-5-11-3-2-11 -->
</g>
<g stroke-width="0.70" transform="scale(0.867)" font-family="Times" font-size="20.00">
<text x="436.84" y="22.00" text-anchor="middle">11-6-7-12-11-8-9-3-11-6-11-5-11-3-2-11</text>
</g>
<g stroke-width="0.70" transform="scale(0.867)" font-family="Times" font-size="20.00">
<!-- subtitle: $1K.516f::3:74:27:103:135:133:169:81:102:143:31:34:144:18:109:78::$0 -->
</g>
<g stroke-width="0.70" transform="scale(0.867)" font-family="Courier" font-size="8.00" font-weight="bold">
<text x="436.84" y="41.80" text-anchor="middle">K.516f::3:74:27:103:135:133:169:81:102:143:31:34:144:18:109:78::</text>
</g>
<g stroke-width="0.70" transform="scale(0.867)" font-family="Courier" font-size="8.00" font-weight="bold">
<!-- subtitle: $1Perm. No.: 5806313548276$0 -->
<text x="436.84" y="60.80" text-anchor="middle">Perm. No.: 5806313548276</text>
</g>
<g stroke-width="0.70" transform="scale(0.607)" font-family="Courier" font-size="8.00" font-weight="bold">
<defs>
<ellipse id="hd" rx="4.1" ry="2.9"
	transform="rotate(-20)" class="fill"/>
</defs>
<use x="103.06" y="121.29" xlink:href="#hd"/>
<path d="M106.56 121.29v-21.00" class="stroke"/>
<path class="fill"
	d="M106.56 100.29c0.6 5.6 9.6 9 5.6 18.4
	1.6 -6 -1.3 -11.6 -5.6 -12.8
"/>
</g>
<g stroke-width="0.70" transform="scale(0.867)" font-family="Times" font-size="15.00" font-weight="bold">
<text x="81.24" y="87.00">= 111</text>
<path class="stroke" stroke-width="1"
	d="M11.54 183.00v-82.00"/>
<path class="fill"
	d="M6.54 98.00
	c10.5 1 12 -4.5 12 -3.5c0 1 -3.5 5.5 -8.5 5.5
	v84.00
	c5 0 8.5 4.5 8.5 5.5c0 1 -1.5 -4.5 -12 -3.5"/>
<defs>
<g id="rdots" class="fill">
	<circle cx="0" cy="-9" r="1.2"/>
	<circle cx="0" cy="-15" r="1.2"/>
</g>
</defs>
<use x="70.54" y="125.00" xlink:href="#rdots"/>
<path class="stroke" stroke-width="1"
	d="M66.54 125.00v-24.00"/>
<path class="stroke" stroke-width="3"
	d="M62.04 125.00v-24.00"/>
<use x="70.54" y="183.00" xlink:href="#rdots"/>
<path class="stroke" stroke-width="1"
	d="M66.54 183.00v-58.00"/>
<path class="stroke" stroke-width="3"
	d="M62.04 183.00v-58.00"/>
<path class="stroke" stroke-width="1"
	d="M147.94 125.00v-24.00"/>
<path class="stroke" stroke-width="1"
	d="M147.94 183.00v-58.00"/>
<path class="stroke" stroke-width="1"
	d="M254.74 125.00v-24.00"/>
<path class="stroke" stroke-width="1"
	d="M254.74 183.00v-58.00"/>
<path class="stroke" stroke-width="1"
	d="M361.44 125.00v-24.00"/>
<path class="stroke" stroke-width="1"
	d="M361.44 183.00v-58.00"/>
<path class="stroke" stroke-width="1"
	d="M457.04 125.00v-24.00"/>
<path class="stroke" stroke-width="1"
	d="M457.04 183.00v-58.00"/>
<path class="stroke" stroke-width="1"
	d="M555.84 125.00v-24.00"/>
<path class="stroke" stroke-width="1"
	d="M555.84 183.00v-58.00"/>
<path class="stroke" stroke-width="1"
	d="M652.94 125.00v-24.00"/>
<path class="stroke" stroke-width="1"
	d="M652.94 183.00v-58.00"/>
<path class="stroke" stroke-width="1"
	d="M761.44 125.00v-24.00"/>
<path class="stroke" stroke-width="1"
	d="M761.44 183.00v-58.00"/>
<path class="stroke" stroke-width="3"
	d="M860.54 125.00v-24.00"/>
<path class="stroke" stroke-width="1"
	d="M856.04 125.00v-24.00"/>
<use x="852.04" y="125.00" xlink:href="#rdots"/>
<path class="stroke" stroke-width="3"
	d="M860.54 183.00v-58.00"/>
<path class="stroke" stroke-width="1"
	d="M856.04 183.00v-58.00"/>
<use x="852.04" y="183.00" xlink:href="#rdots"/>
<path d="m11.54 125.00
	h850.50
	M11.54 119.00
	h850.50
	M11.54 113.00
	h850.50
	M11.54 107.00
	h850.50
	M11.54 101.00
	h850.50
	" class="stroke"/>
<path d="m11.54 183.00
	h850.50
	M11.54 177.00
	h850.50
	M11.54 171.00
	h850.50
	M11.54 165.00
	h850.50
	M11.54 159.00
	h850.50
	" class="stroke"/>
</g>
<g stroke-width="0.70" transform="scale(0.867)" font-family="Times" font-size="13.00">
<text x="765.44" y="86.40">1</text>
<path class="stroke"
	d="M761.44 75.00m0 20v-20h92.60v20"/>
<defs>
<path id="utclef" class="fill" d="m-50 -90
	c-72 -41 -72 -158 52 -188
	150 -10 220 188 90 256
	-114 52 -275 0 -293 -136
	-15 -181 93 -229 220 -334
	88 -87 79 -133 62 -210
	-51 33 -94 105 -89 186
	17 267 36 374 49 574
	6 96 -19 134 -77 135
	-80 1 -126 -93 -61 -133
	85 -41 133 101 31 105
	23 17 92 37 90 -92
	-10 -223 -39 -342 -50 -617
	0 -90 0 -162 96 -232
	56 72 63 230 22 289
	-74 106 -257 168 -255 316
	9 153 148 185 252 133
	86 -65 29 -192 -80 -176
	-71 12 -105 67 -59 124"/>
<use id="tclef" transform="translate(0,6) scale(0.045)"
	xlink:href="#utclef"/>
</defs>
<use x="23.54" y="119.00" xlink:href="#tclef"/>
<g font-family="serif" font-size="16" font-weight="bold" font-style="normal"
	transform="translate(42.04,124.50) scale(1.2,1)">
	<text text-anchor="middle">8</text>
	<text y="-12" text-anchor="middle">3</text>
</g>
<path class="fill"
	d="M80.64 127.60l46.20 3.20v-3.20l-46.20 -3.20"/>
<use x="84.54" y="98.00" xlink:href="#hd"/>
<path d="M81.04 98.00v28.60" class="stroke"/>
<use x="107.24" y="110.00" xlink:href="#hd"/>
<path d="M103.74 110.00v18.20" class="stroke"/>
<use x="129.94" y="104.00" xlink:href="#hd"/>
<path d="M126.44 104.00v25.80" class="stroke"/>
<path class="fill"
	d="M157.04 122.70l81.70 9.50v-3.20l-81.70 -9.50"/>
<path class="fill"
	d="M157.34 117.70l81.10 9.50v-3.20l-81.10 -9.50"/>
<defs>
<path id="hl" class="stroke" d="m-6 0h12"/>
</defs>
<use x="160.84" y="95.00" xlink:href="#hl"/>
<use x="160.84" y="89.00" xlink:href="#hl"/>
<use x="160.84" y="89.00" xlink:href="#hd"/>
<path d="M157.34 89.00v32.70" class="stroke"/>
<use x="177.14" y="95.00" xlink:href="#hl"/>
<use x="177.14" y="92.00" xlink:href="#hd"/>
<path d="M173.64 92.00v31.60" class="stroke"/>
<use x="193.34" y="95.00" xlink:href="#hl"/>
<use x="193.34" y="89.00" xlink:href="#hl"/>
<use x="193.34" y="89.00" xlink:href="#hd"/>
<path d="M189.84 89.00v36.50" class="stroke"/>
<use x="209.54" y="98.00" xlink:href="#hd"/>
<path d="M206.04 98.00v29.40" class="stroke"/>
<use x="225.74" y="104.00" xlink:href="#hd"/>
<path d="M222.24 104.00v25.30" class="stroke"/>
<use x="241.94" y="110.00" xlink:href="#hd"/>
<path d="M238.44 110.00v21.20" class="stroke"/>
<path class="fill"
	d="M263.84 129.10l81.60 6.20v-3.20l-81.60 -6.20"/>
<path class="fill"
	d="M264.24 124.10l80.90 6.10v-3.20l-80.90 -6.10"/>
<use x="267.74" y="101.00" xlink:href="#hd"/>
<path d="M264.24 101.00v27.10" class="stroke"/>
<use x="283.84" y="104.00" xlink:href="#hd"/>
<path d="M280.34 104.00v25.30" class="stroke"/>
<use x="300.04" y="101.00" xlink:href="#hd"/>
<path d="M296.54 101.00v29.50" class="stroke"/>
<use x="316.24" y="107.00" xlink:href="#hd"/>
<path d="M312.74 107.00v24.80" class="stroke"/>
<use x="332.44" y="110.00" xlink:href="#hd"/>
<path d="M328.94 110.00v23.00" class="stroke"/>
<use x="348.64" y="113.00" xlink:href="#hd"/>
<path d="M345.14 113.00v21.20" class="stroke"/>
<path class="fill"
	d="M377.54 79.70l65.40 8.20v3.20l-65.40 -8.20"/>
<path class="fill"
	d="M377.94 84.80l48.60 6.10v3.20l-48.60 -6.10"/>
<use x="374.44" y="110.00" xlink:href="#hd"/>
<path d="M377.94 110.00v-29.20" class="stroke"/>
<use x="390.64" y="104.00" xlink:href="#hd"/>
<path d="M394.14 104.00v-21.20" class="stroke"/>
<use x="406.74" y="110.00" xlink:href="#hd"/>
<path d="M410.24 110.00v-25.20" class="stroke"/>
<use x="422.94" y="119.00" xlink:href="#hd"/>
<path d="M426.44 119.00v-32.20" class="stroke"/>
<use x="439.14" y="125.00" xlink:href="#hd"/>
<path d="M442.64 125.00v-36.10" class="stroke"/>
<path class="fill"
	d="M471.74 127.00l56.40 0.00v-3.20l-56.40 -0.00"/>
<path class="fill"
	d="M495.34 122.00l16.20 0.00v-3.20l-16.20 -0.00"/>
<use x="475.54" y="101.00" xlink:href="#hd"/>
<defs>
<path id="usharp" class="fill" d="
	m136 -702
	v890
	h32
	v-890
	m128 840
	h32
	v-888
	h-32
	m-232 286
	v116
	l338 -96
	v-116
	m-338 442
	v116
	l338 -98
	v-114"/>
<use id="sh0" transform="translate(-4,5) scale(0.018)"
	xlink:href="#usharp"/>
</defs>
<use x="466.54" y="101.00" xlink:href="#sh0"/>
<path d="M472.04 101.00v25.00" class="stroke"/>
<use x="498.84" y="101.00" xlink:href="#hd"/>
<path d="M495.34 101.00v25.00" class="stroke"/>
<use x="515.04" y="107.00" xlink:href="#hd"/>
<path d="M511.54 107.00v19.00" class="stroke"/>
<use x="531.34" y="95.00" xlink:href="#hl"/>
<use x="531.34" y="95.00" xlink:href="#hd"/>
<path d="M527.84 95.00v31.00" class="stroke"/>
<path class="fill"
	d="M564.94 135.20l72.00 0.00v-3.20l-72.00 -0.00"/>
<path class="fill"
	d="M588.04 130.20l48.60 0.00v-3.20l-48.60 -0.00"/>
<use x="568.84" y="107.00" xlink:href="#hd"/>
<path d="M565.34 107.00v27.20" class="stroke"/>
<use x="591.54" y="98.00" xlink:href="#hd"/>
<path d="M588.04 98.00v36.20" class="stroke"/>
<use x="607.74" y="107.00" xlink:href="#hd"/>
<path d="M604.24 107.00v27.20" class="stroke"/>
<use x="623.94" y="113.00" xlink:href="#hd"/>
<path d="M620.44 113.00v21.20" class="stroke"/>
<use x="640.04" y="107.00" xlink:href="#hd"/>
<path d="M636.54 107.00v27.20" class="stroke"/>
<path class="fill"
	d="M662.04 138.20l83.40 0.00v-3.20l-83.40 -0.00"/>
<path class="fill"
	d="M662.34 133.20l82.70 0.00v-3.20l-82.70 -0.00"/>
<use x="665.84" y="104.00" xlink:href="#hd"/>
<path d="M662.34 104.00v33.20" class="stroke"/>
<use x="682.04" y="98.00" xlink:href="#hd"/>
<path d="M678.54 98.00v39.20" class="stroke"/>
<use x="698.24" y="107.00" xlink:href="#hd"/>
<path d="M694.74 107.00v30.20" class="stroke"/>
<use x="714.44" y="98.00" xlink:href="#hd"/>
<path d="M710.94 98.00v39.20" class="stroke"/>
<use x="730.64" y="116.00" xlink:href="#hd"/>
<path d="M727.14 116.00v21.20" class="stroke"/>
<use x="748.64" y="101.00" xlink:href="#hd"/>
<use x="739.64" y="101.00" xlink:href="#sh0"/>
<path d="M745.14 101.00v36.20" class="stroke"/>
<use x="774.44" y="98.00" xlink:href="#hd"/>
<path d="M770.94 98.00v40.00" class="stroke"/>
<use x="774.44" y="119.00" xlink:href="#hd"/>
<use x="774.44" y="113.00" xlink:href="#hd"/>
<use x="774.44" y="107.00" xlink:href="#hd"/>
<defs>
<path id="r8e" class="fill" d="m 0 0
	c-1.5 1.5 -2.4 2 -3.6 2
	2.4 -2.8 -2.8 -4 -2.8 -1.2
	c0 2.7 4.3 2.4 5.9 0.6"/>
<g id="r8">
	<path d="m3.3 -4l-3.4 9.6" class="stroke"/>
	<use x="3.4" y="-4" xlink:href="#r8e"/>
</g>
</defs>
<use x="831.34" y="113.00" xlink:href="#r8"/>
<defs>
<path id="ubclef" class="fill" d="m-200 -87
	c124 -35 222 -78 254 -236
	43 -228 -167 -246 -192 -103
	59 -80 157 22 92 78
	-62 47 -115 -22 -106 -88
	21 -141 270 -136 274 52
	-1 175 -106 264 -322 297
	m357 -250
	c0 -36 51 -34 51 0
	0 37 -51 36 -51 0
	m-2 -129
	c0 -36 51 -34 51 0
	0 38 -51 37 -51 0"/>
<use id="bclef" transform="translate(0,18) scale(0.045)"
	xlink:href="#ubclef"/>
</defs>
<use x="23.54" y="165.00" xlink:href="#bclef"/>
<g font-family="serif" font-size="16" font-weight="bold" font-style="normal"
	transform="translate(42.04,182.50) scale(1.2,1)">
	<text text-anchor="middle">8</text>
	<text y="-12" text-anchor="middle">3</text>
</g>
<use x="84.54" y="168.00" xlink:href="#hd"/>
<path d="M81.04 168.00v25.00" class="stroke"/>
<use x="84.54" y="174.00" xlink:href="#hd"/>
<use x="129.94" y="171.00" xlink:href="#r8"/>
<use x="160.84" y="168.00" xlink:href="#hd"/>
<path d="M164.34 168.00v-21.00" class="stroke"/>
<use x="225.74" y="171.00" xlink:href="#r8"/>
<use x="267.74" y="156.00" xlink:href="#hd"/>
<path d="M264.24 156.00v25.00" class="stroke"/>
<use x="267.74" y="162.00" xlink:href="#hd"/>
<use x="332.44" y="171.00" xlink:href="#r8"/>
<use x="374.44" y="168.00" xlink:href="#hd"/>
<path d="M370.94 168.00v25.00" class="stroke"/>
<use x="374.44" y="174.00" xlink:href="#hd"/>
<use x="439.14" y="171.00" xlink:href="#r8"/>
<path class="fill"
	d="M478.74 150.00l56.40 0.00v3.20l-56.40 -0.00"/>
<use x="475.54" y="171.00" xlink:href="#hd"/>
<path d="M479.04 171.00v-20.00" class="stroke"/>
<use x="498.84" y="171.00" xlink:href="#hd"/>
<path d="M502.34 171.00v-20.00" class="stroke"/>
<use x="531.34" y="171.00" xlink:href="#hd"/>
<path d="M534.84 171.00v-20.00" class="stroke"/>
<use x="568.84" y="162.00" xlink:href="#hd"/>
<path d="M565.34 162.00v34.00" class="stroke"/>
<use x="568.84" y="177.00" xlink:href="#hd"/>
<use x="623.94" y="171.00" xlink:href="#r8"/>
<path class="fill"
	d="M669.04 147.70l65.40 8.20v3.20l-65.40 -8.20"/>
<use x="665.84" y="174.00" xlink:href="#hd"/>
<path d="M669.34 174.00v-25.20" class="stroke"/>
<use x="698.24" y="171.00" xlink:href="#hd"/>
<path d="M701.74 171.00v-18.20" class="stroke"/>
<use x="730.64" y="189.00" xlink:href="#hl"/>
<use x="730.64" y="192.00" xlink:href="#hd"/>
<path d="M734.14 192.00v-35.20" class="stroke"/>
<path class="fill"
	d="M770.54 202.20l73.80 0.00v-3.20l-73.80 -0.00"/>
<path class="fill"
	d="M793.64 197.20l50.40 0.00v-3.20l-50.40 -0.00"/>
<use x="774.44" y="183.00" xlink:href="#hd"/>
<path d="M770.94 183.00v18.20" class="stroke"/>
<use x="797.14" y="162.00" xlink:href="#hd"/>
<path d="M793.64 162.00v39.20" class="stroke"/>
<use x="815.14" y="165.00" xlink:href="#hd"/>
<defs>
<path id="unat" class="fill" d="
	m96 -750
	h-32
	v716
	l32 -8
	182 -54
	v282
	h32
	v-706
	l-34 10
	-180 50
	v-290
	m0 592
	v-190
	l182 -52
	v188"/>
<use id="nt0" transform="translate(-3,5) scale(0.018)"
	xlink:href="#unat"/>
</defs>
<use x="806.14" y="165.00" xlink:href="#nt0"/>
<path d="M811.64 165.00v36.20" class="stroke"/>
<use x="831.34" y="168.00" xlink:href="#hd"/>
<path d="M827.84 168.00v33.20" class="stroke"/>
<use x="847.54" y="171.00" xlink:href="#hd"/>
<path d="M844.04 171.00v30.20" class="stroke"/>
<use x="160.84" y="174.00" xlink:href="#hd"/>
<path d="M157.34 174.00v21.00" class="stroke"/>
<path class="fill"
	d="M479.74 195.00l56.40 0.00v-3.20l-56.40 -0.00"/>
<use x="483.54" y="174.00" xlink:href="#hd"/>
<path d="M480.04 174.00v20.00" class="stroke"/>
<use x="506.84" y="174.00" xlink:href="#hd"/>
<path d="M503.34 174.00v20.00" class="stroke"/>
<use x="539.34" y="174.00" xlink:href="#hd"/>
<path d="M535.84 174.00v20.00" class="stroke"/>
</g>
<g stroke-width="0.70" transform="scale(0.867)" font-family="Times" font-size="13.00">
<path class="stroke" stroke-width="1"
	d="M11.54 316.00v-82.00"/>
<path class="fill"
	d="M6.54 231.00
	c10.5 1 12 -4.5 12 -3.5c0 1 -3.5 5.5 -8.5 5.5
	v84.00
	c5 0 8.5 4.5 8.5 5.5c0 1 -1.5 -4.5 -12 -3.5"/>
<use x="146.84" y="258.00" xlink:href="#rdots"/>
<path class="stroke" stroke-width="1"
	d="M142.84 258.00v-24.00"/>
<path class="stroke" stroke-width="3"
	d="M138.34 258.00v-24.00"/>
<use x="146.84" y="316.00" xlink:href="#rdots"/>
<path class="stroke" stroke-width="1"
	d="M142.84 316.00v-58.00"/>
<path class="stroke" stroke-width="3"
	d="M138.34 316.00v-58.00"/>
<path class="stroke" stroke-width="1"
	d="M239.24 258.00v-24.00"/>
<path class="stroke" stroke-width="1"
	d="M239.24 316.00v-58.00"/>
<path class="stroke" stroke-width="1"
	d="M322.54 258.00v-24.00"/>
<path class="stroke" stroke-width="1"
	d="M322.54 316.00v-58.00"/>
<path class="stroke" stroke-width="1"
	d="M408.04 258.00v-24.00"/>
<path class="stroke" stroke-width="1"
	d="M408.04 316.00v-58.00"/>
<path class="stroke" stroke-width="1"
	d="M500.44 258.00v-24.00"/>
<path class="stroke" stroke-width="1"
	d="M500.44 316.00v-58.00"/>
<path class="stroke" stroke-width="1"
	d="M603.64 258.00v-24.00"/>
<path class="stroke" stroke-width="1"
	d="M603.64 316.00v-58.00"/>
<path class="stroke" stroke-width="1"
	d="M677.34 258.00v-24.00"/>
<path class="stroke" stroke-width="1"
	d="M677.34 316.00v-58.00"/>
<path class="stroke" stroke-width="1"
	d="M780.64 258.00v-24.00"/>
<path class="stroke" stroke-width="1"
	d="M780.64 316.00v-58.00"/>
<path class="stroke" stroke-width="3"
	d="M860.54 258.00v-24.00"/>
<path class="stroke" stroke-width="1"
	d="M856.04 258.00v-24.00"/>
<use x="852.04" y="258.00" xlink:href="#rdots"/>
<path class="stroke" stroke-width="3"
	d="M860.54 316.00v-58.00"/>
<path class="stroke" stroke-width="1"
	d="M856.04 316.00v-58.00"/>
<use x="852.04" y="316.00" xlink:href="#rdots"/>
<path d="m11.54 258.00
	h850.50
	M11.54 252.00
	h850.50
	M11.54 246.00
	h850.50
	M11.54 240.00
	h850.50
	M11.54 234.00
	h850.50
	" class="stroke"/>
<path d="m11.54 316.00
	h850.50
	M11.54 310.00
	h850.50
	M11.54 304.00
	h850.50
	M11.54 298.00
	h850.50
	M11.54 292.00
	h850.50
	" class="stroke"/>
<path class="fill"
	d="M616.14 241.00c6.28 -5.34 33.62 -10.54 39.90 -7.60
	v-0.24c-7.48 -4.70 -32.42 0.50 -39.90 7.84"/>
<text x="47.54" y="219.40">2</text>
<path class="stroke"
	d="M43.54 208.00m0 20v-20h92.30v20"/>
<use x="23.54" y="252.00" xlink:href="#tclef"/>
<use x="56.04" y="231.00" xlink:href="#hd"/>
<path d="M52.54 231.00v40.00" class="stroke"/>
<use x="56.04" y="252.00" xlink:href="#hd"/>
<use x="56.04" y="246.00" xlink:href="#hd"/>
<use x="56.04" y="240.00" xlink:href="#hd"/>
<use x="111.64" y="246.00" xlink:href="#r8"/>
<path class="fill"
	d="M162.44 262.40l31.90 5.80v-3.20l-31.90 -5.80"/>
<path class="fill"
	d="M162.84 257.50l15.60 2.90v-3.20l-15.60 -2.90"/>
<use x="166.34" y="234.00" xlink:href="#hd"/>
<use x="157.34" y="234.00" xlink:href="#sh0"/>
<path d="M162.84 234.00v27.50" class="stroke"/>
<use x="181.94" y="240.00" xlink:href="#hd"/>
<path d="M178.44 240.00v24.30" class="stroke"/>
<use x="197.54" y="249.00" xlink:href="#hd"/>
<path d="M194.04 249.00v18.20" class="stroke"/>
<use x="221.94" y="234.00" xlink:href="#hd"/>
<path d="M218.44 234.00v21.00" class="stroke"/>
<path class="fill"
	d="M218.44 255.00c0.6 -5.6 9.6 -9 5.6 -18.4
	1.6 6 -1.3 11.6 -5.6 12.8
"/>
<path class="fill"
	d="M247.94 262.50l53.90 8.70v-3.20l-53.90 -8.70"/>
<path class="fill"
	d="M270.24 261.10l15.60 2.50v-3.20l-15.60 -2.50"/>
<use x="251.74" y="231.00" xlink:href="#hd"/>
<path d="M248.24 231.00v30.60" class="stroke"/>
<use x="273.74" y="240.00" xlink:href="#hd"/>
<path d="M270.24 240.00v25.10" class="stroke"/>
<use x="289.34" y="246.00" xlink:href="#hd"/>
<path d="M285.84 246.00v21.70" class="stroke"/>
<use x="305.04" y="252.00" xlink:href="#hd"/>
<path d="M301.54 252.00v18.20" class="stroke"/>
<path class="fill"
	d="M331.24 265.40l31.90 5.80v-3.20l-31.90 -5.80"/>
<path class="fill"
	d="M331.54 260.50l15.60 2.90v-3.20l-15.60 -2.90"/>
<use x="335.04" y="237.00" xlink:href="#hd"/>
<path d="M331.54 237.00v27.50" class="stroke"/>
<use x="350.74" y="243.00" xlink:href="#hd"/>
<path d="M347.24 243.00v24.30" class="stroke"/>
<use x="366.34" y="252.00" xlink:href="#hd"/>
<path d="M362.84 252.00v18.20" class="stroke"/>
<use x="390.64" y="237.00" xlink:href="#hd"/>
<path d="M387.14 237.00v21.00" class="stroke"/>
<path class="fill"
	d="M387.14 258.00c0.6 -5.6 9.6 -9 5.6 -18.4
	1.6 6 -1.3 11.6 -5.6 12.8
"/>
<path class="fill"
	d="M416.74 264.80l63.20 6.40v-3.20l-63.20 -6.40"/>
<path class="fill"
	d="M417.04 259.90l46.90 4.70v-3.20l-46.90 -4.70"/>
<use x="420.54" y="237.00" xlink:href="#hd"/>
<path d="M417.04 237.00v26.90" class="stroke"/>
<use x="436.14" y="243.00" xlink:href="#hd"/>
<path d="M432.64 243.00v22.50" class="stroke"/>
<use x="451.84" y="240.00" xlink:href="#hd"/>
<path d="M448.34 240.00v27.00" class="stroke"/>
<use x="467.44" y="246.00" xlink:href="#hd"/>
<path d="M463.94 246.00v22.60" class="stroke"/>
<use x="483.04" y="252.00" xlink:href="#hd"/>
<path d="M479.54 252.00v18.20" class="stroke"/>
<path class="fill"
	d="M509.14 260.60l63.20 3.30v-3.20l-63.20 -3.30"/>
<use x="512.94" y="231.00" xlink:href="#hd"/>
<path d="M509.44 231.00v28.60" class="stroke"/>
<use x="544.24" y="243.00" xlink:href="#hd"/>
<path d="M540.74 243.00v18.20" class="stroke"/>
<use x="575.44" y="237.00" xlink:href="#hd"/>
<path d="M571.94 237.00v25.80" class="stroke"/>
<path class="fill"
	d="M612.34 271.20l44.60 -6.50v-3.20l-44.60 6.50"/>
<use x="616.14" y="252.00" xlink:href="#hd"/>
<path d="M612.64 252.00v18.20" class="stroke"/>
<use x="638.14" y="243.00" xlink:href="#hd"/>
<path d="M634.64 243.00v24.00" class="stroke"/>
<use x="660.04" y="237.00" xlink:href="#hd"/>
<path d="M656.54 237.00v26.80" class="stroke"/>
<path class="fill"
	d="M686.04 266.00l78.90 0.00v-3.20l-78.90 -0.00"/>
<path class="fill"
	d="M686.44 261.00l78.20 0.00v-3.20l-78.20 -0.00"/>
<use x="689.94" y="240.00" xlink:href="#hd"/>
<path d="M686.44 240.00v24.90" class="stroke"/>
<use x="705.54" y="234.00" xlink:href="#hd"/>
<path d="M702.04 234.00v30.90" class="stroke"/>
<use x="721.24" y="240.00" xlink:href="#hd"/>
<path d="M717.74 240.00v24.90" class="stroke"/>
<use x="736.84" y="234.00" xlink:href="#hd"/>
<path d="M733.34 234.00v30.90" class="stroke"/>
<use x="752.44" y="246.00" xlink:href="#hd"/>
<path d="M748.94 246.00v18.90" class="stroke"/>
<use x="768.14" y="240.00" xlink:href="#hd"/>
<path d="M764.64 240.00v24.90" class="stroke"/>
<path class="fill"
	d="M796.34 223.70l22.60 7.40v3.20l-22.60 -7.40"/>
<use x="793.14" y="243.00" xlink:href="#hd"/>
<path d="M796.64 243.00v-18.20" class="stroke"/>
<use x="815.04" y="264.00" xlink:href="#hl"/>
<use x="815.04" y="264.00" xlink:href="#hd"/>
<path d="M818.54 264.00v-32.00" class="stroke"/>
<use x="837.04" y="246.00" xlink:href="#r8"/>
<use x="23.54" y="298.00" xlink:href="#bclef"/>
<path class="fill"
	d="M52.24 335.20l71.90 -5.10v-3.20l-71.90 5.10"/>
<path class="fill"
	d="M74.54 328.60l49.30 -3.50v-3.20l-49.30 3.50"/>
<use x="56.04" y="316.00" xlink:href="#hd"/>
<path d="M52.54 316.00v18.20" class="stroke"/>
<use x="78.04" y="289.00" xlink:href="#hd"/>
<path d="M74.54 289.00v43.60" class="stroke"/>
<use x="93.64" y="295.00" xlink:href="#hd"/>
<path d="M90.14 295.00v36.50" class="stroke"/>
<use x="111.64" y="298.00" xlink:href="#hd"/>
<use x="102.64" y="298.00" xlink:href="#sh0"/>
<path d="M108.14 298.00v32.20" class="stroke"/>
<use x="127.34" y="301.00" xlink:href="#hd"/>
<path d="M123.84 301.00v28.10" class="stroke"/>
<use x="166.34" y="292.00" xlink:href="#hd"/>
<path d="M162.84 292.00v34.00" class="stroke"/>
<use x="166.34" y="307.00" xlink:href="#hd"/>
<use x="221.94" y="292.00" xlink:href="#hd"/>
<path d="M218.44 292.00v34.00" class="stroke"/>
<path class="fill"
	d="M218.44 326.00c0.6 -5.6 9.6 -9 5.6 -18.4
	1.6 6 -1.3 11.6 -5.6 12.8
"/>
<use x="221.94" y="307.00" xlink:href="#hd"/>
<use x="251.74" y="310.00" xlink:href="#hd"/>
<path d="M255.24 310.00v-25.00" class="stroke"/>
<use x="251.74" y="304.00" xlink:href="#hd"/>
<use x="305.04" y="310.00" xlink:href="#hd"/>
<path d="M308.54 310.00v-25.00" class="stroke"/>
<path class="fill"
	d="M308.54 285.00c0.6 5.6 9.6 9 5.6 18.4
	1.6 -6 -1.3 -11.6 -5.6 -12.8
"/>
<use x="305.04" y="304.00" xlink:href="#hd"/>
<use x="335.04" y="295.00" xlink:href="#hd"/>
<path d="M331.54 295.00v31.00" class="stroke"/>
<use x="335.04" y="307.00" xlink:href="#hd"/>
<use x="390.64" y="295.00" xlink:href="#hd"/>
<path d="M387.14 295.00v31.00" class="stroke"/>
<path class="fill"
	d="M387.14 326.00c0.6 -5.6 9.6 -9 5.6 -18.4
	1.6 6 -1.3 11.6 -5.6 12.8
"/>
<use x="390.64" y="307.00" xlink:href="#hd"/>
<use x="420.54" y="295.00" xlink:href="#hd"/>
<path d="M417.04 295.00v21.00" class="stroke"/>
<use x="483.04" y="304.00" xlink:href="#r8"/>
<path class="fill"
	d="M509.14 323.90l78.90 0.00v-3.20l-78.90 -0.00"/>
<path class="fill"
	d="M509.44 318.90l78.20 0.00v-3.20l-78.20 -0.00"/>
<use x="512.94" y="301.00" xlink:href="#hd"/>
<path d="M509.44 301.00v21.90" class="stroke"/>
<use x="512.94" y="307.00" xlink:href="#hd"/>
<use x="528.54" y="295.00" xlink:href="#hd"/>
<path d="M525.04 295.00v27.90" class="stroke"/>
<use x="544.24" y="301.00" xlink:href="#hd"/>
<path d="M540.74 301.00v21.90" class="stroke"/>
<use x="544.24" y="307.00" xlink:href="#hd"/>
<use x="559.84" y="295.00" xlink:href="#hd"/>
<path d="M556.34 295.00v27.90" class="stroke"/>
<use x="575.44" y="301.00" xlink:href="#hd"/>
<path d="M571.94 301.00v21.90" class="stroke"/>
<use x="575.44" y="307.00" xlink:href="#hd"/>
<use x="591.14" y="295.00" xlink:href="#hd"/>
<path d="M587.64 295.00v27.90" class="stroke"/>
<use x="616.14" y="301.00" xlink:href="#hd"/>
<path d="M612.64 301.00v25.00" class="stroke"/>
<use x="616.14" y="307.00" xlink:href="#hd"/>
<use x="660.04" y="295.00" xlink:href="#hd"/>
<path d="M656.54 295.00v31.00" class="stroke"/>
<path class="fill"
	d="M656.54 326.00c0.6 -5.6 9.6 -9 5.6 -18.4
	1.6 6 -1.3 11.6 -5.6 12.8
"/>
<use x="660.04" y="307.00" xlink:href="#hd"/>
<use x="689.94" y="292.00" xlink:href="#hd"/>
<path d="M686.44 292.00v25.00" class="stroke"/>
<use x="689.94" y="298.00" xlink:href="#hd"/>
<use x="752.44" y="286.00" xlink:href="#hl"/>
<use x="752.44" y="283.00" xlink:href="#hd"/>
<path d="M748.94 283.00v31.00" class="stroke"/>
<path class="fill"
	d="M748.94 314.00c0.6 -5.6 9.6 -9 5.6 -18.4
	1.6 6 -1.3 11.6 -5.6 12.8
"/>
<use x="752.44" y="295.00" xlink:href="#hd"/>
<use x="793.14" y="307.00" xlink:href="#hd"/>
<path d="M796.64 307.00v-21.00" class="stroke"/>
<use x="837.04" y="322.00" xlink:href="#hl"/>
<use x="837.04" y="328.00" xlink:href="#hl"/>
<use x="837.04" y="328.00" xlink:href="#hd"/>
<path d="M840.54 328.00v-24.00" class="stroke"/>
<path class="fill"
	d="M840.54 304.00c0.6 5.6 9.6 9 5.6 18.4
	1.6 -6 -1.3 -11.6 -5.6 -12.8
"/>
</g>
</svg>
