<?xml version="1.0" standalone="no"?>
<!DOCTYPE svg PUBLIC "-//W3C//DTD SVG 1.1//EN"
	"http://www.w3.org/Graphics/SVG/1.1/DTD/svg11.dtd">
<svg xmlns="http://www.w3.org/2000/svg" version="1.1"
	xmlns:xlink="http://www.w3.org/1999/xlink"
	color="black"
	width="757.10px" height="300.73px">
<style type="text/css">
.fill {fill: currentColor}
.stroke {stroke: currentColor; fill: none}
text{white-space: pre}
</style>
<title>./K516f-7-8-9-2-5-10-8-7-11-6-12-10-4-8-9-2.abc (2612) tune 1</title>
<!-- Creator: abcm2ps-8.13.8 -->
<!-- CreationDate: Sep  7, 2017 11:19 -->
<!-- CommandLine: ./K516f-7-8-9-2-5-10-8-7-11-6-12-10-4-8-9-2.abc -O ./K516f-7-8-9-2-5-10-8-7-11-6-12-10-4-8-9-2.svg -g -->
<rect width="100%" height="100%" fill="white"/>
<g stroke-width="0.70" transform="scale(0.867)">
<!-- title: 7-8-9-2-5-10-8-7-11-6-12-10-4-8-9-2 -->
</g>
<g stroke-width="0.70" transform="scale(0.867)" font-family="Times" font-size="20.00">
<text x="436.84" y="22.00" text-anchor="middle">7-8-9-2-5-10-8-7-11-6-12-10-4-8-9-2</text>
</g>
<g stroke-width="0.70" transform="scale(0.867)" font-family="Times" font-size="20.00">
<!-- subtitle: $1K.516f::104:60:114:41:161:129:21:91:102:143:108:82:73:168:72:14::$0 -->
</g>
<g stroke-width="0.70" transform="scale(0.867)" font-family="Courier" font-size="8.00" font-weight="bold">
<text x="436.84" y="41.80" text-anchor="middle">K.516f::104:60:114:41:161:129:21:91:102:143:108:82:73:168:72:14::</text>
</g>
<g stroke-width="0.70" transform="scale(0.867)" font-family="Courier" font-size="8.00" font-weight="bold">
<!-- subtitle: $1Perm. No.: 261292302265462$0 -->
<text x="436.84" y="60.80" text-anchor="middle">Perm. No.: 261292302265462</text>
</g>
<g stroke-width="0.70" transform="scale(0.607)" font-family="Courier" font-size="8.00" font-weight="bold">
<defs>
<ellipse id="hd" rx="4.1" ry="2.9"
	transform="rotate(-20)" class="fill"/>
</defs>
<use x="103.06" y="121.29" xlink:href="#hd"/>
<path d="M106.56 121.29v-21.00" class="stroke"/>
<path class="fill"
	d="M106.56 100.29c0.6 5.6 9.6 9 5.6 18.4
	1.6 -6 -1.3 -11.6 -5.6 -12.8
"/>
</g>
<g stroke-width="0.70" transform="scale(0.867)" font-family="Times" font-size="15.00" font-weight="bold">
<text x="81.24" y="87.00">= 111</text>
<path class="stroke" stroke-width="1"
	d="M11.54 183.00v-82.00"/>
<path class="fill"
	d="M6.54 98.00
	c10.5 1 12 -4.5 12 -3.5c0 1 -3.5 5.5 -8.5 5.5
	v84.00
	c5 0 8.5 4.5 8.5 5.5c0 1 -1.5 -4.5 -12 -3.5"/>
<defs>
<g id="rdots" class="fill">
	<circle cx="0" cy="-9" r="1.2"/>
	<circle cx="0" cy="-15" r="1.2"/>
</g>
</defs>
<use x="70.54" y="125.00" xlink:href="#rdots"/>
<path class="stroke" stroke-width="1"
	d="M66.54 125.00v-24.00"/>
<path class="stroke" stroke-width="3"
	d="M62.04 125.00v-24.00"/>
<use x="70.54" y="183.00" xlink:href="#rdots"/>
<path class="stroke" stroke-width="1"
	d="M66.54 183.00v-58.00"/>
<path class="stroke" stroke-width="3"
	d="M62.04 183.00v-58.00"/>
<path class="stroke" stroke-width="1"
	d="M182.14 125.00v-24.00"/>
<path class="stroke" stroke-width="1"
	d="M182.14 183.00v-58.00"/>
<path class="stroke" stroke-width="1"
	d="M282.84 125.00v-24.00"/>
<path class="stroke" stroke-width="1"
	d="M282.84 183.00v-58.00"/>
<path class="stroke" stroke-width="1"
	d="M362.14 125.00v-24.00"/>
<path class="stroke" stroke-width="1"
	d="M362.14 183.00v-58.00"/>
<path class="stroke" stroke-width="1"
	d="M461.24 125.00v-24.00"/>
<path class="stroke" stroke-width="1"
	d="M461.24 183.00v-58.00"/>
<path class="stroke" stroke-width="1"
	d="M546.24 125.00v-24.00"/>
<path class="stroke" stroke-width="1"
	d="M546.24 183.00v-58.00"/>
<path class="stroke" stroke-width="1"
	d="M646.54 125.00v-24.00"/>
<path class="stroke" stroke-width="1"
	d="M646.54 183.00v-58.00"/>
<path class="stroke" stroke-width="1"
	d="M758.34 125.00v-24.00"/>
<path class="stroke" stroke-width="1"
	d="M758.34 183.00v-58.00"/>
<path class="stroke" stroke-width="3"
	d="M860.54 125.00v-24.00"/>
<path class="stroke" stroke-width="1"
	d="M856.04 125.00v-24.00"/>
<use x="852.04" y="125.00" xlink:href="#rdots"/>
<path class="stroke" stroke-width="3"
	d="M860.54 183.00v-58.00"/>
<path class="stroke" stroke-width="1"
	d="M856.04 183.00v-58.00"/>
<use x="852.04" y="183.00" xlink:href="#rdots"/>
<path d="m11.54 125.00
	h850.50
	M11.54 119.00
	h850.50
	M11.54 113.00
	h850.50
	M11.54 107.00
	h850.50
	M11.54 101.00
	h850.50
	" class="stroke"/>
<path d="m11.54 183.00
	h850.50
	M11.54 177.00
	h850.50
	M11.54 171.00
	h850.50
	M11.54 165.00
	h850.50
	M11.54 159.00
	h850.50
	" class="stroke"/>
</g>
<g stroke-width="0.70" transform="scale(0.867)" font-family="Times" font-size="13.00">
<text x="762.34" y="86.40">1</text>
<path class="stroke"
	d="M758.34 75.00m0 20v-20h95.70v20"/>
<defs>
<path id="utclef" class="fill" d="m-50 -90
	c-72 -41 -72 -158 52 -188
	150 -10 220 188 90 256
	-114 52 -275 0 -293 -136
	-15 -181 93 -229 220 -334
	88 -87 79 -133 62 -210
	-51 33 -94 105 -89 186
	17 267 36 374 49 574
	6 96 -19 134 -77 135
	-80 1 -126 -93 -61 -133
	85 -41 133 101 31 105
	23 17 92 37 90 -92
	-10 -223 -39 -342 -50 -617
	0 -90 0 -162 96 -232
	56 72 63 230 22 289
	-74 106 -257 168 -255 316
	9 153 148 185 252 133
	86 -65 29 -192 -80 -176
	-71 12 -105 67 -59 124"/>
<use id="tclef" transform="translate(0,6) scale(0.045)"
	xlink:href="#utclef"/>
</defs>
<use x="23.54" y="119.00" xlink:href="#tclef"/>
<g font-family="serif" font-size="16" font-weight="bold" font-style="normal"
	transform="translate(42.04,124.50) scale(1.2,1)">
	<text text-anchor="middle">8</text>
	<text y="-12" text-anchor="middle">3</text>
</g>
<path class="fill"
	d="M81.04 130.50l84.70 -6.40v-3.20l-84.70 6.40"/>
<path class="fill"
	d="M81.44 125.50l84.00 -6.30v-3.20l-84.00 6.30"/>
<use x="84.94" y="104.00" xlink:href="#hd"/>
<path d="M81.44 104.00v25.50" class="stroke"/>
<use x="101.74" y="107.00" xlink:href="#hd"/>
<path d="M98.24 107.00v21.20" class="stroke"/>
<use x="118.54" y="104.00" xlink:href="#hd"/>
<path d="M115.04 104.00v22.90" class="stroke"/>
<use x="135.34" y="98.00" xlink:href="#hd"/>
<path d="M131.84 98.00v27.70" class="stroke"/>
<defs>
<path id="hl" class="stroke" d="m-6 0h12"/>
</defs>
<use x="152.14" y="95.00" xlink:href="#hl"/>
<use x="152.14" y="89.00" xlink:href="#hl"/>
<use x="152.14" y="89.00" xlink:href="#hd"/>
<path d="M148.64 89.00v35.40" class="stroke"/>
<use x="168.94" y="98.00" xlink:href="#hd"/>
<path d="M165.44 98.00v25.10" class="stroke"/>
<path class="fill"
	d="M191.64 123.00l74.80 9.20v-3.20l-74.80 -9.20"/>
<path class="fill"
	d="M215.74 121.00l50.40 6.20v-3.20l-50.40 -6.20"/>
<use x="195.54" y="98.00" xlink:href="#hd"/>
<path d="M192.04 98.00v24.00" class="stroke"/>
<use x="219.24" y="101.00" xlink:href="#hd"/>
<path d="M215.74 101.00v24.00" class="stroke"/>
<use x="236.04" y="104.00" xlink:href="#hd"/>
<path d="M232.54 104.00v23.00" class="stroke"/>
<use x="252.84" y="107.00" xlink:href="#hd"/>
<path d="M249.34 107.00v22.10" class="stroke"/>
<use x="269.64" y="110.00" xlink:href="#hd"/>
<path d="M266.14 110.00v21.20" class="stroke"/>
<path class="fill"
	d="M292.34 132.00l48.10 0.00v-3.20l-48.10 -0.00"/>
<use x="296.24" y="107.00" xlink:href="#hd"/>
<path d="M292.74 107.00v24.00" class="stroke"/>
<use x="296.24" y="113.00" xlink:href="#hd"/>
<use x="319.84" y="107.00" xlink:href="#hd"/>
<path d="M316.34 107.00v24.00" class="stroke"/>
<use x="319.84" y="113.00" xlink:href="#hd"/>
<use x="343.54" y="107.00" xlink:href="#hd"/>
<path d="M340.04 107.00v24.00" class="stroke"/>
<use x="343.54" y="113.00" xlink:href="#hd"/>
<path class="fill"
	d="M371.64 138.20l67.90 0.00v-3.20l-67.90 -0.00"/>
<path class="fill"
	d="M371.94 133.20l50.40 0.00v-3.20l-50.40 -0.00"/>
<use x="375.44" y="110.00" xlink:href="#hd"/>
<path d="M371.94 110.00v27.20" class="stroke"/>
<use x="392.34" y="113.00" xlink:href="#hd"/>
<path d="M388.84 113.00v24.20" class="stroke"/>
<use x="409.14" y="110.00" xlink:href="#hd"/>
<path d="M405.64 110.00v27.20" class="stroke"/>
<use x="425.94" y="104.00" xlink:href="#hd"/>
<path d="M422.44 104.00v33.20" class="stroke"/>
<use x="442.74" y="119.00" xlink:href="#hd"/>
<path d="M439.24 119.00v18.20" class="stroke"/>
<path class="fill"
	d="M482.94 88.00l48.50 0.00v3.20l-48.50 -0.00"/>
<use x="479.74" y="122.00" xlink:href="#hd"/>
<defs>
<path id="usharp" class="fill" d="
	m136 -702
	v890
	h32
	v-890
	m128 840
	h32
	v-888
	h-32
	m-232 286
	v116
	l338 -96
	v-116
	m-338 442
	v116
	l338 -98
	v-114"/>
<use id="sh0" transform="translate(-4,5) scale(0.018)"
	xlink:href="#usharp"/>
</defs>
<use x="470.74" y="122.00" xlink:href="#sh0"/>
<path d="M483.24 122.00v-33.00" class="stroke"/>
<use x="479.74" y="107.00" xlink:href="#hd"/>
<use x="503.74" y="122.00" xlink:href="#hd"/>
<use x="494.74" y="122.00" xlink:href="#sh0"/>
<path d="M507.24 122.00v-33.00" class="stroke"/>
<use x="503.74" y="107.00" xlink:href="#hd"/>
<use x="527.64" y="122.00" xlink:href="#hd"/>
<use x="518.64" y="122.00" xlink:href="#sh0"/>
<path d="M531.14 122.00v-33.00" class="stroke"/>
<use x="527.64" y="107.00" xlink:href="#hd"/>
<path class="fill"
	d="M555.74 121.30l69.10 5.00v-3.20l-69.10 -5.00"/>
<path class="fill"
	d="M556.04 116.30l51.60 3.70v-3.20l-51.60 -3.70"/>
<use x="559.54" y="95.00" xlink:href="#hl"/>
<use x="559.54" y="95.00" xlink:href="#hd"/>
<path d="M556.04 95.00v25.30" class="stroke"/>
<use x="576.34" y="98.00" xlink:href="#hd"/>
<path d="M572.84 98.00v23.50" class="stroke"/>
<use x="594.34" y="101.00" xlink:href="#hd"/>
<use x="585.34" y="101.00" xlink:href="#sh0"/>
<path d="M590.84 101.00v21.80" class="stroke"/>
<use x="611.14" y="98.00" xlink:href="#hd"/>
<path d="M607.64 98.00v26.00" class="stroke"/>
<use x="627.94" y="107.00" xlink:href="#hd"/>
<path d="M624.44 107.00v18.20" class="stroke"/>
<path class="fill"
	d="M656.04 138.20l85.90 0.00v-3.20l-85.90 -0.00"/>
<path class="fill"
	d="M656.44 133.20l85.20 0.00v-3.20l-85.20 -0.00"/>
<use x="659.94" y="110.00" xlink:href="#hd"/>
<path d="M656.44 110.00v27.20" class="stroke"/>
<use x="676.74" y="104.00" xlink:href="#hd"/>
<path d="M673.24 104.00v33.20" class="stroke"/>
<use x="693.54" y="98.00" xlink:href="#hd"/>
<path d="M690.04 98.00v39.20" class="stroke"/>
<use x="710.34" y="107.00" xlink:href="#hd"/>
<path d="M706.84 107.00v30.20" class="stroke"/>
<use x="727.14" y="116.00" xlink:href="#hd"/>
<path d="M723.64 116.00v21.20" class="stroke"/>
<use x="745.14" y="101.00" xlink:href="#hd"/>
<use x="736.14" y="101.00" xlink:href="#sh0"/>
<path d="M741.64 101.00v36.20" class="stroke"/>
<use x="771.74" y="98.00" xlink:href="#hd"/>
<path d="M768.24 98.00v40.00" class="stroke"/>
<use x="771.74" y="119.00" xlink:href="#hd"/>
<use x="771.74" y="113.00" xlink:href="#hd"/>
<use x="771.74" y="107.00" xlink:href="#hd"/>
<defs>
<path id="r8e" class="fill" d="m 0 0
	c-1.5 1.5 -2.4 2 -3.6 2
	2.4 -2.8 -2.8 -4 -2.8 -1.2
	c0 2.7 4.3 2.4 5.9 0.6"/>
<g id="r8">
	<path d="m3.3 -4l-3.4 9.6" class="stroke"/>
	<use x="3.4" y="-4" xlink:href="#r8e"/>
</g>
</defs>
<use x="830.24" y="113.00" xlink:href="#r8"/>
<defs>
<path id="ubclef" class="fill" d="m-200 -87
	c124 -35 222 -78 254 -236
	43 -228 -167 -246 -192 -103
	59 -80 157 22 92 78
	-62 47 -115 -22 -106 -88
	21 -141 270 -136 274 52
	-1 175 -106 264 -322 297
	m357 -250
	c0 -36 51 -34 51 0
	0 37 -51 36 -51 0
	m-2 -129
	c0 -36 51 -34 51 0
	0 38 -51 37 -51 0"/>
<use id="bclef" transform="translate(0,18) scale(0.045)"
	xlink:href="#ubclef"/>
</defs>
<use x="23.54" y="165.00" xlink:href="#bclef"/>
<g font-family="serif" font-size="16" font-weight="bold" font-style="normal"
	transform="translate(42.04,182.50) scale(1.2,1)">
	<text text-anchor="middle">8</text>
	<text y="-12" text-anchor="middle">3</text>
</g>
<use x="84.94" y="174.00" xlink:href="#hd"/>
<path d="M88.44 174.00v-21.00" class="stroke"/>
<use x="152.14" y="171.00" xlink:href="#r8"/>
<use x="195.54" y="168.00" xlink:href="#hd"/>
<path d="M192.04 168.00v25.00" class="stroke"/>
<use x="195.54" y="174.00" xlink:href="#hd"/>
<use x="252.84" y="171.00" xlink:href="#r8"/>
<path class="fill"
	d="M292.34 183.20l48.10 0.00v-3.20l-48.10 -0.00"/>
<use x="296.24" y="162.00" xlink:href="#hd"/>
<path d="M292.74 162.00v20.20" class="stroke"/>
<use x="319.84" y="162.00" xlink:href="#hd"/>
<path d="M316.34 162.00v20.20" class="stroke"/>
<use x="343.54" y="162.00" xlink:href="#hd"/>
<path d="M340.04 162.00v20.20" class="stroke"/>
<use x="375.44" y="168.00" xlink:href="#hd"/>
<path d="M371.94 168.00v25.00" class="stroke"/>
<use x="375.44" y="174.00" xlink:href="#hd"/>
<use x="442.74" y="171.00" xlink:href="#r8"/>
<path class="fill"
	d="M482.94 153.00l48.50 0.00v3.20l-48.50 -0.00"/>
<use x="479.74" y="174.00" xlink:href="#hd"/>
<path d="M483.24 174.00v-20.00" class="stroke"/>
<use x="503.74" y="174.00" xlink:href="#hd"/>
<path d="M507.24 174.00v-20.00" class="stroke"/>
<use x="527.64" y="174.00" xlink:href="#hd"/>
<path d="M531.14 174.00v-20.00" class="stroke"/>
<path class="fill"
	d="M562.74 149.50l69.10 -4.70v3.20l-69.10 4.70"/>
<use x="559.54" y="177.00" xlink:href="#hd"/>
<path d="M563.04 177.00v-26.60" class="stroke"/>
<use x="559.54" y="171.00" xlink:href="#hd"/>
<use x="594.34" y="177.00" xlink:href="#hd"/>
<path d="M597.84 177.00v-28.90" class="stroke"/>
<use x="594.34" y="171.00" xlink:href="#hd"/>
<use x="627.94" y="177.00" xlink:href="#hd"/>
<path d="M631.44 177.00v-31.20" class="stroke"/>
<use x="627.94" y="162.00" xlink:href="#hd"/>
<path class="fill"
	d="M663.04 147.70l67.90 8.30v3.20l-67.90 -8.30"/>
<use x="659.94" y="174.00" xlink:href="#hd"/>
<path d="M663.44 174.00v-25.30" class="stroke"/>
<use x="693.54" y="171.00" xlink:href="#hd"/>
<path d="M697.04 171.00v-18.20" class="stroke"/>
<use x="727.14" y="189.00" xlink:href="#hl"/>
<use x="727.14" y="192.00" xlink:href="#hd"/>
<path d="M730.64 192.00v-35.10" class="stroke"/>
<path class="fill"
	d="M767.84 202.20l76.00 0.00v-3.20l-76.00 -0.00"/>
<path class="fill"
	d="M791.94 197.20l51.60 0.00v-3.20l-51.60 -0.00"/>
<use x="771.74" y="183.00" xlink:href="#hd"/>
<path d="M768.24 183.00v18.20" class="stroke"/>
<use x="795.44" y="162.00" xlink:href="#hd"/>
<path d="M791.94 162.00v39.20" class="stroke"/>
<use x="813.44" y="165.00" xlink:href="#hd"/>
<defs>
<path id="unat" class="fill" d="
	m96 -750
	h-32
	v716
	l32 -8
	182 -54
	v282
	h32
	v-706
	l-34 10
	-180 50
	v-290
	m0 592
	v-190
	l182 -52
	v188"/>
<use id="nt0" transform="translate(-3,5) scale(0.018)"
	xlink:href="#unat"/>
</defs>
<use x="804.44" y="165.00" xlink:href="#nt0"/>
<path d="M809.94 165.00v36.20" class="stroke"/>
<use x="830.24" y="168.00" xlink:href="#hd"/>
<path d="M826.74 168.00v33.20" class="stroke"/>
<use x="847.04" y="171.00" xlink:href="#hd"/>
<path d="M843.54 171.00v30.20" class="stroke"/>
</g>
<g stroke-width="0.70" transform="scale(0.867)" font-family="Times" font-size="13.00">
<path class="stroke" stroke-width="1"
	d="M11.54 324.00v-90.00"/>
<path class="fill"
	d="M6.54 231.00
	c10.5 1 12 -4.5 12 -3.5c0 1 -3.5 5.5 -8.5 5.5
	v92.00
	c5 0 8.5 4.5 8.5 5.5c0 1 -1.5 -4.5 -12 -3.5"/>
<use x="147.34" y="258.00" xlink:href="#rdots"/>
<path class="stroke" stroke-width="1"
	d="M143.34 258.00v-24.00"/>
<path class="stroke" stroke-width="3"
	d="M138.84 258.00v-24.00"/>
<use x="147.34" y="324.00" xlink:href="#rdots"/>
<path class="stroke" stroke-width="1"
	d="M143.34 324.00v-66.00"/>
<path class="stroke" stroke-width="3"
	d="M138.84 324.00v-66.00"/>
<path class="stroke" stroke-width="1"
	d="M240.34 258.00v-24.00"/>
<path class="stroke" stroke-width="1"
	d="M240.34 324.00v-66.00"/>
<path class="stroke" stroke-width="1"
	d="M324.14 258.00v-24.00"/>
<path class="stroke" stroke-width="1"
	d="M324.14 324.00v-66.00"/>
<path class="stroke" stroke-width="1"
	d="M398.54 258.00v-24.00"/>
<path class="stroke" stroke-width="1"
	d="M398.54 324.00v-66.00"/>
<path class="stroke" stroke-width="1"
	d="M482.34 258.00v-24.00"/>
<path class="stroke" stroke-width="1"
	d="M482.34 324.00v-66.00"/>
<path class="stroke" stroke-width="1"
	d="M586.24 258.00v-24.00"/>
<path class="stroke" stroke-width="1"
	d="M586.24 324.00v-66.00"/>
<path class="stroke" stroke-width="1"
	d="M680.74 258.00v-24.00"/>
<path class="stroke" stroke-width="1"
	d="M680.74 324.00v-66.00"/>
<path class="stroke" stroke-width="1"
	d="M784.64 258.00v-24.00"/>
<path class="stroke" stroke-width="1"
	d="M784.64 324.00v-66.00"/>
<path class="stroke" stroke-width="3"
	d="M860.54 258.00v-24.00"/>
<path class="stroke" stroke-width="1"
	d="M856.04 258.00v-24.00"/>
<use x="852.04" y="258.00" xlink:href="#rdots"/>
<path class="stroke" stroke-width="3"
	d="M860.54 324.00v-66.00"/>
<path class="stroke" stroke-width="1"
	d="M856.04 324.00v-66.00"/>
<use x="852.04" y="324.00" xlink:href="#rdots"/>
<path d="m11.54 258.00
	h850.50
	M11.54 252.00
	h850.50
	M11.54 246.00
	h850.50
	M11.54 240.00
	h850.50
	M11.54 234.00
	h850.50
	" class="stroke"/>
<path d="m11.54 324.00
	h850.50
	M11.54 318.00
	h850.50
	M11.54 312.00
	h850.50
	M11.54 306.00
	h850.50
	M11.54 300.00
	h850.50
	" class="stroke"/>
<path class="fill"
	d="M336.74 229.00c6.34 -5.81 33.98 -13.08 40.32 -10.60
	v-0.24c-7.55 -4.24 -32.77 3.03 -40.32 10.84"/>
<text x="47.54" y="219.40">2</text>
<path class="stroke"
	d="M43.54 208.00m0 20v-20h92.80v20"/>
<use x="23.54" y="252.00" xlink:href="#tclef"/>
<use x="56.14" y="231.00" xlink:href="#hd"/>
<path d="M52.64 231.00v40.00" class="stroke"/>
<use x="56.14" y="252.00" xlink:href="#hd"/>
<use x="56.14" y="246.00" xlink:href="#hd"/>
<use x="56.14" y="240.00" xlink:href="#hd"/>
<use x="112.04" y="246.00" xlink:href="#r8"/>
<path class="fill"
	d="M162.94 262.40l32.20 5.90v-3.20l-32.20 -5.90"/>
<path class="fill"
	d="M163.34 257.50l15.80 2.90v-3.20l-15.80 -2.90"/>
<use x="166.84" y="234.00" xlink:href="#hd"/>
<use x="157.84" y="234.00" xlink:href="#sh0"/>
<path d="M163.34 234.00v27.50" class="stroke"/>
<use x="182.54" y="240.00" xlink:href="#hd"/>
<path d="M179.04 240.00v24.30" class="stroke"/>
<use x="198.34" y="249.00" xlink:href="#hd"/>
<path d="M194.84 249.00v18.20" class="stroke"/>
<use x="222.94" y="234.00" xlink:href="#hd"/>
<path d="M219.44 234.00v21.00" class="stroke"/>
<path class="fill"
	d="M219.44 255.00c0.6 -5.6 9.6 -9 5.6 -18.4
	1.6 6 -1.3 11.6 -5.6 12.8
"/>
<path class="fill"
	d="M249.04 262.50l54.40 8.70v-3.20l-54.40 -8.70"/>
<path class="fill"
	d="M271.54 261.10l15.80 2.50v-3.20l-15.80 -2.50"/>
<use x="252.94" y="231.00" xlink:href="#hd"/>
<path d="M249.44 231.00v30.60" class="stroke"/>
<use x="275.04" y="240.00" xlink:href="#hd"/>
<path d="M271.54 240.00v25.10" class="stroke"/>
<use x="290.84" y="246.00" xlink:href="#hd"/>
<path d="M287.34 246.00v21.70" class="stroke"/>
<use x="306.64" y="252.00" xlink:href="#hd"/>
<path d="M303.14 252.00v18.20" class="stroke"/>
<path class="fill"
	d="M332.94 256.30l45.00 -7.90v-3.20l-45.00 7.90"/>
<use x="336.74" y="237.00" xlink:href="#hd"/>
<path d="M333.24 237.00v18.20" class="stroke"/>
<use x="358.94" y="231.00" xlink:href="#hd"/>
<path d="M355.44 231.00v20.30" class="stroke"/>
<use x="381.14" y="228.00" xlink:href="#hl"/>
<use x="381.14" y="222.00" xlink:href="#hl"/>
<use x="381.14" y="222.00" xlink:href="#hd"/>
<path d="M377.64 222.00v25.40" class="stroke"/>
<path class="fill"
	d="M407.24 273.70l54.40 -4.30v-3.20l-54.40 4.30"/>
<path class="fill"
	d="M407.64 268.70l15.80 -1.30v-3.20l-15.80 1.30"/>
<use x="411.14" y="240.00" xlink:href="#hd"/>
<path d="M407.64 240.00v32.70" class="stroke"/>
<use x="426.84" y="246.00" xlink:href="#hd"/>
<path d="M423.34 246.00v25.50" class="stroke"/>
<use x="442.64" y="252.00" xlink:href="#hd"/>
<path d="M439.14 252.00v18.20" class="stroke"/>
<use x="464.74" y="231.00" xlink:href="#hd"/>
<path d="M461.24 231.00v37.40" class="stroke"/>
<path class="fill"
	d="M491.14 253.60l63.70 8.80v-3.20l-63.70 -8.80"/>
<use x="494.94" y="231.00" xlink:href="#hd"/>
<path d="M491.44 231.00v21.70" class="stroke"/>
<use x="526.44" y="237.00" xlink:href="#hd"/>
<path d="M522.94 237.00v20.00" class="stroke"/>
<use x="558.04" y="243.00" xlink:href="#hd"/>
<path d="M554.54 243.00v18.30" class="stroke"/>
<path class="fill"
	d="M595.04 256.20l70.10 9.10v-3.20l-70.10 -9.10"/>
<path class="fill"
	d="M617.54 254.10l47.30 6.10v-3.20l-47.30 -6.10"/>
<use x="598.84" y="231.00" xlink:href="#hd"/>
<path d="M595.34 231.00v24.20" class="stroke"/>
<use x="621.04" y="234.00" xlink:href="#hd"/>
<path d="M617.54 234.00v24.10" class="stroke"/>
<use x="636.74" y="237.00" xlink:href="#hd"/>
<path d="M633.24 237.00v23.10" class="stroke"/>
<use x="652.54" y="240.00" xlink:href="#hd"/>
<path d="M649.04 240.00v22.20" class="stroke"/>
<use x="668.24" y="243.00" xlink:href="#hd"/>
<path d="M664.74 243.00v21.20" class="stroke"/>
<path class="fill"
	d="M689.54 266.00l79.50 0.00v-3.20l-79.50 -0.00"/>
<path class="fill"
	d="M689.84 261.00l78.80 0.00v-3.20l-78.80 -0.00"/>
<use x="693.34" y="234.00" xlink:href="#hd"/>
<path d="M689.84 234.00v30.90" class="stroke"/>
<use x="709.14" y="237.00" xlink:href="#hd"/>
<path d="M705.64 237.00v27.90" class="stroke"/>
<use x="724.84" y="240.00" xlink:href="#hd"/>
<path d="M721.34 240.00v24.90" class="stroke"/>
<use x="740.64" y="243.00" xlink:href="#hd"/>
<path d="M737.14 243.00v21.90" class="stroke"/>
<use x="756.34" y="246.00" xlink:href="#hd"/>
<path d="M752.84 246.00v18.90" class="stroke"/>
<use x="772.14" y="240.00" xlink:href="#hd"/>
<path d="M768.64 240.00v24.90" class="stroke"/>
<use x="797.24" y="243.00" xlink:href="#hd"/>
<path d="M793.74 243.00v21.00" class="stroke"/>
<use x="841.54" y="246.00" xlink:href="#r8"/>
<use x="23.54" y="306.00" xlink:href="#bclef"/>
<path class="fill"
	d="M52.24 343.20l72.40 -5.20v-3.20l-72.40 5.20"/>
<path class="fill"
	d="M74.74 336.60l49.50 -3.50v-3.20l-49.50 3.50"/>
<use x="56.14" y="324.00" xlink:href="#hd"/>
<path d="M52.64 324.00v18.20" class="stroke"/>
<use x="78.24" y="297.00" xlink:href="#hd"/>
<path d="M74.74 297.00v43.60" class="stroke"/>
<use x="94.04" y="303.00" xlink:href="#hd"/>
<path d="M90.54 303.00v36.50" class="stroke"/>
<use x="112.04" y="306.00" xlink:href="#hd"/>
<use x="103.04" y="306.00" xlink:href="#sh0"/>
<path d="M108.54 306.00v32.20" class="stroke"/>
<use x="127.84" y="309.00" xlink:href="#hd"/>
<path d="M124.34 309.00v28.10" class="stroke"/>
<use x="166.84" y="300.00" xlink:href="#hd"/>
<path d="M163.34 300.00v34.00" class="stroke"/>
<use x="166.84" y="315.00" xlink:href="#hd"/>
<use x="222.94" y="300.00" xlink:href="#hd"/>
<path d="M219.44 300.00v34.00" class="stroke"/>
<path class="fill"
	d="M219.44 334.00c0.6 -5.6 9.6 -9 5.6 -18.4
	1.6 6 -1.3 11.6 -5.6 12.8
"/>
<use x="222.94" y="315.00" xlink:href="#hd"/>
<use x="252.94" y="318.00" xlink:href="#hd"/>
<path d="M256.44 318.00v-25.00" class="stroke"/>
<use x="252.94" y="312.00" xlink:href="#hd"/>
<use x="306.64" y="318.00" xlink:href="#hd"/>
<path d="M310.14 318.00v-25.00" class="stroke"/>
<path class="fill"
	d="M310.14 293.00c0.6 5.6 9.6 9 5.6 18.4
	1.6 -6 -1.3 -11.6 -5.6 -12.8
"/>
<use x="306.64" y="312.00" xlink:href="#hd"/>
<use x="336.74" y="303.00" xlink:href="#hd"/>
<path d="M333.24 303.00v31.00" class="stroke"/>
<use x="336.74" y="315.00" xlink:href="#hd"/>
<use x="381.14" y="309.00" xlink:href="#hd"/>
<path d="M377.64 309.00v25.00" class="stroke"/>
<path class="fill"
	d="M377.64 334.00c0.6 -5.6 9.6 -9 5.6 -18.4
	1.6 6 -1.3 11.6 -5.6 12.8
"/>
<use x="381.14" y="315.00" xlink:href="#hd"/>
<use x="411.14" y="303.00" xlink:href="#hd"/>
<path d="M414.64 303.00v-21.00" class="stroke"/>
<use x="464.74" y="318.00" xlink:href="#hd"/>
<path d="M468.24 318.00v-25.00" class="stroke"/>
<path class="fill"
	d="M468.24 293.00c0.6 5.6 9.6 9 5.6 18.4
	1.6 -6 -1.3 -11.6 -5.6 -12.8
"/>
<use x="464.74" y="312.00" xlink:href="#hd"/>
<path class="fill"
	d="M491.14 331.90l79.50 0.00v-3.20l-79.50 -0.00"/>
<path class="fill"
	d="M491.44 326.90l78.80 0.00v-3.20l-78.80 -0.00"/>
<use x="494.94" y="309.00" xlink:href="#hd"/>
<path d="M491.44 309.00v21.90" class="stroke"/>
<use x="494.94" y="315.00" xlink:href="#hd"/>
<use x="510.74" y="303.00" xlink:href="#hd"/>
<path d="M507.24 303.00v27.90" class="stroke"/>
<use x="526.44" y="309.00" xlink:href="#hd"/>
<path d="M522.94 309.00v21.90" class="stroke"/>
<use x="526.44" y="315.00" xlink:href="#hd"/>
<use x="542.24" y="303.00" xlink:href="#hd"/>
<path d="M538.74 303.00v27.90" class="stroke"/>
<use x="558.04" y="309.00" xlink:href="#hd"/>
<path d="M554.54 309.00v21.90" class="stroke"/>
<use x="558.04" y="315.00" xlink:href="#hd"/>
<use x="573.74" y="303.00" xlink:href="#hd"/>
<path d="M570.24 303.00v27.90" class="stroke"/>
<use x="598.84" y="309.00" xlink:href="#hd"/>
<path d="M595.34 309.00v25.00" class="stroke"/>
<use x="598.84" y="315.00" xlink:href="#hd"/>
<use x="652.54" y="303.00" xlink:href="#hd"/>
<path d="M649.04 303.00v25.00" class="stroke"/>
<path class="fill"
	d="M649.04 328.00c0.6 -5.6 9.6 -9 5.6 -18.4
	1.6 6 -1.3 11.6 -5.6 12.8
"/>
<use x="652.54" y="309.00" xlink:href="#hd"/>
<use x="693.34" y="306.00" xlink:href="#hd"/>
<path d="M689.84 306.00v21.00" class="stroke"/>
<use x="756.34" y="303.00" xlink:href="#hd"/>
<path d="M752.84 303.00v21.00" class="stroke"/>
<path class="fill"
	d="M752.84 324.00c0.6 -5.6 9.6 -9 5.6 -18.4
	1.6 6 -1.3 11.6 -5.6 12.8
"/>
<path class="fill"
	d="M800.34 295.70l45.00 10.10v3.20l-45.00 -10.10"/>
<use x="797.24" y="315.00" xlink:href="#hd"/>
<path d="M800.74 315.00v-18.20" class="stroke"/>
<use x="819.34" y="324.00" xlink:href="#hd"/>
<path d="M822.84 324.00v-22.20" class="stroke"/>
<use x="841.54" y="330.00" xlink:href="#hl"/>
<use x="841.54" y="336.00" xlink:href="#hl"/>
<use x="841.54" y="336.00" xlink:href="#hd"/>
<path d="M845.04 336.00v-29.30" class="stroke"/>
<use x="411.14" y="318.00" xlink:href="#hd"/>
<path d="M407.64 318.00v21.00" class="stroke"/>
</g>
</svg>
