<?xml version="1.0" standalone="no"?>
<!DOCTYPE svg PUBLIC "-//W3C//DTD SVG 1.1//EN"
	"http://www.w3.org/Graphics/SVG/1.1/DTD/svg11.dtd">
<svg xmlns="http://www.w3.org/2000/svg" version="1.1"
	xmlns:xlink="http://www.w3.org/1999/xlink"
	color="black"
	width="757.10px" height="297.27px">
<style type="text/css">
.fill {fill: currentColor}
.stroke {stroke: currentColor; fill: none}
text{white-space: pre}
</style>
<title>./K516f-12-5-3-5-10-8-5-2-4-8-6-4-5-4-9-8.abc (2488) tune 1</title>
<!-- Creator: abcm2ps-8.13.8 -->
<!-- CreationDate: Sep  7, 2017 11:19 -->
<!-- CommandLine: ./K516f-12-5-3-5-10-8-5-2-4-8-6-4-5-4-9-8.abc -O ./K516f-12-5-3-5-10-8-5-2-4-8-6-4-5-4-9-8.svg -g -->
<rect width="100%" height="100%" fill="white"/>
<g stroke-width="0.70" transform="scale(0.867)">
<!-- title: 12-5-3-5-10-8-5-2-4-8-6-4-5-4-9-8 -->
</g>
<g stroke-width="0.70" transform="scale(0.867)" font-family="Times" font-size="20.00">
<text x="436.84" y="22.00" text-anchor="middle">12-5-3-5-10-8-5-2-4-8-6-4-5-4-9-8</text>
</g>
<g stroke-width="0.70" transform="scale(0.867)" font-family="Times" font-size="20.00">
<!-- subtitle: $1K.516f::54:17:128:85:75:133:159:30:66:155:64:132:67:58:72:172::$0 -->
</g>
<g stroke-width="0.70" transform="scale(0.867)" font-family="Courier" font-size="8.00" font-weight="bold">
<text x="436.84" y="41.80" text-anchor="middle">K.516f::54:17:128:85:75:133:159:30:66:155:64:132:67:58:72:172::</text>
</g>
<g stroke-width="0.70" transform="scale(0.867)" font-family="Courier" font-size="8.00" font-weight="bold">
<!-- subtitle: $1Perm. No.: 248854414942661$0 -->
<text x="436.84" y="60.80" text-anchor="middle">Perm. No.: 248854414942661</text>
</g>
<g stroke-width="0.70" transform="scale(0.607)" font-family="Courier" font-size="8.00" font-weight="bold">
<defs>
<ellipse id="hd" rx="4.1" ry="2.9"
	transform="rotate(-20)" class="fill"/>
</defs>
<use x="103.06" y="121.29" xlink:href="#hd"/>
<path d="M106.56 121.29v-21.00" class="stroke"/>
<path class="fill"
	d="M106.56 100.29c0.6 5.6 9.6 9 5.6 18.4
	1.6 -6 -1.3 -11.6 -5.6 -12.8
"/>
</g>
<g stroke-width="0.70" transform="scale(0.867)" font-family="Times" font-size="15.00" font-weight="bold">
<text x="81.24" y="87.00">= 111</text>
<path class="stroke" stroke-width="1"
	d="M11.54 187.00v-82.00"/>
<path class="fill"
	d="M6.54 102.00
	c10.5 1 12 -4.5 12 -3.5c0 1 -3.5 5.5 -8.5 5.5
	v84.00
	c5 0 8.5 4.5 8.5 5.5c0 1 -1.5 -4.5 -12 -3.5"/>
<defs>
<g id="rdots" class="fill">
	<circle cx="0" cy="-9" r="1.2"/>
	<circle cx="0" cy="-15" r="1.2"/>
</g>
</defs>
<use x="70.54" y="129.00" xlink:href="#rdots"/>
<path class="stroke" stroke-width="1"
	d="M66.54 129.00v-24.00"/>
<path class="stroke" stroke-width="3"
	d="M62.04 129.00v-24.00"/>
<use x="70.54" y="187.00" xlink:href="#rdots"/>
<path class="stroke" stroke-width="1"
	d="M66.54 187.00v-58.00"/>
<path class="stroke" stroke-width="3"
	d="M62.04 187.00v-58.00"/>
<path class="stroke" stroke-width="1"
	d="M155.64 129.00v-24.00"/>
<path class="stroke" stroke-width="1"
	d="M155.64 187.00v-58.00"/>
<path class="stroke" stroke-width="1"
	d="M272.74 129.00v-24.00"/>
<path class="stroke" stroke-width="1"
	d="M272.74 187.00v-58.00"/>
<path class="stroke" stroke-width="1"
	d="M356.84 129.00v-24.00"/>
<path class="stroke" stroke-width="1"
	d="M356.84 187.00v-58.00"/>
<path class="stroke" stroke-width="1"
	d="M440.94 129.00v-24.00"/>
<path class="stroke" stroke-width="1"
	d="M440.94 187.00v-58.00"/>
<path class="stroke" stroke-width="1"
	d="M529.54 129.00v-24.00"/>
<path class="stroke" stroke-width="1"
	d="M529.54 187.00v-58.00"/>
<path class="stroke" stroke-width="1"
	d="M636.14 129.00v-24.00"/>
<path class="stroke" stroke-width="1"
	d="M636.14 187.00v-58.00"/>
<path class="stroke" stroke-width="1"
	d="M753.24 129.00v-24.00"/>
<path class="stroke" stroke-width="1"
	d="M753.24 187.00v-58.00"/>
<path class="stroke" stroke-width="3"
	d="M860.54 129.00v-24.00"/>
<path class="stroke" stroke-width="1"
	d="M856.04 129.00v-24.00"/>
<use x="852.04" y="129.00" xlink:href="#rdots"/>
<path class="stroke" stroke-width="3"
	d="M860.54 187.00v-58.00"/>
<path class="stroke" stroke-width="1"
	d="M856.04 187.00v-58.00"/>
<use x="852.04" y="187.00" xlink:href="#rdots"/>
<path d="m11.54 129.00
	h850.50
	M11.54 123.00
	h850.50
	M11.54 117.00
	h850.50
	M11.54 111.00
	h850.50
	M11.54 105.00
	h850.50
	" class="stroke"/>
<path d="m11.54 187.00
	h850.50
	M11.54 181.00
	h850.50
	M11.54 175.00
	h850.50
	M11.54 169.00
	h850.50
	M11.54 163.00
	h850.50
	" class="stroke"/>
</g>
<g stroke-width="0.70" transform="scale(0.867)" font-family="Times" font-size="13.00">
<text x="757.24" y="90.40">1</text>
<path class="stroke"
	d="M753.24 79.00m0 20v-20h100.80v20"/>
<defs>
<path id="utclef" class="fill" d="m-50 -90
	c-72 -41 -72 -158 52 -188
	150 -10 220 188 90 256
	-114 52 -275 0 -293 -136
	-15 -181 93 -229 220 -334
	88 -87 79 -133 62 -210
	-51 33 -94 105 -89 186
	17 267 36 374 49 574
	6 96 -19 134 -77 135
	-80 1 -126 -93 -61 -133
	85 -41 133 101 31 105
	23 17 92 37 90 -92
	-10 -223 -39 -342 -50 -617
	0 -90 0 -162 96 -232
	56 72 63 230 22 289
	-74 106 -257 168 -255 316
	9 153 148 185 252 133
	86 -65 29 -192 -80 -176
	-71 12 -105 67 -59 124"/>
<use id="tclef" transform="translate(0,6) scale(0.045)"
	xlink:href="#utclef"/>
</defs>
<use x="23.54" y="123.00" xlink:href="#tclef"/>
<g font-family="serif" font-size="16" font-weight="bold" font-style="normal"
	transform="translate(42.04,128.50) scale(1.2,1)">
	<text text-anchor="middle">8</text>
	<text y="-12" text-anchor="middle">3</text>
</g>
<path class="fill"
	d="M88.74 95.00l51.10 0.00v3.20l-51.10 -0.00"/>
<use x="85.54" y="129.00" xlink:href="#hd"/>
<path d="M89.04 129.00v-33.00" class="stroke"/>
<use x="85.54" y="114.00" xlink:href="#hd"/>
<use x="110.84" y="129.00" xlink:href="#hd"/>
<path d="M114.34 129.00v-33.00" class="stroke"/>
<use x="110.84" y="114.00" xlink:href="#hd"/>
<use x="136.04" y="129.00" xlink:href="#hd"/>
<path d="M139.54 129.00v-33.00" class="stroke"/>
<use x="136.04" y="114.00" xlink:href="#hd"/>
<path class="fill"
	d="M165.84 145.20l89.80 0.00v-3.20l-89.80 -0.00"/>
<path class="fill"
	d="M166.14 140.20l89.20 0.00v-3.20l-89.20 -0.00"/>
<use x="169.64" y="114.00" xlink:href="#hd"/>
<path d="M166.14 114.00v30.20" class="stroke"/>
<use x="187.54" y="123.00" xlink:href="#hd"/>
<path d="M184.04 123.00v21.20" class="stroke"/>
<use x="205.34" y="114.00" xlink:href="#hd"/>
<path d="M201.84 114.00v30.20" class="stroke"/>
<use x="223.14" y="108.00" xlink:href="#hd"/>
<path d="M219.64 108.00v36.20" class="stroke"/>
<use x="241.04" y="123.00" xlink:href="#hd"/>
<path d="M237.54 123.00v21.20" class="stroke"/>
<use x="258.84" y="114.00" xlink:href="#hd"/>
<path d="M255.34 114.00v30.20" class="stroke"/>
<path class="fill"
	d="M282.94 136.20l51.10 -6.70v-3.20l-51.10 6.70"/>
<use x="286.74" y="117.00" xlink:href="#hd"/>
<path d="M283.24 117.00v18.20" class="stroke"/>
<use x="311.94" y="111.00" xlink:href="#hd"/>
<path d="M308.44 111.00v20.90" class="stroke"/>
<use x="337.24" y="102.00" xlink:href="#hd"/>
<path d="M333.74 102.00v26.60" class="stroke"/>
<path class="fill"
	d="M367.04 137.70l51.10 4.50v-3.20l-51.10 -4.50"/>
<use x="370.84" y="114.00" xlink:href="#hd"/>
<path d="M367.34 114.00v22.80" class="stroke"/>
<use x="396.14" y="108.00" xlink:href="#hd"/>
<path d="M392.64 108.00v31.00" class="stroke"/>
<use x="421.34" y="123.00" xlink:href="#hd"/>
<path d="M417.84 123.00v18.20" class="stroke"/>
<path class="fill"
	d="M455.64 129.20l51.10 0.00v-3.20l-51.10 -0.00"/>
<use x="459.44" y="105.00" xlink:href="#hd"/>
<defs>
<path id="usharp" class="fill" d="
	m136 -702
	v890
	h32
	v-890
	m128 840
	h32
	v-888
	h-32
	m-232 286
	v116
	l338 -96
	v-116
	m-338 442
	v116
	l338 -98
	v-114"/>
<use id="sh0" transform="translate(-4,5) scale(0.018)"
	xlink:href="#usharp"/>
</defs>
<use x="450.44" y="105.00" xlink:href="#sh0"/>
<path d="M455.94 105.00v23.20" class="stroke"/>
<use x="459.44" y="111.00" xlink:href="#hd"/>
<use x="484.64" y="105.00" xlink:href="#hd"/>
<path d="M481.14 105.00v23.20" class="stroke"/>
<use x="484.64" y="111.00" xlink:href="#hd"/>
<use x="509.94" y="105.00" xlink:href="#hd"/>
<path d="M506.44 105.00v23.20" class="stroke"/>
<use x="509.94" y="111.00" xlink:href="#hd"/>
<path class="fill"
	d="M539.74 139.20l79.40 0.00v-3.20l-79.40 -0.00"/>
<path class="fill"
	d="M565.34 134.20l53.50 0.00v-3.20l-53.50 -0.00"/>
<use x="543.54" y="111.00" xlink:href="#hd"/>
<path d="M540.04 111.00v27.20" class="stroke"/>
<use x="568.84" y="102.00" xlink:href="#hd"/>
<path d="M565.34 102.00v36.20" class="stroke"/>
<use x="586.64" y="111.00" xlink:href="#hd"/>
<path d="M583.14 111.00v27.20" class="stroke"/>
<use x="604.44" y="117.00" xlink:href="#hd"/>
<path d="M600.94 117.00v21.20" class="stroke"/>
<use x="622.34" y="111.00" xlink:href="#hd"/>
<path d="M618.84 111.00v27.20" class="stroke"/>
<path class="fill"
	d="M646.34 134.50l89.80 7.70v-3.20l-89.80 -7.70"/>
<path class="fill"
	d="M646.74 129.50l89.20 7.70v-3.20l-89.20 -7.70"/>
<use x="650.24" y="108.00" xlink:href="#hd"/>
<path d="M646.74 108.00v25.50" class="stroke"/>
<use x="668.04" y="102.00" xlink:href="#hd"/>
<path d="M664.54 102.00v33.10" class="stroke"/>
<use x="685.84" y="111.00" xlink:href="#hd"/>
<path d="M682.34 111.00v25.60" class="stroke"/>
<use x="703.74" y="114.00" xlink:href="#hd"/>
<path d="M700.24 114.00v24.10" class="stroke"/>
<use x="721.54" y="117.00" xlink:href="#hd"/>
<path d="M718.04 117.00v22.70" class="stroke"/>
<use x="739.34" y="120.00" xlink:href="#hd"/>
<path d="M735.84 120.00v21.20" class="stroke"/>
<use x="767.24" y="102.00" xlink:href="#hd"/>
<path d="M763.74 102.00v40.00" class="stroke"/>
<use x="767.24" y="123.00" xlink:href="#hd"/>
<use x="767.24" y="117.00" xlink:href="#hd"/>
<use x="767.24" y="111.00" xlink:href="#hd"/>
<defs>
<path id="r8e" class="fill" d="m 0 0
	c-1.5 1.5 -2.4 2 -3.6 2
	2.4 -2.8 -2.8 -4 -2.8 -1.2
	c0 2.7 4.3 2.4 5.9 0.6"/>
<g id="r8">
	<path d="m3.3 -4l-3.4 9.6" class="stroke"/>
	<use x="3.4" y="-4" xlink:href="#r8e"/>
</g>
</defs>
<use x="828.34" y="117.00" xlink:href="#r8"/>
<defs>
<path id="ubclef" class="fill" d="m-200 -87
	c124 -35 222 -78 254 -236
	43 -228 -167 -246 -192 -103
	59 -80 157 22 92 78
	-62 47 -115 -22 -106 -88
	21 -141 270 -136 274 52
	-1 175 -106 264 -322 297
	m357 -250
	c0 -36 51 -34 51 0
	0 37 -51 36 -51 0
	m-2 -129
	c0 -36 51 -34 51 0
	0 38 -51 37 -51 0"/>
<use id="bclef" transform="translate(0,18) scale(0.045)"
	xlink:href="#ubclef"/>
</defs>
<use x="23.54" y="169.00" xlink:href="#bclef"/>
<g font-family="serif" font-size="16" font-weight="bold" font-style="normal"
	transform="translate(42.04,186.50) scale(1.2,1)">
	<text text-anchor="middle">8</text>
	<text y="-12" text-anchor="middle">3</text>
</g>
<path class="fill"
	d="M88.74 157.00l51.10 0.00v3.20l-51.10 -0.00"/>
<use x="85.54" y="178.00" xlink:href="#hd"/>
<path d="M89.04 178.00v-20.00" class="stroke"/>
<use x="110.84" y="178.00" xlink:href="#hd"/>
<path d="M114.34 178.00v-20.00" class="stroke"/>
<use x="136.04" y="178.00" xlink:href="#hd"/>
<path d="M139.54 178.00v-20.00" class="stroke"/>
<use x="169.64" y="166.00" xlink:href="#hd"/>
<path d="M166.14 166.00v25.00" class="stroke"/>
<use x="169.64" y="172.00" xlink:href="#hd"/>
<use x="241.04" y="175.00" xlink:href="#r8"/>
<use x="286.74" y="187.00" xlink:href="#hd"/>
<path d="M290.24 187.00v-21.00" class="stroke"/>
<use x="337.24" y="175.00" xlink:href="#r8"/>
<use x="370.84" y="166.00" xlink:href="#hd"/>
<path d="M367.34 166.00v25.00" class="stroke"/>
<use x="370.84" y="172.00" xlink:href="#hd"/>
<use x="421.34" y="175.00" xlink:href="#r8"/>
<path class="fill"
	d="M462.64 157.00l51.10 0.00v3.20l-51.10 -0.00"/>
<use x="459.44" y="178.00" xlink:href="#hd"/>
<path d="M462.94 178.00v-20.00" class="stroke"/>
<use x="484.64" y="178.00" xlink:href="#hd"/>
<path d="M488.14 178.00v-20.00" class="stroke"/>
<use x="509.94" y="178.00" xlink:href="#hd"/>
<path d="M513.44 178.00v-20.00" class="stroke"/>
<use x="543.54" y="166.00" xlink:href="#hd"/>
<path d="M540.04 166.00v34.00" class="stroke"/>
<use x="543.54" y="181.00" xlink:href="#hd"/>
<use x="604.44" y="175.00" xlink:href="#r8"/>
<path class="fill"
	d="M653.34 151.60l72.00 8.40v3.20l-72.00 -8.40"/>
<use x="650.24" y="178.00" xlink:href="#hd"/>
<path d="M653.74 178.00v-25.30" class="stroke"/>
<use x="685.84" y="175.00" xlink:href="#hd"/>
<path d="M689.34 175.00v-18.20" class="stroke"/>
<defs>
<path id="hl" class="stroke" d="m-6 0h12"/>
</defs>
<use x="721.54" y="193.00" xlink:href="#hl"/>
<use x="721.54" y="196.00" xlink:href="#hd"/>
<path d="M725.04 196.00v-35.10" class="stroke"/>
<path class="fill"
	d="M763.44 206.20l79.60 0.00v-3.20l-79.60 -0.00"/>
<path class="fill"
	d="M789.04 201.20l53.70 0.00v-3.20l-53.70 -0.00"/>
<use x="767.24" y="187.00" xlink:href="#hd"/>
<path d="M763.74 187.00v18.20" class="stroke"/>
<use x="792.54" y="166.00" xlink:href="#hd"/>
<path d="M789.04 166.00v39.20" class="stroke"/>
<use x="810.54" y="169.00" xlink:href="#hd"/>
<defs>
<path id="unat" class="fill" d="
	m96 -750
	h-32
	v716
	l32 -8
	182 -54
	v282
	h32
	v-706
	l-34 10
	-180 50
	v-290
	m0 592
	v-190
	l182 -52
	v188"/>
<use id="nt0" transform="translate(-3,5) scale(0.018)"
	xlink:href="#unat"/>
</defs>
<use x="801.54" y="169.00" xlink:href="#nt0"/>
<path d="M807.04 169.00v36.20" class="stroke"/>
<use x="828.34" y="172.00" xlink:href="#hd"/>
<path d="M824.84 172.00v33.20" class="stroke"/>
<use x="846.14" y="175.00" xlink:href="#hd"/>
<path d="M842.64 175.00v30.20" class="stroke"/>
</g>
<g stroke-width="0.70" transform="scale(0.867)" font-family="Times" font-size="13.00">
<path class="stroke" stroke-width="1"
	d="M11.54 320.00v-82.00"/>
<path class="fill"
	d="M6.54 235.00
	c10.5 1 12 -4.5 12 -3.5c0 1 -3.5 5.5 -8.5 5.5
	v84.00
	c5 0 8.5 4.5 8.5 5.5c0 1 -1.5 -4.5 -12 -3.5"/>
<use x="142.24" y="262.00" xlink:href="#rdots"/>
<path class="stroke" stroke-width="1"
	d="M138.24 262.00v-24.00"/>
<path class="stroke" stroke-width="3"
	d="M133.74 262.00v-24.00"/>
<use x="142.24" y="320.00" xlink:href="#rdots"/>
<path class="stroke" stroke-width="1"
	d="M138.24 320.00v-58.00"/>
<path class="stroke" stroke-width="3"
	d="M133.74 320.00v-58.00"/>
<path class="stroke" stroke-width="1"
	d="M227.14 262.00v-24.00"/>
<path class="stroke" stroke-width="1"
	d="M227.14 320.00v-58.00"/>
<path class="stroke" stroke-width="1"
	d="M324.04 262.00v-24.00"/>
<path class="stroke" stroke-width="1"
	d="M324.04 320.00v-58.00"/>
<path class="stroke" stroke-width="1"
	d="M421.04 262.00v-24.00"/>
<path class="stroke" stroke-width="1"
	d="M421.04 320.00v-58.00"/>
<path class="stroke" stroke-width="1"
	d="M498.34 262.00v-24.00"/>
<path class="stroke" stroke-width="1"
	d="M498.34 320.00v-58.00"/>
<path class="stroke" stroke-width="1"
	d="M595.34 262.00v-24.00"/>
<path class="stroke" stroke-width="1"
	d="M595.34 320.00v-58.00"/>
<path class="stroke" stroke-width="1"
	d="M692.24 262.00v-24.00"/>
<path class="stroke" stroke-width="1"
	d="M692.24 320.00v-58.00"/>
<path class="stroke" stroke-width="1"
	d="M789.24 262.00v-24.00"/>
<path class="stroke" stroke-width="1"
	d="M789.24 320.00v-58.00"/>
<path class="stroke" stroke-width="3"
	d="M860.54 262.00v-24.00"/>
<path class="stroke" stroke-width="1"
	d="M856.04 262.00v-24.00"/>
<use x="852.04" y="262.00" xlink:href="#rdots"/>
<path class="stroke" stroke-width="3"
	d="M860.54 320.00v-58.00"/>
<path class="stroke" stroke-width="1"
	d="M856.04 320.00v-58.00"/>
<use x="852.04" y="320.00" xlink:href="#rdots"/>
<path d="m11.54 262.00
	h850.50
	M11.54 256.00
	h850.50
	M11.54 250.00
	h850.50
	M11.54 244.00
	h850.50
	M11.54 238.00
	h850.50
	" class="stroke"/>
<path d="m11.54 320.00
	h850.50
	M11.54 314.00
	h850.50
	M11.54 308.00
	h850.50
	M11.54 302.00
	h850.50
	M11.54 296.00
	h850.50
	" class="stroke"/>
<text x="47.54" y="223.40">2</text>
<path class="stroke"
	d="M43.54 212.00m0 20v-20h87.70v20"/>
<use x="23.54" y="256.00" xlink:href="#tclef"/>
<use x="56.04" y="235.00" xlink:href="#hd"/>
<path d="M52.54 235.00v40.00" class="stroke"/>
<use x="56.04" y="256.00" xlink:href="#hd"/>
<use x="56.04" y="250.00" xlink:href="#hd"/>
<use x="56.04" y="244.00" xlink:href="#hd"/>
<use x="108.34" y="250.00" xlink:href="#r8"/>
<path class="fill"
	d="M157.94 256.20l41.60 0.00v-3.20l-41.60 -0.00"/>
<use x="161.74" y="238.00" xlink:href="#hd"/>
<use x="152.74" y="238.00" xlink:href="#sh0"/>
<path d="M158.24 238.00v17.20" class="stroke"/>
<use x="182.74" y="232.00" xlink:href="#hl"/>
<use x="182.74" y="232.00" xlink:href="#hd"/>
<path d="M179.24 232.00v23.20" class="stroke"/>
<use x="202.64" y="238.00" xlink:href="#hd"/>
<path d="M199.14 238.00v17.20" class="stroke"/>
<path class="fill"
	d="M235.84 267.50l72.60 10.80v-3.20l-72.60 -10.80"/>
<path class="fill"
	d="M236.14 262.50l71.90 10.70v-3.20l-71.90 -10.70"/>
<use x="239.64" y="235.00" xlink:href="#hd"/>
<path d="M236.14 235.00v31.50" class="stroke"/>
<use x="254.04" y="232.00" xlink:href="#hl"/>
<use x="254.04" y="229.00" xlink:href="#hd"/>
<path d="M250.54 229.00v39.70" class="stroke"/>
<use x="268.44" y="235.00" xlink:href="#hd"/>
<path d="M264.94 235.00v35.80" class="stroke"/>
<use x="282.84" y="244.00" xlink:href="#hd"/>
<path d="M279.34 244.00v28.90" class="stroke"/>
<use x="297.24" y="250.00" xlink:href="#hd"/>
<path d="M293.74 250.00v25.10" class="stroke"/>
<use x="311.54" y="256.00" xlink:href="#hd"/>
<path d="M308.04 256.00v21.20" class="stroke"/>
<path class="fill"
	d="M332.74 270.00l72.60 0.00v-3.20l-72.60 -0.00"/>
<path class="fill"
	d="M333.04 265.00l71.90 0.00v-3.20l-71.90 -0.00"/>
<use x="336.54" y="241.00" xlink:href="#hd"/>
<path d="M333.04 241.00v27.90" class="stroke"/>
<use x="350.94" y="235.00" xlink:href="#hd"/>
<path d="M347.44 235.00v33.90" class="stroke"/>
<use x="365.34" y="232.00" xlink:href="#hl"/>
<use x="365.34" y="226.00" xlink:href="#hl"/>
<use x="365.34" y="226.00" xlink:href="#hd"/>
<path d="M361.84 226.00v42.90" class="stroke"/>
<use x="379.74" y="235.00" xlink:href="#hd"/>
<path d="M376.24 235.00v33.90" class="stroke"/>
<use x="394.14" y="241.00" xlink:href="#hd"/>
<path d="M390.64 241.00v27.90" class="stroke"/>
<use x="408.54" y="247.00" xlink:href="#hd"/>
<path d="M405.04 247.00v21.90" class="stroke"/>
<path class="fill"
	d="M436.64 223.30l49.40 6.10v3.20l-49.40 -6.10"/>
<path class="fill"
	d="M456.94 230.80l14.40 1.80v3.20l-14.40 -1.80"/>
<use x="433.54" y="247.00" xlink:href="#hd"/>
<path d="M437.04 247.00v-22.70" class="stroke"/>
<use x="433.54" y="241.00" xlink:href="#hd"/>
<use x="453.44" y="256.00" xlink:href="#hd"/>
<path d="M456.94 256.00v-29.20" class="stroke"/>
<use x="453.44" y="244.00" xlink:href="#hd"/>
<use x="467.84" y="256.00" xlink:href="#hd"/>
<path d="M471.34 256.00v-27.40" class="stroke"/>
<use x="467.84" y="250.00" xlink:href="#hd"/>
<use x="482.24" y="256.00" xlink:href="#hd"/>
<path d="M485.74 256.00v-25.60" class="stroke"/>
<path class="fill"
	d="M507.04 278.20l72.60 0.00v-3.20l-72.60 -0.00"/>
<path class="fill"
	d="M507.34 273.20l71.90 0.00v-3.20l-71.90 -0.00"/>
<use x="510.84" y="247.00" xlink:href="#hd"/>
<path d="M507.34 247.00v30.20" class="stroke"/>
<use x="525.24" y="250.00" xlink:href="#hd"/>
<path d="M521.74 250.00v27.20" class="stroke"/>
<use x="539.64" y="247.00" xlink:href="#hd"/>
<path d="M536.14 247.00v30.20" class="stroke"/>
<use x="554.04" y="241.00" xlink:href="#hd"/>
<path d="M550.54 241.00v36.20" class="stroke"/>
<use x="568.44" y="256.00" xlink:href="#hd"/>
<path d="M564.94 256.00v21.20" class="stroke"/>
<use x="582.84" y="247.00" xlink:href="#hd"/>
<path d="M579.34 247.00v30.20" class="stroke"/>
<path class="fill"
	d="M603.94 257.70l58.20 8.60v-3.20l-58.20 -8.60"/>
<use x="607.84" y="235.00" xlink:href="#hd"/>
<path d="M604.34 235.00v21.80" class="stroke"/>
<use x="636.54" y="241.00" xlink:href="#hd"/>
<path d="M633.04 241.00v20.00" class="stroke"/>
<use x="665.34" y="247.00" xlink:href="#hd"/>
<path d="M661.84 247.00v18.20" class="stroke"/>
<path class="fill"
	d="M700.94 270.00l72.60 0.00v-3.20l-72.60 -0.00"/>
<path class="fill"
	d="M701.24 265.00l71.90 0.00v-3.20l-71.90 -0.00"/>
<use x="704.74" y="238.00" xlink:href="#hd"/>
<path d="M701.24 238.00v30.90" class="stroke"/>
<use x="719.14" y="241.00" xlink:href="#hd"/>
<path d="M715.64 241.00v27.90" class="stroke"/>
<use x="733.54" y="244.00" xlink:href="#hd"/>
<path d="M730.04 244.00v24.90" class="stroke"/>
<use x="747.94" y="247.00" xlink:href="#hd"/>
<path d="M744.44 247.00v21.90" class="stroke"/>
<use x="762.34" y="250.00" xlink:href="#hd"/>
<path d="M758.84 250.00v18.90" class="stroke"/>
<use x="776.74" y="244.00" xlink:href="#hd"/>
<path d="M773.24 244.00v24.90" class="stroke"/>
<use x="801.74" y="247.00" xlink:href="#hd"/>
<path d="M798.24 247.00v21.00" class="stroke"/>
<use x="841.54" y="250.00" xlink:href="#r8"/>
<use x="23.54" y="302.00" xlink:href="#bclef"/>
<path class="fill"
	d="M52.24 339.20l67.40 -4.90v-3.20l-67.40 4.90"/>
<path class="fill"
	d="M72.44 332.70l46.80 -3.40v-3.20l-46.80 3.40"/>
<use x="56.04" y="320.00" xlink:href="#hd"/>
<path d="M52.54 320.00v18.20" class="stroke"/>
<use x="75.94" y="293.00" xlink:href="#hd"/>
<path d="M72.44 293.00v43.70" class="stroke"/>
<use x="90.34" y="299.00" xlink:href="#hd"/>
<path d="M86.84 299.00v36.70" class="stroke"/>
<use x="108.34" y="302.00" xlink:href="#hd"/>
<use x="99.34" y="302.00" xlink:href="#sh0"/>
<path d="M104.84 302.00v32.40" class="stroke"/>
<use x="122.74" y="305.00" xlink:href="#hd"/>
<path d="M119.24 305.00v28.30" class="stroke"/>
<path class="fill"
	d="M164.94 276.70l41.60 7.70v3.20l-41.60 -7.70"/>
<use x="161.74" y="296.00" xlink:href="#hd"/>
<path d="M165.24 296.00v-18.20" class="stroke"/>
<use x="182.74" y="302.00" xlink:href="#hd"/>
<use x="173.74" y="302.00" xlink:href="#sh0"/>
<path d="M186.24 302.00v-20.30" class="stroke"/>
<use x="202.64" y="308.00" xlink:href="#hd"/>
<path d="M206.14 308.00v-22.60" class="stroke"/>
<use x="239.64" y="314.00" xlink:href="#hd"/>
<path d="M243.14 314.00v-25.00" class="stroke"/>
<use x="239.64" y="308.00" xlink:href="#hd"/>
<use x="297.24" y="308.00" xlink:href="#r8"/>
<use x="336.54" y="299.00" xlink:href="#hd"/>
<path d="M333.04 299.00v31.00" class="stroke"/>
<use x="336.54" y="311.00" xlink:href="#hd"/>
<use x="394.14" y="299.00" xlink:href="#hd"/>
<path d="M390.64 299.00v31.00" class="stroke"/>
<path class="fill"
	d="M390.64 330.00c0.6 -5.6 9.6 -9 5.6 -18.4
	1.6 6 -1.3 11.6 -5.6 12.8
"/>
<use x="394.14" y="311.00" xlink:href="#hd"/>
<path class="fill"
	d="M436.64 279.70l20.60 7.00v3.20l-20.60 -7.00"/>
<use x="433.54" y="299.00" xlink:href="#hd"/>
<path d="M437.04 299.00v-18.20" class="stroke"/>
<use x="453.44" y="320.00" xlink:href="#hd"/>
<path d="M456.94 320.00v-32.40" class="stroke"/>
<use x="482.24" y="308.00" xlink:href="#r8"/>
<use x="510.84" y="305.00" xlink:href="#hd"/>
<path d="M507.34 305.00v25.00" class="stroke"/>
<use x="510.84" y="311.00" xlink:href="#hd"/>
<use x="568.44" y="299.00" xlink:href="#hd"/>
<path d="M564.94 299.00v25.00" class="stroke"/>
<path class="fill"
	d="M564.94 324.00c0.6 -5.6 9.6 -9 5.6 -18.4
	1.6 6 -1.3 11.6 -5.6 12.8
"/>
<use x="568.44" y="305.00" xlink:href="#hd"/>
<path class="fill"
	d="M603.94 327.90l72.60 0.00v-3.20l-72.60 -0.00"/>
<path class="fill"
	d="M604.34 322.90l71.90 0.00v-3.20l-71.90 -0.00"/>
<use x="607.84" y="305.00" xlink:href="#hd"/>
<path d="M604.34 305.00v21.90" class="stroke"/>
<use x="607.84" y="311.00" xlink:href="#hd"/>
<use x="622.24" y="299.00" xlink:href="#hd"/>
<path d="M618.74 299.00v27.90" class="stroke"/>
<use x="636.54" y="305.00" xlink:href="#hd"/>
<path d="M633.04 305.00v21.90" class="stroke"/>
<use x="636.54" y="311.00" xlink:href="#hd"/>
<use x="650.94" y="299.00" xlink:href="#hd"/>
<path d="M647.44 299.00v27.90" class="stroke"/>
<use x="665.34" y="305.00" xlink:href="#hd"/>
<path d="M661.84 305.00v21.90" class="stroke"/>
<use x="665.34" y="311.00" xlink:href="#hd"/>
<use x="679.74" y="299.00" xlink:href="#hd"/>
<path d="M676.24 299.00v27.90" class="stroke"/>
<use x="704.74" y="302.00" xlink:href="#hd"/>
<path d="M701.24 302.00v21.00" class="stroke"/>
<use x="762.34" y="299.00" xlink:href="#hd"/>
<path d="M758.84 299.00v21.00" class="stroke"/>
<path class="fill"
	d="M758.84 320.00c0.6 -5.6 9.6 -9 5.6 -18.4
	1.6 6 -1.3 11.6 -5.6 12.8
"/>
<path class="fill"
	d="M804.84 291.70l40.50 9.60v3.20l-40.50 -9.60"/>
<use x="801.74" y="311.00" xlink:href="#hd"/>
<path d="M805.24 311.00v-18.20" class="stroke"/>
<use x="821.64" y="320.00" xlink:href="#hd"/>
<path d="M825.14 320.00v-22.50" class="stroke"/>
<use x="841.54" y="326.00" xlink:href="#hl"/>
<use x="841.54" y="332.00" xlink:href="#hl"/>
<use x="841.54" y="332.00" xlink:href="#hd"/>
<path d="M845.04 332.00v-29.70" class="stroke"/>
<path class="fill"
	d="M157.94 330.20l49.60 0.00v-3.20l-49.60 -0.00"/>
<use x="161.74" y="308.00" xlink:href="#hd"/>
<path d="M158.24 308.00v21.20" class="stroke"/>
<use x="182.74" y="308.00" xlink:href="#hd"/>
<path d="M179.24 308.00v21.20" class="stroke"/>
<use x="210.64" y="311.00" xlink:href="#hd"/>
<path d="M207.14 311.00v18.20" class="stroke"/>
</g>
</svg>
