<?xml version="1.0" standalone="no"?>
<!DOCTYPE svg PUBLIC "-//W3C//DTD SVG 1.1//EN"
	"http://www.w3.org/Graphics/SVG/1.1/DTD/svg11.dtd">
<svg xmlns="http://www.w3.org/2000/svg" version="1.1"
	xmlns:xlink="http://www.w3.org/1999/xlink"
	color="black"
	width="757.10px" height="300.73px">
<style type="text/css">
.fill {fill: currentColor}
.stroke {stroke: currentColor; fill: none}
text{white-space: pre}
</style>
<title>./K516f-3-4-5-5-10-10-6-10-6-9-10-10-8-12-12-11.abc (3785) tune 1</title>
<!-- Creator: abcm2ps-8.13.8 -->
<!-- CreationDate: Sep  7, 2017 11:20 -->
<!-- CommandLine: ./K516f-3-4-5-5-10-10-6-10-6-9-10-10-8-12-12-11.abc -O ./K516f-3-4-5-5-10-10-6-10-6-9-10-10-8-12-12-11.svg -g -->
<rect width="100%" height="100%" fill="white"/>
<g stroke-width="0.70" transform="scale(0.867)">
<!-- title: 3-4-5-5-10-10-6-10-6-9-10-10-8-12-12-11 -->
</g>
<g stroke-width="0.70" transform="scale(0.867)" font-family="Times" font-size="20.00">
<text x="436.84" y="22.00" text-anchor="middle">3-4-5-5-10-10-6-10-6-9-10-10-8-12-12-11</text>
</g>
<g stroke-width="0.70" transform="scale(0.867)" font-family="Times" font-size="20.00">
<!-- subtitle: $1K.516f::32:95:113:85:75:129:36:123:25:88:19:82:43:124:44:78::$0 -->
</g>
<g stroke-width="0.70" transform="scale(0.867)" font-family="Courier" font-size="8.00" font-weight="bold">
<text x="436.84" y="41.80" text-anchor="middle">K.516f::32:95:113:85:75:129:36:123:25:88:19:82:43:124:44:78::</text>
</g>
<g stroke-width="0.70" transform="scale(0.867)" font-family="Courier" font-size="8.00" font-weight="bold">
<!-- subtitle: $1Perm. No.: 378551225165533$0 -->
<text x="436.84" y="60.80" text-anchor="middle">Perm. No.: 378551225165533</text>
</g>
<g stroke-width="0.70" transform="scale(0.607)" font-family="Courier" font-size="8.00" font-weight="bold">
<defs>
<ellipse id="hd" rx="4.1" ry="2.9"
	transform="rotate(-20)" class="fill"/>
</defs>
<use x="103.06" y="121.29" xlink:href="#hd"/>
<path d="M106.56 121.29v-21.00" class="stroke"/>
<path class="fill"
	d="M106.56 100.29c0.6 5.6 9.6 9 5.6 18.4
	1.6 -6 -1.3 -11.6 -5.6 -12.8
"/>
</g>
<g stroke-width="0.70" transform="scale(0.867)" font-family="Times" font-size="15.00" font-weight="bold">
<text x="81.24" y="87.00">= 111</text>
<path class="stroke" stroke-width="1"
	d="M11.54 183.00v-82.00"/>
<path class="fill"
	d="M6.54 98.00
	c10.5 1 12 -4.5 12 -3.5c0 1 -3.5 5.5 -8.5 5.5
	v84.00
	c5 0 8.5 4.5 8.5 5.5c0 1 -1.5 -4.5 -12 -3.5"/>
<defs>
<g id="rdots" class="fill">
	<circle cx="0" cy="-9" r="1.2"/>
	<circle cx="0" cy="-15" r="1.2"/>
</g>
</defs>
<use x="70.54" y="125.00" xlink:href="#rdots"/>
<path class="stroke" stroke-width="1"
	d="M66.54 125.00v-24.00"/>
<path class="stroke" stroke-width="3"
	d="M62.04 125.00v-24.00"/>
<use x="70.54" y="183.00" xlink:href="#rdots"/>
<path class="stroke" stroke-width="1"
	d="M66.54 183.00v-58.00"/>
<path class="stroke" stroke-width="3"
	d="M62.04 183.00v-58.00"/>
<path class="stroke" stroke-width="1"
	d="M159.64 125.00v-24.00"/>
<path class="stroke" stroke-width="1"
	d="M159.64 183.00v-58.00"/>
<path class="stroke" stroke-width="1"
	d="M247.74 125.00v-24.00"/>
<path class="stroke" stroke-width="1"
	d="M247.74 183.00v-58.00"/>
<path class="stroke" stroke-width="1"
	d="M335.74 125.00v-24.00"/>
<path class="stroke" stroke-width="1"
	d="M335.74 183.00v-58.00"/>
<path class="stroke" stroke-width="1"
	d="M423.84 125.00v-24.00"/>
<path class="stroke" stroke-width="1"
	d="M423.84 183.00v-58.00"/>
<path class="stroke" stroke-width="1"
	d="M515.84 125.00v-24.00"/>
<path class="stroke" stroke-width="1"
	d="M515.84 183.00v-58.00"/>
<path class="stroke" stroke-width="1"
	d="M625.74 125.00v-24.00"/>
<path class="stroke" stroke-width="1"
	d="M625.74 183.00v-58.00"/>
<path class="stroke" stroke-width="1"
	d="M748.34 125.00v-24.00"/>
<path class="stroke" stroke-width="1"
	d="M748.34 183.00v-58.00"/>
<path class="stroke" stroke-width="3"
	d="M860.54 125.00v-24.00"/>
<path class="stroke" stroke-width="1"
	d="M856.04 125.00v-24.00"/>
<use x="852.04" y="125.00" xlink:href="#rdots"/>
<path class="stroke" stroke-width="3"
	d="M860.54 183.00v-58.00"/>
<path class="stroke" stroke-width="1"
	d="M856.04 183.00v-58.00"/>
<use x="852.04" y="183.00" xlink:href="#rdots"/>
<path d="m11.54 125.00
	h850.50
	M11.54 119.00
	h850.50
	M11.54 113.00
	h850.50
	M11.54 107.00
	h850.50
	M11.54 101.00
	h850.50
	" class="stroke"/>
<path d="m11.54 183.00
	h850.50
	M11.54 177.00
	h850.50
	M11.54 171.00
	h850.50
	M11.54 165.00
	h850.50
	M11.54 159.00
	h850.50
	" class="stroke"/>
</g>
<g stroke-width="0.70" transform="scale(0.867)" font-family="Times" font-size="13.00">
<text x="752.34" y="86.40">1</text>
<path class="stroke"
	d="M748.34 75.00m0 20v-20h105.70v20"/>
<defs>
<path id="utclef" class="fill" d="m-50 -90
	c-72 -41 -72 -158 52 -188
	150 -10 220 188 90 256
	-114 52 -275 0 -293 -136
	-15 -181 93 -229 220 -334
	88 -87 79 -133 62 -210
	-51 33 -94 105 -89 186
	17 267 36 374 49 574
	6 96 -19 134 -77 135
	-80 1 -126 -93 -61 -133
	85 -41 133 101 31 105
	23 17 92 37 90 -92
	-10 -223 -39 -342 -50 -617
	0 -90 0 -162 96 -232
	56 72 63 230 22 289
	-74 106 -257 168 -255 316
	9 153 148 185 252 133
	86 -65 29 -192 -80 -176
	-71 12 -105 67 -59 124"/>
<use id="tclef" transform="translate(0,6) scale(0.045)"
	xlink:href="#utclef"/>
</defs>
<use x="23.54" y="119.00" xlink:href="#tclef"/>
<g font-family="serif" font-size="16" font-weight="bold" font-style="normal"
	transform="translate(42.04,124.50) scale(1.2,1)">
	<text text-anchor="middle">8</text>
	<text y="-12" text-anchor="middle">3</text>
</g>
<path class="fill"
	d="M82.34 138.20l53.50 -6.80v-3.20l-53.50 6.80"/>
<use x="86.24" y="119.00" xlink:href="#hd"/>
<path d="M82.74 119.00v18.20" class="stroke"/>
<use x="112.64" y="110.00" xlink:href="#hd"/>
<path d="M109.14 110.00v23.80" class="stroke"/>
<use x="139.04" y="104.00" xlink:href="#hd"/>
<path d="M135.54 104.00v26.50" class="stroke"/>
<path class="fill"
	d="M170.44 120.90l53.50 8.40v-3.20l-53.50 -8.40"/>
<use x="174.34" y="98.00" xlink:href="#hd"/>
<path d="M170.84 98.00v21.90" class="stroke"/>
<use x="200.74" y="104.00" xlink:href="#hd"/>
<path d="M197.24 104.00v20.10" class="stroke"/>
<use x="227.14" y="110.00" xlink:href="#hd"/>
<path d="M223.64 110.00v18.20" class="stroke"/>
<path class="fill"
	d="M258.54 123.90l53.50 8.40v-3.20l-53.50 -8.40"/>
<use x="262.34" y="101.00" xlink:href="#hd"/>
<path d="M258.84 101.00v21.90" class="stroke"/>
<use x="288.84" y="107.00" xlink:href="#hd"/>
<path d="M285.34 107.00v20.10" class="stroke"/>
<use x="315.24" y="113.00" xlink:href="#hd"/>
<path d="M311.74 113.00v18.20" class="stroke"/>
<path class="fill"
	d="M346.64 133.70l53.50 4.50v-3.20l-53.50 -4.50"/>
<use x="350.44" y="110.00" xlink:href="#hd"/>
<path d="M346.94 110.00v22.70" class="stroke"/>
<use x="376.84" y="104.00" xlink:href="#hd"/>
<path d="M373.34 104.00v31.00" class="stroke"/>
<use x="403.34" y="119.00" xlink:href="#hd"/>
<path d="M399.84 119.00v18.20" class="stroke"/>
<path class="fill"
	d="M438.54 125.20l53.50 0.00v-3.20l-53.50 -0.00"/>
<use x="442.44" y="101.00" xlink:href="#hd"/>
<defs>
<path id="usharp" class="fill" d="
	m136 -702
	v890
	h32
	v-890
	m128 840
	h32
	v-888
	h-32
	m-232 286
	v116
	l338 -96
	v-116
	m-338 442
	v116
	l338 -98
	v-114"/>
<use id="sh0" transform="translate(-4,5) scale(0.018)"
	xlink:href="#usharp"/>
</defs>
<use x="433.44" y="101.00" xlink:href="#sh0"/>
<path d="M438.94 101.00v23.20" class="stroke"/>
<use x="442.44" y="107.00" xlink:href="#hd"/>
<use x="468.84" y="101.00" xlink:href="#hd"/>
<path d="M465.34 101.00v23.20" class="stroke"/>
<use x="468.84" y="107.00" xlink:href="#hd"/>
<use x="495.24" y="101.00" xlink:href="#hd"/>
<path d="M491.74 101.00v23.20" class="stroke"/>
<use x="495.24" y="107.00" xlink:href="#hd"/>
<path class="fill"
	d="M526.64 121.20l75.40 5.00v-3.20l-75.40 -5.00"/>
<path class="fill"
	d="M526.94 116.20l56.00 3.70v-3.20l-56.00 -3.70"/>
<defs>
<path id="hl" class="stroke" d="m-6 0h12"/>
</defs>
<use x="530.44" y="95.00" xlink:href="#hl"/>
<use x="530.44" y="95.00" xlink:href="#hd"/>
<path d="M526.94 95.00v25.20" class="stroke"/>
<use x="549.14" y="98.00" xlink:href="#hd"/>
<path d="M545.64 98.00v23.50" class="stroke"/>
<use x="567.84" y="101.00" xlink:href="#hd"/>
<use x="558.84" y="101.00" xlink:href="#sh0"/>
<path d="M564.34 101.00v21.70" class="stroke"/>
<use x="586.54" y="98.00" xlink:href="#hd"/>
<path d="M583.04 98.00v26.00" class="stroke"/>
<use x="605.14" y="107.00" xlink:href="#hd"/>
<path d="M601.64 107.00v18.20" class="stroke"/>
<path class="fill"
	d="M636.54 138.20l94.10 -8.70v-3.20l-94.10 8.70"/>
<path class="fill"
	d="M636.94 133.20l93.40 -8.60v-3.20l-93.40 8.60"/>
<use x="640.44" y="116.00" xlink:href="#hd"/>
<path d="M636.94 116.00v21.20" class="stroke"/>
<use x="659.14" y="104.00" xlink:href="#hd"/>
<path d="M655.64 104.00v31.50" class="stroke"/>
<use x="677.74" y="107.00" xlink:href="#hd"/>
<path d="M674.24 107.00v26.80" class="stroke"/>
<use x="696.44" y="98.00" xlink:href="#hd"/>
<path d="M692.94 98.00v34.00" class="stroke"/>
<use x="715.14" y="101.00" xlink:href="#hd"/>
<use x="706.14" y="101.00" xlink:href="#sh0"/>
<path d="M711.64 101.00v29.30" class="stroke"/>
<use x="733.74" y="95.00" xlink:href="#hl"/>
<use x="733.74" y="95.00" xlink:href="#hd"/>
<path d="M730.24 95.00v33.60" class="stroke"/>
<use x="763.04" y="98.00" xlink:href="#hd"/>
<path d="M759.54 98.00v40.00" class="stroke"/>
<use x="763.04" y="119.00" xlink:href="#hd"/>
<use x="763.04" y="113.00" xlink:href="#hd"/>
<use x="763.04" y="107.00" xlink:href="#hd"/>
<defs>
<path id="r8e" class="fill" d="m 0 0
	c-1.5 1.5 -2.4 2 -3.6 2
	2.4 -2.8 -2.8 -4 -2.8 -1.2
	c0 2.7 4.3 2.4 5.9 0.6"/>
<g id="r8">
	<path d="m3.3 -4l-3.4 9.6" class="stroke"/>
	<use x="3.4" y="-4" xlink:href="#r8e"/>
</g>
</defs>
<use x="826.74" y="113.00" xlink:href="#r8"/>
<defs>
<path id="ubclef" class="fill" d="m-200 -87
	c124 -35 222 -78 254 -236
	43 -228 -167 -246 -192 -103
	59 -80 157 22 92 78
	-62 47 -115 -22 -106 -88
	21 -141 270 -136 274 52
	-1 175 -106 264 -322 297
	m357 -250
	c0 -36 51 -34 51 0
	0 37 -51 36 -51 0
	m-2 -129
	c0 -36 51 -34 51 0
	0 38 -51 37 -51 0"/>
<use id="bclef" transform="translate(0,18) scale(0.045)"
	xlink:href="#ubclef"/>
</defs>
<use x="23.54" y="165.00" xlink:href="#bclef"/>
<g font-family="serif" font-size="16" font-weight="bold" font-style="normal"
	transform="translate(42.04,182.50) scale(1.2,1)">
	<text text-anchor="middle">8</text>
	<text y="-12" text-anchor="middle">3</text>
</g>
<use x="86.24" y="168.00" xlink:href="#hd"/>
<path d="M82.74 168.00v25.00" class="stroke"/>
<use x="86.24" y="174.00" xlink:href="#hd"/>
<use x="139.04" y="171.00" xlink:href="#r8"/>
<use x="174.34" y="168.00" xlink:href="#hd"/>
<path d="M177.84 168.00v-21.00" class="stroke"/>
<use x="227.14" y="171.00" xlink:href="#r8"/>
<use x="262.34" y="156.00" xlink:href="#hd"/>
<path d="M258.84 156.00v25.00" class="stroke"/>
<use x="262.34" y="162.00" xlink:href="#hd"/>
<use x="315.24" y="171.00" xlink:href="#r8"/>
<use x="350.44" y="162.00" xlink:href="#hd"/>
<path d="M346.94 162.00v25.00" class="stroke"/>
<use x="350.44" y="168.00" xlink:href="#hd"/>
<use x="403.34" y="171.00" xlink:href="#r8"/>
<path class="fill"
	d="M445.54 153.00l53.50 0.00v3.20l-53.50 -0.00"/>
<use x="442.44" y="174.00" xlink:href="#hd"/>
<path d="M445.94 174.00v-20.00" class="stroke"/>
<use x="468.84" y="174.00" xlink:href="#hd"/>
<path d="M472.34 174.00v-20.00" class="stroke"/>
<use x="495.24" y="174.00" xlink:href="#hd"/>
<path d="M498.74 174.00v-20.00" class="stroke"/>
<path class="fill"
	d="M533.64 149.50l75.40 -4.80v3.20l-75.40 4.80"/>
<use x="530.44" y="177.00" xlink:href="#hd"/>
<path d="M533.94 177.00v-26.50" class="stroke"/>
<use x="530.44" y="171.00" xlink:href="#hd"/>
<use x="567.84" y="177.00" xlink:href="#hd"/>
<path d="M571.34 177.00v-28.80" class="stroke"/>
<use x="567.84" y="171.00" xlink:href="#hd"/>
<use x="605.14" y="177.00" xlink:href="#hd"/>
<path d="M608.64 177.00v-31.20" class="stroke"/>
<use x="605.14" y="162.00" xlink:href="#hd"/>
<path class="fill"
	d="M643.54 147.60l75.40 8.50v3.20l-75.40 -8.50"/>
<use x="640.44" y="174.00" xlink:href="#hd"/>
<path d="M643.94 174.00v-25.40" class="stroke"/>
<use x="677.74" y="171.00" xlink:href="#hd"/>
<path d="M681.24 171.00v-18.20" class="stroke"/>
<use x="715.14" y="189.00" xlink:href="#hl"/>
<use x="715.14" y="192.00" xlink:href="#hd"/>
<path d="M718.64 192.00v-35.00" class="stroke"/>
<path class="fill"
	d="M759.14 202.20l83.10 0.00v-3.20l-83.10 -0.00"/>
<path class="fill"
	d="M785.94 197.20l56.00 0.00v-3.20l-56.00 -0.00"/>
<use x="763.04" y="183.00" xlink:href="#hd"/>
<path d="M759.54 183.00v18.20" class="stroke"/>
<use x="789.44" y="162.00" xlink:href="#hd"/>
<path d="M785.94 162.00v39.20" class="stroke"/>
<use x="808.14" y="165.00" xlink:href="#hd"/>
<defs>
<path id="unat" class="fill" d="
	m96 -750
	h-32
	v716
	l32 -8
	182 -54
	v282
	h32
	v-706
	l-34 10
	-180 50
	v-290
	m0 592
	v-190
	l182 -52
	v188"/>
<use id="nt0" transform="translate(-3,5) scale(0.018)"
	xlink:href="#unat"/>
</defs>
<use x="799.14" y="165.00" xlink:href="#nt0"/>
<path d="M804.64 165.00v36.20" class="stroke"/>
<use x="826.74" y="168.00" xlink:href="#hd"/>
<path d="M823.24 168.00v33.20" class="stroke"/>
<use x="845.44" y="171.00" xlink:href="#hd"/>
<path d="M841.94 171.00v30.20" class="stroke"/>
<use x="174.34" y="174.00" xlink:href="#hd"/>
<path d="M170.84 174.00v21.00" class="stroke"/>
</g>
<g stroke-width="0.70" transform="scale(0.867)" font-family="Times" font-size="13.00">
<path class="stroke" stroke-width="1"
	d="M11.54 324.00v-90.00"/>
<path class="fill"
	d="M6.54 231.00
	c10.5 1 12 -4.5 12 -3.5c0 1 -3.5 5.5 -8.5 5.5
	v92.00
	c5 0 8.5 4.5 8.5 5.5c0 1 -1.5 -4.5 -12 -3.5"/>
<use x="146.14" y="258.00" xlink:href="#rdots"/>
<path class="stroke" stroke-width="1"
	d="M142.14 258.00v-24.00"/>
<path class="stroke" stroke-width="3"
	d="M137.64 258.00v-24.00"/>
<use x="146.14" y="324.00" xlink:href="#rdots"/>
<path class="stroke" stroke-width="1"
	d="M142.14 324.00v-66.00"/>
<path class="stroke" stroke-width="3"
	d="M137.64 324.00v-66.00"/>
<path class="stroke" stroke-width="1"
	d="M254.64 258.00v-24.00"/>
<path class="stroke" stroke-width="1"
	d="M254.64 324.00v-66.00"/>
<path class="stroke" stroke-width="1"
	d="M357.04 258.00v-24.00"/>
<path class="stroke" stroke-width="1"
	d="M357.04 324.00v-66.00"/>
<path class="stroke" stroke-width="1"
	d="M439.34 258.00v-24.00"/>
<path class="stroke" stroke-width="1"
	d="M439.34 324.00v-66.00"/>
<path class="stroke" stroke-width="1"
	d="M521.94 258.00v-24.00"/>
<path class="stroke" stroke-width="1"
	d="M521.94 324.00v-66.00"/>
<path class="stroke" stroke-width="1"
	d="M615.04 258.00v-24.00"/>
<path class="stroke" stroke-width="1"
	d="M615.04 324.00v-66.00"/>
<path class="stroke" stroke-width="1"
	d="M688.04 258.00v-24.00"/>
<path class="stroke" stroke-width="1"
	d="M688.04 324.00v-66.00"/>
<path class="stroke" stroke-width="1"
	d="M781.14 258.00v-24.00"/>
<path class="stroke" stroke-width="1"
	d="M781.14 324.00v-66.00"/>
<path class="stroke" stroke-width="3"
	d="M860.54 258.00v-24.00"/>
<path class="stroke" stroke-width="1"
	d="M856.04 258.00v-24.00"/>
<use x="852.04" y="258.00" xlink:href="#rdots"/>
<path class="stroke" stroke-width="3"
	d="M860.54 324.00v-66.00"/>
<path class="stroke" stroke-width="1"
	d="M856.04 324.00v-66.00"/>
<use x="852.04" y="324.00" xlink:href="#rdots"/>
<path d="m11.54 258.00
	h850.50
	M11.54 252.00
	h850.50
	M11.54 246.00
	h850.50
	M11.54 240.00
	h850.50
	M11.54 234.00
	h850.50
	" class="stroke"/>
<path d="m11.54 324.00
	h850.50
	M11.54 318.00
	h850.50
	M11.54 312.00
	h850.50
	M11.54 306.00
	h850.50
	M11.54 300.00
	h850.50
	" class="stroke"/>
<text x="47.54" y="219.40">2</text>
<path class="stroke"
	d="M43.54 208.00m0 20v-20h91.60v20"/>
<use x="23.54" y="252.00" xlink:href="#tclef"/>
<use x="56.04" y="231.00" xlink:href="#hd"/>
<path d="M52.54 231.00v40.00" class="stroke"/>
<use x="56.04" y="252.00" xlink:href="#hd"/>
<use x="56.04" y="246.00" xlink:href="#hd"/>
<use x="56.04" y="240.00" xlink:href="#hd"/>
<use x="111.24" y="246.00" xlink:href="#r8"/>
<path class="fill"
	d="M155.84 281.30l83.10 -13.30v-3.20l-83.10 13.30"/>
<path class="fill"
	d="M156.14 276.20l82.40 -13.20v-3.20l-82.40 13.20"/>
<use x="159.64" y="261.00" xlink:href="#hd"/>
<path d="M156.14 261.00v19.20" class="stroke"/>
<use x="177.64" y="255.00" xlink:href="#hd"/>
<use x="168.64" y="255.00" xlink:href="#sh0"/>
<path d="M174.14 255.00v22.30" class="stroke"/>
<use x="193.14" y="249.00" xlink:href="#hd"/>
<path d="M189.64 249.00v25.80" class="stroke"/>
<use x="208.64" y="240.00" xlink:href="#hd"/>
<path d="M205.14 240.00v32.30" class="stroke"/>
<use x="226.64" y="234.00" xlink:href="#hd"/>
<use x="217.64" y="234.00" xlink:href="#sh0"/>
<path d="M223.14 234.00v35.40" class="stroke"/>
<use x="242.14" y="228.00" xlink:href="#hl"/>
<use x="242.14" y="228.00" xlink:href="#hd"/>
<path d="M238.64 228.00v39.00" class="stroke"/>
<path class="fill"
	d="M263.24 260.00l78.10 0.00v-3.20l-78.10 -0.00"/>
<path class="fill"
	d="M263.64 255.00l77.40 0.00v-3.20l-77.40 -0.00"/>
<use x="267.14" y="231.00" xlink:href="#hd"/>
<path d="M263.64 231.00v28.00" class="stroke"/>
<use x="282.54" y="240.00" xlink:href="#hd"/>
<path d="M279.04 240.00v19.00" class="stroke"/>
<use x="298.04" y="231.00" xlink:href="#hd"/>
<path d="M294.54 231.00v28.00" class="stroke"/>
<use x="313.54" y="228.00" xlink:href="#hl"/>
<use x="313.54" y="225.00" xlink:href="#hd"/>
<path d="M310.04 225.00v34.00" class="stroke"/>
<use x="329.04" y="231.00" xlink:href="#hd"/>
<path d="M325.54 231.00v28.00" class="stroke"/>
<use x="344.54" y="240.00" xlink:href="#hd"/>
<path d="M341.04 240.00v19.00" class="stroke"/>
<path class="fill"
	d="M365.64 266.40l53.30 -4.20v-3.20l-53.30 4.20"/>
<path class="fill"
	d="M366.04 261.40l15.50 -1.20v-3.20l-15.50 1.20"/>
<use x="369.54" y="237.00" xlink:href="#hd"/>
<path d="M366.04 237.00v28.40" class="stroke"/>
<use x="384.94" y="243.00" xlink:href="#hd"/>
<path d="M381.44 243.00v21.20" class="stroke"/>
<use x="400.44" y="237.00" xlink:href="#hd"/>
<path d="M396.94 237.00v26.00" class="stroke"/>
<use x="422.14" y="231.00" xlink:href="#hd"/>
<path d="M418.64 231.00v30.30" class="stroke"/>
<path class="fill"
	d="M447.94 273.70l53.30 -4.30v-3.20l-53.30 4.30"/>
<path class="fill"
	d="M448.34 268.70l15.50 -1.30v-3.20l-15.50 1.30"/>
<use x="451.84" y="240.00" xlink:href="#hd"/>
<path d="M448.34 240.00v32.70" class="stroke"/>
<use x="467.34" y="246.00" xlink:href="#hd"/>
<path d="M463.84 246.00v25.50" class="stroke"/>
<use x="482.74" y="252.00" xlink:href="#hd"/>
<path d="M479.24 252.00v18.20" class="stroke"/>
<use x="504.44" y="231.00" xlink:href="#hd"/>
<path d="M500.94 231.00v37.40" class="stroke"/>
<path class="fill"
	d="M530.54 256.20l68.80 9.00v-3.20l-68.80 -9.00"/>
<path class="fill"
	d="M552.64 254.10l46.40 6.10v-3.20l-46.40 -6.10"/>
<use x="534.44" y="231.00" xlink:href="#hd"/>
<path d="M530.94 231.00v24.20" class="stroke"/>
<use x="556.14" y="234.00" xlink:href="#hd"/>
<path d="M552.64 234.00v24.10" class="stroke"/>
<use x="571.54" y="237.00" xlink:href="#hd"/>
<path d="M568.04 237.00v23.10" class="stroke"/>
<use x="587.04" y="240.00" xlink:href="#hd"/>
<path d="M583.54 240.00v22.20" class="stroke"/>
<use x="602.54" y="243.00" xlink:href="#hd"/>
<path d="M599.04 243.00v21.20" class="stroke"/>
<path class="fill"
	d="M630.64 224.00l44.00 0.00v3.20l-44.00 -0.00"/>
<use x="627.54" y="258.00" xlink:href="#hd"/>
<path d="M631.04 258.00v-33.00" class="stroke"/>
<use x="627.54" y="243.00" xlink:href="#hd"/>
<use x="649.24" y="258.00" xlink:href="#hd"/>
<path d="M652.74 258.00v-33.00" class="stroke"/>
<use x="649.24" y="243.00" xlink:href="#hd"/>
<use x="670.84" y="258.00" xlink:href="#hd"/>
<path d="M674.34 258.00v-33.00" class="stroke"/>
<use x="670.84" y="243.00" xlink:href="#hd"/>
<path class="fill"
	d="M696.74 268.20l68.80 -8.20v-3.20l-68.80 8.20"/>
<path class="fill"
	d="M718.74 260.60l46.40 -5.50v-3.20l-46.40 5.50"/>
<use x="700.54" y="249.00" xlink:href="#hd"/>
<path d="M697.04 249.00v18.20" class="stroke"/>
<use x="722.24" y="234.00" xlink:href="#hd"/>
<path d="M718.74 234.00v30.60" class="stroke"/>
<use x="737.74" y="240.00" xlink:href="#hd"/>
<path d="M734.24 240.00v22.80" class="stroke"/>
<use x="753.24" y="228.00" xlink:href="#hl"/>
<use x="753.24" y="228.00" xlink:href="#hd"/>
<path d="M749.74 228.00v33.00" class="stroke"/>
<use x="768.64" y="231.00" xlink:href="#hd"/>
<path d="M765.14 231.00v28.10" class="stroke"/>
<path class="fill"
	d="M796.84 223.70l22.40 7.40v3.20l-22.40 -7.40"/>
<use x="793.64" y="243.00" xlink:href="#hd"/>
<path d="M797.14 243.00v-18.20" class="stroke"/>
<use x="815.34" y="264.00" xlink:href="#hl"/>
<use x="815.34" y="264.00" xlink:href="#hd"/>
<path d="M818.84 264.00v-32.10" class="stroke"/>
<use x="837.04" y="246.00" xlink:href="#r8"/>
<use x="23.54" y="306.00" xlink:href="#bclef"/>
<path class="fill"
	d="M52.24 343.20l71.30 -5.10v-3.20l-71.30 5.10"/>
<path class="fill"
	d="M74.24 336.60l49.00 -3.50v-3.20l-49.00 3.50"/>
<use x="56.04" y="324.00" xlink:href="#hd"/>
<path d="M52.54 324.00v18.20" class="stroke"/>
<use x="77.74" y="297.00" xlink:href="#hd"/>
<path d="M74.24 297.00v43.60" class="stroke"/>
<use x="93.24" y="303.00" xlink:href="#hd"/>
<path d="M89.74 303.00v36.50" class="stroke"/>
<use x="111.24" y="306.00" xlink:href="#hd"/>
<use x="102.24" y="306.00" xlink:href="#sh0"/>
<path d="M107.74 306.00v32.20" class="stroke"/>
<use x="126.64" y="309.00" xlink:href="#hd"/>
<path d="M123.14 309.00v28.10" class="stroke"/>
<use x="159.64" y="312.00" xlink:href="#hd"/>
<path d="M163.14 312.00v-21.00" class="stroke"/>
<use x="226.64" y="315.00" xlink:href="#hd"/>
<path d="M230.14 315.00v-21.00" class="stroke"/>
<path class="fill"
	d="M230.14 294.00c0.6 5.6 9.6 9 5.6 18.4
	1.6 -6 -1.3 -11.6 -5.6 -12.8
"/>
<use x="267.14" y="318.00" xlink:href="#hd"/>
<path d="M270.64 318.00v-25.00" class="stroke"/>
<use x="267.14" y="312.00" xlink:href="#hd"/>
<use x="329.04" y="318.00" xlink:href="#hd"/>
<path d="M332.54 318.00v-25.00" class="stroke"/>
<path class="fill"
	d="M332.54 293.00c0.6 5.6 9.6 9 5.6 18.4
	1.6 -6 -1.3 -11.6 -5.6 -12.8
"/>
<use x="329.04" y="312.00" xlink:href="#hd"/>
<use x="369.54" y="303.00" xlink:href="#hd"/>
<path d="M366.04 303.00v31.00" class="stroke"/>
<use x="369.54" y="315.00" xlink:href="#hd"/>
<use x="422.14" y="309.00" xlink:href="#hd"/>
<path d="M418.64 309.00v25.00" class="stroke"/>
<path class="fill"
	d="M418.64 334.00c0.6 -5.6 9.6 -9 5.6 -18.4
	1.6 6 -1.3 11.6 -5.6 12.8
"/>
<use x="422.14" y="315.00" xlink:href="#hd"/>
<use x="451.84" y="303.00" xlink:href="#hd"/>
<path d="M455.34 303.00v-21.00" class="stroke"/>
<use x="504.44" y="318.00" xlink:href="#hd"/>
<path d="M507.94 318.00v-25.00" class="stroke"/>
<path class="fill"
	d="M507.94 293.00c0.6 5.6 9.6 9 5.6 18.4
	1.6 -6 -1.3 -11.6 -5.6 -12.8
"/>
<use x="504.44" y="312.00" xlink:href="#hd"/>
<use x="534.44" y="309.00" xlink:href="#hd"/>
<path d="M530.94 309.00v25.00" class="stroke"/>
<use x="534.44" y="315.00" xlink:href="#hd"/>
<use x="587.04" y="312.00" xlink:href="#r8"/>
<path class="fill"
	d="M630.64 294.00l44.00 0.00v3.20l-44.00 -0.00"/>
<use x="627.54" y="315.00" xlink:href="#hd"/>
<path d="M631.04 315.00v-20.00" class="stroke"/>
<use x="649.24" y="315.00" xlink:href="#hd"/>
<path d="M652.74 315.00v-20.00" class="stroke"/>
<use x="670.84" y="315.00" xlink:href="#hd"/>
<path d="M674.34 315.00v-20.00" class="stroke"/>
<use x="700.54" y="306.00" xlink:href="#hd"/>
<path d="M697.04 306.00v21.00" class="stroke"/>
<use x="753.24" y="303.00" xlink:href="#hd"/>
<path d="M749.74 303.00v21.00" class="stroke"/>
<path class="fill"
	d="M749.74 324.00c0.6 -5.6 9.6 -9 5.6 -18.4
	1.6 6 -1.3 11.6 -5.6 12.8
"/>
<use x="793.64" y="315.00" xlink:href="#hd"/>
<path d="M797.14 315.00v-21.00" class="stroke"/>
<use x="837.04" y="330.00" xlink:href="#hl"/>
<use x="837.04" y="336.00" xlink:href="#hl"/>
<use x="837.04" y="336.00" xlink:href="#hd"/>
<path d="M840.54 336.00v-24.00" class="stroke"/>
<path class="fill"
	d="M840.54 312.00c0.6 5.6 9.6 9 5.6 18.4
	1.6 -6 -1.3 -11.6 -5.6 -12.8
"/>
<use x="451.84" y="318.00" xlink:href="#hd"/>
<path d="M448.34 318.00v21.00" class="stroke"/>
</g>
</svg>
