<?xml version="1.0" standalone="no"?>
<!DOCTYPE svg PUBLIC "-//W3C//DTD SVG 1.1//EN"
	"http://www.w3.org/Graphics/SVG/1.1/DTD/svg11.dtd">
<svg xmlns="http://www.w3.org/2000/svg" version="1.1"
	xmlns:xlink="http://www.w3.org/1999/xlink"
	color="black"
	width="757.10px" height="297.27px">
<style type="text/css">
.fill {fill: currentColor}
.stroke {stroke: currentColor; fill: none}
text{white-space: pre}
</style>
<title>./K516f-11-9-5-10-7-2-5-5-10-5-11-5-8-10-2-11.abc (2691) tune 1</title>
<!-- Creator: abcm2ps-8.13.8 -->
<!-- CreationDate: Sep  7, 2017 11:18 -->
<!-- CommandLine: ./K516f-11-9-5-10-7-2-5-5-10-5-11-5-8-10-2-11.abc -O ./K516f-11-9-5-10-7-2-5-5-10-5-11-5-8-10-2-11.svg -g -->
<rect width="100%" height="100%" fill="white"/>
<g stroke-width="0.70" transform="scale(0.867)">
<!-- title: 11-9-5-10-7-2-5-5-10-5-11-5-8-10-2-11 -->
</g>
<g stroke-width="0.70" transform="scale(0.867)" font-family="Times" font-size="20.00">
<text x="436.84" y="22.00" text-anchor="middle">11-9-5-10-7-2-5-5-10-5-11-5-8-10-2-11</text>
</g>
<g stroke-width="0.70" transform="scale(0.867)" font-family="Times" font-size="20.00">
<!-- subtitle: $1K.516f::3:84:113:156:154:122:159:100:65:176:31:34:43:38:109:78::$0 -->
</g>
<g stroke-width="0.70" transform="scale(0.867)" font-family="Courier" font-size="8.00" font-weight="bold">
<text x="436.84" y="41.80" text-anchor="middle">K.516f::3:84:113:156:154:122:159:100:65:176:31:34:43:38:109:78::</text>
</g>
<g stroke-width="0.70" transform="scale(0.867)" font-family="Courier" font-size="8.00" font-weight="bold">
<!-- subtitle: $1Perm. No.: 26919135213453$0 -->
<text x="436.84" y="60.80" text-anchor="middle">Perm. No.: 26919135213453</text>
</g>
<g stroke-width="0.70" transform="scale(0.607)" font-family="Courier" font-size="8.00" font-weight="bold">
<defs>
<ellipse id="hd" rx="4.1" ry="2.9"
	transform="rotate(-20)" class="fill"/>
</defs>
<use x="103.06" y="121.29" xlink:href="#hd"/>
<path d="M106.56 121.29v-21.00" class="stroke"/>
<path class="fill"
	d="M106.56 100.29c0.6 5.6 9.6 9 5.6 18.4
	1.6 -6 -1.3 -11.6 -5.6 -12.8
"/>
</g>
<g stroke-width="0.70" transform="scale(0.867)" font-family="Times" font-size="15.00" font-weight="bold">
<text x="81.24" y="87.00">= 111</text>
<path class="stroke" stroke-width="1"
	d="M11.54 183.00v-82.00"/>
<path class="fill"
	d="M6.54 98.00
	c10.5 1 12 -4.5 12 -3.5c0 1 -3.5 5.5 -8.5 5.5
	v84.00
	c5 0 8.5 4.5 8.5 5.5c0 1 -1.5 -4.5 -12 -3.5"/>
<defs>
<g id="rdots" class="fill">
	<circle cx="0" cy="-9" r="1.2"/>
	<circle cx="0" cy="-15" r="1.2"/>
</g>
</defs>
<use x="70.54" y="125.00" xlink:href="#rdots"/>
<path class="stroke" stroke-width="1"
	d="M66.54 125.00v-24.00"/>
<path class="stroke" stroke-width="3"
	d="M62.04 125.00v-24.00"/>
<use x="70.54" y="183.00" xlink:href="#rdots"/>
<path class="stroke" stroke-width="1"
	d="M66.54 183.00v-58.00"/>
<path class="stroke" stroke-width="3"
	d="M62.04 183.00v-58.00"/>
<path class="stroke" stroke-width="1"
	d="M150.24 125.00v-24.00"/>
<path class="stroke" stroke-width="1"
	d="M150.24 183.00v-58.00"/>
<path class="stroke" stroke-width="1"
	d="M260.04 125.00v-24.00"/>
<path class="stroke" stroke-width="1"
	d="M260.04 183.00v-58.00"/>
<path class="stroke" stroke-width="1"
	d="M338.64 125.00v-24.00"/>
<path class="stroke" stroke-width="1"
	d="M338.64 183.00v-58.00"/>
<path class="stroke" stroke-width="1"
	d="M437.04 125.00v-24.00"/>
<path class="stroke" stroke-width="1"
	d="M437.04 183.00v-58.00"/>
<path class="stroke" stroke-width="1"
	d="M549.54 125.00v-24.00"/>
<path class="stroke" stroke-width="1"
	d="M549.54 183.00v-58.00"/>
<path class="stroke" stroke-width="1"
	d="M649.24 125.00v-24.00"/>
<path class="stroke" stroke-width="1"
	d="M649.24 183.00v-58.00"/>
<path class="stroke" stroke-width="1"
	d="M759.04 125.00v-24.00"/>
<path class="stroke" stroke-width="1"
	d="M759.04 183.00v-58.00"/>
<path class="stroke" stroke-width="3"
	d="M860.54 125.00v-24.00"/>
<path class="stroke" stroke-width="1"
	d="M856.04 125.00v-24.00"/>
<use x="852.04" y="125.00" xlink:href="#rdots"/>
<path class="stroke" stroke-width="3"
	d="M860.54 183.00v-58.00"/>
<path class="stroke" stroke-width="1"
	d="M856.04 183.00v-58.00"/>
<use x="852.04" y="183.00" xlink:href="#rdots"/>
<path d="m11.54 125.00
	h850.50
	M11.54 119.00
	h850.50
	M11.54 113.00
	h850.50
	M11.54 107.00
	h850.50
	M11.54 101.00
	h850.50
	" class="stroke"/>
<path d="m11.54 183.00
	h850.50
	M11.54 177.00
	h850.50
	M11.54 171.00
	h850.50
	M11.54 165.00
	h850.50
	M11.54 159.00
	h850.50
	" class="stroke"/>
</g>
<g stroke-width="0.70" transform="scale(0.867)" font-family="Times" font-size="13.00">
<text x="763.04" y="86.40">1</text>
<path class="stroke"
	d="M759.04 75.00m0 20v-20h95.00v20"/>
<defs>
<path id="utclef" class="fill" d="m-50 -90
	c-72 -41 -72 -158 52 -188
	150 -10 220 188 90 256
	-114 52 -275 0 -293 -136
	-15 -181 93 -229 220 -334
	88 -87 79 -133 62 -210
	-51 33 -94 105 -89 186
	17 267 36 374 49 574
	6 96 -19 134 -77 135
	-80 1 -126 -93 -61 -133
	85 -41 133 101 31 105
	23 17 92 37 90 -92
	-10 -223 -39 -342 -50 -617
	0 -90 0 -162 96 -232
	56 72 63 230 22 289
	-74 106 -257 168 -255 316
	9 153 148 185 252 133
	86 -65 29 -192 -80 -176
	-71 12 -105 67 -59 124"/>
<use id="tclef" transform="translate(0,6) scale(0.045)"
	xlink:href="#utclef"/>
</defs>
<use x="23.54" y="119.00" xlink:href="#tclef"/>
<g font-family="serif" font-size="16" font-weight="bold" font-style="normal"
	transform="translate(42.04,124.50) scale(1.2,1)">
	<text text-anchor="middle">8</text>
	<text y="-12" text-anchor="middle">3</text>
</g>
<path class="fill"
	d="M80.94 127.60l47.70 3.20v-3.20l-47.70 -3.20"/>
<use x="84.84" y="98.00" xlink:href="#hd"/>
<path d="M81.34 98.00v28.60" class="stroke"/>
<use x="108.34" y="110.00" xlink:href="#hd"/>
<path d="M104.84 110.00v18.20" class="stroke"/>
<use x="131.74" y="104.00" xlink:href="#hd"/>
<path d="M128.24 104.00v25.80" class="stroke"/>
<path class="fill"
	d="M159.64 142.50l84.10 -6.40v-3.20l-84.10 6.40"/>
<path class="fill"
	d="M159.94 137.50l83.40 -6.30v-3.20l-83.40 6.30"/>
<use x="163.44" y="110.00" xlink:href="#hd"/>
<path d="M159.94 110.00v31.50" class="stroke"/>
<use x="180.14" y="119.00" xlink:href="#hd"/>
<path d="M176.64 119.00v21.20" class="stroke"/>
<use x="196.84" y="104.00" xlink:href="#hd"/>
<path d="M193.34 104.00v34.90" class="stroke"/>
<use x="213.54" y="110.00" xlink:href="#hd"/>
<path d="M210.04 110.00v27.70" class="stroke"/>
<use x="230.24" y="98.00" xlink:href="#hd"/>
<path d="M226.74 98.00v38.40" class="stroke"/>
<use x="246.84" y="104.00" xlink:href="#hd"/>
<path d="M243.34 104.00v31.10" class="stroke"/>
<path class="fill"
	d="M269.44 124.20l47.70 8.10v-3.20l-47.70 -8.10"/>
<use x="273.24" y="101.00" xlink:href="#hd"/>
<path d="M269.74 101.00v22.30" class="stroke"/>
<use x="296.74" y="107.00" xlink:href="#hd"/>
<path d="M293.24 107.00v20.20" class="stroke"/>
<use x="320.24" y="113.00" xlink:href="#hd"/>
<path d="M316.74 113.00v18.20" class="stroke"/>
<path class="fill"
	d="M348.14 142.80l67.40 -6.50v-3.20l-67.40 6.50"/>
<path class="fill"
	d="M348.44 137.80l50.00 -4.80v-3.20l-50.00 4.80"/>
<use x="351.94" y="110.00" xlink:href="#hd"/>
<path d="M348.44 110.00v31.80" class="stroke"/>
<use x="368.64" y="119.00" xlink:href="#hd"/>
<path d="M365.14 119.00v21.20" class="stroke"/>
<use x="385.34" y="104.00" xlink:href="#hd"/>
<path d="M381.84 104.00v34.60" class="stroke"/>
<use x="401.94" y="110.00" xlink:href="#hd"/>
<path d="M398.44 110.00v27.00" class="stroke"/>
<use x="418.64" y="98.00" xlink:href="#hd"/>
<path d="M415.14 98.00v37.40" class="stroke"/>
<path class="fill"
	d="M446.54 133.00l86.70 0.00v-3.20l-86.70 -0.00"/>
<path class="fill"
	d="M446.84 128.00l86.00 0.00v-3.20l-86.00 -0.00"/>
<use x="450.34" y="107.00" xlink:href="#hd"/>
<path d="M446.84 107.00v24.90" class="stroke"/>
<use x="468.34" y="110.00" xlink:href="#hd"/>
<defs>
<path id="usharp" class="fill" d="
	m136 -702
	v890
	h32
	v-890
	m128 840
	h32
	v-888
	h-32
	m-232 286
	v116
	l338 -96
	v-116
	m-338 442
	v116
	l338 -98
	v-114"/>
<use id="sh0" transform="translate(-4,5) scale(0.018)"
	xlink:href="#usharp"/>
</defs>
<use x="459.34" y="110.00" xlink:href="#sh0"/>
<path d="M464.84 110.00v21.90" class="stroke"/>
<use x="485.04" y="107.00" xlink:href="#hd"/>
<path d="M481.54 107.00v24.90" class="stroke"/>
<use x="503.04" y="101.00" xlink:href="#hd"/>
<use x="494.04" y="101.00" xlink:href="#sh0"/>
<path d="M499.54 101.00v30.90" class="stroke"/>
<defs>
<path id="hl" class="stroke" d="m-6 0h12"/>
</defs>
<use x="519.74" y="95.00" xlink:href="#hl"/>
<use x="519.74" y="95.00" xlink:href="#hd"/>
<path d="M516.24 95.00v36.90" class="stroke"/>
<use x="536.34" y="101.00" xlink:href="#hd"/>
<path d="M532.84 101.00v30.90" class="stroke"/>
<path class="fill"
	d="M558.94 127.00l68.70 0.00v-3.20l-68.70 -0.00"/>
<path class="fill"
	d="M559.24 122.00l51.40 0.00v-3.20l-51.40 -0.00"/>
<use x="562.74" y="98.00" xlink:href="#hd"/>
<path d="M559.24 98.00v28.00" class="stroke"/>
<use x="580.74" y="101.00" xlink:href="#hd"/>
<use x="571.74" y="101.00" xlink:href="#sh0"/>
<path d="M577.24 101.00v25.00" class="stroke"/>
<use x="597.44" y="98.00" xlink:href="#hd"/>
<path d="M593.94 98.00v28.00" class="stroke"/>
<use x="614.14" y="95.00" xlink:href="#hl"/>
<use x="614.14" y="92.00" xlink:href="#hd"/>
<path d="M610.64 92.00v34.00" class="stroke"/>
<use x="630.84" y="107.00" xlink:href="#hd"/>
<path d="M627.34 107.00v19.00" class="stroke"/>
<path class="fill"
	d="M658.64 130.60l84.10 7.60v-3.20l-84.10 -7.60"/>
<path class="fill"
	d="M658.94 125.60l83.40 7.60v-3.20l-83.40 -7.60"/>
<use x="662.44" y="104.00" xlink:href="#hd"/>
<path d="M658.94 104.00v25.60" class="stroke"/>
<use x="679.14" y="98.00" xlink:href="#hd"/>
<path d="M675.64 98.00v33.10" class="stroke"/>
<use x="695.84" y="107.00" xlink:href="#hd"/>
<path d="M692.34 107.00v25.70" class="stroke"/>
<use x="712.54" y="110.00" xlink:href="#hd"/>
<path d="M709.04 110.00v24.20" class="stroke"/>
<use x="729.24" y="113.00" xlink:href="#hd"/>
<path d="M725.74 113.00v22.70" class="stroke"/>
<use x="745.84" y="116.00" xlink:href="#hd"/>
<path d="M742.34 116.00v21.20" class="stroke"/>
<use x="772.24" y="98.00" xlink:href="#hd"/>
<path d="M768.74 98.00v40.00" class="stroke"/>
<use x="772.24" y="119.00" xlink:href="#hd"/>
<use x="772.24" y="113.00" xlink:href="#hd"/>
<use x="772.24" y="107.00" xlink:href="#hd"/>
<defs>
<path id="r8e" class="fill" d="m 0 0
	c-1.5 1.5 -2.4 2 -3.6 2
	2.4 -2.8 -2.8 -4 -2.8 -1.2
	c0 2.7 4.3 2.4 5.9 0.6"/>
<g id="r8">
	<path d="m3.3 -4l-3.4 9.6" class="stroke"/>
	<use x="3.4" y="-4" xlink:href="#r8e"/>
</g>
</defs>
<use x="830.44" y="113.00" xlink:href="#r8"/>
<defs>
<path id="ubclef" class="fill" d="m-200 -87
	c124 -35 222 -78 254 -236
	43 -228 -167 -246 -192 -103
	59 -80 157 22 92 78
	-62 47 -115 -22 -106 -88
	21 -141 270 -136 274 52
	-1 175 -106 264 -322 297
	m357 -250
	c0 -36 51 -34 51 0
	0 37 -51 36 -51 0
	m-2 -129
	c0 -36 51 -34 51 0
	0 38 -51 37 -51 0"/>
<use id="bclef" transform="translate(0,18) scale(0.045)"
	xlink:href="#ubclef"/>
</defs>
<use x="23.54" y="165.00" xlink:href="#bclef"/>
<g font-family="serif" font-size="16" font-weight="bold" font-style="normal"
	transform="translate(42.04,182.50) scale(1.2,1)">
	<text text-anchor="middle">8</text>
	<text y="-12" text-anchor="middle">3</text>
</g>
<use x="84.84" y="168.00" xlink:href="#hd"/>
<path d="M81.34 168.00v25.00" class="stroke"/>
<use x="84.84" y="174.00" xlink:href="#hd"/>
<use x="131.74" y="171.00" xlink:href="#r8"/>
<use x="163.44" y="168.00" xlink:href="#hd"/>
<path d="M159.94 168.00v25.00" class="stroke"/>
<use x="163.44" y="174.00" xlink:href="#hd"/>
<use x="230.24" y="171.00" xlink:href="#r8"/>
<use x="273.24" y="156.00" xlink:href="#hd"/>
<path d="M269.74 156.00v25.00" class="stroke"/>
<use x="273.24" y="162.00" xlink:href="#hd"/>
<use x="320.24" y="171.00" xlink:href="#r8"/>
<use x="351.94" y="162.00" xlink:href="#hd"/>
<path d="M348.44 162.00v25.00" class="stroke"/>
<use x="351.94" y="168.00" xlink:href="#hd"/>
<use x="418.64" y="171.00" xlink:href="#r8"/>
<use x="450.34" y="174.00" xlink:href="#hd"/>
<path d="M453.84 174.00v-21.00" class="stroke"/>
<use x="519.74" y="171.00" xlink:href="#r8"/>
<path class="fill"
	d="M565.94 149.50l68.70 -4.70v3.20l-68.70 4.70"/>
<use x="562.74" y="177.00" xlink:href="#hd"/>
<path d="M566.24 177.00v-26.60" class="stroke"/>
<use x="562.74" y="171.00" xlink:href="#hd"/>
<use x="597.44" y="177.00" xlink:href="#hd"/>
<path d="M600.94 177.00v-28.90" class="stroke"/>
<use x="597.44" y="171.00" xlink:href="#hd"/>
<use x="630.84" y="177.00" xlink:href="#hd"/>
<path d="M634.34 177.00v-31.20" class="stroke"/>
<use x="630.84" y="162.00" xlink:href="#hd"/>
<path class="fill"
	d="M665.64 147.70l67.40 8.20v3.20l-67.40 -8.20"/>
<use x="662.44" y="174.00" xlink:href="#hd"/>
<path d="M665.94 174.00v-25.30" class="stroke"/>
<use x="695.84" y="171.00" xlink:href="#hd"/>
<path d="M699.34 171.00v-18.20" class="stroke"/>
<use x="729.24" y="189.00" xlink:href="#hl"/>
<use x="729.24" y="192.00" xlink:href="#hd"/>
<path d="M732.74 192.00v-35.10" class="stroke"/>
<path class="fill"
	d="M768.44 202.20l75.50 0.00v-3.20l-75.50 -0.00"/>
<path class="fill"
	d="M792.24 197.20l51.40 0.00v-3.20l-51.40 -0.00"/>
<use x="772.24" y="183.00" xlink:href="#hd"/>
<path d="M768.74 183.00v18.20" class="stroke"/>
<use x="795.74" y="162.00" xlink:href="#hd"/>
<path d="M792.24 162.00v39.20" class="stroke"/>
<use x="813.74" y="165.00" xlink:href="#hd"/>
<defs>
<path id="unat" class="fill" d="
	m96 -750
	h-32
	v716
	l32 -8
	182 -54
	v282
	h32
	v-706
	l-34 10
	-180 50
	v-290
	m0 592
	v-190
	l182 -52
	v188"/>
<use id="nt0" transform="translate(-3,5) scale(0.018)"
	xlink:href="#unat"/>
</defs>
<use x="804.74" y="165.00" xlink:href="#nt0"/>
<path d="M810.24 165.00v36.20" class="stroke"/>
<use x="830.44" y="168.00" xlink:href="#hd"/>
<path d="M826.94 168.00v33.20" class="stroke"/>
<use x="847.14" y="171.00" xlink:href="#hd"/>
<path d="M843.64 171.00v30.20" class="stroke"/>
</g>
<g stroke-width="0.70" transform="scale(0.867)" font-family="Times" font-size="13.00">
<path class="stroke" stroke-width="1"
	d="M11.54 320.00v-86.00"/>
<path class="fill"
	d="M6.54 231.00
	c10.5 1 12 -4.5 12 -3.5c0 1 -3.5 5.5 -8.5 5.5
	v88.00
	c5 0 8.5 4.5 8.5 5.5c0 1 -1.5 -4.5 -12 -3.5"/>
<use x="143.34" y="258.00" xlink:href="#rdots"/>
<path class="stroke" stroke-width="1"
	d="M139.34 258.00v-24.00"/>
<path class="stroke" stroke-width="3"
	d="M134.84 258.00v-24.00"/>
<use x="143.34" y="320.00" xlink:href="#rdots"/>
<path class="stroke" stroke-width="1"
	d="M139.34 320.00v-62.00"/>
<path class="stroke" stroke-width="3"
	d="M134.84 320.00v-62.00"/>
<path class="stroke" stroke-width="1"
	d="M229.94 258.00v-24.00"/>
<path class="stroke" stroke-width="1"
	d="M229.94 320.00v-62.00"/>
<path class="stroke" stroke-width="1"
	d="M328.44 258.00v-24.00"/>
<path class="stroke" stroke-width="1"
	d="M328.44 320.00v-62.00"/>
<path class="stroke" stroke-width="1"
	d="M409.44 258.00v-24.00"/>
<path class="stroke" stroke-width="1"
	d="M409.44 320.00v-62.00"/>
<path class="stroke" stroke-width="1"
	d="M497.14 258.00v-24.00"/>
<path class="stroke" stroke-width="1"
	d="M497.14 320.00v-62.00"/>
<path class="stroke" stroke-width="1"
	d="M586.64 258.00v-24.00"/>
<path class="stroke" stroke-width="1"
	d="M586.64 320.00v-62.00"/>
<path class="stroke" stroke-width="1"
	d="M685.14 258.00v-24.00"/>
<path class="stroke" stroke-width="1"
	d="M685.14 320.00v-62.00"/>
<path class="stroke" stroke-width="1"
	d="M783.64 258.00v-24.00"/>
<path class="stroke" stroke-width="1"
	d="M783.64 320.00v-62.00"/>
<path class="stroke" stroke-width="3"
	d="M860.54 258.00v-24.00"/>
<path class="stroke" stroke-width="1"
	d="M856.04 258.00v-24.00"/>
<use x="852.04" y="258.00" xlink:href="#rdots"/>
<path class="stroke" stroke-width="3"
	d="M860.54 320.00v-62.00"/>
<path class="stroke" stroke-width="1"
	d="M856.04 320.00v-62.00"/>
<use x="852.04" y="320.00" xlink:href="#rdots"/>
<path d="m11.54 258.00
	h850.50
	M11.54 252.00
	h850.50
	M11.54 246.00
	h850.50
	M11.54 240.00
	h850.50
	M11.54 234.00
	h850.50
	" class="stroke"/>
<path d="m11.54 320.00
	h850.50
	M11.54 314.00
	h850.50
	M11.54 308.00
	h850.50
	M11.54 302.00
	h850.50
	M11.54 296.00
	h850.50
	" class="stroke"/>
<text x="47.54" y="219.40">2</text>
<path class="stroke"
	d="M43.54 208.00m0 20v-20h88.80v20"/>
<use x="23.54" y="252.00" xlink:href="#tclef"/>
<use x="56.04" y="231.00" xlink:href="#hd"/>
<path d="M52.54 231.00v40.00" class="stroke"/>
<use x="56.04" y="252.00" xlink:href="#hd"/>
<use x="56.04" y="246.00" xlink:href="#hd"/>
<use x="56.04" y="240.00" xlink:href="#hd"/>
<use x="109.24" y="246.00" xlink:href="#r8"/>
<path class="fill"
	d="M159.04 272.50l51.40 -4.60v-3.20l-51.40 4.60"/>
<path class="fill"
	d="M159.34 267.50l14.70 -1.30v-3.20l-14.70 1.30"/>
<use x="162.84" y="240.00" xlink:href="#hd"/>
<path d="M159.34 240.00v31.50" class="stroke"/>
<use x="177.54" y="249.00" xlink:href="#hd"/>
<path d="M174.04 249.00v21.20" class="stroke"/>
<use x="192.24" y="240.00" xlink:href="#hd"/>
<path d="M188.74 240.00v28.90" class="stroke"/>
<use x="213.54" y="234.00" xlink:href="#hd"/>
<use x="204.54" y="234.00" xlink:href="#sh0"/>
<path d="M210.04 234.00v33.00" class="stroke"/>
<path class="fill"
	d="M238.64 260.00l74.20 0.00v-3.20l-74.20 -0.00"/>
<path class="fill"
	d="M238.94 255.00l73.50 0.00v-3.20l-73.50 -0.00"/>
<use x="242.44" y="228.00" xlink:href="#hl"/>
<use x="242.44" y="228.00" xlink:href="#hd"/>
<path d="M238.94 228.00v31.00" class="stroke"/>
<use x="257.14" y="231.00" xlink:href="#hd"/>
<path d="M253.64 231.00v28.00" class="stroke"/>
<use x="271.84" y="228.00" xlink:href="#hl"/>
<use x="271.84" y="225.00" xlink:href="#hd"/>
<path d="M268.34 225.00v34.00" class="stroke"/>
<use x="286.54" y="231.00" xlink:href="#hd"/>
<path d="M283.04 231.00v28.00" class="stroke"/>
<use x="301.24" y="240.00" xlink:href="#hd"/>
<path d="M297.74 240.00v19.00" class="stroke"/>
<use x="315.94" y="231.00" xlink:href="#hd"/>
<path d="M312.44 231.00v28.00" class="stroke"/>
<path class="fill"
	d="M337.14 265.60l30.10 5.70v-3.20l-30.10 -5.70"/>
<path class="fill"
	d="M337.44 260.60l14.70 2.80v-3.20l-14.70 -2.80"/>
<use x="340.94" y="237.00" xlink:href="#hd"/>
<path d="M337.44 237.00v27.60" class="stroke"/>
<use x="355.64" y="243.00" xlink:href="#hd"/>
<path d="M352.14 243.00v24.40" class="stroke"/>
<use x="370.34" y="252.00" xlink:href="#hd"/>
<path d="M366.84 252.00v18.20" class="stroke"/>
<use x="393.04" y="237.00" xlink:href="#hd"/>
<path d="M389.54 237.00v21.00" class="stroke"/>
<path class="fill"
	d="M389.54 258.00c0.6 -5.6 9.6 -9 5.6 -18.4
	1.6 6 -1.3 11.6 -5.6 12.8
"/>
<path class="fill"
	d="M418.04 264.90l59.50 6.30v-3.20l-59.50 -6.30"/>
<path class="fill"
	d="M418.44 260.00l44.10 4.70v-3.20l-44.10 -4.70"/>
<use x="421.94" y="237.00" xlink:href="#hd"/>
<path d="M418.44 237.00v27.00" class="stroke"/>
<use x="436.64" y="243.00" xlink:href="#hd"/>
<path d="M433.14 243.00v22.50" class="stroke"/>
<use x="451.34" y="240.00" xlink:href="#hd"/>
<path d="M447.84 240.00v27.10" class="stroke"/>
<use x="466.04" y="246.00" xlink:href="#hd"/>
<path d="M462.54 246.00v22.60" class="stroke"/>
<use x="480.74" y="252.00" xlink:href="#hd"/>
<path d="M477.24 252.00v18.20" class="stroke"/>
<path class="fill"
	d="M505.74 256.30l65.20 8.90v-3.20l-65.20 -8.90"/>
<path class="fill"
	d="M526.54 254.20l44.10 6.00v-3.20l-44.10 -6.00"/>
<use x="509.64" y="231.00" xlink:href="#hd"/>
<path d="M506.14 231.00v24.40" class="stroke"/>
<use x="530.04" y="234.00" xlink:href="#hd"/>
<path d="M526.54 234.00v24.20" class="stroke"/>
<use x="544.74" y="237.00" xlink:href="#hd"/>
<path d="M541.24 237.00v23.20" class="stroke"/>
<use x="559.44" y="240.00" xlink:href="#hd"/>
<path d="M555.94 240.00v22.20" class="stroke"/>
<use x="574.14" y="243.00" xlink:href="#hd"/>
<path d="M570.64 243.00v21.20" class="stroke"/>
<path class="fill"
	d="M595.34 272.80l59.50 -3.20v-3.20l-59.50 3.20"/>
<use x="599.14" y="243.00" xlink:href="#hd"/>
<path d="M595.64 243.00v28.80" class="stroke"/>
<use x="628.54" y="252.00" xlink:href="#hd"/>
<path d="M625.04 252.00v18.20" class="stroke"/>
<use x="657.94" y="237.00" xlink:href="#hd"/>
<path d="M654.44 237.00v31.60" class="stroke"/>
<path class="fill"
	d="M693.84 266.00l74.20 0.00v-3.20l-74.20 -0.00"/>
<path class="fill"
	d="M694.14 261.00l73.50 0.00v-3.20l-73.50 -0.00"/>
<use x="697.64" y="240.00" xlink:href="#hd"/>
<path d="M694.14 240.00v24.90" class="stroke"/>
<use x="712.34" y="234.00" xlink:href="#hd"/>
<path d="M708.84 234.00v30.90" class="stroke"/>
<use x="727.04" y="240.00" xlink:href="#hd"/>
<path d="M723.54 240.00v24.90" class="stroke"/>
<use x="741.74" y="234.00" xlink:href="#hd"/>
<path d="M738.24 234.00v30.90" class="stroke"/>
<use x="756.44" y="246.00" xlink:href="#hd"/>
<path d="M752.94 246.00v18.90" class="stroke"/>
<use x="771.14" y="240.00" xlink:href="#hd"/>
<path d="M767.64 240.00v24.90" class="stroke"/>
<path class="fill"
	d="M799.34 223.70l21.10 7.10v3.20l-21.10 -7.10"/>
<use x="796.14" y="243.00" xlink:href="#hd"/>
<path d="M799.64 243.00v-18.20" class="stroke"/>
<use x="816.54" y="264.00" xlink:href="#hl"/>
<use x="816.54" y="264.00" xlink:href="#hd"/>
<path d="M820.04 264.00v-32.30" class="stroke"/>
<use x="837.04" y="246.00" xlink:href="#r8"/>
<use x="23.54" y="302.00" xlink:href="#bclef"/>
<path class="fill"
	d="M52.24 339.20l68.50 -5.00v-3.20l-68.50 5.00"/>
<path class="fill"
	d="M73.04 332.70l47.40 -3.40v-3.20l-47.40 3.40"/>
<use x="56.04" y="320.00" xlink:href="#hd"/>
<path d="M52.54 320.00v18.20" class="stroke"/>
<use x="76.54" y="293.00" xlink:href="#hd"/>
<path d="M73.04 293.00v43.70" class="stroke"/>
<use x="91.24" y="299.00" xlink:href="#hd"/>
<path d="M87.74 299.00v36.60" class="stroke"/>
<use x="109.24" y="302.00" xlink:href="#hd"/>
<use x="100.24" y="302.00" xlink:href="#sh0"/>
<path d="M105.74 302.00v32.30" class="stroke"/>
<use x="123.84" y="305.00" xlink:href="#hd"/>
<path d="M120.34 305.00v28.30" class="stroke"/>
<use x="162.84" y="302.00" xlink:href="#hd"/>
<use x="153.84" y="302.00" xlink:href="#sh0"/>
<path d="M166.34 302.00v-21.00" class="stroke"/>
<use x="213.54" y="308.00" xlink:href="#r8"/>
<use x="242.44" y="314.00" xlink:href="#hd"/>
<path d="M245.94 314.00v-25.00" class="stroke"/>
<use x="242.44" y="308.00" xlink:href="#hd"/>
<use x="301.24" y="314.00" xlink:href="#hd"/>
<path d="M304.74 314.00v-25.00" class="stroke"/>
<path class="fill"
	d="M304.74 289.00c0.6 5.6 9.6 9 5.6 18.4
	1.6 -6 -1.3 -11.6 -5.6 -12.8
"/>
<use x="301.24" y="308.00" xlink:href="#hd"/>
<use x="340.94" y="299.00" xlink:href="#hd"/>
<path d="M337.44 299.00v31.00" class="stroke"/>
<use x="340.94" y="311.00" xlink:href="#hd"/>
<use x="393.04" y="299.00" xlink:href="#hd"/>
<path d="M389.54 299.00v31.00" class="stroke"/>
<path class="fill"
	d="M389.54 330.00c0.6 -5.6 9.6 -9 5.6 -18.4
	1.6 6 -1.3 11.6 -5.6 12.8
"/>
<use x="393.04" y="311.00" xlink:href="#hd"/>
<use x="421.94" y="299.00" xlink:href="#hd"/>
<path d="M418.44 299.00v21.00" class="stroke"/>
<use x="480.74" y="308.00" xlink:href="#r8"/>
<use x="509.64" y="305.00" xlink:href="#hd"/>
<path d="M506.14 305.00v25.00" class="stroke"/>
<use x="509.64" y="311.00" xlink:href="#hd"/>
<use x="559.44" y="308.00" xlink:href="#r8"/>
<path class="fill"
	d="M595.34 327.90l74.20 0.00v-3.20l-74.20 -0.00"/>
<path class="fill"
	d="M595.64 322.90l73.50 0.00v-3.20l-73.50 -0.00"/>
<use x="599.14" y="305.00" xlink:href="#hd"/>
<path d="M595.64 305.00v21.90" class="stroke"/>
<use x="599.14" y="311.00" xlink:href="#hd"/>
<use x="613.84" y="299.00" xlink:href="#hd"/>
<path d="M610.34 299.00v27.90" class="stroke"/>
<use x="628.54" y="305.00" xlink:href="#hd"/>
<path d="M625.04 305.00v21.90" class="stroke"/>
<use x="628.54" y="311.00" xlink:href="#hd"/>
<use x="643.24" y="299.00" xlink:href="#hd"/>
<path d="M639.74 299.00v27.90" class="stroke"/>
<use x="657.94" y="305.00" xlink:href="#hd"/>
<path d="M654.44 305.00v21.90" class="stroke"/>
<use x="657.94" y="311.00" xlink:href="#hd"/>
<use x="672.64" y="299.00" xlink:href="#hd"/>
<path d="M669.14 299.00v27.90" class="stroke"/>
<use x="697.64" y="296.00" xlink:href="#hd"/>
<path d="M694.14 296.00v25.00" class="stroke"/>
<use x="697.64" y="302.00" xlink:href="#hd"/>
<use x="756.44" y="290.00" xlink:href="#hl"/>
<use x="756.44" y="287.00" xlink:href="#hd"/>
<path d="M752.94 287.00v31.00" class="stroke"/>
<path class="fill"
	d="M752.94 318.00c0.6 -5.6 9.6 -9 5.6 -18.4
	1.6 6 -1.3 11.6 -5.6 12.8
"/>
<use x="756.44" y="299.00" xlink:href="#hd"/>
<use x="796.14" y="311.00" xlink:href="#hd"/>
<path d="M799.64 311.00v-21.00" class="stroke"/>
<use x="837.04" y="326.00" xlink:href="#hl"/>
<use x="837.04" y="332.00" xlink:href="#hl"/>
<use x="837.04" y="332.00" xlink:href="#hd"/>
<path d="M840.54 332.00v-24.00" class="stroke"/>
<path class="fill"
	d="M840.54 308.00c0.6 5.6 9.6 9 5.6 18.4
	1.6 -6 -1.3 -11.6 -5.6 -12.8
"/>
<use x="162.84" y="308.00" xlink:href="#hd"/>
<path d="M159.34 308.00v21.00" class="stroke"/>
</g>
</svg>
