<?xml version="1.0" standalone="no"?>
<!DOCTYPE svg PUBLIC "-//W3C//DTD SVG 1.1//EN"
	"http://www.w3.org/Graphics/SVG/1.1/DTD/svg11.dtd">
<svg xmlns="http://www.w3.org/2000/svg" version="1.1"
	xmlns:xlink="http://www.w3.org/1999/xlink"
	color="black"
	width="757.10px" height="296.40px">
<style type="text/css">
.fill {fill: currentColor}
.stroke {stroke: currentColor; fill: none}
text{white-space: pre}
</style>
<title>./K516f-3-8-5-11-2-5-8-2-8-6-7-6-2-9-8-3.abc (2292) tune 1</title>
<!-- Creator: abcm2ps-8.13.8 -->
<!-- CreationDate: Sep  7, 2017 11:20 -->
<!-- CommandLine: ./K516f-3-8-5-11-2-5-8-2-8-6-7-6-2-9-8-3.abc -O ./K516f-3-8-5-11-2-5-8-2-8-6-7-6-2-9-8-3.svg -g -->
<rect width="100%" height="100%" fill="white"/>
<g stroke-width="0.70" transform="scale(0.867)">
<!-- title: 3-8-5-11-2-5-8-2-8-6-7-6-2-9-8-3 -->
</g>
<g stroke-width="0.70" transform="scale(0.867)" font-family="Times" font-size="20.00">
<text x="436.84" y="22.00" text-anchor="middle">3-8-5-11-2-5-8-2-8-6-7-6-2-9-8-3</text>
</g>
<g stroke-width="0.70" transform="scale(0.867)" font-family="Times" font-size="20.00">
<!-- subtitle: $1K.516f::32:60:113:61:105:2:21:30:16:143:150:125:112:115:89:83::$0 -->
</g>
<g stroke-width="0.70" transform="scale(0.867)" font-family="Courier" font-size="8.00" font-weight="bold">
<text x="436.84" y="41.80" text-anchor="middle">K.516f::32:60:113:61:105:2:21:30:16:143:150:125:112:115:89:83::</text>
</g>
<g stroke-width="0.70" transform="scale(0.867)" font-family="Courier" font-size="8.00" font-weight="bold">
<!-- subtitle: $1Perm. No.: 229221796420971$0 -->
<text x="436.84" y="60.80" text-anchor="middle">Perm. No.: 229221796420971</text>
</g>
<g stroke-width="0.70" transform="scale(0.607)" font-family="Courier" font-size="8.00" font-weight="bold">
<defs>
<ellipse id="hd" rx="4.1" ry="2.9"
	transform="rotate(-20)" class="fill"/>
</defs>
<use x="103.06" y="121.29" xlink:href="#hd"/>
<path d="M106.56 121.29v-21.00" class="stroke"/>
<path class="fill"
	d="M106.56 100.29c0.6 5.6 9.6 9 5.6 18.4
	1.6 -6 -1.3 -11.6 -5.6 -12.8
"/>
</g>
<g stroke-width="0.70" transform="scale(0.867)" font-family="Times" font-size="15.00" font-weight="bold">
<text x="81.24" y="87.00">= 111</text>
<path class="stroke" stroke-width="1"
	d="M11.54 183.00v-82.00"/>
<path class="fill"
	d="M6.54 98.00
	c10.5 1 12 -4.5 12 -3.5c0 1 -3.5 5.5 -8.5 5.5
	v84.00
	c5 0 8.5 4.5 8.5 5.5c0 1 -1.5 -4.5 -12 -3.5"/>
<defs>
<g id="rdots" class="fill">
	<circle cx="0" cy="-9" r="1.2"/>
	<circle cx="0" cy="-15" r="1.2"/>
</g>
</defs>
<use x="70.54" y="125.00" xlink:href="#rdots"/>
<path class="stroke" stroke-width="1"
	d="M66.54 125.00v-24.00"/>
<path class="stroke" stroke-width="3"
	d="M62.04 125.00v-24.00"/>
<use x="70.54" y="183.00" xlink:href="#rdots"/>
<path class="stroke" stroke-width="1"
	d="M66.54 183.00v-58.00"/>
<path class="stroke" stroke-width="3"
	d="M62.04 183.00v-58.00"/>
<path class="stroke" stroke-width="1"
	d="M153.04 125.00v-24.00"/>
<path class="stroke" stroke-width="1"
	d="M153.04 183.00v-58.00"/>
<path class="stroke" stroke-width="1"
	d="M256.54 125.00v-24.00"/>
<path class="stroke" stroke-width="1"
	d="M256.54 183.00v-58.00"/>
<path class="stroke" stroke-width="1"
	d="M338.04 125.00v-24.00"/>
<path class="stroke" stroke-width="1"
	d="M338.04 183.00v-58.00"/>
<path class="stroke" stroke-width="1"
	d="M429.84 125.00v-24.00"/>
<path class="stroke" stroke-width="1"
	d="M429.84 183.00v-58.00"/>
<path class="stroke" stroke-width="1"
	d="M538.14 125.00v-24.00"/>
<path class="stroke" stroke-width="1"
	d="M538.14 183.00v-58.00"/>
<path class="stroke" stroke-width="1"
	d="M641.64 125.00v-24.00"/>
<path class="stroke" stroke-width="1"
	d="M641.64 183.00v-58.00"/>
<path class="stroke" stroke-width="1"
	d="M755.94 125.00v-24.00"/>
<path class="stroke" stroke-width="1"
	d="M755.94 183.00v-58.00"/>
<path class="stroke" stroke-width="3"
	d="M860.54 125.00v-24.00"/>
<path class="stroke" stroke-width="1"
	d="M856.04 125.00v-24.00"/>
<use x="852.04" y="125.00" xlink:href="#rdots"/>
<path class="stroke" stroke-width="3"
	d="M860.54 183.00v-58.00"/>
<path class="stroke" stroke-width="1"
	d="M856.04 183.00v-58.00"/>
<use x="852.04" y="183.00" xlink:href="#rdots"/>
<path d="m11.54 125.00
	h850.50
	M11.54 119.00
	h850.50
	M11.54 113.00
	h850.50
	M11.54 107.00
	h850.50
	M11.54 101.00
	h850.50
	" class="stroke"/>
<path d="m11.54 183.00
	h850.50
	M11.54 177.00
	h850.50
	M11.54 171.00
	h850.50
	M11.54 165.00
	h850.50
	M11.54 159.00
	h850.50
	" class="stroke"/>
</g>
<g stroke-width="0.70" transform="scale(0.867)" font-family="Times" font-size="13.00">
<text x="759.94" y="86.40">1</text>
<path class="stroke"
	d="M755.94 75.00m0 20v-20h98.10v20"/>
<defs>
<path id="utclef" class="fill" d="m-50 -90
	c-72 -41 -72 -158 52 -188
	150 -10 220 188 90 256
	-114 52 -275 0 -293 -136
	-15 -181 93 -229 220 -334
	88 -87 79 -133 62 -210
	-51 33 -94 105 -89 186
	17 267 36 374 49 574
	6 96 -19 134 -77 135
	-80 1 -126 -93 -61 -133
	85 -41 133 101 31 105
	23 17 92 37 90 -92
	-10 -223 -39 -342 -50 -617
	0 -90 0 -162 96 -232
	56 72 63 230 22 289
	-74 106 -257 168 -255 316
	9 153 148 185 252 133
	86 -65 29 -192 -80 -176
	-71 12 -105 67 -59 124"/>
<use id="tclef" transform="translate(0,6) scale(0.045)"
	xlink:href="#utclef"/>
</defs>
<use x="23.54" y="119.00" xlink:href="#tclef"/>
<g font-family="serif" font-size="16" font-weight="bold" font-style="normal"
	transform="translate(42.04,124.50) scale(1.2,1)">
	<text text-anchor="middle">8</text>
	<text y="-12" text-anchor="middle">3</text>
</g>
<path class="fill"
	d="M81.34 138.20l49.50 -6.70v-3.20l-49.50 6.70"/>
<use x="85.24" y="119.00" xlink:href="#hd"/>
<path d="M81.74 119.00v18.20" class="stroke"/>
<use x="109.64" y="110.00" xlink:href="#hd"/>
<path d="M106.14 110.00v23.90" class="stroke"/>
<use x="134.04" y="104.00" xlink:href="#hd"/>
<path d="M130.54 104.00v26.60" class="stroke"/>
<path class="fill"
	d="M162.94 122.90l77.00 9.30v-3.20l-77.00 -9.30"/>
<path class="fill"
	d="M187.64 120.90l51.90 6.30v-3.20l-51.90 -6.30"/>
<use x="166.74" y="98.00" xlink:href="#hd"/>
<path d="M163.24 98.00v24.00" class="stroke"/>
<use x="191.14" y="101.00" xlink:href="#hd"/>
<path d="M187.64 101.00v23.90" class="stroke"/>
<use x="208.44" y="104.00" xlink:href="#hd"/>
<path d="M204.94 104.00v23.00" class="stroke"/>
<use x="225.74" y="107.00" xlink:href="#hd"/>
<path d="M222.24 107.00v22.10" class="stroke"/>
<use x="243.04" y="110.00" xlink:href="#hd"/>
<path d="M239.54 110.00v21.20" class="stroke"/>
<path class="fill"
	d="M266.34 124.10l49.50 8.20v-3.20l-49.50 -8.20"/>
<use x="270.24" y="101.00" xlink:href="#hd"/>
<path d="M266.74 101.00v22.20" class="stroke"/>
<use x="294.64" y="107.00" xlink:href="#hd"/>
<path d="M291.14 107.00v20.20" class="stroke"/>
<use x="319.04" y="113.00" xlink:href="#hd"/>
<path d="M315.54 113.00v18.20" class="stroke"/>
<path class="fill"
	d="M347.94 135.40l59.70 -4.50v-3.20l-59.70 4.50"/>
<path class="fill"
	d="M372.64 128.50l17.30 -1.30v-3.20l-17.30 1.30"/>
<use x="351.74" y="110.00" xlink:href="#hd"/>
<path d="M348.24 110.00v24.40" class="stroke"/>
<use x="376.14" y="104.00" xlink:href="#hd"/>
<path d="M372.64 104.00v28.50" class="stroke"/>
<use x="393.44" y="110.00" xlink:href="#hd"/>
<path d="M389.94 110.00v21.20" class="stroke"/>
<use x="410.74" y="98.00" xlink:href="#hd"/>
<path d="M407.24 98.00v31.90" class="stroke"/>
<path class="fill"
	d="M444.44 127.00l77.00 0.00v-3.20l-77.00 -0.00"/>
<path class="fill"
	d="M469.24 122.00l51.90 0.00v-3.20l-51.90 -0.00"/>
<use x="448.34" y="101.00" xlink:href="#hd"/>
<defs>
<path id="usharp" class="fill" d="
	m136 -702
	v890
	h32
	v-890
	m128 840
	h32
	v-888
	h-32
	m-232 286
	v116
	l338 -96
	v-116
	m-338 442
	v116
	l338 -98
	v-114"/>
<use id="sh0" transform="translate(-4,5) scale(0.018)"
	xlink:href="#usharp"/>
</defs>
<use x="439.34" y="101.00" xlink:href="#sh0"/>
<path d="M444.84 101.00v25.00" class="stroke"/>
<defs>
<path id="hl" class="stroke" d="m-6 0h12"/>
</defs>
<use x="472.74" y="95.00" xlink:href="#hl"/>
<use x="472.74" y="95.00" xlink:href="#hd"/>
<path d="M469.24 95.00v31.00" class="stroke"/>
<use x="490.04" y="101.00" xlink:href="#hd"/>
<path d="M486.54 101.00v25.00" class="stroke"/>
<use x="507.24" y="107.00" xlink:href="#hd"/>
<path d="M503.74 107.00v19.00" class="stroke"/>
<use x="524.54" y="101.00" xlink:href="#hd"/>
<path d="M521.04 101.00v25.00" class="stroke"/>
<path class="fill"
	d="M554.94 85.40l77.10 -7.60v3.20l-77.10 7.60"/>
<path class="fill"
	d="M579.74 87.90l51.90 -5.10v3.20l-51.90 5.10"/>
<use x="551.74" y="116.00" xlink:href="#hd"/>
<path d="M555.24 116.00v-29.70" class="stroke"/>
<use x="576.24" y="122.00" xlink:href="#hd"/>
<use x="567.24" y="122.00" xlink:href="#sh0"/>
<path d="M579.74 122.00v-38.10" class="stroke"/>
<use x="593.54" y="119.00" xlink:href="#hd"/>
<path d="M597.04 119.00v-36.80" class="stroke"/>
<use x="610.84" y="113.00" xlink:href="#hd"/>
<path d="M614.34 113.00v-32.50" class="stroke"/>
<use x="628.14" y="98.00" xlink:href="#hd"/>
<path d="M631.64 98.00v-19.20" class="stroke"/>
<path class="fill"
	d="M651.44 138.20l87.80 0.00v-3.20l-87.80 -0.00"/>
<path class="fill"
	d="M651.84 133.20l87.20 0.00v-3.20l-87.20 -0.00"/>
<use x="655.34" y="110.00" xlink:href="#hd"/>
<path d="M651.84 110.00v27.20" class="stroke"/>
<use x="672.64" y="104.00" xlink:href="#hd"/>
<path d="M669.14 104.00v33.20" class="stroke"/>
<use x="689.84" y="98.00" xlink:href="#hd"/>
<path d="M686.34 98.00v39.20" class="stroke"/>
<use x="707.14" y="107.00" xlink:href="#hd"/>
<path d="M703.64 107.00v30.20" class="stroke"/>
<use x="724.44" y="116.00" xlink:href="#hd"/>
<path d="M720.94 116.00v21.20" class="stroke"/>
<use x="742.44" y="101.00" xlink:href="#hd"/>
<use x="733.44" y="101.00" xlink:href="#sh0"/>
<path d="M738.94 101.00v36.20" class="stroke"/>
<use x="769.64" y="98.00" xlink:href="#hd"/>
<path d="M766.14 98.00v40.00" class="stroke"/>
<use x="769.64" y="119.00" xlink:href="#hd"/>
<use x="769.64" y="113.00" xlink:href="#hd"/>
<use x="769.64" y="107.00" xlink:href="#hd"/>
<defs>
<path id="r8e" class="fill" d="m 0 0
	c-1.5 1.5 -2.4 2 -3.6 2
	2.4 -2.8 -2.8 -4 -2.8 -1.2
	c0 2.7 4.3 2.4 5.9 0.6"/>
<g id="r8">
	<path d="m3.3 -4l-3.4 9.6" class="stroke"/>
	<use x="3.4" y="-4" xlink:href="#r8e"/>
</g>
</defs>
<use x="829.34" y="113.00" xlink:href="#r8"/>
<defs>
<path id="ubclef" class="fill" d="m-200 -87
	c124 -35 222 -78 254 -236
	43 -228 -167 -246 -192 -103
	59 -80 157 22 92 78
	-62 47 -115 -22 -106 -88
	21 -141 270 -136 274 52
	-1 175 -106 264 -322 297
	m357 -250
	c0 -36 51 -34 51 0
	0 37 -51 36 -51 0
	m-2 -129
	c0 -36 51 -34 51 0
	0 38 -51 37 -51 0"/>
<use id="bclef" transform="translate(0,18) scale(0.045)"
	xlink:href="#ubclef"/>
</defs>
<use x="23.54" y="165.00" xlink:href="#bclef"/>
<g font-family="serif" font-size="16" font-weight="bold" font-style="normal"
	transform="translate(42.04,182.50) scale(1.2,1)">
	<text text-anchor="middle">8</text>
	<text y="-12" text-anchor="middle">3</text>
</g>
<use x="85.24" y="168.00" xlink:href="#hd"/>
<path d="M81.74 168.00v25.00" class="stroke"/>
<use x="85.24" y="174.00" xlink:href="#hd"/>
<use x="134.04" y="171.00" xlink:href="#r8"/>
<use x="166.74" y="168.00" xlink:href="#hd"/>
<path d="M163.24 168.00v25.00" class="stroke"/>
<use x="166.74" y="174.00" xlink:href="#hd"/>
<use x="225.74" y="171.00" xlink:href="#r8"/>
<use x="270.24" y="156.00" xlink:href="#hd"/>
<path d="M266.74 156.00v25.00" class="stroke"/>
<use x="270.24" y="162.00" xlink:href="#hd"/>
<use x="319.04" y="171.00" xlink:href="#r8"/>
<use x="351.74" y="162.00" xlink:href="#hd"/>
<path d="M348.24 162.00v25.00" class="stroke"/>
<use x="351.74" y="168.00" xlink:href="#hd"/>
<use x="410.74" y="171.00" xlink:href="#r8"/>
<use x="448.34" y="174.00" xlink:href="#hd"/>
<path d="M451.84 174.00v-21.00" class="stroke"/>
<use x="507.24" y="171.00" xlink:href="#r8"/>
<use x="551.74" y="162.00" xlink:href="#hd"/>
<path d="M548.24 162.00v34.00" class="stroke"/>
<use x="551.74" y="177.00" xlink:href="#hd"/>
<use x="610.84" y="171.00" xlink:href="#r8"/>
<path class="fill"
	d="M658.44 147.60l69.80 8.30v3.20l-69.80 -8.30"/>
<use x="655.34" y="174.00" xlink:href="#hd"/>
<path d="M658.84 174.00v-25.30" class="stroke"/>
<use x="689.84" y="171.00" xlink:href="#hd"/>
<path d="M693.34 171.00v-18.20" class="stroke"/>
<use x="724.44" y="189.00" xlink:href="#hl"/>
<use x="724.44" y="192.00" xlink:href="#hd"/>
<path d="M727.94 192.00v-35.10" class="stroke"/>
<path class="fill"
	d="M765.84 202.20l77.70 0.00v-3.20l-77.70 -0.00"/>
<path class="fill"
	d="M790.54 197.20l52.60 0.00v-3.20l-52.60 -0.00"/>
<use x="769.64" y="183.00" xlink:href="#hd"/>
<path d="M766.14 183.00v18.20" class="stroke"/>
<use x="794.04" y="162.00" xlink:href="#hd"/>
<path d="M790.54 162.00v39.20" class="stroke"/>
<use x="812.04" y="165.00" xlink:href="#hd"/>
<defs>
<path id="unat" class="fill" d="
	m96 -750
	h-32
	v716
	l32 -8
	182 -54
	v282
	h32
	v-706
	l-34 10
	-180 50
	v-290
	m0 592
	v-190
	l182 -52
	v188"/>
<use id="nt0" transform="translate(-3,5) scale(0.018)"
	xlink:href="#unat"/>
</defs>
<use x="803.04" y="165.00" xlink:href="#nt0"/>
<path d="M808.54 165.00v36.20" class="stroke"/>
<use x="829.34" y="168.00" xlink:href="#hd"/>
<path d="M825.84 168.00v33.20" class="stroke"/>
<use x="846.64" y="171.00" xlink:href="#hd"/>
<path d="M843.14 171.00v30.20" class="stroke"/>
</g>
<g stroke-width="0.70" transform="scale(0.867)" font-family="Times" font-size="13.00">
<path class="stroke" stroke-width="1"
	d="M11.54 319.00v-85.00"/>
<path class="fill"
	d="M6.54 231.00
	c10.5 1 12 -4.5 12 -3.5c0 1 -3.5 5.5 -8.5 5.5
	v87.00
	c5 0 8.5 4.5 8.5 5.5c0 1 -1.5 -4.5 -12 -3.5"/>
<use x="145.34" y="258.00" xlink:href="#rdots"/>
<path class="stroke" stroke-width="1"
	d="M141.34 258.00v-24.00"/>
<path class="stroke" stroke-width="3"
	d="M136.84 258.00v-24.00"/>
<use x="145.34" y="319.00" xlink:href="#rdots"/>
<path class="stroke" stroke-width="1"
	d="M141.34 319.00v-61.00"/>
<path class="stroke" stroke-width="3"
	d="M136.84 319.00v-61.00"/>
<path class="stroke" stroke-width="1"
	d="M225.04 258.00v-24.00"/>
<path class="stroke" stroke-width="1"
	d="M225.04 319.00v-61.00"/>
<path class="stroke" stroke-width="1"
	d="M306.64 258.00v-24.00"/>
<path class="stroke" stroke-width="1"
	d="M306.64 319.00v-61.00"/>
<path class="stroke" stroke-width="1"
	d="M412.24 258.00v-24.00"/>
<path class="stroke" stroke-width="1"
	d="M412.24 319.00v-61.00"/>
<path class="stroke" stroke-width="1"
	d="M502.64 258.00v-24.00"/>
<path class="stroke" stroke-width="1"
	d="M502.64 319.00v-61.00"/>
<path class="stroke" stroke-width="1"
	d="M603.84 258.00v-24.00"/>
<path class="stroke" stroke-width="1"
	d="M603.84 319.00v-61.00"/>
<path class="stroke" stroke-width="1"
	d="M705.14 258.00v-24.00"/>
<path class="stroke" stroke-width="1"
	d="M705.14 319.00v-61.00"/>
<path class="stroke" stroke-width="1"
	d="M786.34 258.00v-24.00"/>
<path class="stroke" stroke-width="1"
	d="M786.34 319.00v-61.00"/>
<path class="stroke" stroke-width="3"
	d="M860.54 258.00v-24.00"/>
<path class="stroke" stroke-width="1"
	d="M856.04 258.00v-24.00"/>
<use x="852.04" y="258.00" xlink:href="#rdots"/>
<path class="stroke" stroke-width="3"
	d="M860.54 319.00v-61.00"/>
<path class="stroke" stroke-width="1"
	d="M856.04 319.00v-61.00"/>
<use x="852.04" y="319.00" xlink:href="#rdots"/>
<path d="m11.54 258.00
	h850.50
	M11.54 252.00
	h850.50
	M11.54 246.00
	h850.50
	M11.54 240.00
	h850.50
	M11.54 234.00
	h850.50
	" class="stroke"/>
<path d="m11.54 319.00
	h850.50
	M11.54 313.00
	h850.50
	M11.54 307.00
	h850.50
	M11.54 301.00
	h850.50
	M11.54 295.00
	h850.50
	" class="stroke"/>
<path class="fill"
	d="M167.84 223.80c6.33 -3.48 33.91 -0.60 40.24 4.20
	v-0.24c-7.54 -6.56 -32.70 -9.44 -40.24 -3.96"/>
<text x="47.54" y="219.40">2</text>
<path class="stroke"
	d="M43.54 208.00m0 20v-20h90.80v20"/>
<use x="23.54" y="252.00" xlink:href="#tclef"/>
<use x="56.04" y="231.00" xlink:href="#hd"/>
<path d="M52.54 231.00v40.00" class="stroke"/>
<use x="56.04" y="252.00" xlink:href="#hd"/>
<use x="56.04" y="246.00" xlink:href="#hd"/>
<use x="56.04" y="240.00" xlink:href="#hd"/>
<use x="110.64" y="246.00" xlink:href="#r8"/>
<path class="fill"
	d="M161.04 251.40l43.90 7.80v-3.20l-43.90 -7.80"/>
<use x="164.84" y="228.00" xlink:href="#hl"/>
<use x="164.84" y="228.00" xlink:href="#hd"/>
<path d="M161.34 228.00v22.50" class="stroke"/>
<use x="186.74" y="234.00" xlink:href="#hd"/>
<use x="177.74" y="234.00" xlink:href="#sh0"/>
<path d="M183.24 234.00v20.40" class="stroke"/>
<use x="208.14" y="240.00" xlink:href="#hd"/>
<path d="M204.64 240.00v18.20" class="stroke"/>
<path class="fill"
	d="M233.74 262.60l52.50 8.60v-3.20l-52.50 -8.60"/>
<path class="fill"
	d="M255.34 261.20l15.20 2.50v-3.20l-15.20 -2.50"/>
<use x="237.54" y="231.00" xlink:href="#hd"/>
<path d="M234.04 231.00v30.70" class="stroke"/>
<use x="258.84" y="240.00" xlink:href="#hd"/>
<path d="M255.34 240.00v25.20" class="stroke"/>
<use x="274.14" y="246.00" xlink:href="#hd"/>
<path d="M270.64 246.00v21.70" class="stroke"/>
<use x="289.34" y="252.00" xlink:href="#hd"/>
<path d="M285.84 252.00v18.20" class="stroke"/>
<use x="319.14" y="237.00" xlink:href="#hd"/>
<path d="M315.64 237.00v34.00" class="stroke"/>
<path class="fill"
	d="M315.64 271.00c0.6 -5.6 9.6 -9 5.6 -18.4
	1.6 6 -1.3 11.6 -5.6 12.8
"/>
<use x="319.14" y="252.00" xlink:href="#hd"/>
<use x="319.14" y="243.00" xlink:href="#hd"/>
<use x="351.24" y="237.00" xlink:href="#hd"/>
<path d="M347.74 237.00v21.00" class="stroke"/>
<path class="fill"
	d="M420.84 262.40l61.70 8.80v-3.20l-61.70 -8.80"/>
<path class="fill"
	d="M421.24 257.50l45.70 6.60v-3.20l-45.70 -6.60"/>
<use x="424.74" y="231.00" xlink:href="#hd"/>
<path d="M421.24 231.00v30.50" class="stroke"/>
<use x="439.94" y="237.00" xlink:href="#hd"/>
<path d="M436.44 237.00v26.60" class="stroke"/>
<use x="455.24" y="240.00" xlink:href="#hd"/>
<path d="M451.74 240.00v25.80" class="stroke"/>
<use x="470.44" y="246.00" xlink:href="#hd"/>
<path d="M466.94 246.00v22.00" class="stroke"/>
<use x="485.74" y="252.00" xlink:href="#hd"/>
<path d="M482.24 252.00v18.20" class="stroke"/>
<path class="fill"
	d="M511.34 264.20l61.70 7.00v-3.20l-61.70 -7.00"/>
<use x="515.14" y="237.00" xlink:href="#hd"/>
<path d="M511.64 237.00v26.30" class="stroke"/>
<use x="545.64" y="243.00" xlink:href="#hd"/>
<path d="M542.14 243.00v23.70" class="stroke"/>
<use x="576.14" y="252.00" xlink:href="#hd"/>
<path d="M572.64 252.00v18.20" class="stroke"/>
<path class="fill"
	d="M612.54 275.50l76.90 -6.30v-3.20l-76.90 6.30"/>
<path class="fill"
	d="M612.84 270.40l76.20 -6.20v-3.20l-76.20 6.20"/>
<use x="616.34" y="243.00" xlink:href="#hd"/>
<path d="M612.84 243.00v31.40" class="stroke"/>
<use x="631.64" y="252.00" xlink:href="#hd"/>
<path d="M628.14 252.00v21.20" class="stroke"/>
<use x="646.84" y="237.00" xlink:href="#hd"/>
<path d="M643.34 237.00v35.00" class="stroke"/>
<use x="662.14" y="243.00" xlink:href="#hd"/>
<path d="M658.64 243.00v27.70" class="stroke"/>
<use x="677.34" y="231.00" xlink:href="#hd"/>
<path d="M673.84 231.00v38.50" class="stroke"/>
<use x="692.64" y="237.00" xlink:href="#hd"/>
<path d="M689.14 237.00v31.20" class="stroke"/>
<path class="fill"
	d="M713.74 260.00l52.50 0.00v-3.20l-52.50 -0.00"/>
<path class="fill"
	d="M714.14 255.00l15.20 0.00v-3.20l-15.20 -0.00"/>
<use x="717.64" y="234.00" xlink:href="#hd"/>
<path d="M714.14 234.00v25.00" class="stroke"/>
<use x="732.84" y="237.00" xlink:href="#hd"/>
<path d="M729.34 237.00v22.00" class="stroke"/>
<use x="748.14" y="240.00" xlink:href="#hd"/>
<path d="M744.64 240.00v19.00" class="stroke"/>
<use x="769.44" y="231.00" xlink:href="#hd"/>
<path d="M765.94 231.00v28.00" class="stroke"/>
<use x="798.84" y="243.00" xlink:href="#hd"/>
<path d="M795.34 243.00v21.00" class="stroke"/>
<use x="841.54" y="246.00" xlink:href="#r8"/>
<use x="23.54" y="301.00" xlink:href="#bclef"/>
<path class="fill"
	d="M52.24 338.20l70.50 -5.10v-3.20l-70.50 5.10"/>
<path class="fill"
	d="M73.84 331.70l48.50 -3.50v-3.20l-48.50 3.50"/>
<use x="56.04" y="319.00" xlink:href="#hd"/>
<path d="M52.54 319.00v18.20" class="stroke"/>
<use x="77.34" y="292.00" xlink:href="#hd"/>
<path d="M73.84 292.00v43.70" class="stroke"/>
<use x="92.64" y="298.00" xlink:href="#hd"/>
<path d="M89.14 298.00v36.60" class="stroke"/>
<use x="110.64" y="301.00" xlink:href="#hd"/>
<use x="101.64" y="301.00" xlink:href="#sh0"/>
<path d="M107.14 301.00v32.30" class="stroke"/>
<use x="125.84" y="304.00" xlink:href="#hd"/>
<path d="M122.34 304.00v28.20" class="stroke"/>
<use x="164.84" y="301.00" xlink:href="#hd"/>
<use x="155.84" y="301.00" xlink:href="#sh0"/>
<path d="M161.34 301.00v25.00" class="stroke"/>
<use x="164.84" y="307.00" xlink:href="#hd"/>
<use x="208.14" y="301.00" xlink:href="#hd"/>
<path d="M204.64 301.00v28.00" class="stroke"/>
<path class="fill"
	d="M204.64 329.00c0.6 -5.6 9.6 -9 5.6 -18.4
	1.6 6 -1.3 11.6 -5.6 12.8
"/>
<use x="208.14" y="310.00" xlink:href="#hd"/>
<use x="237.54" y="313.00" xlink:href="#hd"/>
<path d="M241.04 313.00v-25.00" class="stroke"/>
<use x="237.54" y="307.00" xlink:href="#hd"/>
<use x="289.34" y="313.00" xlink:href="#hd"/>
<path d="M292.84 313.00v-25.00" class="stroke"/>
<path class="fill"
	d="M292.84 288.00c0.6 5.6 9.6 9 5.6 18.4
	1.6 -6 -1.3 -11.6 -5.6 -12.8
"/>
<use x="289.34" y="307.00" xlink:href="#hd"/>
<path class="fill"
	d="M322.24 278.80l81.30 0.00v3.20l-81.30 -0.00"/>
<path class="fill"
	d="M322.64 283.80l80.60 0.00v3.20l-80.60 -0.00"/>
<use x="319.14" y="310.00" xlink:href="#hd"/>
<path d="M322.64 310.00v-30.20" class="stroke"/>
<use x="334.34" y="313.00" xlink:href="#hd"/>
<path d="M337.84 313.00v-33.20" class="stroke"/>
<use x="351.24" y="310.00" xlink:href="#hd"/>
<path d="M354.74 310.00v-30.20" class="stroke"/>
<use x="366.44" y="307.00" xlink:href="#hd"/>
<path d="M369.94 307.00v-27.20" class="stroke"/>
<use x="381.74" y="304.00" xlink:href="#hd"/>
<path d="M385.24 304.00v-24.20" class="stroke"/>
<use x="399.74" y="301.00" xlink:href="#hd"/>
<use x="390.74" y="301.00" xlink:href="#sh0"/>
<path d="M403.24 301.00v-21.20" class="stroke"/>
<path class="fill"
	d="M427.84 278.70l31.20 9.00v3.20l-31.20 -9.00"/>
<use x="424.74" y="298.00" xlink:href="#hd"/>
<path d="M428.24 298.00v-18.20" class="stroke"/>
<use x="455.24" y="319.00" xlink:href="#hd"/>
<path d="M458.74 319.00v-30.40" class="stroke"/>
<use x="485.74" y="307.00" xlink:href="#r8"/>
<path class="fill"
	d="M511.34 326.90l76.90 0.00v-3.20l-76.90 -0.00"/>
<path class="fill"
	d="M511.64 321.90l76.20 0.00v-3.20l-76.20 -0.00"/>
<use x="515.14" y="304.00" xlink:href="#hd"/>
<path d="M511.64 304.00v21.90" class="stroke"/>
<use x="515.14" y="310.00" xlink:href="#hd"/>
<use x="530.44" y="298.00" xlink:href="#hd"/>
<path d="M526.94 298.00v27.90" class="stroke"/>
<use x="545.64" y="304.00" xlink:href="#hd"/>
<path d="M542.14 304.00v21.90" class="stroke"/>
<use x="545.64" y="310.00" xlink:href="#hd"/>
<use x="560.94" y="298.00" xlink:href="#hd"/>
<path d="M557.44 298.00v27.90" class="stroke"/>
<use x="576.14" y="304.00" xlink:href="#hd"/>
<path d="M572.64 304.00v21.90" class="stroke"/>
<use x="576.14" y="310.00" xlink:href="#hd"/>
<use x="591.34" y="298.00" xlink:href="#hd"/>
<path d="M587.84 298.00v27.90" class="stroke"/>
<use x="616.34" y="304.00" xlink:href="#hd"/>
<path d="M612.84 304.00v25.00" class="stroke"/>
<use x="616.34" y="310.00" xlink:href="#hd"/>
<use x="677.34" y="307.00" xlink:href="#r8"/>
<path class="fill"
	d="M713.74 326.90l52.50 0.00v-3.20l-52.50 -0.00"/>
<path class="fill"
	d="M714.14 321.90l15.20 0.00v-3.20l-15.20 -0.00"/>
<use x="717.64" y="301.00" xlink:href="#hd"/>
<path d="M714.14 301.00v24.90" class="stroke"/>
<use x="732.84" y="304.00" xlink:href="#hd"/>
<path d="M729.34 304.00v21.90" class="stroke"/>
<use x="748.14" y="307.00" xlink:href="#hd"/>
<path d="M744.64 307.00v18.90" class="stroke"/>
<use x="769.44" y="298.00" xlink:href="#hd"/>
<path d="M765.94 298.00v27.90" class="stroke"/>
<path class="fill"
	d="M802.04 290.70l43.30 9.90v3.20l-43.30 -9.90"/>
<use x="798.84" y="310.00" xlink:href="#hd"/>
<path d="M802.34 310.00v-18.20" class="stroke"/>
<use x="820.24" y="319.00" xlink:href="#hd"/>
<path d="M823.74 319.00v-22.30" class="stroke"/>
<use x="841.54" y="325.00" xlink:href="#hl"/>
<use x="841.54" y="331.00" xlink:href="#hl"/>
<use x="841.54" y="331.00" xlink:href="#hd"/>
<path d="M845.04 331.00v-29.40" class="stroke"/>
<defs>
<text id="trl" font-family="serif" font-size="16" font-style="italic"
	x="-2" y="-4">tr</text>
</defs>
<use x="351.24" y="231.00" xlink:href="#trl"/>
</g>
</svg>
