<?xml version="1.0" standalone="no"?>
<!DOCTYPE svg PUBLIC "-//W3C//DTD SVG 1.1//EN"
	"http://www.w3.org/Graphics/SVG/1.1/DTD/svg11.dtd">
<svg xmlns="http://www.w3.org/2000/svg" version="1.1"
	xmlns:xlink="http://www.w3.org/1999/xlink"
	color="black"
	width="757.10px" height="293.80px">
<style type="text/css">
.fill {fill: currentColor}
.stroke {stroke: currentColor; fill: none}
text{white-space: pre}
</style>
<title>./K516f-2-5-2-4-5-6-10-12-7-8-8-9-9-4-5-10.abc (1120) tune 1</title>
<!-- Creator: abcm2ps-8.13.8 -->
<!-- CreationDate: Sep  7, 2017 11:19 -->
<!-- CommandLine: ./K516f-2-5-2-4-5-6-10-12-7-8-8-9-9-4-5-10.abc -O ./K516f-2-5-2-4-5-6-10-12-7-8-8-9-9-4-5-10.svg -g -->
<rect width="100%" height="100%" fill="white"/>
<g stroke-width="0.70" transform="scale(0.867)">
<!-- title: 2-5-2-4-5-6-10-12-7-8-8-9-9-4-5-10 -->
</g>
<g stroke-width="0.70" transform="scale(0.867)" font-family="Times" font-size="20.00">
<text x="436.84" y="22.00" text-anchor="middle">2-5-2-4-5-6-10-12-7-8-8-9-9-4-5-10</text>
</g>
<g stroke-width="0.70" transform="scale(0.867)" font-family="Times" font-size="20.00">
<!-- subtitle: $1K.516f::96:17:141:13:161:97:62:5:138:155:57:166:51:58:52:8::$0 -->
</g>
<g stroke-width="0.70" transform="scale(0.867)" font-family="Courier" font-size="8.00" font-weight="bold">
<text x="436.84" y="41.80" text-anchor="middle">K.516f::96:17:141:13:161:97:62:5:138:155:57:166:51:58:52:8::</text>
</g>
<g stroke-width="0.70" transform="scale(0.867)" font-family="Courier" font-size="8.00" font-weight="bold">
<!-- subtitle: $1Perm. No.: 112039282990317$0 -->
<text x="436.84" y="60.80" text-anchor="middle">Perm. No.: 112039282990317</text>
</g>
<g stroke-width="0.70" transform="scale(0.607)" font-family="Courier" font-size="8.00" font-weight="bold">
<defs>
<ellipse id="hd" rx="4.1" ry="2.9"
	transform="rotate(-20)" class="fill"/>
</defs>
<use x="103.06" y="121.29" xlink:href="#hd"/>
<path d="M106.56 121.29v-21.00" class="stroke"/>
<path class="fill"
	d="M106.56 100.29c0.6 5.6 9.6 9 5.6 18.4
	1.6 -6 -1.3 -11.6 -5.6 -12.8
"/>
</g>
<g stroke-width="0.70" transform="scale(0.867)" font-family="Times" font-size="15.00" font-weight="bold">
<text x="81.24" y="87.00">= 111</text>
<path class="stroke" stroke-width="1"
	d="M11.54 183.00v-82.00"/>
<path class="fill"
	d="M6.54 98.00
	c10.5 1 12 -4.5 12 -3.5c0 1 -3.5 5.5 -8.5 5.5
	v84.00
	c5 0 8.5 4.5 8.5 5.5c0 1 -1.5 -4.5 -12 -3.5"/>
<defs>
<g id="rdots" class="fill">
	<circle cx="0" cy="-9" r="1.2"/>
	<circle cx="0" cy="-15" r="1.2"/>
</g>
</defs>
<use x="70.54" y="125.00" xlink:href="#rdots"/>
<path class="stroke" stroke-width="1"
	d="M66.54 125.00v-24.00"/>
<path class="stroke" stroke-width="3"
	d="M62.04 125.00v-24.00"/>
<use x="70.54" y="183.00" xlink:href="#rdots"/>
<path class="stroke" stroke-width="1"
	d="M66.54 183.00v-58.00"/>
<path class="stroke" stroke-width="3"
	d="M62.04 183.00v-58.00"/>
<path class="stroke" stroke-width="1"
	d="M150.64 125.00v-24.00"/>
<path class="stroke" stroke-width="1"
	d="M150.64 183.00v-58.00"/>
<path class="stroke" stroke-width="1"
	d="M261.04 125.00v-24.00"/>
<path class="stroke" stroke-width="1"
	d="M261.04 183.00v-58.00"/>
<path class="stroke" stroke-width="1"
	d="M371.44 125.00v-24.00"/>
<path class="stroke" stroke-width="1"
	d="M371.44 183.00v-58.00"/>
<path class="stroke" stroke-width="1"
	d="M450.54 125.00v-24.00"/>
<path class="stroke" stroke-width="1"
	d="M450.54 183.00v-58.00"/>
<path class="stroke" stroke-width="1"
	d="M535.34 125.00v-24.00"/>
<path class="stroke" stroke-width="1"
	d="M535.34 183.00v-58.00"/>
<path class="stroke" stroke-width="1"
	d="M646.94 125.00v-24.00"/>
<path class="stroke" stroke-width="1"
	d="M646.94 183.00v-58.00"/>
<path class="stroke" stroke-width="1"
	d="M758.54 125.00v-24.00"/>
<path class="stroke" stroke-width="1"
	d="M758.54 183.00v-58.00"/>
<path class="stroke" stroke-width="3"
	d="M860.54 125.00v-24.00"/>
<path class="stroke" stroke-width="1"
	d="M856.04 125.00v-24.00"/>
<use x="852.04" y="125.00" xlink:href="#rdots"/>
<path class="stroke" stroke-width="3"
	d="M860.54 183.00v-58.00"/>
<path class="stroke" stroke-width="1"
	d="M856.04 183.00v-58.00"/>
<use x="852.04" y="183.00" xlink:href="#rdots"/>
<path d="m11.54 125.00
	h850.50
	M11.54 119.00
	h850.50
	M11.54 113.00
	h850.50
	M11.54 107.00
	h850.50
	M11.54 101.00
	h850.50
	" class="stroke"/>
<path d="m11.54 183.00
	h850.50
	M11.54 177.00
	h850.50
	M11.54 171.00
	h850.50
	M11.54 165.00
	h850.50
	M11.54 159.00
	h850.50
	" class="stroke"/>
<path class="fill"
	d="M384.74 121.00c6.75 5.37 36.51 10.60 43.26 7.60
	v0.24c-8.05 4.75 -35.21 -0.47 -43.26 -7.84"/>
</g>
<g stroke-width="0.70" transform="scale(0.867)" font-family="Times" font-size="13.00">
<text x="762.54" y="86.40">1</text>
<path class="stroke"
	d="M758.54 75.00m0 20v-20h95.50v20"/>
<defs>
<path id="utclef" class="fill" d="m-50 -90
	c-72 -41 -72 -158 52 -188
	150 -10 220 188 90 256
	-114 52 -275 0 -293 -136
	-15 -181 93 -229 220 -334
	88 -87 79 -133 62 -210
	-51 33 -94 105 -89 186
	17 267 36 374 49 574
	6 96 -19 134 -77 135
	-80 1 -126 -93 -61 -133
	85 -41 133 101 31 105
	23 17 92 37 90 -92
	-10 -223 -39 -342 -50 -617
	0 -90 0 -162 96 -232
	56 72 63 230 22 289
	-74 106 -257 168 -255 316
	9 153 148 185 252 133
	86 -65 29 -192 -80 -176
	-71 12 -105 67 -59 124"/>
<use id="tclef" transform="translate(0,6) scale(0.045)"
	xlink:href="#utclef"/>
</defs>
<use x="23.54" y="119.00" xlink:href="#tclef"/>
<g font-family="serif" font-size="16" font-weight="bold" font-style="normal"
	transform="translate(42.04,124.50) scale(1.2,1)">
	<text text-anchor="middle">8</text>
	<text y="-12" text-anchor="middle">3</text>
</g>
<path class="fill"
	d="M81.04 131.60l47.90 6.60v-3.20l-47.90 -6.60"/>
<use x="84.84" y="104.00" xlink:href="#hd"/>
<path d="M81.34 104.00v26.70" class="stroke"/>
<use x="108.54" y="110.00" xlink:href="#hd"/>
<path d="M105.04 110.00v23.90" class="stroke"/>
<use x="132.14" y="119.00" xlink:href="#hd"/>
<path d="M128.64 119.00v18.20" class="stroke"/>
<path class="fill"
	d="M160.14 141.20l84.50 0.00v-3.20l-84.50 -0.00"/>
<path class="fill"
	d="M160.54 136.20l83.90 0.00v-3.20l-83.90 -0.00"/>
<use x="164.04" y="110.00" xlink:href="#hd"/>
<path d="M160.54 110.00v30.20" class="stroke"/>
<use x="180.74" y="119.00" xlink:href="#hd"/>
<path d="M177.24 119.00v21.20" class="stroke"/>
<use x="197.54" y="110.00" xlink:href="#hd"/>
<path d="M194.04 110.00v30.20" class="stroke"/>
<use x="214.34" y="104.00" xlink:href="#hd"/>
<path d="M210.84 104.00v36.20" class="stroke"/>
<use x="231.04" y="119.00" xlink:href="#hd"/>
<path d="M227.54 119.00v21.20" class="stroke"/>
<use x="247.84" y="110.00" xlink:href="#hd"/>
<path d="M244.34 110.00v30.20" class="stroke"/>
<path class="fill"
	d="M270.54 133.00l84.50 0.00v-3.20l-84.50 -0.00"/>
<path class="fill"
	d="M270.84 128.00l83.90 0.00v-3.20l-83.90 -0.00"/>
<use x="274.34" y="107.00" xlink:href="#hd"/>
<path d="M270.84 107.00v24.90" class="stroke"/>
<use x="291.14" y="104.00" xlink:href="#hd"/>
<path d="M287.64 104.00v27.90" class="stroke"/>
<use x="307.94" y="101.00" xlink:href="#hd"/>
<path d="M304.44 101.00v30.90" class="stroke"/>
<use x="324.64" y="107.00" xlink:href="#hd"/>
<path d="M321.14 107.00v24.90" class="stroke"/>
<use x="341.44" y="110.00" xlink:href="#hd"/>
<path d="M337.94 110.00v21.90" class="stroke"/>
<use x="358.24" y="113.00" xlink:href="#hd"/>
<path d="M354.74 113.00v18.90" class="stroke"/>
<path class="fill"
	d="M387.94 90.80l47.90 6.60v3.20l-47.90 -6.60"/>
<use x="384.74" y="110.00" xlink:href="#hd"/>
<path d="M388.24 110.00v-18.20" class="stroke"/>
<use x="408.34" y="119.00" xlink:href="#hd"/>
<path d="M411.84 119.00v-23.90" class="stroke"/>
<use x="432.04" y="125.00" xlink:href="#hd"/>
<path d="M435.54 125.00v-26.70" class="stroke"/>
<path class="fill"
	d="M472.24 88.00l48.40 0.00v3.20l-48.40 -0.00"/>
<use x="469.04" y="122.00" xlink:href="#hd"/>
<defs>
<path id="usharp" class="fill" d="
	m136 -702
	v890
	h32
	v-890
	m128 840
	h32
	v-888
	h-32
	m-232 286
	v116
	l338 -96
	v-116
	m-338 442
	v116
	l338 -98
	v-114"/>
<use id="sh0" transform="translate(-4,5) scale(0.018)"
	xlink:href="#usharp"/>
</defs>
<use x="460.04" y="122.00" xlink:href="#sh0"/>
<path d="M472.54 122.00v-33.00" class="stroke"/>
<use x="469.04" y="107.00" xlink:href="#hd"/>
<use x="492.94" y="122.00" xlink:href="#hd"/>
<use x="483.94" y="122.00" xlink:href="#sh0"/>
<path d="M496.44 122.00v-33.00" class="stroke"/>
<use x="492.94" y="107.00" xlink:href="#hd"/>
<use x="516.74" y="122.00" xlink:href="#hd"/>
<use x="507.74" y="122.00" xlink:href="#sh0"/>
<path d="M520.24 122.00v-33.00" class="stroke"/>
<use x="516.74" y="107.00" xlink:href="#hd"/>
<path class="fill"
	d="M544.84 131.30l85.80 10.00v-3.20l-85.80 -10.00"/>
<path class="fill"
	d="M545.14 126.30l85.10 9.90v-3.20l-85.10 -9.90"/>
<use x="548.64" y="98.00" xlink:href="#hd"/>
<path d="M545.14 98.00v32.30" class="stroke"/>
<use x="566.64" y="101.00" xlink:href="#hd"/>
<use x="557.64" y="101.00" xlink:href="#sh0"/>
<path d="M563.14 101.00v31.40" class="stroke"/>
<use x="583.44" y="98.00" xlink:href="#hd"/>
<path d="M579.94 98.00v36.40" class="stroke"/>
<use x="600.14" y="107.00" xlink:href="#hd"/>
<path d="M596.64 107.00v29.30" class="stroke"/>
<use x="616.94" y="113.00" xlink:href="#hd"/>
<path d="M613.44 113.00v25.30" class="stroke"/>
<use x="633.74" y="119.00" xlink:href="#hd"/>
<path d="M630.24 119.00v21.20" class="stroke"/>
<path class="fill"
	d="M663.44 81.80l85.80 8.00v3.20l-85.80 -8.00"/>
<path class="fill"
	d="M663.74 86.80l85.10 8.00v3.20l-85.10 -8.00"/>
<use x="660.24" y="104.00" xlink:href="#hd"/>
<path d="M663.74 104.00v-21.20" class="stroke"/>
<use x="677.04" y="110.00" xlink:href="#hd"/>
<path d="M680.54 110.00v-25.60" class="stroke"/>
<use x="693.84" y="113.00" xlink:href="#hd"/>
<path d="M697.34 113.00v-27.10" class="stroke"/>
<use x="710.54" y="119.00" xlink:href="#hd"/>
<path d="M714.04 119.00v-31.50" class="stroke"/>
<use x="727.34" y="116.00" xlink:href="#hd"/>
<path d="M730.84 116.00v-26.90" class="stroke"/>
<use x="745.34" y="122.00" xlink:href="#hd"/>
<use x="736.34" y="122.00" xlink:href="#sh0"/>
<path d="M748.84 122.00v-31.20" class="stroke"/>
<use x="771.84" y="98.00" xlink:href="#hd"/>
<path d="M768.34 98.00v40.00" class="stroke"/>
<use x="771.84" y="119.00" xlink:href="#hd"/>
<use x="771.84" y="113.00" xlink:href="#hd"/>
<use x="771.84" y="107.00" xlink:href="#hd"/>
<defs>
<path id="r8e" class="fill" d="m 0 0
	c-1.5 1.5 -2.4 2 -3.6 2
	2.4 -2.8 -2.8 -4 -2.8 -1.2
	c0 2.7 4.3 2.4 5.9 0.6"/>
<g id="r8">
	<path d="m3.3 -4l-3.4 9.6" class="stroke"/>
	<use x="3.4" y="-4" xlink:href="#r8e"/>
</g>
</defs>
<use x="830.24" y="113.00" xlink:href="#r8"/>
<defs>
<path id="ubclef" class="fill" d="m-200 -87
	c124 -35 222 -78 254 -236
	43 -228 -167 -246 -192 -103
	59 -80 157 22 92 78
	-62 47 -115 -22 -106 -88
	21 -141 270 -136 274 52
	-1 175 -106 264 -322 297
	m357 -250
	c0 -36 51 -34 51 0
	0 37 -51 36 -51 0
	m-2 -129
	c0 -36 51 -34 51 0
	0 38 -51 37 -51 0"/>
<use id="bclef" transform="translate(0,18) scale(0.045)"
	xlink:href="#ubclef"/>
</defs>
<use x="23.54" y="165.00" xlink:href="#bclef"/>
<g font-family="serif" font-size="16" font-weight="bold" font-style="normal"
	transform="translate(42.04,182.50) scale(1.2,1)">
	<text text-anchor="middle">8</text>
	<text y="-12" text-anchor="middle">3</text>
</g>
<use x="84.84" y="174.00" xlink:href="#hd"/>
<path d="M88.34 174.00v-21.00" class="stroke"/>
<use x="132.14" y="171.00" xlink:href="#r8"/>
<use x="164.04" y="162.00" xlink:href="#hd"/>
<path d="M160.54 162.00v25.00" class="stroke"/>
<use x="164.04" y="168.00" xlink:href="#hd"/>
<use x="231.04" y="171.00" xlink:href="#r8"/>
<use x="274.34" y="162.00" xlink:href="#hd"/>
<path d="M270.84 162.00v34.00" class="stroke"/>
<use x="274.34" y="177.00" xlink:href="#hd"/>
<use x="341.44" y="183.00" xlink:href="#hd"/>
<path d="M344.94 183.00v-21.00" class="stroke"/>
<path class="fill"
	d="M344.94 162.00c0.6 5.6 9.6 9 5.6 18.4
	1.6 -6 -1.3 -11.6 -5.6 -12.8
"/>
<use x="384.74" y="162.00" xlink:href="#hd"/>
<path d="M381.24 162.00v25.00" class="stroke"/>
<use x="384.74" y="168.00" xlink:href="#hd"/>
<use x="432.04" y="171.00" xlink:href="#r8"/>
<path class="fill"
	d="M472.24 153.00l48.40 0.00v3.20l-48.40 -0.00"/>
<use x="469.04" y="174.00" xlink:href="#hd"/>
<path d="M472.54 174.00v-20.00" class="stroke"/>
<use x="492.94" y="174.00" xlink:href="#hd"/>
<path d="M496.44 174.00v-20.00" class="stroke"/>
<use x="516.74" y="174.00" xlink:href="#hd"/>
<path d="M520.24 174.00v-20.00" class="stroke"/>
<use x="548.64" y="177.00" xlink:href="#hd"/>
<path d="M552.14 177.00v-25.00" class="stroke"/>
<use x="548.64" y="171.00" xlink:href="#hd"/>
<use x="616.94" y="162.00" xlink:href="#hd"/>
<path d="M613.44 162.00v34.00" class="stroke"/>
<path class="fill"
	d="M613.44 196.00c0.6 -5.6 9.6 -9 5.6 -18.4
	1.6 6 -1.3 11.6 -5.6 12.8
"/>
<use x="616.94" y="177.00" xlink:href="#hd"/>
<path class="fill"
	d="M663.44 147.70l67.80 8.30v3.20l-67.80 -8.30"/>
<use x="660.24" y="174.00" xlink:href="#hd"/>
<path d="M663.74 174.00v-25.30" class="stroke"/>
<use x="693.84" y="171.00" xlink:href="#hd"/>
<path d="M697.34 171.00v-18.20" class="stroke"/>
<defs>
<path id="hl" class="stroke" d="m-6 0h12"/>
</defs>
<use x="727.34" y="189.00" xlink:href="#hl"/>
<use x="727.34" y="192.00" xlink:href="#hd"/>
<path d="M730.84 192.00v-35.10" class="stroke"/>
<path class="fill"
	d="M768.04 202.20l75.90 0.00v-3.20l-75.90 -0.00"/>
<path class="fill"
	d="M792.04 197.20l51.50 0.00v-3.20l-51.50 -0.00"/>
<use x="771.84" y="183.00" xlink:href="#hd"/>
<path d="M768.34 183.00v18.20" class="stroke"/>
<use x="795.54" y="162.00" xlink:href="#hd"/>
<path d="M792.04 162.00v39.20" class="stroke"/>
<use x="813.54" y="165.00" xlink:href="#hd"/>
<defs>
<path id="unat" class="fill" d="
	m96 -750
	h-32
	v716
	l32 -8
	182 -54
	v282
	h32
	v-706
	l-34 10
	-180 50
	v-290
	m0 592
	v-190
	l182 -52
	v188"/>
<use id="nt0" transform="translate(-3,5) scale(0.018)"
	xlink:href="#unat"/>
</defs>
<use x="804.54" y="165.00" xlink:href="#nt0"/>
<path d="M810.04 165.00v36.20" class="stroke"/>
<use x="830.24" y="168.00" xlink:href="#hd"/>
<path d="M826.74 168.00v33.20" class="stroke"/>
<use x="847.04" y="171.00" xlink:href="#hd"/>
<path d="M843.54 171.00v30.20" class="stroke"/>
</g>
<g stroke-width="0.70" transform="scale(0.867)" font-family="Times" font-size="13.00">
<path class="stroke" stroke-width="1"
	d="M11.54 316.00v-82.00"/>
<path class="fill"
	d="M6.54 231.00
	c10.5 1 12 -4.5 12 -3.5c0 1 -3.5 5.5 -8.5 5.5
	v84.00
	c5 0 8.5 4.5 8.5 5.5c0 1 -1.5 -4.5 -12 -3.5"/>
<use x="138.54" y="258.00" xlink:href="#rdots"/>
<path class="stroke" stroke-width="1"
	d="M134.54 258.00v-24.00"/>
<path class="stroke" stroke-width="3"
	d="M130.04 258.00v-24.00"/>
<use x="138.54" y="316.00" xlink:href="#rdots"/>
<path class="stroke" stroke-width="1"
	d="M134.54 316.00v-58.00"/>
<path class="stroke" stroke-width="3"
	d="M130.04 316.00v-58.00"/>
<path class="stroke" stroke-width="1"
	d="M246.74 258.00v-24.00"/>
<path class="stroke" stroke-width="1"
	d="M246.74 316.00v-58.00"/>
<path class="stroke" stroke-width="1"
	d="M338.74 258.00v-24.00"/>
<path class="stroke" stroke-width="1"
	d="M338.74 316.00v-58.00"/>
<path class="stroke" stroke-width="1"
	d="M430.74 258.00v-24.00"/>
<path class="stroke" stroke-width="1"
	d="M430.74 316.00v-58.00"/>
<path class="stroke" stroke-width="1"
	d="M512.04 258.00v-24.00"/>
<path class="stroke" stroke-width="1"
	d="M512.04 316.00v-58.00"/>
<path class="stroke" stroke-width="1"
	d="M604.04 258.00v-24.00"/>
<path class="stroke" stroke-width="1"
	d="M604.04 316.00v-58.00"/>
<path class="stroke" stroke-width="1"
	d="M696.04 258.00v-24.00"/>
<path class="stroke" stroke-width="1"
	d="M696.04 316.00v-58.00"/>
<path class="stroke" stroke-width="1"
	d="M792.64 258.00v-24.00"/>
<path class="stroke" stroke-width="1"
	d="M792.64 316.00v-58.00"/>
<path class="stroke" stroke-width="3"
	d="M860.54 258.00v-24.00"/>
<path class="stroke" stroke-width="1"
	d="M856.04 258.00v-24.00"/>
<use x="852.04" y="258.00" xlink:href="#rdots"/>
<path class="stroke" stroke-width="3"
	d="M860.54 316.00v-58.00"/>
<path class="stroke" stroke-width="1"
	d="M856.04 316.00v-58.00"/>
<use x="852.04" y="316.00" xlink:href="#rdots"/>
<path d="m11.54 258.00
	h850.50
	M11.54 252.00
	h850.50
	M11.54 246.00
	h850.50
	M11.54 240.00
	h850.50
	M11.54 234.00
	h850.50
	" class="stroke"/>
<path d="m11.54 316.00
	h850.50
	M11.54 310.00
	h850.50
	M11.54 304.00
	h850.50
	M11.54 298.00
	h850.50
	M11.54 292.00
	h850.50
	" class="stroke"/>
<path class="fill"
	d="M708.54 234.00c2.76 -3.95 14.74 -4.43 17.50 -0.70
	v-0.22c-3.28 -5.51 -14.22 -5.03 -17.50 0.92"/>
<text x="47.54" y="219.40">2</text>
<path class="stroke"
	d="M43.54 208.00m0 20v-20h84.00v20"/>
<use x="23.54" y="252.00" xlink:href="#tclef"/>
<use x="56.04" y="231.00" xlink:href="#hd"/>
<path d="M52.54 231.00v40.00" class="stroke"/>
<use x="56.04" y="252.00" xlink:href="#hd"/>
<use x="56.04" y="246.00" xlink:href="#hd"/>
<use x="56.04" y="240.00" xlink:href="#hd"/>
<use x="105.64" y="246.00" xlink:href="#r8"/>
<use x="158.04" y="234.00" xlink:href="#hd"/>
<use x="149.04" y="234.00" xlink:href="#sh0"/>
<path d="M154.54 234.00v34.00" class="stroke"/>
<path class="fill"
	d="M154.54 268.00c0.6 -5.6 9.6 -9 5.6 -18.4
	1.6 6 -1.3 11.6 -5.6 12.8
"/>
<use x="158.04" y="249.00" xlink:href="#hd"/>
<use x="158.04" y="240.00" xlink:href="#hd"/>
<use x="189.44" y="234.00" xlink:href="#hd"/>
<path d="M185.94 234.00v21.00" class="stroke"/>
<path class="fill"
	d="M255.44 263.70l67.70 10.50v-3.20l-67.70 -10.50"/>
<path class="fill"
	d="M255.74 258.80l67.00 10.40v-3.20l-67.00 -10.40"/>
<use x="259.24" y="231.00" xlink:href="#hd"/>
<path d="M255.74 231.00v31.80" class="stroke"/>
<use x="272.64" y="228.00" xlink:href="#hl"/>
<use x="272.64" y="225.00" xlink:href="#hd"/>
<path d="M269.14 225.00v39.80" class="stroke"/>
<use x="286.04" y="231.00" xlink:href="#hd"/>
<path d="M282.54 231.00v35.90" class="stroke"/>
<use x="299.44" y="240.00" xlink:href="#hd"/>
<path d="M295.94 240.00v29.00" class="stroke"/>
<use x="312.84" y="246.00" xlink:href="#hd"/>
<path d="M309.34 246.00v25.10" class="stroke"/>
<use x="326.24" y="252.00" xlink:href="#hd"/>
<path d="M322.74 252.00v21.20" class="stroke"/>
<path class="fill"
	d="M347.34 264.40l54.30 6.80v-3.20l-54.30 -6.80"/>
<use x="351.24" y="237.00" xlink:href="#hd"/>
<path d="M347.74 237.00v26.50" class="stroke"/>
<use x="378.04" y="243.00" xlink:href="#hd"/>
<path d="M374.54 243.00v23.80" class="stroke"/>
<use x="404.84" y="252.00" xlink:href="#hd"/>
<path d="M401.34 252.00v18.20" class="stroke"/>
<path class="fill"
	d="M439.34 262.20l54.30 5.30v-3.20l-54.30 -5.30"/>
<path class="fill"
	d="M439.74 257.20l40.20 3.90v-3.20l-40.20 -3.90"/>
<use x="443.24" y="240.00" xlink:href="#hd"/>
<path d="M439.74 240.00v21.20" class="stroke"/>
<use x="456.64" y="228.00" xlink:href="#hl"/>
<use x="456.64" y="225.00" xlink:href="#hd"/>
<path d="M453.14 225.00v37.50" class="stroke"/>
<use x="470.04" y="231.00" xlink:href="#hd"/>
<path d="M466.54 231.00v32.80" class="stroke"/>
<use x="483.44" y="240.00" xlink:href="#hd"/>
<path d="M479.94 240.00v25.10" class="stroke"/>
<use x="496.84" y="246.00" xlink:href="#hd"/>
<path d="M493.34 246.00v20.40" class="stroke"/>
<path class="fill"
	d="M520.74 275.50l67.70 -6.20v-3.20l-67.70 6.20"/>
<path class="fill"
	d="M521.04 270.40l67.00 -6.10v-3.20l-67.00 6.10"/>
<use x="524.54" y="243.00" xlink:href="#hd"/>
<path d="M521.04 243.00v31.40" class="stroke"/>
<use x="537.94" y="252.00" xlink:href="#hd"/>
<path d="M534.44 252.00v21.20" class="stroke"/>
<use x="551.34" y="237.00" xlink:href="#hd"/>
<path d="M547.84 237.00v35.00" class="stroke"/>
<use x="564.74" y="243.00" xlink:href="#hd"/>
<path d="M561.24 243.00v27.80" class="stroke"/>
<use x="578.14" y="231.00" xlink:href="#hd"/>
<path d="M574.64 231.00v38.50" class="stroke"/>
<use x="591.54" y="237.00" xlink:href="#hd"/>
<path d="M588.04 237.00v31.30" class="stroke"/>
<path class="fill"
	d="M612.74 253.90l54.30 8.40v-3.20l-54.30 -8.40"/>
<use x="616.54" y="231.00" xlink:href="#hd"/>
<path d="M613.04 231.00v21.90" class="stroke"/>
<use x="643.34" y="237.00" xlink:href="#hd"/>
<path d="M639.84 237.00v20.10" class="stroke"/>
<use x="670.14" y="243.00" xlink:href="#hd"/>
<path d="M666.64 243.00v18.20" class="stroke"/>
<path class="fill"
	d="M704.74 274.20l72.30 0.00v-3.20l-72.30 -0.00"/>
<path class="fill"
	d="M705.04 269.20l71.60 0.00v-3.20l-71.60 -0.00"/>
<use x="708.54" y="240.00" xlink:href="#hd"/>
<path d="M705.04 240.00v33.20" class="stroke"/>
<use x="726.54" y="243.00" xlink:href="#hd"/>
<use x="717.54" y="243.00" xlink:href="#sh0"/>
<path d="M723.04 243.00v30.20" class="stroke"/>
<use x="739.94" y="240.00" xlink:href="#hd"/>
<path d="M736.44 240.00v33.20" class="stroke"/>
<use x="753.34" y="234.00" xlink:href="#hd"/>
<path d="M749.84 234.00v39.20" class="stroke"/>
<use x="766.74" y="252.00" xlink:href="#hd"/>
<path d="M763.24 252.00v21.20" class="stroke"/>
<use x="780.14" y="246.00" xlink:href="#hd"/>
<path d="M776.64 246.00v27.20" class="stroke"/>
<use x="805.14" y="243.00" xlink:href="#hd"/>
<path d="M801.64 243.00v21.00" class="stroke"/>
<use x="841.54" y="246.00" xlink:href="#r8"/>
<use x="23.54" y="298.00" xlink:href="#bclef"/>
<path class="fill"
	d="M52.24 335.20l63.70 0.00v-3.20l-63.70 -0.00"/>
<path class="fill"
	d="M70.74 330.20l44.80 0.00v-3.20l-44.80 -0.00"/>
<use x="56.04" y="316.00" xlink:href="#hd"/>
<path d="M52.54 316.00v18.20" class="stroke"/>
<use x="74.24" y="289.00" xlink:href="#hd"/>
<path d="M70.74 289.00v45.20" class="stroke"/>
<use x="87.64" y="295.00" xlink:href="#hd"/>
<path d="M84.14 295.00v39.20" class="stroke"/>
<use x="105.64" y="298.00" xlink:href="#hd"/>
<use x="96.64" y="298.00" xlink:href="#sh0"/>
<path d="M102.14 298.00v36.20" class="stroke"/>
<use x="119.04" y="301.00" xlink:href="#hd"/>
<path d="M115.54 301.00v33.20" class="stroke"/>
<path class="fill"
	d="M161.24 283.00l76.90 -6.70v3.20l-76.90 6.70"/>
<path class="fill"
	d="M161.54 288.00l76.20 -6.70v3.20l-76.20 6.70"/>
<use x="158.04" y="322.00" xlink:href="#hl"/>
<use x="158.04" y="325.00" xlink:href="#hd"/>
<path d="M161.54 325.00v-41.00" class="stroke"/>
<use x="171.44" y="304.00" xlink:href="#hd"/>
<path d="M174.94 304.00v-21.20" class="stroke"/>
<use x="189.44" y="307.00" xlink:href="#hd"/>
<use x="180.44" y="307.00" xlink:href="#sh0"/>
<path d="M192.94 307.00v-25.80" class="stroke"/>
<use x="202.84" y="304.00" xlink:href="#hd"/>
<path d="M206.34 304.00v-24.00" class="stroke"/>
<use x="220.84" y="307.00" xlink:href="#hd"/>
<use x="211.84" y="307.00" xlink:href="#sh0"/>
<path d="M224.34 307.00v-28.50" class="stroke"/>
<use x="234.24" y="304.00" xlink:href="#hd"/>
<path d="M237.74 304.00v-26.70" class="stroke"/>
<use x="259.24" y="310.00" xlink:href="#hd"/>
<path d="M262.74 310.00v-25.00" class="stroke"/>
<use x="259.24" y="304.00" xlink:href="#hd"/>
<use x="312.84" y="304.00" xlink:href="#r8"/>
<path class="fill"
	d="M347.34 323.90l67.70 0.00v-3.20l-67.70 -0.00"/>
<path class="fill"
	d="M347.74 318.90l67.00 0.00v-3.20l-67.00 -0.00"/>
<use x="351.24" y="301.00" xlink:href="#hd"/>
<path d="M347.74 301.00v21.90" class="stroke"/>
<use x="351.24" y="307.00" xlink:href="#hd"/>
<use x="364.64" y="295.00" xlink:href="#hd"/>
<path d="M361.14 295.00v27.90" class="stroke"/>
<use x="378.04" y="301.00" xlink:href="#hd"/>
<path d="M374.54 301.00v21.90" class="stroke"/>
<use x="378.04" y="307.00" xlink:href="#hd"/>
<use x="391.44" y="295.00" xlink:href="#hd"/>
<path d="M387.94 295.00v27.90" class="stroke"/>
<use x="404.84" y="301.00" xlink:href="#hd"/>
<path d="M401.34 301.00v21.90" class="stroke"/>
<use x="404.84" y="307.00" xlink:href="#hd"/>
<use x="418.24" y="295.00" xlink:href="#hd"/>
<path d="M414.74 295.00v27.90" class="stroke"/>
<use x="443.24" y="289.00" xlink:href="#hd"/>
<path d="M439.74 289.00v25.00" class="stroke"/>
<use x="443.24" y="295.00" xlink:href="#hd"/>
<use x="496.84" y="304.00" xlink:href="#r8"/>
<use x="524.54" y="301.00" xlink:href="#hd"/>
<path d="M521.04 301.00v25.00" class="stroke"/>
<use x="524.54" y="307.00" xlink:href="#hd"/>
<use x="578.14" y="304.00" xlink:href="#r8"/>
<path class="fill"
	d="M612.74 323.90l67.70 0.00v-3.20l-67.70 -0.00"/>
<path class="fill"
	d="M613.04 318.90l67.00 0.00v-3.20l-67.00 -0.00"/>
<use x="616.54" y="301.00" xlink:href="#hd"/>
<path d="M613.04 301.00v21.90" class="stroke"/>
<use x="616.54" y="307.00" xlink:href="#hd"/>
<use x="629.94" y="295.00" xlink:href="#hd"/>
<path d="M626.44 295.00v27.90" class="stroke"/>
<use x="643.34" y="301.00" xlink:href="#hd"/>
<path d="M639.84 301.00v21.90" class="stroke"/>
<use x="643.34" y="307.00" xlink:href="#hd"/>
<use x="656.74" y="295.00" xlink:href="#hd"/>
<path d="M653.24 295.00v27.90" class="stroke"/>
<use x="670.14" y="301.00" xlink:href="#hd"/>
<path d="M666.64 301.00v21.90" class="stroke"/>
<use x="670.14" y="307.00" xlink:href="#hd"/>
<use x="683.54" y="295.00" xlink:href="#hd"/>
<path d="M680.04 295.00v27.90" class="stroke"/>
<use x="708.54" y="298.00" xlink:href="#hd"/>
<path d="M705.04 298.00v21.00" class="stroke"/>
<use x="766.74" y="295.00" xlink:href="#hd"/>
<path d="M763.24 295.00v21.00" class="stroke"/>
<path class="fill"
	d="M763.24 316.00c0.6 -5.6 9.6 -9 5.6 -18.4
	1.6 6 -1.3 11.6 -5.6 12.8
"/>
<path class="fill"
	d="M808.34 287.70l37.10 9.20v3.20l-37.10 -9.20"/>
<use x="805.14" y="307.00" xlink:href="#hd"/>
<path d="M808.64 307.00v-18.20" class="stroke"/>
<use x="823.34" y="316.00" xlink:href="#hd"/>
<path d="M826.84 316.00v-22.70" class="stroke"/>
<use x="841.54" y="322.00" xlink:href="#hl"/>
<use x="841.54" y="328.00" xlink:href="#hl"/>
<use x="841.54" y="328.00" xlink:href="#hd"/>
<path d="M845.04 328.00v-30.10" class="stroke"/>
<defs>
<text id="trl" font-family="serif" font-size="16" font-style="italic"
	x="-2" y="-4">tr</text>
</defs>
<use x="189.44" y="228.00" xlink:href="#trl"/>
</g>
</svg>
