<?xml version="1.0" standalone="no"?>
<!DOCTYPE svg PUBLIC "-//W3C//DTD SVG 1.1//EN"
	"http://www.w3.org/Graphics/SVG/1.1/DTD/svg11.dtd">
<svg xmlns="http://www.w3.org/2000/svg" version="1.1"
	xmlns:xlink="http://www.w3.org/1999/xlink"
	color="black"
	width="757.10px" height="293.80px">
<style type="text/css">
.fill {fill: currentColor}
.stroke {stroke: currentColor; fill: none}
text{white-space: pre}
</style>
<title>./K516f-8-2-5-4-5-6-8-12-7-2-3-8-8-3-10-11.abc (2811) tune 1</title>
<!-- Creator: abcm2ps-8.13.8 -->
<!-- CreationDate: Sep  7, 2017 11:17 -->
<!-- CommandLine: ./K516f-8-2-5-4-5-6-8-12-7-2-3-8-8-3-10-11.abc -O ./K516f-8-2-5-4-5-6-8-12-7-2-3-8-8-3-10-11.svg -g -->
<rect width="100%" height="100%" fill="white"/>
<g stroke-width="0.70" transform="scale(0.867)">
<!-- title: 8-2-5-4-5-6-8-12-7-2-3-8-8-3-10-11 -->
</g>
<g stroke-width="0.70" transform="scale(0.867)" font-family="Times" font-size="20.00">
<text x="436.84" y="22.00" text-anchor="middle">8-2-5-4-5-6-8-12-7-2-3-8-8-3-10-11</text>
</g>
<g stroke-width="0.70" transform="scale(0.867)" font-family="Times" font-size="20.00">
<!-- subtitle: $1K.516f::152:22:113:13:161:97:21:5:138:121:126:175:43:18:149:78::$0 -->
</g>
<g stroke-width="0.70" transform="scale(0.867)" font-family="Courier" font-size="8.00" font-weight="bold">
<text x="436.84" y="41.80" text-anchor="middle">K.516f::152:22:113:13:161:97:21:5:138:121:126:175:43:18:149:78::</text>
</g>
<g stroke-width="0.70" transform="scale(0.867)" font-family="Courier" font-size="8.00" font-weight="bold">
<!-- subtitle: $1Perm. No.: 281190086803512$0 -->
<text x="436.84" y="60.80" text-anchor="middle">Perm. No.: 281190086803512</text>
</g>
<g stroke-width="0.70" transform="scale(0.607)" font-family="Courier" font-size="8.00" font-weight="bold">
<defs>
<ellipse id="hd" rx="4.1" ry="2.9"
	transform="rotate(-20)" class="fill"/>
</defs>
<use x="103.06" y="121.29" xlink:href="#hd"/>
<path d="M106.56 121.29v-21.00" class="stroke"/>
<path class="fill"
	d="M106.56 100.29c0.6 5.6 9.6 9 5.6 18.4
	1.6 -6 -1.3 -11.6 -5.6 -12.8
"/>
</g>
<g stroke-width="0.70" transform="scale(0.867)" font-family="Times" font-size="15.00" font-weight="bold">
<text x="81.24" y="87.00">= 111</text>
<path class="stroke" stroke-width="1"
	d="M11.54 183.00v-82.00"/>
<path class="fill"
	d="M6.54 98.00
	c10.5 1 12 -4.5 12 -3.5c0 1 -3.5 5.5 -8.5 5.5
	v84.00
	c5 0 8.5 4.5 8.5 5.5c0 1 -1.5 -4.5 -12 -3.5"/>
<defs>
<g id="rdots" class="fill">
	<circle cx="0" cy="-9" r="1.2"/>
	<circle cx="0" cy="-15" r="1.2"/>
</g>
</defs>
<use x="70.54" y="125.00" xlink:href="#rdots"/>
<path class="stroke" stroke-width="1"
	d="M66.54 125.00v-24.00"/>
<path class="stroke" stroke-width="3"
	d="M62.04 125.00v-24.00"/>
<use x="70.54" y="183.00" xlink:href="#rdots"/>
<path class="stroke" stroke-width="1"
	d="M66.54 183.00v-58.00"/>
<path class="stroke" stroke-width="3"
	d="M62.04 183.00v-58.00"/>
<path class="stroke" stroke-width="1"
	d="M178.14 125.00v-24.00"/>
<path class="stroke" stroke-width="1"
	d="M178.14 183.00v-58.00"/>
<path class="stroke" stroke-width="1"
	d="M262.14 125.00v-24.00"/>
<path class="stroke" stroke-width="1"
	d="M262.14 183.00v-58.00"/>
<path class="stroke" stroke-width="1"
	d="M346.24 125.00v-24.00"/>
<path class="stroke" stroke-width="1"
	d="M346.24 183.00v-58.00"/>
<path class="stroke" stroke-width="1"
	d="M430.34 125.00v-24.00"/>
<path class="stroke" stroke-width="1"
	d="M430.34 183.00v-58.00"/>
<path class="stroke" stroke-width="1"
	d="M518.94 125.00v-24.00"/>
<path class="stroke" stroke-width="1"
	d="M518.94 183.00v-58.00"/>
<path class="stroke" stroke-width="1"
	d="M636.14 125.00v-24.00"/>
<path class="stroke" stroke-width="1"
	d="M636.14 183.00v-58.00"/>
<path class="stroke" stroke-width="1"
	d="M753.34 125.00v-24.00"/>
<path class="stroke" stroke-width="1"
	d="M753.34 183.00v-58.00"/>
<path class="stroke" stroke-width="3"
	d="M860.54 125.00v-24.00"/>
<path class="stroke" stroke-width="1"
	d="M856.04 125.00v-24.00"/>
<use x="852.04" y="125.00" xlink:href="#rdots"/>
<path class="stroke" stroke-width="3"
	d="M860.54 183.00v-58.00"/>
<path class="stroke" stroke-width="1"
	d="M856.04 183.00v-58.00"/>
<use x="852.04" y="183.00" xlink:href="#rdots"/>
<path d="m11.54 125.00
	h850.50
	M11.54 119.00
	h850.50
	M11.54 113.00
	h850.50
	M11.54 107.00
	h850.50
	M11.54 101.00
	h850.50
	" class="stroke"/>
<path d="m11.54 183.00
	h850.50
	M11.54 177.00
	h850.50
	M11.54 171.00
	h850.50
	M11.54 165.00
	h850.50
	M11.54 159.00
	h850.50
	" class="stroke"/>
<path class="fill"
	d="M360.24 121.00c7.18 5.40 39.23 10.65 46.41 7.60
	v0.25c-8.57 4.81 -37.84 -0.44 -46.41 -7.85"/>
</g>
<g stroke-width="0.70" transform="scale(0.867)" font-family="Times" font-size="13.00">
<text x="757.34" y="86.40">1</text>
<path class="stroke"
	d="M753.34 75.00m0 20v-20h100.70v20"/>
<defs>
<path id="utclef" class="fill" d="m-50 -90
	c-72 -41 -72 -158 52 -188
	150 -10 220 188 90 256
	-114 52 -275 0 -293 -136
	-15 -181 93 -229 220 -334
	88 -87 79 -133 62 -210
	-51 33 -94 105 -89 186
	17 267 36 374 49 574
	6 96 -19 134 -77 135
	-80 1 -126 -93 -61 -133
	85 -41 133 101 31 105
	23 17 92 37 90 -92
	-10 -223 -39 -342 -50 -617
	0 -90 0 -162 96 -232
	56 72 63 230 22 289
	-74 106 -257 168 -255 316
	9 153 148 185 252 133
	86 -65 29 -192 -80 -176
	-71 12 -105 67 -59 124"/>
<use id="tclef" transform="translate(0,6) scale(0.045)"
	xlink:href="#utclef"/>
</defs>
<use x="23.54" y="119.00" xlink:href="#tclef"/>
<g font-family="serif" font-size="16" font-weight="bold" font-style="normal"
	transform="translate(42.04,124.50) scale(1.2,1)">
	<text text-anchor="middle">8</text>
	<text y="-12" text-anchor="middle">3</text>
</g>
<path class="fill"
	d="M81.74 122.90l79.40 9.40v-3.20l-79.40 -9.40"/>
<path class="fill"
	d="M107.24 120.90l53.50 6.30v-3.20l-53.50 -6.30"/>
<use x="85.54" y="98.00" xlink:href="#hd"/>
<path d="M82.04 98.00v23.90" class="stroke"/>
<use x="110.74" y="101.00" xlink:href="#hd"/>
<path d="M107.24 101.00v23.90" class="stroke"/>
<use x="128.64" y="104.00" xlink:href="#hd"/>
<path d="M125.14 104.00v23.00" class="stroke"/>
<use x="146.44" y="107.00" xlink:href="#hd"/>
<path d="M142.94 107.00v22.10" class="stroke"/>
<use x="164.24" y="110.00" xlink:href="#hd"/>
<path d="M160.74 110.00v21.20" class="stroke"/>
<path class="fill"
	d="M188.34 131.50l51.10 6.70v-3.20l-51.10 -6.70"/>
<use x="192.14" y="104.00" xlink:href="#hd"/>
<path d="M188.64 104.00v26.60" class="stroke"/>
<use x="217.34" y="110.00" xlink:href="#hd"/>
<path d="M213.84 110.00v23.90" class="stroke"/>
<use x="242.54" y="119.00" xlink:href="#hd"/>
<path d="M239.04 119.00v18.20" class="stroke"/>
<path class="fill"
	d="M272.34 124.00l51.10 8.20v-3.20l-51.10 -8.20"/>
<use x="276.24" y="101.00" xlink:href="#hd"/>
<path d="M272.74 101.00v22.10" class="stroke"/>
<use x="301.44" y="107.00" xlink:href="#hd"/>
<path d="M297.94 107.00v20.10" class="stroke"/>
<use x="326.64" y="113.00" xlink:href="#hd"/>
<path d="M323.14 113.00v18.20" class="stroke"/>
<path class="fill"
	d="M363.44 90.80l51.10 6.70v3.20l-51.10 -6.70"/>
<use x="360.24" y="110.00" xlink:href="#hd"/>
<path d="M363.74 110.00v-18.20" class="stroke"/>
<use x="385.44" y="119.00" xlink:href="#hd"/>
<path d="M388.94 119.00v-23.90" class="stroke"/>
<use x="410.64" y="125.00" xlink:href="#hd"/>
<path d="M414.14 125.00v-26.60" class="stroke"/>
<path class="fill"
	d="M451.94 88.00l51.20 0.00v3.20l-51.20 -0.00"/>
<use x="448.84" y="122.00" xlink:href="#hd"/>
<defs>
<path id="usharp" class="fill" d="
	m136 -702
	v890
	h32
	v-890
	m128 840
	h32
	v-888
	h-32
	m-232 286
	v116
	l338 -96
	v-116
	m-338 442
	v116
	l338 -98
	v-114"/>
<use id="sh0" transform="translate(-4,5) scale(0.018)"
	xlink:href="#usharp"/>
</defs>
<use x="439.84" y="122.00" xlink:href="#sh0"/>
<path d="M452.34 122.00v-33.00" class="stroke"/>
<use x="448.84" y="107.00" xlink:href="#hd"/>
<use x="474.04" y="122.00" xlink:href="#hd"/>
<use x="465.04" y="122.00" xlink:href="#sh0"/>
<path d="M477.54 122.00v-33.00" class="stroke"/>
<use x="474.04" y="107.00" xlink:href="#hd"/>
<use x="499.24" y="122.00" xlink:href="#hd"/>
<use x="490.24" y="122.00" xlink:href="#sh0"/>
<path d="M502.74 122.00v-33.00" class="stroke"/>
<use x="499.24" y="107.00" xlink:href="#hd"/>
<path class="fill"
	d="M529.14 131.20l90.00 10.10v-3.20l-90.00 -10.10"/>
<path class="fill"
	d="M529.44 126.20l89.30 10.00v-3.20l-89.30 -10.00"/>
<use x="532.94" y="98.00" xlink:href="#hd"/>
<path d="M529.44 98.00v32.20" class="stroke"/>
<use x="550.94" y="101.00" xlink:href="#hd"/>
<use x="541.94" y="101.00" xlink:href="#sh0"/>
<path d="M547.44 101.00v31.20" class="stroke"/>
<use x="568.74" y="98.00" xlink:href="#hd"/>
<path d="M565.24 98.00v36.20" class="stroke"/>
<use x="586.54" y="107.00" xlink:href="#hd"/>
<path d="M583.04 107.00v29.20" class="stroke"/>
<use x="604.44" y="113.00" xlink:href="#hd"/>
<path d="M600.94 113.00v25.20" class="stroke"/>
<use x="622.24" y="119.00" xlink:href="#hd"/>
<path d="M618.74 119.00v21.20" class="stroke"/>
<path class="fill"
	d="M646.34 138.20l90.00 0.00v-3.20l-90.00 -0.00"/>
<path class="fill"
	d="M646.64 133.20l89.30 0.00v-3.20l-89.30 -0.00"/>
<use x="650.14" y="110.00" xlink:href="#hd"/>
<path d="M646.64 110.00v27.20" class="stroke"/>
<use x="667.94" y="104.00" xlink:href="#hd"/>
<path d="M664.44 104.00v33.20" class="stroke"/>
<use x="685.74" y="98.00" xlink:href="#hd"/>
<path d="M682.24 98.00v39.20" class="stroke"/>
<use x="703.64" y="107.00" xlink:href="#hd"/>
<path d="M700.14 107.00v30.20" class="stroke"/>
<use x="721.44" y="116.00" xlink:href="#hd"/>
<path d="M717.94 116.00v21.20" class="stroke"/>
<use x="739.44" y="101.00" xlink:href="#hd"/>
<use x="730.44" y="101.00" xlink:href="#sh0"/>
<path d="M735.94 101.00v36.20" class="stroke"/>
<use x="767.34" y="98.00" xlink:href="#hd"/>
<path d="M763.84 98.00v40.00" class="stroke"/>
<use x="767.34" y="119.00" xlink:href="#hd"/>
<use x="767.34" y="113.00" xlink:href="#hd"/>
<use x="767.34" y="107.00" xlink:href="#hd"/>
<defs>
<path id="r8e" class="fill" d="m 0 0
	c-1.5 1.5 -2.4 2 -3.6 2
	2.4 -2.8 -2.8 -4 -2.8 -1.2
	c0 2.7 4.3 2.4 5.9 0.6"/>
<g id="r8">
	<path d="m3.3 -4l-3.4 9.6" class="stroke"/>
	<use x="3.4" y="-4" xlink:href="#r8e"/>
</g>
</defs>
<use x="828.34" y="113.00" xlink:href="#r8"/>
<defs>
<path id="ubclef" class="fill" d="m-200 -87
	c124 -35 222 -78 254 -236
	43 -228 -167 -246 -192 -103
	59 -80 157 22 92 78
	-62 47 -115 -22 -106 -88
	21 -141 270 -136 274 52
	-1 175 -106 264 -322 297
	m357 -250
	c0 -36 51 -34 51 0
	0 37 -51 36 -51 0
	m-2 -129
	c0 -36 51 -34 51 0
	0 38 -51 37 -51 0"/>
<use id="bclef" transform="translate(0,18) scale(0.045)"
	xlink:href="#ubclef"/>
</defs>
<use x="23.54" y="165.00" xlink:href="#bclef"/>
<g font-family="serif" font-size="16" font-weight="bold" font-style="normal"
	transform="translate(42.04,182.50) scale(1.2,1)">
	<text text-anchor="middle">8</text>
	<text y="-12" text-anchor="middle">3</text>
</g>
<use x="85.54" y="168.00" xlink:href="#hd"/>
<path d="M82.04 168.00v25.00" class="stroke"/>
<use x="85.54" y="174.00" xlink:href="#hd"/>
<use x="146.44" y="171.00" xlink:href="#r8"/>
<use x="192.14" y="174.00" xlink:href="#hd"/>
<path d="M195.64 174.00v-21.00" class="stroke"/>
<use x="242.54" y="171.00" xlink:href="#r8"/>
<use x="276.24" y="156.00" xlink:href="#hd"/>
<path d="M272.74 156.00v25.00" class="stroke"/>
<use x="276.24" y="162.00" xlink:href="#hd"/>
<use x="326.64" y="171.00" xlink:href="#r8"/>
<use x="360.24" y="162.00" xlink:href="#hd"/>
<path d="M356.74 162.00v25.00" class="stroke"/>
<use x="360.24" y="168.00" xlink:href="#hd"/>
<use x="410.64" y="171.00" xlink:href="#r8"/>
<path class="fill"
	d="M451.94 153.00l51.20 0.00v3.20l-51.20 -0.00"/>
<use x="448.84" y="174.00" xlink:href="#hd"/>
<path d="M452.34 174.00v-20.00" class="stroke"/>
<use x="474.04" y="174.00" xlink:href="#hd"/>
<path d="M477.54 174.00v-20.00" class="stroke"/>
<use x="499.24" y="174.00" xlink:href="#hd"/>
<path d="M502.74 174.00v-20.00" class="stroke"/>
<use x="532.94" y="177.00" xlink:href="#hd"/>
<path d="M536.44 177.00v-25.00" class="stroke"/>
<use x="532.94" y="171.00" xlink:href="#hd"/>
<use x="604.44" y="162.00" xlink:href="#hd"/>
<path d="M600.94 162.00v34.00" class="stroke"/>
<path class="fill"
	d="M600.94 196.00c0.6 -5.6 9.6 -9 5.6 -18.4
	1.6 6 -1.3 11.6 -5.6 12.8
"/>
<use x="604.44" y="177.00" xlink:href="#hd"/>
<path class="fill"
	d="M653.34 147.60l72.00 8.40v3.20l-72.00 -8.40"/>
<use x="650.14" y="174.00" xlink:href="#hd"/>
<path d="M653.64 174.00v-25.30" class="stroke"/>
<use x="685.74" y="171.00" xlink:href="#hd"/>
<path d="M689.24 171.00v-18.20" class="stroke"/>
<defs>
<path id="hl" class="stroke" d="m-6 0h12"/>
</defs>
<use x="721.44" y="189.00" xlink:href="#hl"/>
<use x="721.44" y="192.00" xlink:href="#hd"/>
<path d="M724.94 192.00v-35.10" class="stroke"/>
<path class="fill"
	d="M763.54 202.20l79.50 0.00v-3.20l-79.50 -0.00"/>
<path class="fill"
	d="M789.04 197.20l53.60 0.00v-3.20l-53.60 -0.00"/>
<use x="767.34" y="183.00" xlink:href="#hd"/>
<path d="M763.84 183.00v18.20" class="stroke"/>
<use x="792.54" y="162.00" xlink:href="#hd"/>
<path d="M789.04 162.00v39.20" class="stroke"/>
<use x="810.54" y="165.00" xlink:href="#hd"/>
<defs>
<path id="unat" class="fill" d="
	m96 -750
	h-32
	v716
	l32 -8
	182 -54
	v282
	h32
	v-706
	l-34 10
	-180 50
	v-290
	m0 592
	v-190
	l182 -52
	v188"/>
<use id="nt0" transform="translate(-3,5) scale(0.018)"
	xlink:href="#unat"/>
</defs>
<use x="801.54" y="165.00" xlink:href="#nt0"/>
<path d="M807.04 165.00v36.20" class="stroke"/>
<use x="828.34" y="168.00" xlink:href="#hd"/>
<path d="M824.84 168.00v33.20" class="stroke"/>
<use x="846.14" y="171.00" xlink:href="#hd"/>
<path d="M842.64 171.00v30.20" class="stroke"/>
</g>
<g stroke-width="0.70" transform="scale(0.867)" font-family="Times" font-size="13.00">
<path class="stroke" stroke-width="1"
	d="M11.54 316.00v-82.00"/>
<path class="fill"
	d="M6.54 231.00
	c10.5 1 12 -4.5 12 -3.5c0 1 -3.5 5.5 -8.5 5.5
	v84.00
	c5 0 8.5 4.5 8.5 5.5c0 1 -1.5 -4.5 -12 -3.5"/>
<use x="145.74" y="258.00" xlink:href="#rdots"/>
<path class="stroke" stroke-width="1"
	d="M141.74 258.00v-24.00"/>
<path class="stroke" stroke-width="3"
	d="M137.24 258.00v-24.00"/>
<use x="145.74" y="316.00" xlink:href="#rdots"/>
<path class="stroke" stroke-width="1"
	d="M141.74 316.00v-58.00"/>
<path class="stroke" stroke-width="3"
	d="M137.24 316.00v-58.00"/>
<path class="stroke" stroke-width="1"
	d="M259.84 258.00v-24.00"/>
<path class="stroke" stroke-width="1"
	d="M259.84 316.00v-58.00"/>
<path class="stroke" stroke-width="1"
	d="M341.64 258.00v-24.00"/>
<path class="stroke" stroke-width="1"
	d="M341.64 316.00v-58.00"/>
<path class="stroke" stroke-width="1"
	d="M443.54 258.00v-24.00"/>
<path class="stroke" stroke-width="1"
	d="M443.54 316.00v-58.00"/>
<path class="stroke" stroke-width="1"
	d="M534.54 258.00v-24.00"/>
<path class="stroke" stroke-width="1"
	d="M534.54 316.00v-58.00"/>
<path class="stroke" stroke-width="1"
	d="M627.14 258.00v-24.00"/>
<path class="stroke" stroke-width="1"
	d="M627.14 316.00v-58.00"/>
<path class="stroke" stroke-width="1"
	d="M699.74 258.00v-24.00"/>
<path class="stroke" stroke-width="1"
	d="M699.74 316.00v-58.00"/>
<path class="stroke" stroke-width="1"
	d="M781.54 258.00v-24.00"/>
<path class="stroke" stroke-width="1"
	d="M781.54 316.00v-58.00"/>
<path class="stroke" stroke-width="3"
	d="M860.54 258.00v-24.00"/>
<path class="stroke" stroke-width="1"
	d="M856.04 258.00v-24.00"/>
<use x="852.04" y="258.00" xlink:href="#rdots"/>
<path class="stroke" stroke-width="3"
	d="M860.54 316.00v-58.00"/>
<path class="stroke" stroke-width="1"
	d="M856.04 316.00v-58.00"/>
<use x="852.04" y="316.00" xlink:href="#rdots"/>
<path d="m11.54 258.00
	h850.50
	M11.54 252.00
	h850.50
	M11.54 246.00
	h850.50
	M11.54 240.00
	h850.50
	M11.54 234.00
	h850.50
	" class="stroke"/>
<path d="m11.54 316.00
	h850.50
	M11.54 310.00
	h850.50
	M11.54 304.00
	h850.50
	M11.54 298.00
	h850.50
	M11.54 292.00
	h850.50
	" class="stroke"/>
<path class="fill"
	d="M639.64 241.00c6.14 -5.32 32.86 -10.53 39.00 -7.60
	v-0.24c-7.31 -4.69 -31.69 0.52 -39.00 7.84"/>
<text x="47.54" y="219.40">2</text>
<path class="stroke"
	d="M43.54 208.00m0 20v-20h91.20v20"/>
<use x="23.54" y="252.00" xlink:href="#tclef"/>
<use x="56.04" y="231.00" xlink:href="#hd"/>
<path d="M52.54 231.00v40.00" class="stroke"/>
<use x="56.04" y="252.00" xlink:href="#hd"/>
<use x="56.04" y="246.00" xlink:href="#hd"/>
<use x="56.04" y="240.00" xlink:href="#hd"/>
<use x="110.94" y="246.00" xlink:href="#r8"/>
<use x="165.24" y="234.00" xlink:href="#hd"/>
<use x="156.24" y="234.00" xlink:href="#sh0"/>
<path d="M161.74 234.00v34.00" class="stroke"/>
<path class="fill"
	d="M161.74 268.00c0.6 -5.6 9.6 -9 5.6 -18.4
	1.6 6 -1.3 11.6 -5.6 12.8
"/>
<use x="165.24" y="249.00" xlink:href="#hd"/>
<use x="165.24" y="240.00" xlink:href="#hd"/>
<use x="198.64" y="234.00" xlink:href="#hd"/>
<path d="M195.14 234.00v21.00" class="stroke"/>
<path class="fill"
	d="M268.54 254.60l52.90 4.60v-3.20l-52.90 -4.60"/>
<path class="fill"
	d="M290.34 251.50l15.40 1.30v-3.20l-15.40 -1.30"/>
<use x="272.34" y="231.00" xlink:href="#hd"/>
<path d="M268.84 231.00v22.60" class="stroke"/>
<use x="293.84" y="228.00" xlink:href="#hl"/>
<use x="293.84" y="225.00" xlink:href="#hd"/>
<path d="M290.34 225.00v30.50" class="stroke"/>
<use x="309.24" y="231.00" xlink:href="#hd"/>
<path d="M305.74 231.00v25.90" class="stroke"/>
<use x="324.64" y="240.00" xlink:href="#hd"/>
<path d="M321.14 240.00v18.20" class="stroke"/>
<path class="fill"
	d="M350.34 274.20l77.50 0.00v-3.20l-77.50 -0.00"/>
<path class="fill"
	d="M350.64 269.20l76.80 0.00v-3.20l-76.80 -0.00"/>
<use x="354.14" y="243.00" xlink:href="#hd"/>
<path d="M350.64 243.00v30.20" class="stroke"/>
<use x="369.54" y="252.00" xlink:href="#hd"/>
<path d="M366.04 252.00v21.20" class="stroke"/>
<use x="384.94" y="243.00" xlink:href="#hd"/>
<path d="M381.44 243.00v30.20" class="stroke"/>
<use x="400.24" y="237.00" xlink:href="#hd"/>
<path d="M396.74 237.00v36.20" class="stroke"/>
<use x="415.64" y="231.00" xlink:href="#hd"/>
<path d="M412.14 231.00v42.20" class="stroke"/>
<use x="431.04" y="237.00" xlink:href="#hd"/>
<path d="M427.54 237.00v36.20" class="stroke"/>
<use x="431.04" y="243.00" xlink:href="#hd"/>
<path class="fill"
	d="M452.14 268.20l62.10 0.00v-3.20l-62.10 -0.00"/>
<path class="fill"
	d="M452.54 263.20l46.10 0.00v-3.20l-46.10 -0.00"/>
<use x="456.04" y="237.00" xlink:href="#hd"/>
<path d="M452.54 237.00v30.20" class="stroke"/>
<use x="471.34" y="243.00" xlink:href="#hd"/>
<path d="M467.84 243.00v24.20" class="stroke"/>
<use x="486.74" y="246.00" xlink:href="#hd"/>
<path d="M483.24 246.00v21.20" class="stroke"/>
<use x="502.14" y="240.00" xlink:href="#hd"/>
<path d="M498.64 240.00v27.20" class="stroke"/>
<use x="517.44" y="231.00" xlink:href="#hd"/>
<path d="M513.94 231.00v36.20" class="stroke"/>
<path class="fill"
	d="M543.24 256.20l68.30 9.00v-3.20l-68.30 -9.00"/>
<path class="fill"
	d="M565.04 254.10l46.10 6.10v-3.20l-46.10 -6.10"/>
<use x="547.04" y="231.00" xlink:href="#hd"/>
<path d="M543.54 231.00v24.30" class="stroke"/>
<use x="568.54" y="234.00" xlink:href="#hd"/>
<path d="M565.04 234.00v24.10" class="stroke"/>
<use x="583.94" y="237.00" xlink:href="#hd"/>
<path d="M580.44 237.00v23.10" class="stroke"/>
<use x="599.24" y="240.00" xlink:href="#hd"/>
<path d="M595.74 240.00v22.20" class="stroke"/>
<use x="614.64" y="243.00" xlink:href="#hd"/>
<path d="M611.14 243.00v21.20" class="stroke"/>
<path class="fill"
	d="M635.84 271.30l43.70 -6.40v-3.20l-43.70 6.40"/>
<use x="639.64" y="252.00" xlink:href="#hd"/>
<path d="M636.14 252.00v18.20" class="stroke"/>
<use x="661.14" y="243.00" xlink:href="#hd"/>
<path d="M657.64 243.00v24.00" class="stroke"/>
<use x="682.64" y="237.00" xlink:href="#hd"/>
<path d="M679.14 237.00v26.90" class="stroke"/>
<path class="fill"
	d="M708.44 264.70l52.90 5.90v-3.20l-52.90 -5.90"/>
<path class="fill"
	d="M708.74 259.80l15.40 1.70v-3.20l-15.40 -1.70"/>
<use x="712.24" y="234.00" xlink:href="#hd"/>
<path d="M708.74 234.00v29.80" class="stroke"/>
<use x="727.64" y="240.00" xlink:href="#hd"/>
<path d="M724.14 240.00v25.50" class="stroke"/>
<use x="742.94" y="249.00" xlink:href="#hd"/>
<path d="M739.44 249.00v18.20" class="stroke"/>
<use x="764.44" y="246.00" xlink:href="#hd"/>
<path d="M760.94 246.00v23.60" class="stroke"/>
<path class="fill"
	d="M797.24 223.70l22.20 7.30v3.20l-22.20 -7.30"/>
<use x="794.04" y="243.00" xlink:href="#hd"/>
<path d="M797.54 243.00v-18.20" class="stroke"/>
<use x="815.54" y="264.00" xlink:href="#hl"/>
<use x="815.54" y="264.00" xlink:href="#hd"/>
<path d="M819.04 264.00v-32.10" class="stroke"/>
<use x="837.04" y="246.00" xlink:href="#r8"/>
<use x="23.54" y="298.00" xlink:href="#bclef"/>
<path class="fill"
	d="M52.24 335.20l70.90 -5.10v-3.20l-70.90 5.10"/>
<path class="fill"
	d="M74.04 328.70l48.70 -3.50v-3.20l-48.70 3.50"/>
<use x="56.04" y="316.00" xlink:href="#hd"/>
<path d="M52.54 316.00v18.20" class="stroke"/>
<use x="77.54" y="289.00" xlink:href="#hd"/>
<path d="M74.04 289.00v43.70" class="stroke"/>
<use x="92.94" y="295.00" xlink:href="#hd"/>
<path d="M89.44 295.00v36.60" class="stroke"/>
<use x="110.94" y="298.00" xlink:href="#hd"/>
<use x="101.94" y="298.00" xlink:href="#sh0"/>
<path d="M107.44 298.00v32.30" class="stroke"/>
<use x="126.24" y="301.00" xlink:href="#hd"/>
<path d="M122.74 301.00v28.20" class="stroke"/>
<path class="fill"
	d="M168.44 283.10l82.80 -6.90v3.20l-82.80 6.90"/>
<path class="fill"
	d="M168.74 288.10l82.10 -6.90v3.20l-82.10 6.90"/>
<use x="165.24" y="322.00" xlink:href="#hl"/>
<use x="165.24" y="325.00" xlink:href="#hd"/>
<path d="M168.74 325.00v-40.90" class="stroke"/>
<use x="180.64" y="304.00" xlink:href="#hd"/>
<path d="M184.14 304.00v-21.20" class="stroke"/>
<use x="198.64" y="307.00" xlink:href="#hd"/>
<use x="189.64" y="307.00" xlink:href="#sh0"/>
<path d="M202.14 307.00v-25.70" class="stroke"/>
<use x="214.04" y="304.00" xlink:href="#hd"/>
<path d="M217.54 304.00v-24.00" class="stroke"/>
<use x="232.04" y="307.00" xlink:href="#hd"/>
<use x="223.04" y="307.00" xlink:href="#sh0"/>
<path d="M235.54 307.00v-28.50" class="stroke"/>
<use x="247.34" y="304.00" xlink:href="#hd"/>
<path d="M250.84 304.00v-26.80" class="stroke"/>
<use x="272.34" y="295.00" xlink:href="#hd"/>
<path d="M268.84 295.00v34.00" class="stroke"/>
<use x="272.34" y="310.00" xlink:href="#hd"/>
<use x="324.64" y="304.00" xlink:href="#r8"/>
<use x="354.14" y="301.00" xlink:href="#hd"/>
<path d="M350.64 301.00v21.00" class="stroke"/>
<path class="fill"
	d="M411.84 325.80l16.00 3.50v-3.20l-16.00 -3.50"/>
<path class="fill"
	d="M412.14 320.80l15.40 3.40v-3.20l-15.40 -3.40"/>
<use x="415.64" y="301.00" xlink:href="#hd"/>
<path d="M412.14 301.00v23.80" class="stroke"/>
<use x="431.04" y="307.00" xlink:href="#hd"/>
<path d="M427.54 307.00v21.20" class="stroke"/>
<path class="fill"
	d="M459.14 275.70l31.40 9.10v3.20l-31.40 -9.10"/>
<use x="456.04" y="295.00" xlink:href="#hd"/>
<path d="M459.54 295.00v-18.20" class="stroke"/>
<use x="486.74" y="316.00" xlink:href="#hd"/>
<path d="M490.24 316.00v-30.30" class="stroke"/>
<use x="517.44" y="304.00" xlink:href="#r8"/>
<use x="547.04" y="301.00" xlink:href="#hd"/>
<path d="M543.54 301.00v25.00" class="stroke"/>
<use x="547.04" y="307.00" xlink:href="#hd"/>
<use x="599.24" y="304.00" xlink:href="#r8"/>
<use x="639.64" y="301.00" xlink:href="#hd"/>
<path d="M636.14 301.00v25.00" class="stroke"/>
<use x="639.64" y="307.00" xlink:href="#hd"/>
<use x="682.64" y="295.00" xlink:href="#hd"/>
<path d="M679.14 295.00v31.00" class="stroke"/>
<path class="fill"
	d="M679.14 326.00c0.6 -5.6 9.6 -9 5.6 -18.4
	1.6 6 -1.3 11.6 -5.6 12.8
"/>
<use x="682.64" y="307.00" xlink:href="#hd"/>
<use x="712.24" y="298.00" xlink:href="#hd"/>
<path d="M708.74 298.00v21.00" class="stroke"/>
<use x="764.44" y="295.00" xlink:href="#hd"/>
<path d="M760.94 295.00v21.00" class="stroke"/>
<path class="fill"
	d="M760.94 316.00c0.6 -5.6 9.6 -9 5.6 -18.4
	1.6 6 -1.3 11.6 -5.6 12.8
"/>
<use x="794.04" y="307.00" xlink:href="#hd"/>
<path d="M797.54 307.00v-21.00" class="stroke"/>
<use x="837.04" y="322.00" xlink:href="#hl"/>
<use x="837.04" y="328.00" xlink:href="#hl"/>
<use x="837.04" y="328.00" xlink:href="#hd"/>
<path d="M840.54 328.00v-24.00" class="stroke"/>
<path class="fill"
	d="M840.54 304.00c0.6 5.6 9.6 9 5.6 18.4
	1.6 -6 -1.3 -11.6 -5.6 -12.8
"/>
<defs>
<text id="trl" font-family="serif" font-size="16" font-style="italic"
	x="-2" y="-4">tr</text>
</defs>
<use x="198.64" y="228.00" xlink:href="#trl"/>
</g>
</svg>
