<?xml version="1.0" standalone="no"?>
<!DOCTYPE svg PUBLIC "-//W3C//DTD SVG 1.1//EN"
	"http://www.w3.org/Graphics/SVG/1.1/DTD/svg11.dtd">
<svg xmlns="http://www.w3.org/2000/svg" version="1.1"
	xmlns:xlink="http://www.w3.org/1999/xlink"
	color="black"
	width="757.10px" height="299.00px">
<style type="text/css">
.fill {fill: currentColor}
.stroke {stroke: currentColor; fill: none}
text{white-space: pre}
</style>
<title>./K516f-9-2-12-5-8-4-7-7-6-10-12-12-11-9-2-11.abc (2482) tune 1</title>
<!-- Creator: abcm2ps-8.13.8 -->
<!-- CreationDate: Sep  7, 2017 11:19 -->
<!-- CommandLine: ./K516f-9-2-12-5-8-4-7-7-6-10-12-12-11-9-2-11.abc -O ./K516f-9-2-12-5-8-4-7-7-6-10-12-12-11-9-2-11.svg -g -->
<rect width="100%" height="100%" fill="white"/>
<g stroke-width="0.70" transform="scale(0.867)">
<!-- title: 9-2-12-5-8-4-7-7-6-10-12-12-11-9-2-11 -->
</g>
<g stroke-width="0.70" transform="scale(0.867)" font-family="Times" font-size="20.00">
<text x="436.84" y="22.00" text-anchor="middle">9-2-12-5-8-4-7-7-6-10-12-12-11-9-2-11</text>
</g>
<g stroke-width="0.70" transform="scale(0.867)" font-family="Times" font-size="20.00">
<!-- subtitle: $1K.516f::119:22:10:85:99:55:118:91:25:77:108:92:144:115:109:78::$0 -->
</g>
<g stroke-width="0.70" transform="scale(0.867)" font-family="Courier" font-size="8.00" font-weight="bold">
<text x="436.84" y="41.80" text-anchor="middle">K.516f::119:22:10:85:99:55:118:91:25:77:108:92:144:115:109:78::</text>
</g>
<g stroke-width="0.70" transform="scale(0.867)" font-family="Courier" font-size="8.00" font-weight="bold">
<!-- subtitle: $1Perm. No.: 24821559488162$0 -->
<text x="436.84" y="60.80" text-anchor="middle">Perm. No.: 24821559488162</text>
</g>
<g stroke-width="0.70" transform="scale(0.607)" font-family="Courier" font-size="8.00" font-weight="bold">
<defs>
<ellipse id="hd" rx="4.1" ry="2.9"
	transform="rotate(-20)" class="fill"/>
</defs>
<use x="103.06" y="121.29" xlink:href="#hd"/>
<path d="M106.56 121.29v-21.00" class="stroke"/>
<path class="fill"
	d="M106.56 100.29c0.6 5.6 9.6 9 5.6 18.4
	1.6 -6 -1.3 -11.6 -5.6 -12.8
"/>
</g>
<g stroke-width="0.70" transform="scale(0.867)" font-family="Times" font-size="15.00" font-weight="bold">
<text x="81.24" y="87.00">= 111</text>
<path class="stroke" stroke-width="1"
	d="M11.54 183.00v-82.00"/>
<path class="fill"
	d="M6.54 98.00
	c10.5 1 12 -4.5 12 -3.5c0 1 -3.5 5.5 -8.5 5.5
	v84.00
	c5 0 8.5 4.5 8.5 5.5c0 1 -1.5 -4.5 -12 -3.5"/>
<defs>
<g id="rdots" class="fill">
	<circle cx="0" cy="-9" r="1.2"/>
	<circle cx="0" cy="-15" r="1.2"/>
</g>
</defs>
<use x="70.54" y="125.00" xlink:href="#rdots"/>
<path class="stroke" stroke-width="1"
	d="M66.54 125.00v-24.00"/>
<path class="stroke" stroke-width="3"
	d="M62.04 125.00v-24.00"/>
<use x="70.54" y="183.00" xlink:href="#rdots"/>
<path class="stroke" stroke-width="1"
	d="M66.54 183.00v-58.00"/>
<path class="stroke" stroke-width="3"
	d="M62.04 183.00v-58.00"/>
<path class="stroke" stroke-width="1"
	d="M186.94 125.00v-24.00"/>
<path class="stroke" stroke-width="1"
	d="M186.94 183.00v-58.00"/>
<path class="stroke" stroke-width="1"
	d="M269.84 125.00v-24.00"/>
<path class="stroke" stroke-width="1"
	d="M269.84 183.00v-58.00"/>
<path class="stroke" stroke-width="1"
	d="M385.34 125.00v-24.00"/>
<path class="stroke" stroke-width="1"
	d="M385.34 183.00v-58.00"/>
<path class="stroke" stroke-width="1"
	d="M468.24 125.00v-24.00"/>
<path class="stroke" stroke-width="1"
	d="M468.24 183.00v-58.00"/>
<path class="stroke" stroke-width="1"
	d="M555.74 125.00v-24.00"/>
<path class="stroke" stroke-width="1"
	d="M555.74 183.00v-58.00"/>
<path class="stroke" stroke-width="1"
	d="M638.64 125.00v-24.00"/>
<path class="stroke" stroke-width="1"
	d="M638.64 183.00v-58.00"/>
<path class="stroke" stroke-width="1"
	d="M754.54 125.00v-24.00"/>
<path class="stroke" stroke-width="1"
	d="M754.54 183.00v-58.00"/>
<path class="stroke" stroke-width="3"
	d="M860.54 125.00v-24.00"/>
<path class="stroke" stroke-width="1"
	d="M856.04 125.00v-24.00"/>
<use x="852.04" y="125.00" xlink:href="#rdots"/>
<path class="stroke" stroke-width="3"
	d="M860.54 183.00v-58.00"/>
<path class="stroke" stroke-width="1"
	d="M856.04 183.00v-58.00"/>
<use x="852.04" y="183.00" xlink:href="#rdots"/>
<path d="m11.54 125.00
	h850.50
	M11.54 119.00
	h850.50
	M11.54 113.00
	h850.50
	M11.54 107.00
	h850.50
	M11.54 101.00
	h850.50
	" class="stroke"/>
<path d="m11.54 183.00
	h850.50
	M11.54 177.00
	h850.50
	M11.54 171.00
	h850.50
	M11.54 165.00
	h850.50
	M11.54 159.00
	h850.50
	" class="stroke"/>
</g>
<g stroke-width="0.70" transform="scale(0.867)" font-family="Times" font-size="13.00">
<text x="758.54" y="86.40">1</text>
<path class="stroke"
	d="M754.54 75.00m0 20v-20h99.50v20"/>
<defs>
<path id="utclef" class="fill" d="m-50 -90
	c-72 -41 -72 -158 52 -188
	150 -10 220 188 90 256
	-114 52 -275 0 -293 -136
	-15 -181 93 -229 220 -334
	88 -87 79 -133 62 -210
	-51 33 -94 105 -89 186
	17 267 36 374 49 574
	6 96 -19 134 -77 135
	-80 1 -126 -93 -61 -133
	85 -41 133 101 31 105
	23 17 92 37 90 -92
	-10 -223 -39 -342 -50 -617
	0 -90 0 -162 96 -232
	56 72 63 230 22 289
	-74 106 -257 168 -255 316
	9 153 148 185 252 133
	86 -65 29 -192 -80 -176
	-71 12 -105 67 -59 124"/>
<use id="tclef" transform="translate(0,6) scale(0.045)"
	xlink:href="#utclef"/>
</defs>
<use x="23.54" y="119.00" xlink:href="#tclef"/>
<g font-family="serif" font-size="16" font-weight="bold" font-style="normal"
	transform="translate(42.04,124.50) scale(1.2,1)">
	<text text-anchor="middle">8</text>
	<text y="-12" text-anchor="middle">3</text>
</g>
<path class="fill"
	d="M81.54 133.50l88.60 -6.20v-3.20l-88.60 6.20"/>
<path class="fill"
	d="M81.94 128.40l87.90 -6.20v-3.20l-87.90 6.20"/>
<use x="85.44" y="104.00" xlink:href="#hd"/>
<path d="M81.94 104.00v28.40" class="stroke"/>
<use x="102.94" y="110.00" xlink:href="#hd"/>
<path d="M99.44 110.00v21.20" class="stroke"/>
<use x="120.54" y="98.00" xlink:href="#hd"/>
<path d="M117.04 98.00v32.00" class="stroke"/>
<use x="138.14" y="104.00" xlink:href="#hd"/>
<path d="M134.64 104.00v24.70" class="stroke"/>
<defs>
<path id="hl" class="stroke" d="m-6 0h12"/>
</defs>
<use x="155.74" y="95.00" xlink:href="#hl"/>
<use x="155.74" y="89.00" xlink:href="#hl"/>
<use x="155.74" y="89.00" xlink:href="#hd"/>
<path d="M152.24 89.00v38.50" class="stroke"/>
<use x="173.24" y="98.00" xlink:href="#hd"/>
<path d="M169.74 98.00v28.30" class="stroke"/>
<path class="fill"
	d="M197.04 131.50l50.40 6.70v-3.20l-50.40 -6.70"/>
<use x="200.84" y="104.00" xlink:href="#hd"/>
<path d="M197.34 104.00v26.60" class="stroke"/>
<use x="225.64" y="110.00" xlink:href="#hd"/>
<path d="M222.14 110.00v23.90" class="stroke"/>
<use x="250.54" y="119.00" xlink:href="#hd"/>
<path d="M247.04 119.00v18.20" class="stroke"/>
<path class="fill"
	d="M279.94 138.20l88.60 0.00v-3.20l-88.60 -0.00"/>
<path class="fill"
	d="M280.24 133.20l87.90 0.00v-3.20l-87.90 -0.00"/>
<use x="283.74" y="113.00" xlink:href="#hd"/>
<path d="M280.24 113.00v24.20" class="stroke"/>
<use x="301.34" y="116.00" xlink:href="#hd"/>
<path d="M297.84 116.00v21.20" class="stroke"/>
<use x="318.84" y="113.00" xlink:href="#hd"/>
<path d="M315.34 113.00v24.20" class="stroke"/>
<use x="336.44" y="110.00" xlink:href="#hd"/>
<path d="M332.94 110.00v27.20" class="stroke"/>
<use x="354.04" y="107.00" xlink:href="#hd"/>
<path d="M350.54 107.00v30.20" class="stroke"/>
<use x="371.64" y="113.00" xlink:href="#hd"/>
<path d="M368.14 113.00v24.20" class="stroke"/>
<path class="fill"
	d="M395.34 133.70l50.40 4.50v-3.20l-50.40 -4.50"/>
<use x="399.14" y="110.00" xlink:href="#hd"/>
<path d="M395.64 110.00v22.80" class="stroke"/>
<use x="424.04" y="104.00" xlink:href="#hd"/>
<path d="M420.54 104.00v31.00" class="stroke"/>
<use x="448.84" y="119.00" xlink:href="#hd"/>
<path d="M445.34 119.00v18.20" class="stroke"/>
<path class="fill"
	d="M482.84 123.00l50.40 3.20v-3.20l-50.40 -3.20"/>
<use x="486.74" y="101.00" xlink:href="#hd"/>
<defs>
<path id="usharp" class="fill" d="
	m136 -702
	v890
	h32
	v-890
	m128 840
	h32
	v-888
	h-32
	m-232 286
	v116
	l338 -96
	v-116
	m-338 442
	v116
	l338 -98
	v-114"/>
<use id="sh0" transform="translate(-4,5) scale(0.018)"
	xlink:href="#usharp"/>
</defs>
<use x="477.74" y="101.00" xlink:href="#sh0"/>
<path d="M483.24 101.00v21.10" class="stroke"/>
<use x="511.54" y="95.00" xlink:href="#hl"/>
<use x="511.54" y="95.00" xlink:href="#hd"/>
<path d="M508.04 95.00v28.60" class="stroke"/>
<use x="536.44" y="107.00" xlink:href="#hd"/>
<path d="M532.94 107.00v18.20" class="stroke"/>
<path class="fill"
	d="M565.74 121.70l50.40 4.50v-3.20l-50.40 -4.50"/>
<use x="569.64" y="98.00" xlink:href="#hd"/>
<path d="M566.14 98.00v22.80" class="stroke"/>
<use x="594.44" y="95.00" xlink:href="#hl"/>
<use x="594.44" y="92.00" xlink:href="#hd"/>
<path d="M590.94 92.00v31.00" class="stroke"/>
<use x="619.34" y="107.00" xlink:href="#hd"/>
<path d="M615.84 107.00v18.20" class="stroke"/>
<path class="fill"
	d="M648.74 127.00l89.00 0.00v-3.20l-89.00 -0.00"/>
<path class="fill"
	d="M649.04 122.00l88.30 0.00v-3.20l-88.30 -0.00"/>
<use x="652.54" y="104.00" xlink:href="#hd"/>
<path d="M649.04 104.00v22.00" class="stroke"/>
<use x="670.14" y="95.00" xlink:href="#hl"/>
<use x="670.14" y="95.00" xlink:href="#hd"/>
<path d="M666.64 95.00v31.00" class="stroke"/>
<use x="687.64" y="98.00" xlink:href="#hd"/>
<path d="M684.14 98.00v28.00" class="stroke"/>
<use x="705.24" y="95.00" xlink:href="#hl"/>
<use x="705.24" y="92.00" xlink:href="#hd"/>
<path d="M701.74 92.00v34.00" class="stroke"/>
<use x="723.24" y="101.00" xlink:href="#hd"/>
<use x="714.24" y="101.00" xlink:href="#sh0"/>
<path d="M719.74 101.00v25.00" class="stroke"/>
<use x="740.84" y="95.00" xlink:href="#hl"/>
<use x="740.84" y="95.00" xlink:href="#hd"/>
<path d="M737.34 95.00v31.00" class="stroke"/>
<use x="768.44" y="98.00" xlink:href="#hd"/>
<path d="M764.94 98.00v40.00" class="stroke"/>
<use x="768.44" y="119.00" xlink:href="#hd"/>
<use x="768.44" y="113.00" xlink:href="#hd"/>
<use x="768.44" y="107.00" xlink:href="#hd"/>
<defs>
<path id="r8e" class="fill" d="m 0 0
	c-1.5 1.5 -2.4 2 -3.6 2
	2.4 -2.8 -2.8 -4 -2.8 -1.2
	c0 2.7 4.3 2.4 5.9 0.6"/>
<g id="r8">
	<path d="m3.3 -4l-3.4 9.6" class="stroke"/>
	<use x="3.4" y="-4" xlink:href="#r8e"/>
</g>
</defs>
<use x="828.84" y="113.00" xlink:href="#r8"/>
<defs>
<path id="ubclef" class="fill" d="m-200 -87
	c124 -35 222 -78 254 -236
	43 -228 -167 -246 -192 -103
	59 -80 157 22 92 78
	-62 47 -115 -22 -106 -88
	21 -141 270 -136 274 52
	-1 175 -106 264 -322 297
	m357 -250
	c0 -36 51 -34 51 0
	0 37 -51 36 -51 0
	m-2 -129
	c0 -36 51 -34 51 0
	0 38 -51 37 -51 0"/>
<use id="bclef" transform="translate(0,18) scale(0.045)"
	xlink:href="#ubclef"/>
</defs>
<use x="23.54" y="165.00" xlink:href="#bclef"/>
<g font-family="serif" font-size="16" font-weight="bold" font-style="normal"
	transform="translate(42.04,182.50) scale(1.2,1)">
	<text text-anchor="middle">8</text>
	<text y="-12" text-anchor="middle">3</text>
</g>
<use x="85.44" y="168.00" xlink:href="#hd"/>
<path d="M81.94 168.00v25.00" class="stroke"/>
<use x="85.44" y="174.00" xlink:href="#hd"/>
<use x="155.74" y="171.00" xlink:href="#r8"/>
<use x="200.84" y="174.00" xlink:href="#hd"/>
<path d="M204.34 174.00v-21.00" class="stroke"/>
<use x="250.54" y="171.00" xlink:href="#r8"/>
<use x="283.74" y="162.00" xlink:href="#hd"/>
<path d="M280.24 162.00v21.00" class="stroke"/>
<use x="354.04" y="171.00" xlink:href="#r8"/>
<use x="399.14" y="162.00" xlink:href="#hd"/>
<path d="M395.64 162.00v25.00" class="stroke"/>
<use x="399.14" y="168.00" xlink:href="#hd"/>
<use x="448.84" y="171.00" xlink:href="#r8"/>
<use x="486.74" y="159.00" xlink:href="#hd"/>
<path d="M483.24 159.00v34.00" class="stroke"/>
<use x="486.74" y="174.00" xlink:href="#hd"/>
<use x="536.44" y="159.00" xlink:href="#hd"/>
<path d="M532.94 159.00v34.00" class="stroke"/>
<path class="fill"
	d="M532.94 193.00c0.6 -5.6 9.6 -9 5.6 -18.4
	1.6 6 -1.3 11.6 -5.6 12.8
"/>
<use x="536.44" y="174.00" xlink:href="#hd"/>
<use x="569.64" y="177.00" xlink:href="#hd"/>
<path d="M573.14 177.00v-25.00" class="stroke"/>
<use x="569.64" y="171.00" xlink:href="#hd"/>
<use x="619.34" y="171.00" xlink:href="#r8"/>
<path class="fill"
	d="M655.74 147.60l71.40 8.40v3.20l-71.40 -8.40"/>
<use x="652.54" y="174.00" xlink:href="#hd"/>
<path d="M656.04 174.00v-25.30" class="stroke"/>
<use x="687.64" y="171.00" xlink:href="#hd"/>
<path d="M691.14 171.00v-18.20" class="stroke"/>
<use x="723.24" y="189.00" xlink:href="#hl"/>
<use x="723.24" y="192.00" xlink:href="#hd"/>
<path d="M726.74 192.00v-35.00" class="stroke"/>
<path class="fill"
	d="M764.54 202.20l78.70 0.00v-3.20l-78.70 -0.00"/>
<path class="fill"
	d="M789.74 197.20l53.20 0.00v-3.20l-53.20 -0.00"/>
<use x="768.44" y="183.00" xlink:href="#hd"/>
<path d="M764.94 183.00v18.20" class="stroke"/>
<use x="793.24" y="162.00" xlink:href="#hd"/>
<path d="M789.74 162.00v39.20" class="stroke"/>
<use x="811.24" y="165.00" xlink:href="#hd"/>
<defs>
<path id="unat" class="fill" d="
	m96 -750
	h-32
	v716
	l32 -8
	182 -54
	v282
	h32
	v-706
	l-34 10
	-180 50
	v-290
	m0 592
	v-190
	l182 -52
	v188"/>
<use id="nt0" transform="translate(-3,5) scale(0.018)"
	xlink:href="#unat"/>
</defs>
<use x="802.24" y="165.00" xlink:href="#nt0"/>
<path d="M807.74 165.00v36.20" class="stroke"/>
<use x="828.84" y="168.00" xlink:href="#hd"/>
<path d="M825.34 168.00v33.20" class="stroke"/>
<use x="846.44" y="171.00" xlink:href="#hd"/>
<path d="M842.94 171.00v30.20" class="stroke"/>
</g>
<g stroke-width="0.70" transform="scale(0.867)" font-family="Times" font-size="13.00">
<path class="stroke" stroke-width="1"
	d="M11.54 322.00v-88.00"/>
<path class="fill"
	d="M6.54 231.00
	c10.5 1 12 -4.5 12 -3.5c0 1 -3.5 5.5 -8.5 5.5
	v90.00
	c5 0 8.5 4.5 8.5 5.5c0 1 -1.5 -4.5 -12 -3.5"/>
<use x="144.44" y="258.00" xlink:href="#rdots"/>
<path class="stroke" stroke-width="1"
	d="M140.44 258.00v-24.00"/>
<path class="stroke" stroke-width="3"
	d="M135.94 258.00v-24.00"/>
<use x="144.44" y="322.00" xlink:href="#rdots"/>
<path class="stroke" stroke-width="1"
	d="M140.44 322.00v-64.00"/>
<path class="stroke" stroke-width="3"
	d="M135.94 322.00v-64.00"/>
<path class="stroke" stroke-width="1"
	d="M251.44 258.00v-24.00"/>
<path class="stroke" stroke-width="1"
	d="M251.44 322.00v-64.00"/>
<path class="stroke" stroke-width="1"
	d="M331.54 258.00v-24.00"/>
<path class="stroke" stroke-width="1"
	d="M331.54 322.00v-64.00"/>
<path class="stroke" stroke-width="1"
	d="M402.64 258.00v-24.00"/>
<path class="stroke" stroke-width="1"
	d="M402.64 322.00v-64.00"/>
<path class="stroke" stroke-width="1"
	d="M482.74 258.00v-24.00"/>
<path class="stroke" stroke-width="1"
	d="M482.74 322.00v-64.00"/>
<path class="stroke" stroke-width="1"
	d="M582.74 258.00v-24.00"/>
<path class="stroke" stroke-width="1"
	d="M582.74 322.00v-64.00"/>
<path class="stroke" stroke-width="1"
	d="M682.74 258.00v-24.00"/>
<path class="stroke" stroke-width="1"
	d="M682.74 322.00v-64.00"/>
<path class="stroke" stroke-width="1"
	d="M782.74 258.00v-24.00"/>
<path class="stroke" stroke-width="1"
	d="M782.74 322.00v-64.00"/>
<path class="stroke" stroke-width="3"
	d="M860.54 258.00v-24.00"/>
<path class="stroke" stroke-width="1"
	d="M856.04 258.00v-24.00"/>
<use x="852.04" y="258.00" xlink:href="#rdots"/>
<path class="stroke" stroke-width="3"
	d="M860.54 322.00v-64.00"/>
<path class="stroke" stroke-width="1"
	d="M856.04 322.00v-64.00"/>
<use x="852.04" y="322.00" xlink:href="#rdots"/>
<path d="m11.54 258.00
	h850.50
	M11.54 252.00
	h850.50
	M11.54 246.00
	h850.50
	M11.54 240.00
	h850.50
	M11.54 234.00
	h850.50
	" class="stroke"/>
<path d="m11.54 322.00
	h850.50
	M11.54 316.00
	h850.50
	M11.54 310.00
	h850.50
	M11.54 304.00
	h850.50
	M11.54 298.00
	h850.50
	" class="stroke"/>
<path class="fill"
	d="M344.04 229.00c5.96 -5.78 31.86 -13.04 37.82 -10.60
	v-0.24c-7.09 -4.20 -30.73 3.06 -37.82 10.84"/>
<text x="47.54" y="219.40">2</text>
<path class="stroke"
	d="M43.54 208.00m0 20v-20h89.90v20"/>
<use x="23.54" y="252.00" xlink:href="#tclef"/>
<use x="56.04" y="231.00" xlink:href="#hd"/>
<path d="M52.54 231.00v40.00" class="stroke"/>
<use x="56.04" y="252.00" xlink:href="#hd"/>
<use x="56.04" y="246.00" xlink:href="#hd"/>
<use x="56.04" y="240.00" xlink:href="#hd"/>
<use x="109.94" y="246.00" xlink:href="#r8"/>
<path class="fill"
	d="M154.14 281.30l81.70 -13.30v-3.20l-81.70 13.30"/>
<path class="fill"
	d="M154.44 276.20l81.00 -13.20v-3.20l-81.00 13.20"/>
<use x="157.94" y="261.00" xlink:href="#hd"/>
<path d="M154.44 261.00v19.20" class="stroke"/>
<use x="175.94" y="255.00" xlink:href="#hd"/>
<use x="166.94" y="255.00" xlink:href="#sh0"/>
<path d="M172.44 255.00v22.30" class="stroke"/>
<use x="190.94" y="249.00" xlink:href="#hd"/>
<path d="M187.44 249.00v25.80" class="stroke"/>
<use x="205.94" y="240.00" xlink:href="#hd"/>
<path d="M202.44 240.00v32.40" class="stroke"/>
<use x="223.94" y="234.00" xlink:href="#hd"/>
<use x="214.94" y="234.00" xlink:href="#sh0"/>
<path d="M220.44 234.00v35.50" class="stroke"/>
<use x="238.94" y="228.00" xlink:href="#hl"/>
<use x="238.94" y="228.00" xlink:href="#hd"/>
<path d="M235.44 228.00v39.00" class="stroke"/>
<path class="fill"
	d="M260.14 254.20l51.60 5.00v-3.20l-51.60 -5.00"/>
<path class="fill"
	d="M260.44 249.30l15.00 1.50v-3.20l-15.00 -1.50"/>
<use x="263.94" y="231.00" xlink:href="#hd"/>
<path d="M260.44 231.00v22.30" class="stroke"/>
<use x="278.94" y="228.00" xlink:href="#hl"/>
<use x="278.94" y="225.00" xlink:href="#hd"/>
<path d="M275.44 225.00v29.70" class="stroke"/>
<use x="293.94" y="231.00" xlink:href="#hd"/>
<path d="M290.44 231.00v25.20" class="stroke"/>
<use x="314.84" y="240.00" xlink:href="#hd"/>
<path d="M311.34 240.00v18.20" class="stroke"/>
<path class="fill"
	d="M340.24 256.30l42.50 -7.70v-3.20l-42.50 7.70"/>
<use x="344.04" y="237.00" xlink:href="#hd"/>
<path d="M340.54 237.00v18.20" class="stroke"/>
<use x="364.94" y="231.00" xlink:href="#hd"/>
<path d="M361.44 231.00v20.40" class="stroke"/>
<use x="385.84" y="228.00" xlink:href="#hl"/>
<use x="385.84" y="222.00" xlink:href="#hl"/>
<use x="385.84" y="222.00" xlink:href="#hd"/>
<path d="M382.34 222.00v25.60" class="stroke"/>
<path class="fill"
	d="M411.24 264.20l51.60 0.00v-3.20l-51.60 -0.00"/>
<path class="fill"
	d="M432.54 259.20l15.00 0.00v-3.20l-15.00 -0.00"/>
<use x="415.14" y="240.00" xlink:href="#hd"/>
<path d="M411.64 240.00v23.20" class="stroke"/>
<use x="415.14" y="246.00" xlink:href="#hd"/>
<use x="436.04" y="231.00" xlink:href="#hd"/>
<path d="M432.54 231.00v32.20" class="stroke"/>
<use x="451.04" y="228.00" xlink:href="#hl"/>
<use x="451.04" y="225.00" xlink:href="#hd"/>
<path d="M447.54 225.00v38.20" class="stroke"/>
<use x="466.04" y="240.00" xlink:href="#hd"/>
<path d="M462.54 240.00v23.20" class="stroke"/>
<path class="fill"
	d="M491.44 260.60l60.70 3.30v-3.20l-60.70 -3.30"/>
<use x="495.24" y="231.00" xlink:href="#hd"/>
<path d="M491.74 231.00v28.60" class="stroke"/>
<use x="525.24" y="243.00" xlink:href="#hd"/>
<path d="M521.74 243.00v18.20" class="stroke"/>
<use x="555.24" y="237.00" xlink:href="#hd"/>
<path d="M551.74 237.00v25.80" class="stroke"/>
<path class="fill"
	d="M591.44 275.50l75.70 -6.30v-3.20l-75.70 6.30"/>
<path class="fill"
	d="M591.74 270.40l75.00 -6.20v-3.20l-75.00 6.20"/>
<use x="595.24" y="243.00" xlink:href="#hd"/>
<path d="M591.74 243.00v31.40" class="stroke"/>
<use x="610.24" y="252.00" xlink:href="#hd"/>
<path d="M606.74 252.00v21.20" class="stroke"/>
<use x="625.24" y="237.00" xlink:href="#hd"/>
<path d="M621.74 237.00v35.00" class="stroke"/>
<use x="640.24" y="243.00" xlink:href="#hd"/>
<path d="M636.74 243.00v27.70" class="stroke"/>
<use x="655.24" y="231.00" xlink:href="#hd"/>
<path d="M651.74 231.00v38.50" class="stroke"/>
<use x="670.24" y="237.00" xlink:href="#hd"/>
<path d="M666.74 237.00v31.20" class="stroke"/>
<path class="fill"
	d="M691.34 266.00l75.70 0.00v-3.20l-75.70 -0.00"/>
<path class="fill"
	d="M691.74 261.00l75.00 0.00v-3.20l-75.00 -0.00"/>
<use x="695.24" y="240.00" xlink:href="#hd"/>
<path d="M691.74 240.00v24.90" class="stroke"/>
<use x="710.24" y="234.00" xlink:href="#hd"/>
<path d="M706.74 234.00v30.90" class="stroke"/>
<use x="725.24" y="240.00" xlink:href="#hd"/>
<path d="M721.74 240.00v24.90" class="stroke"/>
<use x="740.24" y="234.00" xlink:href="#hd"/>
<path d="M736.74 234.00v30.90" class="stroke"/>
<use x="755.24" y="246.00" xlink:href="#hd"/>
<path d="M751.74 246.00v18.90" class="stroke"/>
<use x="770.24" y="240.00" xlink:href="#hd"/>
<path d="M766.74 240.00v24.90" class="stroke"/>
<path class="fill"
	d="M798.34 223.70l21.60 7.20v3.20l-21.60 -7.20"/>
<use x="795.24" y="243.00" xlink:href="#hd"/>
<path d="M798.74 243.00v-18.20" class="stroke"/>
<use x="816.14" y="264.00" xlink:href="#hl"/>
<use x="816.14" y="264.00" xlink:href="#hd"/>
<path d="M819.64 264.00v-32.20" class="stroke"/>
<use x="837.04" y="246.00" xlink:href="#r8"/>
<use x="23.54" y="304.00" xlink:href="#bclef"/>
<path class="fill"
	d="M52.24 341.20l69.60 -5.00v-3.20l-69.60 5.00"/>
<path class="fill"
	d="M73.44 334.70l48.00 -3.50v-3.20l-48.00 3.50"/>
<use x="56.04" y="322.00" xlink:href="#hd"/>
<path d="M52.54 322.00v18.20" class="stroke"/>
<use x="76.94" y="295.00" xlink:href="#hd"/>
<path d="M73.44 295.00v43.70" class="stroke"/>
<use x="91.94" y="301.00" xlink:href="#hd"/>
<path d="M88.44 301.00v36.60" class="stroke"/>
<use x="109.94" y="304.00" xlink:href="#hd"/>
<use x="100.94" y="304.00" xlink:href="#sh0"/>
<path d="M106.44 304.00v32.30" class="stroke"/>
<use x="124.94" y="307.00" xlink:href="#hd"/>
<path d="M121.44 307.00v28.20" class="stroke"/>
<use x="157.94" y="310.00" xlink:href="#hd"/>
<path d="M161.44 310.00v-21.00" class="stroke"/>
<use x="223.94" y="313.00" xlink:href="#hd"/>
<path d="M227.44 313.00v-21.00" class="stroke"/>
<path class="fill"
	d="M227.44 292.00c0.6 5.6 9.6 9 5.6 18.4
	1.6 -6 -1.3 -11.6 -5.6 -12.8
"/>
<use x="263.94" y="316.00" xlink:href="#hd"/>
<path d="M267.44 316.00v-25.00" class="stroke"/>
<use x="263.94" y="310.00" xlink:href="#hd"/>
<use x="314.84" y="301.00" xlink:href="#hd"/>
<path d="M311.34 301.00v34.00" class="stroke"/>
<path class="fill"
	d="M311.34 335.00c0.6 -5.6 9.6 -9 5.6 -18.4
	1.6 6 -1.3 11.6 -5.6 12.8
"/>
<use x="314.84" y="316.00" xlink:href="#hd"/>
<use x="344.04" y="301.00" xlink:href="#hd"/>
<path d="M340.54 301.00v31.00" class="stroke"/>
<use x="344.04" y="313.00" xlink:href="#hd"/>
<use x="385.84" y="307.00" xlink:href="#hd"/>
<path d="M382.34 307.00v25.00" class="stroke"/>
<path class="fill"
	d="M382.34 332.00c0.6 -5.6 9.6 -9 5.6 -18.4
	1.6 6 -1.3 11.6 -5.6 12.8
"/>
<use x="385.84" y="313.00" xlink:href="#hd"/>
<use x="415.14" y="322.00" xlink:href="#hd"/>
<path d="M418.64 322.00v-40.00" class="stroke"/>
<use x="415.14" y="301.00" xlink:href="#hd"/>
<use x="466.04" y="301.00" xlink:href="#hd"/>
<path d="M462.54 301.00v21.00" class="stroke"/>
<path class="fill"
	d="M462.54 322.00c0.6 -5.6 9.6 -9 5.6 -18.4
	1.6 6 -1.3 11.6 -5.6 12.8
"/>
<path class="fill"
	d="M491.44 329.90l75.70 0.00v-3.20l-75.70 -0.00"/>
<path class="fill"
	d="M491.74 324.90l75.00 0.00v-3.20l-75.00 -0.00"/>
<use x="495.24" y="307.00" xlink:href="#hd"/>
<path d="M491.74 307.00v21.90" class="stroke"/>
<use x="495.24" y="313.00" xlink:href="#hd"/>
<use x="510.24" y="301.00" xlink:href="#hd"/>
<path d="M506.74 301.00v27.90" class="stroke"/>
<use x="525.24" y="307.00" xlink:href="#hd"/>
<path d="M521.74 307.00v21.90" class="stroke"/>
<use x="525.24" y="313.00" xlink:href="#hd"/>
<use x="540.24" y="301.00" xlink:href="#hd"/>
<path d="M536.74 301.00v27.90" class="stroke"/>
<use x="555.24" y="307.00" xlink:href="#hd"/>
<path d="M551.74 307.00v21.90" class="stroke"/>
<use x="555.24" y="313.00" xlink:href="#hd"/>
<use x="570.24" y="301.00" xlink:href="#hd"/>
<path d="M566.74 301.00v27.90" class="stroke"/>
<use x="595.24" y="307.00" xlink:href="#hd"/>
<path d="M591.74 307.00v25.00" class="stroke"/>
<use x="595.24" y="313.00" xlink:href="#hd"/>
<use x="655.24" y="310.00" xlink:href="#r8"/>
<use x="695.24" y="298.00" xlink:href="#hd"/>
<path d="M691.74 298.00v25.00" class="stroke"/>
<use x="695.24" y="304.00" xlink:href="#hd"/>
<use x="755.24" y="292.00" xlink:href="#hl"/>
<use x="755.24" y="289.00" xlink:href="#hd"/>
<path d="M751.74 289.00v31.00" class="stroke"/>
<path class="fill"
	d="M751.74 320.00c0.6 -5.6 9.6 -9 5.6 -18.4
	1.6 6 -1.3 11.6 -5.6 12.8
"/>
<use x="755.24" y="301.00" xlink:href="#hd"/>
<use x="795.24" y="313.00" xlink:href="#hd"/>
<path d="M798.74 313.00v-21.00" class="stroke"/>
<use x="837.04" y="328.00" xlink:href="#hl"/>
<use x="837.04" y="334.00" xlink:href="#hl"/>
<use x="837.04" y="334.00" xlink:href="#hd"/>
<path d="M840.54 334.00v-24.00" class="stroke"/>
<path class="fill"
	d="M840.54 310.00c0.6 5.6 9.6 9 5.6 18.4
	1.6 -6 -1.3 -11.6 -5.6 -12.8
"/>
</g>
</svg>
