<?xml version="1.0" standalone="no"?>
<!DOCTYPE svg PUBLIC "-//W3C//DTD SVG 1.1//EN"
	"http://www.w3.org/Graphics/SVG/1.1/DTD/svg11.dtd">
<svg xmlns="http://www.w3.org/2000/svg" version="1.1"
	xmlns:xlink="http://www.w3.org/1999/xlink"
	color="black"
	width="757.10px" height="300.73px">
<style type="text/css">
.fill {fill: currentColor}
.stroke {stroke: currentColor; fill: none}
text{white-space: pre}
</style>
<title>./K516f-6-5-7-4-5-3-12-8-4-12-10-2-6-5-6-3.abc (1486) tune 1</title>
<!-- Creator: abcm2ps-8.13.8 -->
<!-- CreationDate: Sep  7, 2017 11:20 -->
<!-- CommandLine: ./K516f-6-5-7-4-5-3-12-8-4-12-10-2-6-5-6-3.abc -O ./K516f-6-5-7-4-5-3-12-8-4-12-10-2-6-5-6-3.svg -g -->
<rect width="100%" height="100%" fill="white"/>
<g stroke-width="0.70" transform="scale(0.867)">
<!-- title: 6-5-7-4-5-3-12-8-4-12-10-2-6-5-6-3 -->
</g>
<g stroke-width="0.70" transform="scale(0.867)" font-family="Times" font-size="20.00">
<text x="436.84" y="22.00" text-anchor="middle">6-5-7-4-5-3-12-8-4-12-10-2-6-5-6-3</text>
</g>
<g stroke-width="0.70" transform="scale(0.867)" font-family="Times" font-size="20.00">
<!-- subtitle: $1K.516f::148:17:27:13:161:46:106:127:66:20:19:9:76:160:1:83::$0 -->
</g>
<g stroke-width="0.70" transform="scale(0.867)" font-family="Courier" font-size="8.00" font-weight="bold">
<text x="436.84" y="41.80" text-anchor="middle">K.516f::148:17:27:13:161:46:106:127:66:20:19:9:76:160:1:83::</text>
</g>
<g stroke-width="0.70" transform="scale(0.867)" font-family="Courier" font-size="8.00" font-weight="bold">
<!-- subtitle: $1Perm. No.: 148668444456900$0 -->
<text x="436.84" y="60.80" text-anchor="middle">Perm. No.: 148668444456900</text>
</g>
<g stroke-width="0.70" transform="scale(0.607)" font-family="Courier" font-size="8.00" font-weight="bold">
<defs>
<ellipse id="hd" rx="4.1" ry="2.9"
	transform="rotate(-20)" class="fill"/>
</defs>
<use x="103.06" y="121.29" xlink:href="#hd"/>
<path d="M106.56 121.29v-21.00" class="stroke"/>
<path class="fill"
	d="M106.56 100.29c0.6 5.6 9.6 9 5.6 18.4
	1.6 -6 -1.3 -11.6 -5.6 -12.8
"/>
</g>
<g stroke-width="0.70" transform="scale(0.867)" font-family="Times" font-size="15.00" font-weight="bold">
<text x="81.24" y="87.00">= 111</text>
<path class="stroke" stroke-width="1"
	d="M11.54 191.00v-82.00"/>
<path class="fill"
	d="M6.54 106.00
	c10.5 1 12 -4.5 12 -3.5c0 1 -3.5 5.5 -8.5 5.5
	v84.00
	c5 0 8.5 4.5 8.5 5.5c0 1 -1.5 -4.5 -12 -3.5"/>
<defs>
<g id="rdots" class="fill">
	<circle cx="0" cy="-9" r="1.2"/>
	<circle cx="0" cy="-15" r="1.2"/>
</g>
</defs>
<use x="70.54" y="133.00" xlink:href="#rdots"/>
<path class="stroke" stroke-width="1"
	d="M66.54 133.00v-24.00"/>
<path class="stroke" stroke-width="3"
	d="M62.04 133.00v-24.00"/>
<use x="70.54" y="191.00" xlink:href="#rdots"/>
<path class="stroke" stroke-width="1"
	d="M66.54 191.00v-58.00"/>
<path class="stroke" stroke-width="3"
	d="M62.04 191.00v-58.00"/>
<path class="stroke" stroke-width="1"
	d="M180.64 133.00v-24.00"/>
<path class="stroke" stroke-width="1"
	d="M180.64 191.00v-58.00"/>
<path class="stroke" stroke-width="1"
	d="M289.74 133.00v-24.00"/>
<path class="stroke" stroke-width="1"
	d="M289.74 191.00v-58.00"/>
<path class="stroke" stroke-width="1"
	d="M398.84 133.00v-24.00"/>
<path class="stroke" stroke-width="1"
	d="M398.84 191.00v-58.00"/>
<path class="stroke" stroke-width="1"
	d="M477.04 133.00v-24.00"/>
<path class="stroke" stroke-width="1"
	d="M477.04 191.00v-58.00"/>
<path class="stroke" stroke-width="1"
	d="M560.94 133.00v-24.00"/>
<path class="stroke" stroke-width="1"
	d="M560.94 191.00v-58.00"/>
<path class="stroke" stroke-width="1"
	d="M660.24 133.00v-24.00"/>
<path class="stroke" stroke-width="1"
	d="M660.24 191.00v-58.00"/>
<path class="stroke" stroke-width="1"
	d="M759.54 133.00v-24.00"/>
<path class="stroke" stroke-width="1"
	d="M759.54 191.00v-58.00"/>
<path class="stroke" stroke-width="3"
	d="M860.54 133.00v-24.00"/>
<path class="stroke" stroke-width="1"
	d="M856.04 133.00v-24.00"/>
<use x="852.04" y="133.00" xlink:href="#rdots"/>
<path class="stroke" stroke-width="3"
	d="M860.54 191.00v-58.00"/>
<path class="stroke" stroke-width="1"
	d="M856.04 191.00v-58.00"/>
<use x="852.04" y="191.00" xlink:href="#rdots"/>
<path d="m11.54 133.00
	h850.50
	M11.54 127.00
	h850.50
	M11.54 121.00
	h850.50
	M11.54 115.00
	h850.50
	M11.54 109.00
	h850.50
	" class="stroke"/>
<path d="m11.54 191.00
	h850.50
	M11.54 185.00
	h850.50
	M11.54 179.00
	h850.50
	M11.54 173.00
	h850.50
	M11.54 167.00
	h850.50
	" class="stroke"/>
<path class="fill"
	d="M411.94 129.00c6.68 5.36 36.06 10.59 42.74 7.60
	v0.24c-7.96 4.75 -34.78 -0.48 -42.74 -7.84"/>
</g>
<g stroke-width="0.70" transform="scale(0.867)" font-family="Times" font-size="13.00">
<text x="763.54" y="94.40">1</text>
<path class="stroke"
	d="M759.54 83.00m0 20v-20h94.50v20"/>
<defs>
<path id="utclef" class="fill" d="m-50 -90
	c-72 -41 -72 -158 52 -188
	150 -10 220 188 90 256
	-114 52 -275 0 -293 -136
	-15 -181 93 -229 220 -334
	88 -87 79 -133 62 -210
	-51 33 -94 105 -89 186
	17 267 36 374 49 574
	6 96 -19 134 -77 135
	-80 1 -126 -93 -61 -133
	85 -41 133 101 31 105
	23 17 92 37 90 -92
	-10 -223 -39 -342 -50 -617
	0 -90 0 -162 96 -232
	56 72 63 230 22 289
	-74 106 -257 168 -255 316
	9 153 148 185 252 133
	86 -65 29 -192 -80 -176
	-71 12 -105 67 -59 124"/>
<use id="tclef" transform="translate(0,6) scale(0.045)"
	xlink:href="#utclef"/>
</defs>
<use x="23.54" y="127.00" xlink:href="#tclef"/>
<g font-family="serif" font-size="16" font-weight="bold" font-style="normal"
	transform="translate(42.04,132.50) scale(1.2,1)">
	<text text-anchor="middle">8</text>
	<text y="-12" text-anchor="middle">3</text>
</g>
<path class="fill"
	d="M80.84 130.60l83.60 9.60v-3.20l-83.60 -9.60"/>
<path class="fill"
	d="M81.24 125.70l83.00 9.50v-3.20l-83.00 -9.50"/>
<defs>
<path id="hl" class="stroke" d="m-6 0h12"/>
</defs>
<use x="84.74" y="103.00" xlink:href="#hl"/>
<use x="84.74" y="97.00" xlink:href="#hl"/>
<use x="84.74" y="97.00" xlink:href="#hd"/>
<path d="M81.24 97.00v32.70" class="stroke"/>
<use x="101.34" y="103.00" xlink:href="#hl"/>
<use x="101.34" y="100.00" xlink:href="#hd"/>
<path d="M97.84 100.00v31.60" class="stroke"/>
<use x="117.94" y="103.00" xlink:href="#hl"/>
<use x="117.94" y="97.00" xlink:href="#hl"/>
<use x="117.94" y="97.00" xlink:href="#hd"/>
<path d="M114.44 97.00v36.50" class="stroke"/>
<use x="134.54" y="106.00" xlink:href="#hd"/>
<path d="M131.04 106.00v29.40" class="stroke"/>
<use x="151.04" y="112.00" xlink:href="#hd"/>
<path d="M147.54 112.00v25.30" class="stroke"/>
<use x="167.64" y="118.00" xlink:href="#hd"/>
<path d="M164.14 118.00v21.20" class="stroke"/>
<path class="fill"
	d="M190.04 149.20l83.60 0.00v-3.20l-83.60 -0.00"/>
<path class="fill"
	d="M190.34 144.20l82.90 0.00v-3.20l-82.90 -0.00"/>
<use x="193.84" y="118.00" xlink:href="#hd"/>
<path d="M190.34 118.00v30.20" class="stroke"/>
<use x="210.44" y="127.00" xlink:href="#hd"/>
<path d="M206.94 127.00v21.20" class="stroke"/>
<use x="227.04" y="118.00" xlink:href="#hd"/>
<path d="M223.54 118.00v30.20" class="stroke"/>
<use x="243.54" y="112.00" xlink:href="#hd"/>
<path d="M240.04 112.00v36.20" class="stroke"/>
<use x="260.14" y="127.00" xlink:href="#hd"/>
<path d="M256.64 127.00v21.20" class="stroke"/>
<use x="276.74" y="118.00" xlink:href="#hd"/>
<path d="M273.24 118.00v30.20" class="stroke"/>
<path class="fill"
	d="M299.04 137.00l83.60 6.20v-3.20l-83.60 -6.20"/>
<path class="fill"
	d="M299.44 132.10l82.90 6.10v-3.20l-82.90 -6.10"/>
<use x="302.94" y="109.00" xlink:href="#hd"/>
<path d="M299.44 109.00v27.10" class="stroke"/>
<use x="319.44" y="112.00" xlink:href="#hd"/>
<path d="M315.94 112.00v25.30" class="stroke"/>
<use x="336.04" y="109.00" xlink:href="#hd"/>
<path d="M332.54 109.00v29.50" class="stroke"/>
<use x="352.64" y="115.00" xlink:href="#hd"/>
<path d="M349.14 115.00v24.70" class="stroke"/>
<use x="369.24" y="118.00" xlink:href="#hd"/>
<path d="M365.74 118.00v23.00" class="stroke"/>
<use x="385.74" y="121.00" xlink:href="#hd"/>
<path d="M382.24 121.00v21.20" class="stroke"/>
<path class="fill"
	d="M415.14 98.80l47.40 6.60v3.20l-47.40 -6.60"/>
<use x="411.94" y="118.00" xlink:href="#hd"/>
<path d="M415.44 118.00v-18.20" class="stroke"/>
<use x="435.34" y="127.00" xlink:href="#hd"/>
<path d="M438.84 127.00v-24.00" class="stroke"/>
<use x="458.74" y="133.00" xlink:href="#hd"/>
<path d="M462.24 133.00v-26.70" class="stroke"/>
<path class="fill"
	d="M498.64 96.00l47.80 0.00v3.20l-47.80 -0.00"/>
<use x="495.54" y="130.00" xlink:href="#hd"/>
<defs>
<path id="usharp" class="fill" d="
	m136 -702
	v890
	h32
	v-890
	m128 840
	h32
	v-888
	h-32
	m-232 286
	v116
	l338 -96
	v-116
	m-338 442
	v116
	l338 -98
	v-114"/>
<use id="sh0" transform="translate(-4,5) scale(0.018)"
	xlink:href="#usharp"/>
</defs>
<use x="486.54" y="130.00" xlink:href="#sh0"/>
<path d="M499.04 130.00v-33.00" class="stroke"/>
<use x="495.54" y="115.00" xlink:href="#hd"/>
<use x="519.14" y="130.00" xlink:href="#hd"/>
<use x="510.14" y="130.00" xlink:href="#sh0"/>
<path d="M522.64 130.00v-33.00" class="stroke"/>
<use x="519.14" y="115.00" xlink:href="#hd"/>
<use x="542.64" y="130.00" xlink:href="#hd"/>
<use x="533.64" y="130.00" xlink:href="#sh0"/>
<path d="M546.14 130.00v-33.00" class="stroke"/>
<use x="542.64" y="115.00" xlink:href="#hd"/>
<path class="fill"
	d="M570.34 135.00l73.80 8.20v-3.20l-73.80 -8.20"/>
<path class="fill"
	d="M594.04 132.70l49.70 5.50v-3.20l-49.70 -5.50"/>
<use x="574.14" y="106.00" xlink:href="#hd"/>
<path d="M570.64 106.00v28.10" class="stroke"/>
<use x="597.54" y="103.00" xlink:href="#hl"/>
<use x="597.54" y="100.00" xlink:href="#hd"/>
<path d="M594.04 100.00v36.70" class="stroke"/>
<use x="614.04" y="106.00" xlink:href="#hd"/>
<path d="M610.54 106.00v32.50" class="stroke"/>
<use x="630.64" y="115.00" xlink:href="#hd"/>
<path d="M627.14 115.00v25.40" class="stroke"/>
<use x="647.24" y="121.00" xlink:href="#hd"/>
<path d="M643.74 121.00v21.20" class="stroke"/>
<path class="fill"
	d="M669.54 146.20l73.80 0.00v-3.20l-73.80 -0.00"/>
<path class="fill"
	d="M693.24 141.20l49.70 0.00v-3.20l-49.70 -0.00"/>
<use x="673.44" y="124.00" xlink:href="#hd"/>
<path d="M669.94 124.00v21.20" class="stroke"/>
<use x="696.74" y="115.00" xlink:href="#hd"/>
<path d="M693.24 115.00v30.20" class="stroke"/>
<use x="713.34" y="118.00" xlink:href="#hd"/>
<path d="M709.84 118.00v27.20" class="stroke"/>
<use x="729.94" y="121.00" xlink:href="#hd"/>
<path d="M726.44 121.00v24.20" class="stroke"/>
<use x="746.54" y="124.00" xlink:href="#hd"/>
<path d="M743.04 124.00v21.20" class="stroke"/>
<use x="772.74" y="106.00" xlink:href="#hd"/>
<path d="M769.24 106.00v40.00" class="stroke"/>
<use x="772.74" y="127.00" xlink:href="#hd"/>
<use x="772.74" y="121.00" xlink:href="#hd"/>
<use x="772.74" y="115.00" xlink:href="#hd"/>
<defs>
<path id="r8e" class="fill" d="m 0 0
	c-1.5 1.5 -2.4 2 -3.6 2
	2.4 -2.8 -2.8 -4 -2.8 -1.2
	c0 2.7 4.3 2.4 5.9 0.6"/>
<g id="r8">
	<path d="m3.3 -4l-3.4 9.6" class="stroke"/>
	<use x="3.4" y="-4" xlink:href="#r8e"/>
</g>
</defs>
<use x="830.64" y="121.00" xlink:href="#r8"/>
<defs>
<path id="ubclef" class="fill" d="m-200 -87
	c124 -35 222 -78 254 -236
	43 -228 -167 -246 -192 -103
	59 -80 157 22 92 78
	-62 47 -115 -22 -106 -88
	21 -141 270 -136 274 52
	-1 175 -106 264 -322 297
	m357 -250
	c0 -36 51 -34 51 0
	0 37 -51 36 -51 0
	m-2 -129
	c0 -36 51 -34 51 0
	0 38 -51 37 -51 0"/>
<use id="bclef" transform="translate(0,18) scale(0.045)"
	xlink:href="#ubclef"/>
</defs>
<use x="23.54" y="173.00" xlink:href="#bclef"/>
<g font-family="serif" font-size="16" font-weight="bold" font-style="normal"
	transform="translate(42.04,190.50) scale(1.2,1)">
	<text text-anchor="middle">8</text>
	<text y="-12" text-anchor="middle">3</text>
</g>
<use x="84.74" y="176.00" xlink:href="#hd"/>
<path d="M81.24 176.00v25.00" class="stroke"/>
<use x="84.74" y="182.00" xlink:href="#hd"/>
<use x="151.04" y="179.00" xlink:href="#r8"/>
<use x="193.84" y="170.00" xlink:href="#hd"/>
<path d="M190.34 170.00v25.00" class="stroke"/>
<use x="193.84" y="176.00" xlink:href="#hd"/>
<use x="260.14" y="179.00" xlink:href="#r8"/>
<use x="302.94" y="164.00" xlink:href="#hd"/>
<path d="M299.44 164.00v25.00" class="stroke"/>
<use x="302.94" y="170.00" xlink:href="#hd"/>
<use x="369.24" y="179.00" xlink:href="#r8"/>
<use x="411.94" y="170.00" xlink:href="#hd"/>
<path d="M408.44 170.00v25.00" class="stroke"/>
<use x="411.94" y="176.00" xlink:href="#hd"/>
<use x="458.74" y="179.00" xlink:href="#r8"/>
<path class="fill"
	d="M498.64 161.00l47.80 0.00v3.20l-47.80 -0.00"/>
<use x="495.54" y="182.00" xlink:href="#hd"/>
<path d="M499.04 182.00v-20.00" class="stroke"/>
<use x="519.14" y="182.00" xlink:href="#hd"/>
<path d="M522.64 182.00v-20.00" class="stroke"/>
<use x="542.64" y="182.00" xlink:href="#hd"/>
<path d="M546.14 182.00v-20.00" class="stroke"/>
<use x="574.14" y="185.00" xlink:href="#hd"/>
<path d="M577.64 185.00v-25.00" class="stroke"/>
<use x="574.14" y="179.00" xlink:href="#hd"/>
<use x="630.64" y="179.00" xlink:href="#r8"/>
<path class="fill"
	d="M676.54 156.40l57.20 8.30v3.20l-57.20 -8.30"/>
<use x="673.44" y="182.00" xlink:href="#hd"/>
<path d="M676.94 182.00v-24.60" class="stroke"/>
<use x="696.74" y="179.00" xlink:href="#hd"/>
<path d="M700.24 179.00v-18.20" class="stroke"/>
<use x="729.94" y="197.00" xlink:href="#hl"/>
<use x="729.94" y="200.00" xlink:href="#hd"/>
<path d="M733.44 200.00v-34.40" class="stroke"/>
<path class="fill"
	d="M768.84 210.20l75.20 0.00v-3.20l-75.20 -0.00"/>
<path class="fill"
	d="M792.54 205.20l51.20 0.00v-3.20l-51.20 -0.00"/>
<use x="772.74" y="191.00" xlink:href="#hd"/>
<path d="M769.24 191.00v18.20" class="stroke"/>
<use x="796.04" y="170.00" xlink:href="#hd"/>
<path d="M792.54 170.00v39.20" class="stroke"/>
<use x="814.04" y="173.00" xlink:href="#hd"/>
<defs>
<path id="unat" class="fill" d="
	m96 -750
	h-32
	v716
	l32 -8
	182 -54
	v282
	h32
	v-706
	l-34 10
	-180 50
	v-290
	m0 592
	v-190
	l182 -52
	v188"/>
<use id="nt0" transform="translate(-3,5) scale(0.018)"
	xlink:href="#unat"/>
</defs>
<use x="805.04" y="173.00" xlink:href="#nt0"/>
<path d="M810.54 173.00v36.20" class="stroke"/>
<use x="830.64" y="176.00" xlink:href="#hd"/>
<path d="M827.14 176.00v33.20" class="stroke"/>
<use x="847.24" y="179.00" xlink:href="#hd"/>
<path d="M843.74 179.00v30.20" class="stroke"/>
</g>
<g stroke-width="0.70" transform="scale(0.867)" font-family="Times" font-size="13.00">
<path class="stroke" stroke-width="1"
	d="M11.54 324.00v-82.00"/>
<path class="fill"
	d="M6.54 239.00
	c10.5 1 12 -4.5 12 -3.5c0 1 -3.5 5.5 -8.5 5.5
	v84.00
	c5 0 8.5 4.5 8.5 5.5c0 1 -1.5 -4.5 -12 -3.5"/>
<use x="149.64" y="266.00" xlink:href="#rdots"/>
<path class="stroke" stroke-width="1"
	d="M145.64 266.00v-24.00"/>
<path class="stroke" stroke-width="3"
	d="M141.14 266.00v-24.00"/>
<use x="149.64" y="324.00" xlink:href="#rdots"/>
<path class="stroke" stroke-width="1"
	d="M145.64 324.00v-58.00"/>
<path class="stroke" stroke-width="3"
	d="M141.14 324.00v-58.00"/>
<path class="stroke" stroke-width="1"
	d="M239.84 266.00v-24.00"/>
<path class="stroke" stroke-width="1"
	d="M239.84 324.00v-58.00"/>
<path class="stroke" stroke-width="1"
	d="M326.54 266.00v-24.00"/>
<path class="stroke" stroke-width="1"
	d="M326.54 324.00v-58.00"/>
<path class="stroke" stroke-width="1"
	d="M413.24 266.00v-24.00"/>
<path class="stroke" stroke-width="1"
	d="M413.24 324.00v-58.00"/>
<path class="stroke" stroke-width="1"
	d="M490.34 266.00v-24.00"/>
<path class="stroke" stroke-width="1"
	d="M490.34 324.00v-58.00"/>
<path class="stroke" stroke-width="1"
	d="M597.84 266.00v-24.00"/>
<path class="stroke" stroke-width="1"
	d="M597.84 324.00v-58.00"/>
<path class="stroke" stroke-width="1"
	d="M705.34 266.00v-24.00"/>
<path class="stroke" stroke-width="1"
	d="M705.34 324.00v-58.00"/>
<path class="stroke" stroke-width="1"
	d="M782.24 266.00v-24.00"/>
<path class="stroke" stroke-width="1"
	d="M782.24 324.00v-58.00"/>
<path class="stroke" stroke-width="3"
	d="M860.54 266.00v-24.00"/>
<path class="stroke" stroke-width="1"
	d="M856.04 266.00v-24.00"/>
<use x="852.04" y="266.00" xlink:href="#rdots"/>
<path class="stroke" stroke-width="3"
	d="M860.54 324.00v-58.00"/>
<path class="stroke" stroke-width="1"
	d="M856.04 324.00v-58.00"/>
<use x="852.04" y="324.00" xlink:href="#rdots"/>
<path d="m11.54 266.00
	h850.50
	M11.54 260.00
	h850.50
	M11.54 254.00
	h850.50
	M11.54 248.00
	h850.50
	M11.54 242.00
	h850.50
	" class="stroke"/>
<path d="m11.54 324.00
	h850.50
	M11.54 318.00
	h850.50
	M11.54 312.00
	h850.50
	M11.54 306.00
	h850.50
	M11.54 300.00
	h850.50
	" class="stroke"/>
<text x="47.54" y="227.40">2</text>
<path class="stroke"
	d="M43.54 216.00m0 20v-20h95.10v20"/>
<use x="23.54" y="260.00" xlink:href="#tclef"/>
<use x="56.54" y="239.00" xlink:href="#hd"/>
<path d="M53.04 239.00v40.00" class="stroke"/>
<use x="56.54" y="260.00" xlink:href="#hd"/>
<use x="56.54" y="254.00" xlink:href="#hd"/>
<use x="56.54" y="248.00" xlink:href="#hd"/>
<use x="113.84" y="254.00" xlink:href="#r8"/>
<path class="fill"
	d="M165.34 260.20l46.90 0.00v-3.20l-46.90 -0.00"/>
<use x="169.14" y="242.00" xlink:href="#hd"/>
<use x="160.14" y="242.00" xlink:href="#sh0"/>
<path d="M165.64 242.00v17.20" class="stroke"/>
<use x="192.44" y="236.00" xlink:href="#hl"/>
<use x="192.44" y="236.00" xlink:href="#hd"/>
<path d="M188.94 236.00v23.20" class="stroke"/>
<use x="215.34" y="242.00" xlink:href="#hd"/>
<path d="M211.84 242.00v17.20" class="stroke"/>
<path class="fill"
	d="M249.04 268.00l56.30 0.00v-3.20l-56.30 -0.00"/>
<path class="fill"
	d="M272.34 263.00l16.40 0.00v-3.20l-16.40 -0.00"/>
<use x="252.84" y="239.00" xlink:href="#hd"/>
<path d="M249.34 239.00v28.00" class="stroke"/>
<use x="275.84" y="236.00" xlink:href="#hl"/>
<use x="275.84" y="233.00" xlink:href="#hd"/>
<path d="M272.34 233.00v34.00" class="stroke"/>
<use x="292.24" y="236.00" xlink:href="#hl"/>
<use x="292.24" y="230.00" xlink:href="#hl"/>
<use x="292.24" y="227.00" xlink:href="#hd"/>
<path d="M288.74 227.00v40.00" class="stroke"/>
<use x="308.54" y="248.00" xlink:href="#hd"/>
<path d="M305.04 248.00v19.00" class="stroke"/>
<path class="fill"
	d="M335.74 274.40l56.30 -4.20v-3.20l-56.30 4.20"/>
<path class="fill"
	d="M336.04 269.40l16.30 -1.20v-3.20l-16.30 1.20"/>
<use x="339.54" y="245.00" xlink:href="#hd"/>
<path d="M336.04 245.00v28.40" class="stroke"/>
<use x="355.84" y="251.00" xlink:href="#hd"/>
<path d="M352.34 251.00v21.20" class="stroke"/>
<use x="372.14" y="245.00" xlink:href="#hd"/>
<path d="M368.64 245.00v26.00" class="stroke"/>
<use x="395.14" y="239.00" xlink:href="#hd"/>
<path d="M391.64 239.00v30.30" class="stroke"/>
<path class="fill"
	d="M422.34 270.30l23.70 2.40v-3.20l-23.70 -2.40"/>
<use x="426.24" y="245.00" xlink:href="#hd"/>
<path d="M422.74 245.00v24.30" class="stroke"/>
<use x="426.24" y="251.00" xlink:href="#hd"/>
<use x="449.14" y="248.00" xlink:href="#hd"/>
<path d="M445.64 248.00v23.70" class="stroke"/>
<use x="449.14" y="254.00" xlink:href="#hd"/>
<use x="472.14" y="254.00" xlink:href="#r8"/>
<path class="fill"
	d="M499.44 263.70l82.40 9.60v-3.20l-82.40 -9.60"/>
<path class="fill"
	d="M499.84 258.70l81.70 9.50v-3.20l-81.70 -9.50"/>
<use x="503.34" y="236.00" xlink:href="#hl"/>
<use x="503.34" y="230.00" xlink:href="#hl"/>
<use x="503.34" y="230.00" xlink:href="#hd"/>
<path d="M499.84 230.00v32.70" class="stroke"/>
<use x="519.64" y="236.00" xlink:href="#hl"/>
<use x="519.64" y="233.00" xlink:href="#hd"/>
<path d="M516.14 233.00v31.60" class="stroke"/>
<use x="536.04" y="236.00" xlink:href="#hl"/>
<use x="536.04" y="230.00" xlink:href="#hl"/>
<use x="536.04" y="230.00" xlink:href="#hd"/>
<path d="M532.54 230.00v36.50" class="stroke"/>
<use x="552.34" y="239.00" xlink:href="#hd"/>
<path d="M548.84 239.00v29.40" class="stroke"/>
<use x="568.64" y="245.00" xlink:href="#hd"/>
<path d="M565.14 245.00v25.30" class="stroke"/>
<use x="585.04" y="251.00" xlink:href="#hd"/>
<path d="M581.54 251.00v21.20" class="stroke"/>
<path class="fill"
	d="M607.04 282.20l82.30 0.00v-3.20l-82.30 -0.00"/>
<path class="fill"
	d="M607.34 277.20l81.60 0.00v-3.20l-81.60 -0.00"/>
<use x="610.84" y="251.00" xlink:href="#hd"/>
<path d="M607.34 251.00v30.20" class="stroke"/>
<use x="627.14" y="254.00" xlink:href="#hd"/>
<path d="M623.64 254.00v27.20" class="stroke"/>
<use x="643.54" y="251.00" xlink:href="#hd"/>
<path d="M640.04 251.00v30.20" class="stroke"/>
<use x="659.84" y="245.00" xlink:href="#hd"/>
<path d="M656.34 245.00v36.20" class="stroke"/>
<use x="676.14" y="260.00" xlink:href="#hd"/>
<path d="M672.64 260.00v21.20" class="stroke"/>
<use x="692.44" y="251.00" xlink:href="#hd"/>
<path d="M688.94 251.00v30.20" class="stroke"/>
<path class="fill"
	d="M714.44 266.20l46.60 0.00v-3.20l-46.60 -0.00"/>
<use x="718.34" y="242.00" xlink:href="#hd"/>
<path d="M714.84 242.00v23.20" class="stroke"/>
<use x="741.24" y="248.00" xlink:href="#hd"/>
<path d="M737.74 248.00v17.20" class="stroke"/>
<use x="764.24" y="239.00" xlink:href="#hd"/>
<path d="M760.74 239.00v26.20" class="stroke"/>
<use x="795.24" y="251.00" xlink:href="#hd"/>
<path d="M791.74 251.00v21.00" class="stroke"/>
<use x="841.24" y="254.00" xlink:href="#r8"/>
<use x="23.54" y="306.00" xlink:href="#bclef"/>
<path class="fill"
	d="M52.74 343.20l74.30 -5.20v-3.20l-74.30 5.20"/>
<path class="fill"
	d="M76.04 336.60l50.60 -3.60v-3.20l-50.60 3.60"/>
<use x="56.54" y="324.00" xlink:href="#hd"/>
<path d="M53.04 324.00v18.20" class="stroke"/>
<use x="79.54" y="297.00" xlink:href="#hd"/>
<path d="M76.04 297.00v43.60" class="stroke"/>
<use x="95.84" y="303.00" xlink:href="#hd"/>
<path d="M92.34 303.00v36.40" class="stroke"/>
<use x="113.84" y="306.00" xlink:href="#hd"/>
<use x="104.84" y="306.00" xlink:href="#sh0"/>
<path d="M110.34 306.00v32.20" class="stroke"/>
<use x="130.14" y="309.00" xlink:href="#hd"/>
<path d="M126.64 309.00v28.00" class="stroke"/>
<path class="fill"
	d="M172.34 280.70l46.90 8.00v3.20l-46.90 -8.00"/>
<use x="169.14" y="300.00" xlink:href="#hd"/>
<path d="M172.64 300.00v-18.20" class="stroke"/>
<use x="192.44" y="306.00" xlink:href="#hd"/>
<use x="183.44" y="306.00" xlink:href="#sh0"/>
<path d="M195.94 306.00v-20.20" class="stroke"/>
<use x="215.34" y="312.00" xlink:href="#hd"/>
<path d="M218.84 312.00v-22.30" class="stroke"/>
<use x="252.84" y="318.00" xlink:href="#hd"/>
<path d="M256.34 318.00v-21.00" class="stroke"/>
<use x="308.54" y="312.00" xlink:href="#r8"/>
<use x="339.54" y="303.00" xlink:href="#hd"/>
<path d="M336.04 303.00v31.00" class="stroke"/>
<use x="339.54" y="315.00" xlink:href="#hd"/>
<use x="395.14" y="309.00" xlink:href="#hd"/>
<path d="M391.64 309.00v25.00" class="stroke"/>
<path class="fill"
	d="M391.64 334.00c0.6 -5.6 9.6 -9 5.6 -18.4
	1.6 6 -1.3 11.6 -5.6 12.8
"/>
<use x="395.14" y="315.00" xlink:href="#hd"/>
<use x="426.24" y="303.00" xlink:href="#hd"/>
<path d="M422.74 303.00v21.00" class="stroke"/>
<use x="472.14" y="324.00" xlink:href="#hd"/>
<path d="M475.64 324.00v-21.00" class="stroke"/>
<path class="fill"
	d="M475.64 303.00c0.6 5.6 9.6 9 5.6 18.4
	1.6 -6 -1.3 -11.6 -5.6 -12.8
"/>
<use x="503.34" y="309.00" xlink:href="#hd"/>
<path d="M499.84 309.00v25.00" class="stroke"/>
<use x="503.34" y="315.00" xlink:href="#hd"/>
<use x="568.64" y="303.00" xlink:href="#hd"/>
<path d="M565.14 303.00v31.00" class="stroke"/>
<path class="fill"
	d="M565.14 334.00c0.6 -5.6 9.6 -9 5.6 -18.4
	1.6 6 -1.3 11.6 -5.6 12.8
"/>
<use x="568.64" y="315.00" xlink:href="#hd"/>
<use x="610.84" y="309.00" xlink:href="#hd"/>
<path d="M607.34 309.00v25.00" class="stroke"/>
<use x="610.84" y="315.00" xlink:href="#hd"/>
<use x="676.14" y="309.00" xlink:href="#hd"/>
<path d="M672.64 309.00v25.00" class="stroke"/>
<path class="fill"
	d="M672.64 334.00c0.6 -5.6 9.6 -9 5.6 -18.4
	1.6 6 -1.3 11.6 -5.6 12.8
"/>
<use x="676.14" y="315.00" xlink:href="#hd"/>
<path class="fill"
	d="M714.44 331.20l46.60 0.00v-3.20l-46.60 -0.00"/>
<use x="718.34" y="306.00" xlink:href="#hd"/>
<path d="M714.84 306.00v24.20" class="stroke"/>
<use x="741.24" y="312.00" xlink:href="#hd"/>
<path d="M737.74 312.00v18.20" class="stroke"/>
<use x="764.24" y="303.00" xlink:href="#hd"/>
<path d="M760.74 303.00v27.20" class="stroke"/>
<path class="fill"
	d="M798.44 295.70l46.60 10.20v3.20l-46.60 -10.20"/>
<use x="795.24" y="315.00" xlink:href="#hd"/>
<path d="M798.74 315.00v-18.20" class="stroke"/>
<use x="818.24" y="324.00" xlink:href="#hd"/>
<path d="M821.74 324.00v-22.20" class="stroke"/>
<use x="841.24" y="330.00" xlink:href="#hl"/>
<use x="841.24" y="336.00" xlink:href="#hl"/>
<use x="841.24" y="336.00" xlink:href="#hd"/>
<path d="M844.74 336.00v-29.10" class="stroke"/>
<path class="fill"
	d="M165.34 334.20l54.90 0.00v-3.20l-54.90 -0.00"/>
<use x="169.14" y="312.00" xlink:href="#hd"/>
<path d="M165.64 312.00v21.20" class="stroke"/>
<use x="192.44" y="312.00" xlink:href="#hd"/>
<path d="M188.94 312.00v21.20" class="stroke"/>
<use x="223.34" y="315.00" xlink:href="#hd"/>
<path d="M219.84 315.00v18.20" class="stroke"/>
</g>
</svg>
