<?xml version="1.0" standalone="no"?>
<!DOCTYPE svg PUBLIC "-//W3C//DTD SVG 1.1//EN"
	"http://www.w3.org/Graphics/SVG/1.1/DTD/svg11.dtd">
<svg xmlns="http://www.w3.org/2000/svg" version="1.1"
	xmlns:xlink="http://www.w3.org/1999/xlink"
	color="black"
	width="757.10px" height="293.80px">
<style type="text/css">
.fill {fill: currentColor}
.stroke {stroke: currentColor; fill: none}
text{white-space: pre}
</style>
<title>./K516f-9-8-11-3-11-12-7-9-12-6-2-5-2-3-10-4.abc (2793) tune 1</title>
<!-- Creator: abcm2ps-8.13.8 -->
<!-- CreationDate: Sep  7, 2017 11:19 -->
<!-- CommandLine: ./K516f-9-8-11-3-11-12-7-9-12-6-2-5-2-3-10-4.abc -O ./K516f-9-8-11-3-11-12-7-9-12-6-2-5-2-3-10-4.svg -g -->
<rect width="100%" height="100%" fill="white"/>
<g stroke-width="0.70" transform="scale(0.867)">
<!-- title: 9-8-11-3-11-12-7-9-12-6-2-5-2-3-10-4 -->
</g>
<g stroke-width="0.70" transform="scale(0.867)" font-family="Times" font-size="20.00">
<text x="436.84" y="22.00" text-anchor="middle">9-8-11-3-11-12-7-9-12-6-2-5-2-3-10-4</text>
</g>
<g stroke-width="0.70" transform="scale(0.867)" font-family="Times" font-size="20.00">
<!-- subtitle: $1K.516f::119:60:165:63:135:37:118:94:35:143:26:34:112:18:149:79::$0 -->
</g>
<g stroke-width="0.70" transform="scale(0.867)" font-family="Courier" font-size="8.00" font-weight="bold">
<text x="436.84" y="41.80" text-anchor="middle">K.516f::119:60:165:63:135:37:118:94:35:143:26:34:112:18:149:79::</text>
</g>
<g stroke-width="0.70" transform="scale(0.867)" font-family="Courier" font-size="8.00" font-weight="bold">
<!-- subtitle: $1Perm. No.: 279399000711784$0 -->
<text x="436.84" y="60.80" text-anchor="middle">Perm. No.: 279399000711784</text>
</g>
<g stroke-width="0.70" transform="scale(0.607)" font-family="Courier" font-size="8.00" font-weight="bold">
<defs>
<ellipse id="hd" rx="4.1" ry="2.9"
	transform="rotate(-20)" class="fill"/>
</defs>
<use x="103.06" y="121.29" xlink:href="#hd"/>
<path d="M106.56 121.29v-21.00" class="stroke"/>
<path class="fill"
	d="M106.56 100.29c0.6 5.6 9.6 9 5.6 18.4
	1.6 -6 -1.3 -11.6 -5.6 -12.8
"/>
</g>
<g stroke-width="0.70" transform="scale(0.867)" font-family="Times" font-size="15.00" font-weight="bold">
<text x="81.24" y="87.00">= 111</text>
<path class="stroke" stroke-width="1"
	d="M11.54 183.00v-82.00"/>
<path class="fill"
	d="M6.54 98.00
	c10.5 1 12 -4.5 12 -3.5c0 1 -3.5 5.5 -8.5 5.5
	v84.00
	c5 0 8.5 4.5 8.5 5.5c0 1 -1.5 -4.5 -12 -3.5"/>
<defs>
<g id="rdots" class="fill">
	<circle cx="0" cy="-9" r="1.2"/>
	<circle cx="0" cy="-15" r="1.2"/>
</g>
</defs>
<use x="70.54" y="125.00" xlink:href="#rdots"/>
<path class="stroke" stroke-width="1"
	d="M66.54 125.00v-24.00"/>
<path class="stroke" stroke-width="3"
	d="M62.04 125.00v-24.00"/>
<use x="70.54" y="183.00" xlink:href="#rdots"/>
<path class="stroke" stroke-width="1"
	d="M66.54 183.00v-58.00"/>
<path class="stroke" stroke-width="3"
	d="M62.04 183.00v-58.00"/>
<path class="stroke" stroke-width="1"
	d="M179.94 125.00v-24.00"/>
<path class="stroke" stroke-width="1"
	d="M179.94 183.00v-58.00"/>
<path class="stroke" stroke-width="1"
	d="M278.64 125.00v-24.00"/>
<path class="stroke" stroke-width="1"
	d="M278.64 183.00v-58.00"/>
<path class="stroke" stroke-width="1"
	d="M356.24 125.00v-24.00"/>
<path class="stroke" stroke-width="1"
	d="M356.24 183.00v-58.00"/>
<path class="stroke" stroke-width="1"
	d="M453.34 125.00v-24.00"/>
<path class="stroke" stroke-width="1"
	d="M453.34 183.00v-58.00"/>
<path class="stroke" stroke-width="1"
	d="M552.94 125.00v-24.00"/>
<path class="stroke" stroke-width="1"
	d="M552.94 183.00v-58.00"/>
<path class="stroke" stroke-width="1"
	d="M650.14 125.00v-24.00"/>
<path class="stroke" stroke-width="1"
	d="M650.14 183.00v-58.00"/>
<path class="stroke" stroke-width="1"
	d="M760.14 125.00v-24.00"/>
<path class="stroke" stroke-width="1"
	d="M760.14 183.00v-58.00"/>
<path class="stroke" stroke-width="3"
	d="M860.54 125.00v-24.00"/>
<path class="stroke" stroke-width="1"
	d="M856.04 125.00v-24.00"/>
<use x="852.04" y="125.00" xlink:href="#rdots"/>
<path class="stroke" stroke-width="3"
	d="M860.54 183.00v-58.00"/>
<path class="stroke" stroke-width="1"
	d="M856.04 183.00v-58.00"/>
<use x="852.04" y="183.00" xlink:href="#rdots"/>
<path d="m11.54 125.00
	h850.50
	M11.54 119.00
	h850.50
	M11.54 113.00
	h850.50
	M11.54 107.00
	h850.50
	M11.54 101.00
	h850.50
	" class="stroke"/>
<path d="m11.54 183.00
	h850.50
	M11.54 177.00
	h850.50
	M11.54 171.00
	h850.50
	M11.54 165.00
	h850.50
	M11.54 159.00
	h850.50
	" class="stroke"/>
<path class="fill"
	d="M295.74 103.40c6.62 -2.98 35.68 2.24 42.30 7.60
	v-0.24c-7.89 -7.12 -34.41 -12.34 -42.30 -7.36"/>
</g>
<g stroke-width="0.70" transform="scale(0.867)" font-family="Times" font-size="13.00">
<text x="764.14" y="86.40">1</text>
<path class="stroke"
	d="M760.14 75.00m0 20v-20h93.90v20"/>
<defs>
<path id="utclef" class="fill" d="m-50 -90
	c-72 -41 -72 -158 52 -188
	150 -10 220 188 90 256
	-114 52 -275 0 -293 -136
	-15 -181 93 -229 220 -334
	88 -87 79 -133 62 -210
	-51 33 -94 105 -89 186
	17 267 36 374 49 574
	6 96 -19 134 -77 135
	-80 1 -126 -93 -61 -133
	85 -41 133 101 31 105
	23 17 92 37 90 -92
	-10 -223 -39 -342 -50 -617
	0 -90 0 -162 96 -232
	56 72 63 230 22 289
	-74 106 -257 168 -255 316
	9 153 148 185 252 133
	86 -65 29 -192 -80 -176
	-71 12 -105 67 -59 124"/>
<use id="tclef" transform="translate(0,6) scale(0.045)"
	xlink:href="#utclef"/>
</defs>
<use x="23.54" y="119.00" xlink:href="#tclef"/>
<g font-family="serif" font-size="16" font-weight="bold" font-style="normal"
	transform="translate(42.04,124.50) scale(1.2,1)">
	<text text-anchor="middle">8</text>
	<text y="-12" text-anchor="middle">3</text>
</g>
<path class="fill"
	d="M80.84 133.50l83.00 -6.20v-3.20l-83.00 6.20"/>
<path class="fill"
	d="M81.14 128.40l82.30 -6.10v-3.20l-82.30 6.10"/>
<use x="84.64" y="104.00" xlink:href="#hd"/>
<path d="M81.14 104.00v28.40" class="stroke"/>
<use x="101.14" y="110.00" xlink:href="#hd"/>
<path d="M97.64 110.00v21.20" class="stroke"/>
<use x="117.54" y="98.00" xlink:href="#hd"/>
<path d="M114.04 98.00v32.00" class="stroke"/>
<use x="134.04" y="104.00" xlink:href="#hd"/>
<path d="M130.54 104.00v24.70" class="stroke"/>
<defs>
<path id="hl" class="stroke" d="m-6 0h12"/>
</defs>
<use x="150.54" y="95.00" xlink:href="#hl"/>
<use x="150.54" y="89.00" xlink:href="#hl"/>
<use x="150.54" y="89.00" xlink:href="#hd"/>
<path d="M147.04 89.00v38.50" class="stroke"/>
<use x="166.94" y="98.00" xlink:href="#hd"/>
<path d="M163.44 98.00v28.30" class="stroke"/>
<path class="fill"
	d="M189.24 123.10l73.20 9.20v-3.20l-73.20 -9.20"/>
<path class="fill"
	d="M212.74 121.00l49.40 6.20v-3.20l-49.40 -6.20"/>
<use x="193.04" y="98.00" xlink:href="#hd"/>
<path d="M189.54 98.00v24.10" class="stroke"/>
<use x="216.24" y="101.00" xlink:href="#hd"/>
<path d="M212.74 101.00v24.00" class="stroke"/>
<use x="232.64" y="104.00" xlink:href="#hd"/>
<path d="M229.14 104.00v23.10" class="stroke"/>
<use x="249.14" y="107.00" xlink:href="#hd"/>
<path d="M245.64 107.00v22.10" class="stroke"/>
<use x="265.64" y="110.00" xlink:href="#hd"/>
<path d="M262.14 110.00v21.20" class="stroke"/>
<path class="fill"
	d="M287.84 130.20l47.00 8.00v-3.20l-47.00 -8.00"/>
<use x="291.74" y="107.00" xlink:href="#hd"/>
<path d="M288.24 107.00v22.30" class="stroke"/>
<use x="314.84" y="113.00" xlink:href="#hd"/>
<path d="M311.34 113.00v20.20" class="stroke"/>
<use x="338.04" y="119.00" xlink:href="#hd"/>
<path d="M334.54 119.00v18.20" class="stroke"/>
<path class="fill"
	d="M365.54 132.30l66.50 6.00v-3.20l-66.50 -6.00"/>
<path class="fill"
	d="M365.84 127.30l49.40 4.40v-3.20l-49.40 -4.40"/>
<use x="369.34" y="104.00" xlink:href="#hd"/>
<path d="M365.84 104.00v27.30" class="stroke"/>
<use x="385.84" y="110.00" xlink:href="#hd"/>
<path d="M382.34 110.00v22.80" class="stroke"/>
<use x="402.24" y="113.00" xlink:href="#hd"/>
<path d="M398.74 113.00v21.20" class="stroke"/>
<use x="418.74" y="110.00" xlink:href="#hd"/>
<path d="M415.24 110.00v25.70" class="stroke"/>
<use x="435.14" y="119.00" xlink:href="#hd"/>
<path d="M431.64 119.00v18.20" class="stroke"/>
<path class="fill"
	d="M468.04 127.00l57.30 0.00v-3.20l-57.30 -0.00"/>
<path class="fill"
	d="M491.94 122.00l16.50 0.00v-3.20l-16.50 -0.00"/>
<use x="471.84" y="101.00" xlink:href="#hd"/>
<defs>
<path id="usharp" class="fill" d="
	m136 -702
	v890
	h32
	v-890
	m128 840
	h32
	v-888
	h-32
	m-232 286
	v116
	l338 -96
	v-116
	m-338 442
	v116
	l338 -98
	v-114"/>
<use id="sh0" transform="translate(-4,5) scale(0.018)"
	xlink:href="#usharp"/>
</defs>
<use x="462.84" y="101.00" xlink:href="#sh0"/>
<path d="M468.34 101.00v25.00" class="stroke"/>
<use x="495.44" y="101.00" xlink:href="#hd"/>
<path d="M491.94 101.00v25.00" class="stroke"/>
<use x="511.94" y="107.00" xlink:href="#hd"/>
<path d="M508.44 107.00v19.00" class="stroke"/>
<use x="528.44" y="95.00" xlink:href="#hl"/>
<use x="528.44" y="95.00" xlink:href="#hd"/>
<path d="M524.94 95.00v31.00" class="stroke"/>
<path class="fill"
	d="M562.24 124.00l66.50 8.20v-3.20l-66.50 -8.20"/>
<path class="fill"
	d="M562.64 119.10l49.40 6.10v-3.20l-49.40 -6.10"/>
<use x="566.14" y="98.00" xlink:href="#hd"/>
<path d="M562.64 98.00v25.10" class="stroke"/>
<use x="582.54" y="95.00" xlink:href="#hl"/>
<use x="582.54" y="92.00" xlink:href="#hd"/>
<path d="M579.04 92.00v33.10" class="stroke"/>
<use x="599.04" y="98.00" xlink:href="#hd"/>
<path d="M595.54 98.00v29.10" class="stroke"/>
<use x="615.44" y="107.00" xlink:href="#hd"/>
<path d="M611.94 107.00v22.20" class="stroke"/>
<use x="631.94" y="113.00" xlink:href="#hd"/>
<path d="M628.44 113.00v18.20" class="stroke"/>
<path class="fill"
	d="M659.44 127.00l84.50 0.00v-3.20l-84.50 -0.00"/>
<path class="fill"
	d="M659.74 122.00l83.80 0.00v-3.20l-83.80 -0.00"/>
<use x="663.24" y="104.00" xlink:href="#hd"/>
<path d="M659.74 104.00v22.00" class="stroke"/>
<use x="679.74" y="95.00" xlink:href="#hl"/>
<use x="679.74" y="95.00" xlink:href="#hd"/>
<path d="M676.24 95.00v31.00" class="stroke"/>
<use x="696.14" y="98.00" xlink:href="#hd"/>
<path d="M692.64 98.00v28.00" class="stroke"/>
<use x="712.64" y="95.00" xlink:href="#hl"/>
<use x="712.64" y="92.00" xlink:href="#hd"/>
<path d="M709.14 92.00v34.00" class="stroke"/>
<use x="730.64" y="101.00" xlink:href="#hd"/>
<use x="721.64" y="101.00" xlink:href="#sh0"/>
<path d="M727.14 101.00v25.00" class="stroke"/>
<use x="747.14" y="95.00" xlink:href="#hl"/>
<use x="747.14" y="95.00" xlink:href="#hd"/>
<path d="M743.64 95.00v31.00" class="stroke"/>
<use x="773.24" y="98.00" xlink:href="#hd"/>
<path d="M769.74 98.00v40.00" class="stroke"/>
<use x="773.24" y="119.00" xlink:href="#hd"/>
<use x="773.24" y="113.00" xlink:href="#hd"/>
<use x="773.24" y="107.00" xlink:href="#hd"/>
<defs>
<path id="r8e" class="fill" d="m 0 0
	c-1.5 1.5 -2.4 2 -3.6 2
	2.4 -2.8 -2.8 -4 -2.8 -1.2
	c0 2.7 4.3 2.4 5.9 0.6"/>
<g id="r8">
	<path d="m3.3 -4l-3.4 9.6" class="stroke"/>
	<use x="3.4" y="-4" xlink:href="#r8e"/>
</g>
</defs>
<use x="830.84" y="113.00" xlink:href="#r8"/>
<defs>
<path id="ubclef" class="fill" d="m-200 -87
	c124 -35 222 -78 254 -236
	43 -228 -167 -246 -192 -103
	59 -80 157 22 92 78
	-62 47 -115 -22 -106 -88
	21 -141 270 -136 274 52
	-1 175 -106 264 -322 297
	m357 -250
	c0 -36 51 -34 51 0
	0 37 -51 36 -51 0
	m-2 -129
	c0 -36 51 -34 51 0
	0 38 -51 37 -51 0"/>
<use id="bclef" transform="translate(0,18) scale(0.045)"
	xlink:href="#ubclef"/>
</defs>
<use x="23.54" y="165.00" xlink:href="#bclef"/>
<g font-family="serif" font-size="16" font-weight="bold" font-style="normal"
	transform="translate(42.04,182.50) scale(1.2,1)">
	<text text-anchor="middle">8</text>
	<text y="-12" text-anchor="middle">3</text>
</g>
<use x="84.64" y="168.00" xlink:href="#hd"/>
<path d="M81.14 168.00v25.00" class="stroke"/>
<use x="84.64" y="174.00" xlink:href="#hd"/>
<use x="150.54" y="171.00" xlink:href="#r8"/>
<use x="193.04" y="168.00" xlink:href="#hd"/>
<path d="M189.54 168.00v25.00" class="stroke"/>
<use x="193.04" y="174.00" xlink:href="#hd"/>
<use x="249.14" y="171.00" xlink:href="#r8"/>
<use x="291.74" y="177.00" xlink:href="#hd"/>
<path d="M295.24 177.00v-21.00" class="stroke"/>
<use x="338.04" y="171.00" xlink:href="#r8"/>
<use x="369.34" y="174.00" xlink:href="#hd"/>
<path d="M372.84 174.00v-21.00" class="stroke"/>
<use x="435.14" y="171.00" xlink:href="#r8"/>
<path class="fill"
	d="M475.04 150.00l57.30 0.00v3.20l-57.30 -0.00"/>
<use x="471.84" y="171.00" xlink:href="#hd"/>
<path d="M475.34 171.00v-20.00" class="stroke"/>
<use x="495.44" y="171.00" xlink:href="#hd"/>
<path d="M498.94 171.00v-20.00" class="stroke"/>
<use x="528.44" y="171.00" xlink:href="#hd"/>
<path d="M531.94 171.00v-20.00" class="stroke"/>
<use x="566.14" y="177.00" xlink:href="#hd"/>
<path d="M569.64 177.00v-25.00" class="stroke"/>
<use x="566.14" y="171.00" xlink:href="#hd"/>
<use x="631.94" y="171.00" xlink:href="#r8"/>
<path class="fill"
	d="M666.44 147.70l68.00 8.30v3.20l-68.00 -8.30"/>
<use x="663.24" y="174.00" xlink:href="#hd"/>
<path d="M666.74 174.00v-25.20" class="stroke"/>
<use x="696.14" y="171.00" xlink:href="#hd"/>
<path d="M699.64 171.00v-18.20" class="stroke"/>
<use x="730.64" y="189.00" xlink:href="#hl"/>
<use x="730.64" y="192.00" xlink:href="#hd"/>
<path d="M734.14 192.00v-35.00" class="stroke"/>
<path class="fill"
	d="M769.34 202.20l74.70 0.00v-3.20l-74.70 -0.00"/>
<path class="fill"
	d="M792.84 197.20l50.90 0.00v-3.20l-50.90 -0.00"/>
<use x="773.24" y="183.00" xlink:href="#hd"/>
<path d="M769.74 183.00v18.20" class="stroke"/>
<use x="796.34" y="162.00" xlink:href="#hd"/>
<path d="M792.84 162.00v39.20" class="stroke"/>
<use x="814.34" y="165.00" xlink:href="#hd"/>
<defs>
<path id="unat" class="fill" d="
	m96 -750
	h-32
	v716
	l32 -8
	182 -54
	v282
	h32
	v-706
	l-34 10
	-180 50
	v-290
	m0 592
	v-190
	l182 -52
	v188"/>
<use id="nt0" transform="translate(-3,5) scale(0.018)"
	xlink:href="#unat"/>
</defs>
<use x="805.34" y="165.00" xlink:href="#nt0"/>
<path d="M810.84 165.00v36.20" class="stroke"/>
<use x="830.84" y="168.00" xlink:href="#hd"/>
<path d="M827.34 168.00v33.20" class="stroke"/>
<use x="847.24" y="171.00" xlink:href="#hd"/>
<path d="M843.74 171.00v30.20" class="stroke"/>
<path class="fill"
	d="M476.04 195.00l57.30 0.00v-3.20l-57.30 -0.00"/>
<use x="479.84" y="174.00" xlink:href="#hd"/>
<path d="M476.34 174.00v20.00" class="stroke"/>
<use x="503.44" y="174.00" xlink:href="#hd"/>
<path d="M499.94 174.00v20.00" class="stroke"/>
<use x="536.44" y="174.00" xlink:href="#hd"/>
<path d="M532.94 174.00v20.00" class="stroke"/>
</g>
<g stroke-width="0.70" transform="scale(0.867)" font-family="Times" font-size="13.00">
<path class="stroke" stroke-width="1"
	d="M11.54 316.00v-82.00"/>
<path class="fill"
	d="M6.54 231.00
	c10.5 1 12 -4.5 12 -3.5c0 1 -3.5 5.5 -8.5 5.5
	v84.00
	c5 0 8.5 4.5 8.5 5.5c0 1 -1.5 -4.5 -12 -3.5"/>
<use x="148.54" y="258.00" xlink:href="#rdots"/>
<path class="stroke" stroke-width="1"
	d="M144.54 258.00v-24.00"/>
<path class="stroke" stroke-width="3"
	d="M140.04 258.00v-24.00"/>
<use x="148.54" y="316.00" xlink:href="#rdots"/>
<path class="stroke" stroke-width="1"
	d="M144.54 316.00v-58.00"/>
<path class="stroke" stroke-width="3"
	d="M140.04 316.00v-58.00"/>
<path class="stroke" stroke-width="1"
	d="M231.24 258.00v-24.00"/>
<path class="stroke" stroke-width="1"
	d="M231.24 316.00v-58.00"/>
<path class="stroke" stroke-width="1"
	d="M316.54 258.00v-24.00"/>
<path class="stroke" stroke-width="1"
	d="M316.54 316.00v-58.00"/>
<path class="stroke" stroke-width="1"
	d="M422.24 258.00v-24.00"/>
<path class="stroke" stroke-width="1"
	d="M422.24 316.00v-58.00"/>
<path class="stroke" stroke-width="1"
	d="M516.94 258.00v-24.00"/>
<path class="stroke" stroke-width="1"
	d="M516.94 316.00v-58.00"/>
<path class="stroke" stroke-width="1"
	d="M622.64 258.00v-24.00"/>
<path class="stroke" stroke-width="1"
	d="M622.64 316.00v-58.00"/>
<path class="stroke" stroke-width="1"
	d="M698.34 258.00v-24.00"/>
<path class="stroke" stroke-width="1"
	d="M698.34 316.00v-58.00"/>
<path class="stroke" stroke-width="1"
	d="M783.54 258.00v-24.00"/>
<path class="stroke" stroke-width="1"
	d="M783.54 316.00v-58.00"/>
<path class="stroke" stroke-width="3"
	d="M860.54 258.00v-24.00"/>
<path class="stroke" stroke-width="1"
	d="M856.04 258.00v-24.00"/>
<use x="852.04" y="258.00" xlink:href="#rdots"/>
<path class="stroke" stroke-width="3"
	d="M860.54 316.00v-58.00"/>
<path class="stroke" stroke-width="1"
	d="M856.04 316.00v-58.00"/>
<use x="852.04" y="316.00" xlink:href="#rdots"/>
<path d="m11.54 258.00
	h850.50
	M11.54 252.00
	h850.50
	M11.54 246.00
	h850.50
	M11.54 240.00
	h850.50
	M11.54 234.00
	h850.50
	" class="stroke"/>
<path d="m11.54 316.00
	h850.50
	M11.54 310.00
	h850.50
	M11.54 304.00
	h850.50
	M11.54 298.00
	h850.50
	M11.54 292.00
	h850.50
	" class="stroke"/>
<path class="fill"
	d="M635.44 241.00c6.47 -5.35 34.73 -10.56 41.20 -7.60
	v-0.24c-7.70 -4.72 -33.49 0.49 -41.20 7.84"/>
<text x="47.54" y="219.40">2</text>
<path class="stroke"
	d="M43.54 208.00m0 20v-20h94.00v20"/>
<use x="23.54" y="252.00" xlink:href="#tclef"/>
<use x="56.34" y="231.00" xlink:href="#hd"/>
<path d="M52.84 231.00v40.00" class="stroke"/>
<use x="56.34" y="252.00" xlink:href="#hd"/>
<use x="56.34" y="246.00" xlink:href="#hd"/>
<use x="56.34" y="240.00" xlink:href="#hd"/>
<use x="112.94" y="246.00" xlink:href="#r8"/>
<path class="fill"
	d="M164.14 268.20l46.10 -6.50v-3.20l-46.10 6.50"/>
<use x="168.04" y="249.00" xlink:href="#hd"/>
<path d="M164.54 249.00v18.20" class="stroke"/>
<use x="190.64" y="240.00" xlink:href="#hd"/>
<path d="M187.14 240.00v24.00" class="stroke"/>
<use x="213.44" y="234.00" xlink:href="#hd"/>
<use x="204.44" y="234.00" xlink:href="#sh0"/>
<path d="M209.94 234.00v26.80" class="stroke"/>
<path class="fill"
	d="M240.14 262.50l55.40 8.80v-3.20l-55.40 -8.80"/>
<path class="fill"
	d="M263.14 261.10l16.00 2.50v-3.20l-16.00 -2.50"/>
<use x="244.04" y="231.00" xlink:href="#hd"/>
<path d="M240.54 231.00v30.50" class="stroke"/>
<use x="266.64" y="240.00" xlink:href="#hd"/>
<path d="M263.14 240.00v25.10" class="stroke"/>
<use x="282.64" y="246.00" xlink:href="#hd"/>
<path d="M279.14 246.00v21.70" class="stroke"/>
<use x="298.74" y="252.00" xlink:href="#hd"/>
<path d="M295.24 252.00v18.20" class="stroke"/>
<path class="fill"
	d="M325.54 261.00l64.90 0.00v-3.20l-64.90 -0.00"/>
<use x="329.34" y="237.00" xlink:href="#hd"/>
<path d="M325.84 237.00v23.00" class="stroke"/>
<use x="329.34" y="243.00" xlink:href="#hd"/>
<use x="361.44" y="237.00" xlink:href="#hd"/>
<path d="M357.94 237.00v23.00" class="stroke"/>
<use x="361.44" y="243.00" xlink:href="#hd"/>
<use x="393.54" y="237.00" xlink:href="#hd"/>
<path d="M390.04 237.00v23.00" class="stroke"/>
<use x="393.54" y="243.00" xlink:href="#hd"/>
<path class="fill"
	d="M431.14 264.80l64.90 6.40v-3.20l-64.90 -6.40"/>
<path class="fill"
	d="M431.54 259.80l48.10 4.80v-3.20l-48.10 -4.80"/>
<use x="435.04" y="237.00" xlink:href="#hd"/>
<path d="M431.54 237.00v26.80" class="stroke"/>
<use x="451.04" y="243.00" xlink:href="#hd"/>
<path d="M447.54 243.00v22.40" class="stroke"/>
<use x="467.14" y="240.00" xlink:href="#hd"/>
<path d="M463.64 240.00v27.00" class="stroke"/>
<use x="483.14" y="246.00" xlink:href="#hd"/>
<path d="M479.64 246.00v22.60" class="stroke"/>
<use x="499.24" y="252.00" xlink:href="#hd"/>
<path d="M495.74 252.00v18.20" class="stroke"/>
<path class="fill"
	d="M525.94 264.10l64.90 7.10v-3.20l-64.90 -7.10"/>
<use x="529.74" y="237.00" xlink:href="#hd"/>
<path d="M526.24 237.00v26.20" class="stroke"/>
<use x="561.84" y="243.00" xlink:href="#hd"/>
<path d="M558.34 243.00v23.70" class="stroke"/>
<use x="593.94" y="252.00" xlink:href="#hd"/>
<path d="M590.44 252.00v18.20" class="stroke"/>
<path class="fill"
	d="M631.54 271.20l45.90 -6.50v-3.20l-45.90 6.50"/>
<use x="635.44" y="252.00" xlink:href="#hd"/>
<path d="M631.94 252.00v18.20" class="stroke"/>
<use x="658.04" y="243.00" xlink:href="#hd"/>
<path d="M654.54 243.00v24.00" class="stroke"/>
<use x="680.64" y="237.00" xlink:href="#hd"/>
<path d="M677.14 237.00v26.80" class="stroke"/>
<path class="fill"
	d="M707.24 264.70l55.40 5.90v-3.20l-55.40 -5.90"/>
<path class="fill"
	d="M707.64 259.80l16.00 1.70v-3.20l-16.00 -1.70"/>
<use x="711.14" y="234.00" xlink:href="#hd"/>
<path d="M707.64 234.00v29.80" class="stroke"/>
<use x="727.14" y="240.00" xlink:href="#hd"/>
<path d="M723.64 240.00v25.50" class="stroke"/>
<use x="743.24" y="249.00" xlink:href="#hd"/>
<path d="M739.74 249.00v18.20" class="stroke"/>
<use x="765.84" y="246.00" xlink:href="#hd"/>
<path d="M762.34 246.00v23.60" class="stroke"/>
<use x="796.34" y="243.00" xlink:href="#hd"/>
<path d="M792.84 243.00v21.00" class="stroke"/>
<use x="841.54" y="246.00" xlink:href="#r8"/>
<use x="23.54" y="298.00" xlink:href="#bclef"/>
<path class="fill"
	d="M52.44 335.20l73.40 -5.20v-3.20l-73.40 5.20"/>
<path class="fill"
	d="M75.44 328.60l50.10 -3.50v-3.20l-50.10 3.50"/>
<use x="56.34" y="316.00" xlink:href="#hd"/>
<path d="M52.84 316.00v18.20" class="stroke"/>
<use x="78.94" y="289.00" xlink:href="#hd"/>
<path d="M75.44 289.00v43.60" class="stroke"/>
<use x="94.94" y="295.00" xlink:href="#hd"/>
<path d="M91.44 295.00v36.50" class="stroke"/>
<use x="112.94" y="298.00" xlink:href="#hd"/>
<use x="103.94" y="298.00" xlink:href="#sh0"/>
<path d="M109.44 298.00v32.20" class="stroke"/>
<use x="129.04" y="301.00" xlink:href="#hd"/>
<path d="M125.54 301.00v28.10" class="stroke"/>
<use x="168.04" y="298.00" xlink:href="#hd"/>
<use x="159.04" y="298.00" xlink:href="#sh0"/>
<path d="M164.54 298.00v25.00" class="stroke"/>
<use x="168.04" y="304.00" xlink:href="#hd"/>
<use x="213.44" y="292.00" xlink:href="#hd"/>
<path d="M209.94 292.00v34.00" class="stroke"/>
<path class="fill"
	d="M209.94 326.00c0.6 -5.6 9.6 -9 5.6 -18.4
	1.6 6 -1.3 11.6 -5.6 12.8
"/>
<use x="213.44" y="307.00" xlink:href="#hd"/>
<use x="244.04" y="310.00" xlink:href="#hd"/>
<path d="M247.54 310.00v-25.00" class="stroke"/>
<use x="244.04" y="304.00" xlink:href="#hd"/>
<use x="298.74" y="310.00" xlink:href="#hd"/>
<path d="M302.24 310.00v-25.00" class="stroke"/>
<path class="fill"
	d="M302.24 285.00c0.6 5.6 9.6 9 5.6 18.4
	1.6 -6 -1.3 -11.6 -5.6 -12.8
"/>
<use x="298.74" y="304.00" xlink:href="#hd"/>
<path class="fill"
	d="M325.54 329.20l80.90 0.00v-3.20l-80.90 -0.00"/>
<path class="fill"
	d="M325.84 324.20l80.20 0.00v-3.20l-80.20 -0.00"/>
<use x="329.34" y="307.00" xlink:href="#hd"/>
<path d="M325.84 307.00v21.20" class="stroke"/>
<use x="345.44" y="301.00" xlink:href="#hd"/>
<path d="M341.94 301.00v27.20" class="stroke"/>
<use x="361.44" y="295.00" xlink:href="#hd"/>
<path d="M357.94 295.00v33.20" class="stroke"/>
<use x="377.54" y="301.00" xlink:href="#hd"/>
<path d="M374.04 301.00v27.20" class="stroke"/>
<use x="393.54" y="286.00" xlink:href="#hl"/>
<use x="393.54" y="286.00" xlink:href="#hd"/>
<path d="M390.04 286.00v42.20" class="stroke"/>
<use x="409.64" y="307.00" xlink:href="#hd"/>
<path d="M406.14 307.00v21.20" class="stroke"/>
<use x="435.04" y="295.00" xlink:href="#hd"/>
<path d="M431.54 295.00v21.00" class="stroke"/>
<use x="499.24" y="304.00" xlink:href="#r8"/>
<path class="fill"
	d="M525.94 323.90l80.90 0.00v-3.20l-80.90 -0.00"/>
<path class="fill"
	d="M526.24 318.90l80.20 0.00v-3.20l-80.20 -0.00"/>
<use x="529.74" y="301.00" xlink:href="#hd"/>
<path d="M526.24 301.00v21.90" class="stroke"/>
<use x="529.74" y="307.00" xlink:href="#hd"/>
<use x="545.74" y="295.00" xlink:href="#hd"/>
<path d="M542.24 295.00v27.90" class="stroke"/>
<use x="561.84" y="301.00" xlink:href="#hd"/>
<path d="M558.34 301.00v21.90" class="stroke"/>
<use x="561.84" y="307.00" xlink:href="#hd"/>
<use x="577.84" y="295.00" xlink:href="#hd"/>
<path d="M574.34 295.00v27.90" class="stroke"/>
<use x="593.94" y="301.00" xlink:href="#hd"/>
<path d="M590.44 301.00v21.90" class="stroke"/>
<use x="593.94" y="307.00" xlink:href="#hd"/>
<use x="609.94" y="295.00" xlink:href="#hd"/>
<path d="M606.44 295.00v27.90" class="stroke"/>
<use x="635.44" y="301.00" xlink:href="#hd"/>
<path d="M631.94 301.00v25.00" class="stroke"/>
<use x="635.44" y="307.00" xlink:href="#hd"/>
<use x="680.64" y="295.00" xlink:href="#hd"/>
<path d="M677.14 295.00v31.00" class="stroke"/>
<path class="fill"
	d="M677.14 326.00c0.6 -5.6 9.6 -9 5.6 -18.4
	1.6 6 -1.3 11.6 -5.6 12.8
"/>
<use x="680.64" y="307.00" xlink:href="#hd"/>
<use x="711.14" y="298.00" xlink:href="#hd"/>
<path d="M707.64 298.00v21.00" class="stroke"/>
<use x="765.84" y="295.00" xlink:href="#hd"/>
<path d="M762.34 295.00v21.00" class="stroke"/>
<path class="fill"
	d="M762.34 316.00c0.6 -5.6 9.6 -9 5.6 -18.4
	1.6 6 -1.3 11.6 -5.6 12.8
"/>
<path class="fill"
	d="M799.54 287.70l45.90 10.20v3.20l-45.90 -10.20"/>
<use x="796.34" y="307.00" xlink:href="#hd"/>
<path d="M799.84 307.00v-18.20" class="stroke"/>
<use x="818.94" y="316.00" xlink:href="#hd"/>
<path d="M822.44 316.00v-22.20" class="stroke"/>
<use x="841.54" y="322.00" xlink:href="#hl"/>
<use x="841.54" y="328.00" xlink:href="#hl"/>
<use x="841.54" y="328.00" xlink:href="#hd"/>
<path d="M845.04 328.00v-29.20" class="stroke"/>
</g>
</svg>
