<?xml version="1.0" standalone="no"?>
<!DOCTYPE svg PUBLIC "-//W3C//DTD SVG 1.1//EN"
	"http://www.w3.org/Graphics/SVG/1.1/DTD/svg11.dtd">
<svg xmlns="http://www.w3.org/2000/svg" version="1.1"
	xmlns:xlink="http://www.w3.org/1999/xlink"
	color="black"
	width="757.10px" height="301.61px">
<style type="text/css">
.fill {fill: currentColor}
.stroke {stroke: currentColor; fill: none}
text{white-space: pre}
</style>
<title>./K516f-4-9-4-5-3-7-7-7-2-8-6-10-9-3-6-4.abc (1434) tune 1</title>
<!-- Creator: abcm2ps-8.13.8 -->
<!-- CreationDate: Sep  7, 2017 11:18 -->
<!-- CommandLine: ./K516f-4-9-4-5-3-7-7-7-2-8-6-10-9-3-6-4.abc -O ./K516f-4-9-4-5-3-7-7-7-2-8-6-10-9-3-6-4.svg -g -->
<rect width="100%" height="100%" fill="white"/>
<g stroke-width="0.70" transform="scale(0.867)">
<!-- title: 4-9-4-5-3-7-7-7-2-8-6-10-9-3-6-4 -->
</g>
<g stroke-width="0.70" transform="scale(0.867)" font-family="Times" font-size="20.00">
<text x="436.84" y="22.00" text-anchor="middle">4-9-4-5-3-7-7-7-2-8-6-10-9-3-6-4</text>
</g>
<g stroke-width="0.70" transform="scale(0.867)" font-family="Times" font-size="20.00">
<!-- subtitle: $1K.516f::69:84:158:85:146:68:118:91:70:155:64:82:51:18:1:79::$0 -->
</g>
<g stroke-width="0.70" transform="scale(0.867)" font-family="Courier" font-size="8.00" font-weight="bold">
<text x="436.84" y="41.80" text-anchor="middle">K.516f::69:84:158:85:146:68:118:91:70:155:64:82:51:18:1:79::</text>
</g>
<g stroke-width="0.70" transform="scale(0.867)" font-family="Courier" font-size="8.00" font-weight="bold">
<!-- subtitle: $1Perm. No.: 143444685669596$0 -->
<text x="436.84" y="60.80" text-anchor="middle">Perm. No.: 143444685669596</text>
</g>
<g stroke-width="0.70" transform="scale(0.607)" font-family="Courier" font-size="8.00" font-weight="bold">
<defs>
<ellipse id="hd" rx="4.1" ry="2.9"
	transform="rotate(-20)" class="fill"/>
</defs>
<use x="103.06" y="121.29" xlink:href="#hd"/>
<path d="M106.56 121.29v-21.00" class="stroke"/>
<path class="fill"
	d="M106.56 100.29c0.6 5.6 9.6 9 5.6 18.4
	1.6 -6 -1.3 -11.6 -5.6 -12.8
"/>
</g>
<g stroke-width="0.70" transform="scale(0.867)" font-family="Times" font-size="15.00" font-weight="bold">
<text x="81.24" y="87.00">= 111</text>
<path class="stroke" stroke-width="1"
	d="M11.54 184.00v-82.00"/>
<path class="fill"
	d="M6.54 99.00
	c10.5 1 12 -4.5 12 -3.5c0 1 -3.5 5.5 -8.5 5.5
	v84.00
	c5 0 8.5 4.5 8.5 5.5c0 1 -1.5 -4.5 -12 -3.5"/>
<defs>
<g id="rdots" class="fill">
	<circle cx="0" cy="-9" r="1.2"/>
	<circle cx="0" cy="-15" r="1.2"/>
</g>
</defs>
<use x="70.54" y="126.00" xlink:href="#rdots"/>
<path class="stroke" stroke-width="1"
	d="M66.54 126.00v-24.00"/>
<path class="stroke" stroke-width="3"
	d="M62.04 126.00v-24.00"/>
<use x="70.54" y="184.00" xlink:href="#rdots"/>
<path class="stroke" stroke-width="1"
	d="M66.54 184.00v-58.00"/>
<path class="stroke" stroke-width="3"
	d="M62.04 184.00v-58.00"/>
<path class="stroke" stroke-width="1"
	d="M153.04 126.00v-24.00"/>
<path class="stroke" stroke-width="1"
	d="M153.04 184.00v-58.00"/>
<path class="stroke" stroke-width="1"
	d="M266.74 126.00v-24.00"/>
<path class="stroke" stroke-width="1"
	d="M266.74 184.00v-58.00"/>
<path class="stroke" stroke-width="1"
	d="M370.14 126.00v-24.00"/>
<path class="stroke" stroke-width="1"
	d="M370.14 184.00v-58.00"/>
<path class="stroke" stroke-width="1"
	d="M451.74 126.00v-24.00"/>
<path class="stroke" stroke-width="1"
	d="M451.74 184.00v-58.00"/>
<path class="stroke" stroke-width="1"
	d="M538.24 126.00v-24.00"/>
<path class="stroke" stroke-width="1"
	d="M538.24 184.00v-58.00"/>
<path class="stroke" stroke-width="1"
	d="M641.64 126.00v-24.00"/>
<path class="stroke" stroke-width="1"
	d="M641.64 184.00v-58.00"/>
<path class="stroke" stroke-width="1"
	d="M755.94 126.00v-24.00"/>
<path class="stroke" stroke-width="1"
	d="M755.94 184.00v-58.00"/>
<path class="stroke" stroke-width="3"
	d="M860.54 126.00v-24.00"/>
<path class="stroke" stroke-width="1"
	d="M856.04 126.00v-24.00"/>
<use x="852.04" y="126.00" xlink:href="#rdots"/>
<path class="stroke" stroke-width="3"
	d="M860.54 184.00v-58.00"/>
<path class="stroke" stroke-width="1"
	d="M856.04 184.00v-58.00"/>
<use x="852.04" y="184.00" xlink:href="#rdots"/>
<path d="m11.54 126.00
	h850.50
	M11.54 120.00
	h850.50
	M11.54 114.00
	h850.50
	M11.54 108.00
	h850.50
	M11.54 102.00
	h850.50
	" class="stroke"/>
<path d="m11.54 184.00
	h850.50
	M11.54 178.00
	h850.50
	M11.54 172.00
	h850.50
	M11.54 166.00
	h850.50
	M11.54 160.00
	h850.50
	" class="stroke"/>
<path class="fill"
	d="M89.24 95.40c6.96 -3.02 37.87 2.21 44.83 7.60
	v-0.24c-8.31 -7.14 -36.52 -12.38 -44.83 -7.36"/>
</g>
<g stroke-width="0.70" transform="scale(0.867)" font-family="Times" font-size="13.00">
<text x="759.94" y="87.40">1</text>
<path class="stroke"
	d="M755.94 76.00m0 20v-20h98.10v20"/>
<defs>
<path id="utclef" class="fill" d="m-50 -90
	c-72 -41 -72 -158 52 -188
	150 -10 220 188 90 256
	-114 52 -275 0 -293 -136
	-15 -181 93 -229 220 -334
	88 -87 79 -133 62 -210
	-51 33 -94 105 -89 186
	17 267 36 374 49 574
	6 96 -19 134 -77 135
	-80 1 -126 -93 -61 -133
	85 -41 133 101 31 105
	23 17 92 37 90 -92
	-10 -223 -39 -342 -50 -617
	0 -90 0 -162 96 -232
	56 72 63 230 22 289
	-74 106 -257 168 -255 316
	9 153 148 185 252 133
	86 -65 29 -192 -80 -176
	-71 12 -105 67 -59 124"/>
<use id="tclef" transform="translate(0,6) scale(0.045)"
	xlink:href="#utclef"/>
</defs>
<use x="23.54" y="120.00" xlink:href="#tclef"/>
<g font-family="serif" font-size="16" font-weight="bold" font-style="normal"
	transform="translate(42.04,125.50) scale(1.2,1)">
	<text text-anchor="middle">8</text>
	<text y="-12" text-anchor="middle">3</text>
</g>
<path class="fill"
	d="M81.34 122.10l49.50 8.20v-3.20l-49.50 -8.20"/>
<use x="85.24" y="99.00" xlink:href="#hd"/>
<path d="M81.74 99.00v22.20" class="stroke"/>
<use x="109.64" y="105.00" xlink:href="#hd"/>
<path d="M106.14 105.00v20.20" class="stroke"/>
<use x="134.04" y="111.00" xlink:href="#hd"/>
<path d="M130.54 111.00v18.20" class="stroke"/>
<path class="fill"
	d="M162.94 143.50l87.10 -6.40v-3.20l-87.10 6.40"/>
<path class="fill"
	d="M163.24 138.50l86.40 -6.40v-3.20l-86.40 6.40"/>
<use x="166.74" y="111.00" xlink:href="#hd"/>
<path d="M163.24 111.00v31.50" class="stroke"/>
<use x="184.04" y="120.00" xlink:href="#hd"/>
<path d="M180.54 120.00v21.20" class="stroke"/>
<use x="201.34" y="105.00" xlink:href="#hd"/>
<path d="M197.84 105.00v34.90" class="stroke"/>
<use x="218.64" y="111.00" xlink:href="#hd"/>
<path d="M215.14 111.00v27.70" class="stroke"/>
<use x="235.94" y="99.00" xlink:href="#hd"/>
<path d="M232.44 99.00v38.40" class="stroke"/>
<use x="253.14" y="105.00" xlink:href="#hd"/>
<path d="M249.64 105.00v31.10" class="stroke"/>
<path class="fill"
	d="M283.54 85.80l77.00 0.00v3.20l-77.00 -0.00"/>
<path class="fill"
	d="M308.24 90.80l51.90 0.00v3.20l-51.90 -0.00"/>
<use x="280.34" y="114.00" xlink:href="#hd"/>
<path d="M283.84 114.00v-27.20" class="stroke"/>
<use x="304.74" y="108.00" xlink:href="#hd"/>
<path d="M308.24 108.00v-21.20" class="stroke"/>
<use x="322.04" y="114.00" xlink:href="#hd"/>
<path d="M325.54 114.00v-27.20" class="stroke"/>
<use x="339.34" y="117.00" xlink:href="#hd"/>
<path d="M342.84 117.00v-30.20" class="stroke"/>
<use x="356.64" y="120.00" xlink:href="#hd"/>
<path d="M360.14 120.00v-33.20" class="stroke"/>
<path class="fill"
	d="M379.94 134.80l49.50 4.50v-3.20l-49.50 -4.50"/>
<use x="383.84" y="111.00" xlink:href="#hd"/>
<path d="M380.34 111.00v22.80" class="stroke"/>
<use x="408.24" y="105.00" xlink:href="#hd"/>
<path d="M404.74 105.00v31.00" class="stroke"/>
<use x="432.64" y="120.00" xlink:href="#hd"/>
<path d="M429.14 120.00v18.20" class="stroke"/>
<path class="fill"
	d="M466.34 140.30l49.60 -8.40v-3.20l-49.60 8.40"/>
<use x="470.24" y="108.00" xlink:href="#hd"/>
<path d="M466.74 108.00v31.20" class="stroke"/>
<use x="470.24" y="123.00" xlink:href="#hd"/>
<defs>
<path id="usharp" class="fill" d="
	m136 -702
	v890
	h32
	v-890
	m128 840
	h32
	v-888
	h-32
	m-232 286
	v116
	l338 -96
	v-116
	m-338 442
	v116
	l338 -98
	v-114"/>
<use id="sh0" transform="translate(-4,5) scale(0.018)"
	xlink:href="#usharp"/>
</defs>
<use x="461.24" y="123.00" xlink:href="#sh0"/>
<use x="494.74" y="102.00" xlink:href="#hd"/>
<use x="485.74" y="102.00" xlink:href="#sh0"/>
<path d="M491.24 102.00v33.00" class="stroke"/>
<use x="494.74" y="108.00" xlink:href="#hd"/>
<defs>
<path id="hl" class="stroke" d="m-6 0h12"/>
</defs>
<use x="519.14" y="96.00" xlink:href="#hl"/>
<use x="519.14" y="96.00" xlink:href="#hd"/>
<path d="M515.64 96.00v34.90" class="stroke"/>
<use x="519.14" y="102.00" xlink:href="#hd"/>
<path class="fill"
	d="M548.04 128.00l77.00 0.00v-3.20l-77.00 -0.00"/>
<path class="fill"
	d="M572.74 123.00l51.90 0.00v-3.20l-51.90 -0.00"/>
<use x="551.84" y="99.00" xlink:href="#hd"/>
<path d="M548.34 99.00v28.00" class="stroke"/>
<use x="576.24" y="96.00" xlink:href="#hl"/>
<use x="576.24" y="93.00" xlink:href="#hd"/>
<path d="M572.74 93.00v34.00" class="stroke"/>
<use x="593.54" y="99.00" xlink:href="#hd"/>
<path d="M590.04 99.00v28.00" class="stroke"/>
<use x="610.84" y="108.00" xlink:href="#hd"/>
<path d="M607.34 108.00v19.00" class="stroke"/>
<use x="628.14" y="99.00" xlink:href="#hd"/>
<path d="M624.64 99.00v28.00" class="stroke"/>
<path class="fill"
	d="M651.44 128.00l87.80 0.00v-3.20l-87.80 -0.00"/>
<path class="fill"
	d="M651.84 123.00l87.20 0.00v-3.20l-87.20 -0.00"/>
<use x="655.34" y="105.00" xlink:href="#hd"/>
<path d="M651.84 105.00v22.00" class="stroke"/>
<use x="672.64" y="96.00" xlink:href="#hl"/>
<use x="672.64" y="96.00" xlink:href="#hd"/>
<path d="M669.14 96.00v31.00" class="stroke"/>
<use x="689.84" y="99.00" xlink:href="#hd"/>
<path d="M686.34 99.00v28.00" class="stroke"/>
<use x="707.14" y="96.00" xlink:href="#hl"/>
<use x="707.14" y="93.00" xlink:href="#hd"/>
<path d="M703.64 93.00v34.00" class="stroke"/>
<use x="725.14" y="102.00" xlink:href="#hd"/>
<use x="716.14" y="102.00" xlink:href="#sh0"/>
<path d="M721.64 102.00v25.00" class="stroke"/>
<use x="742.44" y="96.00" xlink:href="#hl"/>
<use x="742.44" y="96.00" xlink:href="#hd"/>
<path d="M738.94 96.00v31.00" class="stroke"/>
<use x="769.64" y="99.00" xlink:href="#hd"/>
<path d="M766.14 99.00v40.00" class="stroke"/>
<use x="769.64" y="120.00" xlink:href="#hd"/>
<use x="769.64" y="114.00" xlink:href="#hd"/>
<use x="769.64" y="108.00" xlink:href="#hd"/>
<defs>
<path id="r8e" class="fill" d="m 0 0
	c-1.5 1.5 -2.4 2 -3.6 2
	2.4 -2.8 -2.8 -4 -2.8 -1.2
	c0 2.7 4.3 2.4 5.9 0.6"/>
<g id="r8">
	<path d="m3.3 -4l-3.4 9.6" class="stroke"/>
	<use x="3.4" y="-4" xlink:href="#r8e"/>
</g>
</defs>
<use x="829.34" y="114.00" xlink:href="#r8"/>
<defs>
<path id="ubclef" class="fill" d="m-200 -87
	c124 -35 222 -78 254 -236
	43 -228 -167 -246 -192 -103
	59 -80 157 22 92 78
	-62 47 -115 -22 -106 -88
	21 -141 270 -136 274 52
	-1 175 -106 264 -322 297
	m357 -250
	c0 -36 51 -34 51 0
	0 37 -51 36 -51 0
	m-2 -129
	c0 -36 51 -34 51 0
	0 38 -51 37 -51 0"/>
<use id="bclef" transform="translate(0,18) scale(0.045)"
	xlink:href="#ubclef"/>
</defs>
<use x="23.54" y="166.00" xlink:href="#bclef"/>
<g font-family="serif" font-size="16" font-weight="bold" font-style="normal"
	transform="translate(42.04,183.50) scale(1.2,1)">
	<text text-anchor="middle">8</text>
	<text y="-12" text-anchor="middle">3</text>
</g>
<use x="85.24" y="169.00" xlink:href="#hd"/>
<path d="M81.74 169.00v25.00" class="stroke"/>
<use x="85.24" y="175.00" xlink:href="#hd"/>
<use x="134.04" y="172.00" xlink:href="#r8"/>
<use x="166.74" y="169.00" xlink:href="#hd"/>
<path d="M163.24 169.00v25.00" class="stroke"/>
<use x="166.74" y="175.00" xlink:href="#hd"/>
<use x="235.94" y="172.00" xlink:href="#r8"/>
<use x="280.34" y="163.00" xlink:href="#hd"/>
<path d="M276.84 163.00v21.00" class="stroke"/>
<use x="339.34" y="172.00" xlink:href="#r8"/>
<use x="383.84" y="163.00" xlink:href="#hd"/>
<path d="M380.34 163.00v25.00" class="stroke"/>
<use x="383.84" y="169.00" xlink:href="#hd"/>
<use x="432.64" y="172.00" xlink:href="#r8"/>
<path class="fill"
	d="M473.34 154.00l49.60 0.00v3.20l-49.60 -0.00"/>
<use x="470.24" y="175.00" xlink:href="#hd"/>
<path d="M473.74 175.00v-20.00" class="stroke"/>
<use x="494.74" y="175.00" xlink:href="#hd"/>
<path d="M498.24 175.00v-20.00" class="stroke"/>
<use x="519.14" y="175.00" xlink:href="#hd"/>
<path d="M522.64 175.00v-20.00" class="stroke"/>
<use x="551.84" y="178.00" xlink:href="#hd"/>
<path d="M555.34 178.00v-21.00" class="stroke"/>
<use x="610.84" y="172.00" xlink:href="#r8"/>
<path class="fill"
	d="M658.44 148.70l70.50 8.40v3.20l-70.50 -8.40"/>
<use x="655.34" y="175.00" xlink:href="#hd"/>
<path d="M658.84 175.00v-25.30" class="stroke"/>
<use x="689.84" y="172.00" xlink:href="#hd"/>
<path d="M693.34 172.00v-18.20" class="stroke"/>
<use x="725.14" y="190.00" xlink:href="#hl"/>
<use x="725.14" y="193.00" xlink:href="#hd"/>
<path d="M728.64 193.00v-35.00" class="stroke"/>
<path class="fill"
	d="M765.84 203.20l77.70 0.00v-3.20l-77.70 -0.00"/>
<path class="fill"
	d="M790.54 198.20l52.60 0.00v-3.20l-52.60 -0.00"/>
<use x="769.64" y="184.00" xlink:href="#hd"/>
<path d="M766.14 184.00v18.20" class="stroke"/>
<use x="794.04" y="163.00" xlink:href="#hd"/>
<path d="M790.54 163.00v39.20" class="stroke"/>
<use x="812.04" y="166.00" xlink:href="#hd"/>
<defs>
<path id="unat" class="fill" d="
	m96 -750
	h-32
	v716
	l32 -8
	182 -54
	v282
	h32
	v-706
	l-34 10
	-180 50
	v-290
	m0 592
	v-190
	l182 -52
	v188"/>
<use id="nt0" transform="translate(-3,5) scale(0.018)"
	xlink:href="#unat"/>
</defs>
<use x="803.04" y="166.00" xlink:href="#nt0"/>
<path d="M808.54 166.00v36.20" class="stroke"/>
<use x="829.34" y="169.00" xlink:href="#hd"/>
<path d="M825.84 169.00v33.20" class="stroke"/>
<use x="846.64" y="172.00" xlink:href="#hd"/>
<path d="M843.14 172.00v30.20" class="stroke"/>
</g>
<g stroke-width="0.70" transform="scale(0.867)" font-family="Times" font-size="13.00">
<path class="stroke" stroke-width="1"
	d="M11.54 325.02v-90.00"/>
<path class="fill"
	d="M6.54 232.02
	c10.5 1 12 -4.5 12 -3.5c0 1 -3.5 5.5 -8.5 5.5
	v92.00
	c5 0 8.5 4.5 8.5 5.5c0 1 -1.5 -4.5 -12 -3.5"/>
<use x="146.54" y="259.02" xlink:href="#rdots"/>
<path class="stroke" stroke-width="1"
	d="M142.54 259.02v-24.00"/>
<path class="stroke" stroke-width="3"
	d="M138.04 259.02v-24.00"/>
<use x="146.54" y="325.02" xlink:href="#rdots"/>
<path class="stroke" stroke-width="1"
	d="M142.54 325.02v-66.00"/>
<path class="stroke" stroke-width="3"
	d="M138.04 325.02v-66.00"/>
<path class="stroke" stroke-width="1"
	d="M247.04 259.02v-24.00"/>
<path class="stroke" stroke-width="1"
	d="M247.04 325.02v-66.00"/>
<path class="stroke" stroke-width="1"
	d="M349.84 259.02v-24.00"/>
<path class="stroke" stroke-width="1"
	d="M349.84 325.02v-66.00"/>
<path class="stroke" stroke-width="1"
	d="M452.64 259.02v-24.00"/>
<path class="stroke" stroke-width="1"
	d="M452.64 325.02v-66.00"/>
<path class="stroke" stroke-width="1"
	d="M535.64 259.02v-24.00"/>
<path class="stroke" stroke-width="1"
	d="M535.64 325.02v-66.00"/>
<path class="stroke" stroke-width="1"
	d="M638.44 259.02v-24.00"/>
<path class="stroke" stroke-width="1"
	d="M638.44 325.02v-66.00"/>
<path class="stroke" stroke-width="1"
	d="M711.84 259.02v-24.00"/>
<path class="stroke" stroke-width="1"
	d="M711.84 325.02v-66.00"/>
<path class="stroke" stroke-width="1"
	d="M785.34 259.02v-24.00"/>
<path class="stroke" stroke-width="1"
	d="M785.34 325.02v-66.00"/>
<path class="stroke" stroke-width="3"
	d="M860.54 259.02v-24.00"/>
<path class="stroke" stroke-width="1"
	d="M856.04 259.02v-24.00"/>
<use x="852.04" y="259.02" xlink:href="#rdots"/>
<path class="stroke" stroke-width="3"
	d="M860.54 325.02v-66.00"/>
<path class="stroke" stroke-width="1"
	d="M856.04 325.02v-66.00"/>
<use x="852.04" y="325.02" xlink:href="#rdots"/>
<path d="m11.54 259.02
	h850.50
	M11.54 253.02
	h850.50
	M11.54 247.02
	h850.50
	M11.54 241.02
	h850.50
	M11.54 235.02
	h850.50
	" class="stroke"/>
<path d="m11.54 325.02
	h850.50
	M11.54 319.02
	h850.50
	M11.54 313.02
	h850.50
	M11.54 307.02
	h850.50
	M11.54 301.02
	h850.50
	" class="stroke"/>
<path class="fill"
	d="M650.94 242.02c6.26 -5.33 33.46 -10.54 39.72 -7.60
	v-0.24c-7.45 -4.70 -32.27 0.51 -39.72 7.84"/>
<text x="47.54" y="220.42">2</text>
<path class="stroke"
	d="M43.54 209.02m0 20v-20h92.00v20"/>
<use x="23.54" y="253.02" xlink:href="#tclef"/>
<use x="56.04" y="232.02" xlink:href="#hd"/>
<path d="M52.54 232.02v40.00" class="stroke"/>
<use x="56.04" y="253.02" xlink:href="#hd"/>
<use x="56.04" y="247.02" xlink:href="#hd"/>
<use x="56.04" y="241.02" xlink:href="#hd"/>
<use x="111.44" y="247.02" xlink:href="#r8"/>
<path class="fill"
	d="M162.14 261.02l69.20 0.00v-3.20l-69.20 -0.00"/>
<path class="fill"
	d="M184.34 256.02l46.70 0.00v-3.20l-46.70 -0.00"/>
<use x="166.04" y="235.02" xlink:href="#hd"/>
<use x="157.04" y="235.02" xlink:href="#sh0"/>
<path d="M162.54 235.02v25.00" class="stroke"/>
<use x="187.84" y="229.02" xlink:href="#hl"/>
<use x="187.84" y="229.02" xlink:href="#hd"/>
<path d="M184.34 229.02v31.00" class="stroke"/>
<use x="203.44" y="235.02" xlink:href="#hd"/>
<path d="M199.94 235.02v25.00" class="stroke"/>
<use x="219.04" y="241.02" xlink:href="#hd"/>
<path d="M215.54 241.02v19.00" class="stroke"/>
<use x="234.54" y="235.02" xlink:href="#hd"/>
<path d="M231.04 235.02v25.00" class="stroke"/>
<path class="fill"
	d="M255.74 264.22l78.50 11.00v-3.20l-78.50 -11.00"/>
<path class="fill"
	d="M256.04 259.32l77.80 10.90v-3.20l-77.80 -10.90"/>
<use x="259.54" y="232.02" xlink:href="#hd"/>
<path d="M256.04 232.02v31.30" class="stroke"/>
<use x="275.14" y="229.02" xlink:href="#hl"/>
<use x="275.14" y="226.02" xlink:href="#hd"/>
<path d="M271.64 226.02v39.50" class="stroke"/>
<use x="290.74" y="232.02" xlink:href="#hd"/>
<path d="M287.24 232.02v35.70" class="stroke"/>
<use x="306.24" y="241.02" xlink:href="#hd"/>
<path d="M302.74 241.02v28.80" class="stroke"/>
<use x="321.84" y="247.02" xlink:href="#hd"/>
<path d="M318.34 247.02v25.00" class="stroke"/>
<use x="337.34" y="253.02" xlink:href="#hd"/>
<path d="M333.84 253.02v21.20" class="stroke"/>
<path class="fill"
	d="M358.54 267.02l78.50 0.00v-3.20l-78.50 -0.00"/>
<path class="fill"
	d="M358.84 262.02l77.80 0.00v-3.20l-77.80 -0.00"/>
<use x="362.34" y="238.02" xlink:href="#hd"/>
<path d="M358.84 238.02v27.90" class="stroke"/>
<use x="377.94" y="232.02" xlink:href="#hd"/>
<path d="M374.44 232.02v33.90" class="stroke"/>
<use x="393.54" y="229.02" xlink:href="#hl"/>
<use x="393.54" y="223.02" xlink:href="#hl"/>
<use x="393.54" y="223.02" xlink:href="#hd"/>
<path d="M390.04 223.02v42.90" class="stroke"/>
<use x="409.04" y="232.02" xlink:href="#hd"/>
<path d="M405.54 232.02v33.90" class="stroke"/>
<use x="424.64" y="238.02" xlink:href="#hd"/>
<path d="M421.14 238.02v27.90" class="stroke"/>
<use x="440.14" y="244.02" xlink:href="#hd"/>
<path d="M436.64 244.02v21.90" class="stroke"/>
<path class="fill"
	d="M461.34 274.72l53.70 -4.30v-3.20l-53.70 4.30"/>
<path class="fill"
	d="M461.64 269.72l15.60 -1.30v-3.20l-15.60 1.30"/>
<use x="465.14" y="241.02" xlink:href="#hd"/>
<path d="M461.64 241.02v32.70" class="stroke"/>
<use x="480.74" y="247.02" xlink:href="#hd"/>
<path d="M477.24 247.02v25.50" class="stroke"/>
<use x="496.34" y="253.02" xlink:href="#hd"/>
<path d="M492.84 253.02v18.20" class="stroke"/>
<use x="518.14" y="232.02" xlink:href="#hd"/>
<path d="M514.64 232.02v37.40" class="stroke"/>
<path class="fill"
	d="M544.24 276.52l78.50 -6.30v-3.20l-78.50 6.30"/>
<path class="fill"
	d="M544.64 271.52l77.80 -6.30v-3.20l-77.80 6.30"/>
<use x="548.14" y="244.02" xlink:href="#hd"/>
<path d="M544.64 244.02v31.50" class="stroke"/>
<use x="563.64" y="253.02" xlink:href="#hd"/>
<path d="M560.14 253.02v21.20" class="stroke"/>
<use x="579.24" y="238.02" xlink:href="#hd"/>
<path d="M575.74 238.02v34.90" class="stroke"/>
<use x="594.74" y="244.02" xlink:href="#hd"/>
<path d="M591.24 244.02v27.70" class="stroke"/>
<use x="610.34" y="232.02" xlink:href="#hd"/>
<path d="M606.84 232.02v38.40" class="stroke"/>
<use x="625.94" y="238.02" xlink:href="#hd"/>
<path d="M622.44 238.02v31.20" class="stroke"/>
<path class="fill"
	d="M647.04 272.22l44.40 -6.50v-3.20l-44.40 6.50"/>
<use x="650.94" y="253.02" xlink:href="#hd"/>
<path d="M647.44 253.02v18.20" class="stroke"/>
<use x="672.74" y="244.02" xlink:href="#hd"/>
<path d="M669.24 244.02v24.00" class="stroke"/>
<use x="694.64" y="238.02" xlink:href="#hd"/>
<path d="M691.14 238.02v26.80" class="stroke"/>
<path class="fill"
	d="M720.54 259.22l44.40 0.00v-3.20l-44.40 -0.00"/>
<use x="724.34" y="235.02" xlink:href="#hd"/>
<path d="M720.84 235.02v23.20" class="stroke"/>
<use x="746.24" y="241.02" xlink:href="#hd"/>
<path d="M742.74 241.02v17.20" class="stroke"/>
<use x="768.04" y="232.02" xlink:href="#hd"/>
<path d="M764.54 232.02v26.20" class="stroke"/>
<use x="797.84" y="244.02" xlink:href="#hd"/>
<path d="M794.34 244.02v21.00" class="stroke"/>
<use x="841.54" y="247.02" xlink:href="#r8"/>
<use x="23.54" y="307.02" xlink:href="#bclef"/>
<path class="fill"
	d="M52.24 344.22l71.70 -5.10v-3.20l-71.70 5.10"/>
<path class="fill"
	d="M74.44 337.62l49.10 -3.50v-3.20l-49.10 3.50"/>
<use x="56.04" y="325.02" xlink:href="#hd"/>
<path d="M52.54 325.02v18.20" class="stroke"/>
<use x="77.94" y="298.02" xlink:href="#hd"/>
<path d="M74.44 298.02v43.60" class="stroke"/>
<use x="93.44" y="304.02" xlink:href="#hd"/>
<path d="M89.94 304.02v36.50" class="stroke"/>
<use x="111.44" y="307.02" xlink:href="#hd"/>
<use x="102.44" y="307.02" xlink:href="#sh0"/>
<path d="M107.94 307.02v32.20" class="stroke"/>
<use x="127.04" y="310.02" xlink:href="#hd"/>
<path d="M123.54 310.02v28.10" class="stroke"/>
<use x="166.04" y="313.02" xlink:href="#hd"/>
<path d="M169.54 313.02v-21.00" class="stroke"/>
<use x="219.04" y="316.02" xlink:href="#hd"/>
<path d="M222.54 316.02v-21.00" class="stroke"/>
<path class="fill"
	d="M222.54 295.02c0.6 5.6 9.6 9 5.6 18.4
	1.6 -6 -1.3 -11.6 -5.6 -12.8
"/>
<use x="259.54" y="319.02" xlink:href="#hd"/>
<path d="M263.04 319.02v-25.00" class="stroke"/>
<use x="259.54" y="313.02" xlink:href="#hd"/>
<use x="321.84" y="313.02" xlink:href="#r8"/>
<use x="362.34" y="304.02" xlink:href="#hd"/>
<path d="M358.84 304.02v31.00" class="stroke"/>
<use x="362.34" y="316.02" xlink:href="#hd"/>
<use x="424.64" y="304.02" xlink:href="#hd"/>
<path d="M421.14 304.02v31.00" class="stroke"/>
<path class="fill"
	d="M421.14 335.02c0.6 -5.6 9.6 -9 5.6 -18.4
	1.6 6 -1.3 11.6 -5.6 12.8
"/>
<use x="424.64" y="316.02" xlink:href="#hd"/>
<use x="465.14" y="304.02" xlink:href="#hd"/>
<path d="M468.64 304.02v-21.00" class="stroke"/>
<use x="518.14" y="319.02" xlink:href="#hd"/>
<path d="M521.64 319.02v-25.00" class="stroke"/>
<path class="fill"
	d="M521.64 294.02c0.6 5.6 9.6 9 5.6 18.4
	1.6 -6 -1.3 -11.6 -5.6 -12.8
"/>
<use x="518.14" y="313.02" xlink:href="#hd"/>
<use x="548.14" y="310.02" xlink:href="#hd"/>
<path d="M544.64 310.02v25.00" class="stroke"/>
<use x="548.14" y="316.02" xlink:href="#hd"/>
<use x="610.34" y="313.02" xlink:href="#r8"/>
<use x="650.94" y="310.02" xlink:href="#hd"/>
<path d="M647.44 310.02v25.00" class="stroke"/>
<use x="650.94" y="316.02" xlink:href="#hd"/>
<use x="694.64" y="304.02" xlink:href="#hd"/>
<path d="M691.14 304.02v31.00" class="stroke"/>
<path class="fill"
	d="M691.14 335.02c0.6 -5.6 9.6 -9 5.6 -18.4
	1.6 6 -1.3 11.6 -5.6 12.8
"/>
<use x="694.64" y="316.02" xlink:href="#hd"/>
<path class="fill"
	d="M720.54 332.22l44.40 0.00v-3.20l-44.40 -0.00"/>
<use x="724.34" y="307.02" xlink:href="#hd"/>
<path d="M720.84 307.02v24.20" class="stroke"/>
<use x="746.24" y="313.02" xlink:href="#hd"/>
<path d="M742.74 313.02v18.20" class="stroke"/>
<use x="768.04" y="304.02" xlink:href="#hd"/>
<path d="M764.54 304.02v27.20" class="stroke"/>
<path class="fill"
	d="M800.94 296.72l44.40 10.00v3.20l-44.40 -10.00"/>
<use x="797.84" y="316.02" xlink:href="#hd"/>
<path d="M801.34 316.02v-18.20" class="stroke"/>
<use x="819.64" y="325.02" xlink:href="#hd"/>
<path d="M823.14 325.02v-22.30" class="stroke"/>
<use x="841.54" y="331.02" xlink:href="#hl"/>
<use x="841.54" y="337.02" xlink:href="#hl"/>
<use x="841.54" y="337.02" xlink:href="#hd"/>
<path d="M845.04 337.02v-29.30" class="stroke"/>
<use x="465.14" y="319.02" xlink:href="#hd"/>
<path d="M461.64 319.02v21.00" class="stroke"/>
</g>
</svg>
