<?xml version="1.0" standalone="no"?>
<!DOCTYPE svg PUBLIC "-//W3C//DTD SVG 1.1//EN"
	"http://www.w3.org/Graphics/SVG/1.1/DTD/svg11.dtd">
<svg xmlns="http://www.w3.org/2000/svg" version="1.1"
	xmlns:xlink="http://www.w3.org/1999/xlink"
	color="black"
	width="757.10px" height="299.00px">
<style type="text/css">
.fill {fill: currentColor}
.stroke {stroke: currentColor; fill: none}
text{white-space: pre}
</style>
<title>./K516f-5-7-3-7-6-11-7-4-6-6-11-6-5-11-11-3.abc (3399) tune 1</title>
<!-- Creator: abcm2ps-8.13.8 -->
<!-- CreationDate: Sep  7, 2017 11:18 -->
<!-- CommandLine: ./K516f-5-7-3-7-6-11-7-4-6-6-11-6-5-11-11-3.abc -O ./K516f-5-7-3-7-6-11-7-4-6-6-11-6-5-11-11-3.svg -g -->
<rect width="100%" height="100%" fill="white"/>
<g stroke-width="0.70" transform="scale(0.867)">
<!-- title: 5-7-3-7-6-11-7-4-6-6-11-6-5-11-11-3 -->
</g>
<g stroke-width="0.70" transform="scale(0.867)" font-family="Times" font-size="20.00">
<text x="436.84" y="22.00" text-anchor="middle">5-7-3-7-6-11-7-4-6-6-11-6-5-11-11-3</text>
</g>
<g stroke-width="0.70" transform="scale(0.867)" font-family="Times" font-size="20.00">
<!-- subtitle: $1K.516f::40:157:128:167:80:47:118:24:25:143:31:125:67:59:173:83::$0 -->
</g>
<g stroke-width="0.70" transform="scale(0.867)" font-family="Courier" font-size="8.00" font-weight="bold">
<text x="436.84" y="41.80" text-anchor="middle">K.516f::40:157:128:167:80:47:118:24:25:143:31:125:67:59:173:83::</text>
</g>
<g stroke-width="0.70" transform="scale(0.867)" font-family="Courier" font-size="8.00" font-weight="bold">
<!-- subtitle: $1Perm. No.: 339932116682195$0 -->
<text x="436.84" y="60.80" text-anchor="middle">Perm. No.: 339932116682195</text>
</g>
<g stroke-width="0.70" transform="scale(0.607)" font-family="Courier" font-size="8.00" font-weight="bold">
<defs>
<ellipse id="hd" rx="4.1" ry="2.9"
	transform="rotate(-20)" class="fill"/>
</defs>
<use x="103.06" y="121.29" xlink:href="#hd"/>
<path d="M106.56 121.29v-21.00" class="stroke"/>
<path class="fill"
	d="M106.56 100.29c0.6 5.6 9.6 9 5.6 18.4
	1.6 -6 -1.3 -11.6 -5.6 -12.8
"/>
</g>
<g stroke-width="0.70" transform="scale(0.867)" font-family="Times" font-size="15.00" font-weight="bold">
<text x="81.24" y="87.00">= 111</text>
<path class="stroke" stroke-width="1"
	d="M11.54 183.00v-82.00"/>
<path class="fill"
	d="M6.54 98.00
	c10.5 1 12 -4.5 12 -3.5c0 1 -3.5 5.5 -8.5 5.5
	v84.00
	c5 0 8.5 4.5 8.5 5.5c0 1 -1.5 -4.5 -12 -3.5"/>
<defs>
<g id="rdots" class="fill">
	<circle cx="0" cy="-9" r="1.2"/>
	<circle cx="0" cy="-15" r="1.2"/>
</g>
</defs>
<use x="70.54" y="125.00" xlink:href="#rdots"/>
<path class="stroke" stroke-width="1"
	d="M66.54 125.00v-24.00"/>
<path class="stroke" stroke-width="3"
	d="M62.04 125.00v-24.00"/>
<use x="70.54" y="183.00" xlink:href="#rdots"/>
<path class="stroke" stroke-width="1"
	d="M66.54 183.00v-58.00"/>
<path class="stroke" stroke-width="3"
	d="M62.04 183.00v-58.00"/>
<path class="stroke" stroke-width="1"
	d="M184.64 125.00v-24.00"/>
<path class="stroke" stroke-width="1"
	d="M184.64 183.00v-58.00"/>
<path class="stroke" stroke-width="1"
	d="M297.64 125.00v-24.00"/>
<path class="stroke" stroke-width="1"
	d="M297.64 183.00v-58.00"/>
<path class="stroke" stroke-width="1"
	d="M378.84 125.00v-24.00"/>
<path class="stroke" stroke-width="1"
	d="M378.84 183.00v-58.00"/>
<path class="stroke" stroke-width="1"
	d="M470.04 125.00v-24.00"/>
<path class="stroke" stroke-width="1"
	d="M470.04 183.00v-58.00"/>
<path class="stroke" stroke-width="1"
	d="M551.34 125.00v-24.00"/>
<path class="stroke" stroke-width="1"
	d="M551.34 183.00v-58.00"/>
<path class="stroke" stroke-width="1"
	d="M642.54 125.00v-24.00"/>
<path class="stroke" stroke-width="1"
	d="M642.54 183.00v-58.00"/>
<path class="stroke" stroke-width="1"
	d="M756.44 125.00v-24.00"/>
<path class="stroke" stroke-width="1"
	d="M756.44 183.00v-58.00"/>
<path class="stroke" stroke-width="3"
	d="M860.54 125.00v-24.00"/>
<path class="stroke" stroke-width="1"
	d="M856.04 125.00v-24.00"/>
<use x="852.04" y="125.00" xlink:href="#rdots"/>
<path class="stroke" stroke-width="3"
	d="M860.54 183.00v-58.00"/>
<path class="stroke" stroke-width="1"
	d="M856.04 183.00v-58.00"/>
<use x="852.04" y="183.00" xlink:href="#rdots"/>
<path d="m11.54 125.00
	h850.50
	M11.54 119.00
	h850.50
	M11.54 113.00
	h850.50
	M11.54 107.00
	h850.50
	M11.54 101.00
	h850.50
	" class="stroke"/>
<path d="m11.54 183.00
	h850.50
	M11.54 177.00
	h850.50
	M11.54 171.00
	h850.50
	M11.54 165.00
	h850.50
	M11.54 159.00
	h850.50
	" class="stroke"/>
</g>
<g stroke-width="0.70" transform="scale(0.867)" font-family="Times" font-size="13.00">
<text x="760.44" y="86.40">1</text>
<path class="stroke"
	d="M756.44 75.00m0 20v-20h97.60v20"/>
<defs>
<path id="utclef" class="fill" d="m-50 -90
	c-72 -41 -72 -158 52 -188
	150 -10 220 188 90 256
	-114 52 -275 0 -293 -136
	-15 -181 93 -229 220 -334
	88 -87 79 -133 62 -210
	-51 33 -94 105 -89 186
	17 267 36 374 49 574
	6 96 -19 134 -77 135
	-80 1 -126 -93 -61 -133
	85 -41 133 101 31 105
	23 17 92 37 90 -92
	-10 -223 -39 -342 -50 -617
	0 -90 0 -162 96 -232
	56 72 63 230 22 289
	-74 106 -257 168 -255 316
	9 153 148 185 252 133
	86 -65 29 -192 -80 -176
	-71 12 -105 67 -59 124"/>
<use id="tclef" transform="translate(0,6) scale(0.045)"
	xlink:href="#utclef"/>
</defs>
<use x="23.54" y="119.00" xlink:href="#tclef"/>
<g font-family="serif" font-size="16" font-weight="bold" font-style="normal"
	transform="translate(42.04,124.50) scale(1.2,1)">
	<text text-anchor="middle">8</text>
	<text y="-12" text-anchor="middle">3</text>
</g>
<path class="fill"
	d="M81.24 141.20l86.70 0.00v-3.20l-86.70 -0.00"/>
<path class="fill"
	d="M81.64 136.20l86.00 0.00v-3.20l-86.00 -0.00"/>
<use x="85.14" y="110.00" xlink:href="#hd"/>
<path d="M81.64 110.00v30.20" class="stroke"/>
<use x="102.34" y="113.00" xlink:href="#hd"/>
<path d="M98.84 113.00v27.20" class="stroke"/>
<use x="119.54" y="110.00" xlink:href="#hd"/>
<path d="M116.04 110.00v30.20" class="stroke"/>
<use x="136.74" y="104.00" xlink:href="#hd"/>
<path d="M133.24 104.00v36.20" class="stroke"/>
<use x="153.94" y="119.00" xlink:href="#hd"/>
<path d="M150.44 119.00v21.20" class="stroke"/>
<use x="171.14" y="110.00" xlink:href="#hd"/>
<path d="M167.64 110.00v30.20" class="stroke"/>
<path class="fill"
	d="M194.34 130.50l86.70 -6.40v-3.20l-86.70 6.40"/>
<path class="fill"
	d="M194.64 125.50l86.00 -6.40v-3.20l-86.00 6.40"/>
<use x="198.14" y="104.00" xlink:href="#hd"/>
<path d="M194.64 104.00v25.50" class="stroke"/>
<use x="215.34" y="107.00" xlink:href="#hd"/>
<path d="M211.84 107.00v21.20" class="stroke"/>
<use x="232.54" y="104.00" xlink:href="#hd"/>
<path d="M229.04 104.00v22.90" class="stroke"/>
<use x="249.84" y="98.00" xlink:href="#hd"/>
<path d="M246.34 98.00v27.70" class="stroke"/>
<defs>
<path id="hl" class="stroke" d="m-6 0h12"/>
</defs>
<use x="267.04" y="95.00" xlink:href="#hl"/>
<use x="267.04" y="89.00" xlink:href="#hl"/>
<use x="267.04" y="89.00" xlink:href="#hd"/>
<path d="M263.54 89.00v35.40" class="stroke"/>
<use x="284.24" y="98.00" xlink:href="#hd"/>
<path d="M280.74 98.00v25.10" class="stroke"/>
<path class="fill"
	d="M307.44 132.20l49.30 -6.70v-3.20l-49.30 6.70"/>
<use x="311.24" y="113.00" xlink:href="#hd"/>
<path d="M307.74 113.00v18.20" class="stroke"/>
<use x="335.54" y="107.00" xlink:href="#hd"/>
<path d="M332.04 107.00v20.90" class="stroke"/>
<use x="359.84" y="98.00" xlink:href="#hd"/>
<path d="M356.34 98.00v26.60" class="stroke"/>
<path class="fill"
	d="M388.54 133.00l59.40 0.00v-3.20l-59.40 -0.00"/>
<path class="fill"
	d="M413.14 128.00l17.20 0.00v-3.20l-17.20 -0.00"/>
<use x="392.34" y="110.00" xlink:href="#hd"/>
<path d="M388.84 110.00v21.90" class="stroke"/>
<use x="416.64" y="110.00" xlink:href="#hd"/>
<path d="M413.14 110.00v21.90" class="stroke"/>
<use x="433.84" y="107.00" xlink:href="#hd"/>
<path d="M430.34 107.00v24.90" class="stroke"/>
<use x="451.04" y="104.00" xlink:href="#hd"/>
<path d="M447.54 104.00v27.90" class="stroke"/>
<path class="fill"
	d="M479.84 136.80l49.40 -3.20v-3.20l-49.40 3.20"/>
<use x="483.64" y="107.00" xlink:href="#hd"/>
<path d="M480.14 107.00v28.80" class="stroke"/>
<use x="507.94" y="116.00" xlink:href="#hd"/>
<path d="M504.44 116.00v18.20" class="stroke"/>
<use x="532.34" y="101.00" xlink:href="#hd"/>
<defs>
<path id="usharp" class="fill" d="
	m136 -702
	v890
	h32
	v-890
	m128 840
	h32
	v-888
	h-32
	m-232 286
	v116
	l338 -96
	v-116
	m-338 442
	v116
	l338 -98
	v-114"/>
<use id="sh0" transform="translate(-4,5) scale(0.018)"
	xlink:href="#usharp"/>
</defs>
<use x="523.34" y="101.00" xlink:href="#sh0"/>
<path d="M528.84 101.00v31.60" class="stroke"/>
<path class="fill"
	d="M561.04 127.00l59.40 0.00v-3.20l-59.40 -0.00"/>
<path class="fill"
	d="M585.74 122.00l17.20 0.00v-3.20l-17.20 -0.00"/>
<use x="564.94" y="98.00" xlink:href="#hd"/>
<path d="M561.44 98.00v28.00" class="stroke"/>
<use x="589.24" y="98.00" xlink:href="#hd"/>
<path d="M585.74 98.00v28.00" class="stroke"/>
<use x="606.44" y="107.00" xlink:href="#hd"/>
<path d="M602.94 107.00v19.00" class="stroke"/>
<use x="623.64" y="95.00" xlink:href="#hl"/>
<use x="623.64" y="92.00" xlink:href="#hd"/>
<path d="M620.14 92.00v34.00" class="stroke"/>
<path class="fill"
	d="M652.34 127.00l87.50 0.00v-3.20l-87.50 -0.00"/>
<path class="fill"
	d="M652.64 122.00l86.80 0.00v-3.20l-86.80 -0.00"/>
<use x="656.14" y="104.00" xlink:href="#hd"/>
<path d="M652.64 104.00v22.00" class="stroke"/>
<use x="673.34" y="95.00" xlink:href="#hl"/>
<use x="673.34" y="95.00" xlink:href="#hd"/>
<path d="M669.84 95.00v31.00" class="stroke"/>
<use x="690.54" y="98.00" xlink:href="#hd"/>
<path d="M687.04 98.00v28.00" class="stroke"/>
<use x="707.74" y="95.00" xlink:href="#hl"/>
<use x="707.74" y="92.00" xlink:href="#hd"/>
<path d="M704.24 92.00v34.00" class="stroke"/>
<use x="725.74" y="101.00" xlink:href="#hd"/>
<use x="716.74" y="101.00" xlink:href="#sh0"/>
<path d="M722.24 101.00v25.00" class="stroke"/>
<use x="742.94" y="95.00" xlink:href="#hl"/>
<use x="742.94" y="95.00" xlink:href="#hd"/>
<path d="M739.44 95.00v31.00" class="stroke"/>
<use x="770.04" y="98.00" xlink:href="#hd"/>
<path d="M766.54 98.00v40.00" class="stroke"/>
<use x="770.04" y="119.00" xlink:href="#hd"/>
<use x="770.04" y="113.00" xlink:href="#hd"/>
<use x="770.04" y="107.00" xlink:href="#hd"/>
<defs>
<path id="r8e" class="fill" d="m 0 0
	c-1.5 1.5 -2.4 2 -3.6 2
	2.4 -2.8 -2.8 -4 -2.8 -1.2
	c0 2.7 4.3 2.4 5.9 0.6"/>
<g id="r8">
	<path d="m3.3 -4l-3.4 9.6" class="stroke"/>
	<use x="3.4" y="-4" xlink:href="#r8e"/>
</g>
</defs>
<use x="829.54" y="113.00" xlink:href="#r8"/>
<defs>
<path id="ubclef" class="fill" d="m-200 -87
	c124 -35 222 -78 254 -236
	43 -228 -167 -246 -192 -103
	59 -80 157 22 92 78
	-62 47 -115 -22 -106 -88
	21 -141 270 -136 274 52
	-1 175 -106 264 -322 297
	m357 -250
	c0 -36 51 -34 51 0
	0 37 -51 36 -51 0
	m-2 -129
	c0 -36 51 -34 51 0
	0 38 -51 37 -51 0"/>
<use id="bclef" transform="translate(0,18) scale(0.045)"
	xlink:href="#ubclef"/>
</defs>
<use x="23.54" y="165.00" xlink:href="#bclef"/>
<g font-family="serif" font-size="16" font-weight="bold" font-style="normal"
	transform="translate(42.04,182.50) scale(1.2,1)">
	<text text-anchor="middle">8</text>
	<text y="-12" text-anchor="middle">3</text>
</g>
<use x="85.14" y="168.00" xlink:href="#hd"/>
<path d="M81.64 168.00v25.00" class="stroke"/>
<use x="85.14" y="174.00" xlink:href="#hd"/>
<use x="153.94" y="171.00" xlink:href="#r8"/>
<use x="198.14" y="174.00" xlink:href="#hd"/>
<path d="M201.64 174.00v-21.00" class="stroke"/>
<use x="267.04" y="171.00" xlink:href="#r8"/>
<use x="311.24" y="183.00" xlink:href="#hd"/>
<path d="M314.74 183.00v-21.00" class="stroke"/>
<use x="359.84" y="171.00" xlink:href="#r8"/>
<use x="392.34" y="168.00" xlink:href="#hd"/>
<path d="M388.84 168.00v25.00" class="stroke"/>
<use x="392.34" y="174.00" xlink:href="#hd"/>
<use x="451.04" y="171.00" xlink:href="#r8"/>
<use x="483.64" y="174.00" xlink:href="#hd"/>
<path d="M487.14 174.00v-21.00" class="stroke"/>
<use x="532.34" y="171.00" xlink:href="#r8"/>
<use x="564.94" y="177.00" xlink:href="#hd"/>
<path d="M568.44 177.00v-25.00" class="stroke"/>
<use x="564.94" y="171.00" xlink:href="#hd"/>
<use x="623.64" y="171.00" xlink:href="#r8"/>
<path class="fill"
	d="M659.34 147.70l70.30 8.40v3.20l-70.30 -8.40"/>
<use x="656.14" y="174.00" xlink:href="#hd"/>
<path d="M659.64 174.00v-25.30" class="stroke"/>
<use x="690.54" y="171.00" xlink:href="#hd"/>
<path d="M694.04 171.00v-18.20" class="stroke"/>
<use x="725.74" y="189.00" xlink:href="#hl"/>
<use x="725.74" y="192.00" xlink:href="#hd"/>
<path d="M729.24 192.00v-35.00" class="stroke"/>
<path class="fill"
	d="M766.14 202.20l77.40 0.00v-3.20l-77.40 -0.00"/>
<path class="fill"
	d="M790.84 197.20l52.40 0.00v-3.20l-52.40 -0.00"/>
<use x="770.04" y="183.00" xlink:href="#hd"/>
<path d="M766.54 183.00v18.20" class="stroke"/>
<use x="794.34" y="162.00" xlink:href="#hd"/>
<path d="M790.84 162.00v39.20" class="stroke"/>
<use x="812.34" y="165.00" xlink:href="#hd"/>
<defs>
<path id="unat" class="fill" d="
	m96 -750
	h-32
	v716
	l32 -8
	182 -54
	v282
	h32
	v-706
	l-34 10
	-180 50
	v-290
	m0 592
	v-190
	l182 -52
	v188"/>
<use id="nt0" transform="translate(-3,5) scale(0.018)"
	xlink:href="#unat"/>
</defs>
<use x="803.34" y="165.00" xlink:href="#nt0"/>
<path d="M808.84 165.00v36.20" class="stroke"/>
<use x="829.54" y="168.00" xlink:href="#hd"/>
<path d="M826.04 168.00v33.20" class="stroke"/>
<use x="846.74" y="171.00" xlink:href="#hd"/>
<path d="M843.24 171.00v30.20" class="stroke"/>
<defs>
<path id="turn" class="fill" d="
	m5.2 -8
	c1.4 0.5 0.9 4.8 -2.2 2.8
	l-4.8 -3.5
	c-3 -2 -5.8 1.8 -3.6 4.4
	1 1.1 2 0.8 2.1 -0.1
	0.1 -0.9 -0.7 -1.2 -1.9 -0.6
	-1.4 -0.5 -0.9 -4.8 2.2 -2.8
	l4.8 3.5
	c3 2 5.8 -1.8 3.6 -4.4
	-1 -1.1 -2 -0.8 -2.1 0.1
	-0.1 0.9 0.7 1.2 1.9 0.6"/>
</defs>
<use x="507.94" y="99.00" xlink:href="#turn"/>
</g>
<g stroke-width="0.70" transform="scale(0.867)" font-family="Times" font-size="13.00">
<path class="stroke" stroke-width="1"
	d="M11.54 322.00v-88.00"/>
<path class="fill"
	d="M6.54 231.00
	c10.5 1 12 -4.5 12 -3.5c0 1 -3.5 5.5 -8.5 5.5
	v90.00
	c5 0 8.5 4.5 8.5 5.5c0 1 -1.5 -4.5 -12 -3.5"/>
<use x="143.54" y="258.00" xlink:href="#rdots"/>
<path class="stroke" stroke-width="1"
	d="M139.54 258.00v-24.00"/>
<path class="stroke" stroke-width="3"
	d="M135.04 258.00v-24.00"/>
<use x="143.54" y="322.00" xlink:href="#rdots"/>
<path class="stroke" stroke-width="1"
	d="M139.54 322.00v-64.00"/>
<path class="stroke" stroke-width="3"
	d="M135.04 322.00v-64.00"/>
<path class="stroke" stroke-width="1"
	d="M249.74 258.00v-24.00"/>
<path class="stroke" stroke-width="1"
	d="M249.74 322.00v-64.00"/>
<path class="stroke" stroke-width="1"
	d="M329.14 258.00v-24.00"/>
<path class="stroke" stroke-width="1"
	d="M329.14 322.00v-64.00"/>
<path class="stroke" stroke-width="1"
	d="M410.24 258.00v-24.00"/>
<path class="stroke" stroke-width="1"
	d="M410.24 322.00v-64.00"/>
<path class="stroke" stroke-width="1"
	d="M498.14 258.00v-24.00"/>
<path class="stroke" stroke-width="1"
	d="M498.14 322.00v-64.00"/>
<path class="stroke" stroke-width="1"
	d="M596.84 258.00v-24.00"/>
<path class="stroke" stroke-width="1"
	d="M596.84 322.00v-64.00"/>
<path class="stroke" stroke-width="1"
	d="M695.54 258.00v-24.00"/>
<path class="stroke" stroke-width="1"
	d="M695.54 322.00v-64.00"/>
<path class="stroke" stroke-width="1"
	d="M788.04 258.00v-24.00"/>
<path class="stroke" stroke-width="1"
	d="M788.04 322.00v-64.00"/>
<path class="stroke" stroke-width="3"
	d="M860.54 258.00v-24.00"/>
<path class="stroke" stroke-width="1"
	d="M856.04 258.00v-24.00"/>
<use x="852.04" y="258.00" xlink:href="#rdots"/>
<path class="stroke" stroke-width="3"
	d="M860.54 322.00v-64.00"/>
<path class="stroke" stroke-width="1"
	d="M856.04 322.00v-64.00"/>
<use x="852.04" y="322.00" xlink:href="#rdots"/>
<path d="m11.54 258.00
	h850.50
	M11.54 252.00
	h850.50
	M11.54 246.00
	h850.50
	M11.54 240.00
	h850.50
	M11.54 234.00
	h850.50
	" class="stroke"/>
<path d="m11.54 322.00
	h850.50
	M11.54 316.00
	h850.50
	M11.54 310.00
	h850.50
	M11.54 304.00
	h850.50
	M11.54 298.00
	h850.50
	" class="stroke"/>
<text x="47.54" y="219.40">2</text>
<path class="stroke"
	d="M43.54 208.00m0 20v-20h89.00v20"/>
<use x="23.54" y="252.00" xlink:href="#tclef"/>
<use x="56.04" y="231.00" xlink:href="#hd"/>
<path d="M52.54 231.00v40.00" class="stroke"/>
<use x="56.04" y="252.00" xlink:href="#hd"/>
<use x="56.04" y="246.00" xlink:href="#hd"/>
<use x="56.04" y="240.00" xlink:href="#hd"/>
<use x="109.24" y="246.00" xlink:href="#r8"/>
<path class="fill"
	d="M153.14 281.30l80.90 -13.20v-3.20l-80.90 13.20"/>
<path class="fill"
	d="M153.54 276.20l80.20 -13.10v-3.20l-80.20 13.10"/>
<use x="157.04" y="261.00" xlink:href="#hd"/>
<path d="M153.54 261.00v19.20" class="stroke"/>
<use x="175.04" y="255.00" xlink:href="#hd"/>
<use x="166.04" y="255.00" xlink:href="#sh0"/>
<path d="M171.54 255.00v22.30" class="stroke"/>
<use x="189.74" y="249.00" xlink:href="#hd"/>
<path d="M186.24 249.00v25.80" class="stroke"/>
<use x="204.44" y="240.00" xlink:href="#hd"/>
<path d="M200.94 240.00v32.40" class="stroke"/>
<use x="222.44" y="234.00" xlink:href="#hd"/>
<use x="213.44" y="234.00" xlink:href="#sh0"/>
<path d="M218.94 234.00v35.50" class="stroke"/>
<use x="237.24" y="228.00" xlink:href="#hl"/>
<use x="237.24" y="228.00" xlink:href="#hd"/>
<path d="M233.74 228.00v39.10" class="stroke"/>
<path class="fill"
	d="M258.34 262.70l50.60 8.50v-3.20l-50.60 -8.50"/>
<path class="fill"
	d="M279.24 261.20l14.70 2.50v-3.20l-14.70 -2.50"/>
<use x="262.24" y="231.00" xlink:href="#hd"/>
<path d="M258.74 231.00v30.80" class="stroke"/>
<use x="282.74" y="240.00" xlink:href="#hd"/>
<path d="M279.24 240.00v25.20" class="stroke"/>
<use x="297.44" y="246.00" xlink:href="#hd"/>
<path d="M293.94 246.00v21.70" class="stroke"/>
<use x="312.14" y="252.00" xlink:href="#hd"/>
<path d="M308.64 252.00v18.20" class="stroke"/>
<path class="fill"
	d="M337.84 265.50l30.10 5.70v-3.20l-30.10 -5.70"/>
<path class="fill"
	d="M338.14 260.60l14.70 2.80v-3.20l-14.70 -2.80"/>
<use x="341.64" y="237.00" xlink:href="#hd"/>
<path d="M338.14 237.00v27.60" class="stroke"/>
<use x="356.44" y="243.00" xlink:href="#hd"/>
<path d="M352.94 243.00v24.40" class="stroke"/>
<use x="371.14" y="252.00" xlink:href="#hd"/>
<path d="M367.64 252.00v18.20" class="stroke"/>
<use x="393.84" y="237.00" xlink:href="#hd"/>
<path d="M390.34 237.00v21.00" class="stroke"/>
<path class="fill"
	d="M390.34 258.00c0.6 -5.6 9.6 -9 5.6 -18.4
	1.6 6 -1.3 11.6 -5.6 12.8
"/>
<path class="fill"
	d="M418.94 262.50l59.60 8.70v-3.20l-59.60 -8.70"/>
<path class="fill"
	d="M419.24 257.60l44.20 6.50v-3.20l-44.20 -6.50"/>
<use x="422.74" y="231.00" xlink:href="#hd"/>
<path d="M419.24 231.00v30.60" class="stroke"/>
<use x="437.54" y="237.00" xlink:href="#hd"/>
<path d="M434.04 237.00v26.70" class="stroke"/>
<use x="452.24" y="240.00" xlink:href="#hd"/>
<path d="M448.74 240.00v25.90" class="stroke"/>
<use x="466.94" y="246.00" xlink:href="#hd"/>
<path d="M463.44 246.00v22.00" class="stroke"/>
<use x="481.74" y="252.00" xlink:href="#hd"/>
<path d="M478.24 252.00v18.20" class="stroke"/>
<path class="fill"
	d="M506.84 274.20l74.30 0.00v-3.20l-74.30 -0.00"/>
<path class="fill"
	d="M507.14 269.20l73.70 0.00v-3.20l-73.70 -0.00"/>
<use x="510.64" y="243.00" xlink:href="#hd"/>
<path d="M507.14 243.00v30.20" class="stroke"/>
<use x="525.44" y="246.00" xlink:href="#hd"/>
<path d="M521.94 246.00v27.20" class="stroke"/>
<use x="540.14" y="243.00" xlink:href="#hd"/>
<path d="M536.64 243.00v30.20" class="stroke"/>
<use x="554.84" y="237.00" xlink:href="#hd"/>
<path d="M551.34 237.00v36.20" class="stroke"/>
<use x="569.64" y="252.00" xlink:href="#hd"/>
<path d="M566.14 252.00v21.20" class="stroke"/>
<use x="584.34" y="243.00" xlink:href="#hd"/>
<path d="M580.84 243.00v30.20" class="stroke"/>
<path class="fill"
	d="M605.54 260.60l59.60 3.20v-3.20l-59.60 -3.20"/>
<use x="609.34" y="231.00" xlink:href="#hd"/>
<path d="M605.84 231.00v28.60" class="stroke"/>
<use x="638.84" y="243.00" xlink:href="#hd"/>
<path d="M635.34 243.00v18.20" class="stroke"/>
<use x="668.24" y="237.00" xlink:href="#hd"/>
<path d="M664.74 237.00v25.80" class="stroke"/>
<path class="fill"
	d="M704.14 256.30l15.40 -3.50v-3.20l-15.40 3.50"/>
<path class="fill"
	d="M704.54 251.20l14.70 -3.30v-3.20l-14.70 3.30"/>
<use x="708.04" y="234.00" xlink:href="#hd"/>
<path d="M704.54 234.00v21.20" class="stroke"/>
<use x="722.74" y="228.00" xlink:href="#hl"/>
<use x="722.74" y="228.00" xlink:href="#hd"/>
<path d="M719.24 228.00v23.90" class="stroke"/>
<use x="737.44" y="249.00" xlink:href="#hd"/>
<path d="M740.94 249.00v-21.00" class="stroke"/>
<path class="fill"
	d="M740.94 228.00c0.6 5.6 9.6 9 5.6 18.4
	1.6 -6 -1.3 -11.6 -5.6 -12.8
"/>
<path class="fill"
	d="M756.94 268.30l15.40 -3.50v-3.20l-15.40 3.50"/>
<path class="fill"
	d="M757.34 263.20l14.70 -3.30v-3.20l-14.70 3.30"/>
<use x="760.84" y="246.00" xlink:href="#hd"/>
<path d="M757.34 246.00v21.20" class="stroke"/>
<use x="775.54" y="240.00" xlink:href="#hd"/>
<path d="M772.04 240.00v23.90" class="stroke"/>
<use x="800.54" y="243.00" xlink:href="#hd"/>
<path d="M797.04 243.00v21.00" class="stroke"/>
<use x="841.54" y="246.00" xlink:href="#r8"/>
<use x="23.54" y="304.00" xlink:href="#bclef"/>
<path class="fill"
	d="M52.24 341.20l68.60 -5.00v-3.20l-68.60 5.00"/>
<path class="fill"
	d="M73.04 334.70l47.50 -3.50v-3.20l-47.50 3.50"/>
<use x="56.04" y="322.00" xlink:href="#hd"/>
<path d="M52.54 322.00v18.20" class="stroke"/>
<use x="76.54" y="295.00" xlink:href="#hd"/>
<path d="M73.04 295.00v43.70" class="stroke"/>
<use x="91.24" y="301.00" xlink:href="#hd"/>
<path d="M87.74 301.00v36.60" class="stroke"/>
<use x="109.24" y="304.00" xlink:href="#hd"/>
<use x="100.24" y="304.00" xlink:href="#sh0"/>
<path d="M105.74 304.00v32.30" class="stroke"/>
<use x="124.04" y="307.00" xlink:href="#hd"/>
<path d="M120.54 307.00v28.30" class="stroke"/>
<use x="157.04" y="310.00" xlink:href="#hd"/>
<path d="M160.54 310.00v-21.00" class="stroke"/>
<use x="222.44" y="313.00" xlink:href="#hd"/>
<path d="M225.94 313.00v-21.00" class="stroke"/>
<path class="fill"
	d="M225.94 292.00c0.6 5.6 9.6 9 5.6 18.4
	1.6 -6 -1.3 -11.6 -5.6 -12.8
"/>
<use x="262.24" y="316.00" xlink:href="#hd"/>
<path d="M265.74 316.00v-25.00" class="stroke"/>
<use x="262.24" y="310.00" xlink:href="#hd"/>
<use x="312.14" y="316.00" xlink:href="#hd"/>
<path d="M315.64 316.00v-25.00" class="stroke"/>
<path class="fill"
	d="M315.64 291.00c0.6 5.6 9.6 9 5.6 18.4
	1.6 -6 -1.3 -11.6 -5.6 -12.8
"/>
<use x="312.14" y="310.00" xlink:href="#hd"/>
<use x="341.64" y="301.00" xlink:href="#hd"/>
<path d="M338.14 301.00v31.00" class="stroke"/>
<use x="341.64" y="313.00" xlink:href="#hd"/>
<use x="393.84" y="301.00" xlink:href="#hd"/>
<path d="M390.34 301.00v31.00" class="stroke"/>
<path class="fill"
	d="M390.34 332.00c0.6 -5.6 9.6 -9 5.6 -18.4
	1.6 6 -1.3 11.6 -5.6 12.8
"/>
<use x="393.84" y="313.00" xlink:href="#hd"/>
<path class="fill"
	d="M425.94 281.70l30.10 8.90v3.20l-30.10 -8.90"/>
<use x="422.74" y="301.00" xlink:href="#hd"/>
<path d="M426.24 301.00v-18.20" class="stroke"/>
<use x="452.24" y="322.00" xlink:href="#hd"/>
<path d="M455.74 322.00v-30.50" class="stroke"/>
<use x="481.74" y="310.00" xlink:href="#r8"/>
<use x="510.64" y="307.00" xlink:href="#hd"/>
<path d="M507.14 307.00v25.00" class="stroke"/>
<use x="510.64" y="313.00" xlink:href="#hd"/>
<use x="569.64" y="301.00" xlink:href="#hd"/>
<path d="M566.14 301.00v25.00" class="stroke"/>
<path class="fill"
	d="M566.14 326.00c0.6 -5.6 9.6 -9 5.6 -18.4
	1.6 6 -1.3 11.6 -5.6 12.8
"/>
<use x="569.64" y="307.00" xlink:href="#hd"/>
<path class="fill"
	d="M605.54 329.90l74.30 0.00v-3.20l-74.30 -0.00"/>
<path class="fill"
	d="M605.84 324.90l73.70 0.00v-3.20l-73.70 -0.00"/>
<use x="609.34" y="307.00" xlink:href="#hd"/>
<path d="M605.84 307.00v21.90" class="stroke"/>
<use x="609.34" y="313.00" xlink:href="#hd"/>
<use x="624.04" y="301.00" xlink:href="#hd"/>
<path d="M620.54 301.00v27.90" class="stroke"/>
<use x="638.84" y="307.00" xlink:href="#hd"/>
<path d="M635.34 307.00v21.90" class="stroke"/>
<use x="638.84" y="313.00" xlink:href="#hd"/>
<use x="653.54" y="301.00" xlink:href="#hd"/>
<path d="M650.04 301.00v27.90" class="stroke"/>
<use x="668.24" y="307.00" xlink:href="#hd"/>
<path d="M664.74 307.00v21.90" class="stroke"/>
<use x="668.24" y="313.00" xlink:href="#hd"/>
<use x="683.04" y="301.00" xlink:href="#hd"/>
<path d="M679.54 301.00v27.90" class="stroke"/>
<use x="708.04" y="304.00" xlink:href="#hd"/>
<path d="M704.54 304.00v21.00" class="stroke"/>
<use x="760.84" y="301.00" xlink:href="#hd"/>
<path d="M757.34 301.00v21.00" class="stroke"/>
<path class="fill"
	d="M757.34 322.00c0.6 -5.6 9.6 -9 5.6 -18.4
	1.6 6 -1.3 11.6 -5.6 12.8
"/>
<path class="fill"
	d="M803.74 293.70l41.70 9.70v3.20l-41.70 -9.70"/>
<use x="800.54" y="313.00" xlink:href="#hd"/>
<path d="M804.04 313.00v-18.20" class="stroke"/>
<use x="821.04" y="322.00" xlink:href="#hd"/>
<path d="M824.54 322.00v-22.40" class="stroke"/>
<use x="841.54" y="328.00" xlink:href="#hl"/>
<use x="841.54" y="334.00" xlink:href="#hl"/>
<use x="841.54" y="334.00" xlink:href="#hd"/>
<path d="M845.04 334.00v-29.60" class="stroke"/>
</g>
</svg>
