<?xml version="1.0" standalone="no"?>
<!DOCTYPE svg PUBLIC "-//W3C//DTD SVG 1.1//EN"
	"http://www.w3.org/Graphics/SVG/1.1/DTD/svg11.dtd">
<svg xmlns="http://www.w3.org/2000/svg" version="1.1"
	xmlns:xlink="http://www.w3.org/1999/xlink"
	color="black"
	width="757.10px" height="303.33px">
<style type="text/css">
.fill {fill: currentColor}
.stroke {stroke: currentColor; fill: none}
text{white-space: pre}
</style>
<title>./K516f-6-6-7-9-8-4-12-12-2-11-11-7-10-11-4-4.abc (9972) tune 1</title>
<!-- Creator: abcm2ps-8.13.8 -->
<!-- CreationDate: Sep  7, 2017 11:18 -->
<!-- CommandLine: ./K516f-6-6-7-9-8-4-12-12-2-11-11-7-10-11-4-4.abc -O ./K516f-6-6-7-9-8-4-12-12-2-11-11-7-10-11-4-4.svg -g -->
<rect width="100%" height="100%" fill="white"/>
<g stroke-width="0.70" transform="scale(0.867)">
<!-- title: 6-6-7-9-8-4-12-12-2-11-11-7-10-11-4-4 -->
</g>
<g stroke-width="0.70" transform="scale(0.867)" font-family="Times" font-size="20.00">
<text x="436.84" y="22.00" text-anchor="middle">6-6-7-9-8-4-12-12-2-11-11-7-10-11-4-4</text>
</g>
<g stroke-width="0.70" transform="scale(0.867)" font-family="Times" font-size="20.00">
<!-- subtitle: $1K.516f::148:74:27:50:99:55:106:5:70:4:31:29:137:59:145:79::$0 -->
</g>
<g stroke-width="0.70" transform="scale(0.867)" font-family="Courier" font-size="8.00" font-weight="bold">
<text x="436.84" y="41.80" text-anchor="middle">K.516f::148:74:27:50:99:55:106:5:70:4:31:29:137:59:145:79::</text>
</g>
<g stroke-width="0.70" transform="scale(0.867)" font-family="Courier" font-size="8.00" font-weight="bold">
<!-- subtitle: $1Perm. No.: 99726629060921$0 -->
<text x="436.84" y="60.80" text-anchor="middle">Perm. No.: 99726629060921</text>
</g>
<g stroke-width="0.70" transform="scale(0.607)" font-family="Courier" font-size="8.00" font-weight="bold">
<defs>
<ellipse id="hd" rx="4.1" ry="2.9"
	transform="rotate(-20)" class="fill"/>
</defs>
<use x="103.06" y="121.29" xlink:href="#hd"/>
<path d="M106.56 121.29v-21.00" class="stroke"/>
<path class="fill"
	d="M106.56 100.29c0.6 5.6 9.6 9 5.6 18.4
	1.6 -6 -1.3 -11.6 -5.6 -12.8
"/>
</g>
<g stroke-width="0.70" transform="scale(0.867)" font-family="Times" font-size="15.00" font-weight="bold">
<text x="81.24" y="87.00">= 111</text>
<path class="stroke" stroke-width="1"
	d="M11.54 191.00v-82.00"/>
<path class="fill"
	d="M6.54 106.00
	c10.5 1 12 -4.5 12 -3.5c0 1 -3.5 5.5 -8.5 5.5
	v84.00
	c5 0 8.5 4.5 8.5 5.5c0 1 -1.5 -4.5 -12 -3.5"/>
<defs>
<g id="rdots" class="fill">
	<circle cx="0" cy="-9" r="1.2"/>
	<circle cx="0" cy="-15" r="1.2"/>
</g>
</defs>
<use x="70.54" y="133.00" xlink:href="#rdots"/>
<path class="stroke" stroke-width="1"
	d="M66.54 133.00v-24.00"/>
<path class="stroke" stroke-width="3"
	d="M62.04 133.00v-24.00"/>
<use x="70.54" y="191.00" xlink:href="#rdots"/>
<path class="stroke" stroke-width="1"
	d="M66.54 191.00v-58.00"/>
<path class="stroke" stroke-width="3"
	d="M62.04 191.00v-58.00"/>
<path class="stroke" stroke-width="1"
	d="M182.34 133.00v-24.00"/>
<path class="stroke" stroke-width="1"
	d="M182.34 191.00v-58.00"/>
<path class="stroke" stroke-width="1"
	d="M293.14 133.00v-24.00"/>
<path class="stroke" stroke-width="1"
	d="M293.14 191.00v-58.00"/>
<path class="stroke" stroke-width="1"
	d="M403.94 133.00v-24.00"/>
<path class="stroke" stroke-width="1"
	d="M403.94 191.00v-58.00"/>
<path class="stroke" stroke-width="1"
	d="M493.34 133.00v-24.00"/>
<path class="stroke" stroke-width="1"
	d="M493.34 191.00v-58.00"/>
<path class="stroke" stroke-width="1"
	d="M577.94 133.00v-24.00"/>
<path class="stroke" stroke-width="1"
	d="M577.94 191.00v-58.00"/>
<path class="stroke" stroke-width="1"
	d="M657.34 133.00v-24.00"/>
<path class="stroke" stroke-width="1"
	d="M657.34 191.00v-58.00"/>
<path class="stroke" stroke-width="1"
	d="M758.24 133.00v-24.00"/>
<path class="stroke" stroke-width="1"
	d="M758.24 191.00v-58.00"/>
<path class="stroke" stroke-width="3"
	d="M860.54 133.00v-24.00"/>
<path class="stroke" stroke-width="1"
	d="M856.04 133.00v-24.00"/>
<use x="852.04" y="133.00" xlink:href="#rdots"/>
<path class="stroke" stroke-width="3"
	d="M860.54 191.00v-58.00"/>
<path class="stroke" stroke-width="1"
	d="M856.04 191.00v-58.00"/>
<use x="852.04" y="191.00" xlink:href="#rdots"/>
<path d="m11.54 133.00
	h850.50
	M11.54 127.00
	h850.50
	M11.54 121.00
	h850.50
	M11.54 115.00
	h850.50
	M11.54 109.00
	h850.50
	" class="stroke"/>
<path d="m11.54 191.00
	h850.50
	M11.54 185.00
	h850.50
	M11.54 179.00
	h850.50
	M11.54 173.00
	h850.50
	M11.54 167.00
	h850.50
	" class="stroke"/>
</g>
<g stroke-width="0.70" transform="scale(0.867)" font-family="Times" font-size="13.00">
<text x="762.24" y="94.40">1</text>
<path class="stroke"
	d="M758.24 83.00m0 20v-20h95.80v20"/>
<defs>
<path id="utclef" class="fill" d="m-50 -90
	c-72 -41 -72 -158 52 -188
	150 -10 220 188 90 256
	-114 52 -275 0 -293 -136
	-15 -181 93 -229 220 -334
	88 -87 79 -133 62 -210
	-51 33 -94 105 -89 186
	17 267 36 374 49 574
	6 96 -19 134 -77 135
	-80 1 -126 -93 -61 -133
	85 -41 133 101 31 105
	23 17 92 37 90 -92
	-10 -223 -39 -342 -50 -617
	0 -90 0 -162 96 -232
	56 72 63 230 22 289
	-74 106 -257 168 -255 316
	9 153 148 185 252 133
	86 -65 29 -192 -80 -176
	-71 12 -105 67 -59 124"/>
<use id="tclef" transform="translate(0,6) scale(0.045)"
	xlink:href="#utclef"/>
</defs>
<use x="23.54" y="127.00" xlink:href="#tclef"/>
<g font-family="serif" font-size="16" font-weight="bold" font-style="normal"
	transform="translate(42.04,132.50) scale(1.2,1)">
	<text text-anchor="middle">8</text>
	<text y="-12" text-anchor="middle">3</text>
</g>
<path class="fill"
	d="M81.04 130.60l85.00 9.60v-3.20l-85.00 -9.60"/>
<path class="fill"
	d="M81.34 125.70l84.30 9.50v-3.20l-84.30 -9.50"/>
<defs>
<path id="hl" class="stroke" d="m-6 0h12"/>
</defs>
<use x="84.84" y="103.00" xlink:href="#hl"/>
<use x="84.84" y="97.00" xlink:href="#hl"/>
<use x="84.84" y="97.00" xlink:href="#hd"/>
<path d="M81.34 97.00v32.70" class="stroke"/>
<use x="101.74" y="103.00" xlink:href="#hl"/>
<use x="101.74" y="100.00" xlink:href="#hd"/>
<path d="M98.24 100.00v31.60" class="stroke"/>
<use x="118.64" y="103.00" xlink:href="#hl"/>
<use x="118.64" y="97.00" xlink:href="#hl"/>
<use x="118.64" y="97.00" xlink:href="#hd"/>
<path d="M115.14 97.00v36.50" class="stroke"/>
<use x="135.44" y="106.00" xlink:href="#hd"/>
<path d="M131.94 106.00v29.40" class="stroke"/>
<use x="152.34" y="112.00" xlink:href="#hd"/>
<path d="M148.84 112.00v25.30" class="stroke"/>
<use x="169.14" y="118.00" xlink:href="#hd"/>
<path d="M165.64 118.00v21.20" class="stroke"/>
<path class="fill"
	d="M191.84 130.60l85.00 9.60v-3.20l-85.00 -9.60"/>
<path class="fill"
	d="M192.14 125.70l84.30 9.50v-3.20l-84.30 -9.50"/>
<use x="195.64" y="103.00" xlink:href="#hl"/>
<use x="195.64" y="97.00" xlink:href="#hl"/>
<use x="195.64" y="97.00" xlink:href="#hd"/>
<path d="M192.14 97.00v32.70" class="stroke"/>
<use x="212.54" y="103.00" xlink:href="#hl"/>
<use x="212.54" y="100.00" xlink:href="#hd"/>
<path d="M209.04 100.00v31.60" class="stroke"/>
<use x="229.44" y="103.00" xlink:href="#hl"/>
<use x="229.44" y="97.00" xlink:href="#hl"/>
<use x="229.44" y="97.00" xlink:href="#hd"/>
<path d="M225.94 97.00v36.50" class="stroke"/>
<use x="246.24" y="106.00" xlink:href="#hd"/>
<path d="M242.74 106.00v29.40" class="stroke"/>
<use x="263.14" y="112.00" xlink:href="#hd"/>
<path d="M259.64 112.00v25.30" class="stroke"/>
<use x="279.94" y="118.00" xlink:href="#hd"/>
<path d="M276.44 118.00v21.20" class="stroke"/>
<path class="fill"
	d="M302.64 137.00l84.90 6.20v-3.20l-84.90 -6.20"/>
<path class="fill"
	d="M303.04 132.10l84.20 6.10v-3.20l-84.20 -6.10"/>
<use x="306.54" y="109.00" xlink:href="#hd"/>
<path d="M303.04 109.00v27.10" class="stroke"/>
<use x="323.34" y="112.00" xlink:href="#hd"/>
<path d="M319.84 112.00v25.30" class="stroke"/>
<use x="340.14" y="109.00" xlink:href="#hd"/>
<path d="M336.64 109.00v29.50" class="stroke"/>
<use x="357.04" y="115.00" xlink:href="#hd"/>
<path d="M353.54 115.00v24.70" class="stroke"/>
<use x="373.84" y="118.00" xlink:href="#hd"/>
<path d="M370.34 118.00v23.00" class="stroke"/>
<use x="390.74" y="121.00" xlink:href="#hd"/>
<path d="M387.24 121.00v21.20" class="stroke"/>
<path class="fill"
	d="M413.44 141.50l58.10 4.70v-3.20l-58.10 -4.70"/>
<path class="fill"
	d="M437.54 138.50l16.80 1.40v-3.20l-16.80 -1.40"/>
<use x="417.24" y="118.00" xlink:href="#hd"/>
<path d="M413.74 118.00v22.60" class="stroke"/>
<use x="441.04" y="112.00" xlink:href="#hd"/>
<path d="M437.54 112.00v30.50" class="stroke"/>
<use x="457.84" y="118.00" xlink:href="#hd"/>
<path d="M454.34 118.00v25.80" class="stroke"/>
<use x="474.74" y="127.00" xlink:href="#hd"/>
<path d="M471.24 127.00v18.20" class="stroke"/>
<path class="fill"
	d="M507.94 131.10l48.20 3.20v-3.20l-48.20 -3.20"/>
<use x="511.84" y="109.00" xlink:href="#hd"/>
<defs>
<path id="usharp" class="fill" d="
	m136 -702
	v890
	h32
	v-890
	m128 840
	h32
	v-888
	h-32
	m-232 286
	v116
	l338 -96
	v-116
	m-338 442
	v116
	l338 -98
	v-114"/>
<use id="sh0" transform="translate(-4,5) scale(0.018)"
	xlink:href="#usharp"/>
</defs>
<use x="502.84" y="109.00" xlink:href="#sh0"/>
<path d="M508.34 109.00v21.10" class="stroke"/>
<use x="535.54" y="103.00" xlink:href="#hl"/>
<use x="535.54" y="103.00" xlink:href="#hd"/>
<path d="M532.04 103.00v28.60" class="stroke"/>
<use x="559.34" y="115.00" xlink:href="#hd"/>
<path d="M555.84 115.00v18.20" class="stroke"/>
<path class="fill"
	d="M587.44 129.80l48.20 4.50v-3.20l-48.20 -4.50"/>
<use x="591.24" y="106.00" xlink:href="#hd"/>
<path d="M587.74 106.00v22.80" class="stroke"/>
<use x="615.04" y="103.00" xlink:href="#hl"/>
<use x="615.04" y="100.00" xlink:href="#hd"/>
<path d="M611.54 100.00v31.00" class="stroke"/>
<use x="638.84" y="115.00" xlink:href="#hd"/>
<path d="M635.34 115.00v18.20" class="stroke"/>
<path class="fill"
	d="M666.84 146.20l75.00 0.00v-3.20l-75.00 -0.00"/>
<path class="fill"
	d="M690.94 141.20l50.50 0.00v-3.20l-50.50 -0.00"/>
<use x="670.74" y="124.00" xlink:href="#hd"/>
<path d="M667.24 124.00v21.20" class="stroke"/>
<use x="694.44" y="115.00" xlink:href="#hd"/>
<path d="M690.94 115.00v30.20" class="stroke"/>
<use x="711.34" y="118.00" xlink:href="#hd"/>
<path d="M707.84 118.00v27.20" class="stroke"/>
<use x="728.14" y="121.00" xlink:href="#hd"/>
<path d="M724.64 121.00v24.20" class="stroke"/>
<use x="745.04" y="124.00" xlink:href="#hd"/>
<path d="M741.54 124.00v21.20" class="stroke"/>
<use x="771.54" y="106.00" xlink:href="#hd"/>
<path d="M768.04 106.00v40.00" class="stroke"/>
<use x="771.54" y="127.00" xlink:href="#hd"/>
<use x="771.54" y="121.00" xlink:href="#hd"/>
<use x="771.54" y="115.00" xlink:href="#hd"/>
<defs>
<path id="r8e" class="fill" d="m 0 0
	c-1.5 1.5 -2.4 2 -3.6 2
	2.4 -2.8 -2.8 -4 -2.8 -1.2
	c0 2.7 4.3 2.4 5.9 0.6"/>
<g id="r8">
	<path d="m3.3 -4l-3.4 9.6" class="stroke"/>
	<use x="3.4" y="-4" xlink:href="#r8e"/>
</g>
</defs>
<use x="830.14" y="121.00" xlink:href="#r8"/>
<defs>
<path id="ubclef" class="fill" d="m-200 -87
	c124 -35 222 -78 254 -236
	43 -228 -167 -246 -192 -103
	59 -80 157 22 92 78
	-62 47 -115 -22 -106 -88
	21 -141 270 -136 274 52
	-1 175 -106 264 -322 297
	m357 -250
	c0 -36 51 -34 51 0
	0 37 -51 36 -51 0
	m-2 -129
	c0 -36 51 -34 51 0
	0 38 -51 37 -51 0"/>
<use id="bclef" transform="translate(0,18) scale(0.045)"
	xlink:href="#ubclef"/>
</defs>
<use x="23.54" y="173.00" xlink:href="#bclef"/>
<g font-family="serif" font-size="16" font-weight="bold" font-style="normal"
	transform="translate(42.04,190.50) scale(1.2,1)">
	<text text-anchor="middle">8</text>
	<text y="-12" text-anchor="middle">3</text>
</g>
<use x="84.84" y="176.00" xlink:href="#hd"/>
<path d="M81.34 176.00v25.00" class="stroke"/>
<use x="84.84" y="182.00" xlink:href="#hd"/>
<use x="152.34" y="179.00" xlink:href="#r8"/>
<use x="195.64" y="176.00" xlink:href="#hd"/>
<path d="M199.14 176.00v-21.00" class="stroke"/>
<use x="263.14" y="179.00" xlink:href="#r8"/>
<use x="306.54" y="164.00" xlink:href="#hd"/>
<path d="M303.04 164.00v25.00" class="stroke"/>
<use x="306.54" y="170.00" xlink:href="#hd"/>
<use x="373.84" y="179.00" xlink:href="#r8"/>
<use x="417.24" y="170.00" xlink:href="#hd"/>
<path d="M413.74 170.00v25.00" class="stroke"/>
<use x="417.24" y="176.00" xlink:href="#hd"/>
<use x="474.74" y="179.00" xlink:href="#r8"/>
<use x="511.84" y="167.00" xlink:href="#hd"/>
<path d="M508.34 167.00v34.00" class="stroke"/>
<use x="511.84" y="182.00" xlink:href="#hd"/>
<use x="559.34" y="167.00" xlink:href="#hd"/>
<path d="M555.84 167.00v34.00" class="stroke"/>
<path class="fill"
	d="M555.84 201.00c0.6 -5.6 9.6 -9 5.6 -18.4
	1.6 6 -1.3 11.6 -5.6 12.8
"/>
<use x="559.34" y="182.00" xlink:href="#hd"/>
<use x="591.24" y="185.00" xlink:href="#hd"/>
<path d="M594.74 185.00v-25.00" class="stroke"/>
<use x="591.24" y="179.00" xlink:href="#hd"/>
<use x="638.84" y="179.00" xlink:href="#r8"/>
<path class="fill"
	d="M673.84 156.40l58.10 8.30v3.20l-58.10 -8.30"/>
<use x="670.74" y="182.00" xlink:href="#hd"/>
<path d="M674.24 182.00v-24.60" class="stroke"/>
<use x="694.44" y="179.00" xlink:href="#hd"/>
<path d="M697.94 179.00v-18.20" class="stroke"/>
<use x="728.14" y="197.00" xlink:href="#hl"/>
<use x="728.14" y="200.00" xlink:href="#hd"/>
<path d="M731.64 200.00v-34.40" class="stroke"/>
<path class="fill"
	d="M767.74 210.20l76.10 0.00v-3.20l-76.10 -0.00"/>
<path class="fill"
	d="M791.84 205.20l51.70 0.00v-3.20l-51.70 -0.00"/>
<use x="771.54" y="191.00" xlink:href="#hd"/>
<path d="M768.04 191.00v18.20" class="stroke"/>
<use x="795.34" y="170.00" xlink:href="#hd"/>
<path d="M791.84 170.00v39.20" class="stroke"/>
<use x="813.34" y="173.00" xlink:href="#hd"/>
<defs>
<path id="unat" class="fill" d="
	m96 -750
	h-32
	v716
	l32 -8
	182 -54
	v282
	h32
	v-706
	l-34 10
	-180 50
	v-290
	m0 592
	v-190
	l182 -52
	v188"/>
<use id="nt0" transform="translate(-3,5) scale(0.018)"
	xlink:href="#unat"/>
</defs>
<use x="804.34" y="173.00" xlink:href="#nt0"/>
<path d="M809.84 173.00v36.20" class="stroke"/>
<use x="830.14" y="176.00" xlink:href="#hd"/>
<path d="M826.64 176.00v33.20" class="stroke"/>
<use x="847.04" y="179.00" xlink:href="#hd"/>
<path d="M843.54 179.00v30.20" class="stroke"/>
<use x="195.64" y="182.00" xlink:href="#hd"/>
<path d="M192.14 182.00v21.00" class="stroke"/>
</g>
<g stroke-width="0.70" transform="scale(0.867)" font-family="Times" font-size="13.00">
<path class="stroke" stroke-width="1"
	d="M11.54 324.00v-82.00"/>
<path class="fill"
	d="M6.54 239.00
	c10.5 1 12 -4.5 12 -3.5c0 1 -3.5 5.5 -8.5 5.5
	v84.00
	c5 0 8.5 4.5 8.5 5.5c0 1 -1.5 -4.5 -12 -3.5"/>
<use x="143.74" y="266.00" xlink:href="#rdots"/>
<path class="stroke" stroke-width="1"
	d="M139.74 266.00v-24.00"/>
<path class="stroke" stroke-width="3"
	d="M135.24 266.00v-24.00"/>
<use x="143.74" y="324.00" xlink:href="#rdots"/>
<path class="stroke" stroke-width="1"
	d="M139.74 324.00v-58.00"/>
<path class="stroke" stroke-width="3"
	d="M135.24 324.00v-58.00"/>
<path class="stroke" stroke-width="1"
	d="M240.64 266.00v-24.00"/>
<path class="stroke" stroke-width="1"
	d="M240.64 324.00v-58.00"/>
<path class="stroke" stroke-width="1"
	d="M321.34 266.00v-24.00"/>
<path class="stroke" stroke-width="1"
	d="M321.34 324.00v-58.00"/>
<path class="stroke" stroke-width="1"
	d="M402.64 266.00v-24.00"/>
<path class="stroke" stroke-width="1"
	d="M402.64 324.00v-58.00"/>
<path class="stroke" stroke-width="1"
	d="M491.24 266.00v-24.00"/>
<path class="stroke" stroke-width="1"
	d="M491.24 324.00v-58.00"/>
<path class="stroke" stroke-width="1"
	d="M590.14 266.00v-24.00"/>
<path class="stroke" stroke-width="1"
	d="M590.14 324.00v-58.00"/>
<path class="stroke" stroke-width="1"
	d="M688.94 266.00v-24.00"/>
<path class="stroke" stroke-width="1"
	d="M688.94 324.00v-58.00"/>
<path class="stroke" stroke-width="1"
	d="M787.84 266.00v-24.00"/>
<path class="stroke" stroke-width="1"
	d="M787.84 324.00v-58.00"/>
<path class="stroke" stroke-width="3"
	d="M860.54 266.00v-24.00"/>
<path class="stroke" stroke-width="1"
	d="M856.04 266.00v-24.00"/>
<use x="852.04" y="266.00" xlink:href="#rdots"/>
<path class="stroke" stroke-width="3"
	d="M860.54 324.00v-58.00"/>
<path class="stroke" stroke-width="1"
	d="M856.04 324.00v-58.00"/>
<use x="852.04" y="324.00" xlink:href="#rdots"/>
<path d="m11.54 266.00
	h850.50
	M11.54 260.00
	h850.50
	M11.54 254.00
	h850.50
	M11.54 248.00
	h850.50
	M11.54 242.00
	h850.50
	" class="stroke"/>
<path d="m11.54 324.00
	h850.50
	M11.54 318.00
	h850.50
	M11.54 312.00
	h850.50
	M11.54 306.00
	h850.50
	M11.54 300.00
	h850.50
	" class="stroke"/>
<text x="47.54" y="227.40">2</text>
<path class="stroke"
	d="M43.54 216.00m0 20v-20h89.20v20"/>
<use x="23.54" y="260.00" xlink:href="#tclef"/>
<use x="56.04" y="239.00" xlink:href="#hd"/>
<path d="M52.54 239.00v40.00" class="stroke"/>
<use x="56.04" y="260.00" xlink:href="#hd"/>
<use x="56.04" y="254.00" xlink:href="#hd"/>
<use x="56.04" y="248.00" xlink:href="#hd"/>
<use x="109.44" y="254.00" xlink:href="#r8"/>
<path class="fill"
	d="M159.34 268.00l65.60 0.00v-3.20l-65.60 -0.00"/>
<path class="fill"
	d="M180.34 263.00l44.30 0.00v-3.20l-44.30 -0.00"/>
<use x="163.24" y="242.00" xlink:href="#hd"/>
<use x="154.24" y="242.00" xlink:href="#sh0"/>
<path d="M159.74 242.00v25.00" class="stroke"/>
<use x="183.84" y="236.00" xlink:href="#hl"/>
<use x="183.84" y="236.00" xlink:href="#hd"/>
<path d="M180.34 236.00v31.00" class="stroke"/>
<use x="198.54" y="242.00" xlink:href="#hd"/>
<path d="M195.04 242.00v25.00" class="stroke"/>
<use x="213.34" y="248.00" xlink:href="#hd"/>
<path d="M209.84 248.00v19.00" class="stroke"/>
<use x="228.14" y="242.00" xlink:href="#hd"/>
<path d="M224.64 242.00v25.00" class="stroke"/>
<use x="253.14" y="239.00" xlink:href="#hd"/>
<path d="M249.64 239.00v21.00" class="stroke"/>
<path class="fill"
	d="M249.64 260.00c0.6 -5.6 9.6 -9 5.6 -18.4
	1.6 6 -1.3 11.6 -5.6 12.8
"/>
<use x="284.24" y="248.00" xlink:href="#hd"/>
<path d="M280.74 248.00v21.00" class="stroke"/>
<path class="fill"
	d="M329.94 273.50l30.20 5.70v-3.20l-30.20 -5.70"/>
<path class="fill"
	d="M330.34 268.60l14.80 2.80v-3.20l-14.80 -2.80"/>
<use x="333.84" y="245.00" xlink:href="#hd"/>
<path d="M330.34 245.00v27.60" class="stroke"/>
<use x="348.54" y="251.00" xlink:href="#hd"/>
<path d="M345.04 251.00v24.40" class="stroke"/>
<use x="363.34" y="260.00" xlink:href="#hd"/>
<path d="M359.84 260.00v18.20" class="stroke"/>
<use x="386.14" y="245.00" xlink:href="#hd"/>
<path d="M382.64 245.00v21.00" class="stroke"/>
<path class="fill"
	d="M382.64 266.00c0.6 -5.6 9.6 -9 5.6 -18.4
	1.6 6 -1.3 11.6 -5.6 12.8
"/>
<path class="fill"
	d="M411.24 274.00l59.80 0.00v-3.20l-59.80 -0.00"/>
<path class="fill"
	d="M411.64 269.00l44.30 0.00v-3.20l-44.30 -0.00"/>
<use x="415.14" y="254.00" xlink:href="#hd"/>
<path d="M411.64 254.00v18.90" class="stroke"/>
<use x="429.94" y="248.00" xlink:href="#hd"/>
<path d="M426.44 248.00v24.90" class="stroke"/>
<use x="444.64" y="239.00" xlink:href="#hd"/>
<path d="M441.14 239.00v33.90" class="stroke"/>
<use x="459.44" y="248.00" xlink:href="#hd"/>
<path d="M455.94 248.00v24.90" class="stroke"/>
<use x="474.24" y="254.00" xlink:href="#hd"/>
<path d="M470.74 254.00v18.90" class="stroke"/>
<path class="fill"
	d="M499.84 280.80l59.80 -3.20v-3.20l-59.80 3.20"/>
<use x="503.74" y="251.00" xlink:href="#hd"/>
<path d="M500.24 251.00v28.80" class="stroke"/>
<use x="533.24" y="260.00" xlink:href="#hd"/>
<path d="M529.74 260.00v18.20" class="stroke"/>
<use x="562.84" y="245.00" xlink:href="#hd"/>
<path d="M559.34 245.00v31.60" class="stroke"/>
<path class="fill"
	d="M598.74 268.60l59.80 3.20v-3.20l-59.80 -3.20"/>
<use x="602.64" y="239.00" xlink:href="#hd"/>
<path d="M599.14 239.00v28.60" class="stroke"/>
<use x="632.14" y="251.00" xlink:href="#hd"/>
<path d="M628.64 251.00v18.20" class="stroke"/>
<use x="661.64" y="245.00" xlink:href="#hd"/>
<path d="M658.14 245.00v25.80" class="stroke"/>
<path class="fill"
	d="M697.64 279.20l74.50 0.00v-3.20l-74.50 -0.00"/>
<path class="fill"
	d="M697.94 274.20l73.90 0.00v-3.20l-73.90 -0.00"/>
<use x="701.44" y="248.00" xlink:href="#hd"/>
<path d="M697.94 248.00v30.20" class="stroke"/>
<use x="716.24" y="242.00" xlink:href="#hd"/>
<path d="M712.74 242.00v36.20" class="stroke"/>
<use x="731.04" y="257.00" xlink:href="#hd"/>
<path d="M727.54 257.00v21.20" class="stroke"/>
<use x="745.74" y="248.00" xlink:href="#hd"/>
<path d="M742.24 248.00v30.20" class="stroke"/>
<use x="760.54" y="254.00" xlink:href="#hd"/>
<path d="M757.04 254.00v24.20" class="stroke"/>
<use x="775.34" y="248.00" xlink:href="#hd"/>
<path d="M771.84 248.00v30.20" class="stroke"/>
<use x="800.34" y="251.00" xlink:href="#hd"/>
<path d="M796.84 251.00v21.00" class="stroke"/>
<use x="841.54" y="254.00" xlink:href="#r8"/>
<use x="23.54" y="306.00" xlink:href="#bclef"/>
<path class="fill"
	d="M52.24 343.20l68.80 -5.00v-3.20l-68.80 5.00"/>
<path class="fill"
	d="M73.14 336.70l47.50 -3.50v-3.20l-47.50 3.50"/>
<use x="56.04" y="324.00" xlink:href="#hd"/>
<path d="M52.54 324.00v18.20" class="stroke"/>
<use x="76.64" y="297.00" xlink:href="#hd"/>
<path d="M73.14 297.00v43.70" class="stroke"/>
<use x="91.44" y="303.00" xlink:href="#hd"/>
<path d="M87.94 303.00v36.60" class="stroke"/>
<use x="109.44" y="306.00" xlink:href="#hd"/>
<use x="100.44" y="306.00" xlink:href="#sh0"/>
<path d="M105.94 306.00v32.30" class="stroke"/>
<use x="124.24" y="309.00" xlink:href="#hd"/>
<path d="M120.74 309.00v28.20" class="stroke"/>
<use x="163.24" y="312.00" xlink:href="#hd"/>
<path d="M166.74 312.00v-21.00" class="stroke"/>
<use x="213.34" y="315.00" xlink:href="#hd"/>
<path d="M216.84 315.00v-21.00" class="stroke"/>
<path class="fill"
	d="M216.84 294.00c0.6 5.6 9.6 9 5.6 18.4
	1.6 -6 -1.3 -11.6 -5.6 -12.8
"/>
<path class="fill"
	d="M249.24 346.30l52.40 -10.60v-3.20l-52.40 10.60"/>
<path class="fill"
	d="M249.64 341.20l14.80 -3.00v-3.20l-14.80 3.00"/>
<use x="253.14" y="324.00" xlink:href="#hd"/>
<path d="M249.64 324.00v21.20" class="stroke"/>
<use x="267.94" y="318.00" xlink:href="#hd"/>
<path d="M264.44 318.00v24.20" class="stroke"/>
<use x="284.24" y="303.00" xlink:href="#hd"/>
<path d="M280.74 303.00v35.90" class="stroke"/>
<use x="304.84" y="297.00" xlink:href="#hd"/>
<path d="M301.34 297.00v37.80" class="stroke"/>
<use x="333.84" y="303.00" xlink:href="#hd"/>
<path d="M330.34 303.00v31.00" class="stroke"/>
<use x="333.84" y="315.00" xlink:href="#hd"/>
<use x="386.14" y="303.00" xlink:href="#hd"/>
<path d="M382.64 303.00v31.00" class="stroke"/>
<path class="fill"
	d="M382.64 334.00c0.6 -5.6 9.6 -9 5.6 -18.4
	1.6 6 -1.3 11.6 -5.6 12.8
"/>
<use x="386.14" y="315.00" xlink:href="#hd"/>
<use x="415.14" y="303.00" xlink:href="#hd"/>
<path d="M411.64 303.00v21.00" class="stroke"/>
<use x="474.24" y="324.00" xlink:href="#hd"/>
<path d="M477.74 324.00v-21.00" class="stroke"/>
<path class="fill"
	d="M477.74 303.00c0.6 5.6 9.6 9 5.6 18.4
	1.6 -6 -1.3 -11.6 -5.6 -12.8
"/>
<path class="fill"
	d="M499.84 331.90l74.50 0.00v-3.20l-74.50 -0.00"/>
<path class="fill"
	d="M500.24 326.90l73.90 0.00v-3.20l-73.90 -0.00"/>
<use x="503.74" y="309.00" xlink:href="#hd"/>
<path d="M500.24 309.00v21.90" class="stroke"/>
<use x="503.74" y="315.00" xlink:href="#hd"/>
<use x="518.54" y="303.00" xlink:href="#hd"/>
<path d="M515.04 303.00v27.90" class="stroke"/>
<use x="533.24" y="309.00" xlink:href="#hd"/>
<path d="M529.74 309.00v21.90" class="stroke"/>
<use x="533.24" y="315.00" xlink:href="#hd"/>
<use x="548.04" y="303.00" xlink:href="#hd"/>
<path d="M544.54 303.00v27.90" class="stroke"/>
<use x="562.84" y="309.00" xlink:href="#hd"/>
<path d="M559.34 309.00v21.90" class="stroke"/>
<use x="562.84" y="315.00" xlink:href="#hd"/>
<use x="577.64" y="303.00" xlink:href="#hd"/>
<path d="M574.14 303.00v27.90" class="stroke"/>
<path class="fill"
	d="M598.74 331.90l74.50 0.00v-3.20l-74.50 -0.00"/>
<path class="fill"
	d="M599.14 326.90l73.90 0.00v-3.20l-73.90 -0.00"/>
<use x="602.64" y="309.00" xlink:href="#hd"/>
<path d="M599.14 309.00v21.90" class="stroke"/>
<use x="602.64" y="315.00" xlink:href="#hd"/>
<use x="617.34" y="303.00" xlink:href="#hd"/>
<path d="M613.84 303.00v27.90" class="stroke"/>
<use x="632.14" y="309.00" xlink:href="#hd"/>
<path d="M628.64 309.00v21.90" class="stroke"/>
<use x="632.14" y="315.00" xlink:href="#hd"/>
<use x="646.94" y="303.00" xlink:href="#hd"/>
<path d="M643.44 303.00v27.90" class="stroke"/>
<use x="661.64" y="309.00" xlink:href="#hd"/>
<path d="M658.14 309.00v21.90" class="stroke"/>
<use x="661.64" y="315.00" xlink:href="#hd"/>
<use x="676.44" y="303.00" xlink:href="#hd"/>
<path d="M672.94 303.00v27.90" class="stroke"/>
<use x="701.44" y="306.00" xlink:href="#hd"/>
<path d="M697.94 306.00v21.00" class="stroke"/>
<use x="760.54" y="303.00" xlink:href="#hd"/>
<path d="M757.04 303.00v21.00" class="stroke"/>
<path class="fill"
	d="M757.04 324.00c0.6 -5.6 9.6 -9 5.6 -18.4
	1.6 6 -1.3 11.6 -5.6 12.8
"/>
<path class="fill"
	d="M803.54 295.70l41.90 9.80v3.20l-41.90 -9.80"/>
<use x="800.34" y="315.00" xlink:href="#hd"/>
<path d="M803.84 315.00v-18.20" class="stroke"/>
<use x="820.94" y="324.00" xlink:href="#hd"/>
<path d="M824.44 324.00v-22.40" class="stroke"/>
<use x="841.54" y="330.00" xlink:href="#hl"/>
<use x="841.54" y="336.00" xlink:href="#hl"/>
<use x="841.54" y="336.00" xlink:href="#hd"/>
<path d="M845.04 336.00v-29.60" class="stroke"/>
<defs>
<text id="trl" font-family="serif" font-size="16" font-style="italic"
	x="-2" y="-4">tr</text>
</defs>
<use x="284.24" y="240.00" xlink:href="#trl"/>
</g>
</svg>
