<?xml version="1.0" standalone="no"?>
<!DOCTYPE svg PUBLIC "-//W3C//DTD SVG 1.1//EN"
	"http://www.w3.org/Graphics/SVG/1.1/DTD/svg11.dtd">
<svg xmlns="http://www.w3.org/2000/svg" version="1.1"
	xmlns:xlink="http://www.w3.org/1999/xlink"
	color="black"
	width="757.10px" height="307.67px">
<style type="text/css">
.fill {fill: currentColor}
.stroke {stroke: currentColor; fill: none}
text{white-space: pre}
</style>
<title>./K516f-6-5-9-5-12-11-3-9-10-8-4-10-10-2-9-4.abc (2441) tune 1</title>
<!-- Creator: abcm2ps-8.13.8 -->
<!-- CreationDate: Sep  7, 2017 11:18 -->
<!-- CommandLine: ./K516f-6-5-9-5-12-11-3-9-10-8-4-10-10-2-9-4.abc -O ./K516f-6-5-9-5-12-11-3-9-10-8-4-10-10-2-9-4.svg -g -->
<rect width="100%" height="100%" fill="white"/>
<g stroke-width="0.70" transform="scale(0.867)">
<!-- title: 6-5-9-5-12-11-3-9-10-8-4-10-10-2-9-4 -->
</g>
<g stroke-width="0.70" transform="scale(0.867)" font-family="Times" font-size="20.00">
<text x="436.84" y="22.00" text-anchor="middle">6-5-9-5-12-11-3-9-10-8-4-10-10-2-9-4</text>
</g>
<g stroke-width="0.70" transform="scale(0.867)" font-family="Times" font-size="20.00">
<!-- subtitle: $1K.516f::148:17:114:85:28:47:134:94:65:155:15:82:137:49:72:79::$0 -->
</g>
<g stroke-width="0.70" transform="scale(0.867)" font-family="Courier" font-size="8.00" font-weight="bold">
<text x="436.84" y="41.80" text-anchor="middle">K.516f::148:17:114:85:28:47:134:94:65:155:15:82:137:49:72:79::</text>
</g>
<g stroke-width="0.70" transform="scale(0.867)" font-family="Courier" font-size="8.00" font-weight="bold">
<!-- subtitle: $1Perm. No.: 244155139087557$0 -->
<text x="436.84" y="60.80" text-anchor="middle">Perm. No.: 244155139087557</text>
</g>
<g stroke-width="0.70" transform="scale(0.607)" font-family="Courier" font-size="8.00" font-weight="bold">
<defs>
<ellipse id="hd" rx="4.1" ry="2.9"
	transform="rotate(-20)" class="fill"/>
</defs>
<use x="103.06" y="121.29" xlink:href="#hd"/>
<path d="M106.56 121.29v-21.00" class="stroke"/>
<path class="fill"
	d="M106.56 100.29c0.6 5.6 9.6 9 5.6 18.4
	1.6 -6 -1.3 -11.6 -5.6 -12.8
"/>
</g>
<g stroke-width="0.70" transform="scale(0.867)" font-family="Times" font-size="15.00" font-weight="bold">
<text x="81.24" y="87.00">= 111</text>
<path class="stroke" stroke-width="1"
	d="M11.54 191.00v-82.00"/>
<path class="fill"
	d="M6.54 106.00
	c10.5 1 12 -4.5 12 -3.5c0 1 -3.5 5.5 -8.5 5.5
	v84.00
	c5 0 8.5 4.5 8.5 5.5c0 1 -1.5 -4.5 -12 -3.5"/>
<defs>
<g id="rdots" class="fill">
	<circle cx="0" cy="-9" r="1.2"/>
	<circle cx="0" cy="-15" r="1.2"/>
</g>
</defs>
<use x="70.54" y="133.00" xlink:href="#rdots"/>
<path class="stroke" stroke-width="1"
	d="M66.54 133.00v-24.00"/>
<path class="stroke" stroke-width="3"
	d="M62.04 133.00v-24.00"/>
<use x="70.54" y="191.00" xlink:href="#rdots"/>
<path class="stroke" stroke-width="1"
	d="M66.54 191.00v-58.00"/>
<path class="stroke" stroke-width="3"
	d="M62.04 191.00v-58.00"/>
<path class="stroke" stroke-width="1"
	d="M180.74 133.00v-24.00"/>
<path class="stroke" stroke-width="1"
	d="M180.74 191.00v-58.00"/>
<path class="stroke" stroke-width="1"
	d="M289.94 133.00v-24.00"/>
<path class="stroke" stroke-width="1"
	d="M289.94 191.00v-58.00"/>
<path class="stroke" stroke-width="1"
	d="M368.14 133.00v-24.00"/>
<path class="stroke" stroke-width="1"
	d="M368.14 191.00v-58.00"/>
<path class="stroke" stroke-width="1"
	d="M446.44 133.00v-24.00"/>
<path class="stroke" stroke-width="1"
	d="M446.44 191.00v-58.00"/>
<path class="stroke" stroke-width="1"
	d="M560.84 133.00v-24.00"/>
<path class="stroke" stroke-width="1"
	d="M560.84 191.00v-58.00"/>
<path class="stroke" stroke-width="1"
	d="M648.94 133.00v-24.00"/>
<path class="stroke" stroke-width="1"
	d="M648.94 191.00v-58.00"/>
<path class="stroke" stroke-width="1"
	d="M759.44 133.00v-24.00"/>
<path class="stroke" stroke-width="1"
	d="M759.44 191.00v-58.00"/>
<path class="stroke" stroke-width="3"
	d="M860.54 133.00v-24.00"/>
<path class="stroke" stroke-width="1"
	d="M856.04 133.00v-24.00"/>
<use x="852.04" y="133.00" xlink:href="#rdots"/>
<path class="stroke" stroke-width="3"
	d="M860.54 191.00v-58.00"/>
<path class="stroke" stroke-width="1"
	d="M856.04 191.00v-58.00"/>
<use x="852.04" y="191.00" xlink:href="#rdots"/>
<path d="m11.54 133.00
	h850.50
	M11.54 127.00
	h850.50
	M11.54 121.00
	h850.50
	M11.54 115.00
	h850.50
	M11.54 109.00
	h850.50
	" class="stroke"/>
<path d="m11.54 191.00
	h850.50
	M11.54 185.00
	h850.50
	M11.54 179.00
	h850.50
	M11.54 173.00
	h850.50
	M11.54 167.00
	h850.50
	" class="stroke"/>
</g>
<g stroke-width="0.70" transform="scale(0.867)" font-family="Times" font-size="13.00">
<text x="763.44" y="94.40">1</text>
<path class="stroke"
	d="M759.44 83.00m0 20v-20h94.60v20"/>
<defs>
<path id="utclef" class="fill" d="m-50 -90
	c-72 -41 -72 -158 52 -188
	150 -10 220 188 90 256
	-114 52 -275 0 -293 -136
	-15 -181 93 -229 220 -334
	88 -87 79 -133 62 -210
	-51 33 -94 105 -89 186
	17 267 36 374 49 574
	6 96 -19 134 -77 135
	-80 1 -126 -93 -61 -133
	85 -41 133 101 31 105
	23 17 92 37 90 -92
	-10 -223 -39 -342 -50 -617
	0 -90 0 -162 96 -232
	56 72 63 230 22 289
	-74 106 -257 168 -255 316
	9 153 148 185 252 133
	86 -65 29 -192 -80 -176
	-71 12 -105 67 -59 124"/>
<use id="tclef" transform="translate(0,6) scale(0.045)"
	xlink:href="#utclef"/>
</defs>
<use x="23.54" y="127.00" xlink:href="#tclef"/>
<g font-family="serif" font-size="16" font-weight="bold" font-style="normal"
	transform="translate(42.04,132.50) scale(1.2,1)">
	<text text-anchor="middle">8</text>
	<text y="-12" text-anchor="middle">3</text>
</g>
<path class="fill"
	d="M80.84 130.60l83.70 9.60v-3.20l-83.70 -9.60"/>
<path class="fill"
	d="M81.24 125.70l83.00 9.50v-3.20l-83.00 -9.50"/>
<defs>
<path id="hl" class="stroke" d="m-6 0h12"/>
</defs>
<use x="84.74" y="103.00" xlink:href="#hl"/>
<use x="84.74" y="97.00" xlink:href="#hl"/>
<use x="84.74" y="97.00" xlink:href="#hd"/>
<path d="M81.24 97.00v32.70" class="stroke"/>
<use x="101.34" y="103.00" xlink:href="#hl"/>
<use x="101.34" y="100.00" xlink:href="#hd"/>
<path d="M97.84 100.00v31.60" class="stroke"/>
<use x="117.94" y="103.00" xlink:href="#hl"/>
<use x="117.94" y="97.00" xlink:href="#hl"/>
<use x="117.94" y="97.00" xlink:href="#hd"/>
<path d="M114.44 97.00v36.50" class="stroke"/>
<use x="134.54" y="106.00" xlink:href="#hd"/>
<path d="M131.04 106.00v29.40" class="stroke"/>
<use x="151.14" y="112.00" xlink:href="#hd"/>
<path d="M147.64 112.00v25.30" class="stroke"/>
<use x="167.74" y="118.00" xlink:href="#hd"/>
<path d="M164.24 118.00v21.20" class="stroke"/>
<path class="fill"
	d="M190.14 149.20l83.60 0.00v-3.20l-83.60 -0.00"/>
<path class="fill"
	d="M190.44 144.20l82.90 0.00v-3.20l-82.90 -0.00"/>
<use x="193.94" y="118.00" xlink:href="#hd"/>
<path d="M190.44 118.00v30.20" class="stroke"/>
<use x="210.54" y="127.00" xlink:href="#hd"/>
<path d="M207.04 127.00v21.20" class="stroke"/>
<use x="227.14" y="118.00" xlink:href="#hd"/>
<path d="M223.64 118.00v30.20" class="stroke"/>
<use x="243.74" y="112.00" xlink:href="#hd"/>
<path d="M240.24 112.00v36.20" class="stroke"/>
<use x="260.34" y="127.00" xlink:href="#hd"/>
<path d="M256.84 127.00v21.20" class="stroke"/>
<use x="276.84" y="118.00" xlink:href="#hd"/>
<path d="M273.34 118.00v30.20" class="stroke"/>
<path class="fill"
	d="M299.24 140.00l47.40 0.00v-3.20l-47.40 -0.00"/>
<use x="303.14" y="115.00" xlink:href="#hd"/>
<path d="M299.64 115.00v24.00" class="stroke"/>
<use x="303.14" y="121.00" xlink:href="#hd"/>
<use x="326.44" y="115.00" xlink:href="#hd"/>
<path d="M322.94 115.00v24.00" class="stroke"/>
<use x="326.44" y="121.00" xlink:href="#hd"/>
<use x="349.84" y="115.00" xlink:href="#hd"/>
<path d="M346.34 115.00v24.00" class="stroke"/>
<use x="349.84" y="121.00" xlink:href="#hd"/>
<path class="fill"
	d="M377.54 141.80l47.40 4.50v-3.20l-47.40 -4.50"/>
<use x="381.34" y="118.00" xlink:href="#hd"/>
<path d="M377.84 118.00v22.80" class="stroke"/>
<use x="404.74" y="112.00" xlink:href="#hd"/>
<path d="M401.24 112.00v31.00" class="stroke"/>
<use x="428.04" y="127.00" xlink:href="#hd"/>
<path d="M424.54 127.00v18.20" class="stroke"/>
<path class="fill"
	d="M461.04 146.20l83.60 0.00v-3.20l-83.60 -0.00"/>
<path class="fill"
	d="M461.44 141.20l82.90 0.00v-3.20l-82.90 -0.00"/>
<use x="464.94" y="109.00" xlink:href="#hd"/>
<defs>
<path id="usharp" class="fill" d="
	m136 -702
	v890
	h32
	v-890
	m128 840
	h32
	v-888
	h-32
	m-232 286
	v116
	l338 -96
	v-116
	m-338 442
	v116
	l338 -98
	v-114"/>
<use id="sh0" transform="translate(-4,5) scale(0.018)"
	xlink:href="#usharp"/>
</defs>
<use x="455.94" y="109.00" xlink:href="#sh0"/>
<path d="M461.44 109.00v36.20" class="stroke"/>
<use x="481.54" y="115.00" xlink:href="#hd"/>
<path d="M478.04 115.00v30.20" class="stroke"/>
<use x="498.04" y="124.00" xlink:href="#hd"/>
<path d="M494.54 124.00v21.20" class="stroke"/>
<use x="514.64" y="103.00" xlink:href="#hl"/>
<use x="514.64" y="103.00" xlink:href="#hd"/>
<path d="M511.14 103.00v42.20" class="stroke"/>
<use x="531.24" y="109.00" xlink:href="#hd"/>
<path d="M527.74 109.00v36.20" class="stroke"/>
<use x="547.84" y="115.00" xlink:href="#hd"/>
<path d="M544.34 115.00v30.20" class="stroke"/>
<path class="fill"
	d="M570.24 134.90l57.20 0.00v-3.20l-57.20 -0.00"/>
<path class="fill"
	d="M593.94 129.90l16.60 0.00v-3.20l-16.60 -0.00"/>
<use x="574.04" y="106.00" xlink:href="#hd"/>
<path d="M570.54 106.00v28.00" class="stroke"/>
<use x="597.44" y="106.00" xlink:href="#hd"/>
<path d="M593.94 106.00v28.00" class="stroke"/>
<use x="614.04" y="115.00" xlink:href="#hd"/>
<path d="M610.54 115.00v19.00" class="stroke"/>
<use x="630.64" y="103.00" xlink:href="#hl"/>
<use x="630.64" y="100.00" xlink:href="#hd"/>
<path d="M627.14 100.00v34.00" class="stroke"/>
<path class="fill"
	d="M658.24 148.20l85.00 0.00v-3.20l-85.00 -0.00"/>
<path class="fill"
	d="M658.64 143.20l84.30 0.00v-3.20l-84.30 -0.00"/>
<use x="662.14" y="124.00" xlink:href="#hd"/>
<path d="M658.64 124.00v23.20" class="stroke"/>
<use x="678.64" y="112.00" xlink:href="#hd"/>
<path d="M675.14 112.00v35.20" class="stroke"/>
<use x="695.24" y="115.00" xlink:href="#hd"/>
<path d="M691.74 115.00v32.20" class="stroke"/>
<use x="695.24" y="121.00" xlink:href="#hd"/>
<use x="711.84" y="118.00" xlink:href="#hd"/>
<path d="M708.34 118.00v29.20" class="stroke"/>
<use x="711.84" y="124.00" xlink:href="#hd"/>
<use x="728.44" y="121.00" xlink:href="#hd"/>
<path d="M724.94 121.00v26.20" class="stroke"/>
<use x="728.44" y="127.00" xlink:href="#hd"/>
<use x="746.44" y="124.00" xlink:href="#hd"/>
<path d="M742.94 124.00v23.20" class="stroke"/>
<use x="746.44" y="130.00" xlink:href="#hd"/>
<use x="737.44" y="130.00" xlink:href="#sh0"/>
<use x="772.64" y="106.00" xlink:href="#hd"/>
<path d="M769.14 106.00v40.00" class="stroke"/>
<use x="772.64" y="127.00" xlink:href="#hd"/>
<use x="772.64" y="121.00" xlink:href="#hd"/>
<use x="772.64" y="115.00" xlink:href="#hd"/>
<defs>
<path id="r8e" class="fill" d="m 0 0
	c-1.5 1.5 -2.4 2 -3.6 2
	2.4 -2.8 -2.8 -4 -2.8 -1.2
	c0 2.7 4.3 2.4 5.9 0.6"/>
<g id="r8">
	<path d="m3.3 -4l-3.4 9.6" class="stroke"/>
	<use x="3.4" y="-4" xlink:href="#r8e"/>
</g>
</defs>
<use x="830.64" y="121.00" xlink:href="#r8"/>
<defs>
<path id="ubclef" class="fill" d="m-200 -87
	c124 -35 222 -78 254 -236
	43 -228 -167 -246 -192 -103
	59 -80 157 22 92 78
	-62 47 -115 -22 -106 -88
	21 -141 270 -136 274 52
	-1 175 -106 264 -322 297
	m357 -250
	c0 -36 51 -34 51 0
	0 37 -51 36 -51 0
	m-2 -129
	c0 -36 51 -34 51 0
	0 38 -51 37 -51 0"/>
<use id="bclef" transform="translate(0,18) scale(0.045)"
	xlink:href="#ubclef"/>
</defs>
<use x="23.54" y="173.00" xlink:href="#bclef"/>
<g font-family="serif" font-size="16" font-weight="bold" font-style="normal"
	transform="translate(42.04,190.50) scale(1.2,1)">
	<text text-anchor="middle">8</text>
	<text y="-12" text-anchor="middle">3</text>
</g>
<use x="84.74" y="176.00" xlink:href="#hd"/>
<path d="M81.24 176.00v25.00" class="stroke"/>
<use x="84.74" y="182.00" xlink:href="#hd"/>
<use x="151.14" y="179.00" xlink:href="#r8"/>
<use x="193.94" y="170.00" xlink:href="#hd"/>
<path d="M190.44 170.00v25.00" class="stroke"/>
<use x="193.94" y="176.00" xlink:href="#hd"/>
<use x="260.34" y="179.00" xlink:href="#r8"/>
<path class="fill"
	d="M299.24 191.20l47.40 0.00v-3.20l-47.40 -0.00"/>
<use x="303.14" y="170.00" xlink:href="#hd"/>
<path d="M299.64 170.00v20.20" class="stroke"/>
<use x="326.44" y="170.00" xlink:href="#hd"/>
<path d="M322.94 170.00v20.20" class="stroke"/>
<use x="349.84" y="170.00" xlink:href="#hd"/>
<path d="M346.34 170.00v20.20" class="stroke"/>
<use x="381.34" y="170.00" xlink:href="#hd"/>
<path d="M377.84 170.00v25.00" class="stroke"/>
<use x="381.34" y="176.00" xlink:href="#hd"/>
<use x="428.04" y="179.00" xlink:href="#r8"/>
<use x="464.94" y="167.00" xlink:href="#hd"/>
<path d="M461.44 167.00v34.00" class="stroke"/>
<use x="464.94" y="182.00" xlink:href="#hd"/>
<use x="531.24" y="179.00" xlink:href="#r8"/>
<use x="574.04" y="185.00" xlink:href="#hd"/>
<path d="M577.54 185.00v-25.00" class="stroke"/>
<use x="574.04" y="179.00" xlink:href="#hd"/>
<use x="630.64" y="179.00" xlink:href="#r8"/>
<path class="fill"
	d="M665.24 155.70l67.00 8.20v3.20l-67.00 -8.20"/>
<use x="662.14" y="182.00" xlink:href="#hd"/>
<path d="M665.64 182.00v-25.30" class="stroke"/>
<use x="695.24" y="179.00" xlink:href="#hd"/>
<path d="M698.74 179.00v-18.20" class="stroke"/>
<use x="728.44" y="197.00" xlink:href="#hl"/>
<use x="728.44" y="200.00" xlink:href="#hd"/>
<path d="M731.94 200.00v-35.10" class="stroke"/>
<path class="fill"
	d="M768.84 210.20l75.20 0.00v-3.20l-75.20 -0.00"/>
<path class="fill"
	d="M792.54 205.20l51.20 0.00v-3.20l-51.20 -0.00"/>
<use x="772.64" y="191.00" xlink:href="#hd"/>
<path d="M769.14 191.00v18.20" class="stroke"/>
<use x="796.04" y="170.00" xlink:href="#hd"/>
<path d="M792.54 170.00v39.20" class="stroke"/>
<use x="814.04" y="173.00" xlink:href="#hd"/>
<defs>
<path id="unat" class="fill" d="
	m96 -750
	h-32
	v716
	l32 -8
	182 -54
	v282
	h32
	v-706
	l-34 10
	-180 50
	v-290
	m0 592
	v-190
	l182 -52
	v188"/>
<use id="nt0" transform="translate(-3,5) scale(0.018)"
	xlink:href="#unat"/>
</defs>
<use x="805.04" y="173.00" xlink:href="#nt0"/>
<path d="M810.54 173.00v36.20" class="stroke"/>
<use x="830.64" y="176.00" xlink:href="#hd"/>
<path d="M827.14 176.00v33.20" class="stroke"/>
<use x="847.24" y="179.00" xlink:href="#hd"/>
<path d="M843.74 179.00v30.20" class="stroke"/>
</g>
<g stroke-width="0.70" transform="scale(0.867)" font-family="Times" font-size="13.00">
<path class="stroke" stroke-width="1"
	d="M11.54 332.00v-90.00"/>
<path class="fill"
	d="M6.54 239.00
	c10.5 1 12 -4.5 12 -3.5c0 1 -3.5 5.5 -8.5 5.5
	v92.00
	c5 0 8.5 4.5 8.5 5.5c0 1 -1.5 -4.5 -12 -3.5"/>
<use x="143.94" y="266.00" xlink:href="#rdots"/>
<path class="stroke" stroke-width="1"
	d="M139.94 266.00v-24.00"/>
<path class="stroke" stroke-width="3"
	d="M135.44 266.00v-24.00"/>
<use x="143.94" y="332.00" xlink:href="#rdots"/>
<path class="stroke" stroke-width="1"
	d="M139.94 332.00v-66.00"/>
<path class="stroke" stroke-width="3"
	d="M135.44 332.00v-66.00"/>
<path class="stroke" stroke-width="1"
	d="M231.14 266.00v-24.00"/>
<path class="stroke" stroke-width="1"
	d="M231.14 332.00v-66.00"/>
<path class="stroke" stroke-width="1"
	d="M330.44 266.00v-24.00"/>
<path class="stroke" stroke-width="1"
	d="M330.44 332.00v-66.00"/>
<path class="stroke" stroke-width="1"
	d="M409.84 266.00v-24.00"/>
<path class="stroke" stroke-width="1"
	d="M409.84 332.00v-66.00"/>
<path class="stroke" stroke-width="1"
	d="M489.84 266.00v-24.00"/>
<path class="stroke" stroke-width="1"
	d="M489.84 332.00v-66.00"/>
<path class="stroke" stroke-width="1"
	d="M589.04 266.00v-24.00"/>
<path class="stroke" stroke-width="1"
	d="M589.04 332.00v-66.00"/>
<path class="stroke" stroke-width="1"
	d="M688.34 266.00v-24.00"/>
<path class="stroke" stroke-width="1"
	d="M688.34 332.00v-66.00"/>
<path class="stroke" stroke-width="1"
	d="M787.64 266.00v-24.00"/>
<path class="stroke" stroke-width="1"
	d="M787.64 332.00v-66.00"/>
<path class="stroke" stroke-width="3"
	d="M860.54 266.00v-24.00"/>
<path class="stroke" stroke-width="1"
	d="M856.04 266.00v-24.00"/>
<use x="852.04" y="266.00" xlink:href="#rdots"/>
<path class="stroke" stroke-width="3"
	d="M860.54 332.00v-66.00"/>
<path class="stroke" stroke-width="1"
	d="M856.04 332.00v-66.00"/>
<use x="852.04" y="332.00" xlink:href="#rdots"/>
<path d="m11.54 266.00
	h850.50
	M11.54 260.00
	h850.50
	M11.54 254.00
	h850.50
	M11.54 248.00
	h850.50
	M11.54 242.00
	h850.50
	" class="stroke"/>
<path d="m11.54 332.00
	h850.50
	M11.54 326.00
	h850.50
	M11.54 320.00
	h850.50
	M11.54 314.00
	h850.50
	M11.54 308.00
	h850.50
	" class="stroke"/>
<path class="fill"
	d="M605.54 241.40c8.34 -3.20 47.07 2.11 55.41 7.60
	v-0.26c-10.00 -7.24 -45.40 -12.55 -55.41 -7.34"/>
<text x="47.54" y="227.40">2</text>
<path class="stroke"
	d="M43.54 216.00m0 20v-20h89.40v20"/>
<use x="23.54" y="260.00" xlink:href="#tclef"/>
<use x="56.04" y="239.00" xlink:href="#hd"/>
<path d="M52.54 239.00v40.00" class="stroke"/>
<use x="56.04" y="260.00" xlink:href="#hd"/>
<use x="56.04" y="254.00" xlink:href="#hd"/>
<use x="56.04" y="248.00" xlink:href="#hd"/>
<use x="109.64" y="254.00" xlink:href="#r8"/>
<path class="fill"
	d="M159.64 280.50l51.80 -4.60v-3.20l-51.80 4.60"/>
<path class="fill"
	d="M159.94 275.50l14.90 -1.30v-3.20l-14.90 1.30"/>
<use x="163.44" y="248.00" xlink:href="#hd"/>
<path d="M159.94 248.00v31.50" class="stroke"/>
<use x="178.34" y="257.00" xlink:href="#hd"/>
<path d="M174.84 257.00v21.20" class="stroke"/>
<use x="193.14" y="248.00" xlink:href="#hd"/>
<path d="M189.64 248.00v28.90" class="stroke"/>
<use x="214.64" y="242.00" xlink:href="#hd"/>
<use x="205.64" y="242.00" xlink:href="#sh0"/>
<path d="M211.14 242.00v33.00" class="stroke"/>
<path class="fill"
	d="M239.84 271.40l74.90 10.90v-3.20l-74.90 -10.90"/>
<path class="fill"
	d="M240.14 266.40l74.30 10.80v-3.20l-74.30 -10.80"/>
<use x="243.64" y="239.00" xlink:href="#hd"/>
<path d="M240.14 239.00v31.40" class="stroke"/>
<use x="258.54" y="236.00" xlink:href="#hl"/>
<use x="258.54" y="233.00" xlink:href="#hd"/>
<path d="M255.04 233.00v39.60" class="stroke"/>
<use x="273.34" y="239.00" xlink:href="#hd"/>
<path d="M269.84 239.00v35.70" class="stroke"/>
<use x="288.24" y="248.00" xlink:href="#hd"/>
<path d="M284.74 248.00v28.90" class="stroke"/>
<use x="303.04" y="254.00" xlink:href="#hd"/>
<path d="M299.54 254.00v25.00" class="stroke"/>
<use x="317.94" y="260.00" xlink:href="#hd"/>
<path d="M314.44 260.00v21.20" class="stroke"/>
<path class="fill"
	d="M339.04 268.00l51.10 0.00v-3.20l-51.10 -0.00"/>
<path class="fill"
	d="M360.14 263.00l14.90 0.00v-3.20l-14.90 -0.00"/>
<use x="342.94" y="245.00" xlink:href="#hd"/>
<path d="M339.44 245.00v22.00" class="stroke"/>
<use x="363.64" y="239.00" xlink:href="#hd"/>
<path d="M360.14 239.00v28.00" class="stroke"/>
<use x="378.44" y="245.00" xlink:href="#hd"/>
<path d="M374.94 245.00v22.00" class="stroke"/>
<use x="393.34" y="251.00" xlink:href="#hd"/>
<path d="M389.84 251.00v16.00" class="stroke"/>
<path class="fill"
	d="M418.54 281.70l51.10 -4.30v-3.20l-51.10 4.30"/>
<path class="fill"
	d="M418.84 276.70l14.90 -1.20v-3.20l-14.90 1.20"/>
<use x="422.34" y="248.00" xlink:href="#hd"/>
<path d="M418.84 248.00v32.70" class="stroke"/>
<use x="437.24" y="254.00" xlink:href="#hd"/>
<path d="M433.74 254.00v25.40" class="stroke"/>
<use x="452.14" y="260.00" xlink:href="#hd"/>
<path d="M448.64 260.00v18.20" class="stroke"/>
<use x="472.84" y="239.00" xlink:href="#hd"/>
<path d="M469.34 239.00v37.50" class="stroke"/>
<path class="fill"
	d="M498.44 280.80l60.10 -3.20v-3.20l-60.10 3.20"/>
<use x="502.34" y="251.00" xlink:href="#hd"/>
<path d="M498.84 251.00v28.80" class="stroke"/>
<use x="532.04" y="260.00" xlink:href="#hd"/>
<path d="M528.54 260.00v18.20" class="stroke"/>
<use x="561.74" y="245.00" xlink:href="#hd"/>
<path d="M558.24 245.00v31.60" class="stroke"/>
<path class="fill"
	d="M597.74 272.30l60.10 7.00v-3.20l-60.10 -7.00"/>
<use x="601.54" y="245.00" xlink:href="#hd"/>
<path d="M598.04 245.00v26.30" class="stroke"/>
<use x="631.24" y="251.00" xlink:href="#hd"/>
<path d="M627.74 251.00v23.70" class="stroke"/>
<use x="660.94" y="260.00" xlink:href="#hd"/>
<path d="M657.44 260.00v18.20" class="stroke"/>
<path class="fill"
	d="M697.04 274.00l74.90 0.00v-3.20l-74.90 -0.00"/>
<path class="fill"
	d="M697.34 269.00l74.30 0.00v-3.20l-74.30 -0.00"/>
<use x="700.84" y="242.00" xlink:href="#hd"/>
<path d="M697.34 242.00v30.90" class="stroke"/>
<use x="715.64" y="245.00" xlink:href="#hd"/>
<path d="M712.14 245.00v27.90" class="stroke"/>
<use x="730.54" y="248.00" xlink:href="#hd"/>
<path d="M727.04 248.00v24.90" class="stroke"/>
<use x="745.44" y="251.00" xlink:href="#hd"/>
<path d="M741.94 251.00v21.90" class="stroke"/>
<use x="760.24" y="254.00" xlink:href="#hd"/>
<path d="M756.74 254.00v18.90" class="stroke"/>
<use x="775.14" y="248.00" xlink:href="#hd"/>
<path d="M771.64 248.00v24.90" class="stroke"/>
<use x="800.14" y="251.00" xlink:href="#hd"/>
<path d="M796.64 251.00v21.00" class="stroke"/>
<use x="841.54" y="254.00" xlink:href="#r8"/>
<use x="23.54" y="314.00" xlink:href="#bclef"/>
<path class="fill"
	d="M52.24 351.20l69.10 -5.00v-3.20l-69.10 5.00"/>
<path class="fill"
	d="M73.24 344.70l47.70 -3.50v-3.20l-47.70 3.50"/>
<use x="56.04" y="332.00" xlink:href="#hd"/>
<path d="M52.54 332.00v18.20" class="stroke"/>
<use x="76.74" y="305.00" xlink:href="#hd"/>
<path d="M73.24 305.00v43.70" class="stroke"/>
<use x="91.64" y="311.00" xlink:href="#hd"/>
<path d="M88.14 311.00v36.60" class="stroke"/>
<use x="109.64" y="314.00" xlink:href="#hd"/>
<use x="100.64" y="314.00" xlink:href="#sh0"/>
<path d="M106.14 314.00v32.30" class="stroke"/>
<use x="124.44" y="317.00" xlink:href="#hd"/>
<path d="M120.94 317.00v28.20" class="stroke"/>
<use x="163.44" y="314.00" xlink:href="#hd"/>
<use x="154.44" y="314.00" xlink:href="#sh0"/>
<path d="M166.94 314.00v-21.00" class="stroke"/>
<use x="214.64" y="320.00" xlink:href="#r8"/>
<use x="243.64" y="326.00" xlink:href="#hd"/>
<path d="M247.14 326.00v-25.00" class="stroke"/>
<use x="243.64" y="320.00" xlink:href="#hd"/>
<use x="303.04" y="320.00" xlink:href="#r8"/>
<use x="342.94" y="311.00" xlink:href="#hd"/>
<path d="M339.44 311.00v31.00" class="stroke"/>
<use x="342.94" y="323.00" xlink:href="#hd"/>
<use x="393.34" y="317.00" xlink:href="#hd"/>
<path d="M389.84 317.00v25.00" class="stroke"/>
<path class="fill"
	d="M389.84 342.00c0.6 -5.6 9.6 -9 5.6 -18.4
	1.6 6 -1.3 11.6 -5.6 12.8
"/>
<use x="393.34" y="323.00" xlink:href="#hd"/>
<use x="422.34" y="311.00" xlink:href="#hd"/>
<path d="M425.84 311.00v-21.00" class="stroke"/>
<use x="472.84" y="326.00" xlink:href="#hd"/>
<path d="M476.34 326.00v-25.00" class="stroke"/>
<path class="fill"
	d="M476.34 301.00c0.6 5.6 9.6 9 5.6 18.4
	1.6 -6 -1.3 -11.6 -5.6 -12.8
"/>
<use x="472.84" y="320.00" xlink:href="#hd"/>
<path class="fill"
	d="M498.44 339.90l74.90 0.00v-3.20l-74.90 -0.00"/>
<path class="fill"
	d="M498.84 334.90l74.30 0.00v-3.20l-74.30 -0.00"/>
<use x="502.34" y="317.00" xlink:href="#hd"/>
<path d="M498.84 317.00v21.90" class="stroke"/>
<use x="502.34" y="323.00" xlink:href="#hd"/>
<use x="517.14" y="311.00" xlink:href="#hd"/>
<path d="M513.64 311.00v27.90" class="stroke"/>
<use x="532.04" y="317.00" xlink:href="#hd"/>
<path d="M528.54 317.00v21.90" class="stroke"/>
<use x="532.04" y="323.00" xlink:href="#hd"/>
<use x="546.84" y="311.00" xlink:href="#hd"/>
<path d="M543.34 311.00v27.90" class="stroke"/>
<use x="561.74" y="317.00" xlink:href="#hd"/>
<path d="M558.24 317.00v21.90" class="stroke"/>
<use x="561.74" y="323.00" xlink:href="#hd"/>
<use x="576.54" y="311.00" xlink:href="#hd"/>
<path d="M573.04 311.00v27.90" class="stroke"/>
<path class="fill"
	d="M597.74 339.90l74.90 0.00v-3.20l-74.90 -0.00"/>
<path class="fill"
	d="M598.04 334.90l74.30 0.00v-3.20l-74.30 -0.00"/>
<use x="601.54" y="317.00" xlink:href="#hd"/>
<path d="M598.04 317.00v21.90" class="stroke"/>
<use x="601.54" y="323.00" xlink:href="#hd"/>
<use x="616.44" y="311.00" xlink:href="#hd"/>
<path d="M612.94 311.00v27.90" class="stroke"/>
<use x="631.24" y="317.00" xlink:href="#hd"/>
<path d="M627.74 317.00v21.90" class="stroke"/>
<use x="631.24" y="323.00" xlink:href="#hd"/>
<use x="646.14" y="311.00" xlink:href="#hd"/>
<path d="M642.64 311.00v27.90" class="stroke"/>
<use x="660.94" y="317.00" xlink:href="#hd"/>
<path d="M657.44 317.00v21.90" class="stroke"/>
<use x="660.94" y="323.00" xlink:href="#hd"/>
<use x="675.84" y="311.00" xlink:href="#hd"/>
<path d="M672.34 311.00v27.90" class="stroke"/>
<use x="700.84" y="314.00" xlink:href="#hd"/>
<path d="M697.34 314.00v21.00" class="stroke"/>
<use x="760.24" y="311.00" xlink:href="#hd"/>
<path d="M756.74 311.00v21.00" class="stroke"/>
<path class="fill"
	d="M756.74 332.00c0.6 -5.6 9.6 -9 5.6 -18.4
	1.6 6 -1.3 11.6 -5.6 12.8
"/>
<path class="fill"
	d="M803.24 303.70l42.10 9.80v3.20l-42.10 -9.80"/>
<use x="800.14" y="323.00" xlink:href="#hd"/>
<path d="M803.64 323.00v-18.20" class="stroke"/>
<use x="820.84" y="332.00" xlink:href="#hd"/>
<path d="M824.34 332.00v-22.40" class="stroke"/>
<use x="841.54" y="338.00" xlink:href="#hl"/>
<use x="841.54" y="344.00" xlink:href="#hl"/>
<use x="841.54" y="344.00" xlink:href="#hd"/>
<path d="M845.04 344.00v-29.60" class="stroke"/>
<use x="163.44" y="320.00" xlink:href="#hd"/>
<path d="M159.94 320.00v21.00" class="stroke"/>
<use x="422.34" y="326.00" xlink:href="#hd"/>
<path d="M418.84 326.00v21.00" class="stroke"/>
</g>
</svg>
