<?xml version="1.0" standalone="no"?>
<!DOCTYPE svg PUBLIC "-//W3C//DTD SVG 1.1//EN"
	"http://www.w3.org/Graphics/SVG/1.1/DTD/svg11.dtd">
<svg xmlns="http://www.w3.org/2000/svg" version="1.1"
	xmlns:xlink="http://www.w3.org/1999/xlink"
	color="black"
	width="757.10px" height="296.40px">
<style type="text/css">
.fill {fill: currentColor}
.stroke {stroke: currentColor; fill: none}
text{white-space: pre}
</style>
<title>./K516f-2-9-5-6-12-3-3-12-2-3-6-4-4-7-8-12.abc (2234) tune 1</title>
<!-- Creator: abcm2ps-8.13.8 -->
<!-- CreationDate: Sep  7, 2017 11:19 -->
<!-- CommandLine: ./K516f-2-9-5-6-12-3-3-12-2-3-6-4-4-7-8-12.abc -O ./K516f-2-9-5-6-12-3-3-12-2-3-6-4-4-7-8-12.svg -g -->
<rect width="100%" height="100%" fill="white"/>
<g stroke-width="0.70" transform="scale(0.867)">
<!-- title: 2-9-5-6-12-3-3-12-2-3-6-4-4-7-8-12 -->
</g>
<g stroke-width="0.70" transform="scale(0.867)" font-family="Times" font-size="20.00">
<text x="436.84" y="22.00" text-anchor="middle">2-9-5-6-12-3-3-12-2-3-6-4-4-7-8-12</text>
</g>
<g stroke-width="0.70" transform="scale(0.867)" font-family="Times" font-size="20.00">
<!-- subtitle: $1K.516f::96:84:113:45:28:46:134:5:70:39:64:132:73:162:89:131::$0 -->
</g>
<g stroke-width="0.70" transform="scale(0.867)" font-family="Courier" font-size="8.00" font-weight="bold">
<text x="436.84" y="41.80" text-anchor="middle">K.516f::96:84:113:45:28:46:134:5:70:39:64:132:73:162:89:131::</text>
</g>
<g stroke-width="0.70" transform="scale(0.867)" font-family="Courier" font-size="8.00" font-weight="bold">
<!-- subtitle: $1Perm. No.: 223460561172047$0 -->
<text x="436.84" y="60.80" text-anchor="middle">Perm. No.: 223460561172047</text>
</g>
<g stroke-width="0.70" transform="scale(0.607)" font-family="Courier" font-size="8.00" font-weight="bold">
<defs>
<ellipse id="hd" rx="4.1" ry="2.9"
	transform="rotate(-20)" class="fill"/>
</defs>
<use x="103.06" y="121.29" xlink:href="#hd"/>
<path d="M106.56 121.29v-21.00" class="stroke"/>
<path class="fill"
	d="M106.56 100.29c0.6 5.6 9.6 9 5.6 18.4
	1.6 -6 -1.3 -11.6 -5.6 -12.8
"/>
</g>
<g stroke-width="0.70" transform="scale(0.867)" font-family="Times" font-size="15.00" font-weight="bold">
<text x="81.24" y="87.00">= 111</text>
<path class="stroke" stroke-width="1"
	d="M11.54 183.00v-82.00"/>
<path class="fill"
	d="M6.54 98.00
	c10.5 1 12 -4.5 12 -3.5c0 1 -3.5 5.5 -8.5 5.5
	v84.00
	c5 0 8.5 4.5 8.5 5.5c0 1 -1.5 -4.5 -12 -3.5"/>
<defs>
<g id="rdots" class="fill">
	<circle cx="0" cy="-9" r="1.2"/>
	<circle cx="0" cy="-15" r="1.2"/>
</g>
</defs>
<use x="70.54" y="125.00" xlink:href="#rdots"/>
<path class="stroke" stroke-width="1"
	d="M66.54 125.00v-24.00"/>
<path class="stroke" stroke-width="3"
	d="M62.04 125.00v-24.00"/>
<use x="70.54" y="183.00" xlink:href="#rdots"/>
<path class="stroke" stroke-width="1"
	d="M66.54 183.00v-58.00"/>
<path class="stroke" stroke-width="3"
	d="M62.04 183.00v-58.00"/>
<path class="stroke" stroke-width="1"
	d="M148.54 125.00v-24.00"/>
<path class="stroke" stroke-width="1"
	d="M148.54 183.00v-58.00"/>
<path class="stroke" stroke-width="1"
	d="M256.14 125.00v-24.00"/>
<path class="stroke" stroke-width="1"
	d="M256.14 183.00v-58.00"/>
<path class="stroke" stroke-width="1"
	d="M333.14 125.00v-24.00"/>
<path class="stroke" stroke-width="1"
	d="M333.14 183.00v-58.00"/>
<path class="stroke" stroke-width="1"
	d="M440.64 125.00v-24.00"/>
<path class="stroke" stroke-width="1"
	d="M440.64 183.00v-58.00"/>
<path class="stroke" stroke-width="1"
	d="M553.74 125.00v-24.00"/>
<path class="stroke" stroke-width="1"
	d="M553.74 183.00v-58.00"/>
<path class="stroke" stroke-width="1"
	d="M651.54 125.00v-24.00"/>
<path class="stroke" stroke-width="1"
	d="M651.54 183.00v-58.00"/>
<path class="stroke" stroke-width="1"
	d="M760.74 125.00v-24.00"/>
<path class="stroke" stroke-width="1"
	d="M760.74 183.00v-58.00"/>
<path class="stroke" stroke-width="3"
	d="M860.54 125.00v-24.00"/>
<path class="stroke" stroke-width="1"
	d="M856.04 125.00v-24.00"/>
<use x="852.04" y="125.00" xlink:href="#rdots"/>
<path class="stroke" stroke-width="3"
	d="M860.54 183.00v-58.00"/>
<path class="stroke" stroke-width="1"
	d="M856.04 183.00v-58.00"/>
<use x="852.04" y="183.00" xlink:href="#rdots"/>
<path d="m11.54 125.00
	h850.50
	M11.54 119.00
	h850.50
	M11.54 113.00
	h850.50
	M11.54 107.00
	h850.50
	M11.54 101.00
	h850.50
	" class="stroke"/>
<path d="m11.54 183.00
	h850.50
	M11.54 177.00
	h850.50
	M11.54 171.00
	h850.50
	M11.54 165.00
	h850.50
	M11.54 159.00
	h850.50
	" class="stroke"/>
</g>
<g stroke-width="0.70" transform="scale(0.867)" font-family="Times" font-size="13.00">
<text x="764.74" y="86.40">1</text>
<path class="stroke"
	d="M760.74 75.00m0 20v-20h93.30v20"/>
<defs>
<path id="utclef" class="fill" d="m-50 -90
	c-72 -41 -72 -158 52 -188
	150 -10 220 188 90 256
	-114 52 -275 0 -293 -136
	-15 -181 93 -229 220 -334
	88 -87 79 -133 62 -210
	-51 33 -94 105 -89 186
	17 267 36 374 49 574
	6 96 -19 134 -77 135
	-80 1 -126 -93 -61 -133
	85 -41 133 101 31 105
	23 17 92 37 90 -92
	-10 -223 -39 -342 -50 -617
	0 -90 0 -162 96 -232
	56 72 63 230 22 289
	-74 106 -257 168 -255 316
	9 153 148 185 252 133
	86 -65 29 -192 -80 -176
	-71 12 -105 67 -59 124"/>
<use id="tclef" transform="translate(0,6) scale(0.045)"
	xlink:href="#utclef"/>
</defs>
<use x="23.54" y="119.00" xlink:href="#tclef"/>
<g font-family="serif" font-size="16" font-weight="bold" font-style="normal"
	transform="translate(42.04,124.50) scale(1.2,1)">
	<text text-anchor="middle">8</text>
	<text y="-12" text-anchor="middle">3</text>
</g>
<path class="fill"
	d="M80.74 131.70l46.70 6.60v-3.20l-46.70 -6.60"/>
<use x="84.54" y="104.00" xlink:href="#hd"/>
<path d="M81.04 104.00v26.70" class="stroke"/>
<use x="107.54" y="110.00" xlink:href="#hd"/>
<path d="M104.04 110.00v24.00" class="stroke"/>
<use x="130.54" y="119.00" xlink:href="#hd"/>
<path d="M127.04 119.00v18.20" class="stroke"/>
<path class="fill"
	d="M157.74 142.50l82.30 -6.40v-3.20l-82.30 6.40"/>
<path class="fill"
	d="M158.04 137.50l81.60 -6.30v-3.20l-81.60 6.30"/>
<use x="161.54" y="110.00" xlink:href="#hd"/>
<path d="M158.04 110.00v31.50" class="stroke"/>
<use x="177.94" y="119.00" xlink:href="#hd"/>
<path d="M174.44 119.00v21.20" class="stroke"/>
<use x="194.24" y="104.00" xlink:href="#hd"/>
<path d="M190.74 104.00v34.90" class="stroke"/>
<use x="210.54" y="110.00" xlink:href="#hd"/>
<path d="M207.04 110.00v27.70" class="stroke"/>
<use x="226.94" y="98.00" xlink:href="#hd"/>
<path d="M223.44 98.00v38.40" class="stroke"/>
<use x="243.24" y="104.00" xlink:href="#hd"/>
<path d="M239.74 104.00v31.20" class="stroke"/>
<path class="fill"
	d="M265.24 124.30l46.70 8.00v-3.20l-46.70 -8.00"/>
<use x="269.14" y="101.00" xlink:href="#hd"/>
<path d="M265.64 101.00v22.30" class="stroke"/>
<use x="292.14" y="107.00" xlink:href="#hd"/>
<path d="M288.64 107.00v20.30" class="stroke"/>
<use x="315.14" y="113.00" xlink:href="#hd"/>
<path d="M311.64 113.00v18.20" class="stroke"/>
<path class="fill"
	d="M349.34 83.80l82.30 9.90v3.20l-82.30 -9.90"/>
<path class="fill"
	d="M349.64 88.90l81.60 9.80v3.20l-81.60 -9.80"/>
<use x="346.14" y="110.00" xlink:href="#hd"/>
<path d="M349.64 110.00v-25.10" class="stroke"/>
<use x="362.44" y="113.00" xlink:href="#hd"/>
<path d="M365.94 113.00v-26.20" class="stroke"/>
<use x="378.84" y="110.00" xlink:href="#hd"/>
<path d="M382.34 110.00v-21.20" class="stroke"/>
<use x="395.14" y="119.00" xlink:href="#hd"/>
<path d="M398.64 119.00v-28.20" class="stroke"/>
<use x="411.44" y="125.00" xlink:href="#hd"/>
<path d="M414.94 125.00v-32.30" class="stroke"/>
<defs>
<path id="hl" class="stroke" d="m-6 0h12"/>
</defs>
<use x="427.84" y="131.00" xlink:href="#hl"/>
<use x="427.84" y="131.00" xlink:href="#hd"/>
<path d="M431.34 131.00v-36.30" class="stroke"/>
<path class="fill"
	d="M455.34 138.20l82.30 0.00v-3.20l-82.30 -0.00"/>
<path class="fill"
	d="M455.64 133.20l81.60 0.00v-3.20l-81.60 -0.00"/>
<use x="459.14" y="101.00" xlink:href="#hd"/>
<defs>
<path id="usharp" class="fill" d="
	m136 -702
	v890
	h32
	v-890
	m128 840
	h32
	v-888
	h-32
	m-232 286
	v116
	l338 -96
	v-116
	m-338 442
	v116
	l338 -98
	v-114"/>
<use id="sh0" transform="translate(-4,5) scale(0.018)"
	xlink:href="#usharp"/>
</defs>
<use x="450.14" y="101.00" xlink:href="#sh0"/>
<path d="M455.64 101.00v36.20" class="stroke"/>
<use x="475.54" y="107.00" xlink:href="#hd"/>
<path d="M472.04 107.00v30.20" class="stroke"/>
<use x="491.84" y="116.00" xlink:href="#hd"/>
<path d="M488.34 116.00v21.20" class="stroke"/>
<use x="508.14" y="95.00" xlink:href="#hl"/>
<use x="508.14" y="95.00" xlink:href="#hd"/>
<path d="M504.64 95.00v42.20" class="stroke"/>
<use x="524.54" y="101.00" xlink:href="#hd"/>
<path d="M521.04 101.00v36.20" class="stroke"/>
<use x="540.84" y="107.00" xlink:href="#hd"/>
<path d="M537.34 107.00v30.20" class="stroke"/>
<path class="fill"
	d="M562.84 127.10l72.70 8.20v-3.20l-72.70 -8.20"/>
<path class="fill"
	d="M586.24 124.70l49.00 5.50v-3.20l-49.00 -5.50"/>
<use x="566.74" y="98.00" xlink:href="#hd"/>
<path d="M563.24 98.00v28.10" class="stroke"/>
<use x="589.74" y="95.00" xlink:href="#hl"/>
<use x="589.74" y="92.00" xlink:href="#hd"/>
<path d="M586.24 92.00v36.70" class="stroke"/>
<use x="606.04" y="98.00" xlink:href="#hd"/>
<path d="M602.54 98.00v32.50" class="stroke"/>
<use x="622.34" y="107.00" xlink:href="#hd"/>
<path d="M618.84 107.00v25.40" class="stroke"/>
<use x="638.64" y="113.00" xlink:href="#hd"/>
<path d="M635.14 113.00v21.20" class="stroke"/>
<path class="fill"
	d="M660.74 140.20l84.00 0.00v-3.20l-84.00 -0.00"/>
<path class="fill"
	d="M661.04 135.20l83.30 0.00v-3.20l-83.30 -0.00"/>
<use x="664.54" y="116.00" xlink:href="#hd"/>
<path d="M661.04 116.00v23.20" class="stroke"/>
<use x="680.94" y="104.00" xlink:href="#hd"/>
<path d="M677.44 104.00v35.20" class="stroke"/>
<use x="697.24" y="107.00" xlink:href="#hd"/>
<path d="M693.74 107.00v32.20" class="stroke"/>
<use x="697.24" y="113.00" xlink:href="#hd"/>
<use x="713.54" y="110.00" xlink:href="#hd"/>
<path d="M710.04 110.00v29.20" class="stroke"/>
<use x="713.54" y="116.00" xlink:href="#hd"/>
<use x="729.84" y="113.00" xlink:href="#hd"/>
<path d="M726.34 113.00v26.20" class="stroke"/>
<use x="729.84" y="119.00" xlink:href="#hd"/>
<use x="747.84" y="116.00" xlink:href="#hd"/>
<path d="M744.34 116.00v23.20" class="stroke"/>
<use x="747.84" y="122.00" xlink:href="#hd"/>
<use x="738.84" y="122.00" xlink:href="#sh0"/>
<use x="773.74" y="98.00" xlink:href="#hd"/>
<path d="M770.24 98.00v40.00" class="stroke"/>
<use x="773.74" y="119.00" xlink:href="#hd"/>
<use x="773.74" y="113.00" xlink:href="#hd"/>
<use x="773.74" y="107.00" xlink:href="#hd"/>
<defs>
<path id="r8e" class="fill" d="m 0 0
	c-1.5 1.5 -2.4 2 -3.6 2
	2.4 -2.8 -2.8 -4 -2.8 -1.2
	c0 2.7 4.3 2.4 5.9 0.6"/>
<g id="r8">
	<path d="m3.3 -4l-3.4 9.6" class="stroke"/>
	<use x="3.4" y="-4" xlink:href="#r8e"/>
</g>
</defs>
<use x="831.04" y="113.00" xlink:href="#r8"/>
<defs>
<path id="ubclef" class="fill" d="m-200 -87
	c124 -35 222 -78 254 -236
	43 -228 -167 -246 -192 -103
	59 -80 157 22 92 78
	-62 47 -115 -22 -106 -88
	21 -141 270 -136 274 52
	-1 175 -106 264 -322 297
	m357 -250
	c0 -36 51 -34 51 0
	0 37 -51 36 -51 0
	m-2 -129
	c0 -36 51 -34 51 0
	0 38 -51 37 -51 0"/>
<use id="bclef" transform="translate(0,18) scale(0.045)"
	xlink:href="#ubclef"/>
</defs>
<use x="23.54" y="165.00" xlink:href="#bclef"/>
<g font-family="serif" font-size="16" font-weight="bold" font-style="normal"
	transform="translate(42.04,182.50) scale(1.2,1)">
	<text text-anchor="middle">8</text>
	<text y="-12" text-anchor="middle">3</text>
</g>
<use x="84.54" y="174.00" xlink:href="#hd"/>
<path d="M88.04 174.00v-21.00" class="stroke"/>
<use x="130.54" y="171.00" xlink:href="#r8"/>
<use x="161.54" y="168.00" xlink:href="#hd"/>
<path d="M158.04 168.00v25.00" class="stroke"/>
<use x="161.54" y="174.00" xlink:href="#hd"/>
<use x="226.94" y="171.00" xlink:href="#r8"/>
<use x="269.14" y="156.00" xlink:href="#hd"/>
<path d="M265.64 156.00v25.00" class="stroke"/>
<use x="269.14" y="162.00" xlink:href="#hd"/>
<use x="315.14" y="171.00" xlink:href="#r8"/>
<use x="346.14" y="162.00" xlink:href="#hd"/>
<path d="M342.64 162.00v25.00" class="stroke"/>
<use x="346.14" y="168.00" xlink:href="#hd"/>
<use x="411.44" y="171.00" xlink:href="#r8"/>
<use x="459.14" y="159.00" xlink:href="#hd"/>
<path d="M455.64 159.00v34.00" class="stroke"/>
<use x="459.14" y="174.00" xlink:href="#hd"/>
<use x="524.54" y="171.00" xlink:href="#r8"/>
<use x="566.74" y="177.00" xlink:href="#hd"/>
<path d="M570.24 177.00v-25.00" class="stroke"/>
<use x="566.74" y="171.00" xlink:href="#hd"/>
<use x="622.34" y="171.00" xlink:href="#r8"/>
<path class="fill"
	d="M667.74 147.70l66.00 8.20v3.20l-66.00 -8.20"/>
<use x="664.54" y="174.00" xlink:href="#hd"/>
<path d="M668.04 174.00v-25.30" class="stroke"/>
<use x="697.24" y="171.00" xlink:href="#hd"/>
<path d="M700.74 171.00v-18.20" class="stroke"/>
<use x="729.84" y="189.00" xlink:href="#hl"/>
<use x="729.84" y="192.00" xlink:href="#hd"/>
<path d="M733.34 192.00v-35.10" class="stroke"/>
<path class="fill"
	d="M769.94 202.20l74.30 0.00v-3.20l-74.30 -0.00"/>
<path class="fill"
	d="M793.24 197.20l50.70 0.00v-3.20l-50.70 -0.00"/>
<use x="773.74" y="183.00" xlink:href="#hd"/>
<path d="M770.24 183.00v18.20" class="stroke"/>
<use x="796.74" y="162.00" xlink:href="#hd"/>
<path d="M793.24 162.00v39.20" class="stroke"/>
<use x="814.74" y="165.00" xlink:href="#hd"/>
<defs>
<path id="unat" class="fill" d="
	m96 -750
	h-32
	v716
	l32 -8
	182 -54
	v282
	h32
	v-706
	l-34 10
	-180 50
	v-290
	m0 592
	v-190
	l182 -52
	v188"/>
<use id="nt0" transform="translate(-3,5) scale(0.018)"
	xlink:href="#unat"/>
</defs>
<use x="805.74" y="165.00" xlink:href="#nt0"/>
<path d="M811.24 165.00v36.20" class="stroke"/>
<use x="831.04" y="168.00" xlink:href="#hd"/>
<path d="M827.54 168.00v33.20" class="stroke"/>
<use x="847.44" y="171.00" xlink:href="#hd"/>
<path d="M843.94 171.00v30.20" class="stroke"/>
</g>
<g stroke-width="0.70" transform="scale(0.867)" font-family="Times" font-size="13.00">
<path class="stroke" stroke-width="1"
	d="M11.54 316.00v-82.00"/>
<path class="fill"
	d="M6.54 231.00
	c10.5 1 12 -4.5 12 -3.5c0 1 -3.5 5.5 -8.5 5.5
	v84.00
	c5 0 8.5 4.5 8.5 5.5c0 1 -1.5 -4.5 -12 -3.5"/>
<use x="143.14" y="258.00" xlink:href="#rdots"/>
<path class="stroke" stroke-width="1"
	d="M139.14 258.00v-24.00"/>
<path class="stroke" stroke-width="3"
	d="M134.64 258.00v-24.00"/>
<use x="143.14" y="316.00" xlink:href="#rdots"/>
<path class="stroke" stroke-width="1"
	d="M139.14 316.00v-58.00"/>
<path class="stroke" stroke-width="3"
	d="M134.64 316.00v-58.00"/>
<path class="stroke" stroke-width="1"
	d="M239.34 258.00v-24.00"/>
<path class="stroke" stroke-width="1"
	d="M239.34 316.00v-58.00"/>
<path class="stroke" stroke-width="1"
	d="M337.34 258.00v-24.00"/>
<path class="stroke" stroke-width="1"
	d="M337.34 316.00v-58.00"/>
<path class="stroke" stroke-width="1"
	d="M435.44 258.00v-24.00"/>
<path class="stroke" stroke-width="1"
	d="M435.44 316.00v-58.00"/>
<path class="stroke" stroke-width="1"
	d="M513.84 258.00v-24.00"/>
<path class="stroke" stroke-width="1"
	d="M513.84 316.00v-58.00"/>
<path class="stroke" stroke-width="1"
	d="M611.94 258.00v-24.00"/>
<path class="stroke" stroke-width="1"
	d="M611.94 316.00v-58.00"/>
<path class="stroke" stroke-width="1"
	d="M709.94 258.00v-24.00"/>
<path class="stroke" stroke-width="1"
	d="M709.94 316.00v-58.00"/>
<path class="stroke" stroke-width="1"
	d="M788.34 258.00v-24.00"/>
<path class="stroke" stroke-width="1"
	d="M788.34 316.00v-58.00"/>
<path class="stroke" stroke-width="3"
	d="M860.54 258.00v-24.00"/>
<path class="stroke" stroke-width="1"
	d="M856.04 258.00v-24.00"/>
<use x="852.04" y="258.00" xlink:href="#rdots"/>
<path class="stroke" stroke-width="3"
	d="M860.54 316.00v-58.00"/>
<path class="stroke" stroke-width="1"
	d="M856.04 316.00v-58.00"/>
<use x="852.04" y="316.00" xlink:href="#rdots"/>
<path d="m11.54 258.00
	h850.50
	M11.54 252.00
	h850.50
	M11.54 246.00
	h850.50
	M11.54 240.00
	h850.50
	M11.54 234.00
	h850.50
	" class="stroke"/>
<path d="m11.54 316.00
	h850.50
	M11.54 310.00
	h850.50
	M11.54 304.00
	h850.50
	M11.54 298.00
	h850.50
	M11.54 292.00
	h850.50
	" class="stroke"/>
<text x="47.54" y="219.40">2</text>
<path class="stroke"
	d="M43.54 208.00m0 20v-20h88.60v20"/>
<use x="23.54" y="252.00" xlink:href="#tclef"/>
<use x="56.04" y="231.00" xlink:href="#hd"/>
<path d="M52.54 231.00v40.00" class="stroke"/>
<use x="56.04" y="252.00" xlink:href="#hd"/>
<use x="56.04" y="246.00" xlink:href="#hd"/>
<use x="56.04" y="240.00" xlink:href="#hd"/>
<use x="109.04" y="246.00" xlink:href="#r8"/>
<path class="fill"
	d="M158.74 260.00l64.90 0.00v-3.20l-64.90 -0.00"/>
<path class="fill"
	d="M179.44 255.00l43.80 0.00v-3.20l-43.80 -0.00"/>
<use x="162.64" y="234.00" xlink:href="#hd"/>
<use x="153.64" y="234.00" xlink:href="#sh0"/>
<path d="M159.14 234.00v25.00" class="stroke"/>
<use x="182.94" y="228.00" xlink:href="#hl"/>
<use x="182.94" y="228.00" xlink:href="#hd"/>
<path d="M179.44 228.00v31.00" class="stroke"/>
<use x="197.54" y="234.00" xlink:href="#hd"/>
<path d="M194.04 234.00v25.00" class="stroke"/>
<use x="212.14" y="240.00" xlink:href="#hd"/>
<path d="M208.64 240.00v19.00" class="stroke"/>
<use x="226.84" y="234.00" xlink:href="#hd"/>
<path d="M223.34 234.00v25.00" class="stroke"/>
<path class="fill"
	d="M247.94 266.70l59.10 8.90v-3.20l-59.10 -8.90"/>
<use x="251.84" y="231.00" xlink:href="#hd"/>
<path d="M248.34 231.00v34.80" class="stroke"/>
<use x="281.04" y="252.00" xlink:href="#hd"/>
<path d="M277.54 252.00v18.20" class="stroke"/>
<use x="310.24" y="252.00" xlink:href="#hd"/>
<path d="M306.74 252.00v22.60" class="stroke"/>
<path class="fill"
	d="M346.04 266.00l73.80 0.00v-3.20l-73.80 -0.00"/>
<path class="fill"
	d="M346.34 261.00l73.10 0.00v-3.20l-73.10 -0.00"/>
<use x="349.84" y="237.00" xlink:href="#hd"/>
<path d="M346.34 237.00v27.90" class="stroke"/>
<use x="364.44" y="231.00" xlink:href="#hd"/>
<path d="M360.94 231.00v33.90" class="stroke"/>
<use x="379.14" y="228.00" xlink:href="#hl"/>
<use x="379.14" y="222.00" xlink:href="#hl"/>
<use x="379.14" y="222.00" xlink:href="#hd"/>
<path d="M375.64 222.00v42.90" class="stroke"/>
<use x="393.74" y="231.00" xlink:href="#hd"/>
<path d="M390.24 231.00v33.90" class="stroke"/>
<use x="408.34" y="237.00" xlink:href="#hd"/>
<path d="M404.84 237.00v27.90" class="stroke"/>
<use x="422.94" y="243.00" xlink:href="#hd"/>
<path d="M419.44 243.00v21.90" class="stroke"/>
<path class="fill"
	d="M451.14 219.30l50.30 6.10v3.20l-50.30 -6.10"/>
<path class="fill"
	d="M471.74 226.80l14.60 1.80v3.20l-14.60 -1.80"/>
<use x="447.94" y="243.00" xlink:href="#hd"/>
<path d="M451.44 243.00v-22.70" class="stroke"/>
<use x="447.94" y="237.00" xlink:href="#hd"/>
<use x="468.24" y="252.00" xlink:href="#hd"/>
<path d="M471.74 252.00v-29.20" class="stroke"/>
<use x="468.24" y="240.00" xlink:href="#hd"/>
<use x="482.94" y="252.00" xlink:href="#hd"/>
<path d="M486.44 252.00v-27.40" class="stroke"/>
<use x="482.94" y="246.00" xlink:href="#hd"/>
<use x="497.54" y="252.00" xlink:href="#hd"/>
<path d="M501.04 252.00v-25.60" class="stroke"/>
<path class="fill"
	d="M522.44 253.70l59.10 8.60v-3.20l-59.10 -8.60"/>
<use x="526.34" y="231.00" xlink:href="#hd"/>
<path d="M522.84 231.00v21.70" class="stroke"/>
<use x="555.54" y="237.00" xlink:href="#hd"/>
<path d="M552.04 237.00v20.00" class="stroke"/>
<use x="584.74" y="243.00" xlink:href="#hd"/>
<path d="M581.24 243.00v18.30" class="stroke"/>
<path class="fill"
	d="M620.54 263.50l73.80 -6.30v-3.20l-73.80 6.30"/>
<path class="fill"
	d="M620.94 258.40l73.10 -6.20v-3.20l-73.10 6.20"/>
<use x="624.44" y="237.00" xlink:href="#hd"/>
<path d="M620.94 237.00v25.40" class="stroke"/>
<use x="639.04" y="240.00" xlink:href="#hd"/>
<path d="M635.54 240.00v21.20" class="stroke"/>
<use x="653.64" y="237.00" xlink:href="#hd"/>
<path d="M650.14 237.00v23.00" class="stroke"/>
<use x="668.24" y="231.00" xlink:href="#hd"/>
<path d="M664.74 231.00v27.70" class="stroke"/>
<use x="682.84" y="228.00" xlink:href="#hl"/>
<use x="682.84" y="222.00" xlink:href="#hl"/>
<use x="682.84" y="222.00" xlink:href="#hd"/>
<path d="M679.34 222.00v35.50" class="stroke"/>
<use x="697.44" y="231.00" xlink:href="#hd"/>
<path d="M693.94 231.00v25.20" class="stroke"/>
<path class="fill"
	d="M718.64 260.00l50.30 0.00v-3.20l-50.30 -0.00"/>
<path class="fill"
	d="M718.94 255.00l14.60 0.00v-3.20l-14.60 -0.00"/>
<use x="722.44" y="234.00" xlink:href="#hd"/>
<path d="M718.94 234.00v25.00" class="stroke"/>
<use x="737.04" y="237.00" xlink:href="#hd"/>
<path d="M733.54 237.00v22.00" class="stroke"/>
<use x="751.74" y="240.00" xlink:href="#hd"/>
<path d="M748.24 240.00v19.00" class="stroke"/>
<use x="772.04" y="231.00" xlink:href="#hd"/>
<path d="M768.54 231.00v28.00" class="stroke"/>
<use x="800.84" y="243.00" xlink:href="#hd"/>
<path d="M797.34 243.00v21.00" class="stroke"/>
<use x="841.54" y="246.00" xlink:href="#r8"/>
<use x="23.54" y="298.00" xlink:href="#bclef"/>
<path class="fill"
	d="M52.24 335.20l68.30 -5.00v-3.20l-68.30 5.00"/>
<path class="fill"
	d="M72.84 328.70l47.20 -3.40v-3.20l-47.20 3.40"/>
<use x="56.04" y="316.00" xlink:href="#hd"/>
<path d="M52.54 316.00v18.20" class="stroke"/>
<use x="76.34" y="289.00" xlink:href="#hd"/>
<path d="M72.84 289.00v43.70" class="stroke"/>
<use x="91.04" y="295.00" xlink:href="#hd"/>
<path d="M87.54 295.00v36.70" class="stroke"/>
<use x="109.04" y="298.00" xlink:href="#hd"/>
<use x="100.04" y="298.00" xlink:href="#sh0"/>
<path d="M105.54 298.00v32.30" class="stroke"/>
<use x="123.64" y="301.00" xlink:href="#hd"/>
<path d="M120.14 301.00v28.30" class="stroke"/>
<use x="162.64" y="304.00" xlink:href="#hd"/>
<path d="M166.14 304.00v-21.00" class="stroke"/>
<use x="212.14" y="307.00" xlink:href="#hd"/>
<path d="M215.64 307.00v-21.00" class="stroke"/>
<path class="fill"
	d="M215.64 286.00c0.6 5.6 9.6 9 5.6 18.4
	1.6 -6 -1.3 -11.6 -5.6 -12.8
"/>
<path class="fill"
	d="M247.94 338.20l73.80 0.00v-3.20l-73.80 -0.00"/>
<path class="fill"
	d="M248.34 333.20l73.10 0.00v-3.20l-73.10 -0.00"/>
<use x="251.84" y="310.00" xlink:href="#hd"/>
<path d="M248.34 310.00v27.20" class="stroke"/>
<use x="266.44" y="304.00" xlink:href="#hd"/>
<path d="M262.94 304.00v33.20" class="stroke"/>
<use x="281.04" y="295.00" xlink:href="#hd"/>
<path d="M277.54 295.00v42.20" class="stroke"/>
<use x="295.64" y="304.00" xlink:href="#hd"/>
<path d="M292.14 304.00v33.20" class="stroke"/>
<use x="310.24" y="289.00" xlink:href="#hd"/>
<path d="M306.74 289.00v48.20" class="stroke"/>
<use x="324.84" y="316.00" xlink:href="#hd"/>
<path d="M321.34 316.00v21.20" class="stroke"/>
<use x="349.84" y="295.00" xlink:href="#hd"/>
<path d="M346.34 295.00v31.00" class="stroke"/>
<use x="349.84" y="307.00" xlink:href="#hd"/>
<use x="408.34" y="295.00" xlink:href="#hd"/>
<path d="M404.84 295.00v31.00" class="stroke"/>
<path class="fill"
	d="M404.84 326.00c0.6 -5.6 9.6 -9 5.6 -18.4
	1.6 6 -1.3 11.6 -5.6 12.8
"/>
<use x="408.34" y="307.00" xlink:href="#hd"/>
<path class="fill"
	d="M451.14 275.70l21.00 7.10v3.20l-21.00 -7.10"/>
<use x="447.94" y="295.00" xlink:href="#hd"/>
<path d="M451.44 295.00v-18.20" class="stroke"/>
<use x="468.24" y="316.00" xlink:href="#hd"/>
<path d="M471.74 316.00v-32.30" class="stroke"/>
<use x="497.54" y="304.00" xlink:href="#r8"/>
<path class="fill"
	d="M522.44 323.90l73.80 0.00v-3.20l-73.80 -0.00"/>
<path class="fill"
	d="M522.84 318.90l73.10 0.00v-3.20l-73.10 -0.00"/>
<use x="526.34" y="301.00" xlink:href="#hd"/>
<path d="M522.84 301.00v21.90" class="stroke"/>
<use x="526.34" y="307.00" xlink:href="#hd"/>
<use x="540.94" y="295.00" xlink:href="#hd"/>
<path d="M537.44 295.00v27.90" class="stroke"/>
<use x="555.54" y="301.00" xlink:href="#hd"/>
<path d="M552.04 301.00v21.90" class="stroke"/>
<use x="555.54" y="307.00" xlink:href="#hd"/>
<use x="570.14" y="295.00" xlink:href="#hd"/>
<path d="M566.64 295.00v27.90" class="stroke"/>
<use x="584.74" y="301.00" xlink:href="#hd"/>
<path d="M581.24 301.00v21.90" class="stroke"/>
<use x="584.74" y="307.00" xlink:href="#hd"/>
<use x="599.44" y="295.00" xlink:href="#hd"/>
<path d="M595.94 295.00v27.90" class="stroke"/>
<use x="624.44" y="295.00" xlink:href="#hd"/>
<path d="M620.94 295.00v31.00" class="stroke"/>
<use x="624.44" y="307.00" xlink:href="#hd"/>
<use x="682.84" y="301.00" xlink:href="#hd"/>
<path d="M679.34 301.00v25.00" class="stroke"/>
<path class="fill"
	d="M679.34 326.00c0.6 -5.6 9.6 -9 5.6 -18.4
	1.6 6 -1.3 11.6 -5.6 12.8
"/>
<use x="682.84" y="307.00" xlink:href="#hd"/>
<path class="fill"
	d="M718.64 323.90l50.30 0.00v-3.20l-50.30 -0.00"/>
<path class="fill"
	d="M718.94 318.90l14.60 0.00v-3.20l-14.60 -0.00"/>
<use x="722.44" y="298.00" xlink:href="#hd"/>
<path d="M718.94 298.00v24.90" class="stroke"/>
<use x="737.04" y="301.00" xlink:href="#hd"/>
<path d="M733.54 301.00v21.90" class="stroke"/>
<use x="751.74" y="304.00" xlink:href="#hd"/>
<path d="M748.24 304.00v18.90" class="stroke"/>
<use x="772.04" y="295.00" xlink:href="#hd"/>
<path d="M768.54 295.00v27.90" class="stroke"/>
<path class="fill"
	d="M804.04 287.70l41.40 9.70v3.20l-41.40 -9.70"/>
<use x="800.84" y="307.00" xlink:href="#hd"/>
<path d="M804.34 307.00v-18.20" class="stroke"/>
<use x="821.24" y="316.00" xlink:href="#hd"/>
<path d="M824.74 316.00v-22.40" class="stroke"/>
<use x="841.54" y="322.00" xlink:href="#hl"/>
<use x="841.54" y="328.00" xlink:href="#hl"/>
<use x="841.54" y="328.00" xlink:href="#hd"/>
<path d="M845.04 328.00v-29.60" class="stroke"/>
</g>
</svg>
