<?xml version="1.0" standalone="no"?>
<!DOCTYPE svg PUBLIC "-//W3C//DTD SVG 1.1//EN"
	"http://www.w3.org/Graphics/SVG/1.1/DTD/svg11.dtd">
<svg xmlns="http://www.w3.org/2000/svg" version="1.1"
	xmlns:xlink="http://www.w3.org/1999/xlink"
	color="black"
	width="757.10px" height="293.80px">
<style type="text/css">
.fill {fill: currentColor}
.stroke {stroke: currentColor; fill: none}
text{white-space: pre}
</style>
<title>./K516f-8-10-7-8-4-8-11-9-4-10-9-6-12-10-8-7.abc (2352) tune 1</title>
<!-- Creator: abcm2ps-8.13.8 -->
<!-- CreationDate: Sep  7, 2017 11:20 -->
<!-- CommandLine: ./K516f-8-10-7-8-4-8-11-9-4-10-9-6-12-10-8-7.abc -O ./K516f-8-10-7-8-4-8-11-9-4-10-9-6-12-10-8-7.svg -g -->
<rect width="100%" height="100%" fill="white"/>
<g stroke-width="0.70" transform="scale(0.867)">
<!-- title: 8-10-7-8-4-8-11-9-4-10-9-6-12-10-8-7 -->
</g>
<g stroke-width="0.70" transform="scale(0.867)" font-family="Times" font-size="20.00">
<text x="436.84" y="22.00" text-anchor="middle">8-10-7-8-4-8-11-9-4-10-9-6-12-10-8-7</text>
</g>
<g stroke-width="0.70" transform="scale(0.867)" font-family="Times" font-size="20.00">
<!-- subtitle: $1K.516f::152:142:27:53:153:133:147:94:66:77:48:125:12:38:89:151::$0 -->
</g>
<g stroke-width="0.70" transform="scale(0.867)" font-family="Courier" font-size="8.00" font-weight="bold">
<text x="436.84" y="41.80" text-anchor="middle">K.516f::152:142:27:53:153:133:147:94:66:77:48:125:12:38:89:151::</text>
</g>
<g stroke-width="0.70" transform="scale(0.867)" font-family="Courier" font-size="8.00" font-weight="bold">
<!-- subtitle: $1Perm. No.: 235218842709418$0 -->
<text x="436.84" y="60.80" text-anchor="middle">Perm. No.: 235218842709418</text>
</g>
<g stroke-width="0.70" transform="scale(0.607)" font-family="Courier" font-size="8.00" font-weight="bold">
<defs>
<ellipse id="hd" rx="4.1" ry="2.9"
	transform="rotate(-20)" class="fill"/>
</defs>
<use x="103.06" y="121.29" xlink:href="#hd"/>
<path d="M106.56 121.29v-21.00" class="stroke"/>
<path class="fill"
	d="M106.56 100.29c0.6 5.6 9.6 9 5.6 18.4
	1.6 -6 -1.3 -11.6 -5.6 -12.8
"/>
</g>
<g stroke-width="0.70" transform="scale(0.867)" font-family="Times" font-size="15.00" font-weight="bold">
<text x="81.24" y="87.00">= 111</text>
<path class="stroke" stroke-width="1"
	d="M11.54 183.00v-82.00"/>
<path class="fill"
	d="M6.54 98.00
	c10.5 1 12 -4.5 12 -3.5c0 1 -3.5 5.5 -8.5 5.5
	v84.00
	c5 0 8.5 4.5 8.5 5.5c0 1 -1.5 -4.5 -12 -3.5"/>
<defs>
<g id="rdots" class="fill">
	<circle cx="0" cy="-9" r="1.2"/>
	<circle cx="0" cy="-15" r="1.2"/>
</g>
</defs>
<use x="70.54" y="125.00" xlink:href="#rdots"/>
<path class="stroke" stroke-width="1"
	d="M66.54 125.00v-24.00"/>
<path class="stroke" stroke-width="3"
	d="M62.04 125.00v-24.00"/>
<use x="70.54" y="183.00" xlink:href="#rdots"/>
<path class="stroke" stroke-width="1"
	d="M66.54 183.00v-58.00"/>
<path class="stroke" stroke-width="3"
	d="M62.04 183.00v-58.00"/>
<path class="stroke" stroke-width="1"
	d="M169.94 125.00v-24.00"/>
<path class="stroke" stroke-width="1"
	d="M169.94 183.00v-58.00"/>
<path class="stroke" stroke-width="1"
	d="M247.34 125.00v-24.00"/>
<path class="stroke" stroke-width="1"
	d="M247.34 183.00v-58.00"/>
<path class="stroke" stroke-width="1"
	d="M355.44 125.00v-24.00"/>
<path class="stroke" stroke-width="1"
	d="M355.44 183.00v-58.00"/>
<path class="stroke" stroke-width="1"
	d="M442.54 125.00v-24.00"/>
<path class="stroke" stroke-width="1"
	d="M442.54 183.00v-58.00"/>
<path class="stroke" stroke-width="1"
	d="M552.24 125.00v-24.00"/>
<path class="stroke" stroke-width="1"
	d="M552.24 183.00v-58.00"/>
<path class="stroke" stroke-width="1"
	d="M650.64 125.00v-24.00"/>
<path class="stroke" stroke-width="1"
	d="M650.64 183.00v-58.00"/>
<path class="stroke" stroke-width="1"
	d="M760.34 125.00v-24.00"/>
<path class="stroke" stroke-width="1"
	d="M760.34 183.00v-58.00"/>
<path class="stroke" stroke-width="3"
	d="M860.54 125.00v-24.00"/>
<path class="stroke" stroke-width="1"
	d="M856.04 125.00v-24.00"/>
<use x="852.04" y="125.00" xlink:href="#rdots"/>
<path class="stroke" stroke-width="3"
	d="M860.54 183.00v-58.00"/>
<path class="stroke" stroke-width="1"
	d="M856.04 183.00v-58.00"/>
<use x="852.04" y="183.00" xlink:href="#rdots"/>
<path d="m11.54 125.00
	h850.50
	M11.54 119.00
	h850.50
	M11.54 113.00
	h850.50
	M11.54 107.00
	h850.50
	M11.54 101.00
	h850.50
	" class="stroke"/>
<path d="m11.54 183.00
	h850.50
	M11.54 177.00
	h850.50
	M11.54 171.00
	h850.50
	M11.54 165.00
	h850.50
	M11.54 159.00
	h850.50
	" class="stroke"/>
</g>
<g stroke-width="0.70" transform="scale(0.867)" font-family="Times" font-size="13.00">
<text x="764.34" y="86.40">1</text>
<path class="stroke"
	d="M760.34 75.00m0 20v-20h93.70v20"/>
<defs>
<path id="utclef" class="fill" d="m-50 -90
	c-72 -41 -72 -158 52 -188
	150 -10 220 188 90 256
	-114 52 -275 0 -293 -136
	-15 -181 93 -229 220 -334
	88 -87 79 -133 62 -210
	-51 33 -94 105 -89 186
	17 267 36 374 49 574
	6 96 -19 134 -77 135
	-80 1 -126 -93 -61 -133
	85 -41 133 101 31 105
	23 17 92 37 90 -92
	-10 -223 -39 -342 -50 -617
	0 -90 0 -162 96 -232
	56 72 63 230 22 289
	-74 106 -257 168 -255 316
	9 153 148 185 252 133
	86 -65 29 -192 -80 -176
	-71 12 -105 67 -59 124"/>
<use id="tclef" transform="translate(0,6) scale(0.045)"
	xlink:href="#utclef"/>
</defs>
<use x="23.54" y="119.00" xlink:href="#tclef"/>
<g font-family="serif" font-size="16" font-weight="bold" font-style="normal"
	transform="translate(42.04,124.50) scale(1.2,1)">
	<text text-anchor="middle">8</text>
	<text y="-12" text-anchor="middle">3</text>
</g>
<path class="fill"
	d="M80.74 123.10l73.00 9.20v-3.20l-73.00 -9.20"/>
<path class="fill"
	d="M104.24 121.00l49.20 6.20v-3.20l-49.20 -6.20"/>
<use x="84.64" y="98.00" xlink:href="#hd"/>
<path d="M81.14 98.00v24.10" class="stroke"/>
<use x="107.74" y="101.00" xlink:href="#hd"/>
<path d="M104.24 101.00v24.00" class="stroke"/>
<use x="124.14" y="104.00" xlink:href="#hd"/>
<path d="M120.64 104.00v23.10" class="stroke"/>
<use x="140.54" y="107.00" xlink:href="#hd"/>
<path d="M137.04 107.00v22.10" class="stroke"/>
<use x="156.94" y="110.00" xlink:href="#hd"/>
<path d="M153.44 110.00v21.20" class="stroke"/>
<path class="fill"
	d="M179.14 139.80l46.90 -3.20v-3.20l-46.90 3.20"/>
<use x="182.94" y="110.00" xlink:href="#hd"/>
<path d="M179.44 110.00v28.80" class="stroke"/>
<use x="206.04" y="119.00" xlink:href="#hd"/>
<path d="M202.54 119.00v18.20" class="stroke"/>
<use x="229.24" y="104.00" xlink:href="#hd"/>
<path d="M225.74 104.00v31.60" class="stroke"/>
<path class="fill"
	d="M256.54 129.00l82.80 6.20v-3.20l-82.80 -6.20"/>
<path class="fill"
	d="M256.94 124.10l82.10 6.10v-3.20l-82.10 -6.10"/>
<use x="260.44" y="101.00" xlink:href="#hd"/>
<path d="M256.94 101.00v27.10" class="stroke"/>
<use x="276.84" y="104.00" xlink:href="#hd"/>
<path d="M273.34 104.00v25.30" class="stroke"/>
<use x="293.24" y="101.00" xlink:href="#hd"/>
<path d="M289.74 101.00v29.50" class="stroke"/>
<use x="309.64" y="107.00" xlink:href="#hd"/>
<path d="M306.14 107.00v24.70" class="stroke"/>
<use x="326.04" y="110.00" xlink:href="#hd"/>
<path d="M322.54 110.00v23.00" class="stroke"/>
<use x="342.54" y="113.00" xlink:href="#hd"/>
<path d="M339.04 113.00v21.20" class="stroke"/>
<path class="fill"
	d="M364.64 127.00l56.60 0.00v-3.20l-56.60 -0.00"/>
<path class="fill"
	d="M388.14 122.00l16.40 0.00v-3.20l-16.40 -0.00"/>
<use x="368.54" y="104.00" xlink:href="#hd"/>
<path d="M365.04 104.00v22.00" class="stroke"/>
<use x="368.54" y="110.00" xlink:href="#hd"/>
<use x="391.64" y="104.00" xlink:href="#hd"/>
<path d="M388.14 104.00v22.00" class="stroke"/>
<use x="391.64" y="110.00" xlink:href="#hd"/>
<use x="408.04" y="101.00" xlink:href="#hd"/>
<path d="M404.54 101.00v25.00" class="stroke"/>
<use x="408.04" y="107.00" xlink:href="#hd"/>
<use x="424.44" y="98.00" xlink:href="#hd"/>
<path d="M420.94 98.00v28.00" class="stroke"/>
<use x="424.44" y="104.00" xlink:href="#hd"/>
<path class="fill"
	d="M451.84 139.50l84.30 -6.40v-3.20l-84.30 6.40"/>
<path class="fill"
	d="M452.14 134.40l83.70 -6.40v-3.20l-83.70 6.40"/>
<use x="455.64" y="107.00" xlink:href="#hd"/>
<path d="M452.14 107.00v31.40" class="stroke"/>
<use x="472.04" y="116.00" xlink:href="#hd"/>
<path d="M468.54 116.00v21.20" class="stroke"/>
<use x="490.04" y="101.00" xlink:href="#hd"/>
<defs>
<path id="usharp" class="fill" d="
	m136 -702
	v890
	h32
	v-890
	m128 840
	h32
	v-888
	h-32
	m-232 286
	v116
	l338 -96
	v-116
	m-338 442
	v116
	l338 -98
	v-114"/>
<use id="sh0" transform="translate(-4,5) scale(0.018)"
	xlink:href="#usharp"/>
</defs>
<use x="481.04" y="101.00" xlink:href="#sh0"/>
<path d="M486.54 101.00v34.80" class="stroke"/>
<use x="506.44" y="107.00" xlink:href="#hd"/>
<path d="M502.94 107.00v27.60" class="stroke"/>
<defs>
<path id="hl" class="stroke" d="m-6 0h12"/>
</defs>
<use x="522.94" y="95.00" xlink:href="#hl"/>
<use x="522.94" y="95.00" xlink:href="#hd"/>
<path d="M519.44 95.00v38.30" class="stroke"/>
<use x="539.34" y="101.00" xlink:href="#hd"/>
<path d="M535.84 101.00v31.10" class="stroke"/>
<path class="fill"
	d="M561.44 135.20l73.00 0.00v-3.20l-73.00 -0.00"/>
<path class="fill"
	d="M584.94 130.20l49.20 0.00v-3.20l-49.20 -0.00"/>
<use x="565.34" y="107.00" xlink:href="#hd"/>
<path d="M561.84 107.00v27.20" class="stroke"/>
<use x="588.44" y="98.00" xlink:href="#hd"/>
<path d="M584.94 98.00v36.20" class="stroke"/>
<use x="604.84" y="107.00" xlink:href="#hd"/>
<path d="M601.34 107.00v27.20" class="stroke"/>
<use x="621.24" y="113.00" xlink:href="#hd"/>
<path d="M617.74 113.00v21.20" class="stroke"/>
<use x="637.64" y="107.00" xlink:href="#hd"/>
<path d="M634.14 107.00v27.20" class="stroke"/>
<path class="fill"
	d="M659.84 127.00l84.40 0.00v-3.20l-84.40 -0.00"/>
<path class="fill"
	d="M660.14 122.00l83.70 0.00v-3.20l-83.70 -0.00"/>
<use x="663.64" y="104.00" xlink:href="#hd"/>
<path d="M660.14 104.00v22.00" class="stroke"/>
<use x="680.14" y="95.00" xlink:href="#hl"/>
<use x="680.14" y="89.00" xlink:href="#hl"/>
<use x="680.14" y="89.00" xlink:href="#hd"/>
<path d="M676.64 89.00v37.00" class="stroke"/>
<use x="696.54" y="95.00" xlink:href="#hl"/>
<use x="696.54" y="92.00" xlink:href="#hd"/>
<path d="M693.04 92.00v34.00" class="stroke"/>
<use x="712.94" y="98.00" xlink:href="#hd"/>
<path d="M709.44 98.00v28.00" class="stroke"/>
<use x="729.44" y="95.00" xlink:href="#hl"/>
<use x="729.44" y="95.00" xlink:href="#hd"/>
<path d="M725.94 95.00v31.00" class="stroke"/>
<use x="747.44" y="101.00" xlink:href="#hd"/>
<use x="738.44" y="101.00" xlink:href="#sh0"/>
<path d="M743.94 101.00v25.00" class="stroke"/>
<use x="773.44" y="98.00" xlink:href="#hd"/>
<path d="M769.94 98.00v40.00" class="stroke"/>
<use x="773.44" y="119.00" xlink:href="#hd"/>
<use x="773.44" y="113.00" xlink:href="#hd"/>
<use x="773.44" y="107.00" xlink:href="#hd"/>
<defs>
<path id="r8e" class="fill" d="m 0 0
	c-1.5 1.5 -2.4 2 -3.6 2
	2.4 -2.8 -2.8 -4 -2.8 -1.2
	c0 2.7 4.3 2.4 5.9 0.6"/>
<g id="r8">
	<path d="m3.3 -4l-3.4 9.6" class="stroke"/>
	<use x="3.4" y="-4" xlink:href="#r8e"/>
</g>
</defs>
<use x="830.94" y="113.00" xlink:href="#r8"/>
<defs>
<path id="ubclef" class="fill" d="m-200 -87
	c124 -35 222 -78 254 -236
	43 -228 -167 -246 -192 -103
	59 -80 157 22 92 78
	-62 47 -115 -22 -106 -88
	21 -141 270 -136 274 52
	-1 175 -106 264 -322 297
	m357 -250
	c0 -36 51 -34 51 0
	0 37 -51 36 -51 0
	m-2 -129
	c0 -36 51 -34 51 0
	0 38 -51 37 -51 0"/>
<use id="bclef" transform="translate(0,18) scale(0.045)"
	xlink:href="#ubclef"/>
</defs>
<use x="23.54" y="165.00" xlink:href="#bclef"/>
<g font-family="serif" font-size="16" font-weight="bold" font-style="normal"
	transform="translate(42.04,182.50) scale(1.2,1)">
	<text text-anchor="middle">8</text>
	<text y="-12" text-anchor="middle">3</text>
</g>
<use x="84.64" y="168.00" xlink:href="#hd"/>
<path d="M81.14 168.00v25.00" class="stroke"/>
<use x="84.64" y="174.00" xlink:href="#hd"/>
<use x="140.54" y="171.00" xlink:href="#r8"/>
<use x="182.94" y="168.00" xlink:href="#hd"/>
<path d="M179.44 168.00v25.00" class="stroke"/>
<use x="182.94" y="174.00" xlink:href="#hd"/>
<use x="229.24" y="171.00" xlink:href="#r8"/>
<use x="260.44" y="156.00" xlink:href="#hd"/>
<path d="M256.94 156.00v25.00" class="stroke"/>
<use x="260.44" y="162.00" xlink:href="#hd"/>
<use x="326.04" y="171.00" xlink:href="#r8"/>
<use x="368.54" y="174.00" xlink:href="#hd"/>
<path d="M372.04 174.00v-21.00" class="stroke"/>
<use x="424.44" y="171.00" xlink:href="#r8"/>
<use x="455.64" y="174.00" xlink:href="#hd"/>
<path d="M459.14 174.00v-21.00" class="stroke"/>
<use x="522.94" y="171.00" xlink:href="#r8"/>
<use x="565.34" y="162.00" xlink:href="#hd"/>
<path d="M561.84 162.00v34.00" class="stroke"/>
<use x="565.34" y="177.00" xlink:href="#hd"/>
<use x="621.24" y="171.00" xlink:href="#r8"/>
<path class="fill"
	d="M666.84 147.70l66.40 8.20v3.20l-66.40 -8.20"/>
<use x="663.64" y="174.00" xlink:href="#hd"/>
<path d="M667.14 174.00v-25.30" class="stroke"/>
<use x="696.54" y="171.00" xlink:href="#hd"/>
<path d="M700.04 171.00v-18.20" class="stroke"/>
<use x="729.44" y="189.00" xlink:href="#hl"/>
<use x="729.44" y="192.00" xlink:href="#hd"/>
<path d="M732.94 192.00v-35.10" class="stroke"/>
<path class="fill"
	d="M769.54 202.20l74.60 0.00v-3.20l-74.60 -0.00"/>
<path class="fill"
	d="M793.04 197.20l50.80 0.00v-3.20l-50.80 -0.00"/>
<use x="773.44" y="183.00" xlink:href="#hd"/>
<path d="M769.94 183.00v18.20" class="stroke"/>
<use x="796.54" y="162.00" xlink:href="#hd"/>
<path d="M793.04 162.00v39.20" class="stroke"/>
<use x="814.54" y="165.00" xlink:href="#hd"/>
<defs>
<path id="unat" class="fill" d="
	m96 -750
	h-32
	v716
	l32 -8
	182 -54
	v282
	h32
	v-706
	l-34 10
	-180 50
	v-290
	m0 592
	v-190
	l182 -52
	v188"/>
<use id="nt0" transform="translate(-3,5) scale(0.018)"
	xlink:href="#unat"/>
</defs>
<use x="805.54" y="165.00" xlink:href="#nt0"/>
<path d="M811.04 165.00v36.20" class="stroke"/>
<use x="830.94" y="168.00" xlink:href="#hd"/>
<path d="M827.44 168.00v33.20" class="stroke"/>
<use x="847.34" y="171.00" xlink:href="#hd"/>
<path d="M843.84 171.00v30.20" class="stroke"/>
</g>
<g stroke-width="0.70" transform="scale(0.867)" font-family="Times" font-size="13.00">
<path class="stroke" stroke-width="1"
	d="M11.54 316.00v-82.00"/>
<path class="fill"
	d="M6.54 231.00
	c10.5 1 12 -4.5 12 -3.5c0 1 -3.5 5.5 -8.5 5.5
	v84.00
	c5 0 8.5 4.5 8.5 5.5c0 1 -1.5 -4.5 -12 -3.5"/>
<use x="148.74" y="258.00" xlink:href="#rdots"/>
<path class="stroke" stroke-width="1"
	d="M144.74 258.00v-24.00"/>
<path class="stroke" stroke-width="3"
	d="M140.24 258.00v-24.00"/>
<use x="148.74" y="316.00" xlink:href="#rdots"/>
<path class="stroke" stroke-width="1"
	d="M144.74 316.00v-58.00"/>
<path class="stroke" stroke-width="3"
	d="M140.24 316.00v-58.00"/>
<path class="stroke" stroke-width="1"
	d="M238.44 258.00v-24.00"/>
<path class="stroke" stroke-width="1"
	d="M238.44 316.00v-58.00"/>
<path class="stroke" stroke-width="1"
	d="M323.94 258.00v-24.00"/>
<path class="stroke" stroke-width="1"
	d="M323.94 316.00v-58.00"/>
<path class="stroke" stroke-width="1"
	d="M420.54 258.00v-24.00"/>
<path class="stroke" stroke-width="1"
	d="M420.54 316.00v-58.00"/>
<path class="stroke" stroke-width="1"
	d="M515.64 258.00v-24.00"/>
<path class="stroke" stroke-width="1"
	d="M515.64 316.00v-58.00"/>
<path class="stroke" stroke-width="1"
	d="M591.64 258.00v-24.00"/>
<path class="stroke" stroke-width="1"
	d="M591.64 316.00v-58.00"/>
<path class="stroke" stroke-width="1"
	d="M697.74 258.00v-24.00"/>
<path class="stroke" stroke-width="1"
	d="M697.74 316.00v-58.00"/>
<path class="stroke" stroke-width="1"
	d="M783.24 258.00v-24.00"/>
<path class="stroke" stroke-width="1"
	d="M783.24 316.00v-58.00"/>
<path class="stroke" stroke-width="3"
	d="M860.54 258.00v-24.00"/>
<path class="stroke" stroke-width="1"
	d="M856.04 258.00v-24.00"/>
<use x="852.04" y="258.00" xlink:href="#rdots"/>
<path class="stroke" stroke-width="3"
	d="M860.54 316.00v-58.00"/>
<path class="stroke" stroke-width="1"
	d="M856.04 316.00v-58.00"/>
<use x="852.04" y="316.00" xlink:href="#rdots"/>
<path d="m11.54 258.00
	h850.50
	M11.54 252.00
	h850.50
	M11.54 246.00
	h850.50
	M11.54 240.00
	h850.50
	M11.54 234.00
	h850.50
	" class="stroke"/>
<path d="m11.54 316.00
	h850.50
	M11.54 310.00
	h850.50
	M11.54 304.00
	h850.50
	M11.54 298.00
	h850.50
	M11.54 292.00
	h850.50
	" class="stroke"/>
<text x="47.54" y="219.40">2</text>
<path class="stroke"
	d="M43.54 208.00m0 20v-20h94.20v20"/>
<use x="23.54" y="252.00" xlink:href="#tclef"/>
<use x="56.44" y="231.00" xlink:href="#hd"/>
<path d="M52.94 231.00v40.00" class="stroke"/>
<use x="56.44" y="252.00" xlink:href="#hd"/>
<use x="56.44" y="246.00" xlink:href="#hd"/>
<use x="56.44" y="240.00" xlink:href="#hd"/>
<use x="113.14" y="246.00" xlink:href="#r8"/>
<path class="fill"
	d="M164.44 252.20l46.30 0.00v-3.20l-46.30 -0.00"/>
<use x="168.24" y="234.00" xlink:href="#hd"/>
<use x="159.24" y="234.00" xlink:href="#sh0"/>
<path d="M164.74 234.00v17.20" class="stroke"/>
<use x="191.24" y="228.00" xlink:href="#hl"/>
<use x="191.24" y="228.00" xlink:href="#hd"/>
<path d="M187.74 228.00v23.20" class="stroke"/>
<use x="213.94" y="234.00" xlink:href="#hd"/>
<path d="M210.44 234.00v17.20" class="stroke"/>
<path class="fill"
	d="M247.44 254.20l55.60 5.10v-3.20l-55.60 -5.10"/>
<path class="fill"
	d="M247.74 249.20l16.10 1.50v-3.20l-16.10 -1.50"/>
<use x="251.24" y="231.00" xlink:href="#hd"/>
<path d="M247.74 231.00v22.20" class="stroke"/>
<use x="267.34" y="228.00" xlink:href="#hl"/>
<use x="267.34" y="225.00" xlink:href="#hd"/>
<path d="M263.84 225.00v29.70" class="stroke"/>
<use x="283.44" y="231.00" xlink:href="#hd"/>
<path d="M279.94 231.00v25.10" class="stroke"/>
<use x="306.14" y="240.00" xlink:href="#hd"/>
<path d="M302.64 240.00v18.20" class="stroke"/>
<path class="fill"
	d="M332.94 267.60l71.70 -7.40v-3.20l-71.70 7.40"/>
<path class="fill"
	d="M355.94 260.20l48.30 -5.00v-3.20l-48.30 5.00"/>
<use x="336.84" y="237.00" xlink:href="#hd"/>
<path d="M333.34 237.00v29.50" class="stroke"/>
<use x="359.44" y="243.00" xlink:href="#hd"/>
<path d="M355.94 243.00v21.20" class="stroke"/>
<use x="375.54" y="237.00" xlink:href="#hd"/>
<path d="M372.04 237.00v25.50" class="stroke"/>
<use x="391.64" y="231.00" xlink:href="#hd"/>
<path d="M388.14 231.00v29.90" class="stroke"/>
<use x="407.84" y="228.00" xlink:href="#hl"/>
<use x="407.84" y="222.00" xlink:href="#hl"/>
<use x="407.84" y="222.00" xlink:href="#hd"/>
<path d="M404.34 222.00v37.20" class="stroke"/>
<path class="fill"
	d="M429.54 262.30l65.10 9.00v-3.20l-65.10 -9.00"/>
<path class="fill"
	d="M429.84 257.30l48.30 6.70v-3.20l-48.30 -6.70"/>
<use x="433.34" y="231.00" xlink:href="#hd"/>
<path d="M429.84 231.00v30.30" class="stroke"/>
<use x="449.44" y="237.00" xlink:href="#hd"/>
<path d="M445.94 237.00v26.50" class="stroke"/>
<use x="465.54" y="240.00" xlink:href="#hd"/>
<path d="M462.04 240.00v25.80" class="stroke"/>
<use x="481.74" y="246.00" xlink:href="#hd"/>
<path d="M478.24 246.00v22.00" class="stroke"/>
<use x="497.84" y="252.00" xlink:href="#hd"/>
<path d="M494.34 252.00v18.20" class="stroke"/>
<path class="fill"
	d="M531.64 224.00l46.00 0.00v3.20l-46.00 -0.00"/>
<use x="528.44" y="258.00" xlink:href="#hd"/>
<path d="M531.94 258.00v-33.00" class="stroke"/>
<use x="528.44" y="243.00" xlink:href="#hd"/>
<use x="551.14" y="258.00" xlink:href="#hd"/>
<path d="M554.64 258.00v-33.00" class="stroke"/>
<use x="551.14" y="243.00" xlink:href="#hd"/>
<use x="573.84" y="258.00" xlink:href="#hd"/>
<path d="M577.34 258.00v-33.00" class="stroke"/>
<use x="573.84" y="243.00" xlink:href="#hd"/>
<path class="fill"
	d="M600.64 272.80l65.10 -3.30v-3.20l-65.10 3.30"/>
<use x="604.44" y="243.00" xlink:href="#hd"/>
<path d="M600.94 243.00v28.80" class="stroke"/>
<use x="636.64" y="252.00" xlink:href="#hd"/>
<path d="M633.14 252.00v18.20" class="stroke"/>
<use x="668.94" y="237.00" xlink:href="#hd"/>
<path d="M665.44 237.00v31.60" class="stroke"/>
<path class="fill"
	d="M706.74 260.00l55.60 0.00v-3.20l-55.60 -0.00"/>
<path class="fill"
	d="M707.04 255.00l16.10 0.00v-3.20l-16.10 -0.00"/>
<use x="710.54" y="234.00" xlink:href="#hd"/>
<path d="M707.04 234.00v25.00" class="stroke"/>
<use x="726.74" y="237.00" xlink:href="#hd"/>
<path d="M723.24 237.00v22.00" class="stroke"/>
<use x="742.84" y="240.00" xlink:href="#hd"/>
<path d="M739.34 240.00v19.00" class="stroke"/>
<use x="765.44" y="231.00" xlink:href="#hd"/>
<path d="M761.94 231.00v28.00" class="stroke"/>
<use x="796.14" y="243.00" xlink:href="#hd"/>
<path d="M792.64 243.00v21.00" class="stroke"/>
<use x="841.44" y="246.00" xlink:href="#r8"/>
<use x="23.54" y="298.00" xlink:href="#bclef"/>
<path class="fill"
	d="M52.54 335.20l73.60 -5.20v-3.20l-73.60 5.20"/>
<path class="fill"
	d="M75.54 328.60l50.20 -3.50v-3.20l-50.20 3.50"/>
<use x="56.44" y="316.00" xlink:href="#hd"/>
<path d="M52.94 316.00v18.20" class="stroke"/>
<use x="79.04" y="289.00" xlink:href="#hd"/>
<path d="M75.54 289.00v43.60" class="stroke"/>
<use x="95.14" y="295.00" xlink:href="#hd"/>
<path d="M91.64 295.00v36.50" class="stroke"/>
<use x="113.14" y="298.00" xlink:href="#hd"/>
<use x="104.14" y="298.00" xlink:href="#sh0"/>
<path d="M109.64 298.00v32.20" class="stroke"/>
<use x="129.24" y="301.00" xlink:href="#hd"/>
<path d="M125.74 301.00v28.10" class="stroke"/>
<path class="fill"
	d="M171.44 272.70l46.30 8.00v3.20l-46.30 -8.00"/>
<use x="168.24" y="292.00" xlink:href="#hd"/>
<path d="M171.74 292.00v-18.20" class="stroke"/>
<use x="191.24" y="298.00" xlink:href="#hd"/>
<use x="182.24" y="298.00" xlink:href="#sh0"/>
<path d="M194.74 298.00v-20.20" class="stroke"/>
<use x="213.94" y="304.00" xlink:href="#hd"/>
<path d="M217.44 304.00v-22.30" class="stroke"/>
<use x="251.24" y="310.00" xlink:href="#hd"/>
<path d="M254.74 310.00v-25.00" class="stroke"/>
<use x="251.24" y="304.00" xlink:href="#hd"/>
<use x="306.14" y="295.00" xlink:href="#hd"/>
<path d="M302.64 295.00v34.00" class="stroke"/>
<path class="fill"
	d="M302.64 329.00c0.6 -5.6 9.6 -9 5.6 -18.4
	1.6 6 -1.3 11.6 -5.6 12.8
"/>
<use x="306.14" y="310.00" xlink:href="#hd"/>
<use x="336.84" y="295.00" xlink:href="#hd"/>
<path d="M333.34 295.00v31.00" class="stroke"/>
<use x="336.84" y="307.00" xlink:href="#hd"/>
<use x="391.64" y="301.00" xlink:href="#hd"/>
<path d="M388.14 301.00v25.00" class="stroke"/>
<path class="fill"
	d="M388.14 326.00c0.6 -5.6 9.6 -9 5.6 -18.4
	1.6 6 -1.3 11.6 -5.6 12.8
"/>
<use x="391.64" y="307.00" xlink:href="#hd"/>
<path class="fill"
	d="M436.54 275.70l32.90 9.30v3.20l-32.90 -9.30"/>
<use x="433.34" y="295.00" xlink:href="#hd"/>
<path d="M436.84 295.00v-18.20" class="stroke"/>
<use x="465.54" y="316.00" xlink:href="#hd"/>
<path d="M469.04 316.00v-30.10" class="stroke"/>
<use x="497.84" y="304.00" xlink:href="#r8"/>
<path class="fill"
	d="M531.64 286.00l46.00 0.00v3.20l-46.00 -0.00"/>
<use x="528.44" y="307.00" xlink:href="#hd"/>
<path d="M531.94 307.00v-20.00" class="stroke"/>
<use x="551.14" y="307.00" xlink:href="#hd"/>
<path d="M554.64 307.00v-20.00" class="stroke"/>
<use x="573.84" y="307.00" xlink:href="#hd"/>
<path d="M577.34 307.00v-20.00" class="stroke"/>
<path class="fill"
	d="M600.64 323.90l81.20 0.00v-3.20l-81.20 -0.00"/>
<path class="fill"
	d="M600.94 318.90l80.50 0.00v-3.20l-80.50 -0.00"/>
<use x="604.44" y="301.00" xlink:href="#hd"/>
<path d="M600.94 301.00v21.90" class="stroke"/>
<use x="604.44" y="307.00" xlink:href="#hd"/>
<use x="620.54" y="295.00" xlink:href="#hd"/>
<path d="M617.04 295.00v27.90" class="stroke"/>
<use x="636.64" y="301.00" xlink:href="#hd"/>
<path d="M633.14 301.00v21.90" class="stroke"/>
<use x="636.64" y="307.00" xlink:href="#hd"/>
<use x="652.84" y="295.00" xlink:href="#hd"/>
<path d="M649.34 295.00v27.90" class="stroke"/>
<use x="668.94" y="301.00" xlink:href="#hd"/>
<path d="M665.44 301.00v21.90" class="stroke"/>
<use x="668.94" y="307.00" xlink:href="#hd"/>
<use x="685.04" y="295.00" xlink:href="#hd"/>
<path d="M681.54 295.00v27.90" class="stroke"/>
<path class="fill"
	d="M706.74 323.90l55.60 0.00v-3.20l-55.60 -0.00"/>
<path class="fill"
	d="M707.04 318.90l16.10 0.00v-3.20l-16.10 -0.00"/>
<use x="710.54" y="298.00" xlink:href="#hd"/>
<path d="M707.04 298.00v24.90" class="stroke"/>
<use x="726.74" y="301.00" xlink:href="#hd"/>
<path d="M723.24 301.00v21.90" class="stroke"/>
<use x="742.84" y="304.00" xlink:href="#hd"/>
<path d="M739.34 304.00v18.90" class="stroke"/>
<use x="765.44" y="295.00" xlink:href="#hd"/>
<path d="M761.94 295.00v27.90" class="stroke"/>
<path class="fill"
	d="M799.34 287.70l46.00 10.20v3.20l-46.00 -10.20"/>
<use x="796.14" y="307.00" xlink:href="#hd"/>
<path d="M799.64 307.00v-18.20" class="stroke"/>
<use x="818.84" y="316.00" xlink:href="#hd"/>
<path d="M822.34 316.00v-22.20" class="stroke"/>
<use x="841.44" y="322.00" xlink:href="#hl"/>
<use x="841.44" y="328.00" xlink:href="#hl"/>
<use x="841.44" y="328.00" xlink:href="#hd"/>
<path d="M844.94 328.00v-29.20" class="stroke"/>
<path class="fill"
	d="M164.44 326.20l54.30 0.00v-3.20l-54.30 -0.00"/>
<use x="168.24" y="304.00" xlink:href="#hd"/>
<path d="M164.74 304.00v21.20" class="stroke"/>
<use x="191.24" y="304.00" xlink:href="#hd"/>
<path d="M187.74 304.00v21.20" class="stroke"/>
<use x="221.94" y="307.00" xlink:href="#hd"/>
<path d="M218.44 307.00v18.20" class="stroke"/>
</g>
</svg>
