<?xml version="1.0" standalone="no"?>
<!DOCTYPE svg PUBLIC "-//W3C//DTD SVG 1.1//EN"
	"http://www.w3.org/Graphics/SVG/1.1/DTD/svg11.dtd">
<svg xmlns="http://www.w3.org/2000/svg" version="1.1"
	xmlns:xlink="http://www.w3.org/1999/xlink"
	color="black"
	width="757.10px" height="297.27px">
<style type="text/css">
.fill {fill: currentColor}
.stroke {stroke: currentColor; fill: none}
text{white-space: pre}
</style>
<title>./K516f-3-2-2-11-10-12-7-6-10-5-5-4-3-3-3-4.abc (3800) tune 1</title>
<!-- Creator: abcm2ps-8.13.8 -->
<!-- CreationDate: Sep  7, 2017 11:19 -->
<!-- CommandLine: ./K516f-3-2-2-11-10-12-7-6-10-5-5-4-3-3-3-4.abc -O ./K516f-3-2-2-11-10-12-7-6-10-5-5-4-3-3-3-4.svg -g -->
<rect width="100%" height="100%" fill="white"/>
<g stroke-width="0.70" transform="scale(0.867)">
<!-- title: 3-2-2-11-10-12-7-6-10-5-5-4-3-3-3-4 -->
</g>
<g stroke-width="0.70" transform="scale(0.867)" font-family="Times" font-size="20.00">
<text x="436.84" y="22.00" text-anchor="middle">3-2-2-11-10-12-7-6-10-5-5-4-3-3-3-4</text>
</g>
<g stroke-width="0.70" transform="scale(0.867)" font-family="Times" font-size="20.00">
<!-- subtitle: $1K.516f::32:22:141:61:75:37:118:107:65:176:7:132:174:18:116:79::$0 -->
</g>
<g stroke-width="0.70" transform="scale(0.867)" font-family="Courier" font-size="8.00" font-weight="bold">
<text x="436.84" y="41.80" text-anchor="middle">K.516f::32:22:141:61:75:37:118:107:65:176:7:132:174:18:116:79::</text>
</g>
<g stroke-width="0.70" transform="scale(0.867)" font-family="Courier" font-size="8.00" font-weight="bold">
<!-- subtitle: $1Perm. No.: 38006210454973$0 -->
<text x="436.84" y="60.80" text-anchor="middle">Perm. No.: 38006210454973</text>
</g>
<g stroke-width="0.70" transform="scale(0.607)" font-family="Courier" font-size="8.00" font-weight="bold">
<defs>
<ellipse id="hd" rx="4.1" ry="2.9"
	transform="rotate(-20)" class="fill"/>
</defs>
<use x="103.06" y="121.29" xlink:href="#hd"/>
<path d="M106.56 121.29v-21.00" class="stroke"/>
<path class="fill"
	d="M106.56 100.29c0.6 5.6 9.6 9 5.6 18.4
	1.6 -6 -1.3 -11.6 -5.6 -12.8
"/>
</g>
<g stroke-width="0.70" transform="scale(0.867)" font-family="Times" font-size="15.00" font-weight="bold">
<text x="81.24" y="87.00">= 111</text>
<path class="stroke" stroke-width="1"
	d="M11.54 183.00v-82.00"/>
<path class="fill"
	d="M6.54 98.00
	c10.5 1 12 -4.5 12 -3.5c0 1 -3.5 5.5 -8.5 5.5
	v84.00
	c5 0 8.5 4.5 8.5 5.5c0 1 -1.5 -4.5 -12 -3.5"/>
<defs>
<g id="rdots" class="fill">
	<circle cx="0" cy="-9" r="1.2"/>
	<circle cx="0" cy="-15" r="1.2"/>
</g>
</defs>
<use x="70.54" y="125.00" xlink:href="#rdots"/>
<path class="stroke" stroke-width="1"
	d="M66.54 125.00v-24.00"/>
<path class="stroke" stroke-width="3"
	d="M62.04 125.00v-24.00"/>
<use x="70.54" y="183.00" xlink:href="#rdots"/>
<path class="stroke" stroke-width="1"
	d="M66.54 183.00v-58.00"/>
<path class="stroke" stroke-width="3"
	d="M62.04 183.00v-58.00"/>
<path class="stroke" stroke-width="1"
	d="M154.64 125.00v-24.00"/>
<path class="stroke" stroke-width="1"
	d="M154.64 183.00v-58.00"/>
<path class="stroke" stroke-width="1"
	d="M237.74 125.00v-24.00"/>
<path class="stroke" stroke-width="1"
	d="M237.74 183.00v-58.00"/>
<path class="stroke" stroke-width="1"
	d="M353.44 125.00v-24.00"/>
<path class="stroke" stroke-width="1"
	d="M353.44 183.00v-58.00"/>
<path class="stroke" stroke-width="1"
	d="M446.84 125.00v-24.00"/>
<path class="stroke" stroke-width="1"
	d="M446.84 183.00v-58.00"/>
<path class="stroke" stroke-width="1"
	d="M534.54 125.00v-24.00"/>
<path class="stroke" stroke-width="1"
	d="M534.54 183.00v-58.00"/>
<path class="stroke" stroke-width="1"
	d="M638.24 125.00v-24.00"/>
<path class="stroke" stroke-width="1"
	d="M638.24 183.00v-58.00"/>
<path class="stroke" stroke-width="1"
	d="M754.34 125.00v-24.00"/>
<path class="stroke" stroke-width="1"
	d="M754.34 183.00v-58.00"/>
<path class="stroke" stroke-width="3"
	d="M860.54 125.00v-24.00"/>
<path class="stroke" stroke-width="1"
	d="M856.04 125.00v-24.00"/>
<use x="852.04" y="125.00" xlink:href="#rdots"/>
<path class="stroke" stroke-width="3"
	d="M860.54 183.00v-58.00"/>
<path class="stroke" stroke-width="1"
	d="M856.04 183.00v-58.00"/>
<use x="852.04" y="183.00" xlink:href="#rdots"/>
<path d="m11.54 125.00
	h850.50
	M11.54 119.00
	h850.50
	M11.54 113.00
	h850.50
	M11.54 107.00
	h850.50
	M11.54 101.00
	h850.50
	" class="stroke"/>
<path d="m11.54 183.00
	h850.50
	M11.54 177.00
	h850.50
	M11.54 171.00
	h850.50
	M11.54 165.00
	h850.50
	M11.54 159.00
	h850.50
	" class="stroke"/>
</g>
<g stroke-width="0.70" transform="scale(0.867)" font-family="Times" font-size="13.00">
<text x="758.34" y="86.40">1</text>
<path class="stroke"
	d="M754.34 75.00m0 20v-20h99.70v20"/>
<defs>
<path id="utclef" class="fill" d="m-50 -90
	c-72 -41 -72 -158 52 -188
	150 -10 220 188 90 256
	-114 52 -275 0 -293 -136
	-15 -181 93 -229 220 -334
	88 -87 79 -133 62 -210
	-51 33 -94 105 -89 186
	17 267 36 374 49 574
	6 96 -19 134 -77 135
	-80 1 -126 -93 -61 -133
	85 -41 133 101 31 105
	23 17 92 37 90 -92
	-10 -223 -39 -342 -50 -617
	0 -90 0 -162 96 -232
	56 72 63 230 22 289
	-74 106 -257 168 -255 316
	9 153 148 185 252 133
	86 -65 29 -192 -80 -176
	-71 12 -105 67 -59 124"/>
<use id="tclef" transform="translate(0,6) scale(0.045)"
	xlink:href="#utclef"/>
</defs>
<use x="23.54" y="119.00" xlink:href="#tclef"/>
<g font-family="serif" font-size="16" font-weight="bold" font-style="normal"
	transform="translate(42.04,124.50) scale(1.2,1)">
	<text text-anchor="middle">8</text>
	<text y="-12" text-anchor="middle">3</text>
</g>
<path class="fill"
	d="M81.54 138.20l50.50 -6.70v-3.20l-50.50 6.70"/>
<use x="85.44" y="119.00" xlink:href="#hd"/>
<path d="M81.94 119.00v18.20" class="stroke"/>
<use x="110.34" y="110.00" xlink:href="#hd"/>
<path d="M106.84 110.00v23.90" class="stroke"/>
<use x="135.24" y="104.00" xlink:href="#hd"/>
<path d="M131.74 104.00v26.60" class="stroke"/>
<path class="fill"
	d="M164.64 131.50l50.50 6.70v-3.20l-50.50 -6.70"/>
<use x="168.54" y="104.00" xlink:href="#hd"/>
<path d="M165.04 104.00v26.60" class="stroke"/>
<use x="193.44" y="110.00" xlink:href="#hd"/>
<path d="M189.94 110.00v23.90" class="stroke"/>
<use x="218.34" y="119.00" xlink:href="#hd"/>
<path d="M214.84 119.00v18.20" class="stroke"/>
<path class="fill"
	d="M247.74 133.00l88.80 0.00v-3.20l-88.80 -0.00"/>
<path class="fill"
	d="M248.14 128.00l88.10 0.00v-3.20l-88.10 -0.00"/>
<use x="251.64" y="107.00" xlink:href="#hd"/>
<path d="M248.14 107.00v24.90" class="stroke"/>
<use x="269.24" y="104.00" xlink:href="#hd"/>
<path d="M265.74 104.00v27.90" class="stroke"/>
<use x="286.84" y="101.00" xlink:href="#hd"/>
<path d="M283.34 101.00v30.90" class="stroke"/>
<use x="304.44" y="107.00" xlink:href="#hd"/>
<path d="M300.94 107.00v24.90" class="stroke"/>
<use x="322.04" y="110.00" xlink:href="#hd"/>
<path d="M318.54 110.00v21.90" class="stroke"/>
<use x="339.64" y="113.00" xlink:href="#hd"/>
<path d="M336.14 113.00v18.90" class="stroke"/>
<path class="fill"
	d="M363.44 135.40l60.80 -4.50v-3.20l-60.80 4.50"/>
<path class="fill"
	d="M388.64 128.50l17.60 -1.30v-3.20l-17.60 1.30"/>
<use x="367.24" y="110.00" xlink:href="#hd"/>
<path d="M363.74 110.00v24.40" class="stroke"/>
<use x="392.14" y="104.00" xlink:href="#hd"/>
<path d="M388.64 104.00v28.50" class="stroke"/>
<use x="409.84" y="110.00" xlink:href="#hd"/>
<path d="M406.34 110.00v21.20" class="stroke"/>
<use x="427.44" y="98.00" xlink:href="#hd"/>
<path d="M423.94 98.00v31.90" class="stroke"/>
<path class="fill"
	d="M461.44 125.20l50.50 0.00v-3.20l-50.50 -0.00"/>
<use x="465.34" y="101.00" xlink:href="#hd"/>
<defs>
<path id="usharp" class="fill" d="
	m136 -702
	v890
	h32
	v-890
	m128 840
	h32
	v-888
	h-32
	m-232 286
	v116
	l338 -96
	v-116
	m-338 442
	v116
	l338 -98
	v-114"/>
<use id="sh0" transform="translate(-4,5) scale(0.018)"
	xlink:href="#usharp"/>
</defs>
<use x="456.34" y="101.00" xlink:href="#sh0"/>
<path d="M461.84 101.00v23.20" class="stroke"/>
<use x="465.34" y="107.00" xlink:href="#hd"/>
<use x="490.24" y="101.00" xlink:href="#hd"/>
<path d="M486.74 101.00v23.20" class="stroke"/>
<use x="490.24" y="107.00" xlink:href="#hd"/>
<use x="515.14" y="101.00" xlink:href="#hd"/>
<path d="M511.64 101.00v23.20" class="stroke"/>
<use x="515.14" y="107.00" xlink:href="#hd"/>
<path class="fill"
	d="M544.54 123.90l71.10 8.30v-3.20l-71.10 -8.30"/>
<path class="fill"
	d="M544.94 118.90l52.80 6.20v-3.20l-52.80 -6.20"/>
<use x="548.44" y="98.00" xlink:href="#hd"/>
<path d="M544.94 98.00v24.90" class="stroke"/>
<defs>
<path id="hl" class="stroke" d="m-6 0h12"/>
</defs>
<use x="566.04" y="95.00" xlink:href="#hl"/>
<use x="566.04" y="92.00" xlink:href="#hd"/>
<path d="M562.54 92.00v33.00" class="stroke"/>
<use x="583.64" y="98.00" xlink:href="#hd"/>
<path d="M580.14 98.00v29.10" class="stroke"/>
<use x="601.24" y="107.00" xlink:href="#hd"/>
<path d="M597.74 107.00v22.10" class="stroke"/>
<use x="618.84" y="113.00" xlink:href="#hd"/>
<path d="M615.34 113.00v18.20" class="stroke"/>
<path class="fill"
	d="M648.34 127.00l89.10 0.00v-3.20l-89.10 -0.00"/>
<path class="fill"
	d="M648.64 122.00l88.50 0.00v-3.20l-88.50 -0.00"/>
<use x="652.14" y="104.00" xlink:href="#hd"/>
<path d="M648.64 104.00v22.00" class="stroke"/>
<use x="669.74" y="95.00" xlink:href="#hl"/>
<use x="669.74" y="95.00" xlink:href="#hd"/>
<path d="M666.24 95.00v31.00" class="stroke"/>
<use x="687.34" y="98.00" xlink:href="#hd"/>
<path d="M683.84 98.00v28.00" class="stroke"/>
<use x="705.04" y="95.00" xlink:href="#hl"/>
<use x="705.04" y="92.00" xlink:href="#hd"/>
<path d="M701.54 92.00v34.00" class="stroke"/>
<use x="723.04" y="101.00" xlink:href="#hd"/>
<use x="714.04" y="101.00" xlink:href="#sh0"/>
<path d="M719.54 101.00v25.00" class="stroke"/>
<use x="740.64" y="95.00" xlink:href="#hl"/>
<use x="740.64" y="95.00" xlink:href="#hd"/>
<path d="M737.14 95.00v31.00" class="stroke"/>
<use x="768.24" y="98.00" xlink:href="#hd"/>
<path d="M764.74 98.00v40.00" class="stroke"/>
<use x="768.24" y="119.00" xlink:href="#hd"/>
<use x="768.24" y="113.00" xlink:href="#hd"/>
<use x="768.24" y="107.00" xlink:href="#hd"/>
<defs>
<path id="r8e" class="fill" d="m 0 0
	c-1.5 1.5 -2.4 2 -3.6 2
	2.4 -2.8 -2.8 -4 -2.8 -1.2
	c0 2.7 4.3 2.4 5.9 0.6"/>
<g id="r8">
	<path d="m3.3 -4l-3.4 9.6" class="stroke"/>
	<use x="3.4" y="-4" xlink:href="#r8e"/>
</g>
</defs>
<use x="828.74" y="113.00" xlink:href="#r8"/>
<defs>
<path id="ubclef" class="fill" d="m-200 -87
	c124 -35 222 -78 254 -236
	43 -228 -167 -246 -192 -103
	59 -80 157 22 92 78
	-62 47 -115 -22 -106 -88
	21 -141 270 -136 274 52
	-1 175 -106 264 -322 297
	m357 -250
	c0 -36 51 -34 51 0
	0 37 -51 36 -51 0
	m-2 -129
	c0 -36 51 -34 51 0
	0 38 -51 37 -51 0"/>
<use id="bclef" transform="translate(0,18) scale(0.045)"
	xlink:href="#ubclef"/>
</defs>
<use x="23.54" y="165.00" xlink:href="#bclef"/>
<g font-family="serif" font-size="16" font-weight="bold" font-style="normal"
	transform="translate(42.04,182.50) scale(1.2,1)">
	<text text-anchor="middle">8</text>
	<text y="-12" text-anchor="middle">3</text>
</g>
<use x="85.44" y="168.00" xlink:href="#hd"/>
<path d="M81.94 168.00v25.00" class="stroke"/>
<use x="85.44" y="174.00" xlink:href="#hd"/>
<use x="135.24" y="171.00" xlink:href="#r8"/>
<use x="168.54" y="174.00" xlink:href="#hd"/>
<path d="M172.04 174.00v-21.00" class="stroke"/>
<use x="218.34" y="171.00" xlink:href="#r8"/>
<use x="251.64" y="162.00" xlink:href="#hd"/>
<path d="M248.14 162.00v34.00" class="stroke"/>
<use x="251.64" y="177.00" xlink:href="#hd"/>
<use x="322.04" y="183.00" xlink:href="#hd"/>
<path d="M325.54 183.00v-21.00" class="stroke"/>
<path class="fill"
	d="M325.54 162.00c0.6 5.6 9.6 9 5.6 18.4
	1.6 -6 -1.3 -11.6 -5.6 -12.8
"/>
<use x="367.24" y="162.00" xlink:href="#hd"/>
<path d="M363.74 162.00v25.00" class="stroke"/>
<use x="367.24" y="168.00" xlink:href="#hd"/>
<use x="427.44" y="171.00" xlink:href="#r8"/>
<path class="fill"
	d="M468.44 153.00l50.50 0.00v3.20l-50.50 -0.00"/>
<use x="465.34" y="174.00" xlink:href="#hd"/>
<path d="M468.84 174.00v-20.00" class="stroke"/>
<use x="490.24" y="174.00" xlink:href="#hd"/>
<path d="M493.74 174.00v-20.00" class="stroke"/>
<use x="515.14" y="174.00" xlink:href="#hd"/>
<path d="M518.64 174.00v-20.00" class="stroke"/>
<use x="548.44" y="177.00" xlink:href="#hd"/>
<path d="M551.94 177.00v-25.00" class="stroke"/>
<use x="548.44" y="171.00" xlink:href="#hd"/>
<use x="618.84" y="171.00" xlink:href="#r8"/>
<path class="fill"
	d="M655.34 147.60l71.50 8.40v3.20l-71.50 -8.40"/>
<use x="652.14" y="174.00" xlink:href="#hd"/>
<path d="M655.64 174.00v-25.30" class="stroke"/>
<use x="687.34" y="171.00" xlink:href="#hd"/>
<path d="M690.84 171.00v-18.20" class="stroke"/>
<use x="723.04" y="189.00" xlink:href="#hl"/>
<use x="723.04" y="192.00" xlink:href="#hd"/>
<path d="M726.54 192.00v-35.00" class="stroke"/>
<path class="fill"
	d="M764.34 202.20l78.80 0.00v-3.20l-78.80 -0.00"/>
<path class="fill"
	d="M789.64 197.20l53.20 0.00v-3.20l-53.20 -0.00"/>
<use x="768.24" y="183.00" xlink:href="#hd"/>
<path d="M764.74 183.00v18.20" class="stroke"/>
<use x="793.14" y="162.00" xlink:href="#hd"/>
<path d="M789.64 162.00v39.20" class="stroke"/>
<use x="811.14" y="165.00" xlink:href="#hd"/>
<defs>
<path id="unat" class="fill" d="
	m96 -750
	h-32
	v716
	l32 -8
	182 -54
	v282
	h32
	v-706
	l-34 10
	-180 50
	v-290
	m0 592
	v-190
	l182 -52
	v188"/>
<use id="nt0" transform="translate(-3,5) scale(0.018)"
	xlink:href="#unat"/>
</defs>
<use x="802.14" y="165.00" xlink:href="#nt0"/>
<path d="M807.64 165.00v36.20" class="stroke"/>
<use x="828.74" y="168.00" xlink:href="#hd"/>
<path d="M825.24 168.00v33.20" class="stroke"/>
<use x="846.34" y="171.00" xlink:href="#hd"/>
<path d="M842.84 171.00v30.20" class="stroke"/>
</g>
<g stroke-width="0.70" transform="scale(0.867)" font-family="Times" font-size="13.00">
<path class="stroke" stroke-width="1"
	d="M11.54 320.00v-86.00"/>
<path class="fill"
	d="M6.54 231.00
	c10.5 1 12 -4.5 12 -3.5c0 1 -3.5 5.5 -8.5 5.5
	v88.00
	c5 0 8.5 4.5 8.5 5.5c0 1 -1.5 -4.5 -12 -3.5"/>
<use x="144.84" y="258.00" xlink:href="#rdots"/>
<path class="stroke" stroke-width="1"
	d="M140.84 258.00v-24.00"/>
<path class="stroke" stroke-width="3"
	d="M136.34 258.00v-24.00"/>
<use x="144.84" y="320.00" xlink:href="#rdots"/>
<path class="stroke" stroke-width="1"
	d="M140.84 320.00v-62.00"/>
<path class="stroke" stroke-width="3"
	d="M136.34 320.00v-62.00"/>
<path class="stroke" stroke-width="1"
	d="M232.94 258.00v-24.00"/>
<path class="stroke" stroke-width="1"
	d="M232.94 320.00v-62.00"/>
<path class="stroke" stroke-width="1"
	d="M333.44 258.00v-24.00"/>
<path class="stroke" stroke-width="1"
	d="M333.44 320.00v-62.00"/>
<path class="stroke" stroke-width="1"
	d="M433.84 258.00v-24.00"/>
<path class="stroke" stroke-width="1"
	d="M433.84 320.00v-62.00"/>
<path class="stroke" stroke-width="1"
	d="M514.44 258.00v-24.00"/>
<path class="stroke" stroke-width="1"
	d="M514.44 320.00v-62.00"/>
<path class="stroke" stroke-width="1"
	d="M614.84 258.00v-24.00"/>
<path class="stroke" stroke-width="1"
	d="M614.84 320.00v-62.00"/>
<path class="stroke" stroke-width="1"
	d="M686.34 258.00v-24.00"/>
<path class="stroke" stroke-width="1"
	d="M686.34 320.00v-62.00"/>
<path class="stroke" stroke-width="1"
	d="M786.84 258.00v-24.00"/>
<path class="stroke" stroke-width="1"
	d="M786.84 320.00v-62.00"/>
<path class="stroke" stroke-width="3"
	d="M860.54 258.00v-24.00"/>
<path class="stroke" stroke-width="1"
	d="M856.04 258.00v-24.00"/>
<use x="852.04" y="258.00" xlink:href="#rdots"/>
<path class="stroke" stroke-width="3"
	d="M860.54 320.00v-62.00"/>
<path class="stroke" stroke-width="1"
	d="M856.04 320.00v-62.00"/>
<use x="852.04" y="320.00" xlink:href="#rdots"/>
<path d="m11.54 258.00
	h850.50
	M11.54 252.00
	h850.50
	M11.54 246.00
	h850.50
	M11.54 240.00
	h850.50
	M11.54 234.00
	h850.50
	" class="stroke"/>
<path d="m11.54 320.00
	h850.50
	M11.54 314.00
	h850.50
	M11.54 308.00
	h850.50
	M11.54 302.00
	h850.50
	M11.54 296.00
	h850.50
	" class="stroke"/>
<path class="fill"
	d="M627.34 241.00c6.02 -5.31 32.19 -10.52 38.21 -7.60
	v-0.24c-7.16 -4.68 -31.05 0.53 -38.21 7.84"/>
<text x="47.54" y="219.40">2</text>
<path class="stroke"
	d="M43.54 208.00m0 20v-20h90.30v20"/>
<use x="23.54" y="252.00" xlink:href="#tclef"/>
<use x="56.04" y="231.00" xlink:href="#hd"/>
<path d="M52.54 231.00v40.00" class="stroke"/>
<use x="56.04" y="252.00" xlink:href="#hd"/>
<use x="56.04" y="246.00" xlink:href="#hd"/>
<use x="56.04" y="240.00" xlink:href="#hd"/>
<use x="110.24" y="246.00" xlink:href="#r8"/>
<path class="fill"
	d="M160.44 272.60l52.60 -4.60v-3.20l-52.60 4.60"/>
<path class="fill"
	d="M160.84 267.50l15.10 -1.30v-3.20l-15.10 1.30"/>
<use x="164.34" y="240.00" xlink:href="#hd"/>
<path d="M160.84 240.00v31.50" class="stroke"/>
<use x="179.44" y="249.00" xlink:href="#hd"/>
<path d="M175.94 249.00v21.20" class="stroke"/>
<use x="194.54" y="240.00" xlink:href="#hd"/>
<path d="M191.04 240.00v28.90" class="stroke"/>
<use x="216.24" y="234.00" xlink:href="#hd"/>
<use x="207.24" y="234.00" xlink:href="#sh0"/>
<path d="M212.74 234.00v33.00" class="stroke"/>
<path class="fill"
	d="M241.64 260.00l76.10 0.00v-3.20l-76.10 -0.00"/>
<path class="fill"
	d="M241.94 255.00l75.40 0.00v-3.20l-75.40 -0.00"/>
<use x="245.44" y="228.00" xlink:href="#hl"/>
<use x="245.44" y="228.00" xlink:href="#hd"/>
<path d="M241.94 228.00v31.00" class="stroke"/>
<use x="260.54" y="231.00" xlink:href="#hd"/>
<path d="M257.04 231.00v28.00" class="stroke"/>
<use x="275.64" y="228.00" xlink:href="#hl"/>
<use x="275.64" y="225.00" xlink:href="#hd"/>
<path d="M272.14 225.00v34.00" class="stroke"/>
<use x="290.74" y="231.00" xlink:href="#hd"/>
<path d="M287.24 231.00v28.00" class="stroke"/>
<use x="305.84" y="240.00" xlink:href="#hd"/>
<path d="M302.34 240.00v19.00" class="stroke"/>
<use x="320.94" y="231.00" xlink:href="#hd"/>
<path d="M317.44 231.00v28.00" class="stroke"/>
<path class="fill"
	d="M342.04 266.60l76.10 -6.80v-3.20l-76.10 6.80"/>
<path class="fill"
	d="M342.44 261.60l75.40 -6.80v-3.20l-75.40 6.80"/>
<use x="345.94" y="237.00" xlink:href="#hd"/>
<path d="M342.44 237.00v28.60" class="stroke"/>
<use x="361.04" y="243.00" xlink:href="#hd"/>
<path d="M357.54 243.00v21.20" class="stroke"/>
<use x="376.14" y="237.00" xlink:href="#hd"/>
<path d="M372.64 237.00v25.80" class="stroke"/>
<use x="391.24" y="231.00" xlink:href="#hd"/>
<path d="M387.74 231.00v30.50" class="stroke"/>
<use x="406.24" y="228.00" xlink:href="#hl"/>
<use x="406.24" y="222.00" xlink:href="#hl"/>
<use x="406.24" y="222.00" xlink:href="#hd"/>
<path d="M402.74 222.00v38.10" class="stroke"/>
<use x="421.34" y="231.00" xlink:href="#hd"/>
<path d="M417.84 231.00v27.80" class="stroke"/>
<path class="fill"
	d="M449.54 219.20l52.00 6.20v3.20l-52.00 -6.20"/>
<path class="fill"
	d="M470.94 226.80l15.10 1.80v3.20l-15.10 -1.80"/>
<use x="446.34" y="243.00" xlink:href="#hd"/>
<path d="M449.84 243.00v-22.70" class="stroke"/>
<use x="446.34" y="237.00" xlink:href="#hd"/>
<use x="467.44" y="252.00" xlink:href="#hd"/>
<path d="M470.94 252.00v-29.20" class="stroke"/>
<use x="467.44" y="240.00" xlink:href="#hd"/>
<use x="482.54" y="252.00" xlink:href="#hd"/>
<path d="M486.04 252.00v-27.40" class="stroke"/>
<use x="482.54" y="246.00" xlink:href="#hd"/>
<use x="497.64" y="252.00" xlink:href="#hd"/>
<path d="M501.14 252.00v-25.60" class="stroke"/>
<path class="fill"
	d="M523.14 271.20l61.00 -7.00v-3.20l-61.00 7.00"/>
<use x="526.94" y="252.00" xlink:href="#hd"/>
<path d="M523.44 252.00v18.20" class="stroke"/>
<use x="557.14" y="243.00" xlink:href="#hd"/>
<path d="M553.64 243.00v23.70" class="stroke"/>
<use x="587.34" y="237.00" xlink:href="#hd"/>
<path d="M583.84 237.00v26.30" class="stroke"/>
<path class="fill"
	d="M623.54 271.30l42.90 -6.40v-3.20l-42.90 6.40"/>
<use x="627.34" y="252.00" xlink:href="#hd"/>
<path d="M623.84 252.00v18.20" class="stroke"/>
<use x="648.54" y="243.00" xlink:href="#hd"/>
<path d="M645.04 243.00v24.00" class="stroke"/>
<use x="669.64" y="237.00" xlink:href="#hd"/>
<path d="M666.14 237.00v26.90" class="stroke"/>
<path class="fill"
	d="M695.04 266.00l76.10 0.00v-3.20l-76.10 -0.00"/>
<path class="fill"
	d="M695.34 261.00l75.40 0.00v-3.20l-75.40 -0.00"/>
<use x="698.84" y="240.00" xlink:href="#hd"/>
<path d="M695.34 240.00v24.90" class="stroke"/>
<use x="713.94" y="234.00" xlink:href="#hd"/>
<path d="M710.44 234.00v30.90" class="stroke"/>
<use x="729.04" y="228.00" xlink:href="#hl"/>
<use x="729.04" y="228.00" xlink:href="#hd"/>
<path d="M725.54 228.00v36.90" class="stroke"/>
<use x="744.14" y="234.00" xlink:href="#hd"/>
<path d="M740.64 234.00v30.90" class="stroke"/>
<use x="759.24" y="240.00" xlink:href="#hd"/>
<path d="M755.74 240.00v24.90" class="stroke"/>
<use x="774.34" y="246.00" xlink:href="#hd"/>
<path d="M770.84 246.00v18.90" class="stroke"/>
<use x="799.34" y="243.00" xlink:href="#hd"/>
<path d="M795.84 243.00v21.00" class="stroke"/>
<use x="841.54" y="246.00" xlink:href="#r8"/>
<use x="23.54" y="302.00" xlink:href="#bclef"/>
<path class="fill"
	d="M52.24 339.20l70.00 -5.10v-3.20l-70.00 5.10"/>
<path class="fill"
	d="M73.64 332.70l48.20 -3.50v-3.20l-48.20 3.50"/>
<use x="56.04" y="320.00" xlink:href="#hd"/>
<path d="M52.54 320.00v18.20" class="stroke"/>
<use x="77.14" y="293.00" xlink:href="#hd"/>
<path d="M73.64 293.00v43.70" class="stroke"/>
<use x="92.24" y="299.00" xlink:href="#hd"/>
<path d="M88.74 299.00v36.60" class="stroke"/>
<use x="110.24" y="302.00" xlink:href="#hd"/>
<use x="101.24" y="302.00" xlink:href="#sh0"/>
<path d="M106.74 302.00v32.30" class="stroke"/>
<use x="125.34" y="305.00" xlink:href="#hd"/>
<path d="M121.84 305.00v28.20" class="stroke"/>
<use x="164.34" y="302.00" xlink:href="#hd"/>
<use x="155.34" y="302.00" xlink:href="#sh0"/>
<path d="M167.84 302.00v-21.00" class="stroke"/>
<use x="216.24" y="308.00" xlink:href="#r8"/>
<use x="245.44" y="314.00" xlink:href="#hd"/>
<path d="M248.94 314.00v-25.00" class="stroke"/>
<use x="245.44" y="308.00" xlink:href="#hd"/>
<use x="305.84" y="314.00" xlink:href="#hd"/>
<path d="M309.34 314.00v-25.00" class="stroke"/>
<path class="fill"
	d="M309.34 289.00c0.6 5.6 9.6 9 5.6 18.4
	1.6 -6 -1.3 -11.6 -5.6 -12.8
"/>
<use x="305.84" y="308.00" xlink:href="#hd"/>
<use x="345.94" y="299.00" xlink:href="#hd"/>
<path d="M342.44 299.00v31.00" class="stroke"/>
<use x="345.94" y="311.00" xlink:href="#hd"/>
<use x="406.24" y="308.00" xlink:href="#r8"/>
<path class="fill"
	d="M449.54 279.70l21.80 7.20v3.20l-21.80 -7.20"/>
<use x="446.34" y="299.00" xlink:href="#hd"/>
<path d="M449.84 299.00v-18.20" class="stroke"/>
<use x="467.44" y="320.00" xlink:href="#hd"/>
<path d="M470.94 320.00v-32.20" class="stroke"/>
<use x="497.64" y="308.00" xlink:href="#r8"/>
<path class="fill"
	d="M523.14 327.90l76.10 0.00v-3.20l-76.10 -0.00"/>
<path class="fill"
	d="M523.44 322.90l75.40 0.00v-3.20l-75.40 -0.00"/>
<use x="526.94" y="305.00" xlink:href="#hd"/>
<path d="M523.44 305.00v21.90" class="stroke"/>
<use x="526.94" y="311.00" xlink:href="#hd"/>
<use x="542.04" y="299.00" xlink:href="#hd"/>
<path d="M538.54 299.00v27.90" class="stroke"/>
<use x="557.14" y="305.00" xlink:href="#hd"/>
<path d="M553.64 305.00v21.90" class="stroke"/>
<use x="557.14" y="311.00" xlink:href="#hd"/>
<use x="572.24" y="299.00" xlink:href="#hd"/>
<path d="M568.74 299.00v27.90" class="stroke"/>
<use x="587.34" y="305.00" xlink:href="#hd"/>
<path d="M583.84 305.00v21.90" class="stroke"/>
<use x="587.34" y="311.00" xlink:href="#hd"/>
<use x="602.34" y="299.00" xlink:href="#hd"/>
<path d="M598.84 299.00v27.90" class="stroke"/>
<use x="627.34" y="305.00" xlink:href="#hd"/>
<path d="M623.84 305.00v25.00" class="stroke"/>
<use x="627.34" y="311.00" xlink:href="#hd"/>
<use x="669.64" y="299.00" xlink:href="#hd"/>
<path d="M666.14 299.00v31.00" class="stroke"/>
<path class="fill"
	d="M666.14 330.00c0.6 -5.6 9.6 -9 5.6 -18.4
	1.6 6 -1.3 11.6 -5.6 12.8
"/>
<use x="669.64" y="311.00" xlink:href="#hd"/>
<use x="698.84" y="302.00" xlink:href="#hd"/>
<path d="M695.34 302.00v21.00" class="stroke"/>
<use x="759.24" y="299.00" xlink:href="#hd"/>
<path d="M755.74 299.00v21.00" class="stroke"/>
<path class="fill"
	d="M755.74 320.00c0.6 -5.6 9.6 -9 5.6 -18.4
	1.6 6 -1.3 11.6 -5.6 12.8
"/>
<path class="fill"
	d="M802.44 291.70l42.90 9.90v3.20l-42.90 -9.90"/>
<use x="799.34" y="311.00" xlink:href="#hd"/>
<path d="M802.84 311.00v-18.20" class="stroke"/>
<use x="820.44" y="320.00" xlink:href="#hd"/>
<path d="M823.94 320.00v-22.30" class="stroke"/>
<use x="841.54" y="326.00" xlink:href="#hl"/>
<use x="841.54" y="332.00" xlink:href="#hl"/>
<use x="841.54" y="332.00" xlink:href="#hd"/>
<path d="M845.04 332.00v-29.50" class="stroke"/>
<use x="164.34" y="308.00" xlink:href="#hd"/>
<path d="M160.84 308.00v21.00" class="stroke"/>
</g>
</svg>
