<?xml version="1.0" standalone="no"?>
<!DOCTYPE svg PUBLIC "-//W3C//DTD SVG 1.1//EN"
	"http://www.w3.org/Graphics/SVG/1.1/DTD/svg11.dtd">
<svg xmlns="http://www.w3.org/2000/svg" version="1.1"
	xmlns:xlink="http://www.w3.org/1999/xlink"
	color="black"
	width="757.10px" height="300.73px">
<style type="text/css">
.fill {fill: currentColor}
.stroke {stroke: currentColor; fill: none}
text{white-space: pre}
</style>
<title>./K516f-10-11-4-2-6-7-3-4-9-8-5-10-7-12-9-10.abc (2746) tune 1</title>
<!-- Creator: abcm2ps-8.13.8 -->
<!-- CreationDate: Sep  7, 2017 11:17 -->
<!-- CommandLine: ./K516f-10-11-4-2-6-7-3-4-9-8-5-10-7-12-9-10.abc -O ./K516f-10-11-4-2-6-7-3-4-9-8-5-10-7-12-9-10.svg -g -->
<rect width="100%" height="100%" fill="white"/>
<g stroke-width="0.70" transform="scale(0.867)">
<!-- title: 10-11-4-2-6-7-3-4-9-8-5-10-7-12-9-10 -->
</g>
<g stroke-width="0.70" transform="scale(0.867)" font-family="Times" font-size="20.00">
<text x="436.84" y="22.00" text-anchor="middle">10-11-4-2-6-7-3-4-9-8-5-10-7-12-9-10</text>
</g>
<g stroke-width="0.70" transform="scale(0.867)" font-family="Times" font-size="20.00">
<!-- subtitle: $1K.516f::98:87:158:41:80:68:134:24:120:155:7:82:101:124:72:8::$0 -->
</g>
<g stroke-width="0.70" transform="scale(0.867)" font-family="Courier" font-size="8.00" font-weight="bold">
<text x="436.84" y="41.80" text-anchor="middle">K.516f::98:87:158:41:80:68:134:24:120:155:7:82:101:124:72:8::</text>
</g>
<g stroke-width="0.70" transform="scale(0.867)" font-family="Courier" font-size="8.00" font-weight="bold">
<!-- subtitle: $1Perm. No.: 274685825566876$0 -->
<text x="436.84" y="60.80" text-anchor="middle">Perm. No.: 274685825566876</text>
</g>
<g stroke-width="0.70" transform="scale(0.607)" font-family="Courier" font-size="8.00" font-weight="bold">
<defs>
<ellipse id="hd" rx="4.1" ry="2.9"
	transform="rotate(-20)" class="fill"/>
</defs>
<use x="103.06" y="121.29" xlink:href="#hd"/>
<path d="M106.56 121.29v-21.00" class="stroke"/>
<path class="fill"
	d="M106.56 100.29c0.6 5.6 9.6 9 5.6 18.4
	1.6 -6 -1.3 -11.6 -5.6 -12.8
"/>
</g>
<g stroke-width="0.70" transform="scale(0.867)" font-family="Times" font-size="15.00" font-weight="bold">
<text x="81.24" y="87.00">= 111</text>
<path class="stroke" stroke-width="1"
	d="M11.54 183.00v-82.00"/>
<path class="fill"
	d="M6.54 98.00
	c10.5 1 12 -4.5 12 -3.5c0 1 -3.5 5.5 -8.5 5.5
	v84.00
	c5 0 8.5 4.5 8.5 5.5c0 1 -1.5 -4.5 -12 -3.5"/>
<defs>
<g id="rdots" class="fill">
	<circle cx="0" cy="-9" r="1.2"/>
	<circle cx="0" cy="-15" r="1.2"/>
</g>
</defs>
<use x="70.54" y="125.00" xlink:href="#rdots"/>
<path class="stroke" stroke-width="1"
	d="M66.54 125.00v-24.00"/>
<path class="stroke" stroke-width="3"
	d="M62.04 125.00v-24.00"/>
<use x="70.54" y="183.00" xlink:href="#rdots"/>
<path class="stroke" stroke-width="1"
	d="M66.54 183.00v-58.00"/>
<path class="stroke" stroke-width="3"
	d="M62.04 183.00v-58.00"/>
<path class="stroke" stroke-width="1"
	d="M182.84 125.00v-24.00"/>
<path class="stroke" stroke-width="1"
	d="M182.84 183.00v-58.00"/>
<path class="stroke" stroke-width="1"
	d="M262.74 125.00v-24.00"/>
<path class="stroke" stroke-width="1"
	d="M262.74 183.00v-58.00"/>
<path class="stroke" stroke-width="1"
	d="M364.14 125.00v-24.00"/>
<path class="stroke" stroke-width="1"
	d="M364.14 183.00v-58.00"/>
<path class="stroke" stroke-width="1"
	d="M463.94 125.00v-24.00"/>
<path class="stroke" stroke-width="1"
	d="M463.94 183.00v-58.00"/>
<path class="stroke" stroke-width="1"
	d="M543.94 125.00v-24.00"/>
<path class="stroke" stroke-width="1"
	d="M543.94 183.00v-58.00"/>
<path class="stroke" stroke-width="1"
	d="M645.34 125.00v-24.00"/>
<path class="stroke" stroke-width="1"
	d="M645.34 183.00v-58.00"/>
<path class="stroke" stroke-width="1"
	d="M757.74 125.00v-24.00"/>
<path class="stroke" stroke-width="1"
	d="M757.74 183.00v-58.00"/>
<path class="stroke" stroke-width="3"
	d="M860.54 125.00v-24.00"/>
<path class="stroke" stroke-width="1"
	d="M856.04 125.00v-24.00"/>
<use x="852.04" y="125.00" xlink:href="#rdots"/>
<path class="stroke" stroke-width="3"
	d="M860.54 183.00v-58.00"/>
<path class="stroke" stroke-width="1"
	d="M856.04 183.00v-58.00"/>
<use x="852.04" y="183.00" xlink:href="#rdots"/>
<path d="m11.54 125.00
	h850.50
	M11.54 119.00
	h850.50
	M11.54 113.00
	h850.50
	M11.54 107.00
	h850.50
	M11.54 101.00
	h850.50
	" class="stroke"/>
<path d="m11.54 183.00
	h850.50
	M11.54 177.00
	h850.50
	M11.54 171.00
	h850.50
	M11.54 165.00
	h850.50
	M11.54 159.00
	h850.50
	" class="stroke"/>
</g>
<g stroke-width="0.70" transform="scale(0.867)" font-family="Times" font-size="13.00">
<text x="761.74" y="86.40">1</text>
<path class="stroke"
	d="M757.74 75.00m0 20v-20h96.30v20"/>
<defs>
<path id="utclef" class="fill" d="m-50 -90
	c-72 -41 -72 -158 52 -188
	150 -10 220 188 90 256
	-114 52 -275 0 -293 -136
	-15 -181 93 -229 220 -334
	88 -87 79 -133 62 -210
	-51 33 -94 105 -89 186
	17 267 36 374 49 574
	6 96 -19 134 -77 135
	-80 1 -126 -93 -61 -133
	85 -41 133 101 31 105
	23 17 92 37 90 -92
	-10 -223 -39 -342 -50 -617
	0 -90 0 -162 96 -232
	56 72 63 230 22 289
	-74 106 -257 168 -255 316
	9 153 148 185 252 133
	86 -65 29 -192 -80 -176
	-71 12 -105 67 -59 124"/>
<use id="tclef" transform="translate(0,6) scale(0.045)"
	xlink:href="#utclef"/>
</defs>
<use x="23.54" y="119.00" xlink:href="#tclef"/>
<g font-family="serif" font-size="16" font-weight="bold" font-style="normal"
	transform="translate(42.04,124.50) scale(1.2,1)">
	<text text-anchor="middle">8</text>
	<text y="-12" text-anchor="middle">3</text>
</g>
<path class="fill"
	d="M81.14 139.80l68.40 -3.30v-3.20l-68.40 3.30"/>
<use x="84.94" y="110.00" xlink:href="#hd"/>
<path d="M81.44 110.00v28.80" class="stroke"/>
<use x="118.84" y="119.00" xlink:href="#hd"/>
<path d="M115.34 119.00v18.20" class="stroke"/>
<use x="152.64" y="104.00" xlink:href="#hd"/>
<path d="M149.14 104.00v31.60" class="stroke"/>
<path class="fill"
	d="M192.44 127.60l48.50 3.20v-3.20l-48.50 -3.20"/>
<use x="196.24" y="98.00" xlink:href="#hd"/>
<path d="M192.74 98.00v28.60" class="stroke"/>
<use x="220.14" y="110.00" xlink:href="#hd"/>
<path d="M216.64 110.00v18.20" class="stroke"/>
<use x="244.04" y="104.00" xlink:href="#hd"/>
<path d="M240.54 104.00v25.80" class="stroke"/>
<path class="fill"
	d="M279.34 84.80l75.40 0.00v3.20l-75.40 -0.00"/>
<path class="fill"
	d="M303.54 89.80l50.80 0.00v3.20l-50.80 -0.00"/>
<use x="276.14" y="113.00" xlink:href="#hd"/>
<path d="M279.64 113.00v-27.20" class="stroke"/>
<use x="300.04" y="107.00" xlink:href="#hd"/>
<path d="M303.54 107.00v-21.20" class="stroke"/>
<use x="317.04" y="113.00" xlink:href="#hd"/>
<path d="M320.54 113.00v-27.20" class="stroke"/>
<use x="333.94" y="116.00" xlink:href="#hd"/>
<path d="M337.44 116.00v-30.20" class="stroke"/>
<use x="350.84" y="119.00" xlink:href="#hd"/>
<path d="M354.34 119.00v-33.20" class="stroke"/>
<path class="fill"
	d="M373.74 138.20l68.40 0.00v-3.20l-68.40 -0.00"/>
<path class="fill"
	d="M374.04 133.20l50.80 0.00v-3.20l-50.80 -0.00"/>
<use x="377.54" y="110.00" xlink:href="#hd"/>
<path d="M374.04 110.00v27.20" class="stroke"/>
<use x="394.44" y="113.00" xlink:href="#hd"/>
<path d="M390.94 113.00v24.20" class="stroke"/>
<use x="411.44" y="110.00" xlink:href="#hd"/>
<path d="M407.94 110.00v27.20" class="stroke"/>
<use x="428.34" y="104.00" xlink:href="#hd"/>
<path d="M424.84 104.00v33.20" class="stroke"/>
<use x="445.24" y="119.00" xlink:href="#hd"/>
<path d="M441.74 119.00v18.20" class="stroke"/>
<path class="fill"
	d="M473.54 136.80l48.60 -3.20v-3.20l-48.60 3.20"/>
<use x="477.34" y="107.00" xlink:href="#hd"/>
<path d="M473.84 107.00v28.80" class="stroke"/>
<use x="501.24" y="116.00" xlink:href="#hd"/>
<path d="M497.74 116.00v18.20" class="stroke"/>
<use x="525.34" y="101.00" xlink:href="#hd"/>
<defs>
<path id="usharp" class="fill" d="
	m136 -702
	v890
	h32
	v-890
	m128 840
	h32
	v-888
	h-32
	m-232 286
	v116
	l338 -96
	v-116
	m-338 442
	v116
	l338 -98
	v-114"/>
<use id="sh0" transform="translate(-4,5) scale(0.018)"
	xlink:href="#usharp"/>
</defs>
<use x="516.34" y="101.00" xlink:href="#sh0"/>
<path d="M521.84 101.00v31.60" class="stroke"/>
<path class="fill"
	d="M553.54 127.00l75.40 0.00v-3.20l-75.40 -0.00"/>
<path class="fill"
	d="M577.74 122.00l50.80 0.00v-3.20l-50.80 -0.00"/>
<use x="557.34" y="98.00" xlink:href="#hd"/>
<path d="M553.84 98.00v28.00" class="stroke"/>
<defs>
<path id="hl" class="stroke" d="m-6 0h12"/>
</defs>
<use x="581.24" y="95.00" xlink:href="#hl"/>
<use x="581.24" y="92.00" xlink:href="#hd"/>
<path d="M577.74 92.00v34.00" class="stroke"/>
<use x="598.24" y="98.00" xlink:href="#hd"/>
<path d="M594.74 98.00v28.00" class="stroke"/>
<use x="615.14" y="107.00" xlink:href="#hd"/>
<path d="M611.64 107.00v19.00" class="stroke"/>
<use x="632.14" y="98.00" xlink:href="#hd"/>
<path d="M628.64 98.00v28.00" class="stroke"/>
<path class="fill"
	d="M654.94 140.20l86.40 0.00v-3.20l-86.40 -0.00"/>
<path class="fill"
	d="M655.24 135.20l85.70 0.00v-3.20l-85.70 -0.00"/>
<use x="658.74" y="116.00" xlink:href="#hd"/>
<path d="M655.24 116.00v23.20" class="stroke"/>
<use x="675.74" y="104.00" xlink:href="#hd"/>
<path d="M672.24 104.00v35.20" class="stroke"/>
<use x="692.64" y="107.00" xlink:href="#hd"/>
<path d="M689.14 107.00v32.20" class="stroke"/>
<use x="692.64" y="113.00" xlink:href="#hd"/>
<use x="709.54" y="110.00" xlink:href="#hd"/>
<path d="M706.04 110.00v29.20" class="stroke"/>
<use x="709.54" y="116.00" xlink:href="#hd"/>
<use x="726.54" y="113.00" xlink:href="#hd"/>
<path d="M723.04 113.00v26.20" class="stroke"/>
<use x="726.54" y="119.00" xlink:href="#hd"/>
<use x="744.54" y="116.00" xlink:href="#hd"/>
<path d="M741.04 116.00v23.20" class="stroke"/>
<use x="744.54" y="122.00" xlink:href="#hd"/>
<use x="735.54" y="122.00" xlink:href="#sh0"/>
<use x="771.14" y="98.00" xlink:href="#hd"/>
<path d="M767.64 98.00v40.00" class="stroke"/>
<use x="771.14" y="119.00" xlink:href="#hd"/>
<use x="771.14" y="113.00" xlink:href="#hd"/>
<use x="771.14" y="107.00" xlink:href="#hd"/>
<defs>
<path id="r8e" class="fill" d="m 0 0
	c-1.5 1.5 -2.4 2 -3.6 2
	2.4 -2.8 -2.8 -4 -2.8 -1.2
	c0 2.7 4.3 2.4 5.9 0.6"/>
<g id="r8">
	<path d="m3.3 -4l-3.4 9.6" class="stroke"/>
	<use x="3.4" y="-4" xlink:href="#r8e"/>
</g>
</defs>
<use x="830.04" y="113.00" xlink:href="#r8"/>
<defs>
<path id="ubclef" class="fill" d="m-200 -87
	c124 -35 222 -78 254 -236
	43 -228 -167 -246 -192 -103
	59 -80 157 22 92 78
	-62 47 -115 -22 -106 -88
	21 -141 270 -136 274 52
	-1 175 -106 264 -322 297
	m357 -250
	c0 -36 51 -34 51 0
	0 37 -51 36 -51 0
	m-2 -129
	c0 -36 51 -34 51 0
	0 38 -51 37 -51 0"/>
<use id="bclef" transform="translate(0,18) scale(0.045)"
	xlink:href="#ubclef"/>
</defs>
<use x="23.54" y="165.00" xlink:href="#bclef"/>
<g font-family="serif" font-size="16" font-weight="bold" font-style="normal"
	transform="translate(42.04,182.50) scale(1.2,1)">
	<text text-anchor="middle">8</text>
	<text y="-12" text-anchor="middle">3</text>
</g>
<path class="fill"
	d="M81.14 190.90l85.40 0.00v-3.20l-85.40 -0.00"/>
<path class="fill"
	d="M81.44 185.90l84.70 0.00v-3.20l-84.70 -0.00"/>
<use x="84.94" y="168.00" xlink:href="#hd"/>
<path d="M81.44 168.00v21.90" class="stroke"/>
<use x="84.94" y="174.00" xlink:href="#hd"/>
<use x="101.84" y="162.00" xlink:href="#hd"/>
<path d="M98.34 162.00v27.90" class="stroke"/>
<use x="118.84" y="168.00" xlink:href="#hd"/>
<path d="M115.34 168.00v21.90" class="stroke"/>
<use x="118.84" y="174.00" xlink:href="#hd"/>
<use x="135.74" y="162.00" xlink:href="#hd"/>
<path d="M132.24 162.00v27.90" class="stroke"/>
<use x="152.64" y="168.00" xlink:href="#hd"/>
<path d="M149.14 168.00v21.90" class="stroke"/>
<use x="152.64" y="174.00" xlink:href="#hd"/>
<use x="169.64" y="162.00" xlink:href="#hd"/>
<path d="M166.14 162.00v27.90" class="stroke"/>
<use x="196.24" y="168.00" xlink:href="#hd"/>
<path d="M192.74 168.00v25.00" class="stroke"/>
<use x="196.24" y="174.00" xlink:href="#hd"/>
<use x="244.04" y="162.00" xlink:href="#hd"/>
<path d="M240.54 162.00v31.00" class="stroke"/>
<path class="fill"
	d="M240.54 193.00c0.6 -5.6 9.6 -9 5.6 -18.4
	1.6 6 -1.3 11.6 -5.6 12.8
"/>
<use x="244.04" y="174.00" xlink:href="#hd"/>
<use x="276.14" y="162.00" xlink:href="#hd"/>
<path d="M272.64 162.00v21.00" class="stroke"/>
<use x="333.94" y="171.00" xlink:href="#r8"/>
<use x="377.54" y="168.00" xlink:href="#hd"/>
<path d="M374.04 168.00v25.00" class="stroke"/>
<use x="377.54" y="174.00" xlink:href="#hd"/>
<use x="445.24" y="171.00" xlink:href="#r8"/>
<use x="477.34" y="174.00" xlink:href="#hd"/>
<path d="M480.84 174.00v-21.00" class="stroke"/>
<use x="525.34" y="171.00" xlink:href="#r8"/>
<use x="557.34" y="177.00" xlink:href="#hd"/>
<path d="M560.84 177.00v-21.00" class="stroke"/>
<use x="615.14" y="171.00" xlink:href="#r8"/>
<path class="fill"
	d="M661.94 147.70l68.40 8.30v3.20l-68.40 -8.30"/>
<use x="658.74" y="174.00" xlink:href="#hd"/>
<path d="M662.24 174.00v-25.30" class="stroke"/>
<use x="692.64" y="171.00" xlink:href="#hd"/>
<path d="M696.14 171.00v-18.20" class="stroke"/>
<use x="726.54" y="189.00" xlink:href="#hl"/>
<use x="726.54" y="192.00" xlink:href="#hd"/>
<path d="M730.04 192.00v-35.10" class="stroke"/>
<path class="fill"
	d="M767.34 202.20l76.40 0.00v-3.20l-76.40 -0.00"/>
<path class="fill"
	d="M791.54 197.20l51.90 0.00v-3.20l-51.90 -0.00"/>
<use x="771.14" y="183.00" xlink:href="#hd"/>
<path d="M767.64 183.00v18.20" class="stroke"/>
<use x="795.04" y="162.00" xlink:href="#hd"/>
<path d="M791.54 162.00v39.20" class="stroke"/>
<use x="813.04" y="165.00" xlink:href="#hd"/>
<defs>
<path id="unat" class="fill" d="
	m96 -750
	h-32
	v716
	l32 -8
	182 -54
	v282
	h32
	v-706
	l-34 10
	-180 50
	v-290
	m0 592
	v-190
	l182 -52
	v188"/>
<use id="nt0" transform="translate(-3,5) scale(0.018)"
	xlink:href="#unat"/>
</defs>
<use x="804.04" y="165.00" xlink:href="#nt0"/>
<path d="M809.54 165.00v36.20" class="stroke"/>
<use x="830.04" y="168.00" xlink:href="#hd"/>
<path d="M826.54 168.00v33.20" class="stroke"/>
<use x="846.94" y="171.00" xlink:href="#hd"/>
<path d="M843.44 171.00v30.20" class="stroke"/>
<defs>
<path id="turn" class="fill" d="
	m5.2 -8
	c1.4 0.5 0.9 4.8 -2.2 2.8
	l-4.8 -3.5
	c-3 -2 -5.8 1.8 -3.6 4.4
	1 1.1 2 0.8 2.1 -0.1
	0.1 -0.9 -0.7 -1.2 -1.9 -0.6
	-1.4 -0.5 -0.9 -4.8 2.2 -2.8
	l4.8 3.5
	c3 2 5.8 -1.8 3.6 -4.4
	-1 -1.1 -2 -0.8 -2.1 0.1
	-0.1 0.9 0.7 1.2 1.9 0.6"/>
</defs>
<use x="501.24" y="99.00" xlink:href="#turn"/>
</g>
<g stroke-width="0.70" transform="scale(0.867)" font-family="Times" font-size="13.00">
<path class="stroke" stroke-width="1"
	d="M11.54 324.00v-90.00"/>
<path class="fill"
	d="M6.54 231.00
	c10.5 1 12 -4.5 12 -3.5c0 1 -3.5 5.5 -8.5 5.5
	v92.00
	c5 0 8.5 4.5 8.5 5.5c0 1 -1.5 -4.5 -12 -3.5"/>
<use x="143.54" y="258.00" xlink:href="#rdots"/>
<path class="stroke" stroke-width="1"
	d="M139.54 258.00v-24.00"/>
<path class="stroke" stroke-width="3"
	d="M135.04 258.00v-24.00"/>
<use x="143.54" y="324.00" xlink:href="#rdots"/>
<path class="stroke" stroke-width="1"
	d="M139.54 324.00v-66.00"/>
<path class="stroke" stroke-width="3"
	d="M135.04 324.00v-66.00"/>
<path class="stroke" stroke-width="1"
	d="M243.64 258.00v-24.00"/>
<path class="stroke" stroke-width="1"
	d="M243.64 324.00v-66.00"/>
<path class="stroke" stroke-width="1"
	d="M342.34 258.00v-24.00"/>
<path class="stroke" stroke-width="1"
	d="M342.34 324.00v-66.00"/>
<path class="stroke" stroke-width="1"
	d="M441.14 258.00v-24.00"/>
<path class="stroke" stroke-width="1"
	d="M441.14 324.00v-66.00"/>
<path class="stroke" stroke-width="1"
	d="M520.64 258.00v-24.00"/>
<path class="stroke" stroke-width="1"
	d="M520.64 324.00v-66.00"/>
<path class="stroke" stroke-width="1"
	d="M619.34 258.00v-24.00"/>
<path class="stroke" stroke-width="1"
	d="M619.34 324.00v-66.00"/>
<path class="stroke" stroke-width="1"
	d="M689.34 258.00v-24.00"/>
<path class="stroke" stroke-width="1"
	d="M689.34 324.00v-66.00"/>
<path class="stroke" stroke-width="1"
	d="M788.04 258.00v-24.00"/>
<path class="stroke" stroke-width="1"
	d="M788.04 324.00v-66.00"/>
<path class="stroke" stroke-width="3"
	d="M860.54 258.00v-24.00"/>
<path class="stroke" stroke-width="1"
	d="M856.04 258.00v-24.00"/>
<use x="852.04" y="258.00" xlink:href="#rdots"/>
<path class="stroke" stroke-width="3"
	d="M860.54 324.00v-66.00"/>
<path class="stroke" stroke-width="1"
	d="M856.04 324.00v-66.00"/>
<use x="852.04" y="324.00" xlink:href="#rdots"/>
<path d="m11.54 258.00
	h850.50
	M11.54 252.00
	h850.50
	M11.54 246.00
	h850.50
	M11.54 240.00
	h850.50
	M11.54 234.00
	h850.50
	" class="stroke"/>
<path d="m11.54 324.00
	h850.50
	M11.54 318.00
	h850.50
	M11.54 312.00
	h850.50
	M11.54 306.00
	h850.50
	M11.54 300.00
	h850.50
	" class="stroke"/>
<text x="47.54" y="219.40">2</text>
<path class="stroke"
	d="M43.54 208.00m0 20v-20h89.00v20"/>
<use x="23.54" y="252.00" xlink:href="#tclef"/>
<use x="56.04" y="231.00" xlink:href="#hd"/>
<path d="M52.54 231.00v40.00" class="stroke"/>
<use x="56.04" y="252.00" xlink:href="#hd"/>
<use x="56.04" y="246.00" xlink:href="#hd"/>
<use x="56.04" y="240.00" xlink:href="#hd"/>
<use x="109.34" y="246.00" xlink:href="#r8"/>
<path class="fill"
	d="M159.24 260.60l68.80 10.70v-3.20l-68.80 -10.70"/>
<path class="fill"
	d="M180.24 258.80l47.50 7.40v-3.20l-47.50 -7.40"/>
<use x="163.04" y="228.00" xlink:href="#hl"/>
<use x="163.04" y="222.00" xlink:href="#hl"/>
<use x="163.04" y="219.00" xlink:href="#hd"/>
<path d="M159.54 219.00v40.70" class="stroke"/>
<use x="183.74" y="228.00" xlink:href="#hl"/>
<use x="183.74" y="228.00" xlink:href="#hd"/>
<path d="M180.24 228.00v34.80" class="stroke"/>
<use x="201.74" y="234.00" xlink:href="#hd"/>
<use x="192.74" y="234.00" xlink:href="#sh0"/>
<path d="M198.24 234.00v31.60" class="stroke"/>
<use x="216.44" y="240.00" xlink:href="#hd"/>
<path d="M212.94 240.00v27.90" class="stroke"/>
<use x="231.14" y="249.00" xlink:href="#hd"/>
<path d="M227.64 249.00v21.20" class="stroke"/>
<path class="fill"
	d="M252.34 263.40l74.40 10.80v-3.20l-74.40 -10.80"/>
<path class="fill"
	d="M252.64 258.50l73.70 10.70v-3.20l-73.70 -10.70"/>
<use x="256.14" y="231.00" xlink:href="#hd"/>
<path d="M252.64 231.00v31.50" class="stroke"/>
<use x="270.94" y="228.00" xlink:href="#hl"/>
<use x="270.94" y="225.00" xlink:href="#hd"/>
<path d="M267.44 225.00v39.60" class="stroke"/>
<use x="285.64" y="231.00" xlink:href="#hd"/>
<path d="M282.14 231.00v35.80" class="stroke"/>
<use x="300.44" y="240.00" xlink:href="#hd"/>
<path d="M296.94 240.00v28.90" class="stroke"/>
<use x="315.14" y="246.00" xlink:href="#hd"/>
<path d="M311.64 246.00v25.10" class="stroke"/>
<use x="329.84" y="252.00" xlink:href="#hd"/>
<path d="M326.34 252.00v21.20" class="stroke"/>
<path class="fill"
	d="M351.04 266.60l74.40 -6.80v-3.20l-74.40 6.80"/>
<path class="fill"
	d="M351.34 261.50l73.70 -6.70v-3.20l-73.70 6.70"/>
<use x="354.84" y="237.00" xlink:href="#hd"/>
<path d="M351.34 237.00v28.50" class="stroke"/>
<use x="369.64" y="243.00" xlink:href="#hd"/>
<path d="M366.14 243.00v21.20" class="stroke"/>
<use x="384.34" y="237.00" xlink:href="#hd"/>
<path d="M380.84 237.00v25.90" class="stroke"/>
<use x="399.14" y="231.00" xlink:href="#hd"/>
<path d="M395.64 231.00v30.50" class="stroke"/>
<use x="413.84" y="228.00" xlink:href="#hl"/>
<use x="413.84" y="222.00" xlink:href="#hl"/>
<use x="413.84" y="222.00" xlink:href="#hd"/>
<path d="M410.34 222.00v38.20" class="stroke"/>
<use x="428.64" y="231.00" xlink:href="#hd"/>
<path d="M425.14 231.00v27.80" class="stroke"/>
<path class="fill"
	d="M449.74 273.70l50.70 -4.30v-3.20l-50.70 4.30"/>
<path class="fill"
	d="M450.14 268.70l14.70 -1.20v-3.20l-14.70 1.20"/>
<use x="453.64" y="240.00" xlink:href="#hd"/>
<path d="M450.14 240.00v32.70" class="stroke"/>
<use x="468.34" y="246.00" xlink:href="#hd"/>
<path d="M464.84 246.00v25.40" class="stroke"/>
<use x="483.04" y="252.00" xlink:href="#hd"/>
<path d="M479.54 252.00v18.20" class="stroke"/>
<use x="503.64" y="231.00" xlink:href="#hd"/>
<path d="M500.14 231.00v37.50" class="stroke"/>
<path class="fill"
	d="M529.24 263.50l74.40 -6.30v-3.20l-74.40 6.30"/>
<path class="fill"
	d="M529.64 258.40l73.70 -6.20v-3.20l-73.70 6.20"/>
<use x="533.14" y="237.00" xlink:href="#hd"/>
<path d="M529.64 237.00v25.40" class="stroke"/>
<use x="547.84" y="240.00" xlink:href="#hd"/>
<path d="M544.34 240.00v21.20" class="stroke"/>
<use x="562.54" y="237.00" xlink:href="#hd"/>
<path d="M559.04 237.00v23.00" class="stroke"/>
<use x="577.34" y="231.00" xlink:href="#hd"/>
<path d="M573.84 231.00v27.70" class="stroke"/>
<use x="592.04" y="228.00" xlink:href="#hl"/>
<use x="592.04" y="222.00" xlink:href="#hl"/>
<use x="592.04" y="222.00" xlink:href="#hd"/>
<path d="M588.54 222.00v35.50" class="stroke"/>
<use x="606.84" y="231.00" xlink:href="#hd"/>
<path d="M603.34 231.00v25.20" class="stroke"/>
<path class="fill"
	d="M634.94 224.00l41.70 0.00v3.20l-41.70 -0.00"/>
<use x="631.84" y="258.00" xlink:href="#hd"/>
<path d="M635.34 258.00v-33.00" class="stroke"/>
<use x="631.84" y="243.00" xlink:href="#hd"/>
<use x="652.34" y="258.00" xlink:href="#hd"/>
<path d="M655.84 258.00v-33.00" class="stroke"/>
<use x="652.34" y="243.00" xlink:href="#hd"/>
<use x="672.84" y="258.00" xlink:href="#hd"/>
<path d="M676.34 258.00v-33.00" class="stroke"/>
<use x="672.84" y="243.00" xlink:href="#hd"/>
<path class="fill"
	d="M697.94 266.00l74.40 0.00v-3.20l-74.40 -0.00"/>
<path class="fill"
	d="M698.34 261.00l73.70 0.00v-3.20l-73.70 -0.00"/>
<use x="701.84" y="234.00" xlink:href="#hd"/>
<path d="M698.34 234.00v30.90" class="stroke"/>
<use x="716.54" y="237.00" xlink:href="#hd"/>
<path d="M713.04 237.00v27.90" class="stroke"/>
<use x="731.24" y="240.00" xlink:href="#hd"/>
<path d="M727.74 240.00v24.90" class="stroke"/>
<use x="746.04" y="243.00" xlink:href="#hd"/>
<path d="M742.54 243.00v21.90" class="stroke"/>
<use x="760.74" y="246.00" xlink:href="#hd"/>
<path d="M757.24 246.00v18.90" class="stroke"/>
<use x="775.54" y="240.00" xlink:href="#hd"/>
<path d="M772.04 240.00v24.90" class="stroke"/>
<use x="800.54" y="243.00" xlink:href="#hd"/>
<path d="M797.04 243.00v21.00" class="stroke"/>
<use x="841.54" y="246.00" xlink:href="#r8"/>
<use x="23.54" y="306.00" xlink:href="#bclef"/>
<path class="fill"
	d="M52.24 343.20l68.70 -5.00v-3.20l-68.70 5.00"/>
<path class="fill"
	d="M73.04 336.70l47.50 -3.50v-3.20l-47.50 3.50"/>
<use x="56.04" y="324.00" xlink:href="#hd"/>
<path d="M52.54 324.00v18.20" class="stroke"/>
<use x="76.54" y="297.00" xlink:href="#hd"/>
<path d="M73.04 297.00v43.70" class="stroke"/>
<use x="91.34" y="303.00" xlink:href="#hd"/>
<path d="M87.84 303.00v36.60" class="stroke"/>
<use x="109.34" y="306.00" xlink:href="#hd"/>
<use x="100.34" y="306.00" xlink:href="#sh0"/>
<path d="M105.84 306.00v32.30" class="stroke"/>
<use x="124.04" y="309.00" xlink:href="#hd"/>
<path d="M120.54 309.00v28.30" class="stroke"/>
<use x="163.04" y="306.00" xlink:href="#hd"/>
<use x="154.04" y="306.00" xlink:href="#sh0"/>
<path d="M159.54 306.00v25.00" class="stroke"/>
<use x="163.04" y="312.00" xlink:href="#hd"/>
<use x="216.44" y="306.00" xlink:href="#hd"/>
<path d="M212.94 306.00v28.00" class="stroke"/>
<path class="fill"
	d="M212.94 334.00c0.6 -5.6 9.6 -9 5.6 -18.4
	1.6 6 -1.3 11.6 -5.6 12.8
"/>
<use x="216.44" y="315.00" xlink:href="#hd"/>
<use x="256.14" y="318.00" xlink:href="#hd"/>
<path d="M259.64 318.00v-25.00" class="stroke"/>
<use x="256.14" y="312.00" xlink:href="#hd"/>
<use x="315.14" y="312.00" xlink:href="#r8"/>
<use x="354.84" y="303.00" xlink:href="#hd"/>
<path d="M351.34 303.00v31.00" class="stroke"/>
<use x="354.84" y="315.00" xlink:href="#hd"/>
<use x="413.84" y="312.00" xlink:href="#r8"/>
<use x="453.64" y="303.00" xlink:href="#hd"/>
<path d="M457.14 303.00v-21.00" class="stroke"/>
<use x="503.64" y="318.00" xlink:href="#hd"/>
<path d="M507.14 318.00v-25.00" class="stroke"/>
<path class="fill"
	d="M507.14 293.00c0.6 5.6 9.6 9 5.6 18.4
	1.6 -6 -1.3 -11.6 -5.6 -12.8
"/>
<use x="503.64" y="312.00" xlink:href="#hd"/>
<use x="533.14" y="303.00" xlink:href="#hd"/>
<path d="M536.64 303.00v-21.00" class="stroke"/>
<use x="592.04" y="309.00" xlink:href="#hd"/>
<path d="M595.54 309.00v-21.00" class="stroke"/>
<path class="fill"
	d="M595.54 288.00c0.6 5.6 9.6 9 5.6 18.4
	1.6 -6 -1.3 -11.6 -5.6 -12.8
"/>
<path class="fill"
	d="M634.94 294.00l41.70 0.00v3.20l-41.70 -0.00"/>
<use x="631.84" y="315.00" xlink:href="#hd"/>
<path d="M635.34 315.00v-20.00" class="stroke"/>
<use x="652.34" y="315.00" xlink:href="#hd"/>
<path d="M655.84 315.00v-20.00" class="stroke"/>
<use x="672.84" y="315.00" xlink:href="#hd"/>
<path d="M676.34 315.00v-20.00" class="stroke"/>
<use x="701.84" y="306.00" xlink:href="#hd"/>
<path d="M698.34 306.00v21.00" class="stroke"/>
<use x="760.74" y="303.00" xlink:href="#hd"/>
<path d="M757.24 303.00v21.00" class="stroke"/>
<path class="fill"
	d="M757.24 324.00c0.6 -5.6 9.6 -9 5.6 -18.4
	1.6 6 -1.3 11.6 -5.6 12.8
"/>
<path class="fill"
	d="M803.64 295.70l41.70 9.70v3.20l-41.70 -9.70"/>
<use x="800.54" y="315.00" xlink:href="#hd"/>
<path d="M804.04 315.00v-18.20" class="stroke"/>
<use x="821.04" y="324.00" xlink:href="#hd"/>
<path d="M824.54 324.00v-22.40" class="stroke"/>
<use x="841.54" y="330.00" xlink:href="#hl"/>
<use x="841.54" y="336.00" xlink:href="#hl"/>
<use x="841.54" y="336.00" xlink:href="#hd"/>
<path d="M845.04 336.00v-29.60" class="stroke"/>
<use x="453.64" y="318.00" xlink:href="#hd"/>
<path d="M450.14 318.00v21.00" class="stroke"/>
<use x="533.14" y="315.00" xlink:href="#hd"/>
<path d="M529.64 315.00v21.00" class="stroke"/>
<use x="592.04" y="315.00" xlink:href="#hd"/>
<path d="M588.54 315.00v21.00" class="stroke"/>
<path class="fill"
	d="M588.54 336.00c0.6 -5.6 9.6 -9 5.6 -18.4
	1.6 6 -1.3 11.6 -5.6 12.8
"/>
</g>
</svg>
