<?xml version="1.0" standalone="no"?>
<!DOCTYPE svg PUBLIC "-//W3C//DTD SVG 1.1//EN"
	"http://www.w3.org/Graphics/SVG/1.1/DTD/svg11.dtd">
<svg xmlns="http://www.w3.org/2000/svg" version="1.1"
	xmlns:xlink="http://www.w3.org/1999/xlink"
	color="black"
	width="757.10px" height="296.40px">
<style type="text/css">
.fill {fill: currentColor}
.stroke {stroke: currentColor; fill: none}
text{white-space: pre}
</style>
<title>./K516f-9-3-9-10-7-12-5-2-3-11-12-2-10-3-7-7.abc (1780) tune 1</title>
<!-- Creator: abcm2ps-8.13.8 -->
<!-- CreationDate: Sep  7, 2017 11:19 -->
<!-- CommandLine: ./K516f-9-3-9-10-7-12-5-2-3-11-12-2-10-3-7-7.abc -O ./K516f-9-3-9-10-7-12-5-2-3-11-12-2-10-3-7-7.svg -g -->
<rect width="100%" height="100%" fill="white"/>
<g stroke-width="0.70" transform="scale(0.867)">
<!-- title: 9-3-9-10-7-12-5-2-3-11-12-2-10-3-7-7 -->
</g>
<g stroke-width="0.70" transform="scale(0.867)" font-family="Times" font-size="20.00">
<text x="436.84" y="22.00" text-anchor="middle">9-3-9-10-7-12-5-2-3-11-12-2-10-3-7-7</text>
</g>
<g stroke-width="0.70" transform="scale(0.867)" font-family="Times" font-size="20.00">
<!-- subtitle: $1K.516f::119:06:114:156:154:37:159:30:117:4:108:9:137:18:23:151::$0 -->
</g>
<g stroke-width="0.70" transform="scale(0.867)" font-family="Courier" font-size="8.00" font-weight="bold">
<text x="436.84" y="41.80" text-anchor="middle">K.516f::119:06:114:156:154:37:159:30:117:4:108:9:137:18:23:151::</text>
</g>
<g stroke-width="0.70" transform="scale(0.867)" font-family="Courier" font-size="8.00" font-weight="bold">
<!-- subtitle: $1Perm. No.: 178060017665186$0 -->
<text x="436.84" y="60.80" text-anchor="middle">Perm. No.: 178060017665186</text>
</g>
<g stroke-width="0.70" transform="scale(0.607)" font-family="Courier" font-size="8.00" font-weight="bold">
<defs>
<ellipse id="hd" rx="4.1" ry="2.9"
	transform="rotate(-20)" class="fill"/>
</defs>
<use x="103.06" y="121.29" xlink:href="#hd"/>
<path d="M106.56 121.29v-21.00" class="stroke"/>
<path class="fill"
	d="M106.56 100.29c0.6 5.6 9.6 9 5.6 18.4
	1.6 -6 -1.3 -11.6 -5.6 -12.8
"/>
</g>
<g stroke-width="0.70" transform="scale(0.867)" font-family="Times" font-size="15.00" font-weight="bold">
<text x="81.24" y="87.00">= 111</text>
<path class="stroke" stroke-width="1"
	d="M11.54 183.00v-82.00"/>
<path class="fill"
	d="M6.54 98.00
	c10.5 1 12 -4.5 12 -3.5c0 1 -3.5 5.5 -8.5 5.5
	v84.00
	c5 0 8.5 4.5 8.5 5.5c0 1 -1.5 -4.5 -12 -3.5"/>
<defs>
<g id="rdots" class="fill">
	<circle cx="0" cy="-9" r="1.2"/>
	<circle cx="0" cy="-15" r="1.2"/>
</g>
</defs>
<use x="70.54" y="125.00" xlink:href="#rdots"/>
<path class="stroke" stroke-width="1"
	d="M66.54 125.00v-24.00"/>
<path class="stroke" stroke-width="3"
	d="M62.04 125.00v-24.00"/>
<use x="70.54" y="183.00" xlink:href="#rdots"/>
<path class="stroke" stroke-width="1"
	d="M66.54 183.00v-58.00"/>
<path class="stroke" stroke-width="3"
	d="M62.04 183.00v-58.00"/>
<path class="stroke" stroke-width="1"
	d="M181.54 125.00v-24.00"/>
<path class="stroke" stroke-width="1"
	d="M181.54 183.00v-58.00"/>
<path class="stroke" stroke-width="1"
	d="M260.34 125.00v-24.00"/>
<path class="stroke" stroke-width="1"
	d="M260.34 183.00v-58.00"/>
<path class="stroke" stroke-width="1"
	d="M339.24 125.00v-24.00"/>
<path class="stroke" stroke-width="1"
	d="M339.24 183.00v-58.00"/>
<path class="stroke" stroke-width="1"
	d="M437.74 125.00v-24.00"/>
<path class="stroke" stroke-width="1"
	d="M437.74 183.00v-58.00"/>
<path class="stroke" stroke-width="1"
	d="M550.34 125.00v-24.00"/>
<path class="stroke" stroke-width="1"
	d="M550.34 183.00v-58.00"/>
<path class="stroke" stroke-width="1"
	d="M648.84 125.00v-24.00"/>
<path class="stroke" stroke-width="1"
	d="M648.84 183.00v-58.00"/>
<path class="stroke" stroke-width="1"
	d="M758.84 125.00v-24.00"/>
<path class="stroke" stroke-width="1"
	d="M758.84 183.00v-58.00"/>
<path class="stroke" stroke-width="3"
	d="M860.54 125.00v-24.00"/>
<path class="stroke" stroke-width="1"
	d="M856.04 125.00v-24.00"/>
<use x="852.04" y="125.00" xlink:href="#rdots"/>
<path class="stroke" stroke-width="3"
	d="M860.54 183.00v-58.00"/>
<path class="stroke" stroke-width="1"
	d="M856.04 183.00v-58.00"/>
<use x="852.04" y="183.00" xlink:href="#rdots"/>
<path d="m11.54 125.00
	h850.50
	M11.54 119.00
	h850.50
	M11.54 113.00
	h850.50
	M11.54 107.00
	h850.50
	M11.54 101.00
	h850.50
	" class="stroke"/>
<path d="m11.54 183.00
	h850.50
	M11.54 177.00
	h850.50
	M11.54 171.00
	h850.50
	M11.54 165.00
	h850.50
	M11.54 159.00
	h850.50
	" class="stroke"/>
</g>
<g stroke-width="0.70" transform="scale(0.867)" font-family="Times" font-size="13.00">
<text x="762.84" y="86.40">1</text>
<path class="stroke"
	d="M758.84 75.00m0 20v-20h95.20v20"/>
<defs>
<path id="utclef" class="fill" d="m-50 -90
	c-72 -41 -72 -158 52 -188
	150 -10 220 188 90 256
	-114 52 -275 0 -293 -136
	-15 -181 93 -229 220 -334
	88 -87 79 -133 62 -210
	-51 33 -94 105 -89 186
	17 267 36 374 49 574
	6 96 -19 134 -77 135
	-80 1 -126 -93 -61 -133
	85 -41 133 101 31 105
	23 17 92 37 90 -92
	-10 -223 -39 -342 -50 -617
	0 -90 0 -162 96 -232
	56 72 63 230 22 289
	-74 106 -257 168 -255 316
	9 153 148 185 252 133
	86 -65 29 -192 -80 -176
	-71 12 -105 67 -59 124"/>
<use id="tclef" transform="translate(0,6) scale(0.045)"
	xlink:href="#utclef"/>
</defs>
<use x="23.54" y="119.00" xlink:href="#tclef"/>
<g font-family="serif" font-size="16" font-weight="bold" font-style="normal"
	transform="translate(42.04,124.50) scale(1.2,1)">
	<text text-anchor="middle">8</text>
	<text y="-12" text-anchor="middle">3</text>
</g>
<path class="fill"
	d="M80.94 133.50l84.20 -6.20v-3.20l-84.20 6.20"/>
<path class="fill"
	d="M81.34 128.40l83.60 -6.10v-3.20l-83.60 6.10"/>
<use x="84.84" y="104.00" xlink:href="#hd"/>
<path d="M81.34 104.00v28.40" class="stroke"/>
<use x="101.54" y="110.00" xlink:href="#hd"/>
<path d="M98.04 110.00v21.20" class="stroke"/>
<use x="118.24" y="98.00" xlink:href="#hd"/>
<path d="M114.74 98.00v32.00" class="stroke"/>
<use x="134.94" y="104.00" xlink:href="#hd"/>
<path d="M131.44 104.00v24.70" class="stroke"/>
<defs>
<path id="hl" class="stroke" d="m-6 0h12"/>
</defs>
<use x="151.64" y="95.00" xlink:href="#hl"/>
<use x="151.64" y="89.00" xlink:href="#hl"/>
<use x="151.64" y="89.00" xlink:href="#hd"/>
<path d="M148.14 89.00v38.50" class="stroke"/>
<use x="168.34" y="98.00" xlink:href="#hd"/>
<path d="M164.84 98.00v28.30" class="stroke"/>
<path class="fill"
	d="M190.94 138.20l47.80 -6.60v-3.20l-47.80 6.60"/>
<use x="194.74" y="119.00" xlink:href="#hd"/>
<path d="M191.24 119.00v18.20" class="stroke"/>
<use x="218.34" y="110.00" xlink:href="#hd"/>
<path d="M214.84 110.00v23.90" class="stroke"/>
<use x="241.94" y="104.00" xlink:href="#hd"/>
<path d="M238.44 104.00v26.70" class="stroke"/>
<path class="fill"
	d="M269.74 132.00l47.80 0.00v-3.20l-47.80 -0.00"/>
<use x="273.64" y="107.00" xlink:href="#hd"/>
<path d="M270.14 107.00v24.00" class="stroke"/>
<use x="273.64" y="113.00" xlink:href="#hd"/>
<use x="297.14" y="107.00" xlink:href="#hd"/>
<path d="M293.64 107.00v24.00" class="stroke"/>
<use x="297.14" y="113.00" xlink:href="#hd"/>
<use x="320.74" y="107.00" xlink:href="#hd"/>
<path d="M317.24 107.00v24.00" class="stroke"/>
<use x="320.74" y="113.00" xlink:href="#hd"/>
<path class="fill"
	d="M348.64 142.80l67.50 -6.50v-3.20l-67.50 6.50"/>
<path class="fill"
	d="M348.94 137.80l50.10 -4.80v-3.20l-50.10 4.80"/>
<use x="352.44" y="110.00" xlink:href="#hd"/>
<path d="M348.94 110.00v31.80" class="stroke"/>
<use x="369.14" y="119.00" xlink:href="#hd"/>
<path d="M365.64 119.00v21.20" class="stroke"/>
<use x="385.84" y="104.00" xlink:href="#hd"/>
<path d="M382.34 104.00v34.60" class="stroke"/>
<use x="402.64" y="110.00" xlink:href="#hd"/>
<path d="M399.14 110.00v27.00" class="stroke"/>
<use x="419.34" y="98.00" xlink:href="#hd"/>
<path d="M415.84 98.00v37.40" class="stroke"/>
<path class="fill"
	d="M447.24 133.00l86.80 0.00v-3.20l-86.80 -0.00"/>
<path class="fill"
	d="M447.54 128.00l86.10 0.00v-3.20l-86.10 -0.00"/>
<use x="451.04" y="107.00" xlink:href="#hd"/>
<path d="M447.54 107.00v24.90" class="stroke"/>
<use x="469.04" y="110.00" xlink:href="#hd"/>
<defs>
<path id="usharp" class="fill" d="
	m136 -702
	v890
	h32
	v-890
	m128 840
	h32
	v-888
	h-32
	m-232 286
	v116
	l338 -96
	v-116
	m-338 442
	v116
	l338 -98
	v-114"/>
<use id="sh0" transform="translate(-4,5) scale(0.018)"
	xlink:href="#usharp"/>
</defs>
<use x="460.04" y="110.00" xlink:href="#sh0"/>
<path d="M465.54 110.00v21.90" class="stroke"/>
<use x="485.74" y="107.00" xlink:href="#hd"/>
<path d="M482.24 107.00v24.90" class="stroke"/>
<use x="503.74" y="101.00" xlink:href="#hd"/>
<use x="494.74" y="101.00" xlink:href="#sh0"/>
<path d="M500.24 101.00v30.90" class="stroke"/>
<use x="520.44" y="95.00" xlink:href="#hl"/>
<use x="520.44" y="95.00" xlink:href="#hd"/>
<path d="M516.94 95.00v36.90" class="stroke"/>
<use x="537.14" y="101.00" xlink:href="#hd"/>
<path d="M533.64 101.00v30.90" class="stroke"/>
<path class="fill"
	d="M559.74 124.00l67.50 8.20v-3.20l-67.50 -8.20"/>
<path class="fill"
	d="M560.04 119.00l50.10 6.10v-3.20l-50.10 -6.10"/>
<use x="563.54" y="98.00" xlink:href="#hd"/>
<path d="M560.04 98.00v25.00" class="stroke"/>
<use x="580.24" y="95.00" xlink:href="#hl"/>
<use x="580.24" y="92.00" xlink:href="#hd"/>
<path d="M576.74 92.00v33.10" class="stroke"/>
<use x="597.04" y="98.00" xlink:href="#hd"/>
<path d="M593.54 98.00v29.10" class="stroke"/>
<use x="613.74" y="107.00" xlink:href="#hd"/>
<path d="M610.24 107.00v22.20" class="stroke"/>
<use x="630.44" y="113.00" xlink:href="#hd"/>
<path d="M626.94 113.00v18.20" class="stroke"/>
<path class="fill"
	d="M658.34 130.60l84.20 7.60v-3.20l-84.20 -7.60"/>
<path class="fill"
	d="M658.64 125.60l83.60 7.60v-3.20l-83.60 -7.60"/>
<use x="662.14" y="104.00" xlink:href="#hd"/>
<path d="M658.64 104.00v25.60" class="stroke"/>
<use x="678.84" y="98.00" xlink:href="#hd"/>
<path d="M675.34 98.00v33.10" class="stroke"/>
<use x="695.54" y="107.00" xlink:href="#hd"/>
<path d="M692.04 107.00v25.70" class="stroke"/>
<use x="712.24" y="110.00" xlink:href="#hd"/>
<path d="M708.74 110.00v24.20" class="stroke"/>
<use x="729.04" y="113.00" xlink:href="#hd"/>
<path d="M725.54 113.00v22.70" class="stroke"/>
<use x="745.74" y="116.00" xlink:href="#hd"/>
<path d="M742.24 116.00v21.20" class="stroke"/>
<use x="772.14" y="98.00" xlink:href="#hd"/>
<path d="M768.64 98.00v40.00" class="stroke"/>
<use x="772.14" y="119.00" xlink:href="#hd"/>
<use x="772.14" y="113.00" xlink:href="#hd"/>
<use x="772.14" y="107.00" xlink:href="#hd"/>
<defs>
<path id="r8e" class="fill" d="m 0 0
	c-1.5 1.5 -2.4 2 -3.6 2
	2.4 -2.8 -2.8 -4 -2.8 -1.2
	c0 2.7 4.3 2.4 5.9 0.6"/>
<g id="r8">
	<path d="m3.3 -4l-3.4 9.6" class="stroke"/>
	<use x="3.4" y="-4" xlink:href="#r8e"/>
</g>
</defs>
<use x="830.34" y="113.00" xlink:href="#r8"/>
<defs>
<path id="ubclef" class="fill" d="m-200 -87
	c124 -35 222 -78 254 -236
	43 -228 -167 -246 -192 -103
	59 -80 157 22 92 78
	-62 47 -115 -22 -106 -88
	21 -141 270 -136 274 52
	-1 175 -106 264 -322 297
	m357 -250
	c0 -36 51 -34 51 0
	0 37 -51 36 -51 0
	m-2 -129
	c0 -36 51 -34 51 0
	0 38 -51 37 -51 0"/>
<use id="bclef" transform="translate(0,18) scale(0.045)"
	xlink:href="#ubclef"/>
</defs>
<use x="23.54" y="165.00" xlink:href="#bclef"/>
<g font-family="serif" font-size="16" font-weight="bold" font-style="normal"
	transform="translate(42.04,182.50) scale(1.2,1)">
	<text text-anchor="middle">8</text>
	<text y="-12" text-anchor="middle">3</text>
</g>
<use x="84.84" y="168.00" xlink:href="#hd"/>
<path d="M81.34 168.00v25.00" class="stroke"/>
<use x="84.84" y="174.00" xlink:href="#hd"/>
<use x="151.64" y="171.00" xlink:href="#r8"/>
<use x="194.74" y="168.00" xlink:href="#hd"/>
<path d="M191.24 168.00v25.00" class="stroke"/>
<use x="194.74" y="174.00" xlink:href="#hd"/>
<use x="241.94" y="171.00" xlink:href="#r8"/>
<path class="fill"
	d="M269.74 183.20l47.80 0.00v-3.20l-47.80 -0.00"/>
<use x="273.64" y="162.00" xlink:href="#hd"/>
<path d="M270.14 162.00v20.20" class="stroke"/>
<use x="297.14" y="162.00" xlink:href="#hd"/>
<path d="M293.64 162.00v20.20" class="stroke"/>
<use x="320.74" y="162.00" xlink:href="#hd"/>
<path d="M317.24 162.00v20.20" class="stroke"/>
<use x="352.44" y="162.00" xlink:href="#hd"/>
<path d="M348.94 162.00v25.00" class="stroke"/>
<use x="352.44" y="168.00" xlink:href="#hd"/>
<use x="419.34" y="171.00" xlink:href="#r8"/>
<use x="451.04" y="174.00" xlink:href="#hd"/>
<path d="M454.54 174.00v-21.00" class="stroke"/>
<use x="520.44" y="171.00" xlink:href="#r8"/>
<use x="563.54" y="177.00" xlink:href="#hd"/>
<path d="M567.04 177.00v-25.00" class="stroke"/>
<use x="563.54" y="171.00" xlink:href="#hd"/>
<use x="630.44" y="171.00" xlink:href="#r8"/>
<path class="fill"
	d="M665.34 147.70l67.50 8.20v3.20l-67.50 -8.20"/>
<use x="662.14" y="174.00" xlink:href="#hd"/>
<path d="M665.64 174.00v-25.30" class="stroke"/>
<use x="695.54" y="171.00" xlink:href="#hd"/>
<path d="M699.04 171.00v-18.20" class="stroke"/>
<use x="729.04" y="189.00" xlink:href="#hl"/>
<use x="729.04" y="192.00" xlink:href="#hd"/>
<path d="M732.54 192.00v-35.10" class="stroke"/>
<path class="fill"
	d="M768.24 202.20l75.70 0.00v-3.20l-75.70 -0.00"/>
<path class="fill"
	d="M792.14 197.20l51.40 0.00v-3.20l-51.40 -0.00"/>
<use x="772.14" y="183.00" xlink:href="#hd"/>
<path d="M768.64 183.00v18.20" class="stroke"/>
<use x="795.64" y="162.00" xlink:href="#hd"/>
<path d="M792.14 162.00v39.20" class="stroke"/>
<use x="813.64" y="165.00" xlink:href="#hd"/>
<defs>
<path id="unat" class="fill" d="
	m96 -750
	h-32
	v716
	l32 -8
	182 -54
	v282
	h32
	v-706
	l-34 10
	-180 50
	v-290
	m0 592
	v-190
	l182 -52
	v188"/>
<use id="nt0" transform="translate(-3,5) scale(0.018)"
	xlink:href="#unat"/>
</defs>
<use x="804.64" y="165.00" xlink:href="#nt0"/>
<path d="M810.14 165.00v36.20" class="stroke"/>
<use x="830.34" y="168.00" xlink:href="#hd"/>
<path d="M826.84 168.00v33.20" class="stroke"/>
<use x="847.14" y="171.00" xlink:href="#hd"/>
<path d="M843.64 171.00v30.20" class="stroke"/>
</g>
<g stroke-width="0.70" transform="scale(0.867)" font-family="Times" font-size="13.00">
<path class="stroke" stroke-width="1"
	d="M11.54 316.00v-82.00"/>
<path class="fill"
	d="M6.54 231.00
	c10.5 1 12 -4.5 12 -3.5c0 1 -3.5 5.5 -8.5 5.5
	v84.00
	c5 0 8.5 4.5 8.5 5.5c0 1 -1.5 -4.5 -12 -3.5"/>
<use x="148.04" y="258.00" xlink:href="#rdots"/>
<path class="stroke" stroke-width="1"
	d="M144.04 258.00v-24.00"/>
<path class="stroke" stroke-width="3"
	d="M139.54 258.00v-24.00"/>
<use x="148.04" y="316.00" xlink:href="#rdots"/>
<path class="stroke" stroke-width="1"
	d="M144.04 316.00v-58.00"/>
<path class="stroke" stroke-width="3"
	d="M139.54 316.00v-58.00"/>
<path class="stroke" stroke-width="1"
	d="M261.84 258.00v-24.00"/>
<path class="stroke" stroke-width="1"
	d="M261.84 316.00v-58.00"/>
<path class="stroke" stroke-width="1"
	d="M348.24 258.00v-24.00"/>
<path class="stroke" stroke-width="1"
	d="M348.24 316.00v-58.00"/>
<path class="stroke" stroke-width="1"
	d="M423.44 258.00v-24.00"/>
<path class="stroke" stroke-width="1"
	d="M423.44 316.00v-58.00"/>
<path class="stroke" stroke-width="1"
	d="M498.84 258.00v-24.00"/>
<path class="stroke" stroke-width="1"
	d="M498.84 316.00v-58.00"/>
<path class="stroke" stroke-width="1"
	d="M603.84 258.00v-24.00"/>
<path class="stroke" stroke-width="1"
	d="M603.84 316.00v-58.00"/>
<path class="stroke" stroke-width="1"
	d="M678.94 258.00v-24.00"/>
<path class="stroke" stroke-width="1"
	d="M678.94 316.00v-58.00"/>
<path class="stroke" stroke-width="1"
	d="M784.04 258.00v-24.00"/>
<path class="stroke" stroke-width="1"
	d="M784.04 316.00v-58.00"/>
<path class="stroke" stroke-width="3"
	d="M860.54 258.00v-24.00"/>
<path class="stroke" stroke-width="1"
	d="M856.04 258.00v-24.00"/>
<use x="852.04" y="258.00" xlink:href="#rdots"/>
<path class="stroke" stroke-width="3"
	d="M860.54 316.00v-58.00"/>
<path class="stroke" stroke-width="1"
	d="M856.04 316.00v-58.00"/>
<use x="852.04" y="316.00" xlink:href="#rdots"/>
<path d="m11.54 258.00
	h850.50
	M11.54 252.00
	h850.50
	M11.54 246.00
	h850.50
	M11.54 240.00
	h850.50
	M11.54 234.00
	h850.50
	" class="stroke"/>
<path d="m11.54 316.00
	h850.50
	M11.54 310.00
	h850.50
	M11.54 304.00
	h850.50
	M11.54 298.00
	h850.50
	M11.54 292.00
	h850.50
	" class="stroke"/>
<path class="fill"
	d="M361.04 229.00c6.41 -5.82 34.40 -13.09 40.82 -10.60
	v-0.24c-7.64 -4.24 -33.18 3.02 -40.82 10.84"/>
<path class="fill"
	d="M616.54 241.00c6.41 -5.35 34.40 -10.56 40.82 -7.60
	v-0.24c-7.64 -4.72 -33.18 0.50 -40.82 7.84"/>
<text x="47.54" y="219.40">2</text>
<path class="stroke"
	d="M43.54 208.00m0 20v-20h93.50v20"/>
<use x="23.54" y="252.00" xlink:href="#tclef"/>
<use x="56.24" y="231.00" xlink:href="#hd"/>
<path d="M52.74 231.00v40.00" class="stroke"/>
<use x="56.24" y="252.00" xlink:href="#hd"/>
<use x="56.24" y="246.00" xlink:href="#hd"/>
<use x="56.24" y="240.00" xlink:href="#hd"/>
<use x="112.64" y="246.00" xlink:href="#r8"/>
<path class="fill"
	d="M163.74 272.60l82.40 -7.10v-3.20l-82.40 7.10"/>
<path class="fill"
	d="M164.04 267.60l81.70 -7.00v-3.20l-81.70 7.00"/>
<use x="167.54" y="240.00" xlink:href="#hd"/>
<path d="M164.04 240.00v31.60" class="stroke"/>
<use x="183.44" y="249.00" xlink:href="#hd"/>
<path d="M179.94 249.00v21.20" class="stroke"/>
<use x="199.44" y="240.00" xlink:href="#hd"/>
<path d="M195.94 240.00v28.80" class="stroke"/>
<use x="217.44" y="234.00" xlink:href="#hd"/>
<use x="208.44" y="234.00" xlink:href="#sh0"/>
<path d="M213.94 234.00v33.30" class="stroke"/>
<use x="233.34" y="228.00" xlink:href="#hl"/>
<use x="233.34" y="228.00" xlink:href="#hd"/>
<path d="M229.84 228.00v37.90" class="stroke"/>
<use x="249.34" y="234.00" xlink:href="#hd"/>
<path d="M245.84 234.00v30.50" class="stroke"/>
<use x="274.64" y="231.00" xlink:href="#hd"/>
<path d="M271.14 231.00v21.00" class="stroke"/>
<path class="fill"
	d="M271.14 252.00c0.6 -5.6 9.6 -9 5.6 -18.4
	1.6 6 -1.3 11.6 -5.6 12.8
"/>
<use x="308.24" y="240.00" xlink:href="#hd"/>
<path d="M304.74 240.00v21.00" class="stroke"/>
<path class="fill"
	d="M357.14 256.30l45.50 -7.90v-3.20l-45.50 7.90"/>
<use x="361.04" y="237.00" xlink:href="#hd"/>
<path d="M357.54 237.00v18.20" class="stroke"/>
<use x="383.44" y="231.00" xlink:href="#hd"/>
<path d="M379.94 231.00v20.30" class="stroke"/>
<use x="405.84" y="228.00" xlink:href="#hl"/>
<use x="405.84" y="222.00" xlink:href="#hl"/>
<use x="405.84" y="222.00" xlink:href="#hd"/>
<path d="M402.34 222.00v25.40" class="stroke"/>
<path class="fill"
	d="M432.34 262.30l23.10 2.40v-3.20l-23.10 -2.40"/>
<use x="436.14" y="237.00" xlink:href="#hd"/>
<path d="M432.64 237.00v24.30" class="stroke"/>
<use x="436.14" y="243.00" xlink:href="#hd"/>
<use x="458.54" y="240.00" xlink:href="#hd"/>
<path d="M455.04 240.00v23.70" class="stroke"/>
<use x="458.54" y="246.00" xlink:href="#hd"/>
<use x="481.04" y="246.00" xlink:href="#r8"/>
<path class="fill"
	d="M507.64 272.80l64.40 -3.30v-3.20l-64.40 3.30"/>
<use x="511.54" y="243.00" xlink:href="#hd"/>
<path d="M508.04 243.00v28.80" class="stroke"/>
<use x="543.44" y="252.00" xlink:href="#hd"/>
<path d="M539.94 252.00v18.20" class="stroke"/>
<use x="575.24" y="237.00" xlink:href="#hd"/>
<path d="M571.74 237.00v31.60" class="stroke"/>
<path class="fill"
	d="M612.74 271.20l45.50 -6.50v-3.20l-45.50 6.50"/>
<use x="616.54" y="252.00" xlink:href="#hd"/>
<path d="M613.04 252.00v18.20" class="stroke"/>
<use x="638.94" y="243.00" xlink:href="#hd"/>
<path d="M635.44 243.00v24.00" class="stroke"/>
<use x="661.34" y="237.00" xlink:href="#hd"/>
<path d="M657.84 237.00v26.80" class="stroke"/>
<path class="fill"
	d="M687.84 260.00l80.40 0.00v-3.20l-80.40 -0.00"/>
<path class="fill"
	d="M688.24 255.00l79.70 0.00v-3.20l-79.70 -0.00"/>
<use x="691.74" y="234.00" xlink:href="#hd"/>
<path d="M688.24 234.00v25.00" class="stroke"/>
<use x="707.64" y="237.00" xlink:href="#hd"/>
<path d="M704.14 237.00v22.00" class="stroke"/>
<use x="723.54" y="240.00" xlink:href="#hd"/>
<path d="M720.04 240.00v19.00" class="stroke"/>
<use x="739.54" y="237.00" xlink:href="#hd"/>
<path d="M736.04 237.00v22.00" class="stroke"/>
<use x="755.44" y="234.00" xlink:href="#hd"/>
<path d="M751.94 234.00v25.00" class="stroke"/>
<use x="771.44" y="231.00" xlink:href="#hd"/>
<path d="M767.94 231.00v28.00" class="stroke"/>
<use x="796.74" y="243.00" xlink:href="#hd"/>
<path d="M793.24 243.00v21.00" class="stroke"/>
<use x="841.54" y="246.00" xlink:href="#r8"/>
<use x="23.54" y="298.00" xlink:href="#bclef"/>
<path class="fill"
	d="M52.44 335.20l73.00 -5.20v-3.20l-73.00 5.20"/>
<path class="fill"
	d="M75.14 328.60l49.90 -3.50v-3.20l-49.90 3.50"/>
<use x="56.24" y="316.00" xlink:href="#hd"/>
<path d="M52.74 316.00v18.20" class="stroke"/>
<use x="78.64" y="289.00" xlink:href="#hd"/>
<path d="M75.14 289.00v43.60" class="stroke"/>
<use x="94.64" y="295.00" xlink:href="#hd"/>
<path d="M91.14 295.00v36.50" class="stroke"/>
<use x="112.64" y="298.00" xlink:href="#hd"/>
<use x="103.64" y="298.00" xlink:href="#sh0"/>
<path d="M109.14 298.00v32.20" class="stroke"/>
<use x="128.54" y="301.00" xlink:href="#hd"/>
<path d="M125.04 301.00v28.10" class="stroke"/>
<use x="167.54" y="298.00" xlink:href="#hd"/>
<use x="158.54" y="298.00" xlink:href="#sh0"/>
<path d="M164.04 298.00v25.00" class="stroke"/>
<use x="167.54" y="304.00" xlink:href="#hd"/>
<use x="233.34" y="304.00" xlink:href="#r8"/>
<path class="fill"
	d="M270.74 338.30l56.70 -10.90v-3.20l-56.70 10.90"/>
<path class="fill"
	d="M271.14 333.20l15.90 -3.10v-3.20l-15.90 3.10"/>
<use x="274.64" y="316.00" xlink:href="#hd"/>
<path d="M271.14 316.00v21.20" class="stroke"/>
<use x="290.54" y="310.00" xlink:href="#hd"/>
<path d="M287.04 310.00v24.10" class="stroke"/>
<use x="308.24" y="295.00" xlink:href="#hd"/>
<path d="M304.74 295.00v35.70" class="stroke"/>
<use x="330.64" y="289.00" xlink:href="#hd"/>
<path d="M327.14 289.00v37.40" class="stroke"/>
<use x="361.04" y="295.00" xlink:href="#hd"/>
<path d="M357.54 295.00v31.00" class="stroke"/>
<use x="361.04" y="307.00" xlink:href="#hd"/>
<use x="405.84" y="301.00" xlink:href="#hd"/>
<path d="M402.34 301.00v25.00" class="stroke"/>
<path class="fill"
	d="M402.34 326.00c0.6 -5.6 9.6 -9 5.6 -18.4
	1.6 6 -1.3 11.6 -5.6 12.8
"/>
<use x="405.84" y="307.00" xlink:href="#hd"/>
<use x="436.14" y="295.00" xlink:href="#hd"/>
<path d="M432.64 295.00v21.00" class="stroke"/>
<use x="481.04" y="316.00" xlink:href="#hd"/>
<path d="M484.54 316.00v-21.00" class="stroke"/>
<path class="fill"
	d="M484.54 295.00c0.6 5.6 9.6 9 5.6 18.4
	1.6 -6 -1.3 -11.6 -5.6 -12.8
"/>
<path class="fill"
	d="M507.64 323.90l80.40 0.00v-3.20l-80.40 -0.00"/>
<path class="fill"
	d="M508.04 318.90l79.70 0.00v-3.20l-79.70 -0.00"/>
<use x="511.54" y="301.00" xlink:href="#hd"/>
<path d="M508.04 301.00v21.90" class="stroke"/>
<use x="511.54" y="307.00" xlink:href="#hd"/>
<use x="527.44" y="295.00" xlink:href="#hd"/>
<path d="M523.94 295.00v27.90" class="stroke"/>
<use x="543.44" y="301.00" xlink:href="#hd"/>
<path d="M539.94 301.00v21.90" class="stroke"/>
<use x="543.44" y="307.00" xlink:href="#hd"/>
<use x="559.34" y="295.00" xlink:href="#hd"/>
<path d="M555.84 295.00v27.90" class="stroke"/>
<use x="575.24" y="301.00" xlink:href="#hd"/>
<path d="M571.74 301.00v21.90" class="stroke"/>
<use x="575.24" y="307.00" xlink:href="#hd"/>
<use x="591.24" y="295.00" xlink:href="#hd"/>
<path d="M587.74 295.00v27.90" class="stroke"/>
<use x="616.54" y="301.00" xlink:href="#hd"/>
<path d="M613.04 301.00v25.00" class="stroke"/>
<use x="616.54" y="307.00" xlink:href="#hd"/>
<use x="661.34" y="295.00" xlink:href="#hd"/>
<path d="M657.84 295.00v31.00" class="stroke"/>
<path class="fill"
	d="M657.84 326.00c0.6 -5.6 9.6 -9 5.6 -18.4
	1.6 6 -1.3 11.6 -5.6 12.8
"/>
<use x="661.34" y="307.00" xlink:href="#hd"/>
<path class="fill"
	d="M687.84 317.90l80.40 0.00v-3.20l-80.40 -0.00"/>
<path class="fill"
	d="M688.24 312.90l79.70 0.00v-3.20l-79.70 -0.00"/>
<use x="691.74" y="292.00" xlink:href="#hd"/>
<path d="M688.24 292.00v25.00" class="stroke"/>
<use x="707.64" y="295.00" xlink:href="#hd"/>
<path d="M704.14 295.00v22.00" class="stroke"/>
<use x="723.54" y="298.00" xlink:href="#hd"/>
<path d="M720.04 298.00v19.00" class="stroke"/>
<use x="739.54" y="295.00" xlink:href="#hd"/>
<path d="M736.04 295.00v22.00" class="stroke"/>
<use x="755.44" y="292.00" xlink:href="#hd"/>
<path d="M751.94 292.00v25.00" class="stroke"/>
<use x="771.44" y="289.00" xlink:href="#hd"/>
<path d="M767.94 289.00v28.00" class="stroke"/>
<path class="fill"
	d="M799.84 287.70l45.50 10.10v3.20l-45.50 -10.10"/>
<use x="796.74" y="307.00" xlink:href="#hd"/>
<path d="M800.24 307.00v-18.20" class="stroke"/>
<use x="819.14" y="316.00" xlink:href="#hd"/>
<path d="M822.64 316.00v-22.20" class="stroke"/>
<use x="841.54" y="322.00" xlink:href="#hl"/>
<use x="841.54" y="328.00" xlink:href="#hl"/>
<use x="841.54" y="328.00" xlink:href="#hd"/>
<path d="M845.04 328.00v-29.20" class="stroke"/>
<defs>
<text id="trl" font-family="serif" font-size="16" font-style="italic"
	x="-2" y="-4">tr</text>
</defs>
<use x="308.24" y="232.00" xlink:href="#trl"/>
</g>
</svg>
