<?xml version="1.0" standalone="no"?>
<!DOCTYPE svg PUBLIC "-//W3C//DTD SVG 1.1//EN"
	"http://www.w3.org/Graphics/SVG/1.1/DTD/svg11.dtd">
<svg xmlns="http://www.w3.org/2000/svg" version="1.1"
	xmlns:xlink="http://www.w3.org/1999/xlink"
	color="black"
	width="757.10px" height="293.80px">
<style type="text/css">
.fill {fill: currentColor}
.stroke {stroke: currentColor; fill: none}
text{white-space: pre}
</style>
<title>./K516f-11-2-3-2-11-10-2-3-11-2-2-9-7-9-2-4.abc (2357) tune 1</title>
<!-- Creator: abcm2ps-8.13.8 -->
<!-- CreationDate: Sep  7, 2017 11:20 -->
<!-- CommandLine: ./K516f-11-2-3-2-11-10-2-3-11-2-2-9-7-9-2-4.abc -O ./K516f-11-2-3-2-11-10-2-3-11-2-2-9-7-9-2-4.svg -g -->
<rect width="100%" height="100%" fill="white"/>
<g stroke-width="0.70" transform="scale(0.867)">
<!-- title: 11-2-3-2-11-10-2-3-11-2-2-9-7-9-2-4 -->
</g>
<g stroke-width="0.70" transform="scale(0.867)" font-family="Times" font-size="20.00">
<text x="436.84" y="22.00" text-anchor="middle">11-2-3-2-11-10-2-3-11-2-2-9-7-9-2-4</text>
</g>
<g stroke-width="0.70" transform="scale(0.867)" font-family="Times" font-size="20.00">
<!-- subtitle: $1K.516f::3:22:128:41:135:129:11:81:102:121:26:166:101:115:109:79::$0 -->
</g>
<g stroke-width="0.70" transform="scale(0.867)" font-family="Courier" font-size="8.00" font-weight="bold">
<text x="436.84" y="41.80" text-anchor="middle">K.516f::3:22:128:41:135:129:11:81:102:121:26:166:101:115:109:79::</text>
</g>
<g stroke-width="0.70" transform="scale(0.867)" font-family="Courier" font-size="8.00" font-weight="bold">
<!-- subtitle: $1Perm. No.: 23577295767156$0 -->
<text x="436.84" y="60.80" text-anchor="middle">Perm. No.: 23577295767156</text>
</g>
<g stroke-width="0.70" transform="scale(0.607)" font-family="Courier" font-size="8.00" font-weight="bold">
<defs>
<ellipse id="hd" rx="4.1" ry="2.9"
	transform="rotate(-20)" class="fill"/>
</defs>
<use x="103.06" y="121.29" xlink:href="#hd"/>
<path d="M106.56 121.29v-21.00" class="stroke"/>
<path class="fill"
	d="M106.56 100.29c0.6 5.6 9.6 9 5.6 18.4
	1.6 -6 -1.3 -11.6 -5.6 -12.8
"/>
</g>
<g stroke-width="0.70" transform="scale(0.867)" font-family="Times" font-size="15.00" font-weight="bold">
<text x="81.24" y="87.00">= 111</text>
<path class="stroke" stroke-width="1"
	d="M11.54 183.00v-82.00"/>
<path class="fill"
	d="M6.54 98.00
	c10.5 1 12 -4.5 12 -3.5c0 1 -3.5 5.5 -8.5 5.5
	v84.00
	c5 0 8.5 4.5 8.5 5.5c0 1 -1.5 -4.5 -12 -3.5"/>
<defs>
<g id="rdots" class="fill">
	<circle cx="0" cy="-9" r="1.2"/>
	<circle cx="0" cy="-15" r="1.2"/>
</g>
</defs>
<use x="70.54" y="125.00" xlink:href="#rdots"/>
<path class="stroke" stroke-width="1"
	d="M66.54 125.00v-24.00"/>
<path class="stroke" stroke-width="3"
	d="M62.04 125.00v-24.00"/>
<use x="70.54" y="183.00" xlink:href="#rdots"/>
<path class="stroke" stroke-width="1"
	d="M66.54 183.00v-58.00"/>
<path class="stroke" stroke-width="3"
	d="M62.04 183.00v-58.00"/>
<path class="stroke" stroke-width="1"
	d="M155.44 125.00v-24.00"/>
<path class="stroke" stroke-width="1"
	d="M155.44 183.00v-58.00"/>
<path class="stroke" stroke-width="1"
	d="M239.24 125.00v-24.00"/>
<path class="stroke" stroke-width="1"
	d="M239.24 183.00v-58.00"/>
<path class="stroke" stroke-width="1"
	d="M323.14 125.00v-24.00"/>
<path class="stroke" stroke-width="1"
	d="M323.14 183.00v-58.00"/>
<path class="stroke" stroke-width="1"
	d="M427.84 125.00v-24.00"/>
<path class="stroke" stroke-width="1"
	d="M427.84 183.00v-58.00"/>
<path class="stroke" stroke-width="1"
	d="M531.64 125.00v-24.00"/>
<path class="stroke" stroke-width="1"
	d="M531.64 183.00v-58.00"/>
<path class="stroke" stroke-width="1"
	d="M636.54 125.00v-24.00"/>
<path class="stroke" stroke-width="1"
	d="M636.54 183.00v-58.00"/>
<path class="stroke" stroke-width="1"
	d="M753.54 125.00v-24.00"/>
<path class="stroke" stroke-width="1"
	d="M753.54 183.00v-58.00"/>
<path class="stroke" stroke-width="3"
	d="M860.54 125.00v-24.00"/>
<path class="stroke" stroke-width="1"
	d="M856.04 125.00v-24.00"/>
<use x="852.04" y="125.00" xlink:href="#rdots"/>
<path class="stroke" stroke-width="3"
	d="M860.54 183.00v-58.00"/>
<path class="stroke" stroke-width="1"
	d="M856.04 183.00v-58.00"/>
<use x="852.04" y="183.00" xlink:href="#rdots"/>
<path d="m11.54 125.00
	h850.50
	M11.54 119.00
	h850.50
	M11.54 113.00
	h850.50
	M11.54 107.00
	h850.50
	M11.54 101.00
	h850.50
	" class="stroke"/>
<path d="m11.54 183.00
	h850.50
	M11.54 177.00
	h850.50
	M11.54 171.00
	h850.50
	M11.54 165.00
	h850.50
	M11.54 159.00
	h850.50
	" class="stroke"/>
</g>
<g stroke-width="0.70" transform="scale(0.867)" font-family="Times" font-size="13.00">
<text x="757.54" y="86.40">1</text>
<path class="stroke"
	d="M753.54 75.00m0 20v-20h100.50v20"/>
<defs>
<path id="utclef" class="fill" d="m-50 -90
	c-72 -41 -72 -158 52 -188
	150 -10 220 188 90 256
	-114 52 -275 0 -293 -136
	-15 -181 93 -229 220 -334
	88 -87 79 -133 62 -210
	-51 33 -94 105 -89 186
	17 267 36 374 49 574
	6 96 -19 134 -77 135
	-80 1 -126 -93 -61 -133
	85 -41 133 101 31 105
	23 17 92 37 90 -92
	-10 -223 -39 -342 -50 -617
	0 -90 0 -162 96 -232
	56 72 63 230 22 289
	-74 106 -257 168 -255 316
	9 153 148 185 252 133
	86 -65 29 -192 -80 -176
	-71 12 -105 67 -59 124"/>
<use id="tclef" transform="translate(0,6) scale(0.045)"
	xlink:href="#utclef"/>
</defs>
<use x="23.54" y="119.00" xlink:href="#tclef"/>
<g font-family="serif" font-size="16" font-weight="bold" font-style="normal"
	transform="translate(42.04,124.50) scale(1.2,1)">
	<text text-anchor="middle">8</text>
	<text y="-12" text-anchor="middle">3</text>
</g>
<path class="fill"
	d="M81.74 127.60l51.00 3.20v-3.20l-51.00 -3.20"/>
<use x="85.54" y="98.00" xlink:href="#hd"/>
<path d="M82.04 98.00v28.60" class="stroke"/>
<use x="110.64" y="110.00" xlink:href="#hd"/>
<path d="M107.14 110.00v18.20" class="stroke"/>
<use x="135.84" y="104.00" xlink:href="#hd"/>
<path d="M132.34 104.00v25.80" class="stroke"/>
<path class="fill"
	d="M165.54 131.50l51.00 6.70v-3.20l-51.00 -6.70"/>
<use x="169.44" y="104.00" xlink:href="#hd"/>
<path d="M165.94 104.00v26.60" class="stroke"/>
<use x="194.54" y="110.00" xlink:href="#hd"/>
<path d="M191.04 110.00v23.90" class="stroke"/>
<use x="219.64" y="119.00" xlink:href="#hd"/>
<path d="M216.14 119.00v18.20" class="stroke"/>
<path class="fill"
	d="M249.44 132.20l51.00 -6.70v-3.20l-51.00 6.70"/>
<use x="253.24" y="113.00" xlink:href="#hd"/>
<path d="M249.74 113.00v18.20" class="stroke"/>
<use x="278.44" y="107.00" xlink:href="#hd"/>
<path d="M274.94 107.00v20.90" class="stroke"/>
<use x="303.54" y="98.00" xlink:href="#hd"/>
<path d="M300.04 98.00v26.60" class="stroke"/>
<path class="fill"
	d="M333.34 138.20l71.80 0.00v-3.20l-71.80 -0.00"/>
<path class="fill"
	d="M333.64 133.20l53.30 0.00v-3.20l-53.30 -0.00"/>
<use x="337.14" y="110.00" xlink:href="#hd"/>
<path d="M333.64 110.00v27.20" class="stroke"/>
<use x="354.94" y="113.00" xlink:href="#hd"/>
<path d="M351.44 113.00v24.20" class="stroke"/>
<use x="372.74" y="110.00" xlink:href="#hd"/>
<path d="M369.24 110.00v27.20" class="stroke"/>
<use x="390.44" y="104.00" xlink:href="#hd"/>
<path d="M386.94 104.00v33.20" class="stroke"/>
<use x="408.24" y="119.00" xlink:href="#hd"/>
<path d="M404.74 119.00v18.20" class="stroke"/>
<path class="fill"
	d="M442.54 127.00l61.50 0.00v-3.20l-61.50 -0.00"/>
<path class="fill"
	d="M468.04 122.00l17.80 0.00v-3.20l-17.80 -0.00"/>
<use x="446.34" y="101.00" xlink:href="#hd"/>
<defs>
<path id="usharp" class="fill" d="
	m136 -702
	v890
	h32
	v-890
	m128 840
	h32
	v-888
	h-32
	m-232 286
	v116
	l338 -96
	v-116
	m-338 442
	v116
	l338 -98
	v-114"/>
<use id="sh0" transform="translate(-4,5) scale(0.018)"
	xlink:href="#usharp"/>
</defs>
<use x="437.34" y="101.00" xlink:href="#sh0"/>
<path d="M442.84 101.00v25.00" class="stroke"/>
<use x="471.54" y="101.00" xlink:href="#hd"/>
<path d="M468.04 101.00v25.00" class="stroke"/>
<use x="489.34" y="107.00" xlink:href="#hd"/>
<path d="M485.84 107.00v19.00" class="stroke"/>
<defs>
<path id="hl" class="stroke" d="m-6 0h12"/>
</defs>
<use x="507.14" y="95.00" xlink:href="#hl"/>
<use x="507.14" y="95.00" xlink:href="#hd"/>
<path d="M503.64 95.00v31.00" class="stroke"/>
<path class="fill"
	d="M541.74 121.20l72.00 5.00v-3.20l-72.00 -5.00"/>
<path class="fill"
	d="M542.14 116.20l53.60 3.70v-3.20l-53.60 -3.70"/>
<use x="545.64" y="95.00" xlink:href="#hl"/>
<use x="545.64" y="95.00" xlink:href="#hd"/>
<path d="M542.14 95.00v25.20" class="stroke"/>
<use x="563.44" y="98.00" xlink:href="#hd"/>
<path d="M559.94 98.00v23.50" class="stroke"/>
<use x="581.44" y="101.00" xlink:href="#hd"/>
<use x="572.44" y="101.00" xlink:href="#sh0"/>
<path d="M577.94 101.00v21.70" class="stroke"/>
<use x="599.14" y="98.00" xlink:href="#hd"/>
<path d="M595.64 98.00v26.00" class="stroke"/>
<use x="616.94" y="107.00" xlink:href="#hd"/>
<path d="M613.44 107.00v18.20" class="stroke"/>
<path class="fill"
	d="M653.74 81.80l89.80 8.40v3.20l-89.80 -8.40"/>
<path class="fill"
	d="M654.04 86.80l89.10 8.40v3.20l-89.10 -8.40"/>
<use x="650.54" y="104.00" xlink:href="#hd"/>
<path d="M654.04 104.00v-21.20" class="stroke"/>
<use x="668.34" y="110.00" xlink:href="#hd"/>
<path d="M671.84 110.00v-25.50" class="stroke"/>
<use x="686.14" y="113.00" xlink:href="#hd"/>
<path d="M689.64 113.00v-26.90" class="stroke"/>
<use x="703.84" y="116.00" xlink:href="#hd"/>
<path d="M707.34 116.00v-28.20" class="stroke"/>
<use x="721.64" y="119.00" xlink:href="#hd"/>
<path d="M725.14 119.00v-29.50" class="stroke"/>
<use x="739.64" y="122.00" xlink:href="#hd"/>
<use x="730.64" y="122.00" xlink:href="#sh0"/>
<path d="M743.14 122.00v-30.80" class="stroke"/>
<use x="767.54" y="98.00" xlink:href="#hd"/>
<path d="M764.04 98.00v40.00" class="stroke"/>
<use x="767.54" y="119.00" xlink:href="#hd"/>
<use x="767.54" y="113.00" xlink:href="#hd"/>
<use x="767.54" y="107.00" xlink:href="#hd"/>
<defs>
<path id="r8e" class="fill" d="m 0 0
	c-1.5 1.5 -2.4 2 -3.6 2
	2.4 -2.8 -2.8 -4 -2.8 -1.2
	c0 2.7 4.3 2.4 5.9 0.6"/>
<g id="r8">
	<path d="m3.3 -4l-3.4 9.6" class="stroke"/>
	<use x="3.4" y="-4" xlink:href="#r8e"/>
</g>
</defs>
<use x="828.44" y="113.00" xlink:href="#r8"/>
<defs>
<path id="ubclef" class="fill" d="m-200 -87
	c124 -35 222 -78 254 -236
	43 -228 -167 -246 -192 -103
	59 -80 157 22 92 78
	-62 47 -115 -22 -106 -88
	21 -141 270 -136 274 52
	-1 175 -106 264 -322 297
	m357 -250
	c0 -36 51 -34 51 0
	0 37 -51 36 -51 0
	m-2 -129
	c0 -36 51 -34 51 0
	0 38 -51 37 -51 0"/>
<use id="bclef" transform="translate(0,18) scale(0.045)"
	xlink:href="#ubclef"/>
</defs>
<use x="23.54" y="165.00" xlink:href="#bclef"/>
<g font-family="serif" font-size="16" font-weight="bold" font-style="normal"
	transform="translate(42.04,182.50) scale(1.2,1)">
	<text text-anchor="middle">8</text>
	<text y="-12" text-anchor="middle">3</text>
</g>
<use x="85.54" y="168.00" xlink:href="#hd"/>
<path d="M82.04 168.00v25.00" class="stroke"/>
<use x="85.54" y="174.00" xlink:href="#hd"/>
<use x="135.84" y="171.00" xlink:href="#r8"/>
<use x="169.44" y="174.00" xlink:href="#hd"/>
<path d="M172.94 174.00v-21.00" class="stroke"/>
<use x="219.64" y="171.00" xlink:href="#r8"/>
<use x="253.24" y="183.00" xlink:href="#hd"/>
<path d="M256.74 183.00v-21.00" class="stroke"/>
<use x="303.54" y="171.00" xlink:href="#r8"/>
<use x="337.14" y="168.00" xlink:href="#hd"/>
<path d="M333.64 168.00v25.00" class="stroke"/>
<use x="337.14" y="174.00" xlink:href="#hd"/>
<use x="408.24" y="171.00" xlink:href="#r8"/>
<path class="fill"
	d="M449.54 150.00l61.50 0.00v3.20l-61.50 -0.00"/>
<use x="446.34" y="171.00" xlink:href="#hd"/>
<path d="M449.84 171.00v-20.00" class="stroke"/>
<use x="471.54" y="171.00" xlink:href="#hd"/>
<path d="M475.04 171.00v-20.00" class="stroke"/>
<use x="507.14" y="171.00" xlink:href="#hd"/>
<path d="M510.64 171.00v-20.00" class="stroke"/>
<path class="fill"
	d="M548.74 149.50l72.00 -4.70v3.20l-72.00 4.70"/>
<use x="545.64" y="177.00" xlink:href="#hd"/>
<path d="M549.14 177.00v-26.50" class="stroke"/>
<use x="545.64" y="171.00" xlink:href="#hd"/>
<use x="581.44" y="177.00" xlink:href="#hd"/>
<path d="M584.94 177.00v-28.90" class="stroke"/>
<use x="581.44" y="171.00" xlink:href="#hd"/>
<use x="616.94" y="177.00" xlink:href="#hd"/>
<path d="M620.44 177.00v-31.20" class="stroke"/>
<use x="616.94" y="162.00" xlink:href="#hd"/>
<path class="fill"
	d="M653.74 147.60l71.80 8.40v3.20l-71.80 -8.40"/>
<use x="650.54" y="174.00" xlink:href="#hd"/>
<path d="M654.04 174.00v-25.30" class="stroke"/>
<use x="686.14" y="171.00" xlink:href="#hd"/>
<path d="M689.64 171.00v-18.20" class="stroke"/>
<use x="721.64" y="189.00" xlink:href="#hl"/>
<use x="721.64" y="192.00" xlink:href="#hd"/>
<path d="M725.14 192.00v-35.10" class="stroke"/>
<path class="fill"
	d="M763.64 202.20l79.40 0.00v-3.20l-79.40 -0.00"/>
<path class="fill"
	d="M789.14 197.20l53.60 0.00v-3.20l-53.60 -0.00"/>
<use x="767.54" y="183.00" xlink:href="#hd"/>
<path d="M764.04 183.00v18.20" class="stroke"/>
<use x="792.64" y="162.00" xlink:href="#hd"/>
<path d="M789.14 162.00v39.20" class="stroke"/>
<use x="810.64" y="165.00" xlink:href="#hd"/>
<defs>
<path id="unat" class="fill" d="
	m96 -750
	h-32
	v716
	l32 -8
	182 -54
	v282
	h32
	v-706
	l-34 10
	-180 50
	v-290
	m0 592
	v-190
	l182 -52
	v188"/>
<use id="nt0" transform="translate(-3,5) scale(0.018)"
	xlink:href="#unat"/>
</defs>
<use x="801.64" y="165.00" xlink:href="#nt0"/>
<path d="M807.14 165.00v36.20" class="stroke"/>
<use x="828.44" y="168.00" xlink:href="#hd"/>
<path d="M824.94 168.00v33.20" class="stroke"/>
<use x="846.24" y="171.00" xlink:href="#hd"/>
<path d="M842.74 171.00v30.20" class="stroke"/>
<path class="fill"
	d="M450.54 195.00l61.50 0.00v-3.20l-61.50 -0.00"/>
<use x="454.34" y="174.00" xlink:href="#hd"/>
<path d="M450.84 174.00v20.00" class="stroke"/>
<use x="479.54" y="174.00" xlink:href="#hd"/>
<path d="M476.04 174.00v20.00" class="stroke"/>
<use x="515.14" y="174.00" xlink:href="#hd"/>
<path d="M511.64 174.00v20.00" class="stroke"/>
</g>
<g stroke-width="0.70" transform="scale(0.867)" font-family="Times" font-size="13.00">
<path class="stroke" stroke-width="1"
	d="M11.54 316.00v-82.00"/>
<path class="fill"
	d="M6.54 231.00
	c10.5 1 12 -4.5 12 -3.5c0 1 -3.5 5.5 -8.5 5.5
	v84.00
	c5 0 8.5 4.5 8.5 5.5c0 1 -1.5 -4.5 -12 -3.5"/>
<use x="143.14" y="258.00" xlink:href="#rdots"/>
<path class="stroke" stroke-width="1"
	d="M139.14 258.00v-24.00"/>
<path class="stroke" stroke-width="3"
	d="M134.64 258.00v-24.00"/>
<use x="143.14" y="316.00" xlink:href="#rdots"/>
<path class="stroke" stroke-width="1"
	d="M139.14 316.00v-58.00"/>
<path class="stroke" stroke-width="3"
	d="M134.64 316.00v-58.00"/>
<path class="stroke" stroke-width="1"
	d="M230.64 258.00v-24.00"/>
<path class="stroke" stroke-width="1"
	d="M230.64 316.00v-58.00"/>
<path class="stroke" stroke-width="1"
	d="M308.94 258.00v-24.00"/>
<path class="stroke" stroke-width="1"
	d="M308.94 316.00v-58.00"/>
<path class="stroke" stroke-width="1"
	d="M407.04 258.00v-24.00"/>
<path class="stroke" stroke-width="1"
	d="M407.04 316.00v-58.00"/>
<path class="stroke" stroke-width="1"
	d="M494.24 258.00v-24.00"/>
<path class="stroke" stroke-width="1"
	d="M494.24 316.00v-58.00"/>
<path class="stroke" stroke-width="1"
	d="M592.24 258.00v-24.00"/>
<path class="stroke" stroke-width="1"
	d="M592.24 316.00v-58.00"/>
<path class="stroke" stroke-width="1"
	d="M690.34 258.00v-24.00"/>
<path class="stroke" stroke-width="1"
	d="M690.34 316.00v-58.00"/>
<path class="stroke" stroke-width="1"
	d="M788.34 258.00v-24.00"/>
<path class="stroke" stroke-width="1"
	d="M788.34 316.00v-58.00"/>
<path class="stroke" stroke-width="3"
	d="M860.54 258.00v-24.00"/>
<path class="stroke" stroke-width="1"
	d="M856.04 258.00v-24.00"/>
<use x="852.04" y="258.00" xlink:href="#rdots"/>
<path class="stroke" stroke-width="3"
	d="M860.54 316.00v-58.00"/>
<path class="stroke" stroke-width="1"
	d="M856.04 316.00v-58.00"/>
<use x="852.04" y="316.00" xlink:href="#rdots"/>
<path d="m11.54 258.00
	h850.50
	M11.54 252.00
	h850.50
	M11.54 246.00
	h850.50
	M11.54 240.00
	h850.50
	M11.54 234.00
	h850.50
	" class="stroke"/>
<path d="m11.54 316.00
	h850.50
	M11.54 310.00
	h850.50
	M11.54 304.00
	h850.50
	M11.54 298.00
	h850.50
	M11.54 292.00
	h850.50
	" class="stroke"/>
<text x="47.54" y="219.40">2</text>
<path class="stroke"
	d="M43.54 208.00m0 20v-20h88.60v20"/>
<use x="23.54" y="252.00" xlink:href="#tclef"/>
<use x="56.04" y="231.00" xlink:href="#hd"/>
<path d="M52.54 231.00v40.00" class="stroke"/>
<use x="56.04" y="252.00" xlink:href="#hd"/>
<use x="56.04" y="246.00" xlink:href="#hd"/>
<use x="56.04" y="240.00" xlink:href="#hd"/>
<use x="108.94" y="246.00" xlink:href="#r8"/>
<path class="fill"
	d="M158.74 262.60l29.90 5.70v-3.20l-29.90 -5.70"/>
<path class="fill"
	d="M159.14 257.60l14.60 2.80v-3.20l-14.60 -2.80"/>
<use x="162.64" y="234.00" xlink:href="#hd"/>
<use x="153.64" y="234.00" xlink:href="#sh0"/>
<path d="M159.14 234.00v27.60" class="stroke"/>
<use x="177.24" y="240.00" xlink:href="#hd"/>
<path d="M173.74 240.00v24.40" class="stroke"/>
<use x="191.84" y="249.00" xlink:href="#hd"/>
<path d="M188.34 249.00v18.20" class="stroke"/>
<use x="214.34" y="234.00" xlink:href="#hd"/>
<path d="M210.84 234.00v21.00" class="stroke"/>
<path class="fill"
	d="M210.84 255.00c0.6 -5.6 9.6 -9 5.6 -18.4
	1.6 6 -1.3 11.6 -5.6 12.8
"/>
<path class="fill"
	d="M239.24 254.60l50.20 4.60v-3.20l-50.20 -4.60"/>
<path class="fill"
	d="M259.94 251.50l14.60 1.30v-3.20l-14.60 -1.30"/>
<use x="243.14" y="231.00" xlink:href="#hd"/>
<path d="M239.64 231.00v22.70" class="stroke"/>
<use x="263.44" y="228.00" xlink:href="#hl"/>
<use x="263.44" y="225.00" xlink:href="#hd"/>
<path d="M259.94 225.00v30.50" class="stroke"/>
<use x="278.04" y="231.00" xlink:href="#hd"/>
<path d="M274.54 231.00v25.90" class="stroke"/>
<use x="292.64" y="240.00" xlink:href="#hd"/>
<path d="M289.14 240.00v18.20" class="stroke"/>
<path class="fill"
	d="M317.64 261.00l59.10 0.00v-3.20l-59.10 -0.00"/>
<use x="321.44" y="237.00" xlink:href="#hd"/>
<path d="M317.94 237.00v23.00" class="stroke"/>
<use x="321.44" y="243.00" xlink:href="#hd"/>
<use x="350.74" y="237.00" xlink:href="#hd"/>
<path d="M347.24 237.00v23.00" class="stroke"/>
<use x="350.74" y="243.00" xlink:href="#hd"/>
<use x="379.94" y="237.00" xlink:href="#hd"/>
<path d="M376.44 237.00v23.00" class="stroke"/>
<use x="379.94" y="243.00" xlink:href="#hd"/>
<path class="fill"
	d="M415.64 262.20l59.10 5.40v-3.20l-59.10 -5.40"/>
<path class="fill"
	d="M416.04 257.20l43.80 4.00v-3.20l-43.80 -4.00"/>
<use x="419.54" y="240.00" xlink:href="#hd"/>
<path d="M416.04 240.00v21.20" class="stroke"/>
<use x="434.14" y="228.00" xlink:href="#hl"/>
<use x="434.14" y="225.00" xlink:href="#hd"/>
<path d="M430.64 225.00v37.50" class="stroke"/>
<use x="448.74" y="231.00" xlink:href="#hd"/>
<path d="M445.24 231.00v32.90" class="stroke"/>
<use x="463.34" y="240.00" xlink:href="#hd"/>
<path d="M459.84 240.00v25.20" class="stroke"/>
<use x="477.94" y="246.00" xlink:href="#hd"/>
<path d="M474.44 246.00v20.50" class="stroke"/>
<path class="fill"
	d="M502.94 263.50l73.70 -6.30v-3.20l-73.70 6.30"/>
<path class="fill"
	d="M503.24 258.40l73.00 -6.20v-3.20l-73.00 6.20"/>
<use x="506.74" y="237.00" xlink:href="#hd"/>
<path d="M503.24 237.00v25.40" class="stroke"/>
<use x="521.34" y="240.00" xlink:href="#hd"/>
<path d="M517.84 240.00v21.20" class="stroke"/>
<use x="535.94" y="237.00" xlink:href="#hd"/>
<path d="M532.44 237.00v23.00" class="stroke"/>
<use x="550.54" y="231.00" xlink:href="#hd"/>
<path d="M547.04 231.00v27.70" class="stroke"/>
<use x="565.14" y="228.00" xlink:href="#hl"/>
<use x="565.14" y="222.00" xlink:href="#hl"/>
<use x="565.14" y="222.00" xlink:href="#hd"/>
<path d="M561.64 222.00v35.50" class="stroke"/>
<use x="579.74" y="231.00" xlink:href="#hd"/>
<path d="M576.24 231.00v25.20" class="stroke"/>
<path class="fill"
	d="M600.94 275.50l73.70 -6.30v-3.20l-73.70 6.30"/>
<path class="fill"
	d="M601.24 270.40l73.00 -6.20v-3.20l-73.00 6.20"/>
<use x="604.74" y="243.00" xlink:href="#hd"/>
<path d="M601.24 243.00v31.40" class="stroke"/>
<use x="619.44" y="252.00" xlink:href="#hd"/>
<path d="M615.94 252.00v21.20" class="stroke"/>
<use x="634.04" y="237.00" xlink:href="#hd"/>
<path d="M630.54 237.00v35.00" class="stroke"/>
<use x="648.64" y="243.00" xlink:href="#hd"/>
<path d="M645.14 243.00v27.70" class="stroke"/>
<use x="663.24" y="231.00" xlink:href="#hd"/>
<path d="M659.74 231.00v38.50" class="stroke"/>
<use x="677.84" y="237.00" xlink:href="#hd"/>
<path d="M674.34 237.00v31.20" class="stroke"/>
<path class="fill"
	d="M698.94 266.00l73.70 0.00v-3.20l-73.70 -0.00"/>
<path class="fill"
	d="M699.34 261.00l73.00 0.00v-3.20l-73.00 -0.00"/>
<use x="702.84" y="240.00" xlink:href="#hd"/>
<path d="M699.34 240.00v24.90" class="stroke"/>
<use x="717.44" y="234.00" xlink:href="#hd"/>
<path d="M713.94 234.00v30.90" class="stroke"/>
<use x="732.04" y="240.00" xlink:href="#hd"/>
<path d="M728.54 240.00v24.90" class="stroke"/>
<use x="746.64" y="234.00" xlink:href="#hd"/>
<path d="M743.14 234.00v30.90" class="stroke"/>
<use x="761.24" y="246.00" xlink:href="#hd"/>
<path d="M757.74 246.00v18.90" class="stroke"/>
<use x="775.84" y="240.00" xlink:href="#hd"/>
<path d="M772.34 240.00v24.90" class="stroke"/>
<use x="800.84" y="243.00" xlink:href="#hd"/>
<path d="M797.34 243.00v21.00" class="stroke"/>
<use x="841.54" y="246.00" xlink:href="#r8"/>
<use x="23.54" y="298.00" xlink:href="#bclef"/>
<path class="fill"
	d="M52.24 335.20l68.20 -5.00v-3.20l-68.20 5.00"/>
<path class="fill"
	d="M72.84 328.70l47.20 -3.40v-3.20l-47.20 3.40"/>
<use x="56.04" y="316.00" xlink:href="#hd"/>
<path d="M52.54 316.00v18.20" class="stroke"/>
<use x="76.34" y="289.00" xlink:href="#hd"/>
<path d="M72.84 289.00v43.70" class="stroke"/>
<use x="90.94" y="295.00" xlink:href="#hd"/>
<path d="M87.44 295.00v36.70" class="stroke"/>
<use x="108.94" y="298.00" xlink:href="#hd"/>
<use x="99.94" y="298.00" xlink:href="#sh0"/>
<path d="M105.44 298.00v32.30" class="stroke"/>
<use x="123.64" y="301.00" xlink:href="#hd"/>
<path d="M120.14 301.00v28.30" class="stroke"/>
<use x="162.64" y="292.00" xlink:href="#hd"/>
<path d="M159.14 292.00v34.00" class="stroke"/>
<use x="162.64" y="307.00" xlink:href="#hd"/>
<use x="214.34" y="292.00" xlink:href="#hd"/>
<path d="M210.84 292.00v34.00" class="stroke"/>
<path class="fill"
	d="M210.84 326.00c0.6 -5.6 9.6 -9 5.6 -18.4
	1.6 6 -1.3 11.6 -5.6 12.8
"/>
<use x="214.34" y="307.00" xlink:href="#hd"/>
<use x="243.14" y="295.00" xlink:href="#hd"/>
<path d="M239.64 295.00v34.00" class="stroke"/>
<use x="243.14" y="310.00" xlink:href="#hd"/>
<use x="292.64" y="304.00" xlink:href="#r8"/>
<path class="fill"
	d="M317.64 329.20l73.70 0.00v-3.20l-73.70 -0.00"/>
<path class="fill"
	d="M317.94 324.20l73.00 0.00v-3.20l-73.00 -0.00"/>
<use x="321.44" y="307.00" xlink:href="#hd"/>
<path d="M317.94 307.00v21.20" class="stroke"/>
<use x="336.14" y="301.00" xlink:href="#hd"/>
<path d="M332.64 301.00v27.20" class="stroke"/>
<use x="350.74" y="295.00" xlink:href="#hd"/>
<path d="M347.24 295.00v33.20" class="stroke"/>
<use x="365.34" y="301.00" xlink:href="#hd"/>
<path d="M361.84 301.00v27.20" class="stroke"/>
<use x="379.94" y="286.00" xlink:href="#hl"/>
<use x="379.94" y="286.00" xlink:href="#hd"/>
<path d="M376.44 286.00v42.20" class="stroke"/>
<use x="394.54" y="307.00" xlink:href="#hd"/>
<path d="M391.04 307.00v21.20" class="stroke"/>
<use x="419.54" y="289.00" xlink:href="#hd"/>
<path d="M416.04 289.00v25.00" class="stroke"/>
<use x="419.54" y="295.00" xlink:href="#hd"/>
<use x="477.94" y="304.00" xlink:href="#r8"/>
<use x="506.74" y="295.00" xlink:href="#hd"/>
<path d="M510.24 295.00v-21.00" class="stroke"/>
<use x="565.14" y="301.00" xlink:href="#hd"/>
<path d="M568.64 301.00v-21.00" class="stroke"/>
<path class="fill"
	d="M568.64 280.00c0.6 5.6 9.6 9 5.6 18.4
	1.6 -6 -1.3 -11.6 -5.6 -12.8
"/>
<use x="604.74" y="301.00" xlink:href="#hd"/>
<path d="M601.24 301.00v25.00" class="stroke"/>
<use x="604.74" y="307.00" xlink:href="#hd"/>
<use x="663.24" y="304.00" xlink:href="#r8"/>
<use x="702.84" y="292.00" xlink:href="#hd"/>
<path d="M699.34 292.00v25.00" class="stroke"/>
<use x="702.84" y="298.00" xlink:href="#hd"/>
<use x="761.24" y="286.00" xlink:href="#hl"/>
<use x="761.24" y="283.00" xlink:href="#hd"/>
<path d="M757.74 283.00v31.00" class="stroke"/>
<path class="fill"
	d="M757.74 314.00c0.6 -5.6 9.6 -9 5.6 -18.4
	1.6 6 -1.3 11.6 -5.6 12.8
"/>
<use x="761.24" y="295.00" xlink:href="#hd"/>
<path class="fill"
	d="M804.04 287.70l41.40 9.70v3.20l-41.40 -9.70"/>
<use x="800.84" y="307.00" xlink:href="#hd"/>
<path d="M804.34 307.00v-18.20" class="stroke"/>
<use x="821.24" y="316.00" xlink:href="#hd"/>
<path d="M824.74 316.00v-22.40" class="stroke"/>
<use x="841.54" y="322.00" xlink:href="#hl"/>
<use x="841.54" y="328.00" xlink:href="#hl"/>
<use x="841.54" y="328.00" xlink:href="#hd"/>
<path d="M845.04 328.00v-29.70" class="stroke"/>
<use x="506.74" y="307.00" xlink:href="#hd"/>
<path d="M503.24 307.00v21.00" class="stroke"/>
<use x="565.14" y="307.00" xlink:href="#hd"/>
<path d="M561.64 307.00v21.00" class="stroke"/>
<path class="fill"
	d="M561.64 328.00c0.6 -5.6 9.6 -9 5.6 -18.4
	1.6 6 -1.3 11.6 -5.6 12.8
"/>
</g>
</svg>
