<?xml version="1.0" standalone="no"?>
<!DOCTYPE svg PUBLIC "-//W3C//DTD SVG 1.1//EN"
	"http://www.w3.org/Graphics/SVG/1.1/DTD/svg11.dtd">
<svg xmlns="http://www.w3.org/2000/svg" version="1.1"
	xmlns:xlink="http://www.w3.org/1999/xlink"
	color="black"
	width="757.10px" height="293.80px">
<style type="text/css">
.fill {fill: currentColor}
.stroke {stroke: currentColor; fill: none}
text{white-space: pre}
</style>
<title>./K516f-3-9-11-12-2-3-10-10-12-5-10-7-6-8-10-8.abc (2963) tune 1</title>
<!-- Creator: abcm2ps-8.13.8 -->
<!-- CreationDate: Sep  7, 2017 11:19 -->
<!-- CommandLine: ./K516f-3-9-11-12-2-3-10-10-12-5-10-7-6-8-10-8.abc -O ./K516f-3-9-11-12-2-3-10-10-12-5-10-7-6-8-10-8.svg -g -->
<rect width="100%" height="100%" fill="white"/>
<g stroke-width="0.70" transform="scale(0.867)">
<!-- title: 3-9-11-12-2-3-10-10-12-5-10-7-6-8-10-8 -->
</g>
<g stroke-width="0.70" transform="scale(0.867)" font-family="Times" font-size="20.00">
<text x="436.84" y="22.00" text-anchor="middle">3-9-11-12-2-3-10-10-12-5-10-7-6-8-10-8</text>
</g>
<g stroke-width="0.70" transform="scale(0.867)" font-family="Times" font-size="20.00">
<!-- subtitle: $1K.516f::32:84:165:103:105:46:62:123:35:176:19:29:76:168:149:172::$0 -->
</g>
<g stroke-width="0.70" transform="scale(0.867)" font-family="Courier" font-size="8.00" font-weight="bold">
<text x="436.84" y="41.80" text-anchor="middle">K.516f::32:84:165:103:105:46:62:123:35:176:19:29:76:168:149:172::</text>
</g>
<g stroke-width="0.70" transform="scale(0.867)" font-family="Courier" font-size="8.00" font-weight="bold">
<!-- subtitle: $1Perm. No.: 296302917095121$0 -->
<text x="436.84" y="60.80" text-anchor="middle">Perm. No.: 296302917095121</text>
</g>
<g stroke-width="0.70" transform="scale(0.607)" font-family="Courier" font-size="8.00" font-weight="bold">
<defs>
<ellipse id="hd" rx="4.1" ry="2.9"
	transform="rotate(-20)" class="fill"/>
</defs>
<use x="103.06" y="121.29" xlink:href="#hd"/>
<path d="M106.56 121.29v-21.00" class="stroke"/>
<path class="fill"
	d="M106.56 100.29c0.6 5.6 9.6 9 5.6 18.4
	1.6 -6 -1.3 -11.6 -5.6 -12.8
"/>
</g>
<g stroke-width="0.70" transform="scale(0.867)" font-family="Times" font-size="15.00" font-weight="bold">
<text x="81.24" y="87.00">= 111</text>
<path class="stroke" stroke-width="1"
	d="M11.54 183.00v-82.00"/>
<path class="fill"
	d="M6.54 98.00
	c10.5 1 12 -4.5 12 -3.5c0 1 -3.5 5.5 -8.5 5.5
	v84.00
	c5 0 8.5 4.5 8.5 5.5c0 1 -1.5 -4.5 -12 -3.5"/>
<defs>
<g id="rdots" class="fill">
	<circle cx="0" cy="-9" r="1.2"/>
	<circle cx="0" cy="-15" r="1.2"/>
</g>
</defs>
<use x="70.54" y="125.00" xlink:href="#rdots"/>
<path class="stroke" stroke-width="1"
	d="M66.54 125.00v-24.00"/>
<path class="stroke" stroke-width="3"
	d="M62.04 125.00v-24.00"/>
<use x="70.54" y="183.00" xlink:href="#rdots"/>
<path class="stroke" stroke-width="1"
	d="M66.54 183.00v-58.00"/>
<path class="stroke" stroke-width="3"
	d="M62.04 183.00v-58.00"/>
<path class="stroke" stroke-width="1"
	d="M150.84 125.00v-24.00"/>
<path class="stroke" stroke-width="1"
	d="M150.84 183.00v-58.00"/>
<path class="stroke" stroke-width="1"
	d="M261.44 125.00v-24.00"/>
<path class="stroke" stroke-width="1"
	d="M261.44 183.00v-58.00"/>
<path class="stroke" stroke-width="1"
	d="M340.84 125.00v-24.00"/>
<path class="stroke" stroke-width="1"
	d="M340.84 183.00v-58.00"/>
<path class="stroke" stroke-width="1"
	d="M439.94 125.00v-24.00"/>
<path class="stroke" stroke-width="1"
	d="M439.94 183.00v-58.00"/>
<path class="stroke" stroke-width="1"
	d="M545.84 125.00v-24.00"/>
<path class="stroke" stroke-width="1"
	d="M545.84 183.00v-58.00"/>
<path class="stroke" stroke-width="1"
	d="M646.54 125.00v-24.00"/>
<path class="stroke" stroke-width="1"
	d="M646.54 183.00v-58.00"/>
<path class="stroke" stroke-width="1"
	d="M758.34 125.00v-24.00"/>
<path class="stroke" stroke-width="1"
	d="M758.34 183.00v-58.00"/>
<path class="stroke" stroke-width="3"
	d="M860.54 125.00v-24.00"/>
<path class="stroke" stroke-width="1"
	d="M856.04 125.00v-24.00"/>
<use x="852.04" y="125.00" xlink:href="#rdots"/>
<path class="stroke" stroke-width="3"
	d="M860.54 183.00v-58.00"/>
<path class="stroke" stroke-width="1"
	d="M856.04 183.00v-58.00"/>
<use x="852.04" y="183.00" xlink:href="#rdots"/>
<path d="m11.54 125.00
	h850.50
	M11.54 119.00
	h850.50
	M11.54 113.00
	h850.50
	M11.54 107.00
	h850.50
	M11.54 101.00
	h850.50
	" class="stroke"/>
<path d="m11.54 183.00
	h850.50
	M11.54 177.00
	h850.50
	M11.54 171.00
	h850.50
	M11.54 165.00
	h850.50
	M11.54 159.00
	h850.50
	" class="stroke"/>
<path class="fill"
	d="M278.84 103.40c6.77 -3.00 36.66 2.23 43.43 7.60
	v-0.24c-8.08 -7.13 -35.36 -12.36 -43.43 -7.36"/>
</g>
<g stroke-width="0.70" transform="scale(0.867)" font-family="Times" font-size="13.00">
<text x="762.34" y="86.40">1</text>
<path class="stroke"
	d="M758.34 75.00m0 20v-20h95.70v20"/>
<defs>
<path id="utclef" class="fill" d="m-50 -90
	c-72 -41 -72 -158 52 -188
	150 -10 220 188 90 256
	-114 52 -275 0 -293 -136
	-15 -181 93 -229 220 -334
	88 -87 79 -133 62 -210
	-51 33 -94 105 -89 186
	17 267 36 374 49 574
	6 96 -19 134 -77 135
	-80 1 -126 -93 -61 -133
	85 -41 133 101 31 105
	23 17 92 37 90 -92
	-10 -223 -39 -342 -50 -617
	0 -90 0 -162 96 -232
	56 72 63 230 22 289
	-74 106 -257 168 -255 316
	9 153 148 185 252 133
	86 -65 29 -192 -80 -176
	-71 12 -105 67 -59 124"/>
<use id="tclef" transform="translate(0,6) scale(0.045)"
	xlink:href="#utclef"/>
</defs>
<use x="23.54" y="119.00" xlink:href="#tclef"/>
<g font-family="serif" font-size="16" font-weight="bold" font-style="normal"
	transform="translate(42.04,124.50) scale(1.2,1)">
	<text text-anchor="middle">8</text>
	<text y="-12" text-anchor="middle">3</text>
</g>
<path class="fill"
	d="M81.04 138.20l48.10 -6.60v-3.20l-48.10 6.60"/>
<use x="84.84" y="119.00" xlink:href="#hd"/>
<path d="M81.34 119.00v18.20" class="stroke"/>
<use x="108.64" y="110.00" xlink:href="#hd"/>
<path d="M105.14 110.00v23.90" class="stroke"/>
<use x="132.34" y="104.00" xlink:href="#hd"/>
<path d="M128.84 104.00v26.70" class="stroke"/>
<path class="fill"
	d="M160.34 142.50l84.80 -6.40v-3.20l-84.80 6.40"/>
<path class="fill"
	d="M160.74 137.50l84.10 -6.30v-3.20l-84.10 6.30"/>
<use x="164.24" y="110.00" xlink:href="#hd"/>
<path d="M160.74 110.00v31.50" class="stroke"/>
<use x="181.04" y="119.00" xlink:href="#hd"/>
<path d="M177.54 119.00v21.20" class="stroke"/>
<use x="197.84" y="104.00" xlink:href="#hd"/>
<path d="M194.34 104.00v34.90" class="stroke"/>
<use x="214.64" y="110.00" xlink:href="#hd"/>
<path d="M211.14 110.00v27.70" class="stroke"/>
<use x="231.44" y="98.00" xlink:href="#hd"/>
<path d="M227.94 98.00v38.40" class="stroke"/>
<use x="248.24" y="104.00" xlink:href="#hd"/>
<path d="M244.74 104.00v31.10" class="stroke"/>
<path class="fill"
	d="M270.94 130.20l48.10 8.10v-3.20l-48.10 -8.10"/>
<use x="274.84" y="107.00" xlink:href="#hd"/>
<path d="M271.34 107.00v22.20" class="stroke"/>
<use x="298.54" y="113.00" xlink:href="#hd"/>
<path d="M295.04 113.00v20.20" class="stroke"/>
<use x="322.24" y="119.00" xlink:href="#hd"/>
<path d="M318.74 119.00v18.20" class="stroke"/>
<path class="fill"
	d="M357.34 79.70l67.90 8.30v3.20l-67.90 -8.30"/>
<path class="fill"
	d="M357.64 84.80l50.40 6.10v3.20l-50.40 -6.10"/>
<use x="354.14" y="110.00" xlink:href="#hd"/>
<path d="M357.64 110.00v-29.20" class="stroke"/>
<use x="370.94" y="104.00" xlink:href="#hd"/>
<path d="M374.44 104.00v-21.20" class="stroke"/>
<use x="387.74" y="110.00" xlink:href="#hd"/>
<path d="M391.24 110.00v-25.20" class="stroke"/>
<use x="404.64" y="119.00" xlink:href="#hd"/>
<path d="M408.14 119.00v-32.10" class="stroke"/>
<use x="421.44" y="125.00" xlink:href="#hd"/>
<path d="M424.94 125.00v-36.10" class="stroke"/>
<path class="fill"
	d="M454.64 127.00l74.80 0.00v-3.20l-74.80 -0.00"/>
<path class="fill"
	d="M478.74 122.00l50.40 0.00v-3.20l-50.40 -0.00"/>
<use x="458.44" y="101.00" xlink:href="#hd"/>
<defs>
<path id="usharp" class="fill" d="
	m136 -702
	v890
	h32
	v-890
	m128 840
	h32
	v-888
	h-32
	m-232 286
	v116
	l338 -96
	v-116
	m-338 442
	v116
	l338 -98
	v-114"/>
<use id="sh0" transform="translate(-4,5) scale(0.018)"
	xlink:href="#usharp"/>
</defs>
<use x="449.44" y="101.00" xlink:href="#sh0"/>
<path d="M454.94 101.00v25.00" class="stroke"/>
<defs>
<path id="hl" class="stroke" d="m-6 0h12"/>
</defs>
<use x="482.24" y="95.00" xlink:href="#hl"/>
<use x="482.24" y="95.00" xlink:href="#hd"/>
<path d="M478.74 95.00v31.00" class="stroke"/>
<use x="499.04" y="101.00" xlink:href="#hd"/>
<path d="M495.54 101.00v25.00" class="stroke"/>
<use x="515.84" y="107.00" xlink:href="#hd"/>
<path d="M512.34 107.00v19.00" class="stroke"/>
<use x="532.64" y="101.00" xlink:href="#hd"/>
<path d="M529.14 101.00v25.00" class="stroke"/>
<path class="fill"
	d="M555.34 127.00l74.80 8.20v-3.20l-74.80 -8.20"/>
<path class="fill"
	d="M579.44 124.70l50.40 5.50v-3.20l-50.40 -5.50"/>
<use x="559.14" y="98.00" xlink:href="#hd"/>
<path d="M555.64 98.00v28.10" class="stroke"/>
<use x="582.94" y="95.00" xlink:href="#hl"/>
<use x="582.94" y="92.00" xlink:href="#hd"/>
<path d="M579.44 92.00v36.70" class="stroke"/>
<use x="599.74" y="98.00" xlink:href="#hd"/>
<path d="M596.24 98.00v32.50" class="stroke"/>
<use x="616.54" y="107.00" xlink:href="#hd"/>
<path d="M613.04 107.00v25.40" class="stroke"/>
<use x="633.34" y="113.00" xlink:href="#hd"/>
<path d="M629.84 113.00v21.20" class="stroke"/>
<path class="fill"
	d="M663.04 81.80l85.90 8.00v3.20l-85.90 -8.00"/>
<path class="fill"
	d="M663.34 86.80l85.30 8.00v3.20l-85.30 -8.00"/>
<use x="659.84" y="104.00" xlink:href="#hd"/>
<path d="M663.34 104.00v-21.20" class="stroke"/>
<use x="676.64" y="110.00" xlink:href="#hd"/>
<path d="M680.14 110.00v-25.60" class="stroke"/>
<use x="693.54" y="113.00" xlink:href="#hd"/>
<path d="M697.04 113.00v-27.10" class="stroke"/>
<use x="710.34" y="119.00" xlink:href="#hd"/>
<path d="M713.84 119.00v-31.50" class="stroke"/>
<use x="727.14" y="116.00" xlink:href="#hd"/>
<path d="M730.64 116.00v-26.90" class="stroke"/>
<use x="745.14" y="122.00" xlink:href="#hd"/>
<use x="736.14" y="122.00" xlink:href="#sh0"/>
<path d="M748.64 122.00v-31.20" class="stroke"/>
<use x="771.64" y="98.00" xlink:href="#hd"/>
<path d="M768.14 98.00v40.00" class="stroke"/>
<use x="771.64" y="119.00" xlink:href="#hd"/>
<use x="771.64" y="113.00" xlink:href="#hd"/>
<use x="771.64" y="107.00" xlink:href="#hd"/>
<defs>
<path id="r8e" class="fill" d="m 0 0
	c-1.5 1.5 -2.4 2 -3.6 2
	2.4 -2.8 -2.8 -4 -2.8 -1.2
	c0 2.7 4.3 2.4 5.9 0.6"/>
<g id="r8">
	<path d="m3.3 -4l-3.4 9.6" class="stroke"/>
	<use x="3.4" y="-4" xlink:href="#r8e"/>
</g>
</defs>
<use x="830.24" y="113.00" xlink:href="#r8"/>
<defs>
<path id="ubclef" class="fill" d="m-200 -87
	c124 -35 222 -78 254 -236
	43 -228 -167 -246 -192 -103
	59 -80 157 22 92 78
	-62 47 -115 -22 -106 -88
	21 -141 270 -136 274 52
	-1 175 -106 264 -322 297
	m357 -250
	c0 -36 51 -34 51 0
	0 37 -51 36 -51 0
	m-2 -129
	c0 -36 51 -34 51 0
	0 38 -51 37 -51 0"/>
<use id="bclef" transform="translate(0,18) scale(0.045)"
	xlink:href="#ubclef"/>
</defs>
<use x="23.54" y="165.00" xlink:href="#bclef"/>
<g font-family="serif" font-size="16" font-weight="bold" font-style="normal"
	transform="translate(42.04,182.50) scale(1.2,1)">
	<text text-anchor="middle">8</text>
	<text y="-12" text-anchor="middle">3</text>
</g>
<use x="84.84" y="168.00" xlink:href="#hd"/>
<path d="M81.34 168.00v25.00" class="stroke"/>
<use x="84.84" y="174.00" xlink:href="#hd"/>
<use x="132.34" y="171.00" xlink:href="#r8"/>
<use x="164.24" y="168.00" xlink:href="#hd"/>
<path d="M160.74 168.00v25.00" class="stroke"/>
<use x="164.24" y="174.00" xlink:href="#hd"/>
<use x="231.44" y="171.00" xlink:href="#r8"/>
<use x="274.84" y="177.00" xlink:href="#hd"/>
<path d="M278.34 177.00v-21.00" class="stroke"/>
<use x="322.24" y="171.00" xlink:href="#r8"/>
<use x="354.14" y="168.00" xlink:href="#hd"/>
<path d="M350.64 168.00v25.00" class="stroke"/>
<use x="354.14" y="174.00" xlink:href="#hd"/>
<use x="421.44" y="171.00" xlink:href="#r8"/>
<use x="458.44" y="174.00" xlink:href="#hd"/>
<path d="M461.94 174.00v-21.00" class="stroke"/>
<use x="515.84" y="171.00" xlink:href="#r8"/>
<use x="559.14" y="177.00" xlink:href="#hd"/>
<path d="M562.64 177.00v-25.00" class="stroke"/>
<use x="559.14" y="171.00" xlink:href="#hd"/>
<use x="616.54" y="171.00" xlink:href="#r8"/>
<path class="fill"
	d="M663.04 147.70l67.90 8.30v3.20l-67.90 -8.30"/>
<use x="659.84" y="174.00" xlink:href="#hd"/>
<path d="M663.34 174.00v-25.30" class="stroke"/>
<use x="693.54" y="171.00" xlink:href="#hd"/>
<path d="M697.04 171.00v-18.20" class="stroke"/>
<use x="727.14" y="189.00" xlink:href="#hl"/>
<use x="727.14" y="192.00" xlink:href="#hd"/>
<path d="M730.64 192.00v-35.10" class="stroke"/>
<path class="fill"
	d="M767.84 202.20l76.00 0.00v-3.20l-76.00 -0.00"/>
<path class="fill"
	d="M791.84 197.20l51.60 0.00v-3.20l-51.60 -0.00"/>
<use x="771.64" y="183.00" xlink:href="#hd"/>
<path d="M768.14 183.00v18.20" class="stroke"/>
<use x="795.34" y="162.00" xlink:href="#hd"/>
<path d="M791.84 162.00v39.20" class="stroke"/>
<use x="813.34" y="165.00" xlink:href="#hd"/>
<defs>
<path id="unat" class="fill" d="
	m96 -750
	h-32
	v716
	l32 -8
	182 -54
	v282
	h32
	v-706
	l-34 10
	-180 50
	v-290
	m0 592
	v-190
	l182 -52
	v188"/>
<use id="nt0" transform="translate(-3,5) scale(0.018)"
	xlink:href="#unat"/>
</defs>
<use x="804.34" y="165.00" xlink:href="#nt0"/>
<path d="M809.84 165.00v36.20" class="stroke"/>
<use x="830.24" y="168.00" xlink:href="#hd"/>
<path d="M826.74 168.00v33.20" class="stroke"/>
<use x="847.04" y="171.00" xlink:href="#hd"/>
<path d="M843.54 171.00v30.20" class="stroke"/>
</g>
<g stroke-width="0.70" transform="scale(0.867)" font-family="Times" font-size="13.00">
<path class="stroke" stroke-width="1"
	d="M11.54 316.00v-82.00"/>
<path class="fill"
	d="M6.54 231.00
	c10.5 1 12 -4.5 12 -3.5c0 1 -3.5 5.5 -8.5 5.5
	v84.00
	c5 0 8.5 4.5 8.5 5.5c0 1 -1.5 -4.5 -12 -3.5"/>
<use x="146.64" y="258.00" xlink:href="#rdots"/>
<path class="stroke" stroke-width="1"
	d="M142.64 258.00v-24.00"/>
<path class="stroke" stroke-width="3"
	d="M138.14 258.00v-24.00"/>
<use x="146.64" y="316.00" xlink:href="#rdots"/>
<path class="stroke" stroke-width="1"
	d="M142.64 316.00v-58.00"/>
<path class="stroke" stroke-width="3"
	d="M138.14 316.00v-58.00"/>
<path class="stroke" stroke-width="1"
	d="M227.54 258.00v-24.00"/>
<path class="stroke" stroke-width="1"
	d="M227.54 316.00v-58.00"/>
<path class="stroke" stroke-width="1"
	d="M330.54 258.00v-24.00"/>
<path class="stroke" stroke-width="1"
	d="M330.54 316.00v-58.00"/>
<path class="stroke" stroke-width="1"
	d="M413.34 258.00v-24.00"/>
<path class="stroke" stroke-width="1"
	d="M413.34 316.00v-58.00"/>
<path class="stroke" stroke-width="1"
	d="M505.64 258.00v-24.00"/>
<path class="stroke" stroke-width="1"
	d="M505.64 316.00v-58.00"/>
<path class="stroke" stroke-width="1"
	d="M608.74 258.00v-24.00"/>
<path class="stroke" stroke-width="1"
	d="M608.74 316.00v-58.00"/>
<path class="stroke" stroke-width="1"
	d="M702.44 258.00v-24.00"/>
<path class="stroke" stroke-width="1"
	d="M702.44 316.00v-58.00"/>
<path class="stroke" stroke-width="1"
	d="M785.24 258.00v-24.00"/>
<path class="stroke" stroke-width="1"
	d="M785.24 316.00v-58.00"/>
<path class="stroke" stroke-width="3"
	d="M860.54 258.00v-24.00"/>
<path class="stroke" stroke-width="1"
	d="M856.04 258.00v-24.00"/>
<use x="852.04" y="258.00" xlink:href="#rdots"/>
<path class="stroke" stroke-width="3"
	d="M860.54 316.00v-58.00"/>
<path class="stroke" stroke-width="1"
	d="M856.04 316.00v-58.00"/>
<use x="852.04" y="316.00" xlink:href="#rdots"/>
<path d="m11.54 258.00
	h850.50
	M11.54 252.00
	h850.50
	M11.54 246.00
	h850.50
	M11.54 240.00
	h850.50
	M11.54 234.00
	h850.50
	" class="stroke"/>
<path d="m11.54 316.00
	h850.50
	M11.54 310.00
	h850.50
	M11.54 304.00
	h850.50
	M11.54 298.00
	h850.50
	M11.54 292.00
	h850.50
	" class="stroke"/>
<text x="47.54" y="219.40">2</text>
<path class="stroke"
	d="M43.54 208.00m0 20v-20h92.10v20"/>
<use x="23.54" y="252.00" xlink:href="#tclef"/>
<use x="56.04" y="231.00" xlink:href="#hd"/>
<path d="M52.54 231.00v40.00" class="stroke"/>
<use x="56.04" y="252.00" xlink:href="#hd"/>
<use x="56.04" y="246.00" xlink:href="#hd"/>
<use x="56.04" y="240.00" xlink:href="#hd"/>
<use x="111.54" y="246.00" xlink:href="#r8"/>
<path class="fill"
	d="M162.24 268.20l44.90 -6.50v-3.20l-44.90 6.50"/>
<use x="166.14" y="249.00" xlink:href="#hd"/>
<path d="M162.64 249.00v18.20" class="stroke"/>
<use x="188.04" y="240.00" xlink:href="#hd"/>
<path d="M184.54 240.00v24.00" class="stroke"/>
<use x="210.34" y="234.00" xlink:href="#hd"/>
<use x="201.34" y="234.00" xlink:href="#sh0"/>
<path d="M206.84 234.00v26.80" class="stroke"/>
<path class="fill"
	d="M236.24 260.00l78.60 0.00v-3.20l-78.60 -0.00"/>
<path class="fill"
	d="M236.54 255.00l77.90 0.00v-3.20l-77.90 -0.00"/>
<use x="240.04" y="228.00" xlink:href="#hl"/>
<use x="240.04" y="228.00" xlink:href="#hd"/>
<path d="M236.54 228.00v31.00" class="stroke"/>
<use x="255.64" y="231.00" xlink:href="#hd"/>
<path d="M252.14 231.00v28.00" class="stroke"/>
<use x="271.24" y="228.00" xlink:href="#hl"/>
<use x="271.24" y="225.00" xlink:href="#hd"/>
<path d="M267.74 225.00v34.00" class="stroke"/>
<use x="286.84" y="231.00" xlink:href="#hd"/>
<path d="M283.34 231.00v28.00" class="stroke"/>
<use x="302.44" y="240.00" xlink:href="#hd"/>
<path d="M298.94 240.00v19.00" class="stroke"/>
<use x="318.04" y="231.00" xlink:href="#hd"/>
<path d="M314.54 231.00v28.00" class="stroke"/>
<path class="fill"
	d="M339.14 266.40l53.80 -4.20v-3.20l-53.80 4.20"/>
<path class="fill"
	d="M339.54 261.40l15.60 -1.20v-3.20l-15.60 1.20"/>
<use x="343.04" y="237.00" xlink:href="#hd"/>
<path d="M339.54 237.00v28.40" class="stroke"/>
<use x="358.64" y="243.00" xlink:href="#hd"/>
<path d="M355.14 243.00v21.20" class="stroke"/>
<use x="374.14" y="237.00" xlink:href="#hd"/>
<path d="M370.64 237.00v26.00" class="stroke"/>
<use x="396.04" y="231.00" xlink:href="#hd"/>
<path d="M392.54 231.00v30.30" class="stroke"/>
<path class="fill"
	d="M422.04 266.00l63.00 0.00v-3.20l-63.00 -0.00"/>
<path class="fill"
	d="M422.34 261.00l46.80 0.00v-3.20l-46.80 -0.00"/>
<use x="425.84" y="246.00" xlink:href="#hd"/>
<path d="M422.34 246.00v18.90" class="stroke"/>
<use x="441.44" y="240.00" xlink:href="#hd"/>
<path d="M437.94 240.00v24.90" class="stroke"/>
<use x="457.04" y="231.00" xlink:href="#hd"/>
<path d="M453.54 231.00v33.90" class="stroke"/>
<use x="472.64" y="240.00" xlink:href="#hd"/>
<path d="M469.14 240.00v24.90" class="stroke"/>
<use x="488.24" y="246.00" xlink:href="#hd"/>
<path d="M484.74 246.00v18.90" class="stroke"/>
<path class="fill"
	d="M514.34 255.80l78.80 9.50v-3.20l-78.80 -9.50"/>
<path class="fill"
	d="M514.64 250.80l78.10 9.40v-3.20l-78.10 -9.40"/>
<use x="518.14" y="228.00" xlink:href="#hl"/>
<use x="518.14" y="222.00" xlink:href="#hl"/>
<use x="518.14" y="222.00" xlink:href="#hd"/>
<path d="M514.64 222.00v32.80" class="stroke"/>
<use x="533.84" y="228.00" xlink:href="#hl"/>
<use x="533.84" y="225.00" xlink:href="#hd"/>
<path d="M530.34 225.00v31.70" class="stroke"/>
<use x="549.44" y="228.00" xlink:href="#hl"/>
<use x="549.44" y="222.00" xlink:href="#hl"/>
<use x="549.44" y="222.00" xlink:href="#hd"/>
<path d="M545.94 222.00v36.60" class="stroke"/>
<use x="565.04" y="231.00" xlink:href="#hd"/>
<path d="M561.54 231.00v29.50" class="stroke"/>
<use x="580.64" y="237.00" xlink:href="#hd"/>
<path d="M577.14 237.00v25.30" class="stroke"/>
<use x="596.24" y="243.00" xlink:href="#hd"/>
<path d="M592.74 243.00v21.20" class="stroke"/>
<path class="fill"
	d="M617.44 256.20l69.30 9.10v-3.20l-69.30 -9.10"/>
<path class="fill"
	d="M639.64 254.10l46.80 6.10v-3.20l-46.80 -6.10"/>
<use x="621.24" y="231.00" xlink:href="#hd"/>
<path d="M617.74 231.00v24.20" class="stroke"/>
<use x="643.14" y="234.00" xlink:href="#hd"/>
<path d="M639.64 234.00v24.10" class="stroke"/>
<use x="658.74" y="237.00" xlink:href="#hd"/>
<path d="M655.24 237.00v23.10" class="stroke"/>
<use x="674.34" y="240.00" xlink:href="#hd"/>
<path d="M670.84 240.00v22.20" class="stroke"/>
<use x="689.94" y="243.00" xlink:href="#hd"/>
<path d="M686.44 243.00v21.20" class="stroke"/>
<path class="fill"
	d="M711.04 264.70l53.80 5.90v-3.20l-53.80 -5.90"/>
<path class="fill"
	d="M711.44 259.80l15.60 1.70v-3.20l-15.60 -1.70"/>
<use x="714.94" y="234.00" xlink:href="#hd"/>
<path d="M711.44 234.00v29.80" class="stroke"/>
<use x="730.44" y="240.00" xlink:href="#hd"/>
<path d="M726.94 240.00v25.50" class="stroke"/>
<use x="746.04" y="249.00" xlink:href="#hd"/>
<path d="M742.54 249.00v18.20" class="stroke"/>
<use x="767.94" y="246.00" xlink:href="#hd"/>
<path d="M764.44 246.00v23.60" class="stroke"/>
<use x="797.74" y="243.00" xlink:href="#hd"/>
<path d="M794.24 243.00v21.00" class="stroke"/>
<use x="841.54" y="246.00" xlink:href="#r8"/>
<use x="23.54" y="298.00" xlink:href="#bclef"/>
<path class="fill"
	d="M52.24 335.20l71.80 -5.10v-3.20l-71.80 5.10"/>
<path class="fill"
	d="M74.44 328.60l49.20 -3.50v-3.20l-49.20 3.50"/>
<use x="56.04" y="316.00" xlink:href="#hd"/>
<path d="M52.54 316.00v18.20" class="stroke"/>
<use x="77.94" y="289.00" xlink:href="#hd"/>
<path d="M74.44 289.00v43.60" class="stroke"/>
<use x="93.54" y="295.00" xlink:href="#hd"/>
<path d="M90.04 295.00v36.50" class="stroke"/>
<use x="111.54" y="298.00" xlink:href="#hd"/>
<use x="102.54" y="298.00" xlink:href="#sh0"/>
<path d="M108.04 298.00v32.20" class="stroke"/>
<use x="127.14" y="301.00" xlink:href="#hd"/>
<path d="M123.64 301.00v28.10" class="stroke"/>
<use x="166.14" y="298.00" xlink:href="#hd"/>
<use x="157.14" y="298.00" xlink:href="#sh0"/>
<path d="M162.64 298.00v25.00" class="stroke"/>
<use x="166.14" y="304.00" xlink:href="#hd"/>
<use x="210.34" y="292.00" xlink:href="#hd"/>
<path d="M206.84 292.00v34.00" class="stroke"/>
<path class="fill"
	d="M206.84 326.00c0.6 -5.6 9.6 -9 5.6 -18.4
	1.6 6 -1.3 11.6 -5.6 12.8
"/>
<use x="210.34" y="307.00" xlink:href="#hd"/>
<use x="240.04" y="310.00" xlink:href="#hd"/>
<path d="M243.54 310.00v-25.00" class="stroke"/>
<use x="240.04" y="304.00" xlink:href="#hd"/>
<use x="302.44" y="310.00" xlink:href="#hd"/>
<path d="M305.94 310.00v-25.00" class="stroke"/>
<path class="fill"
	d="M305.94 285.00c0.6 5.6 9.6 9 5.6 18.4
	1.6 -6 -1.3 -11.6 -5.6 -12.8
"/>
<use x="302.44" y="304.00" xlink:href="#hd"/>
<use x="343.04" y="295.00" xlink:href="#hd"/>
<path d="M339.54 295.00v31.00" class="stroke"/>
<use x="343.04" y="307.00" xlink:href="#hd"/>
<use x="396.04" y="301.00" xlink:href="#hd"/>
<path d="M392.54 301.00v25.00" class="stroke"/>
<path class="fill"
	d="M392.54 326.00c0.6 -5.6 9.6 -9 5.6 -18.4
	1.6 6 -1.3 11.6 -5.6 12.8
"/>
<use x="396.04" y="307.00" xlink:href="#hd"/>
<use x="425.84" y="295.00" xlink:href="#hd"/>
<path d="M422.34 295.00v21.00" class="stroke"/>
<use x="488.24" y="316.00" xlink:href="#hd"/>
<path d="M491.74 316.00v-21.00" class="stroke"/>
<path class="fill"
	d="M491.74 295.00c0.6 5.6 9.6 9 5.6 18.4
	1.6 -6 -1.3 -11.6 -5.6 -12.8
"/>
<use x="518.14" y="301.00" xlink:href="#hd"/>
<path d="M514.64 301.00v25.00" class="stroke"/>
<use x="518.14" y="307.00" xlink:href="#hd"/>
<use x="580.64" y="295.00" xlink:href="#hd"/>
<path d="M577.14 295.00v31.00" class="stroke"/>
<path class="fill"
	d="M577.14 326.00c0.6 -5.6 9.6 -9 5.6 -18.4
	1.6 6 -1.3 11.6 -5.6 12.8
"/>
<use x="580.64" y="307.00" xlink:href="#hd"/>
<use x="621.24" y="301.00" xlink:href="#hd"/>
<path d="M617.74 301.00v25.00" class="stroke"/>
<use x="621.24" y="307.00" xlink:href="#hd"/>
<use x="674.34" y="295.00" xlink:href="#hd"/>
<path d="M670.84 295.00v25.00" class="stroke"/>
<path class="fill"
	d="M670.84 320.00c0.6 -5.6 9.6 -9 5.6 -18.4
	1.6 6 -1.3 11.6 -5.6 12.8
"/>
<use x="674.34" y="301.00" xlink:href="#hd"/>
<use x="714.94" y="298.00" xlink:href="#hd"/>
<path d="M711.44 298.00v21.00" class="stroke"/>
<use x="767.94" y="295.00" xlink:href="#hd"/>
<path d="M764.44 295.00v21.00" class="stroke"/>
<path class="fill"
	d="M764.44 316.00c0.6 -5.6 9.6 -9 5.6 -18.4
	1.6 6 -1.3 11.6 -5.6 12.8
"/>
<path class="fill"
	d="M800.94 287.70l44.50 10.00v3.20l-44.50 -10.00"/>
<use x="797.74" y="307.00" xlink:href="#hd"/>
<path d="M801.24 307.00v-18.20" class="stroke"/>
<use x="819.64" y="316.00" xlink:href="#hd"/>
<path d="M823.14 316.00v-22.30" class="stroke"/>
<use x="841.54" y="322.00" xlink:href="#hl"/>
<use x="841.54" y="328.00" xlink:href="#hl"/>
<use x="841.54" y="328.00" xlink:href="#hd"/>
<path d="M845.04 328.00v-29.30" class="stroke"/>
</g>
</svg>
