<?xml version="1.0" standalone="no"?>
<!DOCTYPE svg PUBLIC "-//W3C//DTD SVG 1.1//EN"
	"http://www.w3.org/Graphics/SVG/1.1/DTD/svg11.dtd">
<svg xmlns="http://www.w3.org/2000/svg" version="1.1"
	xmlns:xlink="http://www.w3.org/1999/xlink"
	color="black"
	width="757.10px" height="305.93px">
<style type="text/css">
.fill {fill: currentColor}
.stroke {stroke: currentColor; fill: none}
text{white-space: pre}
</style>
<title>./K516f-6-9-2-12-6-2-8-9-6-10-8-4-11-11-7-3.abc (2034) tune 1</title>
<!-- Creator: abcm2ps-8.13.8 -->
<!-- CreationDate: Sep  7, 2017 11:20 -->
<!-- CommandLine: ./K516f-6-9-2-12-6-2-8-9-6-10-8-4-11-11-7-3.abc -O ./K516f-6-9-2-12-6-2-8-9-6-10-8-4-11-11-7-3.svg -g -->
<rect width="100%" height="100%" fill="white"/>
<g stroke-width="0.70" transform="scale(0.867)">
<!-- title: 6-9-2-12-6-2-8-9-6-10-8-4-11-11-7-3 -->
</g>
<g stroke-width="0.70" transform="scale(0.867)" font-family="Times" font-size="20.00">
<text x="436.84" y="22.00" text-anchor="middle">6-9-2-12-6-2-8-9-6-10-8-4-11-11-7-3</text>
</g>
<g stroke-width="0.70" transform="scale(0.867)" font-family="Times" font-size="20.00">
<!-- subtitle: $1K.516f::148:84:141:103:80:122:21:94:25:77:57:132:144:59:23:83::$0 -->
</g>
<g stroke-width="0.70" transform="scale(0.867)" font-family="Courier" font-size="8.00" font-weight="bold">
<text x="436.84" y="41.80" text-anchor="middle">K.516f::148:84:141:103:80:122:21:94:25:77:57:132:144:59:23:83::</text>
</g>
<g stroke-width="0.70" transform="scale(0.867)" font-family="Courier" font-size="8.00" font-weight="bold">
<!-- subtitle: $1Perm. No.: 203495047202045$0 -->
<text x="436.84" y="60.80" text-anchor="middle">Perm. No.: 203495047202045</text>
</g>
<g stroke-width="0.70" transform="scale(0.607)" font-family="Courier" font-size="8.00" font-weight="bold">
<defs>
<ellipse id="hd" rx="4.1" ry="2.9"
	transform="rotate(-20)" class="fill"/>
</defs>
<use x="103.06" y="121.29" xlink:href="#hd"/>
<path d="M106.56 121.29v-21.00" class="stroke"/>
<path class="fill"
	d="M106.56 100.29c0.6 5.6 9.6 9 5.6 18.4
	1.6 -6 -1.3 -11.6 -5.6 -12.8
"/>
</g>
<g stroke-width="0.70" transform="scale(0.867)" font-family="Times" font-size="15.00" font-weight="bold">
<text x="81.24" y="87.00">= 111</text>
<path class="stroke" stroke-width="1"
	d="M11.54 191.00v-82.00"/>
<path class="fill"
	d="M6.54 106.00
	c10.5 1 12 -4.5 12 -3.5c0 1 -3.5 5.5 -8.5 5.5
	v84.00
	c5 0 8.5 4.5 8.5 5.5c0 1 -1.5 -4.5 -12 -3.5"/>
<defs>
<g id="rdots" class="fill">
	<circle cx="0" cy="-9" r="1.2"/>
	<circle cx="0" cy="-15" r="1.2"/>
</g>
</defs>
<use x="70.54" y="133.00" xlink:href="#rdots"/>
<path class="stroke" stroke-width="1"
	d="M66.54 133.00v-24.00"/>
<path class="stroke" stroke-width="3"
	d="M62.04 133.00v-24.00"/>
<use x="70.54" y="191.00" xlink:href="#rdots"/>
<path class="stroke" stroke-width="1"
	d="M66.54 191.00v-58.00"/>
<path class="stroke" stroke-width="3"
	d="M62.04 191.00v-58.00"/>
<path class="stroke" stroke-width="1"
	d="M177.14 133.00v-24.00"/>
<path class="stroke" stroke-width="1"
	d="M177.14 191.00v-58.00"/>
<path class="stroke" stroke-width="1"
	d="M282.64 133.00v-24.00"/>
<path class="stroke" stroke-width="1"
	d="M282.64 191.00v-58.00"/>
<path class="stroke" stroke-width="1"
	d="M388.04 133.00v-24.00"/>
<path class="stroke" stroke-width="1"
	d="M388.04 191.00v-58.00"/>
<path class="stroke" stroke-width="1"
	d="M482.54 133.00v-24.00"/>
<path class="stroke" stroke-width="1"
	d="M482.54 191.00v-58.00"/>
<path class="stroke" stroke-width="1"
	d="M558.44 133.00v-24.00"/>
<path class="stroke" stroke-width="1"
	d="M558.44 191.00v-58.00"/>
<path class="stroke" stroke-width="1"
	d="M654.94 133.00v-24.00"/>
<path class="stroke" stroke-width="1"
	d="M654.94 191.00v-58.00"/>
<path class="stroke" stroke-width="1"
	d="M762.44 133.00v-24.00"/>
<path class="stroke" stroke-width="1"
	d="M762.44 191.00v-58.00"/>
<path class="stroke" stroke-width="3"
	d="M860.54 133.00v-24.00"/>
<path class="stroke" stroke-width="1"
	d="M856.04 133.00v-24.00"/>
<use x="852.04" y="133.00" xlink:href="#rdots"/>
<path class="stroke" stroke-width="3"
	d="M860.54 191.00v-58.00"/>
<path class="stroke" stroke-width="1"
	d="M856.04 191.00v-58.00"/>
<use x="852.04" y="191.00" xlink:href="#rdots"/>
<path d="m11.54 133.00
	h850.50
	M11.54 127.00
	h850.50
	M11.54 121.00
	h850.50
	M11.54 115.00
	h850.50
	M11.54 109.00
	h850.50
	" class="stroke"/>
<path d="m11.54 191.00
	h850.50
	M11.54 185.00
	h850.50
	M11.54 179.00
	h850.50
	M11.54 173.00
	h850.50
	M11.54 167.00
	h850.50
	" class="stroke"/>
</g>
<g stroke-width="0.70" transform="scale(0.867)" font-family="Times" font-size="13.00">
<text x="766.44" y="94.40">1</text>
<path class="stroke"
	d="M762.44 83.00m0 20v-20h91.60v20"/>
<defs>
<path id="utclef" class="fill" d="m-50 -90
	c-72 -41 -72 -158 52 -188
	150 -10 220 188 90 256
	-114 52 -275 0 -293 -136
	-15 -181 93 -229 220 -334
	88 -87 79 -133 62 -210
	-51 33 -94 105 -89 186
	17 267 36 374 49 574
	6 96 -19 134 -77 135
	-80 1 -126 -93 -61 -133
	85 -41 133 101 31 105
	23 17 92 37 90 -92
	-10 -223 -39 -342 -50 -617
	0 -90 0 -162 96 -232
	56 72 63 230 22 289
	-74 106 -257 168 -255 316
	9 153 148 185 252 133
	86 -65 29 -192 -80 -176
	-71 12 -105 67 -59 124"/>
<use id="tclef" transform="translate(0,6) scale(0.045)"
	xlink:href="#utclef"/>
</defs>
<use x="23.54" y="127.00" xlink:href="#tclef"/>
<g font-family="serif" font-size="16" font-weight="bold" font-style="normal"
	transform="translate(42.04,132.50) scale(1.2,1)">
	<text text-anchor="middle">8</text>
	<text y="-12" text-anchor="middle">3</text>
</g>
<path class="fill"
	d="M80.54 130.70l80.80 9.50v-3.20l-80.80 -9.50"/>
<path class="fill"
	d="M80.84 125.80l80.10 9.40v-3.20l-80.10 -9.40"/>
<defs>
<path id="hl" class="stroke" d="m-6 0h12"/>
</defs>
<use x="84.34" y="103.00" xlink:href="#hl"/>
<use x="84.34" y="97.00" xlink:href="#hl"/>
<use x="84.34" y="97.00" xlink:href="#hd"/>
<path d="M80.84 97.00v32.80" class="stroke"/>
<use x="100.44" y="103.00" xlink:href="#hl"/>
<use x="100.44" y="100.00" xlink:href="#hd"/>
<path d="M96.94 100.00v31.70" class="stroke"/>
<use x="116.44" y="103.00" xlink:href="#hl"/>
<use x="116.44" y="97.00" xlink:href="#hl"/>
<use x="116.44" y="97.00" xlink:href="#hd"/>
<path d="M112.94 97.00v36.50" class="stroke"/>
<use x="132.44" y="106.00" xlink:href="#hd"/>
<path d="M128.94 106.00v29.40" class="stroke"/>
<use x="148.44" y="112.00" xlink:href="#hd"/>
<path d="M144.94 112.00v25.30" class="stroke"/>
<use x="164.44" y="118.00" xlink:href="#hd"/>
<path d="M160.94 118.00v21.20" class="stroke"/>
<path class="fill"
	d="M186.14 150.50l80.70 -6.30v-3.20l-80.70 6.30"/>
<path class="fill"
	d="M186.44 145.50l80.00 -6.30v-3.20l-80.00 6.30"/>
<use x="189.94" y="118.00" xlink:href="#hd"/>
<path d="M186.44 118.00v31.50" class="stroke"/>
<use x="205.94" y="127.00" xlink:href="#hd"/>
<path d="M202.44 127.00v21.20" class="stroke"/>
<use x="221.94" y="112.00" xlink:href="#hd"/>
<path d="M218.44 112.00v34.90" class="stroke"/>
<use x="237.94" y="118.00" xlink:href="#hd"/>
<path d="M234.44 118.00v27.70" class="stroke"/>
<use x="253.94" y="106.00" xlink:href="#hd"/>
<path d="M250.44 106.00v38.40" class="stroke"/>
<use x="269.94" y="112.00" xlink:href="#hd"/>
<path d="M266.44 112.00v31.20" class="stroke"/>
<path class="fill"
	d="M291.54 140.90l80.70 0.00v-3.20l-80.70 -0.00"/>
<path class="fill"
	d="M291.94 135.90l80.00 0.00v-3.20l-80.00 -0.00"/>
<use x="295.44" y="115.00" xlink:href="#hd"/>
<path d="M291.94 115.00v24.90" class="stroke"/>
<use x="311.44" y="112.00" xlink:href="#hd"/>
<path d="M307.94 112.00v27.90" class="stroke"/>
<use x="327.44" y="109.00" xlink:href="#hd"/>
<path d="M323.94 109.00v30.90" class="stroke"/>
<use x="343.34" y="115.00" xlink:href="#hd"/>
<path d="M339.84 115.00v24.90" class="stroke"/>
<use x="359.34" y="118.00" xlink:href="#hd"/>
<path d="M355.84 118.00v21.90" class="stroke"/>
<use x="375.34" y="121.00" xlink:href="#hd"/>
<path d="M371.84 121.00v18.90" class="stroke"/>
<path class="fill"
	d="M404.04 87.70l64.70 8.20v3.20l-64.70 -8.20"/>
<path class="fill"
	d="M404.34 92.80l48.00 6.10v3.20l-48.00 -6.10"/>
<use x="400.84" y="118.00" xlink:href="#hd"/>
<path d="M404.34 118.00v-29.20" class="stroke"/>
<use x="416.84" y="112.00" xlink:href="#hd"/>
<path d="M420.34 112.00v-21.20" class="stroke"/>
<use x="432.84" y="118.00" xlink:href="#hd"/>
<path d="M436.34 118.00v-25.20" class="stroke"/>
<use x="448.84" y="127.00" xlink:href="#hd"/>
<path d="M452.34 127.00v-32.20" class="stroke"/>
<use x="464.84" y="133.00" xlink:href="#hd"/>
<path d="M468.34 133.00v-36.10" class="stroke"/>
<path class="fill"
	d="M491.54 144.80l46.00 -3.20v-3.20l-46.00 3.20"/>
<use x="495.34" y="115.00" xlink:href="#hd"/>
<path d="M491.84 115.00v28.80" class="stroke"/>
<use x="517.84" y="124.00" xlink:href="#hd"/>
<path d="M514.34 124.00v18.20" class="stroke"/>
<use x="540.74" y="109.00" xlink:href="#hd"/>
<defs>
<path id="usharp" class="fill" d="
	m136 -702
	v890
	h32
	v-890
	m128 840
	h32
	v-888
	h-32
	m-232 286
	v116
	l338 -96
	v-116
	m-338 442
	v116
	l338 -98
	v-114"/>
<use id="sh0" transform="translate(-4,5) scale(0.018)"
	xlink:href="#usharp"/>
</defs>
<use x="531.74" y="109.00" xlink:href="#sh0"/>
<path d="M537.24 109.00v31.60" class="stroke"/>
<path class="fill"
	d="M567.34 134.90l66.70 0.00v-3.20l-66.70 -0.00"/>
<path class="fill"
	d="M567.74 129.90l50.00 0.00v-3.20l-50.00 -0.00"/>
<use x="571.24" y="106.00" xlink:href="#hd"/>
<path d="M567.74 106.00v28.00" class="stroke"/>
<use x="589.24" y="109.00" xlink:href="#hd"/>
<use x="580.24" y="109.00" xlink:href="#sh0"/>
<path d="M585.74 109.00v25.00" class="stroke"/>
<use x="605.24" y="106.00" xlink:href="#hd"/>
<path d="M601.74 106.00v28.00" class="stroke"/>
<use x="621.24" y="103.00" xlink:href="#hl"/>
<use x="621.24" y="100.00" xlink:href="#hd"/>
<path d="M617.74 100.00v34.00" class="stroke"/>
<use x="637.24" y="115.00" xlink:href="#hd"/>
<path d="M633.74 115.00v19.00" class="stroke"/>
<path class="fill"
	d="M663.94 146.20l82.70 0.00v-3.20l-82.70 -0.00"/>
<path class="fill"
	d="M664.24 141.20l82.00 0.00v-3.20l-82.00 -0.00"/>
<use x="667.74" y="118.00" xlink:href="#hd"/>
<path d="M664.24 118.00v27.20" class="stroke"/>
<use x="683.74" y="112.00" xlink:href="#hd"/>
<path d="M680.24 112.00v33.20" class="stroke"/>
<use x="699.74" y="106.00" xlink:href="#hd"/>
<path d="M696.24 106.00v39.20" class="stroke"/>
<use x="715.74" y="115.00" xlink:href="#hd"/>
<path d="M712.24 115.00v30.20" class="stroke"/>
<use x="731.74" y="124.00" xlink:href="#hd"/>
<path d="M728.24 124.00v21.20" class="stroke"/>
<use x="749.74" y="109.00" xlink:href="#hd"/>
<use x="740.74" y="109.00" xlink:href="#sh0"/>
<path d="M746.24 109.00v36.20" class="stroke"/>
<use x="775.24" y="106.00" xlink:href="#hd"/>
<path d="M771.74 106.00v40.00" class="stroke"/>
<use x="775.24" y="127.00" xlink:href="#hd"/>
<use x="775.24" y="121.00" xlink:href="#hd"/>
<use x="775.24" y="115.00" xlink:href="#hd"/>
<defs>
<path id="r8e" class="fill" d="m 0 0
	c-1.5 1.5 -2.4 2 -3.6 2
	2.4 -2.8 -2.8 -4 -2.8 -1.2
	c0 2.7 4.3 2.4 5.9 0.6"/>
<g id="r8">
	<path d="m3.3 -4l-3.4 9.6" class="stroke"/>
	<use x="3.4" y="-4" xlink:href="#r8e"/>
</g>
</defs>
<use x="831.64" y="121.00" xlink:href="#r8"/>
<defs>
<path id="ubclef" class="fill" d="m-200 -87
	c124 -35 222 -78 254 -236
	43 -228 -167 -246 -192 -103
	59 -80 157 22 92 78
	-62 47 -115 -22 -106 -88
	21 -141 270 -136 274 52
	-1 175 -106 264 -322 297
	m357 -250
	c0 -36 51 -34 51 0
	0 37 -51 36 -51 0
	m-2 -129
	c0 -36 51 -34 51 0
	0 38 -51 37 -51 0"/>
<use id="bclef" transform="translate(0,18) scale(0.045)"
	xlink:href="#ubclef"/>
</defs>
<use x="23.54" y="173.00" xlink:href="#bclef"/>
<g font-family="serif" font-size="16" font-weight="bold" font-style="normal"
	transform="translate(42.04,190.50) scale(1.2,1)">
	<text text-anchor="middle">8</text>
	<text y="-12" text-anchor="middle">3</text>
</g>
<use x="84.34" y="176.00" xlink:href="#hd"/>
<path d="M80.84 176.00v25.00" class="stroke"/>
<use x="84.34" y="182.00" xlink:href="#hd"/>
<use x="148.44" y="179.00" xlink:href="#r8"/>
<use x="189.94" y="176.00" xlink:href="#hd"/>
<path d="M186.44 176.00v25.00" class="stroke"/>
<use x="189.94" y="182.00" xlink:href="#hd"/>
<use x="253.94" y="179.00" xlink:href="#r8"/>
<use x="295.44" y="170.00" xlink:href="#hd"/>
<path d="M291.94 170.00v34.00" class="stroke"/>
<use x="295.44" y="185.00" xlink:href="#hd"/>
<use x="359.34" y="191.00" xlink:href="#hd"/>
<path d="M362.84 191.00v-21.00" class="stroke"/>
<path class="fill"
	d="M362.84 170.00c0.6 5.6 9.6 9 5.6 18.4
	1.6 -6 -1.3 -11.6 -5.6 -12.8
"/>
<use x="400.84" y="176.00" xlink:href="#hd"/>
<path d="M397.34 176.00v25.00" class="stroke"/>
<use x="400.84" y="182.00" xlink:href="#hd"/>
<use x="464.84" y="179.00" xlink:href="#r8"/>
<use x="495.34" y="182.00" xlink:href="#hd"/>
<path d="M498.84 182.00v-21.00" class="stroke"/>
<use x="540.74" y="179.00" xlink:href="#r8"/>
<path class="fill"
	d="M574.34 157.40l66.70 -4.60v3.20l-66.70 4.60"/>
<use x="571.24" y="185.00" xlink:href="#hd"/>
<path d="M574.74 185.00v-26.60" class="stroke"/>
<use x="571.24" y="179.00" xlink:href="#hd"/>
<use x="605.24" y="185.00" xlink:href="#hd"/>
<path d="M608.74 185.00v-29.00" class="stroke"/>
<use x="605.24" y="179.00" xlink:href="#hd"/>
<use x="637.24" y="185.00" xlink:href="#hd"/>
<path d="M640.74 185.00v-31.20" class="stroke"/>
<use x="637.24" y="170.00" xlink:href="#hd"/>
<path class="fill"
	d="M670.94 155.70l64.70 8.20v3.20l-64.70 -8.20"/>
<use x="667.74" y="182.00" xlink:href="#hd"/>
<path d="M671.24 182.00v-25.20" class="stroke"/>
<use x="699.74" y="179.00" xlink:href="#hd"/>
<path d="M703.24 179.00v-18.20" class="stroke"/>
<use x="731.74" y="197.00" xlink:href="#hl"/>
<use x="731.74" y="200.00" xlink:href="#hd"/>
<path d="M735.24 200.00v-35.20" class="stroke"/>
<path class="fill"
	d="M771.34 210.20l73.20 0.00v-3.20l-73.20 -0.00"/>
<path class="fill"
	d="M794.14 205.20l50.00 0.00v-3.20l-50.00 -0.00"/>
<use x="775.24" y="191.00" xlink:href="#hd"/>
<path d="M771.74 191.00v18.20" class="stroke"/>
<use x="797.64" y="170.00" xlink:href="#hd"/>
<path d="M794.14 170.00v39.20" class="stroke"/>
<use x="815.64" y="173.00" xlink:href="#hd"/>
<defs>
<path id="unat" class="fill" d="
	m96 -750
	h-32
	v716
	l32 -8
	182 -54
	v282
	h32
	v-706
	l-34 10
	-180 50
	v-290
	m0 592
	v-190
	l182 -52
	v188"/>
<use id="nt0" transform="translate(-3,5) scale(0.018)"
	xlink:href="#unat"/>
</defs>
<use x="806.64" y="173.00" xlink:href="#nt0"/>
<path d="M812.14 173.00v36.20" class="stroke"/>
<use x="831.64" y="176.00" xlink:href="#hd"/>
<path d="M828.14 176.00v33.20" class="stroke"/>
<use x="847.64" y="179.00" xlink:href="#hd"/>
<path d="M844.14 179.00v30.20" class="stroke"/>
<defs>
<path id="turn" class="fill" d="
	m5.2 -8
	c1.4 0.5 0.9 4.8 -2.2 2.8
	l-4.8 -3.5
	c-3 -2 -5.8 1.8 -3.6 4.4
	1 1.1 2 0.8 2.1 -0.1
	0.1 -0.9 -0.7 -1.2 -1.9 -0.6
	-1.4 -0.5 -0.9 -4.8 2.2 -2.8
	l4.8 3.5
	c3 2 5.8 -1.8 3.6 -4.4
	-1 -1.1 -2 -0.8 -2.1 0.1
	-0.1 0.9 0.7 1.2 1.9 0.6"/>
</defs>
<use x="517.84" y="107.00" xlink:href="#turn"/>
</g>
<g stroke-width="0.70" transform="scale(0.867)" font-family="Times" font-size="13.00">
<path class="stroke" stroke-width="1"
	d="M11.54 330.00v-88.00"/>
<path class="fill"
	d="M6.54 239.00
	c10.5 1 12 -4.5 12 -3.5c0 1 -3.5 5.5 -8.5 5.5
	v90.00
	c5 0 8.5 4.5 8.5 5.5c0 1 -1.5 -4.5 -12 -3.5"/>
<use x="142.14" y="266.00" xlink:href="#rdots"/>
<path class="stroke" stroke-width="1"
	d="M138.14 266.00v-24.00"/>
<path class="stroke" stroke-width="3"
	d="M133.64 266.00v-24.00"/>
<use x="142.14" y="330.00" xlink:href="#rdots"/>
<path class="stroke" stroke-width="1"
	d="M138.14 330.00v-64.00"/>
<path class="stroke" stroke-width="3"
	d="M133.64 330.00v-64.00"/>
<path class="stroke" stroke-width="1"
	d="M247.34 266.00v-24.00"/>
<path class="stroke" stroke-width="1"
	d="M247.34 330.00v-64.00"/>
<path class="stroke" stroke-width="1"
	d="M324.54 266.00v-24.00"/>
<path class="stroke" stroke-width="1"
	d="M324.54 330.00v-64.00"/>
<path class="stroke" stroke-width="1"
	d="M421.44 266.00v-24.00"/>
<path class="stroke" stroke-width="1"
	d="M421.44 330.00v-64.00"/>
<path class="stroke" stroke-width="1"
	d="M498.64 266.00v-24.00"/>
<path class="stroke" stroke-width="1"
	d="M498.64 330.00v-64.00"/>
<path class="stroke" stroke-width="1"
	d="M595.54 266.00v-24.00"/>
<path class="stroke" stroke-width="1"
	d="M595.54 330.00v-64.00"/>
<path class="stroke" stroke-width="1"
	d="M692.34 266.00v-24.00"/>
<path class="stroke" stroke-width="1"
	d="M692.34 330.00v-64.00"/>
<path class="stroke" stroke-width="1"
	d="M789.24 266.00v-24.00"/>
<path class="stroke" stroke-width="1"
	d="M789.24 330.00v-64.00"/>
<path class="stroke" stroke-width="3"
	d="M860.54 266.00v-24.00"/>
<path class="stroke" stroke-width="1"
	d="M856.04 266.00v-24.00"/>
<use x="852.04" y="266.00" xlink:href="#rdots"/>
<path class="stroke" stroke-width="3"
	d="M860.54 330.00v-64.00"/>
<path class="stroke" stroke-width="1"
	d="M856.04 330.00v-64.00"/>
<use x="852.04" y="330.00" xlink:href="#rdots"/>
<path d="m11.54 266.00
	h850.50
	M11.54 260.00
	h850.50
	M11.54 254.00
	h850.50
	M11.54 248.00
	h850.50
	M11.54 242.00
	h850.50
	" class="stroke"/>
<path d="m11.54 330.00
	h850.50
	M11.54 324.00
	h850.50
	M11.54 318.00
	h850.50
	M11.54 312.00
	h850.50
	M11.54 306.00
	h850.50
	" class="stroke"/>
<text x="47.54" y="227.40">2</text>
<path class="stroke"
	d="M43.54 216.00m0 20v-20h87.60v20"/>
<use x="23.54" y="260.00" xlink:href="#tclef"/>
<use x="56.04" y="239.00" xlink:href="#hd"/>
<path d="M52.54 239.00v40.00" class="stroke"/>
<use x="56.04" y="260.00" xlink:href="#hd"/>
<use x="56.04" y="254.00" xlink:href="#hd"/>
<use x="56.04" y="248.00" xlink:href="#hd"/>
<use x="108.34" y="254.00" xlink:href="#r8"/>
<path class="fill"
	d="M151.84 289.30l79.80 -13.20v-3.20l-79.80 13.20"/>
<path class="fill"
	d="M152.14 284.20l79.10 -13.10v-3.20l-79.10 13.10"/>
<use x="155.64" y="269.00" xlink:href="#hd"/>
<path d="M152.14 269.00v19.20" class="stroke"/>
<use x="173.64" y="263.00" xlink:href="#hd"/>
<use x="164.64" y="263.00" xlink:href="#sh0"/>
<path d="M170.14 263.00v22.20" class="stroke"/>
<use x="188.04" y="257.00" xlink:href="#hd"/>
<path d="M184.54 257.00v25.90" class="stroke"/>
<use x="202.44" y="248.00" xlink:href="#hd"/>
<path d="M198.94 248.00v32.50" class="stroke"/>
<use x="220.44" y="242.00" xlink:href="#hd"/>
<use x="211.44" y="242.00" xlink:href="#sh0"/>
<path d="M216.94 242.00v35.50" class="stroke"/>
<use x="234.84" y="236.00" xlink:href="#hl"/>
<use x="234.84" y="236.00" xlink:href="#hd"/>
<path d="M231.34 236.00v39.10" class="stroke"/>
<path class="fill"
	d="M255.94 262.30l49.30 5.00v-3.20l-49.30 -5.00"/>
<path class="fill"
	d="M256.34 257.30l14.40 1.40v-3.20l-14.40 -1.40"/>
<use x="259.84" y="239.00" xlink:href="#hd"/>
<path d="M256.34 239.00v22.30" class="stroke"/>
<use x="274.14" y="236.00" xlink:href="#hl"/>
<use x="274.14" y="233.00" xlink:href="#hd"/>
<path d="M270.64 233.00v29.80" class="stroke"/>
<use x="288.54" y="239.00" xlink:href="#hd"/>
<path d="M285.04 239.00v25.20" class="stroke"/>
<use x="308.44" y="248.00" xlink:href="#hd"/>
<path d="M304.94 248.00v18.20" class="stroke"/>
<path class="fill"
	d="M333.24 272.30l58.20 6.90v-3.20l-58.20 -6.90"/>
<use x="337.04" y="245.00" xlink:href="#hd"/>
<path d="M333.54 245.00v26.30" class="stroke"/>
<use x="365.84" y="251.00" xlink:href="#hd"/>
<path d="M362.34 251.00v23.80" class="stroke"/>
<use x="394.54" y="260.00" xlink:href="#hd"/>
<path d="M391.04 260.00v18.20" class="stroke"/>
<path class="fill"
	d="M437.04 227.30l49.30 6.10v3.20l-49.30 -6.10"/>
<path class="fill"
	d="M457.34 234.80l14.40 1.80v3.20l-14.40 -1.80"/>
<use x="433.94" y="251.00" xlink:href="#hd"/>
<path d="M437.44 251.00v-22.70" class="stroke"/>
<use x="433.94" y="245.00" xlink:href="#hd"/>
<use x="453.84" y="260.00" xlink:href="#hd"/>
<path d="M457.34 260.00v-29.20" class="stroke"/>
<use x="453.84" y="248.00" xlink:href="#hd"/>
<use x="468.14" y="260.00" xlink:href="#hd"/>
<path d="M471.64 260.00v-27.40" class="stroke"/>
<use x="468.14" y="254.00" xlink:href="#hd"/>
<use x="482.54" y="260.00" xlink:href="#hd"/>
<path d="M486.04 260.00v-25.60" class="stroke"/>
<path class="fill"
	d="M507.34 268.60l58.20 3.20v-3.20l-58.20 -3.20"/>
<use x="511.14" y="239.00" xlink:href="#hd"/>
<path d="M507.64 239.00v28.60" class="stroke"/>
<use x="539.94" y="251.00" xlink:href="#hd"/>
<path d="M536.44 251.00v18.20" class="stroke"/>
<use x="568.64" y="245.00" xlink:href="#hd"/>
<path d="M565.14 245.00v25.80" class="stroke"/>
<path class="fill"
	d="M604.14 268.60l58.20 3.20v-3.20l-58.20 -3.20"/>
<use x="608.04" y="239.00" xlink:href="#hd"/>
<path d="M604.54 239.00v28.60" class="stroke"/>
<use x="636.74" y="251.00" xlink:href="#hd"/>
<path d="M633.24 251.00v18.20" class="stroke"/>
<use x="665.54" y="245.00" xlink:href="#hd"/>
<path d="M662.04 245.00v25.80" class="stroke"/>
<path class="fill"
	d="M701.04 268.00l72.50 0.00v-3.20l-72.50 -0.00"/>
<path class="fill"
	d="M701.34 263.00l71.90 0.00v-3.20l-71.90 -0.00"/>
<use x="704.84" y="242.00" xlink:href="#hd"/>
<path d="M701.34 242.00v25.00" class="stroke"/>
<use x="719.24" y="245.00" xlink:href="#hd"/>
<path d="M715.74 245.00v22.00" class="stroke"/>
<use x="733.64" y="248.00" xlink:href="#hd"/>
<path d="M730.14 248.00v19.00" class="stroke"/>
<use x="748.04" y="245.00" xlink:href="#hd"/>
<path d="M744.54 245.00v22.00" class="stroke"/>
<use x="762.34" y="242.00" xlink:href="#hd"/>
<path d="M758.84 242.00v25.00" class="stroke"/>
<use x="776.74" y="239.00" xlink:href="#hd"/>
<path d="M773.24 239.00v28.00" class="stroke"/>
<use x="801.74" y="251.00" xlink:href="#hd"/>
<path d="M798.24 251.00v21.00" class="stroke"/>
<use x="841.54" y="254.00" xlink:href="#r8"/>
<use x="23.54" y="312.00" xlink:href="#bclef"/>
<path class="fill"
	d="M52.24 349.20l67.30 -4.90v-3.20l-67.30 4.90"/>
<path class="fill"
	d="M72.44 342.70l46.70 -3.40v-3.20l-46.70 3.40"/>
<use x="56.04" y="330.00" xlink:href="#hd"/>
<path d="M52.54 330.00v18.20" class="stroke"/>
<use x="75.94" y="303.00" xlink:href="#hd"/>
<path d="M72.44 303.00v43.70" class="stroke"/>
<use x="90.34" y="309.00" xlink:href="#hd"/>
<path d="M86.84 309.00v36.70" class="stroke"/>
<use x="108.34" y="312.00" xlink:href="#hd"/>
<use x="99.34" y="312.00" xlink:href="#sh0"/>
<path d="M104.84 312.00v32.40" class="stroke"/>
<use x="122.64" y="315.00" xlink:href="#hd"/>
<path d="M119.14 315.00v28.30" class="stroke"/>
<use x="155.64" y="318.00" xlink:href="#hd"/>
<path d="M159.14 318.00v-21.00" class="stroke"/>
<use x="220.44" y="321.00" xlink:href="#hd"/>
<path d="M223.94 321.00v-21.00" class="stroke"/>
<path class="fill"
	d="M223.94 300.00c0.6 5.6 9.6 9 5.6 18.4
	1.6 -6 -1.3 -11.6 -5.6 -12.8
"/>
<use x="259.84" y="324.00" xlink:href="#hd"/>
<path d="M263.34 324.00v-25.00" class="stroke"/>
<use x="259.84" y="318.00" xlink:href="#hd"/>
<use x="308.44" y="309.00" xlink:href="#hd"/>
<path d="M304.94 309.00v34.00" class="stroke"/>
<path class="fill"
	d="M304.94 343.00c0.6 -5.6 9.6 -9 5.6 -18.4
	1.6 6 -1.3 11.6 -5.6 12.8
"/>
<use x="308.44" y="324.00" xlink:href="#hd"/>
<path class="fill"
	d="M333.24 337.90l72.50 0.00v-3.20l-72.50 -0.00"/>
<path class="fill"
	d="M333.54 332.90l71.90 0.00v-3.20l-71.90 -0.00"/>
<use x="337.04" y="315.00" xlink:href="#hd"/>
<path d="M333.54 315.00v21.90" class="stroke"/>
<use x="337.04" y="321.00" xlink:href="#hd"/>
<use x="351.44" y="309.00" xlink:href="#hd"/>
<path d="M347.94 309.00v27.90" class="stroke"/>
<use x="365.84" y="315.00" xlink:href="#hd"/>
<path d="M362.34 315.00v21.90" class="stroke"/>
<use x="365.84" y="321.00" xlink:href="#hd"/>
<use x="380.14" y="309.00" xlink:href="#hd"/>
<path d="M376.64 309.00v27.90" class="stroke"/>
<use x="394.54" y="315.00" xlink:href="#hd"/>
<path d="M391.04 315.00v21.90" class="stroke"/>
<use x="394.54" y="321.00" xlink:href="#hd"/>
<use x="408.94" y="309.00" xlink:href="#hd"/>
<path d="M405.44 309.00v27.90" class="stroke"/>
<path class="fill"
	d="M437.04 289.70l20.60 7.00v3.20l-20.60 -7.00"/>
<use x="433.94" y="309.00" xlink:href="#hd"/>
<path d="M437.44 309.00v-18.20" class="stroke"/>
<use x="453.84" y="330.00" xlink:href="#hd"/>
<path d="M457.34 330.00v-32.40" class="stroke"/>
<use x="482.54" y="318.00" xlink:href="#r8"/>
<path class="fill"
	d="M507.34 337.90l72.50 0.00v-3.20l-72.50 -0.00"/>
<path class="fill"
	d="M507.64 332.90l71.90 0.00v-3.20l-71.90 -0.00"/>
<use x="511.14" y="315.00" xlink:href="#hd"/>
<path d="M507.64 315.00v21.90" class="stroke"/>
<use x="511.14" y="321.00" xlink:href="#hd"/>
<use x="525.54" y="309.00" xlink:href="#hd"/>
<path d="M522.04 309.00v27.90" class="stroke"/>
<use x="539.94" y="315.00" xlink:href="#hd"/>
<path d="M536.44 315.00v21.90" class="stroke"/>
<use x="539.94" y="321.00" xlink:href="#hd"/>
<use x="554.24" y="309.00" xlink:href="#hd"/>
<path d="M550.74 309.00v27.90" class="stroke"/>
<use x="568.64" y="315.00" xlink:href="#hd"/>
<path d="M565.14 315.00v21.90" class="stroke"/>
<use x="568.64" y="321.00" xlink:href="#hd"/>
<use x="583.04" y="309.00" xlink:href="#hd"/>
<path d="M579.54 309.00v27.90" class="stroke"/>
<path class="fill"
	d="M604.14 337.90l72.50 0.00v-3.20l-72.50 -0.00"/>
<path class="fill"
	d="M604.54 332.90l71.90 0.00v-3.20l-71.90 -0.00"/>
<use x="608.04" y="315.00" xlink:href="#hd"/>
<path d="M604.54 315.00v21.90" class="stroke"/>
<use x="608.04" y="321.00" xlink:href="#hd"/>
<use x="622.44" y="309.00" xlink:href="#hd"/>
<path d="M618.94 309.00v27.90" class="stroke"/>
<use x="636.74" y="315.00" xlink:href="#hd"/>
<path d="M633.24 315.00v21.90" class="stroke"/>
<use x="636.74" y="321.00" xlink:href="#hd"/>
<use x="651.14" y="309.00" xlink:href="#hd"/>
<path d="M647.64 309.00v27.90" class="stroke"/>
<use x="665.54" y="315.00" xlink:href="#hd"/>
<path d="M662.04 315.00v21.90" class="stroke"/>
<use x="665.54" y="321.00" xlink:href="#hd"/>
<use x="679.84" y="309.00" xlink:href="#hd"/>
<path d="M676.34 309.00v27.90" class="stroke"/>
<path class="fill"
	d="M701.04 331.90l72.50 0.00v-3.20l-72.50 -0.00"/>
<path class="fill"
	d="M701.34 326.90l71.90 0.00v-3.20l-71.90 -0.00"/>
<use x="704.84" y="306.00" xlink:href="#hd"/>
<path d="M701.34 306.00v25.00" class="stroke"/>
<use x="719.24" y="309.00" xlink:href="#hd"/>
<path d="M715.74 309.00v22.00" class="stroke"/>
<use x="733.64" y="312.00" xlink:href="#hd"/>
<path d="M730.14 312.00v19.00" class="stroke"/>
<use x="748.04" y="309.00" xlink:href="#hd"/>
<path d="M744.54 309.00v22.00" class="stroke"/>
<use x="762.34" y="306.00" xlink:href="#hd"/>
<path d="M758.84 306.00v25.00" class="stroke"/>
<use x="776.74" y="303.00" xlink:href="#hd"/>
<path d="M773.24 303.00v28.00" class="stroke"/>
<path class="fill"
	d="M804.94 301.70l40.50 9.60v3.20l-40.50 -9.60"/>
<use x="801.74" y="321.00" xlink:href="#hd"/>
<path d="M805.24 321.00v-18.20" class="stroke"/>
<use x="821.64" y="330.00" xlink:href="#hd"/>
<path d="M825.14 330.00v-22.50" class="stroke"/>
<use x="841.54" y="336.00" xlink:href="#hl"/>
<use x="841.54" y="342.00" xlink:href="#hl"/>
<use x="841.54" y="342.00" xlink:href="#hd"/>
<path d="M845.04 342.00v-29.70" class="stroke"/>
</g>
</svg>
