<?xml version="1.0" standalone="no"?>
<!DOCTYPE svg PUBLIC "-//W3C//DTD SVG 1.1//EN"
	"http://www.w3.org/Graphics/SVG/1.1/DTD/svg11.dtd">
<svg xmlns="http://www.w3.org/2000/svg" version="1.1"
	xmlns:xlink="http://www.w3.org/1999/xlink"
	color="black"
	width="757.10px" height="293.80px">
<style type="text/css">
.fill {fill: currentColor}
.stroke {stroke: currentColor; fill: none}
text{white-space: pre}
</style>
<title>./K516f-10-4-3-11-10-10-10-10-9-8-11-7-5-6-4-4.abc (8260) tune 1</title>
<!-- Creator: abcm2ps-8.13.8 -->
<!-- CreationDate: Sep  7, 2017 11:20 -->
<!-- CommandLine: ./K516f-10-4-3-11-10-10-10-10-9-8-11-7-5-6-4-4.abc -O ./K516f-10-4-3-11-10-10-10-10-9-8-11-7-5-6-4-4.svg -g -->
<rect width="100%" height="100%" fill="white"/>
<g stroke-width="0.70" transform="scale(0.867)">
<!-- title: 10-4-3-11-10-10-10-10-9-8-11-7-5-6-4-4 -->
</g>
<g stroke-width="0.70" transform="scale(0.867)" font-family="Times" font-size="20.00">
<text x="436.84" y="22.00" text-anchor="middle">10-4-3-11-10-10-10-10-9-8-11-7-5-6-4-4</text>
</g>
<g stroke-width="0.70" transform="scale(0.867)" font-family="Times" font-size="20.00">
<!-- subtitle: $1K.516f::98:95:128:61:75:129:62:123:120:155:31:29:67:136:145:79::$0 -->
</g>
<g stroke-width="0.70" transform="scale(0.867)" font-family="Courier" font-size="8.00" font-weight="bold">
<text x="436.84" y="41.80" text-anchor="middle">K.516f::98:95:128:61:75:129:62:123:120:155:31:29:67:136:145:79::</text>
</g>
<g stroke-width="0.70" transform="scale(0.867)" font-family="Courier" font-size="8.00" font-weight="bold">
<!-- subtitle: $1Perm. No.: 82607419612441$0 -->
<text x="436.84" y="60.80" text-anchor="middle">Perm. No.: 82607419612441</text>
</g>
<g stroke-width="0.70" transform="scale(0.607)" font-family="Courier" font-size="8.00" font-weight="bold">
<defs>
<ellipse id="hd" rx="4.1" ry="2.9"
	transform="rotate(-20)" class="fill"/>
</defs>
<use x="103.06" y="121.29" xlink:href="#hd"/>
<path d="M106.56 121.29v-21.00" class="stroke"/>
<path class="fill"
	d="M106.56 100.29c0.6 5.6 9.6 9 5.6 18.4
	1.6 -6 -1.3 -11.6 -5.6 -12.8
"/>
</g>
<g stroke-width="0.70" transform="scale(0.867)" font-family="Times" font-size="15.00" font-weight="bold">
<text x="81.24" y="87.00">= 111</text>
<path class="stroke" stroke-width="1"
	d="M11.54 183.00v-82.00"/>
<path class="fill"
	d="M6.54 98.00
	c10.5 1 12 -4.5 12 -3.5c0 1 -3.5 5.5 -8.5 5.5
	v84.00
	c5 0 8.5 4.5 8.5 5.5c0 1 -1.5 -4.5 -12 -3.5"/>
<defs>
<g id="rdots" class="fill">
	<circle cx="0" cy="-9" r="1.2"/>
	<circle cx="0" cy="-15" r="1.2"/>
</g>
</defs>
<use x="70.54" y="125.00" xlink:href="#rdots"/>
<path class="stroke" stroke-width="1"
	d="M66.54 125.00v-24.00"/>
<path class="stroke" stroke-width="3"
	d="M62.04 125.00v-24.00"/>
<use x="70.54" y="183.00" xlink:href="#rdots"/>
<path class="stroke" stroke-width="1"
	d="M66.54 183.00v-58.00"/>
<path class="stroke" stroke-width="3"
	d="M62.04 183.00v-58.00"/>
<path class="stroke" stroke-width="1"
	d="M187.14 125.00v-24.00"/>
<path class="stroke" stroke-width="1"
	d="M187.14 183.00v-58.00"/>
<path class="stroke" stroke-width="1"
	d="M270.24 125.00v-24.00"/>
<path class="stroke" stroke-width="1"
	d="M270.24 183.00v-58.00"/>
<path class="stroke" stroke-width="1"
	d="M353.24 125.00v-24.00"/>
<path class="stroke" stroke-width="1"
	d="M353.24 183.00v-58.00"/>
<path class="stroke" stroke-width="1"
	d="M446.64 125.00v-24.00"/>
<path class="stroke" stroke-width="1"
	d="M446.64 183.00v-58.00"/>
<path class="stroke" stroke-width="1"
	d="M534.24 125.00v-24.00"/>
<path class="stroke" stroke-width="1"
	d="M534.24 183.00v-58.00"/>
<path class="stroke" stroke-width="1"
	d="M638.34 125.00v-24.00"/>
<path class="stroke" stroke-width="1"
	d="M638.34 183.00v-58.00"/>
<path class="stroke" stroke-width="1"
	d="M754.44 125.00v-24.00"/>
<path class="stroke" stroke-width="1"
	d="M754.44 183.00v-58.00"/>
<path class="stroke" stroke-width="3"
	d="M860.54 125.00v-24.00"/>
<path class="stroke" stroke-width="1"
	d="M856.04 125.00v-24.00"/>
<use x="852.04" y="125.00" xlink:href="#rdots"/>
<path class="stroke" stroke-width="3"
	d="M860.54 183.00v-58.00"/>
<path class="stroke" stroke-width="1"
	d="M856.04 183.00v-58.00"/>
<use x="852.04" y="183.00" xlink:href="#rdots"/>
<path d="m11.54 125.00
	h850.50
	M11.54 119.00
	h850.50
	M11.54 113.00
	h850.50
	M11.54 107.00
	h850.50
	M11.54 101.00
	h850.50
	" class="stroke"/>
<path d="m11.54 183.00
	h850.50
	M11.54 177.00
	h850.50
	M11.54 171.00
	h850.50
	M11.54 165.00
	h850.50
	M11.54 159.00
	h850.50
	" class="stroke"/>
</g>
<g stroke-width="0.70" transform="scale(0.867)" font-family="Times" font-size="13.00">
<text x="758.44" y="86.40">1</text>
<path class="stroke"
	d="M754.44 75.00m0 20v-20h99.60v20"/>
<defs>
<path id="utclef" class="fill" d="m-50 -90
	c-72 -41 -72 -158 52 -188
	150 -10 220 188 90 256
	-114 52 -275 0 -293 -136
	-15 -181 93 -229 220 -334
	88 -87 79 -133 62 -210
	-51 33 -94 105 -89 186
	17 267 36 374 49 574
	6 96 -19 134 -77 135
	-80 1 -126 -93 -61 -133
	85 -41 133 101 31 105
	23 17 92 37 90 -92
	-10 -223 -39 -342 -50 -617
	0 -90 0 -162 96 -232
	56 72 63 230 22 289
	-74 106 -257 168 -255 316
	9 153 148 185 252 133
	86 -65 29 -192 -80 -176
	-71 12 -105 67 -59 124"/>
<use id="tclef" transform="translate(0,6) scale(0.045)"
	xlink:href="#utclef"/>
</defs>
<use x="23.54" y="119.00" xlink:href="#tclef"/>
<g font-family="serif" font-size="16" font-weight="bold" font-style="normal"
	transform="translate(42.04,124.50) scale(1.2,1)">
	<text text-anchor="middle">8</text>
	<text y="-12" text-anchor="middle">3</text>
</g>
<path class="fill"
	d="M81.54 139.80l71.10 -3.30v-3.20l-71.10 3.30"/>
<use x="85.44" y="110.00" xlink:href="#hd"/>
<path d="M81.94 110.00v28.80" class="stroke"/>
<use x="120.64" y="119.00" xlink:href="#hd"/>
<path d="M117.14 119.00v18.20" class="stroke"/>
<use x="155.84" y="104.00" xlink:href="#hd"/>
<path d="M152.34 104.00v31.60" class="stroke"/>
<path class="fill"
	d="M197.24 121.00l50.40 8.20v-3.20l-50.40 -8.20"/>
<use x="201.04" y="98.00" xlink:href="#hd"/>
<path d="M197.54 98.00v22.10" class="stroke"/>
<use x="225.94" y="104.00" xlink:href="#hd"/>
<path d="M222.44 104.00v20.20" class="stroke"/>
<use x="250.84" y="110.00" xlink:href="#hd"/>
<path d="M247.34 110.00v18.20" class="stroke"/>
<path class="fill"
	d="M280.24 132.20l50.40 -6.70v-3.20l-50.40 6.70"/>
<use x="284.14" y="113.00" xlink:href="#hd"/>
<path d="M280.64 113.00v18.20" class="stroke"/>
<use x="308.94" y="107.00" xlink:href="#hd"/>
<path d="M305.44 107.00v20.90" class="stroke"/>
<use x="333.84" y="98.00" xlink:href="#hd"/>
<path d="M330.34 98.00v26.60" class="stroke"/>
<path class="fill"
	d="M363.34 135.40l60.80 -4.50v-3.20l-60.80 4.50"/>
<path class="fill"
	d="M388.54 128.50l17.60 -1.30v-3.20l-17.60 1.30"/>
<use x="367.14" y="110.00" xlink:href="#hd"/>
<path d="M363.64 110.00v24.40" class="stroke"/>
<use x="392.04" y="104.00" xlink:href="#hd"/>
<path d="M388.54 104.00v28.50" class="stroke"/>
<use x="409.64" y="110.00" xlink:href="#hd"/>
<path d="M406.14 110.00v21.20" class="stroke"/>
<use x="427.24" y="98.00" xlink:href="#hd"/>
<path d="M423.74 98.00v31.90" class="stroke"/>
<path class="fill"
	d="M461.24 125.20l50.40 0.00v-3.20l-50.40 -0.00"/>
<use x="465.14" y="101.00" xlink:href="#hd"/>
<defs>
<path id="usharp" class="fill" d="
	m136 -702
	v890
	h32
	v-890
	m128 840
	h32
	v-888
	h-32
	m-232 286
	v116
	l338 -96
	v-116
	m-338 442
	v116
	l338 -98
	v-114"/>
<use id="sh0" transform="translate(-4,5) scale(0.018)"
	xlink:href="#usharp"/>
</defs>
<use x="456.14" y="101.00" xlink:href="#sh0"/>
<path d="M461.64 101.00v23.20" class="stroke"/>
<use x="465.14" y="107.00" xlink:href="#hd"/>
<use x="490.04" y="101.00" xlink:href="#hd"/>
<path d="M486.54 101.00v23.20" class="stroke"/>
<use x="490.04" y="107.00" xlink:href="#hd"/>
<use x="514.84" y="101.00" xlink:href="#hd"/>
<path d="M511.34 101.00v23.20" class="stroke"/>
<use x="514.84" y="107.00" xlink:href="#hd"/>
<path class="fill"
	d="M544.34 121.20l71.50 5.00v-3.20l-71.50 -5.00"/>
<path class="fill"
	d="M544.64 116.30l53.20 3.70v-3.20l-53.20 -3.70"/>
<defs>
<path id="hl" class="stroke" d="m-6 0h12"/>
</defs>
<use x="548.14" y="95.00" xlink:href="#hl"/>
<use x="548.14" y="95.00" xlink:href="#hd"/>
<path d="M544.64 95.00v25.30" class="stroke"/>
<use x="565.74" y="98.00" xlink:href="#hd"/>
<path d="M562.24 98.00v23.50" class="stroke"/>
<use x="583.74" y="101.00" xlink:href="#hd"/>
<use x="574.74" y="101.00" xlink:href="#sh0"/>
<path d="M580.24 101.00v21.70" class="stroke"/>
<use x="601.34" y="98.00" xlink:href="#hd"/>
<path d="M597.84 98.00v26.00" class="stroke"/>
<use x="618.94" y="107.00" xlink:href="#hd"/>
<path d="M615.44 107.00v18.20" class="stroke"/>
<path class="fill"
	d="M655.44 81.80l89.10 8.10v3.20l-89.10 -8.10"/>
<path class="fill"
	d="M655.74 86.80l88.40 8.00v3.20l-88.40 -8.00"/>
<use x="652.24" y="104.00" xlink:href="#hd"/>
<path d="M655.74 104.00v-21.20" class="stroke"/>
<use x="669.84" y="110.00" xlink:href="#hd"/>
<path d="M673.34 110.00v-25.60" class="stroke"/>
<use x="687.44" y="113.00" xlink:href="#hd"/>
<path d="M690.94 113.00v-27.00" class="stroke"/>
<use x="705.04" y="119.00" xlink:href="#hd"/>
<path d="M708.54 119.00v-31.40" class="stroke"/>
<use x="722.64" y="116.00" xlink:href="#hd"/>
<path d="M726.14 116.00v-26.80" class="stroke"/>
<use x="740.64" y="122.00" xlink:href="#hd"/>
<use x="731.64" y="122.00" xlink:href="#sh0"/>
<path d="M744.14 122.00v-31.20" class="stroke"/>
<use x="768.24" y="98.00" xlink:href="#hd"/>
<path d="M764.74 98.00v40.00" class="stroke"/>
<use x="768.24" y="119.00" xlink:href="#hd"/>
<use x="768.24" y="113.00" xlink:href="#hd"/>
<use x="768.24" y="107.00" xlink:href="#hd"/>
<defs>
<path id="r8e" class="fill" d="m 0 0
	c-1.5 1.5 -2.4 2 -3.6 2
	2.4 -2.8 -2.8 -4 -2.8 -1.2
	c0 2.7 4.3 2.4 5.9 0.6"/>
<g id="r8">
	<path d="m3.3 -4l-3.4 9.6" class="stroke"/>
	<use x="3.4" y="-4" xlink:href="#r8e"/>
</g>
</defs>
<use x="828.74" y="113.00" xlink:href="#r8"/>
<defs>
<path id="ubclef" class="fill" d="m-200 -87
	c124 -35 222 -78 254 -236
	43 -228 -167 -246 -192 -103
	59 -80 157 22 92 78
	-62 47 -115 -22 -106 -88
	21 -141 270 -136 274 52
	-1 175 -106 264 -322 297
	m357 -250
	c0 -36 51 -34 51 0
	0 37 -51 36 -51 0
	m-2 -129
	c0 -36 51 -34 51 0
	0 38 -51 37 -51 0"/>
<use id="bclef" transform="translate(0,18) scale(0.045)"
	xlink:href="#ubclef"/>
</defs>
<use x="23.54" y="165.00" xlink:href="#bclef"/>
<g font-family="serif" font-size="16" font-weight="bold" font-style="normal"
	transform="translate(42.04,182.50) scale(1.2,1)">
	<text text-anchor="middle">8</text>
	<text y="-12" text-anchor="middle">3</text>
</g>
<path class="fill"
	d="M81.54 190.90l88.70 0.00v-3.20l-88.70 -0.00"/>
<path class="fill"
	d="M81.94 185.90l88.00 0.00v-3.20l-88.00 -0.00"/>
<use x="85.44" y="168.00" xlink:href="#hd"/>
<path d="M81.94 168.00v21.90" class="stroke"/>
<use x="85.44" y="174.00" xlink:href="#hd"/>
<use x="103.04" y="162.00" xlink:href="#hd"/>
<path d="M99.54 162.00v27.90" class="stroke"/>
<use x="120.64" y="168.00" xlink:href="#hd"/>
<path d="M117.14 168.00v21.90" class="stroke"/>
<use x="120.64" y="174.00" xlink:href="#hd"/>
<use x="138.24" y="162.00" xlink:href="#hd"/>
<path d="M134.74 162.00v27.90" class="stroke"/>
<use x="155.84" y="168.00" xlink:href="#hd"/>
<path d="M152.34 168.00v21.90" class="stroke"/>
<use x="155.84" y="174.00" xlink:href="#hd"/>
<use x="173.44" y="162.00" xlink:href="#hd"/>
<path d="M169.94 162.00v27.90" class="stroke"/>
<use x="201.04" y="168.00" xlink:href="#hd"/>
<path d="M204.54 168.00v-21.00" class="stroke"/>
<use x="250.84" y="171.00" xlink:href="#r8"/>
<use x="284.14" y="183.00" xlink:href="#hd"/>
<path d="M287.64 183.00v-21.00" class="stroke"/>
<use x="333.84" y="171.00" xlink:href="#r8"/>
<use x="367.14" y="162.00" xlink:href="#hd"/>
<path d="M363.64 162.00v25.00" class="stroke"/>
<use x="367.14" y="168.00" xlink:href="#hd"/>
<use x="427.24" y="171.00" xlink:href="#r8"/>
<path class="fill"
	d="M468.24 153.00l50.40 0.00v3.20l-50.40 -0.00"/>
<use x="465.14" y="174.00" xlink:href="#hd"/>
<path d="M468.64 174.00v-20.00" class="stroke"/>
<use x="490.04" y="174.00" xlink:href="#hd"/>
<path d="M493.54 174.00v-20.00" class="stroke"/>
<use x="514.84" y="174.00" xlink:href="#hd"/>
<path d="M518.34 174.00v-20.00" class="stroke"/>
<path class="fill"
	d="M551.34 149.50l71.50 -4.70v3.20l-71.50 4.70"/>
<use x="548.14" y="177.00" xlink:href="#hd"/>
<path d="M551.64 177.00v-26.50" class="stroke"/>
<use x="548.14" y="171.00" xlink:href="#hd"/>
<use x="583.74" y="177.00" xlink:href="#hd"/>
<path d="M587.24 177.00v-28.90" class="stroke"/>
<use x="583.74" y="171.00" xlink:href="#hd"/>
<use x="618.94" y="177.00" xlink:href="#hd"/>
<path d="M622.44 177.00v-31.20" class="stroke"/>
<use x="618.94" y="162.00" xlink:href="#hd"/>
<path class="fill"
	d="M655.44 147.60l71.10 8.30v3.20l-71.10 -8.30"/>
<use x="652.24" y="174.00" xlink:href="#hd"/>
<path d="M655.74 174.00v-25.30" class="stroke"/>
<use x="687.44" y="171.00" xlink:href="#hd"/>
<path d="M690.94 171.00v-18.20" class="stroke"/>
<use x="722.64" y="189.00" xlink:href="#hl"/>
<use x="722.64" y="192.00" xlink:href="#hd"/>
<path d="M726.14 192.00v-35.10" class="stroke"/>
<path class="fill"
	d="M764.44 202.20l78.80 0.00v-3.20l-78.80 -0.00"/>
<path class="fill"
	d="M789.64 197.20l53.20 0.00v-3.20l-53.20 -0.00"/>
<use x="768.24" y="183.00" xlink:href="#hd"/>
<path d="M764.74 183.00v18.20" class="stroke"/>
<use x="793.14" y="162.00" xlink:href="#hd"/>
<path d="M789.64 162.00v39.20" class="stroke"/>
<use x="811.14" y="165.00" xlink:href="#hd"/>
<defs>
<path id="unat" class="fill" d="
	m96 -750
	h-32
	v716
	l32 -8
	182 -54
	v282
	h32
	v-706
	l-34 10
	-180 50
	v-290
	m0 592
	v-190
	l182 -52
	v188"/>
<use id="nt0" transform="translate(-3,5) scale(0.018)"
	xlink:href="#unat"/>
</defs>
<use x="802.14" y="165.00" xlink:href="#nt0"/>
<path d="M807.64 165.00v36.20" class="stroke"/>
<use x="828.74" y="168.00" xlink:href="#hd"/>
<path d="M825.24 168.00v33.20" class="stroke"/>
<use x="846.34" y="171.00" xlink:href="#hd"/>
<path d="M842.84 171.00v30.20" class="stroke"/>
<use x="201.04" y="174.00" xlink:href="#hd"/>
<path d="M197.54 174.00v21.00" class="stroke"/>
</g>
<g stroke-width="0.70" transform="scale(0.867)" font-family="Times" font-size="13.00">
<path class="stroke" stroke-width="1"
	d="M11.54 316.00v-82.00"/>
<path class="fill"
	d="M6.54 231.00
	c10.5 1 12 -4.5 12 -3.5c0 1 -3.5 5.5 -8.5 5.5
	v84.00
	c5 0 8.5 4.5 8.5 5.5c0 1 -1.5 -4.5 -12 -3.5"/>
<use x="141.64" y="258.00" xlink:href="#rdots"/>
<path class="stroke" stroke-width="1"
	d="M137.64 258.00v-24.00"/>
<path class="stroke" stroke-width="3"
	d="M133.14 258.00v-24.00"/>
<use x="141.64" y="316.00" xlink:href="#rdots"/>
<path class="stroke" stroke-width="1"
	d="M137.64 316.00v-58.00"/>
<path class="stroke" stroke-width="3"
	d="M133.14 316.00v-58.00"/>
<path class="stroke" stroke-width="1"
	d="M239.94 258.00v-24.00"/>
<path class="stroke" stroke-width="1"
	d="M239.94 316.00v-58.00"/>
<path class="stroke" stroke-width="1"
	d="M336.04 258.00v-24.00"/>
<path class="stroke" stroke-width="1"
	d="M336.04 316.00v-58.00"/>
<path class="stroke" stroke-width="1"
	d="M414.64 258.00v-24.00"/>
<path class="stroke" stroke-width="1"
	d="M414.64 316.00v-58.00"/>
<path class="stroke" stroke-width="1"
	d="M501.04 258.00v-24.00"/>
<path class="stroke" stroke-width="1"
	d="M501.04 316.00v-58.00"/>
<path class="stroke" stroke-width="1"
	d="M597.14 258.00v-24.00"/>
<path class="stroke" stroke-width="1"
	d="M597.14 316.00v-58.00"/>
<path class="stroke" stroke-width="1"
	d="M693.64 258.00v-24.00"/>
<path class="stroke" stroke-width="1"
	d="M693.64 316.00v-58.00"/>
<path class="stroke" stroke-width="1"
	d="M789.74 258.00v-24.00"/>
<path class="stroke" stroke-width="1"
	d="M789.74 316.00v-58.00"/>
<path class="stroke" stroke-width="3"
	d="M860.54 258.00v-24.00"/>
<path class="stroke" stroke-width="1"
	d="M856.04 258.00v-24.00"/>
<use x="852.04" y="258.00" xlink:href="#rdots"/>
<path class="stroke" stroke-width="3"
	d="M860.54 316.00v-58.00"/>
<path class="stroke" stroke-width="1"
	d="M856.04 316.00v-58.00"/>
<use x="852.04" y="316.00" xlink:href="#rdots"/>
<path d="m11.54 258.00
	h850.50
	M11.54 252.00
	h850.50
	M11.54 246.00
	h850.50
	M11.54 240.00
	h850.50
	M11.54 234.00
	h850.50
	" class="stroke"/>
<path d="m11.54 316.00
	h850.50
	M11.54 310.00
	h850.50
	M11.54 304.00
	h850.50
	M11.54 298.00
	h850.50
	M11.54 292.00
	h850.50
	" class="stroke"/>
<text x="47.54" y="219.40">2</text>
<path class="stroke"
	d="M43.54 208.00m0 20v-20h87.10v20"/>
<use x="23.54" y="252.00" xlink:href="#tclef"/>
<use x="56.04" y="231.00" xlink:href="#hd"/>
<path d="M52.54 231.00v40.00" class="stroke"/>
<use x="56.04" y="252.00" xlink:href="#hd"/>
<use x="56.04" y="246.00" xlink:href="#hd"/>
<use x="56.04" y="240.00" xlink:href="#hd"/>
<use x="107.94" y="246.00" xlink:href="#r8"/>
<path class="fill"
	d="M157.34 260.70l67.00 10.50v-3.20l-67.00 -10.50"/>
<path class="fill"
	d="M177.44 258.90l46.40 7.30v-3.20l-46.40 -7.30"/>
<use x="161.14" y="228.00" xlink:href="#hl"/>
<use x="161.14" y="222.00" xlink:href="#hl"/>
<use x="161.14" y="219.00" xlink:href="#hd"/>
<path d="M157.64 219.00v40.80" class="stroke"/>
<use x="180.94" y="228.00" xlink:href="#hl"/>
<use x="180.94" y="228.00" xlink:href="#hd"/>
<path d="M177.44 228.00v34.90" class="stroke"/>
<use x="198.94" y="234.00" xlink:href="#hd"/>
<use x="189.94" y="234.00" xlink:href="#sh0"/>
<path d="M195.44 234.00v31.70" class="stroke"/>
<use x="213.24" y="240.00" xlink:href="#hd"/>
<path d="M209.74 240.00v28.00" class="stroke"/>
<use x="227.44" y="249.00" xlink:href="#hd"/>
<path d="M223.94 249.00v21.20" class="stroke"/>
<path class="fill"
	d="M248.54 263.50l71.80 10.70v-3.20l-71.80 -10.70"/>
<path class="fill"
	d="M248.94 258.60l71.10 10.60v-3.20l-71.10 -10.60"/>
<use x="252.44" y="231.00" xlink:href="#hd"/>
<path d="M248.94 231.00v31.60" class="stroke"/>
<use x="266.64" y="228.00" xlink:href="#hl"/>
<use x="266.64" y="225.00" xlink:href="#hd"/>
<path d="M263.14 225.00v39.70" class="stroke"/>
<use x="280.84" y="231.00" xlink:href="#hd"/>
<path d="M277.34 231.00v35.80" class="stroke"/>
<use x="295.04" y="240.00" xlink:href="#hd"/>
<path d="M291.54 240.00v28.90" class="stroke"/>
<use x="309.34" y="246.00" xlink:href="#hd"/>
<path d="M305.84 246.00v25.10" class="stroke"/>
<use x="323.54" y="252.00" xlink:href="#hd"/>
<path d="M320.04 252.00v21.20" class="stroke"/>
<path class="fill"
	d="M344.64 265.60l29.10 5.60v-3.20l-29.10 -5.60"/>
<path class="fill"
	d="M345.04 260.70l14.20 2.80v-3.20l-14.20 -2.80"/>
<use x="348.54" y="237.00" xlink:href="#hd"/>
<path d="M345.04 237.00v27.70" class="stroke"/>
<use x="362.74" y="243.00" xlink:href="#hd"/>
<path d="M359.24 243.00v24.40" class="stroke"/>
<use x="376.94" y="252.00" xlink:href="#hd"/>
<path d="M373.44 252.00v18.20" class="stroke"/>
<use x="398.64" y="237.00" xlink:href="#hd"/>
<path d="M395.14 237.00v21.00" class="stroke"/>
<path class="fill"
	d="M395.14 258.00c0.6 -5.6 9.6 -9 5.6 -18.4
	1.6 6 -1.3 11.6 -5.6 12.8
"/>
<path class="fill"
	d="M423.34 266.00l57.60 0.00v-3.20l-57.60 -0.00"/>
<path class="fill"
	d="M423.64 261.00l42.70 0.00v-3.20l-42.70 -0.00"/>
<use x="427.14" y="246.00" xlink:href="#hd"/>
<path d="M423.64 246.00v18.90" class="stroke"/>
<use x="441.34" y="240.00" xlink:href="#hd"/>
<path d="M437.84 240.00v24.90" class="stroke"/>
<use x="455.64" y="231.00" xlink:href="#hd"/>
<path d="M452.14 231.00v33.90" class="stroke"/>
<use x="469.84" y="240.00" xlink:href="#hd"/>
<path d="M466.34 240.00v24.90" class="stroke"/>
<use x="484.04" y="246.00" xlink:href="#hd"/>
<path d="M480.54 246.00v18.90" class="stroke"/>
<path class="fill"
	d="M509.74 274.20l71.80 0.00v-3.20l-71.80 -0.00"/>
<path class="fill"
	d="M510.04 269.20l71.10 0.00v-3.20l-71.10 -0.00"/>
<use x="513.54" y="243.00" xlink:href="#hd"/>
<path d="M510.04 243.00v30.20" class="stroke"/>
<use x="527.74" y="246.00" xlink:href="#hd"/>
<path d="M524.24 246.00v27.20" class="stroke"/>
<use x="541.94" y="243.00" xlink:href="#hd"/>
<path d="M538.44 243.00v30.20" class="stroke"/>
<use x="556.24" y="237.00" xlink:href="#hd"/>
<path d="M552.74 237.00v36.20" class="stroke"/>
<use x="570.44" y="252.00" xlink:href="#hd"/>
<path d="M566.94 252.00v21.20" class="stroke"/>
<use x="584.64" y="243.00" xlink:href="#hd"/>
<path d="M581.14 243.00v30.20" class="stroke"/>
<path class="fill"
	d="M605.84 256.00l72.20 9.30v-3.20l-72.20 -9.30"/>
<path class="fill"
	d="M606.14 251.00l71.50 9.20v-3.20l-71.50 -9.20"/>
<use x="609.64" y="228.00" xlink:href="#hl"/>
<use x="609.64" y="222.00" xlink:href="#hl"/>
<use x="609.64" y="222.00" xlink:href="#hd"/>
<path d="M606.14 222.00v33.00" class="stroke"/>
<use x="624.04" y="228.00" xlink:href="#hl"/>
<use x="624.04" y="225.00" xlink:href="#hd"/>
<path d="M620.54 225.00v31.90" class="stroke"/>
<use x="638.44" y="228.00" xlink:href="#hl"/>
<use x="638.44" y="222.00" xlink:href="#hl"/>
<use x="638.44" y="222.00" xlink:href="#hd"/>
<path d="M634.94 222.00v36.70" class="stroke"/>
<use x="652.64" y="231.00" xlink:href="#hd"/>
<path d="M649.14 231.00v29.60" class="stroke"/>
<use x="666.94" y="237.00" xlink:href="#hd"/>
<path d="M663.44 237.00v25.40" class="stroke"/>
<use x="681.14" y="243.00" xlink:href="#hd"/>
<path d="M677.64 243.00v21.20" class="stroke"/>
<path class="fill"
	d="M702.24 271.20l71.80 0.00v-3.20l-71.80 -0.00"/>
<path class="fill"
	d="M702.64 266.20l71.10 0.00v-3.20l-71.10 -0.00"/>
<use x="706.14" y="240.00" xlink:href="#hd"/>
<path d="M702.64 240.00v30.20" class="stroke"/>
<use x="720.34" y="234.00" xlink:href="#hd"/>
<path d="M716.84 234.00v36.20" class="stroke"/>
<use x="734.54" y="249.00" xlink:href="#hd"/>
<path d="M731.04 249.00v21.20" class="stroke"/>
<use x="748.74" y="240.00" xlink:href="#hd"/>
<path d="M745.24 240.00v30.20" class="stroke"/>
<use x="763.04" y="246.00" xlink:href="#hd"/>
<path d="M759.54 246.00v24.20" class="stroke"/>
<use x="777.24" y="240.00" xlink:href="#hd"/>
<path d="M773.74 240.00v30.20" class="stroke"/>
<use x="802.24" y="243.00" xlink:href="#hd"/>
<path d="M798.74 243.00v21.00" class="stroke"/>
<use x="841.54" y="246.00" xlink:href="#r8"/>
<use x="23.54" y="298.00" xlink:href="#bclef"/>
<path class="fill"
	d="M52.24 335.20l66.80 -4.90v-3.20l-66.80 4.90"/>
<path class="fill"
	d="M72.24 328.80l46.40 -3.40v-3.20l-46.40 3.40"/>
<use x="56.04" y="316.00" xlink:href="#hd"/>
<path d="M52.54 316.00v18.20" class="stroke"/>
<use x="75.74" y="289.00" xlink:href="#hd"/>
<path d="M72.24 289.00v43.80" class="stroke"/>
<use x="89.94" y="295.00" xlink:href="#hd"/>
<path d="M86.44 295.00v36.70" class="stroke"/>
<use x="107.94" y="298.00" xlink:href="#hd"/>
<use x="98.94" y="298.00" xlink:href="#sh0"/>
<path d="M104.44 298.00v32.40" class="stroke"/>
<use x="122.14" y="301.00" xlink:href="#hd"/>
<path d="M118.64 301.00v28.30" class="stroke"/>
<use x="161.14" y="298.00" xlink:href="#hd"/>
<use x="152.14" y="298.00" xlink:href="#sh0"/>
<path d="M157.64 298.00v25.00" class="stroke"/>
<use x="161.14" y="304.00" xlink:href="#hd"/>
<use x="213.24" y="298.00" xlink:href="#hd"/>
<path d="M209.74 298.00v28.00" class="stroke"/>
<path class="fill"
	d="M209.74 326.00c0.6 -5.6 9.6 -9 5.6 -18.4
	1.6 6 -1.3 11.6 -5.6 12.8
"/>
<use x="213.24" y="307.00" xlink:href="#hd"/>
<use x="252.44" y="310.00" xlink:href="#hd"/>
<path d="M255.94 310.00v-25.00" class="stroke"/>
<use x="252.44" y="304.00" xlink:href="#hd"/>
<use x="309.34" y="304.00" xlink:href="#r8"/>
<use x="348.54" y="295.00" xlink:href="#hd"/>
<path d="M345.04 295.00v31.00" class="stroke"/>
<use x="348.54" y="307.00" xlink:href="#hd"/>
<use x="398.64" y="295.00" xlink:href="#hd"/>
<path d="M395.14 295.00v31.00" class="stroke"/>
<path class="fill"
	d="M395.14 326.00c0.6 -5.6 9.6 -9 5.6 -18.4
	1.6 6 -1.3 11.6 -5.6 12.8
"/>
<use x="398.64" y="307.00" xlink:href="#hd"/>
<use x="427.14" y="295.00" xlink:href="#hd"/>
<path d="M423.64 295.00v21.00" class="stroke"/>
<use x="484.04" y="316.00" xlink:href="#hd"/>
<path d="M487.54 316.00v-21.00" class="stroke"/>
<path class="fill"
	d="M487.54 295.00c0.6 5.6 9.6 9 5.6 18.4
	1.6 -6 -1.3 -11.6 -5.6 -12.8
"/>
<use x="513.54" y="301.00" xlink:href="#hd"/>
<path d="M510.04 301.00v25.00" class="stroke"/>
<use x="513.54" y="307.00" xlink:href="#hd"/>
<use x="570.44" y="295.00" xlink:href="#hd"/>
<path d="M566.94 295.00v25.00" class="stroke"/>
<path class="fill"
	d="M566.94 320.00c0.6 -5.6 9.6 -9 5.6 -18.4
	1.6 6 -1.3 11.6 -5.6 12.8
"/>
<use x="570.44" y="301.00" xlink:href="#hd"/>
<use x="609.64" y="301.00" xlink:href="#hd"/>
<path d="M606.14 301.00v25.00" class="stroke"/>
<use x="609.64" y="307.00" xlink:href="#hd"/>
<use x="666.94" y="304.00" xlink:href="#r8"/>
<use x="706.14" y="298.00" xlink:href="#hd"/>
<path d="M702.64 298.00v21.00" class="stroke"/>
<use x="763.04" y="295.00" xlink:href="#hd"/>
<path d="M759.54 295.00v21.00" class="stroke"/>
<path class="fill"
	d="M759.54 316.00c0.6 -5.6 9.6 -9 5.6 -18.4
	1.6 6 -1.3 11.6 -5.6 12.8
"/>
<path class="fill"
	d="M805.44 287.70l40.00 9.60v3.20l-40.00 -9.60"/>
<use x="802.24" y="307.00" xlink:href="#hd"/>
<path d="M805.74 307.00v-18.20" class="stroke"/>
<use x="821.84" y="316.00" xlink:href="#hd"/>
<path d="M825.34 316.00v-22.50" class="stroke"/>
<use x="841.54" y="322.00" xlink:href="#hl"/>
<use x="841.54" y="328.00" xlink:href="#hl"/>
<use x="841.54" y="328.00" xlink:href="#hd"/>
<path d="M845.04 328.00v-29.80" class="stroke"/>
</g>
</svg>
