<?xml version="1.0" standalone="no"?>
<!DOCTYPE svg PUBLIC "-//W3C//DTD SVG 1.1//EN"
	"http://www.w3.org/Graphics/SVG/1.1/DTD/svg11.dtd">
<svg xmlns="http://www.w3.org/2000/svg" version="1.1"
	xmlns:xlink="http://www.w3.org/1999/xlink"
	color="black"
	width="757.10px" height="299.89px">
<style type="text/css">
.fill {fill: currentColor}
.stroke {stroke: currentColor; fill: none}
text{white-space: pre}
</style>
<title>./K516f-4-7-7-8-3-7-6-5-11-3-7-5-5-7-9-6.abc (2582) tune 1</title>
<!-- Creator: abcm2ps-8.13.8 -->
<!-- CreationDate: Sep  7, 2017 11:19 -->
<!-- CommandLine: ./K516f-4-7-7-8-3-7-6-5-11-3-7-5-5-7-9-6.abc -O ./K516f-4-7-7-8-3-7-6-5-11-3-7-5-5-7-9-6.svg -g -->
<rect width="100%" height="100%" fill="white"/>
<g stroke-width="0.70" transform="scale(0.867)">
<!-- title: 4-7-7-8-3-7-6-5-11-3-7-5-5-7-9-6 -->
</g>
<g stroke-width="0.70" transform="scale(0.867)" font-family="Times" font-size="20.00">
<text x="436.84" y="22.00" text-anchor="middle">4-7-7-8-3-7-6-5-11-3-7-5-5-7-9-6</text>
</g>
<g stroke-width="0.70" transform="scale(0.867)" font-family="Times" font-size="20.00">
<!-- subtitle: $1K.516f::69:157:27:53:146:68:36:100:102:39:150:34:67:162:72:93::$0 -->
</g>
<g stroke-width="0.70" transform="scale(0.867)" font-family="Courier" font-size="8.00" font-weight="bold">
<text x="436.84" y="41.80" text-anchor="middle">K.516f::69:157:27:53:146:68:36:100:102:39:150:34:67:162:72:93::</text>
</g>
<g stroke-width="0.70" transform="scale(0.867)" font-family="Courier" font-size="8.00" font-weight="bold">
<!-- subtitle: $1Perm. No.: 258297061573422$0 -->
<text x="436.84" y="60.80" text-anchor="middle">Perm. No.: 258297061573422</text>
</g>
<g stroke-width="0.70" transform="scale(0.607)" font-family="Courier" font-size="8.00" font-weight="bold">
<defs>
<ellipse id="hd" rx="4.1" ry="2.9"
	transform="rotate(-20)" class="fill"/>
</defs>
<use x="103.06" y="121.29" xlink:href="#hd"/>
<path d="M106.56 121.29v-21.00" class="stroke"/>
<path class="fill"
	d="M106.56 100.29c0.6 5.6 9.6 9 5.6 18.4
	1.6 -6 -1.3 -11.6 -5.6 -12.8
"/>
</g>
<g stroke-width="0.70" transform="scale(0.867)" font-family="Times" font-size="15.00" font-weight="bold">
<text x="81.24" y="87.00">= 111</text>
<path class="stroke" stroke-width="1"
	d="M11.54 184.00v-82.00"/>
<path class="fill"
	d="M6.54 99.00
	c10.5 1 12 -4.5 12 -3.5c0 1 -3.5 5.5 -8.5 5.5
	v84.00
	c5 0 8.5 4.5 8.5 5.5c0 1 -1.5 -4.5 -12 -3.5"/>
<defs>
<g id="rdots" class="fill">
	<circle cx="0" cy="-9" r="1.2"/>
	<circle cx="0" cy="-15" r="1.2"/>
</g>
</defs>
<use x="70.54" y="126.00" xlink:href="#rdots"/>
<path class="stroke" stroke-width="1"
	d="M66.54 126.00v-24.00"/>
<path class="stroke" stroke-width="3"
	d="M62.04 126.00v-24.00"/>
<use x="70.54" y="184.00" xlink:href="#rdots"/>
<path class="stroke" stroke-width="1"
	d="M66.54 184.00v-58.00"/>
<path class="stroke" stroke-width="3"
	d="M62.04 184.00v-58.00"/>
<path class="stroke" stroke-width="1"
	d="M150.84 126.00v-24.00"/>
<path class="stroke" stroke-width="1"
	d="M150.84 184.00v-58.00"/>
<path class="stroke" stroke-width="1"
	d="M261.44 126.00v-24.00"/>
<path class="stroke" stroke-width="1"
	d="M261.44 184.00v-58.00"/>
<path class="stroke" stroke-width="1"
	d="M372.04 126.00v-24.00"/>
<path class="stroke" stroke-width="1"
	d="M372.04 184.00v-58.00"/>
<path class="stroke" stroke-width="1"
	d="M461.24 126.00v-24.00"/>
<path class="stroke" stroke-width="1"
	d="M461.24 184.00v-58.00"/>
<path class="stroke" stroke-width="1"
	d="M545.94 126.00v-24.00"/>
<path class="stroke" stroke-width="1"
	d="M545.94 184.00v-58.00"/>
<path class="stroke" stroke-width="1"
	d="M646.54 126.00v-24.00"/>
<path class="stroke" stroke-width="1"
	d="M646.54 184.00v-58.00"/>
<path class="stroke" stroke-width="1"
	d="M758.34 126.00v-24.00"/>
<path class="stroke" stroke-width="1"
	d="M758.34 184.00v-58.00"/>
<path class="stroke" stroke-width="3"
	d="M860.54 126.00v-24.00"/>
<path class="stroke" stroke-width="1"
	d="M856.04 126.00v-24.00"/>
<use x="852.04" y="126.00" xlink:href="#rdots"/>
<path class="stroke" stroke-width="3"
	d="M860.54 184.00v-58.00"/>
<path class="stroke" stroke-width="1"
	d="M856.04 184.00v-58.00"/>
<use x="852.04" y="184.00" xlink:href="#rdots"/>
<path d="m11.54 126.00
	h850.50
	M11.54 120.00
	h850.50
	M11.54 114.00
	h850.50
	M11.54 108.00
	h850.50
	M11.54 102.00
	h850.50
	" class="stroke"/>
<path d="m11.54 184.00
	h850.50
	M11.54 178.00
	h850.50
	M11.54 172.00
	h850.50
	M11.54 166.00
	h850.50
	M11.54 160.00
	h850.50
	" class="stroke"/>
<path class="fill"
	d="M88.84 95.40c6.77 -3.00 36.64 2.23 43.41 7.60
	v-0.24c-8.07 -7.13 -35.34 -12.36 -43.41 -7.36"/>
</g>
<g stroke-width="0.70" transform="scale(0.867)" font-family="Times" font-size="13.00">
<text x="762.34" y="87.40">1</text>
<path class="stroke"
	d="M758.34 76.00m0 20v-20h95.70v20"/>
<defs>
<path id="utclef" class="fill" d="m-50 -90
	c-72 -41 -72 -158 52 -188
	150 -10 220 188 90 256
	-114 52 -275 0 -293 -136
	-15 -181 93 -229 220 -334
	88 -87 79 -133 62 -210
	-51 33 -94 105 -89 186
	17 267 36 374 49 574
	6 96 -19 134 -77 135
	-80 1 -126 -93 -61 -133
	85 -41 133 101 31 105
	23 17 92 37 90 -92
	-10 -223 -39 -342 -50 -617
	0 -90 0 -162 96 -232
	56 72 63 230 22 289
	-74 106 -257 168 -255 316
	9 153 148 185 252 133
	86 -65 29 -192 -80 -176
	-71 12 -105 67 -59 124"/>
<use id="tclef" transform="translate(0,6) scale(0.045)"
	xlink:href="#utclef"/>
</defs>
<use x="23.54" y="120.00" xlink:href="#tclef"/>
<g font-family="serif" font-size="16" font-weight="bold" font-style="normal"
	transform="translate(42.04,125.50) scale(1.2,1)">
	<text text-anchor="middle">8</text>
	<text y="-12" text-anchor="middle">3</text>
</g>
<path class="fill"
	d="M81.04 122.20l48.10 8.10v-3.20l-48.10 -8.10"/>
<use x="84.84" y="99.00" xlink:href="#hd"/>
<path d="M81.34 99.00v22.20" class="stroke"/>
<use x="108.54" y="105.00" xlink:href="#hd"/>
<path d="M105.04 105.00v20.20" class="stroke"/>
<use x="132.24" y="111.00" xlink:href="#hd"/>
<path d="M128.74 111.00v18.20" class="stroke"/>
<path class="fill"
	d="M160.34 131.50l84.70 -6.40v-3.20l-84.70 6.40"/>
<path class="fill"
	d="M160.64 126.50l84.10 -6.30v-3.20l-84.10 6.30"/>
<use x="164.14" y="105.00" xlink:href="#hd"/>
<path d="M160.64 105.00v25.50" class="stroke"/>
<use x="181.04" y="108.00" xlink:href="#hd"/>
<path d="M177.54 108.00v21.20" class="stroke"/>
<use x="197.84" y="105.00" xlink:href="#hd"/>
<path d="M194.34 105.00v22.90" class="stroke"/>
<use x="214.64" y="99.00" xlink:href="#hd"/>
<path d="M211.14 99.00v27.70" class="stroke"/>
<defs>
<path id="hl" class="stroke" d="m-6 0h12"/>
</defs>
<use x="231.44" y="96.00" xlink:href="#hl"/>
<use x="231.44" y="90.00" xlink:href="#hl"/>
<use x="231.44" y="90.00" xlink:href="#hd"/>
<path d="M227.94 90.00v35.40" class="stroke"/>
<use x="248.24" y="99.00" xlink:href="#hd"/>
<path d="M244.74 99.00v25.10" class="stroke"/>
<path class="fill"
	d="M270.94 130.00l84.70 6.20v-3.20l-84.70 -6.20"/>
<path class="fill"
	d="M271.24 125.10l84.10 6.10v-3.20l-84.10 -6.10"/>
<use x="274.74" y="102.00" xlink:href="#hd"/>
<path d="M271.24 102.00v27.10" class="stroke"/>
<use x="291.54" y="105.00" xlink:href="#hd"/>
<path d="M288.04 105.00v25.30" class="stroke"/>
<use x="308.34" y="102.00" xlink:href="#hd"/>
<path d="M304.84 102.00v29.50" class="stroke"/>
<use x="325.24" y="108.00" xlink:href="#hd"/>
<path d="M321.74 108.00v24.70" class="stroke"/>
<use x="342.04" y="111.00" xlink:href="#hd"/>
<path d="M338.54 111.00v23.00" class="stroke"/>
<use x="358.84" y="114.00" xlink:href="#hd"/>
<path d="M355.34 114.00v21.20" class="stroke"/>
<path class="fill"
	d="M381.54 128.00l58.00 0.00v-3.20l-58.00 -0.00"/>
<path class="fill"
	d="M405.54 123.00l16.80 0.00v-3.20l-16.80 -0.00"/>
<use x="385.34" y="105.00" xlink:href="#hd"/>
<path d="M381.84 105.00v22.00" class="stroke"/>
<use x="385.34" y="111.00" xlink:href="#hd"/>
<use x="409.04" y="105.00" xlink:href="#hd"/>
<path d="M405.54 105.00v22.00" class="stroke"/>
<use x="409.04" y="111.00" xlink:href="#hd"/>
<use x="425.84" y="102.00" xlink:href="#hd"/>
<path d="M422.34 102.00v25.00" class="stroke"/>
<use x="425.84" y="108.00" xlink:href="#hd"/>
<use x="442.64" y="99.00" xlink:href="#hd"/>
<path d="M439.14 99.00v28.00" class="stroke"/>
<use x="442.64" y="105.00" xlink:href="#hd"/>
<path class="fill"
	d="M475.94 140.30l48.30 -8.40v-3.20l-48.30 8.40"/>
<use x="479.74" y="108.00" xlink:href="#hd"/>
<path d="M476.24 108.00v31.20" class="stroke"/>
<use x="479.74" y="123.00" xlink:href="#hd"/>
<defs>
<path id="usharp" class="fill" d="
	m136 -702
	v890
	h32
	v-890
	m128 840
	h32
	v-888
	h-32
	m-232 286
	v116
	l338 -96
	v-116
	m-338 442
	v116
	l338 -98
	v-114"/>
<use id="sh0" transform="translate(-4,5) scale(0.018)"
	xlink:href="#usharp"/>
</defs>
<use x="470.74" y="123.00" xlink:href="#sh0"/>
<use x="503.64" y="102.00" xlink:href="#hd"/>
<use x="494.64" y="102.00" xlink:href="#sh0"/>
<path d="M500.14 102.00v33.10" class="stroke"/>
<use x="503.64" y="108.00" xlink:href="#hd"/>
<use x="527.34" y="96.00" xlink:href="#hl"/>
<use x="527.34" y="96.00" xlink:href="#hd"/>
<path d="M523.84 96.00v35.00" class="stroke"/>
<use x="527.34" y="102.00" xlink:href="#hd"/>
<path class="fill"
	d="M555.44 128.00l74.80 0.00v-3.20l-74.80 -0.00"/>
<path class="fill"
	d="M579.44 123.00l50.40 0.00v-3.20l-50.40 -0.00"/>
<use x="559.24" y="99.00" xlink:href="#hd"/>
<path d="M555.74 99.00v28.00" class="stroke"/>
<use x="582.94" y="96.00" xlink:href="#hl"/>
<use x="582.94" y="93.00" xlink:href="#hd"/>
<path d="M579.44 93.00v34.00" class="stroke"/>
<use x="599.74" y="99.00" xlink:href="#hd"/>
<path d="M596.24 99.00v28.00" class="stroke"/>
<use x="616.54" y="108.00" xlink:href="#hd"/>
<path d="M613.04 108.00v19.00" class="stroke"/>
<use x="633.34" y="99.00" xlink:href="#hd"/>
<path d="M629.84 99.00v28.00" class="stroke"/>
<path class="fill"
	d="M656.04 139.30l85.90 -8.50v-3.20l-85.90 8.50"/>
<path class="fill"
	d="M656.44 134.20l85.20 -8.40v-3.20l-85.20 8.40"/>
<use x="659.94" y="117.00" xlink:href="#hd"/>
<path d="M656.44 117.00v21.20" class="stroke"/>
<use x="676.74" y="105.00" xlink:href="#hd"/>
<path d="M673.24 105.00v31.50" class="stroke"/>
<use x="693.54" y="108.00" xlink:href="#hd"/>
<path d="M690.04 108.00v26.90" class="stroke"/>
<use x="710.34" y="99.00" xlink:href="#hd"/>
<path d="M706.84 99.00v34.20" class="stroke"/>
<use x="728.34" y="102.00" xlink:href="#hd"/>
<use x="719.34" y="102.00" xlink:href="#sh0"/>
<path d="M724.84 102.00v29.40" class="stroke"/>
<use x="745.14" y="96.00" xlink:href="#hl"/>
<use x="745.14" y="96.00" xlink:href="#hd"/>
<path d="M741.64 96.00v33.80" class="stroke"/>
<use x="771.74" y="99.00" xlink:href="#hd"/>
<path d="M768.24 99.00v40.00" class="stroke"/>
<use x="771.74" y="120.00" xlink:href="#hd"/>
<use x="771.74" y="114.00" xlink:href="#hd"/>
<use x="771.74" y="108.00" xlink:href="#hd"/>
<defs>
<path id="r8e" class="fill" d="m 0 0
	c-1.5 1.5 -2.4 2 -3.6 2
	2.4 -2.8 -2.8 -4 -2.8 -1.2
	c0 2.7 4.3 2.4 5.9 0.6"/>
<g id="r8">
	<path d="m3.3 -4l-3.4 9.6" class="stroke"/>
	<use x="3.4" y="-4" xlink:href="#r8e"/>
</g>
</defs>
<use x="830.24" y="114.00" xlink:href="#r8"/>
<defs>
<path id="ubclef" class="fill" d="m-200 -87
	c124 -35 222 -78 254 -236
	43 -228 -167 -246 -192 -103
	59 -80 157 22 92 78
	-62 47 -115 -22 -106 -88
	21 -141 270 -136 274 52
	-1 175 -106 264 -322 297
	m357 -250
	c0 -36 51 -34 51 0
	0 37 -51 36 -51 0
	m-2 -129
	c0 -36 51 -34 51 0
	0 38 -51 37 -51 0"/>
<use id="bclef" transform="translate(0,18) scale(0.045)"
	xlink:href="#ubclef"/>
</defs>
<use x="23.54" y="166.00" xlink:href="#bclef"/>
<g font-family="serif" font-size="16" font-weight="bold" font-style="normal"
	transform="translate(42.04,183.50) scale(1.2,1)">
	<text text-anchor="middle">8</text>
	<text y="-12" text-anchor="middle">3</text>
</g>
<use x="84.84" y="169.00" xlink:href="#hd"/>
<path d="M81.34 169.00v25.00" class="stroke"/>
<use x="84.84" y="175.00" xlink:href="#hd"/>
<use x="132.24" y="172.00" xlink:href="#r8"/>
<use x="164.14" y="175.00" xlink:href="#hd"/>
<path d="M167.64 175.00v-21.00" class="stroke"/>
<use x="231.44" y="172.00" xlink:href="#r8"/>
<use x="274.74" y="157.00" xlink:href="#hd"/>
<path d="M271.24 157.00v25.00" class="stroke"/>
<use x="274.74" y="163.00" xlink:href="#hd"/>
<use x="342.04" y="172.00" xlink:href="#r8"/>
<use x="385.34" y="175.00" xlink:href="#hd"/>
<path d="M388.84 175.00v-21.00" class="stroke"/>
<use x="442.64" y="172.00" xlink:href="#r8"/>
<path class="fill"
	d="M482.94 154.00l48.30 0.00v3.20l-48.30 -0.00"/>
<use x="479.74" y="175.00" xlink:href="#hd"/>
<path d="M483.24 175.00v-20.00" class="stroke"/>
<use x="503.64" y="175.00" xlink:href="#hd"/>
<path d="M507.14 175.00v-20.00" class="stroke"/>
<use x="527.34" y="175.00" xlink:href="#hd"/>
<path d="M530.84 175.00v-20.00" class="stroke"/>
<use x="559.24" y="178.00" xlink:href="#hd"/>
<path d="M562.74 178.00v-21.00" class="stroke"/>
<use x="616.54" y="172.00" xlink:href="#r8"/>
<path class="fill"
	d="M663.04 148.70l69.10 8.30v3.20l-69.10 -8.30"/>
<use x="659.94" y="175.00" xlink:href="#hd"/>
<path d="M663.44 175.00v-25.30" class="stroke"/>
<use x="693.54" y="172.00" xlink:href="#hd"/>
<path d="M697.04 172.00v-18.20" class="stroke"/>
<use x="728.34" y="190.00" xlink:href="#hl"/>
<use x="728.34" y="193.00" xlink:href="#hd"/>
<path d="M731.84 193.00v-35.00" class="stroke"/>
<path class="fill"
	d="M767.84 203.20l76.00 0.00v-3.20l-76.00 -0.00"/>
<path class="fill"
	d="M791.94 198.20l51.60 0.00v-3.20l-51.60 -0.00"/>
<use x="771.74" y="184.00" xlink:href="#hd"/>
<path d="M768.24 184.00v18.20" class="stroke"/>
<use x="795.44" y="163.00" xlink:href="#hd"/>
<path d="M791.94 163.00v39.20" class="stroke"/>
<use x="813.44" y="166.00" xlink:href="#hd"/>
<defs>
<path id="unat" class="fill" d="
	m96 -750
	h-32
	v716
	l32 -8
	182 -54
	v282
	h32
	v-706
	l-34 10
	-180 50
	v-290
	m0 592
	v-190
	l182 -52
	v188"/>
<use id="nt0" transform="translate(-3,5) scale(0.018)"
	xlink:href="#unat"/>
</defs>
<use x="804.44" y="166.00" xlink:href="#nt0"/>
<path d="M809.94 166.00v36.20" class="stroke"/>
<use x="830.24" y="169.00" xlink:href="#hd"/>
<path d="M826.74 169.00v33.20" class="stroke"/>
<use x="847.04" y="172.00" xlink:href="#hd"/>
<path d="M843.54 172.00v30.20" class="stroke"/>
</g>
<g stroke-width="0.70" transform="scale(0.867)" font-family="Times" font-size="13.00">
<path class="stroke" stroke-width="1"
	d="M11.54 320.02v-85.00"/>
<path class="fill"
	d="M6.54 232.02
	c10.5 1 12 -4.5 12 -3.5c0 1 -3.5 5.5 -8.5 5.5
	v87.00
	c5 0 8.5 4.5 8.5 5.5c0 1 -1.5 -4.5 -12 -3.5"/>
<use x="140.84" y="259.02" xlink:href="#rdots"/>
<path class="stroke" stroke-width="1"
	d="M136.84 259.02v-24.00"/>
<path class="stroke" stroke-width="3"
	d="M132.34 259.02v-24.00"/>
<use x="140.84" y="320.02" xlink:href="#rdots"/>
<path class="stroke" stroke-width="1"
	d="M136.84 320.02v-61.00"/>
<path class="stroke" stroke-width="3"
	d="M132.34 320.02v-61.00"/>
<path class="stroke" stroke-width="1"
	d="M225.44 259.02v-24.00"/>
<path class="stroke" stroke-width="1"
	d="M225.44 320.02v-61.00"/>
<path class="stroke" stroke-width="1"
	d="M320.54 259.02v-24.00"/>
<path class="stroke" stroke-width="1"
	d="M320.54 320.02v-61.00"/>
<path class="stroke" stroke-width="1"
	d="M420.94 259.02v-24.00"/>
<path class="stroke" stroke-width="1"
	d="M420.94 320.02v-61.00"/>
<path class="stroke" stroke-width="1"
	d="M505.24 259.02v-24.00"/>
<path class="stroke" stroke-width="1"
	d="M505.24 320.02v-61.00"/>
<path class="stroke" stroke-width="1"
	d="M600.34 259.02v-24.00"/>
<path class="stroke" stroke-width="1"
	d="M600.34 320.02v-61.00"/>
<path class="stroke" stroke-width="1"
	d="M695.34 259.02v-24.00"/>
<path class="stroke" stroke-width="1"
	d="M695.34 320.02v-61.00"/>
<path class="stroke" stroke-width="1"
	d="M790.44 259.02v-24.00"/>
<path class="stroke" stroke-width="1"
	d="M790.44 320.02v-61.00"/>
<path class="stroke" stroke-width="3"
	d="M860.54 259.02v-24.00"/>
<path class="stroke" stroke-width="1"
	d="M856.04 259.02v-24.00"/>
<use x="852.04" y="259.02" xlink:href="#rdots"/>
<path class="stroke" stroke-width="3"
	d="M860.54 320.02v-61.00"/>
<path class="stroke" stroke-width="1"
	d="M856.04 320.02v-61.00"/>
<use x="852.04" y="320.02" xlink:href="#rdots"/>
<path d="m11.54 259.02
	h850.50
	M11.54 253.02
	h850.50
	M11.54 247.02
	h850.50
	M11.54 241.02
	h850.50
	M11.54 235.02
	h850.50
	" class="stroke"/>
<path d="m11.54 320.02
	h850.50
	M11.54 314.02
	h850.50
	M11.54 308.02
	h850.50
	M11.54 302.02
	h850.50
	M11.54 296.02
	h850.50
	" class="stroke"/>
<text x="47.54" y="220.42">2</text>
<path class="stroke"
	d="M43.54 209.02m0 20v-20h86.30v20"/>
<use x="23.54" y="253.02" xlink:href="#tclef"/>
<use x="56.04" y="232.02" xlink:href="#hd"/>
<path d="M52.54 232.02v40.00" class="stroke"/>
<use x="56.04" y="253.02" xlink:href="#hd"/>
<use x="56.04" y="247.02" xlink:href="#hd"/>
<use x="56.04" y="241.02" xlink:href="#hd"/>
<use x="107.34" y="247.02" xlink:href="#r8"/>
<path class="fill"
	d="M156.54 263.72l28.70 5.60v-3.20l-28.70 -5.60"/>
<path class="fill"
	d="M156.84 258.72l14.00 2.70v-3.20l-14.00 -2.70"/>
<use x="160.34" y="235.02" xlink:href="#hd"/>
<use x="151.34" y="235.02" xlink:href="#sh0"/>
<path d="M156.84 235.02v27.70" class="stroke"/>
<use x="174.34" y="241.02" xlink:href="#hd"/>
<path d="M170.84 241.02v24.50" class="stroke"/>
<use x="188.44" y="250.02" xlink:href="#hd"/>
<path d="M184.94 250.02v18.20" class="stroke"/>
<use x="209.74" y="235.02" xlink:href="#hd"/>
<path d="M206.24 235.02v21.00" class="stroke"/>
<path class="fill"
	d="M206.24 256.02c0.6 -5.6 9.6 -9 5.6 -18.4
	1.6 6 -1.3 11.6 -5.6 12.8
"/>
<path class="fill"
	d="M234.14 267.82l56.70 8.80v-3.20l-56.70 -8.80"/>
<use x="237.94" y="232.02" xlink:href="#hd"/>
<path d="M234.44 232.02v34.90" class="stroke"/>
<use x="266.04" y="253.02" xlink:href="#hd"/>
<path d="M262.54 253.02v18.20" class="stroke"/>
<use x="294.04" y="253.02" xlink:href="#hd"/>
<path d="M290.54 253.02v22.50" class="stroke"/>
<use x="333.04" y="238.02" xlink:href="#hd"/>
<path d="M329.54 238.02v34.00" class="stroke"/>
<path class="fill"
	d="M329.54 272.02c0.6 -5.6 9.6 -9 5.6 -18.4
	1.6 6 -1.3 11.6 -5.6 12.8
"/>
<use x="333.04" y="253.02" xlink:href="#hd"/>
<use x="333.04" y="244.02" xlink:href="#hd"/>
<use x="362.44" y="238.02" xlink:href="#hd"/>
<path d="M358.94 238.02v21.00" class="stroke"/>
<path class="fill"
	d="M429.64 266.02l56.70 6.20v-3.20l-56.70 -6.20"/>
<path class="fill"
	d="M429.94 261.02l42.00 4.60v-3.20l-42.00 -4.60"/>
<use x="433.44" y="238.02" xlink:href="#hd"/>
<path d="M429.94 238.02v27.00" class="stroke"/>
<use x="447.54" y="244.02" xlink:href="#hd"/>
<path d="M444.04 244.02v22.60" class="stroke"/>
<use x="461.54" y="241.02" xlink:href="#hd"/>
<path d="M458.04 241.02v27.10" class="stroke"/>
<use x="475.54" y="247.02" xlink:href="#hd"/>
<path d="M472.04 247.02v22.70" class="stroke"/>
<use x="489.54" y="253.02" xlink:href="#hd"/>
<path d="M486.04 253.02v18.20" class="stroke"/>
<path class="fill"
	d="M513.94 275.22l70.70 0.00v-3.20l-70.70 -0.00"/>
<path class="fill"
	d="M514.24 270.22l70.00 0.00v-3.20l-70.00 -0.00"/>
<use x="517.74" y="244.02" xlink:href="#hd"/>
<path d="M514.24 244.02v30.20" class="stroke"/>
<use x="531.74" y="247.02" xlink:href="#hd"/>
<path d="M528.24 247.02v27.20" class="stroke"/>
<use x="545.84" y="244.02" xlink:href="#hd"/>
<path d="M542.34 244.02v30.20" class="stroke"/>
<use x="559.84" y="238.02" xlink:href="#hd"/>
<path d="M556.34 238.02v36.20" class="stroke"/>
<use x="573.84" y="253.02" xlink:href="#hd"/>
<path d="M570.34 253.02v21.20" class="stroke"/>
<use x="587.84" y="244.02" xlink:href="#hd"/>
<path d="M584.34 244.02v30.20" class="stroke"/>
<path class="fill"
	d="M608.94 264.52l70.70 -6.20v-3.20l-70.70 6.20"/>
<path class="fill"
	d="M609.34 259.42l70.00 -6.10v-3.20l-70.00 6.10"/>
<use x="612.84" y="238.02" xlink:href="#hd"/>
<path d="M609.34 238.02v25.40" class="stroke"/>
<use x="626.84" y="241.02" xlink:href="#hd"/>
<path d="M623.34 241.02v21.20" class="stroke"/>
<use x="640.84" y="238.02" xlink:href="#hd"/>
<path d="M637.34 238.02v23.00" class="stroke"/>
<use x="654.84" y="232.02" xlink:href="#hd"/>
<path d="M651.34 232.02v27.70" class="stroke"/>
<use x="668.84" y="229.02" xlink:href="#hl"/>
<use x="668.84" y="223.02" xlink:href="#hl"/>
<use x="668.84" y="223.02" xlink:href="#hd"/>
<path d="M665.34 223.02v35.50" class="stroke"/>
<use x="682.84" y="232.02" xlink:href="#hd"/>
<path d="M679.34 232.02v25.30" class="stroke"/>
<path class="fill"
	d="M704.04 267.02l70.70 0.00v-3.20l-70.70 -0.00"/>
<path class="fill"
	d="M704.34 262.02l70.00 0.00v-3.20l-70.00 -0.00"/>
<use x="707.84" y="235.02" xlink:href="#hd"/>
<path d="M704.34 235.02v30.90" class="stroke"/>
<use x="721.84" y="238.02" xlink:href="#hd"/>
<path d="M718.34 238.02v27.90" class="stroke"/>
<use x="735.84" y="241.02" xlink:href="#hd"/>
<path d="M732.34 241.02v24.90" class="stroke"/>
<use x="749.84" y="244.02" xlink:href="#hd"/>
<path d="M746.34 244.02v21.90" class="stroke"/>
<use x="763.94" y="247.02" xlink:href="#hd"/>
<path d="M760.44 247.02v18.90" class="stroke"/>
<use x="777.94" y="241.02" xlink:href="#hd"/>
<path d="M774.44 241.02v24.90" class="stroke"/>
<use x="802.94" y="244.02" xlink:href="#hd"/>
<path d="M799.44 244.02v21.00" class="stroke"/>
<use x="841.54" y="247.02" xlink:href="#r8"/>
<use x="23.54" y="302.02" xlink:href="#bclef"/>
<path class="fill"
	d="M52.24 339.22l66.00 -4.90v-3.20l-66.00 4.90"/>
<path class="fill"
	d="M71.84 332.82l46.00 -3.40v-3.20l-46.00 3.40"/>
<use x="56.04" y="320.02" xlink:href="#hd"/>
<path d="M52.54 320.02v18.20" class="stroke"/>
<use x="75.34" y="293.02" xlink:href="#hd"/>
<path d="M71.84 293.02v43.80" class="stroke"/>
<use x="89.34" y="299.02" xlink:href="#hd"/>
<path d="M85.84 299.02v36.70" class="stroke"/>
<use x="107.34" y="302.02" xlink:href="#hd"/>
<use x="98.34" y="302.02" xlink:href="#sh0"/>
<path d="M103.84 302.02v32.40" class="stroke"/>
<use x="121.34" y="305.02" xlink:href="#hd"/>
<path d="M117.84 305.02v28.40" class="stroke"/>
<use x="160.34" y="296.02" xlink:href="#hd"/>
<path d="M156.84 296.02v34.00" class="stroke"/>
<use x="160.34" y="311.02" xlink:href="#hd"/>
<use x="209.74" y="296.02" xlink:href="#hd"/>
<path d="M206.24 296.02v34.00" class="stroke"/>
<path class="fill"
	d="M206.24 330.02c0.6 -5.6 9.6 -9 5.6 -18.4
	1.6 6 -1.3 11.6 -5.6 12.8
"/>
<use x="209.74" y="311.02" xlink:href="#hd"/>
<path class="fill"
	d="M234.14 342.22l70.70 0.00v-3.20l-70.70 -0.00"/>
<path class="fill"
	d="M234.44 337.22l70.00 0.00v-3.20l-70.00 -0.00"/>
<use x="237.94" y="314.02" xlink:href="#hd"/>
<path d="M234.44 314.02v27.20" class="stroke"/>
<use x="252.04" y="308.02" xlink:href="#hd"/>
<path d="M248.54 308.02v33.20" class="stroke"/>
<use x="266.04" y="299.02" xlink:href="#hd"/>
<path d="M262.54 299.02v42.20" class="stroke"/>
<use x="280.04" y="308.02" xlink:href="#hd"/>
<path d="M276.54 308.02v33.20" class="stroke"/>
<use x="294.04" y="293.02" xlink:href="#hd"/>
<path d="M290.54 293.02v48.20" class="stroke"/>
<use x="308.04" y="320.02" xlink:href="#hd"/>
<path d="M304.54 320.02v21.20" class="stroke"/>
<path class="fill"
	d="M336.14 279.82l76.10 0.00v3.20l-76.10 -0.00"/>
<path class="fill"
	d="M336.54 284.82l75.50 0.00v3.20l-75.50 -0.00"/>
<use x="333.04" y="311.02" xlink:href="#hd"/>
<path d="M336.54 311.02v-30.20" class="stroke"/>
<use x="347.04" y="314.02" xlink:href="#hd"/>
<path d="M350.54 314.02v-33.20" class="stroke"/>
<use x="362.44" y="311.02" xlink:href="#hd"/>
<path d="M365.94 311.02v-30.20" class="stroke"/>
<use x="376.44" y="308.02" xlink:href="#hd"/>
<path d="M379.94 308.02v-27.20" class="stroke"/>
<use x="390.44" y="305.02" xlink:href="#hd"/>
<path d="M393.94 305.02v-24.20" class="stroke"/>
<use x="408.44" y="302.02" xlink:href="#hd"/>
<use x="399.44" y="302.02" xlink:href="#sh0"/>
<path d="M411.94 302.02v-21.20" class="stroke"/>
<use x="433.44" y="299.02" xlink:href="#hd"/>
<path d="M429.94 299.02v21.00" class="stroke"/>
<use x="489.54" y="308.02" xlink:href="#r8"/>
<use x="517.74" y="305.02" xlink:href="#hd"/>
<path d="M514.24 305.02v25.00" class="stroke"/>
<use x="517.74" y="311.02" xlink:href="#hd"/>
<use x="573.84" y="299.02" xlink:href="#hd"/>
<path d="M570.34 299.02v25.00" class="stroke"/>
<path class="fill"
	d="M570.34 324.02c0.6 -5.6 9.6 -9 5.6 -18.4
	1.6 6 -1.3 11.6 -5.6 12.8
"/>
<use x="573.84" y="305.02" xlink:href="#hd"/>
<use x="612.84" y="299.02" xlink:href="#hd"/>
<path d="M609.34 299.02v31.00" class="stroke"/>
<use x="612.84" y="311.02" xlink:href="#hd"/>
<use x="668.84" y="305.02" xlink:href="#hd"/>
<path d="M665.34 305.02v25.00" class="stroke"/>
<path class="fill"
	d="M665.34 330.02c0.6 -5.6 9.6 -9 5.6 -18.4
	1.6 6 -1.3 11.6 -5.6 12.8
"/>
<use x="668.84" y="311.02" xlink:href="#hd"/>
<use x="707.84" y="302.02" xlink:href="#hd"/>
<path d="M704.34 302.02v21.00" class="stroke"/>
<use x="763.94" y="299.02" xlink:href="#hd"/>
<path d="M760.44 299.02v21.00" class="stroke"/>
<path class="fill"
	d="M760.44 320.02c0.6 -5.6 9.6 -9 5.6 -18.4
	1.6 6 -1.3 11.6 -5.6 12.8
"/>
<path class="fill"
	d="M806.04 291.72l39.30 9.50v3.20l-39.30 -9.50"/>
<use x="802.94" y="311.02" xlink:href="#hd"/>
<path d="M806.44 311.02v-18.20" class="stroke"/>
<use x="822.24" y="320.02" xlink:href="#hd"/>
<path d="M825.74 320.02v-22.50" class="stroke"/>
<use x="841.54" y="326.02" xlink:href="#hl"/>
<use x="841.54" y="332.02" xlink:href="#hl"/>
<use x="841.54" y="332.02" xlink:href="#hd"/>
<path d="M845.04 332.02v-29.90" class="stroke"/>
<defs>
<text id="trl" font-family="serif" font-size="16" font-style="italic"
	x="-2" y="-4">tr</text>
</defs>
<use x="362.44" y="232.02" xlink:href="#trl"/>
</g>
</svg>
