<?xml version="1.0" standalone="no"?>
<!DOCTYPE svg PUBLIC "-//W3C//DTD SVG 1.1//EN"
	"http://www.w3.org/Graphics/SVG/1.1/DTD/svg11.dtd">
<svg xmlns="http://www.w3.org/2000/svg" version="1.1"
	xmlns:xlink="http://www.w3.org/1999/xlink"
	color="black"
	width="757.10px" height="293.80px">
<style type="text/css">
.fill {fill: currentColor}
.stroke {stroke: currentColor; fill: none}
text{white-space: pre}
</style>
<title>./K516f-8-5-11-5-3-10-6-10-4-10-10-6-12-2-8-8.abc (2101) tune 1</title>
<!-- Creator: abcm2ps-8.13.8 -->
<!-- CreationDate: Sep  7, 2017 11:20 -->
<!-- CommandLine: ./K516f-8-5-11-5-3-10-6-10-4-10-10-6-12-2-8-8.abc -O ./K516f-8-5-11-5-3-10-6-10-4-10-10-6-12-2-8-8.svg -g -->
<rect width="100%" height="100%" fill="white"/>
<g stroke-width="0.70" transform="scale(0.867)">
<!-- title: 8-5-11-5-3-10-6-10-4-10-10-6-12-2-8-8 -->
</g>
<g stroke-width="0.70" transform="scale(0.867)" font-family="Times" font-size="20.00">
<text x="436.84" y="22.00" text-anchor="middle">8-5-11-5-3-10-6-10-4-10-10-6-12-2-8-8</text>
</g>
<g stroke-width="0.70" transform="scale(0.867)" font-family="Times" font-size="20.00">
<!-- subtitle: $1K.516f::152:17:165:85:146:129:36:123:66:77:19:125:12:49:89:172::$0 -->
</g>
<g stroke-width="0.70" transform="scale(0.867)" font-family="Courier" font-size="8.00" font-weight="bold">
<text x="436.84" y="41.80" text-anchor="middle">K.516f::152:17:165:85:146:129:36:123:66:77:19:125:12:49:89:172::</text>
</g>
<g stroke-width="0.70" transform="scale(0.867)" font-family="Courier" font-size="8.00" font-weight="bold">
<!-- subtitle: $1Perm. No.: 210113765089433$0 -->
<text x="436.84" y="60.80" text-anchor="middle">Perm. No.: 210113765089433</text>
</g>
<g stroke-width="0.70" transform="scale(0.607)" font-family="Courier" font-size="8.00" font-weight="bold">
<defs>
<ellipse id="hd" rx="4.1" ry="2.9"
	transform="rotate(-20)" class="fill"/>
</defs>
<use x="103.06" y="121.29" xlink:href="#hd"/>
<path d="M106.56 121.29v-21.00" class="stroke"/>
<path class="fill"
	d="M106.56 100.29c0.6 5.6 9.6 9 5.6 18.4
	1.6 -6 -1.3 -11.6 -5.6 -12.8
"/>
</g>
<g stroke-width="0.70" transform="scale(0.867)" font-family="Times" font-size="15.00" font-weight="bold">
<text x="81.24" y="87.00">= 111</text>
<path class="stroke" stroke-width="1"
	d="M11.54 183.00v-82.00"/>
<path class="fill"
	d="M6.54 98.00
	c10.5 1 12 -4.5 12 -3.5c0 1 -3.5 5.5 -8.5 5.5
	v84.00
	c5 0 8.5 4.5 8.5 5.5c0 1 -1.5 -4.5 -12 -3.5"/>
<defs>
<g id="rdots" class="fill">
	<circle cx="0" cy="-9" r="1.2"/>
	<circle cx="0" cy="-15" r="1.2"/>
</g>
</defs>
<use x="70.54" y="125.00" xlink:href="#rdots"/>
<path class="stroke" stroke-width="1"
	d="M66.54 125.00v-24.00"/>
<path class="stroke" stroke-width="3"
	d="M62.04 125.00v-24.00"/>
<use x="70.54" y="183.00" xlink:href="#rdots"/>
<path class="stroke" stroke-width="1"
	d="M66.54 183.00v-58.00"/>
<path class="stroke" stroke-width="3"
	d="M62.04 183.00v-58.00"/>
<path class="stroke" stroke-width="1"
	d="M175.14 125.00v-24.00"/>
<path class="stroke" stroke-width="1"
	d="M175.14 183.00v-58.00"/>
<path class="stroke" stroke-width="1"
	d="M288.84 125.00v-24.00"/>
<path class="stroke" stroke-width="1"
	d="M288.84 183.00v-58.00"/>
<path class="stroke" stroke-width="1"
	d="M370.54 125.00v-24.00"/>
<path class="stroke" stroke-width="1"
	d="M370.54 183.00v-58.00"/>
<path class="stroke" stroke-width="1"
	d="M452.14 125.00v-24.00"/>
<path class="stroke" stroke-width="1"
	d="M452.14 183.00v-58.00"/>
<path class="stroke" stroke-width="1"
	d="M538.74 125.00v-24.00"/>
<path class="stroke" stroke-width="1"
	d="M538.74 183.00v-58.00"/>
<path class="stroke" stroke-width="1"
	d="M641.44 125.00v-24.00"/>
<path class="stroke" stroke-width="1"
	d="M641.44 183.00v-58.00"/>
<path class="stroke" stroke-width="1"
	d="M755.84 125.00v-24.00"/>
<path class="stroke" stroke-width="1"
	d="M755.84 183.00v-58.00"/>
<path class="stroke" stroke-width="3"
	d="M860.54 125.00v-24.00"/>
<path class="stroke" stroke-width="1"
	d="M856.04 125.00v-24.00"/>
<use x="852.04" y="125.00" xlink:href="#rdots"/>
<path class="stroke" stroke-width="3"
	d="M860.54 183.00v-58.00"/>
<path class="stroke" stroke-width="1"
	d="M856.04 183.00v-58.00"/>
<use x="852.04" y="183.00" xlink:href="#rdots"/>
<path d="m11.54 125.00
	h850.50
	M11.54 119.00
	h850.50
	M11.54 113.00
	h850.50
	M11.54 107.00
	h850.50
	M11.54 101.00
	h850.50
	" class="stroke"/>
<path d="m11.54 183.00
	h850.50
	M11.54 177.00
	h850.50
	M11.54 171.00
	h850.50
	M11.54 165.00
	h850.50
	M11.54 159.00
	h850.50
	" class="stroke"/>
<path class="fill"
	d="M306.54 103.40c6.97 -3.03 37.91 2.21 44.87 7.60
	v-0.24c-8.32 -7.14 -36.56 -12.38 -44.87 -7.36"/>
</g>
<g stroke-width="0.70" transform="scale(0.867)" font-family="Times" font-size="13.00">
<text x="759.84" y="86.40">1</text>
<path class="stroke"
	d="M755.84 75.00m0 20v-20h98.20v20"/>
<defs>
<path id="utclef" class="fill" d="m-50 -90
	c-72 -41 -72 -158 52 -188
	150 -10 220 188 90 256
	-114 52 -275 0 -293 -136
	-15 -181 93 -229 220 -334
	88 -87 79 -133 62 -210
	-51 33 -94 105 -89 186
	17 267 36 374 49 574
	6 96 -19 134 -77 135
	-80 1 -126 -93 -61 -133
	85 -41 133 101 31 105
	23 17 92 37 90 -92
	-10 -223 -39 -342 -50 -617
	0 -90 0 -162 96 -232
	56 72 63 230 22 289
	-74 106 -257 168 -255 316
	9 153 148 185 252 133
	86 -65 29 -192 -80 -176
	-71 12 -105 67 -59 124"/>
<use id="tclef" transform="translate(0,6) scale(0.045)"
	xlink:href="#utclef"/>
</defs>
<use x="23.54" y="119.00" xlink:href="#tclef"/>
<g font-family="serif" font-size="16" font-weight="bold" font-style="normal"
	transform="translate(42.04,124.50) scale(1.2,1)">
	<text text-anchor="middle">8</text>
	<text y="-12" text-anchor="middle">3</text>
</g>
<path class="fill"
	d="M81.34 122.90l77.00 9.30v-3.20l-77.00 -9.30"/>
<path class="fill"
	d="M106.14 120.90l51.90 6.30v-3.20l-51.90 -6.30"/>
<use x="85.24" y="98.00" xlink:href="#hd"/>
<path d="M81.74 98.00v24.00" class="stroke"/>
<use x="109.64" y="101.00" xlink:href="#hd"/>
<path d="M106.14 101.00v23.90" class="stroke"/>
<use x="126.94" y="104.00" xlink:href="#hd"/>
<path d="M123.44 104.00v23.00" class="stroke"/>
<use x="144.24" y="107.00" xlink:href="#hd"/>
<path d="M140.74 107.00v22.10" class="stroke"/>
<use x="161.54" y="110.00" xlink:href="#hd"/>
<path d="M158.04 110.00v21.20" class="stroke"/>
<path class="fill"
	d="M184.94 141.20l87.20 0.00v-3.20l-87.20 -0.00"/>
<path class="fill"
	d="M185.34 136.20l86.50 0.00v-3.20l-86.50 -0.00"/>
<use x="188.84" y="110.00" xlink:href="#hd"/>
<path d="M185.34 110.00v30.20" class="stroke"/>
<use x="206.14" y="119.00" xlink:href="#hd"/>
<path d="M202.64 119.00v21.20" class="stroke"/>
<use x="223.44" y="110.00" xlink:href="#hd"/>
<path d="M219.94 110.00v30.20" class="stroke"/>
<use x="240.74" y="104.00" xlink:href="#hd"/>
<path d="M237.24 104.00v36.20" class="stroke"/>
<use x="258.04" y="119.00" xlink:href="#hd"/>
<path d="M254.54 119.00v21.20" class="stroke"/>
<use x="275.34" y="110.00" xlink:href="#hd"/>
<path d="M271.84 110.00v30.20" class="stroke"/>
<path class="fill"
	d="M298.74 130.10l49.60 8.20v-3.20l-49.60 -8.20"/>
<use x="302.54" y="107.00" xlink:href="#hd"/>
<path d="M299.04 107.00v22.20" class="stroke"/>
<use x="327.04" y="113.00" xlink:href="#hd"/>
<path d="M323.54 113.00v20.20" class="stroke"/>
<use x="351.44" y="119.00" xlink:href="#hd"/>
<path d="M347.94 119.00v18.20" class="stroke"/>
<path class="fill"
	d="M380.34 133.70l49.60 4.50v-3.20l-49.60 -4.50"/>
<use x="384.24" y="110.00" xlink:href="#hd"/>
<path d="M380.74 110.00v22.80" class="stroke"/>
<use x="408.64" y="104.00" xlink:href="#hd"/>
<path d="M405.14 104.00v31.00" class="stroke"/>
<use x="433.04" y="119.00" xlink:href="#hd"/>
<path d="M429.54 119.00v18.20" class="stroke"/>
<path class="fill"
	d="M466.84 139.30l49.70 -8.40v-3.20l-49.70 8.40"/>
<use x="470.64" y="107.00" xlink:href="#hd"/>
<path d="M467.14 107.00v31.20" class="stroke"/>
<use x="470.64" y="122.00" xlink:href="#hd"/>
<defs>
<path id="usharp" class="fill" d="
	m136 -702
	v890
	h32
	v-890
	m128 840
	h32
	v-888
	h-32
	m-232 286
	v116
	l338 -96
	v-116
	m-338 442
	v116
	l338 -98
	v-114"/>
<use id="sh0" transform="translate(-4,5) scale(0.018)"
	xlink:href="#usharp"/>
</defs>
<use x="461.64" y="122.00" xlink:href="#sh0"/>
<use x="495.24" y="101.00" xlink:href="#hd"/>
<use x="486.24" y="101.00" xlink:href="#sh0"/>
<path d="M491.74 101.00v33.00" class="stroke"/>
<use x="495.24" y="107.00" xlink:href="#hd"/>
<defs>
<path id="hl" class="stroke" d="m-6 0h12"/>
</defs>
<use x="519.64" y="95.00" xlink:href="#hl"/>
<use x="519.64" y="95.00" xlink:href="#hd"/>
<path d="M516.14 95.00v34.90" class="stroke"/>
<use x="519.64" y="101.00" xlink:href="#hd"/>
<path class="fill"
	d="M548.54 121.20l70.60 5.00v-3.20l-70.60 -5.00"/>
<path class="fill"
	d="M548.94 116.30l52.60 3.70v-3.20l-52.60 -3.70"/>
<use x="552.44" y="95.00" xlink:href="#hl"/>
<use x="552.44" y="95.00" xlink:href="#hd"/>
<path d="M548.94 95.00v25.30" class="stroke"/>
<use x="569.74" y="98.00" xlink:href="#hd"/>
<path d="M566.24 98.00v23.50" class="stroke"/>
<use x="587.74" y="101.00" xlink:href="#hd"/>
<use x="578.74" y="101.00" xlink:href="#sh0"/>
<path d="M584.24 101.00v21.80" class="stroke"/>
<use x="605.04" y="98.00" xlink:href="#hd"/>
<path d="M601.54 98.00v26.00" class="stroke"/>
<use x="622.34" y="107.00" xlink:href="#hd"/>
<path d="M618.84 107.00v18.20" class="stroke"/>
<path class="fill"
	d="M651.24 138.20l87.90 -8.50v-3.20l-87.90 8.50"/>
<path class="fill"
	d="M651.64 133.20l87.20 -8.50v-3.20l-87.20 8.50"/>
<use x="655.14" y="116.00" xlink:href="#hd"/>
<path d="M651.64 116.00v21.20" class="stroke"/>
<use x="672.44" y="104.00" xlink:href="#hd"/>
<path d="M668.94 104.00v31.50" class="stroke"/>
<use x="689.74" y="107.00" xlink:href="#hd"/>
<path d="M686.24 107.00v26.80" class="stroke"/>
<use x="707.04" y="98.00" xlink:href="#hd"/>
<path d="M703.54 98.00v34.20" class="stroke"/>
<use x="725.04" y="101.00" xlink:href="#hd"/>
<use x="716.04" y="101.00" xlink:href="#sh0"/>
<path d="M721.54 101.00v29.40" class="stroke"/>
<use x="742.34" y="95.00" xlink:href="#hl"/>
<use x="742.34" y="95.00" xlink:href="#hd"/>
<path d="M738.84 95.00v33.70" class="stroke"/>
<use x="769.54" y="98.00" xlink:href="#hd"/>
<path d="M766.04 98.00v40.00" class="stroke"/>
<use x="769.54" y="119.00" xlink:href="#hd"/>
<use x="769.54" y="113.00" xlink:href="#hd"/>
<use x="769.54" y="107.00" xlink:href="#hd"/>
<defs>
<path id="r8e" class="fill" d="m 0 0
	c-1.5 1.5 -2.4 2 -3.6 2
	2.4 -2.8 -2.8 -4 -2.8 -1.2
	c0 2.7 4.3 2.4 5.9 0.6"/>
<g id="r8">
	<path d="m3.3 -4l-3.4 9.6" class="stroke"/>
	<use x="3.4" y="-4" xlink:href="#r8e"/>
</g>
</defs>
<use x="829.34" y="113.00" xlink:href="#r8"/>
<defs>
<path id="ubclef" class="fill" d="m-200 -87
	c124 -35 222 -78 254 -236
	43 -228 -167 -246 -192 -103
	59 -80 157 22 92 78
	-62 47 -115 -22 -106 -88
	21 -141 270 -136 274 52
	-1 175 -106 264 -322 297
	m357 -250
	c0 -36 51 -34 51 0
	0 37 -51 36 -51 0
	m-2 -129
	c0 -36 51 -34 51 0
	0 38 -51 37 -51 0"/>
<use id="bclef" transform="translate(0,18) scale(0.045)"
	xlink:href="#ubclef"/>
</defs>
<use x="23.54" y="165.00" xlink:href="#bclef"/>
<g font-family="serif" font-size="16" font-weight="bold" font-style="normal"
	transform="translate(42.04,182.50) scale(1.2,1)">
	<text text-anchor="middle">8</text>
	<text y="-12" text-anchor="middle">3</text>
</g>
<use x="85.24" y="168.00" xlink:href="#hd"/>
<path d="M81.74 168.00v25.00" class="stroke"/>
<use x="85.24" y="174.00" xlink:href="#hd"/>
<use x="144.24" y="171.00" xlink:href="#r8"/>
<use x="188.84" y="162.00" xlink:href="#hd"/>
<path d="M185.34 162.00v25.00" class="stroke"/>
<use x="188.84" y="168.00" xlink:href="#hd"/>
<use x="258.04" y="171.00" xlink:href="#r8"/>
<use x="302.54" y="177.00" xlink:href="#hd"/>
<path d="M306.04 177.00v-21.00" class="stroke"/>
<use x="351.44" y="171.00" xlink:href="#r8"/>
<use x="384.24" y="162.00" xlink:href="#hd"/>
<path d="M380.74 162.00v25.00" class="stroke"/>
<use x="384.24" y="168.00" xlink:href="#hd"/>
<use x="433.04" y="171.00" xlink:href="#r8"/>
<path class="fill"
	d="M473.84 153.00l49.70 0.00v3.20l-49.70 -0.00"/>
<use x="470.64" y="174.00" xlink:href="#hd"/>
<path d="M474.14 174.00v-20.00" class="stroke"/>
<use x="495.24" y="174.00" xlink:href="#hd"/>
<path d="M498.74 174.00v-20.00" class="stroke"/>
<use x="519.64" y="174.00" xlink:href="#hd"/>
<path d="M523.14 174.00v-20.00" class="stroke"/>
<path class="fill"
	d="M555.54 149.50l70.60 -4.70v3.20l-70.60 4.70"/>
<use x="552.44" y="177.00" xlink:href="#hd"/>
<path d="M555.94 177.00v-26.50" class="stroke"/>
<use x="552.44" y="171.00" xlink:href="#hd"/>
<use x="587.74" y="177.00" xlink:href="#hd"/>
<path d="M591.24 177.00v-28.90" class="stroke"/>
<use x="587.74" y="171.00" xlink:href="#hd"/>
<use x="622.34" y="177.00" xlink:href="#hd"/>
<path d="M625.84 177.00v-31.20" class="stroke"/>
<use x="622.34" y="162.00" xlink:href="#hd"/>
<path class="fill"
	d="M658.24 147.70l70.60 8.40v3.20l-70.60 -8.40"/>
<use x="655.14" y="174.00" xlink:href="#hd"/>
<path d="M658.64 174.00v-25.30" class="stroke"/>
<use x="689.74" y="171.00" xlink:href="#hd"/>
<path d="M693.24 171.00v-18.20" class="stroke"/>
<use x="725.04" y="189.00" xlink:href="#hl"/>
<use x="725.04" y="192.00" xlink:href="#hd"/>
<path d="M728.54 192.00v-35.00" class="stroke"/>
<path class="fill"
	d="M765.74 202.20l77.70 0.00v-3.20l-77.70 -0.00"/>
<path class="fill"
	d="M790.54 197.20l52.60 0.00v-3.20l-52.60 -0.00"/>
<use x="769.54" y="183.00" xlink:href="#hd"/>
<path d="M766.04 183.00v18.20" class="stroke"/>
<use x="794.04" y="162.00" xlink:href="#hd"/>
<path d="M790.54 162.00v39.20" class="stroke"/>
<use x="812.04" y="165.00" xlink:href="#hd"/>
<defs>
<path id="unat" class="fill" d="
	m96 -750
	h-32
	v716
	l32 -8
	182 -54
	v282
	h32
	v-706
	l-34 10
	-180 50
	v-290
	m0 592
	v-190
	l182 -52
	v188"/>
<use id="nt0" transform="translate(-3,5) scale(0.018)"
	xlink:href="#unat"/>
</defs>
<use x="803.04" y="165.00" xlink:href="#nt0"/>
<path d="M808.54 165.00v36.20" class="stroke"/>
<use x="829.34" y="168.00" xlink:href="#hd"/>
<path d="M825.84 168.00v33.20" class="stroke"/>
<use x="846.64" y="171.00" xlink:href="#hd"/>
<path d="M843.14 171.00v30.20" class="stroke"/>
</g>
<g stroke-width="0.70" transform="scale(0.867)" font-family="Times" font-size="13.00">
<path class="stroke" stroke-width="1"
	d="M11.54 316.00v-82.00"/>
<path class="fill"
	d="M6.54 231.00
	c10.5 1 12 -4.5 12 -3.5c0 1 -3.5 5.5 -8.5 5.5
	v84.00
	c5 0 8.5 4.5 8.5 5.5c0 1 -1.5 -4.5 -12 -3.5"/>
<use x="149.84" y="258.00" xlink:href="#rdots"/>
<path class="stroke" stroke-width="1"
	d="M145.84 258.00v-24.00"/>
<path class="stroke" stroke-width="3"
	d="M141.34 258.00v-24.00"/>
<use x="149.84" y="316.00" xlink:href="#rdots"/>
<path class="stroke" stroke-width="1"
	d="M145.84 316.00v-58.00"/>
<path class="stroke" stroke-width="3"
	d="M141.34 316.00v-58.00"/>
<path class="stroke" stroke-width="1"
	d="M240.14 258.00v-24.00"/>
<path class="stroke" stroke-width="1"
	d="M240.14 316.00v-58.00"/>
<path class="stroke" stroke-width="1"
	d="M327.04 258.00v-24.00"/>
<path class="stroke" stroke-width="1"
	d="M327.04 316.00v-58.00"/>
<path class="stroke" stroke-width="1"
	d="M413.84 258.00v-24.00"/>
<path class="stroke" stroke-width="1"
	d="M413.84 316.00v-58.00"/>
<path class="stroke" stroke-width="1"
	d="M510.34 258.00v-24.00"/>
<path class="stroke" stroke-width="1"
	d="M510.34 316.00v-58.00"/>
<path class="stroke" stroke-width="1"
	d="M587.54 258.00v-24.00"/>
<path class="stroke" stroke-width="1"
	d="M587.54 316.00v-58.00"/>
<path class="stroke" stroke-width="1"
	d="M695.24 258.00v-24.00"/>
<path class="stroke" stroke-width="1"
	d="M695.24 316.00v-58.00"/>
<path class="stroke" stroke-width="1"
	d="M782.14 258.00v-24.00"/>
<path class="stroke" stroke-width="1"
	d="M782.14 316.00v-58.00"/>
<path class="stroke" stroke-width="3"
	d="M860.54 258.00v-24.00"/>
<path class="stroke" stroke-width="1"
	d="M856.04 258.00v-24.00"/>
<use x="852.04" y="258.00" xlink:href="#rdots"/>
<path class="stroke" stroke-width="3"
	d="M860.54 316.00v-58.00"/>
<path class="stroke" stroke-width="1"
	d="M856.04 316.00v-58.00"/>
<use x="852.04" y="316.00" xlink:href="#rdots"/>
<path d="m11.54 258.00
	h850.50
	M11.54 252.00
	h850.50
	M11.54 246.00
	h850.50
	M11.54 240.00
	h850.50
	M11.54 234.00
	h850.50
	" class="stroke"/>
<path d="m11.54 316.00
	h850.50
	M11.54 310.00
	h850.50
	M11.54 304.00
	h850.50
	M11.54 298.00
	h850.50
	M11.54 292.00
	h850.50
	" class="stroke"/>
<path class="fill"
	d="M604.54 233.40c9.08 -3.31 52.35 2.05 61.43 7.60
	v-0.26c-10.93 -7.29 -50.50 -12.64 -61.43 -7.34"/>
<text x="47.54" y="219.40">2</text>
<path class="stroke"
	d="M43.54 208.00m0 20v-20h95.30v20"/>
<use x="23.54" y="252.00" xlink:href="#tclef"/>
<use x="56.54" y="231.00" xlink:href="#hd"/>
<path d="M53.04 231.00v40.00" class="stroke"/>
<use x="56.54" y="252.00" xlink:href="#hd"/>
<use x="56.54" y="246.00" xlink:href="#hd"/>
<use x="56.54" y="240.00" xlink:href="#hd"/>
<use x="113.94" y="246.00" xlink:href="#r8"/>
<path class="fill"
	d="M165.44 252.20l47.00 0.00v-3.20l-47.00 -0.00"/>
<use x="169.34" y="234.00" xlink:href="#hd"/>
<use x="160.34" y="234.00" xlink:href="#sh0"/>
<path d="M165.84 234.00v17.20" class="stroke"/>
<use x="192.64" y="228.00" xlink:href="#hl"/>
<use x="192.64" y="228.00" xlink:href="#hd"/>
<path d="M189.14 228.00v23.20" class="stroke"/>
<use x="215.64" y="234.00" xlink:href="#hd"/>
<path d="M212.14 234.00v17.20" class="stroke"/>
<path class="fill"
	d="M249.34 254.10l56.40 5.10v-3.20l-56.40 -5.10"/>
<path class="fill"
	d="M249.64 249.20l16.40 1.50v-3.20l-16.40 -1.50"/>
<use x="253.14" y="231.00" xlink:href="#hd"/>
<path d="M249.64 231.00v22.20" class="stroke"/>
<use x="269.54" y="228.00" xlink:href="#hl"/>
<use x="269.54" y="225.00" xlink:href="#hd"/>
<path d="M266.04 225.00v29.60" class="stroke"/>
<use x="285.84" y="231.00" xlink:href="#hd"/>
<path d="M282.34 231.00v25.10" class="stroke"/>
<use x="308.94" y="240.00" xlink:href="#hd"/>
<path d="M305.44 240.00v18.20" class="stroke"/>
<path class="fill"
	d="M336.14 266.50l56.40 -4.20v-3.20l-56.40 4.20"/>
<path class="fill"
	d="M336.54 261.40l16.40 -1.20v-3.20l-16.40 1.20"/>
<use x="340.04" y="237.00" xlink:href="#hd"/>
<path d="M336.54 237.00v28.40" class="stroke"/>
<use x="356.34" y="243.00" xlink:href="#hd"/>
<path d="M352.84 243.00v21.20" class="stroke"/>
<use x="372.74" y="237.00" xlink:href="#hd"/>
<path d="M369.24 237.00v26.00" class="stroke"/>
<use x="395.74" y="231.00" xlink:href="#hd"/>
<path d="M392.24 231.00v30.30" class="stroke"/>
<path class="fill"
	d="M423.04 262.20l66.10 9.00v-3.20l-66.10 -9.00"/>
<path class="fill"
	d="M423.34 257.30l49.10 6.70v-3.20l-49.10 -6.70"/>
<use x="426.84" y="231.00" xlink:href="#hd"/>
<path d="M423.34 231.00v30.30" class="stroke"/>
<use x="443.24" y="237.00" xlink:href="#hd"/>
<path d="M439.74 237.00v26.50" class="stroke"/>
<use x="459.54" y="240.00" xlink:href="#hd"/>
<path d="M456.04 240.00v25.70" class="stroke"/>
<use x="475.94" y="246.00" xlink:href="#hd"/>
<path d="M472.44 246.00v22.00" class="stroke"/>
<use x="492.34" y="252.00" xlink:href="#hd"/>
<path d="M488.84 252.00v18.20" class="stroke"/>
<path class="fill"
	d="M526.54 224.00l46.70 0.00v3.20l-46.70 -0.00"/>
<use x="523.44" y="258.00" xlink:href="#hd"/>
<path d="M526.94 258.00v-33.00" class="stroke"/>
<use x="523.44" y="243.00" xlink:href="#hd"/>
<use x="546.44" y="258.00" xlink:href="#hd"/>
<path d="M549.94 258.00v-33.00" class="stroke"/>
<use x="546.44" y="243.00" xlink:href="#hd"/>
<use x="569.44" y="258.00" xlink:href="#hd"/>
<path d="M572.94 258.00v-33.00" class="stroke"/>
<use x="569.44" y="243.00" xlink:href="#hd"/>
<path class="fill"
	d="M596.74 264.10l66.10 7.10v-3.20l-66.10 -7.10"/>
<use x="600.54" y="237.00" xlink:href="#hd"/>
<path d="M597.04 237.00v26.10" class="stroke"/>
<use x="633.24" y="243.00" xlink:href="#hd"/>
<path d="M629.74 243.00v23.70" class="stroke"/>
<use x="666.04" y="252.00" xlink:href="#hd"/>
<path d="M662.54 252.00v18.20" class="stroke"/>
<path class="fill"
	d="M704.44 260.00l56.40 0.00v-3.20l-56.40 -0.00"/>
<path class="fill"
	d="M704.74 255.00l16.40 0.00v-3.20l-16.40 -0.00"/>
<use x="708.24" y="234.00" xlink:href="#hd"/>
<path d="M704.74 234.00v25.00" class="stroke"/>
<use x="724.64" y="237.00" xlink:href="#hd"/>
<path d="M721.14 237.00v22.00" class="stroke"/>
<use x="740.94" y="240.00" xlink:href="#hd"/>
<path d="M737.44 240.00v19.00" class="stroke"/>
<use x="764.04" y="231.00" xlink:href="#hd"/>
<path d="M760.54 231.00v28.00" class="stroke"/>
<use x="795.14" y="243.00" xlink:href="#hd"/>
<path d="M791.64 243.00v21.00" class="stroke"/>
<use x="841.24" y="246.00" xlink:href="#r8"/>
<use x="23.54" y="298.00" xlink:href="#bclef"/>
<path class="fill"
	d="M52.74 335.20l74.40 -5.20v-3.20l-74.40 5.20"/>
<path class="fill"
	d="M76.14 328.60l50.70 -3.60v-3.20l-50.70 3.60"/>
<use x="56.54" y="316.00" xlink:href="#hd"/>
<path d="M53.04 316.00v18.20" class="stroke"/>
<use x="79.64" y="289.00" xlink:href="#hd"/>
<path d="M76.14 289.00v43.60" class="stroke"/>
<use x="95.94" y="295.00" xlink:href="#hd"/>
<path d="M92.44 295.00v36.40" class="stroke"/>
<use x="113.94" y="298.00" xlink:href="#hd"/>
<use x="104.94" y="298.00" xlink:href="#sh0"/>
<path d="M110.44 298.00v32.20" class="stroke"/>
<use x="130.34" y="301.00" xlink:href="#hd"/>
<path d="M126.84 301.00v28.00" class="stroke"/>
<path class="fill"
	d="M172.44 272.70l47.00 8.00v3.20l-47.00 -8.00"/>
<use x="169.34" y="292.00" xlink:href="#hd"/>
<path d="M172.84 292.00v-18.20" class="stroke"/>
<use x="192.64" y="298.00" xlink:href="#hd"/>
<use x="183.64" y="298.00" xlink:href="#sh0"/>
<path d="M196.14 298.00v-20.20" class="stroke"/>
<use x="215.64" y="304.00" xlink:href="#hd"/>
<path d="M219.14 304.00v-22.30" class="stroke"/>
<use x="253.14" y="310.00" xlink:href="#hd"/>
<path d="M256.64 310.00v-25.00" class="stroke"/>
<use x="253.14" y="304.00" xlink:href="#hd"/>
<use x="308.94" y="295.00" xlink:href="#hd"/>
<path d="M305.44 295.00v34.00" class="stroke"/>
<path class="fill"
	d="M305.44 329.00c0.6 -5.6 9.6 -9 5.6 -18.4
	1.6 6 -1.3 11.6 -5.6 12.8
"/>
<use x="308.94" y="310.00" xlink:href="#hd"/>
<use x="340.04" y="295.00" xlink:href="#hd"/>
<path d="M336.54 295.00v31.00" class="stroke"/>
<use x="340.04" y="307.00" xlink:href="#hd"/>
<use x="395.74" y="301.00" xlink:href="#hd"/>
<path d="M392.24 301.00v25.00" class="stroke"/>
<path class="fill"
	d="M392.24 326.00c0.6 -5.6 9.6 -9 5.6 -18.4
	1.6 6 -1.3 11.6 -5.6 12.8
"/>
<use x="395.74" y="307.00" xlink:href="#hd"/>
<path class="fill"
	d="M430.04 275.70l33.40 9.40v3.20l-33.40 -9.40"/>
<use x="426.84" y="295.00" xlink:href="#hd"/>
<path d="M430.34 295.00v-18.20" class="stroke"/>
<use x="459.54" y="316.00" xlink:href="#hd"/>
<path d="M463.04 316.00v-30.00" class="stroke"/>
<use x="492.34" y="304.00" xlink:href="#r8"/>
<path class="fill"
	d="M526.54 286.00l46.70 0.00v3.20l-46.70 -0.00"/>
<use x="523.44" y="307.00" xlink:href="#hd"/>
<path d="M526.94 307.00v-20.00" class="stroke"/>
<use x="546.44" y="307.00" xlink:href="#hd"/>
<path d="M549.94 307.00v-20.00" class="stroke"/>
<use x="569.44" y="307.00" xlink:href="#hd"/>
<path d="M572.94 307.00v-20.00" class="stroke"/>
<path class="fill"
	d="M596.74 323.90l82.50 0.00v-3.20l-82.50 -0.00"/>
<path class="fill"
	d="M597.04 318.90l81.80 0.00v-3.20l-81.80 -0.00"/>
<use x="600.54" y="301.00" xlink:href="#hd"/>
<path d="M597.04 301.00v21.90" class="stroke"/>
<use x="600.54" y="307.00" xlink:href="#hd"/>
<use x="616.94" y="295.00" xlink:href="#hd"/>
<path d="M613.44 295.00v27.90" class="stroke"/>
<use x="633.24" y="301.00" xlink:href="#hd"/>
<path d="M629.74 301.00v21.90" class="stroke"/>
<use x="633.24" y="307.00" xlink:href="#hd"/>
<use x="649.64" y="295.00" xlink:href="#hd"/>
<path d="M646.14 295.00v27.90" class="stroke"/>
<use x="666.04" y="301.00" xlink:href="#hd"/>
<path d="M662.54 301.00v21.90" class="stroke"/>
<use x="666.04" y="307.00" xlink:href="#hd"/>
<use x="682.34" y="295.00" xlink:href="#hd"/>
<path d="M678.84 295.00v27.90" class="stroke"/>
<path class="fill"
	d="M704.44 323.90l56.40 0.00v-3.20l-56.40 -0.00"/>
<path class="fill"
	d="M704.74 318.90l16.40 0.00v-3.20l-16.40 -0.00"/>
<use x="708.24" y="298.00" xlink:href="#hd"/>
<path d="M704.74 298.00v24.90" class="stroke"/>
<use x="724.64" y="301.00" xlink:href="#hd"/>
<path d="M721.14 301.00v21.90" class="stroke"/>
<use x="740.94" y="304.00" xlink:href="#hd"/>
<path d="M737.44 304.00v18.90" class="stroke"/>
<use x="764.04" y="295.00" xlink:href="#hd"/>
<path d="M760.54 295.00v27.90" class="stroke"/>
<path class="fill"
	d="M798.24 287.70l46.70 10.30v3.20l-46.70 -10.30"/>
<use x="795.14" y="307.00" xlink:href="#hd"/>
<path d="M798.64 307.00v-18.20" class="stroke"/>
<use x="818.14" y="316.00" xlink:href="#hd"/>
<path d="M821.64 316.00v-22.10" class="stroke"/>
<use x="841.24" y="322.00" xlink:href="#hl"/>
<use x="841.24" y="328.00" xlink:href="#hl"/>
<use x="841.24" y="328.00" xlink:href="#hd"/>
<path d="M844.74 328.00v-29.10" class="stroke"/>
<path class="fill"
	d="M165.44 326.20l55.00 0.00v-3.20l-55.00 -0.00"/>
<use x="169.34" y="304.00" xlink:href="#hd"/>
<path d="M165.84 304.00v21.20" class="stroke"/>
<use x="192.64" y="304.00" xlink:href="#hd"/>
<path d="M189.14 304.00v21.20" class="stroke"/>
<use x="223.64" y="307.00" xlink:href="#hd"/>
<path d="M220.14 307.00v18.20" class="stroke"/>
</g>
</svg>
