<?xml version="1.0" standalone="no"?>
<!DOCTYPE svg PUBLIC "-//W3C//DTD SVG 1.1//EN"
	"http://www.w3.org/Graphics/SVG/1.1/DTD/svg11.dtd">
<svg xmlns="http://www.w3.org/2000/svg" version="1.1"
	xmlns:xlink="http://www.w3.org/1999/xlink"
	color="black"
	width="757.10px" height="300.73px">
<style type="text/css">
.fill {fill: currentColor}
.stroke {stroke: currentColor; fill: none}
text{white-space: pre}
</style>
<title>./K516f-10-3-9-3-9-10-5-2-2-8-9-10-4-4-8-2.abc (2142) tune 1</title>
<!-- Creator: abcm2ps-8.13.8 -->
<!-- CreationDate: Sep  7, 2017 11:18 -->
<!-- CommandLine: ./K516f-10-3-9-3-9-10-5-2-2-8-9-10-4-4-8-2.abc -O ./K516f-10-3-9-3-9-10-5-2-2-8-9-10-4-4-8-2.svg -g -->
<rect width="100%" height="100%" fill="white"/>
<g stroke-width="0.70" transform="scale(0.867)">
<!-- title: 10-3-9-3-9-10-5-2-2-8-9-10-4-4-8-2 -->
</g>
<g stroke-width="0.70" transform="scale(0.867)" font-family="Times" font-size="20.00">
<text x="436.84" y="22.00" text-anchor="middle">10-3-9-3-9-10-5-2-2-8-9-10-4-4-8-2</text>
</g>
<g stroke-width="0.70" transform="scale(0.867)" font-family="Times" font-size="20.00">
<!-- subtitle: $1K.516f::98:06:114:63:140:129:159:30:70:155:48:82:73:58:89:14::$0 -->
</g>
<g stroke-width="0.70" transform="scale(0.867)" font-family="Courier" font-size="8.00" font-weight="bold">
<text x="436.84" y="41.80" text-anchor="middle">K.516f::98:06:114:63:140:129:159:30:70:155:48:82:73:58:89:14::</text>
</g>
<g stroke-width="0.70" transform="scale(0.867)" font-family="Courier" font-size="8.00" font-weight="bold">
<!-- subtitle: $1Perm. No.: 214209050849957$0 -->
<text x="436.84" y="60.80" text-anchor="middle">Perm. No.: 214209050849957</text>
</g>
<g stroke-width="0.70" transform="scale(0.607)" font-family="Courier" font-size="8.00" font-weight="bold">
<defs>
<ellipse id="hd" rx="4.1" ry="2.9"
	transform="rotate(-20)" class="fill"/>
</defs>
<use x="103.06" y="121.29" xlink:href="#hd"/>
<path d="M106.56 121.29v-21.00" class="stroke"/>
<path class="fill"
	d="M106.56 100.29c0.6 5.6 9.6 9 5.6 18.4
	1.6 -6 -1.3 -11.6 -5.6 -12.8
"/>
</g>
<g stroke-width="0.70" transform="scale(0.867)" font-family="Times" font-size="15.00" font-weight="bold">
<text x="81.24" y="87.00">= 111</text>
<path class="stroke" stroke-width="1"
	d="M11.54 183.00v-82.00"/>
<path class="fill"
	d="M6.54 98.00
	c10.5 1 12 -4.5 12 -3.5c0 1 -3.5 5.5 -8.5 5.5
	v84.00
	c5 0 8.5 4.5 8.5 5.5c0 1 -1.5 -4.5 -12 -3.5"/>
<defs>
<g id="rdots" class="fill">
	<circle cx="0" cy="-9" r="1.2"/>
	<circle cx="0" cy="-15" r="1.2"/>
</g>
</defs>
<use x="70.54" y="125.00" xlink:href="#rdots"/>
<path class="stroke" stroke-width="1"
	d="M66.54 125.00v-24.00"/>
<path class="stroke" stroke-width="3"
	d="M62.04 125.00v-24.00"/>
<use x="70.54" y="183.00" xlink:href="#rdots"/>
<path class="stroke" stroke-width="1"
	d="M66.54 183.00v-58.00"/>
<path class="stroke" stroke-width="3"
	d="M62.04 183.00v-58.00"/>
<path class="stroke" stroke-width="1"
	d="M183.94 125.00v-24.00"/>
<path class="stroke" stroke-width="1"
	d="M183.94 183.00v-58.00"/>
<path class="stroke" stroke-width="1"
	d="M264.64 125.00v-24.00"/>
<path class="stroke" stroke-width="1"
	d="M264.64 183.00v-58.00"/>
<path class="stroke" stroke-width="1"
	d="M345.34 125.00v-24.00"/>
<path class="stroke" stroke-width="1"
	d="M345.34 183.00v-58.00"/>
<path class="stroke" stroke-width="1"
	d="M446.14 125.00v-24.00"/>
<path class="stroke" stroke-width="1"
	d="M446.14 183.00v-58.00"/>
<path class="stroke" stroke-width="1"
	d="M542.74 125.00v-24.00"/>
<path class="stroke" stroke-width="1"
	d="M542.74 183.00v-58.00"/>
<path class="stroke" stroke-width="1"
	d="M644.44 125.00v-24.00"/>
<path class="stroke" stroke-width="1"
	d="M644.44 183.00v-58.00"/>
<path class="stroke" stroke-width="1"
	d="M756.94 125.00v-24.00"/>
<path class="stroke" stroke-width="1"
	d="M756.94 183.00v-58.00"/>
<path class="stroke" stroke-width="3"
	d="M860.54 125.00v-24.00"/>
<path class="stroke" stroke-width="1"
	d="M856.04 125.00v-24.00"/>
<use x="852.04" y="125.00" xlink:href="#rdots"/>
<path class="stroke" stroke-width="3"
	d="M860.54 183.00v-58.00"/>
<path class="stroke" stroke-width="1"
	d="M856.04 183.00v-58.00"/>
<use x="852.04" y="183.00" xlink:href="#rdots"/>
<path d="m11.54 125.00
	h850.50
	M11.54 119.00
	h850.50
	M11.54 113.00
	h850.50
	M11.54 107.00
	h850.50
	M11.54 101.00
	h850.50
	" class="stroke"/>
<path d="m11.54 183.00
	h850.50
	M11.54 177.00
	h850.50
	M11.54 171.00
	h850.50
	M11.54 165.00
	h850.50
	M11.54 159.00
	h850.50
	" class="stroke"/>
</g>
<g stroke-width="0.70" transform="scale(0.867)" font-family="Times" font-size="13.00">
<text x="760.94" y="86.40">1</text>
<path class="stroke"
	d="M756.94 75.00m0 20v-20h97.10v20"/>
<defs>
<path id="utclef" class="fill" d="m-50 -90
	c-72 -41 -72 -158 52 -188
	150 -10 220 188 90 256
	-114 52 -275 0 -293 -136
	-15 -181 93 -229 220 -334
	88 -87 79 -133 62 -210
	-51 33 -94 105 -89 186
	17 267 36 374 49 574
	6 96 -19 134 -77 135
	-80 1 -126 -93 -61 -133
	85 -41 133 101 31 105
	23 17 92 37 90 -92
	-10 -223 -39 -342 -50 -617
	0 -90 0 -162 96 -232
	56 72 63 230 22 289
	-74 106 -257 168 -255 316
	9 153 148 185 252 133
	86 -65 29 -192 -80 -176
	-71 12 -105 67 -59 124"/>
<use id="tclef" transform="translate(0,6) scale(0.045)"
	xlink:href="#utclef"/>
</defs>
<use x="23.54" y="119.00" xlink:href="#tclef"/>
<g font-family="serif" font-size="16" font-weight="bold" font-style="normal"
	transform="translate(42.04,124.50) scale(1.2,1)">
	<text text-anchor="middle">8</text>
	<text y="-12" text-anchor="middle">3</text>
</g>
<path class="fill"
	d="M81.24 139.80l69.10 -3.30v-3.20l-69.10 3.30"/>
<use x="85.04" y="110.00" xlink:href="#hd"/>
<path d="M81.54 110.00v28.80" class="stroke"/>
<use x="119.24" y="119.00" xlink:href="#hd"/>
<path d="M115.74 119.00v18.20" class="stroke"/>
<use x="153.44" y="104.00" xlink:href="#hd"/>
<path d="M149.94 104.00v31.60" class="stroke"/>
<path class="fill"
	d="M193.64 138.20l48.90 -6.60v-3.20l-48.90 6.60"/>
<use x="197.54" y="119.00" xlink:href="#hd"/>
<path d="M194.04 119.00v18.20" class="stroke"/>
<use x="221.64" y="110.00" xlink:href="#hd"/>
<path d="M218.14 110.00v23.90" class="stroke"/>
<use x="245.74" y="104.00" xlink:href="#hd"/>
<path d="M242.24 104.00v26.60" class="stroke"/>
<path class="fill"
	d="M274.34 132.00l48.90 0.00v-3.20l-48.90 -0.00"/>
<use x="278.24" y="107.00" xlink:href="#hd"/>
<path d="M274.74 107.00v24.00" class="stroke"/>
<use x="278.24" y="113.00" xlink:href="#hd"/>
<use x="302.34" y="107.00" xlink:href="#hd"/>
<path d="M298.84 107.00v24.00" class="stroke"/>
<use x="302.34" y="113.00" xlink:href="#hd"/>
<use x="326.44" y="107.00" xlink:href="#hd"/>
<path d="M322.94 107.00v24.00" class="stroke"/>
<use x="326.44" y="113.00" xlink:href="#hd"/>
<path class="fill"
	d="M355.04 132.20l69.10 6.00v-3.20l-69.10 -6.00"/>
<path class="fill"
	d="M355.34 127.30l51.30 4.50v-3.20l-51.30 -4.50"/>
<use x="358.84" y="104.00" xlink:href="#hd"/>
<path d="M355.34 104.00v27.30" class="stroke"/>
<use x="375.94" y="110.00" xlink:href="#hd"/>
<path d="M372.44 110.00v22.70" class="stroke"/>
<use x="393.04" y="113.00" xlink:href="#hd"/>
<path d="M389.54 113.00v21.20" class="stroke"/>
<use x="410.14" y="110.00" xlink:href="#hd"/>
<path d="M406.64 110.00v25.70" class="stroke"/>
<use x="427.24" y="119.00" xlink:href="#hd"/>
<path d="M423.74 119.00v18.20" class="stroke"/>
<path class="fill"
	d="M460.84 141.20l59.90 -7.20v-3.20l-59.90 7.20"/>
<path class="fill"
	d="M485.24 133.20l17.10 -2.10v-3.20l-17.10 2.10"/>
<use x="464.64" y="116.00" xlink:href="#hd"/>
<path d="M461.14 116.00v24.10" class="stroke"/>
<use x="488.74" y="116.00" xlink:href="#hd"/>
<path d="M485.24 116.00v21.20" class="stroke"/>
<use x="505.84" y="107.00" xlink:href="#hd"/>
<path d="M502.34 107.00v28.10" class="stroke"/>
<use x="523.84" y="101.00" xlink:href="#hd"/>
<defs>
<path id="usharp" class="fill" d="
	m136 -702
	v890
	h32
	v-890
	m128 840
	h32
	v-888
	h-32
	m-232 286
	v116
	l338 -96
	v-116
	m-338 442
	v116
	l338 -98
	v-114"/>
<use id="sh0" transform="translate(-4,5) scale(0.018)"
	xlink:href="#usharp"/>
</defs>
<use x="514.84" y="101.00" xlink:href="#sh0"/>
<path d="M520.34 101.00v32.00" class="stroke"/>
<path class="fill"
	d="M552.44 121.30l70.00 5.00v-3.20l-70.00 -5.00"/>
<path class="fill"
	d="M552.74 116.30l52.20 3.70v-3.20l-52.20 -3.70"/>
<defs>
<path id="hl" class="stroke" d="m-6 0h12"/>
</defs>
<use x="556.24" y="95.00" xlink:href="#hl"/>
<use x="556.24" y="95.00" xlink:href="#hd"/>
<path d="M552.74 95.00v25.30" class="stroke"/>
<use x="573.34" y="98.00" xlink:href="#hd"/>
<path d="M569.84 98.00v23.50" class="stroke"/>
<use x="591.34" y="101.00" xlink:href="#hd"/>
<use x="582.34" y="101.00" xlink:href="#sh0"/>
<path d="M587.84 101.00v21.80" class="stroke"/>
<use x="608.44" y="98.00" xlink:href="#hd"/>
<path d="M604.94 98.00v26.00" class="stroke"/>
<use x="625.54" y="107.00" xlink:href="#hd"/>
<path d="M622.04 107.00v18.20" class="stroke"/>
<path class="fill"
	d="M654.14 130.60l86.20 7.70v-3.20l-86.20 -7.70"/>
<path class="fill"
	d="M654.54 125.60l85.50 7.60v-3.20l-85.50 -7.60"/>
<use x="658.04" y="104.00" xlink:href="#hd"/>
<path d="M654.54 104.00v25.60" class="stroke"/>
<use x="675.14" y="98.00" xlink:href="#hd"/>
<path d="M671.64 98.00v33.10" class="stroke"/>
<use x="692.24" y="107.00" xlink:href="#hd"/>
<path d="M688.74 107.00v25.60" class="stroke"/>
<use x="709.34" y="110.00" xlink:href="#hd"/>
<path d="M705.84 110.00v24.20" class="stroke"/>
<use x="726.44" y="113.00" xlink:href="#hd"/>
<path d="M722.94 113.00v22.70" class="stroke"/>
<use x="743.54" y="116.00" xlink:href="#hd"/>
<path d="M740.04 116.00v21.20" class="stroke"/>
<use x="770.44" y="98.00" xlink:href="#hd"/>
<path d="M766.94 98.00v40.00" class="stroke"/>
<use x="770.44" y="119.00" xlink:href="#hd"/>
<use x="770.44" y="113.00" xlink:href="#hd"/>
<use x="770.44" y="107.00" xlink:href="#hd"/>
<defs>
<path id="r8e" class="fill" d="m 0 0
	c-1.5 1.5 -2.4 2 -3.6 2
	2.4 -2.8 -2.8 -4 -2.8 -1.2
	c0 2.7 4.3 2.4 5.9 0.6"/>
<g id="r8">
	<path d="m3.3 -4l-3.4 9.6" class="stroke"/>
	<use x="3.4" y="-4" xlink:href="#r8e"/>
</g>
</defs>
<use x="829.64" y="113.00" xlink:href="#r8"/>
<defs>
<path id="ubclef" class="fill" d="m-200 -87
	c124 -35 222 -78 254 -236
	43 -228 -167 -246 -192 -103
	59 -80 157 22 92 78
	-62 47 -115 -22 -106 -88
	21 -141 270 -136 274 52
	-1 175 -106 264 -322 297
	m357 -250
	c0 -36 51 -34 51 0
	0 37 -51 36 -51 0
	m-2 -129
	c0 -36 51 -34 51 0
	0 38 -51 37 -51 0"/>
<use id="bclef" transform="translate(0,18) scale(0.045)"
	xlink:href="#ubclef"/>
</defs>
<use x="23.54" y="165.00" xlink:href="#bclef"/>
<g font-family="serif" font-size="16" font-weight="bold" font-style="normal"
	transform="translate(42.04,182.50) scale(1.2,1)">
	<text text-anchor="middle">8</text>
	<text y="-12" text-anchor="middle">3</text>
</g>
<path class="fill"
	d="M81.24 190.90l86.20 0.00v-3.20l-86.20 -0.00"/>
<path class="fill"
	d="M81.54 185.90l85.50 0.00v-3.20l-85.50 -0.00"/>
<use x="85.04" y="168.00" xlink:href="#hd"/>
<path d="M81.54 168.00v21.90" class="stroke"/>
<use x="85.04" y="174.00" xlink:href="#hd"/>
<use x="102.14" y="162.00" xlink:href="#hd"/>
<path d="M98.64 162.00v27.90" class="stroke"/>
<use x="119.24" y="168.00" xlink:href="#hd"/>
<path d="M115.74 168.00v21.90" class="stroke"/>
<use x="119.24" y="174.00" xlink:href="#hd"/>
<use x="136.34" y="162.00" xlink:href="#hd"/>
<path d="M132.84 162.00v27.90" class="stroke"/>
<use x="153.44" y="168.00" xlink:href="#hd"/>
<path d="M149.94 168.00v21.90" class="stroke"/>
<use x="153.44" y="174.00" xlink:href="#hd"/>
<use x="170.54" y="162.00" xlink:href="#hd"/>
<path d="M167.04 162.00v27.90" class="stroke"/>
<use x="197.54" y="168.00" xlink:href="#hd"/>
<path d="M194.04 168.00v25.00" class="stroke"/>
<use x="197.54" y="174.00" xlink:href="#hd"/>
<use x="245.74" y="171.00" xlink:href="#r8"/>
<path class="fill"
	d="M274.34 183.20l48.90 0.00v-3.20l-48.90 -0.00"/>
<use x="278.24" y="162.00" xlink:href="#hd"/>
<path d="M274.74 162.00v20.20" class="stroke"/>
<use x="302.34" y="162.00" xlink:href="#hd"/>
<path d="M298.84 162.00v20.20" class="stroke"/>
<use x="326.44" y="162.00" xlink:href="#hd"/>
<path d="M322.94 162.00v20.20" class="stroke"/>
<use x="358.84" y="174.00" xlink:href="#hd"/>
<path d="M362.34 174.00v-21.00" class="stroke"/>
<use x="427.24" y="171.00" xlink:href="#r8"/>
<path class="fill"
	d="M460.84 193.00l59.90 0.00v-3.20l-59.90 -0.00"/>
<use x="464.64" y="165.00" xlink:href="#hd"/>
<use x="455.64" y="165.00" xlink:href="#sh0"/>
<path d="M461.14 165.00v27.00" class="stroke"/>
<use x="464.64" y="174.00" xlink:href="#hd"/>
<use x="488.74" y="165.00" xlink:href="#hd"/>
<path d="M485.24 165.00v27.00" class="stroke"/>
<use x="488.74" y="174.00" xlink:href="#hd"/>
<use x="523.84" y="159.00" xlink:href="#hd"/>
<path d="M520.34 159.00v33.00" class="stroke"/>
<use x="523.84" y="174.00" xlink:href="#hd"/>
<path class="fill"
	d="M559.44 149.50l70.00 -4.70v3.20l-70.00 4.70"/>
<use x="556.24" y="177.00" xlink:href="#hd"/>
<path d="M559.74 177.00v-26.50" class="stroke"/>
<use x="556.24" y="171.00" xlink:href="#hd"/>
<use x="591.34" y="177.00" xlink:href="#hd"/>
<path d="M594.84 177.00v-28.90" class="stroke"/>
<use x="591.34" y="171.00" xlink:href="#hd"/>
<use x="625.54" y="177.00" xlink:href="#hd"/>
<path d="M629.04 177.00v-31.20" class="stroke"/>
<use x="625.54" y="162.00" xlink:href="#hd"/>
<path class="fill"
	d="M661.14 147.70l69.10 8.30v3.20l-69.10 -8.30"/>
<use x="658.04" y="174.00" xlink:href="#hd"/>
<path d="M661.54 174.00v-25.30" class="stroke"/>
<use x="692.24" y="171.00" xlink:href="#hd"/>
<path d="M695.74 171.00v-18.20" class="stroke"/>
<use x="726.44" y="189.00" xlink:href="#hl"/>
<use x="726.44" y="192.00" xlink:href="#hd"/>
<path d="M729.94 192.00v-35.10" class="stroke"/>
<path class="fill"
	d="M766.64 202.20l77.00 0.00v-3.20l-77.00 -0.00"/>
<path class="fill"
	d="M791.04 197.20l52.20 0.00v-3.20l-52.20 -0.00"/>
<use x="770.44" y="183.00" xlink:href="#hd"/>
<path d="M766.94 183.00v18.20" class="stroke"/>
<use x="794.54" y="162.00" xlink:href="#hd"/>
<path d="M791.04 162.00v39.20" class="stroke"/>
<use x="812.54" y="165.00" xlink:href="#hd"/>
<defs>
<path id="unat" class="fill" d="
	m96 -750
	h-32
	v716
	l32 -8
	182 -54
	v282
	h32
	v-706
	l-34 10
	-180 50
	v-290
	m0 592
	v-190
	l182 -52
	v188"/>
<use id="nt0" transform="translate(-3,5) scale(0.018)"
	xlink:href="#unat"/>
</defs>
<use x="803.54" y="165.00" xlink:href="#nt0"/>
<path d="M809.04 165.00v36.20" class="stroke"/>
<use x="829.64" y="168.00" xlink:href="#hd"/>
<path d="M826.14 168.00v33.20" class="stroke"/>
<use x="846.74" y="171.00" xlink:href="#hd"/>
<path d="M843.24 171.00v30.20" class="stroke"/>
</g>
<g stroke-width="0.70" transform="scale(0.867)" font-family="Times" font-size="13.00">
<path class="stroke" stroke-width="1"
	d="M11.54 324.00v-90.00"/>
<path class="fill"
	d="M6.54 231.00
	c10.5 1 12 -4.5 12 -3.5c0 1 -3.5 5.5 -8.5 5.5
	v92.00
	c5 0 8.5 4.5 8.5 5.5c0 1 -1.5 -4.5 -12 -3.5"/>
<use x="143.84" y="258.00" xlink:href="#rdots"/>
<path class="stroke" stroke-width="1"
	d="M139.84 258.00v-24.00"/>
<path class="stroke" stroke-width="3"
	d="M135.34 258.00v-24.00"/>
<use x="143.84" y="324.00" xlink:href="#rdots"/>
<path class="stroke" stroke-width="1"
	d="M139.84 324.00v-66.00"/>
<path class="stroke" stroke-width="3"
	d="M135.34 324.00v-66.00"/>
<path class="stroke" stroke-width="1"
	d="M241.04 258.00v-24.00"/>
<path class="stroke" stroke-width="1"
	d="M241.04 324.00v-66.00"/>
<path class="stroke" stroke-width="1"
	d="M340.14 258.00v-24.00"/>
<path class="stroke" stroke-width="1"
	d="M340.14 324.00v-66.00"/>
<path class="stroke" stroke-width="1"
	d="M430.24 258.00v-24.00"/>
<path class="stroke" stroke-width="1"
	d="M430.24 324.00v-66.00"/>
<path class="stroke" stroke-width="1"
	d="M510.14 258.00v-24.00"/>
<path class="stroke" stroke-width="1"
	d="M510.14 324.00v-66.00"/>
<path class="stroke" stroke-width="1"
	d="M609.24 258.00v-24.00"/>
<path class="stroke" stroke-width="1"
	d="M609.24 324.00v-66.00"/>
<path class="stroke" stroke-width="1"
	d="M708.34 258.00v-24.00"/>
<path class="stroke" stroke-width="1"
	d="M708.34 324.00v-66.00"/>
<path class="stroke" stroke-width="1"
	d="M787.64 258.00v-24.00"/>
<path class="stroke" stroke-width="1"
	d="M787.64 324.00v-66.00"/>
<path class="stroke" stroke-width="3"
	d="M860.54 258.00v-24.00"/>
<path class="stroke" stroke-width="1"
	d="M856.04 258.00v-24.00"/>
<use x="852.04" y="258.00" xlink:href="#rdots"/>
<path class="stroke" stroke-width="3"
	d="M860.54 324.00v-66.00"/>
<path class="stroke" stroke-width="1"
	d="M856.04 324.00v-66.00"/>
<use x="852.04" y="324.00" xlink:href="#rdots"/>
<path d="m11.54 258.00
	h850.50
	M11.54 252.00
	h850.50
	M11.54 246.00
	h850.50
	M11.54 240.00
	h850.50
	M11.54 234.00
	h850.50
	" class="stroke"/>
<path d="m11.54 324.00
	h850.50
	M11.54 318.00
	h850.50
	M11.54 312.00
	h850.50
	M11.54 306.00
	h850.50
	M11.54 300.00
	h850.50
	" class="stroke"/>
<text x="47.54" y="219.40">2</text>
<path class="stroke"
	d="M43.54 208.00m0 20v-20h89.30v20"/>
<use x="23.54" y="252.00" xlink:href="#tclef"/>
<use x="56.04" y="231.00" xlink:href="#hd"/>
<path d="M52.54 231.00v40.00" class="stroke"/>
<use x="56.04" y="252.00" xlink:href="#hd"/>
<use x="56.04" y="246.00" xlink:href="#hd"/>
<use x="56.04" y="240.00" xlink:href="#hd"/>
<use x="109.54" y="246.00" xlink:href="#r8"/>
<path class="fill"
	d="M159.54 260.00l65.80 0.00v-3.20l-65.80 -0.00"/>
<path class="fill"
	d="M180.54 255.00l44.50 0.00v-3.20l-44.50 -0.00"/>
<use x="163.34" y="234.00" xlink:href="#hd"/>
<use x="154.34" y="234.00" xlink:href="#sh0"/>
<path d="M159.84 234.00v25.00" class="stroke"/>
<use x="184.04" y="228.00" xlink:href="#hl"/>
<use x="184.04" y="228.00" xlink:href="#hd"/>
<path d="M180.54 228.00v31.00" class="stroke"/>
<use x="198.84" y="234.00" xlink:href="#hd"/>
<path d="M195.34 234.00v25.00" class="stroke"/>
<use x="213.64" y="240.00" xlink:href="#hd"/>
<path d="M210.14 240.00v19.00" class="stroke"/>
<use x="228.54" y="234.00" xlink:href="#hd"/>
<path d="M225.04 234.00v25.00" class="stroke"/>
<path class="fill"
	d="M249.64 263.40l74.80 10.90v-3.20l-74.80 -10.90"/>
<path class="fill"
	d="M250.04 258.40l74.10 10.80v-3.20l-74.10 -10.80"/>
<use x="253.54" y="231.00" xlink:href="#hd"/>
<path d="M250.04 231.00v31.40" class="stroke"/>
<use x="268.34" y="228.00" xlink:href="#hl"/>
<use x="268.34" y="225.00" xlink:href="#hd"/>
<path d="M264.84 225.00v39.60" class="stroke"/>
<use x="283.14" y="231.00" xlink:href="#hd"/>
<path d="M279.64 231.00v35.70" class="stroke"/>
<use x="297.94" y="240.00" xlink:href="#hd"/>
<path d="M294.44 240.00v28.90" class="stroke"/>
<use x="312.84" y="246.00" xlink:href="#hd"/>
<path d="M309.34 246.00v25.00" class="stroke"/>
<use x="327.64" y="252.00" xlink:href="#hd"/>
<path d="M324.14 252.00v21.20" class="stroke"/>
<path class="fill"
	d="M348.84 267.50l65.80 -7.30v-3.20l-65.80 7.30"/>
<path class="fill"
	d="M369.84 260.20l44.50 -4.90v-3.20l-44.50 4.90"/>
<use x="352.64" y="237.00" xlink:href="#hd"/>
<path d="M349.14 237.00v29.50" class="stroke"/>
<use x="373.34" y="243.00" xlink:href="#hd"/>
<path d="M369.84 243.00v21.20" class="stroke"/>
<use x="388.14" y="237.00" xlink:href="#hd"/>
<path d="M384.64 237.00v25.60" class="stroke"/>
<use x="402.94" y="231.00" xlink:href="#hd"/>
<path d="M399.44 231.00v29.90" class="stroke"/>
<use x="417.74" y="228.00" xlink:href="#hl"/>
<use x="417.74" y="222.00" xlink:href="#hl"/>
<use x="417.74" y="222.00" xlink:href="#hd"/>
<path d="M414.24 222.00v37.30" class="stroke"/>
<path class="fill"
	d="M438.94 273.70l51.00 -4.30v-3.20l-51.00 4.30"/>
<path class="fill"
	d="M439.24 268.70l14.80 -1.20v-3.20l-14.80 1.20"/>
<use x="442.74" y="240.00" xlink:href="#hd"/>
<path d="M439.24 240.00v32.70" class="stroke"/>
<use x="457.64" y="246.00" xlink:href="#hd"/>
<path d="M454.14 246.00v25.40" class="stroke"/>
<use x="472.44" y="252.00" xlink:href="#hd"/>
<path d="M468.94 252.00v18.20" class="stroke"/>
<use x="493.14" y="231.00" xlink:href="#hd"/>
<path d="M489.64 231.00v37.50" class="stroke"/>
<path class="fill"
	d="M518.74 253.70l60.00 8.60v-3.20l-60.00 -8.60"/>
<use x="522.64" y="231.00" xlink:href="#hd"/>
<path d="M519.14 231.00v21.70" class="stroke"/>
<use x="552.24" y="237.00" xlink:href="#hd"/>
<path d="M548.74 237.00v20.00" class="stroke"/>
<use x="581.94" y="243.00" xlink:href="#hd"/>
<path d="M578.44 243.00v18.30" class="stroke"/>
<path class="fill"
	d="M617.84 253.70l60.00 8.60v-3.20l-60.00 -8.60"/>
<use x="621.74" y="231.00" xlink:href="#hd"/>
<path d="M618.24 231.00v21.70" class="stroke"/>
<use x="651.34" y="237.00" xlink:href="#hd"/>
<path d="M647.84 237.00v20.00" class="stroke"/>
<use x="681.04" y="243.00" xlink:href="#hd"/>
<path d="M677.54 243.00v18.30" class="stroke"/>
<path class="fill"
	d="M717.04 260.00l51.00 0.00v-3.20l-51.00 -0.00"/>
<path class="fill"
	d="M717.34 255.00l14.80 0.00v-3.20l-14.80 -0.00"/>
<use x="720.84" y="234.00" xlink:href="#hd"/>
<path d="M717.34 234.00v25.00" class="stroke"/>
<use x="735.64" y="237.00" xlink:href="#hd"/>
<path d="M732.14 237.00v22.00" class="stroke"/>
<use x="750.44" y="240.00" xlink:href="#hd"/>
<path d="M746.94 240.00v19.00" class="stroke"/>
<use x="771.14" y="231.00" xlink:href="#hd"/>
<path d="M767.64 231.00v28.00" class="stroke"/>
<use x="800.14" y="243.00" xlink:href="#hd"/>
<path d="M796.64 243.00v21.00" class="stroke"/>
<use x="841.54" y="246.00" xlink:href="#r8"/>
<use x="23.54" y="306.00" xlink:href="#bclef"/>
<path class="fill"
	d="M52.24 343.20l69.00 -5.00v-3.20l-69.00 5.00"/>
<path class="fill"
	d="M73.24 336.70l47.60 -3.50v-3.20l-47.60 3.50"/>
<use x="56.04" y="324.00" xlink:href="#hd"/>
<path d="M52.54 324.00v18.20" class="stroke"/>
<use x="76.74" y="297.00" xlink:href="#hd"/>
<path d="M73.24 297.00v43.70" class="stroke"/>
<use x="91.54" y="303.00" xlink:href="#hd"/>
<path d="M88.04 303.00v36.60" class="stroke"/>
<use x="109.54" y="306.00" xlink:href="#hd"/>
<use x="100.54" y="306.00" xlink:href="#sh0"/>
<path d="M106.04 306.00v32.30" class="stroke"/>
<use x="124.34" y="309.00" xlink:href="#hd"/>
<path d="M120.84 309.00v28.20" class="stroke"/>
<use x="163.34" y="312.00" xlink:href="#hd"/>
<path d="M166.84 312.00v-21.00" class="stroke"/>
<use x="213.64" y="315.00" xlink:href="#hd"/>
<path d="M217.14 315.00v-21.00" class="stroke"/>
<path class="fill"
	d="M217.14 294.00c0.6 5.6 9.6 9 5.6 18.4
	1.6 -6 -1.3 -11.6 -5.6 -12.8
"/>
<use x="253.54" y="318.00" xlink:href="#hd"/>
<path d="M257.04 318.00v-25.00" class="stroke"/>
<use x="253.54" y="312.00" xlink:href="#hd"/>
<use x="312.84" y="312.00" xlink:href="#r8"/>
<use x="352.64" y="303.00" xlink:href="#hd"/>
<path d="M349.14 303.00v31.00" class="stroke"/>
<use x="352.64" y="315.00" xlink:href="#hd"/>
<use x="402.94" y="309.00" xlink:href="#hd"/>
<path d="M399.44 309.00v25.00" class="stroke"/>
<path class="fill"
	d="M399.44 334.00c0.6 -5.6 9.6 -9 5.6 -18.4
	1.6 6 -1.3 11.6 -5.6 12.8
"/>
<use x="402.94" y="315.00" xlink:href="#hd"/>
<use x="442.74" y="303.00" xlink:href="#hd"/>
<path d="M446.24 303.00v-21.00" class="stroke"/>
<use x="493.14" y="318.00" xlink:href="#hd"/>
<path d="M496.64 318.00v-25.00" class="stroke"/>
<path class="fill"
	d="M496.64 293.00c0.6 5.6 9.6 9 5.6 18.4
	1.6 -6 -1.3 -11.6 -5.6 -12.8
"/>
<use x="493.14" y="312.00" xlink:href="#hd"/>
<path class="fill"
	d="M518.74 331.90l74.80 0.00v-3.20l-74.80 -0.00"/>
<path class="fill"
	d="M519.14 326.90l74.10 0.00v-3.20l-74.10 -0.00"/>
<use x="522.64" y="309.00" xlink:href="#hd"/>
<path d="M519.14 309.00v21.90" class="stroke"/>
<use x="522.64" y="315.00" xlink:href="#hd"/>
<use x="537.44" y="303.00" xlink:href="#hd"/>
<path d="M533.94 303.00v27.90" class="stroke"/>
<use x="552.24" y="309.00" xlink:href="#hd"/>
<path d="M548.74 309.00v21.90" class="stroke"/>
<use x="552.24" y="315.00" xlink:href="#hd"/>
<use x="567.04" y="303.00" xlink:href="#hd"/>
<path d="M563.54 303.00v27.90" class="stroke"/>
<use x="581.94" y="309.00" xlink:href="#hd"/>
<path d="M578.44 309.00v21.90" class="stroke"/>
<use x="581.94" y="315.00" xlink:href="#hd"/>
<use x="596.74" y="303.00" xlink:href="#hd"/>
<path d="M593.24 303.00v27.90" class="stroke"/>
<path class="fill"
	d="M617.84 331.90l74.80 0.00v-3.20l-74.80 -0.00"/>
<path class="fill"
	d="M618.24 326.90l74.10 0.00v-3.20l-74.10 -0.00"/>
<use x="621.74" y="309.00" xlink:href="#hd"/>
<path d="M618.24 309.00v21.90" class="stroke"/>
<use x="621.74" y="315.00" xlink:href="#hd"/>
<use x="636.54" y="303.00" xlink:href="#hd"/>
<path d="M633.04 303.00v27.90" class="stroke"/>
<use x="651.34" y="309.00" xlink:href="#hd"/>
<path d="M647.84 309.00v21.90" class="stroke"/>
<use x="651.34" y="315.00" xlink:href="#hd"/>
<use x="666.24" y="303.00" xlink:href="#hd"/>
<path d="M662.74 303.00v27.90" class="stroke"/>
<use x="681.04" y="309.00" xlink:href="#hd"/>
<path d="M677.54 309.00v21.90" class="stroke"/>
<use x="681.04" y="315.00" xlink:href="#hd"/>
<use x="695.84" y="303.00" xlink:href="#hd"/>
<path d="M692.34 303.00v27.90" class="stroke"/>
<path class="fill"
	d="M717.04 331.90l51.00 0.00v-3.20l-51.00 -0.00"/>
<path class="fill"
	d="M717.34 326.90l14.80 0.00v-3.20l-14.80 -0.00"/>
<use x="720.84" y="306.00" xlink:href="#hd"/>
<path d="M717.34 306.00v24.90" class="stroke"/>
<use x="735.64" y="309.00" xlink:href="#hd"/>
<path d="M732.14 309.00v21.90" class="stroke"/>
<use x="750.44" y="312.00" xlink:href="#hd"/>
<path d="M746.94 312.00v18.90" class="stroke"/>
<use x="771.14" y="303.00" xlink:href="#hd"/>
<path d="M767.64 303.00v27.90" class="stroke"/>
<path class="fill"
	d="M803.34 295.70l42.00 9.80v3.20l-42.00 -9.80"/>
<use x="800.14" y="315.00" xlink:href="#hd"/>
<path d="M803.64 315.00v-18.20" class="stroke"/>
<use x="820.84" y="324.00" xlink:href="#hd"/>
<path d="M824.34 324.00v-22.40" class="stroke"/>
<use x="841.54" y="330.00" xlink:href="#hl"/>
<use x="841.54" y="336.00" xlink:href="#hl"/>
<use x="841.54" y="336.00" xlink:href="#hd"/>
<path d="M845.04 336.00v-29.60" class="stroke"/>
<use x="442.74" y="318.00" xlink:href="#hd"/>
<path d="M439.24 318.00v21.00" class="stroke"/>
</g>
</svg>
