<?xml version="1.0" standalone="no"?>
<!DOCTYPE svg PUBLIC "-//W3C//DTD SVG 1.1//EN"
	"http://www.w3.org/Graphics/SVG/1.1/DTD/svg11.dtd">
<svg xmlns="http://www.w3.org/2000/svg" version="1.1"
	xmlns:xlink="http://www.w3.org/1999/xlink"
	color="black"
	width="757.10px" height="300.73px">
<style type="text/css">
.fill {fill: currentColor}
.stroke {stroke: currentColor; fill: none}
text{white-space: pre}
</style>
<title>./K516f-3-6-8-6-12-8-2-12-3-7-8-10-2-11-5-12.abc (1320) tune 1</title>
<!-- Creator: abcm2ps-8.13.8 -->
<!-- CreationDate: Sep  7, 2017 11:19 -->
<!-- CommandLine: ./K516f-3-6-8-6-12-8-2-12-3-7-8-10-2-11-5-12.abc -O ./K516f-3-6-8-6-12-8-2-12-3-7-8-10-2-11-5-12.svg -g -->
<rect width="100%" height="100%" fill="white"/>
<g stroke-width="0.70" transform="scale(0.867)">
<!-- title: 3-6-8-6-12-8-2-12-3-7-8-10-2-11-5-12 -->
</g>
<g stroke-width="0.70" transform="scale(0.867)" font-family="Times" font-size="20.00">
<text x="436.84" y="22.00" text-anchor="middle">3-6-8-6-12-8-2-12-3-7-8-10-2-11-5-12</text>
</g>
<g stroke-width="0.70" transform="scale(0.867)" font-family="Times" font-size="20.00">
<!-- subtitle: $1K.516f::32:74:171:45:28:133:11:5:117:71:57:82:112:59:52:131::$0 -->
</g>
<g stroke-width="0.70" transform="scale(0.867)" font-family="Courier" font-size="8.00" font-weight="bold">
<text x="436.84" y="41.80" text-anchor="middle">K.516f::32:74:171:45:28:133:11:5:117:71:57:82:112:59:52:131::</text>
</g>
<g stroke-width="0.70" transform="scale(0.867)" font-family="Courier" font-size="8.00" font-weight="bold">
<!-- subtitle: $1Perm. No.: 132036731305624$0 -->
<text x="436.84" y="60.80" text-anchor="middle">Perm. No.: 132036731305624</text>
</g>
<g stroke-width="0.70" transform="scale(0.607)" font-family="Courier" font-size="8.00" font-weight="bold">
<defs>
<ellipse id="hd" rx="4.1" ry="2.9"
	transform="rotate(-20)" class="fill"/>
</defs>
<use x="103.06" y="121.29" xlink:href="#hd"/>
<path d="M106.56 121.29v-21.00" class="stroke"/>
<path class="fill"
	d="M106.56 100.29c0.6 5.6 9.6 9 5.6 18.4
	1.6 -6 -1.3 -11.6 -5.6 -12.8
"/>
</g>
<g stroke-width="0.70" transform="scale(0.867)" font-family="Times" font-size="15.00" font-weight="bold">
<text x="81.24" y="87.00">= 111</text>
<path class="stroke" stroke-width="1"
	d="M11.54 183.00v-82.00"/>
<path class="fill"
	d="M6.54 98.00
	c10.5 1 12 -4.5 12 -3.5c0 1 -3.5 5.5 -8.5 5.5
	v84.00
	c5 0 8.5 4.5 8.5 5.5c0 1 -1.5 -4.5 -12 -3.5"/>
<defs>
<g id="rdots" class="fill">
	<circle cx="0" cy="-9" r="1.2"/>
	<circle cx="0" cy="-15" r="1.2"/>
</g>
</defs>
<use x="70.54" y="125.00" xlink:href="#rdots"/>
<path class="stroke" stroke-width="1"
	d="M66.54 125.00v-24.00"/>
<path class="stroke" stroke-width="3"
	d="M62.04 125.00v-24.00"/>
<use x="70.54" y="183.00" xlink:href="#rdots"/>
<path class="stroke" stroke-width="1"
	d="M66.54 183.00v-58.00"/>
<path class="stroke" stroke-width="3"
	d="M62.04 183.00v-58.00"/>
<path class="stroke" stroke-width="1"
	d="M145.34 125.00v-24.00"/>
<path class="stroke" stroke-width="1"
	d="M145.34 183.00v-58.00"/>
<path class="stroke" stroke-width="1"
	d="M248.74 125.00v-24.00"/>
<path class="stroke" stroke-width="1"
	d="M248.74 183.00v-58.00"/>
<path class="stroke" stroke-width="1"
	d="M352.04 125.00v-24.00"/>
<path class="stroke" stroke-width="1"
	d="M352.04 183.00v-58.00"/>
<path class="stroke" stroke-width="1"
	d="M455.34 125.00v-24.00"/>
<path class="stroke" stroke-width="1"
	d="M455.34 183.00v-58.00"/>
<path class="stroke" stroke-width="1"
	d="M564.54 125.00v-24.00"/>
<path class="stroke" stroke-width="1"
	d="M564.54 183.00v-58.00"/>
<path class="stroke" stroke-width="1"
	d="M658.54 125.00v-24.00"/>
<path class="stroke" stroke-width="1"
	d="M658.54 183.00v-58.00"/>
<path class="stroke" stroke-width="1"
	d="M764.14 125.00v-24.00"/>
<path class="stroke" stroke-width="1"
	d="M764.14 183.00v-58.00"/>
<path class="stroke" stroke-width="3"
	d="M860.54 125.00v-24.00"/>
<path class="stroke" stroke-width="1"
	d="M856.04 125.00v-24.00"/>
<use x="852.04" y="125.00" xlink:href="#rdots"/>
<path class="stroke" stroke-width="3"
	d="M860.54 183.00v-58.00"/>
<path class="stroke" stroke-width="1"
	d="M856.04 183.00v-58.00"/>
<use x="852.04" y="183.00" xlink:href="#rdots"/>
<path d="m11.54 125.00
	h850.50
	M11.54 119.00
	h850.50
	M11.54 113.00
	h850.50
	M11.54 107.00
	h850.50
	M11.54 101.00
	h850.50
	" class="stroke"/>
<path d="m11.54 183.00
	h850.50
	M11.54 177.00
	h850.50
	M11.54 171.00
	h850.50
	M11.54 165.00
	h850.50
	M11.54 159.00
	h850.50
	" class="stroke"/>
</g>
<g stroke-width="0.70" transform="scale(0.867)" font-family="Times" font-size="13.00">
<text x="768.14" y="86.40">1</text>
<path class="stroke"
	d="M764.14 75.00m0 20v-20h89.90v20"/>
<defs>
<path id="utclef" class="fill" d="m-50 -90
	c-72 -41 -72 -158 52 -188
	150 -10 220 188 90 256
	-114 52 -275 0 -293 -136
	-15 -181 93 -229 220 -334
	88 -87 79 -133 62 -210
	-51 33 -94 105 -89 186
	17 267 36 374 49 574
	6 96 -19 134 -77 135
	-80 1 -126 -93 -61 -133
	85 -41 133 101 31 105
	23 17 92 37 90 -92
	-10 -223 -39 -342 -50 -617
	0 -90 0 -162 96 -232
	56 72 63 230 22 289
	-74 106 -257 168 -255 316
	9 153 148 185 252 133
	86 -65 29 -192 -80 -176
	-71 12 -105 67 -59 124"/>
<use id="tclef" transform="translate(0,6) scale(0.045)"
	xlink:href="#utclef"/>
</defs>
<use x="23.54" y="119.00" xlink:href="#tclef"/>
<g font-family="serif" font-size="16" font-weight="bold" font-style="normal"
	transform="translate(42.04,124.50) scale(1.2,1)">
	<text text-anchor="middle">8</text>
	<text y="-12" text-anchor="middle">3</text>
</g>
<path class="fill"
	d="M80.24 138.20l44.60 -6.50v-3.20l-44.60 6.50"/>
<use x="84.14" y="119.00" xlink:href="#hd"/>
<path d="M80.64 119.00v18.20" class="stroke"/>
<use x="106.04" y="110.00" xlink:href="#hd"/>
<path d="M102.54 110.00v24.00" class="stroke"/>
<use x="128.04" y="104.00" xlink:href="#hd"/>
<path d="M124.54 104.00v26.80" class="stroke"/>
<path class="fill"
	d="M154.04 122.80l79.00 9.50v-3.20l-79.00 -9.50"/>
<path class="fill"
	d="M154.44 117.80l78.40 9.40v-3.20l-78.40 -9.40"/>
<defs>
<path id="hl" class="stroke" d="m-6 0h12"/>
</defs>
<use x="157.94" y="95.00" xlink:href="#hl"/>
<use x="157.94" y="89.00" xlink:href="#hl"/>
<use x="157.94" y="89.00" xlink:href="#hd"/>
<path d="M154.44 89.00v32.80" class="stroke"/>
<use x="173.64" y="95.00" xlink:href="#hl"/>
<use x="173.64" y="92.00" xlink:href="#hd"/>
<path d="M170.14 92.00v31.70" class="stroke"/>
<use x="189.34" y="95.00" xlink:href="#hl"/>
<use x="189.34" y="89.00" xlink:href="#hl"/>
<use x="189.34" y="89.00" xlink:href="#hd"/>
<path d="M185.84 89.00v36.60" class="stroke"/>
<use x="205.04" y="98.00" xlink:href="#hd"/>
<path d="M201.54 98.00v29.50" class="stroke"/>
<use x="220.64" y="104.00" xlink:href="#hd"/>
<path d="M217.14 104.00v25.30" class="stroke"/>
<use x="236.24" y="110.00" xlink:href="#hd"/>
<path d="M232.74 110.00v21.20" class="stroke"/>
<path class="fill"
	d="M257.54 133.00l78.90 0.00v-3.20l-78.90 -0.00"/>
<path class="fill"
	d="M257.84 128.00l78.20 0.00v-3.20l-78.20 -0.00"/>
<use x="261.34" y="113.00" xlink:href="#hd"/>
<path d="M257.84 113.00v18.90" class="stroke"/>
<use x="277.04" y="110.00" xlink:href="#hd"/>
<path d="M273.54 110.00v21.90" class="stroke"/>
<use x="292.64" y="107.00" xlink:href="#hd"/>
<path d="M289.14 107.00v24.90" class="stroke"/>
<use x="308.24" y="104.00" xlink:href="#hd"/>
<path d="M304.74 104.00v27.90" class="stroke"/>
<use x="323.94" y="101.00" xlink:href="#hd"/>
<path d="M320.44 101.00v30.90" class="stroke"/>
<use x="339.54" y="107.00" xlink:href="#hd"/>
<path d="M336.04 107.00v24.90" class="stroke"/>
<path class="fill"
	d="M367.84 83.90l78.90 9.80v3.20l-78.90 -9.80"/>
<path class="fill"
	d="M368.14 88.90l78.20 9.70v3.20l-78.20 -9.70"/>
<use x="364.64" y="110.00" xlink:href="#hd"/>
<path d="M368.14 110.00v-25.10" class="stroke"/>
<use x="380.24" y="113.00" xlink:href="#hd"/>
<path d="M383.74 113.00v-26.10" class="stroke"/>
<use x="395.94" y="110.00" xlink:href="#hd"/>
<path d="M399.44 110.00v-21.20" class="stroke"/>
<use x="411.54" y="119.00" xlink:href="#hd"/>
<path d="M415.04 119.00v-28.30" class="stroke"/>
<use x="427.24" y="125.00" xlink:href="#hd"/>
<path d="M430.74 125.00v-32.30" class="stroke"/>
<use x="442.84" y="131.00" xlink:href="#hl"/>
<use x="442.84" y="131.00" xlink:href="#hd"/>
<path d="M446.34 131.00v-36.40" class="stroke"/>
<path class="fill"
	d="M470.04 138.20l78.90 0.00v-3.20l-78.90 -0.00"/>
<path class="fill"
	d="M470.34 133.20l78.20 0.00v-3.20l-78.20 -0.00"/>
<use x="473.84" y="101.00" xlink:href="#hd"/>
<defs>
<path id="usharp" class="fill" d="
	m136 -702
	v890
	h32
	v-890
	m128 840
	h32
	v-888
	h-32
	m-232 286
	v116
	l338 -96
	v-116
	m-338 442
	v116
	l338 -98
	v-114"/>
<use id="sh0" transform="translate(-4,5) scale(0.018)"
	xlink:href="#usharp"/>
</defs>
<use x="464.84" y="101.00" xlink:href="#sh0"/>
<path d="M470.34 101.00v36.20" class="stroke"/>
<use x="489.54" y="107.00" xlink:href="#hd"/>
<path d="M486.04 107.00v30.20" class="stroke"/>
<use x="505.14" y="116.00" xlink:href="#hd"/>
<path d="M501.64 116.00v21.20" class="stroke"/>
<use x="520.74" y="95.00" xlink:href="#hl"/>
<use x="520.74" y="95.00" xlink:href="#hd"/>
<path d="M517.24 95.00v42.20" class="stroke"/>
<use x="536.44" y="101.00" xlink:href="#hd"/>
<path d="M532.94 101.00v36.20" class="stroke"/>
<use x="552.04" y="107.00" xlink:href="#hd"/>
<path d="M548.54 107.00v30.20" class="stroke"/>
<path class="fill"
	d="M573.34 135.20l69.60 0.00v-3.20l-69.60 -0.00"/>
<path class="fill"
	d="M595.54 130.20l46.90 0.00v-3.20l-46.90 -0.00"/>
<use x="577.14" y="107.00" xlink:href="#hd"/>
<path d="M573.64 107.00v27.20" class="stroke"/>
<use x="599.04" y="98.00" xlink:href="#hd"/>
<path d="M595.54 98.00v36.20" class="stroke"/>
<use x="614.74" y="107.00" xlink:href="#hd"/>
<path d="M611.24 107.00v27.20" class="stroke"/>
<use x="630.34" y="113.00" xlink:href="#hd"/>
<path d="M626.84 113.00v21.20" class="stroke"/>
<use x="646.04" y="107.00" xlink:href="#hd"/>
<path d="M642.54 107.00v27.20" class="stroke"/>
<path class="fill"
	d="M674.24 81.80l81.30 8.30v3.20l-81.30 -8.30"/>
<path class="fill"
	d="M674.54 86.80l80.60 8.20v3.20l-80.60 -8.20"/>
<use x="671.04" y="104.00" xlink:href="#hd"/>
<path d="M674.54 104.00v-21.20" class="stroke"/>
<use x="686.74" y="110.00" xlink:href="#hd"/>
<path d="M690.24 110.00v-25.60" class="stroke"/>
<use x="702.34" y="113.00" xlink:href="#hd"/>
<path d="M705.84 113.00v-27.00" class="stroke"/>
<use x="718.04" y="116.00" xlink:href="#hd"/>
<path d="M721.54 116.00v-28.40" class="stroke"/>
<use x="733.64" y="119.00" xlink:href="#hd"/>
<path d="M737.14 119.00v-29.80" class="stroke"/>
<use x="751.64" y="122.00" xlink:href="#hd"/>
<use x="742.64" y="122.00" xlink:href="#sh0"/>
<path d="M755.14 122.00v-31.00" class="stroke"/>
<use x="776.74" y="98.00" xlink:href="#hd"/>
<path d="M773.24 98.00v40.00" class="stroke"/>
<use x="776.74" y="119.00" xlink:href="#hd"/>
<use x="776.74" y="113.00" xlink:href="#hd"/>
<use x="776.74" y="107.00" xlink:href="#hd"/>
<defs>
<path id="r8e" class="fill" d="m 0 0
	c-1.5 1.5 -2.4 2 -3.6 2
	2.4 -2.8 -2.8 -4 -2.8 -1.2
	c0 2.7 4.3 2.4 5.9 0.6"/>
<g id="r8">
	<path d="m3.3 -4l-3.4 9.6" class="stroke"/>
	<use x="3.4" y="-4" xlink:href="#r8e"/>
</g>
</defs>
<use x="832.34" y="113.00" xlink:href="#r8"/>
<defs>
<path id="ubclef" class="fill" d="m-200 -87
	c124 -35 222 -78 254 -236
	43 -228 -167 -246 -192 -103
	59 -80 157 22 92 78
	-62 47 -115 -22 -106 -88
	21 -141 270 -136 274 52
	-1 175 -106 264 -322 297
	m357 -250
	c0 -36 51 -34 51 0
	0 37 -51 36 -51 0
	m-2 -129
	c0 -36 51 -34 51 0
	0 38 -51 37 -51 0"/>
<use id="bclef" transform="translate(0,18) scale(0.045)"
	xlink:href="#ubclef"/>
</defs>
<use x="23.54" y="165.00" xlink:href="#bclef"/>
<g font-family="serif" font-size="16" font-weight="bold" font-style="normal"
	transform="translate(42.04,182.50) scale(1.2,1)">
	<text text-anchor="middle">8</text>
	<text y="-12" text-anchor="middle">3</text>
</g>
<use x="84.14" y="168.00" xlink:href="#hd"/>
<path d="M80.64 168.00v25.00" class="stroke"/>
<use x="84.14" y="174.00" xlink:href="#hd"/>
<use x="128.04" y="171.00" xlink:href="#r8"/>
<use x="157.94" y="168.00" xlink:href="#hd"/>
<path d="M161.44 168.00v-21.00" class="stroke"/>
<use x="220.64" y="171.00" xlink:href="#r8"/>
<use x="261.34" y="183.00" xlink:href="#hd"/>
<path d="M264.84 183.00v-40.00" class="stroke"/>
<use x="261.34" y="162.00" xlink:href="#hd"/>
<use x="323.94" y="162.00" xlink:href="#hd"/>
<path d="M320.44 162.00v34.00" class="stroke"/>
<path class="fill"
	d="M320.44 196.00c0.6 -5.6 9.6 -9 5.6 -18.4
	1.6 6 -1.3 11.6 -5.6 12.8
"/>
<use x="323.94" y="177.00" xlink:href="#hd"/>
<use x="364.64" y="162.00" xlink:href="#hd"/>
<path d="M361.14 162.00v25.00" class="stroke"/>
<use x="364.64" y="168.00" xlink:href="#hd"/>
<use x="427.24" y="171.00" xlink:href="#r8"/>
<use x="473.84" y="159.00" xlink:href="#hd"/>
<path d="M470.34 159.00v34.00" class="stroke"/>
<use x="473.84" y="174.00" xlink:href="#hd"/>
<use x="536.44" y="171.00" xlink:href="#r8"/>
<use x="577.14" y="162.00" xlink:href="#hd"/>
<path d="M573.64 162.00v34.00" class="stroke"/>
<use x="577.14" y="177.00" xlink:href="#hd"/>
<use x="630.34" y="171.00" xlink:href="#r8"/>
<path class="fill"
	d="M674.24 147.70l63.30 8.10v3.20l-63.30 -8.10"/>
<use x="671.04" y="174.00" xlink:href="#hd"/>
<path d="M674.54 174.00v-25.20" class="stroke"/>
<use x="702.34" y="171.00" xlink:href="#hd"/>
<path d="M705.84 171.00v-18.20" class="stroke"/>
<use x="733.64" y="189.00" xlink:href="#hl"/>
<use x="733.64" y="192.00" xlink:href="#hd"/>
<path d="M737.14 192.00v-35.20" class="stroke"/>
<path class="fill"
	d="M772.84 202.20l71.90 0.00v-3.20l-71.90 -0.00"/>
<path class="fill"
	d="M795.14 197.20l49.30 0.00v-3.20l-49.30 -0.00"/>
<use x="776.74" y="183.00" xlink:href="#hd"/>
<path d="M773.24 183.00v18.20" class="stroke"/>
<use x="798.64" y="162.00" xlink:href="#hd"/>
<path d="M795.14 162.00v39.20" class="stroke"/>
<use x="816.64" y="165.00" xlink:href="#hd"/>
<defs>
<path id="unat" class="fill" d="
	m96 -750
	h-32
	v716
	l32 -8
	182 -54
	v282
	h32
	v-706
	l-34 10
	-180 50
	v-290
	m0 592
	v-190
	l182 -52
	v188"/>
<use id="nt0" transform="translate(-3,5) scale(0.018)"
	xlink:href="#unat"/>
</defs>
<use x="807.64" y="165.00" xlink:href="#nt0"/>
<path d="M813.14 165.00v36.20" class="stroke"/>
<use x="832.34" y="168.00" xlink:href="#hd"/>
<path d="M828.84 168.00v33.20" class="stroke"/>
<use x="847.94" y="171.00" xlink:href="#hd"/>
<path d="M844.44 171.00v30.20" class="stroke"/>
<use x="157.94" y="174.00" xlink:href="#hd"/>
<path d="M154.44 174.00v21.00" class="stroke"/>
</g>
<g stroke-width="0.70" transform="scale(0.867)" font-family="Times" font-size="13.00">
<path class="stroke" stroke-width="1"
	d="M11.54 324.00v-90.00"/>
<path class="fill"
	d="M6.54 231.00
	c10.5 1 12 -4.5 12 -3.5c0 1 -3.5 5.5 -8.5 5.5
	v92.00
	c5 0 8.5 4.5 8.5 5.5c0 1 -1.5 -4.5 -12 -3.5"/>
<use x="140.44" y="258.00" xlink:href="#rdots"/>
<path class="stroke" stroke-width="1"
	d="M136.44 258.00v-24.00"/>
<path class="stroke" stroke-width="3"
	d="M131.94 258.00v-24.00"/>
<use x="140.44" y="324.00" xlink:href="#rdots"/>
<path class="stroke" stroke-width="1"
	d="M136.44 324.00v-66.00"/>
<path class="stroke" stroke-width="3"
	d="M131.94 324.00v-66.00"/>
<path class="stroke" stroke-width="1"
	d="M246.14 258.00v-24.00"/>
<path class="stroke" stroke-width="1"
	d="M246.14 324.00v-66.00"/>
<path class="stroke" stroke-width="1"
	d="M331.84 258.00v-24.00"/>
<path class="stroke" stroke-width="1"
	d="M331.84 324.00v-66.00"/>
<path class="stroke" stroke-width="1"
	d="M426.44 258.00v-24.00"/>
<path class="stroke" stroke-width="1"
	d="M426.44 324.00v-66.00"/>
<path class="stroke" stroke-width="1"
	d="M502.94 258.00v-24.00"/>
<path class="stroke" stroke-width="1"
	d="M502.94 324.00v-66.00"/>
<path class="stroke" stroke-width="1"
	d="M597.54 258.00v-24.00"/>
<path class="stroke" stroke-width="1"
	d="M597.54 324.00v-66.00"/>
<path class="stroke" stroke-width="1"
	d="M692.14 258.00v-24.00"/>
<path class="stroke" stroke-width="1"
	d="M692.14 324.00v-66.00"/>
<path class="stroke" stroke-width="1"
	d="M790.84 258.00v-24.00"/>
<path class="stroke" stroke-width="1"
	d="M790.84 324.00v-66.00"/>
<path class="stroke" stroke-width="3"
	d="M860.54 258.00v-24.00"/>
<path class="stroke" stroke-width="1"
	d="M856.04 258.00v-24.00"/>
<use x="852.04" y="258.00" xlink:href="#rdots"/>
<path class="stroke" stroke-width="3"
	d="M860.54 324.00v-66.00"/>
<path class="stroke" stroke-width="1"
	d="M856.04 324.00v-66.00"/>
<use x="852.04" y="324.00" xlink:href="#rdots"/>
<path d="m11.54 258.00
	h850.50
	M11.54 252.00
	h850.50
	M11.54 246.00
	h850.50
	M11.54 240.00
	h850.50
	M11.54 234.00
	h850.50
	" class="stroke"/>
<path d="m11.54 324.00
	h850.50
	M11.54 318.00
	h850.50
	M11.54 312.00
	h850.50
	M11.54 306.00
	h850.50
	M11.54 300.00
	h850.50
	" class="stroke"/>
<path class="fill"
	d="M704.64 234.00c2.76 -3.95 14.74 -4.43 17.50 -0.70
	v-0.22c-3.28 -5.51 -14.22 -5.03 -17.50 0.92"/>
<text x="47.54" y="219.40">2</text>
<path class="stroke"
	d="M43.54 208.00m0 20v-20h85.90v20"/>
<use x="23.54" y="252.00" xlink:href="#tclef"/>
<use x="56.04" y="231.00" xlink:href="#hd"/>
<path d="M52.54 231.00v40.00" class="stroke"/>
<use x="56.04" y="252.00" xlink:href="#hd"/>
<use x="56.04" y="246.00" xlink:href="#hd"/>
<use x="56.04" y="240.00" xlink:href="#hd"/>
<use x="107.04" y="246.00" xlink:href="#r8"/>
<path class="fill"
	d="M156.14 272.50l74.40 -7.00v-3.20l-74.40 7.00"/>
<path class="fill"
	d="M156.44 267.50l73.70 -6.90v-3.20l-73.70 6.90"/>
<use x="159.94" y="240.00" xlink:href="#hd"/>
<path d="M156.44 240.00v31.50" class="stroke"/>
<use x="173.94" y="249.00" xlink:href="#hd"/>
<path d="M170.44 249.00v21.20" class="stroke"/>
<use x="187.84" y="240.00" xlink:href="#hd"/>
<path d="M184.34 240.00v28.90" class="stroke"/>
<use x="205.84" y="234.00" xlink:href="#hd"/>
<use x="196.84" y="234.00" xlink:href="#sh0"/>
<path d="M202.34 234.00v33.20" class="stroke"/>
<use x="219.74" y="228.00" xlink:href="#hl"/>
<use x="219.74" y="228.00" xlink:href="#hd"/>
<path d="M216.24 228.00v37.90" class="stroke"/>
<use x="233.64" y="234.00" xlink:href="#hd"/>
<path d="M230.14 234.00v30.60" class="stroke"/>
<path class="fill"
	d="M254.84 254.00l56.80 0.00v-3.20l-56.80 -0.00"/>
<path class="fill"
	d="M255.14 249.00l42.20 0.00v-3.20l-42.20 -0.00"/>
<use x="258.64" y="231.00" xlink:href="#hd"/>
<path d="M255.14 231.00v21.90" class="stroke"/>
<use x="272.64" y="228.00" xlink:href="#hl"/>
<use x="272.64" y="225.00" xlink:href="#hd"/>
<path d="M269.14 225.00v27.90" class="stroke"/>
<use x="286.74" y="228.00" xlink:href="#hl"/>
<use x="286.74" y="222.00" xlink:href="#hl"/>
<use x="286.74" y="219.00" xlink:href="#hd"/>
<path d="M283.24 219.00v33.90" class="stroke"/>
<use x="300.94" y="228.00" xlink:href="#hl"/>
<use x="300.94" y="225.00" xlink:href="#hd"/>
<path d="M297.44 225.00v27.90" class="stroke"/>
<use x="314.84" y="231.00" xlink:href="#hd"/>
<path d="M311.34 231.00v21.90" class="stroke"/>
<path class="fill"
	d="M340.54 264.40l56.40 6.90v-3.20l-56.40 -6.90"/>
<use x="344.34" y="237.00" xlink:href="#hd"/>
<path d="M340.84 237.00v26.40" class="stroke"/>
<use x="372.24" y="243.00" xlink:href="#hd"/>
<path d="M368.74 243.00v23.80" class="stroke"/>
<use x="400.04" y="252.00" xlink:href="#hd"/>
<path d="M396.54 252.00v18.20" class="stroke"/>
<path class="fill"
	d="M435.14 273.70l47.60 -4.20v-3.20l-47.60 4.20"/>
<path class="fill"
	d="M435.44 268.70l13.90 -1.20v-3.20l-13.90 1.20"/>
<use x="438.94" y="240.00" xlink:href="#hd"/>
<path d="M435.44 240.00v32.70" class="stroke"/>
<use x="452.84" y="246.00" xlink:href="#hd"/>
<path d="M449.34 246.00v25.40" class="stroke"/>
<use x="466.84" y="252.00" xlink:href="#hd"/>
<path d="M463.34 252.00v18.20" class="stroke"/>
<use x="485.94" y="231.00" xlink:href="#hd"/>
<path d="M482.44 231.00v37.50" class="stroke"/>
<path class="fill"
	d="M511.54 264.40l56.40 6.90v-3.20l-56.40 -6.90"/>
<use x="515.44" y="237.00" xlink:href="#hd"/>
<path d="M511.94 237.00v26.40" class="stroke"/>
<use x="543.24" y="243.00" xlink:href="#hd"/>
<path d="M539.74 243.00v23.80" class="stroke"/>
<use x="571.14" y="252.00" xlink:href="#hd"/>
<path d="M567.64 252.00v18.20" class="stroke"/>
<path class="fill"
	d="M606.14 260.60l56.40 3.20v-3.20l-56.40 -3.20"/>
<use x="610.04" y="231.00" xlink:href="#hd"/>
<path d="M606.54 231.00v28.60" class="stroke"/>
<use x="637.84" y="243.00" xlink:href="#hd"/>
<path d="M634.34 243.00v18.20" class="stroke"/>
<use x="665.74" y="237.00" xlink:href="#hd"/>
<path d="M662.24 237.00v25.80" class="stroke"/>
<path class="fill"
	d="M700.84 274.20l74.40 0.00v-3.20l-74.40 -0.00"/>
<path class="fill"
	d="M701.14 269.20l73.70 0.00v-3.20l-73.70 -0.00"/>
<use x="704.64" y="240.00" xlink:href="#hd"/>
<path d="M701.14 240.00v33.20" class="stroke"/>
<use x="722.64" y="243.00" xlink:href="#hd"/>
<use x="713.64" y="243.00" xlink:href="#sh0"/>
<path d="M719.14 243.00v30.20" class="stroke"/>
<use x="736.54" y="240.00" xlink:href="#hd"/>
<path d="M733.04 240.00v33.20" class="stroke"/>
<use x="750.44" y="234.00" xlink:href="#hd"/>
<path d="M746.94 234.00v39.20" class="stroke"/>
<use x="764.44" y="252.00" xlink:href="#hd"/>
<path d="M760.94 252.00v21.20" class="stroke"/>
<use x="778.34" y="246.00" xlink:href="#hd"/>
<path d="M774.84 246.00v27.20" class="stroke"/>
<use x="803.34" y="243.00" xlink:href="#hd"/>
<path d="M799.84 243.00v21.00" class="stroke"/>
<use x="841.54" y="246.00" xlink:href="#r8"/>
<use x="23.54" y="306.00" xlink:href="#bclef"/>
<path class="fill"
	d="M52.24 343.20l65.60 0.00v-3.20l-65.60 -0.00"/>
<path class="fill"
	d="M71.64 338.20l45.80 0.00v-3.20l-45.80 -0.00"/>
<use x="56.04" y="324.00" xlink:href="#hd"/>
<path d="M52.54 324.00v18.20" class="stroke"/>
<use x="75.14" y="297.00" xlink:href="#hd"/>
<path d="M71.64 297.00v45.20" class="stroke"/>
<use x="89.04" y="303.00" xlink:href="#hd"/>
<path d="M85.54 303.00v39.20" class="stroke"/>
<use x="107.04" y="306.00" xlink:href="#hd"/>
<use x="98.04" y="306.00" xlink:href="#sh0"/>
<path d="M103.54 306.00v36.20" class="stroke"/>
<use x="120.94" y="309.00" xlink:href="#hd"/>
<path d="M117.44 309.00v33.20" class="stroke"/>
<use x="159.94" y="306.00" xlink:href="#hd"/>
<use x="150.94" y="306.00" xlink:href="#sh0"/>
<path d="M156.44 306.00v25.00" class="stroke"/>
<use x="159.94" y="312.00" xlink:href="#hd"/>
<use x="219.74" y="312.00" xlink:href="#r8"/>
<use x="258.64" y="318.00" xlink:href="#hd"/>
<path d="M262.14 318.00v-25.00" class="stroke"/>
<use x="258.64" y="312.00" xlink:href="#hd"/>
<use x="314.84" y="318.00" xlink:href="#hd"/>
<path d="M318.34 318.00v-25.00" class="stroke"/>
<path class="fill"
	d="M318.34 293.00c0.6 5.6 9.6 9 5.6 18.4
	1.6 -6 -1.3 -11.6 -5.6 -12.8
"/>
<use x="314.84" y="312.00" xlink:href="#hd"/>
<path class="fill"
	d="M340.54 331.90l70.30 0.00v-3.20l-70.30 -0.00"/>
<path class="fill"
	d="M340.84 326.90l69.60 0.00v-3.20l-69.60 -0.00"/>
<use x="344.34" y="309.00" xlink:href="#hd"/>
<path d="M340.84 309.00v21.90" class="stroke"/>
<use x="344.34" y="315.00" xlink:href="#hd"/>
<use x="358.24" y="303.00" xlink:href="#hd"/>
<path d="M354.74 303.00v27.90" class="stroke"/>
<use x="372.24" y="309.00" xlink:href="#hd"/>
<path d="M368.74 309.00v21.90" class="stroke"/>
<use x="372.24" y="315.00" xlink:href="#hd"/>
<use x="386.14" y="303.00" xlink:href="#hd"/>
<path d="M382.64 303.00v27.90" class="stroke"/>
<use x="400.04" y="309.00" xlink:href="#hd"/>
<path d="M396.54 309.00v21.90" class="stroke"/>
<use x="400.04" y="315.00" xlink:href="#hd"/>
<use x="413.94" y="303.00" xlink:href="#hd"/>
<path d="M410.44 303.00v27.90" class="stroke"/>
<use x="438.94" y="303.00" xlink:href="#hd"/>
<path d="M442.44 303.00v-21.00" class="stroke"/>
<use x="485.94" y="318.00" xlink:href="#hd"/>
<path d="M489.44 318.00v-25.00" class="stroke"/>
<path class="fill"
	d="M489.44 293.00c0.6 5.6 9.6 9 5.6 18.4
	1.6 -6 -1.3 -11.6 -5.6 -12.8
"/>
<use x="485.94" y="312.00" xlink:href="#hd"/>
<path class="fill"
	d="M511.54 331.90l70.30 0.00v-3.20l-70.30 -0.00"/>
<path class="fill"
	d="M511.94 326.90l69.60 0.00v-3.20l-69.60 -0.00"/>
<use x="515.44" y="309.00" xlink:href="#hd"/>
<path d="M511.94 309.00v21.90" class="stroke"/>
<use x="515.44" y="315.00" xlink:href="#hd"/>
<use x="529.34" y="303.00" xlink:href="#hd"/>
<path d="M525.84 303.00v27.90" class="stroke"/>
<use x="543.24" y="309.00" xlink:href="#hd"/>
<path d="M539.74 309.00v21.90" class="stroke"/>
<use x="543.24" y="315.00" xlink:href="#hd"/>
<use x="557.14" y="303.00" xlink:href="#hd"/>
<path d="M553.64 303.00v27.90" class="stroke"/>
<use x="571.14" y="309.00" xlink:href="#hd"/>
<path d="M567.64 309.00v21.90" class="stroke"/>
<use x="571.14" y="315.00" xlink:href="#hd"/>
<use x="585.04" y="303.00" xlink:href="#hd"/>
<path d="M581.54 303.00v27.90" class="stroke"/>
<path class="fill"
	d="M606.14 331.90l70.30 0.00v-3.20l-70.30 -0.00"/>
<path class="fill"
	d="M606.54 326.90l69.60 0.00v-3.20l-69.60 -0.00"/>
<use x="610.04" y="309.00" xlink:href="#hd"/>
<path d="M606.54 309.00v21.90" class="stroke"/>
<use x="610.04" y="315.00" xlink:href="#hd"/>
<use x="623.94" y="303.00" xlink:href="#hd"/>
<path d="M620.44 303.00v27.90" class="stroke"/>
<use x="637.84" y="309.00" xlink:href="#hd"/>
<path d="M634.34 309.00v21.90" class="stroke"/>
<use x="637.84" y="315.00" xlink:href="#hd"/>
<use x="651.84" y="303.00" xlink:href="#hd"/>
<path d="M648.34 303.00v27.90" class="stroke"/>
<use x="665.74" y="309.00" xlink:href="#hd"/>
<path d="M662.24 309.00v21.90" class="stroke"/>
<use x="665.74" y="315.00" xlink:href="#hd"/>
<use x="679.64" y="303.00" xlink:href="#hd"/>
<path d="M676.14 303.00v27.90" class="stroke"/>
<use x="704.64" y="306.00" xlink:href="#hd"/>
<path d="M701.14 306.00v21.00" class="stroke"/>
<use x="764.44" y="303.00" xlink:href="#hd"/>
<path d="M760.94 303.00v21.00" class="stroke"/>
<path class="fill"
	d="M760.94 324.00c0.6 -5.6 9.6 -9 5.6 -18.4
	1.6 6 -1.3 11.6 -5.6 12.8
"/>
<path class="fill"
	d="M806.54 295.70l38.90 9.40v3.20l-38.90 -9.40"/>
<use x="803.34" y="315.00" xlink:href="#hd"/>
<path d="M806.84 315.00v-18.20" class="stroke"/>
<use x="822.44" y="324.00" xlink:href="#hd"/>
<path d="M825.94 324.00v-22.60" class="stroke"/>
<use x="841.54" y="330.00" xlink:href="#hl"/>
<use x="841.54" y="336.00" xlink:href="#hl"/>
<use x="841.54" y="336.00" xlink:href="#hd"/>
<path d="M845.04 336.00v-29.90" class="stroke"/>
<use x="438.94" y="318.00" xlink:href="#hd"/>
<path d="M435.44 318.00v21.00" class="stroke"/>
</g>
</svg>
