<?xml version="1.0" standalone="no"?>
<!DOCTYPE svg PUBLIC "-//W3C//DTD SVG 1.1//EN"
	"http://www.w3.org/Graphics/SVG/1.1/DTD/svg11.dtd">
<svg xmlns="http://www.w3.org/2000/svg" version="1.1"
	xmlns:xlink="http://www.w3.org/1999/xlink"
	color="black"
	width="757.10px" height="297.27px">
<style type="text/css">
.fill {fill: currentColor}
.stroke {stroke: currentColor; fill: none}
text{white-space: pre}
</style>
<title>./K516f-12-12-2-10-5-8-9-10-12-6-5-5-6-11-5-7.abc (1330) tune 1</title>
<!-- Creator: abcm2ps-8.13.8 -->
<!-- CreationDate: Sep  7, 2017 11:17 -->
<!-- CommandLine: ./K516f-12-12-2-10-5-8-9-10-12-6-5-5-6-11-5-7.abc -O ./K516f-12-12-2-10-5-8-9-10-12-6-5-5-6-11-5-7.svg -g -->
<rect width="100%" height="100%" fill="white"/>
<g stroke-width="0.70" transform="scale(0.867)">
<!-- title: 12-12-2-10-5-8-9-10-12-6-5-5-6-11-5-7 -->
</g>
<g stroke-width="0.70" transform="scale(0.867)" font-family="Times" font-size="20.00">
<text x="436.84" y="22.00" text-anchor="middle">12-12-2-10-5-8-9-10-12-6-5-5-6-11-5-7</text>
</g>
<g stroke-width="0.70" transform="scale(0.867)" font-family="Times" font-size="20.00">
<!-- subtitle: $1K.516f::54:130:141:156:161:133:169:123:35:143:7:34:76:59:52:151::$0 -->
</g>
<g stroke-width="0.70" transform="scale(0.867)" font-family="Courier" font-size="8.00" font-weight="bold">
<text x="436.84" y="41.80" text-anchor="middle">K.516f::54:130:141:156:161:133:169:123:35:143:7:34:76:59:52:151::</text>
</g>
<g stroke-width="0.70" transform="scale(0.867)" font-family="Courier" font-size="8.00" font-weight="bold">
<!-- subtitle: $1Perm. No.: 133041190350761$0 -->
<text x="436.84" y="60.80" text-anchor="middle">Perm. No.: 133041190350761</text>
</g>
<g stroke-width="0.70" transform="scale(0.607)" font-family="Courier" font-size="8.00" font-weight="bold">
<defs>
<ellipse id="hd" rx="4.1" ry="2.9"
	transform="rotate(-20)" class="fill"/>
</defs>
<use x="103.06" y="121.29" xlink:href="#hd"/>
<path d="M106.56 121.29v-21.00" class="stroke"/>
<path class="fill"
	d="M106.56 100.29c0.6 5.6 9.6 9 5.6 18.4
	1.6 -6 -1.3 -11.6 -5.6 -12.8
"/>
</g>
<g stroke-width="0.70" transform="scale(0.867)" font-family="Times" font-size="15.00" font-weight="bold">
<text x="81.24" y="87.00">= 111</text>
<path class="stroke" stroke-width="1"
	d="M11.54 187.00v-82.00"/>
<path class="fill"
	d="M6.54 102.00
	c10.5 1 12 -4.5 12 -3.5c0 1 -3.5 5.5 -8.5 5.5
	v84.00
	c5 0 8.5 4.5 8.5 5.5c0 1 -1.5 -4.5 -12 -3.5"/>
<defs>
<g id="rdots" class="fill">
	<circle cx="0" cy="-9" r="1.2"/>
	<circle cx="0" cy="-15" r="1.2"/>
</g>
</defs>
<use x="70.54" y="129.00" xlink:href="#rdots"/>
<path class="stroke" stroke-width="1"
	d="M66.54 129.00v-24.00"/>
<path class="stroke" stroke-width="3"
	d="M62.04 129.00v-24.00"/>
<use x="70.54" y="187.00" xlink:href="#rdots"/>
<path class="stroke" stroke-width="1"
	d="M66.54 187.00v-58.00"/>
<path class="stroke" stroke-width="3"
	d="M62.04 187.00v-58.00"/>
<path class="stroke" stroke-width="1"
	d="M153.24 129.00v-24.00"/>
<path class="stroke" stroke-width="1"
	d="M153.24 187.00v-58.00"/>
<path class="stroke" stroke-width="1"
	d="M234.94 129.00v-24.00"/>
<path class="stroke" stroke-width="1"
	d="M234.94 187.00v-58.00"/>
<path class="stroke" stroke-width="1"
	d="M348.84 129.00v-24.00"/>
<path class="stroke" stroke-width="1"
	d="M348.84 187.00v-58.00"/>
<path class="stroke" stroke-width="1"
	d="M450.84 129.00v-24.00"/>
<path class="stroke" stroke-width="1"
	d="M450.84 187.00v-58.00"/>
<path class="stroke" stroke-width="1"
	d="M537.64 129.00v-24.00"/>
<path class="stroke" stroke-width="1"
	d="M537.64 187.00v-58.00"/>
<path class="stroke" stroke-width="1"
	d="M641.24 129.00v-24.00"/>
<path class="stroke" stroke-width="1"
	d="M641.24 187.00v-58.00"/>
<path class="stroke" stroke-width="1"
	d="M755.84 129.00v-24.00"/>
<path class="stroke" stroke-width="1"
	d="M755.84 187.00v-58.00"/>
<path class="stroke" stroke-width="3"
	d="M860.54 129.00v-24.00"/>
<path class="stroke" stroke-width="1"
	d="M856.04 129.00v-24.00"/>
<use x="852.04" y="129.00" xlink:href="#rdots"/>
<path class="stroke" stroke-width="3"
	d="M860.54 187.00v-58.00"/>
<path class="stroke" stroke-width="1"
	d="M856.04 187.00v-58.00"/>
<use x="852.04" y="187.00" xlink:href="#rdots"/>
<path d="m11.54 129.00
	h850.50
	M11.54 123.00
	h850.50
	M11.54 117.00
	h850.50
	M11.54 111.00
	h850.50
	M11.54 105.00
	h850.50
	" class="stroke"/>
<path d="m11.54 187.00
	h850.50
	M11.54 181.00
	h850.50
	M11.54 175.00
	h850.50
	M11.54 169.00
	h850.50
	M11.54 163.00
	h850.50
	" class="stroke"/>
</g>
<g stroke-width="0.70" transform="scale(0.867)" font-family="Times" font-size="13.00">
<text x="759.84" y="90.40">1</text>
<path class="stroke"
	d="M755.84 79.00m0 20v-20h98.20v20"/>
<defs>
<path id="utclef" class="fill" d="m-50 -90
	c-72 -41 -72 -158 52 -188
	150 -10 220 188 90 256
	-114 52 -275 0 -293 -136
	-15 -181 93 -229 220 -334
	88 -87 79 -133 62 -210
	-51 33 -94 105 -89 186
	17 267 36 374 49 574
	6 96 -19 134 -77 135
	-80 1 -126 -93 -61 -133
	85 -41 133 101 31 105
	23 17 92 37 90 -92
	-10 -223 -39 -342 -50 -617
	0 -90 0 -162 96 -232
	56 72 63 230 22 289
	-74 106 -257 168 -255 316
	9 153 148 185 252 133
	86 -65 29 -192 -80 -176
	-71 12 -105 67 -59 124"/>
<use id="tclef" transform="translate(0,6) scale(0.045)"
	xlink:href="#utclef"/>
</defs>
<use x="23.54" y="123.00" xlink:href="#tclef"/>
<g font-family="serif" font-size="16" font-weight="bold" font-style="normal"
	transform="translate(42.04,128.50) scale(1.2,1)">
	<text text-anchor="middle">8</text>
	<text y="-12" text-anchor="middle">3</text>
</g>
<path class="fill"
	d="M88.34 95.00l49.60 0.00v3.20l-49.60 -0.00"/>
<use x="85.24" y="129.00" xlink:href="#hd"/>
<path d="M88.74 129.00v-33.00" class="stroke"/>
<use x="85.24" y="114.00" xlink:href="#hd"/>
<use x="109.74" y="129.00" xlink:href="#hd"/>
<path d="M113.24 129.00v-33.00" class="stroke"/>
<use x="109.74" y="114.00" xlink:href="#hd"/>
<use x="134.14" y="129.00" xlink:href="#hd"/>
<path d="M137.64 129.00v-33.00" class="stroke"/>
<use x="134.14" y="114.00" xlink:href="#hd"/>
<path class="fill"
	d="M170.14 95.00l49.60 0.00v3.20l-49.60 -0.00"/>
<use x="166.94" y="129.00" xlink:href="#hd"/>
<path d="M170.44 129.00v-33.00" class="stroke"/>
<use x="166.94" y="114.00" xlink:href="#hd"/>
<use x="191.44" y="129.00" xlink:href="#hd"/>
<path d="M194.94 129.00v-33.00" class="stroke"/>
<use x="191.44" y="114.00" xlink:href="#hd"/>
<use x="215.84" y="129.00" xlink:href="#hd"/>
<path d="M219.34 129.00v-33.00" class="stroke"/>
<use x="215.84" y="114.00" xlink:href="#hd"/>
<path class="fill"
	d="M244.84 136.90l87.30 0.00v-3.20l-87.30 -0.00"/>
<path class="fill"
	d="M245.14 131.90l86.60 0.00v-3.20l-86.60 -0.00"/>
<use x="248.64" y="111.00" xlink:href="#hd"/>
<path d="M245.14 111.00v24.90" class="stroke"/>
<use x="265.94" y="108.00" xlink:href="#hd"/>
<path d="M262.44 108.00v27.90" class="stroke"/>
<use x="283.34" y="105.00" xlink:href="#hd"/>
<path d="M279.84 105.00v30.90" class="stroke"/>
<use x="300.64" y="111.00" xlink:href="#hd"/>
<path d="M297.14 111.00v24.90" class="stroke"/>
<use x="317.94" y="114.00" xlink:href="#hd"/>
<path d="M314.44 114.00v21.90" class="stroke"/>
<use x="335.24" y="117.00" xlink:href="#hd"/>
<path d="M331.74 117.00v18.90" class="stroke"/>
<path class="fill"
	d="M358.64 146.80l70.00 -6.50v-3.20l-70.00 6.50"/>
<path class="fill"
	d="M359.04 141.80l52.00 -4.80v-3.20l-52.00 4.80"/>
<use x="362.54" y="114.00" xlink:href="#hd"/>
<path d="M359.04 114.00v31.80" class="stroke"/>
<use x="379.84" y="123.00" xlink:href="#hd"/>
<path d="M376.34 123.00v21.20" class="stroke"/>
<use x="397.14" y="108.00" xlink:href="#hd"/>
<path d="M393.64 108.00v34.60" class="stroke"/>
<use x="414.44" y="114.00" xlink:href="#hd"/>
<path d="M410.94 114.00v27.00" class="stroke"/>
<use x="431.74" y="102.00" xlink:href="#hd"/>
<path d="M428.24 102.00v37.40" class="stroke"/>
<path class="fill"
	d="M472.54 92.00l49.80 0.00v3.20l-49.80 -0.00"/>
<use x="469.34" y="126.00" xlink:href="#hd"/>
<defs>
<path id="usharp" class="fill" d="
	m136 -702
	v890
	h32
	v-890
	m128 840
	h32
	v-888
	h-32
	m-232 286
	v116
	l338 -96
	v-116
	m-338 442
	v116
	l338 -98
	v-114"/>
<use id="sh0" transform="translate(-4,5) scale(0.018)"
	xlink:href="#usharp"/>
</defs>
<use x="460.34" y="126.00" xlink:href="#sh0"/>
<path d="M472.84 126.00v-33.00" class="stroke"/>
<use x="469.34" y="111.00" xlink:href="#hd"/>
<use x="493.94" y="126.00" xlink:href="#hd"/>
<use x="484.94" y="126.00" xlink:href="#sh0"/>
<path d="M497.44 126.00v-33.00" class="stroke"/>
<use x="493.94" y="111.00" xlink:href="#hd"/>
<use x="518.54" y="126.00" xlink:href="#hd"/>
<use x="509.54" y="126.00" xlink:href="#sh0"/>
<path d="M522.04 126.00v-33.00" class="stroke"/>
<use x="518.54" y="111.00" xlink:href="#hd"/>
<path class="fill"
	d="M547.44 139.20l77.10 0.00v-3.20l-77.10 -0.00"/>
<path class="fill"
	d="M572.24 134.20l52.00 0.00v-3.20l-52.00 -0.00"/>
<use x="551.34" y="111.00" xlink:href="#hd"/>
<path d="M547.84 111.00v27.20" class="stroke"/>
<use x="575.74" y="102.00" xlink:href="#hd"/>
<path d="M572.24 102.00v36.20" class="stroke"/>
<use x="593.14" y="111.00" xlink:href="#hd"/>
<path d="M589.64 111.00v27.20" class="stroke"/>
<use x="610.44" y="117.00" xlink:href="#hd"/>
<path d="M606.94 117.00v21.20" class="stroke"/>
<use x="627.74" y="111.00" xlink:href="#hd"/>
<path d="M624.24 111.00v27.20" class="stroke"/>
<path class="fill"
	d="M651.14 142.20l88.00 0.00v-3.20l-88.00 -0.00"/>
<path class="fill"
	d="M651.44 137.20l87.30 0.00v-3.20l-87.30 -0.00"/>
<use x="654.94" y="108.00" xlink:href="#hd"/>
<path d="M651.44 108.00v33.20" class="stroke"/>
<use x="672.34" y="102.00" xlink:href="#hd"/>
<path d="M668.84 102.00v39.20" class="stroke"/>
<use x="689.64" y="111.00" xlink:href="#hd"/>
<path d="M686.14 111.00v30.20" class="stroke"/>
<use x="706.94" y="102.00" xlink:href="#hd"/>
<path d="M703.44 102.00v39.20" class="stroke"/>
<use x="724.24" y="120.00" xlink:href="#hd"/>
<path d="M720.74 120.00v21.20" class="stroke"/>
<use x="742.24" y="105.00" xlink:href="#hd"/>
<use x="733.24" y="105.00" xlink:href="#sh0"/>
<path d="M738.74 105.00v36.20" class="stroke"/>
<use x="769.44" y="102.00" xlink:href="#hd"/>
<path d="M765.94 102.00v40.00" class="stroke"/>
<use x="769.44" y="123.00" xlink:href="#hd"/>
<use x="769.44" y="117.00" xlink:href="#hd"/>
<use x="769.44" y="111.00" xlink:href="#hd"/>
<defs>
<path id="r8e" class="fill" d="m 0 0
	c-1.5 1.5 -2.4 2 -3.6 2
	2.4 -2.8 -2.8 -4 -2.8 -1.2
	c0 2.7 4.3 2.4 5.9 0.6"/>
<g id="r8">
	<path d="m3.3 -4l-3.4 9.6" class="stroke"/>
	<use x="3.4" y="-4" xlink:href="#r8e"/>
</g>
</defs>
<use x="829.24" y="117.00" xlink:href="#r8"/>
<defs>
<path id="ubclef" class="fill" d="m-200 -87
	c124 -35 222 -78 254 -236
	43 -228 -167 -246 -192 -103
	59 -80 157 22 92 78
	-62 47 -115 -22 -106 -88
	21 -141 270 -136 274 52
	-1 175 -106 264 -322 297
	m357 -250
	c0 -36 51 -34 51 0
	0 37 -51 36 -51 0
	m-2 -129
	c0 -36 51 -34 51 0
	0 38 -51 37 -51 0"/>
<use id="bclef" transform="translate(0,18) scale(0.045)"
	xlink:href="#ubclef"/>
</defs>
<use x="23.54" y="169.00" xlink:href="#bclef"/>
<g font-family="serif" font-size="16" font-weight="bold" font-style="normal"
	transform="translate(42.04,186.50) scale(1.2,1)">
	<text text-anchor="middle">8</text>
	<text y="-12" text-anchor="middle">3</text>
</g>
<path class="fill"
	d="M88.34 157.00l49.60 0.00v3.20l-49.60 -0.00"/>
<use x="85.24" y="178.00" xlink:href="#hd"/>
<path d="M88.74 178.00v-20.00" class="stroke"/>
<use x="109.74" y="178.00" xlink:href="#hd"/>
<path d="M113.24 178.00v-20.00" class="stroke"/>
<use x="134.14" y="178.00" xlink:href="#hd"/>
<path d="M137.64 178.00v-20.00" class="stroke"/>
<path class="fill"
	d="M170.14 157.00l49.60 0.00v3.20l-49.60 -0.00"/>
<use x="166.94" y="178.00" xlink:href="#hd"/>
<path d="M170.44 178.00v-20.00" class="stroke"/>
<use x="191.44" y="178.00" xlink:href="#hd"/>
<path d="M194.94 178.00v-20.00" class="stroke"/>
<use x="215.84" y="178.00" xlink:href="#hd"/>
<path d="M219.34 178.00v-20.00" class="stroke"/>
<use x="248.64" y="166.00" xlink:href="#hd"/>
<path d="M245.14 166.00v34.00" class="stroke"/>
<use x="248.64" y="181.00" xlink:href="#hd"/>
<use x="317.94" y="187.00" xlink:href="#hd"/>
<path d="M321.44 187.00v-21.00" class="stroke"/>
<path class="fill"
	d="M321.44 166.00c0.6 5.6 9.6 9 5.6 18.4
	1.6 -6 -1.3 -11.6 -5.6 -12.8
"/>
<use x="362.54" y="166.00" xlink:href="#hd"/>
<path d="M359.04 166.00v25.00" class="stroke"/>
<use x="362.54" y="172.00" xlink:href="#hd"/>
<use x="431.74" y="175.00" xlink:href="#r8"/>
<path class="fill"
	d="M472.54 157.00l49.80 0.00v3.20l-49.80 -0.00"/>
<use x="469.34" y="178.00" xlink:href="#hd"/>
<path d="M472.84 178.00v-20.00" class="stroke"/>
<use x="493.94" y="178.00" xlink:href="#hd"/>
<path d="M497.44 178.00v-20.00" class="stroke"/>
<use x="518.54" y="178.00" xlink:href="#hd"/>
<path d="M522.04 178.00v-20.00" class="stroke"/>
<use x="551.34" y="166.00" xlink:href="#hd"/>
<path d="M547.84 166.00v34.00" class="stroke"/>
<use x="551.34" y="181.00" xlink:href="#hd"/>
<use x="610.44" y="175.00" xlink:href="#r8"/>
<path class="fill"
	d="M658.14 151.60l70.00 8.30v3.20l-70.00 -8.30"/>
<use x="654.94" y="178.00" xlink:href="#hd"/>
<path d="M658.44 178.00v-25.30" class="stroke"/>
<use x="689.64" y="175.00" xlink:href="#hd"/>
<path d="M693.14 175.00v-18.20" class="stroke"/>
<defs>
<path id="hl" class="stroke" d="m-6 0h12"/>
</defs>
<use x="724.24" y="193.00" xlink:href="#hl"/>
<use x="724.24" y="196.00" xlink:href="#hd"/>
<path d="M727.74 196.00v-35.10" class="stroke"/>
<path class="fill"
	d="M765.64 206.20l77.80 0.00v-3.20l-77.80 -0.00"/>
<path class="fill"
	d="M790.44 201.20l52.60 0.00v-3.20l-52.60 -0.00"/>
<use x="769.44" y="187.00" xlink:href="#hd"/>
<path d="M765.94 187.00v18.20" class="stroke"/>
<use x="793.94" y="166.00" xlink:href="#hd"/>
<path d="M790.44 166.00v39.20" class="stroke"/>
<use x="811.94" y="169.00" xlink:href="#hd"/>
<defs>
<path id="unat" class="fill" d="
	m96 -750
	h-32
	v716
	l32 -8
	182 -54
	v282
	h32
	v-706
	l-34 10
	-180 50
	v-290
	m0 592
	v-190
	l182 -52
	v188"/>
<use id="nt0" transform="translate(-3,5) scale(0.018)"
	xlink:href="#unat"/>
</defs>
<use x="802.94" y="169.00" xlink:href="#nt0"/>
<path d="M808.44 169.00v36.20" class="stroke"/>
<use x="829.24" y="172.00" xlink:href="#hd"/>
<path d="M825.74 172.00v33.20" class="stroke"/>
<use x="846.64" y="175.00" xlink:href="#hd"/>
<path d="M843.14 175.00v30.20" class="stroke"/>
</g>
<g stroke-width="0.70" transform="scale(0.867)" font-family="Times" font-size="13.00">
<path class="stroke" stroke-width="1"
	d="M11.54 320.00v-82.00"/>
<path class="fill"
	d="M6.54 235.00
	c10.5 1 12 -4.5 12 -3.5c0 1 -3.5 5.5 -8.5 5.5
	v84.00
	c5 0 8.5 4.5 8.5 5.5c0 1 -1.5 -4.5 -12 -3.5"/>
<use x="143.64" y="262.00" xlink:href="#rdots"/>
<path class="stroke" stroke-width="1"
	d="M139.64 262.00v-24.00"/>
<path class="stroke" stroke-width="3"
	d="M135.14 262.00v-24.00"/>
<use x="143.64" y="320.00" xlink:href="#rdots"/>
<path class="stroke" stroke-width="1"
	d="M139.64 320.00v-58.00"/>
<path class="stroke" stroke-width="3"
	d="M135.14 320.00v-58.00"/>
<path class="stroke" stroke-width="1"
	d="M221.54 262.00v-24.00"/>
<path class="stroke" stroke-width="1"
	d="M221.54 320.00v-58.00"/>
<path class="stroke" stroke-width="1"
	d="M301.14 262.00v-24.00"/>
<path class="stroke" stroke-width="1"
	d="M301.14 320.00v-58.00"/>
<path class="stroke" stroke-width="1"
	d="M399.94 262.00v-24.00"/>
<path class="stroke" stroke-width="1"
	d="M399.94 320.00v-58.00"/>
<path class="stroke" stroke-width="1"
	d="M487.94 262.00v-24.00"/>
<path class="stroke" stroke-width="1"
	d="M487.94 320.00v-58.00"/>
<path class="stroke" stroke-width="1"
	d="M587.04 262.00v-24.00"/>
<path class="stroke" stroke-width="1"
	d="M587.04 320.00v-58.00"/>
<path class="stroke" stroke-width="1"
	d="M685.94 262.00v-24.00"/>
<path class="stroke" stroke-width="1"
	d="M685.94 320.00v-58.00"/>
<path class="stroke" stroke-width="1"
	d="M787.94 262.00v-24.00"/>
<path class="stroke" stroke-width="1"
	d="M787.94 320.00v-58.00"/>
<path class="stroke" stroke-width="3"
	d="M860.54 262.00v-24.00"/>
<path class="stroke" stroke-width="1"
	d="M856.04 262.00v-24.00"/>
<use x="852.04" y="262.00" xlink:href="#rdots"/>
<path class="stroke" stroke-width="3"
	d="M860.54 320.00v-58.00"/>
<path class="stroke" stroke-width="1"
	d="M856.04 320.00v-58.00"/>
<use x="852.04" y="320.00" xlink:href="#rdots"/>
<path d="m11.54 262.00
	h850.50
	M11.54 256.00
	h850.50
	M11.54 250.00
	h850.50
	M11.54 244.00
	h850.50
	M11.54 238.00
	h850.50
	" class="stroke"/>
<path d="m11.54 320.00
	h850.50
	M11.54 314.00
	h850.50
	M11.54 308.00
	h850.50
	M11.54 302.00
	h850.50
	M11.54 296.00
	h850.50
	" class="stroke"/>
<path class="fill"
	d="M698.44 238.00c2.76 -3.95 14.74 -4.43 17.50 -0.70
	v-0.22c-3.28 -5.51 -14.22 -5.03 -17.50 0.92"/>
<text x="47.54" y="223.40">2</text>
<path class="stroke"
	d="M43.54 212.00m0 20v-20h89.10v20"/>
<use x="23.54" y="256.00" xlink:href="#tclef"/>
<use x="56.04" y="235.00" xlink:href="#hd"/>
<path d="M52.54 235.00v40.00" class="stroke"/>
<use x="56.04" y="256.00" xlink:href="#hd"/>
<use x="56.04" y="250.00" xlink:href="#hd"/>
<use x="56.04" y="244.00" xlink:href="#hd"/>
<use x="109.34" y="250.00" xlink:href="#r8"/>
<path class="fill"
	d="M159.24 272.30l42.60 -6.40v-3.20l-42.60 6.40"/>
<use x="163.14" y="253.00" xlink:href="#hd"/>
<path d="M159.64 253.00v18.20" class="stroke"/>
<use x="183.64" y="244.00" xlink:href="#hd"/>
<path d="M180.14 244.00v24.10" class="stroke"/>
<use x="205.04" y="238.00" xlink:href="#hd"/>
<use x="196.04" y="238.00" xlink:href="#sh0"/>
<path d="M201.54 238.00v26.90" class="stroke"/>
<path class="fill"
	d="M230.14 266.70l50.80 8.50v-3.20l-50.80 -8.50"/>
<path class="fill"
	d="M251.04 265.20l14.80 2.50v-3.20l-14.80 -2.50"/>
<use x="234.04" y="235.00" xlink:href="#hd"/>
<path d="M230.54 235.00v30.80" class="stroke"/>
<use x="254.54" y="244.00" xlink:href="#hd"/>
<path d="M251.04 244.00v25.20" class="stroke"/>
<use x="269.34" y="250.00" xlink:href="#hd"/>
<path d="M265.84 250.00v21.70" class="stroke"/>
<use x="284.14" y="256.00" xlink:href="#hd"/>
<path d="M280.64 256.00v18.20" class="stroke"/>
<path class="fill"
	d="M309.74 270.60l74.50 -6.80v-3.20l-74.50 6.80"/>
<path class="fill"
	d="M310.14 265.50l73.80 -6.70v-3.20l-73.80 6.70"/>
<use x="313.64" y="241.00" xlink:href="#hd"/>
<path d="M310.14 241.00v28.50" class="stroke"/>
<use x="328.34" y="247.00" xlink:href="#hd"/>
<path d="M324.84 247.00v21.20" class="stroke"/>
<use x="343.14" y="241.00" xlink:href="#hd"/>
<path d="M339.64 241.00v25.90" class="stroke"/>
<use x="357.94" y="235.00" xlink:href="#hd"/>
<path d="M354.44 235.00v30.50" class="stroke"/>
<use x="372.64" y="232.00" xlink:href="#hl"/>
<use x="372.64" y="226.00" xlink:href="#hl"/>
<use x="372.64" y="226.00" xlink:href="#hd"/>
<path d="M369.14 226.00v38.20" class="stroke"/>
<use x="387.44" y="235.00" xlink:href="#hd"/>
<path d="M383.94 235.00v27.80" class="stroke"/>
<path class="fill"
	d="M408.54 268.90l59.70 6.30v-3.20l-59.70 -6.30"/>
<path class="fill"
	d="M408.94 264.00l44.30 4.70v-3.20l-44.30 -4.70"/>
<use x="412.44" y="241.00" xlink:href="#hd"/>
<path d="M408.94 241.00v27.00" class="stroke"/>
<use x="427.14" y="247.00" xlink:href="#hd"/>
<path d="M423.64 247.00v22.50" class="stroke"/>
<use x="441.94" y="244.00" xlink:href="#hd"/>
<path d="M438.44 244.00v27.10" class="stroke"/>
<use x="456.74" y="250.00" xlink:href="#hd"/>
<path d="M453.24 250.00v22.60" class="stroke"/>
<use x="471.44" y="256.00" xlink:href="#hd"/>
<path d="M467.94 256.00v18.20" class="stroke"/>
<path class="fill"
	d="M496.64 259.90l74.80 9.30v-3.20l-74.80 -9.30"/>
<path class="fill"
	d="M496.94 254.90l74.10 9.30v-3.20l-74.10 -9.30"/>
<use x="500.44" y="232.00" xlink:href="#hl"/>
<use x="500.44" y="226.00" xlink:href="#hl"/>
<use x="500.44" y="226.00" xlink:href="#hd"/>
<path d="M496.94 226.00v32.90" class="stroke"/>
<use x="515.34" y="232.00" xlink:href="#hl"/>
<use x="515.34" y="229.00" xlink:href="#hd"/>
<path d="M511.84 229.00v31.80" class="stroke"/>
<use x="530.24" y="232.00" xlink:href="#hl"/>
<use x="530.24" y="226.00" xlink:href="#hl"/>
<use x="530.24" y="226.00" xlink:href="#hd"/>
<path d="M526.74 226.00v36.70" class="stroke"/>
<use x="545.04" y="235.00" xlink:href="#hd"/>
<path d="M541.54 235.00v29.50" class="stroke"/>
<use x="559.84" y="241.00" xlink:href="#hd"/>
<path d="M556.34 241.00v25.40" class="stroke"/>
<use x="574.54" y="247.00" xlink:href="#hd"/>
<path d="M571.04 247.00v21.20" class="stroke"/>
<path class="fill"
	d="M595.74 264.60l59.70 3.20v-3.20l-59.70 -3.20"/>
<use x="599.54" y="235.00" xlink:href="#hd"/>
<path d="M596.04 235.00v28.60" class="stroke"/>
<use x="629.14" y="247.00" xlink:href="#hd"/>
<path d="M625.64 247.00v18.20" class="stroke"/>
<use x="658.64" y="241.00" xlink:href="#hd"/>
<path d="M655.14 241.00v25.80" class="stroke"/>
<path class="fill"
	d="M694.54 278.20l77.70 0.00v-3.20l-77.70 -0.00"/>
<path class="fill"
	d="M694.94 273.20l77.10 0.00v-3.20l-77.10 -0.00"/>
<use x="698.44" y="244.00" xlink:href="#hd"/>
<path d="M694.94 244.00v33.20" class="stroke"/>
<use x="716.44" y="247.00" xlink:href="#hd"/>
<use x="707.44" y="247.00" xlink:href="#sh0"/>
<path d="M712.94 247.00v30.20" class="stroke"/>
<use x="731.14" y="244.00" xlink:href="#hd"/>
<path d="M727.64 244.00v33.20" class="stroke"/>
<use x="745.94" y="238.00" xlink:href="#hd"/>
<path d="M742.44 238.00v39.20" class="stroke"/>
<use x="760.64" y="256.00" xlink:href="#hd"/>
<path d="M757.14 256.00v21.20" class="stroke"/>
<use x="775.44" y="250.00" xlink:href="#hd"/>
<path d="M771.94 250.00v27.20" class="stroke"/>
<use x="800.44" y="247.00" xlink:href="#hd"/>
<path d="M796.94 247.00v21.00" class="stroke"/>
<use x="841.54" y="250.00" xlink:href="#r8"/>
<use x="23.54" y="302.00" xlink:href="#bclef"/>
<path class="fill"
	d="M52.24 339.20l68.80 -5.00v-3.20l-68.80 5.00"/>
<path class="fill"
	d="M73.04 332.70l47.50 -3.50v-3.20l-47.50 3.50"/>
<use x="56.04" y="320.00" xlink:href="#hd"/>
<path d="M52.54 320.00v18.20" class="stroke"/>
<use x="76.54" y="293.00" xlink:href="#hd"/>
<path d="M73.04 293.00v43.70" class="stroke"/>
<use x="91.34" y="299.00" xlink:href="#hd"/>
<path d="M87.84 299.00v36.60" class="stroke"/>
<use x="109.34" y="302.00" xlink:href="#hd"/>
<use x="100.34" y="302.00" xlink:href="#sh0"/>
<path d="M105.84 302.00v32.30" class="stroke"/>
<use x="124.14" y="305.00" xlink:href="#hd"/>
<path d="M120.64 305.00v28.30" class="stroke"/>
<use x="163.14" y="302.00" xlink:href="#hd"/>
<use x="154.14" y="302.00" xlink:href="#sh0"/>
<path d="M159.64 302.00v25.00" class="stroke"/>
<use x="163.14" y="308.00" xlink:href="#hd"/>
<use x="205.04" y="296.00" xlink:href="#hd"/>
<path d="M201.54 296.00v34.00" class="stroke"/>
<path class="fill"
	d="M201.54 330.00c0.6 -5.6 9.6 -9 5.6 -18.4
	1.6 6 -1.3 11.6 -5.6 12.8
"/>
<use x="205.04" y="311.00" xlink:href="#hd"/>
<use x="234.04" y="314.00" xlink:href="#hd"/>
<path d="M237.54 314.00v-25.00" class="stroke"/>
<use x="234.04" y="308.00" xlink:href="#hd"/>
<use x="284.14" y="314.00" xlink:href="#hd"/>
<path d="M287.64 314.00v-25.00" class="stroke"/>
<path class="fill"
	d="M287.64 289.00c0.6 5.6 9.6 9 5.6 18.4
	1.6 -6 -1.3 -11.6 -5.6 -12.8
"/>
<use x="284.14" y="308.00" xlink:href="#hd"/>
<use x="313.64" y="299.00" xlink:href="#hd"/>
<path d="M310.14 299.00v31.00" class="stroke"/>
<use x="313.64" y="311.00" xlink:href="#hd"/>
<use x="372.64" y="308.00" xlink:href="#r8"/>
<use x="412.44" y="299.00" xlink:href="#hd"/>
<path d="M408.94 299.00v21.00" class="stroke"/>
<use x="471.44" y="308.00" xlink:href="#r8"/>
<use x="500.44" y="305.00" xlink:href="#hd"/>
<path d="M496.94 305.00v25.00" class="stroke"/>
<use x="500.44" y="311.00" xlink:href="#hd"/>
<use x="559.84" y="299.00" xlink:href="#hd"/>
<path d="M556.34 299.00v31.00" class="stroke"/>
<path class="fill"
	d="M556.34 330.00c0.6 -5.6 9.6 -9 5.6 -18.4
	1.6 6 -1.3 11.6 -5.6 12.8
"/>
<use x="559.84" y="311.00" xlink:href="#hd"/>
<path class="fill"
	d="M595.74 327.90l74.50 0.00v-3.20l-74.50 -0.00"/>
<path class="fill"
	d="M596.04 322.90l73.80 0.00v-3.20l-73.80 -0.00"/>
<use x="599.54" y="305.00" xlink:href="#hd"/>
<path d="M596.04 305.00v21.90" class="stroke"/>
<use x="599.54" y="311.00" xlink:href="#hd"/>
<use x="614.34" y="299.00" xlink:href="#hd"/>
<path d="M610.84 299.00v27.90" class="stroke"/>
<use x="629.14" y="305.00" xlink:href="#hd"/>
<path d="M625.64 305.00v21.90" class="stroke"/>
<use x="629.14" y="311.00" xlink:href="#hd"/>
<use x="643.84" y="299.00" xlink:href="#hd"/>
<path d="M640.34 299.00v27.90" class="stroke"/>
<use x="658.64" y="305.00" xlink:href="#hd"/>
<path d="M655.14 305.00v21.90" class="stroke"/>
<use x="658.64" y="311.00" xlink:href="#hd"/>
<use x="673.44" y="299.00" xlink:href="#hd"/>
<path d="M669.94 299.00v27.90" class="stroke"/>
<use x="698.44" y="302.00" xlink:href="#hd"/>
<path d="M694.94 302.00v21.00" class="stroke"/>
<use x="760.64" y="299.00" xlink:href="#hd"/>
<path d="M757.14 299.00v21.00" class="stroke"/>
<path class="fill"
	d="M757.14 320.00c0.6 -5.6 9.6 -9 5.6 -18.4
	1.6 6 -1.3 11.6 -5.6 12.8
"/>
<path class="fill"
	d="M803.64 291.70l41.80 9.80v3.20l-41.80 -9.80"/>
<use x="800.44" y="311.00" xlink:href="#hd"/>
<path d="M803.94 311.00v-18.20" class="stroke"/>
<use x="821.04" y="320.00" xlink:href="#hd"/>
<path d="M824.54 320.00v-22.40" class="stroke"/>
<use x="841.54" y="326.00" xlink:href="#hl"/>
<use x="841.54" y="332.00" xlink:href="#hl"/>
<use x="841.54" y="332.00" xlink:href="#hd"/>
<path d="M845.04 332.00v-29.60" class="stroke"/>
</g>
</svg>
