<?xml version="1.0" standalone="no"?>
<!DOCTYPE svg PUBLIC "-//W3C//DTD SVG 1.1//EN"
	"http://www.w3.org/Graphics/SVG/1.1/DTD/svg11.dtd">
<svg xmlns="http://www.w3.org/2000/svg" version="1.1"
	xmlns:xlink="http://www.w3.org/1999/xlink"
	color="black"
	width="757.10px" height="296.40px">
<style type="text/css">
.fill {fill: currentColor}
.stroke {stroke: currentColor; fill: none}
text{white-space: pre}
</style>
<title>./K516f-7-8-4-8-2-10-6-5-7-4-2-11-6-6-5-9.abc (1174) tune 1</title>
<!-- Creator: abcm2ps-8.13.8 -->
<!-- CreationDate: Sep  7, 2017 11:19 -->
<!-- CommandLine: ./K516f-7-8-4-8-2-10-6-5-7-4-2-11-6-6-5-9.abc -O ./K516f-7-8-4-8-2-10-6-5-7-4-2-11-6-6-5-9.svg -g -->
<rect width="100%" height="100%" fill="white"/>
<g stroke-width="0.70" transform="scale(0.867)">
<!-- title: 7-8-4-8-2-10-6-5-7-4-2-11-6-6-5-9 -->
</g>
<g stroke-width="0.70" transform="scale(0.867)" font-family="Times" font-size="20.00">
<text x="436.84" y="22.00" text-anchor="middle">7-8-4-8-2-10-6-5-7-4-2-11-6-6-5-9</text>
</g>
<g stroke-width="0.70" transform="scale(0.867)" font-family="Times" font-size="20.00">
<!-- subtitle: $1K.516f::104:60:158:53:105:129:36:100:138:139:26:164:76:136:52:111::$0 -->
</g>
<g stroke-width="0.70" transform="scale(0.867)" font-family="Courier" font-size="8.00" font-weight="bold">
<text x="436.84" y="41.80" text-anchor="middle">K.516f::104:60:158:53:105:129:36:100:138:139:26:164:76:136:52:111::</text>
</g>
<g stroke-width="0.70" transform="scale(0.867)" font-family="Courier" font-size="8.00" font-weight="bold">
<!-- subtitle: $1Perm. No.: 117497067979099$0 -->
<text x="436.84" y="60.80" text-anchor="middle">Perm. No.: 117497067979099</text>
</g>
<g stroke-width="0.70" transform="scale(0.607)" font-family="Courier" font-size="8.00" font-weight="bold">
<defs>
<ellipse id="hd" rx="4.1" ry="2.9"
	transform="rotate(-20)" class="fill"/>
</defs>
<use x="103.06" y="121.29" xlink:href="#hd"/>
<path d="M106.56 121.29v-21.00" class="stroke"/>
<path class="fill"
	d="M106.56 100.29c0.6 5.6 9.6 9 5.6 18.4
	1.6 -6 -1.3 -11.6 -5.6 -12.8
"/>
</g>
<g stroke-width="0.70" transform="scale(0.867)" font-family="Times" font-size="15.00" font-weight="bold">
<text x="81.24" y="87.00">= 111</text>
<path class="stroke" stroke-width="1"
	d="M11.54 183.00v-82.00"/>
<path class="fill"
	d="M6.54 98.00
	c10.5 1 12 -4.5 12 -3.5c0 1 -3.5 5.5 -8.5 5.5
	v84.00
	c5 0 8.5 4.5 8.5 5.5c0 1 -1.5 -4.5 -12 -3.5"/>
<defs>
<g id="rdots" class="fill">
	<circle cx="0" cy="-9" r="1.2"/>
	<circle cx="0" cy="-15" r="1.2"/>
</g>
</defs>
<use x="70.54" y="125.00" xlink:href="#rdots"/>
<path class="stroke" stroke-width="1"
	d="M66.54 125.00v-24.00"/>
<path class="stroke" stroke-width="3"
	d="M62.04 125.00v-24.00"/>
<use x="70.54" y="183.00" xlink:href="#rdots"/>
<path class="stroke" stroke-width="1"
	d="M66.54 183.00v-58.00"/>
<path class="stroke" stroke-width="3"
	d="M62.04 183.00v-58.00"/>
<path class="stroke" stroke-width="1"
	d="M177.44 125.00v-24.00"/>
<path class="stroke" stroke-width="1"
	d="M177.44 183.00v-58.00"/>
<path class="stroke" stroke-width="1"
	d="M273.74 125.00v-24.00"/>
<path class="stroke" stroke-width="1"
	d="M273.74 183.00v-58.00"/>
<path class="stroke" stroke-width="1"
	d="M370.14 125.00v-24.00"/>
<path class="stroke" stroke-width="1"
	d="M370.14 183.00v-58.00"/>
<path class="stroke" stroke-width="1"
	d="M455.44 125.00v-24.00"/>
<path class="stroke" stroke-width="1"
	d="M455.44 183.00v-58.00"/>
<path class="stroke" stroke-width="1"
	d="M557.44 125.00v-24.00"/>
<path class="stroke" stroke-width="1"
	d="M557.44 183.00v-58.00"/>
<path class="stroke" stroke-width="1"
	d="M654.24 125.00v-24.00"/>
<path class="stroke" stroke-width="1"
	d="M654.24 183.00v-58.00"/>
<path class="stroke" stroke-width="1"
	d="M762.04 125.00v-24.00"/>
<path class="stroke" stroke-width="1"
	d="M762.04 183.00v-58.00"/>
<path class="stroke" stroke-width="3"
	d="M860.54 125.00v-24.00"/>
<path class="stroke" stroke-width="1"
	d="M856.04 125.00v-24.00"/>
<use x="852.04" y="125.00" xlink:href="#rdots"/>
<path class="stroke" stroke-width="3"
	d="M860.54 183.00v-58.00"/>
<path class="stroke" stroke-width="1"
	d="M856.04 183.00v-58.00"/>
<use x="852.04" y="183.00" xlink:href="#rdots"/>
<path d="m11.54 125.00
	h850.50
	M11.54 119.00
	h850.50
	M11.54 113.00
	h850.50
	M11.54 107.00
	h850.50
	M11.54 101.00
	h850.50
	" class="stroke"/>
<path d="m11.54 183.00
	h850.50
	M11.54 177.00
	h850.50
	M11.54 171.00
	h850.50
	M11.54 165.00
	h850.50
	M11.54 159.00
	h850.50
	" class="stroke"/>
</g>
<g stroke-width="0.70" transform="scale(0.867)" font-family="Times" font-size="13.00">
<text x="766.04" y="86.40">1</text>
<path class="stroke"
	d="M762.04 75.00m0 20v-20h92.00v20"/>
<defs>
<path id="utclef" class="fill" d="m-50 -90
	c-72 -41 -72 -158 52 -188
	150 -10 220 188 90 256
	-114 52 -275 0 -293 -136
	-15 -181 93 -229 220 -334
	88 -87 79 -133 62 -210
	-51 33 -94 105 -89 186
	17 267 36 374 49 574
	6 96 -19 134 -77 135
	-80 1 -126 -93 -61 -133
	85 -41 133 101 31 105
	23 17 92 37 90 -92
	-10 -223 -39 -342 -50 -617
	0 -90 0 -162 96 -232
	56 72 63 230 22 289
	-74 106 -257 168 -255 316
	9 153 148 185 252 133
	86 -65 29 -192 -80 -176
	-71 12 -105 67 -59 124"/>
<use id="tclef" transform="translate(0,6) scale(0.045)"
	xlink:href="#utclef"/>
</defs>
<use x="23.54" y="119.00" xlink:href="#tclef"/>
<g font-family="serif" font-size="16" font-weight="bold" font-style="normal"
	transform="translate(42.04,124.50) scale(1.2,1)">
	<text text-anchor="middle">8</text>
	<text y="-12" text-anchor="middle">3</text>
</g>
<path class="fill"
	d="M80.54 130.50l81.00 -6.30v-3.20l-81.00 6.30"/>
<path class="fill"
	d="M80.94 125.50l80.30 -6.30v-3.20l-80.30 6.30"/>
<use x="84.44" y="104.00" xlink:href="#hd"/>
<path d="M80.94 104.00v25.50" class="stroke"/>
<use x="100.44" y="107.00" xlink:href="#hd"/>
<path d="M96.94 107.00v21.20" class="stroke"/>
<use x="116.54" y="104.00" xlink:href="#hd"/>
<path d="M113.04 104.00v22.90" class="stroke"/>
<use x="132.54" y="98.00" xlink:href="#hd"/>
<path d="M129.04 98.00v27.70" class="stroke"/>
<defs>
<path id="hl" class="stroke" d="m-6 0h12"/>
</defs>
<use x="148.64" y="95.00" xlink:href="#hl"/>
<use x="148.64" y="89.00" xlink:href="#hl"/>
<use x="148.64" y="89.00" xlink:href="#hd"/>
<path d="M145.14 89.00v35.40" class="stroke"/>
<use x="164.74" y="98.00" xlink:href="#hd"/>
<path d="M161.24 98.00v25.20" class="stroke"/>
<path class="fill"
	d="M186.44 123.10l71.40 9.10v-3.20l-71.40 -9.10"/>
<path class="fill"
	d="M209.34 121.00l48.20 6.20v-3.20l-48.20 -6.20"/>
<use x="190.34" y="98.00" xlink:href="#hd"/>
<path d="M186.84 98.00v24.20" class="stroke"/>
<use x="212.84" y="101.00" xlink:href="#hd"/>
<path d="M209.34 101.00v24.00" class="stroke"/>
<use x="228.94" y="104.00" xlink:href="#hd"/>
<path d="M225.44 104.00v23.10" class="stroke"/>
<use x="244.94" y="107.00" xlink:href="#hd"/>
<path d="M241.44 107.00v22.10" class="stroke"/>
<use x="261.04" y="110.00" xlink:href="#hd"/>
<path d="M257.54 110.00v21.20" class="stroke"/>
<path class="fill"
	d="M289.74 84.80l71.40 0.00v3.20l-71.40 -0.00"/>
<path class="fill"
	d="M312.74 89.80l48.20 0.00v3.20l-48.20 -0.00"/>
<use x="286.64" y="113.00" xlink:href="#hd"/>
<path d="M290.14 113.00v-27.20" class="stroke"/>
<use x="309.24" y="107.00" xlink:href="#hd"/>
<path d="M312.74 107.00v-21.20" class="stroke"/>
<use x="325.24" y="113.00" xlink:href="#hd"/>
<path d="M328.74 113.00v-27.20" class="stroke"/>
<use x="341.34" y="116.00" xlink:href="#hd"/>
<path d="M344.84 116.00v-30.20" class="stroke"/>
<use x="357.34" y="119.00" xlink:href="#hd"/>
<path d="M360.84 119.00v-33.20" class="stroke"/>
<path class="fill"
	d="M379.14 127.00l55.40 0.00v-3.20l-55.40 -0.00"/>
<path class="fill"
	d="M402.04 122.00l16.10 0.00v-3.20l-16.10 -0.00"/>
<use x="382.94" y="104.00" xlink:href="#hd"/>
<path d="M379.44 104.00v22.00" class="stroke"/>
<use x="382.94" y="110.00" xlink:href="#hd"/>
<use x="405.54" y="104.00" xlink:href="#hd"/>
<path d="M402.04 104.00v22.00" class="stroke"/>
<use x="405.54" y="110.00" xlink:href="#hd"/>
<use x="421.54" y="101.00" xlink:href="#hd"/>
<path d="M418.04 101.00v25.00" class="stroke"/>
<use x="421.54" y="107.00" xlink:href="#hd"/>
<use x="437.64" y="98.00" xlink:href="#hd"/>
<path d="M434.14 98.00v28.00" class="stroke"/>
<use x="437.64" y="104.00" xlink:href="#hd"/>
<path class="fill"
	d="M470.14 127.00l71.40 0.00v-3.20l-71.40 -0.00"/>
<path class="fill"
	d="M493.04 122.00l48.20 0.00v-3.20l-48.20 -0.00"/>
<use x="473.94" y="101.00" xlink:href="#hd"/>
<defs>
<path id="usharp" class="fill" d="
	m136 -702
	v890
	h32
	v-890
	m128 840
	h32
	v-888
	h-32
	m-232 286
	v116
	l338 -96
	v-116
	m-338 442
	v116
	l338 -98
	v-114"/>
<use id="sh0" transform="translate(-4,5) scale(0.018)"
	xlink:href="#usharp"/>
</defs>
<use x="464.94" y="101.00" xlink:href="#sh0"/>
<path d="M470.44 101.00v25.00" class="stroke"/>
<use x="496.54" y="95.00" xlink:href="#hl"/>
<use x="496.54" y="95.00" xlink:href="#hd"/>
<path d="M493.04 95.00v31.00" class="stroke"/>
<use x="512.54" y="101.00" xlink:href="#hd"/>
<path d="M509.04 101.00v25.00" class="stroke"/>
<use x="528.64" y="107.00" xlink:href="#hd"/>
<path d="M525.14 107.00v19.00" class="stroke"/>
<use x="544.64" y="101.00" xlink:href="#hd"/>
<path d="M541.14 101.00v25.00" class="stroke"/>
<path class="fill"
	d="M566.44 121.30l66.90 4.90v-3.20l-66.90 -4.90"/>
<path class="fill"
	d="M566.74 116.30l50.10 3.70v-3.20l-50.10 -3.70"/>
<use x="570.24" y="95.00" xlink:href="#hl"/>
<use x="570.24" y="95.00" xlink:href="#hd"/>
<path d="M566.74 95.00v25.30" class="stroke"/>
<use x="586.34" y="98.00" xlink:href="#hd"/>
<path d="M582.84 98.00v23.50" class="stroke"/>
<use x="604.34" y="101.00" xlink:href="#hd"/>
<use x="595.34" y="101.00" xlink:href="#sh0"/>
<path d="M600.84 101.00v21.80" class="stroke"/>
<use x="620.34" y="98.00" xlink:href="#hd"/>
<path d="M616.84 98.00v26.00" class="stroke"/>
<use x="636.44" y="107.00" xlink:href="#hd"/>
<path d="M632.94 107.00v18.20" class="stroke"/>
<path class="fill"
	d="M663.24 138.20l82.90 -8.40v-3.20l-82.90 8.40"/>
<path class="fill"
	d="M663.64 133.20l82.20 -8.30v-3.20l-82.20 8.30"/>
<use x="667.14" y="116.00" xlink:href="#hd"/>
<path d="M663.64 116.00v21.20" class="stroke"/>
<use x="683.14" y="104.00" xlink:href="#hd"/>
<path d="M679.64 104.00v31.60" class="stroke"/>
<use x="699.24" y="107.00" xlink:href="#hd"/>
<path d="M695.74 107.00v26.90" class="stroke"/>
<use x="715.24" y="98.00" xlink:href="#hd"/>
<path d="M711.74 98.00v34.30" class="stroke"/>
<use x="733.24" y="101.00" xlink:href="#hd"/>
<use x="724.24" y="101.00" xlink:href="#sh0"/>
<path d="M729.74 101.00v29.50" class="stroke"/>
<use x="749.34" y="95.00" xlink:href="#hl"/>
<use x="749.34" y="95.00" xlink:href="#hd"/>
<path d="M745.84 95.00v33.90" class="stroke"/>
<use x="774.94" y="98.00" xlink:href="#hd"/>
<path d="M771.44 98.00v40.00" class="stroke"/>
<use x="774.94" y="119.00" xlink:href="#hd"/>
<use x="774.94" y="113.00" xlink:href="#hd"/>
<use x="774.94" y="107.00" xlink:href="#hd"/>
<defs>
<path id="r8e" class="fill" d="m 0 0
	c-1.5 1.5 -2.4 2 -3.6 2
	2.4 -2.8 -2.8 -4 -2.8 -1.2
	c0 2.7 4.3 2.4 5.9 0.6"/>
<g id="r8">
	<path d="m3.3 -4l-3.4 9.6" class="stroke"/>
	<use x="3.4" y="-4" xlink:href="#r8e"/>
</g>
</defs>
<use x="831.54" y="113.00" xlink:href="#r8"/>
<defs>
<path id="ubclef" class="fill" d="m-200 -87
	c124 -35 222 -78 254 -236
	43 -228 -167 -246 -192 -103
	59 -80 157 22 92 78
	-62 47 -115 -22 -106 -88
	21 -141 270 -136 274 52
	-1 175 -106 264 -322 297
	m357 -250
	c0 -36 51 -34 51 0
	0 37 -51 36 -51 0
	m-2 -129
	c0 -36 51 -34 51 0
	0 38 -51 37 -51 0"/>
<use id="bclef" transform="translate(0,18) scale(0.045)"
	xlink:href="#ubclef"/>
</defs>
<use x="23.54" y="165.00" xlink:href="#bclef"/>
<g font-family="serif" font-size="16" font-weight="bold" font-style="normal"
	transform="translate(42.04,182.50) scale(1.2,1)">
	<text text-anchor="middle">8</text>
	<text y="-12" text-anchor="middle">3</text>
</g>
<use x="84.44" y="174.00" xlink:href="#hd"/>
<path d="M87.94 174.00v-21.00" class="stroke"/>
<use x="148.64" y="171.00" xlink:href="#r8"/>
<use x="190.34" y="168.00" xlink:href="#hd"/>
<path d="M186.84 168.00v25.00" class="stroke"/>
<use x="190.34" y="174.00" xlink:href="#hd"/>
<use x="244.94" y="171.00" xlink:href="#r8"/>
<use x="286.64" y="162.00" xlink:href="#hd"/>
<path d="M283.14 162.00v21.00" class="stroke"/>
<use x="341.34" y="171.00" xlink:href="#r8"/>
<use x="382.94" y="174.00" xlink:href="#hd"/>
<path d="M386.44 174.00v-21.00" class="stroke"/>
<use x="437.64" y="171.00" xlink:href="#r8"/>
<use x="473.94" y="174.00" xlink:href="#hd"/>
<path d="M477.44 174.00v-21.00" class="stroke"/>
<use x="528.64" y="171.00" xlink:href="#r8"/>
<path class="fill"
	d="M573.44 149.40l66.90 -4.60v3.20l-66.90 4.60"/>
<use x="570.24" y="177.00" xlink:href="#hd"/>
<path d="M573.74 177.00v-26.60" class="stroke"/>
<use x="570.24" y="171.00" xlink:href="#hd"/>
<use x="604.34" y="177.00" xlink:href="#hd"/>
<path d="M607.84 177.00v-29.00" class="stroke"/>
<use x="604.34" y="171.00" xlink:href="#hd"/>
<use x="636.44" y="177.00" xlink:href="#hd"/>
<path d="M639.94 177.00v-31.20" class="stroke"/>
<use x="636.44" y="162.00" xlink:href="#hd"/>
<path class="fill"
	d="M670.24 147.80l66.90 8.30v3.20l-66.90 -8.30"/>
<use x="667.14" y="174.00" xlink:href="#hd"/>
<path d="M670.64 174.00v-25.20" class="stroke"/>
<use x="699.24" y="171.00" xlink:href="#hd"/>
<path d="M702.74 171.00v-18.20" class="stroke"/>
<use x="733.24" y="189.00" xlink:href="#hl"/>
<use x="733.24" y="192.00" xlink:href="#hd"/>
<path d="M736.74 192.00v-35.00" class="stroke"/>
<path class="fill"
	d="M771.04 202.20l73.40 0.00v-3.20l-73.40 -0.00"/>
<path class="fill"
	d="M794.04 197.20l50.10 0.00v-3.20l-50.10 -0.00"/>
<use x="774.94" y="183.00" xlink:href="#hd"/>
<path d="M771.44 183.00v18.20" class="stroke"/>
<use x="797.54" y="162.00" xlink:href="#hd"/>
<path d="M794.04 162.00v39.20" class="stroke"/>
<use x="815.54" y="165.00" xlink:href="#hd"/>
<defs>
<path id="unat" class="fill" d="
	m96 -750
	h-32
	v716
	l32 -8
	182 -54
	v282
	h32
	v-706
	l-34 10
	-180 50
	v-290
	m0 592
	v-190
	l182 -52
	v188"/>
<use id="nt0" transform="translate(-3,5) scale(0.018)"
	xlink:href="#unat"/>
</defs>
<use x="806.54" y="165.00" xlink:href="#nt0"/>
<path d="M812.04 165.00v36.20" class="stroke"/>
<use x="831.54" y="168.00" xlink:href="#hd"/>
<path d="M828.04 168.00v33.20" class="stroke"/>
<use x="847.64" y="171.00" xlink:href="#hd"/>
<path d="M844.14 171.00v30.20" class="stroke"/>
</g>
<g stroke-width="0.70" transform="scale(0.867)" font-family="Times" font-size="13.00">
<path class="stroke" stroke-width="1"
	d="M11.54 316.00v-82.00"/>
<path class="fill"
	d="M6.54 231.00
	c10.5 1 12 -4.5 12 -3.5c0 1 -3.5 5.5 -8.5 5.5
	v84.00
	c5 0 8.5 4.5 8.5 5.5c0 1 -1.5 -4.5 -12 -3.5"/>
<use x="137.74" y="258.00" xlink:href="#rdots"/>
<path class="stroke" stroke-width="1"
	d="M133.74 258.00v-24.00"/>
<path class="stroke" stroke-width="3"
	d="M129.24 258.00v-24.00"/>
<use x="137.74" y="316.00" xlink:href="#rdots"/>
<path class="stroke" stroke-width="1"
	d="M133.74 316.00v-58.00"/>
<path class="stroke" stroke-width="3"
	d="M129.24 316.00v-58.00"/>
<path class="stroke" stroke-width="1"
	d="M245.44 258.00v-24.00"/>
<path class="stroke" stroke-width="1"
	d="M245.44 316.00v-58.00"/>
<path class="stroke" stroke-width="1"
	d="M325.94 258.00v-24.00"/>
<path class="stroke" stroke-width="1"
	d="M325.94 316.00v-58.00"/>
<path class="stroke" stroke-width="1"
	d="M416.94 258.00v-24.00"/>
<path class="stroke" stroke-width="1"
	d="M416.94 316.00v-58.00"/>
<path class="stroke" stroke-width="1"
	d="M514.04 258.00v-24.00"/>
<path class="stroke" stroke-width="1"
	d="M514.04 316.00v-58.00"/>
<path class="stroke" stroke-width="1"
	d="M605.84 258.00v-24.00"/>
<path class="stroke" stroke-width="1"
	d="M605.84 316.00v-58.00"/>
<path class="stroke" stroke-width="1"
	d="M697.54 258.00v-24.00"/>
<path class="stroke" stroke-width="1"
	d="M697.54 316.00v-58.00"/>
<path class="stroke" stroke-width="1"
	d="M793.34 258.00v-24.00"/>
<path class="stroke" stroke-width="1"
	d="M793.34 316.00v-58.00"/>
<path class="stroke" stroke-width="3"
	d="M860.54 258.00v-24.00"/>
<path class="stroke" stroke-width="1"
	d="M856.04 258.00v-24.00"/>
<use x="852.04" y="258.00" xlink:href="#rdots"/>
<path class="stroke" stroke-width="3"
	d="M860.54 316.00v-58.00"/>
<path class="stroke" stroke-width="1"
	d="M856.04 316.00v-58.00"/>
<use x="852.04" y="316.00" xlink:href="#rdots"/>
<path d="m11.54 258.00
	h850.50
	M11.54 252.00
	h850.50
	M11.54 246.00
	h850.50
	M11.54 240.00
	h850.50
	M11.54 234.00
	h850.50
	" class="stroke"/>
<path d="m11.54 316.00
	h850.50
	M11.54 310.00
	h850.50
	M11.54 304.00
	h850.50
	M11.54 298.00
	h850.50
	M11.54 292.00
	h850.50
	" class="stroke"/>
<path class="fill"
	d="M710.04 234.00c2.76 -3.95 14.74 -4.43 17.50 -0.70
	v-0.22c-3.28 -5.51 -14.22 -5.03 -17.50 0.92"/>
<text x="47.54" y="219.40">2</text>
<path class="stroke"
	d="M43.54 208.00m0 20v-20h83.20v20"/>
<use x="23.54" y="252.00" xlink:href="#tclef"/>
<use x="56.04" y="231.00" xlink:href="#hd"/>
<path d="M52.54 231.00v40.00" class="stroke"/>
<use x="56.04" y="252.00" xlink:href="#hd"/>
<use x="56.04" y="246.00" xlink:href="#hd"/>
<use x="56.04" y="240.00" xlink:href="#hd"/>
<use x="105.04" y="246.00" xlink:href="#r8"/>
<use x="157.24" y="234.00" xlink:href="#hd"/>
<use x="148.24" y="234.00" xlink:href="#sh0"/>
<path d="M153.74 234.00v34.00" class="stroke"/>
<path class="fill"
	d="M153.74 268.00c0.6 -5.6 9.6 -9 5.6 -18.4
	1.6 6 -1.3 11.6 -5.6 12.8
"/>
<use x="157.24" y="249.00" xlink:href="#hd"/>
<use x="157.24" y="240.00" xlink:href="#hd"/>
<use x="188.54" y="234.00" xlink:href="#hd"/>
<path d="M185.04 234.00v21.00" class="stroke"/>
<path class="fill"
	d="M254.04 260.00l53.50 0.00v-3.20l-53.50 -0.00"/>
<path class="fill"
	d="M254.44 255.00l39.60 0.00v-3.20l-39.60 -0.00"/>
<use x="257.94" y="231.00" xlink:href="#hd"/>
<path d="M254.44 231.00v28.00" class="stroke"/>
<use x="271.14" y="228.00" xlink:href="#hl"/>
<use x="271.14" y="225.00" xlink:href="#hd"/>
<path d="M267.64 225.00v34.00" class="stroke"/>
<use x="284.34" y="231.00" xlink:href="#hd"/>
<path d="M280.84 231.00v28.00" class="stroke"/>
<use x="297.54" y="228.00" xlink:href="#hl"/>
<use x="297.54" y="225.00" xlink:href="#hd"/>
<path d="M294.04 225.00v34.00" class="stroke"/>
<use x="310.74" y="240.00" xlink:href="#hd"/>
<path d="M307.24 240.00v19.00" class="stroke"/>
<path class="fill"
	d="M334.54 261.00l53.50 0.00v-3.20l-53.50 -0.00"/>
<use x="338.44" y="237.00" xlink:href="#hd"/>
<path d="M334.94 237.00v23.00" class="stroke"/>
<use x="338.44" y="243.00" xlink:href="#hd"/>
<use x="364.84" y="237.00" xlink:href="#hd"/>
<path d="M361.34 237.00v23.00" class="stroke"/>
<use x="364.84" y="243.00" xlink:href="#hd"/>
<use x="391.24" y="237.00" xlink:href="#hd"/>
<path d="M387.74 237.00v23.00" class="stroke"/>
<use x="391.24" y="243.00" xlink:href="#hd"/>
<use x="429.44" y="240.00" xlink:href="#hd"/>
<path d="M425.94 240.00v21.00" class="stroke"/>
<path class="fill"
	d="M425.94 261.00c0.6 -5.6 9.6 -9 5.6 -18.4
	1.6 6 -1.3 11.6 -5.6 12.8
"/>
<use x="461.94" y="252.00" xlink:href="#hd"/>
<path d="M465.44 252.00v-21.00" class="stroke"/>
<path class="fill"
	d="M522.74 256.20l67.40 9.10v-3.20l-67.40 -9.10"/>
<path class="fill"
	d="M523.04 251.20l66.80 9.00v-3.20l-66.80 -9.00"/>
<use x="526.54" y="228.00" xlink:href="#hl"/>
<use x="526.54" y="222.00" xlink:href="#hl"/>
<use x="526.54" y="222.00" xlink:href="#hd"/>
<path d="M523.04 222.00v33.20" class="stroke"/>
<use x="540.14" y="228.00" xlink:href="#hl"/>
<use x="540.14" y="225.00" xlink:href="#hd"/>
<path d="M536.64 225.00v32.00" class="stroke"/>
<use x="553.64" y="228.00" xlink:href="#hl"/>
<use x="553.64" y="222.00" xlink:href="#hl"/>
<use x="553.64" y="222.00" xlink:href="#hd"/>
<path d="M550.14 222.00v36.90" class="stroke"/>
<use x="566.84" y="231.00" xlink:href="#hd"/>
<path d="M563.34 231.00v29.60" class="stroke"/>
<use x="580.04" y="237.00" xlink:href="#hd"/>
<path d="M576.54 237.00v25.40" class="stroke"/>
<use x="593.34" y="243.00" xlink:href="#hd"/>
<path d="M589.84 243.00v21.20" class="stroke"/>
<path class="fill"
	d="M614.44 256.20l67.40 9.10v-3.20l-67.40 -9.10"/>
<path class="fill"
	d="M614.84 251.20l66.80 9.00v-3.20l-66.80 -9.00"/>
<use x="618.34" y="228.00" xlink:href="#hl"/>
<use x="618.34" y="222.00" xlink:href="#hl"/>
<use x="618.34" y="222.00" xlink:href="#hd"/>
<path d="M614.84 222.00v33.20" class="stroke"/>
<use x="631.84" y="228.00" xlink:href="#hl"/>
<use x="631.84" y="225.00" xlink:href="#hd"/>
<path d="M628.34 225.00v32.00" class="stroke"/>
<use x="645.44" y="228.00" xlink:href="#hl"/>
<use x="645.44" y="222.00" xlink:href="#hl"/>
<use x="645.44" y="222.00" xlink:href="#hd"/>
<path d="M641.94 222.00v36.90" class="stroke"/>
<use x="658.64" y="231.00" xlink:href="#hd"/>
<path d="M655.14 231.00v29.60" class="stroke"/>
<use x="671.84" y="237.00" xlink:href="#hd"/>
<path d="M668.34 237.00v25.40" class="stroke"/>
<use x="685.04" y="243.00" xlink:href="#hd"/>
<path d="M681.54 243.00v21.20" class="stroke"/>
<path class="fill"
	d="M706.24 274.20l71.50 0.00v-3.20l-71.50 -0.00"/>
<path class="fill"
	d="M706.54 269.20l70.80 0.00v-3.20l-70.80 -0.00"/>
<use x="710.04" y="240.00" xlink:href="#hd"/>
<path d="M706.54 240.00v33.20" class="stroke"/>
<use x="728.04" y="243.00" xlink:href="#hd"/>
<use x="719.04" y="243.00" xlink:href="#sh0"/>
<path d="M724.54 243.00v30.20" class="stroke"/>
<use x="741.24" y="240.00" xlink:href="#hd"/>
<path d="M737.74 240.00v33.20" class="stroke"/>
<use x="754.44" y="234.00" xlink:href="#hd"/>
<path d="M750.94 234.00v39.20" class="stroke"/>
<use x="767.64" y="252.00" xlink:href="#hd"/>
<path d="M764.14 252.00v21.20" class="stroke"/>
<use x="780.84" y="246.00" xlink:href="#hd"/>
<path d="M777.34 246.00v27.20" class="stroke"/>
<use x="805.84" y="243.00" xlink:href="#hd"/>
<path d="M802.34 243.00v21.00" class="stroke"/>
<use x="841.54" y="246.00" xlink:href="#r8"/>
<use x="23.54" y="298.00" xlink:href="#bclef"/>
<path class="fill"
	d="M52.24 335.20l62.90 0.00v-3.20l-62.90 -0.00"/>
<path class="fill"
	d="M70.34 330.20l44.40 0.00v-3.20l-44.40 -0.00"/>
<use x="56.04" y="316.00" xlink:href="#hd"/>
<path d="M52.54 316.00v18.20" class="stroke"/>
<use x="73.84" y="289.00" xlink:href="#hd"/>
<path d="M70.34 289.00v45.20" class="stroke"/>
<use x="87.04" y="295.00" xlink:href="#hd"/>
<path d="M83.54 295.00v39.20" class="stroke"/>
<use x="105.04" y="298.00" xlink:href="#hd"/>
<use x="96.04" y="298.00" xlink:href="#sh0"/>
<path d="M101.54 298.00v36.20" class="stroke"/>
<use x="118.24" y="301.00" xlink:href="#hd"/>
<path d="M114.74 301.00v33.20" class="stroke"/>
<path class="fill"
	d="M160.44 283.00l76.30 -6.70v3.20l-76.30 6.70"/>
<path class="fill"
	d="M160.74 288.00l75.60 -6.70v3.20l-75.60 6.70"/>
<use x="157.24" y="322.00" xlink:href="#hl"/>
<use x="157.24" y="325.00" xlink:href="#hd"/>
<path d="M160.74 325.00v-41.00" class="stroke"/>
<use x="170.54" y="304.00" xlink:href="#hd"/>
<path d="M174.04 304.00v-21.20" class="stroke"/>
<use x="188.54" y="307.00" xlink:href="#hd"/>
<use x="179.54" y="307.00" xlink:href="#sh0"/>
<path d="M192.04 307.00v-25.80" class="stroke"/>
<use x="201.74" y="304.00" xlink:href="#hd"/>
<path d="M205.24 304.00v-23.90" class="stroke"/>
<use x="219.74" y="307.00" xlink:href="#hd"/>
<use x="210.74" y="307.00" xlink:href="#sh0"/>
<path d="M223.24 307.00v-28.50" class="stroke"/>
<use x="232.94" y="304.00" xlink:href="#hd"/>
<path d="M236.44 304.00v-26.70" class="stroke"/>
<use x="257.94" y="310.00" xlink:href="#hd"/>
<path d="M261.44 310.00v-21.00" class="stroke"/>
<use x="310.74" y="304.00" xlink:href="#r8"/>
<path class="fill"
	d="M334.54 329.20l66.70 0.00v-3.20l-66.70 -0.00"/>
<path class="fill"
	d="M334.94 324.20l66.10 0.00v-3.20l-66.10 -0.00"/>
<use x="338.44" y="307.00" xlink:href="#hd"/>
<path d="M334.94 307.00v21.20" class="stroke"/>
<use x="351.64" y="301.00" xlink:href="#hd"/>
<path d="M348.14 301.00v27.20" class="stroke"/>
<use x="364.84" y="295.00" xlink:href="#hd"/>
<path d="M361.34 295.00v33.20" class="stroke"/>
<use x="378.04" y="301.00" xlink:href="#hd"/>
<path d="M374.54 301.00v27.20" class="stroke"/>
<use x="391.24" y="286.00" xlink:href="#hl"/>
<use x="391.24" y="286.00" xlink:href="#hd"/>
<path d="M387.74 286.00v42.20" class="stroke"/>
<use x="404.44" y="307.00" xlink:href="#hd"/>
<path d="M400.94 307.00v21.20" class="stroke"/>
<path class="fill"
	d="M425.64 328.70l72.80 9.50v-3.20l-72.80 -9.50"/>
<path class="fill"
	d="M425.94 323.80l72.10 9.40v-3.20l-72.10 -9.40"/>
<use x="429.44" y="295.00" xlink:href="#hd"/>
<path d="M425.94 295.00v32.80" class="stroke"/>
<use x="447.44" y="298.00" xlink:href="#hd"/>
<use x="438.44" y="298.00" xlink:href="#sh0"/>
<path d="M443.94 298.00v32.10" class="stroke"/>
<use x="461.94" y="295.00" xlink:href="#hd"/>
<path d="M458.44 295.00v37.00" class="stroke"/>
<use x="475.14" y="304.00" xlink:href="#hd"/>
<path d="M471.64 304.00v29.70" class="stroke"/>
<use x="488.34" y="310.00" xlink:href="#hd"/>
<path d="M484.84 310.00v25.50" class="stroke"/>
<use x="501.54" y="316.00" xlink:href="#hd"/>
<path d="M498.04 316.00v21.20" class="stroke"/>
<use x="526.54" y="301.00" xlink:href="#hd"/>
<path d="M523.04 301.00v25.00" class="stroke"/>
<use x="526.54" y="307.00" xlink:href="#hd"/>
<use x="580.04" y="295.00" xlink:href="#hd"/>
<path d="M576.54 295.00v31.00" class="stroke"/>
<path class="fill"
	d="M576.54 326.00c0.6 -5.6 9.6 -9 5.6 -18.4
	1.6 6 -1.3 11.6 -5.6 12.8
"/>
<use x="580.04" y="307.00" xlink:href="#hd"/>
<use x="618.34" y="301.00" xlink:href="#hd"/>
<path d="M614.84 301.00v25.00" class="stroke"/>
<use x="618.34" y="307.00" xlink:href="#hd"/>
<use x="671.84" y="304.00" xlink:href="#r8"/>
<use x="710.04" y="298.00" xlink:href="#hd"/>
<path d="M706.54 298.00v21.00" class="stroke"/>
<use x="767.64" y="295.00" xlink:href="#hd"/>
<path d="M764.14 295.00v21.00" class="stroke"/>
<path class="fill"
	d="M764.14 316.00c0.6 -5.6 9.6 -9 5.6 -18.4
	1.6 6 -1.3 11.6 -5.6 12.8
"/>
<path class="fill"
	d="M809.04 287.70l36.30 9.10v3.20l-36.30 -9.10"/>
<use x="805.84" y="307.00" xlink:href="#hd"/>
<path d="M809.34 307.00v-18.20" class="stroke"/>
<use x="823.74" y="316.00" xlink:href="#hd"/>
<path d="M827.24 316.00v-22.70" class="stroke"/>
<use x="841.54" y="322.00" xlink:href="#hl"/>
<use x="841.54" y="328.00" xlink:href="#hl"/>
<use x="841.54" y="328.00" xlink:href="#hd"/>
<path d="M845.04 328.00v-30.20" class="stroke"/>
<defs>
<text id="trl" font-family="serif" font-size="16" font-style="italic"
	x="-2" y="-4">tr</text>
</defs>
<use x="188.54" y="228.00" xlink:href="#trl"/>
</g>
</svg>
