<?xml version="1.0" standalone="no"?>
<!DOCTYPE svg PUBLIC "-//W3C//DTD SVG 1.1//EN"
	"http://www.w3.org/Graphics/SVG/1.1/DTD/svg11.dtd">
<svg xmlns="http://www.w3.org/2000/svg" version="1.1"
	xmlns:xlink="http://www.w3.org/1999/xlink"
	color="black"
	width="757.10px" height="296.40px">
<style type="text/css">
.fill {fill: currentColor}
.stroke {stroke: currentColor; fill: none}
text{white-space: pre}
</style>
<title>./K516f-2-3-10-2-6-12-7-4-9-3-6-6-10-4-11-2.abc (3193) tune 1</title>
<!-- Creator: abcm2ps-8.13.8 -->
<!-- CreationDate: Sep  7, 2017 11:20 -->
<!-- CommandLine: ./K516f-2-3-10-2-6-12-7-4-9-3-6-6-10-4-11-2.abc -O ./K516f-2-3-10-2-6-12-7-4-9-3-6-6-10-4-11-2.svg -g -->
<rect width="100%" height="100%" fill="white"/>
<g stroke-width="0.70" transform="scale(0.867)">
<!-- title: 2-3-10-2-6-12-7-4-9-3-6-6-10-4-11-2 -->
</g>
<g stroke-width="0.70" transform="scale(0.867)" font-family="Times" font-size="20.00">
<text x="436.84" y="22.00" text-anchor="middle">2-3-10-2-6-12-7-4-9-3-6-6-10-4-11-2</text>
</g>
<g stroke-width="0.70" transform="scale(0.867)" font-family="Times" font-size="20.00">
<!-- subtitle: $1K.516f::96:06:42:41:80:37:118:24:120:39:64:125:137:58:173:14::$0 -->
</g>
<g stroke-width="0.70" transform="scale(0.867)" font-family="Courier" font-size="8.00" font-weight="bold">
<text x="436.84" y="41.80" text-anchor="middle">K.516f::96:06:42:41:80:37:118:24:120:39:64:125:137:58:173:14::</text>
</g>
<g stroke-width="0.70" transform="scale(0.867)" font-family="Courier" font-size="8.00" font-weight="bold">
<!-- subtitle: $1Perm. No.: 319377302199814$0 -->
<text x="436.84" y="60.80" text-anchor="middle">Perm. No.: 319377302199814</text>
</g>
<g stroke-width="0.70" transform="scale(0.607)" font-family="Courier" font-size="8.00" font-weight="bold">
<defs>
<ellipse id="hd" rx="4.1" ry="2.9"
	transform="rotate(-20)" class="fill"/>
</defs>
<use x="103.06" y="121.29" xlink:href="#hd"/>
<path d="M106.56 121.29v-21.00" class="stroke"/>
<path class="fill"
	d="M106.56 100.29c0.6 5.6 9.6 9 5.6 18.4
	1.6 -6 -1.3 -11.6 -5.6 -12.8
"/>
</g>
<g stroke-width="0.70" transform="scale(0.867)" font-family="Times" font-size="15.00" font-weight="bold">
<text x="81.24" y="87.00">= 111</text>
<path class="stroke" stroke-width="1"
	d="M11.54 183.00v-82.00"/>
<path class="fill"
	d="M6.54 98.00
	c10.5 1 12 -4.5 12 -3.5c0 1 -3.5 5.5 -8.5 5.5
	v84.00
	c5 0 8.5 4.5 8.5 5.5c0 1 -1.5 -4.5 -12 -3.5"/>
<defs>
<g id="rdots" class="fill">
	<circle cx="0" cy="-9" r="1.2"/>
	<circle cx="0" cy="-15" r="1.2"/>
</g>
</defs>
<use x="70.54" y="125.00" xlink:href="#rdots"/>
<path class="stroke" stroke-width="1"
	d="M66.54 125.00v-24.00"/>
<path class="stroke" stroke-width="3"
	d="M62.04 125.00v-24.00"/>
<use x="70.54" y="183.00" xlink:href="#rdots"/>
<path class="stroke" stroke-width="1"
	d="M66.54 183.00v-58.00"/>
<path class="stroke" stroke-width="3"
	d="M62.04 183.00v-58.00"/>
<path class="stroke" stroke-width="1"
	d="M153.94 125.00v-24.00"/>
<path class="stroke" stroke-width="1"
	d="M153.94 183.00v-58.00"/>
<path class="stroke" stroke-width="1"
	d="M236.44 125.00v-24.00"/>
<path class="stroke" stroke-width="1"
	d="M236.44 183.00v-58.00"/>
<path class="stroke" stroke-width="1"
	d="M351.24 125.00v-24.00"/>
<path class="stroke" stroke-width="1"
	d="M351.24 183.00v-58.00"/>
<path class="stroke" stroke-width="1"
	d="M454.24 125.00v-24.00"/>
<path class="stroke" stroke-width="1"
	d="M454.24 183.00v-58.00"/>
<path class="stroke" stroke-width="1"
	d="M536.74 125.00v-24.00"/>
<path class="stroke" stroke-width="1"
	d="M536.74 183.00v-58.00"/>
<path class="stroke" stroke-width="1"
	d="M639.74 125.00v-24.00"/>
<path class="stroke" stroke-width="1"
	d="M639.74 183.00v-58.00"/>
<path class="stroke" stroke-width="1"
	d="M755.04 125.00v-24.00"/>
<path class="stroke" stroke-width="1"
	d="M755.04 183.00v-58.00"/>
<path class="stroke" stroke-width="3"
	d="M860.54 125.00v-24.00"/>
<path class="stroke" stroke-width="1"
	d="M856.04 125.00v-24.00"/>
<use x="852.04" y="125.00" xlink:href="#rdots"/>
<path class="stroke" stroke-width="3"
	d="M860.54 183.00v-58.00"/>
<path class="stroke" stroke-width="1"
	d="M856.04 183.00v-58.00"/>
<use x="852.04" y="183.00" xlink:href="#rdots"/>
<path d="m11.54 125.00
	h850.50
	M11.54 119.00
	h850.50
	M11.54 113.00
	h850.50
	M11.54 107.00
	h850.50
	M11.54 101.00
	h850.50
	" class="stroke"/>
<path d="m11.54 183.00
	h850.50
	M11.54 177.00
	h850.50
	M11.54 171.00
	h850.50
	M11.54 165.00
	h850.50
	M11.54 159.00
	h850.50
	" class="stroke"/>
</g>
<g stroke-width="0.70" transform="scale(0.867)" font-family="Times" font-size="13.00">
<text x="759.04" y="86.40">1</text>
<path class="stroke"
	d="M755.04 75.00m0 20v-20h99.00v20"/>
<defs>
<path id="utclef" class="fill" d="m-50 -90
	c-72 -41 -72 -158 52 -188
	150 -10 220 188 90 256
	-114 52 -275 0 -293 -136
	-15 -181 93 -229 220 -334
	88 -87 79 -133 62 -210
	-51 33 -94 105 -89 186
	17 267 36 374 49 574
	6 96 -19 134 -77 135
	-80 1 -126 -93 -61 -133
	85 -41 133 101 31 105
	23 17 92 37 90 -92
	-10 -223 -39 -342 -50 -617
	0 -90 0 -162 96 -232
	56 72 63 230 22 289
	-74 106 -257 168 -255 316
	9 153 148 185 252 133
	86 -65 29 -192 -80 -176
	-71 12 -105 67 -59 124"/>
<use id="tclef" transform="translate(0,6) scale(0.045)"
	xlink:href="#utclef"/>
</defs>
<use x="23.54" y="119.00" xlink:href="#tclef"/>
<g font-family="serif" font-size="16" font-weight="bold" font-style="normal"
	transform="translate(42.04,124.50) scale(1.2,1)">
	<text text-anchor="middle">8</text>
	<text y="-12" text-anchor="middle">3</text>
</g>
<path class="fill"
	d="M81.44 131.60l50.10 6.70v-3.20l-50.10 -6.70"/>
<use x="85.34" y="104.00" xlink:href="#hd"/>
<path d="M81.84 104.00v26.60" class="stroke"/>
<use x="110.04" y="110.00" xlink:href="#hd"/>
<path d="M106.54 110.00v23.90" class="stroke"/>
<use x="134.74" y="119.00" xlink:href="#hd"/>
<path d="M131.24 119.00v18.20" class="stroke"/>
<path class="fill"
	d="M163.94 138.20l50.10 -6.70v-3.20l-50.10 6.70"/>
<use x="167.74" y="119.00" xlink:href="#hd"/>
<path d="M164.24 119.00v18.20" class="stroke"/>
<use x="192.44" y="110.00" xlink:href="#hd"/>
<path d="M188.94 110.00v23.90" class="stroke"/>
<use x="217.14" y="104.00" xlink:href="#hd"/>
<path d="M213.64 104.00v26.60" class="stroke"/>
<path class="fill"
	d="M246.34 141.20l88.10 0.00v-3.20l-88.10 -0.00"/>
<path class="fill"
	d="M246.74 136.20l87.40 0.00v-3.20l-87.40 -0.00"/>
<use x="250.24" y="113.00" xlink:href="#hd"/>
<path d="M246.74 113.00v27.20" class="stroke"/>
<use x="267.74" y="110.00" xlink:href="#hd"/>
<path d="M264.24 110.00v30.20" class="stroke"/>
<use x="285.14" y="107.00" xlink:href="#hd"/>
<path d="M281.64 107.00v33.20" class="stroke"/>
<use x="302.64" y="113.00" xlink:href="#hd"/>
<path d="M299.14 113.00v27.20" class="stroke"/>
<use x="320.14" y="116.00" xlink:href="#hd"/>
<path d="M316.64 116.00v24.20" class="stroke"/>
<use x="337.64" y="119.00" xlink:href="#hd"/>
<path d="M334.14 119.00v21.20" class="stroke"/>
<path class="fill"
	d="M361.24 138.20l70.60 0.00v-3.20l-70.60 -0.00"/>
<path class="fill"
	d="M361.54 133.20l52.40 0.00v-3.20l-52.40 -0.00"/>
<use x="365.04" y="110.00" xlink:href="#hd"/>
<path d="M361.54 110.00v27.20" class="stroke"/>
<use x="382.54" y="113.00" xlink:href="#hd"/>
<path d="M379.04 113.00v24.20" class="stroke"/>
<use x="400.04" y="110.00" xlink:href="#hd"/>
<path d="M396.54 110.00v27.20" class="stroke"/>
<use x="417.44" y="104.00" xlink:href="#hd"/>
<path d="M413.94 104.00v33.20" class="stroke"/>
<use x="434.94" y="119.00" xlink:href="#hd"/>
<path d="M431.44 119.00v18.20" class="stroke"/>
<path class="fill"
	d="M464.14 136.80l50.20 -3.20v-3.20l-50.20 3.20"/>
<use x="468.04" y="107.00" xlink:href="#hd"/>
<path d="M464.54 107.00v28.80" class="stroke"/>
<use x="492.74" y="116.00" xlink:href="#hd"/>
<path d="M489.24 116.00v18.20" class="stroke"/>
<use x="517.44" y="101.00" xlink:href="#hd"/>
<defs>
<path id="usharp" class="fill" d="
	m136 -702
	v890
	h32
	v-890
	m128 840
	h32
	v-888
	h-32
	m-232 286
	v116
	l338 -96
	v-116
	m-338 442
	v116
	l338 -98
	v-114"/>
<use id="sh0" transform="translate(-4,5) scale(0.018)"
	xlink:href="#usharp"/>
</defs>
<use x="508.44" y="101.00" xlink:href="#sh0"/>
<path d="M513.94 101.00v31.60" class="stroke"/>
<path class="fill"
	d="M546.64 123.90l70.60 8.30v-3.20l-70.60 -8.30"/>
<path class="fill"
	d="M547.04 118.90l52.40 6.20v-3.20l-52.40 -6.20"/>
<use x="550.54" y="98.00" xlink:href="#hd"/>
<path d="M547.04 98.00v24.90" class="stroke"/>
<defs>
<path id="hl" class="stroke" d="m-6 0h12"/>
</defs>
<use x="568.04" y="95.00" xlink:href="#hl"/>
<use x="568.04" y="92.00" xlink:href="#hd"/>
<path d="M564.54 92.00v33.00" class="stroke"/>
<use x="585.44" y="98.00" xlink:href="#hd"/>
<path d="M581.94 98.00v29.10" class="stroke"/>
<use x="602.94" y="107.00" xlink:href="#hd"/>
<path d="M599.44 107.00v22.10" class="stroke"/>
<use x="620.44" y="113.00" xlink:href="#hd"/>
<path d="M616.94 113.00v18.20" class="stroke"/>
<path class="fill"
	d="M649.64 127.00l88.60 0.00v-3.20l-88.60 -0.00"/>
<path class="fill"
	d="M649.94 122.00l87.90 0.00v-3.20l-87.90 -0.00"/>
<use x="653.44" y="104.00" xlink:href="#hd"/>
<path d="M649.94 104.00v22.00" class="stroke"/>
<use x="670.94" y="95.00" xlink:href="#hl"/>
<use x="670.94" y="95.00" xlink:href="#hd"/>
<path d="M667.44 95.00v31.00" class="stroke"/>
<use x="688.44" y="98.00" xlink:href="#hd"/>
<path d="M684.94 98.00v28.00" class="stroke"/>
<use x="705.94" y="95.00" xlink:href="#hl"/>
<use x="705.94" y="92.00" xlink:href="#hd"/>
<path d="M702.44 92.00v34.00" class="stroke"/>
<use x="723.94" y="101.00" xlink:href="#hd"/>
<use x="714.94" y="101.00" xlink:href="#sh0"/>
<path d="M720.44 101.00v25.00" class="stroke"/>
<use x="741.44" y="95.00" xlink:href="#hl"/>
<use x="741.44" y="95.00" xlink:href="#hd"/>
<path d="M737.94 95.00v31.00" class="stroke"/>
<use x="768.84" y="98.00" xlink:href="#hd"/>
<path d="M765.34 98.00v40.00" class="stroke"/>
<use x="768.84" y="119.00" xlink:href="#hd"/>
<use x="768.84" y="113.00" xlink:href="#hd"/>
<use x="768.84" y="107.00" xlink:href="#hd"/>
<defs>
<path id="r8e" class="fill" d="m 0 0
	c-1.5 1.5 -2.4 2 -3.6 2
	2.4 -2.8 -2.8 -4 -2.8 -1.2
	c0 2.7 4.3 2.4 5.9 0.6"/>
<g id="r8">
	<path d="m3.3 -4l-3.4 9.6" class="stroke"/>
	<use x="3.4" y="-4" xlink:href="#r8e"/>
</g>
</defs>
<use x="829.04" y="113.00" xlink:href="#r8"/>
<defs>
<path id="ubclef" class="fill" d="m-200 -87
	c124 -35 222 -78 254 -236
	43 -228 -167 -246 -192 -103
	59 -80 157 22 92 78
	-62 47 -115 -22 -106 -88
	21 -141 270 -136 274 52
	-1 175 -106 264 -322 297
	m357 -250
	c0 -36 51 -34 51 0
	0 37 -51 36 -51 0
	m-2 -129
	c0 -36 51 -34 51 0
	0 38 -51 37 -51 0"/>
<use id="bclef" transform="translate(0,18) scale(0.045)"
	xlink:href="#ubclef"/>
</defs>
<use x="23.54" y="165.00" xlink:href="#bclef"/>
<g font-family="serif" font-size="16" font-weight="bold" font-style="normal"
	transform="translate(42.04,182.50) scale(1.2,1)">
	<text text-anchor="middle">8</text>
	<text y="-12" text-anchor="middle">3</text>
</g>
<use x="85.34" y="174.00" xlink:href="#hd"/>
<path d="M88.84 174.00v-21.00" class="stroke"/>
<use x="134.74" y="171.00" xlink:href="#r8"/>
<use x="167.74" y="168.00" xlink:href="#hd"/>
<path d="M164.24 168.00v25.00" class="stroke"/>
<use x="167.74" y="174.00" xlink:href="#hd"/>
<use x="217.14" y="171.00" xlink:href="#r8"/>
<use x="250.24" y="183.00" xlink:href="#hd"/>
<path d="M253.74 183.00v-21.00" class="stroke"/>
<use x="320.14" y="171.00" xlink:href="#r8"/>
<use x="365.04" y="168.00" xlink:href="#hd"/>
<path d="M361.54 168.00v25.00" class="stroke"/>
<use x="365.04" y="174.00" xlink:href="#hd"/>
<use x="434.94" y="171.00" xlink:href="#r8"/>
<use x="468.04" y="174.00" xlink:href="#hd"/>
<path d="M471.54 174.00v-21.00" class="stroke"/>
<use x="517.44" y="171.00" xlink:href="#r8"/>
<use x="550.54" y="177.00" xlink:href="#hd"/>
<path d="M554.04 177.00v-25.00" class="stroke"/>
<use x="550.54" y="171.00" xlink:href="#hd"/>
<use x="620.44" y="171.00" xlink:href="#r8"/>
<path class="fill"
	d="M656.64 147.60l71.10 8.40v3.20l-71.10 -8.40"/>
<use x="653.44" y="174.00" xlink:href="#hd"/>
<path d="M656.94 174.00v-25.30" class="stroke"/>
<use x="688.44" y="171.00" xlink:href="#hd"/>
<path d="M691.94 171.00v-18.20" class="stroke"/>
<use x="723.94" y="189.00" xlink:href="#hl"/>
<use x="723.94" y="192.00" xlink:href="#hd"/>
<path d="M727.44 192.00v-35.00" class="stroke"/>
<path class="fill"
	d="M764.94 202.20l78.30 0.00v-3.20l-78.30 -0.00"/>
<path class="fill"
	d="M790.04 197.20l53.00 0.00v-3.20l-53.00 -0.00"/>
<use x="768.84" y="183.00" xlink:href="#hd"/>
<path d="M765.34 183.00v18.20" class="stroke"/>
<use x="793.54" y="162.00" xlink:href="#hd"/>
<path d="M790.04 162.00v39.20" class="stroke"/>
<use x="811.54" y="165.00" xlink:href="#hd"/>
<defs>
<path id="unat" class="fill" d="
	m96 -750
	h-32
	v716
	l32 -8
	182 -54
	v282
	h32
	v-706
	l-34 10
	-180 50
	v-290
	m0 592
	v-190
	l182 -52
	v188"/>
<use id="nt0" transform="translate(-3,5) scale(0.018)"
	xlink:href="#unat"/>
</defs>
<use x="802.54" y="165.00" xlink:href="#nt0"/>
<path d="M808.04 165.00v36.20" class="stroke"/>
<use x="829.04" y="168.00" xlink:href="#hd"/>
<path d="M825.54 168.00v33.20" class="stroke"/>
<use x="846.44" y="171.00" xlink:href="#hd"/>
<path d="M842.94 171.00v30.20" class="stroke"/>
<defs>
<path id="turn" class="fill" d="
	m5.2 -8
	c1.4 0.5 0.9 4.8 -2.2 2.8
	l-4.8 -3.5
	c-3 -2 -5.8 1.8 -3.6 4.4
	1 1.1 2 0.8 2.1 -0.1
	0.1 -0.9 -0.7 -1.2 -1.9 -0.6
	-1.4 -0.5 -0.9 -4.8 2.2 -2.8
	l4.8 3.5
	c3 2 5.8 -1.8 3.6 -4.4
	-1 -1.1 -2 -0.8 -2.1 0.1
	-0.1 0.9 0.7 1.2 1.9 0.6"/>
</defs>
<use x="492.74" y="99.00" xlink:href="#turn"/>
</g>
<g stroke-width="0.70" transform="scale(0.867)" font-family="Times" font-size="13.00">
<path class="stroke" stroke-width="1"
	d="M11.54 316.00v-82.00"/>
<path class="fill"
	d="M6.54 231.00
	c10.5 1 12 -4.5 12 -3.5c0 1 -3.5 5.5 -8.5 5.5
	v84.00
	c5 0 8.5 4.5 8.5 5.5c0 1 -1.5 -4.5 -12 -3.5"/>
<use x="140.74" y="258.00" xlink:href="#rdots"/>
<path class="stroke" stroke-width="1"
	d="M136.74 258.00v-24.00"/>
<path class="stroke" stroke-width="3"
	d="M132.24 258.00v-24.00"/>
<use x="140.74" y="316.00" xlink:href="#rdots"/>
<path class="stroke" stroke-width="1"
	d="M136.74 316.00v-58.00"/>
<path class="stroke" stroke-width="3"
	d="M132.24 316.00v-58.00"/>
<path class="stroke" stroke-width="1"
	d="M238.04 258.00v-24.00"/>
<path class="stroke" stroke-width="1"
	d="M238.04 316.00v-58.00"/>
<path class="stroke" stroke-width="1"
	d="M332.94 258.00v-24.00"/>
<path class="stroke" stroke-width="1"
	d="M332.94 316.00v-58.00"/>
<path class="stroke" stroke-width="1"
	d="M427.74 258.00v-24.00"/>
<path class="stroke" stroke-width="1"
	d="M427.74 316.00v-58.00"/>
<path class="stroke" stroke-width="1"
	d="M511.84 258.00v-24.00"/>
<path class="stroke" stroke-width="1"
	d="M511.84 316.00v-58.00"/>
<path class="stroke" stroke-width="1"
	d="M606.64 258.00v-24.00"/>
<path class="stroke" stroke-width="1"
	d="M606.64 316.00v-58.00"/>
<path class="stroke" stroke-width="1"
	d="M701.44 258.00v-24.00"/>
<path class="stroke" stroke-width="1"
	d="M701.44 316.00v-58.00"/>
<path class="stroke" stroke-width="1"
	d="M790.54 258.00v-24.00"/>
<path class="stroke" stroke-width="1"
	d="M790.54 316.00v-58.00"/>
<path class="stroke" stroke-width="3"
	d="M860.54 258.00v-24.00"/>
<path class="stroke" stroke-width="1"
	d="M856.04 258.00v-24.00"/>
<use x="852.04" y="258.00" xlink:href="#rdots"/>
<path class="stroke" stroke-width="3"
	d="M860.54 316.00v-58.00"/>
<path class="stroke" stroke-width="1"
	d="M856.04 316.00v-58.00"/>
<use x="852.04" y="316.00" xlink:href="#rdots"/>
<path d="m11.54 258.00
	h850.50
	M11.54 252.00
	h850.50
	M11.54 246.00
	h850.50
	M11.54 240.00
	h850.50
	M11.54 234.00
	h850.50
	" class="stroke"/>
<path d="m11.54 316.00
	h850.50
	M11.54 310.00
	h850.50
	M11.54 304.00
	h850.50
	M11.54 298.00
	h850.50
	M11.54 292.00
	h850.50
	" class="stroke"/>
<text x="47.54" y="219.40">2</text>
<path class="stroke"
	d="M43.54 208.00m0 20v-20h86.20v20"/>
<use x="23.54" y="252.00" xlink:href="#tclef"/>
<use x="56.04" y="231.00" xlink:href="#hd"/>
<path d="M52.54 231.00v40.00" class="stroke"/>
<use x="56.04" y="252.00" xlink:href="#hd"/>
<use x="56.04" y="246.00" xlink:href="#hd"/>
<use x="56.04" y="240.00" xlink:href="#hd"/>
<use x="107.24" y="246.00" xlink:href="#r8"/>
<path class="fill"
	d="M156.34 260.80l66.10 10.50v-3.20l-66.10 -10.50"/>
<path class="fill"
	d="M176.14 258.90l45.90 7.30v-3.20l-45.90 -7.30"/>
<use x="160.24" y="228.00" xlink:href="#hl"/>
<use x="160.24" y="222.00" xlink:href="#hl"/>
<use x="160.24" y="219.00" xlink:href="#hd"/>
<path d="M156.74 219.00v40.80" class="stroke"/>
<use x="179.64" y="228.00" xlink:href="#hl"/>
<use x="179.64" y="228.00" xlink:href="#hd"/>
<path d="M176.14 228.00v34.90" class="stroke"/>
<use x="197.64" y="234.00" xlink:href="#hd"/>
<use x="188.64" y="234.00" xlink:href="#sh0"/>
<path d="M194.14 234.00v31.80" class="stroke"/>
<use x="211.64" y="240.00" xlink:href="#hd"/>
<path d="M208.14 240.00v28.00" class="stroke"/>
<use x="225.54" y="249.00" xlink:href="#hd"/>
<path d="M222.04 249.00v21.20" class="stroke"/>
<path class="fill"
	d="M246.74 266.80l56.50 8.80v-3.20l-56.50 -8.80"/>
<use x="250.54" y="231.00" xlink:href="#hd"/>
<path d="M247.04 231.00v34.90" class="stroke"/>
<use x="278.54" y="252.00" xlink:href="#hd"/>
<path d="M275.04 252.00v18.20" class="stroke"/>
<use x="306.44" y="252.00" xlink:href="#hd"/>
<path d="M302.94 252.00v22.50" class="stroke"/>
<path class="fill"
	d="M341.54 266.00l70.50 0.00v-3.20l-70.50 -0.00"/>
<path class="fill"
	d="M341.94 261.00l69.80 0.00v-3.20l-69.80 -0.00"/>
<use x="345.44" y="237.00" xlink:href="#hd"/>
<path d="M341.94 237.00v27.90" class="stroke"/>
<use x="359.34" y="231.00" xlink:href="#hd"/>
<path d="M355.84 231.00v33.90" class="stroke"/>
<use x="373.34" y="228.00" xlink:href="#hl"/>
<use x="373.34" y="222.00" xlink:href="#hl"/>
<use x="373.34" y="222.00" xlink:href="#hd"/>
<path d="M369.84 222.00v42.90" class="stroke"/>
<use x="387.24" y="231.00" xlink:href="#hd"/>
<path d="M383.74 231.00v33.90" class="stroke"/>
<use x="401.24" y="237.00" xlink:href="#hd"/>
<path d="M397.74 237.00v27.90" class="stroke"/>
<use x="415.24" y="243.00" xlink:href="#hd"/>
<path d="M411.74 243.00v21.90" class="stroke"/>
<path class="fill"
	d="M436.34 262.60l56.50 8.60v-3.20l-56.50 -8.60"/>
<path class="fill"
	d="M436.74 257.70l41.90 6.40v-3.20l-41.90 -6.40"/>
<use x="440.24" y="231.00" xlink:href="#hd"/>
<path d="M436.74 231.00v30.70" class="stroke"/>
<use x="454.14" y="237.00" xlink:href="#hd"/>
<path d="M450.64 237.00v26.80" class="stroke"/>
<use x="468.14" y="240.00" xlink:href="#hd"/>
<path d="M464.64 240.00v25.90" class="stroke"/>
<use x="482.14" y="246.00" xlink:href="#hd"/>
<path d="M478.64 246.00v22.10" class="stroke"/>
<use x="496.04" y="252.00" xlink:href="#hd"/>
<path d="M492.54 252.00v18.20" class="stroke"/>
<path class="fill"
	d="M520.44 272.80l56.50 -3.20v-3.20l-56.50 3.20"/>
<use x="524.34" y="243.00" xlink:href="#hd"/>
<path d="M520.84 243.00v28.80" class="stroke"/>
<use x="552.24" y="252.00" xlink:href="#hd"/>
<path d="M548.74 252.00v18.20" class="stroke"/>
<use x="580.14" y="237.00" xlink:href="#hd"/>
<path d="M576.64 237.00v31.60" class="stroke"/>
<path class="fill"
	d="M615.34 253.80l56.50 8.50v-3.20l-56.50 -8.50"/>
<use x="619.14" y="231.00" xlink:href="#hd"/>
<path d="M615.64 231.00v21.80" class="stroke"/>
<use x="647.04" y="237.00" xlink:href="#hd"/>
<path d="M643.54 237.00v20.00" class="stroke"/>
<use x="675.04" y="243.00" xlink:href="#hd"/>
<path d="M671.54 243.00v18.20" class="stroke"/>
<path class="fill"
	d="M710.14 256.30l14.60 -3.40v-3.20l-14.60 3.40"/>
<path class="fill"
	d="M710.44 251.20l14.00 -3.20v-3.20l-14.00 3.20"/>
<use x="713.94" y="234.00" xlink:href="#hd"/>
<path d="M710.44 234.00v21.20" class="stroke"/>
<use x="727.94" y="228.00" xlink:href="#hl"/>
<use x="727.94" y="228.00" xlink:href="#hd"/>
<path d="M724.44 228.00v24.00" class="stroke"/>
<use x="741.94" y="249.00" xlink:href="#hd"/>
<path d="M745.44 249.00v-21.00" class="stroke"/>
<path class="fill"
	d="M745.44 228.00c0.6 5.6 9.6 9 5.6 18.4
	1.6 -6 -1.3 -11.6 -5.6 -12.8
"/>
<path class="fill"
	d="M760.24 268.30l14.60 -3.40v-3.20l-14.60 3.40"/>
<path class="fill"
	d="M760.64 263.20l14.00 -3.20v-3.20l-14.00 3.20"/>
<use x="764.14" y="246.00" xlink:href="#hd"/>
<path d="M760.64 246.00v21.20" class="stroke"/>
<use x="778.04" y="240.00" xlink:href="#hd"/>
<path d="M774.54 240.00v24.00" class="stroke"/>
<use x="803.04" y="243.00" xlink:href="#hd"/>
<path d="M799.54 243.00v21.00" class="stroke"/>
<use x="841.54" y="246.00" xlink:href="#r8"/>
<use x="23.54" y="298.00" xlink:href="#bclef"/>
<path class="fill"
	d="M52.24 335.20l65.80 -4.90v-3.20l-65.80 4.90"/>
<path class="fill"
	d="M71.74 328.80l45.90 -3.40v-3.20l-45.90 3.40"/>
<use x="56.04" y="316.00" xlink:href="#hd"/>
<path d="M52.54 316.00v18.20" class="stroke"/>
<use x="75.24" y="289.00" xlink:href="#hd"/>
<path d="M71.74 289.00v43.80" class="stroke"/>
<use x="89.24" y="295.00" xlink:href="#hd"/>
<path d="M85.74 295.00v36.80" class="stroke"/>
<use x="107.24" y="298.00" xlink:href="#hd"/>
<use x="98.24" y="298.00" xlink:href="#sh0"/>
<path d="M103.74 298.00v32.40" class="stroke"/>
<use x="121.24" y="301.00" xlink:href="#hd"/>
<path d="M117.74 301.00v28.40" class="stroke"/>
<use x="160.24" y="298.00" xlink:href="#hd"/>
<use x="151.24" y="298.00" xlink:href="#sh0"/>
<path d="M156.74 298.00v25.00" class="stroke"/>
<use x="160.24" y="304.00" xlink:href="#hd"/>
<use x="211.64" y="298.00" xlink:href="#hd"/>
<path d="M208.14 298.00v28.00" class="stroke"/>
<path class="fill"
	d="M208.14 326.00c0.6 -5.6 9.6 -9 5.6 -18.4
	1.6 6 -1.3 11.6 -5.6 12.8
"/>
<use x="211.64" y="307.00" xlink:href="#hd"/>
<path class="fill"
	d="M246.74 338.20l70.50 0.00v-3.20l-70.50 -0.00"/>
<path class="fill"
	d="M247.04 333.20l69.80 0.00v-3.20l-69.80 -0.00"/>
<use x="250.54" y="310.00" xlink:href="#hd"/>
<path d="M247.04 310.00v27.20" class="stroke"/>
<use x="264.54" y="304.00" xlink:href="#hd"/>
<path d="M261.04 304.00v33.20" class="stroke"/>
<use x="278.54" y="295.00" xlink:href="#hd"/>
<path d="M275.04 295.00v42.20" class="stroke"/>
<use x="292.44" y="304.00" xlink:href="#hd"/>
<path d="M288.94 304.00v33.20" class="stroke"/>
<use x="306.44" y="289.00" xlink:href="#hd"/>
<path d="M302.94 289.00v48.20" class="stroke"/>
<use x="320.44" y="316.00" xlink:href="#hd"/>
<path d="M316.94 316.00v21.20" class="stroke"/>
<use x="345.44" y="295.00" xlink:href="#hd"/>
<path d="M341.94 295.00v31.00" class="stroke"/>
<use x="345.44" y="307.00" xlink:href="#hd"/>
<use x="401.24" y="295.00" xlink:href="#hd"/>
<path d="M397.74 295.00v31.00" class="stroke"/>
<path class="fill"
	d="M397.74 326.00c0.6 -5.6 9.6 -9 5.6 -18.4
	1.6 6 -1.3 11.6 -5.6 12.8
"/>
<use x="401.24" y="307.00" xlink:href="#hd"/>
<path class="fill"
	d="M443.34 275.70l28.60 8.60v3.20l-28.60 -8.60"/>
<use x="440.24" y="295.00" xlink:href="#hd"/>
<path d="M443.74 295.00v-18.20" class="stroke"/>
<use x="468.14" y="316.00" xlink:href="#hd"/>
<path d="M471.64 316.00v-30.80" class="stroke"/>
<use x="496.04" y="304.00" xlink:href="#r8"/>
<path class="fill"
	d="M520.44 323.90l70.50 0.00v-3.20l-70.50 -0.00"/>
<path class="fill"
	d="M520.84 318.90l69.80 0.00v-3.20l-69.80 -0.00"/>
<use x="524.34" y="301.00" xlink:href="#hd"/>
<path d="M520.84 301.00v21.90" class="stroke"/>
<use x="524.34" y="307.00" xlink:href="#hd"/>
<use x="538.24" y="295.00" xlink:href="#hd"/>
<path d="M534.74 295.00v27.90" class="stroke"/>
<use x="552.24" y="301.00" xlink:href="#hd"/>
<path d="M548.74 301.00v21.90" class="stroke"/>
<use x="552.24" y="307.00" xlink:href="#hd"/>
<use x="566.24" y="295.00" xlink:href="#hd"/>
<path d="M562.74 295.00v27.90" class="stroke"/>
<use x="580.14" y="301.00" xlink:href="#hd"/>
<path d="M576.64 301.00v21.90" class="stroke"/>
<use x="580.14" y="307.00" xlink:href="#hd"/>
<use x="594.14" y="295.00" xlink:href="#hd"/>
<path d="M590.64 295.00v27.90" class="stroke"/>
<path class="fill"
	d="M615.34 323.90l70.50 0.00v-3.20l-70.50 -0.00"/>
<path class="fill"
	d="M615.64 318.90l69.80 0.00v-3.20l-69.80 -0.00"/>
<use x="619.14" y="301.00" xlink:href="#hd"/>
<path d="M615.64 301.00v21.90" class="stroke"/>
<use x="619.14" y="307.00" xlink:href="#hd"/>
<use x="633.14" y="295.00" xlink:href="#hd"/>
<path d="M629.64 295.00v27.90" class="stroke"/>
<use x="647.04" y="301.00" xlink:href="#hd"/>
<path d="M643.54 301.00v21.90" class="stroke"/>
<use x="647.04" y="307.00" xlink:href="#hd"/>
<use x="661.04" y="295.00" xlink:href="#hd"/>
<path d="M657.54 295.00v27.90" class="stroke"/>
<use x="675.04" y="301.00" xlink:href="#hd"/>
<path d="M671.54 301.00v21.90" class="stroke"/>
<use x="675.04" y="307.00" xlink:href="#hd"/>
<use x="688.94" y="295.00" xlink:href="#hd"/>
<path d="M685.44 295.00v27.90" class="stroke"/>
<use x="713.94" y="298.00" xlink:href="#hd"/>
<path d="M710.44 298.00v21.00" class="stroke"/>
<use x="764.14" y="295.00" xlink:href="#hd"/>
<path d="M760.64 295.00v21.00" class="stroke"/>
<path class="fill"
	d="M760.64 316.00c0.6 -5.6 9.6 -9 5.6 -18.4
	1.6 6 -1.3 11.6 -5.6 12.8
"/>
<path class="fill"
	d="M806.24 287.70l39.10 9.50v3.20l-39.10 -9.50"/>
<use x="803.04" y="307.00" xlink:href="#hd"/>
<path d="M806.54 307.00v-18.20" class="stroke"/>
<use x="822.34" y="316.00" xlink:href="#hd"/>
<path d="M825.84 316.00v-22.60" class="stroke"/>
<use x="841.54" y="322.00" xlink:href="#hl"/>
<use x="841.54" y="328.00" xlink:href="#hl"/>
<use x="841.54" y="328.00" xlink:href="#hd"/>
<path d="M845.04 328.00v-29.90" class="stroke"/>
</g>
</svg>
