<?xml version="1.0" standalone="no"?>
<!DOCTYPE svg PUBLIC "-//W3C//DTD SVG 1.1//EN"
	"http://www.w3.org/Graphics/SVG/1.1/DTD/svg11.dtd">
<svg xmlns="http://www.w3.org/2000/svg" version="1.1"
	xmlns:xlink="http://www.w3.org/1999/xlink"
	color="black"
	width="757.10px" height="293.80px">
<style type="text/css">
.fill {fill: currentColor}
.stroke {stroke: currentColor; fill: none}
text{white-space: pre}
</style>
<title>./K516f-9-10-5-4-5-9-4-2-9-4-5-3-6-8-5-3.abc (1235) tune 1</title>
<!-- Creator: abcm2ps-8.13.8 -->
<!-- CreationDate: Sep  7, 2017 11:19 -->
<!-- CommandLine: ./K516f-9-10-5-4-5-9-4-2-9-4-5-3-6-8-5-3.abc -O ./K516f-9-10-5-4-5-9-4-2-9-4-5-3-6-8-5-3.svg -g -->
<rect width="100%" height="100%" fill="white"/>
<g stroke-width="0.70" transform="scale(0.867)">
<!-- title: 9-10-5-4-5-9-4-2-9-4-5-3-6-8-5-3 -->
</g>
<g stroke-width="0.70" transform="scale(0.867)" font-family="Times" font-size="20.00">
<text x="436.84" y="22.00" text-anchor="middle">9-10-5-4-5-9-4-2-9-4-5-3-6-8-5-3</text>
</g>
<g stroke-width="0.70" transform="scale(0.867)" font-family="Times" font-size="20.00">
<!-- subtitle: $1K.516f::119:142:113:13:161:86:110:30:120:139:7:56:76:168:52:83::$0 -->
</g>
<g stroke-width="0.70" transform="scale(0.867)" font-family="Courier" font-size="8.00" font-weight="bold">
<text x="436.84" y="41.80" text-anchor="middle">K.516f::119:142:113:13:161:86:110:30:120:139:7:56:76:168:52:83::</text>
</g>
<g stroke-width="0.70" transform="scale(0.867)" font-family="Courier" font-size="8.00" font-weight="bold">
<!-- subtitle: $1Perm. No.: 123573534487719$0 -->
<text x="436.84" y="60.80" text-anchor="middle">Perm. No.: 123573534487719</text>
</g>
<g stroke-width="0.70" transform="scale(0.607)" font-family="Courier" font-size="8.00" font-weight="bold">
<defs>
<ellipse id="hd" rx="4.1" ry="2.9"
	transform="rotate(-20)" class="fill"/>
</defs>
<use x="103.06" y="121.29" xlink:href="#hd"/>
<path d="M106.56 121.29v-21.00" class="stroke"/>
<path class="fill"
	d="M106.56 100.29c0.6 5.6 9.6 9 5.6 18.4
	1.6 -6 -1.3 -11.6 -5.6 -12.8
"/>
</g>
<g stroke-width="0.70" transform="scale(0.867)" font-family="Times" font-size="15.00" font-weight="bold">
<text x="81.24" y="87.00">= 111</text>
<path class="stroke" stroke-width="1"
	d="M11.54 183.00v-82.00"/>
<path class="fill"
	d="M6.54 98.00
	c10.5 1 12 -4.5 12 -3.5c0 1 -3.5 5.5 -8.5 5.5
	v84.00
	c5 0 8.5 4.5 8.5 5.5c0 1 -1.5 -4.5 -12 -3.5"/>
<defs>
<g id="rdots" class="fill">
	<circle cx="0" cy="-9" r="1.2"/>
	<circle cx="0" cy="-15" r="1.2"/>
</g>
</defs>
<use x="70.54" y="125.00" xlink:href="#rdots"/>
<path class="stroke" stroke-width="1"
	d="M66.54 125.00v-24.00"/>
<path class="stroke" stroke-width="3"
	d="M62.04 125.00v-24.00"/>
<use x="70.54" y="183.00" xlink:href="#rdots"/>
<path class="stroke" stroke-width="1"
	d="M66.54 183.00v-58.00"/>
<path class="stroke" stroke-width="3"
	d="M62.04 183.00v-58.00"/>
<path class="stroke" stroke-width="1"
	d="M190.44 125.00v-24.00"/>
<path class="stroke" stroke-width="1"
	d="M190.44 183.00v-58.00"/>
<path class="stroke" stroke-width="1"
	d="M275.94 125.00v-24.00"/>
<path class="stroke" stroke-width="1"
	d="M275.94 183.00v-58.00"/>
<path class="stroke" stroke-width="1"
	d="M361.44 125.00v-24.00"/>
<path class="stroke" stroke-width="1"
	d="M361.44 183.00v-58.00"/>
<path class="stroke" stroke-width="1"
	d="M446.94 125.00v-24.00"/>
<path class="stroke" stroke-width="1"
	d="M446.94 183.00v-58.00"/>
<path class="stroke" stroke-width="1"
	d="M536.64 125.00v-24.00"/>
<path class="stroke" stroke-width="1"
	d="M536.64 183.00v-58.00"/>
<path class="stroke" stroke-width="1"
	d="M632.74 125.00v-24.00"/>
<path class="stroke" stroke-width="1"
	d="M632.74 183.00v-58.00"/>
<path class="stroke" stroke-width="1"
	d="M751.64 125.00v-24.00"/>
<path class="stroke" stroke-width="1"
	d="M751.64 183.00v-58.00"/>
<path class="stroke" stroke-width="3"
	d="M860.54 125.00v-24.00"/>
<path class="stroke" stroke-width="1"
	d="M856.04 125.00v-24.00"/>
<use x="852.04" y="125.00" xlink:href="#rdots"/>
<path class="stroke" stroke-width="3"
	d="M860.54 183.00v-58.00"/>
<path class="stroke" stroke-width="1"
	d="M856.04 183.00v-58.00"/>
<use x="852.04" y="183.00" xlink:href="#rdots"/>
<path d="m11.54 125.00
	h850.50
	M11.54 119.00
	h850.50
	M11.54 113.00
	h850.50
	M11.54 107.00
	h850.50
	M11.54 101.00
	h850.50
	" class="stroke"/>
<path d="m11.54 183.00
	h850.50
	M11.54 177.00
	h850.50
	M11.54 171.00
	h850.50
	M11.54 165.00
	h850.50
	M11.54 159.00
	h850.50
	" class="stroke"/>
<path class="fill"
	d="M375.64 121.00c7.29 5.41 39.99 10.67 47.28 7.60
	v0.25c-8.71 4.82 -38.57 -0.44 -47.28 -7.85"/>
<path class="fill"
	d="M646.94 119.00c2.62 4.16 14.00 5.59 16.62 2.10
	v0.22c-3.12 5.28 -13.51 3.84 -16.62 -2.32"/>
<path class="fill"
	d="M683.24 122.00c2.62 4.16 14.00 5.59 16.62 2.10
	v0.22c-3.12 5.28 -13.51 3.84 -16.62 -2.32"/>
<path class="fill"
	d="M719.44 125.00c2.38 4.47 12.74 7.34 15.12 4.20
	v0.22c-2.84 4.93 -12.29 2.05 -15.12 -4.42"/>
</g>
<g stroke-width="0.70" transform="scale(0.867)" font-family="Times" font-size="13.00">
<text x="755.64" y="86.40">1</text>
<path class="stroke"
	d="M751.64 75.00m0 20v-20h102.40v20"/>
<defs>
<path id="utclef" class="fill" d="m-50 -90
	c-72 -41 -72 -158 52 -188
	150 -10 220 188 90 256
	-114 52 -275 0 -293 -136
	-15 -181 93 -229 220 -334
	88 -87 79 -133 62 -210
	-51 33 -94 105 -89 186
	17 267 36 374 49 574
	6 96 -19 134 -77 135
	-80 1 -126 -93 -61 -133
	85 -41 133 101 31 105
	23 17 92 37 90 -92
	-10 -223 -39 -342 -50 -617
	0 -90 0 -162 96 -232
	56 72 63 230 22 289
	-74 106 -257 168 -255 316
	9 153 148 185 252 133
	86 -65 29 -192 -80 -176
	-71 12 -105 67 -59 124"/>
<use id="tclef" transform="translate(0,6) scale(0.045)"
	xlink:href="#utclef"/>
</defs>
<use x="23.54" y="119.00" xlink:href="#tclef"/>
<g font-family="serif" font-size="16" font-weight="bold" font-style="normal"
	transform="translate(42.04,124.50) scale(1.2,1)">
	<text text-anchor="middle">8</text>
	<text y="-12" text-anchor="middle">3</text>
</g>
<path class="fill"
	d="M81.94 133.50l91.30 -6.30v-3.20l-91.30 6.30"/>
<path class="fill"
	d="M82.24 128.40l90.60 -6.20v-3.20l-90.60 6.20"/>
<use x="85.74" y="104.00" xlink:href="#hd"/>
<path d="M82.24 104.00v28.40" class="stroke"/>
<use x="103.94" y="110.00" xlink:href="#hd"/>
<path d="M100.44 110.00v21.20" class="stroke"/>
<use x="122.04" y="98.00" xlink:href="#hd"/>
<path d="M118.54 98.00v32.00" class="stroke"/>
<use x="140.14" y="104.00" xlink:href="#hd"/>
<path d="M136.64 104.00v24.70" class="stroke"/>
<defs>
<path id="hl" class="stroke" d="m-6 0h12"/>
</defs>
<use x="158.24" y="95.00" xlink:href="#hl"/>
<use x="158.24" y="89.00" xlink:href="#hl"/>
<use x="158.24" y="89.00" xlink:href="#hd"/>
<path d="M154.74 89.00v38.50" class="stroke"/>
<use x="176.44" y="98.00" xlink:href="#hd"/>
<path d="M172.94 98.00v28.20" class="stroke"/>
<path class="fill"
	d="M200.94 139.80l52.00 -3.20v-3.20l-52.00 3.20"/>
<use x="204.74" y="110.00" xlink:href="#hd"/>
<path d="M201.24 110.00v28.80" class="stroke"/>
<use x="230.34" y="119.00" xlink:href="#hd"/>
<path d="M226.84 119.00v18.20" class="stroke"/>
<use x="256.04" y="104.00" xlink:href="#hd"/>
<path d="M252.54 104.00v31.60" class="stroke"/>
<path class="fill"
	d="M286.34 124.00l52.00 8.30v-3.20l-52.00 -8.30"/>
<use x="290.24" y="101.00" xlink:href="#hd"/>
<path d="M286.74 101.00v22.00" class="stroke"/>
<use x="315.84" y="107.00" xlink:href="#hd"/>
<path d="M312.34 107.00v20.10" class="stroke"/>
<use x="341.54" y="113.00" xlink:href="#hd"/>
<path d="M338.04 113.00v18.20" class="stroke"/>
<path class="fill"
	d="M378.84 90.80l52.00 6.80v3.20l-52.00 -6.80"/>
<use x="375.64" y="110.00" xlink:href="#hd"/>
<path d="M379.14 110.00v-18.20" class="stroke"/>
<use x="401.34" y="119.00" xlink:href="#hd"/>
<path d="M404.84 119.00v-23.90" class="stroke"/>
<use x="426.94" y="125.00" xlink:href="#hd"/>
<path d="M430.44 125.00v-26.50" class="stroke"/>
<path class="fill"
	d="M468.54 88.00l52.00 0.00v3.20l-52.00 -0.00"/>
<use x="465.44" y="122.00" xlink:href="#hd"/>
<defs>
<path id="usharp" class="fill" d="
	m136 -702
	v890
	h32
	v-890
	m128 840
	h32
	v-888
	h-32
	m-232 286
	v116
	l338 -96
	v-116
	m-338 442
	v116
	l338 -98
	v-114"/>
<use id="sh0" transform="translate(-4,5) scale(0.018)"
	xlink:href="#usharp"/>
</defs>
<use x="456.44" y="122.00" xlink:href="#sh0"/>
<path d="M468.94 122.00v-33.00" class="stroke"/>
<use x="465.44" y="107.00" xlink:href="#hd"/>
<use x="491.04" y="122.00" xlink:href="#hd"/>
<use x="482.04" y="122.00" xlink:href="#sh0"/>
<path d="M494.54 122.00v-33.00" class="stroke"/>
<use x="491.04" y="107.00" xlink:href="#hd"/>
<use x="516.74" y="122.00" xlink:href="#hd"/>
<use x="507.74" y="122.00" xlink:href="#sh0"/>
<path d="M520.24 122.00v-33.00" class="stroke"/>
<use x="516.74" y="107.00" xlink:href="#hd"/>
<path class="fill"
	d="M547.04 132.20l62.60 -7.30v-3.20l-62.60 7.30"/>
<path class="fill"
	d="M573.04 124.20l18.10 -2.10v-3.20l-18.10 2.10"/>
<use x="550.94" y="107.00" xlink:href="#hd"/>
<path d="M547.44 107.00v24.20" class="stroke"/>
<use x="576.54" y="107.00" xlink:href="#hd"/>
<path d="M573.04 107.00v21.20" class="stroke"/>
<use x="594.64" y="98.00" xlink:href="#hd"/>
<path d="M591.14 98.00v28.10" class="stroke"/>
<use x="612.74" y="95.00" xlink:href="#hl"/>
<use x="612.74" y="92.00" xlink:href="#hd"/>
<path d="M609.24 92.00v32.00" class="stroke"/>
<path class="fill"
	d="M650.14 88.80l91.30 0.00v3.20l-91.30 -0.00"/>
<path class="fill"
	d="M650.44 93.80l90.60 0.00v3.20l-90.60 -0.00"/>
<use x="646.94" y="113.00" xlink:href="#hd"/>
<path d="M650.44 113.00v-23.20" class="stroke"/>
<use x="646.94" y="107.00" xlink:href="#hd"/>
<use x="665.14" y="116.00" xlink:href="#hd"/>
<path d="M668.64 116.00v-26.20" class="stroke"/>
<use x="665.14" y="110.00" xlink:href="#hd"/>
<use x="683.24" y="116.00" xlink:href="#hd"/>
<path d="M686.74 116.00v-26.20" class="stroke"/>
<use x="683.24" y="110.00" xlink:href="#hd"/>
<use x="701.34" y="119.00" xlink:href="#hd"/>
<path d="M704.84 119.00v-29.20" class="stroke"/>
<use x="701.34" y="113.00" xlink:href="#hd"/>
<use x="719.44" y="119.00" xlink:href="#hd"/>
<path d="M722.94 119.00v-29.20" class="stroke"/>
<use x="719.44" y="113.00" xlink:href="#hd"/>
<use x="737.54" y="122.00" xlink:href="#hd"/>
<use x="728.54" y="122.00" xlink:href="#sh0"/>
<path d="M741.04 122.00v-32.20" class="stroke"/>
<use x="737.54" y="116.00" xlink:href="#hd"/>
<use x="765.94" y="98.00" xlink:href="#hd"/>
<path d="M762.44 98.00v40.00" class="stroke"/>
<use x="765.94" y="119.00" xlink:href="#hd"/>
<use x="765.94" y="113.00" xlink:href="#hd"/>
<use x="765.94" y="107.00" xlink:href="#hd"/>
<defs>
<path id="r8e" class="fill" d="m 0 0
	c-1.5 1.5 -2.4 2 -3.6 2
	2.4 -2.8 -2.8 -4 -2.8 -1.2
	c0 2.7 4.3 2.4 5.9 0.6"/>
<g id="r8">
	<path d="m3.3 -4l-3.4 9.6" class="stroke"/>
	<use x="3.4" y="-4" xlink:href="#r8e"/>
</g>
</defs>
<use x="827.84" y="113.00" xlink:href="#r8"/>
<defs>
<path id="ubclef" class="fill" d="m-200 -87
	c124 -35 222 -78 254 -236
	43 -228 -167 -246 -192 -103
	59 -80 157 22 92 78
	-62 47 -115 -22 -106 -88
	21 -141 270 -136 274 52
	-1 175 -106 264 -322 297
	m357 -250
	c0 -36 51 -34 51 0
	0 37 -51 36 -51 0
	m-2 -129
	c0 -36 51 -34 51 0
	0 38 -51 37 -51 0"/>
<use id="bclef" transform="translate(0,18) scale(0.045)"
	xlink:href="#ubclef"/>
</defs>
<use x="23.54" y="165.00" xlink:href="#bclef"/>
<g font-family="serif" font-size="16" font-weight="bold" font-style="normal"
	transform="translate(42.04,182.50) scale(1.2,1)">
	<text text-anchor="middle">8</text>
	<text y="-12" text-anchor="middle">3</text>
</g>
<use x="85.74" y="168.00" xlink:href="#hd"/>
<path d="M82.24 168.00v25.00" class="stroke"/>
<use x="85.74" y="174.00" xlink:href="#hd"/>
<use x="158.24" y="171.00" xlink:href="#r8"/>
<use x="204.74" y="168.00" xlink:href="#hd"/>
<path d="M201.24 168.00v25.00" class="stroke"/>
<use x="204.74" y="174.00" xlink:href="#hd"/>
<use x="256.04" y="171.00" xlink:href="#r8"/>
<use x="290.24" y="156.00" xlink:href="#hd"/>
<path d="M286.74 156.00v25.00" class="stroke"/>
<use x="290.24" y="162.00" xlink:href="#hd"/>
<use x="341.54" y="171.00" xlink:href="#r8"/>
<use x="375.64" y="162.00" xlink:href="#hd"/>
<path d="M372.14 162.00v25.00" class="stroke"/>
<use x="375.64" y="168.00" xlink:href="#hd"/>
<use x="426.94" y="171.00" xlink:href="#r8"/>
<path class="fill"
	d="M468.54 153.00l52.00 0.00v3.20l-52.00 -0.00"/>
<use x="465.44" y="174.00" xlink:href="#hd"/>
<path d="M468.94 174.00v-20.00" class="stroke"/>
<use x="491.04" y="174.00" xlink:href="#hd"/>
<path d="M494.54 174.00v-20.00" class="stroke"/>
<use x="516.74" y="174.00" xlink:href="#hd"/>
<path d="M520.24 174.00v-20.00" class="stroke"/>
<use x="550.94" y="162.00" xlink:href="#hd"/>
<path d="M547.44 162.00v34.00" class="stroke"/>
<use x="550.94" y="177.00" xlink:href="#hd"/>
<use x="612.74" y="171.00" xlink:href="#r8"/>
<path class="fill"
	d="M650.14 147.60l73.20 8.40v3.20l-73.20 -8.40"/>
<use x="646.94" y="174.00" xlink:href="#hd"/>
<path d="M650.44 174.00v-25.40" class="stroke"/>
<use x="683.24" y="171.00" xlink:href="#hd"/>
<path d="M686.74 171.00v-18.20" class="stroke"/>
<use x="719.44" y="189.00" xlink:href="#hl"/>
<use x="719.44" y="192.00" xlink:href="#hd"/>
<path d="M722.94 192.00v-35.00" class="stroke"/>
<path class="fill"
	d="M762.04 202.20l80.70 0.00v-3.20l-80.70 -0.00"/>
<path class="fill"
	d="M788.04 197.20l54.40 0.00v-3.20l-54.40 -0.00"/>
<use x="765.94" y="183.00" xlink:href="#hd"/>
<path d="M762.44 183.00v18.20" class="stroke"/>
<use x="791.54" y="162.00" xlink:href="#hd"/>
<path d="M788.04 162.00v39.20" class="stroke"/>
<use x="809.64" y="165.00" xlink:href="#hd"/>
<defs>
<path id="unat" class="fill" d="
	m96 -750
	h-32
	v716
	l32 -8
	182 -54
	v282
	h32
	v-706
	l-34 10
	-180 50
	v-290
	m0 592
	v-190
	l182 -52
	v188"/>
<use id="nt0" transform="translate(-3,5) scale(0.018)"
	xlink:href="#unat"/>
</defs>
<use x="800.64" y="165.00" xlink:href="#nt0"/>
<path d="M806.14 165.00v36.20" class="stroke"/>
<use x="827.84" y="168.00" xlink:href="#hd"/>
<path d="M824.34 168.00v33.20" class="stroke"/>
<use x="845.94" y="171.00" xlink:href="#hd"/>
<path d="M842.44 171.00v30.20" class="stroke"/>
</g>
<g stroke-width="0.70" transform="scale(0.867)" font-family="Times" font-size="13.00">
<path class="stroke" stroke-width="1"
	d="M11.54 316.00v-82.00"/>
<path class="fill"
	d="M6.54 231.00
	c10.5 1 12 -4.5 12 -3.5c0 1 -3.5 5.5 -8.5 5.5
	v84.00
	c5 0 8.5 4.5 8.5 5.5c0 1 -1.5 -4.5 -12 -3.5"/>
<use x="142.34" y="258.00" xlink:href="#rdots"/>
<path class="stroke" stroke-width="1"
	d="M138.34 258.00v-24.00"/>
<path class="stroke" stroke-width="3"
	d="M133.84 258.00v-24.00"/>
<use x="142.34" y="316.00" xlink:href="#rdots"/>
<path class="stroke" stroke-width="1"
	d="M138.34 316.00v-58.00"/>
<path class="stroke" stroke-width="3"
	d="M133.84 316.00v-58.00"/>
<path class="stroke" stroke-width="1"
	d="M241.44 258.00v-24.00"/>
<path class="stroke" stroke-width="1"
	d="M241.44 316.00v-58.00"/>
<path class="stroke" stroke-width="1"
	d="M327.84 258.00v-24.00"/>
<path class="stroke" stroke-width="1"
	d="M327.84 316.00v-58.00"/>
<path class="stroke" stroke-width="1"
	d="M425.04 258.00v-24.00"/>
<path class="stroke" stroke-width="1"
	d="M425.04 316.00v-58.00"/>
<path class="stroke" stroke-width="1"
	d="M502.54 258.00v-24.00"/>
<path class="stroke" stroke-width="1"
	d="M502.54 316.00v-58.00"/>
<path class="stroke" stroke-width="1"
	d="M600.04 258.00v-24.00"/>
<path class="stroke" stroke-width="1"
	d="M600.04 316.00v-58.00"/>
<path class="stroke" stroke-width="1"
	d="M688.34 258.00v-24.00"/>
<path class="stroke" stroke-width="1"
	d="M688.34 316.00v-58.00"/>
<path class="stroke" stroke-width="1"
	d="M789.04 258.00v-24.00"/>
<path class="stroke" stroke-width="1"
	d="M789.04 316.00v-58.00"/>
<path class="stroke" stroke-width="3"
	d="M860.54 258.00v-24.00"/>
<path class="stroke" stroke-width="1"
	d="M856.04 258.00v-24.00"/>
<use x="852.04" y="258.00" xlink:href="#rdots"/>
<path class="stroke" stroke-width="3"
	d="M860.54 316.00v-58.00"/>
<path class="stroke" stroke-width="1"
	d="M856.04 316.00v-58.00"/>
<use x="852.04" y="316.00" xlink:href="#rdots"/>
<path d="m11.54 258.00
	h850.50
	M11.54 252.00
	h850.50
	M11.54 246.00
	h850.50
	M11.54 240.00
	h850.50
	M11.54 234.00
	h850.50
	" class="stroke"/>
<path d="m11.54 316.00
	h850.50
	M11.54 310.00
	h850.50
	M11.54 304.00
	h850.50
	M11.54 298.00
	h850.50
	M11.54 292.00
	h850.50
	" class="stroke"/>
<path class="fill"
	d="M700.84 234.00c2.76 -3.95 14.74 -4.43 17.50 -0.70
	v-0.22c-3.28 -5.51 -14.22 -5.03 -17.50 0.92"/>
<text x="47.54" y="219.40">2</text>
<path class="stroke"
	d="M43.54 208.00m0 20v-20h87.80v20"/>
<use x="23.54" y="252.00" xlink:href="#tclef"/>
<use x="56.04" y="231.00" xlink:href="#hd"/>
<path d="M52.54 231.00v40.00" class="stroke"/>
<use x="56.04" y="252.00" xlink:href="#hd"/>
<use x="56.04" y="246.00" xlink:href="#hd"/>
<use x="56.04" y="240.00" xlink:href="#hd"/>
<use x="108.44" y="246.00" xlink:href="#r8"/>
<path class="fill"
	d="M158.04 260.70l67.70 10.60v-3.20l-67.70 -10.60"/>
<path class="fill"
	d="M178.54 258.90l46.90 7.30v-3.20l-46.90 -7.30"/>
<use x="161.84" y="228.00" xlink:href="#hl"/>
<use x="161.84" y="222.00" xlink:href="#hl"/>
<use x="161.84" y="219.00" xlink:href="#hd"/>
<path d="M158.34 219.00v40.70" class="stroke"/>
<use x="182.04" y="228.00" xlink:href="#hl"/>
<use x="182.04" y="228.00" xlink:href="#hd"/>
<path d="M178.54 228.00v34.90" class="stroke"/>
<use x="200.04" y="234.00" xlink:href="#hd"/>
<use x="191.04" y="234.00" xlink:href="#sh0"/>
<path d="M196.54 234.00v31.70" class="stroke"/>
<use x="214.44" y="240.00" xlink:href="#hd"/>
<path d="M210.94 240.00v27.90" class="stroke"/>
<use x="228.94" y="249.00" xlink:href="#hd"/>
<path d="M225.44 249.00v21.20" class="stroke"/>
<path class="fill"
	d="M250.04 260.00l58.40 0.00v-3.20l-58.40 -0.00"/>
<path class="fill"
	d="M250.44 255.00l43.30 0.00v-3.20l-43.30 -0.00"/>
<use x="253.94" y="231.00" xlink:href="#hd"/>
<path d="M250.44 231.00v28.00" class="stroke"/>
<use x="268.34" y="228.00" xlink:href="#hl"/>
<use x="268.34" y="225.00" xlink:href="#hd"/>
<path d="M264.84 225.00v34.00" class="stroke"/>
<use x="282.74" y="231.00" xlink:href="#hd"/>
<path d="M279.24 231.00v28.00" class="stroke"/>
<use x="297.24" y="228.00" xlink:href="#hl"/>
<use x="297.24" y="225.00" xlink:href="#hd"/>
<path d="M293.74 225.00v34.00" class="stroke"/>
<use x="311.64" y="240.00" xlink:href="#hd"/>
<path d="M308.14 240.00v19.00" class="stroke"/>
<path class="fill"
	d="M336.54 266.60l72.80 -6.80v-3.20l-72.80 6.80"/>
<path class="fill"
	d="M336.84 261.50l72.20 -6.70v-3.20l-72.20 6.70"/>
<use x="340.34" y="237.00" xlink:href="#hd"/>
<path d="M336.84 237.00v28.50" class="stroke"/>
<use x="354.74" y="243.00" xlink:href="#hd"/>
<path d="M351.24 243.00v21.20" class="stroke"/>
<use x="369.24" y="237.00" xlink:href="#hd"/>
<path d="M365.74 237.00v25.90" class="stroke"/>
<use x="383.64" y="231.00" xlink:href="#hd"/>
<path d="M380.14 231.00v30.50" class="stroke"/>
<use x="398.04" y="228.00" xlink:href="#hl"/>
<use x="398.04" y="222.00" xlink:href="#hl"/>
<use x="398.04" y="222.00" xlink:href="#hd"/>
<path d="M394.54 222.00v38.20" class="stroke"/>
<use x="412.54" y="231.00" xlink:href="#hd"/>
<path d="M409.04 231.00v27.80" class="stroke"/>
<path class="fill"
	d="M433.64 265.60l29.50 6.70v-3.20l-29.50 -6.70"/>
<path class="fill"
	d="M434.04 260.70l14.40 3.30v-3.20l-14.40 -3.30"/>
<use x="437.54" y="240.00" xlink:href="#hd"/>
<path d="M434.04 240.00v24.70" class="stroke"/>
<use x="451.94" y="246.00" xlink:href="#hd"/>
<path d="M448.44 246.00v22.00" class="stroke"/>
<use x="466.34" y="252.00" xlink:href="#hd"/>
<path d="M462.84 252.00v19.30" class="stroke"/>
<use x="486.34" y="246.00" xlink:href="#r8"/>
<path class="fill"
	d="M511.24 256.00l73.20 9.30v-3.20l-73.20 -9.30"/>
<path class="fill"
	d="M511.54 251.00l72.50 9.20v-3.20l-72.50 -9.20"/>
<use x="515.04" y="228.00" xlink:href="#hl"/>
<use x="515.04" y="222.00" xlink:href="#hl"/>
<use x="515.04" y="222.00" xlink:href="#hd"/>
<path d="M511.54 222.00v33.00" class="stroke"/>
<use x="529.64" y="228.00" xlink:href="#hl"/>
<use x="529.64" y="225.00" xlink:href="#hd"/>
<path d="M526.14 225.00v31.90" class="stroke"/>
<use x="544.24" y="228.00" xlink:href="#hl"/>
<use x="544.24" y="222.00" xlink:href="#hl"/>
<use x="544.24" y="222.00" xlink:href="#hd"/>
<path d="M540.74 222.00v36.70" class="stroke"/>
<use x="558.74" y="231.00" xlink:href="#hd"/>
<path d="M555.24 231.00v29.50" class="stroke"/>
<use x="573.14" y="237.00" xlink:href="#hd"/>
<path d="M569.64 237.00v25.40" class="stroke"/>
<use x="587.54" y="243.00" xlink:href="#hd"/>
<path d="M584.04 243.00v21.20" class="stroke"/>
<path class="fill"
	d="M608.74 256.40l64.00 8.90v-3.20l-64.00 -8.90"/>
<path class="fill"
	d="M629.04 254.20l43.30 6.00v-3.20l-43.30 -6.00"/>
<use x="612.54" y="231.00" xlink:href="#hd"/>
<path d="M609.04 231.00v24.40" class="stroke"/>
<use x="632.54" y="234.00" xlink:href="#hd"/>
<path d="M629.04 234.00v24.20" class="stroke"/>
<use x="646.94" y="237.00" xlink:href="#hd"/>
<path d="M643.44 237.00v23.20" class="stroke"/>
<use x="661.44" y="240.00" xlink:href="#hd"/>
<path d="M657.94 240.00v22.20" class="stroke"/>
<use x="675.84" y="243.00" xlink:href="#hd"/>
<path d="M672.34 243.00v21.20" class="stroke"/>
<path class="fill"
	d="M697.04 274.20l76.40 0.00v-3.20l-76.40 -0.00"/>
<path class="fill"
	d="M697.34 269.20l75.70 0.00v-3.20l-75.70 -0.00"/>
<use x="700.84" y="240.00" xlink:href="#hd"/>
<path d="M697.34 240.00v33.20" class="stroke"/>
<use x="718.84" y="243.00" xlink:href="#hd"/>
<use x="709.84" y="243.00" xlink:href="#sh0"/>
<path d="M715.34 243.00v30.20" class="stroke"/>
<use x="733.24" y="240.00" xlink:href="#hd"/>
<path d="M729.74 240.00v33.20" class="stroke"/>
<use x="747.74" y="234.00" xlink:href="#hd"/>
<path d="M744.24 234.00v39.20" class="stroke"/>
<use x="762.14" y="252.00" xlink:href="#hd"/>
<path d="M758.64 252.00v21.20" class="stroke"/>
<use x="776.54" y="246.00" xlink:href="#hd"/>
<path d="M773.04 246.00v27.20" class="stroke"/>
<use x="801.54" y="243.00" xlink:href="#hd"/>
<path d="M798.04 243.00v21.00" class="stroke"/>
<use x="841.54" y="246.00" xlink:href="#r8"/>
<use x="23.54" y="298.00" xlink:href="#bclef"/>
<path class="fill"
	d="M52.24 335.20l67.50 -4.90v-3.20l-67.50 4.90"/>
<path class="fill"
	d="M72.54 328.70l46.90 -3.40v-3.20l-46.90 3.40"/>
<use x="56.04" y="316.00" xlink:href="#hd"/>
<path d="M52.54 316.00v18.20" class="stroke"/>
<use x="76.04" y="289.00" xlink:href="#hd"/>
<path d="M72.54 289.00v43.70" class="stroke"/>
<use x="90.44" y="295.00" xlink:href="#hd"/>
<path d="M86.94 295.00v36.70" class="stroke"/>
<use x="108.44" y="298.00" xlink:href="#hd"/>
<use x="99.44" y="298.00" xlink:href="#sh0"/>
<path d="M104.94 298.00v32.40" class="stroke"/>
<use x="122.84" y="301.00" xlink:href="#hd"/>
<path d="M119.34 301.00v28.30" class="stroke"/>
<use x="161.84" y="298.00" xlink:href="#hd"/>
<use x="152.84" y="298.00" xlink:href="#sh0"/>
<path d="M158.34 298.00v25.00" class="stroke"/>
<use x="161.84" y="304.00" xlink:href="#hd"/>
<use x="214.44" y="298.00" xlink:href="#hd"/>
<path d="M210.94 298.00v28.00" class="stroke"/>
<path class="fill"
	d="M210.94 326.00c0.6 -5.6 9.6 -9 5.6 -18.4
	1.6 6 -1.3 11.6 -5.6 12.8
"/>
<use x="214.44" y="307.00" xlink:href="#hd"/>
<use x="253.94" y="310.00" xlink:href="#hd"/>
<path d="M257.44 310.00v-21.00" class="stroke"/>
<use x="311.64" y="304.00" xlink:href="#r8"/>
<use x="340.34" y="295.00" xlink:href="#hd"/>
<path d="M336.84 295.00v31.00" class="stroke"/>
<use x="340.34" y="307.00" xlink:href="#hd"/>
<use x="398.04" y="304.00" xlink:href="#r8"/>
<use x="437.54" y="316.00" xlink:href="#hd"/>
<path d="M441.04 316.00v-40.00" class="stroke"/>
<use x="437.54" y="295.00" xlink:href="#hd"/>
<use x="486.34" y="295.00" xlink:href="#hd"/>
<path d="M482.84 295.00v21.00" class="stroke"/>
<path class="fill"
	d="M482.84 316.00c0.6 -5.6 9.6 -9 5.6 -18.4
	1.6 6 -1.3 11.6 -5.6 12.8
"/>
<use x="515.04" y="301.00" xlink:href="#hd"/>
<path d="M511.54 301.00v25.00" class="stroke"/>
<use x="515.04" y="307.00" xlink:href="#hd"/>
<use x="573.14" y="295.00" xlink:href="#hd"/>
<path d="M569.64 295.00v31.00" class="stroke"/>
<path class="fill"
	d="M569.64 326.00c0.6 -5.6 9.6 -9 5.6 -18.4
	1.6 6 -1.3 11.6 -5.6 12.8
"/>
<use x="573.14" y="307.00" xlink:href="#hd"/>
<use x="612.54" y="301.00" xlink:href="#hd"/>
<path d="M609.04 301.00v25.00" class="stroke"/>
<use x="612.54" y="307.00" xlink:href="#hd"/>
<use x="661.44" y="295.00" xlink:href="#hd"/>
<path d="M657.94 295.00v25.00" class="stroke"/>
<path class="fill"
	d="M657.94 320.00c0.6 -5.6 9.6 -9 5.6 -18.4
	1.6 6 -1.3 11.6 -5.6 12.8
"/>
<use x="661.44" y="301.00" xlink:href="#hd"/>
<use x="700.84" y="298.00" xlink:href="#hd"/>
<path d="M697.34 298.00v21.00" class="stroke"/>
<use x="762.14" y="295.00" xlink:href="#hd"/>
<path d="M758.64 295.00v21.00" class="stroke"/>
<path class="fill"
	d="M758.64 316.00c0.6 -5.6 9.6 -9 5.6 -18.4
	1.6 6 -1.3 11.6 -5.6 12.8
"/>
<path class="fill"
	d="M804.74 287.70l40.60 9.60v3.20l-40.60 -9.60"/>
<use x="801.54" y="307.00" xlink:href="#hd"/>
<path d="M805.04 307.00v-18.20" class="stroke"/>
<use x="821.54" y="316.00" xlink:href="#hd"/>
<path d="M825.04 316.00v-22.50" class="stroke"/>
<use x="841.54" y="322.00" xlink:href="#hl"/>
<use x="841.54" y="328.00" xlink:href="#hl"/>
<use x="841.54" y="328.00" xlink:href="#hd"/>
<path d="M845.04 328.00v-29.70" class="stroke"/>
</g>
</svg>
