<?xml version="1.0" standalone="no"?>
<!DOCTYPE svg PUBLIC "-//W3C//DTD SVG 1.1//EN"
	"http://www.w3.org/Graphics/SVG/1.1/DTD/svg11.dtd">
<svg xmlns="http://www.w3.org/2000/svg" version="1.1"
	xmlns:xlink="http://www.w3.org/1999/xlink"
	color="black"
	width="757.10px" height="299.00px">
<style type="text/css">
.fill {fill: currentColor}
.stroke {stroke: currentColor; fill: none}
text{white-space: pre}
</style>
<title>./K516f-11-6-3-12-6-10-3-2-6-8-11-3-11-6-2-7.abc (1517) tune 1</title>
<!-- Creator: abcm2ps-8.13.8 -->
<!-- CreationDate: Sep  7, 2017 11:19 -->
<!-- CommandLine: ./K516f-11-6-3-12-6-10-3-2-6-8-11-3-11-6-2-7.abc -O ./K516f-11-6-3-12-6-10-3-2-6-8-11-3-11-6-2-7.svg -g -->
<rect width="100%" height="100%" fill="white"/>
<g stroke-width="0.70" transform="scale(0.867)">
<!-- title: 11-6-3-12-6-10-3-2-6-8-11-3-11-6-2-7 -->
</g>
<g stroke-width="0.70" transform="scale(0.867)" font-family="Times" font-size="20.00">
<text x="436.84" y="22.00" text-anchor="middle">11-6-3-12-6-10-3-2-6-8-11-3-11-6-2-7</text>
</g>
<g stroke-width="0.70" transform="scale(0.867)" font-family="Times" font-size="20.00">
<!-- subtitle: $1K.516f::3:74:128:103:80:129:134:30:25:155:31:56:144:136:109:151::$0 -->
</g>
<g stroke-width="0.70" transform="scale(0.867)" font-family="Courier" font-size="8.00" font-weight="bold">
<text x="436.84" y="41.80" text-anchor="middle">K.516f::3:74:128:103:80:129:134:30:25:155:31:56:144:136:109:151::</text>
</g>
<g stroke-width="0.70" transform="scale(0.867)" font-family="Courier" font-size="8.00" font-weight="bold">
<!-- subtitle: $1Perm. No.: 15170044730191$0 -->
<text x="436.84" y="60.80" text-anchor="middle">Perm. No.: 15170044730191</text>
</g>
<g stroke-width="0.70" transform="scale(0.607)" font-family="Courier" font-size="8.00" font-weight="bold">
<defs>
<ellipse id="hd" rx="4.1" ry="2.9"
	transform="rotate(-20)" class="fill"/>
</defs>
<use x="103.06" y="121.29" xlink:href="#hd"/>
<path d="M106.56 121.29v-21.00" class="stroke"/>
<path class="fill"
	d="M106.56 100.29c0.6 5.6 9.6 9 5.6 18.4
	1.6 -6 -1.3 -11.6 -5.6 -12.8
"/>
</g>
<g stroke-width="0.70" transform="scale(0.867)" font-family="Times" font-size="15.00" font-weight="bold">
<text x="81.24" y="87.00">= 111</text>
<path class="stroke" stroke-width="1"
	d="M11.54 183.00v-82.00"/>
<path class="fill"
	d="M6.54 98.00
	c10.5 1 12 -4.5 12 -3.5c0 1 -3.5 5.5 -8.5 5.5
	v84.00
	c5 0 8.5 4.5 8.5 5.5c0 1 -1.5 -4.5 -12 -3.5"/>
<defs>
<g id="rdots" class="fill">
	<circle cx="0" cy="-9" r="1.2"/>
	<circle cx="0" cy="-15" r="1.2"/>
</g>
</defs>
<use x="70.54" y="125.00" xlink:href="#rdots"/>
<path class="stroke" stroke-width="1"
	d="M66.54 125.00v-24.00"/>
<path class="stroke" stroke-width="3"
	d="M62.04 125.00v-24.00"/>
<use x="70.54" y="183.00" xlink:href="#rdots"/>
<path class="stroke" stroke-width="1"
	d="M66.54 183.00v-58.00"/>
<path class="stroke" stroke-width="3"
	d="M62.04 183.00v-58.00"/>
<path class="stroke" stroke-width="1"
	d="M153.94 125.00v-24.00"/>
<path class="stroke" stroke-width="1"
	d="M153.94 183.00v-58.00"/>
<path class="stroke" stroke-width="1"
	d="M268.64 125.00v-24.00"/>
<path class="stroke" stroke-width="1"
	d="M268.64 183.00v-58.00"/>
<path class="stroke" stroke-width="1"
	d="M351.04 125.00v-24.00"/>
<path class="stroke" stroke-width="1"
	d="M351.04 183.00v-58.00"/>
<path class="stroke" stroke-width="1"
	d="M453.94 125.00v-24.00"/>
<path class="stroke" stroke-width="1"
	d="M453.94 183.00v-58.00"/>
<path class="stroke" stroke-width="1"
	d="M536.44 125.00v-24.00"/>
<path class="stroke" stroke-width="1"
	d="M536.44 183.00v-58.00"/>
<path class="stroke" stroke-width="1"
	d="M639.84 125.00v-24.00"/>
<path class="stroke" stroke-width="1"
	d="M639.84 183.00v-58.00"/>
<path class="stroke" stroke-width="1"
	d="M755.14 125.00v-24.00"/>
<path class="stroke" stroke-width="1"
	d="M755.14 183.00v-58.00"/>
<path class="stroke" stroke-width="3"
	d="M860.54 125.00v-24.00"/>
<path class="stroke" stroke-width="1"
	d="M856.04 125.00v-24.00"/>
<use x="852.04" y="125.00" xlink:href="#rdots"/>
<path class="stroke" stroke-width="3"
	d="M860.54 183.00v-58.00"/>
<path class="stroke" stroke-width="1"
	d="M856.04 183.00v-58.00"/>
<use x="852.04" y="183.00" xlink:href="#rdots"/>
<path d="m11.54 125.00
	h850.50
	M11.54 119.00
	h850.50
	M11.54 113.00
	h850.50
	M11.54 107.00
	h850.50
	M11.54 101.00
	h850.50
	" class="stroke"/>
<path d="m11.54 183.00
	h850.50
	M11.54 177.00
	h850.50
	M11.54 171.00
	h850.50
	M11.54 165.00
	h850.50
	M11.54 159.00
	h850.50
	" class="stroke"/>
</g>
<g stroke-width="0.70" transform="scale(0.867)" font-family="Times" font-size="13.00">
<text x="759.14" y="86.40">1</text>
<path class="stroke"
	d="M755.14 75.00m0 20v-20h98.90v20"/>
<defs>
<path id="utclef" class="fill" d="m-50 -90
	c-72 -41 -72 -158 52 -188
	150 -10 220 188 90 256
	-114 52 -275 0 -293 -136
	-15 -181 93 -229 220 -334
	88 -87 79 -133 62 -210
	-51 33 -94 105 -89 186
	17 267 36 374 49 574
	6 96 -19 134 -77 135
	-80 1 -126 -93 -61 -133
	85 -41 133 101 31 105
	23 17 92 37 90 -92
	-10 -223 -39 -342 -50 -617
	0 -90 0 -162 96 -232
	56 72 63 230 22 289
	-74 106 -257 168 -255 316
	9 153 148 185 252 133
	86 -65 29 -192 -80 -176
	-71 12 -105 67 -59 124"/>
<use id="tclef" transform="translate(0,6) scale(0.045)"
	xlink:href="#utclef"/>
</defs>
<use x="23.54" y="119.00" xlink:href="#tclef"/>
<g font-family="serif" font-size="16" font-weight="bold" font-style="normal"
	transform="translate(42.04,124.50) scale(1.2,1)">
	<text text-anchor="middle">8</text>
	<text y="-12" text-anchor="middle">3</text>
</g>
<path class="fill"
	d="M81.44 127.60l50.00 3.20v-3.20l-50.00 -3.20"/>
<use x="85.34" y="98.00" xlink:href="#hd"/>
<path d="M81.84 98.00v28.60" class="stroke"/>
<use x="110.04" y="110.00" xlink:href="#hd"/>
<path d="M106.54 110.00v18.20" class="stroke"/>
<use x="134.64" y="104.00" xlink:href="#hd"/>
<path d="M131.14 104.00v25.80" class="stroke"/>
<path class="fill"
	d="M163.84 122.50l88.00 9.70v-3.20l-88.00 -9.70"/>
<path class="fill"
	d="M164.24 117.60l87.30 9.60v-3.20l-87.30 -9.60"/>
<defs>
<path id="hl" class="stroke" d="m-6 0h12"/>
</defs>
<use x="167.74" y="95.00" xlink:href="#hl"/>
<use x="167.74" y="89.00" xlink:href="#hl"/>
<use x="167.74" y="89.00" xlink:href="#hd"/>
<path d="M164.24 89.00v32.60" class="stroke"/>
<use x="185.14" y="95.00" xlink:href="#hl"/>
<use x="185.14" y="92.00" xlink:href="#hd"/>
<path d="M181.64 92.00v31.50" class="stroke"/>
<use x="202.64" y="95.00" xlink:href="#hl"/>
<use x="202.64" y="89.00" xlink:href="#hl"/>
<use x="202.64" y="89.00" xlink:href="#hd"/>
<path d="M199.14 89.00v36.40" class="stroke"/>
<use x="220.14" y="98.00" xlink:href="#hd"/>
<path d="M216.64 98.00v29.40" class="stroke"/>
<use x="237.54" y="104.00" xlink:href="#hd"/>
<path d="M234.04 104.00v25.30" class="stroke"/>
<use x="255.04" y="110.00" xlink:href="#hd"/>
<path d="M251.54 110.00v21.20" class="stroke"/>
<path class="fill"
	d="M278.64 132.20l50.00 -6.70v-3.20l-50.00 6.70"/>
<use x="282.44" y="113.00" xlink:href="#hd"/>
<path d="M278.94 113.00v18.20" class="stroke"/>
<use x="307.14" y="107.00" xlink:href="#hd"/>
<path d="M303.64 107.00v20.90" class="stroke"/>
<use x="331.84" y="98.00" xlink:href="#hd"/>
<path d="M328.34 98.00v26.60" class="stroke"/>
<path class="fill"
	d="M368.04 79.70l70.50 8.30v3.20l-70.50 -8.30"/>
<path class="fill"
	d="M368.34 84.70l52.40 6.20v3.20l-52.40 -6.20"/>
<use x="364.84" y="110.00" xlink:href="#hd"/>
<path d="M368.34 110.00v-29.30" class="stroke"/>
<use x="382.34" y="104.00" xlink:href="#hd"/>
<path d="M385.84 104.00v-21.20" class="stroke"/>
<use x="399.74" y="110.00" xlink:href="#hd"/>
<path d="M403.24 110.00v-25.10" class="stroke"/>
<use x="417.24" y="119.00" xlink:href="#hd"/>
<path d="M420.74 119.00v-32.10" class="stroke"/>
<use x="434.74" y="125.00" xlink:href="#hd"/>
<path d="M438.24 125.00v-36.00" class="stroke"/>
<path class="fill"
	d="M463.84 136.80l50.10 -3.20v-3.20l-50.10 3.20"/>
<use x="467.74" y="107.00" xlink:href="#hd"/>
<path d="M464.24 107.00v28.80" class="stroke"/>
<use x="492.44" y="116.00" xlink:href="#hd"/>
<path d="M488.94 116.00v18.20" class="stroke"/>
<use x="517.14" y="101.00" xlink:href="#hd"/>
<defs>
<path id="usharp" class="fill" d="
	m136 -702
	v890
	h32
	v-890
	m128 840
	h32
	v-888
	h-32
	m-232 286
	v116
	l338 -96
	v-116
	m-338 442
	v116
	l338 -98
	v-114"/>
<use id="sh0" transform="translate(-4,5) scale(0.018)"
	xlink:href="#usharp"/>
</defs>
<use x="508.14" y="101.00" xlink:href="#sh0"/>
<path d="M513.64 101.00v31.60" class="stroke"/>
<path class="fill"
	d="M546.34 121.20l71.10 5.00v-3.20l-71.10 -5.00"/>
<path class="fill"
	d="M546.64 116.30l52.90 3.70v-3.20l-52.90 -3.70"/>
<use x="550.14" y="95.00" xlink:href="#hl"/>
<use x="550.14" y="95.00" xlink:href="#hd"/>
<path d="M546.64 95.00v25.30" class="stroke"/>
<use x="567.64" y="98.00" xlink:href="#hd"/>
<path d="M564.14 98.00v23.50" class="stroke"/>
<use x="585.64" y="101.00" xlink:href="#hd"/>
<use x="576.64" y="101.00" xlink:href="#sh0"/>
<path d="M582.14 101.00v21.70" class="stroke"/>
<use x="603.14" y="98.00" xlink:href="#hd"/>
<path d="M599.64 98.00v26.00" class="stroke"/>
<use x="620.54" y="107.00" xlink:href="#hd"/>
<path d="M617.04 107.00v18.20" class="stroke"/>
<path class="fill"
	d="M649.74 140.20l88.50 0.00v-3.20l-88.50 -0.00"/>
<path class="fill"
	d="M650.14 135.20l87.90 0.00v-3.20l-87.90 -0.00"/>
<use x="653.64" y="116.00" xlink:href="#hd"/>
<path d="M650.14 116.00v23.20" class="stroke"/>
<use x="671.04" y="104.00" xlink:href="#hd"/>
<path d="M667.54 104.00v35.20" class="stroke"/>
<use x="688.54" y="107.00" xlink:href="#hd"/>
<path d="M685.04 107.00v32.20" class="stroke"/>
<use x="688.54" y="113.00" xlink:href="#hd"/>
<use x="706.04" y="110.00" xlink:href="#hd"/>
<path d="M702.54 110.00v29.20" class="stroke"/>
<use x="706.04" y="116.00" xlink:href="#hd"/>
<use x="723.44" y="113.00" xlink:href="#hd"/>
<path d="M719.94 113.00v26.20" class="stroke"/>
<use x="723.44" y="119.00" xlink:href="#hd"/>
<use x="741.44" y="116.00" xlink:href="#hd"/>
<path d="M737.94 116.00v23.20" class="stroke"/>
<use x="741.44" y="122.00" xlink:href="#hd"/>
<use x="732.44" y="122.00" xlink:href="#sh0"/>
<use x="768.84" y="98.00" xlink:href="#hd"/>
<path d="M765.34 98.00v40.00" class="stroke"/>
<use x="768.84" y="119.00" xlink:href="#hd"/>
<use x="768.84" y="113.00" xlink:href="#hd"/>
<use x="768.84" y="107.00" xlink:href="#hd"/>
<defs>
<path id="r8e" class="fill" d="m 0 0
	c-1.5 1.5 -2.4 2 -3.6 2
	2.4 -2.8 -2.8 -4 -2.8 -1.2
	c0 2.7 4.3 2.4 5.9 0.6"/>
<g id="r8">
	<path d="m3.3 -4l-3.4 9.6" class="stroke"/>
	<use x="3.4" y="-4" xlink:href="#r8e"/>
</g>
</defs>
<use x="829.04" y="113.00" xlink:href="#r8"/>
<defs>
<path id="ubclef" class="fill" d="m-200 -87
	c124 -35 222 -78 254 -236
	43 -228 -167 -246 -192 -103
	59 -80 157 22 92 78
	-62 47 -115 -22 -106 -88
	21 -141 270 -136 274 52
	-1 175 -106 264 -322 297
	m357 -250
	c0 -36 51 -34 51 0
	0 37 -51 36 -51 0
	m-2 -129
	c0 -36 51 -34 51 0
	0 38 -51 37 -51 0"/>
<use id="bclef" transform="translate(0,18) scale(0.045)"
	xlink:href="#ubclef"/>
</defs>
<use x="23.54" y="165.00" xlink:href="#bclef"/>
<g font-family="serif" font-size="16" font-weight="bold" font-style="normal"
	transform="translate(42.04,182.50) scale(1.2,1)">
	<text text-anchor="middle">8</text>
	<text y="-12" text-anchor="middle">3</text>
</g>
<use x="85.34" y="168.00" xlink:href="#hd"/>
<path d="M81.84 168.00v25.00" class="stroke"/>
<use x="85.34" y="174.00" xlink:href="#hd"/>
<use x="134.64" y="171.00" xlink:href="#r8"/>
<use x="167.74" y="168.00" xlink:href="#hd"/>
<path d="M171.24 168.00v-21.00" class="stroke"/>
<use x="237.54" y="171.00" xlink:href="#r8"/>
<use x="282.44" y="183.00" xlink:href="#hd"/>
<path d="M285.94 183.00v-21.00" class="stroke"/>
<use x="331.84" y="171.00" xlink:href="#r8"/>
<use x="364.84" y="168.00" xlink:href="#hd"/>
<path d="M361.34 168.00v25.00" class="stroke"/>
<use x="364.84" y="174.00" xlink:href="#hd"/>
<use x="434.74" y="171.00" xlink:href="#r8"/>
<use x="467.74" y="174.00" xlink:href="#hd"/>
<path d="M471.24 174.00v-21.00" class="stroke"/>
<use x="517.14" y="171.00" xlink:href="#r8"/>
<path class="fill"
	d="M553.34 149.50l71.10 -4.70v3.20l-71.10 4.70"/>
<use x="550.14" y="177.00" xlink:href="#hd"/>
<path d="M553.64 177.00v-26.50" class="stroke"/>
<use x="550.14" y="171.00" xlink:href="#hd"/>
<use x="585.64" y="177.00" xlink:href="#hd"/>
<path d="M589.14 177.00v-28.90" class="stroke"/>
<use x="585.64" y="171.00" xlink:href="#hd"/>
<use x="620.54" y="177.00" xlink:href="#hd"/>
<path d="M624.04 177.00v-31.20" class="stroke"/>
<use x="620.54" y="162.00" xlink:href="#hd"/>
<path class="fill"
	d="M656.74 147.60l70.50 8.30v3.20l-70.50 -8.30"/>
<use x="653.64" y="174.00" xlink:href="#hd"/>
<path d="M657.14 174.00v-25.30" class="stroke"/>
<use x="688.54" y="171.00" xlink:href="#hd"/>
<path d="M692.04 171.00v-18.20" class="stroke"/>
<use x="723.44" y="189.00" xlink:href="#hl"/>
<use x="723.44" y="192.00" xlink:href="#hd"/>
<path d="M726.94 192.00v-35.10" class="stroke"/>
<path class="fill"
	d="M765.04 202.20l78.30 0.00v-3.20l-78.30 -0.00"/>
<path class="fill"
	d="M790.04 197.20l52.90 0.00v-3.20l-52.90 -0.00"/>
<use x="768.84" y="183.00" xlink:href="#hd"/>
<path d="M765.34 183.00v18.20" class="stroke"/>
<use x="793.54" y="162.00" xlink:href="#hd"/>
<path d="M790.04 162.00v39.20" class="stroke"/>
<use x="811.54" y="165.00" xlink:href="#hd"/>
<defs>
<path id="unat" class="fill" d="
	m96 -750
	h-32
	v716
	l32 -8
	182 -54
	v282
	h32
	v-706
	l-34 10
	-180 50
	v-290
	m0 592
	v-190
	l182 -52
	v188"/>
<use id="nt0" transform="translate(-3,5) scale(0.018)"
	xlink:href="#unat"/>
</defs>
<use x="802.54" y="165.00" xlink:href="#nt0"/>
<path d="M808.04 165.00v36.20" class="stroke"/>
<use x="829.04" y="168.00" xlink:href="#hd"/>
<path d="M825.54 168.00v33.20" class="stroke"/>
<use x="846.44" y="171.00" xlink:href="#hd"/>
<path d="M842.94 171.00v30.20" class="stroke"/>
<use x="167.74" y="174.00" xlink:href="#hd"/>
<path d="M164.24 174.00v21.00" class="stroke"/>
<defs>
<path id="turn" class="fill" d="
	m5.2 -8
	c1.4 0.5 0.9 4.8 -2.2 2.8
	l-4.8 -3.5
	c-3 -2 -5.8 1.8 -3.6 4.4
	1 1.1 2 0.8 2.1 -0.1
	0.1 -0.9 -0.7 -1.2 -1.9 -0.6
	-1.4 -0.5 -0.9 -4.8 2.2 -2.8
	l4.8 3.5
	c3 2 5.8 -1.8 3.6 -4.4
	-1 -1.1 -2 -0.8 -2.1 0.1
	-0.1 0.9 0.7 1.2 1.9 0.6"/>
</defs>
<use x="492.44" y="99.00" xlink:href="#turn"/>
</g>
<g stroke-width="0.70" transform="scale(0.867)" font-family="Times" font-size="13.00">
<path class="stroke" stroke-width="1"
	d="M11.54 322.00v-88.00"/>
<path class="fill"
	d="M6.54 231.00
	c10.5 1 12 -4.5 12 -3.5c0 1 -3.5 5.5 -8.5 5.5
	v90.00
	c5 0 8.5 4.5 8.5 5.5c0 1 -1.5 -4.5 -12 -3.5"/>
<use x="141.94" y="258.00" xlink:href="#rdots"/>
<path class="stroke" stroke-width="1"
	d="M137.94 258.00v-24.00"/>
<path class="stroke" stroke-width="3"
	d="M133.44 258.00v-24.00"/>
<use x="141.94" y="322.00" xlink:href="#rdots"/>
<path class="stroke" stroke-width="1"
	d="M137.94 322.00v-64.00"/>
<path class="stroke" stroke-width="3"
	d="M133.44 322.00v-64.00"/>
<path class="stroke" stroke-width="1"
	d="M246.84 258.00v-24.00"/>
<path class="stroke" stroke-width="1"
	d="M246.84 322.00v-64.00"/>
<path class="stroke" stroke-width="1"
	d="M343.44 258.00v-24.00"/>
<path class="stroke" stroke-width="1"
	d="M343.44 322.00v-64.00"/>
<path class="stroke" stroke-width="1"
	d="M422.44 258.00v-24.00"/>
<path class="stroke" stroke-width="1"
	d="M422.44 322.00v-64.00"/>
<path class="stroke" stroke-width="1"
	d="M499.44 258.00v-24.00"/>
<path class="stroke" stroke-width="1"
	d="M499.44 322.00v-64.00"/>
<path class="stroke" stroke-width="1"
	d="M596.04 258.00v-24.00"/>
<path class="stroke" stroke-width="1"
	d="M596.04 322.00v-64.00"/>
<path class="stroke" stroke-width="1"
	d="M692.94 258.00v-24.00"/>
<path class="stroke" stroke-width="1"
	d="M692.94 322.00v-64.00"/>
<path class="stroke" stroke-width="1"
	d="M789.44 258.00v-24.00"/>
<path class="stroke" stroke-width="1"
	d="M789.44 322.00v-64.00"/>
<path class="stroke" stroke-width="3"
	d="M860.54 258.00v-24.00"/>
<path class="stroke" stroke-width="1"
	d="M856.04 258.00v-24.00"/>
<use x="852.04" y="258.00" xlink:href="#rdots"/>
<path class="stroke" stroke-width="3"
	d="M860.54 322.00v-64.00"/>
<path class="stroke" stroke-width="1"
	d="M856.04 322.00v-64.00"/>
<use x="852.04" y="322.00" xlink:href="#rdots"/>
<path d="m11.54 258.00
	h850.50
	M11.54 252.00
	h850.50
	M11.54 246.00
	h850.50
	M11.54 240.00
	h850.50
	M11.54 234.00
	h850.50
	" class="stroke"/>
<path d="m11.54 322.00
	h850.50
	M11.54 316.00
	h850.50
	M11.54 310.00
	h850.50
	M11.54 304.00
	h850.50
	M11.54 298.00
	h850.50
	" class="stroke"/>
<text x="47.54" y="219.40">2</text>
<path class="stroke"
	d="M43.54 208.00m0 20v-20h87.40v20"/>
<use x="23.54" y="252.00" xlink:href="#tclef"/>
<use x="56.04" y="231.00" xlink:href="#hd"/>
<path d="M52.54 231.00v40.00" class="stroke"/>
<use x="56.04" y="252.00" xlink:href="#hd"/>
<use x="56.04" y="246.00" xlink:href="#hd"/>
<use x="56.04" y="240.00" xlink:href="#hd"/>
<use x="108.14" y="246.00" xlink:href="#r8"/>
<path class="fill"
	d="M151.64 281.30l79.60 -13.20v-3.20l-79.60 13.20"/>
<path class="fill"
	d="M151.94 276.20l78.90 -13.10v-3.20l-78.90 13.10"/>
<use x="155.44" y="261.00" xlink:href="#hd"/>
<path d="M151.94 261.00v19.20" class="stroke"/>
<use x="173.44" y="255.00" xlink:href="#hd"/>
<use x="164.44" y="255.00" xlink:href="#sh0"/>
<path d="M169.94 255.00v22.20" class="stroke"/>
<use x="187.74" y="249.00" xlink:href="#hd"/>
<path d="M184.24 249.00v25.90" class="stroke"/>
<use x="202.04" y="240.00" xlink:href="#hd"/>
<path d="M198.54 240.00v32.50" class="stroke"/>
<use x="220.04" y="234.00" xlink:href="#hd"/>
<use x="211.04" y="234.00" xlink:href="#sh0"/>
<path d="M216.54 234.00v35.50" class="stroke"/>
<use x="234.34" y="228.00" xlink:href="#hl"/>
<use x="234.34" y="228.00" xlink:href="#hd"/>
<path d="M230.84 228.00v39.10" class="stroke"/>
<path class="fill"
	d="M255.54 263.50l72.20 10.80v-3.20l-72.20 -10.80"/>
<path class="fill"
	d="M255.84 258.50l71.50 10.70v-3.20l-71.50 -10.70"/>
<use x="259.34" y="231.00" xlink:href="#hd"/>
<path d="M255.84 231.00v31.50" class="stroke"/>
<use x="273.64" y="228.00" xlink:href="#hl"/>
<use x="273.64" y="225.00" xlink:href="#hd"/>
<path d="M270.14 225.00v39.70" class="stroke"/>
<use x="288.04" y="231.00" xlink:href="#hd"/>
<path d="M284.54 231.00v35.80" class="stroke"/>
<use x="302.34" y="240.00" xlink:href="#hd"/>
<path d="M298.84 240.00v28.90" class="stroke"/>
<use x="316.64" y="246.00" xlink:href="#hd"/>
<path d="M313.14 246.00v25.10" class="stroke"/>
<use x="330.94" y="252.00" xlink:href="#hd"/>
<path d="M327.44 252.00v21.20" class="stroke"/>
<path class="fill"
	d="M352.04 265.60l29.30 5.70v-3.20l-29.30 -5.70"/>
<path class="fill"
	d="M352.44 260.70l14.30 2.80v-3.20l-14.30 -2.80"/>
<use x="355.94" y="237.00" xlink:href="#hd"/>
<path d="M352.44 237.00v27.70" class="stroke"/>
<use x="370.24" y="243.00" xlink:href="#hd"/>
<path d="M366.74 243.00v24.40" class="stroke"/>
<use x="384.54" y="252.00" xlink:href="#hd"/>
<path d="M381.04 252.00v18.20" class="stroke"/>
<use x="406.44" y="237.00" xlink:href="#hd"/>
<path d="M402.94 237.00v21.00" class="stroke"/>
<path class="fill"
	d="M402.94 258.00c0.6 -5.6 9.6 -9 5.6 -18.4
	1.6 6 -1.3 11.6 -5.6 12.8
"/>
<path class="fill"
	d="M431.14 265.70l29.30 6.70v-3.20l-29.30 -6.70"/>
<path class="fill"
	d="M431.44 260.70l14.30 3.30v-3.20l-14.30 -3.30"/>
<use x="434.94" y="240.00" xlink:href="#hd"/>
<path d="M431.44 240.00v24.70" class="stroke"/>
<use x="449.24" y="246.00" xlink:href="#hd"/>
<path d="M445.74 246.00v22.00" class="stroke"/>
<use x="463.64" y="252.00" xlink:href="#hd"/>
<path d="M460.14 252.00v19.30" class="stroke"/>
<use x="483.44" y="246.00" xlink:href="#r8"/>
<path class="fill"
	d="M508.14 260.60l57.90 3.20v-3.20l-57.90 -3.20"/>
<use x="511.94" y="231.00" xlink:href="#hd"/>
<path d="M508.44 231.00v28.60" class="stroke"/>
<use x="540.54" y="243.00" xlink:href="#hd"/>
<path d="M537.04 243.00v18.20" class="stroke"/>
<use x="569.14" y="237.00" xlink:href="#hd"/>
<path d="M565.64 237.00v25.80" class="stroke"/>
<path class="fill"
	d="M604.64 256.00l72.60 9.30v-3.20l-72.60 -9.30"/>
<path class="fill"
	d="M605.04 251.00l71.90 9.20v-3.20l-71.90 -9.20"/>
<use x="608.54" y="228.00" xlink:href="#hl"/>
<use x="608.54" y="222.00" xlink:href="#hl"/>
<use x="608.54" y="222.00" xlink:href="#hd"/>
<path d="M605.04 222.00v33.00" class="stroke"/>
<use x="622.94" y="228.00" xlink:href="#hl"/>
<use x="622.94" y="225.00" xlink:href="#hd"/>
<path d="M619.44 225.00v31.90" class="stroke"/>
<use x="637.44" y="228.00" xlink:href="#hl"/>
<use x="637.44" y="222.00" xlink:href="#hl"/>
<use x="637.44" y="222.00" xlink:href="#hd"/>
<path d="M633.94 222.00v36.70" class="stroke"/>
<use x="651.74" y="231.00" xlink:href="#hd"/>
<path d="M648.24 231.00v29.50" class="stroke"/>
<use x="666.14" y="237.00" xlink:href="#hd"/>
<path d="M662.64 237.00v25.40" class="stroke"/>
<use x="680.44" y="243.00" xlink:href="#hd"/>
<path d="M676.94 243.00v21.20" class="stroke"/>
<path class="fill"
	d="M701.54 266.00l72.20 0.00v-3.20l-72.20 -0.00"/>
<path class="fill"
	d="M701.94 261.00l71.50 0.00v-3.20l-71.50 -0.00"/>
<use x="705.44" y="240.00" xlink:href="#hd"/>
<path d="M701.94 240.00v24.90" class="stroke"/>
<use x="719.74" y="234.00" xlink:href="#hd"/>
<path d="M716.24 234.00v30.90" class="stroke"/>
<use x="734.04" y="240.00" xlink:href="#hd"/>
<path d="M730.54 240.00v24.90" class="stroke"/>
<use x="748.34" y="234.00" xlink:href="#hd"/>
<path d="M744.84 234.00v30.90" class="stroke"/>
<use x="762.64" y="246.00" xlink:href="#hd"/>
<path d="M759.14 246.00v18.90" class="stroke"/>
<use x="776.94" y="240.00" xlink:href="#hd"/>
<path d="M773.44 240.00v24.90" class="stroke"/>
<use x="801.94" y="243.00" xlink:href="#hd"/>
<path d="M798.44 243.00v21.00" class="stroke"/>
<use x="841.54" y="246.00" xlink:href="#r8"/>
<use x="23.54" y="304.00" xlink:href="#bclef"/>
<path class="fill"
	d="M52.24 341.20l67.10 -4.90v-3.20l-67.10 4.90"/>
<path class="fill"
	d="M72.34 334.70l46.60 -3.40v-3.20l-46.60 3.40"/>
<use x="56.04" y="322.00" xlink:href="#hd"/>
<path d="M52.54 322.00v18.20" class="stroke"/>
<use x="75.84" y="295.00" xlink:href="#hd"/>
<path d="M72.34 295.00v43.70" class="stroke"/>
<use x="90.14" y="301.00" xlink:href="#hd"/>
<path d="M86.64 301.00v36.70" class="stroke"/>
<use x="108.14" y="304.00" xlink:href="#hd"/>
<use x="99.14" y="304.00" xlink:href="#sh0"/>
<path d="M104.64 304.00v32.40" class="stroke"/>
<use x="122.44" y="307.00" xlink:href="#hd"/>
<path d="M118.94 307.00v28.30" class="stroke"/>
<use x="155.44" y="310.00" xlink:href="#hd"/>
<path d="M158.94 310.00v-21.00" class="stroke"/>
<use x="220.04" y="313.00" xlink:href="#hd"/>
<path d="M223.54 313.00v-21.00" class="stroke"/>
<path class="fill"
	d="M223.54 292.00c0.6 5.6 9.6 9 5.6 18.4
	1.6 -6 -1.3 -11.6 -5.6 -12.8
"/>
<use x="259.34" y="316.00" xlink:href="#hd"/>
<path d="M262.84 316.00v-25.00" class="stroke"/>
<use x="259.34" y="310.00" xlink:href="#hd"/>
<use x="316.64" y="310.00" xlink:href="#r8"/>
<use x="355.94" y="301.00" xlink:href="#hd"/>
<path d="M352.44 301.00v31.00" class="stroke"/>
<use x="355.94" y="313.00" xlink:href="#hd"/>
<use x="406.44" y="301.00" xlink:href="#hd"/>
<path d="M402.94 301.00v31.00" class="stroke"/>
<path class="fill"
	d="M402.94 332.00c0.6 -5.6 9.6 -9 5.6 -18.4
	1.6 6 -1.3 11.6 -5.6 12.8
"/>
<use x="406.44" y="313.00" xlink:href="#hd"/>
<use x="434.94" y="322.00" xlink:href="#hd"/>
<path d="M438.44 322.00v-40.00" class="stroke"/>
<use x="434.94" y="301.00" xlink:href="#hd"/>
<use x="483.44" y="301.00" xlink:href="#hd"/>
<path d="M479.94 301.00v21.00" class="stroke"/>
<path class="fill"
	d="M479.94 322.00c0.6 -5.6 9.6 -9 5.6 -18.4
	1.6 6 -1.3 11.6 -5.6 12.8
"/>
<path class="fill"
	d="M508.14 329.90l72.20 0.00v-3.20l-72.20 -0.00"/>
<path class="fill"
	d="M508.44 324.90l71.50 0.00v-3.20l-71.50 -0.00"/>
<use x="511.94" y="307.00" xlink:href="#hd"/>
<path d="M508.44 307.00v21.90" class="stroke"/>
<use x="511.94" y="313.00" xlink:href="#hd"/>
<use x="526.24" y="301.00" xlink:href="#hd"/>
<path d="M522.74 301.00v27.90" class="stroke"/>
<use x="540.54" y="307.00" xlink:href="#hd"/>
<path d="M537.04 307.00v21.90" class="stroke"/>
<use x="540.54" y="313.00" xlink:href="#hd"/>
<use x="554.84" y="301.00" xlink:href="#hd"/>
<path d="M551.34 301.00v27.90" class="stroke"/>
<use x="569.14" y="307.00" xlink:href="#hd"/>
<path d="M565.64 307.00v21.90" class="stroke"/>
<use x="569.14" y="313.00" xlink:href="#hd"/>
<use x="583.54" y="301.00" xlink:href="#hd"/>
<path d="M580.04 301.00v27.90" class="stroke"/>
<use x="608.54" y="307.00" xlink:href="#hd"/>
<path d="M605.04 307.00v25.00" class="stroke"/>
<use x="608.54" y="313.00" xlink:href="#hd"/>
<use x="666.14" y="310.00" xlink:href="#r8"/>
<use x="705.44" y="298.00" xlink:href="#hd"/>
<path d="M701.94 298.00v25.00" class="stroke"/>
<use x="705.44" y="304.00" xlink:href="#hd"/>
<use x="762.64" y="292.00" xlink:href="#hl"/>
<use x="762.64" y="289.00" xlink:href="#hd"/>
<path d="M759.14 289.00v31.00" class="stroke"/>
<path class="fill"
	d="M759.14 320.00c0.6 -5.6 9.6 -9 5.6 -18.4
	1.6 6 -1.3 11.6 -5.6 12.8
"/>
<use x="762.64" y="301.00" xlink:href="#hd"/>
<path class="fill"
	d="M805.14 293.70l40.30 9.60v3.20l-40.30 -9.60"/>
<use x="801.94" y="313.00" xlink:href="#hd"/>
<path d="M805.44 313.00v-18.20" class="stroke"/>
<use x="821.74" y="322.00" xlink:href="#hd"/>
<path d="M825.24 322.00v-22.50" class="stroke"/>
<use x="841.54" y="328.00" xlink:href="#hl"/>
<use x="841.54" y="334.00" xlink:href="#hl"/>
<use x="841.54" y="334.00" xlink:href="#hd"/>
<path d="M845.04 334.00v-29.80" class="stroke"/>
</g>
</svg>
