<?xml version="1.0" standalone="no"?>
<!DOCTYPE svg PUBLIC "-//W3C//DTD SVG 1.1//EN"
	"http://www.w3.org/Graphics/SVG/1.1/DTD/svg11.dtd">
<svg xmlns="http://www.w3.org/2000/svg" version="1.1"
	xmlns:xlink="http://www.w3.org/1999/xlink"
	color="black"
	width="757.10px" height="293.80px">
<style type="text/css">
.fill {fill: currentColor}
.stroke {stroke: currentColor; fill: none}
text{white-space: pre}
</style>
<title>./K516f-9-6-9-3-5-4-4-8-4-10-9-2-4-9-3-11.abc (5708) tune 1</title>
<!-- Creator: abcm2ps-8.13.8 -->
<!-- CreationDate: Sep  7, 2017 11:18 -->
<!-- CommandLine: ./K516f-9-6-9-3-5-4-4-8-4-10-9-2-4-9-3-11.abc -O ./K516f-9-6-9-3-5-4-4-8-4-10-9-2-4-9-3-11.svg -g -->
<rect width="100%" height="100%" fill="white"/>
<g stroke-width="0.70" transform="scale(0.867)">
<!-- title: 9-6-9-3-5-4-4-8-4-10-9-2-4-9-3-11 -->
</g>
<g stroke-width="0.70" transform="scale(0.867)" font-family="Times" font-size="20.00">
<text x="436.84" y="22.00" text-anchor="middle">9-6-9-3-5-4-4-8-4-10-9-2-4-9-3-11</text>
</g>
<g stroke-width="0.70" transform="scale(0.867)" font-family="Times" font-size="20.00">
<!-- subtitle: $1K.516f::119:74:114:63:161:55:110:127:66:77:48:9:73:115:116:78::$0 -->
</g>
<g stroke-width="0.70" transform="scale(0.867)" font-family="Courier" font-size="8.00" font-weight="bold">
<text x="436.84" y="41.80" text-anchor="middle">K.516f::119:74:114:63:161:55:110:127:66:77:48:9:73:115:116:78::</text>
</g>
<g stroke-width="0.70" transform="scale(0.867)" font-family="Courier" font-size="8.00" font-weight="bold">
<!-- subtitle: $1Perm. No.: 57080597512804$0 -->
<text x="436.84" y="60.80" text-anchor="middle">Perm. No.: 57080597512804</text>
</g>
<g stroke-width="0.70" transform="scale(0.607)" font-family="Courier" font-size="8.00" font-weight="bold">
<defs>
<ellipse id="hd" rx="4.1" ry="2.9"
	transform="rotate(-20)" class="fill"/>
</defs>
<use x="103.06" y="121.29" xlink:href="#hd"/>
<path d="M106.56 121.29v-21.00" class="stroke"/>
<path class="fill"
	d="M106.56 100.29c0.6 5.6 9.6 9 5.6 18.4
	1.6 -6 -1.3 -11.6 -5.6 -12.8
"/>
</g>
<g stroke-width="0.70" transform="scale(0.867)" font-family="Times" font-size="15.00" font-weight="bold">
<text x="81.24" y="87.00">= 111</text>
<path class="stroke" stroke-width="1"
	d="M11.54 183.00v-82.00"/>
<path class="fill"
	d="M6.54 98.00
	c10.5 1 12 -4.5 12 -3.5c0 1 -3.5 5.5 -8.5 5.5
	v84.00
	c5 0 8.5 4.5 8.5 5.5c0 1 -1.5 -4.5 -12 -3.5"/>
<defs>
<g id="rdots" class="fill">
	<circle cx="0" cy="-9" r="1.2"/>
	<circle cx="0" cy="-15" r="1.2"/>
</g>
</defs>
<use x="70.54" y="125.00" xlink:href="#rdots"/>
<path class="stroke" stroke-width="1"
	d="M66.54 125.00v-24.00"/>
<path class="stroke" stroke-width="3"
	d="M62.04 125.00v-24.00"/>
<use x="70.54" y="183.00" xlink:href="#rdots"/>
<path class="stroke" stroke-width="1"
	d="M66.54 183.00v-58.00"/>
<path class="stroke" stroke-width="3"
	d="M62.04 183.00v-58.00"/>
<path class="stroke" stroke-width="1"
	d="M183.84 125.00v-24.00"/>
<path class="stroke" stroke-width="1"
	d="M183.84 183.00v-58.00"/>
<path class="stroke" stroke-width="1"
	d="M296.14 125.00v-24.00"/>
<path class="stroke" stroke-width="1"
	d="M296.14 183.00v-58.00"/>
<path class="stroke" stroke-width="1"
	d="M376.74 125.00v-24.00"/>
<path class="stroke" stroke-width="1"
	d="M376.74 183.00v-58.00"/>
<path class="stroke" stroke-width="1"
	d="M477.44 125.00v-24.00"/>
<path class="stroke" stroke-width="1"
	d="M477.44 183.00v-58.00"/>
<path class="stroke" stroke-width="1"
	d="M563.24 125.00v-24.00"/>
<path class="stroke" stroke-width="1"
	d="M563.24 183.00v-58.00"/>
<path class="stroke" stroke-width="1"
	d="M643.84 125.00v-24.00"/>
<path class="stroke" stroke-width="1"
	d="M643.84 183.00v-58.00"/>
<path class="stroke" stroke-width="1"
	d="M757.04 125.00v-24.00"/>
<path class="stroke" stroke-width="1"
	d="M757.04 183.00v-58.00"/>
<path class="stroke" stroke-width="3"
	d="M860.54 125.00v-24.00"/>
<path class="stroke" stroke-width="1"
	d="M856.04 125.00v-24.00"/>
<use x="852.04" y="125.00" xlink:href="#rdots"/>
<path class="stroke" stroke-width="3"
	d="M860.54 183.00v-58.00"/>
<path class="stroke" stroke-width="1"
	d="M856.04 183.00v-58.00"/>
<use x="852.04" y="183.00" xlink:href="#rdots"/>
<path d="m11.54 125.00
	h850.50
	M11.54 119.00
	h850.50
	M11.54 113.00
	h850.50
	M11.54 107.00
	h850.50
	M11.54 101.00
	h850.50
	" class="stroke"/>
<path d="m11.54 183.00
	h850.50
	M11.54 177.00
	h850.50
	M11.54 171.00
	h850.50
	M11.54 165.00
	h850.50
	M11.54 159.00
	h850.50
	" class="stroke"/>
<path class="fill"
	d="M657.34 119.00c2.45 4.14 13.12 5.58 15.58 2.10
	v0.22c-2.92 5.26 -12.66 3.83 -15.58 -2.32"/>
<path class="fill"
	d="M691.44 122.00c2.45 4.14 13.12 5.58 15.58 2.10
	v0.22c-2.92 5.26 -12.66 3.83 -15.58 -2.32"/>
<path class="fill"
	d="M725.64 125.00c2.36 4.46 12.64 7.34 15.00 4.20
	v0.22c-2.81 4.93 -12.19 2.05 -15.00 -4.41"/>
</g>
<g stroke-width="0.70" transform="scale(0.867)" font-family="Times" font-size="13.00">
<text x="761.04" y="86.40">1</text>
<path class="stroke"
	d="M757.04 75.00m0 20v-20h97.00v20"/>
<defs>
<path id="utclef" class="fill" d="m-50 -90
	c-72 -41 -72 -158 52 -188
	150 -10 220 188 90 256
	-114 52 -275 0 -293 -136
	-15 -181 93 -229 220 -334
	88 -87 79 -133 62 -210
	-51 33 -94 105 -89 186
	17 267 36 374 49 574
	6 96 -19 134 -77 135
	-80 1 -126 -93 -61 -133
	85 -41 133 101 31 105
	23 17 92 37 90 -92
	-10 -223 -39 -342 -50 -617
	0 -90 0 -162 96 -232
	56 72 63 230 22 289
	-74 106 -257 168 -255 316
	9 153 148 185 252 133
	86 -65 29 -192 -80 -176
	-71 12 -105 67 -59 124"/>
<use id="tclef" transform="translate(0,6) scale(0.045)"
	xlink:href="#utclef"/>
</defs>
<use x="23.54" y="119.00" xlink:href="#tclef"/>
<g font-family="serif" font-size="16" font-weight="bold" font-style="normal"
	transform="translate(42.04,124.50) scale(1.2,1)">
	<text text-anchor="middle">8</text>
	<text y="-12" text-anchor="middle">3</text>
</g>
<path class="fill"
	d="M81.24 133.50l86.10 -6.20v-3.20l-86.10 6.20"/>
<path class="fill"
	d="M81.54 128.40l85.40 -6.20v-3.20l-85.40 6.20"/>
<use x="85.04" y="104.00" xlink:href="#hd"/>
<path d="M81.54 104.00v28.40" class="stroke"/>
<use x="102.14" y="110.00" xlink:href="#hd"/>
<path d="M98.64 110.00v21.20" class="stroke"/>
<use x="119.24" y="98.00" xlink:href="#hd"/>
<path d="M115.74 98.00v32.00" class="stroke"/>
<use x="136.34" y="104.00" xlink:href="#hd"/>
<path d="M132.84 104.00v24.70" class="stroke"/>
<defs>
<path id="hl" class="stroke" d="m-6 0h12"/>
</defs>
<use x="153.34" y="95.00" xlink:href="#hl"/>
<use x="153.34" y="89.00" xlink:href="#hl"/>
<use x="153.34" y="89.00" xlink:href="#hd"/>
<path d="M149.84 89.00v38.50" class="stroke"/>
<use x="170.44" y="98.00" xlink:href="#hd"/>
<path d="M166.94 98.00v28.30" class="stroke"/>
<path class="fill"
	d="M193.54 122.60l86.10 9.70v-3.20l-86.10 -9.70"/>
<path class="fill"
	d="M193.84 117.60l85.40 9.60v-3.20l-85.40 -9.60"/>
<use x="197.34" y="95.00" xlink:href="#hl"/>
<use x="197.34" y="89.00" xlink:href="#hl"/>
<use x="197.34" y="89.00" xlink:href="#hd"/>
<path d="M193.84 89.00v32.60" class="stroke"/>
<use x="214.44" y="95.00" xlink:href="#hl"/>
<use x="214.44" y="92.00" xlink:href="#hd"/>
<path d="M210.94 92.00v31.50" class="stroke"/>
<use x="231.54" y="95.00" xlink:href="#hl"/>
<use x="231.54" y="89.00" xlink:href="#hl"/>
<use x="231.54" y="89.00" xlink:href="#hd"/>
<path d="M228.04 89.00v36.50" class="stroke"/>
<use x="248.64" y="98.00" xlink:href="#hd"/>
<path d="M245.14 98.00v29.40" class="stroke"/>
<use x="265.74" y="104.00" xlink:href="#hd"/>
<path d="M262.24 104.00v25.30" class="stroke"/>
<use x="282.74" y="110.00" xlink:href="#hd"/>
<path d="M279.24 110.00v21.20" class="stroke"/>
<path class="fill"
	d="M305.84 132.00l48.90 0.00v-3.20l-48.90 -0.00"/>
<use x="309.64" y="107.00" xlink:href="#hd"/>
<path d="M306.14 107.00v24.00" class="stroke"/>
<use x="309.64" y="113.00" xlink:href="#hd"/>
<use x="333.74" y="107.00" xlink:href="#hd"/>
<path d="M330.24 107.00v24.00" class="stroke"/>
<use x="333.74" y="113.00" xlink:href="#hd"/>
<use x="357.84" y="107.00" xlink:href="#hd"/>
<path d="M354.34 107.00v24.00" class="stroke"/>
<use x="357.84" y="113.00" xlink:href="#hd"/>
<path class="fill"
	d="M386.44 132.20l69.00 6.00v-3.20l-69.00 -6.00"/>
<path class="fill"
	d="M386.74 127.30l51.20 4.50v-3.20l-51.20 -4.50"/>
<use x="390.24" y="104.00" xlink:href="#hd"/>
<path d="M386.74 104.00v27.30" class="stroke"/>
<use x="407.34" y="110.00" xlink:href="#hd"/>
<path d="M403.84 110.00v22.70" class="stroke"/>
<use x="424.44" y="113.00" xlink:href="#hd"/>
<path d="M420.94 113.00v21.20" class="stroke"/>
<use x="441.44" y="110.00" xlink:href="#hd"/>
<path d="M437.94 110.00v25.70" class="stroke"/>
<use x="458.54" y="119.00" xlink:href="#hd"/>
<path d="M455.04 119.00v18.20" class="stroke"/>
<path class="fill"
	d="M499.04 88.00l49.20 0.00v3.20l-49.20 -0.00"/>
<use x="495.94" y="122.00" xlink:href="#hd"/>
<defs>
<path id="usharp" class="fill" d="
	m136 -702
	v890
	h32
	v-890
	m128 840
	h32
	v-888
	h-32
	m-232 286
	v116
	l338 -96
	v-116
	m-338 442
	v116
	l338 -98
	v-114"/>
<use id="sh0" transform="translate(-4,5) scale(0.018)"
	xlink:href="#usharp"/>
</defs>
<use x="486.94" y="122.00" xlink:href="#sh0"/>
<path d="M499.44 122.00v-33.00" class="stroke"/>
<use x="495.94" y="107.00" xlink:href="#hd"/>
<use x="520.14" y="122.00" xlink:href="#hd"/>
<use x="511.14" y="122.00" xlink:href="#sh0"/>
<path d="M523.64 122.00v-33.00" class="stroke"/>
<use x="520.14" y="107.00" xlink:href="#hd"/>
<use x="544.44" y="122.00" xlink:href="#hd"/>
<use x="535.44" y="122.00" xlink:href="#sh0"/>
<path d="M547.94 122.00v-33.00" class="stroke"/>
<use x="544.44" y="107.00" xlink:href="#hd"/>
<path class="fill"
	d="M572.94 121.80l48.90 4.50v-3.20l-48.90 -4.50"/>
<use x="576.74" y="98.00" xlink:href="#hd"/>
<path d="M573.24 98.00v22.80" class="stroke"/>
<use x="600.84" y="95.00" xlink:href="#hl"/>
<use x="600.84" y="92.00" xlink:href="#hd"/>
<path d="M597.34 92.00v31.00" class="stroke"/>
<use x="624.94" y="107.00" xlink:href="#hd"/>
<path d="M621.44 107.00v18.20" class="stroke"/>
<path class="fill"
	d="M660.54 88.80l87.00 0.00v3.20l-87.00 -0.00"/>
<path class="fill"
	d="M660.84 93.80l86.30 0.00v3.20l-86.30 -0.00"/>
<use x="657.34" y="113.00" xlink:href="#hd"/>
<path d="M660.84 113.00v-23.20" class="stroke"/>
<use x="657.34" y="107.00" xlink:href="#hd"/>
<use x="674.44" y="116.00" xlink:href="#hd"/>
<path d="M677.94 116.00v-26.20" class="stroke"/>
<use x="674.44" y="110.00" xlink:href="#hd"/>
<use x="691.44" y="116.00" xlink:href="#hd"/>
<path d="M694.94 116.00v-26.20" class="stroke"/>
<use x="691.44" y="110.00" xlink:href="#hd"/>
<use x="708.54" y="119.00" xlink:href="#hd"/>
<path d="M712.04 119.00v-29.20" class="stroke"/>
<use x="708.54" y="113.00" xlink:href="#hd"/>
<use x="725.64" y="119.00" xlink:href="#hd"/>
<path d="M729.14 119.00v-29.20" class="stroke"/>
<use x="725.64" y="113.00" xlink:href="#hd"/>
<use x="743.64" y="122.00" xlink:href="#hd"/>
<use x="734.64" y="122.00" xlink:href="#sh0"/>
<path d="M747.14 122.00v-32.20" class="stroke"/>
<use x="743.64" y="116.00" xlink:href="#hd"/>
<use x="770.54" y="98.00" xlink:href="#hd"/>
<path d="M767.04 98.00v40.00" class="stroke"/>
<use x="770.54" y="119.00" xlink:href="#hd"/>
<use x="770.54" y="113.00" xlink:href="#hd"/>
<use x="770.54" y="107.00" xlink:href="#hd"/>
<defs>
<path id="r8e" class="fill" d="m 0 0
	c-1.5 1.5 -2.4 2 -3.6 2
	2.4 -2.8 -2.8 -4 -2.8 -1.2
	c0 2.7 4.3 2.4 5.9 0.6"/>
<g id="r8">
	<path d="m3.3 -4l-3.4 9.6" class="stroke"/>
	<use x="3.4" y="-4" xlink:href="#r8e"/>
</g>
</defs>
<use x="829.74" y="113.00" xlink:href="#r8"/>
<defs>
<path id="ubclef" class="fill" d="m-200 -87
	c124 -35 222 -78 254 -236
	43 -228 -167 -246 -192 -103
	59 -80 157 22 92 78
	-62 47 -115 -22 -106 -88
	21 -141 270 -136 274 52
	-1 175 -106 264 -322 297
	m357 -250
	c0 -36 51 -34 51 0
	0 37 -51 36 -51 0
	m-2 -129
	c0 -36 51 -34 51 0
	0 38 -51 37 -51 0"/>
<use id="bclef" transform="translate(0,18) scale(0.045)"
	xlink:href="#ubclef"/>
</defs>
<use x="23.54" y="165.00" xlink:href="#bclef"/>
<g font-family="serif" font-size="16" font-weight="bold" font-style="normal"
	transform="translate(42.04,182.50) scale(1.2,1)">
	<text text-anchor="middle">8</text>
	<text y="-12" text-anchor="middle">3</text>
</g>
<use x="85.04" y="168.00" xlink:href="#hd"/>
<path d="M81.54 168.00v25.00" class="stroke"/>
<use x="85.04" y="174.00" xlink:href="#hd"/>
<use x="153.34" y="171.00" xlink:href="#r8"/>
<use x="197.34" y="168.00" xlink:href="#hd"/>
<path d="M200.84 168.00v-21.00" class="stroke"/>
<use x="265.74" y="171.00" xlink:href="#r8"/>
<path class="fill"
	d="M305.84 183.20l48.90 0.00v-3.20l-48.90 -0.00"/>
<use x="309.64" y="162.00" xlink:href="#hd"/>
<path d="M306.14 162.00v20.20" class="stroke"/>
<use x="333.74" y="162.00" xlink:href="#hd"/>
<path d="M330.24 162.00v20.20" class="stroke"/>
<use x="357.84" y="162.00" xlink:href="#hd"/>
<path d="M354.34 162.00v20.20" class="stroke"/>
<use x="390.24" y="174.00" xlink:href="#hd"/>
<path d="M393.74 174.00v-21.00" class="stroke"/>
<use x="458.54" y="171.00" xlink:href="#r8"/>
<path class="fill"
	d="M499.04 153.00l49.20 0.00v3.20l-49.20 -0.00"/>
<use x="495.94" y="174.00" xlink:href="#hd"/>
<path d="M499.44 174.00v-20.00" class="stroke"/>
<use x="520.14" y="174.00" xlink:href="#hd"/>
<path d="M523.64 174.00v-20.00" class="stroke"/>
<use x="544.44" y="174.00" xlink:href="#hd"/>
<path d="M547.94 174.00v-20.00" class="stroke"/>
<use x="576.74" y="177.00" xlink:href="#hd"/>
<path d="M580.24 177.00v-25.00" class="stroke"/>
<use x="576.74" y="171.00" xlink:href="#hd"/>
<use x="624.94" y="171.00" xlink:href="#r8"/>
<path class="fill"
	d="M660.54 147.70l69.00 8.30v3.20l-69.00 -8.30"/>
<use x="657.34" y="174.00" xlink:href="#hd"/>
<path d="M660.84 174.00v-25.30" class="stroke"/>
<use x="691.44" y="171.00" xlink:href="#hd"/>
<path d="M694.94 171.00v-18.20" class="stroke"/>
<use x="725.64" y="189.00" xlink:href="#hl"/>
<use x="725.64" y="192.00" xlink:href="#hd"/>
<path d="M729.14 192.00v-35.10" class="stroke"/>
<path class="fill"
	d="M766.74 202.20l76.90 0.00v-3.20l-76.90 -0.00"/>
<path class="fill"
	d="M791.14 197.20l52.20 0.00v-3.20l-52.20 -0.00"/>
<use x="770.54" y="183.00" xlink:href="#hd"/>
<path d="M767.04 183.00v18.20" class="stroke"/>
<use x="794.64" y="162.00" xlink:href="#hd"/>
<path d="M791.14 162.00v39.20" class="stroke"/>
<use x="812.64" y="165.00" xlink:href="#hd"/>
<defs>
<path id="unat" class="fill" d="
	m96 -750
	h-32
	v716
	l32 -8
	182 -54
	v282
	h32
	v-706
	l-34 10
	-180 50
	v-290
	m0 592
	v-190
	l182 -52
	v188"/>
<use id="nt0" transform="translate(-3,5) scale(0.018)"
	xlink:href="#unat"/>
</defs>
<use x="803.64" y="165.00" xlink:href="#nt0"/>
<path d="M809.14 165.00v36.20" class="stroke"/>
<use x="829.74" y="168.00" xlink:href="#hd"/>
<path d="M826.24 168.00v33.20" class="stroke"/>
<use x="846.84" y="171.00" xlink:href="#hd"/>
<path d="M843.34 171.00v30.20" class="stroke"/>
<use x="197.34" y="174.00" xlink:href="#hd"/>
<path d="M193.84 174.00v21.00" class="stroke"/>
</g>
<g stroke-width="0.70" transform="scale(0.867)" font-family="Times" font-size="13.00">
<path class="stroke" stroke-width="1"
	d="M11.54 316.00v-82.00"/>
<path class="fill"
	d="M6.54 231.00
	c10.5 1 12 -4.5 12 -3.5c0 1 -3.5 5.5 -8.5 5.5
	v84.00
	c5 0 8.5 4.5 8.5 5.5c0 1 -1.5 -4.5 -12 -3.5"/>
<use x="145.34" y="258.00" xlink:href="#rdots"/>
<path class="stroke" stroke-width="1"
	d="M141.34 258.00v-24.00"/>
<path class="stroke" stroke-width="3"
	d="M136.84 258.00v-24.00"/>
<use x="145.34" y="316.00" xlink:href="#rdots"/>
<path class="stroke" stroke-width="1"
	d="M141.34 316.00v-58.00"/>
<path class="stroke" stroke-width="3"
	d="M136.84 316.00v-58.00"/>
<path class="stroke" stroke-width="1"
	d="M232.54 258.00v-24.00"/>
<path class="stroke" stroke-width="1"
	d="M232.54 316.00v-58.00"/>
<path class="stroke" stroke-width="1"
	d="M313.84 258.00v-24.00"/>
<path class="stroke" stroke-width="1"
	d="M313.84 316.00v-58.00"/>
<path class="stroke" stroke-width="1"
	d="M405.84 258.00v-24.00"/>
<path class="stroke" stroke-width="1"
	d="M405.84 316.00v-58.00"/>
<path class="stroke" stroke-width="1"
	d="M478.24 258.00v-24.00"/>
<path class="stroke" stroke-width="1"
	d="M478.24 316.00v-58.00"/>
<path class="stroke" stroke-width="1"
	d="M579.54 258.00v-24.00"/>
<path class="stroke" stroke-width="1"
	d="M579.54 316.00v-58.00"/>
<path class="stroke" stroke-width="1"
	d="M680.74 258.00v-24.00"/>
<path class="stroke" stroke-width="1"
	d="M680.74 316.00v-58.00"/>
<path class="stroke" stroke-width="1"
	d="M781.94 258.00v-24.00"/>
<path class="stroke" stroke-width="1"
	d="M781.94 316.00v-58.00"/>
<path class="stroke" stroke-width="3"
	d="M860.54 258.00v-24.00"/>
<path class="stroke" stroke-width="1"
	d="M856.04 258.00v-24.00"/>
<use x="852.04" y="258.00" xlink:href="#rdots"/>
<path class="stroke" stroke-width="3"
	d="M860.54 316.00v-58.00"/>
<path class="stroke" stroke-width="1"
	d="M856.04 316.00v-58.00"/>
<use x="852.04" y="316.00" xlink:href="#rdots"/>
<path d="m11.54 258.00
	h850.50
	M11.54 252.00
	h850.50
	M11.54 246.00
	h850.50
	M11.54 240.00
	h850.50
	M11.54 234.00
	h850.50
	" class="stroke"/>
<path d="m11.54 316.00
	h850.50
	M11.54 310.00
	h850.50
	M11.54 304.00
	h850.50
	M11.54 298.00
	h850.50
	M11.54 292.00
	h850.50
	" class="stroke"/>
<text x="47.54" y="219.40">2</text>
<path class="stroke"
	d="M43.54 208.00m0 20v-20h90.80v20"/>
<use x="23.54" y="252.00" xlink:href="#tclef"/>
<use x="56.04" y="231.00" xlink:href="#hd"/>
<path d="M52.54 231.00v40.00" class="stroke"/>
<use x="56.04" y="252.00" xlink:href="#hd"/>
<use x="56.04" y="246.00" xlink:href="#hd"/>
<use x="56.04" y="240.00" xlink:href="#hd"/>
<use x="110.54" y="246.00" xlink:href="#r8"/>
<path class="fill"
	d="M160.94 252.20l43.90 0.00v-3.20l-43.90 -0.00"/>
<use x="164.84" y="234.00" xlink:href="#hd"/>
<use x="155.84" y="234.00" xlink:href="#sh0"/>
<path d="M161.34 234.00v17.20" class="stroke"/>
<use x="186.74" y="228.00" xlink:href="#hl"/>
<use x="186.74" y="228.00" xlink:href="#hd"/>
<path d="M183.24 228.00v23.20" class="stroke"/>
<use x="208.04" y="234.00" xlink:href="#hd"/>
<path d="M204.54 234.00v17.20" class="stroke"/>
<path class="fill"
	d="M241.24 254.20l52.50 5.00v-3.20l-52.50 -5.00"/>
<path class="fill"
	d="M241.54 249.20l15.20 1.50v-3.20l-15.20 -1.50"/>
<use x="245.04" y="231.00" xlink:href="#hd"/>
<path d="M241.54 231.00v22.20" class="stroke"/>
<use x="260.34" y="228.00" xlink:href="#hl"/>
<use x="260.34" y="225.00" xlink:href="#hd"/>
<path d="M256.84 225.00v29.70" class="stroke"/>
<use x="275.54" y="231.00" xlink:href="#hd"/>
<path d="M272.04 231.00v25.20" class="stroke"/>
<use x="296.84" y="240.00" xlink:href="#hd"/>
<path d="M293.34 240.00v18.20" class="stroke"/>
<path class="fill"
	d="M322.54 267.50l67.70 -7.30v-3.20l-67.70 7.30"/>
<path class="fill"
	d="M344.14 260.20l45.70 -4.90v-3.20l-45.70 4.90"/>
<use x="326.34" y="237.00" xlink:href="#hd"/>
<path d="M322.84 237.00v29.50" class="stroke"/>
<use x="347.64" y="243.00" xlink:href="#hd"/>
<path d="M344.14 243.00v21.20" class="stroke"/>
<use x="362.84" y="237.00" xlink:href="#hd"/>
<path d="M359.34 237.00v25.60" class="stroke"/>
<use x="378.14" y="231.00" xlink:href="#hd"/>
<path d="M374.64 231.00v29.90" class="stroke"/>
<use x="393.34" y="228.00" xlink:href="#hl"/>
<use x="393.34" y="222.00" xlink:href="#hl"/>
<use x="393.34" y="222.00" xlink:href="#hd"/>
<path d="M389.84 222.00v37.30" class="stroke"/>
<path class="fill"
	d="M414.54 262.30l22.00 2.40v-3.20l-22.00 -2.40"/>
<use x="418.34" y="237.00" xlink:href="#hd"/>
<path d="M414.84 237.00v24.30" class="stroke"/>
<use x="418.34" y="243.00" xlink:href="#hd"/>
<use x="439.64" y="240.00" xlink:href="#hd"/>
<path d="M436.14 240.00v23.70" class="stroke"/>
<use x="439.64" y="246.00" xlink:href="#hd"/>
<use x="460.94" y="246.00" xlink:href="#r8"/>
<path class="fill"
	d="M486.94 253.60l61.70 8.70v-3.20l-61.70 -8.70"/>
<use x="490.74" y="231.00" xlink:href="#hd"/>
<path d="M487.24 231.00v21.70" class="stroke"/>
<use x="521.24" y="237.00" xlink:href="#hd"/>
<path d="M517.74 237.00v20.00" class="stroke"/>
<use x="551.74" y="243.00" xlink:href="#hd"/>
<path d="M548.24 243.00v18.30" class="stroke"/>
<path class="fill"
	d="M588.14 275.50l76.90 -6.30v-3.20l-76.90 6.30"/>
<path class="fill"
	d="M588.54 270.40l76.20 -6.20v-3.20l-76.20 6.20"/>
<use x="592.04" y="243.00" xlink:href="#hd"/>
<path d="M588.54 243.00v31.40" class="stroke"/>
<use x="607.24" y="252.00" xlink:href="#hd"/>
<path d="M603.74 252.00v21.20" class="stroke"/>
<use x="622.44" y="237.00" xlink:href="#hd"/>
<path d="M618.94 237.00v35.00" class="stroke"/>
<use x="637.74" y="243.00" xlink:href="#hd"/>
<path d="M634.24 243.00v27.70" class="stroke"/>
<use x="652.94" y="231.00" xlink:href="#hd"/>
<path d="M649.44 231.00v38.50" class="stroke"/>
<use x="668.24" y="237.00" xlink:href="#hd"/>
<path d="M664.74 237.00v31.20" class="stroke"/>
<path class="fill"
	d="M689.34 266.00l76.90 0.00v-3.20l-76.90 -0.00"/>
<path class="fill"
	d="M689.74 261.00l76.20 0.00v-3.20l-76.20 -0.00"/>
<use x="693.24" y="240.00" xlink:href="#hd"/>
<path d="M689.74 240.00v24.90" class="stroke"/>
<use x="708.44" y="234.00" xlink:href="#hd"/>
<path d="M704.94 234.00v30.90" class="stroke"/>
<use x="723.74" y="228.00" xlink:href="#hl"/>
<use x="723.74" y="228.00" xlink:href="#hd"/>
<path d="M720.24 228.00v36.90" class="stroke"/>
<use x="738.94" y="234.00" xlink:href="#hd"/>
<path d="M735.44 234.00v30.90" class="stroke"/>
<use x="754.24" y="240.00" xlink:href="#hd"/>
<path d="M750.74 240.00v24.90" class="stroke"/>
<use x="769.44" y="246.00" xlink:href="#hd"/>
<path d="M765.94 246.00v18.90" class="stroke"/>
<path class="fill"
	d="M797.64 223.70l22.00 7.30v3.20l-22.00 -7.30"/>
<use x="794.44" y="243.00" xlink:href="#hd"/>
<path d="M797.94 243.00v-18.20" class="stroke"/>
<use x="815.74" y="264.00" xlink:href="#hl"/>
<use x="815.74" y="264.00" xlink:href="#hd"/>
<path d="M819.24 264.00v-32.10" class="stroke"/>
<use x="837.04" y="246.00" xlink:href="#r8"/>
<use x="23.54" y="298.00" xlink:href="#bclef"/>
<path class="fill"
	d="M52.24 335.20l70.50 -5.10v-3.20l-70.50 5.10"/>
<path class="fill"
	d="M73.84 328.70l48.50 -3.50v-3.20l-48.50 3.50"/>
<use x="56.04" y="316.00" xlink:href="#hd"/>
<path d="M52.54 316.00v18.20" class="stroke"/>
<use x="77.34" y="289.00" xlink:href="#hd"/>
<path d="M73.84 289.00v43.70" class="stroke"/>
<use x="92.54" y="295.00" xlink:href="#hd"/>
<path d="M89.04 295.00v36.60" class="stroke"/>
<use x="110.54" y="298.00" xlink:href="#hd"/>
<use x="101.54" y="298.00" xlink:href="#sh0"/>
<path d="M107.04 298.00v32.30" class="stroke"/>
<use x="125.84" y="301.00" xlink:href="#hd"/>
<path d="M122.34 301.00v28.20" class="stroke"/>
<path class="fill"
	d="M167.94 272.70l43.90 7.80v3.20l-43.90 -7.80"/>
<use x="164.84" y="292.00" xlink:href="#hd"/>
<path d="M168.34 292.00v-18.20" class="stroke"/>
<use x="186.74" y="298.00" xlink:href="#hd"/>
<use x="177.74" y="298.00" xlink:href="#sh0"/>
<path d="M190.24 298.00v-20.30" class="stroke"/>
<use x="208.04" y="304.00" xlink:href="#hd"/>
<path d="M211.54 304.00v-22.50" class="stroke"/>
<use x="245.04" y="310.00" xlink:href="#hd"/>
<path d="M248.54 310.00v-25.00" class="stroke"/>
<use x="245.04" y="304.00" xlink:href="#hd"/>
<use x="296.84" y="295.00" xlink:href="#hd"/>
<path d="M293.34 295.00v34.00" class="stroke"/>
<path class="fill"
	d="M293.34 329.00c0.6 -5.6 9.6 -9 5.6 -18.4
	1.6 6 -1.3 11.6 -5.6 12.8
"/>
<use x="296.84" y="310.00" xlink:href="#hd"/>
<use x="326.34" y="295.00" xlink:href="#hd"/>
<path d="M322.84 295.00v31.00" class="stroke"/>
<use x="326.34" y="307.00" xlink:href="#hd"/>
<use x="378.14" y="301.00" xlink:href="#hd"/>
<path d="M374.64 301.00v25.00" class="stroke"/>
<path class="fill"
	d="M374.64 326.00c0.6 -5.6 9.6 -9 5.6 -18.4
	1.6 6 -1.3 11.6 -5.6 12.8
"/>
<use x="378.14" y="307.00" xlink:href="#hd"/>
<use x="418.34" y="295.00" xlink:href="#hd"/>
<path d="M414.84 295.00v21.00" class="stroke"/>
<use x="460.94" y="316.00" xlink:href="#hd"/>
<path d="M464.44 316.00v-21.00" class="stroke"/>
<path class="fill"
	d="M464.44 295.00c0.6 5.6 9.6 9 5.6 18.4
	1.6 -6 -1.3 -11.6 -5.6 -12.8
"/>
<path class="fill"
	d="M486.94 323.90l76.90 0.00v-3.20l-76.90 -0.00"/>
<path class="fill"
	d="M487.24 318.90l76.20 0.00v-3.20l-76.20 -0.00"/>
<use x="490.74" y="301.00" xlink:href="#hd"/>
<path d="M487.24 301.00v21.90" class="stroke"/>
<use x="490.74" y="307.00" xlink:href="#hd"/>
<use x="506.04" y="295.00" xlink:href="#hd"/>
<path d="M502.54 295.00v27.90" class="stroke"/>
<use x="521.24" y="301.00" xlink:href="#hd"/>
<path d="M517.74 301.00v21.90" class="stroke"/>
<use x="521.24" y="307.00" xlink:href="#hd"/>
<use x="536.54" y="295.00" xlink:href="#hd"/>
<path d="M533.04 295.00v27.90" class="stroke"/>
<use x="551.74" y="301.00" xlink:href="#hd"/>
<path d="M548.24 301.00v21.90" class="stroke"/>
<use x="551.74" y="307.00" xlink:href="#hd"/>
<use x="567.04" y="295.00" xlink:href="#hd"/>
<path d="M563.54 295.00v27.90" class="stroke"/>
<use x="592.04" y="301.00" xlink:href="#hd"/>
<path d="M588.54 301.00v25.00" class="stroke"/>
<use x="592.04" y="307.00" xlink:href="#hd"/>
<use x="652.94" y="304.00" xlink:href="#r8"/>
<use x="693.24" y="298.00" xlink:href="#hd"/>
<path d="M689.74 298.00v21.00" class="stroke"/>
<use x="754.24" y="295.00" xlink:href="#hd"/>
<path d="M750.74 295.00v21.00" class="stroke"/>
<path class="fill"
	d="M750.74 316.00c0.6 -5.6 9.6 -9 5.6 -18.4
	1.6 6 -1.3 11.6 -5.6 12.8
"/>
<use x="794.44" y="307.00" xlink:href="#hd"/>
<path d="M797.94 307.00v-21.00" class="stroke"/>
<use x="837.04" y="322.00" xlink:href="#hl"/>
<use x="837.04" y="328.00" xlink:href="#hl"/>
<use x="837.04" y="328.00" xlink:href="#hd"/>
<path d="M840.54 328.00v-24.00" class="stroke"/>
<path class="fill"
	d="M840.54 304.00c0.6 5.6 9.6 9 5.6 18.4
	1.6 -6 -1.3 -11.6 -5.6 -12.8
"/>
<path class="fill"
	d="M160.94 326.20l51.90 0.00v-3.20l-51.90 -0.00"/>
<use x="164.84" y="304.00" xlink:href="#hd"/>
<path d="M161.34 304.00v21.20" class="stroke"/>
<use x="186.74" y="304.00" xlink:href="#hd"/>
<path d="M183.24 304.00v21.20" class="stroke"/>
<use x="216.04" y="307.00" xlink:href="#hd"/>
<path d="M212.54 307.00v18.20" class="stroke"/>
</g>
</svg>
