<?xml version="1.0" standalone="no"?>
<!DOCTYPE svg PUBLIC "-//W3C//DTD SVG 1.1//EN"
	"http://www.w3.org/Graphics/SVG/1.1/DTD/svg11.dtd">
<svg xmlns="http://www.w3.org/2000/svg" version="1.1"
	xmlns:xlink="http://www.w3.org/1999/xlink"
	color="black"
	width="757.10px" height="303.33px">
<style type="text/css">
.fill {fill: currentColor}
.stroke {stroke: currentColor; fill: none}
text{white-space: pre}
</style>
<title>./K516f-8-2-3-2-4-7-2-4-9-3-11-10-11-9-2-11.abc (2476) tune 1</title>
<!-- Creator: abcm2ps-8.13.8 -->
<!-- CreationDate: Sep  7, 2017 11:20 -->
<!-- CommandLine: ./K516f-8-2-3-2-4-7-2-4-9-3-11-10-11-9-2-11.abc -O ./K516f-8-2-3-2-4-7-2-4-9-3-11-10-11-9-2-11.svg -g -->
<rect width="100%" height="100%" fill="white"/>
<g stroke-width="0.70" transform="scale(0.867)">
<!-- title: 8-2-3-2-4-7-2-4-9-3-11-10-11-9-2-11 -->
</g>
<g stroke-width="0.70" transform="scale(0.867)" font-family="Times" font-size="20.00">
<text x="436.84" y="22.00" text-anchor="middle">8-2-3-2-4-7-2-4-9-3-11-10-11-9-2-11</text>
</g>
<g stroke-width="0.70" transform="scale(0.867)" font-family="Times" font-size="20.00">
<!-- subtitle: $1K.516f::152:22:128:41:153:68:11:24:120:39:31:82:144:115:109:78::$0 -->
</g>
<g stroke-width="0.70" transform="scale(0.867)" font-family="Courier" font-size="8.00" font-weight="bold">
<text x="436.84" y="41.80" text-anchor="middle">K.516f::152:22:128:41:153:68:11:24:120:39:31:82:144:115:109:78::</text>
</g>
<g stroke-width="0.70" transform="scale(0.867)" font-family="Courier" font-size="8.00" font-weight="bold">
<!-- subtitle: $1Perm. No.: 24765876202316$0 -->
<text x="436.84" y="60.80" text-anchor="middle">Perm. No.: 24765876202316</text>
</g>
<g stroke-width="0.70" transform="scale(0.607)" font-family="Courier" font-size="8.00" font-weight="bold">
<defs>
<ellipse id="hd" rx="4.1" ry="2.9"
	transform="rotate(-20)" class="fill"/>
</defs>
<use x="103.06" y="121.29" xlink:href="#hd"/>
<path d="M106.56 121.29v-21.00" class="stroke"/>
<path class="fill"
	d="M106.56 100.29c0.6 5.6 9.6 9 5.6 18.4
	1.6 -6 -1.3 -11.6 -5.6 -12.8
"/>
</g>
<g stroke-width="0.70" transform="scale(0.867)" font-family="Times" font-size="15.00" font-weight="bold">
<text x="81.24" y="87.00">= 111</text>
<path class="stroke" stroke-width="1"
	d="M11.54 183.00v-82.00"/>
<path class="fill"
	d="M6.54 98.00
	c10.5 1 12 -4.5 12 -3.5c0 1 -3.5 5.5 -8.5 5.5
	v84.00
	c5 0 8.5 4.5 8.5 5.5c0 1 -1.5 -4.5 -12 -3.5"/>
<defs>
<g id="rdots" class="fill">
	<circle cx="0" cy="-9" r="1.2"/>
	<circle cx="0" cy="-15" r="1.2"/>
</g>
</defs>
<use x="70.54" y="125.00" xlink:href="#rdots"/>
<path class="stroke" stroke-width="1"
	d="M66.54 125.00v-24.00"/>
<path class="stroke" stroke-width="3"
	d="M62.04 125.00v-24.00"/>
<use x="70.54" y="183.00" xlink:href="#rdots"/>
<path class="stroke" stroke-width="1"
	d="M66.54 183.00v-58.00"/>
<path class="stroke" stroke-width="3"
	d="M62.04 183.00v-58.00"/>
<path class="stroke" stroke-width="1"
	d="M172.74 125.00v-24.00"/>
<path class="stroke" stroke-width="1"
	d="M172.74 183.00v-58.00"/>
<path class="stroke" stroke-width="1"
	d="M252.54 125.00v-24.00"/>
<path class="stroke" stroke-width="1"
	d="M252.54 183.00v-58.00"/>
<path class="stroke" stroke-width="1"
	d="M332.34 125.00v-24.00"/>
<path class="stroke" stroke-width="1"
	d="M332.34 183.00v-58.00"/>
<path class="stroke" stroke-width="1"
	d="M432.04 125.00v-24.00"/>
<path class="stroke" stroke-width="1"
	d="M432.04 183.00v-58.00"/>
<path class="stroke" stroke-width="1"
	d="M544.34 125.00v-24.00"/>
<path class="stroke" stroke-width="1"
	d="M544.34 183.00v-58.00"/>
<path class="stroke" stroke-width="1"
	d="M645.54 125.00v-24.00"/>
<path class="stroke" stroke-width="1"
	d="M645.54 183.00v-58.00"/>
<path class="stroke" stroke-width="1"
	d="M757.84 125.00v-24.00"/>
<path class="stroke" stroke-width="1"
	d="M757.84 183.00v-58.00"/>
<path class="stroke" stroke-width="3"
	d="M860.54 125.00v-24.00"/>
<path class="stroke" stroke-width="1"
	d="M856.04 125.00v-24.00"/>
<use x="852.04" y="125.00" xlink:href="#rdots"/>
<path class="stroke" stroke-width="3"
	d="M860.54 183.00v-58.00"/>
<path class="stroke" stroke-width="1"
	d="M856.04 183.00v-58.00"/>
<use x="852.04" y="183.00" xlink:href="#rdots"/>
<path d="m11.54 125.00
	h850.50
	M11.54 119.00
	h850.50
	M11.54 113.00
	h850.50
	M11.54 107.00
	h850.50
	M11.54 101.00
	h850.50
	" class="stroke"/>
<path d="m11.54 183.00
	h850.50
	M11.54 177.00
	h850.50
	M11.54 171.00
	h850.50
	M11.54 165.00
	h850.50
	M11.54 159.00
	h850.50
	" class="stroke"/>
</g>
<g stroke-width="0.70" transform="scale(0.867)" font-family="Times" font-size="13.00">
<text x="761.84" y="86.40">1</text>
<path class="stroke"
	d="M757.84 75.00m0 20v-20h96.20v20"/>
<defs>
<path id="utclef" class="fill" d="m-50 -90
	c-72 -41 -72 -158 52 -188
	150 -10 220 188 90 256
	-114 52 -275 0 -293 -136
	-15 -181 93 -229 220 -334
	88 -87 79 -133 62 -210
	-51 33 -94 105 -89 186
	17 267 36 374 49 574
	6 96 -19 134 -77 135
	-80 1 -126 -93 -61 -133
	85 -41 133 101 31 105
	23 17 92 37 90 -92
	-10 -223 -39 -342 -50 -617
	0 -90 0 -162 96 -232
	56 72 63 230 22 289
	-74 106 -257 168 -255 316
	9 153 148 185 252 133
	86 -65 29 -192 -80 -176
	-71 12 -105 67 -59 124"/>
<use id="tclef" transform="translate(0,6) scale(0.045)"
	xlink:href="#utclef"/>
</defs>
<use x="23.54" y="119.00" xlink:href="#tclef"/>
<g font-family="serif" font-size="16" font-weight="bold" font-style="normal"
	transform="translate(42.04,124.50) scale(1.2,1)">
	<text text-anchor="middle">8</text>
	<text y="-12" text-anchor="middle">3</text>
</g>
<path class="fill"
	d="M81.14 123.00l75.30 9.30v-3.20l-75.30 -9.30"/>
<path class="fill"
	d="M105.34 121.00l50.70 6.20v-3.20l-50.70 -6.20"/>
<use x="84.94" y="98.00" xlink:href="#hd"/>
<path d="M81.44 98.00v24.00" class="stroke"/>
<use x="108.84" y="101.00" xlink:href="#hd"/>
<path d="M105.34 101.00v24.00" class="stroke"/>
<use x="125.74" y="104.00" xlink:href="#hd"/>
<path d="M122.24 104.00v23.00" class="stroke"/>
<use x="142.64" y="107.00" xlink:href="#hd"/>
<path d="M139.14 107.00v22.10" class="stroke"/>
<use x="159.54" y="110.00" xlink:href="#hd"/>
<path d="M156.04 110.00v21.20" class="stroke"/>
<path class="fill"
	d="M182.34 131.60l48.40 6.60v-3.20l-48.40 -6.60"/>
<use x="186.14" y="104.00" xlink:href="#hd"/>
<path d="M182.64 104.00v26.70" class="stroke"/>
<use x="210.04" y="110.00" xlink:href="#hd"/>
<path d="M206.54 110.00v23.90" class="stroke"/>
<use x="233.94" y="119.00" xlink:href="#hd"/>
<path d="M230.44 119.00v18.20" class="stroke"/>
<path class="fill"
	d="M262.14 132.20l48.40 -6.60v-3.20l-48.40 6.60"/>
<use x="265.94" y="113.00" xlink:href="#hd"/>
<path d="M262.44 113.00v18.20" class="stroke"/>
<use x="289.84" y="107.00" xlink:href="#hd"/>
<path d="M286.34 107.00v20.90" class="stroke"/>
<use x="313.64" y="98.00" xlink:href="#hd"/>
<path d="M310.14 98.00v26.70" class="stroke"/>
<path class="fill"
	d="M341.84 138.20l68.30 0.00v-3.20l-68.30 -0.00"/>
<path class="fill"
	d="M342.24 133.20l50.70 0.00v-3.20l-50.70 -0.00"/>
<use x="345.74" y="110.00" xlink:href="#hd"/>
<path d="M342.24 110.00v27.20" class="stroke"/>
<use x="362.64" y="113.00" xlink:href="#hd"/>
<path d="M359.14 113.00v24.20" class="stroke"/>
<use x="379.54" y="110.00" xlink:href="#hd"/>
<path d="M376.04 110.00v27.20" class="stroke"/>
<use x="396.44" y="104.00" xlink:href="#hd"/>
<path d="M392.94 104.00v33.20" class="stroke"/>
<use x="413.34" y="119.00" xlink:href="#hd"/>
<path d="M409.84 119.00v18.20" class="stroke"/>
<path class="fill"
	d="M441.54 139.50l86.30 -6.40v-3.20l-86.30 6.40"/>
<path class="fill"
	d="M441.94 134.50l85.60 -6.40v-3.20l-85.60 6.40"/>
<use x="445.44" y="107.00" xlink:href="#hd"/>
<path d="M441.94 107.00v31.50" class="stroke"/>
<use x="462.34" y="116.00" xlink:href="#hd"/>
<path d="M458.84 116.00v21.20" class="stroke"/>
<use x="480.34" y="101.00" xlink:href="#hd"/>
<defs>
<path id="usharp" class="fill" d="
	m136 -702
	v890
	h32
	v-890
	m128 840
	h32
	v-888
	h-32
	m-232 286
	v116
	l338 -96
	v-116
	m-338 442
	v116
	l338 -98
	v-114"/>
<use id="sh0" transform="translate(-4,5) scale(0.018)"
	xlink:href="#usharp"/>
</defs>
<use x="471.34" y="101.00" xlink:href="#sh0"/>
<path d="M476.84 101.00v34.90" class="stroke"/>
<use x="497.24" y="107.00" xlink:href="#hd"/>
<path d="M493.74 107.00v27.60" class="stroke"/>
<defs>
<path id="hl" class="stroke" d="m-6 0h12"/>
</defs>
<use x="514.14" y="95.00" xlink:href="#hl"/>
<use x="514.14" y="95.00" xlink:href="#hd"/>
<path d="M510.64 95.00v38.30" class="stroke"/>
<use x="531.04" y="101.00" xlink:href="#hd"/>
<path d="M527.54 101.00v31.10" class="stroke"/>
<path class="fill"
	d="M553.84 127.00l75.30 0.00v-3.20l-75.30 -0.00"/>
<path class="fill"
	d="M578.04 122.00l50.70 0.00v-3.20l-50.70 -0.00"/>
<use x="557.74" y="98.00" xlink:href="#hd"/>
<path d="M554.24 98.00v28.00" class="stroke"/>
<use x="581.54" y="95.00" xlink:href="#hl"/>
<use x="581.54" y="92.00" xlink:href="#hd"/>
<path d="M578.04 92.00v34.00" class="stroke"/>
<use x="598.44" y="98.00" xlink:href="#hd"/>
<path d="M594.94 98.00v28.00" class="stroke"/>
<use x="615.44" y="107.00" xlink:href="#hd"/>
<path d="M611.94 107.00v19.00" class="stroke"/>
<use x="632.34" y="98.00" xlink:href="#hd"/>
<path d="M628.84 98.00v28.00" class="stroke"/>
<path class="fill"
	d="M662.14 81.80l86.30 8.40v3.20l-86.30 -8.40"/>
<path class="fill"
	d="M662.44 86.80l85.60 8.30v3.20l-85.60 -8.30"/>
<use x="658.94" y="104.00" xlink:href="#hd"/>
<path d="M662.44 104.00v-21.20" class="stroke"/>
<use x="675.84" y="110.00" xlink:href="#hd"/>
<path d="M679.34 110.00v-25.60" class="stroke"/>
<use x="692.74" y="113.00" xlink:href="#hd"/>
<path d="M696.24 113.00v-26.90" class="stroke"/>
<use x="709.74" y="116.00" xlink:href="#hd"/>
<path d="M713.24 116.00v-28.30" class="stroke"/>
<use x="726.64" y="119.00" xlink:href="#hd"/>
<path d="M730.14 119.00v-29.60" class="stroke"/>
<use x="744.64" y="122.00" xlink:href="#hd"/>
<use x="735.64" y="122.00" xlink:href="#sh0"/>
<path d="M748.14 122.00v-30.90" class="stroke"/>
<use x="771.24" y="98.00" xlink:href="#hd"/>
<path d="M767.74 98.00v40.00" class="stroke"/>
<use x="771.24" y="119.00" xlink:href="#hd"/>
<use x="771.24" y="113.00" xlink:href="#hd"/>
<use x="771.24" y="107.00" xlink:href="#hd"/>
<defs>
<path id="r8e" class="fill" d="m 0 0
	c-1.5 1.5 -2.4 2 -3.6 2
	2.4 -2.8 -2.8 -4 -2.8 -1.2
	c0 2.7 4.3 2.4 5.9 0.6"/>
<g id="r8">
	<path d="m3.3 -4l-3.4 9.6" class="stroke"/>
	<use x="3.4" y="-4" xlink:href="#r8e"/>
</g>
</defs>
<use x="830.04" y="113.00" xlink:href="#r8"/>
<defs>
<path id="ubclef" class="fill" d="m-200 -87
	c124 -35 222 -78 254 -236
	43 -228 -167 -246 -192 -103
	59 -80 157 22 92 78
	-62 47 -115 -22 -106 -88
	21 -141 270 -136 274 52
	-1 175 -106 264 -322 297
	m357 -250
	c0 -36 51 -34 51 0
	0 37 -51 36 -51 0
	m-2 -129
	c0 -36 51 -34 51 0
	0 38 -51 37 -51 0"/>
<use id="bclef" transform="translate(0,18) scale(0.045)"
	xlink:href="#ubclef"/>
</defs>
<use x="23.54" y="165.00" xlink:href="#bclef"/>
<g font-family="serif" font-size="16" font-weight="bold" font-style="normal"
	transform="translate(42.04,182.50) scale(1.2,1)">
	<text text-anchor="middle">8</text>
	<text y="-12" text-anchor="middle">3</text>
</g>
<use x="84.94" y="168.00" xlink:href="#hd"/>
<path d="M81.44 168.00v25.00" class="stroke"/>
<use x="84.94" y="174.00" xlink:href="#hd"/>
<use x="142.64" y="171.00" xlink:href="#r8"/>
<use x="186.14" y="174.00" xlink:href="#hd"/>
<path d="M189.64 174.00v-21.00" class="stroke"/>
<use x="233.94" y="171.00" xlink:href="#r8"/>
<use x="265.94" y="183.00" xlink:href="#hd"/>
<path d="M269.44 183.00v-21.00" class="stroke"/>
<use x="313.64" y="171.00" xlink:href="#r8"/>
<use x="345.74" y="168.00" xlink:href="#hd"/>
<path d="M342.24 168.00v25.00" class="stroke"/>
<use x="345.74" y="174.00" xlink:href="#hd"/>
<use x="413.34" y="171.00" xlink:href="#r8"/>
<use x="445.44" y="174.00" xlink:href="#hd"/>
<path d="M448.94 174.00v-21.00" class="stroke"/>
<use x="514.14" y="171.00" xlink:href="#r8"/>
<use x="557.74" y="177.00" xlink:href="#hd"/>
<path d="M561.24 177.00v-21.00" class="stroke"/>
<use x="615.44" y="171.00" xlink:href="#r8"/>
<path class="fill"
	d="M662.14 147.70l68.30 8.30v3.20l-68.30 -8.30"/>
<use x="658.94" y="174.00" xlink:href="#hd"/>
<path d="M662.44 174.00v-25.30" class="stroke"/>
<use x="692.74" y="171.00" xlink:href="#hd"/>
<path d="M696.24 171.00v-18.20" class="stroke"/>
<use x="726.64" y="189.00" xlink:href="#hl"/>
<use x="726.64" y="192.00" xlink:href="#hd"/>
<path d="M730.14 192.00v-35.10" class="stroke"/>
<path class="fill"
	d="M767.44 202.20l76.40 0.00v-3.20l-76.40 -0.00"/>
<path class="fill"
	d="M791.64 197.20l51.80 0.00v-3.20l-51.80 -0.00"/>
<use x="771.24" y="183.00" xlink:href="#hd"/>
<path d="M767.74 183.00v18.20" class="stroke"/>
<use x="795.14" y="162.00" xlink:href="#hd"/>
<path d="M791.64 162.00v39.20" class="stroke"/>
<use x="813.14" y="165.00" xlink:href="#hd"/>
<defs>
<path id="unat" class="fill" d="
	m96 -750
	h-32
	v716
	l32 -8
	182 -54
	v282
	h32
	v-706
	l-34 10
	-180 50
	v-290
	m0 592
	v-190
	l182 -52
	v188"/>
<use id="nt0" transform="translate(-3,5) scale(0.018)"
	xlink:href="#unat"/>
</defs>
<use x="804.14" y="165.00" xlink:href="#nt0"/>
<path d="M809.64 165.00v36.20" class="stroke"/>
<use x="830.04" y="168.00" xlink:href="#hd"/>
<path d="M826.54 168.00v33.20" class="stroke"/>
<use x="846.94" y="171.00" xlink:href="#hd"/>
<path d="M843.44 171.00v30.20" class="stroke"/>
</g>
<g stroke-width="0.70" transform="scale(0.867)" font-family="Times" font-size="13.00">
<path class="stroke" stroke-width="1"
	d="M11.54 324.00v-90.00"/>
<path class="fill"
	d="M6.54 231.00
	c10.5 1 12 -4.5 12 -3.5c0 1 -3.5 5.5 -8.5 5.5
	v92.00
	c5 0 8.5 4.5 8.5 5.5c0 1 -1.5 -4.5 -12 -3.5"/>
<use x="142.04" y="258.00" xlink:href="#rdots"/>
<path class="stroke" stroke-width="1"
	d="M138.04 258.00v-24.00"/>
<path class="stroke" stroke-width="3"
	d="M133.54 258.00v-24.00"/>
<use x="142.04" y="324.00" xlink:href="#rdots"/>
<path class="stroke" stroke-width="1"
	d="M138.04 324.00v-66.00"/>
<path class="stroke" stroke-width="3"
	d="M133.54 324.00v-66.00"/>
<path class="stroke" stroke-width="1"
	d="M240.74 258.00v-24.00"/>
<path class="stroke" stroke-width="1"
	d="M240.74 324.00v-66.00"/>
<path class="stroke" stroke-width="1"
	d="M337.44 258.00v-24.00"/>
<path class="stroke" stroke-width="1"
	d="M337.44 324.00v-66.00"/>
<path class="stroke" stroke-width="1"
	d="M416.74 258.00v-24.00"/>
<path class="stroke" stroke-width="1"
	d="M416.74 324.00v-66.00"/>
<path class="stroke" stroke-width="1"
	d="M494.74 258.00v-24.00"/>
<path class="stroke" stroke-width="1"
	d="M494.74 324.00v-66.00"/>
<path class="stroke" stroke-width="1"
	d="M591.44 258.00v-24.00"/>
<path class="stroke" stroke-width="1"
	d="M591.44 324.00v-66.00"/>
<path class="stroke" stroke-width="1"
	d="M688.14 258.00v-24.00"/>
<path class="stroke" stroke-width="1"
	d="M688.14 324.00v-66.00"/>
<path class="stroke" stroke-width="1"
	d="M784.84 258.00v-24.00"/>
<path class="stroke" stroke-width="1"
	d="M784.84 324.00v-66.00"/>
<path class="stroke" stroke-width="3"
	d="M860.54 258.00v-24.00"/>
<path class="stroke" stroke-width="1"
	d="M856.04 258.00v-24.00"/>
<use x="852.04" y="258.00" xlink:href="#rdots"/>
<path class="stroke" stroke-width="3"
	d="M860.54 324.00v-66.00"/>
<path class="stroke" stroke-width="1"
	d="M856.04 324.00v-66.00"/>
<use x="852.04" y="324.00" xlink:href="#rdots"/>
<path d="m11.54 258.00
	h850.50
	M11.54 252.00
	h850.50
	M11.54 246.00
	h850.50
	M11.54 240.00
	h850.50
	M11.54 234.00
	h850.50
	" class="stroke"/>
<path d="m11.54 324.00
	h850.50
	M11.54 318.00
	h850.50
	M11.54 312.00
	h850.50
	M11.54 306.00
	h850.50
	M11.54 300.00
	h850.50
	" class="stroke"/>
<text x="47.54" y="219.40">2</text>
<path class="stroke"
	d="M43.54 208.00m0 20v-20h87.50v20"/>
<use x="23.54" y="252.00" xlink:href="#tclef"/>
<use x="56.04" y="231.00" xlink:href="#hd"/>
<path d="M52.54 231.00v40.00" class="stroke"/>
<use x="56.04" y="252.00" xlink:href="#hd"/>
<use x="56.04" y="246.00" xlink:href="#hd"/>
<use x="56.04" y="240.00" xlink:href="#hd"/>
<use x="108.24" y="246.00" xlink:href="#r8"/>
<path class="fill"
	d="M157.74 260.70l67.40 10.60v-3.20l-67.40 -10.60"/>
<path class="fill"
	d="M178.04 258.90l46.70 7.30v-3.20l-46.70 -7.30"/>
<use x="161.54" y="228.00" xlink:href="#hl"/>
<use x="161.54" y="222.00" xlink:href="#hl"/>
<use x="161.54" y="219.00" xlink:href="#hd"/>
<path d="M158.04 219.00v40.70" class="stroke"/>
<use x="181.54" y="228.00" xlink:href="#hl"/>
<use x="181.54" y="228.00" xlink:href="#hd"/>
<path d="M178.04 228.00v34.90" class="stroke"/>
<use x="199.54" y="234.00" xlink:href="#hd"/>
<use x="190.54" y="234.00" xlink:href="#sh0"/>
<path d="M196.04 234.00v31.70" class="stroke"/>
<use x="213.94" y="240.00" xlink:href="#hd"/>
<path d="M210.44 240.00v28.00" class="stroke"/>
<use x="228.24" y="249.00" xlink:href="#hd"/>
<path d="M224.74 249.00v21.20" class="stroke"/>
<path class="fill"
	d="M249.44 266.80l58.10 8.90v-3.20l-58.10 -8.90"/>
<use x="253.24" y="231.00" xlink:href="#hd"/>
<path d="M249.74 231.00v34.80" class="stroke"/>
<use x="281.94" y="252.00" xlink:href="#hd"/>
<path d="M278.44 252.00v18.20" class="stroke"/>
<use x="310.64" y="252.00" xlink:href="#hd"/>
<path d="M307.14 252.00v22.60" class="stroke"/>
<path class="fill"
	d="M346.14 265.60l29.40 5.70v-3.20l-29.40 -5.70"/>
<path class="fill"
	d="M346.44 260.70l14.30 2.80v-3.20l-14.30 -2.80"/>
<use x="349.94" y="237.00" xlink:href="#hd"/>
<path d="M346.44 237.00v27.70" class="stroke"/>
<use x="364.34" y="243.00" xlink:href="#hd"/>
<path d="M360.84 243.00v24.40" class="stroke"/>
<use x="378.64" y="252.00" xlink:href="#hd"/>
<path d="M375.14 252.00v18.20" class="stroke"/>
<use x="400.64" y="237.00" xlink:href="#hd"/>
<path d="M397.14 237.00v21.00" class="stroke"/>
<path class="fill"
	d="M397.14 258.00c0.6 -5.6 9.6 -9 5.6 -18.4
	1.6 6 -1.3 11.6 -5.6 12.8
"/>
<path class="fill"
	d="M425.34 273.70l49.20 -4.20v-3.20l-49.20 4.20"/>
<path class="fill"
	d="M425.74 268.70l14.30 -1.20v-3.20l-14.30 1.20"/>
<use x="429.24" y="240.00" xlink:href="#hd"/>
<path d="M425.74 240.00v32.70" class="stroke"/>
<use x="443.54" y="246.00" xlink:href="#hd"/>
<path d="M440.04 246.00v25.40" class="stroke"/>
<use x="457.84" y="252.00" xlink:href="#hd"/>
<path d="M454.34 252.00v18.20" class="stroke"/>
<use x="477.74" y="231.00" xlink:href="#hd"/>
<path d="M474.24 231.00v37.50" class="stroke"/>
<path class="fill"
	d="M503.34 260.60l58.10 3.20v-3.20l-58.10 -3.20"/>
<use x="507.24" y="231.00" xlink:href="#hd"/>
<path d="M503.74 231.00v28.60" class="stroke"/>
<use x="535.94" y="243.00" xlink:href="#hd"/>
<path d="M532.44 243.00v18.20" class="stroke"/>
<use x="564.64" y="237.00" xlink:href="#hd"/>
<path d="M561.14 237.00v25.80" class="stroke"/>
<path class="fill"
	d="M600.14 275.50l72.40 -6.20v-3.20l-72.40 6.20"/>
<path class="fill"
	d="M600.44 270.40l71.70 -6.20v-3.20l-71.70 6.20"/>
<use x="603.94" y="243.00" xlink:href="#hd"/>
<path d="M600.44 243.00v31.40" class="stroke"/>
<use x="618.24" y="252.00" xlink:href="#hd"/>
<path d="M614.74 252.00v21.20" class="stroke"/>
<use x="632.64" y="237.00" xlink:href="#hd"/>
<path d="M629.14 237.00v35.00" class="stroke"/>
<use x="646.94" y="243.00" xlink:href="#hd"/>
<path d="M643.44 243.00v27.70" class="stroke"/>
<use x="661.34" y="231.00" xlink:href="#hd"/>
<path d="M657.84 231.00v38.50" class="stroke"/>
<use x="675.64" y="237.00" xlink:href="#hd"/>
<path d="M672.14 237.00v31.30" class="stroke"/>
<path class="fill"
	d="M696.84 266.00l72.40 0.00v-3.20l-72.40 -0.00"/>
<path class="fill"
	d="M697.14 261.00l71.70 0.00v-3.20l-71.70 -0.00"/>
<use x="700.64" y="240.00" xlink:href="#hd"/>
<path d="M697.14 240.00v24.90" class="stroke"/>
<use x="715.04" y="234.00" xlink:href="#hd"/>
<path d="M711.54 234.00v30.90" class="stroke"/>
<use x="729.34" y="240.00" xlink:href="#hd"/>
<path d="M725.84 240.00v24.90" class="stroke"/>
<use x="743.64" y="234.00" xlink:href="#hd"/>
<path d="M740.14 234.00v30.90" class="stroke"/>
<use x="758.04" y="246.00" xlink:href="#hd"/>
<path d="M754.54 246.00v18.90" class="stroke"/>
<use x="772.34" y="240.00" xlink:href="#hd"/>
<path d="M768.84 240.00v24.90" class="stroke"/>
<path class="fill"
	d="M800.54 223.70l20.50 7.00v3.20l-20.50 -7.00"/>
<use x="797.34" y="243.00" xlink:href="#hd"/>
<path d="M800.84 243.00v-18.20" class="stroke"/>
<use x="817.24" y="264.00" xlink:href="#hl"/>
<use x="817.24" y="264.00" xlink:href="#hd"/>
<path d="M820.74 264.00v-32.50" class="stroke"/>
<use x="837.04" y="246.00" xlink:href="#r8"/>
<use x="23.54" y="306.00" xlink:href="#bclef"/>
<path class="fill"
	d="M52.24 343.20l67.20 -4.90v-3.20l-67.20 4.90"/>
<path class="fill"
	d="M72.34 336.70l46.70 -3.40v-3.20l-46.70 3.40"/>
<use x="56.04" y="324.00" xlink:href="#hd"/>
<path d="M52.54 324.00v18.20" class="stroke"/>
<use x="75.84" y="297.00" xlink:href="#hd"/>
<path d="M72.34 297.00v43.70" class="stroke"/>
<use x="90.24" y="303.00" xlink:href="#hd"/>
<path d="M86.74 303.00v36.70" class="stroke"/>
<use x="108.24" y="306.00" xlink:href="#hd"/>
<use x="99.24" y="306.00" xlink:href="#sh0"/>
<path d="M104.74 306.00v32.40" class="stroke"/>
<use x="122.54" y="309.00" xlink:href="#hd"/>
<path d="M119.04 309.00v28.30" class="stroke"/>
<use x="161.54" y="306.00" xlink:href="#hd"/>
<use x="152.54" y="306.00" xlink:href="#sh0"/>
<path d="M158.04 306.00v25.00" class="stroke"/>
<use x="161.54" y="312.00" xlink:href="#hd"/>
<use x="213.94" y="306.00" xlink:href="#hd"/>
<path d="M210.44 306.00v28.00" class="stroke"/>
<path class="fill"
	d="M210.44 334.00c0.6 -5.6 9.6 -9 5.6 -18.4
	1.6 6 -1.3 11.6 -5.6 12.8
"/>
<use x="213.94" y="315.00" xlink:href="#hd"/>
<path class="fill"
	d="M249.44 346.20l72.40 0.00v-3.20l-72.40 -0.00"/>
<path class="fill"
	d="M249.74 341.20l71.70 0.00v-3.20l-71.70 -0.00"/>
<use x="253.24" y="318.00" xlink:href="#hd"/>
<path d="M249.74 318.00v27.20" class="stroke"/>
<use x="267.64" y="312.00" xlink:href="#hd"/>
<path d="M264.14 312.00v33.20" class="stroke"/>
<use x="281.94" y="303.00" xlink:href="#hd"/>
<path d="M278.44 303.00v42.20" class="stroke"/>
<use x="296.34" y="312.00" xlink:href="#hd"/>
<path d="M292.84 312.00v33.20" class="stroke"/>
<use x="310.64" y="297.00" xlink:href="#hd"/>
<path d="M307.14 297.00v48.20" class="stroke"/>
<use x="324.94" y="324.00" xlink:href="#hd"/>
<path d="M321.44 324.00v21.20" class="stroke"/>
<use x="349.94" y="303.00" xlink:href="#hd"/>
<path d="M346.44 303.00v31.00" class="stroke"/>
<use x="349.94" y="315.00" xlink:href="#hd"/>
<use x="400.64" y="303.00" xlink:href="#hd"/>
<path d="M397.14 303.00v31.00" class="stroke"/>
<path class="fill"
	d="M397.14 334.00c0.6 -5.6 9.6 -9 5.6 -18.4
	1.6 6 -1.3 11.6 -5.6 12.8
"/>
<use x="400.64" y="315.00" xlink:href="#hd"/>
<use x="429.24" y="303.00" xlink:href="#hd"/>
<path d="M432.74 303.00v-21.00" class="stroke"/>
<use x="477.74" y="318.00" xlink:href="#hd"/>
<path d="M481.24 318.00v-25.00" class="stroke"/>
<path class="fill"
	d="M481.24 293.00c0.6 5.6 9.6 9 5.6 18.4
	1.6 -6 -1.3 -11.6 -5.6 -12.8
"/>
<use x="477.74" y="312.00" xlink:href="#hd"/>
<path class="fill"
	d="M503.34 331.90l72.40 0.00v-3.20l-72.40 -0.00"/>
<path class="fill"
	d="M503.74 326.90l71.70 0.00v-3.20l-71.70 -0.00"/>
<use x="507.24" y="309.00" xlink:href="#hd"/>
<path d="M503.74 309.00v21.90" class="stroke"/>
<use x="507.24" y="315.00" xlink:href="#hd"/>
<use x="521.54" y="303.00" xlink:href="#hd"/>
<path d="M518.04 303.00v27.90" class="stroke"/>
<use x="535.94" y="309.00" xlink:href="#hd"/>
<path d="M532.44 309.00v21.90" class="stroke"/>
<use x="535.94" y="315.00" xlink:href="#hd"/>
<use x="550.24" y="303.00" xlink:href="#hd"/>
<path d="M546.74 303.00v27.90" class="stroke"/>
<use x="564.64" y="309.00" xlink:href="#hd"/>
<path d="M561.14 309.00v21.90" class="stroke"/>
<use x="564.64" y="315.00" xlink:href="#hd"/>
<use x="578.94" y="303.00" xlink:href="#hd"/>
<path d="M575.44 303.00v27.90" class="stroke"/>
<use x="603.94" y="309.00" xlink:href="#hd"/>
<path d="M600.44 309.00v25.00" class="stroke"/>
<use x="603.94" y="315.00" xlink:href="#hd"/>
<use x="661.34" y="312.00" xlink:href="#r8"/>
<use x="700.64" y="300.00" xlink:href="#hd"/>
<path d="M697.14 300.00v25.00" class="stroke"/>
<use x="700.64" y="306.00" xlink:href="#hd"/>
<use x="758.04" y="294.00" xlink:href="#hl"/>
<use x="758.04" y="291.00" xlink:href="#hd"/>
<path d="M754.54 291.00v31.00" class="stroke"/>
<path class="fill"
	d="M754.54 322.00c0.6 -5.6 9.6 -9 5.6 -18.4
	1.6 6 -1.3 11.6 -5.6 12.8
"/>
<use x="758.04" y="303.00" xlink:href="#hd"/>
<use x="797.34" y="315.00" xlink:href="#hd"/>
<path d="M800.84 315.00v-21.00" class="stroke"/>
<use x="837.04" y="330.00" xlink:href="#hl"/>
<use x="837.04" y="336.00" xlink:href="#hl"/>
<use x="837.04" y="336.00" xlink:href="#hd"/>
<path d="M840.54 336.00v-24.00" class="stroke"/>
<path class="fill"
	d="M840.54 312.00c0.6 5.6 9.6 9 5.6 18.4
	1.6 -6 -1.3 -11.6 -5.6 -12.8
"/>
<use x="429.24" y="318.00" xlink:href="#hd"/>
<path d="M425.74 318.00v21.00" class="stroke"/>
</g>
</svg>
