<?xml version="1.0" standalone="no"?>
<!DOCTYPE svg PUBLIC "-//W3C//DTD SVG 1.1//EN"
	"http://www.w3.org/Graphics/SVG/1.1/DTD/svg11.dtd">
<svg xmlns="http://www.w3.org/2000/svg" version="1.1"
	xmlns:xlink="http://www.w3.org/1999/xlink"
	color="black"
	width="757.10px" height="297.27px">
<style type="text/css">
.fill {fill: currentColor}
.stroke {stroke: currentColor; fill: none}
text{white-space: pre}
</style>
<title>./K516f-7-6-8-11-2-2-3-7-10-4-8-8-6-9-4-3.abc (9232) tune 1</title>
<!-- Creator: abcm2ps-8.13.8 -->
<!-- CreationDate: Sep  7, 2017 11:18 -->
<!-- CommandLine: ./K516f-7-6-8-11-2-2-3-7-10-4-8-8-6-9-4-3.abc -O ./K516f-7-6-8-11-2-2-3-7-10-4-8-8-6-9-4-3.svg -g -->
<rect width="100%" height="100%" fill="white"/>
<g stroke-width="0.70" transform="scale(0.867)">
<!-- title: 7-6-8-11-2-2-3-7-10-4-8-8-6-9-4-3 -->
</g>
<g stroke-width="0.70" transform="scale(0.867)" font-family="Times" font-size="20.00">
<text x="436.84" y="22.00" text-anchor="middle">7-6-8-11-2-2-3-7-10-4-8-8-6-9-4-3</text>
</g>
<g stroke-width="0.70" transform="scale(0.867)" font-family="Times" font-size="20.00">
<!-- subtitle: $1K.516f::104:74:171:61:105:122:134:91:65:139:57:175:76:115:145:83::$0 -->
</g>
<g stroke-width="0.70" transform="scale(0.867)" font-family="Courier" font-size="8.00" font-weight="bold">
<text x="436.84" y="41.80" text-anchor="middle">K.516f::104:74:171:61:105:122:134:91:65:139:57:175:76:115:145:83::</text>
</g>
<g stroke-width="0.70" transform="scale(0.867)" font-family="Courier" font-size="8.00" font-weight="bold">
<!-- subtitle: $1Perm. No.: 92326028240551$0 -->
<text x="436.84" y="60.80" text-anchor="middle">Perm. No.: 92326028240551</text>
</g>
<g stroke-width="0.70" transform="scale(0.607)" font-family="Courier" font-size="8.00" font-weight="bold">
<defs>
<ellipse id="hd" rx="4.1" ry="2.9"
	transform="rotate(-20)" class="fill"/>
</defs>
<use x="103.06" y="121.29" xlink:href="#hd"/>
<path d="M106.56 121.29v-21.00" class="stroke"/>
<path class="fill"
	d="M106.56 100.29c0.6 5.6 9.6 9 5.6 18.4
	1.6 -6 -1.3 -11.6 -5.6 -12.8
"/>
</g>
<g stroke-width="0.70" transform="scale(0.867)" font-family="Times" font-size="15.00" font-weight="bold">
<text x="81.24" y="87.00">= 111</text>
<path class="stroke" stroke-width="1"
	d="M11.54 183.00v-82.00"/>
<path class="fill"
	d="M6.54 98.00
	c10.5 1 12 -4.5 12 -3.5c0 1 -3.5 5.5 -8.5 5.5
	v84.00
	c5 0 8.5 4.5 8.5 5.5c0 1 -1.5 -4.5 -12 -3.5"/>
<defs>
<g id="rdots" class="fill">
	<circle cx="0" cy="-9" r="1.2"/>
	<circle cx="0" cy="-15" r="1.2"/>
</g>
</defs>
<use x="70.54" y="125.00" xlink:href="#rdots"/>
<path class="stroke" stroke-width="1"
	d="M66.54 125.00v-24.00"/>
<path class="stroke" stroke-width="3"
	d="M62.04 125.00v-24.00"/>
<use x="70.54" y="183.00" xlink:href="#rdots"/>
<path class="stroke" stroke-width="1"
	d="M66.54 183.00v-58.00"/>
<path class="stroke" stroke-width="3"
	d="M62.04 183.00v-58.00"/>
<path class="stroke" stroke-width="1"
	d="M174.74 125.00v-24.00"/>
<path class="stroke" stroke-width="1"
	d="M174.74 183.00v-58.00"/>
<path class="stroke" stroke-width="1"
	d="M278.04 125.00v-24.00"/>
<path class="stroke" stroke-width="1"
	d="M278.04 183.00v-58.00"/>
<path class="stroke" stroke-width="1"
	d="M381.24 125.00v-24.00"/>
<path class="stroke" stroke-width="1"
	d="M381.24 183.00v-58.00"/>
<path class="stroke" stroke-width="1"
	d="M464.24 125.00v-24.00"/>
<path class="stroke" stroke-width="1"
	d="M464.24 183.00v-58.00"/>
<path class="stroke" stroke-width="1"
	d="M563.94 125.00v-24.00"/>
<path class="stroke" stroke-width="1"
	d="M563.94 183.00v-58.00"/>
<path class="stroke" stroke-width="1"
	d="M658.74 125.00v-24.00"/>
<path class="stroke" stroke-width="1"
	d="M658.74 183.00v-58.00"/>
<path class="stroke" stroke-width="1"
	d="M764.24 125.00v-24.00"/>
<path class="stroke" stroke-width="1"
	d="M764.24 183.00v-58.00"/>
<path class="stroke" stroke-width="3"
	d="M860.54 125.00v-24.00"/>
<path class="stroke" stroke-width="1"
	d="M856.04 125.00v-24.00"/>
<use x="852.04" y="125.00" xlink:href="#rdots"/>
<path class="stroke" stroke-width="3"
	d="M860.54 183.00v-58.00"/>
<path class="stroke" stroke-width="1"
	d="M856.04 183.00v-58.00"/>
<use x="852.04" y="183.00" xlink:href="#rdots"/>
<path d="m11.54 125.00
	h850.50
	M11.54 119.00
	h850.50
	M11.54 113.00
	h850.50
	M11.54 107.00
	h850.50
	M11.54 101.00
	h850.50
	" class="stroke"/>
<path d="m11.54 183.00
	h850.50
	M11.54 177.00
	h850.50
	M11.54 171.00
	h850.50
	M11.54 165.00
	h850.50
	M11.54 159.00
	h850.50
	" class="stroke"/>
</g>
<g stroke-width="0.70" transform="scale(0.867)" font-family="Times" font-size="13.00">
<text x="768.24" y="86.40">1</text>
<path class="stroke"
	d="M764.24 75.00m0 20v-20h89.80v20"/>
<defs>
<path id="utclef" class="fill" d="m-50 -90
	c-72 -41 -72 -158 52 -188
	150 -10 220 188 90 256
	-114 52 -275 0 -293 -136
	-15 -181 93 -229 220 -334
	88 -87 79 -133 62 -210
	-51 33 -94 105 -89 186
	17 267 36 374 49 574
	6 96 -19 134 -77 135
	-80 1 -126 -93 -61 -133
	85 -41 133 101 31 105
	23 17 92 37 90 -92
	-10 -223 -39 -342 -50 -617
	0 -90 0 -162 96 -232
	56 72 63 230 22 289
	-74 106 -257 168 -255 316
	9 153 148 185 252 133
	86 -65 29 -192 -80 -176
	-71 12 -105 67 -59 124"/>
<use id="tclef" transform="translate(0,6) scale(0.045)"
	xlink:href="#utclef"/>
</defs>
<use x="23.54" y="119.00" xlink:href="#tclef"/>
<g font-family="serif" font-size="16" font-weight="bold" font-style="normal"
	transform="translate(42.04,124.50) scale(1.2,1)">
	<text text-anchor="middle">8</text>
	<text y="-12" text-anchor="middle">3</text>
</g>
<path class="fill"
	d="M80.24 130.50l78.80 -6.30v-3.20l-78.80 6.30"/>
<path class="fill"
	d="M80.64 125.50l78.10 -6.30v-3.20l-78.10 6.30"/>
<use x="84.14" y="104.00" xlink:href="#hd"/>
<path d="M80.64 104.00v25.50" class="stroke"/>
<use x="99.74" y="107.00" xlink:href="#hd"/>
<path d="M96.24 107.00v21.20" class="stroke"/>
<use x="115.34" y="104.00" xlink:href="#hd"/>
<path d="M111.84 104.00v22.90" class="stroke"/>
<use x="130.94" y="98.00" xlink:href="#hd"/>
<path d="M127.44 98.00v27.70" class="stroke"/>
<defs>
<path id="hl" class="stroke" d="m-6 0h12"/>
</defs>
<use x="146.54" y="95.00" xlink:href="#hl"/>
<use x="146.54" y="89.00" xlink:href="#hl"/>
<use x="146.54" y="89.00" xlink:href="#hd"/>
<path d="M143.04 89.00v35.40" class="stroke"/>
<use x="162.24" y="98.00" xlink:href="#hd"/>
<path d="M158.74 98.00v25.20" class="stroke"/>
<path class="fill"
	d="M183.44 122.80l78.90 9.50v-3.20l-78.90 -9.50"/>
<path class="fill"
	d="M183.74 117.80l78.20 9.40v-3.20l-78.20 -9.40"/>
<use x="187.24" y="95.00" xlink:href="#hl"/>
<use x="187.24" y="89.00" xlink:href="#hl"/>
<use x="187.24" y="89.00" xlink:href="#hd"/>
<path d="M183.74 89.00v32.80" class="stroke"/>
<use x="203.04" y="95.00" xlink:href="#hl"/>
<use x="203.04" y="92.00" xlink:href="#hd"/>
<path d="M199.54 92.00v31.70" class="stroke"/>
<use x="218.74" y="95.00" xlink:href="#hl"/>
<use x="218.74" y="89.00" xlink:href="#hl"/>
<use x="218.74" y="89.00" xlink:href="#hd"/>
<path d="M215.24 89.00v36.60" class="stroke"/>
<use x="234.34" y="98.00" xlink:href="#hd"/>
<path d="M230.84 98.00v29.50" class="stroke"/>
<use x="249.94" y="104.00" xlink:href="#hd"/>
<path d="M246.44 104.00v25.30" class="stroke"/>
<use x="265.54" y="110.00" xlink:href="#hd"/>
<path d="M262.04 110.00v21.20" class="stroke"/>
<path class="fill"
	d="M286.74 133.00l78.80 0.00v-3.20l-78.80 -0.00"/>
<path class="fill"
	d="M287.14 128.00l78.10 0.00v-3.20l-78.10 -0.00"/>
<use x="290.64" y="113.00" xlink:href="#hd"/>
<path d="M287.14 113.00v18.90" class="stroke"/>
<use x="306.24" y="110.00" xlink:href="#hd"/>
<path d="M302.74 110.00v21.90" class="stroke"/>
<use x="321.84" y="107.00" xlink:href="#hd"/>
<path d="M318.34 107.00v24.90" class="stroke"/>
<use x="337.44" y="104.00" xlink:href="#hd"/>
<path d="M333.94 104.00v27.90" class="stroke"/>
<use x="353.04" y="101.00" xlink:href="#hd"/>
<path d="M349.54 101.00v30.90" class="stroke"/>
<use x="368.74" y="107.00" xlink:href="#hd"/>
<path d="M365.24 107.00v24.90" class="stroke"/>
<path class="fill"
	d="M389.94 135.30l53.80 -4.50v-3.20l-53.80 4.50"/>
<path class="fill"
	d="M412.14 128.50l15.60 -1.30v-3.20l-15.60 1.30"/>
<use x="393.74" y="110.00" xlink:href="#hd"/>
<path d="M390.24 110.00v24.30" class="stroke"/>
<use x="415.64" y="104.00" xlink:href="#hd"/>
<path d="M412.14 104.00v28.50" class="stroke"/>
<use x="431.24" y="110.00" xlink:href="#hd"/>
<path d="M427.74 110.00v21.20" class="stroke"/>
<use x="446.94" y="98.00" xlink:href="#hd"/>
<path d="M443.44 98.00v31.90" class="stroke"/>
<path class="fill"
	d="M478.84 127.00l69.40 0.00v-3.20l-69.40 -0.00"/>
<path class="fill"
	d="M501.14 122.00l46.80 0.00v-3.20l-46.80 -0.00"/>
<use x="482.74" y="101.00" xlink:href="#hd"/>
<defs>
<path id="usharp" class="fill" d="
	m136 -702
	v890
	h32
	v-890
	m128 840
	h32
	v-888
	h-32
	m-232 286
	v116
	l338 -96
	v-116
	m-338 442
	v116
	l338 -98
	v-114"/>
<use id="sh0" transform="translate(-4,5) scale(0.018)"
	xlink:href="#usharp"/>
</defs>
<use x="473.74" y="101.00" xlink:href="#sh0"/>
<path d="M479.24 101.00v25.00" class="stroke"/>
<use x="504.64" y="95.00" xlink:href="#hl"/>
<use x="504.64" y="95.00" xlink:href="#hd"/>
<path d="M501.14 95.00v31.00" class="stroke"/>
<use x="520.24" y="101.00" xlink:href="#hd"/>
<path d="M516.74 101.00v25.00" class="stroke"/>
<use x="535.84" y="107.00" xlink:href="#hd"/>
<path d="M532.34 107.00v19.00" class="stroke"/>
<use x="551.44" y="101.00" xlink:href="#hd"/>
<path d="M547.94 101.00v25.00" class="stroke"/>
<path class="fill"
	d="M572.74 127.00l65.50 0.00v-3.20l-65.50 -0.00"/>
<path class="fill"
	d="M573.04 122.00l49.20 0.00v-3.20l-49.20 -0.00"/>
<use x="576.54" y="98.00" xlink:href="#hd"/>
<path d="M573.04 98.00v28.00" class="stroke"/>
<use x="594.54" y="101.00" xlink:href="#hd"/>
<use x="585.54" y="101.00" xlink:href="#sh0"/>
<path d="M591.04 101.00v25.00" class="stroke"/>
<use x="610.14" y="98.00" xlink:href="#hd"/>
<path d="M606.64 98.00v28.00" class="stroke"/>
<use x="625.74" y="95.00" xlink:href="#hl"/>
<use x="625.74" y="92.00" xlink:href="#hd"/>
<path d="M622.24 92.00v34.00" class="stroke"/>
<use x="641.34" y="107.00" xlink:href="#hd"/>
<path d="M637.84 107.00v19.00" class="stroke"/>
<path class="fill"
	d="M667.44 140.20l81.10 0.00v-3.20l-81.10 -0.00"/>
<path class="fill"
	d="M667.84 135.20l80.50 0.00v-3.20l-80.50 -0.00"/>
<use x="671.34" y="116.00" xlink:href="#hd"/>
<path d="M667.84 116.00v23.20" class="stroke"/>
<use x="686.94" y="104.00" xlink:href="#hd"/>
<path d="M683.44 104.00v35.20" class="stroke"/>
<use x="702.54" y="107.00" xlink:href="#hd"/>
<path d="M699.04 107.00v32.20" class="stroke"/>
<use x="702.54" y="113.00" xlink:href="#hd"/>
<use x="718.14" y="110.00" xlink:href="#hd"/>
<path d="M714.64 110.00v29.20" class="stroke"/>
<use x="718.14" y="116.00" xlink:href="#hd"/>
<use x="733.74" y="113.00" xlink:href="#hd"/>
<path d="M730.24 113.00v26.20" class="stroke"/>
<use x="733.74" y="119.00" xlink:href="#hd"/>
<use x="751.74" y="116.00" xlink:href="#hd"/>
<path d="M748.24 116.00v23.20" class="stroke"/>
<use x="751.74" y="122.00" xlink:href="#hd"/>
<use x="742.74" y="122.00" xlink:href="#sh0"/>
<use x="776.84" y="98.00" xlink:href="#hd"/>
<path d="M773.34 98.00v40.00" class="stroke"/>
<use x="776.84" y="119.00" xlink:href="#hd"/>
<use x="776.84" y="113.00" xlink:href="#hd"/>
<use x="776.84" y="107.00" xlink:href="#hd"/>
<defs>
<path id="r8e" class="fill" d="m 0 0
	c-1.5 1.5 -2.4 2 -3.6 2
	2.4 -2.8 -2.8 -4 -2.8 -1.2
	c0 2.7 4.3 2.4 5.9 0.6"/>
<g id="r8">
	<path d="m3.3 -4l-3.4 9.6" class="stroke"/>
	<use x="3.4" y="-4" xlink:href="#r8e"/>
</g>
</defs>
<use x="832.34" y="113.00" xlink:href="#r8"/>
<defs>
<path id="ubclef" class="fill" d="m-200 -87
	c124 -35 222 -78 254 -236
	43 -228 -167 -246 -192 -103
	59 -80 157 22 92 78
	-62 47 -115 -22 -106 -88
	21 -141 270 -136 274 52
	-1 175 -106 264 -322 297
	m357 -250
	c0 -36 51 -34 51 0
	0 37 -51 36 -51 0
	m-2 -129
	c0 -36 51 -34 51 0
	0 38 -51 37 -51 0"/>
<use id="bclef" transform="translate(0,18) scale(0.045)"
	xlink:href="#ubclef"/>
</defs>
<use x="23.54" y="165.00" xlink:href="#bclef"/>
<g font-family="serif" font-size="16" font-weight="bold" font-style="normal"
	transform="translate(42.04,182.50) scale(1.2,1)">
	<text text-anchor="middle">8</text>
	<text y="-12" text-anchor="middle">3</text>
</g>
<use x="84.14" y="174.00" xlink:href="#hd"/>
<path d="M87.64 174.00v-21.00" class="stroke"/>
<use x="146.54" y="171.00" xlink:href="#r8"/>
<use x="187.24" y="168.00" xlink:href="#hd"/>
<path d="M190.74 168.00v-21.00" class="stroke"/>
<use x="249.94" y="171.00" xlink:href="#r8"/>
<use x="290.64" y="183.00" xlink:href="#hd"/>
<path d="M294.14 183.00v-40.00" class="stroke"/>
<use x="290.64" y="162.00" xlink:href="#hd"/>
<use x="353.04" y="162.00" xlink:href="#hd"/>
<path d="M349.54 162.00v34.00" class="stroke"/>
<path class="fill"
	d="M349.54 196.00c0.6 -5.6 9.6 -9 5.6 -18.4
	1.6 6 -1.3 11.6 -5.6 12.8
"/>
<use x="353.04" y="177.00" xlink:href="#hd"/>
<use x="393.74" y="162.00" xlink:href="#hd"/>
<path d="M390.24 162.00v25.00" class="stroke"/>
<use x="393.74" y="168.00" xlink:href="#hd"/>
<use x="446.94" y="171.00" xlink:href="#r8"/>
<use x="482.74" y="174.00" xlink:href="#hd"/>
<path d="M486.24 174.00v-21.00" class="stroke"/>
<use x="535.84" y="171.00" xlink:href="#r8"/>
<path class="fill"
	d="M579.74 149.40l65.50 -4.60v3.20l-65.50 4.60"/>
<use x="576.54" y="177.00" xlink:href="#hd"/>
<path d="M580.04 177.00v-26.60" class="stroke"/>
<use x="576.54" y="171.00" xlink:href="#hd"/>
<use x="610.14" y="177.00" xlink:href="#hd"/>
<path d="M613.64 177.00v-29.00" class="stroke"/>
<use x="610.14" y="171.00" xlink:href="#hd"/>
<use x="641.34" y="177.00" xlink:href="#hd"/>
<path d="M644.84 177.00v-31.20" class="stroke"/>
<use x="641.34" y="162.00" xlink:href="#hd"/>
<path class="fill"
	d="M674.44 147.70l63.10 8.10v3.20l-63.10 -8.10"/>
<use x="671.34" y="174.00" xlink:href="#hd"/>
<path d="M674.84 174.00v-25.20" class="stroke"/>
<use x="702.54" y="171.00" xlink:href="#hd"/>
<path d="M706.04 171.00v-18.20" class="stroke"/>
<use x="733.74" y="189.00" xlink:href="#hl"/>
<use x="733.74" y="192.00" xlink:href="#hd"/>
<path d="M737.24 192.00v-35.20" class="stroke"/>
<path class="fill"
	d="M773.04 202.20l71.80 0.00v-3.20l-71.80 -0.00"/>
<path class="fill"
	d="M795.24 197.20l49.20 0.00v-3.20l-49.20 -0.00"/>
<use x="776.84" y="183.00" xlink:href="#hd"/>
<path d="M773.34 183.00v18.20" class="stroke"/>
<use x="798.74" y="162.00" xlink:href="#hd"/>
<path d="M795.24 162.00v39.20" class="stroke"/>
<use x="816.74" y="165.00" xlink:href="#hd"/>
<defs>
<path id="unat" class="fill" d="
	m96 -750
	h-32
	v716
	l32 -8
	182 -54
	v282
	h32
	v-706
	l-34 10
	-180 50
	v-290
	m0 592
	v-190
	l182 -52
	v188"/>
<use id="nt0" transform="translate(-3,5) scale(0.018)"
	xlink:href="#unat"/>
</defs>
<use x="807.74" y="165.00" xlink:href="#nt0"/>
<path d="M813.24 165.00v36.20" class="stroke"/>
<use x="832.34" y="168.00" xlink:href="#hd"/>
<path d="M828.84 168.00v33.20" class="stroke"/>
<use x="847.94" y="171.00" xlink:href="#hd"/>
<path d="M844.44 171.00v30.20" class="stroke"/>
<use x="187.24" y="174.00" xlink:href="#hd"/>
<path d="M183.74 174.00v21.00" class="stroke"/>
</g>
<g stroke-width="0.70" transform="scale(0.867)" font-family="Times" font-size="13.00">
<path class="stroke" stroke-width="1"
	d="M11.54 320.00v-86.00"/>
<path class="fill"
	d="M6.54 231.00
	c10.5 1 12 -4.5 12 -3.5c0 1 -3.5 5.5 -8.5 5.5
	v88.00
	c5 0 8.5 4.5 8.5 5.5c0 1 -1.5 -4.5 -12 -3.5"/>
<use x="142.34" y="258.00" xlink:href="#rdots"/>
<path class="stroke" stroke-width="1"
	d="M138.34 258.00v-24.00"/>
<path class="stroke" stroke-width="3"
	d="M133.84 258.00v-24.00"/>
<use x="142.34" y="320.00" xlink:href="#rdots"/>
<path class="stroke" stroke-width="1"
	d="M138.34 320.00v-62.00"/>
<path class="stroke" stroke-width="3"
	d="M133.84 320.00v-62.00"/>
<path class="stroke" stroke-width="1"
	d="M227.84 258.00v-24.00"/>
<path class="stroke" stroke-width="1"
	d="M227.84 320.00v-62.00"/>
<path class="stroke" stroke-width="1"
	d="M314.04 258.00v-24.00"/>
<path class="stroke" stroke-width="1"
	d="M314.04 320.00v-62.00"/>
<path class="stroke" stroke-width="1"
	d="M411.14 258.00v-24.00"/>
<path class="stroke" stroke-width="1"
	d="M411.14 320.00v-62.00"/>
<path class="stroke" stroke-width="1"
	d="M497.44 258.00v-24.00"/>
<path class="stroke" stroke-width="1"
	d="M497.44 320.00v-62.00"/>
<path class="stroke" stroke-width="1"
	d="M594.84 258.00v-24.00"/>
<path class="stroke" stroke-width="1"
	d="M594.84 320.00v-62.00"/>
<path class="stroke" stroke-width="1"
	d="M691.94 258.00v-24.00"/>
<path class="stroke" stroke-width="1"
	d="M691.94 320.00v-62.00"/>
<path class="stroke" stroke-width="1"
	d="M789.04 258.00v-24.00"/>
<path class="stroke" stroke-width="1"
	d="M789.04 320.00v-62.00"/>
<path class="stroke" stroke-width="3"
	d="M860.54 258.00v-24.00"/>
<path class="stroke" stroke-width="1"
	d="M856.04 258.00v-24.00"/>
<use x="852.04" y="258.00" xlink:href="#rdots"/>
<path class="stroke" stroke-width="3"
	d="M860.54 320.00v-62.00"/>
<path class="stroke" stroke-width="1"
	d="M856.04 320.00v-62.00"/>
<use x="852.04" y="320.00" xlink:href="#rdots"/>
<path d="m11.54 258.00
	h850.50
	M11.54 252.00
	h850.50
	M11.54 246.00
	h850.50
	M11.54 240.00
	h850.50
	M11.54 234.00
	h850.50
	" class="stroke"/>
<path d="m11.54 320.00
	h850.50
	M11.54 314.00
	h850.50
	M11.54 308.00
	h850.50
	M11.54 302.00
	h850.50
	M11.54 296.00
	h850.50
	" class="stroke"/>
<text x="47.54" y="219.40">2</text>
<path class="stroke"
	d="M43.54 208.00m0 20v-20h87.80v20"/>
<use x="23.54" y="252.00" xlink:href="#tclef"/>
<use x="56.04" y="231.00" xlink:href="#hd"/>
<path d="M52.54 231.00v40.00" class="stroke"/>
<use x="56.04" y="252.00" xlink:href="#hd"/>
<use x="56.04" y="246.00" xlink:href="#hd"/>
<use x="56.04" y="240.00" xlink:href="#hd"/>
<use x="108.44" y="246.00" xlink:href="#r8"/>
<path class="fill"
	d="M158.04 272.50l50.50 -4.60v-3.20l-50.50 4.60"/>
<path class="fill"
	d="M158.34 267.50l14.40 -1.30v-3.20l-14.40 1.30"/>
<use x="161.84" y="240.00" xlink:href="#hd"/>
<path d="M158.34 240.00v31.50" class="stroke"/>
<use x="176.34" y="249.00" xlink:href="#hd"/>
<path d="M172.84 249.00v21.20" class="stroke"/>
<use x="190.74" y="240.00" xlink:href="#hd"/>
<path d="M187.24 240.00v28.90" class="stroke"/>
<use x="211.64" y="234.00" xlink:href="#hd"/>
<use x="202.64" y="234.00" xlink:href="#sh0"/>
<path d="M208.14 234.00v33.00" class="stroke"/>
<path class="fill"
	d="M236.44 260.00l58.30 0.00v-3.20l-58.30 -0.00"/>
<path class="fill"
	d="M236.84 255.00l43.20 0.00v-3.20l-43.20 -0.00"/>
<use x="240.34" y="231.00" xlink:href="#hd"/>
<path d="M236.84 231.00v28.00" class="stroke"/>
<use x="254.74" y="228.00" xlink:href="#hl"/>
<use x="254.74" y="225.00" xlink:href="#hd"/>
<path d="M251.24 225.00v34.00" class="stroke"/>
<use x="269.14" y="231.00" xlink:href="#hd"/>
<path d="M265.64 231.00v28.00" class="stroke"/>
<use x="283.54" y="228.00" xlink:href="#hl"/>
<use x="283.54" y="225.00" xlink:href="#hd"/>
<path d="M280.04 225.00v34.00" class="stroke"/>
<use x="297.94" y="240.00" xlink:href="#hd"/>
<path d="M294.44 240.00v19.00" class="stroke"/>
<path class="fill"
	d="M322.74 264.30l58.30 6.90v-3.20l-58.30 -6.90"/>
<use x="326.54" y="237.00" xlink:href="#hd"/>
<path d="M323.04 237.00v26.30" class="stroke"/>
<use x="355.44" y="243.00" xlink:href="#hd"/>
<path d="M351.94 243.00v23.80" class="stroke"/>
<use x="384.24" y="252.00" xlink:href="#hd"/>
<path d="M380.74 252.00v18.20" class="stroke"/>
<path class="fill"
	d="M419.84 268.20l58.30 0.00v-3.20l-58.30 -0.00"/>
<path class="fill"
	d="M420.14 263.20l43.20 0.00v-3.20l-43.20 -0.00"/>
<use x="423.64" y="237.00" xlink:href="#hd"/>
<path d="M420.14 237.00v30.20" class="stroke"/>
<use x="438.04" y="243.00" xlink:href="#hd"/>
<path d="M434.54 243.00v24.20" class="stroke"/>
<use x="452.54" y="246.00" xlink:href="#hd"/>
<path d="M449.04 246.00v21.20" class="stroke"/>
<use x="466.94" y="240.00" xlink:href="#hd"/>
<path d="M463.44 240.00v27.20" class="stroke"/>
<use x="481.34" y="231.00" xlink:href="#hd"/>
<path d="M477.84 231.00v36.20" class="stroke"/>
<path class="fill"
	d="M506.14 256.00l73.10 9.30v-3.20l-73.10 -9.30"/>
<path class="fill"
	d="M506.44 251.00l72.40 9.20v-3.20l-72.40 -9.20"/>
<use x="509.94" y="228.00" xlink:href="#hl"/>
<use x="509.94" y="222.00" xlink:href="#hl"/>
<use x="509.94" y="222.00" xlink:href="#hd"/>
<path d="M506.44 222.00v33.00" class="stroke"/>
<use x="524.54" y="228.00" xlink:href="#hl"/>
<use x="524.54" y="225.00" xlink:href="#hd"/>
<path d="M521.04 225.00v31.90" class="stroke"/>
<use x="539.14" y="228.00" xlink:href="#hl"/>
<use x="539.14" y="222.00" xlink:href="#hl"/>
<use x="539.14" y="222.00" xlink:href="#hd"/>
<path d="M535.64 222.00v36.70" class="stroke"/>
<use x="553.54" y="231.00" xlink:href="#hd"/>
<path d="M550.04 231.00v29.50" class="stroke"/>
<use x="567.94" y="237.00" xlink:href="#hd"/>
<path d="M564.44 237.00v25.40" class="stroke"/>
<use x="582.34" y="243.00" xlink:href="#hd"/>
<path d="M578.84 243.00v21.20" class="stroke"/>
<path class="fill"
	d="M603.54 275.50l72.80 -6.20v-3.20l-72.80 6.20"/>
<path class="fill"
	d="M603.84 270.40l72.10 -6.20v-3.20l-72.10 6.20"/>
<use x="607.34" y="243.00" xlink:href="#hd"/>
<path d="M603.84 243.00v31.40" class="stroke"/>
<use x="621.74" y="252.00" xlink:href="#hd"/>
<path d="M618.24 252.00v21.20" class="stroke"/>
<use x="636.14" y="237.00" xlink:href="#hd"/>
<path d="M632.64 237.00v35.00" class="stroke"/>
<use x="650.64" y="243.00" xlink:href="#hd"/>
<path d="M647.14 243.00v27.70" class="stroke"/>
<use x="665.04" y="231.00" xlink:href="#hd"/>
<path d="M661.54 231.00v38.50" class="stroke"/>
<use x="679.44" y="237.00" xlink:href="#hd"/>
<path d="M675.94 237.00v31.30" class="stroke"/>
<path class="fill"
	d="M700.64 271.20l72.80 0.00v-3.20l-72.80 -0.00"/>
<path class="fill"
	d="M700.94 266.20l72.10 0.00v-3.20l-72.10 -0.00"/>
<use x="704.44" y="240.00" xlink:href="#hd"/>
<path d="M700.94 240.00v30.20" class="stroke"/>
<use x="718.84" y="234.00" xlink:href="#hd"/>
<path d="M715.34 234.00v36.20" class="stroke"/>
<use x="733.24" y="249.00" xlink:href="#hd"/>
<path d="M729.74 249.00v21.20" class="stroke"/>
<use x="747.64" y="240.00" xlink:href="#hd"/>
<path d="M744.14 240.00v30.20" class="stroke"/>
<use x="762.14" y="246.00" xlink:href="#hd"/>
<path d="M758.64 246.00v24.20" class="stroke"/>
<use x="776.54" y="240.00" xlink:href="#hd"/>
<path d="M773.04 240.00v30.20" class="stroke"/>
<use x="801.54" y="243.00" xlink:href="#hd"/>
<path d="M798.04 243.00v21.00" class="stroke"/>
<use x="841.54" y="246.00" xlink:href="#r8"/>
<use x="23.54" y="302.00" xlink:href="#bclef"/>
<path class="fill"
	d="M52.24 339.20l67.50 -4.90v-3.20l-67.50 4.90"/>
<path class="fill"
	d="M72.54 332.70l46.80 -3.40v-3.20l-46.80 3.40"/>
<use x="56.04" y="320.00" xlink:href="#hd"/>
<path d="M52.54 320.00v18.20" class="stroke"/>
<use x="76.04" y="293.00" xlink:href="#hd"/>
<path d="M72.54 293.00v43.70" class="stroke"/>
<use x="90.44" y="299.00" xlink:href="#hd"/>
<path d="M86.94 299.00v36.70" class="stroke"/>
<use x="108.44" y="302.00" xlink:href="#hd"/>
<use x="99.44" y="302.00" xlink:href="#sh0"/>
<path d="M104.94 302.00v32.40" class="stroke"/>
<use x="122.84" y="305.00" xlink:href="#hd"/>
<path d="M119.34 305.00v28.30" class="stroke"/>
<use x="161.84" y="302.00" xlink:href="#hd"/>
<use x="152.84" y="302.00" xlink:href="#sh0"/>
<path d="M165.34 302.00v-21.00" class="stroke"/>
<use x="211.64" y="308.00" xlink:href="#r8"/>
<use x="240.34" y="314.00" xlink:href="#hd"/>
<path d="M243.84 314.00v-21.00" class="stroke"/>
<use x="297.94" y="308.00" xlink:href="#r8"/>
<path class="fill"
	d="M322.74 327.90l72.80 0.00v-3.20l-72.80 -0.00"/>
<path class="fill"
	d="M323.04 322.90l72.10 0.00v-3.20l-72.10 -0.00"/>
<use x="326.54" y="305.00" xlink:href="#hd"/>
<path d="M323.04 305.00v21.90" class="stroke"/>
<use x="326.54" y="311.00" xlink:href="#hd"/>
<use x="341.04" y="299.00" xlink:href="#hd"/>
<path d="M337.54 299.00v27.90" class="stroke"/>
<use x="355.44" y="305.00" xlink:href="#hd"/>
<path d="M351.94 305.00v21.90" class="stroke"/>
<use x="355.44" y="311.00" xlink:href="#hd"/>
<use x="369.84" y="299.00" xlink:href="#hd"/>
<path d="M366.34 299.00v27.90" class="stroke"/>
<use x="384.24" y="305.00" xlink:href="#hd"/>
<path d="M380.74 305.00v21.90" class="stroke"/>
<use x="384.24" y="311.00" xlink:href="#hd"/>
<use x="398.64" y="299.00" xlink:href="#hd"/>
<path d="M395.14 299.00v27.90" class="stroke"/>
<path class="fill"
	d="M426.84 279.70l29.50 8.70v3.20l-29.50 -8.70"/>
<use x="423.64" y="299.00" xlink:href="#hd"/>
<path d="M427.14 299.00v-18.20" class="stroke"/>
<use x="452.54" y="320.00" xlink:href="#hd"/>
<path d="M456.04 320.00v-30.70" class="stroke"/>
<use x="481.34" y="308.00" xlink:href="#r8"/>
<use x="509.94" y="305.00" xlink:href="#hd"/>
<path d="M506.44 305.00v25.00" class="stroke"/>
<use x="509.94" y="311.00" xlink:href="#hd"/>
<use x="567.94" y="299.00" xlink:href="#hd"/>
<path d="M564.44 299.00v31.00" class="stroke"/>
<path class="fill"
	d="M564.44 330.00c0.6 -5.6 9.6 -9 5.6 -18.4
	1.6 6 -1.3 11.6 -5.6 12.8
"/>
<use x="567.94" y="311.00" xlink:href="#hd"/>
<use x="607.34" y="305.00" xlink:href="#hd"/>
<path d="M603.84 305.00v25.00" class="stroke"/>
<use x="607.34" y="311.00" xlink:href="#hd"/>
<use x="665.04" y="308.00" xlink:href="#r8"/>
<use x="704.44" y="302.00" xlink:href="#hd"/>
<path d="M700.94 302.00v21.00" class="stroke"/>
<use x="762.14" y="299.00" xlink:href="#hd"/>
<path d="M758.64 299.00v21.00" class="stroke"/>
<path class="fill"
	d="M758.64 320.00c0.6 -5.6 9.6 -9 5.6 -18.4
	1.6 6 -1.3 11.6 -5.6 12.8
"/>
<path class="fill"
	d="M804.64 291.70l40.70 9.60v3.20l-40.70 -9.60"/>
<use x="801.54" y="311.00" xlink:href="#hd"/>
<path d="M805.04 311.00v-18.20" class="stroke"/>
<use x="821.54" y="320.00" xlink:href="#hd"/>
<path d="M825.04 320.00v-22.50" class="stroke"/>
<use x="841.54" y="326.00" xlink:href="#hl"/>
<use x="841.54" y="332.00" xlink:href="#hl"/>
<use x="841.54" y="332.00" xlink:href="#hd"/>
<path d="M845.04 332.00v-29.70" class="stroke"/>
<use x="161.84" y="308.00" xlink:href="#hd"/>
<path d="M158.34 308.00v21.00" class="stroke"/>
</g>
</svg>
