<?xml version="1.0" standalone="no"?>
<!DOCTYPE svg PUBLIC "-//W3C//DTD SVG 1.1//EN"
	"http://www.w3.org/Graphics/SVG/1.1/DTD/svg11.dtd">
<svg xmlns="http://www.w3.org/2000/svg" version="1.1"
	xmlns:xlink="http://www.w3.org/1999/xlink"
	color="black"
	width="757.10px" height="293.80px">
<style type="text/css">
.fill {fill: currentColor}
.stroke {stroke: currentColor; fill: none}
text{white-space: pre}
</style>
<title>./K516f-11-8-7-10-5-12-7-6-2-6-9-12-11-9-4-2.abc (9385) tune 1</title>
<!-- Creator: abcm2ps-8.13.8 -->
<!-- CreationDate: Sep  7, 2017 11:20 -->
<!-- CommandLine: ./K516f-11-8-7-10-5-12-7-6-2-6-9-12-11-9-4-2.abc -O ./K516f-11-8-7-10-5-12-7-6-2-6-9-12-11-9-4-2.svg -g -->
<rect width="100%" height="100%" fill="white"/>
<g stroke-width="0.70" transform="scale(0.867)">
<!-- title: 11-8-7-10-5-12-7-6-2-6-9-12-11-9-4-2 -->
</g>
<g stroke-width="0.70" transform="scale(0.867)" font-family="Times" font-size="20.00">
<text x="436.84" y="22.00" text-anchor="middle">11-8-7-10-5-12-7-6-2-6-9-12-11-9-4-2</text>
</g>
<g stroke-width="0.70" transform="scale(0.867)" font-family="Times" font-size="20.00">
<!-- subtitle: $1K.516f::3:60:27:156:161:37:118:107:70:143:48:92:144:115:145:14::$0 -->
</g>
<g stroke-width="0.70" transform="scale(0.867)" font-family="Courier" font-size="8.00" font-weight="bold">
<text x="436.84" y="41.80" text-anchor="middle">K.516f::3:60:27:156:161:37:118:107:70:143:48:92:144:115:145:14::</text>
</g>
<g stroke-width="0.70" transform="scale(0.867)" font-family="Courier" font-size="8.00" font-weight="bold">
<!-- subtitle: $1Perm. No.: 93858975799346$0 -->
<text x="436.84" y="60.80" text-anchor="middle">Perm. No.: 93858975799346</text>
</g>
<g stroke-width="0.70" transform="scale(0.607)" font-family="Courier" font-size="8.00" font-weight="bold">
<defs>
<ellipse id="hd" rx="4.1" ry="2.9"
	transform="rotate(-20)" class="fill"/>
</defs>
<use x="103.06" y="121.29" xlink:href="#hd"/>
<path d="M106.56 121.29v-21.00" class="stroke"/>
<path class="fill"
	d="M106.56 100.29c0.6 5.6 9.6 9 5.6 18.4
	1.6 -6 -1.3 -11.6 -5.6 -12.8
"/>
</g>
<g stroke-width="0.70" transform="scale(0.867)" font-family="Times" font-size="15.00" font-weight="bold">
<text x="81.24" y="87.00">= 111</text>
<path class="stroke" stroke-width="1"
	d="M11.54 183.00v-82.00"/>
<path class="fill"
	d="M6.54 98.00
	c10.5 1 12 -4.5 12 -3.5c0 1 -3.5 5.5 -8.5 5.5
	v84.00
	c5 0 8.5 4.5 8.5 5.5c0 1 -1.5 -4.5 -12 -3.5"/>
<defs>
<g id="rdots" class="fill">
	<circle cx="0" cy="-9" r="1.2"/>
	<circle cx="0" cy="-15" r="1.2"/>
</g>
</defs>
<use x="70.54" y="125.00" xlink:href="#rdots"/>
<path class="stroke" stroke-width="1"
	d="M66.54 125.00v-24.00"/>
<path class="stroke" stroke-width="3"
	d="M62.04 125.00v-24.00"/>
<use x="70.54" y="183.00" xlink:href="#rdots"/>
<path class="stroke" stroke-width="1"
	d="M66.54 183.00v-58.00"/>
<path class="stroke" stroke-width="3"
	d="M62.04 183.00v-58.00"/>
<path class="stroke" stroke-width="1"
	d="M151.04 125.00v-24.00"/>
<path class="stroke" stroke-width="1"
	d="M151.04 183.00v-58.00"/>
<path class="stroke" stroke-width="1"
	d="M251.84 125.00v-24.00"/>
<path class="stroke" stroke-width="1"
	d="M251.84 183.00v-58.00"/>
<path class="stroke" stroke-width="1"
	d="M362.64 125.00v-24.00"/>
<path class="stroke" stroke-width="1"
	d="M362.64 183.00v-58.00"/>
<path class="stroke" stroke-width="1"
	d="M461.94 125.00v-24.00"/>
<path class="stroke" stroke-width="1"
	d="M461.94 183.00v-58.00"/>
<path class="stroke" stroke-width="1"
	d="M546.94 125.00v-24.00"/>
<path class="stroke" stroke-width="1"
	d="M546.94 183.00v-58.00"/>
<path class="stroke" stroke-width="1"
	d="M646.24 125.00v-24.00"/>
<path class="stroke" stroke-width="1"
	d="M646.24 183.00v-58.00"/>
<path class="stroke" stroke-width="1"
	d="M758.24 125.00v-24.00"/>
<path class="stroke" stroke-width="1"
	d="M758.24 183.00v-58.00"/>
<path class="stroke" stroke-width="3"
	d="M860.54 125.00v-24.00"/>
<path class="stroke" stroke-width="1"
	d="M856.04 125.00v-24.00"/>
<use x="852.04" y="125.00" xlink:href="#rdots"/>
<path class="stroke" stroke-width="3"
	d="M860.54 183.00v-58.00"/>
<path class="stroke" stroke-width="1"
	d="M856.04 183.00v-58.00"/>
<use x="852.04" y="183.00" xlink:href="#rdots"/>
<path d="m11.54 125.00
	h850.50
	M11.54 119.00
	h850.50
	M11.54 113.00
	h850.50
	M11.54 107.00
	h850.50
	M11.54 101.00
	h850.50
	" class="stroke"/>
<path d="m11.54 183.00
	h850.50
	M11.54 177.00
	h850.50
	M11.54 171.00
	h850.50
	M11.54 165.00
	h850.50
	M11.54 159.00
	h850.50
	" class="stroke"/>
</g>
<g stroke-width="0.70" transform="scale(0.867)" font-family="Times" font-size="13.00">
<text x="762.24" y="86.40">1</text>
<path class="stroke"
	d="M758.24 75.00m0 20v-20h95.80v20"/>
<defs>
<path id="utclef" class="fill" d="m-50 -90
	c-72 -41 -72 -158 52 -188
	150 -10 220 188 90 256
	-114 52 -275 0 -293 -136
	-15 -181 93 -229 220 -334
	88 -87 79 -133 62 -210
	-51 33 -94 105 -89 186
	17 267 36 374 49 574
	6 96 -19 134 -77 135
	-80 1 -126 -93 -61 -133
	85 -41 133 101 31 105
	23 17 92 37 90 -92
	-10 -223 -39 -342 -50 -617
	0 -90 0 -162 96 -232
	56 72 63 230 22 289
	-74 106 -257 168 -255 316
	9 153 148 185 252 133
	86 -65 29 -192 -80 -176
	-71 12 -105 67 -59 124"/>
<use id="tclef" transform="translate(0,6) scale(0.045)"
	xlink:href="#utclef"/>
</defs>
<use x="23.54" y="119.00" xlink:href="#tclef"/>
<g font-family="serif" font-size="16" font-weight="bold" font-style="normal"
	transform="translate(42.04,124.50) scale(1.2,1)">
	<text text-anchor="middle">8</text>
	<text y="-12" text-anchor="middle">3</text>
</g>
<path class="fill"
	d="M81.04 127.60l48.20 3.20v-3.20l-48.20 -3.20"/>
<use x="84.94" y="98.00" xlink:href="#hd"/>
<path d="M81.44 98.00v28.60" class="stroke"/>
<use x="108.64" y="110.00" xlink:href="#hd"/>
<path d="M105.14 110.00v18.20" class="stroke"/>
<use x="132.44" y="104.00" xlink:href="#hd"/>
<path d="M128.94 104.00v25.80" class="stroke"/>
<path class="fill"
	d="M160.54 123.00l75.00 9.20v-3.20l-75.00 -9.20"/>
<path class="fill"
	d="M184.64 121.00l50.50 6.20v-3.20l-50.50 -6.20"/>
<use x="164.34" y="98.00" xlink:href="#hd"/>
<path d="M160.84 98.00v24.00" class="stroke"/>
<use x="188.14" y="101.00" xlink:href="#hd"/>
<path d="M184.64 101.00v24.00" class="stroke"/>
<use x="204.94" y="104.00" xlink:href="#hd"/>
<path d="M201.44 104.00v23.00" class="stroke"/>
<use x="221.74" y="107.00" xlink:href="#hd"/>
<path d="M218.24 107.00v22.10" class="stroke"/>
<use x="238.64" y="110.00" xlink:href="#hd"/>
<path d="M235.14 110.00v21.20" class="stroke"/>
<path class="fill"
	d="M261.34 129.00l84.90 6.20v-3.20l-84.90 -6.20"/>
<path class="fill"
	d="M261.74 124.10l84.20 6.10v-3.20l-84.20 -6.10"/>
<use x="265.24" y="101.00" xlink:href="#hd"/>
<path d="M261.74 101.00v27.10" class="stroke"/>
<use x="282.04" y="104.00" xlink:href="#hd"/>
<path d="M278.54 104.00v25.30" class="stroke"/>
<use x="298.84" y="101.00" xlink:href="#hd"/>
<path d="M295.34 101.00v29.50" class="stroke"/>
<use x="315.74" y="107.00" xlink:href="#hd"/>
<path d="M312.24 107.00v24.70" class="stroke"/>
<use x="332.54" y="110.00" xlink:href="#hd"/>
<path d="M329.04 110.00v23.00" class="stroke"/>
<use x="349.44" y="113.00" xlink:href="#hd"/>
<path d="M345.94 113.00v21.20" class="stroke"/>
<path class="fill"
	d="M372.14 142.80l68.00 -6.50v-3.20l-68.00 6.50"/>
<path class="fill"
	d="M372.54 137.80l50.50 -4.80v-3.20l-50.50 4.80"/>
<use x="376.04" y="110.00" xlink:href="#hd"/>
<path d="M372.54 110.00v31.80" class="stroke"/>
<use x="392.84" y="119.00" xlink:href="#hd"/>
<path d="M389.34 119.00v21.20" class="stroke"/>
<use x="409.64" y="104.00" xlink:href="#hd"/>
<path d="M406.14 104.00v34.60" class="stroke"/>
<use x="426.54" y="110.00" xlink:href="#hd"/>
<path d="M423.04 110.00v27.00" class="stroke"/>
<use x="443.34" y="98.00" xlink:href="#hd"/>
<path d="M439.84 98.00v37.40" class="stroke"/>
<path class="fill"
	d="M483.64 88.00l48.60 0.00v3.20l-48.60 -0.00"/>
<use x="480.44" y="122.00" xlink:href="#hd"/>
<defs>
<path id="usharp" class="fill" d="
	m136 -702
	v890
	h32
	v-890
	m128 840
	h32
	v-888
	h-32
	m-232 286
	v116
	l338 -96
	v-116
	m-338 442
	v116
	l338 -98
	v-114"/>
<use id="sh0" transform="translate(-4,5) scale(0.018)"
	xlink:href="#usharp"/>
</defs>
<use x="471.44" y="122.00" xlink:href="#sh0"/>
<path d="M483.94 122.00v-33.00" class="stroke"/>
<use x="480.44" y="107.00" xlink:href="#hd"/>
<use x="504.44" y="122.00" xlink:href="#hd"/>
<use x="495.44" y="122.00" xlink:href="#sh0"/>
<path d="M507.94 122.00v-33.00" class="stroke"/>
<use x="504.44" y="107.00" xlink:href="#hd"/>
<use x="528.34" y="122.00" xlink:href="#hd"/>
<use x="519.34" y="122.00" xlink:href="#sh0"/>
<path d="M531.84 122.00v-33.00" class="stroke"/>
<use x="528.34" y="107.00" xlink:href="#hd"/>
<path class="fill"
	d="M556.44 124.00l68.00 8.30v-3.20l-68.00 -8.30"/>
<path class="fill"
	d="M556.84 119.00l50.50 6.10v-3.20l-50.50 -6.10"/>
<use x="560.34" y="98.00" xlink:href="#hd"/>
<path d="M556.84 98.00v25.00" class="stroke"/>
<defs>
<path id="hl" class="stroke" d="m-6 0h12"/>
</defs>
<use x="577.14" y="95.00" xlink:href="#hl"/>
<use x="577.14" y="92.00" xlink:href="#hd"/>
<path d="M573.64 92.00v33.10" class="stroke"/>
<use x="593.94" y="98.00" xlink:href="#hd"/>
<path d="M590.44 98.00v29.10" class="stroke"/>
<use x="610.84" y="107.00" xlink:href="#hd"/>
<path d="M607.34 107.00v22.20" class="stroke"/>
<use x="627.64" y="113.00" xlink:href="#hd"/>
<path d="M624.14 113.00v18.20" class="stroke"/>
<path class="fill"
	d="M655.74 127.00l86.00 0.00v-3.20l-86.00 -0.00"/>
<path class="fill"
	d="M656.14 122.00l85.40 0.00v-3.20l-85.40 -0.00"/>
<use x="659.64" y="104.00" xlink:href="#hd"/>
<path d="M656.14 104.00v22.00" class="stroke"/>
<use x="676.44" y="95.00" xlink:href="#hl"/>
<use x="676.44" y="95.00" xlink:href="#hd"/>
<path d="M672.94 95.00v31.00" class="stroke"/>
<use x="693.34" y="98.00" xlink:href="#hd"/>
<path d="M689.84 98.00v28.00" class="stroke"/>
<use x="710.14" y="95.00" xlink:href="#hl"/>
<use x="710.14" y="92.00" xlink:href="#hd"/>
<path d="M706.64 92.00v34.00" class="stroke"/>
<use x="728.14" y="101.00" xlink:href="#hd"/>
<use x="719.14" y="101.00" xlink:href="#sh0"/>
<path d="M724.64 101.00v25.00" class="stroke"/>
<use x="744.94" y="95.00" xlink:href="#hl"/>
<use x="744.94" y="95.00" xlink:href="#hd"/>
<path d="M741.44 95.00v31.00" class="stroke"/>
<use x="771.54" y="98.00" xlink:href="#hd"/>
<path d="M768.04 98.00v40.00" class="stroke"/>
<use x="771.54" y="119.00" xlink:href="#hd"/>
<use x="771.54" y="113.00" xlink:href="#hd"/>
<use x="771.54" y="107.00" xlink:href="#hd"/>
<defs>
<path id="r8e" class="fill" d="m 0 0
	c-1.5 1.5 -2.4 2 -3.6 2
	2.4 -2.8 -2.8 -4 -2.8 -1.2
	c0 2.7 4.3 2.4 5.9 0.6"/>
<g id="r8">
	<path d="m3.3 -4l-3.4 9.6" class="stroke"/>
	<use x="3.4" y="-4" xlink:href="#r8e"/>
</g>
</defs>
<use x="830.14" y="113.00" xlink:href="#r8"/>
<defs>
<path id="ubclef" class="fill" d="m-200 -87
	c124 -35 222 -78 254 -236
	43 -228 -167 -246 -192 -103
	59 -80 157 22 92 78
	-62 47 -115 -22 -106 -88
	21 -141 270 -136 274 52
	-1 175 -106 264 -322 297
	m357 -250
	c0 -36 51 -34 51 0
	0 37 -51 36 -51 0
	m-2 -129
	c0 -36 51 -34 51 0
	0 38 -51 37 -51 0"/>
<use id="bclef" transform="translate(0,18) scale(0.045)"
	xlink:href="#ubclef"/>
</defs>
<use x="23.54" y="165.00" xlink:href="#bclef"/>
<g font-family="serif" font-size="16" font-weight="bold" font-style="normal"
	transform="translate(42.04,182.50) scale(1.2,1)">
	<text text-anchor="middle">8</text>
	<text y="-12" text-anchor="middle">3</text>
</g>
<use x="84.94" y="168.00" xlink:href="#hd"/>
<path d="M81.44 168.00v25.00" class="stroke"/>
<use x="84.94" y="174.00" xlink:href="#hd"/>
<use x="132.44" y="171.00" xlink:href="#r8"/>
<use x="164.34" y="168.00" xlink:href="#hd"/>
<path d="M160.84 168.00v25.00" class="stroke"/>
<use x="164.34" y="174.00" xlink:href="#hd"/>
<use x="221.74" y="171.00" xlink:href="#r8"/>
<use x="265.24" y="156.00" xlink:href="#hd"/>
<path d="M261.74 156.00v25.00" class="stroke"/>
<use x="265.24" y="162.00" xlink:href="#hd"/>
<use x="332.54" y="171.00" xlink:href="#r8"/>
<use x="376.04" y="162.00" xlink:href="#hd"/>
<path d="M372.54 162.00v25.00" class="stroke"/>
<use x="376.04" y="168.00" xlink:href="#hd"/>
<use x="443.34" y="171.00" xlink:href="#r8"/>
<path class="fill"
	d="M483.64 153.00l48.60 0.00v3.20l-48.60 -0.00"/>
<use x="480.44" y="174.00" xlink:href="#hd"/>
<path d="M483.94 174.00v-20.00" class="stroke"/>
<use x="504.44" y="174.00" xlink:href="#hd"/>
<path d="M507.94 174.00v-20.00" class="stroke"/>
<use x="528.34" y="174.00" xlink:href="#hd"/>
<path d="M531.84 174.00v-20.00" class="stroke"/>
<use x="560.34" y="177.00" xlink:href="#hd"/>
<path d="M563.84 177.00v-25.00" class="stroke"/>
<use x="560.34" y="171.00" xlink:href="#hd"/>
<use x="627.64" y="171.00" xlink:href="#r8"/>
<path class="fill"
	d="M662.74 147.70l69.20 8.30v3.20l-69.20 -8.30"/>
<use x="659.64" y="174.00" xlink:href="#hd"/>
<path d="M663.14 174.00v-25.30" class="stroke"/>
<use x="693.34" y="171.00" xlink:href="#hd"/>
<path d="M696.84 171.00v-18.20" class="stroke"/>
<use x="728.14" y="189.00" xlink:href="#hl"/>
<use x="728.14" y="192.00" xlink:href="#hd"/>
<path d="M731.64 192.00v-35.00" class="stroke"/>
<path class="fill"
	d="M767.74 202.20l76.10 0.00v-3.20l-76.10 -0.00"/>
<path class="fill"
	d="M791.84 197.20l51.70 0.00v-3.20l-51.70 -0.00"/>
<use x="771.54" y="183.00" xlink:href="#hd"/>
<path d="M768.04 183.00v18.20" class="stroke"/>
<use x="795.34" y="162.00" xlink:href="#hd"/>
<path d="M791.84 162.00v39.20" class="stroke"/>
<use x="813.34" y="165.00" xlink:href="#hd"/>
<defs>
<path id="unat" class="fill" d="
	m96 -750
	h-32
	v716
	l32 -8
	182 -54
	v282
	h32
	v-706
	l-34 10
	-180 50
	v-290
	m0 592
	v-190
	l182 -52
	v188"/>
<use id="nt0" transform="translate(-3,5) scale(0.018)"
	xlink:href="#unat"/>
</defs>
<use x="804.34" y="165.00" xlink:href="#nt0"/>
<path d="M809.84 165.00v36.20" class="stroke"/>
<use x="830.14" y="168.00" xlink:href="#hd"/>
<path d="M826.64 168.00v33.20" class="stroke"/>
<use x="847.04" y="171.00" xlink:href="#hd"/>
<path d="M843.54 171.00v30.20" class="stroke"/>
</g>
<g stroke-width="0.70" transform="scale(0.867)" font-family="Times" font-size="13.00">
<path class="stroke" stroke-width="1"
	d="M11.54 316.00v-82.00"/>
<path class="fill"
	d="M6.54 231.00
	c10.5 1 12 -4.5 12 -3.5c0 1 -3.5 5.5 -8.5 5.5
	v84.00
	c5 0 8.5 4.5 8.5 5.5c0 1 -1.5 -4.5 -12 -3.5"/>
<use x="143.84" y="258.00" xlink:href="#rdots"/>
<path class="stroke" stroke-width="1"
	d="M139.84 258.00v-24.00"/>
<path class="stroke" stroke-width="3"
	d="M135.34 258.00v-24.00"/>
<use x="143.84" y="316.00" xlink:href="#rdots"/>
<path class="stroke" stroke-width="1"
	d="M139.84 316.00v-58.00"/>
<path class="stroke" stroke-width="3"
	d="M135.34 316.00v-58.00"/>
<path class="stroke" stroke-width="1"
	d="M241.04 258.00v-24.00"/>
<path class="stroke" stroke-width="1"
	d="M241.04 316.00v-58.00"/>
<path class="stroke" stroke-width="1"
	d="M320.84 258.00v-24.00"/>
<path class="stroke" stroke-width="1"
	d="M320.84 316.00v-58.00"/>
<path class="stroke" stroke-width="1"
	d="M410.94 258.00v-24.00"/>
<path class="stroke" stroke-width="1"
	d="M410.94 316.00v-58.00"/>
<path class="stroke" stroke-width="1"
	d="M490.34 258.00v-24.00"/>
<path class="stroke" stroke-width="1"
	d="M490.34 316.00v-58.00"/>
<path class="stroke" stroke-width="1"
	d="M589.44 258.00v-24.00"/>
<path class="stroke" stroke-width="1"
	d="M589.44 316.00v-58.00"/>
<path class="stroke" stroke-width="1"
	d="M688.54 258.00v-24.00"/>
<path class="stroke" stroke-width="1"
	d="M688.54 316.00v-58.00"/>
<path class="stroke" stroke-width="1"
	d="M787.64 258.00v-24.00"/>
<path class="stroke" stroke-width="1"
	d="M787.64 316.00v-58.00"/>
<path class="stroke" stroke-width="3"
	d="M860.54 258.00v-24.00"/>
<path class="stroke" stroke-width="1"
	d="M856.04 258.00v-24.00"/>
<use x="852.04" y="258.00" xlink:href="#rdots"/>
<path class="stroke" stroke-width="3"
	d="M860.54 316.00v-58.00"/>
<path class="stroke" stroke-width="1"
	d="M856.04 316.00v-58.00"/>
<use x="852.04" y="316.00" xlink:href="#rdots"/>
<path d="m11.54 258.00
	h850.50
	M11.54 252.00
	h850.50
	M11.54 246.00
	h850.50
	M11.54 240.00
	h850.50
	M11.54 234.00
	h850.50
	" class="stroke"/>
<path d="m11.54 316.00
	h850.50
	M11.54 310.00
	h850.50
	M11.54 304.00
	h850.50
	M11.54 298.00
	h850.50
	M11.54 292.00
	h850.50
	" class="stroke"/>
<text x="47.54" y="219.40">2</text>
<path class="stroke"
	d="M43.54 208.00m0 20v-20h89.30v20"/>
<use x="23.54" y="252.00" xlink:href="#tclef"/>
<use x="56.04" y="231.00" xlink:href="#hd"/>
<path d="M52.54 231.00v40.00" class="stroke"/>
<use x="56.04" y="252.00" xlink:href="#hd"/>
<use x="56.04" y="246.00" xlink:href="#hd"/>
<use x="56.04" y="240.00" xlink:href="#hd"/>
<use x="109.54" y="246.00" xlink:href="#r8"/>
<path class="fill"
	d="M159.54 260.00l65.80 0.00v-3.20l-65.80 -0.00"/>
<path class="fill"
	d="M180.54 255.00l44.50 0.00v-3.20l-44.50 -0.00"/>
<use x="163.34" y="234.00" xlink:href="#hd"/>
<use x="154.34" y="234.00" xlink:href="#sh0"/>
<path d="M159.84 234.00v25.00" class="stroke"/>
<use x="184.04" y="228.00" xlink:href="#hl"/>
<use x="184.04" y="228.00" xlink:href="#hd"/>
<path d="M180.54 228.00v31.00" class="stroke"/>
<use x="198.84" y="234.00" xlink:href="#hd"/>
<path d="M195.34 234.00v25.00" class="stroke"/>
<use x="213.64" y="240.00" xlink:href="#hd"/>
<path d="M210.14 240.00v19.00" class="stroke"/>
<use x="228.54" y="234.00" xlink:href="#hd"/>
<path d="M225.04 234.00v25.00" class="stroke"/>
<path class="fill"
	d="M249.64 262.70l51.00 8.60v-3.20l-51.00 -8.60"/>
<path class="fill"
	d="M270.74 261.20l14.80 2.50v-3.20l-14.80 -2.50"/>
<use x="253.54" y="231.00" xlink:href="#hd"/>
<path d="M250.04 231.00v30.80" class="stroke"/>
<use x="274.24" y="240.00" xlink:href="#hd"/>
<path d="M270.74 240.00v25.20" class="stroke"/>
<use x="289.04" y="246.00" xlink:href="#hd"/>
<path d="M285.54 246.00v21.70" class="stroke"/>
<use x="303.84" y="252.00" xlink:href="#hd"/>
<path d="M300.34 252.00v18.20" class="stroke"/>
<path class="fill"
	d="M329.54 267.50l65.80 -7.30v-3.20l-65.80 7.30"/>
<path class="fill"
	d="M350.54 260.20l44.50 -4.90v-3.20l-44.50 4.90"/>
<use x="333.34" y="237.00" xlink:href="#hd"/>
<path d="M329.84 237.00v29.50" class="stroke"/>
<use x="354.04" y="243.00" xlink:href="#hd"/>
<path d="M350.54 243.00v21.20" class="stroke"/>
<use x="368.84" y="237.00" xlink:href="#hd"/>
<path d="M365.34 237.00v25.60" class="stroke"/>
<use x="383.64" y="231.00" xlink:href="#hd"/>
<path d="M380.14 231.00v29.90" class="stroke"/>
<use x="398.44" y="228.00" xlink:href="#hl"/>
<use x="398.44" y="222.00" xlink:href="#hl"/>
<use x="398.44" y="222.00" xlink:href="#hd"/>
<path d="M394.94 222.00v37.30" class="stroke"/>
<path class="fill"
	d="M419.64 264.20l51.00 0.00v-3.20l-51.00 -0.00"/>
<path class="fill"
	d="M440.64 259.20l14.80 0.00v-3.20l-14.80 -0.00"/>
<use x="423.44" y="240.00" xlink:href="#hd"/>
<path d="M419.94 240.00v23.20" class="stroke"/>
<use x="423.44" y="246.00" xlink:href="#hd"/>
<use x="444.14" y="231.00" xlink:href="#hd"/>
<path d="M440.64 231.00v32.20" class="stroke"/>
<use x="458.94" y="228.00" xlink:href="#hl"/>
<use x="458.94" y="225.00" xlink:href="#hd"/>
<path d="M455.44 225.00v38.20" class="stroke"/>
<use x="473.84" y="240.00" xlink:href="#hd"/>
<path d="M470.34 240.00v23.20" class="stroke"/>
<path class="fill"
	d="M499.04 260.60l60.00 3.20v-3.20l-60.00 -3.20"/>
<use x="502.84" y="231.00" xlink:href="#hd"/>
<path d="M499.34 231.00v28.60" class="stroke"/>
<use x="532.44" y="243.00" xlink:href="#hd"/>
<path d="M528.94 243.00v18.20" class="stroke"/>
<use x="562.14" y="237.00" xlink:href="#hd"/>
<path d="M558.64 237.00v25.80" class="stroke"/>
<path class="fill"
	d="M598.14 275.50l74.80 -6.30v-3.20l-74.80 6.30"/>
<path class="fill"
	d="M598.44 270.40l74.10 -6.20v-3.20l-74.10 6.20"/>
<use x="601.94" y="243.00" xlink:href="#hd"/>
<path d="M598.44 243.00v31.40" class="stroke"/>
<use x="616.74" y="252.00" xlink:href="#hd"/>
<path d="M613.24 252.00v21.20" class="stroke"/>
<use x="631.64" y="237.00" xlink:href="#hd"/>
<path d="M628.14 237.00v35.00" class="stroke"/>
<use x="646.44" y="243.00" xlink:href="#hd"/>
<path d="M642.94 243.00v27.70" class="stroke"/>
<use x="661.24" y="231.00" xlink:href="#hd"/>
<path d="M657.74 231.00v38.50" class="stroke"/>
<use x="676.04" y="237.00" xlink:href="#hd"/>
<path d="M672.54 237.00v31.20" class="stroke"/>
<path class="fill"
	d="M697.24 271.20l74.80 0.00v-3.20l-74.80 -0.00"/>
<path class="fill"
	d="M697.54 266.20l74.10 0.00v-3.20l-74.10 -0.00"/>
<use x="701.04" y="240.00" xlink:href="#hd"/>
<path d="M697.54 240.00v30.20" class="stroke"/>
<use x="715.94" y="234.00" xlink:href="#hd"/>
<path d="M712.44 234.00v36.20" class="stroke"/>
<use x="730.74" y="249.00" xlink:href="#hd"/>
<path d="M727.24 249.00v21.20" class="stroke"/>
<use x="745.54" y="240.00" xlink:href="#hd"/>
<path d="M742.04 240.00v30.20" class="stroke"/>
<use x="760.34" y="246.00" xlink:href="#hd"/>
<path d="M756.84 246.00v24.20" class="stroke"/>
<use x="775.14" y="240.00" xlink:href="#hd"/>
<path d="M771.64 240.00v30.20" class="stroke"/>
<use x="800.14" y="243.00" xlink:href="#hd"/>
<path d="M796.64 243.00v21.00" class="stroke"/>
<use x="841.54" y="246.00" xlink:href="#r8"/>
<use x="23.54" y="298.00" xlink:href="#bclef"/>
<path class="fill"
	d="M52.24 335.20l69.00 -5.00v-3.20l-69.00 5.00"/>
<path class="fill"
	d="M73.24 328.70l47.60 -3.50v-3.20l-47.60 3.50"/>
<use x="56.04" y="316.00" xlink:href="#hd"/>
<path d="M52.54 316.00v18.20" class="stroke"/>
<use x="76.74" y="289.00" xlink:href="#hd"/>
<path d="M73.24 289.00v43.70" class="stroke"/>
<use x="91.54" y="295.00" xlink:href="#hd"/>
<path d="M88.04 295.00v36.60" class="stroke"/>
<use x="109.54" y="298.00" xlink:href="#hd"/>
<use x="100.54" y="298.00" xlink:href="#sh0"/>
<path d="M106.04 298.00v32.30" class="stroke"/>
<use x="124.34" y="301.00" xlink:href="#hd"/>
<path d="M120.84 301.00v28.20" class="stroke"/>
<use x="163.34" y="304.00" xlink:href="#hd"/>
<path d="M166.84 304.00v-21.00" class="stroke"/>
<use x="213.64" y="307.00" xlink:href="#hd"/>
<path d="M217.14 307.00v-21.00" class="stroke"/>
<path class="fill"
	d="M217.14 286.00c0.6 5.6 9.6 9 5.6 18.4
	1.6 -6 -1.3 -11.6 -5.6 -12.8
"/>
<use x="253.54" y="310.00" xlink:href="#hd"/>
<path d="M257.04 310.00v-25.00" class="stroke"/>
<use x="253.54" y="304.00" xlink:href="#hd"/>
<use x="303.84" y="310.00" xlink:href="#hd"/>
<path d="M307.34 310.00v-25.00" class="stroke"/>
<path class="fill"
	d="M307.34 285.00c0.6 5.6 9.6 9 5.6 18.4
	1.6 -6 -1.3 -11.6 -5.6 -12.8
"/>
<use x="303.84" y="304.00" xlink:href="#hd"/>
<use x="333.34" y="295.00" xlink:href="#hd"/>
<path d="M329.84 295.00v31.00" class="stroke"/>
<use x="333.34" y="307.00" xlink:href="#hd"/>
<use x="383.64" y="301.00" xlink:href="#hd"/>
<path d="M380.14 301.00v25.00" class="stroke"/>
<path class="fill"
	d="M380.14 326.00c0.6 -5.6 9.6 -9 5.6 -18.4
	1.6 6 -1.3 11.6 -5.6 12.8
"/>
<use x="383.64" y="307.00" xlink:href="#hd"/>
<use x="423.44" y="316.00" xlink:href="#hd"/>
<path d="M426.94 316.00v-40.00" class="stroke"/>
<use x="423.44" y="295.00" xlink:href="#hd"/>
<use x="473.84" y="295.00" xlink:href="#hd"/>
<path d="M470.34 295.00v21.00" class="stroke"/>
<path class="fill"
	d="M470.34 316.00c0.6 -5.6 9.6 -9 5.6 -18.4
	1.6 6 -1.3 11.6 -5.6 12.8
"/>
<path class="fill"
	d="M499.04 323.90l74.80 0.00v-3.20l-74.80 -0.00"/>
<path class="fill"
	d="M499.34 318.90l74.10 0.00v-3.20l-74.10 -0.00"/>
<use x="502.84" y="301.00" xlink:href="#hd"/>
<path d="M499.34 301.00v21.90" class="stroke"/>
<use x="502.84" y="307.00" xlink:href="#hd"/>
<use x="517.64" y="295.00" xlink:href="#hd"/>
<path d="M514.14 295.00v27.90" class="stroke"/>
<use x="532.44" y="301.00" xlink:href="#hd"/>
<path d="M528.94 301.00v21.90" class="stroke"/>
<use x="532.44" y="307.00" xlink:href="#hd"/>
<use x="547.34" y="295.00" xlink:href="#hd"/>
<path d="M543.84 295.00v27.90" class="stroke"/>
<use x="562.14" y="301.00" xlink:href="#hd"/>
<path d="M558.64 301.00v21.90" class="stroke"/>
<use x="562.14" y="307.00" xlink:href="#hd"/>
<use x="576.94" y="295.00" xlink:href="#hd"/>
<path d="M573.44 295.00v27.90" class="stroke"/>
<use x="601.94" y="301.00" xlink:href="#hd"/>
<path d="M598.44 301.00v25.00" class="stroke"/>
<use x="601.94" y="307.00" xlink:href="#hd"/>
<use x="661.24" y="304.00" xlink:href="#r8"/>
<use x="701.04" y="298.00" xlink:href="#hd"/>
<path d="M697.54 298.00v21.00" class="stroke"/>
<use x="760.34" y="295.00" xlink:href="#hd"/>
<path d="M756.84 295.00v21.00" class="stroke"/>
<path class="fill"
	d="M756.84 316.00c0.6 -5.6 9.6 -9 5.6 -18.4
	1.6 6 -1.3 11.6 -5.6 12.8
"/>
<path class="fill"
	d="M803.34 287.70l42.00 9.80v3.20l-42.00 -9.80"/>
<use x="800.14" y="307.00" xlink:href="#hd"/>
<path d="M803.64 307.00v-18.20" class="stroke"/>
<use x="820.84" y="316.00" xlink:href="#hd"/>
<path d="M824.34 316.00v-22.40" class="stroke"/>
<use x="841.54" y="322.00" xlink:href="#hl"/>
<use x="841.54" y="328.00" xlink:href="#hl"/>
<use x="841.54" y="328.00" xlink:href="#hd"/>
<path d="M845.04 328.00v-29.60" class="stroke"/>
</g>
</svg>
