<?xml version="1.0" standalone="no"?>
<!DOCTYPE svg PUBLIC "-//W3C//DTD SVG 1.1//EN"
	"http://www.w3.org/Graphics/SVG/1.1/DTD/svg11.dtd">
<svg xmlns="http://www.w3.org/2000/svg" version="1.1"
	xmlns:xlink="http://www.w3.org/1999/xlink"
	color="black"
	width="757.10px" height="300.73px">
<style type="text/css">
.fill {fill: currentColor}
.stroke {stroke: currentColor; fill: none}
text{white-space: pre}
</style>
<title>./K516f-6-4-6-2-8-11-3-6-3-2-3-8-4-3-3-8.abc (3838) tune 1</title>
<!-- Creator: abcm2ps-8.13.8 -->
<!-- CreationDate: Sep  7, 2017 11:20 -->
<!-- CommandLine: ./K516f-6-4-6-2-8-11-3-6-3-2-3-8-4-3-3-8.abc -O ./K516f-6-4-6-2-8-11-3-6-3-2-3-8-4-3-3-8.svg -g -->
<rect width="100%" height="100%" fill="white"/>
<g stroke-width="0.70" transform="scale(0.867)">
<!-- title: 6-4-6-2-8-11-3-6-3-2-3-8-4-3-3-8 -->
</g>
<g stroke-width="0.70" transform="scale(0.867)" font-family="Times" font-size="20.00">
<text x="436.84" y="22.00" text-anchor="middle">6-4-6-2-8-11-3-6-3-2-3-8-4-3-3-8</text>
</g>
<g stroke-width="0.70" transform="scale(0.867)" font-family="Times" font-size="20.00">
<!-- subtitle: $1K.516f::148:95:163:41:99:47:134:107:117:121:126:175:73:18:116:172::$0 -->
</g>
<g stroke-width="0.70" transform="scale(0.867)" font-family="Courier" font-size="8.00" font-weight="bold">
<text x="436.84" y="41.80" text-anchor="middle">K.516f::148:95:163:41:99:47:134:107:117:121:126:175:73:18:116:172::</text>
</g>
<g stroke-width="0.70" transform="scale(0.867)" font-family="Courier" font-size="8.00" font-weight="bold">
<!-- subtitle: $1Perm. No.: 38389769153719$0 -->
<text x="436.84" y="60.80" text-anchor="middle">Perm. No.: 38389769153719</text>
</g>
<g stroke-width="0.70" transform="scale(0.607)" font-family="Courier" font-size="8.00" font-weight="bold">
<defs>
<ellipse id="hd" rx="4.1" ry="2.9"
	transform="rotate(-20)" class="fill"/>
</defs>
<use x="103.06" y="121.29" xlink:href="#hd"/>
<path d="M106.56 121.29v-21.00" class="stroke"/>
<path class="fill"
	d="M106.56 100.29c0.6 5.6 9.6 9 5.6 18.4
	1.6 -6 -1.3 -11.6 -5.6 -12.8
"/>
</g>
<g stroke-width="0.70" transform="scale(0.867)" font-family="Times" font-size="15.00" font-weight="bold">
<text x="81.24" y="87.00">= 111</text>
<path class="stroke" stroke-width="1"
	d="M11.54 191.00v-82.00"/>
<path class="fill"
	d="M6.54 106.00
	c10.5 1 12 -4.5 12 -3.5c0 1 -3.5 5.5 -8.5 5.5
	v84.00
	c5 0 8.5 4.5 8.5 5.5c0 1 -1.5 -4.5 -12 -3.5"/>
<defs>
<g id="rdots" class="fill">
	<circle cx="0" cy="-9" r="1.2"/>
	<circle cx="0" cy="-15" r="1.2"/>
</g>
</defs>
<use x="70.54" y="133.00" xlink:href="#rdots"/>
<path class="stroke" stroke-width="1"
	d="M66.54 133.00v-24.00"/>
<path class="stroke" stroke-width="3"
	d="M62.04 133.00v-24.00"/>
<use x="70.54" y="191.00" xlink:href="#rdots"/>
<path class="stroke" stroke-width="1"
	d="M66.54 191.00v-58.00"/>
<path class="stroke" stroke-width="3"
	d="M62.04 191.00v-58.00"/>
<path class="stroke" stroke-width="1"
	d="M182.24 133.00v-24.00"/>
<path class="stroke" stroke-width="1"
	d="M182.24 191.00v-58.00"/>
<path class="stroke" stroke-width="1"
	d="M261.64 133.00v-24.00"/>
<path class="stroke" stroke-width="1"
	d="M261.64 191.00v-58.00"/>
<path class="stroke" stroke-width="1"
	d="M373.44 133.00v-24.00"/>
<path class="stroke" stroke-width="1"
	d="M373.44 191.00v-58.00"/>
<path class="stroke" stroke-width="1"
	d="M472.64 133.00v-24.00"/>
<path class="stroke" stroke-width="1"
	d="M472.64 191.00v-58.00"/>
<path class="stroke" stroke-width="1"
	d="M557.14 133.00v-24.00"/>
<path class="stroke" stroke-width="1"
	d="M557.14 191.00v-58.00"/>
<path class="stroke" stroke-width="1"
	d="M646.44 133.00v-24.00"/>
<path class="stroke" stroke-width="1"
	d="M646.44 191.00v-58.00"/>
<path class="stroke" stroke-width="1"
	d="M758.34 133.00v-24.00"/>
<path class="stroke" stroke-width="1"
	d="M758.34 191.00v-58.00"/>
<path class="stroke" stroke-width="3"
	d="M860.54 133.00v-24.00"/>
<path class="stroke" stroke-width="1"
	d="M856.04 133.00v-24.00"/>
<use x="852.04" y="133.00" xlink:href="#rdots"/>
<path class="stroke" stroke-width="3"
	d="M860.54 191.00v-58.00"/>
<path class="stroke" stroke-width="1"
	d="M856.04 191.00v-58.00"/>
<use x="852.04" y="191.00" xlink:href="#rdots"/>
<path d="m11.54 133.00
	h850.50
	M11.54 127.00
	h850.50
	M11.54 121.00
	h850.50
	M11.54 115.00
	h850.50
	M11.54 109.00
	h850.50
	" class="stroke"/>
<path d="m11.54 191.00
	h850.50
	M11.54 185.00
	h850.50
	M11.54 179.00
	h850.50
	M11.54 173.00
	h850.50
	M11.54 167.00
	h850.50
	" class="stroke"/>
</g>
<g stroke-width="0.70" transform="scale(0.867)" font-family="Times" font-size="13.00">
<text x="762.34" y="94.40">1</text>
<path class="stroke"
	d="M758.34 83.00m0 20v-20h95.70v20"/>
<defs>
<path id="utclef" class="fill" d="m-50 -90
	c-72 -41 -72 -158 52 -188
	150 -10 220 188 90 256
	-114 52 -275 0 -293 -136
	-15 -181 93 -229 220 -334
	88 -87 79 -133 62 -210
	-51 33 -94 105 -89 186
	17 267 36 374 49 574
	6 96 -19 134 -77 135
	-80 1 -126 -93 -61 -133
	85 -41 133 101 31 105
	23 17 92 37 90 -92
	-10 -223 -39 -342 -50 -617
	0 -90 0 -162 96 -232
	56 72 63 230 22 289
	-74 106 -257 168 -255 316
	9 153 148 185 252 133
	86 -65 29 -192 -80 -176
	-71 12 -105 67 -59 124"/>
<use id="tclef" transform="translate(0,6) scale(0.045)"
	xlink:href="#utclef"/>
</defs>
<use x="23.54" y="127.00" xlink:href="#tclef"/>
<g font-family="serif" font-size="16" font-weight="bold" font-style="normal"
	transform="translate(42.04,132.50) scale(1.2,1)">
	<text text-anchor="middle">8</text>
	<text y="-12" text-anchor="middle">3</text>
</g>
<path class="fill"
	d="M81.04 130.60l84.90 9.60v-3.20l-84.90 -9.60"/>
<path class="fill"
	d="M81.44 125.70l84.20 9.50v-3.20l-84.20 -9.50"/>
<defs>
<path id="hl" class="stroke" d="m-6 0h12"/>
</defs>
<use x="84.94" y="103.00" xlink:href="#hl"/>
<use x="84.94" y="97.00" xlink:href="#hl"/>
<use x="84.94" y="97.00" xlink:href="#hd"/>
<path d="M81.44 97.00v32.70" class="stroke"/>
<use x="101.74" y="103.00" xlink:href="#hl"/>
<use x="101.74" y="100.00" xlink:href="#hd"/>
<path d="M98.24 100.00v31.60" class="stroke"/>
<use x="118.64" y="103.00" xlink:href="#hl"/>
<use x="118.64" y="97.00" xlink:href="#hl"/>
<use x="118.64" y="97.00" xlink:href="#hd"/>
<path d="M115.14 97.00v36.50" class="stroke"/>
<use x="135.44" y="106.00" xlink:href="#hd"/>
<path d="M131.94 106.00v29.40" class="stroke"/>
<use x="152.24" y="112.00" xlink:href="#hd"/>
<path d="M148.74 112.00v25.30" class="stroke"/>
<use x="169.04" y="118.00" xlink:href="#hd"/>
<path d="M165.54 118.00v21.20" class="stroke"/>
<path class="fill"
	d="M191.84 129.20l48.10 8.10v-3.20l-48.10 -8.10"/>
<use x="195.64" y="106.00" xlink:href="#hd"/>
<path d="M192.14 106.00v22.20" class="stroke"/>
<use x="219.34" y="112.00" xlink:href="#hd"/>
<path d="M215.84 112.00v20.20" class="stroke"/>
<use x="243.04" y="118.00" xlink:href="#hd"/>
<path d="M239.54 118.00v18.20" class="stroke"/>
<path class="fill"
	d="M271.14 139.30l86.00 10.00v-3.20l-86.00 -10.00"/>
<path class="fill"
	d="M271.44 134.30l85.30 9.90v-3.20l-85.30 -9.90"/>
<use x="274.94" y="106.00" xlink:href="#hd"/>
<path d="M271.44 106.00v32.30" class="stroke"/>
<use x="292.94" y="109.00" xlink:href="#hd"/>
<defs>
<path id="usharp" class="fill" d="
	m136 -702
	v890
	h32
	v-890
	m128 840
	h32
	v-888
	h-32
	m-232 286
	v116
	l338 -96
	v-116
	m-338 442
	v116
	l338 -98
	v-114"/>
<use id="sh0" transform="translate(-4,5) scale(0.018)"
	xlink:href="#usharp"/>
</defs>
<use x="283.94" y="109.00" xlink:href="#sh0"/>
<path d="M289.44 109.00v31.40" class="stroke"/>
<use x="309.84" y="106.00" xlink:href="#hd"/>
<path d="M306.34 106.00v36.30" class="stroke"/>
<use x="326.64" y="115.00" xlink:href="#hd"/>
<path d="M323.14 115.00v29.30" class="stroke"/>
<use x="343.44" y="121.00" xlink:href="#hd"/>
<path d="M339.94 121.00v25.20" class="stroke"/>
<use x="360.24" y="127.00" xlink:href="#hd"/>
<path d="M356.74 127.00v21.20" class="stroke"/>
<path class="fill"
	d="M383.04 146.20l68.00 0.00v-3.20l-68.00 -0.00"/>
<path class="fill"
	d="M383.34 141.20l50.50 0.00v-3.20l-50.50 -0.00"/>
<use x="386.84" y="118.00" xlink:href="#hd"/>
<path d="M383.34 118.00v27.20" class="stroke"/>
<use x="403.64" y="121.00" xlink:href="#hd"/>
<path d="M400.14 121.00v24.20" class="stroke"/>
<use x="420.44" y="118.00" xlink:href="#hd"/>
<path d="M416.94 118.00v27.20" class="stroke"/>
<use x="437.34" y="112.00" xlink:href="#hd"/>
<path d="M433.84 112.00v33.20" class="stroke"/>
<use x="454.14" y="127.00" xlink:href="#hd"/>
<path d="M450.64 127.00v18.20" class="stroke"/>
<path class="fill"
	d="M487.34 131.10l48.10 3.20v-3.20l-48.10 -3.20"/>
<use x="491.14" y="109.00" xlink:href="#hd"/>
<use x="482.14" y="109.00" xlink:href="#sh0"/>
<path d="M487.64 109.00v21.10" class="stroke"/>
<use x="514.94" y="103.00" xlink:href="#hl"/>
<use x="514.94" y="103.00" xlink:href="#hd"/>
<path d="M511.44 103.00v28.60" class="stroke"/>
<use x="538.64" y="115.00" xlink:href="#hd"/>
<path d="M535.14 115.00v18.20" class="stroke"/>
<path class="fill"
	d="M566.74 134.90l58.00 0.00v-3.20l-58.00 -0.00"/>
<path class="fill"
	d="M590.74 129.90l16.80 0.00v-3.20l-16.80 -0.00"/>
<use x="570.54" y="106.00" xlink:href="#hd"/>
<path d="M567.04 106.00v28.00" class="stroke"/>
<use x="594.24" y="106.00" xlink:href="#hd"/>
<path d="M590.74 106.00v28.00" class="stroke"/>
<use x="611.04" y="115.00" xlink:href="#hd"/>
<path d="M607.54 115.00v19.00" class="stroke"/>
<use x="627.84" y="103.00" xlink:href="#hl"/>
<use x="627.84" y="100.00" xlink:href="#hd"/>
<path d="M624.34 100.00v34.00" class="stroke"/>
<path class="fill"
	d="M655.94 148.20l86.00 0.00v-3.20l-86.00 -0.00"/>
<path class="fill"
	d="M656.34 143.20l85.30 0.00v-3.20l-85.30 -0.00"/>
<use x="659.84" y="124.00" xlink:href="#hd"/>
<path d="M656.34 124.00v23.20" class="stroke"/>
<use x="676.64" y="112.00" xlink:href="#hd"/>
<path d="M673.14 112.00v35.20" class="stroke"/>
<use x="693.44" y="115.00" xlink:href="#hd"/>
<path d="M689.94 115.00v32.20" class="stroke"/>
<use x="693.44" y="121.00" xlink:href="#hd"/>
<use x="710.24" y="118.00" xlink:href="#hd"/>
<path d="M706.74 118.00v29.20" class="stroke"/>
<use x="710.24" y="124.00" xlink:href="#hd"/>
<use x="727.04" y="121.00" xlink:href="#hd"/>
<path d="M723.54 121.00v26.20" class="stroke"/>
<use x="727.04" y="127.00" xlink:href="#hd"/>
<use x="745.04" y="124.00" xlink:href="#hd"/>
<path d="M741.54 124.00v23.20" class="stroke"/>
<use x="745.04" y="130.00" xlink:href="#hd"/>
<use x="736.04" y="130.00" xlink:href="#sh0"/>
<use x="771.64" y="106.00" xlink:href="#hd"/>
<path d="M768.14 106.00v40.00" class="stroke"/>
<use x="771.64" y="127.00" xlink:href="#hd"/>
<use x="771.64" y="121.00" xlink:href="#hd"/>
<use x="771.64" y="115.00" xlink:href="#hd"/>
<defs>
<path id="r8e" class="fill" d="m 0 0
	c-1.5 1.5 -2.4 2 -3.6 2
	2.4 -2.8 -2.8 -4 -2.8 -1.2
	c0 2.7 4.3 2.4 5.9 0.6"/>
<g id="r8">
	<path d="m3.3 -4l-3.4 9.6" class="stroke"/>
	<use x="3.4" y="-4" xlink:href="#r8e"/>
</g>
</defs>
<use x="830.14" y="121.00" xlink:href="#r8"/>
<defs>
<path id="ubclef" class="fill" d="m-200 -87
	c124 -35 222 -78 254 -236
	43 -228 -167 -246 -192 -103
	59 -80 157 22 92 78
	-62 47 -115 -22 -106 -88
	21 -141 270 -136 274 52
	-1 175 -106 264 -322 297
	m357 -250
	c0 -36 51 -34 51 0
	0 37 -51 36 -51 0
	m-2 -129
	c0 -36 51 -34 51 0
	0 38 -51 37 -51 0"/>
<use id="bclef" transform="translate(0,18) scale(0.045)"
	xlink:href="#ubclef"/>
</defs>
<use x="23.54" y="173.00" xlink:href="#bclef"/>
<g font-family="serif" font-size="16" font-weight="bold" font-style="normal"
	transform="translate(42.04,190.50) scale(1.2,1)">
	<text text-anchor="middle">8</text>
	<text y="-12" text-anchor="middle">3</text>
</g>
<use x="84.94" y="176.00" xlink:href="#hd"/>
<path d="M81.44 176.00v25.00" class="stroke"/>
<use x="84.94" y="182.00" xlink:href="#hd"/>
<use x="152.24" y="179.00" xlink:href="#r8"/>
<use x="195.64" y="176.00" xlink:href="#hd"/>
<path d="M199.14 176.00v-21.00" class="stroke"/>
<use x="243.04" y="179.00" xlink:href="#r8"/>
<use x="274.94" y="185.00" xlink:href="#hd"/>
<path d="M278.44 185.00v-25.00" class="stroke"/>
<use x="274.94" y="179.00" xlink:href="#hd"/>
<use x="343.44" y="179.00" xlink:href="#r8"/>
<use x="386.84" y="176.00" xlink:href="#hd"/>
<path d="M383.34 176.00v25.00" class="stroke"/>
<use x="386.84" y="182.00" xlink:href="#hd"/>
<use x="454.14" y="179.00" xlink:href="#r8"/>
<use x="491.14" y="167.00" xlink:href="#hd"/>
<path d="M487.64 167.00v34.00" class="stroke"/>
<use x="491.14" y="182.00" xlink:href="#hd"/>
<use x="538.64" y="167.00" xlink:href="#hd"/>
<path d="M535.14 167.00v34.00" class="stroke"/>
<path class="fill"
	d="M535.14 201.00c0.6 -5.6 9.6 -9 5.6 -18.4
	1.6 6 -1.3 11.6 -5.6 12.8
"/>
<use x="538.64" y="182.00" xlink:href="#hd"/>
<use x="570.54" y="185.00" xlink:href="#hd"/>
<path d="M574.04 185.00v-25.00" class="stroke"/>
<use x="570.54" y="179.00" xlink:href="#hd"/>
<use x="627.84" y="179.00" xlink:href="#r8"/>
<path class="fill"
	d="M662.94 155.70l68.00 8.30v3.20l-68.00 -8.30"/>
<use x="659.84" y="182.00" xlink:href="#hd"/>
<path d="M663.34 182.00v-25.30" class="stroke"/>
<use x="693.44" y="179.00" xlink:href="#hd"/>
<path d="M696.94 179.00v-18.20" class="stroke"/>
<use x="727.04" y="197.00" xlink:href="#hl"/>
<use x="727.04" y="200.00" xlink:href="#hd"/>
<path d="M730.54 200.00v-35.10" class="stroke"/>
<path class="fill"
	d="M767.84 210.20l76.00 0.00v-3.20l-76.00 -0.00"/>
<path class="fill"
	d="M791.84 205.20l51.60 0.00v-3.20l-51.60 -0.00"/>
<use x="771.64" y="191.00" xlink:href="#hd"/>
<path d="M768.14 191.00v18.20" class="stroke"/>
<use x="795.34" y="170.00" xlink:href="#hd"/>
<path d="M791.84 170.00v39.20" class="stroke"/>
<use x="813.34" y="173.00" xlink:href="#hd"/>
<defs>
<path id="unat" class="fill" d="
	m96 -750
	h-32
	v716
	l32 -8
	182 -54
	v282
	h32
	v-706
	l-34 10
	-180 50
	v-290
	m0 592
	v-190
	l182 -52
	v188"/>
<use id="nt0" transform="translate(-3,5) scale(0.018)"
	xlink:href="#unat"/>
</defs>
<use x="804.34" y="173.00" xlink:href="#nt0"/>
<path d="M809.84 173.00v36.20" class="stroke"/>
<use x="830.14" y="176.00" xlink:href="#hd"/>
<path d="M826.64 176.00v33.20" class="stroke"/>
<use x="847.04" y="179.00" xlink:href="#hd"/>
<path d="M843.54 179.00v30.20" class="stroke"/>
<use x="195.64" y="182.00" xlink:href="#hd"/>
<path d="M192.14 182.00v21.00" class="stroke"/>
</g>
<g stroke-width="0.70" transform="scale(0.867)" font-family="Times" font-size="13.00">
<path class="stroke" stroke-width="1"
	d="M11.54 324.00v-82.00"/>
<path class="fill"
	d="M6.54 239.00
	c10.5 1 12 -4.5 12 -3.5c0 1 -3.5 5.5 -8.5 5.5
	v84.00
	c5 0 8.5 4.5 8.5 5.5c0 1 -1.5 -4.5 -12 -3.5"/>
<use x="143.74" y="266.00" xlink:href="#rdots"/>
<path class="stroke" stroke-width="1"
	d="M139.74 266.00v-24.00"/>
<path class="stroke" stroke-width="3"
	d="M135.24 266.00v-24.00"/>
<use x="143.74" y="324.00" xlink:href="#rdots"/>
<path class="stroke" stroke-width="1"
	d="M139.74 324.00v-58.00"/>
<path class="stroke" stroke-width="3"
	d="M135.24 324.00v-58.00"/>
<path class="stroke" stroke-width="1"
	d="M252.94 266.00v-24.00"/>
<path class="stroke" stroke-width="1"
	d="M252.94 324.00v-58.00"/>
<path class="stroke" stroke-width="1"
	d="M332.24 266.00v-24.00"/>
<path class="stroke" stroke-width="1"
	d="M332.24 324.00v-58.00"/>
<path class="stroke" stroke-width="1"
	d="M431.24 266.00v-24.00"/>
<path class="stroke" stroke-width="1"
	d="M431.24 324.00v-58.00"/>
<path class="stroke" stroke-width="1"
	d="M519.44 266.00v-24.00"/>
<path class="stroke" stroke-width="1"
	d="M519.44 324.00v-58.00"/>
<path class="stroke" stroke-width="1"
	d="M618.54 266.00v-24.00"/>
<path class="stroke" stroke-width="1"
	d="M618.54 324.00v-58.00"/>
<path class="stroke" stroke-width="1"
	d="M688.74 266.00v-24.00"/>
<path class="stroke" stroke-width="1"
	d="M688.74 324.00v-58.00"/>
<path class="stroke" stroke-width="1"
	d="M787.84 266.00v-24.00"/>
<path class="stroke" stroke-width="1"
	d="M787.84 324.00v-58.00"/>
<path class="stroke" stroke-width="3"
	d="M860.54 266.00v-24.00"/>
<path class="stroke" stroke-width="1"
	d="M856.04 266.00v-24.00"/>
<use x="852.04" y="266.00" xlink:href="#rdots"/>
<path class="stroke" stroke-width="3"
	d="M860.54 324.00v-58.00"/>
<path class="stroke" stroke-width="1"
	d="M856.04 324.00v-58.00"/>
<use x="852.04" y="324.00" xlink:href="#rdots"/>
<path d="m11.54 266.00
	h850.50
	M11.54 260.00
	h850.50
	M11.54 254.00
	h850.50
	M11.54 248.00
	h850.50
	M11.54 242.00
	h850.50
	" class="stroke"/>
<path d="m11.54 324.00
	h850.50
	M11.54 318.00
	h850.50
	M11.54 312.00
	h850.50
	M11.54 306.00
	h850.50
	M11.54 300.00
	h850.50
	" class="stroke"/>
<path class="fill"
	d="M631.04 249.00c5.87 -5.30 31.38 -10.51 37.25 -7.60
	v-0.24c-6.98 -4.67 -30.26 0.54 -37.25 7.84"/>
<text x="47.54" y="227.40">2</text>
<path class="stroke"
	d="M43.54 216.00m0 20v-20h89.20v20"/>
<use x="23.54" y="260.00" xlink:href="#tclef"/>
<use x="56.04" y="239.00" xlink:href="#hd"/>
<path d="M52.54 239.00v40.00" class="stroke"/>
<use x="56.04" y="260.00" xlink:href="#hd"/>
<use x="56.04" y="254.00" xlink:href="#hd"/>
<use x="56.04" y="248.00" xlink:href="#hd"/>
<use x="109.44" y="254.00" xlink:href="#r8"/>
<path class="fill"
	d="M159.44 280.60l77.90 -7.00v-3.20l-77.90 7.00"/>
<path class="fill"
	d="M159.74 275.50l77.20 -7.00v-3.20l-77.20 7.00"/>
<use x="163.24" y="248.00" xlink:href="#hd"/>
<path d="M159.74 248.00v31.50" class="stroke"/>
<use x="178.04" y="257.00" xlink:href="#hd"/>
<path d="M174.54 257.00v21.20" class="stroke"/>
<use x="192.84" y="248.00" xlink:href="#hd"/>
<path d="M189.34 248.00v28.90" class="stroke"/>
<use x="210.84" y="242.00" xlink:href="#hd"/>
<use x="201.84" y="242.00" xlink:href="#sh0"/>
<path d="M207.34 242.00v33.20" class="stroke"/>
<use x="225.64" y="236.00" xlink:href="#hl"/>
<use x="225.64" y="236.00" xlink:href="#hd"/>
<path d="M222.14 236.00v37.90" class="stroke"/>
<use x="240.44" y="242.00" xlink:href="#hd"/>
<path d="M236.94 242.00v30.60" class="stroke"/>
<path class="fill"
	d="M261.64 262.60l50.90 4.60v-3.20l-50.90 -4.60"/>
<path class="fill"
	d="M282.64 259.50l14.80 1.30v-3.20l-14.80 -1.30"/>
<use x="265.44" y="239.00" xlink:href="#hd"/>
<path d="M261.94 239.00v22.60" class="stroke"/>
<use x="286.14" y="236.00" xlink:href="#hl"/>
<use x="286.14" y="233.00" xlink:href="#hd"/>
<path d="M282.64 233.00v30.50" class="stroke"/>
<use x="300.94" y="239.00" xlink:href="#hd"/>
<path d="M297.44 239.00v25.90" class="stroke"/>
<use x="315.74" y="248.00" xlink:href="#hd"/>
<path d="M312.24 248.00v18.20" class="stroke"/>
<path class="fill"
	d="M340.94 282.20l74.70 0.00v-3.20l-74.70 -0.00"/>
<path class="fill"
	d="M341.24 277.20l74.00 0.00v-3.20l-74.00 -0.00"/>
<use x="344.74" y="251.00" xlink:href="#hd"/>
<path d="M341.24 251.00v30.20" class="stroke"/>
<use x="359.54" y="260.00" xlink:href="#hd"/>
<path d="M356.04 260.00v21.20" class="stroke"/>
<use x="374.34" y="251.00" xlink:href="#hd"/>
<path d="M370.84 251.00v30.20" class="stroke"/>
<use x="389.14" y="245.00" xlink:href="#hd"/>
<path d="M385.64 245.00v36.20" class="stroke"/>
<use x="403.94" y="239.00" xlink:href="#hd"/>
<path d="M400.44 239.00v42.20" class="stroke"/>
<use x="418.74" y="245.00" xlink:href="#hd"/>
<path d="M415.24 245.00v36.20" class="stroke"/>
<use x="418.74" y="251.00" xlink:href="#hd"/>
<path class="fill"
	d="M439.94 276.20l59.90 0.00v-3.20l-59.90 -0.00"/>
<path class="fill"
	d="M440.24 271.20l44.40 0.00v-3.20l-44.40 -0.00"/>
<use x="443.74" y="245.00" xlink:href="#hd"/>
<path d="M440.24 245.00v30.20" class="stroke"/>
<use x="458.54" y="251.00" xlink:href="#hd"/>
<path d="M455.04 251.00v24.20" class="stroke"/>
<use x="473.34" y="254.00" xlink:href="#hd"/>
<path d="M469.84 254.00v21.20" class="stroke"/>
<use x="488.14" y="248.00" xlink:href="#hd"/>
<path d="M484.64 248.00v27.20" class="stroke"/>
<use x="502.94" y="239.00" xlink:href="#hd"/>
<path d="M499.44 239.00v36.20" class="stroke"/>
<path class="fill"
	d="M528.14 261.70l59.90 8.60v-3.20l-59.90 -8.60"/>
<use x="531.94" y="239.00" xlink:href="#hd"/>
<path d="M528.44 239.00v21.70" class="stroke"/>
<use x="561.64" y="245.00" xlink:href="#hd"/>
<path d="M558.14 245.00v20.00" class="stroke"/>
<use x="591.24" y="251.00" xlink:href="#hd"/>
<path d="M587.74 251.00v18.30" class="stroke"/>
<path class="fill"
	d="M627.14 279.30l41.90 -6.40v-3.20l-41.90 6.40"/>
<use x="631.04" y="260.00" xlink:href="#hd"/>
<path d="M627.54 260.00v18.20" class="stroke"/>
<use x="651.64" y="251.00" xlink:href="#hd"/>
<path d="M648.14 251.00v24.10" class="stroke"/>
<use x="672.24" y="245.00" xlink:href="#hd"/>
<path d="M668.74 245.00v26.90" class="stroke"/>
<path class="fill"
	d="M697.44 274.00l74.70 0.00v-3.20l-74.70 -0.00"/>
<path class="fill"
	d="M697.74 269.00l74.00 0.00v-3.20l-74.00 -0.00"/>
<use x="701.24" y="248.00" xlink:href="#hd"/>
<path d="M697.74 248.00v24.90" class="stroke"/>
<use x="716.04" y="242.00" xlink:href="#hd"/>
<path d="M712.54 242.00v30.90" class="stroke"/>
<use x="730.84" y="236.00" xlink:href="#hl"/>
<use x="730.84" y="236.00" xlink:href="#hd"/>
<path d="M727.34 236.00v36.90" class="stroke"/>
<use x="745.64" y="242.00" xlink:href="#hd"/>
<path d="M742.14 242.00v30.90" class="stroke"/>
<use x="760.44" y="248.00" xlink:href="#hd"/>
<path d="M756.94 248.00v24.90" class="stroke"/>
<use x="775.34" y="254.00" xlink:href="#hd"/>
<path d="M771.84 254.00v18.90" class="stroke"/>
<use x="800.34" y="251.00" xlink:href="#hd"/>
<path d="M796.84 251.00v21.00" class="stroke"/>
<use x="841.54" y="254.00" xlink:href="#r8"/>
<use x="23.54" y="306.00" xlink:href="#bclef"/>
<path class="fill"
	d="M52.24 343.20l68.90 -5.00v-3.20l-68.90 5.00"/>
<path class="fill"
	d="M73.14 336.70l47.60 -3.50v-3.20l-47.60 3.50"/>
<use x="56.04" y="324.00" xlink:href="#hd"/>
<path d="M52.54 324.00v18.20" class="stroke"/>
<use x="76.64" y="297.00" xlink:href="#hd"/>
<path d="M73.14 297.00v43.70" class="stroke"/>
<use x="91.44" y="303.00" xlink:href="#hd"/>
<path d="M87.94 303.00v36.60" class="stroke"/>
<use x="109.44" y="306.00" xlink:href="#hd"/>
<use x="100.44" y="306.00" xlink:href="#sh0"/>
<path d="M105.94 306.00v32.30" class="stroke"/>
<use x="124.24" y="309.00" xlink:href="#hd"/>
<path d="M120.74 309.00v28.20" class="stroke"/>
<use x="163.24" y="306.00" xlink:href="#hd"/>
<use x="154.24" y="306.00" xlink:href="#sh0"/>
<path d="M159.74 306.00v25.00" class="stroke"/>
<use x="163.24" y="312.00" xlink:href="#hd"/>
<use x="225.64" y="312.00" xlink:href="#r8"/>
<use x="265.44" y="303.00" xlink:href="#hd"/>
<path d="M261.94 303.00v34.00" class="stroke"/>
<use x="265.44" y="318.00" xlink:href="#hd"/>
<use x="315.74" y="312.00" xlink:href="#r8"/>
<use x="344.74" y="309.00" xlink:href="#hd"/>
<path d="M341.24 309.00v21.00" class="stroke"/>
<path class="fill"
	d="M400.14 333.80l15.50 3.50v-3.20l-15.50 -3.50"/>
<path class="fill"
	d="M400.44 328.90l14.80 3.30v-3.20l-14.80 -3.30"/>
<use x="403.94" y="309.00" xlink:href="#hd"/>
<path d="M400.44 309.00v23.90" class="stroke"/>
<use x="418.74" y="315.00" xlink:href="#hd"/>
<path d="M415.24 315.00v21.20" class="stroke"/>
<path class="fill"
	d="M446.94 283.70l30.30 8.90v3.20l-30.30 -8.90"/>
<use x="443.74" y="303.00" xlink:href="#hd"/>
<path d="M447.24 303.00v-18.20" class="stroke"/>
<use x="473.34" y="324.00" xlink:href="#hd"/>
<path d="M476.84 324.00v-30.50" class="stroke"/>
<use x="502.94" y="312.00" xlink:href="#r8"/>
<path class="fill"
	d="M528.14 331.90l74.70 0.00v-3.20l-74.70 -0.00"/>
<path class="fill"
	d="M528.44 326.90l74.00 0.00v-3.20l-74.00 -0.00"/>
<use x="531.94" y="309.00" xlink:href="#hd"/>
<path d="M528.44 309.00v21.90" class="stroke"/>
<use x="531.94" y="315.00" xlink:href="#hd"/>
<use x="546.84" y="303.00" xlink:href="#hd"/>
<path d="M543.34 303.00v27.90" class="stroke"/>
<use x="561.64" y="309.00" xlink:href="#hd"/>
<path d="M558.14 309.00v21.90" class="stroke"/>
<use x="561.64" y="315.00" xlink:href="#hd"/>
<use x="576.44" y="303.00" xlink:href="#hd"/>
<path d="M572.94 303.00v27.90" class="stroke"/>
<use x="591.24" y="309.00" xlink:href="#hd"/>
<path d="M587.74 309.00v21.90" class="stroke"/>
<use x="591.24" y="315.00" xlink:href="#hd"/>
<use x="606.04" y="303.00" xlink:href="#hd"/>
<path d="M602.54 303.00v27.90" class="stroke"/>
<use x="631.04" y="309.00" xlink:href="#hd"/>
<path d="M627.54 309.00v25.00" class="stroke"/>
<use x="631.04" y="315.00" xlink:href="#hd"/>
<use x="672.24" y="303.00" xlink:href="#hd"/>
<path d="M668.74 303.00v31.00" class="stroke"/>
<path class="fill"
	d="M668.74 334.00c0.6 -5.6 9.6 -9 5.6 -18.4
	1.6 6 -1.3 11.6 -5.6 12.8
"/>
<use x="672.24" y="315.00" xlink:href="#hd"/>
<use x="701.24" y="306.00" xlink:href="#hd"/>
<path d="M697.74 306.00v21.00" class="stroke"/>
<use x="760.44" y="303.00" xlink:href="#hd"/>
<path d="M756.94 303.00v21.00" class="stroke"/>
<path class="fill"
	d="M756.94 324.00c0.6 -5.6 9.6 -9 5.6 -18.4
	1.6 6 -1.3 11.6 -5.6 12.8
"/>
<path class="fill"
	d="M803.44 295.70l41.90 9.80v3.20l-41.90 -9.80"/>
<use x="800.34" y="315.00" xlink:href="#hd"/>
<path d="M803.84 315.00v-18.20" class="stroke"/>
<use x="820.94" y="324.00" xlink:href="#hd"/>
<path d="M824.44 324.00v-22.40" class="stroke"/>
<use x="841.54" y="330.00" xlink:href="#hl"/>
<use x="841.54" y="336.00" xlink:href="#hl"/>
<use x="841.54" y="336.00" xlink:href="#hd"/>
<path d="M845.04 336.00v-29.60" class="stroke"/>
</g>
</svg>
