<?xml version="1.0" standalone="no"?>
<!DOCTYPE svg PUBLIC "-//W3C//DTD SVG 1.1//EN"
	"http://www.w3.org/Graphics/SVG/1.1/DTD/svg11.dtd">
<svg xmlns="http://www.w3.org/2000/svg" version="1.1"
	xmlns:xlink="http://www.w3.org/1999/xlink"
	color="black"
	width="757.10px" height="294.67px">
<style type="text/css">
.fill {fill: currentColor}
.stroke {stroke: currentColor; fill: none}
text{white-space: pre}
</style>
<title>./K516f-8-2-2-2-11-2-7-7-8-8-2-3-5-4-12-5.abc (3523) tune 1</title>
<!-- Creator: abcm2ps-8.13.8 -->
<!-- CreationDate: Sep  7, 2017 11:17 -->
<!-- CommandLine: ./K516f-8-2-2-2-11-2-7-7-8-8-2-3-5-4-12-5.abc -O ./K516f-8-2-2-2-11-2-7-7-8-8-2-3-5-4-12-5.svg -g -->
<rect width="100%" height="100%" fill="white"/>
<g stroke-width="0.70" transform="scale(0.867)">
<!-- title: 8-2-2-2-11-2-7-7-8-8-2-3-5-4-12-5 -->
</g>
<g stroke-width="0.70" transform="scale(0.867)" font-family="Times" font-size="20.00">
<text x="436.84" y="22.00" text-anchor="middle">8-2-2-2-11-2-7-7-8-8-2-3-5-4-12-5</text>
</g>
<g stroke-width="0.70" transform="scale(0.867)" font-family="Times" font-size="20.00">
<!-- subtitle: $1K.516f::152:22:141:41:135:122:118:91:16:155:26:56:67:58:44:170::$0 -->
</g>
<g stroke-width="0.70" transform="scale(0.867)" font-family="Courier" font-size="8.00" font-weight="bold">
<text x="436.84" y="41.80" text-anchor="middle">K.516f::152:22:141:41:135:122:118:91:16:155:26:56:67:58:44:170::</text>
</g>
<g stroke-width="0.70" transform="scale(0.867)" font-family="Courier" font-size="8.00" font-weight="bold">
<!-- subtitle: $1Perm. No.: 352387262695079$0 -->
<text x="436.84" y="60.80" text-anchor="middle">Perm. No.: 352387262695079</text>
</g>
<g stroke-width="0.70" transform="scale(0.607)" font-family="Courier" font-size="8.00" font-weight="bold">
<defs>
<ellipse id="hd" rx="4.1" ry="2.9"
	transform="rotate(-20)" class="fill"/>
</defs>
<use x="103.06" y="121.29" xlink:href="#hd"/>
<path d="M106.56 121.29v-21.00" class="stroke"/>
<path class="fill"
	d="M106.56 100.29c0.6 5.6 9.6 9 5.6 18.4
	1.6 -6 -1.3 -11.6 -5.6 -12.8
"/>
</g>
<g stroke-width="0.70" transform="scale(0.867)" font-family="Times" font-size="15.00" font-weight="bold">
<text x="81.24" y="87.00">= 111</text>
<path class="stroke" stroke-width="1"
	d="M11.54 183.00v-82.00"/>
<path class="fill"
	d="M6.54 98.00
	c10.5 1 12 -4.5 12 -3.5c0 1 -3.5 5.5 -8.5 5.5
	v84.00
	c5 0 8.5 4.5 8.5 5.5c0 1 -1.5 -4.5 -12 -3.5"/>
<defs>
<g id="rdots" class="fill">
	<circle cx="0" cy="-9" r="1.2"/>
	<circle cx="0" cy="-15" r="1.2"/>
</g>
</defs>
<use x="70.54" y="125.00" xlink:href="#rdots"/>
<path class="stroke" stroke-width="1"
	d="M66.54 125.00v-24.00"/>
<path class="stroke" stroke-width="3"
	d="M62.04 125.00v-24.00"/>
<use x="70.54" y="183.00" xlink:href="#rdots"/>
<path class="stroke" stroke-width="1"
	d="M66.54 183.00v-58.00"/>
<path class="stroke" stroke-width="3"
	d="M62.04 183.00v-58.00"/>
<path class="stroke" stroke-width="1"
	d="M169.94 125.00v-24.00"/>
<path class="stroke" stroke-width="1"
	d="M169.94 183.00v-58.00"/>
<path class="stroke" stroke-width="1"
	d="M247.34 125.00v-24.00"/>
<path class="stroke" stroke-width="1"
	d="M247.34 183.00v-58.00"/>
<path class="stroke" stroke-width="1"
	d="M355.54 125.00v-24.00"/>
<path class="stroke" stroke-width="1"
	d="M355.54 183.00v-58.00"/>
<path class="stroke" stroke-width="1"
	d="M452.54 125.00v-24.00"/>
<path class="stroke" stroke-width="1"
	d="M452.54 183.00v-58.00"/>
<path class="stroke" stroke-width="1"
	d="M552.04 125.00v-24.00"/>
<path class="stroke" stroke-width="1"
	d="M552.04 183.00v-58.00"/>
<path class="stroke" stroke-width="1"
	d="M650.54 125.00v-24.00"/>
<path class="stroke" stroke-width="1"
	d="M650.54 183.00v-58.00"/>
<path class="stroke" stroke-width="1"
	d="M760.34 125.00v-24.00"/>
<path class="stroke" stroke-width="1"
	d="M760.34 183.00v-58.00"/>
<path class="stroke" stroke-width="3"
	d="M860.54 125.00v-24.00"/>
<path class="stroke" stroke-width="1"
	d="M856.04 125.00v-24.00"/>
<use x="852.04" y="125.00" xlink:href="#rdots"/>
<path class="stroke" stroke-width="3"
	d="M860.54 183.00v-58.00"/>
<path class="stroke" stroke-width="1"
	d="M856.04 183.00v-58.00"/>
<use x="852.04" y="183.00" xlink:href="#rdots"/>
<path d="m11.54 125.00
	h850.50
	M11.54 119.00
	h850.50
	M11.54 113.00
	h850.50
	M11.54 107.00
	h850.50
	M11.54 101.00
	h850.50
	" class="stroke"/>
<path d="m11.54 183.00
	h850.50
	M11.54 177.00
	h850.50
	M11.54 171.00
	h850.50
	M11.54 165.00
	h850.50
	M11.54 159.00
	h850.50
	" class="stroke"/>
</g>
<g stroke-width="0.70" transform="scale(0.867)" font-family="Times" font-size="13.00">
<text x="764.34" y="86.40">1</text>
<path class="stroke"
	d="M760.34 75.00m0 20v-20h93.70v20"/>
<defs>
<path id="utclef" class="fill" d="m-50 -90
	c-72 -41 -72 -158 52 -188
	150 -10 220 188 90 256
	-114 52 -275 0 -293 -136
	-15 -181 93 -229 220 -334
	88 -87 79 -133 62 -210
	-51 33 -94 105 -89 186
	17 267 36 374 49 574
	6 96 -19 134 -77 135
	-80 1 -126 -93 -61 -133
	85 -41 133 101 31 105
	23 17 92 37 90 -92
	-10 -223 -39 -342 -50 -617
	0 -90 0 -162 96 -232
	56 72 63 230 22 289
	-74 106 -257 168 -255 316
	9 153 148 185 252 133
	86 -65 29 -192 -80 -176
	-71 12 -105 67 -59 124"/>
<use id="tclef" transform="translate(0,6) scale(0.045)"
	xlink:href="#utclef"/>
</defs>
<use x="23.54" y="119.00" xlink:href="#tclef"/>
<g font-family="serif" font-size="16" font-weight="bold" font-style="normal"
	transform="translate(42.04,124.50) scale(1.2,1)">
	<text text-anchor="middle">8</text>
	<text y="-12" text-anchor="middle">3</text>
</g>
<path class="fill"
	d="M80.84 123.10l73.00 9.20v-3.20l-73.00 -9.20"/>
<path class="fill"
	d="M104.24 121.00l49.20 6.20v-3.20l-49.20 -6.20"/>
<use x="84.64" y="98.00" xlink:href="#hd"/>
<path d="M81.14 98.00v24.10" class="stroke"/>
<use x="107.74" y="101.00" xlink:href="#hd"/>
<path d="M104.24 101.00v24.00" class="stroke"/>
<use x="124.14" y="104.00" xlink:href="#hd"/>
<path d="M120.64 104.00v23.10" class="stroke"/>
<use x="140.54" y="107.00" xlink:href="#hd"/>
<path d="M137.04 107.00v22.10" class="stroke"/>
<use x="156.94" y="110.00" xlink:href="#hd"/>
<path d="M153.44 110.00v21.20" class="stroke"/>
<path class="fill"
	d="M179.24 131.70l46.80 6.60v-3.20l-46.80 -6.60"/>
<use x="183.04" y="104.00" xlink:href="#hd"/>
<path d="M179.54 104.00v26.70" class="stroke"/>
<use x="206.14" y="110.00" xlink:href="#hd"/>
<path d="M202.64 110.00v24.00" class="stroke"/>
<use x="229.24" y="119.00" xlink:href="#hd"/>
<path d="M225.74 119.00v18.20" class="stroke"/>
<path class="fill"
	d="M256.64 133.00l82.70 0.00v-3.20l-82.70 -0.00"/>
<path class="fill"
	d="M257.04 128.00l82.10 0.00v-3.20l-82.10 -0.00"/>
<use x="260.54" y="107.00" xlink:href="#hd"/>
<path d="M257.04 107.00v24.90" class="stroke"/>
<use x="276.94" y="104.00" xlink:href="#hd"/>
<path d="M273.44 104.00v27.90" class="stroke"/>
<use x="293.34" y="101.00" xlink:href="#hd"/>
<path d="M289.84 101.00v30.90" class="stroke"/>
<use x="309.74" y="107.00" xlink:href="#hd"/>
<path d="M306.24 107.00v24.90" class="stroke"/>
<use x="326.14" y="110.00" xlink:href="#hd"/>
<path d="M322.64 110.00v21.90" class="stroke"/>
<use x="342.54" y="113.00" xlink:href="#hd"/>
<path d="M339.04 113.00v18.90" class="stroke"/>
<path class="fill"
	d="M364.84 138.20l66.30 0.00v-3.20l-66.30 -0.00"/>
<path class="fill"
	d="M365.14 133.20l49.20 0.00v-3.20l-49.20 -0.00"/>
<use x="368.64" y="110.00" xlink:href="#hd"/>
<path d="M365.14 110.00v27.20" class="stroke"/>
<use x="385.14" y="113.00" xlink:href="#hd"/>
<path d="M381.64 113.00v24.20" class="stroke"/>
<use x="401.54" y="110.00" xlink:href="#hd"/>
<path d="M398.04 110.00v27.20" class="stroke"/>
<use x="417.94" y="104.00" xlink:href="#hd"/>
<path d="M414.44 104.00v33.20" class="stroke"/>
<use x="434.34" y="119.00" xlink:href="#hd"/>
<path d="M430.84 119.00v18.20" class="stroke"/>
<path class="fill"
	d="M467.14 127.00l57.20 0.00v-3.20l-57.20 -0.00"/>
<path class="fill"
	d="M491.04 122.00l16.40 0.00v-3.20l-16.40 -0.00"/>
<use x="471.04" y="101.00" xlink:href="#hd"/>
<defs>
<path id="usharp" class="fill" d="
	m136 -702
	v890
	h32
	v-890
	m128 840
	h32
	v-888
	h-32
	m-232 286
	v116
	l338 -96
	v-116
	m-338 442
	v116
	l338 -98
	v-114"/>
<use id="sh0" transform="translate(-4,5) scale(0.018)"
	xlink:href="#usharp"/>
</defs>
<use x="462.04" y="101.00" xlink:href="#sh0"/>
<path d="M467.54 101.00v25.00" class="stroke"/>
<use x="494.54" y="101.00" xlink:href="#hd"/>
<path d="M491.04 101.00v25.00" class="stroke"/>
<use x="510.94" y="107.00" xlink:href="#hd"/>
<path d="M507.44 107.00v19.00" class="stroke"/>
<defs>
<path id="hl" class="stroke" d="m-6 0h12"/>
</defs>
<use x="527.54" y="95.00" xlink:href="#hl"/>
<use x="527.54" y="95.00" xlink:href="#hd"/>
<path d="M524.04 95.00v31.00" class="stroke"/>
<path class="fill"
	d="M561.34 127.00l67.90 0.00v-3.20l-67.90 -0.00"/>
<path class="fill"
	d="M561.64 122.00l50.80 0.00v-3.20l-50.80 -0.00"/>
<use x="565.14" y="98.00" xlink:href="#hd"/>
<path d="M561.64 98.00v28.00" class="stroke"/>
<use x="583.14" y="101.00" xlink:href="#hd"/>
<use x="574.14" y="101.00" xlink:href="#sh0"/>
<path d="M579.64 101.00v25.00" class="stroke"/>
<use x="599.54" y="98.00" xlink:href="#hd"/>
<path d="M596.04 98.00v28.00" class="stroke"/>
<use x="615.94" y="95.00" xlink:href="#hl"/>
<use x="615.94" y="92.00" xlink:href="#hd"/>
<path d="M612.44 92.00v34.00" class="stroke"/>
<use x="632.34" y="107.00" xlink:href="#hd"/>
<path d="M628.84 107.00v19.00" class="stroke"/>
<path class="fill"
	d="M659.84 127.00l84.30 0.00v-3.20l-84.30 -0.00"/>
<path class="fill"
	d="M660.14 122.00l83.60 0.00v-3.20l-83.60 -0.00"/>
<use x="663.64" y="104.00" xlink:href="#hd"/>
<path d="M660.14 104.00v22.00" class="stroke"/>
<use x="680.04" y="95.00" xlink:href="#hl"/>
<use x="680.04" y="95.00" xlink:href="#hd"/>
<path d="M676.54 95.00v31.00" class="stroke"/>
<use x="696.44" y="98.00" xlink:href="#hd"/>
<path d="M692.94 98.00v28.00" class="stroke"/>
<use x="712.94" y="95.00" xlink:href="#hl"/>
<use x="712.94" y="92.00" xlink:href="#hd"/>
<path d="M709.44 92.00v34.00" class="stroke"/>
<use x="730.94" y="101.00" xlink:href="#hd"/>
<use x="721.94" y="101.00" xlink:href="#sh0"/>
<path d="M727.44 101.00v25.00" class="stroke"/>
<use x="747.34" y="95.00" xlink:href="#hl"/>
<use x="747.34" y="95.00" xlink:href="#hd"/>
<path d="M743.84 95.00v31.00" class="stroke"/>
<use x="773.44" y="98.00" xlink:href="#hd"/>
<path d="M769.94 98.00v40.00" class="stroke"/>
<use x="773.44" y="119.00" xlink:href="#hd"/>
<use x="773.44" y="113.00" xlink:href="#hd"/>
<use x="773.44" y="107.00" xlink:href="#hd"/>
<defs>
<path id="r8e" class="fill" d="m 0 0
	c-1.5 1.5 -2.4 2 -3.6 2
	2.4 -2.8 -2.8 -4 -2.8 -1.2
	c0 2.7 4.3 2.4 5.9 0.6"/>
<g id="r8">
	<path d="m3.3 -4l-3.4 9.6" class="stroke"/>
	<use x="3.4" y="-4" xlink:href="#r8e"/>
</g>
</defs>
<use x="830.94" y="113.00" xlink:href="#r8"/>
<defs>
<path id="ubclef" class="fill" d="m-200 -87
	c124 -35 222 -78 254 -236
	43 -228 -167 -246 -192 -103
	59 -80 157 22 92 78
	-62 47 -115 -22 -106 -88
	21 -141 270 -136 274 52
	-1 175 -106 264 -322 297
	m357 -250
	c0 -36 51 -34 51 0
	0 37 -51 36 -51 0
	m-2 -129
	c0 -36 51 -34 51 0
	0 38 -51 37 -51 0"/>
<use id="bclef" transform="translate(0,18) scale(0.045)"
	xlink:href="#ubclef"/>
</defs>
<use x="23.54" y="165.00" xlink:href="#bclef"/>
<g font-family="serif" font-size="16" font-weight="bold" font-style="normal"
	transform="translate(42.04,182.50) scale(1.2,1)">
	<text text-anchor="middle">8</text>
	<text y="-12" text-anchor="middle">3</text>
</g>
<use x="84.64" y="168.00" xlink:href="#hd"/>
<path d="M81.14 168.00v25.00" class="stroke"/>
<use x="84.64" y="174.00" xlink:href="#hd"/>
<use x="140.54" y="171.00" xlink:href="#r8"/>
<use x="183.04" y="174.00" xlink:href="#hd"/>
<path d="M186.54 174.00v-21.00" class="stroke"/>
<use x="229.24" y="171.00" xlink:href="#r8"/>
<use x="260.54" y="162.00" xlink:href="#hd"/>
<path d="M257.04 162.00v34.00" class="stroke"/>
<use x="260.54" y="177.00" xlink:href="#hd"/>
<use x="326.14" y="183.00" xlink:href="#hd"/>
<path d="M329.64 183.00v-21.00" class="stroke"/>
<path class="fill"
	d="M329.64 162.00c0.6 5.6 9.6 9 5.6 18.4
	1.6 -6 -1.3 -11.6 -5.6 -12.8
"/>
<use x="368.64" y="168.00" xlink:href="#hd"/>
<path d="M365.14 168.00v25.00" class="stroke"/>
<use x="368.64" y="174.00" xlink:href="#hd"/>
<use x="434.34" y="171.00" xlink:href="#r8"/>
<path class="fill"
	d="M474.14 150.00l57.20 0.00v3.20l-57.20 -0.00"/>
<use x="471.04" y="171.00" xlink:href="#hd"/>
<path d="M474.54 171.00v-20.00" class="stroke"/>
<use x="494.54" y="171.00" xlink:href="#hd"/>
<path d="M498.04 171.00v-20.00" class="stroke"/>
<use x="527.54" y="171.00" xlink:href="#hd"/>
<path d="M531.04 171.00v-20.00" class="stroke"/>
<path class="fill"
	d="M568.34 149.40l67.90 -4.70v3.20l-67.90 4.70"/>
<use x="565.14" y="177.00" xlink:href="#hd"/>
<path d="M568.64 177.00v-26.60" class="stroke"/>
<use x="565.14" y="171.00" xlink:href="#hd"/>
<use x="599.54" y="177.00" xlink:href="#hd"/>
<path d="M603.04 177.00v-28.90" class="stroke"/>
<use x="599.54" y="171.00" xlink:href="#hd"/>
<use x="632.34" y="177.00" xlink:href="#hd"/>
<path d="M635.84 177.00v-31.20" class="stroke"/>
<use x="632.34" y="162.00" xlink:href="#hd"/>
<path class="fill"
	d="M666.84 147.70l67.90 8.30v3.20l-67.90 -8.30"/>
<use x="663.64" y="174.00" xlink:href="#hd"/>
<path d="M667.14 174.00v-25.20" class="stroke"/>
<use x="696.44" y="171.00" xlink:href="#hd"/>
<path d="M699.94 171.00v-18.20" class="stroke"/>
<use x="730.94" y="189.00" xlink:href="#hl"/>
<use x="730.94" y="192.00" xlink:href="#hd"/>
<path d="M734.44 192.00v-35.00" class="stroke"/>
<path class="fill"
	d="M769.54 202.20l74.60 0.00v-3.20l-74.60 -0.00"/>
<path class="fill"
	d="M792.94 197.20l50.80 0.00v-3.20l-50.80 -0.00"/>
<use x="773.44" y="183.00" xlink:href="#hd"/>
<path d="M769.94 183.00v18.20" class="stroke"/>
<use x="796.44" y="162.00" xlink:href="#hd"/>
<path d="M792.94 162.00v39.20" class="stroke"/>
<use x="814.44" y="165.00" xlink:href="#hd"/>
<defs>
<path id="unat" class="fill" d="
	m96 -750
	h-32
	v716
	l32 -8
	182 -54
	v282
	h32
	v-706
	l-34 10
	-180 50
	v-290
	m0 592
	v-190
	l182 -52
	v188"/>
<use id="nt0" transform="translate(-3,5) scale(0.018)"
	xlink:href="#unat"/>
</defs>
<use x="805.44" y="165.00" xlink:href="#nt0"/>
<path d="M810.94 165.00v36.20" class="stroke"/>
<use x="830.94" y="168.00" xlink:href="#hd"/>
<path d="M827.44 168.00v33.20" class="stroke"/>
<use x="847.34" y="171.00" xlink:href="#hd"/>
<path d="M843.84 171.00v30.20" class="stroke"/>
<path class="fill"
	d="M475.14 195.00l57.20 0.00v-3.20l-57.20 -0.00"/>
<use x="479.04" y="174.00" xlink:href="#hd"/>
<path d="M475.54 174.00v20.00" class="stroke"/>
<use x="502.54" y="174.00" xlink:href="#hd"/>
<path d="M499.04 174.00v20.00" class="stroke"/>
<use x="535.54" y="174.00" xlink:href="#hd"/>
<path d="M532.04 174.00v20.00" class="stroke"/>
</g>
<g stroke-width="0.70" transform="scale(0.867)" font-family="Times" font-size="13.00">
<path class="stroke" stroke-width="1"
	d="M11.54 317.00v-83.00"/>
<path class="fill"
	d="M6.54 231.00
	c10.5 1 12 -4.5 12 -3.5c0 1 -3.5 5.5 -8.5 5.5
	v85.00
	c5 0 8.5 4.5 8.5 5.5c0 1 -1.5 -4.5 -12 -3.5"/>
<use x="143.84" y="258.00" xlink:href="#rdots"/>
<path class="stroke" stroke-width="1"
	d="M139.84 258.00v-24.00"/>
<path class="stroke" stroke-width="3"
	d="M135.34 258.00v-24.00"/>
<use x="143.84" y="317.00" xlink:href="#rdots"/>
<path class="stroke" stroke-width="1"
	d="M139.84 317.00v-59.00"/>
<path class="stroke" stroke-width="3"
	d="M135.34 317.00v-59.00"/>
<path class="stroke" stroke-width="1"
	d="M221.94 258.00v-24.00"/>
<path class="stroke" stroke-width="1"
	d="M221.94 317.00v-59.00"/>
<path class="stroke" stroke-width="1"
	d="M321.04 258.00v-24.00"/>
<path class="stroke" stroke-width="1"
	d="M321.04 317.00v-59.00"/>
<path class="stroke" stroke-width="1"
	d="M420.14 258.00v-24.00"/>
<path class="stroke" stroke-width="1"
	d="M420.14 317.00v-59.00"/>
<path class="stroke" stroke-width="1"
	d="M499.44 258.00v-24.00"/>
<path class="stroke" stroke-width="1"
	d="M499.44 317.00v-59.00"/>
<path class="stroke" stroke-width="1"
	d="M598.54 258.00v-24.00"/>
<path class="stroke" stroke-width="1"
	d="M598.54 317.00v-59.00"/>
<path class="stroke" stroke-width="1"
	d="M697.54 258.00v-24.00"/>
<path class="stroke" stroke-width="1"
	d="M697.54 317.00v-59.00"/>
<path class="stroke" stroke-width="1"
	d="M787.74 258.00v-24.00"/>
<path class="stroke" stroke-width="1"
	d="M787.74 317.00v-59.00"/>
<path class="stroke" stroke-width="3"
	d="M860.54 258.00v-24.00"/>
<path class="stroke" stroke-width="1"
	d="M856.04 258.00v-24.00"/>
<use x="852.04" y="258.00" xlink:href="#rdots"/>
<path class="stroke" stroke-width="3"
	d="M860.54 317.00v-59.00"/>
<path class="stroke" stroke-width="1"
	d="M856.04 317.00v-59.00"/>
<use x="852.04" y="317.00" xlink:href="#rdots"/>
<path d="m11.54 258.00
	h850.50
	M11.54 252.00
	h850.50
	M11.54 246.00
	h850.50
	M11.54 240.00
	h850.50
	M11.54 234.00
	h850.50
	" class="stroke"/>
<path d="m11.54 317.00
	h850.50
	M11.54 311.00
	h850.50
	M11.54 305.00
	h850.50
	M11.54 299.00
	h850.50
	M11.54 293.00
	h850.50
	" class="stroke"/>
<path class="fill"
	d="M166.34 223.80c6.15 -3.47 32.91 -0.59 39.06 4.20
	v-0.24c-7.32 -6.55 -31.73 -9.43 -39.06 -3.96"/>
<text x="47.54" y="219.40">2</text>
<path class="stroke"
	d="M43.54 208.00m0 20v-20h89.30v20"/>
<use x="23.54" y="252.00" xlink:href="#tclef"/>
<use x="56.04" y="231.00" xlink:href="#hd"/>
<path d="M52.54 231.00v40.00" class="stroke"/>
<use x="56.04" y="252.00" xlink:href="#hd"/>
<use x="56.04" y="246.00" xlink:href="#hd"/>
<use x="56.04" y="240.00" xlink:href="#hd"/>
<use x="109.54" y="246.00" xlink:href="#r8"/>
<path class="fill"
	d="M159.54 251.50l42.70 7.80v-3.20l-42.70 -7.80"/>
<use x="163.34" y="228.00" xlink:href="#hl"/>
<use x="163.34" y="228.00" xlink:href="#hd"/>
<path d="M159.84 228.00v22.60" class="stroke"/>
<use x="184.74" y="234.00" xlink:href="#hd"/>
<use x="175.74" y="234.00" xlink:href="#sh0"/>
<path d="M181.24 234.00v20.40" class="stroke"/>
<use x="205.44" y="240.00" xlink:href="#hd"/>
<path d="M201.94 240.00v18.20" class="stroke"/>
<path class="fill"
	d="M230.54 263.40l74.80 10.90v-3.20l-74.80 -10.90"/>
<path class="fill"
	d="M230.94 258.40l74.10 10.80v-3.20l-74.10 -10.80"/>
<use x="234.44" y="231.00" xlink:href="#hd"/>
<path d="M230.94 231.00v31.40" class="stroke"/>
<use x="249.24" y="228.00" xlink:href="#hl"/>
<use x="249.24" y="225.00" xlink:href="#hd"/>
<path d="M245.74 225.00v39.60" class="stroke"/>
<use x="264.04" y="231.00" xlink:href="#hd"/>
<path d="M260.54 231.00v35.70" class="stroke"/>
<use x="278.84" y="240.00" xlink:href="#hd"/>
<path d="M275.34 240.00v28.90" class="stroke"/>
<use x="293.64" y="246.00" xlink:href="#hd"/>
<path d="M290.14 246.00v25.00" class="stroke"/>
<use x="308.54" y="252.00" xlink:href="#hd"/>
<path d="M305.04 252.00v21.20" class="stroke"/>
<path class="fill"
	d="M329.64 261.00l60.00 0.00v-3.20l-60.00 -0.00"/>
<use x="333.54" y="237.00" xlink:href="#hd"/>
<path d="M330.04 237.00v23.00" class="stroke"/>
<use x="333.54" y="243.00" xlink:href="#hd"/>
<use x="363.14" y="237.00" xlink:href="#hd"/>
<path d="M359.64 237.00v23.00" class="stroke"/>
<use x="363.14" y="243.00" xlink:href="#hd"/>
<use x="392.74" y="237.00" xlink:href="#hd"/>
<path d="M389.24 237.00v23.00" class="stroke"/>
<use x="392.74" y="243.00" xlink:href="#hd"/>
<path class="fill"
	d="M428.74 265.60l30.30 6.80v-3.20l-30.30 -6.80"/>
<path class="fill"
	d="M429.14 260.70l14.80 3.30v-3.20l-14.80 -3.30"/>
<use x="432.64" y="240.00" xlink:href="#hd"/>
<path d="M429.14 240.00v24.70" class="stroke"/>
<use x="447.44" y="246.00" xlink:href="#hd"/>
<path d="M443.94 246.00v22.00" class="stroke"/>
<use x="462.24" y="252.00" xlink:href="#hd"/>
<path d="M458.74 252.00v19.30" class="stroke"/>
<use x="482.94" y="246.00" xlink:href="#r8"/>
<path class="fill"
	d="M508.04 274.20l74.80 0.00v-3.20l-74.80 -0.00"/>
<path class="fill"
	d="M508.44 269.20l74.10 0.00v-3.20l-74.10 -0.00"/>
<use x="511.94" y="243.00" xlink:href="#hd"/>
<path d="M508.44 243.00v30.20" class="stroke"/>
<use x="526.74" y="246.00" xlink:href="#hd"/>
<path d="M523.24 246.00v27.20" class="stroke"/>
<use x="541.54" y="243.00" xlink:href="#hd"/>
<path d="M538.04 243.00v30.20" class="stroke"/>
<use x="556.34" y="237.00" xlink:href="#hd"/>
<path d="M552.84 237.00v36.20" class="stroke"/>
<use x="571.14" y="252.00" xlink:href="#hd"/>
<path d="M567.64 252.00v21.20" class="stroke"/>
<use x="586.04" y="243.00" xlink:href="#hd"/>
<path d="M582.54 243.00v30.20" class="stroke"/>
<path class="fill"
	d="M607.14 253.70l60.00 8.60v-3.20l-60.00 -8.60"/>
<use x="611.04" y="231.00" xlink:href="#hd"/>
<path d="M607.54 231.00v21.70" class="stroke"/>
<use x="640.64" y="237.00" xlink:href="#hd"/>
<path d="M637.14 237.00v20.00" class="stroke"/>
<use x="670.24" y="243.00" xlink:href="#hd"/>
<path d="M666.74 243.00v18.30" class="stroke"/>
<path class="fill"
	d="M706.24 268.20l65.80 -8.10v-3.20l-65.80 8.10"/>
<path class="fill"
	d="M727.24 260.70l44.50 -5.50v-3.20l-44.50 5.50"/>
<use x="710.04" y="249.00" xlink:href="#hd"/>
<path d="M706.54 249.00v18.20" class="stroke"/>
<use x="730.74" y="234.00" xlink:href="#hd"/>
<path d="M727.24 234.00v30.70" class="stroke"/>
<use x="745.54" y="240.00" xlink:href="#hd"/>
<path d="M742.04 240.00v22.80" class="stroke"/>
<use x="760.44" y="228.00" xlink:href="#hl"/>
<use x="760.44" y="228.00" xlink:href="#hd"/>
<path d="M756.94 228.00v33.00" class="stroke"/>
<use x="775.24" y="231.00" xlink:href="#hd"/>
<path d="M771.74 231.00v28.20" class="stroke"/>
<use x="800.24" y="243.00" xlink:href="#hd"/>
<path d="M796.74 243.00v21.00" class="stroke"/>
<use x="841.54" y="246.00" xlink:href="#r8"/>
<use x="23.54" y="299.00" xlink:href="#bclef"/>
<path class="fill"
	d="M52.24 336.20l69.00 -5.00v-3.20l-69.00 5.00"/>
<path class="fill"
	d="M73.24 329.70l47.60 -3.50v-3.20l-47.60 3.50"/>
<use x="56.04" y="317.00" xlink:href="#hd"/>
<path d="M52.54 317.00v18.20" class="stroke"/>
<use x="76.74" y="290.00" xlink:href="#hd"/>
<path d="M73.24 290.00v43.70" class="stroke"/>
<use x="91.54" y="296.00" xlink:href="#hd"/>
<path d="M88.04 296.00v36.60" class="stroke"/>
<use x="109.54" y="299.00" xlink:href="#hd"/>
<use x="100.54" y="299.00" xlink:href="#sh0"/>
<path d="M106.04 299.00v32.30" class="stroke"/>
<use x="124.34" y="302.00" xlink:href="#hd"/>
<path d="M120.84 302.00v28.20" class="stroke"/>
<use x="163.34" y="299.00" xlink:href="#hd"/>
<use x="154.34" y="299.00" xlink:href="#sh0"/>
<path d="M159.84 299.00v25.00" class="stroke"/>
<use x="163.34" y="305.00" xlink:href="#hd"/>
<use x="205.44" y="299.00" xlink:href="#hd"/>
<path d="M201.94 299.00v28.00" class="stroke"/>
<path class="fill"
	d="M201.94 327.00c0.6 -5.6 9.6 -9 5.6 -18.4
	1.6 6 -1.3 11.6 -5.6 12.8
"/>
<use x="205.44" y="308.00" xlink:href="#hd"/>
<use x="234.44" y="311.00" xlink:href="#hd"/>
<path d="M237.94 311.00v-25.00" class="stroke"/>
<use x="234.44" y="305.00" xlink:href="#hd"/>
<use x="293.64" y="305.00" xlink:href="#r8"/>
<path class="fill"
	d="M329.64 330.20l74.80 0.00v-3.20l-74.80 -0.00"/>
<path class="fill"
	d="M330.04 325.20l74.10 0.00v-3.20l-74.10 -0.00"/>
<use x="333.54" y="308.00" xlink:href="#hd"/>
<path d="M330.04 308.00v21.20" class="stroke"/>
<use x="348.34" y="302.00" xlink:href="#hd"/>
<path d="M344.84 302.00v27.20" class="stroke"/>
<use x="363.14" y="296.00" xlink:href="#hd"/>
<path d="M359.64 296.00v33.20" class="stroke"/>
<use x="377.94" y="302.00" xlink:href="#hd"/>
<path d="M374.44 302.00v27.20" class="stroke"/>
<use x="392.74" y="287.00" xlink:href="#hl"/>
<use x="392.74" y="287.00" xlink:href="#hd"/>
<path d="M389.24 287.00v42.20" class="stroke"/>
<use x="407.64" y="308.00" xlink:href="#hd"/>
<path d="M404.14 308.00v21.20" class="stroke"/>
<use x="432.64" y="317.00" xlink:href="#hd"/>
<path d="M436.14 317.00v-40.00" class="stroke"/>
<use x="432.64" y="296.00" xlink:href="#hd"/>
<use x="482.94" y="296.00" xlink:href="#hd"/>
<path d="M479.44 296.00v21.00" class="stroke"/>
<path class="fill"
	d="M479.44 317.00c0.6 -5.6 9.6 -9 5.6 -18.4
	1.6 6 -1.3 11.6 -5.6 12.8
"/>
<use x="511.94" y="302.00" xlink:href="#hd"/>
<path d="M508.44 302.00v25.00" class="stroke"/>
<use x="511.94" y="308.00" xlink:href="#hd"/>
<use x="571.14" y="296.00" xlink:href="#hd"/>
<path d="M567.64 296.00v25.00" class="stroke"/>
<path class="fill"
	d="M567.64 321.00c0.6 -5.6 9.6 -9 5.6 -18.4
	1.6 6 -1.3 11.6 -5.6 12.8
"/>
<use x="571.14" y="302.00" xlink:href="#hd"/>
<path class="fill"
	d="M607.14 324.90l74.80 0.00v-3.20l-74.80 -0.00"/>
<path class="fill"
	d="M607.54 319.90l74.10 0.00v-3.20l-74.10 -0.00"/>
<use x="611.04" y="302.00" xlink:href="#hd"/>
<path d="M607.54 302.00v21.90" class="stroke"/>
<use x="611.04" y="308.00" xlink:href="#hd"/>
<use x="625.84" y="296.00" xlink:href="#hd"/>
<path d="M622.34 296.00v27.90" class="stroke"/>
<use x="640.64" y="302.00" xlink:href="#hd"/>
<path d="M637.14 302.00v21.90" class="stroke"/>
<use x="640.64" y="308.00" xlink:href="#hd"/>
<use x="655.44" y="296.00" xlink:href="#hd"/>
<path d="M651.94 296.00v27.90" class="stroke"/>
<use x="670.24" y="302.00" xlink:href="#hd"/>
<path d="M666.74 302.00v21.90" class="stroke"/>
<use x="670.24" y="308.00" xlink:href="#hd"/>
<use x="685.04" y="296.00" xlink:href="#hd"/>
<path d="M681.54 296.00v27.90" class="stroke"/>
<use x="710.04" y="299.00" xlink:href="#hd"/>
<path d="M706.54 299.00v21.00" class="stroke"/>
<use x="760.44" y="296.00" xlink:href="#hd"/>
<path d="M756.94 296.00v21.00" class="stroke"/>
<path class="fill"
	d="M756.94 317.00c0.6 -5.6 9.6 -9 5.6 -18.4
	1.6 6 -1.3 11.6 -5.6 12.8
"/>
<path class="fill"
	d="M803.34 288.70l42.00 9.80v3.20l-42.00 -9.80"/>
<use x="800.24" y="308.00" xlink:href="#hd"/>
<path d="M803.74 308.00v-18.20" class="stroke"/>
<use x="820.84" y="317.00" xlink:href="#hd"/>
<path d="M824.34 317.00v-22.40" class="stroke"/>
<use x="841.54" y="323.00" xlink:href="#hl"/>
<use x="841.54" y="329.00" xlink:href="#hl"/>
<use x="841.54" y="329.00" xlink:href="#hd"/>
<path d="M845.04 329.00v-29.60" class="stroke"/>
</g>
</svg>
