<?xml version="1.0" standalone="no"?>
<!DOCTYPE svg PUBLIC "-//W3C//DTD SVG 1.1//EN"
	"http://www.w3.org/Graphics/SVG/1.1/DTD/svg11.dtd">
<svg xmlns="http://www.w3.org/2000/svg" version="1.1"
	xmlns:xlink="http://www.w3.org/1999/xlink"
	color="black"
	width="757.10px" height="300.73px">
<style type="text/css">
.fill {fill: currentColor}
.stroke {stroke: currentColor; fill: none}
text{white-space: pre}
</style>
<title>./K516f-6-5-8-12-12-5-4-11-5-10-11-5-6-6-12-9.abc (3590) tune 1</title>
<!-- Creator: abcm2ps-8.13.8 -->
<!-- CreationDate: Sep  7, 2017 11:20 -->
<!-- CommandLine: ./K516f-6-5-8-12-12-5-4-11-5-10-11-5-6-6-12-9.abc -O ./K516f-6-5-8-12-12-5-4-11-5-10-11-5-6-6-12-9.svg -g -->
<rect width="100%" height="100%" fill="white"/>
<g stroke-width="0.70" transform="scale(0.867)">
<!-- title: 6-5-8-12-12-5-4-11-5-10-11-5-6-6-12-9 -->
</g>
<g stroke-width="0.70" transform="scale(0.867)" font-family="Times" font-size="20.00">
<text x="436.84" y="22.00" text-anchor="middle">6-5-8-12-12-5-4-11-5-10-11-5-6-6-12-9</text>
</g>
<g stroke-width="0.70" transform="scale(0.867)" font-family="Times" font-size="20.00">
<!-- subtitle: $1K.516f::148:17:171:103:28:2:110:33:90:77:31:34:76:136:44:111::$0 -->
</g>
<g stroke-width="0.70" transform="scale(0.867)" font-family="Courier" font-size="8.00" font-weight="bold">
<text x="436.84" y="41.80" text-anchor="middle">K.516f::148:17:171:103:28:2:110:33:90:77:31:34:76:136:44:111::</text>
</g>
<g stroke-width="0.70" transform="scale(0.867)" font-family="Courier" font-size="8.00" font-weight="bold">
<!-- subtitle: $1Perm. No.: 359022892950980$0 -->
<text x="436.84" y="60.80" text-anchor="middle">Perm. No.: 359022892950980</text>
</g>
<g stroke-width="0.70" transform="scale(0.607)" font-family="Courier" font-size="8.00" font-weight="bold">
<defs>
<ellipse id="hd" rx="4.1" ry="2.9"
	transform="rotate(-20)" class="fill"/>
</defs>
<use x="103.06" y="121.29" xlink:href="#hd"/>
<path d="M106.56 121.29v-21.00" class="stroke"/>
<path class="fill"
	d="M106.56 100.29c0.6 5.6 9.6 9 5.6 18.4
	1.6 -6 -1.3 -11.6 -5.6 -12.8
"/>
</g>
<g stroke-width="0.70" transform="scale(0.867)" font-family="Times" font-size="15.00" font-weight="bold">
<text x="81.24" y="87.00">= 111</text>
<path class="stroke" stroke-width="1"
	d="M11.54 191.00v-82.00"/>
<path class="fill"
	d="M6.54 106.00
	c10.5 1 12 -4.5 12 -3.5c0 1 -3.5 5.5 -8.5 5.5
	v84.00
	c5 0 8.5 4.5 8.5 5.5c0 1 -1.5 -4.5 -12 -3.5"/>
<defs>
<g id="rdots" class="fill">
	<circle cx="0" cy="-9" r="1.2"/>
	<circle cx="0" cy="-15" r="1.2"/>
</g>
</defs>
<use x="70.54" y="133.00" xlink:href="#rdots"/>
<path class="stroke" stroke-width="1"
	d="M66.54 133.00v-24.00"/>
<path class="stroke" stroke-width="3"
	d="M62.04 133.00v-24.00"/>
<use x="70.54" y="191.00" xlink:href="#rdots"/>
<path class="stroke" stroke-width="1"
	d="M66.54 191.00v-58.00"/>
<path class="stroke" stroke-width="3"
	d="M62.04 191.00v-58.00"/>
<path class="stroke" stroke-width="1"
	d="M172.44 133.00v-24.00"/>
<path class="stroke" stroke-width="1"
	d="M172.44 191.00v-58.00"/>
<path class="stroke" stroke-width="1"
	d="M273.24 133.00v-24.00"/>
<path class="stroke" stroke-width="1"
	d="M273.24 191.00v-58.00"/>
<path class="stroke" stroke-width="1"
	d="M373.94 133.00v-24.00"/>
<path class="stroke" stroke-width="1"
	d="M373.94 191.00v-58.00"/>
<path class="stroke" stroke-width="1"
	d="M463.84 133.00v-24.00"/>
<path class="stroke" stroke-width="1"
	d="M463.84 191.00v-58.00"/>
<path class="stroke" stroke-width="1"
	d="M570.54 133.00v-24.00"/>
<path class="stroke" stroke-width="1"
	d="M570.54 191.00v-58.00"/>
<path class="stroke" stroke-width="1"
	d="M662.84 133.00v-24.00"/>
<path class="stroke" stroke-width="1"
	d="M662.84 191.00v-58.00"/>
<path class="stroke" stroke-width="1"
	d="M766.34 133.00v-24.00"/>
<path class="stroke" stroke-width="1"
	d="M766.34 191.00v-58.00"/>
<path class="stroke" stroke-width="3"
	d="M860.54 133.00v-24.00"/>
<path class="stroke" stroke-width="1"
	d="M856.04 133.00v-24.00"/>
<use x="852.04" y="133.00" xlink:href="#rdots"/>
<path class="stroke" stroke-width="3"
	d="M860.54 191.00v-58.00"/>
<path class="stroke" stroke-width="1"
	d="M856.04 191.00v-58.00"/>
<use x="852.04" y="191.00" xlink:href="#rdots"/>
<path d="m11.54 133.00
	h850.50
	M11.54 127.00
	h850.50
	M11.54 121.00
	h850.50
	M11.54 115.00
	h850.50
	M11.54 109.00
	h850.50
	" class="stroke"/>
<path d="m11.54 191.00
	h850.50
	M11.54 185.00
	h850.50
	M11.54 179.00
	h850.50
	M11.54 173.00
	h850.50
	M11.54 167.00
	h850.50
	" class="stroke"/>
<path class="fill"
	d="M675.34 127.00c2.15 4.11 11.49 5.55 13.64 2.10
	v0.21c-2.56 5.24 -11.08 3.80 -13.64 -2.31"/>
<path class="fill"
	d="M705.64 130.00c2.15 4.11 11.49 5.55 13.64 2.10
	v0.21c-2.56 5.24 -11.08 3.80 -13.64 -2.31"/>
<path class="fill"
	d="M735.84 133.00c2.36 4.46 12.64 7.34 15.00 4.20
	v0.22c-2.81 4.93 -12.19 2.05 -15.00 -4.41"/>
</g>
<g stroke-width="0.70" transform="scale(0.867)" font-family="Times" font-size="13.00">
<text x="770.34" y="94.40">1</text>
<path class="stroke"
	d="M766.34 83.00m0 20v-20h87.70v20"/>
<defs>
<path id="utclef" class="fill" d="m-50 -90
	c-72 -41 -72 -158 52 -188
	150 -10 220 188 90 256
	-114 52 -275 0 -293 -136
	-15 -181 93 -229 220 -334
	88 -87 79 -133 62 -210
	-51 33 -94 105 -89 186
	17 267 36 374 49 574
	6 96 -19 134 -77 135
	-80 1 -126 -93 -61 -133
	85 -41 133 101 31 105
	23 17 92 37 90 -92
	-10 -223 -39 -342 -50 -617
	0 -90 0 -162 96 -232
	56 72 63 230 22 289
	-74 106 -257 168 -255 316
	9 153 148 185 252 133
	86 -65 29 -192 -80 -176
	-71 12 -105 67 -59 124"/>
<use id="tclef" transform="translate(0,6) scale(0.045)"
	xlink:href="#utclef"/>
</defs>
<use x="23.54" y="127.00" xlink:href="#tclef"/>
<g font-family="serif" font-size="16" font-weight="bold" font-style="normal"
	transform="translate(42.04,132.50) scale(1.2,1)">
	<text text-anchor="middle">8</text>
	<text y="-12" text-anchor="middle">3</text>
</g>
<path class="fill"
	d="M80.24 130.80l76.60 9.40v-3.20l-76.60 -9.40"/>
<path class="fill"
	d="M80.54 125.90l75.90 9.30v-3.20l-75.90 -9.30"/>
<defs>
<path id="hl" class="stroke" d="m-6 0h12"/>
</defs>
<use x="84.04" y="103.00" xlink:href="#hl"/>
<use x="84.04" y="97.00" xlink:href="#hl"/>
<use x="84.04" y="97.00" xlink:href="#hd"/>
<path d="M80.54 97.00v32.90" class="stroke"/>
<use x="99.34" y="103.00" xlink:href="#hl"/>
<use x="99.34" y="100.00" xlink:href="#hd"/>
<path d="M95.84 100.00v31.80" class="stroke"/>
<use x="114.54" y="103.00" xlink:href="#hl"/>
<use x="114.54" y="97.00" xlink:href="#hl"/>
<use x="114.54" y="97.00" xlink:href="#hd"/>
<path d="M111.04 97.00v36.60" class="stroke"/>
<use x="129.74" y="106.00" xlink:href="#hd"/>
<path d="M126.24 106.00v29.50" class="stroke"/>
<use x="144.84" y="112.00" xlink:href="#hd"/>
<path d="M141.34 112.00v25.30" class="stroke"/>
<use x="159.94" y="118.00" xlink:href="#hd"/>
<path d="M156.44 118.00v21.20" class="stroke"/>
<path class="fill"
	d="M181.14 149.20l76.40 0.00v-3.20l-76.40 -0.00"/>
<path class="fill"
	d="M181.44 144.20l75.70 0.00v-3.20l-75.70 -0.00"/>
<use x="184.94" y="118.00" xlink:href="#hd"/>
<path d="M181.44 118.00v30.20" class="stroke"/>
<use x="200.14" y="127.00" xlink:href="#hd"/>
<path d="M196.64 127.00v21.20" class="stroke"/>
<use x="215.24" y="118.00" xlink:href="#hd"/>
<path d="M211.74 118.00v30.20" class="stroke"/>
<use x="230.44" y="112.00" xlink:href="#hd"/>
<path d="M226.94 112.00v36.20" class="stroke"/>
<use x="245.54" y="127.00" xlink:href="#hd"/>
<path d="M242.04 127.00v21.20" class="stroke"/>
<use x="260.74" y="118.00" xlink:href="#hd"/>
<path d="M257.24 118.00v30.20" class="stroke"/>
<path class="fill"
	d="M281.84 140.90l76.40 0.00v-3.20l-76.40 -0.00"/>
<path class="fill"
	d="M282.24 135.90l75.70 0.00v-3.20l-75.70 -0.00"/>
<use x="285.74" y="121.00" xlink:href="#hd"/>
<path d="M282.24 121.00v18.90" class="stroke"/>
<use x="300.84" y="118.00" xlink:href="#hd"/>
<path d="M297.34 118.00v21.90" class="stroke"/>
<use x="315.94" y="115.00" xlink:href="#hd"/>
<path d="M312.44 115.00v24.90" class="stroke"/>
<use x="331.14" y="112.00" xlink:href="#hd"/>
<path d="M327.64 112.00v27.90" class="stroke"/>
<use x="346.24" y="109.00" xlink:href="#hd"/>
<path d="M342.74 109.00v30.90" class="stroke"/>
<use x="361.44" y="115.00" xlink:href="#hd"/>
<path d="M357.94 115.00v24.90" class="stroke"/>
<path class="fill"
	d="M389.54 87.80l61.30 8.10v3.20l-61.30 -8.10"/>
<path class="fill"
	d="M389.94 92.80l45.40 6.00v3.20l-45.40 -6.00"/>
<use x="386.44" y="118.00" xlink:href="#hd"/>
<path d="M389.94 118.00v-29.20" class="stroke"/>
<use x="401.54" y="112.00" xlink:href="#hd"/>
<path d="M405.04 112.00v-21.20" class="stroke"/>
<use x="416.74" y="118.00" xlink:href="#hd"/>
<path d="M420.24 118.00v-25.20" class="stroke"/>
<use x="431.84" y="127.00" xlink:href="#hd"/>
<path d="M435.34 127.00v-32.20" class="stroke"/>
<use x="446.94" y="133.00" xlink:href="#hd"/>
<path d="M450.44 133.00v-36.20" class="stroke"/>
<path class="fill"
	d="M478.54 146.20l76.40 0.00v-3.20l-76.40 -0.00"/>
<path class="fill"
	d="M478.84 141.20l75.70 0.00v-3.20l-75.70 -0.00"/>
<use x="482.34" y="109.00" xlink:href="#hd"/>
<defs>
<path id="usharp" class="fill" d="
	m136 -702
	v890
	h32
	v-890
	m128 840
	h32
	v-888
	h-32
	m-232 286
	v116
	l338 -96
	v-116
	m-338 442
	v116
	l338 -98
	v-114"/>
<use id="sh0" transform="translate(-4,5) scale(0.018)"
	xlink:href="#usharp"/>
</defs>
<use x="473.34" y="109.00" xlink:href="#sh0"/>
<path d="M478.84 109.00v36.20" class="stroke"/>
<use x="497.44" y="115.00" xlink:href="#hd"/>
<path d="M493.94 115.00v30.20" class="stroke"/>
<use x="512.64" y="124.00" xlink:href="#hd"/>
<path d="M509.14 124.00v21.20" class="stroke"/>
<use x="527.74" y="103.00" xlink:href="#hl"/>
<use x="527.74" y="103.00" xlink:href="#hd"/>
<path d="M524.24 103.00v42.20" class="stroke"/>
<use x="542.94" y="109.00" xlink:href="#hd"/>
<path d="M539.44 109.00v36.20" class="stroke"/>
<use x="558.04" y="115.00" xlink:href="#hd"/>
<path d="M554.54 115.00v30.20" class="stroke"/>
<path class="fill"
	d="M586.24 93.20l67.90 -7.40v3.20l-67.90 7.40"/>
<path class="fill"
	d="M608.34 95.70l45.40 -4.90v3.20l-45.40 4.90"/>
<use x="583.04" y="124.00" xlink:href="#hd"/>
<path d="M586.54 124.00v-29.90" class="stroke"/>
<use x="604.84" y="130.00" xlink:href="#hd"/>
<use x="595.84" y="130.00" xlink:href="#sh0"/>
<path d="M608.34 130.00v-38.30" class="stroke"/>
<use x="620.04" y="127.00" xlink:href="#hd"/>
<path d="M623.54 127.00v-36.90" class="stroke"/>
<use x="635.14" y="121.00" xlink:href="#hd"/>
<path d="M638.64 121.00v-32.60" class="stroke"/>
<use x="650.34" y="106.00" xlink:href="#hd"/>
<path d="M653.84 106.00v-19.20" class="stroke"/>
<path class="fill"
	d="M678.44 96.80l79.30 0.00v3.20l-79.30 -0.00"/>
<path class="fill"
	d="M678.84 101.80l78.60 0.00v3.20l-78.60 -0.00"/>
<use x="675.34" y="121.00" xlink:href="#hd"/>
<path d="M678.84 121.00v-23.20" class="stroke"/>
<use x="675.34" y="115.00" xlink:href="#hd"/>
<use x="690.44" y="124.00" xlink:href="#hd"/>
<path d="M693.94 124.00v-26.20" class="stroke"/>
<use x="690.44" y="118.00" xlink:href="#hd"/>
<use x="705.64" y="124.00" xlink:href="#hd"/>
<path d="M709.14 124.00v-26.20" class="stroke"/>
<use x="705.64" y="118.00" xlink:href="#hd"/>
<use x="720.74" y="127.00" xlink:href="#hd"/>
<path d="M724.24 127.00v-29.20" class="stroke"/>
<use x="720.74" y="121.00" xlink:href="#hd"/>
<use x="735.84" y="127.00" xlink:href="#hd"/>
<path d="M739.34 127.00v-29.20" class="stroke"/>
<use x="735.84" y="121.00" xlink:href="#hd"/>
<use x="753.84" y="130.00" xlink:href="#hd"/>
<use x="744.84" y="130.00" xlink:href="#sh0"/>
<path d="M757.34 130.00v-32.20" class="stroke"/>
<use x="753.84" y="124.00" xlink:href="#hd"/>
<use x="778.84" y="106.00" xlink:href="#hd"/>
<path d="M775.34 106.00v40.00" class="stroke"/>
<use x="778.84" y="127.00" xlink:href="#hd"/>
<use x="778.84" y="121.00" xlink:href="#hd"/>
<use x="778.84" y="115.00" xlink:href="#hd"/>
<defs>
<path id="r8e" class="fill" d="m 0 0
	c-1.5 1.5 -2.4 2 -3.6 2
	2.4 -2.8 -2.8 -4 -2.8 -1.2
	c0 2.7 4.3 2.4 5.9 0.6"/>
<g id="r8">
	<path d="m3.3 -4l-3.4 9.6" class="stroke"/>
	<use x="3.4" y="-4" xlink:href="#r8e"/>
</g>
</defs>
<use x="833.14" y="121.00" xlink:href="#r8"/>
<defs>
<path id="ubclef" class="fill" d="m-200 -87
	c124 -35 222 -78 254 -236
	43 -228 -167 -246 -192 -103
	59 -80 157 22 92 78
	-62 47 -115 -22 -106 -88
	21 -141 270 -136 274 52
	-1 175 -106 264 -322 297
	m357 -250
	c0 -36 51 -34 51 0
	0 37 -51 36 -51 0
	m-2 -129
	c0 -36 51 -34 51 0
	0 38 -51 37 -51 0"/>
<use id="bclef" transform="translate(0,18) scale(0.045)"
	xlink:href="#ubclef"/>
</defs>
<use x="23.54" y="173.00" xlink:href="#bclef"/>
<g font-family="serif" font-size="16" font-weight="bold" font-style="normal"
	transform="translate(42.04,190.50) scale(1.2,1)">
	<text text-anchor="middle">8</text>
	<text y="-12" text-anchor="middle">3</text>
</g>
<use x="84.04" y="176.00" xlink:href="#hd"/>
<path d="M80.54 176.00v25.00" class="stroke"/>
<use x="84.04" y="182.00" xlink:href="#hd"/>
<use x="144.84" y="179.00" xlink:href="#r8"/>
<use x="184.94" y="170.00" xlink:href="#hd"/>
<path d="M181.44 170.00v25.00" class="stroke"/>
<use x="184.94" y="176.00" xlink:href="#hd"/>
<use x="245.54" y="179.00" xlink:href="#r8"/>
<use x="285.74" y="191.00" xlink:href="#hd"/>
<path d="M289.24 191.00v-40.00" class="stroke"/>
<use x="285.74" y="170.00" xlink:href="#hd"/>
<use x="346.24" y="170.00" xlink:href="#hd"/>
<path d="M342.74 170.00v34.00" class="stroke"/>
<path class="fill"
	d="M342.74 204.00c0.6 -5.6 9.6 -9 5.6 -18.4
	1.6 6 -1.3 11.6 -5.6 12.8
"/>
<use x="346.24" y="185.00" xlink:href="#hd"/>
<use x="386.44" y="176.00" xlink:href="#hd"/>
<path d="M382.94 176.00v25.00" class="stroke"/>
<use x="386.44" y="182.00" xlink:href="#hd"/>
<use x="446.94" y="179.00" xlink:href="#r8"/>
<use x="482.34" y="167.00" xlink:href="#hd"/>
<path d="M478.84 167.00v34.00" class="stroke"/>
<use x="482.34" y="182.00" xlink:href="#hd"/>
<use x="542.94" y="179.00" xlink:href="#r8"/>
<use x="583.04" y="170.00" xlink:href="#hd"/>
<path d="M579.54 170.00v34.00" class="stroke"/>
<use x="583.04" y="185.00" xlink:href="#hd"/>
<use x="635.14" y="179.00" xlink:href="#r8"/>
<path class="fill"
	d="M678.44 155.80l61.30 8.10v3.20l-61.30 -8.10"/>
<use x="675.34" y="182.00" xlink:href="#hd"/>
<path d="M678.84 182.00v-25.20" class="stroke"/>
<use x="705.64" y="179.00" xlink:href="#hd"/>
<path d="M709.14 179.00v-18.20" class="stroke"/>
<use x="735.84" y="197.00" xlink:href="#hl"/>
<use x="735.84" y="200.00" xlink:href="#hd"/>
<path d="M739.34 200.00v-35.20" class="stroke"/>
<path class="fill"
	d="M775.04 210.20l70.10 0.00v-3.20l-70.10 -0.00"/>
<path class="fill"
	d="M796.54 205.20l48.30 0.00v-3.20l-48.30 -0.00"/>
<use x="778.84" y="191.00" xlink:href="#hd"/>
<path d="M775.34 191.00v18.20" class="stroke"/>
<use x="800.04" y="170.00" xlink:href="#hd"/>
<path d="M796.54 170.00v39.20" class="stroke"/>
<use x="818.04" y="173.00" xlink:href="#hd"/>
<defs>
<path id="unat" class="fill" d="
	m96 -750
	h-32
	v716
	l32 -8
	182 -54
	v282
	h32
	v-706
	l-34 10
	-180 50
	v-290
	m0 592
	v-190
	l182 -52
	v188"/>
<use id="nt0" transform="translate(-3,5) scale(0.018)"
	xlink:href="#unat"/>
</defs>
<use x="809.04" y="173.00" xlink:href="#nt0"/>
<path d="M814.54 173.00v36.20" class="stroke"/>
<use x="833.14" y="176.00" xlink:href="#hd"/>
<path d="M829.64 176.00v33.20" class="stroke"/>
<use x="848.34" y="179.00" xlink:href="#hd"/>
<path d="M844.84 179.00v30.20" class="stroke"/>
</g>
<g stroke-width="0.70" transform="scale(0.867)" font-family="Times" font-size="13.00">
<path class="stroke" stroke-width="1"
	d="M11.54 324.00v-82.00"/>
<path class="fill"
	d="M6.54 239.00
	c10.5 1 12 -4.5 12 -3.5c0 1 -3.5 5.5 -8.5 5.5
	v84.00
	c5 0 8.5 4.5 8.5 5.5c0 1 -1.5 -4.5 -12 -3.5"/>
<use x="143.84" y="266.00" xlink:href="#rdots"/>
<path class="stroke" stroke-width="1"
	d="M139.84 266.00v-24.00"/>
<path class="stroke" stroke-width="3"
	d="M135.34 266.00v-24.00"/>
<use x="143.84" y="324.00" xlink:href="#rdots"/>
<path class="stroke" stroke-width="1"
	d="M139.84 324.00v-58.00"/>
<path class="stroke" stroke-width="3"
	d="M135.34 324.00v-58.00"/>
<path class="stroke" stroke-width="1"
	d="M250.14 266.00v-24.00"/>
<path class="stroke" stroke-width="1"
	d="M250.14 324.00v-58.00"/>
<path class="stroke" stroke-width="1"
	d="M329.34 266.00v-24.00"/>
<path class="stroke" stroke-width="1"
	d="M329.34 324.00v-58.00"/>
<path class="stroke" stroke-width="1"
	d="M410.84 266.00v-24.00"/>
<path class="stroke" stroke-width="1"
	d="M410.84 324.00v-58.00"/>
<path class="stroke" stroke-width="1"
	d="M499.14 266.00v-24.00"/>
<path class="stroke" stroke-width="1"
	d="M499.14 324.00v-58.00"/>
<path class="stroke" stroke-width="1"
	d="M598.34 266.00v-24.00"/>
<path class="stroke" stroke-width="1"
	d="M598.34 324.00v-58.00"/>
<path class="stroke" stroke-width="1"
	d="M697.64 266.00v-24.00"/>
<path class="stroke" stroke-width="1"
	d="M697.64 324.00v-58.00"/>
<path class="stroke" stroke-width="1"
	d="M787.74 266.00v-24.00"/>
<path class="stroke" stroke-width="1"
	d="M787.74 324.00v-58.00"/>
<path class="stroke" stroke-width="3"
	d="M860.54 266.00v-24.00"/>
<path class="stroke" stroke-width="1"
	d="M856.04 266.00v-24.00"/>
<use x="852.04" y="266.00" xlink:href="#rdots"/>
<path class="stroke" stroke-width="3"
	d="M860.54 324.00v-58.00"/>
<path class="stroke" stroke-width="1"
	d="M856.04 324.00v-58.00"/>
<use x="852.04" y="324.00" xlink:href="#rdots"/>
<path d="m11.54 266.00
	h850.50
	M11.54 260.00
	h850.50
	M11.54 254.00
	h850.50
	M11.54 248.00
	h850.50
	M11.54 242.00
	h850.50
	" class="stroke"/>
<path d="m11.54 324.00
	h850.50
	M11.54 318.00
	h850.50
	M11.54 312.00
	h850.50
	M11.54 306.00
	h850.50
	M11.54 300.00
	h850.50
	" class="stroke"/>
<text x="47.54" y="227.40">2</text>
<path class="stroke"
	d="M43.54 216.00m0 20v-20h89.30v20"/>
<use x="23.54" y="260.00" xlink:href="#tclef"/>
<use x="56.04" y="239.00" xlink:href="#hd"/>
<path d="M52.54 239.00v40.00" class="stroke"/>
<use x="56.04" y="260.00" xlink:href="#hd"/>
<use x="56.04" y="254.00" xlink:href="#hd"/>
<use x="56.04" y="248.00" xlink:href="#hd"/>
<use x="109.54" y="254.00" xlink:href="#r8"/>
<path class="fill"
	d="M159.44 266.20l75.00 0.00v-3.20l-75.00 -0.00"/>
<path class="fill"
	d="M159.84 261.20l74.30 0.00v-3.20l-74.30 -0.00"/>
<use x="163.34" y="242.00" xlink:href="#hd"/>
<use x="154.34" y="242.00" xlink:href="#sh0"/>
<path d="M159.84 242.00v23.20" class="stroke"/>
<use x="178.14" y="236.00" xlink:href="#hl"/>
<use x="178.14" y="236.00" xlink:href="#hd"/>
<path d="M174.64 236.00v29.20" class="stroke"/>
<use x="193.04" y="236.00" xlink:href="#hl"/>
<use x="193.04" y="230.00" xlink:href="#hl"/>
<use x="193.04" y="227.00" xlink:href="#hd"/>
<path d="M189.54 227.00v38.20" class="stroke"/>
<use x="207.94" y="236.00" xlink:href="#hl"/>
<use x="207.94" y="236.00" xlink:href="#hd"/>
<path d="M204.44 236.00v29.20" class="stroke"/>
<use x="222.74" y="242.00" xlink:href="#hd"/>
<path d="M219.24 242.00v23.20" class="stroke"/>
<use x="237.64" y="236.00" xlink:href="#hl"/>
<use x="237.64" y="236.00" xlink:href="#hd"/>
<path d="M234.14 236.00v29.20" class="stroke"/>
<path class="fill"
	d="M258.74 262.20l51.00 5.00v-3.20l-51.00 -5.00"/>
<path class="fill"
	d="M259.14 257.30l14.80 1.50v-3.20l-14.80 -1.50"/>
<use x="262.64" y="239.00" xlink:href="#hd"/>
<path d="M259.14 239.00v22.30" class="stroke"/>
<use x="277.44" y="236.00" xlink:href="#hl"/>
<use x="277.44" y="233.00" xlink:href="#hd"/>
<path d="M273.94 233.00v29.70" class="stroke"/>
<use x="292.24" y="239.00" xlink:href="#hd"/>
<path d="M288.74 239.00v25.20" class="stroke"/>
<use x="312.84" y="248.00" xlink:href="#hd"/>
<path d="M309.34 248.00v18.20" class="stroke"/>
<path class="fill"
	d="M338.04 273.50l30.30 5.70v-3.20l-30.30 -5.70"/>
<path class="fill"
	d="M338.34 268.60l14.80 2.80v-3.20l-14.80 -2.80"/>
<use x="341.84" y="245.00" xlink:href="#hd"/>
<path d="M338.34 245.00v27.60" class="stroke"/>
<use x="356.64" y="251.00" xlink:href="#hd"/>
<path d="M353.14 251.00v24.40" class="stroke"/>
<use x="371.44" y="260.00" xlink:href="#hd"/>
<path d="M367.94 260.00v18.20" class="stroke"/>
<use x="394.34" y="245.00" xlink:href="#hd"/>
<path d="M390.84 245.00v21.00" class="stroke"/>
<path class="fill"
	d="M390.84 266.00c0.6 -5.6 9.6 -9 5.6 -18.4
	1.6 6 -1.3 11.6 -5.6 12.8
"/>
<path class="fill"
	d="M419.54 272.90l59.90 6.30v-3.20l-59.90 -6.30"/>
<path class="fill"
	d="M419.84 268.00l44.40 4.70v-3.20l-44.40 -4.70"/>
<use x="423.34" y="245.00" xlink:href="#hd"/>
<path d="M419.84 245.00v27.00" class="stroke"/>
<use x="438.14" y="251.00" xlink:href="#hd"/>
<path d="M434.64 251.00v22.50" class="stroke"/>
<use x="452.94" y="248.00" xlink:href="#hd"/>
<path d="M449.44 248.00v27.10" class="stroke"/>
<use x="467.74" y="254.00" xlink:href="#hd"/>
<path d="M464.24 254.00v22.60" class="stroke"/>
<use x="482.54" y="260.00" xlink:href="#hd"/>
<path d="M479.04 260.00v18.20" class="stroke"/>
<path class="fill"
	d="M507.74 263.90l75.00 9.30v-3.20l-75.00 -9.30"/>
<path class="fill"
	d="M508.14 258.90l74.30 9.30v-3.20l-74.30 -9.30"/>
<use x="511.64" y="236.00" xlink:href="#hl"/>
<use x="511.64" y="230.00" xlink:href="#hl"/>
<use x="511.64" y="230.00" xlink:href="#hd"/>
<path d="M508.14 230.00v32.90" class="stroke"/>
<use x="526.54" y="236.00" xlink:href="#hl"/>
<use x="526.54" y="233.00" xlink:href="#hd"/>
<path d="M523.04 233.00v31.80" class="stroke"/>
<use x="541.44" y="236.00" xlink:href="#hl"/>
<use x="541.44" y="230.00" xlink:href="#hl"/>
<use x="541.44" y="230.00" xlink:href="#hd"/>
<path d="M537.94 230.00v36.70" class="stroke"/>
<use x="556.24" y="239.00" xlink:href="#hd"/>
<path d="M552.74 239.00v29.50" class="stroke"/>
<use x="571.04" y="245.00" xlink:href="#hd"/>
<path d="M567.54 245.00v25.40" class="stroke"/>
<use x="585.84" y="251.00" xlink:href="#hd"/>
<path d="M582.34 251.00v21.20" class="stroke"/>
<path class="fill"
	d="M607.04 263.90l75.00 9.30v-3.20l-75.00 -9.30"/>
<path class="fill"
	d="M607.34 258.90l74.30 9.30v-3.20l-74.30 -9.30"/>
<use x="610.84" y="236.00" xlink:href="#hl"/>
<use x="610.84" y="230.00" xlink:href="#hl"/>
<use x="610.84" y="230.00" xlink:href="#hd"/>
<path d="M607.34 230.00v32.90" class="stroke"/>
<use x="625.84" y="236.00" xlink:href="#hl"/>
<use x="625.84" y="233.00" xlink:href="#hd"/>
<path d="M622.34 233.00v31.80" class="stroke"/>
<use x="640.74" y="236.00" xlink:href="#hl"/>
<use x="640.74" y="230.00" xlink:href="#hl"/>
<use x="640.74" y="230.00" xlink:href="#hd"/>
<path d="M637.24 230.00v36.70" class="stroke"/>
<use x="655.54" y="239.00" xlink:href="#hd"/>
<path d="M652.04 239.00v29.50" class="stroke"/>
<use x="670.34" y="245.00" xlink:href="#hd"/>
<path d="M666.84 245.00v25.40" class="stroke"/>
<use x="685.14" y="251.00" xlink:href="#hd"/>
<path d="M681.64 251.00v21.20" class="stroke"/>
<path class="fill"
	d="M706.34 276.20l65.80 -8.10v-3.20l-65.80 8.10"/>
<path class="fill"
	d="M727.34 268.70l44.40 -5.50v-3.20l-44.40 5.50"/>
<use x="710.14" y="257.00" xlink:href="#hd"/>
<path d="M706.64 257.00v18.20" class="stroke"/>
<use x="730.84" y="242.00" xlink:href="#hd"/>
<path d="M727.34 242.00v30.70" class="stroke"/>
<use x="745.64" y="248.00" xlink:href="#hd"/>
<path d="M742.14 248.00v22.80" class="stroke"/>
<use x="760.44" y="236.00" xlink:href="#hl"/>
<use x="760.44" y="236.00" xlink:href="#hd"/>
<path d="M756.94 236.00v33.00" class="stroke"/>
<use x="775.24" y="239.00" xlink:href="#hd"/>
<path d="M771.74 239.00v28.20" class="stroke"/>
<use x="800.24" y="251.00" xlink:href="#hd"/>
<path d="M796.74 251.00v21.00" class="stroke"/>
<use x="841.54" y="254.00" xlink:href="#r8"/>
<use x="23.54" y="306.00" xlink:href="#bclef"/>
<path class="fill"
	d="M52.24 343.20l69.00 -5.00v-3.20l-69.00 5.00"/>
<path class="fill"
	d="M73.24 336.70l47.60 -3.50v-3.20l-47.60 3.50"/>
<use x="56.04" y="324.00" xlink:href="#hd"/>
<path d="M52.54 324.00v18.20" class="stroke"/>
<use x="76.74" y="297.00" xlink:href="#hd"/>
<path d="M73.24 297.00v43.70" class="stroke"/>
<use x="91.54" y="303.00" xlink:href="#hd"/>
<path d="M88.04 303.00v36.60" class="stroke"/>
<use x="109.54" y="306.00" xlink:href="#hd"/>
<use x="100.54" y="306.00" xlink:href="#sh0"/>
<path d="M106.04 306.00v32.30" class="stroke"/>
<use x="124.34" y="309.00" xlink:href="#hd"/>
<path d="M120.84 309.00v28.20" class="stroke"/>
<use x="163.34" y="300.00" xlink:href="#hd"/>
<path d="M159.84 300.00v34.00" class="stroke"/>
<use x="163.34" y="315.00" xlink:href="#hd"/>
<use x="222.74" y="300.00" xlink:href="#hd"/>
<path d="M219.24 300.00v34.00" class="stroke"/>
<path class="fill"
	d="M219.24 334.00c0.6 -5.6 9.6 -9 5.6 -18.4
	1.6 6 -1.3 11.6 -5.6 12.8
"/>
<use x="222.74" y="315.00" xlink:href="#hd"/>
<use x="262.64" y="318.00" xlink:href="#hd"/>
<path d="M266.14 318.00v-25.00" class="stroke"/>
<use x="262.64" y="312.00" xlink:href="#hd"/>
<use x="312.84" y="303.00" xlink:href="#hd"/>
<path d="M309.34 303.00v34.00" class="stroke"/>
<path class="fill"
	d="M309.34 337.00c0.6 -5.6 9.6 -9 5.6 -18.4
	1.6 6 -1.3 11.6 -5.6 12.8
"/>
<use x="312.84" y="318.00" xlink:href="#hd"/>
<use x="341.84" y="303.00" xlink:href="#hd"/>
<path d="M338.34 303.00v31.00" class="stroke"/>
<use x="341.84" y="315.00" xlink:href="#hd"/>
<use x="394.34" y="303.00" xlink:href="#hd"/>
<path d="M390.84 303.00v31.00" class="stroke"/>
<path class="fill"
	d="M390.84 334.00c0.6 -5.6 9.6 -9 5.6 -18.4
	1.6 6 -1.3 11.6 -5.6 12.8
"/>
<use x="394.34" y="315.00" xlink:href="#hd"/>
<use x="423.34" y="303.00" xlink:href="#hd"/>
<path d="M419.84 303.00v21.00" class="stroke"/>
<use x="482.54" y="312.00" xlink:href="#r8"/>
<use x="511.64" y="309.00" xlink:href="#hd"/>
<path d="M508.14 309.00v25.00" class="stroke"/>
<use x="511.64" y="315.00" xlink:href="#hd"/>
<use x="571.04" y="303.00" xlink:href="#hd"/>
<path d="M567.54 303.00v31.00" class="stroke"/>
<path class="fill"
	d="M567.54 334.00c0.6 -5.6 9.6 -9 5.6 -18.4
	1.6 6 -1.3 11.6 -5.6 12.8
"/>
<use x="571.04" y="315.00" xlink:href="#hd"/>
<use x="610.84" y="309.00" xlink:href="#hd"/>
<path d="M607.34 309.00v25.00" class="stroke"/>
<use x="610.84" y="315.00" xlink:href="#hd"/>
<use x="670.34" y="312.00" xlink:href="#r8"/>
<use x="710.14" y="306.00" xlink:href="#hd"/>
<path d="M706.64 306.00v21.00" class="stroke"/>
<use x="760.44" y="303.00" xlink:href="#hd"/>
<path d="M756.94 303.00v21.00" class="stroke"/>
<path class="fill"
	d="M756.94 324.00c0.6 -5.6 9.6 -9 5.6 -18.4
	1.6 6 -1.3 11.6 -5.6 12.8
"/>
<path class="fill"
	d="M803.34 295.70l42.00 9.80v3.20l-42.00 -9.80"/>
<use x="800.24" y="315.00" xlink:href="#hd"/>
<path d="M803.74 315.00v-18.20" class="stroke"/>
<use x="820.84" y="324.00" xlink:href="#hd"/>
<path d="M824.34 324.00v-22.40" class="stroke"/>
<use x="841.54" y="330.00" xlink:href="#hl"/>
<use x="841.54" y="336.00" xlink:href="#hl"/>
<use x="841.54" y="336.00" xlink:href="#hd"/>
<path d="M845.04 336.00v-29.60" class="stroke"/>
</g>
</svg>
