<?xml version="1.0" standalone="no"?>
<!DOCTYPE svg PUBLIC "-//W3C//DTD SVG 1.1//EN"
	"http://www.w3.org/Graphics/SVG/1.1/DTD/svg11.dtd">
<svg xmlns="http://www.w3.org/2000/svg" version="1.1"
	xmlns:xlink="http://www.w3.org/1999/xlink"
	color="black"
	width="757.10px" height="293.80px">
<style type="text/css">
.fill {fill: currentColor}
.stroke {stroke: currentColor; fill: none}
text{white-space: pre}
</style>
<title>./K516f-9-11-5-4-11-5-12-3-5-9-10-7-4-10-4-7.abc (9487) tune 1</title>
<!-- Creator: abcm2ps-8.13.8 -->
<!-- CreationDate: Sep  7, 2017 11:17 -->
<!-- CommandLine: ./K516f-9-11-5-4-11-5-12-3-5-9-10-7-4-10-4-7.abc -O ./K516f-9-11-5-4-11-5-12-3-5-9-10-7-4-10-4-7.svg -g -->
<rect width="100%" height="100%" fill="white"/>
<g stroke-width="0.70" transform="scale(0.867)">
<!-- title: 9-11-5-4-11-5-12-3-5-9-10-7-4-10-4-7 -->
</g>
<g stroke-width="0.70" transform="scale(0.867)" font-family="Times" font-size="20.00">
<text x="436.84" y="22.00" text-anchor="middle">9-11-5-4-11-5-12-3-5-9-10-7-4-10-4-7</text>
</g>
<g stroke-width="0.70" transform="scale(0.867)" font-family="Times" font-size="20.00">
<!-- subtitle: $1K.516f::119:87:113:13:135:2:106:81:90:88:19:29:73:38:145:151::$0 -->
</g>
<g stroke-width="0.70" transform="scale(0.867)" font-family="Courier" font-size="8.00" font-weight="bold">
<text x="436.84" y="41.80" text-anchor="middle">K.516f::119:87:113:13:135:2:106:81:90:88:19:29:73:38:145:151::</text>
</g>
<g stroke-width="0.70" transform="scale(0.867)" font-family="Courier" font-size="8.00" font-weight="bold">
<!-- subtitle: $1Perm. No.: 94873602654729$0 -->
<text x="436.84" y="60.80" text-anchor="middle">Perm. No.: 94873602654729</text>
</g>
<g stroke-width="0.70" transform="scale(0.607)" font-family="Courier" font-size="8.00" font-weight="bold">
<defs>
<ellipse id="hd" rx="4.1" ry="2.9"
	transform="rotate(-20)" class="fill"/>
</defs>
<use x="103.06" y="121.29" xlink:href="#hd"/>
<path d="M106.56 121.29v-21.00" class="stroke"/>
<path class="fill"
	d="M106.56 100.29c0.6 5.6 9.6 9 5.6 18.4
	1.6 -6 -1.3 -11.6 -5.6 -12.8
"/>
</g>
<g stroke-width="0.70" transform="scale(0.867)" font-family="Times" font-size="15.00" font-weight="bold">
<text x="81.24" y="87.00">= 111</text>
<path class="stroke" stroke-width="1"
	d="M11.54 183.00v-82.00"/>
<path class="fill"
	d="M6.54 98.00
	c10.5 1 12 -4.5 12 -3.5c0 1 -3.5 5.5 -8.5 5.5
	v84.00
	c5 0 8.5 4.5 8.5 5.5c0 1 -1.5 -4.5 -12 -3.5"/>
<defs>
<g id="rdots" class="fill">
	<circle cx="0" cy="-9" r="1.2"/>
	<circle cx="0" cy="-15" r="1.2"/>
</g>
</defs>
<use x="70.54" y="125.00" xlink:href="#rdots"/>
<path class="stroke" stroke-width="1"
	d="M66.54 125.00v-24.00"/>
<path class="stroke" stroke-width="3"
	d="M62.04 125.00v-24.00"/>
<use x="70.54" y="183.00" xlink:href="#rdots"/>
<path class="stroke" stroke-width="1"
	d="M66.54 183.00v-58.00"/>
<path class="stroke" stroke-width="3"
	d="M62.04 183.00v-58.00"/>
<path class="stroke" stroke-width="1"
	d="M187.84 125.00v-24.00"/>
<path class="stroke" stroke-width="1"
	d="M187.84 183.00v-58.00"/>
<path class="stroke" stroke-width="1"
	d="M271.34 125.00v-24.00"/>
<path class="stroke" stroke-width="1"
	d="M271.34 183.00v-58.00"/>
<path class="stroke" stroke-width="1"
	d="M354.94 125.00v-24.00"/>
<path class="stroke" stroke-width="1"
	d="M354.94 183.00v-58.00"/>
<path class="stroke" stroke-width="1"
	d="M438.44 125.00v-24.00"/>
<path class="stroke" stroke-width="1"
	d="M438.44 183.00v-58.00"/>
<path class="stroke" stroke-width="1"
	d="M541.94 125.00v-24.00"/>
<path class="stroke" stroke-width="1"
	d="M541.94 183.00v-58.00"/>
<path class="stroke" stroke-width="1"
	d="M647.94 125.00v-24.00"/>
<path class="stroke" stroke-width="1"
	d="M647.94 183.00v-58.00"/>
<path class="stroke" stroke-width="1"
	d="M753.84 125.00v-24.00"/>
<path class="stroke" stroke-width="1"
	d="M753.84 183.00v-58.00"/>
<path class="stroke" stroke-width="3"
	d="M860.54 125.00v-24.00"/>
<path class="stroke" stroke-width="1"
	d="M856.04 125.00v-24.00"/>
<use x="852.04" y="125.00" xlink:href="#rdots"/>
<path class="stroke" stroke-width="3"
	d="M860.54 183.00v-58.00"/>
<path class="stroke" stroke-width="1"
	d="M856.04 183.00v-58.00"/>
<use x="852.04" y="183.00" xlink:href="#rdots"/>
<path d="m11.54 125.00
	h850.50
	M11.54 119.00
	h850.50
	M11.54 113.00
	h850.50
	M11.54 107.00
	h850.50
	M11.54 101.00
	h850.50
	" class="stroke"/>
<path d="m11.54 183.00
	h850.50
	M11.54 177.00
	h850.50
	M11.54 171.00
	h850.50
	M11.54 165.00
	h850.50
	M11.54 159.00
	h850.50
	" class="stroke"/>
<path class="fill"
	d="M368.84 121.00c7.13 5.40 38.95 10.65 46.08 7.60
	v0.25c-8.51 4.80 -37.56 -0.45 -46.08 -7.85"/>
</g>
<g stroke-width="0.70" transform="scale(0.867)" font-family="Times" font-size="13.00">
<text x="757.84" y="86.40">1</text>
<path class="stroke"
	d="M753.84 75.00m0 20v-20h100.20v20"/>
<defs>
<path id="utclef" class="fill" d="m-50 -90
	c-72 -41 -72 -158 52 -188
	150 -10 220 188 90 256
	-114 52 -275 0 -293 -136
	-15 -181 93 -229 220 -334
	88 -87 79 -133 62 -210
	-51 33 -94 105 -89 186
	17 267 36 374 49 574
	6 96 -19 134 -77 135
	-80 1 -126 -93 -61 -133
	85 -41 133 101 31 105
	23 17 92 37 90 -92
	-10 -223 -39 -342 -50 -617
	0 -90 0 -162 96 -232
	56 72 63 230 22 289
	-74 106 -257 168 -255 316
	9 153 148 185 252 133
	86 -65 29 -192 -80 -176
	-71 12 -105 67 -59 124"/>
<use id="tclef" transform="translate(0,6) scale(0.045)"
	xlink:href="#utclef"/>
</defs>
<use x="23.54" y="119.00" xlink:href="#tclef"/>
<g font-family="serif" font-size="16" font-weight="bold" font-style="normal"
	transform="translate(42.04,124.50) scale(1.2,1)">
	<text text-anchor="middle">8</text>
	<text y="-12" text-anchor="middle">3</text>
</g>
<path class="fill"
	d="M81.64 133.50l89.20 -6.20v-3.20l-89.20 6.20"/>
<path class="fill"
	d="M82.04 128.40l88.50 -6.20v-3.20l-88.50 6.20"/>
<use x="85.54" y="104.00" xlink:href="#hd"/>
<path d="M82.04 104.00v28.40" class="stroke"/>
<use x="103.24" y="110.00" xlink:href="#hd"/>
<path d="M99.74 110.00v21.20" class="stroke"/>
<use x="120.94" y="98.00" xlink:href="#hd"/>
<path d="M117.44 98.00v32.00" class="stroke"/>
<use x="138.64" y="104.00" xlink:href="#hd"/>
<path d="M135.14 104.00v24.70" class="stroke"/>
<defs>
<path id="hl" class="stroke" d="m-6 0h12"/>
</defs>
<use x="156.34" y="95.00" xlink:href="#hl"/>
<use x="156.34" y="89.00" xlink:href="#hl"/>
<use x="156.34" y="89.00" xlink:href="#hd"/>
<path d="M152.84 89.00v38.50" class="stroke"/>
<use x="174.04" y="98.00" xlink:href="#hd"/>
<path d="M170.54 98.00v28.20" class="stroke"/>
<path class="fill"
	d="M197.94 127.60l50.80 3.20v-3.20l-50.80 -3.20"/>
<use x="201.84" y="98.00" xlink:href="#hd"/>
<path d="M198.34 98.00v28.60" class="stroke"/>
<use x="226.84" y="110.00" xlink:href="#hd"/>
<path d="M223.34 110.00v18.20" class="stroke"/>
<use x="251.84" y="104.00" xlink:href="#hd"/>
<path d="M248.34 104.00v25.80" class="stroke"/>
<path class="fill"
	d="M281.44 124.00l50.80 8.20v-3.20l-50.80 -8.20"/>
<use x="285.34" y="101.00" xlink:href="#hd"/>
<path d="M281.84 101.00v22.10" class="stroke"/>
<use x="310.34" y="107.00" xlink:href="#hd"/>
<path d="M306.84 107.00v20.10" class="stroke"/>
<use x="335.44" y="113.00" xlink:href="#hd"/>
<path d="M331.94 113.00v18.20" class="stroke"/>
<path class="fill"
	d="M372.04 90.80l50.80 6.70v3.20l-50.80 -6.70"/>
<use x="368.84" y="110.00" xlink:href="#hd"/>
<path d="M372.34 110.00v-18.20" class="stroke"/>
<use x="393.94" y="119.00" xlink:href="#hd"/>
<path d="M397.44 119.00v-23.90" class="stroke"/>
<use x="418.94" y="125.00" xlink:href="#hd"/>
<path d="M422.44 125.00v-26.60" class="stroke"/>
<path class="fill"
	d="M453.14 127.00l61.20 0.00v-3.20l-61.20 -0.00"/>
<path class="fill"
	d="M478.54 122.00l17.70 0.00v-3.20l-17.70 -0.00"/>
<use x="456.94" y="101.00" xlink:href="#hd"/>
<defs>
<path id="usharp" class="fill" d="
	m136 -702
	v890
	h32
	v-890
	m128 840
	h32
	v-888
	h-32
	m-232 286
	v116
	l338 -96
	v-116
	m-338 442
	v116
	l338 -98
	v-114"/>
<use id="sh0" transform="translate(-4,5) scale(0.018)"
	xlink:href="#usharp"/>
</defs>
<use x="447.94" y="101.00" xlink:href="#sh0"/>
<path d="M453.44 101.00v25.00" class="stroke"/>
<use x="482.04" y="101.00" xlink:href="#hd"/>
<path d="M478.54 101.00v25.00" class="stroke"/>
<use x="499.74" y="107.00" xlink:href="#hd"/>
<path d="M496.24 107.00v19.00" class="stroke"/>
<use x="517.44" y="95.00" xlink:href="#hl"/>
<use x="517.44" y="95.00" xlink:href="#hd"/>
<path d="M513.94 95.00v31.00" class="stroke"/>
<path class="fill"
	d="M559.04 85.40l78.90 -7.60v3.20l-78.90 7.60"/>
<path class="fill"
	d="M584.54 87.90l53.10 -5.10v3.20l-53.10 5.10"/>
<use x="555.94" y="116.00" xlink:href="#hd"/>
<path d="M559.44 116.00v-29.60" class="stroke"/>
<use x="581.04" y="122.00" xlink:href="#hd"/>
<use x="572.04" y="122.00" xlink:href="#sh0"/>
<path d="M584.54 122.00v-38.10" class="stroke"/>
<use x="598.74" y="119.00" xlink:href="#hd"/>
<path d="M602.24 119.00v-36.80" class="stroke"/>
<use x="616.44" y="113.00" xlink:href="#hd"/>
<path d="M619.94 113.00v-32.50" class="stroke"/>
<use x="634.14" y="98.00" xlink:href="#hd"/>
<path d="M637.64 98.00v-19.20" class="stroke"/>
<path class="fill"
	d="M658.04 138.20l78.80 0.00v-3.20l-78.80 -0.00"/>
<path class="fill"
	d="M683.44 133.20l53.10 0.00v-3.20l-53.10 -0.00"/>
<use x="661.94" y="116.00" xlink:href="#hd"/>
<path d="M658.44 116.00v21.20" class="stroke"/>
<use x="686.94" y="107.00" xlink:href="#hd"/>
<path d="M683.44 107.00v30.20" class="stroke"/>
<use x="704.64" y="110.00" xlink:href="#hd"/>
<path d="M701.14 110.00v27.20" class="stroke"/>
<use x="722.34" y="113.00" xlink:href="#hd"/>
<path d="M718.84 113.00v24.20" class="stroke"/>
<use x="740.04" y="116.00" xlink:href="#hd"/>
<path d="M736.54 116.00v21.20" class="stroke"/>
<use x="767.84" y="98.00" xlink:href="#hd"/>
<path d="M764.34 98.00v40.00" class="stroke"/>
<use x="767.84" y="119.00" xlink:href="#hd"/>
<use x="767.84" y="113.00" xlink:href="#hd"/>
<use x="767.84" y="107.00" xlink:href="#hd"/>
<defs>
<path id="r8e" class="fill" d="m 0 0
	c-1.5 1.5 -2.4 2 -3.6 2
	2.4 -2.8 -2.8 -4 -2.8 -1.2
	c0 2.7 4.3 2.4 5.9 0.6"/>
<g id="r8">
	<path d="m3.3 -4l-3.4 9.6" class="stroke"/>
	<use x="3.4" y="-4" xlink:href="#r8e"/>
</g>
</defs>
<use x="828.54" y="113.00" xlink:href="#r8"/>
<defs>
<path id="ubclef" class="fill" d="m-200 -87
	c124 -35 222 -78 254 -236
	43 -228 -167 -246 -192 -103
	59 -80 157 22 92 78
	-62 47 -115 -22 -106 -88
	21 -141 270 -136 274 52
	-1 175 -106 264 -322 297
	m357 -250
	c0 -36 51 -34 51 0
	0 37 -51 36 -51 0
	m-2 -129
	c0 -36 51 -34 51 0
	0 38 -51 37 -51 0"/>
<use id="bclef" transform="translate(0,18) scale(0.045)"
	xlink:href="#ubclef"/>
</defs>
<use x="23.54" y="165.00" xlink:href="#bclef"/>
<g font-family="serif" font-size="16" font-weight="bold" font-style="normal"
	transform="translate(42.04,182.50) scale(1.2,1)">
	<text text-anchor="middle">8</text>
	<text y="-12" text-anchor="middle">3</text>
</g>
<use x="85.54" y="168.00" xlink:href="#hd"/>
<path d="M82.04 168.00v25.00" class="stroke"/>
<use x="85.54" y="174.00" xlink:href="#hd"/>
<use x="156.34" y="171.00" xlink:href="#r8"/>
<use x="201.84" y="168.00" xlink:href="#hd"/>
<path d="M198.34 168.00v25.00" class="stroke"/>
<use x="201.84" y="174.00" xlink:href="#hd"/>
<use x="251.84" y="162.00" xlink:href="#hd"/>
<path d="M248.34 162.00v31.00" class="stroke"/>
<path class="fill"
	d="M248.34 193.00c0.6 -5.6 9.6 -9 5.6 -18.4
	1.6 6 -1.3 11.6 -5.6 12.8
"/>
<use x="251.84" y="174.00" xlink:href="#hd"/>
<use x="285.34" y="156.00" xlink:href="#hd"/>
<path d="M281.84 156.00v25.00" class="stroke"/>
<use x="285.34" y="162.00" xlink:href="#hd"/>
<use x="335.44" y="171.00" xlink:href="#r8"/>
<use x="368.84" y="162.00" xlink:href="#hd"/>
<path d="M365.34 162.00v25.00" class="stroke"/>
<use x="368.84" y="168.00" xlink:href="#hd"/>
<use x="418.94" y="171.00" xlink:href="#r8"/>
<path class="fill"
	d="M460.14 150.00l61.20 0.00v3.20l-61.20 -0.00"/>
<use x="456.94" y="171.00" xlink:href="#hd"/>
<path d="M460.44 171.00v-20.00" class="stroke"/>
<use x="482.04" y="171.00" xlink:href="#hd"/>
<path d="M485.54 171.00v-20.00" class="stroke"/>
<use x="517.44" y="171.00" xlink:href="#hd"/>
<path d="M520.94 171.00v-20.00" class="stroke"/>
<use x="555.94" y="162.00" xlink:href="#hd"/>
<path d="M552.44 162.00v34.00" class="stroke"/>
<use x="555.94" y="177.00" xlink:href="#hd"/>
<use x="616.44" y="171.00" xlink:href="#r8"/>
<path class="fill"
	d="M665.04 148.30l61.10 8.40v3.20l-61.10 -8.40"/>
<use x="661.94" y="174.00" xlink:href="#hd"/>
<path d="M665.44 174.00v-24.70" class="stroke"/>
<use x="686.94" y="171.00" xlink:href="#hd"/>
<path d="M690.44 171.00v-18.20" class="stroke"/>
<use x="722.34" y="189.00" xlink:href="#hl"/>
<use x="722.34" y="192.00" xlink:href="#hd"/>
<path d="M725.84 192.00v-34.30" class="stroke"/>
<path class="fill"
	d="M763.94 202.20l79.10 0.00v-3.20l-79.10 -0.00"/>
<path class="fill"
	d="M789.34 197.20l53.40 0.00v-3.20l-53.40 -0.00"/>
<use x="767.84" y="183.00" xlink:href="#hd"/>
<path d="M764.34 183.00v18.20" class="stroke"/>
<use x="792.84" y="162.00" xlink:href="#hd"/>
<path d="M789.34 162.00v39.20" class="stroke"/>
<use x="810.84" y="165.00" xlink:href="#hd"/>
<defs>
<path id="unat" class="fill" d="
	m96 -750
	h-32
	v716
	l32 -8
	182 -54
	v282
	h32
	v-706
	l-34 10
	-180 50
	v-290
	m0 592
	v-190
	l182 -52
	v188"/>
<use id="nt0" transform="translate(-3,5) scale(0.018)"
	xlink:href="#unat"/>
</defs>
<use x="801.84" y="165.00" xlink:href="#nt0"/>
<path d="M807.34 165.00v36.20" class="stroke"/>
<use x="828.54" y="168.00" xlink:href="#hd"/>
<path d="M825.04 168.00v33.20" class="stroke"/>
<use x="846.24" y="171.00" xlink:href="#hd"/>
<path d="M842.74 171.00v30.20" class="stroke"/>
<path class="fill"
	d="M461.14 195.00l61.20 0.00v-3.20l-61.20 -0.00"/>
<use x="464.94" y="174.00" xlink:href="#hd"/>
<path d="M461.44 174.00v20.00" class="stroke"/>
<use x="490.04" y="174.00" xlink:href="#hd"/>
<path d="M486.54 174.00v20.00" class="stroke"/>
<use x="525.44" y="174.00" xlink:href="#hd"/>
<path d="M521.94 174.00v20.00" class="stroke"/>
</g>
<g stroke-width="0.70" transform="scale(0.867)" font-family="Times" font-size="13.00">
<path class="stroke" stroke-width="1"
	d="M11.54 316.00v-82.00"/>
<path class="fill"
	d="M6.54 231.00
	c10.5 1 12 -4.5 12 -3.5c0 1 -3.5 5.5 -8.5 5.5
	v84.00
	c5 0 8.5 4.5 8.5 5.5c0 1 -1.5 -4.5 -12 -3.5"/>
<use x="141.44" y="258.00" xlink:href="#rdots"/>
<path class="stroke" stroke-width="1"
	d="M137.44 258.00v-24.00"/>
<path class="stroke" stroke-width="3"
	d="M132.94 258.00v-24.00"/>
<use x="141.44" y="316.00" xlink:href="#rdots"/>
<path class="stroke" stroke-width="1"
	d="M137.44 316.00v-58.00"/>
<path class="stroke" stroke-width="3"
	d="M132.94 316.00v-58.00"/>
<path class="stroke" stroke-width="1"
	d="M244.54 258.00v-24.00"/>
<path class="stroke" stroke-width="1"
	d="M244.54 316.00v-58.00"/>
<path class="stroke" stroke-width="1"
	d="M340.24 258.00v-24.00"/>
<path class="stroke" stroke-width="1"
	d="M340.24 316.00v-58.00"/>
<path class="stroke" stroke-width="1"
	d="M416.54 258.00v-24.00"/>
<path class="stroke" stroke-width="1"
	d="M416.54 316.00v-58.00"/>
<path class="stroke" stroke-width="1"
	d="M502.64 258.00v-24.00"/>
<path class="stroke" stroke-width="1"
	d="M502.64 316.00v-58.00"/>
<path class="stroke" stroke-width="1"
	d="M598.44 258.00v-24.00"/>
<path class="stroke" stroke-width="1"
	d="M598.44 316.00v-58.00"/>
<path class="stroke" stroke-width="1"
	d="M694.14 258.00v-24.00"/>
<path class="stroke" stroke-width="1"
	d="M694.14 316.00v-58.00"/>
<path class="stroke" stroke-width="1"
	d="M789.94 258.00v-24.00"/>
<path class="stroke" stroke-width="1"
	d="M789.94 316.00v-58.00"/>
<path class="stroke" stroke-width="3"
	d="M860.54 258.00v-24.00"/>
<path class="stroke" stroke-width="1"
	d="M856.04 258.00v-24.00"/>
<use x="852.04" y="258.00" xlink:href="#rdots"/>
<path class="stroke" stroke-width="3"
	d="M860.54 316.00v-58.00"/>
<path class="stroke" stroke-width="1"
	d="M856.04 316.00v-58.00"/>
<use x="852.04" y="316.00" xlink:href="#rdots"/>
<path d="m11.54 258.00
	h850.50
	M11.54 252.00
	h850.50
	M11.54 246.00
	h850.50
	M11.54 240.00
	h850.50
	M11.54 234.00
	h850.50
	" class="stroke"/>
<path d="m11.54 316.00
	h850.50
	M11.54 310.00
	h850.50
	M11.54 304.00
	h850.50
	M11.54 298.00
	h850.50
	M11.54 292.00
	h850.50
	" class="stroke"/>
<text x="47.54" y="219.40">2</text>
<path class="stroke"
	d="M43.54 208.00m0 20v-20h86.90v20"/>
<use x="23.54" y="252.00" xlink:href="#tclef"/>
<use x="56.04" y="231.00" xlink:href="#hd"/>
<path d="M52.54 231.00v40.00" class="stroke"/>
<use x="56.04" y="252.00" xlink:href="#hd"/>
<use x="56.04" y="246.00" xlink:href="#hd"/>
<use x="56.04" y="240.00" xlink:href="#hd"/>
<use x="107.74" y="246.00" xlink:href="#r8"/>
<path class="fill"
	d="M157.04 258.20l71.80 0.00v-3.20l-71.80 -0.00"/>
<path class="fill"
	d="M157.44 253.20l71.10 0.00v-3.20l-71.10 -0.00"/>
<use x="160.94" y="234.00" xlink:href="#hd"/>
<use x="151.94" y="234.00" xlink:href="#sh0"/>
<path d="M157.44 234.00v23.20" class="stroke"/>
<use x="175.04" y="228.00" xlink:href="#hl"/>
<use x="175.04" y="228.00" xlink:href="#hd"/>
<path d="M171.54 228.00v29.20" class="stroke"/>
<use x="189.44" y="228.00" xlink:href="#hl"/>
<use x="189.44" y="222.00" xlink:href="#hl"/>
<use x="189.44" y="219.00" xlink:href="#hd"/>
<path d="M185.94 219.00v38.20" class="stroke"/>
<use x="203.74" y="228.00" xlink:href="#hl"/>
<use x="203.74" y="228.00" xlink:href="#hd"/>
<path d="M200.24 228.00v29.20" class="stroke"/>
<use x="217.84" y="234.00" xlink:href="#hd"/>
<path d="M214.34 234.00v23.20" class="stroke"/>
<use x="232.04" y="228.00" xlink:href="#hl"/>
<use x="232.04" y="228.00" xlink:href="#hd"/>
<path d="M228.54 228.00v29.20" class="stroke"/>
<path class="fill"
	d="M253.14 260.00l71.40 0.00v-3.20l-71.40 -0.00"/>
<path class="fill"
	d="M253.54 255.00l70.80 0.00v-3.20l-70.80 -0.00"/>
<use x="257.04" y="231.00" xlink:href="#hd"/>
<path d="M253.54 231.00v28.00" class="stroke"/>
<use x="271.14" y="240.00" xlink:href="#hd"/>
<path d="M267.64 240.00v19.00" class="stroke"/>
<use x="285.34" y="231.00" xlink:href="#hd"/>
<path d="M281.84 231.00v28.00" class="stroke"/>
<use x="299.44" y="228.00" xlink:href="#hl"/>
<use x="299.44" y="225.00" xlink:href="#hd"/>
<path d="M295.94 225.00v34.00" class="stroke"/>
<use x="313.64" y="231.00" xlink:href="#hd"/>
<path d="M310.14 231.00v28.00" class="stroke"/>
<use x="327.74" y="240.00" xlink:href="#hd"/>
<path d="M324.24 240.00v19.00" class="stroke"/>
<path class="fill"
	d="M348.94 266.40l48.60 -4.10v-3.20l-48.60 4.10"/>
<path class="fill"
	d="M349.24 261.40l14.20 -1.20v-3.20l-14.20 1.20"/>
<use x="352.74" y="237.00" xlink:href="#hd"/>
<path d="M349.24 237.00v28.40" class="stroke"/>
<use x="366.94" y="243.00" xlink:href="#hd"/>
<path d="M363.44 243.00v21.20" class="stroke"/>
<use x="381.04" y="237.00" xlink:href="#hd"/>
<path d="M377.54 237.00v26.00" class="stroke"/>
<use x="400.64" y="231.00" xlink:href="#hd"/>
<path d="M397.14 231.00v30.30" class="stroke"/>
<path class="fill"
	d="M425.24 266.00l57.30 0.00v-3.20l-57.30 -0.00"/>
<path class="fill"
	d="M425.54 261.00l42.50 0.00v-3.20l-42.50 -0.00"/>
<use x="429.04" y="246.00" xlink:href="#hd"/>
<path d="M425.54 246.00v18.90" class="stroke"/>
<use x="443.14" y="240.00" xlink:href="#hd"/>
<path d="M439.64 240.00v24.90" class="stroke"/>
<use x="457.34" y="231.00" xlink:href="#hd"/>
<path d="M453.84 231.00v33.90" class="stroke"/>
<use x="471.44" y="240.00" xlink:href="#hd"/>
<path d="M467.94 240.00v24.90" class="stroke"/>
<use x="485.64" y="246.00" xlink:href="#hd"/>
<path d="M482.14 246.00v18.90" class="stroke"/>
<path class="fill"
	d="M511.34 253.70l57.30 8.50v-3.20l-57.30 -8.50"/>
<use x="515.14" y="231.00" xlink:href="#hd"/>
<path d="M511.64 231.00v21.80" class="stroke"/>
<use x="543.44" y="237.00" xlink:href="#hd"/>
<path d="M539.94 237.00v20.00" class="stroke"/>
<use x="571.74" y="243.00" xlink:href="#hd"/>
<path d="M568.24 243.00v18.20" class="stroke"/>
<path class="fill"
	d="M607.04 272.80l57.30 -3.20v-3.20l-57.30 3.20"/>
<use x="610.94" y="243.00" xlink:href="#hd"/>
<path d="M607.44 243.00v28.80" class="stroke"/>
<use x="639.24" y="252.00" xlink:href="#hd"/>
<path d="M635.74 252.00v18.20" class="stroke"/>
<use x="667.54" y="237.00" xlink:href="#hd"/>
<path d="M664.04 237.00v31.60" class="stroke"/>
<path class="fill"
	d="M702.84 271.20l71.40 0.00v-3.20l-71.40 -0.00"/>
<path class="fill"
	d="M703.14 266.20l70.80 0.00v-3.20l-70.80 -0.00"/>
<use x="706.64" y="240.00" xlink:href="#hd"/>
<path d="M703.14 240.00v30.20" class="stroke"/>
<use x="720.84" y="234.00" xlink:href="#hd"/>
<path d="M717.34 234.00v36.20" class="stroke"/>
<use x="734.94" y="249.00" xlink:href="#hd"/>
<path d="M731.44 249.00v21.20" class="stroke"/>
<use x="749.14" y="240.00" xlink:href="#hd"/>
<path d="M745.64 240.00v30.20" class="stroke"/>
<use x="763.24" y="246.00" xlink:href="#hd"/>
<path d="M759.74 246.00v24.20" class="stroke"/>
<use x="777.44" y="240.00" xlink:href="#hd"/>
<path d="M773.94 240.00v30.20" class="stroke"/>
<use x="802.44" y="243.00" xlink:href="#hd"/>
<path d="M798.94 243.00v21.00" class="stroke"/>
<use x="841.54" y="246.00" xlink:href="#r8"/>
<use x="23.54" y="298.00" xlink:href="#bclef"/>
<path class="fill"
	d="M52.24 335.20l66.60 -4.90v-3.20l-66.60 4.90"/>
<path class="fill"
	d="M72.14 328.80l46.30 -3.40v-3.20l-46.30 3.40"/>
<use x="56.04" y="316.00" xlink:href="#hd"/>
<path d="M52.54 316.00v18.20" class="stroke"/>
<use x="75.64" y="289.00" xlink:href="#hd"/>
<path d="M72.14 289.00v43.80" class="stroke"/>
<use x="89.74" y="295.00" xlink:href="#hd"/>
<path d="M86.24 295.00v36.70" class="stroke"/>
<use x="107.74" y="298.00" xlink:href="#hd"/>
<use x="98.74" y="298.00" xlink:href="#sh0"/>
<path d="M104.24 298.00v32.40" class="stroke"/>
<use x="121.94" y="301.00" xlink:href="#hd"/>
<path d="M118.44 301.00v28.40" class="stroke"/>
<use x="160.94" y="292.00" xlink:href="#hd"/>
<path d="M157.44 292.00v34.00" class="stroke"/>
<use x="160.94" y="307.00" xlink:href="#hd"/>
<use x="217.84" y="292.00" xlink:href="#hd"/>
<path d="M214.34 292.00v34.00" class="stroke"/>
<path class="fill"
	d="M214.34 326.00c0.6 -5.6 9.6 -9 5.6 -18.4
	1.6 6 -1.3 11.6 -5.6 12.8
"/>
<use x="217.84" y="307.00" xlink:href="#hd"/>
<use x="257.04" y="310.00" xlink:href="#hd"/>
<path d="M260.54 310.00v-25.00" class="stroke"/>
<use x="257.04" y="304.00" xlink:href="#hd"/>
<use x="313.64" y="310.00" xlink:href="#hd"/>
<path d="M317.14 310.00v-25.00" class="stroke"/>
<path class="fill"
	d="M317.14 285.00c0.6 5.6 9.6 9 5.6 18.4
	1.6 -6 -1.3 -11.6 -5.6 -12.8
"/>
<use x="313.64" y="304.00" xlink:href="#hd"/>
<use x="352.74" y="295.00" xlink:href="#hd"/>
<path d="M349.24 295.00v31.00" class="stroke"/>
<use x="352.74" y="307.00" xlink:href="#hd"/>
<use x="400.64" y="301.00" xlink:href="#hd"/>
<path d="M397.14 301.00v25.00" class="stroke"/>
<path class="fill"
	d="M397.14 326.00c0.6 -5.6 9.6 -9 5.6 -18.4
	1.6 6 -1.3 11.6 -5.6 12.8
"/>
<use x="400.64" y="307.00" xlink:href="#hd"/>
<use x="429.04" y="295.00" xlink:href="#hd"/>
<path d="M425.54 295.00v21.00" class="stroke"/>
<use x="485.64" y="316.00" xlink:href="#hd"/>
<path d="M489.14 316.00v-21.00" class="stroke"/>
<path class="fill"
	d="M489.14 295.00c0.6 5.6 9.6 9 5.6 18.4
	1.6 -6 -1.3 -11.6 -5.6 -12.8
"/>
<path class="fill"
	d="M511.34 323.90l71.40 0.00v-3.20l-71.40 -0.00"/>
<path class="fill"
	d="M511.64 318.90l70.80 0.00v-3.20l-70.80 -0.00"/>
<use x="515.14" y="301.00" xlink:href="#hd"/>
<path d="M511.64 301.00v21.90" class="stroke"/>
<use x="515.14" y="307.00" xlink:href="#hd"/>
<use x="529.34" y="295.00" xlink:href="#hd"/>
<path d="M525.84 295.00v27.90" class="stroke"/>
<use x="543.44" y="301.00" xlink:href="#hd"/>
<path d="M539.94 301.00v21.90" class="stroke"/>
<use x="543.44" y="307.00" xlink:href="#hd"/>
<use x="557.64" y="295.00" xlink:href="#hd"/>
<path d="M554.14 295.00v27.90" class="stroke"/>
<use x="571.74" y="301.00" xlink:href="#hd"/>
<path d="M568.24 301.00v21.90" class="stroke"/>
<use x="571.74" y="307.00" xlink:href="#hd"/>
<use x="585.94" y="295.00" xlink:href="#hd"/>
<path d="M582.44 295.00v27.90" class="stroke"/>
<path class="fill"
	d="M607.04 323.90l71.40 0.00v-3.20l-71.40 -0.00"/>
<path class="fill"
	d="M607.44 318.90l70.80 0.00v-3.20l-70.80 -0.00"/>
<use x="610.94" y="301.00" xlink:href="#hd"/>
<path d="M607.44 301.00v21.90" class="stroke"/>
<use x="610.94" y="307.00" xlink:href="#hd"/>
<use x="625.04" y="295.00" xlink:href="#hd"/>
<path d="M621.54 295.00v27.90" class="stroke"/>
<use x="639.24" y="301.00" xlink:href="#hd"/>
<path d="M635.74 301.00v21.90" class="stroke"/>
<use x="639.24" y="307.00" xlink:href="#hd"/>
<use x="653.34" y="295.00" xlink:href="#hd"/>
<path d="M649.84 295.00v27.90" class="stroke"/>
<use x="667.54" y="301.00" xlink:href="#hd"/>
<path d="M664.04 301.00v21.90" class="stroke"/>
<use x="667.54" y="307.00" xlink:href="#hd"/>
<use x="681.64" y="295.00" xlink:href="#hd"/>
<path d="M678.14 295.00v27.90" class="stroke"/>
<use x="706.64" y="298.00" xlink:href="#hd"/>
<path d="M703.14 298.00v21.00" class="stroke"/>
<use x="763.24" y="295.00" xlink:href="#hd"/>
<path d="M759.74 295.00v21.00" class="stroke"/>
<path class="fill"
	d="M759.74 316.00c0.6 -5.6 9.6 -9 5.6 -18.4
	1.6 6 -1.3 11.6 -5.6 12.8
"/>
<path class="fill"
	d="M805.54 287.70l39.80 9.50v3.20l-39.80 -9.50"/>
<use x="802.44" y="307.00" xlink:href="#hd"/>
<path d="M805.94 307.00v-18.20" class="stroke"/>
<use x="821.94" y="316.00" xlink:href="#hd"/>
<path d="M825.44 316.00v-22.50" class="stroke"/>
<use x="841.54" y="322.00" xlink:href="#hl"/>
<use x="841.54" y="328.00" xlink:href="#hl"/>
<use x="841.54" y="328.00" xlink:href="#hd"/>
<path d="M845.04 328.00v-29.80" class="stroke"/>
</g>
</svg>
