<?xml version="1.0" standalone="no"?>
<!DOCTYPE svg PUBLIC "-//W3C//DTD SVG 1.1//EN"
	"http://www.w3.org/Graphics/SVG/1.1/DTD/svg11.dtd">
<svg xmlns="http://www.w3.org/2000/svg" version="1.1"
	xmlns:xlink="http://www.w3.org/1999/xlink"
	color="black"
	width="757.10px" height="293.80px">
<style type="text/css">
.fill {fill: currentColor}
.stroke {stroke: currentColor; fill: none}
text{white-space: pre}
</style>
<title>./K516f-9-12-5-7-6-4-5-8-12-2-4-9-9-8-3-7.abc (5553) tune 1</title>
<!-- Creator: abcm2ps-8.13.8 -->
<!-- CreationDate: Sep  7, 2017 11:18 -->
<!-- CommandLine: ./K516f-9-12-5-7-6-4-5-8-12-2-4-9-9-8-3-7.abc -O ./K516f-9-12-5-7-6-4-5-8-12-2-4-9-9-8-3-7.svg -g -->
<rect width="100%" height="100%" fill="white"/>
<g stroke-width="0.70" transform="scale(0.867)">
<!-- title: 9-12-5-7-6-4-5-8-12-2-4-9-9-8-3-7 -->
</g>
<g stroke-width="0.70" transform="scale(0.867)" font-family="Times" font-size="20.00">
<text x="436.84" y="22.00" text-anchor="middle">9-12-5-7-6-4-5-8-12-2-4-9-9-8-3-7</text>
</g>
<g stroke-width="0.70" transform="scale(0.867)" font-family="Times" font-size="20.00">
<!-- subtitle: $1K.516f::119:130:113:167:80:55:159:127:35:121:15:166:51:168:116:151::$0 -->
</g>
<g stroke-width="0.70" transform="scale(0.867)" font-family="Courier" font-size="8.00" font-weight="bold">
<text x="436.84" y="41.80" text-anchor="middle">K.516f::119:130:113:167:80:55:159:127:35:121:15:166:51:168:116:151::</text>
</g>
<g stroke-width="0.70" transform="scale(0.867)" font-family="Courier" font-size="8.00" font-weight="bold">
<!-- subtitle: $1Perm. No.: 55536942540318$0 -->
<text x="436.84" y="60.80" text-anchor="middle">Perm. No.: 55536942540318</text>
</g>
<g stroke-width="0.70" transform="scale(0.607)" font-family="Courier" font-size="8.00" font-weight="bold">
<defs>
<ellipse id="hd" rx="4.1" ry="2.9"
	transform="rotate(-20)" class="fill"/>
</defs>
<use x="103.06" y="121.29" xlink:href="#hd"/>
<path d="M106.56 121.29v-21.00" class="stroke"/>
<path class="fill"
	d="M106.56 100.29c0.6 5.6 9.6 9 5.6 18.4
	1.6 -6 -1.3 -11.6 -5.6 -12.8
"/>
</g>
<g stroke-width="0.70" transform="scale(0.867)" font-family="Times" font-size="15.00" font-weight="bold">
<text x="81.24" y="87.00">= 111</text>
<path class="stroke" stroke-width="1"
	d="M11.54 183.00v-82.00"/>
<path class="fill"
	d="M6.54 98.00
	c10.5 1 12 -4.5 12 -3.5c0 1 -3.5 5.5 -8.5 5.5
	v84.00
	c5 0 8.5 4.5 8.5 5.5c0 1 -1.5 -4.5 -12 -3.5"/>
<defs>
<g id="rdots" class="fill">
	<circle cx="0" cy="-9" r="1.2"/>
	<circle cx="0" cy="-15" r="1.2"/>
</g>
</defs>
<use x="70.54" y="125.00" xlink:href="#rdots"/>
<path class="stroke" stroke-width="1"
	d="M66.54 125.00v-24.00"/>
<path class="stroke" stroke-width="3"
	d="M62.04 125.00v-24.00"/>
<use x="70.54" y="183.00" xlink:href="#rdots"/>
<path class="stroke" stroke-width="1"
	d="M66.54 183.00v-58.00"/>
<path class="stroke" stroke-width="3"
	d="M62.04 183.00v-58.00"/>
<path class="stroke" stroke-width="1"
	d="M191.14 125.00v-24.00"/>
<path class="stroke" stroke-width="1"
	d="M191.14 183.00v-58.00"/>
<path class="stroke" stroke-width="1"
	d="M277.04 125.00v-24.00"/>
<path class="stroke" stroke-width="1"
	d="M277.04 183.00v-58.00"/>
<path class="stroke" stroke-width="1"
	d="M363.04 125.00v-24.00"/>
<path class="stroke" stroke-width="1"
	d="M363.04 183.00v-58.00"/>
<path class="stroke" stroke-width="1"
	d="M459.64 125.00v-24.00"/>
<path class="stroke" stroke-width="1"
	d="M459.64 183.00v-58.00"/>
<path class="stroke" stroke-width="1"
	d="M545.54 125.00v-24.00"/>
<path class="stroke" stroke-width="1"
	d="M545.54 183.00v-58.00"/>
<path class="stroke" stroke-width="1"
	d="M631.44 125.00v-24.00"/>
<path class="stroke" stroke-width="1"
	d="M631.44 183.00v-58.00"/>
<path class="stroke" stroke-width="1"
	d="M751.04 125.00v-24.00"/>
<path class="stroke" stroke-width="1"
	d="M751.04 183.00v-58.00"/>
<path class="stroke" stroke-width="3"
	d="M860.54 125.00v-24.00"/>
<path class="stroke" stroke-width="1"
	d="M856.04 125.00v-24.00"/>
<use x="852.04" y="125.00" xlink:href="#rdots"/>
<path class="stroke" stroke-width="3"
	d="M860.54 183.00v-58.00"/>
<path class="stroke" stroke-width="1"
	d="M856.04 183.00v-58.00"/>
<use x="852.04" y="183.00" xlink:href="#rdots"/>
<path d="m11.54 125.00
	h850.50
	M11.54 119.00
	h850.50
	M11.54 113.00
	h850.50
	M11.54 107.00
	h850.50
	M11.54 101.00
	h850.50
	" class="stroke"/>
<path d="m11.54 183.00
	h850.50
	M11.54 177.00
	h850.50
	M11.54 171.00
	h850.50
	M11.54 165.00
	h850.50
	M11.54 159.00
	h850.50
	" class="stroke"/>
</g>
<g stroke-width="0.70" transform="scale(0.867)" font-family="Times" font-size="13.00">
<text x="755.04" y="86.40">1</text>
<path class="stroke"
	d="M751.04 75.00m0 20v-20h103.00v20"/>
<defs>
<path id="utclef" class="fill" d="m-50 -90
	c-72 -41 -72 -158 52 -188
	150 -10 220 188 90 256
	-114 52 -275 0 -293 -136
	-15 -181 93 -229 220 -334
	88 -87 79 -133 62 -210
	-51 33 -94 105 -89 186
	17 267 36 374 49 574
	6 96 -19 134 -77 135
	-80 1 -126 -93 -61 -133
	85 -41 133 101 31 105
	23 17 92 37 90 -92
	-10 -223 -39 -342 -50 -617
	0 -90 0 -162 96 -232
	56 72 63 230 22 289
	-74 106 -257 168 -255 316
	9 153 148 185 252 133
	86 -65 29 -192 -80 -176
	-71 12 -105 67 -59 124"/>
<use id="tclef" transform="translate(0,6) scale(0.045)"
	xlink:href="#utclef"/>
</defs>
<use x="23.54" y="119.00" xlink:href="#tclef"/>
<g font-family="serif" font-size="16" font-weight="bold" font-style="normal"
	transform="translate(42.04,124.50) scale(1.2,1)">
	<text text-anchor="middle">8</text>
	<text y="-12" text-anchor="middle">3</text>
</g>
<path class="fill"
	d="M82.04 133.50l91.80 -6.30v-3.20l-91.80 6.30"/>
<path class="fill"
	d="M82.34 128.40l91.10 -6.20v-3.20l-91.10 6.20"/>
<use x="85.84" y="104.00" xlink:href="#hd"/>
<path d="M82.34 104.00v28.40" class="stroke"/>
<use x="104.04" y="110.00" xlink:href="#hd"/>
<path d="M100.54 110.00v21.20" class="stroke"/>
<use x="122.34" y="98.00" xlink:href="#hd"/>
<path d="M118.84 98.00v32.00" class="stroke"/>
<use x="140.54" y="104.00" xlink:href="#hd"/>
<path d="M137.04 104.00v24.70" class="stroke"/>
<defs>
<path id="hl" class="stroke" d="m-6 0h12"/>
</defs>
<use x="158.74" y="95.00" xlink:href="#hl"/>
<use x="158.74" y="89.00" xlink:href="#hl"/>
<use x="158.74" y="89.00" xlink:href="#hd"/>
<path d="M155.24 89.00v38.50" class="stroke"/>
<use x="176.94" y="98.00" xlink:href="#hd"/>
<path d="M173.44 98.00v28.20" class="stroke"/>
<path class="fill"
	d="M208.64 91.00l52.20 0.00v3.20l-52.20 -0.00"/>
<use x="205.44" y="125.00" xlink:href="#hd"/>
<path d="M208.94 125.00v-33.00" class="stroke"/>
<use x="205.44" y="110.00" xlink:href="#hd"/>
<use x="231.24" y="125.00" xlink:href="#hd"/>
<path d="M234.74 125.00v-33.00" class="stroke"/>
<use x="231.24" y="110.00" xlink:href="#hd"/>
<use x="257.04" y="125.00" xlink:href="#hd"/>
<path d="M260.54 125.00v-33.00" class="stroke"/>
<use x="257.04" y="110.00" xlink:href="#hd"/>
<path class="fill"
	d="M287.54 124.00l52.20 8.30v-3.20l-52.20 -8.30"/>
<use x="291.44" y="101.00" xlink:href="#hd"/>
<path d="M287.94 101.00v22.00" class="stroke"/>
<use x="317.14" y="107.00" xlink:href="#hd"/>
<path d="M313.64 107.00v20.10" class="stroke"/>
<use x="342.94" y="113.00" xlink:href="#hd"/>
<path d="M339.44 113.00v18.20" class="stroke"/>
<path class="fill"
	d="M373.54 133.00l62.90 0.00v-3.20l-62.90 -0.00"/>
<path class="fill"
	d="M399.64 128.00l18.20 0.00v-3.20l-18.20 -0.00"/>
<use x="377.34" y="110.00" xlink:href="#hd"/>
<path d="M373.84 110.00v21.90" class="stroke"/>
<use x="403.14" y="110.00" xlink:href="#hd"/>
<path d="M399.64 110.00v21.90" class="stroke"/>
<use x="421.34" y="107.00" xlink:href="#hd"/>
<path d="M417.84 107.00v24.90" class="stroke"/>
<use x="439.54" y="104.00" xlink:href="#hd"/>
<path d="M436.04 104.00v27.90" class="stroke"/>
<path class="fill"
	d="M470.14 136.80l52.20 -3.20v-3.20l-52.20 3.20"/>
<use x="473.94" y="107.00" xlink:href="#hd"/>
<path d="M470.44 107.00v28.80" class="stroke"/>
<use x="499.74" y="116.00" xlink:href="#hd"/>
<path d="M496.24 116.00v18.20" class="stroke"/>
<use x="525.54" y="101.00" xlink:href="#hd"/>
<defs>
<path id="usharp" class="fill" d="
	m136 -702
	v890
	h32
	v-890
	m128 840
	h32
	v-888
	h-32
	m-232 286
	v116
	l338 -96
	v-116
	m-338 442
	v116
	l338 -98
	v-114"/>
<use id="sh0" transform="translate(-4,5) scale(0.018)"
	xlink:href="#usharp"/>
</defs>
<use x="516.54" y="101.00" xlink:href="#sh0"/>
<path d="M522.04 101.00v31.60" class="stroke"/>
<path class="fill"
	d="M556.04 121.70l52.20 4.50v-3.20l-52.20 -4.50"/>
<use x="559.84" y="98.00" xlink:href="#hd"/>
<path d="M556.34 98.00v22.70" class="stroke"/>
<use x="585.64" y="95.00" xlink:href="#hl"/>
<use x="585.64" y="92.00" xlink:href="#hd"/>
<path d="M582.14 92.00v31.00" class="stroke"/>
<use x="611.44" y="107.00" xlink:href="#hd"/>
<path d="M607.94 107.00v18.20" class="stroke"/>
<path class="fill"
	d="M641.94 130.50l91.80 7.80v-3.20l-91.80 -7.80"/>
<path class="fill"
	d="M642.34 125.50l91.10 7.70v-3.20l-91.10 -7.70"/>
<use x="645.84" y="104.00" xlink:href="#hd"/>
<path d="M642.34 104.00v25.50" class="stroke"/>
<use x="664.04" y="98.00" xlink:href="#hd"/>
<path d="M660.54 98.00v33.00" class="stroke"/>
<use x="682.24" y="107.00" xlink:href="#hd"/>
<path d="M678.74 107.00v25.60" class="stroke"/>
<use x="700.44" y="110.00" xlink:href="#hd"/>
<path d="M696.94 110.00v24.10" class="stroke"/>
<use x="718.64" y="113.00" xlink:href="#hd"/>
<path d="M715.14 113.00v22.70" class="stroke"/>
<use x="736.94" y="116.00" xlink:href="#hd"/>
<path d="M733.44 116.00v21.20" class="stroke"/>
<use x="765.44" y="98.00" xlink:href="#hd"/>
<path d="M761.94 98.00v40.00" class="stroke"/>
<use x="765.44" y="119.00" xlink:href="#hd"/>
<use x="765.44" y="113.00" xlink:href="#hd"/>
<use x="765.44" y="107.00" xlink:href="#hd"/>
<defs>
<path id="r8e" class="fill" d="m 0 0
	c-1.5 1.5 -2.4 2 -3.6 2
	2.4 -2.8 -2.8 -4 -2.8 -1.2
	c0 2.7 4.3 2.4 5.9 0.6"/>
<g id="r8">
	<path d="m3.3 -4l-3.4 9.6" class="stroke"/>
	<use x="3.4" y="-4" xlink:href="#r8e"/>
</g>
</defs>
<use x="827.64" y="113.00" xlink:href="#r8"/>
<defs>
<path id="ubclef" class="fill" d="m-200 -87
	c124 -35 222 -78 254 -236
	43 -228 -167 -246 -192 -103
	59 -80 157 22 92 78
	-62 47 -115 -22 -106 -88
	21 -141 270 -136 274 52
	-1 175 -106 264 -322 297
	m357 -250
	c0 -36 51 -34 51 0
	0 37 -51 36 -51 0
	m-2 -129
	c0 -36 51 -34 51 0
	0 38 -51 37 -51 0"/>
<use id="bclef" transform="translate(0,18) scale(0.045)"
	xlink:href="#ubclef"/>
</defs>
<use x="23.54" y="165.00" xlink:href="#bclef"/>
<g font-family="serif" font-size="16" font-weight="bold" font-style="normal"
	transform="translate(42.04,182.50) scale(1.2,1)">
	<text text-anchor="middle">8</text>
	<text y="-12" text-anchor="middle">3</text>
</g>
<use x="85.84" y="168.00" xlink:href="#hd"/>
<path d="M82.34 168.00v25.00" class="stroke"/>
<use x="85.84" y="174.00" xlink:href="#hd"/>
<use x="158.74" y="171.00" xlink:href="#r8"/>
<path class="fill"
	d="M208.64 153.00l52.20 0.00v3.20l-52.20 -0.00"/>
<use x="205.44" y="174.00" xlink:href="#hd"/>
<path d="M208.94 174.00v-20.00" class="stroke"/>
<use x="231.24" y="174.00" xlink:href="#hd"/>
<path d="M234.74 174.00v-20.00" class="stroke"/>
<use x="257.04" y="174.00" xlink:href="#hd"/>
<path d="M260.54 174.00v-20.00" class="stroke"/>
<use x="291.44" y="156.00" xlink:href="#hd"/>
<path d="M287.94 156.00v25.00" class="stroke"/>
<use x="291.44" y="162.00" xlink:href="#hd"/>
<use x="342.94" y="171.00" xlink:href="#r8"/>
<use x="377.34" y="168.00" xlink:href="#hd"/>
<path d="M373.84 168.00v25.00" class="stroke"/>
<use x="377.34" y="174.00" xlink:href="#hd"/>
<use x="439.54" y="171.00" xlink:href="#r8"/>
<use x="473.94" y="174.00" xlink:href="#hd"/>
<path d="M477.44 174.00v-21.00" class="stroke"/>
<use x="525.54" y="171.00" xlink:href="#r8"/>
<use x="559.84" y="177.00" xlink:href="#hd"/>
<path d="M563.34 177.00v-25.00" class="stroke"/>
<use x="559.84" y="171.00" xlink:href="#hd"/>
<use x="611.44" y="171.00" xlink:href="#r8"/>
<path class="fill"
	d="M648.94 147.60l73.60 8.40v3.20l-73.60 -8.40"/>
<use x="645.84" y="174.00" xlink:href="#hd"/>
<path d="M649.34 174.00v-25.40" class="stroke"/>
<use x="682.24" y="171.00" xlink:href="#hd"/>
<path d="M685.74 171.00v-18.20" class="stroke"/>
<use x="718.64" y="189.00" xlink:href="#hl"/>
<use x="718.64" y="192.00" xlink:href="#hd"/>
<path d="M722.14 192.00v-35.00" class="stroke"/>
<path class="fill"
	d="M761.54 202.20l81.10 0.00v-3.20l-81.10 -0.00"/>
<path class="fill"
	d="M787.64 197.20l54.70 0.00v-3.20l-54.70 -0.00"/>
<use x="765.44" y="183.00" xlink:href="#hd"/>
<path d="M761.94 183.00v18.20" class="stroke"/>
<use x="791.14" y="162.00" xlink:href="#hd"/>
<path d="M787.64 162.00v39.20" class="stroke"/>
<use x="809.44" y="165.00" xlink:href="#hd"/>
<defs>
<path id="unat" class="fill" d="
	m96 -750
	h-32
	v716
	l32 -8
	182 -54
	v282
	h32
	v-706
	l-34 10
	-180 50
	v-290
	m0 592
	v-190
	l182 -52
	v188"/>
<use id="nt0" transform="translate(-3,5) scale(0.018)"
	xlink:href="#unat"/>
</defs>
<use x="800.44" y="165.00" xlink:href="#nt0"/>
<path d="M805.94 165.00v36.20" class="stroke"/>
<use x="827.64" y="168.00" xlink:href="#hd"/>
<path d="M824.14 168.00v33.20" class="stroke"/>
<use x="845.84" y="171.00" xlink:href="#hd"/>
<path d="M842.34 171.00v30.20" class="stroke"/>
<defs>
<path id="turn" class="fill" d="
	m5.2 -8
	c1.4 0.5 0.9 4.8 -2.2 2.8
	l-4.8 -3.5
	c-3 -2 -5.8 1.8 -3.6 4.4
	1 1.1 2 0.8 2.1 -0.1
	0.1 -0.9 -0.7 -1.2 -1.9 -0.6
	-1.4 -0.5 -0.9 -4.8 2.2 -2.8
	l4.8 3.5
	c3 2 5.8 -1.8 3.6 -4.4
	-1 -1.1 -2 -0.8 -2.1 0.1
	-0.1 0.9 0.7 1.2 1.9 0.6"/>
</defs>
<use x="499.74" y="99.00" xlink:href="#turn"/>
</g>
<g stroke-width="0.70" transform="scale(0.867)" font-family="Times" font-size="13.00">
<path class="stroke" stroke-width="1"
	d="M11.54 316.00v-82.00"/>
<path class="fill"
	d="M6.54 231.00
	c10.5 1 12 -4.5 12 -3.5c0 1 -3.5 5.5 -8.5 5.5
	v84.00
	c5 0 8.5 4.5 8.5 5.5c0 1 -1.5 -4.5 -12 -3.5"/>
<use x="146.64" y="258.00" xlink:href="#rdots"/>
<path class="stroke" stroke-width="1"
	d="M142.64 258.00v-24.00"/>
<path class="stroke" stroke-width="3"
	d="M138.14 258.00v-24.00"/>
<use x="146.64" y="316.00" xlink:href="#rdots"/>
<path class="stroke" stroke-width="1"
	d="M142.64 316.00v-58.00"/>
<path class="stroke" stroke-width="3"
	d="M138.14 316.00v-58.00"/>
<path class="stroke" stroke-width="1"
	d="M227.64 258.00v-24.00"/>
<path class="stroke" stroke-width="1"
	d="M227.64 316.00v-58.00"/>
<path class="stroke" stroke-width="1"
	d="M310.54 258.00v-24.00"/>
<path class="stroke" stroke-width="1"
	d="M310.54 316.00v-58.00"/>
<path class="stroke" stroke-width="1"
	d="M393.34 258.00v-24.00"/>
<path class="stroke" stroke-width="1"
	d="M393.34 316.00v-58.00"/>
<path class="stroke" stroke-width="1"
	d="M485.54 258.00v-24.00"/>
<path class="stroke" stroke-width="1"
	d="M485.54 316.00v-58.00"/>
<path class="stroke" stroke-width="1"
	d="M588.54 258.00v-24.00"/>
<path class="stroke" stroke-width="1"
	d="M588.54 316.00v-58.00"/>
<path class="stroke" stroke-width="1"
	d="M682.24 258.00v-24.00"/>
<path class="stroke" stroke-width="1"
	d="M682.24 316.00v-58.00"/>
<path class="stroke" stroke-width="1"
	d="M785.24 258.00v-24.00"/>
<path class="stroke" stroke-width="1"
	d="M785.24 316.00v-58.00"/>
<path class="stroke" stroke-width="3"
	d="M860.54 258.00v-24.00"/>
<path class="stroke" stroke-width="1"
	d="M856.04 258.00v-24.00"/>
<use x="852.04" y="258.00" xlink:href="#rdots"/>
<path class="stroke" stroke-width="3"
	d="M860.54 316.00v-58.00"/>
<path class="stroke" stroke-width="1"
	d="M856.04 316.00v-58.00"/>
<use x="852.04" y="316.00" xlink:href="#rdots"/>
<path d="m11.54 258.00
	h850.50
	M11.54 252.00
	h850.50
	M11.54 246.00
	h850.50
	M11.54 240.00
	h850.50
	M11.54 234.00
	h850.50
	" class="stroke"/>
<path d="m11.54 316.00
	h850.50
	M11.54 310.00
	h850.50
	M11.54 304.00
	h850.50
	M11.54 298.00
	h850.50
	M11.54 292.00
	h850.50
	" class="stroke"/>
<text x="47.54" y="219.40">2</text>
<path class="stroke"
	d="M43.54 208.00m0 20v-20h92.10v20"/>
<use x="23.54" y="252.00" xlink:href="#tclef"/>
<use x="56.04" y="231.00" xlink:href="#hd"/>
<path d="M52.54 231.00v40.00" class="stroke"/>
<use x="56.04" y="252.00" xlink:href="#hd"/>
<use x="56.04" y="246.00" xlink:href="#hd"/>
<use x="56.04" y="240.00" xlink:href="#hd"/>
<use x="111.54" y="246.00" xlink:href="#r8"/>
<path class="fill"
	d="M162.34 268.20l44.90 -6.50v-3.20l-44.90 6.50"/>
<use x="166.14" y="249.00" xlink:href="#hd"/>
<path d="M162.64 249.00v18.20" class="stroke"/>
<use x="188.04" y="240.00" xlink:href="#hd"/>
<path d="M184.54 240.00v24.00" class="stroke"/>
<use x="210.34" y="234.00" xlink:href="#hd"/>
<use x="201.34" y="234.00" xlink:href="#sh0"/>
<path d="M206.84 234.00v26.80" class="stroke"/>
<path class="fill"
	d="M236.24 254.60l53.80 4.60v-3.20l-53.80 -4.60"/>
<path class="fill"
	d="M258.54 251.50l15.60 1.30v-3.20l-15.60 -1.30"/>
<use x="240.14" y="231.00" xlink:href="#hd"/>
<path d="M236.64 231.00v22.60" class="stroke"/>
<use x="262.04" y="228.00" xlink:href="#hl"/>
<use x="262.04" y="225.00" xlink:href="#hd"/>
<path d="M258.54 225.00v30.50" class="stroke"/>
<use x="277.64" y="231.00" xlink:href="#hd"/>
<path d="M274.14 231.00v25.90" class="stroke"/>
<use x="293.24" y="240.00" xlink:href="#hd"/>
<path d="M289.74 240.00v18.20" class="stroke"/>
<path class="fill"
	d="M319.14 260.00l53.80 0.00v-3.20l-53.80 -0.00"/>
<path class="fill"
	d="M341.44 255.00l15.60 0.00v-3.20l-15.60 -0.00"/>
<use x="323.04" y="237.00" xlink:href="#hd"/>
<path d="M319.54 237.00v22.00" class="stroke"/>
<use x="344.94" y="231.00" xlink:href="#hd"/>
<path d="M341.44 231.00v28.00" class="stroke"/>
<use x="360.54" y="237.00" xlink:href="#hd"/>
<path d="M357.04 237.00v22.00" class="stroke"/>
<use x="376.14" y="243.00" xlink:href="#hd"/>
<path d="M372.64 243.00v16.00" class="stroke"/>
<path class="fill"
	d="M402.04 262.20l63.10 5.40v-3.20l-63.10 -5.40"/>
<path class="fill"
	d="M402.34 257.20l46.80 4.00v-3.20l-46.80 -4.00"/>
<use x="405.84" y="240.00" xlink:href="#hd"/>
<path d="M402.34 240.00v21.20" class="stroke"/>
<use x="421.44" y="228.00" xlink:href="#hl"/>
<use x="421.44" y="225.00" xlink:href="#hd"/>
<path d="M417.94 225.00v37.50" class="stroke"/>
<use x="437.04" y="231.00" xlink:href="#hd"/>
<path d="M433.54 231.00v32.90" class="stroke"/>
<use x="452.64" y="240.00" xlink:href="#hd"/>
<path d="M449.14 240.00v25.20" class="stroke"/>
<use x="468.24" y="246.00" xlink:href="#hd"/>
<path d="M464.74 246.00v20.60" class="stroke"/>
<path class="fill"
	d="M494.24 275.50l78.70 -6.30v-3.20l-78.70 6.30"/>
<path class="fill"
	d="M494.54 270.50l78.00 -6.30v-3.20l-78.00 6.30"/>
<use x="498.04" y="243.00" xlink:href="#hd"/>
<path d="M494.54 243.00v31.50" class="stroke"/>
<use x="513.64" y="252.00" xlink:href="#hd"/>
<path d="M510.14 252.00v21.20" class="stroke"/>
<use x="529.24" y="237.00" xlink:href="#hd"/>
<path d="M525.74 237.00v34.90" class="stroke"/>
<use x="544.84" y="243.00" xlink:href="#hd"/>
<path d="M541.34 243.00v27.70" class="stroke"/>
<use x="560.44" y="231.00" xlink:href="#hd"/>
<path d="M556.94 231.00v38.40" class="stroke"/>
<use x="576.04" y="237.00" xlink:href="#hd"/>
<path d="M572.54 237.00v31.20" class="stroke"/>
<path class="fill"
	d="M597.14 256.20l69.40 9.10v-3.20l-69.40 -9.10"/>
<path class="fill"
	d="M619.44 254.10l46.80 6.10v-3.20l-46.80 -6.10"/>
<use x="601.04" y="231.00" xlink:href="#hd"/>
<path d="M597.54 231.00v24.20" class="stroke"/>
<use x="622.94" y="234.00" xlink:href="#hd"/>
<path d="M619.44 234.00v24.10" class="stroke"/>
<use x="638.54" y="237.00" xlink:href="#hd"/>
<path d="M635.04 237.00v23.10" class="stroke"/>
<use x="654.14" y="240.00" xlink:href="#hd"/>
<path d="M650.64 240.00v22.20" class="stroke"/>
<use x="669.74" y="243.00" xlink:href="#hd"/>
<path d="M666.24 243.00v21.20" class="stroke"/>
<path class="fill"
	d="M690.84 266.00l78.70 0.00v-3.20l-78.70 -0.00"/>
<path class="fill"
	d="M691.24 261.00l78.00 0.00v-3.20l-78.00 -0.00"/>
<use x="694.74" y="240.00" xlink:href="#hd"/>
<path d="M691.24 240.00v24.90" class="stroke"/>
<use x="710.34" y="234.00" xlink:href="#hd"/>
<path d="M706.84 234.00v30.90" class="stroke"/>
<use x="725.94" y="228.00" xlink:href="#hl"/>
<use x="725.94" y="228.00" xlink:href="#hd"/>
<path d="M722.44 228.00v36.90" class="stroke"/>
<use x="741.54" y="234.00" xlink:href="#hd"/>
<path d="M738.04 234.00v30.90" class="stroke"/>
<use x="757.14" y="240.00" xlink:href="#hd"/>
<path d="M753.64 240.00v24.90" class="stroke"/>
<use x="772.74" y="246.00" xlink:href="#hd"/>
<path d="M769.24 246.00v18.90" class="stroke"/>
<use x="797.74" y="243.00" xlink:href="#hd"/>
<path d="M794.24 243.00v21.00" class="stroke"/>
<use x="841.54" y="246.00" xlink:href="#r8"/>
<use x="23.54" y="298.00" xlink:href="#bclef"/>
<path class="fill"
	d="M52.24 335.20l71.80 -5.10v-3.20l-71.80 5.10"/>
<path class="fill"
	d="M74.44 328.60l49.20 -3.50v-3.20l-49.20 3.50"/>
<use x="56.04" y="316.00" xlink:href="#hd"/>
<path d="M52.54 316.00v18.20" class="stroke"/>
<use x="77.94" y="289.00" xlink:href="#hd"/>
<path d="M74.44 289.00v43.60" class="stroke"/>
<use x="93.54" y="295.00" xlink:href="#hd"/>
<path d="M90.04 295.00v36.50" class="stroke"/>
<use x="111.54" y="298.00" xlink:href="#hd"/>
<use x="102.54" y="298.00" xlink:href="#sh0"/>
<path d="M108.04 298.00v32.20" class="stroke"/>
<use x="127.14" y="301.00" xlink:href="#hd"/>
<path d="M123.64 301.00v28.10" class="stroke"/>
<use x="166.14" y="298.00" xlink:href="#hd"/>
<use x="157.14" y="298.00" xlink:href="#sh0"/>
<path d="M162.64 298.00v25.00" class="stroke"/>
<use x="166.14" y="304.00" xlink:href="#hd"/>
<use x="210.34" y="292.00" xlink:href="#hd"/>
<path d="M206.84 292.00v34.00" class="stroke"/>
<path class="fill"
	d="M206.84 326.00c0.6 -5.6 9.6 -9 5.6 -18.4
	1.6 6 -1.3 11.6 -5.6 12.8
"/>
<use x="210.34" y="307.00" xlink:href="#hd"/>
<use x="240.14" y="295.00" xlink:href="#hd"/>
<path d="M236.64 295.00v34.00" class="stroke"/>
<use x="240.14" y="310.00" xlink:href="#hd"/>
<use x="293.24" y="304.00" xlink:href="#r8"/>
<use x="323.04" y="295.00" xlink:href="#hd"/>
<path d="M319.54 295.00v31.00" class="stroke"/>
<use x="323.04" y="307.00" xlink:href="#hd"/>
<use x="376.14" y="301.00" xlink:href="#hd"/>
<path d="M372.64 301.00v25.00" class="stroke"/>
<path class="fill"
	d="M372.64 326.00c0.6 -5.6 9.6 -9 5.6 -18.4
	1.6 6 -1.3 11.6 -5.6 12.8
"/>
<use x="376.14" y="307.00" xlink:href="#hd"/>
<use x="405.84" y="289.00" xlink:href="#hd"/>
<path d="M402.34 289.00v25.00" class="stroke"/>
<use x="405.84" y="295.00" xlink:href="#hd"/>
<use x="468.24" y="304.00" xlink:href="#r8"/>
<use x="498.04" y="301.00" xlink:href="#hd"/>
<path d="M494.54 301.00v25.00" class="stroke"/>
<use x="498.04" y="307.00" xlink:href="#hd"/>
<use x="560.44" y="304.00" xlink:href="#r8"/>
<use x="601.04" y="301.00" xlink:href="#hd"/>
<path d="M597.54 301.00v25.00" class="stroke"/>
<use x="601.04" y="307.00" xlink:href="#hd"/>
<use x="654.14" y="295.00" xlink:href="#hd"/>
<path d="M650.64 295.00v25.00" class="stroke"/>
<path class="fill"
	d="M650.64 320.00c0.6 -5.6 9.6 -9 5.6 -18.4
	1.6 6 -1.3 11.6 -5.6 12.8
"/>
<use x="654.14" y="301.00" xlink:href="#hd"/>
<use x="694.74" y="298.00" xlink:href="#hd"/>
<path d="M691.24 298.00v21.00" class="stroke"/>
<use x="757.14" y="295.00" xlink:href="#hd"/>
<path d="M753.64 295.00v21.00" class="stroke"/>
<path class="fill"
	d="M753.64 316.00c0.6 -5.6 9.6 -9 5.6 -18.4
	1.6 6 -1.3 11.6 -5.6 12.8
"/>
<path class="fill"
	d="M800.84 287.70l44.50 10.00v3.20l-44.50 -10.00"/>
<use x="797.74" y="307.00" xlink:href="#hd"/>
<path d="M801.24 307.00v-18.20" class="stroke"/>
<use x="819.64" y="316.00" xlink:href="#hd"/>
<path d="M823.14 316.00v-22.30" class="stroke"/>
<use x="841.54" y="322.00" xlink:href="#hl"/>
<use x="841.54" y="328.00" xlink:href="#hl"/>
<use x="841.54" y="328.00" xlink:href="#hd"/>
<path d="M845.04 328.00v-29.30" class="stroke"/>
</g>
</svg>
