<?xml version="1.0" standalone="no"?>
<!DOCTYPE svg PUBLIC "-//W3C//DTD SVG 1.1//EN"
	"http://www.w3.org/Graphics/SVG/1.1/DTD/svg11.dtd">
<svg xmlns="http://www.w3.org/2000/svg" version="1.1"
	xmlns:xlink="http://www.w3.org/1999/xlink"
	color="black"
	width="757.10px" height="303.33px">
<style type="text/css">
.fill {fill: currentColor}
.stroke {stroke: currentColor; fill: none}
text{white-space: pre}
</style>
<title>./K516f-11-6-3-9-11-5-11-3-7-11-7-10-7-7-2-11.abc (1734) tune 1</title>
<!-- Creator: abcm2ps-8.13.8 -->
<!-- CreationDate: Sep  7, 2017 11:17 -->
<!-- CommandLine: ./K516f-11-6-3-9-11-5-11-3-7-11-7-10-7-7-2-11.abc -O ./K516f-11-6-3-9-11-5-11-3-7-11-7-10-7-7-2-11.svg -g -->
<rect width="100%" height="100%" fill="white"/>
<g stroke-width="0.70" transform="scale(0.867)">
<!-- title: 11-6-3-9-11-5-11-3-7-11-7-10-7-7-2-11 -->
</g>
<g stroke-width="0.70" transform="scale(0.867)" font-family="Times" font-size="20.00">
<text x="436.84" y="22.00" text-anchor="middle">11-6-3-9-11-5-11-3-7-11-7-10-7-7-2-11</text>
</g>
<g stroke-width="0.70" transform="scale(0.867)" font-family="Times" font-size="20.00">
<!-- subtitle: $1K.516f::3:74:128:50:135:2:147:81:138:4:150:82:101:162:109:78::$0 -->
</g>
<g stroke-width="0.70" transform="scale(0.867)" font-family="Courier" font-size="8.00" font-weight="bold">
<text x="436.84" y="41.80" text-anchor="middle">K.516f::3:74:128:50:135:2:147:81:138:4:150:82:101:162:109:78::</text>
</g>
<g stroke-width="0.70" transform="scale(0.867)" font-family="Courier" font-size="8.00" font-weight="bold">
<!-- subtitle: $1Perm. No.: 17340032606170$0 -->
<text x="436.84" y="60.80" text-anchor="middle">Perm. No.: 17340032606170</text>
</g>
<g stroke-width="0.70" transform="scale(0.607)" font-family="Courier" font-size="8.00" font-weight="bold">
<defs>
<ellipse id="hd" rx="4.1" ry="2.9"
	transform="rotate(-20)" class="fill"/>
</defs>
<use x="103.06" y="121.29" xlink:href="#hd"/>
<path d="M106.56 121.29v-21.00" class="stroke"/>
<path class="fill"
	d="M106.56 100.29c0.6 5.6 9.6 9 5.6 18.4
	1.6 -6 -1.3 -11.6 -5.6 -12.8
"/>
</g>
<g stroke-width="0.70" transform="scale(0.867)" font-family="Times" font-size="15.00" font-weight="bold">
<text x="81.24" y="87.00">= 111</text>
<path class="stroke" stroke-width="1"
	d="M11.54 183.00v-82.00"/>
<path class="fill"
	d="M6.54 98.00
	c10.5 1 12 -4.5 12 -3.5c0 1 -3.5 5.5 -8.5 5.5
	v84.00
	c5 0 8.5 4.5 8.5 5.5c0 1 -1.5 -4.5 -12 -3.5"/>
<defs>
<g id="rdots" class="fill">
	<circle cx="0" cy="-9" r="1.2"/>
	<circle cx="0" cy="-15" r="1.2"/>
</g>
</defs>
<use x="70.54" y="125.00" xlink:href="#rdots"/>
<path class="stroke" stroke-width="1"
	d="M66.54 125.00v-24.00"/>
<path class="stroke" stroke-width="3"
	d="M62.04 125.00v-24.00"/>
<use x="70.54" y="183.00" xlink:href="#rdots"/>
<path class="stroke" stroke-width="1"
	d="M66.54 183.00v-58.00"/>
<path class="stroke" stroke-width="3"
	d="M62.04 183.00v-58.00"/>
<path class="stroke" stroke-width="1"
	d="M152.54 125.00v-24.00"/>
<path class="stroke" stroke-width="1"
	d="M152.54 183.00v-58.00"/>
<path class="stroke" stroke-width="1"
	d="M265.64 125.00v-24.00"/>
<path class="stroke" stroke-width="1"
	d="M265.64 183.00v-58.00"/>
<path class="stroke" stroke-width="1"
	d="M346.64 125.00v-24.00"/>
<path class="stroke" stroke-width="1"
	d="M346.64 183.00v-58.00"/>
<path class="stroke" stroke-width="1"
	d="M437.84 125.00v-24.00"/>
<path class="stroke" stroke-width="1"
	d="M437.84 183.00v-58.00"/>
<path class="stroke" stroke-width="1"
	d="M539.64 125.00v-24.00"/>
<path class="stroke" stroke-width="1"
	d="M539.64 183.00v-58.00"/>
<path class="stroke" stroke-width="1"
	d="M642.64 125.00v-24.00"/>
<path class="stroke" stroke-width="1"
	d="M642.64 183.00v-58.00"/>
<path class="stroke" stroke-width="1"
	d="M756.54 125.00v-24.00"/>
<path class="stroke" stroke-width="1"
	d="M756.54 183.00v-58.00"/>
<path class="stroke" stroke-width="3"
	d="M860.54 125.00v-24.00"/>
<path class="stroke" stroke-width="1"
	d="M856.04 125.00v-24.00"/>
<use x="852.04" y="125.00" xlink:href="#rdots"/>
<path class="stroke" stroke-width="3"
	d="M860.54 183.00v-58.00"/>
<path class="stroke" stroke-width="1"
	d="M856.04 183.00v-58.00"/>
<use x="852.04" y="183.00" xlink:href="#rdots"/>
<path d="m11.54 125.00
	h850.50
	M11.54 119.00
	h850.50
	M11.54 113.00
	h850.50
	M11.54 107.00
	h850.50
	M11.54 101.00
	h850.50
	" class="stroke"/>
<path d="m11.54 183.00
	h850.50
	M11.54 177.00
	h850.50
	M11.54 171.00
	h850.50
	M11.54 165.00
	h850.50
	M11.54 159.00
	h850.50
	" class="stroke"/>
</g>
<g stroke-width="0.70" transform="scale(0.867)" font-family="Times" font-size="13.00">
<text x="760.54" y="86.40">1</text>
<path class="stroke"
	d="M756.54 75.00m0 20v-20h97.50v20"/>
<defs>
<path id="utclef" class="fill" d="m-50 -90
	c-72 -41 -72 -158 52 -188
	150 -10 220 188 90 256
	-114 52 -275 0 -293 -136
	-15 -181 93 -229 220 -334
	88 -87 79 -133 62 -210
	-51 33 -94 105 -89 186
	17 267 36 374 49 574
	6 96 -19 134 -77 135
	-80 1 -126 -93 -61 -133
	85 -41 133 101 31 105
	23 17 92 37 90 -92
	-10 -223 -39 -342 -50 -617
	0 -90 0 -162 96 -232
	56 72 63 230 22 289
	-74 106 -257 168 -255 316
	9 153 148 185 252 133
	86 -65 29 -192 -80 -176
	-71 12 -105 67 -59 124"/>
<use id="tclef" transform="translate(0,6) scale(0.045)"
	xlink:href="#utclef"/>
</defs>
<use x="23.54" y="119.00" xlink:href="#tclef"/>
<g font-family="serif" font-size="16" font-weight="bold" font-style="normal"
	transform="translate(42.04,124.50) scale(1.2,1)">
	<text text-anchor="middle">8</text>
	<text y="-12" text-anchor="middle">3</text>
</g>
<path class="fill"
	d="M81.34 127.60l49.20 3.20v-3.20l-49.20 -3.20"/>
<use x="85.14" y="98.00" xlink:href="#hd"/>
<path d="M81.64 98.00v28.60" class="stroke"/>
<use x="109.34" y="110.00" xlink:href="#hd"/>
<path d="M105.84 110.00v18.20" class="stroke"/>
<use x="133.64" y="104.00" xlink:href="#hd"/>
<path d="M130.14 104.00v25.80" class="stroke"/>
<path class="fill"
	d="M162.34 122.60l86.60 9.70v-3.20l-86.60 -9.70"/>
<path class="fill"
	d="M162.64 117.60l86.00 9.60v-3.20l-86.00 -9.60"/>
<defs>
<path id="hl" class="stroke" d="m-6 0h12"/>
</defs>
<use x="166.14" y="95.00" xlink:href="#hl"/>
<use x="166.14" y="89.00" xlink:href="#hl"/>
<use x="166.14" y="89.00" xlink:href="#hd"/>
<path d="M162.64 89.00v32.60" class="stroke"/>
<use x="183.44" y="95.00" xlink:href="#hl"/>
<use x="183.44" y="92.00" xlink:href="#hd"/>
<path d="M179.94 92.00v31.50" class="stroke"/>
<use x="200.64" y="95.00" xlink:href="#hl"/>
<use x="200.64" y="89.00" xlink:href="#hl"/>
<use x="200.64" y="89.00" xlink:href="#hd"/>
<path d="M197.14 89.00v36.50" class="stroke"/>
<use x="217.74" y="98.00" xlink:href="#hd"/>
<path d="M214.24 98.00v29.40" class="stroke"/>
<use x="234.94" y="104.00" xlink:href="#hd"/>
<path d="M231.44 104.00v25.30" class="stroke"/>
<use x="252.14" y="110.00" xlink:href="#hd"/>
<path d="M248.64 110.00v21.20" class="stroke"/>
<path class="fill"
	d="M275.34 132.20l49.20 -6.70v-3.20l-49.20 6.70"/>
<use x="279.24" y="113.00" xlink:href="#hd"/>
<path d="M275.74 113.00v18.20" class="stroke"/>
<use x="303.44" y="107.00" xlink:href="#hd"/>
<path d="M299.94 107.00v20.90" class="stroke"/>
<use x="327.64" y="98.00" xlink:href="#hd"/>
<path d="M324.14 98.00v26.60" class="stroke"/>
<path class="fill"
	d="M356.44 133.50l59.30 4.70v-3.20l-59.30 -4.70"/>
<path class="fill"
	d="M380.94 130.50l17.20 1.40v-3.20l-17.20 -1.40"/>
<use x="360.24" y="110.00" xlink:href="#hd"/>
<path d="M356.74 110.00v22.50" class="stroke"/>
<use x="384.44" y="104.00" xlink:href="#hd"/>
<path d="M380.94 104.00v30.50" class="stroke"/>
<use x="401.64" y="110.00" xlink:href="#hd"/>
<path d="M398.14 110.00v25.80" class="stroke"/>
<use x="418.84" y="119.00" xlink:href="#hd"/>
<path d="M415.34 119.00v18.20" class="stroke"/>
<path class="fill"
	d="M452.44 127.00l59.60 0.00v-3.20l-59.60 -0.00"/>
<path class="fill"
	d="M477.24 122.00l17.20 0.00v-3.20l-17.20 -0.00"/>
<use x="456.34" y="101.00" xlink:href="#hd"/>
<defs>
<path id="usharp" class="fill" d="
	m136 -702
	v890
	h32
	v-890
	m128 840
	h32
	v-888
	h-32
	m-232 286
	v116
	l338 -96
	v-116
	m-338 442
	v116
	l338 -98
	v-114"/>
<use id="sh0" transform="translate(-4,5) scale(0.018)"
	xlink:href="#usharp"/>
</defs>
<use x="447.34" y="101.00" xlink:href="#sh0"/>
<path d="M452.84 101.00v25.00" class="stroke"/>
<use x="480.74" y="101.00" xlink:href="#hd"/>
<path d="M477.24 101.00v25.00" class="stroke"/>
<use x="497.94" y="107.00" xlink:href="#hd"/>
<path d="M494.44 107.00v19.00" class="stroke"/>
<use x="515.14" y="95.00" xlink:href="#hl"/>
<use x="515.14" y="95.00" xlink:href="#hd"/>
<path d="M511.64 95.00v31.00" class="stroke"/>
<path class="fill"
	d="M556.44 85.40l76.60 -7.60v3.20l-76.60 7.60"/>
<path class="fill"
	d="M581.14 87.90l51.50 -5.10v3.20l-51.50 5.10"/>
<use x="553.24" y="116.00" xlink:href="#hd"/>
<path d="M556.74 116.00v-29.70" class="stroke"/>
<use x="577.64" y="122.00" xlink:href="#hd"/>
<use x="568.64" y="122.00" xlink:href="#sh0"/>
<path d="M581.14 122.00v-38.10" class="stroke"/>
<use x="594.84" y="119.00" xlink:href="#hd"/>
<path d="M598.34 119.00v-36.80" class="stroke"/>
<use x="612.04" y="113.00" xlink:href="#hd"/>
<path d="M615.54 113.00v-32.50" class="stroke"/>
<use x="629.24" y="98.00" xlink:href="#hd"/>
<path d="M632.74 98.00v-19.20" class="stroke"/>
<path class="fill"
	d="M652.44 127.00l87.40 0.00v-3.20l-87.40 -0.00"/>
<path class="fill"
	d="M652.84 122.00l86.70 0.00v-3.20l-86.70 -0.00"/>
<use x="656.34" y="104.00" xlink:href="#hd"/>
<path d="M652.84 104.00v22.00" class="stroke"/>
<use x="673.44" y="95.00" xlink:href="#hl"/>
<use x="673.44" y="89.00" xlink:href="#hl"/>
<use x="673.44" y="89.00" xlink:href="#hd"/>
<path d="M669.94 89.00v37.00" class="stroke"/>
<use x="690.64" y="95.00" xlink:href="#hl"/>
<use x="690.64" y="92.00" xlink:href="#hd"/>
<path d="M687.14 92.00v34.00" class="stroke"/>
<use x="707.84" y="98.00" xlink:href="#hd"/>
<path d="M704.34 98.00v28.00" class="stroke"/>
<use x="725.04" y="95.00" xlink:href="#hl"/>
<use x="725.04" y="95.00" xlink:href="#hd"/>
<path d="M721.54 95.00v31.00" class="stroke"/>
<use x="743.04" y="101.00" xlink:href="#hd"/>
<use x="734.04" y="101.00" xlink:href="#sh0"/>
<path d="M739.54 101.00v25.00" class="stroke"/>
<use x="770.14" y="98.00" xlink:href="#hd"/>
<path d="M766.64 98.00v40.00" class="stroke"/>
<use x="770.14" y="119.00" xlink:href="#hd"/>
<use x="770.14" y="113.00" xlink:href="#hd"/>
<use x="770.14" y="107.00" xlink:href="#hd"/>
<defs>
<path id="r8e" class="fill" d="m 0 0
	c-1.5 1.5 -2.4 2 -3.6 2
	2.4 -2.8 -2.8 -4 -2.8 -1.2
	c0 2.7 4.3 2.4 5.9 0.6"/>
<g id="r8">
	<path d="m3.3 -4l-3.4 9.6" class="stroke"/>
	<use x="3.4" y="-4" xlink:href="#r8e"/>
</g>
</defs>
<use x="829.54" y="113.00" xlink:href="#r8"/>
<defs>
<path id="ubclef" class="fill" d="m-200 -87
	c124 -35 222 -78 254 -236
	43 -228 -167 -246 -192 -103
	59 -80 157 22 92 78
	-62 47 -115 -22 -106 -88
	21 -141 270 -136 274 52
	-1 175 -106 264 -322 297
	m357 -250
	c0 -36 51 -34 51 0
	0 37 -51 36 -51 0
	m-2 -129
	c0 -36 51 -34 51 0
	0 38 -51 37 -51 0"/>
<use id="bclef" transform="translate(0,18) scale(0.045)"
	xlink:href="#ubclef"/>
</defs>
<use x="23.54" y="165.00" xlink:href="#bclef"/>
<g font-family="serif" font-size="16" font-weight="bold" font-style="normal"
	transform="translate(42.04,182.50) scale(1.2,1)">
	<text text-anchor="middle">8</text>
	<text y="-12" text-anchor="middle">3</text>
</g>
<use x="85.14" y="168.00" xlink:href="#hd"/>
<path d="M81.64 168.00v25.00" class="stroke"/>
<use x="85.14" y="174.00" xlink:href="#hd"/>
<use x="133.64" y="171.00" xlink:href="#r8"/>
<use x="166.14" y="168.00" xlink:href="#hd"/>
<path d="M169.64 168.00v-21.00" class="stroke"/>
<use x="234.94" y="171.00" xlink:href="#r8"/>
<use x="279.24" y="183.00" xlink:href="#hd"/>
<path d="M282.74 183.00v-21.00" class="stroke"/>
<use x="327.64" y="171.00" xlink:href="#r8"/>
<use x="360.24" y="162.00" xlink:href="#hd"/>
<path d="M356.74 162.00v25.00" class="stroke"/>
<use x="360.24" y="168.00" xlink:href="#hd"/>
<use x="418.84" y="171.00" xlink:href="#r8"/>
<path class="fill"
	d="M459.44 150.00l59.60 0.00v3.20l-59.60 -0.00"/>
<use x="456.34" y="171.00" xlink:href="#hd"/>
<path d="M459.84 171.00v-20.00" class="stroke"/>
<use x="480.74" y="171.00" xlink:href="#hd"/>
<path d="M484.24 171.00v-20.00" class="stroke"/>
<use x="515.14" y="171.00" xlink:href="#hd"/>
<path d="M518.64 171.00v-20.00" class="stroke"/>
<use x="553.24" y="162.00" xlink:href="#hd"/>
<path d="M549.74 162.00v34.00" class="stroke"/>
<use x="553.24" y="177.00" xlink:href="#hd"/>
<use x="612.04" y="171.00" xlink:href="#r8"/>
<path class="fill"
	d="M659.44 147.60l69.40 8.30v3.20l-69.40 -8.30"/>
<use x="656.34" y="174.00" xlink:href="#hd"/>
<path d="M659.84 174.00v-25.30" class="stroke"/>
<use x="690.64" y="171.00" xlink:href="#hd"/>
<path d="M694.14 171.00v-18.20" class="stroke"/>
<use x="725.04" y="189.00" xlink:href="#hl"/>
<use x="725.04" y="192.00" xlink:href="#hd"/>
<path d="M728.54 192.00v-35.10" class="stroke"/>
<path class="fill"
	d="M766.24 202.20l77.30 0.00v-3.20l-77.30 -0.00"/>
<path class="fill"
	d="M790.84 197.20l52.40 0.00v-3.20l-52.40 -0.00"/>
<use x="770.14" y="183.00" xlink:href="#hd"/>
<path d="M766.64 183.00v18.20" class="stroke"/>
<use x="794.34" y="162.00" xlink:href="#hd"/>
<path d="M790.84 162.00v39.20" class="stroke"/>
<use x="812.34" y="165.00" xlink:href="#hd"/>
<defs>
<path id="unat" class="fill" d="
	m96 -750
	h-32
	v716
	l32 -8
	182 -54
	v282
	h32
	v-706
	l-34 10
	-180 50
	v-290
	m0 592
	v-190
	l182 -52
	v188"/>
<use id="nt0" transform="translate(-3,5) scale(0.018)"
	xlink:href="#unat"/>
</defs>
<use x="803.34" y="165.00" xlink:href="#nt0"/>
<path d="M808.84 165.00v36.20" class="stroke"/>
<use x="829.54" y="168.00" xlink:href="#hd"/>
<path d="M826.04 168.00v33.20" class="stroke"/>
<use x="846.74" y="171.00" xlink:href="#hd"/>
<path d="M843.24 171.00v30.20" class="stroke"/>
<use x="166.14" y="174.00" xlink:href="#hd"/>
<path d="M162.64 174.00v21.00" class="stroke"/>
<path class="fill"
	d="M460.44 195.00l59.60 0.00v-3.20l-59.60 -0.00"/>
<use x="464.34" y="174.00" xlink:href="#hd"/>
<path d="M460.84 174.00v20.00" class="stroke"/>
<use x="488.74" y="174.00" xlink:href="#hd"/>
<path d="M485.24 174.00v20.00" class="stroke"/>
<use x="523.14" y="174.00" xlink:href="#hd"/>
<path d="M519.64 174.00v20.00" class="stroke"/>
</g>
<g stroke-width="0.70" transform="scale(0.867)" font-family="Times" font-size="13.00">
<path class="stroke" stroke-width="1"
	d="M11.54 324.00v-90.00"/>
<path class="fill"
	d="M6.54 231.00
	c10.5 1 12 -4.5 12 -3.5c0 1 -3.5 5.5 -8.5 5.5
	v92.00
	c5 0 8.5 4.5 8.5 5.5c0 1 -1.5 -4.5 -12 -3.5"/>
<use x="140.44" y="258.00" xlink:href="#rdots"/>
<path class="stroke" stroke-width="1"
	d="M136.44 258.00v-24.00"/>
<path class="stroke" stroke-width="3"
	d="M131.94 258.00v-24.00"/>
<use x="140.44" y="324.00" xlink:href="#rdots"/>
<path class="stroke" stroke-width="1"
	d="M136.44 324.00v-66.00"/>
<path class="stroke" stroke-width="3"
	d="M131.94 324.00v-66.00"/>
<path class="stroke" stroke-width="1"
	d="M250.14 258.00v-24.00"/>
<path class="stroke" stroke-width="1"
	d="M250.14 324.00v-66.00"/>
<path class="stroke" stroke-width="1"
	d="M326.54 258.00v-24.00"/>
<path class="stroke" stroke-width="1"
	d="M326.54 324.00v-66.00"/>
<path class="stroke" stroke-width="1"
	d="M426.54 258.00v-24.00"/>
<path class="stroke" stroke-width="1"
	d="M426.54 324.00v-66.00"/>
<path class="stroke" stroke-width="1"
	d="M502.94 258.00v-24.00"/>
<path class="stroke" stroke-width="1"
	d="M502.94 324.00v-66.00"/>
<path class="stroke" stroke-width="1"
	d="M597.44 258.00v-24.00"/>
<path class="stroke" stroke-width="1"
	d="M597.44 324.00v-66.00"/>
<path class="stroke" stroke-width="1"
	d="M691.94 258.00v-24.00"/>
<path class="stroke" stroke-width="1"
	d="M691.94 324.00v-66.00"/>
<path class="stroke" stroke-width="1"
	d="M786.44 258.00v-24.00"/>
<path class="stroke" stroke-width="1"
	d="M786.44 324.00v-66.00"/>
<path class="stroke" stroke-width="3"
	d="M860.54 258.00v-24.00"/>
<path class="stroke" stroke-width="1"
	d="M856.04 258.00v-24.00"/>
<use x="852.04" y="258.00" xlink:href="#rdots"/>
<path class="stroke" stroke-width="3"
	d="M860.54 324.00v-66.00"/>
<path class="stroke" stroke-width="1"
	d="M856.04 324.00v-66.00"/>
<use x="852.04" y="324.00" xlink:href="#rdots"/>
<path d="m11.54 258.00
	h850.50
	M11.54 252.00
	h850.50
	M11.54 246.00
	h850.50
	M11.54 240.00
	h850.50
	M11.54 234.00
	h850.50
	" class="stroke"/>
<path d="m11.54 324.00
	h850.50
	M11.54 318.00
	h850.50
	M11.54 312.00
	h850.50
	M11.54 306.00
	h850.50
	M11.54 300.00
	h850.50
	" class="stroke"/>
<text x="47.54" y="219.40">2</text>
<path class="stroke"
	d="M43.54 208.00m0 20v-20h85.90v20"/>
<use x="23.54" y="252.00" xlink:href="#tclef"/>
<use x="56.04" y="231.00" xlink:href="#hd"/>
<path d="M52.54 231.00v40.00" class="stroke"/>
<use x="56.04" y="252.00" xlink:href="#hd"/>
<use x="56.04" y="246.00" xlink:href="#hd"/>
<use x="56.04" y="240.00" xlink:href="#hd"/>
<use x="106.94" y="246.00" xlink:href="#r8"/>
<use x="159.94" y="234.00" xlink:href="#hd"/>
<use x="150.94" y="234.00" xlink:href="#sh0"/>
<path d="M156.44 234.00v34.00" class="stroke"/>
<path class="fill"
	d="M156.44 268.00c0.6 -5.6 9.6 -9 5.6 -18.4
	1.6 6 -1.3 11.6 -5.6 12.8
"/>
<use x="159.94" y="249.00" xlink:href="#hd"/>
<use x="159.94" y="240.00" xlink:href="#hd"/>
<use x="191.84" y="234.00" xlink:href="#hd"/>
<path d="M188.34 234.00v21.00" class="stroke"/>
<use x="262.64" y="231.00" xlink:href="#hd"/>
<path d="M259.14 231.00v21.00" class="stroke"/>
<path class="fill"
	d="M259.14 252.00c0.6 -5.6 9.6 -9 5.6 -18.4
	1.6 6 -1.3 11.6 -5.6 12.8
"/>
<use x="291.74" y="240.00" xlink:href="#hd"/>
<path d="M288.24 240.00v21.00" class="stroke"/>
<use x="339.04" y="237.00" xlink:href="#hd"/>
<path d="M335.54 237.00v34.00" class="stroke"/>
<path class="fill"
	d="M335.54 271.00c0.6 -5.6 9.6 -9 5.6 -18.4
	1.6 6 -1.3 11.6 -5.6 12.8
"/>
<use x="339.04" y="252.00" xlink:href="#hd"/>
<use x="339.04" y="243.00" xlink:href="#hd"/>
<use x="368.24" y="237.00" xlink:href="#hd"/>
<path d="M364.74 237.00v21.00" class="stroke"/>
<path class="fill"
	d="M435.24 273.70l47.50 -4.20v-3.20l-47.50 4.20"/>
<path class="fill"
	d="M435.54 268.70l13.90 -1.20v-3.20l-13.90 1.20"/>
<use x="439.04" y="240.00" xlink:href="#hd"/>
<path d="M435.54 240.00v32.70" class="stroke"/>
<use x="452.94" y="246.00" xlink:href="#hd"/>
<path d="M449.44 246.00v25.40" class="stroke"/>
<use x="466.84" y="252.00" xlink:href="#hd"/>
<path d="M463.34 252.00v18.20" class="stroke"/>
<use x="485.94" y="231.00" xlink:href="#hd"/>
<path d="M482.44 231.00v37.50" class="stroke"/>
<path class="fill"
	d="M511.54 263.50l70.20 -6.20v-3.20l-70.20 6.20"/>
<path class="fill"
	d="M511.94 258.40l69.50 -6.10v-3.20l-69.50 6.10"/>
<use x="515.44" y="237.00" xlink:href="#hd"/>
<path d="M511.94 237.00v25.40" class="stroke"/>
<use x="529.34" y="240.00" xlink:href="#hd"/>
<path d="M525.84 240.00v21.20" class="stroke"/>
<use x="543.24" y="237.00" xlink:href="#hd"/>
<path d="M539.74 237.00v23.00" class="stroke"/>
<use x="557.14" y="231.00" xlink:href="#hd"/>
<path d="M553.64 231.00v27.70" class="stroke"/>
<use x="571.04" y="228.00" xlink:href="#hl"/>
<use x="571.04" y="222.00" xlink:href="#hl"/>
<use x="571.04" y="222.00" xlink:href="#hd"/>
<path d="M567.54 222.00v35.50" class="stroke"/>
<use x="584.94" y="231.00" xlink:href="#hd"/>
<path d="M581.44 231.00v25.30" class="stroke"/>
<path class="fill"
	d="M606.04 263.50l70.20 -6.20v-3.20l-70.20 6.20"/>
<path class="fill"
	d="M606.44 258.40l69.50 -6.10v-3.20l-69.50 6.10"/>
<use x="609.94" y="237.00" xlink:href="#hd"/>
<path d="M606.44 237.00v25.40" class="stroke"/>
<use x="623.84" y="240.00" xlink:href="#hd"/>
<path d="M620.34 240.00v21.20" class="stroke"/>
<use x="637.74" y="237.00" xlink:href="#hd"/>
<path d="M634.24 237.00v23.00" class="stroke"/>
<use x="651.64" y="231.00" xlink:href="#hd"/>
<path d="M648.14 231.00v27.70" class="stroke"/>
<use x="665.54" y="228.00" xlink:href="#hl"/>
<use x="665.54" y="222.00" xlink:href="#hl"/>
<use x="665.54" y="222.00" xlink:href="#hd"/>
<path d="M662.04 222.00v35.50" class="stroke"/>
<use x="679.44" y="231.00" xlink:href="#hd"/>
<path d="M675.94 231.00v25.30" class="stroke"/>
<path class="fill"
	d="M700.64 266.00l70.20 0.00v-3.20l-70.20 -0.00"/>
<path class="fill"
	d="M700.94 261.00l69.50 0.00v-3.20l-69.50 -0.00"/>
<use x="704.44" y="240.00" xlink:href="#hd"/>
<path d="M700.94 240.00v24.90" class="stroke"/>
<use x="718.34" y="234.00" xlink:href="#hd"/>
<path d="M714.84 234.00v30.90" class="stroke"/>
<use x="732.24" y="240.00" xlink:href="#hd"/>
<path d="M728.74 240.00v24.90" class="stroke"/>
<use x="746.14" y="234.00" xlink:href="#hd"/>
<path d="M742.64 234.00v30.90" class="stroke"/>
<use x="760.04" y="246.00" xlink:href="#hd"/>
<path d="M756.54 246.00v18.90" class="stroke"/>
<use x="773.94" y="240.00" xlink:href="#hd"/>
<path d="M770.44 240.00v24.90" class="stroke"/>
<path class="fill"
	d="M802.14 223.70l19.70 6.80v3.20l-19.70 -6.80"/>
<use x="798.94" y="243.00" xlink:href="#hd"/>
<path d="M802.44 243.00v-18.20" class="stroke"/>
<use x="818.04" y="264.00" xlink:href="#hl"/>
<use x="818.04" y="264.00" xlink:href="#hd"/>
<path d="M821.54 264.00v-32.60" class="stroke"/>
<use x="837.04" y="246.00" xlink:href="#r8"/>
<use x="23.54" y="306.00" xlink:href="#bclef"/>
<path class="fill"
	d="M52.24 343.20l65.50 0.00v-3.20l-65.50 -0.00"/>
<path class="fill"
	d="M71.54 338.20l45.80 0.00v-3.20l-45.80 -0.00"/>
<use x="56.04" y="324.00" xlink:href="#hd"/>
<path d="M52.54 324.00v18.20" class="stroke"/>
<use x="75.04" y="297.00" xlink:href="#hd"/>
<path d="M71.54 297.00v45.20" class="stroke"/>
<use x="88.94" y="303.00" xlink:href="#hd"/>
<path d="M85.44 303.00v39.20" class="stroke"/>
<use x="106.94" y="306.00" xlink:href="#hd"/>
<use x="97.94" y="306.00" xlink:href="#sh0"/>
<path d="M103.44 306.00v36.20" class="stroke"/>
<use x="120.94" y="309.00" xlink:href="#hd"/>
<path d="M117.44 309.00v33.20" class="stroke"/>
<path class="fill"
	d="M163.04 291.00l78.40 -6.80v3.20l-78.40 6.80"/>
<path class="fill"
	d="M163.44 296.00l77.70 -6.70v3.20l-77.70 6.70"/>
<use x="159.94" y="330.00" xlink:href="#hl"/>
<use x="159.94" y="333.00" xlink:href="#hd"/>
<path d="M163.44 333.00v-41.00" class="stroke"/>
<use x="173.84" y="312.00" xlink:href="#hd"/>
<path d="M177.34 312.00v-21.20" class="stroke"/>
<use x="191.84" y="315.00" xlink:href="#hd"/>
<use x="182.84" y="315.00" xlink:href="#sh0"/>
<path d="M195.34 315.00v-25.80" class="stroke"/>
<use x="205.74" y="312.00" xlink:href="#hd"/>
<path d="M209.24 312.00v-24.00" class="stroke"/>
<use x="223.74" y="315.00" xlink:href="#hd"/>
<use x="214.74" y="315.00" xlink:href="#sh0"/>
<path d="M227.24 315.00v-28.50" class="stroke"/>
<use x="237.64" y="312.00" xlink:href="#hd"/>
<path d="M241.14 312.00v-26.70" class="stroke"/>
<path class="fill"
	d="M258.74 346.30l48.90 -10.30v-3.20l-48.90 10.30"/>
<path class="fill"
	d="M259.14 341.20l13.90 -2.90v-3.20l-13.90 2.90"/>
<use x="262.64" y="324.00" xlink:href="#hd"/>
<path d="M259.14 324.00v21.20" class="stroke"/>
<use x="276.54" y="318.00" xlink:href="#hd"/>
<path d="M273.04 318.00v24.30" class="stroke"/>
<use x="291.74" y="303.00" xlink:href="#hd"/>
<path d="M288.24 303.00v36.10" class="stroke"/>
<use x="310.84" y="297.00" xlink:href="#hd"/>
<path d="M307.34 297.00v38.10" class="stroke"/>
<path class="fill"
	d="M342.24 283.80l75.70 0.00v3.20l-75.70 -0.00"/>
<path class="fill"
	d="M342.54 288.80l75.00 0.00v3.20l-75.00 -0.00"/>
<use x="339.04" y="315.00" xlink:href="#hd"/>
<path d="M342.54 315.00v-30.20" class="stroke"/>
<use x="352.94" y="318.00" xlink:href="#hd"/>
<path d="M356.44 318.00v-33.20" class="stroke"/>
<use x="368.24" y="315.00" xlink:href="#hd"/>
<path d="M371.74 315.00v-30.20" class="stroke"/>
<use x="382.14" y="312.00" xlink:href="#hd"/>
<path d="M385.64 312.00v-27.20" class="stroke"/>
<use x="396.04" y="309.00" xlink:href="#hd"/>
<path d="M399.54 309.00v-24.20" class="stroke"/>
<use x="414.04" y="306.00" xlink:href="#hd"/>
<use x="405.04" y="306.00" xlink:href="#sh0"/>
<path d="M417.54 306.00v-21.20" class="stroke"/>
<use x="439.04" y="303.00" xlink:href="#hd"/>
<path d="M442.54 303.00v-21.00" class="stroke"/>
<use x="485.94" y="318.00" xlink:href="#hd"/>
<path d="M489.44 318.00v-25.00" class="stroke"/>
<path class="fill"
	d="M489.44 293.00c0.6 5.6 9.6 9 5.6 18.4
	1.6 -6 -1.3 -11.6 -5.6 -12.8
"/>
<use x="485.94" y="312.00" xlink:href="#hd"/>
<use x="515.44" y="303.00" xlink:href="#hd"/>
<path d="M518.94 303.00v-21.00" class="stroke"/>
<use x="571.04" y="309.00" xlink:href="#hd"/>
<path d="M574.54 309.00v-21.00" class="stroke"/>
<path class="fill"
	d="M574.54 288.00c0.6 5.6 9.6 9 5.6 18.4
	1.6 -6 -1.3 -11.6 -5.6 -12.8
"/>
<use x="609.94" y="303.00" xlink:href="#hd"/>
<path d="M606.44 303.00v31.00" class="stroke"/>
<use x="609.94" y="315.00" xlink:href="#hd"/>
<use x="665.54" y="309.00" xlink:href="#hd"/>
<path d="M662.04 309.00v25.00" class="stroke"/>
<path class="fill"
	d="M662.04 334.00c0.6 -5.6 9.6 -9 5.6 -18.4
	1.6 6 -1.3 11.6 -5.6 12.8
"/>
<use x="665.54" y="315.00" xlink:href="#hd"/>
<use x="704.44" y="300.00" xlink:href="#hd"/>
<path d="M700.94 300.00v25.00" class="stroke"/>
<use x="704.44" y="306.00" xlink:href="#hd"/>
<use x="760.04" y="294.00" xlink:href="#hl"/>
<use x="760.04" y="291.00" xlink:href="#hd"/>
<path d="M756.54 291.00v31.00" class="stroke"/>
<path class="fill"
	d="M756.54 322.00c0.6 -5.6 9.6 -9 5.6 -18.4
	1.6 6 -1.3 11.6 -5.6 12.8
"/>
<use x="760.04" y="303.00" xlink:href="#hd"/>
<use x="798.94" y="315.00" xlink:href="#hd"/>
<path d="M802.44 315.00v-21.00" class="stroke"/>
<use x="837.04" y="330.00" xlink:href="#hl"/>
<use x="837.04" y="336.00" xlink:href="#hl"/>
<use x="837.04" y="336.00" xlink:href="#hd"/>
<path d="M840.54 336.00v-24.00" class="stroke"/>
<path class="fill"
	d="M840.54 312.00c0.6 5.6 9.6 9 5.6 18.4
	1.6 -6 -1.3 -11.6 -5.6 -12.8
"/>
<use x="439.04" y="318.00" xlink:href="#hd"/>
<path d="M435.54 318.00v21.00" class="stroke"/>
<use x="515.44" y="315.00" xlink:href="#hd"/>
<path d="M511.94 315.00v21.00" class="stroke"/>
<use x="571.04" y="315.00" xlink:href="#hd"/>
<path d="M567.54 315.00v21.00" class="stroke"/>
<path class="fill"
	d="M567.54 336.00c0.6 -5.6 9.6 -9 5.6 -18.4
	1.6 6 -1.3 11.6 -5.6 12.8
"/>
<defs>
<text id="trl" font-family="serif" font-size="16" font-style="italic"
	x="-2" y="-4">tr</text>
</defs>
<use x="191.84" y="228.00" xlink:href="#trl"/>
<use x="291.74" y="232.00" xlink:href="#trl"/>
<use x="368.24" y="231.00" xlink:href="#trl"/>
</g>
</svg>
