<?xml version="1.0" standalone="no"?>
<!DOCTYPE svg PUBLIC "-//W3C//DTD SVG 1.1//EN"
	"http://www.w3.org/Graphics/SVG/1.1/DTD/svg11.dtd">
<svg xmlns="http://www.w3.org/2000/svg" version="1.1"
	xmlns:xlink="http://www.w3.org/1999/xlink"
	color="black"
	width="757.10px" height="293.80px">
<style type="text/css">
.fill {fill: currentColor}
.stroke {stroke: currentColor; fill: none}
text{white-space: pre}
</style>
<title>./K516f-11-10-4-5-3-9-11-4-5-12-9-6-6-7-6-5.abc (1550) tune 1</title>
<!-- Creator: abcm2ps-8.13.8 -->
<!-- CreationDate: Sep  7, 2017 11:19 -->
<!-- CommandLine: ./K516f-11-10-4-5-3-9-11-4-5-12-9-6-6-7-6-5.abc -O ./K516f-11-10-4-5-3-9-11-4-5-12-9-6-6-7-6-5.svg -g -->
<rect width="100%" height="100%" fill="white"/>
<g stroke-width="0.70" transform="scale(0.867)">
<!-- title: 11-10-4-5-3-9-11-4-5-12-9-6-6-7-6-5 -->
</g>
<g stroke-width="0.70" transform="scale(0.867)" font-family="Times" font-size="20.00">
<text x="436.84" y="22.00" text-anchor="middle">11-10-4-5-3-9-11-4-5-12-9-6-6-7-6-5</text>
</g>
<g stroke-width="0.70" transform="scale(0.867)" font-family="Times" font-size="20.00">
<!-- subtitle: $1K.516f::3:142:158:85:146:86:147:24:90:20:48:125:76:162:1:170::$0 -->
</g>
<g stroke-width="0.70" transform="scale(0.867)" font-family="Courier" font-size="8.00" font-weight="bold">
<text x="436.84" y="41.80" text-anchor="middle">K.516f::3:142:158:85:146:86:147:24:90:20:48:125:76:162:1:170::</text>
</g>
<g stroke-width="0.70" transform="scale(0.867)" font-family="Courier" font-size="8.00" font-weight="bold">
<!-- subtitle: $1Perm. No.: 155046711614717$0 -->
<text x="436.84" y="60.80" text-anchor="middle">Perm. No.: 155046711614717</text>
</g>
<g stroke-width="0.70" transform="scale(0.607)" font-family="Courier" font-size="8.00" font-weight="bold">
<defs>
<ellipse id="hd" rx="4.1" ry="2.9"
	transform="rotate(-20)" class="fill"/>
</defs>
<use x="103.06" y="121.29" xlink:href="#hd"/>
<path d="M106.56 121.29v-21.00" class="stroke"/>
<path class="fill"
	d="M106.56 100.29c0.6 5.6 9.6 9 5.6 18.4
	1.6 -6 -1.3 -11.6 -5.6 -12.8
"/>
</g>
<g stroke-width="0.70" transform="scale(0.867)" font-family="Times" font-size="15.00" font-weight="bold">
<text x="81.24" y="87.00">= 111</text>
<path class="stroke" stroke-width="1"
	d="M11.54 183.00v-82.00"/>
<path class="fill"
	d="M6.54 98.00
	c10.5 1 12 -4.5 12 -3.5c0 1 -3.5 5.5 -8.5 5.5
	v84.00
	c5 0 8.5 4.5 8.5 5.5c0 1 -1.5 -4.5 -12 -3.5"/>
<defs>
<g id="rdots" class="fill">
	<circle cx="0" cy="-9" r="1.2"/>
	<circle cx="0" cy="-15" r="1.2"/>
</g>
</defs>
<use x="70.54" y="125.00" xlink:href="#rdots"/>
<path class="stroke" stroke-width="1"
	d="M66.54 125.00v-24.00"/>
<path class="stroke" stroke-width="3"
	d="M62.04 125.00v-24.00"/>
<use x="70.54" y="183.00" xlink:href="#rdots"/>
<path class="stroke" stroke-width="1"
	d="M66.54 183.00v-58.00"/>
<path class="stroke" stroke-width="3"
	d="M62.04 183.00v-58.00"/>
<path class="stroke" stroke-width="1"
	d="M158.24 125.00v-24.00"/>
<path class="stroke" stroke-width="1"
	d="M158.24 183.00v-58.00"/>
<path class="stroke" stroke-width="1"
	d="M244.84 125.00v-24.00"/>
<path class="stroke" stroke-width="1"
	d="M244.84 183.00v-58.00"/>
<path class="stroke" stroke-width="1"
	d="M354.74 125.00v-24.00"/>
<path class="stroke" stroke-width="1"
	d="M354.74 183.00v-58.00"/>
<path class="stroke" stroke-width="1"
	d="M441.34 125.00v-24.00"/>
<path class="stroke" stroke-width="1"
	d="M441.34 183.00v-58.00"/>
<path class="stroke" stroke-width="1"
	d="M532.14 125.00v-24.00"/>
<path class="stroke" stroke-width="1"
	d="M532.14 183.00v-58.00"/>
<path class="stroke" stroke-width="1"
	d="M629.54 125.00v-24.00"/>
<path class="stroke" stroke-width="1"
	d="M629.54 183.00v-58.00"/>
<path class="stroke" stroke-width="1"
	d="M750.14 125.00v-24.00"/>
<path class="stroke" stroke-width="1"
	d="M750.14 183.00v-58.00"/>
<path class="stroke" stroke-width="3"
	d="M860.54 125.00v-24.00"/>
<path class="stroke" stroke-width="1"
	d="M856.04 125.00v-24.00"/>
<use x="852.04" y="125.00" xlink:href="#rdots"/>
<path class="stroke" stroke-width="3"
	d="M860.54 183.00v-58.00"/>
<path class="stroke" stroke-width="1"
	d="M856.04 183.00v-58.00"/>
<use x="852.04" y="183.00" xlink:href="#rdots"/>
<path d="m11.54 125.00
	h850.50
	M11.54 119.00
	h850.50
	M11.54 113.00
	h850.50
	M11.54 107.00
	h850.50
	M11.54 101.00
	h850.50
	" class="stroke"/>
<path d="m11.54 183.00
	h850.50
	M11.54 177.00
	h850.50
	M11.54 171.00
	h850.50
	M11.54 165.00
	h850.50
	M11.54 159.00
	h850.50
	" class="stroke"/>
</g>
<g stroke-width="0.70" transform="scale(0.867)" font-family="Times" font-size="13.00">
<text x="754.14" y="86.40">1</text>
<path class="stroke"
	d="M750.14 75.00m0 20v-20h103.90v20"/>
<defs>
<path id="utclef" class="fill" d="m-50 -90
	c-72 -41 -72 -158 52 -188
	150 -10 220 188 90 256
	-114 52 -275 0 -293 -136
	-15 -181 93 -229 220 -334
	88 -87 79 -133 62 -210
	-51 33 -94 105 -89 186
	17 267 36 374 49 574
	6 96 -19 134 -77 135
	-80 1 -126 -93 -61 -133
	85 -41 133 101 31 105
	23 17 92 37 90 -92
	-10 -223 -39 -342 -50 -617
	0 -90 0 -162 96 -232
	56 72 63 230 22 289
	-74 106 -257 168 -255 316
	9 153 148 185 252 133
	86 -65 29 -192 -80 -176
	-71 12 -105 67 -59 124"/>
<use id="tclef" transform="translate(0,6) scale(0.045)"
	xlink:href="#utclef"/>
</defs>
<use x="23.54" y="119.00" xlink:href="#tclef"/>
<g font-family="serif" font-size="16" font-weight="bold" font-style="normal"
	transform="translate(42.04,124.50) scale(1.2,1)">
	<text text-anchor="middle">8</text>
	<text y="-12" text-anchor="middle">3</text>
</g>
<path class="fill"
	d="M82.14 127.60l52.70 3.20v-3.20l-52.70 -3.20"/>
<use x="85.94" y="98.00" xlink:href="#hd"/>
<path d="M82.44 98.00v28.60" class="stroke"/>
<use x="111.94" y="110.00" xlink:href="#hd"/>
<path d="M108.44 110.00v18.20" class="stroke"/>
<use x="137.94" y="104.00" xlink:href="#hd"/>
<path d="M134.44 104.00v25.80" class="stroke"/>
<path class="fill"
	d="M168.84 139.80l52.70 -3.20v-3.20l-52.70 3.20"/>
<use x="172.64" y="110.00" xlink:href="#hd"/>
<path d="M169.14 110.00v28.80" class="stroke"/>
<use x="198.64" y="119.00" xlink:href="#hd"/>
<path d="M195.14 119.00v18.20" class="stroke"/>
<use x="224.64" y="104.00" xlink:href="#hd"/>
<path d="M221.14 104.00v31.60" class="stroke"/>
<path class="fill"
	d="M262.44 84.80l81.80 0.00v3.20l-81.80 -0.00"/>
<path class="fill"
	d="M288.84 89.80l55.10 0.00v3.20l-55.10 -0.00"/>
<use x="259.34" y="113.00" xlink:href="#hd"/>
<path d="M262.84 113.00v-27.20" class="stroke"/>
<use x="285.34" y="107.00" xlink:href="#hd"/>
<path d="M288.84 107.00v-21.20" class="stroke"/>
<use x="303.64" y="113.00" xlink:href="#hd"/>
<path d="M307.14 113.00v-27.20" class="stroke"/>
<use x="322.04" y="116.00" xlink:href="#hd"/>
<path d="M325.54 116.00v-30.20" class="stroke"/>
<use x="340.44" y="119.00" xlink:href="#hd"/>
<path d="M343.94 119.00v-33.20" class="stroke"/>
<path class="fill"
	d="M365.34 133.70l52.70 4.50v-3.20l-52.70 -4.50"/>
<use x="369.14" y="110.00" xlink:href="#hd"/>
<path d="M365.64 110.00v22.70" class="stroke"/>
<use x="395.14" y="104.00" xlink:href="#hd"/>
<path d="M391.64 104.00v31.00" class="stroke"/>
<use x="421.14" y="119.00" xlink:href="#hd"/>
<path d="M417.64 119.00v18.20" class="stroke"/>
<path class="fill"
	d="M456.04 139.30l52.70 -8.60v-3.20l-52.70 8.60"/>
<use x="459.94" y="107.00" xlink:href="#hd"/>
<path d="M456.44 107.00v31.20" class="stroke"/>
<use x="459.94" y="122.00" xlink:href="#hd"/>
<defs>
<path id="usharp" class="fill" d="
	m136 -702
	v890
	h32
	v-890
	m128 840
	h32
	v-888
	h-32
	m-232 286
	v116
	l338 -96
	v-116
	m-338 442
	v116
	l338 -98
	v-114"/>
<use id="sh0" transform="translate(-4,5) scale(0.018)"
	xlink:href="#usharp"/>
</defs>
<use x="450.94" y="122.00" xlink:href="#sh0"/>
<use x="485.94" y="101.00" xlink:href="#hd"/>
<use x="476.94" y="101.00" xlink:href="#sh0"/>
<path d="M482.44 101.00v33.00" class="stroke"/>
<use x="485.94" y="107.00" xlink:href="#hd"/>
<defs>
<path id="hl" class="stroke" d="m-6 0h12"/>
</defs>
<use x="511.94" y="95.00" xlink:href="#hl"/>
<use x="511.94" y="95.00" xlink:href="#hd"/>
<path d="M508.44 95.00v34.70" class="stroke"/>
<use x="511.94" y="101.00" xlink:href="#hd"/>
<path class="fill"
	d="M542.74 132.20l63.40 -7.30v-3.20l-63.40 7.30"/>
<path class="fill"
	d="M569.04 124.20l18.40 -2.10v-3.20l-18.40 2.10"/>
<use x="546.54" y="107.00" xlink:href="#hd"/>
<path d="M543.04 107.00v24.20" class="stroke"/>
<use x="572.54" y="107.00" xlink:href="#hd"/>
<path d="M569.04 107.00v21.20" class="stroke"/>
<use x="590.94" y="98.00" xlink:href="#hd"/>
<path d="M587.44 98.00v28.10" class="stroke"/>
<use x="609.34" y="95.00" xlink:href="#hl"/>
<use x="609.34" y="92.00" xlink:href="#hd"/>
<path d="M605.84 92.00v32.00" class="stroke"/>
<path class="fill"
	d="M640.14 127.00l92.50 0.00v-3.20l-92.50 -0.00"/>
<path class="fill"
	d="M640.44 122.00l91.90 0.00v-3.20l-91.90 -0.00"/>
<use x="643.94" y="104.00" xlink:href="#hd"/>
<path d="M640.44 104.00v22.00" class="stroke"/>
<use x="662.34" y="95.00" xlink:href="#hl"/>
<use x="662.34" y="89.00" xlink:href="#hl"/>
<use x="662.34" y="89.00" xlink:href="#hd"/>
<path d="M658.84 89.00v37.00" class="stroke"/>
<use x="680.74" y="95.00" xlink:href="#hl"/>
<use x="680.74" y="92.00" xlink:href="#hd"/>
<path d="M677.24 92.00v34.00" class="stroke"/>
<use x="699.14" y="98.00" xlink:href="#hd"/>
<path d="M695.64 98.00v28.00" class="stroke"/>
<use x="717.44" y="95.00" xlink:href="#hl"/>
<use x="717.44" y="95.00" xlink:href="#hd"/>
<path d="M713.94 95.00v31.00" class="stroke"/>
<use x="735.84" y="101.00" xlink:href="#hd"/>
<use x="726.84" y="101.00" xlink:href="#sh0"/>
<path d="M732.34 101.00v25.00" class="stroke"/>
<use x="764.54" y="98.00" xlink:href="#hd"/>
<path d="M761.04 98.00v40.00" class="stroke"/>
<use x="764.54" y="119.00" xlink:href="#hd"/>
<use x="764.54" y="113.00" xlink:href="#hd"/>
<use x="764.54" y="107.00" xlink:href="#hd"/>
<defs>
<path id="r8e" class="fill" d="m 0 0
	c-1.5 1.5 -2.4 2 -3.6 2
	2.4 -2.8 -2.8 -4 -2.8 -1.2
	c0 2.7 4.3 2.4 5.9 0.6"/>
<g id="r8">
	<path d="m3.3 -4l-3.4 9.6" class="stroke"/>
	<use x="3.4" y="-4" xlink:href="#r8e"/>
</g>
</defs>
<use x="827.34" y="113.00" xlink:href="#r8"/>
<defs>
<path id="ubclef" class="fill" d="m-200 -87
	c124 -35 222 -78 254 -236
	43 -228 -167 -246 -192 -103
	59 -80 157 22 92 78
	-62 47 -115 -22 -106 -88
	21 -141 270 -136 274 52
	-1 175 -106 264 -322 297
	m357 -250
	c0 -36 51 -34 51 0
	0 37 -51 36 -51 0
	m-2 -129
	c0 -36 51 -34 51 0
	0 38 -51 37 -51 0"/>
<use id="bclef" transform="translate(0,18) scale(0.045)"
	xlink:href="#ubclef"/>
</defs>
<use x="23.54" y="165.00" xlink:href="#bclef"/>
<g font-family="serif" font-size="16" font-weight="bold" font-style="normal"
	transform="translate(42.04,182.50) scale(1.2,1)">
	<text text-anchor="middle">8</text>
	<text y="-12" text-anchor="middle">3</text>
</g>
<use x="85.94" y="168.00" xlink:href="#hd"/>
<path d="M82.44 168.00v25.00" class="stroke"/>
<use x="85.94" y="174.00" xlink:href="#hd"/>
<use x="137.94" y="171.00" xlink:href="#r8"/>
<use x="172.64" y="168.00" xlink:href="#hd"/>
<path d="M169.14 168.00v25.00" class="stroke"/>
<use x="172.64" y="174.00" xlink:href="#hd"/>
<use x="224.64" y="171.00" xlink:href="#r8"/>
<use x="259.34" y="162.00" xlink:href="#hd"/>
<path d="M255.84 162.00v21.00" class="stroke"/>
<use x="322.04" y="171.00" xlink:href="#r8"/>
<use x="369.14" y="162.00" xlink:href="#hd"/>
<path d="M365.64 162.00v25.00" class="stroke"/>
<use x="369.14" y="168.00" xlink:href="#hd"/>
<use x="421.14" y="171.00" xlink:href="#r8"/>
<path class="fill"
	d="M463.04 153.00l52.70 0.00v3.20l-52.70 -0.00"/>
<use x="459.94" y="174.00" xlink:href="#hd"/>
<path d="M463.44 174.00v-20.00" class="stroke"/>
<use x="485.94" y="174.00" xlink:href="#hd"/>
<path d="M489.44 174.00v-20.00" class="stroke"/>
<use x="511.94" y="174.00" xlink:href="#hd"/>
<path d="M515.44 174.00v-20.00" class="stroke"/>
<use x="546.54" y="162.00" xlink:href="#hd"/>
<path d="M543.04 162.00v34.00" class="stroke"/>
<use x="546.54" y="177.00" xlink:href="#hd"/>
<use x="609.34" y="171.00" xlink:href="#r8"/>
<path class="fill"
	d="M647.14 147.60l74.20 8.40v3.20l-74.20 -8.40"/>
<use x="643.94" y="174.00" xlink:href="#hd"/>
<path d="M647.44 174.00v-25.40" class="stroke"/>
<use x="680.74" y="171.00" xlink:href="#hd"/>
<path d="M684.24 171.00v-18.20" class="stroke"/>
<use x="717.44" y="189.00" xlink:href="#hl"/>
<use x="717.44" y="192.00" xlink:href="#hd"/>
<path d="M720.94 192.00v-35.00" class="stroke"/>
<path class="fill"
	d="M760.74 202.20l81.80 0.00v-3.20l-81.80 -0.00"/>
<path class="fill"
	d="M787.04 197.20l55.10 0.00v-3.20l-55.10 -0.00"/>
<use x="764.54" y="183.00" xlink:href="#hd"/>
<path d="M761.04 183.00v18.20" class="stroke"/>
<use x="790.54" y="162.00" xlink:href="#hd"/>
<path d="M787.04 162.00v39.20" class="stroke"/>
<use x="808.94" y="165.00" xlink:href="#hd"/>
<defs>
<path id="unat" class="fill" d="
	m96 -750
	h-32
	v716
	l32 -8
	182 -54
	v282
	h32
	v-706
	l-34 10
	-180 50
	v-290
	m0 592
	v-190
	l182 -52
	v188"/>
<use id="nt0" transform="translate(-3,5) scale(0.018)"
	xlink:href="#unat"/>
</defs>
<use x="799.94" y="165.00" xlink:href="#nt0"/>
<path d="M805.44 165.00v36.20" class="stroke"/>
<use x="827.34" y="168.00" xlink:href="#hd"/>
<path d="M823.84 168.00v33.20" class="stroke"/>
<use x="845.74" y="171.00" xlink:href="#hd"/>
<path d="M842.24 171.00v30.20" class="stroke"/>
</g>
<g stroke-width="0.70" transform="scale(0.867)" font-family="Times" font-size="13.00">
<path class="stroke" stroke-width="1"
	d="M11.54 316.00v-82.00"/>
<path class="fill"
	d="M6.54 231.00
	c10.5 1 12 -4.5 12 -3.5c0 1 -3.5 5.5 -8.5 5.5
	v84.00
	c5 0 8.5 4.5 8.5 5.5c0 1 -1.5 -4.5 -12 -3.5"/>
<use x="144.84" y="258.00" xlink:href="#rdots"/>
<path class="stroke" stroke-width="1"
	d="M140.84 258.00v-24.00"/>
<path class="stroke" stroke-width="3"
	d="M136.34 258.00v-24.00"/>
<use x="144.84" y="316.00" xlink:href="#rdots"/>
<path class="stroke" stroke-width="1"
	d="M140.84 316.00v-58.00"/>
<path class="stroke" stroke-width="3"
	d="M136.34 316.00v-58.00"/>
<path class="stroke" stroke-width="1"
	d="M252.54 258.00v-24.00"/>
<path class="stroke" stroke-width="1"
	d="M252.54 316.00v-58.00"/>
<path class="stroke" stroke-width="1"
	d="M333.14 258.00v-24.00"/>
<path class="stroke" stroke-width="1"
	d="M333.14 316.00v-58.00"/>
<path class="stroke" stroke-width="1"
	d="M424.54 258.00v-24.00"/>
<path class="stroke" stroke-width="1"
	d="M424.54 316.00v-58.00"/>
<path class="stroke" stroke-width="1"
	d="M514.24 258.00v-24.00"/>
<path class="stroke" stroke-width="1"
	d="M514.24 316.00v-58.00"/>
<path class="stroke" stroke-width="1"
	d="M614.84 258.00v-24.00"/>
<path class="stroke" stroke-width="1"
	d="M614.84 316.00v-58.00"/>
<path class="stroke" stroke-width="1"
	d="M715.34 258.00v-24.00"/>
<path class="stroke" stroke-width="1"
	d="M715.34 316.00v-58.00"/>
<path class="stroke" stroke-width="1"
	d="M786.84 258.00v-24.00"/>
<path class="stroke" stroke-width="1"
	d="M786.84 316.00v-58.00"/>
<path class="stroke" stroke-width="3"
	d="M860.54 258.00v-24.00"/>
<path class="stroke" stroke-width="1"
	d="M856.04 258.00v-24.00"/>
<use x="852.04" y="258.00" xlink:href="#rdots"/>
<path class="stroke" stroke-width="3"
	d="M860.54 316.00v-58.00"/>
<path class="stroke" stroke-width="1"
	d="M856.04 316.00v-58.00"/>
<use x="852.04" y="316.00" xlink:href="#rdots"/>
<path d="m11.54 258.00
	h850.50
	M11.54 252.00
	h850.50
	M11.54 246.00
	h850.50
	M11.54 240.00
	h850.50
	M11.54 234.00
	h850.50
	" class="stroke"/>
<path d="m11.54 316.00
	h850.50
	M11.54 310.00
	h850.50
	M11.54 304.00
	h850.50
	M11.54 298.00
	h850.50
	M11.54 292.00
	h850.50
	" class="stroke"/>
<text x="47.54" y="219.40">2</text>
<path class="stroke"
	d="M43.54 208.00m0 20v-20h90.30v20"/>
<use x="23.54" y="252.00" xlink:href="#tclef"/>
<use x="56.04" y="231.00" xlink:href="#hd"/>
<path d="M52.54 231.00v40.00" class="stroke"/>
<use x="56.04" y="252.00" xlink:href="#hd"/>
<use x="56.04" y="246.00" xlink:href="#hd"/>
<use x="56.04" y="240.00" xlink:href="#hd"/>
<use x="110.24" y="246.00" xlink:href="#r8"/>
<path class="fill"
	d="M160.54 258.20l76.30 0.00v-3.20l-76.30 -0.00"/>
<path class="fill"
	d="M160.84 253.20l75.70 0.00v-3.20l-75.70 -0.00"/>
<use x="164.34" y="234.00" xlink:href="#hd"/>
<use x="155.34" y="234.00" xlink:href="#sh0"/>
<path d="M160.84 234.00v23.20" class="stroke"/>
<use x="179.44" y="228.00" xlink:href="#hl"/>
<use x="179.44" y="228.00" xlink:href="#hd"/>
<path d="M175.94 228.00v29.20" class="stroke"/>
<use x="194.64" y="228.00" xlink:href="#hl"/>
<use x="194.64" y="222.00" xlink:href="#hl"/>
<use x="194.64" y="219.00" xlink:href="#hd"/>
<path d="M191.14 219.00v38.20" class="stroke"/>
<use x="209.84" y="228.00" xlink:href="#hl"/>
<use x="209.84" y="228.00" xlink:href="#hd"/>
<path d="M206.34 228.00v29.20" class="stroke"/>
<use x="224.94" y="234.00" xlink:href="#hd"/>
<path d="M221.44 234.00v23.20" class="stroke"/>
<use x="240.04" y="228.00" xlink:href="#hl"/>
<use x="240.04" y="228.00" xlink:href="#hd"/>
<path d="M236.54 228.00v29.20" class="stroke"/>
<path class="fill"
	d="M261.14 260.00l52.10 0.00v-3.20l-52.10 -0.00"/>
<path class="fill"
	d="M282.64 255.00l15.20 0.00v-3.20l-15.20 -0.00"/>
<use x="265.04" y="231.00" xlink:href="#hd"/>
<path d="M261.54 231.00v28.00" class="stroke"/>
<use x="286.14" y="228.00" xlink:href="#hl"/>
<use x="286.14" y="225.00" xlink:href="#hd"/>
<path d="M282.64 225.00v34.00" class="stroke"/>
<use x="301.34" y="228.00" xlink:href="#hl"/>
<use x="301.34" y="222.00" xlink:href="#hl"/>
<use x="301.34" y="219.00" xlink:href="#hd"/>
<path d="M297.84 219.00v40.00" class="stroke"/>
<use x="316.34" y="240.00" xlink:href="#hd"/>
<path d="M312.84 240.00v19.00" class="stroke"/>
<path class="fill"
	d="M341.84 267.50l67.10 -7.30v-3.20l-67.10 7.30"/>
<path class="fill"
	d="M363.24 260.20l45.30 -4.90v-3.20l-45.30 4.90"/>
<use x="345.64" y="237.00" xlink:href="#hd"/>
<path d="M342.14 237.00v29.50" class="stroke"/>
<use x="366.74" y="243.00" xlink:href="#hd"/>
<path d="M363.24 243.00v21.20" class="stroke"/>
<use x="381.84" y="237.00" xlink:href="#hd"/>
<path d="M378.34 237.00v25.60" class="stroke"/>
<use x="396.94" y="231.00" xlink:href="#hd"/>
<path d="M393.44 231.00v29.90" class="stroke"/>
<use x="412.04" y="228.00" xlink:href="#hl"/>
<use x="412.04" y="222.00" xlink:href="#hl"/>
<use x="412.04" y="222.00" xlink:href="#hd"/>
<path d="M408.54 222.00v37.30" class="stroke"/>
<path class="fill"
	d="M433.24 262.40l61.00 8.80v-3.20l-61.00 -8.80"/>
<path class="fill"
	d="M433.54 257.50l45.30 6.50v-3.20l-45.30 -6.50"/>
<use x="437.04" y="231.00" xlink:href="#hd"/>
<path d="M433.54 231.00v30.50" class="stroke"/>
<use x="452.14" y="237.00" xlink:href="#hd"/>
<path d="M448.64 237.00v26.70" class="stroke"/>
<use x="467.24" y="240.00" xlink:href="#hd"/>
<path d="M463.74 240.00v25.80" class="stroke"/>
<use x="482.34" y="246.00" xlink:href="#hd"/>
<path d="M478.84 246.00v22.00" class="stroke"/>
<use x="497.44" y="252.00" xlink:href="#hd"/>
<path d="M493.94 252.00v18.20" class="stroke"/>
<path class="fill"
	d="M522.84 255.90l76.30 9.40v-3.20l-76.30 -9.40"/>
<path class="fill"
	d="M523.24 250.90l75.70 9.30v-3.20l-75.70 -9.30"/>
<use x="526.74" y="228.00" xlink:href="#hl"/>
<use x="526.74" y="222.00" xlink:href="#hl"/>
<use x="526.74" y="222.00" xlink:href="#hd"/>
<path d="M523.24 222.00v32.90" class="stroke"/>
<use x="541.84" y="228.00" xlink:href="#hl"/>
<use x="541.84" y="225.00" xlink:href="#hd"/>
<path d="M538.34 225.00v31.80" class="stroke"/>
<use x="557.04" y="228.00" xlink:href="#hl"/>
<use x="557.04" y="222.00" xlink:href="#hl"/>
<use x="557.04" y="222.00" xlink:href="#hd"/>
<path d="M553.54 222.00v36.60" class="stroke"/>
<use x="572.14" y="231.00" xlink:href="#hd"/>
<path d="M568.64 231.00v29.50" class="stroke"/>
<use x="587.24" y="237.00" xlink:href="#hd"/>
<path d="M583.74 237.00v25.30" class="stroke"/>
<use x="602.34" y="243.00" xlink:href="#hd"/>
<path d="M598.84 243.00v21.20" class="stroke"/>
<path class="fill"
	d="M623.54 263.50l76.10 -6.30v-3.20l-76.10 6.30"/>
<path class="fill"
	d="M623.84 258.40l75.50 -6.20v-3.20l-75.50 6.20"/>
<use x="627.34" y="237.00" xlink:href="#hd"/>
<path d="M623.84 237.00v25.40" class="stroke"/>
<use x="642.44" y="240.00" xlink:href="#hd"/>
<path d="M638.94 240.00v21.20" class="stroke"/>
<use x="657.54" y="237.00" xlink:href="#hd"/>
<path d="M654.04 237.00v23.00" class="stroke"/>
<use x="672.64" y="231.00" xlink:href="#hd"/>
<path d="M669.14 231.00v27.70" class="stroke"/>
<use x="687.74" y="228.00" xlink:href="#hl"/>
<use x="687.74" y="222.00" xlink:href="#hl"/>
<use x="687.74" y="222.00" xlink:href="#hd"/>
<path d="M684.24 222.00v35.50" class="stroke"/>
<use x="702.84" y="231.00" xlink:href="#hd"/>
<path d="M699.34 231.00v25.20" class="stroke"/>
<path class="fill"
	d="M723.94 258.20l42.90 0.00v-3.20l-42.90 -0.00"/>
<use x="727.84" y="234.00" xlink:href="#hd"/>
<path d="M724.34 234.00v23.20" class="stroke"/>
<use x="748.94" y="240.00" xlink:href="#hd"/>
<path d="M745.44 240.00v17.20" class="stroke"/>
<use x="770.04" y="231.00" xlink:href="#hd"/>
<path d="M766.54 231.00v26.20" class="stroke"/>
<use x="799.34" y="243.00" xlink:href="#hd"/>
<path d="M795.84 243.00v21.00" class="stroke"/>
<use x="841.54" y="246.00" xlink:href="#r8"/>
<use x="23.54" y="298.00" xlink:href="#bclef"/>
<path class="fill"
	d="M52.24 335.20l70.00 -5.10v-3.20l-70.00 5.10"/>
<path class="fill"
	d="M73.64 328.70l48.20 -3.50v-3.20l-48.20 3.50"/>
<use x="56.04" y="316.00" xlink:href="#hd"/>
<path d="M52.54 316.00v18.20" class="stroke"/>
<use x="77.14" y="289.00" xlink:href="#hd"/>
<path d="M73.64 289.00v43.70" class="stroke"/>
<use x="92.24" y="295.00" xlink:href="#hd"/>
<path d="M88.74 295.00v36.60" class="stroke"/>
<use x="110.24" y="298.00" xlink:href="#hd"/>
<use x="101.24" y="298.00" xlink:href="#sh0"/>
<path d="M106.74 298.00v32.30" class="stroke"/>
<use x="125.34" y="301.00" xlink:href="#hd"/>
<path d="M121.84 301.00v28.20" class="stroke"/>
<use x="164.34" y="292.00" xlink:href="#hd"/>
<path d="M160.84 292.00v34.00" class="stroke"/>
<use x="164.34" y="307.00" xlink:href="#hd"/>
<use x="224.94" y="292.00" xlink:href="#hd"/>
<path d="M221.44 292.00v34.00" class="stroke"/>
<path class="fill"
	d="M221.44 326.00c0.6 -5.6 9.6 -9 5.6 -18.4
	1.6 6 -1.3 11.6 -5.6 12.8
"/>
<use x="224.94" y="307.00" xlink:href="#hd"/>
<use x="265.04" y="310.00" xlink:href="#hd"/>
<path d="M268.54 310.00v-21.00" class="stroke"/>
<use x="316.34" y="304.00" xlink:href="#r8"/>
<use x="345.64" y="295.00" xlink:href="#hd"/>
<path d="M342.14 295.00v31.00" class="stroke"/>
<use x="345.64" y="307.00" xlink:href="#hd"/>
<use x="396.94" y="301.00" xlink:href="#hd"/>
<path d="M393.44 301.00v25.00" class="stroke"/>
<path class="fill"
	d="M393.44 326.00c0.6 -5.6 9.6 -9 5.6 -18.4
	1.6 6 -1.3 11.6 -5.6 12.8
"/>
<use x="396.94" y="307.00" xlink:href="#hd"/>
<path class="fill"
	d="M440.24 275.70l30.90 9.00v3.20l-30.90 -9.00"/>
<use x="437.04" y="295.00" xlink:href="#hd"/>
<path d="M440.54 295.00v-18.20" class="stroke"/>
<use x="467.24" y="316.00" xlink:href="#hd"/>
<path d="M470.74 316.00v-30.40" class="stroke"/>
<use x="497.44" y="304.00" xlink:href="#r8"/>
<use x="526.74" y="301.00" xlink:href="#hd"/>
<path d="M523.24 301.00v25.00" class="stroke"/>
<use x="526.74" y="307.00" xlink:href="#hd"/>
<use x="587.24" y="295.00" xlink:href="#hd"/>
<path d="M583.74 295.00v31.00" class="stroke"/>
<path class="fill"
	d="M583.74 326.00c0.6 -5.6 9.6 -9 5.6 -18.4
	1.6 6 -1.3 11.6 -5.6 12.8
"/>
<use x="587.24" y="307.00" xlink:href="#hd"/>
<use x="627.34" y="295.00" xlink:href="#hd"/>
<path d="M623.84 295.00v31.00" class="stroke"/>
<use x="627.34" y="307.00" xlink:href="#hd"/>
<use x="687.74" y="301.00" xlink:href="#hd"/>
<path d="M684.24 301.00v25.00" class="stroke"/>
<path class="fill"
	d="M684.24 326.00c0.6 -5.6 9.6 -9 5.6 -18.4
	1.6 6 -1.3 11.6 -5.6 12.8
"/>
<use x="687.74" y="307.00" xlink:href="#hd"/>
<path class="fill"
	d="M723.94 323.20l42.90 0.00v-3.20l-42.90 -0.00"/>
<use x="727.84" y="298.00" xlink:href="#hd"/>
<path d="M724.34 298.00v24.20" class="stroke"/>
<use x="748.94" y="304.00" xlink:href="#hd"/>
<path d="M745.44 304.00v18.20" class="stroke"/>
<use x="770.04" y="295.00" xlink:href="#hd"/>
<path d="M766.54 295.00v27.20" class="stroke"/>
<path class="fill"
	d="M802.44 287.70l42.90 9.90v3.20l-42.90 -9.90"/>
<use x="799.34" y="307.00" xlink:href="#hd"/>
<path d="M802.84 307.00v-18.20" class="stroke"/>
<use x="820.44" y="316.00" xlink:href="#hd"/>
<path d="M823.94 316.00v-22.30" class="stroke"/>
<use x="841.54" y="322.00" xlink:href="#hl"/>
<use x="841.54" y="328.00" xlink:href="#hl"/>
<use x="841.54" y="328.00" xlink:href="#hd"/>
<path d="M845.04 328.00v-29.50" class="stroke"/>
</g>
</svg>
