<?xml version="1.0" standalone="no"?>
<!DOCTYPE svg PUBLIC "-//W3C//DTD SVG 1.1//EN"
	"http://www.w3.org/Graphics/SVG/1.1/DTD/svg11.dtd">
<svg xmlns="http://www.w3.org/2000/svg" version="1.1"
	xmlns:xlink="http://www.w3.org/1999/xlink"
	color="black"
	width="757.10px" height="294.68px">
<style type="text/css">
.fill {fill: currentColor}
.stroke {stroke: currentColor; fill: none}
text{white-space: pre}
</style>
<title>./K516f-4-12-9-6-11-5-10-7-4-10-10-3-7-9-7-6.abc (1960) tune 1</title>
<!-- Creator: abcm2ps-8.13.8 -->
<!-- CreationDate: Sep  7, 2017 11:18 -->
<!-- CommandLine: ./K516f-4-12-9-6-11-5-10-7-4-10-10-3-7-9-7-6.abc -O ./K516f-4-12-9-6-11-5-10-7-4-10-10-3-7-9-7-6.svg -g -->
<rect width="100%" height="100%" fill="white"/>
<g stroke-width="0.70" transform="scale(0.867)">
<!-- title: 4-12-9-6-11-5-10-7-4-10-10-3-7-9-7-6 -->
</g>
<g stroke-width="0.70" transform="scale(0.867)" font-family="Times" font-size="20.00">
<text x="436.84" y="22.00" text-anchor="middle">4-12-9-6-11-5-10-7-4-10-10-3-7-9-7-6</text>
</g>
<g stroke-width="0.70" transform="scale(0.867)" font-family="Times" font-size="20.00">
<!-- subtitle: $1K.516f::69:130:114:45:135:2:62:91:66:77:19:56:101:115:23:93::$0 -->
</g>
<g stroke-width="0.70" transform="scale(0.867)" font-family="Courier" font-size="8.00" font-weight="bold">
<text x="436.84" y="41.80" text-anchor="middle">K.516f::69:130:114:45:135:2:62:91:66:77:19:56:101:115:23:93::</text>
</g>
<g stroke-width="0.70" transform="scale(0.867)" font-family="Courier" font-size="8.00" font-weight="bold">
<!-- subtitle: $1Perm. No.: 196055687354970$0 -->
<text x="436.84" y="60.80" text-anchor="middle">Perm. No.: 196055687354970</text>
</g>
<g stroke-width="0.70" transform="scale(0.607)" font-family="Courier" font-size="8.00" font-weight="bold">
<defs>
<ellipse id="hd" rx="4.1" ry="2.9"
	transform="rotate(-20)" class="fill"/>
</defs>
<use x="103.06" y="121.29" xlink:href="#hd"/>
<path d="M106.56 121.29v-21.00" class="stroke"/>
<path class="fill"
	d="M106.56 100.29c0.6 5.6 9.6 9 5.6 18.4
	1.6 -6 -1.3 -11.6 -5.6 -12.8
"/>
</g>
<g stroke-width="0.70" transform="scale(0.867)" font-family="Times" font-size="15.00" font-weight="bold">
<text x="81.24" y="87.00">= 111</text>
<path class="stroke" stroke-width="1"
	d="M11.54 184.00v-82.00"/>
<path class="fill"
	d="M6.54 99.00
	c10.5 1 12 -4.5 12 -3.5c0 1 -3.5 5.5 -8.5 5.5
	v84.00
	c5 0 8.5 4.5 8.5 5.5c0 1 -1.5 -4.5 -12 -3.5"/>
<defs>
<g id="rdots" class="fill">
	<circle cx="0" cy="-9" r="1.2"/>
	<circle cx="0" cy="-15" r="1.2"/>
</g>
</defs>
<use x="70.54" y="126.00" xlink:href="#rdots"/>
<path class="stroke" stroke-width="1"
	d="M66.54 126.00v-24.00"/>
<path class="stroke" stroke-width="3"
	d="M62.04 126.00v-24.00"/>
<use x="70.54" y="184.00" xlink:href="#rdots"/>
<path class="stroke" stroke-width="1"
	d="M66.54 184.00v-58.00"/>
<path class="stroke" stroke-width="3"
	d="M62.04 184.00v-58.00"/>
<path class="stroke" stroke-width="1"
	d="M153.84 126.00v-24.00"/>
<path class="stroke" stroke-width="1"
	d="M153.84 184.00v-58.00"/>
<path class="stroke" stroke-width="1"
	d="M236.04 126.00v-24.00"/>
<path class="stroke" stroke-width="1"
	d="M236.04 184.00v-58.00"/>
<path class="stroke" stroke-width="1"
	d="M318.34 126.00v-24.00"/>
<path class="stroke" stroke-width="1"
	d="M318.34 184.00v-58.00"/>
<path class="stroke" stroke-width="1"
	d="M432.94 126.00v-24.00"/>
<path class="stroke" stroke-width="1"
	d="M432.94 184.00v-58.00"/>
<path class="stroke" stroke-width="1"
	d="M535.64 126.00v-24.00"/>
<path class="stroke" stroke-width="1"
	d="M535.64 184.00v-58.00"/>
<path class="stroke" stroke-width="1"
	d="M640.04 126.00v-24.00"/>
<path class="stroke" stroke-width="1"
	d="M640.04 184.00v-58.00"/>
<path class="stroke" stroke-width="1"
	d="M755.24 126.00v-24.00"/>
<path class="stroke" stroke-width="1"
	d="M755.24 184.00v-58.00"/>
<path class="stroke" stroke-width="3"
	d="M860.54 126.00v-24.00"/>
<path class="stroke" stroke-width="1"
	d="M856.04 126.00v-24.00"/>
<use x="852.04" y="126.00" xlink:href="#rdots"/>
<path class="stroke" stroke-width="3"
	d="M860.54 184.00v-58.00"/>
<path class="stroke" stroke-width="1"
	d="M856.04 184.00v-58.00"/>
<use x="852.04" y="184.00" xlink:href="#rdots"/>
<path d="m11.54 126.00
	h850.50
	M11.54 120.00
	h850.50
	M11.54 114.00
	h850.50
	M11.54 108.00
	h850.50
	M11.54 102.00
	h850.50
	" class="stroke"/>
<path d="m11.54 184.00
	h850.50
	M11.54 178.00
	h850.50
	M11.54 172.00
	h850.50
	M11.54 166.00
	h850.50
	M11.54 160.00
	h850.50
	" class="stroke"/>
<path class="fill"
	d="M89.34 95.40c7.02 -3.03 38.24 2.21 45.26 7.60
	v-0.25c-8.38 -7.14 -36.88 -12.39 -45.26 -7.35"/>
</g>
<g stroke-width="0.70" transform="scale(0.867)" font-family="Times" font-size="13.00">
<text x="759.24" y="87.40">1</text>
<path class="stroke"
	d="M755.24 76.00m0 20v-20h98.80v20"/>
<defs>
<path id="utclef" class="fill" d="m-50 -90
	c-72 -41 -72 -158 52 -188
	150 -10 220 188 90 256
	-114 52 -275 0 -293 -136
	-15 -181 93 -229 220 -334
	88 -87 79 -133 62 -210
	-51 33 -94 105 -89 186
	17 267 36 374 49 574
	6 96 -19 134 -77 135
	-80 1 -126 -93 -61 -133
	85 -41 133 101 31 105
	23 17 92 37 90 -92
	-10 -223 -39 -342 -50 -617
	0 -90 0 -162 96 -232
	56 72 63 230 22 289
	-74 106 -257 168 -255 316
	9 153 148 185 252 133
	86 -65 29 -192 -80 -176
	-71 12 -105 67 -59 124"/>
<use id="tclef" transform="translate(0,6) scale(0.045)"
	xlink:href="#utclef"/>
</defs>
<use x="23.54" y="120.00" xlink:href="#tclef"/>
<g font-family="serif" font-size="16" font-weight="bold" font-style="normal"
	transform="translate(42.04,125.50) scale(1.2,1)">
	<text text-anchor="middle">8</text>
	<text y="-12" text-anchor="middle">3</text>
</g>
<path class="fill"
	d="M81.44 122.10l49.90 8.20v-3.20l-49.90 -8.20"/>
<use x="85.34" y="99.00" xlink:href="#hd"/>
<path d="M81.84 99.00v22.10" class="stroke"/>
<use x="109.94" y="105.00" xlink:href="#hd"/>
<path d="M106.44 105.00v20.20" class="stroke"/>
<use x="134.54" y="111.00" xlink:href="#hd"/>
<path d="M131.04 111.00v18.20" class="stroke"/>
<path class="fill"
	d="M170.74 92.00l49.90 0.00v3.20l-49.90 -0.00"/>
<use x="167.54" y="126.00" xlink:href="#hd"/>
<path d="M171.04 126.00v-33.00" class="stroke"/>
<use x="167.54" y="111.00" xlink:href="#hd"/>
<use x="192.24" y="126.00" xlink:href="#hd"/>
<path d="M195.74 126.00v-33.00" class="stroke"/>
<use x="192.24" y="111.00" xlink:href="#hd"/>
<use x="216.84" y="126.00" xlink:href="#hd"/>
<path d="M220.34 126.00v-33.00" class="stroke"/>
<use x="216.84" y="111.00" xlink:href="#hd"/>
<path class="fill"
	d="M246.04 133.00l49.90 0.00v-3.20l-49.90 -0.00"/>
<use x="249.84" y="108.00" xlink:href="#hd"/>
<path d="M246.34 108.00v24.00" class="stroke"/>
<use x="249.84" y="114.00" xlink:href="#hd"/>
<use x="274.44" y="108.00" xlink:href="#hd"/>
<path d="M270.94 108.00v24.00" class="stroke"/>
<use x="274.44" y="114.00" xlink:href="#hd"/>
<use x="299.14" y="108.00" xlink:href="#hd"/>
<path d="M295.64 108.00v24.00" class="stroke"/>
<use x="299.14" y="114.00" xlink:href="#hd"/>
<path class="fill"
	d="M335.24 84.80l87.90 10.00v3.20l-87.90 -10.00"/>
<path class="fill"
	d="M335.54 89.80l87.20 9.90v3.20l-87.20 -9.90"/>
<use x="332.04" y="111.00" xlink:href="#hd"/>
<path d="M335.54 111.00v-25.20" class="stroke"/>
<use x="349.54" y="114.00" xlink:href="#hd"/>
<path d="M353.04 114.00v-26.20" class="stroke"/>
<use x="366.94" y="111.00" xlink:href="#hd"/>
<path d="M370.44 111.00v-21.20" class="stroke"/>
<use x="384.44" y="120.00" xlink:href="#hd"/>
<path d="M387.94 120.00v-28.20" class="stroke"/>
<use x="401.84" y="126.00" xlink:href="#hd"/>
<path d="M405.34 126.00v-32.20" class="stroke"/>
<defs>
<path id="hl" class="stroke" d="m-6 0h12"/>
</defs>
<use x="419.24" y="132.00" xlink:href="#hl"/>
<use x="419.24" y="132.00" xlink:href="#hd"/>
<path d="M422.74 132.00v-36.20" class="stroke"/>
<path class="fill"
	d="M447.54 128.00l60.40 0.00v-3.20l-60.40 -0.00"/>
<path class="fill"
	d="M472.64 123.00l17.40 0.00v-3.20l-17.40 -0.00"/>
<use x="451.44" y="102.00" xlink:href="#hd"/>
<defs>
<path id="usharp" class="fill" d="
	m136 -702
	v890
	h32
	v-890
	m128 840
	h32
	v-888
	h-32
	m-232 286
	v116
	l338 -96
	v-116
	m-338 442
	v116
	l338 -98
	v-114"/>
<use id="sh0" transform="translate(-4,5) scale(0.018)"
	xlink:href="#usharp"/>
</defs>
<use x="442.44" y="102.00" xlink:href="#sh0"/>
<path d="M447.94 102.00v25.00" class="stroke"/>
<use x="476.14" y="102.00" xlink:href="#hd"/>
<path d="M472.64 102.00v25.00" class="stroke"/>
<use x="493.64" y="108.00" xlink:href="#hd"/>
<path d="M490.14 108.00v19.00" class="stroke"/>
<use x="511.14" y="96.00" xlink:href="#hl"/>
<use x="511.14" y="96.00" xlink:href="#hd"/>
<path d="M507.64 96.00v31.00" class="stroke"/>
<path class="fill"
	d="M552.54 86.40l77.70 -7.60v3.20l-77.70 7.60"/>
<path class="fill"
	d="M577.64 88.90l52.30 -5.10v3.20l-52.30 5.10"/>
<use x="549.34" y="117.00" xlink:href="#hd"/>
<path d="M552.84 117.00v-29.70" class="stroke"/>
<use x="574.14" y="123.00" xlink:href="#hd"/>
<use x="565.14" y="123.00" xlink:href="#sh0"/>
<path d="M577.64 123.00v-38.10" class="stroke"/>
<use x="591.54" y="120.00" xlink:href="#hd"/>
<path d="M595.04 120.00v-36.80" class="stroke"/>
<use x="608.94" y="114.00" xlink:href="#hd"/>
<path d="M612.44 114.00v-32.50" class="stroke"/>
<use x="626.44" y="99.00" xlink:href="#hd"/>
<path d="M629.94 99.00v-19.20" class="stroke"/>
<path class="fill"
	d="M657.04 82.80l88.40 8.10v3.20l-88.40 -8.10"/>
<path class="fill"
	d="M657.34 87.80l87.80 8.00v3.20l-87.80 -8.00"/>
<use x="653.84" y="105.00" xlink:href="#hd"/>
<path d="M657.34 105.00v-21.20" class="stroke"/>
<use x="671.24" y="111.00" xlink:href="#hd"/>
<path d="M674.74 111.00v-25.60" class="stroke"/>
<use x="688.74" y="114.00" xlink:href="#hd"/>
<path d="M692.24 114.00v-27.00" class="stroke"/>
<use x="706.14" y="120.00" xlink:href="#hd"/>
<path d="M709.64 120.00v-31.40" class="stroke"/>
<use x="723.54" y="117.00" xlink:href="#hd"/>
<path d="M727.04 117.00v-26.80" class="stroke"/>
<use x="741.54" y="123.00" xlink:href="#hd"/>
<use x="732.54" y="123.00" xlink:href="#sh0"/>
<path d="M745.04 123.00v-31.20" class="stroke"/>
<use x="768.94" y="99.00" xlink:href="#hd"/>
<path d="M765.44 99.00v40.00" class="stroke"/>
<use x="768.94" y="120.00" xlink:href="#hd"/>
<use x="768.94" y="114.00" xlink:href="#hd"/>
<use x="768.94" y="108.00" xlink:href="#hd"/>
<defs>
<path id="r8e" class="fill" d="m 0 0
	c-1.5 1.5 -2.4 2 -3.6 2
	2.4 -2.8 -2.8 -4 -2.8 -1.2
	c0 2.7 4.3 2.4 5.9 0.6"/>
<g id="r8">
	<path d="m3.3 -4l-3.4 9.6" class="stroke"/>
	<use x="3.4" y="-4" xlink:href="#r8e"/>
</g>
</defs>
<use x="829.04" y="114.00" xlink:href="#r8"/>
<defs>
<path id="ubclef" class="fill" d="m-200 -87
	c124 -35 222 -78 254 -236
	43 -228 -167 -246 -192 -103
	59 -80 157 22 92 78
	-62 47 -115 -22 -106 -88
	21 -141 270 -136 274 52
	-1 175 -106 264 -322 297
	m357 -250
	c0 -36 51 -34 51 0
	0 37 -51 36 -51 0
	m-2 -129
	c0 -36 51 -34 51 0
	0 38 -51 37 -51 0"/>
<use id="bclef" transform="translate(0,18) scale(0.045)"
	xlink:href="#ubclef"/>
</defs>
<use x="23.54" y="166.00" xlink:href="#bclef"/>
<g font-family="serif" font-size="16" font-weight="bold" font-style="normal"
	transform="translate(42.04,183.50) scale(1.2,1)">
	<text text-anchor="middle">8</text>
	<text y="-12" text-anchor="middle">3</text>
</g>
<use x="85.34" y="169.00" xlink:href="#hd"/>
<path d="M81.84 169.00v25.00" class="stroke"/>
<use x="85.34" y="175.00" xlink:href="#hd"/>
<use x="134.54" y="172.00" xlink:href="#r8"/>
<path class="fill"
	d="M170.74 154.00l49.90 0.00v3.20l-49.90 -0.00"/>
<use x="167.54" y="175.00" xlink:href="#hd"/>
<path d="M171.04 175.00v-20.00" class="stroke"/>
<use x="192.24" y="175.00" xlink:href="#hd"/>
<path d="M195.74 175.00v-20.00" class="stroke"/>
<use x="216.84" y="175.00" xlink:href="#hd"/>
<path d="M220.34 175.00v-20.00" class="stroke"/>
<path class="fill"
	d="M246.04 184.30l49.90 0.00v-3.20l-49.90 -0.00"/>
<use x="249.84" y="163.00" xlink:href="#hd"/>
<path d="M246.34 163.00v20.20" class="stroke"/>
<use x="274.44" y="163.00" xlink:href="#hd"/>
<path d="M270.94 163.00v20.20" class="stroke"/>
<use x="299.14" y="163.00" xlink:href="#hd"/>
<path d="M295.64 163.00v20.20" class="stroke"/>
<use x="332.04" y="163.00" xlink:href="#hd"/>
<path d="M328.54 163.00v25.00" class="stroke"/>
<use x="332.04" y="169.00" xlink:href="#hd"/>
<use x="401.84" y="172.00" xlink:href="#r8"/>
<path class="fill"
	d="M454.54 151.00l60.40 0.00v3.20l-60.40 -0.00"/>
<use x="451.44" y="172.00" xlink:href="#hd"/>
<path d="M454.94 172.00v-20.00" class="stroke"/>
<use x="476.14" y="172.00" xlink:href="#hd"/>
<path d="M479.64 172.00v-20.00" class="stroke"/>
<use x="511.14" y="172.00" xlink:href="#hd"/>
<path d="M514.64 172.00v-20.00" class="stroke"/>
<use x="549.34" y="163.00" xlink:href="#hd"/>
<path d="M545.84 163.00v34.00" class="stroke"/>
<use x="549.34" y="178.00" xlink:href="#hd"/>
<use x="608.94" y="172.00" xlink:href="#r8"/>
<path class="fill"
	d="M657.04 148.70l70.40 8.30v3.20l-70.40 -8.30"/>
<use x="653.84" y="175.00" xlink:href="#hd"/>
<path d="M657.34 175.00v-25.30" class="stroke"/>
<use x="688.74" y="172.00" xlink:href="#hd"/>
<path d="M692.24 172.00v-18.20" class="stroke"/>
<use x="723.54" y="190.00" xlink:href="#hl"/>
<use x="723.54" y="193.00" xlink:href="#hd"/>
<path d="M727.04 193.00v-35.10" class="stroke"/>
<path class="fill"
	d="M765.14 203.20l78.20 0.00v-3.20l-78.20 -0.00"/>
<path class="fill"
	d="M790.14 198.20l52.90 0.00v-3.20l-52.90 -0.00"/>
<use x="768.94" y="184.00" xlink:href="#hd"/>
<path d="M765.44 184.00v18.20" class="stroke"/>
<use x="793.64" y="163.00" xlink:href="#hd"/>
<path d="M790.14 163.00v39.20" class="stroke"/>
<use x="811.64" y="166.00" xlink:href="#hd"/>
<defs>
<path id="unat" class="fill" d="
	m96 -750
	h-32
	v716
	l32 -8
	182 -54
	v282
	h32
	v-706
	l-34 10
	-180 50
	v-290
	m0 592
	v-190
	l182 -52
	v188"/>
<use id="nt0" transform="translate(-3,5) scale(0.018)"
	xlink:href="#unat"/>
</defs>
<use x="802.64" y="166.00" xlink:href="#nt0"/>
<path d="M808.14 166.00v36.20" class="stroke"/>
<use x="829.04" y="169.00" xlink:href="#hd"/>
<path d="M825.54 169.00v33.20" class="stroke"/>
<use x="846.54" y="172.00" xlink:href="#hd"/>
<path d="M843.04 172.00v30.20" class="stroke"/>
<path class="fill"
	d="M455.54 196.00l60.40 0.00v-3.20l-60.40 -0.00"/>
<use x="459.44" y="175.00" xlink:href="#hd"/>
<path d="M455.94 175.00v20.00" class="stroke"/>
<use x="484.14" y="175.00" xlink:href="#hd"/>
<path d="M480.64 175.00v20.00" class="stroke"/>
<use x="519.14" y="175.00" xlink:href="#hd"/>
<path d="M515.64 175.00v20.00" class="stroke"/>
</g>
<g stroke-width="0.70" transform="scale(0.867)" font-family="Times" font-size="13.00">
<path class="stroke" stroke-width="1"
	d="M11.54 317.01v-82.00"/>
<path class="fill"
	d="M6.54 232.01
	c10.5 1 12 -4.5 12 -3.5c0 1 -3.5 5.5 -8.5 5.5
	v84.00
	c5 0 8.5 4.5 8.5 5.5c0 1 -1.5 -4.5 -12 -3.5"/>
<use x="145.94" y="259.01" xlink:href="#rdots"/>
<path class="stroke" stroke-width="1"
	d="M141.94 259.01v-24.00"/>
<path class="stroke" stroke-width="3"
	d="M137.44 259.01v-24.00"/>
<use x="145.94" y="317.01" xlink:href="#rdots"/>
<path class="stroke" stroke-width="1"
	d="M141.94 317.01v-58.00"/>
<path class="stroke" stroke-width="3"
	d="M137.44 317.01v-58.00"/>
<path class="stroke" stroke-width="1"
	d="M233.64 259.01v-24.00"/>
<path class="stroke" stroke-width="1"
	d="M233.64 317.01v-58.00"/>
<path class="stroke" stroke-width="1"
	d="M315.64 259.01v-24.00"/>
<path class="stroke" stroke-width="1"
	d="M315.64 317.01v-58.00"/>
<path class="stroke" stroke-width="1"
	d="M397.64 259.01v-24.00"/>
<path class="stroke" stroke-width="1"
	d="M397.64 317.01v-58.00"/>
<path class="stroke" stroke-width="1"
	d="M479.74 259.01v-24.00"/>
<path class="stroke" stroke-width="1"
	d="M479.74 317.01v-58.00"/>
<path class="stroke" stroke-width="1"
	d="M581.74 259.01v-24.00"/>
<path class="stroke" stroke-width="1"
	d="M581.74 317.01v-58.00"/>
<path class="stroke" stroke-width="1"
	d="M683.84 259.01v-24.00"/>
<path class="stroke" stroke-width="1"
	d="M683.84 317.01v-58.00"/>
<path class="stroke" stroke-width="1"
	d="M785.84 259.01v-24.00"/>
<path class="stroke" stroke-width="1"
	d="M785.84 317.01v-58.00"/>
<path class="stroke" stroke-width="3"
	d="M860.54 259.01v-24.00"/>
<path class="stroke" stroke-width="1"
	d="M856.04 259.01v-24.00"/>
<use x="852.04" y="259.01" xlink:href="#rdots"/>
<path class="stroke" stroke-width="3"
	d="M860.54 317.01v-58.00"/>
<path class="stroke" stroke-width="1"
	d="M856.04 317.01v-58.00"/>
<use x="852.04" y="317.01" xlink:href="#rdots"/>
<path d="m11.54 259.01
	h850.50
	M11.54 253.01
	h850.50
	M11.54 247.01
	h850.50
	M11.54 241.01
	h850.50
	M11.54 235.01
	h850.50
	" class="stroke"/>
<path d="m11.54 317.01
	h850.50
	M11.54 311.01
	h850.50
	M11.54 305.01
	h850.50
	M11.54 299.01
	h850.50
	M11.54 293.01
	h850.50
	" class="stroke"/>
<text x="47.54" y="220.41">2</text>
<path class="stroke"
	d="M43.54 209.01m0 20v-20h91.40v20"/>
<use x="23.54" y="253.01" xlink:href="#tclef"/>
<use x="56.04" y="232.01" xlink:href="#hd"/>
<path d="M52.54 232.01v40.00" class="stroke"/>
<use x="56.04" y="253.01" xlink:href="#hd"/>
<use x="56.04" y="247.01" xlink:href="#hd"/>
<use x="56.04" y="241.01" xlink:href="#hd"/>
<use x="111.04" y="247.01" xlink:href="#r8"/>
<path class="fill"
	d="M161.64 253.21l44.40 0.00v-3.20l-44.40 -0.00"/>
<use x="165.44" y="235.01" xlink:href="#hd"/>
<use x="156.44" y="235.01" xlink:href="#sh0"/>
<path d="M161.94 235.01v17.20" class="stroke"/>
<use x="187.54" y="229.01" xlink:href="#hl"/>
<use x="187.54" y="229.01" xlink:href="#hd"/>
<path d="M184.04 229.01v23.20" class="stroke"/>
<use x="209.14" y="235.01" xlink:href="#hd"/>
<path d="M205.64 235.01v17.20" class="stroke"/>
<path class="fill"
	d="M242.34 255.21l53.10 5.00v-3.20l-53.10 -5.00"/>
<path class="fill"
	d="M242.64 250.21l15.40 1.50v-3.20l-15.40 -1.50"/>
<use x="246.14" y="232.01" xlink:href="#hd"/>
<path d="M242.64 232.01v22.20" class="stroke"/>
<use x="261.54" y="229.01" xlink:href="#hl"/>
<use x="261.54" y="226.01" xlink:href="#hd"/>
<path d="M258.04 226.01v29.70" class="stroke"/>
<use x="276.94" y="232.01" xlink:href="#hd"/>
<path d="M273.44 232.01v25.20" class="stroke"/>
<use x="298.54" y="241.01" xlink:href="#hd"/>
<path d="M295.04 241.01v18.20" class="stroke"/>
<path class="fill"
	d="M324.34 267.41l53.10 -4.20v-3.20l-53.10 4.20"/>
<path class="fill"
	d="M324.64 262.41l15.40 -1.20v-3.20l-15.40 1.20"/>
<use x="328.14" y="238.01" xlink:href="#hd"/>
<path d="M324.64 238.01v28.40" class="stroke"/>
<use x="343.54" y="244.01" xlink:href="#hd"/>
<path d="M340.04 244.01v21.20" class="stroke"/>
<use x="358.94" y="238.01" xlink:href="#hd"/>
<path d="M355.44 238.01v26.00" class="stroke"/>
<use x="380.54" y="232.01" xlink:href="#hd"/>
<path d="M377.04 232.01v30.30" class="stroke"/>
<path class="fill"
	d="M406.34 266.61l31.50 6.90v-3.20l-31.50 -6.90"/>
<path class="fill"
	d="M406.64 261.61l15.40 3.40v-3.20l-15.40 -3.40"/>
<use x="410.14" y="241.01" xlink:href="#hd"/>
<path d="M406.64 241.01v24.60" class="stroke"/>
<use x="425.64" y="247.01" xlink:href="#hd"/>
<path d="M422.14 247.01v22.00" class="stroke"/>
<use x="441.04" y="253.01" xlink:href="#hd"/>
<path d="M437.54 253.01v19.40" class="stroke"/>
<use x="462.64" y="247.01" xlink:href="#r8"/>
<path class="fill"
	d="M488.34 264.51l77.70 -6.30v-3.20l-77.70 6.30"/>
<path class="fill"
	d="M488.74 259.41l77.10 -6.20v-3.20l-77.10 6.20"/>
<use x="492.24" y="238.01" xlink:href="#hd"/>
<path d="M488.74 238.01v25.40" class="stroke"/>
<use x="507.64" y="241.01" xlink:href="#hd"/>
<path d="M504.14 241.01v21.20" class="stroke"/>
<use x="523.04" y="238.01" xlink:href="#hd"/>
<path d="M519.54 238.01v23.00" class="stroke"/>
<use x="538.44" y="232.01" xlink:href="#hd"/>
<path d="M534.94 232.01v27.70" class="stroke"/>
<use x="553.84" y="229.01" xlink:href="#hl"/>
<use x="553.84" y="223.01" xlink:href="#hl"/>
<use x="553.84" y="223.01" xlink:href="#hd"/>
<path d="M550.34 223.01v35.50" class="stroke"/>
<use x="569.24" y="232.01" xlink:href="#hd"/>
<path d="M565.74 232.01v25.20" class="stroke"/>
<path class="fill"
	d="M590.44 276.51l77.70 -6.30v-3.20l-77.70 6.30"/>
<path class="fill"
	d="M590.74 271.41l77.10 -6.20v-3.20l-77.10 6.20"/>
<use x="594.24" y="244.01" xlink:href="#hd"/>
<path d="M590.74 244.01v31.40" class="stroke"/>
<use x="609.64" y="253.01" xlink:href="#hd"/>
<path d="M606.14 253.01v21.20" class="stroke"/>
<use x="625.04" y="238.01" xlink:href="#hd"/>
<path d="M621.54 238.01v35.00" class="stroke"/>
<use x="640.54" y="244.01" xlink:href="#hd"/>
<path d="M637.04 244.01v27.70" class="stroke"/>
<use x="655.94" y="232.01" xlink:href="#hd"/>
<path d="M652.44 232.01v38.50" class="stroke"/>
<use x="671.34" y="238.01" xlink:href="#hd"/>
<path d="M667.84 238.01v31.20" class="stroke"/>
<path class="fill"
	d="M692.44 261.01l77.70 0.00v-3.20l-77.70 -0.00"/>
<path class="fill"
	d="M692.84 256.01l77.10 0.00v-3.20l-77.10 -0.00"/>
<use x="696.34" y="235.01" xlink:href="#hd"/>
<path d="M692.84 235.01v25.00" class="stroke"/>
<use x="711.74" y="238.01" xlink:href="#hd"/>
<path d="M708.24 238.01v22.00" class="stroke"/>
<use x="727.14" y="241.01" xlink:href="#hd"/>
<path d="M723.64 241.01v19.00" class="stroke"/>
<use x="742.54" y="238.01" xlink:href="#hd"/>
<path d="M739.04 238.01v22.00" class="stroke"/>
<use x="757.94" y="235.01" xlink:href="#hd"/>
<path d="M754.44 235.01v25.00" class="stroke"/>
<use x="773.34" y="232.01" xlink:href="#hd"/>
<path d="M769.84 232.01v28.00" class="stroke"/>
<use x="798.34" y="244.01" xlink:href="#hd"/>
<path d="M794.84 244.01v21.00" class="stroke"/>
<use x="841.54" y="247.01" xlink:href="#r8"/>
<use x="23.54" y="299.01" xlink:href="#bclef"/>
<path class="fill"
	d="M52.24 336.21l71.10 -5.10v-3.20l-71.10 5.10"/>
<path class="fill"
	d="M74.14 329.71l48.80 -3.50v-3.20l-48.80 3.50"/>
<use x="56.04" y="317.01" xlink:href="#hd"/>
<path d="M52.54 317.01v18.20" class="stroke"/>
<use x="77.64" y="290.01" xlink:href="#hd"/>
<path d="M74.14 290.01v43.70" class="stroke"/>
<use x="93.04" y="296.01" xlink:href="#hd"/>
<path d="M89.54 296.01v36.50" class="stroke"/>
<use x="111.04" y="299.01" xlink:href="#hd"/>
<use x="102.04" y="299.01" xlink:href="#sh0"/>
<path d="M107.54 299.01v32.30" class="stroke"/>
<use x="126.44" y="302.01" xlink:href="#hd"/>
<path d="M122.94 302.01v28.10" class="stroke"/>
<path class="fill"
	d="M168.64 273.71l44.40 7.90v3.20l-44.40 -7.90"/>
<use x="165.44" y="293.01" xlink:href="#hd"/>
<path d="M168.94 293.01v-18.20" class="stroke"/>
<use x="187.54" y="299.01" xlink:href="#hd"/>
<use x="178.54" y="299.01" xlink:href="#sh0"/>
<path d="M191.04 299.01v-20.30" class="stroke"/>
<use x="209.14" y="305.01" xlink:href="#hd"/>
<path d="M212.64 305.01v-22.50" class="stroke"/>
<use x="246.14" y="311.01" xlink:href="#hd"/>
<path d="M249.64 311.01v-25.00" class="stroke"/>
<use x="246.14" y="305.01" xlink:href="#hd"/>
<use x="298.54" y="296.01" xlink:href="#hd"/>
<path d="M295.04 296.01v34.00" class="stroke"/>
<path class="fill"
	d="M295.04 330.01c0.6 -5.6 9.6 -9 5.6 -18.4
	1.6 6 -1.3 11.6 -5.6 12.8
"/>
<use x="298.54" y="311.01" xlink:href="#hd"/>
<use x="328.14" y="296.01" xlink:href="#hd"/>
<path d="M324.64 296.01v31.00" class="stroke"/>
<use x="328.14" y="308.01" xlink:href="#hd"/>
<use x="380.54" y="302.01" xlink:href="#hd"/>
<path d="M377.04 302.01v25.00" class="stroke"/>
<path class="fill"
	d="M377.04 327.01c0.6 -5.6 9.6 -9 5.6 -18.4
	1.6 6 -1.3 11.6 -5.6 12.8
"/>
<use x="380.54" y="308.01" xlink:href="#hd"/>
<use x="410.14" y="317.01" xlink:href="#hd"/>
<path d="M413.64 317.01v-40.00" class="stroke"/>
<use x="410.14" y="296.01" xlink:href="#hd"/>
<use x="462.64" y="296.01" xlink:href="#hd"/>
<path d="M459.14 296.01v21.00" class="stroke"/>
<path class="fill"
	d="M459.14 317.01c0.6 -5.6 9.6 -9 5.6 -18.4
	1.6 6 -1.3 11.6 -5.6 12.8
"/>
<use x="492.24" y="296.01" xlink:href="#hd"/>
<path d="M495.74 296.01v-21.00" class="stroke"/>
<use x="553.84" y="302.01" xlink:href="#hd"/>
<path d="M557.34 302.01v-21.00" class="stroke"/>
<path class="fill"
	d="M557.34 281.01c0.6 5.6 9.6 9 5.6 18.4
	1.6 -6 -1.3 -11.6 -5.6 -12.8
"/>
<use x="594.24" y="302.01" xlink:href="#hd"/>
<path d="M590.74 302.01v25.00" class="stroke"/>
<use x="594.24" y="308.01" xlink:href="#hd"/>
<use x="655.94" y="305.01" xlink:href="#r8"/>
<path class="fill"
	d="M692.44 318.91l77.70 0.00v-3.20l-77.70 -0.00"/>
<path class="fill"
	d="M692.84 313.91l77.10 0.00v-3.20l-77.10 -0.00"/>
<use x="696.34" y="293.01" xlink:href="#hd"/>
<path d="M692.84 293.01v25.00" class="stroke"/>
<use x="711.74" y="296.01" xlink:href="#hd"/>
<path d="M708.24 296.01v22.00" class="stroke"/>
<use x="727.14" y="299.01" xlink:href="#hd"/>
<path d="M723.64 299.01v19.00" class="stroke"/>
<use x="742.54" y="296.01" xlink:href="#hd"/>
<path d="M739.04 296.01v22.00" class="stroke"/>
<use x="757.94" y="293.01" xlink:href="#hd"/>
<path d="M754.44 293.01v25.00" class="stroke"/>
<use x="773.34" y="290.01" xlink:href="#hd"/>
<path d="M769.84 290.01v28.00" class="stroke"/>
<path class="fill"
	d="M801.54 288.71l43.90 10.00v3.20l-43.90 -10.00"/>
<use x="798.34" y="308.01" xlink:href="#hd"/>
<path d="M801.84 308.01v-18.20" class="stroke"/>
<use x="819.94" y="317.01" xlink:href="#hd"/>
<path d="M823.44 317.01v-22.30" class="stroke"/>
<use x="841.54" y="323.01" xlink:href="#hl"/>
<use x="841.54" y="329.01" xlink:href="#hl"/>
<use x="841.54" y="329.01" xlink:href="#hd"/>
<path d="M845.04 329.01v-29.40" class="stroke"/>
<path class="fill"
	d="M161.64 327.21l52.40 0.00v-3.20l-52.40 -0.00"/>
<use x="165.44" y="305.01" xlink:href="#hd"/>
<path d="M161.94 305.01v21.20" class="stroke"/>
<use x="187.54" y="305.01" xlink:href="#hd"/>
<path d="M184.04 305.01v21.20" class="stroke"/>
<use x="217.14" y="308.01" xlink:href="#hd"/>
<path d="M213.64 308.01v18.20" class="stroke"/>
<use x="492.24" y="308.01" xlink:href="#hd"/>
<path d="M488.74 308.01v21.00" class="stroke"/>
<use x="553.84" y="308.01" xlink:href="#hd"/>
<path d="M550.34 308.01v21.00" class="stroke"/>
<path class="fill"
	d="M550.34 329.01c0.6 -5.6 9.6 -9 5.6 -18.4
	1.6 6 -1.3 11.6 -5.6 12.8
"/>
</g>
</svg>
