<?xml version="1.0" standalone="no"?>
<!DOCTYPE svg PUBLIC "-//W3C//DTD SVG 1.1//EN"
	"http://www.w3.org/Graphics/SVG/1.1/DTD/svg11.dtd">
<svg xmlns="http://www.w3.org/2000/svg" version="1.1"
	xmlns:xlink="http://www.w3.org/1999/xlink"
	color="black"
	width="757.10px" height="299.87px">
<style type="text/css">
.fill {fill: currentColor}
.stroke {stroke: currentColor; fill: none}
text{white-space: pre}
</style>
<title>./K516f-10-12-10-8-2-11-9-9-10-3-10-4-6-10-4-2.abc (9536) tune 1</title>
<!-- Creator: abcm2ps-8.13.8 -->
<!-- CreationDate: Sep  7, 2017 11:20 -->
<!-- CommandLine: ./K516f-10-12-10-8-2-11-9-9-10-3-10-4-6-10-4-2.abc -O ./K516f-10-12-10-8-2-11-9-9-10-3-10-4-6-10-4-2.svg -g -->
<rect width="100%" height="100%" fill="white"/>
<g stroke-width="0.70" transform="scale(0.867)">
<!-- title: 10-12-10-8-2-11-9-9-10-3-10-4-6-10-4-2 -->
</g>
<g stroke-width="0.70" transform="scale(0.867)" font-family="Times" font-size="20.00">
<text x="436.84" y="22.00" text-anchor="middle">10-12-10-8-2-11-9-9-10-3-10-4-6-10-4-2</text>
</g>
<g stroke-width="0.70" transform="scale(0.867)" font-family="Times" font-size="20.00">
<!-- subtitle: $1K.516f::98:130:42:53:105:47:169:94:65:39:19:132:76:38:145:14::$0 -->
</g>
<g stroke-width="0.70" transform="scale(0.867)" font-family="Courier" font-size="8.00" font-weight="bold">
<text x="436.84" y="41.80" text-anchor="middle">K.516f::98:130:42:53:105:47:169:94:65:39:19:132:76:38:145:14::</text>
</g>
<g stroke-width="0.70" transform="scale(0.867)" font-family="Courier" font-size="8.00" font-weight="bold">
<!-- subtitle: $1Perm. No.: 95365220530512$0 -->
<text x="436.84" y="60.80" text-anchor="middle">Perm. No.: 95365220530512</text>
</g>
<g stroke-width="0.70" transform="scale(0.607)" font-family="Courier" font-size="8.00" font-weight="bold">
<defs>
<ellipse id="hd" rx="4.1" ry="2.9"
	transform="rotate(-20)" class="fill"/>
</defs>
<use x="103.06" y="121.29" xlink:href="#hd"/>
<path d="M106.56 121.29v-21.00" class="stroke"/>
<path class="fill"
	d="M106.56 100.29c0.6 5.6 9.6 9 5.6 18.4
	1.6 -6 -1.3 -11.6 -5.6 -12.8
"/>
</g>
<g stroke-width="0.70" transform="scale(0.867)" font-family="Times" font-size="15.00" font-weight="bold">
<text x="81.24" y="87.00">= 111</text>
<path class="stroke" stroke-width="1"
	d="M11.54 183.00v-82.00"/>
<path class="fill"
	d="M6.54 98.00
	c10.5 1 12 -4.5 12 -3.5c0 1 -3.5 5.5 -8.5 5.5
	v84.00
	c5 0 8.5 4.5 8.5 5.5c0 1 -1.5 -4.5 -12 -3.5"/>
<defs>
<g id="rdots" class="fill">
	<circle cx="0" cy="-9" r="1.2"/>
	<circle cx="0" cy="-15" r="1.2"/>
</g>
</defs>
<use x="70.54" y="125.00" xlink:href="#rdots"/>
<path class="stroke" stroke-width="1"
	d="M66.54 125.00v-24.00"/>
<path class="stroke" stroke-width="3"
	d="M62.04 125.00v-24.00"/>
<use x="70.54" y="183.00" xlink:href="#rdots"/>
<path class="stroke" stroke-width="1"
	d="M66.54 183.00v-58.00"/>
<path class="stroke" stroke-width="3"
	d="M62.04 183.00v-58.00"/>
<path class="stroke" stroke-width="1"
	d="M180.74 125.00v-24.00"/>
<path class="stroke" stroke-width="1"
	d="M180.74 183.00v-58.00"/>
<path class="stroke" stroke-width="1"
	d="M258.94 125.00v-24.00"/>
<path class="stroke" stroke-width="1"
	d="M258.94 183.00v-58.00"/>
<path class="stroke" stroke-width="1"
	d="M368.14 125.00v-24.00"/>
<path class="stroke" stroke-width="1"
	d="M368.14 183.00v-58.00"/>
<path class="stroke" stroke-width="1"
	d="M456.14 125.00v-24.00"/>
<path class="stroke" stroke-width="1"
	d="M456.14 183.00v-58.00"/>
<path class="stroke" stroke-width="1"
	d="M560.84 125.00v-24.00"/>
<path class="stroke" stroke-width="1"
	d="M560.84 183.00v-58.00"/>
<path class="stroke" stroke-width="1"
	d="M648.94 125.00v-24.00"/>
<path class="stroke" stroke-width="1"
	d="M648.94 183.00v-58.00"/>
<path class="stroke" stroke-width="1"
	d="M759.44 125.00v-24.00"/>
<path class="stroke" stroke-width="1"
	d="M759.44 183.00v-58.00"/>
<path class="stroke" stroke-width="3"
	d="M860.54 125.00v-24.00"/>
<path class="stroke" stroke-width="1"
	d="M856.04 125.00v-24.00"/>
<use x="852.04" y="125.00" xlink:href="#rdots"/>
<path class="stroke" stroke-width="3"
	d="M860.54 183.00v-58.00"/>
<path class="stroke" stroke-width="1"
	d="M856.04 183.00v-58.00"/>
<use x="852.04" y="183.00" xlink:href="#rdots"/>
<path d="m11.54 125.00
	h850.50
	M11.54 119.00
	h850.50
	M11.54 113.00
	h850.50
	M11.54 107.00
	h850.50
	M11.54 101.00
	h850.50
	" class="stroke"/>
<path d="m11.54 183.00
	h850.50
	M11.54 177.00
	h850.50
	M11.54 171.00
	h850.50
	M11.54 165.00
	h850.50
	M11.54 159.00
	h850.50
	" class="stroke"/>
</g>
<g stroke-width="0.70" transform="scale(0.867)" font-family="Times" font-size="13.00">
<text x="763.44" y="86.40">1</text>
<path class="stroke"
	d="M759.44 75.00m0 20v-20h94.60v20"/>
<defs>
<path id="utclef" class="fill" d="m-50 -90
	c-72 -41 -72 -158 52 -188
	150 -10 220 188 90 256
	-114 52 -275 0 -293 -136
	-15 -181 93 -229 220 -334
	88 -87 79 -133 62 -210
	-51 33 -94 105 -89 186
	17 267 36 374 49 574
	6 96 -19 134 -77 135
	-80 1 -126 -93 -61 -133
	85 -41 133 101 31 105
	23 17 92 37 90 -92
	-10 -223 -39 -342 -50 -617
	0 -90 0 -162 96 -232
	56 72 63 230 22 289
	-74 106 -257 168 -255 316
	9 153 148 185 252 133
	86 -65 29 -192 -80 -176
	-71 12 -105 67 -59 124"/>
<use id="tclef" transform="translate(0,6) scale(0.045)"
	xlink:href="#utclef"/>
</defs>
<use x="23.54" y="119.00" xlink:href="#tclef"/>
<g font-family="serif" font-size="16" font-weight="bold" font-style="normal"
	transform="translate(42.04,124.50) scale(1.2,1)">
	<text text-anchor="middle">8</text>
	<text y="-12" text-anchor="middle">3</text>
</g>
<path class="fill"
	d="M80.84 139.80l67.00 -3.30v-3.20l-67.00 3.30"/>
<use x="84.74" y="110.00" xlink:href="#hd"/>
<path d="M81.24 110.00v28.80" class="stroke"/>
<use x="117.94" y="119.00" xlink:href="#hd"/>
<path d="M114.44 119.00v18.20" class="stroke"/>
<use x="151.04" y="104.00" xlink:href="#hd"/>
<path d="M147.54 104.00v31.60" class="stroke"/>
<path class="fill"
	d="M197.04 91.00l47.40 0.00v3.20l-47.40 -0.00"/>
<use x="193.84" y="125.00" xlink:href="#hd"/>
<path d="M197.34 125.00v-33.00" class="stroke"/>
<use x="193.84" y="110.00" xlink:href="#hd"/>
<use x="217.24" y="125.00" xlink:href="#hd"/>
<path d="M220.74 125.00v-33.00" class="stroke"/>
<use x="217.24" y="110.00" xlink:href="#hd"/>
<use x="240.64" y="125.00" xlink:href="#hd"/>
<path d="M244.14 125.00v-33.00" class="stroke"/>
<use x="240.64" y="110.00" xlink:href="#hd"/>
<path class="fill"
	d="M275.34 84.80l83.60 0.00v3.20l-83.60 -0.00"/>
<path class="fill"
	d="M275.64 89.80l82.90 0.00v3.20l-82.90 -0.00"/>
<use x="272.14" y="113.00" xlink:href="#hd"/>
<path d="M275.64 113.00v-27.20" class="stroke"/>
<use x="288.74" y="110.00" xlink:href="#hd"/>
<path d="M292.24 110.00v-24.20" class="stroke"/>
<use x="305.34" y="107.00" xlink:href="#hd"/>
<path d="M308.84 107.00v-21.20" class="stroke"/>
<use x="321.94" y="113.00" xlink:href="#hd"/>
<path d="M325.44 113.00v-27.20" class="stroke"/>
<use x="338.44" y="116.00" xlink:href="#hd"/>
<path d="M341.94 116.00v-30.20" class="stroke"/>
<use x="355.04" y="119.00" xlink:href="#hd"/>
<path d="M358.54 119.00v-33.20" class="stroke"/>
<path class="fill"
	d="M377.44 127.00l57.20 0.00v-3.20l-57.20 -0.00"/>
<path class="fill"
	d="M401.14 122.00l16.60 0.00v-3.20l-16.60 -0.00"/>
<use x="381.34" y="104.00" xlink:href="#hd"/>
<path d="M377.84 104.00v22.00" class="stroke"/>
<use x="381.34" y="110.00" xlink:href="#hd"/>
<use x="404.64" y="104.00" xlink:href="#hd"/>
<path d="M401.14 104.00v22.00" class="stroke"/>
<use x="404.64" y="110.00" xlink:href="#hd"/>
<use x="421.24" y="101.00" xlink:href="#hd"/>
<path d="M417.74 101.00v25.00" class="stroke"/>
<use x="421.24" y="107.00" xlink:href="#hd"/>
<use x="437.84" y="98.00" xlink:href="#hd"/>
<path d="M434.34 98.00v28.00" class="stroke"/>
<use x="437.84" y="104.00" xlink:href="#hd"/>
<path class="fill"
	d="M470.84 127.00l73.80 0.00v-3.20l-73.80 -0.00"/>
<path class="fill"
	d="M494.54 122.00l49.80 0.00v-3.20l-49.80 -0.00"/>
<use x="474.64" y="101.00" xlink:href="#hd"/>
<defs>
<path id="usharp" class="fill" d="
	m136 -702
	v890
	h32
	v-890
	m128 840
	h32
	v-888
	h-32
	m-232 286
	v116
	l338 -96
	v-116
	m-338 442
	v116
	l338 -98
	v-114"/>
<use id="sh0" transform="translate(-4,5) scale(0.018)"
	xlink:href="#usharp"/>
</defs>
<use x="465.64" y="101.00" xlink:href="#sh0"/>
<path d="M471.14 101.00v25.00" class="stroke"/>
<defs>
<path id="hl" class="stroke" d="m-6 0h12"/>
</defs>
<use x="498.04" y="95.00" xlink:href="#hl"/>
<use x="498.04" y="95.00" xlink:href="#hd"/>
<path d="M494.54 95.00v31.00" class="stroke"/>
<use x="514.64" y="101.00" xlink:href="#hd"/>
<path d="M511.14 101.00v25.00" class="stroke"/>
<use x="531.24" y="107.00" xlink:href="#hd"/>
<path d="M527.74 107.00v19.00" class="stroke"/>
<use x="547.84" y="101.00" xlink:href="#hd"/>
<path d="M544.34 101.00v25.00" class="stroke"/>
<path class="fill"
	d="M570.14 127.00l57.20 0.00v-3.20l-57.20 -0.00"/>
<path class="fill"
	d="M593.94 122.00l16.60 0.00v-3.20l-16.60 -0.00"/>
<use x="574.04" y="98.00" xlink:href="#hd"/>
<path d="M570.54 98.00v28.00" class="stroke"/>
<use x="597.44" y="98.00" xlink:href="#hd"/>
<path d="M593.94 98.00v28.00" class="stroke"/>
<use x="614.04" y="107.00" xlink:href="#hd"/>
<path d="M610.54 107.00v19.00" class="stroke"/>
<use x="630.54" y="95.00" xlink:href="#hl"/>
<use x="630.54" y="92.00" xlink:href="#hd"/>
<path d="M627.04 92.00v34.00" class="stroke"/>
<path class="fill"
	d="M658.24 138.20l85.00 0.00v-3.20l-85.00 -0.00"/>
<path class="fill"
	d="M658.54 133.20l84.30 0.00v-3.20l-84.30 -0.00"/>
<use x="662.04" y="104.00" xlink:href="#hd"/>
<path d="M658.54 104.00v33.20" class="stroke"/>
<use x="678.64" y="98.00" xlink:href="#hd"/>
<path d="M675.14 98.00v39.20" class="stroke"/>
<use x="695.24" y="107.00" xlink:href="#hd"/>
<path d="M691.74 107.00v30.20" class="stroke"/>
<use x="711.84" y="98.00" xlink:href="#hd"/>
<path d="M708.34 98.00v39.20" class="stroke"/>
<use x="728.44" y="116.00" xlink:href="#hd"/>
<path d="M724.94 116.00v21.20" class="stroke"/>
<use x="746.44" y="101.00" xlink:href="#hd"/>
<use x="737.44" y="101.00" xlink:href="#sh0"/>
<path d="M742.94 101.00v36.20" class="stroke"/>
<use x="772.64" y="98.00" xlink:href="#hd"/>
<path d="M769.14 98.00v40.00" class="stroke"/>
<use x="772.64" y="119.00" xlink:href="#hd"/>
<use x="772.64" y="113.00" xlink:href="#hd"/>
<use x="772.64" y="107.00" xlink:href="#hd"/>
<defs>
<path id="r8e" class="fill" d="m 0 0
	c-1.5 1.5 -2.4 2 -3.6 2
	2.4 -2.8 -2.8 -4 -2.8 -1.2
	c0 2.7 4.3 2.4 5.9 0.6"/>
<g id="r8">
	<path d="m3.3 -4l-3.4 9.6" class="stroke"/>
	<use x="3.4" y="-4" xlink:href="#r8e"/>
</g>
</defs>
<use x="830.64" y="113.00" xlink:href="#r8"/>
<defs>
<path id="ubclef" class="fill" d="m-200 -87
	c124 -35 222 -78 254 -236
	43 -228 -167 -246 -192 -103
	59 -80 157 22 92 78
	-62 47 -115 -22 -106 -88
	21 -141 270 -136 274 52
	-1 175 -106 264 -322 297
	m357 -250
	c0 -36 51 -34 51 0
	0 37 -51 36 -51 0
	m-2 -129
	c0 -36 51 -34 51 0
	0 38 -51 37 -51 0"/>
<use id="bclef" transform="translate(0,18) scale(0.045)"
	xlink:href="#ubclef"/>
</defs>
<use x="23.54" y="165.00" xlink:href="#bclef"/>
<g font-family="serif" font-size="16" font-weight="bold" font-style="normal"
	transform="translate(42.04,182.50) scale(1.2,1)">
	<text text-anchor="middle">8</text>
	<text y="-12" text-anchor="middle">3</text>
</g>
<path class="fill"
	d="M80.84 190.90l83.60 0.00v-3.20l-83.60 -0.00"/>
<path class="fill"
	d="M81.24 185.90l82.90 0.00v-3.20l-82.90 -0.00"/>
<use x="84.74" y="168.00" xlink:href="#hd"/>
<path d="M81.24 168.00v21.90" class="stroke"/>
<use x="84.74" y="174.00" xlink:href="#hd"/>
<use x="101.34" y="162.00" xlink:href="#hd"/>
<path d="M97.84 162.00v27.90" class="stroke"/>
<use x="117.94" y="168.00" xlink:href="#hd"/>
<path d="M114.44 168.00v21.90" class="stroke"/>
<use x="117.94" y="174.00" xlink:href="#hd"/>
<use x="134.44" y="162.00" xlink:href="#hd"/>
<path d="M130.94 162.00v27.90" class="stroke"/>
<use x="151.04" y="168.00" xlink:href="#hd"/>
<path d="M147.54 168.00v21.90" class="stroke"/>
<use x="151.04" y="174.00" xlink:href="#hd"/>
<use x="167.64" y="162.00" xlink:href="#hd"/>
<path d="M164.14 162.00v27.90" class="stroke"/>
<path class="fill"
	d="M197.04 153.00l47.40 0.00v3.20l-47.40 -0.00"/>
<use x="193.84" y="174.00" xlink:href="#hd"/>
<path d="M197.34 174.00v-20.00" class="stroke"/>
<use x="217.24" y="174.00" xlink:href="#hd"/>
<path d="M220.74 174.00v-20.00" class="stroke"/>
<use x="240.64" y="174.00" xlink:href="#hd"/>
<path d="M244.14 174.00v-20.00" class="stroke"/>
<use x="272.14" y="183.00" xlink:href="#hd"/>
<path d="M275.64 183.00v-21.00" class="stroke"/>
<use x="338.44" y="171.00" xlink:href="#r8"/>
<use x="381.34" y="174.00" xlink:href="#hd"/>
<path d="M384.84 174.00v-21.00" class="stroke"/>
<use x="437.84" y="171.00" xlink:href="#r8"/>
<use x="474.64" y="174.00" xlink:href="#hd"/>
<path d="M478.14 174.00v-21.00" class="stroke"/>
<use x="531.24" y="171.00" xlink:href="#r8"/>
<use x="574.04" y="177.00" xlink:href="#hd"/>
<path d="M577.54 177.00v-25.00" class="stroke"/>
<use x="574.04" y="171.00" xlink:href="#hd"/>
<use x="630.54" y="171.00" xlink:href="#r8"/>
<path class="fill"
	d="M665.24 147.70l67.00 8.20v3.20l-67.00 -8.20"/>
<use x="662.04" y="174.00" xlink:href="#hd"/>
<path d="M665.54 174.00v-25.30" class="stroke"/>
<use x="695.24" y="171.00" xlink:href="#hd"/>
<path d="M698.74 171.00v-18.20" class="stroke"/>
<use x="728.44" y="189.00" xlink:href="#hl"/>
<use x="728.44" y="192.00" xlink:href="#hd"/>
<path d="M731.94 192.00v-35.10" class="stroke"/>
<path class="fill"
	d="M768.84 202.20l75.20 0.00v-3.20l-75.20 -0.00"/>
<path class="fill"
	d="M792.54 197.20l51.20 0.00v-3.20l-51.20 -0.00"/>
<use x="772.64" y="183.00" xlink:href="#hd"/>
<path d="M769.14 183.00v18.20" class="stroke"/>
<use x="796.04" y="162.00" xlink:href="#hd"/>
<path d="M792.54 162.00v39.20" class="stroke"/>
<use x="814.04" y="165.00" xlink:href="#hd"/>
<defs>
<path id="unat" class="fill" d="
	m96 -750
	h-32
	v716
	l32 -8
	182 -54
	v282
	h32
	v-706
	l-34 10
	-180 50
	v-290
	m0 592
	v-190
	l182 -52
	v188"/>
<use id="nt0" transform="translate(-3,5) scale(0.018)"
	xlink:href="#unat"/>
</defs>
<use x="805.04" y="165.00" xlink:href="#nt0"/>
<path d="M810.54 165.00v36.20" class="stroke"/>
<use x="830.64" y="168.00" xlink:href="#hd"/>
<path d="M827.14 168.00v33.20" class="stroke"/>
<use x="847.24" y="171.00" xlink:href="#hd"/>
<path d="M843.74 171.00v30.20" class="stroke"/>
</g>
<g stroke-width="0.70" transform="scale(0.867)" font-family="Times" font-size="13.00">
<path class="stroke" stroke-width="1"
	d="M11.54 320.00v-86.00"/>
<path class="fill"
	d="M6.54 231.00
	c10.5 1 12 -4.5 12 -3.5c0 1 -3.5 5.5 -8.5 5.5
	v88.00
	c5 0 8.5 4.5 8.5 5.5c0 1 -1.5 -4.5 -12 -3.5"/>
<use x="143.94" y="258.00" xlink:href="#rdots"/>
<path class="stroke" stroke-width="1"
	d="M139.94 258.00v-24.00"/>
<path class="stroke" stroke-width="3"
	d="M135.44 258.00v-24.00"/>
<use x="143.94" y="320.00" xlink:href="#rdots"/>
<path class="stroke" stroke-width="1"
	d="M139.94 320.00v-62.00"/>
<path class="stroke" stroke-width="3"
	d="M135.44 320.00v-62.00"/>
<path class="stroke" stroke-width="1"
	d="M231.24 258.00v-24.00"/>
<path class="stroke" stroke-width="1"
	d="M231.24 320.00v-62.00"/>
<path class="stroke" stroke-width="1"
	d="M330.44 258.00v-24.00"/>
<path class="stroke" stroke-width="1"
	d="M330.44 320.00v-62.00"/>
<path class="stroke" stroke-width="1"
	d="M409.94 258.00v-24.00"/>
<path class="stroke" stroke-width="1"
	d="M409.94 320.00v-62.00"/>
<path class="stroke" stroke-width="1"
	d="M489.44 258.00v-24.00"/>
<path class="stroke" stroke-width="1"
	d="M489.44 320.00v-62.00"/>
<path class="stroke" stroke-width="1"
	d="M589.04 258.00v-24.00"/>
<path class="stroke" stroke-width="1"
	d="M589.04 320.00v-62.00"/>
<path class="stroke" stroke-width="1"
	d="M688.24 258.00v-24.00"/>
<path class="stroke" stroke-width="1"
	d="M688.24 320.00v-62.00"/>
<path class="stroke" stroke-width="1"
	d="M787.54 258.00v-24.00"/>
<path class="stroke" stroke-width="1"
	d="M787.54 320.00v-62.00"/>
<path class="stroke" stroke-width="3"
	d="M860.54 258.00v-24.00"/>
<path class="stroke" stroke-width="1"
	d="M856.04 258.00v-24.00"/>
<use x="852.04" y="258.00" xlink:href="#rdots"/>
<path class="stroke" stroke-width="3"
	d="M860.54 320.00v-62.00"/>
<path class="stroke" stroke-width="1"
	d="M856.04 320.00v-62.00"/>
<use x="852.04" y="320.00" xlink:href="#rdots"/>
<path d="m11.54 258.00
	h850.50
	M11.54 252.00
	h850.50
	M11.54 246.00
	h850.50
	M11.54 240.00
	h850.50
	M11.54 234.00
	h850.50
	" class="stroke"/>
<path d="m11.54 320.00
	h850.50
	M11.54 314.00
	h850.50
	M11.54 308.00
	h850.50
	M11.54 302.00
	h850.50
	M11.54 296.00
	h850.50
	" class="stroke"/>
<text x="47.54" y="219.40">2</text>
<path class="stroke"
	d="M43.54 208.00m0 20v-20h89.40v20"/>
<use x="23.54" y="252.00" xlink:href="#tclef"/>
<use x="56.04" y="231.00" xlink:href="#hd"/>
<path d="M52.54 231.00v40.00" class="stroke"/>
<use x="56.04" y="252.00" xlink:href="#hd"/>
<use x="56.04" y="246.00" xlink:href="#hd"/>
<use x="56.04" y="240.00" xlink:href="#hd"/>
<use x="109.64" y="246.00" xlink:href="#r8"/>
<path class="fill"
	d="M159.64 272.50l51.80 -4.60v-3.20l-51.80 4.60"/>
<path class="fill"
	d="M159.94 267.50l14.90 -1.30v-3.20l-14.90 1.30"/>
<use x="163.44" y="240.00" xlink:href="#hd"/>
<path d="M159.94 240.00v31.50" class="stroke"/>
<use x="178.34" y="249.00" xlink:href="#hd"/>
<path d="M174.84 249.00v21.20" class="stroke"/>
<use x="193.24" y="240.00" xlink:href="#hd"/>
<path d="M189.74 240.00v28.90" class="stroke"/>
<use x="214.64" y="234.00" xlink:href="#hd"/>
<use x="205.64" y="234.00" xlink:href="#sh0"/>
<path d="M211.14 234.00v33.00" class="stroke"/>
<path class="fill"
	d="M239.84 266.70l60.10 8.90v-3.20l-60.10 -8.90"/>
<use x="243.74" y="231.00" xlink:href="#hd"/>
<path d="M240.24 231.00v34.80" class="stroke"/>
<use x="273.44" y="252.00" xlink:href="#hd"/>
<path d="M269.94 252.00v18.20" class="stroke"/>
<use x="303.14" y="252.00" xlink:href="#hd"/>
<path d="M299.64 252.00v22.60" class="stroke"/>
<path class="fill"
	d="M339.14 266.40l51.10 -4.20v-3.20l-51.10 4.20"/>
<path class="fill"
	d="M339.44 261.40l14.90 -1.20v-3.20l-14.90 1.20"/>
<use x="342.94" y="237.00" xlink:href="#hd"/>
<path d="M339.44 237.00v28.40" class="stroke"/>
<use x="357.84" y="243.00" xlink:href="#hd"/>
<path d="M354.34 243.00v21.20" class="stroke"/>
<use x="372.74" y="237.00" xlink:href="#hd"/>
<path d="M369.24 237.00v26.00" class="stroke"/>
<use x="393.44" y="231.00" xlink:href="#hd"/>
<path d="M389.94 231.00v30.30" class="stroke"/>
<path class="fill"
	d="M425.64 219.30l51.10 6.20v3.20l-51.10 -6.20"/>
<path class="fill"
	d="M446.74 226.80l14.90 1.80v3.20l-14.90 -1.80"/>
<use x="422.44" y="243.00" xlink:href="#hd"/>
<path d="M425.94 243.00v-22.70" class="stroke"/>
<use x="422.44" y="237.00" xlink:href="#hd"/>
<use x="443.24" y="252.00" xlink:href="#hd"/>
<path d="M446.74 252.00v-29.20" class="stroke"/>
<use x="443.24" y="240.00" xlink:href="#hd"/>
<use x="458.04" y="252.00" xlink:href="#hd"/>
<path d="M461.54 252.00v-27.40" class="stroke"/>
<use x="458.04" y="246.00" xlink:href="#hd"/>
<use x="472.94" y="252.00" xlink:href="#hd"/>
<path d="M476.44 252.00v-25.60" class="stroke"/>
<path class="fill"
	d="M498.14 255.90l75.20 9.40v-3.20l-75.20 -9.40"/>
<path class="fill"
	d="M498.44 250.90l74.50 9.30v-3.20l-74.50 -9.30"/>
<use x="501.94" y="228.00" xlink:href="#hl"/>
<use x="501.94" y="222.00" xlink:href="#hl"/>
<use x="501.94" y="222.00" xlink:href="#hd"/>
<path d="M498.44 222.00v32.90" class="stroke"/>
<use x="516.94" y="228.00" xlink:href="#hl"/>
<use x="516.94" y="225.00" xlink:href="#hd"/>
<path d="M513.44 225.00v31.80" class="stroke"/>
<use x="531.94" y="228.00" xlink:href="#hl"/>
<use x="531.94" y="222.00" xlink:href="#hl"/>
<use x="531.94" y="222.00" xlink:href="#hd"/>
<path d="M528.44 222.00v36.70" class="stroke"/>
<use x="546.74" y="231.00" xlink:href="#hd"/>
<path d="M543.24 231.00v29.50" class="stroke"/>
<use x="561.64" y="237.00" xlink:href="#hd"/>
<path d="M558.14 237.00v25.40" class="stroke"/>
<use x="576.54" y="243.00" xlink:href="#hd"/>
<path d="M573.04 243.00v21.20" class="stroke"/>
<path class="fill"
	d="M597.64 272.80l60.10 -3.20v-3.20l-60.10 3.20"/>
<use x="601.54" y="243.00" xlink:href="#hd"/>
<path d="M598.04 243.00v28.80" class="stroke"/>
<use x="631.24" y="252.00" xlink:href="#hd"/>
<path d="M627.74 252.00v18.20" class="stroke"/>
<use x="660.94" y="237.00" xlink:href="#hd"/>
<path d="M657.44 237.00v31.60" class="stroke"/>
<path class="fill"
	d="M696.94 271.20l75.00 0.00v-3.20l-75.00 -0.00"/>
<path class="fill"
	d="M697.24 266.20l74.30 0.00v-3.20l-74.30 -0.00"/>
<use x="700.74" y="240.00" xlink:href="#hd"/>
<path d="M697.24 240.00v30.20" class="stroke"/>
<use x="715.64" y="234.00" xlink:href="#hd"/>
<path d="M712.14 234.00v36.20" class="stroke"/>
<use x="730.54" y="249.00" xlink:href="#hd"/>
<path d="M727.04 249.00v21.20" class="stroke"/>
<use x="745.34" y="240.00" xlink:href="#hd"/>
<path d="M741.84 240.00v30.20" class="stroke"/>
<use x="760.24" y="246.00" xlink:href="#hd"/>
<path d="M756.74 246.00v24.20" class="stroke"/>
<use x="775.04" y="240.00" xlink:href="#hd"/>
<path d="M771.54 240.00v30.20" class="stroke"/>
<use x="800.04" y="243.00" xlink:href="#hd"/>
<path d="M796.54 243.00v21.00" class="stroke"/>
<use x="841.54" y="246.00" xlink:href="#r8"/>
<use x="23.54" y="302.00" xlink:href="#bclef"/>
<path class="fill"
	d="M52.24 339.20l69.10 -5.00v-3.20l-69.10 5.00"/>
<path class="fill"
	d="M73.24 332.70l47.70 -3.50v-3.20l-47.70 3.50"/>
<use x="56.04" y="320.00" xlink:href="#hd"/>
<path d="M52.54 320.00v18.20" class="stroke"/>
<use x="76.74" y="293.00" xlink:href="#hd"/>
<path d="M73.24 293.00v43.70" class="stroke"/>
<use x="91.64" y="299.00" xlink:href="#hd"/>
<path d="M88.14 299.00v36.60" class="stroke"/>
<use x="109.64" y="302.00" xlink:href="#hd"/>
<use x="100.64" y="302.00" xlink:href="#sh0"/>
<path d="M106.14 302.00v32.30" class="stroke"/>
<use x="124.44" y="305.00" xlink:href="#hd"/>
<path d="M120.94 305.00v28.20" class="stroke"/>
<use x="163.44" y="302.00" xlink:href="#hd"/>
<use x="154.44" y="302.00" xlink:href="#sh0"/>
<path d="M166.94 302.00v-21.00" class="stroke"/>
<use x="214.64" y="308.00" xlink:href="#r8"/>
<path class="fill"
	d="M239.84 342.20l75.00 0.00v-3.20l-75.00 -0.00"/>
<path class="fill"
	d="M240.24 337.20l74.30 0.00v-3.20l-74.30 -0.00"/>
<use x="243.74" y="314.00" xlink:href="#hd"/>
<path d="M240.24 314.00v27.20" class="stroke"/>
<use x="258.54" y="308.00" xlink:href="#hd"/>
<path d="M255.04 308.00v33.20" class="stroke"/>
<use x="273.44" y="299.00" xlink:href="#hd"/>
<path d="M269.94 299.00v42.20" class="stroke"/>
<use x="288.24" y="308.00" xlink:href="#hd"/>
<path d="M284.74 308.00v33.20" class="stroke"/>
<use x="303.14" y="293.00" xlink:href="#hd"/>
<path d="M299.64 293.00v48.20" class="stroke"/>
<use x="317.94" y="320.00" xlink:href="#hd"/>
<path d="M314.44 320.00v21.20" class="stroke"/>
<use x="342.94" y="299.00" xlink:href="#hd"/>
<path d="M339.44 299.00v31.00" class="stroke"/>
<use x="342.94" y="311.00" xlink:href="#hd"/>
<use x="393.44" y="305.00" xlink:href="#hd"/>
<path d="M389.94 305.00v25.00" class="stroke"/>
<path class="fill"
	d="M389.94 330.00c0.6 -5.6 9.6 -9 5.6 -18.4
	1.6 6 -1.3 11.6 -5.6 12.8
"/>
<use x="393.44" y="311.00" xlink:href="#hd"/>
<path class="fill"
	d="M425.64 279.70l21.40 7.20v3.20l-21.40 -7.20"/>
<use x="422.44" y="299.00" xlink:href="#hd"/>
<path d="M425.94 299.00v-18.20" class="stroke"/>
<use x="443.24" y="320.00" xlink:href="#hd"/>
<path d="M446.74 320.00v-32.30" class="stroke"/>
<use x="472.94" y="308.00" xlink:href="#r8"/>
<use x="501.94" y="305.00" xlink:href="#hd"/>
<path d="M498.44 305.00v25.00" class="stroke"/>
<use x="501.94" y="311.00" xlink:href="#hd"/>
<use x="561.64" y="299.00" xlink:href="#hd"/>
<path d="M558.14 299.00v31.00" class="stroke"/>
<path class="fill"
	d="M558.14 330.00c0.6 -5.6 9.6 -9 5.6 -18.4
	1.6 6 -1.3 11.6 -5.6 12.8
"/>
<use x="561.64" y="311.00" xlink:href="#hd"/>
<path class="fill"
	d="M597.64 327.90l75.00 0.00v-3.20l-75.00 -0.00"/>
<path class="fill"
	d="M598.04 322.90l74.30 0.00v-3.20l-74.30 -0.00"/>
<use x="601.54" y="305.00" xlink:href="#hd"/>
<path d="M598.04 305.00v21.90" class="stroke"/>
<use x="601.54" y="311.00" xlink:href="#hd"/>
<use x="616.34" y="299.00" xlink:href="#hd"/>
<path d="M612.84 299.00v27.90" class="stroke"/>
<use x="631.24" y="305.00" xlink:href="#hd"/>
<path d="M627.74 305.00v21.90" class="stroke"/>
<use x="631.24" y="311.00" xlink:href="#hd"/>
<use x="646.04" y="299.00" xlink:href="#hd"/>
<path d="M642.54 299.00v27.90" class="stroke"/>
<use x="660.94" y="305.00" xlink:href="#hd"/>
<path d="M657.44 305.00v21.90" class="stroke"/>
<use x="660.94" y="311.00" xlink:href="#hd"/>
<use x="675.74" y="299.00" xlink:href="#hd"/>
<path d="M672.24 299.00v27.90" class="stroke"/>
<use x="700.74" y="302.00" xlink:href="#hd"/>
<path d="M697.24 302.00v21.00" class="stroke"/>
<use x="760.24" y="299.00" xlink:href="#hd"/>
<path d="M756.74 299.00v21.00" class="stroke"/>
<path class="fill"
	d="M756.74 320.00c0.6 -5.6 9.6 -9 5.6 -18.4
	1.6 6 -1.3 11.6 -5.6 12.8
"/>
<path class="fill"
	d="M803.24 291.70l42.10 9.80v3.20l-42.10 -9.80"/>
<use x="800.04" y="311.00" xlink:href="#hd"/>
<path d="M803.54 311.00v-18.20" class="stroke"/>
<use x="820.84" y="320.00" xlink:href="#hd"/>
<path d="M824.34 320.00v-22.40" class="stroke"/>
<use x="841.54" y="326.00" xlink:href="#hl"/>
<use x="841.54" y="332.00" xlink:href="#hl"/>
<use x="841.54" y="332.00" xlink:href="#hd"/>
<path d="M845.04 332.00v-29.60" class="stroke"/>
<use x="163.44" y="308.00" xlink:href="#hd"/>
<path d="M159.94 308.00v21.00" class="stroke"/>
</g>
</svg>
