<?xml version="1.0" standalone="no"?>
<!DOCTYPE svg PUBLIC "-//W3C//DTD SVG 1.1//EN"
	"http://www.w3.org/Graphics/SVG/1.1/DTD/svg11.dtd">
<svg xmlns="http://www.w3.org/2000/svg" version="1.1"
	xmlns:xlink="http://www.w3.org/1999/xlink"
	color="black"
	width="757.10px" height="300.73px">
<style type="text/css">
.fill {fill: currentColor}
.stroke {stroke: currentColor; fill: none}
text{white-space: pre}
</style>
<title>./K516f-10-5-10-7-12-9-5-3-8-7-8-10-9-8-5-7.abc (1246) tune 1</title>
<!-- Creator: abcm2ps-8.13.8 -->
<!-- CreationDate: Sep  7, 2017 11:18 -->
<!-- CommandLine: ./K516f-10-5-10-7-12-9-5-3-8-7-8-10-9-8-5-7.abc -O ./K516f-10-5-10-7-12-9-5-3-8-7-8-10-9-8-5-7.svg -g -->
<rect width="100%" height="100%" fill="white"/>
<g stroke-width="0.70" transform="scale(0.867)">
<!-- title: 10-5-10-7-12-9-5-3-8-7-8-10-9-8-5-7 -->
</g>
<g stroke-width="0.70" transform="scale(0.867)" font-family="Times" font-size="20.00">
<text x="436.84" y="22.00" text-anchor="middle">10-5-10-7-12-9-5-3-8-7-8-10-9-8-5-7</text>
</g>
<g stroke-width="0.70" transform="scale(0.867)" font-family="Times" font-size="20.00">
<!-- subtitle: $1K.516f::98:17:42:167:28:86:159:81:16:71:57:82:51:168:52:151::$0 -->
</g>
<g stroke-width="0.70" transform="scale(0.867)" font-family="Courier" font-size="8.00" font-weight="bold">
<text x="436.84" y="41.80" text-anchor="middle">K.516f::98:17:42:167:28:86:159:81:16:71:57:82:51:168:52:151::</text>
</g>
<g stroke-width="0.70" transform="scale(0.867)" font-family="Courier" font-size="8.00" font-weight="bold">
<!-- subtitle: $1Perm. No.: 124618730782896$0 -->
<text x="436.84" y="60.80" text-anchor="middle">Perm. No.: 124618730782896</text>
</g>
<g stroke-width="0.70" transform="scale(0.607)" font-family="Courier" font-size="8.00" font-weight="bold">
<defs>
<ellipse id="hd" rx="4.1" ry="2.9"
	transform="rotate(-20)" class="fill"/>
</defs>
<use x="103.06" y="121.29" xlink:href="#hd"/>
<path d="M106.56 121.29v-21.00" class="stroke"/>
<path class="fill"
	d="M106.56 100.29c0.6 5.6 9.6 9 5.6 18.4
	1.6 -6 -1.3 -11.6 -5.6 -12.8
"/>
</g>
<g stroke-width="0.70" transform="scale(0.867)" font-family="Times" font-size="15.00" font-weight="bold">
<text x="81.24" y="87.00">= 111</text>
<path class="stroke" stroke-width="1"
	d="M11.54 183.00v-82.00"/>
<path class="fill"
	d="M6.54 98.00
	c10.5 1 12 -4.5 12 -3.5c0 1 -3.5 5.5 -8.5 5.5
	v84.00
	c5 0 8.5 4.5 8.5 5.5c0 1 -1.5 -4.5 -12 -3.5"/>
<defs>
<g id="rdots" class="fill">
	<circle cx="0" cy="-9" r="1.2"/>
	<circle cx="0" cy="-15" r="1.2"/>
</g>
</defs>
<use x="70.54" y="125.00" xlink:href="#rdots"/>
<path class="stroke" stroke-width="1"
	d="M66.54 125.00v-24.00"/>
<path class="stroke" stroke-width="3"
	d="M62.04 125.00v-24.00"/>
<use x="70.54" y="183.00" xlink:href="#rdots"/>
<path class="stroke" stroke-width="1"
	d="M66.54 183.00v-58.00"/>
<path class="stroke" stroke-width="3"
	d="M62.04 183.00v-58.00"/>
<path class="stroke" stroke-width="1"
	d="M175.34 125.00v-24.00"/>
<path class="stroke" stroke-width="1"
	d="M175.34 183.00v-58.00"/>
<path class="stroke" stroke-width="1"
	d="M279.14 125.00v-24.00"/>
<path class="stroke" stroke-width="1"
	d="M279.14 183.00v-58.00"/>
<path class="stroke" stroke-width="1"
	d="M382.94 125.00v-24.00"/>
<path class="stroke" stroke-width="1"
	d="M382.94 183.00v-58.00"/>
<path class="stroke" stroke-width="1"
	d="M466.54 125.00v-24.00"/>
<path class="stroke" stroke-width="1"
	d="M466.54 183.00v-58.00"/>
<path class="stroke" stroke-width="1"
	d="M576.24 125.00v-24.00"/>
<path class="stroke" stroke-width="1"
	d="M576.24 183.00v-58.00"/>
<path class="stroke" stroke-width="1"
	d="M659.94 125.00v-24.00"/>
<path class="stroke" stroke-width="1"
	d="M659.94 183.00v-58.00"/>
<path class="stroke" stroke-width="1"
	d="M763.74 125.00v-24.00"/>
<path class="stroke" stroke-width="1"
	d="M763.74 183.00v-58.00"/>
<path class="stroke" stroke-width="3"
	d="M860.54 125.00v-24.00"/>
<path class="stroke" stroke-width="1"
	d="M856.04 125.00v-24.00"/>
<use x="852.04" y="125.00" xlink:href="#rdots"/>
<path class="stroke" stroke-width="3"
	d="M860.54 183.00v-58.00"/>
<path class="stroke" stroke-width="1"
	d="M856.04 183.00v-58.00"/>
<use x="852.04" y="183.00" xlink:href="#rdots"/>
<path d="m11.54 125.00
	h850.50
	M11.54 119.00
	h850.50
	M11.54 113.00
	h850.50
	M11.54 107.00
	h850.50
	M11.54 101.00
	h850.50
	" class="stroke"/>
<path d="m11.54 183.00
	h850.50
	M11.54 177.00
	h850.50
	M11.54 171.00
	h850.50
	M11.54 165.00
	h850.50
	M11.54 159.00
	h850.50
	" class="stroke"/>
</g>
<g stroke-width="0.70" transform="scale(0.867)" font-family="Times" font-size="13.00">
<text x="767.74" y="86.40">1</text>
<path class="stroke"
	d="M763.74 75.00m0 20v-20h90.30v20"/>
<defs>
<path id="utclef" class="fill" d="m-50 -90
	c-72 -41 -72 -158 52 -188
	150 -10 220 188 90 256
	-114 52 -275 0 -293 -136
	-15 -181 93 -229 220 -334
	88 -87 79 -133 62 -210
	-51 33 -94 105 -89 186
	17 267 36 374 49 574
	6 96 -19 134 -77 135
	-80 1 -126 -93 -61 -133
	85 -41 133 101 31 105
	23 17 92 37 90 -92
	-10 -223 -39 -342 -50 -617
	0 -90 0 -162 96 -232
	56 72 63 230 22 289
	-74 106 -257 168 -255 316
	9 153 148 185 252 133
	86 -65 29 -192 -80 -176
	-71 12 -105 67 -59 124"/>
<use id="tclef" transform="translate(0,6) scale(0.045)"
	xlink:href="#utclef"/>
</defs>
<use x="23.54" y="119.00" xlink:href="#tclef"/>
<g font-family="serif" font-size="16" font-weight="bold" font-style="normal"
	transform="translate(42.04,124.50) scale(1.2,1)">
	<text text-anchor="middle">8</text>
	<text y="-12" text-anchor="middle">3</text>
</g>
<path class="fill"
	d="M80.34 139.80l63.60 -3.30v-3.20l-63.60 3.30"/>
<use x="84.14" y="110.00" xlink:href="#hd"/>
<path d="M80.64 110.00v28.80" class="stroke"/>
<use x="115.64" y="119.00" xlink:href="#hd"/>
<path d="M112.14 119.00v18.20" class="stroke"/>
<use x="147.14" y="104.00" xlink:href="#hd"/>
<path d="M143.64 104.00v31.60" class="stroke"/>
<path class="fill"
	d="M184.14 141.20l79.40 0.00v-3.20l-79.40 -0.00"/>
<path class="fill"
	d="M184.44 136.20l78.70 0.00v-3.20l-78.70 -0.00"/>
<use x="187.94" y="110.00" xlink:href="#hd"/>
<path d="M184.44 110.00v30.20" class="stroke"/>
<use x="203.64" y="119.00" xlink:href="#hd"/>
<path d="M200.14 119.00v21.20" class="stroke"/>
<use x="219.44" y="110.00" xlink:href="#hd"/>
<path d="M215.94 110.00v30.20" class="stroke"/>
<use x="235.14" y="104.00" xlink:href="#hd"/>
<path d="M231.64 104.00v36.20" class="stroke"/>
<use x="250.94" y="119.00" xlink:href="#hd"/>
<path d="M247.44 119.00v21.20" class="stroke"/>
<use x="266.64" y="110.00" xlink:href="#hd"/>
<path d="M263.14 110.00v30.20" class="stroke"/>
<path class="fill"
	d="M287.94 141.20l79.40 0.00v-3.20l-79.40 -0.00"/>
<path class="fill"
	d="M288.24 136.20l78.70 0.00v-3.20l-78.70 -0.00"/>
<use x="291.74" y="113.00" xlink:href="#hd"/>
<path d="M288.24 113.00v27.20" class="stroke"/>
<use x="307.44" y="110.00" xlink:href="#hd"/>
<path d="M303.94 110.00v30.20" class="stroke"/>
<use x="323.24" y="107.00" xlink:href="#hd"/>
<path d="M319.74 107.00v33.20" class="stroke"/>
<use x="338.94" y="113.00" xlink:href="#hd"/>
<path d="M335.44 113.00v27.20" class="stroke"/>
<use x="354.74" y="116.00" xlink:href="#hd"/>
<path d="M351.24 116.00v24.20" class="stroke"/>
<use x="370.44" y="119.00" xlink:href="#hd"/>
<path d="M366.94 119.00v21.20" class="stroke"/>
<path class="fill"
	d="M391.74 133.00l54.30 0.00v-3.20l-54.30 -0.00"/>
<path class="fill"
	d="M414.14 128.00l15.70 0.00v-3.20l-15.70 -0.00"/>
<use x="395.54" y="110.00" xlink:href="#hd"/>
<path d="M392.04 110.00v21.90" class="stroke"/>
<use x="417.64" y="110.00" xlink:href="#hd"/>
<path d="M414.14 110.00v21.90" class="stroke"/>
<use x="433.44" y="107.00" xlink:href="#hd"/>
<path d="M429.94 107.00v24.90" class="stroke"/>
<use x="449.14" y="104.00" xlink:href="#hd"/>
<path d="M445.64 104.00v27.90" class="stroke"/>
<path class="fill"
	d="M481.24 138.20l79.40 0.00v-3.20l-79.40 -0.00"/>
<path class="fill"
	d="M481.54 133.20l78.70 0.00v-3.20l-78.70 -0.00"/>
<use x="485.04" y="101.00" xlink:href="#hd"/>
<defs>
<path id="usharp" class="fill" d="
	m136 -702
	v890
	h32
	v-890
	m128 840
	h32
	v-888
	h-32
	m-232 286
	v116
	l338 -96
	v-116
	m-338 442
	v116
	l338 -98
	v-114"/>
<use id="sh0" transform="translate(-4,5) scale(0.018)"
	xlink:href="#usharp"/>
</defs>
<use x="476.04" y="101.00" xlink:href="#sh0"/>
<path d="M481.54 101.00v36.20" class="stroke"/>
<use x="500.84" y="107.00" xlink:href="#hd"/>
<path d="M497.34 107.00v30.20" class="stroke"/>
<use x="516.54" y="116.00" xlink:href="#hd"/>
<path d="M513.04 116.00v21.20" class="stroke"/>
<defs>
<path id="hl" class="stroke" d="m-6 0h12"/>
</defs>
<use x="532.34" y="95.00" xlink:href="#hl"/>
<use x="532.34" y="95.00" xlink:href="#hd"/>
<path d="M528.84 95.00v42.20" class="stroke"/>
<use x="548.04" y="101.00" xlink:href="#hd"/>
<path d="M544.54 101.00v36.20" class="stroke"/>
<use x="563.74" y="107.00" xlink:href="#hd"/>
<path d="M560.24 107.00v30.20" class="stroke"/>
<path class="fill"
	d="M585.04 132.10l54.30 -7.00v-3.20l-54.30 7.00"/>
<path class="fill"
	d="M607.54 124.20l15.70 -2.00v-3.20l-15.70 2.00"/>
<use x="588.84" y="107.00" xlink:href="#hd"/>
<path d="M585.34 107.00v24.10" class="stroke"/>
<use x="611.04" y="107.00" xlink:href="#hd"/>
<path d="M607.54 107.00v21.20" class="stroke"/>
<use x="626.74" y="98.00" xlink:href="#hd"/>
<path d="M623.24 98.00v28.20" class="stroke"/>
<use x="642.44" y="95.00" xlink:href="#hl"/>
<use x="642.44" y="92.00" xlink:href="#hd"/>
<path d="M638.94 92.00v32.10" class="stroke"/>
<path class="fill"
	d="M668.64 130.70l79.40 7.60v-3.20l-79.40 -7.60"/>
<path class="fill"
	d="M669.04 125.70l78.70 7.50v-3.20l-78.70 -7.50"/>
<use x="672.54" y="104.00" xlink:href="#hd"/>
<path d="M669.04 104.00v25.70" class="stroke"/>
<use x="688.24" y="98.00" xlink:href="#hd"/>
<path d="M684.74 98.00v33.20" class="stroke"/>
<use x="703.94" y="107.00" xlink:href="#hd"/>
<path d="M700.44 107.00v25.70" class="stroke"/>
<use x="719.74" y="110.00" xlink:href="#hd"/>
<path d="M716.24 110.00v24.20" class="stroke"/>
<use x="735.44" y="113.00" xlink:href="#hd"/>
<path d="M731.94 113.00v22.70" class="stroke"/>
<use x="751.24" y="116.00" xlink:href="#hd"/>
<path d="M747.74 116.00v21.20" class="stroke"/>
<use x="776.34" y="98.00" xlink:href="#hd"/>
<path d="M772.84 98.00v40.00" class="stroke"/>
<use x="776.34" y="119.00" xlink:href="#hd"/>
<use x="776.34" y="113.00" xlink:href="#hd"/>
<use x="776.34" y="107.00" xlink:href="#hd"/>
<defs>
<path id="r8e" class="fill" d="m 0 0
	c-1.5 1.5 -2.4 2 -3.6 2
	2.4 -2.8 -2.8 -4 -2.8 -1.2
	c0 2.7 4.3 2.4 5.9 0.6"/>
<g id="r8">
	<path d="m3.3 -4l-3.4 9.6" class="stroke"/>
	<use x="3.4" y="-4" xlink:href="#r8e"/>
</g>
</defs>
<use x="832.14" y="113.00" xlink:href="#r8"/>
<defs>
<path id="ubclef" class="fill" d="m-200 -87
	c124 -35 222 -78 254 -236
	43 -228 -167 -246 -192 -103
	59 -80 157 22 92 78
	-62 47 -115 -22 -106 -88
	21 -141 270 -136 274 52
	-1 175 -106 264 -322 297
	m357 -250
	c0 -36 51 -34 51 0
	0 37 -51 36 -51 0
	m-2 -129
	c0 -36 51 -34 51 0
	0 38 -51 37 -51 0"/>
<use id="bclef" transform="translate(0,18) scale(0.045)"
	xlink:href="#ubclef"/>
</defs>
<use x="23.54" y="165.00" xlink:href="#bclef"/>
<g font-family="serif" font-size="16" font-weight="bold" font-style="normal"
	transform="translate(42.04,182.50) scale(1.2,1)">
	<text text-anchor="middle">8</text>
	<text y="-12" text-anchor="middle">3</text>
</g>
<path class="fill"
	d="M80.34 190.90l79.40 0.00v-3.20l-79.40 -0.00"/>
<path class="fill"
	d="M80.64 185.90l78.70 0.00v-3.20l-78.70 -0.00"/>
<use x="84.14" y="168.00" xlink:href="#hd"/>
<path d="M80.64 168.00v21.90" class="stroke"/>
<use x="84.14" y="174.00" xlink:href="#hd"/>
<use x="99.84" y="162.00" xlink:href="#hd"/>
<path d="M96.34 162.00v27.90" class="stroke"/>
<use x="115.64" y="168.00" xlink:href="#hd"/>
<path d="M112.14 168.00v21.90" class="stroke"/>
<use x="115.64" y="174.00" xlink:href="#hd"/>
<use x="131.34" y="162.00" xlink:href="#hd"/>
<path d="M127.84 162.00v27.90" class="stroke"/>
<use x="147.14" y="168.00" xlink:href="#hd"/>
<path d="M143.64 168.00v21.90" class="stroke"/>
<use x="147.14" y="174.00" xlink:href="#hd"/>
<use x="162.84" y="162.00" xlink:href="#hd"/>
<path d="M159.34 162.00v27.90" class="stroke"/>
<use x="187.94" y="162.00" xlink:href="#hd"/>
<path d="M184.44 162.00v25.00" class="stroke"/>
<use x="187.94" y="168.00" xlink:href="#hd"/>
<use x="250.94" y="171.00" xlink:href="#r8"/>
<use x="291.74" y="183.00" xlink:href="#hd"/>
<path d="M295.24 183.00v-21.00" class="stroke"/>
<use x="354.74" y="171.00" xlink:href="#r8"/>
<use x="395.54" y="168.00" xlink:href="#hd"/>
<path d="M392.04 168.00v25.00" class="stroke"/>
<use x="395.54" y="174.00" xlink:href="#hd"/>
<use x="449.14" y="171.00" xlink:href="#r8"/>
<use x="485.04" y="159.00" xlink:href="#hd"/>
<path d="M481.54 159.00v34.00" class="stroke"/>
<use x="485.04" y="174.00" xlink:href="#hd"/>
<use x="548.04" y="171.00" xlink:href="#r8"/>
<use x="588.84" y="162.00" xlink:href="#hd"/>
<path d="M585.34 162.00v34.00" class="stroke"/>
<use x="588.84" y="177.00" xlink:href="#hd"/>
<use x="642.44" y="171.00" xlink:href="#r8"/>
<path class="fill"
	d="M675.64 147.70l63.60 8.10v3.20l-63.60 -8.10"/>
<use x="672.54" y="174.00" xlink:href="#hd"/>
<path d="M676.04 174.00v-25.20" class="stroke"/>
<use x="703.94" y="171.00" xlink:href="#hd"/>
<path d="M707.44 171.00v-18.20" class="stroke"/>
<use x="735.44" y="189.00" xlink:href="#hl"/>
<use x="735.44" y="192.00" xlink:href="#hd"/>
<path d="M738.94 192.00v-35.20" class="stroke"/>
<path class="fill"
	d="M772.44 202.20l72.30 0.00v-3.20l-72.30 -0.00"/>
<path class="fill"
	d="M794.94 197.20l49.50 0.00v-3.20l-49.50 -0.00"/>
<use x="776.34" y="183.00" xlink:href="#hd"/>
<path d="M772.84 183.00v18.20" class="stroke"/>
<use x="798.44" y="162.00" xlink:href="#hd"/>
<path d="M794.94 162.00v39.20" class="stroke"/>
<use x="816.44" y="165.00" xlink:href="#hd"/>
<defs>
<path id="unat" class="fill" d="
	m96 -750
	h-32
	v716
	l32 -8
	182 -54
	v282
	h32
	v-706
	l-34 10
	-180 50
	v-290
	m0 592
	v-190
	l182 -52
	v188"/>
<use id="nt0" transform="translate(-3,5) scale(0.018)"
	xlink:href="#unat"/>
</defs>
<use x="807.44" y="165.00" xlink:href="#nt0"/>
<path d="M812.94 165.00v36.20" class="stroke"/>
<use x="832.14" y="168.00" xlink:href="#hd"/>
<path d="M828.64 168.00v33.20" class="stroke"/>
<use x="847.94" y="171.00" xlink:href="#hd"/>
<path d="M844.44 171.00v30.20" class="stroke"/>
</g>
<g stroke-width="0.70" transform="scale(0.867)" font-family="Times" font-size="13.00">
<path class="stroke" stroke-width="1"
	d="M11.54 324.00v-90.00"/>
<path class="fill"
	d="M6.54 231.00
	c10.5 1 12 -4.5 12 -3.5c0 1 -3.5 5.5 -8.5 5.5
	v92.00
	c5 0 8.5 4.5 8.5 5.5c0 1 -1.5 -4.5 -12 -3.5"/>
<use x="144.44" y="258.00" xlink:href="#rdots"/>
<path class="stroke" stroke-width="1"
	d="M140.44 258.00v-24.00"/>
<path class="stroke" stroke-width="3"
	d="M135.94 258.00v-24.00"/>
<use x="144.44" y="324.00" xlink:href="#rdots"/>
<path class="stroke" stroke-width="1"
	d="M140.44 324.00v-66.00"/>
<path class="stroke" stroke-width="3"
	d="M135.94 324.00v-66.00"/>
<path class="stroke" stroke-width="1"
	d="M223.24 258.00v-24.00"/>
<path class="stroke" stroke-width="1"
	d="M223.24 324.00v-66.00"/>
<path class="stroke" stroke-width="1"
	d="M312.94 258.00v-24.00"/>
<path class="stroke" stroke-width="1"
	d="M312.94 324.00v-66.00"/>
<path class="stroke" stroke-width="1"
	d="M412.94 258.00v-24.00"/>
<path class="stroke" stroke-width="1"
	d="M412.94 324.00v-66.00"/>
<path class="stroke" stroke-width="1"
	d="M493.44 258.00v-24.00"/>
<path class="stroke" stroke-width="1"
	d="M493.44 324.00v-66.00"/>
<path class="stroke" stroke-width="1"
	d="M593.34 258.00v-24.00"/>
<path class="stroke" stroke-width="1"
	d="M593.34 324.00v-66.00"/>
<path class="stroke" stroke-width="1"
	d="M684.24 258.00v-24.00"/>
<path class="stroke" stroke-width="1"
	d="M684.24 324.00v-66.00"/>
<path class="stroke" stroke-width="1"
	d="M787.24 258.00v-24.00"/>
<path class="stroke" stroke-width="1"
	d="M787.24 324.00v-66.00"/>
<path class="stroke" stroke-width="3"
	d="M860.54 258.00v-24.00"/>
<path class="stroke" stroke-width="1"
	d="M856.04 258.00v-24.00"/>
<use x="852.04" y="258.00" xlink:href="#rdots"/>
<path class="stroke" stroke-width="3"
	d="M860.54 324.00v-66.00"/>
<path class="stroke" stroke-width="1"
	d="M856.04 324.00v-66.00"/>
<use x="852.04" y="324.00" xlink:href="#rdots"/>
<path d="m11.54 258.00
	h850.50
	M11.54 252.00
	h850.50
	M11.54 246.00
	h850.50
	M11.54 240.00
	h850.50
	M11.54 234.00
	h850.50
	" class="stroke"/>
<path d="m11.54 324.00
	h850.50
	M11.54 318.00
	h850.50
	M11.54 312.00
	h850.50
	M11.54 306.00
	h850.50
	M11.54 300.00
	h850.50
	" class="stroke"/>
<path class="fill"
	d="M166.94 223.80c6.23 -3.47 33.32 -0.60 39.55 4.20
	v-0.24c-7.42 -6.56 -32.13 -9.43 -39.55 -3.96"/>
<path class="fill"
	d="M696.74 234.00c2.76 -3.95 14.74 -4.43 17.50 -0.70
	v-0.22c-3.28 -5.51 -14.22 -5.03 -17.50 0.92"/>
<text x="47.54" y="219.40">2</text>
<path class="stroke"
	d="M43.54 208.00m0 20v-20h89.90v20"/>
<use x="23.54" y="252.00" xlink:href="#tclef"/>
<use x="56.04" y="231.00" xlink:href="#hd"/>
<path d="M52.54 231.00v40.00" class="stroke"/>
<use x="56.04" y="252.00" xlink:href="#hd"/>
<use x="56.04" y="246.00" xlink:href="#hd"/>
<use x="56.04" y="240.00" xlink:href="#hd"/>
<use x="109.94" y="246.00" xlink:href="#r8"/>
<path class="fill"
	d="M160.14 251.50l43.20 7.80v-3.20l-43.20 -7.80"/>
<use x="163.94" y="228.00" xlink:href="#hl"/>
<use x="163.94" y="228.00" xlink:href="#hd"/>
<path d="M160.44 228.00v22.50" class="stroke"/>
<use x="185.54" y="234.00" xlink:href="#hd"/>
<use x="176.54" y="234.00" xlink:href="#sh0"/>
<path d="M182.04 234.00v20.40" class="stroke"/>
<use x="206.44" y="240.00" xlink:href="#hd"/>
<path d="M202.94 240.00v18.20" class="stroke"/>
<path class="fill"
	d="M231.84 254.00l60.90 0.00v-3.20l-60.90 -0.00"/>
<path class="fill"
	d="M232.24 249.00l45.20 0.00v-3.20l-45.20 -0.00"/>
<use x="235.74" y="231.00" xlink:href="#hd"/>
<path d="M232.24 231.00v21.90" class="stroke"/>
<use x="250.64" y="228.00" xlink:href="#hl"/>
<use x="250.64" y="225.00" xlink:href="#hd"/>
<path d="M247.14 225.00v27.90" class="stroke"/>
<use x="265.84" y="228.00" xlink:href="#hl"/>
<use x="265.84" y="222.00" xlink:href="#hl"/>
<use x="265.84" y="219.00" xlink:href="#hd"/>
<path d="M262.34 219.00v33.90" class="stroke"/>
<use x="280.94" y="228.00" xlink:href="#hl"/>
<use x="280.94" y="225.00" xlink:href="#hd"/>
<path d="M277.44 225.00v27.90" class="stroke"/>
<use x="295.94" y="231.00" xlink:href="#hd"/>
<path d="M292.44 231.00v21.90" class="stroke"/>
<path class="fill"
	d="M321.64 264.20l60.60 7.00v-3.20l-60.60 -7.00"/>
<use x="325.44" y="237.00" xlink:href="#hd"/>
<path d="M321.94 237.00v26.30" class="stroke"/>
<use x="355.44" y="243.00" xlink:href="#hd"/>
<path d="M351.94 243.00v23.70" class="stroke"/>
<use x="385.44" y="252.00" xlink:href="#hd"/>
<path d="M381.94 252.00v18.20" class="stroke"/>
<path class="fill"
	d="M421.64 273.70l51.60 -4.30v-3.20l-51.60 4.30"/>
<path class="fill"
	d="M421.94 268.70l15.00 -1.20v-3.20l-15.00 1.20"/>
<use x="425.44" y="240.00" xlink:href="#hd"/>
<path d="M421.94 240.00v32.70" class="stroke"/>
<use x="440.44" y="246.00" xlink:href="#hd"/>
<path d="M436.94 246.00v25.40" class="stroke"/>
<use x="455.44" y="252.00" xlink:href="#hd"/>
<path d="M451.94 252.00v18.20" class="stroke"/>
<use x="476.34" y="231.00" xlink:href="#hd"/>
<path d="M472.84 231.00v37.50" class="stroke"/>
<path class="fill"
	d="M502.04 275.50l75.60 -6.30v-3.20l-75.60 6.30"/>
<path class="fill"
	d="M502.44 270.40l75.00 -6.20v-3.20l-75.00 6.20"/>
<use x="505.94" y="243.00" xlink:href="#hd"/>
<path d="M502.44 243.00v31.40" class="stroke"/>
<use x="520.94" y="252.00" xlink:href="#hd"/>
<path d="M517.44 252.00v21.20" class="stroke"/>
<use x="535.84" y="237.00" xlink:href="#hd"/>
<path d="M532.34 237.00v35.00" class="stroke"/>
<use x="550.84" y="243.00" xlink:href="#hd"/>
<path d="M547.34 243.00v27.70" class="stroke"/>
<use x="565.84" y="231.00" xlink:href="#hd"/>
<path d="M562.34 231.00v38.50" class="stroke"/>
<use x="580.84" y="237.00" xlink:href="#hd"/>
<path d="M577.34 237.00v31.20" class="stroke"/>
<path class="fill"
	d="M602.04 256.30l66.60 9.00v-3.20l-66.60 -9.00"/>
<path class="fill"
	d="M623.24 254.10l45.00 6.10v-3.20l-45.00 -6.10"/>
<use x="605.84" y="231.00" xlink:href="#hd"/>
<path d="M602.34 231.00v24.30" class="stroke"/>
<use x="626.74" y="234.00" xlink:href="#hd"/>
<path d="M623.24 234.00v24.10" class="stroke"/>
<use x="641.74" y="237.00" xlink:href="#hd"/>
<path d="M638.24 237.00v23.20" class="stroke"/>
<use x="656.74" y="240.00" xlink:href="#hd"/>
<path d="M653.24 240.00v22.20" class="stroke"/>
<use x="671.74" y="243.00" xlink:href="#hd"/>
<path d="M668.24 243.00v21.20" class="stroke"/>
<path class="fill"
	d="M692.94 274.20l78.60 0.00v-3.20l-78.60 -0.00"/>
<path class="fill"
	d="M693.24 269.20l78.00 0.00v-3.20l-78.00 -0.00"/>
<use x="696.74" y="240.00" xlink:href="#hd"/>
<path d="M693.24 240.00v33.20" class="stroke"/>
<use x="714.74" y="243.00" xlink:href="#hd"/>
<use x="705.74" y="243.00" xlink:href="#sh0"/>
<path d="M711.24 243.00v30.20" class="stroke"/>
<use x="729.74" y="240.00" xlink:href="#hd"/>
<path d="M726.24 240.00v33.20" class="stroke"/>
<use x="744.74" y="234.00" xlink:href="#hd"/>
<path d="M741.24 234.00v39.20" class="stroke"/>
<use x="759.74" y="252.00" xlink:href="#hd"/>
<path d="M756.24 252.00v21.20" class="stroke"/>
<use x="774.74" y="246.00" xlink:href="#hd"/>
<path d="M771.24 246.00v27.20" class="stroke"/>
<use x="799.74" y="243.00" xlink:href="#hd"/>
<path d="M796.24 243.00v21.00" class="stroke"/>
<use x="841.54" y="246.00" xlink:href="#r8"/>
<use x="23.54" y="306.00" xlink:href="#bclef"/>
<path class="fill"
	d="M52.24 343.20l69.60 -5.00v-3.20l-69.60 5.00"/>
<path class="fill"
	d="M73.44 336.70l48.00 -3.50v-3.20l-48.00 3.50"/>
<use x="56.04" y="324.00" xlink:href="#hd"/>
<path d="M52.54 324.00v18.20" class="stroke"/>
<use x="76.94" y="297.00" xlink:href="#hd"/>
<path d="M73.44 297.00v43.70" class="stroke"/>
<use x="91.94" y="303.00" xlink:href="#hd"/>
<path d="M88.44 303.00v36.60" class="stroke"/>
<use x="109.94" y="306.00" xlink:href="#hd"/>
<use x="100.94" y="306.00" xlink:href="#sh0"/>
<path d="M106.44 306.00v32.30" class="stroke"/>
<use x="124.94" y="309.00" xlink:href="#hd"/>
<path d="M121.44 309.00v28.20" class="stroke"/>
<use x="163.94" y="306.00" xlink:href="#hd"/>
<use x="154.94" y="306.00" xlink:href="#sh0"/>
<path d="M160.44 306.00v25.00" class="stroke"/>
<use x="163.94" y="312.00" xlink:href="#hd"/>
<use x="206.44" y="306.00" xlink:href="#hd"/>
<path d="M202.94 306.00v28.00" class="stroke"/>
<path class="fill"
	d="M202.94 334.00c0.6 -5.6 9.6 -9 5.6 -18.4
	1.6 6 -1.3 11.6 -5.6 12.8
"/>
<use x="206.44" y="315.00" xlink:href="#hd"/>
<use x="235.74" y="318.00" xlink:href="#hd"/>
<path d="M239.24 318.00v-25.00" class="stroke"/>
<use x="235.74" y="312.00" xlink:href="#hd"/>
<use x="295.94" y="318.00" xlink:href="#hd"/>
<path d="M299.44 318.00v-25.00" class="stroke"/>
<path class="fill"
	d="M299.44 293.00c0.6 5.6 9.6 9 5.6 18.4
	1.6 -6 -1.3 -11.6 -5.6 -12.8
"/>
<use x="295.94" y="312.00" xlink:href="#hd"/>
<path class="fill"
	d="M321.64 331.90l75.60 0.00v-3.20l-75.60 -0.00"/>
<path class="fill"
	d="M321.94 326.90l75.00 0.00v-3.20l-75.00 -0.00"/>
<use x="325.44" y="309.00" xlink:href="#hd"/>
<path d="M321.94 309.00v21.90" class="stroke"/>
<use x="325.44" y="315.00" xlink:href="#hd"/>
<use x="340.44" y="303.00" xlink:href="#hd"/>
<path d="M336.94 303.00v27.90" class="stroke"/>
<use x="355.44" y="309.00" xlink:href="#hd"/>
<path d="M351.94 309.00v21.90" class="stroke"/>
<use x="355.44" y="315.00" xlink:href="#hd"/>
<use x="370.44" y="303.00" xlink:href="#hd"/>
<path d="M366.94 303.00v27.90" class="stroke"/>
<use x="385.44" y="309.00" xlink:href="#hd"/>
<path d="M381.94 309.00v21.90" class="stroke"/>
<use x="385.44" y="315.00" xlink:href="#hd"/>
<use x="400.44" y="303.00" xlink:href="#hd"/>
<path d="M396.94 303.00v27.90" class="stroke"/>
<use x="425.44" y="303.00" xlink:href="#hd"/>
<path d="M428.94 303.00v-21.00" class="stroke"/>
<use x="476.34" y="318.00" xlink:href="#hd"/>
<path d="M479.84 318.00v-25.00" class="stroke"/>
<path class="fill"
	d="M479.84 293.00c0.6 5.6 9.6 9 5.6 18.4
	1.6 -6 -1.3 -11.6 -5.6 -12.8
"/>
<use x="476.34" y="312.00" xlink:href="#hd"/>
<use x="505.94" y="309.00" xlink:href="#hd"/>
<path d="M502.44 309.00v25.00" class="stroke"/>
<use x="505.94" y="315.00" xlink:href="#hd"/>
<use x="565.84" y="312.00" xlink:href="#r8"/>
<use x="605.84" y="309.00" xlink:href="#hd"/>
<path d="M602.34 309.00v25.00" class="stroke"/>
<use x="605.84" y="315.00" xlink:href="#hd"/>
<use x="656.74" y="303.00" xlink:href="#hd"/>
<path d="M653.24 303.00v25.00" class="stroke"/>
<path class="fill"
	d="M653.24 328.00c0.6 -5.6 9.6 -9 5.6 -18.4
	1.6 6 -1.3 11.6 -5.6 12.8
"/>
<use x="656.74" y="309.00" xlink:href="#hd"/>
<use x="696.74" y="306.00" xlink:href="#hd"/>
<path d="M693.24 306.00v21.00" class="stroke"/>
<use x="759.74" y="303.00" xlink:href="#hd"/>
<path d="M756.24 303.00v21.00" class="stroke"/>
<path class="fill"
	d="M756.24 324.00c0.6 -5.6 9.6 -9 5.6 -18.4
	1.6 6 -1.3 11.6 -5.6 12.8
"/>
<path class="fill"
	d="M802.84 295.70l42.50 9.80v3.20l-42.50 -9.80"/>
<use x="799.74" y="315.00" xlink:href="#hd"/>
<path d="M803.24 315.00v-18.20" class="stroke"/>
<use x="820.64" y="324.00" xlink:href="#hd"/>
<path d="M824.14 324.00v-22.40" class="stroke"/>
<use x="841.54" y="330.00" xlink:href="#hl"/>
<use x="841.54" y="336.00" xlink:href="#hl"/>
<use x="841.54" y="336.00" xlink:href="#hd"/>
<path d="M845.04 336.00v-29.50" class="stroke"/>
<use x="425.44" y="318.00" xlink:href="#hd"/>
<path d="M421.94 318.00v21.00" class="stroke"/>
</g>
</svg>
