<?xml version="1.0" standalone="no"?>
<!DOCTYPE svg PUBLIC "-//W3C//DTD SVG 1.1//EN"
	"http://www.w3.org/Graphics/SVG/1.1/DTD/svg11.dtd">
<svg xmlns="http://www.w3.org/2000/svg" version="1.1"
	xmlns:xlink="http://www.w3.org/1999/xlink"
	color="black"
	width="757.10px" height="301.60px">
<style type="text/css">
.fill {fill: currentColor}
.stroke {stroke: currentColor; fill: none}
text{white-space: pre}
</style>
<title>./K516f-11-12-6-2-4-3-5-2-6-3-8-2-3-11-2-11.abc (2854) tune 1</title>
<!-- Creator: abcm2ps-8.13.8 -->
<!-- CreationDate: Sep  7, 2017 11:21 -->
<!-- CommandLine: ./K516f-11-12-6-2-4-3-5-2-6-3-8-2-3-11-2-11.abc -O ./K516f-11-12-6-2-4-3-5-2-6-3-8-2-3-11-2-11.svg -g -->
<rect width="100%" height="100%" fill="white"/>
<g stroke-width="0.70" transform="scale(0.867)">
<!-- title: 11-12-6-2-4-3-5-2-6-3-8-2-3-11-2-11 -->
</g>
<g stroke-width="0.70" transform="scale(0.867)" font-family="Times" font-size="20.00">
<text x="436.84" y="22.00" text-anchor="middle">11-12-6-2-4-3-5-2-6-3-8-2-3-11-2-11</text>
</g>
<g stroke-width="0.70" transform="scale(0.867)" font-family="Times" font-size="20.00">
<!-- subtitle: $1K.516f::3:130:163:41:153:46:159:30:25:39:57:9:174:59:109:78::$0 -->
</g>
<g stroke-width="0.70" transform="scale(0.867)" font-family="Courier" font-size="8.00" font-weight="bold">
<text x="436.84" y="41.80" text-anchor="middle">K.516f::3:130:163:41:153:46:159:30:25:39:57:9:174:59:109:78::</text>
</g>
<g stroke-width="0.70" transform="scale(0.867)" font-family="Courier" font-size="8.00" font-weight="bold">
<!-- subtitle: $1Perm. No.: 28545612560431$0 -->
<text x="436.84" y="60.80" text-anchor="middle">Perm. No.: 28545612560431</text>
</g>
<g stroke-width="0.70" transform="scale(0.607)" font-family="Courier" font-size="8.00" font-weight="bold">
<defs>
<ellipse id="hd" rx="4.1" ry="2.9"
	transform="rotate(-20)" class="fill"/>
</defs>
<use x="103.06" y="121.29" xlink:href="#hd"/>
<path d="M106.56 121.29v-21.00" class="stroke"/>
<path class="fill"
	d="M106.56 100.29c0.6 5.6 9.6 9 5.6 18.4
	1.6 -6 -1.3 -11.6 -5.6 -12.8
"/>
</g>
<g stroke-width="0.70" transform="scale(0.867)" font-family="Times" font-size="15.00" font-weight="bold">
<text x="81.24" y="87.00">= 111</text>
<path class="stroke" stroke-width="1"
	d="M11.54 183.00v-82.00"/>
<path class="fill"
	d="M6.54 98.00
	c10.5 1 12 -4.5 12 -3.5c0 1 -3.5 5.5 -8.5 5.5
	v84.00
	c5 0 8.5 4.5 8.5 5.5c0 1 -1.5 -4.5 -12 -3.5"/>
<defs>
<g id="rdots" class="fill">
	<circle cx="0" cy="-9" r="1.2"/>
	<circle cx="0" cy="-15" r="1.2"/>
</g>
</defs>
<use x="70.54" y="125.00" xlink:href="#rdots"/>
<path class="stroke" stroke-width="1"
	d="M66.54 125.00v-24.00"/>
<path class="stroke" stroke-width="3"
	d="M62.04 125.00v-24.00"/>
<use x="70.54" y="183.00" xlink:href="#rdots"/>
<path class="stroke" stroke-width="1"
	d="M66.54 183.00v-58.00"/>
<path class="stroke" stroke-width="3"
	d="M62.04 183.00v-58.00"/>
<path class="stroke" stroke-width="1"
	d="M150.24 125.00v-24.00"/>
<path class="stroke" stroke-width="1"
	d="M150.24 183.00v-58.00"/>
<path class="stroke" stroke-width="1"
	d="M228.94 125.00v-24.00"/>
<path class="stroke" stroke-width="1"
	d="M228.94 183.00v-58.00"/>
<path class="stroke" stroke-width="1"
	d="M339.94 125.00v-24.00"/>
<path class="stroke" stroke-width="1"
	d="M339.94 183.00v-58.00"/>
<path class="stroke" stroke-width="1"
	d="M438.34 125.00v-24.00"/>
<path class="stroke" stroke-width="1"
	d="M438.34 183.00v-58.00"/>
<path class="stroke" stroke-width="1"
	d="M549.44 125.00v-24.00"/>
<path class="stroke" stroke-width="1"
	d="M549.44 183.00v-58.00"/>
<path class="stroke" stroke-width="1"
	d="M649.24 125.00v-24.00"/>
<path class="stroke" stroke-width="1"
	d="M649.24 183.00v-58.00"/>
<path class="stroke" stroke-width="1"
	d="M759.04 125.00v-24.00"/>
<path class="stroke" stroke-width="1"
	d="M759.04 183.00v-58.00"/>
<path class="stroke" stroke-width="3"
	d="M860.54 125.00v-24.00"/>
<path class="stroke" stroke-width="1"
	d="M856.04 125.00v-24.00"/>
<use x="852.04" y="125.00" xlink:href="#rdots"/>
<path class="stroke" stroke-width="3"
	d="M860.54 183.00v-58.00"/>
<path class="stroke" stroke-width="1"
	d="M856.04 183.00v-58.00"/>
<use x="852.04" y="183.00" xlink:href="#rdots"/>
<path d="m11.54 125.00
	h850.50
	M11.54 119.00
	h850.50
	M11.54 113.00
	h850.50
	M11.54 107.00
	h850.50
	M11.54 101.00
	h850.50
	" class="stroke"/>
<path d="m11.54 183.00
	h850.50
	M11.54 177.00
	h850.50
	M11.54 171.00
	h850.50
	M11.54 165.00
	h850.50
	M11.54 159.00
	h850.50
	" class="stroke"/>
</g>
<g stroke-width="0.70" transform="scale(0.867)" font-family="Times" font-size="13.00">
<text x="763.04" y="86.40">1</text>
<path class="stroke"
	d="M759.04 75.00m0 20v-20h95.00v20"/>
<defs>
<path id="utclef" class="fill" d="m-50 -90
	c-72 -41 -72 -158 52 -188
	150 -10 220 188 90 256
	-114 52 -275 0 -293 -136
	-15 -181 93 -229 220 -334
	88 -87 79 -133 62 -210
	-51 33 -94 105 -89 186
	17 267 36 374 49 574
	6 96 -19 134 -77 135
	-80 1 -126 -93 -61 -133
	85 -41 133 101 31 105
	23 17 92 37 90 -92
	-10 -223 -39 -342 -50 -617
	0 -90 0 -162 96 -232
	56 72 63 230 22 289
	-74 106 -257 168 -255 316
	9 153 148 185 252 133
	86 -65 29 -192 -80 -176
	-71 12 -105 67 -59 124"/>
<use id="tclef" transform="translate(0,6) scale(0.045)"
	xlink:href="#utclef"/>
</defs>
<use x="23.54" y="119.00" xlink:href="#tclef"/>
<g font-family="serif" font-size="16" font-weight="bold" font-style="normal"
	transform="translate(42.04,124.50) scale(1.2,1)">
	<text text-anchor="middle">8</text>
	<text y="-12" text-anchor="middle">3</text>
</g>
<path class="fill"
	d="M80.94 127.60l47.70 3.20v-3.20l-47.70 -3.20"/>
<use x="84.74" y="98.00" xlink:href="#hd"/>
<path d="M81.24 98.00v28.60" class="stroke"/>
<use x="108.34" y="110.00" xlink:href="#hd"/>
<path d="M104.84 110.00v18.20" class="stroke"/>
<use x="131.84" y="104.00" xlink:href="#hd"/>
<path d="M128.34 104.00v25.80" class="stroke"/>
<path class="fill"
	d="M166.64 91.00l47.70 0.00v3.20l-47.70 -0.00"/>
<use x="163.44" y="125.00" xlink:href="#hd"/>
<path d="M166.94 125.00v-33.00" class="stroke"/>
<use x="163.44" y="110.00" xlink:href="#hd"/>
<use x="186.94" y="125.00" xlink:href="#hd"/>
<path d="M190.44 125.00v-33.00" class="stroke"/>
<use x="186.94" y="110.00" xlink:href="#hd"/>
<use x="210.44" y="125.00" xlink:href="#hd"/>
<path d="M213.94 125.00v-33.00" class="stroke"/>
<use x="210.44" y="110.00" xlink:href="#hd"/>
<path class="fill"
	d="M238.34 131.30l85.40 10.00v-3.20l-85.40 -10.00"/>
<path class="fill"
	d="M238.64 126.30l84.70 9.90v-3.20l-84.70 -9.90"/>
<use x="242.14" y="98.00" xlink:href="#hd"/>
<path d="M238.64 98.00v32.30" class="stroke"/>
<use x="260.14" y="101.00" xlink:href="#hd"/>
<defs>
<path id="usharp" class="fill" d="
	m136 -702
	v890
	h32
	v-890
	m128 840
	h32
	v-888
	h-32
	m-232 286
	v116
	l338 -96
	v-116
	m-338 442
	v116
	l338 -98
	v-114"/>
<use id="sh0" transform="translate(-4,5) scale(0.018)"
	xlink:href="#usharp"/>
</defs>
<use x="251.14" y="101.00" xlink:href="#sh0"/>
<path d="M256.64 101.00v31.40" class="stroke"/>
<use x="276.84" y="98.00" xlink:href="#hd"/>
<path d="M273.34 98.00v36.40" class="stroke"/>
<use x="293.54" y="107.00" xlink:href="#hd"/>
<path d="M290.04 107.00v29.30" class="stroke"/>
<use x="310.14" y="113.00" xlink:href="#hd"/>
<path d="M306.64 113.00v25.30" class="stroke"/>
<use x="326.84" y="119.00" xlink:href="#hd"/>
<path d="M323.34 119.00v21.20" class="stroke"/>
<path class="fill"
	d="M349.34 138.20l67.40 0.00v-3.20l-67.40 -0.00"/>
<path class="fill"
	d="M349.74 133.20l50.00 0.00v-3.20l-50.00 -0.00"/>
<use x="353.24" y="110.00" xlink:href="#hd"/>
<path d="M349.74 110.00v27.20" class="stroke"/>
<use x="369.84" y="113.00" xlink:href="#hd"/>
<path d="M366.34 113.00v24.20" class="stroke"/>
<use x="386.54" y="110.00" xlink:href="#hd"/>
<path d="M383.04 110.00v27.20" class="stroke"/>
<use x="403.24" y="104.00" xlink:href="#hd"/>
<path d="M399.74 104.00v33.20" class="stroke"/>
<use x="419.94" y="119.00" xlink:href="#hd"/>
<path d="M416.44 119.00v18.20" class="stroke"/>
<path class="fill"
	d="M447.74 139.50l85.40 -6.40v-3.20l-85.40 6.40"/>
<path class="fill"
	d="M448.04 134.50l84.70 -6.40v-3.20l-84.70 6.40"/>
<use x="451.54" y="107.00" xlink:href="#hd"/>
<path d="M448.04 107.00v31.50" class="stroke"/>
<use x="468.24" y="116.00" xlink:href="#hd"/>
<path d="M464.74 116.00v21.20" class="stroke"/>
<use x="486.24" y="101.00" xlink:href="#hd"/>
<use x="477.24" y="101.00" xlink:href="#sh0"/>
<path d="M482.74 101.00v34.80" class="stroke"/>
<use x="502.94" y="107.00" xlink:href="#hd"/>
<path d="M499.44 107.00v27.60" class="stroke"/>
<defs>
<path id="hl" class="stroke" d="m-6 0h12"/>
</defs>
<use x="519.64" y="95.00" xlink:href="#hl"/>
<use x="519.64" y="95.00" xlink:href="#hd"/>
<path d="M516.14 95.00v38.30" class="stroke"/>
<use x="536.24" y="101.00" xlink:href="#hd"/>
<path d="M532.74 101.00v31.10" class="stroke"/>
<path class="fill"
	d="M558.84 127.00l74.20 8.20v-3.20l-74.20 -8.20"/>
<path class="fill"
	d="M582.64 124.70l50.00 5.50v-3.20l-50.00 -5.50"/>
<use x="562.64" y="98.00" xlink:href="#hd"/>
<path d="M559.14 98.00v28.10" class="stroke"/>
<use x="586.14" y="95.00" xlink:href="#hl"/>
<use x="586.14" y="92.00" xlink:href="#hd"/>
<path d="M582.64 92.00v36.70" class="stroke"/>
<use x="602.84" y="98.00" xlink:href="#hd"/>
<path d="M599.34 98.00v32.50" class="stroke"/>
<use x="619.54" y="107.00" xlink:href="#hd"/>
<path d="M616.04 107.00v25.40" class="stroke"/>
<use x="636.14" y="113.00" xlink:href="#hd"/>
<path d="M632.64 113.00v21.20" class="stroke"/>
<path class="fill"
	d="M658.64 130.60l84.10 7.60v-3.20l-84.10 -7.60"/>
<path class="fill"
	d="M659.04 125.60l83.40 7.60v-3.20l-83.40 -7.60"/>
<use x="662.54" y="104.00" xlink:href="#hd"/>
<path d="M659.04 104.00v25.60" class="stroke"/>
<use x="679.24" y="98.00" xlink:href="#hd"/>
<path d="M675.74 98.00v33.10" class="stroke"/>
<use x="695.84" y="107.00" xlink:href="#hd"/>
<path d="M692.34 107.00v25.70" class="stroke"/>
<use x="712.54" y="110.00" xlink:href="#hd"/>
<path d="M709.04 110.00v24.20" class="stroke"/>
<use x="729.24" y="113.00" xlink:href="#hd"/>
<path d="M725.74 113.00v22.70" class="stroke"/>
<use x="745.94" y="116.00" xlink:href="#hd"/>
<path d="M742.44 116.00v21.20" class="stroke"/>
<use x="772.24" y="98.00" xlink:href="#hd"/>
<path d="M768.74 98.00v40.00" class="stroke"/>
<use x="772.24" y="119.00" xlink:href="#hd"/>
<use x="772.24" y="113.00" xlink:href="#hd"/>
<use x="772.24" y="107.00" xlink:href="#hd"/>
<defs>
<path id="r8e" class="fill" d="m 0 0
	c-1.5 1.5 -2.4 2 -3.6 2
	2.4 -2.8 -2.8 -4 -2.8 -1.2
	c0 2.7 4.3 2.4 5.9 0.6"/>
<g id="r8">
	<path d="m3.3 -4l-3.4 9.6" class="stroke"/>
	<use x="3.4" y="-4" xlink:href="#r8e"/>
</g>
</defs>
<use x="830.44" y="113.00" xlink:href="#r8"/>
<defs>
<path id="ubclef" class="fill" d="m-200 -87
	c124 -35 222 -78 254 -236
	43 -228 -167 -246 -192 -103
	59 -80 157 22 92 78
	-62 47 -115 -22 -106 -88
	21 -141 270 -136 274 52
	-1 175 -106 264 -322 297
	m357 -250
	c0 -36 51 -34 51 0
	0 37 -51 36 -51 0
	m-2 -129
	c0 -36 51 -34 51 0
	0 38 -51 37 -51 0"/>
<use id="bclef" transform="translate(0,18) scale(0.045)"
	xlink:href="#ubclef"/>
</defs>
<use x="23.54" y="165.00" xlink:href="#bclef"/>
<g font-family="serif" font-size="16" font-weight="bold" font-style="normal"
	transform="translate(42.04,182.50) scale(1.2,1)">
	<text text-anchor="middle">8</text>
	<text y="-12" text-anchor="middle">3</text>
</g>
<use x="84.74" y="168.00" xlink:href="#hd"/>
<path d="M81.24 168.00v25.00" class="stroke"/>
<use x="84.74" y="174.00" xlink:href="#hd"/>
<use x="131.84" y="171.00" xlink:href="#r8"/>
<path class="fill"
	d="M166.64 153.00l47.70 0.00v3.20l-47.70 -0.00"/>
<use x="163.44" y="174.00" xlink:href="#hd"/>
<path d="M166.94 174.00v-20.00" class="stroke"/>
<use x="186.94" y="174.00" xlink:href="#hd"/>
<path d="M190.44 174.00v-20.00" class="stroke"/>
<use x="210.44" y="174.00" xlink:href="#hd"/>
<path d="M213.94 174.00v-20.00" class="stroke"/>
<use x="242.14" y="177.00" xlink:href="#hd"/>
<path d="M245.64 177.00v-25.00" class="stroke"/>
<use x="242.14" y="171.00" xlink:href="#hd"/>
<use x="310.14" y="171.00" xlink:href="#r8"/>
<use x="353.24" y="168.00" xlink:href="#hd"/>
<path d="M349.74 168.00v25.00" class="stroke"/>
<use x="353.24" y="174.00" xlink:href="#hd"/>
<use x="419.94" y="171.00" xlink:href="#r8"/>
<use x="451.54" y="174.00" xlink:href="#hd"/>
<path d="M455.04 174.00v-21.00" class="stroke"/>
<use x="519.64" y="171.00" xlink:href="#r8"/>
<use x="562.64" y="177.00" xlink:href="#hd"/>
<path d="M566.14 177.00v-25.00" class="stroke"/>
<use x="562.64" y="171.00" xlink:href="#hd"/>
<use x="619.54" y="171.00" xlink:href="#r8"/>
<path class="fill"
	d="M665.64 147.70l67.40 8.20v3.20l-67.40 -8.20"/>
<use x="662.54" y="174.00" xlink:href="#hd"/>
<path d="M666.04 174.00v-25.30" class="stroke"/>
<use x="695.84" y="171.00" xlink:href="#hd"/>
<path d="M699.34 171.00v-18.20" class="stroke"/>
<use x="729.24" y="189.00" xlink:href="#hl"/>
<use x="729.24" y="192.00" xlink:href="#hd"/>
<path d="M732.74 192.00v-35.10" class="stroke"/>
<path class="fill"
	d="M768.44 202.20l75.50 0.00v-3.20l-75.50 -0.00"/>
<path class="fill"
	d="M792.24 197.20l51.40 0.00v-3.20l-51.40 -0.00"/>
<use x="772.24" y="183.00" xlink:href="#hd"/>
<path d="M768.74 183.00v18.20" class="stroke"/>
<use x="795.74" y="162.00" xlink:href="#hd"/>
<path d="M792.24 162.00v39.20" class="stroke"/>
<use x="813.74" y="165.00" xlink:href="#hd"/>
<defs>
<path id="unat" class="fill" d="
	m96 -750
	h-32
	v716
	l32 -8
	182 -54
	v282
	h32
	v-706
	l-34 10
	-180 50
	v-290
	m0 592
	v-190
	l182 -52
	v188"/>
<use id="nt0" transform="translate(-3,5) scale(0.018)"
	xlink:href="#unat"/>
</defs>
<use x="804.74" y="165.00" xlink:href="#nt0"/>
<path d="M810.24 165.00v36.20" class="stroke"/>
<use x="830.44" y="168.00" xlink:href="#hd"/>
<path d="M826.94 168.00v33.20" class="stroke"/>
<use x="847.14" y="171.00" xlink:href="#hd"/>
<path d="M843.64 171.00v30.20" class="stroke"/>
</g>
<g stroke-width="0.70" transform="scale(0.867)" font-family="Times" font-size="13.00">
<path class="stroke" stroke-width="1"
	d="M11.54 322.00v-88.00"/>
<path class="fill"
	d="M6.54 231.00
	c10.5 1 12 -4.5 12 -3.5c0 1 -3.5 5.5 -8.5 5.5
	v90.00
	c5 0 8.5 4.5 8.5 5.5c0 1 -1.5 -4.5 -12 -3.5"/>
<use x="140.64" y="258.00" xlink:href="#rdots"/>
<path class="stroke" stroke-width="1"
	d="M136.64 258.00v-24.00"/>
<path class="stroke" stroke-width="3"
	d="M132.14 258.00v-24.00"/>
<use x="140.64" y="322.00" xlink:href="#rdots"/>
<path class="stroke" stroke-width="1"
	d="M136.64 322.00v-64.00"/>
<path class="stroke" stroke-width="3"
	d="M132.14 322.00v-64.00"/>
<path class="stroke" stroke-width="1"
	d="M244.44 258.00v-24.00"/>
<path class="stroke" stroke-width="1"
	d="M244.44 322.00v-64.00"/>
<path class="stroke" stroke-width="1"
	d="M339.24 258.00v-24.00"/>
<path class="stroke" stroke-width="1"
	d="M339.24 322.00v-64.00"/>
<path class="stroke" stroke-width="1"
	d="M434.04 258.00v-24.00"/>
<path class="stroke" stroke-width="1"
	d="M434.04 322.00v-64.00"/>
<path class="stroke" stroke-width="1"
	d="M501.84 258.00v-24.00"/>
<path class="stroke" stroke-width="1"
	d="M501.84 322.00v-64.00"/>
<path class="stroke" stroke-width="1"
	d="M596.64 258.00v-24.00"/>
<path class="stroke" stroke-width="1"
	d="M596.64 322.00v-64.00"/>
<path class="stroke" stroke-width="1"
	d="M691.44 258.00v-24.00"/>
<path class="stroke" stroke-width="1"
	d="M691.44 322.00v-64.00"/>
<path class="stroke" stroke-width="1"
	d="M786.24 258.00v-24.00"/>
<path class="stroke" stroke-width="1"
	d="M786.24 322.00v-64.00"/>
<path class="stroke" stroke-width="3"
	d="M860.54 258.00v-24.00"/>
<path class="stroke" stroke-width="1"
	d="M856.04 258.00v-24.00"/>
<use x="852.04" y="258.00" xlink:href="#rdots"/>
<path class="stroke" stroke-width="3"
	d="M860.54 322.00v-64.00"/>
<path class="stroke" stroke-width="1"
	d="M856.04 322.00v-64.00"/>
<use x="852.04" y="322.00" xlink:href="#rdots"/>
<path d="m11.54 258.00
	h850.50
	M11.54 252.00
	h850.50
	M11.54 246.00
	h850.50
	M11.54 240.00
	h850.50
	M11.54 234.00
	h850.50
	" class="stroke"/>
<path d="m11.54 322.00
	h850.50
	M11.54 316.00
	h850.50
	M11.54 310.00
	h850.50
	M11.54 304.00
	h850.50
	M11.54 298.00
	h850.50
	" class="stroke"/>
<text x="47.54" y="219.40">2</text>
<path class="stroke"
	d="M43.54 208.00m0 20v-20h86.10v20"/>
<use x="23.54" y="252.00" xlink:href="#tclef"/>
<use x="56.04" y="231.00" xlink:href="#hd"/>
<path d="M52.54 231.00v40.00" class="stroke"/>
<use x="56.04" y="252.00" xlink:href="#hd"/>
<use x="56.04" y="246.00" xlink:href="#hd"/>
<use x="56.04" y="240.00" xlink:href="#hd"/>
<use x="107.14" y="246.00" xlink:href="#r8"/>
<path class="fill"
	d="M150.24 281.30l78.50 -13.10v-3.20l-78.50 13.10"/>
<path class="fill"
	d="M150.64 276.20l77.90 -13.00v-3.20l-77.90 13.00"/>
<use x="154.14" y="261.00" xlink:href="#hd"/>
<path d="M150.64 261.00v19.20" class="stroke"/>
<use x="172.14" y="255.00" xlink:href="#hd"/>
<use x="163.14" y="255.00" xlink:href="#sh0"/>
<path d="M168.64 255.00v22.20" class="stroke"/>
<use x="186.04" y="249.00" xlink:href="#hd"/>
<path d="M182.54 249.00v25.90" class="stroke"/>
<use x="200.04" y="240.00" xlink:href="#hd"/>
<path d="M196.54 240.00v32.50" class="stroke"/>
<use x="218.04" y="234.00" xlink:href="#hd"/>
<use x="209.04" y="234.00" xlink:href="#sh0"/>
<path d="M214.54 234.00v35.50" class="stroke"/>
<use x="231.94" y="228.00" xlink:href="#hl"/>
<use x="231.94" y="228.00" xlink:href="#hd"/>
<path d="M228.44 228.00v39.20" class="stroke"/>
<path class="fill"
	d="M253.14 266.80l56.50 8.80v-3.20l-56.50 -8.80"/>
<use x="256.94" y="231.00" xlink:href="#hd"/>
<path d="M253.44 231.00v34.90" class="stroke"/>
<use x="284.94" y="252.00" xlink:href="#hd"/>
<path d="M281.44 252.00v18.20" class="stroke"/>
<use x="312.84" y="252.00" xlink:href="#hd"/>
<path d="M309.34 252.00v22.50" class="stroke"/>
<path class="fill"
	d="M347.94 264.40l56.50 6.90v-3.20l-56.50 -6.90"/>
<use x="351.74" y="237.00" xlink:href="#hd"/>
<path d="M348.24 237.00v26.40" class="stroke"/>
<use x="379.64" y="243.00" xlink:href="#hd"/>
<path d="M376.14 243.00v23.80" class="stroke"/>
<use x="407.54" y="252.00" xlink:href="#hd"/>
<path d="M404.04 252.00v18.20" class="stroke"/>
<path class="fill"
	d="M442.74 262.30l19.80 2.40v-3.20l-19.80 -2.40"/>
<use x="446.54" y="237.00" xlink:href="#hd"/>
<path d="M443.04 237.00v24.40" class="stroke"/>
<use x="446.54" y="243.00" xlink:href="#hd"/>
<use x="465.74" y="240.00" xlink:href="#hd"/>
<path d="M462.24 240.00v23.60" class="stroke"/>
<use x="465.74" y="246.00" xlink:href="#hd"/>
<use x="484.84" y="246.00" xlink:href="#r8"/>
<path class="fill"
	d="M510.54 271.20l56.50 -6.90v-3.20l-56.50 6.90"/>
<use x="514.34" y="252.00" xlink:href="#hd"/>
<path d="M510.84 252.00v18.20" class="stroke"/>
<use x="542.24" y="243.00" xlink:href="#hd"/>
<path d="M538.74 243.00v23.80" class="stroke"/>
<use x="570.24" y="237.00" xlink:href="#hd"/>
<path d="M566.74 237.00v26.40" class="stroke"/>
<path class="fill"
	d="M605.34 260.60l56.50 3.20v-3.20l-56.50 -3.20"/>
<use x="609.14" y="231.00" xlink:href="#hd"/>
<path d="M605.64 231.00v28.60" class="stroke"/>
<use x="637.04" y="243.00" xlink:href="#hd"/>
<path d="M633.54 243.00v18.20" class="stroke"/>
<use x="664.94" y="237.00" xlink:href="#hd"/>
<path d="M661.44 237.00v25.80" class="stroke"/>
<path class="fill"
	d="M700.04 266.00l70.50 0.00v-3.20l-70.50 -0.00"/>
<path class="fill"
	d="M700.44 261.00l69.80 0.00v-3.20l-69.80 -0.00"/>
<use x="703.94" y="240.00" xlink:href="#hd"/>
<path d="M700.44 240.00v24.90" class="stroke"/>
<use x="717.84" y="234.00" xlink:href="#hd"/>
<path d="M714.34 234.00v30.90" class="stroke"/>
<use x="731.84" y="240.00" xlink:href="#hd"/>
<path d="M728.34 240.00v24.90" class="stroke"/>
<use x="745.84" y="234.00" xlink:href="#hd"/>
<path d="M742.34 234.00v30.90" class="stroke"/>
<use x="759.74" y="246.00" xlink:href="#hd"/>
<path d="M756.24 246.00v18.90" class="stroke"/>
<use x="773.74" y="240.00" xlink:href="#hd"/>
<path d="M770.24 240.00v24.90" class="stroke"/>
<path class="fill"
	d="M801.84 223.70l19.80 6.80v3.20l-19.80 -6.80"/>
<use x="798.74" y="243.00" xlink:href="#hd"/>
<path d="M802.24 243.00v-18.20" class="stroke"/>
<use x="817.84" y="264.00" xlink:href="#hl"/>
<use x="817.84" y="264.00" xlink:href="#hd"/>
<path d="M821.34 264.00v-32.60" class="stroke"/>
<use x="837.04" y="246.00" xlink:href="#r8"/>
<use x="23.54" y="304.00" xlink:href="#bclef"/>
<path class="fill"
	d="M52.24 341.20l65.80 0.00v-3.20l-65.80 -0.00"/>
<path class="fill"
	d="M71.74 336.20l45.90 0.00v-3.20l-45.90 -0.00"/>
<use x="56.04" y="322.00" xlink:href="#hd"/>
<path d="M52.54 322.00v18.20" class="stroke"/>
<use x="75.24" y="295.00" xlink:href="#hd"/>
<path d="M71.74 295.00v45.20" class="stroke"/>
<use x="89.14" y="301.00" xlink:href="#hd"/>
<path d="M85.64 301.00v39.20" class="stroke"/>
<use x="107.14" y="304.00" xlink:href="#hd"/>
<use x="98.14" y="304.00" xlink:href="#sh0"/>
<path d="M103.64 304.00v36.20" class="stroke"/>
<use x="121.14" y="307.00" xlink:href="#hd"/>
<path d="M117.64 307.00v33.20" class="stroke"/>
<use x="154.14" y="310.00" xlink:href="#hd"/>
<path d="M157.64 310.00v-21.00" class="stroke"/>
<use x="218.04" y="313.00" xlink:href="#hd"/>
<path d="M221.54 313.00v-21.00" class="stroke"/>
<path class="fill"
	d="M221.54 292.00c0.6 5.6 9.6 9 5.6 18.4
	1.6 -6 -1.3 -11.6 -5.6 -12.8
"/>
<path class="fill"
	d="M253.14 344.20l70.50 0.00v-3.20l-70.50 -0.00"/>
<path class="fill"
	d="M253.44 339.20l69.80 0.00v-3.20l-69.80 -0.00"/>
<use x="256.94" y="316.00" xlink:href="#hd"/>
<path d="M253.44 316.00v27.20" class="stroke"/>
<use x="270.94" y="310.00" xlink:href="#hd"/>
<path d="M267.44 310.00v33.20" class="stroke"/>
<use x="284.94" y="301.00" xlink:href="#hd"/>
<path d="M281.44 301.00v42.20" class="stroke"/>
<use x="298.84" y="310.00" xlink:href="#hd"/>
<path d="M295.34 310.00v33.20" class="stroke"/>
<use x="312.84" y="295.00" xlink:href="#hd"/>
<path d="M309.34 295.00v48.20" class="stroke"/>
<use x="326.74" y="322.00" xlink:href="#hd"/>
<path d="M323.24 322.00v21.20" class="stroke"/>
<path class="fill"
	d="M347.94 329.90l70.50 0.00v-3.20l-70.50 -0.00"/>
<path class="fill"
	d="M348.24 324.90l69.80 0.00v-3.20l-69.80 -0.00"/>
<use x="351.74" y="307.00" xlink:href="#hd"/>
<path d="M348.24 307.00v21.90" class="stroke"/>
<use x="351.74" y="313.00" xlink:href="#hd"/>
<use x="365.74" y="301.00" xlink:href="#hd"/>
<path d="M362.24 301.00v27.90" class="stroke"/>
<use x="379.64" y="307.00" xlink:href="#hd"/>
<path d="M376.14 307.00v21.90" class="stroke"/>
<use x="379.64" y="313.00" xlink:href="#hd"/>
<use x="393.64" y="301.00" xlink:href="#hd"/>
<path d="M390.14 301.00v27.90" class="stroke"/>
<use x="407.54" y="307.00" xlink:href="#hd"/>
<path d="M404.04 307.00v21.90" class="stroke"/>
<use x="407.54" y="313.00" xlink:href="#hd"/>
<use x="421.54" y="301.00" xlink:href="#hd"/>
<path d="M418.04 301.00v27.90" class="stroke"/>
<use x="446.54" y="301.00" xlink:href="#hd"/>
<path d="M443.04 301.00v21.00" class="stroke"/>
<use x="484.84" y="322.00" xlink:href="#hd"/>
<path d="M488.34 322.00v-21.00" class="stroke"/>
<path class="fill"
	d="M488.34 301.00c0.6 5.6 9.6 9 5.6 18.4
	1.6 -6 -1.3 -11.6 -5.6 -12.8
"/>
<path class="fill"
	d="M510.54 329.90l70.50 0.00v-3.20l-70.50 -0.00"/>
<path class="fill"
	d="M510.84 324.90l69.80 0.00v-3.20l-69.80 -0.00"/>
<use x="514.34" y="307.00" xlink:href="#hd"/>
<path d="M510.84 307.00v21.90" class="stroke"/>
<use x="514.34" y="313.00" xlink:href="#hd"/>
<use x="528.34" y="301.00" xlink:href="#hd"/>
<path d="M524.84 301.00v27.90" class="stroke"/>
<use x="542.24" y="307.00" xlink:href="#hd"/>
<path d="M538.74 307.00v21.90" class="stroke"/>
<use x="542.24" y="313.00" xlink:href="#hd"/>
<use x="556.24" y="301.00" xlink:href="#hd"/>
<path d="M552.74 301.00v27.90" class="stroke"/>
<use x="570.24" y="307.00" xlink:href="#hd"/>
<path d="M566.74 307.00v21.90" class="stroke"/>
<use x="570.24" y="313.00" xlink:href="#hd"/>
<use x="584.14" y="301.00" xlink:href="#hd"/>
<path d="M580.64 301.00v27.90" class="stroke"/>
<path class="fill"
	d="M605.34 329.90l70.50 0.00v-3.20l-70.50 -0.00"/>
<path class="fill"
	d="M605.64 324.90l69.80 0.00v-3.20l-69.80 -0.00"/>
<use x="609.14" y="307.00" xlink:href="#hd"/>
<path d="M605.64 307.00v21.90" class="stroke"/>
<use x="609.14" y="313.00" xlink:href="#hd"/>
<use x="623.14" y="301.00" xlink:href="#hd"/>
<path d="M619.64 301.00v27.90" class="stroke"/>
<use x="637.04" y="307.00" xlink:href="#hd"/>
<path d="M633.54 307.00v21.90" class="stroke"/>
<use x="637.04" y="313.00" xlink:href="#hd"/>
<use x="651.04" y="301.00" xlink:href="#hd"/>
<path d="M647.54 301.00v27.90" class="stroke"/>
<use x="664.94" y="307.00" xlink:href="#hd"/>
<path d="M661.44 307.00v21.90" class="stroke"/>
<use x="664.94" y="313.00" xlink:href="#hd"/>
<use x="678.94" y="301.00" xlink:href="#hd"/>
<path d="M675.44 301.00v27.90" class="stroke"/>
<use x="703.94" y="298.00" xlink:href="#hd"/>
<path d="M700.44 298.00v25.00" class="stroke"/>
<use x="703.94" y="304.00" xlink:href="#hd"/>
<use x="759.74" y="292.00" xlink:href="#hl"/>
<use x="759.74" y="289.00" xlink:href="#hd"/>
<path d="M756.24 289.00v31.00" class="stroke"/>
<path class="fill"
	d="M756.24 320.00c0.6 -5.6 9.6 -9 5.6 -18.4
	1.6 6 -1.3 11.6 -5.6 12.8
"/>
<use x="759.74" y="301.00" xlink:href="#hd"/>
<use x="798.74" y="313.00" xlink:href="#hd"/>
<path d="M802.24 313.00v-21.00" class="stroke"/>
<use x="837.04" y="328.00" xlink:href="#hl"/>
<use x="837.04" y="334.00" xlink:href="#hl"/>
<use x="837.04" y="334.00" xlink:href="#hd"/>
<path d="M840.54 334.00v-24.00" class="stroke"/>
<path class="fill"
	d="M840.54 310.00c0.6 5.6 9.6 9 5.6 18.4
	1.6 -6 -1.3 -11.6 -5.6 -12.8
"/>
</g>
</svg>
