<?xml version="1.0" standalone="no"?>
<!DOCTYPE svg PUBLIC "-//W3C//DTD SVG 1.1//EN"
	"http://www.w3.org/Graphics/SVG/1.1/DTD/svg11.dtd">
<svg xmlns="http://www.w3.org/2000/svg" version="1.1"
	xmlns:xlink="http://www.w3.org/1999/xlink"
	color="black"
	width="757.10px" height="294.68px">
<style type="text/css">
.fill {fill: currentColor}
.stroke {stroke: currentColor; fill: none}
text{white-space: pre}
</style>
<title>./K516f-4-9-11-6-2-7-12-3-2-12-2-6-7-2-9-12.abc (2431) tune 1</title>
<!-- Creator: abcm2ps-8.13.8 -->
<!-- CreationDate: Sep  7, 2017 11:18 -->
<!-- CommandLine: ./K516f-4-9-11-6-2-7-12-3-2-12-2-6-7-2-9-12.abc -O ./K516f-4-9-11-6-2-7-12-3-2-12-2-6-7-2-9-12.svg -g -->
<rect width="100%" height="100%" fill="white"/>
<g stroke-width="0.70" transform="scale(0.867)">
<!-- title: 4-9-11-6-2-7-12-3-2-12-2-6-7-2-9-12 -->
</g>
<g stroke-width="0.70" transform="scale(0.867)" font-family="Times" font-size="20.00">
<text x="436.84" y="22.00" text-anchor="middle">4-9-11-6-2-7-12-3-2-12-2-6-7-2-9-12</text>
</g>
<g stroke-width="0.70" transform="scale(0.867)" font-family="Times" font-size="20.00">
<!-- subtitle: $1K.516f::69:84:165:45:105:68:106:81:70:20:26:125:101:49:72:131::$0 -->
</g>
<g stroke-width="0.70" transform="scale(0.867)" font-family="Courier" font-size="8.00" font-weight="bold">
<text x="436.84" y="41.80" text-anchor="middle">K.516f::69:84:165:45:105:68:106:81:70:20:26:125:101:49:72:131::</text>
</g>
<g stroke-width="0.70" transform="scale(0.867)" font-family="Courier" font-size="8.00" font-weight="bold">
<!-- subtitle: $1Perm. No.: 243191455175144$0 -->
<text x="436.84" y="60.80" text-anchor="middle">Perm. No.: 243191455175144</text>
</g>
<g stroke-width="0.70" transform="scale(0.607)" font-family="Courier" font-size="8.00" font-weight="bold">
<defs>
<ellipse id="hd" rx="4.1" ry="2.9"
	transform="rotate(-20)" class="fill"/>
</defs>
<use x="103.06" y="121.29" xlink:href="#hd"/>
<path d="M106.56 121.29v-21.00" class="stroke"/>
<path class="fill"
	d="M106.56 100.29c0.6 5.6 9.6 9 5.6 18.4
	1.6 -6 -1.3 -11.6 -5.6 -12.8
"/>
</g>
<g stroke-width="0.70" transform="scale(0.867)" font-family="Times" font-size="15.00" font-weight="bold">
<text x="81.24" y="87.00">= 111</text>
<path class="stroke" stroke-width="1"
	d="M11.54 184.00v-82.00"/>
<path class="fill"
	d="M6.54 99.00
	c10.5 1 12 -4.5 12 -3.5c0 1 -3.5 5.5 -8.5 5.5
	v84.00
	c5 0 8.5 4.5 8.5 5.5c0 1 -1.5 -4.5 -12 -3.5"/>
<defs>
<g id="rdots" class="fill">
	<circle cx="0" cy="-9" r="1.2"/>
	<circle cx="0" cy="-15" r="1.2"/>
</g>
</defs>
<use x="70.54" y="126.00" xlink:href="#rdots"/>
<path class="stroke" stroke-width="1"
	d="M66.54 126.00v-24.00"/>
<path class="stroke" stroke-width="3"
	d="M62.04 126.00v-24.00"/>
<use x="70.54" y="184.00" xlink:href="#rdots"/>
<path class="stroke" stroke-width="1"
	d="M66.54 184.00v-58.00"/>
<path class="stroke" stroke-width="3"
	d="M62.04 184.00v-58.00"/>
<path class="stroke" stroke-width="1"
	d="M150.84 126.00v-24.00"/>
<path class="stroke" stroke-width="1"
	d="M150.84 184.00v-58.00"/>
<path class="stroke" stroke-width="1"
	d="M261.44 126.00v-24.00"/>
<path class="stroke" stroke-width="1"
	d="M261.44 184.00v-58.00"/>
<path class="stroke" stroke-width="1"
	d="M340.74 126.00v-24.00"/>
<path class="stroke" stroke-width="1"
	d="M340.74 184.00v-58.00"/>
<path class="stroke" stroke-width="1"
	d="M451.24 126.00v-24.00"/>
<path class="stroke" stroke-width="1"
	d="M451.24 184.00v-58.00"/>
<path class="stroke" stroke-width="1"
	d="M557.04 126.00v-24.00"/>
<path class="stroke" stroke-width="1"
	d="M557.04 184.00v-58.00"/>
<path class="stroke" stroke-width="1"
	d="M657.74 126.00v-24.00"/>
<path class="stroke" stroke-width="1"
	d="M657.74 184.00v-58.00"/>
<path class="stroke" stroke-width="1"
	d="M758.34 126.00v-24.00"/>
<path class="stroke" stroke-width="1"
	d="M758.34 184.00v-58.00"/>
<path class="stroke" stroke-width="3"
	d="M860.54 126.00v-24.00"/>
<path class="stroke" stroke-width="1"
	d="M856.04 126.00v-24.00"/>
<use x="852.04" y="126.00" xlink:href="#rdots"/>
<path class="stroke" stroke-width="3"
	d="M860.54 184.00v-58.00"/>
<path class="stroke" stroke-width="1"
	d="M856.04 184.00v-58.00"/>
<use x="852.04" y="184.00" xlink:href="#rdots"/>
<path d="m11.54 126.00
	h850.50
	M11.54 120.00
	h850.50
	M11.54 114.00
	h850.50
	M11.54 108.00
	h850.50
	M11.54 102.00
	h850.50
	" class="stroke"/>
<path d="m11.54 184.00
	h850.50
	M11.54 178.00
	h850.50
	M11.54 172.00
	h850.50
	M11.54 166.00
	h850.50
	M11.54 160.00
	h850.50
	" class="stroke"/>
<path class="fill"
	d="M88.84 95.40c6.78 -3.00 36.67 2.23 43.44 7.60
	v-0.24c-8.08 -7.13 -35.37 -12.36 -43.44 -7.36"/>
<path class="fill"
	d="M278.74 104.40c6.78 -3.00 36.67 2.23 43.44 7.60
	v-0.24c-8.08 -7.13 -35.37 -12.36 -43.44 -7.36"/>
</g>
<g stroke-width="0.70" transform="scale(0.867)" font-family="Times" font-size="13.00">
<text x="762.34" y="87.40">1</text>
<path class="stroke"
	d="M758.34 76.00m0 20v-20h95.70v20"/>
<defs>
<path id="utclef" class="fill" d="m-50 -90
	c-72 -41 -72 -158 52 -188
	150 -10 220 188 90 256
	-114 52 -275 0 -293 -136
	-15 -181 93 -229 220 -334
	88 -87 79 -133 62 -210
	-51 33 -94 105 -89 186
	17 267 36 374 49 574
	6 96 -19 134 -77 135
	-80 1 -126 -93 -61 -133
	85 -41 133 101 31 105
	23 17 92 37 90 -92
	-10 -223 -39 -342 -50 -617
	0 -90 0 -162 96 -232
	56 72 63 230 22 289
	-74 106 -257 168 -255 316
	9 153 148 185 252 133
	86 -65 29 -192 -80 -176
	-71 12 -105 67 -59 124"/>
<use id="tclef" transform="translate(0,6) scale(0.045)"
	xlink:href="#utclef"/>
</defs>
<use x="23.54" y="120.00" xlink:href="#tclef"/>
<g font-family="serif" font-size="16" font-weight="bold" font-style="normal"
	transform="translate(42.04,125.50) scale(1.2,1)">
	<text text-anchor="middle">8</text>
	<text y="-12" text-anchor="middle">3</text>
</g>
<path class="fill"
	d="M81.04 122.20l48.10 8.10v-3.20l-48.10 -8.10"/>
<use x="84.84" y="99.00" xlink:href="#hd"/>
<path d="M81.34 99.00v22.20" class="stroke"/>
<use x="108.54" y="105.00" xlink:href="#hd"/>
<path d="M105.04 105.00v20.20" class="stroke"/>
<use x="132.34" y="111.00" xlink:href="#hd"/>
<path d="M128.84 111.00v18.20" class="stroke"/>
<path class="fill"
	d="M160.34 143.50l84.70 -6.40v-3.20l-84.70 6.40"/>
<path class="fill"
	d="M160.64 138.50l84.10 -6.30v-3.20l-84.10 6.30"/>
<use x="164.14" y="111.00" xlink:href="#hd"/>
<path d="M160.64 111.00v31.50" class="stroke"/>
<use x="180.94" y="120.00" xlink:href="#hd"/>
<path d="M177.44 120.00v21.20" class="stroke"/>
<use x="197.74" y="105.00" xlink:href="#hd"/>
<path d="M194.24 105.00v34.90" class="stroke"/>
<use x="214.64" y="111.00" xlink:href="#hd"/>
<path d="M211.14 111.00v27.70" class="stroke"/>
<use x="231.44" y="99.00" xlink:href="#hd"/>
<path d="M227.94 99.00v38.40" class="stroke"/>
<use x="248.24" y="105.00" xlink:href="#hd"/>
<path d="M244.74 105.00v31.10" class="stroke"/>
<path class="fill"
	d="M270.84 131.20l48.10 8.10v-3.20l-48.10 -8.10"/>
<use x="274.74" y="108.00" xlink:href="#hd"/>
<path d="M271.24 108.00v22.20" class="stroke"/>
<use x="298.44" y="114.00" xlink:href="#hd"/>
<path d="M294.94 114.00v20.20" class="stroke"/>
<use x="322.14" y="120.00" xlink:href="#hd"/>
<path d="M318.64 120.00v18.20" class="stroke"/>
<path class="fill"
	d="M357.14 84.80l84.70 9.90v3.20l-84.70 -9.90"/>
<path class="fill"
	d="M357.54 89.90l84.10 9.80v3.20l-84.10 -9.80"/>
<use x="354.04" y="111.00" xlink:href="#hd"/>
<path d="M357.54 111.00v-25.10" class="stroke"/>
<use x="370.84" y="114.00" xlink:href="#hd"/>
<path d="M374.34 114.00v-26.20" class="stroke"/>
<use x="387.64" y="111.00" xlink:href="#hd"/>
<path d="M391.14 111.00v-21.20" class="stroke"/>
<use x="404.44" y="120.00" xlink:href="#hd"/>
<path d="M407.94 120.00v-28.20" class="stroke"/>
<use x="421.24" y="126.00" xlink:href="#hd"/>
<path d="M424.74 126.00v-32.30" class="stroke"/>
<defs>
<path id="hl" class="stroke" d="m-6 0h12"/>
</defs>
<use x="438.04" y="132.00" xlink:href="#hl"/>
<use x="438.04" y="132.00" xlink:href="#hd"/>
<path d="M441.54 132.00v-36.30" class="stroke"/>
<path class="fill"
	d="M465.94 128.00l74.80 0.00v-3.20l-74.80 -0.00"/>
<path class="fill"
	d="M489.94 123.00l50.40 0.00v-3.20l-50.40 -0.00"/>
<use x="469.74" y="102.00" xlink:href="#hd"/>
<defs>
<path id="usharp" class="fill" d="
	m136 -702
	v890
	h32
	v-890
	m128 840
	h32
	v-888
	h-32
	m-232 286
	v116
	l338 -96
	v-116
	m-338 442
	v116
	l338 -98
	v-114"/>
<use id="sh0" transform="translate(-4,5) scale(0.018)"
	xlink:href="#usharp"/>
</defs>
<use x="460.74" y="102.00" xlink:href="#sh0"/>
<path d="M466.24 102.00v25.00" class="stroke"/>
<use x="493.44" y="96.00" xlink:href="#hl"/>
<use x="493.44" y="96.00" xlink:href="#hd"/>
<path d="M489.94 96.00v31.00" class="stroke"/>
<use x="510.24" y="102.00" xlink:href="#hd"/>
<path d="M506.74 102.00v25.00" class="stroke"/>
<use x="527.14" y="108.00" xlink:href="#hd"/>
<path d="M523.64 108.00v19.00" class="stroke"/>
<use x="543.94" y="102.00" xlink:href="#hd"/>
<path d="M540.44 102.00v25.00" class="stroke"/>
<path class="fill"
	d="M566.54 128.00l74.80 0.00v-3.20l-74.80 -0.00"/>
<path class="fill"
	d="M590.64 123.00l50.40 0.00v-3.20l-50.40 -0.00"/>
<use x="570.44" y="99.00" xlink:href="#hd"/>
<path d="M566.94 99.00v28.00" class="stroke"/>
<use x="594.14" y="96.00" xlink:href="#hl"/>
<use x="594.14" y="93.00" xlink:href="#hd"/>
<path d="M590.64 93.00v34.00" class="stroke"/>
<use x="610.94" y="99.00" xlink:href="#hd"/>
<path d="M607.44 99.00v28.00" class="stroke"/>
<use x="627.74" y="108.00" xlink:href="#hd"/>
<path d="M624.24 108.00v19.00" class="stroke"/>
<use x="644.54" y="99.00" xlink:href="#hd"/>
<path d="M641.04 99.00v28.00" class="stroke"/>
<path class="fill"
	d="M667.24 139.20l74.80 0.00v-3.20l-74.80 -0.00"/>
<path class="fill"
	d="M691.24 134.20l50.40 0.00v-3.20l-50.40 -0.00"/>
<use x="671.04" y="117.00" xlink:href="#hd"/>
<path d="M667.54 117.00v21.20" class="stroke"/>
<use x="694.74" y="108.00" xlink:href="#hd"/>
<path d="M691.24 108.00v30.20" class="stroke"/>
<use x="711.54" y="111.00" xlink:href="#hd"/>
<path d="M708.04 111.00v27.20" class="stroke"/>
<use x="728.34" y="114.00" xlink:href="#hd"/>
<path d="M724.84 114.00v24.20" class="stroke"/>
<use x="745.24" y="117.00" xlink:href="#hd"/>
<path d="M741.74 117.00v21.20" class="stroke"/>
<use x="771.64" y="99.00" xlink:href="#hd"/>
<path d="M768.14 99.00v40.00" class="stroke"/>
<use x="771.64" y="120.00" xlink:href="#hd"/>
<use x="771.64" y="114.00" xlink:href="#hd"/>
<use x="771.64" y="108.00" xlink:href="#hd"/>
<defs>
<path id="r8e" class="fill" d="m 0 0
	c-1.5 1.5 -2.4 2 -3.6 2
	2.4 -2.8 -2.8 -4 -2.8 -1.2
	c0 2.7 4.3 2.4 5.9 0.6"/>
<g id="r8">
	<path d="m3.3 -4l-3.4 9.6" class="stroke"/>
	<use x="3.4" y="-4" xlink:href="#r8e"/>
</g>
</defs>
<use x="830.24" y="114.00" xlink:href="#r8"/>
<defs>
<path id="ubclef" class="fill" d="m-200 -87
	c124 -35 222 -78 254 -236
	43 -228 -167 -246 -192 -103
	59 -80 157 22 92 78
	-62 47 -115 -22 -106 -88
	21 -141 270 -136 274 52
	-1 175 -106 264 -322 297
	m357 -250
	c0 -36 51 -34 51 0
	0 37 -51 36 -51 0
	m-2 -129
	c0 -36 51 -34 51 0
	0 38 -51 37 -51 0"/>
<use id="bclef" transform="translate(0,18) scale(0.045)"
	xlink:href="#ubclef"/>
</defs>
<use x="23.54" y="166.00" xlink:href="#bclef"/>
<g font-family="serif" font-size="16" font-weight="bold" font-style="normal"
	transform="translate(42.04,183.50) scale(1.2,1)">
	<text text-anchor="middle">8</text>
	<text y="-12" text-anchor="middle">3</text>
</g>
<use x="84.84" y="169.00" xlink:href="#hd"/>
<path d="M81.34 169.00v25.00" class="stroke"/>
<use x="84.84" y="175.00" xlink:href="#hd"/>
<use x="132.34" y="172.00" xlink:href="#r8"/>
<use x="164.14" y="169.00" xlink:href="#hd"/>
<path d="M160.64 169.00v25.00" class="stroke"/>
<use x="164.14" y="175.00" xlink:href="#hd"/>
<use x="231.44" y="172.00" xlink:href="#r8"/>
<use x="274.74" y="178.00" xlink:href="#hd"/>
<path d="M278.24 178.00v-21.00" class="stroke"/>
<use x="322.14" y="172.00" xlink:href="#r8"/>
<use x="354.04" y="163.00" xlink:href="#hd"/>
<path d="M350.54 163.00v25.00" class="stroke"/>
<use x="354.04" y="169.00" xlink:href="#hd"/>
<use x="421.24" y="172.00" xlink:href="#r8"/>
<use x="469.74" y="175.00" xlink:href="#hd"/>
<path d="M473.24 175.00v-21.00" class="stroke"/>
<use x="527.14" y="172.00" xlink:href="#r8"/>
<use x="570.44" y="178.00" xlink:href="#hd"/>
<path d="M573.94 178.00v-21.00" class="stroke"/>
<use x="627.74" y="172.00" xlink:href="#r8"/>
<path class="fill"
	d="M674.24 149.40l58.00 8.30v3.20l-58.00 -8.30"/>
<use x="671.04" y="175.00" xlink:href="#hd"/>
<path d="M674.54 175.00v-24.60" class="stroke"/>
<use x="694.74" y="172.00" xlink:href="#hd"/>
<path d="M698.24 172.00v-18.20" class="stroke"/>
<use x="728.34" y="190.00" xlink:href="#hl"/>
<use x="728.34" y="193.00" xlink:href="#hd"/>
<path d="M731.84 193.00v-34.40" class="stroke"/>
<path class="fill"
	d="M767.84 203.20l76.00 0.00v-3.20l-76.00 -0.00"/>
<path class="fill"
	d="M791.94 198.20l51.60 0.00v-3.20l-51.60 -0.00"/>
<use x="771.64" y="184.00" xlink:href="#hd"/>
<path d="M768.14 184.00v18.20" class="stroke"/>
<use x="795.44" y="163.00" xlink:href="#hd"/>
<path d="M791.94 163.00v39.20" class="stroke"/>
<use x="813.44" y="166.00" xlink:href="#hd"/>
<defs>
<path id="unat" class="fill" d="
	m96 -750
	h-32
	v716
	l32 -8
	182 -54
	v282
	h32
	v-706
	l-34 10
	-180 50
	v-290
	m0 592
	v-190
	l182 -52
	v188"/>
<use id="nt0" transform="translate(-3,5) scale(0.018)"
	xlink:href="#unat"/>
</defs>
<use x="804.44" y="166.00" xlink:href="#nt0"/>
<path d="M809.94 166.00v36.20" class="stroke"/>
<use x="830.24" y="169.00" xlink:href="#hd"/>
<path d="M826.74 169.00v33.20" class="stroke"/>
<use x="847.04" y="172.00" xlink:href="#hd"/>
<path d="M843.54 172.00v30.20" class="stroke"/>
</g>
<g stroke-width="0.70" transform="scale(0.867)" font-family="Times" font-size="13.00">
<path class="stroke" stroke-width="1"
	d="M11.54 317.02v-82.00"/>
<path class="fill"
	d="M6.54 232.02
	c10.5 1 12 -4.5 12 -3.5c0 1 -3.5 5.5 -8.5 5.5
	v84.00
	c5 0 8.5 4.5 8.5 5.5c0 1 -1.5 -4.5 -12 -3.5"/>
<use x="142.34" y="259.02" xlink:href="#rdots"/>
<path class="stroke" stroke-width="1"
	d="M138.34 259.02v-24.00"/>
<path class="stroke" stroke-width="3"
	d="M133.84 259.02v-24.00"/>
<use x="142.34" y="317.02" xlink:href="#rdots"/>
<path class="stroke" stroke-width="1"
	d="M138.34 317.02v-58.00"/>
<path class="stroke" stroke-width="3"
	d="M133.84 317.02v-58.00"/>
<path class="stroke" stroke-width="1"
	d="M237.44 259.02v-24.00"/>
<path class="stroke" stroke-width="1"
	d="M237.44 317.02v-58.00"/>
<path class="stroke" stroke-width="1"
	d="M315.04 259.02v-24.00"/>
<path class="stroke" stroke-width="1"
	d="M315.04 317.02v-58.00"/>
<path class="stroke" stroke-width="1"
	d="M411.94 259.02v-24.00"/>
<path class="stroke" stroke-width="1"
	d="M411.94 317.02v-58.00"/>
<path class="stroke" stroke-width="1"
	d="M498.14 259.02v-24.00"/>
<path class="stroke" stroke-width="1"
	d="M498.14 317.02v-58.00"/>
<path class="stroke" stroke-width="1"
	d="M595.14 259.02v-24.00"/>
<path class="stroke" stroke-width="1"
	d="M595.14 317.02v-58.00"/>
<path class="stroke" stroke-width="1"
	d="M692.14 259.02v-24.00"/>
<path class="stroke" stroke-width="1"
	d="M692.14 317.02v-58.00"/>
<path class="stroke" stroke-width="1"
	d="M789.04 259.02v-24.00"/>
<path class="stroke" stroke-width="1"
	d="M789.04 317.02v-58.00"/>
<path class="stroke" stroke-width="3"
	d="M860.54 259.02v-24.00"/>
<path class="stroke" stroke-width="1"
	d="M856.04 259.02v-24.00"/>
<use x="852.04" y="259.02" xlink:href="#rdots"/>
<path class="stroke" stroke-width="3"
	d="M860.54 317.02v-58.00"/>
<path class="stroke" stroke-width="1"
	d="M856.04 317.02v-58.00"/>
<use x="852.04" y="317.02" xlink:href="#rdots"/>
<path d="m11.54 259.02
	h850.50
	M11.54 253.02
	h850.50
	M11.54 247.02
	h850.50
	M11.54 241.02
	h850.50
	M11.54 235.02
	h850.50
	" class="stroke"/>
<path d="m11.54 317.02
	h850.50
	M11.54 311.02
	h850.50
	M11.54 305.02
	h850.50
	M11.54 299.02
	h850.50
	M11.54 293.02
	h850.50
	" class="stroke"/>
<path class="fill"
	d="M611.64 234.42c8.11 -3.17 45.46 2.13 53.58 7.60
	v-0.25c-9.72 -7.22 -43.86 -12.52 -53.58 -7.35"/>
<text x="47.54" y="220.42">2</text>
<path class="stroke"
	d="M43.54 209.02m0 20v-20h87.80v20"/>
<use x="23.54" y="253.02" xlink:href="#tclef"/>
<use x="56.04" y="232.02" xlink:href="#hd"/>
<path d="M52.54 232.02v40.00" class="stroke"/>
<use x="56.04" y="253.02" xlink:href="#hd"/>
<use x="56.04" y="247.02" xlink:href="#hd"/>
<use x="56.04" y="241.02" xlink:href="#hd"/>
<use x="108.44" y="247.02" xlink:href="#r8"/>
<path class="fill"
	d="M157.94 261.02l63.80 0.00v-3.20l-63.80 -0.00"/>
<path class="fill"
	d="M178.34 256.02l43.20 0.00v-3.20l-43.20 -0.00"/>
<use x="161.84" y="235.02" xlink:href="#hd"/>
<use x="152.84" y="235.02" xlink:href="#sh0"/>
<path d="M158.34 235.02v25.00" class="stroke"/>
<use x="181.84" y="229.02" xlink:href="#hl"/>
<use x="181.84" y="229.02" xlink:href="#hd"/>
<path d="M178.34 229.02v31.00" class="stroke"/>
<use x="196.14" y="235.02" xlink:href="#hd"/>
<path d="M192.64 235.02v25.00" class="stroke"/>
<use x="210.54" y="241.02" xlink:href="#hd"/>
<path d="M207.04 241.02v19.00" class="stroke"/>
<use x="224.94" y="235.02" xlink:href="#hd"/>
<path d="M221.44 235.02v25.00" class="stroke"/>
<path class="fill"
	d="M246.14 261.02l49.60 0.00v-3.20l-49.60 -0.00"/>
<path class="fill"
	d="M266.44 256.02l14.50 0.00v-3.20l-14.50 -0.00"/>
<use x="249.94" y="232.02" xlink:href="#hd"/>
<path d="M246.44 232.02v28.00" class="stroke"/>
<use x="269.94" y="229.02" xlink:href="#hl"/>
<use x="269.94" y="226.02" xlink:href="#hd"/>
<path d="M266.44 226.02v34.00" class="stroke"/>
<use x="284.54" y="229.02" xlink:href="#hl"/>
<use x="284.54" y="223.02" xlink:href="#hl"/>
<use x="284.54" y="220.02" xlink:href="#hd"/>
<path d="M281.04 220.02v40.00" class="stroke"/>
<use x="298.94" y="241.02" xlink:href="#hd"/>
<path d="M295.44 241.02v19.00" class="stroke"/>
<path class="fill"
	d="M323.64 262.02l58.30 0.00v-3.20l-58.30 -0.00"/>
<use x="327.54" y="238.02" xlink:href="#hd"/>
<path d="M324.04 238.02v23.00" class="stroke"/>
<use x="327.54" y="244.02" xlink:href="#hd"/>
<use x="356.34" y="238.02" xlink:href="#hd"/>
<path d="M352.84 238.02v23.00" class="stroke"/>
<use x="356.34" y="244.02" xlink:href="#hd"/>
<use x="385.04" y="238.02" xlink:href="#hd"/>
<path d="M381.54 238.02v23.00" class="stroke"/>
<use x="385.04" y="244.02" xlink:href="#hd"/>
<path class="fill"
	d="M420.64 263.62l58.30 8.70v-3.20l-58.30 -8.70"/>
<path class="fill"
	d="M420.94 258.62l43.20 6.40v-3.20l-43.20 -6.40"/>
<use x="424.44" y="232.02" xlink:href="#hd"/>
<path d="M420.94 232.02v30.60" class="stroke"/>
<use x="438.84" y="238.02" xlink:href="#hd"/>
<path d="M435.34 238.02v26.80" class="stroke"/>
<use x="453.24" y="241.02" xlink:href="#hd"/>
<path d="M449.74 241.02v25.90" class="stroke"/>
<use x="467.64" y="247.02" xlink:href="#hd"/>
<path d="M464.14 247.02v22.10" class="stroke"/>
<use x="482.04" y="253.02" xlink:href="#hd"/>
<path d="M478.54 253.02v18.20" class="stroke"/>
<path class="fill"
	d="M506.84 264.52l72.60 -6.20v-3.20l-72.60 6.20"/>
<path class="fill"
	d="M507.14 259.42l72.00 -6.20v-3.20l-72.00 6.20"/>
<use x="510.64" y="238.02" xlink:href="#hd"/>
<path d="M507.14 238.02v25.40" class="stroke"/>
<use x="525.04" y="241.02" xlink:href="#hd"/>
<path d="M521.54 241.02v21.20" class="stroke"/>
<use x="539.44" y="238.02" xlink:href="#hd"/>
<path d="M535.94 238.02v23.00" class="stroke"/>
<use x="553.84" y="232.02" xlink:href="#hd"/>
<path d="M550.34 232.02v27.70" class="stroke"/>
<use x="568.24" y="229.02" xlink:href="#hl"/>
<use x="568.24" y="223.02" xlink:href="#hl"/>
<use x="568.24" y="223.02" xlink:href="#hd"/>
<path d="M564.74 223.02v35.50" class="stroke"/>
<use x="582.64" y="232.02" xlink:href="#hd"/>
<path d="M579.14 232.02v25.30" class="stroke"/>
<path class="fill"
	d="M603.84 265.32l58.30 6.90v-3.20l-58.30 -6.90"/>
<use x="607.64" y="238.02" xlink:href="#hd"/>
<path d="M604.14 238.02v26.30" class="stroke"/>
<use x="636.44" y="244.02" xlink:href="#hd"/>
<path d="M632.94 244.02v23.80" class="stroke"/>
<use x="665.24" y="253.02" xlink:href="#hd"/>
<path d="M661.74 253.02v18.20" class="stroke"/>
<path class="fill"
	d="M700.74 267.02l72.60 0.00v-3.20l-72.60 -0.00"/>
<path class="fill"
	d="M701.14 262.02l72.00 0.00v-3.20l-72.00 -0.00"/>
<use x="704.64" y="235.02" xlink:href="#hd"/>
<path d="M701.14 235.02v30.90" class="stroke"/>
<use x="719.04" y="238.02" xlink:href="#hd"/>
<path d="M715.54 238.02v27.90" class="stroke"/>
<use x="733.44" y="241.02" xlink:href="#hd"/>
<path d="M729.94 241.02v24.90" class="stroke"/>
<use x="747.74" y="244.02" xlink:href="#hd"/>
<path d="M744.24 244.02v21.90" class="stroke"/>
<use x="762.14" y="247.02" xlink:href="#hd"/>
<path d="M758.64 247.02v18.90" class="stroke"/>
<use x="776.54" y="241.02" xlink:href="#hd"/>
<path d="M773.04 241.02v24.90" class="stroke"/>
<use x="801.54" y="244.02" xlink:href="#hd"/>
<path d="M798.04 244.02v21.00" class="stroke"/>
<use x="841.54" y="247.02" xlink:href="#r8"/>
<use x="23.54" y="299.02" xlink:href="#bclef"/>
<path class="fill"
	d="M52.24 336.22l67.50 -4.90v-3.20l-67.50 4.90"/>
<path class="fill"
	d="M72.54 329.72l46.80 -3.40v-3.20l-46.80 3.40"/>
<use x="56.04" y="317.02" xlink:href="#hd"/>
<path d="M52.54 317.02v18.20" class="stroke"/>
<use x="76.04" y="290.02" xlink:href="#hd"/>
<path d="M72.54 290.02v43.70" class="stroke"/>
<use x="90.44" y="296.02" xlink:href="#hd"/>
<path d="M86.94 296.02v36.70" class="stroke"/>
<use x="108.44" y="299.02" xlink:href="#hd"/>
<use x="99.44" y="299.02" xlink:href="#sh0"/>
<path d="M104.94 299.02v32.40" class="stroke"/>
<use x="122.84" y="302.02" xlink:href="#hd"/>
<path d="M119.34 302.02v28.30" class="stroke"/>
<use x="161.84" y="305.02" xlink:href="#hd"/>
<path d="M165.34 305.02v-21.00" class="stroke"/>
<use x="210.54" y="308.02" xlink:href="#hd"/>
<path d="M214.04 308.02v-21.00" class="stroke"/>
<path class="fill"
	d="M214.04 287.02c0.6 5.6 9.6 9 5.6 18.4
	1.6 -6 -1.3 -11.6 -5.6 -12.8
"/>
<use x="249.94" y="311.02" xlink:href="#hd"/>
<path d="M253.44 311.02v-21.00" class="stroke"/>
<use x="298.94" y="305.02" xlink:href="#r8"/>
<path class="fill"
	d="M323.64 330.22l72.60 0.00v-3.20l-72.60 -0.00"/>
<path class="fill"
	d="M324.04 325.22l72.00 0.00v-3.20l-72.00 -0.00"/>
<use x="327.54" y="308.02" xlink:href="#hd"/>
<path d="M324.04 308.02v21.20" class="stroke"/>
<use x="341.94" y="302.02" xlink:href="#hd"/>
<path d="M338.44 302.02v27.20" class="stroke"/>
<use x="356.34" y="296.02" xlink:href="#hd"/>
<path d="M352.84 296.02v33.20" class="stroke"/>
<use x="370.74" y="302.02" xlink:href="#hd"/>
<path d="M367.24 302.02v27.20" class="stroke"/>
<use x="385.04" y="287.02" xlink:href="#hl"/>
<use x="385.04" y="287.02" xlink:href="#hd"/>
<path d="M381.54 287.02v42.20" class="stroke"/>
<use x="399.44" y="308.02" xlink:href="#hd"/>
<path d="M395.94 308.02v21.20" class="stroke"/>
<path class="fill"
	d="M427.64 276.72l29.50 8.70v3.20l-29.50 -8.70"/>
<use x="424.44" y="296.02" xlink:href="#hd"/>
<path d="M427.94 296.02v-18.20" class="stroke"/>
<use x="453.24" y="317.02" xlink:href="#hd"/>
<path d="M456.74 317.02v-30.70" class="stroke"/>
<use x="482.04" y="305.02" xlink:href="#r8"/>
<use x="510.64" y="296.02" xlink:href="#hd"/>
<path d="M514.14 296.02v-21.00" class="stroke"/>
<use x="568.24" y="302.02" xlink:href="#hd"/>
<path d="M571.74 302.02v-21.00" class="stroke"/>
<path class="fill"
	d="M571.74 281.02c0.6 5.6 9.6 9 5.6 18.4
	1.6 -6 -1.3 -11.6 -5.6 -12.8
"/>
<path class="fill"
	d="M603.84 324.92l72.60 0.00v-3.20l-72.60 -0.00"/>
<path class="fill"
	d="M604.14 319.92l72.00 0.00v-3.20l-72.00 -0.00"/>
<use x="607.64" y="302.02" xlink:href="#hd"/>
<path d="M604.14 302.02v21.90" class="stroke"/>
<use x="607.64" y="308.02" xlink:href="#hd"/>
<use x="622.04" y="296.02" xlink:href="#hd"/>
<path d="M618.54 296.02v27.90" class="stroke"/>
<use x="636.44" y="302.02" xlink:href="#hd"/>
<path d="M632.94 302.02v21.90" class="stroke"/>
<use x="636.44" y="308.02" xlink:href="#hd"/>
<use x="650.84" y="296.02" xlink:href="#hd"/>
<path d="M647.34 296.02v27.90" class="stroke"/>
<use x="665.24" y="302.02" xlink:href="#hd"/>
<path d="M661.74 302.02v21.90" class="stroke"/>
<use x="665.24" y="308.02" xlink:href="#hd"/>
<use x="679.64" y="296.02" xlink:href="#hd"/>
<path d="M676.14 296.02v27.90" class="stroke"/>
<use x="704.64" y="299.02" xlink:href="#hd"/>
<path d="M701.14 299.02v21.00" class="stroke"/>
<use x="762.14" y="296.02" xlink:href="#hd"/>
<path d="M758.64 296.02v21.00" class="stroke"/>
<path class="fill"
	d="M758.64 317.02c0.6 -5.6 9.6 -9 5.6 -18.4
	1.6 6 -1.3 11.6 -5.6 12.8
"/>
<path class="fill"
	d="M804.74 288.72l40.60 9.60v3.20l-40.60 -9.60"/>
<use x="801.54" y="308.02" xlink:href="#hd"/>
<path d="M805.04 308.02v-18.20" class="stroke"/>
<use x="821.54" y="317.02" xlink:href="#hd"/>
<path d="M825.04 317.02v-22.50" class="stroke"/>
<use x="841.54" y="323.02" xlink:href="#hl"/>
<use x="841.54" y="329.02" xlink:href="#hl"/>
<use x="841.54" y="329.02" xlink:href="#hd"/>
<path d="M845.04 329.02v-29.70" class="stroke"/>
<use x="510.64" y="308.02" xlink:href="#hd"/>
<path d="M507.14 308.02v21.00" class="stroke"/>
<use x="568.24" y="308.02" xlink:href="#hd"/>
<path d="M564.74 308.02v21.00" class="stroke"/>
<path class="fill"
	d="M564.74 329.02c0.6 -5.6 9.6 -9 5.6 -18.4
	1.6 6 -1.3 11.6 -5.6 12.8
"/>
</g>
</svg>
