<?xml version="1.0" standalone="no"?>
<!DOCTYPE svg PUBLIC "-//W3C//DTD SVG 1.1//EN"
	"http://www.w3.org/Graphics/SVG/1.1/DTD/svg11.dtd">
<svg xmlns="http://www.w3.org/2000/svg" version="1.1"
	xmlns:xlink="http://www.w3.org/1999/xlink"
	color="black"
	width="757.10px" height="293.80px">
<style type="text/css">
.fill {fill: currentColor}
.stroke {stroke: currentColor; fill: none}
text{white-space: pre}
</style>
<title>./K516f-9-7-9-3-8-7-7-5-9-2-8-7-9-4-2-9.abc (8418) tune 1</title>
<!-- Creator: abcm2ps-8.13.8 -->
<!-- CreationDate: Sep  7, 2017 11:17 -->
<!-- CommandLine: ./K516f-9-7-9-3-8-7-7-5-9-2-8-7-9-4-2-9.abc -O ./K516f-9-7-9-3-8-7-7-5-9-2-8-7-9-4-2-9.svg -g -->
<rect width="100%" height="100%" fill="white"/>
<g stroke-width="0.70" transform="scale(0.867)">
<!-- title: 9-7-9-3-8-7-7-5-9-2-8-7-9-4-2-9 -->
</g>
<g stroke-width="0.70" transform="scale(0.867)" font-family="Times" font-size="20.00">
<text x="436.84" y="22.00" text-anchor="middle">9-7-9-3-8-7-7-5-9-2-8-7-9-4-2-9</text>
</g>
<g stroke-width="0.70" transform="scale(0.867)" font-family="Times" font-size="20.00">
<!-- subtitle: $1K.516f::119:157:114:63:99:68:118:100:120:121:57:29:51:58:109:111::$0 -->
</g>
<g stroke-width="0.70" transform="scale(0.867)" font-family="Courier" font-size="8.00" font-weight="bold">
<text x="436.84" y="41.80" text-anchor="middle">K.516f::119:157:114:63:99:68:118:100:120:121:57:29:51:58:109:111::</text>
</g>
<g stroke-width="0.70" transform="scale(0.867)" font-family="Courier" font-size="8.00" font-weight="bold">
<!-- subtitle: $1Perm. No.: 8418019420214$0 -->
<text x="436.84" y="60.80" text-anchor="middle">Perm. No.: 8418019420214</text>
</g>
<g stroke-width="0.70" transform="scale(0.607)" font-family="Courier" font-size="8.00" font-weight="bold">
<defs>
<ellipse id="hd" rx="4.1" ry="2.9"
	transform="rotate(-20)" class="fill"/>
</defs>
<use x="103.06" y="121.29" xlink:href="#hd"/>
<path d="M106.56 121.29v-21.00" class="stroke"/>
<path class="fill"
	d="M106.56 100.29c0.6 5.6 9.6 9 5.6 18.4
	1.6 -6 -1.3 -11.6 -5.6 -12.8
"/>
</g>
<g stroke-width="0.70" transform="scale(0.867)" font-family="Times" font-size="15.00" font-weight="bold">
<text x="81.24" y="87.00">= 111</text>
<path class="stroke" stroke-width="1"
	d="M11.54 183.00v-82.00"/>
<path class="fill"
	d="M6.54 98.00
	c10.5 1 12 -4.5 12 -3.5c0 1 -3.5 5.5 -8.5 5.5
	v84.00
	c5 0 8.5 4.5 8.5 5.5c0 1 -1.5 -4.5 -12 -3.5"/>
<defs>
<g id="rdots" class="fill">
	<circle cx="0" cy="-9" r="1.2"/>
	<circle cx="0" cy="-15" r="1.2"/>
</g>
</defs>
<use x="70.54" y="125.00" xlink:href="#rdots"/>
<path class="stroke" stroke-width="1"
	d="M66.54 125.00v-24.00"/>
<path class="stroke" stroke-width="3"
	d="M62.04 125.00v-24.00"/>
<use x="70.54" y="183.00" xlink:href="#rdots"/>
<path class="stroke" stroke-width="1"
	d="M66.54 183.00v-58.00"/>
<path class="stroke" stroke-width="3"
	d="M62.04 183.00v-58.00"/>
<path class="stroke" stroke-width="1"
	d="M180.74 125.00v-24.00"/>
<path class="stroke" stroke-width="1"
	d="M180.74 183.00v-58.00"/>
<path class="stroke" stroke-width="1"
	d="M289.84 125.00v-24.00"/>
<path class="stroke" stroke-width="1"
	d="M289.84 183.00v-58.00"/>
<path class="stroke" stroke-width="1"
	d="M368.14 125.00v-24.00"/>
<path class="stroke" stroke-width="1"
	d="M368.14 183.00v-58.00"/>
<path class="stroke" stroke-width="1"
	d="M465.94 125.00v-24.00"/>
<path class="stroke" stroke-width="1"
	d="M465.94 183.00v-58.00"/>
<path class="stroke" stroke-width="1"
	d="M549.54 125.00v-24.00"/>
<path class="stroke" stroke-width="1"
	d="M549.54 183.00v-58.00"/>
<path class="stroke" stroke-width="1"
	d="M648.94 125.00v-24.00"/>
<path class="stroke" stroke-width="1"
	d="M648.94 183.00v-58.00"/>
<path class="stroke" stroke-width="1"
	d="M759.44 125.00v-24.00"/>
<path class="stroke" stroke-width="1"
	d="M759.44 183.00v-58.00"/>
<path class="stroke" stroke-width="3"
	d="M860.54 125.00v-24.00"/>
<path class="stroke" stroke-width="1"
	d="M856.04 125.00v-24.00"/>
<use x="852.04" y="125.00" xlink:href="#rdots"/>
<path class="stroke" stroke-width="3"
	d="M860.54 183.00v-58.00"/>
<path class="stroke" stroke-width="1"
	d="M856.04 183.00v-58.00"/>
<use x="852.04" y="183.00" xlink:href="#rdots"/>
<path d="m11.54 125.00
	h850.50
	M11.54 119.00
	h850.50
	M11.54 113.00
	h850.50
	M11.54 107.00
	h850.50
	M11.54 101.00
	h850.50
	" class="stroke"/>
<path d="m11.54 183.00
	h850.50
	M11.54 177.00
	h850.50
	M11.54 171.00
	h850.50
	M11.54 165.00
	h850.50
	M11.54 159.00
	h850.50
	" class="stroke"/>
</g>
<g stroke-width="0.70" transform="scale(0.867)" font-family="Times" font-size="13.00">
<text x="763.44" y="86.40">1</text>
<path class="stroke"
	d="M759.44 75.00m0 20v-20h94.60v20"/>
<defs>
<path id="utclef" class="fill" d="m-50 -90
	c-72 -41 -72 -158 52 -188
	150 -10 220 188 90 256
	-114 52 -275 0 -293 -136
	-15 -181 93 -229 220 -334
	88 -87 79 -133 62 -210
	-51 33 -94 105 -89 186
	17 267 36 374 49 574
	6 96 -19 134 -77 135
	-80 1 -126 -93 -61 -133
	85 -41 133 101 31 105
	23 17 92 37 90 -92
	-10 -223 -39 -342 -50 -617
	0 -90 0 -162 96 -232
	56 72 63 230 22 289
	-74 106 -257 168 -255 316
	9 153 148 185 252 133
	86 -65 29 -192 -80 -176
	-71 12 -105 67 -59 124"/>
<use id="tclef" transform="translate(0,6) scale(0.045)"
	xlink:href="#utclef"/>
</defs>
<use x="23.54" y="119.00" xlink:href="#tclef"/>
<g font-family="serif" font-size="16" font-weight="bold" font-style="normal"
	transform="translate(42.04,124.50) scale(1.2,1)">
	<text text-anchor="middle">8</text>
	<text y="-12" text-anchor="middle">3</text>
</g>
<path class="fill"
	d="M80.84 133.50l83.60 -6.20v-3.20l-83.60 6.20"/>
<path class="fill"
	d="M81.24 128.40l82.90 -6.10v-3.20l-82.90 6.10"/>
<use x="84.74" y="104.00" xlink:href="#hd"/>
<path d="M81.24 104.00v28.40" class="stroke"/>
<use x="101.34" y="110.00" xlink:href="#hd"/>
<path d="M97.84 110.00v21.20" class="stroke"/>
<use x="117.94" y="98.00" xlink:href="#hd"/>
<path d="M114.44 98.00v32.00" class="stroke"/>
<use x="134.44" y="104.00" xlink:href="#hd"/>
<path d="M130.94 104.00v24.70" class="stroke"/>
<defs>
<path id="hl" class="stroke" d="m-6 0h12"/>
</defs>
<use x="151.04" y="95.00" xlink:href="#hl"/>
<use x="151.04" y="89.00" xlink:href="#hl"/>
<use x="151.04" y="89.00" xlink:href="#hd"/>
<path d="M147.54 89.00v38.50" class="stroke"/>
<use x="167.64" y="98.00" xlink:href="#hd"/>
<path d="M164.14 98.00v28.30" class="stroke"/>
<path class="fill"
	d="M190.04 130.50l83.60 -6.40v-3.20l-83.60 6.40"/>
<path class="fill"
	d="M190.34 125.50l82.90 -6.30v-3.20l-82.90 6.30"/>
<use x="193.84" y="104.00" xlink:href="#hd"/>
<path d="M190.34 104.00v25.50" class="stroke"/>
<use x="210.44" y="107.00" xlink:href="#hd"/>
<path d="M206.94 107.00v21.20" class="stroke"/>
<use x="227.04" y="104.00" xlink:href="#hd"/>
<path d="M223.54 104.00v22.90" class="stroke"/>
<use x="243.64" y="98.00" xlink:href="#hd"/>
<path d="M240.14 98.00v27.70" class="stroke"/>
<use x="260.24" y="95.00" xlink:href="#hl"/>
<use x="260.24" y="89.00" xlink:href="#hl"/>
<use x="260.24" y="89.00" xlink:href="#hd"/>
<path d="M256.74 89.00v35.40" class="stroke"/>
<use x="276.84" y="98.00" xlink:href="#hd"/>
<path d="M273.34 98.00v25.10" class="stroke"/>
<path class="fill"
	d="M299.24 132.00l47.40 0.00v-3.20l-47.40 -0.00"/>
<use x="303.04" y="107.00" xlink:href="#hd"/>
<path d="M299.54 107.00v24.00" class="stroke"/>
<use x="303.04" y="113.00" xlink:href="#hd"/>
<use x="326.44" y="107.00" xlink:href="#hd"/>
<path d="M322.94 107.00v24.00" class="stroke"/>
<use x="326.44" y="113.00" xlink:href="#hd"/>
<use x="349.84" y="107.00" xlink:href="#hd"/>
<path d="M346.34 107.00v24.00" class="stroke"/>
<use x="349.84" y="113.00" xlink:href="#hd"/>
<path class="fill"
	d="M377.44 132.30l67.00 6.00v-3.20l-67.00 -6.00"/>
<path class="fill"
	d="M377.84 127.30l49.80 4.40v-3.20l-49.80 -4.40"/>
<use x="381.34" y="104.00" xlink:href="#hd"/>
<path d="M377.84 104.00v27.30" class="stroke"/>
<use x="397.84" y="110.00" xlink:href="#hd"/>
<path d="M394.34 110.00v22.80" class="stroke"/>
<use x="414.44" y="113.00" xlink:href="#hd"/>
<path d="M410.94 113.00v21.20" class="stroke"/>
<use x="431.04" y="110.00" xlink:href="#hd"/>
<path d="M427.54 110.00v25.70" class="stroke"/>
<use x="447.64" y="119.00" xlink:href="#hd"/>
<path d="M444.14 119.00v18.20" class="stroke"/>
<path class="fill"
	d="M480.64 123.10l47.40 3.20v-3.20l-47.40 -3.20"/>
<use x="484.44" y="101.00" xlink:href="#hd"/>
<defs>
<path id="usharp" class="fill" d="
	m136 -702
	v890
	h32
	v-890
	m128 840
	h32
	v-888
	h-32
	m-232 286
	v116
	l338 -96
	v-116
	m-338 442
	v116
	l338 -98
	v-114"/>
<use id="sh0" transform="translate(-4,5) scale(0.018)"
	xlink:href="#usharp"/>
</defs>
<use x="475.44" y="101.00" xlink:href="#sh0"/>
<path d="M480.94 101.00v21.10" class="stroke"/>
<use x="507.84" y="95.00" xlink:href="#hl"/>
<use x="507.84" y="95.00" xlink:href="#hd"/>
<path d="M504.34 95.00v28.60" class="stroke"/>
<use x="531.24" y="107.00" xlink:href="#hd"/>
<path d="M527.74 107.00v18.20" class="stroke"/>
<path class="fill"
	d="M558.84 127.00l73.80 0.00v-3.20l-73.80 -0.00"/>
<path class="fill"
	d="M582.64 122.00l49.80 0.00v-3.20l-49.80 -0.00"/>
<use x="562.74" y="98.00" xlink:href="#hd"/>
<path d="M559.24 98.00v28.00" class="stroke"/>
<use x="586.14" y="95.00" xlink:href="#hl"/>
<use x="586.14" y="92.00" xlink:href="#hd"/>
<path d="M582.64 92.00v34.00" class="stroke"/>
<use x="602.64" y="98.00" xlink:href="#hd"/>
<path d="M599.14 98.00v28.00" class="stroke"/>
<use x="619.24" y="107.00" xlink:href="#hd"/>
<path d="M615.74 107.00v19.00" class="stroke"/>
<use x="635.84" y="98.00" xlink:href="#hd"/>
<path d="M632.34 98.00v28.00" class="stroke"/>
<path class="fill"
	d="M658.24 127.00l85.00 0.00v-3.20l-85.00 -0.00"/>
<path class="fill"
	d="M658.54 122.00l84.30 0.00v-3.20l-84.30 -0.00"/>
<use x="662.04" y="104.00" xlink:href="#hd"/>
<path d="M658.54 104.00v22.00" class="stroke"/>
<use x="678.64" y="95.00" xlink:href="#hl"/>
<use x="678.64" y="95.00" xlink:href="#hd"/>
<path d="M675.14 95.00v31.00" class="stroke"/>
<use x="695.24" y="98.00" xlink:href="#hd"/>
<path d="M691.74 98.00v28.00" class="stroke"/>
<use x="711.84" y="95.00" xlink:href="#hl"/>
<use x="711.84" y="92.00" xlink:href="#hd"/>
<path d="M708.34 92.00v34.00" class="stroke"/>
<use x="729.84" y="101.00" xlink:href="#hd"/>
<use x="720.84" y="101.00" xlink:href="#sh0"/>
<path d="M726.34 101.00v25.00" class="stroke"/>
<use x="746.44" y="95.00" xlink:href="#hl"/>
<use x="746.44" y="95.00" xlink:href="#hd"/>
<path d="M742.94 95.00v31.00" class="stroke"/>
<use x="772.64" y="98.00" xlink:href="#hd"/>
<path d="M769.14 98.00v40.00" class="stroke"/>
<use x="772.64" y="119.00" xlink:href="#hd"/>
<use x="772.64" y="113.00" xlink:href="#hd"/>
<use x="772.64" y="107.00" xlink:href="#hd"/>
<defs>
<path id="r8e" class="fill" d="m 0 0
	c-1.5 1.5 -2.4 2 -3.6 2
	2.4 -2.8 -2.8 -4 -2.8 -1.2
	c0 2.7 4.3 2.4 5.9 0.6"/>
<g id="r8">
	<path d="m3.3 -4l-3.4 9.6" class="stroke"/>
	<use x="3.4" y="-4" xlink:href="#r8e"/>
</g>
</defs>
<use x="830.64" y="113.00" xlink:href="#r8"/>
<defs>
<path id="ubclef" class="fill" d="m-200 -87
	c124 -35 222 -78 254 -236
	43 -228 -167 -246 -192 -103
	59 -80 157 22 92 78
	-62 47 -115 -22 -106 -88
	21 -141 270 -136 274 52
	-1 175 -106 264 -322 297
	m357 -250
	c0 -36 51 -34 51 0
	0 37 -51 36 -51 0
	m-2 -129
	c0 -36 51 -34 51 0
	0 38 -51 37 -51 0"/>
<use id="bclef" transform="translate(0,18) scale(0.045)"
	xlink:href="#ubclef"/>
</defs>
<use x="23.54" y="165.00" xlink:href="#bclef"/>
<g font-family="serif" font-size="16" font-weight="bold" font-style="normal"
	transform="translate(42.04,182.50) scale(1.2,1)">
	<text text-anchor="middle">8</text>
	<text y="-12" text-anchor="middle">3</text>
</g>
<use x="84.74" y="168.00" xlink:href="#hd"/>
<path d="M81.24 168.00v25.00" class="stroke"/>
<use x="84.74" y="174.00" xlink:href="#hd"/>
<use x="151.04" y="171.00" xlink:href="#r8"/>
<use x="193.84" y="174.00" xlink:href="#hd"/>
<path d="M197.34 174.00v-21.00" class="stroke"/>
<use x="260.24" y="171.00" xlink:href="#r8"/>
<path class="fill"
	d="M299.24 183.20l47.40 0.00v-3.20l-47.40 -0.00"/>
<use x="303.04" y="162.00" xlink:href="#hd"/>
<path d="M299.54 162.00v20.20" class="stroke"/>
<use x="326.44" y="162.00" xlink:href="#hd"/>
<path d="M322.94 162.00v20.20" class="stroke"/>
<use x="349.84" y="162.00" xlink:href="#hd"/>
<path d="M346.34 162.00v20.20" class="stroke"/>
<use x="381.34" y="174.00" xlink:href="#hd"/>
<path d="M384.84 174.00v-21.00" class="stroke"/>
<use x="447.64" y="171.00" xlink:href="#r8"/>
<use x="484.44" y="159.00" xlink:href="#hd"/>
<path d="M480.94 159.00v34.00" class="stroke"/>
<use x="484.44" y="174.00" xlink:href="#hd"/>
<use x="531.24" y="159.00" xlink:href="#hd"/>
<path d="M527.74 159.00v34.00" class="stroke"/>
<path class="fill"
	d="M527.74 193.00c0.6 -5.6 9.6 -9 5.6 -18.4
	1.6 6 -1.3 11.6 -5.6 12.8
"/>
<use x="531.24" y="174.00" xlink:href="#hd"/>
<use x="562.74" y="177.00" xlink:href="#hd"/>
<path d="M566.24 177.00v-21.00" class="stroke"/>
<use x="619.24" y="171.00" xlink:href="#r8"/>
<path class="fill"
	d="M665.24 147.70l68.40 8.30v3.20l-68.40 -8.30"/>
<use x="662.04" y="174.00" xlink:href="#hd"/>
<path d="M665.54 174.00v-25.20" class="stroke"/>
<use x="695.24" y="171.00" xlink:href="#hd"/>
<path d="M698.74 171.00v-18.20" class="stroke"/>
<use x="729.84" y="189.00" xlink:href="#hl"/>
<use x="729.84" y="192.00" xlink:href="#hd"/>
<path d="M733.34 192.00v-35.00" class="stroke"/>
<path class="fill"
	d="M768.84 202.20l75.20 0.00v-3.20l-75.20 -0.00"/>
<path class="fill"
	d="M792.54 197.20l51.20 0.00v-3.20l-51.20 -0.00"/>
<use x="772.64" y="183.00" xlink:href="#hd"/>
<path d="M769.14 183.00v18.20" class="stroke"/>
<use x="796.04" y="162.00" xlink:href="#hd"/>
<path d="M792.54 162.00v39.20" class="stroke"/>
<use x="814.04" y="165.00" xlink:href="#hd"/>
<defs>
<path id="unat" class="fill" d="
	m96 -750
	h-32
	v716
	l32 -8
	182 -54
	v282
	h32
	v-706
	l-34 10
	-180 50
	v-290
	m0 592
	v-190
	l182 -52
	v188"/>
<use id="nt0" transform="translate(-3,5) scale(0.018)"
	xlink:href="#unat"/>
</defs>
<use x="805.04" y="165.00" xlink:href="#nt0"/>
<path d="M810.54 165.00v36.20" class="stroke"/>
<use x="830.64" y="168.00" xlink:href="#hd"/>
<path d="M827.14 168.00v33.20" class="stroke"/>
<use x="847.24" y="171.00" xlink:href="#hd"/>
<path d="M843.74 171.00v30.20" class="stroke"/>
</g>
<g stroke-width="0.70" transform="scale(0.867)" font-family="Times" font-size="13.00">
<path class="stroke" stroke-width="1"
	d="M11.54 316.00v-82.00"/>
<path class="fill"
	d="M6.54 231.00
	c10.5 1 12 -4.5 12 -3.5c0 1 -3.5 5.5 -8.5 5.5
	v84.00
	c5 0 8.5 4.5 8.5 5.5c0 1 -1.5 -4.5 -12 -3.5"/>
<use x="141.84" y="258.00" xlink:href="#rdots"/>
<path class="stroke" stroke-width="1"
	d="M137.84 258.00v-24.00"/>
<path class="stroke" stroke-width="3"
	d="M133.34 258.00v-24.00"/>
<use x="141.84" y="316.00" xlink:href="#rdots"/>
<path class="stroke" stroke-width="1"
	d="M137.84 316.00v-58.00"/>
<path class="stroke" stroke-width="3"
	d="M133.34 316.00v-58.00"/>
<path class="stroke" stroke-width="1"
	d="M240.34 258.00v-24.00"/>
<path class="stroke" stroke-width="1"
	d="M240.34 316.00v-58.00"/>
<path class="stroke" stroke-width="1"
	d="M317.24 258.00v-24.00"/>
<path class="stroke" stroke-width="1"
	d="M317.24 316.00v-58.00"/>
<path class="stroke" stroke-width="1"
	d="M413.64 258.00v-24.00"/>
<path class="stroke" stroke-width="1"
	d="M413.64 316.00v-58.00"/>
<path class="stroke" stroke-width="1"
	d="M500.24 258.00v-24.00"/>
<path class="stroke" stroke-width="1"
	d="M500.24 316.00v-58.00"/>
<path class="stroke" stroke-width="1"
	d="M596.74 258.00v-24.00"/>
<path class="stroke" stroke-width="1"
	d="M596.74 316.00v-58.00"/>
<path class="stroke" stroke-width="1"
	d="M693.14 258.00v-24.00"/>
<path class="stroke" stroke-width="1"
	d="M693.14 316.00v-58.00"/>
<path class="stroke" stroke-width="1"
	d="M789.54 258.00v-24.00"/>
<path class="stroke" stroke-width="1"
	d="M789.54 316.00v-58.00"/>
<path class="stroke" stroke-width="3"
	d="M860.54 258.00v-24.00"/>
<path class="stroke" stroke-width="1"
	d="M856.04 258.00v-24.00"/>
<use x="852.04" y="258.00" xlink:href="#rdots"/>
<path class="stroke" stroke-width="3"
	d="M860.54 316.00v-58.00"/>
<path class="stroke" stroke-width="1"
	d="M856.04 316.00v-58.00"/>
<use x="852.04" y="316.00" xlink:href="#rdots"/>
<path d="m11.54 258.00
	h850.50
	M11.54 252.00
	h850.50
	M11.54 246.00
	h850.50
	M11.54 240.00
	h850.50
	M11.54 234.00
	h850.50
	" class="stroke"/>
<path d="m11.54 316.00
	h850.50
	M11.54 310.00
	h850.50
	M11.54 304.00
	h850.50
	M11.54 298.00
	h850.50
	M11.54 292.00
	h850.50
	" class="stroke"/>
<text x="47.54" y="219.40">2</text>
<path class="stroke"
	d="M43.54 208.00m0 20v-20h87.30v20"/>
<use x="23.54" y="252.00" xlink:href="#tclef"/>
<use x="56.04" y="231.00" xlink:href="#hd"/>
<path d="M52.54 231.00v40.00" class="stroke"/>
<use x="56.04" y="252.00" xlink:href="#hd"/>
<use x="56.04" y="246.00" xlink:href="#hd"/>
<use x="56.04" y="240.00" xlink:href="#hd"/>
<use x="108.04" y="246.00" xlink:href="#r8"/>
<path class="fill"
	d="M157.54 260.70l67.20 10.60v-3.20l-67.20 -10.60"/>
<path class="fill"
	d="M177.84 258.90l46.60 7.30v-3.20l-46.60 -7.30"/>
<use x="161.34" y="228.00" xlink:href="#hl"/>
<use x="161.34" y="222.00" xlink:href="#hl"/>
<use x="161.34" y="219.00" xlink:href="#hd"/>
<path d="M157.84 219.00v40.70" class="stroke"/>
<use x="181.34" y="228.00" xlink:href="#hl"/>
<use x="181.34" y="228.00" xlink:href="#hd"/>
<path d="M177.84 228.00v34.90" class="stroke"/>
<use x="199.34" y="234.00" xlink:href="#hd"/>
<use x="190.34" y="234.00" xlink:href="#sh0"/>
<path d="M195.84 234.00v31.70" class="stroke"/>
<use x="213.54" y="240.00" xlink:href="#hd"/>
<path d="M210.04 240.00v28.00" class="stroke"/>
<use x="227.84" y="249.00" xlink:href="#hd"/>
<path d="M224.34 249.00v21.20" class="stroke"/>
<path class="fill"
	d="M249.04 254.60l49.00 4.60v-3.20l-49.00 -4.60"/>
<path class="fill"
	d="M269.14 251.50l14.30 1.30v-3.20l-14.30 -1.30"/>
<use x="252.84" y="231.00" xlink:href="#hd"/>
<path d="M249.34 231.00v22.70" class="stroke"/>
<use x="272.64" y="228.00" xlink:href="#hl"/>
<use x="272.64" y="225.00" xlink:href="#hd"/>
<path d="M269.14 225.00v30.50" class="stroke"/>
<use x="286.94" y="231.00" xlink:href="#hd"/>
<path d="M283.44 231.00v25.90" class="stroke"/>
<use x="301.24" y="240.00" xlink:href="#hd"/>
<path d="M297.74 240.00v18.20" class="stroke"/>
<path class="fill"
	d="M325.84 264.30l57.80 6.90v-3.20l-57.80 -6.90"/>
<use x="329.74" y="237.00" xlink:href="#hd"/>
<path d="M326.24 237.00v26.40" class="stroke"/>
<use x="358.34" y="243.00" xlink:href="#hd"/>
<path d="M354.84 243.00v23.80" class="stroke"/>
<use x="386.84" y="252.00" xlink:href="#hd"/>
<path d="M383.34 252.00v18.20" class="stroke"/>
<path class="fill"
	d="M422.34 266.00l57.80 0.00v-3.20l-57.80 -0.00"/>
<path class="fill"
	d="M422.64 261.00l42.80 0.00v-3.20l-42.80 -0.00"/>
<use x="426.14" y="246.00" xlink:href="#hd"/>
<path d="M422.64 246.00v18.90" class="stroke"/>
<use x="440.44" y="240.00" xlink:href="#hd"/>
<path d="M436.94 240.00v24.90" class="stroke"/>
<use x="454.74" y="231.00" xlink:href="#hd"/>
<path d="M451.24 231.00v33.90" class="stroke"/>
<use x="469.04" y="240.00" xlink:href="#hd"/>
<path d="M465.54 240.00v24.90" class="stroke"/>
<use x="483.24" y="246.00" xlink:href="#hd"/>
<path d="M479.74 246.00v18.90" class="stroke"/>
<path class="fill"
	d="M508.94 275.50l72.10 -6.20v-3.20l-72.10 6.20"/>
<path class="fill"
	d="M509.24 270.40l71.40 -6.20v-3.20l-71.40 6.20"/>
<use x="512.74" y="243.00" xlink:href="#hd"/>
<path d="M509.24 243.00v31.40" class="stroke"/>
<use x="527.04" y="252.00" xlink:href="#hd"/>
<path d="M523.54 252.00v21.20" class="stroke"/>
<use x="541.34" y="237.00" xlink:href="#hd"/>
<path d="M537.84 237.00v35.00" class="stroke"/>
<use x="555.64" y="243.00" xlink:href="#hd"/>
<path d="M552.14 243.00v27.70" class="stroke"/>
<use x="569.94" y="231.00" xlink:href="#hd"/>
<path d="M566.44 231.00v38.50" class="stroke"/>
<use x="584.24" y="237.00" xlink:href="#hd"/>
<path d="M580.74 237.00v31.30" class="stroke"/>
<path class="fill"
	d="M605.34 253.70l57.80 8.60v-3.20l-57.80 -8.60"/>
<use x="609.24" y="231.00" xlink:href="#hd"/>
<path d="M605.74 231.00v21.80" class="stroke"/>
<use x="637.74" y="237.00" xlink:href="#hd"/>
<path d="M634.24 237.00v20.00" class="stroke"/>
<use x="666.34" y="243.00" xlink:href="#hd"/>
<path d="M662.84 243.00v18.20" class="stroke"/>
<path class="fill"
	d="M701.74 266.00l72.10 0.00v-3.20l-72.10 -0.00"/>
<path class="fill"
	d="M702.14 261.00l71.40 0.00v-3.20l-71.40 -0.00"/>
<use x="705.64" y="240.00" xlink:href="#hd"/>
<path d="M702.14 240.00v24.90" class="stroke"/>
<use x="719.94" y="234.00" xlink:href="#hd"/>
<path d="M716.44 234.00v30.90" class="stroke"/>
<use x="734.14" y="240.00" xlink:href="#hd"/>
<path d="M730.64 240.00v24.90" class="stroke"/>
<use x="748.44" y="234.00" xlink:href="#hd"/>
<path d="M744.94 234.00v30.90" class="stroke"/>
<use x="762.74" y="246.00" xlink:href="#hd"/>
<path d="M759.24 246.00v18.90" class="stroke"/>
<use x="777.04" y="240.00" xlink:href="#hd"/>
<path d="M773.54 240.00v24.90" class="stroke"/>
<use x="802.04" y="243.00" xlink:href="#hd"/>
<path d="M798.54 243.00v21.00" class="stroke"/>
<use x="841.54" y="246.00" xlink:href="#r8"/>
<use x="23.54" y="298.00" xlink:href="#bclef"/>
<path class="fill"
	d="M52.24 335.20l67.00 -4.90v-3.20l-67.00 4.90"/>
<path class="fill"
	d="M72.34 328.80l46.60 -3.40v-3.20l-46.60 3.40"/>
<use x="56.04" y="316.00" xlink:href="#hd"/>
<path d="M52.54 316.00v18.20" class="stroke"/>
<use x="75.84" y="289.00" xlink:href="#hd"/>
<path d="M72.34 289.00v43.80" class="stroke"/>
<use x="90.04" y="295.00" xlink:href="#hd"/>
<path d="M86.54 295.00v36.70" class="stroke"/>
<use x="108.04" y="298.00" xlink:href="#hd"/>
<use x="99.04" y="298.00" xlink:href="#sh0"/>
<path d="M104.54 298.00v32.40" class="stroke"/>
<use x="122.34" y="301.00" xlink:href="#hd"/>
<path d="M118.84 301.00v28.30" class="stroke"/>
<use x="161.34" y="298.00" xlink:href="#hd"/>
<use x="152.34" y="298.00" xlink:href="#sh0"/>
<path d="M157.84 298.00v25.00" class="stroke"/>
<use x="161.34" y="304.00" xlink:href="#hd"/>
<use x="213.54" y="298.00" xlink:href="#hd"/>
<path d="M210.04 298.00v28.00" class="stroke"/>
<path class="fill"
	d="M210.04 326.00c0.6 -5.6 9.6 -9 5.6 -18.4
	1.6 6 -1.3 11.6 -5.6 12.8
"/>
<use x="213.54" y="307.00" xlink:href="#hd"/>
<use x="252.84" y="295.00" xlink:href="#hd"/>
<path d="M249.34 295.00v34.00" class="stroke"/>
<use x="252.84" y="310.00" xlink:href="#hd"/>
<use x="301.24" y="304.00" xlink:href="#r8"/>
<path class="fill"
	d="M325.84 323.90l72.10 0.00v-3.20l-72.10 -0.00"/>
<path class="fill"
	d="M326.24 318.90l71.40 0.00v-3.20l-71.40 -0.00"/>
<use x="329.74" y="301.00" xlink:href="#hd"/>
<path d="M326.24 301.00v21.90" class="stroke"/>
<use x="329.74" y="307.00" xlink:href="#hd"/>
<use x="344.04" y="295.00" xlink:href="#hd"/>
<path d="M340.54 295.00v27.90" class="stroke"/>
<use x="358.34" y="301.00" xlink:href="#hd"/>
<path d="M354.84 301.00v21.90" class="stroke"/>
<use x="358.34" y="307.00" xlink:href="#hd"/>
<use x="372.54" y="295.00" xlink:href="#hd"/>
<path d="M369.04 295.00v27.90" class="stroke"/>
<use x="386.84" y="301.00" xlink:href="#hd"/>
<path d="M383.34 301.00v21.90" class="stroke"/>
<use x="386.84" y="307.00" xlink:href="#hd"/>
<use x="401.14" y="295.00" xlink:href="#hd"/>
<path d="M397.64 295.00v27.90" class="stroke"/>
<use x="426.14" y="295.00" xlink:href="#hd"/>
<path d="M422.64 295.00v21.00" class="stroke"/>
<use x="483.24" y="316.00" xlink:href="#hd"/>
<path d="M486.74 316.00v-21.00" class="stroke"/>
<path class="fill"
	d="M486.74 295.00c0.6 5.6 9.6 9 5.6 18.4
	1.6 -6 -1.3 -11.6 -5.6 -12.8
"/>
<use x="512.74" y="301.00" xlink:href="#hd"/>
<path d="M509.24 301.00v25.00" class="stroke"/>
<use x="512.74" y="307.00" xlink:href="#hd"/>
<use x="569.94" y="304.00" xlink:href="#r8"/>
<path class="fill"
	d="M605.34 323.90l72.10 0.00v-3.20l-72.10 -0.00"/>
<path class="fill"
	d="M605.74 318.90l71.40 0.00v-3.20l-71.40 -0.00"/>
<use x="609.24" y="301.00" xlink:href="#hd"/>
<path d="M605.74 301.00v21.90" class="stroke"/>
<use x="609.24" y="307.00" xlink:href="#hd"/>
<use x="623.44" y="295.00" xlink:href="#hd"/>
<path d="M619.94 295.00v27.90" class="stroke"/>
<use x="637.74" y="301.00" xlink:href="#hd"/>
<path d="M634.24 301.00v21.90" class="stroke"/>
<use x="637.74" y="307.00" xlink:href="#hd"/>
<use x="652.04" y="295.00" xlink:href="#hd"/>
<path d="M648.54 295.00v27.90" class="stroke"/>
<use x="666.34" y="301.00" xlink:href="#hd"/>
<path d="M662.84 301.00v21.90" class="stroke"/>
<use x="666.34" y="307.00" xlink:href="#hd"/>
<use x="680.64" y="295.00" xlink:href="#hd"/>
<path d="M677.14 295.00v27.90" class="stroke"/>
<use x="705.64" y="292.00" xlink:href="#hd"/>
<path d="M702.14 292.00v25.00" class="stroke"/>
<use x="705.64" y="298.00" xlink:href="#hd"/>
<use x="762.74" y="286.00" xlink:href="#hl"/>
<use x="762.74" y="283.00" xlink:href="#hd"/>
<path d="M759.24 283.00v31.00" class="stroke"/>
<path class="fill"
	d="M759.24 314.00c0.6 -5.6 9.6 -9 5.6 -18.4
	1.6 6 -1.3 11.6 -5.6 12.8
"/>
<use x="762.74" y="295.00" xlink:href="#hd"/>
<path class="fill"
	d="M805.14 287.70l40.20 9.60v3.20l-40.20 -9.60"/>
<use x="802.04" y="307.00" xlink:href="#hd"/>
<path d="M805.54 307.00v-18.20" class="stroke"/>
<use x="821.74" y="316.00" xlink:href="#hd"/>
<path d="M825.24 316.00v-22.50" class="stroke"/>
<use x="841.54" y="322.00" xlink:href="#hl"/>
<use x="841.54" y="328.00" xlink:href="#hl"/>
<use x="841.54" y="328.00" xlink:href="#hd"/>
<path d="M845.04 328.00v-29.80" class="stroke"/>
</g>
</svg>
