<?xml version="1.0" standalone="no"?>
<!DOCTYPE svg PUBLIC "-//W3C//DTD SVG 1.1//EN"
	"http://www.w3.org/Graphics/SVG/1.1/DTD/svg11.dtd">
<svg xmlns="http://www.w3.org/2000/svg" version="1.1"
	xmlns:xlink="http://www.w3.org/1999/xlink"
	color="black"
	width="757.10px" height="293.80px">
<style type="text/css">
.fill {fill: currentColor}
.stroke {stroke: currentColor; fill: none}
text{white-space: pre}
</style>
<title>./K516f-10-2-9-5-6-6-10-11-11-10-8-12-12-6-5-10.abc (1192) tune 1</title>
<!-- Creator: abcm2ps-8.13.8 -->
<!-- CreationDate: Sep  7, 2017 11:18 -->
<!-- CommandLine: ./K516f-10-2-9-5-6-6-10-11-11-10-8-12-12-6-5-10.abc -O ./K516f-10-2-9-5-6-6-10-11-11-10-8-12-12-6-5-10.svg -g -->
<rect width="100%" height="100%" fill="white"/>
<g stroke-width="0.70" transform="scale(0.867)">
<!-- title: 10-2-9-5-6-6-10-11-11-10-8-12-12-6-5-10 -->
</g>
<g stroke-width="0.70" transform="scale(0.867)" font-family="Times" font-size="20.00">
<text x="436.84" y="22.00" text-anchor="middle">10-2-9-5-6-6-10-11-11-10-8-12-12-6-5-10</text>
</g>
<g stroke-width="0.70" transform="scale(0.867)" font-family="Times" font-size="20.00">
<!-- subtitle: $1K.516f::98:22:114:85:80:97:62:33:102:77:57:92:12:136:52:8::$0 -->
</g>
<g stroke-width="0.70" transform="scale(0.867)" font-family="Courier" font-size="8.00" font-weight="bold">
<text x="436.84" y="41.80" text-anchor="middle">K.516f::98:22:114:85:80:97:62:33:102:77:57:92:12:136:52:8::</text>
</g>
<g stroke-width="0.70" transform="scale(0.867)" font-family="Courier" font-size="8.00" font-weight="bold">
<!-- subtitle: $1Perm. No.: 119250393712635$0 -->
<text x="436.84" y="60.80" text-anchor="middle">Perm. No.: 119250393712635</text>
</g>
<g stroke-width="0.70" transform="scale(0.607)" font-family="Courier" font-size="8.00" font-weight="bold">
<defs>
<ellipse id="hd" rx="4.1" ry="2.9"
	transform="rotate(-20)" class="fill"/>
</defs>
<use x="103.06" y="121.29" xlink:href="#hd"/>
<path d="M106.56 121.29v-21.00" class="stroke"/>
<path class="fill"
	d="M106.56 100.29c0.6 5.6 9.6 9 5.6 18.4
	1.6 -6 -1.3 -11.6 -5.6 -12.8
"/>
</g>
<g stroke-width="0.70" transform="scale(0.867)" font-family="Times" font-size="15.00" font-weight="bold">
<text x="81.24" y="87.00">= 111</text>
<path class="stroke" stroke-width="1"
	d="M11.54 183.00v-82.00"/>
<path class="fill"
	d="M6.54 98.00
	c10.5 1 12 -4.5 12 -3.5c0 1 -3.5 5.5 -8.5 5.5
	v84.00
	c5 0 8.5 4.5 8.5 5.5c0 1 -1.5 -4.5 -12 -3.5"/>
<defs>
<g id="rdots" class="fill">
	<circle cx="0" cy="-9" r="1.2"/>
	<circle cx="0" cy="-15" r="1.2"/>
</g>
</defs>
<use x="70.54" y="125.00" xlink:href="#rdots"/>
<path class="stroke" stroke-width="1"
	d="M66.54 125.00v-24.00"/>
<path class="stroke" stroke-width="3"
	d="M62.04 125.00v-24.00"/>
<use x="70.54" y="183.00" xlink:href="#rdots"/>
<path class="stroke" stroke-width="1"
	d="M66.54 183.00v-58.00"/>
<path class="stroke" stroke-width="3"
	d="M62.04 183.00v-58.00"/>
<path class="stroke" stroke-width="1"
	d="M187.64 125.00v-24.00"/>
<path class="stroke" stroke-width="1"
	d="M187.64 183.00v-58.00"/>
<path class="stroke" stroke-width="1"
	d="M271.04 125.00v-24.00"/>
<path class="stroke" stroke-width="1"
	d="M271.04 183.00v-58.00"/>
<path class="stroke" stroke-width="1"
	d="M354.44 125.00v-24.00"/>
<path class="stroke" stroke-width="1"
	d="M354.44 183.00v-58.00"/>
<path class="stroke" stroke-width="1"
	d="M437.74 125.00v-24.00"/>
<path class="stroke" stroke-width="1"
	d="M437.74 183.00v-58.00"/>
<path class="stroke" stroke-width="1"
	d="M521.24 125.00v-24.00"/>
<path class="stroke" stroke-width="1"
	d="M521.24 183.00v-58.00"/>
<path class="stroke" stroke-width="1"
	d="M637.64 125.00v-24.00"/>
<path class="stroke" stroke-width="1"
	d="M637.64 183.00v-58.00"/>
<path class="stroke" stroke-width="1"
	d="M754.04 125.00v-24.00"/>
<path class="stroke" stroke-width="1"
	d="M754.04 183.00v-58.00"/>
<path class="stroke" stroke-width="3"
	d="M860.54 125.00v-24.00"/>
<path class="stroke" stroke-width="1"
	d="M856.04 125.00v-24.00"/>
<use x="852.04" y="125.00" xlink:href="#rdots"/>
<path class="stroke" stroke-width="3"
	d="M860.54 183.00v-58.00"/>
<path class="stroke" stroke-width="1"
	d="M856.04 183.00v-58.00"/>
<use x="852.04" y="183.00" xlink:href="#rdots"/>
<path d="m11.54 125.00
	h850.50
	M11.54 119.00
	h850.50
	M11.54 113.00
	h850.50
	M11.54 107.00
	h850.50
	M11.54 101.00
	h850.50
	" class="stroke"/>
<path d="m11.54 183.00
	h850.50
	M11.54 177.00
	h850.50
	M11.54 171.00
	h850.50
	M11.54 165.00
	h850.50
	M11.54 159.00
	h850.50
	" class="stroke"/>
</g>
<g stroke-width="0.70" transform="scale(0.867)" font-family="Times" font-size="13.00">
<text x="758.04" y="86.40">1</text>
<path class="stroke"
	d="M754.04 75.00m0 20v-20h100.00v20"/>
<defs>
<path id="utclef" class="fill" d="m-50 -90
	c-72 -41 -72 -158 52 -188
	150 -10 220 188 90 256
	-114 52 -275 0 -293 -136
	-15 -181 93 -229 220 -334
	88 -87 79 -133 62 -210
	-51 33 -94 105 -89 186
	17 267 36 374 49 574
	6 96 -19 134 -77 135
	-80 1 -126 -93 -61 -133
	85 -41 133 101 31 105
	23 17 92 37 90 -92
	-10 -223 -39 -342 -50 -617
	0 -90 0 -162 96 -232
	56 72 63 230 22 289
	-74 106 -257 168 -255 316
	9 153 148 185 252 133
	86 -65 29 -192 -80 -176
	-71 12 -105 67 -59 124"/>
<use id="tclef" transform="translate(0,6) scale(0.045)"
	xlink:href="#utclef"/>
</defs>
<use x="23.54" y="119.00" xlink:href="#tclef"/>
<g font-family="serif" font-size="16" font-weight="bold" font-style="normal"
	transform="translate(42.04,124.50) scale(1.2,1)">
	<text text-anchor="middle">8</text>
	<text y="-12" text-anchor="middle">3</text>
</g>
<path class="fill"
	d="M81.64 139.80l71.40 -3.30v-3.20l-71.40 3.30"/>
<use x="85.44" y="110.00" xlink:href="#hd"/>
<path d="M81.94 110.00v28.80" class="stroke"/>
<use x="120.84" y="119.00" xlink:href="#hd"/>
<path d="M117.34 119.00v18.20" class="stroke"/>
<use x="156.14" y="104.00" xlink:href="#hd"/>
<path d="M152.64 104.00v31.60" class="stroke"/>
<path class="fill"
	d="M197.74 131.50l50.70 6.70v-3.20l-50.70 -6.70"/>
<use x="201.54" y="104.00" xlink:href="#hd"/>
<path d="M198.04 104.00v26.60" class="stroke"/>
<use x="226.54" y="110.00" xlink:href="#hd"/>
<path d="M223.04 110.00v23.90" class="stroke"/>
<use x="251.54" y="119.00" xlink:href="#hd"/>
<path d="M248.04 119.00v18.20" class="stroke"/>
<path class="fill"
	d="M281.14 132.00l50.70 0.00v-3.20l-50.70 -0.00"/>
<use x="284.94" y="107.00" xlink:href="#hd"/>
<path d="M281.44 107.00v24.00" class="stroke"/>
<use x="284.94" y="113.00" xlink:href="#hd"/>
<use x="309.94" y="107.00" xlink:href="#hd"/>
<path d="M306.44 107.00v24.00" class="stroke"/>
<use x="309.94" y="113.00" xlink:href="#hd"/>
<use x="334.94" y="107.00" xlink:href="#hd"/>
<path d="M331.44 107.00v24.00" class="stroke"/>
<use x="334.94" y="113.00" xlink:href="#hd"/>
<path class="fill"
	d="M364.44 133.70l50.70 4.50v-3.20l-50.70 -4.50"/>
<use x="368.34" y="110.00" xlink:href="#hd"/>
<path d="M364.84 110.00v22.80" class="stroke"/>
<use x="393.34" y="104.00" xlink:href="#hd"/>
<path d="M389.84 104.00v31.00" class="stroke"/>
<use x="418.34" y="119.00" xlink:href="#hd"/>
<path d="M414.84 119.00v18.20" class="stroke"/>
<path class="fill"
	d="M447.84 136.80l50.70 -3.20v-3.20l-50.70 3.20"/>
<use x="451.74" y="107.00" xlink:href="#hd"/>
<path d="M448.24 107.00v28.80" class="stroke"/>
<use x="476.74" y="116.00" xlink:href="#hd"/>
<path d="M473.24 116.00v18.20" class="stroke"/>
<use x="501.74" y="101.00" xlink:href="#hd"/>
<defs>
<path id="usharp" class="fill" d="
	m136 -702
	v890
	h32
	v-890
	m128 840
	h32
	v-888
	h-32
	m-232 286
	v116
	l338 -96
	v-116
	m-338 442
	v116
	l338 -98
	v-114"/>
<use id="sh0" transform="translate(-4,5) scale(0.018)"
	xlink:href="#usharp"/>
</defs>
<use x="492.74" y="101.00" xlink:href="#sh0"/>
<path d="M498.24 101.00v31.60" class="stroke"/>
<path class="fill"
	d="M531.34 131.20l89.40 10.00v-3.20l-89.40 -10.00"/>
<path class="fill"
	d="M531.64 126.20l88.70 10.00v-3.20l-88.70 -10.00"/>
<use x="535.14" y="98.00" xlink:href="#hd"/>
<path d="M531.64 98.00v32.20" class="stroke"/>
<use x="553.14" y="101.00" xlink:href="#hd"/>
<use x="544.14" y="101.00" xlink:href="#sh0"/>
<path d="M549.64 101.00v31.30" class="stroke"/>
<use x="570.84" y="98.00" xlink:href="#hd"/>
<path d="M567.34 98.00v36.20" class="stroke"/>
<use x="588.44" y="107.00" xlink:href="#hd"/>
<path d="M584.94 107.00v29.20" class="stroke"/>
<use x="606.14" y="113.00" xlink:href="#hd"/>
<path d="M602.64 113.00v25.20" class="stroke"/>
<use x="623.84" y="119.00" xlink:href="#hd"/>
<path d="M620.34 119.00v21.20" class="stroke"/>
<path class="fill"
	d="M654.74 81.80l89.40 8.10v3.20l-89.40 -8.10"/>
<path class="fill"
	d="M655.04 86.80l88.70 8.00v3.20l-88.70 -8.00"/>
<use x="651.54" y="104.00" xlink:href="#hd"/>
<path d="M655.04 104.00v-21.20" class="stroke"/>
<use x="669.24" y="110.00" xlink:href="#hd"/>
<path d="M672.74 110.00v-25.60" class="stroke"/>
<use x="686.94" y="113.00" xlink:href="#hd"/>
<path d="M690.44 113.00v-27.00" class="stroke"/>
<use x="704.54" y="119.00" xlink:href="#hd"/>
<path d="M708.04 119.00v-31.40" class="stroke"/>
<use x="722.24" y="116.00" xlink:href="#hd"/>
<path d="M725.74 116.00v-26.80" class="stroke"/>
<use x="740.24" y="122.00" xlink:href="#hd"/>
<use x="731.24" y="122.00" xlink:href="#sh0"/>
<path d="M743.74 122.00v-31.20" class="stroke"/>
<use x="767.94" y="98.00" xlink:href="#hd"/>
<path d="M764.44 98.00v40.00" class="stroke"/>
<use x="767.94" y="119.00" xlink:href="#hd"/>
<use x="767.94" y="113.00" xlink:href="#hd"/>
<use x="767.94" y="107.00" xlink:href="#hd"/>
<defs>
<path id="r8e" class="fill" d="m 0 0
	c-1.5 1.5 -2.4 2 -3.6 2
	2.4 -2.8 -2.8 -4 -2.8 -1.2
	c0 2.7 4.3 2.4 5.9 0.6"/>
<g id="r8">
	<path d="m3.3 -4l-3.4 9.6" class="stroke"/>
	<use x="3.4" y="-4" xlink:href="#r8e"/>
</g>
</defs>
<use x="828.64" y="113.00" xlink:href="#r8"/>
<defs>
<path id="ubclef" class="fill" d="m-200 -87
	c124 -35 222 -78 254 -236
	43 -228 -167 -246 -192 -103
	59 -80 157 22 92 78
	-62 47 -115 -22 -106 -88
	21 -141 270 -136 274 52
	-1 175 -106 264 -322 297
	m357 -250
	c0 -36 51 -34 51 0
	0 37 -51 36 -51 0
	m-2 -129
	c0 -36 51 -34 51 0
	0 38 -51 37 -51 0"/>
<use id="bclef" transform="translate(0,18) scale(0.045)"
	xlink:href="#ubclef"/>
</defs>
<use x="23.54" y="165.00" xlink:href="#bclef"/>
<g font-family="serif" font-size="16" font-weight="bold" font-style="normal"
	transform="translate(42.04,182.50) scale(1.2,1)">
	<text text-anchor="middle">8</text>
	<text y="-12" text-anchor="middle">3</text>
</g>
<path class="fill"
	d="M81.64 190.90l89.10 0.00v-3.20l-89.10 -0.00"/>
<path class="fill"
	d="M81.94 185.90l88.40 0.00v-3.20l-88.40 -0.00"/>
<use x="85.44" y="168.00" xlink:href="#hd"/>
<path d="M81.94 168.00v21.90" class="stroke"/>
<use x="85.44" y="174.00" xlink:href="#hd"/>
<use x="103.14" y="162.00" xlink:href="#hd"/>
<path d="M99.64 162.00v27.90" class="stroke"/>
<use x="120.84" y="168.00" xlink:href="#hd"/>
<path d="M117.34 168.00v21.90" class="stroke"/>
<use x="120.84" y="174.00" xlink:href="#hd"/>
<use x="138.54" y="162.00" xlink:href="#hd"/>
<path d="M135.04 162.00v27.90" class="stroke"/>
<use x="156.14" y="168.00" xlink:href="#hd"/>
<path d="M152.64 168.00v21.90" class="stroke"/>
<use x="156.14" y="174.00" xlink:href="#hd"/>
<use x="173.84" y="162.00" xlink:href="#hd"/>
<path d="M170.34 162.00v27.90" class="stroke"/>
<use x="201.54" y="174.00" xlink:href="#hd"/>
<path d="M205.04 174.00v-21.00" class="stroke"/>
<use x="251.54" y="171.00" xlink:href="#r8"/>
<path class="fill"
	d="M281.14 183.20l50.70 0.00v-3.20l-50.70 -0.00"/>
<use x="284.94" y="162.00" xlink:href="#hd"/>
<path d="M281.44 162.00v20.20" class="stroke"/>
<use x="309.94" y="162.00" xlink:href="#hd"/>
<path d="M306.44 162.00v20.20" class="stroke"/>
<use x="334.94" y="162.00" xlink:href="#hd"/>
<path d="M331.44 162.00v20.20" class="stroke"/>
<use x="368.34" y="162.00" xlink:href="#hd"/>
<path d="M364.84 162.00v25.00" class="stroke"/>
<use x="368.34" y="168.00" xlink:href="#hd"/>
<use x="418.34" y="171.00" xlink:href="#r8"/>
<use x="451.74" y="174.00" xlink:href="#hd"/>
<path d="M455.24 174.00v-21.00" class="stroke"/>
<use x="501.74" y="171.00" xlink:href="#r8"/>
<use x="535.14" y="177.00" xlink:href="#hd"/>
<path d="M538.64 177.00v-25.00" class="stroke"/>
<use x="535.14" y="171.00" xlink:href="#hd"/>
<use x="606.14" y="162.00" xlink:href="#hd"/>
<path d="M602.64 162.00v34.00" class="stroke"/>
<path class="fill"
	d="M602.64 196.00c0.6 -5.6 9.6 -9 5.6 -18.4
	1.6 6 -1.3 11.6 -5.6 12.8
"/>
<use x="606.14" y="177.00" xlink:href="#hd"/>
<path class="fill"
	d="M654.74 147.60l71.40 8.40v3.20l-71.40 -8.40"/>
<use x="651.54" y="174.00" xlink:href="#hd"/>
<path d="M655.04 174.00v-25.30" class="stroke"/>
<use x="686.94" y="171.00" xlink:href="#hd"/>
<path d="M690.44 171.00v-18.20" class="stroke"/>
<defs>
<path id="hl" class="stroke" d="m-6 0h12"/>
</defs>
<use x="722.24" y="189.00" xlink:href="#hl"/>
<use x="722.24" y="192.00" xlink:href="#hd"/>
<path d="M725.74 192.00v-35.10" class="stroke"/>
<path class="fill"
	d="M764.14 202.20l79.00 0.00v-3.20l-79.00 -0.00"/>
<path class="fill"
	d="M789.44 197.20l53.40 0.00v-3.20l-53.40 -0.00"/>
<use x="767.94" y="183.00" xlink:href="#hd"/>
<path d="M764.44 183.00v18.20" class="stroke"/>
<use x="792.94" y="162.00" xlink:href="#hd"/>
<path d="M789.44 162.00v39.20" class="stroke"/>
<use x="810.94" y="165.00" xlink:href="#hd"/>
<defs>
<path id="unat" class="fill" d="
	m96 -750
	h-32
	v716
	l32 -8
	182 -54
	v282
	h32
	v-706
	l-34 10
	-180 50
	v-290
	m0 592
	v-190
	l182 -52
	v188"/>
<use id="nt0" transform="translate(-3,5) scale(0.018)"
	xlink:href="#unat"/>
</defs>
<use x="801.94" y="165.00" xlink:href="#nt0"/>
<path d="M807.44 165.00v36.20" class="stroke"/>
<use x="828.64" y="168.00" xlink:href="#hd"/>
<path d="M825.14 168.00v33.20" class="stroke"/>
<use x="846.34" y="171.00" xlink:href="#hd"/>
<path d="M842.84 171.00v30.20" class="stroke"/>
<defs>
<path id="turn" class="fill" d="
	m5.2 -8
	c1.4 0.5 0.9 4.8 -2.2 2.8
	l-4.8 -3.5
	c-3 -2 -5.8 1.8 -3.6 4.4
	1 1.1 2 0.8 2.1 -0.1
	0.1 -0.9 -0.7 -1.2 -1.9 -0.6
	-1.4 -0.5 -0.9 -4.8 2.2 -2.8
	l4.8 3.5
	c3 2 5.8 -1.8 3.6 -4.4
	-1 -1.1 -2 -0.8 -2.1 0.1
	-0.1 0.9 0.7 1.2 1.9 0.6"/>
</defs>
<use x="476.74" y="99.00" xlink:href="#turn"/>
</g>
<g stroke-width="0.70" transform="scale(0.867)" font-family="Times" font-size="13.00">
<path class="stroke" stroke-width="1"
	d="M11.54 316.00v-82.00"/>
<path class="fill"
	d="M6.54 231.00
	c10.5 1 12 -4.5 12 -3.5c0 1 -3.5 5.5 -8.5 5.5
	v84.00
	c5 0 8.5 4.5 8.5 5.5c0 1 -1.5 -4.5 -12 -3.5"/>
<use x="146.24" y="258.00" xlink:href="#rdots"/>
<path class="stroke" stroke-width="1"
	d="M142.24 258.00v-24.00"/>
<path class="stroke" stroke-width="3"
	d="M137.74 258.00v-24.00"/>
<use x="146.24" y="316.00" xlink:href="#rdots"/>
<path class="stroke" stroke-width="1"
	d="M142.24 316.00v-58.00"/>
<path class="stroke" stroke-width="3"
	d="M137.74 316.00v-58.00"/>
<path class="stroke" stroke-width="1"
	d="M237.94 258.00v-24.00"/>
<path class="stroke" stroke-width="1"
	d="M237.94 316.00v-58.00"/>
<path class="stroke" stroke-width="1"
	d="M320.24 258.00v-24.00"/>
<path class="stroke" stroke-width="1"
	d="M320.24 316.00v-58.00"/>
<path class="stroke" stroke-width="1"
	d="M422.64 258.00v-24.00"/>
<path class="stroke" stroke-width="1"
	d="M422.64 316.00v-58.00"/>
<path class="stroke" stroke-width="1"
	d="M505.04 258.00v-24.00"/>
<path class="stroke" stroke-width="1"
	d="M505.04 316.00v-58.00"/>
<path class="stroke" stroke-width="1"
	d="M578.14 258.00v-24.00"/>
<path class="stroke" stroke-width="1"
	d="M578.14 316.00v-58.00"/>
<path class="stroke" stroke-width="1"
	d="M680.64 258.00v-24.00"/>
<path class="stroke" stroke-width="1"
	d="M680.64 316.00v-58.00"/>
<path class="stroke" stroke-width="1"
	d="M785.64 258.00v-24.00"/>
<path class="stroke" stroke-width="1"
	d="M785.64 316.00v-58.00"/>
<path class="stroke" stroke-width="3"
	d="M860.54 258.00v-24.00"/>
<path class="stroke" stroke-width="1"
	d="M856.04 258.00v-24.00"/>
<use x="852.04" y="258.00" xlink:href="#rdots"/>
<path class="stroke" stroke-width="3"
	d="M860.54 316.00v-58.00"/>
<path class="stroke" stroke-width="1"
	d="M856.04 316.00v-58.00"/>
<use x="852.04" y="316.00" xlink:href="#rdots"/>
<path d="m11.54 258.00
	h850.50
	M11.54 252.00
	h850.50
	M11.54 246.00
	h850.50
	M11.54 240.00
	h850.50
	M11.54 234.00
	h850.50
	" class="stroke"/>
<path d="m11.54 316.00
	h850.50
	M11.54 310.00
	h850.50
	M11.54 304.00
	h850.50
	M11.54 298.00
	h850.50
	M11.54 292.00
	h850.50
	" class="stroke"/>
<path class="fill"
	d="M693.14 234.00c2.76 -3.95 14.74 -4.43 17.50 -0.70
	v-0.22c-3.28 -5.51 -14.22 -5.03 -17.50 0.92"/>
<text x="47.54" y="219.40">2</text>
<path class="stroke"
	d="M43.54 208.00m0 20v-20h91.70v20"/>
<use x="23.54" y="252.00" xlink:href="#tclef"/>
<use x="56.04" y="231.00" xlink:href="#hd"/>
<path d="M52.54 231.00v40.00" class="stroke"/>
<use x="56.04" y="252.00" xlink:href="#hd"/>
<use x="56.04" y="246.00" xlink:href="#hd"/>
<use x="56.04" y="240.00" xlink:href="#hd"/>
<use x="111.24" y="246.00" xlink:href="#r8"/>
<path class="fill"
	d="M161.84 262.40l31.60 5.80v-3.20l-31.60 -5.80"/>
<path class="fill"
	d="M162.24 257.50l15.50 2.80v-3.20l-15.50 -2.80"/>
<use x="165.74" y="234.00" xlink:href="#hd"/>
<use x="156.74" y="234.00" xlink:href="#sh0"/>
<path d="M162.24 234.00v27.50" class="stroke"/>
<use x="181.24" y="240.00" xlink:href="#hd"/>
<path d="M177.74 240.00v24.40" class="stroke"/>
<use x="196.64" y="249.00" xlink:href="#hd"/>
<path d="M193.14 249.00v18.20" class="stroke"/>
<use x="220.74" y="234.00" xlink:href="#hd"/>
<path d="M217.24 234.00v21.00" class="stroke"/>
<path class="fill"
	d="M217.24 255.00c0.6 -5.6 9.6 -9 5.6 -18.4
	1.6 6 -1.3 11.6 -5.6 12.8
"/>
<path class="fill"
	d="M246.54 254.20l53.40 5.00v-3.20l-53.40 -5.00"/>
<path class="fill"
	d="M246.94 249.20l15.50 1.50v-3.20l-15.50 -1.50"/>
<use x="250.44" y="231.00" xlink:href="#hd"/>
<path d="M246.94 231.00v22.20" class="stroke"/>
<use x="265.94" y="228.00" xlink:href="#hl"/>
<use x="265.94" y="225.00" xlink:href="#hd"/>
<path d="M262.44 225.00v29.70" class="stroke"/>
<use x="281.34" y="231.00" xlink:href="#hd"/>
<path d="M277.84 231.00v25.10" class="stroke"/>
<use x="303.14" y="240.00" xlink:href="#hd"/>
<path d="M299.64 240.00v18.20" class="stroke"/>
<path class="fill"
	d="M328.94 264.20l62.60 7.00v-3.20l-62.60 -7.00"/>
<use x="332.74" y="237.00" xlink:href="#hd"/>
<path d="M329.24 237.00v26.20" class="stroke"/>
<use x="363.74" y="243.00" xlink:href="#hd"/>
<path d="M360.24 243.00v23.70" class="stroke"/>
<use x="394.74" y="252.00" xlink:href="#hd"/>
<path d="M391.24 252.00v18.20" class="stroke"/>
<path class="fill"
	d="M431.34 264.20l53.40 0.00v-3.20l-53.40 -0.00"/>
<path class="fill"
	d="M453.44 259.20l15.50 0.00v-3.20l-15.50 -0.00"/>
<use x="435.14" y="240.00" xlink:href="#hd"/>
<path d="M431.64 240.00v23.20" class="stroke"/>
<use x="435.14" y="246.00" xlink:href="#hd"/>
<use x="456.94" y="231.00" xlink:href="#hd"/>
<path d="M453.44 231.00v32.20" class="stroke"/>
<use x="472.34" y="228.00" xlink:href="#hl"/>
<use x="472.34" y="225.00" xlink:href="#hd"/>
<path d="M468.84 225.00v38.20" class="stroke"/>
<use x="487.84" y="240.00" xlink:href="#hd"/>
<path d="M484.34 240.00v23.20" class="stroke"/>
<path class="fill"
	d="M520.64 224.00l44.10 0.00v3.20l-44.10 -0.00"/>
<use x="517.54" y="258.00" xlink:href="#hd"/>
<path d="M521.04 258.00v-33.00" class="stroke"/>
<use x="517.54" y="243.00" xlink:href="#hd"/>
<use x="539.24" y="258.00" xlink:href="#hd"/>
<path d="M542.74 258.00v-33.00" class="stroke"/>
<use x="539.24" y="243.00" xlink:href="#hd"/>
<use x="560.94" y="258.00" xlink:href="#hd"/>
<path d="M564.44 258.00v-33.00" class="stroke"/>
<use x="560.94" y="243.00" xlink:href="#hd"/>
<path class="fill"
	d="M586.74 255.80l78.20 9.40v-3.20l-78.20 -9.40"/>
<path class="fill"
	d="M587.14 250.80l77.60 9.40v-3.20l-77.60 -9.40"/>
<use x="590.64" y="228.00" xlink:href="#hl"/>
<use x="590.64" y="222.00" xlink:href="#hl"/>
<use x="590.64" y="222.00" xlink:href="#hd"/>
<path d="M587.14 222.00v32.80" class="stroke"/>
<use x="606.14" y="228.00" xlink:href="#hl"/>
<use x="606.14" y="225.00" xlink:href="#hd"/>
<path d="M602.64 225.00v31.70" class="stroke"/>
<use x="621.74" y="228.00" xlink:href="#hl"/>
<use x="621.74" y="222.00" xlink:href="#hl"/>
<use x="621.74" y="222.00" xlink:href="#hd"/>
<path d="M618.24 222.00v36.60" class="stroke"/>
<use x="637.24" y="231.00" xlink:href="#hd"/>
<path d="M633.74 231.00v29.50" class="stroke"/>
<use x="652.74" y="237.00" xlink:href="#hd"/>
<path d="M649.24 237.00v25.30" class="stroke"/>
<use x="668.14" y="243.00" xlink:href="#hd"/>
<path d="M664.64 243.00v21.20" class="stroke"/>
<path class="fill"
	d="M689.34 274.20l80.60 0.00v-3.20l-80.60 -0.00"/>
<path class="fill"
	d="M689.64 269.20l79.90 0.00v-3.20l-79.90 -0.00"/>
<use x="693.14" y="240.00" xlink:href="#hd"/>
<path d="M689.64 240.00v33.20" class="stroke"/>
<use x="711.14" y="243.00" xlink:href="#hd"/>
<use x="702.14" y="243.00" xlink:href="#sh0"/>
<path d="M707.64 243.00v30.20" class="stroke"/>
<use x="726.64" y="240.00" xlink:href="#hd"/>
<path d="M723.14 240.00v33.20" class="stroke"/>
<use x="742.14" y="234.00" xlink:href="#hd"/>
<path d="M738.64 234.00v39.20" class="stroke"/>
<use x="757.64" y="252.00" xlink:href="#hd"/>
<path d="M754.14 252.00v21.20" class="stroke"/>
<use x="773.14" y="246.00" xlink:href="#hd"/>
<path d="M769.64 246.00v27.20" class="stroke"/>
<use x="798.14" y="243.00" xlink:href="#hd"/>
<path d="M794.64 243.00v21.00" class="stroke"/>
<use x="841.54" y="246.00" xlink:href="#r8"/>
<use x="23.54" y="298.00" xlink:href="#bclef"/>
<path class="fill"
	d="M52.24 335.20l71.40 -5.10v-3.20l-71.40 5.10"/>
<path class="fill"
	d="M74.24 328.60l49.00 -3.50v-3.20l-49.00 3.50"/>
<use x="56.04" y="316.00" xlink:href="#hd"/>
<path d="M52.54 316.00v18.20" class="stroke"/>
<use x="77.74" y="289.00" xlink:href="#hd"/>
<path d="M74.24 289.00v43.60" class="stroke"/>
<use x="93.24" y="295.00" xlink:href="#hd"/>
<path d="M89.74 295.00v36.50" class="stroke"/>
<use x="111.24" y="298.00" xlink:href="#hd"/>
<use x="102.24" y="298.00" xlink:href="#sh0"/>
<path d="M107.74 298.00v32.20" class="stroke"/>
<use x="126.74" y="301.00" xlink:href="#hd"/>
<path d="M123.24 301.00v28.10" class="stroke"/>
<use x="165.74" y="292.00" xlink:href="#hd"/>
<path d="M162.24 292.00v34.00" class="stroke"/>
<use x="165.74" y="307.00" xlink:href="#hd"/>
<use x="220.74" y="292.00" xlink:href="#hd"/>
<path d="M217.24 292.00v34.00" class="stroke"/>
<path class="fill"
	d="M217.24 326.00c0.6 -5.6 9.6 -9 5.6 -18.4
	1.6 6 -1.3 11.6 -5.6 12.8
"/>
<use x="220.74" y="307.00" xlink:href="#hd"/>
<use x="250.44" y="310.00" xlink:href="#hd"/>
<path d="M253.94 310.00v-25.00" class="stroke"/>
<use x="250.44" y="304.00" xlink:href="#hd"/>
<use x="303.14" y="295.00" xlink:href="#hd"/>
<path d="M299.64 295.00v34.00" class="stroke"/>
<path class="fill"
	d="M299.64 329.00c0.6 -5.6 9.6 -9 5.6 -18.4
	1.6 6 -1.3 11.6 -5.6 12.8
"/>
<use x="303.14" y="310.00" xlink:href="#hd"/>
<path class="fill"
	d="M328.94 323.90l78.10 0.00v-3.20l-78.10 -0.00"/>
<path class="fill"
	d="M329.24 318.90l77.40 0.00v-3.20l-77.40 -0.00"/>
<use x="332.74" y="301.00" xlink:href="#hd"/>
<path d="M329.24 301.00v21.90" class="stroke"/>
<use x="332.74" y="307.00" xlink:href="#hd"/>
<use x="348.24" y="295.00" xlink:href="#hd"/>
<path d="M344.74 295.00v27.90" class="stroke"/>
<use x="363.74" y="301.00" xlink:href="#hd"/>
<path d="M360.24 301.00v21.90" class="stroke"/>
<use x="363.74" y="307.00" xlink:href="#hd"/>
<use x="379.24" y="295.00" xlink:href="#hd"/>
<path d="M375.74 295.00v27.90" class="stroke"/>
<use x="394.74" y="301.00" xlink:href="#hd"/>
<path d="M391.24 301.00v21.90" class="stroke"/>
<use x="394.74" y="307.00" xlink:href="#hd"/>
<use x="410.14" y="295.00" xlink:href="#hd"/>
<path d="M406.64 295.00v27.90" class="stroke"/>
<use x="435.14" y="316.00" xlink:href="#hd"/>
<path d="M438.64 316.00v-40.00" class="stroke"/>
<use x="435.14" y="295.00" xlink:href="#hd"/>
<use x="487.84" y="295.00" xlink:href="#hd"/>
<path d="M484.34 295.00v21.00" class="stroke"/>
<path class="fill"
	d="M484.34 316.00c0.6 -5.6 9.6 -9 5.6 -18.4
	1.6 6 -1.3 11.6 -5.6 12.8
"/>
<path class="fill"
	d="M520.64 286.00l44.10 0.00v3.20l-44.10 -0.00"/>
<use x="517.54" y="307.00" xlink:href="#hd"/>
<path d="M521.04 307.00v-20.00" class="stroke"/>
<use x="539.24" y="307.00" xlink:href="#hd"/>
<path d="M542.74 307.00v-20.00" class="stroke"/>
<use x="560.94" y="307.00" xlink:href="#hd"/>
<path d="M564.44 307.00v-20.00" class="stroke"/>
<use x="590.64" y="301.00" xlink:href="#hd"/>
<path d="M587.14 301.00v25.00" class="stroke"/>
<use x="590.64" y="307.00" xlink:href="#hd"/>
<use x="652.74" y="304.00" xlink:href="#r8"/>
<use x="693.14" y="298.00" xlink:href="#hd"/>
<path d="M689.64 298.00v21.00" class="stroke"/>
<use x="757.64" y="295.00" xlink:href="#hd"/>
<path d="M754.14 295.00v21.00" class="stroke"/>
<path class="fill"
	d="M754.14 316.00c0.6 -5.6 9.6 -9 5.6 -18.4
	1.6 6 -1.3 11.6 -5.6 12.8
"/>
<path class="fill"
	d="M801.24 287.70l44.10 10.00v3.20l-44.10 -10.00"/>
<use x="798.14" y="307.00" xlink:href="#hd"/>
<path d="M801.64 307.00v-18.20" class="stroke"/>
<use x="819.84" y="316.00" xlink:href="#hd"/>
<path d="M823.34 316.00v-22.30" class="stroke"/>
<use x="841.54" y="322.00" xlink:href="#hl"/>
<use x="841.54" y="328.00" xlink:href="#hl"/>
<use x="841.54" y="328.00" xlink:href="#hd"/>
<path d="M845.04 328.00v-29.40" class="stroke"/>
</g>
</svg>
