<?xml version="1.0" standalone="no"?>
<!DOCTYPE svg PUBLIC "-//W3C//DTD SVG 1.1//EN"
	"http://www.w3.org/Graphics/SVG/1.1/DTD/svg11.dtd">
<svg xmlns="http://www.w3.org/2000/svg" version="1.1"
	xmlns:xlink="http://www.w3.org/1999/xlink"
	color="black"
	width="757.10px" height="300.73px">
<style type="text/css">
.fill {fill: currentColor}
.stroke {stroke: currentColor; fill: none}
text{white-space: pre}
</style>
<title>./K516f-2-6-12-6-12-3-11-3-5-5-9-10-12-6-6-10.abc (1537) tune 1</title>
<!-- Creator: abcm2ps-8.13.8 -->
<!-- CreationDate: Sep  7, 2017 11:18 -->
<!-- CommandLine: ./K516f-2-6-12-6-12-3-11-3-5-5-9-10-12-6-6-10.abc -O ./K516f-2-6-12-6-12-3-11-3-5-5-9-10-12-6-6-10.svg -g -->
<rect width="100%" height="100%" fill="white"/>
<g stroke-width="0.70" transform="scale(0.867)">
<!-- title: 2-6-12-6-12-3-11-3-5-5-9-10-12-6-6-10 -->
</g>
<g stroke-width="0.70" transform="scale(0.867)" font-family="Times" font-size="20.00">
<text x="436.84" y="22.00" text-anchor="middle">2-6-12-6-12-3-11-3-5-5-9-10-12-6-6-10</text>
</g>
<g stroke-width="0.70" transform="scale(0.867)" font-family="Times" font-size="20.00">
<!-- subtitle: $1K.516f::96:74:10:45:28:46:147:81:90:176:48:82:12:136:1:8::$0 -->
</g>
<g stroke-width="0.70" transform="scale(0.867)" font-family="Courier" font-size="8.00" font-weight="bold">
<text x="436.84" y="41.80" text-anchor="middle">K.516f::96:74:10:45:28:46:147:81:90:176:48:82:12:136:1:8::</text>
</g>
<g stroke-width="0.70" transform="scale(0.867)" font-family="Courier" font-size="8.00" font-weight="bold">
<!-- subtitle: $1Perm. No.: 153722401615608$0 -->
<text x="436.84" y="60.80" text-anchor="middle">Perm. No.: 153722401615608</text>
</g>
<g stroke-width="0.70" transform="scale(0.607)" font-family="Courier" font-size="8.00" font-weight="bold">
<defs>
<ellipse id="hd" rx="4.1" ry="2.9"
	transform="rotate(-20)" class="fill"/>
</defs>
<use x="103.06" y="121.29" xlink:href="#hd"/>
<path d="M106.56 121.29v-21.00" class="stroke"/>
<path class="fill"
	d="M106.56 100.29c0.6 5.6 9.6 9 5.6 18.4
	1.6 -6 -1.3 -11.6 -5.6 -12.8
"/>
</g>
<g stroke-width="0.70" transform="scale(0.867)" font-family="Times" font-size="15.00" font-weight="bold">
<text x="81.24" y="87.00">= 111</text>
<path class="stroke" stroke-width="1"
	d="M11.54 183.00v-82.00"/>
<path class="fill"
	d="M6.54 98.00
	c10.5 1 12 -4.5 12 -3.5c0 1 -3.5 5.5 -8.5 5.5
	v84.00
	c5 0 8.5 4.5 8.5 5.5c0 1 -1.5 -4.5 -12 -3.5"/>
<defs>
<g id="rdots" class="fill">
	<circle cx="0" cy="-9" r="1.2"/>
	<circle cx="0" cy="-15" r="1.2"/>
</g>
</defs>
<use x="70.54" y="125.00" xlink:href="#rdots"/>
<path class="stroke" stroke-width="1"
	d="M66.54 125.00v-24.00"/>
<path class="stroke" stroke-width="3"
	d="M62.04 125.00v-24.00"/>
<use x="70.54" y="183.00" xlink:href="#rdots"/>
<path class="stroke" stroke-width="1"
	d="M66.54 183.00v-58.00"/>
<path class="stroke" stroke-width="3"
	d="M62.04 183.00v-58.00"/>
<path class="stroke" stroke-width="1"
	d="M145.34 125.00v-24.00"/>
<path class="stroke" stroke-width="1"
	d="M145.34 183.00v-58.00"/>
<path class="stroke" stroke-width="1"
	d="M248.74 125.00v-24.00"/>
<path class="stroke" stroke-width="1"
	d="M248.74 183.00v-58.00"/>
<path class="stroke" stroke-width="1"
	d="M352.04 125.00v-24.00"/>
<path class="stroke" stroke-width="1"
	d="M352.04 183.00v-58.00"/>
<path class="stroke" stroke-width="1"
	d="M455.34 125.00v-24.00"/>
<path class="stroke" stroke-width="1"
	d="M455.34 183.00v-58.00"/>
<path class="stroke" stroke-width="1"
	d="M564.54 125.00v-24.00"/>
<path class="stroke" stroke-width="1"
	d="M564.54 183.00v-58.00"/>
<path class="stroke" stroke-width="1"
	d="M658.44 125.00v-24.00"/>
<path class="stroke" stroke-width="1"
	d="M658.44 183.00v-58.00"/>
<path class="stroke" stroke-width="1"
	d="M764.14 125.00v-24.00"/>
<path class="stroke" stroke-width="1"
	d="M764.14 183.00v-58.00"/>
<path class="stroke" stroke-width="3"
	d="M860.54 125.00v-24.00"/>
<path class="stroke" stroke-width="1"
	d="M856.04 125.00v-24.00"/>
<use x="852.04" y="125.00" xlink:href="#rdots"/>
<path class="stroke" stroke-width="3"
	d="M860.54 183.00v-58.00"/>
<path class="stroke" stroke-width="1"
	d="M856.04 183.00v-58.00"/>
<use x="852.04" y="183.00" xlink:href="#rdots"/>
<path d="m11.54 125.00
	h850.50
	M11.54 119.00
	h850.50
	M11.54 113.00
	h850.50
	M11.54 107.00
	h850.50
	M11.54 101.00
	h850.50
	" class="stroke"/>
<path d="m11.54 183.00
	h850.50
	M11.54 177.00
	h850.50
	M11.54 171.00
	h850.50
	M11.54 165.00
	h850.50
	M11.54 159.00
	h850.50
	" class="stroke"/>
</g>
<g stroke-width="0.70" transform="scale(0.867)" font-family="Times" font-size="13.00">
<text x="768.14" y="86.40">1</text>
<path class="stroke"
	d="M764.14 75.00m0 20v-20h89.90v20"/>
<defs>
<path id="utclef" class="fill" d="m-50 -90
	c-72 -41 -72 -158 52 -188
	150 -10 220 188 90 256
	-114 52 -275 0 -293 -136
	-15 -181 93 -229 220 -334
	88 -87 79 -133 62 -210
	-51 33 -94 105 -89 186
	17 267 36 374 49 574
	6 96 -19 134 -77 135
	-80 1 -126 -93 -61 -133
	85 -41 133 101 31 105
	23 17 92 37 90 -92
	-10 -223 -39 -342 -50 -617
	0 -90 0 -162 96 -232
	56 72 63 230 22 289
	-74 106 -257 168 -255 316
	9 153 148 185 252 133
	86 -65 29 -192 -80 -176
	-71 12 -105 67 -59 124"/>
<use id="tclef" transform="translate(0,6) scale(0.045)"
	xlink:href="#utclef"/>
</defs>
<use x="23.54" y="119.00" xlink:href="#tclef"/>
<g font-family="serif" font-size="16" font-weight="bold" font-style="normal"
	transform="translate(42.04,124.50) scale(1.2,1)">
	<text text-anchor="middle">8</text>
	<text y="-12" text-anchor="middle">3</text>
</g>
<path class="fill"
	d="M80.24 131.80l44.60 6.50v-3.20l-44.60 -6.50"/>
<use x="84.14" y="104.00" xlink:href="#hd"/>
<path d="M80.64 104.00v26.80" class="stroke"/>
<use x="106.04" y="110.00" xlink:href="#hd"/>
<path d="M102.54 110.00v24.00" class="stroke"/>
<use x="128.04" y="119.00" xlink:href="#hd"/>
<path d="M124.54 119.00v18.20" class="stroke"/>
<path class="fill"
	d="M154.04 122.80l79.00 9.50v-3.20l-79.00 -9.50"/>
<path class="fill"
	d="M154.44 117.80l78.40 9.40v-3.20l-78.40 -9.40"/>
<defs>
<path id="hl" class="stroke" d="m-6 0h12"/>
</defs>
<use x="157.94" y="95.00" xlink:href="#hl"/>
<use x="157.94" y="89.00" xlink:href="#hl"/>
<use x="157.94" y="89.00" xlink:href="#hd"/>
<path d="M154.44 89.00v32.80" class="stroke"/>
<use x="173.64" y="95.00" xlink:href="#hl"/>
<use x="173.64" y="92.00" xlink:href="#hd"/>
<path d="M170.14 92.00v31.70" class="stroke"/>
<use x="189.34" y="95.00" xlink:href="#hl"/>
<use x="189.34" y="89.00" xlink:href="#hl"/>
<use x="189.34" y="89.00" xlink:href="#hd"/>
<path d="M185.84 89.00v36.60" class="stroke"/>
<use x="204.94" y="98.00" xlink:href="#hd"/>
<path d="M201.44 98.00v29.50" class="stroke"/>
<use x="220.64" y="104.00" xlink:href="#hd"/>
<path d="M217.14 104.00v25.30" class="stroke"/>
<use x="236.24" y="110.00" xlink:href="#hd"/>
<path d="M232.74 110.00v21.20" class="stroke"/>
<path class="fill"
	d="M257.54 138.20l78.90 0.00v-3.20l-78.90 -0.00"/>
<path class="fill"
	d="M257.84 133.20l78.20 0.00v-3.20l-78.20 -0.00"/>
<use x="261.34" y="113.00" xlink:href="#hd"/>
<path d="M257.84 113.00v24.20" class="stroke"/>
<use x="276.94" y="116.00" xlink:href="#hd"/>
<path d="M273.44 116.00v21.20" class="stroke"/>
<use x="292.64" y="113.00" xlink:href="#hd"/>
<path d="M289.14 113.00v24.20" class="stroke"/>
<use x="308.24" y="110.00" xlink:href="#hd"/>
<path d="M304.74 110.00v27.20" class="stroke"/>
<use x="323.94" y="107.00" xlink:href="#hd"/>
<path d="M320.44 107.00v30.20" class="stroke"/>
<use x="339.54" y="113.00" xlink:href="#hd"/>
<path d="M336.04 113.00v24.20" class="stroke"/>
<path class="fill"
	d="M367.74 83.90l78.90 9.80v3.20l-78.90 -9.80"/>
<path class="fill"
	d="M368.14 88.90l78.20 9.70v3.20l-78.20 -9.70"/>
<use x="364.64" y="110.00" xlink:href="#hd"/>
<path d="M368.14 110.00v-25.10" class="stroke"/>
<use x="380.24" y="113.00" xlink:href="#hd"/>
<path d="M383.74 113.00v-26.10" class="stroke"/>
<use x="395.94" y="110.00" xlink:href="#hd"/>
<path d="M399.44 110.00v-21.20" class="stroke"/>
<use x="411.54" y="119.00" xlink:href="#hd"/>
<path d="M415.04 119.00v-28.30" class="stroke"/>
<use x="427.14" y="125.00" xlink:href="#hd"/>
<path d="M430.64 125.00v-32.30" class="stroke"/>
<use x="442.84" y="131.00" xlink:href="#hl"/>
<use x="442.84" y="131.00" xlink:href="#hd"/>
<path d="M446.34 131.00v-36.40" class="stroke"/>
<path class="fill"
	d="M469.94 138.20l78.90 0.00v-3.20l-78.90 -0.00"/>
<path class="fill"
	d="M470.34 133.20l78.20 0.00v-3.20l-78.20 -0.00"/>
<use x="473.84" y="101.00" xlink:href="#hd"/>
<defs>
<path id="usharp" class="fill" d="
	m136 -702
	v890
	h32
	v-890
	m128 840
	h32
	v-888
	h-32
	m-232 286
	v116
	l338 -96
	v-116
	m-338 442
	v116
	l338 -98
	v-114"/>
<use id="sh0" transform="translate(-4,5) scale(0.018)"
	xlink:href="#usharp"/>
</defs>
<use x="464.84" y="101.00" xlink:href="#sh0"/>
<path d="M470.34 101.00v36.20" class="stroke"/>
<use x="489.44" y="107.00" xlink:href="#hd"/>
<path d="M485.94 107.00v30.20" class="stroke"/>
<use x="505.14" y="116.00" xlink:href="#hd"/>
<path d="M501.64 116.00v21.20" class="stroke"/>
<use x="520.74" y="95.00" xlink:href="#hl"/>
<use x="520.74" y="95.00" xlink:href="#hd"/>
<path d="M517.24 95.00v42.20" class="stroke"/>
<use x="536.34" y="101.00" xlink:href="#hd"/>
<path d="M532.84 101.00v36.20" class="stroke"/>
<use x="552.04" y="107.00" xlink:href="#hd"/>
<path d="M548.54 107.00v30.20" class="stroke"/>
<path class="fill"
	d="M573.24 127.10l69.50 8.10v-3.20l-69.50 -8.10"/>
<path class="fill"
	d="M595.54 124.70l46.90 5.50v-3.20l-46.90 -5.50"/>
<use x="577.04" y="98.00" xlink:href="#hd"/>
<path d="M573.54 98.00v28.20" class="stroke"/>
<use x="599.04" y="95.00" xlink:href="#hl"/>
<use x="599.04" y="92.00" xlink:href="#hd"/>
<path d="M595.54 92.00v36.70" class="stroke"/>
<use x="614.64" y="98.00" xlink:href="#hd"/>
<path d="M611.14 98.00v32.60" class="stroke"/>
<use x="630.34" y="107.00" xlink:href="#hd"/>
<path d="M626.84 107.00v25.40" class="stroke"/>
<use x="645.94" y="113.00" xlink:href="#hd"/>
<path d="M642.44 113.00v21.20" class="stroke"/>
<path class="fill"
	d="M667.14 127.00l81.30 0.00v-3.20l-81.30 -0.00"/>
<path class="fill"
	d="M667.54 122.00l80.60 0.00v-3.20l-80.60 -0.00"/>
<use x="671.04" y="104.00" xlink:href="#hd"/>
<path d="M667.54 104.00v22.00" class="stroke"/>
<use x="686.64" y="95.00" xlink:href="#hl"/>
<use x="686.64" y="89.00" xlink:href="#hl"/>
<use x="686.64" y="89.00" xlink:href="#hd"/>
<path d="M683.14 89.00v37.00" class="stroke"/>
<use x="702.34" y="95.00" xlink:href="#hl"/>
<use x="702.34" y="92.00" xlink:href="#hd"/>
<path d="M698.84 92.00v34.00" class="stroke"/>
<use x="718.04" y="98.00" xlink:href="#hd"/>
<path d="M714.54 98.00v28.00" class="stroke"/>
<use x="733.64" y="95.00" xlink:href="#hl"/>
<use x="733.64" y="95.00" xlink:href="#hd"/>
<path d="M730.14 95.00v31.00" class="stroke"/>
<use x="751.64" y="101.00" xlink:href="#hd"/>
<use x="742.64" y="101.00" xlink:href="#sh0"/>
<path d="M748.14 101.00v25.00" class="stroke"/>
<use x="776.74" y="98.00" xlink:href="#hd"/>
<path d="M773.24 98.00v40.00" class="stroke"/>
<use x="776.74" y="119.00" xlink:href="#hd"/>
<use x="776.74" y="113.00" xlink:href="#hd"/>
<use x="776.74" y="107.00" xlink:href="#hd"/>
<defs>
<path id="r8e" class="fill" d="m 0 0
	c-1.5 1.5 -2.4 2 -3.6 2
	2.4 -2.8 -2.8 -4 -2.8 -1.2
	c0 2.7 4.3 2.4 5.9 0.6"/>
<g id="r8">
	<path d="m3.3 -4l-3.4 9.6" class="stroke"/>
	<use x="3.4" y="-4" xlink:href="#r8e"/>
</g>
</defs>
<use x="832.34" y="113.00" xlink:href="#r8"/>
<defs>
<path id="ubclef" class="fill" d="m-200 -87
	c124 -35 222 -78 254 -236
	43 -228 -167 -246 -192 -103
	59 -80 157 22 92 78
	-62 47 -115 -22 -106 -88
	21 -141 270 -136 274 52
	-1 175 -106 264 -322 297
	m357 -250
	c0 -36 51 -34 51 0
	0 37 -51 36 -51 0
	m-2 -129
	c0 -36 51 -34 51 0
	0 38 -51 37 -51 0"/>
<use id="bclef" transform="translate(0,18) scale(0.045)"
	xlink:href="#ubclef"/>
</defs>
<use x="23.54" y="165.00" xlink:href="#bclef"/>
<g font-family="serif" font-size="16" font-weight="bold" font-style="normal"
	transform="translate(42.04,182.50) scale(1.2,1)">
	<text text-anchor="middle">8</text>
	<text y="-12" text-anchor="middle">3</text>
</g>
<use x="84.14" y="174.00" xlink:href="#hd"/>
<path d="M87.64 174.00v-21.00" class="stroke"/>
<use x="128.04" y="171.00" xlink:href="#r8"/>
<use x="157.94" y="168.00" xlink:href="#hd"/>
<path d="M161.44 168.00v-21.00" class="stroke"/>
<use x="220.64" y="171.00" xlink:href="#r8"/>
<use x="261.34" y="162.00" xlink:href="#hd"/>
<path d="M257.84 162.00v21.00" class="stroke"/>
<use x="323.94" y="171.00" xlink:href="#r8"/>
<use x="364.64" y="162.00" xlink:href="#hd"/>
<path d="M361.14 162.00v25.00" class="stroke"/>
<use x="364.64" y="168.00" xlink:href="#hd"/>
<use x="427.14" y="171.00" xlink:href="#r8"/>
<use x="473.84" y="159.00" xlink:href="#hd"/>
<path d="M470.34 159.00v34.00" class="stroke"/>
<use x="473.84" y="174.00" xlink:href="#hd"/>
<use x="536.34" y="171.00" xlink:href="#r8"/>
<use x="577.04" y="177.00" xlink:href="#hd"/>
<path d="M580.54 177.00v-25.00" class="stroke"/>
<use x="577.04" y="171.00" xlink:href="#hd"/>
<use x="630.34" y="171.00" xlink:href="#r8"/>
<path class="fill"
	d="M674.14 147.70l63.30 8.10v3.20l-63.30 -8.10"/>
<use x="671.04" y="174.00" xlink:href="#hd"/>
<path d="M674.54 174.00v-25.20" class="stroke"/>
<use x="702.34" y="171.00" xlink:href="#hd"/>
<path d="M705.84 171.00v-18.20" class="stroke"/>
<use x="733.64" y="189.00" xlink:href="#hl"/>
<use x="733.64" y="192.00" xlink:href="#hd"/>
<path d="M737.14 192.00v-35.20" class="stroke"/>
<path class="fill"
	d="M772.94 202.20l71.90 0.00v-3.20l-71.90 -0.00"/>
<path class="fill"
	d="M795.14 197.20l49.30 0.00v-3.20l-49.30 -0.00"/>
<use x="776.74" y="183.00" xlink:href="#hd"/>
<path d="M773.24 183.00v18.20" class="stroke"/>
<use x="798.64" y="162.00" xlink:href="#hd"/>
<path d="M795.14 162.00v39.20" class="stroke"/>
<use x="816.64" y="165.00" xlink:href="#hd"/>
<defs>
<path id="unat" class="fill" d="
	m96 -750
	h-32
	v716
	l32 -8
	182 -54
	v282
	h32
	v-706
	l-34 10
	-180 50
	v-290
	m0 592
	v-190
	l182 -52
	v188"/>
<use id="nt0" transform="translate(-3,5) scale(0.018)"
	xlink:href="#unat"/>
</defs>
<use x="807.64" y="165.00" xlink:href="#nt0"/>
<path d="M813.14 165.00v36.20" class="stroke"/>
<use x="832.34" y="168.00" xlink:href="#hd"/>
<path d="M828.84 168.00v33.20" class="stroke"/>
<use x="847.94" y="171.00" xlink:href="#hd"/>
<path d="M844.44 171.00v30.20" class="stroke"/>
<use x="157.94" y="174.00" xlink:href="#hd"/>
<path d="M154.44 174.00v21.00" class="stroke"/>
</g>
<g stroke-width="0.70" transform="scale(0.867)" font-family="Times" font-size="13.00">
<path class="stroke" stroke-width="1"
	d="M11.54 324.00v-90.00"/>
<path class="fill"
	d="M6.54 231.00
	c10.5 1 12 -4.5 12 -3.5c0 1 -3.5 5.5 -8.5 5.5
	v92.00
	c5 0 8.5 4.5 8.5 5.5c0 1 -1.5 -4.5 -12 -3.5"/>
<use x="146.54" y="258.00" xlink:href="#rdots"/>
<path class="stroke" stroke-width="1"
	d="M142.54 258.00v-24.00"/>
<path class="stroke" stroke-width="3"
	d="M138.04 258.00v-24.00"/>
<use x="146.54" y="324.00" xlink:href="#rdots"/>
<path class="stroke" stroke-width="1"
	d="M142.54 324.00v-66.00"/>
<path class="stroke" stroke-width="3"
	d="M138.04 324.00v-66.00"/>
<path class="stroke" stroke-width="1"
	d="M256.44 258.00v-24.00"/>
<path class="stroke" stroke-width="1"
	d="M256.44 324.00v-66.00"/>
<path class="stroke" stroke-width="1"
	d="M359.14 258.00v-24.00"/>
<path class="stroke" stroke-width="1"
	d="M359.14 324.00v-66.00"/>
<path class="stroke" stroke-width="1"
	d="M452.74 258.00v-24.00"/>
<path class="stroke" stroke-width="1"
	d="M452.74 324.00v-66.00"/>
<path class="stroke" stroke-width="1"
	d="M535.54 258.00v-24.00"/>
<path class="stroke" stroke-width="1"
	d="M535.54 324.00v-66.00"/>
<path class="stroke" stroke-width="1"
	d="M609.04 258.00v-24.00"/>
<path class="stroke" stroke-width="1"
	d="M609.04 324.00v-66.00"/>
<path class="stroke" stroke-width="1"
	d="M711.94 258.00v-24.00"/>
<path class="stroke" stroke-width="1"
	d="M711.94 324.00v-66.00"/>
<path class="stroke" stroke-width="1"
	d="M785.34 258.00v-24.00"/>
<path class="stroke" stroke-width="1"
	d="M785.34 324.00v-66.00"/>
<path class="stroke" stroke-width="3"
	d="M860.54 258.00v-24.00"/>
<path class="stroke" stroke-width="1"
	d="M856.04 258.00v-24.00"/>
<use x="852.04" y="258.00" xlink:href="#rdots"/>
<path class="stroke" stroke-width="3"
	d="M860.54 324.00v-66.00"/>
<path class="stroke" stroke-width="1"
	d="M856.04 324.00v-66.00"/>
<use x="852.04" y="324.00" xlink:href="#rdots"/>
<path d="m11.54 258.00
	h850.50
	M11.54 252.00
	h850.50
	M11.54 246.00
	h850.50
	M11.54 240.00
	h850.50
	M11.54 234.00
	h850.50
	" class="stroke"/>
<path d="m11.54 324.00
	h850.50
	M11.54 318.00
	h850.50
	M11.54 312.00
	h850.50
	M11.54 306.00
	h850.50
	M11.54 300.00
	h850.50
	" class="stroke"/>
<text x="47.54" y="219.40">2</text>
<path class="stroke"
	d="M43.54 208.00m0 20v-20h92.00v20"/>
<use x="23.54" y="252.00" xlink:href="#tclef"/>
<use x="56.04" y="231.00" xlink:href="#hd"/>
<path d="M52.54 231.00v40.00" class="stroke"/>
<use x="56.04" y="252.00" xlink:href="#hd"/>
<use x="56.04" y="246.00" xlink:href="#hd"/>
<use x="56.04" y="240.00" xlink:href="#hd"/>
<use x="111.44" y="246.00" xlink:href="#r8"/>
<path class="fill"
	d="M162.14 258.20l78.60 0.00v-3.20l-78.60 -0.00"/>
<path class="fill"
	d="M162.54 253.20l77.90 0.00v-3.20l-77.90 -0.00"/>
<use x="166.04" y="234.00" xlink:href="#hd"/>
<use x="157.04" y="234.00" xlink:href="#sh0"/>
<path d="M162.54 234.00v23.20" class="stroke"/>
<use x="181.54" y="228.00" xlink:href="#hl"/>
<use x="181.54" y="228.00" xlink:href="#hd"/>
<path d="M178.04 228.00v29.20" class="stroke"/>
<use x="197.14" y="228.00" xlink:href="#hl"/>
<use x="197.14" y="222.00" xlink:href="#hl"/>
<use x="197.14" y="219.00" xlink:href="#hd"/>
<path d="M193.64 219.00v38.20" class="stroke"/>
<use x="212.84" y="228.00" xlink:href="#hl"/>
<use x="212.84" y="228.00" xlink:href="#hd"/>
<path d="M209.34 228.00v29.20" class="stroke"/>
<use x="228.34" y="234.00" xlink:href="#hd"/>
<path d="M224.84 234.00v23.20" class="stroke"/>
<use x="243.94" y="228.00" xlink:href="#hl"/>
<use x="243.94" y="228.00" xlink:href="#hd"/>
<path d="M240.44 228.00v29.20" class="stroke"/>
<path class="fill"
	d="M265.04 260.00l78.50 0.00v-3.20l-78.50 -0.00"/>
<path class="fill"
	d="M265.44 255.00l77.80 0.00v-3.20l-77.80 -0.00"/>
<use x="268.94" y="228.00" xlink:href="#hl"/>
<use x="268.94" y="228.00" xlink:href="#hd"/>
<path d="M265.44 228.00v31.00" class="stroke"/>
<use x="284.44" y="231.00" xlink:href="#hd"/>
<path d="M280.94 231.00v28.00" class="stroke"/>
<use x="300.04" y="228.00" xlink:href="#hl"/>
<use x="300.04" y="225.00" xlink:href="#hd"/>
<path d="M296.54 225.00v34.00" class="stroke"/>
<use x="315.54" y="231.00" xlink:href="#hd"/>
<path d="M312.04 231.00v28.00" class="stroke"/>
<use x="331.14" y="240.00" xlink:href="#hd"/>
<path d="M327.64 240.00v19.00" class="stroke"/>
<use x="346.64" y="231.00" xlink:href="#hd"/>
<path d="M343.14 231.00v28.00" class="stroke"/>
<path class="fill"
	d="M367.84 267.60l69.20 -7.40v-3.20l-69.20 7.40"/>
<path class="fill"
	d="M390.04 260.20l46.70 -5.00v-3.20l-46.70 5.00"/>
<use x="371.64" y="237.00" xlink:href="#hd"/>
<path d="M368.14 237.00v29.50" class="stroke"/>
<use x="393.54" y="243.00" xlink:href="#hd"/>
<path d="M390.04 243.00v21.20" class="stroke"/>
<use x="409.04" y="237.00" xlink:href="#hd"/>
<path d="M405.54 237.00v25.50" class="stroke"/>
<use x="424.64" y="231.00" xlink:href="#hd"/>
<path d="M421.14 231.00v29.90" class="stroke"/>
<use x="440.24" y="228.00" xlink:href="#hl"/>
<use x="440.24" y="222.00" xlink:href="#hl"/>
<use x="440.24" y="222.00" xlink:href="#hd"/>
<path d="M436.74 222.00v37.20" class="stroke"/>
<path class="fill"
	d="M461.34 273.70l53.60 -4.30v-3.20l-53.60 4.30"/>
<path class="fill"
	d="M461.74 268.70l15.60 -1.30v-3.20l-15.60 1.30"/>
<use x="465.24" y="240.00" xlink:href="#hd"/>
<path d="M461.74 240.00v32.70" class="stroke"/>
<use x="480.74" y="246.00" xlink:href="#hd"/>
<path d="M477.24 246.00v25.50" class="stroke"/>
<use x="496.34" y="252.00" xlink:href="#hd"/>
<path d="M492.84 252.00v18.20" class="stroke"/>
<use x="518.14" y="231.00" xlink:href="#hd"/>
<path d="M514.64 231.00v37.40" class="stroke"/>
<path class="fill"
	d="M551.24 224.00l44.40 0.00v3.20l-44.40 -0.00"/>
<use x="548.04" y="258.00" xlink:href="#hd"/>
<path d="M551.54 258.00v-33.00" class="stroke"/>
<use x="548.04" y="243.00" xlink:href="#hd"/>
<use x="569.94" y="258.00" xlink:href="#hd"/>
<path d="M573.44 258.00v-33.00" class="stroke"/>
<use x="569.94" y="243.00" xlink:href="#hd"/>
<use x="591.74" y="258.00" xlink:href="#hd"/>
<path d="M595.24 258.00v-33.00" class="stroke"/>
<use x="591.74" y="243.00" xlink:href="#hd"/>
<path class="fill"
	d="M617.64 255.80l78.60 9.50v-3.20l-78.60 -9.50"/>
<path class="fill"
	d="M618.04 250.80l77.90 9.40v-3.20l-77.90 -9.40"/>
<use x="621.54" y="228.00" xlink:href="#hl"/>
<use x="621.54" y="222.00" xlink:href="#hl"/>
<use x="621.54" y="222.00" xlink:href="#hd"/>
<path d="M618.04 222.00v32.80" class="stroke"/>
<use x="637.14" y="228.00" xlink:href="#hl"/>
<use x="637.14" y="225.00" xlink:href="#hd"/>
<path d="M633.64 225.00v31.70" class="stroke"/>
<use x="652.74" y="228.00" xlink:href="#hl"/>
<use x="652.74" y="222.00" xlink:href="#hl"/>
<use x="652.74" y="222.00" xlink:href="#hd"/>
<path d="M649.24 222.00v36.60" class="stroke"/>
<use x="668.34" y="231.00" xlink:href="#hd"/>
<path d="M664.84 231.00v29.50" class="stroke"/>
<use x="683.84" y="237.00" xlink:href="#hd"/>
<path d="M680.34 237.00v25.30" class="stroke"/>
<use x="699.44" y="243.00" xlink:href="#hd"/>
<path d="M695.94 243.00v21.20" class="stroke"/>
<path class="fill"
	d="M720.54 258.20l44.40 0.00v-3.20l-44.40 -0.00"/>
<use x="724.44" y="234.00" xlink:href="#hd"/>
<path d="M720.94 234.00v23.20" class="stroke"/>
<use x="746.24" y="240.00" xlink:href="#hd"/>
<path d="M742.74 240.00v17.20" class="stroke"/>
<use x="768.14" y="231.00" xlink:href="#hd"/>
<path d="M764.64 231.00v26.20" class="stroke"/>
<use x="797.84" y="243.00" xlink:href="#hd"/>
<path d="M794.34 243.00v21.00" class="stroke"/>
<use x="841.54" y="246.00" xlink:href="#r8"/>
<use x="23.54" y="306.00" xlink:href="#bclef"/>
<path class="fill"
	d="M52.24 343.20l71.60 -5.10v-3.20l-71.60 5.10"/>
<path class="fill"
	d="M74.34 336.60l49.10 -3.50v-3.20l-49.10 3.50"/>
<use x="56.04" y="324.00" xlink:href="#hd"/>
<path d="M52.54 324.00v18.20" class="stroke"/>
<use x="77.84" y="297.00" xlink:href="#hd"/>
<path d="M74.34 297.00v43.60" class="stroke"/>
<use x="93.44" y="303.00" xlink:href="#hd"/>
<path d="M89.94 303.00v36.50" class="stroke"/>
<use x="111.44" y="306.00" xlink:href="#hd"/>
<use x="102.44" y="306.00" xlink:href="#sh0"/>
<path d="M107.94 306.00v32.20" class="stroke"/>
<use x="127.04" y="309.00" xlink:href="#hd"/>
<path d="M123.54 309.00v28.10" class="stroke"/>
<use x="166.04" y="300.00" xlink:href="#hd"/>
<path d="M162.54 300.00v34.00" class="stroke"/>
<use x="166.04" y="315.00" xlink:href="#hd"/>
<use x="228.34" y="300.00" xlink:href="#hd"/>
<path d="M224.84 300.00v34.00" class="stroke"/>
<path class="fill"
	d="M224.84 334.00c0.6 -5.6 9.6 -9 5.6 -18.4
	1.6 6 -1.3 11.6 -5.6 12.8
"/>
<use x="228.34" y="315.00" xlink:href="#hd"/>
<use x="268.94" y="318.00" xlink:href="#hd"/>
<path d="M272.44 318.00v-25.00" class="stroke"/>
<use x="268.94" y="312.00" xlink:href="#hd"/>
<use x="331.14" y="318.00" xlink:href="#hd"/>
<path d="M334.64 318.00v-25.00" class="stroke"/>
<path class="fill"
	d="M334.64 293.00c0.6 5.6 9.6 9 5.6 18.4
	1.6 -6 -1.3 -11.6 -5.6 -12.8
"/>
<use x="331.14" y="312.00" xlink:href="#hd"/>
<use x="371.64" y="303.00" xlink:href="#hd"/>
<path d="M368.14 303.00v31.00" class="stroke"/>
<use x="371.64" y="315.00" xlink:href="#hd"/>
<use x="424.64" y="309.00" xlink:href="#hd"/>
<path d="M421.14 309.00v25.00" class="stroke"/>
<path class="fill"
	d="M421.14 334.00c0.6 -5.6 9.6 -9 5.6 -18.4
	1.6 6 -1.3 11.6 -5.6 12.8
"/>
<use x="424.64" y="315.00" xlink:href="#hd"/>
<use x="465.24" y="303.00" xlink:href="#hd"/>
<path d="M468.74 303.00v-21.00" class="stroke"/>
<use x="518.14" y="318.00" xlink:href="#hd"/>
<path d="M521.64 318.00v-25.00" class="stroke"/>
<path class="fill"
	d="M521.64 293.00c0.6 5.6 9.6 9 5.6 18.4
	1.6 -6 -1.3 -11.6 -5.6 -12.8
"/>
<use x="518.14" y="312.00" xlink:href="#hd"/>
<path class="fill"
	d="M551.24 294.00l44.40 0.00v3.20l-44.40 -0.00"/>
<use x="548.04" y="315.00" xlink:href="#hd"/>
<path d="M551.54 315.00v-20.00" class="stroke"/>
<use x="569.94" y="315.00" xlink:href="#hd"/>
<path d="M573.44 315.00v-20.00" class="stroke"/>
<use x="591.74" y="315.00" xlink:href="#hd"/>
<path d="M595.24 315.00v-20.00" class="stroke"/>
<use x="621.54" y="309.00" xlink:href="#hd"/>
<path d="M618.04 309.00v25.00" class="stroke"/>
<use x="621.54" y="315.00" xlink:href="#hd"/>
<use x="683.84" y="312.00" xlink:href="#r8"/>
<path class="fill"
	d="M720.54 331.20l44.40 0.00v-3.20l-44.40 -0.00"/>
<use x="724.44" y="306.00" xlink:href="#hd"/>
<path d="M720.94 306.00v24.20" class="stroke"/>
<use x="746.24" y="312.00" xlink:href="#hd"/>
<path d="M742.74 312.00v18.20" class="stroke"/>
<use x="768.14" y="303.00" xlink:href="#hd"/>
<path d="M764.64 303.00v27.20" class="stroke"/>
<path class="fill"
	d="M801.04 295.70l44.40 10.00v3.20l-44.40 -10.00"/>
<use x="797.84" y="315.00" xlink:href="#hd"/>
<path d="M801.34 315.00v-18.20" class="stroke"/>
<use x="819.74" y="324.00" xlink:href="#hd"/>
<path d="M823.24 324.00v-22.30" class="stroke"/>
<use x="841.54" y="330.00" xlink:href="#hl"/>
<use x="841.54" y="336.00" xlink:href="#hl"/>
<use x="841.54" y="336.00" xlink:href="#hd"/>
<path d="M845.04 336.00v-29.30" class="stroke"/>
<use x="465.24" y="318.00" xlink:href="#hd"/>
<path d="M461.74 318.00v21.00" class="stroke"/>
</g>
</svg>
