<?xml version="1.0" standalone="no"?>
<!DOCTYPE svg PUBLIC "-//W3C//DTD SVG 1.1//EN"
	"http://www.w3.org/Graphics/SVG/1.1/DTD/svg11.dtd">
<svg xmlns="http://www.w3.org/2000/svg" version="1.1"
	xmlns:xlink="http://www.w3.org/1999/xlink"
	color="black"
	width="757.10px" height="293.80px">
<style type="text/css">
.fill {fill: currentColor}
.stroke {stroke: currentColor; fill: none}
text{white-space: pre}
</style>
<title>./K516f-2-10-4-9-8-7-8-2-7-9-2-2-5-12-8-5.abc (2393) tune 1</title>
<!-- Creator: abcm2ps-8.13.8 -->
<!-- CreationDate: Sep  7, 2017 11:19 -->
<!-- CommandLine: ./K516f-2-10-4-9-8-7-8-2-7-9-2-2-5-12-8-5.abc -O ./K516f-2-10-4-9-8-7-8-2-7-9-2-2-5-12-8-5.svg -g -->
<rect width="100%" height="100%" fill="white"/>
<g stroke-width="0.70" transform="scale(0.867)">
<!-- title: 2-10-4-9-8-7-8-2-7-9-2-2-5-12-8-5 -->
</g>
<g stroke-width="0.70" transform="scale(0.867)" font-family="Times" font-size="20.00">
<text x="436.84" y="22.00" text-anchor="middle">2-10-4-9-8-7-8-2-7-9-2-2-5-12-8-5</text>
</g>
<g stroke-width="0.70" transform="scale(0.867)" font-family="Times" font-size="20.00">
<!-- subtitle: $1K.516f::96:142:158:50:99:68:21:30:138:88:26:9:67:124:89:170::$0 -->
</g>
<g stroke-width="0.70" transform="scale(0.867)" font-family="Courier" font-size="8.00" font-weight="bold">
<text x="436.84" y="41.80" text-anchor="middle">K.516f::96:142:158:50:99:68:21:30:138:88:26:9:67:124:89:170::</text>
</g>
<g stroke-width="0.70" transform="scale(0.867)" font-family="Courier" font-size="8.00" font-weight="bold">
<!-- subtitle: $1Perm. No.: 239378101122766$0 -->
<text x="436.84" y="60.80" text-anchor="middle">Perm. No.: 239378101122766</text>
</g>
<g stroke-width="0.70" transform="scale(0.607)" font-family="Courier" font-size="8.00" font-weight="bold">
<defs>
<ellipse id="hd" rx="4.1" ry="2.9"
	transform="rotate(-20)" class="fill"/>
</defs>
<use x="103.06" y="121.29" xlink:href="#hd"/>
<path d="M106.56 121.29v-21.00" class="stroke"/>
<path class="fill"
	d="M106.56 100.29c0.6 5.6 9.6 9 5.6 18.4
	1.6 -6 -1.3 -11.6 -5.6 -12.8
"/>
</g>
<g stroke-width="0.70" transform="scale(0.867)" font-family="Times" font-size="15.00" font-weight="bold">
<text x="81.24" y="87.00">= 111</text>
<path class="stroke" stroke-width="1"
	d="M11.54 183.00v-82.00"/>
<path class="fill"
	d="M6.54 98.00
	c10.5 1 12 -4.5 12 -3.5c0 1 -3.5 5.5 -8.5 5.5
	v84.00
	c5 0 8.5 4.5 8.5 5.5c0 1 -1.5 -4.5 -12 -3.5"/>
<defs>
<g id="rdots" class="fill">
	<circle cx="0" cy="-9" r="1.2"/>
	<circle cx="0" cy="-15" r="1.2"/>
</g>
</defs>
<use x="70.54" y="125.00" xlink:href="#rdots"/>
<path class="stroke" stroke-width="1"
	d="M66.54 125.00v-24.00"/>
<path class="stroke" stroke-width="3"
	d="M62.04 125.00v-24.00"/>
<use x="70.54" y="183.00" xlink:href="#rdots"/>
<path class="stroke" stroke-width="1"
	d="M66.54 183.00v-58.00"/>
<path class="stroke" stroke-width="3"
	d="M62.04 183.00v-58.00"/>
<path class="stroke" stroke-width="1"
	d="M155.64 125.00v-24.00"/>
<path class="stroke" stroke-width="1"
	d="M155.64 183.00v-58.00"/>
<path class="stroke" stroke-width="1"
	d="M239.74 125.00v-24.00"/>
<path class="stroke" stroke-width="1"
	d="M239.74 183.00v-58.00"/>
<path class="stroke" stroke-width="1"
	d="M346.34 125.00v-24.00"/>
<path class="stroke" stroke-width="1"
	d="M346.34 183.00v-58.00"/>
<path class="stroke" stroke-width="1"
	d="M440.84 125.00v-24.00"/>
<path class="stroke" stroke-width="1"
	d="M440.84 183.00v-58.00"/>
<path class="stroke" stroke-width="1"
	d="M529.44 125.00v-24.00"/>
<path class="stroke" stroke-width="1"
	d="M529.44 183.00v-58.00"/>
<path class="stroke" stroke-width="1"
	d="M636.04 125.00v-24.00"/>
<path class="stroke" stroke-width="1"
	d="M636.04 183.00v-58.00"/>
<path class="stroke" stroke-width="1"
	d="M753.24 125.00v-24.00"/>
<path class="stroke" stroke-width="1"
	d="M753.24 183.00v-58.00"/>
<path class="stroke" stroke-width="3"
	d="M860.54 125.00v-24.00"/>
<path class="stroke" stroke-width="1"
	d="M856.04 125.00v-24.00"/>
<use x="852.04" y="125.00" xlink:href="#rdots"/>
<path class="stroke" stroke-width="3"
	d="M860.54 183.00v-58.00"/>
<path class="stroke" stroke-width="1"
	d="M856.04 183.00v-58.00"/>
<use x="852.04" y="183.00" xlink:href="#rdots"/>
<path d="m11.54 125.00
	h850.50
	M11.54 119.00
	h850.50
	M11.54 113.00
	h850.50
	M11.54 107.00
	h850.50
	M11.54 101.00
	h850.50
	" class="stroke"/>
<path d="m11.54 183.00
	h850.50
	M11.54 177.00
	h850.50
	M11.54 171.00
	h850.50
	M11.54 165.00
	h850.50
	M11.54 159.00
	h850.50
	" class="stroke"/>
</g>
<g stroke-width="0.70" transform="scale(0.867)" font-family="Times" font-size="13.00">
<text x="757.24" y="86.40">1</text>
<path class="stroke"
	d="M753.24 75.00m0 20v-20h100.80v20"/>
<defs>
<path id="utclef" class="fill" d="m-50 -90
	c-72 -41 -72 -158 52 -188
	150 -10 220 188 90 256
	-114 52 -275 0 -293 -136
	-15 -181 93 -229 220 -334
	88 -87 79 -133 62 -210
	-51 33 -94 105 -89 186
	17 267 36 374 49 574
	6 96 -19 134 -77 135
	-80 1 -126 -93 -61 -133
	85 -41 133 101 31 105
	23 17 92 37 90 -92
	-10 -223 -39 -342 -50 -617
	0 -90 0 -162 96 -232
	56 72 63 230 22 289
	-74 106 -257 168 -255 316
	9 153 148 185 252 133
	86 -65 29 -192 -80 -176
	-71 12 -105 67 -59 124"/>
<use id="tclef" transform="translate(0,6) scale(0.045)"
	xlink:href="#utclef"/>
</defs>
<use x="23.54" y="119.00" xlink:href="#tclef"/>
<g font-family="serif" font-size="16" font-weight="bold" font-style="normal"
	transform="translate(42.04,124.50) scale(1.2,1)">
	<text text-anchor="middle">8</text>
	<text y="-12" text-anchor="middle">3</text>
</g>
<path class="fill"
	d="M81.74 131.50l51.10 6.70v-3.20l-51.10 -6.70"/>
<use x="85.54" y="104.00" xlink:href="#hd"/>
<path d="M82.04 104.00v26.60" class="stroke"/>
<use x="110.74" y="110.00" xlink:href="#hd"/>
<path d="M107.24 110.00v23.90" class="stroke"/>
<use x="136.04" y="119.00" xlink:href="#hd"/>
<path d="M132.54 119.00v18.20" class="stroke"/>
<path class="fill"
	d="M165.84 139.80l51.10 -3.20v-3.20l-51.10 3.20"/>
<use x="169.64" y="110.00" xlink:href="#hd"/>
<path d="M166.14 110.00v28.80" class="stroke"/>
<use x="194.84" y="119.00" xlink:href="#hd"/>
<path d="M191.34 119.00v18.20" class="stroke"/>
<use x="220.14" y="104.00" xlink:href="#hd"/>
<path d="M216.64 104.00v31.60" class="stroke"/>
<path class="fill"
	d="M256.94 84.80l79.40 0.00v3.20l-79.40 -0.00"/>
<path class="fill"
	d="M282.44 89.80l53.50 0.00v3.20l-53.50 -0.00"/>
<use x="253.74" y="113.00" xlink:href="#hd"/>
<path d="M257.24 113.00v-27.20" class="stroke"/>
<use x="278.94" y="107.00" xlink:href="#hd"/>
<path d="M282.44 107.00v-21.20" class="stroke"/>
<use x="296.84" y="113.00" xlink:href="#hd"/>
<path d="M300.34 113.00v-27.20" class="stroke"/>
<use x="314.64" y="116.00" xlink:href="#hd"/>
<path d="M318.14 116.00v-30.20" class="stroke"/>
<use x="332.44" y="119.00" xlink:href="#hd"/>
<path d="M335.94 119.00v-33.20" class="stroke"/>
<path class="fill"
	d="M356.54 133.50l61.60 4.70v-3.20l-61.60 -4.70"/>
<path class="fill"
	d="M382.04 130.50l17.80 1.40v-3.20l-17.80 -1.40"/>
<use x="360.34" y="110.00" xlink:href="#hd"/>
<path d="M356.84 110.00v22.50" class="stroke"/>
<use x="385.54" y="104.00" xlink:href="#hd"/>
<path d="M382.04 104.00v30.50" class="stroke"/>
<use x="403.44" y="110.00" xlink:href="#hd"/>
<path d="M399.94 110.00v25.80" class="stroke"/>
<use x="421.24" y="119.00" xlink:href="#hd"/>
<path d="M417.74 119.00v18.20" class="stroke"/>
<path class="fill"
	d="M455.54 123.00l51.10 3.20v-3.20l-51.10 -3.20"/>
<use x="459.34" y="101.00" xlink:href="#hd"/>
<defs>
<path id="usharp" class="fill" d="
	m136 -702
	v890
	h32
	v-890
	m128 840
	h32
	v-888
	h-32
	m-232 286
	v116
	l338 -96
	v-116
	m-338 442
	v116
	l338 -98
	v-114"/>
<use id="sh0" transform="translate(-4,5) scale(0.018)"
	xlink:href="#usharp"/>
</defs>
<use x="450.34" y="101.00" xlink:href="#sh0"/>
<path d="M455.84 101.00v21.00" class="stroke"/>
<defs>
<path id="hl" class="stroke" d="m-6 0h12"/>
</defs>
<use x="484.64" y="95.00" xlink:href="#hl"/>
<use x="484.64" y="95.00" xlink:href="#hd"/>
<path d="M481.14 95.00v28.60" class="stroke"/>
<use x="509.84" y="107.00" xlink:href="#hd"/>
<path d="M506.34 107.00v18.20" class="stroke"/>
<path class="fill"
	d="M539.64 127.00l79.40 0.00v-3.20l-79.40 -0.00"/>
<path class="fill"
	d="M565.14 122.00l53.50 0.00v-3.20l-53.50 -0.00"/>
<use x="543.44" y="98.00" xlink:href="#hd"/>
<path d="M539.94 98.00v28.00" class="stroke"/>
<use x="568.64" y="95.00" xlink:href="#hl"/>
<use x="568.64" y="92.00" xlink:href="#hd"/>
<path d="M565.14 92.00v34.00" class="stroke"/>
<use x="586.54" y="98.00" xlink:href="#hd"/>
<path d="M583.04 98.00v28.00" class="stroke"/>
<use x="604.34" y="107.00" xlink:href="#hd"/>
<path d="M600.84 107.00v19.00" class="stroke"/>
<use x="622.14" y="98.00" xlink:href="#hd"/>
<path d="M618.64 98.00v28.00" class="stroke"/>
<path class="fill"
	d="M646.24 138.20l90.00 0.00v-3.20l-90.00 -0.00"/>
<path class="fill"
	d="M646.54 133.20l89.30 0.00v-3.20l-89.30 -0.00"/>
<use x="650.04" y="110.00" xlink:href="#hd"/>
<path d="M646.54 110.00v27.20" class="stroke"/>
<use x="667.94" y="104.00" xlink:href="#hd"/>
<path d="M664.44 104.00v33.20" class="stroke"/>
<use x="685.74" y="98.00" xlink:href="#hd"/>
<path d="M682.24 98.00v39.20" class="stroke"/>
<use x="703.54" y="107.00" xlink:href="#hd"/>
<path d="M700.04 107.00v30.20" class="stroke"/>
<use x="721.44" y="116.00" xlink:href="#hd"/>
<path d="M717.94 116.00v21.20" class="stroke"/>
<use x="739.44" y="101.00" xlink:href="#hd"/>
<use x="730.44" y="101.00" xlink:href="#sh0"/>
<path d="M735.94 101.00v36.20" class="stroke"/>
<use x="767.34" y="98.00" xlink:href="#hd"/>
<path d="M763.84 98.00v40.00" class="stroke"/>
<use x="767.34" y="119.00" xlink:href="#hd"/>
<use x="767.34" y="113.00" xlink:href="#hd"/>
<use x="767.34" y="107.00" xlink:href="#hd"/>
<defs>
<path id="r8e" class="fill" d="m 0 0
	c-1.5 1.5 -2.4 2 -3.6 2
	2.4 -2.8 -2.8 -4 -2.8 -1.2
	c0 2.7 4.3 2.4 5.9 0.6"/>
<g id="r8">
	<path d="m3.3 -4l-3.4 9.6" class="stroke"/>
	<use x="3.4" y="-4" xlink:href="#r8e"/>
</g>
</defs>
<use x="828.34" y="113.00" xlink:href="#r8"/>
<defs>
<path id="ubclef" class="fill" d="m-200 -87
	c124 -35 222 -78 254 -236
	43 -228 -167 -246 -192 -103
	59 -80 157 22 92 78
	-62 47 -115 -22 -106 -88
	21 -141 270 -136 274 52
	-1 175 -106 264 -322 297
	m357 -250
	c0 -36 51 -34 51 0
	0 37 -51 36 -51 0
	m-2 -129
	c0 -36 51 -34 51 0
	0 38 -51 37 -51 0"/>
<use id="bclef" transform="translate(0,18) scale(0.045)"
	xlink:href="#ubclef"/>
</defs>
<use x="23.54" y="165.00" xlink:href="#bclef"/>
<g font-family="serif" font-size="16" font-weight="bold" font-style="normal"
	transform="translate(42.04,182.50) scale(1.2,1)">
	<text text-anchor="middle">8</text>
	<text y="-12" text-anchor="middle">3</text>
</g>
<use x="85.54" y="174.00" xlink:href="#hd"/>
<path d="M89.04 174.00v-21.00" class="stroke"/>
<use x="136.04" y="171.00" xlink:href="#r8"/>
<use x="169.64" y="168.00" xlink:href="#hd"/>
<path d="M166.14 168.00v25.00" class="stroke"/>
<use x="169.64" y="174.00" xlink:href="#hd"/>
<use x="220.14" y="171.00" xlink:href="#r8"/>
<use x="253.74" y="162.00" xlink:href="#hd"/>
<path d="M250.24 162.00v21.00" class="stroke"/>
<use x="314.64" y="171.00" xlink:href="#r8"/>
<use x="360.34" y="162.00" xlink:href="#hd"/>
<path d="M356.84 162.00v25.00" class="stroke"/>
<use x="360.34" y="168.00" xlink:href="#hd"/>
<use x="421.24" y="171.00" xlink:href="#r8"/>
<use x="459.34" y="159.00" xlink:href="#hd"/>
<path d="M455.84 159.00v34.00" class="stroke"/>
<use x="459.34" y="174.00" xlink:href="#hd"/>
<use x="509.84" y="159.00" xlink:href="#hd"/>
<path d="M506.34 159.00v34.00" class="stroke"/>
<path class="fill"
	d="M506.34 193.00c0.6 -5.6 9.6 -9 5.6 -18.4
	1.6 6 -1.3 11.6 -5.6 12.8
"/>
<use x="509.84" y="174.00" xlink:href="#hd"/>
<use x="543.44" y="177.00" xlink:href="#hd"/>
<path d="M546.94 177.00v-21.00" class="stroke"/>
<use x="604.34" y="171.00" xlink:href="#r8"/>
<path class="fill"
	d="M653.24 147.60l72.00 8.40v3.20l-72.00 -8.40"/>
<use x="650.04" y="174.00" xlink:href="#hd"/>
<path d="M653.54 174.00v-25.30" class="stroke"/>
<use x="685.74" y="171.00" xlink:href="#hd"/>
<path d="M689.24 171.00v-18.20" class="stroke"/>
<use x="721.44" y="189.00" xlink:href="#hl"/>
<use x="721.44" y="192.00" xlink:href="#hd"/>
<path d="M724.94 192.00v-35.10" class="stroke"/>
<path class="fill"
	d="M763.44 202.20l79.60 0.00v-3.20l-79.60 -0.00"/>
<path class="fill"
	d="M789.04 197.20l53.70 0.00v-3.20l-53.70 -0.00"/>
<use x="767.34" y="183.00" xlink:href="#hd"/>
<path d="M763.84 183.00v18.20" class="stroke"/>
<use x="792.54" y="162.00" xlink:href="#hd"/>
<path d="M789.04 162.00v39.20" class="stroke"/>
<use x="810.54" y="165.00" xlink:href="#hd"/>
<defs>
<path id="unat" class="fill" d="
	m96 -750
	h-32
	v716
	l32 -8
	182 -54
	v282
	h32
	v-706
	l-34 10
	-180 50
	v-290
	m0 592
	v-190
	l182 -52
	v188"/>
<use id="nt0" transform="translate(-3,5) scale(0.018)"
	xlink:href="#unat"/>
</defs>
<use x="801.54" y="165.00" xlink:href="#nt0"/>
<path d="M807.04 165.00v36.20" class="stroke"/>
<use x="828.34" y="168.00" xlink:href="#hd"/>
<path d="M824.84 168.00v33.20" class="stroke"/>
<use x="846.14" y="171.00" xlink:href="#hd"/>
<path d="M842.64 171.00v30.20" class="stroke"/>
</g>
<g stroke-width="0.70" transform="scale(0.867)" font-family="Times" font-size="13.00">
<path class="stroke" stroke-width="1"
	d="M11.54 316.00v-82.00"/>
<path class="fill"
	d="M6.54 231.00
	c10.5 1 12 -4.5 12 -3.5c0 1 -3.5 5.5 -8.5 5.5
	v84.00
	c5 0 8.5 4.5 8.5 5.5c0 1 -1.5 -4.5 -12 -3.5"/>
<use x="145.14" y="258.00" xlink:href="#rdots"/>
<path class="stroke" stroke-width="1"
	d="M141.14 258.00v-24.00"/>
<path class="stroke" stroke-width="3"
	d="M136.64 258.00v-24.00"/>
<use x="145.14" y="316.00" xlink:href="#rdots"/>
<path class="stroke" stroke-width="1"
	d="M141.14 316.00v-58.00"/>
<path class="stroke" stroke-width="3"
	d="M136.64 316.00v-58.00"/>
<path class="stroke" stroke-width="1"
	d="M258.74 258.00v-24.00"/>
<path class="stroke" stroke-width="1"
	d="M258.74 316.00v-58.00"/>
<path class="stroke" stroke-width="1"
	d="M359.64 258.00v-24.00"/>
<path class="stroke" stroke-width="1"
	d="M359.64 316.00v-58.00"/>
<path class="stroke" stroke-width="1"
	d="M460.64 258.00v-24.00"/>
<path class="stroke" stroke-width="1"
	d="M460.64 316.00v-58.00"/>
<path class="stroke" stroke-width="1"
	d="M532.74 258.00v-24.00"/>
<path class="stroke" stroke-width="1"
	d="M532.74 316.00v-58.00"/>
<path class="stroke" stroke-width="1"
	d="M633.74 258.00v-24.00"/>
<path class="stroke" stroke-width="1"
	d="M633.74 316.00v-58.00"/>
<path class="stroke" stroke-width="1"
	d="M705.54 258.00v-24.00"/>
<path class="stroke" stroke-width="1"
	d="M705.54 316.00v-58.00"/>
<path class="stroke" stroke-width="1"
	d="M786.54 258.00v-24.00"/>
<path class="stroke" stroke-width="1"
	d="M786.54 316.00v-58.00"/>
<path class="stroke" stroke-width="3"
	d="M860.54 258.00v-24.00"/>
<path class="stroke" stroke-width="1"
	d="M856.04 258.00v-24.00"/>
<use x="852.04" y="258.00" xlink:href="#rdots"/>
<path class="stroke" stroke-width="3"
	d="M860.54 316.00v-58.00"/>
<path class="stroke" stroke-width="1"
	d="M856.04 316.00v-58.00"/>
<use x="852.04" y="316.00" xlink:href="#rdots"/>
<path d="m11.54 258.00
	h850.50
	M11.54 252.00
	h850.50
	M11.54 246.00
	h850.50
	M11.54 240.00
	h850.50
	M11.54 234.00
	h850.50
	" class="stroke"/>
<path d="m11.54 316.00
	h850.50
	M11.54 310.00
	h850.50
	M11.54 304.00
	h850.50
	M11.54 298.00
	h850.50
	M11.54 292.00
	h850.50
	" class="stroke"/>
<text x="47.54" y="219.40">2</text>
<path class="stroke"
	d="M43.54 208.00m0 20v-20h90.60v20"/>
<use x="23.54" y="252.00" xlink:href="#tclef"/>
<use x="56.04" y="231.00" xlink:href="#hd"/>
<path d="M52.54 231.00v40.00" class="stroke"/>
<use x="56.04" y="252.00" xlink:href="#hd"/>
<use x="56.04" y="246.00" xlink:href="#hd"/>
<use x="56.04" y="240.00" xlink:href="#hd"/>
<use x="110.44" y="246.00" xlink:href="#r8"/>
<use x="164.64" y="234.00" xlink:href="#hd"/>
<use x="155.64" y="234.00" xlink:href="#sh0"/>
<path d="M161.14 234.00v34.00" class="stroke"/>
<path class="fill"
	d="M161.14 268.00c0.6 -5.6 9.6 -9 5.6 -18.4
	1.6 6 -1.3 11.6 -5.6 12.8
"/>
<use x="164.64" y="249.00" xlink:href="#hd"/>
<use x="164.64" y="240.00" xlink:href="#hd"/>
<use x="197.84" y="234.00" xlink:href="#hd"/>
<path d="M194.34 234.00v21.00" class="stroke"/>
<path class="fill"
	d="M267.34 260.00l76.60 0.00v-3.20l-76.60 -0.00"/>
<path class="fill"
	d="M267.74 255.00l75.90 0.00v-3.20l-75.90 -0.00"/>
<use x="271.24" y="231.00" xlink:href="#hd"/>
<path d="M267.74 231.00v28.00" class="stroke"/>
<use x="286.44" y="240.00" xlink:href="#hd"/>
<path d="M282.94 240.00v19.00" class="stroke"/>
<use x="301.64" y="231.00" xlink:href="#hd"/>
<path d="M298.14 231.00v28.00" class="stroke"/>
<use x="316.74" y="228.00" xlink:href="#hl"/>
<use x="316.74" y="225.00" xlink:href="#hd"/>
<path d="M313.24 225.00v34.00" class="stroke"/>
<use x="331.94" y="231.00" xlink:href="#hd"/>
<path d="M328.44 231.00v28.00" class="stroke"/>
<use x="347.14" y="240.00" xlink:href="#hd"/>
<path d="M343.64 240.00v19.00" class="stroke"/>
<path class="fill"
	d="M368.34 261.00l61.40 0.00v-3.20l-61.40 -0.00"/>
<use x="372.14" y="237.00" xlink:href="#hd"/>
<path d="M368.64 237.00v23.00" class="stroke"/>
<use x="372.14" y="243.00" xlink:href="#hd"/>
<use x="402.54" y="237.00" xlink:href="#hd"/>
<path d="M399.04 237.00v23.00" class="stroke"/>
<use x="402.54" y="243.00" xlink:href="#hd"/>
<use x="432.94" y="237.00" xlink:href="#hd"/>
<path d="M429.44 237.00v23.00" class="stroke"/>
<use x="432.94" y="243.00" xlink:href="#hd"/>
<path class="fill"
	d="M469.24 262.30l21.90 2.40v-3.20l-21.90 -2.40"/>
<use x="473.14" y="237.00" xlink:href="#hd"/>
<path d="M469.64 237.00v24.30" class="stroke"/>
<use x="473.14" y="243.00" xlink:href="#hd"/>
<use x="494.34" y="240.00" xlink:href="#hd"/>
<path d="M490.84 240.00v23.70" class="stroke"/>
<use x="494.34" y="246.00" xlink:href="#hd"/>
<use x="515.54" y="246.00" xlink:href="#r8"/>
<path class="fill"
	d="M541.44 274.20l76.60 0.00v-3.20l-76.60 -0.00"/>
<path class="fill"
	d="M541.74 269.20l75.90 0.00v-3.20l-75.90 -0.00"/>
<use x="545.24" y="243.00" xlink:href="#hd"/>
<path d="M541.74 243.00v30.20" class="stroke"/>
<use x="560.44" y="246.00" xlink:href="#hd"/>
<path d="M556.94 246.00v27.20" class="stroke"/>
<use x="575.64" y="243.00" xlink:href="#hd"/>
<path d="M572.14 243.00v30.20" class="stroke"/>
<use x="590.84" y="237.00" xlink:href="#hd"/>
<path d="M587.34 237.00v36.20" class="stroke"/>
<use x="606.04" y="252.00" xlink:href="#hd"/>
<path d="M602.54 252.00v21.20" class="stroke"/>
<use x="621.24" y="243.00" xlink:href="#hd"/>
<path d="M617.74 243.00v30.20" class="stroke"/>
<path class="fill"
	d="M649.34 224.00l43.10 0.00v3.20l-43.10 -0.00"/>
<use x="646.24" y="258.00" xlink:href="#hd"/>
<path d="M649.74 258.00v-33.00" class="stroke"/>
<use x="646.24" y="243.00" xlink:href="#hd"/>
<use x="667.44" y="258.00" xlink:href="#hd"/>
<path d="M670.94 258.00v-33.00" class="stroke"/>
<use x="667.44" y="243.00" xlink:href="#hd"/>
<use x="688.64" y="258.00" xlink:href="#hd"/>
<path d="M692.14 258.00v-33.00" class="stroke"/>
<use x="688.64" y="243.00" xlink:href="#hd"/>
<path class="fill"
	d="M714.24 260.00l52.30 0.00v-3.20l-52.30 -0.00"/>
<path class="fill"
	d="M714.54 255.00l15.20 0.00v-3.20l-15.20 -0.00"/>
<use x="718.04" y="234.00" xlink:href="#hd"/>
<path d="M714.54 234.00v25.00" class="stroke"/>
<use x="733.24" y="237.00" xlink:href="#hd"/>
<path d="M729.74 237.00v22.00" class="stroke"/>
<use x="748.44" y="240.00" xlink:href="#hd"/>
<path d="M744.94 240.00v19.00" class="stroke"/>
<use x="769.64" y="231.00" xlink:href="#hd"/>
<path d="M766.14 231.00v28.00" class="stroke"/>
<use x="799.04" y="243.00" xlink:href="#hd"/>
<path d="M795.54 243.00v21.00" class="stroke"/>
<use x="841.54" y="246.00" xlink:href="#r8"/>
<use x="23.54" y="298.00" xlink:href="#bclef"/>
<path class="fill"
	d="M52.24 335.20l70.30 -5.10v-3.20l-70.30 5.10"/>
<path class="fill"
	d="M73.74 328.70l48.40 -3.50v-3.20l-48.40 3.50"/>
<use x="56.04" y="316.00" xlink:href="#hd"/>
<path d="M52.54 316.00v18.20" class="stroke"/>
<use x="77.24" y="289.00" xlink:href="#hd"/>
<path d="M73.74 289.00v43.70" class="stroke"/>
<use x="92.44" y="295.00" xlink:href="#hd"/>
<path d="M88.94 295.00v36.60" class="stroke"/>
<use x="110.44" y="298.00" xlink:href="#hd"/>
<use x="101.44" y="298.00" xlink:href="#sh0"/>
<path d="M106.94 298.00v32.30" class="stroke"/>
<use x="125.64" y="301.00" xlink:href="#hd"/>
<path d="M122.14 301.00v28.20" class="stroke"/>
<path class="fill"
	d="M167.84 283.10l82.20 -6.90v3.20l-82.20 6.90"/>
<path class="fill"
	d="M168.14 288.10l81.60 -6.90v3.20l-81.60 6.90"/>
<use x="164.64" y="322.00" xlink:href="#hl"/>
<use x="164.64" y="325.00" xlink:href="#hd"/>
<path d="M168.14 325.00v-40.90" class="stroke"/>
<use x="179.84" y="304.00" xlink:href="#hd"/>
<path d="M183.34 304.00v-21.20" class="stroke"/>
<use x="197.84" y="307.00" xlink:href="#hd"/>
<use x="188.84" y="307.00" xlink:href="#sh0"/>
<path d="M201.34 307.00v-25.70" class="stroke"/>
<use x="213.04" y="304.00" xlink:href="#hd"/>
<path d="M216.54 304.00v-24.00" class="stroke"/>
<use x="231.04" y="307.00" xlink:href="#hd"/>
<use x="222.04" y="307.00" xlink:href="#sh0"/>
<path d="M234.54 307.00v-28.50" class="stroke"/>
<use x="246.24" y="304.00" xlink:href="#hd"/>
<path d="M249.74 304.00v-26.80" class="stroke"/>
<use x="271.24" y="310.00" xlink:href="#hd"/>
<path d="M274.74 310.00v-25.00" class="stroke"/>
<use x="271.24" y="304.00" xlink:href="#hd"/>
<use x="331.94" y="310.00" xlink:href="#hd"/>
<path d="M335.44 310.00v-25.00" class="stroke"/>
<path class="fill"
	d="M335.44 285.00c0.6 5.6 9.6 9 5.6 18.4
	1.6 -6 -1.3 -11.6 -5.6 -12.8
"/>
<use x="331.94" y="304.00" xlink:href="#hd"/>
<path class="fill"
	d="M368.34 329.20l76.60 0.00v-3.20l-76.60 -0.00"/>
<path class="fill"
	d="M368.64 324.20l75.90 0.00v-3.20l-75.90 -0.00"/>
<use x="372.14" y="307.00" xlink:href="#hd"/>
<path d="M368.64 307.00v21.20" class="stroke"/>
<use x="387.34" y="301.00" xlink:href="#hd"/>
<path d="M383.84 301.00v27.20" class="stroke"/>
<use x="402.54" y="295.00" xlink:href="#hd"/>
<path d="M399.04 295.00v33.20" class="stroke"/>
<use x="417.74" y="301.00" xlink:href="#hd"/>
<path d="M414.24 301.00v27.20" class="stroke"/>
<use x="432.94" y="286.00" xlink:href="#hl"/>
<use x="432.94" y="286.00" xlink:href="#hd"/>
<path d="M429.44 286.00v42.20" class="stroke"/>
<use x="448.14" y="307.00" xlink:href="#hd"/>
<path d="M444.64 307.00v21.20" class="stroke"/>
<use x="473.14" y="295.00" xlink:href="#hd"/>
<path d="M469.64 295.00v21.00" class="stroke"/>
<use x="515.54" y="316.00" xlink:href="#hd"/>
<path d="M519.04 316.00v-21.00" class="stroke"/>
<path class="fill"
	d="M519.04 295.00c0.6 5.6 9.6 9 5.6 18.4
	1.6 -6 -1.3 -11.6 -5.6 -12.8
"/>
<use x="545.24" y="301.00" xlink:href="#hd"/>
<path d="M541.74 301.00v25.00" class="stroke"/>
<use x="545.24" y="307.00" xlink:href="#hd"/>
<use x="606.04" y="295.00" xlink:href="#hd"/>
<path d="M602.54 295.00v25.00" class="stroke"/>
<path class="fill"
	d="M602.54 320.00c0.6 -5.6 9.6 -9 5.6 -18.4
	1.6 6 -1.3 11.6 -5.6 12.8
"/>
<use x="606.04" y="301.00" xlink:href="#hd"/>
<path class="fill"
	d="M649.34 286.00l43.10 0.00v3.20l-43.10 -0.00"/>
<use x="646.24" y="307.00" xlink:href="#hd"/>
<path d="M649.74 307.00v-20.00" class="stroke"/>
<use x="667.44" y="307.00" xlink:href="#hd"/>
<path d="M670.94 307.00v-20.00" class="stroke"/>
<use x="688.64" y="307.00" xlink:href="#hd"/>
<path d="M692.14 307.00v-20.00" class="stroke"/>
<path class="fill"
	d="M714.24 323.90l52.30 0.00v-3.20l-52.30 -0.00"/>
<path class="fill"
	d="M714.54 318.90l15.20 0.00v-3.20l-15.20 -0.00"/>
<use x="718.04" y="298.00" xlink:href="#hd"/>
<path d="M714.54 298.00v24.90" class="stroke"/>
<use x="733.24" y="301.00" xlink:href="#hd"/>
<path d="M729.74 301.00v21.90" class="stroke"/>
<use x="748.44" y="304.00" xlink:href="#hd"/>
<path d="M744.94 304.00v18.90" class="stroke"/>
<use x="769.64" y="295.00" xlink:href="#hd"/>
<path d="M766.14 295.00v27.90" class="stroke"/>
<path class="fill"
	d="M802.24 287.70l43.10 9.90v3.20l-43.10 -9.90"/>
<use x="799.04" y="307.00" xlink:href="#hd"/>
<path d="M802.54 307.00v-18.20" class="stroke"/>
<use x="820.34" y="316.00" xlink:href="#hd"/>
<path d="M823.84 316.00v-22.30" class="stroke"/>
<use x="841.54" y="322.00" xlink:href="#hl"/>
<use x="841.54" y="328.00" xlink:href="#hl"/>
<use x="841.54" y="328.00" xlink:href="#hd"/>
<path d="M845.04 328.00v-29.50" class="stroke"/>
<defs>
<text id="trl" font-family="serif" font-size="16" font-style="italic"
	x="-2" y="-4">tr</text>
</defs>
<use x="197.84" y="228.00" xlink:href="#trl"/>
</g>
</svg>
