<?xml version="1.0" standalone="no"?>
<!DOCTYPE svg PUBLIC "-//W3C//DTD SVG 1.1//EN"
	"http://www.w3.org/Graphics/SVG/1.1/DTD/svg11.dtd">
<svg xmlns="http://www.w3.org/2000/svg" version="1.1"
	xmlns:xlink="http://www.w3.org/1999/xlink"
	color="black"
	width="757.10px" height="293.80px">
<style type="text/css">
.fill {fill: currentColor}
.stroke {stroke: currentColor; fill: none}
text{white-space: pre}
</style>
<title>./K516f-10-3-3-4-4-4-3-7-3-10-9-4-7-5-10-3.abc (2870) tune 1</title>
<!-- Creator: abcm2ps-8.13.8 -->
<!-- CreationDate: Sep  7, 2017 11:19 -->
<!-- CommandLine: ./K516f-10-3-3-4-4-4-3-7-3-10-9-4-7-5-10-3.abc -O ./K516f-10-3-3-4-4-4-3-7-3-10-9-4-7-5-10-3.svg -g -->
<rect width="100%" height="100%" fill="white"/>
<g stroke-width="0.70" transform="scale(0.867)">
<!-- title: 10-3-3-4-4-4-3-7-3-10-9-4-7-5-10-3 -->
</g>
<g stroke-width="0.70" transform="scale(0.867)" font-family="Times" font-size="20.00">
<text x="436.84" y="22.00" text-anchor="middle">10-3-3-4-4-4-3-7-3-10-9-4-7-5-10-3</text>
</g>
<g stroke-width="0.70" transform="scale(0.867)" font-family="Times" font-size="20.00">
<!-- subtitle: $1K.516f::98:06:128:13:153:55:134:91:117:77:48:132:101:160:149:83::$0 -->
</g>
<g stroke-width="0.70" transform="scale(0.867)" font-family="Courier" font-size="8.00" font-weight="bold">
<text x="436.84" y="41.80" text-anchor="middle">K.516f::98:06:128:13:153:55:134:91:117:77:48:132:101:160:149:83::</text>
</g>
<g stroke-width="0.70" transform="scale(0.867)" font-family="Courier" font-size="8.00" font-weight="bold">
<!-- subtitle: $1Perm. No.: 287093657601672$0 -->
<text x="436.84" y="60.80" text-anchor="middle">Perm. No.: 287093657601672</text>
</g>
<g stroke-width="0.70" transform="scale(0.607)" font-family="Courier" font-size="8.00" font-weight="bold">
<defs>
<ellipse id="hd" rx="4.1" ry="2.9"
	transform="rotate(-20)" class="fill"/>
</defs>
<use x="103.06" y="121.29" xlink:href="#hd"/>
<path d="M106.56 121.29v-21.00" class="stroke"/>
<path class="fill"
	d="M106.56 100.29c0.6 5.6 9.6 9 5.6 18.4
	1.6 -6 -1.3 -11.6 -5.6 -12.8
"/>
</g>
<g stroke-width="0.70" transform="scale(0.867)" font-family="Times" font-size="15.00" font-weight="bold">
<text x="81.24" y="87.00">= 111</text>
<path class="stroke" stroke-width="1"
	d="M11.54 183.00v-82.00"/>
<path class="fill"
	d="M6.54 98.00
	c10.5 1 12 -4.5 12 -3.5c0 1 -3.5 5.5 -8.5 5.5
	v84.00
	c5 0 8.5 4.5 8.5 5.5c0 1 -1.5 -4.5 -12 -3.5"/>
<defs>
<g id="rdots" class="fill">
	<circle cx="0" cy="-9" r="1.2"/>
	<circle cx="0" cy="-15" r="1.2"/>
</g>
</defs>
<use x="70.54" y="125.00" xlink:href="#rdots"/>
<path class="stroke" stroke-width="1"
	d="M66.54 125.00v-24.00"/>
<path class="stroke" stroke-width="3"
	d="M62.04 125.00v-24.00"/>
<use x="70.54" y="183.00" xlink:href="#rdots"/>
<path class="stroke" stroke-width="1"
	d="M66.54 183.00v-58.00"/>
<path class="stroke" stroke-width="3"
	d="M62.04 183.00v-58.00"/>
<path class="stroke" stroke-width="1"
	d="M187.64 125.00v-24.00"/>
<path class="stroke" stroke-width="1"
	d="M187.64 183.00v-58.00"/>
<path class="stroke" stroke-width="1"
	d="M271.04 125.00v-24.00"/>
<path class="stroke" stroke-width="1"
	d="M271.04 183.00v-58.00"/>
<path class="stroke" stroke-width="1"
	d="M354.44 125.00v-24.00"/>
<path class="stroke" stroke-width="1"
	d="M354.44 183.00v-58.00"/>
<path class="stroke" stroke-width="1"
	d="M437.84 125.00v-24.00"/>
<path class="stroke" stroke-width="1"
	d="M437.84 183.00v-58.00"/>
<path class="stroke" stroke-width="1"
	d="M554.24 125.00v-24.00"/>
<path class="stroke" stroke-width="1"
	d="M554.24 183.00v-58.00"/>
<path class="stroke" stroke-width="1"
	d="M637.64 125.00v-24.00"/>
<path class="stroke" stroke-width="1"
	d="M637.64 183.00v-58.00"/>
<path class="stroke" stroke-width="1"
	d="M754.04 125.00v-24.00"/>
<path class="stroke" stroke-width="1"
	d="M754.04 183.00v-58.00"/>
<path class="stroke" stroke-width="3"
	d="M860.54 125.00v-24.00"/>
<path class="stroke" stroke-width="1"
	d="M856.04 125.00v-24.00"/>
<use x="852.04" y="125.00" xlink:href="#rdots"/>
<path class="stroke" stroke-width="3"
	d="M860.54 183.00v-58.00"/>
<path class="stroke" stroke-width="1"
	d="M856.04 183.00v-58.00"/>
<use x="852.04" y="183.00" xlink:href="#rdots"/>
<path d="m11.54 125.00
	h850.50
	M11.54 119.00
	h850.50
	M11.54 113.00
	h850.50
	M11.54 107.00
	h850.50
	M11.54 101.00
	h850.50
	" class="stroke"/>
<path d="m11.54 183.00
	h850.50
	M11.54 177.00
	h850.50
	M11.54 171.00
	h850.50
	M11.54 165.00
	h850.50
	M11.54 159.00
	h850.50
	" class="stroke"/>
<path class="fill"
	d="M368.34 121.00c7.12 5.40 38.87 10.64 45.99 7.60
	v0.25c-8.50 4.80 -37.49 -0.45 -45.99 -7.85"/>
</g>
<g stroke-width="0.70" transform="scale(0.867)" font-family="Times" font-size="13.00">
<text x="758.04" y="86.40">1</text>
<path class="stroke"
	d="M754.04 75.00m0 20v-20h100.00v20"/>
<defs>
<path id="utclef" class="fill" d="m-50 -90
	c-72 -41 -72 -158 52 -188
	150 -10 220 188 90 256
	-114 52 -275 0 -293 -136
	-15 -181 93 -229 220 -334
	88 -87 79 -133 62 -210
	-51 33 -94 105 -89 186
	17 267 36 374 49 574
	6 96 -19 134 -77 135
	-80 1 -126 -93 -61 -133
	85 -41 133 101 31 105
	23 17 92 37 90 -92
	-10 -223 -39 -342 -50 -617
	0 -90 0 -162 96 -232
	56 72 63 230 22 289
	-74 106 -257 168 -255 316
	9 153 148 185 252 133
	86 -65 29 -192 -80 -176
	-71 12 -105 67 -59 124"/>
<use id="tclef" transform="translate(0,6) scale(0.045)"
	xlink:href="#utclef"/>
</defs>
<use x="23.54" y="119.00" xlink:href="#tclef"/>
<g font-family="serif" font-size="16" font-weight="bold" font-style="normal"
	transform="translate(42.04,124.50) scale(1.2,1)">
	<text text-anchor="middle">8</text>
	<text y="-12" text-anchor="middle">3</text>
</g>
<path class="fill"
	d="M81.64 139.80l71.40 -3.30v-3.20l-71.40 3.30"/>
<use x="85.44" y="110.00" xlink:href="#hd"/>
<path d="M81.94 110.00v28.80" class="stroke"/>
<use x="120.84" y="119.00" xlink:href="#hd"/>
<path d="M117.34 119.00v18.20" class="stroke"/>
<use x="156.14" y="104.00" xlink:href="#hd"/>
<path d="M152.64 104.00v31.60" class="stroke"/>
<path class="fill"
	d="M197.74 138.20l50.70 -6.70v-3.20l-50.70 6.70"/>
<use x="201.54" y="119.00" xlink:href="#hd"/>
<path d="M198.04 119.00v18.20" class="stroke"/>
<use x="226.54" y="110.00" xlink:href="#hd"/>
<path d="M223.04 110.00v23.90" class="stroke"/>
<use x="251.54" y="104.00" xlink:href="#hd"/>
<path d="M248.04 104.00v26.60" class="stroke"/>
<path class="fill"
	d="M281.14 132.20l50.70 -6.70v-3.20l-50.70 6.70"/>
<use x="284.94" y="113.00" xlink:href="#hd"/>
<path d="M281.44 113.00v18.20" class="stroke"/>
<use x="309.94" y="107.00" xlink:href="#hd"/>
<path d="M306.44 107.00v20.90" class="stroke"/>
<use x="334.94" y="98.00" xlink:href="#hd"/>
<path d="M331.44 98.00v26.60" class="stroke"/>
<path class="fill"
	d="M371.54 90.80l50.70 6.70v3.20l-50.70 -6.70"/>
<use x="368.34" y="110.00" xlink:href="#hd"/>
<path d="M371.84 110.00v-18.20" class="stroke"/>
<use x="393.34" y="119.00" xlink:href="#hd"/>
<path d="M396.84 119.00v-23.90" class="stroke"/>
<use x="418.34" y="125.00" xlink:href="#hd"/>
<path d="M421.84 125.00v-26.60" class="stroke"/>
<path class="fill"
	d="M447.84 139.50l89.40 -6.40v-3.20l-89.40 6.40"/>
<path class="fill"
	d="M448.24 134.50l88.70 -6.40v-3.20l-88.70 6.40"/>
<use x="451.74" y="107.00" xlink:href="#hd"/>
<path d="M448.24 107.00v31.50" class="stroke"/>
<use x="469.44" y="116.00" xlink:href="#hd"/>
<path d="M465.94 116.00v21.20" class="stroke"/>
<use x="487.44" y="101.00" xlink:href="#hd"/>
<defs>
<path id="usharp" class="fill" d="
	m136 -702
	v890
	h32
	v-890
	m128 840
	h32
	v-888
	h-32
	m-232 286
	v116
	l338 -96
	v-116
	m-338 442
	v116
	l338 -98
	v-114"/>
<use id="sh0" transform="translate(-4,5) scale(0.018)"
	xlink:href="#usharp"/>
</defs>
<use x="478.44" y="101.00" xlink:href="#sh0"/>
<path d="M483.94 101.00v34.90" class="stroke"/>
<use x="505.04" y="107.00" xlink:href="#hd"/>
<path d="M501.54 107.00v27.60" class="stroke"/>
<defs>
<path id="hl" class="stroke" d="m-6 0h12"/>
</defs>
<use x="522.74" y="95.00" xlink:href="#hl"/>
<use x="522.74" y="95.00" xlink:href="#hd"/>
<path d="M519.24 95.00v38.40" class="stroke"/>
<use x="540.44" y="101.00" xlink:href="#hd"/>
<path d="M536.94 101.00v31.10" class="stroke"/>
<path class="fill"
	d="M564.34 121.70l50.70 4.50v-3.20l-50.70 -4.50"/>
<use x="568.14" y="98.00" xlink:href="#hd"/>
<path d="M564.64 98.00v22.80" class="stroke"/>
<use x="593.14" y="95.00" xlink:href="#hl"/>
<use x="593.14" y="92.00" xlink:href="#hd"/>
<path d="M589.64 92.00v31.00" class="stroke"/>
<use x="618.14" y="107.00" xlink:href="#hd"/>
<path d="M614.64 107.00v18.20" class="stroke"/>
<path class="fill"
	d="M647.74 140.20l89.40 0.00v-3.20l-89.40 -0.00"/>
<path class="fill"
	d="M648.04 135.20l88.70 0.00v-3.20l-88.70 -0.00"/>
<use x="651.54" y="116.00" xlink:href="#hd"/>
<path d="M648.04 116.00v23.20" class="stroke"/>
<use x="669.24" y="104.00" xlink:href="#hd"/>
<path d="M665.74 104.00v35.20" class="stroke"/>
<use x="686.94" y="107.00" xlink:href="#hd"/>
<path d="M683.44 107.00v32.20" class="stroke"/>
<use x="686.94" y="113.00" xlink:href="#hd"/>
<use x="704.54" y="110.00" xlink:href="#hd"/>
<path d="M701.04 110.00v29.20" class="stroke"/>
<use x="704.54" y="116.00" xlink:href="#hd"/>
<use x="722.24" y="113.00" xlink:href="#hd"/>
<path d="M718.74 113.00v26.20" class="stroke"/>
<use x="722.24" y="119.00" xlink:href="#hd"/>
<use x="740.24" y="116.00" xlink:href="#hd"/>
<path d="M736.74 116.00v23.20" class="stroke"/>
<use x="740.24" y="122.00" xlink:href="#hd"/>
<use x="731.24" y="122.00" xlink:href="#sh0"/>
<use x="767.94" y="98.00" xlink:href="#hd"/>
<path d="M764.44 98.00v40.00" class="stroke"/>
<use x="767.94" y="119.00" xlink:href="#hd"/>
<use x="767.94" y="113.00" xlink:href="#hd"/>
<use x="767.94" y="107.00" xlink:href="#hd"/>
<defs>
<path id="r8e" class="fill" d="m 0 0
	c-1.5 1.5 -2.4 2 -3.6 2
	2.4 -2.8 -2.8 -4 -2.8 -1.2
	c0 2.7 4.3 2.4 5.9 0.6"/>
<g id="r8">
	<path d="m3.3 -4l-3.4 9.6" class="stroke"/>
	<use x="3.4" y="-4" xlink:href="#r8e"/>
</g>
</defs>
<use x="828.64" y="113.00" xlink:href="#r8"/>
<defs>
<path id="ubclef" class="fill" d="m-200 -87
	c124 -35 222 -78 254 -236
	43 -228 -167 -246 -192 -103
	59 -80 157 22 92 78
	-62 47 -115 -22 -106 -88
	21 -141 270 -136 274 52
	-1 175 -106 264 -322 297
	m357 -250
	c0 -36 51 -34 51 0
	0 37 -51 36 -51 0
	m-2 -129
	c0 -36 51 -34 51 0
	0 38 -51 37 -51 0"/>
<use id="bclef" transform="translate(0,18) scale(0.045)"
	xlink:href="#ubclef"/>
</defs>
<use x="23.54" y="165.00" xlink:href="#bclef"/>
<g font-family="serif" font-size="16" font-weight="bold" font-style="normal"
	transform="translate(42.04,182.50) scale(1.2,1)">
	<text text-anchor="middle">8</text>
	<text y="-12" text-anchor="middle">3</text>
</g>
<path class="fill"
	d="M81.64 190.90l89.10 0.00v-3.20l-89.10 -0.00"/>
<path class="fill"
	d="M81.94 185.90l88.40 0.00v-3.20l-88.40 -0.00"/>
<use x="85.44" y="168.00" xlink:href="#hd"/>
<path d="M81.94 168.00v21.90" class="stroke"/>
<use x="85.44" y="174.00" xlink:href="#hd"/>
<use x="103.14" y="162.00" xlink:href="#hd"/>
<path d="M99.64 162.00v27.90" class="stroke"/>
<use x="120.84" y="168.00" xlink:href="#hd"/>
<path d="M117.34 168.00v21.90" class="stroke"/>
<use x="120.84" y="174.00" xlink:href="#hd"/>
<use x="138.54" y="162.00" xlink:href="#hd"/>
<path d="M135.04 162.00v27.90" class="stroke"/>
<use x="156.14" y="168.00" xlink:href="#hd"/>
<path d="M152.64 168.00v21.90" class="stroke"/>
<use x="156.14" y="174.00" xlink:href="#hd"/>
<use x="173.84" y="162.00" xlink:href="#hd"/>
<path d="M170.34 162.00v27.90" class="stroke"/>
<use x="201.54" y="168.00" xlink:href="#hd"/>
<path d="M198.04 168.00v25.00" class="stroke"/>
<use x="201.54" y="174.00" xlink:href="#hd"/>
<use x="251.54" y="171.00" xlink:href="#r8"/>
<use x="284.94" y="183.00" xlink:href="#hd"/>
<path d="M288.44 183.00v-21.00" class="stroke"/>
<use x="334.94" y="171.00" xlink:href="#r8"/>
<use x="368.34" y="162.00" xlink:href="#hd"/>
<path d="M364.84 162.00v25.00" class="stroke"/>
<use x="368.34" y="168.00" xlink:href="#hd"/>
<use x="418.34" y="171.00" xlink:href="#r8"/>
<use x="451.74" y="174.00" xlink:href="#hd"/>
<path d="M455.24 174.00v-21.00" class="stroke"/>
<use x="522.74" y="171.00" xlink:href="#r8"/>
<use x="568.14" y="177.00" xlink:href="#hd"/>
<path d="M571.64 177.00v-25.00" class="stroke"/>
<use x="568.14" y="171.00" xlink:href="#hd"/>
<use x="618.14" y="171.00" xlink:href="#r8"/>
<path class="fill"
	d="M654.74 147.60l71.40 8.40v3.20l-71.40 -8.40"/>
<use x="651.54" y="174.00" xlink:href="#hd"/>
<path d="M655.04 174.00v-25.30" class="stroke"/>
<use x="686.94" y="171.00" xlink:href="#hd"/>
<path d="M690.44 171.00v-18.20" class="stroke"/>
<use x="722.24" y="189.00" xlink:href="#hl"/>
<use x="722.24" y="192.00" xlink:href="#hd"/>
<path d="M725.74 192.00v-35.10" class="stroke"/>
<path class="fill"
	d="M764.14 202.20l79.00 0.00v-3.20l-79.00 -0.00"/>
<path class="fill"
	d="M789.44 197.20l53.40 0.00v-3.20l-53.40 -0.00"/>
<use x="767.94" y="183.00" xlink:href="#hd"/>
<path d="M764.44 183.00v18.20" class="stroke"/>
<use x="792.94" y="162.00" xlink:href="#hd"/>
<path d="M789.44 162.00v39.20" class="stroke"/>
<use x="810.94" y="165.00" xlink:href="#hd"/>
<defs>
<path id="unat" class="fill" d="
	m96 -750
	h-32
	v716
	l32 -8
	182 -54
	v282
	h32
	v-706
	l-34 10
	-180 50
	v-290
	m0 592
	v-190
	l182 -52
	v188"/>
<use id="nt0" transform="translate(-3,5) scale(0.018)"
	xlink:href="#unat"/>
</defs>
<use x="801.94" y="165.00" xlink:href="#nt0"/>
<path d="M807.44 165.00v36.20" class="stroke"/>
<use x="828.64" y="168.00" xlink:href="#hd"/>
<path d="M825.14 168.00v33.20" class="stroke"/>
<use x="846.34" y="171.00" xlink:href="#hd"/>
<path d="M842.84 171.00v30.20" class="stroke"/>
</g>
<g stroke-width="0.70" transform="scale(0.867)" font-family="Times" font-size="13.00">
<path class="stroke" stroke-width="1"
	d="M11.54 316.00v-82.00"/>
<path class="fill"
	d="M6.54 231.00
	c10.5 1 12 -4.5 12 -3.5c0 1 -3.5 5.5 -8.5 5.5
	v84.00
	c5 0 8.5 4.5 8.5 5.5c0 1 -1.5 -4.5 -12 -3.5"/>
<use x="144.64" y="258.00" xlink:href="#rdots"/>
<path class="stroke" stroke-width="1"
	d="M140.64 258.00v-24.00"/>
<path class="stroke" stroke-width="3"
	d="M136.14 258.00v-24.00"/>
<use x="144.64" y="316.00" xlink:href="#rdots"/>
<path class="stroke" stroke-width="1"
	d="M140.64 316.00v-58.00"/>
<path class="stroke" stroke-width="3"
	d="M136.14 316.00v-58.00"/>
<path class="stroke" stroke-width="1"
	d="M254.74 258.00v-24.00"/>
<path class="stroke" stroke-width="1"
	d="M254.74 316.00v-58.00"/>
<path class="stroke" stroke-width="1"
	d="M335.04 258.00v-24.00"/>
<path class="stroke" stroke-width="1"
	d="M335.04 316.00v-58.00"/>
<path class="stroke" stroke-width="1"
	d="M426.14 258.00v-24.00"/>
<path class="stroke" stroke-width="1"
	d="M426.14 316.00v-58.00"/>
<path class="stroke" stroke-width="1"
	d="M506.44 258.00v-24.00"/>
<path class="stroke" stroke-width="1"
	d="M506.44 316.00v-58.00"/>
<path class="stroke" stroke-width="1"
	d="M606.54 258.00v-24.00"/>
<path class="stroke" stroke-width="1"
	d="M606.54 316.00v-58.00"/>
<path class="stroke" stroke-width="1"
	d="M706.74 258.00v-24.00"/>
<path class="stroke" stroke-width="1"
	d="M706.74 316.00v-58.00"/>
<path class="stroke" stroke-width="1"
	d="M787.04 258.00v-24.00"/>
<path class="stroke" stroke-width="1"
	d="M787.04 316.00v-58.00"/>
<path class="stroke" stroke-width="3"
	d="M860.54 258.00v-24.00"/>
<path class="stroke" stroke-width="1"
	d="M856.04 258.00v-24.00"/>
<use x="852.04" y="258.00" xlink:href="#rdots"/>
<path class="stroke" stroke-width="3"
	d="M860.54 316.00v-58.00"/>
<path class="stroke" stroke-width="1"
	d="M856.04 316.00v-58.00"/>
<use x="852.04" y="316.00" xlink:href="#rdots"/>
<path d="m11.54 258.00
	h850.50
	M11.54 252.00
	h850.50
	M11.54 246.00
	h850.50
	M11.54 240.00
	h850.50
	M11.54 234.00
	h850.50
	" class="stroke"/>
<path d="m11.54 316.00
	h850.50
	M11.54 310.00
	h850.50
	M11.54 304.00
	h850.50
	M11.54 298.00
	h850.50
	M11.54 292.00
	h850.50
	" class="stroke"/>
<text x="47.54" y="219.40">2</text>
<path class="stroke"
	d="M43.54 208.00m0 20v-20h90.10v20"/>
<use x="23.54" y="252.00" xlink:href="#tclef"/>
<use x="56.04" y="231.00" xlink:href="#hd"/>
<path d="M52.54 231.00v40.00" class="stroke"/>
<use x="56.04" y="252.00" xlink:href="#hd"/>
<use x="56.04" y="246.00" xlink:href="#hd"/>
<use x="56.04" y="240.00" xlink:href="#hd"/>
<use x="110.04" y="246.00" xlink:href="#r8"/>
<path class="fill"
	d="M160.24 272.60l78.80 -7.00v-3.20l-78.80 7.00"/>
<path class="fill"
	d="M160.64 267.50l78.10 -7.00v-3.20l-78.10 7.00"/>
<use x="164.14" y="240.00" xlink:href="#hd"/>
<path d="M160.64 240.00v31.50" class="stroke"/>
<use x="179.14" y="249.00" xlink:href="#hd"/>
<path d="M175.64 249.00v21.20" class="stroke"/>
<use x="194.14" y="240.00" xlink:href="#hd"/>
<path d="M190.64 240.00v28.90" class="stroke"/>
<use x="212.14" y="234.00" xlink:href="#hd"/>
<use x="203.14" y="234.00" xlink:href="#sh0"/>
<path d="M208.64 234.00v33.20" class="stroke"/>
<use x="227.24" y="228.00" xlink:href="#hl"/>
<use x="227.24" y="228.00" xlink:href="#hd"/>
<path d="M223.74 228.00v37.90" class="stroke"/>
<use x="242.24" y="234.00" xlink:href="#hd"/>
<path d="M238.74 234.00v30.60" class="stroke"/>
<path class="fill"
	d="M263.44 254.20l51.70 5.00v-3.20l-51.70 -5.00"/>
<path class="fill"
	d="M263.74 249.30l15.00 1.50v-3.20l-15.00 -1.50"/>
<use x="267.24" y="231.00" xlink:href="#hd"/>
<path d="M263.74 231.00v22.30" class="stroke"/>
<use x="282.24" y="228.00" xlink:href="#hl"/>
<use x="282.24" y="225.00" xlink:href="#hd"/>
<path d="M278.74 225.00v29.70" class="stroke"/>
<use x="297.34" y="231.00" xlink:href="#hd"/>
<path d="M293.84 231.00v25.20" class="stroke"/>
<use x="318.34" y="240.00" xlink:href="#hd"/>
<path d="M314.84 240.00v18.20" class="stroke"/>
<path class="fill"
	d="M343.74 267.50l66.80 -7.30v-3.20l-66.80 7.30"/>
<path class="fill"
	d="M365.04 260.20l45.10 -4.90v-3.20l-45.10 4.90"/>
<use x="347.54" y="237.00" xlink:href="#hd"/>
<path d="M344.04 237.00v29.50" class="stroke"/>
<use x="368.54" y="243.00" xlink:href="#hd"/>
<path d="M365.04 243.00v21.20" class="stroke"/>
<use x="383.54" y="237.00" xlink:href="#hd"/>
<path d="M380.04 237.00v25.60" class="stroke"/>
<use x="398.64" y="231.00" xlink:href="#hd"/>
<path d="M395.14 231.00v29.90" class="stroke"/>
<use x="413.64" y="228.00" xlink:href="#hl"/>
<use x="413.64" y="222.00" xlink:href="#hl"/>
<use x="413.64" y="222.00" xlink:href="#hd"/>
<path d="M410.14 222.00v37.30" class="stroke"/>
<path class="fill"
	d="M441.74 219.30l51.70 6.20v3.20l-51.70 -6.20"/>
<path class="fill"
	d="M463.14 226.80l15.00 1.80v3.20l-15.00 -1.80"/>
<use x="438.64" y="243.00" xlink:href="#hd"/>
<path d="M442.14 243.00v-22.70" class="stroke"/>
<use x="438.64" y="237.00" xlink:href="#hd"/>
<use x="459.64" y="252.00" xlink:href="#hd"/>
<path d="M463.14 252.00v-29.20" class="stroke"/>
<use x="459.64" y="240.00" xlink:href="#hd"/>
<use x="474.64" y="252.00" xlink:href="#hd"/>
<path d="M478.14 252.00v-27.40" class="stroke"/>
<use x="474.64" y="246.00" xlink:href="#hd"/>
<use x="489.64" y="252.00" xlink:href="#hd"/>
<path d="M493.14 252.00v-25.60" class="stroke"/>
<path class="fill"
	d="M515.04 263.50l75.80 -6.30v-3.20l-75.80 6.30"/>
<path class="fill"
	d="M515.44 258.40l75.20 -6.20v-3.20l-75.20 6.20"/>
<use x="518.94" y="237.00" xlink:href="#hd"/>
<path d="M515.44 237.00v25.40" class="stroke"/>
<use x="533.94" y="240.00" xlink:href="#hd"/>
<path d="M530.44 240.00v21.20" class="stroke"/>
<use x="548.94" y="237.00" xlink:href="#hd"/>
<path d="M545.44 237.00v23.00" class="stroke"/>
<use x="564.04" y="231.00" xlink:href="#hd"/>
<path d="M560.54 231.00v27.70" class="stroke"/>
<use x="579.04" y="228.00" xlink:href="#hl"/>
<use x="579.04" y="222.00" xlink:href="#hl"/>
<use x="579.04" y="222.00" xlink:href="#hd"/>
<path d="M575.54 222.00v35.50" class="stroke"/>
<use x="594.04" y="231.00" xlink:href="#hd"/>
<path d="M590.54 231.00v25.20" class="stroke"/>
<path class="fill"
	d="M615.24 274.20l75.80 0.00v-3.20l-75.80 -0.00"/>
<path class="fill"
	d="M615.54 269.20l75.20 0.00v-3.20l-75.20 -0.00"/>
<use x="619.04" y="243.00" xlink:href="#hd"/>
<path d="M615.54 243.00v30.20" class="stroke"/>
<use x="634.14" y="246.00" xlink:href="#hd"/>
<path d="M630.64 246.00v27.20" class="stroke"/>
<use x="649.14" y="243.00" xlink:href="#hd"/>
<path d="M645.64 243.00v30.20" class="stroke"/>
<use x="664.14" y="237.00" xlink:href="#hd"/>
<path d="M660.64 237.00v36.20" class="stroke"/>
<use x="679.24" y="252.00" xlink:href="#hd"/>
<path d="M675.74 252.00v21.20" class="stroke"/>
<use x="694.24" y="243.00" xlink:href="#hd"/>
<path d="M690.74 243.00v30.20" class="stroke"/>
<path class="fill"
	d="M715.44 264.80l51.70 5.90v-3.20l-51.70 -5.90"/>
<path class="fill"
	d="M715.74 259.80l15.00 1.70v-3.20l-15.00 -1.70"/>
<use x="719.24" y="234.00" xlink:href="#hd"/>
<path d="M715.74 234.00v29.80" class="stroke"/>
<use x="734.24" y="240.00" xlink:href="#hd"/>
<path d="M730.74 240.00v25.50" class="stroke"/>
<use x="749.34" y="249.00" xlink:href="#hd"/>
<path d="M745.84 249.00v18.20" class="stroke"/>
<use x="770.34" y="246.00" xlink:href="#hd"/>
<path d="M766.84 246.00v23.60" class="stroke"/>
<use x="799.54" y="243.00" xlink:href="#hd"/>
<path d="M796.04 243.00v21.00" class="stroke"/>
<use x="841.54" y="246.00" xlink:href="#r8"/>
<use x="23.54" y="298.00" xlink:href="#bclef"/>
<path class="fill"
	d="M52.24 335.20l69.70 -5.00v-3.20l-69.70 5.00"/>
<path class="fill"
	d="M73.54 328.70l48.10 -3.50v-3.20l-48.10 3.50"/>
<use x="56.04" y="316.00" xlink:href="#hd"/>
<path d="M52.54 316.00v18.20" class="stroke"/>
<use x="77.04" y="289.00" xlink:href="#hd"/>
<path d="M73.54 289.00v43.70" class="stroke"/>
<use x="92.04" y="295.00" xlink:href="#hd"/>
<path d="M88.54 295.00v36.60" class="stroke"/>
<use x="110.04" y="298.00" xlink:href="#hd"/>
<use x="101.04" y="298.00" xlink:href="#sh0"/>
<path d="M106.54 298.00v32.30" class="stroke"/>
<use x="125.14" y="301.00" xlink:href="#hd"/>
<path d="M121.64 301.00v28.20" class="stroke"/>
<use x="164.14" y="298.00" xlink:href="#hd"/>
<use x="155.14" y="298.00" xlink:href="#sh0"/>
<path d="M160.64 298.00v25.00" class="stroke"/>
<use x="164.14" y="304.00" xlink:href="#hd"/>
<use x="227.24" y="304.00" xlink:href="#r8"/>
<use x="267.24" y="310.00" xlink:href="#hd"/>
<path d="M270.74 310.00v-25.00" class="stroke"/>
<use x="267.24" y="304.00" xlink:href="#hd"/>
<use x="318.34" y="295.00" xlink:href="#hd"/>
<path d="M314.84 295.00v34.00" class="stroke"/>
<path class="fill"
	d="M314.84 329.00c0.6 -5.6 9.6 -9 5.6 -18.4
	1.6 6 -1.3 11.6 -5.6 12.8
"/>
<use x="318.34" y="310.00" xlink:href="#hd"/>
<use x="347.54" y="295.00" xlink:href="#hd"/>
<path d="M344.04 295.00v31.00" class="stroke"/>
<use x="347.54" y="307.00" xlink:href="#hd"/>
<use x="398.64" y="301.00" xlink:href="#hd"/>
<path d="M395.14 301.00v25.00" class="stroke"/>
<path class="fill"
	d="M395.14 326.00c0.6 -5.6 9.6 -9 5.6 -18.4
	1.6 6 -1.3 11.6 -5.6 12.8
"/>
<use x="398.64" y="307.00" xlink:href="#hd"/>
<path class="fill"
	d="M441.74 275.70l21.70 7.20v3.20l-21.70 -7.20"/>
<use x="438.64" y="295.00" xlink:href="#hd"/>
<path d="M442.14 295.00v-18.20" class="stroke"/>
<use x="459.64" y="316.00" xlink:href="#hd"/>
<path d="M463.14 316.00v-32.20" class="stroke"/>
<use x="489.64" y="304.00" xlink:href="#r8"/>
<use x="518.94" y="295.00" xlink:href="#hd"/>
<path d="M522.44 295.00v-21.00" class="stroke"/>
<use x="579.04" y="301.00" xlink:href="#hd"/>
<path d="M582.54 301.00v-21.00" class="stroke"/>
<path class="fill"
	d="M582.54 280.00c0.6 5.6 9.6 9 5.6 18.4
	1.6 -6 -1.3 -11.6 -5.6 -12.8
"/>
<use x="619.04" y="301.00" xlink:href="#hd"/>
<path d="M615.54 301.00v25.00" class="stroke"/>
<use x="619.04" y="307.00" xlink:href="#hd"/>
<use x="679.24" y="301.00" xlink:href="#hd"/>
<path d="M675.74 301.00v25.00" class="stroke"/>
<path class="fill"
	d="M675.74 326.00c0.6 -5.6 9.6 -9 5.6 -18.4
	1.6 6 -1.3 11.6 -5.6 12.8
"/>
<use x="679.24" y="307.00" xlink:href="#hd"/>
<use x="719.24" y="298.00" xlink:href="#hd"/>
<path d="M715.74 298.00v21.00" class="stroke"/>
<use x="770.34" y="295.00" xlink:href="#hd"/>
<path d="M766.84 295.00v21.00" class="stroke"/>
<path class="fill"
	d="M766.84 316.00c0.6 -5.6 9.6 -9 5.6 -18.4
	1.6 6 -1.3 11.6 -5.6 12.8
"/>
<path class="fill"
	d="M802.74 287.70l42.70 9.80v3.20l-42.70 -9.80"/>
<use x="799.54" y="307.00" xlink:href="#hd"/>
<path d="M803.04 307.00v-18.20" class="stroke"/>
<use x="820.54" y="316.00" xlink:href="#hd"/>
<path d="M824.04 316.00v-22.40" class="stroke"/>
<use x="841.54" y="322.00" xlink:href="#hl"/>
<use x="841.54" y="328.00" xlink:href="#hl"/>
<use x="841.54" y="328.00" xlink:href="#hd"/>
<path d="M845.04 328.00v-29.50" class="stroke"/>
<use x="518.94" y="307.00" xlink:href="#hd"/>
<path d="M515.44 307.00v21.00" class="stroke"/>
<use x="579.04" y="307.00" xlink:href="#hd"/>
<path d="M575.54 307.00v21.00" class="stroke"/>
<path class="fill"
	d="M575.54 328.00c0.6 -5.6 9.6 -9 5.6 -18.4
	1.6 6 -1.3 11.6 -5.6 12.8
"/>
</g>
</svg>
