<?xml version="1.0" standalone="no"?>
<!DOCTYPE svg PUBLIC "-//W3C//DTD SVG 1.1//EN"
	"http://www.w3.org/Graphics/SVG/1.1/DTD/svg11.dtd">
<svg xmlns="http://www.w3.org/2000/svg" version="1.1"
	xmlns:xlink="http://www.w3.org/1999/xlink"
	color="black"
	width="757.10px" height="297.27px">
<style type="text/css">
.fill {fill: currentColor}
.stroke {stroke: currentColor; fill: none}
text{white-space: pre}
</style>
<title>./K516f-12-9-6-11-8-3-8-8-12-5-8-5-2-8-11-9.abc (3296) tune 1</title>
<!-- Creator: abcm2ps-8.13.8 -->
<!-- CreationDate: Sep  7, 2017 11:17 -->
<!-- CommandLine: ./K516f-12-9-6-11-8-3-8-8-12-5-8-5-2-8-11-9.abc -O ./K516f-12-9-6-11-8-3-8-8-12-5-8-5-2-8-11-9.svg -g -->
<rect width="100%" height="100%" fill="white"/>
<g stroke-width="0.70" transform="scale(0.867)">
<!-- title: 12-9-6-11-8-3-8-8-12-5-8-5-2-8-11-9 -->
</g>
<g stroke-width="0.70" transform="scale(0.867)" font-family="Times" font-size="20.00">
<text x="436.84" y="22.00" text-anchor="middle">12-9-6-11-8-3-8-8-12-5-8-5-2-8-11-9</text>
</g>
<g stroke-width="0.70" transform="scale(0.867)" font-family="Times" font-size="20.00">
<!-- subtitle: $1K.516f::54:84:163:61:99:46:21:127:35:176:57:34:112:168:173:111::$0 -->
</g>
<g stroke-width="0.70" transform="scale(0.867)" font-family="Courier" font-size="8.00" font-weight="bold">
<text x="436.84" y="41.80" text-anchor="middle">K.516f::54:84:163:61:99:46:21:127:35:176:57:34:112:168:173:111::</text>
</g>
<g stroke-width="0.70" transform="scale(0.867)" font-family="Courier" font-size="8.00" font-weight="bold">
<!-- subtitle: $1Perm. No.: 329627788354821$0 -->
<text x="436.84" y="60.80" text-anchor="middle">Perm. No.: 329627788354821</text>
</g>
<g stroke-width="0.70" transform="scale(0.607)" font-family="Courier" font-size="8.00" font-weight="bold">
<defs>
<ellipse id="hd" rx="4.1" ry="2.9"
	transform="rotate(-20)" class="fill"/>
</defs>
<use x="103.06" y="121.29" xlink:href="#hd"/>
<path d="M106.56 121.29v-21.00" class="stroke"/>
<path class="fill"
	d="M106.56 100.29c0.6 5.6 9.6 9 5.6 18.4
	1.6 -6 -1.3 -11.6 -5.6 -12.8
"/>
</g>
<g stroke-width="0.70" transform="scale(0.867)" font-family="Times" font-size="15.00" font-weight="bold">
<text x="81.24" y="87.00">= 111</text>
<path class="stroke" stroke-width="1"
	d="M11.54 187.00v-82.00"/>
<path class="fill"
	d="M6.54 102.00
	c10.5 1 12 -4.5 12 -3.5c0 1 -3.5 5.5 -8.5 5.5
	v84.00
	c5 0 8.5 4.5 8.5 5.5c0 1 -1.5 -4.5 -12 -3.5"/>
<defs>
<g id="rdots" class="fill">
	<circle cx="0" cy="-9" r="1.2"/>
	<circle cx="0" cy="-15" r="1.2"/>
</g>
</defs>
<use x="70.54" y="129.00" xlink:href="#rdots"/>
<path class="stroke" stroke-width="1"
	d="M66.54 129.00v-24.00"/>
<path class="stroke" stroke-width="3"
	d="M62.04 129.00v-24.00"/>
<use x="70.54" y="187.00" xlink:href="#rdots"/>
<path class="stroke" stroke-width="1"
	d="M66.54 187.00v-58.00"/>
<path class="stroke" stroke-width="3"
	d="M62.04 187.00v-58.00"/>
<path class="stroke" stroke-width="1"
	d="M150.74 129.00v-24.00"/>
<path class="stroke" stroke-width="1"
	d="M150.74 187.00v-58.00"/>
<path class="stroke" stroke-width="1"
	d="M261.14 129.00v-24.00"/>
<path class="stroke" stroke-width="1"
	d="M261.14 187.00v-58.00"/>
<path class="stroke" stroke-width="1"
	d="M372.84 129.00v-24.00"/>
<path class="stroke" stroke-width="1"
	d="M372.84 187.00v-58.00"/>
<path class="stroke" stroke-width="1"
	d="M461.94 129.00v-24.00"/>
<path class="stroke" stroke-width="1"
	d="M461.94 187.00v-58.00"/>
<path class="stroke" stroke-width="1"
	d="M546.24 129.00v-24.00"/>
<path class="stroke" stroke-width="1"
	d="M546.24 187.00v-58.00"/>
<path class="stroke" stroke-width="1"
	d="M646.84 129.00v-24.00"/>
<path class="stroke" stroke-width="1"
	d="M646.84 187.00v-58.00"/>
<path class="stroke" stroke-width="1"
	d="M758.44 129.00v-24.00"/>
<path class="stroke" stroke-width="1"
	d="M758.44 187.00v-58.00"/>
<path class="stroke" stroke-width="3"
	d="M860.54 129.00v-24.00"/>
<path class="stroke" stroke-width="1"
	d="M856.04 129.00v-24.00"/>
<use x="852.04" y="129.00" xlink:href="#rdots"/>
<path class="stroke" stroke-width="3"
	d="M860.54 187.00v-58.00"/>
<path class="stroke" stroke-width="1"
	d="M856.04 187.00v-58.00"/>
<use x="852.04" y="187.00" xlink:href="#rdots"/>
<path d="m11.54 129.00
	h850.50
	M11.54 123.00
	h850.50
	M11.54 117.00
	h850.50
	M11.54 111.00
	h850.50
	M11.54 105.00
	h850.50
	" class="stroke"/>
<path d="m11.54 187.00
	h850.50
	M11.54 181.00
	h850.50
	M11.54 175.00
	h850.50
	M11.54 169.00
	h850.50
	M11.54 163.00
	h850.50
	" class="stroke"/>
</g>
<g stroke-width="0.70" transform="scale(0.867)" font-family="Times" font-size="13.00">
<text x="762.44" y="90.40">1</text>
<path class="stroke"
	d="M758.44 79.00m0 20v-20h95.60v20"/>
<defs>
<path id="utclef" class="fill" d="m-50 -90
	c-72 -41 -72 -158 52 -188
	150 -10 220 188 90 256
	-114 52 -275 0 -293 -136
	-15 -181 93 -229 220 -334
	88 -87 79 -133 62 -210
	-51 33 -94 105 -89 186
	17 267 36 374 49 574
	6 96 -19 134 -77 135
	-80 1 -126 -93 -61 -133
	85 -41 133 101 31 105
	23 17 92 37 90 -92
	-10 -223 -39 -342 -50 -617
	0 -90 0 -162 96 -232
	56 72 63 230 22 289
	-74 106 -257 168 -255 316
	9 153 148 185 252 133
	86 -65 29 -192 -80 -176
	-71 12 -105 67 -59 124"/>
<use id="tclef" transform="translate(0,6) scale(0.045)"
	xlink:href="#utclef"/>
</defs>
<use x="23.54" y="123.00" xlink:href="#tclef"/>
<g font-family="serif" font-size="16" font-weight="bold" font-style="normal"
	transform="translate(42.04,128.50) scale(1.2,1)">
	<text text-anchor="middle">8</text>
	<text y="-12" text-anchor="middle">3</text>
</g>
<path class="fill"
	d="M88.04 95.00l48.00 0.00v3.20l-48.00 -0.00"/>
<use x="84.84" y="129.00" xlink:href="#hd"/>
<path d="M88.34 129.00v-33.00" class="stroke"/>
<use x="84.84" y="114.00" xlink:href="#hd"/>
<use x="108.54" y="129.00" xlink:href="#hd"/>
<path d="M112.04 129.00v-33.00" class="stroke"/>
<use x="108.54" y="114.00" xlink:href="#hd"/>
<use x="132.14" y="129.00" xlink:href="#hd"/>
<path d="M135.64 129.00v-33.00" class="stroke"/>
<use x="132.14" y="114.00" xlink:href="#hd"/>
<path class="fill"
	d="M160.24 146.50l84.60 -6.40v-3.20l-84.60 6.40"/>
<path class="fill"
	d="M160.54 141.50l83.90 -6.30v-3.20l-83.90 6.30"/>
<use x="164.04" y="114.00" xlink:href="#hd"/>
<path d="M160.54 114.00v31.50" class="stroke"/>
<use x="180.84" y="123.00" xlink:href="#hd"/>
<path d="M177.34 123.00v21.20" class="stroke"/>
<use x="197.64" y="108.00" xlink:href="#hd"/>
<path d="M194.14 108.00v34.90" class="stroke"/>
<use x="214.44" y="114.00" xlink:href="#hd"/>
<path d="M210.94 114.00v27.70" class="stroke"/>
<use x="231.24" y="102.00" xlink:href="#hd"/>
<path d="M227.74 102.00v38.40" class="stroke"/>
<use x="247.94" y="108.00" xlink:href="#hd"/>
<path d="M244.44 108.00v31.10" class="stroke"/>
<path class="fill"
	d="M270.64 135.30l85.80 10.00v-3.20l-85.80 -10.00"/>
<path class="fill"
	d="M271.04 130.30l85.10 9.90v-3.20l-85.10 -9.90"/>
<use x="274.54" y="102.00" xlink:href="#hd"/>
<path d="M271.04 102.00v32.30" class="stroke"/>
<use x="292.54" y="105.00" xlink:href="#hd"/>
<defs>
<path id="usharp" class="fill" d="
	m136 -702
	v890
	h32
	v-890
	m128 840
	h32
	v-888
	h-32
	m-232 286
	v116
	l338 -96
	v-116
	m-338 442
	v116
	l338 -98
	v-114"/>
<use id="sh0" transform="translate(-4,5) scale(0.018)"
	xlink:href="#usharp"/>
</defs>
<use x="283.54" y="105.00" xlink:href="#sh0"/>
<path d="M289.04 105.00v31.40" class="stroke"/>
<use x="309.24" y="102.00" xlink:href="#hd"/>
<path d="M305.74 102.00v36.40" class="stroke"/>
<use x="326.04" y="111.00" xlink:href="#hd"/>
<path d="M322.54 111.00v29.30" class="stroke"/>
<use x="342.84" y="117.00" xlink:href="#hd"/>
<path d="M339.34 117.00v25.30" class="stroke"/>
<use x="359.64" y="123.00" xlink:href="#hd"/>
<path d="M356.14 123.00v21.20" class="stroke"/>
<path class="fill"
	d="M382.34 139.40l57.90 -4.50v-3.20l-57.90 4.50"/>
<path class="fill"
	d="M406.34 132.50l16.80 -1.30v-3.20l-16.80 1.30"/>
<use x="386.14" y="114.00" xlink:href="#hd"/>
<path d="M382.64 114.00v24.40" class="stroke"/>
<use x="409.84" y="108.00" xlink:href="#hd"/>
<path d="M406.34 108.00v28.50" class="stroke"/>
<use x="426.64" y="114.00" xlink:href="#hd"/>
<path d="M423.14 114.00v21.20" class="stroke"/>
<use x="443.34" y="102.00" xlink:href="#hd"/>
<path d="M439.84 102.00v31.90" class="stroke"/>
<path class="fill"
	d="M476.54 127.10l48.00 3.20v-3.20l-48.00 -3.20"/>
<use x="480.44" y="105.00" xlink:href="#hd"/>
<use x="471.44" y="105.00" xlink:href="#sh0"/>
<path d="M476.94 105.00v21.10" class="stroke"/>
<defs>
<path id="hl" class="stroke" d="m-6 0h12"/>
</defs>
<use x="504.04" y="99.00" xlink:href="#hl"/>
<use x="504.04" y="99.00" xlink:href="#hd"/>
<path d="M500.54 99.00v28.60" class="stroke"/>
<use x="527.74" y="111.00" xlink:href="#hd"/>
<path d="M524.24 111.00v18.20" class="stroke"/>
<path class="fill"
	d="M555.74 131.00l74.70 8.20v-3.20l-74.70 -8.20"/>
<path class="fill"
	d="M579.74 128.70l50.40 5.50v-3.20l-50.40 -5.50"/>
<use x="559.64" y="102.00" xlink:href="#hd"/>
<path d="M556.14 102.00v28.10" class="stroke"/>
<use x="583.24" y="99.00" xlink:href="#hl"/>
<use x="583.24" y="96.00" xlink:href="#hd"/>
<path d="M579.74 96.00v36.70" class="stroke"/>
<use x="600.04" y="102.00" xlink:href="#hd"/>
<path d="M596.54 102.00v32.50" class="stroke"/>
<use x="616.84" y="111.00" xlink:href="#hd"/>
<path d="M613.34 111.00v25.40" class="stroke"/>
<use x="633.64" y="117.00" xlink:href="#hd"/>
<path d="M630.14 117.00v21.20" class="stroke"/>
<path class="fill"
	d="M656.34 142.20l85.80 0.00v-3.20l-85.80 -0.00"/>
<path class="fill"
	d="M656.64 137.20l85.10 0.00v-3.20l-85.10 -0.00"/>
<use x="660.14" y="114.00" xlink:href="#hd"/>
<path d="M656.64 114.00v27.20" class="stroke"/>
<use x="676.94" y="108.00" xlink:href="#hd"/>
<path d="M673.44 108.00v33.20" class="stroke"/>
<use x="693.74" y="102.00" xlink:href="#hd"/>
<path d="M690.24 102.00v39.20" class="stroke"/>
<use x="710.54" y="111.00" xlink:href="#hd"/>
<path d="M707.04 111.00v30.20" class="stroke"/>
<use x="727.24" y="120.00" xlink:href="#hd"/>
<path d="M723.74 120.00v21.20" class="stroke"/>
<use x="745.24" y="105.00" xlink:href="#hd"/>
<use x="736.24" y="105.00" xlink:href="#sh0"/>
<path d="M741.74 105.00v36.20" class="stroke"/>
<use x="771.84" y="102.00" xlink:href="#hd"/>
<path d="M768.34 102.00v40.00" class="stroke"/>
<use x="771.84" y="123.00" xlink:href="#hd"/>
<use x="771.84" y="117.00" xlink:href="#hd"/>
<use x="771.84" y="111.00" xlink:href="#hd"/>
<defs>
<path id="r8e" class="fill" d="m 0 0
	c-1.5 1.5 -2.4 2 -3.6 2
	2.4 -2.8 -2.8 -4 -2.8 -1.2
	c0 2.7 4.3 2.4 5.9 0.6"/>
<g id="r8">
	<path d="m3.3 -4l-3.4 9.6" class="stroke"/>
	<use x="3.4" y="-4" xlink:href="#r8e"/>
</g>
</defs>
<use x="830.24" y="117.00" xlink:href="#r8"/>
<defs>
<path id="ubclef" class="fill" d="m-200 -87
	c124 -35 222 -78 254 -236
	43 -228 -167 -246 -192 -103
	59 -80 157 22 92 78
	-62 47 -115 -22 -106 -88
	21 -141 270 -136 274 52
	-1 175 -106 264 -322 297
	m357 -250
	c0 -36 51 -34 51 0
	0 37 -51 36 -51 0
	m-2 -129
	c0 -36 51 -34 51 0
	0 38 -51 37 -51 0"/>
<use id="bclef" transform="translate(0,18) scale(0.045)"
	xlink:href="#ubclef"/>
</defs>
<use x="23.54" y="169.00" xlink:href="#bclef"/>
<g font-family="serif" font-size="16" font-weight="bold" font-style="normal"
	transform="translate(42.04,186.50) scale(1.2,1)">
	<text text-anchor="middle">8</text>
	<text y="-12" text-anchor="middle">3</text>
</g>
<path class="fill"
	d="M88.04 157.00l48.00 0.00v3.20l-48.00 -0.00"/>
<use x="84.84" y="178.00" xlink:href="#hd"/>
<path d="M88.34 178.00v-20.00" class="stroke"/>
<use x="108.54" y="178.00" xlink:href="#hd"/>
<path d="M112.04 178.00v-20.00" class="stroke"/>
<use x="132.14" y="178.00" xlink:href="#hd"/>
<path d="M135.64 178.00v-20.00" class="stroke"/>
<use x="164.04" y="172.00" xlink:href="#hd"/>
<path d="M160.54 172.00v25.00" class="stroke"/>
<use x="164.04" y="178.00" xlink:href="#hd"/>
<use x="231.24" y="175.00" xlink:href="#r8"/>
<use x="274.54" y="181.00" xlink:href="#hd"/>
<path d="M278.04 181.00v-25.00" class="stroke"/>
<use x="274.54" y="175.00" xlink:href="#hd"/>
<use x="342.84" y="175.00" xlink:href="#r8"/>
<use x="386.14" y="166.00" xlink:href="#hd"/>
<path d="M382.64 166.00v25.00" class="stroke"/>
<use x="386.14" y="172.00" xlink:href="#hd"/>
<use x="443.34" y="175.00" xlink:href="#r8"/>
<use x="480.44" y="163.00" xlink:href="#hd"/>
<path d="M476.94 163.00v34.00" class="stroke"/>
<use x="480.44" y="178.00" xlink:href="#hd"/>
<use x="527.74" y="163.00" xlink:href="#hd"/>
<path d="M524.24 163.00v34.00" class="stroke"/>
<path class="fill"
	d="M524.24 197.00c0.6 -5.6 9.6 -9 5.6 -18.4
	1.6 6 -1.3 11.6 -5.6 12.8
"/>
<use x="527.74" y="178.00" xlink:href="#hd"/>
<use x="559.64" y="181.00" xlink:href="#hd"/>
<path d="M563.14 181.00v-25.00" class="stroke"/>
<use x="559.64" y="175.00" xlink:href="#hd"/>
<use x="616.84" y="175.00" xlink:href="#r8"/>
<path class="fill"
	d="M663.34 151.70l67.80 8.30v3.20l-67.80 -8.30"/>
<use x="660.14" y="178.00" xlink:href="#hd"/>
<path d="M663.64 178.00v-25.30" class="stroke"/>
<use x="693.74" y="175.00" xlink:href="#hd"/>
<path d="M697.24 175.00v-18.20" class="stroke"/>
<use x="727.24" y="193.00" xlink:href="#hl"/>
<use x="727.24" y="196.00" xlink:href="#hd"/>
<path d="M730.74 196.00v-35.10" class="stroke"/>
<path class="fill"
	d="M767.94 206.20l75.90 0.00v-3.20l-75.90 -0.00"/>
<path class="fill"
	d="M791.94 201.20l51.60 0.00v-3.20l-51.60 -0.00"/>
<use x="771.84" y="187.00" xlink:href="#hd"/>
<path d="M768.34 187.00v18.20" class="stroke"/>
<use x="795.44" y="166.00" xlink:href="#hd"/>
<path d="M791.94 166.00v39.20" class="stroke"/>
<use x="813.44" y="169.00" xlink:href="#hd"/>
<defs>
<path id="unat" class="fill" d="
	m96 -750
	h-32
	v716
	l32 -8
	182 -54
	v282
	h32
	v-706
	l-34 10
	-180 50
	v-290
	m0 592
	v-190
	l182 -52
	v188"/>
<use id="nt0" transform="translate(-3,5) scale(0.018)"
	xlink:href="#unat"/>
</defs>
<use x="804.44" y="169.00" xlink:href="#nt0"/>
<path d="M809.94 169.00v36.20" class="stroke"/>
<use x="830.24" y="172.00" xlink:href="#hd"/>
<path d="M826.74 172.00v33.20" class="stroke"/>
<use x="847.04" y="175.00" xlink:href="#hd"/>
<path d="M843.54 175.00v30.20" class="stroke"/>
</g>
<g stroke-width="0.70" transform="scale(0.867)" font-family="Times" font-size="13.00">
<path class="stroke" stroke-width="1"
	d="M11.54 320.00v-82.00"/>
<path class="fill"
	d="M6.54 235.00
	c10.5 1 12 -4.5 12 -3.5c0 1 -3.5 5.5 -8.5 5.5
	v84.00
	c5 0 8.5 4.5 8.5 5.5c0 1 -1.5 -4.5 -12 -3.5"/>
<use x="143.54" y="262.00" xlink:href="#rdots"/>
<path class="stroke" stroke-width="1"
	d="M139.54 262.00v-24.00"/>
<path class="stroke" stroke-width="3"
	d="M135.04 262.00v-24.00"/>
<use x="143.54" y="320.00" xlink:href="#rdots"/>
<path class="stroke" stroke-width="1"
	d="M139.54 320.00v-58.00"/>
<path class="stroke" stroke-width="3"
	d="M135.04 320.00v-58.00"/>
<path class="stroke" stroke-width="1"
	d="M221.44 262.00v-24.00"/>
<path class="stroke" stroke-width="1"
	d="M221.44 320.00v-58.00"/>
<path class="stroke" stroke-width="1"
	d="M320.14 262.00v-24.00"/>
<path class="stroke" stroke-width="1"
	d="M320.14 320.00v-58.00"/>
<path class="stroke" stroke-width="1"
	d="M418.84 262.00v-24.00"/>
<path class="stroke" stroke-width="1"
	d="M418.84 320.00v-58.00"/>
<path class="stroke" stroke-width="1"
	d="M506.84 262.00v-24.00"/>
<path class="stroke" stroke-width="1"
	d="M506.84 320.00v-58.00"/>
<path class="stroke" stroke-width="1"
	d="M605.54 262.00v-24.00"/>
<path class="stroke" stroke-width="1"
	d="M605.54 320.00v-58.00"/>
<path class="stroke" stroke-width="1"
	d="M695.34 262.00v-24.00"/>
<path class="stroke" stroke-width="1"
	d="M695.34 320.00v-58.00"/>
<path class="stroke" stroke-width="1"
	d="M787.94 262.00v-24.00"/>
<path class="stroke" stroke-width="1"
	d="M787.94 320.00v-58.00"/>
<path class="stroke" stroke-width="3"
	d="M860.54 262.00v-24.00"/>
<path class="stroke" stroke-width="1"
	d="M856.04 262.00v-24.00"/>
<use x="852.04" y="262.00" xlink:href="#rdots"/>
<path class="stroke" stroke-width="3"
	d="M860.54 320.00v-58.00"/>
<path class="stroke" stroke-width="1"
	d="M856.04 320.00v-58.00"/>
<use x="852.04" y="320.00" xlink:href="#rdots"/>
<path d="m11.54 262.00
	h850.50
	M11.54 256.00
	h850.50
	M11.54 250.00
	h850.50
	M11.54 244.00
	h850.50
	M11.54 238.00
	h850.50
	" class="stroke"/>
<path d="m11.54 320.00
	h850.50
	M11.54 314.00
	h850.50
	M11.54 308.00
	h850.50
	M11.54 302.00
	h850.50
	M11.54 296.00
	h850.50
	" class="stroke"/>
<text x="47.54" y="223.40">2</text>
<path class="stroke"
	d="M43.54 212.00m0 20v-20h89.00v20"/>
<use x="23.54" y="256.00" xlink:href="#tclef"/>
<use x="56.04" y="235.00" xlink:href="#hd"/>
<path d="M52.54 235.00v40.00" class="stroke"/>
<use x="56.04" y="256.00" xlink:href="#hd"/>
<use x="56.04" y="250.00" xlink:href="#hd"/>
<use x="56.04" y="244.00" xlink:href="#hd"/>
<use x="109.34" y="250.00" xlink:href="#r8"/>
<path class="fill"
	d="M159.24 272.30l42.50 -6.40v-3.20l-42.50 6.40"/>
<use x="163.04" y="253.00" xlink:href="#hd"/>
<path d="M159.54 253.00v18.20" class="stroke"/>
<use x="183.64" y="244.00" xlink:href="#hd"/>
<path d="M180.14 244.00v24.10" class="stroke"/>
<use x="204.94" y="238.00" xlink:href="#hd"/>
<use x="195.94" y="238.00" xlink:href="#sh0"/>
<path d="M201.44 238.00v26.90" class="stroke"/>
<path class="fill"
	d="M230.04 264.00l74.40 0.00v-3.20l-74.40 -0.00"/>
<path class="fill"
	d="M230.44 259.00l73.70 0.00v-3.20l-73.70 -0.00"/>
<use x="233.94" y="232.00" xlink:href="#hl"/>
<use x="233.94" y="232.00" xlink:href="#hd"/>
<path d="M230.44 232.00v31.00" class="stroke"/>
<use x="248.64" y="235.00" xlink:href="#hd"/>
<path d="M245.14 235.00v28.00" class="stroke"/>
<use x="263.44" y="232.00" xlink:href="#hl"/>
<use x="263.44" y="229.00" xlink:href="#hd"/>
<path d="M259.94 229.00v34.00" class="stroke"/>
<use x="278.14" y="235.00" xlink:href="#hd"/>
<path d="M274.64 235.00v28.00" class="stroke"/>
<use x="292.94" y="244.00" xlink:href="#hd"/>
<path d="M289.44 244.00v19.00" class="stroke"/>
<use x="307.64" y="235.00" xlink:href="#hd"/>
<path d="M304.14 235.00v28.00" class="stroke"/>
<path class="fill"
	d="M328.84 268.30l59.70 7.00v-3.20l-59.70 -7.00"/>
<use x="332.64" y="241.00" xlink:href="#hd"/>
<path d="M329.14 241.00v26.30" class="stroke"/>
<use x="362.14" y="247.00" xlink:href="#hd"/>
<path d="M358.64 247.00v23.80" class="stroke"/>
<use x="391.64" y="256.00" xlink:href="#hd"/>
<path d="M388.14 256.00v18.20" class="stroke"/>
<path class="fill"
	d="M427.54 268.90l59.70 6.30v-3.20l-59.70 -6.30"/>
<path class="fill"
	d="M427.84 264.00l44.20 4.70v-3.20l-44.20 -4.70"/>
<use x="431.34" y="241.00" xlink:href="#hd"/>
<path d="M427.84 241.00v27.00" class="stroke"/>
<use x="446.14" y="247.00" xlink:href="#hd"/>
<path d="M442.64 247.00v22.50" class="stroke"/>
<use x="460.84" y="244.00" xlink:href="#hd"/>
<path d="M457.34 244.00v27.10" class="stroke"/>
<use x="475.64" y="250.00" xlink:href="#hd"/>
<path d="M472.14 250.00v22.60" class="stroke"/>
<use x="490.34" y="256.00" xlink:href="#hd"/>
<path d="M486.84 256.00v18.20" class="stroke"/>
<path class="fill"
	d="M515.44 268.30l59.70 7.00v-3.20l-59.70 -7.00"/>
<use x="519.34" y="241.00" xlink:href="#hd"/>
<path d="M515.84 241.00v26.30" class="stroke"/>
<use x="548.84" y="247.00" xlink:href="#hd"/>
<path d="M545.34 247.00v23.80" class="stroke"/>
<use x="578.34" y="256.00" xlink:href="#hd"/>
<path d="M574.84 256.00v18.20" class="stroke"/>
<path class="fill"
	d="M614.24 260.30l65.50 8.90v-3.20l-65.50 -8.90"/>
<path class="fill"
	d="M635.14 258.20l44.20 6.00v-3.20l-44.20 -6.00"/>
<use x="618.04" y="235.00" xlink:href="#hd"/>
<path d="M614.54 235.00v24.40" class="stroke"/>
<use x="638.64" y="238.00" xlink:href="#hd"/>
<path d="M635.14 238.00v24.20" class="stroke"/>
<use x="653.34" y="241.00" xlink:href="#hd"/>
<path d="M649.84 241.00v23.20" class="stroke"/>
<use x="668.14" y="244.00" xlink:href="#hd"/>
<path d="M664.64 244.00v22.20" class="stroke"/>
<use x="682.84" y="247.00" xlink:href="#hd"/>
<path d="M679.34 247.00v21.20" class="stroke"/>
<path class="fill"
	d="M704.04 260.30l15.40 -3.50v-3.20l-15.40 3.50"/>
<path class="fill"
	d="M704.34 255.20l14.70 -3.30v-3.20l-14.70 3.30"/>
<use x="707.84" y="238.00" xlink:href="#hd"/>
<path d="M704.34 238.00v21.20" class="stroke"/>
<use x="722.64" y="232.00" xlink:href="#hl"/>
<use x="722.64" y="232.00" xlink:href="#hd"/>
<path d="M719.14 232.00v23.90" class="stroke"/>
<use x="737.34" y="253.00" xlink:href="#hd"/>
<path d="M740.84 253.00v-21.00" class="stroke"/>
<path class="fill"
	d="M740.84 232.00c0.6 5.6 9.6 9 5.6 18.4
	1.6 -6 -1.3 -11.6 -5.6 -12.8
"/>
<path class="fill"
	d="M756.84 272.30l15.40 -3.50v-3.20l-15.40 3.50"/>
<path class="fill"
	d="M757.24 267.20l14.70 -3.30v-3.20l-14.70 3.30"/>
<use x="760.74" y="250.00" xlink:href="#hd"/>
<path d="M757.24 250.00v21.20" class="stroke"/>
<use x="775.44" y="244.00" xlink:href="#hd"/>
<path d="M771.94 244.00v23.90" class="stroke"/>
<use x="800.44" y="247.00" xlink:href="#hd"/>
<path d="M796.94 247.00v21.00" class="stroke"/>
<use x="841.54" y="250.00" xlink:href="#r8"/>
<use x="23.54" y="302.00" xlink:href="#bclef"/>
<path class="fill"
	d="M52.24 339.20l68.70 -5.00v-3.20l-68.70 5.00"/>
<path class="fill"
	d="M73.04 332.70l47.50 -3.50v-3.20l-47.50 3.50"/>
<use x="56.04" y="320.00" xlink:href="#hd"/>
<path d="M52.54 320.00v18.20" class="stroke"/>
<use x="76.54" y="293.00" xlink:href="#hd"/>
<path d="M73.04 293.00v43.70" class="stroke"/>
<use x="91.34" y="299.00" xlink:href="#hd"/>
<path d="M87.84 299.00v36.60" class="stroke"/>
<use x="109.34" y="302.00" xlink:href="#hd"/>
<use x="100.34" y="302.00" xlink:href="#sh0"/>
<path d="M105.84 302.00v32.30" class="stroke"/>
<use x="124.04" y="305.00" xlink:href="#hd"/>
<path d="M120.54 305.00v28.30" class="stroke"/>
<use x="163.04" y="302.00" xlink:href="#hd"/>
<use x="154.04" y="302.00" xlink:href="#sh0"/>
<path d="M159.54 302.00v25.00" class="stroke"/>
<use x="163.04" y="308.00" xlink:href="#hd"/>
<use x="204.94" y="296.00" xlink:href="#hd"/>
<path d="M201.44 296.00v34.00" class="stroke"/>
<path class="fill"
	d="M201.44 330.00c0.6 -5.6 9.6 -9 5.6 -18.4
	1.6 6 -1.3 11.6 -5.6 12.8
"/>
<use x="204.94" y="311.00" xlink:href="#hd"/>
<use x="233.94" y="314.00" xlink:href="#hd"/>
<path d="M237.44 314.00v-25.00" class="stroke"/>
<use x="233.94" y="308.00" xlink:href="#hd"/>
<use x="292.94" y="314.00" xlink:href="#hd"/>
<path d="M296.44 314.00v-25.00" class="stroke"/>
<path class="fill"
	d="M296.44 289.00c0.6 5.6 9.6 9 5.6 18.4
	1.6 -6 -1.3 -11.6 -5.6 -12.8
"/>
<use x="292.94" y="308.00" xlink:href="#hd"/>
<path class="fill"
	d="M328.84 327.90l74.40 0.00v-3.20l-74.40 -0.00"/>
<path class="fill"
	d="M329.14 322.90l73.70 0.00v-3.20l-73.70 -0.00"/>
<use x="332.64" y="305.00" xlink:href="#hd"/>
<path d="M329.14 305.00v21.90" class="stroke"/>
<use x="332.64" y="311.00" xlink:href="#hd"/>
<use x="347.34" y="299.00" xlink:href="#hd"/>
<path d="M343.84 299.00v27.90" class="stroke"/>
<use x="362.14" y="305.00" xlink:href="#hd"/>
<path d="M358.64 305.00v21.90" class="stroke"/>
<use x="362.14" y="311.00" xlink:href="#hd"/>
<use x="376.84" y="299.00" xlink:href="#hd"/>
<path d="M373.34 299.00v27.90" class="stroke"/>
<use x="391.64" y="305.00" xlink:href="#hd"/>
<path d="M388.14 305.00v21.90" class="stroke"/>
<use x="391.64" y="311.00" xlink:href="#hd"/>
<use x="406.34" y="299.00" xlink:href="#hd"/>
<path d="M402.84 299.00v27.90" class="stroke"/>
<use x="431.34" y="299.00" xlink:href="#hd"/>
<path d="M427.84 299.00v21.00" class="stroke"/>
<use x="490.34" y="308.00" xlink:href="#r8"/>
<path class="fill"
	d="M515.44 327.90l74.40 0.00v-3.20l-74.40 -0.00"/>
<path class="fill"
	d="M515.84 322.90l73.70 0.00v-3.20l-73.70 -0.00"/>
<use x="519.34" y="305.00" xlink:href="#hd"/>
<path d="M515.84 305.00v21.90" class="stroke"/>
<use x="519.34" y="311.00" xlink:href="#hd"/>
<use x="534.04" y="299.00" xlink:href="#hd"/>
<path d="M530.54 299.00v27.90" class="stroke"/>
<use x="548.84" y="305.00" xlink:href="#hd"/>
<path d="M545.34 305.00v21.90" class="stroke"/>
<use x="548.84" y="311.00" xlink:href="#hd"/>
<use x="563.54" y="299.00" xlink:href="#hd"/>
<path d="M560.04 299.00v27.90" class="stroke"/>
<use x="578.34" y="305.00" xlink:href="#hd"/>
<path d="M574.84 305.00v21.90" class="stroke"/>
<use x="578.34" y="311.00" xlink:href="#hd"/>
<use x="593.04" y="299.00" xlink:href="#hd"/>
<path d="M589.54 299.00v27.90" class="stroke"/>
<use x="618.04" y="305.00" xlink:href="#hd"/>
<path d="M614.54 305.00v25.00" class="stroke"/>
<use x="618.04" y="311.00" xlink:href="#hd"/>
<use x="668.14" y="299.00" xlink:href="#hd"/>
<path d="M664.64 299.00v25.00" class="stroke"/>
<path class="fill"
	d="M664.64 324.00c0.6 -5.6 9.6 -9 5.6 -18.4
	1.6 6 -1.3 11.6 -5.6 12.8
"/>
<use x="668.14" y="305.00" xlink:href="#hd"/>
<use x="707.84" y="302.00" xlink:href="#hd"/>
<path d="M704.34 302.00v21.00" class="stroke"/>
<use x="760.74" y="299.00" xlink:href="#hd"/>
<path d="M757.24 299.00v21.00" class="stroke"/>
<path class="fill"
	d="M757.24 320.00c0.6 -5.6 9.6 -9 5.6 -18.4
	1.6 6 -1.3 11.6 -5.6 12.8
"/>
<path class="fill"
	d="M803.64 291.70l41.80 9.80v3.20l-41.80 -9.80"/>
<use x="800.44" y="311.00" xlink:href="#hd"/>
<path d="M803.94 311.00v-18.20" class="stroke"/>
<use x="821.04" y="320.00" xlink:href="#hd"/>
<path d="M824.54 320.00v-22.40" class="stroke"/>
<use x="841.54" y="326.00" xlink:href="#hl"/>
<use x="841.54" y="332.00" xlink:href="#hl"/>
<use x="841.54" y="332.00" xlink:href="#hd"/>
<path d="M845.04 332.00v-29.60" class="stroke"/>
</g>
</svg>
