<?xml version="1.0" standalone="no"?>
<!DOCTYPE svg PUBLIC "-//W3C//DTD SVG 1.1//EN"
	"http://www.w3.org/Graphics/SVG/1.1/DTD/svg11.dtd">
<svg xmlns="http://www.w3.org/2000/svg" version="1.1"
	xmlns:xlink="http://www.w3.org/1999/xlink"
	color="black"
	width="757.10px" height="294.68px">
<style type="text/css">
.fill {fill: currentColor}
.stroke {stroke: currentColor; fill: none}
text{white-space: pre}
</style>
<title>./K516f-4-4-4-2-6-3-12-8-5-9-12-12-5-11-10-2.abc (3055) tune 1</title>
<!-- Creator: abcm2ps-8.13.8 -->
<!-- CreationDate: Sep  7, 2017 11:18 -->
<!-- CommandLine: ./K516f-4-4-4-2-6-3-12-8-5-9-12-12-5-11-10-2.abc -O ./K516f-4-4-4-2-6-3-12-8-5-9-12-12-5-11-10-2.svg -g -->
<rect width="100%" height="100%" fill="white"/>
<g stroke-width="0.70" transform="scale(0.867)">
<!-- title: 4-4-4-2-6-3-12-8-5-9-12-12-5-11-10-2 -->
</g>
<g stroke-width="0.70" transform="scale(0.867)" font-family="Times" font-size="20.00">
<text x="436.84" y="22.00" text-anchor="middle">4-4-4-2-6-3-12-8-5-9-12-12-5-11-10-2</text>
</g>
<g stroke-width="0.70" transform="scale(0.867)" font-family="Times" font-size="20.00">
<!-- subtitle: $1K.516f::69:95:158:41:80:46:106:127:90:88:108:92:67:59:149:14::$0 -->
</g>
<g stroke-width="0.70" transform="scale(0.867)" font-family="Courier" font-size="8.00" font-weight="bold">
<text x="436.84" y="41.80" text-anchor="middle">K.516f::69:95:158:41:80:46:106:127:90:88:108:92:67:59:149:14::</text>
</g>
<g stroke-width="0.70" transform="scale(0.867)" font-family="Courier" font-size="8.00" font-weight="bold">
<!-- subtitle: $1Perm. No.: 305568018185862$0 -->
<text x="436.84" y="60.80" text-anchor="middle">Perm. No.: 305568018185862</text>
</g>
<g stroke-width="0.70" transform="scale(0.607)" font-family="Courier" font-size="8.00" font-weight="bold">
<defs>
<ellipse id="hd" rx="4.1" ry="2.9"
	transform="rotate(-20)" class="fill"/>
</defs>
<use x="103.06" y="121.29" xlink:href="#hd"/>
<path d="M106.56 121.29v-21.00" class="stroke"/>
<path class="fill"
	d="M106.56 100.29c0.6 5.6 9.6 9 5.6 18.4
	1.6 -6 -1.3 -11.6 -5.6 -12.8
"/>
</g>
<g stroke-width="0.70" transform="scale(0.867)" font-family="Times" font-size="15.00" font-weight="bold">
<text x="81.24" y="87.00">= 111</text>
<path class="stroke" stroke-width="1"
	d="M11.54 184.00v-82.00"/>
<path class="fill"
	d="M6.54 99.00
	c10.5 1 12 -4.5 12 -3.5c0 1 -3.5 5.5 -8.5 5.5
	v84.00
	c5 0 8.5 4.5 8.5 5.5c0 1 -1.5 -4.5 -12 -3.5"/>
<defs>
<g id="rdots" class="fill">
	<circle cx="0" cy="-9" r="1.2"/>
	<circle cx="0" cy="-15" r="1.2"/>
</g>
</defs>
<use x="70.54" y="126.00" xlink:href="#rdots"/>
<path class="stroke" stroke-width="1"
	d="M66.54 126.00v-24.00"/>
<path class="stroke" stroke-width="3"
	d="M62.04 126.00v-24.00"/>
<use x="70.54" y="184.00" xlink:href="#rdots"/>
<path class="stroke" stroke-width="1"
	d="M66.54 184.00v-58.00"/>
<path class="stroke" stroke-width="3"
	d="M62.04 184.00v-58.00"/>
<path class="stroke" stroke-width="1"
	d="M156.14 126.00v-24.00"/>
<path class="stroke" stroke-width="1"
	d="M156.14 184.00v-58.00"/>
<path class="stroke" stroke-width="1"
	d="M240.74 126.00v-24.00"/>
<path class="stroke" stroke-width="1"
	d="M240.74 184.00v-58.00"/>
<path class="stroke" stroke-width="1"
	d="M348.04 126.00v-24.00"/>
<path class="stroke" stroke-width="1"
	d="M348.04 184.00v-58.00"/>
<path class="stroke" stroke-width="1"
	d="M453.64 126.00v-24.00"/>
<path class="stroke" stroke-width="1"
	d="M453.64 184.00v-58.00"/>
<path class="stroke" stroke-width="1"
	d="M538.24 126.00v-24.00"/>
<path class="stroke" stroke-width="1"
	d="M538.24 184.00v-58.00"/>
<path class="stroke" stroke-width="1"
	d="M645.44 126.00v-24.00"/>
<path class="stroke" stroke-width="1"
	d="M645.44 184.00v-58.00"/>
<path class="stroke" stroke-width="1"
	d="M752.74 126.00v-24.00"/>
<path class="stroke" stroke-width="1"
	d="M752.74 184.00v-58.00"/>
<path class="stroke" stroke-width="3"
	d="M860.54 126.00v-24.00"/>
<path class="stroke" stroke-width="1"
	d="M856.04 126.00v-24.00"/>
<use x="852.04" y="126.00" xlink:href="#rdots"/>
<path class="stroke" stroke-width="3"
	d="M860.54 184.00v-58.00"/>
<path class="stroke" stroke-width="1"
	d="M856.04 184.00v-58.00"/>
<use x="852.04" y="184.00" xlink:href="#rdots"/>
<path d="m11.54 126.00
	h850.50
	M11.54 120.00
	h850.50
	M11.54 114.00
	h850.50
	M11.54 108.00
	h850.50
	M11.54 102.00
	h850.50
	" class="stroke"/>
<path d="m11.54 184.00
	h850.50
	M11.54 178.00
	h850.50
	M11.54 172.00
	h850.50
	M11.54 166.00
	h850.50
	M11.54 160.00
	h850.50
	" class="stroke"/>
<path class="fill"
	d="M89.64 95.40c7.22 -3.06 39.54 2.19 46.76 7.60
	v-0.25c-8.63 -7.16 -38.13 -12.41 -46.76 -7.35"/>
</g>
<g stroke-width="0.70" transform="scale(0.867)" font-family="Times" font-size="13.00">
<text x="756.74" y="87.40">1</text>
<path class="stroke"
	d="M752.74 76.00m0 20v-20h101.30v20"/>
<defs>
<path id="utclef" class="fill" d="m-50 -90
	c-72 -41 -72 -158 52 -188
	150 -10 220 188 90 256
	-114 52 -275 0 -293 -136
	-15 -181 93 -229 220 -334
	88 -87 79 -133 62 -210
	-51 33 -94 105 -89 186
	17 267 36 374 49 574
	6 96 -19 134 -77 135
	-80 1 -126 -93 -61 -133
	85 -41 133 101 31 105
	23 17 92 37 90 -92
	-10 -223 -39 -342 -50 -617
	0 -90 0 -162 96 -232
	56 72 63 230 22 289
	-74 106 -257 168 -255 316
	9 153 148 185 252 133
	86 -65 29 -192 -80 -176
	-71 12 -105 67 -59 124"/>
<use id="tclef" transform="translate(0,6) scale(0.045)"
	xlink:href="#utclef"/>
</defs>
<use x="23.54" y="120.00" xlink:href="#tclef"/>
<g font-family="serif" font-size="16" font-weight="bold" font-style="normal"
	transform="translate(42.04,125.50) scale(1.2,1)">
	<text text-anchor="middle">8</text>
	<text y="-12" text-anchor="middle">3</text>
</g>
<path class="fill"
	d="M81.84 122.00l51.40 8.30v-3.20l-51.40 -8.30"/>
<use x="85.64" y="99.00" xlink:href="#hd"/>
<path d="M82.14 99.00v22.10" class="stroke"/>
<use x="111.04" y="105.00" xlink:href="#hd"/>
<path d="M107.54 105.00v20.10" class="stroke"/>
<use x="136.44" y="111.00" xlink:href="#hd"/>
<path d="M132.94 111.00v18.20" class="stroke"/>
<path class="fill"
	d="M166.44 122.00l51.40 8.30v-3.20l-51.40 -8.30"/>
<use x="170.24" y="99.00" xlink:href="#hd"/>
<path d="M166.74 99.00v22.10" class="stroke"/>
<use x="195.64" y="105.00" xlink:href="#hd"/>
<path d="M192.14 105.00v20.10" class="stroke"/>
<use x="221.04" y="111.00" xlink:href="#hd"/>
<path d="M217.54 111.00v18.20" class="stroke"/>
<path class="fill"
	d="M258.04 85.80l79.90 0.00v3.20l-79.90 -0.00"/>
<path class="fill"
	d="M283.74 90.80l53.80 0.00v3.20l-53.80 -0.00"/>
<use x="254.84" y="114.00" xlink:href="#hd"/>
<path d="M258.34 114.00v-27.20" class="stroke"/>
<use x="280.24" y="108.00" xlink:href="#hd"/>
<path d="M283.74 108.00v-21.20" class="stroke"/>
<use x="298.14" y="114.00" xlink:href="#hd"/>
<path d="M301.64 114.00v-27.20" class="stroke"/>
<use x="316.14" y="117.00" xlink:href="#hd"/>
<path d="M319.64 117.00v-30.20" class="stroke"/>
<use x="334.04" y="120.00" xlink:href="#hd"/>
<path d="M337.54 120.00v-33.20" class="stroke"/>
<path class="fill"
	d="M358.24 139.20l72.40 0.00v-3.20l-72.40 -0.00"/>
<path class="fill"
	d="M358.64 134.20l53.80 0.00v-3.20l-53.80 -0.00"/>
<use x="362.14" y="111.00" xlink:href="#hd"/>
<path d="M358.64 111.00v27.20" class="stroke"/>
<use x="380.04" y="114.00" xlink:href="#hd"/>
<path d="M376.54 114.00v24.20" class="stroke"/>
<use x="398.04" y="111.00" xlink:href="#hd"/>
<path d="M394.54 111.00v27.20" class="stroke"/>
<use x="415.94" y="105.00" xlink:href="#hd"/>
<path d="M412.44 105.00v33.20" class="stroke"/>
<use x="433.84" y="120.00" xlink:href="#hd"/>
<path d="M430.34 120.00v18.20" class="stroke"/>
<path class="fill"
	d="M463.84 137.80l51.40 -3.20v-3.20l-51.40 3.20"/>
<use x="467.74" y="108.00" xlink:href="#hd"/>
<path d="M464.24 108.00v28.80" class="stroke"/>
<use x="493.14" y="117.00" xlink:href="#hd"/>
<path d="M489.64 117.00v18.20" class="stroke"/>
<use x="518.44" y="102.00" xlink:href="#hd"/>
<defs>
<path id="usharp" class="fill" d="
	m136 -702
	v890
	h32
	v-890
	m128 840
	h32
	v-888
	h-32
	m-232 286
	v116
	l338 -96
	v-116
	m-338 442
	v116
	l338 -98
	v-114"/>
<use id="sh0" transform="translate(-4,5) scale(0.018)"
	xlink:href="#usharp"/>
</defs>
<use x="509.44" y="102.00" xlink:href="#sh0"/>
<path d="M514.94 102.00v31.60" class="stroke"/>
<path class="fill"
	d="M548.44 127.90l79.90 8.30v-3.20l-79.90 -8.30"/>
<path class="fill"
	d="M574.24 125.60l53.80 5.60v-3.20l-53.80 -5.60"/>
<use x="552.34" y="99.00" xlink:href="#hd"/>
<path d="M548.84 99.00v27.90" class="stroke"/>
<defs>
<path id="hl" class="stroke" d="m-6 0h12"/>
</defs>
<use x="577.74" y="96.00" xlink:href="#hl"/>
<use x="577.74" y="93.00" xlink:href="#hd"/>
<path d="M574.24 93.00v36.60" class="stroke"/>
<use x="595.64" y="99.00" xlink:href="#hd"/>
<path d="M592.14 99.00v32.50" class="stroke"/>
<use x="613.54" y="108.00" xlink:href="#hd"/>
<path d="M610.04 108.00v25.30" class="stroke"/>
<use x="631.54" y="114.00" xlink:href="#hd"/>
<path d="M628.04 114.00v21.20" class="stroke"/>
<path class="fill"
	d="M655.74 139.20l79.90 0.00v-3.20l-79.90 -0.00"/>
<path class="fill"
	d="M681.44 134.20l53.80 0.00v-3.20l-53.80 -0.00"/>
<use x="659.54" y="117.00" xlink:href="#hd"/>
<path d="M656.04 117.00v21.20" class="stroke"/>
<use x="684.94" y="108.00" xlink:href="#hd"/>
<path d="M681.44 108.00v30.20" class="stroke"/>
<use x="702.94" y="111.00" xlink:href="#hd"/>
<path d="M699.44 111.00v27.20" class="stroke"/>
<use x="720.84" y="114.00" xlink:href="#hd"/>
<path d="M717.34 114.00v24.20" class="stroke"/>
<use x="738.74" y="117.00" xlink:href="#hd"/>
<path d="M735.24 117.00v21.20" class="stroke"/>
<use x="766.84" y="99.00" xlink:href="#hd"/>
<path d="M763.34 99.00v40.00" class="stroke"/>
<use x="766.84" y="120.00" xlink:href="#hd"/>
<use x="766.84" y="114.00" xlink:href="#hd"/>
<use x="766.84" y="108.00" xlink:href="#hd"/>
<defs>
<path id="r8e" class="fill" d="m 0 0
	c-1.5 1.5 -2.4 2 -3.6 2
	2.4 -2.8 -2.8 -4 -2.8 -1.2
	c0 2.7 4.3 2.4 5.9 0.6"/>
<g id="r8">
	<path d="m3.3 -4l-3.4 9.6" class="stroke"/>
	<use x="3.4" y="-4" xlink:href="#r8e"/>
</g>
</defs>
<use x="828.14" y="114.00" xlink:href="#r8"/>
<defs>
<path id="ubclef" class="fill" d="m-200 -87
	c124 -35 222 -78 254 -236
	43 -228 -167 -246 -192 -103
	59 -80 157 22 92 78
	-62 47 -115 -22 -106 -88
	21 -141 270 -136 274 52
	-1 175 -106 264 -322 297
	m357 -250
	c0 -36 51 -34 51 0
	0 37 -51 36 -51 0
	m-2 -129
	c0 -36 51 -34 51 0
	0 38 -51 37 -51 0"/>
<use id="bclef" transform="translate(0,18) scale(0.045)"
	xlink:href="#ubclef"/>
</defs>
<use x="23.54" y="166.00" xlink:href="#bclef"/>
<g font-family="serif" font-size="16" font-weight="bold" font-style="normal"
	transform="translate(42.04,183.50) scale(1.2,1)">
	<text text-anchor="middle">8</text>
	<text y="-12" text-anchor="middle">3</text>
</g>
<use x="85.64" y="169.00" xlink:href="#hd"/>
<path d="M82.14 169.00v25.00" class="stroke"/>
<use x="85.64" y="175.00" xlink:href="#hd"/>
<use x="136.44" y="172.00" xlink:href="#r8"/>
<use x="170.24" y="169.00" xlink:href="#hd"/>
<path d="M173.74 169.00v-21.00" class="stroke"/>
<use x="221.04" y="172.00" xlink:href="#r8"/>
<use x="254.84" y="163.00" xlink:href="#hd"/>
<path d="M251.34 163.00v21.00" class="stroke"/>
<use x="316.14" y="172.00" xlink:href="#r8"/>
<use x="362.14" y="169.00" xlink:href="#hd"/>
<path d="M358.64 169.00v25.00" class="stroke"/>
<use x="362.14" y="175.00" xlink:href="#hd"/>
<use x="433.84" y="172.00" xlink:href="#r8"/>
<use x="467.74" y="175.00" xlink:href="#hd"/>
<path d="M471.24 175.00v-21.00" class="stroke"/>
<use x="518.44" y="172.00" xlink:href="#r8"/>
<use x="552.34" y="178.00" xlink:href="#hd"/>
<path d="M555.84 178.00v-25.00" class="stroke"/>
<use x="552.34" y="172.00" xlink:href="#hd"/>
<use x="613.54" y="172.00" xlink:href="#r8"/>
<path class="fill"
	d="M662.74 149.30l61.90 8.50v3.20l-61.90 -8.50"/>
<use x="659.54" y="175.00" xlink:href="#hd"/>
<path d="M663.04 175.00v-24.70" class="stroke"/>
<use x="684.94" y="172.00" xlink:href="#hd"/>
<path d="M688.44 172.00v-18.20" class="stroke"/>
<use x="720.84" y="190.00" xlink:href="#hl"/>
<use x="720.84" y="193.00" xlink:href="#hd"/>
<path d="M724.34 193.00v-34.30" class="stroke"/>
<path class="fill"
	d="M763.04 203.20l79.90 0.00v-3.20l-79.90 -0.00"/>
<path class="fill"
	d="M788.74 198.20l53.90 0.00v-3.20l-53.90 -0.00"/>
<use x="766.84" y="184.00" xlink:href="#hd"/>
<path d="M763.34 184.00v18.20" class="stroke"/>
<use x="792.24" y="163.00" xlink:href="#hd"/>
<path d="M788.74 163.00v39.20" class="stroke"/>
<use x="810.24" y="166.00" xlink:href="#hd"/>
<defs>
<path id="unat" class="fill" d="
	m96 -750
	h-32
	v716
	l32 -8
	182 -54
	v282
	h32
	v-706
	l-34 10
	-180 50
	v-290
	m0 592
	v-190
	l182 -52
	v188"/>
<use id="nt0" transform="translate(-3,5) scale(0.018)"
	xlink:href="#unat"/>
</defs>
<use x="801.24" y="166.00" xlink:href="#nt0"/>
<path d="M806.74 166.00v36.20" class="stroke"/>
<use x="828.14" y="169.00" xlink:href="#hd"/>
<path d="M824.64 169.00v33.20" class="stroke"/>
<use x="846.14" y="172.00" xlink:href="#hd"/>
<path d="M842.64 172.00v30.20" class="stroke"/>
<use x="170.24" y="175.00" xlink:href="#hd"/>
<path d="M166.74 175.00v21.00" class="stroke"/>
<defs>
<path id="turn" class="fill" d="
	m5.2 -8
	c1.4 0.5 0.9 4.8 -2.2 2.8
	l-4.8 -3.5
	c-3 -2 -5.8 1.8 -3.6 4.4
	1 1.1 2 0.8 2.1 -0.1
	0.1 -0.9 -0.7 -1.2 -1.9 -0.6
	-1.4 -0.5 -0.9 -4.8 2.2 -2.8
	l4.8 3.5
	c3 2 5.8 -1.8 3.6 -4.4
	-1 -1.1 -2 -0.8 -2.1 0.1
	-0.1 0.9 0.7 1.2 1.9 0.6"/>
</defs>
<use x="493.14" y="100.00" xlink:href="#turn"/>
</g>
<g stroke-width="0.70" transform="scale(0.867)" font-family="Times" font-size="13.00">
<path class="stroke" stroke-width="1"
	d="M11.54 317.01v-82.00"/>
<path class="fill"
	d="M6.54 232.01
	c10.5 1 12 -4.5 12 -3.5c0 1 -3.5 5.5 -8.5 5.5
	v84.00
	c5 0 8.5 4.5 8.5 5.5c0 1 -1.5 -4.5 -12 -3.5"/>
<use x="144.84" y="259.01" xlink:href="#rdots"/>
<path class="stroke" stroke-width="1"
	d="M140.84 259.01v-24.00"/>
<path class="stroke" stroke-width="3"
	d="M136.34 259.01v-24.00"/>
<use x="144.84" y="317.01" xlink:href="#rdots"/>
<path class="stroke" stroke-width="1"
	d="M140.84 317.01v-58.00"/>
<path class="stroke" stroke-width="3"
	d="M136.34 317.01v-58.00"/>
<path class="stroke" stroke-width="1"
	d="M252.54 259.01v-24.00"/>
<path class="stroke" stroke-width="1"
	d="M252.54 317.01v-58.00"/>
<path class="stroke" stroke-width="1"
	d="M353.04 259.01v-24.00"/>
<path class="stroke" stroke-width="1"
	d="M353.04 317.01v-58.00"/>
<path class="stroke" stroke-width="1"
	d="M424.54 259.01v-24.00"/>
<path class="stroke" stroke-width="1"
	d="M424.54 317.01v-58.00"/>
<path class="stroke" stroke-width="1"
	d="M505.24 259.01v-24.00"/>
<path class="stroke" stroke-width="1"
	d="M505.24 317.01v-58.00"/>
<path class="stroke" stroke-width="1"
	d="M605.64 259.01v-24.00"/>
<path class="stroke" stroke-width="1"
	d="M605.64 317.01v-58.00"/>
<path class="stroke" stroke-width="1"
	d="M706.14 259.01v-24.00"/>
<path class="stroke" stroke-width="1"
	d="M706.14 317.01v-58.00"/>
<path class="stroke" stroke-width="1"
	d="M786.74 259.01v-24.00"/>
<path class="stroke" stroke-width="1"
	d="M786.74 317.01v-58.00"/>
<path class="stroke" stroke-width="3"
	d="M860.54 259.01v-24.00"/>
<path class="stroke" stroke-width="1"
	d="M856.04 259.01v-24.00"/>
<use x="852.04" y="259.01" xlink:href="#rdots"/>
<path class="stroke" stroke-width="3"
	d="M860.54 317.01v-58.00"/>
<path class="stroke" stroke-width="1"
	d="M856.04 317.01v-58.00"/>
<use x="852.04" y="317.01" xlink:href="#rdots"/>
<path d="m11.54 259.01
	h850.50
	M11.54 253.01
	h850.50
	M11.54 247.01
	h850.50
	M11.54 241.01
	h850.50
	M11.54 235.01
	h850.50
	" class="stroke"/>
<path d="m11.54 317.01
	h850.50
	M11.54 311.01
	h850.50
	M11.54 305.01
	h850.50
	M11.54 299.01
	h850.50
	M11.54 293.01
	h850.50
	" class="stroke"/>
<path class="fill"
	d="M365.54 230.01c6.02 -5.79 32.23 -13.05 38.25 -10.60
	v-0.24c-7.17 -4.21 -31.08 3.05 -38.25 10.84"/>
<text x="47.54" y="220.41">2</text>
<path class="stroke"
	d="M43.54 209.01m0 20v-20h90.30v20"/>
<use x="23.54" y="253.01" xlink:href="#tclef"/>
<use x="56.04" y="232.01" xlink:href="#hd"/>
<path d="M52.54 232.01v40.00" class="stroke"/>
<use x="56.04" y="253.01" xlink:href="#hd"/>
<use x="56.04" y="247.01" xlink:href="#hd"/>
<use x="56.04" y="241.01" xlink:href="#hd"/>
<use x="110.24" y="247.01" xlink:href="#r8"/>
<path class="fill"
	d="M160.54 259.21l76.40 0.00v-3.20l-76.40 -0.00"/>
<path class="fill"
	d="M160.84 254.21l75.70 0.00v-3.20l-75.70 -0.00"/>
<use x="164.34" y="235.01" xlink:href="#hd"/>
<use x="155.34" y="235.01" xlink:href="#sh0"/>
<path d="M160.84 235.01v23.20" class="stroke"/>
<use x="179.44" y="229.01" xlink:href="#hl"/>
<use x="179.44" y="229.01" xlink:href="#hd"/>
<path d="M175.94 229.01v29.20" class="stroke"/>
<use x="194.64" y="229.01" xlink:href="#hl"/>
<use x="194.64" y="223.01" xlink:href="#hl"/>
<use x="194.64" y="220.01" xlink:href="#hd"/>
<path d="M191.14 220.01v38.20" class="stroke"/>
<use x="209.84" y="229.01" xlink:href="#hl"/>
<use x="209.84" y="229.01" xlink:href="#hd"/>
<path d="M206.34 229.01v29.20" class="stroke"/>
<use x="224.94" y="235.01" xlink:href="#hd"/>
<path d="M221.44 235.01v23.20" class="stroke"/>
<use x="240.04" y="229.01" xlink:href="#hl"/>
<use x="240.04" y="229.01" xlink:href="#hd"/>
<path d="M236.54 229.01v29.20" class="stroke"/>
<path class="fill"
	d="M261.24 261.01l76.20 0.00v-3.20l-76.20 -0.00"/>
<path class="fill"
	d="M261.54 256.01l75.50 0.00v-3.20l-75.50 -0.00"/>
<use x="265.04" y="232.01" xlink:href="#hd"/>
<path d="M261.54 232.01v28.00" class="stroke"/>
<use x="280.14" y="241.01" xlink:href="#hd"/>
<path d="M276.64 241.01v19.00" class="stroke"/>
<use x="295.24" y="232.01" xlink:href="#hd"/>
<path d="M291.74 232.01v28.00" class="stroke"/>
<use x="310.34" y="229.01" xlink:href="#hl"/>
<use x="310.34" y="226.01" xlink:href="#hd"/>
<path d="M306.84 226.01v34.00" class="stroke"/>
<use x="325.44" y="232.01" xlink:href="#hd"/>
<path d="M321.94 232.01v28.00" class="stroke"/>
<use x="340.54" y="241.01" xlink:href="#hd"/>
<path d="M337.04 241.01v19.00" class="stroke"/>
<path class="fill"
	d="M361.74 257.31l42.90 -7.80v-3.20l-42.90 7.80"/>
<use x="365.54" y="238.01" xlink:href="#hd"/>
<path d="M362.04 238.01v18.20" class="stroke"/>
<use x="386.64" y="232.01" xlink:href="#hd"/>
<path d="M383.14 232.01v20.40" class="stroke"/>
<use x="407.84" y="229.01" xlink:href="#hl"/>
<use x="407.84" y="223.01" xlink:href="#hl"/>
<use x="407.84" y="223.01" xlink:href="#hd"/>
<path d="M404.34 223.01v25.50" class="stroke"/>
<path class="fill"
	d="M433.24 265.21l52.00 0.00v-3.20l-52.00 -0.00"/>
<path class="fill"
	d="M454.74 260.21l15.10 0.00v-3.20l-15.10 -0.00"/>
<use x="437.04" y="241.01" xlink:href="#hd"/>
<path d="M433.54 241.01v23.20" class="stroke"/>
<use x="437.04" y="247.01" xlink:href="#hd"/>
<use x="458.24" y="232.01" xlink:href="#hd"/>
<path d="M454.74 232.01v32.20" class="stroke"/>
<use x="473.34" y="229.01" xlink:href="#hl"/>
<use x="473.34" y="226.01" xlink:href="#hd"/>
<path d="M469.84 226.01v38.20" class="stroke"/>
<use x="488.44" y="241.01" xlink:href="#hd"/>
<path d="M484.94 241.01v23.20" class="stroke"/>
<path class="fill"
	d="M513.84 275.21l76.20 0.00v-3.20l-76.20 -0.00"/>
<path class="fill"
	d="M514.24 270.21l75.50 0.00v-3.20l-75.50 -0.00"/>
<use x="517.74" y="244.01" xlink:href="#hd"/>
<path d="M514.24 244.01v30.20" class="stroke"/>
<use x="532.74" y="247.01" xlink:href="#hd"/>
<path d="M529.24 247.01v27.20" class="stroke"/>
<use x="547.84" y="244.01" xlink:href="#hd"/>
<path d="M544.34 244.01v30.20" class="stroke"/>
<use x="562.94" y="238.01" xlink:href="#hd"/>
<path d="M559.44 238.01v36.20" class="stroke"/>
<use x="578.04" y="253.01" xlink:href="#hd"/>
<path d="M574.54 253.01v21.20" class="stroke"/>
<use x="593.14" y="244.01" xlink:href="#hd"/>
<path d="M589.64 244.01v30.20" class="stroke"/>
<path class="fill"
	d="M614.34 261.61l61.10 3.30v-3.20l-61.10 -3.30"/>
<use x="618.14" y="232.01" xlink:href="#hd"/>
<path d="M614.64 232.01v28.60" class="stroke"/>
<use x="648.34" y="244.01" xlink:href="#hd"/>
<path d="M644.84 244.01v18.20" class="stroke"/>
<use x="678.54" y="238.01" xlink:href="#hd"/>
<path d="M675.04 238.01v25.80" class="stroke"/>
<path class="fill"
	d="M714.84 265.81l52.00 5.90v-3.20l-52.00 -5.90"/>
<path class="fill"
	d="M715.14 260.81l15.10 1.70v-3.20l-15.10 -1.70"/>
<use x="718.64" y="235.01" xlink:href="#hd"/>
<path d="M715.14 235.01v29.80" class="stroke"/>
<use x="733.74" y="241.01" xlink:href="#hd"/>
<path d="M730.24 241.01v25.50" class="stroke"/>
<use x="748.84" y="250.01" xlink:href="#hd"/>
<path d="M745.34 250.01v18.20" class="stroke"/>
<use x="770.04" y="247.01" xlink:href="#hd"/>
<path d="M766.54 247.01v23.60" class="stroke"/>
<use x="799.24" y="244.01" xlink:href="#hd"/>
<path d="M795.74 244.01v21.00" class="stroke"/>
<use x="841.54" y="247.01" xlink:href="#r8"/>
<use x="23.54" y="299.01" xlink:href="#bclef"/>
<path class="fill"
	d="M52.24 336.21l70.00 -5.10v-3.20l-70.00 5.10"/>
<path class="fill"
	d="M73.64 329.71l48.20 -3.50v-3.20l-48.20 3.50"/>
<use x="56.04" y="317.01" xlink:href="#hd"/>
<path d="M52.54 317.01v18.20" class="stroke"/>
<use x="77.14" y="290.01" xlink:href="#hd"/>
<path d="M73.64 290.01v43.70" class="stroke"/>
<use x="92.24" y="296.01" xlink:href="#hd"/>
<path d="M88.74 296.01v36.60" class="stroke"/>
<use x="110.24" y="299.01" xlink:href="#hd"/>
<use x="101.24" y="299.01" xlink:href="#sh0"/>
<path d="M106.74 299.01v32.30" class="stroke"/>
<use x="125.34" y="302.01" xlink:href="#hd"/>
<path d="M121.84 302.01v28.20" class="stroke"/>
<use x="164.34" y="293.01" xlink:href="#hd"/>
<path d="M160.84 293.01v34.00" class="stroke"/>
<use x="164.34" y="308.01" xlink:href="#hd"/>
<use x="224.94" y="293.01" xlink:href="#hd"/>
<path d="M221.44 293.01v34.00" class="stroke"/>
<path class="fill"
	d="M221.44 327.01c0.6 -5.6 9.6 -9 5.6 -18.4
	1.6 6 -1.3 11.6 -5.6 12.8
"/>
<use x="224.94" y="308.01" xlink:href="#hd"/>
<use x="265.04" y="311.01" xlink:href="#hd"/>
<path d="M268.54 311.01v-25.00" class="stroke"/>
<use x="265.04" y="305.01" xlink:href="#hd"/>
<use x="325.44" y="311.01" xlink:href="#hd"/>
<path d="M328.94 311.01v-25.00" class="stroke"/>
<path class="fill"
	d="M328.94 286.01c0.6 5.6 9.6 9 5.6 18.4
	1.6 -6 -1.3 -11.6 -5.6 -12.8
"/>
<use x="325.44" y="305.01" xlink:href="#hd"/>
<use x="365.54" y="296.01" xlink:href="#hd"/>
<path d="M362.04 296.01v31.00" class="stroke"/>
<use x="365.54" y="308.01" xlink:href="#hd"/>
<use x="407.84" y="302.01" xlink:href="#hd"/>
<path d="M404.34 302.01v25.00" class="stroke"/>
<path class="fill"
	d="M404.34 327.01c0.6 -5.6 9.6 -9 5.6 -18.4
	1.6 6 -1.3 11.6 -5.6 12.8
"/>
<use x="407.84" y="308.01" xlink:href="#hd"/>
<use x="437.04" y="317.01" xlink:href="#hd"/>
<path d="M440.54 317.01v-40.00" class="stroke"/>
<use x="437.04" y="296.01" xlink:href="#hd"/>
<use x="488.44" y="296.01" xlink:href="#hd"/>
<path d="M484.94 296.01v21.00" class="stroke"/>
<path class="fill"
	d="M484.94 317.01c0.6 -5.6 9.6 -9 5.6 -18.4
	1.6 6 -1.3 11.6 -5.6 12.8
"/>
<use x="517.74" y="302.01" xlink:href="#hd"/>
<path d="M514.24 302.01v25.00" class="stroke"/>
<use x="517.74" y="308.01" xlink:href="#hd"/>
<use x="578.04" y="296.01" xlink:href="#hd"/>
<path d="M574.54 296.01v25.00" class="stroke"/>
<path class="fill"
	d="M574.54 321.01c0.6 -5.6 9.6 -9 5.6 -18.4
	1.6 6 -1.3 11.6 -5.6 12.8
"/>
<use x="578.04" y="302.01" xlink:href="#hd"/>
<path class="fill"
	d="M614.34 324.91l76.20 0.00v-3.20l-76.20 -0.00"/>
<path class="fill"
	d="M614.64 319.91l75.50 0.00v-3.20l-75.50 -0.00"/>
<use x="618.14" y="302.01" xlink:href="#hd"/>
<path d="M614.64 302.01v21.90" class="stroke"/>
<use x="618.14" y="308.01" xlink:href="#hd"/>
<use x="633.24" y="296.01" xlink:href="#hd"/>
<path d="M629.74 296.01v27.90" class="stroke"/>
<use x="648.34" y="302.01" xlink:href="#hd"/>
<path d="M644.84 302.01v21.90" class="stroke"/>
<use x="648.34" y="308.01" xlink:href="#hd"/>
<use x="663.44" y="296.01" xlink:href="#hd"/>
<path d="M659.94 296.01v27.90" class="stroke"/>
<use x="678.54" y="302.01" xlink:href="#hd"/>
<path d="M675.04 302.01v21.90" class="stroke"/>
<use x="678.54" y="308.01" xlink:href="#hd"/>
<use x="693.64" y="296.01" xlink:href="#hd"/>
<path d="M690.14 296.01v27.90" class="stroke"/>
<use x="718.64" y="299.01" xlink:href="#hd"/>
<path d="M715.14 299.01v21.00" class="stroke"/>
<use x="770.04" y="296.01" xlink:href="#hd"/>
<path d="M766.54 296.01v21.00" class="stroke"/>
<path class="fill"
	d="M766.54 317.01c0.6 -5.6 9.6 -9 5.6 -18.4
	1.6 6 -1.3 11.6 -5.6 12.8
"/>
<path class="fill"
	d="M802.44 288.71l42.90 9.90v3.20l-42.90 -9.90"/>
<use x="799.24" y="308.01" xlink:href="#hd"/>
<path d="M802.74 308.01v-18.20" class="stroke"/>
<use x="820.44" y="317.01" xlink:href="#hd"/>
<path d="M823.94 317.01v-22.30" class="stroke"/>
<use x="841.54" y="323.01" xlink:href="#hl"/>
<use x="841.54" y="329.01" xlink:href="#hl"/>
<use x="841.54" y="329.01" xlink:href="#hd"/>
<path d="M845.04 329.01v-29.50" class="stroke"/>
</g>
</svg>
