<?xml version="1.0" standalone="no"?>
<!DOCTYPE svg PUBLIC "-//W3C//DTD SVG 1.1//EN"
	"http://www.w3.org/Graphics/SVG/1.1/DTD/svg11.dtd">
<svg xmlns="http://www.w3.org/2000/svg" version="1.1"
	xmlns:xlink="http://www.w3.org/1999/xlink"
	color="black"
	width="757.10px" height="300.73px">
<style type="text/css">
.fill {fill: currentColor}
.stroke {stroke: currentColor; fill: none}
text{white-space: pre}
</style>
<title>./K516f-5-12-4-9-10-7-11-10-12-5-8-10-2-11-6-6.abc (1665) tune 1</title>
<!-- Creator: abcm2ps-8.13.8 -->
<!-- CreationDate: Sep  7, 2017 11:19 -->
<!-- CommandLine: ./K516f-5-12-4-9-10-7-11-10-12-5-8-10-2-11-6-6.abc -O ./K516f-5-12-4-9-10-7-11-10-12-5-8-10-2-11-6-6.svg -g -->
<rect width="100%" height="100%" fill="white"/>
<g stroke-width="0.70" transform="scale(0.867)">
<!-- title: 5-12-4-9-10-7-11-10-12-5-8-10-2-11-6-6 -->
</g>
<g stroke-width="0.70" transform="scale(0.867)" font-family="Times" font-size="20.00">
<text x="436.84" y="22.00" text-anchor="middle">5-12-4-9-10-7-11-10-12-5-8-10-2-11-6-6</text>
</g>
<g stroke-width="0.70" transform="scale(0.867)" font-family="Times" font-size="20.00">
<!-- subtitle: $1K.516f::40:130:158:50:75:68:147:123:35:176:57:82:112:59:1:93::$0 -->
</g>
<g stroke-width="0.70" transform="scale(0.867)" font-family="Courier" font-size="8.00" font-weight="bold">
<text x="436.84" y="41.80" text-anchor="middle">K.516f::40:130:158:50:75:68:147:123:35:176:57:82:112:59:1:93::</text>
</g>
<g stroke-width="0.70" transform="scale(0.867)" font-family="Courier" font-size="8.00" font-weight="bold">
<!-- subtitle: $1Perm. No.: 166559205873625$0 -->
<text x="436.84" y="60.80" text-anchor="middle">Perm. No.: 166559205873625</text>
</g>
<g stroke-width="0.70" transform="scale(0.607)" font-family="Courier" font-size="8.00" font-weight="bold">
<defs>
<ellipse id="hd" rx="4.1" ry="2.9"
	transform="rotate(-20)" class="fill"/>
</defs>
<use x="103.06" y="121.29" xlink:href="#hd"/>
<path d="M106.56 121.29v-21.00" class="stroke"/>
<path class="fill"
	d="M106.56 100.29c0.6 5.6 9.6 9 5.6 18.4
	1.6 -6 -1.3 -11.6 -5.6 -12.8
"/>
</g>
<g stroke-width="0.70" transform="scale(0.867)" font-family="Times" font-size="15.00" font-weight="bold">
<text x="81.24" y="87.00">= 111</text>
<path class="stroke" stroke-width="1"
	d="M11.54 183.00v-82.00"/>
<path class="fill"
	d="M6.54 98.00
	c10.5 1 12 -4.5 12 -3.5c0 1 -3.5 5.5 -8.5 5.5
	v84.00
	c5 0 8.5 4.5 8.5 5.5c0 1 -1.5 -4.5 -12 -3.5"/>
<defs>
<g id="rdots" class="fill">
	<circle cx="0" cy="-9" r="1.2"/>
	<circle cx="0" cy="-15" r="1.2"/>
</g>
</defs>
<use x="70.54" y="125.00" xlink:href="#rdots"/>
<path class="stroke" stroke-width="1"
	d="M66.54 125.00v-24.00"/>
<path class="stroke" stroke-width="3"
	d="M62.04 125.00v-24.00"/>
<use x="70.54" y="183.00" xlink:href="#rdots"/>
<path class="stroke" stroke-width="1"
	d="M66.54 183.00v-58.00"/>
<path class="stroke" stroke-width="3"
	d="M62.04 183.00v-58.00"/>
<path class="stroke" stroke-width="1"
	d="M183.64 125.00v-24.00"/>
<path class="stroke" stroke-width="1"
	d="M183.64 183.00v-58.00"/>
<path class="stroke" stroke-width="1"
	d="M264.04 125.00v-24.00"/>
<path class="stroke" stroke-width="1"
	d="M264.04 183.00v-58.00"/>
<path class="stroke" stroke-width="1"
	d="M366.14 125.00v-24.00"/>
<path class="stroke" stroke-width="1"
	d="M366.14 183.00v-58.00"/>
<path class="stroke" stroke-width="1"
	d="M456.64 125.00v-24.00"/>
<path class="stroke" stroke-width="1"
	d="M456.64 183.00v-58.00"/>
<path class="stroke" stroke-width="1"
	d="M542.04 125.00v-24.00"/>
<path class="stroke" stroke-width="1"
	d="M542.04 183.00v-58.00"/>
<path class="stroke" stroke-width="1"
	d="M644.14 125.00v-24.00"/>
<path class="stroke" stroke-width="1"
	d="M644.14 183.00v-58.00"/>
<path class="stroke" stroke-width="1"
	d="M757.14 125.00v-24.00"/>
<path class="stroke" stroke-width="1"
	d="M757.14 183.00v-58.00"/>
<path class="stroke" stroke-width="3"
	d="M860.54 125.00v-24.00"/>
<path class="stroke" stroke-width="1"
	d="M856.04 125.00v-24.00"/>
<use x="852.04" y="125.00" xlink:href="#rdots"/>
<path class="stroke" stroke-width="3"
	d="M860.54 183.00v-58.00"/>
<path class="stroke" stroke-width="1"
	d="M856.04 183.00v-58.00"/>
<use x="852.04" y="183.00" xlink:href="#rdots"/>
<path d="m11.54 125.00
	h850.50
	M11.54 119.00
	h850.50
	M11.54 113.00
	h850.50
	M11.54 107.00
	h850.50
	M11.54 101.00
	h850.50
	" class="stroke"/>
<path d="m11.54 183.00
	h850.50
	M11.54 177.00
	h850.50
	M11.54 171.00
	h850.50
	M11.54 165.00
	h850.50
	M11.54 159.00
	h850.50
	" class="stroke"/>
</g>
<g stroke-width="0.70" transform="scale(0.867)" font-family="Times" font-size="13.00">
<text x="761.14" y="86.40">1</text>
<path class="stroke"
	d="M757.14 75.00m0 20v-20h96.90v20"/>
<defs>
<path id="utclef" class="fill" d="m-50 -90
	c-72 -41 -72 -158 52 -188
	150 -10 220 188 90 256
	-114 52 -275 0 -293 -136
	-15 -181 93 -229 220 -334
	88 -87 79 -133 62 -210
	-51 33 -94 105 -89 186
	17 267 36 374 49 574
	6 96 -19 134 -77 135
	-80 1 -126 -93 -61 -133
	85 -41 133 101 31 105
	23 17 92 37 90 -92
	-10 -223 -39 -342 -50 -617
	0 -90 0 -162 96 -232
	56 72 63 230 22 289
	-74 106 -257 168 -255 316
	9 153 148 185 252 133
	86 -65 29 -192 -80 -176
	-71 12 -105 67 -59 124"/>
<use id="tclef" transform="translate(0,6) scale(0.045)"
	xlink:href="#utclef"/>
</defs>
<use x="23.54" y="119.00" xlink:href="#tclef"/>
<g font-family="serif" font-size="16" font-weight="bold" font-style="normal"
	transform="translate(42.04,124.50) scale(1.2,1)">
	<text text-anchor="middle">8</text>
	<text y="-12" text-anchor="middle">3</text>
</g>
<path class="fill"
	d="M81.24 141.20l85.90 0.00v-3.20l-85.90 -0.00"/>
<path class="fill"
	d="M81.54 136.20l85.30 0.00v-3.20l-85.30 -0.00"/>
<use x="85.04" y="110.00" xlink:href="#hd"/>
<path d="M81.54 110.00v30.20" class="stroke"/>
<use x="102.04" y="113.00" xlink:href="#hd"/>
<path d="M98.54 113.00v27.20" class="stroke"/>
<use x="119.14" y="110.00" xlink:href="#hd"/>
<path d="M115.64 110.00v30.20" class="stroke"/>
<use x="136.14" y="104.00" xlink:href="#hd"/>
<path d="M132.64 104.00v36.20" class="stroke"/>
<use x="153.24" y="119.00" xlink:href="#hd"/>
<path d="M149.74 119.00v21.20" class="stroke"/>
<use x="170.24" y="110.00" xlink:href="#hd"/>
<path d="M166.74 110.00v30.20" class="stroke"/>
<path class="fill"
	d="M200.34 91.00l48.80 0.00v3.20l-48.80 -0.00"/>
<use x="197.14" y="125.00" xlink:href="#hd"/>
<path d="M200.64 125.00v-33.00" class="stroke"/>
<use x="197.14" y="110.00" xlink:href="#hd"/>
<use x="221.24" y="125.00" xlink:href="#hd"/>
<path d="M224.74 125.00v-33.00" class="stroke"/>
<use x="221.24" y="110.00" xlink:href="#hd"/>
<use x="245.24" y="125.00" xlink:href="#hd"/>
<path d="M248.74 125.00v-33.00" class="stroke"/>
<use x="245.24" y="110.00" xlink:href="#hd"/>
<path class="fill"
	d="M280.74 84.80l75.90 0.00v3.20l-75.90 -0.00"/>
<path class="fill"
	d="M305.14 89.80l51.20 0.00v3.20l-51.20 -0.00"/>
<use x="277.54" y="113.00" xlink:href="#hd"/>
<path d="M281.04 113.00v-27.20" class="stroke"/>
<use x="301.64" y="107.00" xlink:href="#hd"/>
<path d="M305.14 107.00v-21.20" class="stroke"/>
<use x="318.64" y="113.00" xlink:href="#hd"/>
<path d="M322.14 113.00v-27.20" class="stroke"/>
<use x="335.74" y="116.00" xlink:href="#hd"/>
<path d="M339.24 116.00v-30.20" class="stroke"/>
<use x="352.74" y="119.00" xlink:href="#hd"/>
<path d="M356.24 119.00v-33.20" class="stroke"/>
<path class="fill"
	d="M375.74 133.50l58.80 4.70v-3.20l-58.80 -4.70"/>
<path class="fill"
	d="M400.14 130.50l17.10 1.40v-3.20l-17.10 -1.40"/>
<use x="379.64" y="110.00" xlink:href="#hd"/>
<path d="M376.14 110.00v22.50" class="stroke"/>
<use x="403.64" y="104.00" xlink:href="#hd"/>
<path d="M400.14 104.00v30.50" class="stroke"/>
<use x="420.74" y="110.00" xlink:href="#hd"/>
<path d="M417.24 110.00v25.80" class="stroke"/>
<use x="437.74" y="119.00" xlink:href="#hd"/>
<path d="M434.24 119.00v18.20" class="stroke"/>
<path class="fill"
	d="M471.24 125.20l48.80 0.00v-3.20l-48.80 -0.00"/>
<use x="475.14" y="101.00" xlink:href="#hd"/>
<defs>
<path id="usharp" class="fill" d="
	m136 -702
	v890
	h32
	v-890
	m128 840
	h32
	v-888
	h-32
	m-232 286
	v116
	l338 -96
	v-116
	m-338 442
	v116
	l338 -98
	v-114"/>
<use id="sh0" transform="translate(-4,5) scale(0.018)"
	xlink:href="#usharp"/>
</defs>
<use x="466.14" y="101.00" xlink:href="#sh0"/>
<path d="M471.64 101.00v23.20" class="stroke"/>
<use x="475.14" y="107.00" xlink:href="#hd"/>
<use x="499.14" y="101.00" xlink:href="#hd"/>
<path d="M495.64 101.00v23.20" class="stroke"/>
<use x="499.14" y="107.00" xlink:href="#hd"/>
<use x="523.24" y="101.00" xlink:href="#hd"/>
<path d="M519.74 101.00v23.20" class="stroke"/>
<use x="523.24" y="107.00" xlink:href="#hd"/>
<path class="fill"
	d="M551.64 127.00l75.90 0.00v-3.20l-75.90 -0.00"/>
<path class="fill"
	d="M576.14 122.00l51.20 0.00v-3.20l-51.20 -0.00"/>
<use x="555.54" y="98.00" xlink:href="#hd"/>
<path d="M552.04 98.00v28.00" class="stroke"/>
<defs>
<path id="hl" class="stroke" d="m-6 0h12"/>
</defs>
<use x="579.64" y="95.00" xlink:href="#hl"/>
<use x="579.64" y="92.00" xlink:href="#hd"/>
<path d="M576.14 92.00v34.00" class="stroke"/>
<use x="596.64" y="98.00" xlink:href="#hd"/>
<path d="M593.14 98.00v28.00" class="stroke"/>
<use x="613.74" y="107.00" xlink:href="#hd"/>
<path d="M610.24 107.00v19.00" class="stroke"/>
<use x="630.74" y="98.00" xlink:href="#hd"/>
<path d="M627.24 98.00v28.00" class="stroke"/>
<path class="fill"
	d="M653.74 127.00l86.90 0.00v-3.20l-86.90 -0.00"/>
<path class="fill"
	d="M654.04 122.00l86.20 0.00v-3.20l-86.20 -0.00"/>
<use x="657.54" y="104.00" xlink:href="#hd"/>
<path d="M654.04 104.00v22.00" class="stroke"/>
<use x="674.64" y="95.00" xlink:href="#hl"/>
<use x="674.64" y="89.00" xlink:href="#hl"/>
<use x="674.64" y="89.00" xlink:href="#hd"/>
<path d="M671.14 89.00v37.00" class="stroke"/>
<use x="691.74" y="95.00" xlink:href="#hl"/>
<use x="691.74" y="92.00" xlink:href="#hd"/>
<path d="M688.24 92.00v34.00" class="stroke"/>
<use x="708.74" y="98.00" xlink:href="#hd"/>
<path d="M705.24 98.00v28.00" class="stroke"/>
<use x="725.84" y="95.00" xlink:href="#hl"/>
<use x="725.84" y="95.00" xlink:href="#hd"/>
<path d="M722.34 95.00v31.00" class="stroke"/>
<use x="743.84" y="101.00" xlink:href="#hd"/>
<use x="734.84" y="101.00" xlink:href="#sh0"/>
<path d="M740.34 101.00v25.00" class="stroke"/>
<use x="770.64" y="98.00" xlink:href="#hd"/>
<path d="M767.14 98.00v40.00" class="stroke"/>
<use x="770.64" y="119.00" xlink:href="#hd"/>
<use x="770.64" y="113.00" xlink:href="#hd"/>
<use x="770.64" y="107.00" xlink:href="#hd"/>
<defs>
<path id="r8e" class="fill" d="m 0 0
	c-1.5 1.5 -2.4 2 -3.6 2
	2.4 -2.8 -2.8 -4 -2.8 -1.2
	c0 2.7 4.3 2.4 5.9 0.6"/>
<g id="r8">
	<path d="m3.3 -4l-3.4 9.6" class="stroke"/>
	<use x="3.4" y="-4" xlink:href="#r8e"/>
</g>
</defs>
<use x="829.74" y="113.00" xlink:href="#r8"/>
<defs>
<path id="ubclef" class="fill" d="m-200 -87
	c124 -35 222 -78 254 -236
	43 -228 -167 -246 -192 -103
	59 -80 157 22 92 78
	-62 47 -115 -22 -106 -88
	21 -141 270 -136 274 52
	-1 175 -106 264 -322 297
	m357 -250
	c0 -36 51 -34 51 0
	0 37 -51 36 -51 0
	m-2 -129
	c0 -36 51 -34 51 0
	0 38 -51 37 -51 0"/>
<use id="bclef" transform="translate(0,18) scale(0.045)"
	xlink:href="#ubclef"/>
</defs>
<use x="23.54" y="165.00" xlink:href="#bclef"/>
<g font-family="serif" font-size="16" font-weight="bold" font-style="normal"
	transform="translate(42.04,182.50) scale(1.2,1)">
	<text text-anchor="middle">8</text>
	<text y="-12" text-anchor="middle">3</text>
</g>
<use x="85.04" y="168.00" xlink:href="#hd"/>
<path d="M81.54 168.00v25.00" class="stroke"/>
<use x="85.04" y="174.00" xlink:href="#hd"/>
<use x="153.24" y="171.00" xlink:href="#r8"/>
<path class="fill"
	d="M200.34 153.00l48.80 0.00v3.20l-48.80 -0.00"/>
<use x="197.14" y="174.00" xlink:href="#hd"/>
<path d="M200.64 174.00v-20.00" class="stroke"/>
<use x="221.24" y="174.00" xlink:href="#hd"/>
<path d="M224.74 174.00v-20.00" class="stroke"/>
<use x="245.24" y="174.00" xlink:href="#hd"/>
<path d="M248.74 174.00v-20.00" class="stroke"/>
<use x="277.54" y="162.00" xlink:href="#hd"/>
<path d="M274.04 162.00v21.00" class="stroke"/>
<use x="335.74" y="171.00" xlink:href="#r8"/>
<use x="379.64" y="162.00" xlink:href="#hd"/>
<path d="M376.14 162.00v25.00" class="stroke"/>
<use x="379.64" y="168.00" xlink:href="#hd"/>
<use x="437.74" y="171.00" xlink:href="#r8"/>
<path class="fill"
	d="M478.24 153.00l48.80 0.00v3.20l-48.80 -0.00"/>
<use x="475.14" y="174.00" xlink:href="#hd"/>
<path d="M478.64 174.00v-20.00" class="stroke"/>
<use x="499.14" y="174.00" xlink:href="#hd"/>
<path d="M502.64 174.00v-20.00" class="stroke"/>
<use x="523.24" y="174.00" xlink:href="#hd"/>
<path d="M526.74 174.00v-20.00" class="stroke"/>
<use x="555.54" y="177.00" xlink:href="#hd"/>
<path d="M559.04 177.00v-21.00" class="stroke"/>
<use x="613.74" y="171.00" xlink:href="#r8"/>
<path class="fill"
	d="M660.74 147.70l68.90 8.30v3.20l-68.90 -8.30"/>
<use x="657.54" y="174.00" xlink:href="#hd"/>
<path d="M661.04 174.00v-25.30" class="stroke"/>
<use x="691.74" y="171.00" xlink:href="#hd"/>
<path d="M695.24 171.00v-18.20" class="stroke"/>
<use x="725.84" y="189.00" xlink:href="#hl"/>
<use x="725.84" y="192.00" xlink:href="#hd"/>
<path d="M729.34 192.00v-35.10" class="stroke"/>
<path class="fill"
	d="M766.84 202.20l76.80 0.00v-3.20l-76.80 -0.00"/>
<path class="fill"
	d="M791.24 197.20l52.10 0.00v-3.20l-52.10 -0.00"/>
<use x="770.64" y="183.00" xlink:href="#hd"/>
<path d="M767.14 183.00v18.20" class="stroke"/>
<use x="794.74" y="162.00" xlink:href="#hd"/>
<path d="M791.24 162.00v39.20" class="stroke"/>
<use x="812.74" y="165.00" xlink:href="#hd"/>
<defs>
<path id="unat" class="fill" d="
	m96 -750
	h-32
	v716
	l32 -8
	182 -54
	v282
	h32
	v-706
	l-34 10
	-180 50
	v-290
	m0 592
	v-190
	l182 -52
	v188"/>
<use id="nt0" transform="translate(-3,5) scale(0.018)"
	xlink:href="#unat"/>
</defs>
<use x="803.74" y="165.00" xlink:href="#nt0"/>
<path d="M809.24 165.00v36.20" class="stroke"/>
<use x="829.74" y="168.00" xlink:href="#hd"/>
<path d="M826.24 168.00v33.20" class="stroke"/>
<use x="846.84" y="171.00" xlink:href="#hd"/>
<path d="M843.34 171.00v30.20" class="stroke"/>
</g>
<g stroke-width="0.70" transform="scale(0.867)" font-family="Times" font-size="13.00">
<path class="stroke" stroke-width="1"
	d="M11.54 324.00v-90.00"/>
<path class="fill"
	d="M6.54 231.00
	c10.5 1 12 -4.5 12 -3.5c0 1 -3.5 5.5 -8.5 5.5
	v92.00
	c5 0 8.5 4.5 8.5 5.5c0 1 -1.5 -4.5 -12 -3.5"/>
<use x="145.64" y="258.00" xlink:href="#rdots"/>
<path class="stroke" stroke-width="1"
	d="M141.64 258.00v-24.00"/>
<path class="stroke" stroke-width="3"
	d="M137.14 258.00v-24.00"/>
<use x="145.64" y="324.00" xlink:href="#rdots"/>
<path class="stroke" stroke-width="1"
	d="M141.64 324.00v-66.00"/>
<path class="stroke" stroke-width="3"
	d="M137.14 324.00v-66.00"/>
<path class="stroke" stroke-width="1"
	d="M225.54 258.00v-24.00"/>
<path class="stroke" stroke-width="1"
	d="M225.54 324.00v-66.00"/>
<path class="stroke" stroke-width="1"
	d="M327.14 258.00v-24.00"/>
<path class="stroke" stroke-width="1"
	d="M327.14 324.00v-66.00"/>
<path class="stroke" stroke-width="1"
	d="M428.74 258.00v-24.00"/>
<path class="stroke" stroke-width="1"
	d="M428.74 324.00v-66.00"/>
<path class="stroke" stroke-width="1"
	d="M510.54 258.00v-24.00"/>
<path class="stroke" stroke-width="1"
	d="M510.54 324.00v-66.00"/>
<path class="stroke" stroke-width="1"
	d="M612.14 258.00v-24.00"/>
<path class="stroke" stroke-width="1"
	d="M612.14 324.00v-66.00"/>
<path class="stroke" stroke-width="1"
	d="M713.64 258.00v-24.00"/>
<path class="stroke" stroke-width="1"
	d="M713.64 324.00v-66.00"/>
<path class="stroke" stroke-width="1"
	d="M786.14 258.00v-24.00"/>
<path class="stroke" stroke-width="1"
	d="M786.14 324.00v-66.00"/>
<path class="stroke" stroke-width="3"
	d="M860.54 258.00v-24.00"/>
<path class="stroke" stroke-width="1"
	d="M856.04 258.00v-24.00"/>
<use x="852.04" y="258.00" xlink:href="#rdots"/>
<path class="stroke" stroke-width="3"
	d="M860.54 324.00v-66.00"/>
<path class="stroke" stroke-width="1"
	d="M856.04 324.00v-66.00"/>
<use x="852.04" y="324.00" xlink:href="#rdots"/>
<path d="m11.54 258.00
	h850.50
	M11.54 252.00
	h850.50
	M11.54 246.00
	h850.50
	M11.54 240.00
	h850.50
	M11.54 234.00
	h850.50
	" class="stroke"/>
<path d="m11.54 324.00
	h850.50
	M11.54 318.00
	h850.50
	M11.54 312.00
	h850.50
	M11.54 306.00
	h850.50
	M11.54 300.00
	h850.50
	" class="stroke"/>
<text x="47.54" y="219.40">2</text>
<path class="stroke"
	d="M43.54 208.00m0 20v-20h91.10v20"/>
<use x="23.54" y="252.00" xlink:href="#tclef"/>
<use x="56.04" y="231.00" xlink:href="#hd"/>
<path d="M52.54 231.00v40.00" class="stroke"/>
<use x="56.04" y="252.00" xlink:href="#hd"/>
<use x="56.04" y="246.00" xlink:href="#hd"/>
<use x="56.04" y="240.00" xlink:href="#hd"/>
<use x="110.84" y="246.00" xlink:href="#r8"/>
<path class="fill"
	d="M161.34 268.20l44.10 -6.50v-3.20l-44.10 6.50"/>
<use x="165.14" y="249.00" xlink:href="#hd"/>
<path d="M161.64 249.00v18.20" class="stroke"/>
<use x="186.64" y="240.00" xlink:href="#hd"/>
<path d="M183.14 240.00v24.10" class="stroke"/>
<use x="208.54" y="234.00" xlink:href="#hd"/>
<use x="199.54" y="234.00" xlink:href="#sh0"/>
<path d="M205.04 234.00v26.80" class="stroke"/>
<path class="fill"
	d="M234.24 260.00l77.30 0.00v-3.20l-77.30 -0.00"/>
<path class="fill"
	d="M234.54 255.00l76.60 0.00v-3.20l-76.60 -0.00"/>
<use x="238.04" y="228.00" xlink:href="#hl"/>
<use x="238.04" y="228.00" xlink:href="#hd"/>
<path d="M234.54 228.00v31.00" class="stroke"/>
<use x="253.34" y="231.00" xlink:href="#hd"/>
<path d="M249.84 231.00v28.00" class="stroke"/>
<use x="268.64" y="228.00" xlink:href="#hl"/>
<use x="268.64" y="225.00" xlink:href="#hd"/>
<path d="M265.14 225.00v34.00" class="stroke"/>
<use x="284.04" y="231.00" xlink:href="#hd"/>
<path d="M280.54 231.00v28.00" class="stroke"/>
<use x="299.34" y="240.00" xlink:href="#hd"/>
<path d="M295.84 240.00v19.00" class="stroke"/>
<use x="314.64" y="231.00" xlink:href="#hd"/>
<path d="M311.14 231.00v28.00" class="stroke"/>
<path class="fill"
	d="M335.74 264.20l61.90 7.00v-3.20l-61.90 -7.00"/>
<use x="339.64" y="237.00" xlink:href="#hd"/>
<path d="M336.14 237.00v26.20" class="stroke"/>
<use x="370.24" y="243.00" xlink:href="#hd"/>
<path d="M366.74 243.00v23.70" class="stroke"/>
<use x="400.84" y="252.00" xlink:href="#hd"/>
<path d="M397.34 252.00v18.20" class="stroke"/>
<path class="fill"
	d="M437.34 273.70l52.80 -4.30v-3.20l-52.80 4.30"/>
<path class="fill"
	d="M437.74 268.70l15.30 -1.30v-3.20l-15.30 1.30"/>
<use x="441.24" y="240.00" xlink:href="#hd"/>
<path d="M437.74 240.00v32.70" class="stroke"/>
<use x="456.54" y="246.00" xlink:href="#hd"/>
<path d="M453.04 246.00v25.50" class="stroke"/>
<use x="471.84" y="252.00" xlink:href="#hd"/>
<path d="M468.34 252.00v18.20" class="stroke"/>
<use x="493.34" y="231.00" xlink:href="#hd"/>
<path d="M489.84 231.00v37.40" class="stroke"/>
<path class="fill"
	d="M519.24 264.20l61.90 7.00v-3.20l-61.90 -7.00"/>
<use x="523.04" y="237.00" xlink:href="#hd"/>
<path d="M519.54 237.00v26.20" class="stroke"/>
<use x="553.64" y="243.00" xlink:href="#hd"/>
<path d="M550.14 243.00v23.70" class="stroke"/>
<use x="584.34" y="252.00" xlink:href="#hd"/>
<path d="M580.84 252.00v18.20" class="stroke"/>
<path class="fill"
	d="M620.74 260.60l61.90 3.30v-3.20l-61.90 -3.30"/>
<use x="624.64" y="231.00" xlink:href="#hd"/>
<path d="M621.14 231.00v28.60" class="stroke"/>
<use x="655.24" y="243.00" xlink:href="#hd"/>
<path d="M651.74 243.00v18.20" class="stroke"/>
<use x="685.84" y="237.00" xlink:href="#hd"/>
<path d="M682.34 237.00v25.80" class="stroke"/>
<path class="fill"
	d="M722.34 258.20l43.60 0.00v-3.20l-43.60 -0.00"/>
<use x="726.14" y="234.00" xlink:href="#hd"/>
<path d="M722.64 234.00v23.20" class="stroke"/>
<use x="747.64" y="240.00" xlink:href="#hd"/>
<path d="M744.14 240.00v17.20" class="stroke"/>
<use x="769.14" y="231.00" xlink:href="#hd"/>
<path d="M765.64 231.00v26.20" class="stroke"/>
<use x="798.64" y="243.00" xlink:href="#hd"/>
<path d="M795.14 243.00v21.00" class="stroke"/>
<use x="841.54" y="246.00" xlink:href="#r8"/>
<use x="23.54" y="306.00" xlink:href="#bclef"/>
<path class="fill"
	d="M52.24 343.20l70.80 -5.10v-3.20l-70.80 5.10"/>
<path class="fill"
	d="M74.04 336.70l48.60 -3.50v-3.20l-48.60 3.50"/>
<use x="56.04" y="324.00" xlink:href="#hd"/>
<path d="M52.54 324.00v18.20" class="stroke"/>
<use x="77.54" y="297.00" xlink:href="#hd"/>
<path d="M74.04 297.00v43.70" class="stroke"/>
<use x="92.84" y="303.00" xlink:href="#hd"/>
<path d="M89.34 303.00v36.60" class="stroke"/>
<use x="110.84" y="306.00" xlink:href="#hd"/>
<use x="101.84" y="306.00" xlink:href="#sh0"/>
<path d="M107.34 306.00v32.30" class="stroke"/>
<use x="126.14" y="309.00" xlink:href="#hd"/>
<path d="M122.64 309.00v28.20" class="stroke"/>
<use x="165.14" y="306.00" xlink:href="#hd"/>
<use x="156.14" y="306.00" xlink:href="#sh0"/>
<path d="M161.64 306.00v25.00" class="stroke"/>
<use x="165.14" y="312.00" xlink:href="#hd"/>
<use x="208.54" y="300.00" xlink:href="#hd"/>
<path d="M205.04 300.00v34.00" class="stroke"/>
<path class="fill"
	d="M205.04 334.00c0.6 -5.6 9.6 -9 5.6 -18.4
	1.6 6 -1.3 11.6 -5.6 12.8
"/>
<use x="208.54" y="315.00" xlink:href="#hd"/>
<use x="238.04" y="318.00" xlink:href="#hd"/>
<path d="M241.54 318.00v-25.00" class="stroke"/>
<use x="238.04" y="312.00" xlink:href="#hd"/>
<use x="299.34" y="318.00" xlink:href="#hd"/>
<path d="M302.84 318.00v-25.00" class="stroke"/>
<path class="fill"
	d="M302.84 293.00c0.6 5.6 9.6 9 5.6 18.4
	1.6 -6 -1.3 -11.6 -5.6 -12.8
"/>
<use x="299.34" y="312.00" xlink:href="#hd"/>
<path class="fill"
	d="M335.74 331.90l77.30 0.00v-3.20l-77.30 -0.00"/>
<path class="fill"
	d="M336.14 326.90l76.60 0.00v-3.20l-76.60 -0.00"/>
<use x="339.64" y="309.00" xlink:href="#hd"/>
<path d="M336.14 309.00v21.90" class="stroke"/>
<use x="339.64" y="315.00" xlink:href="#hd"/>
<use x="354.94" y="303.00" xlink:href="#hd"/>
<path d="M351.44 303.00v27.90" class="stroke"/>
<use x="370.24" y="309.00" xlink:href="#hd"/>
<path d="M366.74 309.00v21.90" class="stroke"/>
<use x="370.24" y="315.00" xlink:href="#hd"/>
<use x="385.54" y="303.00" xlink:href="#hd"/>
<path d="M382.04 303.00v27.90" class="stroke"/>
<use x="400.84" y="309.00" xlink:href="#hd"/>
<path d="M397.34 309.00v21.90" class="stroke"/>
<use x="400.84" y="315.00" xlink:href="#hd"/>
<use x="416.24" y="303.00" xlink:href="#hd"/>
<path d="M412.74 303.00v27.90" class="stroke"/>
<use x="441.24" y="303.00" xlink:href="#hd"/>
<path d="M444.74 303.00v-21.00" class="stroke"/>
<use x="493.34" y="318.00" xlink:href="#hd"/>
<path d="M496.84 318.00v-25.00" class="stroke"/>
<path class="fill"
	d="M496.84 293.00c0.6 5.6 9.6 9 5.6 18.4
	1.6 -6 -1.3 -11.6 -5.6 -12.8
"/>
<use x="493.34" y="312.00" xlink:href="#hd"/>
<path class="fill"
	d="M519.24 331.90l77.30 0.00v-3.20l-77.30 -0.00"/>
<path class="fill"
	d="M519.54 326.90l76.60 0.00v-3.20l-76.60 -0.00"/>
<use x="523.04" y="309.00" xlink:href="#hd"/>
<path d="M519.54 309.00v21.90" class="stroke"/>
<use x="523.04" y="315.00" xlink:href="#hd"/>
<use x="538.34" y="303.00" xlink:href="#hd"/>
<path d="M534.84 303.00v27.90" class="stroke"/>
<use x="553.64" y="309.00" xlink:href="#hd"/>
<path d="M550.14 309.00v21.90" class="stroke"/>
<use x="553.64" y="315.00" xlink:href="#hd"/>
<use x="568.94" y="303.00" xlink:href="#hd"/>
<path d="M565.44 303.00v27.90" class="stroke"/>
<use x="584.34" y="309.00" xlink:href="#hd"/>
<path d="M580.84 309.00v21.90" class="stroke"/>
<use x="584.34" y="315.00" xlink:href="#hd"/>
<use x="599.64" y="303.00" xlink:href="#hd"/>
<path d="M596.14 303.00v27.90" class="stroke"/>
<path class="fill"
	d="M620.74 331.90l77.30 0.00v-3.20l-77.30 -0.00"/>
<path class="fill"
	d="M621.14 326.90l76.60 0.00v-3.20l-76.60 -0.00"/>
<use x="624.64" y="309.00" xlink:href="#hd"/>
<path d="M621.14 309.00v21.90" class="stroke"/>
<use x="624.64" y="315.00" xlink:href="#hd"/>
<use x="639.94" y="303.00" xlink:href="#hd"/>
<path d="M636.44 303.00v27.90" class="stroke"/>
<use x="655.24" y="309.00" xlink:href="#hd"/>
<path d="M651.74 309.00v21.90" class="stroke"/>
<use x="655.24" y="315.00" xlink:href="#hd"/>
<use x="670.54" y="303.00" xlink:href="#hd"/>
<path d="M667.04 303.00v27.90" class="stroke"/>
<use x="685.84" y="309.00" xlink:href="#hd"/>
<path d="M682.34 309.00v21.90" class="stroke"/>
<use x="685.84" y="315.00" xlink:href="#hd"/>
<use x="701.14" y="303.00" xlink:href="#hd"/>
<path d="M697.64 303.00v27.90" class="stroke"/>
<path class="fill"
	d="M722.34 331.20l43.60 0.00v-3.20l-43.60 -0.00"/>
<use x="726.14" y="306.00" xlink:href="#hd"/>
<path d="M722.64 306.00v24.20" class="stroke"/>
<use x="747.64" y="312.00" xlink:href="#hd"/>
<path d="M744.14 312.00v18.20" class="stroke"/>
<use x="769.14" y="303.00" xlink:href="#hd"/>
<path d="M765.64 303.00v27.20" class="stroke"/>
<path class="fill"
	d="M801.74 295.70l43.60 9.90v3.20l-43.60 -9.90"/>
<use x="798.64" y="315.00" xlink:href="#hd"/>
<path d="M802.14 315.00v-18.20" class="stroke"/>
<use x="820.04" y="324.00" xlink:href="#hd"/>
<path d="M823.54 324.00v-22.30" class="stroke"/>
<use x="841.54" y="330.00" xlink:href="#hl"/>
<use x="841.54" y="336.00" xlink:href="#hl"/>
<use x="841.54" y="336.00" xlink:href="#hd"/>
<path d="M845.04 336.00v-29.40" class="stroke"/>
<use x="441.24" y="318.00" xlink:href="#hd"/>
<path d="M437.74 318.00v21.00" class="stroke"/>
</g>
</svg>
