<?xml version="1.0" standalone="no"?>
<!DOCTYPE svg PUBLIC "-//W3C//DTD SVG 1.1//EN"
	"http://www.w3.org/Graphics/SVG/1.1/DTD/svg11.dtd">
<svg xmlns="http://www.w3.org/2000/svg" version="1.1"
	xmlns:xlink="http://www.w3.org/1999/xlink"
	color="black"
	width="757.10px" height="293.80px">
<style type="text/css">
.fill {fill: currentColor}
.stroke {stroke: currentColor; fill: none}
text{white-space: pre}
</style>
<title>./K516f-3-8-3-12-4-12-2-7-7-6-8-8-9-10-9-11.abc (2689) tune 1</title>
<!-- Creator: abcm2ps-8.13.8 -->
<!-- CreationDate: Sep  7, 2017 11:18 -->
<!-- CommandLine: ./K516f-3-8-3-12-4-12-2-7-7-6-8-8-9-10-9-11.abc -O ./K516f-3-8-3-12-4-12-2-7-7-6-8-8-9-10-9-11.svg -g -->
<rect width="100%" height="100%" fill="white"/>
<g stroke-width="0.70" transform="scale(0.867)">
<!-- title: 3-8-3-12-4-12-2-7-7-6-8-8-9-10-9-11 -->
</g>
<g stroke-width="0.70" transform="scale(0.867)" font-family="Times" font-size="20.00">
<text x="436.84" y="22.00" text-anchor="middle">3-8-3-12-4-12-2-7-7-6-8-8-9-10-9-11</text>
</g>
<g stroke-width="0.70" transform="scale(0.867)" font-family="Times" font-size="20.00">
<!-- subtitle: $1K.516f::32:60:128:103:153:37:11:91:138:143:57:175:51:38:72:78::$0 -->
</g>
<g stroke-width="0.70" transform="scale(0.867)" font-family="Courier" font-size="8.00" font-weight="bold">
<text x="436.84" y="41.80" text-anchor="middle">K.516f::32:60:128:103:153:37:11:91:138:143:57:175:51:38:72:78::</text>
</g>
<g stroke-width="0.70" transform="scale(0.867)" font-family="Courier" font-size="8.00" font-weight="bold">
<!-- subtitle: $1Perm. No.: 268934322473984$0 -->
<text x="436.84" y="60.80" text-anchor="middle">Perm. No.: 268934322473984</text>
</g>
<g stroke-width="0.70" transform="scale(0.607)" font-family="Courier" font-size="8.00" font-weight="bold">
<defs>
<ellipse id="hd" rx="4.1" ry="2.9"
	transform="rotate(-20)" class="fill"/>
</defs>
<use x="103.06" y="121.29" xlink:href="#hd"/>
<path d="M106.56 121.29v-21.00" class="stroke"/>
<path class="fill"
	d="M106.56 100.29c0.6 5.6 9.6 9 5.6 18.4
	1.6 -6 -1.3 -11.6 -5.6 -12.8
"/>
</g>
<g stroke-width="0.70" transform="scale(0.867)" font-family="Times" font-size="15.00" font-weight="bold">
<text x="81.24" y="87.00">= 111</text>
<path class="stroke" stroke-width="1"
	d="M11.54 183.00v-82.00"/>
<path class="fill"
	d="M6.54 98.00
	c10.5 1 12 -4.5 12 -3.5c0 1 -3.5 5.5 -8.5 5.5
	v84.00
	c5 0 8.5 4.5 8.5 5.5c0 1 -1.5 -4.5 -12 -3.5"/>
<defs>
<g id="rdots" class="fill">
	<circle cx="0" cy="-9" r="1.2"/>
	<circle cx="0" cy="-15" r="1.2"/>
</g>
</defs>
<use x="70.54" y="125.00" xlink:href="#rdots"/>
<path class="stroke" stroke-width="1"
	d="M66.54 125.00v-24.00"/>
<path class="stroke" stroke-width="3"
	d="M62.04 125.00v-24.00"/>
<use x="70.54" y="183.00" xlink:href="#rdots"/>
<path class="stroke" stroke-width="1"
	d="M66.54 183.00v-58.00"/>
<path class="stroke" stroke-width="3"
	d="M62.04 183.00v-58.00"/>
<path class="stroke" stroke-width="1"
	d="M151.44 125.00v-24.00"/>
<path class="stroke" stroke-width="1"
	d="M151.44 183.00v-58.00"/>
<path class="stroke" stroke-width="1"
	d="M252.94 125.00v-24.00"/>
<path class="stroke" stroke-width="1"
	d="M252.94 183.00v-58.00"/>
<path class="stroke" stroke-width="1"
	d="M332.84 125.00v-24.00"/>
<path class="stroke" stroke-width="1"
	d="M332.84 183.00v-58.00"/>
<path class="stroke" stroke-width="1"
	d="M432.74 125.00v-24.00"/>
<path class="stroke" stroke-width="1"
	d="M432.74 183.00v-58.00"/>
<path class="stroke" stroke-width="1"
	d="M545.24 125.00v-24.00"/>
<path class="stroke" stroke-width="1"
	d="M545.24 183.00v-58.00"/>
<path class="stroke" stroke-width="1"
	d="M645.24 125.00v-24.00"/>
<path class="stroke" stroke-width="1"
	d="M645.24 183.00v-58.00"/>
<path class="stroke" stroke-width="1"
	d="M757.64 125.00v-24.00"/>
<path class="stroke" stroke-width="1"
	d="M757.64 183.00v-58.00"/>
<path class="stroke" stroke-width="3"
	d="M860.54 125.00v-24.00"/>
<path class="stroke" stroke-width="1"
	d="M856.04 125.00v-24.00"/>
<use x="852.04" y="125.00" xlink:href="#rdots"/>
<path class="stroke" stroke-width="3"
	d="M860.54 183.00v-58.00"/>
<path class="stroke" stroke-width="1"
	d="M856.04 183.00v-58.00"/>
<use x="852.04" y="183.00" xlink:href="#rdots"/>
<path d="m11.54 125.00
	h850.50
	M11.54 119.00
	h850.50
	M11.54 113.00
	h850.50
	M11.54 107.00
	h850.50
	M11.54 101.00
	h850.50
	" class="stroke"/>
<path d="m11.54 183.00
	h850.50
	M11.54 177.00
	h850.50
	M11.54 171.00
	h850.50
	M11.54 165.00
	h850.50
	M11.54 159.00
	h850.50
	" class="stroke"/>
</g>
<g stroke-width="0.70" transform="scale(0.867)" font-family="Times" font-size="13.00">
<text x="761.64" y="86.40">1</text>
<path class="stroke"
	d="M757.64 75.00m0 20v-20h96.40v20"/>
<defs>
<path id="utclef" class="fill" d="m-50 -90
	c-72 -41 -72 -158 52 -188
	150 -10 220 188 90 256
	-114 52 -275 0 -293 -136
	-15 -181 93 -229 220 -334
	88 -87 79 -133 62 -210
	-51 33 -94 105 -89 186
	17 267 36 374 49 574
	6 96 -19 134 -77 135
	-80 1 -126 -93 -61 -133
	85 -41 133 101 31 105
	23 17 92 37 90 -92
	-10 -223 -39 -342 -50 -617
	0 -90 0 -162 96 -232
	56 72 63 230 22 289
	-74 106 -257 168 -255 316
	9 153 148 185 252 133
	86 -65 29 -192 -80 -176
	-71 12 -105 67 -59 124"/>
<use id="tclef" transform="translate(0,6) scale(0.045)"
	xlink:href="#utclef"/>
</defs>
<use x="23.54" y="119.00" xlink:href="#tclef"/>
<g font-family="serif" font-size="16" font-weight="bold" font-style="normal"
	transform="translate(42.04,124.50) scale(1.2,1)">
	<text text-anchor="middle">8</text>
	<text y="-12" text-anchor="middle">3</text>
</g>
<path class="fill"
	d="M81.14 138.20l48.50 -6.60v-3.20l-48.50 6.60"/>
<use x="84.94" y="119.00" xlink:href="#hd"/>
<path d="M81.44 119.00v18.20" class="stroke"/>
<use x="108.84" y="110.00" xlink:href="#hd"/>
<path d="M105.34 110.00v23.90" class="stroke"/>
<use x="132.74" y="104.00" xlink:href="#hd"/>
<path d="M129.24 104.00v26.70" class="stroke"/>
<path class="fill"
	d="M161.04 123.00l75.40 9.30v-3.20l-75.40 -9.30"/>
<path class="fill"
	d="M185.34 121.00l50.80 6.20v-3.20l-50.80 -6.20"/>
<use x="164.94" y="98.00" xlink:href="#hd"/>
<path d="M161.44 98.00v24.00" class="stroke"/>
<use x="188.84" y="101.00" xlink:href="#hd"/>
<path d="M185.34 101.00v24.00" class="stroke"/>
<use x="205.74" y="104.00" xlink:href="#hd"/>
<path d="M202.24 104.00v23.00" class="stroke"/>
<use x="222.74" y="107.00" xlink:href="#hd"/>
<path d="M219.24 107.00v22.10" class="stroke"/>
<use x="239.64" y="110.00" xlink:href="#hd"/>
<path d="M236.14 110.00v21.20" class="stroke"/>
<path class="fill"
	d="M262.54 132.20l48.50 -6.60v-3.20l-48.50 6.60"/>
<use x="266.34" y="113.00" xlink:href="#hd"/>
<path d="M262.84 113.00v18.20" class="stroke"/>
<use x="290.24" y="107.00" xlink:href="#hd"/>
<path d="M286.74 107.00v20.90" class="stroke"/>
<use x="314.14" y="98.00" xlink:href="#hd"/>
<path d="M310.64 98.00v26.70" class="stroke"/>
<path class="fill"
	d="M349.44 79.70l68.50 8.30v3.20l-68.50 -8.30"/>
<path class="fill"
	d="M349.84 84.80l50.80 6.10v3.20l-50.80 -6.10"/>
<use x="346.34" y="110.00" xlink:href="#hd"/>
<path d="M349.84 110.00v-29.20" class="stroke"/>
<use x="363.24" y="104.00" xlink:href="#hd"/>
<path d="M366.74 104.00v-21.20" class="stroke"/>
<use x="380.24" y="110.00" xlink:href="#hd"/>
<path d="M383.74 110.00v-25.20" class="stroke"/>
<use x="397.14" y="119.00" xlink:href="#hd"/>
<path d="M400.64 119.00v-32.10" class="stroke"/>
<use x="414.04" y="125.00" xlink:href="#hd"/>
<path d="M417.54 125.00v-36.10" class="stroke"/>
<path class="fill"
	d="M442.34 139.50l86.50 -6.40v-3.20l-86.50 6.40"/>
<path class="fill"
	d="M442.74 134.50l85.80 -6.40v-3.20l-85.80 6.40"/>
<use x="446.24" y="107.00" xlink:href="#hd"/>
<path d="M442.74 107.00v31.50" class="stroke"/>
<use x="463.14" y="116.00" xlink:href="#hd"/>
<path d="M459.64 116.00v21.20" class="stroke"/>
<use x="481.14" y="101.00" xlink:href="#hd"/>
<defs>
<path id="usharp" class="fill" d="
	m136 -702
	v890
	h32
	v-890
	m128 840
	h32
	v-888
	h-32
	m-232 286
	v116
	l338 -96
	v-116
	m-338 442
	v116
	l338 -98
	v-114"/>
<use id="sh0" transform="translate(-4,5) scale(0.018)"
	xlink:href="#usharp"/>
</defs>
<use x="472.14" y="101.00" xlink:href="#sh0"/>
<path d="M477.64 101.00v34.90" class="stroke"/>
<use x="498.14" y="107.00" xlink:href="#hd"/>
<path d="M494.64 107.00v27.60" class="stroke"/>
<defs>
<path id="hl" class="stroke" d="m-6 0h12"/>
</defs>
<use x="515.04" y="95.00" xlink:href="#hl"/>
<use x="515.04" y="95.00" xlink:href="#hd"/>
<path d="M511.54 95.00v38.30" class="stroke"/>
<use x="532.04" y="101.00" xlink:href="#hd"/>
<path d="M528.54 101.00v31.10" class="stroke"/>
<path class="fill"
	d="M554.84 124.00l68.50 8.30v-3.20l-68.50 -8.30"/>
<path class="fill"
	d="M555.24 119.00l50.80 6.10v-3.20l-50.80 -6.10"/>
<use x="558.74" y="98.00" xlink:href="#hd"/>
<path d="M555.24 98.00v25.00" class="stroke"/>
<use x="575.64" y="95.00" xlink:href="#hl"/>
<use x="575.64" y="92.00" xlink:href="#hd"/>
<path d="M572.14 92.00v33.10" class="stroke"/>
<use x="592.64" y="98.00" xlink:href="#hd"/>
<path d="M589.14 98.00v29.10" class="stroke"/>
<use x="609.54" y="107.00" xlink:href="#hd"/>
<path d="M606.04 107.00v22.20" class="stroke"/>
<use x="626.54" y="113.00" xlink:href="#hd"/>
<path d="M623.04 113.00v18.20" class="stroke"/>
<path class="fill"
	d="M661.74 81.80l86.50 8.40v3.20l-86.50 -8.40"/>
<path class="fill"
	d="M662.14 86.80l85.80 8.30v3.20l-85.80 -8.30"/>
<use x="658.64" y="104.00" xlink:href="#hd"/>
<path d="M662.14 104.00v-21.20" class="stroke"/>
<use x="675.54" y="110.00" xlink:href="#hd"/>
<path d="M679.04 110.00v-25.60" class="stroke"/>
<use x="692.54" y="113.00" xlink:href="#hd"/>
<path d="M696.04 113.00v-26.90" class="stroke"/>
<use x="709.44" y="116.00" xlink:href="#hd"/>
<path d="M712.94 116.00v-28.30" class="stroke"/>
<use x="726.44" y="119.00" xlink:href="#hd"/>
<path d="M729.94 119.00v-29.60" class="stroke"/>
<use x="744.44" y="122.00" xlink:href="#hd"/>
<use x="735.44" y="122.00" xlink:href="#sh0"/>
<path d="M747.94 122.00v-30.90" class="stroke"/>
<use x="771.14" y="98.00" xlink:href="#hd"/>
<path d="M767.64 98.00v40.00" class="stroke"/>
<use x="771.14" y="119.00" xlink:href="#hd"/>
<use x="771.14" y="113.00" xlink:href="#hd"/>
<use x="771.14" y="107.00" xlink:href="#hd"/>
<defs>
<path id="r8e" class="fill" d="m 0 0
	c-1.5 1.5 -2.4 2 -3.6 2
	2.4 -2.8 -2.8 -4 -2.8 -1.2
	c0 2.7 4.3 2.4 5.9 0.6"/>
<g id="r8">
	<path d="m3.3 -4l-3.4 9.6" class="stroke"/>
	<use x="3.4" y="-4" xlink:href="#r8e"/>
</g>
</defs>
<use x="829.94" y="113.00" xlink:href="#r8"/>
<defs>
<path id="ubclef" class="fill" d="m-200 -87
	c124 -35 222 -78 254 -236
	43 -228 -167 -246 -192 -103
	59 -80 157 22 92 78
	-62 47 -115 -22 -106 -88
	21 -141 270 -136 274 52
	-1 175 -106 264 -322 297
	m357 -250
	c0 -36 51 -34 51 0
	0 37 -51 36 -51 0
	m-2 -129
	c0 -36 51 -34 51 0
	0 38 -51 37 -51 0"/>
<use id="bclef" transform="translate(0,18) scale(0.045)"
	xlink:href="#ubclef"/>
</defs>
<use x="23.54" y="165.00" xlink:href="#bclef"/>
<g font-family="serif" font-size="16" font-weight="bold" font-style="normal"
	transform="translate(42.04,182.50) scale(1.2,1)">
	<text text-anchor="middle">8</text>
	<text y="-12" text-anchor="middle">3</text>
</g>
<use x="84.94" y="168.00" xlink:href="#hd"/>
<path d="M81.44 168.00v25.00" class="stroke"/>
<use x="84.94" y="174.00" xlink:href="#hd"/>
<use x="132.74" y="171.00" xlink:href="#r8"/>
<use x="164.94" y="168.00" xlink:href="#hd"/>
<path d="M161.44 168.00v25.00" class="stroke"/>
<use x="164.94" y="174.00" xlink:href="#hd"/>
<use x="222.74" y="171.00" xlink:href="#r8"/>
<use x="266.34" y="183.00" xlink:href="#hd"/>
<path d="M269.84 183.00v-21.00" class="stroke"/>
<use x="314.14" y="171.00" xlink:href="#r8"/>
<use x="346.34" y="168.00" xlink:href="#hd"/>
<path d="M342.84 168.00v25.00" class="stroke"/>
<use x="346.34" y="174.00" xlink:href="#hd"/>
<use x="414.04" y="171.00" xlink:href="#r8"/>
<use x="446.24" y="174.00" xlink:href="#hd"/>
<path d="M449.74 174.00v-21.00" class="stroke"/>
<use x="515.04" y="171.00" xlink:href="#r8"/>
<use x="558.74" y="177.00" xlink:href="#hd"/>
<path d="M562.24 177.00v-25.00" class="stroke"/>
<use x="558.74" y="171.00" xlink:href="#hd"/>
<use x="626.54" y="171.00" xlink:href="#r8"/>
<path class="fill"
	d="M661.74 147.70l68.50 8.30v3.20l-68.50 -8.30"/>
<use x="658.64" y="174.00" xlink:href="#hd"/>
<path d="M662.14 174.00v-25.30" class="stroke"/>
<use x="692.54" y="171.00" xlink:href="#hd"/>
<path d="M696.04 171.00v-18.20" class="stroke"/>
<use x="726.44" y="189.00" xlink:href="#hl"/>
<use x="726.44" y="192.00" xlink:href="#hd"/>
<path d="M729.94 192.00v-35.10" class="stroke"/>
<path class="fill"
	d="M767.24 202.20l76.50 0.00v-3.20l-76.50 -0.00"/>
<path class="fill"
	d="M791.54 197.20l51.90 0.00v-3.20l-51.90 -0.00"/>
<use x="771.14" y="183.00" xlink:href="#hd"/>
<path d="M767.64 183.00v18.20" class="stroke"/>
<use x="795.04" y="162.00" xlink:href="#hd"/>
<path d="M791.54 162.00v39.20" class="stroke"/>
<use x="813.04" y="165.00" xlink:href="#hd"/>
<defs>
<path id="unat" class="fill" d="
	m96 -750
	h-32
	v716
	l32 -8
	182 -54
	v282
	h32
	v-706
	l-34 10
	-180 50
	v-290
	m0 592
	v-190
	l182 -52
	v188"/>
<use id="nt0" transform="translate(-3,5) scale(0.018)"
	xlink:href="#unat"/>
</defs>
<use x="804.04" y="165.00" xlink:href="#nt0"/>
<path d="M809.54 165.00v36.20" class="stroke"/>
<use x="829.94" y="168.00" xlink:href="#hd"/>
<path d="M826.44 168.00v33.20" class="stroke"/>
<use x="846.94" y="171.00" xlink:href="#hd"/>
<path d="M843.44 171.00v30.20" class="stroke"/>
</g>
<g stroke-width="0.70" transform="scale(0.867)" font-family="Times" font-size="13.00">
<path class="stroke" stroke-width="1"
	d="M11.54 316.00v-82.00"/>
<path class="fill"
	d="M6.54 231.00
	c10.5 1 12 -4.5 12 -3.5c0 1 -3.5 5.5 -8.5 5.5
	v84.00
	c5 0 8.5 4.5 8.5 5.5c0 1 -1.5 -4.5 -12 -3.5"/>
<use x="140.24" y="258.00" xlink:href="#rdots"/>
<path class="stroke" stroke-width="1"
	d="M136.24 258.00v-24.00"/>
<path class="stroke" stroke-width="3"
	d="M131.74 258.00v-24.00"/>
<use x="140.24" y="316.00" xlink:href="#rdots"/>
<path class="stroke" stroke-width="1"
	d="M136.24 316.00v-58.00"/>
<path class="stroke" stroke-width="3"
	d="M131.74 316.00v-58.00"/>
<path class="stroke" stroke-width="1"
	d="M249.74 258.00v-24.00"/>
<path class="stroke" stroke-width="1"
	d="M249.74 316.00v-58.00"/>
<path class="stroke" stroke-width="1"
	d="M325.94 258.00v-24.00"/>
<path class="stroke" stroke-width="1"
	d="M325.94 316.00v-58.00"/>
<path class="stroke" stroke-width="1"
	d="M420.24 258.00v-24.00"/>
<path class="stroke" stroke-width="1"
	d="M420.24 316.00v-58.00"/>
<path class="stroke" stroke-width="1"
	d="M503.84 258.00v-24.00"/>
<path class="stroke" stroke-width="1"
	d="M503.84 316.00v-58.00"/>
<path class="stroke" stroke-width="1"
	d="M598.04 258.00v-24.00"/>
<path class="stroke" stroke-width="1"
	d="M598.04 316.00v-58.00"/>
<path class="stroke" stroke-width="1"
	d="M692.34 258.00v-24.00"/>
<path class="stroke" stroke-width="1"
	d="M692.34 316.00v-58.00"/>
<path class="stroke" stroke-width="1"
	d="M786.54 258.00v-24.00"/>
<path class="stroke" stroke-width="1"
	d="M786.54 316.00v-58.00"/>
<path class="stroke" stroke-width="3"
	d="M860.54 258.00v-24.00"/>
<path class="stroke" stroke-width="1"
	d="M856.04 258.00v-24.00"/>
<use x="852.04" y="258.00" xlink:href="#rdots"/>
<path class="stroke" stroke-width="3"
	d="M860.54 316.00v-58.00"/>
<path class="stroke" stroke-width="1"
	d="M856.04 316.00v-58.00"/>
<use x="852.04" y="316.00" xlink:href="#rdots"/>
<path d="m11.54 258.00
	h850.50
	M11.54 252.00
	h850.50
	M11.54 246.00
	h850.50
	M11.54 240.00
	h850.50
	M11.54 234.00
	h850.50
	" class="stroke"/>
<path d="m11.54 316.00
	h850.50
	M11.54 310.00
	h850.50
	M11.54 304.00
	h850.50
	M11.54 298.00
	h850.50
	M11.54 292.00
	h850.50
	" class="stroke"/>
<text x="47.54" y="219.40">2</text>
<path class="stroke"
	d="M43.54 208.00m0 20v-20h85.70v20"/>
<use x="23.54" y="252.00" xlink:href="#tclef"/>
<use x="56.04" y="231.00" xlink:href="#hd"/>
<path d="M52.54 231.00v40.00" class="stroke"/>
<use x="56.04" y="252.00" xlink:href="#hd"/>
<use x="56.04" y="246.00" xlink:href="#hd"/>
<use x="56.04" y="240.00" xlink:href="#hd"/>
<use x="106.84" y="246.00" xlink:href="#r8"/>
<use x="159.74" y="234.00" xlink:href="#hd"/>
<use x="150.74" y="234.00" xlink:href="#sh0"/>
<path d="M156.24 234.00v34.00" class="stroke"/>
<path class="fill"
	d="M156.24 268.00c0.6 -5.6 9.6 -9 5.6 -18.4
	1.6 6 -1.3 11.6 -5.6 12.8
"/>
<use x="159.74" y="249.00" xlink:href="#hd"/>
<use x="159.74" y="240.00" xlink:href="#hd"/>
<use x="191.54" y="234.00" xlink:href="#hd"/>
<path d="M188.04 234.00v21.00" class="stroke"/>
<path class="fill"
	d="M258.44 262.90l47.40 8.30v-3.20l-47.40 -8.30"/>
<path class="fill"
	d="M277.74 261.30l13.90 2.40v-3.20l-13.90 -2.40"/>
<use x="262.24" y="231.00" xlink:href="#hd"/>
<path d="M258.74 231.00v31.00" class="stroke"/>
<use x="281.24" y="240.00" xlink:href="#hd"/>
<path d="M277.74 240.00v25.30" class="stroke"/>
<use x="295.14" y="246.00" xlink:href="#hd"/>
<path d="M291.64 246.00v21.80" class="stroke"/>
<use x="308.94" y="252.00" xlink:href="#hd"/>
<path d="M305.44 252.00v18.20" class="stroke"/>
<path class="fill"
	d="M334.64 264.40l56.10 6.90v-3.20l-56.10 -6.90"/>
<use x="338.44" y="237.00" xlink:href="#hd"/>
<path d="M334.94 237.00v26.40" class="stroke"/>
<use x="366.14" y="243.00" xlink:href="#hd"/>
<path d="M362.64 243.00v23.80" class="stroke"/>
<use x="393.84" y="252.00" xlink:href="#hd"/>
<path d="M390.34 252.00v18.20" class="stroke"/>
<path class="fill"
	d="M428.84 268.20l56.10 0.00v-3.20l-56.10 -0.00"/>
<path class="fill"
	d="M429.24 263.20l41.60 0.00v-3.20l-41.60 -0.00"/>
<use x="432.74" y="237.00" xlink:href="#hd"/>
<path d="M429.24 237.00v30.20" class="stroke"/>
<use x="446.54" y="243.00" xlink:href="#hd"/>
<path d="M443.04 243.00v24.20" class="stroke"/>
<use x="460.44" y="246.00" xlink:href="#hd"/>
<path d="M456.94 246.00v21.20" class="stroke"/>
<use x="474.24" y="240.00" xlink:href="#hd"/>
<path d="M470.74 240.00v27.20" class="stroke"/>
<use x="488.14" y="231.00" xlink:href="#hd"/>
<path d="M484.64 231.00v36.20" class="stroke"/>
<path class="fill"
	d="M512.44 275.50l69.90 -6.20v-3.20l-69.90 6.20"/>
<path class="fill"
	d="M512.84 270.40l69.30 -6.10v-3.20l-69.30 6.10"/>
<use x="516.34" y="243.00" xlink:href="#hd"/>
<path d="M512.84 243.00v31.40" class="stroke"/>
<use x="530.14" y="252.00" xlink:href="#hd"/>
<path d="M526.64 252.00v21.20" class="stroke"/>
<use x="544.04" y="237.00" xlink:href="#hd"/>
<path d="M540.54 237.00v35.00" class="stroke"/>
<use x="557.84" y="243.00" xlink:href="#hd"/>
<path d="M554.34 243.00v27.70" class="stroke"/>
<use x="571.74" y="231.00" xlink:href="#hd"/>
<path d="M568.24 231.00v38.50" class="stroke"/>
<use x="585.54" y="237.00" xlink:href="#hd"/>
<path d="M582.04 237.00v31.30" class="stroke"/>
<path class="fill"
	d="M606.74 272.80l56.10 -3.20v-3.20l-56.10 3.20"/>
<use x="610.54" y="243.00" xlink:href="#hd"/>
<path d="M607.04 243.00v28.80" class="stroke"/>
<use x="638.24" y="252.00" xlink:href="#hd"/>
<path d="M634.74 252.00v18.20" class="stroke"/>
<use x="665.94" y="237.00" xlink:href="#hd"/>
<path d="M662.44 237.00v31.60" class="stroke"/>
<path class="fill"
	d="M700.94 266.00l69.90 0.00v-3.20l-69.90 -0.00"/>
<path class="fill"
	d="M701.34 261.00l69.30 0.00v-3.20l-69.30 -0.00"/>
<use x="704.84" y="234.00" xlink:href="#hd"/>
<path d="M701.34 234.00v30.90" class="stroke"/>
<use x="718.64" y="237.00" xlink:href="#hd"/>
<path d="M715.14 237.00v27.90" class="stroke"/>
<use x="732.54" y="240.00" xlink:href="#hd"/>
<path d="M729.04 240.00v24.90" class="stroke"/>
<use x="746.34" y="243.00" xlink:href="#hd"/>
<path d="M742.84 243.00v21.90" class="stroke"/>
<use x="760.24" y="246.00" xlink:href="#hd"/>
<path d="M756.74 246.00v18.90" class="stroke"/>
<use x="774.04" y="240.00" xlink:href="#hd"/>
<path d="M770.54 240.00v24.90" class="stroke"/>
<path class="fill"
	d="M802.24 223.70l19.70 6.80v3.20l-19.70 -6.80"/>
<use x="799.04" y="243.00" xlink:href="#hd"/>
<path d="M802.54 243.00v-18.20" class="stroke"/>
<use x="818.04" y="264.00" xlink:href="#hl"/>
<use x="818.04" y="264.00" xlink:href="#hd"/>
<path d="M821.54 264.00v-32.70" class="stroke"/>
<use x="837.04" y="246.00" xlink:href="#r8"/>
<use x="23.54" y="298.00" xlink:href="#bclef"/>
<path class="fill"
	d="M52.24 335.20l65.40 0.00v-3.20l-65.40 -0.00"/>
<path class="fill"
	d="M71.54 330.20l45.70 0.00v-3.20l-45.70 -0.00"/>
<use x="56.04" y="316.00" xlink:href="#hd"/>
<path d="M52.54 316.00v18.20" class="stroke"/>
<use x="75.04" y="289.00" xlink:href="#hd"/>
<path d="M71.54 289.00v45.20" class="stroke"/>
<use x="88.84" y="295.00" xlink:href="#hd"/>
<path d="M85.34 295.00v39.20" class="stroke"/>
<use x="106.84" y="298.00" xlink:href="#hd"/>
<use x="97.84" y="298.00" xlink:href="#sh0"/>
<path d="M103.34 298.00v36.20" class="stroke"/>
<use x="120.74" y="301.00" xlink:href="#hd"/>
<path d="M117.24 301.00v33.20" class="stroke"/>
<path class="fill"
	d="M162.94 283.00l78.20 -6.80v3.20l-78.20 6.80"/>
<path class="fill"
	d="M163.24 288.00l77.60 -6.70v3.20l-77.60 6.70"/>
<use x="159.74" y="322.00" xlink:href="#hl"/>
<use x="159.74" y="325.00" xlink:href="#hd"/>
<path d="M163.24 325.00v-41.00" class="stroke"/>
<use x="173.54" y="304.00" xlink:href="#hd"/>
<path d="M177.04 304.00v-21.20" class="stroke"/>
<use x="191.54" y="307.00" xlink:href="#hd"/>
<use x="182.54" y="307.00" xlink:href="#sh0"/>
<path d="M195.04 307.00v-25.80" class="stroke"/>
<use x="205.44" y="304.00" xlink:href="#hd"/>
<path d="M208.94 304.00v-24.00" class="stroke"/>
<use x="223.44" y="307.00" xlink:href="#hd"/>
<use x="214.44" y="307.00" xlink:href="#sh0"/>
<path d="M226.94 307.00v-28.50" class="stroke"/>
<use x="237.24" y="304.00" xlink:href="#hd"/>
<path d="M240.74 304.00v-26.70" class="stroke"/>
<use x="262.24" y="310.00" xlink:href="#hd"/>
<path d="M265.74 310.00v-25.00" class="stroke"/>
<use x="262.24" y="304.00" xlink:href="#hd"/>
<use x="308.94" y="310.00" xlink:href="#hd"/>
<path d="M312.44 310.00v-25.00" class="stroke"/>
<path class="fill"
	d="M312.44 285.00c0.6 5.6 9.6 9 5.6 18.4
	1.6 -6 -1.3 -11.6 -5.6 -12.8
"/>
<use x="308.94" y="304.00" xlink:href="#hd"/>
<path class="fill"
	d="M334.64 323.90l69.90 0.00v-3.20l-69.90 -0.00"/>
<path class="fill"
	d="M334.94 318.90l69.30 0.00v-3.20l-69.30 -0.00"/>
<use x="338.44" y="301.00" xlink:href="#hd"/>
<path d="M334.94 301.00v21.90" class="stroke"/>
<use x="338.44" y="307.00" xlink:href="#hd"/>
<use x="352.34" y="295.00" xlink:href="#hd"/>
<path d="M348.84 295.00v27.90" class="stroke"/>
<use x="366.14" y="301.00" xlink:href="#hd"/>
<path d="M362.64 301.00v21.90" class="stroke"/>
<use x="366.14" y="307.00" xlink:href="#hd"/>
<use x="380.04" y="295.00" xlink:href="#hd"/>
<path d="M376.54 295.00v27.90" class="stroke"/>
<use x="393.84" y="301.00" xlink:href="#hd"/>
<path d="M390.34 301.00v21.90" class="stroke"/>
<use x="393.84" y="307.00" xlink:href="#hd"/>
<use x="407.74" y="295.00" xlink:href="#hd"/>
<path d="M404.24 295.00v27.90" class="stroke"/>
<path class="fill"
	d="M435.84 275.70l28.40 8.60v3.20l-28.40 -8.60"/>
<use x="432.74" y="295.00" xlink:href="#hd"/>
<path d="M436.24 295.00v-18.20" class="stroke"/>
<use x="460.44" y="316.00" xlink:href="#hd"/>
<path d="M463.94 316.00v-30.90" class="stroke"/>
<use x="488.14" y="304.00" xlink:href="#r8"/>
<use x="516.34" y="301.00" xlink:href="#hd"/>
<path d="M512.84 301.00v25.00" class="stroke"/>
<use x="516.34" y="307.00" xlink:href="#hd"/>
<use x="571.74" y="304.00" xlink:href="#r8"/>
<path class="fill"
	d="M606.74 323.90l69.90 0.00v-3.20l-69.90 -0.00"/>
<path class="fill"
	d="M607.04 318.90l69.30 0.00v-3.20l-69.30 -0.00"/>
<use x="610.54" y="301.00" xlink:href="#hd"/>
<path d="M607.04 301.00v21.90" class="stroke"/>
<use x="610.54" y="307.00" xlink:href="#hd"/>
<use x="624.44" y="295.00" xlink:href="#hd"/>
<path d="M620.94 295.00v27.90" class="stroke"/>
<use x="638.24" y="301.00" xlink:href="#hd"/>
<path d="M634.74 301.00v21.90" class="stroke"/>
<use x="638.24" y="307.00" xlink:href="#hd"/>
<use x="652.14" y="295.00" xlink:href="#hd"/>
<path d="M648.64 295.00v27.90" class="stroke"/>
<use x="665.94" y="301.00" xlink:href="#hd"/>
<path d="M662.44 301.00v21.90" class="stroke"/>
<use x="665.94" y="307.00" xlink:href="#hd"/>
<use x="679.84" y="295.00" xlink:href="#hd"/>
<path d="M676.34 295.00v27.90" class="stroke"/>
<use x="704.84" y="298.00" xlink:href="#hd"/>
<path d="M701.34 298.00v21.00" class="stroke"/>
<use x="760.24" y="295.00" xlink:href="#hd"/>
<path d="M756.74 295.00v21.00" class="stroke"/>
<path class="fill"
	d="M756.74 316.00c0.6 -5.6 9.6 -9 5.6 -18.4
	1.6 6 -1.3 11.6 -5.6 12.8
"/>
<use x="799.04" y="307.00" xlink:href="#hd"/>
<path d="M802.54 307.00v-21.00" class="stroke"/>
<use x="837.04" y="322.00" xlink:href="#hl"/>
<use x="837.04" y="328.00" xlink:href="#hl"/>
<use x="837.04" y="328.00" xlink:href="#hd"/>
<path d="M840.54 328.00v-24.00" class="stroke"/>
<path class="fill"
	d="M840.54 304.00c0.6 5.6 9.6 9 5.6 18.4
	1.6 -6 -1.3 -11.6 -5.6 -12.8
"/>
<defs>
<text id="trl" font-family="serif" font-size="16" font-style="italic"
	x="-2" y="-4">tr</text>
</defs>
<use x="191.54" y="228.00" xlink:href="#trl"/>
</g>
</svg>
