<?xml version="1.0" standalone="no"?>
<!DOCTYPE svg PUBLIC "-//W3C//DTD SVG 1.1//EN"
	"http://www.w3.org/Graphics/SVG/1.1/DTD/svg11.dtd">
<svg xmlns="http://www.w3.org/2000/svg" version="1.1"
	xmlns:xlink="http://www.w3.org/1999/xlink"
	color="black"
	width="757.10px" height="299.00px">
<style type="text/css">
.fill {fill: currentColor}
.stroke {stroke: currentColor; fill: none}
text{white-space: pre}
</style>
<title>./K516f-9-4-6-5-11-8-11-6-6-12-8-4-6-11-7-6.abc (2020) tune 1</title>
<!-- Creator: abcm2ps-8.13.8 -->
<!-- CreationDate: Sep  7, 2017 11:19 -->
<!-- CommandLine: ./K516f-9-4-6-5-11-8-11-6-6-12-8-4-6-11-7-6.abc -O ./K516f-9-4-6-5-11-8-11-6-6-12-8-4-6-11-7-6.svg -g -->
<rect width="100%" height="100%" fill="white"/>
<g stroke-width="0.70" transform="scale(0.867)">
<!-- title: 9-4-6-5-11-8-11-6-6-12-8-4-6-11-7-6 -->
</g>
<g stroke-width="0.70" transform="scale(0.867)" font-family="Times" font-size="20.00">
<text x="436.84" y="22.00" text-anchor="middle">9-4-6-5-11-8-11-6-6-12-8-4-6-11-7-6</text>
</g>
<g stroke-width="0.70" transform="scale(0.867)" font-family="Times" font-size="20.00">
<!-- subtitle: $1K.516f::119:95:163:85:135:133:147:107:25:20:57:132:76:59:23:93::$0 -->
</g>
<g stroke-width="0.70" transform="scale(0.867)" font-family="Courier" font-size="8.00" font-weight="bold">
<text x="436.84" y="41.80" text-anchor="middle">K.516f::119:95:163:85:135:133:147:107:25:20:57:132:76:59:23:93::</text>
</g>
<g stroke-width="0.70" transform="scale(0.867)" font-family="Courier" font-size="8.00" font-weight="bold">
<!-- subtitle: $1Perm. No.: 202068923912061$0 -->
<text x="436.84" y="60.80" text-anchor="middle">Perm. No.: 202068923912061</text>
</g>
<g stroke-width="0.70" transform="scale(0.607)" font-family="Courier" font-size="8.00" font-weight="bold">
<defs>
<ellipse id="hd" rx="4.1" ry="2.9"
	transform="rotate(-20)" class="fill"/>
</defs>
<use x="103.06" y="121.29" xlink:href="#hd"/>
<path d="M106.56 121.29v-21.00" class="stroke"/>
<path class="fill"
	d="M106.56 100.29c0.6 5.6 9.6 9 5.6 18.4
	1.6 -6 -1.3 -11.6 -5.6 -12.8
"/>
</g>
<g stroke-width="0.70" transform="scale(0.867)" font-family="Times" font-size="15.00" font-weight="bold">
<text x="81.24" y="87.00">= 111</text>
<path class="stroke" stroke-width="1"
	d="M11.54 183.00v-82.00"/>
<path class="fill"
	d="M6.54 98.00
	c10.5 1 12 -4.5 12 -3.5c0 1 -3.5 5.5 -8.5 5.5
	v84.00
	c5 0 8.5 4.5 8.5 5.5c0 1 -1.5 -4.5 -12 -3.5"/>
<defs>
<g id="rdots" class="fill">
	<circle cx="0" cy="-9" r="1.2"/>
	<circle cx="0" cy="-15" r="1.2"/>
</g>
</defs>
<use x="70.54" y="125.00" xlink:href="#rdots"/>
<path class="stroke" stroke-width="1"
	d="M66.54 125.00v-24.00"/>
<path class="stroke" stroke-width="3"
	d="M62.04 125.00v-24.00"/>
<use x="70.54" y="183.00" xlink:href="#rdots"/>
<path class="stroke" stroke-width="1"
	d="M66.54 183.00v-58.00"/>
<path class="stroke" stroke-width="3"
	d="M62.04 183.00v-58.00"/>
<path class="stroke" stroke-width="1"
	d="M181.04 125.00v-24.00"/>
<path class="stroke" stroke-width="1"
	d="M181.04 183.00v-58.00"/>
<path class="stroke" stroke-width="1"
	d="M259.44 125.00v-24.00"/>
<path class="stroke" stroke-width="1"
	d="M259.44 183.00v-58.00"/>
<path class="stroke" stroke-width="1"
	d="M370.24 125.00v-24.00"/>
<path class="stroke" stroke-width="1"
	d="M370.24 183.00v-58.00"/>
<path class="stroke" stroke-width="1"
	d="M448.64 125.00v-24.00"/>
<path class="stroke" stroke-width="1"
	d="M448.64 183.00v-58.00"/>
<path class="stroke" stroke-width="1"
	d="M548.74 125.00v-24.00"/>
<path class="stroke" stroke-width="1"
	d="M548.74 183.00v-58.00"/>
<path class="stroke" stroke-width="1"
	d="M648.34 125.00v-24.00"/>
<path class="stroke" stroke-width="1"
	d="M648.34 183.00v-58.00"/>
<path class="stroke" stroke-width="1"
	d="M759.24 125.00v-24.00"/>
<path class="stroke" stroke-width="1"
	d="M759.24 183.00v-58.00"/>
<path class="stroke" stroke-width="3"
	d="M860.54 125.00v-24.00"/>
<path class="stroke" stroke-width="1"
	d="M856.04 125.00v-24.00"/>
<use x="852.04" y="125.00" xlink:href="#rdots"/>
<path class="stroke" stroke-width="3"
	d="M860.54 183.00v-58.00"/>
<path class="stroke" stroke-width="1"
	d="M856.04 183.00v-58.00"/>
<use x="852.04" y="183.00" xlink:href="#rdots"/>
<path d="m11.54 125.00
	h850.50
	M11.54 119.00
	h850.50
	M11.54 113.00
	h850.50
	M11.54 107.00
	h850.50
	M11.54 101.00
	h850.50
	" class="stroke"/>
<path d="m11.54 183.00
	h850.50
	M11.54 177.00
	h850.50
	M11.54 171.00
	h850.50
	M11.54 165.00
	h850.50
	M11.54 159.00
	h850.50
	" class="stroke"/>
</g>
<g stroke-width="0.70" transform="scale(0.867)" font-family="Times" font-size="13.00">
<text x="763.24" y="86.40">1</text>
<path class="stroke"
	d="M759.24 75.00m0 20v-20h94.80v20"/>
<defs>
<path id="utclef" class="fill" d="m-50 -90
	c-72 -41 -72 -158 52 -188
	150 -10 220 188 90 256
	-114 52 -275 0 -293 -136
	-15 -181 93 -229 220 -334
	88 -87 79 -133 62 -210
	-51 33 -94 105 -89 186
	17 267 36 374 49 574
	6 96 -19 134 -77 135
	-80 1 -126 -93 -61 -133
	85 -41 133 101 31 105
	23 17 92 37 90 -92
	-10 -223 -39 -342 -50 -617
	0 -90 0 -162 96 -232
	56 72 63 230 22 289
	-74 106 -257 168 -255 316
	9 153 148 185 252 133
	86 -65 29 -192 -80 -176
	-71 12 -105 67 -59 124"/>
<use id="tclef" transform="translate(0,6) scale(0.045)"
	xlink:href="#utclef"/>
</defs>
<use x="23.54" y="119.00" xlink:href="#tclef"/>
<g font-family="serif" font-size="16" font-weight="bold" font-style="normal"
	transform="translate(42.04,124.50) scale(1.2,1)">
	<text text-anchor="middle">8</text>
	<text y="-12" text-anchor="middle">3</text>
</g>
<path class="fill"
	d="M80.94 133.50l83.80 -6.20v-3.20l-83.80 6.20"/>
<path class="fill"
	d="M81.34 128.40l83.10 -6.10v-3.20l-83.10 6.10"/>
<use x="84.84" y="104.00" xlink:href="#hd"/>
<path d="M81.34 104.00v28.40" class="stroke"/>
<use x="101.44" y="110.00" xlink:href="#hd"/>
<path d="M97.94 110.00v21.20" class="stroke"/>
<use x="118.04" y="98.00" xlink:href="#hd"/>
<path d="M114.54 98.00v32.00" class="stroke"/>
<use x="134.64" y="104.00" xlink:href="#hd"/>
<path d="M131.14 104.00v24.70" class="stroke"/>
<defs>
<path id="hl" class="stroke" d="m-6 0h12"/>
</defs>
<use x="151.24" y="95.00" xlink:href="#hl"/>
<use x="151.24" y="89.00" xlink:href="#hl"/>
<use x="151.24" y="89.00" xlink:href="#hd"/>
<path d="M147.74 89.00v38.50" class="stroke"/>
<use x="167.84" y="98.00" xlink:href="#hd"/>
<path d="M164.34 98.00v28.30" class="stroke"/>
<path class="fill"
	d="M190.44 121.20l47.40 8.00v-3.20l-47.40 -8.00"/>
<use x="194.24" y="98.00" xlink:href="#hd"/>
<path d="M190.74 98.00v22.30" class="stroke"/>
<use x="217.64" y="104.00" xlink:href="#hd"/>
<path d="M214.14 104.00v20.20" class="stroke"/>
<use x="241.04" y="110.00" xlink:href="#hd"/>
<path d="M237.54 110.00v18.20" class="stroke"/>
<path class="fill"
	d="M268.84 131.30l85.10 9.90v-3.20l-85.10 -9.90"/>
<path class="fill"
	d="M269.14 126.30l84.50 9.90v-3.20l-84.50 -9.90"/>
<use x="272.64" y="98.00" xlink:href="#hd"/>
<path d="M269.14 98.00v32.30" class="stroke"/>
<use x="290.64" y="101.00" xlink:href="#hd"/>
<defs>
<path id="usharp" class="fill" d="
	m136 -702
	v890
	h32
	v-890
	m128 840
	h32
	v-888
	h-32
	m-232 286
	v116
	l338 -96
	v-116
	m-338 442
	v116
	l338 -98
	v-114"/>
<use id="sh0" transform="translate(-4,5) scale(0.018)"
	xlink:href="#usharp"/>
</defs>
<use x="281.64" y="101.00" xlink:href="#sh0"/>
<path d="M287.14 101.00v31.40" class="stroke"/>
<use x="307.24" y="98.00" xlink:href="#hd"/>
<path d="M303.74 98.00v36.40" class="stroke"/>
<use x="323.84" y="107.00" xlink:href="#hd"/>
<path d="M320.34 107.00v29.30" class="stroke"/>
<use x="340.54" y="113.00" xlink:href="#hd"/>
<path d="M337.04 113.00v25.30" class="stroke"/>
<use x="357.14" y="119.00" xlink:href="#hd"/>
<path d="M353.64 119.00v21.20" class="stroke"/>
<path class="fill"
	d="M379.64 133.80l47.40 4.50v-3.20l-47.40 -4.50"/>
<use x="383.54" y="110.00" xlink:href="#hd"/>
<path d="M380.04 110.00v22.80" class="stroke"/>
<use x="406.84" y="104.00" xlink:href="#hd"/>
<path d="M403.34 104.00v31.00" class="stroke"/>
<use x="430.24" y="119.00" xlink:href="#hd"/>
<path d="M426.74 119.00v18.20" class="stroke"/>
<path class="fill"
	d="M463.24 127.00l57.80 0.00v-3.20l-57.80 -0.00"/>
<path class="fill"
	d="M487.44 122.00l16.60 0.00v-3.20l-16.60 -0.00"/>
<use x="467.14" y="101.00" xlink:href="#hd"/>
<use x="458.14" y="101.00" xlink:href="#sh0"/>
<path d="M463.64 101.00v25.00" class="stroke"/>
<use x="490.94" y="101.00" xlink:href="#hd"/>
<path d="M487.44 101.00v25.00" class="stroke"/>
<use x="507.54" y="107.00" xlink:href="#hd"/>
<path d="M504.04 107.00v19.00" class="stroke"/>
<use x="524.24" y="95.00" xlink:href="#hl"/>
<use x="524.24" y="95.00" xlink:href="#hd"/>
<path d="M520.74 95.00v31.00" class="stroke"/>
<path class="fill"
	d="M558.24 135.20l73.90 0.00v-3.20l-73.90 -0.00"/>
<path class="fill"
	d="M581.94 130.20l49.80 0.00v-3.20l-49.80 -0.00"/>
<use x="562.04" y="107.00" xlink:href="#hd"/>
<path d="M558.54 107.00v27.20" class="stroke"/>
<use x="585.44" y="98.00" xlink:href="#hd"/>
<path d="M581.94 98.00v36.20" class="stroke"/>
<use x="602.04" y="107.00" xlink:href="#hd"/>
<path d="M598.54 107.00v27.20" class="stroke"/>
<use x="618.64" y="113.00" xlink:href="#hd"/>
<path d="M615.14 113.00v21.20" class="stroke"/>
<use x="635.24" y="107.00" xlink:href="#hd"/>
<path d="M631.74 107.00v27.20" class="stroke"/>
<path class="fill"
	d="M657.84 127.00l85.20 0.00v-3.20l-85.20 -0.00"/>
<path class="fill"
	d="M658.14 122.00l84.50 0.00v-3.20l-84.50 -0.00"/>
<use x="661.64" y="104.00" xlink:href="#hd"/>
<path d="M658.14 104.00v22.00" class="stroke"/>
<use x="678.24" y="95.00" xlink:href="#hl"/>
<use x="678.24" y="89.00" xlink:href="#hl"/>
<use x="678.24" y="89.00" xlink:href="#hd"/>
<path d="M674.74 89.00v37.00" class="stroke"/>
<use x="694.94" y="95.00" xlink:href="#hl"/>
<use x="694.94" y="92.00" xlink:href="#hd"/>
<path d="M691.44 92.00v34.00" class="stroke"/>
<use x="711.54" y="98.00" xlink:href="#hd"/>
<path d="M708.04 98.00v28.00" class="stroke"/>
<use x="728.14" y="95.00" xlink:href="#hl"/>
<use x="728.14" y="95.00" xlink:href="#hd"/>
<path d="M724.64 95.00v31.00" class="stroke"/>
<use x="746.14" y="101.00" xlink:href="#hd"/>
<use x="737.14" y="101.00" xlink:href="#sh0"/>
<path d="M742.64 101.00v25.00" class="stroke"/>
<use x="772.54" y="98.00" xlink:href="#hd"/>
<path d="M769.04 98.00v40.00" class="stroke"/>
<use x="772.54" y="119.00" xlink:href="#hd"/>
<use x="772.54" y="113.00" xlink:href="#hd"/>
<use x="772.54" y="107.00" xlink:href="#hd"/>
<defs>
<path id="r8e" class="fill" d="m 0 0
	c-1.5 1.5 -2.4 2 -3.6 2
	2.4 -2.8 -2.8 -4 -2.8 -1.2
	c0 2.7 4.3 2.4 5.9 0.6"/>
<g id="r8">
	<path d="m3.3 -4l-3.4 9.6" class="stroke"/>
	<use x="3.4" y="-4" xlink:href="#r8e"/>
</g>
</defs>
<use x="830.54" y="113.00" xlink:href="#r8"/>
<defs>
<path id="ubclef" class="fill" d="m-200 -87
	c124 -35 222 -78 254 -236
	43 -228 -167 -246 -192 -103
	59 -80 157 22 92 78
	-62 47 -115 -22 -106 -88
	21 -141 270 -136 274 52
	-1 175 -106 264 -322 297
	m357 -250
	c0 -36 51 -34 51 0
	0 37 -51 36 -51 0
	m-2 -129
	c0 -36 51 -34 51 0
	0 38 -51 37 -51 0"/>
<use id="bclef" transform="translate(0,18) scale(0.045)"
	xlink:href="#ubclef"/>
</defs>
<use x="23.54" y="165.00" xlink:href="#bclef"/>
<g font-family="serif" font-size="16" font-weight="bold" font-style="normal"
	transform="translate(42.04,182.50) scale(1.2,1)">
	<text text-anchor="middle">8</text>
	<text y="-12" text-anchor="middle">3</text>
</g>
<use x="84.84" y="168.00" xlink:href="#hd"/>
<path d="M81.34 168.00v25.00" class="stroke"/>
<use x="84.84" y="174.00" xlink:href="#hd"/>
<use x="151.24" y="171.00" xlink:href="#r8"/>
<use x="194.24" y="168.00" xlink:href="#hd"/>
<path d="M197.74 168.00v-21.00" class="stroke"/>
<use x="241.04" y="171.00" xlink:href="#r8"/>
<use x="272.64" y="177.00" xlink:href="#hd"/>
<path d="M276.14 177.00v-25.00" class="stroke"/>
<use x="272.64" y="171.00" xlink:href="#hd"/>
<use x="340.54" y="171.00" xlink:href="#r8"/>
<use x="383.54" y="162.00" xlink:href="#hd"/>
<path d="M380.04 162.00v25.00" class="stroke"/>
<use x="383.54" y="168.00" xlink:href="#hd"/>
<use x="430.24" y="171.00" xlink:href="#r8"/>
<path class="fill"
	d="M470.24 150.00l57.80 0.00v3.20l-57.80 -0.00"/>
<use x="467.14" y="171.00" xlink:href="#hd"/>
<path d="M470.64 171.00v-20.00" class="stroke"/>
<use x="490.94" y="171.00" xlink:href="#hd"/>
<path d="M494.44 171.00v-20.00" class="stroke"/>
<use x="524.24" y="171.00" xlink:href="#hd"/>
<path d="M527.74 171.00v-20.00" class="stroke"/>
<use x="562.04" y="162.00" xlink:href="#hd"/>
<path d="M558.54 162.00v34.00" class="stroke"/>
<use x="562.04" y="177.00" xlink:href="#hd"/>
<use x="618.64" y="171.00" xlink:href="#r8"/>
<path class="fill"
	d="M664.84 147.70l67.20 8.20v3.20l-67.20 -8.20"/>
<use x="661.64" y="174.00" xlink:href="#hd"/>
<path d="M665.14 174.00v-25.30" class="stroke"/>
<use x="694.94" y="171.00" xlink:href="#hd"/>
<path d="M698.44 171.00v-18.20" class="stroke"/>
<use x="728.14" y="189.00" xlink:href="#hl"/>
<use x="728.14" y="192.00" xlink:href="#hd"/>
<path d="M731.64 192.00v-35.10" class="stroke"/>
<path class="fill"
	d="M768.74 202.20l75.30 0.00v-3.20l-75.30 -0.00"/>
<path class="fill"
	d="M792.44 197.20l51.20 0.00v-3.20l-51.20 -0.00"/>
<use x="772.54" y="183.00" xlink:href="#hd"/>
<path d="M769.04 183.00v18.20" class="stroke"/>
<use x="795.94" y="162.00" xlink:href="#hd"/>
<path d="M792.44 162.00v39.20" class="stroke"/>
<use x="813.94" y="165.00" xlink:href="#hd"/>
<defs>
<path id="unat" class="fill" d="
	m96 -750
	h-32
	v716
	l32 -8
	182 -54
	v282
	h32
	v-706
	l-34 10
	-180 50
	v-290
	m0 592
	v-190
	l182 -52
	v188"/>
<use id="nt0" transform="translate(-3,5) scale(0.018)"
	xlink:href="#unat"/>
</defs>
<use x="804.94" y="165.00" xlink:href="#nt0"/>
<path d="M810.44 165.00v36.20" class="stroke"/>
<use x="830.54" y="168.00" xlink:href="#hd"/>
<path d="M827.04 168.00v33.20" class="stroke"/>
<use x="847.14" y="171.00" xlink:href="#hd"/>
<path d="M843.64 171.00v30.20" class="stroke"/>
<use x="194.24" y="174.00" xlink:href="#hd"/>
<path d="M190.74 174.00v21.00" class="stroke"/>
<path class="fill"
	d="M471.24 195.00l57.80 0.00v-3.20l-57.80 -0.00"/>
<use x="475.14" y="174.00" xlink:href="#hd"/>
<path d="M471.64 174.00v20.00" class="stroke"/>
<use x="498.94" y="174.00" xlink:href="#hd"/>
<path d="M495.44 174.00v20.00" class="stroke"/>
<use x="532.24" y="174.00" xlink:href="#hd"/>
<path d="M528.74 174.00v20.00" class="stroke"/>
</g>
<g stroke-width="0.70" transform="scale(0.867)" font-family="Times" font-size="13.00">
<path class="stroke" stroke-width="1"
	d="M11.54 322.00v-88.00"/>
<path class="fill"
	d="M6.54 231.00
	c10.5 1 12 -4.5 12 -3.5c0 1 -3.5 5.5 -8.5 5.5
	v90.00
	c5 0 8.5 4.5 8.5 5.5c0 1 -1.5 -4.5 -12 -3.5"/>
<use x="142.14" y="258.00" xlink:href="#rdots"/>
<path class="stroke" stroke-width="1"
	d="M138.14 258.00v-24.00"/>
<path class="stroke" stroke-width="3"
	d="M133.64 258.00v-24.00"/>
<use x="142.14" y="322.00" xlink:href="#rdots"/>
<path class="stroke" stroke-width="1"
	d="M138.14 322.00v-64.00"/>
<path class="stroke" stroke-width="3"
	d="M133.64 322.00v-64.00"/>
<path class="stroke" stroke-width="1"
	d="M247.24 258.00v-24.00"/>
<path class="stroke" stroke-width="1"
	d="M247.24 322.00v-64.00"/>
<path class="stroke" stroke-width="1"
	d="M324.54 258.00v-24.00"/>
<path class="stroke" stroke-width="1"
	d="M324.54 322.00v-64.00"/>
<path class="stroke" stroke-width="1"
	d="M421.34 258.00v-24.00"/>
<path class="stroke" stroke-width="1"
	d="M421.34 322.00v-64.00"/>
<path class="stroke" stroke-width="1"
	d="M498.54 258.00v-24.00"/>
<path class="stroke" stroke-width="1"
	d="M498.54 322.00v-64.00"/>
<path class="stroke" stroke-width="1"
	d="M595.74 258.00v-24.00"/>
<path class="stroke" stroke-width="1"
	d="M595.74 322.00v-64.00"/>
<path class="stroke" stroke-width="1"
	d="M692.54 258.00v-24.00"/>
<path class="stroke" stroke-width="1"
	d="M692.54 322.00v-64.00"/>
<path class="stroke" stroke-width="1"
	d="M789.34 258.00v-24.00"/>
<path class="stroke" stroke-width="1"
	d="M789.34 322.00v-64.00"/>
<path class="stroke" stroke-width="3"
	d="M860.54 258.00v-24.00"/>
<path class="stroke" stroke-width="1"
	d="M856.04 258.00v-24.00"/>
<use x="852.04" y="258.00" xlink:href="#rdots"/>
<path class="stroke" stroke-width="3"
	d="M860.54 322.00v-64.00"/>
<path class="stroke" stroke-width="1"
	d="M856.04 322.00v-64.00"/>
<use x="852.04" y="322.00" xlink:href="#rdots"/>
<path d="m11.54 258.00
	h850.50
	M11.54 252.00
	h850.50
	M11.54 246.00
	h850.50
	M11.54 240.00
	h850.50
	M11.54 234.00
	h850.50
	" class="stroke"/>
<path d="m11.54 322.00
	h850.50
	M11.54 316.00
	h850.50
	M11.54 310.00
	h850.50
	M11.54 304.00
	h850.50
	M11.54 298.00
	h850.50
	" class="stroke"/>
<text x="47.54" y="219.40">2</text>
<path class="stroke"
	d="M43.54 208.00m0 20v-20h87.60v20"/>
<use x="23.54" y="252.00" xlink:href="#tclef"/>
<use x="56.04" y="231.00" xlink:href="#hd"/>
<path d="M52.54 231.00v40.00" class="stroke"/>
<use x="56.04" y="252.00" xlink:href="#hd"/>
<use x="56.04" y="246.00" xlink:href="#hd"/>
<use x="56.04" y="240.00" xlink:href="#hd"/>
<use x="108.24" y="246.00" xlink:href="#r8"/>
<path class="fill"
	d="M151.84 281.30l79.80 -13.20v-3.20l-79.80 13.20"/>
<path class="fill"
	d="M152.14 276.20l79.10 -13.10v-3.20l-79.10 13.10"/>
<use x="155.64" y="261.00" xlink:href="#hd"/>
<path d="M152.14 261.00v19.20" class="stroke"/>
<use x="173.64" y="255.00" xlink:href="#hd"/>
<use x="164.64" y="255.00" xlink:href="#sh0"/>
<path d="M170.14 255.00v22.20" class="stroke"/>
<use x="187.94" y="249.00" xlink:href="#hd"/>
<path d="M184.44 249.00v25.90" class="stroke"/>
<use x="202.34" y="240.00" xlink:href="#hd"/>
<path d="M198.84 240.00v32.50" class="stroke"/>
<use x="220.34" y="234.00" xlink:href="#hd"/>
<use x="211.34" y="234.00" xlink:href="#sh0"/>
<path d="M216.84 234.00v35.50" class="stroke"/>
<use x="234.74" y="228.00" xlink:href="#hl"/>
<use x="234.74" y="228.00" xlink:href="#hd"/>
<path d="M231.24 228.00v39.10" class="stroke"/>
<path class="fill"
	d="M255.84 260.00l49.40 0.00v-3.20l-49.40 -0.00"/>
<path class="fill"
	d="M276.04 255.00l14.50 0.00v-3.20l-14.50 -0.00"/>
<use x="259.74" y="231.00" xlink:href="#hd"/>
<path d="M256.24 231.00v28.00" class="stroke"/>
<use x="279.54" y="228.00" xlink:href="#hl"/>
<use x="279.54" y="225.00" xlink:href="#hd"/>
<path d="M276.04 225.00v34.00" class="stroke"/>
<use x="294.14" y="228.00" xlink:href="#hl"/>
<use x="294.14" y="222.00" xlink:href="#hl"/>
<use x="294.14" y="219.00" xlink:href="#hd"/>
<path d="M290.64 219.00v40.00" class="stroke"/>
<use x="308.44" y="240.00" xlink:href="#hd"/>
<path d="M304.94 240.00v19.00" class="stroke"/>
<path class="fill"
	d="M333.24 264.30l58.10 6.90v-3.20l-58.10 -6.90"/>
<use x="337.04" y="237.00" xlink:href="#hd"/>
<path d="M333.54 237.00v26.30" class="stroke"/>
<use x="365.84" y="243.00" xlink:href="#hd"/>
<path d="M362.34 243.00v23.80" class="stroke"/>
<use x="394.54" y="252.00" xlink:href="#hd"/>
<path d="M391.04 252.00v18.20" class="stroke"/>
<path class="fill"
	d="M437.04 219.30l49.30 6.10v3.20l-49.30 -6.10"/>
<path class="fill"
	d="M457.24 226.80l14.40 1.80v3.20l-14.40 -1.80"/>
<use x="433.84" y="243.00" xlink:href="#hd"/>
<path d="M437.34 243.00v-22.70" class="stroke"/>
<use x="433.84" y="237.00" xlink:href="#hd"/>
<use x="453.74" y="252.00" xlink:href="#hd"/>
<path d="M457.24 252.00v-29.20" class="stroke"/>
<use x="453.74" y="240.00" xlink:href="#hd"/>
<use x="468.14" y="252.00" xlink:href="#hd"/>
<path d="M471.64 252.00v-27.40" class="stroke"/>
<use x="468.14" y="246.00" xlink:href="#hd"/>
<use x="482.44" y="252.00" xlink:href="#hd"/>
<path d="M485.94 252.00v-25.60" class="stroke"/>
<path class="fill"
	d="M507.24 256.00l72.80 9.30v-3.20l-72.80 -9.30"/>
<path class="fill"
	d="M507.54 251.00l72.10 9.20v-3.20l-72.10 -9.20"/>
<use x="511.04" y="228.00" xlink:href="#hl"/>
<use x="511.04" y="222.00" xlink:href="#hl"/>
<use x="511.04" y="222.00" xlink:href="#hd"/>
<path d="M507.54 222.00v33.00" class="stroke"/>
<use x="525.64" y="228.00" xlink:href="#hl"/>
<use x="525.64" y="225.00" xlink:href="#hd"/>
<path d="M522.14 225.00v31.90" class="stroke"/>
<use x="540.14" y="228.00" xlink:href="#hl"/>
<use x="540.14" y="222.00" xlink:href="#hl"/>
<use x="540.14" y="222.00" xlink:href="#hd"/>
<path d="M536.64 222.00v36.70" class="stroke"/>
<use x="554.54" y="231.00" xlink:href="#hd"/>
<path d="M551.04 231.00v29.50" class="stroke"/>
<use x="568.84" y="237.00" xlink:href="#hd"/>
<path d="M565.34 237.00v25.40" class="stroke"/>
<use x="583.24" y="243.00" xlink:href="#hd"/>
<path d="M579.74 243.00v21.20" class="stroke"/>
<path class="fill"
	d="M604.34 260.60l58.10 3.20v-3.20l-58.10 -3.20"/>
<use x="608.24" y="231.00" xlink:href="#hd"/>
<path d="M604.74 231.00v28.60" class="stroke"/>
<use x="636.94" y="243.00" xlink:href="#hd"/>
<path d="M633.44 243.00v18.20" class="stroke"/>
<use x="665.64" y="237.00" xlink:href="#hd"/>
<path d="M662.14 237.00v25.80" class="stroke"/>
<path class="fill"
	d="M701.14 260.00l72.50 0.00v-3.20l-72.50 -0.00"/>
<path class="fill"
	d="M701.54 255.00l71.80 0.00v-3.20l-71.80 -0.00"/>
<use x="705.04" y="234.00" xlink:href="#hd"/>
<path d="M701.54 234.00v25.00" class="stroke"/>
<use x="719.34" y="237.00" xlink:href="#hd"/>
<path d="M715.84 237.00v22.00" class="stroke"/>
<use x="733.74" y="240.00" xlink:href="#hd"/>
<path d="M730.24 240.00v19.00" class="stroke"/>
<use x="748.04" y="237.00" xlink:href="#hd"/>
<path d="M744.54 237.00v22.00" class="stroke"/>
<use x="762.44" y="234.00" xlink:href="#hd"/>
<path d="M758.94 234.00v25.00" class="stroke"/>
<use x="776.84" y="231.00" xlink:href="#hd"/>
<path d="M773.34 231.00v28.00" class="stroke"/>
<use x="801.84" y="243.00" xlink:href="#hd"/>
<path d="M798.34 243.00v21.00" class="stroke"/>
<use x="841.54" y="246.00" xlink:href="#r8"/>
<use x="23.54" y="304.00" xlink:href="#bclef"/>
<path class="fill"
	d="M52.24 341.20l67.30 -4.90v-3.20l-67.30 4.90"/>
<path class="fill"
	d="M72.44 334.70l46.70 -3.40v-3.20l-46.70 3.40"/>
<use x="56.04" y="322.00" xlink:href="#hd"/>
<path d="M52.54 322.00v18.20" class="stroke"/>
<use x="75.94" y="295.00" xlink:href="#hd"/>
<path d="M72.44 295.00v43.70" class="stroke"/>
<use x="90.24" y="301.00" xlink:href="#hd"/>
<path d="M86.74 301.00v36.70" class="stroke"/>
<use x="108.24" y="304.00" xlink:href="#hd"/>
<use x="99.24" y="304.00" xlink:href="#sh0"/>
<path d="M104.74 304.00v32.40" class="stroke"/>
<use x="122.64" y="307.00" xlink:href="#hd"/>
<path d="M119.14 307.00v28.30" class="stroke"/>
<use x="155.64" y="310.00" xlink:href="#hd"/>
<path d="M159.14 310.00v-21.00" class="stroke"/>
<use x="220.34" y="313.00" xlink:href="#hd"/>
<path d="M223.84 313.00v-21.00" class="stroke"/>
<path class="fill"
	d="M223.84 292.00c0.6 5.6 9.6 9 5.6 18.4
	1.6 -6 -1.3 -11.6 -5.6 -12.8
"/>
<use x="259.74" y="316.00" xlink:href="#hd"/>
<path d="M263.24 316.00v-21.00" class="stroke"/>
<use x="308.44" y="310.00" xlink:href="#r8"/>
<path class="fill"
	d="M333.24 329.90l72.50 0.00v-3.20l-72.50 -0.00"/>
<path class="fill"
	d="M333.54 324.90l71.80 0.00v-3.20l-71.80 -0.00"/>
<use x="337.04" y="307.00" xlink:href="#hd"/>
<path d="M333.54 307.00v21.90" class="stroke"/>
<use x="337.04" y="313.00" xlink:href="#hd"/>
<use x="351.44" y="301.00" xlink:href="#hd"/>
<path d="M347.94 301.00v27.90" class="stroke"/>
<use x="365.84" y="307.00" xlink:href="#hd"/>
<path d="M362.34 307.00v21.90" class="stroke"/>
<use x="365.84" y="313.00" xlink:href="#hd"/>
<use x="380.14" y="301.00" xlink:href="#hd"/>
<path d="M376.64 301.00v27.90" class="stroke"/>
<use x="394.54" y="307.00" xlink:href="#hd"/>
<path d="M391.04 307.00v21.90" class="stroke"/>
<use x="394.54" y="313.00" xlink:href="#hd"/>
<use x="408.84" y="301.00" xlink:href="#hd"/>
<path d="M405.34 301.00v27.90" class="stroke"/>
<path class="fill"
	d="M437.04 281.70l20.60 7.00v3.20l-20.60 -7.00"/>
<use x="433.84" y="301.00" xlink:href="#hd"/>
<path d="M437.34 301.00v-18.20" class="stroke"/>
<use x="453.74" y="322.00" xlink:href="#hd"/>
<path d="M457.24 322.00v-32.50" class="stroke"/>
<use x="482.44" y="310.00" xlink:href="#r8"/>
<use x="511.04" y="307.00" xlink:href="#hd"/>
<path d="M507.54 307.00v25.00" class="stroke"/>
<use x="511.04" y="313.00" xlink:href="#hd"/>
<use x="568.84" y="301.00" xlink:href="#hd"/>
<path d="M565.34 301.00v31.00" class="stroke"/>
<path class="fill"
	d="M565.34 332.00c0.6 -5.6 9.6 -9 5.6 -18.4
	1.6 6 -1.3 11.6 -5.6 12.8
"/>
<use x="568.84" y="313.00" xlink:href="#hd"/>
<path class="fill"
	d="M604.34 329.90l72.50 0.00v-3.20l-72.50 -0.00"/>
<path class="fill"
	d="M604.74 324.90l71.80 0.00v-3.20l-71.80 -0.00"/>
<use x="608.24" y="307.00" xlink:href="#hd"/>
<path d="M604.74 307.00v21.90" class="stroke"/>
<use x="608.24" y="313.00" xlink:href="#hd"/>
<use x="622.54" y="301.00" xlink:href="#hd"/>
<path d="M619.04 301.00v27.90" class="stroke"/>
<use x="636.94" y="307.00" xlink:href="#hd"/>
<path d="M633.44 307.00v21.90" class="stroke"/>
<use x="636.94" y="313.00" xlink:href="#hd"/>
<use x="651.24" y="301.00" xlink:href="#hd"/>
<path d="M647.74 301.00v27.90" class="stroke"/>
<use x="665.64" y="307.00" xlink:href="#hd"/>
<path d="M662.14 307.00v21.90" class="stroke"/>
<use x="665.64" y="313.00" xlink:href="#hd"/>
<use x="680.04" y="301.00" xlink:href="#hd"/>
<path d="M676.54 301.00v27.90" class="stroke"/>
<path class="fill"
	d="M701.14 323.90l72.50 0.00v-3.20l-72.50 -0.00"/>
<path class="fill"
	d="M701.54 318.90l71.80 0.00v-3.20l-71.80 -0.00"/>
<use x="705.04" y="298.00" xlink:href="#hd"/>
<path d="M701.54 298.00v25.00" class="stroke"/>
<use x="719.34" y="301.00" xlink:href="#hd"/>
<path d="M715.84 301.00v22.00" class="stroke"/>
<use x="733.74" y="304.00" xlink:href="#hd"/>
<path d="M730.24 304.00v19.00" class="stroke"/>
<use x="748.04" y="301.00" xlink:href="#hd"/>
<path d="M744.54 301.00v22.00" class="stroke"/>
<use x="762.44" y="298.00" xlink:href="#hd"/>
<path d="M758.94 298.00v25.00" class="stroke"/>
<use x="776.84" y="295.00" xlink:href="#hd"/>
<path d="M773.34 295.00v28.00" class="stroke"/>
<path class="fill"
	d="M804.94 293.70l40.40 9.60v3.20l-40.40 -9.60"/>
<use x="801.84" y="313.00" xlink:href="#hd"/>
<path d="M805.34 313.00v-18.20" class="stroke"/>
<use x="821.64" y="322.00" xlink:href="#hd"/>
<path d="M825.14 322.00v-22.50" class="stroke"/>
<use x="841.54" y="328.00" xlink:href="#hl"/>
<use x="841.54" y="334.00" xlink:href="#hl"/>
<use x="841.54" y="334.00" xlink:href="#hd"/>
<path d="M845.04 334.00v-29.80" class="stroke"/>
</g>
</svg>
