<?xml version="1.0" standalone="no"?>
<!DOCTYPE svg PUBLIC "-//W3C//DTD SVG 1.1//EN"
	"http://www.w3.org/Graphics/SVG/1.1/DTD/svg11.dtd">
<svg xmlns="http://www.w3.org/2000/svg" version="1.1"
	xmlns:xlink="http://www.w3.org/1999/xlink"
	color="black"
	width="757.10px" height="293.80px">
<style type="text/css">
.fill {fill: currentColor}
.stroke {stroke: currentColor; fill: none}
text{white-space: pre}
</style>
<title>./K516f-7-2-7-7-6-11-10-10-5-6-12-12-10-11-4-4.abc (9985) tune 1</title>
<!-- Creator: abcm2ps-8.13.8 -->
<!-- CreationDate: Sep  7, 2017 11:20 -->
<!-- CommandLine: ./K516f-7-2-7-7-6-11-10-10-5-6-12-12-10-11-4-4.abc -O ./K516f-7-2-7-7-6-11-10-10-5-6-12-12-10-11-4-4.svg -g -->
<rect width="100%" height="100%" fill="white"/>
<g stroke-width="0.70" transform="scale(0.867)">
<!-- title: 7-2-7-7-6-11-10-10-5-6-12-12-10-11-4-4 -->
</g>
<g stroke-width="0.70" transform="scale(0.867)" font-family="Times" font-size="20.00">
<text x="436.84" y="22.00" text-anchor="middle">7-2-7-7-6-11-10-10-5-6-12-12-10-11-4-4</text>
</g>
<g stroke-width="0.70" transform="scale(0.867)" font-family="Times" font-size="20.00">
<!-- subtitle: $1K.516f::104:22:27:167:80:47:62:123:90:143:108:92:137:59:145:79::$0 -->
</g>
<g stroke-width="0.70" transform="scale(0.867)" font-family="Courier" font-size="8.00" font-weight="bold">
<text x="436.84" y="41.80" text-anchor="middle">K.516f::104:22:27:167:80:47:62:123:90:143:108:92:137:59:145:79::</text>
</g>
<g stroke-width="0.70" transform="scale(0.867)" font-family="Courier" font-size="8.00" font-weight="bold">
<!-- subtitle: $1Perm. No.: 99857658350973$0 -->
<text x="436.84" y="60.80" text-anchor="middle">Perm. No.: 99857658350973</text>
</g>
<g stroke-width="0.70" transform="scale(0.607)" font-family="Courier" font-size="8.00" font-weight="bold">
<defs>
<ellipse id="hd" rx="4.1" ry="2.9"
	transform="rotate(-20)" class="fill"/>
</defs>
<use x="103.06" y="121.29" xlink:href="#hd"/>
<path d="M106.56 121.29v-21.00" class="stroke"/>
<path class="fill"
	d="M106.56 100.29c0.6 5.6 9.6 9 5.6 18.4
	1.6 -6 -1.3 -11.6 -5.6 -12.8
"/>
</g>
<g stroke-width="0.70" transform="scale(0.867)" font-family="Times" font-size="15.00" font-weight="bold">
<text x="81.24" y="87.00">= 111</text>
<path class="stroke" stroke-width="1"
	d="M11.54 183.00v-82.00"/>
<path class="fill"
	d="M6.54 98.00
	c10.5 1 12 -4.5 12 -3.5c0 1 -3.5 5.5 -8.5 5.5
	v84.00
	c5 0 8.5 4.5 8.5 5.5c0 1 -1.5 -4.5 -12 -3.5"/>
<defs>
<g id="rdots" class="fill">
	<circle cx="0" cy="-9" r="1.2"/>
	<circle cx="0" cy="-15" r="1.2"/>
</g>
</defs>
<use x="70.54" y="125.00" xlink:href="#rdots"/>
<path class="stroke" stroke-width="1"
	d="M66.54 125.00v-24.00"/>
<path class="stroke" stroke-width="3"
	d="M62.04 125.00v-24.00"/>
<use x="70.54" y="183.00" xlink:href="#rdots"/>
<path class="stroke" stroke-width="1"
	d="M66.54 183.00v-58.00"/>
<path class="stroke" stroke-width="3"
	d="M62.04 183.00v-58.00"/>
<path class="stroke" stroke-width="1"
	d="M184.64 125.00v-24.00"/>
<path class="stroke" stroke-width="1"
	d="M184.64 183.00v-58.00"/>
<path class="stroke" stroke-width="1"
	d="M265.74 125.00v-24.00"/>
<path class="stroke" stroke-width="1"
	d="M265.74 183.00v-58.00"/>
<path class="stroke" stroke-width="1"
	d="M378.84 125.00v-24.00"/>
<path class="stroke" stroke-width="1"
	d="M378.84 183.00v-58.00"/>
<path class="stroke" stroke-width="1"
	d="M470.04 125.00v-24.00"/>
<path class="stroke" stroke-width="1"
	d="M470.04 183.00v-58.00"/>
<path class="stroke" stroke-width="1"
	d="M551.34 125.00v-24.00"/>
<path class="stroke" stroke-width="1"
	d="M551.34 183.00v-58.00"/>
<path class="stroke" stroke-width="1"
	d="M642.54 125.00v-24.00"/>
<path class="stroke" stroke-width="1"
	d="M642.54 183.00v-58.00"/>
<path class="stroke" stroke-width="1"
	d="M756.44 125.00v-24.00"/>
<path class="stroke" stroke-width="1"
	d="M756.44 183.00v-58.00"/>
<path class="stroke" stroke-width="3"
	d="M860.54 125.00v-24.00"/>
<path class="stroke" stroke-width="1"
	d="M856.04 125.00v-24.00"/>
<use x="852.04" y="125.00" xlink:href="#rdots"/>
<path class="stroke" stroke-width="3"
	d="M860.54 183.00v-58.00"/>
<path class="stroke" stroke-width="1"
	d="M856.04 183.00v-58.00"/>
<use x="852.04" y="183.00" xlink:href="#rdots"/>
<path d="m11.54 125.00
	h850.50
	M11.54 119.00
	h850.50
	M11.54 113.00
	h850.50
	M11.54 107.00
	h850.50
	M11.54 101.00
	h850.50
	" class="stroke"/>
<path d="m11.54 183.00
	h850.50
	M11.54 177.00
	h850.50
	M11.54 171.00
	h850.50
	M11.54 165.00
	h850.50
	M11.54 159.00
	h850.50
	" class="stroke"/>
</g>
<g stroke-width="0.70" transform="scale(0.867)" font-family="Times" font-size="13.00">
<text x="760.44" y="86.40">1</text>
<path class="stroke"
	d="M756.44 75.00m0 20v-20h97.60v20"/>
<defs>
<path id="utclef" class="fill" d="m-50 -90
	c-72 -41 -72 -158 52 -188
	150 -10 220 188 90 256
	-114 52 -275 0 -293 -136
	-15 -181 93 -229 220 -334
	88 -87 79 -133 62 -210
	-51 33 -94 105 -89 186
	17 267 36 374 49 574
	6 96 -19 134 -77 135
	-80 1 -126 -93 -61 -133
	85 -41 133 101 31 105
	23 17 92 37 90 -92
	-10 -223 -39 -342 -50 -617
	0 -90 0 -162 96 -232
	56 72 63 230 22 289
	-74 106 -257 168 -255 316
	9 153 148 185 252 133
	86 -65 29 -192 -80 -176
	-71 12 -105 67 -59 124"/>
<use id="tclef" transform="translate(0,6) scale(0.045)"
	xlink:href="#utclef"/>
</defs>
<use x="23.54" y="119.00" xlink:href="#tclef"/>
<g font-family="serif" font-size="16" font-weight="bold" font-style="normal"
	transform="translate(42.04,124.50) scale(1.2,1)">
	<text text-anchor="middle">8</text>
	<text y="-12" text-anchor="middle">3</text>
</g>
<path class="fill"
	d="M81.24 130.50l86.70 -6.40v-3.20l-86.70 6.40"/>
<path class="fill"
	d="M81.64 125.50l86.00 -6.40v-3.20l-86.00 6.40"/>
<use x="85.14" y="104.00" xlink:href="#hd"/>
<path d="M81.64 104.00v25.50" class="stroke"/>
<use x="102.34" y="107.00" xlink:href="#hd"/>
<path d="M98.84 107.00v21.20" class="stroke"/>
<use x="119.54" y="104.00" xlink:href="#hd"/>
<path d="M116.04 104.00v22.90" class="stroke"/>
<use x="136.74" y="98.00" xlink:href="#hd"/>
<path d="M133.24 98.00v27.70" class="stroke"/>
<defs>
<path id="hl" class="stroke" d="m-6 0h12"/>
</defs>
<use x="153.94" y="95.00" xlink:href="#hl"/>
<use x="153.94" y="89.00" xlink:href="#hl"/>
<use x="153.94" y="89.00" xlink:href="#hd"/>
<path d="M150.44 89.00v35.40" class="stroke"/>
<use x="171.14" y="98.00" xlink:href="#hd"/>
<path d="M167.64 98.00v25.10" class="stroke"/>
<path class="fill"
	d="M194.34 131.60l49.30 6.70v-3.20l-49.30 -6.70"/>
<use x="198.14" y="104.00" xlink:href="#hd"/>
<path d="M194.64 104.00v26.60" class="stroke"/>
<use x="222.44" y="110.00" xlink:href="#hd"/>
<path d="M218.94 110.00v23.90" class="stroke"/>
<use x="246.74" y="119.00" xlink:href="#hd"/>
<path d="M243.24 119.00v18.20" class="stroke"/>
<path class="fill"
	d="M275.44 129.00l86.70 6.20v-3.20l-86.70 -6.20"/>
<path class="fill"
	d="M275.84 124.00l86.00 6.20v-3.20l-86.00 -6.20"/>
<use x="279.34" y="101.00" xlink:href="#hd"/>
<path d="M275.84 101.00v27.00" class="stroke"/>
<use x="296.54" y="104.00" xlink:href="#hd"/>
<path d="M293.04 104.00v25.30" class="stroke"/>
<use x="313.74" y="101.00" xlink:href="#hd"/>
<path d="M310.24 101.00v29.50" class="stroke"/>
<use x="330.94" y="107.00" xlink:href="#hd"/>
<path d="M327.44 107.00v24.70" class="stroke"/>
<use x="348.14" y="110.00" xlink:href="#hd"/>
<path d="M344.64 110.00v23.00" class="stroke"/>
<use x="365.34" y="113.00" xlink:href="#hd"/>
<path d="M361.84 113.00v21.20" class="stroke"/>
<path class="fill"
	d="M388.54 133.00l59.40 0.00v-3.20l-59.40 -0.00"/>
<path class="fill"
	d="M413.14 128.00l17.20 0.00v-3.20l-17.20 -0.00"/>
<use x="392.34" y="110.00" xlink:href="#hd"/>
<path d="M388.84 110.00v21.90" class="stroke"/>
<use x="416.64" y="110.00" xlink:href="#hd"/>
<path d="M413.14 110.00v21.90" class="stroke"/>
<use x="433.84" y="107.00" xlink:href="#hd"/>
<path d="M430.34 107.00v24.90" class="stroke"/>
<use x="451.04" y="104.00" xlink:href="#hd"/>
<path d="M447.54 104.00v27.90" class="stroke"/>
<path class="fill"
	d="M479.84 136.80l49.40 -3.20v-3.20l-49.40 3.20"/>
<use x="483.64" y="107.00" xlink:href="#hd"/>
<path d="M480.14 107.00v28.80" class="stroke"/>
<use x="507.94" y="116.00" xlink:href="#hd"/>
<path d="M504.44 116.00v18.20" class="stroke"/>
<use x="532.34" y="101.00" xlink:href="#hd"/>
<defs>
<path id="usharp" class="fill" d="
	m136 -702
	v890
	h32
	v-890
	m128 840
	h32
	v-888
	h-32
	m-232 286
	v116
	l338 -96
	v-116
	m-338 442
	v116
	l338 -98
	v-114"/>
<use id="sh0" transform="translate(-4,5) scale(0.018)"
	xlink:href="#usharp"/>
</defs>
<use x="523.34" y="101.00" xlink:href="#sh0"/>
<path d="M528.84 101.00v31.60" class="stroke"/>
<path class="fill"
	d="M561.04 127.00l59.40 0.00v-3.20l-59.40 -0.00"/>
<path class="fill"
	d="M585.74 122.00l17.20 0.00v-3.20l-17.20 -0.00"/>
<use x="564.94" y="98.00" xlink:href="#hd"/>
<path d="M561.44 98.00v28.00" class="stroke"/>
<use x="589.24" y="98.00" xlink:href="#hd"/>
<path d="M585.74 98.00v28.00" class="stroke"/>
<use x="606.44" y="107.00" xlink:href="#hd"/>
<path d="M602.94 107.00v19.00" class="stroke"/>
<use x="623.64" y="95.00" xlink:href="#hl"/>
<use x="623.64" y="92.00" xlink:href="#hd"/>
<path d="M620.14 92.00v34.00" class="stroke"/>
<path class="fill"
	d="M659.34 81.80l87.50 8.10v3.20l-87.50 -8.10"/>
<path class="fill"
	d="M659.64 86.80l86.80 8.00v3.20l-86.80 -8.00"/>
<use x="656.14" y="104.00" xlink:href="#hd"/>
<path d="M659.64 104.00v-21.20" class="stroke"/>
<use x="673.34" y="110.00" xlink:href="#hd"/>
<path d="M676.84 110.00v-25.60" class="stroke"/>
<use x="690.54" y="113.00" xlink:href="#hd"/>
<path d="M694.04 113.00v-27.00" class="stroke"/>
<use x="707.74" y="119.00" xlink:href="#hd"/>
<path d="M711.24 119.00v-31.40" class="stroke"/>
<use x="724.94" y="116.00" xlink:href="#hd"/>
<path d="M728.44 116.00v-26.90" class="stroke"/>
<use x="742.94" y="122.00" xlink:href="#hd"/>
<use x="733.94" y="122.00" xlink:href="#sh0"/>
<path d="M746.44 122.00v-31.20" class="stroke"/>
<use x="770.04" y="98.00" xlink:href="#hd"/>
<path d="M766.54 98.00v40.00" class="stroke"/>
<use x="770.04" y="119.00" xlink:href="#hd"/>
<use x="770.04" y="113.00" xlink:href="#hd"/>
<use x="770.04" y="107.00" xlink:href="#hd"/>
<defs>
<path id="r8e" class="fill" d="m 0 0
	c-1.5 1.5 -2.4 2 -3.6 2
	2.4 -2.8 -2.8 -4 -2.8 -1.2
	c0 2.7 4.3 2.4 5.9 0.6"/>
<g id="r8">
	<path d="m3.3 -4l-3.4 9.6" class="stroke"/>
	<use x="3.4" y="-4" xlink:href="#r8e"/>
</g>
</defs>
<use x="829.54" y="113.00" xlink:href="#r8"/>
<defs>
<path id="ubclef" class="fill" d="m-200 -87
	c124 -35 222 -78 254 -236
	43 -228 -167 -246 -192 -103
	59 -80 157 22 92 78
	-62 47 -115 -22 -106 -88
	21 -141 270 -136 274 52
	-1 175 -106 264 -322 297
	m357 -250
	c0 -36 51 -34 51 0
	0 37 -51 36 -51 0
	m-2 -129
	c0 -36 51 -34 51 0
	0 38 -51 37 -51 0"/>
<use id="bclef" transform="translate(0,18) scale(0.045)"
	xlink:href="#ubclef"/>
</defs>
<use x="23.54" y="165.00" xlink:href="#bclef"/>
<g font-family="serif" font-size="16" font-weight="bold" font-style="normal"
	transform="translate(42.04,182.50) scale(1.2,1)">
	<text text-anchor="middle">8</text>
	<text y="-12" text-anchor="middle">3</text>
</g>
<use x="85.14" y="174.00" xlink:href="#hd"/>
<path d="M88.64 174.00v-21.00" class="stroke"/>
<use x="153.94" y="171.00" xlink:href="#r8"/>
<use x="198.14" y="174.00" xlink:href="#hd"/>
<path d="M201.64 174.00v-21.00" class="stroke"/>
<use x="246.74" y="171.00" xlink:href="#r8"/>
<use x="279.34" y="156.00" xlink:href="#hd"/>
<path d="M275.84 156.00v25.00" class="stroke"/>
<use x="279.34" y="162.00" xlink:href="#hd"/>
<use x="348.14" y="171.00" xlink:href="#r8"/>
<use x="392.34" y="168.00" xlink:href="#hd"/>
<path d="M388.84 168.00v25.00" class="stroke"/>
<use x="392.34" y="174.00" xlink:href="#hd"/>
<use x="451.04" y="171.00" xlink:href="#r8"/>
<use x="483.64" y="174.00" xlink:href="#hd"/>
<path d="M487.14 174.00v-21.00" class="stroke"/>
<use x="532.34" y="171.00" xlink:href="#r8"/>
<use x="564.94" y="177.00" xlink:href="#hd"/>
<path d="M568.44 177.00v-25.00" class="stroke"/>
<use x="564.94" y="171.00" xlink:href="#hd"/>
<use x="623.64" y="171.00" xlink:href="#r8"/>
<path class="fill"
	d="M659.34 147.60l69.50 8.30v3.20l-69.50 -8.30"/>
<use x="656.14" y="174.00" xlink:href="#hd"/>
<path d="M659.64 174.00v-25.30" class="stroke"/>
<use x="690.54" y="171.00" xlink:href="#hd"/>
<path d="M694.04 171.00v-18.20" class="stroke"/>
<use x="724.94" y="189.00" xlink:href="#hl"/>
<use x="724.94" y="192.00" xlink:href="#hd"/>
<path d="M728.44 192.00v-35.10" class="stroke"/>
<path class="fill"
	d="M766.14 202.20l77.40 0.00v-3.20l-77.40 -0.00"/>
<path class="fill"
	d="M790.84 197.20l52.40 0.00v-3.20l-52.40 -0.00"/>
<use x="770.04" y="183.00" xlink:href="#hd"/>
<path d="M766.54 183.00v18.20" class="stroke"/>
<use x="794.34" y="162.00" xlink:href="#hd"/>
<path d="M790.84 162.00v39.20" class="stroke"/>
<use x="812.34" y="165.00" xlink:href="#hd"/>
<defs>
<path id="unat" class="fill" d="
	m96 -750
	h-32
	v716
	l32 -8
	182 -54
	v282
	h32
	v-706
	l-34 10
	-180 50
	v-290
	m0 592
	v-190
	l182 -52
	v188"/>
<use id="nt0" transform="translate(-3,5) scale(0.018)"
	xlink:href="#unat"/>
</defs>
<use x="803.34" y="165.00" xlink:href="#nt0"/>
<path d="M808.84 165.00v36.20" class="stroke"/>
<use x="829.54" y="168.00" xlink:href="#hd"/>
<path d="M826.04 168.00v33.20" class="stroke"/>
<use x="846.74" y="171.00" xlink:href="#hd"/>
<path d="M843.24 171.00v30.20" class="stroke"/>
<defs>
<path id="turn" class="fill" d="
	m5.2 -8
	c1.4 0.5 0.9 4.8 -2.2 2.8
	l-4.8 -3.5
	c-3 -2 -5.8 1.8 -3.6 4.4
	1 1.1 2 0.8 2.1 -0.1
	0.1 -0.9 -0.7 -1.2 -1.9 -0.6
	-1.4 -0.5 -0.9 -4.8 2.2 -2.8
	l4.8 3.5
	c3 2 5.8 -1.8 3.6 -4.4
	-1 -1.1 -2 -0.8 -2.1 0.1
	-0.1 0.9 0.7 1.2 1.9 0.6"/>
</defs>
<use x="507.94" y="99.00" xlink:href="#turn"/>
</g>
<g stroke-width="0.70" transform="scale(0.867)" font-family="Times" font-size="13.00">
<path class="stroke" stroke-width="1"
	d="M11.54 316.00v-82.00"/>
<path class="fill"
	d="M6.54 231.00
	c10.5 1 12 -4.5 12 -3.5c0 1 -3.5 5.5 -8.5 5.5
	v84.00
	c5 0 8.5 4.5 8.5 5.5c0 1 -1.5 -4.5 -12 -3.5"/>
<use x="144.84" y="258.00" xlink:href="#rdots"/>
<path class="stroke" stroke-width="1"
	d="M140.84 258.00v-24.00"/>
<path class="stroke" stroke-width="3"
	d="M136.34 258.00v-24.00"/>
<use x="144.84" y="316.00" xlink:href="#rdots"/>
<path class="stroke" stroke-width="1"
	d="M140.84 316.00v-58.00"/>
<path class="stroke" stroke-width="3"
	d="M136.34 316.00v-58.00"/>
<path class="stroke" stroke-width="1"
	d="M252.54 258.00v-24.00"/>
<path class="stroke" stroke-width="1"
	d="M252.54 316.00v-58.00"/>
<path class="stroke" stroke-width="1"
	d="M333.34 258.00v-24.00"/>
<path class="stroke" stroke-width="1"
	d="M333.34 316.00v-58.00"/>
<path class="stroke" stroke-width="1"
	d="M404.84 258.00v-24.00"/>
<path class="stroke" stroke-width="1"
	d="M404.84 316.00v-58.00"/>
<path class="stroke" stroke-width="1"
	d="M485.44 258.00v-24.00"/>
<path class="stroke" stroke-width="1"
	d="M485.44 316.00v-58.00"/>
<path class="stroke" stroke-width="1"
	d="M585.94 258.00v-24.00"/>
<path class="stroke" stroke-width="1"
	d="M585.94 316.00v-58.00"/>
<path class="stroke" stroke-width="1"
	d="M686.34 258.00v-24.00"/>
<path class="stroke" stroke-width="1"
	d="M686.34 316.00v-58.00"/>
<path class="stroke" stroke-width="1"
	d="M786.84 258.00v-24.00"/>
<path class="stroke" stroke-width="1"
	d="M786.84 316.00v-58.00"/>
<path class="stroke" stroke-width="3"
	d="M860.54 258.00v-24.00"/>
<path class="stroke" stroke-width="1"
	d="M856.04 258.00v-24.00"/>
<use x="852.04" y="258.00" xlink:href="#rdots"/>
<path class="stroke" stroke-width="3"
	d="M860.54 316.00v-58.00"/>
<path class="stroke" stroke-width="1"
	d="M856.04 316.00v-58.00"/>
<use x="852.04" y="316.00" xlink:href="#rdots"/>
<path d="m11.54 258.00
	h850.50
	M11.54 252.00
	h850.50
	M11.54 246.00
	h850.50
	M11.54 240.00
	h850.50
	M11.54 234.00
	h850.50
	" class="stroke"/>
<path d="m11.54 316.00
	h850.50
	M11.54 310.00
	h850.50
	M11.54 304.00
	h850.50
	M11.54 298.00
	h850.50
	M11.54 292.00
	h850.50
	" class="stroke"/>
<path class="fill"
	d="M345.84 229.00c6.02 -5.79 32.20 -13.05 38.22 -10.60
	v-0.24c-7.17 -4.21 -31.06 3.05 -38.22 10.84"/>
<text x="47.54" y="219.40">2</text>
<path class="stroke"
	d="M43.54 208.00m0 20v-20h90.30v20"/>
<use x="23.54" y="252.00" xlink:href="#tclef"/>
<use x="56.04" y="231.00" xlink:href="#hd"/>
<path d="M52.54 231.00v40.00" class="stroke"/>
<use x="56.04" y="252.00" xlink:href="#hd"/>
<use x="56.04" y="246.00" xlink:href="#hd"/>
<use x="56.04" y="240.00" xlink:href="#hd"/>
<use x="110.24" y="246.00" xlink:href="#r8"/>
<path class="fill"
	d="M160.54 258.20l76.30 0.00v-3.20l-76.30 -0.00"/>
<path class="fill"
	d="M160.84 253.20l75.70 0.00v-3.20l-75.70 -0.00"/>
<use x="164.34" y="234.00" xlink:href="#hd"/>
<use x="155.34" y="234.00" xlink:href="#sh0"/>
<path d="M160.84 234.00v23.20" class="stroke"/>
<use x="179.44" y="228.00" xlink:href="#hl"/>
<use x="179.44" y="228.00" xlink:href="#hd"/>
<path d="M175.94 228.00v29.20" class="stroke"/>
<use x="194.64" y="228.00" xlink:href="#hl"/>
<use x="194.64" y="222.00" xlink:href="#hl"/>
<use x="194.64" y="219.00" xlink:href="#hd"/>
<path d="M191.14 219.00v38.20" class="stroke"/>
<use x="209.84" y="228.00" xlink:href="#hl"/>
<use x="209.84" y="228.00" xlink:href="#hd"/>
<path d="M206.34 228.00v29.20" class="stroke"/>
<use x="224.94" y="234.00" xlink:href="#hd"/>
<path d="M221.44 234.00v23.20" class="stroke"/>
<use x="240.04" y="228.00" xlink:href="#hl"/>
<use x="240.04" y="228.00" xlink:href="#hd"/>
<path d="M236.54 228.00v29.20" class="stroke"/>
<path class="fill"
	d="M261.14 262.60l52.00 8.60v-3.20l-52.00 -8.60"/>
<path class="fill"
	d="M282.64 261.20l15.10 2.50v-3.20l-15.10 -2.50"/>
<use x="265.04" y="231.00" xlink:href="#hd"/>
<path d="M261.54 231.00v30.70" class="stroke"/>
<use x="286.14" y="240.00" xlink:href="#hd"/>
<path d="M282.64 240.00v25.20" class="stroke"/>
<use x="301.24" y="246.00" xlink:href="#hd"/>
<path d="M297.74 246.00v21.70" class="stroke"/>
<use x="316.24" y="252.00" xlink:href="#hd"/>
<path d="M312.74 252.00v18.20" class="stroke"/>
<path class="fill"
	d="M342.04 256.30l42.90 -7.80v-3.20l-42.90 7.80"/>
<use x="345.84" y="237.00" xlink:href="#hd"/>
<path d="M342.34 237.00v18.20" class="stroke"/>
<use x="366.94" y="231.00" xlink:href="#hd"/>
<path d="M363.44 231.00v20.40" class="stroke"/>
<use x="388.04" y="228.00" xlink:href="#hl"/>
<use x="388.04" y="222.00" xlink:href="#hl"/>
<use x="388.04" y="222.00" xlink:href="#hd"/>
<path d="M384.54 222.00v25.50" class="stroke"/>
<path class="fill"
	d="M413.54 264.20l52.00 0.00v-3.20l-52.00 -0.00"/>
<path class="fill"
	d="M434.94 259.20l15.10 0.00v-3.20l-15.10 -0.00"/>
<use x="417.34" y="240.00" xlink:href="#hd"/>
<path d="M413.84 240.00v23.20" class="stroke"/>
<use x="417.34" y="246.00" xlink:href="#hd"/>
<use x="438.44" y="231.00" xlink:href="#hd"/>
<path d="M434.94 231.00v32.20" class="stroke"/>
<use x="453.54" y="228.00" xlink:href="#hl"/>
<use x="453.54" y="225.00" xlink:href="#hd"/>
<path d="M450.04 225.00v38.20" class="stroke"/>
<use x="468.64" y="240.00" xlink:href="#hd"/>
<path d="M465.14 240.00v23.20" class="stroke"/>
<path class="fill"
	d="M494.14 272.80l61.00 -3.30v-3.20l-61.00 3.30"/>
<use x="497.94" y="243.00" xlink:href="#hd"/>
<path d="M494.44 243.00v28.80" class="stroke"/>
<use x="528.14" y="252.00" xlink:href="#hd"/>
<path d="M524.64 252.00v18.20" class="stroke"/>
<use x="558.34" y="237.00" xlink:href="#hd"/>
<path d="M554.84 237.00v31.60" class="stroke"/>
<path class="fill"
	d="M594.54 260.60l61.00 3.30v-3.20l-61.00 -3.30"/>
<use x="598.44" y="231.00" xlink:href="#hd"/>
<path d="M594.94 231.00v28.60" class="stroke"/>
<use x="628.54" y="243.00" xlink:href="#hd"/>
<path d="M625.04 243.00v18.20" class="stroke"/>
<use x="658.74" y="237.00" xlink:href="#hd"/>
<path d="M655.24 237.00v25.80" class="stroke"/>
<path class="fill"
	d="M695.04 271.20l76.10 0.00v-3.20l-76.10 -0.00"/>
<path class="fill"
	d="M695.34 266.20l75.50 0.00v-3.20l-75.50 -0.00"/>
<use x="698.84" y="240.00" xlink:href="#hd"/>
<path d="M695.34 240.00v30.20" class="stroke"/>
<use x="713.94" y="234.00" xlink:href="#hd"/>
<path d="M710.44 234.00v36.20" class="stroke"/>
<use x="729.04" y="249.00" xlink:href="#hd"/>
<path d="M725.54 249.00v21.20" class="stroke"/>
<use x="744.14" y="240.00" xlink:href="#hd"/>
<path d="M740.64 240.00v30.20" class="stroke"/>
<use x="759.24" y="246.00" xlink:href="#hd"/>
<path d="M755.74 246.00v24.20" class="stroke"/>
<use x="774.34" y="240.00" xlink:href="#hd"/>
<path d="M770.84 240.00v30.20" class="stroke"/>
<use x="799.34" y="243.00" xlink:href="#hd"/>
<path d="M795.84 243.00v21.00" class="stroke"/>
<use x="841.54" y="246.00" xlink:href="#r8"/>
<use x="23.54" y="298.00" xlink:href="#bclef"/>
<path class="fill"
	d="M52.24 335.20l70.00 -5.10v-3.20l-70.00 5.10"/>
<path class="fill"
	d="M73.64 328.70l48.20 -3.50v-3.20l-48.20 3.50"/>
<use x="56.04" y="316.00" xlink:href="#hd"/>
<path d="M52.54 316.00v18.20" class="stroke"/>
<use x="77.14" y="289.00" xlink:href="#hd"/>
<path d="M73.64 289.00v43.70" class="stroke"/>
<use x="92.24" y="295.00" xlink:href="#hd"/>
<path d="M88.74 295.00v36.60" class="stroke"/>
<use x="110.24" y="298.00" xlink:href="#hd"/>
<use x="101.24" y="298.00" xlink:href="#sh0"/>
<path d="M106.74 298.00v32.30" class="stroke"/>
<use x="125.34" y="301.00" xlink:href="#hd"/>
<path d="M121.84 301.00v28.20" class="stroke"/>
<use x="164.34" y="292.00" xlink:href="#hd"/>
<path d="M160.84 292.00v34.00" class="stroke"/>
<use x="164.34" y="307.00" xlink:href="#hd"/>
<use x="224.94" y="292.00" xlink:href="#hd"/>
<path d="M221.44 292.00v34.00" class="stroke"/>
<path class="fill"
	d="M221.44 326.00c0.6 -5.6 9.6 -9 5.6 -18.4
	1.6 6 -1.3 11.6 -5.6 12.8
"/>
<use x="224.94" y="307.00" xlink:href="#hd"/>
<use x="265.04" y="310.00" xlink:href="#hd"/>
<path d="M268.54 310.00v-25.00" class="stroke"/>
<use x="265.04" y="304.00" xlink:href="#hd"/>
<use x="316.24" y="310.00" xlink:href="#hd"/>
<path d="M319.74 310.00v-25.00" class="stroke"/>
<path class="fill"
	d="M319.74 285.00c0.6 5.6 9.6 9 5.6 18.4
	1.6 -6 -1.3 -11.6 -5.6 -12.8
"/>
<use x="316.24" y="304.00" xlink:href="#hd"/>
<use x="345.84" y="295.00" xlink:href="#hd"/>
<path d="M342.34 295.00v31.00" class="stroke"/>
<use x="345.84" y="307.00" xlink:href="#hd"/>
<use x="388.04" y="301.00" xlink:href="#hd"/>
<path d="M384.54 301.00v25.00" class="stroke"/>
<path class="fill"
	d="M384.54 326.00c0.6 -5.6 9.6 -9 5.6 -18.4
	1.6 6 -1.3 11.6 -5.6 12.8
"/>
<use x="388.04" y="307.00" xlink:href="#hd"/>
<use x="417.34" y="316.00" xlink:href="#hd"/>
<path d="M420.84 316.00v-40.00" class="stroke"/>
<use x="417.34" y="295.00" xlink:href="#hd"/>
<use x="468.64" y="295.00" xlink:href="#hd"/>
<path d="M465.14 295.00v21.00" class="stroke"/>
<path class="fill"
	d="M465.14 316.00c0.6 -5.6 9.6 -9 5.6 -18.4
	1.6 6 -1.3 11.6 -5.6 12.8
"/>
<path class="fill"
	d="M494.14 323.90l76.10 0.00v-3.20l-76.10 -0.00"/>
<path class="fill"
	d="M494.44 318.90l75.50 0.00v-3.20l-75.50 -0.00"/>
<use x="497.94" y="301.00" xlink:href="#hd"/>
<path d="M494.44 301.00v21.90" class="stroke"/>
<use x="497.94" y="307.00" xlink:href="#hd"/>
<use x="513.04" y="295.00" xlink:href="#hd"/>
<path d="M509.54 295.00v27.90" class="stroke"/>
<use x="528.14" y="301.00" xlink:href="#hd"/>
<path d="M524.64 301.00v21.90" class="stroke"/>
<use x="528.14" y="307.00" xlink:href="#hd"/>
<use x="543.24" y="295.00" xlink:href="#hd"/>
<path d="M539.74 295.00v27.90" class="stroke"/>
<use x="558.34" y="301.00" xlink:href="#hd"/>
<path d="M554.84 301.00v21.90" class="stroke"/>
<use x="558.34" y="307.00" xlink:href="#hd"/>
<use x="573.44" y="295.00" xlink:href="#hd"/>
<path d="M569.94 295.00v27.90" class="stroke"/>
<path class="fill"
	d="M594.54 323.90l76.10 0.00v-3.20l-76.10 -0.00"/>
<path class="fill"
	d="M594.94 318.90l75.50 0.00v-3.20l-75.50 -0.00"/>
<use x="598.44" y="301.00" xlink:href="#hd"/>
<path d="M594.94 301.00v21.90" class="stroke"/>
<use x="598.44" y="307.00" xlink:href="#hd"/>
<use x="613.44" y="295.00" xlink:href="#hd"/>
<path d="M609.94 295.00v27.90" class="stroke"/>
<use x="628.54" y="301.00" xlink:href="#hd"/>
<path d="M625.04 301.00v21.90" class="stroke"/>
<use x="628.54" y="307.00" xlink:href="#hd"/>
<use x="643.64" y="295.00" xlink:href="#hd"/>
<path d="M640.14 295.00v27.90" class="stroke"/>
<use x="658.74" y="301.00" xlink:href="#hd"/>
<path d="M655.24 301.00v21.90" class="stroke"/>
<use x="658.74" y="307.00" xlink:href="#hd"/>
<use x="673.84" y="295.00" xlink:href="#hd"/>
<path d="M670.34 295.00v27.90" class="stroke"/>
<use x="698.84" y="298.00" xlink:href="#hd"/>
<path d="M695.34 298.00v21.00" class="stroke"/>
<use x="759.24" y="295.00" xlink:href="#hd"/>
<path d="M755.74 295.00v21.00" class="stroke"/>
<path class="fill"
	d="M755.74 316.00c0.6 -5.6 9.6 -9 5.6 -18.4
	1.6 6 -1.3 11.6 -5.6 12.8
"/>
<path class="fill"
	d="M802.44 287.70l42.90 9.90v3.20l-42.90 -9.90"/>
<use x="799.34" y="307.00" xlink:href="#hd"/>
<path d="M802.84 307.00v-18.20" class="stroke"/>
<use x="820.44" y="316.00" xlink:href="#hd"/>
<path d="M823.94 316.00v-22.30" class="stroke"/>
<use x="841.54" y="322.00" xlink:href="#hl"/>
<use x="841.54" y="328.00" xlink:href="#hl"/>
<use x="841.54" y="328.00" xlink:href="#hd"/>
<path d="M845.04 328.00v-29.50" class="stroke"/>
</g>
</svg>
