<?xml version="1.0" standalone="no"?>
<!DOCTYPE svg PUBLIC "-//W3C//DTD SVG 1.1//EN"
	"http://www.w3.org/Graphics/SVG/1.1/DTD/svg11.dtd">
<svg xmlns="http://www.w3.org/2000/svg" version="1.1"
	xmlns:xlink="http://www.w3.org/1999/xlink"
	color="black"
	width="757.10px" height="293.80px">
<style type="text/css">
.fill {fill: currentColor}
.stroke {stroke: currentColor; fill: none}
text{white-space: pre}
</style>
<title>./K516f-7-9-10-2-2-8-4-7-5-8-8-9-7-3-3-4.abc (3928) tune 1</title>
<!-- Creator: abcm2ps-8.13.8 -->
<!-- CreationDate: Sep  7, 2017 11:18 -->
<!-- CommandLine: ./K516f-7-9-10-2-2-8-4-7-5-8-8-9-7-3-3-4.abc -O ./K516f-7-9-10-2-2-8-4-7-5-8-8-9-7-3-3-4.svg -g -->
<rect width="100%" height="100%" fill="white"/>
<g stroke-width="0.70" transform="scale(0.867)">
<!-- title: 7-9-10-2-2-8-4-7-5-8-8-9-7-3-3-4 -->
</g>
<g stroke-width="0.70" transform="scale(0.867)" font-family="Times" font-size="20.00">
<text x="436.84" y="22.00" text-anchor="middle">7-9-10-2-2-8-4-7-5-8-8-9-7-3-3-4</text>
</g>
<g stroke-width="0.70" transform="scale(0.867)" font-family="Times" font-size="20.00">
<!-- subtitle: $1K.516f::104:84:42:41:105:133:110:91:90:155:57:166:101:18:116:79::$0 -->
</g>
<g stroke-width="0.70" transform="scale(0.867)" font-family="Courier" font-size="8.00" font-weight="bold">
<text x="436.84" y="41.80" text-anchor="middle">K.516f::104:84:42:41:105:133:110:91:90:155:57:166:101:18:116:79::</text>
</g>
<g stroke-width="0.70" transform="scale(0.867)" font-family="Courier" font-size="8.00" font-weight="bold">
<!-- subtitle: $1Perm. No.: 39284757657338$0 -->
<text x="436.84" y="60.80" text-anchor="middle">Perm. No.: 39284757657338</text>
</g>
<g stroke-width="0.70" transform="scale(0.607)" font-family="Courier" font-size="8.00" font-weight="bold">
<defs>
<ellipse id="hd" rx="4.1" ry="2.9"
	transform="rotate(-20)" class="fill"/>
</defs>
<use x="103.06" y="121.29" xlink:href="#hd"/>
<path d="M106.56 121.29v-21.00" class="stroke"/>
<path class="fill"
	d="M106.56 100.29c0.6 5.6 9.6 9 5.6 18.4
	1.6 -6 -1.3 -11.6 -5.6 -12.8
"/>
</g>
<g stroke-width="0.70" transform="scale(0.867)" font-family="Times" font-size="15.00" font-weight="bold">
<text x="81.24" y="87.00">= 111</text>
<path class="stroke" stroke-width="1"
	d="M11.54 183.00v-82.00"/>
<path class="fill"
	d="M6.54 98.00
	c10.5 1 12 -4.5 12 -3.5c0 1 -3.5 5.5 -8.5 5.5
	v84.00
	c5 0 8.5 4.5 8.5 5.5c0 1 -1.5 -4.5 -12 -3.5"/>
<defs>
<g id="rdots" class="fill">
	<circle cx="0" cy="-9" r="1.2"/>
	<circle cx="0" cy="-15" r="1.2"/>
</g>
</defs>
<use x="70.54" y="125.00" xlink:href="#rdots"/>
<path class="stroke" stroke-width="1"
	d="M66.54 125.00v-24.00"/>
<path class="stroke" stroke-width="3"
	d="M62.04 125.00v-24.00"/>
<use x="70.54" y="183.00" xlink:href="#rdots"/>
<path class="stroke" stroke-width="1"
	d="M66.54 183.00v-58.00"/>
<path class="stroke" stroke-width="3"
	d="M62.04 183.00v-58.00"/>
<path class="stroke" stroke-width="1"
	d="M173.64 125.00v-24.00"/>
<path class="stroke" stroke-width="1"
	d="M173.64 183.00v-58.00"/>
<path class="stroke" stroke-width="1"
	d="M275.64 125.00v-24.00"/>
<path class="stroke" stroke-width="1"
	d="M275.64 183.00v-58.00"/>
<path class="stroke" stroke-width="1"
	d="M377.74 125.00v-24.00"/>
<path class="stroke" stroke-width="1"
	d="M377.74 183.00v-58.00"/>
<path class="stroke" stroke-width="1"
	d="M468.94 125.00v-24.00"/>
<path class="stroke" stroke-width="1"
	d="M468.94 183.00v-58.00"/>
<path class="stroke" stroke-width="1"
	d="M567.74 125.00v-24.00"/>
<path class="stroke" stroke-width="1"
	d="M567.74 183.00v-58.00"/>
<path class="stroke" stroke-width="1"
	d="M660.54 125.00v-24.00"/>
<path class="stroke" stroke-width="1"
	d="M660.54 183.00v-58.00"/>
<path class="stroke" stroke-width="1"
	d="M765.24 125.00v-24.00"/>
<path class="stroke" stroke-width="1"
	d="M765.24 183.00v-58.00"/>
<path class="stroke" stroke-width="3"
	d="M860.54 125.00v-24.00"/>
<path class="stroke" stroke-width="1"
	d="M856.04 125.00v-24.00"/>
<use x="852.04" y="125.00" xlink:href="#rdots"/>
<path class="stroke" stroke-width="3"
	d="M860.54 183.00v-58.00"/>
<path class="stroke" stroke-width="1"
	d="M856.04 183.00v-58.00"/>
<use x="852.04" y="183.00" xlink:href="#rdots"/>
<path d="m11.54 125.00
	h850.50
	M11.54 119.00
	h850.50
	M11.54 113.00
	h850.50
	M11.54 107.00
	h850.50
	M11.54 101.00
	h850.50
	" class="stroke"/>
<path d="m11.54 183.00
	h850.50
	M11.54 177.00
	h850.50
	M11.54 171.00
	h850.50
	M11.54 165.00
	h850.50
	M11.54 159.00
	h850.50
	" class="stroke"/>
<path class="fill"
	d="M673.04 119.00c2.19 4.12 11.72 5.56 13.91 2.10
	v0.21c-2.61 5.24 -11.30 3.80 -13.91 -2.31"/>
<path class="fill"
	d="M703.94 122.00c2.19 4.12 11.72 5.56 13.91 2.10
	v0.21c-2.61 5.24 -11.30 3.80 -13.91 -2.31"/>
<path class="fill"
	d="M734.74 125.00c2.36 4.46 12.64 7.34 15.00 4.20
	v0.22c-2.81 4.93 -12.19 2.05 -15.00 -4.41"/>
</g>
<g stroke-width="0.70" transform="scale(0.867)" font-family="Times" font-size="13.00">
<text x="769.24" y="86.40">1</text>
<path class="stroke"
	d="M765.24 75.00m0 20v-20h88.80v20"/>
<defs>
<path id="utclef" class="fill" d="m-50 -90
	c-72 -41 -72 -158 52 -188
	150 -10 220 188 90 256
	-114 52 -275 0 -293 -136
	-15 -181 93 -229 220 -334
	88 -87 79 -133 62 -210
	-51 33 -94 105 -89 186
	17 267 36 374 49 574
	6 96 -19 134 -77 135
	-80 1 -126 -93 -61 -133
	85 -41 133 101 31 105
	23 17 92 37 90 -92
	-10 -223 -39 -342 -50 -617
	0 -90 0 -162 96 -232
	56 72 63 230 22 289
	-74 106 -257 168 -255 316
	9 153 148 185 252 133
	86 -65 29 -192 -80 -176
	-71 12 -105 67 -59 124"/>
<use id="tclef" transform="translate(0,6) scale(0.045)"
	xlink:href="#utclef"/>
</defs>
<use x="23.54" y="119.00" xlink:href="#tclef"/>
<g font-family="serif" font-size="16" font-weight="bold" font-style="normal"
	transform="translate(42.04,124.50) scale(1.2,1)">
	<text text-anchor="middle">8</text>
	<text y="-12" text-anchor="middle">3</text>
</g>
<path class="fill"
	d="M80.24 130.50l77.70 -6.30v-3.20l-77.70 6.30"/>
<path class="fill"
	d="M80.54 125.40l77.10 -6.20v-3.20l-77.10 6.20"/>
<use x="84.04" y="104.00" xlink:href="#hd"/>
<path d="M80.54 104.00v25.40" class="stroke"/>
<use x="99.44" y="107.00" xlink:href="#hd"/>
<path d="M95.94 107.00v21.20" class="stroke"/>
<use x="114.84" y="104.00" xlink:href="#hd"/>
<path d="M111.34 104.00v23.00" class="stroke"/>
<use x="130.24" y="98.00" xlink:href="#hd"/>
<path d="M126.74 98.00v27.70" class="stroke"/>
<defs>
<path id="hl" class="stroke" d="m-6 0h12"/>
</defs>
<use x="145.64" y="95.00" xlink:href="#hl"/>
<use x="145.64" y="89.00" xlink:href="#hl"/>
<use x="145.64" y="89.00" xlink:href="#hd"/>
<path d="M142.14 89.00v35.50" class="stroke"/>
<use x="161.14" y="98.00" xlink:href="#hd"/>
<path d="M157.64 98.00v25.20" class="stroke"/>
<path class="fill"
	d="M182.24 142.50l77.70 -6.30v-3.20l-77.70 6.30"/>
<path class="fill"
	d="M182.64 137.40l77.10 -6.20v-3.20l-77.10 6.20"/>
<use x="186.14" y="110.00" xlink:href="#hd"/>
<path d="M182.64 110.00v31.40" class="stroke"/>
<use x="201.54" y="119.00" xlink:href="#hd"/>
<path d="M198.04 119.00v21.20" class="stroke"/>
<use x="216.94" y="104.00" xlink:href="#hd"/>
<path d="M213.44 104.00v35.00" class="stroke"/>
<use x="232.34" y="110.00" xlink:href="#hd"/>
<path d="M228.84 110.00v27.70" class="stroke"/>
<use x="247.74" y="98.00" xlink:href="#hd"/>
<path d="M244.24 98.00v38.50" class="stroke"/>
<use x="263.14" y="104.00" xlink:href="#hd"/>
<path d="M259.64 104.00v31.20" class="stroke"/>
<path class="fill"
	d="M284.34 141.20l77.70 0.00v-3.20l-77.70 -0.00"/>
<path class="fill"
	d="M284.64 136.20l77.10 0.00v-3.20l-77.10 -0.00"/>
<use x="288.14" y="113.00" xlink:href="#hd"/>
<path d="M284.64 113.00v27.20" class="stroke"/>
<use x="303.54" y="110.00" xlink:href="#hd"/>
<path d="M300.04 110.00v30.20" class="stroke"/>
<use x="318.94" y="107.00" xlink:href="#hd"/>
<path d="M315.44 107.00v33.20" class="stroke"/>
<use x="334.34" y="113.00" xlink:href="#hd"/>
<path d="M330.84 113.00v27.20" class="stroke"/>
<use x="349.74" y="116.00" xlink:href="#hd"/>
<path d="M346.24 116.00v24.20" class="stroke"/>
<use x="365.24" y="119.00" xlink:href="#hd"/>
<path d="M361.74 119.00v21.20" class="stroke"/>
<path class="fill"
	d="M386.34 138.20l62.30 0.00v-3.20l-62.30 -0.00"/>
<path class="fill"
	d="M386.74 133.20l46.20 0.00v-3.20l-46.20 -0.00"/>
<use x="390.24" y="110.00" xlink:href="#hd"/>
<path d="M386.74 110.00v27.20" class="stroke"/>
<use x="405.64" y="113.00" xlink:href="#hd"/>
<path d="M402.14 113.00v24.20" class="stroke"/>
<use x="421.04" y="110.00" xlink:href="#hd"/>
<path d="M417.54 110.00v27.20" class="stroke"/>
<use x="436.44" y="104.00" xlink:href="#hd"/>
<path d="M432.94 104.00v33.20" class="stroke"/>
<use x="451.84" y="119.00" xlink:href="#hd"/>
<path d="M448.34 119.00v18.20" class="stroke"/>
<path class="fill"
	d="M483.64 127.00l68.50 0.00v-3.20l-68.50 -0.00"/>
<path class="fill"
	d="M505.54 122.00l46.20 0.00v-3.20l-46.20 -0.00"/>
<use x="487.44" y="101.00" xlink:href="#hd"/>
<defs>
<path id="usharp" class="fill" d="
	m136 -702
	v890
	h32
	v-890
	m128 840
	h32
	v-888
	h-32
	m-232 286
	v116
	l338 -96
	v-116
	m-338 442
	v116
	l338 -98
	v-114"/>
<use id="sh0" transform="translate(-4,5) scale(0.018)"
	xlink:href="#usharp"/>
</defs>
<use x="478.44" y="101.00" xlink:href="#sh0"/>
<path d="M483.94 101.00v25.00" class="stroke"/>
<use x="509.04" y="95.00" xlink:href="#hl"/>
<use x="509.04" y="95.00" xlink:href="#hd"/>
<path d="M505.54 95.00v31.00" class="stroke"/>
<use x="524.44" y="101.00" xlink:href="#hd"/>
<path d="M520.94 101.00v25.00" class="stroke"/>
<use x="539.84" y="107.00" xlink:href="#hd"/>
<path d="M536.34 107.00v19.00" class="stroke"/>
<use x="555.24" y="101.00" xlink:href="#hd"/>
<path d="M551.74 101.00v25.00" class="stroke"/>
<path class="fill"
	d="M576.44 135.20l68.50 0.00v-3.20l-68.50 -0.00"/>
<path class="fill"
	d="M598.34 130.20l46.20 0.00v-3.20l-46.20 -0.00"/>
<use x="580.24" y="107.00" xlink:href="#hd"/>
<path d="M576.74 107.00v27.20" class="stroke"/>
<use x="601.84" y="98.00" xlink:href="#hd"/>
<path d="M598.34 98.00v36.20" class="stroke"/>
<use x="617.24" y="107.00" xlink:href="#hd"/>
<path d="M613.74 107.00v27.20" class="stroke"/>
<use x="632.64" y="113.00" xlink:href="#hd"/>
<path d="M629.14 113.00v21.20" class="stroke"/>
<use x="648.04" y="107.00" xlink:href="#hd"/>
<path d="M644.54 107.00v27.20" class="stroke"/>
<path class="fill"
	d="M676.24 88.80l80.30 0.00v3.20l-80.30 -0.00"/>
<path class="fill"
	d="M676.54 93.80l79.60 0.00v3.20l-79.60 -0.00"/>
<use x="673.04" y="113.00" xlink:href="#hd"/>
<path d="M676.54 113.00v-23.20" class="stroke"/>
<use x="673.04" y="107.00" xlink:href="#hd"/>
<use x="688.54" y="116.00" xlink:href="#hd"/>
<path d="M692.04 116.00v-26.20" class="stroke"/>
<use x="688.54" y="110.00" xlink:href="#hd"/>
<use x="703.94" y="116.00" xlink:href="#hd"/>
<path d="M707.44 116.00v-26.20" class="stroke"/>
<use x="703.94" y="110.00" xlink:href="#hd"/>
<use x="719.34" y="119.00" xlink:href="#hd"/>
<path d="M722.84 119.00v-29.20" class="stroke"/>
<use x="719.34" y="113.00" xlink:href="#hd"/>
<use x="734.74" y="119.00" xlink:href="#hd"/>
<path d="M738.24 119.00v-29.20" class="stroke"/>
<use x="734.74" y="113.00" xlink:href="#hd"/>
<use x="752.74" y="122.00" xlink:href="#hd"/>
<use x="743.74" y="122.00" xlink:href="#sh0"/>
<path d="M756.24 122.00v-32.20" class="stroke"/>
<use x="752.74" y="116.00" xlink:href="#hd"/>
<use x="777.74" y="98.00" xlink:href="#hd"/>
<path d="M774.24 98.00v40.00" class="stroke"/>
<use x="777.74" y="119.00" xlink:href="#hd"/>
<use x="777.74" y="113.00" xlink:href="#hd"/>
<use x="777.74" y="107.00" xlink:href="#hd"/>
<defs>
<path id="r8e" class="fill" d="m 0 0
	c-1.5 1.5 -2.4 2 -3.6 2
	2.4 -2.8 -2.8 -4 -2.8 -1.2
	c0 2.7 4.3 2.4 5.9 0.6"/>
<g id="r8">
	<path d="m3.3 -4l-3.4 9.6" class="stroke"/>
	<use x="3.4" y="-4" xlink:href="#r8e"/>
</g>
</defs>
<use x="832.74" y="113.00" xlink:href="#r8"/>
<defs>
<path id="ubclef" class="fill" d="m-200 -87
	c124 -35 222 -78 254 -236
	43 -228 -167 -246 -192 -103
	59 -80 157 22 92 78
	-62 47 -115 -22 -106 -88
	21 -141 270 -136 274 52
	-1 175 -106 264 -322 297
	m357 -250
	c0 -36 51 -34 51 0
	0 37 -51 36 -51 0
	m-2 -129
	c0 -36 51 -34 51 0
	0 38 -51 37 -51 0"/>
<use id="bclef" transform="translate(0,18) scale(0.045)"
	xlink:href="#ubclef"/>
</defs>
<use x="23.54" y="165.00" xlink:href="#bclef"/>
<g font-family="serif" font-size="16" font-weight="bold" font-style="normal"
	transform="translate(42.04,182.50) scale(1.2,1)">
	<text text-anchor="middle">8</text>
	<text y="-12" text-anchor="middle">3</text>
</g>
<use x="84.04" y="174.00" xlink:href="#hd"/>
<path d="M87.54 174.00v-21.00" class="stroke"/>
<use x="145.64" y="171.00" xlink:href="#r8"/>
<use x="186.14" y="168.00" xlink:href="#hd"/>
<path d="M182.64 168.00v25.00" class="stroke"/>
<use x="186.14" y="174.00" xlink:href="#hd"/>
<use x="247.74" y="171.00" xlink:href="#r8"/>
<use x="288.14" y="183.00" xlink:href="#hd"/>
<path d="M291.64 183.00v-21.00" class="stroke"/>
<use x="349.74" y="171.00" xlink:href="#r8"/>
<use x="390.24" y="168.00" xlink:href="#hd"/>
<path d="M386.74 168.00v25.00" class="stroke"/>
<use x="390.24" y="174.00" xlink:href="#hd"/>
<use x="451.84" y="171.00" xlink:href="#r8"/>
<use x="487.44" y="174.00" xlink:href="#hd"/>
<path d="M490.94 174.00v-21.00" class="stroke"/>
<use x="539.84" y="171.00" xlink:href="#r8"/>
<use x="580.24" y="162.00" xlink:href="#hd"/>
<path d="M576.74 162.00v34.00" class="stroke"/>
<use x="580.24" y="177.00" xlink:href="#hd"/>
<use x="632.64" y="171.00" xlink:href="#r8"/>
<path class="fill"
	d="M676.24 147.80l62.30 8.10v3.20l-62.30 -8.10"/>
<use x="673.04" y="174.00" xlink:href="#hd"/>
<path d="M676.54 174.00v-25.20" class="stroke"/>
<use x="703.94" y="171.00" xlink:href="#hd"/>
<path d="M707.44 171.00v-18.20" class="stroke"/>
<use x="734.74" y="189.00" xlink:href="#hl"/>
<use x="734.74" y="192.00" xlink:href="#hd"/>
<path d="M738.24 192.00v-35.20" class="stroke"/>
<path class="fill"
	d="M773.84 202.20l71.10 0.00v-3.20l-71.10 -0.00"/>
<path class="fill"
	d="M795.84 197.20l48.80 0.00v-3.20l-48.80 -0.00"/>
<use x="777.74" y="183.00" xlink:href="#hd"/>
<path d="M774.24 183.00v18.20" class="stroke"/>
<use x="799.34" y="162.00" xlink:href="#hd"/>
<path d="M795.84 162.00v39.20" class="stroke"/>
<use x="817.34" y="165.00" xlink:href="#hd"/>
<defs>
<path id="unat" class="fill" d="
	m96 -750
	h-32
	v716
	l32 -8
	182 -54
	v282
	h32
	v-706
	l-34 10
	-180 50
	v-290
	m0 592
	v-190
	l182 -52
	v188"/>
<use id="nt0" transform="translate(-3,5) scale(0.018)"
	xlink:href="#unat"/>
</defs>
<use x="808.34" y="165.00" xlink:href="#nt0"/>
<path d="M813.84 165.00v36.20" class="stroke"/>
<use x="832.74" y="168.00" xlink:href="#hd"/>
<path d="M829.24 168.00v33.20" class="stroke"/>
<use x="848.14" y="171.00" xlink:href="#hd"/>
<path d="M844.64 171.00v30.20" class="stroke"/>
</g>
<g stroke-width="0.70" transform="scale(0.867)" font-family="Times" font-size="13.00">
<path class="stroke" stroke-width="1"
	d="M11.54 316.00v-82.00"/>
<path class="fill"
	d="M6.54 231.00
	c10.5 1 12 -4.5 12 -3.5c0 1 -3.5 5.5 -8.5 5.5
	v84.00
	c5 0 8.5 4.5 8.5 5.5c0 1 -1.5 -4.5 -12 -3.5"/>
<use x="142.34" y="258.00" xlink:href="#rdots"/>
<path class="stroke" stroke-width="1"
	d="M138.34 258.00v-24.00"/>
<path class="stroke" stroke-width="3"
	d="M133.84 258.00v-24.00"/>
<use x="142.34" y="316.00" xlink:href="#rdots"/>
<path class="stroke" stroke-width="1"
	d="M138.34 316.00v-58.00"/>
<path class="stroke" stroke-width="3"
	d="M133.84 316.00v-58.00"/>
<path class="stroke" stroke-width="1"
	d="M246.54 258.00v-24.00"/>
<path class="stroke" stroke-width="1"
	d="M246.54 316.00v-58.00"/>
<path class="stroke" stroke-width="1"
	d="M343.54 258.00v-24.00"/>
<path class="stroke" stroke-width="1"
	d="M343.54 316.00v-58.00"/>
<path class="stroke" stroke-width="1"
	d="M440.44 258.00v-24.00"/>
<path class="stroke" stroke-width="1"
	d="M440.44 316.00v-58.00"/>
<path class="stroke" stroke-width="1"
	d="M526.64 258.00v-24.00"/>
<path class="stroke" stroke-width="1"
	d="M526.64 316.00v-58.00"/>
<path class="stroke" stroke-width="1"
	d="M623.54 258.00v-24.00"/>
<path class="stroke" stroke-width="1"
	d="M623.54 316.00v-58.00"/>
<path class="stroke" stroke-width="1"
	d="M692.14 258.00v-24.00"/>
<path class="stroke" stroke-width="1"
	d="M692.14 316.00v-58.00"/>
<path class="stroke" stroke-width="1"
	d="M789.04 258.00v-24.00"/>
<path class="stroke" stroke-width="1"
	d="M789.04 316.00v-58.00"/>
<path class="stroke" stroke-width="3"
	d="M860.54 258.00v-24.00"/>
<path class="stroke" stroke-width="1"
	d="M856.04 258.00v-24.00"/>
<use x="852.04" y="258.00" xlink:href="#rdots"/>
<path class="stroke" stroke-width="3"
	d="M860.54 316.00v-58.00"/>
<path class="stroke" stroke-width="1"
	d="M856.04 316.00v-58.00"/>
<use x="852.04" y="316.00" xlink:href="#rdots"/>
<path d="m11.54 258.00
	h850.50
	M11.54 252.00
	h850.50
	M11.54 246.00
	h850.50
	M11.54 240.00
	h850.50
	M11.54 234.00
	h850.50
	" class="stroke"/>
<path d="m11.54 316.00
	h850.50
	M11.54 310.00
	h850.50
	M11.54 304.00
	h850.50
	M11.54 298.00
	h850.50
	M11.54 292.00
	h850.50
	" class="stroke"/>
<path class="fill"
	d="M636.04 241.00c5.66 -5.28 30.29 -10.49 35.95 -7.60
	v-0.24c-6.74 -4.65 -29.21 0.55 -35.95 7.84"/>
<text x="47.54" y="219.40">2</text>
<path class="stroke"
	d="M43.54 208.00m0 20v-20h87.80v20"/>
<use x="23.54" y="252.00" xlink:href="#tclef"/>
<use x="56.04" y="231.00" xlink:href="#hd"/>
<path d="M52.54 231.00v40.00" class="stroke"/>
<use x="56.04" y="252.00" xlink:href="#hd"/>
<use x="56.04" y="246.00" xlink:href="#hd"/>
<use x="56.04" y="240.00" xlink:href="#hd"/>
<use x="108.44" y="246.00" xlink:href="#r8"/>
<path class="fill"
	d="M157.94 258.20l72.90 0.00v-3.20l-72.90 -0.00"/>
<path class="fill"
	d="M158.34 253.20l72.30 0.00v-3.20l-72.30 -0.00"/>
<use x="161.84" y="234.00" xlink:href="#hd"/>
<use x="152.84" y="234.00" xlink:href="#sh0"/>
<path d="M158.34 234.00v23.20" class="stroke"/>
<use x="176.14" y="228.00" xlink:href="#hl"/>
<use x="176.14" y="228.00" xlink:href="#hd"/>
<path d="M172.64 228.00v29.20" class="stroke"/>
<use x="190.74" y="228.00" xlink:href="#hl"/>
<use x="190.74" y="222.00" xlink:href="#hl"/>
<use x="190.74" y="219.00" xlink:href="#hd"/>
<path d="M187.24 219.00v38.20" class="stroke"/>
<use x="205.24" y="228.00" xlink:href="#hl"/>
<use x="205.24" y="228.00" xlink:href="#hd"/>
<path d="M201.74 228.00v29.20" class="stroke"/>
<use x="219.64" y="234.00" xlink:href="#hd"/>
<path d="M216.14 234.00v23.20" class="stroke"/>
<use x="234.04" y="228.00" xlink:href="#hl"/>
<use x="234.04" y="228.00" xlink:href="#hd"/>
<path d="M230.54 228.00v29.20" class="stroke"/>
<path class="fill"
	d="M255.24 263.50l72.60 10.80v-3.20l-72.60 -10.80"/>
<path class="fill"
	d="M255.54 258.50l72.00 10.70v-3.20l-72.00 -10.70"/>
<use x="259.04" y="231.00" xlink:href="#hd"/>
<path d="M255.54 231.00v31.50" class="stroke"/>
<use x="273.44" y="228.00" xlink:href="#hl"/>
<use x="273.44" y="225.00" xlink:href="#hd"/>
<path d="M269.94 225.00v39.70" class="stroke"/>
<use x="287.84" y="231.00" xlink:href="#hd"/>
<path d="M284.34 231.00v35.80" class="stroke"/>
<use x="302.24" y="240.00" xlink:href="#hd"/>
<path d="M298.74 240.00v28.90" class="stroke"/>
<use x="316.64" y="246.00" xlink:href="#hd"/>
<path d="M313.14 246.00v25.10" class="stroke"/>
<use x="331.04" y="252.00" xlink:href="#hd"/>
<path d="M327.54 252.00v21.20" class="stroke"/>
<path class="fill"
	d="M352.14 264.30l58.20 6.90v-3.20l-58.20 -6.90"/>
<use x="356.04" y="237.00" xlink:href="#hd"/>
<path d="M352.54 237.00v26.30" class="stroke"/>
<use x="384.74" y="243.00" xlink:href="#hd"/>
<path d="M381.24 243.00v23.80" class="stroke"/>
<use x="413.54" y="252.00" xlink:href="#hd"/>
<path d="M410.04 252.00v18.20" class="stroke"/>
<path class="fill"
	d="M449.14 262.20l58.20 5.40v-3.20l-58.20 -5.40"/>
<path class="fill"
	d="M449.44 257.20l43.20 4.00v-3.20l-43.20 -4.00"/>
<use x="452.94" y="240.00" xlink:href="#hd"/>
<path d="M449.44 240.00v21.20" class="stroke"/>
<use x="467.34" y="228.00" xlink:href="#hl"/>
<use x="467.34" y="225.00" xlink:href="#hd"/>
<path d="M463.84 225.00v37.50" class="stroke"/>
<use x="481.74" y="231.00" xlink:href="#hd"/>
<path d="M478.24 231.00v32.80" class="stroke"/>
<use x="496.14" y="240.00" xlink:href="#hd"/>
<path d="M492.64 240.00v25.20" class="stroke"/>
<use x="510.54" y="246.00" xlink:href="#hd"/>
<path d="M507.04 246.00v20.50" class="stroke"/>
<path class="fill"
	d="M535.24 263.50l72.60 -6.20v-3.20l-72.60 6.20"/>
<path class="fill"
	d="M535.64 258.40l72.00 -6.20v-3.20l-72.00 6.20"/>
<use x="539.14" y="237.00" xlink:href="#hd"/>
<path d="M535.64 237.00v25.40" class="stroke"/>
<use x="553.54" y="240.00" xlink:href="#hd"/>
<path d="M550.04 240.00v21.20" class="stroke"/>
<use x="567.94" y="237.00" xlink:href="#hd"/>
<path d="M564.44 237.00v23.00" class="stroke"/>
<use x="582.34" y="231.00" xlink:href="#hd"/>
<path d="M578.84 231.00v27.70" class="stroke"/>
<use x="596.64" y="228.00" xlink:href="#hl"/>
<use x="596.64" y="222.00" xlink:href="#hl"/>
<use x="596.64" y="222.00" xlink:href="#hd"/>
<path d="M593.14 222.00v35.50" class="stroke"/>
<use x="611.04" y="231.00" xlink:href="#hd"/>
<path d="M607.54 231.00v25.30" class="stroke"/>
<path class="fill"
	d="M632.24 271.30l40.60 -6.30v-3.20l-40.60 6.30"/>
<use x="636.04" y="252.00" xlink:href="#hd"/>
<path d="M632.54 252.00v18.20" class="stroke"/>
<use x="656.04" y="243.00" xlink:href="#hd"/>
<path d="M652.54 243.00v24.10" class="stroke"/>
<use x="676.04" y="237.00" xlink:href="#hd"/>
<path d="M672.54 237.00v27.00" class="stroke"/>
<path class="fill"
	d="M700.84 266.00l72.60 0.00v-3.20l-72.60 -0.00"/>
<path class="fill"
	d="M701.14 261.00l72.00 0.00v-3.20l-72.00 -0.00"/>
<use x="704.64" y="240.00" xlink:href="#hd"/>
<path d="M701.14 240.00v24.90" class="stroke"/>
<use x="719.04" y="234.00" xlink:href="#hd"/>
<path d="M715.54 234.00v30.90" class="stroke"/>
<use x="733.44" y="228.00" xlink:href="#hl"/>
<use x="733.44" y="228.00" xlink:href="#hd"/>
<path d="M729.94 228.00v36.90" class="stroke"/>
<use x="747.84" y="234.00" xlink:href="#hd"/>
<path d="M744.34 234.00v30.90" class="stroke"/>
<use x="762.24" y="240.00" xlink:href="#hd"/>
<path d="M758.74 240.00v24.90" class="stroke"/>
<use x="776.54" y="246.00" xlink:href="#hd"/>
<path d="M773.04 246.00v18.90" class="stroke"/>
<use x="801.54" y="243.00" xlink:href="#hd"/>
<path d="M798.04 243.00v21.00" class="stroke"/>
<use x="841.54" y="246.00" xlink:href="#r8"/>
<use x="23.54" y="298.00" xlink:href="#bclef"/>
<path class="fill"
	d="M52.24 335.20l67.40 -4.90v-3.20l-67.40 4.90"/>
<path class="fill"
	d="M72.54 328.70l46.80 -3.40v-3.20l-46.80 3.40"/>
<use x="56.04" y="316.00" xlink:href="#hd"/>
<path d="M52.54 316.00v18.20" class="stroke"/>
<use x="76.04" y="289.00" xlink:href="#hd"/>
<path d="M72.54 289.00v43.70" class="stroke"/>
<use x="90.44" y="295.00" xlink:href="#hd"/>
<path d="M86.94 295.00v36.70" class="stroke"/>
<use x="108.44" y="298.00" xlink:href="#hd"/>
<use x="99.44" y="298.00" xlink:href="#sh0"/>
<path d="M104.94 298.00v32.40" class="stroke"/>
<use x="122.84" y="301.00" xlink:href="#hd"/>
<path d="M119.34 301.00v28.30" class="stroke"/>
<use x="161.84" y="292.00" xlink:href="#hd"/>
<path d="M158.34 292.00v34.00" class="stroke"/>
<use x="161.84" y="307.00" xlink:href="#hd"/>
<use x="219.64" y="292.00" xlink:href="#hd"/>
<path d="M216.14 292.00v34.00" class="stroke"/>
<path class="fill"
	d="M216.14 326.00c0.6 -5.6 9.6 -9 5.6 -18.4
	1.6 6 -1.3 11.6 -5.6 12.8
"/>
<use x="219.64" y="307.00" xlink:href="#hd"/>
<use x="259.04" y="310.00" xlink:href="#hd"/>
<path d="M262.54 310.00v-25.00" class="stroke"/>
<use x="259.04" y="304.00" xlink:href="#hd"/>
<use x="316.64" y="304.00" xlink:href="#r8"/>
<path class="fill"
	d="M352.14 323.90l72.60 0.00v-3.20l-72.60 -0.00"/>
<path class="fill"
	d="M352.54 318.90l72.00 0.00v-3.20l-72.00 -0.00"/>
<use x="356.04" y="301.00" xlink:href="#hd"/>
<path d="M352.54 301.00v21.90" class="stroke"/>
<use x="356.04" y="307.00" xlink:href="#hd"/>
<use x="370.44" y="295.00" xlink:href="#hd"/>
<path d="M366.94 295.00v27.90" class="stroke"/>
<use x="384.74" y="301.00" xlink:href="#hd"/>
<path d="M381.24 301.00v21.90" class="stroke"/>
<use x="384.74" y="307.00" xlink:href="#hd"/>
<use x="399.14" y="295.00" xlink:href="#hd"/>
<path d="M395.64 295.00v27.90" class="stroke"/>
<use x="413.54" y="301.00" xlink:href="#hd"/>
<path d="M410.04 301.00v21.90" class="stroke"/>
<use x="413.54" y="307.00" xlink:href="#hd"/>
<use x="427.94" y="295.00" xlink:href="#hd"/>
<path d="M424.44 295.00v27.90" class="stroke"/>
<use x="452.94" y="289.00" xlink:href="#hd"/>
<path d="M449.44 289.00v25.00" class="stroke"/>
<use x="452.94" y="295.00" xlink:href="#hd"/>
<use x="510.54" y="304.00" xlink:href="#r8"/>
<use x="539.14" y="295.00" xlink:href="#hd"/>
<path d="M542.64 295.00v-21.00" class="stroke"/>
<use x="596.64" y="301.00" xlink:href="#hd"/>
<path d="M600.14 301.00v-21.00" class="stroke"/>
<path class="fill"
	d="M600.14 280.00c0.6 5.6 9.6 9 5.6 18.4
	1.6 -6 -1.3 -11.6 -5.6 -12.8
"/>
<use x="636.04" y="301.00" xlink:href="#hd"/>
<path d="M632.54 301.00v25.00" class="stroke"/>
<use x="636.04" y="307.00" xlink:href="#hd"/>
<use x="676.04" y="295.00" xlink:href="#hd"/>
<path d="M672.54 295.00v31.00" class="stroke"/>
<path class="fill"
	d="M672.54 326.00c0.6 -5.6 9.6 -9 5.6 -18.4
	1.6 6 -1.3 11.6 -5.6 12.8
"/>
<use x="676.04" y="307.00" xlink:href="#hd"/>
<use x="704.64" y="298.00" xlink:href="#hd"/>
<path d="M701.14 298.00v21.00" class="stroke"/>
<use x="762.24" y="295.00" xlink:href="#hd"/>
<path d="M758.74 295.00v21.00" class="stroke"/>
<path class="fill"
	d="M758.74 316.00c0.6 -5.6 9.6 -9 5.6 -18.4
	1.6 6 -1.3 11.6 -5.6 12.8
"/>
<path class="fill"
	d="M804.74 287.70l40.60 9.60v3.20l-40.60 -9.60"/>
<use x="801.54" y="307.00" xlink:href="#hd"/>
<path d="M805.04 307.00v-18.20" class="stroke"/>
<use x="821.54" y="316.00" xlink:href="#hd"/>
<path d="M825.04 316.00v-22.50" class="stroke"/>
<use x="841.54" y="322.00" xlink:href="#hl"/>
<use x="841.54" y="328.00" xlink:href="#hl"/>
<use x="841.54" y="328.00" xlink:href="#hd"/>
<path d="M845.04 328.00v-29.70" class="stroke"/>
<use x="539.14" y="307.00" xlink:href="#hd"/>
<path d="M535.64 307.00v21.00" class="stroke"/>
<use x="596.64" y="307.00" xlink:href="#hd"/>
<path d="M593.14 307.00v21.00" class="stroke"/>
<path class="fill"
	d="M593.14 328.00c0.6 -5.6 9.6 -9 5.6 -18.4
	1.6 6 -1.3 11.6 -5.6 12.8
"/>
</g>
</svg>
