<?xml version="1.0" standalone="no"?>
<!DOCTYPE svg PUBLIC "-//W3C//DTD SVG 1.1//EN"
	"http://www.w3.org/Graphics/SVG/1.1/DTD/svg11.dtd">
<svg xmlns="http://www.w3.org/2000/svg" version="1.1"
	xmlns:xlink="http://www.w3.org/1999/xlink"
	color="black"
	width="757.10px" height="293.80px">
<style type="text/css">
.fill {fill: currentColor}
.stroke {stroke: currentColor; fill: none}
text{white-space: pre}
</style>
<title>./K516f-11-12-3-7-12-5-6-10-11-6-9-7-3-9-12-4.abc (3676) tune 1</title>
<!-- Creator: abcm2ps-8.13.8 -->
<!-- CreationDate: Sep  7, 2017 11:20 -->
<!-- CommandLine: ./K516f-11-12-3-7-12-5-6-10-11-6-9-7-3-9-12-4.abc -O ./K516f-11-12-3-7-12-5-6-10-11-6-9-7-3-9-12-4.svg -g -->
<rect width="100%" height="100%" fill="white"/>
<g stroke-width="0.70" transform="scale(0.867)">
<!-- title: 11-12-3-7-12-5-6-10-11-6-9-7-3-9-12-4 -->
</g>
<g stroke-width="0.70" transform="scale(0.867)" font-family="Times" font-size="20.00">
<text x="436.84" y="22.00" text-anchor="middle">11-12-3-7-12-5-6-10-11-6-9-7-3-9-12-4</text>
</g>
<g stroke-width="0.70" transform="scale(0.867)" font-family="Times" font-size="20.00">
<!-- subtitle: $1K.516f::3:130:128:167:28:2:36:123:102:143:48:29:174:115:44:79::$0 -->
</g>
<g stroke-width="0.70" transform="scale(0.867)" font-family="Courier" font-size="8.00" font-weight="bold">
<text x="436.84" y="41.80" text-anchor="middle">K.516f::3:130:128:167:28:2:36:123:102:143:48:29:174:115:44:79::</text>
</g>
<g stroke-width="0.70" transform="scale(0.867)" font-family="Courier" font-size="8.00" font-weight="bold">
<!-- subtitle: $1Perm. No.: 367628665046576$0 -->
<text x="436.84" y="60.80" text-anchor="middle">Perm. No.: 367628665046576</text>
</g>
<g stroke-width="0.70" transform="scale(0.607)" font-family="Courier" font-size="8.00" font-weight="bold">
<defs>
<ellipse id="hd" rx="4.1" ry="2.9"
	transform="rotate(-20)" class="fill"/>
</defs>
<use x="103.06" y="121.29" xlink:href="#hd"/>
<path d="M106.56 121.29v-21.00" class="stroke"/>
<path class="fill"
	d="M106.56 100.29c0.6 5.6 9.6 9 5.6 18.4
	1.6 -6 -1.3 -11.6 -5.6 -12.8
"/>
</g>
<g stroke-width="0.70" transform="scale(0.867)" font-family="Times" font-size="15.00" font-weight="bold">
<text x="81.24" y="87.00">= 111</text>
<path class="stroke" stroke-width="1"
	d="M11.54 183.00v-82.00"/>
<path class="fill"
	d="M6.54 98.00
	c10.5 1 12 -4.5 12 -3.5c0 1 -3.5 5.5 -8.5 5.5
	v84.00
	c5 0 8.5 4.5 8.5 5.5c0 1 -1.5 -4.5 -12 -3.5"/>
<defs>
<g id="rdots" class="fill">
	<circle cx="0" cy="-9" r="1.2"/>
	<circle cx="0" cy="-15" r="1.2"/>
</g>
</defs>
<use x="70.54" y="125.00" xlink:href="#rdots"/>
<path class="stroke" stroke-width="1"
	d="M66.54 125.00v-24.00"/>
<path class="stroke" stroke-width="3"
	d="M62.04 125.00v-24.00"/>
<use x="70.54" y="183.00" xlink:href="#rdots"/>
<path class="stroke" stroke-width="1"
	d="M66.54 183.00v-58.00"/>
<path class="stroke" stroke-width="3"
	d="M62.04 183.00v-58.00"/>
<path class="stroke" stroke-width="1"
	d="M154.44 125.00v-24.00"/>
<path class="stroke" stroke-width="1"
	d="M154.44 183.00v-58.00"/>
<path class="stroke" stroke-width="1"
	d="M237.34 125.00v-24.00"/>
<path class="stroke" stroke-width="1"
	d="M237.34 183.00v-58.00"/>
<path class="stroke" stroke-width="1"
	d="M320.24 125.00v-24.00"/>
<path class="stroke" stroke-width="1"
	d="M320.24 183.00v-58.00"/>
<path class="stroke" stroke-width="1"
	d="M413.44 125.00v-24.00"/>
<path class="stroke" stroke-width="1"
	d="M413.44 183.00v-58.00"/>
<path class="stroke" stroke-width="1"
	d="M533.54 125.00v-24.00"/>
<path class="stroke" stroke-width="1"
	d="M533.54 183.00v-58.00"/>
<path class="stroke" stroke-width="1"
	d="M638.74 125.00v-24.00"/>
<path class="stroke" stroke-width="1"
	d="M638.74 183.00v-58.00"/>
<path class="stroke" stroke-width="1"
	d="M754.54 125.00v-24.00"/>
<path class="stroke" stroke-width="1"
	d="M754.54 183.00v-58.00"/>
<path class="stroke" stroke-width="3"
	d="M860.54 125.00v-24.00"/>
<path class="stroke" stroke-width="1"
	d="M856.04 125.00v-24.00"/>
<use x="852.04" y="125.00" xlink:href="#rdots"/>
<path class="stroke" stroke-width="3"
	d="M860.54 183.00v-58.00"/>
<path class="stroke" stroke-width="1"
	d="M856.04 183.00v-58.00"/>
<use x="852.04" y="183.00" xlink:href="#rdots"/>
<path d="m11.54 125.00
	h850.50
	M11.54 119.00
	h850.50
	M11.54 113.00
	h850.50
	M11.54 107.00
	h850.50
	M11.54 101.00
	h850.50
	" class="stroke"/>
<path d="m11.54 183.00
	h850.50
	M11.54 177.00
	h850.50
	M11.54 171.00
	h850.50
	M11.54 165.00
	h850.50
	M11.54 159.00
	h850.50
	" class="stroke"/>
</g>
<g stroke-width="0.70" transform="scale(0.867)" font-family="Times" font-size="13.00">
<text x="758.54" y="86.40">1</text>
<path class="stroke"
	d="M754.54 75.00m0 20v-20h99.50v20"/>
<defs>
<path id="utclef" class="fill" d="m-50 -90
	c-72 -41 -72 -158 52 -188
	150 -10 220 188 90 256
	-114 52 -275 0 -293 -136
	-15 -181 93 -229 220 -334
	88 -87 79 -133 62 -210
	-51 33 -94 105 -89 186
	17 267 36 374 49 574
	6 96 -19 134 -77 135
	-80 1 -126 -93 -61 -133
	85 -41 133 101 31 105
	23 17 92 37 90 -92
	-10 -223 -39 -342 -50 -617
	0 -90 0 -162 96 -232
	56 72 63 230 22 289
	-74 106 -257 168 -255 316
	9 153 148 185 252 133
	86 -65 29 -192 -80 -176
	-71 12 -105 67 -59 124"/>
<use id="tclef" transform="translate(0,6) scale(0.045)"
	xlink:href="#utclef"/>
</defs>
<use x="23.54" y="119.00" xlink:href="#tclef"/>
<g font-family="serif" font-size="16" font-weight="bold" font-style="normal"
	transform="translate(42.04,124.50) scale(1.2,1)">
	<text text-anchor="middle">8</text>
	<text y="-12" text-anchor="middle">3</text>
</g>
<path class="fill"
	d="M81.54 127.60l50.40 3.20v-3.20l-50.40 -3.20"/>
<use x="85.44" y="98.00" xlink:href="#hd"/>
<path d="M81.94 98.00v28.60" class="stroke"/>
<use x="110.24" y="110.00" xlink:href="#hd"/>
<path d="M106.74 110.00v18.20" class="stroke"/>
<use x="135.04" y="104.00" xlink:href="#hd"/>
<path d="M131.54 104.00v25.80" class="stroke"/>
<path class="fill"
	d="M171.44 91.00l50.40 0.00v3.20l-50.40 -0.00"/>
<use x="168.24" y="125.00" xlink:href="#hd"/>
<path d="M171.74 125.00v-33.00" class="stroke"/>
<use x="168.24" y="110.00" xlink:href="#hd"/>
<use x="193.14" y="125.00" xlink:href="#hd"/>
<path d="M196.64 125.00v-33.00" class="stroke"/>
<use x="193.14" y="110.00" xlink:href="#hd"/>
<use x="217.94" y="125.00" xlink:href="#hd"/>
<path d="M221.44 125.00v-33.00" class="stroke"/>
<use x="217.94" y="110.00" xlink:href="#hd"/>
<path class="fill"
	d="M247.34 132.20l50.40 -6.70v-3.20l-50.40 6.70"/>
<use x="251.14" y="113.00" xlink:href="#hd"/>
<path d="M247.64 113.00v18.20" class="stroke"/>
<use x="276.04" y="107.00" xlink:href="#hd"/>
<path d="M272.54 107.00v20.90" class="stroke"/>
<use x="300.84" y="98.00" xlink:href="#hd"/>
<path d="M297.34 98.00v26.60" class="stroke"/>
<path class="fill"
	d="M330.24 133.00l60.70 0.00v-3.20l-60.70 -0.00"/>
<path class="fill"
	d="M355.44 128.00l17.60 0.00v-3.20l-17.60 -0.00"/>
<use x="334.04" y="110.00" xlink:href="#hd"/>
<path d="M330.54 110.00v21.90" class="stroke"/>
<use x="358.94" y="110.00" xlink:href="#hd"/>
<path d="M355.44 110.00v21.90" class="stroke"/>
<use x="376.54" y="107.00" xlink:href="#hd"/>
<path d="M373.04 107.00v24.90" class="stroke"/>
<use x="394.04" y="104.00" xlink:href="#hd"/>
<path d="M390.54 104.00v27.90" class="stroke"/>
<path class="fill"
	d="M428.04 138.20l88.50 0.00v-3.20l-88.50 -0.00"/>
<path class="fill"
	d="M428.44 133.20l87.90 0.00v-3.20l-87.90 -0.00"/>
<use x="431.94" y="101.00" xlink:href="#hd"/>
<defs>
<path id="usharp" class="fill" d="
	m136 -702
	v890
	h32
	v-890
	m128 840
	h32
	v-888
	h-32
	m-232 286
	v116
	l338 -96
	v-116
	m-338 442
	v116
	l338 -98
	v-114"/>
<use id="sh0" transform="translate(-4,5) scale(0.018)"
	xlink:href="#usharp"/>
</defs>
<use x="422.94" y="101.00" xlink:href="#sh0"/>
<path d="M428.44 101.00v36.20" class="stroke"/>
<use x="449.54" y="107.00" xlink:href="#hd"/>
<path d="M446.04 107.00v30.20" class="stroke"/>
<use x="467.04" y="116.00" xlink:href="#hd"/>
<path d="M463.54 116.00v21.20" class="stroke"/>
<defs>
<path id="hl" class="stroke" d="m-6 0h12"/>
</defs>
<use x="484.64" y="95.00" xlink:href="#hl"/>
<use x="484.64" y="95.00" xlink:href="#hd"/>
<path d="M481.14 95.00v42.20" class="stroke"/>
<use x="502.24" y="101.00" xlink:href="#hd"/>
<path d="M498.74 101.00v36.20" class="stroke"/>
<use x="519.84" y="107.00" xlink:href="#hd"/>
<path d="M516.34 107.00v30.20" class="stroke"/>
<path class="fill"
	d="M550.54 85.40l78.30 -7.60v3.20l-78.30 7.60"/>
<path class="fill"
	d="M575.74 87.90l52.70 -5.10v3.20l-52.70 5.10"/>
<use x="547.34" y="116.00" xlink:href="#hd"/>
<path d="M550.84 116.00v-29.60" class="stroke"/>
<use x="572.24" y="122.00" xlink:href="#hd"/>
<use x="563.24" y="122.00" xlink:href="#sh0"/>
<path d="M575.74 122.00v-38.10" class="stroke"/>
<use x="589.84" y="119.00" xlink:href="#hd"/>
<path d="M593.34 119.00v-36.80" class="stroke"/>
<use x="607.44" y="113.00" xlink:href="#hd"/>
<path d="M610.94 113.00v-32.50" class="stroke"/>
<use x="624.94" y="98.00" xlink:href="#hd"/>
<path d="M628.44 98.00v-19.20" class="stroke"/>
<path class="fill"
	d="M648.74 138.20l89.00 -8.60v-3.20l-89.00 8.60"/>
<path class="fill"
	d="M649.04 133.20l88.30 -8.50v-3.20l-88.30 8.50"/>
<use x="652.54" y="116.00" xlink:href="#hd"/>
<path d="M649.04 116.00v21.20" class="stroke"/>
<use x="670.14" y="104.00" xlink:href="#hd"/>
<path d="M666.64 104.00v31.50" class="stroke"/>
<use x="687.74" y="107.00" xlink:href="#hd"/>
<path d="M684.24 107.00v26.80" class="stroke"/>
<use x="705.24" y="98.00" xlink:href="#hd"/>
<path d="M701.74 98.00v34.10" class="stroke"/>
<use x="723.24" y="101.00" xlink:href="#hd"/>
<use x="714.24" y="101.00" xlink:href="#sh0"/>
<path d="M719.74 101.00v29.40" class="stroke"/>
<use x="740.84" y="95.00" xlink:href="#hl"/>
<use x="740.84" y="95.00" xlink:href="#hd"/>
<path d="M737.34 95.00v33.70" class="stroke"/>
<use x="768.44" y="98.00" xlink:href="#hd"/>
<path d="M764.94 98.00v40.00" class="stroke"/>
<use x="768.44" y="119.00" xlink:href="#hd"/>
<use x="768.44" y="113.00" xlink:href="#hd"/>
<use x="768.44" y="107.00" xlink:href="#hd"/>
<defs>
<path id="r8e" class="fill" d="m 0 0
	c-1.5 1.5 -2.4 2 -3.6 2
	2.4 -2.8 -2.8 -4 -2.8 -1.2
	c0 2.7 4.3 2.4 5.9 0.6"/>
<g id="r8">
	<path d="m3.3 -4l-3.4 9.6" class="stroke"/>
	<use x="3.4" y="-4" xlink:href="#r8e"/>
</g>
</defs>
<use x="828.84" y="113.00" xlink:href="#r8"/>
<defs>
<path id="ubclef" class="fill" d="m-200 -87
	c124 -35 222 -78 254 -236
	43 -228 -167 -246 -192 -103
	59 -80 157 22 92 78
	-62 47 -115 -22 -106 -88
	21 -141 270 -136 274 52
	-1 175 -106 264 -322 297
	m357 -250
	c0 -36 51 -34 51 0
	0 37 -51 36 -51 0
	m-2 -129
	c0 -36 51 -34 51 0
	0 38 -51 37 -51 0"/>
<use id="bclef" transform="translate(0,18) scale(0.045)"
	xlink:href="#ubclef"/>
</defs>
<use x="23.54" y="165.00" xlink:href="#bclef"/>
<g font-family="serif" font-size="16" font-weight="bold" font-style="normal"
	transform="translate(42.04,182.50) scale(1.2,1)">
	<text text-anchor="middle">8</text>
	<text y="-12" text-anchor="middle">3</text>
</g>
<use x="85.44" y="168.00" xlink:href="#hd"/>
<path d="M81.94 168.00v25.00" class="stroke"/>
<use x="85.44" y="174.00" xlink:href="#hd"/>
<use x="135.04" y="171.00" xlink:href="#r8"/>
<path class="fill"
	d="M171.44 153.00l50.40 0.00v3.20l-50.40 -0.00"/>
<use x="168.24" y="174.00" xlink:href="#hd"/>
<path d="M171.74 174.00v-20.00" class="stroke"/>
<use x="193.14" y="174.00" xlink:href="#hd"/>
<path d="M196.64 174.00v-20.00" class="stroke"/>
<use x="217.94" y="174.00" xlink:href="#hd"/>
<path d="M221.44 174.00v-20.00" class="stroke"/>
<use x="251.14" y="183.00" xlink:href="#hd"/>
<path d="M254.64 183.00v-21.00" class="stroke"/>
<use x="300.84" y="171.00" xlink:href="#r8"/>
<use x="334.04" y="168.00" xlink:href="#hd"/>
<path d="M330.54 168.00v25.00" class="stroke"/>
<use x="334.04" y="174.00" xlink:href="#hd"/>
<use x="394.04" y="171.00" xlink:href="#r8"/>
<use x="431.94" y="159.00" xlink:href="#hd"/>
<path d="M428.44 159.00v34.00" class="stroke"/>
<use x="431.94" y="174.00" xlink:href="#hd"/>
<use x="502.24" y="171.00" xlink:href="#r8"/>
<use x="547.34" y="162.00" xlink:href="#hd"/>
<path d="M543.84 162.00v34.00" class="stroke"/>
<use x="547.34" y="177.00" xlink:href="#hd"/>
<use x="607.44" y="171.00" xlink:href="#r8"/>
<path class="fill"
	d="M655.74 147.60l71.40 8.40v3.20l-71.40 -8.40"/>
<use x="652.54" y="174.00" xlink:href="#hd"/>
<path d="M656.04 174.00v-25.30" class="stroke"/>
<use x="687.74" y="171.00" xlink:href="#hd"/>
<path d="M691.24 171.00v-18.20" class="stroke"/>
<use x="723.24" y="189.00" xlink:href="#hl"/>
<use x="723.24" y="192.00" xlink:href="#hd"/>
<path d="M726.74 192.00v-35.00" class="stroke"/>
<path class="fill"
	d="M764.54 202.20l78.70 0.00v-3.20l-78.70 -0.00"/>
<path class="fill"
	d="M789.74 197.20l53.10 0.00v-3.20l-53.10 -0.00"/>
<use x="768.44" y="183.00" xlink:href="#hd"/>
<path d="M764.94 183.00v18.20" class="stroke"/>
<use x="793.24" y="162.00" xlink:href="#hd"/>
<path d="M789.74 162.00v39.20" class="stroke"/>
<use x="811.24" y="165.00" xlink:href="#hd"/>
<defs>
<path id="unat" class="fill" d="
	m96 -750
	h-32
	v716
	l32 -8
	182 -54
	v282
	h32
	v-706
	l-34 10
	-180 50
	v-290
	m0 592
	v-190
	l182 -52
	v188"/>
<use id="nt0" transform="translate(-3,5) scale(0.018)"
	xlink:href="#unat"/>
</defs>
<use x="802.24" y="165.00" xlink:href="#nt0"/>
<path d="M807.74 165.00v36.20" class="stroke"/>
<use x="828.84" y="168.00" xlink:href="#hd"/>
<path d="M825.34 168.00v33.20" class="stroke"/>
<use x="846.44" y="171.00" xlink:href="#hd"/>
<path d="M842.94 171.00v30.20" class="stroke"/>
</g>
<g stroke-width="0.70" transform="scale(0.867)" font-family="Times" font-size="13.00">
<path class="stroke" stroke-width="1"
	d="M11.54 316.00v-82.00"/>
<path class="fill"
	d="M6.54 231.00
	c10.5 1 12 -4.5 12 -3.5c0 1 -3.5 5.5 -8.5 5.5
	v84.00
	c5 0 8.5 4.5 8.5 5.5c0 1 -1.5 -4.5 -12 -3.5"/>
<use x="144.64" y="258.00" xlink:href="#rdots"/>
<path class="stroke" stroke-width="1"
	d="M140.64 258.00v-24.00"/>
<path class="stroke" stroke-width="3"
	d="M136.14 258.00v-24.00"/>
<use x="144.64" y="316.00" xlink:href="#rdots"/>
<path class="stroke" stroke-width="1"
	d="M140.64 316.00v-58.00"/>
<path class="stroke" stroke-width="3"
	d="M136.14 316.00v-58.00"/>
<path class="stroke" stroke-width="1"
	d="M234.24 258.00v-24.00"/>
<path class="stroke" stroke-width="1"
	d="M234.24 316.00v-58.00"/>
<path class="stroke" stroke-width="1"
	d="M314.84 258.00v-24.00"/>
<path class="stroke" stroke-width="1"
	d="M314.84 316.00v-58.00"/>
<path class="stroke" stroke-width="1"
	d="M405.94 258.00v-24.00"/>
<path class="stroke" stroke-width="1"
	d="M405.94 316.00v-58.00"/>
<path class="stroke" stroke-width="1"
	d="M495.54 258.00v-24.00"/>
<path class="stroke" stroke-width="1"
	d="M495.54 316.00v-58.00"/>
<path class="stroke" stroke-width="1"
	d="M595.74 258.00v-24.00"/>
<path class="stroke" stroke-width="1"
	d="M595.74 316.00v-58.00"/>
<path class="stroke" stroke-width="1"
	d="M695.94 258.00v-24.00"/>
<path class="stroke" stroke-width="1"
	d="M695.94 316.00v-58.00"/>
<path class="stroke" stroke-width="1"
	d="M787.04 258.00v-24.00"/>
<path class="stroke" stroke-width="1"
	d="M787.04 316.00v-58.00"/>
<path class="stroke" stroke-width="3"
	d="M860.54 258.00v-24.00"/>
<path class="stroke" stroke-width="1"
	d="M856.04 258.00v-24.00"/>
<use x="852.04" y="258.00" xlink:href="#rdots"/>
<path class="stroke" stroke-width="3"
	d="M860.54 316.00v-58.00"/>
<path class="stroke" stroke-width="1"
	d="M856.04 316.00v-58.00"/>
<use x="852.04" y="316.00" xlink:href="#rdots"/>
<path d="m11.54 258.00
	h850.50
	M11.54 252.00
	h850.50
	M11.54 246.00
	h850.50
	M11.54 240.00
	h850.50
	M11.54 234.00
	h850.50
	" class="stroke"/>
<path d="m11.54 316.00
	h850.50
	M11.54 310.00
	h850.50
	M11.54 304.00
	h850.50
	M11.54 298.00
	h850.50
	M11.54 292.00
	h850.50
	" class="stroke"/>
<text x="47.54" y="219.40">2</text>
<path class="stroke"
	d="M43.54 208.00m0 20v-20h90.10v20"/>
<use x="23.54" y="252.00" xlink:href="#tclef"/>
<use x="56.04" y="231.00" xlink:href="#hd"/>
<path d="M52.54 231.00v40.00" class="stroke"/>
<use x="56.04" y="252.00" xlink:href="#hd"/>
<use x="56.04" y="246.00" xlink:href="#hd"/>
<use x="56.04" y="240.00" xlink:href="#hd"/>
<use x="110.04" y="246.00" xlink:href="#r8"/>
<path class="fill"
	d="M160.24 262.50l30.70 5.80v-3.20l-30.70 -5.80"/>
<path class="fill"
	d="M160.64 257.60l15.00 2.80v-3.20l-15.00 -2.80"/>
<use x="164.14" y="234.00" xlink:href="#hd"/>
<use x="155.14" y="234.00" xlink:href="#sh0"/>
<path d="M160.64 234.00v27.60" class="stroke"/>
<use x="179.14" y="240.00" xlink:href="#hd"/>
<path d="M175.64 240.00v24.40" class="stroke"/>
<use x="194.14" y="249.00" xlink:href="#hd"/>
<path d="M190.64 249.00v18.20" class="stroke"/>
<use x="217.44" y="234.00" xlink:href="#hd"/>
<path d="M213.94 234.00v21.00" class="stroke"/>
<path class="fill"
	d="M213.94 255.00c0.6 -5.6 9.6 -9 5.6 -18.4
	1.6 6 -1.3 11.6 -5.6 12.8
"/>
<path class="fill"
	d="M242.84 262.70l51.80 8.60v-3.20l-51.80 -8.60"/>
<path class="fill"
	d="M264.24 261.20l15.00 2.50v-3.20l-15.00 -2.50"/>
<use x="246.74" y="231.00" xlink:href="#hd"/>
<path d="M243.24 231.00v30.70" class="stroke"/>
<use x="267.74" y="240.00" xlink:href="#hd"/>
<path d="M264.24 240.00v25.20" class="stroke"/>
<use x="282.74" y="246.00" xlink:href="#hd"/>
<path d="M279.24 246.00v21.70" class="stroke"/>
<use x="297.74" y="252.00" xlink:href="#hd"/>
<path d="M294.24 252.00v18.20" class="stroke"/>
<path class="fill"
	d="M323.44 267.50l66.80 -7.30v-3.20l-66.80 7.30"/>
<path class="fill"
	d="M344.84 260.20l45.10 -4.90v-3.20l-45.10 4.90"/>
<use x="327.34" y="237.00" xlink:href="#hd"/>
<path d="M323.84 237.00v29.50" class="stroke"/>
<use x="348.34" y="243.00" xlink:href="#hd"/>
<path d="M344.84 243.00v21.20" class="stroke"/>
<use x="363.34" y="237.00" xlink:href="#hd"/>
<path d="M359.84 237.00v25.60" class="stroke"/>
<use x="378.34" y="231.00" xlink:href="#hd"/>
<path d="M374.84 231.00v29.90" class="stroke"/>
<use x="393.44" y="228.00" xlink:href="#hl"/>
<use x="393.44" y="222.00" xlink:href="#hl"/>
<use x="393.44" y="222.00" xlink:href="#hd"/>
<path d="M389.94 222.00v37.30" class="stroke"/>
<path class="fill"
	d="M414.54 266.00l60.80 0.00v-3.20l-60.80 -0.00"/>
<path class="fill"
	d="M414.94 261.00l45.10 0.00v-3.20l-45.10 -0.00"/>
<use x="418.44" y="246.00" xlink:href="#hd"/>
<path d="M414.94 246.00v18.90" class="stroke"/>
<use x="433.44" y="240.00" xlink:href="#hd"/>
<path d="M429.94 240.00v24.90" class="stroke"/>
<use x="448.44" y="231.00" xlink:href="#hd"/>
<path d="M444.94 231.00v33.90" class="stroke"/>
<use x="463.54" y="240.00" xlink:href="#hd"/>
<path d="M460.04 240.00v24.90" class="stroke"/>
<use x="478.54" y="246.00" xlink:href="#hd"/>
<path d="M475.04 246.00v18.90" class="stroke"/>
<path class="fill"
	d="M504.24 271.20l60.80 -7.00v-3.20l-60.80 7.00"/>
<use x="508.04" y="252.00" xlink:href="#hd"/>
<path d="M504.54 252.00v18.20" class="stroke"/>
<use x="538.14" y="243.00" xlink:href="#hd"/>
<path d="M534.64 243.00v23.70" class="stroke"/>
<use x="568.24" y="237.00" xlink:href="#hd"/>
<path d="M564.74 237.00v26.30" class="stroke"/>
<path class="fill"
	d="M604.44 275.50l75.80 -6.30v-3.20l-75.80 6.30"/>
<path class="fill"
	d="M604.74 270.40l75.20 -6.20v-3.20l-75.20 6.20"/>
<use x="608.24" y="243.00" xlink:href="#hd"/>
<path d="M604.74 243.00v31.40" class="stroke"/>
<use x="623.24" y="252.00" xlink:href="#hd"/>
<path d="M619.74 252.00v21.20" class="stroke"/>
<use x="638.34" y="237.00" xlink:href="#hd"/>
<path d="M634.84 237.00v35.00" class="stroke"/>
<use x="653.34" y="243.00" xlink:href="#hd"/>
<path d="M649.84 243.00v27.70" class="stroke"/>
<use x="668.34" y="231.00" xlink:href="#hd"/>
<path d="M664.84 231.00v38.50" class="stroke"/>
<use x="683.44" y="237.00" xlink:href="#hd"/>
<path d="M679.94 237.00v31.20" class="stroke"/>
<path class="fill"
	d="M704.54 268.20l66.80 -8.10v-3.20l-66.80 8.10"/>
<path class="fill"
	d="M725.94 260.70l45.10 -5.50v-3.20l-45.10 5.50"/>
<use x="708.44" y="249.00" xlink:href="#hd"/>
<path d="M704.94 249.00v18.20" class="stroke"/>
<use x="729.44" y="234.00" xlink:href="#hd"/>
<path d="M725.94 234.00v30.70" class="stroke"/>
<use x="744.44" y="240.00" xlink:href="#hd"/>
<path d="M740.94 240.00v22.80" class="stroke"/>
<use x="759.44" y="228.00" xlink:href="#hl"/>
<use x="759.44" y="228.00" xlink:href="#hd"/>
<path d="M755.94 228.00v33.00" class="stroke"/>
<use x="774.54" y="231.00" xlink:href="#hd"/>
<path d="M771.04 231.00v28.20" class="stroke"/>
<use x="799.54" y="243.00" xlink:href="#hd"/>
<path d="M796.04 243.00v21.00" class="stroke"/>
<use x="841.54" y="246.00" xlink:href="#r8"/>
<use x="23.54" y="298.00" xlink:href="#bclef"/>
<path class="fill"
	d="M52.24 335.20l69.80 -5.00v-3.20l-69.80 5.00"/>
<path class="fill"
	d="M73.54 328.70l48.10 -3.50v-3.20l-48.10 3.50"/>
<use x="56.04" y="316.00" xlink:href="#hd"/>
<path d="M52.54 316.00v18.20" class="stroke"/>
<use x="77.04" y="289.00" xlink:href="#hd"/>
<path d="M73.54 289.00v43.70" class="stroke"/>
<use x="92.04" y="295.00" xlink:href="#hd"/>
<path d="M88.54 295.00v36.60" class="stroke"/>
<use x="110.04" y="298.00" xlink:href="#hd"/>
<use x="101.04" y="298.00" xlink:href="#sh0"/>
<path d="M106.54 298.00v32.30" class="stroke"/>
<use x="125.14" y="301.00" xlink:href="#hd"/>
<path d="M121.64 301.00v28.20" class="stroke"/>
<use x="164.14" y="292.00" xlink:href="#hd"/>
<path d="M160.64 292.00v34.00" class="stroke"/>
<use x="164.14" y="307.00" xlink:href="#hd"/>
<use x="217.44" y="292.00" xlink:href="#hd"/>
<path d="M213.94 292.00v34.00" class="stroke"/>
<path class="fill"
	d="M213.94 326.00c0.6 -5.6 9.6 -9 5.6 -18.4
	1.6 6 -1.3 11.6 -5.6 12.8
"/>
<use x="217.44" y="307.00" xlink:href="#hd"/>
<use x="246.74" y="310.00" xlink:href="#hd"/>
<path d="M250.24 310.00v-25.00" class="stroke"/>
<use x="246.74" y="304.00" xlink:href="#hd"/>
<use x="297.74" y="310.00" xlink:href="#hd"/>
<path d="M301.24 310.00v-25.00" class="stroke"/>
<path class="fill"
	d="M301.24 285.00c0.6 5.6 9.6 9 5.6 18.4
	1.6 -6 -1.3 -11.6 -5.6 -12.8
"/>
<use x="297.74" y="304.00" xlink:href="#hd"/>
<use x="327.34" y="295.00" xlink:href="#hd"/>
<path d="M323.84 295.00v31.00" class="stroke"/>
<use x="327.34" y="307.00" xlink:href="#hd"/>
<use x="378.34" y="301.00" xlink:href="#hd"/>
<path d="M374.84 301.00v25.00" class="stroke"/>
<path class="fill"
	d="M374.84 326.00c0.6 -5.6 9.6 -9 5.6 -18.4
	1.6 6 -1.3 11.6 -5.6 12.8
"/>
<use x="378.34" y="307.00" xlink:href="#hd"/>
<use x="418.44" y="295.00" xlink:href="#hd"/>
<path d="M414.94 295.00v21.00" class="stroke"/>
<use x="478.54" y="316.00" xlink:href="#hd"/>
<path d="M482.04 316.00v-21.00" class="stroke"/>
<path class="fill"
	d="M482.04 295.00c0.6 5.6 9.6 9 5.6 18.4
	1.6 -6 -1.3 -11.6 -5.6 -12.8
"/>
<path class="fill"
	d="M504.24 323.90l75.80 0.00v-3.20l-75.80 -0.00"/>
<path class="fill"
	d="M504.54 318.90l75.20 0.00v-3.20l-75.20 -0.00"/>
<use x="508.04" y="301.00" xlink:href="#hd"/>
<path d="M504.54 301.00v21.90" class="stroke"/>
<use x="508.04" y="307.00" xlink:href="#hd"/>
<use x="523.14" y="295.00" xlink:href="#hd"/>
<path d="M519.64 295.00v27.90" class="stroke"/>
<use x="538.14" y="301.00" xlink:href="#hd"/>
<path d="M534.64 301.00v21.90" class="stroke"/>
<use x="538.14" y="307.00" xlink:href="#hd"/>
<use x="553.14" y="295.00" xlink:href="#hd"/>
<path d="M549.64 295.00v27.90" class="stroke"/>
<use x="568.24" y="301.00" xlink:href="#hd"/>
<path d="M564.74 301.00v21.90" class="stroke"/>
<use x="568.24" y="307.00" xlink:href="#hd"/>
<use x="583.24" y="295.00" xlink:href="#hd"/>
<path d="M579.74 295.00v27.90" class="stroke"/>
<use x="608.24" y="301.00" xlink:href="#hd"/>
<path d="M604.74 301.00v25.00" class="stroke"/>
<use x="608.24" y="307.00" xlink:href="#hd"/>
<use x="668.34" y="304.00" xlink:href="#r8"/>
<use x="708.44" y="298.00" xlink:href="#hd"/>
<path d="M704.94 298.00v21.00" class="stroke"/>
<use x="759.44" y="295.00" xlink:href="#hd"/>
<path d="M755.94 295.00v21.00" class="stroke"/>
<path class="fill"
	d="M755.94 316.00c0.6 -5.6 9.6 -9 5.6 -18.4
	1.6 6 -1.3 11.6 -5.6 12.8
"/>
<path class="fill"
	d="M802.64 287.70l42.70 9.90v3.20l-42.70 -9.90"/>
<use x="799.54" y="307.00" xlink:href="#hd"/>
<path d="M803.04 307.00v-18.20" class="stroke"/>
<use x="820.54" y="316.00" xlink:href="#hd"/>
<path d="M824.04 316.00v-22.40" class="stroke"/>
<use x="841.54" y="322.00" xlink:href="#hl"/>
<use x="841.54" y="328.00" xlink:href="#hl"/>
<use x="841.54" y="328.00" xlink:href="#hd"/>
<path d="M845.04 328.00v-29.50" class="stroke"/>
</g>
</svg>
