<?xml version="1.0" standalone="no"?>
<!DOCTYPE svg PUBLIC "-//W3C//DTD SVG 1.1//EN"
	"http://www.w3.org/Graphics/SVG/1.1/DTD/svg11.dtd">
<svg xmlns="http://www.w3.org/2000/svg" version="1.1"
	xmlns:xlink="http://www.w3.org/1999/xlink"
	color="black"
	width="757.10px" height="303.33px">
<style type="text/css">
.fill {fill: currentColor}
.stroke {stroke: currentColor; fill: none}
text{white-space: pre}
</style>
<title>./K516f-11-12-6-8-4-12-12-3-10-3-2-10-2-9-2-3.abc (2217) tune 1</title>
<!-- Creator: abcm2ps-8.13.8 -->
<!-- CreationDate: Sep  7, 2017 11:17 -->
<!-- CommandLine: ./K516f-11-12-6-8-4-12-12-3-10-3-2-10-2-9-2-3.abc -O ./K516f-11-12-6-8-4-12-12-3-10-3-2-10-2-9-2-3.svg -g -->
<rect width="100%" height="100%" fill="white"/>
<g stroke-width="0.70" transform="scale(0.867)">
<!-- title: 11-12-6-8-4-12-12-3-10-3-2-10-2-9-2-3 -->
</g>
<g stroke-width="0.70" transform="scale(0.867)" font-family="Times" font-size="20.00">
<text x="436.84" y="22.00" text-anchor="middle">11-12-6-8-4-12-12-3-10-3-2-10-2-9-2-3</text>
</g>
<g stroke-width="0.70" transform="scale(0.867)" font-family="Times" font-size="20.00">
<!-- subtitle: $1K.516f::3:130:163:53:153:37:106:81:65:39:26:82:112:115:109:83::$0 -->
</g>
<g stroke-width="0.70" transform="scale(0.867)" font-family="Courier" font-size="8.00" font-weight="bold">
<text x="436.84" y="41.80" text-anchor="middle">K.516f::3:130:163:53:153:37:106:81:65:39:26:82:112:115:109:83::</text>
</g>
<g stroke-width="0.70" transform="scale(0.867)" font-family="Courier" font-size="8.00" font-weight="bold">
<!-- subtitle: $1Perm. No.: 22176887654096$0 -->
<text x="436.84" y="60.80" text-anchor="middle">Perm. No.: 22176887654096</text>
</g>
<g stroke-width="0.70" transform="scale(0.607)" font-family="Courier" font-size="8.00" font-weight="bold">
<defs>
<ellipse id="hd" rx="4.1" ry="2.9"
	transform="rotate(-20)" class="fill"/>
</defs>
<use x="103.06" y="121.29" xlink:href="#hd"/>
<path d="M106.56 121.29v-21.00" class="stroke"/>
<path class="fill"
	d="M106.56 100.29c0.6 5.6 9.6 9 5.6 18.4
	1.6 -6 -1.3 -11.6 -5.6 -12.8
"/>
</g>
<g stroke-width="0.70" transform="scale(0.867)" font-family="Times" font-size="15.00" font-weight="bold">
<text x="81.24" y="87.00">= 111</text>
<path class="stroke" stroke-width="1"
	d="M11.54 183.00v-82.00"/>
<path class="fill"
	d="M6.54 98.00
	c10.5 1 12 -4.5 12 -3.5c0 1 -3.5 5.5 -8.5 5.5
	v84.00
	c5 0 8.5 4.5 8.5 5.5c0 1 -1.5 -4.5 -12 -3.5"/>
<defs>
<g id="rdots" class="fill">
	<circle cx="0" cy="-9" r="1.2"/>
	<circle cx="0" cy="-15" r="1.2"/>
</g>
</defs>
<use x="70.54" y="125.00" xlink:href="#rdots"/>
<path class="stroke" stroke-width="1"
	d="M66.54 125.00v-24.00"/>
<path class="stroke" stroke-width="3"
	d="M62.04 125.00v-24.00"/>
<use x="70.54" y="183.00" xlink:href="#rdots"/>
<path class="stroke" stroke-width="1"
	d="M66.54 183.00v-58.00"/>
<path class="stroke" stroke-width="3"
	d="M62.04 183.00v-58.00"/>
<path class="stroke" stroke-width="1"
	d="M152.64 125.00v-24.00"/>
<path class="stroke" stroke-width="1"
	d="M152.64 183.00v-58.00"/>
<path class="stroke" stroke-width="1"
	d="M233.64 125.00v-24.00"/>
<path class="stroke" stroke-width="1"
	d="M233.64 183.00v-58.00"/>
<path class="stroke" stroke-width="1"
	d="M347.44 125.00v-24.00"/>
<path class="stroke" stroke-width="1"
	d="M347.44 183.00v-58.00"/>
<path class="stroke" stroke-width="1"
	d="M438.64 125.00v-24.00"/>
<path class="stroke" stroke-width="1"
	d="M438.64 183.00v-58.00"/>
<path class="stroke" stroke-width="1"
	d="M552.34 125.00v-24.00"/>
<path class="stroke" stroke-width="1"
	d="M552.34 183.00v-58.00"/>
<path class="stroke" stroke-width="1"
	d="M653.64 125.00v-24.00"/>
<path class="stroke" stroke-width="1"
	d="M653.64 183.00v-58.00"/>
<path class="stroke" stroke-width="1"
	d="M756.54 125.00v-24.00"/>
<path class="stroke" stroke-width="1"
	d="M756.54 183.00v-58.00"/>
<path class="stroke" stroke-width="3"
	d="M860.54 125.00v-24.00"/>
<path class="stroke" stroke-width="1"
	d="M856.04 125.00v-24.00"/>
<use x="852.04" y="125.00" xlink:href="#rdots"/>
<path class="stroke" stroke-width="3"
	d="M860.54 183.00v-58.00"/>
<path class="stroke" stroke-width="1"
	d="M856.04 183.00v-58.00"/>
<use x="852.04" y="183.00" xlink:href="#rdots"/>
<path d="m11.54 125.00
	h850.50
	M11.54 119.00
	h850.50
	M11.54 113.00
	h850.50
	M11.54 107.00
	h850.50
	M11.54 101.00
	h850.50
	" class="stroke"/>
<path d="m11.54 183.00
	h850.50
	M11.54 177.00
	h850.50
	M11.54 171.00
	h850.50
	M11.54 165.00
	h850.50
	M11.54 159.00
	h850.50
	" class="stroke"/>
</g>
<g stroke-width="0.70" transform="scale(0.867)" font-family="Times" font-size="13.00">
<text x="760.54" y="86.40">1</text>
<path class="stroke"
	d="M756.54 75.00m0 20v-20h97.50v20"/>
<defs>
<path id="utclef" class="fill" d="m-50 -90
	c-72 -41 -72 -158 52 -188
	150 -10 220 188 90 256
	-114 52 -275 0 -293 -136
	-15 -181 93 -229 220 -334
	88 -87 79 -133 62 -210
	-51 33 -94 105 -89 186
	17 267 36 374 49 574
	6 96 -19 134 -77 135
	-80 1 -126 -93 -61 -133
	85 -41 133 101 31 105
	23 17 92 37 90 -92
	-10 -223 -39 -342 -50 -617
	0 -90 0 -162 96 -232
	56 72 63 230 22 289
	-74 106 -257 168 -255 316
	9 153 148 185 252 133
	86 -65 29 -192 -80 -176
	-71 12 -105 67 -59 124"/>
<use id="tclef" transform="translate(0,6) scale(0.045)"
	xlink:href="#utclef"/>
</defs>
<use x="23.54" y="119.00" xlink:href="#tclef"/>
<g font-family="serif" font-size="16" font-weight="bold" font-style="normal"
	transform="translate(42.04,124.50) scale(1.2,1)">
	<text text-anchor="middle">8</text>
	<text y="-12" text-anchor="middle">3</text>
</g>
<path class="fill"
	d="M81.24 127.60l49.20 3.20v-3.20l-49.20 -3.20"/>
<use x="85.14" y="98.00" xlink:href="#hd"/>
<path d="M81.64 98.00v28.60" class="stroke"/>
<use x="109.34" y="110.00" xlink:href="#hd"/>
<path d="M105.84 110.00v18.20" class="stroke"/>
<use x="133.64" y="104.00" xlink:href="#hd"/>
<path d="M130.14 104.00v25.80" class="stroke"/>
<path class="fill"
	d="M169.34 91.00l49.20 0.00v3.20l-49.20 -0.00"/>
<use x="166.14" y="125.00" xlink:href="#hd"/>
<path d="M169.64 125.00v-33.00" class="stroke"/>
<use x="166.14" y="110.00" xlink:href="#hd"/>
<use x="190.44" y="125.00" xlink:href="#hd"/>
<path d="M193.94 125.00v-33.00" class="stroke"/>
<use x="190.44" y="110.00" xlink:href="#hd"/>
<use x="214.74" y="125.00" xlink:href="#hd"/>
<path d="M218.24 125.00v-33.00" class="stroke"/>
<use x="214.74" y="110.00" xlink:href="#hd"/>
<path class="fill"
	d="M243.44 131.20l87.40 10.00v-3.20l-87.40 -10.00"/>
<path class="fill"
	d="M243.74 126.30l86.70 9.90v-3.20l-86.70 -9.90"/>
<use x="247.24" y="98.00" xlink:href="#hd"/>
<path d="M243.74 98.00v32.30" class="stroke"/>
<use x="265.24" y="101.00" xlink:href="#hd"/>
<defs>
<path id="usharp" class="fill" d="
	m136 -702
	v890
	h32
	v-890
	m128 840
	h32
	v-888
	h-32
	m-232 286
	v116
	l338 -96
	v-116
	m-338 442
	v116
	l338 -98
	v-114"/>
<use id="sh0" transform="translate(-4,5) scale(0.018)"
	xlink:href="#usharp"/>
</defs>
<use x="256.24" y="101.00" xlink:href="#sh0"/>
<path d="M261.74 101.00v31.30" class="stroke"/>
<use x="282.44" y="98.00" xlink:href="#hd"/>
<path d="M278.94 98.00v36.30" class="stroke"/>
<use x="299.64" y="107.00" xlink:href="#hd"/>
<path d="M296.14 107.00v29.30" class="stroke"/>
<use x="316.84" y="113.00" xlink:href="#hd"/>
<path d="M313.34 113.00v25.20" class="stroke"/>
<use x="333.94" y="119.00" xlink:href="#hd"/>
<path d="M330.44 119.00v21.20" class="stroke"/>
<path class="fill"
	d="M357.14 127.00l59.30 0.00v-3.20l-59.30 -0.00"/>
<path class="fill"
	d="M381.74 122.00l17.20 0.00v-3.20l-17.20 -0.00"/>
<use x="361.04" y="104.00" xlink:href="#hd"/>
<path d="M357.54 104.00v22.00" class="stroke"/>
<use x="361.04" y="110.00" xlink:href="#hd"/>
<use x="385.24" y="104.00" xlink:href="#hd"/>
<path d="M381.74 104.00v22.00" class="stroke"/>
<use x="385.24" y="110.00" xlink:href="#hd"/>
<use x="402.44" y="101.00" xlink:href="#hd"/>
<path d="M398.94 101.00v25.00" class="stroke"/>
<use x="402.44" y="107.00" xlink:href="#hd"/>
<use x="419.64" y="98.00" xlink:href="#hd"/>
<path d="M416.14 98.00v28.00" class="stroke"/>
<use x="419.64" y="104.00" xlink:href="#hd"/>
<path class="fill"
	d="M448.34 139.50l87.40 -6.40v-3.20l-87.40 6.40"/>
<path class="fill"
	d="M448.64 134.50l86.70 -6.40v-3.20l-86.70 6.40"/>
<use x="452.14" y="107.00" xlink:href="#hd"/>
<path d="M448.64 107.00v31.50" class="stroke"/>
<use x="469.34" y="116.00" xlink:href="#hd"/>
<path d="M465.84 116.00v21.20" class="stroke"/>
<use x="487.34" y="101.00" xlink:href="#hd"/>
<use x="478.34" y="101.00" xlink:href="#sh0"/>
<path d="M483.84 101.00v34.90" class="stroke"/>
<use x="504.54" y="107.00" xlink:href="#hd"/>
<path d="M501.04 107.00v27.60" class="stroke"/>
<defs>
<path id="hl" class="stroke" d="m-6 0h12"/>
</defs>
<use x="521.74" y="95.00" xlink:href="#hl"/>
<use x="521.74" y="95.00" xlink:href="#hd"/>
<path d="M518.24 95.00v38.30" class="stroke"/>
<use x="538.94" y="101.00" xlink:href="#hd"/>
<path d="M535.44 101.00v31.10" class="stroke"/>
<path class="fill"
	d="M562.14 123.90l69.40 8.30v-3.20l-69.40 -8.30"/>
<path class="fill"
	d="M562.44 119.00l51.60 6.20v-3.20l-51.60 -6.20"/>
<use x="565.94" y="98.00" xlink:href="#hd"/>
<path d="M562.44 98.00v25.00" class="stroke"/>
<use x="583.14" y="95.00" xlink:href="#hl"/>
<use x="583.14" y="92.00" xlink:href="#hd"/>
<path d="M579.64 92.00v33.00" class="stroke"/>
<use x="600.34" y="98.00" xlink:href="#hd"/>
<path d="M596.84 98.00v29.10" class="stroke"/>
<use x="617.54" y="107.00" xlink:href="#hd"/>
<path d="M614.04 107.00v22.10" class="stroke"/>
<use x="634.74" y="113.00" xlink:href="#hd"/>
<path d="M631.24 113.00v18.20" class="stroke"/>
<path class="fill"
	d="M663.44 138.20l76.50 0.00v-3.20l-76.50 -0.00"/>
<path class="fill"
	d="M688.04 133.20l51.60 0.00v-3.20l-51.60 -0.00"/>
<use x="667.24" y="116.00" xlink:href="#hd"/>
<path d="M663.74 116.00v21.20" class="stroke"/>
<use x="691.54" y="107.00" xlink:href="#hd"/>
<path d="M688.04 107.00v30.20" class="stroke"/>
<use x="708.64" y="110.00" xlink:href="#hd"/>
<path d="M705.14 110.00v27.20" class="stroke"/>
<use x="725.84" y="113.00" xlink:href="#hd"/>
<path d="M722.34 113.00v24.20" class="stroke"/>
<use x="743.04" y="116.00" xlink:href="#hd"/>
<path d="M739.54 116.00v21.20" class="stroke"/>
<use x="770.04" y="98.00" xlink:href="#hd"/>
<path d="M766.54 98.00v40.00" class="stroke"/>
<use x="770.04" y="119.00" xlink:href="#hd"/>
<use x="770.04" y="113.00" xlink:href="#hd"/>
<use x="770.04" y="107.00" xlink:href="#hd"/>
<defs>
<path id="r8e" class="fill" d="m 0 0
	c-1.5 1.5 -2.4 2 -3.6 2
	2.4 -2.8 -2.8 -4 -2.8 -1.2
	c0 2.7 4.3 2.4 5.9 0.6"/>
<g id="r8">
	<path d="m3.3 -4l-3.4 9.6" class="stroke"/>
	<use x="3.4" y="-4" xlink:href="#r8e"/>
</g>
</defs>
<use x="829.54" y="113.00" xlink:href="#r8"/>
<defs>
<path id="ubclef" class="fill" d="m-200 -87
	c124 -35 222 -78 254 -236
	43 -228 -167 -246 -192 -103
	59 -80 157 22 92 78
	-62 47 -115 -22 -106 -88
	21 -141 270 -136 274 52
	-1 175 -106 264 -322 297
	m357 -250
	c0 -36 51 -34 51 0
	0 37 -51 36 -51 0
	m-2 -129
	c0 -36 51 -34 51 0
	0 38 -51 37 -51 0"/>
<use id="bclef" transform="translate(0,18) scale(0.045)"
	xlink:href="#ubclef"/>
</defs>
<use x="23.54" y="165.00" xlink:href="#bclef"/>
<g font-family="serif" font-size="16" font-weight="bold" font-style="normal"
	transform="translate(42.04,182.50) scale(1.2,1)">
	<text text-anchor="middle">8</text>
	<text y="-12" text-anchor="middle">3</text>
</g>
<use x="85.14" y="168.00" xlink:href="#hd"/>
<path d="M81.64 168.00v25.00" class="stroke"/>
<use x="85.14" y="174.00" xlink:href="#hd"/>
<use x="133.64" y="171.00" xlink:href="#r8"/>
<path class="fill"
	d="M169.34 153.00l49.20 0.00v3.20l-49.20 -0.00"/>
<use x="166.14" y="174.00" xlink:href="#hd"/>
<path d="M169.64 174.00v-20.00" class="stroke"/>
<use x="190.44" y="174.00" xlink:href="#hd"/>
<path d="M193.94 174.00v-20.00" class="stroke"/>
<use x="214.74" y="174.00" xlink:href="#hd"/>
<path d="M218.24 174.00v-20.00" class="stroke"/>
<use x="247.24" y="177.00" xlink:href="#hd"/>
<path d="M250.74 177.00v-25.00" class="stroke"/>
<use x="247.24" y="171.00" xlink:href="#hd"/>
<use x="316.84" y="171.00" xlink:href="#r8"/>
<use x="361.04" y="174.00" xlink:href="#hd"/>
<path d="M364.54 174.00v-21.00" class="stroke"/>
<use x="419.64" y="171.00" xlink:href="#r8"/>
<use x="452.14" y="174.00" xlink:href="#hd"/>
<path d="M455.64 174.00v-21.00" class="stroke"/>
<use x="521.74" y="171.00" xlink:href="#r8"/>
<use x="565.94" y="177.00" xlink:href="#hd"/>
<path d="M569.44 177.00v-25.00" class="stroke"/>
<use x="565.94" y="171.00" xlink:href="#hd"/>
<use x="634.74" y="171.00" xlink:href="#r8"/>
<path class="fill"
	d="M670.44 148.30l59.30 8.40v3.20l-59.30 -8.40"/>
<use x="667.24" y="174.00" xlink:href="#hd"/>
<path d="M670.74 174.00v-24.60" class="stroke"/>
<use x="691.54" y="171.00" xlink:href="#hd"/>
<path d="M695.04 171.00v-18.20" class="stroke"/>
<use x="725.84" y="189.00" xlink:href="#hl"/>
<use x="725.84" y="192.00" xlink:href="#hd"/>
<path d="M729.34 192.00v-34.40" class="stroke"/>
<path class="fill"
	d="M766.24 202.20l77.30 0.00v-3.20l-77.30 -0.00"/>
<path class="fill"
	d="M790.84 197.20l52.40 0.00v-3.20l-52.40 -0.00"/>
<use x="770.04" y="183.00" xlink:href="#hd"/>
<path d="M766.54 183.00v18.20" class="stroke"/>
<use x="794.34" y="162.00" xlink:href="#hd"/>
<path d="M790.84 162.00v39.20" class="stroke"/>
<use x="812.34" y="165.00" xlink:href="#hd"/>
<defs>
<path id="unat" class="fill" d="
	m96 -750
	h-32
	v716
	l32 -8
	182 -54
	v282
	h32
	v-706
	l-34 10
	-180 50
	v-290
	m0 592
	v-190
	l182 -52
	v188"/>
<use id="nt0" transform="translate(-3,5) scale(0.018)"
	xlink:href="#unat"/>
</defs>
<use x="803.34" y="165.00" xlink:href="#nt0"/>
<path d="M808.84 165.00v36.20" class="stroke"/>
<use x="829.54" y="168.00" xlink:href="#hd"/>
<path d="M826.04 168.00v33.20" class="stroke"/>
<use x="846.74" y="171.00" xlink:href="#hd"/>
<path d="M843.24 171.00v30.20" class="stroke"/>
</g>
<g stroke-width="0.70" transform="scale(0.867)" font-family="Times" font-size="13.00">
<path class="stroke" stroke-width="1"
	d="M11.54 324.00v-90.00"/>
<path class="fill"
	d="M6.54 231.00
	c10.5 1 12 -4.5 12 -3.5c0 1 -3.5 5.5 -8.5 5.5
	v92.00
	c5 0 8.5 4.5 8.5 5.5c0 1 -1.5 -4.5 -12 -3.5"/>
<use x="142.14" y="258.00" xlink:href="#rdots"/>
<path class="stroke" stroke-width="1"
	d="M138.14 258.00v-24.00"/>
<path class="stroke" stroke-width="3"
	d="M133.64 258.00v-24.00"/>
<use x="142.14" y="324.00" xlink:href="#rdots"/>
<path class="stroke" stroke-width="1"
	d="M138.14 324.00v-66.00"/>
<path class="stroke" stroke-width="3"
	d="M133.64 324.00v-66.00"/>
<path class="stroke" stroke-width="1"
	d="M227.34 258.00v-24.00"/>
<path class="stroke" stroke-width="1"
	d="M227.34 324.00v-66.00"/>
<path class="stroke" stroke-width="1"
	d="M324.04 258.00v-24.00"/>
<path class="stroke" stroke-width="1"
	d="M324.04 324.00v-66.00"/>
<path class="stroke" stroke-width="1"
	d="M420.84 258.00v-24.00"/>
<path class="stroke" stroke-width="1"
	d="M420.84 324.00v-66.00"/>
<path class="stroke" stroke-width="1"
	d="M498.94 258.00v-24.00"/>
<path class="stroke" stroke-width="1"
	d="M498.94 324.00v-66.00"/>
<path class="stroke" stroke-width="1"
	d="M595.74 258.00v-24.00"/>
<path class="stroke" stroke-width="1"
	d="M595.74 324.00v-66.00"/>
<path class="stroke" stroke-width="1"
	d="M692.44 258.00v-24.00"/>
<path class="stroke" stroke-width="1"
	d="M692.44 324.00v-66.00"/>
<path class="stroke" stroke-width="1"
	d="M789.24 258.00v-24.00"/>
<path class="stroke" stroke-width="1"
	d="M789.24 324.00v-66.00"/>
<path class="stroke" stroke-width="3"
	d="M860.54 258.00v-24.00"/>
<path class="stroke" stroke-width="1"
	d="M856.04 258.00v-24.00"/>
<use x="852.04" y="258.00" xlink:href="#rdots"/>
<path class="stroke" stroke-width="3"
	d="M860.54 324.00v-66.00"/>
<path class="stroke" stroke-width="1"
	d="M856.04 324.00v-66.00"/>
<use x="852.04" y="324.00" xlink:href="#rdots"/>
<path d="m11.54 258.00
	h850.50
	M11.54 252.00
	h850.50
	M11.54 246.00
	h850.50
	M11.54 240.00
	h850.50
	M11.54 234.00
	h850.50
	" class="stroke"/>
<path d="m11.54 324.00
	h850.50
	M11.54 318.00
	h850.50
	M11.54 312.00
	h850.50
	M11.54 306.00
	h850.50
	M11.54 300.00
	h850.50
	" class="stroke"/>
<text x="47.54" y="219.40">2</text>
<path class="stroke"
	d="M43.54 208.00m0 20v-20h87.60v20"/>
<use x="23.54" y="252.00" xlink:href="#tclef"/>
<use x="56.04" y="231.00" xlink:href="#hd"/>
<path d="M52.54 231.00v40.00" class="stroke"/>
<use x="56.04" y="252.00" xlink:href="#hd"/>
<use x="56.04" y="246.00" xlink:href="#hd"/>
<use x="56.04" y="240.00" xlink:href="#hd"/>
<use x="108.34" y="246.00" xlink:href="#r8"/>
<path class="fill"
	d="M157.84 272.50l50.30 -4.60v-3.20l-50.30 4.60"/>
<path class="fill"
	d="M158.14 267.50l14.40 -1.30v-3.20l-14.40 1.30"/>
<use x="161.64" y="240.00" xlink:href="#hd"/>
<path d="M158.14 240.00v31.50" class="stroke"/>
<use x="176.04" y="249.00" xlink:href="#hd"/>
<path d="M172.54 249.00v21.20" class="stroke"/>
<use x="190.34" y="240.00" xlink:href="#hd"/>
<path d="M186.84 240.00v28.90" class="stroke"/>
<use x="211.24" y="234.00" xlink:href="#hd"/>
<use x="202.24" y="234.00" xlink:href="#sh0"/>
<path d="M207.74 234.00v33.00" class="stroke"/>
<path class="fill"
	d="M235.94 266.80l58.10 8.90v-3.20l-58.10 -8.90"/>
<use x="239.84" y="231.00" xlink:href="#hd"/>
<path d="M236.34 231.00v34.80" class="stroke"/>
<use x="268.54" y="252.00" xlink:href="#hd"/>
<path d="M265.04 252.00v18.20" class="stroke"/>
<use x="297.24" y="252.00" xlink:href="#hd"/>
<path d="M293.74 252.00v22.60" class="stroke"/>
<path class="fill"
	d="M332.74 261.00l58.10 0.00v-3.20l-58.10 -0.00"/>
<use x="336.54" y="237.00" xlink:href="#hd"/>
<path d="M333.04 237.00v23.00" class="stroke"/>
<use x="336.54" y="243.00" xlink:href="#hd"/>
<use x="365.24" y="237.00" xlink:href="#hd"/>
<path d="M361.74 237.00v23.00" class="stroke"/>
<use x="365.24" y="243.00" xlink:href="#hd"/>
<use x="394.04" y="237.00" xlink:href="#hd"/>
<path d="M390.54 237.00v23.00" class="stroke"/>
<use x="394.04" y="243.00" xlink:href="#hd"/>
<path class="fill"
	d="M429.54 273.70l49.30 -4.30v-3.20l-49.30 4.30"/>
<path class="fill"
	d="M429.84 268.70l14.40 -1.20v-3.20l-14.40 1.20"/>
<use x="433.34" y="240.00" xlink:href="#hd"/>
<path d="M429.84 240.00v32.70" class="stroke"/>
<use x="447.74" y="246.00" xlink:href="#hd"/>
<path d="M444.24 246.00v25.40" class="stroke"/>
<use x="462.04" y="252.00" xlink:href="#hd"/>
<path d="M458.54 252.00v18.20" class="stroke"/>
<use x="481.94" y="231.00" xlink:href="#hd"/>
<path d="M478.44 231.00v37.50" class="stroke"/>
<path class="fill"
	d="M507.64 264.30l58.10 6.90v-3.20l-58.10 -6.90"/>
<use x="511.44" y="237.00" xlink:href="#hd"/>
<path d="M507.94 237.00v26.30" class="stroke"/>
<use x="540.14" y="243.00" xlink:href="#hd"/>
<path d="M536.64 243.00v23.80" class="stroke"/>
<use x="568.84" y="252.00" xlink:href="#hd"/>
<path d="M565.34 252.00v18.20" class="stroke"/>
<path class="fill"
	d="M604.34 275.50l72.40 -6.20v-3.20l-72.40 6.20"/>
<path class="fill"
	d="M604.74 270.40l71.80 -6.20v-3.20l-71.80 6.20"/>
<use x="608.24" y="243.00" xlink:href="#hd"/>
<path d="M604.74 243.00v31.40" class="stroke"/>
<use x="622.54" y="252.00" xlink:href="#hd"/>
<path d="M619.04 252.00v21.20" class="stroke"/>
<use x="636.94" y="237.00" xlink:href="#hd"/>
<path d="M633.44 237.00v35.00" class="stroke"/>
<use x="651.24" y="243.00" xlink:href="#hd"/>
<path d="M647.74 243.00v27.70" class="stroke"/>
<use x="665.64" y="231.00" xlink:href="#hd"/>
<path d="M662.14 231.00v38.50" class="stroke"/>
<use x="679.94" y="237.00" xlink:href="#hd"/>
<path d="M676.44 237.00v31.30" class="stroke"/>
<path class="fill"
	d="M701.14 266.00l72.40 0.00v-3.20l-72.40 -0.00"/>
<path class="fill"
	d="M701.44 261.00l71.80 0.00v-3.20l-71.80 -0.00"/>
<use x="704.94" y="240.00" xlink:href="#hd"/>
<path d="M701.44 240.00v24.90" class="stroke"/>
<use x="719.34" y="234.00" xlink:href="#hd"/>
<path d="M715.84 234.00v30.90" class="stroke"/>
<use x="733.64" y="240.00" xlink:href="#hd"/>
<path d="M730.14 240.00v24.90" class="stroke"/>
<use x="748.04" y="234.00" xlink:href="#hd"/>
<path d="M744.54 234.00v30.90" class="stroke"/>
<use x="762.34" y="246.00" xlink:href="#hd"/>
<path d="M758.84 246.00v18.90" class="stroke"/>
<use x="776.74" y="240.00" xlink:href="#hd"/>
<path d="M773.24 240.00v24.90" class="stroke"/>
<use x="801.74" y="243.00" xlink:href="#hd"/>
<path d="M798.24 243.00v21.00" class="stroke"/>
<use x="841.54" y="246.00" xlink:href="#r8"/>
<use x="23.54" y="306.00" xlink:href="#bclef"/>
<path class="fill"
	d="M52.24 343.20l67.30 -4.90v-3.20l-67.30 4.90"/>
<path class="fill"
	d="M72.44 336.70l46.70 -3.40v-3.20l-46.70 3.40"/>
<use x="56.04" y="324.00" xlink:href="#hd"/>
<path d="M52.54 324.00v18.20" class="stroke"/>
<use x="75.94" y="297.00" xlink:href="#hd"/>
<path d="M72.44 297.00v43.70" class="stroke"/>
<use x="90.34" y="303.00" xlink:href="#hd"/>
<path d="M86.84 303.00v36.70" class="stroke"/>
<use x="108.34" y="306.00" xlink:href="#hd"/>
<use x="99.34" y="306.00" xlink:href="#sh0"/>
<path d="M104.84 306.00v32.40" class="stroke"/>
<use x="122.64" y="309.00" xlink:href="#hd"/>
<path d="M119.14 309.00v28.30" class="stroke"/>
<use x="161.64" y="306.00" xlink:href="#hd"/>
<use x="152.64" y="306.00" xlink:href="#sh0"/>
<path d="M165.14 306.00v-21.00" class="stroke"/>
<use x="211.24" y="312.00" xlink:href="#r8"/>
<path class="fill"
	d="M235.94 346.20l72.40 0.00v-3.20l-72.40 -0.00"/>
<path class="fill"
	d="M236.34 341.20l71.80 0.00v-3.20l-71.80 -0.00"/>
<use x="239.84" y="318.00" xlink:href="#hd"/>
<path d="M236.34 318.00v27.20" class="stroke"/>
<use x="254.14" y="312.00" xlink:href="#hd"/>
<path d="M250.64 312.00v33.20" class="stroke"/>
<use x="268.54" y="303.00" xlink:href="#hd"/>
<path d="M265.04 303.00v42.20" class="stroke"/>
<use x="282.84" y="312.00" xlink:href="#hd"/>
<path d="M279.34 312.00v33.20" class="stroke"/>
<use x="297.24" y="297.00" xlink:href="#hd"/>
<path d="M293.74 297.00v48.20" class="stroke"/>
<use x="311.54" y="324.00" xlink:href="#hd"/>
<path d="M308.04 324.00v21.20" class="stroke"/>
<path class="fill"
	d="M332.74 337.20l72.40 0.00v-3.20l-72.40 -0.00"/>
<path class="fill"
	d="M333.04 332.20l71.80 0.00v-3.20l-71.80 -0.00"/>
<use x="336.54" y="315.00" xlink:href="#hd"/>
<path d="M333.04 315.00v21.20" class="stroke"/>
<use x="350.94" y="309.00" xlink:href="#hd"/>
<path d="M347.44 309.00v27.20" class="stroke"/>
<use x="365.24" y="303.00" xlink:href="#hd"/>
<path d="M361.74 303.00v33.20" class="stroke"/>
<use x="379.64" y="309.00" xlink:href="#hd"/>
<path d="M376.14 309.00v27.20" class="stroke"/>
<use x="394.04" y="294.00" xlink:href="#hl"/>
<use x="394.04" y="294.00" xlink:href="#hd"/>
<path d="M390.54 294.00v42.20" class="stroke"/>
<use x="408.34" y="315.00" xlink:href="#hd"/>
<path d="M404.84 315.00v21.20" class="stroke"/>
<use x="433.34" y="303.00" xlink:href="#hd"/>
<path d="M436.84 303.00v-21.00" class="stroke"/>
<use x="481.94" y="318.00" xlink:href="#hd"/>
<path d="M485.44 318.00v-25.00" class="stroke"/>
<path class="fill"
	d="M485.44 293.00c0.6 5.6 9.6 9 5.6 18.4
	1.6 -6 -1.3 -11.6 -5.6 -12.8
"/>
<use x="481.94" y="312.00" xlink:href="#hd"/>
<path class="fill"
	d="M507.64 331.90l72.40 0.00v-3.20l-72.40 -0.00"/>
<path class="fill"
	d="M507.94 326.90l71.80 0.00v-3.20l-71.80 -0.00"/>
<use x="511.44" y="309.00" xlink:href="#hd"/>
<path d="M507.94 309.00v21.90" class="stroke"/>
<use x="511.44" y="315.00" xlink:href="#hd"/>
<use x="525.84" y="303.00" xlink:href="#hd"/>
<path d="M522.34 303.00v27.90" class="stroke"/>
<use x="540.14" y="309.00" xlink:href="#hd"/>
<path d="M536.64 309.00v21.90" class="stroke"/>
<use x="540.14" y="315.00" xlink:href="#hd"/>
<use x="554.54" y="303.00" xlink:href="#hd"/>
<path d="M551.04 303.00v27.90" class="stroke"/>
<use x="568.84" y="309.00" xlink:href="#hd"/>
<path d="M565.34 309.00v21.90" class="stroke"/>
<use x="568.84" y="315.00" xlink:href="#hd"/>
<use x="583.24" y="303.00" xlink:href="#hd"/>
<path d="M579.74 303.00v27.90" class="stroke"/>
<use x="608.24" y="309.00" xlink:href="#hd"/>
<path d="M604.74 309.00v25.00" class="stroke"/>
<use x="608.24" y="315.00" xlink:href="#hd"/>
<use x="665.64" y="312.00" xlink:href="#r8"/>
<use x="704.94" y="300.00" xlink:href="#hd"/>
<path d="M701.44 300.00v25.00" class="stroke"/>
<use x="704.94" y="306.00" xlink:href="#hd"/>
<use x="762.34" y="294.00" xlink:href="#hl"/>
<use x="762.34" y="291.00" xlink:href="#hd"/>
<path d="M758.84 291.00v31.00" class="stroke"/>
<path class="fill"
	d="M758.84 322.00c0.6 -5.6 9.6 -9 5.6 -18.4
	1.6 6 -1.3 11.6 -5.6 12.8
"/>
<use x="762.34" y="303.00" xlink:href="#hd"/>
<path class="fill"
	d="M804.94 295.70l40.50 9.60v3.20l-40.50 -9.60"/>
<use x="801.74" y="315.00" xlink:href="#hd"/>
<path d="M805.24 315.00v-18.20" class="stroke"/>
<use x="821.64" y="324.00" xlink:href="#hd"/>
<path d="M825.14 324.00v-22.50" class="stroke"/>
<use x="841.54" y="330.00" xlink:href="#hl"/>
<use x="841.54" y="336.00" xlink:href="#hl"/>
<use x="841.54" y="336.00" xlink:href="#hd"/>
<path d="M845.04 336.00v-29.70" class="stroke"/>
<use x="161.64" y="312.00" xlink:href="#hd"/>
<path d="M158.14 312.00v21.00" class="stroke"/>
<use x="433.34" y="318.00" xlink:href="#hd"/>
<path d="M429.84 318.00v21.00" class="stroke"/>
</g>
</svg>
