<?xml version="1.0" standalone="no"?>
<!DOCTYPE svg PUBLIC "-//W3C//DTD SVG 1.1//EN"
	"http://www.w3.org/Graphics/SVG/1.1/DTD/svg11.dtd">
<svg xmlns="http://www.w3.org/2000/svg" version="1.1"
	xmlns:xlink="http://www.w3.org/1999/xlink"
	color="black"
	width="757.10px" height="293.80px">
<style type="text/css">
.fill {fill: currentColor}
.stroke {stroke: currentColor; fill: none}
text{white-space: pre}
</style>
<title>./K516f-8-8-7-7-3-6-10-10-12-5-9-12-5-10-10-7.abc (3024) tune 1</title>
<!-- Creator: abcm2ps-8.13.8 -->
<!-- CreationDate: Sep  7, 2017 11:19 -->
<!-- CommandLine: ./K516f-8-8-7-7-3-6-10-10-12-5-9-12-5-10-10-7.abc -O ./K516f-8-8-7-7-3-6-10-10-12-5-9-12-5-10-10-7.svg -g -->
<rect width="100%" height="100%" fill="white"/>
<g stroke-width="0.70" transform="scale(0.867)">
<!-- title: 8-8-7-7-3-6-10-10-12-5-9-12-5-10-10-7 -->
</g>
<g stroke-width="0.70" transform="scale(0.867)" font-family="Times" font-size="20.00">
<text x="436.84" y="22.00" text-anchor="middle">8-8-7-7-3-6-10-10-12-5-9-12-5-10-10-7</text>
</g>
<g stroke-width="0.70" transform="scale(0.867)" font-family="Times" font-size="20.00">
<!-- subtitle: $1K.516f::152:60:27:167:146:97:62:123:35:176:48:92:67:38:149:151::$0 -->
</g>
<g stroke-width="0.70" transform="scale(0.867)" font-family="Courier" font-size="8.00" font-weight="bold">
<text x="436.84" y="41.80" text-anchor="middle">K.516f::152:60:27:167:146:97:62:123:35:176:48:92:67:38:149:151::</text>
</g>
<g stroke-width="0.70" transform="scale(0.867)" font-family="Courier" font-size="8.00" font-weight="bold">
<!-- subtitle: $1Perm. No.: 302421791843915$0 -->
<text x="436.84" y="60.80" text-anchor="middle">Perm. No.: 302421791843915</text>
</g>
<g stroke-width="0.70" transform="scale(0.607)" font-family="Courier" font-size="8.00" font-weight="bold">
<defs>
<ellipse id="hd" rx="4.1" ry="2.9"
	transform="rotate(-20)" class="fill"/>
</defs>
<use x="103.06" y="121.29" xlink:href="#hd"/>
<path d="M106.56 121.29v-21.00" class="stroke"/>
<path class="fill"
	d="M106.56 100.29c0.6 5.6 9.6 9 5.6 18.4
	1.6 -6 -1.3 -11.6 -5.6 -12.8
"/>
</g>
<g stroke-width="0.70" transform="scale(0.867)" font-family="Times" font-size="15.00" font-weight="bold">
<text x="81.24" y="87.00">= 111</text>
<path class="stroke" stroke-width="1"
	d="M11.54 183.00v-82.00"/>
<path class="fill"
	d="M6.54 98.00
	c10.5 1 12 -4.5 12 -3.5c0 1 -3.5 5.5 -8.5 5.5
	v84.00
	c5 0 8.5 4.5 8.5 5.5c0 1 -1.5 -4.5 -12 -3.5"/>
<defs>
<g id="rdots" class="fill">
	<circle cx="0" cy="-9" r="1.2"/>
	<circle cx="0" cy="-15" r="1.2"/>
</g>
</defs>
<use x="70.54" y="125.00" xlink:href="#rdots"/>
<path class="stroke" stroke-width="1"
	d="M66.54 125.00v-24.00"/>
<path class="stroke" stroke-width="3"
	d="M62.04 125.00v-24.00"/>
<use x="70.54" y="183.00" xlink:href="#rdots"/>
<path class="stroke" stroke-width="1"
	d="M66.54 183.00v-58.00"/>
<path class="stroke" stroke-width="3"
	d="M62.04 183.00v-58.00"/>
<path class="stroke" stroke-width="1"
	d="M169.14 125.00v-24.00"/>
<path class="stroke" stroke-width="1"
	d="M169.14 183.00v-58.00"/>
<path class="stroke" stroke-width="1"
	d="M266.74 125.00v-24.00"/>
<path class="stroke" stroke-width="1"
	d="M266.74 183.00v-58.00"/>
<path class="stroke" stroke-width="1"
	d="M373.94 125.00v-24.00"/>
<path class="stroke" stroke-width="1"
	d="M373.94 183.00v-58.00"/>
<path class="stroke" stroke-width="1"
	d="M460.44 125.00v-24.00"/>
<path class="stroke" stroke-width="1"
	d="M460.44 183.00v-58.00"/>
<path class="stroke" stroke-width="1"
	d="M543.04 125.00v-24.00"/>
<path class="stroke" stroke-width="1"
	d="M543.04 183.00v-58.00"/>
<path class="stroke" stroke-width="1"
	d="M652.04 125.00v-24.00"/>
<path class="stroke" stroke-width="1"
	d="M652.04 183.00v-58.00"/>
<path class="stroke" stroke-width="1"
	d="M761.04 125.00v-24.00"/>
<path class="stroke" stroke-width="1"
	d="M761.04 183.00v-58.00"/>
<path class="stroke" stroke-width="3"
	d="M860.54 125.00v-24.00"/>
<path class="stroke" stroke-width="1"
	d="M856.04 125.00v-24.00"/>
<use x="852.04" y="125.00" xlink:href="#rdots"/>
<path class="stroke" stroke-width="3"
	d="M860.54 183.00v-58.00"/>
<path class="stroke" stroke-width="1"
	d="M856.04 183.00v-58.00"/>
<use x="852.04" y="183.00" xlink:href="#rdots"/>
<path d="m11.54 125.00
	h850.50
	M11.54 119.00
	h850.50
	M11.54 113.00
	h850.50
	M11.54 107.00
	h850.50
	M11.54 101.00
	h850.50
	" class="stroke"/>
<path d="m11.54 183.00
	h850.50
	M11.54 177.00
	h850.50
	M11.54 171.00
	h850.50
	M11.54 165.00
	h850.50
	M11.54 159.00
	h850.50
	" class="stroke"/>
</g>
<g stroke-width="0.70" transform="scale(0.867)" font-family="Times" font-size="13.00">
<text x="765.04" y="86.40">1</text>
<path class="stroke"
	d="M761.04 75.00m0 20v-20h93.00v20"/>
<defs>
<path id="utclef" class="fill" d="m-50 -90
	c-72 -41 -72 -158 52 -188
	150 -10 220 188 90 256
	-114 52 -275 0 -293 -136
	-15 -181 93 -229 220 -334
	88 -87 79 -133 62 -210
	-51 33 -94 105 -89 186
	17 267 36 374 49 574
	6 96 -19 134 -77 135
	-80 1 -126 -93 -61 -133
	85 -41 133 101 31 105
	23 17 92 37 90 -92
	-10 -223 -39 -342 -50 -617
	0 -90 0 -162 96 -232
	56 72 63 230 22 289
	-74 106 -257 168 -255 316
	9 153 148 185 252 133
	86 -65 29 -192 -80 -176
	-71 12 -105 67 -59 124"/>
<use id="tclef" transform="translate(0,6) scale(0.045)"
	xlink:href="#utclef"/>
</defs>
<use x="23.54" y="119.00" xlink:href="#tclef"/>
<g font-family="serif" font-size="16" font-weight="bold" font-style="normal"
	transform="translate(42.04,124.50) scale(1.2,1)">
	<text text-anchor="middle">8</text>
	<text y="-12" text-anchor="middle">3</text>
</g>
<path class="fill"
	d="M80.74 123.10l72.40 9.20v-3.20l-72.40 -9.20"/>
<path class="fill"
	d="M103.94 121.00l48.80 6.20v-3.20l-48.80 -6.20"/>
<use x="84.54" y="98.00" xlink:href="#hd"/>
<path d="M81.04 98.00v24.10" class="stroke"/>
<use x="107.44" y="101.00" xlink:href="#hd"/>
<path d="M103.94 101.00v24.00" class="stroke"/>
<use x="123.74" y="104.00" xlink:href="#hd"/>
<path d="M120.24 104.00v23.10" class="stroke"/>
<use x="139.94" y="107.00" xlink:href="#hd"/>
<path d="M136.44 107.00v22.10" class="stroke"/>
<use x="156.24" y="110.00" xlink:href="#hd"/>
<path d="M152.74 110.00v21.20" class="stroke"/>
<path class="fill"
	d="M178.34 123.10l72.40 9.20v-3.20l-72.40 -9.20"/>
<path class="fill"
	d="M201.54 121.00l48.80 6.20v-3.20l-48.80 -6.20"/>
<use x="182.14" y="98.00" xlink:href="#hd"/>
<path d="M178.64 98.00v24.10" class="stroke"/>
<use x="205.04" y="101.00" xlink:href="#hd"/>
<path d="M201.54 101.00v24.00" class="stroke"/>
<use x="221.34" y="104.00" xlink:href="#hd"/>
<path d="M217.84 104.00v23.10" class="stroke"/>
<use x="237.54" y="107.00" xlink:href="#hd"/>
<path d="M234.04 107.00v22.10" class="stroke"/>
<use x="253.84" y="110.00" xlink:href="#hd"/>
<path d="M250.34 110.00v21.20" class="stroke"/>
<path class="fill"
	d="M275.84 129.10l82.10 6.20v-3.20l-82.10 -6.20"/>
<path class="fill"
	d="M276.24 124.10l81.40 6.10v-3.20l-81.40 -6.10"/>
<use x="279.74" y="101.00" xlink:href="#hd"/>
<path d="M276.24 101.00v27.10" class="stroke"/>
<use x="296.04" y="104.00" xlink:href="#hd"/>
<path d="M292.54 104.00v25.30" class="stroke"/>
<use x="312.24" y="101.00" xlink:href="#hd"/>
<path d="M308.74 101.00v29.50" class="stroke"/>
<use x="328.54" y="107.00" xlink:href="#hd"/>
<path d="M325.04 107.00v24.80" class="stroke"/>
<use x="344.84" y="110.00" xlink:href="#hd"/>
<path d="M341.34 110.00v23.00" class="stroke"/>
<use x="361.14" y="113.00" xlink:href="#hd"/>
<path d="M357.64 113.00v21.20" class="stroke"/>
<path class="fill"
	d="M383.14 133.00l56.10 0.00v-3.20l-56.10 -0.00"/>
<path class="fill"
	d="M406.34 128.00l16.30 0.00v-3.20l-16.30 -0.00"/>
<use x="386.94" y="110.00" xlink:href="#hd"/>
<path d="M383.44 110.00v21.90" class="stroke"/>
<use x="409.84" y="110.00" xlink:href="#hd"/>
<path d="M406.34 110.00v21.90" class="stroke"/>
<use x="426.14" y="107.00" xlink:href="#hd"/>
<path d="M422.64 107.00v24.90" class="stroke"/>
<use x="442.44" y="104.00" xlink:href="#hd"/>
<path d="M438.94 104.00v27.90" class="stroke"/>
<path class="fill"
	d="M475.04 139.30l46.80 -8.30v-3.20l-46.80 8.30"/>
<use x="478.94" y="107.00" xlink:href="#hd"/>
<path d="M475.44 107.00v31.20" class="stroke"/>
<use x="478.94" y="122.00" xlink:href="#hd"/>
<defs>
<path id="usharp" class="fill" d="
	m136 -702
	v890
	h32
	v-890
	m128 840
	h32
	v-888
	h-32
	m-232 286
	v116
	l338 -96
	v-116
	m-338 442
	v116
	l338 -98
	v-114"/>
<use id="sh0" transform="translate(-4,5) scale(0.018)"
	xlink:href="#usharp"/>
</defs>
<use x="469.94" y="122.00" xlink:href="#sh0"/>
<use x="502.14" y="101.00" xlink:href="#hd"/>
<use x="493.14" y="101.00" xlink:href="#sh0"/>
<path d="M498.64 101.00v33.10" class="stroke"/>
<use x="502.14" y="107.00" xlink:href="#hd"/>
<defs>
<path id="hl" class="stroke" d="m-6 0h12"/>
</defs>
<use x="525.04" y="95.00" xlink:href="#hl"/>
<use x="525.04" y="95.00" xlink:href="#hd"/>
<path d="M521.54 95.00v35.00" class="stroke"/>
<use x="525.04" y="101.00" xlink:href="#hd"/>
<path class="fill"
	d="M552.24 131.30l83.80 9.90v-3.20l-83.80 -9.90"/>
<path class="fill"
	d="M552.54 126.40l83.10 9.80v-3.20l-83.10 -9.80"/>
<use x="556.04" y="98.00" xlink:href="#hd"/>
<path d="M552.54 98.00v32.40" class="stroke"/>
<use x="574.04" y="101.00" xlink:href="#hd"/>
<use x="565.04" y="101.00" xlink:href="#sh0"/>
<path d="M570.54 101.00v31.50" class="stroke"/>
<use x="590.34" y="98.00" xlink:href="#hd"/>
<path d="M586.84 98.00v36.40" class="stroke"/>
<use x="606.64" y="107.00" xlink:href="#hd"/>
<path d="M603.14 107.00v29.30" class="stroke"/>
<use x="622.84" y="113.00" xlink:href="#hd"/>
<path d="M619.34 113.00v25.30" class="stroke"/>
<use x="639.14" y="119.00" xlink:href="#hd"/>
<path d="M635.64 119.00v21.20" class="stroke"/>
<path class="fill"
	d="M668.14 81.80l83.80 8.00v3.20l-83.80 -8.00"/>
<path class="fill"
	d="M668.54 86.80l83.10 7.90v3.20l-83.10 -7.90"/>
<use x="665.04" y="104.00" xlink:href="#hd"/>
<path d="M668.54 104.00v-21.20" class="stroke"/>
<use x="681.34" y="110.00" xlink:href="#hd"/>
<path d="M684.84 110.00v-25.60" class="stroke"/>
<use x="697.54" y="113.00" xlink:href="#hd"/>
<path d="M701.04 113.00v-27.10" class="stroke"/>
<use x="713.84" y="119.00" xlink:href="#hd"/>
<path d="M717.34 119.00v-31.50" class="stroke"/>
<use x="730.14" y="116.00" xlink:href="#hd"/>
<path d="M733.64 116.00v-27.00" class="stroke"/>
<use x="748.14" y="122.00" xlink:href="#hd"/>
<use x="739.14" y="122.00" xlink:href="#sh0"/>
<path d="M751.64 122.00v-31.30" class="stroke"/>
<use x="774.04" y="98.00" xlink:href="#hd"/>
<path d="M770.54 98.00v40.00" class="stroke"/>
<use x="774.04" y="119.00" xlink:href="#hd"/>
<use x="774.04" y="113.00" xlink:href="#hd"/>
<use x="774.04" y="107.00" xlink:href="#hd"/>
<defs>
<path id="r8e" class="fill" d="m 0 0
	c-1.5 1.5 -2.4 2 -3.6 2
	2.4 -2.8 -2.8 -4 -2.8 -1.2
	c0 2.7 4.3 2.4 5.9 0.6"/>
<g id="r8">
	<path d="m3.3 -4l-3.4 9.6" class="stroke"/>
	<use x="3.4" y="-4" xlink:href="#r8e"/>
</g>
</defs>
<use x="831.14" y="113.00" xlink:href="#r8"/>
<defs>
<path id="ubclef" class="fill" d="m-200 -87
	c124 -35 222 -78 254 -236
	43 -228 -167 -246 -192 -103
	59 -80 157 22 92 78
	-62 47 -115 -22 -106 -88
	21 -141 270 -136 274 52
	-1 175 -106 264 -322 297
	m357 -250
	c0 -36 51 -34 51 0
	0 37 -51 36 -51 0
	m-2 -129
	c0 -36 51 -34 51 0
	0 38 -51 37 -51 0"/>
<use id="bclef" transform="translate(0,18) scale(0.045)"
	xlink:href="#ubclef"/>
</defs>
<use x="23.54" y="165.00" xlink:href="#bclef"/>
<g font-family="serif" font-size="16" font-weight="bold" font-style="normal"
	transform="translate(42.04,182.50) scale(1.2,1)">
	<text text-anchor="middle">8</text>
	<text y="-12" text-anchor="middle">3</text>
</g>
<use x="84.54" y="168.00" xlink:href="#hd"/>
<path d="M81.04 168.00v25.00" class="stroke"/>
<use x="84.54" y="174.00" xlink:href="#hd"/>
<use x="139.94" y="171.00" xlink:href="#r8"/>
<use x="182.14" y="168.00" xlink:href="#hd"/>
<path d="M178.64 168.00v25.00" class="stroke"/>
<use x="182.14" y="174.00" xlink:href="#hd"/>
<use x="237.54" y="171.00" xlink:href="#r8"/>
<use x="279.74" y="156.00" xlink:href="#hd"/>
<path d="M276.24 156.00v25.00" class="stroke"/>
<use x="279.74" y="162.00" xlink:href="#hd"/>
<use x="344.84" y="171.00" xlink:href="#r8"/>
<use x="386.94" y="168.00" xlink:href="#hd"/>
<path d="M383.44 168.00v25.00" class="stroke"/>
<use x="386.94" y="174.00" xlink:href="#hd"/>
<use x="442.44" y="171.00" xlink:href="#r8"/>
<path class="fill"
	d="M482.04 153.00l46.80 0.00v3.20l-46.80 -0.00"/>
<use x="478.94" y="174.00" xlink:href="#hd"/>
<path d="M482.44 174.00v-20.00" class="stroke"/>
<use x="502.14" y="174.00" xlink:href="#hd"/>
<path d="M505.64 174.00v-20.00" class="stroke"/>
<use x="525.04" y="174.00" xlink:href="#hd"/>
<path d="M528.54 174.00v-20.00" class="stroke"/>
<use x="556.04" y="177.00" xlink:href="#hd"/>
<path d="M559.54 177.00v-25.00" class="stroke"/>
<use x="556.04" y="171.00" xlink:href="#hd"/>
<use x="622.84" y="162.00" xlink:href="#hd"/>
<path d="M619.34 162.00v34.00" class="stroke"/>
<path class="fill"
	d="M619.34 196.00c0.6 -5.6 9.6 -9 5.6 -18.4
	1.6 6 -1.3 11.6 -5.6 12.8
"/>
<use x="622.84" y="177.00" xlink:href="#hd"/>
<path class="fill"
	d="M668.14 147.70l65.80 8.20v3.20l-65.80 -8.20"/>
<use x="665.04" y="174.00" xlink:href="#hd"/>
<path d="M668.54 174.00v-25.30" class="stroke"/>
<use x="697.54" y="171.00" xlink:href="#hd"/>
<path d="M701.04 171.00v-18.20" class="stroke"/>
<use x="730.14" y="189.00" xlink:href="#hl"/>
<use x="730.14" y="192.00" xlink:href="#hd"/>
<path d="M733.64 192.00v-35.10" class="stroke"/>
<path class="fill"
	d="M770.14 202.20l74.10 0.00v-3.20l-74.10 -0.00"/>
<path class="fill"
	d="M793.34 197.20l50.60 0.00v-3.20l-50.60 -0.00"/>
<use x="774.04" y="183.00" xlink:href="#hd"/>
<path d="M770.54 183.00v18.20" class="stroke"/>
<use x="796.84" y="162.00" xlink:href="#hd"/>
<path d="M793.34 162.00v39.20" class="stroke"/>
<use x="814.84" y="165.00" xlink:href="#hd"/>
<defs>
<path id="unat" class="fill" d="
	m96 -750
	h-32
	v716
	l32 -8
	182 -54
	v282
	h32
	v-706
	l-34 10
	-180 50
	v-290
	m0 592
	v-190
	l182 -52
	v188"/>
<use id="nt0" transform="translate(-3,5) scale(0.018)"
	xlink:href="#unat"/>
</defs>
<use x="805.84" y="165.00" xlink:href="#nt0"/>
<path d="M811.34 165.00v36.20" class="stroke"/>
<use x="831.14" y="168.00" xlink:href="#hd"/>
<path d="M827.64 168.00v33.20" class="stroke"/>
<use x="847.44" y="171.00" xlink:href="#hd"/>
<path d="M843.94 171.00v30.20" class="stroke"/>
</g>
<g stroke-width="0.70" transform="scale(0.867)" font-family="Times" font-size="13.00">
<path class="stroke" stroke-width="1"
	d="M11.54 316.00v-82.00"/>
<path class="fill"
	d="M6.54 231.00
	c10.5 1 12 -4.5 12 -3.5c0 1 -3.5 5.5 -8.5 5.5
	v84.00
	c5 0 8.5 4.5 8.5 5.5c0 1 -1.5 -4.5 -12 -3.5"/>
<use x="145.64" y="258.00" xlink:href="#rdots"/>
<path class="stroke" stroke-width="1"
	d="M141.64 258.00v-24.00"/>
<path class="stroke" stroke-width="3"
	d="M137.14 258.00v-24.00"/>
<use x="145.64" y="316.00" xlink:href="#rdots"/>
<path class="stroke" stroke-width="1"
	d="M141.64 316.00v-58.00"/>
<path class="stroke" stroke-width="3"
	d="M137.14 316.00v-58.00"/>
<path class="stroke" stroke-width="1"
	d="M225.64 258.00v-24.00"/>
<path class="stroke" stroke-width="1"
	d="M225.64 316.00v-58.00"/>
<path class="stroke" stroke-width="1"
	d="M327.24 258.00v-24.00"/>
<path class="stroke" stroke-width="1"
	d="M327.24 316.00v-58.00"/>
<path class="stroke" stroke-width="1"
	d="M419.64 258.00v-24.00"/>
<path class="stroke" stroke-width="1"
	d="M419.64 316.00v-58.00"/>
<path class="stroke" stroke-width="1"
	d="M501.24 258.00v-24.00"/>
<path class="stroke" stroke-width="1"
	d="M501.24 316.00v-58.00"/>
<path class="stroke" stroke-width="1"
	d="M602.84 258.00v-24.00"/>
<path class="stroke" stroke-width="1"
	d="M602.84 316.00v-58.00"/>
<path class="stroke" stroke-width="1"
	d="M704.44 258.00v-24.00"/>
<path class="stroke" stroke-width="1"
	d="M704.44 316.00v-58.00"/>
<path class="stroke" stroke-width="1"
	d="M786.04 258.00v-24.00"/>
<path class="stroke" stroke-width="1"
	d="M786.04 316.00v-58.00"/>
<path class="stroke" stroke-width="3"
	d="M860.54 258.00v-24.00"/>
<path class="stroke" stroke-width="1"
	d="M856.04 258.00v-24.00"/>
<use x="852.04" y="258.00" xlink:href="#rdots"/>
<path class="stroke" stroke-width="3"
	d="M860.54 316.00v-58.00"/>
<path class="stroke" stroke-width="1"
	d="M856.04 316.00v-58.00"/>
<use x="852.04" y="316.00" xlink:href="#rdots"/>
<path d="m11.54 258.00
	h850.50
	M11.54 252.00
	h850.50
	M11.54 246.00
	h850.50
	M11.54 240.00
	h850.50
	M11.54 234.00
	h850.50
	" class="stroke"/>
<path d="m11.54 316.00
	h850.50
	M11.54 310.00
	h850.50
	M11.54 304.00
	h850.50
	M11.54 298.00
	h850.50
	M11.54 292.00
	h850.50
	" class="stroke"/>
<text x="47.54" y="219.40">2</text>
<path class="stroke"
	d="M43.54 208.00m0 20v-20h91.10v20"/>
<use x="23.54" y="252.00" xlink:href="#tclef"/>
<use x="56.04" y="231.00" xlink:href="#hd"/>
<path d="M52.54 231.00v40.00" class="stroke"/>
<use x="56.04" y="252.00" xlink:href="#hd"/>
<use x="56.04" y="246.00" xlink:href="#hd"/>
<use x="56.04" y="240.00" xlink:href="#hd"/>
<use x="110.84" y="246.00" xlink:href="#r8"/>
<path class="fill"
	d="M161.34 268.20l44.10 -6.50v-3.20l-44.10 6.50"/>
<use x="165.14" y="249.00" xlink:href="#hd"/>
<path d="M161.64 249.00v18.20" class="stroke"/>
<use x="186.64" y="240.00" xlink:href="#hd"/>
<path d="M183.14 240.00v24.10" class="stroke"/>
<use x="208.64" y="234.00" xlink:href="#hd"/>
<use x="199.64" y="234.00" xlink:href="#sh0"/>
<path d="M205.14 234.00v26.80" class="stroke"/>
<path class="fill"
	d="M234.24 260.00l77.30 0.00v-3.20l-77.30 -0.00"/>
<path class="fill"
	d="M234.64 255.00l76.60 0.00v-3.20l-76.60 -0.00"/>
<use x="238.14" y="228.00" xlink:href="#hl"/>
<use x="238.14" y="228.00" xlink:href="#hd"/>
<path d="M234.64 228.00v31.00" class="stroke"/>
<use x="253.44" y="231.00" xlink:href="#hd"/>
<path d="M249.94 231.00v28.00" class="stroke"/>
<use x="268.74" y="228.00" xlink:href="#hl"/>
<use x="268.74" y="225.00" xlink:href="#hd"/>
<path d="M265.24 225.00v34.00" class="stroke"/>
<use x="284.04" y="231.00" xlink:href="#hd"/>
<path d="M280.54 231.00v28.00" class="stroke"/>
<use x="299.34" y="240.00" xlink:href="#hd"/>
<path d="M295.84 240.00v19.00" class="stroke"/>
<use x="314.74" y="231.00" xlink:href="#hd"/>
<path d="M311.24 231.00v28.00" class="stroke"/>
<path class="fill"
	d="M335.84 267.50l68.10 -7.30v-3.20l-68.10 7.30"/>
<path class="fill"
	d="M357.64 260.20l46.00 -4.90v-3.20l-46.00 4.90"/>
<use x="339.74" y="237.00" xlink:href="#hd"/>
<path d="M336.24 237.00v29.50" class="stroke"/>
<use x="361.14" y="243.00" xlink:href="#hd"/>
<path d="M357.64 243.00v21.20" class="stroke"/>
<use x="376.54" y="237.00" xlink:href="#hd"/>
<path d="M373.04 237.00v25.60" class="stroke"/>
<use x="391.84" y="231.00" xlink:href="#hd"/>
<path d="M388.34 231.00v29.90" class="stroke"/>
<use x="407.14" y="228.00" xlink:href="#hl"/>
<use x="407.14" y="222.00" xlink:href="#hl"/>
<use x="407.14" y="222.00" xlink:href="#hd"/>
<path d="M403.64 222.00v37.30" class="stroke"/>
<path class="fill"
	d="M428.34 264.20l52.80 0.00v-3.20l-52.80 -0.00"/>
<path class="fill"
	d="M450.14 259.20l15.30 0.00v-3.20l-15.30 -0.00"/>
<use x="432.14" y="240.00" xlink:href="#hd"/>
<path d="M428.64 240.00v23.20" class="stroke"/>
<use x="432.14" y="246.00" xlink:href="#hd"/>
<use x="453.64" y="231.00" xlink:href="#hd"/>
<path d="M450.14 231.00v32.20" class="stroke"/>
<use x="468.94" y="228.00" xlink:href="#hl"/>
<use x="468.94" y="225.00" xlink:href="#hd"/>
<path d="M465.44 225.00v38.20" class="stroke"/>
<use x="484.24" y="240.00" xlink:href="#hd"/>
<path d="M480.74 240.00v23.20" class="stroke"/>
<path class="fill"
	d="M509.94 274.20l77.30 0.00v-3.20l-77.30 -0.00"/>
<path class="fill"
	d="M510.24 269.20l76.60 0.00v-3.20l-76.60 -0.00"/>
<use x="513.74" y="243.00" xlink:href="#hd"/>
<path d="M510.24 243.00v30.20" class="stroke"/>
<use x="529.04" y="246.00" xlink:href="#hd"/>
<path d="M525.54 246.00v27.20" class="stroke"/>
<use x="544.44" y="243.00" xlink:href="#hd"/>
<path d="M540.94 243.00v30.20" class="stroke"/>
<use x="559.74" y="237.00" xlink:href="#hd"/>
<path d="M556.24 237.00v36.20" class="stroke"/>
<use x="575.04" y="252.00" xlink:href="#hd"/>
<path d="M571.54 252.00v21.20" class="stroke"/>
<use x="590.34" y="243.00" xlink:href="#hd"/>
<path d="M586.84 243.00v30.20" class="stroke"/>
<path class="fill"
	d="M611.54 272.80l62.00 -3.30v-3.20l-62.00 3.30"/>
<use x="615.34" y="243.00" xlink:href="#hd"/>
<path d="M611.84 243.00v28.80" class="stroke"/>
<use x="646.04" y="252.00" xlink:href="#hd"/>
<path d="M642.54 252.00v18.20" class="stroke"/>
<use x="676.64" y="237.00" xlink:href="#hd"/>
<path d="M673.14 237.00v31.60" class="stroke"/>
<path class="fill"
	d="M713.14 264.70l52.80 5.90v-3.20l-52.80 -5.90"/>
<path class="fill"
	d="M713.44 259.80l15.30 1.70v-3.20l-15.30 -1.70"/>
<use x="716.94" y="234.00" xlink:href="#hd"/>
<path d="M713.44 234.00v29.80" class="stroke"/>
<use x="732.34" y="240.00" xlink:href="#hd"/>
<path d="M728.84 240.00v25.50" class="stroke"/>
<use x="747.64" y="249.00" xlink:href="#hd"/>
<path d="M744.14 249.00v18.20" class="stroke"/>
<use x="769.04" y="246.00" xlink:href="#hd"/>
<path d="M765.54 246.00v23.60" class="stroke"/>
<use x="798.54" y="243.00" xlink:href="#hd"/>
<path d="M795.04 243.00v21.00" class="stroke"/>
<use x="841.54" y="246.00" xlink:href="#r8"/>
<use x="23.54" y="298.00" xlink:href="#bclef"/>
<path class="fill"
	d="M52.24 335.20l70.80 -5.10v-3.20l-70.80 5.10"/>
<path class="fill"
	d="M74.04 328.70l48.60 -3.50v-3.20l-48.60 3.50"/>
<use x="56.04" y="316.00" xlink:href="#hd"/>
<path d="M52.54 316.00v18.20" class="stroke"/>
<use x="77.54" y="289.00" xlink:href="#hd"/>
<path d="M74.04 289.00v43.70" class="stroke"/>
<use x="92.84" y="295.00" xlink:href="#hd"/>
<path d="M89.34 295.00v36.60" class="stroke"/>
<use x="110.84" y="298.00" xlink:href="#hd"/>
<use x="101.84" y="298.00" xlink:href="#sh0"/>
<path d="M107.34 298.00v32.30" class="stroke"/>
<use x="126.14" y="301.00" xlink:href="#hd"/>
<path d="M122.64 301.00v28.20" class="stroke"/>
<use x="165.14" y="298.00" xlink:href="#hd"/>
<use x="156.14" y="298.00" xlink:href="#sh0"/>
<path d="M161.64 298.00v25.00" class="stroke"/>
<use x="165.14" y="304.00" xlink:href="#hd"/>
<use x="208.64" y="292.00" xlink:href="#hd"/>
<path d="M205.14 292.00v34.00" class="stroke"/>
<path class="fill"
	d="M205.14 326.00c0.6 -5.6 9.6 -9 5.6 -18.4
	1.6 6 -1.3 11.6 -5.6 12.8
"/>
<use x="208.64" y="307.00" xlink:href="#hd"/>
<use x="238.14" y="310.00" xlink:href="#hd"/>
<path d="M241.64 310.00v-25.00" class="stroke"/>
<use x="238.14" y="304.00" xlink:href="#hd"/>
<use x="299.34" y="310.00" xlink:href="#hd"/>
<path d="M302.84 310.00v-25.00" class="stroke"/>
<path class="fill"
	d="M302.84 285.00c0.6 5.6 9.6 9 5.6 18.4
	1.6 -6 -1.3 -11.6 -5.6 -12.8
"/>
<use x="299.34" y="304.00" xlink:href="#hd"/>
<use x="339.74" y="295.00" xlink:href="#hd"/>
<path d="M336.24 295.00v31.00" class="stroke"/>
<use x="339.74" y="307.00" xlink:href="#hd"/>
<use x="391.84" y="301.00" xlink:href="#hd"/>
<path d="M388.34 301.00v25.00" class="stroke"/>
<path class="fill"
	d="M388.34 326.00c0.6 -5.6 9.6 -9 5.6 -18.4
	1.6 6 -1.3 11.6 -5.6 12.8
"/>
<use x="391.84" y="307.00" xlink:href="#hd"/>
<use x="432.14" y="316.00" xlink:href="#hd"/>
<path d="M435.64 316.00v-40.00" class="stroke"/>
<use x="432.14" y="295.00" xlink:href="#hd"/>
<use x="484.24" y="295.00" xlink:href="#hd"/>
<path d="M480.74 295.00v21.00" class="stroke"/>
<path class="fill"
	d="M480.74 316.00c0.6 -5.6 9.6 -9 5.6 -18.4
	1.6 6 -1.3 11.6 -5.6 12.8
"/>
<use x="513.74" y="301.00" xlink:href="#hd"/>
<path d="M510.24 301.00v25.00" class="stroke"/>
<use x="513.74" y="307.00" xlink:href="#hd"/>
<use x="575.04" y="295.00" xlink:href="#hd"/>
<path d="M571.54 295.00v25.00" class="stroke"/>
<path class="fill"
	d="M571.54 320.00c0.6 -5.6 9.6 -9 5.6 -18.4
	1.6 6 -1.3 11.6 -5.6 12.8
"/>
<use x="575.04" y="301.00" xlink:href="#hd"/>
<path class="fill"
	d="M611.54 323.90l77.30 0.00v-3.20l-77.30 -0.00"/>
<path class="fill"
	d="M611.84 318.90l76.60 0.00v-3.20l-76.60 -0.00"/>
<use x="615.34" y="301.00" xlink:href="#hd"/>
<path d="M611.84 301.00v21.90" class="stroke"/>
<use x="615.34" y="307.00" xlink:href="#hd"/>
<use x="630.64" y="295.00" xlink:href="#hd"/>
<path d="M627.14 295.00v27.90" class="stroke"/>
<use x="646.04" y="301.00" xlink:href="#hd"/>
<path d="M642.54 301.00v21.90" class="stroke"/>
<use x="646.04" y="307.00" xlink:href="#hd"/>
<use x="661.34" y="295.00" xlink:href="#hd"/>
<path d="M657.84 295.00v27.90" class="stroke"/>
<use x="676.64" y="301.00" xlink:href="#hd"/>
<path d="M673.14 301.00v21.90" class="stroke"/>
<use x="676.64" y="307.00" xlink:href="#hd"/>
<use x="691.94" y="295.00" xlink:href="#hd"/>
<path d="M688.44 295.00v27.90" class="stroke"/>
<use x="716.94" y="298.00" xlink:href="#hd"/>
<path d="M713.44 298.00v21.00" class="stroke"/>
<use x="769.04" y="295.00" xlink:href="#hd"/>
<path d="M765.54 295.00v21.00" class="stroke"/>
<path class="fill"
	d="M765.54 316.00c0.6 -5.6 9.6 -9 5.6 -18.4
	1.6 6 -1.3 11.6 -5.6 12.8
"/>
<path class="fill"
	d="M801.74 287.70l43.60 9.90v3.20l-43.60 -9.90"/>
<use x="798.54" y="307.00" xlink:href="#hd"/>
<path d="M802.04 307.00v-18.20" class="stroke"/>
<use x="820.04" y="316.00" xlink:href="#hd"/>
<path d="M823.54 316.00v-22.30" class="stroke"/>
<use x="841.54" y="322.00" xlink:href="#hl"/>
<use x="841.54" y="328.00" xlink:href="#hl"/>
<use x="841.54" y="328.00" xlink:href="#hd"/>
<path d="M845.04 328.00v-29.40" class="stroke"/>
</g>
</svg>
