<?xml version="1.0" standalone="no"?>
<!DOCTYPE svg PUBLIC "-//W3C//DTD SVG 1.1//EN"
	"http://www.w3.org/Graphics/SVG/1.1/DTD/svg11.dtd">
<svg xmlns="http://www.w3.org/2000/svg" version="1.1"
	xmlns:xlink="http://www.w3.org/1999/xlink"
	color="black"
	width="757.10px" height="293.80px">
<style type="text/css">
.fill {fill: currentColor}
.stroke {stroke: currentColor; fill: none}
text{white-space: pre}
</style>
<title>./K516f-5-10-2-4-2-11-10-9-8-10-8-4-3-9-3-6.abc (5684) tune 1</title>
<!-- Creator: abcm2ps-8.13.8 -->
<!-- CreationDate: Sep  7, 2017 11:18 -->
<!-- CommandLine: ./K516f-5-10-2-4-2-11-10-9-8-10-8-4-3-9-3-6.abc -O ./K516f-5-10-2-4-2-11-10-9-8-10-8-4-3-9-3-6.svg -g -->
<rect width="100%" height="100%" fill="white"/>
<g stroke-width="0.70" transform="scale(0.867)">
<!-- title: 5-10-2-4-2-11-10-9-8-10-8-4-3-9-3-6 -->
</g>
<g stroke-width="0.70" transform="scale(0.867)" font-family="Times" font-size="20.00">
<text x="436.84" y="22.00" text-anchor="middle">5-10-2-4-2-11-10-9-8-10-8-4-3-9-3-6</text>
</g>
<g stroke-width="0.70" transform="scale(0.867)" font-family="Times" font-size="20.00">
<!-- subtitle: $1K.516f::40:142:141:13:105:47:62:94:16:77:57:132:174:115:116:93::$0 -->
</g>
<g stroke-width="0.70" transform="scale(0.867)" font-family="Courier" font-size="8.00" font-weight="bold">
<text x="436.84" y="41.80" text-anchor="middle">K.516f::40:142:141:13:105:47:62:94:16:77:57:132:174:115:116:93::</text>
</g>
<g stroke-width="0.70" transform="scale(0.867)" font-family="Courier" font-size="8.00" font-weight="bold">
<!-- subtitle: $1Perm. No.: 56844892405712$0 -->
<text x="436.84" y="60.80" text-anchor="middle">Perm. No.: 56844892405712</text>
</g>
<g stroke-width="0.70" transform="scale(0.607)" font-family="Courier" font-size="8.00" font-weight="bold">
<defs>
<ellipse id="hd" rx="4.1" ry="2.9"
	transform="rotate(-20)" class="fill"/>
</defs>
<use x="103.06" y="121.29" xlink:href="#hd"/>
<path d="M106.56 121.29v-21.00" class="stroke"/>
<path class="fill"
	d="M106.56 100.29c0.6 5.6 9.6 9 5.6 18.4
	1.6 -6 -1.3 -11.6 -5.6 -12.8
"/>
</g>
<g stroke-width="0.70" transform="scale(0.867)" font-family="Times" font-size="15.00" font-weight="bold">
<text x="81.24" y="87.00">= 111</text>
<path class="stroke" stroke-width="1"
	d="M11.54 183.00v-82.00"/>
<path class="fill"
	d="M6.54 98.00
	c10.5 1 12 -4.5 12 -3.5c0 1 -3.5 5.5 -8.5 5.5
	v84.00
	c5 0 8.5 4.5 8.5 5.5c0 1 -1.5 -4.5 -12 -3.5"/>
<defs>
<g id="rdots" class="fill">
	<circle cx="0" cy="-9" r="1.2"/>
	<circle cx="0" cy="-15" r="1.2"/>
</g>
</defs>
<use x="70.54" y="125.00" xlink:href="#rdots"/>
<path class="stroke" stroke-width="1"
	d="M66.54 125.00v-24.00"/>
<path class="stroke" stroke-width="3"
	d="M62.04 125.00v-24.00"/>
<use x="70.54" y="183.00" xlink:href="#rdots"/>
<path class="stroke" stroke-width="1"
	d="M66.54 183.00v-58.00"/>
<path class="stroke" stroke-width="3"
	d="M62.04 183.00v-58.00"/>
<path class="stroke" stroke-width="1"
	d="M182.14 125.00v-24.00"/>
<path class="stroke" stroke-width="1"
	d="M182.14 183.00v-58.00"/>
<path class="stroke" stroke-width="1"
	d="M261.44 125.00v-24.00"/>
<path class="stroke" stroke-width="1"
	d="M261.44 183.00v-58.00"/>
<path class="stroke" stroke-width="1"
	d="M372.14 125.00v-24.00"/>
<path class="stroke" stroke-width="1"
	d="M372.14 183.00v-58.00"/>
<path class="stroke" stroke-width="1"
	d="M451.44 125.00v-24.00"/>
<path class="stroke" stroke-width="1"
	d="M451.44 183.00v-58.00"/>
<path class="stroke" stroke-width="1"
	d="M557.24 125.00v-24.00"/>
<path class="stroke" stroke-width="1"
	d="M557.24 183.00v-58.00"/>
<path class="stroke" stroke-width="1"
	d="M646.54 125.00v-24.00"/>
<path class="stroke" stroke-width="1"
	d="M646.54 183.00v-58.00"/>
<path class="stroke" stroke-width="1"
	d="M758.34 125.00v-24.00"/>
<path class="stroke" stroke-width="1"
	d="M758.34 183.00v-58.00"/>
<path class="stroke" stroke-width="3"
	d="M860.54 125.00v-24.00"/>
<path class="stroke" stroke-width="1"
	d="M856.04 125.00v-24.00"/>
<use x="852.04" y="125.00" xlink:href="#rdots"/>
<path class="stroke" stroke-width="3"
	d="M860.54 183.00v-58.00"/>
<path class="stroke" stroke-width="1"
	d="M856.04 183.00v-58.00"/>
<use x="852.04" y="183.00" xlink:href="#rdots"/>
<path d="m11.54 125.00
	h850.50
	M11.54 119.00
	h850.50
	M11.54 113.00
	h850.50
	M11.54 107.00
	h850.50
	M11.54 101.00
	h850.50
	" class="stroke"/>
<path d="m11.54 183.00
	h850.50
	M11.54 177.00
	h850.50
	M11.54 171.00
	h850.50
	M11.54 165.00
	h850.50
	M11.54 159.00
	h850.50
	" class="stroke"/>
<path class="fill"
	d="M385.44 121.00c6.77 5.37 36.66 10.60 43.43 7.60
	v0.24c-8.08 4.76 -35.36 -0.47 -43.43 -7.84"/>
</g>
<g stroke-width="0.70" transform="scale(0.867)" font-family="Times" font-size="13.00">
<text x="762.34" y="86.40">1</text>
<path class="stroke"
	d="M758.34 75.00m0 20v-20h95.70v20"/>
<defs>
<path id="utclef" class="fill" d="m-50 -90
	c-72 -41 -72 -158 52 -188
	150 -10 220 188 90 256
	-114 52 -275 0 -293 -136
	-15 -181 93 -229 220 -334
	88 -87 79 -133 62 -210
	-51 33 -94 105 -89 186
	17 267 36 374 49 574
	6 96 -19 134 -77 135
	-80 1 -126 -93 -61 -133
	85 -41 133 101 31 105
	23 17 92 37 90 -92
	-10 -223 -39 -342 -50 -617
	0 -90 0 -162 96 -232
	56 72 63 230 22 289
	-74 106 -257 168 -255 316
	9 153 148 185 252 133
	86 -65 29 -192 -80 -176
	-71 12 -105 67 -59 124"/>
<use id="tclef" transform="translate(0,6) scale(0.045)"
	xlink:href="#utclef"/>
</defs>
<use x="23.54" y="119.00" xlink:href="#tclef"/>
<g font-family="serif" font-size="16" font-weight="bold" font-style="normal"
	transform="translate(42.04,124.50) scale(1.2,1)">
	<text text-anchor="middle">8</text>
	<text y="-12" text-anchor="middle">3</text>
</g>
<path class="fill"
	d="M81.04 141.20l84.80 0.00v-3.20l-84.80 -0.00"/>
<path class="fill"
	d="M81.34 136.20l84.10 0.00v-3.20l-84.10 -0.00"/>
<use x="84.84" y="110.00" xlink:href="#hd"/>
<path d="M81.34 110.00v30.20" class="stroke"/>
<use x="101.74" y="113.00" xlink:href="#hd"/>
<path d="M98.24 113.00v27.20" class="stroke"/>
<use x="118.54" y="110.00" xlink:href="#hd"/>
<path d="M115.04 110.00v30.20" class="stroke"/>
<use x="135.34" y="104.00" xlink:href="#hd"/>
<path d="M131.84 104.00v36.20" class="stroke"/>
<use x="152.14" y="119.00" xlink:href="#hd"/>
<path d="M148.64 119.00v21.20" class="stroke"/>
<use x="168.94" y="110.00" xlink:href="#hd"/>
<path d="M165.44 110.00v30.20" class="stroke"/>
<path class="fill"
	d="M191.64 139.80l48.10 -3.20v-3.20l-48.10 3.20"/>
<use x="195.44" y="110.00" xlink:href="#hd"/>
<path d="M191.94 110.00v28.80" class="stroke"/>
<use x="219.24" y="119.00" xlink:href="#hd"/>
<path d="M215.74 119.00v18.20" class="stroke"/>
<use x="242.94" y="104.00" xlink:href="#hd"/>
<path d="M239.44 104.00v31.60" class="stroke"/>
<path class="fill"
	d="M270.94 133.00l84.80 0.00v-3.20l-84.80 -0.00"/>
<path class="fill"
	d="M271.34 128.00l84.10 0.00v-3.20l-84.10 -0.00"/>
<use x="274.84" y="107.00" xlink:href="#hd"/>
<path d="M271.34 107.00v24.90" class="stroke"/>
<use x="291.64" y="104.00" xlink:href="#hd"/>
<path d="M288.14 104.00v27.90" class="stroke"/>
<use x="308.44" y="101.00" xlink:href="#hd"/>
<path d="M304.94 101.00v30.90" class="stroke"/>
<use x="325.24" y="107.00" xlink:href="#hd"/>
<path d="M321.74 107.00v24.90" class="stroke"/>
<use x="342.04" y="110.00" xlink:href="#hd"/>
<path d="M338.54 110.00v21.90" class="stroke"/>
<use x="358.94" y="113.00" xlink:href="#hd"/>
<path d="M355.44 113.00v18.90" class="stroke"/>
<path class="fill"
	d="M388.64 90.80l48.10 6.60v3.20l-48.10 -6.60"/>
<use x="385.44" y="110.00" xlink:href="#hd"/>
<path d="M388.94 110.00v-18.20" class="stroke"/>
<use x="409.14" y="119.00" xlink:href="#hd"/>
<path d="M412.64 119.00v-23.90" class="stroke"/>
<use x="432.84" y="125.00" xlink:href="#hd"/>
<path d="M436.34 125.00v-26.70" class="stroke"/>
<path class="fill"
	d="M466.04 127.00l74.80 0.00v-3.20l-74.80 -0.00"/>
<path class="fill"
	d="M490.14 122.00l50.40 0.00v-3.20l-50.40 -0.00"/>
<use x="469.94" y="101.00" xlink:href="#hd"/>
<defs>
<path id="usharp" class="fill" d="
	m136 -702
	v890
	h32
	v-890
	m128 840
	h32
	v-888
	h-32
	m-232 286
	v116
	l338 -96
	v-116
	m-338 442
	v116
	l338 -98
	v-114"/>
<use id="sh0" transform="translate(-4,5) scale(0.018)"
	xlink:href="#usharp"/>
</defs>
<use x="460.94" y="101.00" xlink:href="#sh0"/>
<path d="M466.44 101.00v25.00" class="stroke"/>
<defs>
<path id="hl" class="stroke" d="m-6 0h12"/>
</defs>
<use x="493.64" y="95.00" xlink:href="#hl"/>
<use x="493.64" y="95.00" xlink:href="#hd"/>
<path d="M490.14 95.00v31.00" class="stroke"/>
<use x="510.44" y="101.00" xlink:href="#hd"/>
<path d="M506.94 101.00v25.00" class="stroke"/>
<use x="527.24" y="107.00" xlink:href="#hd"/>
<path d="M523.74 107.00v19.00" class="stroke"/>
<use x="544.14" y="101.00" xlink:href="#hd"/>
<path d="M540.64 101.00v25.00" class="stroke"/>
<path class="fill"
	d="M566.74 127.00l58.00 0.00v-3.20l-58.00 -0.00"/>
<path class="fill"
	d="M590.84 122.00l16.80 0.00v-3.20l-16.80 -0.00"/>
<use x="570.64" y="98.00" xlink:href="#hd"/>
<path d="M567.14 98.00v28.00" class="stroke"/>
<use x="594.34" y="98.00" xlink:href="#hd"/>
<path d="M590.84 98.00v28.00" class="stroke"/>
<use x="611.14" y="107.00" xlink:href="#hd"/>
<path d="M607.64 107.00v19.00" class="stroke"/>
<use x="627.94" y="95.00" xlink:href="#hl"/>
<use x="627.94" y="92.00" xlink:href="#hd"/>
<path d="M624.44 92.00v34.00" class="stroke"/>
<path class="fill"
	d="M663.04 81.80l85.90 8.00v3.20l-85.90 -8.00"/>
<path class="fill"
	d="M663.34 86.80l85.30 8.00v3.20l-85.30 -8.00"/>
<use x="659.84" y="104.00" xlink:href="#hd"/>
<path d="M663.34 104.00v-21.20" class="stroke"/>
<use x="676.64" y="110.00" xlink:href="#hd"/>
<path d="M680.14 110.00v-25.60" class="stroke"/>
<use x="693.54" y="113.00" xlink:href="#hd"/>
<path d="M697.04 113.00v-27.10" class="stroke"/>
<use x="710.34" y="119.00" xlink:href="#hd"/>
<path d="M713.84 119.00v-31.50" class="stroke"/>
<use x="727.14" y="116.00" xlink:href="#hd"/>
<path d="M730.64 116.00v-26.90" class="stroke"/>
<use x="745.14" y="122.00" xlink:href="#hd"/>
<use x="736.14" y="122.00" xlink:href="#sh0"/>
<path d="M748.64 122.00v-31.20" class="stroke"/>
<use x="771.64" y="98.00" xlink:href="#hd"/>
<path d="M768.14 98.00v40.00" class="stroke"/>
<use x="771.64" y="119.00" xlink:href="#hd"/>
<use x="771.64" y="113.00" xlink:href="#hd"/>
<use x="771.64" y="107.00" xlink:href="#hd"/>
<defs>
<path id="r8e" class="fill" d="m 0 0
	c-1.5 1.5 -2.4 2 -3.6 2
	2.4 -2.8 -2.8 -4 -2.8 -1.2
	c0 2.7 4.3 2.4 5.9 0.6"/>
<g id="r8">
	<path d="m3.3 -4l-3.4 9.6" class="stroke"/>
	<use x="3.4" y="-4" xlink:href="#r8e"/>
</g>
</defs>
<use x="830.24" y="113.00" xlink:href="#r8"/>
<defs>
<path id="ubclef" class="fill" d="m-200 -87
	c124 -35 222 -78 254 -236
	43 -228 -167 -246 -192 -103
	59 -80 157 22 92 78
	-62 47 -115 -22 -106 -88
	21 -141 270 -136 274 52
	-1 175 -106 264 -322 297
	m357 -250
	c0 -36 51 -34 51 0
	0 37 -51 36 -51 0
	m-2 -129
	c0 -36 51 -34 51 0
	0 38 -51 37 -51 0"/>
<use id="bclef" transform="translate(0,18) scale(0.045)"
	xlink:href="#ubclef"/>
</defs>
<use x="23.54" y="165.00" xlink:href="#bclef"/>
<g font-family="serif" font-size="16" font-weight="bold" font-style="normal"
	transform="translate(42.04,182.50) scale(1.2,1)">
	<text text-anchor="middle">8</text>
	<text y="-12" text-anchor="middle">3</text>
</g>
<use x="84.84" y="168.00" xlink:href="#hd"/>
<path d="M81.34 168.00v25.00" class="stroke"/>
<use x="84.84" y="174.00" xlink:href="#hd"/>
<use x="152.14" y="171.00" xlink:href="#r8"/>
<use x="195.44" y="168.00" xlink:href="#hd"/>
<path d="M191.94 168.00v25.00" class="stroke"/>
<use x="195.44" y="174.00" xlink:href="#hd"/>
<use x="242.94" y="171.00" xlink:href="#r8"/>
<use x="274.84" y="162.00" xlink:href="#hd"/>
<path d="M271.34 162.00v34.00" class="stroke"/>
<use x="274.84" y="177.00" xlink:href="#hd"/>
<use x="342.04" y="183.00" xlink:href="#hd"/>
<path d="M345.54 183.00v-21.00" class="stroke"/>
<path class="fill"
	d="M345.54 162.00c0.6 5.6 9.6 9 5.6 18.4
	1.6 -6 -1.3 -11.6 -5.6 -12.8
"/>
<use x="385.44" y="162.00" xlink:href="#hd"/>
<path d="M381.94 162.00v25.00" class="stroke"/>
<use x="385.44" y="168.00" xlink:href="#hd"/>
<use x="432.84" y="171.00" xlink:href="#r8"/>
<use x="469.94" y="174.00" xlink:href="#hd"/>
<path d="M473.44 174.00v-21.00" class="stroke"/>
<use x="527.24" y="171.00" xlink:href="#r8"/>
<use x="570.64" y="177.00" xlink:href="#hd"/>
<path d="M574.14 177.00v-25.00" class="stroke"/>
<use x="570.64" y="171.00" xlink:href="#hd"/>
<use x="627.94" y="171.00" xlink:href="#r8"/>
<path class="fill"
	d="M663.04 147.70l67.90 8.30v3.20l-67.90 -8.30"/>
<use x="659.84" y="174.00" xlink:href="#hd"/>
<path d="M663.34 174.00v-25.30" class="stroke"/>
<use x="693.54" y="171.00" xlink:href="#hd"/>
<path d="M697.04 171.00v-18.20" class="stroke"/>
<use x="727.14" y="189.00" xlink:href="#hl"/>
<use x="727.14" y="192.00" xlink:href="#hd"/>
<path d="M730.64 192.00v-35.10" class="stroke"/>
<path class="fill"
	d="M767.84 202.20l76.00 0.00v-3.20l-76.00 -0.00"/>
<path class="fill"
	d="M791.84 197.20l51.60 0.00v-3.20l-51.60 -0.00"/>
<use x="771.64" y="183.00" xlink:href="#hd"/>
<path d="M768.14 183.00v18.20" class="stroke"/>
<use x="795.34" y="162.00" xlink:href="#hd"/>
<path d="M791.84 162.00v39.20" class="stroke"/>
<use x="813.34" y="165.00" xlink:href="#hd"/>
<defs>
<path id="unat" class="fill" d="
	m96 -750
	h-32
	v716
	l32 -8
	182 -54
	v282
	h32
	v-706
	l-34 10
	-180 50
	v-290
	m0 592
	v-190
	l182 -52
	v188"/>
<use id="nt0" transform="translate(-3,5) scale(0.018)"
	xlink:href="#unat"/>
</defs>
<use x="804.34" y="165.00" xlink:href="#nt0"/>
<path d="M809.84 165.00v36.20" class="stroke"/>
<use x="830.24" y="168.00" xlink:href="#hd"/>
<path d="M826.74 168.00v33.20" class="stroke"/>
<use x="847.04" y="171.00" xlink:href="#hd"/>
<path d="M843.54 171.00v30.20" class="stroke"/>
</g>
<g stroke-width="0.70" transform="scale(0.867)" font-family="Times" font-size="13.00">
<path class="stroke" stroke-width="1"
	d="M11.54 316.00v-82.00"/>
<path class="fill"
	d="M6.54 231.00
	c10.5 1 12 -4.5 12 -3.5c0 1 -3.5 5.5 -8.5 5.5
	v84.00
	c5 0 8.5 4.5 8.5 5.5c0 1 -1.5 -4.5 -12 -3.5"/>
<use x="144.84" y="258.00" xlink:href="#rdots"/>
<path class="stroke" stroke-width="1"
	d="M140.84 258.00v-24.00"/>
<path class="stroke" stroke-width="3"
	d="M136.34 258.00v-24.00"/>
<use x="144.84" y="316.00" xlink:href="#rdots"/>
<path class="stroke" stroke-width="1"
	d="M140.84 316.00v-58.00"/>
<path class="stroke" stroke-width="3"
	d="M136.34 316.00v-58.00"/>
<path class="stroke" stroke-width="1"
	d="M223.94 258.00v-24.00"/>
<path class="stroke" stroke-width="1"
	d="M223.94 316.00v-58.00"/>
<path class="stroke" stroke-width="1"
	d="M304.44 258.00v-24.00"/>
<path class="stroke" stroke-width="1"
	d="M304.44 316.00v-58.00"/>
<path class="stroke" stroke-width="1"
	d="M404.94 258.00v-24.00"/>
<path class="stroke" stroke-width="1"
	d="M404.94 316.00v-58.00"/>
<path class="stroke" stroke-width="1"
	d="M485.44 258.00v-24.00"/>
<path class="stroke" stroke-width="1"
	d="M485.44 316.00v-58.00"/>
<path class="stroke" stroke-width="1"
	d="M585.94 258.00v-24.00"/>
<path class="stroke" stroke-width="1"
	d="M585.94 316.00v-58.00"/>
<path class="stroke" stroke-width="1"
	d="M686.34 258.00v-24.00"/>
<path class="stroke" stroke-width="1"
	d="M686.34 316.00v-58.00"/>
<path class="stroke" stroke-width="1"
	d="M786.84 258.00v-24.00"/>
<path class="stroke" stroke-width="1"
	d="M786.84 316.00v-58.00"/>
<path class="stroke" stroke-width="3"
	d="M860.54 258.00v-24.00"/>
<path class="stroke" stroke-width="1"
	d="M856.04 258.00v-24.00"/>
<use x="852.04" y="258.00" xlink:href="#rdots"/>
<path class="stroke" stroke-width="3"
	d="M860.54 316.00v-58.00"/>
<path class="stroke" stroke-width="1"
	d="M856.04 316.00v-58.00"/>
<use x="852.04" y="316.00" xlink:href="#rdots"/>
<path d="m11.54 258.00
	h850.50
	M11.54 252.00
	h850.50
	M11.54 246.00
	h850.50
	M11.54 240.00
	h850.50
	M11.54 234.00
	h850.50
	" class="stroke"/>
<path d="m11.54 316.00
	h850.50
	M11.54 310.00
	h850.50
	M11.54 304.00
	h850.50
	M11.54 298.00
	h850.50
	M11.54 292.00
	h850.50
	" class="stroke"/>
<path class="fill"
	d="M167.34 223.80c6.27 -3.48 33.54 -0.60 39.80 4.20
	v-0.24c-7.46 -6.56 -32.34 -9.44 -39.80 -3.96"/>
<text x="47.54" y="219.40">2</text>
<path class="stroke"
	d="M43.54 208.00m0 20v-20h90.30v20"/>
<use x="23.54" y="252.00" xlink:href="#tclef"/>
<use x="56.04" y="231.00" xlink:href="#hd"/>
<path d="M52.54 231.00v40.00" class="stroke"/>
<use x="56.04" y="252.00" xlink:href="#hd"/>
<use x="56.04" y="246.00" xlink:href="#hd"/>
<use x="56.04" y="240.00" xlink:href="#hd"/>
<use x="110.24" y="246.00" xlink:href="#r8"/>
<path class="fill"
	d="M160.44 251.50l43.50 7.80v-3.20l-43.50 -7.80"/>
<use x="164.34" y="228.00" xlink:href="#hl"/>
<use x="164.34" y="228.00" xlink:href="#hd"/>
<path d="M160.84 228.00v22.50" class="stroke"/>
<use x="186.04" y="234.00" xlink:href="#hd"/>
<use x="177.04" y="234.00" xlink:href="#sh0"/>
<path d="M182.54 234.00v20.40" class="stroke"/>
<use x="207.14" y="240.00" xlink:href="#hd"/>
<path d="M203.64 240.00v18.20" class="stroke"/>
<path class="fill"
	d="M232.54 254.20l52.00 5.00v-3.20l-52.00 -5.00"/>
<path class="fill"
	d="M232.94 249.30l15.10 1.50v-3.20l-15.10 -1.50"/>
<use x="236.44" y="231.00" xlink:href="#hd"/>
<path d="M232.94 231.00v22.30" class="stroke"/>
<use x="251.54" y="228.00" xlink:href="#hl"/>
<use x="251.54" y="225.00" xlink:href="#hd"/>
<path d="M248.04 225.00v29.70" class="stroke"/>
<use x="266.54" y="231.00" xlink:href="#hd"/>
<path d="M263.04 231.00v25.20" class="stroke"/>
<use x="287.74" y="240.00" xlink:href="#hd"/>
<path d="M284.24 240.00v18.20" class="stroke"/>
<path class="fill"
	d="M313.14 264.20l61.00 7.00v-3.20l-61.00 -7.00"/>
<use x="316.94" y="237.00" xlink:href="#hd"/>
<path d="M313.44 237.00v26.30" class="stroke"/>
<use x="347.14" y="243.00" xlink:href="#hd"/>
<path d="M343.64 243.00v23.70" class="stroke"/>
<use x="377.34" y="252.00" xlink:href="#hd"/>
<path d="M373.84 252.00v18.20" class="stroke"/>
<path class="fill"
	d="M420.54 219.20l52.00 6.20v3.20l-52.00 -6.20"/>
<path class="fill"
	d="M442.04 226.80l15.10 1.80v3.20l-15.10 -1.80"/>
<use x="417.44" y="243.00" xlink:href="#hd"/>
<path d="M420.94 243.00v-22.70" class="stroke"/>
<use x="417.44" y="237.00" xlink:href="#hd"/>
<use x="438.54" y="252.00" xlink:href="#hd"/>
<path d="M442.04 252.00v-29.20" class="stroke"/>
<use x="438.54" y="240.00" xlink:href="#hd"/>
<use x="453.64" y="252.00" xlink:href="#hd"/>
<path d="M457.14 252.00v-27.40" class="stroke"/>
<use x="453.64" y="246.00" xlink:href="#hd"/>
<use x="468.74" y="252.00" xlink:href="#hd"/>
<path d="M472.24 252.00v-25.60" class="stroke"/>
<path class="fill"
	d="M494.14 271.20l61.00 -7.00v-3.20l-61.00 7.00"/>
<use x="497.94" y="252.00" xlink:href="#hd"/>
<path d="M494.44 252.00v18.20" class="stroke"/>
<use x="528.14" y="243.00" xlink:href="#hd"/>
<path d="M524.64 243.00v23.70" class="stroke"/>
<use x="558.34" y="237.00" xlink:href="#hd"/>
<path d="M554.84 237.00v26.30" class="stroke"/>
<path class="fill"
	d="M594.64 275.50l76.10 -6.30v-3.20l-76.10 6.30"/>
<path class="fill"
	d="M594.94 270.40l75.40 -6.20v-3.20l-75.40 6.20"/>
<use x="598.44" y="243.00" xlink:href="#hd"/>
<path d="M594.94 243.00v31.40" class="stroke"/>
<use x="613.54" y="252.00" xlink:href="#hd"/>
<path d="M610.04 252.00v21.20" class="stroke"/>
<use x="628.64" y="237.00" xlink:href="#hd"/>
<path d="M625.14 237.00v35.00" class="stroke"/>
<use x="643.74" y="243.00" xlink:href="#hd"/>
<path d="M640.24 243.00v27.70" class="stroke"/>
<use x="658.74" y="231.00" xlink:href="#hd"/>
<path d="M655.24 231.00v38.50" class="stroke"/>
<use x="673.84" y="237.00" xlink:href="#hd"/>
<path d="M670.34 237.00v31.20" class="stroke"/>
<path class="fill"
	d="M695.04 266.00l76.10 0.00v-3.20l-76.10 -0.00"/>
<path class="fill"
	d="M695.34 261.00l75.40 0.00v-3.20l-75.40 -0.00"/>
<use x="698.84" y="240.00" xlink:href="#hd"/>
<path d="M695.34 240.00v24.90" class="stroke"/>
<use x="713.94" y="234.00" xlink:href="#hd"/>
<path d="M710.44 234.00v30.90" class="stroke"/>
<use x="729.04" y="228.00" xlink:href="#hl"/>
<use x="729.04" y="228.00" xlink:href="#hd"/>
<path d="M725.54 228.00v36.90" class="stroke"/>
<use x="744.14" y="234.00" xlink:href="#hd"/>
<path d="M740.64 234.00v30.90" class="stroke"/>
<use x="759.24" y="240.00" xlink:href="#hd"/>
<path d="M755.74 240.00v24.90" class="stroke"/>
<use x="774.34" y="246.00" xlink:href="#hd"/>
<path d="M770.84 246.00v18.90" class="stroke"/>
<use x="799.34" y="243.00" xlink:href="#hd"/>
<path d="M795.84 243.00v21.00" class="stroke"/>
<use x="841.54" y="246.00" xlink:href="#r8"/>
<use x="23.54" y="298.00" xlink:href="#bclef"/>
<path class="fill"
	d="M52.24 335.20l70.00 -5.10v-3.20l-70.00 5.10"/>
<path class="fill"
	d="M73.64 328.70l48.20 -3.50v-3.20l-48.20 3.50"/>
<use x="56.04" y="316.00" xlink:href="#hd"/>
<path d="M52.54 316.00v18.20" class="stroke"/>
<use x="77.14" y="289.00" xlink:href="#hd"/>
<path d="M73.64 289.00v43.70" class="stroke"/>
<use x="92.24" y="295.00" xlink:href="#hd"/>
<path d="M88.74 295.00v36.60" class="stroke"/>
<use x="110.24" y="298.00" xlink:href="#hd"/>
<use x="101.24" y="298.00" xlink:href="#sh0"/>
<path d="M106.74 298.00v32.30" class="stroke"/>
<use x="125.34" y="301.00" xlink:href="#hd"/>
<path d="M121.84 301.00v28.20" class="stroke"/>
<use x="164.34" y="298.00" xlink:href="#hd"/>
<use x="155.34" y="298.00" xlink:href="#sh0"/>
<path d="M160.84 298.00v25.00" class="stroke"/>
<use x="164.34" y="304.00" xlink:href="#hd"/>
<use x="207.14" y="298.00" xlink:href="#hd"/>
<path d="M203.64 298.00v28.00" class="stroke"/>
<path class="fill"
	d="M203.64 326.00c0.6 -5.6 9.6 -9 5.6 -18.4
	1.6 6 -1.3 11.6 -5.6 12.8
"/>
<use x="207.14" y="307.00" xlink:href="#hd"/>
<use x="236.44" y="310.00" xlink:href="#hd"/>
<path d="M239.94 310.00v-25.00" class="stroke"/>
<use x="236.44" y="304.00" xlink:href="#hd"/>
<use x="287.74" y="295.00" xlink:href="#hd"/>
<path d="M284.24 295.00v34.00" class="stroke"/>
<path class="fill"
	d="M284.24 329.00c0.6 -5.6 9.6 -9 5.6 -18.4
	1.6 6 -1.3 11.6 -5.6 12.8
"/>
<use x="287.74" y="310.00" xlink:href="#hd"/>
<path class="fill"
	d="M313.14 323.90l76.10 0.00v-3.20l-76.10 -0.00"/>
<path class="fill"
	d="M313.44 318.90l75.40 0.00v-3.20l-75.40 -0.00"/>
<use x="316.94" y="301.00" xlink:href="#hd"/>
<path d="M313.44 301.00v21.90" class="stroke"/>
<use x="316.94" y="307.00" xlink:href="#hd"/>
<use x="332.04" y="295.00" xlink:href="#hd"/>
<path d="M328.54 295.00v27.90" class="stroke"/>
<use x="347.14" y="301.00" xlink:href="#hd"/>
<path d="M343.64 301.00v21.90" class="stroke"/>
<use x="347.14" y="307.00" xlink:href="#hd"/>
<use x="362.24" y="295.00" xlink:href="#hd"/>
<path d="M358.74 295.00v27.90" class="stroke"/>
<use x="377.34" y="301.00" xlink:href="#hd"/>
<path d="M373.84 301.00v21.90" class="stroke"/>
<use x="377.34" y="307.00" xlink:href="#hd"/>
<use x="392.44" y="295.00" xlink:href="#hd"/>
<path d="M388.94 295.00v27.90" class="stroke"/>
<path class="fill"
	d="M420.54 275.70l21.80 7.20v3.20l-21.80 -7.20"/>
<use x="417.44" y="295.00" xlink:href="#hd"/>
<path d="M420.94 295.00v-18.20" class="stroke"/>
<use x="438.54" y="316.00" xlink:href="#hd"/>
<path d="M442.04 316.00v-32.20" class="stroke"/>
<use x="468.74" y="304.00" xlink:href="#r8"/>
<path class="fill"
	d="M494.14 323.90l76.10 0.00v-3.20l-76.10 -0.00"/>
<path class="fill"
	d="M494.44 318.90l75.40 0.00v-3.20l-75.40 -0.00"/>
<use x="497.94" y="301.00" xlink:href="#hd"/>
<path d="M494.44 301.00v21.90" class="stroke"/>
<use x="497.94" y="307.00" xlink:href="#hd"/>
<use x="513.04" y="295.00" xlink:href="#hd"/>
<path d="M509.54 295.00v27.90" class="stroke"/>
<use x="528.14" y="301.00" xlink:href="#hd"/>
<path d="M524.64 301.00v21.90" class="stroke"/>
<use x="528.14" y="307.00" xlink:href="#hd"/>
<use x="543.24" y="295.00" xlink:href="#hd"/>
<path d="M539.74 295.00v27.90" class="stroke"/>
<use x="558.34" y="301.00" xlink:href="#hd"/>
<path d="M554.84 301.00v21.90" class="stroke"/>
<use x="558.34" y="307.00" xlink:href="#hd"/>
<use x="573.44" y="295.00" xlink:href="#hd"/>
<path d="M569.94 295.00v27.90" class="stroke"/>
<use x="598.44" y="301.00" xlink:href="#hd"/>
<path d="M594.94 301.00v25.00" class="stroke"/>
<use x="598.44" y="307.00" xlink:href="#hd"/>
<use x="658.74" y="304.00" xlink:href="#r8"/>
<use x="698.84" y="298.00" xlink:href="#hd"/>
<path d="M695.34 298.00v21.00" class="stroke"/>
<use x="759.24" y="295.00" xlink:href="#hd"/>
<path d="M755.74 295.00v21.00" class="stroke"/>
<path class="fill"
	d="M755.74 316.00c0.6 -5.6 9.6 -9 5.6 -18.4
	1.6 6 -1.3 11.6 -5.6 12.8
"/>
<path class="fill"
	d="M802.44 287.70l42.90 9.90v3.20l-42.90 -9.90"/>
<use x="799.34" y="307.00" xlink:href="#hd"/>
<path d="M802.84 307.00v-18.20" class="stroke"/>
<use x="820.44" y="316.00" xlink:href="#hd"/>
<path d="M823.94 316.00v-22.30" class="stroke"/>
<use x="841.54" y="322.00" xlink:href="#hl"/>
<use x="841.54" y="328.00" xlink:href="#hl"/>
<use x="841.54" y="328.00" xlink:href="#hd"/>
<path d="M845.04 328.00v-29.50" class="stroke"/>
</g>
</svg>
