<?xml version="1.0" standalone="no"?>
<!DOCTYPE svg PUBLIC "-//W3C//DTD SVG 1.1//EN"
	"http://www.w3.org/Graphics/SVG/1.1/DTD/svg11.dtd">
<svg xmlns="http://www.w3.org/2000/svg" version="1.1"
	xmlns:xlink="http://www.w3.org/1999/xlink"
	color="black"
	width="757.10px" height="296.40px">
<style type="text/css">
.fill {fill: currentColor}
.stroke {stroke: currentColor; fill: none}
text{white-space: pre}
</style>
<title>./K516f-2-11-6-11-4-10-12-8-12-3-9-11-3-11-3-5.abc (6330) tune 1</title>
<!-- Creator: abcm2ps-8.13.8 -->
<!-- CreationDate: Sep  7, 2017 11:19 -->
<!-- CommandLine: ./K516f-2-11-6-11-4-10-12-8-12-3-9-11-3-11-3-5.abc -O ./K516f-2-11-6-11-4-10-12-8-12-3-9-11-3-11-3-5.svg -g -->
<rect width="100%" height="100%" fill="white"/>
<g stroke-width="0.70" transform="scale(0.867)">
<!-- title: 2-11-6-11-4-10-12-8-12-3-9-11-3-11-3-5 -->
</g>
<g stroke-width="0.70" transform="scale(0.867)" font-family="Times" font-size="20.00">
<text x="436.84" y="22.00" text-anchor="middle">2-11-6-11-4-10-12-8-12-3-9-11-3-11-3-5</text>
</g>
<g stroke-width="0.70" transform="scale(0.867)" font-family="Times" font-size="20.00">
<!-- subtitle: $1K.516f::96:87:163:61:153:129:106:127:35:39:48:164:174:59:116:170::$0 -->
</g>
<g stroke-width="0.70" transform="scale(0.867)" font-family="Courier" font-size="8.00" font-weight="bold">
<text x="436.84" y="41.80" text-anchor="middle">K.516f::96:87:163:61:153:129:106:127:35:39:48:164:174:59:116:170::</text>
</g>
<g stroke-width="0.70" transform="scale(0.867)" font-family="Courier" font-size="8.00" font-weight="bold">
<!-- subtitle: $1Perm. No.: 63304249936731$0 -->
<text x="436.84" y="60.80" text-anchor="middle">Perm. No.: 63304249936731</text>
</g>
<g stroke-width="0.70" transform="scale(0.607)" font-family="Courier" font-size="8.00" font-weight="bold">
<defs>
<ellipse id="hd" rx="4.1" ry="2.9"
	transform="rotate(-20)" class="fill"/>
</defs>
<use x="103.06" y="121.29" xlink:href="#hd"/>
<path d="M106.56 121.29v-21.00" class="stroke"/>
<path class="fill"
	d="M106.56 100.29c0.6 5.6 9.6 9 5.6 18.4
	1.6 -6 -1.3 -11.6 -5.6 -12.8
"/>
</g>
<g stroke-width="0.70" transform="scale(0.867)" font-family="Times" font-size="15.00" font-weight="bold">
<text x="81.24" y="87.00">= 111</text>
<path class="stroke" stroke-width="1"
	d="M11.54 183.00v-82.00"/>
<path class="fill"
	d="M6.54 98.00
	c10.5 1 12 -4.5 12 -3.5c0 1 -3.5 5.5 -8.5 5.5
	v84.00
	c5 0 8.5 4.5 8.5 5.5c0 1 -1.5 -4.5 -12 -3.5"/>
<defs>
<g id="rdots" class="fill">
	<circle cx="0" cy="-9" r="1.2"/>
	<circle cx="0" cy="-15" r="1.2"/>
</g>
</defs>
<use x="70.54" y="125.00" xlink:href="#rdots"/>
<path class="stroke" stroke-width="1"
	d="M66.54 125.00v-24.00"/>
<path class="stroke" stroke-width="3"
	d="M62.04 125.00v-24.00"/>
<use x="70.54" y="183.00" xlink:href="#rdots"/>
<path class="stroke" stroke-width="1"
	d="M66.54 183.00v-58.00"/>
<path class="stroke" stroke-width="3"
	d="M62.04 183.00v-58.00"/>
<path class="stroke" stroke-width="1"
	d="M152.54 125.00v-24.00"/>
<path class="stroke" stroke-width="1"
	d="M152.54 183.00v-58.00"/>
<path class="stroke" stroke-width="1"
	d="M233.44 125.00v-24.00"/>
<path class="stroke" stroke-width="1"
	d="M233.44 183.00v-58.00"/>
<path class="stroke" stroke-width="1"
	d="M347.14 125.00v-24.00"/>
<path class="stroke" stroke-width="1"
	d="M347.14 183.00v-58.00"/>
<path class="stroke" stroke-width="1"
	d="M438.14 125.00v-24.00"/>
<path class="stroke" stroke-width="1"
	d="M438.14 183.00v-58.00"/>
<path class="stroke" stroke-width="1"
	d="M551.84 125.00v-24.00"/>
<path class="stroke" stroke-width="1"
	d="M551.84 183.00v-58.00"/>
<path class="stroke" stroke-width="1"
	d="M653.84 125.00v-24.00"/>
<path class="stroke" stroke-width="1"
	d="M653.84 183.00v-58.00"/>
<path class="stroke" stroke-width="1"
	d="M756.64 125.00v-24.00"/>
<path class="stroke" stroke-width="1"
	d="M756.64 183.00v-58.00"/>
<path class="stroke" stroke-width="3"
	d="M860.54 125.00v-24.00"/>
<path class="stroke" stroke-width="1"
	d="M856.04 125.00v-24.00"/>
<use x="852.04" y="125.00" xlink:href="#rdots"/>
<path class="stroke" stroke-width="3"
	d="M860.54 183.00v-58.00"/>
<path class="stroke" stroke-width="1"
	d="M856.04 183.00v-58.00"/>
<use x="852.04" y="183.00" xlink:href="#rdots"/>
<path d="m11.54 125.00
	h850.50
	M11.54 119.00
	h850.50
	M11.54 113.00
	h850.50
	M11.54 107.00
	h850.50
	M11.54 101.00
	h850.50
	" class="stroke"/>
<path d="m11.54 183.00
	h850.50
	M11.54 177.00
	h850.50
	M11.54 171.00
	h850.50
	M11.54 165.00
	h850.50
	M11.54 159.00
	h850.50
	" class="stroke"/>
</g>
<g stroke-width="0.70" transform="scale(0.867)" font-family="Times" font-size="13.00">
<text x="760.64" y="86.40">1</text>
<path class="stroke"
	d="M756.64 75.00m0 20v-20h97.40v20"/>
<defs>
<path id="utclef" class="fill" d="m-50 -90
	c-72 -41 -72 -158 52 -188
	150 -10 220 188 90 256
	-114 52 -275 0 -293 -136
	-15 -181 93 -229 220 -334
	88 -87 79 -133 62 -210
	-51 33 -94 105 -89 186
	17 267 36 374 49 574
	6 96 -19 134 -77 135
	-80 1 -126 -93 -61 -133
	85 -41 133 101 31 105
	23 17 92 37 90 -92
	-10 -223 -39 -342 -50 -617
	0 -90 0 -162 96 -232
	56 72 63 230 22 289
	-74 106 -257 168 -255 316
	9 153 148 185 252 133
	86 -65 29 -192 -80 -176
	-71 12 -105 67 -59 124"/>
<use id="tclef" transform="translate(0,6) scale(0.045)"
	xlink:href="#utclef"/>
</defs>
<use x="23.54" y="119.00" xlink:href="#tclef"/>
<g font-family="serif" font-size="16" font-weight="bold" font-style="normal"
	transform="translate(42.04,124.50) scale(1.2,1)">
	<text text-anchor="middle">8</text>
	<text y="-12" text-anchor="middle">3</text>
</g>
<path class="fill"
	d="M81.24 131.60l49.10 6.70v-3.20l-49.10 -6.70"/>
<use x="85.14" y="104.00" xlink:href="#hd"/>
<path d="M81.64 104.00v26.60" class="stroke"/>
<use x="109.34" y="110.00" xlink:href="#hd"/>
<path d="M105.84 110.00v23.90" class="stroke"/>
<use x="133.54" y="119.00" xlink:href="#hd"/>
<path d="M130.04 119.00v18.20" class="stroke"/>
<path class="fill"
	d="M162.24 127.60l49.10 3.20v-3.20l-49.10 -3.20"/>
<use x="166.04" y="98.00" xlink:href="#hd"/>
<path d="M162.54 98.00v28.60" class="stroke"/>
<use x="190.34" y="110.00" xlink:href="#hd"/>
<path d="M186.84 110.00v18.20" class="stroke"/>
<use x="214.54" y="104.00" xlink:href="#hd"/>
<path d="M211.04 104.00v25.80" class="stroke"/>
<path class="fill"
	d="M243.24 131.20l87.30 10.00v-3.20l-87.30 -10.00"/>
<path class="fill"
	d="M243.54 126.30l86.60 9.90v-3.20l-86.60 -9.90"/>
<use x="247.04" y="98.00" xlink:href="#hd"/>
<path d="M243.54 98.00v32.30" class="stroke"/>
<use x="265.04" y="101.00" xlink:href="#hd"/>
<defs>
<path id="usharp" class="fill" d="
	m136 -702
	v890
	h32
	v-890
	m128 840
	h32
	v-888
	h-32
	m-232 286
	v116
	l338 -96
	v-116
	m-338 442
	v116
	l338 -98
	v-114"/>
<use id="sh0" transform="translate(-4,5) scale(0.018)"
	xlink:href="#usharp"/>
</defs>
<use x="256.04" y="101.00" xlink:href="#sh0"/>
<path d="M261.54 101.00v31.30" class="stroke"/>
<use x="282.24" y="98.00" xlink:href="#hd"/>
<path d="M278.74 98.00v36.30" class="stroke"/>
<use x="299.34" y="107.00" xlink:href="#hd"/>
<path d="M295.84 107.00v29.30" class="stroke"/>
<use x="316.54" y="113.00" xlink:href="#hd"/>
<path d="M313.04 113.00v25.20" class="stroke"/>
<use x="333.64" y="119.00" xlink:href="#hd"/>
<path d="M330.14 119.00v21.20" class="stroke"/>
<path class="fill"
	d="M356.84 135.40l59.20 -4.50v-3.20l-59.20 4.50"/>
<path class="fill"
	d="M381.44 128.50l17.20 -1.30v-3.20l-17.20 1.30"/>
<use x="360.74" y="110.00" xlink:href="#hd"/>
<path d="M357.24 110.00v24.40" class="stroke"/>
<use x="384.94" y="104.00" xlink:href="#hd"/>
<path d="M381.44 104.00v28.50" class="stroke"/>
<use x="402.14" y="110.00" xlink:href="#hd"/>
<path d="M398.64 110.00v21.20" class="stroke"/>
<use x="419.24" y="98.00" xlink:href="#hd"/>
<path d="M415.74 98.00v31.90" class="stroke"/>
<path class="fill"
	d="M447.94 139.50l87.30 -6.40v-3.20l-87.30 6.40"/>
<path class="fill"
	d="M448.24 134.50l86.60 -6.40v-3.20l-86.60 6.40"/>
<use x="451.74" y="107.00" xlink:href="#hd"/>
<path d="M448.24 107.00v31.50" class="stroke"/>
<use x="468.94" y="116.00" xlink:href="#hd"/>
<path d="M465.44 116.00v21.20" class="stroke"/>
<use x="486.94" y="101.00" xlink:href="#hd"/>
<use x="477.94" y="101.00" xlink:href="#sh0"/>
<path d="M483.44 101.00v34.90" class="stroke"/>
<use x="504.14" y="107.00" xlink:href="#hd"/>
<path d="M500.64 107.00v27.60" class="stroke"/>
<defs>
<path id="hl" class="stroke" d="m-6 0h12"/>
</defs>
<use x="521.24" y="95.00" xlink:href="#hl"/>
<use x="521.24" y="95.00" xlink:href="#hd"/>
<path d="M517.74 95.00v38.30" class="stroke"/>
<use x="538.44" y="101.00" xlink:href="#hd"/>
<path d="M534.94 101.00v31.10" class="stroke"/>
<path class="fill"
	d="M561.64 121.30l70.20 5.00v-3.20l-70.20 -5.00"/>
<path class="fill"
	d="M561.94 116.30l52.30 3.70v-3.20l-52.30 -3.70"/>
<use x="565.44" y="95.00" xlink:href="#hl"/>
<use x="565.44" y="95.00" xlink:href="#hd"/>
<path d="M561.94 95.00v25.30" class="stroke"/>
<use x="582.64" y="98.00" xlink:href="#hd"/>
<path d="M579.14 98.00v23.50" class="stroke"/>
<use x="600.64" y="101.00" xlink:href="#hd"/>
<use x="591.64" y="101.00" xlink:href="#sh0"/>
<path d="M597.14 101.00v21.80" class="stroke"/>
<use x="617.74" y="98.00" xlink:href="#hd"/>
<path d="M614.24 98.00v26.00" class="stroke"/>
<use x="634.94" y="107.00" xlink:href="#hd"/>
<path d="M631.44 107.00v18.20" class="stroke"/>
<path class="fill"
	d="M663.64 138.20l76.40 0.00v-3.20l-76.40 -0.00"/>
<path class="fill"
	d="M688.14 133.20l51.50 0.00v-3.20l-51.50 -0.00"/>
<use x="667.44" y="116.00" xlink:href="#hd"/>
<path d="M663.94 116.00v21.20" class="stroke"/>
<use x="691.64" y="107.00" xlink:href="#hd"/>
<path d="M688.14 107.00v30.20" class="stroke"/>
<use x="708.84" y="110.00" xlink:href="#hd"/>
<path d="M705.34 110.00v27.20" class="stroke"/>
<use x="726.04" y="113.00" xlink:href="#hd"/>
<path d="M722.54 113.00v24.20" class="stroke"/>
<use x="743.14" y="116.00" xlink:href="#hd"/>
<path d="M739.64 116.00v21.20" class="stroke"/>
<use x="770.14" y="98.00" xlink:href="#hd"/>
<path d="M766.64 98.00v40.00" class="stroke"/>
<use x="770.14" y="119.00" xlink:href="#hd"/>
<use x="770.14" y="113.00" xlink:href="#hd"/>
<use x="770.14" y="107.00" xlink:href="#hd"/>
<defs>
<path id="r8e" class="fill" d="m 0 0
	c-1.5 1.5 -2.4 2 -3.6 2
	2.4 -2.8 -2.8 -4 -2.8 -1.2
	c0 2.7 4.3 2.4 5.9 0.6"/>
<g id="r8">
	<path d="m3.3 -4l-3.4 9.6" class="stroke"/>
	<use x="3.4" y="-4" xlink:href="#r8e"/>
</g>
</defs>
<use x="829.54" y="113.00" xlink:href="#r8"/>
<defs>
<path id="ubclef" class="fill" d="m-200 -87
	c124 -35 222 -78 254 -236
	43 -228 -167 -246 -192 -103
	59 -80 157 22 92 78
	-62 47 -115 -22 -106 -88
	21 -141 270 -136 274 52
	-1 175 -106 264 -322 297
	m357 -250
	c0 -36 51 -34 51 0
	0 37 -51 36 -51 0
	m-2 -129
	c0 -36 51 -34 51 0
	0 38 -51 37 -51 0"/>
<use id="bclef" transform="translate(0,18) scale(0.045)"
	xlink:href="#ubclef"/>
</defs>
<use x="23.54" y="165.00" xlink:href="#bclef"/>
<g font-family="serif" font-size="16" font-weight="bold" font-style="normal"
	transform="translate(42.04,182.50) scale(1.2,1)">
	<text text-anchor="middle">8</text>
	<text y="-12" text-anchor="middle">3</text>
</g>
<use x="85.14" y="174.00" xlink:href="#hd"/>
<path d="M88.64 174.00v-21.00" class="stroke"/>
<use x="133.54" y="171.00" xlink:href="#r8"/>
<use x="166.04" y="168.00" xlink:href="#hd"/>
<path d="M162.54 168.00v25.00" class="stroke"/>
<use x="166.04" y="174.00" xlink:href="#hd"/>
<use x="214.54" y="162.00" xlink:href="#hd"/>
<path d="M211.04 162.00v31.00" class="stroke"/>
<path class="fill"
	d="M211.04 193.00c0.6 -5.6 9.6 -9 5.6 -18.4
	1.6 6 -1.3 11.6 -5.6 12.8
"/>
<use x="214.54" y="174.00" xlink:href="#hd"/>
<use x="247.04" y="177.00" xlink:href="#hd"/>
<path d="M250.54 177.00v-25.00" class="stroke"/>
<use x="247.04" y="171.00" xlink:href="#hd"/>
<use x="316.54" y="171.00" xlink:href="#r8"/>
<use x="360.74" y="162.00" xlink:href="#hd"/>
<path d="M357.24 162.00v25.00" class="stroke"/>
<use x="360.74" y="168.00" xlink:href="#hd"/>
<use x="419.24" y="171.00" xlink:href="#r8"/>
<use x="451.74" y="174.00" xlink:href="#hd"/>
<path d="M455.24 174.00v-21.00" class="stroke"/>
<use x="521.24" y="171.00" xlink:href="#r8"/>
<path class="fill"
	d="M568.64 149.50l70.20 -4.70v3.20l-70.20 4.70"/>
<use x="565.44" y="177.00" xlink:href="#hd"/>
<path d="M568.94 177.00v-26.50" class="stroke"/>
<use x="565.44" y="171.00" xlink:href="#hd"/>
<use x="600.64" y="177.00" xlink:href="#hd"/>
<path d="M604.14 177.00v-28.90" class="stroke"/>
<use x="600.64" y="171.00" xlink:href="#hd"/>
<use x="634.94" y="177.00" xlink:href="#hd"/>
<path d="M638.44 177.00v-31.20" class="stroke"/>
<use x="634.94" y="162.00" xlink:href="#hd"/>
<path class="fill"
	d="M670.64 148.30l59.20 8.40v3.20l-59.20 -8.40"/>
<use x="667.44" y="174.00" xlink:href="#hd"/>
<path d="M670.94 174.00v-24.60" class="stroke"/>
<use x="691.64" y="171.00" xlink:href="#hd"/>
<path d="M695.14 171.00v-18.20" class="stroke"/>
<use x="726.04" y="189.00" xlink:href="#hl"/>
<use x="726.04" y="192.00" xlink:href="#hd"/>
<path d="M729.54 192.00v-34.40" class="stroke"/>
<path class="fill"
	d="M766.34 202.20l77.20 0.00v-3.20l-77.20 -0.00"/>
<path class="fill"
	d="M790.94 197.20l52.30 0.00v-3.20l-52.30 -0.00"/>
<use x="770.14" y="183.00" xlink:href="#hd"/>
<path d="M766.64 183.00v18.20" class="stroke"/>
<use x="794.44" y="162.00" xlink:href="#hd"/>
<path d="M790.94 162.00v39.20" class="stroke"/>
<use x="812.44" y="165.00" xlink:href="#hd"/>
<defs>
<path id="unat" class="fill" d="
	m96 -750
	h-32
	v716
	l32 -8
	182 -54
	v282
	h32
	v-706
	l-34 10
	-180 50
	v-290
	m0 592
	v-190
	l182 -52
	v188"/>
<use id="nt0" transform="translate(-3,5) scale(0.018)"
	xlink:href="#unat"/>
</defs>
<use x="803.44" y="165.00" xlink:href="#nt0"/>
<path d="M808.94 165.00v36.20" class="stroke"/>
<use x="829.54" y="168.00" xlink:href="#hd"/>
<path d="M826.04 168.00v33.20" class="stroke"/>
<use x="846.74" y="171.00" xlink:href="#hd"/>
<path d="M843.24 171.00v30.20" class="stroke"/>
</g>
<g stroke-width="0.70" transform="scale(0.867)" font-family="Times" font-size="13.00">
<path class="stroke" stroke-width="1"
	d="M11.54 316.00v-82.00"/>
<path class="fill"
	d="M6.54 231.00
	c10.5 1 12 -4.5 12 -3.5c0 1 -3.5 5.5 -8.5 5.5
	v84.00
	c5 0 8.5 4.5 8.5 5.5c0 1 -1.5 -4.5 -12 -3.5"/>
<use x="141.54" y="258.00" xlink:href="#rdots"/>
<path class="stroke" stroke-width="1"
	d="M137.54 258.00v-24.00"/>
<path class="stroke" stroke-width="3"
	d="M133.04 258.00v-24.00"/>
<use x="141.54" y="316.00" xlink:href="#rdots"/>
<path class="stroke" stroke-width="1"
	d="M137.54 316.00v-58.00"/>
<path class="stroke" stroke-width="3"
	d="M133.04 316.00v-58.00"/>
<path class="stroke" stroke-width="1"
	d="M217.34 258.00v-24.00"/>
<path class="stroke" stroke-width="1"
	d="M217.34 316.00v-58.00"/>
<path class="stroke" stroke-width="1"
	d="M313.34 258.00v-24.00"/>
<path class="stroke" stroke-width="1"
	d="M313.34 316.00v-58.00"/>
<path class="stroke" stroke-width="1"
	d="M400.54 258.00v-24.00"/>
<path class="stroke" stroke-width="1"
	d="M400.54 316.00v-58.00"/>
<path class="stroke" stroke-width="1"
	d="M501.84 258.00v-24.00"/>
<path class="stroke" stroke-width="1"
	d="M501.84 316.00v-58.00"/>
<path class="stroke" stroke-width="1"
	d="M597.84 258.00v-24.00"/>
<path class="stroke" stroke-width="1"
	d="M597.84 316.00v-58.00"/>
<path class="stroke" stroke-width="1"
	d="M693.84 258.00v-24.00"/>
<path class="stroke" stroke-width="1"
	d="M693.84 316.00v-58.00"/>
<path class="stroke" stroke-width="1"
	d="M789.84 258.00v-24.00"/>
<path class="stroke" stroke-width="1"
	d="M789.84 316.00v-58.00"/>
<path class="stroke" stroke-width="3"
	d="M860.54 258.00v-24.00"/>
<path class="stroke" stroke-width="1"
	d="M856.04 258.00v-24.00"/>
<use x="852.04" y="258.00" xlink:href="#rdots"/>
<path class="stroke" stroke-width="3"
	d="M860.54 316.00v-58.00"/>
<path class="stroke" stroke-width="1"
	d="M856.04 316.00v-58.00"/>
<use x="852.04" y="316.00" xlink:href="#rdots"/>
<path d="m11.54 258.00
	h850.50
	M11.54 252.00
	h850.50
	M11.54 246.00
	h850.50
	M11.54 240.00
	h850.50
	M11.54 234.00
	h850.50
	" class="stroke"/>
<path d="m11.54 316.00
	h850.50
	M11.54 310.00
	h850.50
	M11.54 304.00
	h850.50
	M11.54 298.00
	h850.50
	M11.54 292.00
	h850.50
	" class="stroke"/>
<text x="47.54" y="219.40">2</text>
<path class="stroke"
	d="M43.54 208.00m0 20v-20h87.00v20"/>
<use x="23.54" y="252.00" xlink:href="#tclef"/>
<use x="56.04" y="231.00" xlink:href="#hd"/>
<path d="M52.54 231.00v40.00" class="stroke"/>
<use x="56.04" y="252.00" xlink:href="#hd"/>
<use x="56.04" y="246.00" xlink:href="#hd"/>
<use x="56.04" y="240.00" xlink:href="#hd"/>
<use x="107.84" y="246.00" xlink:href="#r8"/>
<path class="fill"
	d="M157.24 268.30l41.10 -6.30v-3.20l-41.10 6.30"/>
<use x="161.04" y="249.00" xlink:href="#hd"/>
<path d="M157.54 249.00v18.20" class="stroke"/>
<use x="180.64" y="240.00" xlink:href="#hd"/>
<path d="M177.14 240.00v24.20" class="stroke"/>
<use x="201.44" y="234.00" xlink:href="#hd"/>
<use x="192.44" y="234.00" xlink:href="#sh0"/>
<path d="M197.94 234.00v27.00" class="stroke"/>
<path class="fill"
	d="M226.04 266.80l57.50 8.80v-3.20l-57.50 -8.80"/>
<use x="229.84" y="231.00" xlink:href="#hd"/>
<path d="M226.34 231.00v34.80" class="stroke"/>
<use x="258.24" y="252.00" xlink:href="#hd"/>
<path d="M254.74 252.00v18.20" class="stroke"/>
<use x="286.64" y="252.00" xlink:href="#hd"/>
<path d="M283.14 252.00v22.60" class="stroke"/>
<path class="fill"
	d="M322.04 267.50l62.90 -7.20v-3.20l-62.90 7.20"/>
<path class="fill"
	d="M342.04 260.20l42.60 -4.90v-3.20l-42.60 4.90"/>
<use x="325.84" y="237.00" xlink:href="#hd"/>
<path d="M322.34 237.00v29.50" class="stroke"/>
<use x="345.54" y="243.00" xlink:href="#hd"/>
<path d="M342.04 243.00v21.20" class="stroke"/>
<use x="359.74" y="237.00" xlink:href="#hd"/>
<path d="M356.24 237.00v25.60" class="stroke"/>
<use x="373.94" y="231.00" xlink:href="#hd"/>
<path d="M370.44 231.00v29.90" class="stroke"/>
<use x="388.04" y="228.00" xlink:href="#hl"/>
<use x="388.04" y="222.00" xlink:href="#hl"/>
<use x="388.04" y="222.00" xlink:href="#hd"/>
<path d="M384.54 222.00v37.30" class="stroke"/>
<use x="413.04" y="240.00" xlink:href="#hd"/>
<path d="M409.54 240.00v21.00" class="stroke"/>
<path class="fill"
	d="M409.54 261.00c0.6 -5.6 9.6 -9 5.6 -18.4
	1.6 6 -1.3 11.6 -5.6 12.8
"/>
<use x="446.74" y="252.00" xlink:href="#hd"/>
<path d="M450.24 252.00v-21.00" class="stroke"/>
<path class="fill"
	d="M510.54 271.20l57.50 -6.90v-3.20l-57.50 6.90"/>
<use x="514.34" y="252.00" xlink:href="#hd"/>
<path d="M510.84 252.00v18.20" class="stroke"/>
<use x="542.74" y="243.00" xlink:href="#hd"/>
<path d="M539.24 243.00v23.80" class="stroke"/>
<use x="571.14" y="237.00" xlink:href="#hd"/>
<path d="M567.64 237.00v26.40" class="stroke"/>
<path class="fill"
	d="M606.44 260.60l57.50 3.20v-3.20l-57.50 -3.20"/>
<use x="610.34" y="231.00" xlink:href="#hd"/>
<path d="M606.84 231.00v28.60" class="stroke"/>
<use x="638.74" y="243.00" xlink:href="#hd"/>
<path d="M635.24 243.00v18.20" class="stroke"/>
<use x="667.14" y="237.00" xlink:href="#hd"/>
<path d="M663.64 237.00v25.80" class="stroke"/>
<path class="fill"
	d="M702.44 266.00l71.70 0.00v-3.20l-71.70 -0.00"/>
<path class="fill"
	d="M702.84 261.00l71.00 0.00v-3.20l-71.00 -0.00"/>
<use x="706.34" y="240.00" xlink:href="#hd"/>
<path d="M702.84 240.00v24.90" class="stroke"/>
<use x="720.54" y="234.00" xlink:href="#hd"/>
<path d="M717.04 234.00v30.90" class="stroke"/>
<use x="734.74" y="228.00" xlink:href="#hl"/>
<use x="734.74" y="228.00" xlink:href="#hd"/>
<path d="M731.24 228.00v36.90" class="stroke"/>
<use x="748.94" y="234.00" xlink:href="#hd"/>
<path d="M745.44 234.00v30.90" class="stroke"/>
<use x="763.14" y="240.00" xlink:href="#hd"/>
<path d="M759.64 240.00v24.90" class="stroke"/>
<use x="777.34" y="246.00" xlink:href="#hd"/>
<path d="M773.84 246.00v18.90" class="stroke"/>
<use x="802.34" y="243.00" xlink:href="#hd"/>
<path d="M798.84 243.00v21.00" class="stroke"/>
<use x="841.54" y="246.00" xlink:href="#r8"/>
<use x="23.54" y="298.00" xlink:href="#bclef"/>
<path class="fill"
	d="M52.24 335.20l66.70 -4.90v-3.20l-66.70 4.90"/>
<path class="fill"
	d="M72.14 328.80l46.40 -3.40v-3.20l-46.40 3.40"/>
<use x="56.04" y="316.00" xlink:href="#hd"/>
<path d="M52.54 316.00v18.20" class="stroke"/>
<use x="75.64" y="289.00" xlink:href="#hd"/>
<path d="M72.14 289.00v43.80" class="stroke"/>
<use x="89.84" y="295.00" xlink:href="#hd"/>
<path d="M86.34 295.00v36.70" class="stroke"/>
<use x="107.84" y="298.00" xlink:href="#hd"/>
<use x="98.84" y="298.00" xlink:href="#sh0"/>
<path d="M104.34 298.00v32.40" class="stroke"/>
<use x="122.04" y="301.00" xlink:href="#hd"/>
<path d="M118.54 301.00v28.40" class="stroke"/>
<use x="161.04" y="298.00" xlink:href="#hd"/>
<use x="152.04" y="298.00" xlink:href="#sh0"/>
<path d="M157.54 298.00v25.00" class="stroke"/>
<use x="161.04" y="304.00" xlink:href="#hd"/>
<use x="201.44" y="292.00" xlink:href="#hd"/>
<path d="M197.94 292.00v34.00" class="stroke"/>
<path class="fill"
	d="M197.94 326.00c0.6 -5.6 9.6 -9 5.6 -18.4
	1.6 6 -1.3 11.6 -5.6 12.8
"/>
<use x="201.44" y="307.00" xlink:href="#hd"/>
<path class="fill"
	d="M226.04 338.20l71.70 0.00v-3.20l-71.70 -0.00"/>
<path class="fill"
	d="M226.34 333.20l71.00 0.00v-3.20l-71.00 -0.00"/>
<use x="229.84" y="310.00" xlink:href="#hd"/>
<path d="M226.34 310.00v27.20" class="stroke"/>
<use x="244.04" y="304.00" xlink:href="#hd"/>
<path d="M240.54 304.00v33.20" class="stroke"/>
<use x="258.24" y="295.00" xlink:href="#hd"/>
<path d="M254.74 295.00v42.20" class="stroke"/>
<use x="272.44" y="304.00" xlink:href="#hd"/>
<path d="M268.94 304.00v33.20" class="stroke"/>
<use x="286.64" y="289.00" xlink:href="#hd"/>
<path d="M283.14 289.00v48.20" class="stroke"/>
<use x="300.84" y="316.00" xlink:href="#hd"/>
<path d="M297.34 316.00v21.20" class="stroke"/>
<use x="325.84" y="295.00" xlink:href="#hd"/>
<path d="M322.34 295.00v31.00" class="stroke"/>
<use x="325.84" y="307.00" xlink:href="#hd"/>
<use x="373.94" y="301.00" xlink:href="#hd"/>
<path d="M370.44 301.00v25.00" class="stroke"/>
<path class="fill"
	d="M370.44 326.00c0.6 -5.6 9.6 -9 5.6 -18.4
	1.6 6 -1.3 11.6 -5.6 12.8
"/>
<use x="373.94" y="307.00" xlink:href="#hd"/>
<path class="fill"
	d="M409.24 328.60l76.90 9.70v-3.20l-76.90 -9.70"/>
<path class="fill"
	d="M409.54 323.60l76.20 9.60v-3.20l-76.20 -9.60"/>
<use x="413.04" y="295.00" xlink:href="#hd"/>
<path d="M409.54 295.00v32.60" class="stroke"/>
<use x="431.04" y="298.00" xlink:href="#hd"/>
<use x="422.04" y="298.00" xlink:href="#sh0"/>
<path d="M427.54 298.00v31.90" class="stroke"/>
<use x="446.74" y="295.00" xlink:href="#hd"/>
<path d="M443.24 295.00v36.80" class="stroke"/>
<use x="460.94" y="304.00" xlink:href="#hd"/>
<path d="M457.44 304.00v29.60" class="stroke"/>
<use x="475.14" y="310.00" xlink:href="#hd"/>
<path d="M471.64 310.00v25.40" class="stroke"/>
<use x="489.34" y="316.00" xlink:href="#hd"/>
<path d="M485.84 316.00v21.20" class="stroke"/>
<path class="fill"
	d="M510.54 323.90l71.70 0.00v-3.20l-71.70 -0.00"/>
<path class="fill"
	d="M510.84 318.90l71.00 0.00v-3.20l-71.00 -0.00"/>
<use x="514.34" y="301.00" xlink:href="#hd"/>
<path d="M510.84 301.00v21.90" class="stroke"/>
<use x="514.34" y="307.00" xlink:href="#hd"/>
<use x="528.54" y="295.00" xlink:href="#hd"/>
<path d="M525.04 295.00v27.90" class="stroke"/>
<use x="542.74" y="301.00" xlink:href="#hd"/>
<path d="M539.24 301.00v21.90" class="stroke"/>
<use x="542.74" y="307.00" xlink:href="#hd"/>
<use x="556.94" y="295.00" xlink:href="#hd"/>
<path d="M553.44 295.00v27.90" class="stroke"/>
<use x="571.14" y="301.00" xlink:href="#hd"/>
<path d="M567.64 301.00v21.90" class="stroke"/>
<use x="571.14" y="307.00" xlink:href="#hd"/>
<use x="585.34" y="295.00" xlink:href="#hd"/>
<path d="M581.84 295.00v27.90" class="stroke"/>
<path class="fill"
	d="M606.44 323.90l71.70 0.00v-3.20l-71.70 -0.00"/>
<path class="fill"
	d="M606.84 318.90l71.00 0.00v-3.20l-71.00 -0.00"/>
<use x="610.34" y="301.00" xlink:href="#hd"/>
<path d="M606.84 301.00v21.90" class="stroke"/>
<use x="610.34" y="307.00" xlink:href="#hd"/>
<use x="624.54" y="295.00" xlink:href="#hd"/>
<path d="M621.04 295.00v27.90" class="stroke"/>
<use x="638.74" y="301.00" xlink:href="#hd"/>
<path d="M635.24 301.00v21.90" class="stroke"/>
<use x="638.74" y="307.00" xlink:href="#hd"/>
<use x="652.94" y="295.00" xlink:href="#hd"/>
<path d="M649.44 295.00v27.90" class="stroke"/>
<use x="667.14" y="301.00" xlink:href="#hd"/>
<path d="M663.64 301.00v21.90" class="stroke"/>
<use x="667.14" y="307.00" xlink:href="#hd"/>
<use x="681.34" y="295.00" xlink:href="#hd"/>
<path d="M677.84 295.00v27.90" class="stroke"/>
<use x="706.34" y="298.00" xlink:href="#hd"/>
<path d="M702.84 298.00v21.00" class="stroke"/>
<use x="763.14" y="295.00" xlink:href="#hd"/>
<path d="M759.64 295.00v21.00" class="stroke"/>
<path class="fill"
	d="M759.64 316.00c0.6 -5.6 9.6 -9 5.6 -18.4
	1.6 6 -1.3 11.6 -5.6 12.8
"/>
<path class="fill"
	d="M805.44 287.70l39.90 9.50v3.20l-39.90 -9.50"/>
<use x="802.34" y="307.00" xlink:href="#hd"/>
<path d="M805.84 307.00v-18.20" class="stroke"/>
<use x="821.94" y="316.00" xlink:href="#hd"/>
<path d="M825.44 316.00v-22.50" class="stroke"/>
<use x="841.54" y="322.00" xlink:href="#hl"/>
<use x="841.54" y="328.00" xlink:href="#hl"/>
<use x="841.54" y="328.00" xlink:href="#hd"/>
<path d="M845.04 328.00v-29.80" class="stroke"/>
</g>
</svg>
