<?xml version="1.0" standalone="no"?>
<!DOCTYPE svg PUBLIC "-//W3C//DTD SVG 1.1//EN"
	"http://www.w3.org/Graphics/SVG/1.1/DTD/svg11.dtd">
<svg xmlns="http://www.w3.org/2000/svg" version="1.1"
	xmlns:xlink="http://www.w3.org/1999/xlink"
	color="black"
	width="757.10px" height="293.80px">
<style type="text/css">
.fill {fill: currentColor}
.stroke {stroke: currentColor; fill: none}
text{white-space: pre}
</style>
<title>./K516f-7-3-11-8-8-5-12-7-11-10-9-9-11-10-2-6.abc (2787) tune 1</title>
<!-- Creator: abcm2ps-8.13.8 -->
<!-- CreationDate: Sep  7, 2017 11:18 -->
<!-- CommandLine: ./K516f-7-3-11-8-8-5-12-7-11-10-9-9-11-10-2-6.abc -O ./K516f-7-3-11-8-8-5-12-7-11-10-9-9-11-10-2-6.svg -g -->
<rect width="100%" height="100%" fill="white"/>
<g stroke-width="0.70" transform="scale(0.867)">
<!-- title: 7-3-11-8-8-5-12-7-11-10-9-9-11-10-2-6 -->
</g>
<g stroke-width="0.70" transform="scale(0.867)" font-family="Times" font-size="20.00">
<text x="436.84" y="22.00" text-anchor="middle">7-3-11-8-8-5-12-7-11-10-9-9-11-10-2-6</text>
</g>
<g stroke-width="0.70" transform="scale(0.867)" font-family="Times" font-size="20.00">
<!-- subtitle: $1K.516f::104:06:165:53:99:2:106:91:102:77:48:166:144:38:109:93::$0 -->
</g>
<g stroke-width="0.70" transform="scale(0.867)" font-family="Courier" font-size="8.00" font-weight="bold">
<text x="436.84" y="41.80" text-anchor="middle">K.516f::104:06:165:53:99:2:106:91:102:77:48:166:144:38:109:93::</text>
</g>
<g stroke-width="0.70" transform="scale(0.867)" font-family="Courier" font-size="8.00" font-weight="bold">
<!-- subtitle: $1Perm. No.: 27875208206599$0 -->
<text x="436.84" y="60.80" text-anchor="middle">Perm. No.: 27875208206599</text>
</g>
<g stroke-width="0.70" transform="scale(0.607)" font-family="Courier" font-size="8.00" font-weight="bold">
<defs>
<ellipse id="hd" rx="4.1" ry="2.9"
	transform="rotate(-20)" class="fill"/>
</defs>
<use x="103.06" y="121.29" xlink:href="#hd"/>
<path d="M106.56 121.29v-21.00" class="stroke"/>
<path class="fill"
	d="M106.56 100.29c0.6 5.6 9.6 9 5.6 18.4
	1.6 -6 -1.3 -11.6 -5.6 -12.8
"/>
</g>
<g stroke-width="0.70" transform="scale(0.867)" font-family="Times" font-size="15.00" font-weight="bold">
<text x="81.24" y="87.00">= 111</text>
<path class="stroke" stroke-width="1"
	d="M11.54 183.00v-82.00"/>
<path class="fill"
	d="M6.54 98.00
	c10.5 1 12 -4.5 12 -3.5c0 1 -3.5 5.5 -8.5 5.5
	v84.00
	c5 0 8.5 4.5 8.5 5.5c0 1 -1.5 -4.5 -12 -3.5"/>
<defs>
<g id="rdots" class="fill">
	<circle cx="0" cy="-9" r="1.2"/>
	<circle cx="0" cy="-15" r="1.2"/>
</g>
</defs>
<use x="70.54" y="125.00" xlink:href="#rdots"/>
<path class="stroke" stroke-width="1"
	d="M66.54 125.00v-24.00"/>
<path class="stroke" stroke-width="3"
	d="M62.04 125.00v-24.00"/>
<use x="70.54" y="183.00" xlink:href="#rdots"/>
<path class="stroke" stroke-width="1"
	d="M66.54 183.00v-58.00"/>
<path class="stroke" stroke-width="3"
	d="M62.04 183.00v-58.00"/>
<path class="stroke" stroke-width="1"
	d="M188.64 125.00v-24.00"/>
<path class="stroke" stroke-width="1"
	d="M188.64 183.00v-58.00"/>
<path class="stroke" stroke-width="1"
	d="M272.74 125.00v-24.00"/>
<path class="stroke" stroke-width="1"
	d="M272.74 183.00v-58.00"/>
<path class="stroke" stroke-width="1"
	d="M356.84 125.00v-24.00"/>
<path class="stroke" stroke-width="1"
	d="M356.84 183.00v-58.00"/>
<path class="stroke" stroke-width="1"
	d="M451.34 125.00v-24.00"/>
<path class="stroke" stroke-width="1"
	d="M451.34 183.00v-58.00"/>
<path class="stroke" stroke-width="1"
	d="M539.94 125.00v-24.00"/>
<path class="stroke" stroke-width="1"
	d="M539.94 183.00v-58.00"/>
<path class="stroke" stroke-width="1"
	d="M646.64 125.00v-24.00"/>
<path class="stroke" stroke-width="1"
	d="M646.64 183.00v-58.00"/>
<path class="stroke" stroke-width="1"
	d="M753.24 125.00v-24.00"/>
<path class="stroke" stroke-width="1"
	d="M753.24 183.00v-58.00"/>
<path class="stroke" stroke-width="3"
	d="M860.54 125.00v-24.00"/>
<path class="stroke" stroke-width="1"
	d="M856.04 125.00v-24.00"/>
<use x="852.04" y="125.00" xlink:href="#rdots"/>
<path class="stroke" stroke-width="3"
	d="M860.54 183.00v-58.00"/>
<path class="stroke" stroke-width="1"
	d="M856.04 183.00v-58.00"/>
<use x="852.04" y="183.00" xlink:href="#rdots"/>
<path d="m11.54 125.00
	h850.50
	M11.54 119.00
	h850.50
	M11.54 113.00
	h850.50
	M11.54 107.00
	h850.50
	M11.54 101.00
	h850.50
	" class="stroke"/>
<path d="m11.54 183.00
	h850.50
	M11.54 177.00
	h850.50
	M11.54 171.00
	h850.50
	M11.54 165.00
	h850.50
	M11.54 159.00
	h850.50
	" class="stroke"/>
<path class="fill"
	d="M290.74 103.40c7.18 -3.05 39.27 2.20 46.45 7.60
	v-0.25c-8.57 -7.16 -37.87 -12.41 -46.45 -7.35"/>
</g>
<g stroke-width="0.70" transform="scale(0.867)" font-family="Times" font-size="13.00">
<text x="757.24" y="86.40">1</text>
<path class="stroke"
	d="M753.24 75.00m0 20v-20h100.80v20"/>
<defs>
<path id="utclef" class="fill" d="m-50 -90
	c-72 -41 -72 -158 52 -188
	150 -10 220 188 90 256
	-114 52 -275 0 -293 -136
	-15 -181 93 -229 220 -334
	88 -87 79 -133 62 -210
	-51 33 -94 105 -89 186
	17 267 36 374 49 574
	6 96 -19 134 -77 135
	-80 1 -126 -93 -61 -133
	85 -41 133 101 31 105
	23 17 92 37 90 -92
	-10 -223 -39 -342 -50 -617
	0 -90 0 -162 96 -232
	56 72 63 230 22 289
	-74 106 -257 168 -255 316
	9 153 148 185 252 133
	86 -65 29 -192 -80 -176
	-71 12 -105 67 -59 124"/>
<use id="tclef" transform="translate(0,6) scale(0.045)"
	xlink:href="#utclef"/>
</defs>
<use x="23.54" y="119.00" xlink:href="#tclef"/>
<g font-family="serif" font-size="16" font-weight="bold" font-style="normal"
	transform="translate(42.04,124.50) scale(1.2,1)">
	<text text-anchor="middle">8</text>
	<text y="-12" text-anchor="middle">3</text>
</g>
<path class="fill"
	d="M81.74 130.50l89.80 -6.40v-3.20l-89.80 6.40"/>
<path class="fill"
	d="M82.04 125.50l89.20 -6.40v-3.20l-89.20 6.40"/>
<use x="85.54" y="104.00" xlink:href="#hd"/>
<path d="M82.04 104.00v25.50" class="stroke"/>
<use x="103.44" y="107.00" xlink:href="#hd"/>
<path d="M99.94 107.00v21.20" class="stroke"/>
<use x="121.24" y="104.00" xlink:href="#hd"/>
<path d="M117.74 104.00v22.90" class="stroke"/>
<use x="139.04" y="98.00" xlink:href="#hd"/>
<path d="M135.54 98.00v27.60" class="stroke"/>
<defs>
<path id="hl" class="stroke" d="m-6 0h12"/>
</defs>
<use x="156.94" y="95.00" xlink:href="#hl"/>
<use x="156.94" y="89.00" xlink:href="#hl"/>
<use x="156.94" y="89.00" xlink:href="#hd"/>
<path d="M153.44 89.00v35.40" class="stroke"/>
<use x="174.74" y="98.00" xlink:href="#hd"/>
<path d="M171.24 98.00v25.10" class="stroke"/>
<path class="fill"
	d="M198.84 138.20l51.10 -6.70v-3.20l-51.10 6.70"/>
<use x="202.64" y="119.00" xlink:href="#hd"/>
<path d="M199.14 119.00v18.20" class="stroke"/>
<use x="227.84" y="110.00" xlink:href="#hd"/>
<path d="M224.34 110.00v23.90" class="stroke"/>
<use x="253.14" y="104.00" xlink:href="#hd"/>
<path d="M249.64 104.00v26.60" class="stroke"/>
<path class="fill"
	d="M282.94 130.00l51.10 8.20v-3.20l-51.10 -8.20"/>
<use x="286.74" y="107.00" xlink:href="#hd"/>
<path d="M283.24 107.00v22.10" class="stroke"/>
<use x="311.94" y="113.00" xlink:href="#hd"/>
<path d="M308.44 113.00v20.10" class="stroke"/>
<use x="337.24" y="119.00" xlink:href="#hd"/>
<path d="M333.74 119.00v18.20" class="stroke"/>
<path class="fill"
	d="M367.04 127.00l61.60 0.00v-3.20l-61.60 -0.00"/>
<path class="fill"
	d="M392.64 122.00l17.80 0.00v-3.20l-17.80 -0.00"/>
<use x="370.84" y="104.00" xlink:href="#hd"/>
<path d="M367.34 104.00v22.00" class="stroke"/>
<use x="370.84" y="110.00" xlink:href="#hd"/>
<use x="396.14" y="104.00" xlink:href="#hd"/>
<path d="M392.64 104.00v22.00" class="stroke"/>
<use x="396.14" y="110.00" xlink:href="#hd"/>
<use x="413.94" y="101.00" xlink:href="#hd"/>
<path d="M410.44 101.00v25.00" class="stroke"/>
<use x="413.94" y="107.00" xlink:href="#hd"/>
<use x="431.74" y="98.00" xlink:href="#hd"/>
<path d="M428.24 98.00v28.00" class="stroke"/>
<use x="431.74" y="104.00" xlink:href="#hd"/>
<path class="fill"
	d="M466.04 123.00l51.10 3.20v-3.20l-51.10 -3.20"/>
<use x="469.84" y="101.00" xlink:href="#hd"/>
<defs>
<path id="usharp" class="fill" d="
	m136 -702
	v890
	h32
	v-890
	m128 840
	h32
	v-888
	h-32
	m-232 286
	v116
	l338 -96
	v-116
	m-338 442
	v116
	l338 -98
	v-114"/>
<use id="sh0" transform="translate(-4,5) scale(0.018)"
	xlink:href="#usharp"/>
</defs>
<use x="460.84" y="101.00" xlink:href="#sh0"/>
<path d="M466.34 101.00v21.00" class="stroke"/>
<use x="495.14" y="95.00" xlink:href="#hl"/>
<use x="495.14" y="95.00" xlink:href="#hd"/>
<path d="M491.64 95.00v28.60" class="stroke"/>
<use x="520.34" y="107.00" xlink:href="#hd"/>
<path d="M516.84 107.00v18.20" class="stroke"/>
<path class="fill"
	d="M557.14 85.40l79.40 -7.60v3.20l-79.40 7.60"/>
<path class="fill"
	d="M582.74 88.00l53.50 -5.20v3.20l-53.50 5.20"/>
<use x="554.04" y="116.00" xlink:href="#hd"/>
<path d="M557.54 116.00v-29.60" class="stroke"/>
<use x="579.24" y="122.00" xlink:href="#hd"/>
<use x="570.24" y="122.00" xlink:href="#sh0"/>
<path d="M582.74 122.00v-38.00" class="stroke"/>
<use x="597.04" y="119.00" xlink:href="#hd"/>
<path d="M600.54 119.00v-36.80" class="stroke"/>
<use x="614.94" y="113.00" xlink:href="#hd"/>
<path d="M618.44 113.00v-32.50" class="stroke"/>
<use x="632.74" y="98.00" xlink:href="#hd"/>
<path d="M636.24 98.00v-19.20" class="stroke"/>
<path class="fill"
	d="M656.84 138.20l79.40 0.00v-3.20l-79.40 -0.00"/>
<path class="fill"
	d="M682.34 133.20l53.50 0.00v-3.20l-53.50 -0.00"/>
<use x="660.64" y="116.00" xlink:href="#hd"/>
<path d="M657.14 116.00v21.20" class="stroke"/>
<use x="685.84" y="107.00" xlink:href="#hd"/>
<path d="M682.34 107.00v30.20" class="stroke"/>
<use x="703.74" y="110.00" xlink:href="#hd"/>
<path d="M700.24 110.00v27.20" class="stroke"/>
<use x="721.54" y="113.00" xlink:href="#hd"/>
<path d="M718.04 113.00v24.20" class="stroke"/>
<use x="739.34" y="116.00" xlink:href="#hd"/>
<path d="M735.84 116.00v21.20" class="stroke"/>
<use x="767.34" y="98.00" xlink:href="#hd"/>
<path d="M763.84 98.00v40.00" class="stroke"/>
<use x="767.34" y="119.00" xlink:href="#hd"/>
<use x="767.34" y="113.00" xlink:href="#hd"/>
<use x="767.34" y="107.00" xlink:href="#hd"/>
<defs>
<path id="r8e" class="fill" d="m 0 0
	c-1.5 1.5 -2.4 2 -3.6 2
	2.4 -2.8 -2.8 -4 -2.8 -1.2
	c0 2.7 4.3 2.4 5.9 0.6"/>
<g id="r8">
	<path d="m3.3 -4l-3.4 9.6" class="stroke"/>
	<use x="3.4" y="-4" xlink:href="#r8e"/>
</g>
</defs>
<use x="828.34" y="113.00" xlink:href="#r8"/>
<defs>
<path id="ubclef" class="fill" d="m-200 -87
	c124 -35 222 -78 254 -236
	43 -228 -167 -246 -192 -103
	59 -80 157 22 92 78
	-62 47 -115 -22 -106 -88
	21 -141 270 -136 274 52
	-1 175 -106 264 -322 297
	m357 -250
	c0 -36 51 -34 51 0
	0 37 -51 36 -51 0
	m-2 -129
	c0 -36 51 -34 51 0
	0 38 -51 37 -51 0"/>
<use id="bclef" transform="translate(0,18) scale(0.045)"
	xlink:href="#ubclef"/>
</defs>
<use x="23.54" y="165.00" xlink:href="#bclef"/>
<g font-family="serif" font-size="16" font-weight="bold" font-style="normal"
	transform="translate(42.04,182.50) scale(1.2,1)">
	<text text-anchor="middle">8</text>
	<text y="-12" text-anchor="middle">3</text>
</g>
<use x="85.54" y="174.00" xlink:href="#hd"/>
<path d="M89.04 174.00v-21.00" class="stroke"/>
<use x="156.94" y="171.00" xlink:href="#r8"/>
<use x="202.64" y="168.00" xlink:href="#hd"/>
<path d="M199.14 168.00v25.00" class="stroke"/>
<use x="202.64" y="174.00" xlink:href="#hd"/>
<use x="253.14" y="171.00" xlink:href="#r8"/>
<use x="286.74" y="177.00" xlink:href="#hd"/>
<path d="M290.24 177.00v-21.00" class="stroke"/>
<use x="337.24" y="171.00" xlink:href="#r8"/>
<use x="370.84" y="174.00" xlink:href="#hd"/>
<path d="M374.34 174.00v-21.00" class="stroke"/>
<use x="431.74" y="171.00" xlink:href="#r8"/>
<use x="469.84" y="159.00" xlink:href="#hd"/>
<path d="M466.34 159.00v34.00" class="stroke"/>
<use x="469.84" y="174.00" xlink:href="#hd"/>
<use x="520.34" y="159.00" xlink:href="#hd"/>
<path d="M516.84 159.00v34.00" class="stroke"/>
<path class="fill"
	d="M516.84 193.00c0.6 -5.6 9.6 -9 5.6 -18.4
	1.6 6 -1.3 11.6 -5.6 12.8
"/>
<use x="520.34" y="174.00" xlink:href="#hd"/>
<use x="554.04" y="162.00" xlink:href="#hd"/>
<path d="M550.54 162.00v34.00" class="stroke"/>
<use x="554.04" y="177.00" xlink:href="#hd"/>
<use x="614.94" y="171.00" xlink:href="#r8"/>
<path class="fill"
	d="M663.84 148.30l61.60 8.40v3.20l-61.60 -8.40"/>
<use x="660.64" y="174.00" xlink:href="#hd"/>
<path d="M664.14 174.00v-24.70" class="stroke"/>
<use x="685.84" y="171.00" xlink:href="#hd"/>
<path d="M689.34 171.00v-18.20" class="stroke"/>
<use x="721.54" y="189.00" xlink:href="#hl"/>
<use x="721.54" y="192.00" xlink:href="#hd"/>
<path d="M725.04 192.00v-34.30" class="stroke"/>
<path class="fill"
	d="M763.44 202.20l79.60 0.00v-3.20l-79.60 -0.00"/>
<path class="fill"
	d="M789.04 197.20l53.70 0.00v-3.20l-53.70 -0.00"/>
<use x="767.34" y="183.00" xlink:href="#hd"/>
<path d="M763.84 183.00v18.20" class="stroke"/>
<use x="792.54" y="162.00" xlink:href="#hd"/>
<path d="M789.04 162.00v39.20" class="stroke"/>
<use x="810.54" y="165.00" xlink:href="#hd"/>
<defs>
<path id="unat" class="fill" d="
	m96 -750
	h-32
	v716
	l32 -8
	182 -54
	v282
	h32
	v-706
	l-34 10
	-180 50
	v-290
	m0 592
	v-190
	l182 -52
	v188"/>
<use id="nt0" transform="translate(-3,5) scale(0.018)"
	xlink:href="#unat"/>
</defs>
<use x="801.54" y="165.00" xlink:href="#nt0"/>
<path d="M807.04 165.00v36.20" class="stroke"/>
<use x="828.34" y="168.00" xlink:href="#hd"/>
<path d="M824.84 168.00v33.20" class="stroke"/>
<use x="846.14" y="171.00" xlink:href="#hd"/>
<path d="M842.64 171.00v30.20" class="stroke"/>
</g>
<g stroke-width="0.70" transform="scale(0.867)" font-family="Times" font-size="13.00">
<path class="stroke" stroke-width="1"
	d="M11.54 316.00v-82.00"/>
<path class="fill"
	d="M6.54 231.00
	c10.5 1 12 -4.5 12 -3.5c0 1 -3.5 5.5 -8.5 5.5
	v84.00
	c5 0 8.5 4.5 8.5 5.5c0 1 -1.5 -4.5 -12 -3.5"/>
<use x="143.84" y="258.00" xlink:href="#rdots"/>
<path class="stroke" stroke-width="1"
	d="M139.84 258.00v-24.00"/>
<path class="stroke" stroke-width="3"
	d="M135.34 258.00v-24.00"/>
<use x="143.84" y="316.00" xlink:href="#rdots"/>
<path class="stroke" stroke-width="1"
	d="M139.84 316.00v-58.00"/>
<path class="stroke" stroke-width="3"
	d="M135.34 316.00v-58.00"/>
<path class="stroke" stroke-width="1"
	d="M232.44 258.00v-24.00"/>
<path class="stroke" stroke-width="1"
	d="M232.44 316.00v-58.00"/>
<path class="stroke" stroke-width="1"
	d="M311.84 258.00v-24.00"/>
<path class="stroke" stroke-width="1"
	d="M311.84 316.00v-58.00"/>
<path class="stroke" stroke-width="1"
	d="M401.94 258.00v-24.00"/>
<path class="stroke" stroke-width="1"
	d="M401.94 316.00v-58.00"/>
<path class="stroke" stroke-width="1"
	d="M490.24 258.00v-24.00"/>
<path class="stroke" stroke-width="1"
	d="M490.24 316.00v-58.00"/>
<path class="stroke" stroke-width="1"
	d="M589.44 258.00v-24.00"/>
<path class="stroke" stroke-width="1"
	d="M589.44 316.00v-58.00"/>
<path class="stroke" stroke-width="1"
	d="M688.54 258.00v-24.00"/>
<path class="stroke" stroke-width="1"
	d="M688.54 316.00v-58.00"/>
<path class="stroke" stroke-width="1"
	d="M787.64 258.00v-24.00"/>
<path class="stroke" stroke-width="1"
	d="M787.64 316.00v-58.00"/>
<path class="stroke" stroke-width="3"
	d="M860.54 258.00v-24.00"/>
<path class="stroke" stroke-width="1"
	d="M856.04 258.00v-24.00"/>
<use x="852.04" y="258.00" xlink:href="#rdots"/>
<path class="stroke" stroke-width="3"
	d="M860.54 316.00v-58.00"/>
<path class="stroke" stroke-width="1"
	d="M856.04 316.00v-58.00"/>
<use x="852.04" y="316.00" xlink:href="#rdots"/>
<path d="m11.54 258.00
	h850.50
	M11.54 252.00
	h850.50
	M11.54 246.00
	h850.50
	M11.54 240.00
	h850.50
	M11.54 234.00
	h850.50
	" class="stroke"/>
<path d="m11.54 316.00
	h850.50
	M11.54 310.00
	h850.50
	M11.54 304.00
	h850.50
	M11.54 298.00
	h850.50
	M11.54 292.00
	h850.50
	" class="stroke"/>
<text x="47.54" y="219.40">2</text>
<path class="stroke"
	d="M43.54 208.00m0 20v-20h89.30v20"/>
<use x="23.54" y="252.00" xlink:href="#tclef"/>
<use x="56.04" y="231.00" xlink:href="#hd"/>
<path d="M52.54 231.00v40.00" class="stroke"/>
<use x="56.04" y="252.00" xlink:href="#hd"/>
<use x="56.04" y="246.00" xlink:href="#hd"/>
<use x="56.04" y="240.00" xlink:href="#hd"/>
<use x="109.54" y="246.00" xlink:href="#r8"/>
<path class="fill"
	d="M159.54 262.50l30.30 5.70v-3.20l-30.30 -5.70"/>
<path class="fill"
	d="M159.84 257.60l14.80 2.80v-3.20l-14.80 -2.80"/>
<use x="163.34" y="234.00" xlink:href="#hd"/>
<use x="154.34" y="234.00" xlink:href="#sh0"/>
<path d="M159.84 234.00v27.60" class="stroke"/>
<use x="178.24" y="240.00" xlink:href="#hd"/>
<path d="M174.74 240.00v24.40" class="stroke"/>
<use x="193.04" y="249.00" xlink:href="#hd"/>
<path d="M189.54 249.00v18.20" class="stroke"/>
<use x="215.94" y="234.00" xlink:href="#hd"/>
<path d="M212.44 234.00v21.00" class="stroke"/>
<path class="fill"
	d="M212.44 255.00c0.6 -5.6 9.6 -9 5.6 -18.4
	1.6 6 -1.3 11.6 -5.6 12.8
"/>
<path class="fill"
	d="M241.14 254.20l51.00 5.00v-3.20l-51.00 -5.00"/>
<path class="fill"
	d="M241.44 249.30l14.80 1.50v-3.20l-14.80 -1.50"/>
<use x="244.94" y="231.00" xlink:href="#hd"/>
<path d="M241.44 231.00v22.30" class="stroke"/>
<use x="259.74" y="228.00" xlink:href="#hl"/>
<use x="259.74" y="225.00" xlink:href="#hd"/>
<path d="M256.24 225.00v29.70" class="stroke"/>
<use x="274.64" y="231.00" xlink:href="#hd"/>
<path d="M271.14 231.00v25.20" class="stroke"/>
<use x="295.34" y="240.00" xlink:href="#hd"/>
<path d="M291.84 240.00v18.20" class="stroke"/>
<path class="fill"
	d="M320.44 267.50l65.80 -7.30v-3.20l-65.80 7.30"/>
<path class="fill"
	d="M341.54 260.20l44.50 -4.90v-3.20l-44.50 4.90"/>
<use x="324.34" y="237.00" xlink:href="#hd"/>
<path d="M320.84 237.00v29.50" class="stroke"/>
<use x="345.04" y="243.00" xlink:href="#hd"/>
<path d="M341.54 243.00v21.20" class="stroke"/>
<use x="359.84" y="237.00" xlink:href="#hd"/>
<path d="M356.34 237.00v25.60" class="stroke"/>
<use x="374.64" y="231.00" xlink:href="#hd"/>
<path d="M371.14 231.00v29.90" class="stroke"/>
<use x="389.44" y="228.00" xlink:href="#hl"/>
<use x="389.44" y="222.00" xlink:href="#hl"/>
<use x="389.44" y="222.00" xlink:href="#hd"/>
<path d="M385.94 222.00v37.30" class="stroke"/>
<path class="fill"
	d="M410.64 262.20l60.00 5.40v-3.20l-60.00 -5.40"/>
<path class="fill"
	d="M410.94 257.20l44.50 4.00v-3.20l-44.50 -4.00"/>
<use x="414.44" y="240.00" xlink:href="#hd"/>
<path d="M410.94 240.00v21.20" class="stroke"/>
<use x="429.34" y="228.00" xlink:href="#hl"/>
<use x="429.34" y="225.00" xlink:href="#hd"/>
<path d="M425.84 225.00v37.50" class="stroke"/>
<use x="444.14" y="231.00" xlink:href="#hd"/>
<path d="M440.64 231.00v32.90" class="stroke"/>
<use x="458.94" y="240.00" xlink:href="#hd"/>
<path d="M455.44 240.00v25.20" class="stroke"/>
<use x="473.74" y="246.00" xlink:href="#hd"/>
<path d="M470.24 246.00v20.50" class="stroke"/>
<path class="fill"
	d="M498.94 260.60l60.00 3.20v-3.20l-60.00 -3.20"/>
<use x="502.74" y="231.00" xlink:href="#hd"/>
<path d="M499.24 231.00v28.60" class="stroke"/>
<use x="532.44" y="243.00" xlink:href="#hd"/>
<path d="M528.94 243.00v18.20" class="stroke"/>
<use x="562.04" y="237.00" xlink:href="#hd"/>
<path d="M558.54 237.00v25.80" class="stroke"/>
<path class="fill"
	d="M598.04 272.80l60.00 -3.20v-3.20l-60.00 3.20"/>
<use x="601.94" y="243.00" xlink:href="#hd"/>
<path d="M598.44 243.00v28.80" class="stroke"/>
<use x="631.54" y="252.00" xlink:href="#hd"/>
<path d="M628.04 252.00v18.20" class="stroke"/>
<use x="661.24" y="237.00" xlink:href="#hd"/>
<path d="M657.74 237.00v31.60" class="stroke"/>
<path class="fill"
	d="M697.24 266.00l74.80 0.00v-3.20l-74.80 -0.00"/>
<path class="fill"
	d="M697.54 261.00l74.10 0.00v-3.20l-74.10 -0.00"/>
<use x="701.04" y="240.00" xlink:href="#hd"/>
<path d="M697.54 240.00v24.90" class="stroke"/>
<use x="715.84" y="234.00" xlink:href="#hd"/>
<path d="M712.34 234.00v30.90" class="stroke"/>
<use x="730.64" y="240.00" xlink:href="#hd"/>
<path d="M727.14 240.00v24.90" class="stroke"/>
<use x="745.54" y="234.00" xlink:href="#hd"/>
<path d="M742.04 234.00v30.90" class="stroke"/>
<use x="760.34" y="246.00" xlink:href="#hd"/>
<path d="M756.84 246.00v18.90" class="stroke"/>
<use x="775.14" y="240.00" xlink:href="#hd"/>
<path d="M771.64 240.00v24.90" class="stroke"/>
<use x="800.14" y="243.00" xlink:href="#hd"/>
<path d="M796.64 243.00v21.00" class="stroke"/>
<use x="841.54" y="246.00" xlink:href="#r8"/>
<use x="23.54" y="298.00" xlink:href="#bclef"/>
<path class="fill"
	d="M52.24 335.20l69.00 -5.00v-3.20l-69.00 5.00"/>
<path class="fill"
	d="M73.24 328.70l47.60 -3.50v-3.20l-47.60 3.50"/>
<use x="56.04" y="316.00" xlink:href="#hd"/>
<path d="M52.54 316.00v18.20" class="stroke"/>
<use x="76.74" y="289.00" xlink:href="#hd"/>
<path d="M73.24 289.00v43.70" class="stroke"/>
<use x="91.54" y="295.00" xlink:href="#hd"/>
<path d="M88.04 295.00v36.60" class="stroke"/>
<use x="109.54" y="298.00" xlink:href="#hd"/>
<use x="100.54" y="298.00" xlink:href="#sh0"/>
<path d="M106.04 298.00v32.30" class="stroke"/>
<use x="124.34" y="301.00" xlink:href="#hd"/>
<path d="M120.84 301.00v28.20" class="stroke"/>
<use x="163.34" y="292.00" xlink:href="#hd"/>
<path d="M159.84 292.00v34.00" class="stroke"/>
<use x="163.34" y="307.00" xlink:href="#hd"/>
<use x="215.94" y="292.00" xlink:href="#hd"/>
<path d="M212.44 292.00v34.00" class="stroke"/>
<path class="fill"
	d="M212.44 326.00c0.6 -5.6 9.6 -9 5.6 -18.4
	1.6 6 -1.3 11.6 -5.6 12.8
"/>
<use x="215.94" y="307.00" xlink:href="#hd"/>
<use x="244.94" y="310.00" xlink:href="#hd"/>
<path d="M248.44 310.00v-25.00" class="stroke"/>
<use x="244.94" y="304.00" xlink:href="#hd"/>
<use x="295.34" y="295.00" xlink:href="#hd"/>
<path d="M291.84 295.00v34.00" class="stroke"/>
<path class="fill"
	d="M291.84 329.00c0.6 -5.6 9.6 -9 5.6 -18.4
	1.6 6 -1.3 11.6 -5.6 12.8
"/>
<use x="295.34" y="310.00" xlink:href="#hd"/>
<use x="324.34" y="295.00" xlink:href="#hd"/>
<path d="M320.84 295.00v31.00" class="stroke"/>
<use x="324.34" y="307.00" xlink:href="#hd"/>
<use x="374.64" y="301.00" xlink:href="#hd"/>
<path d="M371.14 301.00v25.00" class="stroke"/>
<path class="fill"
	d="M371.14 326.00c0.6 -5.6 9.6 -9 5.6 -18.4
	1.6 6 -1.3 11.6 -5.6 12.8
"/>
<use x="374.64" y="307.00" xlink:href="#hd"/>
<use x="414.44" y="289.00" xlink:href="#hd"/>
<path d="M410.94 289.00v25.00" class="stroke"/>
<use x="414.44" y="295.00" xlink:href="#hd"/>
<use x="473.74" y="304.00" xlink:href="#r8"/>
<path class="fill"
	d="M498.94 323.90l74.80 0.00v-3.20l-74.80 -0.00"/>
<path class="fill"
	d="M499.24 318.90l74.10 0.00v-3.20l-74.10 -0.00"/>
<use x="502.74" y="301.00" xlink:href="#hd"/>
<path d="M499.24 301.00v21.90" class="stroke"/>
<use x="502.74" y="307.00" xlink:href="#hd"/>
<use x="517.64" y="295.00" xlink:href="#hd"/>
<path d="M514.14 295.00v27.90" class="stroke"/>
<use x="532.44" y="301.00" xlink:href="#hd"/>
<path d="M528.94 301.00v21.90" class="stroke"/>
<use x="532.44" y="307.00" xlink:href="#hd"/>
<use x="547.24" y="295.00" xlink:href="#hd"/>
<path d="M543.74 295.00v27.90" class="stroke"/>
<use x="562.04" y="301.00" xlink:href="#hd"/>
<path d="M558.54 301.00v21.90" class="stroke"/>
<use x="562.04" y="307.00" xlink:href="#hd"/>
<use x="576.94" y="295.00" xlink:href="#hd"/>
<path d="M573.44 295.00v27.90" class="stroke"/>
<path class="fill"
	d="M598.04 323.90l74.80 0.00v-3.20l-74.80 -0.00"/>
<path class="fill"
	d="M598.44 318.90l74.10 0.00v-3.20l-74.10 -0.00"/>
<use x="601.94" y="301.00" xlink:href="#hd"/>
<path d="M598.44 301.00v21.90" class="stroke"/>
<use x="601.94" y="307.00" xlink:href="#hd"/>
<use x="616.74" y="295.00" xlink:href="#hd"/>
<path d="M613.24 295.00v27.90" class="stroke"/>
<use x="631.54" y="301.00" xlink:href="#hd"/>
<path d="M628.04 301.00v21.90" class="stroke"/>
<use x="631.54" y="307.00" xlink:href="#hd"/>
<use x="646.34" y="295.00" xlink:href="#hd"/>
<path d="M642.84 295.00v27.90" class="stroke"/>
<use x="661.24" y="301.00" xlink:href="#hd"/>
<path d="M657.74 301.00v21.90" class="stroke"/>
<use x="661.24" y="307.00" xlink:href="#hd"/>
<use x="676.04" y="295.00" xlink:href="#hd"/>
<path d="M672.54 295.00v27.90" class="stroke"/>
<use x="701.04" y="292.00" xlink:href="#hd"/>
<path d="M697.54 292.00v25.00" class="stroke"/>
<use x="701.04" y="298.00" xlink:href="#hd"/>
<use x="760.34" y="286.00" xlink:href="#hl"/>
<use x="760.34" y="283.00" xlink:href="#hd"/>
<path d="M756.84 283.00v31.00" class="stroke"/>
<path class="fill"
	d="M756.84 314.00c0.6 -5.6 9.6 -9 5.6 -18.4
	1.6 6 -1.3 11.6 -5.6 12.8
"/>
<use x="760.34" y="295.00" xlink:href="#hd"/>
<path class="fill"
	d="M803.34 287.70l42.10 9.80v3.20l-42.10 -9.80"/>
<use x="800.14" y="307.00" xlink:href="#hd"/>
<path d="M803.64 307.00v-18.20" class="stroke"/>
<use x="820.84" y="316.00" xlink:href="#hd"/>
<path d="M824.34 316.00v-22.40" class="stroke"/>
<use x="841.54" y="322.00" xlink:href="#hl"/>
<use x="841.54" y="328.00" xlink:href="#hl"/>
<use x="841.54" y="328.00" xlink:href="#hd"/>
<path d="M845.04 328.00v-29.60" class="stroke"/>
</g>
</svg>
