<?xml version="1.0" standalone="no"?>
<!DOCTYPE svg PUBLIC "-//W3C//DTD SVG 1.1//EN"
	"http://www.w3.org/Graphics/SVG/1.1/DTD/svg11.dtd">
<svg xmlns="http://www.w3.org/2000/svg" version="1.1"
	xmlns:xlink="http://www.w3.org/1999/xlink"
	color="black"
	width="757.10px" height="297.28px">
<style type="text/css">
.fill {fill: currentColor}
.stroke {stroke: currentColor; fill: none}
text{white-space: pre}
</style>
<title>./K516f-4-4-11-11-11-8-3-7-7-9-7-7-2-11-7-6.abc (2010) tune 1</title>
<!-- Creator: abcm2ps-8.13.8 -->
<!-- CreationDate: Sep  7, 2017 11:19 -->
<!-- CommandLine: ./K516f-4-4-11-11-11-8-3-7-7-9-7-7-2-11-7-6.abc -O ./K516f-4-4-11-11-11-8-3-7-7-9-7-7-2-11-7-6.svg -g -->
<rect width="100%" height="100%" fill="white"/>
<g stroke-width="0.70" transform="scale(0.867)">
<!-- title: 4-4-11-11-11-8-3-7-7-9-7-7-2-11-7-6 -->
</g>
<g stroke-width="0.70" transform="scale(0.867)" font-family="Times" font-size="20.00">
<text x="436.84" y="22.00" text-anchor="middle">4-4-11-11-11-8-3-7-7-9-7-7-2-11-7-6</text>
</g>
<g stroke-width="0.70" transform="scale(0.867)" font-family="Times" font-size="20.00">
<!-- subtitle: $1K.516f::69:95:165:61:135:133:134:91:138:88:150:29:112:59:23:93::$0 -->
</g>
<g stroke-width="0.70" transform="scale(0.867)" font-family="Courier" font-size="8.00" font-weight="bold">
<text x="436.84" y="41.80" text-anchor="middle">K.516f::69:95:165:61:135:133:134:91:138:88:150:29:112:59:23:93::</text>
</g>
<g stroke-width="0.70" transform="scale(0.867)" font-family="Courier" font-size="8.00" font-weight="bold">
<!-- subtitle: $1Perm. No.: 201002493802355$0 -->
<text x="436.84" y="60.80" text-anchor="middle">Perm. No.: 201002493802355</text>
</g>
<g stroke-width="0.70" transform="scale(0.607)" font-family="Courier" font-size="8.00" font-weight="bold">
<defs>
<ellipse id="hd" rx="4.1" ry="2.9"
	transform="rotate(-20)" class="fill"/>
</defs>
<use x="103.06" y="121.29" xlink:href="#hd"/>
<path d="M106.56 121.29v-21.00" class="stroke"/>
<path class="fill"
	d="M106.56 100.29c0.6 5.6 9.6 9 5.6 18.4
	1.6 -6 -1.3 -11.6 -5.6 -12.8
"/>
</g>
<g stroke-width="0.70" transform="scale(0.867)" font-family="Times" font-size="15.00" font-weight="bold">
<text x="81.24" y="87.00">= 111</text>
<path class="stroke" stroke-width="1"
	d="M11.54 184.00v-82.00"/>
<path class="fill"
	d="M6.54 99.00
	c10.5 1 12 -4.5 12 -3.5c0 1 -3.5 5.5 -8.5 5.5
	v84.00
	c5 0 8.5 4.5 8.5 5.5c0 1 -1.5 -4.5 -12 -3.5"/>
<defs>
<g id="rdots" class="fill">
	<circle cx="0" cy="-9" r="1.2"/>
	<circle cx="0" cy="-15" r="1.2"/>
</g>
</defs>
<use x="70.54" y="126.00" xlink:href="#rdots"/>
<path class="stroke" stroke-width="1"
	d="M66.54 126.00v-24.00"/>
<path class="stroke" stroke-width="3"
	d="M62.04 126.00v-24.00"/>
<use x="70.54" y="184.00" xlink:href="#rdots"/>
<path class="stroke" stroke-width="1"
	d="M66.54 184.00v-58.00"/>
<path class="stroke" stroke-width="3"
	d="M62.04 184.00v-58.00"/>
<path class="stroke" stroke-width="1"
	d="M156.54 126.00v-24.00"/>
<path class="stroke" stroke-width="1"
	d="M156.54 184.00v-58.00"/>
<path class="stroke" stroke-width="1"
	d="M241.44 126.00v-24.00"/>
<path class="stroke" stroke-width="1"
	d="M241.44 184.00v-58.00"/>
<path class="stroke" stroke-width="1"
	d="M326.44 126.00v-24.00"/>
<path class="stroke" stroke-width="1"
	d="M326.44 184.00v-58.00"/>
<path class="stroke" stroke-width="1"
	d="M421.94 126.00v-24.00"/>
<path class="stroke" stroke-width="1"
	d="M421.94 184.00v-58.00"/>
<path class="stroke" stroke-width="1"
	d="M526.44 126.00v-24.00"/>
<path class="stroke" stroke-width="1"
	d="M526.44 184.00v-58.00"/>
<path class="stroke" stroke-width="1"
	d="M634.14 126.00v-24.00"/>
<path class="stroke" stroke-width="1"
	d="M634.14 184.00v-58.00"/>
<path class="stroke" stroke-width="1"
	d="M752.34 126.00v-24.00"/>
<path class="stroke" stroke-width="1"
	d="M752.34 184.00v-58.00"/>
<path class="stroke" stroke-width="3"
	d="M860.54 126.00v-24.00"/>
<path class="stroke" stroke-width="1"
	d="M856.04 126.00v-24.00"/>
<use x="852.04" y="126.00" xlink:href="#rdots"/>
<path class="stroke" stroke-width="3"
	d="M860.54 184.00v-58.00"/>
<path class="stroke" stroke-width="1"
	d="M856.04 184.00v-58.00"/>
<use x="852.04" y="184.00" xlink:href="#rdots"/>
<path d="m11.54 126.00
	h850.50
	M11.54 120.00
	h850.50
	M11.54 114.00
	h850.50
	M11.54 108.00
	h850.50
	M11.54 102.00
	h850.50
	" class="stroke"/>
<path d="m11.54 184.00
	h850.50
	M11.54 178.00
	h850.50
	M11.54 172.00
	h850.50
	M11.54 166.00
	h850.50
	M11.54 160.00
	h850.50
	" class="stroke"/>
<path class="fill"
	d="M89.74 95.40c7.25 -3.06 39.72 2.19 46.97 7.60
	v-0.25c-8.66 -7.16 -38.31 -12.41 -46.97 -7.35"/>
<path class="fill"
	d="M259.64 104.40c7.25 -3.06 39.72 2.19 46.97 7.60
	v-0.25c-8.66 -7.16 -38.31 -12.41 -46.97 -7.35"/>
</g>
<g stroke-width="0.70" transform="scale(0.867)" font-family="Times" font-size="13.00">
<text x="756.34" y="87.40">1</text>
<path class="stroke"
	d="M752.34 76.00m0 20v-20h101.70v20"/>
<defs>
<path id="utclef" class="fill" d="m-50 -90
	c-72 -41 -72 -158 52 -188
	150 -10 220 188 90 256
	-114 52 -275 0 -293 -136
	-15 -181 93 -229 220 -334
	88 -87 79 -133 62 -210
	-51 33 -94 105 -89 186
	17 267 36 374 49 574
	6 96 -19 134 -77 135
	-80 1 -126 -93 -61 -133
	85 -41 133 101 31 105
	23 17 92 37 90 -92
	-10 -223 -39 -342 -50 -617
	0 -90 0 -162 96 -232
	56 72 63 230 22 289
	-74 106 -257 168 -255 316
	9 153 148 185 252 133
	86 -65 29 -192 -80 -176
	-71 12 -105 67 -59 124"/>
<use id="tclef" transform="translate(0,6) scale(0.045)"
	xlink:href="#utclef"/>
</defs>
<use x="23.54" y="120.00" xlink:href="#tclef"/>
<g font-family="serif" font-size="16" font-weight="bold" font-style="normal"
	transform="translate(42.04,125.50) scale(1.2,1)">
	<text text-anchor="middle">8</text>
	<text y="-12" text-anchor="middle">3</text>
</g>
<path class="fill"
	d="M81.84 122.00l51.70 8.30v-3.20l-51.70 -8.30"/>
<use x="85.74" y="99.00" xlink:href="#hd"/>
<path d="M82.24 99.00v22.00" class="stroke"/>
<use x="111.14" y="105.00" xlink:href="#hd"/>
<path d="M107.64 105.00v20.10" class="stroke"/>
<use x="136.64" y="111.00" xlink:href="#hd"/>
<path d="M133.14 111.00v18.20" class="stroke"/>
<path class="fill"
	d="M166.84 122.00l51.70 8.30v-3.20l-51.70 -8.30"/>
<use x="170.64" y="99.00" xlink:href="#hd"/>
<path d="M167.14 99.00v22.00" class="stroke"/>
<use x="196.14" y="105.00" xlink:href="#hd"/>
<path d="M192.64 105.00v20.10" class="stroke"/>
<use x="221.64" y="111.00" xlink:href="#hd"/>
<path d="M218.14 111.00v18.20" class="stroke"/>
<path class="fill"
	d="M251.74 131.00l51.70 8.30v-3.20l-51.70 -8.30"/>
<use x="255.64" y="108.00" xlink:href="#hd"/>
<path d="M252.14 108.00v22.00" class="stroke"/>
<use x="281.14" y="114.00" xlink:href="#hd"/>
<path d="M277.64 114.00v20.10" class="stroke"/>
<use x="306.54" y="120.00" xlink:href="#hd"/>
<path d="M303.04 120.00v18.20" class="stroke"/>
<path class="fill"
	d="M336.74 136.40l62.20 -4.60v-3.20l-62.20 4.60"/>
<path class="fill"
	d="M362.54 129.50l18.00 -1.30v-3.20l-18.00 1.30"/>
<use x="340.54" y="111.00" xlink:href="#hd"/>
<path d="M337.04 111.00v24.40" class="stroke"/>
<use x="366.04" y="105.00" xlink:href="#hd"/>
<path d="M362.54 105.00v28.50" class="stroke"/>
<use x="384.04" y="111.00" xlink:href="#hd"/>
<path d="M380.54 111.00v21.20" class="stroke"/>
<use x="402.04" y="99.00" xlink:href="#hd"/>
<path d="M398.54 99.00v31.90" class="stroke"/>
<path class="fill"
	d="M436.54 128.00l62.20 0.00v-3.20l-62.20 -0.00"/>
<path class="fill"
	d="M462.44 123.00l18.00 0.00v-3.20l-18.00 -0.00"/>
<use x="440.44" y="102.00" xlink:href="#hd"/>
<defs>
<path id="usharp" class="fill" d="
	m136 -702
	v890
	h32
	v-890
	m128 840
	h32
	v-888
	h-32
	m-232 286
	v116
	l338 -96
	v-116
	m-338 442
	v116
	l338 -98
	v-114"/>
<use id="sh0" transform="translate(-4,5) scale(0.018)"
	xlink:href="#usharp"/>
</defs>
<use x="431.44" y="102.00" xlink:href="#sh0"/>
<path d="M436.94 102.00v25.00" class="stroke"/>
<use x="465.94" y="102.00" xlink:href="#hd"/>
<path d="M462.44 102.00v25.00" class="stroke"/>
<use x="483.94" y="108.00" xlink:href="#hd"/>
<path d="M480.44 108.00v19.00" class="stroke"/>
<defs>
<path id="hl" class="stroke" d="m-6 0h12"/>
</defs>
<use x="501.94" y="96.00" xlink:href="#hl"/>
<use x="501.94" y="96.00" xlink:href="#hd"/>
<path d="M498.44 96.00v31.00" class="stroke"/>
<path class="fill"
	d="M536.74 136.20l80.20 0.00v-3.20l-80.20 -0.00"/>
<path class="fill"
	d="M562.54 131.20l54.00 0.00v-3.20l-54.00 -0.00"/>
<use x="540.54" y="108.00" xlink:href="#hd"/>
<path d="M537.04 108.00v27.20" class="stroke"/>
<use x="566.04" y="99.00" xlink:href="#hd"/>
<path d="M562.54 99.00v36.20" class="stroke"/>
<use x="584.04" y="108.00" xlink:href="#hd"/>
<path d="M580.54 108.00v27.20" class="stroke"/>
<use x="602.14" y="114.00" xlink:href="#hd"/>
<path d="M598.64 114.00v21.20" class="stroke"/>
<use x="620.14" y="108.00" xlink:href="#hd"/>
<path d="M616.64 108.00v27.20" class="stroke"/>
<path class="fill"
	d="M644.44 141.20l90.70 0.00v-3.20l-90.70 -0.00"/>
<path class="fill"
	d="M644.74 136.20l90.10 0.00v-3.20l-90.10 -0.00"/>
<use x="648.24" y="117.00" xlink:href="#hd"/>
<path d="M644.74 117.00v23.20" class="stroke"/>
<use x="666.24" y="105.00" xlink:href="#hd"/>
<path d="M662.74 105.00v35.20" class="stroke"/>
<use x="684.34" y="108.00" xlink:href="#hd"/>
<path d="M680.84 108.00v32.20" class="stroke"/>
<use x="684.34" y="114.00" xlink:href="#hd"/>
<use x="702.34" y="111.00" xlink:href="#hd"/>
<path d="M698.84 111.00v29.20" class="stroke"/>
<use x="702.34" y="117.00" xlink:href="#hd"/>
<use x="720.34" y="114.00" xlink:href="#hd"/>
<path d="M716.84 114.00v26.20" class="stroke"/>
<use x="720.34" y="120.00" xlink:href="#hd"/>
<use x="738.34" y="117.00" xlink:href="#hd"/>
<path d="M734.84 117.00v23.20" class="stroke"/>
<use x="738.34" y="123.00" xlink:href="#hd"/>
<use x="729.34" y="123.00" xlink:href="#sh0"/>
<use x="766.54" y="99.00" xlink:href="#hd"/>
<path d="M763.04 99.00v40.00" class="stroke"/>
<use x="766.54" y="120.00" xlink:href="#hd"/>
<use x="766.54" y="114.00" xlink:href="#hd"/>
<use x="766.54" y="108.00" xlink:href="#hd"/>
<defs>
<path id="r8e" class="fill" d="m 0 0
	c-1.5 1.5 -2.4 2 -3.6 2
	2.4 -2.8 -2.8 -4 -2.8 -1.2
	c0 2.7 4.3 2.4 5.9 0.6"/>
<g id="r8">
	<path d="m3.3 -4l-3.4 9.6" class="stroke"/>
	<use x="3.4" y="-4" xlink:href="#r8e"/>
</g>
</defs>
<use x="828.04" y="114.00" xlink:href="#r8"/>
<defs>
<path id="ubclef" class="fill" d="m-200 -87
	c124 -35 222 -78 254 -236
	43 -228 -167 -246 -192 -103
	59 -80 157 22 92 78
	-62 47 -115 -22 -106 -88
	21 -141 270 -136 274 52
	-1 175 -106 264 -322 297
	m357 -250
	c0 -36 51 -34 51 0
	0 37 -51 36 -51 0
	m-2 -129
	c0 -36 51 -34 51 0
	0 38 -51 37 -51 0"/>
<use id="bclef" transform="translate(0,18) scale(0.045)"
	xlink:href="#ubclef"/>
</defs>
<use x="23.54" y="166.00" xlink:href="#bclef"/>
<g font-family="serif" font-size="16" font-weight="bold" font-style="normal"
	transform="translate(42.04,183.50) scale(1.2,1)">
	<text text-anchor="middle">8</text>
	<text y="-12" text-anchor="middle">3</text>
</g>
<use x="85.74" y="169.00" xlink:href="#hd"/>
<path d="M82.24 169.00v25.00" class="stroke"/>
<use x="85.74" y="175.00" xlink:href="#hd"/>
<use x="136.64" y="172.00" xlink:href="#r8"/>
<use x="170.64" y="169.00" xlink:href="#hd"/>
<path d="M174.14 169.00v-21.00" class="stroke"/>
<use x="221.64" y="172.00" xlink:href="#r8"/>
<use x="255.64" y="178.00" xlink:href="#hd"/>
<path d="M259.14 178.00v-21.00" class="stroke"/>
<use x="306.54" y="172.00" xlink:href="#r8"/>
<use x="340.54" y="163.00" xlink:href="#hd"/>
<path d="M337.04 163.00v25.00" class="stroke"/>
<use x="340.54" y="169.00" xlink:href="#hd"/>
<use x="402.04" y="172.00" xlink:href="#r8"/>
<path class="fill"
	d="M443.54 151.00l62.20 0.00v3.20l-62.20 -0.00"/>
<use x="440.44" y="172.00" xlink:href="#hd"/>
<path d="M443.94 172.00v-20.00" class="stroke"/>
<use x="465.94" y="172.00" xlink:href="#hd"/>
<path d="M469.44 172.00v-20.00" class="stroke"/>
<use x="501.94" y="172.00" xlink:href="#hd"/>
<path d="M505.44 172.00v-20.00" class="stroke"/>
<use x="540.54" y="163.00" xlink:href="#hd"/>
<path d="M537.04 163.00v34.00" class="stroke"/>
<use x="540.54" y="178.00" xlink:href="#hd"/>
<use x="602.14" y="172.00" xlink:href="#r8"/>
<path class="fill"
	d="M651.44 148.60l72.70 8.40v3.20l-72.70 -8.40"/>
<use x="648.24" y="175.00" xlink:href="#hd"/>
<path d="M651.74 175.00v-25.40" class="stroke"/>
<use x="684.34" y="172.00" xlink:href="#hd"/>
<path d="M687.84 172.00v-18.20" class="stroke"/>
<use x="720.34" y="190.00" xlink:href="#hl"/>
<use x="720.34" y="193.00" xlink:href="#hd"/>
<path d="M723.84 193.00v-35.00" class="stroke"/>
<path class="fill"
	d="M762.64 203.20l80.20 0.00v-3.20l-80.20 -0.00"/>
<path class="fill"
	d="M788.54 198.20l54.00 0.00v-3.20l-54.00 -0.00"/>
<use x="766.54" y="184.00" xlink:href="#hd"/>
<path d="M763.04 184.00v18.20" class="stroke"/>
<use x="792.04" y="163.00" xlink:href="#hd"/>
<path d="M788.54 163.00v39.20" class="stroke"/>
<use x="810.04" y="166.00" xlink:href="#hd"/>
<defs>
<path id="unat" class="fill" d="
	m96 -750
	h-32
	v716
	l32 -8
	182 -54
	v282
	h32
	v-706
	l-34 10
	-180 50
	v-290
	m0 592
	v-190
	l182 -52
	v188"/>
<use id="nt0" transform="translate(-3,5) scale(0.018)"
	xlink:href="#unat"/>
</defs>
<use x="801.04" y="166.00" xlink:href="#nt0"/>
<path d="M806.54 166.00v36.20" class="stroke"/>
<use x="828.04" y="169.00" xlink:href="#hd"/>
<path d="M824.54 169.00v33.20" class="stroke"/>
<use x="846.04" y="172.00" xlink:href="#hd"/>
<path d="M842.54 172.00v30.20" class="stroke"/>
<use x="170.64" y="175.00" xlink:href="#hd"/>
<path d="M167.14 175.00v21.00" class="stroke"/>
<path class="fill"
	d="M444.54 196.00l62.20 0.00v-3.20l-62.20 -0.00"/>
<use x="448.44" y="175.00" xlink:href="#hd"/>
<path d="M444.94 175.00v20.00" class="stroke"/>
<use x="473.94" y="175.00" xlink:href="#hd"/>
<path d="M470.44 175.00v20.00" class="stroke"/>
<use x="509.94" y="175.00" xlink:href="#hd"/>
<path d="M506.44 175.00v20.00" class="stroke"/>
</g>
<g stroke-width="0.70" transform="scale(0.867)" font-family="Times" font-size="13.00">
<path class="stroke" stroke-width="1"
	d="M11.54 320.01v-85.00"/>
<path class="fill"
	d="M6.54 232.01
	c10.5 1 12 -4.5 12 -3.5c0 1 -3.5 5.5 -8.5 5.5
	v87.00
	c5 0 8.5 4.5 8.5 5.5c0 1 -1.5 -4.5 -12 -3.5"/>
<use x="138.24" y="259.01" xlink:href="#rdots"/>
<path class="stroke" stroke-width="1"
	d="M134.24 259.01v-24.00"/>
<path class="stroke" stroke-width="3"
	d="M129.74 259.01v-24.00"/>
<use x="138.24" y="320.01" xlink:href="#rdots"/>
<path class="stroke" stroke-width="1"
	d="M134.24 320.01v-61.00"/>
<path class="stroke" stroke-width="3"
	d="M129.74 320.01v-61.00"/>
<path class="stroke" stroke-width="1"
	d="M246.24 259.01v-24.00"/>
<path class="stroke" stroke-width="1"
	d="M246.24 320.01v-61.00"/>
<path class="stroke" stroke-width="1"
	d="M337.84 259.01v-24.00"/>
<path class="stroke" stroke-width="1"
	d="M337.84 320.01v-61.00"/>
<path class="stroke" stroke-width="1"
	d="M435.34 259.01v-24.00"/>
<path class="stroke" stroke-width="1"
	d="M435.34 320.01v-61.00"/>
<path class="stroke" stroke-width="1"
	d="M518.14 259.01v-24.00"/>
<path class="stroke" stroke-width="1"
	d="M518.14 320.01v-61.00"/>
<path class="stroke" stroke-width="1"
	d="M609.74 259.01v-24.00"/>
<path class="stroke" stroke-width="1"
	d="M609.74 320.01v-61.00"/>
<path class="stroke" stroke-width="1"
	d="M701.34 259.01v-24.00"/>
<path class="stroke" stroke-width="1"
	d="M701.34 320.01v-61.00"/>
<path class="stroke" stroke-width="1"
	d="M792.94 259.01v-24.00"/>
<path class="stroke" stroke-width="1"
	d="M792.94 320.01v-61.00"/>
<path class="stroke" stroke-width="3"
	d="M860.54 259.01v-24.00"/>
<path class="stroke" stroke-width="1"
	d="M856.04 259.01v-24.00"/>
<use x="852.04" y="259.01" xlink:href="#rdots"/>
<path class="stroke" stroke-width="3"
	d="M860.54 320.01v-61.00"/>
<path class="stroke" stroke-width="1"
	d="M856.04 320.01v-61.00"/>
<use x="852.04" y="320.01" xlink:href="#rdots"/>
<path d="m11.54 259.01
	h850.50
	M11.54 253.01
	h850.50
	M11.54 247.01
	h850.50
	M11.54 241.01
	h850.50
	M11.54 235.01
	h850.50
	" class="stroke"/>
<path d="m11.54 320.01
	h850.50
	M11.54 314.01
	h850.50
	M11.54 308.01
	h850.50
	M11.54 302.01
	h850.50
	M11.54 296.01
	h850.50
	" class="stroke"/>
<text x="47.54" y="220.41">2</text>
<path class="stroke"
	d="M43.54 209.01m0 20v-20h83.70v20"/>
<use x="23.54" y="253.01" xlink:href="#tclef"/>
<use x="56.04" y="232.01" xlink:href="#hd"/>
<path d="M52.54 232.01v40.00" class="stroke"/>
<use x="56.04" y="253.01" xlink:href="#hd"/>
<use x="56.04" y="247.01" xlink:href="#hd"/>
<use x="56.04" y="241.01" xlink:href="#hd"/>
<use x="105.44" y="247.01" xlink:href="#r8"/>
<use x="157.74" y="235.01" xlink:href="#hd"/>
<use x="148.74" y="235.01" xlink:href="#sh0"/>
<path d="M154.24 235.01v34.00" class="stroke"/>
<path class="fill"
	d="M154.24 269.01c0.6 -5.6 9.6 -9 5.6 -18.4
	1.6 6 -1.3 11.6 -5.6 12.8
"/>
<use x="157.74" y="250.01" xlink:href="#hd"/>
<use x="157.74" y="241.01" xlink:href="#hd"/>
<use x="189.04" y="235.01" xlink:href="#hd"/>
<path d="M185.54 235.01v21.00" class="stroke"/>
<path class="fill"
	d="M254.84 261.01l67.30 0.00v-3.20l-67.30 -0.00"/>
<path class="fill"
	d="M255.24 256.01l66.60 0.00v-3.20l-66.60 -0.00"/>
<use x="258.74" y="232.01" xlink:href="#hd"/>
<path d="M255.24 232.01v28.00" class="stroke"/>
<use x="272.04" y="241.01" xlink:href="#hd"/>
<path d="M268.54 241.01v19.00" class="stroke"/>
<use x="285.34" y="232.01" xlink:href="#hd"/>
<path d="M281.84 232.01v28.00" class="stroke"/>
<use x="298.64" y="229.01" xlink:href="#hl"/>
<use x="298.64" y="226.01" xlink:href="#hd"/>
<path d="M295.14 226.01v34.00" class="stroke"/>
<use x="311.94" y="232.01" xlink:href="#hd"/>
<path d="M308.44 232.01v28.00" class="stroke"/>
<use x="325.34" y="241.01" xlink:href="#hd"/>
<path d="M321.84 241.01v19.00" class="stroke"/>
<use x="350.34" y="238.01" xlink:href="#hd"/>
<path d="M346.84 238.01v34.00" class="stroke"/>
<path class="fill"
	d="M346.84 272.01c0.6 -5.6 9.6 -9 5.6 -18.4
	1.6 6 -1.3 11.6 -5.6 12.8
"/>
<use x="350.34" y="253.01" xlink:href="#hd"/>
<use x="350.34" y="244.01" xlink:href="#hd"/>
<use x="378.24" y="238.01" xlink:href="#hd"/>
<path d="M374.74 238.01v21.00" class="stroke"/>
<path class="fill"
	d="M444.04 267.01l54.00 0.00v-3.20l-54.00 -0.00"/>
<path class="fill"
	d="M444.34 262.01l40.00 0.00v-3.20l-40.00 -0.00"/>
<use x="447.84" y="247.01" xlink:href="#hd"/>
<path d="M444.34 247.01v18.90" class="stroke"/>
<use x="461.14" y="241.01" xlink:href="#hd"/>
<path d="M457.64 241.01v24.90" class="stroke"/>
<use x="474.44" y="232.01" xlink:href="#hd"/>
<path d="M470.94 232.01v33.90" class="stroke"/>
<use x="487.84" y="241.01" xlink:href="#hd"/>
<path d="M484.34 241.01v24.90" class="stroke"/>
<use x="501.14" y="247.01" xlink:href="#hd"/>
<path d="M497.64 247.01v18.90" class="stroke"/>
<path class="fill"
	d="M526.74 265.41l54.00 6.80v-3.20l-54.00 -6.80"/>
<use x="530.64" y="238.01" xlink:href="#hd"/>
<path d="M527.14 238.01v26.50" class="stroke"/>
<use x="557.24" y="244.01" xlink:href="#hd"/>
<path d="M553.74 244.01v23.80" class="stroke"/>
<use x="583.94" y="253.01" xlink:href="#hd"/>
<path d="M580.44 253.01v18.20" class="stroke"/>
<path class="fill"
	d="M618.34 261.61l54.00 3.20v-3.20l-54.00 -3.20"/>
<use x="622.24" y="232.01" xlink:href="#hd"/>
<path d="M618.74 232.01v28.60" class="stroke"/>
<use x="648.84" y="244.01" xlink:href="#hd"/>
<path d="M645.34 244.01v18.20" class="stroke"/>
<use x="675.54" y="238.01" xlink:href="#hd"/>
<path d="M672.04 238.01v25.80" class="stroke"/>
<path class="fill"
	d="M709.94 261.01l67.30 0.00v-3.20l-67.30 -0.00"/>
<path class="fill"
	d="M710.34 256.01l66.60 0.00v-3.20l-66.60 -0.00"/>
<use x="713.84" y="235.01" xlink:href="#hd"/>
<path d="M710.34 235.01v25.00" class="stroke"/>
<use x="727.14" y="238.01" xlink:href="#hd"/>
<path d="M723.64 238.01v22.00" class="stroke"/>
<use x="740.44" y="241.01" xlink:href="#hd"/>
<path d="M736.94 241.01v19.00" class="stroke"/>
<use x="753.74" y="238.01" xlink:href="#hd"/>
<path d="M750.24 238.01v22.00" class="stroke"/>
<use x="767.14" y="235.01" xlink:href="#hd"/>
<path d="M763.64 235.01v25.00" class="stroke"/>
<use x="780.44" y="232.01" xlink:href="#hd"/>
<path d="M776.94 232.01v28.00" class="stroke"/>
<use x="805.44" y="244.01" xlink:href="#hd"/>
<path d="M801.94 244.01v21.00" class="stroke"/>
<use x="841.54" y="247.01" xlink:href="#r8"/>
<use x="23.54" y="302.01" xlink:href="#bclef"/>
<path class="fill"
	d="M52.24 339.21l63.40 0.00v-3.20l-63.40 -0.00"/>
<path class="fill"
	d="M70.64 334.21l44.60 0.00v-3.20l-44.60 -0.00"/>
<use x="56.04" y="320.01" xlink:href="#hd"/>
<path d="M52.54 320.01v18.20" class="stroke"/>
<use x="74.14" y="293.01" xlink:href="#hd"/>
<path d="M70.64 293.01v45.20" class="stroke"/>
<use x="87.44" y="299.01" xlink:href="#hd"/>
<path d="M83.94 299.01v39.20" class="stroke"/>
<use x="105.44" y="302.01" xlink:href="#hd"/>
<use x="96.44" y="302.01" xlink:href="#sh0"/>
<path d="M101.94 302.01v36.20" class="stroke"/>
<use x="118.74" y="305.01" xlink:href="#hd"/>
<path d="M115.24 305.01v33.20" class="stroke"/>
<path class="fill"
	d="M160.94 287.01l76.60 -6.70v3.20l-76.60 6.70"/>
<path class="fill"
	d="M161.24 292.01l76.00 -6.70v3.20l-76.00 6.70"/>
<use x="157.74" y="326.01" xlink:href="#hl"/>
<use x="157.74" y="329.01" xlink:href="#hd"/>
<path d="M161.24 329.01v-41.00" class="stroke"/>
<use x="171.04" y="308.01" xlink:href="#hd"/>
<path d="M174.54 308.01v-21.20" class="stroke"/>
<use x="189.04" y="311.01" xlink:href="#hd"/>
<use x="180.04" y="311.01" xlink:href="#sh0"/>
<path d="M192.54 311.01v-25.80" class="stroke"/>
<use x="202.34" y="308.01" xlink:href="#hd"/>
<path d="M205.84 308.01v-23.90" class="stroke"/>
<use x="220.34" y="311.01" xlink:href="#hd"/>
<use x="211.34" y="311.01" xlink:href="#sh0"/>
<path d="M223.84 311.01v-28.50" class="stroke"/>
<use x="233.74" y="308.01" xlink:href="#hd"/>
<path d="M237.24 308.01v-26.70" class="stroke"/>
<use x="258.74" y="314.01" xlink:href="#hd"/>
<path d="M262.24 314.01v-25.00" class="stroke"/>
<use x="258.74" y="308.01" xlink:href="#hd"/>
<use x="311.94" y="314.01" xlink:href="#hd"/>
<path d="M315.44 314.01v-25.00" class="stroke"/>
<path class="fill"
	d="M315.44 289.01c0.6 5.6 9.6 9 5.6 18.4
	1.6 -6 -1.3 -11.6 -5.6 -12.8
"/>
<use x="311.94" y="308.01" xlink:href="#hd"/>
<path class="fill"
	d="M353.44 279.81l73.20 0.00v3.20l-73.20 -0.00"/>
<path class="fill"
	d="M353.84 284.81l72.50 0.00v3.20l-72.50 -0.00"/>
<use x="350.34" y="311.01" xlink:href="#hd"/>
<path d="M353.84 311.01v-30.20" class="stroke"/>
<use x="363.64" y="314.01" xlink:href="#hd"/>
<path d="M367.14 314.01v-33.20" class="stroke"/>
<use x="378.24" y="311.01" xlink:href="#hd"/>
<path d="M381.74 311.01v-30.20" class="stroke"/>
<use x="391.54" y="308.01" xlink:href="#hd"/>
<path d="M395.04 308.01v-27.20" class="stroke"/>
<use x="404.84" y="305.01" xlink:href="#hd"/>
<path d="M408.34 305.01v-24.20" class="stroke"/>
<use x="422.84" y="302.01" xlink:href="#hd"/>
<use x="413.84" y="302.01" xlink:href="#sh0"/>
<path d="M426.34 302.01v-21.20" class="stroke"/>
<use x="447.84" y="299.01" xlink:href="#hd"/>
<path d="M444.34 299.01v21.00" class="stroke"/>
<use x="501.14" y="320.01" xlink:href="#hd"/>
<path d="M504.64 320.01v-21.00" class="stroke"/>
<path class="fill"
	d="M504.64 299.01c0.6 5.6 9.6 9 5.6 18.4
	1.6 -6 -1.3 -11.6 -5.6 -12.8
"/>
<path class="fill"
	d="M526.74 327.91l67.30 0.00v-3.20l-67.30 -0.00"/>
<path class="fill"
	d="M527.14 322.91l66.60 0.00v-3.20l-66.60 -0.00"/>
<use x="530.64" y="305.01" xlink:href="#hd"/>
<path d="M527.14 305.01v21.90" class="stroke"/>
<use x="530.64" y="311.01" xlink:href="#hd"/>
<use x="543.94" y="299.01" xlink:href="#hd"/>
<path d="M540.44 299.01v27.90" class="stroke"/>
<use x="557.24" y="305.01" xlink:href="#hd"/>
<path d="M553.74 305.01v21.90" class="stroke"/>
<use x="557.24" y="311.01" xlink:href="#hd"/>
<use x="570.54" y="299.01" xlink:href="#hd"/>
<path d="M567.04 299.01v27.90" class="stroke"/>
<use x="583.94" y="305.01" xlink:href="#hd"/>
<path d="M580.44 305.01v21.90" class="stroke"/>
<use x="583.94" y="311.01" xlink:href="#hd"/>
<use x="597.24" y="299.01" xlink:href="#hd"/>
<path d="M593.74 299.01v27.90" class="stroke"/>
<path class="fill"
	d="M618.34 327.91l67.30 0.00v-3.20l-67.30 -0.00"/>
<path class="fill"
	d="M618.74 322.91l66.60 0.00v-3.20l-66.60 -0.00"/>
<use x="622.24" y="305.01" xlink:href="#hd"/>
<path d="M618.74 305.01v21.90" class="stroke"/>
<use x="622.24" y="311.01" xlink:href="#hd"/>
<use x="635.54" y="299.01" xlink:href="#hd"/>
<path d="M632.04 299.01v27.90" class="stroke"/>
<use x="648.84" y="305.01" xlink:href="#hd"/>
<path d="M645.34 305.01v21.90" class="stroke"/>
<use x="648.84" y="311.01" xlink:href="#hd"/>
<use x="662.14" y="299.01" xlink:href="#hd"/>
<path d="M658.64 299.01v27.90" class="stroke"/>
<use x="675.54" y="305.01" xlink:href="#hd"/>
<path d="M672.04 305.01v21.90" class="stroke"/>
<use x="675.54" y="311.01" xlink:href="#hd"/>
<use x="688.84" y="299.01" xlink:href="#hd"/>
<path d="M685.34 299.01v27.90" class="stroke"/>
<path class="fill"
	d="M709.94 321.91l67.30 0.00v-3.20l-67.30 -0.00"/>
<path class="fill"
	d="M710.34 316.91l66.60 0.00v-3.20l-66.60 -0.00"/>
<use x="713.84" y="296.01" xlink:href="#hd"/>
<path d="M710.34 296.01v25.00" class="stroke"/>
<use x="727.14" y="299.01" xlink:href="#hd"/>
<path d="M723.64 299.01v22.00" class="stroke"/>
<use x="740.44" y="302.01" xlink:href="#hd"/>
<path d="M736.94 302.01v19.00" class="stroke"/>
<use x="753.74" y="299.01" xlink:href="#hd"/>
<path d="M750.24 299.01v22.00" class="stroke"/>
<use x="767.14" y="296.01" xlink:href="#hd"/>
<path d="M763.64 296.01v25.00" class="stroke"/>
<use x="780.44" y="293.01" xlink:href="#hd"/>
<path d="M776.94 293.01v28.00" class="stroke"/>
<path class="fill"
	d="M808.54 291.71l36.80 9.20v3.20l-36.80 -9.20"/>
<use x="805.44" y="311.01" xlink:href="#hd"/>
<path d="M808.94 311.01v-18.20" class="stroke"/>
<use x="823.44" y="320.01" xlink:href="#hd"/>
<path d="M826.94 320.01v-22.70" class="stroke"/>
<use x="841.54" y="326.01" xlink:href="#hl"/>
<use x="841.54" y="332.01" xlink:href="#hl"/>
<use x="841.54" y="332.01" xlink:href="#hd"/>
<path d="M845.04 332.01v-30.20" class="stroke"/>
<defs>
<text id="trl" font-family="serif" font-size="16" font-style="italic"
	x="-2" y="-4">tr</text>
</defs>
<use x="189.04" y="229.01" xlink:href="#trl"/>
<use x="378.24" y="232.01" xlink:href="#trl"/>
</g>
</svg>
