<?xml version="1.0" standalone="no"?>
<!DOCTYPE svg PUBLIC "-//W3C//DTD SVG 1.1//EN"
	"http://www.w3.org/Graphics/SVG/1.1/DTD/svg11.dtd">
<svg xmlns="http://www.w3.org/2000/svg" version="1.1"
	xmlns:xlink="http://www.w3.org/1999/xlink"
	color="black"
	width="757.10px" height="293.80px">
<style type="text/css">
.fill {fill: currentColor}
.stroke {stroke: currentColor; fill: none}
text{white-space: pre}
</style>
<title>./K516f-9-8-8-7-10-12-9-12-5-10-5-9-3-5-9-3.abc (2515) tune 1</title>
<!-- Creator: abcm2ps-8.13.8 -->
<!-- CreationDate: Sep  7, 2017 11:20 -->
<!-- CommandLine: ./K516f-9-8-8-7-10-12-9-12-5-10-5-9-3-5-9-3.abc -O ./K516f-9-8-8-7-10-12-9-12-5-10-5-9-3-5-9-3.svg -g -->
<rect width="100%" height="100%" fill="white"/>
<g stroke-width="0.70" transform="scale(0.867)">
<!-- title: 9-8-8-7-10-12-9-12-5-10-5-9-3-5-9-3 -->
</g>
<g stroke-width="0.70" transform="scale(0.867)" font-family="Times" font-size="20.00">
<text x="436.84" y="22.00" text-anchor="middle">9-8-8-7-10-12-9-12-5-10-5-9-3-5-9-3</text>
</g>
<g stroke-width="0.70" transform="scale(0.867)" font-family="Times" font-size="20.00">
<!-- subtitle: $1K.516f::119:60:171:167:75:37:169:5:90:77:7:166:174:160:72:83::$0 -->
</g>
<g stroke-width="0.70" transform="scale(0.867)" font-family="Courier" font-size="8.00" font-weight="bold">
<text x="436.84" y="41.80" text-anchor="middle">K.516f::119:60:171:167:75:37:169:5:90:77:7:166:174:160:72:83::</text>
</g>
<g stroke-width="0.70" transform="scale(0.867)" font-family="Courier" font-size="8.00" font-weight="bold">
<!-- subtitle: $1Perm. No.: 251550005092152$0 -->
<text x="436.84" y="60.80" text-anchor="middle">Perm. No.: 251550005092152</text>
</g>
<g stroke-width="0.70" transform="scale(0.607)" font-family="Courier" font-size="8.00" font-weight="bold">
<defs>
<ellipse id="hd" rx="4.1" ry="2.9"
	transform="rotate(-20)" class="fill"/>
</defs>
<use x="103.06" y="121.29" xlink:href="#hd"/>
<path d="M106.56 121.29v-21.00" class="stroke"/>
<path class="fill"
	d="M106.56 100.29c0.6 5.6 9.6 9 5.6 18.4
	1.6 -6 -1.3 -11.6 -5.6 -12.8
"/>
</g>
<g stroke-width="0.70" transform="scale(0.867)" font-family="Times" font-size="15.00" font-weight="bold">
<text x="81.24" y="87.00">= 111</text>
<path class="stroke" stroke-width="1"
	d="M11.54 183.00v-82.00"/>
<path class="fill"
	d="M6.54 98.00
	c10.5 1 12 -4.5 12 -3.5c0 1 -3.5 5.5 -8.5 5.5
	v84.00
	c5 0 8.5 4.5 8.5 5.5c0 1 -1.5 -4.5 -12 -3.5"/>
<defs>
<g id="rdots" class="fill">
	<circle cx="0" cy="-9" r="1.2"/>
	<circle cx="0" cy="-15" r="1.2"/>
</g>
</defs>
<use x="70.54" y="125.00" xlink:href="#rdots"/>
<path class="stroke" stroke-width="1"
	d="M66.54 125.00v-24.00"/>
<path class="stroke" stroke-width="3"
	d="M62.04 125.00v-24.00"/>
<use x="70.54" y="183.00" xlink:href="#rdots"/>
<path class="stroke" stroke-width="1"
	d="M66.54 183.00v-58.00"/>
<path class="stroke" stroke-width="3"
	d="M62.04 183.00v-58.00"/>
<path class="stroke" stroke-width="1"
	d="M179.24 125.00v-24.00"/>
<path class="stroke" stroke-width="1"
	d="M179.24 183.00v-58.00"/>
<path class="stroke" stroke-width="1"
	d="M277.34 125.00v-24.00"/>
<path class="stroke" stroke-width="1"
	d="M277.34 183.00v-58.00"/>
<path class="stroke" stroke-width="1"
	d="M385.04 125.00v-24.00"/>
<path class="stroke" stroke-width="1"
	d="M385.04 183.00v-58.00"/>
<path class="stroke" stroke-width="1"
	d="M471.94 125.00v-24.00"/>
<path class="stroke" stroke-width="1"
	d="M471.94 183.00v-58.00"/>
<path class="stroke" stroke-width="1"
	d="M554.64 125.00v-24.00"/>
<path class="stroke" stroke-width="1"
	d="M554.64 183.00v-58.00"/>
<path class="stroke" stroke-width="1"
	d="M651.24 125.00v-24.00"/>
<path class="stroke" stroke-width="1"
	d="M651.24 183.00v-58.00"/>
<path class="stroke" stroke-width="1"
	d="M760.64 125.00v-24.00"/>
<path class="stroke" stroke-width="1"
	d="M760.64 183.00v-58.00"/>
<path class="stroke" stroke-width="3"
	d="M860.54 125.00v-24.00"/>
<path class="stroke" stroke-width="1"
	d="M856.04 125.00v-24.00"/>
<use x="852.04" y="125.00" xlink:href="#rdots"/>
<path class="stroke" stroke-width="3"
	d="M860.54 183.00v-58.00"/>
<path class="stroke" stroke-width="1"
	d="M856.04 183.00v-58.00"/>
<use x="852.04" y="183.00" xlink:href="#rdots"/>
<path d="m11.54 125.00
	h850.50
	M11.54 119.00
	h850.50
	M11.54 113.00
	h850.50
	M11.54 107.00
	h850.50
	M11.54 101.00
	h850.50
	" class="stroke"/>
<path d="m11.54 183.00
	h850.50
	M11.54 177.00
	h850.50
	M11.54 171.00
	h850.50
	M11.54 165.00
	h850.50
	M11.54 159.00
	h850.50
	" class="stroke"/>
</g>
<g stroke-width="0.70" transform="scale(0.867)" font-family="Times" font-size="13.00">
<text x="764.64" y="86.40">1</text>
<path class="stroke"
	d="M760.64 75.00m0 20v-20h93.40v20"/>
<defs>
<path id="utclef" class="fill" d="m-50 -90
	c-72 -41 -72 -158 52 -188
	150 -10 220 188 90 256
	-114 52 -275 0 -293 -136
	-15 -181 93 -229 220 -334
	88 -87 79 -133 62 -210
	-51 33 -94 105 -89 186
	17 267 36 374 49 574
	6 96 -19 134 -77 135
	-80 1 -126 -93 -61 -133
	85 -41 133 101 31 105
	23 17 92 37 90 -92
	-10 -223 -39 -342 -50 -617
	0 -90 0 -162 96 -232
	56 72 63 230 22 289
	-74 106 -257 168 -255 316
	9 153 148 185 252 133
	86 -65 29 -192 -80 -176
	-71 12 -105 67 -59 124"/>
<use id="tclef" transform="translate(0,6) scale(0.045)"
	xlink:href="#utclef"/>
</defs>
<use x="23.54" y="119.00" xlink:href="#tclef"/>
<g font-family="serif" font-size="16" font-weight="bold" font-style="normal"
	transform="translate(42.04,124.50) scale(1.2,1)">
	<text text-anchor="middle">8</text>
	<text y="-12" text-anchor="middle">3</text>
</g>
<path class="fill"
	d="M80.74 133.40l82.50 -6.20v-3.20l-82.50 6.20"/>
<path class="fill"
	d="M81.04 128.40l81.80 -6.10v-3.20l-81.80 6.10"/>
<use x="84.54" y="104.00" xlink:href="#hd"/>
<path d="M81.04 104.00v28.40" class="stroke"/>
<use x="100.94" y="110.00" xlink:href="#hd"/>
<path d="M97.44 110.00v21.20" class="stroke"/>
<use x="117.34" y="98.00" xlink:href="#hd"/>
<path d="M113.84 98.00v32.00" class="stroke"/>
<use x="133.64" y="104.00" xlink:href="#hd"/>
<path d="M130.14 104.00v24.80" class="stroke"/>
<defs>
<path id="hl" class="stroke" d="m-6 0h12"/>
</defs>
<use x="150.04" y="95.00" xlink:href="#hl"/>
<use x="150.04" y="89.00" xlink:href="#hl"/>
<use x="150.04" y="89.00" xlink:href="#hd"/>
<path d="M146.54 89.00v38.50" class="stroke"/>
<use x="166.34" y="98.00" xlink:href="#hd"/>
<path d="M162.84 98.00v28.30" class="stroke"/>
<path class="fill"
	d="M188.44 123.10l72.80 9.20v-3.20l-72.80 -9.20"/>
<path class="fill"
	d="M211.84 121.00l49.10 6.20v-3.20l-49.10 -6.20"/>
<use x="192.34" y="98.00" xlink:href="#hd"/>
<path d="M188.84 98.00v24.10" class="stroke"/>
<use x="215.34" y="101.00" xlink:href="#hd"/>
<path d="M211.84 101.00v24.00" class="stroke"/>
<use x="231.74" y="104.00" xlink:href="#hd"/>
<path d="M228.24 104.00v23.10" class="stroke"/>
<use x="248.04" y="107.00" xlink:href="#hd"/>
<path d="M244.54 107.00v22.10" class="stroke"/>
<use x="264.44" y="110.00" xlink:href="#hd"/>
<path d="M260.94 110.00v21.20" class="stroke"/>
<path class="fill"
	d="M286.54 133.00l82.50 0.00v-3.20l-82.50 -0.00"/>
<path class="fill"
	d="M286.84 128.00l81.80 0.00v-3.20l-81.80 -0.00"/>
<use x="290.34" y="113.00" xlink:href="#hd"/>
<path d="M286.84 113.00v18.90" class="stroke"/>
<use x="306.74" y="110.00" xlink:href="#hd"/>
<path d="M303.24 110.00v21.90" class="stroke"/>
<use x="323.14" y="107.00" xlink:href="#hd"/>
<path d="M319.64 107.00v24.90" class="stroke"/>
<use x="339.44" y="104.00" xlink:href="#hd"/>
<path d="M335.94 104.00v27.90" class="stroke"/>
<use x="355.84" y="101.00" xlink:href="#hd"/>
<path d="M352.34 101.00v30.90" class="stroke"/>
<use x="372.14" y="107.00" xlink:href="#hd"/>
<path d="M368.64 107.00v24.90" class="stroke"/>
<path class="fill"
	d="M394.24 133.00l56.40 0.00v-3.20l-56.40 -0.00"/>
<path class="fill"
	d="M417.64 128.00l16.40 0.00v-3.20l-16.40 -0.00"/>
<use x="398.14" y="110.00" xlink:href="#hd"/>
<path d="M394.64 110.00v21.90" class="stroke"/>
<use x="421.14" y="110.00" xlink:href="#hd"/>
<path d="M417.64 110.00v21.90" class="stroke"/>
<use x="437.54" y="107.00" xlink:href="#hd"/>
<path d="M434.04 107.00v24.90" class="stroke"/>
<use x="453.84" y="104.00" xlink:href="#hd"/>
<path d="M450.34 104.00v27.90" class="stroke"/>
<path class="fill"
	d="M486.64 125.20l46.80 0.00v-3.20l-46.80 -0.00"/>
<use x="490.44" y="101.00" xlink:href="#hd"/>
<defs>
<path id="usharp" class="fill" d="
	m136 -702
	v890
	h32
	v-890
	m128 840
	h32
	v-888
	h-32
	m-232 286
	v116
	l338 -96
	v-116
	m-338 442
	v116
	l338 -98
	v-114"/>
<use id="sh0" transform="translate(-4,5) scale(0.018)"
	xlink:href="#usharp"/>
</defs>
<use x="481.44" y="101.00" xlink:href="#sh0"/>
<path d="M486.94 101.00v23.20" class="stroke"/>
<use x="490.44" y="107.00" xlink:href="#hd"/>
<use x="513.54" y="101.00" xlink:href="#hd"/>
<path d="M510.04 101.00v23.20" class="stroke"/>
<use x="513.54" y="107.00" xlink:href="#hd"/>
<use x="536.54" y="101.00" xlink:href="#hd"/>
<path d="M533.04 101.00v23.20" class="stroke"/>
<use x="536.54" y="107.00" xlink:href="#hd"/>
<path class="fill"
	d="M563.84 124.00l66.10 8.20v-3.20l-66.10 -8.20"/>
<path class="fill"
	d="M564.14 119.10l49.10 6.10v-3.20l-49.10 -6.10"/>
<use x="567.64" y="98.00" xlink:href="#hd"/>
<path d="M564.14 98.00v25.10" class="stroke"/>
<use x="584.04" y="95.00" xlink:href="#hl"/>
<use x="584.04" y="92.00" xlink:href="#hd"/>
<path d="M580.54 92.00v33.10" class="stroke"/>
<use x="600.44" y="98.00" xlink:href="#hd"/>
<path d="M596.94 98.00v29.10" class="stroke"/>
<use x="616.74" y="107.00" xlink:href="#hd"/>
<path d="M613.24 107.00v22.20" class="stroke"/>
<use x="633.14" y="113.00" xlink:href="#hd"/>
<path d="M629.64 113.00v18.20" class="stroke"/>
<path class="fill"
	d="M660.44 138.20l84.10 0.00v-3.20l-84.10 -0.00"/>
<path class="fill"
	d="M660.74 133.20l83.50 0.00v-3.20l-83.50 -0.00"/>
<use x="664.24" y="104.00" xlink:href="#hd"/>
<path d="M660.74 104.00v33.20" class="stroke"/>
<use x="680.64" y="98.00" xlink:href="#hd"/>
<path d="M677.14 98.00v39.20" class="stroke"/>
<use x="696.94" y="107.00" xlink:href="#hd"/>
<path d="M693.44 107.00v30.20" class="stroke"/>
<use x="713.34" y="98.00" xlink:href="#hd"/>
<path d="M709.84 98.00v39.20" class="stroke"/>
<use x="729.74" y="116.00" xlink:href="#hd"/>
<path d="M726.24 116.00v21.20" class="stroke"/>
<use x="747.74" y="101.00" xlink:href="#hd"/>
<use x="738.74" y="101.00" xlink:href="#sh0"/>
<path d="M744.24 101.00v36.20" class="stroke"/>
<use x="773.64" y="98.00" xlink:href="#hd"/>
<path d="M770.14 98.00v40.00" class="stroke"/>
<use x="773.64" y="119.00" xlink:href="#hd"/>
<use x="773.64" y="113.00" xlink:href="#hd"/>
<use x="773.64" y="107.00" xlink:href="#hd"/>
<defs>
<path id="r8e" class="fill" d="m 0 0
	c-1.5 1.5 -2.4 2 -3.6 2
	2.4 -2.8 -2.8 -4 -2.8 -1.2
	c0 2.7 4.3 2.4 5.9 0.6"/>
<g id="r8">
	<path d="m3.3 -4l-3.4 9.6" class="stroke"/>
	<use x="3.4" y="-4" xlink:href="#r8e"/>
</g>
</defs>
<use x="831.04" y="113.00" xlink:href="#r8"/>
<defs>
<path id="ubclef" class="fill" d="m-200 -87
	c124 -35 222 -78 254 -236
	43 -228 -167 -246 -192 -103
	59 -80 157 22 92 78
	-62 47 -115 -22 -106 -88
	21 -141 270 -136 274 52
	-1 175 -106 264 -322 297
	m357 -250
	c0 -36 51 -34 51 0
	0 37 -51 36 -51 0
	m-2 -129
	c0 -36 51 -34 51 0
	0 38 -51 37 -51 0"/>
<use id="bclef" transform="translate(0,18) scale(0.045)"
	xlink:href="#ubclef"/>
</defs>
<use x="23.54" y="165.00" xlink:href="#bclef"/>
<g font-family="serif" font-size="16" font-weight="bold" font-style="normal"
	transform="translate(42.04,182.50) scale(1.2,1)">
	<text text-anchor="middle">8</text>
	<text y="-12" text-anchor="middle">3</text>
</g>
<use x="84.54" y="168.00" xlink:href="#hd"/>
<path d="M81.04 168.00v25.00" class="stroke"/>
<use x="84.54" y="174.00" xlink:href="#hd"/>
<use x="150.04" y="171.00" xlink:href="#r8"/>
<use x="192.34" y="168.00" xlink:href="#hd"/>
<path d="M188.84 168.00v25.00" class="stroke"/>
<use x="192.34" y="174.00" xlink:href="#hd"/>
<use x="248.04" y="171.00" xlink:href="#r8"/>
<use x="290.34" y="183.00" xlink:href="#hd"/>
<path d="M293.84 183.00v-40.00" class="stroke"/>
<use x="290.34" y="162.00" xlink:href="#hd"/>
<use x="355.84" y="162.00" xlink:href="#hd"/>
<path d="M352.34 162.00v34.00" class="stroke"/>
<path class="fill"
	d="M352.34 196.00c0.6 -5.6 9.6 -9 5.6 -18.4
	1.6 6 -1.3 11.6 -5.6 12.8
"/>
<use x="355.84" y="177.00" xlink:href="#hd"/>
<use x="398.14" y="168.00" xlink:href="#hd"/>
<path d="M394.64 168.00v25.00" class="stroke"/>
<use x="398.14" y="174.00" xlink:href="#hd"/>
<use x="453.84" y="171.00" xlink:href="#r8"/>
<path class="fill"
	d="M493.64 153.00l46.80 0.00v3.20l-46.80 -0.00"/>
<use x="490.44" y="174.00" xlink:href="#hd"/>
<path d="M493.94 174.00v-20.00" class="stroke"/>
<use x="513.54" y="174.00" xlink:href="#hd"/>
<path d="M517.04 174.00v-20.00" class="stroke"/>
<use x="536.54" y="174.00" xlink:href="#hd"/>
<path d="M540.04 174.00v-20.00" class="stroke"/>
<use x="567.64" y="177.00" xlink:href="#hd"/>
<path d="M571.14 177.00v-25.00" class="stroke"/>
<use x="567.64" y="171.00" xlink:href="#hd"/>
<use x="633.14" y="171.00" xlink:href="#r8"/>
<path class="fill"
	d="M667.44 147.70l66.10 8.20v3.20l-66.10 -8.20"/>
<use x="664.24" y="174.00" xlink:href="#hd"/>
<path d="M667.74 174.00v-25.30" class="stroke"/>
<use x="696.94" y="171.00" xlink:href="#hd"/>
<path d="M700.44 171.00v-18.20" class="stroke"/>
<use x="729.74" y="189.00" xlink:href="#hl"/>
<use x="729.74" y="192.00" xlink:href="#hd"/>
<path d="M733.24 192.00v-35.10" class="stroke"/>
<path class="fill"
	d="M769.74 202.20l74.40 0.00v-3.20l-74.40 -0.00"/>
<path class="fill"
	d="M793.14 197.20l50.70 0.00v-3.20l-50.70 -0.00"/>
<use x="773.64" y="183.00" xlink:href="#hd"/>
<path d="M770.14 183.00v18.20" class="stroke"/>
<use x="796.64" y="162.00" xlink:href="#hd"/>
<path d="M793.14 162.00v39.20" class="stroke"/>
<use x="814.64" y="165.00" xlink:href="#hd"/>
<defs>
<path id="unat" class="fill" d="
	m96 -750
	h-32
	v716
	l32 -8
	182 -54
	v282
	h32
	v-706
	l-34 10
	-180 50
	v-290
	m0 592
	v-190
	l182 -52
	v188"/>
<use id="nt0" transform="translate(-3,5) scale(0.018)"
	xlink:href="#unat"/>
</defs>
<use x="805.64" y="165.00" xlink:href="#nt0"/>
<path d="M811.14 165.00v36.20" class="stroke"/>
<use x="831.04" y="168.00" xlink:href="#hd"/>
<path d="M827.54 168.00v33.20" class="stroke"/>
<use x="847.34" y="171.00" xlink:href="#hd"/>
<path d="M843.84 171.00v30.20" class="stroke"/>
</g>
<g stroke-width="0.70" transform="scale(0.867)" font-family="Times" font-size="13.00">
<path class="stroke" stroke-width="1"
	d="M11.54 316.00v-82.00"/>
<path class="fill"
	d="M6.54 231.00
	c10.5 1 12 -4.5 12 -3.5c0 1 -3.5 5.5 -8.5 5.5
	v84.00
	c5 0 8.5 4.5 8.5 5.5c0 1 -1.5 -4.5 -12 -3.5"/>
<use x="141.54" y="258.00" xlink:href="#rdots"/>
<path class="stroke" stroke-width="1"
	d="M137.54 258.00v-24.00"/>
<path class="stroke" stroke-width="3"
	d="M133.04 258.00v-24.00"/>
<use x="141.54" y="316.00" xlink:href="#rdots"/>
<path class="stroke" stroke-width="1"
	d="M137.54 316.00v-58.00"/>
<path class="stroke" stroke-width="3"
	d="M133.04 316.00v-58.00"/>
<path class="stroke" stroke-width="1"
	d="M244.74 258.00v-24.00"/>
<path class="stroke" stroke-width="1"
	d="M244.74 316.00v-58.00"/>
<path class="stroke" stroke-width="1"
	d="M321.14 258.00v-24.00"/>
<path class="stroke" stroke-width="1"
	d="M321.14 316.00v-58.00"/>
<path class="stroke" stroke-width="1"
	d="M417.04 258.00v-24.00"/>
<path class="stroke" stroke-width="1"
	d="M417.04 316.00v-58.00"/>
<path class="stroke" stroke-width="1"
	d="M502.14 258.00v-24.00"/>
<path class="stroke" stroke-width="1"
	d="M502.14 316.00v-58.00"/>
<path class="stroke" stroke-width="1"
	d="M598.04 258.00v-24.00"/>
<path class="stroke" stroke-width="1"
	d="M598.04 316.00v-58.00"/>
<path class="stroke" stroke-width="1"
	d="M693.94 258.00v-24.00"/>
<path class="stroke" stroke-width="1"
	d="M693.94 316.00v-58.00"/>
<path class="stroke" stroke-width="1"
	d="M789.74 258.00v-24.00"/>
<path class="stroke" stroke-width="1"
	d="M789.74 316.00v-58.00"/>
<path class="stroke" stroke-width="3"
	d="M860.54 258.00v-24.00"/>
<path class="stroke" stroke-width="1"
	d="M856.04 258.00v-24.00"/>
<use x="852.04" y="258.00" xlink:href="#rdots"/>
<path class="stroke" stroke-width="3"
	d="M860.54 316.00v-58.00"/>
<path class="stroke" stroke-width="1"
	d="M856.04 316.00v-58.00"/>
<use x="852.04" y="316.00" xlink:href="#rdots"/>
<path d="m11.54 258.00
	h850.50
	M11.54 252.00
	h850.50
	M11.54 246.00
	h850.50
	M11.54 240.00
	h850.50
	M11.54 234.00
	h850.50
	" class="stroke"/>
<path d="m11.54 316.00
	h850.50
	M11.54 310.00
	h850.50
	M11.54 304.00
	h850.50
	M11.54 298.00
	h850.50
	M11.54 292.00
	h850.50
	" class="stroke"/>
<text x="47.54" y="219.40">2</text>
<path class="stroke"
	d="M43.54 208.00m0 20v-20h87.00v20"/>
<use x="23.54" y="252.00" xlink:href="#tclef"/>
<use x="56.04" y="231.00" xlink:href="#hd"/>
<path d="M52.54 231.00v40.00" class="stroke"/>
<use x="56.04" y="252.00" xlink:href="#hd"/>
<use x="56.04" y="246.00" xlink:href="#hd"/>
<use x="56.04" y="240.00" xlink:href="#hd"/>
<use x="107.84" y="246.00" xlink:href="#r8"/>
<path class="fill"
	d="M157.14 258.20l71.90 0.00v-3.20l-71.90 -0.00"/>
<path class="fill"
	d="M157.54 253.20l71.20 0.00v-3.20l-71.20 -0.00"/>
<use x="161.04" y="234.00" xlink:href="#hd"/>
<use x="152.04" y="234.00" xlink:href="#sh0"/>
<path d="M157.54 234.00v23.20" class="stroke"/>
<use x="175.24" y="228.00" xlink:href="#hl"/>
<use x="175.24" y="228.00" xlink:href="#hd"/>
<path d="M171.74 228.00v29.20" class="stroke"/>
<use x="189.54" y="228.00" xlink:href="#hl"/>
<use x="189.54" y="222.00" xlink:href="#hl"/>
<use x="189.54" y="219.00" xlink:href="#hd"/>
<path d="M186.04 219.00v38.20" class="stroke"/>
<use x="203.94" y="228.00" xlink:href="#hl"/>
<use x="203.94" y="228.00" xlink:href="#hd"/>
<path d="M200.44 228.00v29.20" class="stroke"/>
<use x="218.04" y="234.00" xlink:href="#hd"/>
<path d="M214.54 234.00v23.20" class="stroke"/>
<use x="232.24" y="228.00" xlink:href="#hl"/>
<use x="232.24" y="228.00" xlink:href="#hd"/>
<path d="M228.74 228.00v29.20" class="stroke"/>
<path class="fill"
	d="M253.44 254.30l48.70 4.90v-3.20l-48.70 -4.90"/>
<path class="fill"
	d="M253.74 249.30l14.20 1.40v-3.20l-14.20 -1.40"/>
<use x="257.24" y="231.00" xlink:href="#hd"/>
<path d="M253.74 231.00v22.30" class="stroke"/>
<use x="271.44" y="228.00" xlink:href="#hl"/>
<use x="271.44" y="225.00" xlink:href="#hd"/>
<path d="M267.94 225.00v29.80" class="stroke"/>
<use x="285.64" y="231.00" xlink:href="#hd"/>
<path d="M282.14 231.00v25.20" class="stroke"/>
<use x="305.24" y="240.00" xlink:href="#hd"/>
<path d="M301.74 240.00v18.20" class="stroke"/>
<path class="fill"
	d="M329.84 266.60l71.60 -6.70v-3.20l-71.60 6.70"/>
<path class="fill"
	d="M330.14 261.50l70.90 -6.70v-3.20l-70.90 6.70"/>
<use x="333.64" y="237.00" xlink:href="#hd"/>
<path d="M330.14 237.00v28.50" class="stroke"/>
<use x="347.84" y="243.00" xlink:href="#hd"/>
<path d="M344.34 243.00v21.20" class="stroke"/>
<use x="362.04" y="237.00" xlink:href="#hd"/>
<path d="M358.54 237.00v25.90" class="stroke"/>
<use x="376.14" y="231.00" xlink:href="#hd"/>
<path d="M372.64 231.00v30.50" class="stroke"/>
<use x="390.34" y="228.00" xlink:href="#hl"/>
<use x="390.34" y="222.00" xlink:href="#hl"/>
<use x="390.34" y="222.00" xlink:href="#hd"/>
<path d="M386.84 222.00v38.20" class="stroke"/>
<use x="404.54" y="231.00" xlink:href="#hd"/>
<path d="M401.04 231.00v27.90" class="stroke"/>
<path class="fill"
	d="M425.64 262.20l57.40 5.30v-3.20l-57.40 -5.30"/>
<path class="fill"
	d="M426.04 257.20l42.50 4.00v-3.20l-42.50 -4.00"/>
<use x="429.54" y="240.00" xlink:href="#hd"/>
<path d="M426.04 240.00v21.20" class="stroke"/>
<use x="443.74" y="228.00" xlink:href="#hl"/>
<use x="443.74" y="225.00" xlink:href="#hd"/>
<path d="M440.24 225.00v37.50" class="stroke"/>
<use x="457.84" y="231.00" xlink:href="#hd"/>
<path d="M454.34 231.00v32.80" class="stroke"/>
<use x="472.04" y="240.00" xlink:href="#hd"/>
<path d="M468.54 240.00v25.20" class="stroke"/>
<use x="486.24" y="246.00" xlink:href="#hd"/>
<path d="M482.74 246.00v20.50" class="stroke"/>
<path class="fill"
	d="M510.84 271.20l57.40 -6.90v-3.20l-57.40 6.90"/>
<use x="514.64" y="252.00" xlink:href="#hd"/>
<path d="M511.14 252.00v18.20" class="stroke"/>
<use x="542.94" y="243.00" xlink:href="#hd"/>
<path d="M539.44 243.00v23.80" class="stroke"/>
<use x="571.34" y="237.00" xlink:href="#hd"/>
<path d="M567.84 237.00v26.40" class="stroke"/>
<path class="fill"
	d="M606.64 274.20l71.60 0.00v-3.20l-71.60 -0.00"/>
<path class="fill"
	d="M607.04 269.20l70.90 0.00v-3.20l-70.90 -0.00"/>
<use x="610.54" y="243.00" xlink:href="#hd"/>
<path d="M607.04 243.00v30.20" class="stroke"/>
<use x="624.74" y="246.00" xlink:href="#hd"/>
<path d="M621.24 246.00v27.20" class="stroke"/>
<use x="638.84" y="243.00" xlink:href="#hd"/>
<path d="M635.34 243.00v30.20" class="stroke"/>
<use x="653.04" y="237.00" xlink:href="#hd"/>
<path d="M649.54 237.00v36.20" class="stroke"/>
<use x="667.24" y="252.00" xlink:href="#hd"/>
<path d="M663.74 252.00v21.20" class="stroke"/>
<use x="681.44" y="243.00" xlink:href="#hd"/>
<path d="M677.94 243.00v30.20" class="stroke"/>
<path class="fill"
	d="M702.54 266.00l71.60 0.00v-3.20l-71.60 -0.00"/>
<path class="fill"
	d="M702.94 261.00l70.90 0.00v-3.20l-70.90 -0.00"/>
<use x="706.44" y="234.00" xlink:href="#hd"/>
<path d="M702.94 234.00v30.90" class="stroke"/>
<use x="720.54" y="237.00" xlink:href="#hd"/>
<path d="M717.04 237.00v27.90" class="stroke"/>
<use x="734.74" y="240.00" xlink:href="#hd"/>
<path d="M731.24 240.00v24.90" class="stroke"/>
<use x="748.94" y="243.00" xlink:href="#hd"/>
<path d="M745.44 243.00v21.90" class="stroke"/>
<use x="763.14" y="246.00" xlink:href="#hd"/>
<path d="M759.64 246.00v18.90" class="stroke"/>
<use x="777.24" y="240.00" xlink:href="#hd"/>
<path d="M773.74 240.00v24.90" class="stroke"/>
<use x="802.24" y="243.00" xlink:href="#hd"/>
<path d="M798.74 243.00v21.00" class="stroke"/>
<use x="841.54" y="246.00" xlink:href="#r8"/>
<use x="23.54" y="298.00" xlink:href="#bclef"/>
<path class="fill"
	d="M52.24 335.20l66.70 -4.90v-3.20l-66.70 4.90"/>
<path class="fill"
	d="M72.14 328.80l46.40 -3.40v-3.20l-46.40 3.40"/>
<use x="56.04" y="316.00" xlink:href="#hd"/>
<path d="M52.54 316.00v18.20" class="stroke"/>
<use x="75.64" y="289.00" xlink:href="#hd"/>
<path d="M72.14 289.00v43.80" class="stroke"/>
<use x="89.84" y="295.00" xlink:href="#hd"/>
<path d="M86.34 295.00v36.70" class="stroke"/>
<use x="107.84" y="298.00" xlink:href="#hd"/>
<use x="98.84" y="298.00" xlink:href="#sh0"/>
<path d="M104.34 298.00v32.40" class="stroke"/>
<use x="122.04" y="301.00" xlink:href="#hd"/>
<path d="M118.54 301.00v28.30" class="stroke"/>
<use x="161.04" y="292.00" xlink:href="#hd"/>
<path d="M157.54 292.00v34.00" class="stroke"/>
<use x="161.04" y="307.00" xlink:href="#hd"/>
<use x="218.04" y="292.00" xlink:href="#hd"/>
<path d="M214.54 292.00v34.00" class="stroke"/>
<path class="fill"
	d="M214.54 326.00c0.6 -5.6 9.6 -9 5.6 -18.4
	1.6 6 -1.3 11.6 -5.6 12.8
"/>
<use x="218.04" y="307.00" xlink:href="#hd"/>
<use x="257.24" y="310.00" xlink:href="#hd"/>
<path d="M260.74 310.00v-25.00" class="stroke"/>
<use x="257.24" y="304.00" xlink:href="#hd"/>
<use x="305.24" y="295.00" xlink:href="#hd"/>
<path d="M301.74 295.00v34.00" class="stroke"/>
<path class="fill"
	d="M301.74 329.00c0.6 -5.6 9.6 -9 5.6 -18.4
	1.6 6 -1.3 11.6 -5.6 12.8
"/>
<use x="305.24" y="310.00" xlink:href="#hd"/>
<use x="333.64" y="295.00" xlink:href="#hd"/>
<path d="M330.14 295.00v31.00" class="stroke"/>
<use x="333.64" y="307.00" xlink:href="#hd"/>
<use x="390.34" y="304.00" xlink:href="#r8"/>
<use x="429.54" y="289.00" xlink:href="#hd"/>
<path d="M426.04 289.00v25.00" class="stroke"/>
<use x="429.54" y="295.00" xlink:href="#hd"/>
<use x="486.24" y="304.00" xlink:href="#r8"/>
<path class="fill"
	d="M510.84 323.90l71.60 0.00v-3.20l-71.60 -0.00"/>
<path class="fill"
	d="M511.14 318.90l70.90 0.00v-3.20l-70.90 -0.00"/>
<use x="514.64" y="301.00" xlink:href="#hd"/>
<path d="M511.14 301.00v21.90" class="stroke"/>
<use x="514.64" y="307.00" xlink:href="#hd"/>
<use x="528.84" y="295.00" xlink:href="#hd"/>
<path d="M525.34 295.00v27.90" class="stroke"/>
<use x="542.94" y="301.00" xlink:href="#hd"/>
<path d="M539.44 301.00v21.90" class="stroke"/>
<use x="542.94" y="307.00" xlink:href="#hd"/>
<use x="557.14" y="295.00" xlink:href="#hd"/>
<path d="M553.64 295.00v27.90" class="stroke"/>
<use x="571.34" y="301.00" xlink:href="#hd"/>
<path d="M567.84 301.00v21.90" class="stroke"/>
<use x="571.34" y="307.00" xlink:href="#hd"/>
<use x="585.54" y="295.00" xlink:href="#hd"/>
<path d="M582.04 295.00v27.90" class="stroke"/>
<use x="610.54" y="301.00" xlink:href="#hd"/>
<path d="M607.04 301.00v25.00" class="stroke"/>
<use x="610.54" y="307.00" xlink:href="#hd"/>
<use x="667.24" y="301.00" xlink:href="#hd"/>
<path d="M663.74 301.00v25.00" class="stroke"/>
<path class="fill"
	d="M663.74 326.00c0.6 -5.6 9.6 -9 5.6 -18.4
	1.6 6 -1.3 11.6 -5.6 12.8
"/>
<use x="667.24" y="307.00" xlink:href="#hd"/>
<use x="706.44" y="298.00" xlink:href="#hd"/>
<path d="M702.94 298.00v21.00" class="stroke"/>
<use x="763.14" y="295.00" xlink:href="#hd"/>
<path d="M759.64 295.00v21.00" class="stroke"/>
<path class="fill"
	d="M759.64 316.00c0.6 -5.6 9.6 -9 5.6 -18.4
	1.6 6 -1.3 11.6 -5.6 12.8
"/>
<path class="fill"
	d="M805.44 287.70l39.90 9.60v3.20l-39.90 -9.60"/>
<use x="802.24" y="307.00" xlink:href="#hd"/>
<path d="M805.74 307.00v-18.20" class="stroke"/>
<use x="821.94" y="316.00" xlink:href="#hd"/>
<path d="M825.44 316.00v-22.50" class="stroke"/>
<use x="841.54" y="322.00" xlink:href="#hl"/>
<use x="841.54" y="328.00" xlink:href="#hl"/>
<use x="841.54" y="328.00" xlink:href="#hd"/>
<path d="M845.04 328.00v-29.80" class="stroke"/>
</g>
</svg>
