<?xml version="1.0" standalone="no"?>
<!DOCTYPE svg PUBLIC "-//W3C//DTD SVG 1.1//EN"
	"http://www.w3.org/Graphics/SVG/1.1/DTD/svg11.dtd">
<svg xmlns="http://www.w3.org/2000/svg" version="1.1"
	xmlns:xlink="http://www.w3.org/1999/xlink"
	color="black"
	width="757.10px" height="302.47px">
<style type="text/css">
.fill {fill: currentColor}
.stroke {stroke: currentColor; fill: none}
text{white-space: pre}
</style>
<title>./K516f-4-3-11-9-5-4-7-6-6-3-8-9-10-11-6-8.abc (1688) tune 1</title>
<!-- Creator: abcm2ps-8.13.8 -->
<!-- CreationDate: Sep  7, 2017 11:20 -->
<!-- CommandLine: ./K516f-4-3-11-9-5-4-7-6-6-3-8-9-10-11-6-8.abc -O ./K516f-4-3-11-9-5-4-7-6-6-3-8-9-10-11-6-8.svg -g -->
<rect width="100%" height="100%" fill="white"/>
<g stroke-width="0.70" transform="scale(0.867)">
<!-- title: 4-3-11-9-5-4-7-6-6-3-8-9-10-11-6-8 -->
</g>
<g stroke-width="0.70" transform="scale(0.867)" font-family="Times" font-size="20.00">
<text x="436.84" y="22.00" text-anchor="middle">4-3-11-9-5-4-7-6-6-3-8-9-10-11-6-8</text>
</g>
<g stroke-width="0.70" transform="scale(0.867)" font-family="Times" font-size="20.00">
<!-- subtitle: $1K.516f::69:06:165:50:161:55:118:107:25:39:57:166:137:59:1:172::$0 -->
</g>
<g stroke-width="0.70" transform="scale(0.867)" font-family="Courier" font-size="8.00" font-weight="bold">
<text x="436.84" y="41.80" text-anchor="middle">K.516f::69:06:165:50:161:55:118:107:25:39:57:166:137:59:1:172::</text>
</g>
<g stroke-width="0.70" transform="scale(0.867)" font-family="Courier" font-size="8.00" font-weight="bold">
<!-- subtitle: $1Perm. No.: 168815208531269$0 -->
<text x="436.84" y="60.80" text-anchor="middle">Perm. No.: 168815208531269</text>
</g>
<g stroke-width="0.70" transform="scale(0.607)" font-family="Courier" font-size="8.00" font-weight="bold">
<defs>
<ellipse id="hd" rx="4.1" ry="2.9"
	transform="rotate(-20)" class="fill"/>
</defs>
<use x="103.06" y="121.29" xlink:href="#hd"/>
<path d="M106.56 121.29v-21.00" class="stroke"/>
<path class="fill"
	d="M106.56 100.29c0.6 5.6 9.6 9 5.6 18.4
	1.6 -6 -1.3 -11.6 -5.6 -12.8
"/>
</g>
<g stroke-width="0.70" transform="scale(0.867)" font-family="Times" font-size="15.00" font-weight="bold">
<text x="81.24" y="87.00">= 111</text>
<path class="stroke" stroke-width="1"
	d="M11.54 184.00v-82.00"/>
<path class="fill"
	d="M6.54 99.00
	c10.5 1 12 -4.5 12 -3.5c0 1 -3.5 5.5 -8.5 5.5
	v84.00
	c5 0 8.5 4.5 8.5 5.5c0 1 -1.5 -4.5 -12 -3.5"/>
<defs>
<g id="rdots" class="fill">
	<circle cx="0" cy="-9" r="1.2"/>
	<circle cx="0" cy="-15" r="1.2"/>
</g>
</defs>
<use x="70.54" y="126.00" xlink:href="#rdots"/>
<path class="stroke" stroke-width="1"
	d="M66.54 126.00v-24.00"/>
<path class="stroke" stroke-width="3"
	d="M62.04 126.00v-24.00"/>
<use x="70.54" y="184.00" xlink:href="#rdots"/>
<path class="stroke" stroke-width="1"
	d="M66.54 184.00v-58.00"/>
<path class="stroke" stroke-width="3"
	d="M62.04 184.00v-58.00"/>
<path class="stroke" stroke-width="1"
	d="M160.84 126.00v-24.00"/>
<path class="stroke" stroke-width="1"
	d="M160.84 184.00v-58.00"/>
<path class="stroke" stroke-width="1"
	d="M250.24 126.00v-24.00"/>
<path class="stroke" stroke-width="1"
	d="M250.24 184.00v-58.00"/>
<path class="stroke" stroke-width="1"
	d="M339.54 126.00v-24.00"/>
<path class="stroke" stroke-width="1"
	d="M339.54 184.00v-58.00"/>
<path class="stroke" stroke-width="1"
	d="M439.94 126.00v-24.00"/>
<path class="stroke" stroke-width="1"
	d="M439.94 184.00v-58.00"/>
<path class="stroke" stroke-width="1"
	d="M533.04 126.00v-24.00"/>
<path class="stroke" stroke-width="1"
	d="M533.04 184.00v-58.00"/>
<path class="stroke" stroke-width="1"
	d="M622.34 126.00v-24.00"/>
<path class="stroke" stroke-width="1"
	d="M622.34 184.00v-58.00"/>
<path class="stroke" stroke-width="1"
	d="M746.64 126.00v-24.00"/>
<path class="stroke" stroke-width="1"
	d="M746.64 184.00v-58.00"/>
<path class="stroke" stroke-width="3"
	d="M860.54 126.00v-24.00"/>
<path class="stroke" stroke-width="1"
	d="M856.04 126.00v-24.00"/>
<use x="852.04" y="126.00" xlink:href="#rdots"/>
<path class="stroke" stroke-width="3"
	d="M860.54 184.00v-58.00"/>
<path class="stroke" stroke-width="1"
	d="M856.04 184.00v-58.00"/>
<use x="852.04" y="184.00" xlink:href="#rdots"/>
<path d="m11.54 126.00
	h850.50
	M11.54 120.00
	h850.50
	M11.54 114.00
	h850.50
	M11.54 108.00
	h850.50
	M11.54 102.00
	h850.50
	" class="stroke"/>
<path d="m11.54 184.00
	h850.50
	M11.54 178.00
	h850.50
	M11.54 172.00
	h850.50
	M11.54 166.00
	h850.50
	M11.54 160.00
	h850.50
	" class="stroke"/>
<path class="fill"
	d="M90.44 95.40c7.60 -3.11 42.01 2.17 49.61 7.60
	v-0.25c-9.09 -7.18 -40.52 -12.46 -49.61 -7.35"/>
<path class="fill"
	d="M269.14 104.40c7.60 -3.11 42.01 2.17 49.61 7.60
	v-0.25c-9.09 -7.18 -40.52 -12.46 -49.61 -7.35"/>
</g>
<g stroke-width="0.70" transform="scale(0.867)" font-family="Times" font-size="13.00">
<text x="750.64" y="87.40">1</text>
<path class="stroke"
	d="M746.64 76.00m0 20v-20h107.40v20"/>
<defs>
<path id="utclef" class="fill" d="m-50 -90
	c-72 -41 -72 -158 52 -188
	150 -10 220 188 90 256
	-114 52 -275 0 -293 -136
	-15 -181 93 -229 220 -334
	88 -87 79 -133 62 -210
	-51 33 -94 105 -89 186
	17 267 36 374 49 574
	6 96 -19 134 -77 135
	-80 1 -126 -93 -61 -133
	85 -41 133 101 31 105
	23 17 92 37 90 -92
	-10 -223 -39 -342 -50 -617
	0 -90 0 -162 96 -232
	56 72 63 230 22 289
	-74 106 -257 168 -255 316
	9 153 148 185 252 133
	86 -65 29 -192 -80 -176
	-71 12 -105 67 -59 124"/>
<use id="tclef" transform="translate(0,6) scale(0.045)"
	xlink:href="#utclef"/>
</defs>
<use x="23.54" y="120.00" xlink:href="#tclef"/>
<g font-family="serif" font-size="16" font-weight="bold" font-style="normal"
	transform="translate(42.04,125.50) scale(1.2,1)">
	<text text-anchor="middle">8</text>
	<text y="-12" text-anchor="middle">3</text>
</g>
<path class="fill"
	d="M82.64 121.90l54.30 8.40v-3.20l-54.30 -8.40"/>
<use x="86.44" y="99.00" xlink:href="#hd"/>
<path d="M82.94 99.00v21.90" class="stroke"/>
<use x="113.24" y="105.00" xlink:href="#hd"/>
<path d="M109.74 105.00v20.10" class="stroke"/>
<use x="140.04" y="111.00" xlink:href="#hd"/>
<path d="M136.54 111.00v18.20" class="stroke"/>
<path class="fill"
	d="M171.94 139.30l54.30 -6.80v-3.20l-54.30 6.80"/>
<use x="175.74" y="120.00" xlink:href="#hd"/>
<path d="M172.24 120.00v18.20" class="stroke"/>
<use x="202.54" y="111.00" xlink:href="#hd"/>
<path d="M199.04 111.00v23.80" class="stroke"/>
<use x="229.34" y="105.00" xlink:href="#hd"/>
<path d="M225.84 105.00v26.50" class="stroke"/>
<path class="fill"
	d="M261.24 130.90l54.30 8.40v-3.20l-54.30 -8.40"/>
<use x="265.14" y="108.00" xlink:href="#hd"/>
<path d="M261.64 108.00v21.90" class="stroke"/>
<use x="291.94" y="114.00" xlink:href="#hd"/>
<path d="M288.44 114.00v20.10" class="stroke"/>
<use x="318.74" y="120.00" xlink:href="#hd"/>
<path d="M315.24 120.00v18.20" class="stroke"/>
<path class="fill"
	d="M350.64 134.50l65.40 4.80v-3.20l-65.40 -4.80"/>
<path class="fill"
	d="M377.74 131.40l18.90 1.40v-3.20l-18.90 -1.40"/>
<use x="354.44" y="111.00" xlink:href="#hd"/>
<path d="M350.94 111.00v22.50" class="stroke"/>
<use x="381.24" y="105.00" xlink:href="#hd"/>
<path d="M377.74 105.00v30.40" class="stroke"/>
<use x="400.24" y="111.00" xlink:href="#hd"/>
<path d="M396.74 111.00v25.80" class="stroke"/>
<use x="419.14" y="120.00" xlink:href="#hd"/>
<path d="M415.64 120.00v18.20" class="stroke"/>
<path class="fill"
	d="M461.74 89.00l54.30 0.00v3.20l-54.30 -0.00"/>
<use x="458.54" y="123.00" xlink:href="#hd"/>
<defs>
<path id="usharp" class="fill" d="
	m136 -702
	v890
	h32
	v-890
	m128 840
	h32
	v-888
	h-32
	m-232 286
	v116
	l338 -96
	v-116
	m-338 442
	v116
	l338 -98
	v-114"/>
<use id="sh0" transform="translate(-4,5) scale(0.018)"
	xlink:href="#usharp"/>
</defs>
<use x="449.54" y="123.00" xlink:href="#sh0"/>
<path d="M462.04 123.00v-33.00" class="stroke"/>
<use x="458.54" y="108.00" xlink:href="#hd"/>
<use x="485.34" y="123.00" xlink:href="#hd"/>
<use x="476.34" y="123.00" xlink:href="#sh0"/>
<path d="M488.84 123.00v-33.00" class="stroke"/>
<use x="485.34" y="108.00" xlink:href="#hd"/>
<use x="512.14" y="123.00" xlink:href="#hd"/>
<use x="503.14" y="123.00" xlink:href="#sh0"/>
<path d="M515.64 123.00v-33.00" class="stroke"/>
<use x="512.14" y="108.00" xlink:href="#hd"/>
<path class="fill"
	d="M544.04 122.70l54.30 4.60v-3.20l-54.30 -4.60"/>
<use x="547.94" y="99.00" xlink:href="#hd"/>
<path d="M544.44 99.00v22.70" class="stroke"/>
<defs>
<path id="hl" class="stroke" d="m-6 0h12"/>
</defs>
<use x="574.74" y="96.00" xlink:href="#hl"/>
<use x="574.74" y="93.00" xlink:href="#hd"/>
<path d="M571.24 93.00v31.00" class="stroke"/>
<use x="601.54" y="108.00" xlink:href="#hd"/>
<path d="M598.04 108.00v18.20" class="stroke"/>
<path class="fill"
	d="M633.44 128.00l95.40 0.00v-3.20l-95.40 -0.00"/>
<path class="fill"
	d="M633.74 123.00l94.70 0.00v-3.20l-94.70 -0.00"/>
<use x="637.24" y="105.00" xlink:href="#hd"/>
<path d="M633.74 105.00v22.00" class="stroke"/>
<use x="656.14" y="96.00" xlink:href="#hl"/>
<use x="656.14" y="96.00" xlink:href="#hd"/>
<path d="M652.64 96.00v31.00" class="stroke"/>
<use x="675.14" y="99.00" xlink:href="#hd"/>
<path d="M671.64 99.00v28.00" class="stroke"/>
<use x="694.04" y="96.00" xlink:href="#hl"/>
<use x="694.04" y="93.00" xlink:href="#hd"/>
<path d="M690.54 93.00v34.00" class="stroke"/>
<use x="713.04" y="102.00" xlink:href="#hd"/>
<use x="704.04" y="102.00" xlink:href="#sh0"/>
<path d="M709.54 102.00v25.00" class="stroke"/>
<use x="731.94" y="96.00" xlink:href="#hl"/>
<use x="731.94" y="96.00" xlink:href="#hd"/>
<path d="M728.44 96.00v31.00" class="stroke"/>
<use x="761.54" y="99.00" xlink:href="#hd"/>
<path d="M758.04 99.00v40.00" class="stroke"/>
<use x="761.54" y="120.00" xlink:href="#hd"/>
<use x="761.54" y="114.00" xlink:href="#hd"/>
<use x="761.54" y="108.00" xlink:href="#hd"/>
<defs>
<path id="r8e" class="fill" d="m 0 0
	c-1.5 1.5 -2.4 2 -3.6 2
	2.4 -2.8 -2.8 -4 -2.8 -1.2
	c0 2.7 4.3 2.4 5.9 0.6"/>
<g id="r8">
	<path d="m3.3 -4l-3.4 9.6" class="stroke"/>
	<use x="3.4" y="-4" xlink:href="#r8e"/>
</g>
</defs>
<use x="826.24" y="114.00" xlink:href="#r8"/>
<defs>
<path id="ubclef" class="fill" d="m-200 -87
	c124 -35 222 -78 254 -236
	43 -228 -167 -246 -192 -103
	59 -80 157 22 92 78
	-62 47 -115 -22 -106 -88
	21 -141 270 -136 274 52
	-1 175 -106 264 -322 297
	m357 -250
	c0 -36 51 -34 51 0
	0 37 -51 36 -51 0
	m-2 -129
	c0 -36 51 -34 51 0
	0 38 -51 37 -51 0"/>
<use id="bclef" transform="translate(0,18) scale(0.045)"
	xlink:href="#ubclef"/>
</defs>
<use x="23.54" y="166.00" xlink:href="#bclef"/>
<g font-family="serif" font-size="16" font-weight="bold" font-style="normal"
	transform="translate(42.04,183.50) scale(1.2,1)">
	<text text-anchor="middle">8</text>
	<text y="-12" text-anchor="middle">3</text>
</g>
<use x="86.44" y="169.00" xlink:href="#hd"/>
<path d="M82.94 169.00v25.00" class="stroke"/>
<use x="86.44" y="175.00" xlink:href="#hd"/>
<use x="140.04" y="172.00" xlink:href="#r8"/>
<use x="175.74" y="169.00" xlink:href="#hd"/>
<path d="M172.24 169.00v25.00" class="stroke"/>
<use x="175.74" y="175.00" xlink:href="#hd"/>
<use x="229.34" y="172.00" xlink:href="#r8"/>
<use x="265.14" y="178.00" xlink:href="#hd"/>
<path d="M268.64 178.00v-21.00" class="stroke"/>
<use x="318.74" y="172.00" xlink:href="#r8"/>
<use x="354.44" y="163.00" xlink:href="#hd"/>
<path d="M350.94 163.00v25.00" class="stroke"/>
<use x="354.44" y="169.00" xlink:href="#hd"/>
<use x="419.14" y="172.00" xlink:href="#r8"/>
<path class="fill"
	d="M461.74 154.00l54.30 0.00v3.20l-54.30 -0.00"/>
<use x="458.54" y="175.00" xlink:href="#hd"/>
<path d="M462.04 175.00v-20.00" class="stroke"/>
<use x="485.34" y="175.00" xlink:href="#hd"/>
<path d="M488.84 175.00v-20.00" class="stroke"/>
<use x="512.14" y="175.00" xlink:href="#hd"/>
<path d="M515.64 175.00v-20.00" class="stroke"/>
<use x="547.94" y="178.00" xlink:href="#hd"/>
<path d="M551.44 178.00v-25.00" class="stroke"/>
<use x="547.94" y="172.00" xlink:href="#hd"/>
<use x="601.54" y="172.00" xlink:href="#r8"/>
<path class="fill"
	d="M640.44 148.60l76.40 8.50v3.20l-76.40 -8.50"/>
<use x="637.24" y="175.00" xlink:href="#hd"/>
<path d="M640.74 175.00v-25.40" class="stroke"/>
<use x="675.14" y="172.00" xlink:href="#hd"/>
<path d="M678.64 172.00v-18.20" class="stroke"/>
<use x="713.04" y="190.00" xlink:href="#hl"/>
<use x="713.04" y="193.00" xlink:href="#hd"/>
<path d="M716.54 193.00v-35.00" class="stroke"/>
<path class="fill"
	d="M757.74 203.20l84.30 0.00v-3.20l-84.30 -0.00"/>
<path class="fill"
	d="M784.84 198.20l56.80 0.00v-3.20l-56.80 -0.00"/>
<use x="761.54" y="184.00" xlink:href="#hd"/>
<path d="M758.04 184.00v18.20" class="stroke"/>
<use x="788.34" y="163.00" xlink:href="#hd"/>
<path d="M784.84 163.00v39.20" class="stroke"/>
<use x="807.34" y="166.00" xlink:href="#hd"/>
<defs>
<path id="unat" class="fill" d="
	m96 -750
	h-32
	v716
	l32 -8
	182 -54
	v282
	h32
	v-706
	l-34 10
	-180 50
	v-290
	m0 592
	v-190
	l182 -52
	v188"/>
<use id="nt0" transform="translate(-3,5) scale(0.018)"
	xlink:href="#unat"/>
</defs>
<use x="798.34" y="166.00" xlink:href="#nt0"/>
<path d="M803.84 166.00v36.20" class="stroke"/>
<use x="826.24" y="169.00" xlink:href="#hd"/>
<path d="M822.74 169.00v33.20" class="stroke"/>
<use x="845.24" y="172.00" xlink:href="#hd"/>
<path d="M841.74 172.00v30.20" class="stroke"/>
</g>
<g stroke-width="0.70" transform="scale(0.867)" font-family="Times" font-size="13.00">
<path class="stroke" stroke-width="1"
	d="M11.54 323.01v-88.00"/>
<path class="fill"
	d="M6.54 232.01
	c10.5 1 12 -4.5 12 -3.5c0 1 -3.5 5.5 -8.5 5.5
	v90.00
	c5 0 8.5 4.5 8.5 5.5c0 1 -1.5 -4.5 -12 -3.5"/>
<use x="142.14" y="259.01" xlink:href="#rdots"/>
<path class="stroke" stroke-width="1"
	d="M138.14 259.01v-24.00"/>
<path class="stroke" stroke-width="3"
	d="M133.64 259.01v-24.00"/>
<use x="142.14" y="323.01" xlink:href="#rdots"/>
<path class="stroke" stroke-width="1"
	d="M138.14 323.01v-64.00"/>
<path class="stroke" stroke-width="3"
	d="M133.64 323.01v-64.00"/>
<path class="stroke" stroke-width="1"
	d="M247.34 259.01v-24.00"/>
<path class="stroke" stroke-width="1"
	d="M247.34 323.01v-64.00"/>
<path class="stroke" stroke-width="1"
	d="M344.14 259.01v-24.00"/>
<path class="stroke" stroke-width="1"
	d="M344.14 323.01v-64.00"/>
<path class="stroke" stroke-width="1"
	d="M441.04 259.01v-24.00"/>
<path class="stroke" stroke-width="1"
	d="M441.04 323.01v-64.00"/>
<path class="stroke" stroke-width="1"
	d="M527.14 259.01v-24.00"/>
<path class="stroke" stroke-width="1"
	d="M527.14 323.01v-64.00"/>
<path class="stroke" stroke-width="1"
	d="M623.94 259.01v-24.00"/>
<path class="stroke" stroke-width="1"
	d="M623.94 323.01v-64.00"/>
<path class="stroke" stroke-width="1"
	d="M720.84 259.01v-24.00"/>
<path class="stroke" stroke-width="1"
	d="M720.84 323.01v-64.00"/>
<path class="stroke" stroke-width="1"
	d="M789.24 259.01v-24.00"/>
<path class="stroke" stroke-width="1"
	d="M789.24 323.01v-64.00"/>
<path class="stroke" stroke-width="3"
	d="M860.54 259.01v-24.00"/>
<path class="stroke" stroke-width="1"
	d="M856.04 259.01v-24.00"/>
<use x="852.04" y="259.01" xlink:href="#rdots"/>
<path class="stroke" stroke-width="3"
	d="M860.54 323.01v-64.00"/>
<path class="stroke" stroke-width="1"
	d="M856.04 323.01v-64.00"/>
<use x="852.04" y="323.01" xlink:href="#rdots"/>
<path d="m11.54 259.01
	h850.50
	M11.54 253.01
	h850.50
	M11.54 247.01
	h850.50
	M11.54 241.01
	h850.50
	M11.54 235.01
	h850.50
	" class="stroke"/>
<path d="m11.54 323.01
	h850.50
	M11.54 317.01
	h850.50
	M11.54 311.01
	h850.50
	M11.54 305.01
	h850.50
	M11.54 299.01
	h850.50
	" class="stroke"/>
<text x="47.54" y="220.41">2</text>
<path class="stroke"
	d="M43.54 209.01m0 20v-20h87.60v20"/>
<use x="23.54" y="253.01" xlink:href="#tclef"/>
<use x="56.04" y="232.01" xlink:href="#hd"/>
<path d="M52.54 232.01v40.00" class="stroke"/>
<use x="56.04" y="253.01" xlink:href="#hd"/>
<use x="56.04" y="247.01" xlink:href="#hd"/>
<use x="56.04" y="241.01" xlink:href="#hd"/>
<use x="108.34" y="247.01" xlink:href="#r8"/>
<path class="fill"
	d="M151.84 282.31l79.80 -13.20v-3.20l-79.80 13.20"/>
<path class="fill"
	d="M152.14 277.21l79.10 -13.10v-3.20l-79.10 13.10"/>
<use x="155.64" y="262.01" xlink:href="#hd"/>
<path d="M152.14 262.01v19.20" class="stroke"/>
<use x="173.64" y="256.01" xlink:href="#hd"/>
<use x="164.64" y="256.01" xlink:href="#sh0"/>
<path d="M170.14 256.01v22.20" class="stroke"/>
<use x="188.04" y="250.01" xlink:href="#hd"/>
<path d="M184.54 250.01v25.90" class="stroke"/>
<use x="202.44" y="241.01" xlink:href="#hd"/>
<path d="M198.94 241.01v32.50" class="stroke"/>
<use x="220.44" y="235.01" xlink:href="#hd"/>
<use x="211.44" y="235.01" xlink:href="#sh0"/>
<path d="M216.94 235.01v35.50" class="stroke"/>
<use x="234.84" y="229.01" xlink:href="#hl"/>
<use x="234.84" y="229.01" xlink:href="#hd"/>
<path d="M231.34 229.01v39.10" class="stroke"/>
<path class="fill"
	d="M255.94 267.81l58.20 8.90v-3.20l-58.20 -8.90"/>
<use x="259.84" y="232.01" xlink:href="#hd"/>
<path d="M256.34 232.01v34.80" class="stroke"/>
<use x="288.54" y="253.01" xlink:href="#hd"/>
<path d="M285.04 253.01v18.20" class="stroke"/>
<use x="317.24" y="253.01" xlink:href="#hd"/>
<path d="M313.74 253.01v22.60" class="stroke"/>
<path class="fill"
	d="M352.84 265.31l58.20 6.90v-3.20l-58.20 -6.90"/>
<use x="356.64" y="238.01" xlink:href="#hd"/>
<path d="M353.14 238.01v26.30" class="stroke"/>
<use x="385.44" y="244.01" xlink:href="#hd"/>
<path d="M381.94 244.01v23.80" class="stroke"/>
<use x="414.14" y="253.01" xlink:href="#hd"/>
<path d="M410.64 253.01v18.20" class="stroke"/>
<path class="fill"
	d="M449.64 263.21l58.20 5.40v-3.20l-58.20 -5.40"/>
<path class="fill"
	d="M450.04 258.21l43.10 4.00v-3.20l-43.10 -4.00"/>
<use x="453.54" y="241.01" xlink:href="#hd"/>
<path d="M450.04 241.01v21.20" class="stroke"/>
<use x="467.84" y="229.01" xlink:href="#hl"/>
<use x="467.84" y="226.01" xlink:href="#hd"/>
<path d="M464.34 226.01v37.50" class="stroke"/>
<use x="482.24" y="232.01" xlink:href="#hd"/>
<path d="M478.74 232.01v32.80" class="stroke"/>
<use x="496.64" y="241.01" xlink:href="#hd"/>
<path d="M493.14 241.01v25.20" class="stroke"/>
<use x="510.94" y="247.01" xlink:href="#hd"/>
<path d="M507.44 247.01v20.50" class="stroke"/>
<path class="fill"
	d="M535.74 273.81l58.20 -3.20v-3.20l-58.20 3.20"/>
<use x="539.64" y="244.01" xlink:href="#hd"/>
<path d="M536.14 244.01v28.80" class="stroke"/>
<use x="568.34" y="253.01" xlink:href="#hd"/>
<path d="M564.84 253.01v18.20" class="stroke"/>
<use x="597.14" y="238.01" xlink:href="#hd"/>
<path d="M593.64 238.01v31.60" class="stroke"/>
<path class="fill"
	d="M632.64 261.61l58.20 3.20v-3.20l-58.20 -3.20"/>
<use x="636.44" y="232.01" xlink:href="#hd"/>
<path d="M632.94 232.01v28.60" class="stroke"/>
<use x="665.24" y="244.01" xlink:href="#hd"/>
<path d="M661.74 244.01v18.20" class="stroke"/>
<use x="693.94" y="238.01" xlink:href="#hd"/>
<path d="M690.44 238.01v25.80" class="stroke"/>
<path class="fill"
	d="M729.44 259.21l40.50 0.00v-3.20l-40.50 -0.00"/>
<use x="733.34" y="235.01" xlink:href="#hd"/>
<path d="M729.84 235.01v23.20" class="stroke"/>
<use x="753.24" y="241.01" xlink:href="#hd"/>
<path d="M749.74 241.01v17.20" class="stroke"/>
<use x="773.14" y="232.01" xlink:href="#hd"/>
<path d="M769.64 232.01v26.20" class="stroke"/>
<use x="801.74" y="244.01" xlink:href="#hd"/>
<path d="M798.24 244.01v21.00" class="stroke"/>
<use x="841.54" y="247.01" xlink:href="#r8"/>
<use x="23.54" y="305.01" xlink:href="#bclef"/>
<path class="fill"
	d="M52.24 342.21l67.30 -4.90v-3.20l-67.30 4.90"/>
<path class="fill"
	d="M72.44 335.71l46.70 -3.40v-3.20l-46.70 3.40"/>
<use x="56.04" y="323.01" xlink:href="#hd"/>
<path d="M52.54 323.01v18.20" class="stroke"/>
<use x="75.94" y="296.01" xlink:href="#hd"/>
<path d="M72.44 296.01v43.70" class="stroke"/>
<use x="90.34" y="302.01" xlink:href="#hd"/>
<path d="M86.84 302.01v36.70" class="stroke"/>
<use x="108.34" y="305.01" xlink:href="#hd"/>
<use x="99.34" y="305.01" xlink:href="#sh0"/>
<path d="M104.84 305.01v32.40" class="stroke"/>
<use x="122.64" y="308.01" xlink:href="#hd"/>
<path d="M119.14 308.01v28.30" class="stroke"/>
<use x="155.64" y="311.01" xlink:href="#hd"/>
<path d="M159.14 311.01v-21.00" class="stroke"/>
<use x="220.44" y="314.01" xlink:href="#hd"/>
<path d="M223.94 314.01v-21.00" class="stroke"/>
<path class="fill"
	d="M223.94 293.01c0.6 5.6 9.6 9 5.6 18.4
	1.6 -6 -1.3 -11.6 -5.6 -12.8
"/>
<path class="fill"
	d="M255.94 345.21l72.50 0.00v-3.20l-72.50 -0.00"/>
<path class="fill"
	d="M256.34 340.21l71.90 0.00v-3.20l-71.90 -0.00"/>
<use x="259.84" y="317.01" xlink:href="#hd"/>
<path d="M256.34 317.01v27.20" class="stroke"/>
<use x="274.14" y="311.01" xlink:href="#hd"/>
<path d="M270.64 311.01v33.20" class="stroke"/>
<use x="288.54" y="302.01" xlink:href="#hd"/>
<path d="M285.04 302.01v42.20" class="stroke"/>
<use x="302.94" y="311.01" xlink:href="#hd"/>
<path d="M299.44 311.01v33.20" class="stroke"/>
<use x="317.24" y="296.01" xlink:href="#hd"/>
<path d="M313.74 296.01v48.20" class="stroke"/>
<use x="331.64" y="323.01" xlink:href="#hd"/>
<path d="M328.14 323.01v21.20" class="stroke"/>
<path class="fill"
	d="M352.84 330.91l72.50 0.00v-3.20l-72.50 -0.00"/>
<path class="fill"
	d="M353.14 325.91l71.90 0.00v-3.20l-71.90 -0.00"/>
<use x="356.64" y="308.01" xlink:href="#hd"/>
<path d="M353.14 308.01v21.90" class="stroke"/>
<use x="356.64" y="314.01" xlink:href="#hd"/>
<use x="371.04" y="302.01" xlink:href="#hd"/>
<path d="M367.54 302.01v27.90" class="stroke"/>
<use x="385.44" y="308.01" xlink:href="#hd"/>
<path d="M381.94 308.01v21.90" class="stroke"/>
<use x="385.44" y="314.01" xlink:href="#hd"/>
<use x="399.74" y="302.01" xlink:href="#hd"/>
<path d="M396.24 302.01v27.90" class="stroke"/>
<use x="414.14" y="308.01" xlink:href="#hd"/>
<path d="M410.64 308.01v21.90" class="stroke"/>
<use x="414.14" y="314.01" xlink:href="#hd"/>
<use x="428.54" y="302.01" xlink:href="#hd"/>
<path d="M425.04 302.01v27.90" class="stroke"/>
<use x="453.54" y="296.01" xlink:href="#hd"/>
<path d="M450.04 296.01v25.00" class="stroke"/>
<use x="453.54" y="302.01" xlink:href="#hd"/>
<use x="510.94" y="311.01" xlink:href="#r8"/>
<path class="fill"
	d="M535.74 330.91l72.50 0.00v-3.20l-72.50 -0.00"/>
<path class="fill"
	d="M536.14 325.91l71.90 0.00v-3.20l-71.90 -0.00"/>
<use x="539.64" y="308.01" xlink:href="#hd"/>
<path d="M536.14 308.01v21.90" class="stroke"/>
<use x="539.64" y="314.01" xlink:href="#hd"/>
<use x="553.94" y="302.01" xlink:href="#hd"/>
<path d="M550.44 302.01v27.90" class="stroke"/>
<use x="568.34" y="308.01" xlink:href="#hd"/>
<path d="M564.84 308.01v21.90" class="stroke"/>
<use x="568.34" y="314.01" xlink:href="#hd"/>
<use x="582.74" y="302.01" xlink:href="#hd"/>
<path d="M579.24 302.01v27.90" class="stroke"/>
<use x="597.14" y="308.01" xlink:href="#hd"/>
<path d="M593.64 308.01v21.90" class="stroke"/>
<use x="597.14" y="314.01" xlink:href="#hd"/>
<use x="611.44" y="302.01" xlink:href="#hd"/>
<path d="M607.94 302.01v27.90" class="stroke"/>
<path class="fill"
	d="M632.64 330.91l72.50 0.00v-3.20l-72.50 -0.00"/>
<path class="fill"
	d="M632.94 325.91l71.90 0.00v-3.20l-71.90 -0.00"/>
<use x="636.44" y="308.01" xlink:href="#hd"/>
<path d="M632.94 308.01v21.90" class="stroke"/>
<use x="636.44" y="314.01" xlink:href="#hd"/>
<use x="650.84" y="302.01" xlink:href="#hd"/>
<path d="M647.34 302.01v27.90" class="stroke"/>
<use x="665.24" y="308.01" xlink:href="#hd"/>
<path d="M661.74 308.01v21.90" class="stroke"/>
<use x="665.24" y="314.01" xlink:href="#hd"/>
<use x="679.54" y="302.01" xlink:href="#hd"/>
<path d="M676.04 302.01v27.90" class="stroke"/>
<use x="693.94" y="308.01" xlink:href="#hd"/>
<path d="M690.44 308.01v21.90" class="stroke"/>
<use x="693.94" y="314.01" xlink:href="#hd"/>
<use x="708.34" y="302.01" xlink:href="#hd"/>
<path d="M704.84 302.01v27.90" class="stroke"/>
<path class="fill"
	d="M729.44 330.21l40.50 0.00v-3.20l-40.50 -0.00"/>
<use x="733.34" y="305.01" xlink:href="#hd"/>
<path d="M729.84 305.01v24.20" class="stroke"/>
<use x="753.24" y="311.01" xlink:href="#hd"/>
<path d="M749.74 311.01v18.20" class="stroke"/>
<use x="773.14" y="302.01" xlink:href="#hd"/>
<path d="M769.64 302.01v27.20" class="stroke"/>
<path class="fill"
	d="M804.94 294.71l40.50 9.60v3.20l-40.50 -9.60"/>
<use x="801.74" y="314.01" xlink:href="#hd"/>
<path d="M805.24 314.01v-18.20" class="stroke"/>
<use x="821.64" y="323.01" xlink:href="#hd"/>
<path d="M825.14 323.01v-22.50" class="stroke"/>
<use x="841.54" y="329.01" xlink:href="#hl"/>
<use x="841.54" y="335.01" xlink:href="#hl"/>
<use x="841.54" y="335.01" xlink:href="#hd"/>
<path d="M845.04 335.01v-29.70" class="stroke"/>
</g>
</svg>
