<?xml version="1.0" standalone="no"?>
<!DOCTYPE svg PUBLIC "-//W3C//DTD SVG 1.1//EN"
	"http://www.w3.org/Graphics/SVG/1.1/DTD/svg11.dtd">
<svg xmlns="http://www.w3.org/2000/svg" version="1.1"
	xmlns:xlink="http://www.w3.org/1999/xlink"
	color="black"
	width="757.10px" height="294.68px">
<style type="text/css">
.fill {fill: currentColor}
.stroke {stroke: currentColor; fill: none}
text{white-space: pre}
</style>
<title>./K516f-4-11-9-4-4-8-8-12-7-12-9-8-9-8-9-10.abc (2626) tune 1</title>
<!-- Creator: abcm2ps-8.13.8 -->
<!-- CreationDate: Sep  7, 2017 11:19 -->
<!-- CommandLine: ./K516f-4-11-9-4-4-8-8-12-7-12-9-8-9-8-9-10.abc -O ./K516f-4-11-9-4-4-8-8-12-7-12-9-8-9-8-9-10.svg -g -->
<rect width="100%" height="100%" fill="white"/>
<g stroke-width="0.70" transform="scale(0.867)">
<!-- title: 4-11-9-4-4-8-8-12-7-12-9-8-9-8-9-10 -->
</g>
<g stroke-width="0.70" transform="scale(0.867)" font-family="Times" font-size="20.00">
<text x="436.84" y="22.00" text-anchor="middle">4-11-9-4-4-8-8-12-7-12-9-8-9-8-9-10</text>
</g>
<g stroke-width="0.70" transform="scale(0.867)" font-family="Times" font-size="20.00">
<!-- subtitle: $1K.516f::69:87:114:13:153:133:21:5:138:20:48:175:51:168:72:8::$0 -->
</g>
<g stroke-width="0.70" transform="scale(0.867)" font-family="Courier" font-size="8.00" font-weight="bold">
<text x="436.84" y="41.80" text-anchor="middle">K.516f::69:87:114:13:153:133:21:5:138:20:48:175:51:168:72:8::</text>
</g>
<g stroke-width="0.70" transform="scale(0.867)" font-family="Courier" font-size="8.00" font-weight="bold">
<!-- subtitle: $1Perm. No.: 262661119796793$0 -->
<text x="436.84" y="60.80" text-anchor="middle">Perm. No.: 262661119796793</text>
</g>
<g stroke-width="0.70" transform="scale(0.607)" font-family="Courier" font-size="8.00" font-weight="bold">
<defs>
<ellipse id="hd" rx="4.1" ry="2.9"
	transform="rotate(-20)" class="fill"/>
</defs>
<use x="103.06" y="121.29" xlink:href="#hd"/>
<path d="M106.56 121.29v-21.00" class="stroke"/>
<path class="fill"
	d="M106.56 100.29c0.6 5.6 9.6 9 5.6 18.4
	1.6 -6 -1.3 -11.6 -5.6 -12.8
"/>
</g>
<g stroke-width="0.70" transform="scale(0.867)" font-family="Times" font-size="15.00" font-weight="bold">
<text x="81.24" y="87.00">= 111</text>
<path class="stroke" stroke-width="1"
	d="M11.54 184.00v-82.00"/>
<path class="fill"
	d="M6.54 99.00
	c10.5 1 12 -4.5 12 -3.5c0 1 -3.5 5.5 -8.5 5.5
	v84.00
	c5 0 8.5 4.5 8.5 5.5c0 1 -1.5 -4.5 -12 -3.5"/>
<defs>
<g id="rdots" class="fill">
	<circle cx="0" cy="-9" r="1.2"/>
	<circle cx="0" cy="-15" r="1.2"/>
</g>
</defs>
<use x="70.54" y="126.00" xlink:href="#rdots"/>
<path class="stroke" stroke-width="1"
	d="M66.54 126.00v-24.00"/>
<path class="stroke" stroke-width="3"
	d="M62.04 126.00v-24.00"/>
<use x="70.54" y="184.00" xlink:href="#rdots"/>
<path class="stroke" stroke-width="1"
	d="M66.54 184.00v-58.00"/>
<path class="stroke" stroke-width="3"
	d="M62.04 184.00v-58.00"/>
<path class="stroke" stroke-width="1"
	d="M156.14 126.00v-24.00"/>
<path class="stroke" stroke-width="1"
	d="M156.14 184.00v-58.00"/>
<path class="stroke" stroke-width="1"
	d="M240.74 126.00v-24.00"/>
<path class="stroke" stroke-width="1"
	d="M240.74 184.00v-58.00"/>
<path class="stroke" stroke-width="1"
	d="M325.34 126.00v-24.00"/>
<path class="stroke" stroke-width="1"
	d="M325.34 184.00v-58.00"/>
<path class="stroke" stroke-width="1"
	d="M409.94 126.00v-24.00"/>
<path class="stroke" stroke-width="1"
	d="M409.94 184.00v-58.00"/>
<path class="stroke" stroke-width="1"
	d="M527.74 126.00v-24.00"/>
<path class="stroke" stroke-width="1"
	d="M527.74 184.00v-58.00"/>
<path class="stroke" stroke-width="1"
	d="M634.94 126.00v-24.00"/>
<path class="stroke" stroke-width="1"
	d="M634.94 184.00v-58.00"/>
<path class="stroke" stroke-width="1"
	d="M752.74 126.00v-24.00"/>
<path class="stroke" stroke-width="1"
	d="M752.74 184.00v-58.00"/>
<path class="stroke" stroke-width="3"
	d="M860.54 126.00v-24.00"/>
<path class="stroke" stroke-width="1"
	d="M856.04 126.00v-24.00"/>
<use x="852.04" y="126.00" xlink:href="#rdots"/>
<path class="stroke" stroke-width="3"
	d="M860.54 184.00v-58.00"/>
<path class="stroke" stroke-width="1"
	d="M856.04 184.00v-58.00"/>
<use x="852.04" y="184.00" xlink:href="#rdots"/>
<path d="m11.54 126.00
	h850.50
	M11.54 120.00
	h850.50
	M11.54 114.00
	h850.50
	M11.54 108.00
	h850.50
	M11.54 102.00
	h850.50
	" class="stroke"/>
<path d="m11.54 184.00
	h850.50
	M11.54 178.00
	h850.50
	M11.54 172.00
	h850.50
	M11.54 166.00
	h850.50
	M11.54 160.00
	h850.50
	" class="stroke"/>
<path class="fill"
	d="M89.64 95.40c7.22 -3.06 39.53 2.19 46.75 7.60
	v-0.25c-8.62 -7.16 -38.12 -12.41 -46.75 -7.35"/>
<path class="fill"
	d="M339.44 122.00c7.22 5.41 39.53 10.66 46.75 7.60
	v0.25c-8.62 4.81 -38.12 -0.44 -46.75 -7.85"/>
</g>
<g stroke-width="0.70" transform="scale(0.867)" font-family="Times" font-size="13.00">
<text x="756.74" y="87.40">1</text>
<path class="stroke"
	d="M752.74 76.00m0 20v-20h101.30v20"/>
<defs>
<path id="utclef" class="fill" d="m-50 -90
	c-72 -41 -72 -158 52 -188
	150 -10 220 188 90 256
	-114 52 -275 0 -293 -136
	-15 -181 93 -229 220 -334
	88 -87 79 -133 62 -210
	-51 33 -94 105 -89 186
	17 267 36 374 49 574
	6 96 -19 134 -77 135
	-80 1 -126 -93 -61 -133
	85 -41 133 101 31 105
	23 17 92 37 90 -92
	-10 -223 -39 -342 -50 -617
	0 -90 0 -162 96 -232
	56 72 63 230 22 289
	-74 106 -257 168 -255 316
	9 153 148 185 252 133
	86 -65 29 -192 -80 -176
	-71 12 -105 67 -59 124"/>
<use id="tclef" transform="translate(0,6) scale(0.045)"
	xlink:href="#utclef"/>
</defs>
<use x="23.54" y="120.00" xlink:href="#tclef"/>
<g font-family="serif" font-size="16" font-weight="bold" font-style="normal"
	transform="translate(42.04,125.50) scale(1.2,1)">
	<text text-anchor="middle">8</text>
	<text y="-12" text-anchor="middle">3</text>
</g>
<path class="fill"
	d="M81.84 122.00l51.40 8.30v-3.20l-51.40 -8.30"/>
<use x="85.64" y="99.00" xlink:href="#hd"/>
<path d="M82.14 99.00v22.10" class="stroke"/>
<use x="111.04" y="105.00" xlink:href="#hd"/>
<path d="M107.54 105.00v20.10" class="stroke"/>
<use x="136.44" y="111.00" xlink:href="#hd"/>
<path d="M132.94 111.00v18.20" class="stroke"/>
<path class="fill"
	d="M166.44 128.60l51.40 3.20v-3.20l-51.40 -3.20"/>
<use x="170.24" y="99.00" xlink:href="#hd"/>
<path d="M166.74 99.00v28.60" class="stroke"/>
<use x="195.64" y="111.00" xlink:href="#hd"/>
<path d="M192.14 111.00v18.20" class="stroke"/>
<use x="220.94" y="105.00" xlink:href="#hd"/>
<path d="M217.44 105.00v25.80" class="stroke"/>
<path class="fill"
	d="M251.04 133.00l51.40 0.00v-3.20l-51.40 -0.00"/>
<use x="254.84" y="108.00" xlink:href="#hd"/>
<path d="M251.34 108.00v24.00" class="stroke"/>
<use x="254.84" y="114.00" xlink:href="#hd"/>
<use x="280.24" y="108.00" xlink:href="#hd"/>
<path d="M276.74 108.00v24.00" class="stroke"/>
<use x="280.24" y="114.00" xlink:href="#hd"/>
<use x="305.54" y="108.00" xlink:href="#hd"/>
<path d="M302.04 108.00v24.00" class="stroke"/>
<use x="305.54" y="114.00" xlink:href="#hd"/>
<path class="fill"
	d="M342.54 91.80l51.40 6.70v3.20l-51.40 -6.70"/>
<use x="339.44" y="111.00" xlink:href="#hd"/>
<path d="M342.94 111.00v-18.20" class="stroke"/>
<use x="364.84" y="120.00" xlink:href="#hd"/>
<path d="M368.34 120.00v-23.90" class="stroke"/>
<use x="390.14" y="126.00" xlink:href="#hd"/>
<path d="M393.64 126.00v-26.60" class="stroke"/>
<path class="fill"
	d="M420.14 140.50l90.40 -6.40v-3.20l-90.40 6.40"/>
<path class="fill"
	d="M420.54 135.50l89.70 -6.40v-3.20l-89.70 6.40"/>
<use x="424.04" y="108.00" xlink:href="#hd"/>
<path d="M420.54 108.00v31.50" class="stroke"/>
<use x="441.94" y="117.00" xlink:href="#hd"/>
<path d="M438.44 117.00v21.20" class="stroke"/>
<use x="459.94" y="102.00" xlink:href="#hd"/>
<defs>
<path id="usharp" class="fill" d="
	m136 -702
	v890
	h32
	v-890
	m128 840
	h32
	v-888
	h-32
	m-232 286
	v116
	l338 -96
	v-116
	m-338 442
	v116
	l338 -98
	v-114"/>
<use id="sh0" transform="translate(-4,5) scale(0.018)"
	xlink:href="#usharp"/>
</defs>
<use x="450.94" y="102.00" xlink:href="#sh0"/>
<path d="M456.44 102.00v34.90" class="stroke"/>
<use x="477.84" y="108.00" xlink:href="#hd"/>
<path d="M474.34 108.00v27.60" class="stroke"/>
<defs>
<path id="hl" class="stroke" d="m-6 0h12"/>
</defs>
<use x="495.84" y="96.00" xlink:href="#hl"/>
<use x="495.84" y="96.00" xlink:href="#hd"/>
<path d="M492.34 96.00v38.40" class="stroke"/>
<use x="513.74" y="102.00" xlink:href="#hd"/>
<path d="M510.24 102.00v31.10" class="stroke"/>
<path class="fill"
	d="M537.94 136.20l79.90 0.00v-3.20l-79.90 -0.00"/>
<path class="fill"
	d="M563.64 131.20l53.80 0.00v-3.20l-53.80 -0.00"/>
<use x="541.84" y="108.00" xlink:href="#hd"/>
<path d="M538.34 108.00v27.20" class="stroke"/>
<use x="567.14" y="99.00" xlink:href="#hd"/>
<path d="M563.64 99.00v36.20" class="stroke"/>
<use x="585.14" y="108.00" xlink:href="#hd"/>
<path d="M581.64 108.00v27.20" class="stroke"/>
<use x="603.04" y="114.00" xlink:href="#hd"/>
<path d="M599.54 114.00v21.20" class="stroke"/>
<use x="621.04" y="108.00" xlink:href="#hd"/>
<path d="M617.54 108.00v27.20" class="stroke"/>
<path class="fill"
	d="M645.24 139.20l90.40 0.00v-3.20l-90.40 -0.00"/>
<path class="fill"
	d="M645.54 134.20l89.70 0.00v-3.20l-89.70 -0.00"/>
<use x="649.04" y="111.00" xlink:href="#hd"/>
<path d="M645.54 111.00v27.20" class="stroke"/>
<use x="666.94" y="105.00" xlink:href="#hd"/>
<path d="M663.44 105.00v33.20" class="stroke"/>
<use x="684.94" y="99.00" xlink:href="#hd"/>
<path d="M681.44 99.00v39.20" class="stroke"/>
<use x="702.84" y="108.00" xlink:href="#hd"/>
<path d="M699.34 108.00v30.20" class="stroke"/>
<use x="720.84" y="117.00" xlink:href="#hd"/>
<path d="M717.34 117.00v21.20" class="stroke"/>
<use x="738.84" y="102.00" xlink:href="#hd"/>
<use x="729.84" y="102.00" xlink:href="#sh0"/>
<path d="M735.34 102.00v36.20" class="stroke"/>
<use x="766.84" y="99.00" xlink:href="#hd"/>
<path d="M763.34 99.00v40.00" class="stroke"/>
<use x="766.84" y="120.00" xlink:href="#hd"/>
<use x="766.84" y="114.00" xlink:href="#hd"/>
<use x="766.84" y="108.00" xlink:href="#hd"/>
<defs>
<path id="r8e" class="fill" d="m 0 0
	c-1.5 1.5 -2.4 2 -3.6 2
	2.4 -2.8 -2.8 -4 -2.8 -1.2
	c0 2.7 4.3 2.4 5.9 0.6"/>
<g id="r8">
	<path d="m3.3 -4l-3.4 9.6" class="stroke"/>
	<use x="3.4" y="-4" xlink:href="#r8e"/>
</g>
</defs>
<use x="828.14" y="114.00" xlink:href="#r8"/>
<defs>
<path id="ubclef" class="fill" d="m-200 -87
	c124 -35 222 -78 254 -236
	43 -228 -167 -246 -192 -103
	59 -80 157 22 92 78
	-62 47 -115 -22 -106 -88
	21 -141 270 -136 274 52
	-1 175 -106 264 -322 297
	m357 -250
	c0 -36 51 -34 51 0
	0 37 -51 36 -51 0
	m-2 -129
	c0 -36 51 -34 51 0
	0 38 -51 37 -51 0"/>
<use id="bclef" transform="translate(0,18) scale(0.045)"
	xlink:href="#ubclef"/>
</defs>
<use x="23.54" y="166.00" xlink:href="#bclef"/>
<g font-family="serif" font-size="16" font-weight="bold" font-style="normal"
	transform="translate(42.04,183.50) scale(1.2,1)">
	<text text-anchor="middle">8</text>
	<text y="-12" text-anchor="middle">3</text>
</g>
<use x="85.64" y="169.00" xlink:href="#hd"/>
<path d="M82.14 169.00v25.00" class="stroke"/>
<use x="85.64" y="175.00" xlink:href="#hd"/>
<use x="136.44" y="172.00" xlink:href="#r8"/>
<use x="170.24" y="169.00" xlink:href="#hd"/>
<path d="M166.74 169.00v25.00" class="stroke"/>
<use x="170.24" y="175.00" xlink:href="#hd"/>
<use x="220.94" y="163.00" xlink:href="#hd"/>
<path d="M217.44 163.00v31.00" class="stroke"/>
<path class="fill"
	d="M217.44 194.00c0.6 -5.6 9.6 -9 5.6 -18.4
	1.6 6 -1.3 11.6 -5.6 12.8
"/>
<use x="220.94" y="175.00" xlink:href="#hd"/>
<path class="fill"
	d="M251.04 184.30l51.40 0.00v-3.20l-51.40 -0.00"/>
<use x="254.84" y="163.00" xlink:href="#hd"/>
<path d="M251.34 163.00v20.20" class="stroke"/>
<use x="280.24" y="163.00" xlink:href="#hd"/>
<path d="M276.74 163.00v20.20" class="stroke"/>
<use x="305.54" y="163.00" xlink:href="#hd"/>
<path d="M302.04 163.00v20.20" class="stroke"/>
<use x="339.44" y="163.00" xlink:href="#hd"/>
<path d="M335.94 163.00v25.00" class="stroke"/>
<use x="339.44" y="169.00" xlink:href="#hd"/>
<use x="390.14" y="172.00" xlink:href="#r8"/>
<use x="424.04" y="175.00" xlink:href="#hd"/>
<path d="M427.54 175.00v-21.00" class="stroke"/>
<use x="495.84" y="172.00" xlink:href="#r8"/>
<use x="541.84" y="163.00" xlink:href="#hd"/>
<path d="M538.34 163.00v34.00" class="stroke"/>
<use x="541.84" y="178.00" xlink:href="#hd"/>
<use x="603.04" y="172.00" xlink:href="#r8"/>
<path class="fill"
	d="M652.24 148.60l72.40 8.40v3.20l-72.40 -8.40"/>
<use x="649.04" y="175.00" xlink:href="#hd"/>
<path d="M652.54 175.00v-25.40" class="stroke"/>
<use x="684.94" y="172.00" xlink:href="#hd"/>
<path d="M688.44 172.00v-18.20" class="stroke"/>
<use x="720.84" y="190.00" xlink:href="#hl"/>
<use x="720.84" y="193.00" xlink:href="#hd"/>
<path d="M724.34 193.00v-35.00" class="stroke"/>
<path class="fill"
	d="M763.04 203.20l79.90 0.00v-3.20l-79.90 -0.00"/>
<path class="fill"
	d="M788.74 198.20l53.90 0.00v-3.20l-53.90 -0.00"/>
<use x="766.84" y="184.00" xlink:href="#hd"/>
<path d="M763.34 184.00v18.20" class="stroke"/>
<use x="792.24" y="163.00" xlink:href="#hd"/>
<path d="M788.74 163.00v39.20" class="stroke"/>
<use x="810.24" y="166.00" xlink:href="#hd"/>
<defs>
<path id="unat" class="fill" d="
	m96 -750
	h-32
	v716
	l32 -8
	182 -54
	v282
	h32
	v-706
	l-34 10
	-180 50
	v-290
	m0 592
	v-190
	l182 -52
	v188"/>
<use id="nt0" transform="translate(-3,5) scale(0.018)"
	xlink:href="#unat"/>
</defs>
<use x="801.24" y="166.00" xlink:href="#nt0"/>
<path d="M806.74 166.00v36.20" class="stroke"/>
<use x="828.14" y="169.00" xlink:href="#hd"/>
<path d="M824.64 169.00v33.20" class="stroke"/>
<use x="846.14" y="172.00" xlink:href="#hd"/>
<path d="M842.64 172.00v30.20" class="stroke"/>
</g>
<g stroke-width="0.70" transform="scale(0.867)" font-family="Times" font-size="13.00">
<path class="stroke" stroke-width="1"
	d="M11.54 317.01v-82.00"/>
<path class="fill"
	d="M6.54 232.01
	c10.5 1 12 -4.5 12 -3.5c0 1 -3.5 5.5 -8.5 5.5
	v84.00
	c5 0 8.5 4.5 8.5 5.5c0 1 -1.5 -4.5 -12 -3.5"/>
<use x="142.44" y="259.01" xlink:href="#rdots"/>
<path class="stroke" stroke-width="1"
	d="M138.44 259.01v-24.00"/>
<path class="stroke" stroke-width="3"
	d="M133.94 259.01v-24.00"/>
<use x="142.44" y="317.01" xlink:href="#rdots"/>
<path class="stroke" stroke-width="1"
	d="M138.44 317.01v-58.00"/>
<path class="stroke" stroke-width="3"
	d="M133.94 317.01v-58.00"/>
<path class="stroke" stroke-width="1"
	d="M253.74 259.01v-24.00"/>
<path class="stroke" stroke-width="1"
	d="M253.74 317.01v-58.00"/>
<path class="stroke" stroke-width="1"
	d="M331.54 259.01v-24.00"/>
<path class="stroke" stroke-width="1"
	d="M331.54 317.01v-58.00"/>
<path class="stroke" stroke-width="1"
	d="M419.84 259.01v-24.00"/>
<path class="stroke" stroke-width="1"
	d="M419.84 317.01v-58.00"/>
<path class="stroke" stroke-width="1"
	d="M506.24 259.01v-24.00"/>
<path class="stroke" stroke-width="1"
	d="M506.24 317.01v-58.00"/>
<path class="stroke" stroke-width="1"
	d="M603.44 259.01v-24.00"/>
<path class="stroke" stroke-width="1"
	d="M603.44 317.01v-58.00"/>
<path class="stroke" stroke-width="1"
	d="M691.84 259.01v-24.00"/>
<path class="stroke" stroke-width="1"
	d="M691.84 317.01v-58.00"/>
<path class="stroke" stroke-width="1"
	d="M789.04 259.01v-24.00"/>
<path class="stroke" stroke-width="1"
	d="M789.04 317.01v-58.00"/>
<path class="stroke" stroke-width="3"
	d="M860.54 259.01v-24.00"/>
<path class="stroke" stroke-width="1"
	d="M856.04 259.01v-24.00"/>
<use x="852.04" y="259.01" xlink:href="#rdots"/>
<path class="stroke" stroke-width="3"
	d="M860.54 317.01v-58.00"/>
<path class="stroke" stroke-width="1"
	d="M856.04 317.01v-58.00"/>
<use x="852.04" y="317.01" xlink:href="#rdots"/>
<path d="m11.54 259.01
	h850.50
	M11.54 253.01
	h850.50
	M11.54 247.01
	h850.50
	M11.54 241.01
	h850.50
	M11.54 235.01
	h850.50
	" class="stroke"/>
<path d="m11.54 317.01
	h850.50
	M11.54 311.01
	h850.50
	M11.54 305.01
	h850.50
	M11.54 299.01
	h850.50
	M11.54 293.01
	h850.50
	" class="stroke"/>
<text x="47.54" y="220.41">2</text>
<path class="stroke"
	d="M43.54 209.01m0 20v-20h87.90v20"/>
<use x="23.54" y="253.01" xlink:href="#tclef"/>
<use x="56.04" y="232.01" xlink:href="#hd"/>
<path d="M52.54 232.01v40.00" class="stroke"/>
<use x="56.04" y="253.01" xlink:href="#hd"/>
<use x="56.04" y="247.01" xlink:href="#hd"/>
<use x="56.04" y="241.01" xlink:href="#hd"/>
<use x="108.44" y="247.01" xlink:href="#r8"/>
<use x="161.94" y="235.01" xlink:href="#hd"/>
<use x="152.94" y="235.01" xlink:href="#sh0"/>
<path d="M158.44 235.01v34.00" class="stroke"/>
<path class="fill"
	d="M158.44 269.01c0.6 -5.6 9.6 -9 5.6 -18.4
	1.6 6 -1.3 11.6 -5.6 12.8
"/>
<use x="161.94" y="250.01" xlink:href="#hd"/>
<use x="161.94" y="241.01" xlink:href="#hd"/>
<use x="194.34" y="235.01" xlink:href="#hd"/>
<path d="M190.84 235.01v21.00" class="stroke"/>
<path class="fill"
	d="M262.44 261.01l49.70 0.00v-3.20l-49.70 -0.00"/>
<path class="fill"
	d="M282.74 256.01l14.60 0.00v-3.20l-14.60 -0.00"/>
<use x="266.24" y="232.01" xlink:href="#hd"/>
<path d="M262.74 232.01v28.00" class="stroke"/>
<use x="286.24" y="229.01" xlink:href="#hl"/>
<use x="286.24" y="226.01" xlink:href="#hd"/>
<path d="M282.74 226.01v34.00" class="stroke"/>
<use x="300.84" y="229.01" xlink:href="#hl"/>
<use x="300.84" y="223.01" xlink:href="#hl"/>
<use x="300.84" y="220.01" xlink:href="#hd"/>
<path d="M297.34 220.01v40.00" class="stroke"/>
<use x="315.34" y="241.01" xlink:href="#hd"/>
<path d="M311.84 241.01v19.00" class="stroke"/>
<path class="fill"
	d="M340.14 268.51l64.00 -7.20v-3.20l-64.00 7.20"/>
<path class="fill"
	d="M360.54 261.21l43.30 -4.90v-3.20l-43.30 4.90"/>
<use x="344.04" y="238.01" xlink:href="#hd"/>
<path d="M340.54 238.01v29.50" class="stroke"/>
<use x="364.04" y="244.01" xlink:href="#hd"/>
<path d="M360.54 244.01v21.20" class="stroke"/>
<use x="378.44" y="238.01" xlink:href="#hd"/>
<path d="M374.94 238.01v25.60" class="stroke"/>
<use x="392.94" y="232.01" xlink:href="#hd"/>
<path d="M389.44 232.01v29.90" class="stroke"/>
<use x="407.34" y="229.01" xlink:href="#hl"/>
<use x="407.34" y="223.01" xlink:href="#hl"/>
<use x="407.34" y="223.01" xlink:href="#hd"/>
<path d="M403.84 223.01v37.30" class="stroke"/>
<path class="fill"
	d="M428.54 269.21l58.40 0.00v-3.20l-58.40 -0.00"/>
<path class="fill"
	d="M428.84 264.21l43.30 0.00v-3.20l-43.30 -0.00"/>
<use x="432.34" y="238.01" xlink:href="#hd"/>
<path d="M428.84 238.01v30.20" class="stroke"/>
<use x="446.74" y="244.01" xlink:href="#hd"/>
<path d="M443.24 244.01v24.20" class="stroke"/>
<use x="461.24" y="247.01" xlink:href="#hd"/>
<path d="M457.74 247.01v21.20" class="stroke"/>
<use x="475.64" y="241.01" xlink:href="#hd"/>
<path d="M472.14 241.01v27.20" class="stroke"/>
<use x="490.14" y="232.01" xlink:href="#hd"/>
<path d="M486.64 232.01v36.20" class="stroke"/>
<path class="fill"
	d="M514.94 276.51l72.90 -6.20v-3.20l-72.90 6.20"/>
<path class="fill"
	d="M515.24 271.41l72.20 -6.20v-3.20l-72.20 6.20"/>
<use x="518.74" y="244.01" xlink:href="#hd"/>
<path d="M515.24 244.01v31.40" class="stroke"/>
<use x="533.24" y="253.01" xlink:href="#hd"/>
<path d="M529.74 253.01v21.20" class="stroke"/>
<use x="547.64" y="238.01" xlink:href="#hd"/>
<path d="M544.14 238.01v35.00" class="stroke"/>
<use x="562.14" y="244.01" xlink:href="#hd"/>
<path d="M558.64 244.01v27.70" class="stroke"/>
<use x="576.54" y="232.01" xlink:href="#hd"/>
<path d="M573.04 232.01v38.50" class="stroke"/>
<use x="590.94" y="238.01" xlink:href="#hd"/>
<path d="M587.44 238.01v31.30" class="stroke"/>
<path class="fill"
	d="M612.14 257.41l64.00 8.90v-3.20l-64.00 -8.90"/>
<path class="fill"
	d="M632.54 255.21l43.30 6.00v-3.20l-43.30 -6.00"/>
<use x="615.94" y="232.01" xlink:href="#hd"/>
<path d="M612.44 232.01v24.40" class="stroke"/>
<use x="636.04" y="235.01" xlink:href="#hd"/>
<path d="M632.54 235.01v24.20" class="stroke"/>
<use x="650.44" y="238.01" xlink:href="#hd"/>
<path d="M646.94 238.01v23.20" class="stroke"/>
<use x="664.84" y="241.01" xlink:href="#hd"/>
<path d="M661.34 241.01v22.20" class="stroke"/>
<use x="679.34" y="244.01" xlink:href="#hd"/>
<path d="M675.84 244.01v21.20" class="stroke"/>
<path class="fill"
	d="M700.44 267.01l72.90 0.00v-3.20l-72.90 -0.00"/>
<path class="fill"
	d="M700.84 262.01l72.20 0.00v-3.20l-72.20 -0.00"/>
<use x="704.34" y="235.01" xlink:href="#hd"/>
<path d="M700.84 235.01v30.90" class="stroke"/>
<use x="718.74" y="238.01" xlink:href="#hd"/>
<path d="M715.24 238.01v27.90" class="stroke"/>
<use x="733.24" y="241.01" xlink:href="#hd"/>
<path d="M729.74 241.01v24.90" class="stroke"/>
<use x="747.64" y="244.01" xlink:href="#hd"/>
<path d="M744.14 244.01v21.90" class="stroke"/>
<use x="762.04" y="247.01" xlink:href="#hd"/>
<path d="M758.54 247.01v18.90" class="stroke"/>
<use x="776.54" y="241.01" xlink:href="#hd"/>
<path d="M773.04 241.01v24.90" class="stroke"/>
<use x="801.54" y="244.01" xlink:href="#hd"/>
<path d="M798.04 244.01v21.00" class="stroke"/>
<use x="841.54" y="247.01" xlink:href="#r8"/>
<use x="23.54" y="299.01" xlink:href="#bclef"/>
<path class="fill"
	d="M52.24 336.21l67.60 -4.90v-3.20l-67.60 4.90"/>
<path class="fill"
	d="M72.54 329.71l46.90 -3.40v-3.20l-46.90 3.40"/>
<use x="56.04" y="317.01" xlink:href="#hd"/>
<path d="M52.54 317.01v18.20" class="stroke"/>
<use x="76.04" y="290.01" xlink:href="#hd"/>
<path d="M72.54 290.01v43.70" class="stroke"/>
<use x="90.44" y="296.01" xlink:href="#hd"/>
<path d="M86.94 296.01v36.70" class="stroke"/>
<use x="108.44" y="299.01" xlink:href="#hd"/>
<use x="99.44" y="299.01" xlink:href="#sh0"/>
<path d="M104.94 299.01v32.40" class="stroke"/>
<use x="122.94" y="302.01" xlink:href="#hd"/>
<path d="M119.44 302.01v28.30" class="stroke"/>
<path class="fill"
	d="M165.14 284.11l80.00 -6.90v3.20l-80.00 6.90"/>
<path class="fill"
	d="M165.44 289.01l79.30 -6.80v3.20l-79.30 6.80"/>
<use x="161.94" y="323.01" xlink:href="#hl"/>
<use x="161.94" y="326.01" xlink:href="#hd"/>
<path d="M165.44 326.01v-41.00" class="stroke"/>
<use x="176.34" y="305.01" xlink:href="#hd"/>
<path d="M179.84 305.01v-21.20" class="stroke"/>
<use x="194.34" y="308.01" xlink:href="#hd"/>
<use x="185.34" y="308.01" xlink:href="#sh0"/>
<path d="M197.84 308.01v-25.70" class="stroke"/>
<use x="208.84" y="305.01" xlink:href="#hd"/>
<path d="M212.34 305.01v-24.00" class="stroke"/>
<use x="226.84" y="308.01" xlink:href="#hd"/>
<use x="217.84" y="308.01" xlink:href="#sh0"/>
<path d="M230.34 308.01v-28.50" class="stroke"/>
<use x="241.24" y="305.01" xlink:href="#hd"/>
<path d="M244.74 305.01v-26.80" class="stroke"/>
<use x="266.24" y="311.01" xlink:href="#hd"/>
<path d="M269.74 311.01v-21.00" class="stroke"/>
<use x="315.34" y="305.01" xlink:href="#r8"/>
<use x="344.04" y="296.01" xlink:href="#hd"/>
<path d="M340.54 296.01v31.00" class="stroke"/>
<use x="344.04" y="308.01" xlink:href="#hd"/>
<use x="392.94" y="302.01" xlink:href="#hd"/>
<path d="M389.44 302.01v25.00" class="stroke"/>
<path class="fill"
	d="M389.44 327.01c0.6 -5.6 9.6 -9 5.6 -18.4
	1.6 6 -1.3 11.6 -5.6 12.8
"/>
<use x="392.94" y="308.01" xlink:href="#hd"/>
<path class="fill"
	d="M435.54 276.71l29.60 8.80v3.20l-29.60 -8.80"/>
<use x="432.34" y="296.01" xlink:href="#hd"/>
<path d="M435.84 296.01v-18.20" class="stroke"/>
<use x="461.24" y="317.01" xlink:href="#hd"/>
<path d="M464.74 317.01v-30.60" class="stroke"/>
<use x="490.14" y="305.01" xlink:href="#r8"/>
<use x="518.74" y="302.01" xlink:href="#hd"/>
<path d="M515.24 302.01v25.00" class="stroke"/>
<use x="518.74" y="308.01" xlink:href="#hd"/>
<use x="576.54" y="305.01" xlink:href="#r8"/>
<use x="615.94" y="302.01" xlink:href="#hd"/>
<path d="M612.44 302.01v25.00" class="stroke"/>
<use x="615.94" y="308.01" xlink:href="#hd"/>
<use x="664.84" y="296.01" xlink:href="#hd"/>
<path d="M661.34 296.01v25.00" class="stroke"/>
<path class="fill"
	d="M661.34 321.01c0.6 -5.6 9.6 -9 5.6 -18.4
	1.6 6 -1.3 11.6 -5.6 12.8
"/>
<use x="664.84" y="302.01" xlink:href="#hd"/>
<use x="704.34" y="299.01" xlink:href="#hd"/>
<path d="M700.84 299.01v21.00" class="stroke"/>
<use x="762.04" y="296.01" xlink:href="#hd"/>
<path d="M758.54 296.01v21.00" class="stroke"/>
<path class="fill"
	d="M758.54 317.01c0.6 -5.6 9.6 -9 5.6 -18.4
	1.6 6 -1.3 11.6 -5.6 12.8
"/>
<path class="fill"
	d="M804.64 288.71l40.70 9.60v3.20l-40.70 -9.60"/>
<use x="801.54" y="308.01" xlink:href="#hd"/>
<path d="M805.04 308.01v-18.20" class="stroke"/>
<use x="821.54" y="317.01" xlink:href="#hd"/>
<path d="M825.04 317.01v-22.50" class="stroke"/>
<use x="841.54" y="323.01" xlink:href="#hl"/>
<use x="841.54" y="329.01" xlink:href="#hl"/>
<use x="841.54" y="329.01" xlink:href="#hd"/>
<path d="M845.04 329.01v-29.70" class="stroke"/>
<defs>
<text id="trl" font-family="serif" font-size="16" font-style="italic"
	x="-2" y="-4">tr</text>
</defs>
<use x="194.34" y="229.01" xlink:href="#trl"/>
</g>
</svg>
