<?xml version="1.0" standalone="no"?>
<!DOCTYPE svg PUBLIC "-//W3C//DTD SVG 1.1//EN"
	"http://www.w3.org/Graphics/SVG/1.1/DTD/svg11.dtd">
<svg xmlns="http://www.w3.org/2000/svg" version="1.1"
	xmlns:xlink="http://www.w3.org/1999/xlink"
	color="black"
	width="757.10px" height="300.73px">
<style type="text/css">
.fill {fill: currentColor}
.stroke {stroke: currentColor; fill: none}
text{white-space: pre}
</style>
<title>./K516f-6-8-8-7-10-11-5-5-9-6-9-5-7-2-5-9.abc (1050) tune 1</title>
<!-- Creator: abcm2ps-8.13.8 -->
<!-- CreationDate: Sep  7, 2017 11:17 -->
<!-- CommandLine: ./K516f-6-8-8-7-10-11-5-5-9-6-9-5-7-2-5-9.abc -O ./K516f-6-8-8-7-10-11-5-5-9-6-9-5-7-2-5-9.svg -g -->
<rect width="100%" height="100%" fill="white"/>
<g stroke-width="0.70" transform="scale(0.867)">
<!-- title: 6-8-8-7-10-11-5-5-9-6-9-5-7-2-5-9 -->
</g>
<g stroke-width="0.70" transform="scale(0.867)" font-family="Times" font-size="20.00">
<text x="436.84" y="22.00" text-anchor="middle">6-8-8-7-10-11-5-5-9-6-9-5-7-2-5-9</text>
</g>
<g stroke-width="0.70" transform="scale(0.867)" font-family="Times" font-size="20.00">
<!-- subtitle: $1K.516f::148:60:171:167:75:47:159:100:120:143:48:34:101:49:52:111::$0 -->
</g>
<g stroke-width="0.70" transform="scale(0.867)" font-family="Courier" font-size="8.00" font-weight="bold">
<text x="436.84" y="41.80" text-anchor="middle">K.516f::148:60:171:167:75:47:159:100:120:143:48:34:101:49:52:111::</text>
</g>
<g stroke-width="0.70" transform="scale(0.867)" font-family="Courier" font-size="8.00" font-weight="bold">
<!-- subtitle: $1Perm. No.: 105090013426931$0 -->
<text x="436.84" y="60.80" text-anchor="middle">Perm. No.: 105090013426931</text>
</g>
<g stroke-width="0.70" transform="scale(0.607)" font-family="Courier" font-size="8.00" font-weight="bold">
<defs>
<ellipse id="hd" rx="4.1" ry="2.9"
	transform="rotate(-20)" class="fill"/>
</defs>
<use x="103.06" y="121.29" xlink:href="#hd"/>
<path d="M106.56 121.29v-21.00" class="stroke"/>
<path class="fill"
	d="M106.56 100.29c0.6 5.6 9.6 9 5.6 18.4
	1.6 -6 -1.3 -11.6 -5.6 -12.8
"/>
</g>
<g stroke-width="0.70" transform="scale(0.867)" font-family="Times" font-size="15.00" font-weight="bold">
<text x="81.24" y="87.00">= 111</text>
<path class="stroke" stroke-width="1"
	d="M11.54 191.00v-82.00"/>
<path class="fill"
	d="M6.54 106.00
	c10.5 1 12 -4.5 12 -3.5c0 1 -3.5 5.5 -8.5 5.5
	v84.00
	c5 0 8.5 4.5 8.5 5.5c0 1 -1.5 -4.5 -12 -3.5"/>
<defs>
<g id="rdots" class="fill">
	<circle cx="0" cy="-9" r="1.2"/>
	<circle cx="0" cy="-15" r="1.2"/>
</g>
</defs>
<use x="70.54" y="133.00" xlink:href="#rdots"/>
<path class="stroke" stroke-width="1"
	d="M66.54 133.00v-24.00"/>
<path class="stroke" stroke-width="3"
	d="M62.04 133.00v-24.00"/>
<use x="70.54" y="191.00" xlink:href="#rdots"/>
<path class="stroke" stroke-width="1"
	d="M66.54 191.00v-58.00"/>
<path class="stroke" stroke-width="3"
	d="M62.04 191.00v-58.00"/>
<path class="stroke" stroke-width="1"
	d="M180.94 133.00v-24.00"/>
<path class="stroke" stroke-width="1"
	d="M180.94 191.00v-58.00"/>
<path class="stroke" stroke-width="1"
	d="M280.44 133.00v-24.00"/>
<path class="stroke" stroke-width="1"
	d="M280.44 191.00v-58.00"/>
<path class="stroke" stroke-width="1"
	d="M389.84 133.00v-24.00"/>
<path class="stroke" stroke-width="1"
	d="M389.84 191.00v-58.00"/>
<path class="stroke" stroke-width="1"
	d="M478.04 133.00v-24.00"/>
<path class="stroke" stroke-width="1"
	d="M478.04 191.00v-58.00"/>
<path class="stroke" stroke-width="1"
	d="M561.74 133.00v-24.00"/>
<path class="stroke" stroke-width="1"
	d="M561.74 191.00v-58.00"/>
<path class="stroke" stroke-width="1"
	d="M649.94 133.00v-24.00"/>
<path class="stroke" stroke-width="1"
	d="M649.94 191.00v-58.00"/>
<path class="stroke" stroke-width="1"
	d="M759.34 133.00v-24.00"/>
<path class="stroke" stroke-width="1"
	d="M759.34 191.00v-58.00"/>
<path class="stroke" stroke-width="3"
	d="M860.54 133.00v-24.00"/>
<path class="stroke" stroke-width="1"
	d="M856.04 133.00v-24.00"/>
<use x="852.04" y="133.00" xlink:href="#rdots"/>
<path class="stroke" stroke-width="3"
	d="M860.54 191.00v-58.00"/>
<path class="stroke" stroke-width="1"
	d="M856.04 191.00v-58.00"/>
<use x="852.04" y="191.00" xlink:href="#rdots"/>
<path d="m11.54 133.00
	h850.50
	M11.54 127.00
	h850.50
	M11.54 121.00
	h850.50
	M11.54 115.00
	h850.50
	M11.54 109.00
	h850.50
	" class="stroke"/>
<path d="m11.54 191.00
	h850.50
	M11.54 185.00
	h850.50
	M11.54 179.00
	h850.50
	M11.54 173.00
	h850.50
	M11.54 167.00
	h850.50
	" class="stroke"/>
</g>
<g stroke-width="0.70" transform="scale(0.867)" font-family="Times" font-size="13.00">
<text x="763.34" y="94.40">1</text>
<path class="stroke"
	d="M759.34 83.00m0 20v-20h94.70v20"/>
<defs>
<path id="utclef" class="fill" d="m-50 -90
	c-72 -41 -72 -158 52 -188
	150 -10 220 188 90 256
	-114 52 -275 0 -293 -136
	-15 -181 93 -229 220 -334
	88 -87 79 -133 62 -210
	-51 33 -94 105 -89 186
	17 267 36 374 49 574
	6 96 -19 134 -77 135
	-80 1 -126 -93 -61 -133
	85 -41 133 101 31 105
	23 17 92 37 90 -92
	-10 -223 -39 -342 -50 -617
	0 -90 0 -162 96 -232
	56 72 63 230 22 289
	-74 106 -257 168 -255 316
	9 153 148 185 252 133
	86 -65 29 -192 -80 -176
	-71 12 -105 67 -59 124"/>
<use id="tclef" transform="translate(0,6) scale(0.045)"
	xlink:href="#utclef"/>
</defs>
<use x="23.54" y="127.00" xlink:href="#tclef"/>
<g font-family="serif" font-size="16" font-weight="bold" font-style="normal"
	transform="translate(42.04,132.50) scale(1.2,1)">
	<text text-anchor="middle">8</text>
	<text y="-12" text-anchor="middle">3</text>
</g>
<path class="fill"
	d="M80.84 130.60l83.90 9.60v-3.20l-83.90 -9.60"/>
<path class="fill"
	d="M81.24 125.70l83.20 9.50v-3.20l-83.20 -9.50"/>
<defs>
<path id="hl" class="stroke" d="m-6 0h12"/>
</defs>
<use x="84.74" y="103.00" xlink:href="#hl"/>
<use x="84.74" y="97.00" xlink:href="#hl"/>
<use x="84.74" y="97.00" xlink:href="#hd"/>
<path d="M81.24 97.00v32.70" class="stroke"/>
<use x="101.34" y="103.00" xlink:href="#hl"/>
<use x="101.34" y="100.00" xlink:href="#hd"/>
<path d="M97.84 100.00v31.60" class="stroke"/>
<use x="118.04" y="103.00" xlink:href="#hl"/>
<use x="118.04" y="97.00" xlink:href="#hl"/>
<use x="118.04" y="97.00" xlink:href="#hd"/>
<path d="M114.54 97.00v36.50" class="stroke"/>
<use x="134.64" y="106.00" xlink:href="#hd"/>
<path d="M131.14 106.00v29.40" class="stroke"/>
<use x="151.24" y="112.00" xlink:href="#hd"/>
<path d="M147.74 112.00v25.30" class="stroke"/>
<use x="167.94" y="118.00" xlink:href="#hd"/>
<path d="M164.44 118.00v21.20" class="stroke"/>
<path class="fill"
	d="M190.24 131.00l74.00 9.20v-3.20l-74.00 -9.20"/>
<path class="fill"
	d="M214.04 129.00l49.90 6.20v-3.20l-49.90 -6.20"/>
<use x="194.14" y="106.00" xlink:href="#hd"/>
<path d="M190.64 106.00v24.10" class="stroke"/>
<use x="217.54" y="109.00" xlink:href="#hd"/>
<path d="M214.04 109.00v24.00" class="stroke"/>
<use x="234.24" y="112.00" xlink:href="#hd"/>
<path d="M230.74 112.00v23.10" class="stroke"/>
<use x="250.84" y="115.00" xlink:href="#hd"/>
<path d="M247.34 115.00v22.10" class="stroke"/>
<use x="267.44" y="118.00" xlink:href="#hd"/>
<path d="M263.94 118.00v21.20" class="stroke"/>
<path class="fill"
	d="M289.84 140.90l83.80 0.00v-3.20l-83.80 -0.00"/>
<path class="fill"
	d="M290.14 135.90l83.10 0.00v-3.20l-83.10 -0.00"/>
<use x="293.64" y="121.00" xlink:href="#hd"/>
<path d="M290.14 121.00v18.90" class="stroke"/>
<use x="310.24" y="118.00" xlink:href="#hd"/>
<path d="M306.74 118.00v21.90" class="stroke"/>
<use x="326.94" y="115.00" xlink:href="#hd"/>
<path d="M323.44 115.00v24.90" class="stroke"/>
<use x="343.54" y="112.00" xlink:href="#hd"/>
<path d="M340.04 112.00v27.90" class="stroke"/>
<use x="360.14" y="109.00" xlink:href="#hd"/>
<path d="M356.64 109.00v30.90" class="stroke"/>
<use x="376.74" y="115.00" xlink:href="#hd"/>
<path d="M373.24 115.00v24.90" class="stroke"/>
<path class="fill"
	d="M399.14 140.90l57.40 0.00v-3.20l-57.40 -0.00"/>
<path class="fill"
	d="M422.94 135.90l16.60 0.00v-3.20l-16.60 -0.00"/>
<use x="403.04" y="118.00" xlink:href="#hd"/>
<path d="M399.54 118.00v21.90" class="stroke"/>
<use x="426.44" y="118.00" xlink:href="#hd"/>
<path d="M422.94 118.00v21.90" class="stroke"/>
<use x="443.04" y="115.00" xlink:href="#hd"/>
<path d="M439.54 115.00v24.90" class="stroke"/>
<use x="459.64" y="112.00" xlink:href="#hd"/>
<path d="M456.14 112.00v27.90" class="stroke"/>
<path class="fill"
	d="M492.74 133.20l47.60 0.00v-3.20l-47.60 -0.00"/>
<use x="496.54" y="109.00" xlink:href="#hd"/>
<defs>
<path id="usharp" class="fill" d="
	m136 -702
	v890
	h32
	v-890
	m128 840
	h32
	v-888
	h-32
	m-232 286
	v116
	l338 -96
	v-116
	m-338 442
	v116
	l338 -98
	v-114"/>
<use id="sh0" transform="translate(-4,5) scale(0.018)"
	xlink:href="#usharp"/>
</defs>
<use x="487.54" y="109.00" xlink:href="#sh0"/>
<path d="M493.04 109.00v23.20" class="stroke"/>
<use x="496.54" y="115.00" xlink:href="#hd"/>
<use x="519.94" y="109.00" xlink:href="#hd"/>
<path d="M516.44 109.00v23.20" class="stroke"/>
<use x="519.94" y="115.00" xlink:href="#hd"/>
<use x="543.44" y="109.00" xlink:href="#hd"/>
<path d="M539.94 109.00v23.20" class="stroke"/>
<use x="543.44" y="115.00" xlink:href="#hd"/>
<path class="fill"
	d="M571.14 134.90l57.40 0.00v-3.20l-57.40 -0.00"/>
<path class="fill"
	d="M594.84 129.90l16.60 0.00v-3.20l-16.60 -0.00"/>
<use x="574.94" y="106.00" xlink:href="#hd"/>
<path d="M571.44 106.00v28.00" class="stroke"/>
<use x="598.34" y="106.00" xlink:href="#hd"/>
<path d="M594.84 106.00v28.00" class="stroke"/>
<use x="615.04" y="115.00" xlink:href="#hd"/>
<path d="M611.54 115.00v19.00" class="stroke"/>
<use x="631.64" y="103.00" xlink:href="#hl"/>
<use x="631.64" y="100.00" xlink:href="#hd"/>
<path d="M628.14 100.00v34.00" class="stroke"/>
<path class="fill"
	d="M659.34 138.60l83.80 7.60v-3.20l-83.80 -7.60"/>
<path class="fill"
	d="M659.64 133.60l83.10 7.60v-3.20l-83.10 -7.60"/>
<use x="663.14" y="112.00" xlink:href="#hd"/>
<path d="M659.64 112.00v25.60" class="stroke"/>
<use x="679.74" y="106.00" xlink:href="#hd"/>
<path d="M676.24 106.00v33.10" class="stroke"/>
<use x="696.44" y="115.00" xlink:href="#hd"/>
<path d="M692.94 115.00v25.70" class="stroke"/>
<use x="713.04" y="118.00" xlink:href="#hd"/>
<path d="M709.54 118.00v24.20" class="stroke"/>
<use x="729.64" y="121.00" xlink:href="#hd"/>
<path d="M726.14 121.00v22.70" class="stroke"/>
<use x="746.24" y="124.00" xlink:href="#hd"/>
<path d="M742.74 124.00v21.20" class="stroke"/>
<use x="772.54" y="106.00" xlink:href="#hd"/>
<path d="M769.04 106.00v40.00" class="stroke"/>
<use x="772.54" y="127.00" xlink:href="#hd"/>
<use x="772.54" y="121.00" xlink:href="#hd"/>
<use x="772.54" y="115.00" xlink:href="#hd"/>
<defs>
<path id="r8e" class="fill" d="m 0 0
	c-1.5 1.5 -2.4 2 -3.6 2
	2.4 -2.8 -2.8 -4 -2.8 -1.2
	c0 2.7 4.3 2.4 5.9 0.6"/>
<g id="r8">
	<path d="m3.3 -4l-3.4 9.6" class="stroke"/>
	<use x="3.4" y="-4" xlink:href="#r8e"/>
</g>
</defs>
<use x="830.54" y="121.00" xlink:href="#r8"/>
<defs>
<path id="ubclef" class="fill" d="m-200 -87
	c124 -35 222 -78 254 -236
	43 -228 -167 -246 -192 -103
	59 -80 157 22 92 78
	-62 47 -115 -22 -106 -88
	21 -141 270 -136 274 52
	-1 175 -106 264 -322 297
	m357 -250
	c0 -36 51 -34 51 0
	0 37 -51 36 -51 0
	m-2 -129
	c0 -36 51 -34 51 0
	0 38 -51 37 -51 0"/>
<use id="bclef" transform="translate(0,18) scale(0.045)"
	xlink:href="#ubclef"/>
</defs>
<use x="23.54" y="173.00" xlink:href="#bclef"/>
<g font-family="serif" font-size="16" font-weight="bold" font-style="normal"
	transform="translate(42.04,190.50) scale(1.2,1)">
	<text text-anchor="middle">8</text>
	<text y="-12" text-anchor="middle">3</text>
</g>
<use x="84.74" y="176.00" xlink:href="#hd"/>
<path d="M81.24 176.00v25.00" class="stroke"/>
<use x="84.74" y="182.00" xlink:href="#hd"/>
<use x="151.24" y="179.00" xlink:href="#r8"/>
<use x="194.14" y="176.00" xlink:href="#hd"/>
<path d="M190.64 176.00v25.00" class="stroke"/>
<use x="194.14" y="182.00" xlink:href="#hd"/>
<use x="250.84" y="179.00" xlink:href="#r8"/>
<use x="293.64" y="191.00" xlink:href="#hd"/>
<path d="M297.14 191.00v-40.00" class="stroke"/>
<use x="293.64" y="170.00" xlink:href="#hd"/>
<use x="360.14" y="170.00" xlink:href="#hd"/>
<path d="M356.64 170.00v34.00" class="stroke"/>
<path class="fill"
	d="M356.64 204.00c0.6 -5.6 9.6 -9 5.6 -18.4
	1.6 6 -1.3 11.6 -5.6 12.8
"/>
<use x="360.14" y="185.00" xlink:href="#hd"/>
<use x="403.04" y="176.00" xlink:href="#hd"/>
<path d="M399.54 176.00v25.00" class="stroke"/>
<use x="403.04" y="182.00" xlink:href="#hd"/>
<use x="459.64" y="179.00" xlink:href="#r8"/>
<path class="fill"
	d="M499.74 161.00l47.60 0.00v3.20l-47.60 -0.00"/>
<use x="496.54" y="182.00" xlink:href="#hd"/>
<path d="M500.04 182.00v-20.00" class="stroke"/>
<use x="519.94" y="182.00" xlink:href="#hd"/>
<path d="M523.44 182.00v-20.00" class="stroke"/>
<use x="543.44" y="182.00" xlink:href="#hd"/>
<path d="M546.94 182.00v-20.00" class="stroke"/>
<use x="574.94" y="185.00" xlink:href="#hd"/>
<path d="M578.44 185.00v-25.00" class="stroke"/>
<use x="574.94" y="179.00" xlink:href="#hd"/>
<use x="631.64" y="179.00" xlink:href="#r8"/>
<path class="fill"
	d="M666.34 155.70l67.20 8.20v3.20l-67.20 -8.20"/>
<use x="663.14" y="182.00" xlink:href="#hd"/>
<path d="M666.64 182.00v-25.30" class="stroke"/>
<use x="696.44" y="179.00" xlink:href="#hd"/>
<path d="M699.94 179.00v-18.20" class="stroke"/>
<use x="729.64" y="197.00" xlink:href="#hl"/>
<use x="729.64" y="200.00" xlink:href="#hd"/>
<path d="M733.14 200.00v-35.10" class="stroke"/>
<path class="fill"
	d="M768.64 210.20l75.40 0.00v-3.20l-75.40 -0.00"/>
<path class="fill"
	d="M792.44 205.20l51.20 0.00v-3.20l-51.20 -0.00"/>
<use x="772.54" y="191.00" xlink:href="#hd"/>
<path d="M769.04 191.00v18.20" class="stroke"/>
<use x="795.94" y="170.00" xlink:href="#hd"/>
<path d="M792.44 170.00v39.20" class="stroke"/>
<use x="813.94" y="173.00" xlink:href="#hd"/>
<defs>
<path id="unat" class="fill" d="
	m96 -750
	h-32
	v716
	l32 -8
	182 -54
	v282
	h32
	v-706
	l-34 10
	-180 50
	v-290
	m0 592
	v-190
	l182 -52
	v188"/>
<use id="nt0" transform="translate(-3,5) scale(0.018)"
	xlink:href="#unat"/>
</defs>
<use x="804.94" y="173.00" xlink:href="#nt0"/>
<path d="M810.44 173.00v36.20" class="stroke"/>
<use x="830.54" y="176.00" xlink:href="#hd"/>
<path d="M827.04 176.00v33.20" class="stroke"/>
<use x="847.14" y="179.00" xlink:href="#hd"/>
<path d="M843.64 179.00v30.20" class="stroke"/>
</g>
<g stroke-width="0.70" transform="scale(0.867)" font-family="Times" font-size="13.00">
<path class="stroke" stroke-width="1"
	d="M11.54 324.00v-82.00"/>
<path class="fill"
	d="M6.54 239.00
	c10.5 1 12 -4.5 12 -3.5c0 1 -3.5 5.5 -8.5 5.5
	v84.00
	c5 0 8.5 4.5 8.5 5.5c0 1 -1.5 -4.5 -12 -3.5"/>
<use x="142.34" y="266.00" xlink:href="#rdots"/>
<path class="stroke" stroke-width="1"
	d="M138.34 266.00v-24.00"/>
<path class="stroke" stroke-width="3"
	d="M133.84 266.00v-24.00"/>
<use x="142.34" y="324.00" xlink:href="#rdots"/>
<path class="stroke" stroke-width="1"
	d="M138.34 324.00v-58.00"/>
<path class="stroke" stroke-width="3"
	d="M133.84 324.00v-58.00"/>
<path class="stroke" stroke-width="1"
	d="M241.34 266.00v-24.00"/>
<path class="stroke" stroke-width="1"
	d="M241.34 324.00v-58.00"/>
<path class="stroke" stroke-width="1"
	d="M319.64 266.00v-24.00"/>
<path class="stroke" stroke-width="1"
	d="M319.64 324.00v-58.00"/>
<path class="stroke" stroke-width="1"
	d="M407.84 266.00v-24.00"/>
<path class="stroke" stroke-width="1"
	d="M407.84 324.00v-58.00"/>
<path class="stroke" stroke-width="1"
	d="M494.24 266.00v-24.00"/>
<path class="stroke" stroke-width="1"
	d="M494.24 324.00v-58.00"/>
<path class="stroke" stroke-width="1"
	d="M591.34 266.00v-24.00"/>
<path class="stroke" stroke-width="1"
	d="M591.34 324.00v-58.00"/>
<path class="stroke" stroke-width="1"
	d="M688.44 266.00v-24.00"/>
<path class="stroke" stroke-width="1"
	d="M688.44 324.00v-58.00"/>
<path class="stroke" stroke-width="1"
	d="M789.14 266.00v-24.00"/>
<path class="stroke" stroke-width="1"
	d="M789.14 324.00v-58.00"/>
<path class="stroke" stroke-width="3"
	d="M860.54 266.00v-24.00"/>
<path class="stroke" stroke-width="1"
	d="M856.04 266.00v-24.00"/>
<use x="852.04" y="266.00" xlink:href="#rdots"/>
<path class="stroke" stroke-width="3"
	d="M860.54 324.00v-58.00"/>
<path class="stroke" stroke-width="1"
	d="M856.04 324.00v-58.00"/>
<use x="852.04" y="324.00" xlink:href="#rdots"/>
<path d="m11.54 266.00
	h850.50
	M11.54 260.00
	h850.50
	M11.54 254.00
	h850.50
	M11.54 248.00
	h850.50
	M11.54 242.00
	h850.50
	" class="stroke"/>
<path d="m11.54 324.00
	h850.50
	M11.54 318.00
	h850.50
	M11.54 312.00
	h850.50
	M11.54 306.00
	h850.50
	M11.54 300.00
	h850.50
	" class="stroke"/>
<path class="fill"
	d="M607.84 241.40c8.13 -3.17 45.56 2.13 53.69 7.60
	v-0.25c-9.74 -7.22 -43.95 -12.52 -53.69 -7.35"/>
<path class="fill"
	d="M700.94 242.00c2.76 -3.95 14.74 -4.43 17.50 -0.70
	v-0.22c-3.28 -5.51 -14.22 -5.03 -17.50 0.92"/>
<text x="47.54" y="227.40">2</text>
<path class="stroke"
	d="M43.54 216.00m0 20v-20h87.80v20"/>
<use x="23.54" y="260.00" xlink:href="#tclef"/>
<use x="56.04" y="239.00" xlink:href="#hd"/>
<path d="M52.54 239.00v40.00" class="stroke"/>
<use x="56.04" y="260.00" xlink:href="#hd"/>
<use x="56.04" y="254.00" xlink:href="#hd"/>
<use x="56.04" y="248.00" xlink:href="#hd"/>
<use x="108.44" y="254.00" xlink:href="#r8"/>
<path class="fill"
	d="M158.04 268.70l67.70 10.60v-3.20l-67.70 -10.60"/>
<path class="fill"
	d="M178.44 266.90l46.80 7.30v-3.20l-46.80 -7.30"/>
<use x="161.84" y="236.00" xlink:href="#hl"/>
<use x="161.84" y="230.00" xlink:href="#hl"/>
<use x="161.84" y="227.00" xlink:href="#hd"/>
<path d="M158.34 227.00v40.70" class="stroke"/>
<use x="181.94" y="236.00" xlink:href="#hl"/>
<use x="181.94" y="236.00" xlink:href="#hd"/>
<path d="M178.44 236.00v34.90" class="stroke"/>
<use x="199.94" y="242.00" xlink:href="#hd"/>
<use x="190.94" y="242.00" xlink:href="#sh0"/>
<path d="M196.44 242.00v31.70" class="stroke"/>
<use x="214.44" y="248.00" xlink:href="#hd"/>
<path d="M210.94 248.00v27.90" class="stroke"/>
<use x="228.84" y="257.00" xlink:href="#hd"/>
<path d="M225.34 257.00v21.20" class="stroke"/>
<path class="fill"
	d="M249.94 270.80l49.50 8.50v-3.20l-49.50 -8.50"/>
<path class="fill"
	d="M270.24 269.30l14.40 2.50v-3.20l-14.40 -2.50"/>
<use x="253.84" y="239.00" xlink:href="#hd"/>
<path d="M250.34 239.00v30.80" class="stroke"/>
<use x="273.74" y="248.00" xlink:href="#hd"/>
<path d="M270.24 248.00v25.30" class="stroke"/>
<use x="288.24" y="254.00" xlink:href="#hd"/>
<path d="M284.74 254.00v21.70" class="stroke"/>
<use x="302.64" y="260.00" xlink:href="#hd"/>
<path d="M299.14 260.00v18.20" class="stroke"/>
<path class="fill"
	d="M328.24 275.50l63.90 -7.20v-3.20l-63.90 7.20"/>
<path class="fill"
	d="M348.54 268.20l43.30 -4.90v-3.20l-43.30 4.90"/>
<use x="332.14" y="245.00" xlink:href="#hd"/>
<path d="M328.64 245.00v29.50" class="stroke"/>
<use x="352.04" y="251.00" xlink:href="#hd"/>
<path d="M348.54 251.00v21.20" class="stroke"/>
<use x="366.54" y="245.00" xlink:href="#hd"/>
<path d="M363.04 245.00v25.60" class="stroke"/>
<use x="380.94" y="239.00" xlink:href="#hd"/>
<path d="M377.44 239.00v29.90" class="stroke"/>
<use x="395.34" y="236.00" xlink:href="#hl"/>
<use x="395.34" y="230.00" xlink:href="#hl"/>
<use x="395.34" y="230.00" xlink:href="#hd"/>
<path d="M391.84 230.00v37.30" class="stroke"/>
<path class="fill"
	d="M416.54 272.90l58.40 6.30v-3.20l-58.40 -6.30"/>
<path class="fill"
	d="M416.84 268.00l43.30 4.70v-3.20l-43.30 -4.70"/>
<use x="420.34" y="245.00" xlink:href="#hd"/>
<path d="M416.84 245.00v27.00" class="stroke"/>
<use x="434.74" y="251.00" xlink:href="#hd"/>
<path d="M431.24 251.00v22.50" class="stroke"/>
<use x="449.14" y="248.00" xlink:href="#hd"/>
<path d="M445.64 248.00v27.10" class="stroke"/>
<use x="463.64" y="254.00" xlink:href="#hd"/>
<path d="M460.14 254.00v22.60" class="stroke"/>
<use x="478.04" y="260.00" xlink:href="#hd"/>
<path d="M474.54 260.00v18.20" class="stroke"/>
<path class="fill"
	d="M502.84 271.50l72.80 -6.20v-3.20l-72.80 6.20"/>
<path class="fill"
	d="M503.24 266.40l72.10 -6.20v-3.20l-72.10 6.20"/>
<use x="506.74" y="245.00" xlink:href="#hd"/>
<path d="M503.24 245.00v25.40" class="stroke"/>
<use x="521.14" y="248.00" xlink:href="#hd"/>
<path d="M517.64 248.00v21.20" class="stroke"/>
<use x="535.54" y="245.00" xlink:href="#hd"/>
<path d="M532.04 245.00v23.00" class="stroke"/>
<use x="549.94" y="239.00" xlink:href="#hd"/>
<path d="M546.44 239.00v27.70" class="stroke"/>
<use x="564.44" y="236.00" xlink:href="#hl"/>
<use x="564.44" y="230.00" xlink:href="#hl"/>
<use x="564.44" y="230.00" xlink:href="#hd"/>
<path d="M560.94 230.00v35.50" class="stroke"/>
<use x="578.84" y="239.00" xlink:href="#hd"/>
<path d="M575.34 239.00v25.30" class="stroke"/>
<path class="fill"
	d="M599.94 272.30l58.40 6.90v-3.20l-58.40 -6.90"/>
<use x="603.84" y="245.00" xlink:href="#hd"/>
<path d="M600.34 245.00v26.30" class="stroke"/>
<use x="632.64" y="251.00" xlink:href="#hd"/>
<path d="M629.14 251.00v23.80" class="stroke"/>
<use x="661.54" y="260.00" xlink:href="#hd"/>
<path d="M658.04 260.00v18.20" class="stroke"/>
<path class="fill"
	d="M697.14 282.20l76.40 0.00v-3.20l-76.40 -0.00"/>
<path class="fill"
	d="M697.44 277.20l75.70 0.00v-3.20l-75.70 -0.00"/>
<use x="700.94" y="248.00" xlink:href="#hd"/>
<path d="M697.44 248.00v33.20" class="stroke"/>
<use x="718.94" y="251.00" xlink:href="#hd"/>
<use x="709.94" y="251.00" xlink:href="#sh0"/>
<path d="M715.44 251.00v30.20" class="stroke"/>
<use x="733.34" y="248.00" xlink:href="#hd"/>
<path d="M729.84 248.00v33.20" class="stroke"/>
<use x="747.74" y="242.00" xlink:href="#hd"/>
<path d="M744.24 242.00v39.20" class="stroke"/>
<use x="762.24" y="260.00" xlink:href="#hd"/>
<path d="M758.74 260.00v21.20" class="stroke"/>
<use x="776.64" y="254.00" xlink:href="#hd"/>
<path d="M773.14 254.00v27.20" class="stroke"/>
<use x="801.64" y="251.00" xlink:href="#hd"/>
<path d="M798.14 251.00v21.00" class="stroke"/>
<use x="841.54" y="254.00" xlink:href="#r8"/>
<use x="23.54" y="306.00" xlink:href="#bclef"/>
<path class="fill"
	d="M52.24 343.20l67.50 -4.90v-3.20l-67.50 4.90"/>
<path class="fill"
	d="M72.54 336.70l46.80 -3.40v-3.20l-46.80 3.40"/>
<use x="56.04" y="324.00" xlink:href="#hd"/>
<path d="M52.54 324.00v18.20" class="stroke"/>
<use x="76.04" y="297.00" xlink:href="#hd"/>
<path d="M72.54 297.00v43.70" class="stroke"/>
<use x="90.44" y="303.00" xlink:href="#hd"/>
<path d="M86.94 303.00v36.70" class="stroke"/>
<use x="108.44" y="306.00" xlink:href="#hd"/>
<use x="99.44" y="306.00" xlink:href="#sh0"/>
<path d="M104.94 306.00v32.40" class="stroke"/>
<use x="122.84" y="309.00" xlink:href="#hd"/>
<path d="M119.34 309.00v28.30" class="stroke"/>
<use x="161.84" y="306.00" xlink:href="#hd"/>
<use x="152.84" y="306.00" xlink:href="#sh0"/>
<path d="M158.34 306.00v25.00" class="stroke"/>
<use x="161.84" y="312.00" xlink:href="#hd"/>
<use x="214.44" y="306.00" xlink:href="#hd"/>
<path d="M210.94 306.00v28.00" class="stroke"/>
<path class="fill"
	d="M210.94 334.00c0.6 -5.6 9.6 -9 5.6 -18.4
	1.6 6 -1.3 11.6 -5.6 12.8
"/>
<use x="214.44" y="315.00" xlink:href="#hd"/>
<use x="253.84" y="318.00" xlink:href="#hd"/>
<path d="M257.34 318.00v-25.00" class="stroke"/>
<use x="253.84" y="312.00" xlink:href="#hd"/>
<use x="302.64" y="318.00" xlink:href="#hd"/>
<path d="M306.14 318.00v-25.00" class="stroke"/>
<path class="fill"
	d="M306.14 293.00c0.6 5.6 9.6 9 5.6 18.4
	1.6 -6 -1.3 -11.6 -5.6 -12.8
"/>
<use x="302.64" y="312.00" xlink:href="#hd"/>
<use x="332.14" y="303.00" xlink:href="#hd"/>
<path d="M328.64 303.00v31.00" class="stroke"/>
<use x="332.14" y="315.00" xlink:href="#hd"/>
<use x="380.94" y="309.00" xlink:href="#hd"/>
<path d="M377.44 309.00v25.00" class="stroke"/>
<path class="fill"
	d="M377.44 334.00c0.6 -5.6 9.6 -9 5.6 -18.4
	1.6 6 -1.3 11.6 -5.6 12.8
"/>
<use x="380.94" y="315.00" xlink:href="#hd"/>
<use x="420.34" y="303.00" xlink:href="#hd"/>
<path d="M416.84 303.00v21.00" class="stroke"/>
<use x="478.04" y="312.00" xlink:href="#r8"/>
<use x="506.74" y="303.00" xlink:href="#hd"/>
<path d="M510.24 303.00v-21.00" class="stroke"/>
<use x="564.44" y="309.00" xlink:href="#hd"/>
<path d="M567.94 309.00v-21.00" class="stroke"/>
<path class="fill"
	d="M567.94 288.00c0.6 5.6 9.6 9 5.6 18.4
	1.6 -6 -1.3 -11.6 -5.6 -12.8
"/>
<path class="fill"
	d="M599.94 331.90l72.80 0.00v-3.20l-72.80 -0.00"/>
<path class="fill"
	d="M600.34 326.90l72.10 0.00v-3.20l-72.10 -0.00"/>
<use x="603.84" y="309.00" xlink:href="#hd"/>
<path d="M600.34 309.00v21.90" class="stroke"/>
<use x="603.84" y="315.00" xlink:href="#hd"/>
<use x="618.24" y="303.00" xlink:href="#hd"/>
<path d="M614.74 303.00v27.90" class="stroke"/>
<use x="632.64" y="309.00" xlink:href="#hd"/>
<path d="M629.14 309.00v21.90" class="stroke"/>
<use x="632.64" y="315.00" xlink:href="#hd"/>
<use x="647.14" y="303.00" xlink:href="#hd"/>
<path d="M643.64 303.00v27.90" class="stroke"/>
<use x="661.54" y="309.00" xlink:href="#hd"/>
<path d="M658.04 309.00v21.90" class="stroke"/>
<use x="661.54" y="315.00" xlink:href="#hd"/>
<use x="675.94" y="303.00" xlink:href="#hd"/>
<path d="M672.44 303.00v27.90" class="stroke"/>
<use x="700.94" y="306.00" xlink:href="#hd"/>
<path d="M697.44 306.00v21.00" class="stroke"/>
<use x="762.24" y="303.00" xlink:href="#hd"/>
<path d="M758.74 303.00v21.00" class="stroke"/>
<path class="fill"
	d="M758.74 324.00c0.6 -5.6 9.6 -9 5.6 -18.4
	1.6 6 -1.3 11.6 -5.6 12.8
"/>
<path class="fill"
	d="M804.74 295.70l40.60 9.60v3.20l-40.60 -9.60"/>
<use x="801.64" y="315.00" xlink:href="#hd"/>
<path d="M805.14 315.00v-18.20" class="stroke"/>
<use x="821.54" y="324.00" xlink:href="#hd"/>
<path d="M825.04 324.00v-22.50" class="stroke"/>
<use x="841.54" y="330.00" xlink:href="#hl"/>
<use x="841.54" y="336.00" xlink:href="#hl"/>
<use x="841.54" y="336.00" xlink:href="#hd"/>
<path d="M845.04 336.00v-29.70" class="stroke"/>
<use x="506.74" y="315.00" xlink:href="#hd"/>
<path d="M503.24 315.00v21.00" class="stroke"/>
<use x="564.44" y="315.00" xlink:href="#hd"/>
<path d="M560.94 315.00v21.00" class="stroke"/>
<path class="fill"
	d="M560.94 336.00c0.6 -5.6 9.6 -9 5.6 -18.4
	1.6 6 -1.3 11.6 -5.6 12.8
"/>
</g>
</svg>
