<?xml version="1.0" standalone="no"?>
<!DOCTYPE svg PUBLIC "-//W3C//DTD SVG 1.1//EN"
	"http://www.w3.org/Graphics/SVG/1.1/DTD/svg11.dtd">
<svg xmlns="http://www.w3.org/2000/svg" version="1.1"
	xmlns:xlink="http://www.w3.org/1999/xlink"
	color="black"
	width="757.10px" height="293.80px">
<style type="text/css">
.fill {fill: currentColor}
.stroke {stroke: currentColor; fill: none}
text{white-space: pre}
</style>
<title>./K516f-2-6-9-12-11-3-5-3-2-9-3-5-8-8-2-2.abc (2062) tune 1</title>
<!-- Creator: abcm2ps-8.13.8 -->
<!-- CreationDate: Sep  7, 2017 11:19 -->
<!-- CommandLine: ./K516f-2-6-9-12-11-3-5-3-2-9-3-5-8-8-2-2.abc -O ./K516f-2-6-9-12-11-3-5-3-2-9-3-5-8-8-2-2.svg -g -->
<rect width="100%" height="100%" fill="white"/>
<g stroke-width="0.70" transform="scale(0.867)">
<!-- title: 2-6-9-12-11-3-5-3-2-9-3-5-8-8-2-2 -->
</g>
<g stroke-width="0.70" transform="scale(0.867)" font-family="Times" font-size="20.00">
<text x="436.84" y="22.00" text-anchor="middle">2-6-9-12-11-3-5-3-2-9-3-5-8-8-2-2</text>
</g>
<g stroke-width="0.70" transform="scale(0.867)" font-family="Times" font-size="20.00">
<!-- subtitle: $1K.516f::96:74:114:103:135:46:159:81:70:88:126:34:43:168:109:14::$0 -->
</g>
<g stroke-width="0.70" transform="scale(0.867)" font-family="Courier" font-size="8.00" font-weight="bold">
<text x="436.84" y="41.80" text-anchor="middle">K.516f::96:74:114:103:135:46:159:81:70:88:126:34:43:168:109:14::</text>
</g>
<g stroke-width="0.70" transform="scale(0.867)" font-family="Courier" font-size="8.00" font-weight="bold">
<!-- subtitle: $1Perm. No.: 20624116639358$0 -->
<text x="436.84" y="60.80" text-anchor="middle">Perm. No.: 20624116639358</text>
</g>
<g stroke-width="0.70" transform="scale(0.607)" font-family="Courier" font-size="8.00" font-weight="bold">
<defs>
<ellipse id="hd" rx="4.1" ry="2.9"
	transform="rotate(-20)" class="fill"/>
</defs>
<use x="103.06" y="121.29" xlink:href="#hd"/>
<path d="M106.56 121.29v-21.00" class="stroke"/>
<path class="fill"
	d="M106.56 100.29c0.6 5.6 9.6 9 5.6 18.4
	1.6 -6 -1.3 -11.6 -5.6 -12.8
"/>
</g>
<g stroke-width="0.70" transform="scale(0.867)" font-family="Times" font-size="15.00" font-weight="bold">
<text x="81.24" y="87.00">= 111</text>
<path class="stroke" stroke-width="1"
	d="M11.54 183.00v-82.00"/>
<path class="fill"
	d="M6.54 98.00
	c10.5 1 12 -4.5 12 -3.5c0 1 -3.5 5.5 -8.5 5.5
	v84.00
	c5 0 8.5 4.5 8.5 5.5c0 1 -1.5 -4.5 -12 -3.5"/>
<defs>
<g id="rdots" class="fill">
	<circle cx="0" cy="-9" r="1.2"/>
	<circle cx="0" cy="-15" r="1.2"/>
</g>
</defs>
<use x="70.54" y="125.00" xlink:href="#rdots"/>
<path class="stroke" stroke-width="1"
	d="M66.54 125.00v-24.00"/>
<path class="stroke" stroke-width="3"
	d="M62.04 125.00v-24.00"/>
<use x="70.54" y="183.00" xlink:href="#rdots"/>
<path class="stroke" stroke-width="1"
	d="M66.54 183.00v-58.00"/>
<path class="stroke" stroke-width="3"
	d="M62.04 183.00v-58.00"/>
<path class="stroke" stroke-width="1"
	d="M151.54 125.00v-24.00"/>
<path class="stroke" stroke-width="1"
	d="M151.54 183.00v-58.00"/>
<path class="stroke" stroke-width="1"
	d="M263.24 125.00v-24.00"/>
<path class="stroke" stroke-width="1"
	d="M263.24 183.00v-58.00"/>
<path class="stroke" stroke-width="1"
	d="M343.24 125.00v-24.00"/>
<path class="stroke" stroke-width="1"
	d="M343.24 183.00v-58.00"/>
<path class="stroke" stroke-width="1"
	d="M443.24 125.00v-24.00"/>
<path class="stroke" stroke-width="1"
	d="M443.24 183.00v-58.00"/>
<path class="stroke" stroke-width="1"
	d="M544.44 125.00v-24.00"/>
<path class="stroke" stroke-width="1"
	d="M544.44 183.00v-58.00"/>
<path class="stroke" stroke-width="1"
	d="M646.04 125.00v-24.00"/>
<path class="stroke" stroke-width="1"
	d="M646.04 183.00v-58.00"/>
<path class="stroke" stroke-width="1"
	d="M757.54 125.00v-24.00"/>
<path class="stroke" stroke-width="1"
	d="M757.54 183.00v-58.00"/>
<path class="stroke" stroke-width="3"
	d="M860.54 125.00v-24.00"/>
<path class="stroke" stroke-width="1"
	d="M856.04 125.00v-24.00"/>
<use x="852.04" y="125.00" xlink:href="#rdots"/>
<path class="stroke" stroke-width="3"
	d="M860.54 183.00v-58.00"/>
<path class="stroke" stroke-width="1"
	d="M856.04 183.00v-58.00"/>
<use x="852.04" y="183.00" xlink:href="#rdots"/>
<path d="m11.54 125.00
	h850.50
	M11.54 119.00
	h850.50
	M11.54 113.00
	h850.50
	M11.54 107.00
	h850.50
	M11.54 101.00
	h850.50
	" class="stroke"/>
<path d="m11.54 183.00
	h850.50
	M11.54 177.00
	h850.50
	M11.54 171.00
	h850.50
	M11.54 165.00
	h850.50
	M11.54 159.00
	h850.50
	" class="stroke"/>
</g>
<g stroke-width="0.70" transform="scale(0.867)" font-family="Times" font-size="13.00">
<text x="761.54" y="86.40">1</text>
<path class="stroke"
	d="M757.54 75.00m0 20v-20h96.50v20"/>
<defs>
<path id="utclef" class="fill" d="m-50 -90
	c-72 -41 -72 -158 52 -188
	150 -10 220 188 90 256
	-114 52 -275 0 -293 -136
	-15 -181 93 -229 220 -334
	88 -87 79 -133 62 -210
	-51 33 -94 105 -89 186
	17 267 36 374 49 574
	6 96 -19 134 -77 135
	-80 1 -126 -93 -61 -133
	85 -41 133 101 31 105
	23 17 92 37 90 -92
	-10 -223 -39 -342 -50 -617
	0 -90 0 -162 96 -232
	56 72 63 230 22 289
	-74 106 -257 168 -255 316
	9 153 148 185 252 133
	86 -65 29 -192 -80 -176
	-71 12 -105 67 -59 124"/>
<use id="tclef" transform="translate(0,6) scale(0.045)"
	xlink:href="#utclef"/>
</defs>
<use x="23.54" y="119.00" xlink:href="#tclef"/>
<g font-family="serif" font-size="16" font-weight="bold" font-style="normal"
	transform="translate(42.04,124.50) scale(1.2,1)">
	<text text-anchor="middle">8</text>
	<text y="-12" text-anchor="middle">3</text>
</g>
<path class="fill"
	d="M81.14 131.60l48.50 6.60v-3.20l-48.50 -6.60"/>
<use x="84.94" y="104.00" xlink:href="#hd"/>
<path d="M81.44 104.00v26.70" class="stroke"/>
<use x="108.94" y="110.00" xlink:href="#hd"/>
<path d="M105.44 110.00v23.90" class="stroke"/>
<use x="132.84" y="119.00" xlink:href="#hd"/>
<path d="M129.34 119.00v18.20" class="stroke"/>
<path class="fill"
	d="M161.14 122.60l85.60 9.60v-3.20l-85.60 -9.60"/>
<path class="fill"
	d="M161.54 117.60l84.90 9.60v-3.20l-84.90 -9.60"/>
<defs>
<path id="hl" class="stroke" d="m-6 0h12"/>
</defs>
<use x="165.04" y="95.00" xlink:href="#hl"/>
<use x="165.04" y="89.00" xlink:href="#hl"/>
<use x="165.04" y="89.00" xlink:href="#hd"/>
<path d="M161.54 89.00v32.60" class="stroke"/>
<use x="182.04" y="95.00" xlink:href="#hl"/>
<use x="182.04" y="92.00" xlink:href="#hd"/>
<path d="M178.54 92.00v31.60" class="stroke"/>
<use x="199.04" y="95.00" xlink:href="#hl"/>
<use x="199.04" y="89.00" xlink:href="#hl"/>
<use x="199.04" y="89.00" xlink:href="#hd"/>
<path d="M195.54 89.00v36.50" class="stroke"/>
<use x="215.94" y="98.00" xlink:href="#hd"/>
<path d="M212.44 98.00v29.40" class="stroke"/>
<use x="232.94" y="104.00" xlink:href="#hd"/>
<path d="M229.44 104.00v25.30" class="stroke"/>
<use x="249.94" y="110.00" xlink:href="#hd"/>
<path d="M246.44 110.00v21.20" class="stroke"/>
<path class="fill"
	d="M272.84 132.00l48.50 0.00v-3.20l-48.50 -0.00"/>
<use x="276.64" y="107.00" xlink:href="#hd"/>
<path d="M273.14 107.00v24.00" class="stroke"/>
<use x="276.64" y="113.00" xlink:href="#hd"/>
<use x="300.54" y="107.00" xlink:href="#hd"/>
<path d="M297.04 107.00v24.00" class="stroke"/>
<use x="300.54" y="113.00" xlink:href="#hd"/>
<use x="324.54" y="107.00" xlink:href="#hd"/>
<path d="M321.04 107.00v24.00" class="stroke"/>
<use x="324.54" y="113.00" xlink:href="#hd"/>
<path class="fill"
	d="M359.84 79.70l68.50 8.30v3.20l-68.50 -8.30"/>
<path class="fill"
	d="M360.14 84.80l50.90 6.10v3.20l-50.90 -6.10"/>
<use x="356.64" y="110.00" xlink:href="#hd"/>
<path d="M360.14 110.00v-29.20" class="stroke"/>
<use x="373.64" y="104.00" xlink:href="#hd"/>
<path d="M377.14 104.00v-21.20" class="stroke"/>
<use x="390.64" y="110.00" xlink:href="#hd"/>
<path d="M394.14 110.00v-25.20" class="stroke"/>
<use x="407.54" y="119.00" xlink:href="#hd"/>
<path d="M411.04 119.00v-32.10" class="stroke"/>
<use x="424.54" y="125.00" xlink:href="#hd"/>
<path d="M428.04 125.00v-36.10" class="stroke"/>
<path class="fill"
	d="M457.94 127.00l58.80 0.00v-3.20l-58.80 -0.00"/>
<path class="fill"
	d="M482.44 122.00l17.00 0.00v-3.20l-17.00 -0.00"/>
<use x="461.74" y="101.00" xlink:href="#hd"/>
<defs>
<path id="usharp" class="fill" d="
	m136 -702
	v890
	h32
	v-890
	m128 840
	h32
	v-888
	h-32
	m-232 286
	v116
	l338 -96
	v-116
	m-338 442
	v116
	l338 -98
	v-114"/>
<use id="sh0" transform="translate(-4,5) scale(0.018)"
	xlink:href="#usharp"/>
</defs>
<use x="452.74" y="101.00" xlink:href="#sh0"/>
<path d="M458.24 101.00v25.00" class="stroke"/>
<use x="485.94" y="101.00" xlink:href="#hd"/>
<path d="M482.44 101.00v25.00" class="stroke"/>
<use x="502.94" y="107.00" xlink:href="#hd"/>
<path d="M499.44 107.00v19.00" class="stroke"/>
<use x="519.94" y="95.00" xlink:href="#hl"/>
<use x="519.94" y="95.00" xlink:href="#hd"/>
<path d="M516.44 95.00v31.00" class="stroke"/>
<path class="fill"
	d="M554.04 127.00l75.50 8.20v-3.20l-75.50 -8.20"/>
<path class="fill"
	d="M578.34 124.60l50.90 5.60v-3.20l-50.90 -5.60"/>
<use x="557.84" y="98.00" xlink:href="#hd"/>
<path d="M554.34 98.00v28.00" class="stroke"/>
<use x="581.84" y="95.00" xlink:href="#hl"/>
<use x="581.84" y="92.00" xlink:href="#hd"/>
<path d="M578.34 92.00v36.60" class="stroke"/>
<use x="598.74" y="98.00" xlink:href="#hd"/>
<path d="M595.24 98.00v32.50" class="stroke"/>
<use x="615.74" y="107.00" xlink:href="#hd"/>
<path d="M612.24 107.00v25.30" class="stroke"/>
<use x="632.74" y="113.00" xlink:href="#hd"/>
<path d="M629.24 113.00v21.20" class="stroke"/>
<path class="fill"
	d="M655.64 130.60l85.50 7.70v-3.20l-85.50 -7.70"/>
<path class="fill"
	d="M655.94 125.60l84.80 7.60v-3.20l-84.80 -7.60"/>
<use x="659.44" y="104.00" xlink:href="#hd"/>
<path d="M655.94 104.00v25.60" class="stroke"/>
<use x="676.44" y="98.00" xlink:href="#hd"/>
<path d="M672.94 98.00v33.10" class="stroke"/>
<use x="693.34" y="107.00" xlink:href="#hd"/>
<path d="M689.84 107.00v25.60" class="stroke"/>
<use x="710.34" y="110.00" xlink:href="#hd"/>
<path d="M706.84 110.00v24.20" class="stroke"/>
<use x="727.34" y="113.00" xlink:href="#hd"/>
<path d="M723.84 113.00v22.70" class="stroke"/>
<use x="744.24" y="116.00" xlink:href="#hd"/>
<path d="M740.74 116.00v21.20" class="stroke"/>
<use x="771.04" y="98.00" xlink:href="#hd"/>
<path d="M767.54 98.00v40.00" class="stroke"/>
<use x="771.04" y="119.00" xlink:href="#hd"/>
<use x="771.04" y="113.00" xlink:href="#hd"/>
<use x="771.04" y="107.00" xlink:href="#hd"/>
<defs>
<path id="r8e" class="fill" d="m 0 0
	c-1.5 1.5 -2.4 2 -3.6 2
	2.4 -2.8 -2.8 -4 -2.8 -1.2
	c0 2.7 4.3 2.4 5.9 0.6"/>
<g id="r8">
	<path d="m3.3 -4l-3.4 9.6" class="stroke"/>
	<use x="3.4" y="-4" xlink:href="#r8e"/>
</g>
</defs>
<use x="829.94" y="113.00" xlink:href="#r8"/>
<defs>
<path id="ubclef" class="fill" d="m-200 -87
	c124 -35 222 -78 254 -236
	43 -228 -167 -246 -192 -103
	59 -80 157 22 92 78
	-62 47 -115 -22 -106 -88
	21 -141 270 -136 274 52
	-1 175 -106 264 -322 297
	m357 -250
	c0 -36 51 -34 51 0
	0 37 -51 36 -51 0
	m-2 -129
	c0 -36 51 -34 51 0
	0 38 -51 37 -51 0"/>
<use id="bclef" transform="translate(0,18) scale(0.045)"
	xlink:href="#ubclef"/>
</defs>
<use x="23.54" y="165.00" xlink:href="#bclef"/>
<g font-family="serif" font-size="16" font-weight="bold" font-style="normal"
	transform="translate(42.04,182.50) scale(1.2,1)">
	<text text-anchor="middle">8</text>
	<text y="-12" text-anchor="middle">3</text>
</g>
<use x="84.94" y="174.00" xlink:href="#hd"/>
<path d="M88.44 174.00v-21.00" class="stroke"/>
<use x="132.84" y="171.00" xlink:href="#r8"/>
<use x="165.04" y="168.00" xlink:href="#hd"/>
<path d="M168.54 168.00v-21.00" class="stroke"/>
<use x="232.94" y="171.00" xlink:href="#r8"/>
<path class="fill"
	d="M272.84 183.20l48.50 0.00v-3.20l-48.50 -0.00"/>
<use x="276.64" y="162.00" xlink:href="#hd"/>
<path d="M273.14 162.00v20.20" class="stroke"/>
<use x="300.54" y="162.00" xlink:href="#hd"/>
<path d="M297.04 162.00v20.20" class="stroke"/>
<use x="324.54" y="162.00" xlink:href="#hd"/>
<path d="M321.04 162.00v20.20" class="stroke"/>
<use x="356.64" y="168.00" xlink:href="#hd"/>
<path d="M353.14 168.00v25.00" class="stroke"/>
<use x="356.64" y="174.00" xlink:href="#hd"/>
<use x="424.54" y="171.00" xlink:href="#r8"/>
<path class="fill"
	d="M464.94 150.00l58.80 0.00v3.20l-58.80 -0.00"/>
<use x="461.74" y="171.00" xlink:href="#hd"/>
<path d="M465.24 171.00v-20.00" class="stroke"/>
<use x="485.94" y="171.00" xlink:href="#hd"/>
<path d="M489.44 171.00v-20.00" class="stroke"/>
<use x="519.94" y="171.00" xlink:href="#hd"/>
<path d="M523.44 171.00v-20.00" class="stroke"/>
<use x="557.84" y="177.00" xlink:href="#hd"/>
<path d="M561.34 177.00v-25.00" class="stroke"/>
<use x="557.84" y="171.00" xlink:href="#hd"/>
<use x="615.74" y="171.00" xlink:href="#r8"/>
<path class="fill"
	d="M662.64 147.70l68.50 8.30v3.20l-68.50 -8.30"/>
<use x="659.44" y="174.00" xlink:href="#hd"/>
<path d="M662.94 174.00v-25.30" class="stroke"/>
<use x="693.34" y="171.00" xlink:href="#hd"/>
<path d="M696.84 171.00v-18.20" class="stroke"/>
<use x="727.34" y="189.00" xlink:href="#hl"/>
<use x="727.34" y="192.00" xlink:href="#hd"/>
<path d="M730.84 192.00v-35.10" class="stroke"/>
<path class="fill"
	d="M767.14 202.20l76.50 0.00v-3.20l-76.50 -0.00"/>
<path class="fill"
	d="M791.44 197.20l51.90 0.00v-3.20l-51.90 -0.00"/>
<use x="771.04" y="183.00" xlink:href="#hd"/>
<path d="M767.54 183.00v18.20" class="stroke"/>
<use x="794.94" y="162.00" xlink:href="#hd"/>
<path d="M791.44 162.00v39.20" class="stroke"/>
<use x="812.94" y="165.00" xlink:href="#hd"/>
<defs>
<path id="unat" class="fill" d="
	m96 -750
	h-32
	v716
	l32 -8
	182 -54
	v282
	h32
	v-706
	l-34 10
	-180 50
	v-290
	m0 592
	v-190
	l182 -52
	v188"/>
<use id="nt0" transform="translate(-3,5) scale(0.018)"
	xlink:href="#unat"/>
</defs>
<use x="803.94" y="165.00" xlink:href="#nt0"/>
<path d="M809.44 165.00v36.20" class="stroke"/>
<use x="829.94" y="168.00" xlink:href="#hd"/>
<path d="M826.44 168.00v33.20" class="stroke"/>
<use x="846.84" y="171.00" xlink:href="#hd"/>
<path d="M843.34 171.00v30.20" class="stroke"/>
<use x="165.04" y="174.00" xlink:href="#hd"/>
<path d="M161.54 174.00v21.00" class="stroke"/>
<path class="fill"
	d="M465.94 195.00l58.80 0.00v-3.20l-58.80 -0.00"/>
<use x="469.74" y="174.00" xlink:href="#hd"/>
<path d="M466.24 174.00v20.00" class="stroke"/>
<use x="493.94" y="174.00" xlink:href="#hd"/>
<path d="M490.44 174.00v20.00" class="stroke"/>
<use x="527.94" y="174.00" xlink:href="#hd"/>
<path d="M524.44 174.00v20.00" class="stroke"/>
</g>
<g stroke-width="0.70" transform="scale(0.867)" font-family="Times" font-size="13.00">
<path class="stroke" stroke-width="1"
	d="M11.54 316.00v-82.00"/>
<path class="fill"
	d="M6.54 231.00
	c10.5 1 12 -4.5 12 -3.5c0 1 -3.5 5.5 -8.5 5.5
	v84.00
	c5 0 8.5 4.5 8.5 5.5c0 1 -1.5 -4.5 -12 -3.5"/>
<use x="142.14" y="258.00" xlink:href="#rdots"/>
<path class="stroke" stroke-width="1"
	d="M138.14 258.00v-24.00"/>
<path class="stroke" stroke-width="3"
	d="M133.64 258.00v-24.00"/>
<use x="142.14" y="316.00" xlink:href="#rdots"/>
<path class="stroke" stroke-width="1"
	d="M138.14 316.00v-58.00"/>
<path class="stroke" stroke-width="3"
	d="M133.64 316.00v-58.00"/>
<path class="stroke" stroke-width="1"
	d="M237.14 258.00v-24.00"/>
<path class="stroke" stroke-width="1"
	d="M237.14 316.00v-58.00"/>
<path class="stroke" stroke-width="1"
	d="M333.84 258.00v-24.00"/>
<path class="stroke" stroke-width="1"
	d="M333.84 316.00v-58.00"/>
<path class="stroke" stroke-width="1"
	d="M430.64 258.00v-24.00"/>
<path class="stroke" stroke-width="1"
	d="M430.64 316.00v-58.00"/>
<path class="stroke" stroke-width="1"
	d="M516.54 258.00v-24.00"/>
<path class="stroke" stroke-width="1"
	d="M516.54 316.00v-58.00"/>
<path class="stroke" stroke-width="1"
	d="M604.54 258.00v-24.00"/>
<path class="stroke" stroke-width="1"
	d="M604.54 316.00v-58.00"/>
<path class="stroke" stroke-width="1"
	d="M692.44 258.00v-24.00"/>
<path class="stroke" stroke-width="1"
	d="M692.44 316.00v-58.00"/>
<path class="stroke" stroke-width="1"
	d="M789.24 258.00v-24.00"/>
<path class="stroke" stroke-width="1"
	d="M789.24 316.00v-58.00"/>
<path class="stroke" stroke-width="3"
	d="M860.54 258.00v-24.00"/>
<path class="stroke" stroke-width="1"
	d="M856.04 258.00v-24.00"/>
<use x="852.04" y="258.00" xlink:href="#rdots"/>
<path class="stroke" stroke-width="3"
	d="M860.54 316.00v-58.00"/>
<path class="stroke" stroke-width="1"
	d="M856.04 316.00v-58.00"/>
<use x="852.04" y="316.00" xlink:href="#rdots"/>
<path d="m11.54 258.00
	h850.50
	M11.54 252.00
	h850.50
	M11.54 246.00
	h850.50
	M11.54 240.00
	h850.50
	M11.54 234.00
	h850.50
	" class="stroke"/>
<path d="m11.54 316.00
	h850.50
	M11.54 310.00
	h850.50
	M11.54 304.00
	h850.50
	M11.54 298.00
	h850.50
	M11.54 292.00
	h850.50
	" class="stroke"/>
<text x="47.54" y="219.40">2</text>
<path class="stroke"
	d="M43.54 208.00m0 20v-20h87.60v20"/>
<use x="23.54" y="252.00" xlink:href="#tclef"/>
<use x="56.04" y="231.00" xlink:href="#hd"/>
<path d="M52.54 231.00v40.00" class="stroke"/>
<use x="56.04" y="252.00" xlink:href="#hd"/>
<use x="56.04" y="246.00" xlink:href="#hd"/>
<use x="56.04" y="240.00" xlink:href="#hd"/>
<use x="108.34" y="246.00" xlink:href="#r8"/>
<path class="fill"
	d="M157.84 260.00l63.60 0.00v-3.20l-63.60 -0.00"/>
<path class="fill"
	d="M178.04 255.00l43.00 0.00v-3.20l-43.00 -0.00"/>
<use x="161.64" y="234.00" xlink:href="#hd"/>
<use x="152.64" y="234.00" xlink:href="#sh0"/>
<path d="M158.14 234.00v25.00" class="stroke"/>
<use x="181.54" y="228.00" xlink:href="#hl"/>
<use x="181.54" y="228.00" xlink:href="#hd"/>
<path d="M178.04 228.00v31.00" class="stroke"/>
<use x="195.94" y="234.00" xlink:href="#hd"/>
<path d="M192.44 234.00v25.00" class="stroke"/>
<use x="210.24" y="240.00" xlink:href="#hd"/>
<path d="M206.74 240.00v19.00" class="stroke"/>
<use x="224.64" y="234.00" xlink:href="#hd"/>
<path d="M221.14 234.00v25.00" class="stroke"/>
<path class="fill"
	d="M245.74 260.00l72.40 0.00v-3.20l-72.40 -0.00"/>
<path class="fill"
	d="M246.14 255.00l71.70 0.00v-3.20l-71.70 -0.00"/>
<use x="249.64" y="231.00" xlink:href="#hd"/>
<path d="M246.14 231.00v28.00" class="stroke"/>
<use x="263.94" y="240.00" xlink:href="#hd"/>
<path d="M260.44 240.00v19.00" class="stroke"/>
<use x="278.34" y="231.00" xlink:href="#hd"/>
<path d="M274.84 231.00v28.00" class="stroke"/>
<use x="292.64" y="228.00" xlink:href="#hl"/>
<use x="292.64" y="225.00" xlink:href="#hd"/>
<path d="M289.14 225.00v34.00" class="stroke"/>
<use x="307.04" y="231.00" xlink:href="#hd"/>
<path d="M303.54 231.00v28.00" class="stroke"/>
<use x="321.34" y="240.00" xlink:href="#hd"/>
<path d="M317.84 240.00v19.00" class="stroke"/>
<path class="fill"
	d="M342.54 274.20l72.40 0.00v-3.20l-72.40 -0.00"/>
<path class="fill"
	d="M342.84 269.20l71.70 0.00v-3.20l-71.70 -0.00"/>
<use x="346.34" y="243.00" xlink:href="#hd"/>
<path d="M342.84 243.00v30.20" class="stroke"/>
<use x="360.74" y="252.00" xlink:href="#hd"/>
<path d="M357.24 252.00v21.20" class="stroke"/>
<use x="375.04" y="243.00" xlink:href="#hd"/>
<path d="M371.54 243.00v30.20" class="stroke"/>
<use x="389.44" y="237.00" xlink:href="#hd"/>
<path d="M385.94 237.00v36.20" class="stroke"/>
<use x="403.74" y="231.00" xlink:href="#hd"/>
<path d="M400.24 231.00v42.20" class="stroke"/>
<use x="418.14" y="237.00" xlink:href="#hd"/>
<path d="M414.64 237.00v36.20" class="stroke"/>
<use x="418.14" y="243.00" xlink:href="#hd"/>
<path class="fill"
	d="M439.24 265.00l58.10 6.30v-3.20l-58.10 -6.30"/>
<path class="fill"
	d="M439.64 260.00l43.00 4.70v-3.20l-43.00 -4.70"/>
<use x="443.14" y="237.00" xlink:href="#hd"/>
<path d="M439.64 237.00v27.00" class="stroke"/>
<use x="457.44" y="243.00" xlink:href="#hd"/>
<path d="M453.94 243.00v22.50" class="stroke"/>
<use x="471.84" y="240.00" xlink:href="#hd"/>
<path d="M468.34 240.00v27.10" class="stroke"/>
<use x="486.14" y="246.00" xlink:href="#hd"/>
<path d="M482.64 246.00v22.60" class="stroke"/>
<use x="500.54" y="252.00" xlink:href="#hd"/>
<path d="M497.04 252.00v18.20" class="stroke"/>
<path class="fill"
	d="M525.24 256.40l63.60 8.90v-3.20l-63.60 -8.90"/>
<path class="fill"
	d="M545.44 254.20l43.00 6.00v-3.20l-43.00 -6.00"/>
<use x="529.04" y="231.00" xlink:href="#hd"/>
<path d="M525.54 231.00v24.40" class="stroke"/>
<use x="548.94" y="234.00" xlink:href="#hd"/>
<path d="M545.44 234.00v24.20" class="stroke"/>
<use x="563.34" y="237.00" xlink:href="#hd"/>
<path d="M559.84 237.00v23.20" class="stroke"/>
<use x="577.64" y="240.00" xlink:href="#hd"/>
<path d="M574.14 240.00v22.20" class="stroke"/>
<use x="592.04" y="243.00" xlink:href="#hd"/>
<path d="M588.54 243.00v21.20" class="stroke"/>
<path class="fill"
	d="M613.14 256.40l63.60 8.90v-3.20l-63.60 -8.90"/>
<path class="fill"
	d="M633.44 254.20l43.00 6.00v-3.20l-43.00 -6.00"/>
<use x="617.04" y="231.00" xlink:href="#hd"/>
<path d="M613.54 231.00v24.40" class="stroke"/>
<use x="636.94" y="234.00" xlink:href="#hd"/>
<path d="M633.44 234.00v24.20" class="stroke"/>
<use x="651.24" y="237.00" xlink:href="#hd"/>
<path d="M647.74 237.00v23.20" class="stroke"/>
<use x="665.64" y="240.00" xlink:href="#hd"/>
<path d="M662.14 240.00v22.20" class="stroke"/>
<use x="679.94" y="243.00" xlink:href="#hd"/>
<path d="M676.44 243.00v21.20" class="stroke"/>
<path class="fill"
	d="M701.14 266.00l72.40 0.00v-3.20l-72.40 -0.00"/>
<path class="fill"
	d="M701.44 261.00l71.70 0.00v-3.20l-71.70 -0.00"/>
<use x="704.94" y="240.00" xlink:href="#hd"/>
<path d="M701.44 240.00v24.90" class="stroke"/>
<use x="719.34" y="234.00" xlink:href="#hd"/>
<path d="M715.84 234.00v30.90" class="stroke"/>
<use x="733.64" y="240.00" xlink:href="#hd"/>
<path d="M730.14 240.00v24.90" class="stroke"/>
<use x="748.04" y="234.00" xlink:href="#hd"/>
<path d="M744.54 234.00v30.90" class="stroke"/>
<use x="762.34" y="246.00" xlink:href="#hd"/>
<path d="M758.84 246.00v18.90" class="stroke"/>
<use x="776.74" y="240.00" xlink:href="#hd"/>
<path d="M773.24 240.00v24.90" class="stroke"/>
<use x="801.74" y="243.00" xlink:href="#hd"/>
<path d="M798.24 243.00v21.00" class="stroke"/>
<use x="841.54" y="246.00" xlink:href="#r8"/>
<use x="23.54" y="298.00" xlink:href="#bclef"/>
<path class="fill"
	d="M52.24 335.20l67.30 -4.90v-3.20l-67.30 4.90"/>
<path class="fill"
	d="M72.44 328.70l46.70 -3.40v-3.20l-46.70 3.40"/>
<use x="56.04" y="316.00" xlink:href="#hd"/>
<path d="M52.54 316.00v18.20" class="stroke"/>
<use x="75.94" y="289.00" xlink:href="#hd"/>
<path d="M72.44 289.00v43.70" class="stroke"/>
<use x="90.34" y="295.00" xlink:href="#hd"/>
<path d="M86.84 295.00v36.70" class="stroke"/>
<use x="108.34" y="298.00" xlink:href="#hd"/>
<use x="99.34" y="298.00" xlink:href="#sh0"/>
<path d="M104.84 298.00v32.40" class="stroke"/>
<use x="122.64" y="301.00" xlink:href="#hd"/>
<path d="M119.14 301.00v28.30" class="stroke"/>
<use x="161.64" y="304.00" xlink:href="#hd"/>
<path d="M165.14 304.00v-21.00" class="stroke"/>
<use x="210.24" y="307.00" xlink:href="#hd"/>
<path d="M213.74 307.00v-21.00" class="stroke"/>
<path class="fill"
	d="M213.74 286.00c0.6 5.6 9.6 9 5.6 18.4
	1.6 -6 -1.3 -11.6 -5.6 -12.8
"/>
<use x="249.64" y="310.00" xlink:href="#hd"/>
<path d="M253.14 310.00v-25.00" class="stroke"/>
<use x="249.64" y="304.00" xlink:href="#hd"/>
<use x="307.04" y="310.00" xlink:href="#hd"/>
<path d="M310.54 310.00v-25.00" class="stroke"/>
<path class="fill"
	d="M310.54 285.00c0.6 5.6 9.6 9 5.6 18.4
	1.6 -6 -1.3 -11.6 -5.6 -12.8
"/>
<use x="307.04" y="304.00" xlink:href="#hd"/>
<use x="346.34" y="301.00" xlink:href="#hd"/>
<path d="M342.84 301.00v21.00" class="stroke"/>
<path class="fill"
	d="M399.94 325.90l15.00 3.40v-3.20l-15.00 -3.40"/>
<path class="fill"
	d="M400.24 320.90l14.30 3.30v-3.20l-14.30 -3.30"/>
<use x="403.74" y="301.00" xlink:href="#hd"/>
<path d="M400.24 301.00v23.90" class="stroke"/>
<use x="418.14" y="307.00" xlink:href="#hd"/>
<path d="M414.64 307.00v21.20" class="stroke"/>
<use x="443.14" y="295.00" xlink:href="#hd"/>
<path d="M439.64 295.00v21.00" class="stroke"/>
<use x="500.54" y="304.00" xlink:href="#r8"/>
<use x="529.04" y="301.00" xlink:href="#hd"/>
<path d="M525.54 301.00v25.00" class="stroke"/>
<use x="529.04" y="307.00" xlink:href="#hd"/>
<use x="577.64" y="304.00" xlink:href="#r8"/>
<use x="617.04" y="301.00" xlink:href="#hd"/>
<path d="M613.54 301.00v25.00" class="stroke"/>
<use x="617.04" y="307.00" xlink:href="#hd"/>
<use x="665.64" y="295.00" xlink:href="#hd"/>
<path d="M662.14 295.00v25.00" class="stroke"/>
<path class="fill"
	d="M662.14 320.00c0.6 -5.6 9.6 -9 5.6 -18.4
	1.6 6 -1.3 11.6 -5.6 12.8
"/>
<use x="665.64" y="301.00" xlink:href="#hd"/>
<use x="704.94" y="292.00" xlink:href="#hd"/>
<path d="M701.44 292.00v25.00" class="stroke"/>
<use x="704.94" y="298.00" xlink:href="#hd"/>
<use x="762.34" y="286.00" xlink:href="#hl"/>
<use x="762.34" y="283.00" xlink:href="#hd"/>
<path d="M758.84 283.00v31.00" class="stroke"/>
<path class="fill"
	d="M758.84 314.00c0.6 -5.6 9.6 -9 5.6 -18.4
	1.6 6 -1.3 11.6 -5.6 12.8
"/>
<use x="762.34" y="295.00" xlink:href="#hd"/>
<path class="fill"
	d="M804.84 287.70l40.50 9.60v3.20l-40.50 -9.60"/>
<use x="801.74" y="307.00" xlink:href="#hd"/>
<path d="M805.24 307.00v-18.20" class="stroke"/>
<use x="821.64" y="316.00" xlink:href="#hd"/>
<path d="M825.14 316.00v-22.50" class="stroke"/>
<use x="841.54" y="322.00" xlink:href="#hl"/>
<use x="841.54" y="328.00" xlink:href="#hl"/>
<use x="841.54" y="328.00" xlink:href="#hd"/>
<path d="M845.04 328.00v-29.70" class="stroke"/>
</g>
</svg>
