<?xml version="1.0" standalone="no"?>
<!DOCTYPE svg PUBLIC "-//W3C//DTD SVG 1.1//EN"
	"http://www.w3.org/Graphics/SVG/1.1/DTD/svg11.dtd">
<svg xmlns="http://www.w3.org/2000/svg" version="1.1"
	xmlns:xlink="http://www.w3.org/1999/xlink"
	color="black"
	width="757.10px" height="293.80px">
<style type="text/css">
.fill {fill: currentColor}
.stroke {stroke: currentColor; fill: none}
text{white-space: pre}
</style>
<title>./K516f-10-4-5-12-3-4-12-11-8-4-8-2-12-2-12-12.abc (3480) tune 1</title>
<!-- Creator: abcm2ps-8.13.8 -->
<!-- CreationDate: Sep  7, 2017 11:19 -->
<!-- CommandLine: ./K516f-10-4-5-12-3-4-12-11-8-4-8-2-12-2-12-12.abc -O ./K516f-10-4-5-12-3-4-12-11-8-4-8-2-12-2-12-12.svg -g -->
<rect width="100%" height="100%" fill="white"/>
<g stroke-width="0.70" transform="scale(0.867)">
<!-- title: 10-4-5-12-3-4-12-11-8-4-8-2-12-2-12-12 -->
</g>
<g stroke-width="0.70" transform="scale(0.867)" font-family="Times" font-size="20.00">
<text x="436.84" y="22.00" text-anchor="middle">10-4-5-12-3-4-12-11-8-4-8-2-12-2-12-12</text>
</g>
<g stroke-width="0.70" transform="scale(0.867)" font-family="Times" font-size="20.00">
<!-- subtitle: $1K.516f::98:95:113:103:146:55:106:33:16:139:57:9:12:49:44:131::$0 -->
</g>
<g stroke-width="0.70" transform="scale(0.867)" font-family="Courier" font-size="8.00" font-weight="bold">
<text x="436.84" y="41.80" text-anchor="middle">K.516f::98:95:113:103:146:55:106:33:16:139:57:9:12:49:44:131::</text>
</g>
<g stroke-width="0.70" transform="scale(0.867)" font-family="Courier" font-size="8.00" font-weight="bold">
<!-- subtitle: $1Perm. No.: 348094949538411$0 -->
<text x="436.84" y="60.80" text-anchor="middle">Perm. No.: 348094949538411</text>
</g>
<g stroke-width="0.70" transform="scale(0.607)" font-family="Courier" font-size="8.00" font-weight="bold">
<defs>
<ellipse id="hd" rx="4.1" ry="2.9"
	transform="rotate(-20)" class="fill"/>
</defs>
<use x="103.06" y="121.29" xlink:href="#hd"/>
<path d="M106.56 121.29v-21.00" class="stroke"/>
<path class="fill"
	d="M106.56 100.29c0.6 5.6 9.6 9 5.6 18.4
	1.6 -6 -1.3 -11.6 -5.6 -12.8
"/>
</g>
<g stroke-width="0.70" transform="scale(0.867)" font-family="Times" font-size="15.00" font-weight="bold">
<text x="81.24" y="87.00">= 111</text>
<path class="stroke" stroke-width="1"
	d="M11.54 183.00v-82.00"/>
<path class="fill"
	d="M6.54 98.00
	c10.5 1 12 -4.5 12 -3.5c0 1 -3.5 5.5 -8.5 5.5
	v84.00
	c5 0 8.5 4.5 8.5 5.5c0 1 -1.5 -4.5 -12 -3.5"/>
<defs>
<g id="rdots" class="fill">
	<circle cx="0" cy="-9" r="1.2"/>
	<circle cx="0" cy="-15" r="1.2"/>
</g>
</defs>
<use x="70.54" y="125.00" xlink:href="#rdots"/>
<path class="stroke" stroke-width="1"
	d="M66.54 125.00v-24.00"/>
<path class="stroke" stroke-width="3"
	d="M62.04 125.00v-24.00"/>
<use x="70.54" y="183.00" xlink:href="#rdots"/>
<path class="stroke" stroke-width="1"
	d="M66.54 183.00v-58.00"/>
<path class="stroke" stroke-width="3"
	d="M62.04 183.00v-58.00"/>
<path class="stroke" stroke-width="1"
	d="M190.44 125.00v-24.00"/>
<path class="stroke" stroke-width="1"
	d="M190.44 183.00v-58.00"/>
<path class="stroke" stroke-width="1"
	d="M275.94 125.00v-24.00"/>
<path class="stroke" stroke-width="1"
	d="M275.94 183.00v-58.00"/>
<path class="stroke" stroke-width="1"
	d="M361.44 125.00v-24.00"/>
<path class="stroke" stroke-width="1"
	d="M361.44 183.00v-58.00"/>
<path class="stroke" stroke-width="1"
	d="M468.14 125.00v-24.00"/>
<path class="stroke" stroke-width="1"
	d="M468.14 183.00v-58.00"/>
<path class="stroke" stroke-width="1"
	d="M557.84 125.00v-24.00"/>
<path class="stroke" stroke-width="1"
	d="M557.84 183.00v-58.00"/>
<path class="stroke" stroke-width="1"
	d="M643.34 125.00v-24.00"/>
<path class="stroke" stroke-width="1"
	d="M643.34 183.00v-58.00"/>
<path class="stroke" stroke-width="1"
	d="M751.64 125.00v-24.00"/>
<path class="stroke" stroke-width="1"
	d="M751.64 183.00v-58.00"/>
<path class="stroke" stroke-width="3"
	d="M860.54 125.00v-24.00"/>
<path class="stroke" stroke-width="1"
	d="M856.04 125.00v-24.00"/>
<use x="852.04" y="125.00" xlink:href="#rdots"/>
<path class="stroke" stroke-width="3"
	d="M860.54 183.00v-58.00"/>
<path class="stroke" stroke-width="1"
	d="M856.04 183.00v-58.00"/>
<use x="852.04" y="183.00" xlink:href="#rdots"/>
<path d="m11.54 125.00
	h850.50
	M11.54 119.00
	h850.50
	M11.54 113.00
	h850.50
	M11.54 107.00
	h850.50
	M11.54 101.00
	h850.50
	" class="stroke"/>
<path d="m11.54 183.00
	h850.50
	M11.54 177.00
	h850.50
	M11.54 171.00
	h850.50
	M11.54 165.00
	h850.50
	M11.54 159.00
	h850.50
	" class="stroke"/>
</g>
<g stroke-width="0.70" transform="scale(0.867)" font-family="Times" font-size="13.00">
<text x="755.64" y="86.40">1</text>
<path class="stroke"
	d="M751.64 75.00m0 20v-20h102.40v20"/>
<defs>
<path id="utclef" class="fill" d="m-50 -90
	c-72 -41 -72 -158 52 -188
	150 -10 220 188 90 256
	-114 52 -275 0 -293 -136
	-15 -181 93 -229 220 -334
	88 -87 79 -133 62 -210
	-51 33 -94 105 -89 186
	17 267 36 374 49 574
	6 96 -19 134 -77 135
	-80 1 -126 -93 -61 -133
	85 -41 133 101 31 105
	23 17 92 37 90 -92
	-10 -223 -39 -342 -50 -617
	0 -90 0 -162 96 -232
	56 72 63 230 22 289
	-74 106 -257 168 -255 316
	9 153 148 185 252 133
	86 -65 29 -192 -80 -176
	-71 12 -105 67 -59 124"/>
<use id="tclef" transform="translate(0,6) scale(0.045)"
	xlink:href="#utclef"/>
</defs>
<use x="23.54" y="119.00" xlink:href="#tclef"/>
<g font-family="serif" font-size="16" font-weight="bold" font-style="normal"
	transform="translate(42.04,124.50) scale(1.2,1)">
	<text text-anchor="middle">8</text>
	<text y="-12" text-anchor="middle">3</text>
</g>
<path class="fill"
	d="M81.94 139.90l73.20 -3.30v-3.20l-73.20 3.30"/>
<use x="85.74" y="110.00" xlink:href="#hd"/>
<path d="M82.24 110.00v28.80" class="stroke"/>
<use x="122.04" y="119.00" xlink:href="#hd"/>
<path d="M118.54 119.00v18.20" class="stroke"/>
<use x="158.24" y="104.00" xlink:href="#hd"/>
<path d="M154.74 104.00v31.60" class="stroke"/>
<path class="fill"
	d="M200.94 121.00l52.00 8.30v-3.20l-52.00 -8.30"/>
<use x="204.74" y="98.00" xlink:href="#hd"/>
<path d="M201.24 98.00v22.00" class="stroke"/>
<use x="230.34" y="104.00" xlink:href="#hd"/>
<path d="M226.84 104.00v20.10" class="stroke"/>
<use x="256.04" y="110.00" xlink:href="#hd"/>
<path d="M252.54 110.00v18.20" class="stroke"/>
<path class="fill"
	d="M286.34 124.00l52.00 8.30v-3.20l-52.00 -8.30"/>
<use x="290.24" y="101.00" xlink:href="#hd"/>
<path d="M286.74 101.00v22.00" class="stroke"/>
<use x="315.84" y="107.00" xlink:href="#hd"/>
<path d="M312.34 107.00v20.10" class="stroke"/>
<use x="341.54" y="113.00" xlink:href="#hd"/>
<path d="M338.04 113.00v18.20" class="stroke"/>
<path class="fill"
	d="M378.84 79.70l73.20 8.40v3.20l-73.20 -8.40"/>
<path class="fill"
	d="M379.14 84.70l54.40 6.20v3.20l-54.40 -6.20"/>
<use x="375.64" y="110.00" xlink:href="#hd"/>
<path d="M379.14 110.00v-29.30" class="stroke"/>
<use x="393.84" y="104.00" xlink:href="#hd"/>
<path d="M397.34 104.00v-21.20" class="stroke"/>
<use x="411.94" y="110.00" xlink:href="#hd"/>
<path d="M415.44 110.00v-25.10" class="stroke"/>
<use x="430.04" y="119.00" xlink:href="#hd"/>
<path d="M433.54 119.00v-32.00" class="stroke"/>
<use x="448.14" y="125.00" xlink:href="#hd"/>
<path d="M451.64 125.00v-36.00" class="stroke"/>
<path class="fill"
	d="M482.74 139.30l52.00 -8.60v-3.20l-52.00 8.60"/>
<use x="486.64" y="107.00" xlink:href="#hd"/>
<path d="M483.14 107.00v31.20" class="stroke"/>
<use x="486.64" y="122.00" xlink:href="#hd"/>
<defs>
<path id="usharp" class="fill" d="
	m136 -702
	v890
	h32
	v-890
	m128 840
	h32
	v-888
	h-32
	m-232 286
	v116
	l338 -96
	v-116
	m-338 442
	v116
	l338 -98
	v-114"/>
<use id="sh0" transform="translate(-4,5) scale(0.018)"
	xlink:href="#usharp"/>
</defs>
<use x="477.64" y="122.00" xlink:href="#sh0"/>
<use x="512.24" y="101.00" xlink:href="#hd"/>
<use x="503.24" y="101.00" xlink:href="#sh0"/>
<path d="M508.74 101.00v33.00" class="stroke"/>
<use x="512.24" y="107.00" xlink:href="#hd"/>
<defs>
<path id="hl" class="stroke" d="m-6 0h12"/>
</defs>
<use x="537.94" y="95.00" xlink:href="#hl"/>
<use x="537.94" y="95.00" xlink:href="#hd"/>
<path d="M534.44 95.00v34.80" class="stroke"/>
<use x="537.94" y="101.00" xlink:href="#hd"/>
<path class="fill"
	d="M568.24 121.70l52.00 4.50v-3.20l-52.00 -4.50"/>
<use x="572.14" y="98.00" xlink:href="#hd"/>
<path d="M568.64 98.00v22.70" class="stroke"/>
<use x="597.74" y="95.00" xlink:href="#hl"/>
<use x="597.74" y="92.00" xlink:href="#hd"/>
<path d="M594.24 92.00v31.00" class="stroke"/>
<use x="623.34" y="107.00" xlink:href="#hd"/>
<path d="M619.84 107.00v18.20" class="stroke"/>
<path class="fill"
	d="M653.74 138.20l80.70 0.00v-3.20l-80.70 -0.00"/>
<path class="fill"
	d="M679.74 133.20l54.40 0.00v-3.20l-54.40 -0.00"/>
<use x="657.54" y="116.00" xlink:href="#hd"/>
<path d="M654.04 116.00v21.20" class="stroke"/>
<use x="683.24" y="107.00" xlink:href="#hd"/>
<path d="M679.74 107.00v30.20" class="stroke"/>
<use x="701.34" y="110.00" xlink:href="#hd"/>
<path d="M697.84 110.00v27.20" class="stroke"/>
<use x="719.44" y="113.00" xlink:href="#hd"/>
<path d="M715.94 113.00v24.20" class="stroke"/>
<use x="737.54" y="116.00" xlink:href="#hd"/>
<path d="M734.04 116.00v21.20" class="stroke"/>
<use x="765.94" y="98.00" xlink:href="#hd"/>
<path d="M762.44 98.00v40.00" class="stroke"/>
<use x="765.94" y="119.00" xlink:href="#hd"/>
<use x="765.94" y="113.00" xlink:href="#hd"/>
<use x="765.94" y="107.00" xlink:href="#hd"/>
<defs>
<path id="r8e" class="fill" d="m 0 0
	c-1.5 1.5 -2.4 2 -3.6 2
	2.4 -2.8 -2.8 -4 -2.8 -1.2
	c0 2.7 4.3 2.4 5.9 0.6"/>
<g id="r8">
	<path d="m3.3 -4l-3.4 9.6" class="stroke"/>
	<use x="3.4" y="-4" xlink:href="#r8e"/>
</g>
</defs>
<use x="827.84" y="113.00" xlink:href="#r8"/>
<defs>
<path id="ubclef" class="fill" d="m-200 -87
	c124 -35 222 -78 254 -236
	43 -228 -167 -246 -192 -103
	59 -80 157 22 92 78
	-62 47 -115 -22 -106 -88
	21 -141 270 -136 274 52
	-1 175 -106 264 -322 297
	m357 -250
	c0 -36 51 -34 51 0
	0 37 -51 36 -51 0
	m-2 -129
	c0 -36 51 -34 51 0
	0 38 -51 37 -51 0"/>
<use id="bclef" transform="translate(0,18) scale(0.045)"
	xlink:href="#ubclef"/>
</defs>
<use x="23.54" y="165.00" xlink:href="#bclef"/>
<g font-family="serif" font-size="16" font-weight="bold" font-style="normal"
	transform="translate(42.04,182.50) scale(1.2,1)">
	<text text-anchor="middle">8</text>
	<text y="-12" text-anchor="middle">3</text>
</g>
<path class="fill"
	d="M81.94 190.90l91.30 0.00v-3.20l-91.30 -0.00"/>
<path class="fill"
	d="M82.24 185.90l90.60 0.00v-3.20l-90.60 -0.00"/>
<use x="85.74" y="168.00" xlink:href="#hd"/>
<path d="M82.24 168.00v21.90" class="stroke"/>
<use x="85.74" y="174.00" xlink:href="#hd"/>
<use x="103.94" y="162.00" xlink:href="#hd"/>
<path d="M100.44 162.00v27.90" class="stroke"/>
<use x="122.04" y="168.00" xlink:href="#hd"/>
<path d="M118.54 168.00v21.90" class="stroke"/>
<use x="122.04" y="174.00" xlink:href="#hd"/>
<use x="140.14" y="162.00" xlink:href="#hd"/>
<path d="M136.64 162.00v27.90" class="stroke"/>
<use x="158.24" y="168.00" xlink:href="#hd"/>
<path d="M154.74 168.00v21.90" class="stroke"/>
<use x="158.24" y="174.00" xlink:href="#hd"/>
<use x="176.44" y="162.00" xlink:href="#hd"/>
<path d="M172.94 162.00v27.90" class="stroke"/>
<use x="204.74" y="168.00" xlink:href="#hd"/>
<path d="M208.24 168.00v-21.00" class="stroke"/>
<use x="256.04" y="171.00" xlink:href="#r8"/>
<use x="290.24" y="156.00" xlink:href="#hd"/>
<path d="M286.74 156.00v25.00" class="stroke"/>
<use x="290.24" y="162.00" xlink:href="#hd"/>
<use x="341.54" y="171.00" xlink:href="#r8"/>
<use x="375.64" y="168.00" xlink:href="#hd"/>
<path d="M372.14 168.00v25.00" class="stroke"/>
<use x="375.64" y="174.00" xlink:href="#hd"/>
<use x="448.14" y="171.00" xlink:href="#r8"/>
<path class="fill"
	d="M489.74 153.00l52.00 0.00v3.20l-52.00 -0.00"/>
<use x="486.64" y="174.00" xlink:href="#hd"/>
<path d="M490.14 174.00v-20.00" class="stroke"/>
<use x="512.24" y="174.00" xlink:href="#hd"/>
<path d="M515.74 174.00v-20.00" class="stroke"/>
<use x="537.94" y="174.00" xlink:href="#hd"/>
<path d="M541.44 174.00v-20.00" class="stroke"/>
<use x="572.14" y="177.00" xlink:href="#hd"/>
<path d="M575.64 177.00v-25.00" class="stroke"/>
<use x="572.14" y="171.00" xlink:href="#hd"/>
<use x="623.34" y="171.00" xlink:href="#r8"/>
<path class="fill"
	d="M660.74 148.30l62.60 8.50v3.20l-62.60 -8.50"/>
<use x="657.54" y="174.00" xlink:href="#hd"/>
<path d="M661.04 174.00v-24.70" class="stroke"/>
<use x="683.24" y="171.00" xlink:href="#hd"/>
<path d="M686.74 171.00v-18.20" class="stroke"/>
<use x="719.44" y="189.00" xlink:href="#hl"/>
<use x="719.44" y="192.00" xlink:href="#hd"/>
<path d="M722.94 192.00v-34.30" class="stroke"/>
<path class="fill"
	d="M762.04 202.20l80.70 0.00v-3.20l-80.70 -0.00"/>
<path class="fill"
	d="M788.04 197.20l54.40 0.00v-3.20l-54.40 -0.00"/>
<use x="765.94" y="183.00" xlink:href="#hd"/>
<path d="M762.44 183.00v18.20" class="stroke"/>
<use x="791.54" y="162.00" xlink:href="#hd"/>
<path d="M788.04 162.00v39.20" class="stroke"/>
<use x="809.64" y="165.00" xlink:href="#hd"/>
<defs>
<path id="unat" class="fill" d="
	m96 -750
	h-32
	v716
	l32 -8
	182 -54
	v282
	h32
	v-706
	l-34 10
	-180 50
	v-290
	m0 592
	v-190
	l182 -52
	v188"/>
<use id="nt0" transform="translate(-3,5) scale(0.018)"
	xlink:href="#unat"/>
</defs>
<use x="800.64" y="165.00" xlink:href="#nt0"/>
<path d="M806.14 165.00v36.20" class="stroke"/>
<use x="827.84" y="168.00" xlink:href="#hd"/>
<path d="M824.34 168.00v33.20" class="stroke"/>
<use x="845.94" y="171.00" xlink:href="#hd"/>
<path d="M842.44 171.00v30.20" class="stroke"/>
<use x="204.74" y="174.00" xlink:href="#hd"/>
<path d="M201.24 174.00v21.00" class="stroke"/>
</g>
<g stroke-width="0.70" transform="scale(0.867)" font-family="Times" font-size="13.00">
<path class="stroke" stroke-width="1"
	d="M11.54 316.00v-82.00"/>
<path class="fill"
	d="M6.54 231.00
	c10.5 1 12 -4.5 12 -3.5c0 1 -3.5 5.5 -8.5 5.5
	v84.00
	c5 0 8.5 4.5 8.5 5.5c0 1 -1.5 -4.5 -12 -3.5"/>
<use x="148.34" y="258.00" xlink:href="#rdots"/>
<path class="stroke" stroke-width="1"
	d="M144.34 258.00v-24.00"/>
<path class="stroke" stroke-width="3"
	d="M139.84 258.00v-24.00"/>
<use x="148.34" y="316.00" xlink:href="#rdots"/>
<path class="stroke" stroke-width="1"
	d="M144.34 316.00v-58.00"/>
<path class="stroke" stroke-width="3"
	d="M139.84 316.00v-58.00"/>
<path class="stroke" stroke-width="1"
	d="M230.94 258.00v-24.00"/>
<path class="stroke" stroke-width="1"
	d="M230.94 316.00v-58.00"/>
<path class="stroke" stroke-width="1"
	d="M325.54 258.00v-24.00"/>
<path class="stroke" stroke-width="1"
	d="M325.54 316.00v-58.00"/>
<path class="stroke" stroke-width="1"
	d="M430.94 258.00v-24.00"/>
<path class="stroke" stroke-width="1"
	d="M430.94 316.00v-58.00"/>
<path class="stroke" stroke-width="1"
	d="M506.64 258.00v-24.00"/>
<path class="stroke" stroke-width="1"
	d="M506.64 316.00v-58.00"/>
<path class="stroke" stroke-width="1"
	d="M582.24 258.00v-24.00"/>
<path class="stroke" stroke-width="1"
	d="M582.24 316.00v-58.00"/>
<path class="stroke" stroke-width="1"
	d="M687.74 258.00v-24.00"/>
<path class="stroke" stroke-width="1"
	d="M687.74 316.00v-58.00"/>
<path class="stroke" stroke-width="1"
	d="M783.64 258.00v-24.00"/>
<path class="stroke" stroke-width="1"
	d="M783.64 316.00v-58.00"/>
<path class="stroke" stroke-width="3"
	d="M860.54 258.00v-24.00"/>
<path class="stroke" stroke-width="1"
	d="M856.04 258.00v-24.00"/>
<use x="852.04" y="258.00" xlink:href="#rdots"/>
<path class="stroke" stroke-width="3"
	d="M860.54 316.00v-58.00"/>
<path class="stroke" stroke-width="1"
	d="M856.04 316.00v-58.00"/>
<use x="852.04" y="316.00" xlink:href="#rdots"/>
<path d="m11.54 258.00
	h850.50
	M11.54 252.00
	h850.50
	M11.54 246.00
	h850.50
	M11.54 240.00
	h850.50
	M11.54 234.00
	h850.50
	" class="stroke"/>
<path d="m11.54 316.00
	h850.50
	M11.54 310.00
	h850.50
	M11.54 304.00
	h850.50
	M11.54 298.00
	h850.50
	M11.54 292.00
	h850.50
	" class="stroke"/>
<path class="fill"
	d="M170.84 223.80c6.63 -3.52 35.75 -0.63 42.38 4.20
	v-0.24c-7.90 -6.59 -34.48 -9.47 -42.38 -3.96"/>
<path class="fill"
	d="M598.94 233.40c8.92 -3.28 51.15 2.06 60.07 7.60
	v-0.26c-10.72 -7.28 -49.35 -12.62 -60.07 -7.34"/>
<text x="47.54" y="219.40">2</text>
<path class="stroke"
	d="M43.54 208.00m0 20v-20h93.80v20"/>
<use x="23.54" y="252.00" xlink:href="#tclef"/>
<use x="56.34" y="231.00" xlink:href="#hd"/>
<path d="M52.84 231.00v40.00" class="stroke"/>
<use x="56.34" y="252.00" xlink:href="#hd"/>
<use x="56.34" y="246.00" xlink:href="#hd"/>
<use x="56.34" y="240.00" xlink:href="#hd"/>
<use x="112.84" y="246.00" xlink:href="#r8"/>
<path class="fill"
	d="M164.04 251.30l46.10 8.00v-3.20l-46.10 -8.00"/>
<use x="167.84" y="228.00" xlink:href="#hl"/>
<use x="167.84" y="228.00" xlink:href="#hd"/>
<path d="M164.34 228.00v22.40" class="stroke"/>
<use x="190.74" y="234.00" xlink:href="#hd"/>
<use x="181.74" y="234.00" xlink:href="#sh0"/>
<path d="M187.24 234.00v20.30" class="stroke"/>
<use x="213.24" y="240.00" xlink:href="#hd"/>
<path d="M209.74 240.00v18.20" class="stroke"/>
<path class="fill"
	d="M239.84 260.00l64.70 0.00v-3.20l-64.70 -0.00"/>
<path class="fill"
	d="M240.24 255.00l48.10 0.00v-3.20l-48.10 -0.00"/>
<use x="243.74" y="231.00" xlink:href="#hd"/>
<path d="M240.24 231.00v28.00" class="stroke"/>
<use x="259.74" y="228.00" xlink:href="#hl"/>
<use x="259.74" y="225.00" xlink:href="#hd"/>
<path d="M256.24 225.00v34.00" class="stroke"/>
<use x="275.74" y="231.00" xlink:href="#hd"/>
<path d="M272.24 231.00v28.00" class="stroke"/>
<use x="291.74" y="228.00" xlink:href="#hl"/>
<use x="291.74" y="225.00" xlink:href="#hd"/>
<path d="M288.24 225.00v34.00" class="stroke"/>
<use x="307.74" y="240.00" xlink:href="#hd"/>
<path d="M304.24 240.00v19.00" class="stroke"/>
<path class="fill"
	d="M334.44 264.10l64.70 7.10v-3.20l-64.70 -7.10"/>
<use x="338.24" y="237.00" xlink:href="#hd"/>
<path d="M334.74 237.00v26.20" class="stroke"/>
<use x="370.24" y="243.00" xlink:href="#hd"/>
<path d="M366.74 243.00v23.70" class="stroke"/>
<use x="402.34" y="252.00" xlink:href="#hd"/>
<path d="M398.84 252.00v18.20" class="stroke"/>
<path class="fill"
	d="M439.84 262.30l23.20 2.40v-3.20l-23.20 -2.40"/>
<use x="443.74" y="237.00" xlink:href="#hd"/>
<path d="M440.24 237.00v24.30" class="stroke"/>
<use x="443.74" y="243.00" xlink:href="#hd"/>
<use x="466.24" y="240.00" xlink:href="#hd"/>
<path d="M462.74 240.00v23.70" class="stroke"/>
<use x="466.24" y="246.00" xlink:href="#hd"/>
<use x="488.84" y="246.00" xlink:href="#r8"/>
<path class="fill"
	d="M522.54 224.00l45.80 0.00v3.20l-45.80 -0.00"/>
<use x="519.44" y="258.00" xlink:href="#hd"/>
<path d="M522.94 258.00v-33.00" class="stroke"/>
<use x="519.44" y="243.00" xlink:href="#hd"/>
<use x="541.94" y="258.00" xlink:href="#hd"/>
<path d="M545.44 258.00v-33.00" class="stroke"/>
<use x="541.94" y="243.00" xlink:href="#hd"/>
<use x="564.54" y="258.00" xlink:href="#hd"/>
<path d="M568.04 258.00v-33.00" class="stroke"/>
<use x="564.54" y="243.00" xlink:href="#hd"/>
<path class="fill"
	d="M591.14 264.10l64.70 7.10v-3.20l-64.70 -7.10"/>
<use x="594.94" y="237.00" xlink:href="#hd"/>
<path d="M591.44 237.00v26.20" class="stroke"/>
<use x="627.04" y="243.00" xlink:href="#hd"/>
<path d="M623.54 243.00v23.70" class="stroke"/>
<use x="659.04" y="252.00" xlink:href="#hd"/>
<path d="M655.54 252.00v18.20" class="stroke"/>
<path class="fill"
	d="M696.64 268.20l71.30 -8.20v-3.20l-71.30 8.20"/>
<path class="fill"
	d="M719.54 260.60l48.10 -5.50v-3.20l-48.10 5.50"/>
<use x="700.44" y="249.00" xlink:href="#hd"/>
<path d="M696.94 249.00v18.20" class="stroke"/>
<use x="723.04" y="234.00" xlink:href="#hd"/>
<path d="M719.54 234.00v30.60" class="stroke"/>
<use x="739.04" y="240.00" xlink:href="#hd"/>
<path d="M735.54 240.00v22.70" class="stroke"/>
<use x="755.04" y="228.00" xlink:href="#hl"/>
<use x="755.04" y="228.00" xlink:href="#hd"/>
<path d="M751.54 228.00v32.90" class="stroke"/>
<use x="771.04" y="231.00" xlink:href="#hd"/>
<path d="M767.54 231.00v28.00" class="stroke"/>
<use x="796.44" y="243.00" xlink:href="#hd"/>
<path d="M792.94 243.00v21.00" class="stroke"/>
<use x="841.54" y="246.00" xlink:href="#r8"/>
<use x="23.54" y="298.00" xlink:href="#bclef"/>
<path class="fill"
	d="M52.44 335.20l73.30 -5.20v-3.20l-73.30 5.20"/>
<path class="fill"
	d="M75.34 328.60l50.00 -3.50v-3.20l-50.00 3.50"/>
<use x="56.34" y="316.00" xlink:href="#hd"/>
<path d="M52.84 316.00v18.20" class="stroke"/>
<use x="78.84" y="289.00" xlink:href="#hd"/>
<path d="M75.34 289.00v43.60" class="stroke"/>
<use x="94.84" y="295.00" xlink:href="#hd"/>
<path d="M91.34 295.00v36.50" class="stroke"/>
<use x="112.84" y="298.00" xlink:href="#hd"/>
<use x="103.84" y="298.00" xlink:href="#sh0"/>
<path d="M109.34 298.00v32.20" class="stroke"/>
<use x="128.84" y="301.00" xlink:href="#hd"/>
<path d="M125.34 301.00v28.10" class="stroke"/>
<use x="167.84" y="298.00" xlink:href="#hd"/>
<use x="158.84" y="298.00" xlink:href="#sh0"/>
<path d="M164.34 298.00v25.00" class="stroke"/>
<use x="167.84" y="304.00" xlink:href="#hd"/>
<use x="213.24" y="298.00" xlink:href="#hd"/>
<path d="M209.74 298.00v28.00" class="stroke"/>
<path class="fill"
	d="M209.74 326.00c0.6 -5.6 9.6 -9 5.6 -18.4
	1.6 6 -1.3 11.6 -5.6 12.8
"/>
<use x="213.24" y="307.00" xlink:href="#hd"/>
<use x="243.74" y="310.00" xlink:href="#hd"/>
<path d="M247.24 310.00v-21.00" class="stroke"/>
<use x="307.74" y="304.00" xlink:href="#r8"/>
<path class="fill"
	d="M334.44 323.90l80.80 0.00v-3.20l-80.80 -0.00"/>
<path class="fill"
	d="M334.74 318.90l80.10 0.00v-3.20l-80.10 -0.00"/>
<use x="338.24" y="301.00" xlink:href="#hd"/>
<path d="M334.74 301.00v21.90" class="stroke"/>
<use x="338.24" y="307.00" xlink:href="#hd"/>
<use x="354.24" y="295.00" xlink:href="#hd"/>
<path d="M350.74 295.00v27.90" class="stroke"/>
<use x="370.24" y="301.00" xlink:href="#hd"/>
<path d="M366.74 301.00v21.90" class="stroke"/>
<use x="370.24" y="307.00" xlink:href="#hd"/>
<use x="386.34" y="295.00" xlink:href="#hd"/>
<path d="M382.84 295.00v27.90" class="stroke"/>
<use x="402.34" y="301.00" xlink:href="#hd"/>
<path d="M398.84 301.00v21.90" class="stroke"/>
<use x="402.34" y="307.00" xlink:href="#hd"/>
<use x="418.34" y="295.00" xlink:href="#hd"/>
<path d="M414.84 295.00v27.90" class="stroke"/>
<use x="443.74" y="295.00" xlink:href="#hd"/>
<path d="M440.24 295.00v21.00" class="stroke"/>
<use x="488.84" y="316.00" xlink:href="#hd"/>
<path d="M492.34 316.00v-21.00" class="stroke"/>
<path class="fill"
	d="M492.34 295.00c0.6 5.6 9.6 9 5.6 18.4
	1.6 -6 -1.3 -11.6 -5.6 -12.8
"/>
<path class="fill"
	d="M522.54 286.00l45.80 0.00v3.20l-45.80 -0.00"/>
<use x="519.44" y="307.00" xlink:href="#hd"/>
<path d="M522.94 307.00v-20.00" class="stroke"/>
<use x="541.94" y="307.00" xlink:href="#hd"/>
<path d="M545.44 307.00v-20.00" class="stroke"/>
<use x="564.54" y="307.00" xlink:href="#hd"/>
<path d="M568.04 307.00v-20.00" class="stroke"/>
<path class="fill"
	d="M591.14 323.90l80.80 0.00v-3.20l-80.80 -0.00"/>
<path class="fill"
	d="M591.44 318.90l80.10 0.00v-3.20l-80.10 -0.00"/>
<use x="594.94" y="301.00" xlink:href="#hd"/>
<path d="M591.44 301.00v21.90" class="stroke"/>
<use x="594.94" y="307.00" xlink:href="#hd"/>
<use x="611.04" y="295.00" xlink:href="#hd"/>
<path d="M607.54 295.00v27.90" class="stroke"/>
<use x="627.04" y="301.00" xlink:href="#hd"/>
<path d="M623.54 301.00v21.90" class="stroke"/>
<use x="627.04" y="307.00" xlink:href="#hd"/>
<use x="643.04" y="295.00" xlink:href="#hd"/>
<path d="M639.54 295.00v27.90" class="stroke"/>
<use x="659.04" y="301.00" xlink:href="#hd"/>
<path d="M655.54 301.00v21.90" class="stroke"/>
<use x="659.04" y="307.00" xlink:href="#hd"/>
<use x="675.04" y="295.00" xlink:href="#hd"/>
<path d="M671.54 295.00v27.90" class="stroke"/>
<use x="700.44" y="298.00" xlink:href="#hd"/>
<path d="M696.94 298.00v21.00" class="stroke"/>
<use x="755.04" y="295.00" xlink:href="#hd"/>
<path d="M751.54 295.00v21.00" class="stroke"/>
<path class="fill"
	d="M751.54 316.00c0.6 -5.6 9.6 -9 5.6 -18.4
	1.6 6 -1.3 11.6 -5.6 12.8
"/>
<path class="fill"
	d="M799.64 287.70l45.80 10.20v3.20l-45.80 -10.20"/>
<use x="796.44" y="307.00" xlink:href="#hd"/>
<path d="M799.94 307.00v-18.20" class="stroke"/>
<use x="818.94" y="316.00" xlink:href="#hd"/>
<path d="M822.44 316.00v-22.20" class="stroke"/>
<use x="841.54" y="322.00" xlink:href="#hl"/>
<use x="841.54" y="328.00" xlink:href="#hl"/>
<use x="841.54" y="328.00" xlink:href="#hd"/>
<path d="M845.04 328.00v-29.20" class="stroke"/>
</g>
</svg>
