<?xml version="1.0" standalone="no"?>
<!DOCTYPE svg PUBLIC "-//W3C//DTD SVG 1.1//EN"
	"http://www.w3.org/Graphics/SVG/1.1/DTD/svg11.dtd">
<svg xmlns="http://www.w3.org/2000/svg" version="1.1"
	xmlns:xlink="http://www.w3.org/1999/xlink"
	color="black"
	width="757.10px" height="299.87px">
<style type="text/css">
.fill {fill: currentColor}
.stroke {stroke: currentColor; fill: none}
text{white-space: pre}
</style>
<title>./K516f-12-8-12-6-4-7-11-5-7-11-11-11-9-4-2-11.abc (8530) tune 1</title>
<!-- Creator: abcm2ps-8.13.8 -->
<!-- CreationDate: Sep  7, 2017 11:19 -->
<!-- CommandLine: ./K516f-12-8-12-6-4-7-11-5-7-11-11-11-9-4-2-11.abc -O ./K516f-12-8-12-6-4-7-11-5-7-11-11-11-9-4-2-11.svg -g -->
<rect width="100%" height="100%" fill="white"/>
<g stroke-width="0.70" transform="scale(0.867)">
<!-- title: 12-8-12-6-4-7-11-5-7-11-11-11-9-4-2-11 -->
</g>
<g stroke-width="0.70" transform="scale(0.867)" font-family="Times" font-size="20.00">
<text x="436.84" y="22.00" text-anchor="middle">12-8-12-6-4-7-11-5-7-11-11-11-9-4-2-11</text>
</g>
<g stroke-width="0.70" transform="scale(0.867)" font-family="Times" font-size="20.00">
<!-- subtitle: $1K.516f::54:60:10:45:153:68:147:100:138:4:31:164:51:58:109:78::$0 -->
</g>
<g stroke-width="0.70" transform="scale(0.867)" font-family="Courier" font-size="8.00" font-weight="bold">
<text x="436.84" y="41.80" text-anchor="middle">K.516f::54:60:10:45:153:68:147:100:138:4:31:164:51:58:109:78::</text>
</g>
<g stroke-width="0.70" transform="scale(0.867)" font-family="Courier" font-size="8.00" font-weight="bold">
<!-- subtitle: $1Perm. No.: 8530740249328$0 -->
<text x="436.84" y="60.80" text-anchor="middle">Perm. No.: 8530740249328</text>
</g>
<g stroke-width="0.70" transform="scale(0.607)" font-family="Courier" font-size="8.00" font-weight="bold">
<defs>
<ellipse id="hd" rx="4.1" ry="2.9"
	transform="rotate(-20)" class="fill"/>
</defs>
<use x="103.06" y="121.29" xlink:href="#hd"/>
<path d="M106.56 121.29v-21.00" class="stroke"/>
<path class="fill"
	d="M106.56 100.29c0.6 5.6 9.6 9 5.6 18.4
	1.6 -6 -1.3 -11.6 -5.6 -12.8
"/>
</g>
<g stroke-width="0.70" transform="scale(0.867)" font-family="Times" font-size="15.00" font-weight="bold">
<text x="81.24" y="87.00">= 111</text>
<path class="stroke" stroke-width="1"
	d="M11.54 187.00v-82.00"/>
<path class="fill"
	d="M6.54 102.00
	c10.5 1 12 -4.5 12 -3.5c0 1 -3.5 5.5 -8.5 5.5
	v84.00
	c5 0 8.5 4.5 8.5 5.5c0 1 -1.5 -4.5 -12 -3.5"/>
<defs>
<g id="rdots" class="fill">
	<circle cx="0" cy="-9" r="1.2"/>
	<circle cx="0" cy="-15" r="1.2"/>
</g>
</defs>
<use x="70.54" y="129.00" xlink:href="#rdots"/>
<path class="stroke" stroke-width="1"
	d="M66.54 129.00v-24.00"/>
<path class="stroke" stroke-width="3"
	d="M62.04 129.00v-24.00"/>
<use x="70.54" y="187.00" xlink:href="#rdots"/>
<path class="stroke" stroke-width="1"
	d="M66.54 187.00v-58.00"/>
<path class="stroke" stroke-width="3"
	d="M62.04 187.00v-58.00"/>
<path class="stroke" stroke-width="1"
	d="M146.74 129.00v-24.00"/>
<path class="stroke" stroke-width="1"
	d="M146.74 187.00v-58.00"/>
<path class="stroke" stroke-width="1"
	d="M242.44 129.00v-24.00"/>
<path class="stroke" stroke-width="1"
	d="M242.44 187.00v-58.00"/>
<path class="stroke" stroke-width="1"
	d="M347.54 129.00v-24.00"/>
<path class="stroke" stroke-width="1"
	d="M347.54 187.00v-58.00"/>
<path class="stroke" stroke-width="1"
	d="M452.64 129.00v-24.00"/>
<path class="stroke" stroke-width="1"
	d="M452.64 187.00v-58.00"/>
<path class="stroke" stroke-width="1"
	d="M559.84 129.00v-24.00"/>
<path class="stroke" stroke-width="1"
	d="M559.84 187.00v-58.00"/>
<path class="stroke" stroke-width="1"
	d="M655.44 129.00v-24.00"/>
<path class="stroke" stroke-width="1"
	d="M655.44 187.00v-58.00"/>
<path class="stroke" stroke-width="1"
	d="M762.64 129.00v-24.00"/>
<path class="stroke" stroke-width="1"
	d="M762.64 187.00v-58.00"/>
<path class="stroke" stroke-width="3"
	d="M860.54 129.00v-24.00"/>
<path class="stroke" stroke-width="1"
	d="M856.04 129.00v-24.00"/>
<use x="852.04" y="129.00" xlink:href="#rdots"/>
<path class="stroke" stroke-width="3"
	d="M860.54 187.00v-58.00"/>
<path class="stroke" stroke-width="1"
	d="M856.04 187.00v-58.00"/>
<use x="852.04" y="187.00" xlink:href="#rdots"/>
<path d="m11.54 129.00
	h850.50
	M11.54 123.00
	h850.50
	M11.54 117.00
	h850.50
	M11.54 111.00
	h850.50
	M11.54 105.00
	h850.50
	" class="stroke"/>
<path d="m11.54 187.00
	h850.50
	M11.54 181.00
	h850.50
	M11.54 175.00
	h850.50
	M11.54 169.00
	h850.50
	M11.54 163.00
	h850.50
	" class="stroke"/>
</g>
<g stroke-width="0.70" transform="scale(0.867)" font-family="Times" font-size="13.00">
<text x="766.64" y="90.40">1</text>
<path class="stroke"
	d="M762.64 79.00m0 20v-20h91.40v20"/>
<defs>
<path id="utclef" class="fill" d="m-50 -90
	c-72 -41 -72 -158 52 -188
	150 -10 220 188 90 256
	-114 52 -275 0 -293 -136
	-15 -181 93 -229 220 -334
	88 -87 79 -133 62 -210
	-51 33 -94 105 -89 186
	17 267 36 374 49 574
	6 96 -19 134 -77 135
	-80 1 -126 -93 -61 -133
	85 -41 133 101 31 105
	23 17 92 37 90 -92
	-10 -223 -39 -342 -50 -617
	0 -90 0 -162 96 -232
	56 72 63 230 22 289
	-74 106 -257 168 -255 316
	9 153 148 185 252 133
	86 -65 29 -192 -80 -176
	-71 12 -105 67 -59 124"/>
<use id="tclef" transform="translate(0,6) scale(0.045)"
	xlink:href="#utclef"/>
</defs>
<use x="23.54" y="123.00" xlink:href="#tclef"/>
<g font-family="serif" font-size="16" font-weight="bold" font-style="normal"
	transform="translate(42.04,128.50) scale(1.2,1)">
	<text text-anchor="middle">8</text>
	<text y="-12" text-anchor="middle">3</text>
</g>
<path class="fill"
	d="M87.44 95.00l45.50 0.00v3.20l-45.50 -0.00"/>
<use x="84.34" y="129.00" xlink:href="#hd"/>
<path d="M87.84 129.00v-33.00" class="stroke"/>
<use x="84.34" y="114.00" xlink:href="#hd"/>
<use x="106.74" y="129.00" xlink:href="#hd"/>
<path d="M110.24 129.00v-33.00" class="stroke"/>
<use x="106.74" y="114.00" xlink:href="#hd"/>
<use x="129.14" y="129.00" xlink:href="#hd"/>
<path d="M132.64 129.00v-33.00" class="stroke"/>
<use x="129.14" y="114.00" xlink:href="#hd"/>
<path class="fill"
	d="M155.64 127.10l70.90 9.10v-3.20l-70.90 -9.10"/>
<path class="fill"
	d="M178.44 125.10l47.80 6.10v-3.20l-47.80 -6.10"/>
<use x="159.54" y="102.00" xlink:href="#hd"/>
<path d="M156.04 102.00v24.20" class="stroke"/>
<use x="181.94" y="105.00" xlink:href="#hd"/>
<path d="M178.44 105.00v24.10" class="stroke"/>
<use x="197.84" y="108.00" xlink:href="#hd"/>
<path d="M194.34 108.00v23.10" class="stroke"/>
<use x="213.84" y="111.00" xlink:href="#hd"/>
<path d="M210.34 111.00v22.20" class="stroke"/>
<use x="229.74" y="114.00" xlink:href="#hd"/>
<path d="M226.24 114.00v21.20" class="stroke"/>
<path class="fill"
	d="M251.34 142.20l80.40 0.00v-3.20l-80.40 -0.00"/>
<path class="fill"
	d="M251.64 137.20l79.70 0.00v-3.20l-79.70 -0.00"/>
<use x="255.14" y="117.00" xlink:href="#hd"/>
<path d="M251.64 117.00v24.20" class="stroke"/>
<use x="271.14" y="120.00" xlink:href="#hd"/>
<path d="M267.64 120.00v21.20" class="stroke"/>
<use x="287.04" y="117.00" xlink:href="#hd"/>
<path d="M283.54 117.00v24.20" class="stroke"/>
<use x="303.04" y="114.00" xlink:href="#hd"/>
<path d="M299.54 114.00v27.20" class="stroke"/>
<use x="318.94" y="111.00" xlink:href="#hd"/>
<path d="M315.44 111.00v30.20" class="stroke"/>
<use x="334.84" y="117.00" xlink:href="#hd"/>
<path d="M331.34 117.00v24.20" class="stroke"/>
<path class="fill"
	d="M363.44 87.90l80.40 9.80v3.20l-80.40 -9.80"/>
<path class="fill"
	d="M363.74 92.90l79.70 9.70v3.20l-79.70 -9.70"/>
<use x="360.24" y="114.00" xlink:href="#hd"/>
<path d="M363.74 114.00v-25.10" class="stroke"/>
<use x="376.24" y="117.00" xlink:href="#hd"/>
<path d="M379.74 117.00v-26.10" class="stroke"/>
<use x="392.14" y="114.00" xlink:href="#hd"/>
<path d="M395.64 114.00v-21.20" class="stroke"/>
<use x="408.14" y="123.00" xlink:href="#hd"/>
<path d="M411.64 123.00v-28.30" class="stroke"/>
<use x="424.04" y="129.00" xlink:href="#hd"/>
<path d="M427.54 129.00v-32.30" class="stroke"/>
<defs>
<path id="hl" class="stroke" d="m-6 0h12"/>
</defs>
<use x="440.04" y="135.00" xlink:href="#hl"/>
<use x="440.04" y="135.00" xlink:href="#hd"/>
<path d="M443.54 135.00v-36.40" class="stroke"/>
<path class="fill"
	d="M461.54 143.50l82.50 -6.40v-3.20l-82.50 6.40"/>
<path class="fill"
	d="M461.94 138.40l81.80 -6.30v-3.20l-81.80 6.30"/>
<use x="465.44" y="111.00" xlink:href="#hd"/>
<path d="M461.94 111.00v31.40" class="stroke"/>
<use x="481.34" y="120.00" xlink:href="#hd"/>
<path d="M477.84 120.00v21.20" class="stroke"/>
<use x="499.34" y="105.00" xlink:href="#hd"/>
<defs>
<path id="usharp" class="fill" d="
	m136 -702
	v890
	h32
	v-890
	m128 840
	h32
	v-888
	h-32
	m-232 286
	v116
	l338 -96
	v-116
	m-338 442
	v116
	l338 -98
	v-114"/>
<use id="sh0" transform="translate(-4,5) scale(0.018)"
	xlink:href="#usharp"/>
</defs>
<use x="490.34" y="105.00" xlink:href="#sh0"/>
<path d="M495.84 105.00v34.80" class="stroke"/>
<use x="515.24" y="111.00" xlink:href="#hd"/>
<path d="M511.74 111.00v27.60" class="stroke"/>
<use x="531.24" y="99.00" xlink:href="#hl"/>
<use x="531.24" y="99.00" xlink:href="#hd"/>
<path d="M527.74 99.00v38.30" class="stroke"/>
<use x="547.14" y="105.00" xlink:href="#hd"/>
<path d="M543.64 105.00v31.10" class="stroke"/>
<path class="fill"
	d="M568.74 131.00l70.90 0.00v-3.20l-70.90 -0.00"/>
<path class="fill"
	d="M591.44 126.00l47.80 0.00v-3.20l-47.80 -0.00"/>
<use x="572.54" y="102.00" xlink:href="#hd"/>
<path d="M569.04 102.00v28.00" class="stroke"/>
<use x="594.94" y="99.00" xlink:href="#hl"/>
<use x="594.94" y="96.00" xlink:href="#hd"/>
<path d="M591.44 96.00v34.00" class="stroke"/>
<use x="610.94" y="102.00" xlink:href="#hd"/>
<path d="M607.44 102.00v28.00" class="stroke"/>
<use x="626.84" y="111.00" xlink:href="#hd"/>
<path d="M623.34 111.00v19.00" class="stroke"/>
<use x="642.84" y="102.00" xlink:href="#hd"/>
<path d="M639.34 102.00v28.00" class="stroke"/>
<path class="fill"
	d="M664.34 131.00l82.50 0.00v-3.20l-82.50 -0.00"/>
<path class="fill"
	d="M664.74 126.00l81.80 0.00v-3.20l-81.80 -0.00"/>
<use x="668.24" y="108.00" xlink:href="#hd"/>
<path d="M664.74 108.00v22.00" class="stroke"/>
<use x="684.14" y="99.00" xlink:href="#hl"/>
<use x="684.14" y="93.00" xlink:href="#hl"/>
<use x="684.14" y="93.00" xlink:href="#hd"/>
<path d="M680.64 93.00v37.00" class="stroke"/>
<use x="700.14" y="99.00" xlink:href="#hl"/>
<use x="700.14" y="96.00" xlink:href="#hd"/>
<path d="M696.64 96.00v34.00" class="stroke"/>
<use x="716.04" y="102.00" xlink:href="#hd"/>
<path d="M712.54 102.00v28.00" class="stroke"/>
<use x="732.04" y="99.00" xlink:href="#hl"/>
<use x="732.04" y="99.00" xlink:href="#hd"/>
<path d="M728.54 99.00v31.00" class="stroke"/>
<use x="750.04" y="105.00" xlink:href="#hd"/>
<use x="741.04" y="105.00" xlink:href="#sh0"/>
<path d="M746.54 105.00v25.00" class="stroke"/>
<use x="775.44" y="102.00" xlink:href="#hd"/>
<path d="M771.94 102.00v40.00" class="stroke"/>
<use x="775.44" y="123.00" xlink:href="#hd"/>
<use x="775.44" y="117.00" xlink:href="#hd"/>
<use x="775.44" y="111.00" xlink:href="#hd"/>
<defs>
<path id="r8e" class="fill" d="m 0 0
	c-1.5 1.5 -2.4 2 -3.6 2
	2.4 -2.8 -2.8 -4 -2.8 -1.2
	c0 2.7 4.3 2.4 5.9 0.6"/>
<g id="r8">
	<path d="m3.3 -4l-3.4 9.6" class="stroke"/>
	<use x="3.4" y="-4" xlink:href="#r8e"/>
</g>
</defs>
<use x="831.74" y="117.00" xlink:href="#r8"/>
<defs>
<path id="ubclef" class="fill" d="m-200 -87
	c124 -35 222 -78 254 -236
	43 -228 -167 -246 -192 -103
	59 -80 157 22 92 78
	-62 47 -115 -22 -106 -88
	21 -141 270 -136 274 52
	-1 175 -106 264 -322 297
	m357 -250
	c0 -36 51 -34 51 0
	0 37 -51 36 -51 0
	m-2 -129
	c0 -36 51 -34 51 0
	0 38 -51 37 -51 0"/>
<use id="bclef" transform="translate(0,18) scale(0.045)"
	xlink:href="#ubclef"/>
</defs>
<use x="23.54" y="169.00" xlink:href="#bclef"/>
<g font-family="serif" font-size="16" font-weight="bold" font-style="normal"
	transform="translate(42.04,186.50) scale(1.2,1)">
	<text text-anchor="middle">8</text>
	<text y="-12" text-anchor="middle">3</text>
</g>
<path class="fill"
	d="M87.44 157.00l45.50 0.00v3.20l-45.50 -0.00"/>
<use x="84.34" y="178.00" xlink:href="#hd"/>
<path d="M87.84 178.00v-20.00" class="stroke"/>
<use x="106.74" y="178.00" xlink:href="#hd"/>
<path d="M110.24 178.00v-20.00" class="stroke"/>
<use x="129.14" y="178.00" xlink:href="#hd"/>
<path d="M132.64 178.00v-20.00" class="stroke"/>
<use x="159.54" y="172.00" xlink:href="#hd"/>
<path d="M156.04 172.00v25.00" class="stroke"/>
<use x="159.54" y="178.00" xlink:href="#hd"/>
<use x="213.84" y="175.00" xlink:href="#r8"/>
<use x="255.14" y="166.00" xlink:href="#hd"/>
<path d="M251.64 166.00v21.00" class="stroke"/>
<use x="318.94" y="175.00" xlink:href="#r8"/>
<use x="360.24" y="166.00" xlink:href="#hd"/>
<path d="M356.74 166.00v25.00" class="stroke"/>
<use x="360.24" y="172.00" xlink:href="#hd"/>
<use x="424.04" y="175.00" xlink:href="#r8"/>
<use x="465.44" y="178.00" xlink:href="#hd"/>
<path d="M468.94 178.00v-21.00" class="stroke"/>
<use x="531.24" y="175.00" xlink:href="#r8"/>
<use x="572.54" y="181.00" xlink:href="#hd"/>
<path d="M576.04 181.00v-21.00" class="stroke"/>
<use x="626.84" y="175.00" xlink:href="#r8"/>
<path class="fill"
	d="M671.34 151.70l64.50 8.20v3.20l-64.50 -8.20"/>
<use x="668.24" y="178.00" xlink:href="#hd"/>
<path d="M671.74 178.00v-25.20" class="stroke"/>
<use x="700.14" y="175.00" xlink:href="#hd"/>
<path d="M703.64 175.00v-18.20" class="stroke"/>
<use x="732.04" y="193.00" xlink:href="#hl"/>
<use x="732.04" y="196.00" xlink:href="#hd"/>
<path d="M735.54 196.00v-35.20" class="stroke"/>
<path class="fill"
	d="M771.54 206.20l73.00 0.00v-3.20l-73.00 -0.00"/>
<path class="fill"
	d="M794.34 201.20l49.90 0.00v-3.20l-49.90 -0.00"/>
<use x="775.44" y="187.00" xlink:href="#hd"/>
<path d="M771.94 187.00v18.20" class="stroke"/>
<use x="797.84" y="166.00" xlink:href="#hd"/>
<path d="M794.34 166.00v39.20" class="stroke"/>
<use x="815.84" y="169.00" xlink:href="#hd"/>
<defs>
<path id="unat" class="fill" d="
	m96 -750
	h-32
	v716
	l32 -8
	182 -54
	v282
	h32
	v-706
	l-34 10
	-180 50
	v-290
	m0 592
	v-190
	l182 -52
	v188"/>
<use id="nt0" transform="translate(-3,5) scale(0.018)"
	xlink:href="#unat"/>
</defs>
<use x="806.84" y="169.00" xlink:href="#nt0"/>
<path d="M812.34 169.00v36.20" class="stroke"/>
<use x="831.74" y="172.00" xlink:href="#hd"/>
<path d="M828.24 172.00v33.20" class="stroke"/>
<use x="847.74" y="175.00" xlink:href="#hd"/>
<path d="M844.24 175.00v30.20" class="stroke"/>
</g>
<g stroke-width="0.70" transform="scale(0.867)" font-family="Times" font-size="13.00">
<path class="stroke" stroke-width="1"
	d="M11.54 320.00v-82.00"/>
<path class="fill"
	d="M6.54 235.00
	c10.5 1 12 -4.5 12 -3.5c0 1 -3.5 5.5 -8.5 5.5
	v84.00
	c5 0 8.5 4.5 8.5 5.5c0 1 -1.5 -4.5 -12 -3.5"/>
<use x="140.34" y="262.00" xlink:href="#rdots"/>
<path class="stroke" stroke-width="1"
	d="M136.34 262.00v-24.00"/>
<path class="stroke" stroke-width="3"
	d="M131.84 262.00v-24.00"/>
<use x="140.34" y="320.00" xlink:href="#rdots"/>
<path class="stroke" stroke-width="1"
	d="M136.34 320.00v-58.00"/>
<path class="stroke" stroke-width="3"
	d="M131.84 320.00v-58.00"/>
<path class="stroke" stroke-width="1"
	d="M249.94 262.00v-24.00"/>
<path class="stroke" stroke-width="1"
	d="M249.94 320.00v-58.00"/>
<path class="stroke" stroke-width="1"
	d="M326.34 262.00v-24.00"/>
<path class="stroke" stroke-width="1"
	d="M326.34 320.00v-58.00"/>
<path class="stroke" stroke-width="1"
	d="M403.34 262.00v-24.00"/>
<path class="stroke" stroke-width="1"
	d="M403.34 320.00v-58.00"/>
<path class="stroke" stroke-width="1"
	d="M503.24 262.00v-24.00"/>
<path class="stroke" stroke-width="1"
	d="M503.24 320.00v-58.00"/>
<path class="stroke" stroke-width="1"
	d="M597.64 262.00v-24.00"/>
<path class="stroke" stroke-width="1"
	d="M597.64 320.00v-58.00"/>
<path class="stroke" stroke-width="1"
	d="M692.04 262.00v-24.00"/>
<path class="stroke" stroke-width="1"
	d="M692.04 320.00v-58.00"/>
<path class="stroke" stroke-width="1"
	d="M786.44 262.00v-24.00"/>
<path class="stroke" stroke-width="1"
	d="M786.44 320.00v-58.00"/>
<path class="stroke" stroke-width="3"
	d="M860.54 262.00v-24.00"/>
<path class="stroke" stroke-width="1"
	d="M856.04 262.00v-24.00"/>
<use x="852.04" y="262.00" xlink:href="#rdots"/>
<path class="stroke" stroke-width="3"
	d="M860.54 320.00v-58.00"/>
<path class="stroke" stroke-width="1"
	d="M856.04 320.00v-58.00"/>
<use x="852.04" y="320.00" xlink:href="#rdots"/>
<path d="m11.54 262.00
	h850.50
	M11.54 256.00
	h850.50
	M11.54 250.00
	h850.50
	M11.54 244.00
	h850.50
	M11.54 238.00
	h850.50
	" class="stroke"/>
<path d="m11.54 320.00
	h850.50
	M11.54 314.00
	h850.50
	M11.54 308.00
	h850.50
	M11.54 302.00
	h850.50
	M11.54 296.00
	h850.50
	" class="stroke"/>
<text x="47.54" y="223.40">2</text>
<path class="stroke"
	d="M43.54 212.00m0 20v-20h85.80v20"/>
<use x="23.54" y="256.00" xlink:href="#tclef"/>
<use x="56.04" y="235.00" xlink:href="#hd"/>
<path d="M52.54 235.00v40.00" class="stroke"/>
<use x="56.04" y="256.00" xlink:href="#hd"/>
<use x="56.04" y="250.00" xlink:href="#hd"/>
<use x="56.04" y="244.00" xlink:href="#hd"/>
<use x="106.94" y="250.00" xlink:href="#r8"/>
<use x="159.84" y="238.00" xlink:href="#hd"/>
<use x="150.84" y="238.00" xlink:href="#sh0"/>
<path d="M156.34 238.00v34.00" class="stroke"/>
<path class="fill"
	d="M156.34 272.00c0.6 -5.6 9.6 -9 5.6 -18.4
	1.6 6 -1.3 11.6 -5.6 12.8
"/>
<use x="159.84" y="253.00" xlink:href="#hd"/>
<use x="159.84" y="244.00" xlink:href="#hd"/>
<use x="191.74" y="238.00" xlink:href="#hd"/>
<path d="M188.24 238.00v21.00" class="stroke"/>
<use x="262.44" y="235.00" xlink:href="#hd"/>
<path d="M258.94 235.00v21.00" class="stroke"/>
<path class="fill"
	d="M258.94 256.00c0.6 -5.6 9.6 -9 5.6 -18.4
	1.6 6 -1.3 11.6 -5.6 12.8
"/>
<use x="291.64" y="244.00" xlink:href="#hd"/>
<path d="M288.14 244.00v21.00" class="stroke"/>
<path class="fill"
	d="M335.04 269.70l28.40 5.60v-3.20l-28.40 -5.60"/>
<path class="fill"
	d="M335.34 264.70l13.90 2.70v-3.20l-13.90 -2.70"/>
<use x="338.84" y="241.00" xlink:href="#hd"/>
<path d="M335.34 241.00v27.70" class="stroke"/>
<use x="352.74" y="247.00" xlink:href="#hd"/>
<path d="M349.24 247.00v24.50" class="stroke"/>
<use x="366.64" y="256.00" xlink:href="#hd"/>
<path d="M363.14 256.00v18.20" class="stroke"/>
<use x="387.64" y="241.00" xlink:href="#hd"/>
<path d="M384.14 241.00v21.00" class="stroke"/>
<path class="fill"
	d="M384.14 262.00c0.6 -5.6 9.6 -9 5.6 -18.4
	1.6 6 -1.3 11.6 -5.6 12.8
"/>
<use x="415.84" y="244.00" xlink:href="#hd"/>
<path d="M412.34 244.00v21.00" class="stroke"/>
<path class="fill"
	d="M412.34 265.00c0.6 -5.6 9.6 -9 5.6 -18.4
	1.6 6 -1.3 11.6 -5.6 12.8
"/>
<use x="449.04" y="256.00" xlink:href="#hd"/>
<path d="M452.54 256.00v-21.00" class="stroke"/>
<path class="fill"
	d="M511.94 279.50l70.10 -6.20v-3.20l-70.10 6.20"/>
<path class="fill"
	d="M512.24 274.40l69.40 -6.10v-3.20l-69.40 6.10"/>
<use x="515.74" y="247.00" xlink:href="#hd"/>
<path d="M512.24 247.00v31.40" class="stroke"/>
<use x="529.64" y="256.00" xlink:href="#hd"/>
<path d="M526.14 256.00v21.20" class="stroke"/>
<use x="543.54" y="241.00" xlink:href="#hd"/>
<path d="M540.04 241.00v35.00" class="stroke"/>
<use x="557.34" y="247.00" xlink:href="#hd"/>
<path d="M553.84 247.00v27.70" class="stroke"/>
<use x="571.24" y="235.00" xlink:href="#hd"/>
<path d="M567.74 235.00v38.50" class="stroke"/>
<use x="585.14" y="241.00" xlink:href="#hd"/>
<path d="M581.64 241.00v31.30" class="stroke"/>
<path class="fill"
	d="M606.34 257.80l56.20 8.50v-3.20l-56.20 -8.50"/>
<use x="610.14" y="235.00" xlink:href="#hd"/>
<path d="M606.64 235.00v21.80" class="stroke"/>
<use x="637.94" y="241.00" xlink:href="#hd"/>
<path d="M634.44 241.00v20.00" class="stroke"/>
<use x="665.64" y="247.00" xlink:href="#hd"/>
<path d="M662.14 247.00v18.20" class="stroke"/>
<path class="fill"
	d="M700.74 270.00l70.10 0.00v-3.20l-70.10 -0.00"/>
<path class="fill"
	d="M701.04 265.00l69.40 0.00v-3.20l-69.40 -0.00"/>
<use x="704.54" y="244.00" xlink:href="#hd"/>
<path d="M701.04 244.00v24.90" class="stroke"/>
<use x="718.44" y="238.00" xlink:href="#hd"/>
<path d="M714.94 238.00v30.90" class="stroke"/>
<use x="732.34" y="244.00" xlink:href="#hd"/>
<path d="M728.84 244.00v24.90" class="stroke"/>
<use x="746.24" y="238.00" xlink:href="#hd"/>
<path d="M742.74 238.00v30.90" class="stroke"/>
<use x="760.14" y="250.00" xlink:href="#hd"/>
<path d="M756.64 250.00v18.90" class="stroke"/>
<use x="773.94" y="244.00" xlink:href="#hd"/>
<path d="M770.44 244.00v24.90" class="stroke"/>
<path class="fill"
	d="M802.14 227.70l19.70 6.80v3.20l-19.70 -6.80"/>
<use x="798.94" y="247.00" xlink:href="#hd"/>
<path d="M802.44 247.00v-18.20" class="stroke"/>
<use x="818.04" y="268.00" xlink:href="#hl"/>
<use x="818.04" y="268.00" xlink:href="#hd"/>
<path d="M821.54 268.00v-32.70" class="stroke"/>
<use x="837.04" y="250.00" xlink:href="#r8"/>
<use x="23.54" y="302.00" xlink:href="#bclef"/>
<path class="fill"
	d="M52.24 339.20l65.50 0.00v-3.20l-65.50 -0.00"/>
<path class="fill"
	d="M71.54 334.20l45.80 0.00v-3.20l-45.80 -0.00"/>
<use x="56.04" y="320.00" xlink:href="#hd"/>
<path d="M52.54 320.00v18.20" class="stroke"/>
<use x="75.04" y="293.00" xlink:href="#hd"/>
<path d="M71.54 293.00v45.20" class="stroke"/>
<use x="88.94" y="299.00" xlink:href="#hd"/>
<path d="M85.44 299.00v39.20" class="stroke"/>
<use x="106.94" y="302.00" xlink:href="#hd"/>
<use x="97.94" y="302.00" xlink:href="#sh0"/>
<path d="M103.44 302.00v36.20" class="stroke"/>
<use x="120.84" y="305.00" xlink:href="#hd"/>
<path d="M117.34 305.00v33.20" class="stroke"/>
<path class="fill"
	d="M163.04 287.00l78.30 -6.80v3.20l-78.30 6.80"/>
<path class="fill"
	d="M163.34 292.00l77.70 -6.70v3.20l-77.70 6.70"/>
<use x="159.84" y="326.00" xlink:href="#hl"/>
<use x="159.84" y="329.00" xlink:href="#hd"/>
<path d="M163.34 329.00v-41.00" class="stroke"/>
<use x="173.74" y="308.00" xlink:href="#hd"/>
<path d="M177.24 308.00v-21.20" class="stroke"/>
<use x="191.74" y="311.00" xlink:href="#hd"/>
<use x="182.74" y="311.00" xlink:href="#sh0"/>
<path d="M195.24 311.00v-25.80" class="stroke"/>
<use x="205.64" y="308.00" xlink:href="#hd"/>
<path d="M209.14 308.00v-24.00" class="stroke"/>
<use x="223.64" y="311.00" xlink:href="#hd"/>
<use x="214.64" y="311.00" xlink:href="#sh0"/>
<path d="M227.14 311.00v-28.50" class="stroke"/>
<use x="237.44" y="308.00" xlink:href="#hd"/>
<path d="M240.94 308.00v-26.70" class="stroke"/>
<path class="fill"
	d="M258.64 342.30l48.90 -10.30v-3.20l-48.90 10.30"/>
<path class="fill"
	d="M258.94 337.20l13.90 -2.90v-3.20l-13.90 2.90"/>
<use x="262.44" y="320.00" xlink:href="#hd"/>
<path d="M258.94 320.00v21.20" class="stroke"/>
<use x="276.34" y="314.00" xlink:href="#hd"/>
<path d="M272.84 314.00v24.30" class="stroke"/>
<use x="291.64" y="299.00" xlink:href="#hd"/>
<path d="M288.14 299.00v36.10" class="stroke"/>
<use x="310.64" y="293.00" xlink:href="#hd"/>
<path d="M307.14 293.00v38.10" class="stroke"/>
<use x="338.84" y="299.00" xlink:href="#hd"/>
<path d="M335.34 299.00v31.00" class="stroke"/>
<use x="338.84" y="311.00" xlink:href="#hd"/>
<use x="387.64" y="299.00" xlink:href="#hd"/>
<path d="M384.14 299.00v31.00" class="stroke"/>
<path class="fill"
	d="M384.14 330.00c0.6 -5.6 9.6 -9 5.6 -18.4
	1.6 6 -1.3 11.6 -5.6 12.8
"/>
<use x="387.64" y="311.00" xlink:href="#hd"/>
<path class="fill"
	d="M411.94 332.60l75.60 9.60v-3.20l-75.60 -9.60"/>
<path class="fill"
	d="M412.34 327.70l74.90 9.50v-3.20l-74.90 -9.50"/>
<use x="415.84" y="299.00" xlink:href="#hd"/>
<path d="M412.34 299.00v32.70" class="stroke"/>
<use x="433.84" y="302.00" xlink:href="#hd"/>
<use x="424.84" y="302.00" xlink:href="#sh0"/>
<path d="M430.34 302.00v32.00" class="stroke"/>
<use x="449.04" y="299.00" xlink:href="#hd"/>
<path d="M445.54 299.00v36.90" class="stroke"/>
<use x="462.94" y="308.00" xlink:href="#hd"/>
<path d="M459.44 308.00v29.70" class="stroke"/>
<use x="476.84" y="314.00" xlink:href="#hd"/>
<path d="M473.34 314.00v25.40" class="stroke"/>
<use x="490.74" y="320.00" xlink:href="#hd"/>
<path d="M487.24 320.00v21.20" class="stroke"/>
<use x="515.74" y="305.00" xlink:href="#hd"/>
<path d="M512.24 305.00v25.00" class="stroke"/>
<use x="515.74" y="311.00" xlink:href="#hd"/>
<use x="571.24" y="308.00" xlink:href="#r8"/>
<path class="fill"
	d="M606.34 327.90l70.10 0.00v-3.20l-70.10 -0.00"/>
<path class="fill"
	d="M606.64 322.90l69.40 0.00v-3.20l-69.40 -0.00"/>
<use x="610.14" y="305.00" xlink:href="#hd"/>
<path d="M606.64 305.00v21.90" class="stroke"/>
<use x="610.14" y="311.00" xlink:href="#hd"/>
<use x="624.04" y="299.00" xlink:href="#hd"/>
<path d="M620.54 299.00v27.90" class="stroke"/>
<use x="637.94" y="305.00" xlink:href="#hd"/>
<path d="M634.44 305.00v21.90" class="stroke"/>
<use x="637.94" y="311.00" xlink:href="#hd"/>
<use x="651.84" y="299.00" xlink:href="#hd"/>
<path d="M648.34 299.00v27.90" class="stroke"/>
<use x="665.64" y="305.00" xlink:href="#hd"/>
<path d="M662.14 305.00v21.90" class="stroke"/>
<use x="665.64" y="311.00" xlink:href="#hd"/>
<use x="679.54" y="299.00" xlink:href="#hd"/>
<path d="M676.04 299.00v27.90" class="stroke"/>
<use x="704.54" y="296.00" xlink:href="#hd"/>
<path d="M701.04 296.00v25.00" class="stroke"/>
<use x="704.54" y="302.00" xlink:href="#hd"/>
<use x="760.14" y="290.00" xlink:href="#hl"/>
<use x="760.14" y="287.00" xlink:href="#hd"/>
<path d="M756.64 287.00v31.00" class="stroke"/>
<path class="fill"
	d="M756.64 318.00c0.6 -5.6 9.6 -9 5.6 -18.4
	1.6 6 -1.3 11.6 -5.6 12.8
"/>
<use x="760.14" y="299.00" xlink:href="#hd"/>
<use x="798.94" y="311.00" xlink:href="#hd"/>
<path d="M802.44 311.00v-21.00" class="stroke"/>
<use x="837.04" y="326.00" xlink:href="#hl"/>
<use x="837.04" y="332.00" xlink:href="#hl"/>
<use x="837.04" y="332.00" xlink:href="#hd"/>
<path d="M840.54 332.00v-24.00" class="stroke"/>
<path class="fill"
	d="M840.54 308.00c0.6 5.6 9.6 9 5.6 18.4
	1.6 -6 -1.3 -11.6 -5.6 -12.8
"/>
<defs>
<text id="trl" font-family="serif" font-size="16" font-style="italic"
	x="-2" y="-4">tr</text>
</defs>
<use x="191.74" y="232.00" xlink:href="#trl"/>
<use x="291.64" y="236.00" xlink:href="#trl"/>
</g>
</svg>
