<?xml version="1.0" standalone="no"?>
<!DOCTYPE svg PUBLIC "-//W3C//DTD SVG 1.1//EN"
	"http://www.w3.org/Graphics/SVG/1.1/DTD/svg11.dtd">
<svg xmlns="http://www.w3.org/2000/svg" version="1.1"
	xmlns:xlink="http://www.w3.org/1999/xlink"
	color="black"
	width="757.10px" height="293.80px">
<style type="text/css">
.fill {fill: currentColor}
.stroke {stroke: currentColor; fill: none}
text{white-space: pre}
</style>
<title>./K516f-7-12-6-7-12-8-9-11-11-4-10-5-7-2-8-2.abc (2086) tune 1</title>
<!-- Creator: abcm2ps-8.13.8 -->
<!-- CreationDate: Sep  7, 2017 11:19 -->
<!-- CommandLine: ./K516f-7-12-6-7-12-8-9-11-11-4-10-5-7-2-8-2.abc -O ./K516f-7-12-6-7-12-8-9-11-11-4-10-5-7-2-8-2.svg -g -->
<rect width="100%" height="100%" fill="white"/>
<g stroke-width="0.70" transform="scale(0.867)">
<!-- title: 7-12-6-7-12-8-9-11-11-4-10-5-7-2-8-2 -->
</g>
<g stroke-width="0.70" transform="scale(0.867)" font-family="Times" font-size="20.00">
<text x="436.84" y="22.00" text-anchor="middle">7-12-6-7-12-8-9-11-11-4-10-5-7-2-8-2</text>
</g>
<g stroke-width="0.70" transform="scale(0.867)" font-family="Times" font-size="20.00">
<!-- subtitle: $1K.516f::104:130:163:167:28:133:169:33:102:139:19:34:101:49:89:14::$0 -->
</g>
<g stroke-width="0.70" transform="scale(0.867)" font-family="Courier" font-size="8.00" font-weight="bold">
<text x="436.84" y="41.80" text-anchor="middle">K.516f::104:130:163:167:28:133:169:33:102:139:19:34:101:49:89:14::</text>
</g>
<g stroke-width="0.70" transform="scale(0.867)" font-family="Courier" font-size="8.00" font-weight="bold">
<!-- subtitle: $1Perm. No.: 208660124695171$0 -->
<text x="436.84" y="60.80" text-anchor="middle">Perm. No.: 208660124695171</text>
</g>
<g stroke-width="0.70" transform="scale(0.607)" font-family="Courier" font-size="8.00" font-weight="bold">
<defs>
<ellipse id="hd" rx="4.1" ry="2.9"
	transform="rotate(-20)" class="fill"/>
</defs>
<use x="103.06" y="121.29" xlink:href="#hd"/>
<path d="M106.56 121.29v-21.00" class="stroke"/>
<path class="fill"
	d="M106.56 100.29c0.6 5.6 9.6 9 5.6 18.4
	1.6 -6 -1.3 -11.6 -5.6 -12.8
"/>
</g>
<g stroke-width="0.70" transform="scale(0.867)" font-family="Times" font-size="15.00" font-weight="bold">
<text x="81.24" y="87.00">= 111</text>
<path class="stroke" stroke-width="1"
	d="M11.54 183.00v-82.00"/>
<path class="fill"
	d="M6.54 98.00
	c10.5 1 12 -4.5 12 -3.5c0 1 -3.5 5.5 -8.5 5.5
	v84.00
	c5 0 8.5 4.5 8.5 5.5c0 1 -1.5 -4.5 -12 -3.5"/>
<defs>
<g id="rdots" class="fill">
	<circle cx="0" cy="-9" r="1.2"/>
	<circle cx="0" cy="-15" r="1.2"/>
</g>
</defs>
<use x="70.54" y="125.00" xlink:href="#rdots"/>
<path class="stroke" stroke-width="1"
	d="M66.54 125.00v-24.00"/>
<path class="stroke" stroke-width="3"
	d="M62.04 125.00v-24.00"/>
<use x="70.54" y="183.00" xlink:href="#rdots"/>
<path class="stroke" stroke-width="1"
	d="M66.54 183.00v-58.00"/>
<path class="stroke" stroke-width="3"
	d="M62.04 183.00v-58.00"/>
<path class="stroke" stroke-width="1"
	d="M177.44 125.00v-24.00"/>
<path class="stroke" stroke-width="1"
	d="M177.44 183.00v-58.00"/>
<path class="stroke" stroke-width="1"
	d="M253.24 125.00v-24.00"/>
<path class="stroke" stroke-width="1"
	d="M253.24 183.00v-58.00"/>
<path class="stroke" stroke-width="1"
	d="M361.04 125.00v-24.00"/>
<path class="stroke" stroke-width="1"
	d="M361.04 183.00v-58.00"/>
<path class="stroke" stroke-width="1"
	d="M446.34 125.00v-24.00"/>
<path class="stroke" stroke-width="1"
	d="M446.34 183.00v-58.00"/>
<path class="stroke" stroke-width="1"
	d="M557.94 125.00v-24.00"/>
<path class="stroke" stroke-width="1"
	d="M557.94 183.00v-58.00"/>
<path class="stroke" stroke-width="1"
	d="M654.24 125.00v-24.00"/>
<path class="stroke" stroke-width="1"
	d="M654.24 183.00v-58.00"/>
<path class="stroke" stroke-width="1"
	d="M762.04 125.00v-24.00"/>
<path class="stroke" stroke-width="1"
	d="M762.04 183.00v-58.00"/>
<path class="stroke" stroke-width="3"
	d="M860.54 125.00v-24.00"/>
<path class="stroke" stroke-width="1"
	d="M856.04 125.00v-24.00"/>
<use x="852.04" y="125.00" xlink:href="#rdots"/>
<path class="stroke" stroke-width="3"
	d="M860.54 183.00v-58.00"/>
<path class="stroke" stroke-width="1"
	d="M856.04 183.00v-58.00"/>
<use x="852.04" y="183.00" xlink:href="#rdots"/>
<path d="m11.54 125.00
	h850.50
	M11.54 119.00
	h850.50
	M11.54 113.00
	h850.50
	M11.54 107.00
	h850.50
	M11.54 101.00
	h850.50
	" class="stroke"/>
<path d="m11.54 183.00
	h850.50
	M11.54 177.00
	h850.50
	M11.54 171.00
	h850.50
	M11.54 165.00
	h850.50
	M11.54 159.00
	h850.50
	" class="stroke"/>
</g>
<g stroke-width="0.70" transform="scale(0.867)" font-family="Times" font-size="13.00">
<text x="766.04" y="86.40">1</text>
<path class="stroke"
	d="M762.04 75.00m0 20v-20h92.00v20"/>
<defs>
<path id="utclef" class="fill" d="m-50 -90
	c-72 -41 -72 -158 52 -188
	150 -10 220 188 90 256
	-114 52 -275 0 -293 -136
	-15 -181 93 -229 220 -334
	88 -87 79 -133 62 -210
	-51 33 -94 105 -89 186
	17 267 36 374 49 574
	6 96 -19 134 -77 135
	-80 1 -126 -93 -61 -133
	85 -41 133 101 31 105
	23 17 92 37 90 -92
	-10 -223 -39 -342 -50 -617
	0 -90 0 -162 96 -232
	56 72 63 230 22 289
	-74 106 -257 168 -255 316
	9 153 148 185 252 133
	86 -65 29 -192 -80 -176
	-71 12 -105 67 -59 124"/>
<use id="tclef" transform="translate(0,6) scale(0.045)"
	xlink:href="#utclef"/>
</defs>
<use x="23.54" y="119.00" xlink:href="#tclef"/>
<g font-family="serif" font-size="16" font-weight="bold" font-style="normal"
	transform="translate(42.04,124.50) scale(1.2,1)">
	<text text-anchor="middle">8</text>
	<text y="-12" text-anchor="middle">3</text>
</g>
<path class="fill"
	d="M80.54 130.50l81.00 -6.30v-3.20l-81.00 6.30"/>
<path class="fill"
	d="M80.94 125.50l80.30 -6.30v-3.20l-80.30 6.30"/>
<use x="84.44" y="104.00" xlink:href="#hd"/>
<path d="M80.94 104.00v25.50" class="stroke"/>
<use x="100.44" y="107.00" xlink:href="#hd"/>
<path d="M96.94 107.00v21.20" class="stroke"/>
<use x="116.54" y="104.00" xlink:href="#hd"/>
<path d="M113.04 104.00v22.90" class="stroke"/>
<use x="132.54" y="98.00" xlink:href="#hd"/>
<path d="M129.04 98.00v27.70" class="stroke"/>
<defs>
<path id="hl" class="stroke" d="m-6 0h12"/>
</defs>
<use x="148.64" y="95.00" xlink:href="#hl"/>
<use x="148.64" y="89.00" xlink:href="#hl"/>
<use x="148.64" y="89.00" xlink:href="#hd"/>
<path d="M145.14 89.00v35.40" class="stroke"/>
<use x="164.74" y="98.00" xlink:href="#hd"/>
<path d="M161.24 98.00v25.20" class="stroke"/>
<path class="fill"
	d="M193.44 91.00l45.80 0.00v3.20l-45.80 -0.00"/>
<use x="190.34" y="125.00" xlink:href="#hd"/>
<path d="M193.84 125.00v-33.00" class="stroke"/>
<use x="190.34" y="110.00" xlink:href="#hd"/>
<use x="212.84" y="125.00" xlink:href="#hd"/>
<path d="M216.34 125.00v-33.00" class="stroke"/>
<use x="212.84" y="110.00" xlink:href="#hd"/>
<use x="235.44" y="125.00" xlink:href="#hd"/>
<path d="M238.94 125.00v-33.00" class="stroke"/>
<use x="235.44" y="110.00" xlink:href="#hd"/>
<path class="fill"
	d="M262.24 131.30l82.90 9.90v-3.20l-82.90 -9.90"/>
<path class="fill"
	d="M262.54 126.40l82.20 9.80v-3.20l-82.20 -9.80"/>
<use x="266.04" y="98.00" xlink:href="#hd"/>
<path d="M262.54 98.00v32.40" class="stroke"/>
<use x="284.04" y="101.00" xlink:href="#hd"/>
<defs>
<path id="usharp" class="fill" d="
	m136 -702
	v890
	h32
	v-890
	m128 840
	h32
	v-888
	h-32
	m-232 286
	v116
	l338 -96
	v-116
	m-338 442
	v116
	l338 -98
	v-114"/>
<use id="sh0" transform="translate(-4,5) scale(0.018)"
	xlink:href="#usharp"/>
</defs>
<use x="275.04" y="101.00" xlink:href="#sh0"/>
<path d="M280.54 101.00v31.50" class="stroke"/>
<use x="300.14" y="98.00" xlink:href="#hd"/>
<path d="M296.64 98.00v36.50" class="stroke"/>
<use x="316.14" y="107.00" xlink:href="#hd"/>
<path d="M312.64 107.00v29.40" class="stroke"/>
<use x="332.24" y="113.00" xlink:href="#hd"/>
<path d="M328.74 113.00v25.30" class="stroke"/>
<use x="348.34" y="119.00" xlink:href="#hd"/>
<path d="M344.84 119.00v21.20" class="stroke"/>
<path class="fill"
	d="M370.04 133.00l55.40 0.00v-3.20l-55.40 -0.00"/>
<path class="fill"
	d="M392.94 128.00l16.10 0.00v-3.20l-16.10 -0.00"/>
<use x="373.94" y="110.00" xlink:href="#hd"/>
<path d="M370.44 110.00v21.90" class="stroke"/>
<use x="396.44" y="110.00" xlink:href="#hd"/>
<path d="M392.94 110.00v21.90" class="stroke"/>
<use x="412.54" y="107.00" xlink:href="#hd"/>
<path d="M409.04 107.00v24.90" class="stroke"/>
<use x="428.54" y="104.00" xlink:href="#hd"/>
<path d="M425.04 104.00v27.90" class="stroke"/>
<path class="fill"
	d="M461.04 138.20l81.00 0.00v-3.20l-81.00 -0.00"/>
<path class="fill"
	d="M461.34 133.20l80.30 0.00v-3.20l-80.30 -0.00"/>
<use x="464.84" y="101.00" xlink:href="#hd"/>
<use x="455.84" y="101.00" xlink:href="#sh0"/>
<path d="M461.34 101.00v36.20" class="stroke"/>
<use x="480.94" y="107.00" xlink:href="#hd"/>
<path d="M477.44 107.00v30.20" class="stroke"/>
<use x="497.04" y="116.00" xlink:href="#hd"/>
<path d="M493.54 116.00v21.20" class="stroke"/>
<use x="513.04" y="95.00" xlink:href="#hl"/>
<use x="513.04" y="95.00" xlink:href="#hd"/>
<path d="M509.54 95.00v42.20" class="stroke"/>
<use x="529.14" y="101.00" xlink:href="#hd"/>
<path d="M525.64 101.00v36.20" class="stroke"/>
<use x="545.14" y="107.00" xlink:href="#hd"/>
<path d="M541.64 107.00v30.20" class="stroke"/>
<path class="fill"
	d="M566.94 135.20l71.40 0.00v-3.20l-71.40 -0.00"/>
<path class="fill"
	d="M589.84 130.20l48.20 0.00v-3.20l-48.20 -0.00"/>
<use x="570.74" y="107.00" xlink:href="#hd"/>
<path d="M567.24 107.00v27.20" class="stroke"/>
<use x="593.34" y="98.00" xlink:href="#hd"/>
<path d="M589.84 98.00v36.20" class="stroke"/>
<use x="609.34" y="107.00" xlink:href="#hd"/>
<path d="M605.84 107.00v27.20" class="stroke"/>
<use x="625.44" y="113.00" xlink:href="#hd"/>
<path d="M621.94 113.00v21.20" class="stroke"/>
<use x="641.54" y="107.00" xlink:href="#hd"/>
<path d="M638.04 107.00v27.20" class="stroke"/>
<path class="fill"
	d="M663.24 138.20l82.90 0.00v-3.20l-82.90 -0.00"/>
<path class="fill"
	d="M663.64 133.20l82.20 0.00v-3.20l-82.20 -0.00"/>
<use x="667.14" y="104.00" xlink:href="#hd"/>
<path d="M663.64 104.00v33.20" class="stroke"/>
<use x="683.14" y="98.00" xlink:href="#hd"/>
<path d="M679.64 98.00v39.20" class="stroke"/>
<use x="699.24" y="107.00" xlink:href="#hd"/>
<path d="M695.74 107.00v30.20" class="stroke"/>
<use x="715.24" y="98.00" xlink:href="#hd"/>
<path d="M711.74 98.00v39.20" class="stroke"/>
<use x="731.34" y="116.00" xlink:href="#hd"/>
<path d="M727.84 116.00v21.20" class="stroke"/>
<use x="749.34" y="101.00" xlink:href="#hd"/>
<use x="740.34" y="101.00" xlink:href="#sh0"/>
<path d="M745.84 101.00v36.20" class="stroke"/>
<use x="774.94" y="98.00" xlink:href="#hd"/>
<path d="M771.44 98.00v40.00" class="stroke"/>
<use x="774.94" y="119.00" xlink:href="#hd"/>
<use x="774.94" y="113.00" xlink:href="#hd"/>
<use x="774.94" y="107.00" xlink:href="#hd"/>
<defs>
<path id="r8e" class="fill" d="m 0 0
	c-1.5 1.5 -2.4 2 -3.6 2
	2.4 -2.8 -2.8 -4 -2.8 -1.2
	c0 2.7 4.3 2.4 5.9 0.6"/>
<g id="r8">
	<path d="m3.3 -4l-3.4 9.6" class="stroke"/>
	<use x="3.4" y="-4" xlink:href="#r8e"/>
</g>
</defs>
<use x="831.54" y="113.00" xlink:href="#r8"/>
<defs>
<path id="ubclef" class="fill" d="m-200 -87
	c124 -35 222 -78 254 -236
	43 -228 -167 -246 -192 -103
	59 -80 157 22 92 78
	-62 47 -115 -22 -106 -88
	21 -141 270 -136 274 52
	-1 175 -106 264 -322 297
	m357 -250
	c0 -36 51 -34 51 0
	0 37 -51 36 -51 0
	m-2 -129
	c0 -36 51 -34 51 0
	0 38 -51 37 -51 0"/>
<use id="bclef" transform="translate(0,18) scale(0.045)"
	xlink:href="#ubclef"/>
</defs>
<use x="23.54" y="165.00" xlink:href="#bclef"/>
<g font-family="serif" font-size="16" font-weight="bold" font-style="normal"
	transform="translate(42.04,182.50) scale(1.2,1)">
	<text text-anchor="middle">8</text>
	<text y="-12" text-anchor="middle">3</text>
</g>
<use x="84.44" y="174.00" xlink:href="#hd"/>
<path d="M87.94 174.00v-21.00" class="stroke"/>
<use x="148.64" y="171.00" xlink:href="#r8"/>
<path class="fill"
	d="M193.44 153.00l45.80 0.00v3.20l-45.80 -0.00"/>
<use x="190.34" y="174.00" xlink:href="#hd"/>
<path d="M193.84 174.00v-20.00" class="stroke"/>
<use x="212.84" y="174.00" xlink:href="#hd"/>
<path d="M216.34 174.00v-20.00" class="stroke"/>
<use x="235.44" y="174.00" xlink:href="#hd"/>
<path d="M238.94 174.00v-20.00" class="stroke"/>
<use x="266.04" y="177.00" xlink:href="#hd"/>
<path d="M269.54 177.00v-25.00" class="stroke"/>
<use x="266.04" y="171.00" xlink:href="#hd"/>
<use x="332.24" y="171.00" xlink:href="#r8"/>
<use x="373.94" y="168.00" xlink:href="#hd"/>
<path d="M370.44 168.00v25.00" class="stroke"/>
<use x="373.94" y="174.00" xlink:href="#hd"/>
<use x="428.54" y="171.00" xlink:href="#r8"/>
<use x="464.84" y="159.00" xlink:href="#hd"/>
<path d="M461.34 159.00v34.00" class="stroke"/>
<use x="464.84" y="174.00" xlink:href="#hd"/>
<use x="529.14" y="171.00" xlink:href="#r8"/>
<use x="570.74" y="162.00" xlink:href="#hd"/>
<path d="M567.24 162.00v34.00" class="stroke"/>
<use x="570.74" y="177.00" xlink:href="#hd"/>
<use x="625.44" y="171.00" xlink:href="#r8"/>
<path class="fill"
	d="M670.24 147.70l64.90 8.20v3.20l-64.90 -8.20"/>
<use x="667.14" y="174.00" xlink:href="#hd"/>
<path d="M670.64 174.00v-25.20" class="stroke"/>
<use x="699.24" y="171.00" xlink:href="#hd"/>
<path d="M702.74 171.00v-18.20" class="stroke"/>
<use x="731.34" y="189.00" xlink:href="#hl"/>
<use x="731.34" y="192.00" xlink:href="#hd"/>
<path d="M734.84 192.00v-35.20" class="stroke"/>
<path class="fill"
	d="M771.04 202.20l73.40 0.00v-3.20l-73.40 -0.00"/>
<path class="fill"
	d="M794.04 197.20l50.10 0.00v-3.20l-50.10 -0.00"/>
<use x="774.94" y="183.00" xlink:href="#hd"/>
<path d="M771.44 183.00v18.20" class="stroke"/>
<use x="797.54" y="162.00" xlink:href="#hd"/>
<path d="M794.04 162.00v39.20" class="stroke"/>
<use x="815.54" y="165.00" xlink:href="#hd"/>
<defs>
<path id="unat" class="fill" d="
	m96 -750
	h-32
	v716
	l32 -8
	182 -54
	v282
	h32
	v-706
	l-34 10
	-180 50
	v-290
	m0 592
	v-190
	l182 -52
	v188"/>
<use id="nt0" transform="translate(-3,5) scale(0.018)"
	xlink:href="#unat"/>
</defs>
<use x="806.54" y="165.00" xlink:href="#nt0"/>
<path d="M812.04 165.00v36.20" class="stroke"/>
<use x="831.54" y="168.00" xlink:href="#hd"/>
<path d="M828.04 168.00v33.20" class="stroke"/>
<use x="847.64" y="171.00" xlink:href="#hd"/>
<path d="M844.14 171.00v30.20" class="stroke"/>
</g>
<g stroke-width="0.70" transform="scale(0.867)" font-family="Times" font-size="13.00">
<path class="stroke" stroke-width="1"
	d="M11.54 316.00v-82.00"/>
<path class="fill"
	d="M6.54 231.00
	c10.5 1 12 -4.5 12 -3.5c0 1 -3.5 5.5 -8.5 5.5
	v84.00
	c5 0 8.5 4.5 8.5 5.5c0 1 -1.5 -4.5 -12 -3.5"/>
<use x="145.84" y="258.00" xlink:href="#rdots"/>
<path class="stroke" stroke-width="1"
	d="M141.84 258.00v-24.00"/>
<path class="stroke" stroke-width="3"
	d="M137.34 258.00v-24.00"/>
<use x="145.84" y="316.00" xlink:href="#rdots"/>
<path class="stroke" stroke-width="1"
	d="M141.84 316.00v-58.00"/>
<path class="stroke" stroke-width="3"
	d="M137.34 316.00v-58.00"/>
<path class="stroke" stroke-width="1"
	d="M236.94 258.00v-24.00"/>
<path class="stroke" stroke-width="1"
	d="M236.94 316.00v-58.00"/>
<path class="stroke" stroke-width="1"
	d="M327.84 258.00v-24.00"/>
<path class="stroke" stroke-width="1"
	d="M327.84 316.00v-58.00"/>
<path class="stroke" stroke-width="1"
	d="M409.64 258.00v-24.00"/>
<path class="stroke" stroke-width="1"
	d="M409.64 316.00v-58.00"/>
<path class="stroke" stroke-width="1"
	d="M500.64 258.00v-24.00"/>
<path class="stroke" stroke-width="1"
	d="M500.64 316.00v-58.00"/>
<path class="stroke" stroke-width="1"
	d="M602.44 258.00v-24.00"/>
<path class="stroke" stroke-width="1"
	d="M602.44 316.00v-58.00"/>
<path class="stroke" stroke-width="1"
	d="M704.14 258.00v-24.00"/>
<path class="stroke" stroke-width="1"
	d="M704.14 316.00v-58.00"/>
<path class="stroke" stroke-width="1"
	d="M785.94 258.00v-24.00"/>
<path class="stroke" stroke-width="1"
	d="M785.94 316.00v-58.00"/>
<path class="stroke" stroke-width="3"
	d="M860.54 258.00v-24.00"/>
<path class="stroke" stroke-width="1"
	d="M856.04 258.00v-24.00"/>
<use x="852.04" y="258.00" xlink:href="#rdots"/>
<path class="stroke" stroke-width="3"
	d="M860.54 316.00v-58.00"/>
<path class="stroke" stroke-width="1"
	d="M856.04 316.00v-58.00"/>
<use x="852.04" y="316.00" xlink:href="#rdots"/>
<path d="m11.54 258.00
	h850.50
	M11.54 252.00
	h850.50
	M11.54 246.00
	h850.50
	M11.54 240.00
	h850.50
	M11.54 234.00
	h850.50
	" class="stroke"/>
<path d="m11.54 316.00
	h850.50
	M11.54 310.00
	h850.50
	M11.54 304.00
	h850.50
	M11.54 298.00
	h850.50
	M11.54 292.00
	h850.50
	" class="stroke"/>
<path class="fill"
	d="M618.94 233.40c8.59 -3.24 48.83 2.09 57.42 7.60
	v-0.26c-10.32 -7.26 -47.11 -12.58 -57.42 -7.34"/>
<text x="47.54" y="219.40">2</text>
<path class="stroke"
	d="M43.54 208.00m0 20v-20h91.30v20"/>
<use x="23.54" y="252.00" xlink:href="#tclef"/>
<use x="56.04" y="231.00" xlink:href="#hd"/>
<path d="M52.54 231.00v40.00" class="stroke"/>
<use x="56.04" y="252.00" xlink:href="#hd"/>
<use x="56.04" y="246.00" xlink:href="#hd"/>
<use x="56.04" y="240.00" xlink:href="#hd"/>
<use x="110.94" y="246.00" xlink:href="#r8"/>
<path class="fill"
	d="M161.44 262.50l31.40 5.80v-3.20l-31.40 -5.80"/>
<path class="fill"
	d="M161.84 257.50l15.40 2.80v-3.20l-15.40 -2.80"/>
<use x="165.34" y="234.00" xlink:href="#hd"/>
<use x="156.34" y="234.00" xlink:href="#sh0"/>
<path d="M161.84 234.00v27.50" class="stroke"/>
<use x="180.64" y="240.00" xlink:href="#hd"/>
<path d="M177.14 240.00v24.40" class="stroke"/>
<use x="196.04" y="249.00" xlink:href="#hd"/>
<path d="M192.54 249.00v18.20" class="stroke"/>
<use x="219.84" y="234.00" xlink:href="#hd"/>
<path d="M216.34 234.00v21.00" class="stroke"/>
<path class="fill"
	d="M216.34 255.00c0.6 -5.6 9.6 -9 5.6 -18.4
	1.6 6 -1.3 11.6 -5.6 12.8
"/>
<path class="fill"
	d="M245.54 260.00l62.10 0.00v-3.20l-62.10 -0.00"/>
<path class="fill"
	d="M245.94 255.00l46.10 0.00v-3.20l-46.10 -0.00"/>
<use x="249.44" y="231.00" xlink:href="#hd"/>
<path d="M245.94 231.00v28.00" class="stroke"/>
<use x="264.74" y="228.00" xlink:href="#hl"/>
<use x="264.74" y="225.00" xlink:href="#hd"/>
<path d="M261.24 225.00v34.00" class="stroke"/>
<use x="280.14" y="231.00" xlink:href="#hd"/>
<path d="M276.64 231.00v28.00" class="stroke"/>
<use x="295.44" y="228.00" xlink:href="#hl"/>
<use x="295.44" y="225.00" xlink:href="#hd"/>
<path d="M291.94 225.00v34.00" class="stroke"/>
<use x="310.84" y="240.00" xlink:href="#hd"/>
<path d="M307.34 240.00v19.00" class="stroke"/>
<path class="fill"
	d="M336.54 266.40l52.90 -4.20v-3.20l-52.90 4.20"/>
<path class="fill"
	d="M336.84 261.40l15.40 -1.20v-3.20l-15.40 1.20"/>
<use x="340.34" y="237.00" xlink:href="#hd"/>
<path d="M336.84 237.00v28.40" class="stroke"/>
<use x="355.74" y="243.00" xlink:href="#hd"/>
<path d="M352.24 243.00v21.20" class="stroke"/>
<use x="371.04" y="237.00" xlink:href="#hd"/>
<path d="M367.54 237.00v26.00" class="stroke"/>
<use x="392.64" y="231.00" xlink:href="#hd"/>
<path d="M389.14 231.00v30.30" class="stroke"/>
<path class="fill"
	d="M418.34 264.90l62.10 6.40v-3.20l-62.10 -6.40"/>
<path class="fill"
	d="M418.64 259.90l46.10 4.70v-3.20l-46.10 -4.70"/>
<use x="422.14" y="237.00" xlink:href="#hd"/>
<path d="M418.64 237.00v26.90" class="stroke"/>
<use x="437.54" y="243.00" xlink:href="#hd"/>
<path d="M434.04 243.00v22.50" class="stroke"/>
<use x="452.84" y="240.00" xlink:href="#hd"/>
<path d="M449.34 240.00v27.10" class="stroke"/>
<use x="468.24" y="246.00" xlink:href="#hd"/>
<path d="M464.74 246.00v22.60" class="stroke"/>
<use x="483.54" y="252.00" xlink:href="#hd"/>
<path d="M480.04 252.00v18.20" class="stroke"/>
<path class="fill"
	d="M509.24 263.50l77.50 -6.30v-3.20l-77.50 6.30"/>
<path class="fill"
	d="M509.64 258.40l76.80 -6.20v-3.20l-76.80 6.20"/>
<use x="513.14" y="237.00" xlink:href="#hd"/>
<path d="M509.64 237.00v25.40" class="stroke"/>
<use x="528.44" y="240.00" xlink:href="#hd"/>
<path d="M524.94 240.00v21.20" class="stroke"/>
<use x="543.84" y="237.00" xlink:href="#hd"/>
<path d="M540.34 237.00v23.00" class="stroke"/>
<use x="559.14" y="231.00" xlink:href="#hd"/>
<path d="M555.64 231.00v27.70" class="stroke"/>
<use x="574.54" y="228.00" xlink:href="#hl"/>
<use x="574.54" y="222.00" xlink:href="#hl"/>
<use x="574.54" y="222.00" xlink:href="#hd"/>
<path d="M571.04 222.00v35.50" class="stroke"/>
<use x="589.94" y="231.00" xlink:href="#hd"/>
<path d="M586.44 231.00v25.20" class="stroke"/>
<path class="fill"
	d="M611.04 264.20l62.10 7.00v-3.20l-62.10 -7.00"/>
<use x="614.94" y="237.00" xlink:href="#hd"/>
<path d="M611.44 237.00v26.20" class="stroke"/>
<use x="645.64" y="243.00" xlink:href="#hd"/>
<path d="M642.14 243.00v23.70" class="stroke"/>
<use x="676.34" y="252.00" xlink:href="#hd"/>
<path d="M672.84 252.00v18.20" class="stroke"/>
<path class="fill"
	d="M712.84 260.00l52.90 0.00v-3.20l-52.90 -0.00"/>
<path class="fill"
	d="M713.14 255.00l15.40 0.00v-3.20l-15.40 -0.00"/>
<use x="716.64" y="234.00" xlink:href="#hd"/>
<path d="M713.14 234.00v25.00" class="stroke"/>
<use x="732.04" y="237.00" xlink:href="#hd"/>
<path d="M728.54 237.00v22.00" class="stroke"/>
<use x="747.34" y="240.00" xlink:href="#hd"/>
<path d="M743.84 240.00v19.00" class="stroke"/>
<use x="768.94" y="231.00" xlink:href="#hd"/>
<path d="M765.44 231.00v28.00" class="stroke"/>
<use x="798.44" y="243.00" xlink:href="#hd"/>
<path d="M794.94 243.00v21.00" class="stroke"/>
<use x="841.54" y="246.00" xlink:href="#r8"/>
<use x="23.54" y="298.00" xlink:href="#bclef"/>
<path class="fill"
	d="M52.24 335.20l70.90 -5.10v-3.20l-70.90 5.10"/>
<path class="fill"
	d="M74.04 328.70l48.70 -3.50v-3.20l-48.70 3.50"/>
<use x="56.04" y="316.00" xlink:href="#hd"/>
<path d="M52.54 316.00v18.20" class="stroke"/>
<use x="77.54" y="289.00" xlink:href="#hd"/>
<path d="M74.04 289.00v43.70" class="stroke"/>
<use x="92.94" y="295.00" xlink:href="#hd"/>
<path d="M89.44 295.00v36.50" class="stroke"/>
<use x="110.94" y="298.00" xlink:href="#hd"/>
<use x="101.94" y="298.00" xlink:href="#sh0"/>
<path d="M107.44 298.00v32.30" class="stroke"/>
<use x="126.34" y="301.00" xlink:href="#hd"/>
<path d="M122.84 301.00v28.20" class="stroke"/>
<use x="165.34" y="292.00" xlink:href="#hd"/>
<path d="M161.84 292.00v34.00" class="stroke"/>
<use x="165.34" y="307.00" xlink:href="#hd"/>
<use x="219.84" y="292.00" xlink:href="#hd"/>
<path d="M216.34 292.00v34.00" class="stroke"/>
<path class="fill"
	d="M216.34 326.00c0.6 -5.6 9.6 -9 5.6 -18.4
	1.6 6 -1.3 11.6 -5.6 12.8
"/>
<use x="219.84" y="307.00" xlink:href="#hd"/>
<use x="249.44" y="310.00" xlink:href="#hd"/>
<path d="M252.94 310.00v-21.00" class="stroke"/>
<use x="310.84" y="304.00" xlink:href="#r8"/>
<use x="340.34" y="295.00" xlink:href="#hd"/>
<path d="M336.84 295.00v31.00" class="stroke"/>
<use x="340.34" y="307.00" xlink:href="#hd"/>
<use x="392.64" y="301.00" xlink:href="#hd"/>
<path d="M389.14 301.00v25.00" class="stroke"/>
<path class="fill"
	d="M389.14 326.00c0.6 -5.6 9.6 -9 5.6 -18.4
	1.6 6 -1.3 11.6 -5.6 12.8
"/>
<use x="392.64" y="307.00" xlink:href="#hd"/>
<use x="422.14" y="295.00" xlink:href="#hd"/>
<path d="M418.64 295.00v21.00" class="stroke"/>
<use x="483.54" y="304.00" xlink:href="#r8"/>
<use x="513.14" y="295.00" xlink:href="#hd"/>
<path d="M516.64 295.00v-21.00" class="stroke"/>
<use x="574.54" y="301.00" xlink:href="#hd"/>
<path d="M578.04 301.00v-21.00" class="stroke"/>
<path class="fill"
	d="M578.04 280.00c0.6 5.6 9.6 9 5.6 18.4
	1.6 -6 -1.3 -11.6 -5.6 -12.8
"/>
<path class="fill"
	d="M611.04 323.90l77.50 0.00v-3.20l-77.50 -0.00"/>
<path class="fill"
	d="M611.44 318.90l76.80 0.00v-3.20l-76.80 -0.00"/>
<use x="614.94" y="301.00" xlink:href="#hd"/>
<path d="M611.44 301.00v21.90" class="stroke"/>
<use x="614.94" y="307.00" xlink:href="#hd"/>
<use x="630.24" y="295.00" xlink:href="#hd"/>
<path d="M626.74 295.00v27.90" class="stroke"/>
<use x="645.64" y="301.00" xlink:href="#hd"/>
<path d="M642.14 301.00v21.90" class="stroke"/>
<use x="645.64" y="307.00" xlink:href="#hd"/>
<use x="660.94" y="295.00" xlink:href="#hd"/>
<path d="M657.44 295.00v27.90" class="stroke"/>
<use x="676.34" y="301.00" xlink:href="#hd"/>
<path d="M672.84 301.00v21.90" class="stroke"/>
<use x="676.34" y="307.00" xlink:href="#hd"/>
<use x="691.64" y="295.00" xlink:href="#hd"/>
<path d="M688.14 295.00v27.90" class="stroke"/>
<path class="fill"
	d="M712.84 323.90l52.90 0.00v-3.20l-52.90 -0.00"/>
<path class="fill"
	d="M713.14 318.90l15.40 0.00v-3.20l-15.40 -0.00"/>
<use x="716.64" y="298.00" xlink:href="#hd"/>
<path d="M713.14 298.00v24.90" class="stroke"/>
<use x="732.04" y="301.00" xlink:href="#hd"/>
<path d="M728.54 301.00v21.90" class="stroke"/>
<use x="747.34" y="304.00" xlink:href="#hd"/>
<path d="M743.84 304.00v18.90" class="stroke"/>
<use x="768.94" y="295.00" xlink:href="#hd"/>
<path d="M765.44 295.00v27.90" class="stroke"/>
<path class="fill"
	d="M801.64 287.70l43.80 10.00v3.20l-43.80 -10.00"/>
<use x="798.44" y="307.00" xlink:href="#hd"/>
<path d="M801.94 307.00v-18.20" class="stroke"/>
<use x="820.04" y="316.00" xlink:href="#hd"/>
<path d="M823.54 316.00v-22.30" class="stroke"/>
<use x="841.54" y="322.00" xlink:href="#hl"/>
<use x="841.54" y="328.00" xlink:href="#hl"/>
<use x="841.54" y="328.00" xlink:href="#hd"/>
<path d="M845.04 328.00v-29.40" class="stroke"/>
<use x="513.14" y="307.00" xlink:href="#hd"/>
<path d="M509.64 307.00v21.00" class="stroke"/>
<use x="574.54" y="307.00" xlink:href="#hd"/>
<path d="M571.04 307.00v21.00" class="stroke"/>
<path class="fill"
	d="M571.04 328.00c0.6 -5.6 9.6 -9 5.6 -18.4
	1.6 6 -1.3 11.6 -5.6 12.8
"/>
</g>
</svg>
