<?xml version="1.0" standalone="no"?>
<!DOCTYPE svg PUBLIC "-//W3C//DTD SVG 1.1//EN"
	"http://www.w3.org/Graphics/SVG/1.1/DTD/svg11.dtd">
<svg xmlns="http://www.w3.org/2000/svg" version="1.1"
	xmlns:xlink="http://www.w3.org/1999/xlink"
	color="black"
	width="757.10px" height="293.80px">
<style type="text/css">
.fill {fill: currentColor}
.stroke {stroke: currentColor; fill: none}
text{white-space: pre}
</style>
<title>./K516f-2-10-7-9-11-2-12-3-3-9-5-8-8-3-5-3.abc (1085) tune 1</title>
<!-- Creator: abcm2ps-8.13.8 -->
<!-- CreationDate: Sep  7, 2017 11:18 -->
<!-- CommandLine: ./K516f-2-10-7-9-11-2-12-3-3-9-5-8-8-3-5-3.abc -O ./K516f-2-10-7-9-11-2-12-3-3-9-5-8-8-3-5-3.svg -g -->
<rect width="100%" height="100%" fill="white"/>
<g stroke-width="0.70" transform="scale(0.867)">
<!-- title: 2-10-7-9-11-2-12-3-3-9-5-8-8-3-5-3 -->
</g>
<g stroke-width="0.70" transform="scale(0.867)" font-family="Times" font-size="20.00">
<text x="436.84" y="22.00" text-anchor="middle">2-10-7-9-11-2-12-3-3-9-5-8-8-3-5-3</text>
</g>
<g stroke-width="0.70" transform="scale(0.867)" font-family="Times" font-size="20.00">
<!-- subtitle: $1K.516f::96:142:27:50:135:122:106:81:117:88:7:175:43:18:52:83::$0 -->
</g>
<g stroke-width="0.70" transform="scale(0.867)" font-family="Courier" font-size="8.00" font-weight="bold">
<text x="436.84" y="41.80" text-anchor="middle">K.516f::96:142:27:50:135:122:106:81:117:88:7:175:43:18:52:83::</text>
</g>
<g stroke-width="0.70" transform="scale(0.867)" font-family="Courier" font-size="8.00" font-weight="bold">
<!-- subtitle: $1Perm. No.: 108582671079587$0 -->
<text x="436.84" y="60.80" text-anchor="middle">Perm. No.: 108582671079587</text>
</g>
<g stroke-width="0.70" transform="scale(0.607)" font-family="Courier" font-size="8.00" font-weight="bold">
<defs>
<ellipse id="hd" rx="4.1" ry="2.9"
	transform="rotate(-20)" class="fill"/>
</defs>
<use x="103.06" y="121.29" xlink:href="#hd"/>
<path d="M106.56 121.29v-21.00" class="stroke"/>
<path class="fill"
	d="M106.56 100.29c0.6 5.6 9.6 9 5.6 18.4
	1.6 -6 -1.3 -11.6 -5.6 -12.8
"/>
</g>
<g stroke-width="0.70" transform="scale(0.867)" font-family="Times" font-size="15.00" font-weight="bold">
<text x="81.24" y="87.00">= 111</text>
<path class="stroke" stroke-width="1"
	d="M11.54 183.00v-82.00"/>
<path class="fill"
	d="M6.54 98.00
	c10.5 1 12 -4.5 12 -3.5c0 1 -3.5 5.5 -8.5 5.5
	v84.00
	c5 0 8.5 4.5 8.5 5.5c0 1 -1.5 -4.5 -12 -3.5"/>
<defs>
<g id="rdots" class="fill">
	<circle cx="0" cy="-9" r="1.2"/>
	<circle cx="0" cy="-15" r="1.2"/>
</g>
</defs>
<use x="70.54" y="125.00" xlink:href="#rdots"/>
<path class="stroke" stroke-width="1"
	d="M66.54 125.00v-24.00"/>
<path class="stroke" stroke-width="3"
	d="M62.04 125.00v-24.00"/>
<use x="70.54" y="183.00" xlink:href="#rdots"/>
<path class="stroke" stroke-width="1"
	d="M66.54 183.00v-58.00"/>
<path class="stroke" stroke-width="3"
	d="M62.04 183.00v-58.00"/>
<path class="stroke" stroke-width="1"
	d="M154.04 125.00v-24.00"/>
<path class="stroke" stroke-width="1"
	d="M154.04 183.00v-58.00"/>
<path class="stroke" stroke-width="1"
	d="M236.44 125.00v-24.00"/>
<path class="stroke" stroke-width="1"
	d="M236.44 183.00v-58.00"/>
<path class="stroke" stroke-width="1"
	d="M351.34 125.00v-24.00"/>
<path class="stroke" stroke-width="1"
	d="M351.34 183.00v-58.00"/>
<path class="stroke" stroke-width="1"
	d="M444.04 125.00v-24.00"/>
<path class="stroke" stroke-width="1"
	d="M444.04 183.00v-58.00"/>
<path class="stroke" stroke-width="1"
	d="M546.84 125.00v-24.00"/>
<path class="stroke" stroke-width="1"
	d="M546.84 183.00v-58.00"/>
<path class="stroke" stroke-width="1"
	d="M650.44 125.00v-24.00"/>
<path class="stroke" stroke-width="1"
	d="M650.44 183.00v-58.00"/>
<path class="stroke" stroke-width="1"
	d="M755.04 125.00v-24.00"/>
<path class="stroke" stroke-width="1"
	d="M755.04 183.00v-58.00"/>
<path class="stroke" stroke-width="3"
	d="M860.54 125.00v-24.00"/>
<path class="stroke" stroke-width="1"
	d="M856.04 125.00v-24.00"/>
<use x="852.04" y="125.00" xlink:href="#rdots"/>
<path class="stroke" stroke-width="3"
	d="M860.54 183.00v-58.00"/>
<path class="stroke" stroke-width="1"
	d="M856.04 183.00v-58.00"/>
<use x="852.04" y="183.00" xlink:href="#rdots"/>
<path d="m11.54 125.00
	h850.50
	M11.54 119.00
	h850.50
	M11.54 113.00
	h850.50
	M11.54 107.00
	h850.50
	M11.54 101.00
	h850.50
	" class="stroke"/>
<path d="m11.54 183.00
	h850.50
	M11.54 177.00
	h850.50
	M11.54 171.00
	h850.50
	M11.54 165.00
	h850.50
	M11.54 159.00
	h850.50
	" class="stroke"/>
</g>
<g stroke-width="0.70" transform="scale(0.867)" font-family="Times" font-size="13.00">
<text x="759.04" y="86.40">1</text>
<path class="stroke"
	d="M755.04 75.00m0 20v-20h99.00v20"/>
<defs>
<path id="utclef" class="fill" d="m-50 -90
	c-72 -41 -72 -158 52 -188
	150 -10 220 188 90 256
	-114 52 -275 0 -293 -136
	-15 -181 93 -229 220 -334
	88 -87 79 -133 62 -210
	-51 33 -94 105 -89 186
	17 267 36 374 49 574
	6 96 -19 134 -77 135
	-80 1 -126 -93 -61 -133
	85 -41 133 101 31 105
	23 17 92 37 90 -92
	-10 -223 -39 -342 -50 -617
	0 -90 0 -162 96 -232
	56 72 63 230 22 289
	-74 106 -257 168 -255 316
	9 153 148 185 252 133
	86 -65 29 -192 -80 -176
	-71 12 -105 67 -59 124"/>
<use id="tclef" transform="translate(0,6) scale(0.045)"
	xlink:href="#utclef"/>
</defs>
<use x="23.54" y="119.00" xlink:href="#tclef"/>
<g font-family="serif" font-size="16" font-weight="bold" font-style="normal"
	transform="translate(42.04,124.50) scale(1.2,1)">
	<text text-anchor="middle">8</text>
	<text y="-12" text-anchor="middle">3</text>
</g>
<path class="fill"
	d="M81.54 131.60l50.10 6.70v-3.20l-50.10 -6.70"/>
<use x="85.34" y="104.00" xlink:href="#hd"/>
<path d="M81.84 104.00v26.60" class="stroke"/>
<use x="110.04" y="110.00" xlink:href="#hd"/>
<path d="M106.54 110.00v23.90" class="stroke"/>
<use x="134.74" y="119.00" xlink:href="#hd"/>
<path d="M131.24 119.00v18.20" class="stroke"/>
<path class="fill"
	d="M163.94 139.80l50.10 -3.20v-3.20l-50.10 3.20"/>
<use x="167.84" y="110.00" xlink:href="#hd"/>
<path d="M164.34 110.00v28.80" class="stroke"/>
<use x="192.54" y="119.00" xlink:href="#hd"/>
<path d="M189.04 119.00v18.20" class="stroke"/>
<use x="217.24" y="104.00" xlink:href="#hd"/>
<path d="M213.74 104.00v31.60" class="stroke"/>
<path class="fill"
	d="M246.44 129.00l88.10 6.20v-3.20l-88.10 -6.20"/>
<path class="fill"
	d="M246.74 124.00l87.40 6.20v-3.20l-87.40 -6.20"/>
<use x="250.24" y="101.00" xlink:href="#hd"/>
<path d="M246.74 101.00v27.00" class="stroke"/>
<use x="267.74" y="104.00" xlink:href="#hd"/>
<path d="M264.24 104.00v25.30" class="stroke"/>
<use x="285.24" y="101.00" xlink:href="#hd"/>
<path d="M281.74 101.00v29.50" class="stroke"/>
<use x="302.74" y="107.00" xlink:href="#hd"/>
<path d="M299.24 107.00v24.70" class="stroke"/>
<use x="320.24" y="110.00" xlink:href="#hd"/>
<path d="M316.74 110.00v23.00" class="stroke"/>
<use x="337.64" y="113.00" xlink:href="#hd"/>
<path d="M334.14 113.00v21.20" class="stroke"/>
<path class="fill"
	d="M361.34 133.50l60.30 4.70v-3.20l-60.30 -4.70"/>
<path class="fill"
	d="M386.34 130.50l17.50 1.40v-3.20l-17.50 -1.40"/>
<use x="365.14" y="110.00" xlink:href="#hd"/>
<path d="M361.64 110.00v22.50" class="stroke"/>
<use x="389.84" y="104.00" xlink:href="#hd"/>
<path d="M386.34 104.00v30.50" class="stroke"/>
<use x="407.34" y="110.00" xlink:href="#hd"/>
<path d="M403.84 110.00v25.80" class="stroke"/>
<use x="424.84" y="119.00" xlink:href="#hd"/>
<path d="M421.34 119.00v18.20" class="stroke"/>
<path class="fill"
	d="M458.74 127.00l60.50 0.00v-3.20l-60.50 -0.00"/>
<path class="fill"
	d="M483.84 122.00l17.50 0.00v-3.20l-17.50 -0.00"/>
<use x="462.54" y="101.00" xlink:href="#hd"/>
<defs>
<path id="usharp" class="fill" d="
	m136 -702
	v890
	h32
	v-890
	m128 840
	h32
	v-888
	h-32
	m-232 286
	v116
	l338 -96
	v-116
	m-338 442
	v116
	l338 -98
	v-114"/>
<use id="sh0" transform="translate(-4,5) scale(0.018)"
	xlink:href="#usharp"/>
</defs>
<use x="453.54" y="101.00" xlink:href="#sh0"/>
<path d="M459.04 101.00v25.00" class="stroke"/>
<use x="487.34" y="101.00" xlink:href="#hd"/>
<path d="M483.84 101.00v25.00" class="stroke"/>
<use x="504.84" y="107.00" xlink:href="#hd"/>
<path d="M501.34 107.00v19.00" class="stroke"/>
<defs>
<path id="hl" class="stroke" d="m-6 0h12"/>
</defs>
<use x="522.34" y="95.00" xlink:href="#hl"/>
<use x="522.34" y="95.00" xlink:href="#hd"/>
<path d="M518.84 95.00v31.00" class="stroke"/>
<path class="fill"
	d="M556.84 127.00l71.10 0.00v-3.20l-71.10 -0.00"/>
<path class="fill"
	d="M557.14 122.00l53.00 0.00v-3.20l-53.00 -0.00"/>
<use x="560.64" y="98.00" xlink:href="#hd"/>
<path d="M557.14 98.00v28.00" class="stroke"/>
<use x="578.64" y="101.00" xlink:href="#hd"/>
<use x="569.64" y="101.00" xlink:href="#sh0"/>
<path d="M575.14 101.00v25.00" class="stroke"/>
<use x="596.14" y="98.00" xlink:href="#hd"/>
<path d="M592.64 98.00v28.00" class="stroke"/>
<use x="613.64" y="95.00" xlink:href="#hl"/>
<use x="613.64" y="92.00" xlink:href="#hd"/>
<path d="M610.14 92.00v34.00" class="stroke"/>
<use x="631.14" y="107.00" xlink:href="#hd"/>
<path d="M627.64 107.00v19.00" class="stroke"/>
<path class="fill"
	d="M660.34 138.20l77.80 0.00v-3.20l-77.80 -0.00"/>
<path class="fill"
	d="M685.44 133.20l52.40 0.00v-3.20l-52.40 -0.00"/>
<use x="664.24" y="116.00" xlink:href="#hd"/>
<path d="M660.74 116.00v21.20" class="stroke"/>
<use x="688.94" y="107.00" xlink:href="#hd"/>
<path d="M685.44 107.00v30.20" class="stroke"/>
<use x="706.34" y="110.00" xlink:href="#hd"/>
<path d="M702.84 110.00v27.20" class="stroke"/>
<use x="723.84" y="113.00" xlink:href="#hd"/>
<path d="M720.34 113.00v24.20" class="stroke"/>
<use x="741.34" y="116.00" xlink:href="#hd"/>
<path d="M737.84 116.00v21.20" class="stroke"/>
<use x="768.84" y="98.00" xlink:href="#hd"/>
<path d="M765.34 98.00v40.00" class="stroke"/>
<use x="768.84" y="119.00" xlink:href="#hd"/>
<use x="768.84" y="113.00" xlink:href="#hd"/>
<use x="768.84" y="107.00" xlink:href="#hd"/>
<defs>
<path id="r8e" class="fill" d="m 0 0
	c-1.5 1.5 -2.4 2 -3.6 2
	2.4 -2.8 -2.8 -4 -2.8 -1.2
	c0 2.7 4.3 2.4 5.9 0.6"/>
<g id="r8">
	<path d="m3.3 -4l-3.4 9.6" class="stroke"/>
	<use x="3.4" y="-4" xlink:href="#r8e"/>
</g>
</defs>
<use x="828.94" y="113.00" xlink:href="#r8"/>
<defs>
<path id="ubclef" class="fill" d="m-200 -87
	c124 -35 222 -78 254 -236
	43 -228 -167 -246 -192 -103
	59 -80 157 22 92 78
	-62 47 -115 -22 -106 -88
	21 -141 270 -136 274 52
	-1 175 -106 264 -322 297
	m357 -250
	c0 -36 51 -34 51 0
	0 37 -51 36 -51 0
	m-2 -129
	c0 -36 51 -34 51 0
	0 38 -51 37 -51 0"/>
<use id="bclef" transform="translate(0,18) scale(0.045)"
	xlink:href="#ubclef"/>
</defs>
<use x="23.54" y="165.00" xlink:href="#bclef"/>
<g font-family="serif" font-size="16" font-weight="bold" font-style="normal"
	transform="translate(42.04,182.50) scale(1.2,1)">
	<text text-anchor="middle">8</text>
	<text y="-12" text-anchor="middle">3</text>
</g>
<use x="85.34" y="174.00" xlink:href="#hd"/>
<path d="M88.84 174.00v-21.00" class="stroke"/>
<use x="134.74" y="171.00" xlink:href="#r8"/>
<use x="167.84" y="168.00" xlink:href="#hd"/>
<path d="M164.34 168.00v25.00" class="stroke"/>
<use x="167.84" y="174.00" xlink:href="#hd"/>
<use x="217.24" y="171.00" xlink:href="#r8"/>
<use x="250.24" y="156.00" xlink:href="#hd"/>
<path d="M246.74 156.00v25.00" class="stroke"/>
<use x="250.24" y="162.00" xlink:href="#hd"/>
<use x="320.24" y="171.00" xlink:href="#r8"/>
<use x="365.14" y="162.00" xlink:href="#hd"/>
<path d="M361.64 162.00v25.00" class="stroke"/>
<use x="365.14" y="168.00" xlink:href="#hd"/>
<use x="424.84" y="171.00" xlink:href="#r8"/>
<path class="fill"
	d="M465.74 150.00l60.50 0.00v3.20l-60.50 -0.00"/>
<use x="462.54" y="171.00" xlink:href="#hd"/>
<path d="M466.04 171.00v-20.00" class="stroke"/>
<use x="487.34" y="171.00" xlink:href="#hd"/>
<path d="M490.84 171.00v-20.00" class="stroke"/>
<use x="522.34" y="171.00" xlink:href="#hd"/>
<path d="M525.84 171.00v-20.00" class="stroke"/>
<path class="fill"
	d="M563.84 149.50l71.10 -4.70v3.20l-71.10 4.70"/>
<use x="560.64" y="177.00" xlink:href="#hd"/>
<path d="M564.14 177.00v-26.50" class="stroke"/>
<use x="560.64" y="171.00" xlink:href="#hd"/>
<use x="596.14" y="177.00" xlink:href="#hd"/>
<path d="M599.64 177.00v-28.90" class="stroke"/>
<use x="596.14" y="171.00" xlink:href="#hd"/>
<use x="631.14" y="177.00" xlink:href="#hd"/>
<path d="M634.64 177.00v-31.20" class="stroke"/>
<use x="631.14" y="162.00" xlink:href="#hd"/>
<path class="fill"
	d="M667.34 148.30l60.30 8.40v3.20l-60.30 -8.40"/>
<use x="664.24" y="174.00" xlink:href="#hd"/>
<path d="M667.74 174.00v-24.60" class="stroke"/>
<use x="688.94" y="171.00" xlink:href="#hd"/>
<path d="M692.44 171.00v-18.20" class="stroke"/>
<use x="723.84" y="189.00" xlink:href="#hl"/>
<use x="723.84" y="192.00" xlink:href="#hd"/>
<path d="M727.34 192.00v-34.30" class="stroke"/>
<path class="fill"
	d="M764.94 202.20l78.30 0.00v-3.20l-78.30 -0.00"/>
<path class="fill"
	d="M790.04 197.20l53.00 0.00v-3.20l-53.00 -0.00"/>
<use x="768.84" y="183.00" xlink:href="#hd"/>
<path d="M765.34 183.00v18.20" class="stroke"/>
<use x="793.54" y="162.00" xlink:href="#hd"/>
<path d="M790.04 162.00v39.20" class="stroke"/>
<use x="811.54" y="165.00" xlink:href="#hd"/>
<defs>
<path id="unat" class="fill" d="
	m96 -750
	h-32
	v716
	l32 -8
	182 -54
	v282
	h32
	v-706
	l-34 10
	-180 50
	v-290
	m0 592
	v-190
	l182 -52
	v188"/>
<use id="nt0" transform="translate(-3,5) scale(0.018)"
	xlink:href="#unat"/>
</defs>
<use x="802.54" y="165.00" xlink:href="#nt0"/>
<path d="M808.04 165.00v36.20" class="stroke"/>
<use x="828.94" y="168.00" xlink:href="#hd"/>
<path d="M825.44 168.00v33.20" class="stroke"/>
<use x="846.44" y="171.00" xlink:href="#hd"/>
<path d="M842.94 171.00v30.20" class="stroke"/>
<path class="fill"
	d="M466.74 195.00l60.50 0.00v-3.20l-60.50 -0.00"/>
<use x="470.54" y="174.00" xlink:href="#hd"/>
<path d="M467.04 174.00v20.00" class="stroke"/>
<use x="495.34" y="174.00" xlink:href="#hd"/>
<path d="M491.84 174.00v20.00" class="stroke"/>
<use x="530.34" y="174.00" xlink:href="#hd"/>
<path d="M526.84 174.00v20.00" class="stroke"/>
</g>
<g stroke-width="0.70" transform="scale(0.867)" font-family="Times" font-size="13.00">
<path class="stroke" stroke-width="1"
	d="M11.54 316.00v-82.00"/>
<path class="fill"
	d="M6.54 231.00
	c10.5 1 12 -4.5 12 -3.5c0 1 -3.5 5.5 -8.5 5.5
	v84.00
	c5 0 8.5 4.5 8.5 5.5c0 1 -1.5 -4.5 -12 -3.5"/>
<use x="142.44" y="258.00" xlink:href="#rdots"/>
<path class="stroke" stroke-width="1"
	d="M138.44 258.00v-24.00"/>
<path class="stroke" stroke-width="3"
	d="M133.94 258.00v-24.00"/>
<use x="142.44" y="316.00" xlink:href="#rdots"/>
<path class="stroke" stroke-width="1"
	d="M138.44 316.00v-58.00"/>
<path class="stroke" stroke-width="3"
	d="M133.94 316.00v-58.00"/>
<path class="stroke" stroke-width="1"
	d="M250.24 258.00v-24.00"/>
<path class="stroke" stroke-width="1"
	d="M250.24 316.00v-58.00"/>
<path class="stroke" stroke-width="1"
	d="M347.44 258.00v-24.00"/>
<path class="stroke" stroke-width="1"
	d="M347.44 316.00v-58.00"/>
<path class="stroke" stroke-width="1"
	d="M444.74 258.00v-24.00"/>
<path class="stroke" stroke-width="1"
	d="M444.74 316.00v-58.00"/>
<path class="stroke" stroke-width="1"
	d="M531.14 258.00v-24.00"/>
<path class="stroke" stroke-width="1"
	d="M531.14 316.00v-58.00"/>
<path class="stroke" stroke-width="1"
	d="M619.54 258.00v-24.00"/>
<path class="stroke" stroke-width="1"
	d="M619.54 316.00v-58.00"/>
<path class="stroke" stroke-width="1"
	d="M688.24 258.00v-24.00"/>
<path class="stroke" stroke-width="1"
	d="M688.24 316.00v-58.00"/>
<path class="stroke" stroke-width="1"
	d="M789.04 258.00v-24.00"/>
<path class="stroke" stroke-width="1"
	d="M789.04 316.00v-58.00"/>
<path class="stroke" stroke-width="3"
	d="M860.54 258.00v-24.00"/>
<path class="stroke" stroke-width="1"
	d="M856.04 258.00v-24.00"/>
<use x="852.04" y="258.00" xlink:href="#rdots"/>
<path class="stroke" stroke-width="3"
	d="M860.54 316.00v-58.00"/>
<path class="stroke" stroke-width="1"
	d="M856.04 316.00v-58.00"/>
<use x="852.04" y="316.00" xlink:href="#rdots"/>
<path d="m11.54 258.00
	h850.50
	M11.54 252.00
	h850.50
	M11.54 246.00
	h850.50
	M11.54 240.00
	h850.50
	M11.54 234.00
	h850.50
	" class="stroke"/>
<path d="m11.54 316.00
	h850.50
	M11.54 310.00
	h850.50
	M11.54 304.00
	h850.50
	M11.54 298.00
	h850.50
	M11.54 292.00
	h850.50
	" class="stroke"/>
<path class="fill"
	d="M632.04 241.00c5.67 -5.28 30.34 -10.49 36.01 -7.60
	v-0.24c-6.75 -4.65 -29.26 0.55 -36.01 7.84"/>
<path class="fill"
	d="M700.74 234.00c2.76 -3.95 14.74 -4.43 17.50 -0.70
	v-0.22c-3.28 -5.51 -14.22 -5.03 -17.50 0.92"/>
<text x="47.54" y="219.40">2</text>
<path class="stroke"
	d="M43.54 208.00m0 20v-20h87.90v20"/>
<use x="23.54" y="252.00" xlink:href="#tclef"/>
<use x="56.04" y="231.00" xlink:href="#hd"/>
<path d="M52.54 231.00v40.00" class="stroke"/>
<use x="56.04" y="252.00" xlink:href="#hd"/>
<use x="56.04" y="246.00" xlink:href="#hd"/>
<use x="56.04" y="240.00" xlink:href="#hd"/>
<use x="108.54" y="246.00" xlink:href="#r8"/>
<path class="fill"
	d="M158.14 272.60l76.50 -7.00v-3.20l-76.50 7.00"/>
<path class="fill"
	d="M158.44 267.50l75.80 -7.00v-3.20l-75.80 7.00"/>
<use x="161.94" y="240.00" xlink:href="#hd"/>
<path d="M158.44 240.00v31.50" class="stroke"/>
<use x="176.34" y="249.00" xlink:href="#hd"/>
<path d="M172.84 249.00v21.20" class="stroke"/>
<use x="190.84" y="240.00" xlink:href="#hd"/>
<path d="M187.34 240.00v28.90" class="stroke"/>
<use x="208.84" y="234.00" xlink:href="#hd"/>
<use x="199.84" y="234.00" xlink:href="#sh0"/>
<path d="M205.34 234.00v33.20" class="stroke"/>
<use x="223.24" y="228.00" xlink:href="#hl"/>
<use x="223.24" y="228.00" xlink:href="#hd"/>
<path d="M219.74 228.00v37.90" class="stroke"/>
<use x="237.74" y="234.00" xlink:href="#hd"/>
<path d="M234.24 234.00v30.60" class="stroke"/>
<path class="fill"
	d="M258.84 260.00l72.90 0.00v-3.20l-72.90 -0.00"/>
<path class="fill"
	d="M259.24 255.00l72.20 0.00v-3.20l-72.20 -0.00"/>
<use x="262.74" y="231.00" xlink:href="#hd"/>
<path d="M259.24 231.00v28.00" class="stroke"/>
<use x="277.14" y="240.00" xlink:href="#hd"/>
<path d="M273.64 240.00v19.00" class="stroke"/>
<use x="291.64" y="231.00" xlink:href="#hd"/>
<path d="M288.14 231.00v28.00" class="stroke"/>
<use x="306.04" y="228.00" xlink:href="#hl"/>
<use x="306.04" y="225.00" xlink:href="#hd"/>
<path d="M302.54 225.00v34.00" class="stroke"/>
<use x="320.54" y="231.00" xlink:href="#hd"/>
<path d="M317.04 231.00v28.00" class="stroke"/>
<use x="334.94" y="240.00" xlink:href="#hd"/>
<path d="M331.44 240.00v19.00" class="stroke"/>
<path class="fill"
	d="M356.14 266.60l72.90 -6.80v-3.20l-72.90 6.80"/>
<path class="fill"
	d="M356.44 261.50l72.20 -6.70v-3.20l-72.20 6.70"/>
<use x="359.94" y="237.00" xlink:href="#hd"/>
<path d="M356.44 237.00v28.50" class="stroke"/>
<use x="374.44" y="243.00" xlink:href="#hd"/>
<path d="M370.94 243.00v21.20" class="stroke"/>
<use x="388.84" y="237.00" xlink:href="#hd"/>
<path d="M385.34 237.00v25.90" class="stroke"/>
<use x="403.34" y="231.00" xlink:href="#hd"/>
<path d="M399.84 231.00v30.50" class="stroke"/>
<use x="417.74" y="228.00" xlink:href="#hl"/>
<use x="417.74" y="222.00" xlink:href="#hl"/>
<use x="417.74" y="222.00" xlink:href="#hd"/>
<path d="M414.24 222.00v38.20" class="stroke"/>
<use x="432.24" y="231.00" xlink:href="#hd"/>
<path d="M428.74 231.00v27.80" class="stroke"/>
<path class="fill"
	d="M453.34 268.20l58.50 0.00v-3.20l-58.50 -0.00"/>
<path class="fill"
	d="M453.74 263.20l43.30 0.00v-3.20l-43.30 -0.00"/>
<use x="457.24" y="237.00" xlink:href="#hd"/>
<path d="M453.74 237.00v30.20" class="stroke"/>
<use x="471.64" y="243.00" xlink:href="#hd"/>
<path d="M468.14 243.00v24.20" class="stroke"/>
<use x="486.04" y="246.00" xlink:href="#hd"/>
<path d="M482.54 246.00v21.20" class="stroke"/>
<use x="500.54" y="240.00" xlink:href="#hd"/>
<path d="M497.04 240.00v27.20" class="stroke"/>
<use x="514.94" y="231.00" xlink:href="#hd"/>
<path d="M511.44 231.00v36.20" class="stroke"/>
<path class="fill"
	d="M539.84 256.40l64.00 8.90v-3.20l-64.00 -8.90"/>
<path class="fill"
	d="M560.14 254.20l43.30 6.00v-3.20l-43.30 -6.00"/>
<use x="543.64" y="231.00" xlink:href="#hd"/>
<path d="M540.14 231.00v24.40" class="stroke"/>
<use x="563.64" y="234.00" xlink:href="#hd"/>
<path d="M560.14 234.00v24.20" class="stroke"/>
<use x="578.14" y="237.00" xlink:href="#hd"/>
<path d="M574.64 237.00v23.20" class="stroke"/>
<use x="592.54" y="240.00" xlink:href="#hd"/>
<path d="M589.04 240.00v22.20" class="stroke"/>
<use x="607.04" y="243.00" xlink:href="#hd"/>
<path d="M603.54 243.00v21.20" class="stroke"/>
<path class="fill"
	d="M628.14 271.30l40.70 -6.30v-3.20l-40.70 6.30"/>
<use x="632.04" y="252.00" xlink:href="#hd"/>
<path d="M628.54 252.00v18.20" class="stroke"/>
<use x="652.04" y="243.00" xlink:href="#hd"/>
<path d="M648.54 243.00v24.10" class="stroke"/>
<use x="672.04" y="237.00" xlink:href="#hd"/>
<path d="M668.54 237.00v27.00" class="stroke"/>
<path class="fill"
	d="M696.94 274.20l76.50 0.00v-3.20l-76.50 -0.00"/>
<path class="fill"
	d="M697.24 269.20l75.80 0.00v-3.20l-75.80 -0.00"/>
<use x="700.74" y="240.00" xlink:href="#hd"/>
<path d="M697.24 240.00v33.20" class="stroke"/>
<use x="718.74" y="243.00" xlink:href="#hd"/>
<use x="709.74" y="243.00" xlink:href="#sh0"/>
<path d="M715.24 243.00v30.20" class="stroke"/>
<use x="733.14" y="240.00" xlink:href="#hd"/>
<path d="M729.64 240.00v33.20" class="stroke"/>
<use x="747.64" y="234.00" xlink:href="#hd"/>
<path d="M744.14 234.00v39.20" class="stroke"/>
<use x="762.04" y="252.00" xlink:href="#hd"/>
<path d="M758.54 252.00v21.20" class="stroke"/>
<use x="776.54" y="246.00" xlink:href="#hd"/>
<path d="M773.04 246.00v27.20" class="stroke"/>
<use x="801.54" y="243.00" xlink:href="#hd"/>
<path d="M798.04 243.00v21.00" class="stroke"/>
<use x="841.54" y="246.00" xlink:href="#r8"/>
<use x="23.54" y="298.00" xlink:href="#bclef"/>
<path class="fill"
	d="M52.24 335.20l67.60 -4.90v-3.20l-67.60 4.90"/>
<path class="fill"
	d="M72.54 328.70l46.90 -3.40v-3.20l-46.90 3.40"/>
<use x="56.04" y="316.00" xlink:href="#hd"/>
<path d="M52.54 316.00v18.20" class="stroke"/>
<use x="76.04" y="289.00" xlink:href="#hd"/>
<path d="M72.54 289.00v43.70" class="stroke"/>
<use x="90.54" y="295.00" xlink:href="#hd"/>
<path d="M87.04 295.00v36.70" class="stroke"/>
<use x="108.54" y="298.00" xlink:href="#hd"/>
<use x="99.54" y="298.00" xlink:href="#sh0"/>
<path d="M105.04 298.00v32.40" class="stroke"/>
<use x="122.94" y="301.00" xlink:href="#hd"/>
<path d="M119.44 301.00v28.30" class="stroke"/>
<use x="161.94" y="298.00" xlink:href="#hd"/>
<use x="152.94" y="298.00" xlink:href="#sh0"/>
<path d="M158.44 298.00v25.00" class="stroke"/>
<use x="161.94" y="304.00" xlink:href="#hd"/>
<use x="223.24" y="304.00" xlink:href="#r8"/>
<use x="262.74" y="310.00" xlink:href="#hd"/>
<path d="M266.24 310.00v-25.00" class="stroke"/>
<use x="262.74" y="304.00" xlink:href="#hd"/>
<use x="320.54" y="310.00" xlink:href="#hd"/>
<path d="M324.04 310.00v-25.00" class="stroke"/>
<path class="fill"
	d="M324.04 285.00c0.6 5.6 9.6 9 5.6 18.4
	1.6 -6 -1.3 -11.6 -5.6 -12.8
"/>
<use x="320.54" y="304.00" xlink:href="#hd"/>
<use x="359.94" y="295.00" xlink:href="#hd"/>
<path d="M356.44 295.00v31.00" class="stroke"/>
<use x="359.94" y="307.00" xlink:href="#hd"/>
<use x="417.74" y="304.00" xlink:href="#r8"/>
<path class="fill"
	d="M460.34 275.70l29.60 8.80v3.20l-29.60 -8.80"/>
<use x="457.24" y="295.00" xlink:href="#hd"/>
<path d="M460.74 295.00v-18.20" class="stroke"/>
<use x="486.04" y="316.00" xlink:href="#hd"/>
<path d="M489.54 316.00v-30.60" class="stroke"/>
<use x="514.94" y="304.00" xlink:href="#r8"/>
<use x="543.64" y="301.00" xlink:href="#hd"/>
<path d="M540.14 301.00v25.00" class="stroke"/>
<use x="543.64" y="307.00" xlink:href="#hd"/>
<use x="592.54" y="304.00" xlink:href="#r8"/>
<use x="632.04" y="301.00" xlink:href="#hd"/>
<path d="M628.54 301.00v25.00" class="stroke"/>
<use x="632.04" y="307.00" xlink:href="#hd"/>
<use x="672.04" y="295.00" xlink:href="#hd"/>
<path d="M668.54 295.00v31.00" class="stroke"/>
<path class="fill"
	d="M668.54 326.00c0.6 -5.6 9.6 -9 5.6 -18.4
	1.6 6 -1.3 11.6 -5.6 12.8
"/>
<use x="672.04" y="307.00" xlink:href="#hd"/>
<use x="700.74" y="298.00" xlink:href="#hd"/>
<path d="M697.24 298.00v21.00" class="stroke"/>
<use x="762.04" y="295.00" xlink:href="#hd"/>
<path d="M758.54 295.00v21.00" class="stroke"/>
<path class="fill"
	d="M758.54 316.00c0.6 -5.6 9.6 -9 5.6 -18.4
	1.6 6 -1.3 11.6 -5.6 12.8
"/>
<path class="fill"
	d="M804.64 287.70l40.70 9.60v3.20l-40.70 -9.60"/>
<use x="801.54" y="307.00" xlink:href="#hd"/>
<path d="M805.04 307.00v-18.20" class="stroke"/>
<use x="821.54" y="316.00" xlink:href="#hd"/>
<path d="M825.04 316.00v-22.50" class="stroke"/>
<use x="841.54" y="322.00" xlink:href="#hl"/>
<use x="841.54" y="328.00" xlink:href="#hl"/>
<use x="841.54" y="328.00" xlink:href="#hd"/>
<path d="M845.04 328.00v-29.70" class="stroke"/>
</g>
</svg>
