<?xml version="1.0" standalone="no"?>
<!DOCTYPE svg PUBLIC "-//W3C//DTD SVG 1.1//EN"
	"http://www.w3.org/Graphics/SVG/1.1/DTD/svg11.dtd">
<svg xmlns="http://www.w3.org/2000/svg" version="1.1"
	xmlns:xlink="http://www.w3.org/1999/xlink"
	color="black"
	width="757.10px" height="297.27px">
<style type="text/css">
.fill {fill: currentColor}
.stroke {stroke: currentColor; fill: none}
text{white-space: pre}
</style>
<title>./K516f-12-5-12-8-5-4-6-10-5-4-8-3-7-7-2-6.abc (1715) tune 1</title>
<!-- Creator: abcm2ps-8.13.8 -->
<!-- CreationDate: Sep  7, 2017 11:20 -->
<!-- CommandLine: ./K516f-12-5-12-8-5-4-6-10-5-4-8-3-7-7-2-6.abc -O ./K516f-12-5-12-8-5-4-6-10-5-4-8-3-7-7-2-6.svg -g -->
<rect width="100%" height="100%" fill="white"/>
<g stroke-width="0.70" transform="scale(0.867)">
<!-- title: 12-5-12-8-5-4-6-10-5-4-8-3-7-7-2-6 -->
</g>
<g stroke-width="0.70" transform="scale(0.867)" font-family="Times" font-size="20.00">
<text x="436.84" y="22.00" text-anchor="middle">12-5-12-8-5-4-6-10-5-4-8-3-7-7-2-6</text>
</g>
<g stroke-width="0.70" transform="scale(0.867)" font-family="Times" font-size="20.00">
<!-- subtitle: $1K.516f::54:17:10:53:161:55:36:123:90:139:57:56:101:162:109:93::$0 -->
</g>
<g stroke-width="0.70" transform="scale(0.867)" font-family="Courier" font-size="8.00" font-weight="bold">
<text x="436.84" y="41.80" text-anchor="middle">K.516f::54:17:10:53:161:55:36:123:90:139:57:56:101:162:109:93::</text>
</g>
<g stroke-width="0.70" transform="scale(0.867)" font-family="Courier" font-size="8.00" font-weight="bold">
<!-- subtitle: $1Perm. No.: 17159279988191$0 -->
<text x="436.84" y="60.80" text-anchor="middle">Perm. No.: 17159279988191</text>
</g>
<g stroke-width="0.70" transform="scale(0.607)" font-family="Courier" font-size="8.00" font-weight="bold">
<defs>
<ellipse id="hd" rx="4.1" ry="2.9"
	transform="rotate(-20)" class="fill"/>
</defs>
<use x="103.06" y="121.29" xlink:href="#hd"/>
<path d="M106.56 121.29v-21.00" class="stroke"/>
<path class="fill"
	d="M106.56 100.29c0.6 5.6 9.6 9 5.6 18.4
	1.6 -6 -1.3 -11.6 -5.6 -12.8
"/>
</g>
<g stroke-width="0.70" transform="scale(0.867)" font-family="Times" font-size="15.00" font-weight="bold">
<text x="81.24" y="87.00">= 111</text>
<path class="stroke" stroke-width="1"
	d="M11.54 187.00v-82.00"/>
<path class="fill"
	d="M6.54 102.00
	c10.5 1 12 -4.5 12 -3.5c0 1 -3.5 5.5 -8.5 5.5
	v84.00
	c5 0 8.5 4.5 8.5 5.5c0 1 -1.5 -4.5 -12 -3.5"/>
<defs>
<g id="rdots" class="fill">
	<circle cx="0" cy="-9" r="1.2"/>
	<circle cx="0" cy="-15" r="1.2"/>
</g>
</defs>
<use x="70.54" y="129.00" xlink:href="#rdots"/>
<path class="stroke" stroke-width="1"
	d="M66.54 129.00v-24.00"/>
<path class="stroke" stroke-width="3"
	d="M62.04 129.00v-24.00"/>
<use x="70.54" y="187.00" xlink:href="#rdots"/>
<path class="stroke" stroke-width="1"
	d="M66.54 187.00v-58.00"/>
<path class="stroke" stroke-width="3"
	d="M62.04 187.00v-58.00"/>
<path class="stroke" stroke-width="1"
	d="M153.24 129.00v-24.00"/>
<path class="stroke" stroke-width="1"
	d="M153.24 187.00v-58.00"/>
<path class="stroke" stroke-width="1"
	d="M267.14 129.00v-24.00"/>
<path class="stroke" stroke-width="1"
	d="M267.14 187.00v-58.00"/>
<path class="stroke" stroke-width="1"
	d="M380.94 129.00v-24.00"/>
<path class="stroke" stroke-width="1"
	d="M380.94 187.00v-58.00"/>
<path class="stroke" stroke-width="1"
	d="M472.84 129.00v-24.00"/>
<path class="stroke" stroke-width="1"
	d="M472.84 187.00v-58.00"/>
<path class="stroke" stroke-width="1"
	d="M559.54 129.00v-24.00"/>
<path class="stroke" stroke-width="1"
	d="M559.54 187.00v-58.00"/>
<path class="stroke" stroke-width="1"
	d="M641.24 129.00v-24.00"/>
<path class="stroke" stroke-width="1"
	d="M641.24 187.00v-58.00"/>
<path class="stroke" stroke-width="1"
	d="M755.84 129.00v-24.00"/>
<path class="stroke" stroke-width="1"
	d="M755.84 187.00v-58.00"/>
<path class="stroke" stroke-width="3"
	d="M860.54 129.00v-24.00"/>
<path class="stroke" stroke-width="1"
	d="M856.04 129.00v-24.00"/>
<use x="852.04" y="129.00" xlink:href="#rdots"/>
<path class="stroke" stroke-width="3"
	d="M860.54 187.00v-58.00"/>
<path class="stroke" stroke-width="1"
	d="M856.04 187.00v-58.00"/>
<use x="852.04" y="187.00" xlink:href="#rdots"/>
<path d="m11.54 129.00
	h850.50
	M11.54 123.00
	h850.50
	M11.54 117.00
	h850.50
	M11.54 111.00
	h850.50
	M11.54 105.00
	h850.50
	" class="stroke"/>
<path d="m11.54 187.00
	h850.50
	M11.54 181.00
	h850.50
	M11.54 175.00
	h850.50
	M11.54 169.00
	h850.50
	M11.54 163.00
	h850.50
	" class="stroke"/>
</g>
<g stroke-width="0.70" transform="scale(0.867)" font-family="Times" font-size="13.00">
<text x="759.84" y="90.40">1</text>
<path class="stroke"
	d="M755.84 79.00m0 20v-20h98.20v20"/>
<defs>
<path id="utclef" class="fill" d="m-50 -90
	c-72 -41 -72 -158 52 -188
	150 -10 220 188 90 256
	-114 52 -275 0 -293 -136
	-15 -181 93 -229 220 -334
	88 -87 79 -133 62 -210
	-51 33 -94 105 -89 186
	17 267 36 374 49 574
	6 96 -19 134 -77 135
	-80 1 -126 -93 -61 -133
	85 -41 133 101 31 105
	23 17 92 37 90 -92
	-10 -223 -39 -342 -50 -617
	0 -90 0 -162 96 -232
	56 72 63 230 22 289
	-74 106 -257 168 -255 316
	9 153 148 185 252 133
	86 -65 29 -192 -80 -176
	-71 12 -105 67 -59 124"/>
<use id="tclef" transform="translate(0,6) scale(0.045)"
	xlink:href="#utclef"/>
</defs>
<use x="23.54" y="123.00" xlink:href="#tclef"/>
<g font-family="serif" font-size="16" font-weight="bold" font-style="normal"
	transform="translate(42.04,128.50) scale(1.2,1)">
	<text text-anchor="middle">8</text>
	<text y="-12" text-anchor="middle">3</text>
</g>
<path class="fill"
	d="M88.34 95.00l49.60 0.00v3.20l-49.60 -0.00"/>
<use x="85.24" y="129.00" xlink:href="#hd"/>
<path d="M88.74 129.00v-33.00" class="stroke"/>
<use x="85.24" y="114.00" xlink:href="#hd"/>
<use x="109.74" y="129.00" xlink:href="#hd"/>
<path d="M113.24 129.00v-33.00" class="stroke"/>
<use x="109.74" y="114.00" xlink:href="#hd"/>
<use x="134.14" y="129.00" xlink:href="#hd"/>
<path d="M137.64 129.00v-33.00" class="stroke"/>
<use x="134.14" y="114.00" xlink:href="#hd"/>
<path class="fill"
	d="M163.14 145.20l87.30 0.00v-3.20l-87.30 -0.00"/>
<path class="fill"
	d="M163.44 140.20l86.60 0.00v-3.20l-86.60 -0.00"/>
<use x="166.94" y="114.00" xlink:href="#hd"/>
<path d="M163.44 114.00v30.20" class="stroke"/>
<use x="184.24" y="123.00" xlink:href="#hd"/>
<path d="M180.74 123.00v21.20" class="stroke"/>
<use x="201.54" y="114.00" xlink:href="#hd"/>
<path d="M198.04 114.00v30.20" class="stroke"/>
<use x="218.94" y="108.00" xlink:href="#hd"/>
<path d="M215.44 108.00v36.20" class="stroke"/>
<use x="236.24" y="123.00" xlink:href="#hd"/>
<path d="M232.74 123.00v21.20" class="stroke"/>
<use x="253.54" y="114.00" xlink:href="#hd"/>
<path d="M250.04 114.00v30.20" class="stroke"/>
<path class="fill"
	d="M276.94 142.20l87.30 0.00v-3.20l-87.30 -0.00"/>
<path class="fill"
	d="M277.24 137.20l86.60 0.00v-3.20l-86.60 -0.00"/>
<use x="280.74" y="117.00" xlink:href="#hd"/>
<path d="M277.24 117.00v24.20" class="stroke"/>
<use x="298.14" y="120.00" xlink:href="#hd"/>
<path d="M294.64 120.00v21.20" class="stroke"/>
<use x="315.44" y="117.00" xlink:href="#hd"/>
<path d="M311.94 117.00v24.20" class="stroke"/>
<use x="332.74" y="114.00" xlink:href="#hd"/>
<path d="M329.24 114.00v27.20" class="stroke"/>
<use x="350.04" y="111.00" xlink:href="#hd"/>
<path d="M346.54 111.00v30.20" class="stroke"/>
<use x="367.44" y="117.00" xlink:href="#hd"/>
<path d="M363.94 117.00v24.20" class="stroke"/>
<path class="fill"
	d="M390.74 131.00l59.80 0.00v-3.20l-59.80 -0.00"/>
<path class="fill"
	d="M415.54 126.00l17.30 0.00v-3.20l-17.30 -0.00"/>
<use x="394.64" y="108.00" xlink:href="#hd"/>
<path d="M391.14 108.00v22.00" class="stroke"/>
<use x="394.64" y="114.00" xlink:href="#hd"/>
<use x="419.04" y="108.00" xlink:href="#hd"/>
<path d="M415.54 108.00v22.00" class="stroke"/>
<use x="419.04" y="114.00" xlink:href="#hd"/>
<use x="436.44" y="105.00" xlink:href="#hd"/>
<path d="M432.94 105.00v25.00" class="stroke"/>
<use x="436.44" y="111.00" xlink:href="#hd"/>
<use x="453.74" y="102.00" xlink:href="#hd"/>
<path d="M450.24 102.00v28.00" class="stroke"/>
<use x="453.74" y="108.00" xlink:href="#hd"/>
<path class="fill"
	d="M494.44 92.00l49.80 0.00v3.20l-49.80 -0.00"/>
<use x="491.34" y="126.00" xlink:href="#hd"/>
<defs>
<path id="usharp" class="fill" d="
	m136 -702
	v890
	h32
	v-890
	m128 840
	h32
	v-888
	h-32
	m-232 286
	v116
	l338 -96
	v-116
	m-338 442
	v116
	l338 -98
	v-114"/>
<use id="sh0" transform="translate(-4,5) scale(0.018)"
	xlink:href="#usharp"/>
</defs>
<use x="482.34" y="126.00" xlink:href="#sh0"/>
<path d="M494.84 126.00v-33.00" class="stroke"/>
<use x="491.34" y="111.00" xlink:href="#hd"/>
<use x="515.94" y="126.00" xlink:href="#hd"/>
<use x="506.94" y="126.00" xlink:href="#sh0"/>
<path d="M519.44 126.00v-33.00" class="stroke"/>
<use x="515.94" y="111.00" xlink:href="#hd"/>
<use x="540.44" y="126.00" xlink:href="#hd"/>
<use x="531.44" y="126.00" xlink:href="#sh0"/>
<path d="M543.94 126.00v-33.00" class="stroke"/>
<use x="540.44" y="111.00" xlink:href="#hd"/>
<path class="fill"
	d="M569.44 125.70l49.60 4.50v-3.20l-49.60 -4.50"/>
<use x="573.24" y="102.00" xlink:href="#hd"/>
<path d="M569.74 102.00v22.80" class="stroke"/>
<defs>
<path id="hl" class="stroke" d="m-6 0h12"/>
</defs>
<use x="597.74" y="99.00" xlink:href="#hl"/>
<use x="597.74" y="96.00" xlink:href="#hd"/>
<path d="M594.24 96.00v31.00" class="stroke"/>
<use x="622.24" y="111.00" xlink:href="#hd"/>
<path d="M618.74 111.00v18.20" class="stroke"/>
<path class="fill"
	d="M651.14 142.20l88.00 -8.50v-3.20l-88.00 8.50"/>
<path class="fill"
	d="M651.44 137.20l87.30 -8.50v-3.20l-87.30 8.50"/>
<use x="654.94" y="120.00" xlink:href="#hd"/>
<path d="M651.44 120.00v21.20" class="stroke"/>
<use x="672.34" y="108.00" xlink:href="#hd"/>
<path d="M668.84 108.00v31.50" class="stroke"/>
<use x="689.64" y="111.00" xlink:href="#hd"/>
<path d="M686.14 111.00v26.80" class="stroke"/>
<use x="706.94" y="102.00" xlink:href="#hd"/>
<path d="M703.44 102.00v34.20" class="stroke"/>
<use x="724.94" y="105.00" xlink:href="#hd"/>
<use x="715.94" y="105.00" xlink:href="#sh0"/>
<path d="M721.44 105.00v29.40" class="stroke"/>
<use x="742.24" y="99.00" xlink:href="#hl"/>
<use x="742.24" y="99.00" xlink:href="#hd"/>
<path d="M738.74 99.00v33.70" class="stroke"/>
<use x="769.44" y="102.00" xlink:href="#hd"/>
<path d="M765.94 102.00v40.00" class="stroke"/>
<use x="769.44" y="123.00" xlink:href="#hd"/>
<use x="769.44" y="117.00" xlink:href="#hd"/>
<use x="769.44" y="111.00" xlink:href="#hd"/>
<defs>
<path id="r8e" class="fill" d="m 0 0
	c-1.5 1.5 -2.4 2 -3.6 2
	2.4 -2.8 -2.8 -4 -2.8 -1.2
	c0 2.7 4.3 2.4 5.9 0.6"/>
<g id="r8">
	<path d="m3.3 -4l-3.4 9.6" class="stroke"/>
	<use x="3.4" y="-4" xlink:href="#r8e"/>
</g>
</defs>
<use x="829.24" y="117.00" xlink:href="#r8"/>
<defs>
<path id="ubclef" class="fill" d="m-200 -87
	c124 -35 222 -78 254 -236
	43 -228 -167 -246 -192 -103
	59 -80 157 22 92 78
	-62 47 -115 -22 -106 -88
	21 -141 270 -136 274 52
	-1 175 -106 264 -322 297
	m357 -250
	c0 -36 51 -34 51 0
	0 37 -51 36 -51 0
	m-2 -129
	c0 -36 51 -34 51 0
	0 38 -51 37 -51 0"/>
<use id="bclef" transform="translate(0,18) scale(0.045)"
	xlink:href="#ubclef"/>
</defs>
<use x="23.54" y="169.00" xlink:href="#bclef"/>
<g font-family="serif" font-size="16" font-weight="bold" font-style="normal"
	transform="translate(42.04,186.50) scale(1.2,1)">
	<text text-anchor="middle">8</text>
	<text y="-12" text-anchor="middle">3</text>
</g>
<path class="fill"
	d="M88.34 157.00l49.60 0.00v3.20l-49.60 -0.00"/>
<use x="85.24" y="178.00" xlink:href="#hd"/>
<path d="M88.74 178.00v-20.00" class="stroke"/>
<use x="109.74" y="178.00" xlink:href="#hd"/>
<path d="M113.24 178.00v-20.00" class="stroke"/>
<use x="134.14" y="178.00" xlink:href="#hd"/>
<path d="M137.64 178.00v-20.00" class="stroke"/>
<use x="166.94" y="166.00" xlink:href="#hd"/>
<path d="M163.44 166.00v25.00" class="stroke"/>
<use x="166.94" y="172.00" xlink:href="#hd"/>
<use x="236.24" y="175.00" xlink:href="#r8"/>
<use x="280.74" y="166.00" xlink:href="#hd"/>
<path d="M277.24 166.00v21.00" class="stroke"/>
<use x="350.04" y="175.00" xlink:href="#r8"/>
<use x="394.64" y="178.00" xlink:href="#hd"/>
<path d="M398.14 178.00v-21.00" class="stroke"/>
<use x="453.74" y="175.00" xlink:href="#r8"/>
<path class="fill"
	d="M494.44 157.00l49.80 0.00v3.20l-49.80 -0.00"/>
<use x="491.34" y="178.00" xlink:href="#hd"/>
<path d="M494.84 178.00v-20.00" class="stroke"/>
<use x="515.94" y="178.00" xlink:href="#hd"/>
<path d="M519.44 178.00v-20.00" class="stroke"/>
<use x="540.44" y="178.00" xlink:href="#hd"/>
<path d="M543.94 178.00v-20.00" class="stroke"/>
<use x="573.24" y="181.00" xlink:href="#hd"/>
<path d="M576.74 181.00v-25.00" class="stroke"/>
<use x="573.24" y="175.00" xlink:href="#hd"/>
<use x="622.24" y="175.00" xlink:href="#r8"/>
<path class="fill"
	d="M658.14 151.70l70.60 8.40v3.20l-70.60 -8.40"/>
<use x="654.94" y="178.00" xlink:href="#hd"/>
<path d="M658.44 178.00v-25.30" class="stroke"/>
<use x="689.64" y="175.00" xlink:href="#hd"/>
<path d="M693.14 175.00v-18.20" class="stroke"/>
<use x="724.94" y="193.00" xlink:href="#hl"/>
<use x="724.94" y="196.00" xlink:href="#hd"/>
<path d="M728.44 196.00v-35.00" class="stroke"/>
<path class="fill"
	d="M765.64 206.20l77.80 0.00v-3.20l-77.80 -0.00"/>
<path class="fill"
	d="M790.44 201.20l52.60 0.00v-3.20l-52.60 -0.00"/>
<use x="769.44" y="187.00" xlink:href="#hd"/>
<path d="M765.94 187.00v18.20" class="stroke"/>
<use x="793.94" y="166.00" xlink:href="#hd"/>
<path d="M790.44 166.00v39.20" class="stroke"/>
<use x="811.94" y="169.00" xlink:href="#hd"/>
<defs>
<path id="unat" class="fill" d="
	m96 -750
	h-32
	v716
	l32 -8
	182 -54
	v282
	h32
	v-706
	l-34 10
	-180 50
	v-290
	m0 592
	v-190
	l182 -52
	v188"/>
<use id="nt0" transform="translate(-3,5) scale(0.018)"
	xlink:href="#unat"/>
</defs>
<use x="802.94" y="169.00" xlink:href="#nt0"/>
<path d="M808.44 169.00v36.20" class="stroke"/>
<use x="829.24" y="172.00" xlink:href="#hd"/>
<path d="M825.74 172.00v33.20" class="stroke"/>
<use x="846.64" y="175.00" xlink:href="#hd"/>
<path d="M843.14 175.00v30.20" class="stroke"/>
</g>
<g stroke-width="0.70" transform="scale(0.867)" font-family="Times" font-size="13.00">
<path class="stroke" stroke-width="1"
	d="M11.54 320.00v-82.00"/>
<path class="fill"
	d="M6.54 235.00
	c10.5 1 12 -4.5 12 -3.5c0 1 -3.5 5.5 -8.5 5.5
	v84.00
	c5 0 8.5 4.5 8.5 5.5c0 1 -1.5 -4.5 -12 -3.5"/>
<use x="141.54" y="262.00" xlink:href="#rdots"/>
<path class="stroke" stroke-width="1"
	d="M137.54 262.00v-24.00"/>
<path class="stroke" stroke-width="3"
	d="M133.04 262.00v-24.00"/>
<use x="141.54" y="320.00" xlink:href="#rdots"/>
<path class="stroke" stroke-width="1"
	d="M137.54 320.00v-58.00"/>
<path class="stroke" stroke-width="3"
	d="M133.04 320.00v-58.00"/>
<path class="stroke" stroke-width="1"
	d="M244.74 262.00v-24.00"/>
<path class="stroke" stroke-width="1"
	d="M244.74 320.00v-58.00"/>
<path class="stroke" stroke-width="1"
	d="M329.84 262.00v-24.00"/>
<path class="stroke" stroke-width="1"
	d="M329.84 320.00v-58.00"/>
<path class="stroke" stroke-width="1"
	d="M425.74 262.00v-24.00"/>
<path class="stroke" stroke-width="1"
	d="M425.74 320.00v-58.00"/>
<path class="stroke" stroke-width="1"
	d="M502.14 262.00v-24.00"/>
<path class="stroke" stroke-width="1"
	d="M502.14 320.00v-58.00"/>
<path class="stroke" stroke-width="1"
	d="M598.04 262.00v-24.00"/>
<path class="stroke" stroke-width="1"
	d="M598.04 320.00v-58.00"/>
<path class="stroke" stroke-width="1"
	d="M693.94 262.00v-24.00"/>
<path class="stroke" stroke-width="1"
	d="M693.94 320.00v-58.00"/>
<path class="stroke" stroke-width="1"
	d="M789.74 262.00v-24.00"/>
<path class="stroke" stroke-width="1"
	d="M789.74 320.00v-58.00"/>
<path class="stroke" stroke-width="3"
	d="M860.54 262.00v-24.00"/>
<path class="stroke" stroke-width="1"
	d="M856.04 262.00v-24.00"/>
<use x="852.04" y="262.00" xlink:href="#rdots"/>
<path class="stroke" stroke-width="3"
	d="M860.54 320.00v-58.00"/>
<path class="stroke" stroke-width="1"
	d="M856.04 320.00v-58.00"/>
<use x="852.04" y="320.00" xlink:href="#rdots"/>
<path d="m11.54 262.00
	h850.50
	M11.54 256.00
	h850.50
	M11.54 250.00
	h850.50
	M11.54 244.00
	h850.50
	M11.54 238.00
	h850.50
	" class="stroke"/>
<path d="m11.54 320.00
	h850.50
	M11.54 314.00
	h850.50
	M11.54 308.00
	h850.50
	M11.54 302.00
	h850.50
	M11.54 296.00
	h850.50
	" class="stroke"/>
<text x="47.54" y="223.40">2</text>
<path class="stroke"
	d="M43.54 212.00m0 20v-20h87.00v20"/>
<use x="23.54" y="256.00" xlink:href="#tclef"/>
<use x="56.04" y="235.00" xlink:href="#hd"/>
<path d="M52.54 235.00v40.00" class="stroke"/>
<use x="56.04" y="256.00" xlink:href="#hd"/>
<use x="56.04" y="250.00" xlink:href="#hd"/>
<use x="56.04" y="244.00" xlink:href="#hd"/>
<use x="107.84" y="250.00" xlink:href="#r8"/>
<path class="fill"
	d="M157.14 262.20l71.90 0.00v-3.20l-71.90 -0.00"/>
<path class="fill"
	d="M157.54 257.20l71.20 0.00v-3.20l-71.20 -0.00"/>
<use x="161.04" y="238.00" xlink:href="#hd"/>
<use x="152.04" y="238.00" xlink:href="#sh0"/>
<path d="M157.54 238.00v23.20" class="stroke"/>
<use x="175.24" y="232.00" xlink:href="#hl"/>
<use x="175.24" y="232.00" xlink:href="#hd"/>
<path d="M171.74 232.00v29.20" class="stroke"/>
<use x="189.54" y="232.00" xlink:href="#hl"/>
<use x="189.54" y="226.00" xlink:href="#hl"/>
<use x="189.54" y="223.00" xlink:href="#hd"/>
<path d="M186.04 223.00v38.20" class="stroke"/>
<use x="203.94" y="232.00" xlink:href="#hl"/>
<use x="203.94" y="232.00" xlink:href="#hd"/>
<path d="M200.44 232.00v29.20" class="stroke"/>
<use x="218.04" y="238.00" xlink:href="#hd"/>
<path d="M214.54 238.00v23.20" class="stroke"/>
<use x="232.24" y="232.00" xlink:href="#hl"/>
<use x="232.24" y="232.00" xlink:href="#hd"/>
<path d="M228.74 232.00v29.20" class="stroke"/>
<path class="fill"
	d="M253.44 264.00l57.40 0.00v-3.20l-57.40 -0.00"/>
<path class="fill"
	d="M253.74 259.00l42.50 0.00v-3.20l-42.50 -0.00"/>
<use x="257.24" y="235.00" xlink:href="#hd"/>
<path d="M253.74 235.00v28.00" class="stroke"/>
<use x="271.44" y="232.00" xlink:href="#hl"/>
<use x="271.44" y="229.00" xlink:href="#hd"/>
<path d="M267.94 229.00v34.00" class="stroke"/>
<use x="285.64" y="235.00" xlink:href="#hd"/>
<path d="M282.14 235.00v28.00" class="stroke"/>
<use x="299.74" y="232.00" xlink:href="#hl"/>
<use x="299.74" y="229.00" xlink:href="#hd"/>
<path d="M296.24 229.00v34.00" class="stroke"/>
<use x="313.94" y="244.00" xlink:href="#hd"/>
<path d="M310.44 244.00v19.00" class="stroke"/>
<path class="fill"
	d="M338.54 268.30l57.40 6.90v-3.20l-57.40 -6.90"/>
<use x="342.34" y="241.00" xlink:href="#hd"/>
<path d="M338.84 241.00v26.40" class="stroke"/>
<use x="370.74" y="247.00" xlink:href="#hd"/>
<path d="M367.24 247.00v23.80" class="stroke"/>
<use x="399.04" y="256.00" xlink:href="#hd"/>
<path d="M395.54 256.00v18.20" class="stroke"/>
<path class="fill"
	d="M434.44 269.70l29.00 6.70v-3.20l-29.00 -6.70"/>
<path class="fill"
	d="M434.74 264.80l14.20 3.20v-3.20l-14.20 -3.20"/>
<use x="438.24" y="244.00" xlink:href="#hd"/>
<path d="M434.74 244.00v24.80" class="stroke"/>
<use x="452.44" y="250.00" xlink:href="#hd"/>
<path d="M448.94 250.00v22.00" class="stroke"/>
<use x="466.64" y="256.00" xlink:href="#hd"/>
<path d="M463.14 256.00v19.20" class="stroke"/>
<use x="486.24" y="250.00" xlink:href="#r8"/>
<path class="fill"
	d="M510.84 267.50l71.60 -6.20v-3.20l-71.60 6.20"/>
<path class="fill"
	d="M511.14 262.40l70.90 -6.20v-3.20l-70.90 6.20"/>
<use x="514.64" y="241.00" xlink:href="#hd"/>
<path d="M511.14 241.00v25.40" class="stroke"/>
<use x="528.84" y="244.00" xlink:href="#hd"/>
<path d="M525.34 244.00v21.20" class="stroke"/>
<use x="542.94" y="241.00" xlink:href="#hd"/>
<path d="M539.44 241.00v23.00" class="stroke"/>
<use x="557.14" y="235.00" xlink:href="#hd"/>
<path d="M553.64 235.00v27.70" class="stroke"/>
<use x="571.34" y="232.00" xlink:href="#hl"/>
<use x="571.34" y="226.00" xlink:href="#hl"/>
<use x="571.34" y="226.00" xlink:href="#hd"/>
<path d="M567.84 226.00v35.50" class="stroke"/>
<use x="585.54" y="235.00" xlink:href="#hd"/>
<path d="M582.04 235.00v25.30" class="stroke"/>
<path class="fill"
	d="M606.64 267.50l71.60 -6.20v-3.20l-71.60 6.20"/>
<path class="fill"
	d="M607.04 262.40l70.90 -6.20v-3.20l-70.90 6.20"/>
<use x="610.54" y="241.00" xlink:href="#hd"/>
<path d="M607.04 241.00v25.40" class="stroke"/>
<use x="624.74" y="244.00" xlink:href="#hd"/>
<path d="M621.24 244.00v21.20" class="stroke"/>
<use x="638.84" y="241.00" xlink:href="#hd"/>
<path d="M635.34 241.00v23.00" class="stroke"/>
<use x="653.04" y="235.00" xlink:href="#hd"/>
<path d="M649.54 235.00v27.70" class="stroke"/>
<use x="667.24" y="232.00" xlink:href="#hl"/>
<use x="667.24" y="226.00" xlink:href="#hl"/>
<use x="667.24" y="226.00" xlink:href="#hd"/>
<path d="M663.74 226.00v35.50" class="stroke"/>
<use x="681.44" y="235.00" xlink:href="#hd"/>
<path d="M677.94 235.00v25.30" class="stroke"/>
<path class="fill"
	d="M702.54 270.00l71.60 0.00v-3.20l-71.60 -0.00"/>
<path class="fill"
	d="M702.94 265.00l70.90 0.00v-3.20l-70.90 -0.00"/>
<use x="706.44" y="244.00" xlink:href="#hd"/>
<path d="M702.94 244.00v24.90" class="stroke"/>
<use x="720.54" y="238.00" xlink:href="#hd"/>
<path d="M717.04 238.00v30.90" class="stroke"/>
<use x="734.74" y="244.00" xlink:href="#hd"/>
<path d="M731.24 244.00v24.90" class="stroke"/>
<use x="748.94" y="238.00" xlink:href="#hd"/>
<path d="M745.44 238.00v30.90" class="stroke"/>
<use x="763.14" y="250.00" xlink:href="#hd"/>
<path d="M759.64 250.00v18.90" class="stroke"/>
<use x="777.24" y="244.00" xlink:href="#hd"/>
<path d="M773.74 244.00v24.90" class="stroke"/>
<use x="802.24" y="247.00" xlink:href="#hd"/>
<path d="M798.74 247.00v21.00" class="stroke"/>
<use x="841.54" y="250.00" xlink:href="#r8"/>
<use x="23.54" y="302.00" xlink:href="#bclef"/>
<path class="fill"
	d="M52.24 339.20l66.70 -4.90v-3.20l-66.70 4.90"/>
<path class="fill"
	d="M72.14 332.80l46.40 -3.40v-3.20l-46.40 3.40"/>
<use x="56.04" y="320.00" xlink:href="#hd"/>
<path d="M52.54 320.00v18.20" class="stroke"/>
<use x="75.64" y="293.00" xlink:href="#hd"/>
<path d="M72.14 293.00v43.80" class="stroke"/>
<use x="89.84" y="299.00" xlink:href="#hd"/>
<path d="M86.34 299.00v36.70" class="stroke"/>
<use x="107.84" y="302.00" xlink:href="#hd"/>
<use x="98.84" y="302.00" xlink:href="#sh0"/>
<path d="M104.34 302.00v32.40" class="stroke"/>
<use x="122.04" y="305.00" xlink:href="#hd"/>
<path d="M118.54 305.00v28.30" class="stroke"/>
<use x="161.04" y="296.00" xlink:href="#hd"/>
<path d="M157.54 296.00v34.00" class="stroke"/>
<use x="161.04" y="311.00" xlink:href="#hd"/>
<use x="218.04" y="296.00" xlink:href="#hd"/>
<path d="M214.54 296.00v34.00" class="stroke"/>
<path class="fill"
	d="M214.54 330.00c0.6 -5.6 9.6 -9 5.6 -18.4
	1.6 6 -1.3 11.6 -5.6 12.8
"/>
<use x="218.04" y="311.00" xlink:href="#hd"/>
<use x="257.24" y="314.00" xlink:href="#hd"/>
<path d="M260.74 314.00v-21.00" class="stroke"/>
<use x="313.94" y="308.00" xlink:href="#r8"/>
<path class="fill"
	d="M338.54 327.90l71.60 0.00v-3.20l-71.60 -0.00"/>
<path class="fill"
	d="M338.84 322.90l70.90 0.00v-3.20l-70.90 -0.00"/>
<use x="342.34" y="305.00" xlink:href="#hd"/>
<path d="M338.84 305.00v21.90" class="stroke"/>
<use x="342.34" y="311.00" xlink:href="#hd"/>
<use x="356.54" y="299.00" xlink:href="#hd"/>
<path d="M353.04 299.00v27.90" class="stroke"/>
<use x="370.74" y="305.00" xlink:href="#hd"/>
<path d="M367.24 305.00v21.90" class="stroke"/>
<use x="370.74" y="311.00" xlink:href="#hd"/>
<use x="384.94" y="299.00" xlink:href="#hd"/>
<path d="M381.44 299.00v27.90" class="stroke"/>
<use x="399.04" y="305.00" xlink:href="#hd"/>
<path d="M395.54 305.00v21.90" class="stroke"/>
<use x="399.04" y="311.00" xlink:href="#hd"/>
<use x="413.24" y="299.00" xlink:href="#hd"/>
<path d="M409.74 299.00v27.90" class="stroke"/>
<use x="438.24" y="320.00" xlink:href="#hd"/>
<path d="M441.74 320.00v-40.00" class="stroke"/>
<use x="438.24" y="299.00" xlink:href="#hd"/>
<use x="486.24" y="299.00" xlink:href="#hd"/>
<path d="M482.74 299.00v21.00" class="stroke"/>
<path class="fill"
	d="M482.74 320.00c0.6 -5.6 9.6 -9 5.6 -18.4
	1.6 6 -1.3 11.6 -5.6 12.8
"/>
<use x="514.64" y="299.00" xlink:href="#hd"/>
<path d="M518.14 299.00v-21.00" class="stroke"/>
<use x="571.34" y="305.00" xlink:href="#hd"/>
<path d="M574.84 305.00v-21.00" class="stroke"/>
<path class="fill"
	d="M574.84 284.00c0.6 5.6 9.6 9 5.6 18.4
	1.6 -6 -1.3 -11.6 -5.6 -12.8
"/>
<use x="610.54" y="299.00" xlink:href="#hd"/>
<path d="M607.04 299.00v31.00" class="stroke"/>
<use x="610.54" y="311.00" xlink:href="#hd"/>
<use x="667.24" y="305.00" xlink:href="#hd"/>
<path d="M663.74 305.00v25.00" class="stroke"/>
<path class="fill"
	d="M663.74 330.00c0.6 -5.6 9.6 -9 5.6 -18.4
	1.6 6 -1.3 11.6 -5.6 12.8
"/>
<use x="667.24" y="311.00" xlink:href="#hd"/>
<use x="706.44" y="296.00" xlink:href="#hd"/>
<path d="M702.94 296.00v25.00" class="stroke"/>
<use x="706.44" y="302.00" xlink:href="#hd"/>
<use x="763.14" y="290.00" xlink:href="#hl"/>
<use x="763.14" y="287.00" xlink:href="#hd"/>
<path d="M759.64 287.00v31.00" class="stroke"/>
<path class="fill"
	d="M759.64 318.00c0.6 -5.6 9.6 -9 5.6 -18.4
	1.6 6 -1.3 11.6 -5.6 12.8
"/>
<use x="763.14" y="299.00" xlink:href="#hd"/>
<path class="fill"
	d="M805.44 291.70l39.90 9.60v3.20l-39.90 -9.60"/>
<use x="802.24" y="311.00" xlink:href="#hd"/>
<path d="M805.74 311.00v-18.20" class="stroke"/>
<use x="821.94" y="320.00" xlink:href="#hd"/>
<path d="M825.44 320.00v-22.50" class="stroke"/>
<use x="841.54" y="326.00" xlink:href="#hl"/>
<use x="841.54" y="332.00" xlink:href="#hl"/>
<use x="841.54" y="332.00" xlink:href="#hd"/>
<path d="M845.04 332.00v-29.80" class="stroke"/>
<use x="514.64" y="311.00" xlink:href="#hd"/>
<path d="M511.14 311.00v21.00" class="stroke"/>
<use x="571.34" y="311.00" xlink:href="#hd"/>
<path d="M567.84 311.00v21.00" class="stroke"/>
<path class="fill"
	d="M567.84 332.00c0.6 -5.6 9.6 -9 5.6 -18.4
	1.6 6 -1.3 11.6 -5.6 12.8
"/>
</g>
</svg>
