<?xml version="1.0" standalone="no"?>
<!DOCTYPE svg PUBLIC "-//W3C//DTD SVG 1.1//EN"
	"http://www.w3.org/Graphics/SVG/1.1/DTD/svg11.dtd">
<svg xmlns="http://www.w3.org/2000/svg" version="1.1"
	xmlns:xlink="http://www.w3.org/1999/xlink"
	color="black"
	width="757.10px" height="304.20px">
<style type="text/css">
.fill {fill: currentColor}
.stroke {stroke: currentColor; fill: none}
text{white-space: pre}
</style>
<title>./K516f-6-9-8-3-11-5-8-11-10-5-10-12-10-8-9-7.abc (2630) tune 1</title>
<!-- Creator: abcm2ps-8.13.8 -->
<!-- CreationDate: Sep  7, 2017 11:17 -->
<!-- CommandLine: ./K516f-6-9-8-3-11-5-8-11-10-5-10-12-10-8-9-7.abc -O ./K516f-6-9-8-3-11-5-8-11-10-5-10-12-10-8-9-7.svg -g -->
<rect width="100%" height="100%" fill="white"/>
<g stroke-width="0.70" transform="scale(0.867)">
<!-- title: 6-9-8-3-11-5-8-11-10-5-10-12-10-8-9-7 -->
</g>
<g stroke-width="0.70" transform="scale(0.867)" font-family="Times" font-size="20.00">
<text x="436.84" y="22.00" text-anchor="middle">6-9-8-3-11-5-8-11-10-5-10-12-10-8-9-7</text>
</g>
<g stroke-width="0.70" transform="scale(0.867)" font-family="Times" font-size="20.00">
<!-- subtitle: $1K.516f::148:84:171:63:135:2:21:33:65:176:19:92:137:168:72:151::$0 -->
</g>
<g stroke-width="0.70" transform="scale(0.867)" font-family="Courier" font-size="8.00" font-weight="bold">
<text x="436.84" y="41.80" text-anchor="middle">K.516f::148:84:171:63:135:2:21:33:65:176:19:92:137:168:72:151::</text>
</g>
<g stroke-width="0.70" transform="scale(0.867)" font-family="Courier" font-size="8.00" font-weight="bold">
<!-- subtitle: $1Perm. No.: 263051096680707$0 -->
<text x="436.84" y="60.80" text-anchor="middle">Perm. No.: 263051096680707</text>
</g>
<g stroke-width="0.70" transform="scale(0.607)" font-family="Courier" font-size="8.00" font-weight="bold">
<defs>
<ellipse id="hd" rx="4.1" ry="2.9"
	transform="rotate(-20)" class="fill"/>
</defs>
<use x="103.06" y="121.29" xlink:href="#hd"/>
<path d="M106.56 121.29v-21.00" class="stroke"/>
<path class="fill"
	d="M106.56 100.29c0.6 5.6 9.6 9 5.6 18.4
	1.6 -6 -1.3 -11.6 -5.6 -12.8
"/>
</g>
<g stroke-width="0.70" transform="scale(0.867)" font-family="Times" font-size="15.00" font-weight="bold">
<text x="81.24" y="87.00">= 111</text>
<path class="stroke" stroke-width="1"
	d="M11.54 191.00v-82.00"/>
<path class="fill"
	d="M6.54 106.00
	c10.5 1 12 -4.5 12 -3.5c0 1 -3.5 5.5 -8.5 5.5
	v84.00
	c5 0 8.5 4.5 8.5 5.5c0 1 -1.5 -4.5 -12 -3.5"/>
<defs>
<g id="rdots" class="fill">
	<circle cx="0" cy="-9" r="1.2"/>
	<circle cx="0" cy="-15" r="1.2"/>
</g>
</defs>
<use x="70.54" y="133.00" xlink:href="#rdots"/>
<path class="stroke" stroke-width="1"
	d="M66.54 133.00v-24.00"/>
<path class="stroke" stroke-width="3"
	d="M62.04 133.00v-24.00"/>
<use x="70.54" y="191.00" xlink:href="#rdots"/>
<path class="stroke" stroke-width="1"
	d="M66.54 191.00v-58.00"/>
<path class="stroke" stroke-width="3"
	d="M62.04 191.00v-58.00"/>
<path class="stroke" stroke-width="1"
	d="M174.04 133.00v-24.00"/>
<path class="stroke" stroke-width="1"
	d="M174.04 191.00v-58.00"/>
<path class="stroke" stroke-width="1"
	d="M276.24 133.00v-24.00"/>
<path class="stroke" stroke-width="1"
	d="M276.24 191.00v-58.00"/>
<path class="stroke" stroke-width="1"
	d="M378.54 133.00v-24.00"/>
<path class="stroke" stroke-width="1"
	d="M378.54 191.00v-58.00"/>
<path class="stroke" stroke-width="1"
	d="M470.04 133.00v-24.00"/>
<path class="stroke" stroke-width="1"
	d="M470.04 191.00v-58.00"/>
<path class="stroke" stroke-width="1"
	d="M566.64 133.00v-24.00"/>
<path class="stroke" stroke-width="1"
	d="M566.64 191.00v-58.00"/>
<path class="stroke" stroke-width="1"
	d="M660.24 133.00v-24.00"/>
<path class="stroke" stroke-width="1"
	d="M660.24 191.00v-58.00"/>
<path class="stroke" stroke-width="1"
	d="M765.04 133.00v-24.00"/>
<path class="stroke" stroke-width="1"
	d="M765.04 191.00v-58.00"/>
<path class="stroke" stroke-width="3"
	d="M860.54 133.00v-24.00"/>
<path class="stroke" stroke-width="1"
	d="M856.04 133.00v-24.00"/>
<use x="852.04" y="133.00" xlink:href="#rdots"/>
<path class="stroke" stroke-width="3"
	d="M860.54 191.00v-58.00"/>
<path class="stroke" stroke-width="1"
	d="M856.04 191.00v-58.00"/>
<use x="852.04" y="191.00" xlink:href="#rdots"/>
<path d="m11.54 133.00
	h850.50
	M11.54 127.00
	h850.50
	M11.54 121.00
	h850.50
	M11.54 115.00
	h850.50
	M11.54 109.00
	h850.50
	" class="stroke"/>
<path d="m11.54 191.00
	h850.50
	M11.54 185.00
	h850.50
	M11.54 179.00
	h850.50
	M11.54 173.00
	h850.50
	M11.54 167.00
	h850.50
	" class="stroke"/>
</g>
<g stroke-width="0.70" transform="scale(0.867)" font-family="Times" font-size="13.00">
<text x="769.04" y="94.40">1</text>
<path class="stroke"
	d="M765.04 83.00m0 20v-20h89.00v20"/>
<defs>
<path id="utclef" class="fill" d="m-50 -90
	c-72 -41 -72 -158 52 -188
	150 -10 220 188 90 256
	-114 52 -275 0 -293 -136
	-15 -181 93 -229 220 -334
	88 -87 79 -133 62 -210
	-51 33 -94 105 -89 186
	17 267 36 374 49 574
	6 96 -19 134 -77 135
	-80 1 -126 -93 -61 -133
	85 -41 133 101 31 105
	23 17 92 37 90 -92
	-10 -223 -39 -342 -50 -617
	0 -90 0 -162 96 -232
	56 72 63 230 22 289
	-74 106 -257 168 -255 316
	9 153 148 185 252 133
	86 -65 29 -192 -80 -176
	-71 12 -105 67 -59 124"/>
<use id="tclef" transform="translate(0,6) scale(0.045)"
	xlink:href="#utclef"/>
</defs>
<use x="23.54" y="127.00" xlink:href="#tclef"/>
<g font-family="serif" font-size="16" font-weight="bold" font-style="normal"
	transform="translate(42.04,132.50) scale(1.2,1)">
	<text text-anchor="middle">8</text>
	<text y="-12" text-anchor="middle">3</text>
</g>
<path class="fill"
	d="M80.24 130.80l78.10 9.40v-3.20l-78.10 -9.40"/>
<path class="fill"
	d="M80.54 125.80l77.50 9.40v-3.20l-77.50 -9.40"/>
<defs>
<path id="hl" class="stroke" d="m-6 0h12"/>
</defs>
<use x="84.04" y="103.00" xlink:href="#hl"/>
<use x="84.04" y="97.00" xlink:href="#hl"/>
<use x="84.04" y="97.00" xlink:href="#hd"/>
<path d="M80.54 97.00v32.80" class="stroke"/>
<use x="99.64" y="103.00" xlink:href="#hl"/>
<use x="99.64" y="100.00" xlink:href="#hd"/>
<path d="M96.14 100.00v31.70" class="stroke"/>
<use x="115.14" y="103.00" xlink:href="#hl"/>
<use x="115.14" y="97.00" xlink:href="#hl"/>
<use x="115.14" y="97.00" xlink:href="#hd"/>
<path d="M111.64 97.00v36.60" class="stroke"/>
<use x="130.64" y="106.00" xlink:href="#hd"/>
<path d="M127.14 106.00v29.50" class="stroke"/>
<use x="146.04" y="112.00" xlink:href="#hd"/>
<path d="M142.54 112.00v25.30" class="stroke"/>
<use x="161.54" y="118.00" xlink:href="#hd"/>
<path d="M158.04 118.00v21.20" class="stroke"/>
<path class="fill"
	d="M182.74 150.50l77.90 -6.30v-3.20l-77.90 6.30"/>
<path class="fill"
	d="M183.04 145.50l77.20 -6.30v-3.20l-77.20 6.30"/>
<use x="186.54" y="118.00" xlink:href="#hd"/>
<path d="M183.04 118.00v31.50" class="stroke"/>
<use x="202.04" y="127.00" xlink:href="#hd"/>
<path d="M198.54 127.00v21.20" class="stroke"/>
<use x="217.44" y="112.00" xlink:href="#hd"/>
<path d="M213.94 112.00v34.90" class="stroke"/>
<use x="232.94" y="118.00" xlink:href="#hd"/>
<path d="M229.44 118.00v27.70" class="stroke"/>
<use x="248.34" y="106.00" xlink:href="#hd"/>
<path d="M244.84 106.00v38.40" class="stroke"/>
<use x="263.74" y="112.00" xlink:href="#hd"/>
<path d="M260.24 112.00v31.20" class="stroke"/>
<path class="fill"
	d="M284.94 140.90l77.90 0.00v-3.20l-77.90 -0.00"/>
<path class="fill"
	d="M285.34 135.90l77.20 0.00v-3.20l-77.20 -0.00"/>
<use x="288.84" y="121.00" xlink:href="#hd"/>
<path d="M285.34 121.00v18.90" class="stroke"/>
<use x="304.24" y="118.00" xlink:href="#hd"/>
<path d="M300.74 118.00v21.90" class="stroke"/>
<use x="319.74" y="115.00" xlink:href="#hd"/>
<path d="M316.24 115.00v24.90" class="stroke"/>
<use x="335.14" y="112.00" xlink:href="#hd"/>
<path d="M331.64 112.00v27.90" class="stroke"/>
<use x="350.64" y="109.00" xlink:href="#hd"/>
<path d="M347.14 109.00v30.90" class="stroke"/>
<use x="366.04" y="115.00" xlink:href="#hd"/>
<path d="M362.54 115.00v24.90" class="stroke"/>
<path class="fill"
	d="M387.24 140.30l62.50 5.90v-3.20l-62.50 -5.90"/>
<path class="fill"
	d="M387.54 135.40l46.30 4.40v-3.20l-46.30 -4.40"/>
<use x="391.04" y="112.00" xlink:href="#hd"/>
<path d="M387.54 112.00v27.40" class="stroke"/>
<use x="406.54" y="118.00" xlink:href="#hd"/>
<path d="M403.04 118.00v22.80" class="stroke"/>
<use x="421.94" y="121.00" xlink:href="#hd"/>
<path d="M418.44 121.00v21.30" class="stroke"/>
<use x="437.44" y="118.00" xlink:href="#hd"/>
<path d="M433.94 118.00v25.70" class="stroke"/>
<use x="452.84" y="127.00" xlink:href="#hd"/>
<path d="M449.34 127.00v18.20" class="stroke"/>
<path class="fill"
	d="M484.74 134.90l54.20 0.00v-3.20l-54.20 -0.00"/>
<path class="fill"
	d="M507.54 129.90l15.40 0.00v-3.20l-15.40 -0.00"/>
<use x="488.54" y="109.00" xlink:href="#hd"/>
<defs>
<path id="usharp" class="fill" d="
	m136 -702
	v890
	h32
	v-890
	m128 840
	h32
	v-888
	h-32
	m-232 286
	v116
	l338 -96
	v-116
	m-338 442
	v116
	l338 -98
	v-114"/>
<use id="sh0" transform="translate(-4,5) scale(0.018)"
	xlink:href="#usharp"/>
</defs>
<use x="479.54" y="109.00" xlink:href="#sh0"/>
<path d="M485.04 109.00v25.00" class="stroke"/>
<use x="511.04" y="109.00" xlink:href="#hd"/>
<path d="M507.54 109.00v25.00" class="stroke"/>
<use x="526.44" y="115.00" xlink:href="#hd"/>
<path d="M522.94 115.00v19.00" class="stroke"/>
<use x="542.14" y="103.00" xlink:href="#hl"/>
<use x="542.14" y="103.00" xlink:href="#hd"/>
<path d="M538.64 103.00v31.00" class="stroke"/>
<path class="fill"
	d="M582.34 93.20l69.30 -7.40v3.20l-69.30 7.40"/>
<path class="fill"
	d="M604.84 95.80l46.30 -5.00v3.20l-46.30 5.00"/>
<use x="579.14" y="124.00" xlink:href="#hd"/>
<path d="M582.64 124.00v-29.80" class="stroke"/>
<use x="601.34" y="130.00" xlink:href="#hd"/>
<use x="592.34" y="130.00" xlink:href="#sh0"/>
<path d="M604.84 130.00v-38.20" class="stroke"/>
<use x="616.84" y="127.00" xlink:href="#hd"/>
<path d="M620.34 127.00v-36.90" class="stroke"/>
<use x="632.24" y="121.00" xlink:href="#hd"/>
<path d="M635.74 121.00v-32.50" class="stroke"/>
<use x="647.74" y="106.00" xlink:href="#hd"/>
<path d="M651.24 106.00v-19.20" class="stroke"/>
<path class="fill"
	d="M668.94 146.20l80.50 0.00v-3.20l-80.50 -0.00"/>
<path class="fill"
	d="M669.24 141.20l79.80 0.00v-3.20l-79.80 -0.00"/>
<use x="672.74" y="118.00" xlink:href="#hd"/>
<path d="M669.24 118.00v27.20" class="stroke"/>
<use x="688.24" y="112.00" xlink:href="#hd"/>
<path d="M684.74 112.00v33.20" class="stroke"/>
<use x="703.64" y="106.00" xlink:href="#hd"/>
<path d="M700.14 106.00v39.20" class="stroke"/>
<use x="719.14" y="115.00" xlink:href="#hd"/>
<path d="M715.64 115.00v30.20" class="stroke"/>
<use x="734.54" y="124.00" xlink:href="#hd"/>
<path d="M731.04 124.00v21.20" class="stroke"/>
<use x="752.54" y="109.00" xlink:href="#hd"/>
<use x="743.54" y="109.00" xlink:href="#sh0"/>
<path d="M749.04 109.00v36.20" class="stroke"/>
<use x="777.54" y="106.00" xlink:href="#hd"/>
<path d="M774.04 106.00v40.00" class="stroke"/>
<use x="777.54" y="127.00" xlink:href="#hd"/>
<use x="777.54" y="121.00" xlink:href="#hd"/>
<use x="777.54" y="115.00" xlink:href="#hd"/>
<defs>
<path id="r8e" class="fill" d="m 0 0
	c-1.5 1.5 -2.4 2 -3.6 2
	2.4 -2.8 -2.8 -4 -2.8 -1.2
	c0 2.7 4.3 2.4 5.9 0.6"/>
<g id="r8">
	<path d="m3.3 -4l-3.4 9.6" class="stroke"/>
	<use x="3.4" y="-4" xlink:href="#r8e"/>
</g>
</defs>
<use x="832.64" y="121.00" xlink:href="#r8"/>
<defs>
<path id="ubclef" class="fill" d="m-200 -87
	c124 -35 222 -78 254 -236
	43 -228 -167 -246 -192 -103
	59 -80 157 22 92 78
	-62 47 -115 -22 -106 -88
	21 -141 270 -136 274 52
	-1 175 -106 264 -322 297
	m357 -250
	c0 -36 51 -34 51 0
	0 37 -51 36 -51 0
	m-2 -129
	c0 -36 51 -34 51 0
	0 38 -51 37 -51 0"/>
<use id="bclef" transform="translate(0,18) scale(0.045)"
	xlink:href="#ubclef"/>
</defs>
<use x="23.54" y="173.00" xlink:href="#bclef"/>
<g font-family="serif" font-size="16" font-weight="bold" font-style="normal"
	transform="translate(42.04,190.50) scale(1.2,1)">
	<text text-anchor="middle">8</text>
	<text y="-12" text-anchor="middle">3</text>
</g>
<use x="84.04" y="176.00" xlink:href="#hd"/>
<path d="M80.54 176.00v25.00" class="stroke"/>
<use x="84.04" y="182.00" xlink:href="#hd"/>
<use x="146.04" y="179.00" xlink:href="#r8"/>
<use x="186.54" y="176.00" xlink:href="#hd"/>
<path d="M183.04 176.00v25.00" class="stroke"/>
<use x="186.54" y="182.00" xlink:href="#hd"/>
<use x="248.34" y="179.00" xlink:href="#r8"/>
<use x="288.84" y="191.00" xlink:href="#hd"/>
<path d="M292.34 191.00v-40.00" class="stroke"/>
<use x="288.84" y="170.00" xlink:href="#hd"/>
<use x="350.64" y="170.00" xlink:href="#hd"/>
<path d="M347.14 170.00v34.00" class="stroke"/>
<path class="fill"
	d="M347.14 204.00c0.6 -5.6 9.6 -9 5.6 -18.4
	1.6 6 -1.3 11.6 -5.6 12.8
"/>
<use x="350.64" y="185.00" xlink:href="#hd"/>
<use x="391.04" y="182.00" xlink:href="#hd"/>
<path d="M394.54 182.00v-21.00" class="stroke"/>
<use x="452.84" y="179.00" xlink:href="#r8"/>
<path class="fill"
	d="M491.74 158.00l54.20 0.00v3.20l-54.20 -0.00"/>
<use x="488.54" y="179.00" xlink:href="#hd"/>
<path d="M492.04 179.00v-20.00" class="stroke"/>
<use x="511.04" y="179.00" xlink:href="#hd"/>
<path d="M514.54 179.00v-20.00" class="stroke"/>
<use x="542.14" y="179.00" xlink:href="#hd"/>
<path d="M545.64 179.00v-20.00" class="stroke"/>
<use x="579.14" y="170.00" xlink:href="#hd"/>
<path d="M575.64 170.00v34.00" class="stroke"/>
<use x="579.14" y="185.00" xlink:href="#hd"/>
<use x="632.24" y="179.00" xlink:href="#r8"/>
<path class="fill"
	d="M675.94 155.80l62.50 8.10v3.20l-62.50 -8.10"/>
<use x="672.74" y="182.00" xlink:href="#hd"/>
<path d="M676.24 182.00v-25.20" class="stroke"/>
<use x="703.64" y="179.00" xlink:href="#hd"/>
<path d="M707.14 179.00v-18.20" class="stroke"/>
<use x="734.54" y="197.00" xlink:href="#hl"/>
<use x="734.54" y="200.00" xlink:href="#hd"/>
<path d="M738.04 200.00v-35.20" class="stroke"/>
<path class="fill"
	d="M773.74 210.20l71.20 0.00v-3.20l-71.20 -0.00"/>
<path class="fill"
	d="M795.64 205.20l48.90 0.00v-3.20l-48.90 -0.00"/>
<use x="777.54" y="191.00" xlink:href="#hd"/>
<path d="M774.04 191.00v18.20" class="stroke"/>
<use x="799.14" y="170.00" xlink:href="#hd"/>
<path d="M795.64 170.00v39.20" class="stroke"/>
<use x="817.14" y="173.00" xlink:href="#hd"/>
<defs>
<path id="unat" class="fill" d="
	m96 -750
	h-32
	v716
	l32 -8
	182 -54
	v282
	h32
	v-706
	l-34 10
	-180 50
	v-290
	m0 592
	v-190
	l182 -52
	v188"/>
<use id="nt0" transform="translate(-3,5) scale(0.018)"
	xlink:href="#unat"/>
</defs>
<use x="808.14" y="173.00" xlink:href="#nt0"/>
<path d="M813.64 173.00v36.20" class="stroke"/>
<use x="832.64" y="176.00" xlink:href="#hd"/>
<path d="M829.14 176.00v33.20" class="stroke"/>
<use x="848.04" y="179.00" xlink:href="#hd"/>
<path d="M844.54 179.00v30.20" class="stroke"/>
<path class="fill"
	d="M492.74 203.00l54.20 0.00v-3.20l-54.20 -0.00"/>
<use x="496.54" y="182.00" xlink:href="#hd"/>
<path d="M493.04 182.00v20.00" class="stroke"/>
<use x="519.04" y="182.00" xlink:href="#hd"/>
<path d="M515.54 182.00v20.00" class="stroke"/>
<use x="550.14" y="182.00" xlink:href="#hd"/>
<path d="M546.64 182.00v20.00" class="stroke"/>
</g>
<g stroke-width="0.70" transform="scale(0.867)" font-family="Times" font-size="13.00">
<path class="stroke" stroke-width="1"
	d="M11.54 328.00v-86.00"/>
<path class="fill"
	d="M6.54 239.00
	c10.5 1 12 -4.5 12 -3.5c0 1 -3.5 5.5 -8.5 5.5
	v88.00
	c5 0 8.5 4.5 8.5 5.5c0 1 -1.5 -4.5 -12 -3.5"/>
<use x="144.84" y="266.00" xlink:href="#rdots"/>
<path class="stroke" stroke-width="1"
	d="M140.84 266.00v-24.00"/>
<path class="stroke" stroke-width="3"
	d="M136.34 266.00v-24.00"/>
<use x="144.84" y="328.00" xlink:href="#rdots"/>
<path class="stroke" stroke-width="1"
	d="M140.84 328.00v-62.00"/>
<path class="stroke" stroke-width="3"
	d="M136.34 328.00v-62.00"/>
<path class="stroke" stroke-width="1"
	d="M232.94 266.00v-24.00"/>
<path class="stroke" stroke-width="1"
	d="M232.94 328.00v-62.00"/>
<path class="stroke" stroke-width="1"
	d="M333.44 266.00v-24.00"/>
<path class="stroke" stroke-width="1"
	d="M333.44 328.00v-62.00"/>
<path class="stroke" stroke-width="1"
	d="M414.04 266.00v-24.00"/>
<path class="stroke" stroke-width="1"
	d="M414.04 328.00v-62.00"/>
<path class="stroke" stroke-width="1"
	d="M494.54 266.00v-24.00"/>
<path class="stroke" stroke-width="1"
	d="M494.54 328.00v-62.00"/>
<path class="stroke" stroke-width="1"
	d="M595.04 266.00v-24.00"/>
<path class="stroke" stroke-width="1"
	d="M595.04 328.00v-62.00"/>
<path class="stroke" stroke-width="1"
	d="M686.34 266.00v-24.00"/>
<path class="stroke" stroke-width="1"
	d="M686.34 328.00v-62.00"/>
<path class="stroke" stroke-width="1"
	d="M786.84 266.00v-24.00"/>
<path class="stroke" stroke-width="1"
	d="M786.84 328.00v-62.00"/>
<path class="stroke" stroke-width="3"
	d="M860.54 266.00v-24.00"/>
<path class="stroke" stroke-width="1"
	d="M856.04 266.00v-24.00"/>
<use x="852.04" y="266.00" xlink:href="#rdots"/>
<path class="stroke" stroke-width="3"
	d="M860.54 328.00v-62.00"/>
<path class="stroke" stroke-width="1"
	d="M856.04 328.00v-62.00"/>
<use x="852.04" y="328.00" xlink:href="#rdots"/>
<path d="m11.54 266.00
	h850.50
	M11.54 260.00
	h850.50
	M11.54 254.00
	h850.50
	M11.54 248.00
	h850.50
	M11.54 242.00
	h850.50
	" class="stroke"/>
<path d="m11.54 328.00
	h850.50
	M11.54 322.00
	h850.50
	M11.54 316.00
	h850.50
	M11.54 310.00
	h850.50
	M11.54 304.00
	h850.50
	" class="stroke"/>
<text x="47.54" y="227.40">2</text>
<path class="stroke"
	d="M43.54 216.00m0 20v-20h90.30v20"/>
<use x="23.54" y="260.00" xlink:href="#tclef"/>
<use x="56.04" y="239.00" xlink:href="#hd"/>
<path d="M52.54 239.00v40.00" class="stroke"/>
<use x="56.04" y="260.00" xlink:href="#hd"/>
<use x="56.04" y="254.00" xlink:href="#hd"/>
<use x="56.04" y="248.00" xlink:href="#hd"/>
<use x="110.24" y="254.00" xlink:href="#r8"/>
<path class="fill"
	d="M160.44 280.60l52.60 -4.60v-3.20l-52.60 4.60"/>
<path class="fill"
	d="M160.84 275.50l15.10 -1.30v-3.20l-15.10 1.30"/>
<use x="164.34" y="248.00" xlink:href="#hd"/>
<path d="M160.84 248.00v31.50" class="stroke"/>
<use x="179.44" y="257.00" xlink:href="#hd"/>
<path d="M175.94 257.00v21.20" class="stroke"/>
<use x="194.54" y="248.00" xlink:href="#hd"/>
<path d="M191.04 248.00v28.90" class="stroke"/>
<use x="216.24" y="242.00" xlink:href="#hd"/>
<use x="207.24" y="242.00" xlink:href="#sh0"/>
<path d="M212.74 242.00v33.00" class="stroke"/>
<path class="fill"
	d="M241.64 268.00l76.10 0.00v-3.20l-76.10 -0.00"/>
<path class="fill"
	d="M241.94 263.00l75.40 0.00v-3.20l-75.40 -0.00"/>
<use x="245.44" y="236.00" xlink:href="#hl"/>
<use x="245.44" y="236.00" xlink:href="#hd"/>
<path d="M241.94 236.00v31.00" class="stroke"/>
<use x="260.54" y="239.00" xlink:href="#hd"/>
<path d="M257.04 239.00v28.00" class="stroke"/>
<use x="275.64" y="236.00" xlink:href="#hl"/>
<use x="275.64" y="233.00" xlink:href="#hd"/>
<path d="M272.14 233.00v34.00" class="stroke"/>
<use x="290.74" y="239.00" xlink:href="#hd"/>
<path d="M287.24 239.00v28.00" class="stroke"/>
<use x="305.84" y="248.00" xlink:href="#hd"/>
<path d="M302.34 248.00v19.00" class="stroke"/>
<use x="320.94" y="239.00" xlink:href="#hd"/>
<path d="M317.44 239.00v28.00" class="stroke"/>
<path class="fill"
	d="M342.04 274.40l52.00 -4.20v-3.20l-52.00 4.20"/>
<path class="fill"
	d="M342.44 269.40l15.10 -1.20v-3.20l-15.10 1.20"/>
<use x="345.94" y="245.00" xlink:href="#hd"/>
<path d="M342.44 245.00v28.40" class="stroke"/>
<use x="361.04" y="251.00" xlink:href="#hd"/>
<path d="M357.54 251.00v21.20" class="stroke"/>
<use x="376.14" y="245.00" xlink:href="#hd"/>
<path d="M372.64 245.00v26.00" class="stroke"/>
<use x="397.24" y="239.00" xlink:href="#hd"/>
<path d="M393.74 239.00v30.30" class="stroke"/>
<path class="fill"
	d="M422.64 272.20l52.00 0.00v-3.20l-52.00 -0.00"/>
<path class="fill"
	d="M444.14 267.20l15.10 0.00v-3.20l-15.10 -0.00"/>
<use x="426.54" y="248.00" xlink:href="#hd"/>
<path d="M423.04 248.00v23.20" class="stroke"/>
<use x="426.54" y="254.00" xlink:href="#hd"/>
<use x="447.64" y="239.00" xlink:href="#hd"/>
<path d="M444.14 239.00v32.20" class="stroke"/>
<use x="462.64" y="236.00" xlink:href="#hl"/>
<use x="462.64" y="233.00" xlink:href="#hd"/>
<path d="M459.14 233.00v38.20" class="stroke"/>
<use x="477.74" y="248.00" xlink:href="#hd"/>
<path d="M474.24 248.00v23.20" class="stroke"/>
<path class="fill"
	d="M503.24 280.80l61.00 -3.30v-3.20l-61.00 3.30"/>
<use x="507.04" y="251.00" xlink:href="#hd"/>
<path d="M503.54 251.00v28.80" class="stroke"/>
<use x="537.24" y="260.00" xlink:href="#hd"/>
<path d="M533.74 260.00v18.20" class="stroke"/>
<use x="567.44" y="245.00" xlink:href="#hd"/>
<path d="M563.94 245.00v31.60" class="stroke"/>
<path class="fill"
	d="M603.64 264.30l67.10 9.00v-3.20l-67.10 -9.00"/>
<path class="fill"
	d="M625.14 262.10l45.30 6.10v-3.20l-45.30 -6.10"/>
<use x="607.54" y="239.00" xlink:href="#hd"/>
<path d="M604.04 239.00v24.30" class="stroke"/>
<use x="628.64" y="242.00" xlink:href="#hd"/>
<path d="M625.14 242.00v24.10" class="stroke"/>
<use x="643.74" y="245.00" xlink:href="#hd"/>
<path d="M640.24 245.00v23.20" class="stroke"/>
<use x="658.74" y="248.00" xlink:href="#hd"/>
<path d="M655.24 248.00v22.20" class="stroke"/>
<use x="673.84" y="251.00" xlink:href="#hd"/>
<path d="M670.34 251.00v21.20" class="stroke"/>
<path class="fill"
	d="M695.04 274.00l76.10 0.00v-3.20l-76.10 -0.00"/>
<path class="fill"
	d="M695.34 269.00l75.40 0.00v-3.20l-75.40 -0.00"/>
<use x="698.84" y="242.00" xlink:href="#hd"/>
<path d="M695.34 242.00v30.90" class="stroke"/>
<use x="713.94" y="245.00" xlink:href="#hd"/>
<path d="M710.44 245.00v27.90" class="stroke"/>
<use x="729.04" y="248.00" xlink:href="#hd"/>
<path d="M725.54 248.00v24.90" class="stroke"/>
<use x="744.14" y="251.00" xlink:href="#hd"/>
<path d="M740.64 251.00v21.90" class="stroke"/>
<use x="759.24" y="254.00" xlink:href="#hd"/>
<path d="M755.74 254.00v18.90" class="stroke"/>
<use x="774.34" y="248.00" xlink:href="#hd"/>
<path d="M770.84 248.00v24.90" class="stroke"/>
<use x="799.34" y="251.00" xlink:href="#hd"/>
<path d="M795.84 251.00v21.00" class="stroke"/>
<use x="841.54" y="254.00" xlink:href="#r8"/>
<use x="23.54" y="310.00" xlink:href="#bclef"/>
<path class="fill"
	d="M52.24 347.20l70.00 -5.10v-3.20l-70.00 5.10"/>
<path class="fill"
	d="M73.64 340.70l48.20 -3.50v-3.20l-48.20 3.50"/>
<use x="56.04" y="328.00" xlink:href="#hd"/>
<path d="M52.54 328.00v18.20" class="stroke"/>
<use x="77.14" y="301.00" xlink:href="#hd"/>
<path d="M73.64 301.00v43.70" class="stroke"/>
<use x="92.24" y="307.00" xlink:href="#hd"/>
<path d="M88.74 307.00v36.60" class="stroke"/>
<use x="110.24" y="310.00" xlink:href="#hd"/>
<use x="101.24" y="310.00" xlink:href="#sh0"/>
<path d="M106.74 310.00v32.30" class="stroke"/>
<use x="125.34" y="313.00" xlink:href="#hd"/>
<path d="M121.84 313.00v28.20" class="stroke"/>
<use x="164.34" y="310.00" xlink:href="#hd"/>
<use x="155.34" y="310.00" xlink:href="#sh0"/>
<path d="M167.84 310.00v-21.00" class="stroke"/>
<use x="216.24" y="316.00" xlink:href="#r8"/>
<use x="245.44" y="322.00" xlink:href="#hd"/>
<path d="M248.94 322.00v-25.00" class="stroke"/>
<use x="245.44" y="316.00" xlink:href="#hd"/>
<use x="305.84" y="322.00" xlink:href="#hd"/>
<path d="M309.34 322.00v-25.00" class="stroke"/>
<path class="fill"
	d="M309.34 297.00c0.6 5.6 9.6 9 5.6 18.4
	1.6 -6 -1.3 -11.6 -5.6 -12.8
"/>
<use x="305.84" y="316.00" xlink:href="#hd"/>
<use x="345.94" y="307.00" xlink:href="#hd"/>
<path d="M342.44 307.00v31.00" class="stroke"/>
<use x="345.94" y="319.00" xlink:href="#hd"/>
<use x="397.24" y="313.00" xlink:href="#hd"/>
<path d="M393.74 313.00v25.00" class="stroke"/>
<path class="fill"
	d="M393.74 338.00c0.6 -5.6 9.6 -9 5.6 -18.4
	1.6 6 -1.3 11.6 -5.6 12.8
"/>
<use x="397.24" y="319.00" xlink:href="#hd"/>
<use x="426.54" y="328.00" xlink:href="#hd"/>
<path d="M430.04 328.00v-40.00" class="stroke"/>
<use x="426.54" y="307.00" xlink:href="#hd"/>
<use x="477.74" y="307.00" xlink:href="#hd"/>
<path d="M474.24 307.00v21.00" class="stroke"/>
<path class="fill"
	d="M474.24 328.00c0.6 -5.6 9.6 -9 5.6 -18.4
	1.6 6 -1.3 11.6 -5.6 12.8
"/>
<path class="fill"
	d="M503.24 335.90l76.10 0.00v-3.20l-76.10 -0.00"/>
<path class="fill"
	d="M503.54 330.90l75.40 0.00v-3.20l-75.40 -0.00"/>
<use x="507.04" y="313.00" xlink:href="#hd"/>
<path d="M503.54 313.00v21.90" class="stroke"/>
<use x="507.04" y="319.00" xlink:href="#hd"/>
<use x="522.14" y="307.00" xlink:href="#hd"/>
<path d="M518.64 307.00v27.90" class="stroke"/>
<use x="537.24" y="313.00" xlink:href="#hd"/>
<path d="M533.74 313.00v21.90" class="stroke"/>
<use x="537.24" y="319.00" xlink:href="#hd"/>
<use x="552.34" y="307.00" xlink:href="#hd"/>
<path d="M548.84 307.00v27.90" class="stroke"/>
<use x="567.44" y="313.00" xlink:href="#hd"/>
<path d="M563.94 313.00v21.90" class="stroke"/>
<use x="567.44" y="319.00" xlink:href="#hd"/>
<use x="582.54" y="307.00" xlink:href="#hd"/>
<path d="M579.04 307.00v27.90" class="stroke"/>
<use x="607.54" y="313.00" xlink:href="#hd"/>
<path d="M604.04 313.00v25.00" class="stroke"/>
<use x="607.54" y="319.00" xlink:href="#hd"/>
<use x="658.74" y="307.00" xlink:href="#hd"/>
<path d="M655.24 307.00v25.00" class="stroke"/>
<path class="fill"
	d="M655.24 332.00c0.6 -5.6 9.6 -9 5.6 -18.4
	1.6 6 -1.3 11.6 -5.6 12.8
"/>
<use x="658.74" y="313.00" xlink:href="#hd"/>
<use x="698.84" y="310.00" xlink:href="#hd"/>
<path d="M695.34 310.00v21.00" class="stroke"/>
<use x="759.24" y="307.00" xlink:href="#hd"/>
<path d="M755.74 307.00v21.00" class="stroke"/>
<path class="fill"
	d="M755.74 328.00c0.6 -5.6 9.6 -9 5.6 -18.4
	1.6 6 -1.3 11.6 -5.6 12.8
"/>
<path class="fill"
	d="M802.44 299.70l42.90 9.90v3.20l-42.90 -9.90"/>
<use x="799.34" y="319.00" xlink:href="#hd"/>
<path d="M802.84 319.00v-18.20" class="stroke"/>
<use x="820.44" y="328.00" xlink:href="#hd"/>
<path d="M823.94 328.00v-22.30" class="stroke"/>
<use x="841.54" y="334.00" xlink:href="#hl"/>
<use x="841.54" y="340.00" xlink:href="#hl"/>
<use x="841.54" y="340.00" xlink:href="#hd"/>
<path d="M845.04 340.00v-29.50" class="stroke"/>
<use x="164.34" y="316.00" xlink:href="#hd"/>
<path d="M160.84 316.00v21.00" class="stroke"/>
</g>
</svg>
