<?xml version="1.0" standalone="no"?>
<!DOCTYPE svg PUBLIC "-//W3C//DTD SVG 1.1//EN"
	"http://www.w3.org/Graphics/SVG/1.1/DTD/svg11.dtd">
<svg xmlns="http://www.w3.org/2000/svg" version="1.1"
	xmlns:xlink="http://www.w3.org/1999/xlink"
	color="black"
	width="757.10px" height="294.68px">
<style type="text/css">
.fill {fill: currentColor}
.stroke {stroke: currentColor; fill: none}
text{white-space: pre}
</style>
<title>./K516f-4-9-11-9-3-12-4-3-3-5-2-7-2-7-8-5.abc (2229) tune 1</title>
<!-- Creator: abcm2ps-8.13.8 -->
<!-- CreationDate: Sep  7, 2017 11:17 -->
<!-- CommandLine: ./K516f-4-9-11-9-3-12-4-3-3-5-2-7-2-7-8-5.abc -O ./K516f-4-9-11-9-3-12-4-3-3-5-2-7-2-7-8-5.svg -g -->
<rect width="100%" height="100%" fill="white"/>
<g stroke-width="0.70" transform="scale(0.867)">
<!-- title: 4-9-11-9-3-12-4-3-3-5-2-7-2-7-8-5 -->
</g>
<g stroke-width="0.70" transform="scale(0.867)" font-family="Times" font-size="20.00">
<text x="436.84" y="22.00" text-anchor="middle">4-9-11-9-3-12-4-3-3-5-2-7-2-7-8-5</text>
</g>
<g stroke-width="0.70" transform="scale(0.867)" font-family="Times" font-size="20.00">
<!-- subtitle: $1K.516f::69:84:165:50:146:37:110:81:117:176:26:29:112:162:89:170::$0 -->
</g>
<g stroke-width="0.70" transform="scale(0.867)" font-family="Courier" font-size="8.00" font-weight="bold">
<text x="436.84" y="41.80" text-anchor="middle">K.516f::69:84:165:50:146:37:110:81:117:176:26:29:112:162:89:170::</text>
</g>
<g stroke-width="0.70" transform="scale(0.867)" font-family="Courier" font-size="8.00" font-weight="bold">
<!-- subtitle: $1Perm. No.: 222958769612769$0 -->
<text x="436.84" y="60.80" text-anchor="middle">Perm. No.: 222958769612769</text>
</g>
<g stroke-width="0.70" transform="scale(0.607)" font-family="Courier" font-size="8.00" font-weight="bold">
<defs>
<ellipse id="hd" rx="4.1" ry="2.9"
	transform="rotate(-20)" class="fill"/>
</defs>
<use x="103.06" y="121.29" xlink:href="#hd"/>
<path d="M106.56 121.29v-21.00" class="stroke"/>
<path class="fill"
	d="M106.56 100.29c0.6 5.6 9.6 9 5.6 18.4
	1.6 -6 -1.3 -11.6 -5.6 -12.8
"/>
</g>
<g stroke-width="0.70" transform="scale(0.867)" font-family="Times" font-size="15.00" font-weight="bold">
<text x="81.24" y="87.00">= 111</text>
<path class="stroke" stroke-width="1"
	d="M11.54 184.00v-82.00"/>
<path class="fill"
	d="M6.54 99.00
	c10.5 1 12 -4.5 12 -3.5c0 1 -3.5 5.5 -8.5 5.5
	v84.00
	c5 0 8.5 4.5 8.5 5.5c0 1 -1.5 -4.5 -12 -3.5"/>
<defs>
<g id="rdots" class="fill">
	<circle cx="0" cy="-9" r="1.2"/>
	<circle cx="0" cy="-15" r="1.2"/>
</g>
</defs>
<use x="70.54" y="126.00" xlink:href="#rdots"/>
<path class="stroke" stroke-width="1"
	d="M66.54 126.00v-24.00"/>
<path class="stroke" stroke-width="3"
	d="M62.04 126.00v-24.00"/>
<use x="70.54" y="184.00" xlink:href="#rdots"/>
<path class="stroke" stroke-width="1"
	d="M66.54 184.00v-58.00"/>
<path class="stroke" stroke-width="3"
	d="M62.04 184.00v-58.00"/>
<path class="stroke" stroke-width="1"
	d="M154.64 126.00v-24.00"/>
<path class="stroke" stroke-width="1"
	d="M154.64 184.00v-58.00"/>
<path class="stroke" stroke-width="1"
	d="M270.34 126.00v-24.00"/>
<path class="stroke" stroke-width="1"
	d="M270.34 184.00v-58.00"/>
<path class="stroke" stroke-width="1"
	d="M353.34 126.00v-24.00"/>
<path class="stroke" stroke-width="1"
	d="M353.34 184.00v-58.00"/>
<path class="stroke" stroke-width="1"
	d="M446.84 126.00v-24.00"/>
<path class="stroke" stroke-width="1"
	d="M446.84 184.00v-58.00"/>
<path class="stroke" stroke-width="1"
	d="M534.54 126.00v-24.00"/>
<path class="stroke" stroke-width="1"
	d="M534.54 184.00v-58.00"/>
<path class="stroke" stroke-width="1"
	d="M638.24 126.00v-24.00"/>
<path class="stroke" stroke-width="1"
	d="M638.24 184.00v-58.00"/>
<path class="stroke" stroke-width="1"
	d="M754.34 126.00v-24.00"/>
<path class="stroke" stroke-width="1"
	d="M754.34 184.00v-58.00"/>
<path class="stroke" stroke-width="3"
	d="M860.54 126.00v-24.00"/>
<path class="stroke" stroke-width="1"
	d="M856.04 126.00v-24.00"/>
<use x="852.04" y="126.00" xlink:href="#rdots"/>
<path class="stroke" stroke-width="3"
	d="M860.54 184.00v-58.00"/>
<path class="stroke" stroke-width="1"
	d="M856.04 184.00v-58.00"/>
<use x="852.04" y="184.00" xlink:href="#rdots"/>
<path d="m11.54 126.00
	h850.50
	M11.54 120.00
	h850.50
	M11.54 114.00
	h850.50
	M11.54 108.00
	h850.50
	M11.54 102.00
	h850.50
	" class="stroke"/>
<path d="m11.54 184.00
	h850.50
	M11.54 178.00
	h850.50
	M11.54 172.00
	h850.50
	M11.54 166.00
	h850.50
	M11.54 160.00
	h850.50
	" class="stroke"/>
<path class="fill"
	d="M89.44 95.40c7.09 -3.04 38.70 2.20 45.80 7.60
	v-0.25c-8.47 -7.15 -37.33 -12.40 -45.80 -7.35"/>
<path class="fill"
	d="M288.14 104.40c7.09 -3.04 38.70 2.20 45.80 7.60
	v-0.25c-8.47 -7.15 -37.33 -12.40 -45.80 -7.35"/>
<path class="fill"
	d="M652.14 120.00c2.54 4.15 13.58 5.59 16.11 2.10
	v0.22c-3.02 5.27 -13.09 3.83 -16.11 -2.32"/>
<path class="fill"
	d="M687.44 123.00c2.54 4.15 13.58 5.59 16.11 2.10
	v0.22c-3.02 5.27 -13.09 3.83 -16.11 -2.32"/>
<path class="fill"
	d="M722.64 126.00c2.36 4.46 12.64 7.34 15.00 4.20
	v0.22c-2.81 4.93 -12.19 2.05 -15.00 -4.41"/>
</g>
<g stroke-width="0.70" transform="scale(0.867)" font-family="Times" font-size="13.00">
<text x="758.34" y="87.40">1</text>
<path class="stroke"
	d="M754.34 76.00m0 20v-20h99.70v20"/>
<defs>
<path id="utclef" class="fill" d="m-50 -90
	c-72 -41 -72 -158 52 -188
	150 -10 220 188 90 256
	-114 52 -275 0 -293 -136
	-15 -181 93 -229 220 -334
	88 -87 79 -133 62 -210
	-51 33 -94 105 -89 186
	17 267 36 374 49 574
	6 96 -19 134 -77 135
	-80 1 -126 -93 -61 -133
	85 -41 133 101 31 105
	23 17 92 37 90 -92
	-10 -223 -39 -342 -50 -617
	0 -90 0 -162 96 -232
	56 72 63 230 22 289
	-74 106 -257 168 -255 316
	9 153 148 185 252 133
	86 -65 29 -192 -80 -176
	-71 12 -105 67 -59 124"/>
<use id="tclef" transform="translate(0,6) scale(0.045)"
	xlink:href="#utclef"/>
</defs>
<use x="23.54" y="120.00" xlink:href="#tclef"/>
<g font-family="serif" font-size="16" font-weight="bold" font-style="normal"
	transform="translate(42.04,125.50) scale(1.2,1)">
	<text text-anchor="middle">8</text>
	<text y="-12" text-anchor="middle">3</text>
</g>
<path class="fill"
	d="M81.54 122.10l50.50 8.20v-3.20l-50.50 -8.20"/>
<use x="85.44" y="99.00" xlink:href="#hd"/>
<path d="M81.94 99.00v22.10" class="stroke"/>
<use x="110.34" y="105.00" xlink:href="#hd"/>
<path d="M106.84 105.00v20.20" class="stroke"/>
<use x="135.24" y="111.00" xlink:href="#hd"/>
<path d="M131.74 111.00v18.20" class="stroke"/>
<path class="fill"
	d="M164.64 143.50l88.70 -6.40v-3.20l-88.70 6.40"/>
<path class="fill"
	d="M165.04 138.50l88.10 -6.40v-3.20l-88.10 6.40"/>
<use x="168.54" y="111.00" xlink:href="#hd"/>
<path d="M165.04 111.00v31.50" class="stroke"/>
<use x="186.14" y="120.00" xlink:href="#hd"/>
<path d="M182.64 120.00v21.20" class="stroke"/>
<use x="203.74" y="105.00" xlink:href="#hd"/>
<path d="M200.24 105.00v34.90" class="stroke"/>
<use x="221.34" y="111.00" xlink:href="#hd"/>
<path d="M217.84 111.00v27.60" class="stroke"/>
<use x="238.94" y="99.00" xlink:href="#hd"/>
<path d="M235.44 99.00v38.40" class="stroke"/>
<use x="256.54" y="105.00" xlink:href="#hd"/>
<path d="M253.04 105.00v31.10" class="stroke"/>
<path class="fill"
	d="M280.34 131.10l50.50 8.20v-3.20l-50.50 -8.20"/>
<use x="284.14" y="108.00" xlink:href="#hd"/>
<path d="M280.64 108.00v22.10" class="stroke"/>
<use x="309.04" y="114.00" xlink:href="#hd"/>
<path d="M305.54 114.00v20.20" class="stroke"/>
<use x="333.94" y="120.00" xlink:href="#hd"/>
<path d="M330.44 120.00v18.20" class="stroke"/>
<path class="fill"
	d="M363.44 134.50l60.80 4.70v-3.20l-60.80 -4.70"/>
<path class="fill"
	d="M388.64 131.50l17.60 1.40v-3.20l-17.60 -1.40"/>
<use x="367.24" y="111.00" xlink:href="#hd"/>
<path d="M363.74 111.00v22.50" class="stroke"/>
<use x="392.14" y="105.00" xlink:href="#hd"/>
<path d="M388.64 105.00v30.50" class="stroke"/>
<use x="409.74" y="111.00" xlink:href="#hd"/>
<path d="M406.24 111.00v25.80" class="stroke"/>
<use x="427.34" y="120.00" xlink:href="#hd"/>
<path d="M423.84 120.00v18.20" class="stroke"/>
<path class="fill"
	d="M461.44 140.30l50.50 -8.50v-3.20l-50.50 8.50"/>
<use x="465.34" y="108.00" xlink:href="#hd"/>
<path d="M461.84 108.00v31.20" class="stroke"/>
<use x="465.34" y="123.00" xlink:href="#hd"/>
<defs>
<path id="usharp" class="fill" d="
	m136 -702
	v890
	h32
	v-890
	m128 840
	h32
	v-888
	h-32
	m-232 286
	v116
	l338 -96
	v-116
	m-338 442
	v116
	l338 -98
	v-114"/>
<use id="sh0" transform="translate(-4,5) scale(0.018)"
	xlink:href="#usharp"/>
</defs>
<use x="456.34" y="123.00" xlink:href="#sh0"/>
<use x="490.24" y="102.00" xlink:href="#hd"/>
<use x="481.24" y="102.00" xlink:href="#sh0"/>
<path d="M486.74 102.00v33.00" class="stroke"/>
<use x="490.24" y="108.00" xlink:href="#hd"/>
<defs>
<path id="hl" class="stroke" d="m-6 0h12"/>
</defs>
<use x="515.14" y="96.00" xlink:href="#hl"/>
<use x="515.14" y="96.00" xlink:href="#hd"/>
<path d="M511.64 96.00v34.80" class="stroke"/>
<use x="515.14" y="102.00" xlink:href="#hd"/>
<path class="fill"
	d="M544.54 124.90l71.10 8.30v-3.20l-71.10 -8.30"/>
<path class="fill"
	d="M544.94 119.90l52.80 6.20v-3.20l-52.80 -6.20"/>
<use x="548.44" y="99.00" xlink:href="#hd"/>
<path d="M544.94 99.00v24.90" class="stroke"/>
<use x="566.04" y="96.00" xlink:href="#hl"/>
<use x="566.04" y="93.00" xlink:href="#hd"/>
<path d="M562.54 93.00v33.00" class="stroke"/>
<use x="583.64" y="99.00" xlink:href="#hd"/>
<path d="M580.14 99.00v29.10" class="stroke"/>
<use x="601.24" y="108.00" xlink:href="#hd"/>
<path d="M597.74 108.00v22.10" class="stroke"/>
<use x="618.84" y="114.00" xlink:href="#hd"/>
<path d="M615.34 114.00v18.20" class="stroke"/>
<path class="fill"
	d="M655.34 89.80l89.10 0.00v3.20l-89.10 -0.00"/>
<path class="fill"
	d="M655.64 94.80l88.50 0.00v3.20l-88.50 -0.00"/>
<use x="652.14" y="114.00" xlink:href="#hd"/>
<path d="M655.64 114.00v-23.20" class="stroke"/>
<use x="652.14" y="108.00" xlink:href="#hd"/>
<use x="669.74" y="117.00" xlink:href="#hd"/>
<path d="M673.24 117.00v-26.20" class="stroke"/>
<use x="669.74" y="111.00" xlink:href="#hd"/>
<use x="687.44" y="117.00" xlink:href="#hd"/>
<path d="M690.94 117.00v-26.20" class="stroke"/>
<use x="687.44" y="111.00" xlink:href="#hd"/>
<use x="705.04" y="120.00" xlink:href="#hd"/>
<path d="M708.54 120.00v-29.20" class="stroke"/>
<use x="705.04" y="114.00" xlink:href="#hd"/>
<use x="722.64" y="120.00" xlink:href="#hd"/>
<path d="M726.14 120.00v-29.20" class="stroke"/>
<use x="722.64" y="114.00" xlink:href="#hd"/>
<use x="740.64" y="123.00" xlink:href="#hd"/>
<use x="731.64" y="123.00" xlink:href="#sh0"/>
<path d="M744.14 123.00v-32.20" class="stroke"/>
<use x="740.64" y="117.00" xlink:href="#hd"/>
<use x="768.24" y="99.00" xlink:href="#hd"/>
<path d="M764.74 99.00v40.00" class="stroke"/>
<use x="768.24" y="120.00" xlink:href="#hd"/>
<use x="768.24" y="114.00" xlink:href="#hd"/>
<use x="768.24" y="108.00" xlink:href="#hd"/>
<defs>
<path id="r8e" class="fill" d="m 0 0
	c-1.5 1.5 -2.4 2 -3.6 2
	2.4 -2.8 -2.8 -4 -2.8 -1.2
	c0 2.7 4.3 2.4 5.9 0.6"/>
<g id="r8">
	<path d="m3.3 -4l-3.4 9.6" class="stroke"/>
	<use x="3.4" y="-4" xlink:href="#r8e"/>
</g>
</defs>
<use x="828.74" y="114.00" xlink:href="#r8"/>
<defs>
<path id="ubclef" class="fill" d="m-200 -87
	c124 -35 222 -78 254 -236
	43 -228 -167 -246 -192 -103
	59 -80 157 22 92 78
	-62 47 -115 -22 -106 -88
	21 -141 270 -136 274 52
	-1 175 -106 264 -322 297
	m357 -250
	c0 -36 51 -34 51 0
	0 37 -51 36 -51 0
	m-2 -129
	c0 -36 51 -34 51 0
	0 38 -51 37 -51 0"/>
<use id="bclef" transform="translate(0,18) scale(0.045)"
	xlink:href="#ubclef"/>
</defs>
<use x="23.54" y="166.00" xlink:href="#bclef"/>
<g font-family="serif" font-size="16" font-weight="bold" font-style="normal"
	transform="translate(42.04,183.50) scale(1.2,1)">
	<text text-anchor="middle">8</text>
	<text y="-12" text-anchor="middle">3</text>
</g>
<use x="85.44" y="169.00" xlink:href="#hd"/>
<path d="M81.94 169.00v25.00" class="stroke"/>
<use x="85.44" y="175.00" xlink:href="#hd"/>
<use x="135.24" y="172.00" xlink:href="#r8"/>
<use x="168.54" y="169.00" xlink:href="#hd"/>
<path d="M165.04 169.00v25.00" class="stroke"/>
<use x="168.54" y="175.00" xlink:href="#hd"/>
<use x="238.94" y="172.00" xlink:href="#r8"/>
<use x="284.14" y="178.00" xlink:href="#hd"/>
<path d="M287.64 178.00v-21.00" class="stroke"/>
<use x="333.94" y="172.00" xlink:href="#r8"/>
<use x="367.24" y="163.00" xlink:href="#hd"/>
<path d="M363.74 163.00v25.00" class="stroke"/>
<use x="367.24" y="169.00" xlink:href="#hd"/>
<use x="427.34" y="172.00" xlink:href="#r8"/>
<path class="fill"
	d="M468.44 154.00l50.50 0.00v3.20l-50.50 -0.00"/>
<use x="465.34" y="175.00" xlink:href="#hd"/>
<path d="M468.84 175.00v-20.00" class="stroke"/>
<use x="490.24" y="175.00" xlink:href="#hd"/>
<path d="M493.74 175.00v-20.00" class="stroke"/>
<use x="515.14" y="175.00" xlink:href="#hd"/>
<path d="M518.64 175.00v-20.00" class="stroke"/>
<use x="548.44" y="178.00" xlink:href="#hd"/>
<path d="M551.94 178.00v-25.00" class="stroke"/>
<use x="548.44" y="172.00" xlink:href="#hd"/>
<use x="618.84" y="172.00" xlink:href="#r8"/>
<path class="fill"
	d="M655.34 148.60l71.10 8.30v3.20l-71.10 -8.30"/>
<use x="652.14" y="175.00" xlink:href="#hd"/>
<path d="M655.64 175.00v-25.30" class="stroke"/>
<use x="687.44" y="172.00" xlink:href="#hd"/>
<path d="M690.94 172.00v-18.20" class="stroke"/>
<use x="722.64" y="190.00" xlink:href="#hl"/>
<use x="722.64" y="193.00" xlink:href="#hd"/>
<path d="M726.14 193.00v-35.10" class="stroke"/>
<path class="fill"
	d="M764.44 203.20l78.80 0.00v-3.20l-78.80 -0.00"/>
<path class="fill"
	d="M789.64 198.20l53.20 0.00v-3.20l-53.20 -0.00"/>
<use x="768.24" y="184.00" xlink:href="#hd"/>
<path d="M764.74 184.00v18.20" class="stroke"/>
<use x="793.14" y="163.00" xlink:href="#hd"/>
<path d="M789.64 163.00v39.20" class="stroke"/>
<use x="811.14" y="166.00" xlink:href="#hd"/>
<defs>
<path id="unat" class="fill" d="
	m96 -750
	h-32
	v716
	l32 -8
	182 -54
	v282
	h32
	v-706
	l-34 10
	-180 50
	v-290
	m0 592
	v-190
	l182 -52
	v188"/>
<use id="nt0" transform="translate(-3,5) scale(0.018)"
	xlink:href="#unat"/>
</defs>
<use x="802.14" y="166.00" xlink:href="#nt0"/>
<path d="M807.64 166.00v36.20" class="stroke"/>
<use x="828.74" y="169.00" xlink:href="#hd"/>
<path d="M825.24 169.00v33.20" class="stroke"/>
<use x="846.34" y="172.00" xlink:href="#hd"/>
<path d="M842.84 172.00v30.20" class="stroke"/>
</g>
<g stroke-width="0.70" transform="scale(0.867)" font-family="Times" font-size="13.00">
<path class="stroke" stroke-width="1"
	d="M11.54 317.01v-82.00"/>
<path class="fill"
	d="M6.54 232.01
	c10.5 1 12 -4.5 12 -3.5c0 1 -3.5 5.5 -8.5 5.5
	v84.00
	c5 0 8.5 4.5 8.5 5.5c0 1 -1.5 -4.5 -12 -3.5"/>
<use x="141.04" y="259.01" xlink:href="#rdots"/>
<path class="stroke" stroke-width="1"
	d="M137.04 259.01v-24.00"/>
<path class="stroke" stroke-width="3"
	d="M132.54 259.01v-24.00"/>
<use x="141.04" y="317.01" xlink:href="#rdots"/>
<path class="stroke" stroke-width="1"
	d="M137.04 317.01v-58.00"/>
<path class="stroke" stroke-width="3"
	d="M132.54 317.01v-58.00"/>
<path class="stroke" stroke-width="1"
	d="M247.34 259.01v-24.00"/>
<path class="stroke" stroke-width="1"
	d="M247.34 317.01v-58.00"/>
<path class="stroke" stroke-width="1"
	d="M342.64 259.01v-24.00"/>
<path class="stroke" stroke-width="1"
	d="M342.64 317.01v-58.00"/>
<path class="stroke" stroke-width="1"
	d="M437.94 259.01v-24.00"/>
<path class="stroke" stroke-width="1"
	d="M437.94 317.01v-58.00"/>
<path class="stroke" stroke-width="1"
	d="M523.74 259.01v-24.00"/>
<path class="stroke" stroke-width="1"
	d="M523.74 317.01v-58.00"/>
<path class="stroke" stroke-width="1"
	d="M619.04 259.01v-24.00"/>
<path class="stroke" stroke-width="1"
	d="M619.04 317.01v-58.00"/>
<path class="stroke" stroke-width="1"
	d="M714.34 259.01v-24.00"/>
<path class="stroke" stroke-width="1"
	d="M714.34 317.01v-58.00"/>
<path class="stroke" stroke-width="1"
	d="M790.24 259.01v-24.00"/>
<path class="stroke" stroke-width="1"
	d="M790.24 317.01v-58.00"/>
<path class="stroke" stroke-width="3"
	d="M860.54 259.01v-24.00"/>
<path class="stroke" stroke-width="1"
	d="M856.04 259.01v-24.00"/>
<use x="852.04" y="259.01" xlink:href="#rdots"/>
<path class="stroke" stroke-width="3"
	d="M860.54 317.01v-58.00"/>
<path class="stroke" stroke-width="1"
	d="M856.04 317.01v-58.00"/>
<use x="852.04" y="317.01" xlink:href="#rdots"/>
<path d="m11.54 259.01
	h850.50
	M11.54 253.01
	h850.50
	M11.54 247.01
	h850.50
	M11.54 241.01
	h850.50
	M11.54 235.01
	h850.50
	" class="stroke"/>
<path d="m11.54 317.01
	h850.50
	M11.54 311.01
	h850.50
	M11.54 305.01
	h850.50
	M11.54 299.01
	h850.50
	M11.54 293.01
	h850.50
	" class="stroke"/>
<text x="47.54" y="220.41">2</text>
<path class="stroke"
	d="M43.54 209.01m0 20v-20h86.50v20"/>
<use x="23.54" y="253.01" xlink:href="#tclef"/>
<use x="56.04" y="232.01" xlink:href="#hd"/>
<path d="M52.54 232.01v40.00" class="stroke"/>
<use x="56.04" y="253.01" xlink:href="#hd"/>
<use x="56.04" y="247.01" xlink:href="#hd"/>
<use x="56.04" y="241.01" xlink:href="#hd"/>
<use x="107.54" y="247.01" xlink:href="#r8"/>
<path class="fill"
	d="M156.74 273.51l74.90 -7.00v-3.20l-74.90 7.00"/>
<path class="fill"
	d="M157.04 268.51l74.30 -6.90v-3.20l-74.30 6.90"/>
<use x="160.54" y="241.01" xlink:href="#hd"/>
<path d="M157.04 241.01v31.50" class="stroke"/>
<use x="174.64" y="250.01" xlink:href="#hd"/>
<path d="M171.14 250.01v21.20" class="stroke"/>
<use x="188.74" y="241.01" xlink:href="#hd"/>
<path d="M185.24 241.01v28.90" class="stroke"/>
<use x="206.74" y="235.01" xlink:href="#hd"/>
<use x="197.74" y="235.01" xlink:href="#sh0"/>
<path d="M203.24 235.01v33.20" class="stroke"/>
<use x="220.74" y="229.01" xlink:href="#hl"/>
<use x="220.74" y="229.01" xlink:href="#hd"/>
<path d="M217.24 229.01v37.90" class="stroke"/>
<use x="234.84" y="235.01" xlink:href="#hd"/>
<path d="M231.34 235.01v30.60" class="stroke"/>
<path class="fill"
	d="M255.94 261.01l71.00 0.00v-3.20l-71.00 -0.00"/>
<path class="fill"
	d="M256.34 256.01l70.30 0.00v-3.20l-70.30 -0.00"/>
<use x="259.84" y="229.01" xlink:href="#hl"/>
<use x="259.84" y="229.01" xlink:href="#hd"/>
<path d="M256.34 229.01v31.00" class="stroke"/>
<use x="273.94" y="232.01" xlink:href="#hd"/>
<path d="M270.44 232.01v28.00" class="stroke"/>
<use x="287.94" y="229.01" xlink:href="#hl"/>
<use x="287.94" y="226.01" xlink:href="#hd"/>
<path d="M284.44 226.01v34.00" class="stroke"/>
<use x="302.04" y="232.01" xlink:href="#hd"/>
<path d="M298.54 232.01v28.00" class="stroke"/>
<use x="316.04" y="241.01" xlink:href="#hd"/>
<path d="M312.54 241.01v19.00" class="stroke"/>
<use x="330.14" y="232.01" xlink:href="#hd"/>
<path d="M326.64 232.01v28.00" class="stroke"/>
<path class="fill"
	d="M351.34 262.01l56.90 0.00v-3.20l-56.90 -0.00"/>
<use x="355.14" y="238.01" xlink:href="#hd"/>
<path d="M351.64 238.01v23.00" class="stroke"/>
<use x="355.14" y="244.01" xlink:href="#hd"/>
<use x="383.24" y="238.01" xlink:href="#hd"/>
<path d="M379.74 238.01v23.00" class="stroke"/>
<use x="383.24" y="244.01" xlink:href="#hd"/>
<use x="411.44" y="238.01" xlink:href="#hd"/>
<path d="M407.94 238.01v23.00" class="stroke"/>
<use x="411.44" y="244.01" xlink:href="#hd"/>
<path class="fill"
	d="M446.64 267.01l56.90 0.00v-3.20l-56.90 -0.00"/>
<path class="fill"
	d="M446.94 262.01l42.20 0.00v-3.20l-42.20 -0.00"/>
<use x="450.44" y="247.01" xlink:href="#hd"/>
<path d="M446.94 247.01v18.90" class="stroke"/>
<use x="464.54" y="241.01" xlink:href="#hd"/>
<path d="M461.04 241.01v24.90" class="stroke"/>
<use x="478.64" y="232.01" xlink:href="#hd"/>
<path d="M475.14 232.01v33.90" class="stroke"/>
<use x="492.64" y="241.01" xlink:href="#hd"/>
<path d="M489.14 241.01v24.90" class="stroke"/>
<use x="506.74" y="247.01" xlink:href="#hd"/>
<path d="M503.24 247.01v18.90" class="stroke"/>
<path class="fill"
	d="M532.44 265.31l56.90 6.90v-3.20l-56.90 -6.90"/>
<use x="536.24" y="238.01" xlink:href="#hd"/>
<path d="M532.74 238.01v26.40" class="stroke"/>
<use x="564.34" y="244.01" xlink:href="#hd"/>
<path d="M560.84 244.01v23.80" class="stroke"/>
<use x="592.54" y="253.01" xlink:href="#hd"/>
<path d="M589.04 253.01v18.20" class="stroke"/>
<path class="fill"
	d="M627.74 264.51l71.00 -6.20v-3.20l-71.00 6.20"/>
<path class="fill"
	d="M628.04 259.41l70.30 -6.20v-3.20l-70.30 6.20"/>
<use x="631.54" y="238.01" xlink:href="#hd"/>
<path d="M628.04 238.01v25.40" class="stroke"/>
<use x="645.64" y="241.01" xlink:href="#hd"/>
<path d="M642.14 241.01v21.20" class="stroke"/>
<use x="659.74" y="238.01" xlink:href="#hd"/>
<path d="M656.24 238.01v23.00" class="stroke"/>
<use x="673.74" y="232.01" xlink:href="#hd"/>
<path d="M670.24 232.01v27.70" class="stroke"/>
<use x="687.84" y="229.01" xlink:href="#hl"/>
<use x="687.84" y="223.01" xlink:href="#hl"/>
<use x="687.84" y="223.01" xlink:href="#hd"/>
<path d="M684.34 223.01v35.50" class="stroke"/>
<use x="701.84" y="232.01" xlink:href="#hd"/>
<path d="M698.34 232.01v25.30" class="stroke"/>
<path class="fill"
	d="M723.04 261.01l48.20 0.00v-3.20l-48.20 -0.00"/>
<path class="fill"
	d="M723.34 256.01l14.10 0.00v-3.20l-14.10 -0.00"/>
<use x="726.84" y="235.01" xlink:href="#hd"/>
<path d="M723.34 235.01v25.00" class="stroke"/>
<use x="740.94" y="238.01" xlink:href="#hd"/>
<path d="M737.44 238.01v22.00" class="stroke"/>
<use x="755.04" y="241.01" xlink:href="#hd"/>
<path d="M751.54 241.01v19.00" class="stroke"/>
<use x="774.44" y="232.01" xlink:href="#hd"/>
<path d="M770.94 232.01v28.00" class="stroke"/>
<use x="802.74" y="244.01" xlink:href="#hd"/>
<path d="M799.24 244.01v21.00" class="stroke"/>
<use x="841.54" y="247.01" xlink:href="#r8"/>
<use x="23.54" y="299.01" xlink:href="#bclef"/>
<path class="fill"
	d="M52.24 336.21l66.20 -4.90v-3.20l-66.20 4.90"/>
<path class="fill"
	d="M71.94 329.81l46.10 -3.40v-3.20l-46.10 3.40"/>
<use x="56.04" y="317.01" xlink:href="#hd"/>
<path d="M52.54 317.01v18.20" class="stroke"/>
<use x="75.44" y="290.01" xlink:href="#hd"/>
<path d="M71.94 290.01v43.80" class="stroke"/>
<use x="89.54" y="296.01" xlink:href="#hd"/>
<path d="M86.04 296.01v36.70" class="stroke"/>
<use x="107.54" y="299.01" xlink:href="#hd"/>
<use x="98.54" y="299.01" xlink:href="#sh0"/>
<path d="M104.04 299.01v32.40" class="stroke"/>
<use x="121.54" y="302.01" xlink:href="#hd"/>
<path d="M118.04 302.01v28.40" class="stroke"/>
<use x="160.54" y="299.01" xlink:href="#hd"/>
<use x="151.54" y="299.01" xlink:href="#sh0"/>
<path d="M157.04 299.01v25.00" class="stroke"/>
<use x="160.54" y="305.01" xlink:href="#hd"/>
<use x="220.74" y="305.01" xlink:href="#r8"/>
<use x="259.84" y="311.01" xlink:href="#hd"/>
<path d="M263.34 311.01v-25.00" class="stroke"/>
<use x="259.84" y="305.01" xlink:href="#hd"/>
<use x="316.04" y="311.01" xlink:href="#hd"/>
<path d="M319.54 311.01v-25.00" class="stroke"/>
<path class="fill"
	d="M319.54 286.01c0.6 5.6 9.6 9 5.6 18.4
	1.6 -6 -1.3 -11.6 -5.6 -12.8
"/>
<use x="316.04" y="305.01" xlink:href="#hd"/>
<path class="fill"
	d="M351.34 330.21l71.00 0.00v-3.20l-71.00 -0.00"/>
<path class="fill"
	d="M351.64 325.21l70.30 0.00v-3.20l-70.30 -0.00"/>
<use x="355.14" y="308.01" xlink:href="#hd"/>
<path d="M351.64 308.01v21.20" class="stroke"/>
<use x="369.24" y="302.01" xlink:href="#hd"/>
<path d="M365.74 302.01v27.20" class="stroke"/>
<use x="383.24" y="296.01" xlink:href="#hd"/>
<path d="M379.74 296.01v33.20" class="stroke"/>
<use x="397.34" y="302.01" xlink:href="#hd"/>
<path d="M393.84 302.01v27.20" class="stroke"/>
<use x="411.44" y="287.01" xlink:href="#hl"/>
<use x="411.44" y="287.01" xlink:href="#hd"/>
<path d="M407.94 287.01v42.20" class="stroke"/>
<use x="425.44" y="308.01" xlink:href="#hd"/>
<path d="M421.94 308.01v21.20" class="stroke"/>
<use x="450.44" y="296.01" xlink:href="#hd"/>
<path d="M446.94 296.01v21.00" class="stroke"/>
<use x="506.74" y="317.01" xlink:href="#hd"/>
<path d="M510.24 317.01v-21.00" class="stroke"/>
<path class="fill"
	d="M510.24 296.01c0.6 5.6 9.6 9 5.6 18.4
	1.6 -6 -1.3 -11.6 -5.6 -12.8
"/>
<path class="fill"
	d="M532.44 324.91l71.00 0.00v-3.20l-71.00 -0.00"/>
<path class="fill"
	d="M532.74 319.91l70.30 0.00v-3.20l-70.30 -0.00"/>
<use x="536.24" y="302.01" xlink:href="#hd"/>
<path d="M532.74 302.01v21.90" class="stroke"/>
<use x="536.24" y="308.01" xlink:href="#hd"/>
<use x="550.34" y="296.01" xlink:href="#hd"/>
<path d="M546.84 296.01v27.90" class="stroke"/>
<use x="564.34" y="302.01" xlink:href="#hd"/>
<path d="M560.84 302.01v21.90" class="stroke"/>
<use x="564.34" y="308.01" xlink:href="#hd"/>
<use x="578.44" y="296.01" xlink:href="#hd"/>
<path d="M574.94 296.01v27.90" class="stroke"/>
<use x="592.54" y="302.01" xlink:href="#hd"/>
<path d="M589.04 302.01v21.90" class="stroke"/>
<use x="592.54" y="308.01" xlink:href="#hd"/>
<use x="606.54" y="296.01" xlink:href="#hd"/>
<path d="M603.04 296.01v27.90" class="stroke"/>
<use x="631.54" y="296.01" xlink:href="#hd"/>
<path d="M628.04 296.01v31.00" class="stroke"/>
<use x="631.54" y="308.01" xlink:href="#hd"/>
<use x="687.84" y="302.01" xlink:href="#hd"/>
<path d="M684.34 302.01v25.00" class="stroke"/>
<path class="fill"
	d="M684.34 327.01c0.6 -5.6 9.6 -9 5.6 -18.4
	1.6 6 -1.3 11.6 -5.6 12.8
"/>
<use x="687.84" y="308.01" xlink:href="#hd"/>
<path class="fill"
	d="M723.04 324.91l48.20 0.00v-3.20l-48.20 -0.00"/>
<path class="fill"
	d="M723.34 319.91l14.10 0.00v-3.20l-14.10 -0.00"/>
<use x="726.84" y="299.01" xlink:href="#hd"/>
<path d="M723.34 299.01v24.90" class="stroke"/>
<use x="740.94" y="302.01" xlink:href="#hd"/>
<path d="M737.44 302.01v21.90" class="stroke"/>
<use x="755.04" y="305.01" xlink:href="#hd"/>
<path d="M751.54 305.01v18.90" class="stroke"/>
<use x="774.44" y="296.01" xlink:href="#hd"/>
<path d="M770.94 296.01v27.90" class="stroke"/>
<path class="fill"
	d="M805.94 288.71l39.50 9.50v3.20l-39.50 -9.50"/>
<use x="802.74" y="308.01" xlink:href="#hd"/>
<path d="M806.24 308.01v-18.20" class="stroke"/>
<use x="822.14" y="317.01" xlink:href="#hd"/>
<path d="M825.64 317.01v-22.50" class="stroke"/>
<use x="841.54" y="323.01" xlink:href="#hl"/>
<use x="841.54" y="329.01" xlink:href="#hl"/>
<use x="841.54" y="329.01" xlink:href="#hd"/>
<path d="M845.04 329.01v-29.90" class="stroke"/>
</g>
</svg>
