<?xml version="1.0" standalone="no"?>
<!DOCTYPE svg PUBLIC "-//W3C//DTD SVG 1.1//EN"
	"http://www.w3.org/Graphics/SVG/1.1/DTD/svg11.dtd">
<svg xmlns="http://www.w3.org/2000/svg" version="1.1"
	xmlns:xlink="http://www.w3.org/1999/xlink"
	color="black"
	width="757.10px" height="300.73px">
<style type="text/css">
.fill {fill: currentColor}
.stroke {stroke: currentColor; fill: none}
text{white-space: pre}
</style>
<title>./K516f-6-10-8-9-10-10-3-4-3-12-3-7-11-6-7-7.abc (1878) tune 1</title>
<!-- Creator: abcm2ps-8.13.8 -->
<!-- CreationDate: Sep  7, 2017 11:18 -->
<!-- CommandLine: ./K516f-6-10-8-9-10-10-3-4-3-12-3-7-11-6-7-7.abc -O ./K516f-6-10-8-9-10-10-3-4-3-12-3-7-11-6-7-7.svg -g -->
<rect width="100%" height="100%" fill="white"/>
<g stroke-width="0.70" transform="scale(0.867)">
<!-- title: 6-10-8-9-10-10-3-4-3-12-3-7-11-6-7-7 -->
</g>
<g stroke-width="0.70" transform="scale(0.867)" font-family="Times" font-size="20.00">
<text x="436.84" y="22.00" text-anchor="middle">6-10-8-9-10-10-3-4-3-12-3-7-11-6-7-7</text>
</g>
<g stroke-width="0.70" transform="scale(0.867)" font-family="Times" font-size="20.00">
<!-- subtitle: $1K.516f::148:142:171:50:75:129:134:24:117:20:126:29:144:136:23:151::$0 -->
</g>
<g stroke-width="0.70" transform="scale(0.867)" font-family="Courier" font-size="8.00" font-weight="bold">
<text x="436.84" y="41.80" text-anchor="middle">K.516f::148:142:171:50:75:129:134:24:117:20:126:29:144:136:23:151::</text>
</g>
<g stroke-width="0.70" transform="scale(0.867)" font-family="Courier" font-size="8.00" font-weight="bold">
<!-- subtitle: $1Perm. No.: 187869290595948$0 -->
<text x="436.84" y="60.80" text-anchor="middle">Perm. No.: 187869290595948</text>
</g>
<g stroke-width="0.70" transform="scale(0.607)" font-family="Courier" font-size="8.00" font-weight="bold">
<defs>
<ellipse id="hd" rx="4.1" ry="2.9"
	transform="rotate(-20)" class="fill"/>
</defs>
<use x="103.06" y="121.29" xlink:href="#hd"/>
<path d="M106.56 121.29v-21.00" class="stroke"/>
<path class="fill"
	d="M106.56 100.29c0.6 5.6 9.6 9 5.6 18.4
	1.6 -6 -1.3 -11.6 -5.6 -12.8
"/>
</g>
<g stroke-width="0.70" transform="scale(0.867)" font-family="Times" font-size="15.00" font-weight="bold">
<text x="81.24" y="87.00">= 111</text>
<path class="stroke" stroke-width="1"
	d="M11.54 191.00v-82.00"/>
<path class="fill"
	d="M6.54 106.00
	c10.5 1 12 -4.5 12 -3.5c0 1 -3.5 5.5 -8.5 5.5
	v84.00
	c5 0 8.5 4.5 8.5 5.5c0 1 -1.5 -4.5 -12 -3.5"/>
<defs>
<g id="rdots" class="fill">
	<circle cx="0" cy="-9" r="1.2"/>
	<circle cx="0" cy="-15" r="1.2"/>
</g>
</defs>
<use x="70.54" y="133.00" xlink:href="#rdots"/>
<path class="stroke" stroke-width="1"
	d="M66.54 133.00v-24.00"/>
<path class="stroke" stroke-width="3"
	d="M62.04 133.00v-24.00"/>
<use x="70.54" y="191.00" xlink:href="#rdots"/>
<path class="stroke" stroke-width="1"
	d="M66.54 191.00v-58.00"/>
<path class="stroke" stroke-width="3"
	d="M62.04 191.00v-58.00"/>
<path class="stroke" stroke-width="1"
	d="M182.24 133.00v-24.00"/>
<path class="stroke" stroke-width="1"
	d="M182.24 191.00v-58.00"/>
<path class="stroke" stroke-width="1"
	d="M261.64 133.00v-24.00"/>
<path class="stroke" stroke-width="1"
	d="M261.64 191.00v-58.00"/>
<path class="stroke" stroke-width="1"
	d="M372.34 133.00v-24.00"/>
<path class="stroke" stroke-width="1"
	d="M372.34 191.00v-58.00"/>
<path class="stroke" stroke-width="1"
	d="M461.54 133.00v-24.00"/>
<path class="stroke" stroke-width="1"
	d="M461.54 191.00v-58.00"/>
<path class="stroke" stroke-width="1"
	d="M546.04 133.00v-24.00"/>
<path class="stroke" stroke-width="1"
	d="M546.04 191.00v-58.00"/>
<path class="stroke" stroke-width="1"
	d="M646.44 133.00v-24.00"/>
<path class="stroke" stroke-width="1"
	d="M646.44 191.00v-58.00"/>
<path class="stroke" stroke-width="1"
	d="M758.34 133.00v-24.00"/>
<path class="stroke" stroke-width="1"
	d="M758.34 191.00v-58.00"/>
<path class="stroke" stroke-width="3"
	d="M860.54 133.00v-24.00"/>
<path class="stroke" stroke-width="1"
	d="M856.04 133.00v-24.00"/>
<use x="852.04" y="133.00" xlink:href="#rdots"/>
<path class="stroke" stroke-width="3"
	d="M860.54 191.00v-58.00"/>
<path class="stroke" stroke-width="1"
	d="M856.04 191.00v-58.00"/>
<use x="852.04" y="191.00" xlink:href="#rdots"/>
<path d="m11.54 133.00
	h850.50
	M11.54 127.00
	h850.50
	M11.54 121.00
	h850.50
	M11.54 115.00
	h850.50
	M11.54 109.00
	h850.50
	" class="stroke"/>
<path d="m11.54 191.00
	h850.50
	M11.54 185.00
	h850.50
	M11.54 179.00
	h850.50
	M11.54 173.00
	h850.50
	M11.54 167.00
	h850.50
	" class="stroke"/>
</g>
<g stroke-width="0.70" transform="scale(0.867)" font-family="Times" font-size="13.00">
<text x="762.34" y="94.40">1</text>
<path class="stroke"
	d="M758.34 83.00m0 20v-20h95.70v20"/>
<defs>
<path id="utclef" class="fill" d="m-50 -90
	c-72 -41 -72 -158 52 -188
	150 -10 220 188 90 256
	-114 52 -275 0 -293 -136
	-15 -181 93 -229 220 -334
	88 -87 79 -133 62 -210
	-51 33 -94 105 -89 186
	17 267 36 374 49 574
	6 96 -19 134 -77 135
	-80 1 -126 -93 -61 -133
	85 -41 133 101 31 105
	23 17 92 37 90 -92
	-10 -223 -39 -342 -50 -617
	0 -90 0 -162 96 -232
	56 72 63 230 22 289
	-74 106 -257 168 -255 316
	9 153 148 185 252 133
	86 -65 29 -192 -80 -176
	-71 12 -105 67 -59 124"/>
<use id="tclef" transform="translate(0,6) scale(0.045)"
	xlink:href="#utclef"/>
</defs>
<use x="23.54" y="127.00" xlink:href="#tclef"/>
<g font-family="serif" font-size="16" font-weight="bold" font-style="normal"
	transform="translate(42.04,132.50) scale(1.2,1)">
	<text text-anchor="middle">8</text>
	<text y="-12" text-anchor="middle">3</text>
</g>
<path class="fill"
	d="M81.04 130.60l84.90 9.60v-3.20l-84.90 -9.60"/>
<path class="fill"
	d="M81.44 125.70l84.20 9.50v-3.20l-84.20 -9.50"/>
<defs>
<path id="hl" class="stroke" d="m-6 0h12"/>
</defs>
<use x="84.94" y="103.00" xlink:href="#hl"/>
<use x="84.94" y="97.00" xlink:href="#hl"/>
<use x="84.94" y="97.00" xlink:href="#hd"/>
<path d="M81.44 97.00v32.70" class="stroke"/>
<use x="101.74" y="103.00" xlink:href="#hl"/>
<use x="101.74" y="100.00" xlink:href="#hd"/>
<path d="M98.24 100.00v31.60" class="stroke"/>
<use x="118.64" y="103.00" xlink:href="#hl"/>
<use x="118.64" y="97.00" xlink:href="#hl"/>
<use x="118.64" y="97.00" xlink:href="#hd"/>
<path d="M115.14 97.00v36.50" class="stroke"/>
<use x="135.44" y="106.00" xlink:href="#hd"/>
<path d="M131.94 106.00v29.40" class="stroke"/>
<use x="152.24" y="112.00" xlink:href="#hd"/>
<path d="M148.74 112.00v25.30" class="stroke"/>
<use x="169.04" y="118.00" xlink:href="#hd"/>
<path d="M165.54 118.00v21.20" class="stroke"/>
<path class="fill"
	d="M191.84 147.80l48.10 -3.20v-3.20l-48.10 3.20"/>
<use x="195.64" y="118.00" xlink:href="#hd"/>
<path d="M192.14 118.00v28.80" class="stroke"/>
<use x="219.34" y="127.00" xlink:href="#hd"/>
<path d="M215.84 127.00v18.20" class="stroke"/>
<use x="243.04" y="112.00" xlink:href="#hd"/>
<path d="M239.54 112.00v31.60" class="stroke"/>
<path class="fill"
	d="M271.14 140.90l84.80 0.00v-3.20l-84.80 -0.00"/>
<path class="fill"
	d="M271.44 135.90l84.10 0.00v-3.20l-84.10 -0.00"/>
<use x="274.94" y="121.00" xlink:href="#hd"/>
<path d="M271.44 121.00v18.90" class="stroke"/>
<use x="291.84" y="118.00" xlink:href="#hd"/>
<path d="M288.34 118.00v21.90" class="stroke"/>
<use x="308.64" y="115.00" xlink:href="#hd"/>
<path d="M305.14 115.00v24.90" class="stroke"/>
<use x="325.44" y="112.00" xlink:href="#hd"/>
<path d="M321.94 112.00v27.90" class="stroke"/>
<use x="342.24" y="109.00" xlink:href="#hd"/>
<path d="M338.74 109.00v30.90" class="stroke"/>
<use x="359.04" y="115.00" xlink:href="#hd"/>
<path d="M355.54 115.00v24.90" class="stroke"/>
<path class="fill"
	d="M381.84 141.50l58.00 4.70v-3.20l-58.00 -4.70"/>
<path class="fill"
	d="M405.84 138.50l16.80 1.40v-3.20l-16.80 -1.40"/>
<use x="385.64" y="118.00" xlink:href="#hd"/>
<path d="M382.14 118.00v22.60" class="stroke"/>
<use x="409.34" y="112.00" xlink:href="#hd"/>
<path d="M405.84 112.00v30.50" class="stroke"/>
<use x="426.14" y="118.00" xlink:href="#hd"/>
<path d="M422.64 118.00v25.80" class="stroke"/>
<use x="443.04" y="127.00" xlink:href="#hd"/>
<path d="M439.54 127.00v18.20" class="stroke"/>
<path class="fill"
	d="M476.24 133.20l48.10 0.00v-3.20l-48.10 -0.00"/>
<use x="480.04" y="109.00" xlink:href="#hd"/>
<defs>
<path id="usharp" class="fill" d="
	m136 -702
	v890
	h32
	v-890
	m128 840
	h32
	v-888
	h-32
	m-232 286
	v116
	l338 -96
	v-116
	m-338 442
	v116
	l338 -98
	v-114"/>
<use id="sh0" transform="translate(-4,5) scale(0.018)"
	xlink:href="#usharp"/>
</defs>
<use x="471.04" y="109.00" xlink:href="#sh0"/>
<path d="M476.54 109.00v23.20" class="stroke"/>
<use x="480.04" y="115.00" xlink:href="#hd"/>
<use x="503.74" y="109.00" xlink:href="#hd"/>
<path d="M500.24 109.00v23.20" class="stroke"/>
<use x="503.74" y="115.00" xlink:href="#hd"/>
<use x="527.44" y="109.00" xlink:href="#hd"/>
<path d="M523.94 109.00v23.20" class="stroke"/>
<use x="527.44" y="115.00" xlink:href="#hd"/>
<path class="fill"
	d="M555.54 129.30l69.10 5.00v-3.20l-69.10 -5.00"/>
<path class="fill"
	d="M555.94 124.30l51.60 3.70v-3.20l-51.60 -3.70"/>
<use x="559.44" y="103.00" xlink:href="#hl"/>
<use x="559.44" y="103.00" xlink:href="#hd"/>
<path d="M555.94 103.00v25.30" class="stroke"/>
<use x="576.24" y="106.00" xlink:href="#hd"/>
<path d="M572.74 106.00v23.50" class="stroke"/>
<use x="594.24" y="109.00" xlink:href="#hd"/>
<use x="585.24" y="109.00" xlink:href="#sh0"/>
<path d="M590.74 109.00v21.80" class="stroke"/>
<use x="611.04" y="106.00" xlink:href="#hd"/>
<path d="M607.54 106.00v26.00" class="stroke"/>
<use x="627.84" y="115.00" xlink:href="#hd"/>
<path d="M624.34 115.00v18.20" class="stroke"/>
<path class="fill"
	d="M655.94 148.20l86.00 0.00v-3.20l-86.00 -0.00"/>
<path class="fill"
	d="M656.34 143.20l85.30 0.00v-3.20l-85.30 -0.00"/>
<use x="659.84" y="124.00" xlink:href="#hd"/>
<path d="M656.34 124.00v23.20" class="stroke"/>
<use x="676.64" y="112.00" xlink:href="#hd"/>
<path d="M673.14 112.00v35.20" class="stroke"/>
<use x="693.44" y="115.00" xlink:href="#hd"/>
<path d="M689.94 115.00v32.20" class="stroke"/>
<use x="693.44" y="121.00" xlink:href="#hd"/>
<use x="710.24" y="118.00" xlink:href="#hd"/>
<path d="M706.74 118.00v29.20" class="stroke"/>
<use x="710.24" y="124.00" xlink:href="#hd"/>
<use x="727.04" y="121.00" xlink:href="#hd"/>
<path d="M723.54 121.00v26.20" class="stroke"/>
<use x="727.04" y="127.00" xlink:href="#hd"/>
<use x="745.04" y="124.00" xlink:href="#hd"/>
<path d="M741.54 124.00v23.20" class="stroke"/>
<use x="745.04" y="130.00" xlink:href="#hd"/>
<use x="736.04" y="130.00" xlink:href="#sh0"/>
<use x="771.64" y="106.00" xlink:href="#hd"/>
<path d="M768.14 106.00v40.00" class="stroke"/>
<use x="771.64" y="127.00" xlink:href="#hd"/>
<use x="771.64" y="121.00" xlink:href="#hd"/>
<use x="771.64" y="115.00" xlink:href="#hd"/>
<defs>
<path id="r8e" class="fill" d="m 0 0
	c-1.5 1.5 -2.4 2 -3.6 2
	2.4 -2.8 -2.8 -4 -2.8 -1.2
	c0 2.7 4.3 2.4 5.9 0.6"/>
<g id="r8">
	<path d="m3.3 -4l-3.4 9.6" class="stroke"/>
	<use x="3.4" y="-4" xlink:href="#r8e"/>
</g>
</defs>
<use x="830.14" y="121.00" xlink:href="#r8"/>
<defs>
<path id="ubclef" class="fill" d="m-200 -87
	c124 -35 222 -78 254 -236
	43 -228 -167 -246 -192 -103
	59 -80 157 22 92 78
	-62 47 -115 -22 -106 -88
	21 -141 270 -136 274 52
	-1 175 -106 264 -322 297
	m357 -250
	c0 -36 51 -34 51 0
	0 37 -51 36 -51 0
	m-2 -129
	c0 -36 51 -34 51 0
	0 38 -51 37 -51 0"/>
<use id="bclef" transform="translate(0,18) scale(0.045)"
	xlink:href="#ubclef"/>
</defs>
<use x="23.54" y="173.00" xlink:href="#bclef"/>
<g font-family="serif" font-size="16" font-weight="bold" font-style="normal"
	transform="translate(42.04,190.50) scale(1.2,1)">
	<text text-anchor="middle">8</text>
	<text y="-12" text-anchor="middle">3</text>
</g>
<use x="84.94" y="176.00" xlink:href="#hd"/>
<path d="M81.44 176.00v25.00" class="stroke"/>
<use x="84.94" y="182.00" xlink:href="#hd"/>
<use x="152.24" y="179.00" xlink:href="#r8"/>
<use x="195.64" y="176.00" xlink:href="#hd"/>
<path d="M192.14 176.00v25.00" class="stroke"/>
<use x="195.64" y="182.00" xlink:href="#hd"/>
<use x="243.04" y="179.00" xlink:href="#r8"/>
<use x="274.94" y="191.00" xlink:href="#hd"/>
<path d="M278.44 191.00v-40.00" class="stroke"/>
<use x="274.94" y="170.00" xlink:href="#hd"/>
<use x="342.24" y="170.00" xlink:href="#hd"/>
<path d="M338.74 170.00v34.00" class="stroke"/>
<path class="fill"
	d="M338.74 204.00c0.6 -5.6 9.6 -9 5.6 -18.4
	1.6 6 -1.3 11.6 -5.6 12.8
"/>
<use x="342.24" y="185.00" xlink:href="#hd"/>
<use x="385.64" y="170.00" xlink:href="#hd"/>
<path d="M382.14 170.00v25.00" class="stroke"/>
<use x="385.64" y="176.00" xlink:href="#hd"/>
<use x="443.04" y="179.00" xlink:href="#r8"/>
<path class="fill"
	d="M483.24 161.00l48.10 0.00v3.20l-48.10 -0.00"/>
<use x="480.04" y="182.00" xlink:href="#hd"/>
<path d="M483.54 182.00v-20.00" class="stroke"/>
<use x="503.74" y="182.00" xlink:href="#hd"/>
<path d="M507.24 182.00v-20.00" class="stroke"/>
<use x="527.44" y="182.00" xlink:href="#hd"/>
<path d="M530.94 182.00v-20.00" class="stroke"/>
<path class="fill"
	d="M562.54 157.50l69.10 -4.70v3.20l-69.10 4.70"/>
<use x="559.44" y="185.00" xlink:href="#hd"/>
<path d="M562.94 185.00v-26.60" class="stroke"/>
<use x="559.44" y="179.00" xlink:href="#hd"/>
<use x="594.24" y="185.00" xlink:href="#hd"/>
<path d="M597.74 185.00v-28.90" class="stroke"/>
<use x="594.24" y="179.00" xlink:href="#hd"/>
<use x="627.84" y="185.00" xlink:href="#hd"/>
<path d="M631.34 185.00v-31.20" class="stroke"/>
<use x="627.84" y="170.00" xlink:href="#hd"/>
<path class="fill"
	d="M662.94 155.70l68.00 8.30v3.20l-68.00 -8.30"/>
<use x="659.84" y="182.00" xlink:href="#hd"/>
<path d="M663.34 182.00v-25.30" class="stroke"/>
<use x="693.44" y="179.00" xlink:href="#hd"/>
<path d="M696.94 179.00v-18.20" class="stroke"/>
<use x="727.04" y="197.00" xlink:href="#hl"/>
<use x="727.04" y="200.00" xlink:href="#hd"/>
<path d="M730.54 200.00v-35.10" class="stroke"/>
<path class="fill"
	d="M767.84 210.20l76.00 0.00v-3.20l-76.00 -0.00"/>
<path class="fill"
	d="M791.84 205.20l51.60 0.00v-3.20l-51.60 -0.00"/>
<use x="771.64" y="191.00" xlink:href="#hd"/>
<path d="M768.14 191.00v18.20" class="stroke"/>
<use x="795.34" y="170.00" xlink:href="#hd"/>
<path d="M791.84 170.00v39.20" class="stroke"/>
<use x="813.34" y="173.00" xlink:href="#hd"/>
<defs>
<path id="unat" class="fill" d="
	m96 -750
	h-32
	v716
	l32 -8
	182 -54
	v282
	h32
	v-706
	l-34 10
	-180 50
	v-290
	m0 592
	v-190
	l182 -52
	v188"/>
<use id="nt0" transform="translate(-3,5) scale(0.018)"
	xlink:href="#unat"/>
</defs>
<use x="804.34" y="173.00" xlink:href="#nt0"/>
<path d="M809.84 173.00v36.20" class="stroke"/>
<use x="830.14" y="176.00" xlink:href="#hd"/>
<path d="M826.64 176.00v33.20" class="stroke"/>
<use x="847.04" y="179.00" xlink:href="#hd"/>
<path d="M843.54 179.00v30.20" class="stroke"/>
</g>
<g stroke-width="0.70" transform="scale(0.867)" font-family="Times" font-size="13.00">
<path class="stroke" stroke-width="1"
	d="M11.54 324.00v-82.00"/>
<path class="fill"
	d="M6.54 239.00
	c10.5 1 12 -4.5 12 -3.5c0 1 -3.5 5.5 -8.5 5.5
	v84.00
	c5 0 8.5 4.5 8.5 5.5c0 1 -1.5 -4.5 -12 -3.5"/>
<use x="141.04" y="266.00" xlink:href="#rdots"/>
<path class="stroke" stroke-width="1"
	d="M137.04 266.00v-24.00"/>
<path class="stroke" stroke-width="3"
	d="M132.54 266.00v-24.00"/>
<use x="141.04" y="324.00" xlink:href="#rdots"/>
<path class="stroke" stroke-width="1"
	d="M137.04 324.00v-58.00"/>
<path class="stroke" stroke-width="3"
	d="M132.54 324.00v-58.00"/>
<path class="stroke" stroke-width="1"
	d="M247.24 266.00v-24.00"/>
<path class="stroke" stroke-width="1"
	d="M247.24 324.00v-58.00"/>
<path class="stroke" stroke-width="1"
	d="M323.24 266.00v-24.00"/>
<path class="stroke" stroke-width="1"
	d="M323.24 324.00v-58.00"/>
<path class="stroke" stroke-width="1"
	d="M418.44 266.00v-24.00"/>
<path class="stroke" stroke-width="1"
	d="M418.44 324.00v-58.00"/>
<path class="stroke" stroke-width="1"
	d="M504.14 266.00v-24.00"/>
<path class="stroke" stroke-width="1"
	d="M504.14 324.00v-58.00"/>
<path class="stroke" stroke-width="1"
	d="M599.44 266.00v-24.00"/>
<path class="stroke" stroke-width="1"
	d="M599.44 324.00v-58.00"/>
<path class="stroke" stroke-width="1"
	d="M695.04 266.00v-24.00"/>
<path class="stroke" stroke-width="1"
	d="M695.04 324.00v-58.00"/>
<path class="stroke" stroke-width="1"
	d="M790.34 266.00v-24.00"/>
<path class="stroke" stroke-width="1"
	d="M790.34 324.00v-58.00"/>
<path class="stroke" stroke-width="3"
	d="M860.54 266.00v-24.00"/>
<path class="stroke" stroke-width="1"
	d="M856.04 266.00v-24.00"/>
<use x="852.04" y="266.00" xlink:href="#rdots"/>
<path class="stroke" stroke-width="3"
	d="M860.54 324.00v-58.00"/>
<path class="stroke" stroke-width="1"
	d="M856.04 324.00v-58.00"/>
<use x="852.04" y="324.00" xlink:href="#rdots"/>
<path d="m11.54 266.00
	h850.50
	M11.54 260.00
	h850.50
	M11.54 254.00
	h850.50
	M11.54 248.00
	h850.50
	M11.54 242.00
	h850.50
	" class="stroke"/>
<path d="m11.54 324.00
	h850.50
	M11.54 318.00
	h850.50
	M11.54 312.00
	h850.50
	M11.54 306.00
	h850.50
	M11.54 300.00
	h850.50
	" class="stroke"/>
<text x="47.54" y="227.40">2</text>
<path class="stroke"
	d="M43.54 216.00m0 20v-20h86.50v20"/>
<use x="23.54" y="260.00" xlink:href="#tclef"/>
<use x="56.04" y="239.00" xlink:href="#hd"/>
<path d="M52.54 239.00v40.00" class="stroke"/>
<use x="56.04" y="260.00" xlink:href="#hd"/>
<use x="56.04" y="254.00" xlink:href="#hd"/>
<use x="56.04" y="248.00" xlink:href="#hd"/>
<use x="107.44" y="254.00" xlink:href="#r8"/>
<path class="fill"
	d="M156.64 280.50l74.90 -7.00v-3.20l-74.90 7.00"/>
<path class="fill"
	d="M157.04 275.50l74.20 -6.90v-3.20l-74.20 6.90"/>
<use x="160.54" y="248.00" xlink:href="#hd"/>
<path d="M157.04 248.00v31.50" class="stroke"/>
<use x="174.54" y="257.00" xlink:href="#hd"/>
<path d="M171.04 257.00v21.20" class="stroke"/>
<use x="188.64" y="248.00" xlink:href="#hd"/>
<path d="M185.14 248.00v28.90" class="stroke"/>
<use x="206.64" y="242.00" xlink:href="#hd"/>
<use x="197.64" y="242.00" xlink:href="#sh0"/>
<path d="M203.14 242.00v33.20" class="stroke"/>
<use x="220.64" y="236.00" xlink:href="#hl"/>
<use x="220.64" y="236.00" xlink:href="#hd"/>
<path d="M217.14 236.00v37.90" class="stroke"/>
<use x="234.74" y="242.00" xlink:href="#hd"/>
<path d="M231.24 242.00v30.60" class="stroke"/>
<path class="fill"
	d="M255.84 268.00l48.40 0.00v-3.20l-48.40 -0.00"/>
<path class="fill"
	d="M275.54 263.00l14.30 0.00v-3.20l-14.30 -0.00"/>
<use x="259.74" y="239.00" xlink:href="#hd"/>
<path d="M256.24 239.00v28.00" class="stroke"/>
<use x="279.04" y="236.00" xlink:href="#hl"/>
<use x="279.04" y="233.00" xlink:href="#hd"/>
<path d="M275.54 233.00v34.00" class="stroke"/>
<use x="293.34" y="236.00" xlink:href="#hl"/>
<use x="293.34" y="230.00" xlink:href="#hl"/>
<use x="293.34" y="227.00" xlink:href="#hd"/>
<path d="M289.84 227.00v40.00" class="stroke"/>
<use x="307.34" y="248.00" xlink:href="#hd"/>
<path d="M303.84 248.00v19.00" class="stroke"/>
<path class="fill"
	d="M331.84 282.20l70.90 0.00v-3.20l-70.90 -0.00"/>
<path class="fill"
	d="M332.24 277.20l70.20 0.00v-3.20l-70.20 -0.00"/>
<use x="335.74" y="251.00" xlink:href="#hd"/>
<path d="M332.24 251.00v30.20" class="stroke"/>
<use x="349.74" y="260.00" xlink:href="#hd"/>
<path d="M346.24 260.00v21.20" class="stroke"/>
<use x="363.84" y="251.00" xlink:href="#hd"/>
<path d="M360.34 251.00v30.20" class="stroke"/>
<use x="377.84" y="245.00" xlink:href="#hd"/>
<path d="M374.34 245.00v36.20" class="stroke"/>
<use x="391.94" y="239.00" xlink:href="#hd"/>
<path d="M388.44 239.00v42.20" class="stroke"/>
<use x="405.94" y="245.00" xlink:href="#hd"/>
<path d="M402.44 245.00v36.20" class="stroke"/>
<use x="405.94" y="251.00" xlink:href="#hd"/>
<path class="fill"
	d="M427.14 274.00l56.90 0.00v-3.20l-56.90 -0.00"/>
<path class="fill"
	d="M427.44 269.00l42.10 0.00v-3.20l-42.10 -0.00"/>
<use x="430.94" y="254.00" xlink:href="#hd"/>
<path d="M427.44 254.00v18.90" class="stroke"/>
<use x="445.04" y="248.00" xlink:href="#hd"/>
<path d="M441.54 248.00v24.90" class="stroke"/>
<use x="459.04" y="239.00" xlink:href="#hd"/>
<path d="M455.54 239.00v33.90" class="stroke"/>
<use x="473.14" y="248.00" xlink:href="#hd"/>
<path d="M469.64 248.00v24.90" class="stroke"/>
<use x="487.14" y="254.00" xlink:href="#hd"/>
<path d="M483.64 254.00v18.90" class="stroke"/>
<path class="fill"
	d="M512.84 268.60l56.90 3.20v-3.20l-56.90 -3.20"/>
<use x="516.64" y="239.00" xlink:href="#hd"/>
<path d="M513.14 239.00v28.60" class="stroke"/>
<use x="544.74" y="251.00" xlink:href="#hd"/>
<path d="M541.24 251.00v18.20" class="stroke"/>
<use x="572.84" y="245.00" xlink:href="#hd"/>
<path d="M569.34 245.00v25.80" class="stroke"/>
<path class="fill"
	d="M608.04 264.00l71.30 9.20v-3.20l-71.30 -9.20"/>
<path class="fill"
	d="M608.44 259.10l70.70 9.10v-3.20l-70.70 -9.10"/>
<use x="611.94" y="236.00" xlink:href="#hl"/>
<use x="611.94" y="230.00" xlink:href="#hl"/>
<use x="611.94" y="230.00" xlink:href="#hd"/>
<path d="M608.44 230.00v33.10" class="stroke"/>
<use x="626.14" y="236.00" xlink:href="#hl"/>
<use x="626.14" y="233.00" xlink:href="#hd"/>
<path d="M622.64 233.00v31.90" class="stroke"/>
<use x="640.44" y="236.00" xlink:href="#hl"/>
<use x="640.44" y="230.00" xlink:href="#hl"/>
<use x="640.44" y="230.00" xlink:href="#hd"/>
<path d="M636.94 230.00v36.70" class="stroke"/>
<use x="654.44" y="239.00" xlink:href="#hd"/>
<path d="M650.94 239.00v29.60" class="stroke"/>
<use x="668.54" y="245.00" xlink:href="#hd"/>
<path d="M665.04 245.00v25.40" class="stroke"/>
<use x="682.54" y="251.00" xlink:href="#hd"/>
<path d="M679.04 251.00v21.20" class="stroke"/>
<path class="fill"
	d="M703.74 268.00l70.90 0.00v-3.20l-70.90 -0.00"/>
<path class="fill"
	d="M704.04 263.00l70.20 0.00v-3.20l-70.20 -0.00"/>
<use x="707.54" y="242.00" xlink:href="#hd"/>
<path d="M704.04 242.00v25.00" class="stroke"/>
<use x="721.64" y="245.00" xlink:href="#hd"/>
<path d="M718.14 245.00v22.00" class="stroke"/>
<use x="735.64" y="248.00" xlink:href="#hd"/>
<path d="M732.14 248.00v19.00" class="stroke"/>
<use x="749.74" y="245.00" xlink:href="#hd"/>
<path d="M746.24 245.00v22.00" class="stroke"/>
<use x="763.74" y="242.00" xlink:href="#hd"/>
<path d="M760.24 242.00v25.00" class="stroke"/>
<use x="777.84" y="239.00" xlink:href="#hd"/>
<path d="M774.34 239.00v28.00" class="stroke"/>
<use x="802.84" y="251.00" xlink:href="#hd"/>
<path d="M799.34 251.00v21.00" class="stroke"/>
<use x="841.54" y="254.00" xlink:href="#r8"/>
<use x="23.54" y="306.00" xlink:href="#bclef"/>
<path class="fill"
	d="M52.24 343.20l66.10 -4.90v-3.20l-66.10 4.90"/>
<path class="fill"
	d="M71.94 336.80l46.10 -3.40v-3.20l-46.10 3.40"/>
<use x="56.04" y="324.00" xlink:href="#hd"/>
<path d="M52.54 324.00v18.20" class="stroke"/>
<use x="75.44" y="297.00" xlink:href="#hd"/>
<path d="M71.94 297.00v43.80" class="stroke"/>
<use x="89.44" y="303.00" xlink:href="#hd"/>
<path d="M85.94 303.00v36.70" class="stroke"/>
<use x="107.44" y="306.00" xlink:href="#hd"/>
<use x="98.44" y="306.00" xlink:href="#sh0"/>
<path d="M103.94 306.00v32.40" class="stroke"/>
<use x="121.54" y="309.00" xlink:href="#hd"/>
<path d="M118.04 309.00v28.40" class="stroke"/>
<use x="160.54" y="306.00" xlink:href="#hd"/>
<use x="151.54" y="306.00" xlink:href="#sh0"/>
<path d="M157.04 306.00v25.00" class="stroke"/>
<use x="160.54" y="312.00" xlink:href="#hd"/>
<use x="220.64" y="312.00" xlink:href="#r8"/>
<use x="259.74" y="318.00" xlink:href="#hd"/>
<path d="M263.24 318.00v-21.00" class="stroke"/>
<use x="307.34" y="312.00" xlink:href="#r8"/>
<use x="335.74" y="309.00" xlink:href="#hd"/>
<path d="M332.24 309.00v21.00" class="stroke"/>
<path class="fill"
	d="M388.04 333.90l14.70 3.40v-3.20l-14.70 -3.40"/>
<path class="fill"
	d="M388.44 329.00l14.00 3.20v-3.20l-14.00 -3.20"/>
<use x="391.94" y="309.00" xlink:href="#hd"/>
<path d="M388.44 309.00v24.00" class="stroke"/>
<use x="405.94" y="315.00" xlink:href="#hd"/>
<path d="M402.44 315.00v21.20" class="stroke"/>
<use x="430.94" y="303.00" xlink:href="#hd"/>
<path d="M427.44 303.00v21.00" class="stroke"/>
<use x="487.14" y="324.00" xlink:href="#hd"/>
<path d="M490.64 324.00v-21.00" class="stroke"/>
<path class="fill"
	d="M490.64 303.00c0.6 5.6 9.6 9 5.6 18.4
	1.6 -6 -1.3 -11.6 -5.6 -12.8
"/>
<path class="fill"
	d="M512.84 331.90l70.90 0.00v-3.20l-70.90 -0.00"/>
<path class="fill"
	d="M513.14 326.90l70.20 0.00v-3.20l-70.20 -0.00"/>
<use x="516.64" y="309.00" xlink:href="#hd"/>
<path d="M513.14 309.00v21.90" class="stroke"/>
<use x="516.64" y="315.00" xlink:href="#hd"/>
<use x="530.74" y="303.00" xlink:href="#hd"/>
<path d="M527.24 303.00v27.90" class="stroke"/>
<use x="544.74" y="309.00" xlink:href="#hd"/>
<path d="M541.24 309.00v21.90" class="stroke"/>
<use x="544.74" y="315.00" xlink:href="#hd"/>
<use x="558.84" y="303.00" xlink:href="#hd"/>
<path d="M555.34 303.00v27.90" class="stroke"/>
<use x="572.84" y="309.00" xlink:href="#hd"/>
<path d="M569.34 309.00v21.90" class="stroke"/>
<use x="572.84" y="315.00" xlink:href="#hd"/>
<use x="586.94" y="303.00" xlink:href="#hd"/>
<path d="M583.44 303.00v27.90" class="stroke"/>
<use x="611.94" y="309.00" xlink:href="#hd"/>
<path d="M608.44 309.00v25.00" class="stroke"/>
<use x="611.94" y="315.00" xlink:href="#hd"/>
<use x="668.54" y="312.00" xlink:href="#r8"/>
<path class="fill"
	d="M703.74 325.90l70.90 0.00v-3.20l-70.90 -0.00"/>
<path class="fill"
	d="M704.04 320.90l70.20 0.00v-3.20l-70.20 -0.00"/>
<use x="707.54" y="300.00" xlink:href="#hd"/>
<path d="M704.04 300.00v25.00" class="stroke"/>
<use x="721.64" y="303.00" xlink:href="#hd"/>
<path d="M718.14 303.00v22.00" class="stroke"/>
<use x="735.64" y="306.00" xlink:href="#hd"/>
<path d="M732.14 306.00v19.00" class="stroke"/>
<use x="749.74" y="303.00" xlink:href="#hd"/>
<path d="M746.24 303.00v22.00" class="stroke"/>
<use x="763.74" y="300.00" xlink:href="#hd"/>
<path d="M760.24 300.00v25.00" class="stroke"/>
<use x="777.84" y="297.00" xlink:href="#hd"/>
<path d="M774.34 297.00v28.00" class="stroke"/>
<path class="fill"
	d="M805.94 295.70l39.40 9.50v3.20l-39.40 -9.50"/>
<use x="802.84" y="315.00" xlink:href="#hd"/>
<path d="M806.34 315.00v-18.20" class="stroke"/>
<use x="822.14" y="324.00" xlink:href="#hd"/>
<path d="M825.64 324.00v-22.50" class="stroke"/>
<use x="841.54" y="330.00" xlink:href="#hl"/>
<use x="841.54" y="336.00" xlink:href="#hl"/>
<use x="841.54" y="336.00" xlink:href="#hd"/>
<path d="M845.04 336.00v-29.90" class="stroke"/>
</g>
</svg>
