<?xml version="1.0" standalone="no"?>
<!DOCTYPE svg PUBLIC "-//W3C//DTD SVG 1.1//EN"
	"http://www.w3.org/Graphics/SVG/1.1/DTD/svg11.dtd">
<svg xmlns="http://www.w3.org/2000/svg" version="1.1"
	xmlns:xlink="http://www.w3.org/1999/xlink"
	color="black"
	width="757.10px" height="293.80px">
<style type="text/css">
.fill {fill: currentColor}
.stroke {stroke: currentColor; fill: none}
text{white-space: pre}
</style>
<title>./K516f-5-5-6-6-3-8-10-4-7-2-10-3-6-10-5-3.abc (1298) tune 1</title>
<!-- Creator: abcm2ps-8.13.8 -->
<!-- CreationDate: Sep  7, 2017 11:18 -->
<!-- CommandLine: ./K516f-5-5-6-6-3-8-10-4-7-2-10-3-6-10-5-3.abc -O ./K516f-5-5-6-6-3-8-10-4-7-2-10-3-6-10-5-3.svg -g -->
<rect width="100%" height="100%" fill="white"/>
<g stroke-width="0.70" transform="scale(0.867)">
<!-- title: 5-5-6-6-3-8-10-4-7-2-10-3-6-10-5-3 -->
</g>
<g stroke-width="0.70" transform="scale(0.867)" font-family="Times" font-size="20.00">
<text x="436.84" y="22.00" text-anchor="middle">5-5-6-6-3-8-10-4-7-2-10-3-6-10-5-3</text>
</g>
<g stroke-width="0.70" transform="scale(0.867)" font-family="Times" font-size="20.00">
<!-- subtitle: $1K.516f::40:17:163:45:146:133:62:24:138:121:19:56:76:38:52:83::$0 -->
</g>
<g stroke-width="0.70" transform="scale(0.867)" font-family="Courier" font-size="8.00" font-weight="bold">
<text x="436.84" y="41.80" text-anchor="middle">K.516f::40:17:163:45:146:133:62:24:138:121:19:56:76:38:52:83::</text>
</g>
<g stroke-width="0.70" transform="scale(0.867)" font-family="Courier" font-size="8.00" font-weight="bold">
<!-- subtitle: $1Perm. No.: 129861723729269$0 -->
<text x="436.84" y="60.80" text-anchor="middle">Perm. No.: 129861723729269</text>
</g>
<g stroke-width="0.70" transform="scale(0.607)" font-family="Courier" font-size="8.00" font-weight="bold">
<defs>
<ellipse id="hd" rx="4.1" ry="2.9"
	transform="rotate(-20)" class="fill"/>
</defs>
<use x="103.06" y="121.29" xlink:href="#hd"/>
<path d="M106.56 121.29v-21.00" class="stroke"/>
<path class="fill"
	d="M106.56 100.29c0.6 5.6 9.6 9 5.6 18.4
	1.6 -6 -1.3 -11.6 -5.6 -12.8
"/>
</g>
<g stroke-width="0.70" transform="scale(0.867)" font-family="Times" font-size="15.00" font-weight="bold">
<text x="81.24" y="87.00">= 111</text>
<path class="stroke" stroke-width="1"
	d="M11.54 183.00v-82.00"/>
<path class="fill"
	d="M6.54 98.00
	c10.5 1 12 -4.5 12 -3.5c0 1 -3.5 5.5 -8.5 5.5
	v84.00
	c5 0 8.5 4.5 8.5 5.5c0 1 -1.5 -4.5 -12 -3.5"/>
<defs>
<g id="rdots" class="fill">
	<circle cx="0" cy="-9" r="1.2"/>
	<circle cx="0" cy="-15" r="1.2"/>
</g>
</defs>
<use x="70.54" y="125.00" xlink:href="#rdots"/>
<path class="stroke" stroke-width="1"
	d="M66.54 125.00v-24.00"/>
<path class="stroke" stroke-width="3"
	d="M62.04 125.00v-24.00"/>
<use x="70.54" y="183.00" xlink:href="#rdots"/>
<path class="stroke" stroke-width="1"
	d="M66.54 183.00v-58.00"/>
<path class="stroke" stroke-width="3"
	d="M62.04 183.00v-58.00"/>
<path class="stroke" stroke-width="1"
	d="M174.44 125.00v-24.00"/>
<path class="stroke" stroke-width="1"
	d="M174.44 183.00v-58.00"/>
<path class="stroke" stroke-width="1"
	d="M277.34 125.00v-24.00"/>
<path class="stroke" stroke-width="1"
	d="M277.34 183.00v-58.00"/>
<path class="stroke" stroke-width="1"
	d="M382.74 125.00v-24.00"/>
<path class="stroke" stroke-width="1"
	d="M382.74 183.00v-58.00"/>
<path class="stroke" stroke-width="1"
	d="M485.64 125.00v-24.00"/>
<path class="stroke" stroke-width="1"
	d="M485.64 183.00v-58.00"/>
<path class="stroke" stroke-width="1"
	d="M565.54 125.00v-24.00"/>
<path class="stroke" stroke-width="1"
	d="M565.54 183.00v-58.00"/>
<path class="stroke" stroke-width="1"
	d="M659.14 125.00v-24.00"/>
<path class="stroke" stroke-width="1"
	d="M659.14 183.00v-58.00"/>
<path class="stroke" stroke-width="1"
	d="M764.44 125.00v-24.00"/>
<path class="stroke" stroke-width="1"
	d="M764.44 183.00v-58.00"/>
<path class="stroke" stroke-width="3"
	d="M860.54 125.00v-24.00"/>
<path class="stroke" stroke-width="1"
	d="M856.04 125.00v-24.00"/>
<use x="852.04" y="125.00" xlink:href="#rdots"/>
<path class="stroke" stroke-width="3"
	d="M860.54 183.00v-58.00"/>
<path class="stroke" stroke-width="1"
	d="M856.04 183.00v-58.00"/>
<use x="852.04" y="183.00" xlink:href="#rdots"/>
<path d="m11.54 125.00
	h850.50
	M11.54 119.00
	h850.50
	M11.54 113.00
	h850.50
	M11.54 107.00
	h850.50
	M11.54 101.00
	h850.50
	" class="stroke"/>
<path d="m11.54 183.00
	h850.50
	M11.54 177.00
	h850.50
	M11.54 171.00
	h850.50
	M11.54 165.00
	h850.50
	M11.54 159.00
	h850.50
	" class="stroke"/>
</g>
<g stroke-width="0.70" transform="scale(0.867)" font-family="Times" font-size="13.00">
<text x="768.44" y="86.40">1</text>
<path class="stroke"
	d="M764.44 75.00m0 20v-20h89.60v20"/>
<defs>
<path id="utclef" class="fill" d="m-50 -90
	c-72 -41 -72 -158 52 -188
	150 -10 220 188 90 256
	-114 52 -275 0 -293 -136
	-15 -181 93 -229 220 -334
	88 -87 79 -133 62 -210
	-51 33 -94 105 -89 186
	17 267 36 374 49 574
	6 96 -19 134 -77 135
	-80 1 -126 -93 -61 -133
	85 -41 133 101 31 105
	23 17 92 37 90 -92
	-10 -223 -39 -342 -50 -617
	0 -90 0 -162 96 -232
	56 72 63 230 22 289
	-74 106 -257 168 -255 316
	9 153 148 185 252 133
	86 -65 29 -192 -80 -176
	-71 12 -105 67 -59 124"/>
<use id="tclef" transform="translate(0,6) scale(0.045)"
	xlink:href="#utclef"/>
</defs>
<use x="23.54" y="119.00" xlink:href="#tclef"/>
<g font-family="serif" font-size="16" font-weight="bold" font-style="normal"
	transform="translate(42.04,124.50) scale(1.2,1)">
	<text text-anchor="middle">8</text>
	<text y="-12" text-anchor="middle">3</text>
</g>
<path class="fill"
	d="M80.24 141.20l78.50 0.00v-3.20l-78.50 -0.00"/>
<path class="fill"
	d="M80.64 136.20l77.80 0.00v-3.20l-77.80 -0.00"/>
<use x="84.14" y="110.00" xlink:href="#hd"/>
<path d="M80.64 110.00v30.20" class="stroke"/>
<use x="99.64" y="113.00" xlink:href="#hd"/>
<path d="M96.14 113.00v27.20" class="stroke"/>
<use x="115.24" y="110.00" xlink:href="#hd"/>
<path d="M111.74 110.00v30.20" class="stroke"/>
<use x="130.84" y="104.00" xlink:href="#hd"/>
<path d="M127.34 104.00v36.20" class="stroke"/>
<use x="146.34" y="119.00" xlink:href="#hd"/>
<path d="M142.84 119.00v21.20" class="stroke"/>
<use x="161.94" y="110.00" xlink:href="#hd"/>
<path d="M158.44 110.00v30.20" class="stroke"/>
<path class="fill"
	d="M183.14 141.20l78.50 0.00v-3.20l-78.50 -0.00"/>
<path class="fill"
	d="M183.54 136.20l77.80 0.00v-3.20l-77.80 -0.00"/>
<use x="187.04" y="110.00" xlink:href="#hd"/>
<path d="M183.54 110.00v30.20" class="stroke"/>
<use x="202.54" y="119.00" xlink:href="#hd"/>
<path d="M199.04 119.00v21.20" class="stroke"/>
<use x="218.14" y="110.00" xlink:href="#hd"/>
<path d="M214.64 110.00v30.20" class="stroke"/>
<use x="233.74" y="104.00" xlink:href="#hd"/>
<path d="M230.24 104.00v36.20" class="stroke"/>
<use x="249.34" y="119.00" xlink:href="#hd"/>
<path d="M245.84 119.00v21.20" class="stroke"/>
<use x="264.84" y="110.00" xlink:href="#hd"/>
<path d="M261.34 110.00v30.20" class="stroke"/>
<path class="fill"
	d="M286.14 131.40l81.00 9.80v-3.20l-81.00 -9.80"/>
<path class="fill"
	d="M286.44 126.40l80.30 9.80v-3.20l-80.30 -9.80"/>
<use x="289.94" y="98.00" xlink:href="#hd"/>
<path d="M286.44 98.00v32.40" class="stroke"/>
<use x="307.94" y="101.00" xlink:href="#hd"/>
<defs>
<path id="usharp" class="fill" d="
	m136 -702
	v890
	h32
	v-890
	m128 840
	h32
	v-888
	h-32
	m-232 286
	v116
	l338 -96
	v-116
	m-338 442
	v116
	l338 -98
	v-114"/>
<use id="sh0" transform="translate(-4,5) scale(0.018)"
	xlink:href="#usharp"/>
</defs>
<use x="298.94" y="101.00" xlink:href="#sh0"/>
<path d="M304.44 101.00v31.60" class="stroke"/>
<use x="323.54" y="98.00" xlink:href="#hd"/>
<path d="M320.04 98.00v36.50" class="stroke"/>
<use x="339.04" y="107.00" xlink:href="#hd"/>
<path d="M335.54 107.00v29.40" class="stroke"/>
<use x="354.64" y="113.00" xlink:href="#hd"/>
<path d="M351.14 113.00v25.30" class="stroke"/>
<use x="370.24" y="119.00" xlink:href="#hd"/>
<path d="M366.74 119.00v21.20" class="stroke"/>
<path class="fill"
	d="M398.44 83.90l78.50 9.70v3.20l-78.50 -9.70"/>
<path class="fill"
	d="M398.74 88.90l77.80 9.70v3.20l-77.80 -9.70"/>
<use x="395.24" y="110.00" xlink:href="#hd"/>
<path d="M398.74 110.00v-25.10" class="stroke"/>
<use x="410.84" y="113.00" xlink:href="#hd"/>
<path d="M414.34 113.00v-26.10" class="stroke"/>
<use x="426.44" y="110.00" xlink:href="#hd"/>
<path d="M429.94 110.00v-21.20" class="stroke"/>
<use x="441.94" y="119.00" xlink:href="#hd"/>
<path d="M445.44 119.00v-28.30" class="stroke"/>
<use x="457.54" y="125.00" xlink:href="#hd"/>
<path d="M461.04 125.00v-32.30" class="stroke"/>
<defs>
<path id="hl" class="stroke" d="m-6 0h12"/>
</defs>
<use x="473.14" y="131.00" xlink:href="#hl"/>
<use x="473.14" y="131.00" xlink:href="#hd"/>
<path d="M476.64 131.00v-36.40" class="stroke"/>
<path class="fill"
	d="M500.24 139.30l44.80 -8.20v-3.20l-44.80 8.20"/>
<use x="504.14" y="107.00" xlink:href="#hd"/>
<path d="M500.64 107.00v31.20" class="stroke"/>
<use x="504.14" y="122.00" xlink:href="#hd"/>
<use x="495.14" y="122.00" xlink:href="#sh0"/>
<use x="526.44" y="101.00" xlink:href="#hd"/>
<use x="517.44" y="101.00" xlink:href="#sh0"/>
<path d="M522.94 101.00v33.10" class="stroke"/>
<use x="526.44" y="107.00" xlink:href="#hd"/>
<use x="548.24" y="95.00" xlink:href="#hl"/>
<use x="548.24" y="95.00" xlink:href="#hd"/>
<path d="M544.74 95.00v35.20" class="stroke"/>
<use x="548.24" y="101.00" xlink:href="#hd"/>
<path class="fill"
	d="M574.24 135.20l69.20 0.00v-3.20l-69.20 -0.00"/>
<path class="fill"
	d="M596.44 130.20l46.70 0.00v-3.20l-46.70 -0.00"/>
<use x="578.14" y="107.00" xlink:href="#hd"/>
<path d="M574.64 107.00v27.20" class="stroke"/>
<use x="599.94" y="98.00" xlink:href="#hd"/>
<path d="M596.44 98.00v36.20" class="stroke"/>
<use x="615.54" y="107.00" xlink:href="#hd"/>
<path d="M612.04 107.00v27.20" class="stroke"/>
<use x="631.04" y="113.00" xlink:href="#hd"/>
<path d="M627.54 113.00v21.20" class="stroke"/>
<use x="646.64" y="107.00" xlink:href="#hd"/>
<path d="M643.14 107.00v27.20" class="stroke"/>
<path class="fill"
	d="M674.84 81.80l81.00 8.00v3.20l-81.00 -8.00"/>
<path class="fill"
	d="M675.24 86.80l80.30 7.90v3.20l-80.30 -7.90"/>
<use x="671.74" y="104.00" xlink:href="#hd"/>
<path d="M675.24 104.00v-21.20" class="stroke"/>
<use x="687.24" y="110.00" xlink:href="#hd"/>
<path d="M690.74 110.00v-25.70" class="stroke"/>
<use x="702.84" y="113.00" xlink:href="#hd"/>
<path d="M706.34 113.00v-27.10" class="stroke"/>
<use x="718.44" y="119.00" xlink:href="#hd"/>
<path d="M721.94 119.00v-31.60" class="stroke"/>
<use x="733.94" y="116.00" xlink:href="#hd"/>
<path d="M737.44 116.00v-27.10" class="stroke"/>
<use x="751.94" y="122.00" xlink:href="#hd"/>
<use x="742.94" y="122.00" xlink:href="#sh0"/>
<path d="M755.44 122.00v-31.30" class="stroke"/>
<use x="777.04" y="98.00" xlink:href="#hd"/>
<path d="M773.54 98.00v40.00" class="stroke"/>
<use x="777.04" y="119.00" xlink:href="#hd"/>
<use x="777.04" y="113.00" xlink:href="#hd"/>
<use x="777.04" y="107.00" xlink:href="#hd"/>
<defs>
<path id="r8e" class="fill" d="m 0 0
	c-1.5 1.5 -2.4 2 -3.6 2
	2.4 -2.8 -2.8 -4 -2.8 -1.2
	c0 2.7 4.3 2.4 5.9 0.6"/>
<g id="r8">
	<path d="m3.3 -4l-3.4 9.6" class="stroke"/>
	<use x="3.4" y="-4" xlink:href="#r8e"/>
</g>
</defs>
<use x="832.44" y="113.00" xlink:href="#r8"/>
<defs>
<path id="ubclef" class="fill" d="m-200 -87
	c124 -35 222 -78 254 -236
	43 -228 -167 -246 -192 -103
	59 -80 157 22 92 78
	-62 47 -115 -22 -106 -88
	21 -141 270 -136 274 52
	-1 175 -106 264 -322 297
	m357 -250
	c0 -36 51 -34 51 0
	0 37 -51 36 -51 0
	m-2 -129
	c0 -36 51 -34 51 0
	0 38 -51 37 -51 0"/>
<use id="bclef" transform="translate(0,18) scale(0.045)"
	xlink:href="#ubclef"/>
</defs>
<use x="23.54" y="165.00" xlink:href="#bclef"/>
<g font-family="serif" font-size="16" font-weight="bold" font-style="normal"
	transform="translate(42.04,182.50) scale(1.2,1)">
	<text text-anchor="middle">8</text>
	<text y="-12" text-anchor="middle">3</text>
</g>
<use x="84.14" y="168.00" xlink:href="#hd"/>
<path d="M80.64 168.00v25.00" class="stroke"/>
<use x="84.14" y="174.00" xlink:href="#hd"/>
<use x="146.34" y="171.00" xlink:href="#r8"/>
<use x="187.04" y="162.00" xlink:href="#hd"/>
<path d="M183.54 162.00v25.00" class="stroke"/>
<use x="187.04" y="168.00" xlink:href="#hd"/>
<use x="249.34" y="171.00" xlink:href="#r8"/>
<use x="289.94" y="177.00" xlink:href="#hd"/>
<path d="M293.44 177.00v-25.00" class="stroke"/>
<use x="289.94" y="171.00" xlink:href="#hd"/>
<use x="354.64" y="171.00" xlink:href="#r8"/>
<use x="395.24" y="162.00" xlink:href="#hd"/>
<path d="M391.74 162.00v25.00" class="stroke"/>
<use x="395.24" y="168.00" xlink:href="#hd"/>
<use x="457.54" y="171.00" xlink:href="#r8"/>
<path class="fill"
	d="M507.24 153.00l44.80 0.00v3.20l-44.80 -0.00"/>
<use x="504.14" y="174.00" xlink:href="#hd"/>
<path d="M507.64 174.00v-20.00" class="stroke"/>
<use x="526.44" y="174.00" xlink:href="#hd"/>
<path d="M529.94 174.00v-20.00" class="stroke"/>
<use x="548.24" y="174.00" xlink:href="#hd"/>
<path d="M551.74 174.00v-20.00" class="stroke"/>
<use x="578.14" y="162.00" xlink:href="#hd"/>
<path d="M574.64 162.00v34.00" class="stroke"/>
<use x="578.14" y="177.00" xlink:href="#hd"/>
<use x="631.04" y="171.00" xlink:href="#r8"/>
<path class="fill"
	d="M674.84 147.70l63.00 8.10v3.20l-63.00 -8.10"/>
<use x="671.74" y="174.00" xlink:href="#hd"/>
<path d="M675.24 174.00v-25.20" class="stroke"/>
<use x="702.84" y="171.00" xlink:href="#hd"/>
<path d="M706.34 171.00v-18.20" class="stroke"/>
<use x="733.94" y="189.00" xlink:href="#hl"/>
<use x="733.94" y="192.00" xlink:href="#hd"/>
<path d="M737.44 192.00v-35.20" class="stroke"/>
<path class="fill"
	d="M773.24 202.20l71.60 0.00v-3.20l-71.60 -0.00"/>
<path class="fill"
	d="M795.34 197.20l49.10 0.00v-3.20l-49.10 -0.00"/>
<use x="777.04" y="183.00" xlink:href="#hd"/>
<path d="M773.54 183.00v18.20" class="stroke"/>
<use x="798.84" y="162.00" xlink:href="#hd"/>
<path d="M795.34 162.00v39.20" class="stroke"/>
<use x="816.84" y="165.00" xlink:href="#hd"/>
<defs>
<path id="unat" class="fill" d="
	m96 -750
	h-32
	v716
	l32 -8
	182 -54
	v282
	h32
	v-706
	l-34 10
	-180 50
	v-290
	m0 592
	v-190
	l182 -52
	v188"/>
<use id="nt0" transform="translate(-3,5) scale(0.018)"
	xlink:href="#unat"/>
</defs>
<use x="807.84" y="165.00" xlink:href="#nt0"/>
<path d="M813.34 165.00v36.20" class="stroke"/>
<use x="832.44" y="168.00" xlink:href="#hd"/>
<path d="M828.94 168.00v33.20" class="stroke"/>
<use x="847.94" y="171.00" xlink:href="#hd"/>
<path d="M844.44 171.00v30.20" class="stroke"/>
</g>
<g stroke-width="0.70" transform="scale(0.867)" font-family="Times" font-size="13.00">
<path class="stroke" stroke-width="1"
	d="M11.54 316.00v-82.00"/>
<path class="fill"
	d="M6.54 231.00
	c10.5 1 12 -4.5 12 -3.5c0 1 -3.5 5.5 -8.5 5.5
	v84.00
	c5 0 8.5 4.5 8.5 5.5c0 1 -1.5 -4.5 -12 -3.5"/>
<use x="143.14" y="258.00" xlink:href="#rdots"/>
<path class="stroke" stroke-width="1"
	d="M139.14 258.00v-24.00"/>
<path class="stroke" stroke-width="3"
	d="M134.64 258.00v-24.00"/>
<use x="143.14" y="316.00" xlink:href="#rdots"/>
<path class="stroke" stroke-width="1"
	d="M139.14 316.00v-58.00"/>
<path class="stroke" stroke-width="3"
	d="M134.64 316.00v-58.00"/>
<path class="stroke" stroke-width="1"
	d="M254.94 258.00v-24.00"/>
<path class="stroke" stroke-width="1"
	d="M254.94 316.00v-58.00"/>
<path class="stroke" stroke-width="1"
	d="M333.44 258.00v-24.00"/>
<path class="stroke" stroke-width="1"
	d="M333.44 316.00v-58.00"/>
<path class="stroke" stroke-width="1"
	d="M411.84 258.00v-24.00"/>
<path class="stroke" stroke-width="1"
	d="M411.84 316.00v-58.00"/>
<path class="stroke" stroke-width="1"
	d="M490.34 258.00v-24.00"/>
<path class="stroke" stroke-width="1"
	d="M490.34 316.00v-58.00"/>
<path class="stroke" stroke-width="1"
	d="M588.74 258.00v-24.00"/>
<path class="stroke" stroke-width="1"
	d="M588.74 316.00v-58.00"/>
<path class="stroke" stroke-width="1"
	d="M686.94 258.00v-24.00"/>
<path class="stroke" stroke-width="1"
	d="M686.94 316.00v-58.00"/>
<path class="stroke" stroke-width="1"
	d="M788.44 258.00v-24.00"/>
<path class="stroke" stroke-width="1"
	d="M788.44 316.00v-58.00"/>
<path class="stroke" stroke-width="3"
	d="M860.54 258.00v-24.00"/>
<path class="stroke" stroke-width="1"
	d="M856.04 258.00v-24.00"/>
<use x="852.04" y="258.00" xlink:href="#rdots"/>
<path class="stroke" stroke-width="3"
	d="M860.54 316.00v-58.00"/>
<path class="stroke" stroke-width="1"
	d="M856.04 316.00v-58.00"/>
<use x="852.04" y="316.00" xlink:href="#rdots"/>
<path d="m11.54 258.00
	h850.50
	M11.54 252.00
	h850.50
	M11.54 246.00
	h850.50
	M11.54 240.00
	h850.50
	M11.54 234.00
	h850.50
	" class="stroke"/>
<path d="m11.54 316.00
	h850.50
	M11.54 310.00
	h850.50
	M11.54 304.00
	h850.50
	M11.54 298.00
	h850.50
	M11.54 292.00
	h850.50
	" class="stroke"/>
<path class="fill"
	d="M699.44 234.00c2.76 -3.95 14.74 -4.43 17.50 -0.70
	v-0.22c-3.28 -5.51 -14.22 -5.03 -17.50 0.92"/>
<text x="47.54" y="219.40">2</text>
<path class="stroke"
	d="M43.54 208.00m0 20v-20h88.60v20"/>
<use x="23.54" y="252.00" xlink:href="#tclef"/>
<use x="56.04" y="231.00" xlink:href="#hd"/>
<path d="M52.54 231.00v40.00" class="stroke"/>
<use x="56.04" y="252.00" xlink:href="#hd"/>
<use x="56.04" y="246.00" xlink:href="#hd"/>
<use x="56.04" y="240.00" xlink:href="#hd"/>
<use x="108.94" y="246.00" xlink:href="#r8"/>
<use x="162.64" y="234.00" xlink:href="#hd"/>
<use x="153.64" y="234.00" xlink:href="#sh0"/>
<path d="M159.14 234.00v34.00" class="stroke"/>
<path class="fill"
	d="M159.14 268.00c0.6 -5.6 9.6 -9 5.6 -18.4
	1.6 6 -1.3 11.6 -5.6 12.8
"/>
<use x="162.64" y="249.00" xlink:href="#hd"/>
<use x="162.64" y="240.00" xlink:href="#hd"/>
<use x="195.24" y="234.00" xlink:href="#hd"/>
<path d="M191.74 234.00v21.00" class="stroke"/>
<path class="fill"
	d="M263.64 254.60l50.20 4.60v-3.20l-50.20 -4.60"/>
<path class="fill"
	d="M284.24 251.50l14.60 1.30v-3.20l-14.60 -1.30"/>
<use x="267.44" y="231.00" xlink:href="#hd"/>
<path d="M263.94 231.00v22.70" class="stroke"/>
<use x="287.74" y="228.00" xlink:href="#hl"/>
<use x="287.74" y="225.00" xlink:href="#hd"/>
<path d="M284.24 225.00v30.50" class="stroke"/>
<use x="302.44" y="231.00" xlink:href="#hd"/>
<path d="M298.94 231.00v25.90" class="stroke"/>
<use x="317.04" y="240.00" xlink:href="#hd"/>
<path d="M313.54 240.00v18.20" class="stroke"/>
<path class="fill"
	d="M342.04 266.40l50.20 -4.10v-3.20l-50.20 4.10"/>
<path class="fill"
	d="M342.44 261.40l14.60 -1.20v-3.20l-14.60 1.20"/>
<use x="345.94" y="237.00" xlink:href="#hd"/>
<path d="M342.44 237.00v28.40" class="stroke"/>
<use x="360.54" y="243.00" xlink:href="#hd"/>
<path d="M357.04 243.00v21.20" class="stroke"/>
<use x="375.14" y="237.00" xlink:href="#hd"/>
<path d="M371.64 237.00v26.00" class="stroke"/>
<use x="395.44" y="231.00" xlink:href="#hd"/>
<path d="M391.94 231.00v30.30" class="stroke"/>
<path class="fill"
	d="M420.54 265.60l29.90 6.70v-3.20l-29.90 -6.70"/>
<path class="fill"
	d="M420.84 260.70l14.60 3.30v-3.20l-14.60 -3.30"/>
<use x="424.34" y="240.00" xlink:href="#hd"/>
<path d="M420.84 240.00v24.70" class="stroke"/>
<use x="439.04" y="246.00" xlink:href="#hd"/>
<path d="M435.54 246.00v22.00" class="stroke"/>
<use x="453.64" y="252.00" xlink:href="#hd"/>
<path d="M450.14 252.00v19.30" class="stroke"/>
<use x="473.94" y="246.00" xlink:href="#r8"/>
<path class="fill"
	d="M498.94 255.90l74.20 9.30v-3.20l-74.20 -9.30"/>
<path class="fill"
	d="M499.34 251.00l73.50 9.20v-3.20l-73.50 -9.20"/>
<use x="502.84" y="228.00" xlink:href="#hl"/>
<use x="502.84" y="222.00" xlink:href="#hl"/>
<use x="502.84" y="222.00" xlink:href="#hd"/>
<path d="M499.34 222.00v33.00" class="stroke"/>
<use x="517.64" y="228.00" xlink:href="#hl"/>
<use x="517.64" y="225.00" xlink:href="#hd"/>
<path d="M514.14 225.00v31.80" class="stroke"/>
<use x="532.44" y="228.00" xlink:href="#hl"/>
<use x="532.44" y="222.00" xlink:href="#hl"/>
<use x="532.44" y="222.00" xlink:href="#hd"/>
<path d="M528.94 222.00v36.70" class="stroke"/>
<use x="547.04" y="231.00" xlink:href="#hd"/>
<path d="M543.54 231.00v29.50" class="stroke"/>
<use x="561.64" y="237.00" xlink:href="#hd"/>
<path d="M558.14 237.00v25.40" class="stroke"/>
<use x="576.24" y="243.00" xlink:href="#hd"/>
<path d="M572.74 243.00v21.20" class="stroke"/>
<path class="fill"
	d="M597.44 272.80l59.20 -3.20v-3.20l-59.20 3.20"/>
<use x="601.24" y="243.00" xlink:href="#hd"/>
<path d="M597.74 243.00v28.80" class="stroke"/>
<use x="630.54" y="252.00" xlink:href="#hd"/>
<path d="M627.04 252.00v18.20" class="stroke"/>
<use x="659.84" y="237.00" xlink:href="#hd"/>
<path d="M656.34 237.00v31.60" class="stroke"/>
<path class="fill"
	d="M695.64 274.20l77.20 0.00v-3.20l-77.20 -0.00"/>
<path class="fill"
	d="M695.94 269.20l76.50 0.00v-3.20l-76.50 -0.00"/>
<use x="699.44" y="240.00" xlink:href="#hd"/>
<path d="M695.94 240.00v33.20" class="stroke"/>
<use x="717.44" y="243.00" xlink:href="#hd"/>
<use x="708.44" y="243.00" xlink:href="#sh0"/>
<path d="M713.94 243.00v30.20" class="stroke"/>
<use x="732.04" y="240.00" xlink:href="#hd"/>
<path d="M728.54 240.00v33.20" class="stroke"/>
<use x="746.74" y="234.00" xlink:href="#hd"/>
<path d="M743.24 234.00v39.20" class="stroke"/>
<use x="761.34" y="252.00" xlink:href="#hd"/>
<path d="M757.84 252.00v21.20" class="stroke"/>
<use x="775.94" y="246.00" xlink:href="#hd"/>
<path d="M772.44 246.00v27.20" class="stroke"/>
<use x="800.94" y="243.00" xlink:href="#hd"/>
<path d="M797.44 243.00v21.00" class="stroke"/>
<use x="841.54" y="246.00" xlink:href="#r8"/>
<use x="23.54" y="298.00" xlink:href="#bclef"/>
<path class="fill"
	d="M52.24 335.20l68.20 -5.00v-3.20l-68.20 5.00"/>
<path class="fill"
	d="M72.84 328.70l47.30 -3.40v-3.20l-47.30 3.40"/>
<use x="56.04" y="316.00" xlink:href="#hd"/>
<path d="M52.54 316.00v18.20" class="stroke"/>
<use x="76.34" y="289.00" xlink:href="#hd"/>
<path d="M72.84 289.00v43.70" class="stroke"/>
<use x="90.94" y="295.00" xlink:href="#hd"/>
<path d="M87.44 295.00v36.70" class="stroke"/>
<use x="108.94" y="298.00" xlink:href="#hd"/>
<use x="99.94" y="298.00" xlink:href="#sh0"/>
<path d="M105.44 298.00v32.30" class="stroke"/>
<use x="123.64" y="301.00" xlink:href="#hd"/>
<path d="M120.14 301.00v28.30" class="stroke"/>
<path class="fill"
	d="M165.74 283.10l80.60 -6.90v3.20l-80.60 6.90"/>
<path class="fill"
	d="M166.14 288.00l79.90 -6.80v3.20l-79.90 6.80"/>
<use x="162.64" y="322.00" xlink:href="#hl"/>
<use x="162.64" y="325.00" xlink:href="#hd"/>
<path d="M166.14 325.00v-41.00" class="stroke"/>
<use x="177.24" y="304.00" xlink:href="#hd"/>
<path d="M180.74 304.00v-21.20" class="stroke"/>
<use x="195.24" y="307.00" xlink:href="#hd"/>
<use x="186.24" y="307.00" xlink:href="#sh0"/>
<path d="M198.74 307.00v-25.70" class="stroke"/>
<use x="209.84" y="304.00" xlink:href="#hd"/>
<path d="M213.34 304.00v-24.00" class="stroke"/>
<use x="227.84" y="307.00" xlink:href="#hd"/>
<use x="218.84" y="307.00" xlink:href="#sh0"/>
<path d="M231.34 307.00v-28.50" class="stroke"/>
<use x="242.44" y="304.00" xlink:href="#hd"/>
<path d="M245.94 304.00v-26.80" class="stroke"/>
<use x="267.44" y="295.00" xlink:href="#hd"/>
<path d="M263.94 295.00v34.00" class="stroke"/>
<use x="267.44" y="310.00" xlink:href="#hd"/>
<use x="317.04" y="304.00" xlink:href="#r8"/>
<use x="345.94" y="295.00" xlink:href="#hd"/>
<path d="M342.44 295.00v31.00" class="stroke"/>
<use x="345.94" y="307.00" xlink:href="#hd"/>
<use x="395.44" y="301.00" xlink:href="#hd"/>
<path d="M391.94 301.00v25.00" class="stroke"/>
<path class="fill"
	d="M391.94 326.00c0.6 -5.6 9.6 -9 5.6 -18.4
	1.6 6 -1.3 11.6 -5.6 12.8
"/>
<use x="395.44" y="307.00" xlink:href="#hd"/>
<use x="424.34" y="316.00" xlink:href="#hd"/>
<path d="M427.84 316.00v-40.00" class="stroke"/>
<use x="424.34" y="295.00" xlink:href="#hd"/>
<use x="473.94" y="295.00" xlink:href="#hd"/>
<path d="M470.44 295.00v21.00" class="stroke"/>
<path class="fill"
	d="M470.44 316.00c0.6 -5.6 9.6 -9 5.6 -18.4
	1.6 6 -1.3 11.6 -5.6 12.8
"/>
<use x="502.84" y="301.00" xlink:href="#hd"/>
<path d="M499.34 301.00v25.00" class="stroke"/>
<use x="502.84" y="307.00" xlink:href="#hd"/>
<use x="561.64" y="295.00" xlink:href="#hd"/>
<path d="M558.14 295.00v31.00" class="stroke"/>
<path class="fill"
	d="M558.14 326.00c0.6 -5.6 9.6 -9 5.6 -18.4
	1.6 6 -1.3 11.6 -5.6 12.8
"/>
<use x="561.64" y="307.00" xlink:href="#hd"/>
<path class="fill"
	d="M597.44 323.90l73.80 0.00v-3.20l-73.80 -0.00"/>
<path class="fill"
	d="M597.74 318.90l73.20 0.00v-3.20l-73.20 -0.00"/>
<use x="601.24" y="301.00" xlink:href="#hd"/>
<path d="M597.74 301.00v21.90" class="stroke"/>
<use x="601.24" y="307.00" xlink:href="#hd"/>
<use x="615.94" y="295.00" xlink:href="#hd"/>
<path d="M612.44 295.00v27.90" class="stroke"/>
<use x="630.54" y="301.00" xlink:href="#hd"/>
<path d="M627.04 301.00v21.90" class="stroke"/>
<use x="630.54" y="307.00" xlink:href="#hd"/>
<use x="645.14" y="295.00" xlink:href="#hd"/>
<path d="M641.64 295.00v27.90" class="stroke"/>
<use x="659.84" y="301.00" xlink:href="#hd"/>
<path d="M656.34 301.00v21.90" class="stroke"/>
<use x="659.84" y="307.00" xlink:href="#hd"/>
<use x="674.44" y="295.00" xlink:href="#hd"/>
<path d="M670.94 295.00v27.90" class="stroke"/>
<use x="699.44" y="298.00" xlink:href="#hd"/>
<path d="M695.94 298.00v21.00" class="stroke"/>
<use x="761.34" y="295.00" xlink:href="#hd"/>
<path d="M757.84 295.00v21.00" class="stroke"/>
<path class="fill"
	d="M757.84 316.00c0.6 -5.6 9.6 -9 5.6 -18.4
	1.6 6 -1.3 11.6 -5.6 12.8
"/>
<path class="fill"
	d="M804.14 287.70l41.30 9.70v3.20l-41.30 -9.70"/>
<use x="800.94" y="307.00" xlink:href="#hd"/>
<path d="M804.44 307.00v-18.20" class="stroke"/>
<use x="821.24" y="316.00" xlink:href="#hd"/>
<path d="M824.74 316.00v-22.40" class="stroke"/>
<use x="841.54" y="322.00" xlink:href="#hl"/>
<use x="841.54" y="328.00" xlink:href="#hl"/>
<use x="841.54" y="328.00" xlink:href="#hd"/>
<path d="M845.04 328.00v-29.70" class="stroke"/>
<defs>
<text id="trl" font-family="serif" font-size="16" font-style="italic"
	x="-2" y="-4">tr</text>
</defs>
<use x="195.24" y="228.00" xlink:href="#trl"/>
</g>
</svg>
