<?xml version="1.0" standalone="no"?>
<!DOCTYPE svg PUBLIC "-//W3C//DTD SVG 1.1//EN"
	"http://www.w3.org/Graphics/SVG/1.1/DTD/svg11.dtd">
<svg xmlns="http://www.w3.org/2000/svg" version="1.1"
	xmlns:xlink="http://www.w3.org/1999/xlink"
	color="black"
	width="757.10px" height="293.80px">
<style type="text/css">
.fill {fill: currentColor}
.stroke {stroke: currentColor; fill: none}
text{white-space: pre}
</style>
<title>./K516f-9-11-6-9-7-11-6-9-7-8-10-7-5-4-6-7.abc (1453) tune 1</title>
<!-- Creator: abcm2ps-8.13.8 -->
<!-- CreationDate: Sep  7, 2017 11:19 -->
<!-- CommandLine: ./K516f-9-11-6-9-7-11-6-9-7-8-10-7-5-4-6-7.abc -O ./K516f-9-11-6-9-7-11-6-9-7-8-10-7-5-4-6-7.svg -g -->
<rect width="100%" height="100%" fill="white"/>
<g stroke-width="0.70" transform="scale(0.867)">
<!-- title: 9-11-6-9-7-11-6-9-7-8-10-7-5-4-6-7 -->
</g>
<g stroke-width="0.70" transform="scale(0.867)" font-family="Times" font-size="20.00">
<text x="436.84" y="22.00" text-anchor="middle">9-11-6-9-7-11-6-9-7-8-10-7-5-4-6-7</text>
</g>
<g stroke-width="0.70" transform="scale(0.867)" font-family="Times" font-size="20.00">
<!-- subtitle: $1K.516f::119:87:163:50:154:47:36:94:138:155:19:29:67:58:1:151::$0 -->
</g>
<g stroke-width="0.70" transform="scale(0.867)" font-family="Courier" font-size="8.00" font-weight="bold">
<text x="436.84" y="41.80" text-anchor="middle">K.516f::119:87:163:50:154:47:36:94:138:155:19:29:67:58:1:151::</text>
</g>
<g stroke-width="0.70" transform="scale(0.867)" font-family="Courier" font-size="8.00" font-weight="bold">
<!-- subtitle: $1Perm. No.: 145373583253489$0 -->
<text x="436.84" y="60.80" text-anchor="middle">Perm. No.: 145373583253489</text>
</g>
<g stroke-width="0.70" transform="scale(0.607)" font-family="Courier" font-size="8.00" font-weight="bold">
<defs>
<ellipse id="hd" rx="4.1" ry="2.9"
	transform="rotate(-20)" class="fill"/>
</defs>
<use x="103.06" y="121.29" xlink:href="#hd"/>
<path d="M106.56 121.29v-21.00" class="stroke"/>
<path class="fill"
	d="M106.56 100.29c0.6 5.6 9.6 9 5.6 18.4
	1.6 -6 -1.3 -11.6 -5.6 -12.8
"/>
</g>
<g stroke-width="0.70" transform="scale(0.867)" font-family="Times" font-size="15.00" font-weight="bold">
<text x="81.24" y="87.00">= 111</text>
<path class="stroke" stroke-width="1"
	d="M11.54 183.00v-82.00"/>
<path class="fill"
	d="M6.54 98.00
	c10.5 1 12 -4.5 12 -3.5c0 1 -3.5 5.5 -8.5 5.5
	v84.00
	c5 0 8.5 4.5 8.5 5.5c0 1 -1.5 -4.5 -12 -3.5"/>
<defs>
<g id="rdots" class="fill">
	<circle cx="0" cy="-9" r="1.2"/>
	<circle cx="0" cy="-15" r="1.2"/>
</g>
</defs>
<use x="70.54" y="125.00" xlink:href="#rdots"/>
<path class="stroke" stroke-width="1"
	d="M66.54 125.00v-24.00"/>
<path class="stroke" stroke-width="3"
	d="M62.04 125.00v-24.00"/>
<use x="70.54" y="183.00" xlink:href="#rdots"/>
<path class="stroke" stroke-width="1"
	d="M66.54 183.00v-58.00"/>
<path class="stroke" stroke-width="3"
	d="M62.04 183.00v-58.00"/>
<path class="stroke" stroke-width="1"
	d="M179.44 125.00v-24.00"/>
<path class="stroke" stroke-width="1"
	d="M179.44 183.00v-58.00"/>
<path class="stroke" stroke-width="1"
	d="M256.64 125.00v-24.00"/>
<path class="stroke" stroke-width="1"
	d="M256.64 183.00v-58.00"/>
<path class="stroke" stroke-width="1"
	d="M366.04 125.00v-24.00"/>
<path class="stroke" stroke-width="1"
	d="M366.04 183.00v-58.00"/>
<path class="stroke" stroke-width="1"
	d="M453.04 125.00v-24.00"/>
<path class="stroke" stroke-width="1"
	d="M453.04 183.00v-58.00"/>
<path class="stroke" stroke-width="1"
	d="M564.14 125.00v-24.00"/>
<path class="stroke" stroke-width="1"
	d="M564.14 183.00v-58.00"/>
<path class="stroke" stroke-width="1"
	d="M651.04 125.00v-24.00"/>
<path class="stroke" stroke-width="1"
	d="M651.04 183.00v-58.00"/>
<path class="stroke" stroke-width="1"
	d="M760.54 125.00v-24.00"/>
<path class="stroke" stroke-width="1"
	d="M760.54 183.00v-58.00"/>
<path class="stroke" stroke-width="3"
	d="M860.54 125.00v-24.00"/>
<path class="stroke" stroke-width="1"
	d="M856.04 125.00v-24.00"/>
<use x="852.04" y="125.00" xlink:href="#rdots"/>
<path class="stroke" stroke-width="3"
	d="M860.54 183.00v-58.00"/>
<path class="stroke" stroke-width="1"
	d="M856.04 183.00v-58.00"/>
<use x="852.04" y="183.00" xlink:href="#rdots"/>
<path d="m11.54 125.00
	h850.50
	M11.54 119.00
	h850.50
	M11.54 113.00
	h850.50
	M11.54 107.00
	h850.50
	M11.54 101.00
	h850.50
	" class="stroke"/>
<path d="m11.54 183.00
	h850.50
	M11.54 177.00
	h850.50
	M11.54 171.00
	h850.50
	M11.54 165.00
	h850.50
	M11.54 159.00
	h850.50
	" class="stroke"/>
</g>
<g stroke-width="0.70" transform="scale(0.867)" font-family="Times" font-size="13.00">
<text x="764.54" y="86.40">1</text>
<path class="stroke"
	d="M760.54 75.00m0 20v-20h93.50v20"/>
<defs>
<path id="utclef" class="fill" d="m-50 -90
	c-72 -41 -72 -158 52 -188
	150 -10 220 188 90 256
	-114 52 -275 0 -293 -136
	-15 -181 93 -229 220 -334
	88 -87 79 -133 62 -210
	-51 33 -94 105 -89 186
	17 267 36 374 49 574
	6 96 -19 134 -77 135
	-80 1 -126 -93 -61 -133
	85 -41 133 101 31 105
	23 17 92 37 90 -92
	-10 -223 -39 -342 -50 -617
	0 -90 0 -162 96 -232
	56 72 63 230 22 289
	-74 106 -257 168 -255 316
	9 153 148 185 252 133
	86 -65 29 -192 -80 -176
	-71 12 -105 67 -59 124"/>
<use id="tclef" transform="translate(0,6) scale(0.045)"
	xlink:href="#utclef"/>
</defs>
<use x="23.54" y="119.00" xlink:href="#tclef"/>
<g font-family="serif" font-size="16" font-weight="bold" font-style="normal"
	transform="translate(42.04,124.50) scale(1.2,1)">
	<text text-anchor="middle">8</text>
	<text y="-12" text-anchor="middle">3</text>
</g>
<path class="fill"
	d="M80.74 133.40l82.50 -6.20v-3.20l-82.50 6.20"/>
<path class="fill"
	d="M81.14 128.40l81.80 -6.10v-3.20l-81.80 6.10"/>
<use x="84.64" y="104.00" xlink:href="#hd"/>
<path d="M81.14 104.00v28.40" class="stroke"/>
<use x="100.94" y="110.00" xlink:href="#hd"/>
<path d="M97.44 110.00v21.20" class="stroke"/>
<use x="117.34" y="98.00" xlink:href="#hd"/>
<path d="M113.84 98.00v32.00" class="stroke"/>
<use x="133.74" y="104.00" xlink:href="#hd"/>
<path d="M130.24 104.00v24.80" class="stroke"/>
<defs>
<path id="hl" class="stroke" d="m-6 0h12"/>
</defs>
<use x="150.04" y="95.00" xlink:href="#hl"/>
<use x="150.04" y="89.00" xlink:href="#hl"/>
<use x="150.04" y="89.00" xlink:href="#hd"/>
<path d="M146.54 89.00v38.50" class="stroke"/>
<use x="166.44" y="98.00" xlink:href="#hd"/>
<path d="M162.94 98.00v28.30" class="stroke"/>
<path class="fill"
	d="M188.64 127.60l46.70 3.20v-3.20l-46.70 -3.20"/>
<use x="192.44" y="98.00" xlink:href="#hd"/>
<path d="M188.94 98.00v28.60" class="stroke"/>
<use x="215.44" y="110.00" xlink:href="#hd"/>
<path d="M211.94 110.00v18.20" class="stroke"/>
<use x="238.44" y="104.00" xlink:href="#hd"/>
<path d="M234.94 104.00v25.80" class="stroke"/>
<path class="fill"
	d="M265.84 131.30l84.10 9.90v-3.20l-84.10 -9.90"/>
<path class="fill"
	d="M266.14 126.40l83.50 9.80v-3.20l-83.50 -9.80"/>
<use x="269.64" y="98.00" xlink:href="#hd"/>
<path d="M266.14 98.00v32.40" class="stroke"/>
<use x="287.64" y="101.00" xlink:href="#hd"/>
<defs>
<path id="usharp" class="fill" d="
	m136 -702
	v890
	h32
	v-890
	m128 840
	h32
	v-888
	h-32
	m-232 286
	v116
	l338 -96
	v-116
	m-338 442
	v116
	l338 -98
	v-114"/>
<use id="sh0" transform="translate(-4,5) scale(0.018)"
	xlink:href="#usharp"/>
</defs>
<use x="278.64" y="101.00" xlink:href="#sh0"/>
<path d="M284.14 101.00v31.50" class="stroke"/>
<use x="304.04" y="98.00" xlink:href="#hd"/>
<path d="M300.54 98.00v36.40" class="stroke"/>
<use x="320.44" y="107.00" xlink:href="#hd"/>
<path d="M316.94 107.00v29.30" class="stroke"/>
<use x="336.74" y="113.00" xlink:href="#hd"/>
<path d="M333.24 113.00v25.30" class="stroke"/>
<use x="353.14" y="119.00" xlink:href="#hd"/>
<path d="M349.64 119.00v21.20" class="stroke"/>
<path class="fill"
	d="M375.34 133.50l56.40 4.70v-3.20l-56.40 -4.70"/>
<path class="fill"
	d="M398.64 130.50l16.40 1.40v-3.20l-16.40 -1.40"/>
<use x="379.14" y="110.00" xlink:href="#hd"/>
<path d="M375.64 110.00v22.60" class="stroke"/>
<use x="402.14" y="104.00" xlink:href="#hd"/>
<path d="M398.64 104.00v30.50" class="stroke"/>
<use x="418.54" y="110.00" xlink:href="#hd"/>
<path d="M415.04 110.00v25.80" class="stroke"/>
<use x="434.84" y="119.00" xlink:href="#hd"/>
<path d="M431.34 119.00v18.20" class="stroke"/>
<path class="fill"
	d="M462.24 133.00l85.80 0.00v-3.20l-85.80 -0.00"/>
<path class="fill"
	d="M462.54 128.00l85.10 0.00v-3.20l-85.10 -0.00"/>
<use x="466.04" y="107.00" xlink:href="#hd"/>
<path d="M462.54 107.00v24.90" class="stroke"/>
<use x="484.04" y="110.00" xlink:href="#hd"/>
<use x="475.04" y="110.00" xlink:href="#sh0"/>
<path d="M480.54 110.00v21.90" class="stroke"/>
<use x="500.44" y="107.00" xlink:href="#hd"/>
<path d="M496.94 107.00v24.90" class="stroke"/>
<use x="518.44" y="101.00" xlink:href="#hd"/>
<use x="509.44" y="101.00" xlink:href="#sh0"/>
<path d="M514.94 101.00v30.90" class="stroke"/>
<use x="534.84" y="95.00" xlink:href="#hl"/>
<use x="534.84" y="95.00" xlink:href="#hd"/>
<path d="M531.34 95.00v36.90" class="stroke"/>
<use x="551.14" y="101.00" xlink:href="#hd"/>
<path d="M547.64 101.00v30.90" class="stroke"/>
<path class="fill"
	d="M573.34 127.00l56.40 0.00v-3.20l-56.40 -0.00"/>
<path class="fill"
	d="M596.74 122.00l16.40 0.00v-3.20l-16.40 -0.00"/>
<use x="577.24" y="98.00" xlink:href="#hd"/>
<path d="M573.74 98.00v28.00" class="stroke"/>
<use x="600.24" y="98.00" xlink:href="#hd"/>
<path d="M596.74 98.00v28.00" class="stroke"/>
<use x="616.54" y="107.00" xlink:href="#hd"/>
<path d="M613.04 107.00v19.00" class="stroke"/>
<use x="632.94" y="95.00" xlink:href="#hl"/>
<use x="632.94" y="92.00" xlink:href="#hd"/>
<path d="M629.44 92.00v34.00" class="stroke"/>
<path class="fill"
	d="M660.34 138.20l84.10 -8.40v-3.20l-84.10 8.40"/>
<path class="fill"
	d="M660.64 133.20l83.50 -8.40v-3.20l-83.50 8.40"/>
<use x="664.14" y="116.00" xlink:href="#hd"/>
<path d="M660.64 116.00v21.20" class="stroke"/>
<use x="680.54" y="104.00" xlink:href="#hd"/>
<path d="M677.04 104.00v31.60" class="stroke"/>
<use x="696.84" y="107.00" xlink:href="#hd"/>
<path d="M693.34 107.00v26.90" class="stroke"/>
<use x="713.24" y="98.00" xlink:href="#hd"/>
<path d="M709.74 98.00v34.30" class="stroke"/>
<use x="731.24" y="101.00" xlink:href="#hd"/>
<use x="722.24" y="101.00" xlink:href="#sh0"/>
<path d="M727.74 101.00v29.50" class="stroke"/>
<use x="747.54" y="95.00" xlink:href="#hl"/>
<use x="747.54" y="95.00" xlink:href="#hd"/>
<path d="M744.04 95.00v33.80" class="stroke"/>
<use x="773.64" y="98.00" xlink:href="#hd"/>
<path d="M770.14 98.00v40.00" class="stroke"/>
<use x="773.64" y="119.00" xlink:href="#hd"/>
<use x="773.64" y="113.00" xlink:href="#hd"/>
<use x="773.64" y="107.00" xlink:href="#hd"/>
<defs>
<path id="r8e" class="fill" d="m 0 0
	c-1.5 1.5 -2.4 2 -3.6 2
	2.4 -2.8 -2.8 -4 -2.8 -1.2
	c0 2.7 4.3 2.4 5.9 0.6"/>
<g id="r8">
	<path d="m3.3 -4l-3.4 9.6" class="stroke"/>
	<use x="3.4" y="-4" xlink:href="#r8e"/>
</g>
</defs>
<use x="830.94" y="113.00" xlink:href="#r8"/>
<defs>
<path id="ubclef" class="fill" d="m-200 -87
	c124 -35 222 -78 254 -236
	43 -228 -167 -246 -192 -103
	59 -80 157 22 92 78
	-62 47 -115 -22 -106 -88
	21 -141 270 -136 274 52
	-1 175 -106 264 -322 297
	m357 -250
	c0 -36 51 -34 51 0
	0 37 -51 36 -51 0
	m-2 -129
	c0 -36 51 -34 51 0
	0 38 -51 37 -51 0"/>
<use id="bclef" transform="translate(0,18) scale(0.045)"
	xlink:href="#ubclef"/>
</defs>
<use x="23.54" y="165.00" xlink:href="#bclef"/>
<g font-family="serif" font-size="16" font-weight="bold" font-style="normal"
	transform="translate(42.04,182.50) scale(1.2,1)">
	<text text-anchor="middle">8</text>
	<text y="-12" text-anchor="middle">3</text>
</g>
<use x="84.64" y="168.00" xlink:href="#hd"/>
<path d="M81.14 168.00v25.00" class="stroke"/>
<use x="84.64" y="174.00" xlink:href="#hd"/>
<use x="150.04" y="171.00" xlink:href="#r8"/>
<use x="192.44" y="168.00" xlink:href="#hd"/>
<path d="M188.94 168.00v25.00" class="stroke"/>
<use x="192.44" y="174.00" xlink:href="#hd"/>
<use x="238.44" y="162.00" xlink:href="#hd"/>
<path d="M234.94 162.00v31.00" class="stroke"/>
<path class="fill"
	d="M234.94 193.00c0.6 -5.6 9.6 -9 5.6 -18.4
	1.6 6 -1.3 11.6 -5.6 12.8
"/>
<use x="238.44" y="174.00" xlink:href="#hd"/>
<use x="269.64" y="177.00" xlink:href="#hd"/>
<path d="M273.14 177.00v-25.00" class="stroke"/>
<use x="269.64" y="171.00" xlink:href="#hd"/>
<use x="336.74" y="171.00" xlink:href="#r8"/>
<use x="379.14" y="162.00" xlink:href="#hd"/>
<path d="M375.64 162.00v25.00" class="stroke"/>
<use x="379.14" y="168.00" xlink:href="#hd"/>
<use x="434.84" y="171.00" xlink:href="#r8"/>
<use x="466.04" y="174.00" xlink:href="#hd"/>
<path d="M469.54 174.00v-21.00" class="stroke"/>
<use x="534.84" y="171.00" xlink:href="#r8"/>
<use x="577.24" y="177.00" xlink:href="#hd"/>
<path d="M580.74 177.00v-25.00" class="stroke"/>
<use x="577.24" y="171.00" xlink:href="#hd"/>
<use x="632.94" y="171.00" xlink:href="#r8"/>
<path class="fill"
	d="M667.34 147.70l67.80 8.30v3.20l-67.80 -8.30"/>
<use x="664.14" y="174.00" xlink:href="#hd"/>
<path d="M667.64 174.00v-25.20" class="stroke"/>
<use x="696.84" y="171.00" xlink:href="#hd"/>
<path d="M700.34 171.00v-18.20" class="stroke"/>
<use x="731.24" y="189.00" xlink:href="#hl"/>
<use x="731.24" y="192.00" xlink:href="#hd"/>
<path d="M734.74 192.00v-35.00" class="stroke"/>
<path class="fill"
	d="M769.74 202.20l74.40 0.00v-3.20l-74.40 -0.00"/>
<path class="fill"
	d="M793.14 197.20l50.70 0.00v-3.20l-50.70 -0.00"/>
<use x="773.64" y="183.00" xlink:href="#hd"/>
<path d="M770.14 183.00v18.20" class="stroke"/>
<use x="796.64" y="162.00" xlink:href="#hd"/>
<path d="M793.14 162.00v39.20" class="stroke"/>
<use x="814.64" y="165.00" xlink:href="#hd"/>
<defs>
<path id="unat" class="fill" d="
	m96 -750
	h-32
	v716
	l32 -8
	182 -54
	v282
	h32
	v-706
	l-34 10
	-180 50
	v-290
	m0 592
	v-190
	l182 -52
	v188"/>
<use id="nt0" transform="translate(-3,5) scale(0.018)"
	xlink:href="#unat"/>
</defs>
<use x="805.64" y="165.00" xlink:href="#nt0"/>
<path d="M811.14 165.00v36.20" class="stroke"/>
<use x="830.94" y="168.00" xlink:href="#hd"/>
<path d="M827.44 168.00v33.20" class="stroke"/>
<use x="847.34" y="171.00" xlink:href="#hd"/>
<path d="M843.84 171.00v30.20" class="stroke"/>
</g>
<g stroke-width="0.70" transform="scale(0.867)" font-family="Times" font-size="13.00">
<path class="stroke" stroke-width="1"
	d="M11.54 316.00v-82.00"/>
<path class="fill"
	d="M6.54 231.00
	c10.5 1 12 -4.5 12 -3.5c0 1 -3.5 5.5 -8.5 5.5
	v84.00
	c5 0 8.5 4.5 8.5 5.5c0 1 -1.5 -4.5 -12 -3.5"/>
<use x="143.44" y="258.00" xlink:href="#rdots"/>
<path class="stroke" stroke-width="1"
	d="M139.44 258.00v-24.00"/>
<path class="stroke" stroke-width="3"
	d="M134.94 258.00v-24.00"/>
<use x="143.44" y="316.00" xlink:href="#rdots"/>
<path class="stroke" stroke-width="1"
	d="M139.44 316.00v-58.00"/>
<path class="stroke" stroke-width="3"
	d="M134.94 316.00v-58.00"/>
<path class="stroke" stroke-width="1"
	d="M255.54 258.00v-24.00"/>
<path class="stroke" stroke-width="1"
	d="M255.54 316.00v-58.00"/>
<path class="stroke" stroke-width="1"
	d="M354.04 258.00v-24.00"/>
<path class="stroke" stroke-width="1"
	d="M354.04 316.00v-58.00"/>
<path class="stroke" stroke-width="1"
	d="M432.84 258.00v-24.00"/>
<path class="stroke" stroke-width="1"
	d="M432.84 316.00v-58.00"/>
<path class="stroke" stroke-width="1"
	d="M521.24 258.00v-24.00"/>
<path class="stroke" stroke-width="1"
	d="M521.24 316.00v-58.00"/>
<path class="stroke" stroke-width="1"
	d="M619.74 258.00v-24.00"/>
<path class="stroke" stroke-width="1"
	d="M619.74 316.00v-58.00"/>
<path class="stroke" stroke-width="1"
	d="M718.34 258.00v-24.00"/>
<path class="stroke" stroke-width="1"
	d="M718.34 316.00v-58.00"/>
<path class="stroke" stroke-width="1"
	d="M788.14 258.00v-24.00"/>
<path class="stroke" stroke-width="1"
	d="M788.14 316.00v-58.00"/>
<path class="stroke" stroke-width="3"
	d="M860.54 258.00v-24.00"/>
<path class="stroke" stroke-width="1"
	d="M856.04 258.00v-24.00"/>
<use x="852.04" y="258.00" xlink:href="#rdots"/>
<path class="stroke" stroke-width="3"
	d="M860.54 316.00v-58.00"/>
<path class="stroke" stroke-width="1"
	d="M856.04 316.00v-58.00"/>
<use x="852.04" y="316.00" xlink:href="#rdots"/>
<path d="m11.54 258.00
	h850.50
	M11.54 252.00
	h850.50
	M11.54 246.00
	h850.50
	M11.54 240.00
	h850.50
	M11.54 234.00
	h850.50
	" class="stroke"/>
<path d="m11.54 316.00
	h850.50
	M11.54 310.00
	h850.50
	M11.54 304.00
	h850.50
	M11.54 298.00
	h850.50
	M11.54 292.00
	h850.50
	" class="stroke"/>
<text x="47.54" y="219.40">2</text>
<path class="stroke"
	d="M43.54 208.00m0 20v-20h88.90v20"/>
<use x="23.54" y="252.00" xlink:href="#tclef"/>
<use x="56.04" y="231.00" xlink:href="#hd"/>
<path d="M52.54 231.00v40.00" class="stroke"/>
<use x="56.04" y="252.00" xlink:href="#hd"/>
<use x="56.04" y="246.00" xlink:href="#hd"/>
<use x="56.04" y="240.00" xlink:href="#hd"/>
<use x="109.24" y="246.00" xlink:href="#r8"/>
<use x="162.94" y="234.00" xlink:href="#hd"/>
<use x="153.94" y="234.00" xlink:href="#sh0"/>
<path d="M159.44 234.00v34.00" class="stroke"/>
<path class="fill"
	d="M159.44 268.00c0.6 -5.6 9.6 -9 5.6 -18.4
	1.6 6 -1.3 11.6 -5.6 12.8
"/>
<use x="162.94" y="249.00" xlink:href="#hd"/>
<use x="162.94" y="240.00" xlink:href="#hd"/>
<use x="195.64" y="234.00" xlink:href="#hd"/>
<path d="M192.14 234.00v21.00" class="stroke"/>
<path class="fill"
	d="M264.24 263.40l74.20 10.80v-3.20l-74.20 -10.80"/>
<path class="fill"
	d="M264.54 258.50l73.50 10.70v-3.20l-73.50 -10.70"/>
<use x="268.04" y="231.00" xlink:href="#hd"/>
<path d="M264.54 231.00v31.50" class="stroke"/>
<use x="282.74" y="228.00" xlink:href="#hl"/>
<use x="282.74" y="225.00" xlink:href="#hd"/>
<path d="M279.24 225.00v39.60" class="stroke"/>
<use x="297.44" y="231.00" xlink:href="#hd"/>
<path d="M293.94 231.00v35.80" class="stroke"/>
<use x="312.14" y="240.00" xlink:href="#hd"/>
<path d="M308.64 240.00v28.90" class="stroke"/>
<use x="326.84" y="246.00" xlink:href="#hd"/>
<path d="M323.34 246.00v25.10" class="stroke"/>
<use x="341.54" y="252.00" xlink:href="#hd"/>
<path d="M338.04 252.00v21.20" class="stroke"/>
<path class="fill"
	d="M362.74 266.40l50.50 -4.20v-3.20l-50.50 4.20"/>
<path class="fill"
	d="M363.04 261.40l14.70 -1.20v-3.20l-14.70 1.20"/>
<use x="366.54" y="237.00" xlink:href="#hd"/>
<path d="M363.04 237.00v28.40" class="stroke"/>
<use x="381.24" y="243.00" xlink:href="#hd"/>
<path d="M377.74 243.00v21.20" class="stroke"/>
<use x="396.04" y="237.00" xlink:href="#hd"/>
<path d="M392.54 237.00v26.00" class="stroke"/>
<use x="416.44" y="231.00" xlink:href="#hd"/>
<path d="M412.94 231.00v30.30" class="stroke"/>
<path class="fill"
	d="M441.54 266.00l59.50 0.00v-3.20l-59.50 -0.00"/>
<path class="fill"
	d="M441.84 261.00l44.10 0.00v-3.20l-44.10 -0.00"/>
<use x="445.34" y="246.00" xlink:href="#hd"/>
<path d="M441.84 246.00v18.90" class="stroke"/>
<use x="460.14" y="240.00" xlink:href="#hd"/>
<path d="M456.64 240.00v24.90" class="stroke"/>
<use x="474.84" y="231.00" xlink:href="#hd"/>
<path d="M471.34 231.00v33.90" class="stroke"/>
<use x="489.54" y="240.00" xlink:href="#hd"/>
<path d="M486.04 240.00v24.90" class="stroke"/>
<use x="504.24" y="246.00" xlink:href="#hd"/>
<path d="M500.74 246.00v18.90" class="stroke"/>
<path class="fill"
	d="M529.84 274.20l74.20 0.00v-3.20l-74.20 -0.00"/>
<path class="fill"
	d="M530.24 269.20l73.50 0.00v-3.20l-73.50 -0.00"/>
<use x="533.74" y="243.00" xlink:href="#hd"/>
<path d="M530.24 243.00v30.20" class="stroke"/>
<use x="548.44" y="246.00" xlink:href="#hd"/>
<path d="M544.94 246.00v27.20" class="stroke"/>
<use x="563.14" y="243.00" xlink:href="#hd"/>
<path d="M559.64 243.00v30.20" class="stroke"/>
<use x="577.84" y="237.00" xlink:href="#hd"/>
<path d="M574.34 237.00v36.20" class="stroke"/>
<use x="592.54" y="252.00" xlink:href="#hd"/>
<path d="M589.04 252.00v21.20" class="stroke"/>
<use x="607.24" y="243.00" xlink:href="#hd"/>
<path d="M603.74 243.00v30.20" class="stroke"/>
<path class="fill"
	d="M628.44 253.70l59.50 8.60v-3.20l-59.50 -8.60"/>
<use x="632.24" y="231.00" xlink:href="#hd"/>
<path d="M628.74 231.00v21.70" class="stroke"/>
<use x="661.64" y="237.00" xlink:href="#hd"/>
<path d="M658.14 237.00v20.00" class="stroke"/>
<use x="691.14" y="243.00" xlink:href="#hd"/>
<path d="M687.64 243.00v18.30" class="stroke"/>
<path class="fill"
	d="M726.94 258.20l41.60 0.00v-3.20l-41.60 -0.00"/>
<use x="730.84" y="234.00" xlink:href="#hd"/>
<path d="M727.34 234.00v23.20" class="stroke"/>
<use x="751.24" y="240.00" xlink:href="#hd"/>
<path d="M747.74 240.00v17.20" class="stroke"/>
<use x="771.74" y="231.00" xlink:href="#hd"/>
<path d="M768.24 231.00v26.20" class="stroke"/>
<use x="800.64" y="243.00" xlink:href="#hd"/>
<path d="M797.14 243.00v21.00" class="stroke"/>
<use x="841.54" y="246.00" xlink:href="#r8"/>
<use x="23.54" y="298.00" xlink:href="#bclef"/>
<path class="fill"
	d="M52.24 335.20l68.50 -5.00v-3.20l-68.50 5.00"/>
<path class="fill"
	d="M72.94 328.70l47.40 -3.40v-3.20l-47.40 3.40"/>
<use x="56.04" y="316.00" xlink:href="#hd"/>
<path d="M52.54 316.00v18.20" class="stroke"/>
<use x="76.44" y="289.00" xlink:href="#hd"/>
<path d="M72.94 289.00v43.70" class="stroke"/>
<use x="91.24" y="295.00" xlink:href="#hd"/>
<path d="M87.74 295.00v36.60" class="stroke"/>
<use x="109.24" y="298.00" xlink:href="#hd"/>
<use x="100.24" y="298.00" xlink:href="#sh0"/>
<path d="M105.74 298.00v32.30" class="stroke"/>
<use x="123.94" y="301.00" xlink:href="#hd"/>
<path d="M120.44 301.00v28.30" class="stroke"/>
<path class="fill"
	d="M166.04 283.10l80.80 -6.90v3.20l-80.80 6.90"/>
<path class="fill"
	d="M166.44 288.10l80.10 -6.80v3.20l-80.10 6.80"/>
<use x="162.94" y="322.00" xlink:href="#hl"/>
<use x="162.94" y="325.00" xlink:href="#hd"/>
<path d="M166.44 325.00v-40.90" class="stroke"/>
<use x="177.64" y="304.00" xlink:href="#hd"/>
<path d="M181.14 304.00v-21.20" class="stroke"/>
<use x="195.64" y="307.00" xlink:href="#hd"/>
<use x="186.64" y="307.00" xlink:href="#sh0"/>
<path d="M199.14 307.00v-25.70" class="stroke"/>
<use x="210.34" y="304.00" xlink:href="#hd"/>
<path d="M213.84 304.00v-24.00" class="stroke"/>
<use x="228.34" y="307.00" xlink:href="#hd"/>
<use x="219.34" y="307.00" xlink:href="#sh0"/>
<path d="M231.84 307.00v-28.50" class="stroke"/>
<use x="243.04" y="304.00" xlink:href="#hd"/>
<path d="M246.54 304.00v-26.80" class="stroke"/>
<use x="268.04" y="310.00" xlink:href="#hd"/>
<path d="M271.54 310.00v-25.00" class="stroke"/>
<use x="268.04" y="304.00" xlink:href="#hd"/>
<use x="326.84" y="304.00" xlink:href="#r8"/>
<use x="366.54" y="295.00" xlink:href="#hd"/>
<path d="M363.04 295.00v31.00" class="stroke"/>
<use x="366.54" y="307.00" xlink:href="#hd"/>
<use x="416.44" y="301.00" xlink:href="#hd"/>
<path d="M412.94 301.00v25.00" class="stroke"/>
<path class="fill"
	d="M412.94 326.00c0.6 -5.6 9.6 -9 5.6 -18.4
	1.6 6 -1.3 11.6 -5.6 12.8
"/>
<use x="416.44" y="307.00" xlink:href="#hd"/>
<use x="445.34" y="295.00" xlink:href="#hd"/>
<path d="M441.84 295.00v21.00" class="stroke"/>
<use x="504.24" y="316.00" xlink:href="#hd"/>
<path d="M507.74 316.00v-21.00" class="stroke"/>
<path class="fill"
	d="M507.74 295.00c0.6 5.6 9.6 9 5.6 18.4
	1.6 -6 -1.3 -11.6 -5.6 -12.8
"/>
<use x="533.74" y="301.00" xlink:href="#hd"/>
<path d="M530.24 301.00v25.00" class="stroke"/>
<use x="533.74" y="307.00" xlink:href="#hd"/>
<use x="592.54" y="295.00" xlink:href="#hd"/>
<path d="M589.04 295.00v25.00" class="stroke"/>
<path class="fill"
	d="M589.04 320.00c0.6 -5.6 9.6 -9 5.6 -18.4
	1.6 6 -1.3 11.6 -5.6 12.8
"/>
<use x="592.54" y="301.00" xlink:href="#hd"/>
<path class="fill"
	d="M628.44 323.90l74.20 0.00v-3.20l-74.20 -0.00"/>
<path class="fill"
	d="M628.74 318.90l73.50 0.00v-3.20l-73.50 -0.00"/>
<use x="632.24" y="301.00" xlink:href="#hd"/>
<path d="M628.74 301.00v21.90" class="stroke"/>
<use x="632.24" y="307.00" xlink:href="#hd"/>
<use x="646.94" y="295.00" xlink:href="#hd"/>
<path d="M643.44 295.00v27.90" class="stroke"/>
<use x="661.64" y="301.00" xlink:href="#hd"/>
<path d="M658.14 301.00v21.90" class="stroke"/>
<use x="661.64" y="307.00" xlink:href="#hd"/>
<use x="676.34" y="295.00" xlink:href="#hd"/>
<path d="M672.84 295.00v27.90" class="stroke"/>
<use x="691.14" y="301.00" xlink:href="#hd"/>
<path d="M687.64 301.00v21.90" class="stroke"/>
<use x="691.14" y="307.00" xlink:href="#hd"/>
<use x="705.84" y="295.00" xlink:href="#hd"/>
<path d="M702.34 295.00v27.90" class="stroke"/>
<path class="fill"
	d="M726.94 323.20l41.60 0.00v-3.20l-41.60 -0.00"/>
<use x="730.84" y="298.00" xlink:href="#hd"/>
<path d="M727.34 298.00v24.20" class="stroke"/>
<use x="751.24" y="304.00" xlink:href="#hd"/>
<path d="M747.74 304.00v18.20" class="stroke"/>
<use x="771.74" y="295.00" xlink:href="#hd"/>
<path d="M768.24 295.00v27.20" class="stroke"/>
<path class="fill"
	d="M803.84 287.70l41.60 9.70v3.20l-41.60 -9.70"/>
<use x="800.64" y="307.00" xlink:href="#hd"/>
<path d="M804.14 307.00v-18.20" class="stroke"/>
<use x="821.14" y="316.00" xlink:href="#hd"/>
<path d="M824.64 316.00v-22.40" class="stroke"/>
<use x="841.54" y="322.00" xlink:href="#hl"/>
<use x="841.54" y="328.00" xlink:href="#hl"/>
<use x="841.54" y="328.00" xlink:href="#hd"/>
<path d="M845.04 328.00v-29.60" class="stroke"/>
<defs>
<text id="trl" font-family="serif" font-size="16" font-style="italic"
	x="-2" y="-4">tr</text>
</defs>
<use x="195.64" y="228.00" xlink:href="#trl"/>
</g>
</svg>
