<?xml version="1.0" standalone="no"?>
<!DOCTYPE svg PUBLIC "-//W3C//DTD SVG 1.1//EN"
	"http://www.w3.org/Graphics/SVG/1.1/DTD/svg11.dtd">
<svg xmlns="http://www.w3.org/2000/svg" version="1.1"
	xmlns:xlink="http://www.w3.org/1999/xlink"
	color="black"
	width="757.10px" height="300.73px">
<style type="text/css">
.fill {fill: currentColor}
.stroke {stroke: currentColor; fill: none}
text{white-space: pre}
</style>
<title>./K516f-6-7-2-7-7-8-7-5-3-6-2-6-3-4-12-6.abc (3518) tune 1</title>
<!-- Creator: abcm2ps-8.13.8 -->
<!-- CreationDate: Sep  7, 2017 11:19 -->
<!-- CommandLine: ./K516f-6-7-2-7-7-8-7-5-3-6-2-6-3-4-12-6.abc -O ./K516f-6-7-2-7-7-8-7-5-3-6-2-6-3-4-12-6.svg -g -->
<rect width="100%" height="100%" fill="white"/>
<g stroke-width="0.70" transform="scale(0.867)">
<!-- title: 6-7-2-7-7-8-7-5-3-6-2-6-3-4-12-6 -->
</g>
<g stroke-width="0.70" transform="scale(0.867)" font-family="Times" font-size="20.00">
<text x="436.84" y="22.00" text-anchor="middle">6-7-2-7-7-8-7-5-3-6-2-6-3-4-12-6</text>
</g>
<g stroke-width="0.70" transform="scale(0.867)" font-family="Times" font-size="20.00">
<!-- subtitle: $1K.516f::148:157:141:167:154:133:118:100:117:143:26:125:174:58:44:93::$0 -->
</g>
<g stroke-width="0.70" transform="scale(0.867)" font-family="Courier" font-size="8.00" font-weight="bold">
<text x="436.84" y="41.80" text-anchor="middle">K.516f::148:157:141:167:154:133:118:100:117:143:26:125:174:58:44:93::</text>
</g>
<g stroke-width="0.70" transform="scale(0.867)" font-family="Courier" font-size="8.00" font-weight="bold">
<!-- subtitle: $1Perm. No.: 351893926388493$0 -->
<text x="436.84" y="60.80" text-anchor="middle">Perm. No.: 351893926388493</text>
</g>
<g stroke-width="0.70" transform="scale(0.607)" font-family="Courier" font-size="8.00" font-weight="bold">
<defs>
<ellipse id="hd" rx="4.1" ry="2.9"
	transform="rotate(-20)" class="fill"/>
</defs>
<use x="103.06" y="121.29" xlink:href="#hd"/>
<path d="M106.56 121.29v-21.00" class="stroke"/>
<path class="fill"
	d="M106.56 100.29c0.6 5.6 9.6 9 5.6 18.4
	1.6 -6 -1.3 -11.6 -5.6 -12.8
"/>
</g>
<g stroke-width="0.70" transform="scale(0.867)" font-family="Times" font-size="15.00" font-weight="bold">
<text x="81.24" y="87.00">= 111</text>
<path class="stroke" stroke-width="1"
	d="M11.54 191.00v-82.00"/>
<path class="fill"
	d="M6.54 106.00
	c10.5 1 12 -4.5 12 -3.5c0 1 -3.5 5.5 -8.5 5.5
	v84.00
	c5 0 8.5 4.5 8.5 5.5c0 1 -1.5 -4.5 -12 -3.5"/>
<defs>
<g id="rdots" class="fill">
	<circle cx="0" cy="-9" r="1.2"/>
	<circle cx="0" cy="-15" r="1.2"/>
</g>
</defs>
<use x="70.54" y="133.00" xlink:href="#rdots"/>
<path class="stroke" stroke-width="1"
	d="M66.54 133.00v-24.00"/>
<path class="stroke" stroke-width="3"
	d="M62.04 133.00v-24.00"/>
<use x="70.54" y="191.00" xlink:href="#rdots"/>
<path class="stroke" stroke-width="1"
	d="M66.54 191.00v-58.00"/>
<path class="stroke" stroke-width="3"
	d="M62.04 191.00v-58.00"/>
<path class="stroke" stroke-width="1"
	d="M173.84 133.00v-24.00"/>
<path class="stroke" stroke-width="1"
	d="M173.84 191.00v-58.00"/>
<path class="stroke" stroke-width="1"
	d="M276.04 133.00v-24.00"/>
<path class="stroke" stroke-width="1"
	d="M276.04 191.00v-58.00"/>
<path class="stroke" stroke-width="1"
	d="M378.14 133.00v-24.00"/>
<path class="stroke" stroke-width="1"
	d="M378.14 191.00v-58.00"/>
<path class="stroke" stroke-width="1"
	d="M460.24 133.00v-24.00"/>
<path class="stroke" stroke-width="1"
	d="M460.24 191.00v-58.00"/>
<path class="stroke" stroke-width="1"
	d="M567.54 133.00v-24.00"/>
<path class="stroke" stroke-width="1"
	d="M567.54 191.00v-58.00"/>
<path class="stroke" stroke-width="1"
	d="M660.44 133.00v-24.00"/>
<path class="stroke" stroke-width="1"
	d="M660.44 191.00v-58.00"/>
<path class="stroke" stroke-width="1"
	d="M765.14 133.00v-24.00"/>
<path class="stroke" stroke-width="1"
	d="M765.14 191.00v-58.00"/>
<path class="stroke" stroke-width="3"
	d="M860.54 133.00v-24.00"/>
<path class="stroke" stroke-width="1"
	d="M856.04 133.00v-24.00"/>
<use x="852.04" y="133.00" xlink:href="#rdots"/>
<path class="stroke" stroke-width="3"
	d="M860.54 191.00v-58.00"/>
<path class="stroke" stroke-width="1"
	d="M856.04 191.00v-58.00"/>
<use x="852.04" y="191.00" xlink:href="#rdots"/>
<path d="m11.54 133.00
	h850.50
	M11.54 127.00
	h850.50
	M11.54 121.00
	h850.50
	M11.54 115.00
	h850.50
	M11.54 109.00
	h850.50
	" class="stroke"/>
<path d="m11.54 191.00
	h850.50
	M11.54 185.00
	h850.50
	M11.54 179.00
	h850.50
	M11.54 173.00
	h850.50
	M11.54 167.00
	h850.50
	" class="stroke"/>
</g>
<g stroke-width="0.70" transform="scale(0.867)" font-family="Times" font-size="13.00">
<text x="769.14" y="94.40">1</text>
<path class="stroke"
	d="M765.14 83.00m0 20v-20h88.90v20"/>
<defs>
<path id="utclef" class="fill" d="m-50 -90
	c-72 -41 -72 -158 52 -188
	150 -10 220 188 90 256
	-114 52 -275 0 -293 -136
	-15 -181 93 -229 220 -334
	88 -87 79 -133 62 -210
	-51 33 -94 105 -89 186
	17 267 36 374 49 574
	6 96 -19 134 -77 135
	-80 1 -126 -93 -61 -133
	85 -41 133 101 31 105
	23 17 92 37 90 -92
	-10 -223 -39 -342 -50 -617
	0 -90 0 -162 96 -232
	56 72 63 230 22 289
	-74 106 -257 168 -255 316
	9 153 148 185 252 133
	86 -65 29 -192 -80 -176
	-71 12 -105 67 -59 124"/>
<use id="tclef" transform="translate(0,6) scale(0.045)"
	xlink:href="#utclef"/>
</defs>
<use x="23.54" y="127.00" xlink:href="#tclef"/>
<g font-family="serif" font-size="16" font-weight="bold" font-style="normal"
	transform="translate(42.04,132.50) scale(1.2,1)">
	<text text-anchor="middle">8</text>
	<text y="-12" text-anchor="middle">3</text>
</g>
<path class="fill"
	d="M80.24 130.80l78.00 9.40v-3.20l-78.00 -9.40"/>
<path class="fill"
	d="M80.54 125.80l77.30 9.40v-3.20l-77.30 -9.40"/>
<defs>
<path id="hl" class="stroke" d="m-6 0h12"/>
</defs>
<use x="84.04" y="103.00" xlink:href="#hl"/>
<use x="84.04" y="97.00" xlink:href="#hl"/>
<use x="84.04" y="97.00" xlink:href="#hd"/>
<path d="M80.54 97.00v32.80" class="stroke"/>
<use x="99.54" y="103.00" xlink:href="#hl"/>
<use x="99.54" y="100.00" xlink:href="#hd"/>
<path d="M96.04 100.00v31.70" class="stroke"/>
<use x="115.14" y="103.00" xlink:href="#hl"/>
<use x="115.14" y="97.00" xlink:href="#hl"/>
<use x="115.14" y="97.00" xlink:href="#hd"/>
<path d="M111.64 97.00v36.60" class="stroke"/>
<use x="130.54" y="106.00" xlink:href="#hd"/>
<path d="M127.04 106.00v29.50" class="stroke"/>
<use x="145.94" y="112.00" xlink:href="#hd"/>
<path d="M142.44 112.00v25.30" class="stroke"/>
<use x="161.34" y="118.00" xlink:href="#hd"/>
<path d="M157.84 118.00v21.20" class="stroke"/>
<path class="fill"
	d="M182.54 138.50l77.80 -6.30v-3.20l-77.80 6.30"/>
<path class="fill"
	d="M182.84 133.40l77.10 -6.20v-3.20l-77.10 6.20"/>
<use x="186.34" y="112.00" xlink:href="#hd"/>
<path d="M182.84 112.00v25.40" class="stroke"/>
<use x="201.84" y="115.00" xlink:href="#hd"/>
<path d="M198.34 115.00v21.20" class="stroke"/>
<use x="217.24" y="112.00" xlink:href="#hd"/>
<path d="M213.74 112.00v23.00" class="stroke"/>
<use x="232.64" y="106.00" xlink:href="#hd"/>
<path d="M229.14 106.00v27.70" class="stroke"/>
<use x="248.14" y="103.00" xlink:href="#hl"/>
<use x="248.14" y="97.00" xlink:href="#hl"/>
<use x="248.14" y="97.00" xlink:href="#hd"/>
<path d="M244.64 97.00v35.50" class="stroke"/>
<use x="263.54" y="106.00" xlink:href="#hd"/>
<path d="M260.04 106.00v25.20" class="stroke"/>
<path class="fill"
	d="M284.74 140.90l77.80 0.00v-3.20l-77.80 -0.00"/>
<path class="fill"
	d="M285.04 135.90l77.10 0.00v-3.20l-77.10 -0.00"/>
<use x="288.54" y="115.00" xlink:href="#hd"/>
<path d="M285.04 115.00v24.90" class="stroke"/>
<use x="303.94" y="112.00" xlink:href="#hd"/>
<path d="M300.44 112.00v27.90" class="stroke"/>
<use x="319.44" y="109.00" xlink:href="#hd"/>
<path d="M315.94 109.00v30.90" class="stroke"/>
<use x="334.84" y="115.00" xlink:href="#hd"/>
<path d="M331.34 115.00v24.90" class="stroke"/>
<use x="350.24" y="118.00" xlink:href="#hd"/>
<path d="M346.74 118.00v21.90" class="stroke"/>
<use x="365.64" y="121.00" xlink:href="#hd"/>
<path d="M362.14 121.00v18.90" class="stroke"/>
<path class="fill"
	d="M386.84 140.90l53.10 0.00v-3.20l-53.10 -0.00"/>
<path class="fill"
	d="M408.74 135.90l15.40 0.00v-3.20l-15.40 -0.00"/>
<use x="390.64" y="118.00" xlink:href="#hd"/>
<path d="M387.14 118.00v21.90" class="stroke"/>
<use x="412.24" y="118.00" xlink:href="#hd"/>
<path d="M408.74 118.00v21.90" class="stroke"/>
<use x="427.74" y="115.00" xlink:href="#hd"/>
<path d="M424.24 115.00v24.90" class="stroke"/>
<use x="443.14" y="112.00" xlink:href="#hd"/>
<path d="M439.64 112.00v27.90" class="stroke"/>
<path class="fill"
	d="M468.94 140.90l83.00 0.00v-3.20l-83.00 -0.00"/>
<path class="fill"
	d="M469.24 135.90l82.30 0.00v-3.20l-82.30 -0.00"/>
<use x="472.74" y="115.00" xlink:href="#hd"/>
<path d="M469.24 115.00v24.90" class="stroke"/>
<use x="490.74" y="118.00" xlink:href="#hd"/>
<defs>
<path id="usharp" class="fill" d="
	m136 -702
	v890
	h32
	v-890
	m128 840
	h32
	v-888
	h-32
	m-232 286
	v116
	l338 -96
	v-116
	m-338 442
	v116
	l338 -98
	v-114"/>
<use id="sh0" transform="translate(-4,5) scale(0.018)"
	xlink:href="#usharp"/>
</defs>
<use x="481.74" y="118.00" xlink:href="#sh0"/>
<path d="M487.24 118.00v21.90" class="stroke"/>
<use x="506.24" y="115.00" xlink:href="#hd"/>
<path d="M502.74 115.00v24.90" class="stroke"/>
<use x="524.24" y="109.00" xlink:href="#hd"/>
<use x="515.24" y="109.00" xlink:href="#sh0"/>
<path d="M520.74 109.00v30.90" class="stroke"/>
<use x="539.64" y="103.00" xlink:href="#hl"/>
<use x="539.64" y="103.00" xlink:href="#hd"/>
<path d="M536.14 103.00v36.90" class="stroke"/>
<use x="555.04" y="109.00" xlink:href="#hd"/>
<path d="M551.54 109.00v30.90" class="stroke"/>
<path class="fill"
	d="M576.24 143.20l68.60 0.00v-3.20l-68.60 -0.00"/>
<path class="fill"
	d="M598.14 138.20l46.30 0.00v-3.20l-46.30 -0.00"/>
<use x="580.04" y="115.00" xlink:href="#hd"/>
<path d="M576.54 115.00v27.20" class="stroke"/>
<use x="601.64" y="106.00" xlink:href="#hd"/>
<path d="M598.14 106.00v36.20" class="stroke"/>
<use x="617.04" y="115.00" xlink:href="#hd"/>
<path d="M613.54 115.00v27.20" class="stroke"/>
<use x="632.54" y="121.00" xlink:href="#hd"/>
<path d="M629.04 121.00v21.20" class="stroke"/>
<use x="647.94" y="115.00" xlink:href="#hd"/>
<path d="M644.44 115.00v27.20" class="stroke"/>
<path class="fill"
	d="M669.14 134.90l80.40 0.00v-3.20l-80.40 -0.00"/>
<path class="fill"
	d="M669.44 129.90l79.70 0.00v-3.20l-79.70 -0.00"/>
<use x="672.94" y="112.00" xlink:href="#hd"/>
<path d="M669.44 112.00v22.00" class="stroke"/>
<use x="688.34" y="103.00" xlink:href="#hl"/>
<use x="688.34" y="103.00" xlink:href="#hd"/>
<path d="M684.84 103.00v31.00" class="stroke"/>
<use x="703.84" y="106.00" xlink:href="#hd"/>
<path d="M700.34 106.00v28.00" class="stroke"/>
<use x="719.24" y="103.00" xlink:href="#hl"/>
<use x="719.24" y="100.00" xlink:href="#hd"/>
<path d="M715.74 100.00v34.00" class="stroke"/>
<use x="737.24" y="109.00" xlink:href="#hd"/>
<use x="728.24" y="109.00" xlink:href="#sh0"/>
<path d="M733.74 109.00v25.00" class="stroke"/>
<use x="752.64" y="103.00" xlink:href="#hl"/>
<use x="752.64" y="103.00" xlink:href="#hd"/>
<path d="M749.14 103.00v31.00" class="stroke"/>
<use x="777.64" y="106.00" xlink:href="#hd"/>
<path d="M774.14 106.00v40.00" class="stroke"/>
<use x="777.64" y="127.00" xlink:href="#hd"/>
<use x="777.64" y="121.00" xlink:href="#hd"/>
<use x="777.64" y="115.00" xlink:href="#hd"/>
<defs>
<path id="r8e" class="fill" d="m 0 0
	c-1.5 1.5 -2.4 2 -3.6 2
	2.4 -2.8 -2.8 -4 -2.8 -1.2
	c0 2.7 4.3 2.4 5.9 0.6"/>
<g id="r8">
	<path d="m3.3 -4l-3.4 9.6" class="stroke"/>
	<use x="3.4" y="-4" xlink:href="#r8e"/>
</g>
</defs>
<use x="832.64" y="121.00" xlink:href="#r8"/>
<defs>
<path id="ubclef" class="fill" d="m-200 -87
	c124 -35 222 -78 254 -236
	43 -228 -167 -246 -192 -103
	59 -80 157 22 92 78
	-62 47 -115 -22 -106 -88
	21 -141 270 -136 274 52
	-1 175 -106 264 -322 297
	m357 -250
	c0 -36 51 -34 51 0
	0 37 -51 36 -51 0
	m-2 -129
	c0 -36 51 -34 51 0
	0 38 -51 37 -51 0"/>
<use id="bclef" transform="translate(0,18) scale(0.045)"
	xlink:href="#ubclef"/>
</defs>
<use x="23.54" y="173.00" xlink:href="#bclef"/>
<g font-family="serif" font-size="16" font-weight="bold" font-style="normal"
	transform="translate(42.04,190.50) scale(1.2,1)">
	<text text-anchor="middle">8</text>
	<text y="-12" text-anchor="middle">3</text>
</g>
<use x="84.04" y="176.00" xlink:href="#hd"/>
<path d="M80.54 176.00v25.00" class="stroke"/>
<use x="84.04" y="182.00" xlink:href="#hd"/>
<use x="145.94" y="179.00" xlink:href="#r8"/>
<use x="186.34" y="182.00" xlink:href="#hd"/>
<path d="M189.84 182.00v-21.00" class="stroke"/>
<use x="248.14" y="179.00" xlink:href="#r8"/>
<use x="288.54" y="170.00" xlink:href="#hd"/>
<path d="M285.04 170.00v34.00" class="stroke"/>
<use x="288.54" y="185.00" xlink:href="#hd"/>
<use x="350.24" y="191.00" xlink:href="#hd"/>
<path d="M353.74 191.00v-21.00" class="stroke"/>
<path class="fill"
	d="M353.74 170.00c0.6 5.6 9.6 9 5.6 18.4
	1.6 -6 -1.3 -11.6 -5.6 -12.8
"/>
<use x="390.64" y="176.00" xlink:href="#hd"/>
<path d="M387.14 176.00v25.00" class="stroke"/>
<use x="390.64" y="182.00" xlink:href="#hd"/>
<use x="443.14" y="179.00" xlink:href="#r8"/>
<use x="472.74" y="182.00" xlink:href="#hd"/>
<path d="M476.24 182.00v-21.00" class="stroke"/>
<use x="539.64" y="179.00" xlink:href="#r8"/>
<use x="580.04" y="170.00" xlink:href="#hd"/>
<path d="M576.54 170.00v34.00" class="stroke"/>
<use x="580.04" y="185.00" xlink:href="#hd"/>
<use x="632.54" y="179.00" xlink:href="#r8"/>
<path class="fill"
	d="M676.14 155.80l65.00 8.30v3.20l-65.00 -8.30"/>
<use x="672.94" y="182.00" xlink:href="#hd"/>
<path d="M676.44 182.00v-25.10" class="stroke"/>
<use x="703.84" y="179.00" xlink:href="#hd"/>
<path d="M707.34 179.00v-18.20" class="stroke"/>
<use x="737.24" y="197.00" xlink:href="#hl"/>
<use x="737.24" y="200.00" xlink:href="#hd"/>
<path d="M740.74 200.00v-34.90" class="stroke"/>
<path class="fill"
	d="M773.84 210.20l71.10 0.00v-3.20l-71.10 -0.00"/>
<path class="fill"
	d="M795.74 205.20l48.90 0.00v-3.20l-48.90 -0.00"/>
<use x="777.64" y="191.00" xlink:href="#hd"/>
<path d="M774.14 191.00v18.20" class="stroke"/>
<use x="799.24" y="170.00" xlink:href="#hd"/>
<path d="M795.74 170.00v39.20" class="stroke"/>
<use x="817.24" y="173.00" xlink:href="#hd"/>
<defs>
<path id="unat" class="fill" d="
	m96 -750
	h-32
	v716
	l32 -8
	182 -54
	v282
	h32
	v-706
	l-34 10
	-180 50
	v-290
	m0 592
	v-190
	l182 -52
	v188"/>
<use id="nt0" transform="translate(-3,5) scale(0.018)"
	xlink:href="#unat"/>
</defs>
<use x="808.24" y="173.00" xlink:href="#nt0"/>
<path d="M813.74 173.00v36.20" class="stroke"/>
<use x="832.64" y="176.00" xlink:href="#hd"/>
<path d="M829.14 176.00v33.20" class="stroke"/>
<use x="848.14" y="179.00" xlink:href="#hd"/>
<path d="M844.64 179.00v30.20" class="stroke"/>
</g>
<g stroke-width="0.70" transform="scale(0.867)" font-family="Times" font-size="13.00">
<path class="stroke" stroke-width="1"
	d="M11.54 324.00v-82.00"/>
<path class="fill"
	d="M6.54 239.00
	c10.5 1 12 -4.5 12 -3.5c0 1 -3.5 5.5 -8.5 5.5
	v84.00
	c5 0 8.5 4.5 8.5 5.5c0 1 -1.5 -4.5 -12 -3.5"/>
<use x="141.84" y="266.00" xlink:href="#rdots"/>
<path class="stroke" stroke-width="1"
	d="M137.84 266.00v-24.00"/>
<path class="stroke" stroke-width="3"
	d="M133.34 266.00v-24.00"/>
<use x="141.84" y="324.00" xlink:href="#rdots"/>
<path class="stroke" stroke-width="1"
	d="M137.84 324.00v-58.00"/>
<path class="stroke" stroke-width="3"
	d="M133.34 324.00v-58.00"/>
<path class="stroke" stroke-width="1"
	d="M249.04 266.00v-24.00"/>
<path class="stroke" stroke-width="1"
	d="M249.04 324.00v-58.00"/>
<path class="stroke" stroke-width="1"
	d="M326.84 266.00v-24.00"/>
<path class="stroke" stroke-width="1"
	d="M326.84 324.00v-58.00"/>
<path class="stroke" stroke-width="1"
	d="M423.34 266.00v-24.00"/>
<path class="stroke" stroke-width="1"
	d="M423.34 324.00v-58.00"/>
<path class="stroke" stroke-width="1"
	d="M509.04 266.00v-24.00"/>
<path class="stroke" stroke-width="1"
	d="M509.04 324.00v-58.00"/>
<path class="stroke" stroke-width="1"
	d="M605.44 266.00v-24.00"/>
<path class="stroke" stroke-width="1"
	d="M605.44 324.00v-58.00"/>
<path class="stroke" stroke-width="1"
	d="M701.84 266.00v-24.00"/>
<path class="stroke" stroke-width="1"
	d="M701.84 324.00v-58.00"/>
<path class="stroke" stroke-width="1"
	d="M789.54 266.00v-24.00"/>
<path class="stroke" stroke-width="1"
	d="M789.54 324.00v-58.00"/>
<path class="stroke" stroke-width="3"
	d="M860.54 266.00v-24.00"/>
<path class="stroke" stroke-width="1"
	d="M856.04 266.00v-24.00"/>
<use x="852.04" y="266.00" xlink:href="#rdots"/>
<path class="stroke" stroke-width="3"
	d="M860.54 324.00v-58.00"/>
<path class="stroke" stroke-width="1"
	d="M856.04 324.00v-58.00"/>
<use x="852.04" y="324.00" xlink:href="#rdots"/>
<path d="m11.54 266.00
	h850.50
	M11.54 260.00
	h850.50
	M11.54 254.00
	h850.50
	M11.54 248.00
	h850.50
	M11.54 242.00
	h850.50
	" class="stroke"/>
<path d="m11.54 324.00
	h850.50
	M11.54 318.00
	h850.50
	M11.54 312.00
	h850.50
	M11.54 306.00
	h850.50
	M11.54 300.00
	h850.50
	" class="stroke"/>
<text x="47.54" y="227.40">2</text>
<path class="stroke"
	d="M43.54 216.00m0 20v-20h87.30v20"/>
<use x="23.54" y="260.00" xlink:href="#tclef"/>
<use x="56.04" y="239.00" xlink:href="#hd"/>
<path d="M52.54 239.00v40.00" class="stroke"/>
<use x="56.04" y="260.00" xlink:href="#hd"/>
<use x="56.04" y="254.00" xlink:href="#hd"/>
<use x="56.04" y="248.00" xlink:href="#hd"/>
<use x="108.14" y="254.00" xlink:href="#r8"/>
<path class="fill"
	d="M157.54 280.60l75.80 -7.00v-3.20l-75.80 7.00"/>
<path class="fill"
	d="M157.84 275.50l75.20 -6.90v-3.20l-75.20 6.90"/>
<use x="161.34" y="248.00" xlink:href="#hd"/>
<path d="M157.84 248.00v31.50" class="stroke"/>
<use x="175.64" y="257.00" xlink:href="#hd"/>
<path d="M172.14 257.00v21.20" class="stroke"/>
<use x="189.94" y="248.00" xlink:href="#hd"/>
<path d="M186.44 248.00v28.90" class="stroke"/>
<use x="207.94" y="242.00" xlink:href="#hd"/>
<use x="198.94" y="242.00" xlink:href="#sh0"/>
<path d="M204.44 242.00v33.20" class="stroke"/>
<use x="222.24" y="236.00" xlink:href="#hl"/>
<use x="222.24" y="236.00" xlink:href="#hd"/>
<path d="M218.74 236.00v37.90" class="stroke"/>
<use x="236.54" y="242.00" xlink:href="#hd"/>
<path d="M233.04 242.00v30.60" class="stroke"/>
<path class="fill"
	d="M257.74 270.80l49.00 8.40v-3.20l-49.00 -8.40"/>
<path class="fill"
	d="M277.84 269.30l14.30 2.50v-3.20l-14.30 -2.50"/>
<use x="261.54" y="239.00" xlink:href="#hd"/>
<path d="M258.04 239.00v30.90" class="stroke"/>
<use x="281.34" y="248.00" xlink:href="#hd"/>
<path d="M277.84 248.00v25.30" class="stroke"/>
<use x="295.54" y="254.00" xlink:href="#hd"/>
<path d="M292.04 254.00v21.70" class="stroke"/>
<use x="309.84" y="260.00" xlink:href="#hd"/>
<path d="M306.34 260.00v18.20" class="stroke"/>
<path class="fill"
	d="M335.54 269.00l57.80 0.00v-3.20l-57.80 -0.00"/>
<use x="339.34" y="245.00" xlink:href="#hd"/>
<path d="M335.84 245.00v23.00" class="stroke"/>
<use x="339.34" y="251.00" xlink:href="#hd"/>
<use x="367.94" y="245.00" xlink:href="#hd"/>
<path d="M364.44 245.00v23.00" class="stroke"/>
<use x="367.94" y="251.00" xlink:href="#hd"/>
<use x="396.54" y="245.00" xlink:href="#hd"/>
<path d="M393.04 245.00v23.00" class="stroke"/>
<use x="396.54" y="251.00" xlink:href="#hd"/>
<path class="fill"
	d="M431.94 270.60l57.80 8.70v-3.20l-57.80 -8.70"/>
<path class="fill"
	d="M432.34 265.60l42.90 6.40v-3.20l-42.90 -6.40"/>
<use x="435.84" y="239.00" xlink:href="#hd"/>
<path d="M432.34 239.00v30.60" class="stroke"/>
<use x="450.14" y="245.00" xlink:href="#hd"/>
<path d="M446.64 245.00v26.80" class="stroke"/>
<use x="464.34" y="248.00" xlink:href="#hd"/>
<path d="M460.84 248.00v25.90" class="stroke"/>
<use x="478.64" y="254.00" xlink:href="#hd"/>
<path d="M475.14 254.00v22.10" class="stroke"/>
<use x="492.94" y="260.00" xlink:href="#hd"/>
<path d="M489.44 260.00v18.20" class="stroke"/>
<path class="fill"
	d="M517.64 279.20l57.80 -6.90v-3.20l-57.80 6.90"/>
<use x="521.54" y="260.00" xlink:href="#hd"/>
<path d="M518.04 260.00v18.20" class="stroke"/>
<use x="550.04" y="251.00" xlink:href="#hd"/>
<path d="M546.54 251.00v23.80" class="stroke"/>
<use x="578.64" y="245.00" xlink:href="#hd"/>
<path d="M575.14 245.00v26.40" class="stroke"/>
<path class="fill"
	d="M614.14 261.70l57.80 8.60v-3.20l-57.80 -8.60"/>
<use x="617.94" y="239.00" xlink:href="#hd"/>
<path d="M614.44 239.00v21.80" class="stroke"/>
<use x="646.54" y="245.00" xlink:href="#hd"/>
<path d="M643.04 245.00v20.00" class="stroke"/>
<use x="675.04" y="251.00" xlink:href="#hd"/>
<path d="M671.54 251.00v18.20" class="stroke"/>
<path class="fill"
	d="M710.54 276.20l63.30 -8.00v-3.20l-63.30 8.00"/>
<path class="fill"
	d="M730.64 268.70l42.90 -5.40v-3.20l-42.90 5.40"/>
<use x="714.34" y="257.00" xlink:href="#hd"/>
<path d="M710.84 257.00v18.20" class="stroke"/>
<use x="734.14" y="242.00" xlink:href="#hd"/>
<path d="M730.64 242.00v30.70" class="stroke"/>
<use x="748.44" y="248.00" xlink:href="#hd"/>
<path d="M744.94 248.00v22.90" class="stroke"/>
<use x="762.74" y="236.00" xlink:href="#hl"/>
<use x="762.74" y="236.00" xlink:href="#hd"/>
<path d="M759.24 236.00v33.10" class="stroke"/>
<use x="777.04" y="239.00" xlink:href="#hd"/>
<path d="M773.54 239.00v28.30" class="stroke"/>
<use x="802.04" y="251.00" xlink:href="#hd"/>
<path d="M798.54 251.00v21.00" class="stroke"/>
<use x="841.54" y="254.00" xlink:href="#r8"/>
<use x="23.54" y="306.00" xlink:href="#bclef"/>
<path class="fill"
	d="M52.24 343.20l67.00 -4.90v-3.20l-67.00 4.90"/>
<path class="fill"
	d="M72.34 336.80l46.60 -3.40v-3.20l-46.60 3.40"/>
<use x="56.04" y="324.00" xlink:href="#hd"/>
<path d="M52.54 324.00v18.20" class="stroke"/>
<use x="75.84" y="297.00" xlink:href="#hd"/>
<path d="M72.34 297.00v43.80" class="stroke"/>
<use x="90.14" y="303.00" xlink:href="#hd"/>
<path d="M86.64 303.00v36.70" class="stroke"/>
<use x="108.14" y="306.00" xlink:href="#hd"/>
<use x="99.14" y="306.00" xlink:href="#sh0"/>
<path d="M104.64 306.00v32.40" class="stroke"/>
<use x="122.34" y="309.00" xlink:href="#hd"/>
<path d="M118.84 309.00v28.30" class="stroke"/>
<use x="161.34" y="306.00" xlink:href="#hd"/>
<use x="152.34" y="306.00" xlink:href="#sh0"/>
<path d="M157.84 306.00v25.00" class="stroke"/>
<use x="161.34" y="312.00" xlink:href="#hd"/>
<use x="222.24" y="312.00" xlink:href="#r8"/>
<use x="261.54" y="318.00" xlink:href="#hd"/>
<path d="M265.04 318.00v-25.00" class="stroke"/>
<use x="261.54" y="312.00" xlink:href="#hd"/>
<use x="309.84" y="318.00" xlink:href="#hd"/>
<path d="M313.34 318.00v-25.00" class="stroke"/>
<path class="fill"
	d="M313.34 293.00c0.6 5.6 9.6 9 5.6 18.4
	1.6 -6 -1.3 -11.6 -5.6 -12.8
"/>
<use x="309.84" y="312.00" xlink:href="#hd"/>
<path class="fill"
	d="M335.54 337.20l72.10 0.00v-3.20l-72.10 -0.00"/>
<path class="fill"
	d="M335.84 332.20l71.40 0.00v-3.20l-71.40 -0.00"/>
<use x="339.34" y="315.00" xlink:href="#hd"/>
<path d="M335.84 315.00v21.20" class="stroke"/>
<use x="353.64" y="309.00" xlink:href="#hd"/>
<path d="M350.14 309.00v27.20" class="stroke"/>
<use x="367.94" y="303.00" xlink:href="#hd"/>
<path d="M364.44 303.00v33.20" class="stroke"/>
<use x="382.24" y="309.00" xlink:href="#hd"/>
<path d="M378.74 309.00v27.20" class="stroke"/>
<use x="396.54" y="294.00" xlink:href="#hl"/>
<use x="396.54" y="294.00" xlink:href="#hd"/>
<path d="M393.04 294.00v42.20" class="stroke"/>
<use x="410.84" y="315.00" xlink:href="#hd"/>
<path d="M407.34 315.00v21.20" class="stroke"/>
<path class="fill"
	d="M438.94 283.70l29.30 8.70v3.20l-29.30 -8.70"/>
<use x="435.84" y="303.00" xlink:href="#hd"/>
<path d="M439.34 303.00v-18.20" class="stroke"/>
<use x="464.34" y="324.00" xlink:href="#hd"/>
<path d="M467.84 324.00v-30.70" class="stroke"/>
<use x="492.94" y="312.00" xlink:href="#r8"/>
<path class="fill"
	d="M517.64 331.90l72.10 0.00v-3.20l-72.10 -0.00"/>
<path class="fill"
	d="M518.04 326.90l71.40 0.00v-3.20l-71.40 -0.00"/>
<use x="521.54" y="309.00" xlink:href="#hd"/>
<path d="M518.04 309.00v21.90" class="stroke"/>
<use x="521.54" y="315.00" xlink:href="#hd"/>
<use x="535.74" y="303.00" xlink:href="#hd"/>
<path d="M532.24 303.00v27.90" class="stroke"/>
<use x="550.04" y="309.00" xlink:href="#hd"/>
<path d="M546.54 309.00v21.90" class="stroke"/>
<use x="550.04" y="315.00" xlink:href="#hd"/>
<use x="564.34" y="303.00" xlink:href="#hd"/>
<path d="M560.84 303.00v27.90" class="stroke"/>
<use x="578.64" y="309.00" xlink:href="#hd"/>
<path d="M575.14 309.00v21.90" class="stroke"/>
<use x="578.64" y="315.00" xlink:href="#hd"/>
<use x="592.94" y="303.00" xlink:href="#hd"/>
<path d="M589.44 303.00v27.90" class="stroke"/>
<path class="fill"
	d="M614.14 331.90l72.10 0.00v-3.20l-72.10 -0.00"/>
<path class="fill"
	d="M614.44 326.90l71.40 0.00v-3.20l-71.40 -0.00"/>
<use x="617.94" y="309.00" xlink:href="#hd"/>
<path d="M614.44 309.00v21.90" class="stroke"/>
<use x="617.94" y="315.00" xlink:href="#hd"/>
<use x="632.24" y="303.00" xlink:href="#hd"/>
<path d="M628.74 303.00v27.90" class="stroke"/>
<use x="646.54" y="309.00" xlink:href="#hd"/>
<path d="M643.04 309.00v21.90" class="stroke"/>
<use x="646.54" y="315.00" xlink:href="#hd"/>
<use x="660.84" y="303.00" xlink:href="#hd"/>
<path d="M657.34 303.00v27.90" class="stroke"/>
<use x="675.04" y="309.00" xlink:href="#hd"/>
<path d="M671.54 309.00v21.90" class="stroke"/>
<use x="675.04" y="315.00" xlink:href="#hd"/>
<use x="689.34" y="303.00" xlink:href="#hd"/>
<path d="M685.84 303.00v27.90" class="stroke"/>
<use x="714.34" y="306.00" xlink:href="#hd"/>
<path d="M710.84 306.00v21.00" class="stroke"/>
<use x="762.74" y="303.00" xlink:href="#hd"/>
<path d="M759.24 303.00v21.00" class="stroke"/>
<path class="fill"
	d="M759.24 324.00c0.6 -5.6 9.6 -9 5.6 -18.4
	1.6 6 -1.3 11.6 -5.6 12.8
"/>
<path class="fill"
	d="M805.14 295.70l40.20 9.60v3.20l-40.20 -9.60"/>
<use x="802.04" y="315.00" xlink:href="#hd"/>
<path d="M805.54 315.00v-18.20" class="stroke"/>
<use x="821.74" y="324.00" xlink:href="#hd"/>
<path d="M825.24 324.00v-22.50" class="stroke"/>
<use x="841.54" y="330.00" xlink:href="#hl"/>
<use x="841.54" y="336.00" xlink:href="#hl"/>
<use x="841.54" y="336.00" xlink:href="#hd"/>
<path d="M845.04 336.00v-29.80" class="stroke"/>
</g>
</svg>
