<?xml version="1.0" standalone="no"?>
<!DOCTYPE svg PUBLIC "-//W3C//DTD SVG 1.1//EN"
	"http://www.w3.org/Graphics/SVG/1.1/DTD/svg11.dtd">
<svg xmlns="http://www.w3.org/2000/svg" version="1.1"
	xmlns:xlink="http://www.w3.org/1999/xlink"
	color="black"
	width="757.10px" height="297.27px">
<style type="text/css">
.fill {fill: currentColor}
.stroke {stroke: currentColor; fill: none}
text{white-space: pre}
</style>
<title>./K516f-5-8-3-7-8-5-6-11-10-12-11-7-7-10-2-8.abc (2668) tune 1</title>
<!-- Creator: abcm2ps-8.13.8 -->
<!-- CreationDate: Sep  7, 2017 11:19 -->
<!-- CommandLine: ./K516f-5-8-3-7-8-5-6-11-10-12-11-7-7-10-2-8.abc -O ./K516f-5-8-3-7-8-5-6-11-10-12-11-7-7-10-2-8.svg -g -->
<rect width="100%" height="100%" fill="white"/>
<g stroke-width="0.70" transform="scale(0.867)">
<!-- title: 5-8-3-7-8-5-6-11-10-12-11-7-7-10-2-8 -->
</g>
<g stroke-width="0.70" transform="scale(0.867)" font-family="Times" font-size="20.00">
<text x="436.84" y="22.00" text-anchor="middle">5-8-3-7-8-5-6-11-10-12-11-7-7-10-2-8</text>
</g>
<g stroke-width="0.70" transform="scale(0.867)" font-family="Times" font-size="20.00">
<!-- subtitle: $1K.516f::40:60:128:167:99:2:36:33:65:20:31:29:101:38:109:172::$0 -->
</g>
<g stroke-width="0.70" transform="scale(0.867)" font-family="Courier" font-size="8.00" font-weight="bold">
<text x="436.84" y="41.80" text-anchor="middle">K.516f::40:60:128:167:99:2:36:33:65:20:31:29:101:38:109:172::</text>
</g>
<g stroke-width="0.70" transform="scale(0.867)" font-family="Courier" font-size="8.00" font-weight="bold">
<!-- subtitle: $1Perm. No.: 26687201169314$0 -->
<text x="436.84" y="60.80" text-anchor="middle">Perm. No.: 26687201169314</text>
</g>
<g stroke-width="0.70" transform="scale(0.607)" font-family="Courier" font-size="8.00" font-weight="bold">
<defs>
<ellipse id="hd" rx="4.1" ry="2.9"
	transform="rotate(-20)" class="fill"/>
</defs>
<use x="103.06" y="121.29" xlink:href="#hd"/>
<path d="M106.56 121.29v-21.00" class="stroke"/>
<path class="fill"
	d="M106.56 100.29c0.6 5.6 9.6 9 5.6 18.4
	1.6 -6 -1.3 -11.6 -5.6 -12.8
"/>
</g>
<g stroke-width="0.70" transform="scale(0.867)" font-family="Times" font-size="15.00" font-weight="bold">
<text x="81.24" y="87.00">= 111</text>
<path class="stroke" stroke-width="1"
	d="M11.54 183.00v-82.00"/>
<path class="fill"
	d="M6.54 98.00
	c10.5 1 12 -4.5 12 -3.5c0 1 -3.5 5.5 -8.5 5.5
	v84.00
	c5 0 8.5 4.5 8.5 5.5c0 1 -1.5 -4.5 -12 -3.5"/>
<defs>
<g id="rdots" class="fill">
	<circle cx="0" cy="-9" r="1.2"/>
	<circle cx="0" cy="-15" r="1.2"/>
</g>
</defs>
<use x="70.54" y="125.00" xlink:href="#rdots"/>
<path class="stroke" stroke-width="1"
	d="M66.54 125.00v-24.00"/>
<path class="stroke" stroke-width="3"
	d="M62.04 125.00v-24.00"/>
<use x="70.54" y="183.00" xlink:href="#rdots"/>
<path class="stroke" stroke-width="1"
	d="M66.54 183.00v-58.00"/>
<path class="stroke" stroke-width="3"
	d="M62.04 183.00v-58.00"/>
<path class="stroke" stroke-width="1"
	d="M183.64 125.00v-24.00"/>
<path class="stroke" stroke-width="1"
	d="M183.64 183.00v-58.00"/>
<path class="stroke" stroke-width="1"
	d="M285.64 125.00v-24.00"/>
<path class="stroke" stroke-width="1"
	d="M285.64 183.00v-58.00"/>
<path class="stroke" stroke-width="1"
	d="M366.04 125.00v-24.00"/>
<path class="stroke" stroke-width="1"
	d="M366.04 183.00v-58.00"/>
<path class="stroke" stroke-width="1"
	d="M456.54 125.00v-24.00"/>
<path class="stroke" stroke-width="1"
	d="M456.54 183.00v-58.00"/>
<path class="stroke" stroke-width="1"
	d="M541.94 125.00v-24.00"/>
<path class="stroke" stroke-width="1"
	d="M541.94 183.00v-58.00"/>
<path class="stroke" stroke-width="1"
	d="M644.14 125.00v-24.00"/>
<path class="stroke" stroke-width="1"
	d="M644.14 183.00v-58.00"/>
<path class="stroke" stroke-width="1"
	d="M757.14 125.00v-24.00"/>
<path class="stroke" stroke-width="1"
	d="M757.14 183.00v-58.00"/>
<path class="stroke" stroke-width="3"
	d="M860.54 125.00v-24.00"/>
<path class="stroke" stroke-width="1"
	d="M856.04 125.00v-24.00"/>
<use x="852.04" y="125.00" xlink:href="#rdots"/>
<path class="stroke" stroke-width="3"
	d="M860.54 183.00v-58.00"/>
<path class="stroke" stroke-width="1"
	d="M856.04 183.00v-58.00"/>
<use x="852.04" y="183.00" xlink:href="#rdots"/>
<path d="m11.54 125.00
	h850.50
	M11.54 119.00
	h850.50
	M11.54 113.00
	h850.50
	M11.54 107.00
	h850.50
	M11.54 101.00
	h850.50
	" class="stroke"/>
<path d="m11.54 183.00
	h850.50
	M11.54 177.00
	h850.50
	M11.54 171.00
	h850.50
	M11.54 165.00
	h850.50
	M11.54 159.00
	h850.50
	" class="stroke"/>
</g>
<g stroke-width="0.70" transform="scale(0.867)" font-family="Times" font-size="13.00">
<text x="761.14" y="86.40">1</text>
<path class="stroke"
	d="M757.14 75.00m0 20v-20h96.90v20"/>
<defs>
<path id="utclef" class="fill" d="m-50 -90
	c-72 -41 -72 -158 52 -188
	150 -10 220 188 90 256
	-114 52 -275 0 -293 -136
	-15 -181 93 -229 220 -334
	88 -87 79 -133 62 -210
	-51 33 -94 105 -89 186
	17 267 36 374 49 574
	6 96 -19 134 -77 135
	-80 1 -126 -93 -61 -133
	85 -41 133 101 31 105
	23 17 92 37 90 -92
	-10 -223 -39 -342 -50 -617
	0 -90 0 -162 96 -232
	56 72 63 230 22 289
	-74 106 -257 168 -255 316
	9 153 148 185 252 133
	86 -65 29 -192 -80 -176
	-71 12 -105 67 -59 124"/>
<use id="tclef" transform="translate(0,6) scale(0.045)"
	xlink:href="#utclef"/>
</defs>
<use x="23.54" y="119.00" xlink:href="#tclef"/>
<g font-family="serif" font-size="16" font-weight="bold" font-style="normal"
	transform="translate(42.04,124.50) scale(1.2,1)">
	<text text-anchor="middle">8</text>
	<text y="-12" text-anchor="middle">3</text>
</g>
<path class="fill"
	d="M81.24 141.20l85.90 0.00v-3.20l-85.90 -0.00"/>
<path class="fill"
	d="M81.54 136.20l85.20 0.00v-3.20l-85.20 -0.00"/>
<use x="85.04" y="110.00" xlink:href="#hd"/>
<path d="M81.54 110.00v30.20" class="stroke"/>
<use x="102.04" y="113.00" xlink:href="#hd"/>
<path d="M98.54 113.00v27.20" class="stroke"/>
<use x="119.14" y="110.00" xlink:href="#hd"/>
<path d="M115.64 110.00v30.20" class="stroke"/>
<use x="136.14" y="104.00" xlink:href="#hd"/>
<path d="M132.64 104.00v36.20" class="stroke"/>
<use x="153.24" y="119.00" xlink:href="#hd"/>
<path d="M149.74 119.00v21.20" class="stroke"/>
<use x="170.24" y="110.00" xlink:href="#hd"/>
<path d="M166.74 110.00v30.20" class="stroke"/>
<path class="fill"
	d="M193.24 123.00l75.90 9.30v-3.20l-75.90 -9.30"/>
<path class="fill"
	d="M217.64 121.00l51.10 6.20v-3.20l-51.10 -6.20"/>
<use x="197.14" y="98.00" xlink:href="#hd"/>
<path d="M193.64 98.00v24.00" class="stroke"/>
<use x="221.14" y="101.00" xlink:href="#hd"/>
<path d="M217.64 101.00v24.00" class="stroke"/>
<use x="238.24" y="104.00" xlink:href="#hd"/>
<path d="M234.74 104.00v23.00" class="stroke"/>
<use x="255.24" y="107.00" xlink:href="#hd"/>
<path d="M251.74 107.00v22.10" class="stroke"/>
<use x="272.34" y="110.00" xlink:href="#hd"/>
<path d="M268.84 110.00v21.20" class="stroke"/>
<path class="fill"
	d="M295.34 132.20l48.80 -6.60v-3.20l-48.80 6.60"/>
<use x="299.14" y="113.00" xlink:href="#hd"/>
<path d="M295.64 113.00v18.20" class="stroke"/>
<use x="323.24" y="107.00" xlink:href="#hd"/>
<path d="M319.74 107.00v20.90" class="stroke"/>
<use x="347.24" y="98.00" xlink:href="#hd"/>
<path d="M343.74 98.00v26.70" class="stroke"/>
<path class="fill"
	d="M375.74 133.00l58.80 0.00v-3.20l-58.80 -0.00"/>
<path class="fill"
	d="M400.14 128.00l17.00 0.00v-3.20l-17.00 -0.00"/>
<use x="379.54" y="110.00" xlink:href="#hd"/>
<path d="M376.04 110.00v21.90" class="stroke"/>
<use x="403.64" y="110.00" xlink:href="#hd"/>
<path d="M400.14 110.00v21.90" class="stroke"/>
<use x="420.64" y="107.00" xlink:href="#hd"/>
<path d="M417.14 107.00v24.90" class="stroke"/>
<use x="437.74" y="104.00" xlink:href="#hd"/>
<path d="M434.24 104.00v27.90" class="stroke"/>
<path class="fill"
	d="M471.14 123.00l48.80 3.20v-3.20l-48.80 -3.20"/>
<use x="475.04" y="101.00" xlink:href="#hd"/>
<defs>
<path id="usharp" class="fill" d="
	m136 -702
	v890
	h32
	v-890
	m128 840
	h32
	v-888
	h-32
	m-232 286
	v116
	l338 -96
	v-116
	m-338 442
	v116
	l338 -98
	v-114"/>
<use id="sh0" transform="translate(-4,5) scale(0.018)"
	xlink:href="#usharp"/>
</defs>
<use x="466.04" y="101.00" xlink:href="#sh0"/>
<path d="M471.54 101.00v21.10" class="stroke"/>
<defs>
<path id="hl" class="stroke" d="m-6 0h12"/>
</defs>
<use x="499.04" y="95.00" xlink:href="#hl"/>
<use x="499.04" y="95.00" xlink:href="#hd"/>
<path d="M495.54 95.00v28.60" class="stroke"/>
<use x="523.14" y="107.00" xlink:href="#hd"/>
<path d="M519.64 107.00v18.20" class="stroke"/>
<path class="fill"
	d="M558.64 85.30l76.00 -7.60v3.20l-76.00 7.60"/>
<path class="fill"
	d="M583.14 87.90l51.10 -5.10v3.20l-51.10 5.10"/>
<use x="555.44" y="116.00" xlink:href="#hd"/>
<path d="M558.94 116.00v-29.70" class="stroke"/>
<use x="579.64" y="122.00" xlink:href="#hd"/>
<use x="570.64" y="122.00" xlink:href="#sh0"/>
<path d="M583.14 122.00v-38.10" class="stroke"/>
<use x="596.74" y="119.00" xlink:href="#hd"/>
<path d="M600.24 119.00v-36.80" class="stroke"/>
<use x="613.74" y="113.00" xlink:href="#hd"/>
<path d="M617.24 113.00v-32.50" class="stroke"/>
<use x="630.84" y="98.00" xlink:href="#hd"/>
<path d="M634.34 98.00v-19.20" class="stroke"/>
<path class="fill"
	d="M653.84 138.20l86.90 -8.50v-3.20l-86.90 8.50"/>
<path class="fill"
	d="M654.14 133.20l86.20 -8.40v-3.20l-86.20 8.40"/>
<use x="657.64" y="116.00" xlink:href="#hd"/>
<path d="M654.14 116.00v21.20" class="stroke"/>
<use x="674.64" y="104.00" xlink:href="#hd"/>
<path d="M671.14 104.00v31.50" class="stroke"/>
<use x="691.74" y="107.00" xlink:href="#hd"/>
<path d="M688.24 107.00v26.90" class="stroke"/>
<use x="708.74" y="98.00" xlink:href="#hd"/>
<path d="M705.24 98.00v34.20" class="stroke"/>
<use x="726.74" y="101.00" xlink:href="#hd"/>
<use x="717.74" y="101.00" xlink:href="#sh0"/>
<path d="M723.24 101.00v29.40" class="stroke"/>
<use x="743.84" y="95.00" xlink:href="#hl"/>
<use x="743.84" y="95.00" xlink:href="#hd"/>
<path d="M740.34 95.00v33.80" class="stroke"/>
<use x="770.64" y="98.00" xlink:href="#hd"/>
<path d="M767.14 98.00v40.00" class="stroke"/>
<use x="770.64" y="119.00" xlink:href="#hd"/>
<use x="770.64" y="113.00" xlink:href="#hd"/>
<use x="770.64" y="107.00" xlink:href="#hd"/>
<defs>
<path id="r8e" class="fill" d="m 0 0
	c-1.5 1.5 -2.4 2 -3.6 2
	2.4 -2.8 -2.8 -4 -2.8 -1.2
	c0 2.7 4.3 2.4 5.9 0.6"/>
<g id="r8">
	<path d="m3.3 -4l-3.4 9.6" class="stroke"/>
	<use x="3.4" y="-4" xlink:href="#r8e"/>
</g>
</defs>
<use x="829.74" y="113.00" xlink:href="#r8"/>
<defs>
<path id="ubclef" class="fill" d="m-200 -87
	c124 -35 222 -78 254 -236
	43 -228 -167 -246 -192 -103
	59 -80 157 22 92 78
	-62 47 -115 -22 -106 -88
	21 -141 270 -136 274 52
	-1 175 -106 264 -322 297
	m357 -250
	c0 -36 51 -34 51 0
	0 37 -51 36 -51 0
	m-2 -129
	c0 -36 51 -34 51 0
	0 38 -51 37 -51 0"/>
<use id="bclef" transform="translate(0,18) scale(0.045)"
	xlink:href="#ubclef"/>
</defs>
<use x="23.54" y="165.00" xlink:href="#bclef"/>
<g font-family="serif" font-size="16" font-weight="bold" font-style="normal"
	transform="translate(42.04,182.50) scale(1.2,1)">
	<text text-anchor="middle">8</text>
	<text y="-12" text-anchor="middle">3</text>
</g>
<use x="85.04" y="168.00" xlink:href="#hd"/>
<path d="M81.54 168.00v25.00" class="stroke"/>
<use x="85.04" y="174.00" xlink:href="#hd"/>
<use x="153.24" y="171.00" xlink:href="#r8"/>
<use x="197.14" y="168.00" xlink:href="#hd"/>
<path d="M193.64 168.00v25.00" class="stroke"/>
<use x="197.14" y="174.00" xlink:href="#hd"/>
<use x="255.24" y="171.00" xlink:href="#r8"/>
<use x="299.14" y="183.00" xlink:href="#hd"/>
<path d="M302.64 183.00v-21.00" class="stroke"/>
<use x="347.24" y="171.00" xlink:href="#r8"/>
<use x="379.54" y="168.00" xlink:href="#hd"/>
<path d="M376.04 168.00v25.00" class="stroke"/>
<use x="379.54" y="174.00" xlink:href="#hd"/>
<use x="437.74" y="171.00" xlink:href="#r8"/>
<use x="475.04" y="159.00" xlink:href="#hd"/>
<path d="M471.54 159.00v34.00" class="stroke"/>
<use x="475.04" y="174.00" xlink:href="#hd"/>
<use x="523.14" y="159.00" xlink:href="#hd"/>
<path d="M519.64 159.00v34.00" class="stroke"/>
<path class="fill"
	d="M519.64 193.00c0.6 -5.6 9.6 -9 5.6 -18.4
	1.6 6 -1.3 11.6 -5.6 12.8
"/>
<use x="523.14" y="174.00" xlink:href="#hd"/>
<use x="555.44" y="162.00" xlink:href="#hd"/>
<path d="M551.94 162.00v34.00" class="stroke"/>
<use x="555.44" y="177.00" xlink:href="#hd"/>
<use x="613.74" y="171.00" xlink:href="#r8"/>
<path class="fill"
	d="M660.84 147.70l69.80 8.30v3.20l-69.80 -8.30"/>
<use x="657.64" y="174.00" xlink:href="#hd"/>
<path d="M661.14 174.00v-25.30" class="stroke"/>
<use x="691.74" y="171.00" xlink:href="#hd"/>
<path d="M695.24 171.00v-18.20" class="stroke"/>
<use x="726.74" y="189.00" xlink:href="#hl"/>
<use x="726.74" y="192.00" xlink:href="#hd"/>
<path d="M730.24 192.00v-35.00" class="stroke"/>
<path class="fill"
	d="M766.84 202.20l76.80 0.00v-3.20l-76.80 -0.00"/>
<path class="fill"
	d="M791.24 197.20l52.10 0.00v-3.20l-52.10 -0.00"/>
<use x="770.64" y="183.00" xlink:href="#hd"/>
<path d="M767.14 183.00v18.20" class="stroke"/>
<use x="794.74" y="162.00" xlink:href="#hd"/>
<path d="M791.24 162.00v39.20" class="stroke"/>
<use x="812.74" y="165.00" xlink:href="#hd"/>
<defs>
<path id="unat" class="fill" d="
	m96 -750
	h-32
	v716
	l32 -8
	182 -54
	v282
	h32
	v-706
	l-34 10
	-180 50
	v-290
	m0 592
	v-190
	l182 -52
	v188"/>
<use id="nt0" transform="translate(-3,5) scale(0.018)"
	xlink:href="#unat"/>
</defs>
<use x="803.74" y="165.00" xlink:href="#nt0"/>
<path d="M809.24 165.00v36.20" class="stroke"/>
<use x="829.74" y="168.00" xlink:href="#hd"/>
<path d="M826.24 168.00v33.20" class="stroke"/>
<use x="846.84" y="171.00" xlink:href="#hd"/>
<path d="M843.34 171.00v30.20" class="stroke"/>
</g>
<g stroke-width="0.70" transform="scale(0.867)" font-family="Times" font-size="13.00">
<path class="stroke" stroke-width="1"
	d="M11.54 320.00v-86.00"/>
<path class="fill"
	d="M6.54 231.00
	c10.5 1 12 -4.5 12 -3.5c0 1 -3.5 5.5 -8.5 5.5
	v88.00
	c5 0 8.5 4.5 8.5 5.5c0 1 -1.5 -4.5 -12 -3.5"/>
<use x="144.74" y="258.00" xlink:href="#rdots"/>
<path class="stroke" stroke-width="1"
	d="M140.74 258.00v-24.00"/>
<path class="stroke" stroke-width="3"
	d="M136.24 258.00v-24.00"/>
<use x="144.74" y="320.00" xlink:href="#rdots"/>
<path class="stroke" stroke-width="1"
	d="M140.74 320.00v-62.00"/>
<path class="stroke" stroke-width="3"
	d="M136.24 320.00v-62.00"/>
<path class="stroke" stroke-width="1"
	d="M232.84 258.00v-24.00"/>
<path class="stroke" stroke-width="1"
	d="M232.84 320.00v-62.00"/>
<path class="stroke" stroke-width="1"
	d="M313.34 258.00v-24.00"/>
<path class="stroke" stroke-width="1"
	d="M313.34 320.00v-62.00"/>
<path class="stroke" stroke-width="1"
	d="M396.04 258.00v-24.00"/>
<path class="stroke" stroke-width="1"
	d="M396.04 320.00v-62.00"/>
<path class="stroke" stroke-width="1"
	d="M485.94 258.00v-24.00"/>
<path class="stroke" stroke-width="1"
	d="M485.94 320.00v-62.00"/>
<path class="stroke" stroke-width="1"
	d="M586.24 258.00v-24.00"/>
<path class="stroke" stroke-width="1"
	d="M586.24 320.00v-62.00"/>
<path class="stroke" stroke-width="1"
	d="M686.54 258.00v-24.00"/>
<path class="stroke" stroke-width="1"
	d="M686.54 320.00v-62.00"/>
<path class="stroke" stroke-width="1"
	d="M786.94 258.00v-24.00"/>
<path class="stroke" stroke-width="1"
	d="M786.94 320.00v-62.00"/>
<path class="stroke" stroke-width="3"
	d="M860.54 258.00v-24.00"/>
<path class="stroke" stroke-width="1"
	d="M856.04 258.00v-24.00"/>
<use x="852.04" y="258.00" xlink:href="#rdots"/>
<path class="stroke" stroke-width="3"
	d="M860.54 320.00v-62.00"/>
<path class="stroke" stroke-width="1"
	d="M856.04 320.00v-62.00"/>
<use x="852.04" y="320.00" xlink:href="#rdots"/>
<path d="m11.54 258.00
	h850.50
	M11.54 252.00
	h850.50
	M11.54 246.00
	h850.50
	M11.54 240.00
	h850.50
	M11.54 234.00
	h850.50
	" class="stroke"/>
<path d="m11.54 320.00
	h850.50
	M11.54 314.00
	h850.50
	M11.54 308.00
	h850.50
	M11.54 302.00
	h850.50
	M11.54 296.00
	h850.50
	" class="stroke"/>
<text x="47.54" y="219.40">2</text>
<path class="stroke"
	d="M43.54 208.00m0 20v-20h90.20v20"/>
<use x="23.54" y="252.00" xlink:href="#tclef"/>
<use x="56.04" y="231.00" xlink:href="#hd"/>
<path d="M52.54 231.00v40.00" class="stroke"/>
<use x="56.04" y="252.00" xlink:href="#hd"/>
<use x="56.04" y="246.00" xlink:href="#hd"/>
<use x="56.04" y="240.00" xlink:href="#hd"/>
<use x="110.14" y="246.00" xlink:href="#r8"/>
<path class="fill"
	d="M160.44 272.60l52.50 -4.60v-3.20l-52.50 4.60"/>
<path class="fill"
	d="M160.74 267.50l15.10 -1.30v-3.20l-15.10 1.30"/>
<use x="164.24" y="240.00" xlink:href="#hd"/>
<path d="M160.74 240.00v31.50" class="stroke"/>
<use x="179.34" y="249.00" xlink:href="#hd"/>
<path d="M175.84 249.00v21.20" class="stroke"/>
<use x="194.34" y="240.00" xlink:href="#hd"/>
<path d="M190.84 240.00v28.90" class="stroke"/>
<use x="216.04" y="234.00" xlink:href="#hd"/>
<use x="207.04" y="234.00" xlink:href="#sh0"/>
<path d="M212.54 234.00v33.00" class="stroke"/>
<path class="fill"
	d="M241.44 260.00l52.00 0.00v-3.20l-52.00 -0.00"/>
<path class="fill"
	d="M262.84 255.00l15.20 0.00v-3.20l-15.20 -0.00"/>
<use x="245.34" y="231.00" xlink:href="#hd"/>
<path d="M241.84 231.00v28.00" class="stroke"/>
<use x="266.34" y="228.00" xlink:href="#hl"/>
<use x="266.34" y="225.00" xlink:href="#hd"/>
<path d="M262.84 225.00v34.00" class="stroke"/>
<use x="281.54" y="228.00" xlink:href="#hl"/>
<use x="281.54" y="222.00" xlink:href="#hl"/>
<use x="281.54" y="219.00" xlink:href="#hd"/>
<path d="M278.04 219.00v40.00" class="stroke"/>
<use x="296.64" y="240.00" xlink:href="#hd"/>
<path d="M293.14 240.00v19.00" class="stroke"/>
<path class="fill"
	d="M322.04 265.50l30.80 5.80v-3.20l-30.80 -5.80"/>
<path class="fill"
	d="M322.34 260.60l15.10 2.80v-3.20l-15.10 -2.80"/>
<use x="325.84" y="237.00" xlink:href="#hd"/>
<path d="M322.34 237.00v27.60" class="stroke"/>
<use x="340.94" y="243.00" xlink:href="#hd"/>
<path d="M337.44 243.00v24.40" class="stroke"/>
<use x="355.94" y="252.00" xlink:href="#hd"/>
<path d="M352.44 252.00v18.20" class="stroke"/>
<use x="379.34" y="237.00" xlink:href="#hd"/>
<path d="M375.84 237.00v21.00" class="stroke"/>
<path class="fill"
	d="M375.84 258.00c0.6 -5.6 9.6 -9 5.6 -18.4
	1.6 6 -1.3 11.6 -5.6 12.8
"/>
<path class="fill"
	d="M404.74 266.00l60.90 0.00v-3.20l-60.90 -0.00"/>
<path class="fill"
	d="M405.04 261.00l45.20 0.00v-3.20l-45.20 -0.00"/>
<use x="408.54" y="246.00" xlink:href="#hd"/>
<path d="M405.04 246.00v18.90" class="stroke"/>
<use x="423.64" y="240.00" xlink:href="#hd"/>
<path d="M420.14 240.00v24.90" class="stroke"/>
<use x="438.74" y="231.00" xlink:href="#hd"/>
<path d="M435.24 231.00v33.90" class="stroke"/>
<use x="453.74" y="240.00" xlink:href="#hd"/>
<path d="M450.24 240.00v24.90" class="stroke"/>
<use x="468.84" y="246.00" xlink:href="#hd"/>
<path d="M465.34 246.00v18.90" class="stroke"/>
<path class="fill"
	d="M494.54 263.50l76.00 -6.30v-3.20l-76.00 6.30"/>
<path class="fill"
	d="M494.94 258.40l75.30 -6.20v-3.20l-75.30 6.20"/>
<use x="498.44" y="237.00" xlink:href="#hd"/>
<path d="M494.94 237.00v25.40" class="stroke"/>
<use x="513.44" y="240.00" xlink:href="#hd"/>
<path d="M509.94 240.00v21.20" class="stroke"/>
<use x="528.54" y="237.00" xlink:href="#hd"/>
<path d="M525.04 237.00v23.00" class="stroke"/>
<use x="543.64" y="231.00" xlink:href="#hd"/>
<path d="M540.14 231.00v27.70" class="stroke"/>
<use x="558.64" y="228.00" xlink:href="#hl"/>
<use x="558.64" y="222.00" xlink:href="#hl"/>
<use x="558.64" y="222.00" xlink:href="#hd"/>
<path d="M555.14 222.00v35.50" class="stroke"/>
<use x="573.74" y="231.00" xlink:href="#hd"/>
<path d="M570.24 231.00v25.20" class="stroke"/>
<path class="fill"
	d="M594.94 272.80l60.90 -3.30v-3.20l-60.90 3.30"/>
<use x="598.74" y="243.00" xlink:href="#hd"/>
<path d="M595.24 243.00v28.80" class="stroke"/>
<use x="628.84" y="252.00" xlink:href="#hd"/>
<path d="M625.34 252.00v18.20" class="stroke"/>
<use x="659.04" y="237.00" xlink:href="#hd"/>
<path d="M655.54 237.00v31.60" class="stroke"/>
<path class="fill"
	d="M695.24 266.00l76.00 0.00v-3.20l-76.00 -0.00"/>
<path class="fill"
	d="M695.54 261.00l75.30 0.00v-3.20l-75.30 -0.00"/>
<use x="699.04" y="240.00" xlink:href="#hd"/>
<path d="M695.54 240.00v24.90" class="stroke"/>
<use x="714.14" y="234.00" xlink:href="#hd"/>
<path d="M710.64 234.00v30.90" class="stroke"/>
<use x="729.24" y="240.00" xlink:href="#hd"/>
<path d="M725.74 240.00v24.90" class="stroke"/>
<use x="744.24" y="234.00" xlink:href="#hd"/>
<path d="M740.74 234.00v30.90" class="stroke"/>
<use x="759.34" y="246.00" xlink:href="#hd"/>
<path d="M755.84 246.00v18.90" class="stroke"/>
<use x="774.44" y="240.00" xlink:href="#hd"/>
<path d="M770.94 240.00v24.90" class="stroke"/>
<use x="799.44" y="243.00" xlink:href="#hd"/>
<path d="M795.94 243.00v21.00" class="stroke"/>
<use x="841.54" y="246.00" xlink:href="#r8"/>
<use x="23.54" y="302.00" xlink:href="#bclef"/>
<path class="fill"
	d="M52.24 339.20l69.90 -5.10v-3.20l-69.90 5.10"/>
<path class="fill"
	d="M73.64 332.70l48.10 -3.50v-3.20l-48.10 3.50"/>
<use x="56.04" y="320.00" xlink:href="#hd"/>
<path d="M52.54 320.00v18.20" class="stroke"/>
<use x="77.14" y="293.00" xlink:href="#hd"/>
<path d="M73.64 293.00v43.70" class="stroke"/>
<use x="92.14" y="299.00" xlink:href="#hd"/>
<path d="M88.64 299.00v36.60" class="stroke"/>
<use x="110.14" y="302.00" xlink:href="#hd"/>
<use x="101.14" y="302.00" xlink:href="#sh0"/>
<path d="M106.64 302.00v32.30" class="stroke"/>
<use x="125.24" y="305.00" xlink:href="#hd"/>
<path d="M121.74 305.00v28.20" class="stroke"/>
<use x="164.24" y="302.00" xlink:href="#hd"/>
<use x="155.24" y="302.00" xlink:href="#sh0"/>
<path d="M167.74 302.00v-21.00" class="stroke"/>
<use x="216.04" y="308.00" xlink:href="#r8"/>
<use x="245.34" y="314.00" xlink:href="#hd"/>
<path d="M248.84 314.00v-21.00" class="stroke"/>
<use x="296.64" y="308.00" xlink:href="#r8"/>
<use x="325.84" y="299.00" xlink:href="#hd"/>
<path d="M322.34 299.00v31.00" class="stroke"/>
<use x="325.84" y="311.00" xlink:href="#hd"/>
<use x="379.34" y="299.00" xlink:href="#hd"/>
<path d="M375.84 299.00v31.00" class="stroke"/>
<path class="fill"
	d="M375.84 330.00c0.6 -5.6 9.6 -9 5.6 -18.4
	1.6 6 -1.3 11.6 -5.6 12.8
"/>
<use x="379.34" y="311.00" xlink:href="#hd"/>
<use x="408.54" y="299.00" xlink:href="#hd"/>
<path d="M405.04 299.00v21.00" class="stroke"/>
<use x="468.84" y="320.00" xlink:href="#hd"/>
<path d="M472.34 320.00v-21.00" class="stroke"/>
<path class="fill"
	d="M472.34 299.00c0.6 5.6 9.6 9 5.6 18.4
	1.6 -6 -1.3 -11.6 -5.6 -12.8
"/>
<use x="498.44" y="299.00" xlink:href="#hd"/>
<path d="M501.94 299.00v-21.00" class="stroke"/>
<use x="558.64" y="305.00" xlink:href="#hd"/>
<path d="M562.14 305.00v-21.00" class="stroke"/>
<path class="fill"
	d="M562.14 284.00c0.6 5.6 9.6 9 5.6 18.4
	1.6 -6 -1.3 -11.6 -5.6 -12.8
"/>
<path class="fill"
	d="M594.94 327.90l76.00 0.00v-3.20l-76.00 -0.00"/>
<path class="fill"
	d="M595.24 322.90l75.30 0.00v-3.20l-75.30 -0.00"/>
<use x="598.74" y="305.00" xlink:href="#hd"/>
<path d="M595.24 305.00v21.90" class="stroke"/>
<use x="598.74" y="311.00" xlink:href="#hd"/>
<use x="613.84" y="299.00" xlink:href="#hd"/>
<path d="M610.34 299.00v27.90" class="stroke"/>
<use x="628.84" y="305.00" xlink:href="#hd"/>
<path d="M625.34 305.00v21.90" class="stroke"/>
<use x="628.84" y="311.00" xlink:href="#hd"/>
<use x="643.94" y="299.00" xlink:href="#hd"/>
<path d="M640.44 299.00v27.90" class="stroke"/>
<use x="659.04" y="305.00" xlink:href="#hd"/>
<path d="M655.54 305.00v21.90" class="stroke"/>
<use x="659.04" y="311.00" xlink:href="#hd"/>
<use x="674.04" y="299.00" xlink:href="#hd"/>
<path d="M670.54 299.00v27.90" class="stroke"/>
<use x="699.04" y="296.00" xlink:href="#hd"/>
<path d="M695.54 296.00v25.00" class="stroke"/>
<use x="699.04" y="302.00" xlink:href="#hd"/>
<use x="759.34" y="290.00" xlink:href="#hl"/>
<use x="759.34" y="287.00" xlink:href="#hd"/>
<path d="M755.84 287.00v31.00" class="stroke"/>
<path class="fill"
	d="M755.84 318.00c0.6 -5.6 9.6 -9 5.6 -18.4
	1.6 6 -1.3 11.6 -5.6 12.8
"/>
<use x="759.34" y="299.00" xlink:href="#hd"/>
<path class="fill"
	d="M802.54 291.70l42.80 9.90v3.20l-42.80 -9.90"/>
<use x="799.44" y="311.00" xlink:href="#hd"/>
<path d="M802.94 311.00v-18.20" class="stroke"/>
<use x="820.44" y="320.00" xlink:href="#hd"/>
<path d="M823.94 320.00v-22.30" class="stroke"/>
<use x="841.54" y="326.00" xlink:href="#hl"/>
<use x="841.54" y="332.00" xlink:href="#hl"/>
<use x="841.54" y="332.00" xlink:href="#hd"/>
<path d="M845.04 332.00v-29.50" class="stroke"/>
<use x="164.24" y="308.00" xlink:href="#hd"/>
<path d="M160.74 308.00v21.00" class="stroke"/>
<use x="498.44" y="311.00" xlink:href="#hd"/>
<path d="M494.94 311.00v21.00" class="stroke"/>
<use x="558.64" y="311.00" xlink:href="#hd"/>
<path d="M555.14 311.00v21.00" class="stroke"/>
<path class="fill"
	d="M555.14 332.00c0.6 -5.6 9.6 -9 5.6 -18.4
	1.6 6 -1.3 11.6 -5.6 12.8
"/>
</g>
</svg>
