<?xml version="1.0" standalone="no"?>
<!DOCTYPE svg PUBLIC "-//W3C//DTD SVG 1.1//EN"
	"http://www.w3.org/Graphics/SVG/1.1/DTD/svg11.dtd">
<svg xmlns="http://www.w3.org/2000/svg" version="1.1"
	xmlns:xlink="http://www.w3.org/1999/xlink"
	color="black"
	width="757.10px" height="294.70px">
<style type="text/css">
.fill {fill: currentColor}
.stroke {stroke: currentColor; fill: none}
text{white-space: pre}
</style>
<title>./K516f-4-5-7-10-7-7-10-5-5-5-6-3-4-3-11-3.abc (3144) tune 1</title>
<!-- Creator: abcm2ps-8.13.8 -->
<!-- CreationDate: Sep  7, 2017 11:19 -->
<!-- CommandLine: ./K516f-4-5-7-10-7-7-10-5-5-5-6-3-4-3-11-3.abc -O ./K516f-4-5-7-10-7-7-10-5-5-5-6-3-4-3-11-3.svg -g -->
<rect width="100%" height="100%" fill="white"/>
<g stroke-width="0.70" transform="scale(0.867)">
<!-- title: 4-5-7-10-7-7-10-5-5-5-6-3-4-3-11-3 -->
</g>
<g stroke-width="0.70" transform="scale(0.867)" font-family="Times" font-size="20.00">
<text x="436.84" y="22.00" text-anchor="middle">4-5-7-10-7-7-10-5-5-5-6-3-4-3-11-3</text>
</g>
<g stroke-width="0.70" transform="scale(0.867)" font-family="Times" font-size="20.00">
<!-- subtitle: $1K.516f::69:17:27:156:154:68:62:100:90:176:64:56:73:18:173:83::$0 -->
</g>
<g stroke-width="0.70" transform="scale(0.867)" font-family="Courier" font-size="8.00" font-weight="bold">
<text x="436.84" y="41.80" text-anchor="middle">K.516f::69:17:27:156:154:68:62:100:90:176:64:56:73:18:173:83::</text>
</g>
<g stroke-width="0.70" transform="scale(0.867)" font-family="Courier" font-size="8.00" font-weight="bold">
<!-- subtitle: $1Perm. No.: 314449546829080$0 -->
<text x="436.84" y="60.80" text-anchor="middle">Perm. No.: 314449546829080</text>
</g>
<g stroke-width="0.70" transform="scale(0.607)" font-family="Courier" font-size="8.00" font-weight="bold">
<defs>
<ellipse id="hd" rx="4.1" ry="2.9"
	transform="rotate(-20)" class="fill"/>
</defs>
<use x="103.06" y="121.29" xlink:href="#hd"/>
<path d="M106.56 121.29v-21.00" class="stroke"/>
<path class="fill"
	d="M106.56 100.29c0.6 5.6 9.6 9 5.6 18.4
	1.6 -6 -1.3 -11.6 -5.6 -12.8
"/>
</g>
<g stroke-width="0.70" transform="scale(0.867)" font-family="Times" font-size="15.00" font-weight="bold">
<text x="81.24" y="87.00">= 111</text>
<path class="stroke" stroke-width="1"
	d="M11.54 184.00v-82.00"/>
<path class="fill"
	d="M6.54 99.00
	c10.5 1 12 -4.5 12 -3.5c0 1 -3.5 5.5 -8.5 5.5
	v84.00
	c5 0 8.5 4.5 8.5 5.5c0 1 -1.5 -4.5 -12 -3.5"/>
<defs>
<g id="rdots" class="fill">
	<circle cx="0" cy="-9" r="1.2"/>
	<circle cx="0" cy="-15" r="1.2"/>
</g>
</defs>
<use x="70.54" y="126.00" xlink:href="#rdots"/>
<path class="stroke" stroke-width="1"
	d="M66.54 126.00v-24.00"/>
<path class="stroke" stroke-width="3"
	d="M62.04 126.00v-24.00"/>
<use x="70.54" y="184.00" xlink:href="#rdots"/>
<path class="stroke" stroke-width="1"
	d="M66.54 184.00v-58.00"/>
<path class="stroke" stroke-width="3"
	d="M62.04 184.00v-58.00"/>
<path class="stroke" stroke-width="1"
	d="M146.64 126.00v-24.00"/>
<path class="stroke" stroke-width="1"
	d="M146.64 184.00v-58.00"/>
<path class="stroke" stroke-width="1"
	d="M251.74 126.00v-24.00"/>
<path class="stroke" stroke-width="1"
	d="M251.74 184.00v-58.00"/>
<path class="stroke" stroke-width="1"
	d="M356.74 126.00v-24.00"/>
<path class="stroke" stroke-width="1"
	d="M356.74 184.00v-58.00"/>
<path class="stroke" stroke-width="1"
	d="M450.84 126.00v-24.00"/>
<path class="stroke" stroke-width="1"
	d="M450.84 184.00v-58.00"/>
<path class="stroke" stroke-width="1"
	d="M560.04 126.00v-24.00"/>
<path class="stroke" stroke-width="1"
	d="M560.04 184.00v-58.00"/>
<path class="stroke" stroke-width="1"
	d="M655.64 126.00v-24.00"/>
<path class="stroke" stroke-width="1"
	d="M655.64 184.00v-58.00"/>
<path class="stroke" stroke-width="1"
	d="M762.74 126.00v-24.00"/>
<path class="stroke" stroke-width="1"
	d="M762.74 184.00v-58.00"/>
<path class="stroke" stroke-width="3"
	d="M860.54 126.00v-24.00"/>
<path class="stroke" stroke-width="1"
	d="M856.04 126.00v-24.00"/>
<use x="852.04" y="126.00" xlink:href="#rdots"/>
<path class="stroke" stroke-width="3"
	d="M860.54 184.00v-58.00"/>
<path class="stroke" stroke-width="1"
	d="M856.04 184.00v-58.00"/>
<use x="852.04" y="184.00" xlink:href="#rdots"/>
<path d="m11.54 126.00
	h850.50
	M11.54 120.00
	h850.50
	M11.54 114.00
	h850.50
	M11.54 108.00
	h850.50
	M11.54 102.00
	h850.50
	" class="stroke"/>
<path d="m11.54 184.00
	h850.50
	M11.54 178.00
	h850.50
	M11.54 172.00
	h850.50
	M11.54 166.00
	h850.50
	M11.54 160.00
	h850.50
	" class="stroke"/>
<path class="fill"
	d="M88.34 95.40c6.40 -2.95 34.30 2.26 40.70 7.60
	v-0.24c-7.62 -7.10 -33.08 -12.31 -40.70 -7.36"/>
</g>
<g stroke-width="0.70" transform="scale(0.867)" font-family="Times" font-size="13.00">
<text x="766.74" y="87.40">1</text>
<path class="stroke"
	d="M762.74 76.00m0 20v-20h91.30v20"/>
<defs>
<path id="utclef" class="fill" d="m-50 -90
	c-72 -41 -72 -158 52 -188
	150 -10 220 188 90 256
	-114 52 -275 0 -293 -136
	-15 -181 93 -229 220 -334
	88 -87 79 -133 62 -210
	-51 33 -94 105 -89 186
	17 267 36 374 49 574
	6 96 -19 134 -77 135
	-80 1 -126 -93 -61 -133
	85 -41 133 101 31 105
	23 17 92 37 90 -92
	-10 -223 -39 -342 -50 -617
	0 -90 0 -162 96 -232
	56 72 63 230 22 289
	-74 106 -257 168 -255 316
	9 153 148 185 252 133
	86 -65 29 -192 -80 -176
	-71 12 -105 67 -59 124"/>
<use id="tclef" transform="translate(0,6) scale(0.045)"
	xlink:href="#utclef"/>
</defs>
<use x="23.54" y="120.00" xlink:href="#tclef"/>
<g font-family="serif" font-size="16" font-weight="bold" font-style="normal"
	transform="translate(42.04,125.50) scale(1.2,1)">
	<text text-anchor="middle">8</text>
	<text y="-12" text-anchor="middle">3</text>
</g>
<path class="fill"
	d="M80.44 122.40l45.40 7.90v-3.20l-45.40 -7.90"/>
<use x="84.34" y="99.00" xlink:href="#hd"/>
<path d="M80.84 99.00v22.40" class="stroke"/>
<use x="106.64" y="105.00" xlink:href="#hd"/>
<path d="M103.14 105.00v20.30" class="stroke"/>
<use x="129.04" y="111.00" xlink:href="#hd"/>
<path d="M125.54 111.00v18.20" class="stroke"/>
<path class="fill"
	d="M155.64 142.20l80.30 0.00v-3.20l-80.30 -0.00"/>
<path class="fill"
	d="M155.94 137.20l79.60 0.00v-3.20l-79.60 -0.00"/>
<use x="159.44" y="111.00" xlink:href="#hd"/>
<path d="M155.94 111.00v30.20" class="stroke"/>
<use x="175.34" y="120.00" xlink:href="#hd"/>
<path d="M171.84 120.00v21.20" class="stroke"/>
<use x="191.34" y="111.00" xlink:href="#hd"/>
<path d="M187.84 111.00v30.20" class="stroke"/>
<use x="207.24" y="105.00" xlink:href="#hd"/>
<path d="M203.74 105.00v36.20" class="stroke"/>
<use x="223.14" y="120.00" xlink:href="#hd"/>
<path d="M219.64 120.00v21.20" class="stroke"/>
<use x="239.04" y="111.00" xlink:href="#hd"/>
<path d="M235.54 111.00v30.20" class="stroke"/>
<path class="fill"
	d="M260.64 130.10l80.30 6.10v-3.20l-80.30 -6.10"/>
<path class="fill"
	d="M261.04 125.10l79.60 6.10v-3.20l-79.60 -6.10"/>
<use x="264.54" y="102.00" xlink:href="#hd"/>
<path d="M261.04 102.00v27.10" class="stroke"/>
<use x="280.44" y="105.00" xlink:href="#hd"/>
<path d="M276.94 105.00v25.30" class="stroke"/>
<use x="296.34" y="102.00" xlink:href="#hd"/>
<path d="M292.84 102.00v29.50" class="stroke"/>
<use x="312.24" y="108.00" xlink:href="#hd"/>
<path d="M308.74 108.00v24.80" class="stroke"/>
<use x="328.14" y="111.00" xlink:href="#hd"/>
<path d="M324.64 111.00v23.00" class="stroke"/>
<use x="344.14" y="114.00" xlink:href="#hd"/>
<path d="M340.64 114.00v21.20" class="stroke"/>
<path class="fill"
	d="M365.74 143.90l64.40 -6.40v-3.20l-64.40 6.40"/>
<path class="fill"
	d="M366.04 138.80l47.80 -4.80v-3.20l-47.80 4.80"/>
<use x="369.54" y="111.00" xlink:href="#hd"/>
<path d="M366.04 111.00v31.80" class="stroke"/>
<use x="385.44" y="120.00" xlink:href="#hd"/>
<path d="M381.94 120.00v21.20" class="stroke"/>
<use x="401.34" y="105.00" xlink:href="#hd"/>
<path d="M397.84 105.00v34.60" class="stroke"/>
<use x="417.34" y="111.00" xlink:href="#hd"/>
<path d="M413.84 111.00v27.00" class="stroke"/>
<use x="433.24" y="99.00" xlink:href="#hd"/>
<path d="M429.74 99.00v37.40" class="stroke"/>
<path class="fill"
	d="M459.84 134.00l84.40 0.00v-3.20l-84.40 -0.00"/>
<path class="fill"
	d="M460.14 129.00l83.80 0.00v-3.20l-83.80 -0.00"/>
<use x="463.64" y="108.00" xlink:href="#hd"/>
<path d="M460.14 108.00v24.90" class="stroke"/>
<use x="481.64" y="111.00" xlink:href="#hd"/>
<defs>
<path id="usharp" class="fill" d="
	m136 -702
	v890
	h32
	v-890
	m128 840
	h32
	v-888
	h-32
	m-232 286
	v116
	l338 -96
	v-116
	m-338 442
	v116
	l338 -98
	v-114"/>
<use id="sh0" transform="translate(-4,5) scale(0.018)"
	xlink:href="#usharp"/>
</defs>
<use x="472.64" y="111.00" xlink:href="#sh0"/>
<path d="M478.14 111.00v21.90" class="stroke"/>
<use x="497.54" y="108.00" xlink:href="#hd"/>
<path d="M494.04 108.00v24.90" class="stroke"/>
<use x="515.54" y="102.00" xlink:href="#hd"/>
<use x="506.54" y="102.00" xlink:href="#sh0"/>
<path d="M512.04 102.00v30.90" class="stroke"/>
<defs>
<path id="hl" class="stroke" d="m-6 0h12"/>
</defs>
<use x="531.54" y="96.00" xlink:href="#hl"/>
<use x="531.54" y="96.00" xlink:href="#hd"/>
<path d="M528.04 96.00v36.90" class="stroke"/>
<use x="547.44" y="102.00" xlink:href="#hd"/>
<path d="M543.94 102.00v30.90" class="stroke"/>
<path class="fill"
	d="M569.04 128.00l70.80 0.00v-3.20l-70.80 -0.00"/>
<path class="fill"
	d="M591.74 123.00l47.80 0.00v-3.20l-47.80 -0.00"/>
<use x="572.84" y="99.00" xlink:href="#hd"/>
<path d="M569.34 99.00v28.00" class="stroke"/>
<use x="595.24" y="96.00" xlink:href="#hl"/>
<use x="595.24" y="93.00" xlink:href="#hd"/>
<path d="M591.74 93.00v34.00" class="stroke"/>
<use x="611.14" y="99.00" xlink:href="#hd"/>
<path d="M607.64 99.00v28.00" class="stroke"/>
<use x="627.04" y="108.00" xlink:href="#hd"/>
<path d="M623.54 108.00v19.00" class="stroke"/>
<use x="642.94" y="99.00" xlink:href="#hd"/>
<path d="M639.44 99.00v28.00" class="stroke"/>
<path class="fill"
	d="M671.54 82.80l82.40 8.00v3.20l-82.40 -8.00"/>
<path class="fill"
	d="M671.94 87.80l81.70 7.90v3.20l-81.70 -7.90"/>
<use x="668.44" y="105.00" xlink:href="#hd"/>
<path d="M671.94 105.00v-21.20" class="stroke"/>
<use x="684.34" y="111.00" xlink:href="#hd"/>
<path d="M687.84 111.00v-25.70" class="stroke"/>
<use x="700.24" y="114.00" xlink:href="#hd"/>
<path d="M703.74 114.00v-27.10" class="stroke"/>
<use x="716.14" y="120.00" xlink:href="#hd"/>
<path d="M719.64 120.00v-31.60" class="stroke"/>
<use x="732.14" y="117.00" xlink:href="#hd"/>
<path d="M735.64 117.00v-27.00" class="stroke"/>
<use x="750.14" y="123.00" xlink:href="#hd"/>
<use x="741.14" y="123.00" xlink:href="#sh0"/>
<path d="M753.64 123.00v-31.30" class="stroke"/>
<use x="775.54" y="99.00" xlink:href="#hd"/>
<path d="M772.04 99.00v40.00" class="stroke"/>
<use x="775.54" y="120.00" xlink:href="#hd"/>
<use x="775.54" y="114.00" xlink:href="#hd"/>
<use x="775.54" y="108.00" xlink:href="#hd"/>
<defs>
<path id="r8e" class="fill" d="m 0 0
	c-1.5 1.5 -2.4 2 -3.6 2
	2.4 -2.8 -2.8 -4 -2.8 -1.2
	c0 2.7 4.3 2.4 5.9 0.6"/>
<g id="r8">
	<path d="m3.3 -4l-3.4 9.6" class="stroke"/>
	<use x="3.4" y="-4" xlink:href="#r8e"/>
</g>
</defs>
<use x="831.84" y="114.00" xlink:href="#r8"/>
<defs>
<path id="ubclef" class="fill" d="m-200 -87
	c124 -35 222 -78 254 -236
	43 -228 -167 -246 -192 -103
	59 -80 157 22 92 78
	-62 47 -115 -22 -106 -88
	21 -141 270 -136 274 52
	-1 175 -106 264 -322 297
	m357 -250
	c0 -36 51 -34 51 0
	0 37 -51 36 -51 0
	m-2 -129
	c0 -36 51 -34 51 0
	0 38 -51 37 -51 0"/>
<use id="bclef" transform="translate(0,18) scale(0.045)"
	xlink:href="#ubclef"/>
</defs>
<use x="23.54" y="166.00" xlink:href="#bclef"/>
<g font-family="serif" font-size="16" font-weight="bold" font-style="normal"
	transform="translate(42.04,183.50) scale(1.2,1)">
	<text text-anchor="middle">8</text>
	<text y="-12" text-anchor="middle">3</text>
</g>
<use x="84.34" y="169.00" xlink:href="#hd"/>
<path d="M80.84 169.00v25.00" class="stroke"/>
<use x="84.34" y="175.00" xlink:href="#hd"/>
<use x="129.04" y="172.00" xlink:href="#r8"/>
<use x="159.44" y="163.00" xlink:href="#hd"/>
<path d="M155.94 163.00v25.00" class="stroke"/>
<use x="159.44" y="169.00" xlink:href="#hd"/>
<use x="223.14" y="172.00" xlink:href="#r8"/>
<use x="264.54" y="157.00" xlink:href="#hd"/>
<path d="M261.04 157.00v25.00" class="stroke"/>
<use x="264.54" y="163.00" xlink:href="#hd"/>
<use x="328.14" y="172.00" xlink:href="#r8"/>
<use x="369.54" y="163.00" xlink:href="#hd"/>
<path d="M366.04 163.00v25.00" class="stroke"/>
<use x="369.54" y="169.00" xlink:href="#hd"/>
<use x="433.24" y="172.00" xlink:href="#r8"/>
<use x="463.64" y="175.00" xlink:href="#hd"/>
<path d="M467.14 175.00v-21.00" class="stroke"/>
<use x="531.54" y="172.00" xlink:href="#r8"/>
<use x="572.84" y="178.00" xlink:href="#hd"/>
<path d="M576.34 178.00v-21.00" class="stroke"/>
<use x="627.04" y="172.00" xlink:href="#r8"/>
<path class="fill"
	d="M671.54 148.80l64.40 8.20v3.20l-64.40 -8.20"/>
<use x="668.44" y="175.00" xlink:href="#hd"/>
<path d="M671.94 175.00v-25.20" class="stroke"/>
<use x="700.24" y="172.00" xlink:href="#hd"/>
<path d="M703.74 172.00v-18.20" class="stroke"/>
<use x="732.14" y="190.00" xlink:href="#hl"/>
<use x="732.14" y="193.00" xlink:href="#hd"/>
<path d="M735.64 193.00v-35.20" class="stroke"/>
<path class="fill"
	d="M771.64 203.20l72.90 0.00v-3.20l-72.90 -0.00"/>
<path class="fill"
	d="M794.34 198.20l49.80 0.00v-3.20l-49.80 -0.00"/>
<use x="775.54" y="184.00" xlink:href="#hd"/>
<path d="M772.04 184.00v18.20" class="stroke"/>
<use x="797.84" y="163.00" xlink:href="#hd"/>
<path d="M794.34 163.00v39.20" class="stroke"/>
<use x="815.84" y="166.00" xlink:href="#hd"/>
<defs>
<path id="unat" class="fill" d="
	m96 -750
	h-32
	v716
	l32 -8
	182 -54
	v282
	h32
	v-706
	l-34 10
	-180 50
	v-290
	m0 592
	v-190
	l182 -52
	v188"/>
<use id="nt0" transform="translate(-3,5) scale(0.018)"
	xlink:href="#unat"/>
</defs>
<use x="806.84" y="166.00" xlink:href="#nt0"/>
<path d="M812.34 166.00v36.20" class="stroke"/>
<use x="831.84" y="169.00" xlink:href="#hd"/>
<path d="M828.34 169.00v33.20" class="stroke"/>
<use x="847.74" y="172.00" xlink:href="#hd"/>
<path d="M844.24 172.00v30.20" class="stroke"/>
</g>
<g stroke-width="0.70" transform="scale(0.867)" font-family="Times" font-size="13.00">
<path class="stroke" stroke-width="1"
	d="M11.54 317.04v-82.00"/>
<path class="fill"
	d="M6.54 232.04
	c10.5 1 12 -4.5 12 -3.5c0 1 -3.5 5.5 -8.5 5.5
	v84.00
	c5 0 8.5 4.5 8.5 5.5c0 1 -1.5 -4.5 -12 -3.5"/>
<use x="143.64" y="259.04" xlink:href="#rdots"/>
<path class="stroke" stroke-width="1"
	d="M139.64 259.04v-24.00"/>
<path class="stroke" stroke-width="3"
	d="M135.14 259.04v-24.00"/>
<use x="143.64" y="317.04" xlink:href="#rdots"/>
<path class="stroke" stroke-width="1"
	d="M139.64 317.04v-58.00"/>
<path class="stroke" stroke-width="3"
	d="M135.14 317.04v-58.00"/>
<path class="stroke" stroke-width="1"
	d="M249.64 259.04v-24.00"/>
<path class="stroke" stroke-width="1"
	d="M249.64 317.04v-58.00"/>
<path class="stroke" stroke-width="1"
	d="M348.44 259.04v-24.00"/>
<path class="stroke" stroke-width="1"
	d="M348.44 317.04v-58.00"/>
<path class="stroke" stroke-width="1"
	d="M447.24 259.04v-24.00"/>
<path class="stroke" stroke-width="1"
	d="M447.24 317.04v-58.00"/>
<path class="stroke" stroke-width="1"
	d="M526.34 259.04v-24.00"/>
<path class="stroke" stroke-width="1"
	d="M526.34 317.04v-58.00"/>
<path class="stroke" stroke-width="1"
	d="M625.14 259.04v-24.00"/>
<path class="stroke" stroke-width="1"
	d="M625.14 317.04v-58.00"/>
<path class="stroke" stroke-width="1"
	d="M695.24 259.04v-24.00"/>
<path class="stroke" stroke-width="1"
	d="M695.24 317.04v-58.00"/>
<path class="stroke" stroke-width="1"
	d="M787.94 259.04v-24.00"/>
<path class="stroke" stroke-width="1"
	d="M787.94 317.04v-58.00"/>
<path class="stroke" stroke-width="3"
	d="M860.54 259.04v-24.00"/>
<path class="stroke" stroke-width="1"
	d="M856.04 259.04v-24.00"/>
<use x="852.04" y="259.04" xlink:href="#rdots"/>
<path class="stroke" stroke-width="3"
	d="M860.54 317.04v-58.00"/>
<path class="stroke" stroke-width="1"
	d="M856.04 317.04v-58.00"/>
<use x="852.04" y="317.04" xlink:href="#rdots"/>
<path d="m11.54 259.04
	h850.50
	M11.54 253.04
	h850.50
	M11.54 247.04
	h850.50
	M11.54 241.04
	h850.50
	M11.54 235.04
	h850.50
	" class="stroke"/>
<path d="m11.54 317.04
	h850.50
	M11.54 311.04
	h850.50
	M11.54 305.04
	h850.50
	M11.54 299.04
	h850.50
	M11.54 293.04
	h850.50
	" class="stroke"/>
<path class="fill"
	d="M637.64 242.04c5.85 -5.30 31.30 -10.50 37.15 -7.60
	v-0.24c-6.97 -4.67 -30.18 0.54 -37.15 7.84"/>
<text x="47.54" y="220.44">2</text>
<path class="stroke"
	d="M43.54 209.04m0 20v-20h89.10v20"/>
<use x="23.54" y="253.04" xlink:href="#tclef"/>
<use x="56.04" y="232.04" xlink:href="#hd"/>
<path d="M52.54 232.04v40.00" class="stroke"/>
<use x="56.04" y="253.04" xlink:href="#hd"/>
<use x="56.04" y="247.04" xlink:href="#hd"/>
<use x="56.04" y="241.04" xlink:href="#hd"/>
<use x="109.34" y="247.04" xlink:href="#r8"/>
<path class="fill"
	d="M159.34 259.24l74.70 0.00v-3.20l-74.70 -0.00"/>
<path class="fill"
	d="M159.64 254.24l74.10 0.00v-3.20l-74.10 -0.00"/>
<use x="163.14" y="235.04" xlink:href="#hd"/>
<use x="154.14" y="235.04" xlink:href="#sh0"/>
<path d="M159.64 235.04v23.20" class="stroke"/>
<use x="177.94" y="229.04" xlink:href="#hl"/>
<use x="177.94" y="229.04" xlink:href="#hd"/>
<path d="M174.44 229.04v29.20" class="stroke"/>
<use x="192.74" y="229.04" xlink:href="#hl"/>
<use x="192.74" y="223.04" xlink:href="#hl"/>
<use x="192.74" y="220.04" xlink:href="#hd"/>
<path d="M189.24 220.04v38.20" class="stroke"/>
<use x="207.64" y="229.04" xlink:href="#hl"/>
<use x="207.64" y="229.04" xlink:href="#hd"/>
<path d="M204.14 229.04v29.20" class="stroke"/>
<use x="222.44" y="235.04" xlink:href="#hd"/>
<path d="M218.94 235.04v23.20" class="stroke"/>
<use x="237.14" y="229.04" xlink:href="#hl"/>
<use x="237.14" y="229.04" xlink:href="#hd"/>
<path d="M233.64 229.04v29.20" class="stroke"/>
<path class="fill"
	d="M258.34 261.04l74.50 0.00v-3.20l-74.50 -0.00"/>
<path class="fill"
	d="M258.64 256.04l73.80 0.00v-3.20l-73.80 -0.00"/>
<use x="262.14" y="229.04" xlink:href="#hl"/>
<use x="262.14" y="229.04" xlink:href="#hd"/>
<path d="M258.64 229.04v31.00" class="stroke"/>
<use x="276.94" y="232.04" xlink:href="#hd"/>
<path d="M273.44 232.04v28.00" class="stroke"/>
<use x="291.74" y="229.04" xlink:href="#hl"/>
<use x="291.74" y="226.04" xlink:href="#hd"/>
<path d="M288.24 226.04v34.00" class="stroke"/>
<use x="306.44" y="232.04" xlink:href="#hd"/>
<path d="M302.94 232.04v28.00" class="stroke"/>
<use x="321.24" y="241.04" xlink:href="#hd"/>
<path d="M317.74 241.04v19.00" class="stroke"/>
<use x="335.94" y="232.04" xlink:href="#hd"/>
<path d="M332.44 232.04v28.00" class="stroke"/>
<path class="fill"
	d="M357.14 267.04l74.50 0.00v-3.20l-74.50 -0.00"/>
<path class="fill"
	d="M357.44 262.04l73.80 0.00v-3.20l-73.80 -0.00"/>
<use x="360.94" y="238.04" xlink:href="#hd"/>
<path d="M357.44 238.04v27.90" class="stroke"/>
<use x="375.74" y="232.04" xlink:href="#hd"/>
<path d="M372.24 232.04v33.90" class="stroke"/>
<use x="390.54" y="229.04" xlink:href="#hl"/>
<use x="390.54" y="223.04" xlink:href="#hl"/>
<use x="390.54" y="223.04" xlink:href="#hd"/>
<path d="M387.04 223.04v42.90" class="stroke"/>
<use x="405.24" y="232.04" xlink:href="#hd"/>
<path d="M401.74 232.04v33.90" class="stroke"/>
<use x="420.04" y="238.04" xlink:href="#hd"/>
<path d="M416.54 238.04v27.90" class="stroke"/>
<use x="434.74" y="244.04" xlink:href="#hd"/>
<path d="M431.24 244.04v21.90" class="stroke"/>
<path class="fill"
	d="M455.94 266.64l30.20 6.80v-3.20l-30.20 -6.80"/>
<path class="fill"
	d="M456.24 261.74l14.80 3.30v-3.20l-14.80 -3.30"/>
<use x="459.74" y="241.04" xlink:href="#hd"/>
<path d="M456.24 241.04v24.70" class="stroke"/>
<use x="474.54" y="247.04" xlink:href="#hd"/>
<path d="M471.04 247.04v22.00" class="stroke"/>
<use x="489.34" y="253.04" xlink:href="#hd"/>
<path d="M485.84 253.04v19.30" class="stroke"/>
<use x="509.84" y="247.04" xlink:href="#r8"/>
<path class="fill"
	d="M535.04 254.74l59.70 8.60v-3.20l-59.70 -8.60"/>
<use x="538.84" y="232.04" xlink:href="#hd"/>
<path d="M535.34 232.04v21.70" class="stroke"/>
<use x="568.34" y="238.04" xlink:href="#hd"/>
<path d="M564.84 238.04v20.00" class="stroke"/>
<use x="597.84" y="244.04" xlink:href="#hd"/>
<path d="M594.34 244.04v18.30" class="stroke"/>
<path class="fill"
	d="M633.84 272.34l41.80 -6.40v-3.20l-41.80 6.40"/>
<use x="637.64" y="253.04" xlink:href="#hd"/>
<path d="M634.14 253.04v18.20" class="stroke"/>
<use x="658.24" y="244.04" xlink:href="#hd"/>
<path d="M654.74 244.04v24.10" class="stroke"/>
<use x="678.84" y="238.04" xlink:href="#hd"/>
<path d="M675.34 238.04v26.90" class="stroke"/>
<path class="fill"
	d="M703.94 257.34l15.40 -3.50v-3.20l-15.40 3.50"/>
<path class="fill"
	d="M704.24 252.24l14.80 -3.30v-3.20l-14.80 3.30"/>
<use x="707.74" y="235.04" xlink:href="#hd"/>
<path d="M704.24 235.04v21.20" class="stroke"/>
<use x="722.54" y="229.04" xlink:href="#hl"/>
<use x="722.54" y="229.04" xlink:href="#hd"/>
<path d="M719.04 229.04v23.90" class="stroke"/>
<use x="737.24" y="250.04" xlink:href="#hd"/>
<path d="M740.74 250.04v-21.00" class="stroke"/>
<path class="fill"
	d="M740.74 229.04c0.6 5.6 9.6 9 5.6 18.4
	1.6 -6 -1.3 -11.6 -5.6 -12.8
"/>
<path class="fill"
	d="M756.84 269.34l15.40 -3.50v-3.20l-15.40 3.50"/>
<path class="fill"
	d="M757.14 264.24l14.80 -3.30v-3.20l-14.80 3.30"/>
<use x="760.64" y="247.04" xlink:href="#hd"/>
<path d="M757.14 247.04v21.20" class="stroke"/>
<use x="775.44" y="241.04" xlink:href="#hd"/>
<path d="M771.94 241.04v23.90" class="stroke"/>
<use x="800.44" y="244.04" xlink:href="#hd"/>
<path d="M796.94 244.04v21.00" class="stroke"/>
<use x="841.54" y="247.04" xlink:href="#r8"/>
<use x="23.54" y="299.04" xlink:href="#bclef"/>
<path class="fill"
	d="M52.24 336.24l68.80 -5.00v-3.20l-68.80 5.00"/>
<path class="fill"
	d="M73.14 329.74l47.50 -3.50v-3.20l-47.50 3.50"/>
<use x="56.04" y="317.04" xlink:href="#hd"/>
<path d="M52.54 317.04v18.20" class="stroke"/>
<use x="76.64" y="290.04" xlink:href="#hd"/>
<path d="M73.14 290.04v43.70" class="stroke"/>
<use x="91.34" y="296.04" xlink:href="#hd"/>
<path d="M87.84 296.04v36.60" class="stroke"/>
<use x="109.34" y="299.04" xlink:href="#hd"/>
<use x="100.34" y="299.04" xlink:href="#sh0"/>
<path d="M105.84 299.04v32.30" class="stroke"/>
<use x="124.14" y="302.04" xlink:href="#hd"/>
<path d="M120.64 302.04v28.20" class="stroke"/>
<use x="163.14" y="293.04" xlink:href="#hd"/>
<path d="M159.64 293.04v34.00" class="stroke"/>
<use x="163.14" y="308.04" xlink:href="#hd"/>
<use x="222.44" y="293.04" xlink:href="#hd"/>
<path d="M218.94 293.04v34.00" class="stroke"/>
<path class="fill"
	d="M218.94 327.04c0.6 -5.6 9.6 -9 5.6 -18.4
	1.6 6 -1.3 11.6 -5.6 12.8
"/>
<use x="222.44" y="308.04" xlink:href="#hd"/>
<use x="262.14" y="311.04" xlink:href="#hd"/>
<path d="M265.64 311.04v-25.00" class="stroke"/>
<use x="262.14" y="305.04" xlink:href="#hd"/>
<use x="321.24" y="311.04" xlink:href="#hd"/>
<path d="M324.74 311.04v-25.00" class="stroke"/>
<path class="fill"
	d="M324.74 286.04c0.6 5.6 9.6 9 5.6 18.4
	1.6 -6 -1.3 -11.6 -5.6 -12.8
"/>
<use x="321.24" y="305.04" xlink:href="#hd"/>
<use x="360.94" y="296.04" xlink:href="#hd"/>
<path d="M357.44 296.04v31.00" class="stroke"/>
<use x="360.94" y="308.04" xlink:href="#hd"/>
<use x="420.04" y="296.04" xlink:href="#hd"/>
<path d="M416.54 296.04v31.00" class="stroke"/>
<path class="fill"
	d="M416.54 327.04c0.6 -5.6 9.6 -9 5.6 -18.4
	1.6 6 -1.3 11.6 -5.6 12.8
"/>
<use x="420.04" y="308.04" xlink:href="#hd"/>
<use x="459.74" y="317.04" xlink:href="#hd"/>
<path d="M463.24 317.04v-40.00" class="stroke"/>
<use x="459.74" y="296.04" xlink:href="#hd"/>
<use x="509.84" y="296.04" xlink:href="#hd"/>
<path d="M506.34 296.04v21.00" class="stroke"/>
<path class="fill"
	d="M506.34 317.04c0.6 -5.6 9.6 -9 5.6 -18.4
	1.6 6 -1.3 11.6 -5.6 12.8
"/>
<path class="fill"
	d="M535.04 324.94l74.50 0.00v-3.20l-74.50 -0.00"/>
<path class="fill"
	d="M535.34 319.94l73.80 0.00v-3.20l-73.80 -0.00"/>
<use x="538.84" y="302.04" xlink:href="#hd"/>
<path d="M535.34 302.04v21.90" class="stroke"/>
<use x="538.84" y="308.04" xlink:href="#hd"/>
<use x="553.64" y="296.04" xlink:href="#hd"/>
<path d="M550.14 296.04v27.90" class="stroke"/>
<use x="568.34" y="302.04" xlink:href="#hd"/>
<path d="M564.84 302.04v21.90" class="stroke"/>
<use x="568.34" y="308.04" xlink:href="#hd"/>
<use x="583.14" y="296.04" xlink:href="#hd"/>
<path d="M579.64 296.04v27.90" class="stroke"/>
<use x="597.84" y="302.04" xlink:href="#hd"/>
<path d="M594.34 302.04v21.90" class="stroke"/>
<use x="597.84" y="308.04" xlink:href="#hd"/>
<use x="612.64" y="296.04" xlink:href="#hd"/>
<path d="M609.14 296.04v27.90" class="stroke"/>
<use x="637.64" y="302.04" xlink:href="#hd"/>
<path d="M634.14 302.04v25.00" class="stroke"/>
<use x="637.64" y="308.04" xlink:href="#hd"/>
<use x="678.84" y="296.04" xlink:href="#hd"/>
<path d="M675.34 296.04v31.00" class="stroke"/>
<path class="fill"
	d="M675.34 327.04c0.6 -5.6 9.6 -9 5.6 -18.4
	1.6 6 -1.3 11.6 -5.6 12.8
"/>
<use x="678.84" y="308.04" xlink:href="#hd"/>
<use x="707.74" y="299.04" xlink:href="#hd"/>
<path d="M704.24 299.04v21.00" class="stroke"/>
<use x="760.64" y="296.04" xlink:href="#hd"/>
<path d="M757.14 296.04v21.00" class="stroke"/>
<path class="fill"
	d="M757.14 317.04c0.6 -5.6 9.6 -9 5.6 -18.4
	1.6 6 -1.3 11.6 -5.6 12.8
"/>
<path class="fill"
	d="M803.54 288.74l41.80 9.80v3.20l-41.80 -9.80"/>
<use x="800.44" y="308.04" xlink:href="#hd"/>
<path d="M803.94 308.04v-18.20" class="stroke"/>
<use x="820.94" y="317.04" xlink:href="#hd"/>
<path d="M824.44 317.04v-22.40" class="stroke"/>
<use x="841.54" y="323.04" xlink:href="#hl"/>
<use x="841.54" y="329.04" xlink:href="#hl"/>
<use x="841.54" y="329.04" xlink:href="#hd"/>
<path d="M845.04 329.04v-29.60" class="stroke"/>
</g>
</svg>
