<?xml version="1.0" standalone="no"?>
<!DOCTYPE svg PUBLIC "-//W3C//DTD SVG 1.1//EN"
	"http://www.w3.org/Graphics/SVG/1.1/DTD/svg11.dtd">
<svg xmlns="http://www.w3.org/2000/svg" version="1.1"
	xmlns:xlink="http://www.w3.org/1999/xlink"
	color="black"
	width="757.10px" height="297.27px">
<style type="text/css">
.fill {fill: currentColor}
.stroke {stroke: currentColor; fill: none}
text{white-space: pre}
</style>
<title>./K516f-7-11-6-11-10-8-2-6-10-9-11-12-9-5-6-5.abc (1497) tune 1</title>
<!-- Creator: abcm2ps-8.13.8 -->
<!-- CreationDate: Sep  7, 2017 11:20 -->
<!-- CommandLine: ./K516f-7-11-6-11-10-8-2-6-10-9-11-12-9-5-6-5.abc -O ./K516f-7-11-6-11-10-8-2-6-10-9-11-12-9-5-6-5.svg -g -->
<rect width="100%" height="100%" fill="white"/>
<g stroke-width="0.70" transform="scale(0.867)">
<!-- title: 7-11-6-11-10-8-2-6-10-9-11-12-9-5-6-5 -->
</g>
<g stroke-width="0.70" transform="scale(0.867)" font-family="Times" font-size="20.00">
<text x="436.84" y="22.00" text-anchor="middle">7-11-6-11-10-8-2-6-10-9-11-12-9-5-6-5</text>
</g>
<g stroke-width="0.70" transform="scale(0.867)" font-family="Times" font-size="20.00">
<!-- subtitle: $1K.516f::104:87:163:61:75:133:11:107:65:88:31:92:51:160:1:170::$0 -->
</g>
<g stroke-width="0.70" transform="scale(0.867)" font-family="Courier" font-size="8.00" font-weight="bold">
<text x="436.84" y="41.80" text-anchor="middle">K.516f::104:87:163:61:75:133:11:107:65:88:31:92:51:160:1:170::</text>
</g>
<g stroke-width="0.70" transform="scale(0.867)" font-family="Courier" font-size="8.00" font-weight="bold">
<!-- subtitle: $1Perm. No.: 149785568680930$0 -->
<text x="436.84" y="60.80" text-anchor="middle">Perm. No.: 149785568680930</text>
</g>
<g stroke-width="0.70" transform="scale(0.607)" font-family="Courier" font-size="8.00" font-weight="bold">
<defs>
<ellipse id="hd" rx="4.1" ry="2.9"
	transform="rotate(-20)" class="fill"/>
</defs>
<use x="103.06" y="121.29" xlink:href="#hd"/>
<path d="M106.56 121.29v-21.00" class="stroke"/>
<path class="fill"
	d="M106.56 100.29c0.6 5.6 9.6 9 5.6 18.4
	1.6 -6 -1.3 -11.6 -5.6 -12.8
"/>
</g>
<g stroke-width="0.70" transform="scale(0.867)" font-family="Times" font-size="15.00" font-weight="bold">
<text x="81.24" y="87.00">= 111</text>
<path class="stroke" stroke-width="1"
	d="M11.54 183.00v-82.00"/>
<path class="fill"
	d="M6.54 98.00
	c10.5 1 12 -4.5 12 -3.5c0 1 -3.5 5.5 -8.5 5.5
	v84.00
	c5 0 8.5 4.5 8.5 5.5c0 1 -1.5 -4.5 -12 -3.5"/>
<defs>
<g id="rdots" class="fill">
	<circle cx="0" cy="-9" r="1.2"/>
	<circle cx="0" cy="-15" r="1.2"/>
</g>
</defs>
<use x="70.54" y="125.00" xlink:href="#rdots"/>
<path class="stroke" stroke-width="1"
	d="M66.54 125.00v-24.00"/>
<path class="stroke" stroke-width="3"
	d="M62.04 125.00v-24.00"/>
<use x="70.54" y="183.00" xlink:href="#rdots"/>
<path class="stroke" stroke-width="1"
	d="M66.54 183.00v-58.00"/>
<path class="stroke" stroke-width="3"
	d="M62.04 183.00v-58.00"/>
<path class="stroke" stroke-width="1"
	d="M181.94 125.00v-24.00"/>
<path class="stroke" stroke-width="1"
	d="M181.94 183.00v-58.00"/>
<path class="stroke" stroke-width="1"
	d="M261.14 125.00v-24.00"/>
<path class="stroke" stroke-width="1"
	d="M261.14 183.00v-58.00"/>
<path class="stroke" stroke-width="1"
	d="M372.84 125.00v-24.00"/>
<path class="stroke" stroke-width="1"
	d="M372.84 183.00v-58.00"/>
<path class="stroke" stroke-width="1"
	d="M461.94 125.00v-24.00"/>
<path class="stroke" stroke-width="1"
	d="M461.94 183.00v-58.00"/>
<path class="stroke" stroke-width="1"
	d="M546.24 125.00v-24.00"/>
<path class="stroke" stroke-width="1"
	d="M546.24 183.00v-58.00"/>
<path class="stroke" stroke-width="1"
	d="M646.84 125.00v-24.00"/>
<path class="stroke" stroke-width="1"
	d="M646.84 183.00v-58.00"/>
<path class="stroke" stroke-width="1"
	d="M758.44 125.00v-24.00"/>
<path class="stroke" stroke-width="1"
	d="M758.44 183.00v-58.00"/>
<path class="stroke" stroke-width="3"
	d="M860.54 125.00v-24.00"/>
<path class="stroke" stroke-width="1"
	d="M856.04 125.00v-24.00"/>
<use x="852.04" y="125.00" xlink:href="#rdots"/>
<path class="stroke" stroke-width="3"
	d="M860.54 183.00v-58.00"/>
<path class="stroke" stroke-width="1"
	d="M856.04 183.00v-58.00"/>
<use x="852.04" y="183.00" xlink:href="#rdots"/>
<path d="m11.54 125.00
	h850.50
	M11.54 119.00
	h850.50
	M11.54 113.00
	h850.50
	M11.54 107.00
	h850.50
	M11.54 101.00
	h850.50
	" class="stroke"/>
<path d="m11.54 183.00
	h850.50
	M11.54 177.00
	h850.50
	M11.54 171.00
	h850.50
	M11.54 165.00
	h850.50
	M11.54 159.00
	h850.50
	" class="stroke"/>
</g>
<g stroke-width="0.70" transform="scale(0.867)" font-family="Times" font-size="13.00">
<text x="762.44" y="86.40">1</text>
<path class="stroke"
	d="M758.44 75.00m0 20v-20h95.60v20"/>
<defs>
<path id="utclef" class="fill" d="m-50 -90
	c-72 -41 -72 -158 52 -188
	150 -10 220 188 90 256
	-114 52 -275 0 -293 -136
	-15 -181 93 -229 220 -334
	88 -87 79 -133 62 -210
	-51 33 -94 105 -89 186
	17 267 36 374 49 574
	6 96 -19 134 -77 135
	-80 1 -126 -93 -61 -133
	85 -41 133 101 31 105
	23 17 92 37 90 -92
	-10 -223 -39 -342 -50 -617
	0 -90 0 -162 96 -232
	56 72 63 230 22 289
	-74 106 -257 168 -255 316
	9 153 148 185 252 133
	86 -65 29 -192 -80 -176
	-71 12 -105 67 -59 124"/>
<use id="tclef" transform="translate(0,6) scale(0.045)"
	xlink:href="#utclef"/>
</defs>
<use x="23.54" y="119.00" xlink:href="#tclef"/>
<g font-family="serif" font-size="16" font-weight="bold" font-style="normal"
	transform="translate(42.04,124.50) scale(1.2,1)">
	<text text-anchor="middle">8</text>
	<text y="-12" text-anchor="middle">3</text>
</g>
<path class="fill"
	d="M81.04 130.50l84.60 -6.40v-3.20l-84.60 6.40"/>
<path class="fill"
	d="M81.34 125.50l83.90 -6.30v-3.20l-83.90 6.30"/>
<use x="84.84" y="104.00" xlink:href="#hd"/>
<path d="M81.34 104.00v25.50" class="stroke"/>
<use x="101.64" y="107.00" xlink:href="#hd"/>
<path d="M98.14 107.00v21.20" class="stroke"/>
<use x="118.44" y="104.00" xlink:href="#hd"/>
<path d="M114.94 104.00v22.90" class="stroke"/>
<use x="135.24" y="98.00" xlink:href="#hd"/>
<path d="M131.74 98.00v27.70" class="stroke"/>
<defs>
<path id="hl" class="stroke" d="m-6 0h12"/>
</defs>
<use x="152.04" y="95.00" xlink:href="#hl"/>
<use x="152.04" y="89.00" xlink:href="#hl"/>
<use x="152.04" y="89.00" xlink:href="#hd"/>
<path d="M148.54 89.00v35.40" class="stroke"/>
<use x="168.84" y="98.00" xlink:href="#hd"/>
<path d="M165.34 98.00v25.10" class="stroke"/>
<path class="fill"
	d="M191.44 127.60l48.00 3.20v-3.20l-48.00 -3.20"/>
<use x="195.34" y="98.00" xlink:href="#hd"/>
<path d="M191.84 98.00v28.60" class="stroke"/>
<use x="218.94" y="110.00" xlink:href="#hd"/>
<path d="M215.44 110.00v18.20" class="stroke"/>
<use x="242.64" y="104.00" xlink:href="#hd"/>
<path d="M239.14 104.00v25.80" class="stroke"/>
<path class="fill"
	d="M270.64 131.30l85.80 10.00v-3.20l-85.80 -10.00"/>
<path class="fill"
	d="M271.04 126.30l85.10 9.90v-3.20l-85.10 -9.90"/>
<use x="274.54" y="98.00" xlink:href="#hd"/>
<path d="M271.04 98.00v32.30" class="stroke"/>
<use x="292.54" y="101.00" xlink:href="#hd"/>
<defs>
<path id="usharp" class="fill" d="
	m136 -702
	v890
	h32
	v-890
	m128 840
	h32
	v-888
	h-32
	m-232 286
	v116
	l338 -96
	v-116
	m-338 442
	v116
	l338 -98
	v-114"/>
<use id="sh0" transform="translate(-4,5) scale(0.018)"
	xlink:href="#usharp"/>
</defs>
<use x="283.54" y="101.00" xlink:href="#sh0"/>
<path d="M289.04 101.00v31.40" class="stroke"/>
<use x="309.24" y="98.00" xlink:href="#hd"/>
<path d="M305.74 98.00v36.40" class="stroke"/>
<use x="326.04" y="107.00" xlink:href="#hd"/>
<path d="M322.54 107.00v29.30" class="stroke"/>
<use x="342.84" y="113.00" xlink:href="#hd"/>
<path d="M339.34 113.00v25.30" class="stroke"/>
<use x="359.64" y="119.00" xlink:href="#hd"/>
<path d="M356.14 119.00v21.20" class="stroke"/>
<path class="fill"
	d="M382.34 135.40l57.90 -4.50v-3.20l-57.90 4.50"/>
<path class="fill"
	d="M406.34 128.50l16.80 -1.30v-3.20l-16.80 1.30"/>
<use x="386.14" y="110.00" xlink:href="#hd"/>
<path d="M382.64 110.00v24.40" class="stroke"/>
<use x="409.84" y="104.00" xlink:href="#hd"/>
<path d="M406.34 104.00v28.50" class="stroke"/>
<use x="426.64" y="110.00" xlink:href="#hd"/>
<path d="M423.14 110.00v21.20" class="stroke"/>
<use x="443.34" y="98.00" xlink:href="#hd"/>
<path d="M439.84 98.00v31.90" class="stroke"/>
<path class="fill"
	d="M476.54 125.20l48.00 0.00v-3.20l-48.00 -0.00"/>
<use x="480.44" y="101.00" xlink:href="#hd"/>
<use x="471.44" y="101.00" xlink:href="#sh0"/>
<path d="M476.94 101.00v23.20" class="stroke"/>
<use x="480.44" y="107.00" xlink:href="#hd"/>
<use x="504.04" y="101.00" xlink:href="#hd"/>
<path d="M500.54 101.00v23.20" class="stroke"/>
<use x="504.04" y="107.00" xlink:href="#hd"/>
<use x="527.74" y="101.00" xlink:href="#hd"/>
<path d="M524.24 101.00v23.20" class="stroke"/>
<use x="527.74" y="107.00" xlink:href="#hd"/>
<path class="fill"
	d="M555.74 135.20l74.70 0.00v-3.20l-74.70 -0.00"/>
<path class="fill"
	d="M579.74 130.20l50.40 0.00v-3.20l-50.40 -0.00"/>
<use x="559.64" y="107.00" xlink:href="#hd"/>
<path d="M556.14 107.00v27.20" class="stroke"/>
<use x="583.24" y="98.00" xlink:href="#hd"/>
<path d="M579.74 98.00v36.20" class="stroke"/>
<use x="600.04" y="107.00" xlink:href="#hd"/>
<path d="M596.54 107.00v27.20" class="stroke"/>
<use x="616.84" y="113.00" xlink:href="#hd"/>
<path d="M613.34 113.00v21.20" class="stroke"/>
<use x="633.64" y="107.00" xlink:href="#hd"/>
<path d="M630.14 107.00v27.20" class="stroke"/>
<path class="fill"
	d="M663.34 81.80l85.80 8.40v3.20l-85.80 -8.40"/>
<path class="fill"
	d="M663.64 86.80l85.10 8.30v3.20l-85.10 -8.30"/>
<use x="660.14" y="104.00" xlink:href="#hd"/>
<path d="M663.64 104.00v-21.20" class="stroke"/>
<use x="676.94" y="110.00" xlink:href="#hd"/>
<path d="M680.44 110.00v-25.60" class="stroke"/>
<use x="693.74" y="113.00" xlink:href="#hd"/>
<path d="M697.24 113.00v-26.90" class="stroke"/>
<use x="710.54" y="116.00" xlink:href="#hd"/>
<path d="M714.04 116.00v-28.30" class="stroke"/>
<use x="727.24" y="119.00" xlink:href="#hd"/>
<path d="M730.74 119.00v-29.70" class="stroke"/>
<use x="745.24" y="122.00" xlink:href="#hd"/>
<use x="736.24" y="122.00" xlink:href="#sh0"/>
<path d="M748.74 122.00v-30.90" class="stroke"/>
<use x="771.84" y="98.00" xlink:href="#hd"/>
<path d="M768.34 98.00v40.00" class="stroke"/>
<use x="771.84" y="119.00" xlink:href="#hd"/>
<use x="771.84" y="113.00" xlink:href="#hd"/>
<use x="771.84" y="107.00" xlink:href="#hd"/>
<defs>
<path id="r8e" class="fill" d="m 0 0
	c-1.5 1.5 -2.4 2 -3.6 2
	2.4 -2.8 -2.8 -4 -2.8 -1.2
	c0 2.7 4.3 2.4 5.9 0.6"/>
<g id="r8">
	<path d="m3.3 -4l-3.4 9.6" class="stroke"/>
	<use x="3.4" y="-4" xlink:href="#r8e"/>
</g>
</defs>
<use x="830.24" y="113.00" xlink:href="#r8"/>
<defs>
<path id="ubclef" class="fill" d="m-200 -87
	c124 -35 222 -78 254 -236
	43 -228 -167 -246 -192 -103
	59 -80 157 22 92 78
	-62 47 -115 -22 -106 -88
	21 -141 270 -136 274 52
	-1 175 -106 264 -322 297
	m357 -250
	c0 -36 51 -34 51 0
	0 37 -51 36 -51 0
	m-2 -129
	c0 -36 51 -34 51 0
	0 38 -51 37 -51 0"/>
<use id="bclef" transform="translate(0,18) scale(0.045)"
	xlink:href="#ubclef"/>
</defs>
<use x="23.54" y="165.00" xlink:href="#bclef"/>
<g font-family="serif" font-size="16" font-weight="bold" font-style="normal"
	transform="translate(42.04,182.50) scale(1.2,1)">
	<text text-anchor="middle">8</text>
	<text y="-12" text-anchor="middle">3</text>
</g>
<use x="84.84" y="174.00" xlink:href="#hd"/>
<path d="M88.34 174.00v-21.00" class="stroke"/>
<use x="152.04" y="171.00" xlink:href="#r8"/>
<use x="195.34" y="168.00" xlink:href="#hd"/>
<path d="M191.84 168.00v25.00" class="stroke"/>
<use x="195.34" y="174.00" xlink:href="#hd"/>
<use x="242.64" y="162.00" xlink:href="#hd"/>
<path d="M239.14 162.00v31.00" class="stroke"/>
<path class="fill"
	d="M239.14 193.00c0.6 -5.6 9.6 -9 5.6 -18.4
	1.6 6 -1.3 11.6 -5.6 12.8
"/>
<use x="242.64" y="174.00" xlink:href="#hd"/>
<use x="274.54" y="177.00" xlink:href="#hd"/>
<path d="M278.04 177.00v-25.00" class="stroke"/>
<use x="274.54" y="171.00" xlink:href="#hd"/>
<use x="342.84" y="171.00" xlink:href="#r8"/>
<use x="386.14" y="162.00" xlink:href="#hd"/>
<path d="M382.64 162.00v25.00" class="stroke"/>
<use x="386.14" y="168.00" xlink:href="#hd"/>
<use x="443.34" y="171.00" xlink:href="#r8"/>
<path class="fill"
	d="M483.54 153.00l48.00 0.00v3.20l-48.00 -0.00"/>
<use x="480.44" y="174.00" xlink:href="#hd"/>
<path d="M483.94 174.00v-20.00" class="stroke"/>
<use x="504.04" y="174.00" xlink:href="#hd"/>
<path d="M507.54 174.00v-20.00" class="stroke"/>
<use x="527.74" y="174.00" xlink:href="#hd"/>
<path d="M531.24 174.00v-20.00" class="stroke"/>
<use x="559.64" y="162.00" xlink:href="#hd"/>
<path d="M556.14 162.00v34.00" class="stroke"/>
<use x="559.64" y="177.00" xlink:href="#hd"/>
<use x="616.84" y="171.00" xlink:href="#r8"/>
<path class="fill"
	d="M663.34 147.70l67.80 8.30v3.20l-67.80 -8.30"/>
<use x="660.14" y="174.00" xlink:href="#hd"/>
<path d="M663.64 174.00v-25.30" class="stroke"/>
<use x="693.74" y="171.00" xlink:href="#hd"/>
<path d="M697.24 171.00v-18.20" class="stroke"/>
<use x="727.24" y="189.00" xlink:href="#hl"/>
<use x="727.24" y="192.00" xlink:href="#hd"/>
<path d="M730.74 192.00v-35.10" class="stroke"/>
<path class="fill"
	d="M767.94 202.20l75.90 0.00v-3.20l-75.90 -0.00"/>
<path class="fill"
	d="M791.94 197.20l51.60 0.00v-3.20l-51.60 -0.00"/>
<use x="771.84" y="183.00" xlink:href="#hd"/>
<path d="M768.34 183.00v18.20" class="stroke"/>
<use x="795.44" y="162.00" xlink:href="#hd"/>
<path d="M791.94 162.00v39.20" class="stroke"/>
<use x="813.44" y="165.00" xlink:href="#hd"/>
<defs>
<path id="unat" class="fill" d="
	m96 -750
	h-32
	v716
	l32 -8
	182 -54
	v282
	h32
	v-706
	l-34 10
	-180 50
	v-290
	m0 592
	v-190
	l182 -52
	v188"/>
<use id="nt0" transform="translate(-3,5) scale(0.018)"
	xlink:href="#unat"/>
</defs>
<use x="804.44" y="165.00" xlink:href="#nt0"/>
<path d="M809.94 165.00v36.20" class="stroke"/>
<use x="830.24" y="168.00" xlink:href="#hd"/>
<path d="M826.74 168.00v33.20" class="stroke"/>
<use x="847.04" y="171.00" xlink:href="#hd"/>
<path d="M843.54 171.00v30.20" class="stroke"/>
</g>
<g stroke-width="0.70" transform="scale(0.867)" font-family="Times" font-size="13.00">
<path class="stroke" stroke-width="1"
	d="M11.54 320.00v-86.00"/>
<path class="fill"
	d="M6.54 231.00
	c10.5 1 12 -4.5 12 -3.5c0 1 -3.5 5.5 -8.5 5.5
	v88.00
	c5 0 8.5 4.5 8.5 5.5c0 1 -1.5 -4.5 -12 -3.5"/>
<use x="146.44" y="258.00" xlink:href="#rdots"/>
<path class="stroke" stroke-width="1"
	d="M142.44 258.00v-24.00"/>
<path class="stroke" stroke-width="3"
	d="M137.94 258.00v-24.00"/>
<use x="146.44" y="320.00" xlink:href="#rdots"/>
<path class="stroke" stroke-width="1"
	d="M142.44 320.00v-62.00"/>
<path class="stroke" stroke-width="3"
	d="M137.94 320.00v-62.00"/>
<path class="stroke" stroke-width="1"
	d="M236.44 258.00v-24.00"/>
<path class="stroke" stroke-width="1"
	d="M236.44 320.00v-62.00"/>
<path class="stroke" stroke-width="1"
	d="M339.14 258.00v-24.00"/>
<path class="stroke" stroke-width="1"
	d="M339.14 320.00v-62.00"/>
<path class="stroke" stroke-width="1"
	d="M424.14 258.00v-24.00"/>
<path class="stroke" stroke-width="1"
	d="M424.14 320.00v-62.00"/>
<path class="stroke" stroke-width="1"
	d="M506.74 258.00v-24.00"/>
<path class="stroke" stroke-width="1"
	d="M506.74 320.00v-62.00"/>
<path class="stroke" stroke-width="1"
	d="M609.34 258.00v-24.00"/>
<path class="stroke" stroke-width="1"
	d="M609.34 320.00v-62.00"/>
<path class="stroke" stroke-width="1"
	d="M712.04 258.00v-24.00"/>
<path class="stroke" stroke-width="1"
	d="M712.04 320.00v-62.00"/>
<path class="stroke" stroke-width="1"
	d="M785.44 258.00v-24.00"/>
<path class="stroke" stroke-width="1"
	d="M785.44 320.00v-62.00"/>
<path class="stroke" stroke-width="3"
	d="M860.54 258.00v-24.00"/>
<path class="stroke" stroke-width="1"
	d="M856.04 258.00v-24.00"/>
<use x="852.04" y="258.00" xlink:href="#rdots"/>
<path class="stroke" stroke-width="3"
	d="M860.54 320.00v-62.00"/>
<path class="stroke" stroke-width="1"
	d="M856.04 320.00v-62.00"/>
<use x="852.04" y="320.00" xlink:href="#rdots"/>
<path d="m11.54 258.00
	h850.50
	M11.54 252.00
	h850.50
	M11.54 246.00
	h850.50
	M11.54 240.00
	h850.50
	M11.54 234.00
	h850.50
	" class="stroke"/>
<path d="m11.54 320.00
	h850.50
	M11.54 314.00
	h850.50
	M11.54 308.00
	h850.50
	M11.54 302.00
	h850.50
	M11.54 296.00
	h850.50
	" class="stroke"/>
<text x="47.54" y="219.40">2</text>
<path class="stroke"
	d="M43.54 208.00m0 20v-20h91.90v20"/>
<use x="23.54" y="252.00" xlink:href="#tclef"/>
<use x="56.04" y="231.00" xlink:href="#hd"/>
<path d="M52.54 231.00v40.00" class="stroke"/>
<use x="56.04" y="252.00" xlink:href="#hd"/>
<use x="56.04" y="246.00" xlink:href="#hd"/>
<use x="56.04" y="240.00" xlink:href="#hd"/>
<use x="111.44" y="246.00" xlink:href="#r8"/>
<path class="fill"
	d="M162.14 272.60l54.00 -4.60v-3.20l-54.00 4.60"/>
<path class="fill"
	d="M162.44 267.50l15.50 -1.30v-3.20l-15.50 1.30"/>
<use x="165.94" y="240.00" xlink:href="#hd"/>
<path d="M162.44 240.00v31.50" class="stroke"/>
<use x="181.44" y="249.00" xlink:href="#hd"/>
<path d="M177.94 249.00v21.20" class="stroke"/>
<use x="197.04" y="240.00" xlink:href="#hd"/>
<path d="M193.54 240.00v28.90" class="stroke"/>
<use x="219.24" y="234.00" xlink:href="#hd"/>
<use x="210.24" y="234.00" xlink:href="#sh0"/>
<path d="M215.74 234.00v33.00" class="stroke"/>
<path class="fill"
	d="M245.04 260.00l78.40 0.00v-3.20l-78.40 -0.00"/>
<path class="fill"
	d="M245.44 255.00l77.70 0.00v-3.20l-77.70 -0.00"/>
<use x="248.94" y="231.00" xlink:href="#hd"/>
<path d="M245.44 231.00v28.00" class="stroke"/>
<use x="264.44" y="240.00" xlink:href="#hd"/>
<path d="M260.94 240.00v19.00" class="stroke"/>
<use x="280.04" y="231.00" xlink:href="#hd"/>
<path d="M276.54 231.00v28.00" class="stroke"/>
<use x="295.54" y="228.00" xlink:href="#hl"/>
<use x="295.54" y="225.00" xlink:href="#hd"/>
<path d="M292.04 225.00v34.00" class="stroke"/>
<use x="311.04" y="231.00" xlink:href="#hd"/>
<path d="M307.54 231.00v28.00" class="stroke"/>
<use x="326.64" y="240.00" xlink:href="#hd"/>
<path d="M323.14 240.00v19.00" class="stroke"/>
<path class="fill"
	d="M347.74 265.40l31.80 5.80v-3.20l-31.80 -5.80"/>
<path class="fill"
	d="M348.14 260.50l15.50 2.80v-3.20l-15.50 -2.80"/>
<use x="351.64" y="237.00" xlink:href="#hd"/>
<path d="M348.14 237.00v27.50" class="stroke"/>
<use x="367.14" y="243.00" xlink:href="#hd"/>
<path d="M363.64 243.00v24.40" class="stroke"/>
<use x="382.64" y="252.00" xlink:href="#hd"/>
<path d="M379.14 252.00v18.20" class="stroke"/>
<use x="406.84" y="237.00" xlink:href="#hd"/>
<path d="M403.34 237.00v21.00" class="stroke"/>
<path class="fill"
	d="M403.34 258.00c0.6 -5.6 9.6 -9 5.6 -18.4
	1.6 6 -1.3 11.6 -5.6 12.8
"/>
<path class="fill"
	d="M432.74 264.20l53.60 0.00v-3.20l-53.60 -0.00"/>
<path class="fill"
	d="M454.94 259.20l15.50 0.00v-3.20l-15.50 -0.00"/>
<use x="436.64" y="240.00" xlink:href="#hd"/>
<path d="M433.14 240.00v23.20" class="stroke"/>
<use x="436.64" y="246.00" xlink:href="#hd"/>
<use x="458.44" y="231.00" xlink:href="#hd"/>
<path d="M454.94 231.00v32.20" class="stroke"/>
<use x="473.94" y="228.00" xlink:href="#hl"/>
<use x="473.94" y="225.00" xlink:href="#hd"/>
<path d="M470.44 225.00v38.20" class="stroke"/>
<use x="489.44" y="240.00" xlink:href="#hd"/>
<path d="M485.94 240.00v23.20" class="stroke"/>
<path class="fill"
	d="M515.34 275.50l78.40 -6.30v-3.20l-78.40 6.30"/>
<path class="fill"
	d="M515.74 270.50l77.70 -6.30v-3.20l-77.70 6.30"/>
<use x="519.24" y="243.00" xlink:href="#hd"/>
<path d="M515.74 243.00v31.50" class="stroke"/>
<use x="534.74" y="252.00" xlink:href="#hd"/>
<path d="M531.24 252.00v21.20" class="stroke"/>
<use x="550.24" y="237.00" xlink:href="#hd"/>
<path d="M546.74 237.00v34.90" class="stroke"/>
<use x="565.84" y="243.00" xlink:href="#hd"/>
<path d="M562.34 243.00v27.70" class="stroke"/>
<use x="581.34" y="231.00" xlink:href="#hd"/>
<path d="M577.84 231.00v38.40" class="stroke"/>
<use x="596.84" y="237.00" xlink:href="#hd"/>
<path d="M593.34 237.00v31.20" class="stroke"/>
<path class="fill"
	d="M618.04 274.20l78.40 0.00v-3.20l-78.40 -0.00"/>
<path class="fill"
	d="M618.34 269.20l77.70 0.00v-3.20l-77.70 -0.00"/>
<use x="621.84" y="243.00" xlink:href="#hd"/>
<path d="M618.34 243.00v30.20" class="stroke"/>
<use x="637.44" y="246.00" xlink:href="#hd"/>
<path d="M633.94 246.00v27.20" class="stroke"/>
<use x="652.94" y="243.00" xlink:href="#hd"/>
<path d="M649.44 243.00v30.20" class="stroke"/>
<use x="668.44" y="237.00" xlink:href="#hd"/>
<path d="M664.94 237.00v36.20" class="stroke"/>
<use x="684.04" y="252.00" xlink:href="#hd"/>
<path d="M680.54 252.00v21.20" class="stroke"/>
<use x="699.54" y="243.00" xlink:href="#hd"/>
<path d="M696.04 243.00v30.20" class="stroke"/>
<path class="fill"
	d="M720.74 258.20l44.30 0.00v-3.20l-44.30 -0.00"/>
<use x="724.54" y="234.00" xlink:href="#hd"/>
<path d="M721.04 234.00v23.20" class="stroke"/>
<use x="746.34" y="240.00" xlink:href="#hd"/>
<path d="M742.84 240.00v17.20" class="stroke"/>
<use x="768.24" y="231.00" xlink:href="#hd"/>
<path d="M764.74 231.00v26.20" class="stroke"/>
<use x="797.94" y="243.00" xlink:href="#hd"/>
<path d="M794.44 243.00v21.00" class="stroke"/>
<use x="841.54" y="246.00" xlink:href="#r8"/>
<use x="23.54" y="302.00" xlink:href="#bclef"/>
<path class="fill"
	d="M52.24 339.20l71.60 -5.10v-3.20l-71.60 5.10"/>
<path class="fill"
	d="M74.34 332.60l49.10 -3.50v-3.20l-49.10 3.50"/>
<use x="56.04" y="320.00" xlink:href="#hd"/>
<path d="M52.54 320.00v18.20" class="stroke"/>
<use x="77.84" y="293.00" xlink:href="#hd"/>
<path d="M74.34 293.00v43.60" class="stroke"/>
<use x="93.44" y="299.00" xlink:href="#hd"/>
<path d="M89.94 299.00v36.50" class="stroke"/>
<use x="111.44" y="302.00" xlink:href="#hd"/>
<use x="102.44" y="302.00" xlink:href="#sh0"/>
<path d="M107.94 302.00v32.20" class="stroke"/>
<use x="126.94" y="305.00" xlink:href="#hd"/>
<path d="M123.44 305.00v28.10" class="stroke"/>
<use x="165.94" y="302.00" xlink:href="#hd"/>
<use x="156.94" y="302.00" xlink:href="#sh0"/>
<path d="M169.44 302.00v-21.00" class="stroke"/>
<use x="219.24" y="308.00" xlink:href="#r8"/>
<use x="248.94" y="314.00" xlink:href="#hd"/>
<path d="M252.44 314.00v-25.00" class="stroke"/>
<use x="248.94" y="308.00" xlink:href="#hd"/>
<use x="311.04" y="314.00" xlink:href="#hd"/>
<path d="M314.54 314.00v-25.00" class="stroke"/>
<path class="fill"
	d="M314.54 289.00c0.6 5.6 9.6 9 5.6 18.4
	1.6 -6 -1.3 -11.6 -5.6 -12.8
"/>
<use x="311.04" y="308.00" xlink:href="#hd"/>
<use x="351.64" y="299.00" xlink:href="#hd"/>
<path d="M348.14 299.00v31.00" class="stroke"/>
<use x="351.64" y="311.00" xlink:href="#hd"/>
<use x="406.84" y="299.00" xlink:href="#hd"/>
<path d="M403.34 299.00v31.00" class="stroke"/>
<path class="fill"
	d="M403.34 330.00c0.6 -5.6 9.6 -9 5.6 -18.4
	1.6 6 -1.3 11.6 -5.6 12.8
"/>
<use x="406.84" y="311.00" xlink:href="#hd"/>
<use x="436.64" y="320.00" xlink:href="#hd"/>
<path d="M440.14 320.00v-40.00" class="stroke"/>
<use x="436.64" y="299.00" xlink:href="#hd"/>
<use x="489.44" y="299.00" xlink:href="#hd"/>
<path d="M485.94 299.00v21.00" class="stroke"/>
<path class="fill"
	d="M485.94 320.00c0.6 -5.6 9.6 -9 5.6 -18.4
	1.6 6 -1.3 11.6 -5.6 12.8
"/>
<use x="519.24" y="305.00" xlink:href="#hd"/>
<path d="M515.74 305.00v25.00" class="stroke"/>
<use x="519.24" y="311.00" xlink:href="#hd"/>
<use x="581.34" y="308.00" xlink:href="#r8"/>
<use x="621.84" y="305.00" xlink:href="#hd"/>
<path d="M618.34 305.00v25.00" class="stroke"/>
<use x="621.84" y="311.00" xlink:href="#hd"/>
<use x="684.04" y="305.00" xlink:href="#hd"/>
<path d="M680.54 305.00v25.00" class="stroke"/>
<path class="fill"
	d="M680.54 330.00c0.6 -5.6 9.6 -9 5.6 -18.4
	1.6 6 -1.3 11.6 -5.6 12.8
"/>
<use x="684.04" y="311.00" xlink:href="#hd"/>
<path class="fill"
	d="M720.74 327.20l44.30 0.00v-3.20l-44.30 -0.00"/>
<use x="724.54" y="302.00" xlink:href="#hd"/>
<path d="M721.04 302.00v24.20" class="stroke"/>
<use x="746.34" y="308.00" xlink:href="#hd"/>
<path d="M742.84 308.00v18.20" class="stroke"/>
<use x="768.24" y="299.00" xlink:href="#hd"/>
<path d="M764.74 299.00v27.20" class="stroke"/>
<path class="fill"
	d="M801.04 291.70l44.30 10.00v3.20l-44.30 -10.00"/>
<use x="797.94" y="311.00" xlink:href="#hd"/>
<path d="M801.44 311.00v-18.20" class="stroke"/>
<use x="819.74" y="320.00" xlink:href="#hd"/>
<path d="M823.24 320.00v-22.30" class="stroke"/>
<use x="841.54" y="326.00" xlink:href="#hl"/>
<use x="841.54" y="332.00" xlink:href="#hl"/>
<use x="841.54" y="332.00" xlink:href="#hd"/>
<path d="M845.04 332.00v-29.30" class="stroke"/>
<use x="165.94" y="308.00" xlink:href="#hd"/>
<path d="M162.44 308.00v21.00" class="stroke"/>
</g>
</svg>
