<?xml version="1.0" standalone="no"?>
<!DOCTYPE svg PUBLIC "-//W3C//DTD SVG 1.1//EN"
	"http://www.w3.org/Graphics/SVG/1.1/DTD/svg11.dtd">
<svg xmlns="http://www.w3.org/2000/svg" version="1.1"
	xmlns:xlink="http://www.w3.org/1999/xlink"
	color="black"
	width="757.10px" height="296.40px">
<style type="text/css">
.fill {fill: currentColor}
.stroke {stroke: currentColor; fill: none}
text{white-space: pre}
</style>
<title>./K516f-10-12-5-6-10-6-5-6-7-5-7-2-4-3-3-9.abc (3824) tune 1</title>
<!-- Creator: abcm2ps-8.13.8 -->
<!-- CreationDate: Sep  7, 2017 11:17 -->
<!-- CommandLine: ./K516f-10-12-5-6-10-6-5-6-7-5-7-2-4-3-3-9.abc -O ./K516f-10-12-5-6-10-6-5-6-7-5-7-2-4-3-3-9.svg -g -->
<rect width="100%" height="100%" fill="white"/>
<g stroke-width="0.70" transform="scale(0.867)">
<!-- title: 10-12-5-6-10-6-5-6-7-5-7-2-4-3-3-9 -->
</g>
<g stroke-width="0.70" transform="scale(0.867)" font-family="Times" font-size="20.00">
<text x="436.84" y="22.00" text-anchor="middle">10-12-5-6-10-6-5-6-7-5-7-2-4-3-3-9</text>
</g>
<g stroke-width="0.70" transform="scale(0.867)" font-family="Times" font-size="20.00">
<!-- subtitle: $1K.516f::98:130:113:45:75:97:159:107:138:176:150:9:73:18:116:111::$0 -->
</g>
<g stroke-width="0.70" transform="scale(0.867)" font-family="Courier" font-size="8.00" font-weight="bold">
<text x="436.84" y="41.80" text-anchor="middle">K.516f::98:130:113:45:75:97:159:107:138:176:150:9:73:18:116:111::</text>
</g>
<g stroke-width="0.70" transform="scale(0.867)" font-family="Courier" font-size="8.00" font-weight="bold">
<!-- subtitle: $1Perm. No.: 38244300194648$0 -->
<text x="436.84" y="60.80" text-anchor="middle">Perm. No.: 38244300194648</text>
</g>
<g stroke-width="0.70" transform="scale(0.607)" font-family="Courier" font-size="8.00" font-weight="bold">
<defs>
<ellipse id="hd" rx="4.1" ry="2.9"
	transform="rotate(-20)" class="fill"/>
</defs>
<use x="103.06" y="121.29" xlink:href="#hd"/>
<path d="M106.56 121.29v-21.00" class="stroke"/>
<path class="fill"
	d="M106.56 100.29c0.6 5.6 9.6 9 5.6 18.4
	1.6 -6 -1.3 -11.6 -5.6 -12.8
"/>
</g>
<g stroke-width="0.70" transform="scale(0.867)" font-family="Times" font-size="15.00" font-weight="bold">
<text x="81.24" y="87.00">= 111</text>
<path class="stroke" stroke-width="1"
	d="M11.54 183.00v-82.00"/>
<path class="fill"
	d="M6.54 98.00
	c10.5 1 12 -4.5 12 -3.5c0 1 -3.5 5.5 -8.5 5.5
	v84.00
	c5 0 8.5 4.5 8.5 5.5c0 1 -1.5 -4.5 -12 -3.5"/>
<defs>
<g id="rdots" class="fill">
	<circle cx="0" cy="-9" r="1.2"/>
	<circle cx="0" cy="-15" r="1.2"/>
</g>
</defs>
<use x="70.54" y="125.00" xlink:href="#rdots"/>
<path class="stroke" stroke-width="1"
	d="M66.54 125.00v-24.00"/>
<path class="stroke" stroke-width="3"
	d="M62.04 125.00v-24.00"/>
<use x="70.54" y="183.00" xlink:href="#rdots"/>
<path class="stroke" stroke-width="1"
	d="M66.54 183.00v-58.00"/>
<path class="stroke" stroke-width="3"
	d="M62.04 183.00v-58.00"/>
<path class="stroke" stroke-width="1"
	d="M182.14 125.00v-24.00"/>
<path class="stroke" stroke-width="1"
	d="M182.14 183.00v-58.00"/>
<path class="stroke" stroke-width="1"
	d="M261.44 125.00v-24.00"/>
<path class="stroke" stroke-width="1"
	d="M261.44 183.00v-58.00"/>
<path class="stroke" stroke-width="1"
	d="M340.84 125.00v-24.00"/>
<path class="stroke" stroke-width="1"
	d="M340.84 183.00v-58.00"/>
<path class="stroke" stroke-width="1"
	d="M451.44 125.00v-24.00"/>
<path class="stroke" stroke-width="1"
	d="M451.44 183.00v-58.00"/>
<path class="stroke" stroke-width="1"
	d="M535.94 125.00v-24.00"/>
<path class="stroke" stroke-width="1"
	d="M535.94 183.00v-58.00"/>
<path class="stroke" stroke-width="1"
	d="M647.74 125.00v-24.00"/>
<path class="stroke" stroke-width="1"
	d="M647.74 183.00v-58.00"/>
<path class="stroke" stroke-width="1"
	d="M758.34 125.00v-24.00"/>
<path class="stroke" stroke-width="1"
	d="M758.34 183.00v-58.00"/>
<path class="stroke" stroke-width="3"
	d="M860.54 125.00v-24.00"/>
<path class="stroke" stroke-width="1"
	d="M856.04 125.00v-24.00"/>
<use x="852.04" y="125.00" xlink:href="#rdots"/>
<path class="stroke" stroke-width="3"
	d="M860.54 183.00v-58.00"/>
<path class="stroke" stroke-width="1"
	d="M856.04 183.00v-58.00"/>
<use x="852.04" y="183.00" xlink:href="#rdots"/>
<path d="m11.54 125.00
	h850.50
	M11.54 119.00
	h850.50
	M11.54 113.00
	h850.50
	M11.54 107.00
	h850.50
	M11.54 101.00
	h850.50
	" class="stroke"/>
<path d="m11.54 183.00
	h850.50
	M11.54 177.00
	h850.50
	M11.54 171.00
	h850.50
	M11.54 165.00
	h850.50
	M11.54 159.00
	h850.50
	" class="stroke"/>
</g>
<g stroke-width="0.70" transform="scale(0.867)" font-family="Times" font-size="13.00">
<text x="762.34" y="86.40">1</text>
<path class="stroke"
	d="M758.34 75.00m0 20v-20h95.70v20"/>
<defs>
<path id="utclef" class="fill" d="m-50 -90
	c-72 -41 -72 -158 52 -188
	150 -10 220 188 90 256
	-114 52 -275 0 -293 -136
	-15 -181 93 -229 220 -334
	88 -87 79 -133 62 -210
	-51 33 -94 105 -89 186
	17 267 36 374 49 574
	6 96 -19 134 -77 135
	-80 1 -126 -93 -61 -133
	85 -41 133 101 31 105
	23 17 92 37 90 -92
	-10 -223 -39 -342 -50 -617
	0 -90 0 -162 96 -232
	56 72 63 230 22 289
	-74 106 -257 168 -255 316
	9 153 148 185 252 133
	86 -65 29 -192 -80 -176
	-71 12 -105 67 -59 124"/>
<use id="tclef" transform="translate(0,6) scale(0.045)"
	xlink:href="#utclef"/>
</defs>
<use x="23.54" y="119.00" xlink:href="#tclef"/>
<g font-family="serif" font-size="16" font-weight="bold" font-style="normal"
	transform="translate(42.04,124.50) scale(1.2,1)">
	<text text-anchor="middle">8</text>
	<text y="-12" text-anchor="middle">3</text>
</g>
<path class="fill"
	d="M81.04 139.80l67.90 -3.30v-3.20l-67.90 3.30"/>
<use x="84.84" y="110.00" xlink:href="#hd"/>
<path d="M81.34 110.00v28.80" class="stroke"/>
<use x="118.54" y="119.00" xlink:href="#hd"/>
<path d="M115.04 119.00v18.20" class="stroke"/>
<use x="152.14" y="104.00" xlink:href="#hd"/>
<path d="M148.64 104.00v31.60" class="stroke"/>
<path class="fill"
	d="M198.64 91.00l48.10 0.00v3.20l-48.10 -0.00"/>
<use x="195.44" y="125.00" xlink:href="#hd"/>
<path d="M198.94 125.00v-33.00" class="stroke"/>
<use x="195.44" y="110.00" xlink:href="#hd"/>
<use x="219.24" y="125.00" xlink:href="#hd"/>
<path d="M222.74 125.00v-33.00" class="stroke"/>
<use x="219.24" y="110.00" xlink:href="#hd"/>
<use x="242.94" y="125.00" xlink:href="#hd"/>
<path d="M246.44 125.00v-33.00" class="stroke"/>
<use x="242.94" y="110.00" xlink:href="#hd"/>
<path class="fill"
	d="M270.94 124.20l48.10 8.10v-3.20l-48.10 -8.10"/>
<use x="274.84" y="101.00" xlink:href="#hd"/>
<path d="M271.34 101.00v22.20" class="stroke"/>
<use x="298.54" y="107.00" xlink:href="#hd"/>
<path d="M295.04 107.00v20.20" class="stroke"/>
<use x="322.24" y="113.00" xlink:href="#hd"/>
<path d="M318.74 113.00v18.20" class="stroke"/>
<path class="fill"
	d="M357.34 83.80l84.80 9.90v3.20l-84.80 -9.90"/>
<path class="fill"
	d="M357.64 88.90l84.10 9.80v3.20l-84.10 -9.80"/>
<use x="354.14" y="110.00" xlink:href="#hd"/>
<path d="M357.64 110.00v-25.10" class="stroke"/>
<use x="370.94" y="113.00" xlink:href="#hd"/>
<path d="M374.44 113.00v-26.20" class="stroke"/>
<use x="387.74" y="110.00" xlink:href="#hd"/>
<path d="M391.24 110.00v-21.20" class="stroke"/>
<use x="404.64" y="119.00" xlink:href="#hd"/>
<path d="M408.14 119.00v-28.20" class="stroke"/>
<use x="421.44" y="125.00" xlink:href="#hd"/>
<path d="M424.94 125.00v-32.30" class="stroke"/>
<defs>
<path id="hl" class="stroke" d="m-6 0h12"/>
</defs>
<use x="438.24" y="131.00" xlink:href="#hl"/>
<use x="438.24" y="131.00" xlink:href="#hd"/>
<path d="M441.74 131.00v-36.30" class="stroke"/>
<path class="fill"
	d="M466.04 125.20l48.10 0.00v-3.20l-48.10 -0.00"/>
<use x="469.94" y="101.00" xlink:href="#hd"/>
<defs>
<path id="usharp" class="fill" d="
	m136 -702
	v890
	h32
	v-890
	m128 840
	h32
	v-888
	h-32
	m-232 286
	v116
	l338 -96
	v-116
	m-338 442
	v116
	l338 -98
	v-114"/>
<use id="sh0" transform="translate(-4,5) scale(0.018)"
	xlink:href="#usharp"/>
</defs>
<use x="460.94" y="101.00" xlink:href="#sh0"/>
<path d="M466.44 101.00v23.20" class="stroke"/>
<use x="469.94" y="107.00" xlink:href="#hd"/>
<use x="493.64" y="101.00" xlink:href="#hd"/>
<path d="M490.14 101.00v23.20" class="stroke"/>
<use x="493.64" y="107.00" xlink:href="#hd"/>
<use x="517.34" y="101.00" xlink:href="#hd"/>
<path d="M513.84 101.00v23.20" class="stroke"/>
<use x="517.34" y="107.00" xlink:href="#hd"/>
<path class="fill"
	d="M545.44 131.30l85.90 10.00v-3.20l-85.90 -10.00"/>
<path class="fill"
	d="M545.74 126.30l85.30 9.90v-3.20l-85.30 -9.90"/>
<use x="549.24" y="98.00" xlink:href="#hd"/>
<path d="M545.74 98.00v32.30" class="stroke"/>
<use x="567.24" y="101.00" xlink:href="#hd"/>
<use x="558.24" y="101.00" xlink:href="#sh0"/>
<path d="M563.74 101.00v31.40" class="stroke"/>
<use x="584.04" y="98.00" xlink:href="#hd"/>
<path d="M580.54 98.00v36.30" class="stroke"/>
<use x="600.94" y="107.00" xlink:href="#hd"/>
<path d="M597.44 107.00v29.30" class="stroke"/>
<use x="617.74" y="113.00" xlink:href="#hd"/>
<path d="M614.24 113.00v25.20" class="stroke"/>
<use x="634.54" y="119.00" xlink:href="#hd"/>
<path d="M631.04 119.00v21.20" class="stroke"/>
<path class="fill"
	d="M657.24 130.60l84.80 7.60v-3.20l-84.80 -7.60"/>
<path class="fill"
	d="M657.54 125.60l84.10 7.60v-3.20l-84.10 -7.60"/>
<use x="661.04" y="104.00" xlink:href="#hd"/>
<path d="M657.54 104.00v25.60" class="stroke"/>
<use x="677.84" y="98.00" xlink:href="#hd"/>
<path d="M674.34 98.00v33.10" class="stroke"/>
<use x="694.64" y="107.00" xlink:href="#hd"/>
<path d="M691.14 107.00v25.60" class="stroke"/>
<use x="711.54" y="110.00" xlink:href="#hd"/>
<path d="M708.04 110.00v24.20" class="stroke"/>
<use x="728.34" y="113.00" xlink:href="#hd"/>
<path d="M724.84 113.00v22.70" class="stroke"/>
<use x="745.14" y="116.00" xlink:href="#hd"/>
<path d="M741.64 116.00v21.20" class="stroke"/>
<use x="771.64" y="98.00" xlink:href="#hd"/>
<path d="M768.14 98.00v40.00" class="stroke"/>
<use x="771.64" y="119.00" xlink:href="#hd"/>
<use x="771.64" y="113.00" xlink:href="#hd"/>
<use x="771.64" y="107.00" xlink:href="#hd"/>
<defs>
<path id="r8e" class="fill" d="m 0 0
	c-1.5 1.5 -2.4 2 -3.6 2
	2.4 -2.8 -2.8 -4 -2.8 -1.2
	c0 2.7 4.3 2.4 5.9 0.6"/>
<g id="r8">
	<path d="m3.3 -4l-3.4 9.6" class="stroke"/>
	<use x="3.4" y="-4" xlink:href="#r8e"/>
</g>
</defs>
<use x="830.24" y="113.00" xlink:href="#r8"/>
<defs>
<path id="ubclef" class="fill" d="m-200 -87
	c124 -35 222 -78 254 -236
	43 -228 -167 -246 -192 -103
	59 -80 157 22 92 78
	-62 47 -115 -22 -106 -88
	21 -141 270 -136 274 52
	-1 175 -106 264 -322 297
	m357 -250
	c0 -36 51 -34 51 0
	0 37 -51 36 -51 0
	m-2 -129
	c0 -36 51 -34 51 0
	0 38 -51 37 -51 0"/>
<use id="bclef" transform="translate(0,18) scale(0.045)"
	xlink:href="#ubclef"/>
</defs>
<use x="23.54" y="165.00" xlink:href="#bclef"/>
<g font-family="serif" font-size="16" font-weight="bold" font-style="normal"
	transform="translate(42.04,182.50) scale(1.2,1)">
	<text text-anchor="middle">8</text>
	<text y="-12" text-anchor="middle">3</text>
</g>
<path class="fill"
	d="M81.04 190.90l84.80 0.00v-3.20l-84.80 -0.00"/>
<path class="fill"
	d="M81.34 185.90l84.10 0.00v-3.20l-84.10 -0.00"/>
<use x="84.84" y="168.00" xlink:href="#hd"/>
<path d="M81.34 168.00v21.90" class="stroke"/>
<use x="84.84" y="174.00" xlink:href="#hd"/>
<use x="101.74" y="162.00" xlink:href="#hd"/>
<path d="M98.24 162.00v27.90" class="stroke"/>
<use x="118.54" y="168.00" xlink:href="#hd"/>
<path d="M115.04 168.00v21.90" class="stroke"/>
<use x="118.54" y="174.00" xlink:href="#hd"/>
<use x="135.34" y="162.00" xlink:href="#hd"/>
<path d="M131.84 162.00v27.90" class="stroke"/>
<use x="152.14" y="168.00" xlink:href="#hd"/>
<path d="M148.64 168.00v21.90" class="stroke"/>
<use x="152.14" y="174.00" xlink:href="#hd"/>
<use x="168.94" y="162.00" xlink:href="#hd"/>
<path d="M165.44 162.00v27.90" class="stroke"/>
<path class="fill"
	d="M198.64 153.00l48.10 0.00v3.20l-48.10 -0.00"/>
<use x="195.44" y="174.00" xlink:href="#hd"/>
<path d="M198.94 174.00v-20.00" class="stroke"/>
<use x="219.24" y="174.00" xlink:href="#hd"/>
<path d="M222.74 174.00v-20.00" class="stroke"/>
<use x="242.94" y="174.00" xlink:href="#hd"/>
<path d="M246.44 174.00v-20.00" class="stroke"/>
<use x="274.84" y="156.00" xlink:href="#hd"/>
<path d="M271.34 156.00v25.00" class="stroke"/>
<use x="274.84" y="162.00" xlink:href="#hd"/>
<use x="322.24" y="171.00" xlink:href="#r8"/>
<use x="354.14" y="162.00" xlink:href="#hd"/>
<path d="M350.64 162.00v25.00" class="stroke"/>
<use x="354.14" y="168.00" xlink:href="#hd"/>
<use x="421.44" y="171.00" xlink:href="#r8"/>
<path class="fill"
	d="M473.04 153.00l48.10 0.00v3.20l-48.10 -0.00"/>
<use x="469.94" y="174.00" xlink:href="#hd"/>
<path d="M473.44 174.00v-20.00" class="stroke"/>
<use x="493.64" y="174.00" xlink:href="#hd"/>
<path d="M497.14 174.00v-20.00" class="stroke"/>
<use x="517.34" y="174.00" xlink:href="#hd"/>
<path d="M520.84 174.00v-20.00" class="stroke"/>
<use x="549.24" y="177.00" xlink:href="#hd"/>
<path d="M552.74 177.00v-25.00" class="stroke"/>
<use x="549.24" y="171.00" xlink:href="#hd"/>
<use x="617.74" y="162.00" xlink:href="#hd"/>
<path d="M614.24 162.00v34.00" class="stroke"/>
<path class="fill"
	d="M614.24 196.00c0.6 -5.6 9.6 -9 5.6 -18.4
	1.6 6 -1.3 11.6 -5.6 12.8
"/>
<use x="617.74" y="177.00" xlink:href="#hd"/>
<path class="fill"
	d="M664.24 147.70l67.90 8.30v3.20l-67.90 -8.30"/>
<use x="661.04" y="174.00" xlink:href="#hd"/>
<path d="M664.54 174.00v-25.30" class="stroke"/>
<use x="694.64" y="171.00" xlink:href="#hd"/>
<path d="M698.14 171.00v-18.20" class="stroke"/>
<use x="728.34" y="189.00" xlink:href="#hl"/>
<use x="728.34" y="192.00" xlink:href="#hd"/>
<path d="M731.84 192.00v-35.10" class="stroke"/>
<path class="fill"
	d="M767.84 202.20l76.00 0.00v-3.20l-76.00 -0.00"/>
<path class="fill"
	d="M791.84 197.20l51.60 0.00v-3.20l-51.60 -0.00"/>
<use x="771.64" y="183.00" xlink:href="#hd"/>
<path d="M768.14 183.00v18.20" class="stroke"/>
<use x="795.34" y="162.00" xlink:href="#hd"/>
<path d="M791.84 162.00v39.20" class="stroke"/>
<use x="813.34" y="165.00" xlink:href="#hd"/>
<defs>
<path id="unat" class="fill" d="
	m96 -750
	h-32
	v716
	l32 -8
	182 -54
	v282
	h32
	v-706
	l-34 10
	-180 50
	v-290
	m0 592
	v-190
	l182 -52
	v188"/>
<use id="nt0" transform="translate(-3,5) scale(0.018)"
	xlink:href="#unat"/>
</defs>
<use x="804.34" y="165.00" xlink:href="#nt0"/>
<path d="M809.84 165.00v36.20" class="stroke"/>
<use x="830.24" y="168.00" xlink:href="#hd"/>
<path d="M826.74 168.00v33.20" class="stroke"/>
<use x="847.04" y="171.00" xlink:href="#hd"/>
<path d="M843.54 171.00v30.20" class="stroke"/>
</g>
<g stroke-width="0.70" transform="scale(0.867)" font-family="Times" font-size="13.00">
<path class="stroke" stroke-width="1"
	d="M11.54 319.00v-85.00"/>
<path class="fill"
	d="M6.54 231.00
	c10.5 1 12 -4.5 12 -3.5c0 1 -3.5 5.5 -8.5 5.5
	v87.00
	c5 0 8.5 4.5 8.5 5.5c0 1 -1.5 -4.5 -12 -3.5"/>
<use x="142.74" y="258.00" xlink:href="#rdots"/>
<path class="stroke" stroke-width="1"
	d="M138.74 258.00v-24.00"/>
<path class="stroke" stroke-width="3"
	d="M134.24 258.00v-24.00"/>
<use x="142.74" y="319.00" xlink:href="#rdots"/>
<path class="stroke" stroke-width="1"
	d="M138.74 319.00v-61.00"/>
<path class="stroke" stroke-width="3"
	d="M134.24 319.00v-61.00"/>
<path class="stroke" stroke-width="1"
	d="M254.34 258.00v-24.00"/>
<path class="stroke" stroke-width="1"
	d="M254.34 319.00v-61.00"/>
<path class="stroke" stroke-width="1"
	d="M352.04 258.00v-24.00"/>
<path class="stroke" stroke-width="1"
	d="M352.04 319.00v-61.00"/>
<path class="stroke" stroke-width="1"
	d="M454.64 258.00v-24.00"/>
<path class="stroke" stroke-width="1"
	d="M454.64 319.00v-61.00"/>
<path class="stroke" stroke-width="1"
	d="M524.44 258.00v-24.00"/>
<path class="stroke" stroke-width="1"
	d="M524.44 319.00v-61.00"/>
<path class="stroke" stroke-width="1"
	d="M622.04 258.00v-24.00"/>
<path class="stroke" stroke-width="1"
	d="M622.04 319.00v-61.00"/>
<path class="stroke" stroke-width="1"
	d="M691.14 258.00v-24.00"/>
<path class="stroke" stroke-width="1"
	d="M691.14 319.00v-61.00"/>
<path class="stroke" stroke-width="1"
	d="M788.74 258.00v-24.00"/>
<path class="stroke" stroke-width="1"
	d="M788.74 319.00v-61.00"/>
<path class="stroke" stroke-width="3"
	d="M860.54 258.00v-24.00"/>
<path class="stroke" stroke-width="1"
	d="M856.04 258.00v-24.00"/>
<use x="852.04" y="258.00" xlink:href="#rdots"/>
<path class="stroke" stroke-width="3"
	d="M860.54 319.00v-61.00"/>
<path class="stroke" stroke-width="1"
	d="M856.04 319.00v-61.00"/>
<use x="852.04" y="319.00" xlink:href="#rdots"/>
<path d="m11.54 258.00
	h850.50
	M11.54 252.00
	h850.50
	M11.54 246.00
	h850.50
	M11.54 240.00
	h850.50
	M11.54 234.00
	h850.50
	" class="stroke"/>
<path d="m11.54 319.00
	h850.50
	M11.54 313.00
	h850.50
	M11.54 307.00
	h850.50
	M11.54 301.00
	h850.50
	M11.54 295.00
	h850.50
	" class="stroke"/>
<path class="fill"
	d="M634.54 241.00c5.71 -5.29 30.55 -10.49 36.26 -7.60
	v-0.24c-6.80 -4.66 -29.46 0.55 -36.26 7.84"/>
<text x="47.54" y="219.40">2</text>
<path class="stroke"
	d="M43.54 208.00m0 20v-20h88.20v20"/>
<use x="23.54" y="252.00" xlink:href="#tclef"/>
<use x="56.04" y="231.00" xlink:href="#hd"/>
<path d="M52.54 231.00v40.00" class="stroke"/>
<use x="56.04" y="252.00" xlink:href="#hd"/>
<use x="56.04" y="246.00" xlink:href="#hd"/>
<use x="56.04" y="240.00" xlink:href="#hd"/>
<use x="108.74" y="246.00" xlink:href="#r8"/>
<use x="162.24" y="234.00" xlink:href="#hd"/>
<use x="153.24" y="234.00" xlink:href="#sh0"/>
<path d="M158.74 234.00v34.00" class="stroke"/>
<path class="fill"
	d="M158.74 268.00c0.6 -5.6 9.6 -9 5.6 -18.4
	1.6 6 -1.3 11.6 -5.6 12.8
"/>
<use x="162.24" y="249.00" xlink:href="#hd"/>
<use x="162.24" y="240.00" xlink:href="#hd"/>
<use x="194.74" y="234.00" xlink:href="#hd"/>
<path d="M191.24 234.00v21.00" class="stroke"/>
<path class="fill"
	d="M263.04 260.00l73.30 0.00v-3.20l-73.30 -0.00"/>
<path class="fill"
	d="M263.34 255.00l72.70 0.00v-3.20l-72.70 -0.00"/>
<use x="266.84" y="228.00" xlink:href="#hl"/>
<use x="266.84" y="228.00" xlink:href="#hd"/>
<path d="M263.34 228.00v31.00" class="stroke"/>
<use x="281.34" y="231.00" xlink:href="#hd"/>
<path d="M277.84 231.00v28.00" class="stroke"/>
<use x="295.94" y="228.00" xlink:href="#hl"/>
<use x="295.94" y="225.00" xlink:href="#hd"/>
<path d="M292.44 225.00v34.00" class="stroke"/>
<use x="310.44" y="231.00" xlink:href="#hd"/>
<path d="M306.94 231.00v28.00" class="stroke"/>
<use x="324.94" y="240.00" xlink:href="#hd"/>
<path d="M321.44 240.00v19.00" class="stroke"/>
<use x="339.54" y="231.00" xlink:href="#hd"/>
<path d="M336.04 231.00v28.00" class="stroke"/>
<use x="364.54" y="237.00" xlink:href="#hd"/>
<path d="M361.04 237.00v34.00" class="stroke"/>
<path class="fill"
	d="M361.04 271.00c0.6 -5.6 9.6 -9 5.6 -18.4
	1.6 6 -1.3 11.6 -5.6 12.8
"/>
<use x="364.54" y="252.00" xlink:href="#hd"/>
<use x="364.54" y="243.00" xlink:href="#hd"/>
<use x="395.04" y="237.00" xlink:href="#hd"/>
<path d="M391.54 237.00v21.00" class="stroke"/>
<path class="fill"
	d="M463.34 262.30l20.80 2.40v-3.20l-20.80 -2.40"/>
<use x="467.14" y="237.00" xlink:href="#hd"/>
<path d="M463.64 237.00v24.30" class="stroke"/>
<use x="467.14" y="243.00" xlink:href="#hd"/>
<use x="487.24" y="240.00" xlink:href="#hd"/>
<path d="M483.74 240.00v23.70" class="stroke"/>
<use x="487.24" y="246.00" xlink:href="#hd"/>
<use x="507.44" y="246.00" xlink:href="#r8"/>
<path class="fill"
	d="M533.04 253.70l58.80 8.60v-3.20l-58.80 -8.60"/>
<use x="536.94" y="231.00" xlink:href="#hd"/>
<path d="M533.44 231.00v21.80" class="stroke"/>
<use x="565.94" y="237.00" xlink:href="#hd"/>
<path d="M562.44 237.00v20.00" class="stroke"/>
<use x="595.04" y="243.00" xlink:href="#hd"/>
<path d="M591.54 243.00v18.20" class="stroke"/>
<path class="fill"
	d="M630.74 271.30l40.90 -6.30v-3.20l-40.90 6.30"/>
<use x="634.54" y="252.00" xlink:href="#hd"/>
<path d="M631.04 252.00v18.20" class="stroke"/>
<use x="654.64" y="243.00" xlink:href="#hd"/>
<path d="M651.14 243.00v24.10" class="stroke"/>
<use x="674.84" y="237.00" xlink:href="#hd"/>
<path d="M671.34 237.00v27.00" class="stroke"/>
<path class="fill"
	d="M699.74 266.00l73.30 0.00v-3.20l-73.30 -0.00"/>
<path class="fill"
	d="M700.14 261.00l72.70 0.00v-3.20l-72.70 -0.00"/>
<use x="703.64" y="240.00" xlink:href="#hd"/>
<path d="M700.14 240.00v24.90" class="stroke"/>
<use x="718.14" y="234.00" xlink:href="#hd"/>
<path d="M714.64 234.00v30.90" class="stroke"/>
<use x="732.64" y="228.00" xlink:href="#hl"/>
<use x="732.64" y="228.00" xlink:href="#hd"/>
<path d="M729.14 228.00v36.90" class="stroke"/>
<use x="747.24" y="234.00" xlink:href="#hd"/>
<path d="M743.74 234.00v30.90" class="stroke"/>
<use x="761.74" y="240.00" xlink:href="#hd"/>
<path d="M758.24 240.00v24.90" class="stroke"/>
<use x="776.24" y="246.00" xlink:href="#hd"/>
<path d="M772.74 246.00v18.90" class="stroke"/>
<use x="801.24" y="243.00" xlink:href="#hd"/>
<path d="M797.74 243.00v21.00" class="stroke"/>
<use x="841.54" y="246.00" xlink:href="#r8"/>
<use x="23.54" y="301.00" xlink:href="#bclef"/>
<path class="fill"
	d="M52.24 338.20l67.90 -5.00v-3.20l-67.90 5.00"/>
<path class="fill"
	d="M72.64 331.70l47.10 -3.40v-3.20l-47.10 3.40"/>
<use x="56.04" y="319.00" xlink:href="#hd"/>
<path d="M52.54 319.00v18.20" class="stroke"/>
<use x="76.14" y="292.00" xlink:href="#hd"/>
<path d="M72.64 292.00v43.70" class="stroke"/>
<use x="90.74" y="298.00" xlink:href="#hd"/>
<path d="M87.24 298.00v36.70" class="stroke"/>
<use x="108.74" y="301.00" xlink:href="#hd"/>
<use x="99.74" y="301.00" xlink:href="#sh0"/>
<path d="M105.24 301.00v32.40" class="stroke"/>
<use x="123.24" y="304.00" xlink:href="#hd"/>
<path d="M119.74 304.00v28.30" class="stroke"/>
<path class="fill"
	d="M165.44 286.10l80.30 -6.90v3.20l-80.30 6.90"/>
<path class="fill"
	d="M165.74 291.00l79.60 -6.80v3.20l-79.60 6.80"/>
<use x="162.24" y="325.00" xlink:href="#hl"/>
<use x="162.24" y="328.00" xlink:href="#hd"/>
<path d="M165.74 328.00v-41.00" class="stroke"/>
<use x="176.74" y="307.00" xlink:href="#hd"/>
<path d="M180.24 307.00v-21.20" class="stroke"/>
<use x="194.74" y="310.00" xlink:href="#hd"/>
<use x="185.74" y="310.00" xlink:href="#sh0"/>
<path d="M198.24 310.00v-25.70" class="stroke"/>
<use x="209.34" y="307.00" xlink:href="#hd"/>
<path d="M212.84 307.00v-24.00" class="stroke"/>
<use x="227.34" y="310.00" xlink:href="#hd"/>
<use x="218.34" y="310.00" xlink:href="#sh0"/>
<path d="M230.84 310.00v-28.50" class="stroke"/>
<use x="241.84" y="307.00" xlink:href="#hd"/>
<path d="M245.34 307.00v-26.80" class="stroke"/>
<use x="266.84" y="313.00" xlink:href="#hd"/>
<path d="M270.34 313.00v-25.00" class="stroke"/>
<use x="266.84" y="307.00" xlink:href="#hd"/>
<use x="324.94" y="313.00" xlink:href="#hd"/>
<path d="M328.44 313.00v-25.00" class="stroke"/>
<path class="fill"
	d="M328.44 288.00c0.6 5.6 9.6 9 5.6 18.4
	1.6 -6 -1.3 -11.6 -5.6 -12.8
"/>
<use x="324.94" y="307.00" xlink:href="#hd"/>
<path class="fill"
	d="M367.64 278.80l78.30 0.00v3.20l-78.30 -0.00"/>
<path class="fill"
	d="M368.04 283.80l77.60 0.00v3.20l-77.60 -0.00"/>
<use x="364.54" y="310.00" xlink:href="#hd"/>
<path d="M368.04 310.00v-30.20" class="stroke"/>
<use x="379.04" y="313.00" xlink:href="#hd"/>
<path d="M382.54 313.00v-33.20" class="stroke"/>
<use x="395.04" y="310.00" xlink:href="#hd"/>
<path d="M398.54 310.00v-30.20" class="stroke"/>
<use x="409.64" y="307.00" xlink:href="#hd"/>
<path d="M413.14 307.00v-27.20" class="stroke"/>
<use x="424.14" y="304.00" xlink:href="#hd"/>
<path d="M427.64 304.00v-24.20" class="stroke"/>
<use x="442.14" y="301.00" xlink:href="#hd"/>
<use x="433.14" y="301.00" xlink:href="#sh0"/>
<path d="M445.64 301.00v-21.20" class="stroke"/>
<use x="467.14" y="298.00" xlink:href="#hd"/>
<path d="M463.64 298.00v21.00" class="stroke"/>
<use x="507.44" y="319.00" xlink:href="#hd"/>
<path d="M510.94 319.00v-21.00" class="stroke"/>
<path class="fill"
	d="M510.94 298.00c0.6 5.6 9.6 9 5.6 18.4
	1.6 -6 -1.3 -11.6 -5.6 -12.8
"/>
<path class="fill"
	d="M533.04 326.90l73.30 0.00v-3.20l-73.30 -0.00"/>
<path class="fill"
	d="M533.44 321.90l72.70 0.00v-3.20l-72.70 -0.00"/>
<use x="536.94" y="304.00" xlink:href="#hd"/>
<path d="M533.44 304.00v21.90" class="stroke"/>
<use x="536.94" y="310.00" xlink:href="#hd"/>
<use x="551.44" y="298.00" xlink:href="#hd"/>
<path d="M547.94 298.00v27.90" class="stroke"/>
<use x="565.94" y="304.00" xlink:href="#hd"/>
<path d="M562.44 304.00v21.90" class="stroke"/>
<use x="565.94" y="310.00" xlink:href="#hd"/>
<use x="580.54" y="298.00" xlink:href="#hd"/>
<path d="M577.04 298.00v27.90" class="stroke"/>
<use x="595.04" y="304.00" xlink:href="#hd"/>
<path d="M591.54 304.00v21.90" class="stroke"/>
<use x="595.04" y="310.00" xlink:href="#hd"/>
<use x="609.54" y="298.00" xlink:href="#hd"/>
<path d="M606.04 298.00v27.90" class="stroke"/>
<use x="634.54" y="304.00" xlink:href="#hd"/>
<path d="M631.04 304.00v25.00" class="stroke"/>
<use x="634.54" y="310.00" xlink:href="#hd"/>
<use x="674.84" y="298.00" xlink:href="#hd"/>
<path d="M671.34 298.00v31.00" class="stroke"/>
<path class="fill"
	d="M671.34 329.00c0.6 -5.6 9.6 -9 5.6 -18.4
	1.6 6 -1.3 11.6 -5.6 12.8
"/>
<use x="674.84" y="310.00" xlink:href="#hd"/>
<use x="703.64" y="301.00" xlink:href="#hd"/>
<path d="M700.14 301.00v21.00" class="stroke"/>
<use x="761.74" y="298.00" xlink:href="#hd"/>
<path d="M758.24 298.00v21.00" class="stroke"/>
<path class="fill"
	d="M758.24 319.00c0.6 -5.6 9.6 -9 5.6 -18.4
	1.6 6 -1.3 11.6 -5.6 12.8
"/>
<path class="fill"
	d="M804.44 290.70l40.90 9.70v3.20l-40.90 -9.70"/>
<use x="801.24" y="310.00" xlink:href="#hd"/>
<path d="M804.74 310.00v-18.20" class="stroke"/>
<use x="821.44" y="319.00" xlink:href="#hd"/>
<path d="M824.94 319.00v-22.40" class="stroke"/>
<use x="841.54" y="325.00" xlink:href="#hl"/>
<use x="841.54" y="331.00" xlink:href="#hl"/>
<use x="841.54" y="331.00" xlink:href="#hd"/>
<path d="M845.04 331.00v-29.70" class="stroke"/>
<defs>
<text id="trl" font-family="serif" font-size="16" font-style="italic"
	x="-2" y="-4">tr</text>
</defs>
<use x="194.74" y="228.00" xlink:href="#trl"/>
<use x="395.04" y="231.00" xlink:href="#trl"/>
</g>
</svg>
