<?xml version="1.0" standalone="no"?>
<!DOCTYPE svg PUBLIC "-//W3C//DTD SVG 1.1//EN"
	"http://www.w3.org/Graphics/SVG/1.1/DTD/svg11.dtd">
<svg xmlns="http://www.w3.org/2000/svg" version="1.1"
	xmlns:xlink="http://www.w3.org/1999/xlink"
	color="black"
	width="757.10px" height="303.33px">
<style type="text/css">
.fill {fill: currentColor}
.stroke {stroke: currentColor; fill: none}
text{white-space: pre}
</style>
<title>./K516f-2-7-4-5-9-2-2-9-4-3-10-10-11-9-3-10.abc (5928) tune 1</title>
<!-- Creator: abcm2ps-8.13.8 -->
<!-- CreationDate: Sep  7, 2017 11:20 -->
<!-- CommandLine: ./K516f-2-7-4-5-9-2-2-9-4-3-10-10-11-9-3-10.abc -O ./K516f-2-7-4-5-9-2-2-9-4-3-10-10-11-9-3-10.svg -g -->
<rect width="100%" height="100%" fill="white"/>
<g stroke-width="0.70" transform="scale(0.867)">
<!-- title: 2-7-4-5-9-2-2-9-4-3-10-10-11-9-3-10 -->
</g>
<g stroke-width="0.70" transform="scale(0.867)" font-family="Times" font-size="20.00">
<text x="436.84" y="22.00" text-anchor="middle">2-7-4-5-9-2-2-9-4-3-10-10-11-9-3-10</text>
</g>
<g stroke-width="0.70" transform="scale(0.867)" font-family="Times" font-size="20.00">
<!-- subtitle: $1K.516f::96:157:158:85:140:122:11:94:66:39:19:82:144:115:116:8::$0 -->
</g>
<g stroke-width="0.70" transform="scale(0.867)" font-family="Courier" font-size="8.00" font-weight="bold">
<text x="436.84" y="41.80" text-anchor="middle">K.516f::96:157:158:85:140:122:11:94:66:39:19:82:144:115:116:8::</text>
</g>
<g stroke-width="0.70" transform="scale(0.867)" font-family="Courier" font-size="8.00" font-weight="bold">
<!-- subtitle: $1Perm. No.: 59286132234814$0 -->
<text x="436.84" y="60.80" text-anchor="middle">Perm. No.: 59286132234814</text>
</g>
<g stroke-width="0.70" transform="scale(0.607)" font-family="Courier" font-size="8.00" font-weight="bold">
<defs>
<ellipse id="hd" rx="4.1" ry="2.9"
	transform="rotate(-20)" class="fill"/>
</defs>
<use x="103.06" y="121.29" xlink:href="#hd"/>
<path d="M106.56 121.29v-21.00" class="stroke"/>
<path class="fill"
	d="M106.56 100.29c0.6 5.6 9.6 9 5.6 18.4
	1.6 -6 -1.3 -11.6 -5.6 -12.8
"/>
</g>
<g stroke-width="0.70" transform="scale(0.867)" font-family="Times" font-size="15.00" font-weight="bold">
<text x="81.24" y="87.00">= 111</text>
<path class="stroke" stroke-width="1"
	d="M11.54 183.00v-82.00"/>
<path class="fill"
	d="M6.54 98.00
	c10.5 1 12 -4.5 12 -3.5c0 1 -3.5 5.5 -8.5 5.5
	v84.00
	c5 0 8.5 4.5 8.5 5.5c0 1 -1.5 -4.5 -12 -3.5"/>
<defs>
<g id="rdots" class="fill">
	<circle cx="0" cy="-9" r="1.2"/>
	<circle cx="0" cy="-15" r="1.2"/>
</g>
</defs>
<use x="70.54" y="125.00" xlink:href="#rdots"/>
<path class="stroke" stroke-width="1"
	d="M66.54 125.00v-24.00"/>
<path class="stroke" stroke-width="3"
	d="M62.04 125.00v-24.00"/>
<use x="70.54" y="183.00" xlink:href="#rdots"/>
<path class="stroke" stroke-width="1"
	d="M66.54 183.00v-58.00"/>
<path class="stroke" stroke-width="3"
	d="M62.04 183.00v-58.00"/>
<path class="stroke" stroke-width="1"
	d="M151.94 125.00v-24.00"/>
<path class="stroke" stroke-width="1"
	d="M151.94 183.00v-58.00"/>
<path class="stroke" stroke-width="1"
	d="M263.94 125.00v-24.00"/>
<path class="stroke" stroke-width="1"
	d="M263.94 183.00v-58.00"/>
<path class="stroke" stroke-width="1"
	d="M366.04 125.00v-24.00"/>
<path class="stroke" stroke-width="1"
	d="M366.04 183.00v-58.00"/>
<path class="stroke" stroke-width="1"
	d="M446.34 125.00v-24.00"/>
<path class="stroke" stroke-width="1"
	d="M446.34 183.00v-58.00"/>
<path class="stroke" stroke-width="1"
	d="M542.74 125.00v-24.00"/>
<path class="stroke" stroke-width="1"
	d="M542.74 183.00v-58.00"/>
<path class="stroke" stroke-width="1"
	d="M644.14 125.00v-24.00"/>
<path class="stroke" stroke-width="1"
	d="M644.14 183.00v-58.00"/>
<path class="stroke" stroke-width="1"
	d="M757.24 125.00v-24.00"/>
<path class="stroke" stroke-width="1"
	d="M757.24 183.00v-58.00"/>
<path class="stroke" stroke-width="3"
	d="M860.54 125.00v-24.00"/>
<path class="stroke" stroke-width="1"
	d="M856.04 125.00v-24.00"/>
<use x="852.04" y="125.00" xlink:href="#rdots"/>
<path class="stroke" stroke-width="3"
	d="M860.54 183.00v-58.00"/>
<path class="stroke" stroke-width="1"
	d="M856.04 183.00v-58.00"/>
<use x="852.04" y="183.00" xlink:href="#rdots"/>
<path d="m11.54 125.00
	h850.50
	M11.54 119.00
	h850.50
	M11.54 113.00
	h850.50
	M11.54 107.00
	h850.50
	M11.54 101.00
	h850.50
	" class="stroke"/>
<path d="m11.54 183.00
	h850.50
	M11.54 177.00
	h850.50
	M11.54 171.00
	h850.50
	M11.54 165.00
	h850.50
	M11.54 159.00
	h850.50
	" class="stroke"/>
</g>
<g stroke-width="0.70" transform="scale(0.867)" font-family="Times" font-size="13.00">
<text x="761.24" y="86.40">1</text>
<path class="stroke"
	d="M757.24 75.00m0 20v-20h96.80v20"/>
<defs>
<path id="utclef" class="fill" d="m-50 -90
	c-72 -41 -72 -158 52 -188
	150 -10 220 188 90 256
	-114 52 -275 0 -293 -136
	-15 -181 93 -229 220 -334
	88 -87 79 -133 62 -210
	-51 33 -94 105 -89 186
	17 267 36 374 49 574
	6 96 -19 134 -77 135
	-80 1 -126 -93 -61 -133
	85 -41 133 101 31 105
	23 17 92 37 90 -92
	-10 -223 -39 -342 -50 -617
	0 -90 0 -162 96 -232
	56 72 63 230 22 289
	-74 106 -257 168 -255 316
	9 153 148 185 252 133
	86 -65 29 -192 -80 -176
	-71 12 -105 67 -59 124"/>
<use id="tclef" transform="translate(0,6) scale(0.045)"
	xlink:href="#utclef"/>
</defs>
<use x="23.54" y="119.00" xlink:href="#tclef"/>
<g font-family="serif" font-size="16" font-weight="bold" font-style="normal"
	transform="translate(42.04,124.50) scale(1.2,1)">
	<text text-anchor="middle">8</text>
	<text y="-12" text-anchor="middle">3</text>
</g>
<path class="fill"
	d="M81.24 131.60l48.70 6.60v-3.20l-48.70 -6.60"/>
<use x="85.04" y="104.00" xlink:href="#hd"/>
<path d="M81.54 104.00v26.70" class="stroke"/>
<use x="109.04" y="110.00" xlink:href="#hd"/>
<path d="M105.54 110.00v23.90" class="stroke"/>
<use x="133.14" y="119.00" xlink:href="#hd"/>
<path d="M129.64 119.00v18.20" class="stroke"/>
<path class="fill"
	d="M161.54 130.50l85.90 -6.40v-3.20l-85.90 6.40"/>
<path class="fill"
	d="M161.94 125.50l85.20 -6.30v-3.20l-85.20 6.30"/>
<use x="165.44" y="104.00" xlink:href="#hd"/>
<path d="M161.94 104.00v25.50" class="stroke"/>
<use x="182.44" y="107.00" xlink:href="#hd"/>
<path d="M178.94 107.00v21.20" class="stroke"/>
<use x="199.54" y="104.00" xlink:href="#hd"/>
<path d="M196.04 104.00v22.90" class="stroke"/>
<use x="216.54" y="98.00" xlink:href="#hd"/>
<path d="M213.04 98.00v27.70" class="stroke"/>
<defs>
<path id="hl" class="stroke" d="m-6 0h12"/>
</defs>
<use x="233.54" y="95.00" xlink:href="#hl"/>
<use x="233.54" y="89.00" xlink:href="#hl"/>
<use x="233.54" y="89.00" xlink:href="#hd"/>
<path d="M230.04 89.00v35.40" class="stroke"/>
<use x="250.64" y="98.00" xlink:href="#hd"/>
<path d="M247.14 98.00v25.10" class="stroke"/>
<path class="fill"
	d="M280.64 84.80l75.80 0.00v3.20l-75.80 -0.00"/>
<path class="fill"
	d="M305.04 89.80l51.10 0.00v3.20l-51.10 -0.00"/>
<use x="277.54" y="113.00" xlink:href="#hd"/>
<path d="M281.04 113.00v-27.20" class="stroke"/>
<use x="301.54" y="107.00" xlink:href="#hd"/>
<path d="M305.04 107.00v-21.20" class="stroke"/>
<use x="318.54" y="113.00" xlink:href="#hd"/>
<path d="M322.04 113.00v-27.20" class="stroke"/>
<use x="335.64" y="116.00" xlink:href="#hd"/>
<path d="M339.14 116.00v-30.20" class="stroke"/>
<use x="352.64" y="119.00" xlink:href="#hd"/>
<path d="M356.14 119.00v-33.20" class="stroke"/>
<path class="fill"
	d="M375.64 133.80l48.70 4.50v-3.20l-48.70 -4.50"/>
<use x="379.54" y="110.00" xlink:href="#hd"/>
<path d="M376.04 110.00v22.80" class="stroke"/>
<use x="403.54" y="104.00" xlink:href="#hd"/>
<path d="M400.04 104.00v31.00" class="stroke"/>
<use x="427.54" y="119.00" xlink:href="#hd"/>
<path d="M424.04 119.00v18.20" class="stroke"/>
<path class="fill"
	d="M461.04 141.10l59.70 -7.20v-3.20l-59.70 7.20"/>
<path class="fill"
	d="M485.44 133.20l17.00 -2.10v-3.20l-17.00 2.10"/>
<use x="464.84" y="116.00" xlink:href="#hd"/>
<path d="M461.34 116.00v24.10" class="stroke"/>
<use x="488.94" y="116.00" xlink:href="#hd"/>
<path d="M485.44 116.00v21.20" class="stroke"/>
<use x="505.94" y="107.00" xlink:href="#hd"/>
<path d="M502.44 107.00v28.10" class="stroke"/>
<use x="523.94" y="101.00" xlink:href="#hd"/>
<defs>
<path id="usharp" class="fill" d="
	m136 -702
	v890
	h32
	v-890
	m128 840
	h32
	v-888
	h-32
	m-232 286
	v116
	l338 -96
	v-116
	m-338 442
	v116
	l338 -98
	v-114"/>
<use id="sh0" transform="translate(-4,5) scale(0.018)"
	xlink:href="#usharp"/>
</defs>
<use x="514.94" y="101.00" xlink:href="#sh0"/>
<path d="M520.44 101.00v32.00" class="stroke"/>
<path class="fill"
	d="M552.44 127.00l69.80 0.00v-3.20l-69.80 -0.00"/>
<path class="fill"
	d="M552.74 122.00l52.10 0.00v-3.20l-52.10 -0.00"/>
<use x="556.24" y="98.00" xlink:href="#hd"/>
<path d="M552.74 98.00v28.00" class="stroke"/>
<use x="574.24" y="101.00" xlink:href="#hd"/>
<use x="565.24" y="101.00" xlink:href="#sh0"/>
<path d="M570.74 101.00v25.00" class="stroke"/>
<use x="591.34" y="98.00" xlink:href="#hd"/>
<path d="M587.84 98.00v28.00" class="stroke"/>
<use x="608.34" y="95.00" xlink:href="#hl"/>
<use x="608.34" y="92.00" xlink:href="#hd"/>
<path d="M604.84 92.00v34.00" class="stroke"/>
<use x="625.34" y="107.00" xlink:href="#hd"/>
<path d="M621.84 107.00v19.00" class="stroke"/>
<path class="fill"
	d="M660.84 81.80l86.80 8.40v3.20l-86.80 -8.40"/>
<path class="fill"
	d="M661.14 86.80l86.10 8.30v3.20l-86.10 -8.30"/>
<use x="657.64" y="104.00" xlink:href="#hd"/>
<path d="M661.14 104.00v-21.20" class="stroke"/>
<use x="674.74" y="110.00" xlink:href="#hd"/>
<path d="M678.24 110.00v-25.60" class="stroke"/>
<use x="691.74" y="113.00" xlink:href="#hd"/>
<path d="M695.24 113.00v-26.90" class="stroke"/>
<use x="708.84" y="116.00" xlink:href="#hd"/>
<path d="M712.34 116.00v-28.30" class="stroke"/>
<use x="725.84" y="119.00" xlink:href="#hd"/>
<path d="M729.34 119.00v-29.60" class="stroke"/>
<use x="743.84" y="122.00" xlink:href="#hd"/>
<use x="734.84" y="122.00" xlink:href="#sh0"/>
<path d="M747.34 122.00v-30.90" class="stroke"/>
<use x="770.74" y="98.00" xlink:href="#hd"/>
<path d="M767.24 98.00v40.00" class="stroke"/>
<use x="770.74" y="119.00" xlink:href="#hd"/>
<use x="770.74" y="113.00" xlink:href="#hd"/>
<use x="770.74" y="107.00" xlink:href="#hd"/>
<defs>
<path id="r8e" class="fill" d="m 0 0
	c-1.5 1.5 -2.4 2 -3.6 2
	2.4 -2.8 -2.8 -4 -2.8 -1.2
	c0 2.7 4.3 2.4 5.9 0.6"/>
<g id="r8">
	<path d="m3.3 -4l-3.4 9.6" class="stroke"/>
	<use x="3.4" y="-4" xlink:href="#r8e"/>
</g>
</defs>
<use x="829.74" y="113.00" xlink:href="#r8"/>
<defs>
<path id="ubclef" class="fill" d="m-200 -87
	c124 -35 222 -78 254 -236
	43 -228 -167 -246 -192 -103
	59 -80 157 22 92 78
	-62 47 -115 -22 -106 -88
	21 -141 270 -136 274 52
	-1 175 -106 264 -322 297
	m357 -250
	c0 -36 51 -34 51 0
	0 37 -51 36 -51 0
	m-2 -129
	c0 -36 51 -34 51 0
	0 38 -51 37 -51 0"/>
<use id="bclef" transform="translate(0,18) scale(0.045)"
	xlink:href="#ubclef"/>
</defs>
<use x="23.54" y="165.00" xlink:href="#bclef"/>
<g font-family="serif" font-size="16" font-weight="bold" font-style="normal"
	transform="translate(42.04,182.50) scale(1.2,1)">
	<text text-anchor="middle">8</text>
	<text y="-12" text-anchor="middle">3</text>
</g>
<use x="85.04" y="174.00" xlink:href="#hd"/>
<path d="M88.54 174.00v-21.00" class="stroke"/>
<use x="133.14" y="171.00" xlink:href="#r8"/>
<use x="165.44" y="174.00" xlink:href="#hd"/>
<path d="M168.94 174.00v-21.00" class="stroke"/>
<use x="233.54" y="171.00" xlink:href="#r8"/>
<use x="277.54" y="162.00" xlink:href="#hd"/>
<path d="M274.04 162.00v21.00" class="stroke"/>
<use x="335.64" y="171.00" xlink:href="#r8"/>
<use x="379.54" y="162.00" xlink:href="#hd"/>
<path d="M376.04 162.00v25.00" class="stroke"/>
<use x="379.54" y="168.00" xlink:href="#hd"/>
<use x="427.54" y="171.00" xlink:href="#r8"/>
<path class="fill"
	d="M461.04 193.00l59.70 0.00v-3.20l-59.70 -0.00"/>
<use x="464.84" y="165.00" xlink:href="#hd"/>
<use x="455.84" y="165.00" xlink:href="#sh0"/>
<path d="M461.34 165.00v27.00" class="stroke"/>
<use x="464.84" y="174.00" xlink:href="#hd"/>
<use x="488.94" y="165.00" xlink:href="#hd"/>
<path d="M485.44 165.00v27.00" class="stroke"/>
<use x="488.94" y="174.00" xlink:href="#hd"/>
<use x="523.94" y="159.00" xlink:href="#hd"/>
<path d="M520.44 159.00v33.00" class="stroke"/>
<use x="523.94" y="174.00" xlink:href="#hd"/>
<path class="fill"
	d="M559.44 149.50l69.80 -4.70v3.20l-69.80 4.70"/>
<use x="556.24" y="177.00" xlink:href="#hd"/>
<path d="M559.74 177.00v-26.50" class="stroke"/>
<use x="556.24" y="171.00" xlink:href="#hd"/>
<use x="591.34" y="177.00" xlink:href="#hd"/>
<path d="M594.84 177.00v-28.90" class="stroke"/>
<use x="591.34" y="171.00" xlink:href="#hd"/>
<use x="625.34" y="177.00" xlink:href="#hd"/>
<path d="M628.84 177.00v-31.20" class="stroke"/>
<use x="625.34" y="162.00" xlink:href="#hd"/>
<path class="fill"
	d="M660.84 147.70l68.80 8.30v3.20l-68.80 -8.30"/>
<use x="657.64" y="174.00" xlink:href="#hd"/>
<path d="M661.14 174.00v-25.30" class="stroke"/>
<use x="691.74" y="171.00" xlink:href="#hd"/>
<path d="M695.24 171.00v-18.20" class="stroke"/>
<use x="725.84" y="189.00" xlink:href="#hl"/>
<use x="725.84" y="192.00" xlink:href="#hd"/>
<path d="M729.34 192.00v-35.10" class="stroke"/>
<path class="fill"
	d="M766.84 202.20l76.80 0.00v-3.20l-76.80 -0.00"/>
<path class="fill"
	d="M791.24 197.20l52.10 0.00v-3.20l-52.10 -0.00"/>
<use x="770.74" y="183.00" xlink:href="#hd"/>
<path d="M767.24 183.00v18.20" class="stroke"/>
<use x="794.74" y="162.00" xlink:href="#hd"/>
<path d="M791.24 162.00v39.20" class="stroke"/>
<use x="812.74" y="165.00" xlink:href="#hd"/>
<defs>
<path id="unat" class="fill" d="
	m96 -750
	h-32
	v716
	l32 -8
	182 -54
	v282
	h32
	v-706
	l-34 10
	-180 50
	v-290
	m0 592
	v-190
	l182 -52
	v188"/>
<use id="nt0" transform="translate(-3,5) scale(0.018)"
	xlink:href="#unat"/>
</defs>
<use x="803.74" y="165.00" xlink:href="#nt0"/>
<path d="M809.24 165.00v36.20" class="stroke"/>
<use x="829.74" y="168.00" xlink:href="#hd"/>
<path d="M826.24 168.00v33.20" class="stroke"/>
<use x="846.84" y="171.00" xlink:href="#hd"/>
<path d="M843.34 171.00v30.20" class="stroke"/>
</g>
<g stroke-width="0.70" transform="scale(0.867)" font-family="Times" font-size="13.00">
<path class="stroke" stroke-width="1"
	d="M11.54 324.00v-90.00"/>
<path class="fill"
	d="M6.54 231.00
	c10.5 1 12 -4.5 12 -3.5c0 1 -3.5 5.5 -8.5 5.5
	v92.00
	c5 0 8.5 4.5 8.5 5.5c0 1 -1.5 -4.5 -12 -3.5"/>
<use x="144.04" y="258.00" xlink:href="#rdots"/>
<path class="stroke" stroke-width="1"
	d="M140.04 258.00v-24.00"/>
<path class="stroke" stroke-width="3"
	d="M135.54 258.00v-24.00"/>
<use x="144.04" y="324.00" xlink:href="#rdots"/>
<path class="stroke" stroke-width="1"
	d="M140.04 324.00v-66.00"/>
<path class="stroke" stroke-width="3"
	d="M135.54 324.00v-66.00"/>
<path class="stroke" stroke-width="1"
	d="M230.34 258.00v-24.00"/>
<path class="stroke" stroke-width="1"
	d="M230.34 324.00v-66.00"/>
<path class="stroke" stroke-width="1"
	d="M329.74 258.00v-24.00"/>
<path class="stroke" stroke-width="1"
	d="M329.74 324.00v-66.00"/>
<path class="stroke" stroke-width="1"
	d="M409.34 258.00v-24.00"/>
<path class="stroke" stroke-width="1"
	d="M409.34 324.00v-66.00"/>
<path class="stroke" stroke-width="1"
	d="M489.34 258.00v-24.00"/>
<path class="stroke" stroke-width="1"
	d="M489.34 324.00v-66.00"/>
<path class="stroke" stroke-width="1"
	d="M588.74 258.00v-24.00"/>
<path class="stroke" stroke-width="1"
	d="M588.74 324.00v-66.00"/>
<path class="stroke" stroke-width="1"
	d="M688.14 258.00v-24.00"/>
<path class="stroke" stroke-width="1"
	d="M688.14 324.00v-66.00"/>
<path class="stroke" stroke-width="1"
	d="M787.54 258.00v-24.00"/>
<path class="stroke" stroke-width="1"
	d="M787.54 324.00v-66.00"/>
<path class="stroke" stroke-width="3"
	d="M860.54 258.00v-24.00"/>
<path class="stroke" stroke-width="1"
	d="M856.04 258.00v-24.00"/>
<use x="852.04" y="258.00" xlink:href="#rdots"/>
<path class="stroke" stroke-width="3"
	d="M860.54 324.00v-66.00"/>
<path class="stroke" stroke-width="1"
	d="M856.04 324.00v-66.00"/>
<use x="852.04" y="324.00" xlink:href="#rdots"/>
<path d="m11.54 258.00
	h850.50
	M11.54 252.00
	h850.50
	M11.54 246.00
	h850.50
	M11.54 240.00
	h850.50
	M11.54 234.00
	h850.50
	" class="stroke"/>
<path d="m11.54 324.00
	h850.50
	M11.54 318.00
	h850.50
	M11.54 312.00
	h850.50
	M11.54 306.00
	h850.50
	M11.54 300.00
	h850.50
	" class="stroke"/>
<text x="47.54" y="219.40">2</text>
<path class="stroke"
	d="M43.54 208.00m0 20v-20h89.50v20"/>
<use x="23.54" y="252.00" xlink:href="#tclef"/>
<use x="56.04" y="231.00" xlink:href="#hd"/>
<path d="M52.54 231.00v40.00" class="stroke"/>
<use x="56.04" y="252.00" xlink:href="#hd"/>
<use x="56.04" y="246.00" xlink:href="#hd"/>
<use x="56.04" y="240.00" xlink:href="#hd"/>
<use x="109.64" y="246.00" xlink:href="#r8"/>
<path class="fill"
	d="M159.74 252.20l42.90 0.00v-3.20l-42.90 -0.00"/>
<use x="163.54" y="234.00" xlink:href="#hd"/>
<use x="154.54" y="234.00" xlink:href="#sh0"/>
<path d="M160.04 234.00v17.20" class="stroke"/>
<use x="185.04" y="228.00" xlink:href="#hl"/>
<use x="185.04" y="228.00" xlink:href="#hd"/>
<path d="M181.54 228.00v23.20" class="stroke"/>
<use x="205.84" y="234.00" xlink:href="#hd"/>
<path d="M202.34 234.00v17.20" class="stroke"/>
<path class="fill"
	d="M238.94 266.70l60.20 9.00v-3.20l-60.20 -9.00"/>
<use x="242.84" y="231.00" xlink:href="#hd"/>
<path d="M239.34 231.00v34.80" class="stroke"/>
<use x="272.54" y="252.00" xlink:href="#hd"/>
<path d="M269.04 252.00v18.20" class="stroke"/>
<use x="302.34" y="252.00" xlink:href="#hd"/>
<path d="M298.84 252.00v22.60" class="stroke"/>
<path class="fill"
	d="M338.34 266.40l51.20 -4.20v-3.20l-51.20 4.20"/>
<path class="fill"
	d="M338.74 261.40l14.90 -1.20v-3.20l-14.90 1.20"/>
<use x="342.24" y="237.00" xlink:href="#hd"/>
<path d="M338.74 237.00v28.40" class="stroke"/>
<use x="357.14" y="243.00" xlink:href="#hd"/>
<path d="M353.64 243.00v21.20" class="stroke"/>
<use x="371.94" y="237.00" xlink:href="#hd"/>
<path d="M368.44 237.00v26.00" class="stroke"/>
<use x="392.74" y="231.00" xlink:href="#hd"/>
<path d="M389.24 231.00v30.30" class="stroke"/>
<path class="fill"
	d="M417.94 273.70l51.20 -4.30v-3.20l-51.20 4.30"/>
<path class="fill"
	d="M418.34 268.70l14.90 -1.20v-3.20l-14.90 1.20"/>
<use x="421.84" y="240.00" xlink:href="#hd"/>
<path d="M418.34 240.00v32.70" class="stroke"/>
<use x="436.74" y="246.00" xlink:href="#hd"/>
<path d="M433.24 246.00v25.40" class="stroke"/>
<use x="451.54" y="252.00" xlink:href="#hd"/>
<path d="M448.04 252.00v18.20" class="stroke"/>
<use x="472.34" y="231.00" xlink:href="#hd"/>
<path d="M468.84 231.00v37.50" class="stroke"/>
<path class="fill"
	d="M497.94 260.60l60.20 3.20v-3.20l-60.20 -3.20"/>
<use x="501.84" y="231.00" xlink:href="#hd"/>
<path d="M498.34 231.00v28.60" class="stroke"/>
<use x="531.54" y="243.00" xlink:href="#hd"/>
<path d="M528.04 243.00v18.20" class="stroke"/>
<use x="561.34" y="237.00" xlink:href="#hd"/>
<path d="M557.84 237.00v25.80" class="stroke"/>
<path class="fill"
	d="M597.44 275.50l75.10 -6.30v-3.20l-75.10 6.30"/>
<path class="fill"
	d="M597.74 270.40l74.40 -6.20v-3.20l-74.40 6.20"/>
<use x="601.24" y="243.00" xlink:href="#hd"/>
<path d="M597.74 243.00v31.40" class="stroke"/>
<use x="616.14" y="252.00" xlink:href="#hd"/>
<path d="M612.64 252.00v21.20" class="stroke"/>
<use x="631.04" y="237.00" xlink:href="#hd"/>
<path d="M627.54 237.00v35.00" class="stroke"/>
<use x="645.84" y="243.00" xlink:href="#hd"/>
<path d="M642.34 243.00v27.70" class="stroke"/>
<use x="660.74" y="231.00" xlink:href="#hd"/>
<path d="M657.24 231.00v38.50" class="stroke"/>
<use x="675.64" y="237.00" xlink:href="#hd"/>
<path d="M672.14 237.00v31.20" class="stroke"/>
<path class="fill"
	d="M696.84 266.00l75.10 0.00v-3.20l-75.10 -0.00"/>
<path class="fill"
	d="M697.14 261.00l74.40 0.00v-3.20l-74.40 -0.00"/>
<use x="700.64" y="240.00" xlink:href="#hd"/>
<path d="M697.14 240.00v24.90" class="stroke"/>
<use x="715.54" y="234.00" xlink:href="#hd"/>
<path d="M712.04 234.00v30.90" class="stroke"/>
<use x="730.44" y="228.00" xlink:href="#hl"/>
<use x="730.44" y="228.00" xlink:href="#hd"/>
<path d="M726.94 228.00v36.90" class="stroke"/>
<use x="745.34" y="234.00" xlink:href="#hd"/>
<path d="M741.84 234.00v30.90" class="stroke"/>
<use x="760.14" y="240.00" xlink:href="#hd"/>
<path d="M756.64 240.00v24.90" class="stroke"/>
<use x="775.04" y="246.00" xlink:href="#hd"/>
<path d="M771.54 246.00v18.90" class="stroke"/>
<use x="800.04" y="243.00" xlink:href="#hd"/>
<path d="M796.54 243.00v21.00" class="stroke"/>
<use x="841.54" y="246.00" xlink:href="#r8"/>
<use x="23.54" y="306.00" xlink:href="#bclef"/>
<path class="fill"
	d="M52.24 343.20l69.20 -5.00v-3.20l-69.20 5.00"/>
<path class="fill"
	d="M73.24 336.70l47.80 -3.50v-3.20l-47.80 3.50"/>
<use x="56.04" y="324.00" xlink:href="#hd"/>
<path d="M52.54 324.00v18.20" class="stroke"/>
<use x="76.74" y="297.00" xlink:href="#hd"/>
<path d="M73.24 297.00v43.70" class="stroke"/>
<use x="91.64" y="303.00" xlink:href="#hd"/>
<path d="M88.14 303.00v36.60" class="stroke"/>
<use x="109.64" y="306.00" xlink:href="#hd"/>
<use x="100.64" y="306.00" xlink:href="#sh0"/>
<path d="M106.14 306.00v32.30" class="stroke"/>
<use x="124.54" y="309.00" xlink:href="#hd"/>
<path d="M121.04 309.00v28.20" class="stroke"/>
<path class="fill"
	d="M166.74 280.70l42.90 7.80v3.20l-42.90 -7.80"/>
<use x="163.54" y="300.00" xlink:href="#hd"/>
<path d="M167.04 300.00v-18.20" class="stroke"/>
<use x="185.04" y="306.00" xlink:href="#hd"/>
<use x="176.04" y="306.00" xlink:href="#sh0"/>
<path d="M188.54 306.00v-20.30" class="stroke"/>
<use x="205.84" y="312.00" xlink:href="#hd"/>
<path d="M209.34 312.00v-22.50" class="stroke"/>
<path class="fill"
	d="M238.94 346.20l75.10 0.00v-3.20l-75.10 -0.00"/>
<path class="fill"
	d="M239.34 341.20l74.40 0.00v-3.20l-74.40 -0.00"/>
<use x="242.84" y="318.00" xlink:href="#hd"/>
<path d="M239.34 318.00v27.20" class="stroke"/>
<use x="257.64" y="312.00" xlink:href="#hd"/>
<path d="M254.14 312.00v33.20" class="stroke"/>
<use x="272.54" y="303.00" xlink:href="#hd"/>
<path d="M269.04 303.00v42.20" class="stroke"/>
<use x="287.44" y="312.00" xlink:href="#hd"/>
<path d="M283.94 312.00v33.20" class="stroke"/>
<use x="302.34" y="297.00" xlink:href="#hd"/>
<path d="M298.84 297.00v48.20" class="stroke"/>
<use x="317.24" y="324.00" xlink:href="#hd"/>
<path d="M313.74 324.00v21.20" class="stroke"/>
<use x="342.24" y="303.00" xlink:href="#hd"/>
<path d="M338.74 303.00v31.00" class="stroke"/>
<use x="342.24" y="315.00" xlink:href="#hd"/>
<use x="392.74" y="309.00" xlink:href="#hd"/>
<path d="M389.24 309.00v25.00" class="stroke"/>
<path class="fill"
	d="M389.24 334.00c0.6 -5.6 9.6 -9 5.6 -18.4
	1.6 6 -1.3 11.6 -5.6 12.8
"/>
<use x="392.74" y="315.00" xlink:href="#hd"/>
<use x="421.84" y="303.00" xlink:href="#hd"/>
<path d="M425.34 303.00v-21.00" class="stroke"/>
<use x="472.34" y="318.00" xlink:href="#hd"/>
<path d="M475.84 318.00v-25.00" class="stroke"/>
<path class="fill"
	d="M475.84 293.00c0.6 5.6 9.6 9 5.6 18.4
	1.6 -6 -1.3 -11.6 -5.6 -12.8
"/>
<use x="472.34" y="312.00" xlink:href="#hd"/>
<path class="fill"
	d="M497.94 331.90l75.10 0.00v-3.20l-75.10 -0.00"/>
<path class="fill"
	d="M498.34 326.90l74.40 0.00v-3.20l-74.40 -0.00"/>
<use x="501.84" y="309.00" xlink:href="#hd"/>
<path d="M498.34 309.00v21.90" class="stroke"/>
<use x="501.84" y="315.00" xlink:href="#hd"/>
<use x="516.74" y="303.00" xlink:href="#hd"/>
<path d="M513.24 303.00v27.90" class="stroke"/>
<use x="531.54" y="309.00" xlink:href="#hd"/>
<path d="M528.04 309.00v21.90" class="stroke"/>
<use x="531.54" y="315.00" xlink:href="#hd"/>
<use x="546.44" y="303.00" xlink:href="#hd"/>
<path d="M542.94 303.00v27.90" class="stroke"/>
<use x="561.34" y="309.00" xlink:href="#hd"/>
<path d="M557.84 309.00v21.90" class="stroke"/>
<use x="561.34" y="315.00" xlink:href="#hd"/>
<use x="576.24" y="303.00" xlink:href="#hd"/>
<path d="M572.74 303.00v27.90" class="stroke"/>
<use x="601.24" y="309.00" xlink:href="#hd"/>
<path d="M597.74 309.00v25.00" class="stroke"/>
<use x="601.24" y="315.00" xlink:href="#hd"/>
<use x="660.74" y="312.00" xlink:href="#r8"/>
<use x="700.64" y="306.00" xlink:href="#hd"/>
<path d="M697.14 306.00v21.00" class="stroke"/>
<use x="760.14" y="303.00" xlink:href="#hd"/>
<path d="M756.64 303.00v21.00" class="stroke"/>
<path class="fill"
	d="M756.64 324.00c0.6 -5.6 9.6 -9 5.6 -18.4
	1.6 6 -1.3 11.6 -5.6 12.8
"/>
<path class="fill"
	d="M803.24 295.70l42.10 9.80v3.20l-42.10 -9.80"/>
<use x="800.04" y="315.00" xlink:href="#hd"/>
<path d="M803.54 315.00v-18.20" class="stroke"/>
<use x="820.84" y="324.00" xlink:href="#hd"/>
<path d="M824.34 324.00v-22.40" class="stroke"/>
<use x="841.54" y="330.00" xlink:href="#hl"/>
<use x="841.54" y="336.00" xlink:href="#hl"/>
<use x="841.54" y="336.00" xlink:href="#hd"/>
<path d="M845.04 336.00v-29.60" class="stroke"/>
<path class="fill"
	d="M159.74 334.20l50.90 0.00v-3.20l-50.90 -0.00"/>
<use x="163.54" y="312.00" xlink:href="#hd"/>
<path d="M160.04 312.00v21.20" class="stroke"/>
<use x="185.04" y="312.00" xlink:href="#hd"/>
<path d="M181.54 312.00v21.20" class="stroke"/>
<use x="213.84" y="315.00" xlink:href="#hd"/>
<path d="M210.34 315.00v18.20" class="stroke"/>
<use x="421.84" y="318.00" xlink:href="#hd"/>
<path d="M418.34 318.00v21.00" class="stroke"/>
</g>
</svg>
