<?xml version="1.0" standalone="no"?>
<!DOCTYPE svg PUBLIC "-//W3C//DTD SVG 1.1//EN"
	"http://www.w3.org/Graphics/SVG/1.1/DTD/svg11.dtd">
<svg xmlns="http://www.w3.org/2000/svg" version="1.1"
	xmlns:xlink="http://www.w3.org/1999/xlink"
	color="black"
	width="757.10px" height="293.80px">
<style type="text/css">
.fill {fill: currentColor}
.stroke {stroke: currentColor; fill: none}
text{white-space: pre}
</style>
<title>./K516f-7-8-8-11-5-10-5-8-2-9-6-6-9-9-3-11.abc (5860) tune 1</title>
<!-- Creator: abcm2ps-8.13.8 -->
<!-- CreationDate: Sep  7, 2017 11:20 -->
<!-- CommandLine: ./K516f-7-8-8-11-5-10-5-8-2-9-6-6-9-9-3-11.abc -O ./K516f-7-8-8-11-5-10-5-8-2-9-6-6-9-9-3-11.svg -g -->
<rect width="100%" height="100%" fill="white"/>
<g stroke-width="0.70" transform="scale(0.867)">
<!-- title: 7-8-8-11-5-10-5-8-2-9-6-6-9-9-3-11 -->
</g>
<g stroke-width="0.70" transform="scale(0.867)" font-family="Times" font-size="20.00">
<text x="436.84" y="22.00" text-anchor="middle">7-8-8-11-5-10-5-8-2-9-6-6-9-9-3-11</text>
</g>
<g stroke-width="0.70" transform="scale(0.867)" font-family="Times" font-size="20.00">
<!-- subtitle: $1K.516f::104:60:171:61:161:129:159:127:70:88:64:125:51:115:116:78::$0 -->
</g>
<g stroke-width="0.70" transform="scale(0.867)" font-family="Courier" font-size="8.00" font-weight="bold">
<text x="436.84" y="41.80" text-anchor="middle">K.516f::104:60:171:61:161:129:159:127:70:88:64:125:51:115:116:78::</text>
</g>
<g stroke-width="0.70" transform="scale(0.867)" font-family="Courier" font-size="8.00" font-weight="bold">
<!-- subtitle: $1Perm. No.: 58603581136381$0 -->
<text x="436.84" y="60.80" text-anchor="middle">Perm. No.: 58603581136381</text>
</g>
<g stroke-width="0.70" transform="scale(0.607)" font-family="Courier" font-size="8.00" font-weight="bold">
<defs>
<ellipse id="hd" rx="4.1" ry="2.9"
	transform="rotate(-20)" class="fill"/>
</defs>
<use x="103.06" y="121.29" xlink:href="#hd"/>
<path d="M106.56 121.29v-21.00" class="stroke"/>
<path class="fill"
	d="M106.56 100.29c0.6 5.6 9.6 9 5.6 18.4
	1.6 -6 -1.3 -11.6 -5.6 -12.8
"/>
</g>
<g stroke-width="0.70" transform="scale(0.867)" font-family="Times" font-size="15.00" font-weight="bold">
<text x="81.24" y="87.00">= 111</text>
<path class="stroke" stroke-width="1"
	d="M11.54 183.00v-82.00"/>
<path class="fill"
	d="M6.54 98.00
	c10.5 1 12 -4.5 12 -3.5c0 1 -3.5 5.5 -8.5 5.5
	v84.00
	c5 0 8.5 4.5 8.5 5.5c0 1 -1.5 -4.5 -12 -3.5"/>
<defs>
<g id="rdots" class="fill">
	<circle cx="0" cy="-9" r="1.2"/>
	<circle cx="0" cy="-15" r="1.2"/>
</g>
</defs>
<use x="70.54" y="125.00" xlink:href="#rdots"/>
<path class="stroke" stroke-width="1"
	d="M66.54 125.00v-24.00"/>
<path class="stroke" stroke-width="3"
	d="M62.04 125.00v-24.00"/>
<use x="70.54" y="183.00" xlink:href="#rdots"/>
<path class="stroke" stroke-width="1"
	d="M66.54 183.00v-58.00"/>
<path class="stroke" stroke-width="3"
	d="M62.04 183.00v-58.00"/>
<path class="stroke" stroke-width="1"
	d="M179.24 125.00v-24.00"/>
<path class="stroke" stroke-width="1"
	d="M179.24 183.00v-58.00"/>
<path class="stroke" stroke-width="1"
	d="M277.14 125.00v-24.00"/>
<path class="stroke" stroke-width="1"
	d="M277.14 183.00v-58.00"/>
<path class="stroke" stroke-width="1"
	d="M384.84 125.00v-24.00"/>
<path class="stroke" stroke-width="1"
	d="M384.84 183.00v-58.00"/>
<path class="stroke" stroke-width="1"
	d="M471.64 125.00v-24.00"/>
<path class="stroke" stroke-width="1"
	d="M471.64 183.00v-58.00"/>
<path class="stroke" stroke-width="1"
	d="M554.84 125.00v-24.00"/>
<path class="stroke" stroke-width="1"
	d="M554.84 183.00v-58.00"/>
<path class="stroke" stroke-width="1"
	d="M653.04 125.00v-24.00"/>
<path class="stroke" stroke-width="1"
	d="M653.04 183.00v-58.00"/>
<path class="stroke" stroke-width="1"
	d="M760.64 125.00v-24.00"/>
<path class="stroke" stroke-width="1"
	d="M760.64 183.00v-58.00"/>
<path class="stroke" stroke-width="3"
	d="M860.54 125.00v-24.00"/>
<path class="stroke" stroke-width="1"
	d="M856.04 125.00v-24.00"/>
<use x="852.04" y="125.00" xlink:href="#rdots"/>
<path class="stroke" stroke-width="3"
	d="M860.54 183.00v-58.00"/>
<path class="stroke" stroke-width="1"
	d="M856.04 183.00v-58.00"/>
<use x="852.04" y="183.00" xlink:href="#rdots"/>
<path d="m11.54 125.00
	h850.50
	M11.54 119.00
	h850.50
	M11.54 113.00
	h850.50
	M11.54 107.00
	h850.50
	M11.54 101.00
	h850.50
	" class="stroke"/>
<path d="m11.54 183.00
	h850.50
	M11.54 177.00
	h850.50
	M11.54 171.00
	h850.50
	M11.54 165.00
	h850.50
	M11.54 159.00
	h850.50
	" class="stroke"/>
</g>
<g stroke-width="0.70" transform="scale(0.867)" font-family="Times" font-size="13.00">
<text x="764.64" y="86.40">1</text>
<path class="stroke"
	d="M760.64 75.00m0 20v-20h93.40v20"/>
<defs>
<path id="utclef" class="fill" d="m-50 -90
	c-72 -41 -72 -158 52 -188
	150 -10 220 188 90 256
	-114 52 -275 0 -293 -136
	-15 -181 93 -229 220 -334
	88 -87 79 -133 62 -210
	-51 33 -94 105 -89 186
	17 267 36 374 49 574
	6 96 -19 134 -77 135
	-80 1 -126 -93 -61 -133
	85 -41 133 101 31 105
	23 17 92 37 90 -92
	-10 -223 -39 -342 -50 -617
	0 -90 0 -162 96 -232
	56 72 63 230 22 289
	-74 106 -257 168 -255 316
	9 153 148 185 252 133
	86 -65 29 -192 -80 -176
	-71 12 -105 67 -59 124"/>
<use id="tclef" transform="translate(0,6) scale(0.045)"
	xlink:href="#utclef"/>
</defs>
<use x="23.54" y="119.00" xlink:href="#tclef"/>
<g font-family="serif" font-size="16" font-weight="bold" font-style="normal"
	transform="translate(42.04,124.50) scale(1.2,1)">
	<text text-anchor="middle">8</text>
	<text y="-12" text-anchor="middle">3</text>
</g>
<path class="fill"
	d="M80.74 130.50l82.40 -6.40v-3.20l-82.40 6.40"/>
<path class="fill"
	d="M81.04 125.50l81.70 -6.30v-3.20l-81.70 6.30"/>
<use x="84.54" y="104.00" xlink:href="#hd"/>
<path d="M81.04 104.00v25.50" class="stroke"/>
<use x="100.94" y="107.00" xlink:href="#hd"/>
<path d="M97.44 107.00v21.20" class="stroke"/>
<use x="117.24" y="104.00" xlink:href="#hd"/>
<path d="M113.74 104.00v22.90" class="stroke"/>
<use x="133.64" y="98.00" xlink:href="#hd"/>
<path d="M130.14 98.00v27.70" class="stroke"/>
<defs>
<path id="hl" class="stroke" d="m-6 0h12"/>
</defs>
<use x="149.94" y="95.00" xlink:href="#hl"/>
<use x="149.94" y="89.00" xlink:href="#hl"/>
<use x="149.94" y="89.00" xlink:href="#hd"/>
<path d="M146.44 89.00v35.40" class="stroke"/>
<use x="166.34" y="98.00" xlink:href="#hd"/>
<path d="M162.84 98.00v25.20" class="stroke"/>
<path class="fill"
	d="M188.44 123.10l72.70 9.20v-3.20l-72.70 -9.20"/>
<path class="fill"
	d="M211.74 121.00l49.00 6.20v-3.20l-49.00 -6.20"/>
<use x="192.24" y="98.00" xlink:href="#hd"/>
<path d="M188.74 98.00v24.10" class="stroke"/>
<use x="215.24" y="101.00" xlink:href="#hd"/>
<path d="M211.74 101.00v24.00" class="stroke"/>
<use x="231.64" y="104.00" xlink:href="#hd"/>
<path d="M228.14 104.00v23.10" class="stroke"/>
<use x="247.94" y="107.00" xlink:href="#hd"/>
<path d="M244.44 107.00v22.10" class="stroke"/>
<use x="264.24" y="110.00" xlink:href="#hd"/>
<path d="M260.74 110.00v21.20" class="stroke"/>
<path class="fill"
	d="M286.34 133.00l82.40 0.00v-3.20l-82.40 -0.00"/>
<path class="fill"
	d="M286.74 128.00l81.70 0.00v-3.20l-81.70 -0.00"/>
<use x="290.24" y="113.00" xlink:href="#hd"/>
<path d="M286.74 113.00v18.90" class="stroke"/>
<use x="306.54" y="110.00" xlink:href="#hd"/>
<path d="M303.04 110.00v21.90" class="stroke"/>
<use x="322.94" y="107.00" xlink:href="#hd"/>
<path d="M319.44 107.00v24.90" class="stroke"/>
<use x="339.24" y="104.00" xlink:href="#hd"/>
<path d="M335.74 104.00v27.90" class="stroke"/>
<use x="355.64" y="101.00" xlink:href="#hd"/>
<path d="M352.14 101.00v30.90" class="stroke"/>
<use x="371.94" y="107.00" xlink:href="#hd"/>
<path d="M368.44 107.00v24.90" class="stroke"/>
<path class="fill"
	d="M394.04 135.40l56.40 -4.50v-3.20l-56.40 4.50"/>
<path class="fill"
	d="M417.34 128.50l16.30 -1.30v-3.20l-16.30 1.30"/>
<use x="397.84" y="110.00" xlink:href="#hd"/>
<path d="M394.34 110.00v24.30" class="stroke"/>
<use x="420.84" y="104.00" xlink:href="#hd"/>
<path d="M417.34 104.00v28.50" class="stroke"/>
<use x="437.24" y="110.00" xlink:href="#hd"/>
<path d="M433.74 110.00v21.20" class="stroke"/>
<use x="453.54" y="98.00" xlink:href="#hd"/>
<path d="M450.04 98.00v31.90" class="stroke"/>
<path class="fill"
	d="M493.34 88.00l47.30 0.00v3.20l-47.30 -0.00"/>
<use x="490.14" y="122.00" xlink:href="#hd"/>
<defs>
<path id="usharp" class="fill" d="
	m136 -702
	v890
	h32
	v-890
	m128 840
	h32
	v-888
	h-32
	m-232 286
	v116
	l338 -96
	v-116
	m-338 442
	v116
	l338 -98
	v-114"/>
<use id="sh0" transform="translate(-4,5) scale(0.018)"
	xlink:href="#usharp"/>
</defs>
<use x="481.14" y="122.00" xlink:href="#sh0"/>
<path d="M493.64 122.00v-33.00" class="stroke"/>
<use x="490.14" y="107.00" xlink:href="#hd"/>
<use x="513.44" y="122.00" xlink:href="#hd"/>
<use x="504.44" y="122.00" xlink:href="#sh0"/>
<path d="M516.94 122.00v-33.00" class="stroke"/>
<use x="513.44" y="107.00" xlink:href="#hd"/>
<use x="536.74" y="122.00" xlink:href="#hd"/>
<use x="527.74" y="122.00" xlink:href="#sh0"/>
<path d="M540.24 122.00v-33.00" class="stroke"/>
<use x="536.74" y="107.00" xlink:href="#hd"/>
<path class="fill"
	d="M564.04 121.30l67.70 4.90v-3.20l-67.70 -4.90"/>
<path class="fill"
	d="M564.34 116.30l50.70 3.70v-3.20l-50.70 -3.70"/>
<use x="567.84" y="95.00" xlink:href="#hl"/>
<use x="567.84" y="95.00" xlink:href="#hd"/>
<path d="M564.34 95.00v25.30" class="stroke"/>
<use x="584.24" y="98.00" xlink:href="#hd"/>
<path d="M580.74 98.00v23.50" class="stroke"/>
<use x="602.24" y="101.00" xlink:href="#hd"/>
<use x="593.24" y="101.00" xlink:href="#sh0"/>
<path d="M598.74 101.00v21.80" class="stroke"/>
<use x="618.54" y="98.00" xlink:href="#hd"/>
<path d="M615.04 98.00v26.00" class="stroke"/>
<use x="634.94" y="107.00" xlink:href="#hd"/>
<path d="M631.44 107.00v18.20" class="stroke"/>
<path class="fill"
	d="M662.14 130.60l82.40 7.60v-3.20l-82.40 -7.60"/>
<path class="fill"
	d="M662.54 125.70l81.70 7.50v-3.20l-81.70 -7.50"/>
<use x="666.04" y="104.00" xlink:href="#hd"/>
<path d="M662.54 104.00v25.70" class="stroke"/>
<use x="682.34" y="98.00" xlink:href="#hd"/>
<path d="M678.84 98.00v33.20" class="stroke"/>
<use x="698.74" y="107.00" xlink:href="#hd"/>
<path d="M695.24 107.00v25.70" class="stroke"/>
<use x="715.04" y="110.00" xlink:href="#hd"/>
<path d="M711.54 110.00v24.20" class="stroke"/>
<use x="731.44" y="113.00" xlink:href="#hd"/>
<path d="M727.94 113.00v22.70" class="stroke"/>
<use x="747.74" y="116.00" xlink:href="#hd"/>
<path d="M744.24 116.00v21.20" class="stroke"/>
<use x="773.64" y="98.00" xlink:href="#hd"/>
<path d="M770.14 98.00v40.00" class="stroke"/>
<use x="773.64" y="119.00" xlink:href="#hd"/>
<use x="773.64" y="113.00" xlink:href="#hd"/>
<use x="773.64" y="107.00" xlink:href="#hd"/>
<defs>
<path id="r8e" class="fill" d="m 0 0
	c-1.5 1.5 -2.4 2 -3.6 2
	2.4 -2.8 -2.8 -4 -2.8 -1.2
	c0 2.7 4.3 2.4 5.9 0.6"/>
<g id="r8">
	<path d="m3.3 -4l-3.4 9.6" class="stroke"/>
	<use x="3.4" y="-4" xlink:href="#r8e"/>
</g>
</defs>
<use x="831.04" y="113.00" xlink:href="#r8"/>
<defs>
<path id="ubclef" class="fill" d="m-200 -87
	c124 -35 222 -78 254 -236
	43 -228 -167 -246 -192 -103
	59 -80 157 22 92 78
	-62 47 -115 -22 -106 -88
	21 -141 270 -136 274 52
	-1 175 -106 264 -322 297
	m357 -250
	c0 -36 51 -34 51 0
	0 37 -51 36 -51 0
	m-2 -129
	c0 -36 51 -34 51 0
	0 38 -51 37 -51 0"/>
<use id="bclef" transform="translate(0,18) scale(0.045)"
	xlink:href="#ubclef"/>
</defs>
<use x="23.54" y="165.00" xlink:href="#bclef"/>
<g font-family="serif" font-size="16" font-weight="bold" font-style="normal"
	transform="translate(42.04,182.50) scale(1.2,1)">
	<text text-anchor="middle">8</text>
	<text y="-12" text-anchor="middle">3</text>
</g>
<use x="84.54" y="174.00" xlink:href="#hd"/>
<path d="M88.04 174.00v-21.00" class="stroke"/>
<use x="149.94" y="171.00" xlink:href="#r8"/>
<use x="192.24" y="168.00" xlink:href="#hd"/>
<path d="M188.74 168.00v25.00" class="stroke"/>
<use x="192.24" y="174.00" xlink:href="#hd"/>
<use x="247.94" y="171.00" xlink:href="#r8"/>
<use x="290.24" y="183.00" xlink:href="#hd"/>
<path d="M293.74 183.00v-40.00" class="stroke"/>
<use x="290.24" y="162.00" xlink:href="#hd"/>
<use x="355.64" y="162.00" xlink:href="#hd"/>
<path d="M352.14 162.00v34.00" class="stroke"/>
<path class="fill"
	d="M352.14 196.00c0.6 -5.6 9.6 -9 5.6 -18.4
	1.6 6 -1.3 11.6 -5.6 12.8
"/>
<use x="355.64" y="177.00" xlink:href="#hd"/>
<use x="397.84" y="162.00" xlink:href="#hd"/>
<path d="M394.34 162.00v25.00" class="stroke"/>
<use x="397.84" y="168.00" xlink:href="#hd"/>
<use x="453.54" y="171.00" xlink:href="#r8"/>
<path class="fill"
	d="M493.34 153.00l47.30 0.00v3.20l-47.30 -0.00"/>
<use x="490.14" y="174.00" xlink:href="#hd"/>
<path d="M493.64 174.00v-20.00" class="stroke"/>
<use x="513.44" y="174.00" xlink:href="#hd"/>
<path d="M516.94 174.00v-20.00" class="stroke"/>
<use x="536.74" y="174.00" xlink:href="#hd"/>
<path d="M540.24 174.00v-20.00" class="stroke"/>
<path class="fill"
	d="M571.04 149.40l67.70 -4.70v3.20l-67.70 4.70"/>
<use x="567.84" y="177.00" xlink:href="#hd"/>
<path d="M571.34 177.00v-26.60" class="stroke"/>
<use x="567.84" y="171.00" xlink:href="#hd"/>
<use x="602.24" y="177.00" xlink:href="#hd"/>
<path d="M605.74 177.00v-28.90" class="stroke"/>
<use x="602.24" y="171.00" xlink:href="#hd"/>
<use x="634.94" y="177.00" xlink:href="#hd"/>
<path d="M638.44 177.00v-31.20" class="stroke"/>
<use x="634.94" y="162.00" xlink:href="#hd"/>
<path class="fill"
	d="M669.14 147.70l66.10 8.20v3.20l-66.10 -8.20"/>
<use x="666.04" y="174.00" xlink:href="#hd"/>
<path d="M669.54 174.00v-25.30" class="stroke"/>
<use x="698.74" y="171.00" xlink:href="#hd"/>
<path d="M702.24 171.00v-18.20" class="stroke"/>
<use x="731.44" y="189.00" xlink:href="#hl"/>
<use x="731.44" y="192.00" xlink:href="#hd"/>
<path d="M734.94 192.00v-35.10" class="stroke"/>
<path class="fill"
	d="M769.84 202.20l74.40 0.00v-3.20l-74.40 -0.00"/>
<path class="fill"
	d="M793.24 197.20l50.70 0.00v-3.20l-50.70 -0.00"/>
<use x="773.64" y="183.00" xlink:href="#hd"/>
<path d="M770.14 183.00v18.20" class="stroke"/>
<use x="796.74" y="162.00" xlink:href="#hd"/>
<path d="M793.24 162.00v39.20" class="stroke"/>
<use x="814.74" y="165.00" xlink:href="#hd"/>
<defs>
<path id="unat" class="fill" d="
	m96 -750
	h-32
	v716
	l32 -8
	182 -54
	v282
	h32
	v-706
	l-34 10
	-180 50
	v-290
	m0 592
	v-190
	l182 -52
	v188"/>
<use id="nt0" transform="translate(-3,5) scale(0.018)"
	xlink:href="#unat"/>
</defs>
<use x="805.74" y="165.00" xlink:href="#nt0"/>
<path d="M811.24 165.00v36.20" class="stroke"/>
<use x="831.04" y="168.00" xlink:href="#hd"/>
<path d="M827.54 168.00v33.20" class="stroke"/>
<use x="847.44" y="171.00" xlink:href="#hd"/>
<path d="M843.94 171.00v30.20" class="stroke"/>
</g>
<g stroke-width="0.70" transform="scale(0.867)" font-family="Times" font-size="13.00">
<path class="stroke" stroke-width="1"
	d="M11.54 316.00v-82.00"/>
<path class="fill"
	d="M6.54 231.00
	c10.5 1 12 -4.5 12 -3.5c0 1 -3.5 5.5 -8.5 5.5
	v84.00
	c5 0 8.5 4.5 8.5 5.5c0 1 -1.5 -4.5 -12 -3.5"/>
<use x="140.14" y="258.00" xlink:href="#rdots"/>
<path class="stroke" stroke-width="1"
	d="M136.14 258.00v-24.00"/>
<path class="stroke" stroke-width="3"
	d="M131.64 258.00v-24.00"/>
<use x="140.14" y="316.00" xlink:href="#rdots"/>
<path class="stroke" stroke-width="1"
	d="M136.14 316.00v-58.00"/>
<path class="stroke" stroke-width="3"
	d="M131.64 316.00v-58.00"/>
<path class="stroke" stroke-width="1"
	d="M232.64 258.00v-24.00"/>
<path class="stroke" stroke-width="1"
	d="M232.64 316.00v-58.00"/>
<path class="stroke" stroke-width="1"
	d="M326.74 258.00v-24.00"/>
<path class="stroke" stroke-width="1"
	d="M326.74 316.00v-58.00"/>
<path class="stroke" stroke-width="1"
	d="M420.84 258.00v-24.00"/>
<path class="stroke" stroke-width="1"
	d="M420.84 316.00v-58.00"/>
<path class="stroke" stroke-width="1"
	d="M504.24 258.00v-24.00"/>
<path class="stroke" stroke-width="1"
	d="M504.24 316.00v-58.00"/>
<path class="stroke" stroke-width="1"
	d="M598.34 258.00v-24.00"/>
<path class="stroke" stroke-width="1"
	d="M598.34 316.00v-58.00"/>
<path class="stroke" stroke-width="1"
	d="M692.44 258.00v-24.00"/>
<path class="stroke" stroke-width="1"
	d="M692.44 316.00v-58.00"/>
<path class="stroke" stroke-width="1"
	d="M786.54 258.00v-24.00"/>
<path class="stroke" stroke-width="1"
	d="M786.54 316.00v-58.00"/>
<path class="stroke" stroke-width="3"
	d="M860.54 258.00v-24.00"/>
<path class="stroke" stroke-width="1"
	d="M856.04 258.00v-24.00"/>
<use x="852.04" y="258.00" xlink:href="#rdots"/>
<path class="stroke" stroke-width="3"
	d="M860.54 316.00v-58.00"/>
<path class="stroke" stroke-width="1"
	d="M856.04 316.00v-58.00"/>
<use x="852.04" y="316.00" xlink:href="#rdots"/>
<path d="m11.54 258.00
	h850.50
	M11.54 252.00
	h850.50
	M11.54 246.00
	h850.50
	M11.54 240.00
	h850.50
	M11.54 234.00
	h850.50
	" class="stroke"/>
<path d="m11.54 316.00
	h850.50
	M11.54 310.00
	h850.50
	M11.54 304.00
	h850.50
	M11.54 298.00
	h850.50
	M11.54 292.00
	h850.50
	" class="stroke"/>
<text x="47.54" y="219.40">2</text>
<path class="stroke"
	d="M43.54 208.00m0 20v-20h85.60v20"/>
<use x="23.54" y="252.00" xlink:href="#tclef"/>
<use x="56.04" y="231.00" xlink:href="#hd"/>
<path d="M52.54 231.00v40.00" class="stroke"/>
<use x="56.04" y="252.00" xlink:href="#hd"/>
<use x="56.04" y="246.00" xlink:href="#hd"/>
<use x="56.04" y="240.00" xlink:href="#hd"/>
<use x="106.84" y="246.00" xlink:href="#r8"/>
<path class="fill"
	d="M155.84 260.00l61.10 0.00v-3.20l-61.10 -0.00"/>
<path class="fill"
	d="M175.24 255.00l41.50 0.00v-3.20l-41.50 -0.00"/>
<use x="159.64" y="234.00" xlink:href="#hd"/>
<use x="150.64" y="234.00" xlink:href="#sh0"/>
<path d="M156.14 234.00v25.00" class="stroke"/>
<use x="178.74" y="228.00" xlink:href="#hl"/>
<use x="178.74" y="228.00" xlink:href="#hd"/>
<path d="M175.24 228.00v31.00" class="stroke"/>
<use x="192.54" y="234.00" xlink:href="#hd"/>
<path d="M189.04 234.00v25.00" class="stroke"/>
<use x="206.34" y="240.00" xlink:href="#hd"/>
<path d="M202.84 240.00v19.00" class="stroke"/>
<use x="220.14" y="234.00" xlink:href="#hd"/>
<path d="M216.64 234.00v25.00" class="stroke"/>
<path class="fill"
	d="M241.34 260.00l69.80 0.00v-3.20l-69.80 -0.00"/>
<path class="fill"
	d="M241.64 255.00l69.10 0.00v-3.20l-69.10 -0.00"/>
<use x="245.14" y="231.00" xlink:href="#hd"/>
<path d="M241.64 231.00v28.00" class="stroke"/>
<use x="258.94" y="240.00" xlink:href="#hd"/>
<path d="M255.44 240.00v19.00" class="stroke"/>
<use x="272.84" y="231.00" xlink:href="#hd"/>
<path d="M269.34 231.00v28.00" class="stroke"/>
<use x="286.64" y="228.00" xlink:href="#hl"/>
<use x="286.64" y="225.00" xlink:href="#hd"/>
<path d="M283.14 225.00v34.00" class="stroke"/>
<use x="300.44" y="231.00" xlink:href="#hd"/>
<path d="M296.94 231.00v28.00" class="stroke"/>
<use x="314.24" y="240.00" xlink:href="#hd"/>
<path d="M310.74 240.00v19.00" class="stroke"/>
<path class="fill"
	d="M335.44 266.00l69.80 0.00v-3.20l-69.80 -0.00"/>
<path class="fill"
	d="M335.74 261.00l69.10 0.00v-3.20l-69.10 -0.00"/>
<use x="339.24" y="237.00" xlink:href="#hd"/>
<path d="M335.74 237.00v27.90" class="stroke"/>
<use x="353.04" y="231.00" xlink:href="#hd"/>
<path d="M349.54 231.00v33.90" class="stroke"/>
<use x="366.94" y="228.00" xlink:href="#hl"/>
<use x="366.94" y="222.00" xlink:href="#hl"/>
<use x="366.94" y="222.00" xlink:href="#hd"/>
<path d="M363.44 222.00v42.90" class="stroke"/>
<use x="380.74" y="231.00" xlink:href="#hd"/>
<path d="M377.24 231.00v33.90" class="stroke"/>
<use x="394.54" y="237.00" xlink:href="#hd"/>
<path d="M391.04 237.00v27.90" class="stroke"/>
<use x="408.34" y="243.00" xlink:href="#hd"/>
<path d="M404.84 243.00v21.90" class="stroke"/>
<path class="fill"
	d="M429.54 262.70l56.00 8.60v-3.20l-56.00 -8.60"/>
<path class="fill"
	d="M429.84 257.70l41.50 6.40v-3.20l-41.50 -6.40"/>
<use x="433.34" y="231.00" xlink:href="#hd"/>
<path d="M429.84 231.00v30.70" class="stroke"/>
<use x="447.14" y="237.00" xlink:href="#hd"/>
<path d="M443.64 237.00v26.80" class="stroke"/>
<use x="461.04" y="240.00" xlink:href="#hd"/>
<path d="M457.54 240.00v26.00" class="stroke"/>
<use x="474.84" y="246.00" xlink:href="#hd"/>
<path d="M471.34 246.00v22.10" class="stroke"/>
<use x="488.64" y="252.00" xlink:href="#hd"/>
<path d="M485.14 252.00v18.20" class="stroke"/>
<path class="fill"
	d="M512.84 275.50l69.80 -6.20v-3.20l-69.80 6.20"/>
<path class="fill"
	d="M513.24 270.40l69.10 -6.10v-3.20l-69.10 6.10"/>
<use x="516.74" y="243.00" xlink:href="#hd"/>
<path d="M513.24 243.00v31.40" class="stroke"/>
<use x="530.54" y="252.00" xlink:href="#hd"/>
<path d="M527.04 252.00v21.20" class="stroke"/>
<use x="544.34" y="237.00" xlink:href="#hd"/>
<path d="M540.84 237.00v35.00" class="stroke"/>
<use x="558.14" y="243.00" xlink:href="#hd"/>
<path d="M554.64 243.00v27.70" class="stroke"/>
<use x="572.04" y="231.00" xlink:href="#hd"/>
<path d="M568.54 231.00v38.50" class="stroke"/>
<use x="585.84" y="237.00" xlink:href="#hd"/>
<path d="M582.34 237.00v31.30" class="stroke"/>
<path class="fill"
	d="M606.94 275.50l69.80 -6.20v-3.20l-69.80 6.20"/>
<path class="fill"
	d="M607.34 270.40l69.10 -6.10v-3.20l-69.10 6.10"/>
<use x="610.84" y="243.00" xlink:href="#hd"/>
<path d="M607.34 243.00v31.40" class="stroke"/>
<use x="624.64" y="252.00" xlink:href="#hd"/>
<path d="M621.14 252.00v21.20" class="stroke"/>
<use x="638.44" y="237.00" xlink:href="#hd"/>
<path d="M634.94 237.00v35.00" class="stroke"/>
<use x="652.24" y="243.00" xlink:href="#hd"/>
<path d="M648.74 243.00v27.70" class="stroke"/>
<use x="666.14" y="231.00" xlink:href="#hd"/>
<path d="M662.64 231.00v38.50" class="stroke"/>
<use x="679.94" y="237.00" xlink:href="#hd"/>
<path d="M676.44 237.00v31.30" class="stroke"/>
<path class="fill"
	d="M701.04 266.00l69.80 0.00v-3.20l-69.80 -0.00"/>
<path class="fill"
	d="M701.44 261.00l69.10 0.00v-3.20l-69.10 -0.00"/>
<use x="704.94" y="240.00" xlink:href="#hd"/>
<path d="M701.44 240.00v24.90" class="stroke"/>
<use x="718.74" y="234.00" xlink:href="#hd"/>
<path d="M715.24 234.00v30.90" class="stroke"/>
<use x="732.54" y="228.00" xlink:href="#hl"/>
<use x="732.54" y="228.00" xlink:href="#hd"/>
<path d="M729.04 228.00v36.90" class="stroke"/>
<use x="746.34" y="234.00" xlink:href="#hd"/>
<path d="M742.84 234.00v30.90" class="stroke"/>
<use x="760.24" y="240.00" xlink:href="#hd"/>
<path d="M756.74 240.00v24.90" class="stroke"/>
<use x="774.04" y="246.00" xlink:href="#hd"/>
<path d="M770.54 246.00v18.90" class="stroke"/>
<path class="fill"
	d="M802.14 223.70l19.70 6.80v3.20l-19.70 -6.80"/>
<use x="799.04" y="243.00" xlink:href="#hd"/>
<path d="M802.54 243.00v-18.20" class="stroke"/>
<use x="818.04" y="264.00" xlink:href="#hl"/>
<use x="818.04" y="264.00" xlink:href="#hd"/>
<path d="M821.54 264.00v-32.70" class="stroke"/>
<use x="837.04" y="246.00" xlink:href="#r8"/>
<use x="23.54" y="298.00" xlink:href="#bclef"/>
<path class="fill"
	d="M52.24 335.20l65.30 0.00v-3.20l-65.30 -0.00"/>
<path class="fill"
	d="M71.54 330.20l45.60 0.00v-3.20l-45.60 -0.00"/>
<use x="56.04" y="316.00" xlink:href="#hd"/>
<path d="M52.54 316.00v18.20" class="stroke"/>
<use x="75.04" y="289.00" xlink:href="#hd"/>
<path d="M71.54 289.00v45.20" class="stroke"/>
<use x="88.84" y="295.00" xlink:href="#hd"/>
<path d="M85.34 295.00v39.20" class="stroke"/>
<use x="106.84" y="298.00" xlink:href="#hd"/>
<use x="97.84" y="298.00" xlink:href="#sh0"/>
<path d="M103.34 298.00v36.20" class="stroke"/>
<use x="120.64" y="301.00" xlink:href="#hd"/>
<path d="M117.14 301.00v33.20" class="stroke"/>
<use x="159.64" y="304.00" xlink:href="#hd"/>
<path d="M163.14 304.00v-21.00" class="stroke"/>
<use x="206.34" y="307.00" xlink:href="#hd"/>
<path d="M209.84 307.00v-21.00" class="stroke"/>
<path class="fill"
	d="M209.84 286.00c0.6 5.6 9.6 9 5.6 18.4
	1.6 -6 -1.3 -11.6 -5.6 -12.8
"/>
<use x="245.14" y="310.00" xlink:href="#hd"/>
<path d="M248.64 310.00v-25.00" class="stroke"/>
<use x="245.14" y="304.00" xlink:href="#hd"/>
<use x="300.44" y="310.00" xlink:href="#hd"/>
<path d="M303.94 310.00v-25.00" class="stroke"/>
<path class="fill"
	d="M303.94 285.00c0.6 5.6 9.6 9 5.6 18.4
	1.6 -6 -1.3 -11.6 -5.6 -12.8
"/>
<use x="300.44" y="304.00" xlink:href="#hd"/>
<use x="339.24" y="295.00" xlink:href="#hd"/>
<path d="M335.74 295.00v31.00" class="stroke"/>
<use x="339.24" y="307.00" xlink:href="#hd"/>
<use x="394.54" y="295.00" xlink:href="#hd"/>
<path d="M391.04 295.00v31.00" class="stroke"/>
<path class="fill"
	d="M391.04 326.00c0.6 -5.6 9.6 -9 5.6 -18.4
	1.6 6 -1.3 11.6 -5.6 12.8
"/>
<use x="394.54" y="307.00" xlink:href="#hd"/>
<path class="fill"
	d="M436.54 275.70l28.30 8.50v3.20l-28.30 -8.50"/>
<use x="433.34" y="295.00" xlink:href="#hd"/>
<path d="M436.84 295.00v-18.20" class="stroke"/>
<use x="461.04" y="316.00" xlink:href="#hd"/>
<path d="M464.54 316.00v-30.90" class="stroke"/>
<use x="488.64" y="304.00" xlink:href="#r8"/>
<use x="516.74" y="301.00" xlink:href="#hd"/>
<path d="M513.24 301.00v25.00" class="stroke"/>
<use x="516.74" y="307.00" xlink:href="#hd"/>
<use x="572.04" y="304.00" xlink:href="#r8"/>
<use x="610.84" y="301.00" xlink:href="#hd"/>
<path d="M607.34 301.00v25.00" class="stroke"/>
<use x="610.84" y="307.00" xlink:href="#hd"/>
<use x="666.14" y="304.00" xlink:href="#r8"/>
<use x="704.94" y="298.00" xlink:href="#hd"/>
<path d="M701.44 298.00v21.00" class="stroke"/>
<use x="760.24" y="295.00" xlink:href="#hd"/>
<path d="M756.74 295.00v21.00" class="stroke"/>
<path class="fill"
	d="M756.74 316.00c0.6 -5.6 9.6 -9 5.6 -18.4
	1.6 6 -1.3 11.6 -5.6 12.8
"/>
<use x="799.04" y="307.00" xlink:href="#hd"/>
<path d="M802.54 307.00v-21.00" class="stroke"/>
<use x="837.04" y="322.00" xlink:href="#hl"/>
<use x="837.04" y="328.00" xlink:href="#hl"/>
<use x="837.04" y="328.00" xlink:href="#hd"/>
<path d="M840.54 328.00v-24.00" class="stroke"/>
<path class="fill"
	d="M840.54 304.00c0.6 5.6 9.6 9 5.6 18.4
	1.6 -6 -1.3 -11.6 -5.6 -12.8
"/>
</g>
</svg>
