<?xml version="1.0" standalone="no"?>
<!DOCTYPE svg PUBLIC "-//W3C//DTD SVG 1.1//EN"
	"http://www.w3.org/Graphics/SVG/1.1/DTD/svg11.dtd">
<svg xmlns="http://www.w3.org/2000/svg" version="1.1"
	xmlns:xlink="http://www.w3.org/1999/xlink"
	color="black"
	width="757.10px" height="296.40px">
<style type="text/css">
.fill {fill: currentColor}
.stroke {stroke: currentColor; fill: none}
text{white-space: pre}
</style>
<title>./K516f-10-10-8-2-9-6-8-11-11-12-7-12-4-7-9-7.abc (2581) tune 1</title>
<!-- Creator: abcm2ps-8.13.8 -->
<!-- CreationDate: Sep  7, 2017 11:21 -->
<!-- CommandLine: ./K516f-10-10-8-2-9-6-8-11-11-12-7-12-4-7-9-7.abc -O ./K516f-10-10-8-2-9-6-8-11-11-12-7-12-4-7-9-7.svg -g -->
<rect width="100%" height="100%" fill="white"/>
<g stroke-width="0.70" transform="scale(0.867)">
<!-- title: 10-10-8-2-9-6-8-11-11-12-7-12-4-7-9-7 -->
</g>
<g stroke-width="0.70" transform="scale(0.867)" font-family="Times" font-size="20.00">
<text x="436.84" y="22.00" text-anchor="middle">10-10-8-2-9-6-8-11-11-12-7-12-4-7-9-7</text>
</g>
<g stroke-width="0.70" transform="scale(0.867)" font-family="Times" font-size="20.00">
<!-- subtitle: $1K.516f::98:142:171:41:140:97:21:33:102:20:150:92:73:162:72:151::$0 -->
</g>
<g stroke-width="0.70" transform="scale(0.867)" font-family="Courier" font-size="8.00" font-weight="bold">
<text x="436.84" y="41.80" text-anchor="middle">K.516f::98:142:171:41:140:97:21:33:102:20:150:92:73:162:72:151::</text>
</g>
<g stroke-width="0.70" transform="scale(0.867)" font-family="Courier" font-size="8.00" font-weight="bold">
<!-- subtitle: $1Perm. No.: 258195244567038$0 -->
<text x="436.84" y="60.80" text-anchor="middle">Perm. No.: 258195244567038</text>
</g>
<g stroke-width="0.70" transform="scale(0.607)" font-family="Courier" font-size="8.00" font-weight="bold">
<defs>
<ellipse id="hd" rx="4.1" ry="2.9"
	transform="rotate(-20)" class="fill"/>
</defs>
<use x="103.06" y="121.29" xlink:href="#hd"/>
<path d="M106.56 121.29v-21.00" class="stroke"/>
<path class="fill"
	d="M106.56 100.29c0.6 5.6 9.6 9 5.6 18.4
	1.6 -6 -1.3 -11.6 -5.6 -12.8
"/>
</g>
<g stroke-width="0.70" transform="scale(0.867)" font-family="Times" font-size="15.00" font-weight="bold">
<text x="81.24" y="87.00">= 111</text>
<path class="stroke" stroke-width="1"
	d="M11.54 183.00v-82.00"/>
<path class="fill"
	d="M6.54 98.00
	c10.5 1 12 -4.5 12 -3.5c0 1 -3.5 5.5 -8.5 5.5
	v84.00
	c5 0 8.5 4.5 8.5 5.5c0 1 -1.5 -4.5 -12 -3.5"/>
<defs>
<g id="rdots" class="fill">
	<circle cx="0" cy="-9" r="1.2"/>
	<circle cx="0" cy="-15" r="1.2"/>
</g>
</defs>
<use x="70.54" y="125.00" xlink:href="#rdots"/>
<path class="stroke" stroke-width="1"
	d="M66.54 125.00v-24.00"/>
<path class="stroke" stroke-width="3"
	d="M62.04 125.00v-24.00"/>
<use x="70.54" y="183.00" xlink:href="#rdots"/>
<path class="stroke" stroke-width="1"
	d="M66.54 183.00v-58.00"/>
<path class="stroke" stroke-width="3"
	d="M62.04 183.00v-58.00"/>
<path class="stroke" stroke-width="1"
	d="M177.34 125.00v-24.00"/>
<path class="stroke" stroke-width="1"
	d="M177.34 183.00v-58.00"/>
<path class="stroke" stroke-width="1"
	d="M253.04 125.00v-24.00"/>
<path class="stroke" stroke-width="1"
	d="M253.04 183.00v-58.00"/>
<path class="stroke" stroke-width="1"
	d="M358.94 125.00v-24.00"/>
<path class="stroke" stroke-width="1"
	d="M358.94 183.00v-58.00"/>
<path class="stroke" stroke-width="1"
	d="M453.74 125.00v-24.00"/>
<path class="stroke" stroke-width="1"
	d="M453.74 183.00v-58.00"/>
<path class="stroke" stroke-width="1"
	d="M546.54 125.00v-24.00"/>
<path class="stroke" stroke-width="1"
	d="M546.54 183.00v-58.00"/>
<path class="stroke" stroke-width="1"
	d="M654.34 125.00v-24.00"/>
<path class="stroke" stroke-width="1"
	d="M654.34 183.00v-58.00"/>
<path class="stroke" stroke-width="1"
	d="M762.14 125.00v-24.00"/>
<path class="stroke" stroke-width="1"
	d="M762.14 183.00v-58.00"/>
<path class="stroke" stroke-width="3"
	d="M860.54 125.00v-24.00"/>
<path class="stroke" stroke-width="1"
	d="M856.04 125.00v-24.00"/>
<use x="852.04" y="125.00" xlink:href="#rdots"/>
<path class="stroke" stroke-width="3"
	d="M860.54 183.00v-58.00"/>
<path class="stroke" stroke-width="1"
	d="M856.04 183.00v-58.00"/>
<use x="852.04" y="183.00" xlink:href="#rdots"/>
<path d="m11.54 125.00
	h850.50
	M11.54 119.00
	h850.50
	M11.54 113.00
	h850.50
	M11.54 107.00
	h850.50
	M11.54 101.00
	h850.50
	" class="stroke"/>
<path d="m11.54 183.00
	h850.50
	M11.54 177.00
	h850.50
	M11.54 171.00
	h850.50
	M11.54 165.00
	h850.50
	M11.54 159.00
	h850.50
	" class="stroke"/>
</g>
<g stroke-width="0.70" transform="scale(0.867)" font-family="Times" font-size="13.00">
<text x="766.14" y="86.40">1</text>
<path class="stroke"
	d="M762.14 75.00m0 20v-20h91.90v20"/>
<defs>
<path id="utclef" class="fill" d="m-50 -90
	c-72 -41 -72 -158 52 -188
	150 -10 220 188 90 256
	-114 52 -275 0 -293 -136
	-15 -181 93 -229 220 -334
	88 -87 79 -133 62 -210
	-51 33 -94 105 -89 186
	17 267 36 374 49 574
	6 96 -19 134 -77 135
	-80 1 -126 -93 -61 -133
	85 -41 133 101 31 105
	23 17 92 37 90 -92
	-10 -223 -39 -342 -50 -617
	0 -90 0 -162 96 -232
	56 72 63 230 22 289
	-74 106 -257 168 -255 316
	9 153 148 185 252 133
	86 -65 29 -192 -80 -176
	-71 12 -105 67 -59 124"/>
<use id="tclef" transform="translate(0,6) scale(0.045)"
	xlink:href="#utclef"/>
</defs>
<use x="23.54" y="119.00" xlink:href="#tclef"/>
<g font-family="serif" font-size="16" font-weight="bold" font-style="normal"
	transform="translate(42.04,124.50) scale(1.2,1)">
	<text text-anchor="middle">8</text>
	<text y="-12" text-anchor="middle">3</text>
</g>
<path class="fill"
	d="M80.54 139.80l64.80 -3.30v-3.20l-64.80 3.30"/>
<use x="84.44" y="110.00" xlink:href="#hd"/>
<path d="M80.94 110.00v28.80" class="stroke"/>
<use x="116.54" y="119.00" xlink:href="#hd"/>
<path d="M113.04 119.00v18.20" class="stroke"/>
<use x="148.54" y="104.00" xlink:href="#hd"/>
<path d="M145.04 104.00v31.60" class="stroke"/>
<path class="fill"
	d="M186.44 139.80l45.70 -3.20v-3.20l-45.70 3.20"/>
<use x="190.24" y="110.00" xlink:href="#hd"/>
<path d="M186.74 110.00v28.80" class="stroke"/>
<use x="212.74" y="119.00" xlink:href="#hd"/>
<path d="M209.24 119.00v18.20" class="stroke"/>
<use x="235.24" y="104.00" xlink:href="#hd"/>
<path d="M231.74 104.00v31.60" class="stroke"/>
<path class="fill"
	d="M262.14 133.00l80.90 0.00v-3.20l-80.90 -0.00"/>
<path class="fill"
	d="M262.44 128.00l80.20 0.00v-3.20l-80.20 -0.00"/>
<use x="265.94" y="113.00" xlink:href="#hd"/>
<path d="M262.44 113.00v18.90" class="stroke"/>
<use x="281.94" y="110.00" xlink:href="#hd"/>
<path d="M278.44 110.00v21.90" class="stroke"/>
<use x="298.04" y="107.00" xlink:href="#hd"/>
<path d="M294.54 107.00v24.90" class="stroke"/>
<use x="314.04" y="104.00" xlink:href="#hd"/>
<path d="M310.54 104.00v27.90" class="stroke"/>
<use x="330.14" y="101.00" xlink:href="#hd"/>
<path d="M326.64 101.00v30.90" class="stroke"/>
<use x="346.14" y="107.00" xlink:href="#hd"/>
<path d="M342.64 107.00v24.90" class="stroke"/>
<path class="fill"
	d="M367.94 138.20l64.80 0.00v-3.20l-64.80 -0.00"/>
<path class="fill"
	d="M368.24 133.20l48.10 0.00v-3.20l-48.10 -0.00"/>
<use x="371.74" y="110.00" xlink:href="#hd"/>
<path d="M368.24 110.00v27.20" class="stroke"/>
<use x="387.84" y="113.00" xlink:href="#hd"/>
<path d="M384.34 113.00v24.20" class="stroke"/>
<use x="403.84" y="110.00" xlink:href="#hd"/>
<path d="M400.34 110.00v27.20" class="stroke"/>
<use x="419.94" y="104.00" xlink:href="#hd"/>
<path d="M416.44 104.00v33.20" class="stroke"/>
<use x="435.94" y="119.00" xlink:href="#hd"/>
<path d="M432.44 119.00v18.20" class="stroke"/>
<path class="fill"
	d="M468.34 141.10l57.20 -7.20v-3.20l-57.20 7.20"/>
<path class="fill"
	d="M491.24 133.20l16.00 -2.00v-3.20l-16.00 2.00"/>
<use x="472.24" y="116.00" xlink:href="#hd"/>
<path d="M468.74 116.00v24.00" class="stroke"/>
<use x="494.74" y="116.00" xlink:href="#hd"/>
<path d="M491.24 116.00v21.20" class="stroke"/>
<use x="510.74" y="107.00" xlink:href="#hd"/>
<path d="M507.24 107.00v28.20" class="stroke"/>
<use x="528.74" y="101.00" xlink:href="#hd"/>
<defs>
<path id="usharp" class="fill" d="
	m136 -702
	v890
	h32
	v-890
	m128 840
	h32
	v-888
	h-32
	m-232 286
	v116
	l338 -96
	v-116
	m-338 442
	v116
	l338 -98
	v-114"/>
<use id="sh0" transform="translate(-4,5) scale(0.018)"
	xlink:href="#usharp"/>
</defs>
<use x="519.74" y="101.00" xlink:href="#sh0"/>
<path d="M525.24 101.00v31.90" class="stroke"/>
<path class="fill"
	d="M555.64 131.40l82.80 9.90v-3.20l-82.80 -9.90"/>
<path class="fill"
	d="M555.94 126.40l82.20 9.80v-3.20l-82.20 -9.80"/>
<use x="559.44" y="98.00" xlink:href="#hd"/>
<path d="M555.94 98.00v32.40" class="stroke"/>
<use x="577.44" y="101.00" xlink:href="#hd"/>
<use x="568.44" y="101.00" xlink:href="#sh0"/>
<path d="M573.94 101.00v31.50" class="stroke"/>
<use x="593.44" y="98.00" xlink:href="#hd"/>
<path d="M589.94 98.00v36.50" class="stroke"/>
<use x="609.54" y="107.00" xlink:href="#hd"/>
<path d="M606.04 107.00v29.40" class="stroke"/>
<use x="625.54" y="113.00" xlink:href="#hd"/>
<path d="M622.04 113.00v25.30" class="stroke"/>
<use x="641.64" y="119.00" xlink:href="#hd"/>
<path d="M638.14 119.00v21.20" class="stroke"/>
<path class="fill"
	d="M663.34 138.20l82.80 0.00v-3.20l-82.80 -0.00"/>
<path class="fill"
	d="M663.74 133.20l82.20 0.00v-3.20l-82.20 -0.00"/>
<use x="667.24" y="110.00" xlink:href="#hd"/>
<path d="M663.74 110.00v27.20" class="stroke"/>
<use x="683.24" y="104.00" xlink:href="#hd"/>
<path d="M679.74 104.00v33.20" class="stroke"/>
<use x="699.34" y="98.00" xlink:href="#hd"/>
<path d="M695.84 98.00v39.20" class="stroke"/>
<use x="715.34" y="107.00" xlink:href="#hd"/>
<path d="M711.84 107.00v30.20" class="stroke"/>
<use x="731.34" y="116.00" xlink:href="#hd"/>
<path d="M727.84 116.00v21.20" class="stroke"/>
<use x="749.34" y="101.00" xlink:href="#hd"/>
<use x="740.34" y="101.00" xlink:href="#sh0"/>
<path d="M745.84 101.00v36.20" class="stroke"/>
<use x="775.04" y="98.00" xlink:href="#hd"/>
<path d="M771.54 98.00v40.00" class="stroke"/>
<use x="775.04" y="119.00" xlink:href="#hd"/>
<use x="775.04" y="113.00" xlink:href="#hd"/>
<use x="775.04" y="107.00" xlink:href="#hd"/>
<defs>
<path id="r8e" class="fill" d="m 0 0
	c-1.5 1.5 -2.4 2 -3.6 2
	2.4 -2.8 -2.8 -4 -2.8 -1.2
	c0 2.7 4.3 2.4 5.9 0.6"/>
<g id="r8">
	<path d="m3.3 -4l-3.4 9.6" class="stroke"/>
	<use x="3.4" y="-4" xlink:href="#r8e"/>
</g>
</defs>
<use x="831.54" y="113.00" xlink:href="#r8"/>
<defs>
<path id="ubclef" class="fill" d="m-200 -87
	c124 -35 222 -78 254 -236
	43 -228 -167 -246 -192 -103
	59 -80 157 22 92 78
	-62 47 -115 -22 -106 -88
	21 -141 270 -136 274 52
	-1 175 -106 264 -322 297
	m357 -250
	c0 -36 51 -34 51 0
	0 37 -51 36 -51 0
	m-2 -129
	c0 -36 51 -34 51 0
	0 38 -51 37 -51 0"/>
<use id="bclef" transform="translate(0,18) scale(0.045)"
	xlink:href="#ubclef"/>
</defs>
<use x="23.54" y="165.00" xlink:href="#bclef"/>
<g font-family="serif" font-size="16" font-weight="bold" font-style="normal"
	transform="translate(42.04,182.50) scale(1.2,1)">
	<text text-anchor="middle">8</text>
	<text y="-12" text-anchor="middle">3</text>
</g>
<path class="fill"
	d="M80.54 190.90l80.90 0.00v-3.20l-80.90 -0.00"/>
<path class="fill"
	d="M80.94 185.90l80.20 0.00v-3.20l-80.20 -0.00"/>
<use x="84.44" y="168.00" xlink:href="#hd"/>
<path d="M80.94 168.00v21.90" class="stroke"/>
<use x="84.44" y="174.00" xlink:href="#hd"/>
<use x="100.44" y="162.00" xlink:href="#hd"/>
<path d="M96.94 162.00v27.90" class="stroke"/>
<use x="116.54" y="168.00" xlink:href="#hd"/>
<path d="M113.04 168.00v21.90" class="stroke"/>
<use x="116.54" y="174.00" xlink:href="#hd"/>
<use x="132.54" y="162.00" xlink:href="#hd"/>
<path d="M129.04 162.00v27.90" class="stroke"/>
<use x="148.54" y="168.00" xlink:href="#hd"/>
<path d="M145.04 168.00v21.90" class="stroke"/>
<use x="148.54" y="174.00" xlink:href="#hd"/>
<use x="164.64" y="162.00" xlink:href="#hd"/>
<path d="M161.14 162.00v27.90" class="stroke"/>
<use x="190.24" y="168.00" xlink:href="#hd"/>
<path d="M186.74 168.00v25.00" class="stroke"/>
<use x="190.24" y="174.00" xlink:href="#hd"/>
<use x="235.24" y="171.00" xlink:href="#r8"/>
<use x="265.94" y="183.00" xlink:href="#hd"/>
<path d="M269.44 183.00v-40.00" class="stroke"/>
<use x="265.94" y="162.00" xlink:href="#hd"/>
<use x="330.14" y="162.00" xlink:href="#hd"/>
<path d="M326.64 162.00v34.00" class="stroke"/>
<path class="fill"
	d="M326.64 196.00c0.6 -5.6 9.6 -9 5.6 -18.4
	1.6 6 -1.3 11.6 -5.6 12.8
"/>
<use x="330.14" y="177.00" xlink:href="#hd"/>
<use x="371.74" y="168.00" xlink:href="#hd"/>
<path d="M368.24 168.00v25.00" class="stroke"/>
<use x="371.74" y="174.00" xlink:href="#hd"/>
<use x="435.94" y="171.00" xlink:href="#r8"/>
<path class="fill"
	d="M468.34 193.00l57.20 0.00v-3.20l-57.20 -0.00"/>
<use x="472.24" y="165.00" xlink:href="#hd"/>
<use x="463.24" y="165.00" xlink:href="#sh0"/>
<path d="M468.74 165.00v27.00" class="stroke"/>
<use x="472.24" y="174.00" xlink:href="#hd"/>
<use x="494.74" y="165.00" xlink:href="#hd"/>
<path d="M491.24 165.00v27.00" class="stroke"/>
<use x="494.74" y="174.00" xlink:href="#hd"/>
<use x="528.74" y="159.00" xlink:href="#hd"/>
<path d="M525.24 159.00v33.00" class="stroke"/>
<use x="528.74" y="174.00" xlink:href="#hd"/>
<use x="559.44" y="177.00" xlink:href="#hd"/>
<path d="M562.94 177.00v-25.00" class="stroke"/>
<use x="559.44" y="171.00" xlink:href="#hd"/>
<use x="625.54" y="162.00" xlink:href="#hd"/>
<path d="M622.04 162.00v34.00" class="stroke"/>
<path class="fill"
	d="M622.04 196.00c0.6 -5.6 9.6 -9 5.6 -18.4
	1.6 6 -1.3 11.6 -5.6 12.8
"/>
<use x="625.54" y="177.00" xlink:href="#hd"/>
<path class="fill"
	d="M670.34 147.70l64.80 8.20v3.20l-64.80 -8.20"/>
<use x="667.24" y="174.00" xlink:href="#hd"/>
<path d="M670.74 174.00v-25.20" class="stroke"/>
<use x="699.34" y="171.00" xlink:href="#hd"/>
<path d="M702.84 171.00v-18.20" class="stroke"/>
<defs>
<path id="hl" class="stroke" d="m-6 0h12"/>
</defs>
<use x="731.34" y="189.00" xlink:href="#hl"/>
<use x="731.34" y="192.00" xlink:href="#hd"/>
<path d="M734.84 192.00v-35.20" class="stroke"/>
<path class="fill"
	d="M771.14 202.20l73.30 0.00v-3.20l-73.30 -0.00"/>
<path class="fill"
	d="M794.04 197.20l50.10 0.00v-3.20l-50.10 -0.00"/>
<use x="775.04" y="183.00" xlink:href="#hd"/>
<path d="M771.54 183.00v18.20" class="stroke"/>
<use x="797.54" y="162.00" xlink:href="#hd"/>
<path d="M794.04 162.00v39.20" class="stroke"/>
<use x="815.54" y="165.00" xlink:href="#hd"/>
<defs>
<path id="unat" class="fill" d="
	m96 -750
	h-32
	v716
	l32 -8
	182 -54
	v282
	h32
	v-706
	l-34 10
	-180 50
	v-290
	m0 592
	v-190
	l182 -52
	v188"/>
<use id="nt0" transform="translate(-3,5) scale(0.018)"
	xlink:href="#unat"/>
</defs>
<use x="806.54" y="165.00" xlink:href="#nt0"/>
<path d="M812.04 165.00v36.20" class="stroke"/>
<use x="831.54" y="168.00" xlink:href="#hd"/>
<path d="M828.04 168.00v33.20" class="stroke"/>
<use x="847.64" y="171.00" xlink:href="#hd"/>
<path d="M844.14 171.00v30.20" class="stroke"/>
</g>
<g stroke-width="0.70" transform="scale(0.867)" font-family="Times" font-size="13.00">
<path class="stroke" stroke-width="1"
	d="M11.54 319.00v-85.00"/>
<path class="fill"
	d="M6.54 231.00
	c10.5 1 12 -4.5 12 -3.5c0 1 -3.5 5.5 -8.5 5.5
	v87.00
	c5 0 8.5 4.5 8.5 5.5c0 1 -1.5 -4.5 -12 -3.5"/>
<use x="143.44" y="258.00" xlink:href="#rdots"/>
<path class="stroke" stroke-width="1"
	d="M139.44 258.00v-24.00"/>
<path class="stroke" stroke-width="3"
	d="M134.94 258.00v-24.00"/>
<use x="143.44" y="319.00" xlink:href="#rdots"/>
<path class="stroke" stroke-width="1"
	d="M139.44 319.00v-61.00"/>
<path class="stroke" stroke-width="3"
	d="M134.94 319.00v-61.00"/>
<path class="stroke" stroke-width="1"
	d="M231.44 258.00v-24.00"/>
<path class="stroke" stroke-width="1"
	d="M231.44 319.00v-61.00"/>
<path class="stroke" stroke-width="1"
	d="M310.34 258.00v-24.00"/>
<path class="stroke" stroke-width="1"
	d="M310.34 319.00v-61.00"/>
<path class="stroke" stroke-width="1"
	d="M413.74 258.00v-24.00"/>
<path class="stroke" stroke-width="1"
	d="M413.74 319.00v-61.00"/>
<path class="stroke" stroke-width="1"
	d="M492.54 258.00v-24.00"/>
<path class="stroke" stroke-width="1"
	d="M492.54 319.00v-61.00"/>
<path class="stroke" stroke-width="1"
	d="M591.04 258.00v-24.00"/>
<path class="stroke" stroke-width="1"
	d="M591.04 319.00v-61.00"/>
<path class="stroke" stroke-width="1"
	d="M689.54 258.00v-24.00"/>
<path class="stroke" stroke-width="1"
	d="M689.54 319.00v-61.00"/>
<path class="stroke" stroke-width="1"
	d="M788.14 258.00v-24.00"/>
<path class="stroke" stroke-width="1"
	d="M788.14 319.00v-61.00"/>
<path class="stroke" stroke-width="3"
	d="M860.54 258.00v-24.00"/>
<path class="stroke" stroke-width="1"
	d="M856.04 258.00v-24.00"/>
<use x="852.04" y="258.00" xlink:href="#rdots"/>
<path class="stroke" stroke-width="3"
	d="M860.54 319.00v-61.00"/>
<path class="stroke" stroke-width="1"
	d="M856.04 319.00v-61.00"/>
<use x="852.04" y="319.00" xlink:href="#rdots"/>
<path d="m11.54 258.00
	h850.50
	M11.54 252.00
	h850.50
	M11.54 246.00
	h850.50
	M11.54 240.00
	h850.50
	M11.54 234.00
	h850.50
	" class="stroke"/>
<path d="m11.54 319.00
	h850.50
	M11.54 313.00
	h850.50
	M11.54 307.00
	h850.50
	M11.54 301.00
	h850.50
	M11.54 295.00
	h850.50
	" class="stroke"/>
<text x="47.54" y="219.40">2</text>
<path class="stroke"
	d="M43.54 208.00m0 20v-20h88.90v20"/>
<use x="23.54" y="252.00" xlink:href="#tclef"/>
<use x="56.04" y="231.00" xlink:href="#hd"/>
<path d="M52.54 231.00v40.00" class="stroke"/>
<use x="56.04" y="252.00" xlink:href="#hd"/>
<use x="56.04" y="246.00" xlink:href="#hd"/>
<use x="56.04" y="240.00" xlink:href="#hd"/>
<use x="109.24" y="246.00" xlink:href="#r8"/>
<path class="fill"
	d="M159.04 262.60l30.10 5.70v-3.20l-30.10 -5.70"/>
<path class="fill"
	d="M159.44 257.60l14.70 2.80v-3.20l-14.70 -2.80"/>
<use x="162.94" y="234.00" xlink:href="#hd"/>
<use x="153.94" y="234.00" xlink:href="#sh0"/>
<path d="M159.44 234.00v27.60" class="stroke"/>
<use x="177.64" y="240.00" xlink:href="#hd"/>
<path d="M174.14 240.00v24.40" class="stroke"/>
<use x="192.34" y="249.00" xlink:href="#hd"/>
<path d="M188.84 249.00v18.20" class="stroke"/>
<use x="214.94" y="234.00" xlink:href="#hd"/>
<path d="M211.44 234.00v21.00" class="stroke"/>
<path class="fill"
	d="M211.44 255.00c0.6 -5.6 9.6 -9 5.6 -18.4
	1.6 6 -1.3 11.6 -5.6 12.8
"/>
<path class="fill"
	d="M240.04 260.00l50.70 0.00v-3.20l-50.70 -0.00"/>
<path class="fill"
	d="M260.84 255.00l14.80 0.00v-3.20l-14.80 -0.00"/>
<use x="243.94" y="231.00" xlink:href="#hd"/>
<path d="M240.44 231.00v28.00" class="stroke"/>
<use x="264.34" y="228.00" xlink:href="#hl"/>
<use x="264.34" y="225.00" xlink:href="#hd"/>
<path d="M260.84 225.00v34.00" class="stroke"/>
<use x="279.24" y="228.00" xlink:href="#hl"/>
<use x="279.24" y="222.00" xlink:href="#hl"/>
<use x="279.24" y="219.00" xlink:href="#hd"/>
<path d="M275.74 219.00v40.00" class="stroke"/>
<use x="293.94" y="240.00" xlink:href="#hd"/>
<path d="M290.44 240.00v19.00" class="stroke"/>
<use x="322.84" y="237.00" xlink:href="#hd"/>
<path d="M319.34 237.00v34.00" class="stroke"/>
<path class="fill"
	d="M319.34 271.00c0.6 -5.6 9.6 -9 5.6 -18.4
	1.6 6 -1.3 11.6 -5.6 12.8
"/>
<use x="322.84" y="252.00" xlink:href="#hd"/>
<use x="322.84" y="243.00" xlink:href="#hd"/>
<use x="353.84" y="237.00" xlink:href="#hd"/>
<path d="M350.34 237.00v21.00" class="stroke"/>
<path class="fill"
	d="M422.34 264.20l50.60 0.00v-3.20l-50.60 -0.00"/>
<path class="fill"
	d="M443.14 259.20l14.70 0.00v-3.20l-14.70 -0.00"/>
<use x="426.24" y="240.00" xlink:href="#hd"/>
<path d="M422.74 240.00v23.20" class="stroke"/>
<use x="426.24" y="246.00" xlink:href="#hd"/>
<use x="446.64" y="231.00" xlink:href="#hd"/>
<path d="M443.14 231.00v32.20" class="stroke"/>
<use x="461.34" y="228.00" xlink:href="#hl"/>
<use x="461.34" y="225.00" xlink:href="#hd"/>
<path d="M457.84 225.00v38.20" class="stroke"/>
<use x="476.14" y="240.00" xlink:href="#hd"/>
<path d="M472.64 240.00v23.20" class="stroke"/>
<path class="fill"
	d="M501.14 253.70l59.50 8.60v-3.20l-59.50 -8.60"/>
<use x="505.04" y="231.00" xlink:href="#hd"/>
<path d="M501.54 231.00v21.70" class="stroke"/>
<use x="534.44" y="237.00" xlink:href="#hd"/>
<path d="M530.94 237.00v20.00" class="stroke"/>
<use x="563.84" y="243.00" xlink:href="#hd"/>
<path d="M560.34 243.00v18.30" class="stroke"/>
<path class="fill"
	d="M599.74 263.50l74.20 -6.30v-3.20l-74.20 6.30"/>
<path class="fill"
	d="M600.04 258.40l73.50 -6.20v-3.20l-73.50 6.20"/>
<use x="603.54" y="237.00" xlink:href="#hd"/>
<path d="M600.04 237.00v25.40" class="stroke"/>
<use x="618.24" y="240.00" xlink:href="#hd"/>
<path d="M614.74 240.00v21.20" class="stroke"/>
<use x="632.94" y="237.00" xlink:href="#hd"/>
<path d="M629.44 237.00v23.00" class="stroke"/>
<use x="647.64" y="231.00" xlink:href="#hd"/>
<path d="M644.14 231.00v27.70" class="stroke"/>
<use x="662.34" y="228.00" xlink:href="#hl"/>
<use x="662.34" y="222.00" xlink:href="#hl"/>
<use x="662.34" y="222.00" xlink:href="#hd"/>
<path d="M658.84 222.00v35.50" class="stroke"/>
<use x="677.04" y="231.00" xlink:href="#hd"/>
<path d="M673.54 231.00v25.20" class="stroke"/>
<path class="fill"
	d="M698.24 266.00l74.20 0.00v-3.20l-74.20 -0.00"/>
<path class="fill"
	d="M698.54 261.00l73.50 0.00v-3.20l-73.50 -0.00"/>
<use x="702.04" y="234.00" xlink:href="#hd"/>
<path d="M698.54 234.00v30.90" class="stroke"/>
<use x="716.74" y="237.00" xlink:href="#hd"/>
<path d="M713.24 237.00v27.90" class="stroke"/>
<use x="731.44" y="240.00" xlink:href="#hd"/>
<path d="M727.94 240.00v24.90" class="stroke"/>
<use x="746.24" y="243.00" xlink:href="#hd"/>
<path d="M742.74 243.00v21.90" class="stroke"/>
<use x="760.94" y="246.00" xlink:href="#hd"/>
<path d="M757.44 246.00v18.90" class="stroke"/>
<use x="775.64" y="240.00" xlink:href="#hd"/>
<path d="M772.14 240.00v24.90" class="stroke"/>
<use x="800.64" y="243.00" xlink:href="#hd"/>
<path d="M797.14 243.00v21.00" class="stroke"/>
<use x="841.54" y="246.00" xlink:href="#r8"/>
<use x="23.54" y="301.00" xlink:href="#bclef"/>
<path class="fill"
	d="M52.24 338.20l68.60 -5.00v-3.20l-68.60 5.00"/>
<path class="fill"
	d="M73.04 331.70l47.40 -3.50v-3.20l-47.40 3.50"/>
<use x="56.04" y="319.00" xlink:href="#hd"/>
<path d="M52.54 319.00v18.20" class="stroke"/>
<use x="76.54" y="292.00" xlink:href="#hd"/>
<path d="M73.04 292.00v43.70" class="stroke"/>
<use x="91.24" y="298.00" xlink:href="#hd"/>
<path d="M87.74 298.00v36.60" class="stroke"/>
<use x="109.24" y="301.00" xlink:href="#hd"/>
<use x="100.24" y="301.00" xlink:href="#sh0"/>
<path d="M105.74 301.00v32.30" class="stroke"/>
<use x="123.94" y="304.00" xlink:href="#hd"/>
<path d="M120.44 304.00v28.30" class="stroke"/>
<use x="162.94" y="295.00" xlink:href="#hd"/>
<path d="M159.44 295.00v34.00" class="stroke"/>
<use x="162.94" y="310.00" xlink:href="#hd"/>
<use x="214.94" y="295.00" xlink:href="#hd"/>
<path d="M211.44 295.00v34.00" class="stroke"/>
<path class="fill"
	d="M211.44 329.00c0.6 -5.6 9.6 -9 5.6 -18.4
	1.6 6 -1.3 11.6 -5.6 12.8
"/>
<use x="214.94" y="310.00" xlink:href="#hd"/>
<use x="243.94" y="313.00" xlink:href="#hd"/>
<path d="M247.44 313.00v-21.00" class="stroke"/>
<use x="293.94" y="307.00" xlink:href="#r8"/>
<path class="fill"
	d="M326.04 278.80l79.00 0.00v3.20l-79.00 -0.00"/>
<path class="fill"
	d="M326.34 283.80l78.40 0.00v3.20l-78.40 -0.00"/>
<use x="322.84" y="310.00" xlink:href="#hd"/>
<path d="M326.34 310.00v-30.20" class="stroke"/>
<use x="337.54" y="313.00" xlink:href="#hd"/>
<path d="M341.04 313.00v-33.20" class="stroke"/>
<use x="353.84" y="310.00" xlink:href="#hd"/>
<path d="M357.34 310.00v-30.20" class="stroke"/>
<use x="368.54" y="307.00" xlink:href="#hd"/>
<path d="M372.04 307.00v-27.20" class="stroke"/>
<use x="383.24" y="304.00" xlink:href="#hd"/>
<path d="M386.74 304.00v-24.20" class="stroke"/>
<use x="401.24" y="301.00" xlink:href="#hd"/>
<use x="392.24" y="301.00" xlink:href="#sh0"/>
<path d="M404.74 301.00v-21.20" class="stroke"/>
<use x="426.24" y="319.00" xlink:href="#hd"/>
<path d="M429.74 319.00v-40.00" class="stroke"/>
<use x="426.24" y="298.00" xlink:href="#hd"/>
<use x="476.14" y="298.00" xlink:href="#hd"/>
<path d="M472.64 298.00v21.00" class="stroke"/>
<path class="fill"
	d="M472.64 319.00c0.6 -5.6 9.6 -9 5.6 -18.4
	1.6 6 -1.3 11.6 -5.6 12.8
"/>
<path class="fill"
	d="M501.14 326.90l74.20 0.00v-3.20l-74.20 -0.00"/>
<path class="fill"
	d="M501.54 321.90l73.50 0.00v-3.20l-73.50 -0.00"/>
<use x="505.04" y="304.00" xlink:href="#hd"/>
<path d="M501.54 304.00v21.90" class="stroke"/>
<use x="505.04" y="310.00" xlink:href="#hd"/>
<use x="519.74" y="298.00" xlink:href="#hd"/>
<path d="M516.24 298.00v27.90" class="stroke"/>
<use x="534.44" y="304.00" xlink:href="#hd"/>
<path d="M530.94 304.00v21.90" class="stroke"/>
<use x="534.44" y="310.00" xlink:href="#hd"/>
<use x="549.14" y="298.00" xlink:href="#hd"/>
<path d="M545.64 298.00v27.90" class="stroke"/>
<use x="563.84" y="304.00" xlink:href="#hd"/>
<path d="M560.34 304.00v21.90" class="stroke"/>
<use x="563.84" y="310.00" xlink:href="#hd"/>
<use x="578.54" y="298.00" xlink:href="#hd"/>
<path d="M575.04 298.00v27.90" class="stroke"/>
<use x="603.54" y="298.00" xlink:href="#hd"/>
<path d="M600.04 298.00v31.00" class="stroke"/>
<use x="603.54" y="310.00" xlink:href="#hd"/>
<use x="662.34" y="304.00" xlink:href="#hd"/>
<path d="M658.84 304.00v25.00" class="stroke"/>
<path class="fill"
	d="M658.84 329.00c0.6 -5.6 9.6 -9 5.6 -18.4
	1.6 6 -1.3 11.6 -5.6 12.8
"/>
<use x="662.34" y="310.00" xlink:href="#hd"/>
<use x="702.04" y="301.00" xlink:href="#hd"/>
<path d="M698.54 301.00v21.00" class="stroke"/>
<use x="760.94" y="298.00" xlink:href="#hd"/>
<path d="M757.44 298.00v21.00" class="stroke"/>
<path class="fill"
	d="M757.44 319.00c0.6 -5.6 9.6 -9 5.6 -18.4
	1.6 6 -1.3 11.6 -5.6 12.8
"/>
<path class="fill"
	d="M803.74 290.70l41.60 9.70v3.20l-41.60 -9.70"/>
<use x="800.64" y="310.00" xlink:href="#hd"/>
<path d="M804.14 310.00v-18.20" class="stroke"/>
<use x="821.04" y="319.00" xlink:href="#hd"/>
<path d="M824.54 319.00v-22.40" class="stroke"/>
<use x="841.54" y="325.00" xlink:href="#hl"/>
<use x="841.54" y="331.00" xlink:href="#hl"/>
<use x="841.54" y="331.00" xlink:href="#hd"/>
<path d="M845.04 331.00v-29.60" class="stroke"/>
<defs>
<text id="trl" font-family="serif" font-size="16" font-style="italic"
	x="-2" y="-4">tr</text>
</defs>
<use x="353.84" y="231.00" xlink:href="#trl"/>
</g>
</svg>
