<?xml version="1.0" standalone="no"?>
<!DOCTYPE svg PUBLIC "-//W3C//DTD SVG 1.1//EN"
	"http://www.w3.org/Graphics/SVG/1.1/DTD/svg11.dtd">
<svg xmlns="http://www.w3.org/2000/svg" version="1.1"
	xmlns:xlink="http://www.w3.org/1999/xlink"
	color="black"
	width="757.10px" height="300.73px">
<style type="text/css">
.fill {fill: currentColor}
.stroke {stroke: currentColor; fill: none}
text{white-space: pre}
</style>
<title>./K516f-6-8-2-8-10-6-11-2-8-5-11-8-6-11-9-11.abc (2712) tune 1</title>
<!-- Creator: abcm2ps-8.13.8 -->
<!-- CreationDate: Sep  7, 2017 11:18 -->
<!-- CommandLine: ./K516f-6-8-2-8-10-6-11-2-8-5-11-8-6-11-9-11.abc -O ./K516f-6-8-2-8-10-6-11-2-8-5-11-8-6-11-9-11.svg -g -->
<rect width="100%" height="100%" fill="white"/>
<g stroke-width="0.70" transform="scale(0.867)">
<!-- title: 6-8-2-8-10-6-11-2-8-5-11-8-6-11-9-11 -->
</g>
<g stroke-width="0.70" transform="scale(0.867)" font-family="Times" font-size="20.00">
<text x="436.84" y="22.00" text-anchor="middle">6-8-2-8-10-6-11-2-8-5-11-8-6-11-9-11</text>
</g>
<g stroke-width="0.70" transform="scale(0.867)" font-family="Times" font-size="20.00">
<!-- subtitle: $1K.516f::148:60:141:53:75:97:147:30:16:176:31:175:76:59:72:78::$0 -->
</g>
<g stroke-width="0.70" transform="scale(0.867)" font-family="Courier" font-size="8.00" font-weight="bold">
<text x="436.84" y="41.80" text-anchor="middle">K.516f::148:60:141:53:75:97:147:30:16:176:31:175:76:59:72:78::</text>
</g>
<g stroke-width="0.70" transform="scale(0.867)" font-family="Courier" font-size="8.00" font-weight="bold">
<!-- subtitle: $1Perm. No.: 271223709870382$0 -->
<text x="436.84" y="60.80" text-anchor="middle">Perm. No.: 271223709870382</text>
</g>
<g stroke-width="0.70" transform="scale(0.607)" font-family="Courier" font-size="8.00" font-weight="bold">
<defs>
<ellipse id="hd" rx="4.1" ry="2.9"
	transform="rotate(-20)" class="fill"/>
</defs>
<use x="103.06" y="121.29" xlink:href="#hd"/>
<path d="M106.56 121.29v-21.00" class="stroke"/>
<path class="fill"
	d="M106.56 100.29c0.6 5.6 9.6 9 5.6 18.4
	1.6 -6 -1.3 -11.6 -5.6 -12.8
"/>
</g>
<g stroke-width="0.70" transform="scale(0.867)" font-family="Times" font-size="15.00" font-weight="bold">
<text x="81.24" y="87.00">= 111</text>
<path class="stroke" stroke-width="1"
	d="M11.54 191.00v-82.00"/>
<path class="fill"
	d="M6.54 106.00
	c10.5 1 12 -4.5 12 -3.5c0 1 -3.5 5.5 -8.5 5.5
	v84.00
	c5 0 8.5 4.5 8.5 5.5c0 1 -1.5 -4.5 -12 -3.5"/>
<defs>
<g id="rdots" class="fill">
	<circle cx="0" cy="-9" r="1.2"/>
	<circle cx="0" cy="-15" r="1.2"/>
</g>
</defs>
<use x="70.54" y="133.00" xlink:href="#rdots"/>
<path class="stroke" stroke-width="1"
	d="M66.54 133.00v-24.00"/>
<path class="stroke" stroke-width="3"
	d="M62.04 133.00v-24.00"/>
<use x="70.54" y="191.00" xlink:href="#rdots"/>
<path class="stroke" stroke-width="1"
	d="M66.54 191.00v-58.00"/>
<path class="stroke" stroke-width="3"
	d="M62.04 191.00v-58.00"/>
<path class="stroke" stroke-width="1"
	d="M177.54 133.00v-24.00"/>
<path class="stroke" stroke-width="1"
	d="M177.54 191.00v-58.00"/>
<path class="stroke" stroke-width="1"
	d="M273.84 133.00v-24.00"/>
<path class="stroke" stroke-width="1"
	d="M273.84 191.00v-58.00"/>
<path class="stroke" stroke-width="1"
	d="M379.74 133.00v-24.00"/>
<path class="stroke" stroke-width="1"
	d="M379.74 191.00v-58.00"/>
<path class="stroke" stroke-width="1"
	d="M465.04 133.00v-24.00"/>
<path class="stroke" stroke-width="1"
	d="M465.04 191.00v-58.00"/>
<path class="stroke" stroke-width="1"
	d="M546.44 133.00v-24.00"/>
<path class="stroke" stroke-width="1"
	d="M546.44 191.00v-58.00"/>
<path class="stroke" stroke-width="1"
	d="M654.24 133.00v-24.00"/>
<path class="stroke" stroke-width="1"
	d="M654.24 191.00v-58.00"/>
<path class="stroke" stroke-width="1"
	d="M762.14 133.00v-24.00"/>
<path class="stroke" stroke-width="1"
	d="M762.14 191.00v-58.00"/>
<path class="stroke" stroke-width="3"
	d="M860.54 133.00v-24.00"/>
<path class="stroke" stroke-width="1"
	d="M856.04 133.00v-24.00"/>
<use x="852.04" y="133.00" xlink:href="#rdots"/>
<path class="stroke" stroke-width="3"
	d="M860.54 191.00v-58.00"/>
<path class="stroke" stroke-width="1"
	d="M856.04 191.00v-58.00"/>
<use x="852.04" y="191.00" xlink:href="#rdots"/>
<path d="m11.54 133.00
	h850.50
	M11.54 127.00
	h850.50
	M11.54 121.00
	h850.50
	M11.54 115.00
	h850.50
	M11.54 109.00
	h850.50
	" class="stroke"/>
<path d="m11.54 191.00
	h850.50
	M11.54 185.00
	h850.50
	M11.54 179.00
	h850.50
	M11.54 173.00
	h850.50
	M11.54 167.00
	h850.50
	" class="stroke"/>
</g>
<g stroke-width="0.70" transform="scale(0.867)" font-family="Times" font-size="13.00">
<text x="766.14" y="94.40">1</text>
<path class="stroke"
	d="M762.14 83.00m0 20v-20h91.90v20"/>
<defs>
<path id="utclef" class="fill" d="m-50 -90
	c-72 -41 -72 -158 52 -188
	150 -10 220 188 90 256
	-114 52 -275 0 -293 -136
	-15 -181 93 -229 220 -334
	88 -87 79 -133 62 -210
	-51 33 -94 105 -89 186
	17 267 36 374 49 574
	6 96 -19 134 -77 135
	-80 1 -126 -93 -61 -133
	85 -41 133 101 31 105
	23 17 92 37 90 -92
	-10 -223 -39 -342 -50 -617
	0 -90 0 -162 96 -232
	56 72 63 230 22 289
	-74 106 -257 168 -255 316
	9 153 148 185 252 133
	86 -65 29 -192 -80 -176
	-71 12 -105 67 -59 124"/>
<use id="tclef" transform="translate(0,6) scale(0.045)"
	xlink:href="#utclef"/>
</defs>
<use x="23.54" y="127.00" xlink:href="#tclef"/>
<g font-family="serif" font-size="16" font-weight="bold" font-style="normal"
	transform="translate(42.04,132.50) scale(1.2,1)">
	<text text-anchor="middle">8</text>
	<text y="-12" text-anchor="middle">3</text>
</g>
<path class="fill"
	d="M80.54 130.70l81.10 9.50v-3.20l-81.10 -9.50"/>
<path class="fill"
	d="M80.94 125.80l80.40 9.40v-3.20l-80.40 -9.40"/>
<defs>
<path id="hl" class="stroke" d="m-6 0h12"/>
</defs>
<use x="84.44" y="103.00" xlink:href="#hl"/>
<use x="84.44" y="97.00" xlink:href="#hl"/>
<use x="84.44" y="97.00" xlink:href="#hd"/>
<path d="M80.94 97.00v32.80" class="stroke"/>
<use x="100.54" y="103.00" xlink:href="#hl"/>
<use x="100.54" y="100.00" xlink:href="#hd"/>
<path d="M97.04 100.00v31.70" class="stroke"/>
<use x="116.64" y="103.00" xlink:href="#hl"/>
<use x="116.64" y="97.00" xlink:href="#hl"/>
<use x="116.64" y="97.00" xlink:href="#hd"/>
<path d="M113.14 97.00v36.50" class="stroke"/>
<use x="132.74" y="106.00" xlink:href="#hd"/>
<path d="M129.24 106.00v29.40" class="stroke"/>
<use x="148.74" y="112.00" xlink:href="#hd"/>
<path d="M145.24 112.00v25.30" class="stroke"/>
<use x="164.84" y="118.00" xlink:href="#hd"/>
<path d="M161.34 118.00v21.20" class="stroke"/>
<path class="fill"
	d="M186.54 131.10l71.40 9.10v-3.20l-71.40 -9.10"/>
<path class="fill"
	d="M209.44 129.00l48.20 6.20v-3.20l-48.20 -6.20"/>
<use x="190.44" y="106.00" xlink:href="#hd"/>
<path d="M186.94 106.00v24.20" class="stroke"/>
<use x="212.94" y="109.00" xlink:href="#hd"/>
<path d="M209.44 109.00v24.00" class="stroke"/>
<use x="229.04" y="112.00" xlink:href="#hd"/>
<path d="M225.54 112.00v23.10" class="stroke"/>
<use x="245.04" y="115.00" xlink:href="#hd"/>
<path d="M241.54 115.00v22.10" class="stroke"/>
<use x="261.14" y="118.00" xlink:href="#hd"/>
<path d="M257.64 118.00v21.20" class="stroke"/>
<path class="fill"
	d="M282.84 140.90l81.00 0.00v-3.20l-81.00 -0.00"/>
<path class="fill"
	d="M283.24 135.90l80.30 0.00v-3.20l-80.30 -0.00"/>
<use x="286.74" y="115.00" xlink:href="#hd"/>
<path d="M283.24 115.00v24.90" class="stroke"/>
<use x="302.74" y="112.00" xlink:href="#hd"/>
<path d="M299.24 112.00v27.90" class="stroke"/>
<use x="318.84" y="109.00" xlink:href="#hd"/>
<path d="M315.34 109.00v30.90" class="stroke"/>
<use x="334.84" y="115.00" xlink:href="#hd"/>
<path d="M331.34 115.00v24.90" class="stroke"/>
<use x="350.94" y="118.00" xlink:href="#hd"/>
<path d="M347.44 118.00v21.90" class="stroke"/>
<use x="366.94" y="121.00" xlink:href="#hd"/>
<path d="M363.44 121.00v18.90" class="stroke"/>
<path class="fill"
	d="M388.74 134.90l55.30 0.00v-3.20l-55.30 -0.00"/>
<path class="fill"
	d="M411.64 129.90l16.10 0.00v-3.20l-16.10 -0.00"/>
<use x="392.54" y="112.00" xlink:href="#hd"/>
<path d="M389.04 112.00v22.00" class="stroke"/>
<use x="392.54" y="118.00" xlink:href="#hd"/>
<use x="415.14" y="112.00" xlink:href="#hd"/>
<path d="M411.64 112.00v22.00" class="stroke"/>
<use x="415.14" y="118.00" xlink:href="#hd"/>
<use x="431.14" y="109.00" xlink:href="#hd"/>
<path d="M427.64 109.00v25.00" class="stroke"/>
<use x="431.14" y="115.00" xlink:href="#hd"/>
<use x="447.24" y="106.00" xlink:href="#hd"/>
<path d="M443.74 106.00v28.00" class="stroke"/>
<use x="447.24" y="112.00" xlink:href="#hd"/>
<path class="fill"
	d="M479.64 133.20l45.80 0.00v-3.20l-45.80 -0.00"/>
<use x="483.54" y="109.00" xlink:href="#hd"/>
<defs>
<path id="usharp" class="fill" d="
	m136 -702
	v890
	h32
	v-890
	m128 840
	h32
	v-888
	h-32
	m-232 286
	v116
	l338 -96
	v-116
	m-338 442
	v116
	l338 -98
	v-114"/>
<use id="sh0" transform="translate(-4,5) scale(0.018)"
	xlink:href="#usharp"/>
</defs>
<use x="474.54" y="109.00" xlink:href="#sh0"/>
<path d="M480.04 109.00v23.20" class="stroke"/>
<use x="483.54" y="115.00" xlink:href="#hd"/>
<use x="506.04" y="109.00" xlink:href="#hd"/>
<path d="M502.54 109.00v23.20" class="stroke"/>
<use x="506.04" y="115.00" xlink:href="#hd"/>
<use x="528.64" y="109.00" xlink:href="#hd"/>
<path d="M525.14 109.00v23.20" class="stroke"/>
<use x="528.64" y="115.00" xlink:href="#hd"/>
<path class="fill"
	d="M555.44 139.30l82.90 9.90v-3.20l-82.90 -9.90"/>
<path class="fill"
	d="M555.74 134.40l82.20 9.80v-3.20l-82.20 -9.80"/>
<use x="559.24" y="106.00" xlink:href="#hd"/>
<path d="M555.74 106.00v32.40" class="stroke"/>
<use x="577.24" y="109.00" xlink:href="#hd"/>
<use x="568.24" y="109.00" xlink:href="#sh0"/>
<path d="M573.74 109.00v31.50" class="stroke"/>
<use x="593.34" y="106.00" xlink:href="#hd"/>
<path d="M589.84 106.00v36.50" class="stroke"/>
<use x="609.34" y="115.00" xlink:href="#hd"/>
<path d="M605.84 115.00v29.40" class="stroke"/>
<use x="625.44" y="121.00" xlink:href="#hd"/>
<path d="M621.94 121.00v25.30" class="stroke"/>
<use x="641.44" y="127.00" xlink:href="#hd"/>
<path d="M637.94 127.00v21.20" class="stroke"/>
<path class="fill"
	d="M663.24 134.90l83.00 0.00v-3.20l-83.00 -0.00"/>
<path class="fill"
	d="M663.54 129.90l82.30 0.00v-3.20l-82.30 -0.00"/>
<use x="667.04" y="112.00" xlink:href="#hd"/>
<path d="M663.54 112.00v22.00" class="stroke"/>
<use x="683.14" y="103.00" xlink:href="#hl"/>
<use x="683.14" y="97.00" xlink:href="#hl"/>
<use x="683.14" y="97.00" xlink:href="#hd"/>
<path d="M679.64 97.00v37.00" class="stroke"/>
<use x="699.24" y="103.00" xlink:href="#hl"/>
<use x="699.24" y="100.00" xlink:href="#hd"/>
<path d="M695.74 100.00v34.00" class="stroke"/>
<use x="715.34" y="106.00" xlink:href="#hd"/>
<path d="M711.84 106.00v28.00" class="stroke"/>
<use x="731.34" y="103.00" xlink:href="#hl"/>
<use x="731.34" y="103.00" xlink:href="#hd"/>
<path d="M727.84 103.00v31.00" class="stroke"/>
<use x="749.34" y="109.00" xlink:href="#hd"/>
<use x="740.34" y="109.00" xlink:href="#sh0"/>
<path d="M745.84 109.00v25.00" class="stroke"/>
<use x="774.94" y="106.00" xlink:href="#hd"/>
<path d="M771.44 106.00v40.00" class="stroke"/>
<use x="774.94" y="127.00" xlink:href="#hd"/>
<use x="774.94" y="121.00" xlink:href="#hd"/>
<use x="774.94" y="115.00" xlink:href="#hd"/>
<defs>
<path id="r8e" class="fill" d="m 0 0
	c-1.5 1.5 -2.4 2 -3.6 2
	2.4 -2.8 -2.8 -4 -2.8 -1.2
	c0 2.7 4.3 2.4 5.9 0.6"/>
<g id="r8">
	<path d="m3.3 -4l-3.4 9.6" class="stroke"/>
	<use x="3.4" y="-4" xlink:href="#r8e"/>
</g>
</defs>
<use x="831.54" y="121.00" xlink:href="#r8"/>
<defs>
<path id="ubclef" class="fill" d="m-200 -87
	c124 -35 222 -78 254 -236
	43 -228 -167 -246 -192 -103
	59 -80 157 22 92 78
	-62 47 -115 -22 -106 -88
	21 -141 270 -136 274 52
	-1 175 -106 264 -322 297
	m357 -250
	c0 -36 51 -34 51 0
	0 37 -51 36 -51 0
	m-2 -129
	c0 -36 51 -34 51 0
	0 38 -51 37 -51 0"/>
<use id="bclef" transform="translate(0,18) scale(0.045)"
	xlink:href="#ubclef"/>
</defs>
<use x="23.54" y="173.00" xlink:href="#bclef"/>
<g font-family="serif" font-size="16" font-weight="bold" font-style="normal"
	transform="translate(42.04,190.50) scale(1.2,1)">
	<text text-anchor="middle">8</text>
	<text y="-12" text-anchor="middle">3</text>
</g>
<use x="84.44" y="176.00" xlink:href="#hd"/>
<path d="M80.94 176.00v25.00" class="stroke"/>
<use x="84.44" y="182.00" xlink:href="#hd"/>
<use x="148.74" y="179.00" xlink:href="#r8"/>
<use x="190.44" y="176.00" xlink:href="#hd"/>
<path d="M186.94 176.00v25.00" class="stroke"/>
<use x="190.44" y="182.00" xlink:href="#hd"/>
<use x="245.04" y="179.00" xlink:href="#r8"/>
<use x="286.74" y="170.00" xlink:href="#hd"/>
<path d="M283.24 170.00v34.00" class="stroke"/>
<use x="286.74" y="185.00" xlink:href="#hd"/>
<use x="350.94" y="191.00" xlink:href="#hd"/>
<path d="M354.44 191.00v-21.00" class="stroke"/>
<path class="fill"
	d="M354.44 170.00c0.6 5.6 9.6 9 5.6 18.4
	1.6 -6 -1.3 -11.6 -5.6 -12.8
"/>
<use x="392.54" y="182.00" xlink:href="#hd"/>
<path d="M396.04 182.00v-21.00" class="stroke"/>
<use x="447.24" y="179.00" xlink:href="#r8"/>
<path class="fill"
	d="M486.64 161.00l45.80 0.00v3.20l-45.80 -0.00"/>
<use x="483.54" y="182.00" xlink:href="#hd"/>
<path d="M487.04 182.00v-20.00" class="stroke"/>
<use x="506.04" y="182.00" xlink:href="#hd"/>
<path d="M509.54 182.00v-20.00" class="stroke"/>
<use x="528.64" y="182.00" xlink:href="#hd"/>
<path d="M532.14 182.00v-20.00" class="stroke"/>
<use x="559.24" y="185.00" xlink:href="#hd"/>
<path d="M562.74 185.00v-25.00" class="stroke"/>
<use x="559.24" y="179.00" xlink:href="#hd"/>
<use x="625.44" y="170.00" xlink:href="#hd"/>
<path d="M621.94 170.00v34.00" class="stroke"/>
<path class="fill"
	d="M621.94 204.00c0.6 -5.6 9.6 -9 5.6 -18.4
	1.6 6 -1.3 11.6 -5.6 12.8
"/>
<use x="625.44" y="185.00" xlink:href="#hd"/>
<path class="fill"
	d="M670.24 155.70l65.00 8.20v3.20l-65.00 -8.20"/>
<use x="667.04" y="182.00" xlink:href="#hd"/>
<path d="M670.54 182.00v-25.20" class="stroke"/>
<use x="699.24" y="179.00" xlink:href="#hd"/>
<path d="M702.74 179.00v-18.20" class="stroke"/>
<use x="731.34" y="197.00" xlink:href="#hl"/>
<use x="731.34" y="200.00" xlink:href="#hd"/>
<path d="M734.84 200.00v-35.20" class="stroke"/>
<path class="fill"
	d="M771.14 210.20l73.30 0.00v-3.20l-73.30 -0.00"/>
<path class="fill"
	d="M794.04 205.20l50.10 0.00v-3.20l-50.10 -0.00"/>
<use x="774.94" y="191.00" xlink:href="#hd"/>
<path d="M771.44 191.00v18.20" class="stroke"/>
<use x="797.54" y="170.00" xlink:href="#hd"/>
<path d="M794.04 170.00v39.20" class="stroke"/>
<use x="815.54" y="173.00" xlink:href="#hd"/>
<defs>
<path id="unat" class="fill" d="
	m96 -750
	h-32
	v716
	l32 -8
	182 -54
	v282
	h32
	v-706
	l-34 10
	-180 50
	v-290
	m0 592
	v-190
	l182 -52
	v188"/>
<use id="nt0" transform="translate(-3,5) scale(0.018)"
	xlink:href="#unat"/>
</defs>
<use x="806.54" y="173.00" xlink:href="#nt0"/>
<path d="M812.04 173.00v36.20" class="stroke"/>
<use x="831.54" y="176.00" xlink:href="#hd"/>
<path d="M828.04 176.00v33.20" class="stroke"/>
<use x="847.64" y="179.00" xlink:href="#hd"/>
<path d="M844.14 179.00v30.20" class="stroke"/>
</g>
<g stroke-width="0.70" transform="scale(0.867)" font-family="Times" font-size="13.00">
<path class="stroke" stroke-width="1"
	d="M11.54 324.00v-82.00"/>
<path class="fill"
	d="M6.54 239.00
	c10.5 1 12 -4.5 12 -3.5c0 1 -3.5 5.5 -8.5 5.5
	v84.00
	c5 0 8.5 4.5 8.5 5.5c0 1 -1.5 -4.5 -12 -3.5"/>
<use x="143.34" y="266.00" xlink:href="#rdots"/>
<path class="stroke" stroke-width="1"
	d="M139.34 266.00v-24.00"/>
<path class="stroke" stroke-width="3"
	d="M134.84 266.00v-24.00"/>
<use x="143.34" y="324.00" xlink:href="#rdots"/>
<path class="stroke" stroke-width="1"
	d="M139.34 324.00v-58.00"/>
<path class="stroke" stroke-width="3"
	d="M134.84 324.00v-58.00"/>
<path class="stroke" stroke-width="1"
	d="M220.94 266.00v-24.00"/>
<path class="stroke" stroke-width="1"
	d="M220.94 324.00v-58.00"/>
<path class="stroke" stroke-width="1"
	d="M319.44 266.00v-24.00"/>
<path class="stroke" stroke-width="1"
	d="M319.44 324.00v-58.00"/>
<path class="stroke" stroke-width="1"
	d="M400.34 266.00v-24.00"/>
<path class="stroke" stroke-width="1"
	d="M400.34 324.00v-58.00"/>
<path class="stroke" stroke-width="1"
	d="M488.04 266.00v-24.00"/>
<path class="stroke" stroke-width="1"
	d="M488.04 324.00v-58.00"/>
<path class="stroke" stroke-width="1"
	d="M586.74 266.00v-24.00"/>
<path class="stroke" stroke-width="1"
	d="M586.74 324.00v-58.00"/>
<path class="stroke" stroke-width="1"
	d="M685.24 266.00v-24.00"/>
<path class="stroke" stroke-width="1"
	d="M685.24 324.00v-58.00"/>
<path class="stroke" stroke-width="1"
	d="M783.64 266.00v-24.00"/>
<path class="stroke" stroke-width="1"
	d="M783.64 324.00v-58.00"/>
<path class="stroke" stroke-width="3"
	d="M860.54 266.00v-24.00"/>
<path class="stroke" stroke-width="1"
	d="M856.04 266.00v-24.00"/>
<use x="852.04" y="266.00" xlink:href="#rdots"/>
<path class="stroke" stroke-width="3"
	d="M860.54 324.00v-58.00"/>
<path class="stroke" stroke-width="1"
	d="M856.04 324.00v-58.00"/>
<use x="852.04" y="324.00" xlink:href="#rdots"/>
<path d="m11.54 266.00
	h850.50
	M11.54 260.00
	h850.50
	M11.54 254.00
	h850.50
	M11.54 248.00
	h850.50
	M11.54 242.00
	h850.50
	" class="stroke"/>
<path d="m11.54 324.00
	h850.50
	M11.54 318.00
	h850.50
	M11.54 312.00
	h850.50
	M11.54 306.00
	h850.50
	M11.54 300.00
	h850.50
	" class="stroke"/>
<path class="fill"
	d="M165.84 231.80c6.10 -3.46 32.62 -0.58 38.72 4.20
	v-0.24c-7.26 -6.55 -31.46 -9.42 -38.72 -3.96"/>
<text x="47.54" y="227.40">2</text>
<path class="stroke"
	d="M43.54 216.00m0 20v-20h88.80v20"/>
<use x="23.54" y="260.00" xlink:href="#tclef"/>
<use x="56.04" y="239.00" xlink:href="#hd"/>
<path d="M52.54 239.00v40.00" class="stroke"/>
<use x="56.04" y="260.00" xlink:href="#hd"/>
<use x="56.04" y="254.00" xlink:href="#hd"/>
<use x="56.04" y="248.00" xlink:href="#hd"/>
<use x="109.14" y="254.00" xlink:href="#r8"/>
<path class="fill"
	d="M159.04 259.50l42.40 7.70v-3.20l-42.40 -7.70"/>
<use x="162.84" y="236.00" xlink:href="#hl"/>
<use x="162.84" y="236.00" xlink:href="#hd"/>
<path d="M159.34 236.00v22.60" class="stroke"/>
<use x="184.14" y="242.00" xlink:href="#hd"/>
<use x="175.14" y="242.00" xlink:href="#sh0"/>
<path d="M180.64 242.00v20.50" class="stroke"/>
<use x="204.54" y="248.00" xlink:href="#hd"/>
<path d="M201.04 248.00v18.20" class="stroke"/>
<path class="fill"
	d="M229.64 268.00l74.10 0.00v-3.20l-74.10 -0.00"/>
<path class="fill"
	d="M229.94 263.00l73.50 0.00v-3.20l-73.50 -0.00"/>
<use x="233.44" y="236.00" xlink:href="#hl"/>
<use x="233.44" y="236.00" xlink:href="#hd"/>
<path d="M229.94 236.00v31.00" class="stroke"/>
<use x="248.14" y="239.00" xlink:href="#hd"/>
<path d="M244.64 239.00v28.00" class="stroke"/>
<use x="262.84" y="236.00" xlink:href="#hl"/>
<use x="262.84" y="233.00" xlink:href="#hd"/>
<path d="M259.34 233.00v34.00" class="stroke"/>
<use x="277.54" y="239.00" xlink:href="#hd"/>
<path d="M274.04 239.00v28.00" class="stroke"/>
<use x="292.24" y="248.00" xlink:href="#hd"/>
<path d="M288.74 248.00v19.00" class="stroke"/>
<use x="306.94" y="239.00" xlink:href="#hd"/>
<path d="M303.44 239.00v28.00" class="stroke"/>
<path class="fill"
	d="M328.14 273.60l30.10 5.70v-3.20l-30.10 -5.70"/>
<path class="fill"
	d="M328.44 268.60l14.70 2.80v-3.20l-14.70 -2.80"/>
<use x="331.94" y="245.00" xlink:href="#hd"/>
<path d="M328.44 245.00v27.60" class="stroke"/>
<use x="346.64" y="251.00" xlink:href="#hd"/>
<path d="M343.14 251.00v24.40" class="stroke"/>
<use x="361.34" y="260.00" xlink:href="#hd"/>
<path d="M357.84 260.00v18.20" class="stroke"/>
<use x="383.94" y="245.00" xlink:href="#hd"/>
<path d="M380.44 245.00v21.00" class="stroke"/>
<path class="fill"
	d="M380.44 266.00c0.6 -5.6 9.6 -9 5.6 -18.4
	1.6 6 -1.3 11.6 -5.6 12.8
"/>
<path class="fill"
	d="M409.04 276.20l59.40 0.00v-3.20l-59.40 -0.00"/>
<path class="fill"
	d="M409.34 271.20l44.10 0.00v-3.20l-44.10 -0.00"/>
<use x="412.84" y="245.00" xlink:href="#hd"/>
<path d="M409.34 245.00v30.20" class="stroke"/>
<use x="427.54" y="251.00" xlink:href="#hd"/>
<path d="M424.04 251.00v24.20" class="stroke"/>
<use x="442.24" y="254.00" xlink:href="#hd"/>
<path d="M438.74 254.00v21.20" class="stroke"/>
<use x="456.94" y="248.00" xlink:href="#hd"/>
<path d="M453.44 248.00v27.20" class="stroke"/>
<use x="471.64" y="239.00" xlink:href="#hd"/>
<path d="M468.14 239.00v36.20" class="stroke"/>
<path class="fill"
	d="M496.64 263.90l74.40 9.30v-3.20l-74.40 -9.30"/>
<path class="fill"
	d="M497.04 259.00l73.70 9.20v-3.20l-73.70 -9.20"/>
<use x="500.54" y="236.00" xlink:href="#hl"/>
<use x="500.54" y="230.00" xlink:href="#hl"/>
<use x="500.54" y="230.00" xlink:href="#hd"/>
<path d="M497.04 230.00v33.00" class="stroke"/>
<use x="515.34" y="236.00" xlink:href="#hl"/>
<use x="515.34" y="233.00" xlink:href="#hd"/>
<path d="M511.84 233.00v31.80" class="stroke"/>
<use x="530.14" y="236.00" xlink:href="#hl"/>
<use x="530.14" y="230.00" xlink:href="#hl"/>
<use x="530.14" y="230.00" xlink:href="#hd"/>
<path d="M526.64 230.00v36.70" class="stroke"/>
<use x="544.84" y="239.00" xlink:href="#hd"/>
<path d="M541.34 239.00v29.50" class="stroke"/>
<use x="559.54" y="245.00" xlink:href="#hd"/>
<path d="M556.04 245.00v25.40" class="stroke"/>
<use x="574.24" y="251.00" xlink:href="#hd"/>
<path d="M570.74 251.00v21.20" class="stroke"/>
<path class="fill"
	d="M595.44 268.60l59.40 3.20v-3.20l-59.40 -3.20"/>
<use x="599.24" y="239.00" xlink:href="#hd"/>
<path d="M595.74 239.00v28.60" class="stroke"/>
<use x="628.64" y="251.00" xlink:href="#hd"/>
<path d="M625.14 251.00v18.20" class="stroke"/>
<use x="658.04" y="245.00" xlink:href="#hd"/>
<path d="M654.54 245.00v25.80" class="stroke"/>
<path class="fill"
	d="M693.84 274.00l74.10 0.00v-3.20l-74.10 -0.00"/>
<path class="fill"
	d="M694.24 269.00l73.50 0.00v-3.20l-73.50 -0.00"/>
<use x="697.74" y="242.00" xlink:href="#hd"/>
<path d="M694.24 242.00v30.90" class="stroke"/>
<use x="712.44" y="245.00" xlink:href="#hd"/>
<path d="M708.94 245.00v27.90" class="stroke"/>
<use x="727.04" y="248.00" xlink:href="#hd"/>
<path d="M723.54 248.00v24.90" class="stroke"/>
<use x="741.74" y="251.00" xlink:href="#hd"/>
<path d="M738.24 251.00v21.90" class="stroke"/>
<use x="756.44" y="254.00" xlink:href="#hd"/>
<path d="M752.94 254.00v18.90" class="stroke"/>
<use x="771.14" y="248.00" xlink:href="#hd"/>
<path d="M767.64 248.00v24.90" class="stroke"/>
<path class="fill"
	d="M799.34 231.70l21.10 7.10v3.20l-21.10 -7.10"/>
<use x="796.14" y="251.00" xlink:href="#hd"/>
<path d="M799.64 251.00v-18.20" class="stroke"/>
<use x="816.64" y="272.00" xlink:href="#hl"/>
<use x="816.64" y="272.00" xlink:href="#hd"/>
<path d="M820.14 272.00v-32.30" class="stroke"/>
<use x="837.04" y="254.00" xlink:href="#r8"/>
<use x="23.54" y="306.00" xlink:href="#bclef"/>
<path class="fill"
	d="M52.24 343.20l68.50 -5.00v-3.20l-68.50 5.00"/>
<path class="fill"
	d="M72.94 336.70l47.40 -3.40v-3.20l-47.40 3.40"/>
<use x="56.04" y="324.00" xlink:href="#hd"/>
<path d="M52.54 324.00v18.20" class="stroke"/>
<use x="76.44" y="297.00" xlink:href="#hd"/>
<path d="M72.94 297.00v43.70" class="stroke"/>
<use x="91.14" y="303.00" xlink:href="#hd"/>
<path d="M87.64 303.00v36.60" class="stroke"/>
<use x="109.14" y="306.00" xlink:href="#hd"/>
<use x="100.14" y="306.00" xlink:href="#sh0"/>
<path d="M105.64 306.00v32.30" class="stroke"/>
<use x="123.84" y="309.00" xlink:href="#hd"/>
<path d="M120.34 309.00v28.30" class="stroke"/>
<use x="162.84" y="306.00" xlink:href="#hd"/>
<use x="153.84" y="306.00" xlink:href="#sh0"/>
<path d="M159.34 306.00v25.00" class="stroke"/>
<use x="162.84" y="312.00" xlink:href="#hd"/>
<use x="204.54" y="306.00" xlink:href="#hd"/>
<path d="M201.04 306.00v28.00" class="stroke"/>
<path class="fill"
	d="M201.04 334.00c0.6 -5.6 9.6 -9 5.6 -18.4
	1.6 6 -1.3 11.6 -5.6 12.8
"/>
<use x="204.54" y="315.00" xlink:href="#hd"/>
<use x="233.44" y="318.00" xlink:href="#hd"/>
<path d="M236.94 318.00v-25.00" class="stroke"/>
<use x="233.44" y="312.00" xlink:href="#hd"/>
<use x="292.24" y="318.00" xlink:href="#hd"/>
<path d="M295.74 318.00v-25.00" class="stroke"/>
<path class="fill"
	d="M295.74 293.00c0.6 5.6 9.6 9 5.6 18.4
	1.6 -6 -1.3 -11.6 -5.6 -12.8
"/>
<use x="292.24" y="312.00" xlink:href="#hd"/>
<use x="331.94" y="303.00" xlink:href="#hd"/>
<path d="M328.44 303.00v31.00" class="stroke"/>
<use x="331.94" y="315.00" xlink:href="#hd"/>
<use x="383.94" y="303.00" xlink:href="#hd"/>
<path d="M380.44 303.00v31.00" class="stroke"/>
<path class="fill"
	d="M380.44 334.00c0.6 -5.6 9.6 -9 5.6 -18.4
	1.6 6 -1.3 11.6 -5.6 12.8
"/>
<use x="383.94" y="315.00" xlink:href="#hd"/>
<path class="fill"
	d="M416.04 283.70l30.10 8.80v3.20l-30.10 -8.80"/>
<use x="412.84" y="303.00" xlink:href="#hd"/>
<path d="M416.34 303.00v-18.20" class="stroke"/>
<use x="442.24" y="324.00" xlink:href="#hd"/>
<path d="M445.74 324.00v-30.60" class="stroke"/>
<use x="471.64" y="312.00" xlink:href="#r8"/>
<use x="500.54" y="309.00" xlink:href="#hd"/>
<path d="M497.04 309.00v25.00" class="stroke"/>
<use x="500.54" y="315.00" xlink:href="#hd"/>
<use x="559.54" y="303.00" xlink:href="#hd"/>
<path d="M556.04 303.00v31.00" class="stroke"/>
<path class="fill"
	d="M556.04 334.00c0.6 -5.6 9.6 -9 5.6 -18.4
	1.6 6 -1.3 11.6 -5.6 12.8
"/>
<use x="559.54" y="315.00" xlink:href="#hd"/>
<path class="fill"
	d="M595.44 331.90l74.10 0.00v-3.20l-74.10 -0.00"/>
<path class="fill"
	d="M595.74 326.90l73.50 0.00v-3.20l-73.50 -0.00"/>
<use x="599.24" y="309.00" xlink:href="#hd"/>
<path d="M595.74 309.00v21.90" class="stroke"/>
<use x="599.24" y="315.00" xlink:href="#hd"/>
<use x="613.94" y="303.00" xlink:href="#hd"/>
<path d="M610.44 303.00v27.90" class="stroke"/>
<use x="628.64" y="309.00" xlink:href="#hd"/>
<path d="M625.14 309.00v21.90" class="stroke"/>
<use x="628.64" y="315.00" xlink:href="#hd"/>
<use x="643.34" y="303.00" xlink:href="#hd"/>
<path d="M639.84 303.00v27.90" class="stroke"/>
<use x="658.04" y="309.00" xlink:href="#hd"/>
<path d="M654.54 309.00v21.90" class="stroke"/>
<use x="658.04" y="315.00" xlink:href="#hd"/>
<use x="672.74" y="303.00" xlink:href="#hd"/>
<path d="M669.24 303.00v27.90" class="stroke"/>
<use x="697.74" y="306.00" xlink:href="#hd"/>
<path d="M694.24 306.00v21.00" class="stroke"/>
<use x="756.44" y="303.00" xlink:href="#hd"/>
<path d="M752.94 303.00v21.00" class="stroke"/>
<path class="fill"
	d="M752.94 324.00c0.6 -5.6 9.6 -9 5.6 -18.4
	1.6 6 -1.3 11.6 -5.6 12.8
"/>
<use x="796.14" y="315.00" xlink:href="#hd"/>
<path d="M799.64 315.00v-21.00" class="stroke"/>
<use x="837.04" y="330.00" xlink:href="#hl"/>
<use x="837.04" y="336.00" xlink:href="#hl"/>
<use x="837.04" y="336.00" xlink:href="#hd"/>
<path d="M840.54 336.00v-24.00" class="stroke"/>
<path class="fill"
	d="M840.54 312.00c0.6 5.6 9.6 9 5.6 18.4
	1.6 -6 -1.3 -11.6 -5.6 -12.8
"/>
</g>
</svg>
