<?xml version="1.0" standalone="no"?>
<!DOCTYPE svg PUBLIC "-//W3C//DTD SVG 1.1//EN"
	"http://www.w3.org/Graphics/SVG/1.1/DTD/svg11.dtd">
<svg xmlns="http://www.w3.org/2000/svg" version="1.1"
	xmlns:xlink="http://www.w3.org/1999/xlink"
	color="black"
	width="757.10px" height="296.40px">
<style type="text/css">
.fill {fill: currentColor}
.stroke {stroke: currentColor; fill: none}
text{white-space: pre}
</style>
<title>./K516f-3-7-9-9-10-10-4-2-11-3-2-12-4-12-3-3.abc (6673) tune 1</title>
<!-- Creator: abcm2ps-8.13.8 -->
<!-- CreationDate: Sep  7, 2017 11:19 -->
<!-- CommandLine: ./K516f-3-7-9-9-10-10-4-2-11-3-2-12-4-12-3-3.abc -O ./K516f-3-7-9-9-10-10-4-2-11-3-2-12-4-12-3-3.svg -g -->
<rect width="100%" height="100%" fill="white"/>
<g stroke-width="0.70" transform="scale(0.867)">
<!-- title: 3-7-9-9-10-10-4-2-11-3-2-12-4-12-3-3 -->
</g>
<g stroke-width="0.70" transform="scale(0.867)" font-family="Times" font-size="20.00">
<text x="436.84" y="22.00" text-anchor="middle">3-7-9-9-10-10-4-2-11-3-2-12-4-12-3-3</text>
</g>
<g stroke-width="0.70" transform="scale(0.867)" font-family="Times" font-size="20.00">
<!-- subtitle: $1K.516f::32:157:114:50:75:129:110:30:102:39:26:92:73:124:116:83::$0 -->
</g>
<g stroke-width="0.70" transform="scale(0.867)" font-family="Courier" font-size="8.00" font-weight="bold">
<text x="436.84" y="41.80" text-anchor="middle">K.516f::32:157:114:50:75:129:110:30:102:39:26:92:73:124:116:83::</text>
</g>
<g stroke-width="0.70" transform="scale(0.867)" font-family="Courier" font-size="8.00" font-weight="bold">
<!-- subtitle: $1Perm. No.: 66737388200672$0 -->
<text x="436.84" y="60.80" text-anchor="middle">Perm. No.: 66737388200672</text>
</g>
<g stroke-width="0.70" transform="scale(0.607)" font-family="Courier" font-size="8.00" font-weight="bold">
<defs>
<ellipse id="hd" rx="4.1" ry="2.9"
	transform="rotate(-20)" class="fill"/>
</defs>
<use x="103.06" y="121.29" xlink:href="#hd"/>
<path d="M106.56 121.29v-21.00" class="stroke"/>
<path class="fill"
	d="M106.56 100.29c0.6 5.6 9.6 9 5.6 18.4
	1.6 -6 -1.3 -11.6 -5.6 -12.8
"/>
</g>
<g stroke-width="0.70" transform="scale(0.867)" font-family="Times" font-size="15.00" font-weight="bold">
<text x="81.24" y="87.00">= 111</text>
<path class="stroke" stroke-width="1"
	d="M11.54 183.00v-82.00"/>
<path class="fill"
	d="M6.54 98.00
	c10.5 1 12 -4.5 12 -3.5c0 1 -3.5 5.5 -8.5 5.5
	v84.00
	c5 0 8.5 4.5 8.5 5.5c0 1 -1.5 -4.5 -12 -3.5"/>
<defs>
<g id="rdots" class="fill">
	<circle cx="0" cy="-9" r="1.2"/>
	<circle cx="0" cy="-15" r="1.2"/>
</g>
</defs>
<use x="70.54" y="125.00" xlink:href="#rdots"/>
<path class="stroke" stroke-width="1"
	d="M66.54 125.00v-24.00"/>
<path class="stroke" stroke-width="3"
	d="M62.04 125.00v-24.00"/>
<use x="70.54" y="183.00" xlink:href="#rdots"/>
<path class="stroke" stroke-width="1"
	d="M66.54 183.00v-58.00"/>
<path class="stroke" stroke-width="3"
	d="M62.04 183.00v-58.00"/>
<path class="stroke" stroke-width="1"
	d="M154.54 125.00v-24.00"/>
<path class="stroke" stroke-width="1"
	d="M154.54 183.00v-58.00"/>
<path class="stroke" stroke-width="1"
	d="M270.24 125.00v-24.00"/>
<path class="stroke" stroke-width="1"
	d="M270.24 183.00v-58.00"/>
<path class="stroke" stroke-width="1"
	d="M353.24 125.00v-24.00"/>
<path class="stroke" stroke-width="1"
	d="M353.24 183.00v-58.00"/>
<path class="stroke" stroke-width="1"
	d="M446.64 125.00v-24.00"/>
<path class="stroke" stroke-width="1"
	d="M446.64 183.00v-58.00"/>
<path class="stroke" stroke-width="1"
	d="M534.24 125.00v-24.00"/>
<path class="stroke" stroke-width="1"
	d="M534.24 183.00v-58.00"/>
<path class="stroke" stroke-width="1"
	d="M638.34 125.00v-24.00"/>
<path class="stroke" stroke-width="1"
	d="M638.34 183.00v-58.00"/>
<path class="stroke" stroke-width="1"
	d="M754.44 125.00v-24.00"/>
<path class="stroke" stroke-width="1"
	d="M754.44 183.00v-58.00"/>
<path class="stroke" stroke-width="3"
	d="M860.54 125.00v-24.00"/>
<path class="stroke" stroke-width="1"
	d="M856.04 125.00v-24.00"/>
<use x="852.04" y="125.00" xlink:href="#rdots"/>
<path class="stroke" stroke-width="3"
	d="M860.54 183.00v-58.00"/>
<path class="stroke" stroke-width="1"
	d="M856.04 183.00v-58.00"/>
<use x="852.04" y="183.00" xlink:href="#rdots"/>
<path d="m11.54 125.00
	h850.50
	M11.54 119.00
	h850.50
	M11.54 113.00
	h850.50
	M11.54 107.00
	h850.50
	M11.54 101.00
	h850.50
	" class="stroke"/>
<path d="m11.54 183.00
	h850.50
	M11.54 177.00
	h850.50
	M11.54 171.00
	h850.50
	M11.54 165.00
	h850.50
	M11.54 159.00
	h850.50
	" class="stroke"/>
<path class="fill"
	d="M652.24 119.00c2.54 4.15 13.57 5.59 16.10 2.10
	v0.22c-3.02 5.27 -13.08 3.83 -16.10 -2.32"/>
<path class="fill"
	d="M687.44 122.00c2.54 4.15 13.57 5.59 16.10 2.10
	v0.22c-3.02 5.27 -13.08 3.83 -16.10 -2.32"/>
<path class="fill"
	d="M722.64 125.00c2.36 4.46 12.64 7.34 15.00 4.20
	v0.22c-2.81 4.93 -12.19 2.05 -15.00 -4.41"/>
</g>
<g stroke-width="0.70" transform="scale(0.867)" font-family="Times" font-size="13.00">
<text x="758.44" y="86.40">1</text>
<path class="stroke"
	d="M754.44 75.00m0 20v-20h99.60v20"/>
<defs>
<path id="utclef" class="fill" d="m-50 -90
	c-72 -41 -72 -158 52 -188
	150 -10 220 188 90 256
	-114 52 -275 0 -293 -136
	-15 -181 93 -229 220 -334
	88 -87 79 -133 62 -210
	-51 33 -94 105 -89 186
	17 267 36 374 49 574
	6 96 -19 134 -77 135
	-80 1 -126 -93 -61 -133
	85 -41 133 101 31 105
	23 17 92 37 90 -92
	-10 -223 -39 -342 -50 -617
	0 -90 0 -162 96 -232
	56 72 63 230 22 289
	-74 106 -257 168 -255 316
	9 153 148 185 252 133
	86 -65 29 -192 -80 -176
	-71 12 -105 67 -59 124"/>
<use id="tclef" transform="translate(0,6) scale(0.045)"
	xlink:href="#utclef"/>
</defs>
<use x="23.54" y="119.00" xlink:href="#tclef"/>
<g font-family="serif" font-size="16" font-weight="bold" font-style="normal"
	transform="translate(42.04,124.50) scale(1.2,1)">
	<text text-anchor="middle">8</text>
	<text y="-12" text-anchor="middle">3</text>
</g>
<path class="fill"
	d="M81.54 138.20l50.40 -6.70v-3.20l-50.40 6.70"/>
<use x="85.44" y="119.00" xlink:href="#hd"/>
<path d="M81.94 119.00v18.20" class="stroke"/>
<use x="110.34" y="110.00" xlink:href="#hd"/>
<path d="M106.84 110.00v23.90" class="stroke"/>
<use x="135.14" y="104.00" xlink:href="#hd"/>
<path d="M131.64 104.00v26.60" class="stroke"/>
<path class="fill"
	d="M164.64 130.50l88.70 -6.40v-3.20l-88.70 6.40"/>
<path class="fill"
	d="M164.94 125.50l88.00 -6.40v-3.20l-88.00 6.40"/>
<use x="168.44" y="104.00" xlink:href="#hd"/>
<path d="M164.94 104.00v25.50" class="stroke"/>
<use x="186.04" y="107.00" xlink:href="#hd"/>
<path d="M182.54 107.00v21.20" class="stroke"/>
<use x="203.64" y="104.00" xlink:href="#hd"/>
<path d="M200.14 104.00v22.90" class="stroke"/>
<use x="221.24" y="98.00" xlink:href="#hd"/>
<path d="M217.74 98.00v27.60" class="stroke"/>
<defs>
<path id="hl" class="stroke" d="m-6 0h12"/>
</defs>
<use x="238.84" y="95.00" xlink:href="#hl"/>
<use x="238.84" y="89.00" xlink:href="#hl"/>
<use x="238.84" y="89.00" xlink:href="#hd"/>
<path d="M235.34 89.00v35.40" class="stroke"/>
<use x="256.44" y="98.00" xlink:href="#hd"/>
<path d="M252.94 98.00v25.10" class="stroke"/>
<path class="fill"
	d="M280.24 132.00l50.40 0.00v-3.20l-50.40 -0.00"/>
<use x="284.14" y="107.00" xlink:href="#hd"/>
<path d="M280.64 107.00v24.00" class="stroke"/>
<use x="284.14" y="113.00" xlink:href="#hd"/>
<use x="308.94" y="107.00" xlink:href="#hd"/>
<path d="M305.44 107.00v24.00" class="stroke"/>
<use x="308.94" y="113.00" xlink:href="#hd"/>
<use x="333.84" y="107.00" xlink:href="#hd"/>
<path d="M330.34 107.00v24.00" class="stroke"/>
<use x="333.84" y="113.00" xlink:href="#hd"/>
<path class="fill"
	d="M363.34 133.50l60.80 4.70v-3.20l-60.80 -4.70"/>
<path class="fill"
	d="M388.54 130.50l17.60 1.40v-3.20l-17.60 -1.40"/>
<use x="367.14" y="110.00" xlink:href="#hd"/>
<path d="M363.64 110.00v22.50" class="stroke"/>
<use x="392.04" y="104.00" xlink:href="#hd"/>
<path d="M388.54 104.00v30.50" class="stroke"/>
<use x="409.64" y="110.00" xlink:href="#hd"/>
<path d="M406.14 110.00v25.80" class="stroke"/>
<use x="427.24" y="119.00" xlink:href="#hd"/>
<path d="M423.74 119.00v18.20" class="stroke"/>
<path class="fill"
	d="M461.24 125.20l50.40 0.00v-3.20l-50.40 -0.00"/>
<use x="465.14" y="101.00" xlink:href="#hd"/>
<defs>
<path id="usharp" class="fill" d="
	m136 -702
	v890
	h32
	v-890
	m128 840
	h32
	v-888
	h-32
	m-232 286
	v116
	l338 -96
	v-116
	m-338 442
	v116
	l338 -98
	v-114"/>
<use id="sh0" transform="translate(-4,5) scale(0.018)"
	xlink:href="#usharp"/>
</defs>
<use x="456.14" y="101.00" xlink:href="#sh0"/>
<path d="M461.64 101.00v23.20" class="stroke"/>
<use x="465.14" y="107.00" xlink:href="#hd"/>
<use x="490.04" y="101.00" xlink:href="#hd"/>
<path d="M486.54 101.00v23.20" class="stroke"/>
<use x="490.04" y="107.00" xlink:href="#hd"/>
<use x="514.84" y="101.00" xlink:href="#hd"/>
<path d="M511.34 101.00v23.20" class="stroke"/>
<use x="514.84" y="107.00" xlink:href="#hd"/>
<path class="fill"
	d="M544.34 121.20l71.50 5.00v-3.20l-71.50 -5.00"/>
<path class="fill"
	d="M544.64 116.30l53.20 3.70v-3.20l-53.20 -3.70"/>
<use x="548.14" y="95.00" xlink:href="#hl"/>
<use x="548.14" y="95.00" xlink:href="#hd"/>
<path d="M544.64 95.00v25.30" class="stroke"/>
<use x="565.74" y="98.00" xlink:href="#hd"/>
<path d="M562.24 98.00v23.50" class="stroke"/>
<use x="583.74" y="101.00" xlink:href="#hd"/>
<use x="574.74" y="101.00" xlink:href="#sh0"/>
<path d="M580.24 101.00v21.70" class="stroke"/>
<use x="601.34" y="98.00" xlink:href="#hd"/>
<path d="M597.84 98.00v26.00" class="stroke"/>
<use x="618.94" y="107.00" xlink:href="#hd"/>
<path d="M615.44 107.00v18.20" class="stroke"/>
<path class="fill"
	d="M655.44 88.80l89.10 0.00v3.20l-89.10 -0.00"/>
<path class="fill"
	d="M655.74 93.80l88.40 0.00v3.20l-88.40 -0.00"/>
<use x="652.24" y="113.00" xlink:href="#hd"/>
<path d="M655.74 113.00v-23.20" class="stroke"/>
<use x="652.24" y="107.00" xlink:href="#hd"/>
<use x="669.84" y="116.00" xlink:href="#hd"/>
<path d="M673.34 116.00v-26.20" class="stroke"/>
<use x="669.84" y="110.00" xlink:href="#hd"/>
<use x="687.44" y="116.00" xlink:href="#hd"/>
<path d="M690.94 116.00v-26.20" class="stroke"/>
<use x="687.44" y="110.00" xlink:href="#hd"/>
<use x="705.04" y="119.00" xlink:href="#hd"/>
<path d="M708.54 119.00v-29.20" class="stroke"/>
<use x="705.04" y="113.00" xlink:href="#hd"/>
<use x="722.64" y="119.00" xlink:href="#hd"/>
<path d="M726.14 119.00v-29.20" class="stroke"/>
<use x="722.64" y="113.00" xlink:href="#hd"/>
<use x="740.64" y="122.00" xlink:href="#hd"/>
<use x="731.64" y="122.00" xlink:href="#sh0"/>
<path d="M744.14 122.00v-32.20" class="stroke"/>
<use x="740.64" y="116.00" xlink:href="#hd"/>
<use x="768.24" y="98.00" xlink:href="#hd"/>
<path d="M764.74 98.00v40.00" class="stroke"/>
<use x="768.24" y="119.00" xlink:href="#hd"/>
<use x="768.24" y="113.00" xlink:href="#hd"/>
<use x="768.24" y="107.00" xlink:href="#hd"/>
<defs>
<path id="r8e" class="fill" d="m 0 0
	c-1.5 1.5 -2.4 2 -3.6 2
	2.4 -2.8 -2.8 -4 -2.8 -1.2
	c0 2.7 4.3 2.4 5.9 0.6"/>
<g id="r8">
	<path d="m3.3 -4l-3.4 9.6" class="stroke"/>
	<use x="3.4" y="-4" xlink:href="#r8e"/>
</g>
</defs>
<use x="828.74" y="113.00" xlink:href="#r8"/>
<defs>
<path id="ubclef" class="fill" d="m-200 -87
	c124 -35 222 -78 254 -236
	43 -228 -167 -246 -192 -103
	59 -80 157 22 92 78
	-62 47 -115 -22 -106 -88
	21 -141 270 -136 274 52
	-1 175 -106 264 -322 297
	m357 -250
	c0 -36 51 -34 51 0
	0 37 -51 36 -51 0
	m-2 -129
	c0 -36 51 -34 51 0
	0 38 -51 37 -51 0"/>
<use id="bclef" transform="translate(0,18) scale(0.045)"
	xlink:href="#ubclef"/>
</defs>
<use x="23.54" y="165.00" xlink:href="#bclef"/>
<g font-family="serif" font-size="16" font-weight="bold" font-style="normal"
	transform="translate(42.04,182.50) scale(1.2,1)">
	<text text-anchor="middle">8</text>
	<text y="-12" text-anchor="middle">3</text>
</g>
<use x="85.44" y="168.00" xlink:href="#hd"/>
<path d="M81.94 168.00v25.00" class="stroke"/>
<use x="85.44" y="174.00" xlink:href="#hd"/>
<use x="135.14" y="171.00" xlink:href="#r8"/>
<use x="168.44" y="174.00" xlink:href="#hd"/>
<path d="M171.94 174.00v-21.00" class="stroke"/>
<use x="238.84" y="171.00" xlink:href="#r8"/>
<path class="fill"
	d="M280.24 183.20l50.40 0.00v-3.20l-50.40 -0.00"/>
<use x="284.14" y="162.00" xlink:href="#hd"/>
<path d="M280.64 162.00v20.20" class="stroke"/>
<use x="308.94" y="162.00" xlink:href="#hd"/>
<path d="M305.44 162.00v20.20" class="stroke"/>
<use x="333.84" y="162.00" xlink:href="#hd"/>
<path d="M330.34 162.00v20.20" class="stroke"/>
<use x="367.14" y="162.00" xlink:href="#hd"/>
<path d="M363.64 162.00v25.00" class="stroke"/>
<use x="367.14" y="168.00" xlink:href="#hd"/>
<use x="427.24" y="171.00" xlink:href="#r8"/>
<path class="fill"
	d="M468.24 153.00l50.40 0.00v3.20l-50.40 -0.00"/>
<use x="465.14" y="174.00" xlink:href="#hd"/>
<path d="M468.64 174.00v-20.00" class="stroke"/>
<use x="490.04" y="174.00" xlink:href="#hd"/>
<path d="M493.54 174.00v-20.00" class="stroke"/>
<use x="514.84" y="174.00" xlink:href="#hd"/>
<path d="M518.34 174.00v-20.00" class="stroke"/>
<path class="fill"
	d="M551.34 149.50l71.50 -4.70v3.20l-71.50 4.70"/>
<use x="548.14" y="177.00" xlink:href="#hd"/>
<path d="M551.64 177.00v-26.50" class="stroke"/>
<use x="548.14" y="171.00" xlink:href="#hd"/>
<use x="583.74" y="177.00" xlink:href="#hd"/>
<path d="M587.24 177.00v-28.90" class="stroke"/>
<use x="583.74" y="171.00" xlink:href="#hd"/>
<use x="618.94" y="177.00" xlink:href="#hd"/>
<path d="M622.44 177.00v-31.20" class="stroke"/>
<use x="618.94" y="162.00" xlink:href="#hd"/>
<path class="fill"
	d="M655.44 147.60l71.10 8.30v3.20l-71.10 -8.30"/>
<use x="652.24" y="174.00" xlink:href="#hd"/>
<path d="M655.74 174.00v-25.30" class="stroke"/>
<use x="687.44" y="171.00" xlink:href="#hd"/>
<path d="M690.94 171.00v-18.20" class="stroke"/>
<use x="722.64" y="189.00" xlink:href="#hl"/>
<use x="722.64" y="192.00" xlink:href="#hd"/>
<path d="M726.14 192.00v-35.10" class="stroke"/>
<path class="fill"
	d="M764.44 202.20l78.80 0.00v-3.20l-78.80 -0.00"/>
<path class="fill"
	d="M789.64 197.20l53.20 0.00v-3.20l-53.20 -0.00"/>
<use x="768.24" y="183.00" xlink:href="#hd"/>
<path d="M764.74 183.00v18.20" class="stroke"/>
<use x="793.14" y="162.00" xlink:href="#hd"/>
<path d="M789.64 162.00v39.20" class="stroke"/>
<use x="811.14" y="165.00" xlink:href="#hd"/>
<defs>
<path id="unat" class="fill" d="
	m96 -750
	h-32
	v716
	l32 -8
	182 -54
	v282
	h32
	v-706
	l-34 10
	-180 50
	v-290
	m0 592
	v-190
	l182 -52
	v188"/>
<use id="nt0" transform="translate(-3,5) scale(0.018)"
	xlink:href="#unat"/>
</defs>
<use x="802.14" y="165.00" xlink:href="#nt0"/>
<path d="M807.64 165.00v36.20" class="stroke"/>
<use x="828.74" y="168.00" xlink:href="#hd"/>
<path d="M825.24 168.00v33.20" class="stroke"/>
<use x="846.34" y="171.00" xlink:href="#hd"/>
<path d="M842.84 171.00v30.20" class="stroke"/>
</g>
<g stroke-width="0.70" transform="scale(0.867)" font-family="Times" font-size="13.00">
<path class="stroke" stroke-width="1"
	d="M11.54 316.00v-82.00"/>
<path class="fill"
	d="M6.54 231.00
	c10.5 1 12 -4.5 12 -3.5c0 1 -3.5 5.5 -8.5 5.5
	v84.00
	c5 0 8.5 4.5 8.5 5.5c0 1 -1.5 -4.5 -12 -3.5"/>
<use x="144.64" y="258.00" xlink:href="#rdots"/>
<path class="stroke" stroke-width="1"
	d="M140.64 258.00v-24.00"/>
<path class="stroke" stroke-width="3"
	d="M136.14 258.00v-24.00"/>
<use x="144.64" y="316.00" xlink:href="#rdots"/>
<path class="stroke" stroke-width="1"
	d="M140.64 316.00v-58.00"/>
<path class="stroke" stroke-width="3"
	d="M136.14 316.00v-58.00"/>
<path class="stroke" stroke-width="1"
	d="M234.34 258.00v-24.00"/>
<path class="stroke" stroke-width="1"
	d="M234.34 316.00v-58.00"/>
<path class="stroke" stroke-width="1"
	d="M334.54 258.00v-24.00"/>
<path class="stroke" stroke-width="1"
	d="M334.54 316.00v-58.00"/>
<path class="stroke" stroke-width="1"
	d="M434.74 258.00v-24.00"/>
<path class="stroke" stroke-width="1"
	d="M434.74 316.00v-58.00"/>
<path class="stroke" stroke-width="1"
	d="M515.14 258.00v-24.00"/>
<path class="stroke" stroke-width="1"
	d="M515.14 316.00v-58.00"/>
<path class="stroke" stroke-width="1"
	d="M615.44 258.00v-24.00"/>
<path class="stroke" stroke-width="1"
	d="M615.44 316.00v-58.00"/>
<path class="stroke" stroke-width="1"
	d="M686.74 258.00v-24.00"/>
<path class="stroke" stroke-width="1"
	d="M686.74 316.00v-58.00"/>
<path class="stroke" stroke-width="1"
	d="M786.94 258.00v-24.00"/>
<path class="stroke" stroke-width="1"
	d="M786.94 316.00v-58.00"/>
<path class="stroke" stroke-width="3"
	d="M860.54 258.00v-24.00"/>
<path class="stroke" stroke-width="1"
	d="M856.04 258.00v-24.00"/>
<use x="852.04" y="258.00" xlink:href="#rdots"/>
<path class="stroke" stroke-width="3"
	d="M860.54 316.00v-58.00"/>
<path class="stroke" stroke-width="1"
	d="M856.04 316.00v-58.00"/>
<use x="852.04" y="316.00" xlink:href="#rdots"/>
<path d="m11.54 258.00
	h850.50
	M11.54 252.00
	h850.50
	M11.54 246.00
	h850.50
	M11.54 240.00
	h850.50
	M11.54 234.00
	h850.50
	" class="stroke"/>
<path d="m11.54 316.00
	h850.50
	M11.54 310.00
	h850.50
	M11.54 304.00
	h850.50
	M11.54 298.00
	h850.50
	M11.54 292.00
	h850.50
	" class="stroke"/>
<text x="47.54" y="219.40">2</text>
<path class="stroke"
	d="M43.54 208.00m0 20v-20h90.10v20"/>
<use x="23.54" y="252.00" xlink:href="#tclef"/>
<use x="56.04" y="231.00" xlink:href="#hd"/>
<path d="M52.54 231.00v40.00" class="stroke"/>
<use x="56.04" y="252.00" xlink:href="#hd"/>
<use x="56.04" y="246.00" xlink:href="#hd"/>
<use x="56.04" y="240.00" xlink:href="#hd"/>
<use x="110.14" y="246.00" xlink:href="#r8"/>
<path class="fill"
	d="M160.34 262.50l30.80 5.80v-3.20l-30.80 -5.80"/>
<path class="fill"
	d="M160.64 257.60l15.00 2.80v-3.20l-15.00 -2.80"/>
<use x="164.14" y="234.00" xlink:href="#hd"/>
<use x="155.14" y="234.00" xlink:href="#sh0"/>
<path d="M160.64 234.00v27.60" class="stroke"/>
<use x="179.24" y="240.00" xlink:href="#hd"/>
<path d="M175.74 240.00v24.40" class="stroke"/>
<use x="194.24" y="249.00" xlink:href="#hd"/>
<path d="M190.74 249.00v18.20" class="stroke"/>
<use x="217.64" y="234.00" xlink:href="#hd"/>
<path d="M214.14 234.00v21.00" class="stroke"/>
<path class="fill"
	d="M214.14 255.00c0.6 -5.6 9.6 -9 5.6 -18.4
	1.6 6 -1.3 11.6 -5.6 12.8
"/>
<path class="fill"
	d="M242.94 266.70l60.90 9.00v-3.20l-60.90 -9.00"/>
<use x="246.84" y="231.00" xlink:href="#hd"/>
<path d="M243.34 231.00v34.80" class="stroke"/>
<use x="276.94" y="252.00" xlink:href="#hd"/>
<path d="M273.44 252.00v18.20" class="stroke"/>
<use x="307.04" y="252.00" xlink:href="#hd"/>
<path d="M303.54 252.00v22.60" class="stroke"/>
<path class="fill"
	d="M343.24 261.00l60.90 0.00v-3.20l-60.90 -0.00"/>
<use x="347.04" y="237.00" xlink:href="#hd"/>
<path d="M343.54 237.00v23.00" class="stroke"/>
<use x="347.04" y="243.00" xlink:href="#hd"/>
<use x="377.14" y="237.00" xlink:href="#hd"/>
<path d="M373.64 237.00v23.00" class="stroke"/>
<use x="377.14" y="243.00" xlink:href="#hd"/>
<use x="407.24" y="237.00" xlink:href="#hd"/>
<path d="M403.74 237.00v23.00" class="stroke"/>
<use x="407.24" y="243.00" xlink:href="#hd"/>
<path class="fill"
	d="M443.44 264.20l51.80 0.00v-3.20l-51.80 -0.00"/>
<path class="fill"
	d="M464.84 259.20l15.00 0.00v-3.20l-15.00 -0.00"/>
<use x="447.24" y="240.00" xlink:href="#hd"/>
<path d="M443.74 240.00v23.20" class="stroke"/>
<use x="447.24" y="246.00" xlink:href="#hd"/>
<use x="468.34" y="231.00" xlink:href="#hd"/>
<path d="M464.84 231.00v32.20" class="stroke"/>
<use x="483.34" y="228.00" xlink:href="#hl"/>
<use x="483.34" y="225.00" xlink:href="#hd"/>
<path d="M479.84 225.00v38.20" class="stroke"/>
<use x="498.44" y="240.00" xlink:href="#hd"/>
<path d="M494.94 240.00v23.20" class="stroke"/>
<path class="fill"
	d="M523.84 253.70l60.90 8.70v-3.20l-60.90 -8.70"/>
<use x="527.64" y="231.00" xlink:href="#hd"/>
<path d="M524.14 231.00v21.70" class="stroke"/>
<use x="557.74" y="237.00" xlink:href="#hd"/>
<path d="M554.24 237.00v20.00" class="stroke"/>
<use x="587.84" y="243.00" xlink:href="#hd"/>
<path d="M584.34 243.00v18.30" class="stroke"/>
<path class="fill"
	d="M631.04 224.00l42.80 0.00v3.20l-42.80 -0.00"/>
<use x="627.94" y="258.00" xlink:href="#hd"/>
<path d="M631.44 258.00v-33.00" class="stroke"/>
<use x="627.94" y="243.00" xlink:href="#hd"/>
<use x="648.94" y="258.00" xlink:href="#hd"/>
<path d="M652.44 258.00v-33.00" class="stroke"/>
<use x="648.94" y="243.00" xlink:href="#hd"/>
<use x="669.94" y="258.00" xlink:href="#hd"/>
<path d="M673.44 258.00v-33.00" class="stroke"/>
<use x="669.94" y="243.00" xlink:href="#hd"/>
<path class="fill"
	d="M695.34 266.00l75.90 0.00v-3.20l-75.90 -0.00"/>
<path class="fill"
	d="M695.74 261.00l75.20 0.00v-3.20l-75.20 -0.00"/>
<use x="699.24" y="240.00" xlink:href="#hd"/>
<path d="M695.74 240.00v24.90" class="stroke"/>
<use x="714.24" y="234.00" xlink:href="#hd"/>
<path d="M710.74 234.00v30.90" class="stroke"/>
<use x="729.34" y="228.00" xlink:href="#hl"/>
<use x="729.34" y="228.00" xlink:href="#hd"/>
<path d="M725.84 228.00v36.90" class="stroke"/>
<use x="744.34" y="234.00" xlink:href="#hd"/>
<path d="M740.84 234.00v30.90" class="stroke"/>
<use x="759.44" y="240.00" xlink:href="#hd"/>
<path d="M755.94 240.00v24.90" class="stroke"/>
<use x="774.44" y="246.00" xlink:href="#hd"/>
<path d="M770.94 246.00v18.90" class="stroke"/>
<use x="799.44" y="243.00" xlink:href="#hd"/>
<path d="M795.94 243.00v21.00" class="stroke"/>
<use x="841.54" y="246.00" xlink:href="#r8"/>
<use x="23.54" y="298.00" xlink:href="#bclef"/>
<path class="fill"
	d="M52.24 335.20l69.80 -5.00v-3.20l-69.80 5.00"/>
<path class="fill"
	d="M73.54 328.70l48.10 -3.50v-3.20l-48.10 3.50"/>
<use x="56.04" y="316.00" xlink:href="#hd"/>
<path d="M52.54 316.00v18.20" class="stroke"/>
<use x="77.04" y="289.00" xlink:href="#hd"/>
<path d="M73.54 289.00v43.70" class="stroke"/>
<use x="92.14" y="295.00" xlink:href="#hd"/>
<path d="M88.64 295.00v36.60" class="stroke"/>
<use x="110.14" y="298.00" xlink:href="#hd"/>
<use x="101.14" y="298.00" xlink:href="#sh0"/>
<path d="M106.64 298.00v32.30" class="stroke"/>
<use x="125.14" y="301.00" xlink:href="#hd"/>
<path d="M121.64 301.00v28.20" class="stroke"/>
<use x="164.14" y="292.00" xlink:href="#hd"/>
<path d="M160.64 292.00v34.00" class="stroke"/>
<use x="164.14" y="307.00" xlink:href="#hd"/>
<use x="217.64" y="292.00" xlink:href="#hd"/>
<path d="M214.14 292.00v34.00" class="stroke"/>
<path class="fill"
	d="M214.14 326.00c0.6 -5.6 9.6 -9 5.6 -18.4
	1.6 6 -1.3 11.6 -5.6 12.8
"/>
<use x="217.64" y="307.00" xlink:href="#hd"/>
<path class="fill"
	d="M242.94 338.20l75.90 0.00v-3.20l-75.90 -0.00"/>
<path class="fill"
	d="M243.34 333.20l75.20 0.00v-3.20l-75.20 -0.00"/>
<use x="246.84" y="310.00" xlink:href="#hd"/>
<path d="M243.34 310.00v27.20" class="stroke"/>
<use x="261.84" y="304.00" xlink:href="#hd"/>
<path d="M258.34 304.00v33.20" class="stroke"/>
<use x="276.94" y="295.00" xlink:href="#hd"/>
<path d="M273.44 295.00v42.20" class="stroke"/>
<use x="291.94" y="304.00" xlink:href="#hd"/>
<path d="M288.44 304.00v33.20" class="stroke"/>
<use x="307.04" y="289.00" xlink:href="#hd"/>
<path d="M303.54 289.00v48.20" class="stroke"/>
<use x="322.04" y="316.00" xlink:href="#hd"/>
<path d="M318.54 316.00v21.20" class="stroke"/>
<path class="fill"
	d="M343.24 329.20l75.90 0.00v-3.20l-75.90 -0.00"/>
<path class="fill"
	d="M343.54 324.20l75.20 0.00v-3.20l-75.20 -0.00"/>
<use x="347.04" y="307.00" xlink:href="#hd"/>
<path d="M343.54 307.00v21.20" class="stroke"/>
<use x="362.14" y="301.00" xlink:href="#hd"/>
<path d="M358.64 301.00v27.20" class="stroke"/>
<use x="377.14" y="295.00" xlink:href="#hd"/>
<path d="M373.64 295.00v33.20" class="stroke"/>
<use x="392.24" y="301.00" xlink:href="#hd"/>
<path d="M388.74 301.00v27.20" class="stroke"/>
<use x="407.24" y="286.00" xlink:href="#hl"/>
<use x="407.24" y="286.00" xlink:href="#hd"/>
<path d="M403.74 286.00v42.20" class="stroke"/>
<use x="422.24" y="307.00" xlink:href="#hd"/>
<path d="M418.74 307.00v21.20" class="stroke"/>
<use x="447.24" y="316.00" xlink:href="#hd"/>
<path d="M450.74 316.00v-40.00" class="stroke"/>
<use x="447.24" y="295.00" xlink:href="#hd"/>
<use x="498.44" y="295.00" xlink:href="#hd"/>
<path d="M494.94 295.00v21.00" class="stroke"/>
<path class="fill"
	d="M494.94 316.00c0.6 -5.6 9.6 -9 5.6 -18.4
	1.6 6 -1.3 11.6 -5.6 12.8
"/>
<path class="fill"
	d="M523.84 323.90l75.90 0.00v-3.20l-75.90 -0.00"/>
<path class="fill"
	d="M524.14 318.90l75.20 0.00v-3.20l-75.20 -0.00"/>
<use x="527.64" y="301.00" xlink:href="#hd"/>
<path d="M524.14 301.00v21.90" class="stroke"/>
<use x="527.64" y="307.00" xlink:href="#hd"/>
<use x="542.74" y="295.00" xlink:href="#hd"/>
<path d="M539.24 295.00v27.90" class="stroke"/>
<use x="557.74" y="301.00" xlink:href="#hd"/>
<path d="M554.24 301.00v21.90" class="stroke"/>
<use x="557.74" y="307.00" xlink:href="#hd"/>
<use x="572.84" y="295.00" xlink:href="#hd"/>
<path d="M569.34 295.00v27.90" class="stroke"/>
<use x="587.84" y="301.00" xlink:href="#hd"/>
<path d="M584.34 301.00v21.90" class="stroke"/>
<use x="587.84" y="307.00" xlink:href="#hd"/>
<use x="602.94" y="295.00" xlink:href="#hd"/>
<path d="M599.44 295.00v27.90" class="stroke"/>
<path class="fill"
	d="M631.04 286.00l42.80 0.00v3.20l-42.80 -0.00"/>
<use x="627.94" y="307.00" xlink:href="#hd"/>
<path d="M631.44 307.00v-20.00" class="stroke"/>
<use x="648.94" y="307.00" xlink:href="#hd"/>
<path d="M652.44 307.00v-20.00" class="stroke"/>
<use x="669.94" y="307.00" xlink:href="#hd"/>
<path d="M673.44 307.00v-20.00" class="stroke"/>
<use x="699.24" y="298.00" xlink:href="#hd"/>
<path d="M695.74 298.00v21.00" class="stroke"/>
<use x="759.44" y="295.00" xlink:href="#hd"/>
<path d="M755.94 295.00v21.00" class="stroke"/>
<path class="fill"
	d="M755.94 316.00c0.6 -5.6 9.6 -9 5.6 -18.4
	1.6 6 -1.3 11.6 -5.6 12.8
"/>
<path class="fill"
	d="M802.64 287.70l42.80 9.90v3.20l-42.80 -9.90"/>
<use x="799.44" y="307.00" xlink:href="#hd"/>
<path d="M802.94 307.00v-18.20" class="stroke"/>
<use x="820.54" y="316.00" xlink:href="#hd"/>
<path d="M824.04 316.00v-22.30" class="stroke"/>
<use x="841.54" y="322.00" xlink:href="#hl"/>
<use x="841.54" y="328.00" xlink:href="#hl"/>
<use x="841.54" y="328.00" xlink:href="#hd"/>
<path d="M845.04 328.00v-29.50" class="stroke"/>
</g>
</svg>
