<?xml version="1.0" standalone="no"?>
<!DOCTYPE svg PUBLIC "-//W3C//DTD SVG 1.1//EN"
	"http://www.w3.org/Graphics/SVG/1.1/DTD/svg11.dtd">
<svg xmlns="http://www.w3.org/2000/svg" version="1.1"
	xmlns:xlink="http://www.w3.org/1999/xlink"
	color="black"
	width="757.10px" height="297.27px">
<style type="text/css">
.fill {fill: currentColor}
.stroke {stroke: currentColor; fill: none}
text{white-space: pre}
</style>
<title>./K516f-10-6-6-8-6-6-6-2-10-2-2-8-6-6-8-9.abc (2209) tune 1</title>
<!-- Creator: abcm2ps-8.13.8 -->
<!-- CreationDate: Sep  7, 2017 11:18 -->
<!-- CommandLine: ./K516f-10-6-6-8-6-6-6-2-10-2-2-8-6-6-8-9.abc -O ./K516f-10-6-6-8-6-6-6-2-10-2-2-8-6-6-8-9.svg -g -->
<rect width="100%" height="100%" fill="white"/>
<g stroke-width="0.70" transform="scale(0.867)">
<!-- title: 10-6-6-8-6-6-6-2-10-2-2-8-6-6-8-9 -->
</g>
<g stroke-width="0.70" transform="scale(0.867)" font-family="Times" font-size="20.00">
<text x="436.84" y="22.00" text-anchor="middle">10-6-6-8-6-6-6-2-10-2-2-8-6-6-8-9</text>
</g>
<g stroke-width="0.70" transform="scale(0.867)" font-family="Times" font-size="20.00">
<!-- subtitle: $1K.516f::98:74:163:53:80:97:36:30:65:121:26:175:76:136:89:111::$0 -->
</g>
<g stroke-width="0.70" transform="scale(0.867)" font-family="Courier" font-size="8.00" font-weight="bold">
<text x="436.84" y="41.80" text-anchor="middle">K.516f::98:74:163:53:80:97:36:30:65:121:26:175:76:136:89:111::</text>
</g>
<g stroke-width="0.70" transform="scale(0.867)" font-family="Courier" font-size="8.00" font-weight="bold">
<!-- subtitle: $1Perm. No.: 220987021295423$0 -->
<text x="436.84" y="60.80" text-anchor="middle">Perm. No.: 220987021295423</text>
</g>
<g stroke-width="0.70" transform="scale(0.607)" font-family="Courier" font-size="8.00" font-weight="bold">
<defs>
<ellipse id="hd" rx="4.1" ry="2.9"
	transform="rotate(-20)" class="fill"/>
</defs>
<use x="103.06" y="121.29" xlink:href="#hd"/>
<path d="M106.56 121.29v-21.00" class="stroke"/>
<path class="fill"
	d="M106.56 100.29c0.6 5.6 9.6 9 5.6 18.4
	1.6 -6 -1.3 -11.6 -5.6 -12.8
"/>
</g>
<g stroke-width="0.70" transform="scale(0.867)" font-family="Times" font-size="15.00" font-weight="bold">
<text x="81.24" y="87.00">= 111</text>
<path class="stroke" stroke-width="1"
	d="M11.54 183.00v-82.00"/>
<path class="fill"
	d="M6.54 98.00
	c10.5 1 12 -4.5 12 -3.5c0 1 -3.5 5.5 -8.5 5.5
	v84.00
	c5 0 8.5 4.5 8.5 5.5c0 1 -1.5 -4.5 -12 -3.5"/>
<defs>
<g id="rdots" class="fill">
	<circle cx="0" cy="-9" r="1.2"/>
	<circle cx="0" cy="-15" r="1.2"/>
</g>
</defs>
<use x="70.54" y="125.00" xlink:href="#rdots"/>
<path class="stroke" stroke-width="1"
	d="M66.54 125.00v-24.00"/>
<path class="stroke" stroke-width="3"
	d="M62.04 125.00v-24.00"/>
<use x="70.54" y="183.00" xlink:href="#rdots"/>
<path class="stroke" stroke-width="1"
	d="M66.54 183.00v-58.00"/>
<path class="stroke" stroke-width="3"
	d="M62.04 183.00v-58.00"/>
<path class="stroke" stroke-width="1"
	d="M176.54 125.00v-24.00"/>
<path class="stroke" stroke-width="1"
	d="M176.54 183.00v-58.00"/>
<path class="stroke" stroke-width="1"
	d="M281.64 125.00v-24.00"/>
<path class="stroke" stroke-width="1"
	d="M281.64 183.00v-58.00"/>
<path class="stroke" stroke-width="1"
	d="M388.64 125.00v-24.00"/>
<path class="stroke" stroke-width="1"
	d="M388.64 183.00v-58.00"/>
<path class="stroke" stroke-width="1"
	d="M473.24 125.00v-24.00"/>
<path class="stroke" stroke-width="1"
	d="M473.24 183.00v-58.00"/>
<path class="stroke" stroke-width="1"
	d="M548.74 125.00v-24.00"/>
<path class="stroke" stroke-width="1"
	d="M548.74 183.00v-58.00"/>
<path class="stroke" stroke-width="1"
	d="M655.74 125.00v-24.00"/>
<path class="stroke" stroke-width="1"
	d="M655.74 183.00v-58.00"/>
<path class="stroke" stroke-width="1"
	d="M762.84 125.00v-24.00"/>
<path class="stroke" stroke-width="1"
	d="M762.84 183.00v-58.00"/>
<path class="stroke" stroke-width="3"
	d="M860.54 125.00v-24.00"/>
<path class="stroke" stroke-width="1"
	d="M856.04 125.00v-24.00"/>
<use x="852.04" y="125.00" xlink:href="#rdots"/>
<path class="stroke" stroke-width="3"
	d="M860.54 183.00v-58.00"/>
<path class="stroke" stroke-width="1"
	d="M856.04 183.00v-58.00"/>
<use x="852.04" y="183.00" xlink:href="#rdots"/>
<path d="m11.54 125.00
	h850.50
	M11.54 119.00
	h850.50
	M11.54 113.00
	h850.50
	M11.54 107.00
	h850.50
	M11.54 101.00
	h850.50
	" class="stroke"/>
<path d="m11.54 183.00
	h850.50
	M11.54 177.00
	h850.50
	M11.54 171.00
	h850.50
	M11.54 165.00
	h850.50
	M11.54 159.00
	h850.50
	" class="stroke"/>
</g>
<g stroke-width="0.70" transform="scale(0.867)" font-family="Times" font-size="13.00">
<text x="766.84" y="86.40">1</text>
<path class="stroke"
	d="M762.84 75.00m0 20v-20h91.20v20"/>
<defs>
<path id="utclef" class="fill" d="m-50 -90
	c-72 -41 -72 -158 52 -188
	150 -10 220 188 90 256
	-114 52 -275 0 -293 -136
	-15 -181 93 -229 220 -334
	88 -87 79 -133 62 -210
	-51 33 -94 105 -89 186
	17 267 36 374 49 574
	6 96 -19 134 -77 135
	-80 1 -126 -93 -61 -133
	85 -41 133 101 31 105
	23 17 92 37 90 -92
	-10 -223 -39 -342 -50 -617
	0 -90 0 -162 96 -232
	56 72 63 230 22 289
	-74 106 -257 168 -255 316
	9 153 148 185 252 133
	86 -65 29 -192 -80 -176
	-71 12 -105 67 -59 124"/>
<use id="tclef" transform="translate(0,6) scale(0.045)"
	xlink:href="#utclef"/>
</defs>
<use x="23.54" y="119.00" xlink:href="#tclef"/>
<g font-family="serif" font-size="16" font-weight="bold" font-style="normal"
	transform="translate(42.04,124.50) scale(1.2,1)">
	<text text-anchor="middle">8</text>
	<text y="-12" text-anchor="middle">3</text>
</g>
<path class="fill"
	d="M80.44 139.80l64.30 -3.30v-3.20l-64.30 3.30"/>
<use x="84.34" y="110.00" xlink:href="#hd"/>
<path d="M80.84 110.00v28.80" class="stroke"/>
<use x="116.14" y="119.00" xlink:href="#hd"/>
<path d="M112.64 119.00v18.20" class="stroke"/>
<use x="147.94" y="104.00" xlink:href="#hd"/>
<path d="M144.44 104.00v31.60" class="stroke"/>
<path class="fill"
	d="M185.44 122.70l80.40 9.50v-3.20l-80.40 -9.50"/>
<path class="fill"
	d="M185.74 117.80l79.70 9.40v-3.20l-79.70 -9.40"/>
<defs>
<path id="hl" class="stroke" d="m-6 0h12"/>
</defs>
<use x="189.24" y="95.00" xlink:href="#hl"/>
<use x="189.24" y="89.00" xlink:href="#hl"/>
<use x="189.24" y="89.00" xlink:href="#hd"/>
<path d="M185.74 89.00v32.80" class="stroke"/>
<use x="205.24" y="95.00" xlink:href="#hl"/>
<use x="205.24" y="92.00" xlink:href="#hd"/>
<path d="M201.74 92.00v31.70" class="stroke"/>
<use x="221.24" y="95.00" xlink:href="#hl"/>
<use x="221.24" y="89.00" xlink:href="#hl"/>
<use x="221.24" y="89.00" xlink:href="#hd"/>
<path d="M217.74 89.00v36.60" class="stroke"/>
<use x="237.14" y="98.00" xlink:href="#hd"/>
<path d="M233.64 98.00v29.40" class="stroke"/>
<use x="253.04" y="104.00" xlink:href="#hd"/>
<path d="M249.54 104.00v25.30" class="stroke"/>
<use x="268.94" y="110.00" xlink:href="#hd"/>
<path d="M265.44 110.00v21.20" class="stroke"/>
<path class="fill"
	d="M290.54 131.40l82.30 9.90v-3.20l-82.30 -9.90"/>
<path class="fill"
	d="M290.84 126.40l81.60 9.80v-3.20l-81.60 -9.80"/>
<use x="294.34" y="98.00" xlink:href="#hd"/>
<path d="M290.84 98.00v32.40" class="stroke"/>
<use x="312.34" y="101.00" xlink:href="#hd"/>
<defs>
<path id="usharp" class="fill" d="
	m136 -702
	v890
	h32
	v-890
	m128 840
	h32
	v-888
	h-32
	m-232 286
	v116
	l338 -96
	v-116
	m-338 442
	v116
	l338 -98
	v-114"/>
<use id="sh0" transform="translate(-4,5) scale(0.018)"
	xlink:href="#usharp"/>
</defs>
<use x="303.34" y="101.00" xlink:href="#sh0"/>
<path d="M308.84 101.00v31.60" class="stroke"/>
<use x="328.34" y="98.00" xlink:href="#hd"/>
<path d="M324.84 98.00v36.50" class="stroke"/>
<use x="344.24" y="107.00" xlink:href="#hd"/>
<path d="M340.74 107.00v29.40" class="stroke"/>
<use x="360.14" y="113.00" xlink:href="#hd"/>
<path d="M356.64 113.00v25.30" class="stroke"/>
<use x="376.04" y="119.00" xlink:href="#hd"/>
<path d="M372.54 119.00v21.20" class="stroke"/>
<path class="fill"
	d="M397.64 127.00l54.80 0.00v-3.20l-54.80 -0.00"/>
<path class="fill"
	d="M420.24 122.00l15.90 0.00v-3.20l-15.90 -0.00"/>
<use x="401.44" y="104.00" xlink:href="#hd"/>
<path d="M397.94 104.00v22.00" class="stroke"/>
<use x="401.44" y="110.00" xlink:href="#hd"/>
<use x="423.74" y="104.00" xlink:href="#hd"/>
<path d="M420.24 104.00v22.00" class="stroke"/>
<use x="423.74" y="110.00" xlink:href="#hd"/>
<use x="439.64" y="101.00" xlink:href="#hd"/>
<path d="M436.14 101.00v25.00" class="stroke"/>
<use x="439.64" y="107.00" xlink:href="#hd"/>
<use x="455.54" y="98.00" xlink:href="#hd"/>
<path d="M452.04 98.00v28.00" class="stroke"/>
<use x="455.54" y="104.00" xlink:href="#hd"/>
<path class="fill"
	d="M482.14 136.80l45.80 -3.20v-3.20l-45.80 3.20"/>
<use x="485.94" y="107.00" xlink:href="#hd"/>
<path d="M482.44 107.00v28.80" class="stroke"/>
<use x="508.34" y="116.00" xlink:href="#hd"/>
<path d="M504.84 116.00v18.20" class="stroke"/>
<use x="531.04" y="101.00" xlink:href="#hd"/>
<use x="522.04" y="101.00" xlink:href="#sh0"/>
<path d="M527.54 101.00v31.60" class="stroke"/>
<path class="fill"
	d="M557.64 131.40l82.30 9.90v-3.20l-82.30 -9.90"/>
<path class="fill"
	d="M558.04 126.40l81.60 9.80v-3.20l-81.60 -9.80"/>
<use x="561.54" y="98.00" xlink:href="#hd"/>
<path d="M558.04 98.00v32.40" class="stroke"/>
<use x="579.54" y="101.00" xlink:href="#hd"/>
<use x="570.54" y="101.00" xlink:href="#sh0"/>
<path d="M576.04 101.00v31.60" class="stroke"/>
<use x="595.44" y="98.00" xlink:href="#hd"/>
<path d="M591.94 98.00v36.50" class="stroke"/>
<use x="611.34" y="107.00" xlink:href="#hd"/>
<path d="M607.84 107.00v29.40" class="stroke"/>
<use x="627.24" y="113.00" xlink:href="#hd"/>
<path d="M623.74 113.00v25.30" class="stroke"/>
<use x="643.14" y="119.00" xlink:href="#hd"/>
<path d="M639.64 119.00v21.20" class="stroke"/>
<path class="fill"
	d="M664.74 138.20l82.30 -8.40v-3.20l-82.30 8.40"/>
<path class="fill"
	d="M665.04 133.20l81.60 -8.30v-3.20l-81.60 8.30"/>
<use x="668.54" y="116.00" xlink:href="#hd"/>
<path d="M665.04 116.00v21.20" class="stroke"/>
<use x="684.44" y="104.00" xlink:href="#hd"/>
<path d="M680.94 104.00v31.60" class="stroke"/>
<use x="700.34" y="107.00" xlink:href="#hd"/>
<path d="M696.84 107.00v27.00" class="stroke"/>
<use x="716.24" y="98.00" xlink:href="#hd"/>
<path d="M712.74 98.00v34.30" class="stroke"/>
<use x="734.24" y="101.00" xlink:href="#hd"/>
<use x="725.24" y="101.00" xlink:href="#sh0"/>
<path d="M730.74 101.00v29.50" class="stroke"/>
<use x="750.14" y="95.00" xlink:href="#hl"/>
<use x="750.14" y="95.00" xlink:href="#hd"/>
<path d="M746.64 95.00v33.90" class="stroke"/>
<use x="775.64" y="98.00" xlink:href="#hd"/>
<path d="M772.14 98.00v40.00" class="stroke"/>
<use x="775.64" y="119.00" xlink:href="#hd"/>
<use x="775.64" y="113.00" xlink:href="#hd"/>
<use x="775.64" y="107.00" xlink:href="#hd"/>
<defs>
<path id="r8e" class="fill" d="m 0 0
	c-1.5 1.5 -2.4 2 -3.6 2
	2.4 -2.8 -2.8 -4 -2.8 -1.2
	c0 2.7 4.3 2.4 5.9 0.6"/>
<g id="r8">
	<path d="m3.3 -4l-3.4 9.6" class="stroke"/>
	<use x="3.4" y="-4" xlink:href="#r8e"/>
</g>
</defs>
<use x="831.84" y="113.00" xlink:href="#r8"/>
<defs>
<path id="ubclef" class="fill" d="m-200 -87
	c124 -35 222 -78 254 -236
	43 -228 -167 -246 -192 -103
	59 -80 157 22 92 78
	-62 47 -115 -22 -106 -88
	21 -141 270 -136 274 52
	-1 175 -106 264 -322 297
	m357 -250
	c0 -36 51 -34 51 0
	0 37 -51 36 -51 0
	m-2 -129
	c0 -36 51 -34 51 0
	0 38 -51 37 -51 0"/>
<use id="bclef" transform="translate(0,18) scale(0.045)"
	xlink:href="#ubclef"/>
</defs>
<use x="23.54" y="165.00" xlink:href="#bclef"/>
<g font-family="serif" font-size="16" font-weight="bold" font-style="normal"
	transform="translate(42.04,182.50) scale(1.2,1)">
	<text text-anchor="middle">8</text>
	<text y="-12" text-anchor="middle">3</text>
</g>
<path class="fill"
	d="M80.44 190.90l80.20 0.00v-3.20l-80.20 -0.00"/>
<path class="fill"
	d="M80.84 185.90l79.50 0.00v-3.20l-79.50 -0.00"/>
<use x="84.34" y="168.00" xlink:href="#hd"/>
<path d="M80.84 168.00v21.90" class="stroke"/>
<use x="84.34" y="174.00" xlink:href="#hd"/>
<use x="100.24" y="162.00" xlink:href="#hd"/>
<path d="M96.74 162.00v27.90" class="stroke"/>
<use x="116.14" y="168.00" xlink:href="#hd"/>
<path d="M112.64 168.00v21.90" class="stroke"/>
<use x="116.14" y="174.00" xlink:href="#hd"/>
<use x="132.04" y="162.00" xlink:href="#hd"/>
<path d="M128.54 162.00v27.90" class="stroke"/>
<use x="147.94" y="168.00" xlink:href="#hd"/>
<path d="M144.44 168.00v21.90" class="stroke"/>
<use x="147.94" y="174.00" xlink:href="#hd"/>
<use x="163.84" y="162.00" xlink:href="#hd"/>
<path d="M160.34 162.00v27.90" class="stroke"/>
<use x="189.24" y="168.00" xlink:href="#hd"/>
<path d="M192.74 168.00v-21.00" class="stroke"/>
<use x="253.04" y="171.00" xlink:href="#r8"/>
<use x="294.34" y="177.00" xlink:href="#hd"/>
<path d="M297.84 177.00v-25.00" class="stroke"/>
<use x="294.34" y="171.00" xlink:href="#hd"/>
<use x="360.14" y="171.00" xlink:href="#r8"/>
<use x="401.44" y="174.00" xlink:href="#hd"/>
<path d="M404.94 174.00v-21.00" class="stroke"/>
<use x="455.54" y="171.00" xlink:href="#r8"/>
<use x="485.94" y="174.00" xlink:href="#hd"/>
<path d="M489.44 174.00v-21.00" class="stroke"/>
<use x="531.04" y="171.00" xlink:href="#r8"/>
<use x="561.54" y="177.00" xlink:href="#hd"/>
<path d="M565.04 177.00v-25.00" class="stroke"/>
<use x="561.54" y="171.00" xlink:href="#hd"/>
<use x="627.24" y="162.00" xlink:href="#hd"/>
<path d="M623.74 162.00v34.00" class="stroke"/>
<path class="fill"
	d="M623.74 196.00c0.6 -5.6 9.6 -9 5.6 -18.4
	1.6 6 -1.3 11.6 -5.6 12.8
"/>
<use x="627.24" y="177.00" xlink:href="#hd"/>
<path class="fill"
	d="M671.74 147.80l66.40 8.30v3.20l-66.40 -8.30"/>
<use x="668.54" y="174.00" xlink:href="#hd"/>
<path d="M672.04 174.00v-25.20" class="stroke"/>
<use x="700.34" y="171.00" xlink:href="#hd"/>
<path d="M703.84 171.00v-18.20" class="stroke"/>
<use x="734.24" y="189.00" xlink:href="#hl"/>
<use x="734.24" y="192.00" xlink:href="#hd"/>
<path d="M737.74 192.00v-35.00" class="stroke"/>
<path class="fill"
	d="M771.74 202.20l72.80 0.00v-3.20l-72.80 -0.00"/>
<path class="fill"
	d="M794.44 197.20l49.80 0.00v-3.20l-49.80 -0.00"/>
<use x="775.64" y="183.00" xlink:href="#hd"/>
<path d="M772.14 183.00v18.20" class="stroke"/>
<use x="797.94" y="162.00" xlink:href="#hd"/>
<path d="M794.44 162.00v39.20" class="stroke"/>
<use x="815.94" y="165.00" xlink:href="#hd"/>
<defs>
<path id="unat" class="fill" d="
	m96 -750
	h-32
	v716
	l32 -8
	182 -54
	v282
	h32
	v-706
	l-34 10
	-180 50
	v-290
	m0 592
	v-190
	l182 -52
	v188"/>
<use id="nt0" transform="translate(-3,5) scale(0.018)"
	xlink:href="#unat"/>
</defs>
<use x="806.94" y="165.00" xlink:href="#nt0"/>
<path d="M812.44 165.00v36.20" class="stroke"/>
<use x="831.84" y="168.00" xlink:href="#hd"/>
<path d="M828.34 168.00v33.20" class="stroke"/>
<use x="847.74" y="171.00" xlink:href="#hd"/>
<path d="M844.24 171.00v30.20" class="stroke"/>
<use x="189.24" y="174.00" xlink:href="#hd"/>
<path d="M185.74 174.00v21.00" class="stroke"/>
<defs>
<path id="turn" class="fill" d="
	m5.2 -8
	c1.4 0.5 0.9 4.8 -2.2 2.8
	l-4.8 -3.5
	c-3 -2 -5.8 1.8 -3.6 4.4
	1 1.1 2 0.8 2.1 -0.1
	0.1 -0.9 -0.7 -1.2 -1.9 -0.6
	-1.4 -0.5 -0.9 -4.8 2.2 -2.8
	l4.8 3.5
	c3 2 5.8 -1.8 3.6 -4.4
	-1 -1.1 -2 -0.8 -2.1 0.1
	-0.1 0.9 0.7 1.2 1.9 0.6"/>
</defs>
<use x="508.34" y="99.00" xlink:href="#turn"/>
</g>
<g stroke-width="0.70" transform="scale(0.867)" font-family="Times" font-size="13.00">
<path class="stroke" stroke-width="1"
	d="M11.54 320.00v-86.00"/>
<path class="fill"
	d="M6.54 231.00
	c10.5 1 12 -4.5 12 -3.5c0 1 -3.5 5.5 -8.5 5.5
	v88.00
	c5 0 8.5 4.5 8.5 5.5c0 1 -1.5 -4.5 -12 -3.5"/>
<use x="144.94" y="258.00" xlink:href="#rdots"/>
<path class="stroke" stroke-width="1"
	d="M140.94 258.00v-24.00"/>
<path class="stroke" stroke-width="3"
	d="M136.44 258.00v-24.00"/>
<use x="144.94" y="320.00" xlink:href="#rdots"/>
<path class="stroke" stroke-width="1"
	d="M140.94 320.00v-62.00"/>
<path class="stroke" stroke-width="3"
	d="M136.44 320.00v-62.00"/>
<path class="stroke" stroke-width="1"
	d="M233.24 258.00v-24.00"/>
<path class="stroke" stroke-width="1"
	d="M233.24 320.00v-62.00"/>
<path class="stroke" stroke-width="1"
	d="M313.94 258.00v-24.00"/>
<path class="stroke" stroke-width="1"
	d="M313.94 320.00v-62.00"/>
<path class="stroke" stroke-width="1"
	d="M414.54 258.00v-24.00"/>
<path class="stroke" stroke-width="1"
	d="M414.54 320.00v-62.00"/>
<path class="stroke" stroke-width="1"
	d="M504.34 258.00v-24.00"/>
<path class="stroke" stroke-width="1"
	d="M504.34 320.00v-62.00"/>
<path class="stroke" stroke-width="1"
	d="M605.24 258.00v-24.00"/>
<path class="stroke" stroke-width="1"
	d="M605.24 320.00v-62.00"/>
<path class="stroke" stroke-width="1"
	d="M706.04 258.00v-24.00"/>
<path class="stroke" stroke-width="1"
	d="M706.04 320.00v-62.00"/>
<path class="stroke" stroke-width="1"
	d="M786.74 258.00v-24.00"/>
<path class="stroke" stroke-width="1"
	d="M786.74 320.00v-62.00"/>
<path class="stroke" stroke-width="3"
	d="M860.54 258.00v-24.00"/>
<path class="stroke" stroke-width="1"
	d="M856.04 258.00v-24.00"/>
<use x="852.04" y="258.00" xlink:href="#rdots"/>
<path class="stroke" stroke-width="3"
	d="M860.54 320.00v-62.00"/>
<path class="stroke" stroke-width="1"
	d="M856.04 320.00v-62.00"/>
<use x="852.04" y="320.00" xlink:href="#rdots"/>
<path d="m11.54 258.00
	h850.50
	M11.54 252.00
	h850.50
	M11.54 246.00
	h850.50
	M11.54 240.00
	h850.50
	M11.54 234.00
	h850.50
	" class="stroke"/>
<path d="m11.54 320.00
	h850.50
	M11.54 314.00
	h850.50
	M11.54 308.00
	h850.50
	M11.54 302.00
	h850.50
	M11.54 296.00
	h850.50
	" class="stroke"/>
<text x="47.54" y="219.40">2</text>
<path class="stroke"
	d="M43.54 208.00m0 20v-20h90.40v20"/>
<use x="23.54" y="252.00" xlink:href="#tclef"/>
<use x="56.04" y="231.00" xlink:href="#hd"/>
<path d="M52.54 231.00v40.00" class="stroke"/>
<use x="56.04" y="252.00" xlink:href="#hd"/>
<use x="56.04" y="246.00" xlink:href="#hd"/>
<use x="56.04" y="240.00" xlink:href="#hd"/>
<use x="110.34" y="246.00" xlink:href="#r8"/>
<path class="fill"
	d="M160.64 272.60l52.70 -4.60v-3.20l-52.70 4.60"/>
<path class="fill"
	d="M160.94 267.50l15.10 -1.30v-3.20l-15.10 1.30"/>
<use x="164.44" y="240.00" xlink:href="#hd"/>
<path d="M160.94 240.00v31.50" class="stroke"/>
<use x="179.54" y="249.00" xlink:href="#hd"/>
<path d="M176.04 249.00v21.20" class="stroke"/>
<use x="194.74" y="240.00" xlink:href="#hd"/>
<path d="M191.24 240.00v28.90" class="stroke"/>
<use x="216.44" y="234.00" xlink:href="#hd"/>
<use x="207.44" y="234.00" xlink:href="#sh0"/>
<path d="M212.94 234.00v33.00" class="stroke"/>
<path class="fill"
	d="M241.94 254.60l52.10 4.60v-3.20l-52.10 -4.60"/>
<path class="fill"
	d="M263.44 251.50l15.10 1.30v-3.20l-15.10 -1.30"/>
<use x="245.74" y="231.00" xlink:href="#hd"/>
<path d="M242.24 231.00v22.60" class="stroke"/>
<use x="266.94" y="228.00" xlink:href="#hl"/>
<use x="266.94" y="225.00" xlink:href="#hd"/>
<path d="M263.44 225.00v30.50" class="stroke"/>
<use x="282.04" y="231.00" xlink:href="#hd"/>
<path d="M278.54 231.00v25.90" class="stroke"/>
<use x="297.14" y="240.00" xlink:href="#hd"/>
<path d="M293.64 240.00v18.20" class="stroke"/>
<path class="fill"
	d="M322.64 261.00l61.20 0.00v-3.20l-61.20 -0.00"/>
<use x="326.44" y="237.00" xlink:href="#hd"/>
<path d="M322.94 237.00v23.00" class="stroke"/>
<use x="326.44" y="243.00" xlink:href="#hd"/>
<use x="356.74" y="237.00" xlink:href="#hd"/>
<path d="M353.24 237.00v23.00" class="stroke"/>
<use x="356.74" y="243.00" xlink:href="#hd"/>
<use x="386.94" y="237.00" xlink:href="#hd"/>
<path d="M383.44 237.00v23.00" class="stroke"/>
<use x="386.94" y="243.00" xlink:href="#hd"/>
<path class="fill"
	d="M423.24 268.20l61.20 0.00v-3.20l-61.20 -0.00"/>
<path class="fill"
	d="M423.54 263.20l45.40 0.00v-3.20l-45.40 -0.00"/>
<use x="427.04" y="237.00" xlink:href="#hd"/>
<path d="M423.54 237.00v30.20" class="stroke"/>
<use x="442.24" y="243.00" xlink:href="#hd"/>
<path d="M438.74 243.00v24.20" class="stroke"/>
<use x="457.34" y="246.00" xlink:href="#hd"/>
<path d="M453.84 246.00v21.20" class="stroke"/>
<use x="472.44" y="240.00" xlink:href="#hd"/>
<path d="M468.94 240.00v27.20" class="stroke"/>
<use x="487.54" y="231.00" xlink:href="#hd"/>
<path d="M484.04 231.00v36.20" class="stroke"/>
<path class="fill"
	d="M513.04 255.90l76.50 9.40v-3.20l-76.50 -9.40"/>
<path class="fill"
	d="M513.34 250.90l75.80 9.30v-3.20l-75.80 -9.30"/>
<use x="516.84" y="228.00" xlink:href="#hl"/>
<use x="516.84" y="222.00" xlink:href="#hl"/>
<use x="516.84" y="222.00" xlink:href="#hd"/>
<path d="M513.34 222.00v32.90" class="stroke"/>
<use x="532.14" y="228.00" xlink:href="#hl"/>
<use x="532.14" y="225.00" xlink:href="#hd"/>
<path d="M528.64 225.00v31.80" class="stroke"/>
<use x="547.34" y="228.00" xlink:href="#hl"/>
<use x="547.34" y="222.00" xlink:href="#hl"/>
<use x="547.34" y="222.00" xlink:href="#hd"/>
<path d="M543.84 222.00v36.60" class="stroke"/>
<use x="562.44" y="231.00" xlink:href="#hd"/>
<path d="M558.94 231.00v29.50" class="stroke"/>
<use x="577.54" y="237.00" xlink:href="#hd"/>
<path d="M574.04 237.00v25.30" class="stroke"/>
<use x="592.74" y="243.00" xlink:href="#hd"/>
<path d="M589.24 243.00v21.20" class="stroke"/>
<path class="fill"
	d="M613.84 255.90l76.50 9.40v-3.20l-76.50 -9.40"/>
<path class="fill"
	d="M614.24 250.90l75.80 9.30v-3.20l-75.80 -9.30"/>
<use x="617.74" y="228.00" xlink:href="#hl"/>
<use x="617.74" y="222.00" xlink:href="#hl"/>
<use x="617.74" y="222.00" xlink:href="#hd"/>
<path d="M614.24 222.00v32.90" class="stroke"/>
<use x="632.94" y="228.00" xlink:href="#hl"/>
<use x="632.94" y="225.00" xlink:href="#hd"/>
<path d="M629.44 225.00v31.80" class="stroke"/>
<use x="648.14" y="228.00" xlink:href="#hl"/>
<use x="648.14" y="222.00" xlink:href="#hl"/>
<use x="648.14" y="222.00" xlink:href="#hd"/>
<path d="M644.64 222.00v36.60" class="stroke"/>
<use x="663.24" y="231.00" xlink:href="#hd"/>
<path d="M659.74 231.00v29.50" class="stroke"/>
<use x="678.34" y="237.00" xlink:href="#hd"/>
<path d="M674.84 237.00v25.30" class="stroke"/>
<use x="693.54" y="243.00" xlink:href="#hd"/>
<path d="M690.04 243.00v21.20" class="stroke"/>
<path class="fill"
	d="M714.64 260.00l52.10 0.00v-3.20l-52.10 -0.00"/>
<path class="fill"
	d="M715.04 255.00l15.10 0.00v-3.20l-15.10 -0.00"/>
<use x="718.54" y="234.00" xlink:href="#hd"/>
<path d="M715.04 234.00v25.00" class="stroke"/>
<use x="733.64" y="237.00" xlink:href="#hd"/>
<path d="M730.14 237.00v22.00" class="stroke"/>
<use x="748.74" y="240.00" xlink:href="#hd"/>
<path d="M745.24 240.00v19.00" class="stroke"/>
<use x="769.94" y="231.00" xlink:href="#hd"/>
<path d="M766.44 231.00v28.00" class="stroke"/>
<use x="799.24" y="243.00" xlink:href="#hd"/>
<path d="M795.74 243.00v21.00" class="stroke"/>
<use x="841.54" y="246.00" xlink:href="#r8"/>
<use x="23.54" y="302.00" xlink:href="#bclef"/>
<path class="fill"
	d="M52.24 339.20l70.10 -5.10v-3.20l-70.10 5.10"/>
<path class="fill"
	d="M73.74 332.70l48.20 -3.50v-3.20l-48.20 3.50"/>
<use x="56.04" y="320.00" xlink:href="#hd"/>
<path d="M52.54 320.00v18.20" class="stroke"/>
<use x="77.24" y="293.00" xlink:href="#hd"/>
<path d="M73.74 293.00v43.70" class="stroke"/>
<use x="92.34" y="299.00" xlink:href="#hd"/>
<path d="M88.84 299.00v36.60" class="stroke"/>
<use x="110.34" y="302.00" xlink:href="#hd"/>
<use x="101.34" y="302.00" xlink:href="#sh0"/>
<path d="M106.84 302.00v32.30" class="stroke"/>
<use x="125.44" y="305.00" xlink:href="#hd"/>
<path d="M121.94 305.00v28.20" class="stroke"/>
<use x="164.44" y="302.00" xlink:href="#hd"/>
<use x="155.44" y="302.00" xlink:href="#sh0"/>
<path d="M167.94 302.00v-21.00" class="stroke"/>
<use x="216.44" y="308.00" xlink:href="#r8"/>
<use x="245.74" y="299.00" xlink:href="#hd"/>
<path d="M242.24 299.00v34.00" class="stroke"/>
<use x="245.74" y="314.00" xlink:href="#hd"/>
<use x="297.14" y="308.00" xlink:href="#r8"/>
<path class="fill"
	d="M322.64 333.20l76.30 0.00v-3.20l-76.30 -0.00"/>
<path class="fill"
	d="M322.94 328.20l75.60 0.00v-3.20l-75.60 -0.00"/>
<use x="326.44" y="311.00" xlink:href="#hd"/>
<path d="M322.94 311.00v21.20" class="stroke"/>
<use x="341.54" y="305.00" xlink:href="#hd"/>
<path d="M338.04 305.00v27.20" class="stroke"/>
<use x="356.74" y="299.00" xlink:href="#hd"/>
<path d="M353.24 299.00v33.20" class="stroke"/>
<use x="371.84" y="305.00" xlink:href="#hd"/>
<path d="M368.34 305.00v27.20" class="stroke"/>
<use x="386.94" y="290.00" xlink:href="#hl"/>
<use x="386.94" y="290.00" xlink:href="#hd"/>
<path d="M383.44 290.00v42.20" class="stroke"/>
<use x="402.04" y="311.00" xlink:href="#hd"/>
<path d="M398.54 311.00v21.20" class="stroke"/>
<path class="fill"
	d="M430.24 279.70l30.90 9.00v3.20l-30.90 -9.00"/>
<use x="427.04" y="299.00" xlink:href="#hd"/>
<path d="M430.54 299.00v-18.20" class="stroke"/>
<use x="457.34" y="320.00" xlink:href="#hd"/>
<path d="M460.84 320.00v-30.40" class="stroke"/>
<use x="487.54" y="308.00" xlink:href="#r8"/>
<use x="516.84" y="305.00" xlink:href="#hd"/>
<path d="M513.34 305.00v25.00" class="stroke"/>
<use x="516.84" y="311.00" xlink:href="#hd"/>
<use x="577.54" y="299.00" xlink:href="#hd"/>
<path d="M574.04 299.00v31.00" class="stroke"/>
<path class="fill"
	d="M574.04 330.00c0.6 -5.6 9.6 -9 5.6 -18.4
	1.6 6 -1.3 11.6 -5.6 12.8
"/>
<use x="577.54" y="311.00" xlink:href="#hd"/>
<use x="617.74" y="305.00" xlink:href="#hd"/>
<path d="M614.24 305.00v25.00" class="stroke"/>
<use x="617.74" y="311.00" xlink:href="#hd"/>
<use x="678.34" y="308.00" xlink:href="#r8"/>
<path class="fill"
	d="M714.64 327.90l52.10 0.00v-3.20l-52.10 -0.00"/>
<path class="fill"
	d="M715.04 322.90l15.10 0.00v-3.20l-15.10 -0.00"/>
<use x="718.54" y="302.00" xlink:href="#hd"/>
<path d="M715.04 302.00v24.90" class="stroke"/>
<use x="733.64" y="305.00" xlink:href="#hd"/>
<path d="M730.14 305.00v21.90" class="stroke"/>
<use x="748.74" y="308.00" xlink:href="#hd"/>
<path d="M745.24 308.00v18.90" class="stroke"/>
<use x="769.94" y="299.00" xlink:href="#hd"/>
<path d="M766.44 299.00v27.90" class="stroke"/>
<path class="fill"
	d="M802.34 291.70l43.00 9.90v3.20l-43.00 -9.90"/>
<use x="799.24" y="311.00" xlink:href="#hd"/>
<path d="M802.74 311.00v-18.20" class="stroke"/>
<use x="820.34" y="320.00" xlink:href="#hd"/>
<path d="M823.84 320.00v-22.30" class="stroke"/>
<use x="841.54" y="326.00" xlink:href="#hl"/>
<use x="841.54" y="332.00" xlink:href="#hl"/>
<use x="841.54" y="332.00" xlink:href="#hd"/>
<path d="M845.04 332.00v-29.50" class="stroke"/>
<use x="164.44" y="308.00" xlink:href="#hd"/>
<path d="M160.94 308.00v21.00" class="stroke"/>
</g>
</svg>
