<?xml version="1.0" standalone="no"?>
<!DOCTYPE svg PUBLIC "-//W3C//DTD SVG 1.1//EN"
	"http://www.w3.org/Graphics/SVG/1.1/DTD/svg11.dtd">
<svg xmlns="http://www.w3.org/2000/svg" version="1.1"
	xmlns:xlink="http://www.w3.org/1999/xlink"
	color="black"
	width="757.10px" height="293.80px">
<style type="text/css">
.fill {fill: currentColor}
.stroke {stroke: currentColor; fill: none}
text{white-space: pre}
</style>
<title>./K516f-5-5-2-8-6-9-10-5-8-9-2-8-4-7-3-11.abc (5094) tune 1</title>
<!-- Creator: abcm2ps-8.13.8 -->
<!-- CreationDate: Sep  7, 2017 11:19 -->
<!-- CommandLine: ./K516f-5-5-2-8-6-9-10-5-8-9-2-8-4-7-3-11.abc -O ./K516f-5-5-2-8-6-9-10-5-8-9-2-8-4-7-3-11.svg -g -->
<rect width="100%" height="100%" fill="white"/>
<g stroke-width="0.70" transform="scale(0.867)">
<!-- title: 5-5-2-8-6-9-10-5-8-9-2-8-4-7-3-11 -->
</g>
<g stroke-width="0.70" transform="scale(0.867)" font-family="Times" font-size="20.00">
<text x="436.84" y="22.00" text-anchor="middle">5-5-2-8-6-9-10-5-8-9-2-8-4-7-3-11</text>
</g>
<g stroke-width="0.70" transform="scale(0.867)" font-family="Times" font-size="20.00">
<!-- subtitle: $1K.516f::40:17:141:53:80:86:62:100:16:88:26:175:73:162:116:78::$0 -->
</g>
<g stroke-width="0.70" transform="scale(0.867)" font-family="Courier" font-size="8.00" font-weight="bold">
<text x="436.84" y="41.80" text-anchor="middle">K.516f::40:17:141:53:80:86:62:100:16:88:26:175:73:162:116:78::</text>
</g>
<g stroke-width="0.70" transform="scale(0.867)" font-family="Courier" font-size="8.00" font-weight="bold">
<!-- subtitle: $1Perm. No.: 50942734717989$0 -->
<text x="436.84" y="60.80" text-anchor="middle">Perm. No.: 50942734717989</text>
</g>
<g stroke-width="0.70" transform="scale(0.607)" font-family="Courier" font-size="8.00" font-weight="bold">
<defs>
<ellipse id="hd" rx="4.1" ry="2.9"
	transform="rotate(-20)" class="fill"/>
</defs>
<use x="103.06" y="121.29" xlink:href="#hd"/>
<path d="M106.56 121.29v-21.00" class="stroke"/>
<path class="fill"
	d="M106.56 100.29c0.6 5.6 9.6 9 5.6 18.4
	1.6 -6 -1.3 -11.6 -5.6 -12.8
"/>
</g>
<g stroke-width="0.70" transform="scale(0.867)" font-family="Times" font-size="15.00" font-weight="bold">
<text x="81.24" y="87.00">= 111</text>
<path class="stroke" stroke-width="1"
	d="M11.54 183.00v-82.00"/>
<path class="fill"
	d="M6.54 98.00
	c10.5 1 12 -4.5 12 -3.5c0 1 -3.5 5.5 -8.5 5.5
	v84.00
	c5 0 8.5 4.5 8.5 5.5c0 1 -1.5 -4.5 -12 -3.5"/>
<defs>
<g id="rdots" class="fill">
	<circle cx="0" cy="-9" r="1.2"/>
	<circle cx="0" cy="-15" r="1.2"/>
</g>
</defs>
<use x="70.54" y="125.00" xlink:href="#rdots"/>
<path class="stroke" stroke-width="1"
	d="M66.54 125.00v-24.00"/>
<path class="stroke" stroke-width="3"
	d="M62.04 125.00v-24.00"/>
<use x="70.54" y="183.00" xlink:href="#rdots"/>
<path class="stroke" stroke-width="1"
	d="M66.54 183.00v-58.00"/>
<path class="stroke" stroke-width="3"
	d="M62.04 183.00v-58.00"/>
<path class="stroke" stroke-width="1"
	d="M180.04 125.00v-24.00"/>
<path class="stroke" stroke-width="1"
	d="M180.04 183.00v-58.00"/>
<path class="stroke" stroke-width="1"
	d="M288.54 125.00v-24.00"/>
<path class="stroke" stroke-width="1"
	d="M288.54 183.00v-58.00"/>
<path class="stroke" stroke-width="1"
	d="M396.94 125.00v-24.00"/>
<path class="stroke" stroke-width="1"
	d="M396.94 183.00v-58.00"/>
<path class="stroke" stroke-width="1"
	d="M484.54 125.00v-24.00"/>
<path class="stroke" stroke-width="1"
	d="M484.54 183.00v-58.00"/>
<path class="stroke" stroke-width="1"
	d="M562.54 125.00v-24.00"/>
<path class="stroke" stroke-width="1"
	d="M562.54 183.00v-58.00"/>
<path class="stroke" stroke-width="1"
	d="M650.04 125.00v-24.00"/>
<path class="stroke" stroke-width="1"
	d="M650.04 183.00v-58.00"/>
<path class="stroke" stroke-width="1"
	d="M760.04 125.00v-24.00"/>
<path class="stroke" stroke-width="1"
	d="M760.04 183.00v-58.00"/>
<path class="stroke" stroke-width="3"
	d="M860.54 125.00v-24.00"/>
<path class="stroke" stroke-width="1"
	d="M856.04 125.00v-24.00"/>
<use x="852.04" y="125.00" xlink:href="#rdots"/>
<path class="stroke" stroke-width="3"
	d="M860.54 183.00v-58.00"/>
<path class="stroke" stroke-width="1"
	d="M856.04 183.00v-58.00"/>
<use x="852.04" y="183.00" xlink:href="#rdots"/>
<path d="m11.54 125.00
	h850.50
	M11.54 119.00
	h850.50
	M11.54 113.00
	h850.50
	M11.54 107.00
	h850.50
	M11.54 101.00
	h850.50
	" class="stroke"/>
<path d="m11.54 183.00
	h850.50
	M11.54 177.00
	h850.50
	M11.54 171.00
	h850.50
	M11.54 165.00
	h850.50
	M11.54 159.00
	h850.50
	" class="stroke"/>
</g>
<g stroke-width="0.70" transform="scale(0.867)" font-family="Times" font-size="13.00">
<text x="764.04" y="86.40">1</text>
<path class="stroke"
	d="M760.04 75.00m0 20v-20h94.00v20"/>
<defs>
<path id="utclef" class="fill" d="m-50 -90
	c-72 -41 -72 -158 52 -188
	150 -10 220 188 90 256
	-114 52 -275 0 -293 -136
	-15 -181 93 -229 220 -334
	88 -87 79 -133 62 -210
	-51 33 -94 105 -89 186
	17 267 36 374 49 574
	6 96 -19 134 -77 135
	-80 1 -126 -93 -61 -133
	85 -41 133 101 31 105
	23 17 92 37 90 -92
	-10 -223 -39 -342 -50 -617
	0 -90 0 -162 96 -232
	56 72 63 230 22 289
	-74 106 -257 168 -255 316
	9 153 148 185 252 133
	86 -65 29 -192 -80 -176
	-71 12 -105 67 -59 124"/>
<use id="tclef" transform="translate(0,6) scale(0.045)"
	xlink:href="#utclef"/>
</defs>
<use x="23.54" y="119.00" xlink:href="#tclef"/>
<g font-family="serif" font-size="16" font-weight="bold" font-style="normal"
	transform="translate(42.04,124.50) scale(1.2,1)">
	<text text-anchor="middle">8</text>
	<text y="-12" text-anchor="middle">3</text>
</g>
<path class="fill"
	d="M80.84 141.20l83.10 0.00v-3.20l-83.10 -0.00"/>
<path class="fill"
	d="M81.14 136.20l82.40 0.00v-3.20l-82.40 -0.00"/>
<use x="84.64" y="110.00" xlink:href="#hd"/>
<path d="M81.14 110.00v30.20" class="stroke"/>
<use x="101.14" y="113.00" xlink:href="#hd"/>
<path d="M97.64 113.00v27.20" class="stroke"/>
<use x="117.64" y="110.00" xlink:href="#hd"/>
<path d="M114.14 110.00v30.20" class="stroke"/>
<use x="134.14" y="104.00" xlink:href="#hd"/>
<path d="M130.64 104.00v36.20" class="stroke"/>
<use x="150.54" y="119.00" xlink:href="#hd"/>
<path d="M147.04 119.00v21.20" class="stroke"/>
<use x="167.04" y="110.00" xlink:href="#hd"/>
<path d="M163.54 110.00v30.20" class="stroke"/>
<path class="fill"
	d="M189.24 141.20l83.10 0.00v-3.20l-83.10 -0.00"/>
<path class="fill"
	d="M189.64 136.20l82.40 0.00v-3.20l-82.40 -0.00"/>
<use x="193.14" y="110.00" xlink:href="#hd"/>
<path d="M189.64 110.00v30.20" class="stroke"/>
<use x="209.64" y="119.00" xlink:href="#hd"/>
<path d="M206.14 119.00v21.20" class="stroke"/>
<use x="226.04" y="110.00" xlink:href="#hd"/>
<path d="M222.54 110.00v30.20" class="stroke"/>
<use x="242.54" y="104.00" xlink:href="#hd"/>
<path d="M239.04 104.00v36.20" class="stroke"/>
<use x="259.04" y="119.00" xlink:href="#hd"/>
<path d="M255.54 119.00v21.20" class="stroke"/>
<use x="275.54" y="110.00" xlink:href="#hd"/>
<path d="M272.04 110.00v30.20" class="stroke"/>
<path class="fill"
	d="M297.74 133.00l83.10 0.00v-3.20l-83.10 -0.00"/>
<path class="fill"
	d="M298.14 128.00l82.40 0.00v-3.20l-82.40 -0.00"/>
<use x="301.64" y="107.00" xlink:href="#hd"/>
<path d="M298.14 107.00v24.90" class="stroke"/>
<use x="318.04" y="104.00" xlink:href="#hd"/>
<path d="M314.54 104.00v27.90" class="stroke"/>
<use x="334.54" y="101.00" xlink:href="#hd"/>
<path d="M331.04 101.00v30.90" class="stroke"/>
<use x="351.04" y="107.00" xlink:href="#hd"/>
<path d="M347.54 107.00v24.90" class="stroke"/>
<use x="367.54" y="110.00" xlink:href="#hd"/>
<path d="M364.04 110.00v21.90" class="stroke"/>
<use x="384.04" y="113.00" xlink:href="#hd"/>
<path d="M380.54 113.00v18.90" class="stroke"/>
<path class="fill"
	d="M406.24 127.00l56.90 0.00v-3.20l-56.90 -0.00"/>
<path class="fill"
	d="M429.84 122.00l16.50 0.00v-3.20l-16.50 -0.00"/>
<use x="410.04" y="104.00" xlink:href="#hd"/>
<path d="M406.54 104.00v22.00" class="stroke"/>
<use x="410.04" y="110.00" xlink:href="#hd"/>
<use x="433.34" y="104.00" xlink:href="#hd"/>
<path d="M429.84 104.00v22.00" class="stroke"/>
<use x="433.34" y="110.00" xlink:href="#hd"/>
<use x="449.84" y="101.00" xlink:href="#hd"/>
<path d="M446.34 101.00v25.00" class="stroke"/>
<use x="449.84" y="107.00" xlink:href="#hd"/>
<use x="466.24" y="98.00" xlink:href="#hd"/>
<path d="M462.74 98.00v28.00" class="stroke"/>
<use x="466.24" y="104.00" xlink:href="#hd"/>
<path class="fill"
	d="M493.74 136.80l47.40 -3.20v-3.20l-47.40 3.20"/>
<use x="497.64" y="107.00" xlink:href="#hd"/>
<path d="M494.14 107.00v28.80" class="stroke"/>
<use x="520.84" y="116.00" xlink:href="#hd"/>
<path d="M517.34 116.00v18.20" class="stroke"/>
<use x="544.24" y="101.00" xlink:href="#hd"/>
<defs>
<path id="usharp" class="fill" d="
	m136 -702
	v890
	h32
	v-890
	m128 840
	h32
	v-888
	h-32
	m-232 286
	v116
	l338 -96
	v-116
	m-338 442
	v116
	l338 -98
	v-114"/>
<use id="sh0" transform="translate(-4,5) scale(0.018)"
	xlink:href="#usharp"/>
</defs>
<use x="535.24" y="101.00" xlink:href="#sh0"/>
<path d="M540.74 101.00v31.60" class="stroke"/>
<path class="fill"
	d="M571.74 132.10l56.90 -7.10v-3.20l-56.90 7.10"/>
<path class="fill"
	d="M595.34 124.20l16.50 -2.10v-3.20l-16.50 2.10"/>
<use x="575.54" y="107.00" xlink:href="#hd"/>
<path d="M572.04 107.00v24.10" class="stroke"/>
<use x="598.84" y="107.00" xlink:href="#hd"/>
<path d="M595.34 107.00v21.20" class="stroke"/>
<use x="615.34" y="98.00" xlink:href="#hd"/>
<path d="M611.84 98.00v28.10" class="stroke"/>
<defs>
<path id="hl" class="stroke" d="m-6 0h12"/>
</defs>
<use x="631.84" y="95.00" xlink:href="#hl"/>
<use x="631.84" y="92.00" xlink:href="#hd"/>
<path d="M628.34 92.00v32.10" class="stroke"/>
<path class="fill"
	d="M666.24 81.80l84.60 8.00v3.20l-84.60 -8.00"/>
<path class="fill"
	d="M666.64 86.80l83.90 8.00v3.20l-83.90 -8.00"/>
<use x="663.14" y="104.00" xlink:href="#hd"/>
<path d="M666.64 104.00v-21.20" class="stroke"/>
<use x="679.54" y="110.00" xlink:href="#hd"/>
<path d="M683.04 110.00v-25.60" class="stroke"/>
<use x="696.04" y="113.00" xlink:href="#hd"/>
<path d="M699.54 113.00v-27.10" class="stroke"/>
<use x="712.54" y="119.00" xlink:href="#hd"/>
<path d="M716.04 119.00v-31.50" class="stroke"/>
<use x="729.04" y="116.00" xlink:href="#hd"/>
<path d="M732.54 116.00v-26.90" class="stroke"/>
<use x="747.04" y="122.00" xlink:href="#hd"/>
<use x="738.04" y="122.00" xlink:href="#sh0"/>
<path d="M750.54 122.00v-31.20" class="stroke"/>
<use x="773.14" y="98.00" xlink:href="#hd"/>
<path d="M769.64 98.00v40.00" class="stroke"/>
<use x="773.14" y="119.00" xlink:href="#hd"/>
<use x="773.14" y="113.00" xlink:href="#hd"/>
<use x="773.14" y="107.00" xlink:href="#hd"/>
<defs>
<path id="r8e" class="fill" d="m 0 0
	c-1.5 1.5 -2.4 2 -3.6 2
	2.4 -2.8 -2.8 -4 -2.8 -1.2
	c0 2.7 4.3 2.4 5.9 0.6"/>
<g id="r8">
	<path d="m3.3 -4l-3.4 9.6" class="stroke"/>
	<use x="3.4" y="-4" xlink:href="#r8e"/>
</g>
</defs>
<use x="830.84" y="113.00" xlink:href="#r8"/>
<defs>
<path id="ubclef" class="fill" d="m-200 -87
	c124 -35 222 -78 254 -236
	43 -228 -167 -246 -192 -103
	59 -80 157 22 92 78
	-62 47 -115 -22 -106 -88
	21 -141 270 -136 274 52
	-1 175 -106 264 -322 297
	m357 -250
	c0 -36 51 -34 51 0
	0 37 -51 36 -51 0
	m-2 -129
	c0 -36 51 -34 51 0
	0 38 -51 37 -51 0"/>
<use id="bclef" transform="translate(0,18) scale(0.045)"
	xlink:href="#ubclef"/>
</defs>
<use x="23.54" y="165.00" xlink:href="#bclef"/>
<g font-family="serif" font-size="16" font-weight="bold" font-style="normal"
	transform="translate(42.04,182.50) scale(1.2,1)">
	<text text-anchor="middle">8</text>
	<text y="-12" text-anchor="middle">3</text>
</g>
<use x="84.64" y="168.00" xlink:href="#hd"/>
<path d="M81.14 168.00v25.00" class="stroke"/>
<use x="84.64" y="174.00" xlink:href="#hd"/>
<use x="150.54" y="171.00" xlink:href="#r8"/>
<use x="193.14" y="162.00" xlink:href="#hd"/>
<path d="M189.64 162.00v25.00" class="stroke"/>
<use x="193.14" y="168.00" xlink:href="#hd"/>
<use x="259.04" y="171.00" xlink:href="#r8"/>
<use x="301.64" y="162.00" xlink:href="#hd"/>
<path d="M298.14 162.00v34.00" class="stroke"/>
<use x="301.64" y="177.00" xlink:href="#hd"/>
<use x="367.54" y="183.00" xlink:href="#hd"/>
<path d="M371.04 183.00v-21.00" class="stroke"/>
<path class="fill"
	d="M371.04 162.00c0.6 5.6 9.6 9 5.6 18.4
	1.6 -6 -1.3 -11.6 -5.6 -12.8
"/>
<use x="410.04" y="174.00" xlink:href="#hd"/>
<path d="M413.54 174.00v-21.00" class="stroke"/>
<use x="466.24" y="171.00" xlink:href="#r8"/>
<use x="497.64" y="174.00" xlink:href="#hd"/>
<path d="M501.14 174.00v-21.00" class="stroke"/>
<use x="544.24" y="171.00" xlink:href="#r8"/>
<use x="575.54" y="162.00" xlink:href="#hd"/>
<path d="M572.04 162.00v34.00" class="stroke"/>
<use x="575.54" y="177.00" xlink:href="#hd"/>
<use x="631.84" y="171.00" xlink:href="#r8"/>
<path class="fill"
	d="M666.24 147.70l66.60 8.20v3.20l-66.60 -8.20"/>
<use x="663.14" y="174.00" xlink:href="#hd"/>
<path d="M666.64 174.00v-25.30" class="stroke"/>
<use x="696.04" y="171.00" xlink:href="#hd"/>
<path d="M699.54 171.00v-18.20" class="stroke"/>
<use x="729.04" y="189.00" xlink:href="#hl"/>
<use x="729.04" y="192.00" xlink:href="#hd"/>
<path d="M732.54 192.00v-35.10" class="stroke"/>
<path class="fill"
	d="M769.24 202.20l74.90 0.00v-3.20l-74.90 -0.00"/>
<path class="fill"
	d="M792.84 197.20l51.00 0.00v-3.20l-51.00 -0.00"/>
<use x="773.14" y="183.00" xlink:href="#hd"/>
<path d="M769.64 183.00v18.20" class="stroke"/>
<use x="796.34" y="162.00" xlink:href="#hd"/>
<path d="M792.84 162.00v39.20" class="stroke"/>
<use x="814.34" y="165.00" xlink:href="#hd"/>
<defs>
<path id="unat" class="fill" d="
	m96 -750
	h-32
	v716
	l32 -8
	182 -54
	v282
	h32
	v-706
	l-34 10
	-180 50
	v-290
	m0 592
	v-190
	l182 -52
	v188"/>
<use id="nt0" transform="translate(-3,5) scale(0.018)"
	xlink:href="#unat"/>
</defs>
<use x="805.34" y="165.00" xlink:href="#nt0"/>
<path d="M810.84 165.00v36.20" class="stroke"/>
<use x="830.84" y="168.00" xlink:href="#hd"/>
<path d="M827.34 168.00v33.20" class="stroke"/>
<use x="847.34" y="171.00" xlink:href="#hd"/>
<path d="M843.84 171.00v30.20" class="stroke"/>
<defs>
<path id="turn" class="fill" d="
	m5.2 -8
	c1.4 0.5 0.9 4.8 -2.2 2.8
	l-4.8 -3.5
	c-3 -2 -5.8 1.8 -3.6 4.4
	1 1.1 2 0.8 2.1 -0.1
	0.1 -0.9 -0.7 -1.2 -1.9 -0.6
	-1.4 -0.5 -0.9 -4.8 2.2 -2.8
	l4.8 3.5
	c3 2 5.8 -1.8 3.6 -4.4
	-1 -1.1 -2 -0.8 -2.1 0.1
	-0.1 0.9 0.7 1.2 1.9 0.6"/>
</defs>
<use x="520.84" y="99.00" xlink:href="#turn"/>
</g>
<g stroke-width="0.70" transform="scale(0.867)" font-family="Times" font-size="13.00">
<path class="stroke" stroke-width="1"
	d="M11.54 316.00v-82.00"/>
<path class="fill"
	d="M6.54 231.00
	c10.5 1 12 -4.5 12 -3.5c0 1 -3.5 5.5 -8.5 5.5
	v84.00
	c5 0 8.5 4.5 8.5 5.5c0 1 -1.5 -4.5 -12 -3.5"/>
<use x="141.84" y="258.00" xlink:href="#rdots"/>
<path class="stroke" stroke-width="1"
	d="M137.84 258.00v-24.00"/>
<path class="stroke" stroke-width="3"
	d="M133.34 258.00v-24.00"/>
<use x="141.84" y="316.00" xlink:href="#rdots"/>
<path class="stroke" stroke-width="1"
	d="M137.84 316.00v-58.00"/>
<path class="stroke" stroke-width="3"
	d="M133.34 316.00v-58.00"/>
<path class="stroke" stroke-width="1"
	d="M217.84 258.00v-24.00"/>
<path class="stroke" stroke-width="1"
	d="M217.84 316.00v-58.00"/>
<path class="stroke" stroke-width="1"
	d="M314.24 258.00v-24.00"/>
<path class="stroke" stroke-width="1"
	d="M314.24 316.00v-58.00"/>
<path class="stroke" stroke-width="1"
	d="M410.54 258.00v-24.00"/>
<path class="stroke" stroke-width="1"
	d="M410.54 316.00v-58.00"/>
<path class="stroke" stroke-width="1"
	d="M496.04 258.00v-24.00"/>
<path class="stroke" stroke-width="1"
	d="M496.04 316.00v-58.00"/>
<path class="stroke" stroke-width="1"
	d="M592.44 258.00v-24.00"/>
<path class="stroke" stroke-width="1"
	d="M592.44 316.00v-58.00"/>
<path class="stroke" stroke-width="1"
	d="M688.74 258.00v-24.00"/>
<path class="stroke" stroke-width="1"
	d="M688.74 316.00v-58.00"/>
<path class="stroke" stroke-width="1"
	d="M785.04 258.00v-24.00"/>
<path class="stroke" stroke-width="1"
	d="M785.04 316.00v-58.00"/>
<path class="stroke" stroke-width="3"
	d="M860.54 258.00v-24.00"/>
<path class="stroke" stroke-width="1"
	d="M856.04 258.00v-24.00"/>
<use x="852.04" y="258.00" xlink:href="#rdots"/>
<path class="stroke" stroke-width="3"
	d="M860.54 316.00v-58.00"/>
<path class="stroke" stroke-width="1"
	d="M856.04 316.00v-58.00"/>
<use x="852.04" y="316.00" xlink:href="#rdots"/>
<path d="m11.54 258.00
	h850.50
	M11.54 252.00
	h850.50
	M11.54 246.00
	h850.50
	M11.54 240.00
	h850.50
	M11.54 234.00
	h850.50
	" class="stroke"/>
<path d="m11.54 316.00
	h850.50
	M11.54 310.00
	h850.50
	M11.54 304.00
	h850.50
	M11.54 298.00
	h850.50
	M11.54 292.00
	h850.50
	" class="stroke"/>
<path class="fill"
	d="M164.34 223.80c5.91 -3.45 31.64 -0.57 37.55 4.20
	v-0.24c-7.04 -6.53 -30.51 -9.41 -37.55 -3.96"/>
<text x="47.54" y="219.40">2</text>
<path class="stroke"
	d="M43.54 208.00m0 20v-20h87.30v20"/>
<use x="23.54" y="252.00" xlink:href="#tclef"/>
<use x="56.04" y="231.00" xlink:href="#hd"/>
<path d="M52.54 231.00v40.00" class="stroke"/>
<use x="56.04" y="252.00" xlink:href="#hd"/>
<use x="56.04" y="246.00" xlink:href="#hd"/>
<use x="56.04" y="240.00" xlink:href="#hd"/>
<use x="108.04" y="246.00" xlink:href="#r8"/>
<path class="fill"
	d="M157.44 251.60l41.20 7.70v-3.20l-41.20 -7.70"/>
<use x="161.34" y="228.00" xlink:href="#hl"/>
<use x="161.34" y="228.00" xlink:href="#hd"/>
<path d="M157.84 228.00v22.70" class="stroke"/>
<use x="182.14" y="234.00" xlink:href="#hd"/>
<use x="173.14" y="234.00" xlink:href="#sh0"/>
<path d="M178.64 234.00v20.50" class="stroke"/>
<use x="201.84" y="240.00" xlink:href="#hd"/>
<path d="M198.34 240.00v18.20" class="stroke"/>
<path class="fill"
	d="M226.54 260.00l72.00 0.00v-3.20l-72.00 -0.00"/>
<path class="fill"
	d="M226.84 255.00l71.30 0.00v-3.20l-71.30 -0.00"/>
<use x="230.34" y="231.00" xlink:href="#hd"/>
<path d="M226.84 231.00v28.00" class="stroke"/>
<use x="244.64" y="240.00" xlink:href="#hd"/>
<path d="M241.14 240.00v19.00" class="stroke"/>
<use x="258.94" y="231.00" xlink:href="#hd"/>
<path d="M255.44 231.00v28.00" class="stroke"/>
<use x="273.14" y="228.00" xlink:href="#hl"/>
<use x="273.14" y="225.00" xlink:href="#hd"/>
<path d="M269.64 225.00v34.00" class="stroke"/>
<use x="287.44" y="231.00" xlink:href="#hd"/>
<path d="M283.94 231.00v28.00" class="stroke"/>
<use x="301.74" y="240.00" xlink:href="#hd"/>
<path d="M298.24 240.00v19.00" class="stroke"/>
<path class="fill"
	d="M322.84 261.00l57.70 0.00v-3.20l-57.70 -0.00"/>
<use x="326.74" y="237.00" xlink:href="#hd"/>
<path d="M323.24 237.00v23.00" class="stroke"/>
<use x="326.74" y="243.00" xlink:href="#hd"/>
<use x="355.24" y="237.00" xlink:href="#hd"/>
<path d="M351.74 237.00v23.00" class="stroke"/>
<use x="355.24" y="243.00" xlink:href="#hd"/>
<use x="383.74" y="237.00" xlink:href="#hd"/>
<path d="M380.24 237.00v23.00" class="stroke"/>
<use x="383.74" y="243.00" xlink:href="#hd"/>
<path class="fill"
	d="M419.14 268.20l57.70 0.00v-3.20l-57.70 -0.00"/>
<path class="fill"
	d="M419.54 263.20l42.80 0.00v-3.20l-42.80 -0.00"/>
<use x="423.04" y="237.00" xlink:href="#hd"/>
<path d="M419.54 237.00v30.20" class="stroke"/>
<use x="437.24" y="243.00" xlink:href="#hd"/>
<path d="M433.74 243.00v24.20" class="stroke"/>
<use x="451.54" y="246.00" xlink:href="#hd"/>
<path d="M448.04 246.00v21.20" class="stroke"/>
<use x="465.84" y="240.00" xlink:href="#hd"/>
<path d="M462.34 240.00v27.20" class="stroke"/>
<use x="480.04" y="231.00" xlink:href="#hd"/>
<path d="M476.54 231.00v36.20" class="stroke"/>
<path class="fill"
	d="M504.74 253.70l57.70 8.50v-3.20l-57.70 -8.50"/>
<use x="508.54" y="231.00" xlink:href="#hd"/>
<path d="M505.04 231.00v21.80" class="stroke"/>
<use x="537.14" y="237.00" xlink:href="#hd"/>
<path d="M533.64 237.00v20.00" class="stroke"/>
<use x="565.64" y="243.00" xlink:href="#hd"/>
<path d="M562.14 243.00v18.20" class="stroke"/>
<path class="fill"
	d="M601.04 263.50l72.00 -6.20v-3.20l-72.00 6.20"/>
<path class="fill"
	d="M601.44 258.40l71.30 -6.20v-3.20l-71.30 6.20"/>
<use x="604.94" y="237.00" xlink:href="#hd"/>
<path d="M601.44 237.00v25.40" class="stroke"/>
<use x="619.14" y="240.00" xlink:href="#hd"/>
<path d="M615.64 240.00v21.20" class="stroke"/>
<use x="633.44" y="237.00" xlink:href="#hd"/>
<path d="M629.94 237.00v23.00" class="stroke"/>
<use x="647.74" y="231.00" xlink:href="#hd"/>
<path d="M644.24 231.00v27.70" class="stroke"/>
<use x="661.94" y="228.00" xlink:href="#hl"/>
<use x="661.94" y="222.00" xlink:href="#hl"/>
<use x="661.94" y="222.00" xlink:href="#hd"/>
<path d="M658.44 222.00v35.50" class="stroke"/>
<use x="676.24" y="231.00" xlink:href="#hd"/>
<path d="M672.74 231.00v25.30" class="stroke"/>
<path class="fill"
	d="M697.44 266.00l72.00 0.00v-3.20l-72.00 -0.00"/>
<path class="fill"
	d="M697.74 261.00l71.30 0.00v-3.20l-71.30 -0.00"/>
<use x="701.24" y="240.00" xlink:href="#hd"/>
<path d="M697.74 240.00v24.90" class="stroke"/>
<use x="715.54" y="234.00" xlink:href="#hd"/>
<path d="M712.04 234.00v30.90" class="stroke"/>
<use x="729.74" y="228.00" xlink:href="#hl"/>
<use x="729.74" y="228.00" xlink:href="#hd"/>
<path d="M726.24 228.00v36.90" class="stroke"/>
<use x="744.04" y="234.00" xlink:href="#hd"/>
<path d="M740.54 234.00v30.90" class="stroke"/>
<use x="758.34" y="240.00" xlink:href="#hd"/>
<path d="M754.84 240.00v24.90" class="stroke"/>
<use x="772.54" y="246.00" xlink:href="#hd"/>
<path d="M769.04 246.00v18.90" class="stroke"/>
<path class="fill"
	d="M800.74 223.70l20.40 6.90v3.20l-20.40 -6.90"/>
<use x="797.54" y="243.00" xlink:href="#hd"/>
<path d="M801.04 243.00v-18.20" class="stroke"/>
<use x="817.34" y="264.00" xlink:href="#hl"/>
<use x="817.34" y="264.00" xlink:href="#hd"/>
<path d="M820.84 264.00v-32.50" class="stroke"/>
<use x="837.04" y="246.00" xlink:href="#r8"/>
<use x="23.54" y="298.00" xlink:href="#bclef"/>
<path class="fill"
	d="M52.24 335.20l66.90 -4.90v-3.20l-66.90 4.90"/>
<path class="fill"
	d="M72.24 328.80l46.50 -3.40v-3.20l-46.50 3.40"/>
<use x="56.04" y="316.00" xlink:href="#hd"/>
<path d="M52.54 316.00v18.20" class="stroke"/>
<use x="75.74" y="289.00" xlink:href="#hd"/>
<path d="M72.24 289.00v43.80" class="stroke"/>
<use x="90.04" y="295.00" xlink:href="#hd"/>
<path d="M86.54 295.00v36.70" class="stroke"/>
<use x="108.04" y="298.00" xlink:href="#hd"/>
<use x="99.04" y="298.00" xlink:href="#sh0"/>
<path d="M104.54 298.00v32.40" class="stroke"/>
<use x="122.34" y="301.00" xlink:href="#hd"/>
<path d="M118.84 301.00v28.30" class="stroke"/>
<use x="161.34" y="298.00" xlink:href="#hd"/>
<use x="152.34" y="298.00" xlink:href="#sh0"/>
<path d="M157.84 298.00v25.00" class="stroke"/>
<use x="161.34" y="304.00" xlink:href="#hd"/>
<use x="201.84" y="298.00" xlink:href="#hd"/>
<path d="M198.34 298.00v28.00" class="stroke"/>
<path class="fill"
	d="M198.34 326.00c0.6 -5.6 9.6 -9 5.6 -18.4
	1.6 6 -1.3 11.6 -5.6 12.8
"/>
<use x="201.84" y="307.00" xlink:href="#hd"/>
<use x="230.34" y="310.00" xlink:href="#hd"/>
<path d="M233.84 310.00v-25.00" class="stroke"/>
<use x="230.34" y="304.00" xlink:href="#hd"/>
<use x="287.44" y="310.00" xlink:href="#hd"/>
<path d="M290.94 310.00v-25.00" class="stroke"/>
<path class="fill"
	d="M290.94 285.00c0.6 5.6 9.6 9 5.6 18.4
	1.6 -6 -1.3 -11.6 -5.6 -12.8
"/>
<use x="287.44" y="304.00" xlink:href="#hd"/>
<path class="fill"
	d="M322.84 329.20l72.00 0.00v-3.20l-72.00 -0.00"/>
<path class="fill"
	d="M323.24 324.20l71.30 0.00v-3.20l-71.30 -0.00"/>
<use x="326.74" y="307.00" xlink:href="#hd"/>
<path d="M323.24 307.00v21.20" class="stroke"/>
<use x="340.94" y="301.00" xlink:href="#hd"/>
<path d="M337.44 301.00v27.20" class="stroke"/>
<use x="355.24" y="295.00" xlink:href="#hd"/>
<path d="M351.74 295.00v33.20" class="stroke"/>
<use x="369.44" y="301.00" xlink:href="#hd"/>
<path d="M365.94 301.00v27.20" class="stroke"/>
<use x="383.74" y="286.00" xlink:href="#hl"/>
<use x="383.74" y="286.00" xlink:href="#hd"/>
<path d="M380.24 286.00v42.20" class="stroke"/>
<use x="398.04" y="307.00" xlink:href="#hd"/>
<path d="M394.54 307.00v21.20" class="stroke"/>
<path class="fill"
	d="M426.14 275.70l29.20 8.70v3.20l-29.20 -8.70"/>
<use x="423.04" y="295.00" xlink:href="#hd"/>
<path d="M426.54 295.00v-18.20" class="stroke"/>
<use x="451.54" y="316.00" xlink:href="#hd"/>
<path d="M455.04 316.00v-30.70" class="stroke"/>
<use x="480.04" y="304.00" xlink:href="#r8"/>
<path class="fill"
	d="M504.74 323.90l72.00 0.00v-3.20l-72.00 -0.00"/>
<path class="fill"
	d="M505.04 318.90l71.30 0.00v-3.20l-71.30 -0.00"/>
<use x="508.54" y="301.00" xlink:href="#hd"/>
<path d="M505.04 301.00v21.90" class="stroke"/>
<use x="508.54" y="307.00" xlink:href="#hd"/>
<use x="522.84" y="295.00" xlink:href="#hd"/>
<path d="M519.34 295.00v27.90" class="stroke"/>
<use x="537.14" y="301.00" xlink:href="#hd"/>
<path d="M533.64 301.00v21.90" class="stroke"/>
<use x="537.14" y="307.00" xlink:href="#hd"/>
<use x="551.34" y="295.00" xlink:href="#hd"/>
<path d="M547.84 295.00v27.90" class="stroke"/>
<use x="565.64" y="301.00" xlink:href="#hd"/>
<path d="M562.14 301.00v21.90" class="stroke"/>
<use x="565.64" y="307.00" xlink:href="#hd"/>
<use x="579.94" y="295.00" xlink:href="#hd"/>
<path d="M576.44 295.00v27.90" class="stroke"/>
<use x="604.94" y="295.00" xlink:href="#hd"/>
<path d="M601.44 295.00v31.00" class="stroke"/>
<use x="604.94" y="307.00" xlink:href="#hd"/>
<use x="661.94" y="301.00" xlink:href="#hd"/>
<path d="M658.44 301.00v25.00" class="stroke"/>
<path class="fill"
	d="M658.44 326.00c0.6 -5.6 9.6 -9 5.6 -18.4
	1.6 6 -1.3 11.6 -5.6 12.8
"/>
<use x="661.94" y="307.00" xlink:href="#hd"/>
<use x="701.24" y="298.00" xlink:href="#hd"/>
<path d="M697.74 298.00v21.00" class="stroke"/>
<use x="758.34" y="295.00" xlink:href="#hd"/>
<path d="M754.84 295.00v21.00" class="stroke"/>
<path class="fill"
	d="M754.84 316.00c0.6 -5.6 9.6 -9 5.6 -18.4
	1.6 6 -1.3 11.6 -5.6 12.8
"/>
<use x="797.54" y="307.00" xlink:href="#hd"/>
<path d="M801.04 307.00v-21.00" class="stroke"/>
<use x="837.04" y="322.00" xlink:href="#hl"/>
<use x="837.04" y="328.00" xlink:href="#hl"/>
<use x="837.04" y="328.00" xlink:href="#hd"/>
<path d="M840.54 328.00v-24.00" class="stroke"/>
<path class="fill"
	d="M840.54 304.00c0.6 5.6 9.6 9 5.6 18.4
	1.6 -6 -1.3 -11.6 -5.6 -12.8
"/>
</g>
</svg>
