<?xml version="1.0" standalone="no"?>
<!DOCTYPE svg PUBLIC "-//W3C//DTD SVG 1.1//EN"
	"http://www.w3.org/Graphics/SVG/1.1/DTD/svg11.dtd">
<svg xmlns="http://www.w3.org/2000/svg" version="1.1"
	xmlns:xlink="http://www.w3.org/1999/xlink"
	color="black"
	width="757.10px" height="293.80px">
<style type="text/css">
.fill {fill: currentColor}
.stroke {stroke: currentColor; fill: none}
text{white-space: pre}
</style>
<title>./K516f-10-2-8-3-9-6-11-8-2-12-12-9-6-3-6-9.abc (1425) tune 1</title>
<!-- Creator: abcm2ps-8.13.8 -->
<!-- CreationDate: Sep  7, 2017 11:20 -->
<!-- CommandLine: ./K516f-10-2-8-3-9-6-11-8-2-12-12-9-6-3-6-9.abc -O ./K516f-10-2-8-3-9-6-11-8-2-12-12-9-6-3-6-9.svg -g -->
<rect width="100%" height="100%" fill="white"/>
<g stroke-width="0.70" transform="scale(0.867)">
<!-- title: 10-2-8-3-9-6-11-8-2-12-12-9-6-3-6-9 -->
</g>
<g stroke-width="0.70" transform="scale(0.867)" font-family="Times" font-size="20.00">
<text x="436.84" y="22.00" text-anchor="middle">10-2-8-3-9-6-11-8-2-12-12-9-6-3-6-9</text>
</g>
<g stroke-width="0.70" transform="scale(0.867)" font-family="Times" font-size="20.00">
<!-- subtitle: $1K.516f::98:22:171:63:140:97:147:127:70:20:108:166:76:18:1:111::$0 -->
</g>
<g stroke-width="0.70" transform="scale(0.867)" font-family="Courier" font-size="8.00" font-weight="bold">
<text x="436.84" y="41.80" text-anchor="middle">K.516f::98:22:171:63:140:97:147:127:70:20:108:166:76:18:1:111::</text>
</g>
<g stroke-width="0.70" transform="scale(0.867)" font-family="Courier" font-size="8.00" font-weight="bold">
<!-- subtitle: $1Perm. No.: 142577825365622$0 -->
<text x="436.84" y="60.80" text-anchor="middle">Perm. No.: 142577825365622</text>
</g>
<g stroke-width="0.70" transform="scale(0.607)" font-family="Courier" font-size="8.00" font-weight="bold">
<defs>
<ellipse id="hd" rx="4.1" ry="2.9"
	transform="rotate(-20)" class="fill"/>
</defs>
<use x="103.06" y="121.29" xlink:href="#hd"/>
<path d="M106.56 121.29v-21.00" class="stroke"/>
<path class="fill"
	d="M106.56 100.29c0.6 5.6 9.6 9 5.6 18.4
	1.6 -6 -1.3 -11.6 -5.6 -12.8
"/>
</g>
<g stroke-width="0.70" transform="scale(0.867)" font-family="Times" font-size="15.00" font-weight="bold">
<text x="81.24" y="87.00">= 111</text>
<path class="stroke" stroke-width="1"
	d="M11.54 183.00v-82.00"/>
<path class="fill"
	d="M6.54 98.00
	c10.5 1 12 -4.5 12 -3.5c0 1 -3.5 5.5 -8.5 5.5
	v84.00
	c5 0 8.5 4.5 8.5 5.5c0 1 -1.5 -4.5 -12 -3.5"/>
<defs>
<g id="rdots" class="fill">
	<circle cx="0" cy="-9" r="1.2"/>
	<circle cx="0" cy="-15" r="1.2"/>
</g>
</defs>
<use x="70.54" y="125.00" xlink:href="#rdots"/>
<path class="stroke" stroke-width="1"
	d="M66.54 125.00v-24.00"/>
<path class="stroke" stroke-width="3"
	d="M62.04 125.00v-24.00"/>
<use x="70.54" y="183.00" xlink:href="#rdots"/>
<path class="stroke" stroke-width="1"
	d="M66.54 183.00v-58.00"/>
<path class="stroke" stroke-width="3"
	d="M62.04 183.00v-58.00"/>
<path class="stroke" stroke-width="1"
	d="M177.34 125.00v-24.00"/>
<path class="stroke" stroke-width="1"
	d="M177.34 183.00v-58.00"/>
<path class="stroke" stroke-width="1"
	d="M253.04 125.00v-24.00"/>
<path class="stroke" stroke-width="1"
	d="M253.04 183.00v-58.00"/>
<path class="stroke" stroke-width="1"
	d="M358.84 125.00v-24.00"/>
<path class="stroke" stroke-width="1"
	d="M358.84 183.00v-58.00"/>
<path class="stroke" stroke-width="1"
	d="M453.64 125.00v-24.00"/>
<path class="stroke" stroke-width="1"
	d="M453.64 183.00v-58.00"/>
<path class="stroke" stroke-width="1"
	d="M546.54 125.00v-24.00"/>
<path class="stroke" stroke-width="1"
	d="M546.54 183.00v-58.00"/>
<path class="stroke" stroke-width="1"
	d="M654.24 125.00v-24.00"/>
<path class="stroke" stroke-width="1"
	d="M654.24 183.00v-58.00"/>
<path class="stroke" stroke-width="1"
	d="M762.14 125.00v-24.00"/>
<path class="stroke" stroke-width="1"
	d="M762.14 183.00v-58.00"/>
<path class="stroke" stroke-width="3"
	d="M860.54 125.00v-24.00"/>
<path class="stroke" stroke-width="1"
	d="M856.04 125.00v-24.00"/>
<use x="852.04" y="125.00" xlink:href="#rdots"/>
<path class="stroke" stroke-width="3"
	d="M860.54 183.00v-58.00"/>
<path class="stroke" stroke-width="1"
	d="M856.04 183.00v-58.00"/>
<use x="852.04" y="183.00" xlink:href="#rdots"/>
<path d="m11.54 125.00
	h850.50
	M11.54 119.00
	h850.50
	M11.54 113.00
	h850.50
	M11.54 107.00
	h850.50
	M11.54 101.00
	h850.50
	" class="stroke"/>
<path d="m11.54 183.00
	h850.50
	M11.54 177.00
	h850.50
	M11.54 171.00
	h850.50
	M11.54 165.00
	h850.50
	M11.54 159.00
	h850.50
	" class="stroke"/>
</g>
<g stroke-width="0.70" transform="scale(0.867)" font-family="Times" font-size="13.00">
<text x="766.14" y="86.40">1</text>
<path class="stroke"
	d="M762.14 75.00m0 20v-20h91.90v20"/>
<defs>
<path id="utclef" class="fill" d="m-50 -90
	c-72 -41 -72 -158 52 -188
	150 -10 220 188 90 256
	-114 52 -275 0 -293 -136
	-15 -181 93 -229 220 -334
	88 -87 79 -133 62 -210
	-51 33 -94 105 -89 186
	17 267 36 374 49 574
	6 96 -19 134 -77 135
	-80 1 -126 -93 -61 -133
	85 -41 133 101 31 105
	23 17 92 37 90 -92
	-10 -223 -39 -342 -50 -617
	0 -90 0 -162 96 -232
	56 72 63 230 22 289
	-74 106 -257 168 -255 316
	9 153 148 185 252 133
	86 -65 29 -192 -80 -176
	-71 12 -105 67 -59 124"/>
<use id="tclef" transform="translate(0,6) scale(0.045)"
	xlink:href="#utclef"/>
</defs>
<use x="23.54" y="119.00" xlink:href="#tclef"/>
<g font-family="serif" font-size="16" font-weight="bold" font-style="normal"
	transform="translate(42.04,124.50) scale(1.2,1)">
	<text text-anchor="middle">8</text>
	<text y="-12" text-anchor="middle">3</text>
</g>
<path class="fill"
	d="M80.54 139.80l64.80 -3.30v-3.20l-64.80 3.30"/>
<use x="84.44" y="110.00" xlink:href="#hd"/>
<path d="M80.94 110.00v28.80" class="stroke"/>
<use x="116.54" y="119.00" xlink:href="#hd"/>
<path d="M113.04 119.00v18.20" class="stroke"/>
<use x="148.54" y="104.00" xlink:href="#hd"/>
<path d="M145.04 104.00v31.60" class="stroke"/>
<path class="fill"
	d="M186.44 131.70l45.70 6.50v-3.20l-45.70 -6.50"/>
<use x="190.24" y="104.00" xlink:href="#hd"/>
<path d="M186.74 104.00v26.80" class="stroke"/>
<use x="212.74" y="110.00" xlink:href="#hd"/>
<path d="M209.24 110.00v24.00" class="stroke"/>
<use x="235.24" y="119.00" xlink:href="#hd"/>
<path d="M231.74 119.00v18.20" class="stroke"/>
<path class="fill"
	d="M262.04 133.00l80.90 0.00v-3.20l-80.90 -0.00"/>
<path class="fill"
	d="M262.44 128.00l80.20 0.00v-3.20l-80.20 -0.00"/>
<use x="265.94" y="113.00" xlink:href="#hd"/>
<path d="M262.44 113.00v18.90" class="stroke"/>
<use x="281.94" y="110.00" xlink:href="#hd"/>
<path d="M278.44 110.00v21.90" class="stroke"/>
<use x="298.04" y="107.00" xlink:href="#hd"/>
<path d="M294.54 107.00v24.90" class="stroke"/>
<use x="314.04" y="104.00" xlink:href="#hd"/>
<path d="M310.54 104.00v27.90" class="stroke"/>
<use x="330.04" y="101.00" xlink:href="#hd"/>
<path d="M326.54 101.00v30.90" class="stroke"/>
<use x="346.14" y="107.00" xlink:href="#hd"/>
<path d="M342.64 107.00v24.90" class="stroke"/>
<path class="fill"
	d="M367.94 132.30l64.80 5.90v-3.20l-64.80 -5.90"/>
<path class="fill"
	d="M368.24 127.30l48.10 4.40v-3.20l-48.10 -4.40"/>
<use x="371.74" y="104.00" xlink:href="#hd"/>
<path d="M368.24 104.00v27.30" class="stroke"/>
<use x="387.74" y="110.00" xlink:href="#hd"/>
<path d="M384.24 110.00v22.80" class="stroke"/>
<use x="403.84" y="113.00" xlink:href="#hd"/>
<path d="M400.34 113.00v21.30" class="stroke"/>
<use x="419.84" y="110.00" xlink:href="#hd"/>
<path d="M416.34 110.00v25.70" class="stroke"/>
<use x="435.94" y="119.00" xlink:href="#hd"/>
<path d="M432.44 119.00v18.20" class="stroke"/>
<path class="fill"
	d="M468.34 141.10l57.20 -7.20v-3.20l-57.20 7.20"/>
<path class="fill"
	d="M491.14 133.20l16.00 -2.00v-3.20l-16.00 2.00"/>
<use x="472.14" y="116.00" xlink:href="#hd"/>
<path d="M468.64 116.00v24.00" class="stroke"/>
<use x="494.64" y="116.00" xlink:href="#hd"/>
<path d="M491.14 116.00v21.20" class="stroke"/>
<use x="510.74" y="107.00" xlink:href="#hd"/>
<path d="M507.24 107.00v28.20" class="stroke"/>
<use x="528.74" y="101.00" xlink:href="#hd"/>
<defs>
<path id="usharp" class="fill" d="
	m136 -702
	v890
	h32
	v-890
	m128 840
	h32
	v-888
	h-32
	m-232 286
	v116
	l338 -96
	v-116
	m-338 442
	v116
	l338 -98
	v-114"/>
<use id="sh0" transform="translate(-4,5) scale(0.018)"
	xlink:href="#usharp"/>
</defs>
<use x="519.74" y="101.00" xlink:href="#sh0"/>
<path d="M525.24 101.00v31.90" class="stroke"/>
<path class="fill"
	d="M555.54 131.40l82.80 9.90v-3.20l-82.80 -9.90"/>
<path class="fill"
	d="M555.84 126.40l82.20 9.80v-3.20l-82.20 -9.80"/>
<use x="559.34" y="98.00" xlink:href="#hd"/>
<path d="M555.84 98.00v32.40" class="stroke"/>
<use x="577.34" y="101.00" xlink:href="#hd"/>
<use x="568.34" y="101.00" xlink:href="#sh0"/>
<path d="M573.84 101.00v31.50" class="stroke"/>
<use x="593.44" y="98.00" xlink:href="#hd"/>
<path d="M589.94 98.00v36.50" class="stroke"/>
<use x="609.44" y="107.00" xlink:href="#hd"/>
<path d="M605.94 107.00v29.40" class="stroke"/>
<use x="625.54" y="113.00" xlink:href="#hd"/>
<path d="M622.04 113.00v25.30" class="stroke"/>
<use x="641.54" y="119.00" xlink:href="#hd"/>
<path d="M638.04 119.00v21.20" class="stroke"/>
<path class="fill"
	d="M663.34 127.00l82.90 0.00v-3.20l-82.90 -0.00"/>
<path class="fill"
	d="M663.64 122.00l82.20 0.00v-3.20l-82.20 -0.00"/>
<use x="667.14" y="104.00" xlink:href="#hd"/>
<path d="M663.64 104.00v22.00" class="stroke"/>
<defs>
<path id="hl" class="stroke" d="m-6 0h12"/>
</defs>
<use x="683.24" y="95.00" xlink:href="#hl"/>
<use x="683.24" y="89.00" xlink:href="#hl"/>
<use x="683.24" y="89.00" xlink:href="#hd"/>
<path d="M679.74 89.00v37.00" class="stroke"/>
<use x="699.34" y="95.00" xlink:href="#hl"/>
<use x="699.34" y="92.00" xlink:href="#hd"/>
<path d="M695.84 92.00v34.00" class="stroke"/>
<use x="715.34" y="98.00" xlink:href="#hd"/>
<path d="M711.84 98.00v28.00" class="stroke"/>
<use x="731.44" y="95.00" xlink:href="#hl"/>
<use x="731.44" y="95.00" xlink:href="#hd"/>
<path d="M727.94 95.00v31.00" class="stroke"/>
<use x="749.44" y="101.00" xlink:href="#hd"/>
<use x="740.44" y="101.00" xlink:href="#sh0"/>
<path d="M745.94 101.00v25.00" class="stroke"/>
<use x="775.04" y="98.00" xlink:href="#hd"/>
<path d="M771.54 98.00v40.00" class="stroke"/>
<use x="775.04" y="119.00" xlink:href="#hd"/>
<use x="775.04" y="113.00" xlink:href="#hd"/>
<use x="775.04" y="107.00" xlink:href="#hd"/>
<defs>
<path id="r8e" class="fill" d="m 0 0
	c-1.5 1.5 -2.4 2 -3.6 2
	2.4 -2.8 -2.8 -4 -2.8 -1.2
	c0 2.7 4.3 2.4 5.9 0.6"/>
<g id="r8">
	<path d="m3.3 -4l-3.4 9.6" class="stroke"/>
	<use x="3.4" y="-4" xlink:href="#r8e"/>
</g>
</defs>
<use x="831.54" y="113.00" xlink:href="#r8"/>
<defs>
<path id="ubclef" class="fill" d="m-200 -87
	c124 -35 222 -78 254 -236
	43 -228 -167 -246 -192 -103
	59 -80 157 22 92 78
	-62 47 -115 -22 -106 -88
	21 -141 270 -136 274 52
	-1 175 -106 264 -322 297
	m357 -250
	c0 -36 51 -34 51 0
	0 37 -51 36 -51 0
	m-2 -129
	c0 -36 51 -34 51 0
	0 38 -51 37 -51 0"/>
<use id="bclef" transform="translate(0,18) scale(0.045)"
	xlink:href="#ubclef"/>
</defs>
<use x="23.54" y="165.00" xlink:href="#bclef"/>
<g font-family="serif" font-size="16" font-weight="bold" font-style="normal"
	transform="translate(42.04,182.50) scale(1.2,1)">
	<text text-anchor="middle">8</text>
	<text y="-12" text-anchor="middle">3</text>
</g>
<path class="fill"
	d="M80.54 190.90l80.90 0.00v-3.20l-80.90 -0.00"/>
<path class="fill"
	d="M80.94 185.90l80.20 0.00v-3.20l-80.20 -0.00"/>
<use x="84.44" y="168.00" xlink:href="#hd"/>
<path d="M80.94 168.00v21.90" class="stroke"/>
<use x="84.44" y="174.00" xlink:href="#hd"/>
<use x="100.44" y="162.00" xlink:href="#hd"/>
<path d="M96.94 162.00v27.90" class="stroke"/>
<use x="116.54" y="168.00" xlink:href="#hd"/>
<path d="M113.04 168.00v21.90" class="stroke"/>
<use x="116.54" y="174.00" xlink:href="#hd"/>
<use x="132.54" y="162.00" xlink:href="#hd"/>
<path d="M129.04 162.00v27.90" class="stroke"/>
<use x="148.54" y="168.00" xlink:href="#hd"/>
<path d="M145.04 168.00v21.90" class="stroke"/>
<use x="148.54" y="174.00" xlink:href="#hd"/>
<use x="164.64" y="162.00" xlink:href="#hd"/>
<path d="M161.14 162.00v27.90" class="stroke"/>
<use x="190.24" y="174.00" xlink:href="#hd"/>
<path d="M193.74 174.00v-21.00" class="stroke"/>
<use x="235.24" y="171.00" xlink:href="#r8"/>
<use x="265.94" y="183.00" xlink:href="#hd"/>
<path d="M269.44 183.00v-40.00" class="stroke"/>
<use x="265.94" y="162.00" xlink:href="#hd"/>
<use x="330.04" y="162.00" xlink:href="#hd"/>
<path d="M326.54 162.00v34.00" class="stroke"/>
<path class="fill"
	d="M326.54 196.00c0.6 -5.6 9.6 -9 5.6 -18.4
	1.6 6 -1.3 11.6 -5.6 12.8
"/>
<use x="330.04" y="177.00" xlink:href="#hd"/>
<use x="371.74" y="174.00" xlink:href="#hd"/>
<path d="M375.24 174.00v-21.00" class="stroke"/>
<use x="435.94" y="171.00" xlink:href="#r8"/>
<path class="fill"
	d="M468.34 193.00l57.20 0.00v-3.20l-57.20 -0.00"/>
<use x="472.14" y="165.00" xlink:href="#hd"/>
<use x="463.14" y="165.00" xlink:href="#sh0"/>
<path d="M468.64 165.00v27.00" class="stroke"/>
<use x="472.14" y="174.00" xlink:href="#hd"/>
<use x="494.64" y="165.00" xlink:href="#hd"/>
<path d="M491.14 165.00v27.00" class="stroke"/>
<use x="494.64" y="174.00" xlink:href="#hd"/>
<use x="528.74" y="159.00" xlink:href="#hd"/>
<path d="M525.24 159.00v33.00" class="stroke"/>
<use x="528.74" y="174.00" xlink:href="#hd"/>
<use x="559.34" y="177.00" xlink:href="#hd"/>
<path d="M562.84 177.00v-25.00" class="stroke"/>
<use x="559.34" y="171.00" xlink:href="#hd"/>
<use x="625.54" y="162.00" xlink:href="#hd"/>
<path d="M622.04 162.00v34.00" class="stroke"/>
<path class="fill"
	d="M622.04 196.00c0.6 -5.6 9.6 -9 5.6 -18.4
	1.6 6 -1.3 11.6 -5.6 12.8
"/>
<use x="625.54" y="177.00" xlink:href="#hd"/>
<path class="fill"
	d="M670.34 147.70l64.90 8.20v3.20l-64.90 -8.20"/>
<use x="667.14" y="174.00" xlink:href="#hd"/>
<path d="M670.64 174.00v-25.20" class="stroke"/>
<use x="699.34" y="171.00" xlink:href="#hd"/>
<path d="M702.84 171.00v-18.20" class="stroke"/>
<use x="731.44" y="189.00" xlink:href="#hl"/>
<use x="731.44" y="192.00" xlink:href="#hd"/>
<path d="M734.94 192.00v-35.20" class="stroke"/>
<path class="fill"
	d="M771.14 202.20l73.30 0.00v-3.20l-73.30 -0.00"/>
<path class="fill"
	d="M794.04 197.20l50.10 0.00v-3.20l-50.10 -0.00"/>
<use x="775.04" y="183.00" xlink:href="#hd"/>
<path d="M771.54 183.00v18.20" class="stroke"/>
<use x="797.54" y="162.00" xlink:href="#hd"/>
<path d="M794.04 162.00v39.20" class="stroke"/>
<use x="815.54" y="165.00" xlink:href="#hd"/>
<defs>
<path id="unat" class="fill" d="
	m96 -750
	h-32
	v716
	l32 -8
	182 -54
	v282
	h32
	v-706
	l-34 10
	-180 50
	v-290
	m0 592
	v-190
	l182 -52
	v188"/>
<use id="nt0" transform="translate(-3,5) scale(0.018)"
	xlink:href="#unat"/>
</defs>
<use x="806.54" y="165.00" xlink:href="#nt0"/>
<path d="M812.04 165.00v36.20" class="stroke"/>
<use x="831.54" y="168.00" xlink:href="#hd"/>
<path d="M828.04 168.00v33.20" class="stroke"/>
<use x="847.64" y="171.00" xlink:href="#hd"/>
<path d="M844.14 171.00v30.20" class="stroke"/>
</g>
<g stroke-width="0.70" transform="scale(0.867)" font-family="Times" font-size="13.00">
<path class="stroke" stroke-width="1"
	d="M11.54 316.00v-82.00"/>
<path class="fill"
	d="M6.54 231.00
	c10.5 1 12 -4.5 12 -3.5c0 1 -3.5 5.5 -8.5 5.5
	v84.00
	c5 0 8.5 4.5 8.5 5.5c0 1 -1.5 -4.5 -12 -3.5"/>
<use x="150.24" y="258.00" xlink:href="#rdots"/>
<path class="stroke" stroke-width="1"
	d="M146.24 258.00v-24.00"/>
<path class="stroke" stroke-width="3"
	d="M141.74 258.00v-24.00"/>
<use x="150.24" y="316.00" xlink:href="#rdots"/>
<path class="stroke" stroke-width="1"
	d="M146.24 316.00v-58.00"/>
<path class="stroke" stroke-width="3"
	d="M141.74 316.00v-58.00"/>
<path class="stroke" stroke-width="1"
	d="M255.34 258.00v-24.00"/>
<path class="stroke" stroke-width="1"
	d="M255.34 316.00v-58.00"/>
<path class="stroke" stroke-width="1"
	d="M342.84 258.00v-24.00"/>
<path class="stroke" stroke-width="1"
	d="M342.84 316.00v-58.00"/>
<path class="stroke" stroke-width="1"
	d="M420.54 258.00v-24.00"/>
<path class="stroke" stroke-width="1"
	d="M420.54 316.00v-58.00"/>
<path class="stroke" stroke-width="1"
	d="M517.74 258.00v-24.00"/>
<path class="stroke" stroke-width="1"
	d="M517.74 316.00v-58.00"/>
<path class="stroke" stroke-width="1"
	d="M626.14 258.00v-24.00"/>
<path class="stroke" stroke-width="1"
	d="M626.14 316.00v-58.00"/>
<path class="stroke" stroke-width="1"
	d="M703.84 258.00v-24.00"/>
<path class="stroke" stroke-width="1"
	d="M703.84 316.00v-58.00"/>
<path class="stroke" stroke-width="1"
	d="M781.64 258.00v-24.00"/>
<path class="stroke" stroke-width="1"
	d="M781.64 316.00v-58.00"/>
<path class="stroke" stroke-width="3"
	d="M860.54 258.00v-24.00"/>
<path class="stroke" stroke-width="1"
	d="M856.04 258.00v-24.00"/>
<use x="852.04" y="258.00" xlink:href="#rdots"/>
<path class="stroke" stroke-width="3"
	d="M860.54 316.00v-58.00"/>
<path class="stroke" stroke-width="1"
	d="M856.04 316.00v-58.00"/>
<use x="852.04" y="316.00" xlink:href="#rdots"/>
<path d="m11.54 258.00
	h850.50
	M11.54 252.00
	h850.50
	M11.54 246.00
	h850.50
	M11.54 240.00
	h850.50
	M11.54 234.00
	h850.50
	" class="stroke"/>
<path d="m11.54 316.00
	h850.50
	M11.54 310.00
	h850.50
	M11.54 304.00
	h850.50
	M11.54 298.00
	h850.50
	M11.54 292.00
	h850.50
	" class="stroke"/>
<path class="fill"
	d="M355.94 229.00c6.64 -5.83 35.82 -13.12 42.46 -10.60
	v-0.24c-7.91 -4.27 -34.55 3.01 -42.46 10.84"/>
<path class="fill"
	d="M639.24 241.00c6.64 -5.36 35.82 -10.58 42.46 -7.60
	v-0.24c-7.91 -4.74 -34.55 0.48 -42.46 7.84"/>
<text x="47.54" y="219.40">2</text>
<path class="stroke"
	d="M43.54 208.00m0 20v-20h95.70v20"/>
<use x="23.54" y="252.00" xlink:href="#tclef"/>
<use x="56.64" y="231.00" xlink:href="#hd"/>
<path d="M53.14 231.00v40.00" class="stroke"/>
<use x="56.64" y="252.00" xlink:href="#hd"/>
<use x="56.64" y="246.00" xlink:href="#hd"/>
<use x="56.64" y="240.00" xlink:href="#hd"/>
<use x="114.34" y="246.00" xlink:href="#r8"/>
<path class="fill"
	d="M165.94 260.00l73.30 0.00v-3.20l-73.30 -0.00"/>
<path class="fill"
	d="M189.54 255.00l49.40 0.00v-3.20l-49.40 -0.00"/>
<use x="169.74" y="234.00" xlink:href="#hd"/>
<use x="160.74" y="234.00" xlink:href="#sh0"/>
<path d="M166.24 234.00v25.00" class="stroke"/>
<use x="193.04" y="228.00" xlink:href="#hl"/>
<use x="193.04" y="228.00" xlink:href="#hd"/>
<path d="M189.54 228.00v31.00" class="stroke"/>
<use x="209.54" y="234.00" xlink:href="#hd"/>
<path d="M206.04 234.00v25.00" class="stroke"/>
<use x="225.94" y="240.00" xlink:href="#hd"/>
<path d="M222.44 240.00v19.00" class="stroke"/>
<use x="242.44" y="234.00" xlink:href="#hd"/>
<path d="M238.94 234.00v25.00" class="stroke"/>
<path class="fill"
	d="M264.64 260.00l56.90 0.00v-3.20l-56.90 -0.00"/>
<path class="fill"
	d="M288.14 255.00l16.50 0.00v-3.20l-16.50 -0.00"/>
<use x="268.44" y="231.00" xlink:href="#hd"/>
<path d="M264.94 231.00v28.00" class="stroke"/>
<use x="291.64" y="228.00" xlink:href="#hl"/>
<use x="291.64" y="225.00" xlink:href="#hd"/>
<path d="M288.14 225.00v34.00" class="stroke"/>
<use x="308.14" y="228.00" xlink:href="#hl"/>
<use x="308.14" y="222.00" xlink:href="#hl"/>
<use x="308.14" y="219.00" xlink:href="#hd"/>
<path d="M304.64 219.00v40.00" class="stroke"/>
<use x="324.64" y="240.00" xlink:href="#hd"/>
<path d="M321.14 240.00v19.00" class="stroke"/>
<path class="fill"
	d="M352.04 256.30l47.10 -8.00v-3.20l-47.10 8.00"/>
<use x="355.94" y="237.00" xlink:href="#hd"/>
<path d="M352.44 237.00v18.20" class="stroke"/>
<use x="379.14" y="231.00" xlink:href="#hd"/>
<path d="M375.64 231.00v20.20" class="stroke"/>
<use x="402.34" y="228.00" xlink:href="#hl"/>
<use x="402.34" y="222.00" xlink:href="#hl"/>
<use x="402.34" y="222.00" xlink:href="#hd"/>
<path d="M398.84 222.00v25.30" class="stroke"/>
<path class="fill"
	d="M429.84 262.20l66.60 5.50v-3.20l-66.60 -5.50"/>
<path class="fill"
	d="M430.14 257.20l49.40 4.10v-3.20l-49.40 -4.10"/>
<use x="433.64" y="240.00" xlink:href="#hd"/>
<path d="M430.14 240.00v21.20" class="stroke"/>
<use x="450.14" y="228.00" xlink:href="#hl"/>
<use x="450.14" y="225.00" xlink:href="#hd"/>
<path d="M446.64 225.00v37.60" class="stroke"/>
<use x="466.54" y="231.00" xlink:href="#hd"/>
<path d="M463.04 231.00v32.90" class="stroke"/>
<use x="483.04" y="240.00" xlink:href="#hd"/>
<path d="M479.54 240.00v25.30" class="stroke"/>
<use x="499.54" y="246.00" xlink:href="#hd"/>
<path d="M496.04 246.00v20.60" class="stroke"/>
<path class="fill"
	d="M526.94 255.70l83.10 9.60v-3.20l-83.10 -9.60"/>
<path class="fill"
	d="M527.24 250.70l82.40 9.50v-3.20l-82.40 -9.50"/>
<use x="530.74" y="228.00" xlink:href="#hl"/>
<use x="530.74" y="222.00" xlink:href="#hl"/>
<use x="530.74" y="222.00" xlink:href="#hd"/>
<path d="M527.24 222.00v32.70" class="stroke"/>
<use x="547.34" y="228.00" xlink:href="#hl"/>
<use x="547.34" y="225.00" xlink:href="#hd"/>
<path d="M543.84 225.00v31.60" class="stroke"/>
<use x="563.84" y="228.00" xlink:href="#hl"/>
<use x="563.84" y="222.00" xlink:href="#hl"/>
<use x="563.84" y="222.00" xlink:href="#hd"/>
<path d="M560.34 222.00v36.50" class="stroke"/>
<use x="580.24" y="231.00" xlink:href="#hd"/>
<path d="M576.74 231.00v29.40" class="stroke"/>
<use x="596.74" y="237.00" xlink:href="#hd"/>
<path d="M593.24 237.00v25.30" class="stroke"/>
<use x="613.24" y="243.00" xlink:href="#hd"/>
<path d="M609.74 243.00v21.20" class="stroke"/>
<path class="fill"
	d="M635.34 271.20l47.10 -6.60v-3.20l-47.10 6.60"/>
<use x="639.24" y="252.00" xlink:href="#hd"/>
<path d="M635.74 252.00v18.20" class="stroke"/>
<use x="662.44" y="243.00" xlink:href="#hd"/>
<path d="M658.94 243.00v24.00" class="stroke"/>
<use x="685.64" y="237.00" xlink:href="#hd"/>
<path d="M682.14 237.00v26.70" class="stroke"/>
<path class="fill"
	d="M713.14 258.20l47.10 0.00v-3.20l-47.10 -0.00"/>
<use x="716.94" y="234.00" xlink:href="#hd"/>
<path d="M713.44 234.00v23.20" class="stroke"/>
<use x="740.14" y="240.00" xlink:href="#hd"/>
<path d="M736.64 240.00v17.20" class="stroke"/>
<use x="763.44" y="231.00" xlink:href="#hd"/>
<path d="M759.94 231.00v26.20" class="stroke"/>
<use x="794.64" y="243.00" xlink:href="#hd"/>
<path d="M791.14 243.00v21.00" class="stroke"/>
<use x="841.14" y="246.00" xlink:href="#r8"/>
<use x="23.54" y="298.00" xlink:href="#bclef"/>
<path class="fill"
	d="M52.74 335.20l74.90 -5.20v-3.20l-74.90 5.20"/>
<path class="fill"
	d="M76.34 328.60l50.90 -3.60v-3.20l-50.90 3.60"/>
<use x="56.64" y="316.00" xlink:href="#hd"/>
<path d="M53.14 316.00v18.20" class="stroke"/>
<use x="79.84" y="289.00" xlink:href="#hd"/>
<path d="M76.34 289.00v43.60" class="stroke"/>
<use x="96.34" y="295.00" xlink:href="#hd"/>
<path d="M92.84 295.00v36.40" class="stroke"/>
<use x="114.34" y="298.00" xlink:href="#hd"/>
<use x="105.34" y="298.00" xlink:href="#sh0"/>
<path d="M110.84 298.00v32.20" class="stroke"/>
<use x="130.74" y="301.00" xlink:href="#hd"/>
<path d="M127.24 301.00v28.00" class="stroke"/>
<use x="169.74" y="304.00" xlink:href="#hd"/>
<path d="M173.24 304.00v-21.00" class="stroke"/>
<use x="225.94" y="307.00" xlink:href="#hd"/>
<path d="M229.44 307.00v-21.00" class="stroke"/>
<path class="fill"
	d="M229.44 286.00c0.6 5.6 9.6 9 5.6 18.4
	1.6 -6 -1.3 -11.6 -5.6 -12.8
"/>
<use x="268.44" y="310.00" xlink:href="#hd"/>
<path d="M271.94 310.00v-21.00" class="stroke"/>
<use x="324.64" y="304.00" xlink:href="#r8"/>
<use x="355.94" y="295.00" xlink:href="#hd"/>
<path d="M352.44 295.00v31.00" class="stroke"/>
<use x="355.94" y="307.00" xlink:href="#hd"/>
<use x="402.34" y="301.00" xlink:href="#hd"/>
<path d="M398.84 301.00v25.00" class="stroke"/>
<path class="fill"
	d="M398.84 326.00c0.6 -5.6 9.6 -9 5.6 -18.4
	1.6 6 -1.3 11.6 -5.6 12.8
"/>
<use x="402.34" y="307.00" xlink:href="#hd"/>
<use x="433.64" y="289.00" xlink:href="#hd"/>
<path d="M430.14 289.00v25.00" class="stroke"/>
<use x="433.64" y="295.00" xlink:href="#hd"/>
<use x="499.54" y="304.00" xlink:href="#r8"/>
<use x="530.74" y="301.00" xlink:href="#hd"/>
<path d="M527.24 301.00v25.00" class="stroke"/>
<use x="530.74" y="307.00" xlink:href="#hd"/>
<use x="596.74" y="295.00" xlink:href="#hd"/>
<path d="M593.24 295.00v31.00" class="stroke"/>
<path class="fill"
	d="M593.24 326.00c0.6 -5.6 9.6 -9 5.6 -18.4
	1.6 6 -1.3 11.6 -5.6 12.8
"/>
<use x="596.74" y="307.00" xlink:href="#hd"/>
<use x="639.24" y="301.00" xlink:href="#hd"/>
<path d="M635.74 301.00v25.00" class="stroke"/>
<use x="639.24" y="307.00" xlink:href="#hd"/>
<use x="685.64" y="295.00" xlink:href="#hd"/>
<path d="M682.14 295.00v31.00" class="stroke"/>
<path class="fill"
	d="M682.14 326.00c0.6 -5.6 9.6 -9 5.6 -18.4
	1.6 6 -1.3 11.6 -5.6 12.8
"/>
<use x="685.64" y="307.00" xlink:href="#hd"/>
<path class="fill"
	d="M713.14 323.20l47.10 0.00v-3.20l-47.10 -0.00"/>
<use x="716.94" y="298.00" xlink:href="#hd"/>
<path d="M713.44 298.00v24.20" class="stroke"/>
<use x="740.14" y="304.00" xlink:href="#hd"/>
<path d="M736.64 304.00v18.20" class="stroke"/>
<use x="763.44" y="295.00" xlink:href="#hd"/>
<path d="M759.94 295.00v27.20" class="stroke"/>
<path class="fill"
	d="M797.84 287.70l47.10 10.30v3.20l-47.10 -10.30"/>
<use x="794.64" y="307.00" xlink:href="#hd"/>
<path d="M798.14 307.00v-18.20" class="stroke"/>
<use x="817.84" y="316.00" xlink:href="#hd"/>
<path d="M821.34 316.00v-22.10" class="stroke"/>
<use x="841.14" y="322.00" xlink:href="#hl"/>
<use x="841.14" y="328.00" xlink:href="#hl"/>
<use x="841.14" y="328.00" xlink:href="#hd"/>
<path d="M844.64 328.00v-29.10" class="stroke"/>
</g>
</svg>
