<?xml version="1.0" standalone="no"?>
<!DOCTYPE svg PUBLIC "-//W3C//DTD SVG 1.1//EN"
	"http://www.w3.org/Graphics/SVG/1.1/DTD/svg11.dtd">
<svg xmlns="http://www.w3.org/2000/svg" version="1.1"
	xmlns:xlink="http://www.w3.org/1999/xlink"
	color="black"
	width="757.10px" height="296.40px">
<style type="text/css">
.fill {fill: currentColor}
.stroke {stroke: currentColor; fill: none}
text{white-space: pre}
</style>
<title>./K516f-8-11-8-3-3-5-11-7-2-8-10-11-8-7-9-5.abc (2593) tune 1</title>
<!-- Creator: abcm2ps-8.13.8 -->
<!-- CreationDate: Sep  7, 2017 11:19 -->
<!-- CommandLine: ./K516f-8-11-8-3-3-5-11-7-2-8-10-11-8-7-9-5.abc -O ./K516f-8-11-8-3-3-5-11-7-2-8-10-11-8-7-9-5.svg -g -->
<rect width="100%" height="100%" fill="white"/>
<g stroke-width="0.70" transform="scale(0.867)">
<!-- title: 8-11-8-3-3-5-11-7-2-8-10-11-8-7-9-5 -->
</g>
<g stroke-width="0.70" transform="scale(0.867)" font-family="Times" font-size="20.00">
<text x="436.84" y="22.00" text-anchor="middle">8-11-8-3-3-5-11-7-2-8-10-11-8-7-9-5</text>
</g>
<g stroke-width="0.70" transform="scale(0.867)" font-family="Times" font-size="20.00">
<!-- subtitle: $1K.516f::152:87:171:63:146:2:147:91:70:155:19:164:43:162:72:170::$0 -->
</g>
<g stroke-width="0.70" transform="scale(0.867)" font-family="Courier" font-size="8.00" font-weight="bold">
<text x="436.84" y="41.80" text-anchor="middle">K.516f::152:87:171:63:146:2:147:91:70:155:19:164:43:162:72:170::</text>
</g>
<g stroke-width="0.70" transform="scale(0.867)" font-family="Courier" font-size="8.00" font-weight="bold">
<!-- subtitle: $1Perm. No.: 259316599915017$0 -->
<text x="436.84" y="60.80" text-anchor="middle">Perm. No.: 259316599915017</text>
</g>
<g stroke-width="0.70" transform="scale(0.607)" font-family="Courier" font-size="8.00" font-weight="bold">
<defs>
<ellipse id="hd" rx="4.1" ry="2.9"
	transform="rotate(-20)" class="fill"/>
</defs>
<use x="103.06" y="121.29" xlink:href="#hd"/>
<path d="M106.56 121.29v-21.00" class="stroke"/>
<path class="fill"
	d="M106.56 100.29c0.6 5.6 9.6 9 5.6 18.4
	1.6 -6 -1.3 -11.6 -5.6 -12.8
"/>
</g>
<g stroke-width="0.70" transform="scale(0.867)" font-family="Times" font-size="15.00" font-weight="bold">
<text x="81.24" y="87.00">= 111</text>
<path class="stroke" stroke-width="1"
	d="M11.54 183.00v-82.00"/>
<path class="fill"
	d="M6.54 98.00
	c10.5 1 12 -4.5 12 -3.5c0 1 -3.5 5.5 -8.5 5.5
	v84.00
	c5 0 8.5 4.5 8.5 5.5c0 1 -1.5 -4.5 -12 -3.5"/>
<defs>
<g id="rdots" class="fill">
	<circle cx="0" cy="-9" r="1.2"/>
	<circle cx="0" cy="-15" r="1.2"/>
</g>
</defs>
<use x="70.54" y="125.00" xlink:href="#rdots"/>
<path class="stroke" stroke-width="1"
	d="M66.54 125.00v-24.00"/>
<path class="stroke" stroke-width="3"
	d="M62.04 125.00v-24.00"/>
<use x="70.54" y="183.00" xlink:href="#rdots"/>
<path class="stroke" stroke-width="1"
	d="M66.54 183.00v-58.00"/>
<path class="stroke" stroke-width="3"
	d="M62.04 183.00v-58.00"/>
<path class="stroke" stroke-width="1"
	d="M172.14 125.00v-24.00"/>
<path class="stroke" stroke-width="1"
	d="M172.14 183.00v-58.00"/>
<path class="stroke" stroke-width="1"
	d="M251.44 125.00v-24.00"/>
<path class="stroke" stroke-width="1"
	d="M251.44 183.00v-58.00"/>
<path class="stroke" stroke-width="1"
	d="M362.04 125.00v-24.00"/>
<path class="stroke" stroke-width="1"
	d="M362.04 183.00v-58.00"/>
<path class="stroke" stroke-width="1"
	d="M461.14 125.00v-24.00"/>
<path class="stroke" stroke-width="1"
	d="M461.14 183.00v-58.00"/>
<path class="stroke" stroke-width="1"
	d="M545.74 125.00v-24.00"/>
<path class="stroke" stroke-width="1"
	d="M545.74 183.00v-58.00"/>
<path class="stroke" stroke-width="1"
	d="M646.64 125.00v-24.00"/>
<path class="stroke" stroke-width="1"
	d="M646.64 183.00v-58.00"/>
<path class="stroke" stroke-width="1"
	d="M758.34 125.00v-24.00"/>
<path class="stroke" stroke-width="1"
	d="M758.34 183.00v-58.00"/>
<path class="stroke" stroke-width="3"
	d="M860.54 125.00v-24.00"/>
<path class="stroke" stroke-width="1"
	d="M856.04 125.00v-24.00"/>
<use x="852.04" y="125.00" xlink:href="#rdots"/>
<path class="stroke" stroke-width="3"
	d="M860.54 183.00v-58.00"/>
<path class="stroke" stroke-width="1"
	d="M856.04 183.00v-58.00"/>
<use x="852.04" y="183.00" xlink:href="#rdots"/>
<path d="m11.54 125.00
	h850.50
	M11.54 119.00
	h850.50
	M11.54 113.00
	h850.50
	M11.54 107.00
	h850.50
	M11.54 101.00
	h850.50
	" class="stroke"/>
<path d="m11.54 183.00
	h850.50
	M11.54 177.00
	h850.50
	M11.54 171.00
	h850.50
	M11.54 165.00
	h850.50
	M11.54 159.00
	h850.50
	" class="stroke"/>
</g>
<g stroke-width="0.70" transform="scale(0.867)" font-family="Times" font-size="13.00">
<text x="762.34" y="86.40">1</text>
<path class="stroke"
	d="M758.34 75.00m0 20v-20h95.70v20"/>
<defs>
<path id="utclef" class="fill" d="m-50 -90
	c-72 -41 -72 -158 52 -188
	150 -10 220 188 90 256
	-114 52 -275 0 -293 -136
	-15 -181 93 -229 220 -334
	88 -87 79 -133 62 -210
	-51 33 -94 105 -89 186
	17 267 36 374 49 574
	6 96 -19 134 -77 135
	-80 1 -126 -93 -61 -133
	85 -41 133 101 31 105
	23 17 92 37 90 -92
	-10 -223 -39 -342 -50 -617
	0 -90 0 -162 96 -232
	56 72 63 230 22 289
	-74 106 -257 168 -255 316
	9 153 148 185 252 133
	86 -65 29 -192 -80 -176
	-71 12 -105 67 -59 124"/>
<use id="tclef" transform="translate(0,6) scale(0.045)"
	xlink:href="#utclef"/>
</defs>
<use x="23.54" y="119.00" xlink:href="#tclef"/>
<g font-family="serif" font-size="16" font-weight="bold" font-style="normal"
	transform="translate(42.04,124.50) scale(1.2,1)">
	<text text-anchor="middle">8</text>
	<text y="-12" text-anchor="middle">3</text>
</g>
<path class="fill"
	d="M81.04 123.00l74.80 9.20v-3.20l-74.80 -9.20"/>
<path class="fill"
	d="M105.04 121.00l50.40 6.20v-3.20l-50.40 -6.20"/>
<use x="84.84" y="98.00" xlink:href="#hd"/>
<path d="M81.34 98.00v24.00" class="stroke"/>
<use x="108.54" y="101.00" xlink:href="#hd"/>
<path d="M105.04 101.00v24.00" class="stroke"/>
<use x="125.34" y="104.00" xlink:href="#hd"/>
<path d="M121.84 104.00v23.00" class="stroke"/>
<use x="142.14" y="107.00" xlink:href="#hd"/>
<path d="M138.64 107.00v22.10" class="stroke"/>
<use x="158.94" y="110.00" xlink:href="#hd"/>
<path d="M155.44 110.00v21.20" class="stroke"/>
<path class="fill"
	d="M181.64 127.60l48.10 3.20v-3.20l-48.10 -3.20"/>
<use x="185.54" y="98.00" xlink:href="#hd"/>
<path d="M182.04 98.00v28.60" class="stroke"/>
<use x="209.24" y="110.00" xlink:href="#hd"/>
<path d="M205.74 110.00v18.20" class="stroke"/>
<use x="232.94" y="104.00" xlink:href="#hd"/>
<path d="M229.44 104.00v25.80" class="stroke"/>
<path class="fill"
	d="M260.94 133.00l84.70 0.00v-3.20l-84.70 -0.00"/>
<path class="fill"
	d="M261.24 128.00l84.00 0.00v-3.20l-84.00 -0.00"/>
<use x="264.74" y="113.00" xlink:href="#hd"/>
<path d="M261.24 113.00v18.90" class="stroke"/>
<use x="281.64" y="110.00" xlink:href="#hd"/>
<path d="M278.14 110.00v21.90" class="stroke"/>
<use x="298.44" y="107.00" xlink:href="#hd"/>
<path d="M294.94 107.00v24.90" class="stroke"/>
<use x="315.24" y="104.00" xlink:href="#hd"/>
<path d="M311.74 104.00v27.90" class="stroke"/>
<use x="332.04" y="101.00" xlink:href="#hd"/>
<path d="M328.54 101.00v30.90" class="stroke"/>
<use x="348.84" y="107.00" xlink:href="#hd"/>
<path d="M345.34 107.00v24.90" class="stroke"/>
<path class="fill"
	d="M371.54 132.20l67.90 6.00v-3.20l-67.90 -6.00"/>
<path class="fill"
	d="M371.84 127.30l50.40 4.40v-3.20l-50.40 -4.40"/>
<use x="375.34" y="104.00" xlink:href="#hd"/>
<path d="M371.84 104.00v27.30" class="stroke"/>
<use x="392.14" y="110.00" xlink:href="#hd"/>
<path d="M388.64 110.00v22.80" class="stroke"/>
<use x="408.94" y="113.00" xlink:href="#hd"/>
<path d="M405.44 113.00v21.20" class="stroke"/>
<use x="425.74" y="110.00" xlink:href="#hd"/>
<path d="M422.24 110.00v25.70" class="stroke"/>
<use x="442.54" y="119.00" xlink:href="#hd"/>
<path d="M439.04 119.00v18.20" class="stroke"/>
<path class="fill"
	d="M475.74 139.30l48.30 -8.40v-3.20l-48.30 8.40"/>
<use x="479.64" y="107.00" xlink:href="#hd"/>
<path d="M476.14 107.00v31.20" class="stroke"/>
<use x="479.64" y="122.00" xlink:href="#hd"/>
<defs>
<path id="usharp" class="fill" d="
	m136 -702
	v890
	h32
	v-890
	m128 840
	h32
	v-888
	h-32
	m-232 286
	v116
	l338 -96
	v-116
	m-338 442
	v116
	l338 -98
	v-114"/>
<use id="sh0" transform="translate(-4,5) scale(0.018)"
	xlink:href="#usharp"/>
</defs>
<use x="470.64" y="122.00" xlink:href="#sh0"/>
<use x="503.54" y="101.00" xlink:href="#hd"/>
<use x="494.54" y="101.00" xlink:href="#sh0"/>
<path d="M500.04 101.00v33.10" class="stroke"/>
<use x="503.54" y="107.00" xlink:href="#hd"/>
<defs>
<path id="hl" class="stroke" d="m-6 0h12"/>
</defs>
<use x="527.24" y="95.00" xlink:href="#hl"/>
<use x="527.24" y="95.00" xlink:href="#hd"/>
<path d="M523.74 95.00v35.00" class="stroke"/>
<use x="527.24" y="101.00" xlink:href="#hd"/>
<path class="fill"
	d="M562.24 85.30l75.00 -7.60v3.20l-75.00 7.60"/>
<path class="fill"
	d="M586.54 87.90l50.40 -5.10v3.20l-50.40 5.10"/>
<use x="559.14" y="116.00" xlink:href="#hd"/>
<path d="M562.64 116.00v-29.70" class="stroke"/>
<use x="583.04" y="122.00" xlink:href="#hd"/>
<use x="574.04" y="122.00" xlink:href="#sh0"/>
<path d="M586.54 122.00v-38.10" class="stroke"/>
<use x="599.84" y="119.00" xlink:href="#hd"/>
<path d="M603.34 119.00v-36.80" class="stroke"/>
<use x="616.64" y="113.00" xlink:href="#hd"/>
<path d="M620.14 113.00v-32.50" class="stroke"/>
<use x="633.44" y="98.00" xlink:href="#hd"/>
<path d="M636.94 98.00v-19.20" class="stroke"/>
<path class="fill"
	d="M656.14 127.00l85.90 0.00v-3.20l-85.90 -0.00"/>
<path class="fill"
	d="M656.44 122.00l85.30 0.00v-3.20l-85.30 -0.00"/>
<use x="659.94" y="104.00" xlink:href="#hd"/>
<path d="M656.44 104.00v22.00" class="stroke"/>
<use x="676.74" y="95.00" xlink:href="#hl"/>
<use x="676.74" y="89.00" xlink:href="#hl"/>
<use x="676.74" y="89.00" xlink:href="#hd"/>
<path d="M673.24 89.00v37.00" class="stroke"/>
<use x="693.54" y="95.00" xlink:href="#hl"/>
<use x="693.54" y="92.00" xlink:href="#hd"/>
<path d="M690.04 92.00v34.00" class="stroke"/>
<use x="710.34" y="98.00" xlink:href="#hd"/>
<path d="M706.84 98.00v28.00" class="stroke"/>
<use x="727.14" y="95.00" xlink:href="#hl"/>
<use x="727.14" y="95.00" xlink:href="#hd"/>
<path d="M723.64 95.00v31.00" class="stroke"/>
<use x="745.14" y="101.00" xlink:href="#hd"/>
<use x="736.14" y="101.00" xlink:href="#sh0"/>
<path d="M741.64 101.00v25.00" class="stroke"/>
<use x="771.74" y="98.00" xlink:href="#hd"/>
<path d="M768.24 98.00v40.00" class="stroke"/>
<use x="771.74" y="119.00" xlink:href="#hd"/>
<use x="771.74" y="113.00" xlink:href="#hd"/>
<use x="771.74" y="107.00" xlink:href="#hd"/>
<defs>
<path id="r8e" class="fill" d="m 0 0
	c-1.5 1.5 -2.4 2 -3.6 2
	2.4 -2.8 -2.8 -4 -2.8 -1.2
	c0 2.7 4.3 2.4 5.9 0.6"/>
<g id="r8">
	<path d="m3.3 -4l-3.4 9.6" class="stroke"/>
	<use x="3.4" y="-4" xlink:href="#r8e"/>
</g>
</defs>
<use x="830.24" y="113.00" xlink:href="#r8"/>
<defs>
<path id="ubclef" class="fill" d="m-200 -87
	c124 -35 222 -78 254 -236
	43 -228 -167 -246 -192 -103
	59 -80 157 22 92 78
	-62 47 -115 -22 -106 -88
	21 -141 270 -136 274 52
	-1 175 -106 264 -322 297
	m357 -250
	c0 -36 51 -34 51 0
	0 37 -51 36 -51 0
	m-2 -129
	c0 -36 51 -34 51 0
	0 38 -51 37 -51 0"/>
<use id="bclef" transform="translate(0,18) scale(0.045)"
	xlink:href="#ubclef"/>
</defs>
<use x="23.54" y="165.00" xlink:href="#bclef"/>
<g font-family="serif" font-size="16" font-weight="bold" font-style="normal"
	transform="translate(42.04,182.50) scale(1.2,1)">
	<text text-anchor="middle">8</text>
	<text y="-12" text-anchor="middle">3</text>
</g>
<use x="84.84" y="168.00" xlink:href="#hd"/>
<path d="M81.34 168.00v25.00" class="stroke"/>
<use x="84.84" y="174.00" xlink:href="#hd"/>
<use x="142.14" y="171.00" xlink:href="#r8"/>
<use x="185.54" y="168.00" xlink:href="#hd"/>
<path d="M182.04 168.00v25.00" class="stroke"/>
<use x="185.54" y="174.00" xlink:href="#hd"/>
<use x="232.94" y="162.00" xlink:href="#hd"/>
<path d="M229.44 162.00v31.00" class="stroke"/>
<path class="fill"
	d="M229.44 193.00c0.6 -5.6 9.6 -9 5.6 -18.4
	1.6 6 -1.3 11.6 -5.6 12.8
"/>
<use x="232.94" y="174.00" xlink:href="#hd"/>
<use x="264.74" y="183.00" xlink:href="#hd"/>
<path d="M268.24 183.00v-40.00" class="stroke"/>
<use x="264.74" y="162.00" xlink:href="#hd"/>
<use x="332.04" y="162.00" xlink:href="#hd"/>
<path d="M328.54 162.00v34.00" class="stroke"/>
<path class="fill"
	d="M328.54 196.00c0.6 -5.6 9.6 -9 5.6 -18.4
	1.6 6 -1.3 11.6 -5.6 12.8
"/>
<use x="332.04" y="177.00" xlink:href="#hd"/>
<use x="375.34" y="174.00" xlink:href="#hd"/>
<path d="M378.84 174.00v-21.00" class="stroke"/>
<use x="442.54" y="171.00" xlink:href="#r8"/>
<path class="fill"
	d="M482.74 153.00l48.30 0.00v3.20l-48.30 -0.00"/>
<use x="479.64" y="174.00" xlink:href="#hd"/>
<path d="M483.14 174.00v-20.00" class="stroke"/>
<use x="503.54" y="174.00" xlink:href="#hd"/>
<path d="M507.04 174.00v-20.00" class="stroke"/>
<use x="527.24" y="174.00" xlink:href="#hd"/>
<path d="M530.74 174.00v-20.00" class="stroke"/>
<use x="559.14" y="162.00" xlink:href="#hd"/>
<path d="M555.64 162.00v34.00" class="stroke"/>
<use x="559.14" y="177.00" xlink:href="#hd"/>
<use x="616.64" y="171.00" xlink:href="#r8"/>
<path class="fill"
	d="M663.14 147.70l67.90 8.30v3.20l-67.90 -8.30"/>
<use x="659.94" y="174.00" xlink:href="#hd"/>
<path d="M663.44 174.00v-25.30" class="stroke"/>
<use x="693.54" y="171.00" xlink:href="#hd"/>
<path d="M697.04 171.00v-18.20" class="stroke"/>
<use x="727.14" y="189.00" xlink:href="#hl"/>
<use x="727.14" y="192.00" xlink:href="#hd"/>
<path d="M730.64 192.00v-35.10" class="stroke"/>
<path class="fill"
	d="M767.84 202.20l76.00 0.00v-3.20l-76.00 -0.00"/>
<path class="fill"
	d="M791.94 197.20l51.60 0.00v-3.20l-51.60 -0.00"/>
<use x="771.74" y="183.00" xlink:href="#hd"/>
<path d="M768.24 183.00v18.20" class="stroke"/>
<use x="795.44" y="162.00" xlink:href="#hd"/>
<path d="M791.94 162.00v39.20" class="stroke"/>
<use x="813.44" y="165.00" xlink:href="#hd"/>
<defs>
<path id="unat" class="fill" d="
	m96 -750
	h-32
	v716
	l32 -8
	182 -54
	v282
	h32
	v-706
	l-34 10
	-180 50
	v-290
	m0 592
	v-190
	l182 -52
	v188"/>
<use id="nt0" transform="translate(-3,5) scale(0.018)"
	xlink:href="#unat"/>
</defs>
<use x="804.44" y="165.00" xlink:href="#nt0"/>
<path d="M809.94 165.00v36.20" class="stroke"/>
<use x="830.24" y="168.00" xlink:href="#hd"/>
<path d="M826.74 168.00v33.20" class="stroke"/>
<use x="847.04" y="171.00" xlink:href="#hd"/>
<path d="M843.54 171.00v30.20" class="stroke"/>
</g>
<g stroke-width="0.70" transform="scale(0.867)" font-family="Times" font-size="13.00">
<path class="stroke" stroke-width="1"
	d="M11.54 316.00v-82.00"/>
<path class="fill"
	d="M6.54 231.00
	c10.5 1 12 -4.5 12 -3.5c0 1 -3.5 5.5 -8.5 5.5
	v84.00
	c5 0 8.5 4.5 8.5 5.5c0 1 -1.5 -4.5 -12 -3.5"/>
<use x="141.64" y="258.00" xlink:href="#rdots"/>
<path class="stroke" stroke-width="1"
	d="M137.64 258.00v-24.00"/>
<path class="stroke" stroke-width="3"
	d="M133.14 258.00v-24.00"/>
<use x="141.64" y="316.00" xlink:href="#rdots"/>
<path class="stroke" stroke-width="1"
	d="M137.64 316.00v-58.00"/>
<path class="stroke" stroke-width="3"
	d="M133.14 316.00v-58.00"/>
<path class="stroke" stroke-width="1"
	d="M236.04 258.00v-24.00"/>
<path class="stroke" stroke-width="1"
	d="M236.04 316.00v-58.00"/>
<path class="stroke" stroke-width="1"
	d="M332.14 258.00v-24.00"/>
<path class="stroke" stroke-width="1"
	d="M332.14 316.00v-58.00"/>
<path class="stroke" stroke-width="1"
	d="M408.74 258.00v-24.00"/>
<path class="stroke" stroke-width="1"
	d="M408.74 316.00v-58.00"/>
<path class="stroke" stroke-width="1"
	d="M510.14 258.00v-24.00"/>
<path class="stroke" stroke-width="1"
	d="M510.14 316.00v-58.00"/>
<path class="stroke" stroke-width="1"
	d="M597.44 258.00v-24.00"/>
<path class="stroke" stroke-width="1"
	d="M597.44 316.00v-58.00"/>
<path class="stroke" stroke-width="1"
	d="M693.54 258.00v-24.00"/>
<path class="stroke" stroke-width="1"
	d="M693.54 316.00v-58.00"/>
<path class="stroke" stroke-width="1"
	d="M789.74 258.00v-24.00"/>
<path class="stroke" stroke-width="1"
	d="M789.74 316.00v-58.00"/>
<path class="stroke" stroke-width="3"
	d="M860.54 258.00v-24.00"/>
<path class="stroke" stroke-width="1"
	d="M856.04 258.00v-24.00"/>
<use x="852.04" y="258.00" xlink:href="#rdots"/>
<path class="stroke" stroke-width="3"
	d="M860.54 316.00v-58.00"/>
<path class="stroke" stroke-width="1"
	d="M856.04 316.00v-58.00"/>
<use x="852.04" y="316.00" xlink:href="#rdots"/>
<path d="m11.54 258.00
	h850.50
	M11.54 252.00
	h850.50
	M11.54 246.00
	h850.50
	M11.54 240.00
	h850.50
	M11.54 234.00
	h850.50
	" class="stroke"/>
<path d="m11.54 316.00
	h850.50
	M11.54 310.00
	h850.50
	M11.54 304.00
	h850.50
	M11.54 298.00
	h850.50
	M11.54 292.00
	h850.50
	" class="stroke"/>
<text x="47.54" y="219.40">2</text>
<path class="stroke"
	d="M43.54 208.00m0 20v-20h87.10v20"/>
<use x="23.54" y="252.00" xlink:href="#tclef"/>
<use x="56.04" y="231.00" xlink:href="#hd"/>
<path d="M52.54 231.00v40.00" class="stroke"/>
<use x="56.04" y="252.00" xlink:href="#hd"/>
<use x="56.04" y="246.00" xlink:href="#hd"/>
<use x="56.04" y="240.00" xlink:href="#hd"/>
<use x="107.94" y="246.00" xlink:href="#r8"/>
<path class="fill"
	d="M157.34 260.00l63.00 0.00v-3.20l-63.00 -0.00"/>
<path class="fill"
	d="M177.34 255.00l42.70 0.00v-3.20l-42.70 -0.00"/>
<use x="161.14" y="234.00" xlink:href="#hd"/>
<use x="152.14" y="234.00" xlink:href="#sh0"/>
<path d="M157.64 234.00v25.00" class="stroke"/>
<use x="180.84" y="228.00" xlink:href="#hl"/>
<use x="180.84" y="228.00" xlink:href="#hd"/>
<path d="M177.34 228.00v31.00" class="stroke"/>
<use x="195.04" y="234.00" xlink:href="#hd"/>
<path d="M191.54 234.00v25.00" class="stroke"/>
<use x="209.24" y="240.00" xlink:href="#hd"/>
<path d="M205.74 240.00v19.00" class="stroke"/>
<use x="223.54" y="234.00" xlink:href="#hd"/>
<path d="M220.04 234.00v25.00" class="stroke"/>
<path class="fill"
	d="M244.64 263.50l71.80 10.70v-3.20l-71.80 -10.70"/>
<path class="fill"
	d="M245.04 258.60l71.10 10.60v-3.20l-71.10 -10.60"/>
<use x="248.54" y="231.00" xlink:href="#hd"/>
<path d="M245.04 231.00v31.60" class="stroke"/>
<use x="262.74" y="228.00" xlink:href="#hl"/>
<use x="262.74" y="225.00" xlink:href="#hd"/>
<path d="M259.24 225.00v39.70" class="stroke"/>
<use x="276.94" y="231.00" xlink:href="#hd"/>
<path d="M273.44 231.00v35.80" class="stroke"/>
<use x="291.14" y="240.00" xlink:href="#hd"/>
<path d="M287.64 240.00v28.90" class="stroke"/>
<use x="305.44" y="246.00" xlink:href="#hd"/>
<path d="M301.94 246.00v25.10" class="stroke"/>
<use x="319.64" y="252.00" xlink:href="#hd"/>
<path d="M316.14 252.00v21.20" class="stroke"/>
<path class="fill"
	d="M340.84 266.40l48.80 -4.10v-3.20l-48.80 4.10"/>
<path class="fill"
	d="M341.14 261.40l14.20 -1.20v-3.20l-14.20 1.20"/>
<use x="344.64" y="237.00" xlink:href="#hd"/>
<path d="M341.14 237.00v28.40" class="stroke"/>
<use x="358.84" y="243.00" xlink:href="#hd"/>
<path d="M355.34 243.00v21.20" class="stroke"/>
<use x="373.04" y="237.00" xlink:href="#hd"/>
<path d="M369.54 237.00v26.00" class="stroke"/>
<use x="392.74" y="231.00" xlink:href="#hd"/>
<path d="M389.24 231.00v30.30" class="stroke"/>
<use x="421.24" y="240.00" xlink:href="#hd"/>
<path d="M417.74 240.00v21.00" class="stroke"/>
<path class="fill"
	d="M417.74 261.00c0.6 -5.6 9.6 -9 5.6 -18.4
	1.6 6 -1.3 11.6 -5.6 12.8
"/>
<use x="454.94" y="252.00" xlink:href="#hd"/>
<path d="M458.44 252.00v-21.00" class="stroke"/>
<path class="fill"
	d="M518.74 256.40l63.00 8.80v-3.20l-63.00 -8.80"/>
<path class="fill"
	d="M538.74 254.20l42.70 6.00v-3.20l-42.70 -6.00"/>
<use x="522.64" y="231.00" xlink:href="#hd"/>
<path d="M519.14 231.00v24.50" class="stroke"/>
<use x="542.24" y="234.00" xlink:href="#hd"/>
<path d="M538.74 234.00v24.20" class="stroke"/>
<use x="556.54" y="237.00" xlink:href="#hd"/>
<path d="M553.04 237.00v23.20" class="stroke"/>
<use x="570.74" y="240.00" xlink:href="#hd"/>
<path d="M567.24 240.00v22.20" class="stroke"/>
<use x="584.94" y="243.00" xlink:href="#hd"/>
<path d="M581.44 243.00v21.20" class="stroke"/>
<path class="fill"
	d="M606.14 263.50l71.80 -6.20v-3.20l-71.80 6.20"/>
<path class="fill"
	d="M606.44 258.40l71.10 -6.20v-3.20l-71.10 6.20"/>
<use x="609.94" y="237.00" xlink:href="#hd"/>
<path d="M606.44 237.00v25.40" class="stroke"/>
<use x="624.14" y="240.00" xlink:href="#hd"/>
<path d="M620.64 240.00v21.20" class="stroke"/>
<use x="638.44" y="237.00" xlink:href="#hd"/>
<path d="M634.94 237.00v23.00" class="stroke"/>
<use x="652.64" y="231.00" xlink:href="#hd"/>
<path d="M649.14 231.00v27.70" class="stroke"/>
<use x="666.84" y="228.00" xlink:href="#hl"/>
<use x="666.84" y="222.00" xlink:href="#hl"/>
<use x="666.84" y="222.00" xlink:href="#hd"/>
<path d="M663.34 222.00v35.50" class="stroke"/>
<use x="681.04" y="231.00" xlink:href="#hd"/>
<path d="M677.54 231.00v25.30" class="stroke"/>
<path class="fill"
	d="M702.24 266.00l71.80 0.00v-3.20l-71.80 -0.00"/>
<path class="fill"
	d="M702.54 261.00l71.10 0.00v-3.20l-71.10 -0.00"/>
<use x="706.04" y="234.00" xlink:href="#hd"/>
<path d="M702.54 234.00v30.90" class="stroke"/>
<use x="720.34" y="237.00" xlink:href="#hd"/>
<path d="M716.84 237.00v27.90" class="stroke"/>
<use x="734.54" y="240.00" xlink:href="#hd"/>
<path d="M731.04 240.00v24.90" class="stroke"/>
<use x="748.74" y="243.00" xlink:href="#hd"/>
<path d="M745.24 243.00v21.90" class="stroke"/>
<use x="762.94" y="246.00" xlink:href="#hd"/>
<path d="M759.44 246.00v18.90" class="stroke"/>
<use x="777.24" y="240.00" xlink:href="#hd"/>
<path d="M773.74 240.00v24.90" class="stroke"/>
<use x="802.24" y="243.00" xlink:href="#hd"/>
<path d="M798.74 243.00v21.00" class="stroke"/>
<use x="841.54" y="246.00" xlink:href="#r8"/>
<use x="23.54" y="298.00" xlink:href="#bclef"/>
<path class="fill"
	d="M52.24 335.20l66.80 -4.90v-3.20l-66.80 4.90"/>
<path class="fill"
	d="M72.24 328.80l46.50 -3.40v-3.20l-46.50 3.40"/>
<use x="56.04" y="316.00" xlink:href="#hd"/>
<path d="M52.54 316.00v18.20" class="stroke"/>
<use x="75.74" y="289.00" xlink:href="#hd"/>
<path d="M72.24 289.00v43.80" class="stroke"/>
<use x="89.94" y="295.00" xlink:href="#hd"/>
<path d="M86.44 295.00v36.70" class="stroke"/>
<use x="107.94" y="298.00" xlink:href="#hd"/>
<use x="98.94" y="298.00" xlink:href="#sh0"/>
<path d="M104.44 298.00v32.40" class="stroke"/>
<use x="122.14" y="301.00" xlink:href="#hd"/>
<path d="M118.64 301.00v28.30" class="stroke"/>
<use x="161.14" y="304.00" xlink:href="#hd"/>
<path d="M164.64 304.00v-21.00" class="stroke"/>
<use x="209.24" y="307.00" xlink:href="#hd"/>
<path d="M212.74 307.00v-21.00" class="stroke"/>
<path class="fill"
	d="M212.74 286.00c0.6 5.6 9.6 9 5.6 18.4
	1.6 -6 -1.3 -11.6 -5.6 -12.8
"/>
<use x="248.54" y="310.00" xlink:href="#hd"/>
<path d="M252.04 310.00v-25.00" class="stroke"/>
<use x="248.54" y="304.00" xlink:href="#hd"/>
<use x="305.44" y="304.00" xlink:href="#r8"/>
<use x="344.64" y="295.00" xlink:href="#hd"/>
<path d="M341.14 295.00v31.00" class="stroke"/>
<use x="344.64" y="307.00" xlink:href="#hd"/>
<use x="392.74" y="301.00" xlink:href="#hd"/>
<path d="M389.24 301.00v25.00" class="stroke"/>
<path class="fill"
	d="M389.24 326.00c0.6 -5.6 9.6 -9 5.6 -18.4
	1.6 6 -1.3 11.6 -5.6 12.8
"/>
<use x="392.74" y="307.00" xlink:href="#hd"/>
<path class="fill"
	d="M417.44 328.60l77.00 9.70v-3.20l-77.00 -9.70"/>
<path class="fill"
	d="M417.74 323.60l76.40 9.60v-3.20l-76.40 -9.60"/>
<use x="421.24" y="295.00" xlink:href="#hd"/>
<path d="M417.74 295.00v32.60" class="stroke"/>
<use x="439.24" y="298.00" xlink:href="#hd"/>
<use x="430.24" y="298.00" xlink:href="#sh0"/>
<path d="M435.74 298.00v31.90" class="stroke"/>
<use x="454.94" y="295.00" xlink:href="#hd"/>
<path d="M451.44 295.00v36.80" class="stroke"/>
<use x="469.14" y="304.00" xlink:href="#hd"/>
<path d="M465.64 304.00v29.60" class="stroke"/>
<use x="483.34" y="310.00" xlink:href="#hd"/>
<path d="M479.84 310.00v25.40" class="stroke"/>
<use x="497.64" y="316.00" xlink:href="#hd"/>
<path d="M494.14 316.00v21.20" class="stroke"/>
<use x="522.64" y="301.00" xlink:href="#hd"/>
<path d="M519.14 301.00v25.00" class="stroke"/>
<use x="522.64" y="307.00" xlink:href="#hd"/>
<use x="570.74" y="304.00" xlink:href="#r8"/>
<use x="609.94" y="295.00" xlink:href="#hd"/>
<path d="M606.44 295.00v31.00" class="stroke"/>
<use x="609.94" y="307.00" xlink:href="#hd"/>
<use x="666.84" y="301.00" xlink:href="#hd"/>
<path d="M663.34 301.00v25.00" class="stroke"/>
<path class="fill"
	d="M663.34 326.00c0.6 -5.6 9.6 -9 5.6 -18.4
	1.6 6 -1.3 11.6 -5.6 12.8
"/>
<use x="666.84" y="307.00" xlink:href="#hd"/>
<use x="706.04" y="298.00" xlink:href="#hd"/>
<path d="M702.54 298.00v21.00" class="stroke"/>
<use x="762.94" y="295.00" xlink:href="#hd"/>
<path d="M759.44 295.00v21.00" class="stroke"/>
<path class="fill"
	d="M759.44 316.00c0.6 -5.6 9.6 -9 5.6 -18.4
	1.6 6 -1.3 11.6 -5.6 12.8
"/>
<path class="fill"
	d="M805.34 287.70l40.00 9.60v3.20l-40.00 -9.60"/>
<use x="802.24" y="307.00" xlink:href="#hd"/>
<path d="M805.74 307.00v-18.20" class="stroke"/>
<use x="821.84" y="316.00" xlink:href="#hd"/>
<path d="M825.34 316.00v-22.50" class="stroke"/>
<use x="841.54" y="322.00" xlink:href="#hl"/>
<use x="841.54" y="328.00" xlink:href="#hl"/>
<use x="841.54" y="328.00" xlink:href="#hd"/>
<path d="M845.04 328.00v-29.80" class="stroke"/>
</g>
</svg>
