<?xml version="1.0" standalone="no"?>
<!DOCTYPE svg PUBLIC "-//W3C//DTD SVG 1.1//EN"
	"http://www.w3.org/Graphics/SVG/1.1/DTD/svg11.dtd">
<svg xmlns="http://www.w3.org/2000/svg" version="1.1"
	xmlns:xlink="http://www.w3.org/1999/xlink"
	color="black"
	width="757.10px" height="303.33px">
<style type="text/css">
.fill {fill: currentColor}
.stroke {stroke: currentColor; fill: none}
text{white-space: pre}
</style>
<title>./K516f-3-4-10-4-3-11-2-5-9-11-8-10-11-8-9-5.abc (2632) tune 1</title>
<!-- Creator: abcm2ps-8.13.8 -->
<!-- CreationDate: Sep  7, 2017 11:19 -->
<!-- CommandLine: ./K516f-3-4-10-4-3-11-2-5-9-11-8-10-11-8-9-5.abc -O ./K516f-3-4-10-4-3-11-2-5-9-11-8-10-11-8-9-5.svg -g -->
<rect width="100%" height="100%" fill="white"/>
<g stroke-width="0.70" transform="scale(0.867)">
<!-- title: 3-4-10-4-3-11-2-5-9-11-8-10-11-8-9-5 -->
</g>
<g stroke-width="0.70" transform="scale(0.867)" font-family="Times" font-size="20.00">
<text x="436.84" y="22.00" text-anchor="middle">3-4-10-4-3-11-2-5-9-11-8-10-11-8-9-5</text>
</g>
<g stroke-width="0.70" transform="scale(0.867)" font-family="Times" font-size="20.00">
<!-- subtitle: $1K.516f::32:95:42:13:146:47:11:100:120:4:57:82:144:168:72:170::$0 -->
</g>
<g stroke-width="0.70" transform="scale(0.867)" font-family="Courier" font-size="8.00" font-weight="bold">
<text x="436.84" y="41.80" text-anchor="middle">K.516f::32:95:42:13:146:47:11:100:120:4:57:82:144:168:72:170::</text>
</g>
<g stroke-width="0.70" transform="scale(0.867)" font-family="Courier" font-size="8.00" font-weight="bold">
<!-- subtitle: $1Perm. No.: 263281074494176$0 -->
<text x="436.84" y="60.80" text-anchor="middle">Perm. No.: 263281074494176</text>
</g>
<g stroke-width="0.70" transform="scale(0.607)" font-family="Courier" font-size="8.00" font-weight="bold">
<defs>
<ellipse id="hd" rx="4.1" ry="2.9"
	transform="rotate(-20)" class="fill"/>
</defs>
<use x="103.06" y="121.29" xlink:href="#hd"/>
<path d="M106.56 121.29v-21.00" class="stroke"/>
<path class="fill"
	d="M106.56 100.29c0.6 5.6 9.6 9 5.6 18.4
	1.6 -6 -1.3 -11.6 -5.6 -12.8
"/>
</g>
<g stroke-width="0.70" transform="scale(0.867)" font-family="Times" font-size="15.00" font-weight="bold">
<text x="81.24" y="87.00">= 111</text>
<path class="stroke" stroke-width="1"
	d="M11.54 183.00v-82.00"/>
<path class="fill"
	d="M6.54 98.00
	c10.5 1 12 -4.5 12 -3.5c0 1 -3.5 5.5 -8.5 5.5
	v84.00
	c5 0 8.5 4.5 8.5 5.5c0 1 -1.5 -4.5 -12 -3.5"/>
<defs>
<g id="rdots" class="fill">
	<circle cx="0" cy="-9" r="1.2"/>
	<circle cx="0" cy="-15" r="1.2"/>
</g>
</defs>
<use x="70.54" y="125.00" xlink:href="#rdots"/>
<path class="stroke" stroke-width="1"
	d="M66.54 125.00v-24.00"/>
<path class="stroke" stroke-width="3"
	d="M62.04 125.00v-24.00"/>
<use x="70.54" y="183.00" xlink:href="#rdots"/>
<path class="stroke" stroke-width="1"
	d="M66.54 183.00v-58.00"/>
<path class="stroke" stroke-width="3"
	d="M62.04 183.00v-58.00"/>
<path class="stroke" stroke-width="1"
	d="M157.04 125.00v-24.00"/>
<path class="stroke" stroke-width="1"
	d="M157.04 183.00v-58.00"/>
<path class="stroke" stroke-width="1"
	d="M242.44 125.00v-24.00"/>
<path class="stroke" stroke-width="1"
	d="M242.44 183.00v-58.00"/>
<path class="stroke" stroke-width="1"
	d="M361.44 125.00v-24.00"/>
<path class="stroke" stroke-width="1"
	d="M361.44 183.00v-58.00"/>
<path class="stroke" stroke-width="1"
	d="M446.94 125.00v-24.00"/>
<path class="stroke" stroke-width="1"
	d="M446.94 183.00v-58.00"/>
<path class="stroke" stroke-width="1"
	d="M536.64 125.00v-24.00"/>
<path class="stroke" stroke-width="1"
	d="M536.64 183.00v-58.00"/>
<path class="stroke" stroke-width="1"
	d="M632.74 125.00v-24.00"/>
<path class="stroke" stroke-width="1"
	d="M632.74 183.00v-58.00"/>
<path class="stroke" stroke-width="1"
	d="M751.64 125.00v-24.00"/>
<path class="stroke" stroke-width="1"
	d="M751.64 183.00v-58.00"/>
<path class="stroke" stroke-width="3"
	d="M860.54 125.00v-24.00"/>
<path class="stroke" stroke-width="1"
	d="M856.04 125.00v-24.00"/>
<use x="852.04" y="125.00" xlink:href="#rdots"/>
<path class="stroke" stroke-width="3"
	d="M860.54 183.00v-58.00"/>
<path class="stroke" stroke-width="1"
	d="M856.04 183.00v-58.00"/>
<use x="852.04" y="183.00" xlink:href="#rdots"/>
<path d="m11.54 125.00
	h850.50
	M11.54 119.00
	h850.50
	M11.54 113.00
	h850.50
	M11.54 107.00
	h850.50
	M11.54 101.00
	h850.50
	" class="stroke"/>
<path d="m11.54 183.00
	h850.50
	M11.54 177.00
	h850.50
	M11.54 171.00
	h850.50
	M11.54 165.00
	h850.50
	M11.54 159.00
	h850.50
	" class="stroke"/>
<path class="fill"
	d="M375.64 121.00c7.29 5.41 39.99 10.67 47.28 7.60
	v0.25c-8.71 4.82 -38.57 -0.44 -47.28 -7.85"/>
</g>
<g stroke-width="0.70" transform="scale(0.867)" font-family="Times" font-size="13.00">
<text x="755.64" y="86.40">1</text>
<path class="stroke"
	d="M751.64 75.00m0 20v-20h102.40v20"/>
<defs>
<path id="utclef" class="fill" d="m-50 -90
	c-72 -41 -72 -158 52 -188
	150 -10 220 188 90 256
	-114 52 -275 0 -293 -136
	-15 -181 93 -229 220 -334
	88 -87 79 -133 62 -210
	-51 33 -94 105 -89 186
	17 267 36 374 49 574
	6 96 -19 134 -77 135
	-80 1 -126 -93 -61 -133
	85 -41 133 101 31 105
	23 17 92 37 90 -92
	-10 -223 -39 -342 -50 -617
	0 -90 0 -162 96 -232
	56 72 63 230 22 289
	-74 106 -257 168 -255 316
	9 153 148 185 252 133
	86 -65 29 -192 -80 -176
	-71 12 -105 67 -59 124"/>
<use id="tclef" transform="translate(0,6) scale(0.045)"
	xlink:href="#utclef"/>
</defs>
<use x="23.54" y="119.00" xlink:href="#tclef"/>
<g font-family="serif" font-size="16" font-weight="bold" font-style="normal"
	transform="translate(42.04,124.50) scale(1.2,1)">
	<text text-anchor="middle">8</text>
	<text y="-12" text-anchor="middle">3</text>
</g>
<path class="fill"
	d="M81.94 138.20l52.00 -6.80v-3.20l-52.00 6.80"/>
<use x="85.74" y="119.00" xlink:href="#hd"/>
<path d="M82.24 119.00v18.20" class="stroke"/>
<use x="111.44" y="110.00" xlink:href="#hd"/>
<path d="M107.94 110.00v23.90" class="stroke"/>
<use x="137.04" y="104.00" xlink:href="#hd"/>
<path d="M133.54 104.00v26.50" class="stroke"/>
<path class="fill"
	d="M167.44 121.00l52.00 8.30v-3.20l-52.00 -8.30"/>
<use x="171.24" y="98.00" xlink:href="#hd"/>
<path d="M167.74 98.00v22.00" class="stroke"/>
<use x="196.94" y="104.00" xlink:href="#hd"/>
<path d="M193.44 104.00v20.10" class="stroke"/>
<use x="222.54" y="110.00" xlink:href="#hd"/>
<path d="M219.04 110.00v18.20" class="stroke"/>
<path class="fill"
	d="M252.94 141.20l91.30 0.00v-3.20l-91.30 -0.00"/>
<path class="fill"
	d="M253.24 136.20l90.60 0.00v-3.20l-90.60 -0.00"/>
<use x="256.74" y="113.00" xlink:href="#hd"/>
<path d="M253.24 113.00v27.20" class="stroke"/>
<use x="274.84" y="110.00" xlink:href="#hd"/>
<path d="M271.34 110.00v30.20" class="stroke"/>
<use x="292.94" y="107.00" xlink:href="#hd"/>
<path d="M289.44 107.00v33.20" class="stroke"/>
<use x="311.14" y="113.00" xlink:href="#hd"/>
<path d="M307.64 113.00v27.20" class="stroke"/>
<use x="329.24" y="116.00" xlink:href="#hd"/>
<path d="M325.74 116.00v24.20" class="stroke"/>
<use x="347.34" y="119.00" xlink:href="#hd"/>
<path d="M343.84 119.00v21.20" class="stroke"/>
<path class="fill"
	d="M378.84 90.80l52.00 6.80v3.20l-52.00 -6.80"/>
<use x="375.64" y="110.00" xlink:href="#hd"/>
<path d="M379.14 110.00v-18.20" class="stroke"/>
<use x="401.34" y="119.00" xlink:href="#hd"/>
<path d="M404.84 119.00v-23.90" class="stroke"/>
<use x="426.94" y="125.00" xlink:href="#hd"/>
<path d="M430.44 125.00v-26.50" class="stroke"/>
<path class="fill"
	d="M461.54 139.30l52.00 -8.60v-3.20l-52.00 8.60"/>
<use x="465.44" y="107.00" xlink:href="#hd"/>
<path d="M461.94 107.00v31.20" class="stroke"/>
<use x="465.44" y="122.00" xlink:href="#hd"/>
<defs>
<path id="usharp" class="fill" d="
	m136 -702
	v890
	h32
	v-890
	m128 840
	h32
	v-888
	h-32
	m-232 286
	v116
	l338 -96
	v-116
	m-338 442
	v116
	l338 -98
	v-114"/>
<use id="sh0" transform="translate(-4,5) scale(0.018)"
	xlink:href="#usharp"/>
</defs>
<use x="456.44" y="122.00" xlink:href="#sh0"/>
<use x="491.04" y="101.00" xlink:href="#hd"/>
<use x="482.04" y="101.00" xlink:href="#sh0"/>
<path d="M487.54 101.00v33.00" class="stroke"/>
<use x="491.04" y="107.00" xlink:href="#hd"/>
<defs>
<path id="hl" class="stroke" d="m-6 0h12"/>
</defs>
<use x="516.74" y="95.00" xlink:href="#hl"/>
<use x="516.74" y="95.00" xlink:href="#hd"/>
<path d="M513.24 95.00v34.80" class="stroke"/>
<use x="516.74" y="101.00" xlink:href="#hd"/>
<path class="fill"
	d="M547.04 127.00l62.60 0.00v-3.20l-62.60 -0.00"/>
<path class="fill"
	d="M573.04 122.00l18.10 0.00v-3.20l-18.10 -0.00"/>
<use x="550.94" y="98.00" xlink:href="#hd"/>
<path d="M547.44 98.00v28.00" class="stroke"/>
<use x="576.54" y="98.00" xlink:href="#hd"/>
<path d="M573.04 98.00v28.00" class="stroke"/>
<use x="594.64" y="107.00" xlink:href="#hd"/>
<path d="M591.14 107.00v19.00" class="stroke"/>
<use x="612.74" y="95.00" xlink:href="#hl"/>
<use x="612.74" y="92.00" xlink:href="#hd"/>
<path d="M609.24 92.00v34.00" class="stroke"/>
<path class="fill"
	d="M650.14 81.80l91.30 8.40v3.20l-91.30 -8.40"/>
<path class="fill"
	d="M650.44 86.80l90.60 8.40v3.20l-90.60 -8.40"/>
<use x="646.94" y="104.00" xlink:href="#hd"/>
<path d="M650.44 104.00v-21.20" class="stroke"/>
<use x="665.14" y="110.00" xlink:href="#hd"/>
<path d="M668.64 110.00v-25.50" class="stroke"/>
<use x="683.24" y="113.00" xlink:href="#hd"/>
<path d="M686.74 113.00v-26.80" class="stroke"/>
<use x="701.34" y="116.00" xlink:href="#hd"/>
<path d="M704.84 116.00v-28.20" class="stroke"/>
<use x="719.44" y="119.00" xlink:href="#hd"/>
<path d="M722.94 119.00v-29.50" class="stroke"/>
<use x="737.54" y="122.00" xlink:href="#hd"/>
<use x="728.54" y="122.00" xlink:href="#sh0"/>
<path d="M741.04 122.00v-30.80" class="stroke"/>
<use x="765.94" y="98.00" xlink:href="#hd"/>
<path d="M762.44 98.00v40.00" class="stroke"/>
<use x="765.94" y="119.00" xlink:href="#hd"/>
<use x="765.94" y="113.00" xlink:href="#hd"/>
<use x="765.94" y="107.00" xlink:href="#hd"/>
<defs>
<path id="r8e" class="fill" d="m 0 0
	c-1.5 1.5 -2.4 2 -3.6 2
	2.4 -2.8 -2.8 -4 -2.8 -1.2
	c0 2.7 4.3 2.4 5.9 0.6"/>
<g id="r8">
	<path d="m3.3 -4l-3.4 9.6" class="stroke"/>
	<use x="3.4" y="-4" xlink:href="#r8e"/>
</g>
</defs>
<use x="827.84" y="113.00" xlink:href="#r8"/>
<defs>
<path id="ubclef" class="fill" d="m-200 -87
	c124 -35 222 -78 254 -236
	43 -228 -167 -246 -192 -103
	59 -80 157 22 92 78
	-62 47 -115 -22 -106 -88
	21 -141 270 -136 274 52
	-1 175 -106 264 -322 297
	m357 -250
	c0 -36 51 -34 51 0
	0 37 -51 36 -51 0
	m-2 -129
	c0 -36 51 -34 51 0
	0 38 -51 37 -51 0"/>
<use id="bclef" transform="translate(0,18) scale(0.045)"
	xlink:href="#ubclef"/>
</defs>
<use x="23.54" y="165.00" xlink:href="#bclef"/>
<g font-family="serif" font-size="16" font-weight="bold" font-style="normal"
	transform="translate(42.04,182.50) scale(1.2,1)">
	<text text-anchor="middle">8</text>
	<text y="-12" text-anchor="middle">3</text>
</g>
<use x="85.74" y="168.00" xlink:href="#hd"/>
<path d="M82.24 168.00v25.00" class="stroke"/>
<use x="85.74" y="174.00" xlink:href="#hd"/>
<use x="137.04" y="171.00" xlink:href="#r8"/>
<use x="171.24" y="168.00" xlink:href="#hd"/>
<path d="M174.74 168.00v-21.00" class="stroke"/>
<use x="222.54" y="171.00" xlink:href="#r8"/>
<use x="256.74" y="183.00" xlink:href="#hd"/>
<path d="M260.24 183.00v-21.00" class="stroke"/>
<use x="329.24" y="171.00" xlink:href="#r8"/>
<use x="375.64" y="162.00" xlink:href="#hd"/>
<path d="M372.14 162.00v25.00" class="stroke"/>
<use x="375.64" y="168.00" xlink:href="#hd"/>
<use x="426.94" y="171.00" xlink:href="#r8"/>
<path class="fill"
	d="M468.54 153.00l52.00 0.00v3.20l-52.00 -0.00"/>
<use x="465.44" y="174.00" xlink:href="#hd"/>
<path d="M468.94 174.00v-20.00" class="stroke"/>
<use x="491.04" y="174.00" xlink:href="#hd"/>
<path d="M494.54 174.00v-20.00" class="stroke"/>
<use x="516.74" y="174.00" xlink:href="#hd"/>
<path d="M520.24 174.00v-20.00" class="stroke"/>
<use x="550.94" y="177.00" xlink:href="#hd"/>
<path d="M554.44 177.00v-25.00" class="stroke"/>
<use x="550.94" y="171.00" xlink:href="#hd"/>
<use x="612.74" y="171.00" xlink:href="#r8"/>
<path class="fill"
	d="M650.14 147.60l73.20 8.40v3.20l-73.20 -8.40"/>
<use x="646.94" y="174.00" xlink:href="#hd"/>
<path d="M650.44 174.00v-25.40" class="stroke"/>
<use x="683.24" y="171.00" xlink:href="#hd"/>
<path d="M686.74 171.00v-18.20" class="stroke"/>
<use x="719.44" y="189.00" xlink:href="#hl"/>
<use x="719.44" y="192.00" xlink:href="#hd"/>
<path d="M722.94 192.00v-35.00" class="stroke"/>
<path class="fill"
	d="M762.04 202.20l80.70 0.00v-3.20l-80.70 -0.00"/>
<path class="fill"
	d="M788.04 197.20l54.40 0.00v-3.20l-54.40 -0.00"/>
<use x="765.94" y="183.00" xlink:href="#hd"/>
<path d="M762.44 183.00v18.20" class="stroke"/>
<use x="791.54" y="162.00" xlink:href="#hd"/>
<path d="M788.04 162.00v39.20" class="stroke"/>
<use x="809.64" y="165.00" xlink:href="#hd"/>
<defs>
<path id="unat" class="fill" d="
	m96 -750
	h-32
	v716
	l32 -8
	182 -54
	v282
	h32
	v-706
	l-34 10
	-180 50
	v-290
	m0 592
	v-190
	l182 -52
	v188"/>
<use id="nt0" transform="translate(-3,5) scale(0.018)"
	xlink:href="#unat"/>
</defs>
<use x="800.64" y="165.00" xlink:href="#nt0"/>
<path d="M806.14 165.00v36.20" class="stroke"/>
<use x="827.84" y="168.00" xlink:href="#hd"/>
<path d="M824.34 168.00v33.20" class="stroke"/>
<use x="845.94" y="171.00" xlink:href="#hd"/>
<path d="M842.44 171.00v30.20" class="stroke"/>
<use x="171.24" y="174.00" xlink:href="#hd"/>
<path d="M167.74 174.00v21.00" class="stroke"/>
</g>
<g stroke-width="0.70" transform="scale(0.867)" font-family="Times" font-size="13.00">
<path class="stroke" stroke-width="1"
	d="M11.54 324.00v-90.00"/>
<path class="fill"
	d="M6.54 231.00
	c10.5 1 12 -4.5 12 -3.5c0 1 -3.5 5.5 -8.5 5.5
	v92.00
	c5 0 8.5 4.5 8.5 5.5c0 1 -1.5 -4.5 -12 -3.5"/>
<use x="143.44" y="258.00" xlink:href="#rdots"/>
<path class="stroke" stroke-width="1"
	d="M139.44 258.00v-24.00"/>
<path class="stroke" stroke-width="3"
	d="M134.94 258.00v-24.00"/>
<use x="143.44" y="324.00" xlink:href="#rdots"/>
<path class="stroke" stroke-width="1"
	d="M139.44 324.00v-66.00"/>
<path class="stroke" stroke-width="3"
	d="M134.94 324.00v-66.00"/>
<path class="stroke" stroke-width="1"
	d="M243.34 258.00v-24.00"/>
<path class="stroke" stroke-width="1"
	d="M243.34 324.00v-66.00"/>
<path class="stroke" stroke-width="1"
	d="M323.74 258.00v-24.00"/>
<path class="stroke" stroke-width="1"
	d="M323.74 324.00v-66.00"/>
<path class="stroke" stroke-width="1"
	d="M422.24 258.00v-24.00"/>
<path class="stroke" stroke-width="1"
	d="M422.24 324.00v-66.00"/>
<path class="stroke" stroke-width="1"
	d="M501.54 258.00v-24.00"/>
<path class="stroke" stroke-width="1"
	d="M501.54 324.00v-66.00"/>
<path class="stroke" stroke-width="1"
	d="M600.04 258.00v-24.00"/>
<path class="stroke" stroke-width="1"
	d="M600.04 324.00v-66.00"/>
<path class="stroke" stroke-width="1"
	d="M689.64 258.00v-24.00"/>
<path class="stroke" stroke-width="1"
	d="M689.64 324.00v-66.00"/>
<path class="stroke" stroke-width="1"
	d="M788.14 258.00v-24.00"/>
<path class="stroke" stroke-width="1"
	d="M788.14 324.00v-66.00"/>
<path class="stroke" stroke-width="3"
	d="M860.54 258.00v-24.00"/>
<path class="stroke" stroke-width="1"
	d="M856.04 258.00v-24.00"/>
<use x="852.04" y="258.00" xlink:href="#rdots"/>
<path class="stroke" stroke-width="3"
	d="M860.54 324.00v-66.00"/>
<path class="stroke" stroke-width="1"
	d="M856.04 324.00v-66.00"/>
<use x="852.04" y="324.00" xlink:href="#rdots"/>
<path d="m11.54 258.00
	h850.50
	M11.54 252.00
	h850.50
	M11.54 246.00
	h850.50
	M11.54 240.00
	h850.50
	M11.54 234.00
	h850.50
	" class="stroke"/>
<path d="m11.54 324.00
	h850.50
	M11.54 318.00
	h850.50
	M11.54 312.00
	h850.50
	M11.54 306.00
	h850.50
	M11.54 300.00
	h850.50
	" class="stroke"/>
<text x="47.54" y="219.40">2</text>
<path class="stroke"
	d="M43.54 208.00m0 20v-20h88.90v20"/>
<use x="23.54" y="252.00" xlink:href="#tclef"/>
<use x="56.04" y="231.00" xlink:href="#hd"/>
<path d="M52.54 231.00v40.00" class="stroke"/>
<use x="56.04" y="252.00" xlink:href="#hd"/>
<use x="56.04" y="246.00" xlink:href="#hd"/>
<use x="56.04" y="240.00" xlink:href="#hd"/>
<use x="109.24" y="246.00" xlink:href="#r8"/>
<path class="fill"
	d="M159.04 260.60l68.70 10.60v-3.20l-68.70 -10.60"/>
<path class="fill"
	d="M179.94 258.90l47.40 7.30v-3.20l-47.40 -7.30"/>
<use x="162.94" y="228.00" xlink:href="#hl"/>
<use x="162.94" y="222.00" xlink:href="#hl"/>
<use x="162.94" y="219.00" xlink:href="#hd"/>
<path d="M159.44 219.00v40.70" class="stroke"/>
<use x="183.44" y="228.00" xlink:href="#hl"/>
<use x="183.44" y="228.00" xlink:href="#hd"/>
<path d="M179.94 228.00v34.90" class="stroke"/>
<use x="201.44" y="234.00" xlink:href="#hd"/>
<use x="192.44" y="234.00" xlink:href="#sh0"/>
<path d="M197.94 234.00v31.60" class="stroke"/>
<use x="216.14" y="240.00" xlink:href="#hd"/>
<path d="M212.64 240.00v27.90" class="stroke"/>
<use x="230.84" y="249.00" xlink:href="#hd"/>
<path d="M227.34 249.00v21.20" class="stroke"/>
<use x="255.84" y="231.00" xlink:href="#hd"/>
<path d="M252.34 231.00v21.00" class="stroke"/>
<path class="fill"
	d="M252.34 252.00c0.6 -5.6 9.6 -9 5.6 -18.4
	1.6 6 -1.3 11.6 -5.6 12.8
"/>
<use x="286.84" y="240.00" xlink:href="#hd"/>
<path d="M283.34 240.00v21.00" class="stroke"/>
<path class="fill"
	d="M332.34 264.30l59.50 7.00v-3.20l-59.50 -7.00"/>
<use x="336.24" y="237.00" xlink:href="#hd"/>
<path d="M332.74 237.00v26.30" class="stroke"/>
<use x="365.64" y="243.00" xlink:href="#hd"/>
<path d="M362.14 243.00v23.80" class="stroke"/>
<use x="395.04" y="252.00" xlink:href="#hd"/>
<path d="M391.54 252.00v18.20" class="stroke"/>
<path class="fill"
	d="M430.84 273.70l50.50 -4.30v-3.20l-50.50 4.30"/>
<path class="fill"
	d="M431.24 268.70l14.70 -1.20v-3.20l-14.70 1.20"/>
<use x="434.74" y="240.00" xlink:href="#hd"/>
<path d="M431.24 240.00v32.70" class="stroke"/>
<use x="449.44" y="246.00" xlink:href="#hd"/>
<path d="M445.94 246.00v25.40" class="stroke"/>
<use x="464.14" y="252.00" xlink:href="#hd"/>
<path d="M460.64 252.00v18.20" class="stroke"/>
<use x="484.54" y="231.00" xlink:href="#hd"/>
<path d="M481.04 231.00v37.50" class="stroke"/>
<path class="fill"
	d="M510.24 260.60l59.50 3.20v-3.20l-59.50 -3.20"/>
<use x="514.04" y="231.00" xlink:href="#hd"/>
<path d="M510.54 231.00v28.60" class="stroke"/>
<use x="543.44" y="243.00" xlink:href="#hd"/>
<path d="M539.94 243.00v18.20" class="stroke"/>
<use x="572.84" y="237.00" xlink:href="#hd"/>
<path d="M569.34 237.00v25.80" class="stroke"/>
<path class="fill"
	d="M608.74 256.30l65.20 8.90v-3.20l-65.20 -8.90"/>
<path class="fill"
	d="M629.54 254.20l44.10 6.00v-3.20l-44.10 -6.00"/>
<use x="612.54" y="231.00" xlink:href="#hd"/>
<path d="M609.04 231.00v24.40" class="stroke"/>
<use x="633.04" y="234.00" xlink:href="#hd"/>
<path d="M629.54 234.00v24.20" class="stroke"/>
<use x="647.74" y="237.00" xlink:href="#hd"/>
<path d="M644.24 237.00v23.20" class="stroke"/>
<use x="662.44" y="240.00" xlink:href="#hd"/>
<path d="M658.94 240.00v22.20" class="stroke"/>
<use x="677.14" y="243.00" xlink:href="#hd"/>
<path d="M673.64 243.00v21.20" class="stroke"/>
<path class="fill"
	d="M698.34 266.00l74.20 0.00v-3.20l-74.20 -0.00"/>
<path class="fill"
	d="M698.64 261.00l73.50 0.00v-3.20l-73.50 -0.00"/>
<use x="702.14" y="234.00" xlink:href="#hd"/>
<path d="M698.64 234.00v30.90" class="stroke"/>
<use x="716.84" y="237.00" xlink:href="#hd"/>
<path d="M713.34 237.00v27.90" class="stroke"/>
<use x="731.54" y="240.00" xlink:href="#hd"/>
<path d="M728.04 240.00v24.90" class="stroke"/>
<use x="746.24" y="243.00" xlink:href="#hd"/>
<path d="M742.74 243.00v21.90" class="stroke"/>
<use x="760.94" y="246.00" xlink:href="#hd"/>
<path d="M757.44 246.00v18.90" class="stroke"/>
<use x="775.64" y="240.00" xlink:href="#hd"/>
<path d="M772.14 240.00v24.90" class="stroke"/>
<use x="800.64" y="243.00" xlink:href="#hd"/>
<path d="M797.14 243.00v21.00" class="stroke"/>
<use x="841.54" y="246.00" xlink:href="#r8"/>
<use x="23.54" y="306.00" xlink:href="#bclef"/>
<path class="fill"
	d="M52.24 343.20l68.50 -5.00v-3.20l-68.50 5.00"/>
<path class="fill"
	d="M72.94 336.70l47.40 -3.40v-3.20l-47.40 3.40"/>
<use x="56.04" y="324.00" xlink:href="#hd"/>
<path d="M52.54 324.00v18.20" class="stroke"/>
<use x="76.44" y="297.00" xlink:href="#hd"/>
<path d="M72.94 297.00v43.70" class="stroke"/>
<use x="91.24" y="303.00" xlink:href="#hd"/>
<path d="M87.74 303.00v36.60" class="stroke"/>
<use x="109.24" y="306.00" xlink:href="#hd"/>
<use x="100.24" y="306.00" xlink:href="#sh0"/>
<path d="M105.74 306.00v32.30" class="stroke"/>
<use x="123.94" y="309.00" xlink:href="#hd"/>
<path d="M120.44 309.00v28.30" class="stroke"/>
<use x="162.94" y="306.00" xlink:href="#hd"/>
<use x="153.94" y="306.00" xlink:href="#sh0"/>
<path d="M159.44 306.00v25.00" class="stroke"/>
<use x="162.94" y="312.00" xlink:href="#hd"/>
<use x="216.14" y="306.00" xlink:href="#hd"/>
<path d="M212.64 306.00v28.00" class="stroke"/>
<path class="fill"
	d="M212.64 334.00c0.6 -5.6 9.6 -9 5.6 -18.4
	1.6 6 -1.3 11.6 -5.6 12.8
"/>
<use x="216.14" y="315.00" xlink:href="#hd"/>
<path class="fill"
	d="M252.04 346.30l52.10 -10.50v-3.20l-52.10 10.50"/>
<path class="fill"
	d="M252.34 341.20l14.70 -3.00v-3.20l-14.70 3.00"/>
<use x="255.84" y="324.00" xlink:href="#hd"/>
<path d="M252.34 324.00v21.20" class="stroke"/>
<use x="270.64" y="318.00" xlink:href="#hd"/>
<path d="M267.14 318.00v24.20" class="stroke"/>
<use x="286.84" y="303.00" xlink:href="#hd"/>
<path d="M283.34 303.00v35.90" class="stroke"/>
<use x="307.24" y="297.00" xlink:href="#hd"/>
<path d="M303.74 297.00v37.80" class="stroke"/>
<path class="fill"
	d="M332.34 331.90l74.20 0.00v-3.20l-74.20 -0.00"/>
<path class="fill"
	d="M332.74 326.90l73.50 0.00v-3.20l-73.50 -0.00"/>
<use x="336.24" y="309.00" xlink:href="#hd"/>
<path d="M332.74 309.00v21.90" class="stroke"/>
<use x="336.24" y="315.00" xlink:href="#hd"/>
<use x="350.94" y="303.00" xlink:href="#hd"/>
<path d="M347.44 303.00v27.90" class="stroke"/>
<use x="365.64" y="309.00" xlink:href="#hd"/>
<path d="M362.14 309.00v21.90" class="stroke"/>
<use x="365.64" y="315.00" xlink:href="#hd"/>
<use x="380.34" y="303.00" xlink:href="#hd"/>
<path d="M376.84 303.00v27.90" class="stroke"/>
<use x="395.04" y="309.00" xlink:href="#hd"/>
<path d="M391.54 309.00v21.90" class="stroke"/>
<use x="395.04" y="315.00" xlink:href="#hd"/>
<use x="409.74" y="303.00" xlink:href="#hd"/>
<path d="M406.24 303.00v27.90" class="stroke"/>
<use x="434.74" y="303.00" xlink:href="#hd"/>
<path d="M438.24 303.00v-21.00" class="stroke"/>
<use x="484.54" y="318.00" xlink:href="#hd"/>
<path d="M488.04 318.00v-25.00" class="stroke"/>
<path class="fill"
	d="M488.04 293.00c0.6 5.6 9.6 9 5.6 18.4
	1.6 -6 -1.3 -11.6 -5.6 -12.8
"/>
<use x="484.54" y="312.00" xlink:href="#hd"/>
<path class="fill"
	d="M510.24 331.90l74.20 0.00v-3.20l-74.20 -0.00"/>
<path class="fill"
	d="M510.54 326.90l73.50 0.00v-3.20l-73.50 -0.00"/>
<use x="514.04" y="309.00" xlink:href="#hd"/>
<path d="M510.54 309.00v21.90" class="stroke"/>
<use x="514.04" y="315.00" xlink:href="#hd"/>
<use x="528.74" y="303.00" xlink:href="#hd"/>
<path d="M525.24 303.00v27.90" class="stroke"/>
<use x="543.44" y="309.00" xlink:href="#hd"/>
<path d="M539.94 309.00v21.90" class="stroke"/>
<use x="543.44" y="315.00" xlink:href="#hd"/>
<use x="558.14" y="303.00" xlink:href="#hd"/>
<path d="M554.64 303.00v27.90" class="stroke"/>
<use x="572.84" y="309.00" xlink:href="#hd"/>
<path d="M569.34 309.00v21.90" class="stroke"/>
<use x="572.84" y="315.00" xlink:href="#hd"/>
<use x="587.54" y="303.00" xlink:href="#hd"/>
<path d="M584.04 303.00v27.90" class="stroke"/>
<use x="612.54" y="309.00" xlink:href="#hd"/>
<path d="M609.04 309.00v25.00" class="stroke"/>
<use x="612.54" y="315.00" xlink:href="#hd"/>
<use x="662.44" y="303.00" xlink:href="#hd"/>
<path d="M658.94 303.00v25.00" class="stroke"/>
<path class="fill"
	d="M658.94 328.00c0.6 -5.6 9.6 -9 5.6 -18.4
	1.6 6 -1.3 11.6 -5.6 12.8
"/>
<use x="662.44" y="309.00" xlink:href="#hd"/>
<use x="702.14" y="306.00" xlink:href="#hd"/>
<path d="M698.64 306.00v21.00" class="stroke"/>
<use x="760.94" y="303.00" xlink:href="#hd"/>
<path d="M757.44 303.00v21.00" class="stroke"/>
<path class="fill"
	d="M757.44 324.00c0.6 -5.6 9.6 -9 5.6 -18.4
	1.6 6 -1.3 11.6 -5.6 12.8
"/>
<path class="fill"
	d="M803.84 295.70l41.60 9.70v3.20l-41.60 -9.70"/>
<use x="800.64" y="315.00" xlink:href="#hd"/>
<path d="M804.14 315.00v-18.20" class="stroke"/>
<use x="821.14" y="324.00" xlink:href="#hd"/>
<path d="M824.64 324.00v-22.40" class="stroke"/>
<use x="841.54" y="330.00" xlink:href="#hl"/>
<use x="841.54" y="336.00" xlink:href="#hl"/>
<use x="841.54" y="336.00" xlink:href="#hd"/>
<path d="M845.04 336.00v-29.60" class="stroke"/>
<use x="434.74" y="318.00" xlink:href="#hd"/>
<path d="M431.24 318.00v21.00" class="stroke"/>
<defs>
<text id="trl" font-family="serif" font-size="16" font-style="italic"
	x="-2" y="-4">tr</text>
</defs>
<use x="286.84" y="232.00" xlink:href="#trl"/>
</g>
</svg>
