<?xml version="1.0" standalone="no"?>
<!DOCTYPE svg PUBLIC "-//W3C//DTD SVG 1.1//EN"
	"http://www.w3.org/Graphics/SVG/1.1/DTD/svg11.dtd">
<svg xmlns="http://www.w3.org/2000/svg" version="1.1"
	xmlns:xlink="http://www.w3.org/1999/xlink"
	color="black"
	width="757.10px" height="300.73px">
<style type="text/css">
.fill {fill: currentColor}
.stroke {stroke: currentColor; fill: none}
text{white-space: pre}
</style>
<title>./K516f-8-8-8-11-12-9-10-12-4-8-4-10-5-5-2-8.abc (1048) tune 1</title>
<!-- Creator: abcm2ps-8.13.8 -->
<!-- CreationDate: Sep  7, 2017 11:19 -->
<!-- CommandLine: ./K516f-8-8-8-11-12-9-10-12-4-8-4-10-5-5-2-8.abc -O ./K516f-8-8-8-11-12-9-10-12-4-8-4-10-5-5-2-8.svg -g -->
<rect width="100%" height="100%" fill="white"/>
<g stroke-width="0.70" transform="scale(0.867)">
<!-- title: 8-8-8-11-12-9-10-12-4-8-4-10-5-5-2-8 -->
</g>
<g stroke-width="0.70" transform="scale(0.867)" font-family="Times" font-size="20.00">
<text x="436.84" y="22.00" text-anchor="middle">8-8-8-11-12-9-10-12-4-8-4-10-5-5-2-8</text>
</g>
<g stroke-width="0.70" transform="scale(0.867)" font-family="Times" font-size="20.00">
<!-- subtitle: $1K.516f::152:60:171:61:28:86:62:5:66:155:15:82:67:160:109:172::$0 -->
</g>
<g stroke-width="0.70" transform="scale(0.867)" font-family="Courier" font-size="8.00" font-weight="bold">
<text x="436.84" y="41.80" text-anchor="middle">K.516f::152:60:171:61:28:86:62:5:66:155:15:82:67:160:109:172::</text>
</g>
<g stroke-width="0.70" transform="scale(0.867)" font-family="Courier" font-size="8.00" font-weight="bold">
<!-- subtitle: $1Perm. No.: 10484776020847$0 -->
<text x="436.84" y="60.80" text-anchor="middle">Perm. No.: 10484776020847</text>
</g>
<g stroke-width="0.70" transform="scale(0.607)" font-family="Courier" font-size="8.00" font-weight="bold">
<defs>
<ellipse id="hd" rx="4.1" ry="2.9"
	transform="rotate(-20)" class="fill"/>
</defs>
<use x="103.06" y="121.29" xlink:href="#hd"/>
<path d="M106.56 121.29v-21.00" class="stroke"/>
<path class="fill"
	d="M106.56 100.29c0.6 5.6 9.6 9 5.6 18.4
	1.6 -6 -1.3 -11.6 -5.6 -12.8
"/>
</g>
<g stroke-width="0.70" transform="scale(0.867)" font-family="Times" font-size="15.00" font-weight="bold">
<text x="81.24" y="87.00">= 111</text>
<path class="stroke" stroke-width="1"
	d="M11.54 183.00v-82.00"/>
<path class="fill"
	d="M6.54 98.00
	c10.5 1 12 -4.5 12 -3.5c0 1 -3.5 5.5 -8.5 5.5
	v84.00
	c5 0 8.5 4.5 8.5 5.5c0 1 -1.5 -4.5 -12 -3.5"/>
<defs>
<g id="rdots" class="fill">
	<circle cx="0" cy="-9" r="1.2"/>
	<circle cx="0" cy="-15" r="1.2"/>
</g>
</defs>
<use x="70.54" y="125.00" xlink:href="#rdots"/>
<path class="stroke" stroke-width="1"
	d="M66.54 125.00v-24.00"/>
<path class="stroke" stroke-width="3"
	d="M62.04 125.00v-24.00"/>
<use x="70.54" y="183.00" xlink:href="#rdots"/>
<path class="stroke" stroke-width="1"
	d="M66.54 183.00v-58.00"/>
<path class="stroke" stroke-width="3"
	d="M62.04 183.00v-58.00"/>
<path class="stroke" stroke-width="1"
	d="M168.14 125.00v-24.00"/>
<path class="stroke" stroke-width="1"
	d="M168.14 183.00v-58.00"/>
<path class="stroke" stroke-width="1"
	d="M264.74 125.00v-24.00"/>
<path class="stroke" stroke-width="1"
	d="M264.74 183.00v-58.00"/>
<path class="stroke" stroke-width="1"
	d="M370.84 125.00v-24.00"/>
<path class="stroke" stroke-width="1"
	d="M370.84 183.00v-58.00"/>
<path class="stroke" stroke-width="1"
	d="M456.44 125.00v-24.00"/>
<path class="stroke" stroke-width="1"
	d="M456.44 183.00v-58.00"/>
<path class="stroke" stroke-width="1"
	d="M568.24 125.00v-24.00"/>
<path class="stroke" stroke-width="1"
	d="M568.24 183.00v-58.00"/>
<path class="stroke" stroke-width="1"
	d="M653.84 125.00v-24.00"/>
<path class="stroke" stroke-width="1"
	d="M653.84 183.00v-58.00"/>
<path class="stroke" stroke-width="1"
	d="M761.84 125.00v-24.00"/>
<path class="stroke" stroke-width="1"
	d="M761.84 183.00v-58.00"/>
<path class="stroke" stroke-width="3"
	d="M860.54 125.00v-24.00"/>
<path class="stroke" stroke-width="1"
	d="M856.04 125.00v-24.00"/>
<use x="852.04" y="125.00" xlink:href="#rdots"/>
<path class="stroke" stroke-width="3"
	d="M860.54 183.00v-58.00"/>
<path class="stroke" stroke-width="1"
	d="M856.04 183.00v-58.00"/>
<use x="852.04" y="183.00" xlink:href="#rdots"/>
<path d="m11.54 125.00
	h850.50
	M11.54 119.00
	h850.50
	M11.54 113.00
	h850.50
	M11.54 107.00
	h850.50
	M11.54 101.00
	h850.50
	" class="stroke"/>
<path d="m11.54 183.00
	h850.50
	M11.54 177.00
	h850.50
	M11.54 171.00
	h850.50
	M11.54 165.00
	h850.50
	M11.54 159.00
	h850.50
	" class="stroke"/>
</g>
<g stroke-width="0.70" transform="scale(0.867)" font-family="Times" font-size="13.00">
<text x="765.84" y="86.40">1</text>
<path class="stroke"
	d="M761.84 75.00m0 20v-20h92.20v20"/>
<defs>
<path id="utclef" class="fill" d="m-50 -90
	c-72 -41 -72 -158 52 -188
	150 -10 220 188 90 256
	-114 52 -275 0 -293 -136
	-15 -181 93 -229 220 -334
	88 -87 79 -133 62 -210
	-51 33 -94 105 -89 186
	17 267 36 374 49 574
	6 96 -19 134 -77 135
	-80 1 -126 -93 -61 -133
	85 -41 133 101 31 105
	23 17 92 37 90 -92
	-10 -223 -39 -342 -50 -617
	0 -90 0 -162 96 -232
	56 72 63 230 22 289
	-74 106 -257 168 -255 316
	9 153 148 185 252 133
	86 -65 29 -192 -80 -176
	-71 12 -105 67 -59 124"/>
<use id="tclef" transform="translate(0,6) scale(0.045)"
	xlink:href="#utclef"/>
</defs>
<use x="23.54" y="119.00" xlink:href="#tclef"/>
<g font-family="serif" font-size="16" font-weight="bold" font-style="normal"
	transform="translate(42.04,124.50) scale(1.2,1)">
	<text text-anchor="middle">8</text>
	<text y="-12" text-anchor="middle">3</text>
</g>
<path class="fill"
	d="M80.54 123.10l71.70 9.10v-3.20l-71.70 -9.10"/>
<path class="fill"
	d="M103.54 121.00l48.30 6.20v-3.20l-48.30 -6.20"/>
<use x="84.44" y="98.00" xlink:href="#hd"/>
<path d="M80.94 98.00v24.10" class="stroke"/>
<use x="107.04" y="101.00" xlink:href="#hd"/>
<path d="M103.54 101.00v24.00" class="stroke"/>
<use x="123.14" y="104.00" xlink:href="#hd"/>
<path d="M119.64 104.00v23.10" class="stroke"/>
<use x="139.24" y="107.00" xlink:href="#hd"/>
<path d="M135.74 107.00v22.10" class="stroke"/>
<use x="155.44" y="110.00" xlink:href="#hd"/>
<path d="M151.94 110.00v21.20" class="stroke"/>
<path class="fill"
	d="M177.14 123.10l71.70 9.10v-3.20l-71.70 -9.10"/>
<path class="fill"
	d="M200.14 121.00l48.30 6.20v-3.20l-48.30 -6.20"/>
<use x="181.04" y="98.00" xlink:href="#hd"/>
<path d="M177.54 98.00v24.10" class="stroke"/>
<use x="203.64" y="101.00" xlink:href="#hd"/>
<path d="M200.14 101.00v24.00" class="stroke"/>
<use x="219.74" y="104.00" xlink:href="#hd"/>
<path d="M216.24 104.00v23.10" class="stroke"/>
<use x="235.84" y="107.00" xlink:href="#hd"/>
<path d="M232.34 107.00v22.10" class="stroke"/>
<use x="251.94" y="110.00" xlink:href="#hd"/>
<path d="M248.44 110.00v21.20" class="stroke"/>
<path class="fill"
	d="M273.74 133.00l81.20 0.00v-3.20l-81.20 -0.00"/>
<path class="fill"
	d="M274.04 128.00l80.60 0.00v-3.20l-80.60 -0.00"/>
<use x="277.54" y="113.00" xlink:href="#hd"/>
<path d="M274.04 113.00v18.90" class="stroke"/>
<use x="293.74" y="110.00" xlink:href="#hd"/>
<path d="M290.24 110.00v21.90" class="stroke"/>
<use x="309.84" y="107.00" xlink:href="#hd"/>
<path d="M306.34 107.00v24.90" class="stroke"/>
<use x="325.94" y="104.00" xlink:href="#hd"/>
<path d="M322.44 104.00v27.90" class="stroke"/>
<use x="342.04" y="101.00" xlink:href="#hd"/>
<path d="M338.54 101.00v30.90" class="stroke"/>
<use x="358.14" y="107.00" xlink:href="#hd"/>
<path d="M354.64 107.00v24.90" class="stroke"/>
<path class="fill"
	d="M379.94 135.40l55.60 -4.50v-3.20l-55.60 4.50"/>
<path class="fill"
	d="M402.94 128.50l16.10 -1.30v-3.20l-16.10 1.30"/>
<use x="383.74" y="110.00" xlink:href="#hd"/>
<path d="M380.24 110.00v24.30" class="stroke"/>
<use x="406.44" y="104.00" xlink:href="#hd"/>
<path d="M402.94 104.00v28.50" class="stroke"/>
<use x="422.54" y="110.00" xlink:href="#hd"/>
<path d="M419.04 110.00v21.20" class="stroke"/>
<use x="438.64" y="98.00" xlink:href="#hd"/>
<path d="M435.14 98.00v31.90" class="stroke"/>
<path class="fill"
	d="M471.14 138.20l81.20 0.00v-3.20l-81.20 -0.00"/>
<path class="fill"
	d="M471.44 133.20l80.60 0.00v-3.20l-80.60 -0.00"/>
<use x="474.94" y="101.00" xlink:href="#hd"/>
<defs>
<path id="usharp" class="fill" d="
	m136 -702
	v890
	h32
	v-890
	m128 840
	h32
	v-888
	h-32
	m-232 286
	v116
	l338 -96
	v-116
	m-338 442
	v116
	l338 -98
	v-114"/>
<use id="sh0" transform="translate(-4,5) scale(0.018)"
	xlink:href="#usharp"/>
</defs>
<use x="465.94" y="101.00" xlink:href="#sh0"/>
<path d="M471.44 101.00v36.20" class="stroke"/>
<use x="491.04" y="107.00" xlink:href="#hd"/>
<path d="M487.54 107.00v30.20" class="stroke"/>
<use x="507.14" y="116.00" xlink:href="#hd"/>
<path d="M503.64 116.00v21.20" class="stroke"/>
<defs>
<path id="hl" class="stroke" d="m-6 0h12"/>
</defs>
<use x="523.24" y="95.00" xlink:href="#hl"/>
<use x="523.24" y="95.00" xlink:href="#hd"/>
<path d="M519.74 95.00v42.20" class="stroke"/>
<use x="539.34" y="101.00" xlink:href="#hd"/>
<path d="M535.84 101.00v36.20" class="stroke"/>
<use x="555.54" y="107.00" xlink:href="#hd"/>
<path d="M552.04 107.00v30.20" class="stroke"/>
<path class="fill"
	d="M577.24 132.10l55.60 -7.10v-3.20l-55.60 7.10"/>
<path class="fill"
	d="M600.24 124.20l16.10 -2.00v-3.20l-16.10 2.00"/>
<use x="581.14" y="107.00" xlink:href="#hd"/>
<path d="M577.64 107.00v24.10" class="stroke"/>
<use x="603.74" y="107.00" xlink:href="#hd"/>
<path d="M600.24 107.00v21.20" class="stroke"/>
<use x="619.84" y="98.00" xlink:href="#hd"/>
<path d="M616.34 98.00v28.20" class="stroke"/>
<use x="635.94" y="95.00" xlink:href="#hl"/>
<use x="635.94" y="92.00" xlink:href="#hd"/>
<path d="M632.44 92.00v32.10" class="stroke"/>
<path class="fill"
	d="M669.84 81.80l83.10 8.00v3.20l-83.10 -8.00"/>
<path class="fill"
	d="M670.14 86.80l82.40 7.90v3.20l-82.40 -7.90"/>
<use x="666.64" y="104.00" xlink:href="#hd"/>
<path d="M670.14 104.00v-21.20" class="stroke"/>
<use x="682.74" y="110.00" xlink:href="#hd"/>
<path d="M686.24 110.00v-25.60" class="stroke"/>
<use x="698.84" y="113.00" xlink:href="#hd"/>
<path d="M702.34 113.00v-27.10" class="stroke"/>
<use x="715.04" y="119.00" xlink:href="#hd"/>
<path d="M718.54 119.00v-31.50" class="stroke"/>
<use x="731.14" y="116.00" xlink:href="#hd"/>
<path d="M734.64 116.00v-27.00" class="stroke"/>
<use x="749.14" y="122.00" xlink:href="#hd"/>
<use x="740.14" y="122.00" xlink:href="#sh0"/>
<path d="M752.64 122.00v-31.30" class="stroke"/>
<use x="774.74" y="98.00" xlink:href="#hd"/>
<path d="M771.24 98.00v40.00" class="stroke"/>
<use x="774.74" y="119.00" xlink:href="#hd"/>
<use x="774.74" y="113.00" xlink:href="#hd"/>
<use x="774.74" y="107.00" xlink:href="#hd"/>
<defs>
<path id="r8e" class="fill" d="m 0 0
	c-1.5 1.5 -2.4 2 -3.6 2
	2.4 -2.8 -2.8 -4 -2.8 -1.2
	c0 2.7 4.3 2.4 5.9 0.6"/>
<g id="r8">
	<path d="m3.3 -4l-3.4 9.6" class="stroke"/>
	<use x="3.4" y="-4" xlink:href="#r8e"/>
</g>
</defs>
<use x="831.44" y="113.00" xlink:href="#r8"/>
<defs>
<path id="ubclef" class="fill" d="m-200 -87
	c124 -35 222 -78 254 -236
	43 -228 -167 -246 -192 -103
	59 -80 157 22 92 78
	-62 47 -115 -22 -106 -88
	21 -141 270 -136 274 52
	-1 175 -106 264 -322 297
	m357 -250
	c0 -36 51 -34 51 0
	0 37 -51 36 -51 0
	m-2 -129
	c0 -36 51 -34 51 0
	0 38 -51 37 -51 0"/>
<use id="bclef" transform="translate(0,18) scale(0.045)"
	xlink:href="#ubclef"/>
</defs>
<use x="23.54" y="165.00" xlink:href="#bclef"/>
<g font-family="serif" font-size="16" font-weight="bold" font-style="normal"
	transform="translate(42.04,182.50) scale(1.2,1)">
	<text text-anchor="middle">8</text>
	<text y="-12" text-anchor="middle">3</text>
</g>
<use x="84.44" y="168.00" xlink:href="#hd"/>
<path d="M80.94 168.00v25.00" class="stroke"/>
<use x="84.44" y="174.00" xlink:href="#hd"/>
<use x="139.24" y="171.00" xlink:href="#r8"/>
<use x="181.04" y="168.00" xlink:href="#hd"/>
<path d="M177.54 168.00v25.00" class="stroke"/>
<use x="181.04" y="174.00" xlink:href="#hd"/>
<use x="235.84" y="171.00" xlink:href="#r8"/>
<use x="277.54" y="183.00" xlink:href="#hd"/>
<path d="M281.04 183.00v-40.00" class="stroke"/>
<use x="277.54" y="162.00" xlink:href="#hd"/>
<use x="342.04" y="162.00" xlink:href="#hd"/>
<path d="M338.54 162.00v34.00" class="stroke"/>
<path class="fill"
	d="M338.54 196.00c0.6 -5.6 9.6 -9 5.6 -18.4
	1.6 6 -1.3 11.6 -5.6 12.8
"/>
<use x="342.04" y="177.00" xlink:href="#hd"/>
<use x="383.74" y="162.00" xlink:href="#hd"/>
<path d="M380.24 162.00v25.00" class="stroke"/>
<use x="383.74" y="168.00" xlink:href="#hd"/>
<use x="438.64" y="171.00" xlink:href="#r8"/>
<use x="474.94" y="159.00" xlink:href="#hd"/>
<path d="M471.44 159.00v34.00" class="stroke"/>
<use x="474.94" y="174.00" xlink:href="#hd"/>
<use x="539.34" y="171.00" xlink:href="#r8"/>
<use x="581.14" y="162.00" xlink:href="#hd"/>
<path d="M577.64 162.00v34.00" class="stroke"/>
<use x="581.14" y="177.00" xlink:href="#hd"/>
<use x="635.94" y="171.00" xlink:href="#r8"/>
<path class="fill"
	d="M669.84 147.70l65.10 8.20v3.20l-65.10 -8.20"/>
<use x="666.64" y="174.00" xlink:href="#hd"/>
<path d="M670.14 174.00v-25.20" class="stroke"/>
<use x="698.84" y="171.00" xlink:href="#hd"/>
<path d="M702.34 171.00v-18.20" class="stroke"/>
<use x="731.14" y="189.00" xlink:href="#hl"/>
<use x="731.14" y="192.00" xlink:href="#hd"/>
<path d="M734.64 192.00v-35.20" class="stroke"/>
<path class="fill"
	d="M770.84 202.20l73.60 0.00v-3.20l-73.60 -0.00"/>
<path class="fill"
	d="M793.84 197.20l50.20 0.00v-3.20l-50.20 -0.00"/>
<use x="774.74" y="183.00" xlink:href="#hd"/>
<path d="M771.24 183.00v18.20" class="stroke"/>
<use x="797.34" y="162.00" xlink:href="#hd"/>
<path d="M793.84 162.00v39.20" class="stroke"/>
<use x="815.34" y="165.00" xlink:href="#hd"/>
<defs>
<path id="unat" class="fill" d="
	m96 -750
	h-32
	v716
	l32 -8
	182 -54
	v282
	h32
	v-706
	l-34 10
	-180 50
	v-290
	m0 592
	v-190
	l182 -52
	v188"/>
<use id="nt0" transform="translate(-3,5) scale(0.018)"
	xlink:href="#unat"/>
</defs>
<use x="806.34" y="165.00" xlink:href="#nt0"/>
<path d="M811.84 165.00v36.20" class="stroke"/>
<use x="831.44" y="168.00" xlink:href="#hd"/>
<path d="M827.94 168.00v33.20" class="stroke"/>
<use x="847.64" y="171.00" xlink:href="#hd"/>
<path d="M844.14 171.00v30.20" class="stroke"/>
</g>
<g stroke-width="0.70" transform="scale(0.867)" font-family="Times" font-size="13.00">
<path class="stroke" stroke-width="1"
	d="M11.54 324.00v-90.00"/>
<path class="fill"
	d="M6.54 231.00
	c10.5 1 12 -4.5 12 -3.5c0 1 -3.5 5.5 -8.5 5.5
	v92.00
	c5 0 8.5 4.5 8.5 5.5c0 1 -1.5 -4.5 -12 -3.5"/>
<use x="144.04" y="258.00" xlink:href="#rdots"/>
<path class="stroke" stroke-width="1"
	d="M140.04 258.00v-24.00"/>
<path class="stroke" stroke-width="3"
	d="M135.54 258.00v-24.00"/>
<use x="144.04" y="324.00" xlink:href="#rdots"/>
<path class="stroke" stroke-width="1"
	d="M140.04 324.00v-66.00"/>
<path class="stroke" stroke-width="3"
	d="M135.54 324.00v-66.00"/>
<path class="stroke" stroke-width="1"
	d="M230.34 258.00v-24.00"/>
<path class="stroke" stroke-width="1"
	d="M230.34 324.00v-66.00"/>
<path class="stroke" stroke-width="1"
	d="M329.74 258.00v-24.00"/>
<path class="stroke" stroke-width="1"
	d="M329.74 324.00v-66.00"/>
<path class="stroke" stroke-width="1"
	d="M409.34 258.00v-24.00"/>
<path class="stroke" stroke-width="1"
	d="M409.34 324.00v-66.00"/>
<path class="stroke" stroke-width="1"
	d="M489.34 258.00v-24.00"/>
<path class="stroke" stroke-width="1"
	d="M489.34 324.00v-66.00"/>
<path class="stroke" stroke-width="1"
	d="M588.74 258.00v-24.00"/>
<path class="stroke" stroke-width="1"
	d="M588.74 324.00v-66.00"/>
<path class="stroke" stroke-width="1"
	d="M688.14 258.00v-24.00"/>
<path class="stroke" stroke-width="1"
	d="M688.14 324.00v-66.00"/>
<path class="stroke" stroke-width="1"
	d="M787.54 258.00v-24.00"/>
<path class="stroke" stroke-width="1"
	d="M787.54 324.00v-66.00"/>
<path class="stroke" stroke-width="3"
	d="M860.54 258.00v-24.00"/>
<path class="stroke" stroke-width="1"
	d="M856.04 258.00v-24.00"/>
<use x="852.04" y="258.00" xlink:href="#rdots"/>
<path class="stroke" stroke-width="3"
	d="M860.54 324.00v-66.00"/>
<path class="stroke" stroke-width="1"
	d="M856.04 324.00v-66.00"/>
<use x="852.04" y="324.00" xlink:href="#rdots"/>
<path d="m11.54 258.00
	h850.50
	M11.54 252.00
	h850.50
	M11.54 246.00
	h850.50
	M11.54 240.00
	h850.50
	M11.54 234.00
	h850.50
	" class="stroke"/>
<path d="m11.54 324.00
	h850.50
	M11.54 318.00
	h850.50
	M11.54 312.00
	h850.50
	M11.54 306.00
	h850.50
	M11.54 300.00
	h850.50
	" class="stroke"/>
<text x="47.54" y="219.40">2</text>
<path class="stroke"
	d="M43.54 208.00m0 20v-20h89.50v20"/>
<use x="23.54" y="252.00" xlink:href="#tclef"/>
<use x="56.04" y="231.00" xlink:href="#hd"/>
<path d="M52.54 231.00v40.00" class="stroke"/>
<use x="56.04" y="252.00" xlink:href="#hd"/>
<use x="56.04" y="246.00" xlink:href="#hd"/>
<use x="56.04" y="240.00" xlink:href="#hd"/>
<use x="109.64" y="246.00" xlink:href="#r8"/>
<path class="fill"
	d="M159.74 252.20l42.90 0.00v-3.20l-42.90 -0.00"/>
<use x="163.54" y="234.00" xlink:href="#hd"/>
<use x="154.54" y="234.00" xlink:href="#sh0"/>
<path d="M160.04 234.00v17.20" class="stroke"/>
<use x="185.04" y="228.00" xlink:href="#hl"/>
<use x="185.04" y="228.00" xlink:href="#hd"/>
<path d="M181.54 228.00v23.20" class="stroke"/>
<use x="205.84" y="234.00" xlink:href="#hd"/>
<path d="M202.34 234.00v17.20" class="stroke"/>
<path class="fill"
	d="M238.94 263.40l75.10 10.90v-3.20l-75.10 -10.90"/>
<path class="fill"
	d="M239.34 258.40l74.40 10.80v-3.20l-74.40 -10.80"/>
<use x="242.84" y="231.00" xlink:href="#hd"/>
<path d="M239.34 231.00v31.40" class="stroke"/>
<use x="257.64" y="228.00" xlink:href="#hl"/>
<use x="257.64" y="225.00" xlink:href="#hd"/>
<path d="M254.14 225.00v39.60" class="stroke"/>
<use x="272.54" y="231.00" xlink:href="#hd"/>
<path d="M269.04 231.00v35.70" class="stroke"/>
<use x="287.44" y="240.00" xlink:href="#hd"/>
<path d="M283.94 240.00v28.90" class="stroke"/>
<use x="302.34" y="246.00" xlink:href="#hd"/>
<path d="M298.84 246.00v25.00" class="stroke"/>
<use x="317.24" y="252.00" xlink:href="#hd"/>
<path d="M313.74 252.00v21.20" class="stroke"/>
<path class="fill"
	d="M338.34 260.00l51.20 0.00v-3.20l-51.20 -0.00"/>
<path class="fill"
	d="M359.44 255.00l14.90 0.00v-3.20l-14.90 -0.00"/>
<use x="342.24" y="237.00" xlink:href="#hd"/>
<path d="M338.74 237.00v22.00" class="stroke"/>
<use x="362.94" y="231.00" xlink:href="#hd"/>
<path d="M359.44 231.00v28.00" class="stroke"/>
<use x="377.84" y="237.00" xlink:href="#hd"/>
<path d="M374.34 237.00v22.00" class="stroke"/>
<use x="392.74" y="243.00" xlink:href="#hd"/>
<path d="M389.24 243.00v16.00" class="stroke"/>
<path class="fill"
	d="M417.94 273.70l51.20 -4.30v-3.20l-51.20 4.30"/>
<path class="fill"
	d="M418.34 268.70l14.90 -1.20v-3.20l-14.90 1.20"/>
<use x="421.84" y="240.00" xlink:href="#hd"/>
<path d="M418.34 240.00v32.70" class="stroke"/>
<use x="436.74" y="246.00" xlink:href="#hd"/>
<path d="M433.24 246.00v25.40" class="stroke"/>
<use x="451.54" y="252.00" xlink:href="#hd"/>
<path d="M448.04 252.00v18.20" class="stroke"/>
<use x="472.34" y="231.00" xlink:href="#hd"/>
<path d="M468.84 231.00v37.50" class="stroke"/>
<path class="fill"
	d="M497.94 274.20l75.10 0.00v-3.20l-75.10 -0.00"/>
<path class="fill"
	d="M498.34 269.20l74.40 0.00v-3.20l-74.40 -0.00"/>
<use x="501.84" y="243.00" xlink:href="#hd"/>
<path d="M498.34 243.00v30.20" class="stroke"/>
<use x="516.74" y="246.00" xlink:href="#hd"/>
<path d="M513.24 246.00v27.20" class="stroke"/>
<use x="531.54" y="243.00" xlink:href="#hd"/>
<path d="M528.04 243.00v30.20" class="stroke"/>
<use x="546.44" y="237.00" xlink:href="#hd"/>
<path d="M542.94 237.00v36.20" class="stroke"/>
<use x="561.34" y="252.00" xlink:href="#hd"/>
<path d="M557.84 252.00v21.20" class="stroke"/>
<use x="576.24" y="243.00" xlink:href="#hd"/>
<path d="M572.74 243.00v30.20" class="stroke"/>
<path class="fill"
	d="M597.44 274.20l75.10 0.00v-3.20l-75.10 -0.00"/>
<path class="fill"
	d="M597.74 269.20l74.40 0.00v-3.20l-74.40 -0.00"/>
<use x="601.24" y="243.00" xlink:href="#hd"/>
<path d="M597.74 243.00v30.20" class="stroke"/>
<use x="616.14" y="246.00" xlink:href="#hd"/>
<path d="M612.64 246.00v27.20" class="stroke"/>
<use x="631.04" y="243.00" xlink:href="#hd"/>
<path d="M627.54 243.00v30.20" class="stroke"/>
<use x="645.84" y="237.00" xlink:href="#hd"/>
<path d="M642.34 237.00v36.20" class="stroke"/>
<use x="660.74" y="252.00" xlink:href="#hd"/>
<path d="M657.24 252.00v21.20" class="stroke"/>
<use x="675.64" y="243.00" xlink:href="#hd"/>
<path d="M672.14 243.00v30.20" class="stroke"/>
<path class="fill"
	d="M696.84 266.00l75.10 0.00v-3.20l-75.10 -0.00"/>
<path class="fill"
	d="M697.14 261.00l74.40 0.00v-3.20l-74.40 -0.00"/>
<use x="700.64" y="240.00" xlink:href="#hd"/>
<path d="M697.14 240.00v24.90" class="stroke"/>
<use x="715.54" y="234.00" xlink:href="#hd"/>
<path d="M712.04 234.00v30.90" class="stroke"/>
<use x="730.44" y="240.00" xlink:href="#hd"/>
<path d="M726.94 240.00v24.90" class="stroke"/>
<use x="745.34" y="234.00" xlink:href="#hd"/>
<path d="M741.84 234.00v30.90" class="stroke"/>
<use x="760.14" y="246.00" xlink:href="#hd"/>
<path d="M756.64 246.00v18.90" class="stroke"/>
<use x="775.04" y="240.00" xlink:href="#hd"/>
<path d="M771.54 240.00v24.90" class="stroke"/>
<use x="800.04" y="243.00" xlink:href="#hd"/>
<path d="M796.54 243.00v21.00" class="stroke"/>
<use x="841.54" y="246.00" xlink:href="#r8"/>
<use x="23.54" y="306.00" xlink:href="#bclef"/>
<path class="fill"
	d="M52.24 343.20l69.20 -5.00v-3.20l-69.20 5.00"/>
<path class="fill"
	d="M73.24 336.70l47.80 -3.50v-3.20l-47.80 3.50"/>
<use x="56.04" y="324.00" xlink:href="#hd"/>
<path d="M52.54 324.00v18.20" class="stroke"/>
<use x="76.74" y="297.00" xlink:href="#hd"/>
<path d="M73.24 297.00v43.70" class="stroke"/>
<use x="91.64" y="303.00" xlink:href="#hd"/>
<path d="M88.14 303.00v36.60" class="stroke"/>
<use x="109.64" y="306.00" xlink:href="#hd"/>
<use x="100.64" y="306.00" xlink:href="#sh0"/>
<path d="M106.14 306.00v32.30" class="stroke"/>
<use x="124.54" y="309.00" xlink:href="#hd"/>
<path d="M121.04 309.00v28.20" class="stroke"/>
<path class="fill"
	d="M166.74 280.70l42.90 7.80v3.20l-42.90 -7.80"/>
<use x="163.54" y="300.00" xlink:href="#hd"/>
<path d="M167.04 300.00v-18.20" class="stroke"/>
<use x="185.04" y="306.00" xlink:href="#hd"/>
<use x="176.04" y="306.00" xlink:href="#sh0"/>
<path d="M188.54 306.00v-20.30" class="stroke"/>
<use x="205.84" y="312.00" xlink:href="#hd"/>
<path d="M209.34 312.00v-22.50" class="stroke"/>
<use x="242.84" y="318.00" xlink:href="#hd"/>
<path d="M246.34 318.00v-25.00" class="stroke"/>
<use x="242.84" y="312.00" xlink:href="#hd"/>
<use x="302.34" y="312.00" xlink:href="#r8"/>
<use x="342.24" y="303.00" xlink:href="#hd"/>
<path d="M338.74 303.00v31.00" class="stroke"/>
<use x="342.24" y="315.00" xlink:href="#hd"/>
<use x="392.74" y="309.00" xlink:href="#hd"/>
<path d="M389.24 309.00v25.00" class="stroke"/>
<path class="fill"
	d="M389.24 334.00c0.6 -5.6 9.6 -9 5.6 -18.4
	1.6 6 -1.3 11.6 -5.6 12.8
"/>
<use x="392.74" y="315.00" xlink:href="#hd"/>
<use x="421.84" y="303.00" xlink:href="#hd"/>
<path d="M425.34 303.00v-21.00" class="stroke"/>
<use x="472.34" y="318.00" xlink:href="#hd"/>
<path d="M475.84 318.00v-25.00" class="stroke"/>
<path class="fill"
	d="M475.84 293.00c0.6 5.6 9.6 9 5.6 18.4
	1.6 -6 -1.3 -11.6 -5.6 -12.8
"/>
<use x="472.34" y="312.00" xlink:href="#hd"/>
<use x="501.84" y="309.00" xlink:href="#hd"/>
<path d="M498.34 309.00v25.00" class="stroke"/>
<use x="501.84" y="315.00" xlink:href="#hd"/>
<use x="561.34" y="303.00" xlink:href="#hd"/>
<path d="M557.84 303.00v25.00" class="stroke"/>
<path class="fill"
	d="M557.84 328.00c0.6 -5.6 9.6 -9 5.6 -18.4
	1.6 6 -1.3 11.6 -5.6 12.8
"/>
<use x="561.34" y="309.00" xlink:href="#hd"/>
<use x="601.24" y="309.00" xlink:href="#hd"/>
<path d="M597.74 309.00v25.00" class="stroke"/>
<use x="601.24" y="315.00" xlink:href="#hd"/>
<use x="660.74" y="309.00" xlink:href="#hd"/>
<path d="M657.24 309.00v25.00" class="stroke"/>
<path class="fill"
	d="M657.24 334.00c0.6 -5.6 9.6 -9 5.6 -18.4
	1.6 6 -1.3 11.6 -5.6 12.8
"/>
<use x="660.74" y="315.00" xlink:href="#hd"/>
<use x="700.64" y="300.00" xlink:href="#hd"/>
<path d="M697.14 300.00v25.00" class="stroke"/>
<use x="700.64" y="306.00" xlink:href="#hd"/>
<use x="760.14" y="294.00" xlink:href="#hl"/>
<use x="760.14" y="291.00" xlink:href="#hd"/>
<path d="M756.64 291.00v31.00" class="stroke"/>
<path class="fill"
	d="M756.64 322.00c0.6 -5.6 9.6 -9 5.6 -18.4
	1.6 6 -1.3 11.6 -5.6 12.8
"/>
<use x="760.14" y="303.00" xlink:href="#hd"/>
<path class="fill"
	d="M803.24 295.70l42.10 9.80v3.20l-42.10 -9.80"/>
<use x="800.04" y="315.00" xlink:href="#hd"/>
<path d="M803.54 315.00v-18.20" class="stroke"/>
<use x="820.84" y="324.00" xlink:href="#hd"/>
<path d="M824.34 324.00v-22.40" class="stroke"/>
<use x="841.54" y="330.00" xlink:href="#hl"/>
<use x="841.54" y="336.00" xlink:href="#hl"/>
<use x="841.54" y="336.00" xlink:href="#hd"/>
<path d="M845.04 336.00v-29.60" class="stroke"/>
<path class="fill"
	d="M159.74 334.20l50.90 0.00v-3.20l-50.90 -0.00"/>
<use x="163.54" y="312.00" xlink:href="#hd"/>
<path d="M160.04 312.00v21.20" class="stroke"/>
<use x="185.04" y="312.00" xlink:href="#hd"/>
<path d="M181.54 312.00v21.20" class="stroke"/>
<use x="213.84" y="315.00" xlink:href="#hd"/>
<path d="M210.34 315.00v18.20" class="stroke"/>
<use x="421.84" y="318.00" xlink:href="#hd"/>
<path d="M418.34 318.00v21.00" class="stroke"/>
</g>
</svg>
