<?xml version="1.0" standalone="no"?>
<!DOCTYPE svg PUBLIC "-//W3C//DTD SVG 1.1//EN"
	"http://www.w3.org/Graphics/SVG/1.1/DTD/svg11.dtd">
<svg xmlns="http://www.w3.org/2000/svg" version="1.1"
	xmlns:xlink="http://www.w3.org/1999/xlink"
	color="black"
	width="757.10px" height="304.20px">
<style type="text/css">
.fill {fill: currentColor}
.stroke {stroke: currentColor; fill: none}
text{white-space: pre}
</style>
<title>./K516f-6-10-7-2-6-4-8-2-10-9-12-4-5-8-3-3.abc (5428) tune 1</title>
<!-- Creator: abcm2ps-8.13.8 -->
<!-- CreationDate: Sep  7, 2017 11:17 -->
<!-- CommandLine: ./K516f-6-10-7-2-6-4-8-2-10-9-12-4-5-8-3-3.abc -O ./K516f-6-10-7-2-6-4-8-2-10-9-12-4-5-8-3-3.svg -g -->
<rect width="100%" height="100%" fill="white"/>
<g stroke-width="0.70" transform="scale(0.867)">
<!-- title: 6-10-7-2-6-4-8-2-10-9-12-4-5-8-3-3 -->
</g>
<g stroke-width="0.70" transform="scale(0.867)" font-family="Times" font-size="20.00">
<text x="436.84" y="22.00" text-anchor="middle">6-10-7-2-6-4-8-2-10-9-12-4-5-8-3-3</text>
</g>
<g stroke-width="0.70" transform="scale(0.867)" font-family="Times" font-size="20.00">
<!-- subtitle: $1K.516f::148:142:27:41:80:55:21:30:65:88:108:132:67:168:116:83::$0 -->
</g>
<g stroke-width="0.70" transform="scale(0.867)" font-family="Courier" font-size="8.00" font-weight="bold">
<text x="436.84" y="41.80" text-anchor="middle">K.516f::148:142:27:41:80:55:21:30:65:88:108:132:67:168:116:83::</text>
</g>
<g stroke-width="0.70" transform="scale(0.867)" font-family="Courier" font-size="8.00" font-weight="bold">
<!-- subtitle: $1Perm. No.: 54286339162467$0 -->
<text x="436.84" y="60.80" text-anchor="middle">Perm. No.: 54286339162467</text>
</g>
<g stroke-width="0.70" transform="scale(0.607)" font-family="Courier" font-size="8.00" font-weight="bold">
<defs>
<ellipse id="hd" rx="4.1" ry="2.9"
	transform="rotate(-20)" class="fill"/>
</defs>
<use x="103.06" y="121.29" xlink:href="#hd"/>
<path d="M106.56 121.29v-21.00" class="stroke"/>
<path class="fill"
	d="M106.56 100.29c0.6 5.6 9.6 9 5.6 18.4
	1.6 -6 -1.3 -11.6 -5.6 -12.8
"/>
</g>
<g stroke-width="0.70" transform="scale(0.867)" font-family="Times" font-size="15.00" font-weight="bold">
<text x="81.24" y="87.00">= 111</text>
<path class="stroke" stroke-width="1"
	d="M11.54 191.00v-82.00"/>
<path class="fill"
	d="M6.54 106.00
	c10.5 1 12 -4.5 12 -3.5c0 1 -3.5 5.5 -8.5 5.5
	v84.00
	c5 0 8.5 4.5 8.5 5.5c0 1 -1.5 -4.5 -12 -3.5"/>
<defs>
<g id="rdots" class="fill">
	<circle cx="0" cy="-9" r="1.2"/>
	<circle cx="0" cy="-15" r="1.2"/>
</g>
</defs>
<use x="70.54" y="133.00" xlink:href="#rdots"/>
<path class="stroke" stroke-width="1"
	d="M66.54 133.00v-24.00"/>
<path class="stroke" stroke-width="3"
	d="M62.04 133.00v-24.00"/>
<use x="70.54" y="191.00" xlink:href="#rdots"/>
<path class="stroke" stroke-width="1"
	d="M66.54 191.00v-58.00"/>
<path class="stroke" stroke-width="3"
	d="M62.04 191.00v-58.00"/>
<path class="stroke" stroke-width="1"
	d="M184.64 133.00v-24.00"/>
<path class="stroke" stroke-width="1"
	d="M184.64 191.00v-58.00"/>
<path class="stroke" stroke-width="1"
	d="M265.74 133.00v-24.00"/>
<path class="stroke" stroke-width="1"
	d="M265.74 191.00v-58.00"/>
<path class="stroke" stroke-width="1"
	d="M378.84 133.00v-24.00"/>
<path class="stroke" stroke-width="1"
	d="M378.84 191.00v-58.00"/>
<path class="stroke" stroke-width="1"
	d="M480.14 133.00v-24.00"/>
<path class="stroke" stroke-width="1"
	d="M480.14 191.00v-58.00"/>
<path class="stroke" stroke-width="1"
	d="M561.44 133.00v-24.00"/>
<path class="stroke" stroke-width="1"
	d="M561.44 191.00v-58.00"/>
<path class="stroke" stroke-width="1"
	d="M642.54 133.00v-24.00"/>
<path class="stroke" stroke-width="1"
	d="M642.54 191.00v-58.00"/>
<path class="stroke" stroke-width="1"
	d="M756.44 133.00v-24.00"/>
<path class="stroke" stroke-width="1"
	d="M756.44 191.00v-58.00"/>
<path class="stroke" stroke-width="3"
	d="M860.54 133.00v-24.00"/>
<path class="stroke" stroke-width="1"
	d="M856.04 133.00v-24.00"/>
<use x="852.04" y="133.00" xlink:href="#rdots"/>
<path class="stroke" stroke-width="3"
	d="M860.54 191.00v-58.00"/>
<path class="stroke" stroke-width="1"
	d="M856.04 191.00v-58.00"/>
<use x="852.04" y="191.00" xlink:href="#rdots"/>
<path d="m11.54 133.00
	h850.50
	M11.54 127.00
	h850.50
	M11.54 121.00
	h850.50
	M11.54 115.00
	h850.50
	M11.54 109.00
	h850.50
	" class="stroke"/>
<path d="m11.54 191.00
	h850.50
	M11.54 185.00
	h850.50
	M11.54 179.00
	h850.50
	M11.54 173.00
	h850.50
	M11.54 167.00
	h850.50
	" class="stroke"/>
</g>
<g stroke-width="0.70" transform="scale(0.867)" font-family="Times" font-size="13.00">
<text x="760.44" y="94.40">1</text>
<path class="stroke"
	d="M756.44 83.00m0 20v-20h97.60v20"/>
<defs>
<path id="utclef" class="fill" d="m-50 -90
	c-72 -41 -72 -158 52 -188
	150 -10 220 188 90 256
	-114 52 -275 0 -293 -136
	-15 -181 93 -229 220 -334
	88 -87 79 -133 62 -210
	-51 33 -94 105 -89 186
	17 267 36 374 49 574
	6 96 -19 134 -77 135
	-80 1 -126 -93 -61 -133
	85 -41 133 101 31 105
	23 17 92 37 90 -92
	-10 -223 -39 -342 -50 -617
	0 -90 0 -162 96 -232
	56 72 63 230 22 289
	-74 106 -257 168 -255 316
	9 153 148 185 252 133
	86 -65 29 -192 -80 -176
	-71 12 -105 67 -59 124"/>
<use id="tclef" transform="translate(0,6) scale(0.045)"
	xlink:href="#utclef"/>
</defs>
<use x="23.54" y="127.00" xlink:href="#tclef"/>
<g font-family="serif" font-size="16" font-weight="bold" font-style="normal"
	transform="translate(42.04,132.50) scale(1.2,1)">
	<text text-anchor="middle">8</text>
	<text y="-12" text-anchor="middle">3</text>
</g>
<path class="fill"
	d="M81.24 130.60l86.70 9.70v-3.20l-86.70 -9.70"/>
<path class="fill"
	d="M81.64 125.60l86.00 9.60v-3.20l-86.00 -9.60"/>
<defs>
<path id="hl" class="stroke" d="m-6 0h12"/>
</defs>
<use x="85.14" y="103.00" xlink:href="#hl"/>
<use x="85.14" y="97.00" xlink:href="#hl"/>
<use x="85.14" y="97.00" xlink:href="#hd"/>
<path d="M81.64 97.00v32.60" class="stroke"/>
<use x="102.34" y="103.00" xlink:href="#hl"/>
<use x="102.34" y="100.00" xlink:href="#hd"/>
<path d="M98.84 100.00v31.50" class="stroke"/>
<use x="119.54" y="103.00" xlink:href="#hl"/>
<use x="119.54" y="97.00" xlink:href="#hl"/>
<use x="119.54" y="97.00" xlink:href="#hd"/>
<path d="M116.04 97.00v36.40" class="stroke"/>
<use x="136.74" y="106.00" xlink:href="#hd"/>
<path d="M133.24 106.00v29.40" class="stroke"/>
<use x="153.94" y="112.00" xlink:href="#hd"/>
<path d="M150.44 112.00v25.30" class="stroke"/>
<use x="171.14" y="118.00" xlink:href="#hd"/>
<path d="M167.64 118.00v21.20" class="stroke"/>
<path class="fill"
	d="M194.34 147.80l49.30 -3.20v-3.20l-49.30 3.20"/>
<use x="198.24" y="118.00" xlink:href="#hd"/>
<path d="M194.74 118.00v28.80" class="stroke"/>
<use x="222.54" y="127.00" xlink:href="#hd"/>
<path d="M219.04 127.00v18.20" class="stroke"/>
<use x="246.84" y="112.00" xlink:href="#hd"/>
<path d="M243.34 112.00v31.60" class="stroke"/>
<path class="fill"
	d="M275.54 137.00l86.70 6.20v-3.20l-86.70 -6.20"/>
<path class="fill"
	d="M275.84 132.00l86.00 6.20v-3.20l-86.00 -6.20"/>
<use x="279.34" y="109.00" xlink:href="#hd"/>
<path d="M275.84 109.00v27.00" class="stroke"/>
<use x="296.54" y="112.00" xlink:href="#hd"/>
<path d="M293.04 112.00v25.30" class="stroke"/>
<use x="313.74" y="109.00" xlink:href="#hd"/>
<path d="M310.24 109.00v29.50" class="stroke"/>
<use x="330.94" y="115.00" xlink:href="#hd"/>
<path d="M327.44 115.00v24.70" class="stroke"/>
<use x="348.14" y="118.00" xlink:href="#hd"/>
<path d="M344.64 118.00v23.00" class="stroke"/>
<use x="365.34" y="121.00" xlink:href="#hd"/>
<path d="M361.84 121.00v21.20" class="stroke"/>
<path class="fill"
	d="M388.54 146.20l69.50 0.00v-3.20l-69.50 -0.00"/>
<path class="fill"
	d="M388.94 141.20l51.60 0.00v-3.20l-51.60 -0.00"/>
<use x="392.44" y="118.00" xlink:href="#hd"/>
<path d="M388.94 118.00v27.20" class="stroke"/>
<use x="409.64" y="121.00" xlink:href="#hd"/>
<path d="M406.14 121.00v24.20" class="stroke"/>
<use x="426.84" y="118.00" xlink:href="#hd"/>
<path d="M423.34 118.00v27.20" class="stroke"/>
<use x="444.04" y="112.00" xlink:href="#hd"/>
<path d="M440.54 112.00v33.20" class="stroke"/>
<use x="461.24" y="127.00" xlink:href="#hd"/>
<path d="M457.74 127.00v18.20" class="stroke"/>
<path class="fill"
	d="M489.94 144.80l49.40 -3.20v-3.20l-49.40 3.20"/>
<use x="493.74" y="115.00" xlink:href="#hd"/>
<path d="M490.24 115.00v28.80" class="stroke"/>
<use x="518.04" y="124.00" xlink:href="#hd"/>
<path d="M514.54 124.00v18.20" class="stroke"/>
<use x="542.44" y="109.00" xlink:href="#hd"/>
<defs>
<path id="usharp" class="fill" d="
	m136 -702
	v890
	h32
	v-890
	m128 840
	h32
	v-888
	h-32
	m-232 286
	v116
	l338 -96
	v-116
	m-338 442
	v116
	l338 -98
	v-114"/>
<use id="sh0" transform="translate(-4,5) scale(0.018)"
	xlink:href="#usharp"/>
</defs>
<use x="533.44" y="109.00" xlink:href="#sh0"/>
<path d="M538.94 109.00v31.60" class="stroke"/>
<path class="fill"
	d="M571.14 129.80l49.30 4.50v-3.20l-49.30 -4.50"/>
<use x="575.04" y="106.00" xlink:href="#hd"/>
<path d="M571.54 106.00v22.80" class="stroke"/>
<use x="599.34" y="103.00" xlink:href="#hl"/>
<use x="599.34" y="100.00" xlink:href="#hd"/>
<path d="M595.84 100.00v31.00" class="stroke"/>
<use x="623.64" y="115.00" xlink:href="#hd"/>
<path d="M620.14 115.00v18.20" class="stroke"/>
<path class="fill"
	d="M652.34 146.20l87.50 0.00v-3.20l-87.50 -0.00"/>
<path class="fill"
	d="M652.64 141.20l86.80 0.00v-3.20l-86.80 -0.00"/>
<use x="656.14" y="118.00" xlink:href="#hd"/>
<path d="M652.64 118.00v27.20" class="stroke"/>
<use x="673.34" y="112.00" xlink:href="#hd"/>
<path d="M669.84 112.00v33.20" class="stroke"/>
<use x="690.54" y="106.00" xlink:href="#hd"/>
<path d="M687.04 106.00v39.20" class="stroke"/>
<use x="707.74" y="115.00" xlink:href="#hd"/>
<path d="M704.24 115.00v30.20" class="stroke"/>
<use x="724.94" y="124.00" xlink:href="#hd"/>
<path d="M721.44 124.00v21.20" class="stroke"/>
<use x="742.94" y="109.00" xlink:href="#hd"/>
<use x="733.94" y="109.00" xlink:href="#sh0"/>
<path d="M739.44 109.00v36.20" class="stroke"/>
<use x="770.04" y="106.00" xlink:href="#hd"/>
<path d="M766.54 106.00v40.00" class="stroke"/>
<use x="770.04" y="127.00" xlink:href="#hd"/>
<use x="770.04" y="121.00" xlink:href="#hd"/>
<use x="770.04" y="115.00" xlink:href="#hd"/>
<defs>
<path id="r8e" class="fill" d="m 0 0
	c-1.5 1.5 -2.4 2 -3.6 2
	2.4 -2.8 -2.8 -4 -2.8 -1.2
	c0 2.7 4.3 2.4 5.9 0.6"/>
<g id="r8">
	<path d="m3.3 -4l-3.4 9.6" class="stroke"/>
	<use x="3.4" y="-4" xlink:href="#r8e"/>
</g>
</defs>
<use x="829.54" y="121.00" xlink:href="#r8"/>
<defs>
<path id="ubclef" class="fill" d="m-200 -87
	c124 -35 222 -78 254 -236
	43 -228 -167 -246 -192 -103
	59 -80 157 22 92 78
	-62 47 -115 -22 -106 -88
	21 -141 270 -136 274 52
	-1 175 -106 264 -322 297
	m357 -250
	c0 -36 51 -34 51 0
	0 37 -51 36 -51 0
	m-2 -129
	c0 -36 51 -34 51 0
	0 38 -51 37 -51 0"/>
<use id="bclef" transform="translate(0,18) scale(0.045)"
	xlink:href="#ubclef"/>
</defs>
<use x="23.54" y="173.00" xlink:href="#bclef"/>
<g font-family="serif" font-size="16" font-weight="bold" font-style="normal"
	transform="translate(42.04,190.50) scale(1.2,1)">
	<text text-anchor="middle">8</text>
	<text y="-12" text-anchor="middle">3</text>
</g>
<use x="85.14" y="176.00" xlink:href="#hd"/>
<path d="M81.64 176.00v25.00" class="stroke"/>
<use x="85.14" y="182.00" xlink:href="#hd"/>
<use x="153.94" y="179.00" xlink:href="#r8"/>
<use x="198.24" y="176.00" xlink:href="#hd"/>
<path d="M194.74 176.00v25.00" class="stroke"/>
<use x="198.24" y="182.00" xlink:href="#hd"/>
<use x="246.84" y="179.00" xlink:href="#r8"/>
<use x="279.34" y="164.00" xlink:href="#hd"/>
<path d="M275.84 164.00v25.00" class="stroke"/>
<use x="279.34" y="170.00" xlink:href="#hd"/>
<use x="348.14" y="179.00" xlink:href="#r8"/>
<use x="392.44" y="176.00" xlink:href="#hd"/>
<path d="M388.94 176.00v25.00" class="stroke"/>
<use x="392.44" y="182.00" xlink:href="#hd"/>
<use x="461.24" y="179.00" xlink:href="#r8"/>
<use x="493.74" y="182.00" xlink:href="#hd"/>
<path d="M497.24 182.00v-21.00" class="stroke"/>
<use x="542.44" y="179.00" xlink:href="#r8"/>
<use x="575.04" y="185.00" xlink:href="#hd"/>
<path d="M578.54 185.00v-25.00" class="stroke"/>
<use x="575.04" y="179.00" xlink:href="#hd"/>
<use x="623.64" y="179.00" xlink:href="#r8"/>
<path class="fill"
	d="M659.34 155.60l69.50 8.30v3.20l-69.50 -8.30"/>
<use x="656.14" y="182.00" xlink:href="#hd"/>
<path d="M659.64 182.00v-25.30" class="stroke"/>
<use x="690.54" y="179.00" xlink:href="#hd"/>
<path d="M694.04 179.00v-18.20" class="stroke"/>
<use x="724.94" y="197.00" xlink:href="#hl"/>
<use x="724.94" y="200.00" xlink:href="#hd"/>
<path d="M728.44 200.00v-35.10" class="stroke"/>
<path class="fill"
	d="M766.14 210.20l77.40 0.00v-3.20l-77.40 -0.00"/>
<path class="fill"
	d="M790.84 205.20l52.40 0.00v-3.20l-52.40 -0.00"/>
<use x="770.04" y="191.00" xlink:href="#hd"/>
<path d="M766.54 191.00v18.20" class="stroke"/>
<use x="794.34" y="170.00" xlink:href="#hd"/>
<path d="M790.84 170.00v39.20" class="stroke"/>
<use x="812.34" y="173.00" xlink:href="#hd"/>
<defs>
<path id="unat" class="fill" d="
	m96 -750
	h-32
	v716
	l32 -8
	182 -54
	v282
	h32
	v-706
	l-34 10
	-180 50
	v-290
	m0 592
	v-190
	l182 -52
	v188"/>
<use id="nt0" transform="translate(-3,5) scale(0.018)"
	xlink:href="#unat"/>
</defs>
<use x="803.34" y="173.00" xlink:href="#nt0"/>
<path d="M808.84 173.00v36.20" class="stroke"/>
<use x="829.54" y="176.00" xlink:href="#hd"/>
<path d="M826.04 176.00v33.20" class="stroke"/>
<use x="846.74" y="179.00" xlink:href="#hd"/>
<path d="M843.24 179.00v30.20" class="stroke"/>
<defs>
<path id="turn" class="fill" d="
	m5.2 -8
	c1.4 0.5 0.9 4.8 -2.2 2.8
	l-4.8 -3.5
	c-3 -2 -5.8 1.8 -3.6 4.4
	1 1.1 2 0.8 2.1 -0.1
	0.1 -0.9 -0.7 -1.2 -1.9 -0.6
	-1.4 -0.5 -0.9 -4.8 2.2 -2.8
	l4.8 3.5
	c3 2 5.8 -1.8 3.6 -4.4
	-1 -1.1 -2 -0.8 -2.1 0.1
	-0.1 0.9 0.7 1.2 1.9 0.6"/>
</defs>
<use x="518.04" y="107.00" xlink:href="#turn"/>
</g>
<g stroke-width="0.70" transform="scale(0.867)" font-family="Times" font-size="13.00">
<path class="stroke" stroke-width="1"
	d="M11.54 328.00v-86.00"/>
<path class="fill"
	d="M6.54 239.00
	c10.5 1 12 -4.5 12 -3.5c0 1 -3.5 5.5 -8.5 5.5
	v88.00
	c5 0 8.5 4.5 8.5 5.5c0 1 -1.5 -4.5 -12 -3.5"/>
<use x="145.64" y="266.00" xlink:href="#rdots"/>
<path class="stroke" stroke-width="1"
	d="M141.64 266.00v-24.00"/>
<path class="stroke" stroke-width="3"
	d="M137.14 266.00v-24.00"/>
<use x="145.64" y="328.00" xlink:href="#rdots"/>
<path class="stroke" stroke-width="1"
	d="M141.64 328.00v-62.00"/>
<path class="stroke" stroke-width="3"
	d="M137.14 328.00v-62.00"/>
<path class="stroke" stroke-width="1"
	d="M234.74 266.00v-24.00"/>
<path class="stroke" stroke-width="1"
	d="M234.74 328.00v-62.00"/>
<path class="stroke" stroke-width="1"
	d="M336.34 266.00v-24.00"/>
<path class="stroke" stroke-width="1"
	d="M336.34 328.00v-62.00"/>
<path class="stroke" stroke-width="1"
	d="M408.84 266.00v-24.00"/>
<path class="stroke" stroke-width="1"
	d="M408.84 328.00v-62.00"/>
<path class="stroke" stroke-width="1"
	d="M490.44 266.00v-24.00"/>
<path class="stroke" stroke-width="1"
	d="M490.44 328.00v-62.00"/>
<path class="stroke" stroke-width="1"
	d="M592.04 266.00v-24.00"/>
<path class="stroke" stroke-width="1"
	d="M592.04 328.00v-62.00"/>
<path class="stroke" stroke-width="1"
	d="M684.44 266.00v-24.00"/>
<path class="stroke" stroke-width="1"
	d="M684.44 328.00v-62.00"/>
<path class="stroke" stroke-width="1"
	d="M786.04 266.00v-24.00"/>
<path class="stroke" stroke-width="1"
	d="M786.04 328.00v-62.00"/>
<path class="stroke" stroke-width="3"
	d="M860.54 266.00v-24.00"/>
<path class="stroke" stroke-width="1"
	d="M856.04 266.00v-24.00"/>
<use x="852.04" y="266.00" xlink:href="#rdots"/>
<path class="stroke" stroke-width="3"
	d="M860.54 328.00v-62.00"/>
<path class="stroke" stroke-width="1"
	d="M856.04 328.00v-62.00"/>
<use x="852.04" y="328.00" xlink:href="#rdots"/>
<path d="m11.54 266.00
	h850.50
	M11.54 260.00
	h850.50
	M11.54 254.00
	h850.50
	M11.54 248.00
	h850.50
	M11.54 242.00
	h850.50
	" class="stroke"/>
<path d="m11.54 328.00
	h850.50
	M11.54 322.00
	h850.50
	M11.54 316.00
	h850.50
	M11.54 310.00
	h850.50
	M11.54 304.00
	h850.50
	" class="stroke"/>
<path class="fill"
	d="M348.84 237.00c6.13 -5.80 32.82 -13.06 38.95 -10.60
	v-0.24c-7.30 -4.22 -31.65 3.04 -38.95 10.84"/>
<text x="47.54" y="227.40">2</text>
<path class="stroke"
	d="M43.54 216.00m0 20v-20h91.10v20"/>
<use x="23.54" y="260.00" xlink:href="#tclef"/>
<use x="56.04" y="239.00" xlink:href="#hd"/>
<path d="M52.54 239.00v40.00" class="stroke"/>
<use x="56.04" y="260.00" xlink:href="#hd"/>
<use x="56.04" y="254.00" xlink:href="#hd"/>
<use x="56.04" y="248.00" xlink:href="#hd"/>
<use x="110.84" y="254.00" xlink:href="#r8"/>
<path class="fill"
	d="M161.34 280.60l53.30 -4.60v-3.20l-53.30 4.60"/>
<path class="fill"
	d="M161.64 275.50l15.30 -1.30v-3.20l-15.30 1.30"/>
<use x="165.14" y="248.00" xlink:href="#hd"/>
<path d="M161.64 248.00v31.50" class="stroke"/>
<use x="180.44" y="257.00" xlink:href="#hd"/>
<path d="M176.94 257.00v21.20" class="stroke"/>
<use x="195.84" y="248.00" xlink:href="#hd"/>
<path d="M192.34 248.00v28.90" class="stroke"/>
<use x="217.74" y="242.00" xlink:href="#hd"/>
<use x="208.74" y="242.00" xlink:href="#sh0"/>
<path d="M214.24 242.00v33.00" class="stroke"/>
<path class="fill"
	d="M243.44 268.00l77.30 0.00v-3.20l-77.30 -0.00"/>
<path class="fill"
	d="M243.74 263.00l76.60 0.00v-3.20l-76.60 -0.00"/>
<use x="247.24" y="239.00" xlink:href="#hd"/>
<path d="M243.74 239.00v28.00" class="stroke"/>
<use x="262.54" y="248.00" xlink:href="#hd"/>
<path d="M259.04 248.00v19.00" class="stroke"/>
<use x="277.94" y="239.00" xlink:href="#hd"/>
<path d="M274.44 239.00v28.00" class="stroke"/>
<use x="293.24" y="236.00" xlink:href="#hl"/>
<use x="293.24" y="233.00" xlink:href="#hd"/>
<path d="M289.74 233.00v34.00" class="stroke"/>
<use x="308.54" y="239.00" xlink:href="#hd"/>
<path d="M305.04 239.00v28.00" class="stroke"/>
<use x="323.84" y="248.00" xlink:href="#hd"/>
<path d="M320.34 248.00v19.00" class="stroke"/>
<path class="fill"
	d="M345.04 264.30l43.60 -7.80v-3.20l-43.60 7.80"/>
<use x="348.84" y="245.00" xlink:href="#hd"/>
<path d="M345.34 245.00v18.20" class="stroke"/>
<use x="370.34" y="239.00" xlink:href="#hd"/>
<path d="M366.84 239.00v20.40" class="stroke"/>
<use x="391.84" y="236.00" xlink:href="#hl"/>
<use x="391.84" y="230.00" xlink:href="#hl"/>
<use x="391.84" y="230.00" xlink:href="#hd"/>
<path d="M388.34 230.00v25.50" class="stroke"/>
<path class="fill"
	d="M424.44 227.20l52.80 6.20v3.20l-52.80 -6.20"/>
<path class="fill"
	d="M446.34 234.80l15.30 1.80v3.20l-15.30 -1.80"/>
<use x="421.34" y="251.00" xlink:href="#hd"/>
<path d="M424.84 251.00v-22.70" class="stroke"/>
<use x="421.34" y="245.00" xlink:href="#hd"/>
<use x="442.84" y="260.00" xlink:href="#hd"/>
<path d="M446.34 260.00v-29.20" class="stroke"/>
<use x="442.84" y="248.00" xlink:href="#hd"/>
<use x="458.14" y="260.00" xlink:href="#hd"/>
<path d="M461.64 260.00v-27.40" class="stroke"/>
<use x="458.14" y="254.00" xlink:href="#hd"/>
<use x="473.44" y="260.00" xlink:href="#hd"/>
<path d="M476.94 260.00v-25.60" class="stroke"/>
<path class="fill"
	d="M499.14 282.20l77.30 0.00v-3.20l-77.30 -0.00"/>
<path class="fill"
	d="M499.44 277.20l76.60 0.00v-3.20l-76.60 -0.00"/>
<use x="502.94" y="251.00" xlink:href="#hd"/>
<path d="M499.44 251.00v30.20" class="stroke"/>
<use x="518.24" y="254.00" xlink:href="#hd"/>
<path d="M514.74 254.00v27.20" class="stroke"/>
<use x="533.54" y="251.00" xlink:href="#hd"/>
<path d="M530.04 251.00v30.20" class="stroke"/>
<use x="548.94" y="245.00" xlink:href="#hd"/>
<path d="M545.44 245.00v36.20" class="stroke"/>
<use x="564.24" y="260.00" xlink:href="#hd"/>
<path d="M560.74 260.00v21.20" class="stroke"/>
<use x="579.54" y="251.00" xlink:href="#hd"/>
<path d="M576.04 251.00v30.20" class="stroke"/>
<path class="fill"
	d="M600.74 264.20l68.10 9.00v-3.20l-68.10 -9.00"/>
<path class="fill"
	d="M622.54 262.10l46.00 6.10v-3.20l-46.00 -6.10"/>
<use x="604.54" y="239.00" xlink:href="#hd"/>
<path d="M601.04 239.00v24.30" class="stroke"/>
<use x="626.04" y="242.00" xlink:href="#hd"/>
<path d="M622.54 242.00v24.10" class="stroke"/>
<use x="641.34" y="245.00" xlink:href="#hd"/>
<path d="M637.84 245.00v23.10" class="stroke"/>
<use x="656.64" y="248.00" xlink:href="#hd"/>
<path d="M653.14 248.00v22.20" class="stroke"/>
<use x="671.94" y="251.00" xlink:href="#hd"/>
<path d="M668.44 251.00v21.20" class="stroke"/>
<path class="fill"
	d="M693.14 274.00l77.30 0.00v-3.20l-77.30 -0.00"/>
<path class="fill"
	d="M693.44 269.00l76.60 0.00v-3.20l-76.60 -0.00"/>
<use x="696.94" y="248.00" xlink:href="#hd"/>
<path d="M693.44 248.00v24.90" class="stroke"/>
<use x="712.34" y="242.00" xlink:href="#hd"/>
<path d="M708.84 242.00v30.90" class="stroke"/>
<use x="727.64" y="236.00" xlink:href="#hl"/>
<use x="727.64" y="236.00" xlink:href="#hd"/>
<path d="M724.14 236.00v36.90" class="stroke"/>
<use x="742.94" y="242.00" xlink:href="#hd"/>
<path d="M739.44 242.00v30.90" class="stroke"/>
<use x="758.24" y="248.00" xlink:href="#hd"/>
<path d="M754.74 248.00v24.90" class="stroke"/>
<use x="773.54" y="254.00" xlink:href="#hd"/>
<path d="M770.04 254.00v18.90" class="stroke"/>
<use x="798.54" y="251.00" xlink:href="#hd"/>
<path d="M795.04 251.00v21.00" class="stroke"/>
<use x="841.54" y="254.00" xlink:href="#r8"/>
<use x="23.54" y="310.00" xlink:href="#bclef"/>
<path class="fill"
	d="M52.24 347.20l70.80 -5.10v-3.20l-70.80 5.10"/>
<path class="fill"
	d="M74.04 340.70l48.60 -3.50v-3.20l-48.60 3.50"/>
<use x="56.04" y="328.00" xlink:href="#hd"/>
<path d="M52.54 328.00v18.20" class="stroke"/>
<use x="77.54" y="301.00" xlink:href="#hd"/>
<path d="M74.04 301.00v43.70" class="stroke"/>
<use x="92.84" y="307.00" xlink:href="#hd"/>
<path d="M89.34 307.00v36.60" class="stroke"/>
<use x="110.84" y="310.00" xlink:href="#hd"/>
<use x="101.84" y="310.00" xlink:href="#sh0"/>
<path d="M107.34 310.00v32.30" class="stroke"/>
<use x="126.14" y="313.00" xlink:href="#hd"/>
<path d="M122.64 313.00v28.20" class="stroke"/>
<use x="165.14" y="310.00" xlink:href="#hd"/>
<use x="156.14" y="310.00" xlink:href="#sh0"/>
<path d="M168.64 310.00v-21.00" class="stroke"/>
<use x="217.74" y="316.00" xlink:href="#r8"/>
<use x="247.24" y="322.00" xlink:href="#hd"/>
<path d="M250.74 322.00v-25.00" class="stroke"/>
<use x="247.24" y="316.00" xlink:href="#hd"/>
<use x="308.54" y="322.00" xlink:href="#hd"/>
<path d="M312.04 322.00v-25.00" class="stroke"/>
<path class="fill"
	d="M312.04 297.00c0.6 5.6 9.6 9 5.6 18.4
	1.6 -6 -1.3 -11.6 -5.6 -12.8
"/>
<use x="308.54" y="316.00" xlink:href="#hd"/>
<use x="348.84" y="307.00" xlink:href="#hd"/>
<path d="M345.34 307.00v31.00" class="stroke"/>
<use x="348.84" y="319.00" xlink:href="#hd"/>
<use x="391.84" y="313.00" xlink:href="#hd"/>
<path d="M388.34 313.00v25.00" class="stroke"/>
<path class="fill"
	d="M388.34 338.00c0.6 -5.6 9.6 -9 5.6 -18.4
	1.6 6 -1.3 11.6 -5.6 12.8
"/>
<use x="391.84" y="319.00" xlink:href="#hd"/>
<path class="fill"
	d="M424.44 287.70l22.20 7.30v3.20l-22.20 -7.30"/>
<use x="421.34" y="307.00" xlink:href="#hd"/>
<path d="M424.84 307.00v-18.20" class="stroke"/>
<use x="442.84" y="328.00" xlink:href="#hd"/>
<path d="M446.34 328.00v-32.10" class="stroke"/>
<use x="473.44" y="316.00" xlink:href="#r8"/>
<use x="502.94" y="313.00" xlink:href="#hd"/>
<path d="M499.44 313.00v25.00" class="stroke"/>
<use x="502.94" y="319.00" xlink:href="#hd"/>
<use x="564.24" y="307.00" xlink:href="#hd"/>
<path d="M560.74 307.00v25.00" class="stroke"/>
<path class="fill"
	d="M560.74 332.00c0.6 -5.6 9.6 -9 5.6 -18.4
	1.6 6 -1.3 11.6 -5.6 12.8
"/>
<use x="564.24" y="313.00" xlink:href="#hd"/>
<use x="604.54" y="313.00" xlink:href="#hd"/>
<path d="M601.04 313.00v25.00" class="stroke"/>
<use x="604.54" y="319.00" xlink:href="#hd"/>
<use x="656.64" y="307.00" xlink:href="#hd"/>
<path d="M653.14 307.00v25.00" class="stroke"/>
<path class="fill"
	d="M653.14 332.00c0.6 -5.6 9.6 -9 5.6 -18.4
	1.6 6 -1.3 11.6 -5.6 12.8
"/>
<use x="656.64" y="313.00" xlink:href="#hd"/>
<use x="696.94" y="310.00" xlink:href="#hd"/>
<path d="M693.44 310.00v21.00" class="stroke"/>
<use x="758.24" y="307.00" xlink:href="#hd"/>
<path d="M754.74 307.00v21.00" class="stroke"/>
<path class="fill"
	d="M754.74 328.00c0.6 -5.6 9.6 -9 5.6 -18.4
	1.6 6 -1.3 11.6 -5.6 12.8
"/>
<path class="fill"
	d="M801.74 299.70l43.60 9.90v3.20l-43.60 -9.90"/>
<use x="798.54" y="319.00" xlink:href="#hd"/>
<path d="M802.04 319.00v-18.20" class="stroke"/>
<use x="820.04" y="328.00" xlink:href="#hd"/>
<path d="M823.54 328.00v-22.30" class="stroke"/>
<use x="841.54" y="334.00" xlink:href="#hl"/>
<use x="841.54" y="340.00" xlink:href="#hl"/>
<use x="841.54" y="340.00" xlink:href="#hd"/>
<path d="M845.04 340.00v-29.40" class="stroke"/>
<use x="165.14" y="316.00" xlink:href="#hd"/>
<path d="M161.64 316.00v21.00" class="stroke"/>
</g>
</svg>
