<?xml version="1.0" standalone="no"?>
<!DOCTYPE svg PUBLIC "-//W3C//DTD SVG 1.1//EN"
	"http://www.w3.org/Graphics/SVG/1.1/DTD/svg11.dtd">
<svg xmlns="http://www.w3.org/2000/svg" version="1.1"
	xmlns:xlink="http://www.w3.org/1999/xlink"
	color="black"
	width="757.10px" height="305.07px">
<style type="text/css">
.fill {fill: currentColor}
.stroke {stroke: currentColor; fill: none}
text{white-space: pre}
</style>
<title>./K516f-12-12-10-7-7-7-2-7-6-3-2-6-8-8-4-3.abc (8969) tune 1</title>
<!-- Creator: abcm2ps-8.13.8 -->
<!-- CreationDate: Sep  7, 2017 11:19 -->
<!-- CommandLine: ./K516f-12-12-10-7-7-7-2-7-6-3-2-6-8-8-4-3.abc -O ./K516f-12-12-10-7-7-7-2-7-6-3-2-6-8-8-4-3.svg -g -->
<rect width="100%" height="100%" fill="white"/>
<g stroke-width="0.70" transform="scale(0.867)">
<!-- title: 12-12-10-7-7-7-2-7-6-3-2-6-8-8-4-3 -->
</g>
<g stroke-width="0.70" transform="scale(0.867)" font-family="Times" font-size="20.00">
<text x="436.84" y="22.00" text-anchor="middle">12-12-10-7-7-7-2-7-6-3-2-6-8-8-4-3</text>
</g>
<g stroke-width="0.70" transform="scale(0.867)" font-family="Times" font-size="20.00">
<!-- subtitle: $1K.516f::54:130:42:167:154:68:11:91:25:39:26:125:43:168:145:83::$0 -->
</g>
<g stroke-width="0.70" transform="scale(0.867)" font-family="Courier" font-size="8.00" font-weight="bold">
<text x="436.84" y="41.80" text-anchor="middle">K.516f::54:130:42:167:154:68:11:91:25:39:26:125:43:168:145:83::</text>
</g>
<g stroke-width="0.70" transform="scale(0.867)" font-family="Courier" font-size="8.00" font-weight="bold">
<!-- subtitle: $1Perm. No.: 89691907464027$0 -->
<text x="436.84" y="60.80" text-anchor="middle">Perm. No.: 89691907464027</text>
</g>
<g stroke-width="0.70" transform="scale(0.607)" font-family="Courier" font-size="8.00" font-weight="bold">
<defs>
<ellipse id="hd" rx="4.1" ry="2.9"
	transform="rotate(-20)" class="fill"/>
</defs>
<use x="103.06" y="121.29" xlink:href="#hd"/>
<path d="M106.56 121.29v-21.00" class="stroke"/>
<path class="fill"
	d="M106.56 100.29c0.6 5.6 9.6 9 5.6 18.4
	1.6 -6 -1.3 -11.6 -5.6 -12.8
"/>
</g>
<g stroke-width="0.70" transform="scale(0.867)" font-family="Times" font-size="15.00" font-weight="bold">
<text x="81.24" y="87.00">= 111</text>
<path class="stroke" stroke-width="1"
	d="M11.54 187.00v-82.00"/>
<path class="fill"
	d="M6.54 102.00
	c10.5 1 12 -4.5 12 -3.5c0 1 -3.5 5.5 -8.5 5.5
	v84.00
	c5 0 8.5 4.5 8.5 5.5c0 1 -1.5 -4.5 -12 -3.5"/>
<defs>
<g id="rdots" class="fill">
	<circle cx="0" cy="-9" r="1.2"/>
	<circle cx="0" cy="-15" r="1.2"/>
</g>
</defs>
<use x="70.54" y="129.00" xlink:href="#rdots"/>
<path class="stroke" stroke-width="1"
	d="M66.54 129.00v-24.00"/>
<path class="stroke" stroke-width="3"
	d="M62.04 129.00v-24.00"/>
<use x="70.54" y="187.00" xlink:href="#rdots"/>
<path class="stroke" stroke-width="1"
	d="M66.54 187.00v-58.00"/>
<path class="stroke" stroke-width="3"
	d="M62.04 187.00v-58.00"/>
<path class="stroke" stroke-width="1"
	d="M151.14 129.00v-24.00"/>
<path class="stroke" stroke-width="1"
	d="M151.14 187.00v-58.00"/>
<path class="stroke" stroke-width="1"
	d="M230.84 129.00v-24.00"/>
<path class="stroke" stroke-width="1"
	d="M230.84 187.00v-58.00"/>
<path class="stroke" stroke-width="1"
	d="M341.84 129.00v-24.00"/>
<path class="stroke" stroke-width="1"
	d="M341.84 187.00v-58.00"/>
<path class="stroke" stroke-width="1"
	d="M431.44 129.00v-24.00"/>
<path class="stroke" stroke-width="1"
	d="M431.44 187.00v-58.00"/>
<path class="stroke" stroke-width="1"
	d="M544.74 129.00v-24.00"/>
<path class="stroke" stroke-width="1"
	d="M544.74 187.00v-58.00"/>
<path class="stroke" stroke-width="1"
	d="M645.84 129.00v-24.00"/>
<path class="stroke" stroke-width="1"
	d="M645.84 187.00v-58.00"/>
<path class="stroke" stroke-width="1"
	d="M758.04 129.00v-24.00"/>
<path class="stroke" stroke-width="1"
	d="M758.04 187.00v-58.00"/>
<path class="stroke" stroke-width="3"
	d="M860.54 129.00v-24.00"/>
<path class="stroke" stroke-width="1"
	d="M856.04 129.00v-24.00"/>
<use x="852.04" y="129.00" xlink:href="#rdots"/>
<path class="stroke" stroke-width="3"
	d="M860.54 187.00v-58.00"/>
<path class="stroke" stroke-width="1"
	d="M856.04 187.00v-58.00"/>
<use x="852.04" y="187.00" xlink:href="#rdots"/>
<path d="m11.54 129.00
	h850.50
	M11.54 123.00
	h850.50
	M11.54 117.00
	h850.50
	M11.54 111.00
	h850.50
	M11.54 105.00
	h850.50
	" class="stroke"/>
<path d="m11.54 187.00
	h850.50
	M11.54 181.00
	h850.50
	M11.54 175.00
	h850.50
	M11.54 169.00
	h850.50
	M11.54 163.00
	h850.50
	" class="stroke"/>
</g>
<g stroke-width="0.70" transform="scale(0.867)" font-family="Times" font-size="13.00">
<text x="762.04" y="90.40">1</text>
<path class="stroke"
	d="M758.04 79.00m0 20v-20h96.00v20"/>
<defs>
<path id="utclef" class="fill" d="m-50 -90
	c-72 -41 -72 -158 52 -188
	150 -10 220 188 90 256
	-114 52 -275 0 -293 -136
	-15 -181 93 -229 220 -334
	88 -87 79 -133 62 -210
	-51 33 -94 105 -89 186
	17 267 36 374 49 574
	6 96 -19 134 -77 135
	-80 1 -126 -93 -61 -133
	85 -41 133 101 31 105
	23 17 92 37 90 -92
	-10 -223 -39 -342 -50 -617
	0 -90 0 -162 96 -232
	56 72 63 230 22 289
	-74 106 -257 168 -255 316
	9 153 148 185 252 133
	86 -65 29 -192 -80 -176
	-71 12 -105 67 -59 124"/>
<use id="tclef" transform="translate(0,6) scale(0.045)"
	xlink:href="#utclef"/>
</defs>
<use x="23.54" y="123.00" xlink:href="#tclef"/>
<g font-family="serif" font-size="16" font-weight="bold" font-style="normal"
	transform="translate(42.04,128.50) scale(1.2,1)">
	<text text-anchor="middle">8</text>
	<text y="-12" text-anchor="middle">3</text>
</g>
<path class="fill"
	d="M88.14 95.00l48.30 0.00v3.20l-48.30 -0.00"/>
<use x="84.94" y="129.00" xlink:href="#hd"/>
<path d="M88.44 129.00v-33.00" class="stroke"/>
<use x="84.94" y="114.00" xlink:href="#hd"/>
<use x="108.74" y="129.00" xlink:href="#hd"/>
<path d="M112.24 129.00v-33.00" class="stroke"/>
<use x="108.74" y="114.00" xlink:href="#hd"/>
<use x="132.54" y="129.00" xlink:href="#hd"/>
<path d="M136.04 129.00v-33.00" class="stroke"/>
<use x="132.54" y="114.00" xlink:href="#hd"/>
<path class="fill"
	d="M167.74 95.00l48.30 0.00v3.20l-48.30 -0.00"/>
<use x="164.54" y="129.00" xlink:href="#hd"/>
<path d="M168.04 129.00v-33.00" class="stroke"/>
<use x="164.54" y="114.00" xlink:href="#hd"/>
<use x="188.34" y="129.00" xlink:href="#hd"/>
<path d="M191.84 129.00v-33.00" class="stroke"/>
<use x="188.34" y="114.00" xlink:href="#hd"/>
<use x="212.14" y="129.00" xlink:href="#hd"/>
<path d="M215.64 129.00v-33.00" class="stroke"/>
<use x="212.14" y="114.00" xlink:href="#hd"/>
<path class="fill"
	d="M247.34 88.80l85.10 0.00v3.20l-85.10 -0.00"/>
<path class="fill"
	d="M247.74 93.80l84.40 0.00v3.20l-84.40 -0.00"/>
<use x="244.24" y="117.00" xlink:href="#hd"/>
<path d="M247.74 117.00v-27.20" class="stroke"/>
<use x="261.04" y="114.00" xlink:href="#hd"/>
<path d="M264.54 114.00v-24.20" class="stroke"/>
<use x="277.94" y="111.00" xlink:href="#hd"/>
<path d="M281.44 111.00v-21.20" class="stroke"/>
<use x="294.84" y="117.00" xlink:href="#hd"/>
<path d="M298.34 117.00v-27.20" class="stroke"/>
<use x="311.74" y="120.00" xlink:href="#hd"/>
<path d="M315.24 120.00v-30.20" class="stroke"/>
<use x="328.64" y="123.00" xlink:href="#hd"/>
<path d="M332.14 123.00v-33.20" class="stroke"/>
<path class="fill"
	d="M351.44 136.90l58.20 0.00v-3.20l-58.20 -0.00"/>
<path class="fill"
	d="M375.54 131.90l16.90 0.00v-3.20l-16.90 -0.00"/>
<use x="355.24" y="114.00" xlink:href="#hd"/>
<path d="M351.74 114.00v21.90" class="stroke"/>
<use x="379.04" y="114.00" xlink:href="#hd"/>
<path d="M375.54 114.00v21.90" class="stroke"/>
<use x="395.94" y="111.00" xlink:href="#hd"/>
<path d="M392.44 111.00v24.90" class="stroke"/>
<use x="412.84" y="108.00" xlink:href="#hd"/>
<path d="M409.34 108.00v27.90" class="stroke"/>
<path class="fill"
	d="M441.04 136.90l87.30 0.00v-3.20l-87.30 -0.00"/>
<path class="fill"
	d="M441.34 131.90l86.60 0.00v-3.20l-86.60 -0.00"/>
<use x="444.84" y="111.00" xlink:href="#hd"/>
<path d="M441.34 111.00v24.90" class="stroke"/>
<use x="462.84" y="114.00" xlink:href="#hd"/>
<defs>
<path id="usharp" class="fill" d="
	m136 -702
	v890
	h32
	v-890
	m128 840
	h32
	v-888
	h-32
	m-232 286
	v116
	l338 -96
	v-116
	m-338 442
	v116
	l338 -98
	v-114"/>
<use id="sh0" transform="translate(-4,5) scale(0.018)"
	xlink:href="#usharp"/>
</defs>
<use x="453.84" y="114.00" xlink:href="#sh0"/>
<path d="M459.34 114.00v21.90" class="stroke"/>
<use x="479.74" y="111.00" xlink:href="#hd"/>
<path d="M476.24 111.00v24.90" class="stroke"/>
<use x="497.74" y="105.00" xlink:href="#hd"/>
<use x="488.74" y="105.00" xlink:href="#sh0"/>
<path d="M494.24 105.00v30.90" class="stroke"/>
<defs>
<path id="hl" class="stroke" d="m-6 0h12"/>
</defs>
<use x="514.64" y="99.00" xlink:href="#hl"/>
<use x="514.64" y="99.00" xlink:href="#hd"/>
<path d="M511.14 99.00v36.90" class="stroke"/>
<use x="531.44" y="105.00" xlink:href="#hd"/>
<path d="M527.94 105.00v30.90" class="stroke"/>
<path class="fill"
	d="M554.34 131.00l75.10 0.00v-3.20l-75.10 -0.00"/>
<path class="fill"
	d="M578.44 126.00l50.60 0.00v-3.20l-50.60 -0.00"/>
<use x="558.14" y="102.00" xlink:href="#hd"/>
<path d="M554.64 102.00v28.00" class="stroke"/>
<use x="581.94" y="99.00" xlink:href="#hl"/>
<use x="581.94" y="96.00" xlink:href="#hd"/>
<path d="M578.44 96.00v34.00" class="stroke"/>
<use x="598.84" y="102.00" xlink:href="#hd"/>
<path d="M595.34 102.00v28.00" class="stroke"/>
<use x="615.74" y="111.00" xlink:href="#hd"/>
<path d="M612.24 111.00v19.00" class="stroke"/>
<use x="632.54" y="102.00" xlink:href="#hd"/>
<path d="M629.04 102.00v28.00" class="stroke"/>
<path class="fill"
	d="M662.34 85.80l86.20 8.40v3.20l-86.20 -8.40"/>
<path class="fill"
	d="M662.74 90.80l85.50 8.30v3.20l-85.50 -8.30"/>
<use x="659.24" y="108.00" xlink:href="#hd"/>
<path d="M662.74 108.00v-21.20" class="stroke"/>
<use x="676.14" y="114.00" xlink:href="#hd"/>
<path d="M679.64 114.00v-25.60" class="stroke"/>
<use x="692.94" y="117.00" xlink:href="#hd"/>
<path d="M696.44 117.00v-26.90" class="stroke"/>
<use x="709.84" y="120.00" xlink:href="#hd"/>
<path d="M713.34 120.00v-28.30" class="stroke"/>
<use x="726.74" y="123.00" xlink:href="#hd"/>
<path d="M730.24 123.00v-29.60" class="stroke"/>
<use x="744.74" y="126.00" xlink:href="#hd"/>
<use x="735.74" y="126.00" xlink:href="#sh0"/>
<path d="M748.24 126.00v-30.90" class="stroke"/>
<use x="771.44" y="102.00" xlink:href="#hd"/>
<path d="M767.94 102.00v40.00" class="stroke"/>
<use x="771.44" y="123.00" xlink:href="#hd"/>
<use x="771.44" y="117.00" xlink:href="#hd"/>
<use x="771.44" y="111.00" xlink:href="#hd"/>
<defs>
<path id="r8e" class="fill" d="m 0 0
	c-1.5 1.5 -2.4 2 -3.6 2
	2.4 -2.8 -2.8 -4 -2.8 -1.2
	c0 2.7 4.3 2.4 5.9 0.6"/>
<g id="r8">
	<path d="m3.3 -4l-3.4 9.6" class="stroke"/>
	<use x="3.4" y="-4" xlink:href="#r8e"/>
</g>
</defs>
<use x="830.04" y="117.00" xlink:href="#r8"/>
<defs>
<path id="ubclef" class="fill" d="m-200 -87
	c124 -35 222 -78 254 -236
	43 -228 -167 -246 -192 -103
	59 -80 157 22 92 78
	-62 47 -115 -22 -106 -88
	21 -141 270 -136 274 52
	-1 175 -106 264 -322 297
	m357 -250
	c0 -36 51 -34 51 0
	0 37 -51 36 -51 0
	m-2 -129
	c0 -36 51 -34 51 0
	0 38 -51 37 -51 0"/>
<use id="bclef" transform="translate(0,18) scale(0.045)"
	xlink:href="#ubclef"/>
</defs>
<use x="23.54" y="169.00" xlink:href="#bclef"/>
<g font-family="serif" font-size="16" font-weight="bold" font-style="normal"
	transform="translate(42.04,186.50) scale(1.2,1)">
	<text text-anchor="middle">8</text>
	<text y="-12" text-anchor="middle">3</text>
</g>
<path class="fill"
	d="M88.14 157.00l48.30 0.00v3.20l-48.30 -0.00"/>
<use x="84.94" y="178.00" xlink:href="#hd"/>
<path d="M88.44 178.00v-20.00" class="stroke"/>
<use x="108.74" y="178.00" xlink:href="#hd"/>
<path d="M112.24 178.00v-20.00" class="stroke"/>
<use x="132.54" y="178.00" xlink:href="#hd"/>
<path d="M136.04 178.00v-20.00" class="stroke"/>
<path class="fill"
	d="M167.74 157.00l48.30 0.00v3.20l-48.30 -0.00"/>
<use x="164.54" y="178.00" xlink:href="#hd"/>
<path d="M168.04 178.00v-20.00" class="stroke"/>
<use x="188.34" y="178.00" xlink:href="#hd"/>
<path d="M191.84 178.00v-20.00" class="stroke"/>
<use x="212.14" y="178.00" xlink:href="#hd"/>
<path d="M215.64 178.00v-20.00" class="stroke"/>
<use x="244.24" y="187.00" xlink:href="#hd"/>
<path d="M247.74 187.00v-21.00" class="stroke"/>
<use x="311.74" y="175.00" xlink:href="#r8"/>
<use x="355.24" y="172.00" xlink:href="#hd"/>
<path d="M351.74 172.00v25.00" class="stroke"/>
<use x="355.24" y="178.00" xlink:href="#hd"/>
<use x="412.84" y="175.00" xlink:href="#r8"/>
<use x="444.84" y="178.00" xlink:href="#hd"/>
<path d="M448.34 178.00v-21.00" class="stroke"/>
<use x="514.64" y="175.00" xlink:href="#r8"/>
<use x="558.14" y="181.00" xlink:href="#hd"/>
<path d="M561.64 181.00v-21.00" class="stroke"/>
<use x="615.74" y="175.00" xlink:href="#r8"/>
<path class="fill"
	d="M662.34 151.70l68.20 8.30v3.20l-68.20 -8.30"/>
<use x="659.24" y="178.00" xlink:href="#hd"/>
<path d="M662.74 178.00v-25.30" class="stroke"/>
<use x="692.94" y="175.00" xlink:href="#hd"/>
<path d="M696.44 175.00v-18.20" class="stroke"/>
<use x="726.74" y="193.00" xlink:href="#hl"/>
<use x="726.74" y="196.00" xlink:href="#hd"/>
<path d="M730.24 196.00v-35.10" class="stroke"/>
<path class="fill"
	d="M767.54 206.20l76.20 0.00v-3.20l-76.20 -0.00"/>
<path class="fill"
	d="M791.74 201.20l51.80 0.00v-3.20l-51.80 -0.00"/>
<use x="771.44" y="187.00" xlink:href="#hd"/>
<path d="M767.94 187.00v18.20" class="stroke"/>
<use x="795.24" y="166.00" xlink:href="#hd"/>
<path d="M791.74 166.00v39.20" class="stroke"/>
<use x="813.24" y="169.00" xlink:href="#hd"/>
<defs>
<path id="unat" class="fill" d="
	m96 -750
	h-32
	v716
	l32 -8
	182 -54
	v282
	h32
	v-706
	l-34 10
	-180 50
	v-290
	m0 592
	v-190
	l182 -52
	v188"/>
<use id="nt0" transform="translate(-3,5) scale(0.018)"
	xlink:href="#unat"/>
</defs>
<use x="804.24" y="169.00" xlink:href="#nt0"/>
<path d="M809.74 169.00v36.20" class="stroke"/>
<use x="830.04" y="172.00" xlink:href="#hd"/>
<path d="M826.54 172.00v33.20" class="stroke"/>
<use x="846.94" y="175.00" xlink:href="#hd"/>
<path d="M843.44 175.00v30.20" class="stroke"/>
</g>
<g stroke-width="0.70" transform="scale(0.867)" font-family="Times" font-size="13.00">
<path class="stroke" stroke-width="1"
	d="M11.54 326.00v-88.00"/>
<path class="fill"
	d="M6.54 235.00
	c10.5 1 12 -4.5 12 -3.5c0 1 -3.5 5.5 -8.5 5.5
	v90.00
	c5 0 8.5 4.5 8.5 5.5c0 1 -1.5 -4.5 -12 -3.5"/>
<use x="141.14" y="262.00" xlink:href="#rdots"/>
<path class="stroke" stroke-width="1"
	d="M137.14 262.00v-24.00"/>
<path class="stroke" stroke-width="3"
	d="M132.64 262.00v-24.00"/>
<use x="141.14" y="326.00" xlink:href="#rdots"/>
<path class="stroke" stroke-width="1"
	d="M137.14 326.00v-64.00"/>
<path class="stroke" stroke-width="3"
	d="M132.64 326.00v-64.00"/>
<path class="stroke" stroke-width="1"
	d="M245.44 262.00v-24.00"/>
<path class="stroke" stroke-width="1"
	d="M245.44 326.00v-64.00"/>
<path class="stroke" stroke-width="1"
	d="M340.94 262.00v-24.00"/>
<path class="stroke" stroke-width="1"
	d="M340.94 326.00v-64.00"/>
<path class="stroke" stroke-width="1"
	d="M436.44 262.00v-24.00"/>
<path class="stroke" stroke-width="1"
	d="M436.44 326.00v-64.00"/>
<path class="stroke" stroke-width="1"
	d="M521.24 262.00v-24.00"/>
<path class="stroke" stroke-width="1"
	d="M521.24 326.00v-64.00"/>
<path class="stroke" stroke-width="1"
	d="M607.94 262.00v-24.00"/>
<path class="stroke" stroke-width="1"
	d="M607.94 326.00v-64.00"/>
<path class="stroke" stroke-width="1"
	d="M694.64 262.00v-24.00"/>
<path class="stroke" stroke-width="1"
	d="M694.64 326.00v-64.00"/>
<path class="stroke" stroke-width="1"
	d="M790.14 262.00v-24.00"/>
<path class="stroke" stroke-width="1"
	d="M790.14 326.00v-64.00"/>
<path class="stroke" stroke-width="3"
	d="M860.54 262.00v-24.00"/>
<path class="stroke" stroke-width="1"
	d="M856.04 262.00v-24.00"/>
<use x="852.04" y="262.00" xlink:href="#rdots"/>
<path class="stroke" stroke-width="3"
	d="M860.54 326.00v-64.00"/>
<path class="stroke" stroke-width="1"
	d="M856.04 326.00v-64.00"/>
<use x="852.04" y="326.00" xlink:href="#rdots"/>
<path d="m11.54 262.00
	h850.50
	M11.54 256.00
	h850.50
	M11.54 250.00
	h850.50
	M11.54 244.00
	h850.50
	M11.54 238.00
	h850.50
	" class="stroke"/>
<path d="m11.54 326.00
	h850.50
	M11.54 320.00
	h850.50
	M11.54 314.00
	h850.50
	M11.54 308.00
	h850.50
	M11.54 302.00
	h850.50
	" class="stroke"/>
<text x="47.54" y="223.40">2</text>
<path class="stroke"
	d="M43.54 212.00m0 20v-20h86.60v20"/>
<use x="23.54" y="256.00" xlink:href="#tclef"/>
<use x="56.04" y="235.00" xlink:href="#hd"/>
<path d="M52.54 235.00v40.00" class="stroke"/>
<use x="56.04" y="256.00" xlink:href="#hd"/>
<use x="56.04" y="250.00" xlink:href="#hd"/>
<use x="56.04" y="244.00" xlink:href="#hd"/>
<use x="107.54" y="250.00" xlink:href="#r8"/>
<path class="fill"
	d="M150.84 285.30l79.00 -13.10v-3.20l-79.00 13.10"/>
<path class="fill"
	d="M151.14 280.20l78.30 -13.00v-3.20l-78.30 13.00"/>
<use x="154.64" y="265.00" xlink:href="#hd"/>
<path d="M151.14 265.00v19.20" class="stroke"/>
<use x="172.64" y="259.00" xlink:href="#hd"/>
<use x="163.64" y="259.00" xlink:href="#sh0"/>
<path d="M169.14 259.00v22.20" class="stroke"/>
<use x="186.74" y="253.00" xlink:href="#hd"/>
<path d="M183.24 253.00v25.90" class="stroke"/>
<use x="200.84" y="244.00" xlink:href="#hd"/>
<path d="M197.34 244.00v32.50" class="stroke"/>
<use x="218.84" y="238.00" xlink:href="#hd"/>
<use x="209.84" y="238.00" xlink:href="#sh0"/>
<path d="M215.34 238.00v35.50" class="stroke"/>
<use x="232.94" y="232.00" xlink:href="#hl"/>
<use x="232.94" y="232.00" xlink:href="#hd"/>
<path d="M229.44 232.00v39.20" class="stroke"/>
<path class="fill"
	d="M254.14 270.80l57.10 8.80v-3.20l-57.10 -8.80"/>
<use x="257.94" y="235.00" xlink:href="#hd"/>
<path d="M254.44 235.00v34.80" class="stroke"/>
<use x="286.14" y="256.00" xlink:href="#hd"/>
<path d="M282.64 256.00v18.20" class="stroke"/>
<use x="314.34" y="256.00" xlink:href="#hd"/>
<path d="M310.84 256.00v22.60" class="stroke"/>
<path class="fill"
	d="M349.64 265.00l57.10 0.00v-3.20l-57.10 -0.00"/>
<use x="353.44" y="241.00" xlink:href="#hd"/>
<path d="M349.94 241.00v23.00" class="stroke"/>
<use x="353.44" y="247.00" xlink:href="#hd"/>
<use x="381.64" y="241.00" xlink:href="#hd"/>
<path d="M378.14 241.00v23.00" class="stroke"/>
<use x="381.64" y="247.00" xlink:href="#hd"/>
<use x="409.84" y="241.00" xlink:href="#hd"/>
<path d="M406.34 241.00v23.00" class="stroke"/>
<use x="409.84" y="247.00" xlink:href="#hd"/>
<path class="fill"
	d="M445.14 266.60l57.10 8.60v-3.20l-57.10 -8.60"/>
<path class="fill"
	d="M445.44 261.70l42.30 6.40v-3.20l-42.30 -6.40"/>
<use x="448.94" y="235.00" xlink:href="#hd"/>
<path d="M445.44 235.00v30.70" class="stroke"/>
<use x="463.04" y="241.00" xlink:href="#hd"/>
<path d="M459.54 241.00v26.80" class="stroke"/>
<use x="477.14" y="244.00" xlink:href="#hd"/>
<path d="M473.64 244.00v25.90" class="stroke"/>
<use x="491.24" y="250.00" xlink:href="#hd"/>
<path d="M487.74 250.00v22.10" class="stroke"/>
<use x="505.34" y="256.00" xlink:href="#hd"/>
<path d="M501.84 256.00v18.20" class="stroke"/>
<path class="fill"
	d="M529.84 260.40l62.40 8.80v-3.20l-62.40 -8.80"/>
<path class="fill"
	d="M549.64 258.20l42.30 6.00v-3.20l-42.30 -6.00"/>
<use x="533.74" y="235.00" xlink:href="#hd"/>
<path d="M530.24 235.00v24.50" class="stroke"/>
<use x="553.14" y="238.00" xlink:href="#hd"/>
<path d="M549.64 238.00v24.20" class="stroke"/>
<use x="567.24" y="241.00" xlink:href="#hd"/>
<path d="M563.74 241.00v23.20" class="stroke"/>
<use x="581.34" y="244.00" xlink:href="#hd"/>
<path d="M577.84 244.00v22.20" class="stroke"/>
<use x="595.44" y="247.00" xlink:href="#hd"/>
<path d="M591.94 247.00v21.20" class="stroke"/>
<path class="fill"
	d="M616.64 260.40l62.40 8.80v-3.20l-62.40 -8.80"/>
<path class="fill"
	d="M636.34 258.20l42.30 6.00v-3.20l-42.30 -6.00"/>
<use x="620.44" y="235.00" xlink:href="#hd"/>
<path d="M616.94 235.00v24.50" class="stroke"/>
<use x="639.84" y="238.00" xlink:href="#hd"/>
<path d="M636.34 238.00v24.20" class="stroke"/>
<use x="653.94" y="241.00" xlink:href="#hd"/>
<path d="M650.44 241.00v23.20" class="stroke"/>
<use x="668.04" y="244.00" xlink:href="#hd"/>
<path d="M664.54 244.00v22.20" class="stroke"/>
<use x="682.14" y="247.00" xlink:href="#hd"/>
<path d="M678.64 247.00v21.20" class="stroke"/>
<path class="fill"
	d="M703.34 275.20l71.20 0.00v-3.20l-71.20 -0.00"/>
<path class="fill"
	d="M703.64 270.20l70.50 0.00v-3.20l-70.50 -0.00"/>
<use x="707.14" y="244.00" xlink:href="#hd"/>
<path d="M703.64 244.00v30.20" class="stroke"/>
<use x="721.24" y="238.00" xlink:href="#hd"/>
<path d="M717.74 238.00v36.20" class="stroke"/>
<use x="735.34" y="253.00" xlink:href="#hd"/>
<path d="M731.84 253.00v21.20" class="stroke"/>
<use x="749.44" y="244.00" xlink:href="#hd"/>
<path d="M745.94 244.00v30.20" class="stroke"/>
<use x="763.54" y="250.00" xlink:href="#hd"/>
<path d="M760.04 250.00v24.20" class="stroke"/>
<use x="777.64" y="244.00" xlink:href="#hd"/>
<path d="M774.14 244.00v30.20" class="stroke"/>
<use x="802.64" y="247.00" xlink:href="#hd"/>
<path d="M799.14 247.00v21.00" class="stroke"/>
<use x="841.54" y="250.00" xlink:href="#r8"/>
<use x="23.54" y="308.00" xlink:href="#bclef"/>
<path class="fill"
	d="M52.24 345.20l66.30 -4.90v-3.20l-66.30 4.90"/>
<path class="fill"
	d="M71.94 338.80l46.20 -3.40v-3.20l-46.20 3.40"/>
<use x="56.04" y="326.00" xlink:href="#hd"/>
<path d="M52.54 326.00v18.20" class="stroke"/>
<use x="75.44" y="299.00" xlink:href="#hd"/>
<path d="M71.94 299.00v43.80" class="stroke"/>
<use x="89.54" y="305.00" xlink:href="#hd"/>
<path d="M86.04 305.00v36.70" class="stroke"/>
<use x="107.54" y="308.00" xlink:href="#hd"/>
<use x="98.54" y="308.00" xlink:href="#sh0"/>
<path d="M104.04 308.00v32.40" class="stroke"/>
<use x="121.64" y="311.00" xlink:href="#hd"/>
<path d="M118.14 311.00v28.40" class="stroke"/>
<use x="154.64" y="314.00" xlink:href="#hd"/>
<path d="M158.14 314.00v-21.00" class="stroke"/>
<use x="218.84" y="317.00" xlink:href="#hd"/>
<path d="M222.34 317.00v-21.00" class="stroke"/>
<path class="fill"
	d="M222.34 296.00c0.6 5.6 9.6 9 5.6 18.4
	1.6 -6 -1.3 -11.6 -5.6 -12.8
"/>
<path class="fill"
	d="M254.14 348.20l71.20 0.00v-3.20l-71.20 -0.00"/>
<path class="fill"
	d="M254.44 343.20l70.50 0.00v-3.20l-70.50 -0.00"/>
<use x="257.94" y="320.00" xlink:href="#hd"/>
<path d="M254.44 320.00v27.20" class="stroke"/>
<use x="272.04" y="314.00" xlink:href="#hd"/>
<path d="M268.54 314.00v33.20" class="stroke"/>
<use x="286.14" y="305.00" xlink:href="#hd"/>
<path d="M282.64 305.00v42.20" class="stroke"/>
<use x="300.24" y="314.00" xlink:href="#hd"/>
<path d="M296.74 314.00v33.20" class="stroke"/>
<use x="314.34" y="299.00" xlink:href="#hd"/>
<path d="M310.84 299.00v48.20" class="stroke"/>
<use x="328.44" y="326.00" xlink:href="#hd"/>
<path d="M324.94 326.00v21.20" class="stroke"/>
<path class="fill"
	d="M349.64 339.20l71.20 0.00v-3.20l-71.20 -0.00"/>
<path class="fill"
	d="M349.94 334.20l70.50 0.00v-3.20l-70.50 -0.00"/>
<use x="353.44" y="317.00" xlink:href="#hd"/>
<path d="M349.94 317.00v21.20" class="stroke"/>
<use x="367.54" y="311.00" xlink:href="#hd"/>
<path d="M364.04 311.00v27.20" class="stroke"/>
<use x="381.64" y="305.00" xlink:href="#hd"/>
<path d="M378.14 305.00v33.20" class="stroke"/>
<use x="395.74" y="311.00" xlink:href="#hd"/>
<path d="M392.24 311.00v27.20" class="stroke"/>
<use x="409.84" y="296.00" xlink:href="#hl"/>
<use x="409.84" y="296.00" xlink:href="#hd"/>
<path d="M406.34 296.00v42.20" class="stroke"/>
<use x="423.94" y="317.00" xlink:href="#hd"/>
<path d="M420.44 317.00v21.20" class="stroke"/>
<path class="fill"
	d="M452.14 285.70l28.90 8.60v3.20l-28.90 -8.60"/>
<use x="448.94" y="305.00" xlink:href="#hd"/>
<path d="M452.44 305.00v-18.20" class="stroke"/>
<use x="477.14" y="326.00" xlink:href="#hd"/>
<path d="M480.64 326.00v-30.80" class="stroke"/>
<use x="505.34" y="314.00" xlink:href="#r8"/>
<use x="533.74" y="311.00" xlink:href="#hd"/>
<path d="M530.24 311.00v25.00" class="stroke"/>
<use x="533.74" y="317.00" xlink:href="#hd"/>
<use x="581.34" y="314.00" xlink:href="#r8"/>
<use x="620.44" y="311.00" xlink:href="#hd"/>
<path d="M616.94 311.00v25.00" class="stroke"/>
<use x="620.44" y="317.00" xlink:href="#hd"/>
<use x="668.04" y="305.00" xlink:href="#hd"/>
<path d="M664.54 305.00v25.00" class="stroke"/>
<path class="fill"
	d="M664.54 330.00c0.6 -5.6 9.6 -9 5.6 -18.4
	1.6 6 -1.3 11.6 -5.6 12.8
"/>
<use x="668.04" y="311.00" xlink:href="#hd"/>
<use x="707.14" y="308.00" xlink:href="#hd"/>
<path d="M703.64 308.00v21.00" class="stroke"/>
<use x="763.54" y="305.00" xlink:href="#hd"/>
<path d="M760.04 305.00v21.00" class="stroke"/>
<path class="fill"
	d="M760.04 326.00c0.6 -5.6 9.6 -9 5.6 -18.4
	1.6 6 -1.3 11.6 -5.6 12.8
"/>
<path class="fill"
	d="M805.84 297.70l39.60 9.50v3.20l-39.60 -9.50"/>
<use x="802.64" y="317.00" xlink:href="#hd"/>
<path d="M806.14 317.00v-18.20" class="stroke"/>
<use x="822.14" y="326.00" xlink:href="#hd"/>
<path d="M825.64 326.00v-22.50" class="stroke"/>
<use x="841.54" y="332.00" xlink:href="#hl"/>
<use x="841.54" y="338.00" xlink:href="#hl"/>
<use x="841.54" y="338.00" xlink:href="#hd"/>
<path d="M845.04 338.00v-29.90" class="stroke"/>
</g>
</svg>
