<?xml version="1.0" standalone="no"?>
<!DOCTYPE svg PUBLIC "-//W3C//DTD SVG 1.1//EN"
	"http://www.w3.org/Graphics/SVG/1.1/DTD/svg11.dtd">
<svg xmlns="http://www.w3.org/2000/svg" version="1.1"
	xmlns:xlink="http://www.w3.org/1999/xlink"
	color="black"
	width="757.10px" height="293.80px">
<style type="text/css">
.fill {fill: currentColor}
.stroke {stroke: currentColor; fill: none}
text{white-space: pre}
</style>
<title>./K516f-2-6-2-10-7-8-3-12-2-5-12-9-2-6-12-4.abc (3579) tune 1</title>
<!-- Creator: abcm2ps-8.13.8 -->
<!-- CreationDate: Sep  7, 2017 11:20 -->
<!-- CommandLine: ./K516f-2-6-2-10-7-8-3-12-2-5-12-9-2-6-12-4.abc -O ./K516f-2-6-2-10-7-8-3-12-2-5-12-9-2-6-12-4.svg -g -->
<rect width="100%" height="100%" fill="white"/>
<g stroke-width="0.70" transform="scale(0.867)">
<!-- title: 2-6-2-10-7-8-3-12-2-5-12-9-2-6-12-4 -->
</g>
<g stroke-width="0.70" transform="scale(0.867)" font-family="Times" font-size="20.00">
<text x="436.84" y="22.00" text-anchor="middle">2-6-2-10-7-8-3-12-2-5-12-9-2-6-12-4</text>
</g>
<g stroke-width="0.70" transform="scale(0.867)" font-family="Times" font-size="20.00">
<!-- subtitle: $1K.516f::96:74:141:156:154:133:134:5:70:176:108:166:112:136:44:79::$0 -->
</g>
<g stroke-width="0.70" transform="scale(0.867)" font-family="Courier" font-size="8.00" font-weight="bold">
<text x="436.84" y="41.80" text-anchor="middle">K.516f::96:74:141:156:154:133:134:5:70:176:108:166:112:136:44:79::</text>
</g>
<g stroke-width="0.70" transform="scale(0.867)" font-family="Courier" font-size="8.00" font-weight="bold">
<!-- subtitle: $1Perm. No.: 357986622293719$0 -->
<text x="436.84" y="60.80" text-anchor="middle">Perm. No.: 357986622293719</text>
</g>
<g stroke-width="0.70" transform="scale(0.607)" font-family="Courier" font-size="8.00" font-weight="bold">
<defs>
<ellipse id="hd" rx="4.1" ry="2.9"
	transform="rotate(-20)" class="fill"/>
</defs>
<use x="103.06" y="121.29" xlink:href="#hd"/>
<path d="M106.56 121.29v-21.00" class="stroke"/>
<path class="fill"
	d="M106.56 100.29c0.6 5.6 9.6 9 5.6 18.4
	1.6 -6 -1.3 -11.6 -5.6 -12.8
"/>
</g>
<g stroke-width="0.70" transform="scale(0.867)" font-family="Times" font-size="15.00" font-weight="bold">
<text x="81.24" y="87.00">= 111</text>
<path class="stroke" stroke-width="1"
	d="M11.54 183.00v-82.00"/>
<path class="fill"
	d="M6.54 98.00
	c10.5 1 12 -4.5 12 -3.5c0 1 -3.5 5.5 -8.5 5.5
	v84.00
	c5 0 8.5 4.5 8.5 5.5c0 1 -1.5 -4.5 -12 -3.5"/>
<defs>
<g id="rdots" class="fill">
	<circle cx="0" cy="-9" r="1.2"/>
	<circle cx="0" cy="-15" r="1.2"/>
</g>
</defs>
<use x="70.54" y="125.00" xlink:href="#rdots"/>
<path class="stroke" stroke-width="1"
	d="M66.54 125.00v-24.00"/>
<path class="stroke" stroke-width="3"
	d="M62.04 125.00v-24.00"/>
<use x="70.54" y="183.00" xlink:href="#rdots"/>
<path class="stroke" stroke-width="1"
	d="M66.54 183.00v-58.00"/>
<path class="stroke" stroke-width="3"
	d="M62.04 183.00v-58.00"/>
<path class="stroke" stroke-width="1"
	d="M146.64 125.00v-24.00"/>
<path class="stroke" stroke-width="1"
	d="M146.64 183.00v-58.00"/>
<path class="stroke" stroke-width="1"
	d="M251.84 125.00v-24.00"/>
<path class="stroke" stroke-width="1"
	d="M251.84 183.00v-58.00"/>
<path class="stroke" stroke-width="1"
	d="M356.84 125.00v-24.00"/>
<path class="stroke" stroke-width="1"
	d="M356.84 183.00v-58.00"/>
<path class="stroke" stroke-width="1"
	d="M450.94 125.00v-24.00"/>
<path class="stroke" stroke-width="1"
	d="M450.94 183.00v-58.00"/>
<path class="stroke" stroke-width="1"
	d="M560.14 125.00v-24.00"/>
<path class="stroke" stroke-width="1"
	d="M560.14 183.00v-58.00"/>
<path class="stroke" stroke-width="1"
	d="M655.64 125.00v-24.00"/>
<path class="stroke" stroke-width="1"
	d="M655.64 183.00v-58.00"/>
<path class="stroke" stroke-width="1"
	d="M762.74 125.00v-24.00"/>
<path class="stroke" stroke-width="1"
	d="M762.74 183.00v-58.00"/>
<path class="stroke" stroke-width="3"
	d="M860.54 125.00v-24.00"/>
<path class="stroke" stroke-width="1"
	d="M856.04 125.00v-24.00"/>
<use x="852.04" y="125.00" xlink:href="#rdots"/>
<path class="stroke" stroke-width="3"
	d="M860.54 183.00v-58.00"/>
<path class="stroke" stroke-width="1"
	d="M856.04 183.00v-58.00"/>
<use x="852.04" y="183.00" xlink:href="#rdots"/>
<path d="m11.54 125.00
	h850.50
	M11.54 119.00
	h850.50
	M11.54 113.00
	h850.50
	M11.54 107.00
	h850.50
	M11.54 101.00
	h850.50
	" class="stroke"/>
<path d="m11.54 183.00
	h850.50
	M11.54 177.00
	h850.50
	M11.54 171.00
	h850.50
	M11.54 165.00
	h850.50
	M11.54 159.00
	h850.50
	" class="stroke"/>
</g>
<g stroke-width="0.70" transform="scale(0.867)" font-family="Times" font-size="13.00">
<text x="766.74" y="86.40">1</text>
<path class="stroke"
	d="M762.74 75.00m0 20v-20h91.30v20"/>
<defs>
<path id="utclef" class="fill" d="m-50 -90
	c-72 -41 -72 -158 52 -188
	150 -10 220 188 90 256
	-114 52 -275 0 -293 -136
	-15 -181 93 -229 220 -334
	88 -87 79 -133 62 -210
	-51 33 -94 105 -89 186
	17 267 36 374 49 574
	6 96 -19 134 -77 135
	-80 1 -126 -93 -61 -133
	85 -41 133 101 31 105
	23 17 92 37 90 -92
	-10 -223 -39 -342 -50 -617
	0 -90 0 -162 96 -232
	56 72 63 230 22 289
	-74 106 -257 168 -255 316
	9 153 148 185 252 133
	86 -65 29 -192 -80 -176
	-71 12 -105 67 -59 124"/>
<use id="tclef" transform="translate(0,6) scale(0.045)"
	xlink:href="#utclef"/>
</defs>
<use x="23.54" y="119.00" xlink:href="#tclef"/>
<g font-family="serif" font-size="16" font-weight="bold" font-style="normal"
	transform="translate(42.04,124.50) scale(1.2,1)">
	<text text-anchor="middle">8</text>
	<text y="-12" text-anchor="middle">3</text>
</g>
<path class="fill"
	d="M80.44 131.70l45.40 6.50v-3.20l-45.40 -6.50"/>
<use x="84.34" y="104.00" xlink:href="#hd"/>
<path d="M80.84 104.00v26.80" class="stroke"/>
<use x="106.64" y="110.00" xlink:href="#hd"/>
<path d="M103.14 110.00v24.00" class="stroke"/>
<use x="129.04" y="119.00" xlink:href="#hd"/>
<path d="M125.54 119.00v18.20" class="stroke"/>
<path class="fill"
	d="M155.54 122.70l80.40 9.50v-3.20l-80.40 -9.50"/>
<path class="fill"
	d="M155.94 117.80l79.70 9.40v-3.20l-79.70 -9.40"/>
<defs>
<path id="hl" class="stroke" d="m-6 0h12"/>
</defs>
<use x="159.44" y="95.00" xlink:href="#hl"/>
<use x="159.44" y="89.00" xlink:href="#hl"/>
<use x="159.44" y="89.00" xlink:href="#hd"/>
<path d="M155.94 89.00v32.80" class="stroke"/>
<use x="175.44" y="95.00" xlink:href="#hl"/>
<use x="175.44" y="92.00" xlink:href="#hd"/>
<path d="M171.94 92.00v31.70" class="stroke"/>
<use x="191.44" y="95.00" xlink:href="#hl"/>
<use x="191.44" y="89.00" xlink:href="#hl"/>
<use x="191.44" y="89.00" xlink:href="#hd"/>
<path d="M187.94 89.00v36.60" class="stroke"/>
<use x="207.34" y="98.00" xlink:href="#hd"/>
<path d="M203.84 98.00v29.40" class="stroke"/>
<use x="223.24" y="104.00" xlink:href="#hd"/>
<path d="M219.74 104.00v25.30" class="stroke"/>
<use x="239.14" y="110.00" xlink:href="#hd"/>
<path d="M235.64 110.00v21.20" class="stroke"/>
<path class="fill"
	d="M260.74 133.00l80.30 0.00v-3.20l-80.30 -0.00"/>
<path class="fill"
	d="M261.14 128.00l79.60 0.00v-3.20l-79.60 -0.00"/>
<use x="264.64" y="107.00" xlink:href="#hd"/>
<path d="M261.14 107.00v24.90" class="stroke"/>
<use x="280.54" y="104.00" xlink:href="#hd"/>
<path d="M277.04 104.00v27.90" class="stroke"/>
<use x="296.44" y="101.00" xlink:href="#hd"/>
<path d="M292.94 101.00v30.90" class="stroke"/>
<use x="312.34" y="107.00" xlink:href="#hd"/>
<path d="M308.84 107.00v24.90" class="stroke"/>
<use x="328.24" y="110.00" xlink:href="#hd"/>
<path d="M324.74 110.00v21.90" class="stroke"/>
<use x="344.24" y="113.00" xlink:href="#hd"/>
<path d="M340.74 113.00v18.90" class="stroke"/>
<path class="fill"
	d="M365.74 142.80l64.40 -6.40v-3.20l-64.40 6.40"/>
<path class="fill"
	d="M366.14 137.80l47.80 -4.80v-3.20l-47.80 4.80"/>
<use x="369.64" y="110.00" xlink:href="#hd"/>
<path d="M366.14 110.00v31.80" class="stroke"/>
<use x="385.54" y="119.00" xlink:href="#hd"/>
<path d="M382.04 119.00v21.20" class="stroke"/>
<use x="401.44" y="104.00" xlink:href="#hd"/>
<path d="M397.94 104.00v34.60" class="stroke"/>
<use x="417.34" y="110.00" xlink:href="#hd"/>
<path d="M413.84 110.00v27.00" class="stroke"/>
<use x="433.34" y="98.00" xlink:href="#hd"/>
<path d="M429.84 98.00v37.40" class="stroke"/>
<path class="fill"
	d="M459.84 133.00l84.40 0.00v-3.20l-84.40 -0.00"/>
<path class="fill"
	d="M460.24 128.00l83.80 0.00v-3.20l-83.80 -0.00"/>
<use x="463.74" y="107.00" xlink:href="#hd"/>
<path d="M460.24 107.00v24.90" class="stroke"/>
<use x="481.74" y="110.00" xlink:href="#hd"/>
<defs>
<path id="usharp" class="fill" d="
	m136 -702
	v890
	h32
	v-890
	m128 840
	h32
	v-888
	h-32
	m-232 286
	v116
	l338 -96
	v-116
	m-338 442
	v116
	l338 -98
	v-114"/>
<use id="sh0" transform="translate(-4,5) scale(0.018)"
	xlink:href="#usharp"/>
</defs>
<use x="472.74" y="110.00" xlink:href="#sh0"/>
<path d="M478.24 110.00v21.90" class="stroke"/>
<use x="497.64" y="107.00" xlink:href="#hd"/>
<path d="M494.14 107.00v24.90" class="stroke"/>
<use x="515.64" y="101.00" xlink:href="#hd"/>
<use x="506.64" y="101.00" xlink:href="#sh0"/>
<path d="M512.14 101.00v30.90" class="stroke"/>
<use x="531.54" y="95.00" xlink:href="#hl"/>
<use x="531.54" y="95.00" xlink:href="#hd"/>
<path d="M528.04 95.00v36.90" class="stroke"/>
<use x="547.44" y="101.00" xlink:href="#hd"/>
<path d="M543.94 101.00v30.90" class="stroke"/>
<path class="fill"
	d="M569.04 135.20l70.80 0.00v-3.20l-70.80 -0.00"/>
<path class="fill"
	d="M591.74 130.20l47.80 0.00v-3.20l-47.80 -0.00"/>
<use x="572.94" y="107.00" xlink:href="#hd"/>
<path d="M569.44 107.00v27.20" class="stroke"/>
<use x="595.24" y="98.00" xlink:href="#hd"/>
<path d="M591.74 98.00v36.20" class="stroke"/>
<use x="611.14" y="107.00" xlink:href="#hd"/>
<path d="M607.64 107.00v27.20" class="stroke"/>
<use x="627.04" y="113.00" xlink:href="#hd"/>
<path d="M623.54 113.00v21.20" class="stroke"/>
<use x="643.04" y="107.00" xlink:href="#hd"/>
<path d="M639.54 107.00v27.20" class="stroke"/>
<path class="fill"
	d="M664.64 140.20l82.40 0.00v-3.20l-82.40 -0.00"/>
<path class="fill"
	d="M664.94 135.20l81.70 0.00v-3.20l-81.70 -0.00"/>
<use x="668.44" y="116.00" xlink:href="#hd"/>
<path d="M664.94 116.00v23.20" class="stroke"/>
<use x="684.34" y="104.00" xlink:href="#hd"/>
<path d="M680.84 104.00v35.20" class="stroke"/>
<use x="700.24" y="107.00" xlink:href="#hd"/>
<path d="M696.74 107.00v32.20" class="stroke"/>
<use x="700.24" y="113.00" xlink:href="#hd"/>
<use x="716.24" y="110.00" xlink:href="#hd"/>
<path d="M712.74 110.00v29.20" class="stroke"/>
<use x="716.24" y="116.00" xlink:href="#hd"/>
<use x="732.14" y="113.00" xlink:href="#hd"/>
<path d="M728.64 113.00v26.20" class="stroke"/>
<use x="732.14" y="119.00" xlink:href="#hd"/>
<use x="750.14" y="116.00" xlink:href="#hd"/>
<path d="M746.64 116.00v23.20" class="stroke"/>
<use x="750.14" y="122.00" xlink:href="#hd"/>
<use x="741.14" y="122.00" xlink:href="#sh0"/>
<use x="775.54" y="98.00" xlink:href="#hd"/>
<path d="M772.04 98.00v40.00" class="stroke"/>
<use x="775.54" y="119.00" xlink:href="#hd"/>
<use x="775.54" y="113.00" xlink:href="#hd"/>
<use x="775.54" y="107.00" xlink:href="#hd"/>
<defs>
<path id="r8e" class="fill" d="m 0 0
	c-1.5 1.5 -2.4 2 -3.6 2
	2.4 -2.8 -2.8 -4 -2.8 -1.2
	c0 2.7 4.3 2.4 5.9 0.6"/>
<g id="r8">
	<path d="m3.3 -4l-3.4 9.6" class="stroke"/>
	<use x="3.4" y="-4" xlink:href="#r8e"/>
</g>
</defs>
<use x="831.84" y="113.00" xlink:href="#r8"/>
<defs>
<path id="ubclef" class="fill" d="m-200 -87
	c124 -35 222 -78 254 -236
	43 -228 -167 -246 -192 -103
	59 -80 157 22 92 78
	-62 47 -115 -22 -106 -88
	21 -141 270 -136 274 52
	-1 175 -106 264 -322 297
	m357 -250
	c0 -36 51 -34 51 0
	0 37 -51 36 -51 0
	m-2 -129
	c0 -36 51 -34 51 0
	0 38 -51 37 -51 0"/>
<use id="bclef" transform="translate(0,18) scale(0.045)"
	xlink:href="#ubclef"/>
</defs>
<use x="23.54" y="165.00" xlink:href="#bclef"/>
<g font-family="serif" font-size="16" font-weight="bold" font-style="normal"
	transform="translate(42.04,182.50) scale(1.2,1)">
	<text text-anchor="middle">8</text>
	<text y="-12" text-anchor="middle">3</text>
</g>
<use x="84.34" y="174.00" xlink:href="#hd"/>
<path d="M87.84 174.00v-21.00" class="stroke"/>
<use x="129.04" y="171.00" xlink:href="#r8"/>
<use x="159.44" y="168.00" xlink:href="#hd"/>
<path d="M162.94 168.00v-21.00" class="stroke"/>
<use x="223.24" y="171.00" xlink:href="#r8"/>
<use x="264.64" y="162.00" xlink:href="#hd"/>
<path d="M261.14 162.00v34.00" class="stroke"/>
<use x="264.64" y="177.00" xlink:href="#hd"/>
<use x="328.24" y="183.00" xlink:href="#hd"/>
<path d="M331.74 183.00v-21.00" class="stroke"/>
<path class="fill"
	d="M331.74 162.00c0.6 5.6 9.6 9 5.6 18.4
	1.6 -6 -1.3 -11.6 -5.6 -12.8
"/>
<use x="369.64" y="162.00" xlink:href="#hd"/>
<path d="M366.14 162.00v25.00" class="stroke"/>
<use x="369.64" y="168.00" xlink:href="#hd"/>
<use x="433.34" y="171.00" xlink:href="#r8"/>
<use x="463.74" y="174.00" xlink:href="#hd"/>
<path d="M467.24 174.00v-21.00" class="stroke"/>
<use x="531.54" y="171.00" xlink:href="#r8"/>
<use x="572.94" y="162.00" xlink:href="#hd"/>
<path d="M569.44 162.00v34.00" class="stroke"/>
<use x="572.94" y="177.00" xlink:href="#hd"/>
<use x="627.04" y="171.00" xlink:href="#r8"/>
<path class="fill"
	d="M671.64 147.70l64.40 8.20v3.20l-64.40 -8.20"/>
<use x="668.44" y="174.00" xlink:href="#hd"/>
<path d="M671.94 174.00v-25.20" class="stroke"/>
<use x="700.24" y="171.00" xlink:href="#hd"/>
<path d="M703.74 171.00v-18.20" class="stroke"/>
<use x="732.14" y="189.00" xlink:href="#hl"/>
<use x="732.14" y="192.00" xlink:href="#hd"/>
<path d="M735.64 192.00v-35.20" class="stroke"/>
<path class="fill"
	d="M771.74 202.20l72.90 0.00v-3.20l-72.90 -0.00"/>
<path class="fill"
	d="M794.34 197.20l49.80 0.00v-3.20l-49.80 -0.00"/>
<use x="775.54" y="183.00" xlink:href="#hd"/>
<path d="M772.04 183.00v18.20" class="stroke"/>
<use x="797.84" y="162.00" xlink:href="#hd"/>
<path d="M794.34 162.00v39.20" class="stroke"/>
<use x="815.84" y="165.00" xlink:href="#hd"/>
<defs>
<path id="unat" class="fill" d="
	m96 -750
	h-32
	v716
	l32 -8
	182 -54
	v282
	h32
	v-706
	l-34 10
	-180 50
	v-290
	m0 592
	v-190
	l182 -52
	v188"/>
<use id="nt0" transform="translate(-3,5) scale(0.018)"
	xlink:href="#unat"/>
</defs>
<use x="806.84" y="165.00" xlink:href="#nt0"/>
<path d="M812.34 165.00v36.20" class="stroke"/>
<use x="831.84" y="168.00" xlink:href="#hd"/>
<path d="M828.34 168.00v33.20" class="stroke"/>
<use x="847.74" y="171.00" xlink:href="#hd"/>
<path d="M844.24 171.00v30.20" class="stroke"/>
<use x="159.44" y="174.00" xlink:href="#hd"/>
<path d="M155.94 174.00v21.00" class="stroke"/>
</g>
<g stroke-width="0.70" transform="scale(0.867)" font-family="Times" font-size="13.00">
<path class="stroke" stroke-width="1"
	d="M11.54 316.00v-82.00"/>
<path class="fill"
	d="M6.54 231.00
	c10.5 1 12 -4.5 12 -3.5c0 1 -3.5 5.5 -8.5 5.5
	v84.00
	c5 0 8.5 4.5 8.5 5.5c0 1 -1.5 -4.5 -12 -3.5"/>
<use x="143.84" y="258.00" xlink:href="#rdots"/>
<path class="stroke" stroke-width="1"
	d="M139.84 258.00v-24.00"/>
<path class="stroke" stroke-width="3"
	d="M135.34 258.00v-24.00"/>
<use x="143.84" y="316.00" xlink:href="#rdots"/>
<path class="stroke" stroke-width="1"
	d="M139.84 316.00v-58.00"/>
<path class="stroke" stroke-width="3"
	d="M135.34 316.00v-58.00"/>
<path class="stroke" stroke-width="1"
	d="M241.04 258.00v-24.00"/>
<path class="stroke" stroke-width="1"
	d="M241.04 316.00v-58.00"/>
<path class="stroke" stroke-width="1"
	d="M340.24 258.00v-24.00"/>
<path class="stroke" stroke-width="1"
	d="M340.24 316.00v-58.00"/>
<path class="stroke" stroke-width="1"
	d="M410.64 258.00v-24.00"/>
<path class="stroke" stroke-width="1"
	d="M410.64 316.00v-58.00"/>
<path class="stroke" stroke-width="1"
	d="M498.94 258.00v-24.00"/>
<path class="stroke" stroke-width="1"
	d="M498.94 316.00v-58.00"/>
<path class="stroke" stroke-width="1"
	d="M598.14 258.00v-24.00"/>
<path class="stroke" stroke-width="1"
	d="M598.14 316.00v-58.00"/>
<path class="stroke" stroke-width="1"
	d="M697.44 258.00v-24.00"/>
<path class="stroke" stroke-width="1"
	d="M697.44 316.00v-58.00"/>
<path class="stroke" stroke-width="1"
	d="M787.64 258.00v-24.00"/>
<path class="stroke" stroke-width="1"
	d="M787.64 316.00v-58.00"/>
<path class="stroke" stroke-width="3"
	d="M860.54 258.00v-24.00"/>
<path class="stroke" stroke-width="1"
	d="M856.04 258.00v-24.00"/>
<use x="852.04" y="258.00" xlink:href="#rdots"/>
<path class="stroke" stroke-width="3"
	d="M860.54 316.00v-58.00"/>
<path class="stroke" stroke-width="1"
	d="M856.04 316.00v-58.00"/>
<use x="852.04" y="316.00" xlink:href="#rdots"/>
<path d="m11.54 258.00
	h850.50
	M11.54 252.00
	h850.50
	M11.54 246.00
	h850.50
	M11.54 240.00
	h850.50
	M11.54 234.00
	h850.50
	" class="stroke"/>
<path d="m11.54 316.00
	h850.50
	M11.54 310.00
	h850.50
	M11.54 304.00
	h850.50
	M11.54 298.00
	h850.50
	M11.54 292.00
	h850.50
	" class="stroke"/>
<path class="fill"
	d="M352.74 229.00c5.89 -5.77 31.49 -13.04 37.38 -10.60
	v-0.24c-7.01 -4.20 -30.37 3.06 -37.38 10.84"/>
<text x="47.54" y="219.40">2</text>
<path class="stroke"
	d="M43.54 208.00m0 20v-20h89.30v20"/>
<use x="23.54" y="252.00" xlink:href="#tclef"/>
<use x="56.04" y="231.00" xlink:href="#hd"/>
<path d="M52.54 231.00v40.00" class="stroke"/>
<use x="56.04" y="252.00" xlink:href="#hd"/>
<use x="56.04" y="246.00" xlink:href="#hd"/>
<use x="56.04" y="240.00" xlink:href="#hd"/>
<use x="109.54" y="246.00" xlink:href="#r8"/>
<path class="fill"
	d="M159.54 260.00l65.90 0.00v-3.20l-65.90 -0.00"/>
<path class="fill"
	d="M180.54 255.00l44.50 0.00v-3.20l-44.50 -0.00"/>
<use x="163.34" y="234.00" xlink:href="#hd"/>
<use x="154.34" y="234.00" xlink:href="#sh0"/>
<path d="M159.84 234.00v25.00" class="stroke"/>
<use x="184.04" y="228.00" xlink:href="#hl"/>
<use x="184.04" y="228.00" xlink:href="#hd"/>
<path d="M180.54 228.00v31.00" class="stroke"/>
<use x="198.94" y="234.00" xlink:href="#hd"/>
<path d="M195.44 234.00v25.00" class="stroke"/>
<use x="213.74" y="240.00" xlink:href="#hd"/>
<path d="M210.24 240.00v19.00" class="stroke"/>
<use x="228.54" y="234.00" xlink:href="#hd"/>
<path d="M225.04 234.00v25.00" class="stroke"/>
<path class="fill"
	d="M249.74 260.00l74.80 0.00v-3.20l-74.80 -0.00"/>
<path class="fill"
	d="M250.04 255.00l74.10 0.00v-3.20l-74.10 -0.00"/>
<use x="253.54" y="228.00" xlink:href="#hl"/>
<use x="253.54" y="228.00" xlink:href="#hd"/>
<path d="M250.04 228.00v31.00" class="stroke"/>
<use x="268.44" y="231.00" xlink:href="#hd"/>
<path d="M264.94 231.00v28.00" class="stroke"/>
<use x="283.24" y="228.00" xlink:href="#hl"/>
<use x="283.24" y="225.00" xlink:href="#hd"/>
<path d="M279.74 225.00v34.00" class="stroke"/>
<use x="298.04" y="231.00" xlink:href="#hd"/>
<path d="M294.54 231.00v28.00" class="stroke"/>
<use x="312.84" y="240.00" xlink:href="#hd"/>
<path d="M309.34 240.00v19.00" class="stroke"/>
<use x="327.74" y="231.00" xlink:href="#hd"/>
<path d="M324.24 231.00v28.00" class="stroke"/>
<path class="fill"
	d="M348.84 256.30l42.10 -7.70v-3.20l-42.10 7.70"/>
<use x="352.74" y="237.00" xlink:href="#hd"/>
<path d="M349.24 237.00v18.20" class="stroke"/>
<use x="373.44" y="231.00" xlink:href="#hd"/>
<path d="M369.94 231.00v20.40" class="stroke"/>
<use x="394.04" y="228.00" xlink:href="#hl"/>
<use x="394.04" y="222.00" xlink:href="#hl"/>
<use x="394.04" y="222.00" xlink:href="#hd"/>
<path d="M390.54 222.00v25.60" class="stroke"/>
<path class="fill"
	d="M419.24 262.20l60.00 5.40v-3.20l-60.00 -5.40"/>
<path class="fill"
	d="M419.64 257.20l44.50 4.00v-3.20l-44.50 -4.00"/>
<use x="423.14" y="240.00" xlink:href="#hd"/>
<path d="M419.64 240.00v21.20" class="stroke"/>
<use x="437.94" y="228.00" xlink:href="#hl"/>
<use x="437.94" y="225.00" xlink:href="#hd"/>
<path d="M434.44 225.00v37.50" class="stroke"/>
<use x="452.74" y="231.00" xlink:href="#hd"/>
<path d="M449.24 231.00v32.90" class="stroke"/>
<use x="467.64" y="240.00" xlink:href="#hd"/>
<path d="M464.14 240.00v25.20" class="stroke"/>
<use x="482.44" y="246.00" xlink:href="#hd"/>
<path d="M478.94 246.00v20.50" class="stroke"/>
<path class="fill"
	d="M507.64 264.30l60.00 7.00v-3.20l-60.00 -7.00"/>
<use x="511.44" y="237.00" xlink:href="#hd"/>
<path d="M507.94 237.00v26.30" class="stroke"/>
<use x="541.14" y="243.00" xlink:href="#hd"/>
<path d="M537.64 243.00v23.70" class="stroke"/>
<use x="570.74" y="252.00" xlink:href="#hd"/>
<path d="M567.24 252.00v18.20" class="stroke"/>
<path class="fill"
	d="M606.74 255.90l75.10 9.30v-3.20l-75.10 -9.30"/>
<path class="fill"
	d="M607.14 250.90l74.40 9.30v-3.20l-74.40 -9.30"/>
<use x="610.64" y="228.00" xlink:href="#hl"/>
<use x="610.64" y="222.00" xlink:href="#hl"/>
<use x="610.64" y="222.00" xlink:href="#hd"/>
<path d="M607.14 222.00v32.90" class="stroke"/>
<use x="625.54" y="228.00" xlink:href="#hl"/>
<use x="625.54" y="225.00" xlink:href="#hd"/>
<path d="M622.04 225.00v31.80" class="stroke"/>
<use x="640.54" y="228.00" xlink:href="#hl"/>
<use x="640.54" y="222.00" xlink:href="#hl"/>
<use x="640.54" y="222.00" xlink:href="#hd"/>
<path d="M637.04 222.00v36.70" class="stroke"/>
<use x="655.34" y="231.00" xlink:href="#hd"/>
<path d="M651.84 231.00v29.50" class="stroke"/>
<use x="670.14" y="237.00" xlink:href="#hd"/>
<path d="M666.64 237.00v25.40" class="stroke"/>
<use x="684.94" y="243.00" xlink:href="#hd"/>
<path d="M681.44 243.00v21.20" class="stroke"/>
<path class="fill"
	d="M706.14 268.20l65.90 -8.10v-3.20l-65.90 8.10"/>
<path class="fill"
	d="M727.14 260.70l44.50 -5.50v-3.20l-44.50 5.50"/>
<use x="709.94" y="249.00" xlink:href="#hd"/>
<path d="M706.44 249.00v18.20" class="stroke"/>
<use x="730.64" y="234.00" xlink:href="#hd"/>
<path d="M727.14 234.00v30.70" class="stroke"/>
<use x="745.54" y="240.00" xlink:href="#hd"/>
<path d="M742.04 240.00v22.80" class="stroke"/>
<use x="760.34" y="228.00" xlink:href="#hl"/>
<use x="760.34" y="228.00" xlink:href="#hd"/>
<path d="M756.84 228.00v33.00" class="stroke"/>
<use x="775.14" y="231.00" xlink:href="#hd"/>
<path d="M771.64 231.00v28.20" class="stroke"/>
<use x="800.14" y="243.00" xlink:href="#hd"/>
<path d="M796.64 243.00v21.00" class="stroke"/>
<use x="841.54" y="246.00" xlink:href="#r8"/>
<use x="23.54" y="298.00" xlink:href="#bclef"/>
<path class="fill"
	d="M52.24 335.20l69.00 -5.00v-3.20l-69.00 5.00"/>
<path class="fill"
	d="M73.24 328.70l47.70 -3.50v-3.20l-47.70 3.50"/>
<use x="56.04" y="316.00" xlink:href="#hd"/>
<path d="M52.54 316.00v18.20" class="stroke"/>
<use x="76.74" y="289.00" xlink:href="#hd"/>
<path d="M73.24 289.00v43.70" class="stroke"/>
<use x="91.54" y="295.00" xlink:href="#hd"/>
<path d="M88.04 295.00v36.60" class="stroke"/>
<use x="109.54" y="298.00" xlink:href="#hd"/>
<use x="100.54" y="298.00" xlink:href="#sh0"/>
<path d="M106.04 298.00v32.30" class="stroke"/>
<use x="124.34" y="301.00" xlink:href="#hd"/>
<path d="M120.84 301.00v28.20" class="stroke"/>
<use x="163.34" y="304.00" xlink:href="#hd"/>
<path d="M166.84 304.00v-21.00" class="stroke"/>
<use x="213.74" y="307.00" xlink:href="#hd"/>
<path d="M217.24 307.00v-21.00" class="stroke"/>
<path class="fill"
	d="M217.24 286.00c0.6 5.6 9.6 9 5.6 18.4
	1.6 -6 -1.3 -11.6 -5.6 -12.8
"/>
<use x="253.54" y="310.00" xlink:href="#hd"/>
<path d="M257.04 310.00v-25.00" class="stroke"/>
<use x="253.54" y="304.00" xlink:href="#hd"/>
<use x="312.84" y="310.00" xlink:href="#hd"/>
<path d="M316.34 310.00v-25.00" class="stroke"/>
<path class="fill"
	d="M316.34 285.00c0.6 5.6 9.6 9 5.6 18.4
	1.6 -6 -1.3 -11.6 -5.6 -12.8
"/>
<use x="312.84" y="304.00" xlink:href="#hd"/>
<use x="352.74" y="295.00" xlink:href="#hd"/>
<path d="M349.24 295.00v31.00" class="stroke"/>
<use x="352.74" y="307.00" xlink:href="#hd"/>
<use x="394.04" y="301.00" xlink:href="#hd"/>
<path d="M390.54 301.00v25.00" class="stroke"/>
<path class="fill"
	d="M390.54 326.00c0.6 -5.6 9.6 -9 5.6 -18.4
	1.6 6 -1.3 11.6 -5.6 12.8
"/>
<use x="394.04" y="307.00" xlink:href="#hd"/>
<use x="423.14" y="289.00" xlink:href="#hd"/>
<path d="M419.64 289.00v25.00" class="stroke"/>
<use x="423.14" y="295.00" xlink:href="#hd"/>
<use x="482.44" y="304.00" xlink:href="#r8"/>
<path class="fill"
	d="M507.64 323.90l74.80 0.00v-3.20l-74.80 -0.00"/>
<path class="fill"
	d="M507.94 318.90l74.10 0.00v-3.20l-74.10 -0.00"/>
<use x="511.44" y="301.00" xlink:href="#hd"/>
<path d="M507.94 301.00v21.90" class="stroke"/>
<use x="511.44" y="307.00" xlink:href="#hd"/>
<use x="526.24" y="295.00" xlink:href="#hd"/>
<path d="M522.74 295.00v27.90" class="stroke"/>
<use x="541.14" y="301.00" xlink:href="#hd"/>
<path d="M537.64 301.00v21.90" class="stroke"/>
<use x="541.14" y="307.00" xlink:href="#hd"/>
<use x="555.94" y="295.00" xlink:href="#hd"/>
<path d="M552.44 295.00v27.90" class="stroke"/>
<use x="570.74" y="301.00" xlink:href="#hd"/>
<path d="M567.24 301.00v21.90" class="stroke"/>
<use x="570.74" y="307.00" xlink:href="#hd"/>
<use x="585.64" y="295.00" xlink:href="#hd"/>
<path d="M582.14 295.00v27.90" class="stroke"/>
<use x="610.64" y="301.00" xlink:href="#hd"/>
<path d="M607.14 301.00v25.00" class="stroke"/>
<use x="610.64" y="307.00" xlink:href="#hd"/>
<use x="670.14" y="304.00" xlink:href="#r8"/>
<use x="709.94" y="298.00" xlink:href="#hd"/>
<path d="M706.44 298.00v21.00" class="stroke"/>
<use x="760.34" y="295.00" xlink:href="#hd"/>
<path d="M756.84 295.00v21.00" class="stroke"/>
<path class="fill"
	d="M756.84 316.00c0.6 -5.6 9.6 -9 5.6 -18.4
	1.6 6 -1.3 11.6 -5.6 12.8
"/>
<path class="fill"
	d="M803.34 287.70l42.10 9.80v3.20l-42.10 -9.80"/>
<use x="800.14" y="307.00" xlink:href="#hd"/>
<path d="M803.64 307.00v-18.20" class="stroke"/>
<use x="820.84" y="316.00" xlink:href="#hd"/>
<path d="M824.34 316.00v-22.40" class="stroke"/>
<use x="841.54" y="322.00" xlink:href="#hl"/>
<use x="841.54" y="328.00" xlink:href="#hl"/>
<use x="841.54" y="328.00" xlink:href="#hd"/>
<path d="M845.04 328.00v-29.60" class="stroke"/>
</g>
</svg>
