<?xml version="1.0" standalone="no"?>
<!DOCTYPE svg PUBLIC "-//W3C//DTD SVG 1.1//EN"
	"http://www.w3.org/Graphics/SVG/1.1/DTD/svg11.dtd">
<svg xmlns="http://www.w3.org/2000/svg" version="1.1"
	xmlns:xlink="http://www.w3.org/1999/xlink"
	color="black"
	width="757.10px" height="293.80px">
<style type="text/css">
.fill {fill: currentColor}
.stroke {stroke: currentColor; fill: none}
text{white-space: pre}
</style>
<title>./K516f-7-11-11-9-5-5-12-2-12-7-11-8-5-7-2-2.abc (1672) tune 1</title>
<!-- Creator: abcm2ps-8.13.8 -->
<!-- CreationDate: Sep  7, 2017 11:18 -->
<!-- CommandLine: ./K516f-7-11-11-9-5-5-12-2-12-7-11-8-5-7-2-2.abc -O ./K516f-7-11-11-9-5-5-12-2-12-7-11-8-5-7-2-2.svg -g -->
<rect width="100%" height="100%" fill="white"/>
<g stroke-width="0.70" transform="scale(0.867)">
<!-- title: 7-11-11-9-5-5-12-2-12-7-11-8-5-7-2-2 -->
</g>
<g stroke-width="0.70" transform="scale(0.867)" font-family="Times" font-size="20.00">
<text x="436.84" y="22.00" text-anchor="middle">7-11-11-9-5-5-12-2-12-7-11-8-5-7-2-2</text>
</g>
<g stroke-width="0.70" transform="scale(0.867)" font-family="Times" font-size="20.00">
<!-- subtitle: $1K.516f::104:87:165:50:161:2:106:30:35:71:31:175:67:162:109:14::$0 -->
</g>
<g stroke-width="0.70" transform="scale(0.867)" font-family="Courier" font-size="8.00" font-weight="bold">
<text x="436.84" y="41.80" text-anchor="middle">K.516f::104:87:165:50:161:2:106:30:35:71:31:175:67:162:109:14::</text>
</g>
<g stroke-width="0.70" transform="scale(0.867)" font-family="Courier" font-size="8.00" font-weight="bold">
<!-- subtitle: $1Perm. No.: 16726207891575$0 -->
<text x="436.84" y="60.80" text-anchor="middle">Perm. No.: 16726207891575</text>
</g>
<g stroke-width="0.70" transform="scale(0.607)" font-family="Courier" font-size="8.00" font-weight="bold">
<defs>
<ellipse id="hd" rx="4.1" ry="2.9"
	transform="rotate(-20)" class="fill"/>
</defs>
<use x="103.06" y="121.29" xlink:href="#hd"/>
<path d="M106.56 121.29v-21.00" class="stroke"/>
<path class="fill"
	d="M106.56 100.29c0.6 5.6 9.6 9 5.6 18.4
	1.6 -6 -1.3 -11.6 -5.6 -12.8
"/>
</g>
<g stroke-width="0.70" transform="scale(0.867)" font-family="Times" font-size="15.00" font-weight="bold">
<text x="81.24" y="87.00">= 111</text>
<path class="stroke" stroke-width="1"
	d="M11.54 183.00v-82.00"/>
<path class="fill"
	d="M6.54 98.00
	c10.5 1 12 -4.5 12 -3.5c0 1 -3.5 5.5 -8.5 5.5
	v84.00
	c5 0 8.5 4.5 8.5 5.5c0 1 -1.5 -4.5 -12 -3.5"/>
<defs>
<g id="rdots" class="fill">
	<circle cx="0" cy="-9" r="1.2"/>
	<circle cx="0" cy="-15" r="1.2"/>
</g>
</defs>
<use x="70.54" y="125.00" xlink:href="#rdots"/>
<path class="stroke" stroke-width="1"
	d="M66.54 125.00v-24.00"/>
<path class="stroke" stroke-width="3"
	d="M62.04 125.00v-24.00"/>
<use x="70.54" y="183.00" xlink:href="#rdots"/>
<path class="stroke" stroke-width="1"
	d="M66.54 183.00v-58.00"/>
<path class="stroke" stroke-width="3"
	d="M62.04 183.00v-58.00"/>
<path class="stroke" stroke-width="1"
	d="M188.64 125.00v-24.00"/>
<path class="stroke" stroke-width="1"
	d="M188.64 183.00v-58.00"/>
<path class="stroke" stroke-width="1"
	d="M272.74 125.00v-24.00"/>
<path class="stroke" stroke-width="1"
	d="M272.74 183.00v-58.00"/>
<path class="stroke" stroke-width="1"
	d="M356.84 125.00v-24.00"/>
<path class="stroke" stroke-width="1"
	d="M356.84 183.00v-58.00"/>
<path class="stroke" stroke-width="1"
	d="M451.34 125.00v-24.00"/>
<path class="stroke" stroke-width="1"
	d="M451.34 183.00v-58.00"/>
<path class="stroke" stroke-width="1"
	d="M539.94 125.00v-24.00"/>
<path class="stroke" stroke-width="1"
	d="M539.94 183.00v-58.00"/>
<path class="stroke" stroke-width="1"
	d="M646.64 125.00v-24.00"/>
<path class="stroke" stroke-width="1"
	d="M646.64 183.00v-58.00"/>
<path class="stroke" stroke-width="1"
	d="M753.24 125.00v-24.00"/>
<path class="stroke" stroke-width="1"
	d="M753.24 183.00v-58.00"/>
<path class="stroke" stroke-width="3"
	d="M860.54 125.00v-24.00"/>
<path class="stroke" stroke-width="1"
	d="M856.04 125.00v-24.00"/>
<use x="852.04" y="125.00" xlink:href="#rdots"/>
<path class="stroke" stroke-width="3"
	d="M860.54 183.00v-58.00"/>
<path class="stroke" stroke-width="1"
	d="M856.04 183.00v-58.00"/>
<use x="852.04" y="183.00" xlink:href="#rdots"/>
<path d="m11.54 125.00
	h850.50
	M11.54 119.00
	h850.50
	M11.54 113.00
	h850.50
	M11.54 107.00
	h850.50
	M11.54 101.00
	h850.50
	" class="stroke"/>
<path d="m11.54 183.00
	h850.50
	M11.54 177.00
	h850.50
	M11.54 171.00
	h850.50
	M11.54 165.00
	h850.50
	M11.54 159.00
	h850.50
	" class="stroke"/>
<path class="fill"
	d="M290.74 103.40c7.18 -3.05 39.26 2.20 46.44 7.60
	v-0.25c-8.57 -7.16 -37.87 -12.41 -46.44 -7.35"/>
</g>
<g stroke-width="0.70" transform="scale(0.867)" font-family="Times" font-size="13.00">
<text x="757.24" y="86.40">1</text>
<path class="stroke"
	d="M753.24 75.00m0 20v-20h100.80v20"/>
<defs>
<path id="utclef" class="fill" d="m-50 -90
	c-72 -41 -72 -158 52 -188
	150 -10 220 188 90 256
	-114 52 -275 0 -293 -136
	-15 -181 93 -229 220 -334
	88 -87 79 -133 62 -210
	-51 33 -94 105 -89 186
	17 267 36 374 49 574
	6 96 -19 134 -77 135
	-80 1 -126 -93 -61 -133
	85 -41 133 101 31 105
	23 17 92 37 90 -92
	-10 -223 -39 -342 -50 -617
	0 -90 0 -162 96 -232
	56 72 63 230 22 289
	-74 106 -257 168 -255 316
	9 153 148 185 252 133
	86 -65 29 -192 -80 -176
	-71 12 -105 67 -59 124"/>
<use id="tclef" transform="translate(0,6) scale(0.045)"
	xlink:href="#utclef"/>
</defs>
<use x="23.54" y="119.00" xlink:href="#tclef"/>
<g font-family="serif" font-size="16" font-weight="bold" font-style="normal"
	transform="translate(42.04,124.50) scale(1.2,1)">
	<text text-anchor="middle">8</text>
	<text y="-12" text-anchor="middle">3</text>
</g>
<path class="fill"
	d="M81.74 130.50l89.80 -6.40v-3.20l-89.80 6.40"/>
<path class="fill"
	d="M82.04 125.50l89.20 -6.40v-3.20l-89.20 6.40"/>
<use x="85.54" y="104.00" xlink:href="#hd"/>
<path d="M82.04 104.00v25.50" class="stroke"/>
<use x="103.44" y="107.00" xlink:href="#hd"/>
<path d="M99.94 107.00v21.20" class="stroke"/>
<use x="121.24" y="104.00" xlink:href="#hd"/>
<path d="M117.74 104.00v22.90" class="stroke"/>
<use x="139.04" y="98.00" xlink:href="#hd"/>
<path d="M135.54 98.00v27.60" class="stroke"/>
<defs>
<path id="hl" class="stroke" d="m-6 0h12"/>
</defs>
<use x="156.94" y="95.00" xlink:href="#hl"/>
<use x="156.94" y="89.00" xlink:href="#hl"/>
<use x="156.94" y="89.00" xlink:href="#hd"/>
<path d="M153.44 89.00v35.40" class="stroke"/>
<use x="174.74" y="98.00" xlink:href="#hd"/>
<path d="M171.24 98.00v25.10" class="stroke"/>
<path class="fill"
	d="M198.84 127.60l51.10 3.20v-3.20l-51.10 -3.20"/>
<use x="202.64" y="98.00" xlink:href="#hd"/>
<path d="M199.14 98.00v28.60" class="stroke"/>
<use x="227.84" y="110.00" xlink:href="#hd"/>
<path d="M224.34 110.00v18.20" class="stroke"/>
<use x="253.04" y="104.00" xlink:href="#hd"/>
<path d="M249.54 104.00v25.80" class="stroke"/>
<path class="fill"
	d="M282.94 130.00l51.10 8.20v-3.20l-51.10 -8.20"/>
<use x="286.74" y="107.00" xlink:href="#hd"/>
<path d="M283.24 107.00v22.10" class="stroke"/>
<use x="311.94" y="113.00" xlink:href="#hd"/>
<path d="M308.44 113.00v20.10" class="stroke"/>
<use x="337.14" y="119.00" xlink:href="#hd"/>
<path d="M333.64 119.00v18.20" class="stroke"/>
<path class="fill"
	d="M367.04 133.50l61.60 4.70v-3.20l-61.60 -4.70"/>
<path class="fill"
	d="M392.54 130.50l17.80 1.40v-3.20l-17.80 -1.40"/>
<use x="370.84" y="110.00" xlink:href="#hd"/>
<path d="M367.34 110.00v22.50" class="stroke"/>
<use x="396.04" y="104.00" xlink:href="#hd"/>
<path d="M392.54 104.00v30.50" class="stroke"/>
<use x="413.94" y="110.00" xlink:href="#hd"/>
<path d="M410.44 110.00v25.80" class="stroke"/>
<use x="431.74" y="119.00" xlink:href="#hd"/>
<path d="M428.24 119.00v18.20" class="stroke"/>
<path class="fill"
	d="M473.04 88.00l51.20 0.00v3.20l-51.20 -0.00"/>
<use x="469.84" y="122.00" xlink:href="#hd"/>
<defs>
<path id="usharp" class="fill" d="
	m136 -702
	v890
	h32
	v-890
	m128 840
	h32
	v-888
	h-32
	m-232 286
	v116
	l338 -96
	v-116
	m-338 442
	v116
	l338 -98
	v-114"/>
<use id="sh0" transform="translate(-4,5) scale(0.018)"
	xlink:href="#usharp"/>
</defs>
<use x="460.84" y="122.00" xlink:href="#sh0"/>
<path d="M473.34 122.00v-33.00" class="stroke"/>
<use x="469.84" y="107.00" xlink:href="#hd"/>
<use x="495.14" y="122.00" xlink:href="#hd"/>
<use x="486.14" y="122.00" xlink:href="#sh0"/>
<path d="M498.64 122.00v-33.00" class="stroke"/>
<use x="495.14" y="107.00" xlink:href="#hd"/>
<use x="520.34" y="122.00" xlink:href="#hd"/>
<use x="511.34" y="122.00" xlink:href="#sh0"/>
<path d="M523.84 122.00v-33.00" class="stroke"/>
<use x="520.34" y="107.00" xlink:href="#hd"/>
<path class="fill"
	d="M557.14 85.40l79.40 -7.60v3.20l-79.40 7.60"/>
<path class="fill"
	d="M582.74 88.00l53.50 -5.20v3.20l-53.50 5.20"/>
<use x="554.04" y="116.00" xlink:href="#hd"/>
<path d="M557.54 116.00v-29.60" class="stroke"/>
<use x="579.24" y="122.00" xlink:href="#hd"/>
<use x="570.24" y="122.00" xlink:href="#sh0"/>
<path d="M582.74 122.00v-38.00" class="stroke"/>
<use x="597.14" y="119.00" xlink:href="#hd"/>
<path d="M600.64 119.00v-36.80" class="stroke"/>
<use x="614.94" y="113.00" xlink:href="#hd"/>
<path d="M618.44 113.00v-32.50" class="stroke"/>
<use x="632.74" y="98.00" xlink:href="#hd"/>
<path d="M636.24 98.00v-19.20" class="stroke"/>
<path class="fill"
	d="M656.84 138.20l79.40 0.00v-3.20l-79.40 -0.00"/>
<path class="fill"
	d="M682.34 133.20l53.50 0.00v-3.20l-53.50 -0.00"/>
<use x="660.64" y="116.00" xlink:href="#hd"/>
<path d="M657.14 116.00v21.20" class="stroke"/>
<use x="685.84" y="107.00" xlink:href="#hd"/>
<path d="M682.34 107.00v30.20" class="stroke"/>
<use x="703.74" y="110.00" xlink:href="#hd"/>
<path d="M700.24 110.00v27.20" class="stroke"/>
<use x="721.54" y="113.00" xlink:href="#hd"/>
<path d="M718.04 113.00v24.20" class="stroke"/>
<use x="739.34" y="116.00" xlink:href="#hd"/>
<path d="M735.84 116.00v21.20" class="stroke"/>
<use x="767.34" y="98.00" xlink:href="#hd"/>
<path d="M763.84 98.00v40.00" class="stroke"/>
<use x="767.34" y="119.00" xlink:href="#hd"/>
<use x="767.34" y="113.00" xlink:href="#hd"/>
<use x="767.34" y="107.00" xlink:href="#hd"/>
<defs>
<path id="r8e" class="fill" d="m 0 0
	c-1.5 1.5 -2.4 2 -3.6 2
	2.4 -2.8 -2.8 -4 -2.8 -1.2
	c0 2.7 4.3 2.4 5.9 0.6"/>
<g id="r8">
	<path d="m3.3 -4l-3.4 9.6" class="stroke"/>
	<use x="3.4" y="-4" xlink:href="#r8e"/>
</g>
</defs>
<use x="828.34" y="113.00" xlink:href="#r8"/>
<defs>
<path id="ubclef" class="fill" d="m-200 -87
	c124 -35 222 -78 254 -236
	43 -228 -167 -246 -192 -103
	59 -80 157 22 92 78
	-62 47 -115 -22 -106 -88
	21 -141 270 -136 274 52
	-1 175 -106 264 -322 297
	m357 -250
	c0 -36 51 -34 51 0
	0 37 -51 36 -51 0
	m-2 -129
	c0 -36 51 -34 51 0
	0 38 -51 37 -51 0"/>
<use id="bclef" transform="translate(0,18) scale(0.045)"
	xlink:href="#ubclef"/>
</defs>
<use x="23.54" y="165.00" xlink:href="#bclef"/>
<g font-family="serif" font-size="16" font-weight="bold" font-style="normal"
	transform="translate(42.04,182.50) scale(1.2,1)">
	<text text-anchor="middle">8</text>
	<text y="-12" text-anchor="middle">3</text>
</g>
<use x="85.54" y="174.00" xlink:href="#hd"/>
<path d="M89.04 174.00v-21.00" class="stroke"/>
<use x="156.94" y="171.00" xlink:href="#r8"/>
<use x="202.64" y="168.00" xlink:href="#hd"/>
<path d="M199.14 168.00v25.00" class="stroke"/>
<use x="202.64" y="174.00" xlink:href="#hd"/>
<use x="253.04" y="162.00" xlink:href="#hd"/>
<path d="M249.54 162.00v31.00" class="stroke"/>
<path class="fill"
	d="M249.54 193.00c0.6 -5.6 9.6 -9 5.6 -18.4
	1.6 6 -1.3 11.6 -5.6 12.8
"/>
<use x="253.04" y="174.00" xlink:href="#hd"/>
<use x="286.74" y="177.00" xlink:href="#hd"/>
<path d="M290.24 177.00v-21.00" class="stroke"/>
<use x="337.14" y="171.00" xlink:href="#r8"/>
<use x="370.84" y="162.00" xlink:href="#hd"/>
<path d="M367.34 162.00v25.00" class="stroke"/>
<use x="370.84" y="168.00" xlink:href="#hd"/>
<use x="431.74" y="171.00" xlink:href="#r8"/>
<path class="fill"
	d="M473.04 153.00l51.20 0.00v3.20l-51.20 -0.00"/>
<use x="469.84" y="174.00" xlink:href="#hd"/>
<path d="M473.34 174.00v-20.00" class="stroke"/>
<use x="495.14" y="174.00" xlink:href="#hd"/>
<path d="M498.64 174.00v-20.00" class="stroke"/>
<use x="520.34" y="174.00" xlink:href="#hd"/>
<path d="M523.84 174.00v-20.00" class="stroke"/>
<use x="554.04" y="162.00" xlink:href="#hd"/>
<path d="M550.54 162.00v34.00" class="stroke"/>
<use x="554.04" y="177.00" xlink:href="#hd"/>
<use x="614.94" y="171.00" xlink:href="#r8"/>
<path class="fill"
	d="M663.84 148.30l61.60 8.40v3.20l-61.60 -8.40"/>
<use x="660.64" y="174.00" xlink:href="#hd"/>
<path d="M664.14 174.00v-24.70" class="stroke"/>
<use x="685.84" y="171.00" xlink:href="#hd"/>
<path d="M689.34 171.00v-18.20" class="stroke"/>
<use x="721.54" y="189.00" xlink:href="#hl"/>
<use x="721.54" y="192.00" xlink:href="#hd"/>
<path d="M725.04 192.00v-34.30" class="stroke"/>
<path class="fill"
	d="M763.44 202.20l79.60 0.00v-3.20l-79.60 -0.00"/>
<path class="fill"
	d="M789.04 197.20l53.70 0.00v-3.20l-53.70 -0.00"/>
<use x="767.34" y="183.00" xlink:href="#hd"/>
<path d="M763.84 183.00v18.20" class="stroke"/>
<use x="792.54" y="162.00" xlink:href="#hd"/>
<path d="M789.04 162.00v39.20" class="stroke"/>
<use x="810.54" y="165.00" xlink:href="#hd"/>
<defs>
<path id="unat" class="fill" d="
	m96 -750
	h-32
	v716
	l32 -8
	182 -54
	v282
	h32
	v-706
	l-34 10
	-180 50
	v-290
	m0 592
	v-190
	l182 -52
	v188"/>
<use id="nt0" transform="translate(-3,5) scale(0.018)"
	xlink:href="#unat"/>
</defs>
<use x="801.54" y="165.00" xlink:href="#nt0"/>
<path d="M807.04 165.00v36.20" class="stroke"/>
<use x="828.34" y="168.00" xlink:href="#hd"/>
<path d="M824.84 168.00v33.20" class="stroke"/>
<use x="846.14" y="171.00" xlink:href="#hd"/>
<path d="M842.64 171.00v30.20" class="stroke"/>
</g>
<g stroke-width="0.70" transform="scale(0.867)" font-family="Times" font-size="13.00">
<path class="stroke" stroke-width="1"
	d="M11.54 316.00v-82.00"/>
<path class="fill"
	d="M6.54 231.00
	c10.5 1 12 -4.5 12 -3.5c0 1 -3.5 5.5 -8.5 5.5
	v84.00
	c5 0 8.5 4.5 8.5 5.5c0 1 -1.5 -4.5 -12 -3.5"/>
<use x="144.74" y="258.00" xlink:href="#rdots"/>
<path class="stroke" stroke-width="1"
	d="M140.74 258.00v-24.00"/>
<path class="stroke" stroke-width="3"
	d="M136.24 258.00v-24.00"/>
<use x="144.74" y="316.00" xlink:href="#rdots"/>
<path class="stroke" stroke-width="1"
	d="M140.74 316.00v-58.00"/>
<path class="stroke" stroke-width="3"
	d="M136.24 316.00v-58.00"/>
<path class="stroke" stroke-width="1"
	d="M223.74 258.00v-24.00"/>
<path class="stroke" stroke-width="1"
	d="M223.74 316.00v-58.00"/>
<path class="stroke" stroke-width="1"
	d="M313.74 258.00v-24.00"/>
<path class="stroke" stroke-width="1"
	d="M313.74 316.00v-58.00"/>
<path class="stroke" stroke-width="1"
	d="M396.44 258.00v-24.00"/>
<path class="stroke" stroke-width="1"
	d="M396.44 316.00v-58.00"/>
<path class="stroke" stroke-width="1"
	d="M485.94 258.00v-24.00"/>
<path class="stroke" stroke-width="1"
	d="M485.94 316.00v-58.00"/>
<path class="stroke" stroke-width="1"
	d="M586.24 258.00v-24.00"/>
<path class="stroke" stroke-width="1"
	d="M586.24 316.00v-58.00"/>
<path class="stroke" stroke-width="1"
	d="M686.64 258.00v-24.00"/>
<path class="stroke" stroke-width="1"
	d="M686.64 316.00v-58.00"/>
<path class="stroke" stroke-width="1"
	d="M786.94 258.00v-24.00"/>
<path class="stroke" stroke-width="1"
	d="M786.94 316.00v-58.00"/>
<path class="stroke" stroke-width="3"
	d="M860.54 258.00v-24.00"/>
<path class="stroke" stroke-width="1"
	d="M856.04 258.00v-24.00"/>
<use x="852.04" y="258.00" xlink:href="#rdots"/>
<path class="stroke" stroke-width="3"
	d="M860.54 316.00v-58.00"/>
<path class="stroke" stroke-width="1"
	d="M856.04 316.00v-58.00"/>
<use x="852.04" y="316.00" xlink:href="#rdots"/>
<path d="m11.54 258.00
	h850.50
	M11.54 252.00
	h850.50
	M11.54 246.00
	h850.50
	M11.54 240.00
	h850.50
	M11.54 234.00
	h850.50
	" class="stroke"/>
<path d="m11.54 316.00
	h850.50
	M11.54 310.00
	h850.50
	M11.54 304.00
	h850.50
	M11.54 298.00
	h850.50
	M11.54 292.00
	h850.50
	" class="stroke"/>
<text x="47.54" y="219.40">2</text>
<path class="stroke"
	d="M43.54 208.00m0 20v-20h90.20v20"/>
<use x="23.54" y="252.00" xlink:href="#tclef"/>
<use x="56.04" y="231.00" xlink:href="#hd"/>
<path d="M52.54 231.00v40.00" class="stroke"/>
<use x="56.04" y="252.00" xlink:href="#hd"/>
<use x="56.04" y="246.00" xlink:href="#hd"/>
<use x="56.04" y="240.00" xlink:href="#hd"/>
<use x="110.14" y="246.00" xlink:href="#r8"/>
<path class="fill"
	d="M160.44 268.30l43.40 -6.40v-3.20l-43.40 6.40"/>
<use x="164.24" y="249.00" xlink:href="#hd"/>
<path d="M160.74 249.00v18.20" class="stroke"/>
<use x="185.34" y="240.00" xlink:href="#hd"/>
<path d="M181.84 240.00v24.10" class="stroke"/>
<use x="206.94" y="234.00" xlink:href="#hd"/>
<use x="197.94" y="234.00" xlink:href="#sh0"/>
<path d="M203.44 234.00v26.90" class="stroke"/>
<path class="fill"
	d="M232.34 254.00l61.10 0.00v-3.20l-61.10 -0.00"/>
<path class="fill"
	d="M232.74 249.00l45.40 0.00v-3.20l-45.40 -0.00"/>
<use x="236.24" y="231.00" xlink:href="#hd"/>
<path d="M232.74 231.00v21.90" class="stroke"/>
<use x="251.24" y="228.00" xlink:href="#hl"/>
<use x="251.24" y="225.00" xlink:href="#hd"/>
<path d="M247.74 225.00v27.90" class="stroke"/>
<use x="266.44" y="228.00" xlink:href="#hl"/>
<use x="266.44" y="222.00" xlink:href="#hl"/>
<use x="266.44" y="219.00" xlink:href="#hd"/>
<path d="M262.94 219.00v33.90" class="stroke"/>
<use x="281.64" y="228.00" xlink:href="#hl"/>
<use x="281.64" y="225.00" xlink:href="#hd"/>
<path d="M278.14 225.00v27.90" class="stroke"/>
<use x="296.64" y="231.00" xlink:href="#hd"/>
<path d="M293.14 231.00v21.90" class="stroke"/>
<path class="fill"
	d="M322.34 265.50l30.80 5.80v-3.20l-30.80 -5.80"/>
<path class="fill"
	d="M322.74 260.60l15.10 2.80v-3.20l-15.10 -2.80"/>
<use x="326.24" y="237.00" xlink:href="#hd"/>
<path d="M322.74 237.00v27.60" class="stroke"/>
<use x="341.34" y="243.00" xlink:href="#hd"/>
<path d="M337.84 243.00v24.40" class="stroke"/>
<use x="356.34" y="252.00" xlink:href="#hd"/>
<path d="M352.84 252.00v18.20" class="stroke"/>
<use x="379.74" y="237.00" xlink:href="#hd"/>
<path d="M376.24 237.00v21.00" class="stroke"/>
<path class="fill"
	d="M376.24 258.00c0.6 -5.6 9.6 -9 5.6 -18.4
	1.6 6 -1.3 11.6 -5.6 12.8
"/>
<path class="fill"
	d="M405.14 268.20l60.90 0.00v-3.20l-60.90 -0.00"/>
<path class="fill"
	d="M405.44 263.20l45.20 0.00v-3.20l-45.20 -0.00"/>
<use x="408.94" y="237.00" xlink:href="#hd"/>
<path d="M405.44 237.00v30.20" class="stroke"/>
<use x="424.04" y="243.00" xlink:href="#hd"/>
<path d="M420.54 243.00v24.20" class="stroke"/>
<use x="439.04" y="246.00" xlink:href="#hd"/>
<path d="M435.54 246.00v21.20" class="stroke"/>
<use x="454.14" y="240.00" xlink:href="#hd"/>
<path d="M450.64 240.00v27.20" class="stroke"/>
<use x="469.24" y="231.00" xlink:href="#hd"/>
<path d="M465.74 231.00v36.20" class="stroke"/>
<path class="fill"
	d="M494.64 274.20l76.00 0.00v-3.20l-76.00 -0.00"/>
<path class="fill"
	d="M494.94 269.20l75.30 0.00v-3.20l-75.30 -0.00"/>
<use x="498.44" y="243.00" xlink:href="#hd"/>
<path d="M494.94 243.00v30.20" class="stroke"/>
<use x="513.54" y="246.00" xlink:href="#hd"/>
<path d="M510.04 246.00v27.20" class="stroke"/>
<use x="528.54" y="243.00" xlink:href="#hd"/>
<path d="M525.04 243.00v30.20" class="stroke"/>
<use x="543.64" y="237.00" xlink:href="#hd"/>
<path d="M540.14 237.00v36.20" class="stroke"/>
<use x="558.74" y="252.00" xlink:href="#hd"/>
<path d="M555.24 252.00v21.20" class="stroke"/>
<use x="573.74" y="243.00" xlink:href="#hd"/>
<path d="M570.24 243.00v30.20" class="stroke"/>
<path class="fill"
	d="M594.94 263.50l76.00 -6.30v-3.20l-76.00 6.30"/>
<path class="fill"
	d="M595.24 258.40l75.30 -6.20v-3.20l-75.30 6.20"/>
<use x="598.74" y="237.00" xlink:href="#hd"/>
<path d="M595.24 237.00v25.40" class="stroke"/>
<use x="613.84" y="240.00" xlink:href="#hd"/>
<path d="M610.34 240.00v21.20" class="stroke"/>
<use x="628.94" y="237.00" xlink:href="#hd"/>
<path d="M625.44 237.00v23.00" class="stroke"/>
<use x="643.94" y="231.00" xlink:href="#hd"/>
<path d="M640.44 231.00v27.70" class="stroke"/>
<use x="659.04" y="228.00" xlink:href="#hl"/>
<use x="659.04" y="222.00" xlink:href="#hl"/>
<use x="659.04" y="222.00" xlink:href="#hd"/>
<path d="M655.54 222.00v35.50" class="stroke"/>
<use x="674.14" y="231.00" xlink:href="#hd"/>
<path d="M670.64 231.00v25.20" class="stroke"/>
<path class="fill"
	d="M695.24 266.00l76.00 0.00v-3.20l-76.00 -0.00"/>
<path class="fill"
	d="M695.64 261.00l75.30 0.00v-3.20l-75.30 -0.00"/>
<use x="699.14" y="240.00" xlink:href="#hd"/>
<path d="M695.64 240.00v24.90" class="stroke"/>
<use x="714.14" y="234.00" xlink:href="#hd"/>
<path d="M710.64 234.00v30.90" class="stroke"/>
<use x="729.24" y="240.00" xlink:href="#hd"/>
<path d="M725.74 240.00v24.90" class="stroke"/>
<use x="744.24" y="234.00" xlink:href="#hd"/>
<path d="M740.74 234.00v30.90" class="stroke"/>
<use x="759.34" y="246.00" xlink:href="#hd"/>
<path d="M755.84 246.00v18.90" class="stroke"/>
<use x="774.44" y="240.00" xlink:href="#hd"/>
<path d="M770.94 240.00v24.90" class="stroke"/>
<use x="799.44" y="243.00" xlink:href="#hd"/>
<path d="M795.94 243.00v21.00" class="stroke"/>
<use x="841.54" y="246.00" xlink:href="#r8"/>
<use x="23.54" y="298.00" xlink:href="#bclef"/>
<path class="fill"
	d="M52.24 335.20l69.90 -5.10v-3.20l-69.90 5.10"/>
<path class="fill"
	d="M73.64 328.70l48.10 -3.50v-3.20l-48.10 3.50"/>
<use x="56.04" y="316.00" xlink:href="#hd"/>
<path d="M52.54 316.00v18.20" class="stroke"/>
<use x="77.14" y="289.00" xlink:href="#hd"/>
<path d="M73.64 289.00v43.70" class="stroke"/>
<use x="92.14" y="295.00" xlink:href="#hd"/>
<path d="M88.64 295.00v36.60" class="stroke"/>
<use x="110.14" y="298.00" xlink:href="#hd"/>
<use x="101.14" y="298.00" xlink:href="#sh0"/>
<path d="M106.64 298.00v32.30" class="stroke"/>
<use x="125.24" y="301.00" xlink:href="#hd"/>
<path d="M121.74 301.00v28.20" class="stroke"/>
<use x="164.24" y="298.00" xlink:href="#hd"/>
<use x="155.24" y="298.00" xlink:href="#sh0"/>
<path d="M160.74 298.00v25.00" class="stroke"/>
<use x="164.24" y="304.00" xlink:href="#hd"/>
<use x="206.94" y="292.00" xlink:href="#hd"/>
<path d="M203.44 292.00v34.00" class="stroke"/>
<path class="fill"
	d="M203.44 326.00c0.6 -5.6 9.6 -9 5.6 -18.4
	1.6 6 -1.3 11.6 -5.6 12.8
"/>
<use x="206.94" y="307.00" xlink:href="#hd"/>
<use x="236.24" y="310.00" xlink:href="#hd"/>
<path d="M239.74 310.00v-25.00" class="stroke"/>
<use x="236.24" y="304.00" xlink:href="#hd"/>
<use x="296.64" y="310.00" xlink:href="#hd"/>
<path d="M300.14 310.00v-25.00" class="stroke"/>
<path class="fill"
	d="M300.14 285.00c0.6 5.6 9.6 9 5.6 18.4
	1.6 -6 -1.3 -11.6 -5.6 -12.8
"/>
<use x="296.64" y="304.00" xlink:href="#hd"/>
<use x="326.24" y="295.00" xlink:href="#hd"/>
<path d="M322.74 295.00v31.00" class="stroke"/>
<use x="326.24" y="307.00" xlink:href="#hd"/>
<use x="379.74" y="295.00" xlink:href="#hd"/>
<path d="M376.24 295.00v31.00" class="stroke"/>
<path class="fill"
	d="M376.24 326.00c0.6 -5.6 9.6 -9 5.6 -18.4
	1.6 6 -1.3 11.6 -5.6 12.8
"/>
<use x="379.74" y="307.00" xlink:href="#hd"/>
<path class="fill"
	d="M412.14 275.70l30.80 9.00v3.20l-30.80 -9.00"/>
<use x="408.94" y="295.00" xlink:href="#hd"/>
<path d="M412.44 295.00v-18.20" class="stroke"/>
<use x="439.04" y="316.00" xlink:href="#hd"/>
<path d="M442.54 316.00v-30.40" class="stroke"/>
<use x="469.24" y="304.00" xlink:href="#r8"/>
<use x="498.44" y="301.00" xlink:href="#hd"/>
<path d="M494.94 301.00v25.00" class="stroke"/>
<use x="498.44" y="307.00" xlink:href="#hd"/>
<use x="558.74" y="295.00" xlink:href="#hd"/>
<path d="M555.24 295.00v25.00" class="stroke"/>
<path class="fill"
	d="M555.24 320.00c0.6 -5.6 9.6 -9 5.6 -18.4
	1.6 6 -1.3 11.6 -5.6 12.8
"/>
<use x="558.74" y="301.00" xlink:href="#hd"/>
<use x="598.74" y="295.00" xlink:href="#hd"/>
<path d="M595.24 295.00v31.00" class="stroke"/>
<use x="598.74" y="307.00" xlink:href="#hd"/>
<use x="659.04" y="301.00" xlink:href="#hd"/>
<path d="M655.54 301.00v25.00" class="stroke"/>
<path class="fill"
	d="M655.54 326.00c0.6 -5.6 9.6 -9 5.6 -18.4
	1.6 6 -1.3 11.6 -5.6 12.8
"/>
<use x="659.04" y="307.00" xlink:href="#hd"/>
<use x="699.14" y="292.00" xlink:href="#hd"/>
<path d="M695.64 292.00v25.00" class="stroke"/>
<use x="699.14" y="298.00" xlink:href="#hd"/>
<use x="759.34" y="286.00" xlink:href="#hl"/>
<use x="759.34" y="283.00" xlink:href="#hd"/>
<path d="M755.84 283.00v31.00" class="stroke"/>
<path class="fill"
	d="M755.84 314.00c0.6 -5.6 9.6 -9 5.6 -18.4
	1.6 6 -1.3 11.6 -5.6 12.8
"/>
<use x="759.34" y="295.00" xlink:href="#hd"/>
<path class="fill"
	d="M802.54 287.70l42.80 9.90v3.20l-42.80 -9.90"/>
<use x="799.44" y="307.00" xlink:href="#hd"/>
<path d="M802.94 307.00v-18.20" class="stroke"/>
<use x="820.44" y="316.00" xlink:href="#hd"/>
<path d="M823.94 316.00v-22.30" class="stroke"/>
<use x="841.54" y="322.00" xlink:href="#hl"/>
<use x="841.54" y="328.00" xlink:href="#hl"/>
<use x="841.54" y="328.00" xlink:href="#hd"/>
<path d="M845.04 328.00v-29.50" class="stroke"/>
</g>
</svg>
