<?xml version="1.0" standalone="no"?>
<!DOCTYPE svg PUBLIC "-//W3C//DTD SVG 1.1//EN"
	"http://www.w3.org/Graphics/SVG/1.1/DTD/svg11.dtd">
<svg xmlns="http://www.w3.org/2000/svg" version="1.1"
	xmlns:xlink="http://www.w3.org/1999/xlink"
	color="black"
	width="757.10px" height="296.40px">
<style type="text/css">
.fill {fill: currentColor}
.stroke {stroke: currentColor; fill: none}
text{white-space: pre}
</style>
<title>./K516f-3-7-5-9-4-9-11-10-4-12-7-9-2-2-8-6.abc (2073) tune 1</title>
<!-- Creator: abcm2ps-8.13.8 -->
<!-- CreationDate: Sep  7, 2017 11:18 -->
<!-- CommandLine: ./K516f-3-7-5-9-4-9-11-10-4-12-7-9-2-2-8-6.abc -O ./K516f-3-7-5-9-4-9-11-10-4-12-7-9-2-2-8-6.svg -g -->
<rect width="100%" height="100%" fill="white"/>
<g stroke-width="0.70" transform="scale(0.867)">
<!-- title: 3-7-5-9-4-9-11-10-4-12-7-9-2-2-8-6 -->
</g>
<g stroke-width="0.70" transform="scale(0.867)" font-family="Times" font-size="20.00">
<text x="436.84" y="22.00" text-anchor="middle">3-7-5-9-4-9-11-10-4-12-7-9-2-2-8-6</text>
</g>
<g stroke-width="0.70" transform="scale(0.867)" font-family="Times" font-size="20.00">
<!-- subtitle: $1K.516f::32:157:113:50:153:86:147:123:66:20:150:166:112:49:89:93::$0 -->
</g>
<g stroke-width="0.70" transform="scale(0.867)" font-family="Courier" font-size="8.00" font-weight="bold">
<text x="436.84" y="41.80" text-anchor="middle">K.516f::32:157:113:50:153:86:147:123:66:20:150:166:112:49:89:93::</text>
</g>
<g stroke-width="0.70" transform="scale(0.867)" font-family="Courier" font-size="8.00" font-weight="bold">
<!-- subtitle: $1Perm. No.: 207331824247825$0 -->
<text x="436.84" y="60.80" text-anchor="middle">Perm. No.: 207331824247825</text>
</g>
<g stroke-width="0.70" transform="scale(0.607)" font-family="Courier" font-size="8.00" font-weight="bold">
<defs>
<ellipse id="hd" rx="4.1" ry="2.9"
	transform="rotate(-20)" class="fill"/>
</defs>
<use x="103.06" y="121.29" xlink:href="#hd"/>
<path d="M106.56 121.29v-21.00" class="stroke"/>
<path class="fill"
	d="M106.56 100.29c0.6 5.6 9.6 9 5.6 18.4
	1.6 -6 -1.3 -11.6 -5.6 -12.8
"/>
</g>
<g stroke-width="0.70" transform="scale(0.867)" font-family="Times" font-size="15.00" font-weight="bold">
<text x="81.24" y="87.00">= 111</text>
<path class="stroke" stroke-width="1"
	d="M11.54 183.00v-82.00"/>
<path class="fill"
	d="M6.54 98.00
	c10.5 1 12 -4.5 12 -3.5c0 1 -3.5 5.5 -8.5 5.5
	v84.00
	c5 0 8.5 4.5 8.5 5.5c0 1 -1.5 -4.5 -12 -3.5"/>
<defs>
<g id="rdots" class="fill">
	<circle cx="0" cy="-9" r="1.2"/>
	<circle cx="0" cy="-15" r="1.2"/>
</g>
</defs>
<use x="70.54" y="125.00" xlink:href="#rdots"/>
<path class="stroke" stroke-width="1"
	d="M66.54 125.00v-24.00"/>
<path class="stroke" stroke-width="3"
	d="M62.04 125.00v-24.00"/>
<use x="70.54" y="183.00" xlink:href="#rdots"/>
<path class="stroke" stroke-width="1"
	d="M66.54 183.00v-58.00"/>
<path class="stroke" stroke-width="3"
	d="M62.04 183.00v-58.00"/>
<path class="stroke" stroke-width="1"
	d="M152.64 125.00v-24.00"/>
<path class="stroke" stroke-width="1"
	d="M152.64 183.00v-58.00"/>
<path class="stroke" stroke-width="1"
	d="M265.54 125.00v-24.00"/>
<path class="stroke" stroke-width="1"
	d="M265.54 183.00v-58.00"/>
<path class="stroke" stroke-width="1"
	d="M346.64 125.00v-24.00"/>
<path class="stroke" stroke-width="1"
	d="M346.64 183.00v-58.00"/>
<path class="stroke" stroke-width="1"
	d="M437.74 125.00v-24.00"/>
<path class="stroke" stroke-width="1"
	d="M437.74 183.00v-58.00"/>
<path class="stroke" stroke-width="1"
	d="M551.54 125.00v-24.00"/>
<path class="stroke" stroke-width="1"
	d="M551.54 183.00v-58.00"/>
<path class="stroke" stroke-width="1"
	d="M642.74 125.00v-24.00"/>
<path class="stroke" stroke-width="1"
	d="M642.74 183.00v-58.00"/>
<path class="stroke" stroke-width="1"
	d="M756.54 125.00v-24.00"/>
<path class="stroke" stroke-width="1"
	d="M756.54 183.00v-58.00"/>
<path class="stroke" stroke-width="3"
	d="M860.54 125.00v-24.00"/>
<path class="stroke" stroke-width="1"
	d="M856.04 125.00v-24.00"/>
<use x="852.04" y="125.00" xlink:href="#rdots"/>
<path class="stroke" stroke-width="3"
	d="M860.54 183.00v-58.00"/>
<path class="stroke" stroke-width="1"
	d="M856.04 183.00v-58.00"/>
<use x="852.04" y="183.00" xlink:href="#rdots"/>
<path d="m11.54 125.00
	h850.50
	M11.54 119.00
	h850.50
	M11.54 113.00
	h850.50
	M11.54 107.00
	h850.50
	M11.54 101.00
	h850.50
	" class="stroke"/>
<path d="m11.54 183.00
	h850.50
	M11.54 177.00
	h850.50
	M11.54 171.00
	h850.50
	M11.54 165.00
	h850.50
	M11.54 159.00
	h850.50
	" class="stroke"/>
</g>
<g stroke-width="0.70" transform="scale(0.867)" font-family="Times" font-size="13.00">
<text x="760.54" y="86.40">1</text>
<path class="stroke"
	d="M756.54 75.00m0 20v-20h97.50v20"/>
<defs>
<path id="utclef" class="fill" d="m-50 -90
	c-72 -41 -72 -158 52 -188
	150 -10 220 188 90 256
	-114 52 -275 0 -293 -136
	-15 -181 93 -229 220 -334
	88 -87 79 -133 62 -210
	-51 33 -94 105 -89 186
	17 267 36 374 49 574
	6 96 -19 134 -77 135
	-80 1 -126 -93 -61 -133
	85 -41 133 101 31 105
	23 17 92 37 90 -92
	-10 -223 -39 -342 -50 -617
	0 -90 0 -162 96 -232
	56 72 63 230 22 289
	-74 106 -257 168 -255 316
	9 153 148 185 252 133
	86 -65 29 -192 -80 -176
	-71 12 -105 67 -59 124"/>
<use id="tclef" transform="translate(0,6) scale(0.045)"
	xlink:href="#utclef"/>
</defs>
<use x="23.54" y="119.00" xlink:href="#tclef"/>
<g font-family="serif" font-size="16" font-weight="bold" font-style="normal"
	transform="translate(42.04,124.50) scale(1.2,1)">
	<text text-anchor="middle">8</text>
	<text y="-12" text-anchor="middle">3</text>
</g>
<path class="fill"
	d="M81.24 138.20l49.20 -6.70v-3.20l-49.20 6.70"/>
<use x="85.14" y="119.00" xlink:href="#hd"/>
<path d="M81.64 119.00v18.20" class="stroke"/>
<use x="109.34" y="110.00" xlink:href="#hd"/>
<path d="M105.84 110.00v23.90" class="stroke"/>
<use x="133.64" y="104.00" xlink:href="#hd"/>
<path d="M130.14 104.00v26.60" class="stroke"/>
<path class="fill"
	d="M162.34 130.50l86.60 -6.40v-3.20l-86.60 6.40"/>
<path class="fill"
	d="M162.64 125.50l85.90 -6.40v-3.20l-85.90 6.40"/>
<use x="166.14" y="104.00" xlink:href="#hd"/>
<path d="M162.64 104.00v25.50" class="stroke"/>
<use x="183.34" y="107.00" xlink:href="#hd"/>
<path d="M179.84 107.00v21.20" class="stroke"/>
<use x="200.54" y="104.00" xlink:href="#hd"/>
<path d="M197.04 104.00v22.90" class="stroke"/>
<use x="217.74" y="98.00" xlink:href="#hd"/>
<path d="M214.24 98.00v27.70" class="stroke"/>
<defs>
<path id="hl" class="stroke" d="m-6 0h12"/>
</defs>
<use x="234.94" y="95.00" xlink:href="#hl"/>
<use x="234.94" y="89.00" xlink:href="#hl"/>
<use x="234.94" y="89.00" xlink:href="#hd"/>
<path d="M231.44 89.00v35.40" class="stroke"/>
<use x="252.14" y="98.00" xlink:href="#hd"/>
<path d="M248.64 98.00v25.10" class="stroke"/>
<path class="fill"
	d="M275.34 124.10l49.20 8.10v-3.20l-49.20 -8.10"/>
<use x="279.14" y="101.00" xlink:href="#hd"/>
<path d="M275.64 101.00v22.20" class="stroke"/>
<use x="303.44" y="107.00" xlink:href="#hd"/>
<path d="M299.94 107.00v20.20" class="stroke"/>
<use x="327.64" y="113.00" xlink:href="#hd"/>
<path d="M324.14 113.00v18.20" class="stroke"/>
<path class="fill"
	d="M356.34 133.50l59.30 4.70v-3.20l-59.30 -4.70"/>
<path class="fill"
	d="M380.94 130.50l17.20 1.40v-3.20l-17.20 -1.40"/>
<use x="360.24" y="110.00" xlink:href="#hd"/>
<path d="M356.74 110.00v22.50" class="stroke"/>
<use x="384.44" y="104.00" xlink:href="#hd"/>
<path d="M380.94 104.00v30.50" class="stroke"/>
<use x="401.64" y="110.00" xlink:href="#hd"/>
<path d="M398.14 110.00v25.80" class="stroke"/>
<use x="418.84" y="119.00" xlink:href="#hd"/>
<path d="M415.34 119.00v18.20" class="stroke"/>
<path class="fill"
	d="M447.54 139.50l87.40 -6.40v-3.20l-87.40 6.40"/>
<path class="fill"
	d="M447.84 134.50l86.70 -6.40v-3.20l-86.70 6.40"/>
<use x="451.34" y="107.00" xlink:href="#hd"/>
<path d="M447.84 107.00v31.50" class="stroke"/>
<use x="468.54" y="116.00" xlink:href="#hd"/>
<path d="M465.04 116.00v21.20" class="stroke"/>
<use x="486.54" y="101.00" xlink:href="#hd"/>
<defs>
<path id="usharp" class="fill" d="
	m136 -702
	v890
	h32
	v-890
	m128 840
	h32
	v-888
	h-32
	m-232 286
	v116
	l338 -96
	v-116
	m-338 442
	v116
	l338 -98
	v-114"/>
<use id="sh0" transform="translate(-4,5) scale(0.018)"
	xlink:href="#usharp"/>
</defs>
<use x="477.54" y="101.00" xlink:href="#sh0"/>
<path d="M483.04 101.00v34.90" class="stroke"/>
<use x="503.74" y="107.00" xlink:href="#hd"/>
<path d="M500.24 107.00v27.60" class="stroke"/>
<use x="520.94" y="95.00" xlink:href="#hl"/>
<use x="520.94" y="95.00" xlink:href="#hd"/>
<path d="M517.44 95.00v38.30" class="stroke"/>
<use x="538.14" y="101.00" xlink:href="#hd"/>
<path d="M534.64 101.00v31.10" class="stroke"/>
<path class="fill"
	d="M561.34 132.20l59.30 -7.20v-3.20l-59.30 7.20"/>
<path class="fill"
	d="M585.94 124.20l17.20 -2.10v-3.20l-17.20 2.10"/>
<use x="565.14" y="107.00" xlink:href="#hd"/>
<path d="M561.64 107.00v24.10" class="stroke"/>
<use x="589.44" y="107.00" xlink:href="#hd"/>
<path d="M585.94 107.00v21.20" class="stroke"/>
<use x="606.54" y="98.00" xlink:href="#hd"/>
<path d="M603.04 98.00v28.10" class="stroke"/>
<use x="623.74" y="95.00" xlink:href="#hl"/>
<use x="623.74" y="92.00" xlink:href="#hd"/>
<path d="M620.24 92.00v32.00" class="stroke"/>
<path class="fill"
	d="M652.44 127.00l87.40 0.00v-3.20l-87.40 -0.00"/>
<path class="fill"
	d="M652.84 122.00l86.80 0.00v-3.20l-86.80 -0.00"/>
<use x="656.34" y="104.00" xlink:href="#hd"/>
<path d="M652.84 104.00v22.00" class="stroke"/>
<use x="673.44" y="95.00" xlink:href="#hl"/>
<use x="673.44" y="89.00" xlink:href="#hl"/>
<use x="673.44" y="89.00" xlink:href="#hd"/>
<path d="M669.94 89.00v37.00" class="stroke"/>
<use x="690.64" y="95.00" xlink:href="#hl"/>
<use x="690.64" y="92.00" xlink:href="#hd"/>
<path d="M687.14 92.00v34.00" class="stroke"/>
<use x="707.84" y="98.00" xlink:href="#hd"/>
<path d="M704.34 98.00v28.00" class="stroke"/>
<use x="725.04" y="95.00" xlink:href="#hl"/>
<use x="725.04" y="95.00" xlink:href="#hd"/>
<path d="M721.54 95.00v31.00" class="stroke"/>
<use x="743.04" y="101.00" xlink:href="#hd"/>
<use x="734.04" y="101.00" xlink:href="#sh0"/>
<path d="M739.54 101.00v25.00" class="stroke"/>
<use x="770.04" y="98.00" xlink:href="#hd"/>
<path d="M766.54 98.00v40.00" class="stroke"/>
<use x="770.04" y="119.00" xlink:href="#hd"/>
<use x="770.04" y="113.00" xlink:href="#hd"/>
<use x="770.04" y="107.00" xlink:href="#hd"/>
<defs>
<path id="r8e" class="fill" d="m 0 0
	c-1.5 1.5 -2.4 2 -3.6 2
	2.4 -2.8 -2.8 -4 -2.8 -1.2
	c0 2.7 4.3 2.4 5.9 0.6"/>
<g id="r8">
	<path d="m3.3 -4l-3.4 9.6" class="stroke"/>
	<use x="3.4" y="-4" xlink:href="#r8e"/>
</g>
</defs>
<use x="829.54" y="113.00" xlink:href="#r8"/>
<defs>
<path id="ubclef" class="fill" d="m-200 -87
	c124 -35 222 -78 254 -236
	43 -228 -167 -246 -192 -103
	59 -80 157 22 92 78
	-62 47 -115 -22 -106 -88
	21 -141 270 -136 274 52
	-1 175 -106 264 -322 297
	m357 -250
	c0 -36 51 -34 51 0
	0 37 -51 36 -51 0
	m-2 -129
	c0 -36 51 -34 51 0
	0 38 -51 37 -51 0"/>
<use id="bclef" transform="translate(0,18) scale(0.045)"
	xlink:href="#ubclef"/>
</defs>
<use x="23.54" y="165.00" xlink:href="#bclef"/>
<g font-family="serif" font-size="16" font-weight="bold" font-style="normal"
	transform="translate(42.04,182.50) scale(1.2,1)">
	<text text-anchor="middle">8</text>
	<text y="-12" text-anchor="middle">3</text>
</g>
<use x="85.14" y="168.00" xlink:href="#hd"/>
<path d="M81.64 168.00v25.00" class="stroke"/>
<use x="85.14" y="174.00" xlink:href="#hd"/>
<use x="133.64" y="171.00" xlink:href="#r8"/>
<use x="166.14" y="174.00" xlink:href="#hd"/>
<path d="M169.64 174.00v-21.00" class="stroke"/>
<use x="234.94" y="171.00" xlink:href="#r8"/>
<use x="279.14" y="156.00" xlink:href="#hd"/>
<path d="M275.64 156.00v25.00" class="stroke"/>
<use x="279.14" y="162.00" xlink:href="#hd"/>
<use x="327.64" y="171.00" xlink:href="#r8"/>
<use x="360.24" y="162.00" xlink:href="#hd"/>
<path d="M356.74 162.00v25.00" class="stroke"/>
<use x="360.24" y="168.00" xlink:href="#hd"/>
<use x="418.84" y="171.00" xlink:href="#r8"/>
<use x="451.34" y="174.00" xlink:href="#hd"/>
<path d="M454.84 174.00v-21.00" class="stroke"/>
<use x="520.94" y="171.00" xlink:href="#r8"/>
<use x="565.14" y="162.00" xlink:href="#hd"/>
<path d="M561.64 162.00v34.00" class="stroke"/>
<use x="565.14" y="177.00" xlink:href="#hd"/>
<use x="623.74" y="171.00" xlink:href="#r8"/>
<path class="fill"
	d="M659.44 147.60l69.40 8.30v3.20l-69.40 -8.30"/>
<use x="656.34" y="174.00" xlink:href="#hd"/>
<path d="M659.84 174.00v-25.30" class="stroke"/>
<use x="690.64" y="171.00" xlink:href="#hd"/>
<path d="M694.14 171.00v-18.20" class="stroke"/>
<use x="725.04" y="189.00" xlink:href="#hl"/>
<use x="725.04" y="192.00" xlink:href="#hd"/>
<path d="M728.54 192.00v-35.10" class="stroke"/>
<path class="fill"
	d="M766.24 202.20l77.30 0.00v-3.20l-77.30 -0.00"/>
<path class="fill"
	d="M790.84 197.20l52.40 0.00v-3.20l-52.40 -0.00"/>
<use x="770.04" y="183.00" xlink:href="#hd"/>
<path d="M766.54 183.00v18.20" class="stroke"/>
<use x="794.34" y="162.00" xlink:href="#hd"/>
<path d="M790.84 162.00v39.20" class="stroke"/>
<use x="812.34" y="165.00" xlink:href="#hd"/>
<defs>
<path id="unat" class="fill" d="
	m96 -750
	h-32
	v716
	l32 -8
	182 -54
	v282
	h32
	v-706
	l-34 10
	-180 50
	v-290
	m0 592
	v-190
	l182 -52
	v188"/>
<use id="nt0" transform="translate(-3,5) scale(0.018)"
	xlink:href="#unat"/>
</defs>
<use x="803.34" y="165.00" xlink:href="#nt0"/>
<path d="M808.84 165.00v36.20" class="stroke"/>
<use x="829.54" y="168.00" xlink:href="#hd"/>
<path d="M826.04 168.00v33.20" class="stroke"/>
<use x="846.74" y="171.00" xlink:href="#hd"/>
<path d="M843.24 171.00v30.20" class="stroke"/>
</g>
<g stroke-width="0.70" transform="scale(0.867)" font-family="Times" font-size="13.00">
<path class="stroke" stroke-width="1"
	d="M11.54 319.00v-85.00"/>
<path class="fill"
	d="M6.54 231.00
	c10.5 1 12 -4.5 12 -3.5c0 1 -3.5 5.5 -8.5 5.5
	v87.00
	c5 0 8.5 4.5 8.5 5.5c0 1 -1.5 -4.5 -12 -3.5"/>
<use x="144.64" y="258.00" xlink:href="#rdots"/>
<path class="stroke" stroke-width="1"
	d="M140.64 258.00v-24.00"/>
<path class="stroke" stroke-width="3"
	d="M136.14 258.00v-24.00"/>
<use x="144.64" y="319.00" xlink:href="#rdots"/>
<path class="stroke" stroke-width="1"
	d="M140.64 319.00v-61.00"/>
<path class="stroke" stroke-width="3"
	d="M136.14 319.00v-61.00"/>
<path class="stroke" stroke-width="1"
	d="M231.34 258.00v-24.00"/>
<path class="stroke" stroke-width="1"
	d="M231.34 319.00v-61.00"/>
<path class="stroke" stroke-width="1"
	d="M311.84 258.00v-24.00"/>
<path class="stroke" stroke-width="1"
	d="M311.84 319.00v-61.00"/>
<path class="stroke" stroke-width="1"
	d="M416.64 258.00v-24.00"/>
<path class="stroke" stroke-width="1"
	d="M416.64 319.00v-61.00"/>
<path class="stroke" stroke-width="1"
	d="M506.14 258.00v-24.00"/>
<path class="stroke" stroke-width="1"
	d="M506.14 319.00v-61.00"/>
<path class="stroke" stroke-width="1"
	d="M606.44 258.00v-24.00"/>
<path class="stroke" stroke-width="1"
	d="M606.44 319.00v-61.00"/>
<path class="stroke" stroke-width="1"
	d="M706.64 258.00v-24.00"/>
<path class="stroke" stroke-width="1"
	d="M706.64 319.00v-61.00"/>
<path class="stroke" stroke-width="1"
	d="M787.04 258.00v-24.00"/>
<path class="stroke" stroke-width="1"
	d="M787.04 319.00v-61.00"/>
<path class="stroke" stroke-width="3"
	d="M860.54 258.00v-24.00"/>
<path class="stroke" stroke-width="1"
	d="M856.04 258.00v-24.00"/>
<use x="852.04" y="258.00" xlink:href="#rdots"/>
<path class="stroke" stroke-width="3"
	d="M860.54 319.00v-61.00"/>
<path class="stroke" stroke-width="1"
	d="M856.04 319.00v-61.00"/>
<use x="852.04" y="319.00" xlink:href="#rdots"/>
<path d="m11.54 258.00
	h850.50
	M11.54 252.00
	h850.50
	M11.54 246.00
	h850.50
	M11.54 240.00
	h850.50
	M11.54 234.00
	h850.50
	" class="stroke"/>
<path d="m11.54 319.00
	h850.50
	M11.54 313.00
	h850.50
	M11.54 307.00
	h850.50
	M11.54 301.00
	h850.50
	M11.54 295.00
	h850.50
	" class="stroke"/>
<path class="fill"
	d="M622.94 233.40c8.44 -3.22 47.77 2.10 56.21 7.60
	v-0.26c-10.13 -7.24 -46.08 -12.56 -56.21 -7.34"/>
<text x="47.54" y="219.40">2</text>
<path class="stroke"
	d="M43.54 208.00m0 20v-20h90.10v20"/>
<use x="23.54" y="252.00" xlink:href="#tclef"/>
<use x="56.04" y="231.00" xlink:href="#hd"/>
<path d="M52.54 231.00v40.00" class="stroke"/>
<use x="56.04" y="252.00" xlink:href="#hd"/>
<use x="56.04" y="246.00" xlink:href="#hd"/>
<use x="56.04" y="240.00" xlink:href="#hd"/>
<use x="110.04" y="246.00" xlink:href="#r8"/>
<path class="fill"
	d="M160.34 252.20l43.40 0.00v-3.20l-43.40 -0.00"/>
<use x="164.14" y="234.00" xlink:href="#hd"/>
<use x="155.14" y="234.00" xlink:href="#sh0"/>
<path d="M160.64 234.00v17.20" class="stroke"/>
<use x="185.84" y="228.00" xlink:href="#hl"/>
<use x="185.84" y="228.00" xlink:href="#hd"/>
<path d="M182.34 228.00v23.20" class="stroke"/>
<use x="206.84" y="234.00" xlink:href="#hd"/>
<path d="M203.34 234.00v17.20" class="stroke"/>
<path class="fill"
	d="M240.04 260.00l51.90 0.00v-3.20l-51.90 -0.00"/>
<path class="fill"
	d="M261.34 255.00l15.20 0.00v-3.20l-15.20 -0.00"/>
<use x="243.84" y="231.00" xlink:href="#hd"/>
<path d="M240.34 231.00v28.00" class="stroke"/>
<use x="264.84" y="228.00" xlink:href="#hl"/>
<use x="264.84" y="225.00" xlink:href="#hd"/>
<path d="M261.34 225.00v34.00" class="stroke"/>
<use x="280.04" y="228.00" xlink:href="#hl"/>
<use x="280.04" y="222.00" xlink:href="#hl"/>
<use x="280.04" y="219.00" xlink:href="#hd"/>
<path d="M276.54 219.00v40.00" class="stroke"/>
<use x="295.04" y="240.00" xlink:href="#hd"/>
<path d="M291.54 240.00v19.00" class="stroke"/>
<use x="324.34" y="237.00" xlink:href="#hd"/>
<path d="M320.84 237.00v34.00" class="stroke"/>
<path class="fill"
	d="M320.84 271.00c0.6 -5.6 9.6 -9 5.6 -18.4
	1.6 6 -1.3 11.6 -5.6 12.8
"/>
<use x="324.34" y="252.00" xlink:href="#hd"/>
<use x="324.34" y="243.00" xlink:href="#hd"/>
<use x="356.04" y="237.00" xlink:href="#hd"/>
<path d="M352.54 237.00v21.00" class="stroke"/>
<path class="fill"
	d="M425.34 262.20l60.90 5.40v-3.20l-60.90 -5.40"/>
<path class="fill"
	d="M425.64 257.20l45.20 4.00v-3.20l-45.20 -4.00"/>
<use x="429.14" y="240.00" xlink:href="#hd"/>
<path d="M425.64 240.00v21.20" class="stroke"/>
<use x="444.24" y="228.00" xlink:href="#hl"/>
<use x="444.24" y="225.00" xlink:href="#hd"/>
<path d="M440.74 225.00v37.50" class="stroke"/>
<use x="459.24" y="231.00" xlink:href="#hd"/>
<path d="M455.74 231.00v32.90" class="stroke"/>
<use x="474.34" y="240.00" xlink:href="#hd"/>
<path d="M470.84 240.00v25.20" class="stroke"/>
<use x="489.34" y="246.00" xlink:href="#hd"/>
<path d="M485.84 246.00v20.50" class="stroke"/>
<path class="fill"
	d="M514.84 264.20l60.90 7.00v-3.20l-60.90 -7.00"/>
<use x="518.64" y="237.00" xlink:href="#hd"/>
<path d="M515.14 237.00v26.30" class="stroke"/>
<use x="548.74" y="243.00" xlink:href="#hd"/>
<path d="M545.24 243.00v23.70" class="stroke"/>
<use x="578.84" y="252.00" xlink:href="#hd"/>
<path d="M575.34 252.00v18.20" class="stroke"/>
<path class="fill"
	d="M615.04 264.20l60.90 7.00v-3.20l-60.90 -7.00"/>
<use x="618.94" y="237.00" xlink:href="#hd"/>
<path d="M615.44 237.00v26.30" class="stroke"/>
<use x="649.04" y="243.00" xlink:href="#hd"/>
<path d="M645.54 243.00v23.70" class="stroke"/>
<use x="679.14" y="252.00" xlink:href="#hd"/>
<path d="M675.64 252.00v18.20" class="stroke"/>
<path class="fill"
	d="M715.34 260.00l51.80 0.00v-3.20l-51.80 -0.00"/>
<path class="fill"
	d="M715.64 255.00l15.10 0.00v-3.20l-15.10 -0.00"/>
<use x="719.14" y="234.00" xlink:href="#hd"/>
<path d="M715.64 234.00v25.00" class="stroke"/>
<use x="734.24" y="237.00" xlink:href="#hd"/>
<path d="M730.74 237.00v22.00" class="stroke"/>
<use x="749.34" y="240.00" xlink:href="#hd"/>
<path d="M745.84 240.00v19.00" class="stroke"/>
<use x="770.24" y="231.00" xlink:href="#hd"/>
<path d="M766.74 231.00v28.00" class="stroke"/>
<use x="799.54" y="243.00" xlink:href="#hd"/>
<path d="M796.04 243.00v21.00" class="stroke"/>
<use x="841.54" y="246.00" xlink:href="#r8"/>
<use x="23.54" y="301.00" xlink:href="#bclef"/>
<path class="fill"
	d="M52.24 338.20l69.80 -5.00v-3.20l-69.80 5.00"/>
<path class="fill"
	d="M73.54 331.70l48.10 -3.50v-3.20l-48.10 3.50"/>
<use x="56.04" y="319.00" xlink:href="#hd"/>
<path d="M52.54 319.00v18.20" class="stroke"/>
<use x="77.04" y="292.00" xlink:href="#hd"/>
<path d="M73.54 292.00v43.70" class="stroke"/>
<use x="92.04" y="298.00" xlink:href="#hd"/>
<path d="M88.54 298.00v36.60" class="stroke"/>
<use x="110.04" y="301.00" xlink:href="#hd"/>
<use x="101.04" y="301.00" xlink:href="#sh0"/>
<path d="M106.54 301.00v32.30" class="stroke"/>
<use x="125.14" y="304.00" xlink:href="#hd"/>
<path d="M121.64 304.00v28.20" class="stroke"/>
<path class="fill"
	d="M167.34 275.70l43.40 7.80v3.20l-43.40 -7.80"/>
<use x="164.14" y="295.00" xlink:href="#hd"/>
<path d="M167.64 295.00v-18.20" class="stroke"/>
<use x="185.84" y="301.00" xlink:href="#hd"/>
<use x="176.84" y="301.00" xlink:href="#sh0"/>
<path d="M189.34 301.00v-20.30" class="stroke"/>
<use x="206.84" y="307.00" xlink:href="#hd"/>
<path d="M210.34 307.00v-22.50" class="stroke"/>
<use x="243.84" y="313.00" xlink:href="#hd"/>
<path d="M247.34 313.00v-21.00" class="stroke"/>
<use x="295.04" y="307.00" xlink:href="#r8"/>
<path class="fill"
	d="M327.54 278.80l80.50 0.00v3.20l-80.50 -0.00"/>
<path class="fill"
	d="M327.84 283.80l79.80 0.00v3.20l-79.80 -0.00"/>
<use x="324.34" y="310.00" xlink:href="#hd"/>
<path d="M327.84 310.00v-30.20" class="stroke"/>
<use x="339.44" y="313.00" xlink:href="#hd"/>
<path d="M342.94 313.00v-33.20" class="stroke"/>
<use x="356.04" y="310.00" xlink:href="#hd"/>
<path d="M359.54 310.00v-30.20" class="stroke"/>
<use x="371.14" y="307.00" xlink:href="#hd"/>
<path d="M374.64 307.00v-27.20" class="stroke"/>
<use x="386.14" y="304.00" xlink:href="#hd"/>
<path d="M389.64 304.00v-24.20" class="stroke"/>
<use x="404.14" y="301.00" xlink:href="#hd"/>
<use x="395.14" y="301.00" xlink:href="#sh0"/>
<path d="M407.64 301.00v-21.20" class="stroke"/>
<use x="429.14" y="292.00" xlink:href="#hd"/>
<path d="M425.64 292.00v25.00" class="stroke"/>
<use x="429.14" y="298.00" xlink:href="#hd"/>
<use x="489.34" y="307.00" xlink:href="#r8"/>
<path class="fill"
	d="M514.84 326.90l75.90 0.00v-3.20l-75.90 -0.00"/>
<path class="fill"
	d="M515.14 321.90l75.30 0.00v-3.20l-75.30 -0.00"/>
<use x="518.64" y="304.00" xlink:href="#hd"/>
<path d="M515.14 304.00v21.90" class="stroke"/>
<use x="518.64" y="310.00" xlink:href="#hd"/>
<use x="533.74" y="298.00" xlink:href="#hd"/>
<path d="M530.24 298.00v27.90" class="stroke"/>
<use x="548.74" y="304.00" xlink:href="#hd"/>
<path d="M545.24 304.00v21.90" class="stroke"/>
<use x="548.74" y="310.00" xlink:href="#hd"/>
<use x="563.84" y="298.00" xlink:href="#hd"/>
<path d="M560.34 298.00v27.90" class="stroke"/>
<use x="578.84" y="304.00" xlink:href="#hd"/>
<path d="M575.34 304.00v21.90" class="stroke"/>
<use x="578.84" y="310.00" xlink:href="#hd"/>
<use x="593.94" y="298.00" xlink:href="#hd"/>
<path d="M590.44 298.00v27.90" class="stroke"/>
<path class="fill"
	d="M615.04 326.90l75.90 0.00v-3.20l-75.90 -0.00"/>
<path class="fill"
	d="M615.44 321.90l75.30 0.00v-3.20l-75.30 -0.00"/>
<use x="618.94" y="304.00" xlink:href="#hd"/>
<path d="M615.44 304.00v21.90" class="stroke"/>
<use x="618.94" y="310.00" xlink:href="#hd"/>
<use x="633.94" y="298.00" xlink:href="#hd"/>
<path d="M630.44 298.00v27.90" class="stroke"/>
<use x="649.04" y="304.00" xlink:href="#hd"/>
<path d="M645.54 304.00v21.90" class="stroke"/>
<use x="649.04" y="310.00" xlink:href="#hd"/>
<use x="664.04" y="298.00" xlink:href="#hd"/>
<path d="M660.54 298.00v27.90" class="stroke"/>
<use x="679.14" y="304.00" xlink:href="#hd"/>
<path d="M675.64 304.00v21.90" class="stroke"/>
<use x="679.14" y="310.00" xlink:href="#hd"/>
<use x="694.14" y="298.00" xlink:href="#hd"/>
<path d="M690.64 298.00v27.90" class="stroke"/>
<path class="fill"
	d="M715.34 326.90l51.80 0.00v-3.20l-51.80 -0.00"/>
<path class="fill"
	d="M715.64 321.90l15.10 0.00v-3.20l-15.10 -0.00"/>
<use x="719.14" y="301.00" xlink:href="#hd"/>
<path d="M715.64 301.00v24.90" class="stroke"/>
<use x="734.24" y="304.00" xlink:href="#hd"/>
<path d="M730.74 304.00v21.90" class="stroke"/>
<use x="749.34" y="307.00" xlink:href="#hd"/>
<path d="M745.84 307.00v18.90" class="stroke"/>
<use x="770.24" y="298.00" xlink:href="#hd"/>
<path d="M766.74 298.00v27.90" class="stroke"/>
<path class="fill"
	d="M802.74 290.70l42.70 9.80v3.20l-42.70 -9.80"/>
<use x="799.54" y="310.00" xlink:href="#hd"/>
<path d="M803.04 310.00v-18.20" class="stroke"/>
<use x="820.54" y="319.00" xlink:href="#hd"/>
<path d="M824.04 319.00v-22.40" class="stroke"/>
<use x="841.54" y="325.00" xlink:href="#hl"/>
<use x="841.54" y="331.00" xlink:href="#hl"/>
<use x="841.54" y="331.00" xlink:href="#hd"/>
<path d="M845.04 331.00v-29.50" class="stroke"/>
<path class="fill"
	d="M160.34 329.20l51.40 0.00v-3.20l-51.40 -0.00"/>
<use x="164.14" y="307.00" xlink:href="#hd"/>
<path d="M160.64 307.00v21.20" class="stroke"/>
<use x="185.84" y="307.00" xlink:href="#hd"/>
<path d="M182.34 307.00v21.20" class="stroke"/>
<use x="214.84" y="310.00" xlink:href="#hd"/>
<path d="M211.34 310.00v18.20" class="stroke"/>
<defs>
<text id="trl" font-family="serif" font-size="16" font-style="italic"
	x="-2" y="-4">tr</text>
</defs>
<use x="356.04" y="231.00" xlink:href="#trl"/>
</g>
</svg>
