<?xml version="1.0" standalone="no"?>
<!DOCTYPE svg PUBLIC "-//W3C//DTD SVG 1.1//EN"
	"http://www.w3.org/Graphics/SVG/1.1/DTD/svg11.dtd">
<svg xmlns="http://www.w3.org/2000/svg" version="1.1"
	xmlns:xlink="http://www.w3.org/1999/xlink"
	color="black"
	width="757.10px" height="293.80px">
<style type="text/css">
.fill {fill: currentColor}
.stroke {stroke: currentColor; fill: none}
text{white-space: pre}
</style>
<title>./K516f-11-7-4-11-2-10-9-7-11-5-4-9-11-5-5-2.abc (1157) tune 1</title>
<!-- Creator: abcm2ps-8.13.8 -->
<!-- CreationDate: Sep  7, 2017 11:18 -->
<!-- CommandLine: ./K516f-11-7-4-11-2-10-9-7-11-5-4-9-11-5-5-2.abc -O ./K516f-11-7-4-11-2-10-9-7-11-5-4-9-11-5-5-2.svg -g -->
<rect width="100%" height="100%" fill="white"/>
<g stroke-width="0.70" transform="scale(0.867)">
<!-- title: 11-7-4-11-2-10-9-7-11-5-4-9-11-5-5-2 -->
</g>
<g stroke-width="0.70" transform="scale(0.867)" font-family="Times" font-size="20.00">
<text x="436.84" y="22.00" text-anchor="middle">11-7-4-11-2-10-9-7-11-5-4-9-11-5-5-2</text>
</g>
<g stroke-width="0.70" transform="scale(0.867)" font-family="Times" font-size="20.00">
<!-- subtitle: $1K.516f::3:157:158:61:105:129:169:91:102:176:15:166:144:160:52:14::$0 -->
</g>
<g stroke-width="0.70" transform="scale(0.867)" font-family="Courier" font-size="8.00" font-weight="bold">
<text x="436.84" y="41.80" text-anchor="middle">K.516f::3:157:158:61:105:129:169:91:102:176:15:166:144:160:52:14::</text>
</g>
<g stroke-width="0.70" transform="scale(0.867)" font-family="Courier" font-size="8.00" font-weight="bold">
<!-- subtitle: $1Perm. No.: 115738336627847$0 -->
<text x="436.84" y="60.80" text-anchor="middle">Perm. No.: 115738336627847</text>
</g>
<g stroke-width="0.70" transform="scale(0.607)" font-family="Courier" font-size="8.00" font-weight="bold">
<defs>
<ellipse id="hd" rx="4.1" ry="2.9"
	transform="rotate(-20)" class="fill"/>
</defs>
<use x="103.06" y="121.29" xlink:href="#hd"/>
<path d="M106.56 121.29v-21.00" class="stroke"/>
<path class="fill"
	d="M106.56 100.29c0.6 5.6 9.6 9 5.6 18.4
	1.6 -6 -1.3 -11.6 -5.6 -12.8
"/>
</g>
<g stroke-width="0.70" transform="scale(0.867)" font-family="Times" font-size="15.00" font-weight="bold">
<text x="81.24" y="87.00">= 111</text>
<path class="stroke" stroke-width="1"
	d="M11.54 183.00v-82.00"/>
<path class="fill"
	d="M6.54 98.00
	c10.5 1 12 -4.5 12 -3.5c0 1 -3.5 5.5 -8.5 5.5
	v84.00
	c5 0 8.5 4.5 8.5 5.5c0 1 -1.5 -4.5 -12 -3.5"/>
<defs>
<g id="rdots" class="fill">
	<circle cx="0" cy="-9" r="1.2"/>
	<circle cx="0" cy="-15" r="1.2"/>
</g>
</defs>
<use x="70.54" y="125.00" xlink:href="#rdots"/>
<path class="stroke" stroke-width="1"
	d="M66.54 125.00v-24.00"/>
<path class="stroke" stroke-width="3"
	d="M62.04 125.00v-24.00"/>
<use x="70.54" y="183.00" xlink:href="#rdots"/>
<path class="stroke" stroke-width="1"
	d="M66.54 183.00v-58.00"/>
<path class="stroke" stroke-width="3"
	d="M62.04 183.00v-58.00"/>
<path class="stroke" stroke-width="1"
	d="M149.64 125.00v-24.00"/>
<path class="stroke" stroke-width="1"
	d="M149.64 183.00v-58.00"/>
<path class="stroke" stroke-width="1"
	d="M258.54 125.00v-24.00"/>
<path class="stroke" stroke-width="1"
	d="M258.54 183.00v-58.00"/>
<path class="stroke" stroke-width="1"
	d="M357.74 125.00v-24.00"/>
<path class="stroke" stroke-width="1"
	d="M357.74 183.00v-58.00"/>
<path class="stroke" stroke-width="1"
	d="M445.64 125.00v-24.00"/>
<path class="stroke" stroke-width="1"
	d="M445.64 183.00v-58.00"/>
<path class="stroke" stroke-width="1"
	d="M550.14 125.00v-24.00"/>
<path class="stroke" stroke-width="1"
	d="M550.14 183.00v-58.00"/>
<path class="stroke" stroke-width="1"
	d="M649.24 125.00v-24.00"/>
<path class="stroke" stroke-width="1"
	d="M649.24 183.00v-58.00"/>
<path class="stroke" stroke-width="1"
	d="M759.64 125.00v-24.00"/>
<path class="stroke" stroke-width="1"
	d="M759.64 183.00v-58.00"/>
<path class="stroke" stroke-width="3"
	d="M860.54 125.00v-24.00"/>
<path class="stroke" stroke-width="1"
	d="M856.04 125.00v-24.00"/>
<use x="852.04" y="125.00" xlink:href="#rdots"/>
<path class="stroke" stroke-width="3"
	d="M860.54 183.00v-58.00"/>
<path class="stroke" stroke-width="1"
	d="M856.04 183.00v-58.00"/>
<use x="852.04" y="183.00" xlink:href="#rdots"/>
<path d="m11.54 125.00
	h850.50
	M11.54 119.00
	h850.50
	M11.54 113.00
	h850.50
	M11.54 107.00
	h850.50
	M11.54 101.00
	h850.50
	" class="stroke"/>
<path d="m11.54 183.00
	h850.50
	M11.54 177.00
	h850.50
	M11.54 171.00
	h850.50
	M11.54 165.00
	h850.50
	M11.54 159.00
	h850.50
	" class="stroke"/>
</g>
<g stroke-width="0.70" transform="scale(0.867)" font-family="Times" font-size="13.00">
<text x="763.64" y="86.40">1</text>
<path class="stroke"
	d="M759.64 75.00m0 20v-20h94.40v20"/>
<defs>
<path id="utclef" class="fill" d="m-50 -90
	c-72 -41 -72 -158 52 -188
	150 -10 220 188 90 256
	-114 52 -275 0 -293 -136
	-15 -181 93 -229 220 -334
	88 -87 79 -133 62 -210
	-51 33 -94 105 -89 186
	17 267 36 374 49 574
	6 96 -19 134 -77 135
	-80 1 -126 -93 -61 -133
	85 -41 133 101 31 105
	23 17 92 37 90 -92
	-10 -223 -39 -342 -50 -617
	0 -90 0 -162 96 -232
	56 72 63 230 22 289
	-74 106 -257 168 -255 316
	9 153 148 185 252 133
	86 -65 29 -192 -80 -176
	-71 12 -105 67 -59 124"/>
<use id="tclef" transform="translate(0,6) scale(0.045)"
	xlink:href="#utclef"/>
</defs>
<use x="23.54" y="119.00" xlink:href="#tclef"/>
<g font-family="serif" font-size="16" font-weight="bold" font-style="normal"
	transform="translate(42.04,124.50) scale(1.2,1)">
	<text text-anchor="middle">8</text>
	<text y="-12" text-anchor="middle">3</text>
</g>
<path class="fill"
	d="M80.84 127.60l47.30 3.20v-3.20l-47.30 -3.20"/>
<use x="84.74" y="98.00" xlink:href="#hd"/>
<path d="M81.24 98.00v28.60" class="stroke"/>
<use x="108.04" y="110.00" xlink:href="#hd"/>
<path d="M104.54 110.00v18.20" class="stroke"/>
<use x="131.34" y="104.00" xlink:href="#hd"/>
<path d="M127.84 104.00v25.80" class="stroke"/>
<path class="fill"
	d="M158.94 130.50l83.40 -6.40v-3.20l-83.40 6.40"/>
<path class="fill"
	d="M159.34 125.50l82.70 -6.30v-3.20l-82.70 6.30"/>
<use x="162.84" y="104.00" xlink:href="#hd"/>
<path d="M159.34 104.00v25.50" class="stroke"/>
<use x="179.34" y="107.00" xlink:href="#hd"/>
<path d="M175.84 107.00v21.20" class="stroke"/>
<use x="195.94" y="104.00" xlink:href="#hd"/>
<path d="M192.44 104.00v22.90" class="stroke"/>
<use x="212.44" y="98.00" xlink:href="#hd"/>
<path d="M208.94 98.00v27.70" class="stroke"/>
<defs>
<path id="hl" class="stroke" d="m-6 0h12"/>
</defs>
<use x="228.94" y="95.00" xlink:href="#hl"/>
<use x="228.94" y="89.00" xlink:href="#hl"/>
<use x="228.94" y="89.00" xlink:href="#hd"/>
<path d="M225.44 89.00v35.40" class="stroke"/>
<use x="245.54" y="98.00" xlink:href="#hd"/>
<path d="M242.04 98.00v25.10" class="stroke"/>
<path class="fill"
	d="M274.94 84.80l73.60 0.00v3.20l-73.60 -0.00"/>
<path class="fill"
	d="M298.54 89.80l49.60 0.00v3.20l-49.60 -0.00"/>
<use x="271.74" y="113.00" xlink:href="#hd"/>
<path d="M275.24 113.00v-27.20" class="stroke"/>
<use x="295.04" y="107.00" xlink:href="#hd"/>
<path d="M298.54 107.00v-21.20" class="stroke"/>
<use x="311.64" y="113.00" xlink:href="#hd"/>
<path d="M315.14 113.00v-27.20" class="stroke"/>
<use x="328.14" y="116.00" xlink:href="#hd"/>
<path d="M331.64 116.00v-30.20" class="stroke"/>
<use x="344.74" y="119.00" xlink:href="#hd"/>
<path d="M348.24 119.00v-33.20" class="stroke"/>
<path class="fill"
	d="M367.04 135.40l57.10 -4.50v-3.20l-57.10 4.50"/>
<path class="fill"
	d="M390.74 128.50l16.50 -1.30v-3.20l-16.50 1.30"/>
<use x="370.94" y="110.00" xlink:href="#hd"/>
<path d="M367.44 110.00v24.30" class="stroke"/>
<use x="394.24" y="104.00" xlink:href="#hd"/>
<path d="M390.74 104.00v28.50" class="stroke"/>
<use x="410.74" y="110.00" xlink:href="#hd"/>
<path d="M407.24 110.00v21.20" class="stroke"/>
<use x="427.34" y="98.00" xlink:href="#hd"/>
<path d="M423.84 98.00v31.90" class="stroke"/>
<path class="fill"
	d="M460.24 127.00l73.60 0.00v-3.20l-73.60 -0.00"/>
<path class="fill"
	d="M483.94 122.00l49.60 0.00v-3.20l-49.60 -0.00"/>
<use x="464.14" y="101.00" xlink:href="#hd"/>
<defs>
<path id="usharp" class="fill" d="
	m136 -702
	v890
	h32
	v-890
	m128 840
	h32
	v-888
	h-32
	m-232 286
	v116
	l338 -96
	v-116
	m-338 442
	v116
	l338 -98
	v-114"/>
<use id="sh0" transform="translate(-4,5) scale(0.018)"
	xlink:href="#usharp"/>
</defs>
<use x="455.14" y="101.00" xlink:href="#sh0"/>
<path d="M460.64 101.00v25.00" class="stroke"/>
<use x="487.44" y="95.00" xlink:href="#hl"/>
<use x="487.44" y="95.00" xlink:href="#hd"/>
<path d="M483.94 95.00v31.00" class="stroke"/>
<use x="503.94" y="101.00" xlink:href="#hd"/>
<path d="M500.44 101.00v25.00" class="stroke"/>
<use x="520.54" y="107.00" xlink:href="#hd"/>
<path d="M517.04 107.00v19.00" class="stroke"/>
<use x="537.04" y="101.00" xlink:href="#hd"/>
<path d="M533.54 101.00v25.00" class="stroke"/>
<path class="fill"
	d="M559.44 121.30l68.30 4.90v-3.20l-68.30 -4.90"/>
<path class="fill"
	d="M559.74 116.30l51.10 3.70v-3.20l-51.10 -3.70"/>
<use x="563.24" y="95.00" xlink:href="#hl"/>
<use x="563.24" y="95.00" xlink:href="#hd"/>
<path d="M559.74 95.00v25.30" class="stroke"/>
<use x="579.84" y="98.00" xlink:href="#hd"/>
<path d="M576.34 98.00v23.50" class="stroke"/>
<use x="597.84" y="101.00" xlink:href="#hd"/>
<use x="588.84" y="101.00" xlink:href="#sh0"/>
<path d="M594.34 101.00v21.80" class="stroke"/>
<use x="614.34" y="98.00" xlink:href="#hd"/>
<path d="M610.84 98.00v26.00" class="stroke"/>
<use x="630.94" y="107.00" xlink:href="#hd"/>
<path d="M627.44 107.00v18.20" class="stroke"/>
<path class="fill"
	d="M658.54 138.20l84.90 0.00v-3.20l-84.90 -0.00"/>
<path class="fill"
	d="M658.94 133.20l84.20 0.00v-3.20l-84.20 -0.00"/>
<use x="662.44" y="104.00" xlink:href="#hd"/>
<path d="M658.94 104.00v33.20" class="stroke"/>
<use x="678.94" y="98.00" xlink:href="#hd"/>
<path d="M675.44 98.00v39.20" class="stroke"/>
<use x="695.54" y="107.00" xlink:href="#hd"/>
<path d="M692.04 107.00v30.20" class="stroke"/>
<use x="712.04" y="98.00" xlink:href="#hd"/>
<path d="M708.54 98.00v39.20" class="stroke"/>
<use x="728.64" y="116.00" xlink:href="#hd"/>
<path d="M725.14 116.00v21.20" class="stroke"/>
<use x="746.64" y="101.00" xlink:href="#hd"/>
<use x="737.64" y="101.00" xlink:href="#sh0"/>
<path d="M743.14 101.00v36.20" class="stroke"/>
<use x="772.84" y="98.00" xlink:href="#hd"/>
<path d="M769.34 98.00v40.00" class="stroke"/>
<use x="772.84" y="119.00" xlink:href="#hd"/>
<use x="772.84" y="113.00" xlink:href="#hd"/>
<use x="772.84" y="107.00" xlink:href="#hd"/>
<defs>
<path id="r8e" class="fill" d="m 0 0
	c-1.5 1.5 -2.4 2 -3.6 2
	2.4 -2.8 -2.8 -4 -2.8 -1.2
	c0 2.7 4.3 2.4 5.9 0.6"/>
<g id="r8">
	<path d="m3.3 -4l-3.4 9.6" class="stroke"/>
	<use x="3.4" y="-4" xlink:href="#r8e"/>
</g>
</defs>
<use x="830.64" y="113.00" xlink:href="#r8"/>
<defs>
<path id="ubclef" class="fill" d="m-200 -87
	c124 -35 222 -78 254 -236
	43 -228 -167 -246 -192 -103
	59 -80 157 22 92 78
	-62 47 -115 -22 -106 -88
	21 -141 270 -136 274 52
	-1 175 -106 264 -322 297
	m357 -250
	c0 -36 51 -34 51 0
	0 37 -51 36 -51 0
	m-2 -129
	c0 -36 51 -34 51 0
	0 38 -51 37 -51 0"/>
<use id="bclef" transform="translate(0,18) scale(0.045)"
	xlink:href="#ubclef"/>
</defs>
<use x="23.54" y="165.00" xlink:href="#bclef"/>
<g font-family="serif" font-size="16" font-weight="bold" font-style="normal"
	transform="translate(42.04,182.50) scale(1.2,1)">
	<text text-anchor="middle">8</text>
	<text y="-12" text-anchor="middle">3</text>
</g>
<use x="84.74" y="168.00" xlink:href="#hd"/>
<path d="M81.24 168.00v25.00" class="stroke"/>
<use x="84.74" y="174.00" xlink:href="#hd"/>
<use x="131.34" y="171.00" xlink:href="#r8"/>
<use x="162.84" y="174.00" xlink:href="#hd"/>
<path d="M166.34 174.00v-21.00" class="stroke"/>
<use x="228.94" y="171.00" xlink:href="#r8"/>
<use x="271.74" y="162.00" xlink:href="#hd"/>
<path d="M268.24 162.00v21.00" class="stroke"/>
<use x="328.14" y="171.00" xlink:href="#r8"/>
<use x="370.94" y="162.00" xlink:href="#hd"/>
<path d="M367.44 162.00v25.00" class="stroke"/>
<use x="370.94" y="168.00" xlink:href="#hd"/>
<use x="427.34" y="171.00" xlink:href="#r8"/>
<use x="464.14" y="174.00" xlink:href="#hd"/>
<path d="M467.64 174.00v-21.00" class="stroke"/>
<use x="520.54" y="171.00" xlink:href="#r8"/>
<path class="fill"
	d="M566.44 149.50l68.30 -4.70v3.20l-68.30 4.70"/>
<use x="563.24" y="177.00" xlink:href="#hd"/>
<path d="M566.74 177.00v-26.60" class="stroke"/>
<use x="563.24" y="171.00" xlink:href="#hd"/>
<use x="597.84" y="177.00" xlink:href="#hd"/>
<path d="M601.34 177.00v-28.90" class="stroke"/>
<use x="597.84" y="171.00" xlink:href="#hd"/>
<use x="630.94" y="177.00" xlink:href="#hd"/>
<path d="M634.44 177.00v-31.20" class="stroke"/>
<use x="630.94" y="162.00" xlink:href="#hd"/>
<path class="fill"
	d="M665.54 147.70l66.90 8.20v3.20l-66.90 -8.20"/>
<use x="662.44" y="174.00" xlink:href="#hd"/>
<path d="M665.94 174.00v-25.30" class="stroke"/>
<use x="695.54" y="171.00" xlink:href="#hd"/>
<path d="M699.04 171.00v-18.20" class="stroke"/>
<use x="728.64" y="189.00" xlink:href="#hl"/>
<use x="728.64" y="192.00" xlink:href="#hd"/>
<path d="M732.14 192.00v-35.10" class="stroke"/>
<path class="fill"
	d="M768.94 202.20l75.10 0.00v-3.20l-75.10 -0.00"/>
<path class="fill"
	d="M792.64 197.20l51.10 0.00v-3.20l-51.10 -0.00"/>
<use x="772.84" y="183.00" xlink:href="#hd"/>
<path d="M769.34 183.00v18.20" class="stroke"/>
<use x="796.14" y="162.00" xlink:href="#hd"/>
<path d="M792.64 162.00v39.20" class="stroke"/>
<use x="814.14" y="165.00" xlink:href="#hd"/>
<defs>
<path id="unat" class="fill" d="
	m96 -750
	h-32
	v716
	l32 -8
	182 -54
	v282
	h32
	v-706
	l-34 10
	-180 50
	v-290
	m0 592
	v-190
	l182 -52
	v188"/>
<use id="nt0" transform="translate(-3,5) scale(0.018)"
	xlink:href="#unat"/>
</defs>
<use x="805.14" y="165.00" xlink:href="#nt0"/>
<path d="M810.64 165.00v36.20" class="stroke"/>
<use x="830.64" y="168.00" xlink:href="#hd"/>
<path d="M827.14 168.00v33.20" class="stroke"/>
<use x="847.24" y="171.00" xlink:href="#hd"/>
<path d="M843.74 171.00v30.20" class="stroke"/>
</g>
<g stroke-width="0.70" transform="scale(0.867)" font-family="Times" font-size="13.00">
<path class="stroke" stroke-width="1"
	d="M11.54 316.00v-82.00"/>
<path class="fill"
	d="M6.54 231.00
	c10.5 1 12 -4.5 12 -3.5c0 1 -3.5 5.5 -8.5 5.5
	v84.00
	c5 0 8.5 4.5 8.5 5.5c0 1 -1.5 -4.5 -12 -3.5"/>
<use x="142.74" y="258.00" xlink:href="#rdots"/>
<path class="stroke" stroke-width="1"
	d="M138.74 258.00v-24.00"/>
<path class="stroke" stroke-width="3"
	d="M134.24 258.00v-24.00"/>
<use x="142.74" y="316.00" xlink:href="#rdots"/>
<path class="stroke" stroke-width="1"
	d="M138.74 316.00v-58.00"/>
<path class="stroke" stroke-width="3"
	d="M134.24 316.00v-58.00"/>
<path class="stroke" stroke-width="1"
	d="M229.84 258.00v-24.00"/>
<path class="stroke" stroke-width="1"
	d="M229.84 316.00v-58.00"/>
<path class="stroke" stroke-width="1"
	d="M327.54 258.00v-24.00"/>
<path class="stroke" stroke-width="1"
	d="M327.54 316.00v-58.00"/>
<path class="stroke" stroke-width="1"
	d="M405.44 258.00v-24.00"/>
<path class="stroke" stroke-width="1"
	d="M405.44 316.00v-58.00"/>
<path class="stroke" stroke-width="1"
	d="M492.34 258.00v-24.00"/>
<path class="stroke" stroke-width="1"
	d="M492.34 316.00v-58.00"/>
<path class="stroke" stroke-width="1"
	d="M589.94 258.00v-24.00"/>
<path class="stroke" stroke-width="1"
	d="M589.94 316.00v-58.00"/>
<path class="stroke" stroke-width="1"
	d="M687.54 258.00v-24.00"/>
<path class="stroke" stroke-width="1"
	d="M687.54 316.00v-58.00"/>
<path class="stroke" stroke-width="1"
	d="M788.74 258.00v-24.00"/>
<path class="stroke" stroke-width="1"
	d="M788.74 316.00v-58.00"/>
<path class="stroke" stroke-width="3"
	d="M860.54 258.00v-24.00"/>
<path class="stroke" stroke-width="1"
	d="M856.04 258.00v-24.00"/>
<use x="852.04" y="258.00" xlink:href="#rdots"/>
<path class="stroke" stroke-width="3"
	d="M860.54 316.00v-58.00"/>
<path class="stroke" stroke-width="1"
	d="M856.04 316.00v-58.00"/>
<use x="852.04" y="316.00" xlink:href="#rdots"/>
<path d="m11.54 258.00
	h850.50
	M11.54 252.00
	h850.50
	M11.54 246.00
	h850.50
	M11.54 240.00
	h850.50
	M11.54 234.00
	h850.50
	" class="stroke"/>
<path d="m11.54 316.00
	h850.50
	M11.54 310.00
	h850.50
	M11.54 304.00
	h850.50
	M11.54 298.00
	h850.50
	M11.54 292.00
	h850.50
	" class="stroke"/>
<path class="fill"
	d="M700.04 234.00c2.76 -3.95 14.74 -4.43 17.50 -0.70
	v-0.22c-3.28 -5.51 -14.22 -5.03 -17.50 0.92"/>
<text x="47.54" y="219.40">2</text>
<path class="stroke"
	d="M43.54 208.00m0 20v-20h88.20v20"/>
<use x="23.54" y="252.00" xlink:href="#tclef"/>
<use x="56.04" y="231.00" xlink:href="#hd"/>
<path d="M52.54 231.00v40.00" class="stroke"/>
<use x="56.04" y="252.00" xlink:href="#hd"/>
<use x="56.04" y="246.00" xlink:href="#hd"/>
<use x="56.04" y="240.00" xlink:href="#hd"/>
<use x="108.74" y="246.00" xlink:href="#r8"/>
<path class="fill"
	d="M158.44 262.60l29.70 5.70v-3.20l-29.70 -5.70"/>
<path class="fill"
	d="M158.74 257.60l14.50 2.80v-3.20l-14.50 -2.80"/>
<use x="162.24" y="234.00" xlink:href="#hd"/>
<use x="153.24" y="234.00" xlink:href="#sh0"/>
<path d="M158.74 234.00v27.60" class="stroke"/>
<use x="176.84" y="240.00" xlink:href="#hd"/>
<path d="M173.34 240.00v24.40" class="stroke"/>
<use x="191.34" y="249.00" xlink:href="#hd"/>
<path d="M187.84 249.00v18.20" class="stroke"/>
<use x="213.64" y="234.00" xlink:href="#hd"/>
<path d="M210.14 234.00v21.00" class="stroke"/>
<path class="fill"
	d="M210.14 255.00c0.6 -5.6 9.6 -9 5.6 -18.4
	1.6 6 -1.3 11.6 -5.6 12.8
"/>
<path class="fill"
	d="M238.54 260.00l73.30 0.00v-3.20l-73.30 -0.00"/>
<path class="fill"
	d="M238.84 255.00l72.60 0.00v-3.20l-72.60 -0.00"/>
<use x="242.34" y="228.00" xlink:href="#hl"/>
<use x="242.34" y="228.00" xlink:href="#hd"/>
<path d="M238.84 228.00v31.00" class="stroke"/>
<use x="256.94" y="231.00" xlink:href="#hd"/>
<path d="M253.44 231.00v28.00" class="stroke"/>
<use x="271.44" y="228.00" xlink:href="#hl"/>
<use x="271.44" y="225.00" xlink:href="#hd"/>
<path d="M267.94 225.00v34.00" class="stroke"/>
<use x="285.94" y="231.00" xlink:href="#hd"/>
<path d="M282.44 231.00v28.00" class="stroke"/>
<use x="300.44" y="240.00" xlink:href="#hd"/>
<path d="M296.94 240.00v19.00" class="stroke"/>
<use x="315.04" y="231.00" xlink:href="#hd"/>
<path d="M311.54 231.00v28.00" class="stroke"/>
<path class="fill"
	d="M336.14 260.00l49.90 0.00v-3.20l-49.90 -0.00"/>
<path class="fill"
	d="M356.64 255.00l14.50 0.00v-3.20l-14.50 -0.00"/>
<use x="340.04" y="237.00" xlink:href="#hd"/>
<path d="M336.54 237.00v22.00" class="stroke"/>
<use x="360.14" y="231.00" xlink:href="#hd"/>
<path d="M356.64 231.00v28.00" class="stroke"/>
<use x="374.74" y="237.00" xlink:href="#hd"/>
<path d="M371.24 237.00v22.00" class="stroke"/>
<use x="389.24" y="243.00" xlink:href="#hd"/>
<path d="M385.74 243.00v16.00" class="stroke"/>
<path class="fill"
	d="M414.14 262.20l58.80 5.40v-3.20l-58.80 -5.40"/>
<path class="fill"
	d="M414.44 257.20l43.60 4.00v-3.20l-43.60 -4.00"/>
<use x="417.94" y="240.00" xlink:href="#hd"/>
<path d="M414.44 240.00v21.20" class="stroke"/>
<use x="432.54" y="228.00" xlink:href="#hl"/>
<use x="432.54" y="225.00" xlink:href="#hd"/>
<path d="M429.04 225.00v37.50" class="stroke"/>
<use x="447.04" y="231.00" xlink:href="#hd"/>
<path d="M443.54 231.00v32.80" class="stroke"/>
<use x="461.54" y="240.00" xlink:href="#hd"/>
<path d="M458.04 240.00v25.20" class="stroke"/>
<use x="476.04" y="246.00" xlink:href="#hd"/>
<path d="M472.54 246.00v20.50" class="stroke"/>
<path class="fill"
	d="M501.04 260.60l58.80 3.20v-3.20l-58.80 -3.20"/>
<use x="504.84" y="231.00" xlink:href="#hd"/>
<path d="M501.34 231.00v28.60" class="stroke"/>
<use x="533.84" y="243.00" xlink:href="#hd"/>
<path d="M530.34 243.00v18.20" class="stroke"/>
<use x="562.94" y="237.00" xlink:href="#hd"/>
<path d="M559.44 237.00v25.80" class="stroke"/>
<path class="fill"
	d="M598.64 274.20l73.30 0.00v-3.20l-73.30 -0.00"/>
<path class="fill"
	d="M598.94 269.20l72.60 0.00v-3.20l-72.60 -0.00"/>
<use x="602.44" y="243.00" xlink:href="#hd"/>
<path d="M598.94 243.00v30.20" class="stroke"/>
<use x="616.94" y="246.00" xlink:href="#hd"/>
<path d="M613.44 246.00v27.20" class="stroke"/>
<use x="631.54" y="243.00" xlink:href="#hd"/>
<path d="M628.04 243.00v30.20" class="stroke"/>
<use x="646.04" y="237.00" xlink:href="#hd"/>
<path d="M642.54 237.00v36.20" class="stroke"/>
<use x="660.54" y="252.00" xlink:href="#hd"/>
<path d="M657.04 252.00v21.20" class="stroke"/>
<use x="675.04" y="243.00" xlink:href="#hd"/>
<path d="M671.54 243.00v30.20" class="stroke"/>
<path class="fill"
	d="M696.24 274.20l76.80 0.00v-3.20l-76.80 -0.00"/>
<path class="fill"
	d="M696.54 269.20l76.10 0.00v-3.20l-76.10 -0.00"/>
<use x="700.04" y="240.00" xlink:href="#hd"/>
<path d="M696.54 240.00v33.20" class="stroke"/>
<use x="718.04" y="243.00" xlink:href="#hd"/>
<use x="709.04" y="243.00" xlink:href="#sh0"/>
<path d="M714.54 243.00v30.20" class="stroke"/>
<use x="732.64" y="240.00" xlink:href="#hd"/>
<path d="M729.14 240.00v33.20" class="stroke"/>
<use x="747.14" y="234.00" xlink:href="#hd"/>
<path d="M743.64 234.00v39.20" class="stroke"/>
<use x="761.64" y="252.00" xlink:href="#hd"/>
<path d="M758.14 252.00v21.20" class="stroke"/>
<use x="776.24" y="246.00" xlink:href="#hd"/>
<path d="M772.74 246.00v27.20" class="stroke"/>
<use x="801.24" y="243.00" xlink:href="#hd"/>
<path d="M797.74 243.00v21.00" class="stroke"/>
<use x="841.54" y="246.00" xlink:href="#r8"/>
<use x="23.54" y="298.00" xlink:href="#bclef"/>
<path class="fill"
	d="M52.24 335.20l67.90 -5.00v-3.20l-67.90 5.00"/>
<path class="fill"
	d="M72.74 328.70l47.10 -3.40v-3.20l-47.10 3.40"/>
<use x="56.04" y="316.00" xlink:href="#hd"/>
<path d="M52.54 316.00v18.20" class="stroke"/>
<use x="76.24" y="289.00" xlink:href="#hd"/>
<path d="M72.74 289.00v43.70" class="stroke"/>
<use x="90.74" y="295.00" xlink:href="#hd"/>
<path d="M87.24 295.00v36.70" class="stroke"/>
<use x="108.74" y="298.00" xlink:href="#hd"/>
<use x="99.74" y="298.00" xlink:href="#sh0"/>
<path d="M105.24 298.00v32.40" class="stroke"/>
<use x="123.24" y="301.00" xlink:href="#hd"/>
<path d="M119.74 301.00v28.30" class="stroke"/>
<use x="162.24" y="292.00" xlink:href="#hd"/>
<path d="M158.74 292.00v34.00" class="stroke"/>
<use x="162.24" y="307.00" xlink:href="#hd"/>
<use x="213.64" y="292.00" xlink:href="#hd"/>
<path d="M210.14 292.00v34.00" class="stroke"/>
<path class="fill"
	d="M210.14 326.00c0.6 -5.6 9.6 -9 5.6 -18.4
	1.6 6 -1.3 11.6 -5.6 12.8
"/>
<use x="213.64" y="307.00" xlink:href="#hd"/>
<use x="242.34" y="310.00" xlink:href="#hd"/>
<path d="M245.84 310.00v-25.00" class="stroke"/>
<use x="242.34" y="304.00" xlink:href="#hd"/>
<use x="300.44" y="310.00" xlink:href="#hd"/>
<path d="M303.94 310.00v-25.00" class="stroke"/>
<path class="fill"
	d="M303.94 285.00c0.6 5.6 9.6 9 5.6 18.4
	1.6 -6 -1.3 -11.6 -5.6 -12.8
"/>
<use x="300.44" y="304.00" xlink:href="#hd"/>
<use x="340.04" y="295.00" xlink:href="#hd"/>
<path d="M336.54 295.00v31.00" class="stroke"/>
<use x="340.04" y="307.00" xlink:href="#hd"/>
<use x="389.24" y="301.00" xlink:href="#hd"/>
<path d="M385.74 301.00v25.00" class="stroke"/>
<path class="fill"
	d="M385.74 326.00c0.6 -5.6 9.6 -9 5.6 -18.4
	1.6 6 -1.3 11.6 -5.6 12.8
"/>
<use x="389.24" y="307.00" xlink:href="#hd"/>
<use x="417.94" y="289.00" xlink:href="#hd"/>
<path d="M414.44 289.00v25.00" class="stroke"/>
<use x="417.94" y="295.00" xlink:href="#hd"/>
<use x="476.04" y="304.00" xlink:href="#r8"/>
<path class="fill"
	d="M501.04 323.90l73.30 0.00v-3.20l-73.30 -0.00"/>
<path class="fill"
	d="M501.34 318.90l72.60 0.00v-3.20l-72.60 -0.00"/>
<use x="504.84" y="301.00" xlink:href="#hd"/>
<path d="M501.34 301.00v21.90" class="stroke"/>
<use x="504.84" y="307.00" xlink:href="#hd"/>
<use x="519.34" y="295.00" xlink:href="#hd"/>
<path d="M515.84 295.00v27.90" class="stroke"/>
<use x="533.84" y="301.00" xlink:href="#hd"/>
<path d="M530.34 301.00v21.90" class="stroke"/>
<use x="533.84" y="307.00" xlink:href="#hd"/>
<use x="548.44" y="295.00" xlink:href="#hd"/>
<path d="M544.94 295.00v27.90" class="stroke"/>
<use x="562.94" y="301.00" xlink:href="#hd"/>
<path d="M559.44 301.00v21.90" class="stroke"/>
<use x="562.94" y="307.00" xlink:href="#hd"/>
<use x="577.44" y="295.00" xlink:href="#hd"/>
<path d="M573.94 295.00v27.90" class="stroke"/>
<use x="602.44" y="301.00" xlink:href="#hd"/>
<path d="M598.94 301.00v25.00" class="stroke"/>
<use x="602.44" y="307.00" xlink:href="#hd"/>
<use x="660.54" y="301.00" xlink:href="#hd"/>
<path d="M657.04 301.00v25.00" class="stroke"/>
<path class="fill"
	d="M657.04 326.00c0.6 -5.6 9.6 -9 5.6 -18.4
	1.6 6 -1.3 11.6 -5.6 12.8
"/>
<use x="660.54" y="307.00" xlink:href="#hd"/>
<use x="700.04" y="298.00" xlink:href="#hd"/>
<path d="M696.54 298.00v21.00" class="stroke"/>
<use x="761.64" y="295.00" xlink:href="#hd"/>
<path d="M758.14 295.00v21.00" class="stroke"/>
<path class="fill"
	d="M758.14 316.00c0.6 -5.6 9.6 -9 5.6 -18.4
	1.6 6 -1.3 11.6 -5.6 12.8
"/>
<path class="fill"
	d="M804.34 287.70l41.00 9.70v3.20l-41.00 -9.70"/>
<use x="801.24" y="307.00" xlink:href="#hd"/>
<path d="M804.74 307.00v-18.20" class="stroke"/>
<use x="821.34" y="316.00" xlink:href="#hd"/>
<path d="M824.84 316.00v-22.40" class="stroke"/>
<use x="841.54" y="322.00" xlink:href="#hl"/>
<use x="841.54" y="328.00" xlink:href="#hl"/>
<use x="841.54" y="328.00" xlink:href="#hd"/>
<path d="M845.04 328.00v-29.70" class="stroke"/>
</g>
</svg>
