<?xml version="1.0" standalone="no"?>
<!DOCTYPE svg PUBLIC "-//W3C//DTD SVG 1.1//EN"
	"http://www.w3.org/Graphics/SVG/1.1/DTD/svg11.dtd">
<svg xmlns="http://www.w3.org/2000/svg" version="1.1"
	xmlns:xlink="http://www.w3.org/1999/xlink"
	color="black"
	width="757.10px" height="300.73px">
<style type="text/css">
.fill {fill: currentColor}
.stroke {stroke: currentColor; fill: none}
text{white-space: pre}
</style>
<title>./K516f-6-5-8-2-8-6-6-6-9-9-2-5-3-3-6-9.abc (1415) tune 1</title>
<!-- Creator: abcm2ps-8.13.8 -->
<!-- CreationDate: Sep  7, 2017 11:18 -->
<!-- CommandLine: ./K516f-6-5-8-2-8-6-6-6-9-9-2-5-3-3-6-9.abc -O ./K516f-6-5-8-2-8-6-6-6-9-9-2-5-3-3-6-9.svg -g -->
<rect width="100%" height="100%" fill="white"/>
<g stroke-width="0.70" transform="scale(0.867)">
<!-- title: 6-5-8-2-8-6-6-6-9-9-2-5-3-3-6-9 -->
</g>
<g stroke-width="0.70" transform="scale(0.867)" font-family="Times" font-size="20.00">
<text x="436.84" y="22.00" text-anchor="middle">6-5-8-2-8-6-6-6-9-9-2-5-3-3-6-9</text>
</g>
<g stroke-width="0.70" transform="scale(0.867)" font-family="Times" font-size="20.00">
<!-- subtitle: $1K.516f::148:17:171:41:99:97:36:107:120:88:26:34:174:18:1:111::$0 -->
</g>
<g stroke-width="0.70" transform="scale(0.867)" font-family="Courier" font-size="8.00" font-weight="bold">
<text x="436.84" y="41.80" text-anchor="middle">K.516f::148:17:171:41:99:97:36:107:120:88:26:34:174:18:1:111::</text>
</g>
<g stroke-width="0.70" transform="scale(0.867)" font-family="Courier" font-size="8.00" font-weight="bold">
<!-- subtitle: $1Perm. No.: 141594045638281$0 -->
<text x="436.84" y="60.80" text-anchor="middle">Perm. No.: 141594045638281</text>
</g>
<g stroke-width="0.70" transform="scale(0.607)" font-family="Courier" font-size="8.00" font-weight="bold">
<defs>
<ellipse id="hd" rx="4.1" ry="2.9"
	transform="rotate(-20)" class="fill"/>
</defs>
<use x="103.06" y="121.29" xlink:href="#hd"/>
<path d="M106.56 121.29v-21.00" class="stroke"/>
<path class="fill"
	d="M106.56 100.29c0.6 5.6 9.6 9 5.6 18.4
	1.6 -6 -1.3 -11.6 -5.6 -12.8
"/>
</g>
<g stroke-width="0.70" transform="scale(0.867)" font-family="Times" font-size="15.00" font-weight="bold">
<text x="81.24" y="87.00">= 111</text>
<path class="stroke" stroke-width="1"
	d="M11.54 191.00v-82.00"/>
<path class="fill"
	d="M6.54 106.00
	c10.5 1 12 -4.5 12 -3.5c0 1 -3.5 5.5 -8.5 5.5
	v84.00
	c5 0 8.5 4.5 8.5 5.5c0 1 -1.5 -4.5 -12 -3.5"/>
<defs>
<g id="rdots" class="fill">
	<circle cx="0" cy="-9" r="1.2"/>
	<circle cx="0" cy="-15" r="1.2"/>
</g>
</defs>
<use x="70.54" y="133.00" xlink:href="#rdots"/>
<path class="stroke" stroke-width="1"
	d="M66.54 133.00v-24.00"/>
<path class="stroke" stroke-width="3"
	d="M62.04 133.00v-24.00"/>
<use x="70.54" y="191.00" xlink:href="#rdots"/>
<path class="stroke" stroke-width="1"
	d="M66.54 191.00v-58.00"/>
<path class="stroke" stroke-width="3"
	d="M62.04 191.00v-58.00"/>
<path class="stroke" stroke-width="1"
	d="M174.84 133.00v-24.00"/>
<path class="stroke" stroke-width="1"
	d="M174.84 191.00v-58.00"/>
<path class="stroke" stroke-width="1"
	d="M278.04 133.00v-24.00"/>
<path class="stroke" stroke-width="1"
	d="M278.04 191.00v-58.00"/>
<path class="stroke" stroke-width="1"
	d="M381.24 133.00v-24.00"/>
<path class="stroke" stroke-width="1"
	d="M381.24 191.00v-58.00"/>
<path class="stroke" stroke-width="1"
	d="M473.54 133.00v-24.00"/>
<path class="stroke" stroke-width="1"
	d="M473.54 191.00v-58.00"/>
<path class="stroke" stroke-width="1"
	d="M553.14 133.00v-24.00"/>
<path class="stroke" stroke-width="1"
	d="M553.14 191.00v-58.00"/>
<path class="stroke" stroke-width="1"
	d="M658.74 133.00v-24.00"/>
<path class="stroke" stroke-width="1"
	d="M658.74 191.00v-58.00"/>
<path class="stroke" stroke-width="1"
	d="M764.24 133.00v-24.00"/>
<path class="stroke" stroke-width="1"
	d="M764.24 191.00v-58.00"/>
<path class="stroke" stroke-width="3"
	d="M860.54 133.00v-24.00"/>
<path class="stroke" stroke-width="1"
	d="M856.04 133.00v-24.00"/>
<use x="852.04" y="133.00" xlink:href="#rdots"/>
<path class="stroke" stroke-width="3"
	d="M860.54 191.00v-58.00"/>
<path class="stroke" stroke-width="1"
	d="M856.04 191.00v-58.00"/>
<use x="852.04" y="191.00" xlink:href="#rdots"/>
<path d="m11.54 133.00
	h850.50
	M11.54 127.00
	h850.50
	M11.54 121.00
	h850.50
	M11.54 115.00
	h850.50
	M11.54 109.00
	h850.50
	" class="stroke"/>
<path d="m11.54 191.00
	h850.50
	M11.54 185.00
	h850.50
	M11.54 179.00
	h850.50
	M11.54 173.00
	h850.50
	M11.54 167.00
	h850.50
	" class="stroke"/>
</g>
<g stroke-width="0.70" transform="scale(0.867)" font-family="Times" font-size="13.00">
<text x="768.24" y="94.40">1</text>
<path class="stroke"
	d="M764.24 83.00m0 20v-20h89.80v20"/>
<defs>
<path id="utclef" class="fill" d="m-50 -90
	c-72 -41 -72 -158 52 -188
	150 -10 220 188 90 256
	-114 52 -275 0 -293 -136
	-15 -181 93 -229 220 -334
	88 -87 79 -133 62 -210
	-51 33 -94 105 -89 186
	17 267 36 374 49 574
	6 96 -19 134 -77 135
	-80 1 -126 -93 -61 -133
	85 -41 133 101 31 105
	23 17 92 37 90 -92
	-10 -223 -39 -342 -50 -617
	0 -90 0 -162 96 -232
	56 72 63 230 22 289
	-74 106 -257 168 -255 316
	9 153 148 185 252 133
	86 -65 29 -192 -80 -176
	-71 12 -105 67 -59 124"/>
<use id="tclef" transform="translate(0,6) scale(0.045)"
	xlink:href="#utclef"/>
</defs>
<use x="23.54" y="127.00" xlink:href="#tclef"/>
<g font-family="serif" font-size="16" font-weight="bold" font-style="normal"
	transform="translate(42.04,132.50) scale(1.2,1)">
	<text text-anchor="middle">8</text>
	<text y="-12" text-anchor="middle">3</text>
</g>
<path class="fill"
	d="M80.24 130.80l78.90 9.50v-3.20l-78.90 -9.50"/>
<path class="fill"
	d="M80.64 125.80l78.20 9.40v-3.20l-78.20 -9.40"/>
<defs>
<path id="hl" class="stroke" d="m-6 0h12"/>
</defs>
<use x="84.14" y="103.00" xlink:href="#hl"/>
<use x="84.14" y="97.00" xlink:href="#hl"/>
<use x="84.14" y="97.00" xlink:href="#hd"/>
<path d="M80.64 97.00v32.80" class="stroke"/>
<use x="99.84" y="103.00" xlink:href="#hl"/>
<use x="99.84" y="100.00" xlink:href="#hd"/>
<path d="M96.34 100.00v31.70" class="stroke"/>
<use x="115.54" y="103.00" xlink:href="#hl"/>
<use x="115.54" y="97.00" xlink:href="#hl"/>
<use x="115.54" y="97.00" xlink:href="#hd"/>
<path d="M112.04 97.00v36.60" class="stroke"/>
<use x="131.14" y="106.00" xlink:href="#hd"/>
<path d="M127.64 106.00v29.50" class="stroke"/>
<use x="146.74" y="112.00" xlink:href="#hd"/>
<path d="M143.24 112.00v25.30" class="stroke"/>
<use x="162.34" y="118.00" xlink:href="#hd"/>
<path d="M158.84 118.00v21.20" class="stroke"/>
<path class="fill"
	d="M183.64 149.20l78.80 0.00v-3.20l-78.80 -0.00"/>
<path class="fill"
	d="M183.94 144.20l78.10 0.00v-3.20l-78.10 -0.00"/>
<use x="187.44" y="118.00" xlink:href="#hd"/>
<path d="M183.94 118.00v30.20" class="stroke"/>
<use x="203.04" y="127.00" xlink:href="#hd"/>
<path d="M199.54 127.00v21.20" class="stroke"/>
<use x="218.74" y="118.00" xlink:href="#hd"/>
<path d="M215.24 118.00v30.20" class="stroke"/>
<use x="234.34" y="112.00" xlink:href="#hd"/>
<path d="M230.84 112.00v36.20" class="stroke"/>
<use x="249.94" y="127.00" xlink:href="#hd"/>
<path d="M246.44 127.00v21.20" class="stroke"/>
<use x="265.54" y="118.00" xlink:href="#hd"/>
<path d="M262.04 118.00v30.20" class="stroke"/>
<path class="fill"
	d="M286.74 140.90l78.80 0.00v-3.20l-78.80 -0.00"/>
<path class="fill"
	d="M287.14 135.90l78.10 0.00v-3.20l-78.10 -0.00"/>
<use x="290.64" y="121.00" xlink:href="#hd"/>
<path d="M287.14 121.00v18.90" class="stroke"/>
<use x="306.24" y="118.00" xlink:href="#hd"/>
<path d="M302.74 118.00v21.90" class="stroke"/>
<use x="321.84" y="115.00" xlink:href="#hd"/>
<path d="M318.34 115.00v24.90" class="stroke"/>
<use x="337.44" y="112.00" xlink:href="#hd"/>
<path d="M333.94 112.00v27.90" class="stroke"/>
<use x="353.04" y="109.00" xlink:href="#hd"/>
<path d="M349.54 109.00v30.90" class="stroke"/>
<use x="368.74" y="115.00" xlink:href="#hd"/>
<path d="M365.24 115.00v24.90" class="stroke"/>
<path class="fill"
	d="M389.94 146.20l63.10 0.00v-3.20l-63.10 -0.00"/>
<path class="fill"
	d="M390.24 141.20l46.80 0.00v-3.20l-46.80 -0.00"/>
<use x="393.74" y="118.00" xlink:href="#hd"/>
<path d="M390.24 118.00v27.20" class="stroke"/>
<use x="409.44" y="121.00" xlink:href="#hd"/>
<path d="M405.94 121.00v24.20" class="stroke"/>
<use x="425.04" y="118.00" xlink:href="#hd"/>
<path d="M421.54 118.00v27.20" class="stroke"/>
<use x="440.64" y="112.00" xlink:href="#hd"/>
<path d="M437.14 112.00v33.20" class="stroke"/>
<use x="456.24" y="127.00" xlink:href="#hd"/>
<path d="M452.74 127.00v18.20" class="stroke"/>
<path class="fill"
	d="M488.24 131.10l44.40 3.10v-3.20l-44.40 -3.10"/>
<use x="492.04" y="109.00" xlink:href="#hd"/>
<defs>
<path id="usharp" class="fill" d="
	m136 -702
	v890
	h32
	v-890
	m128 840
	h32
	v-888
	h-32
	m-232 286
	v116
	l338 -96
	v-116
	m-338 442
	v116
	l338 -98
	v-114"/>
<use id="sh0" transform="translate(-4,5) scale(0.018)"
	xlink:href="#usharp"/>
</defs>
<use x="483.04" y="109.00" xlink:href="#sh0"/>
<path d="M488.54 109.00v21.10" class="stroke"/>
<use x="513.94" y="103.00" xlink:href="#hl"/>
<use x="513.94" y="103.00" xlink:href="#hd"/>
<path d="M510.44 103.00v28.70" class="stroke"/>
<use x="535.84" y="115.00" xlink:href="#hd"/>
<path d="M532.34 115.00v18.20" class="stroke"/>
<path class="fill"
	d="M561.94 139.40l81.10 9.80v-3.20l-81.10 -9.80"/>
<path class="fill"
	d="M562.24 134.40l80.50 9.80v-3.20l-80.50 -9.80"/>
<use x="565.74" y="106.00" xlink:href="#hd"/>
<path d="M562.24 106.00v32.40" class="stroke"/>
<use x="583.74" y="109.00" xlink:href="#hd"/>
<use x="574.74" y="109.00" xlink:href="#sh0"/>
<path d="M580.24 109.00v31.60" class="stroke"/>
<use x="599.34" y="106.00" xlink:href="#hd"/>
<path d="M595.84 106.00v36.50" class="stroke"/>
<use x="614.94" y="115.00" xlink:href="#hd"/>
<path d="M611.44 115.00v29.40" class="stroke"/>
<use x="630.64" y="121.00" xlink:href="#hd"/>
<path d="M627.14 121.00v25.30" class="stroke"/>
<use x="646.24" y="127.00" xlink:href="#hd"/>
<path d="M642.74 127.00v21.20" class="stroke"/>
<path class="fill"
	d="M667.44 146.20l81.10 -8.30v-3.20l-81.10 8.30"/>
<path class="fill"
	d="M667.84 141.20l80.50 -8.30v-3.20l-80.50 8.30"/>
<use x="671.34" y="124.00" xlink:href="#hd"/>
<path d="M667.84 124.00v21.20" class="stroke"/>
<use x="686.94" y="112.00" xlink:href="#hd"/>
<path d="M683.44 112.00v31.60" class="stroke"/>
<use x="702.54" y="115.00" xlink:href="#hd"/>
<path d="M699.04 115.00v27.00" class="stroke"/>
<use x="718.14" y="106.00" xlink:href="#hd"/>
<path d="M714.64 106.00v34.40" class="stroke"/>
<use x="736.14" y="109.00" xlink:href="#hd"/>
<use x="727.14" y="109.00" xlink:href="#sh0"/>
<path d="M732.64 109.00v29.50" class="stroke"/>
<use x="751.74" y="103.00" xlink:href="#hl"/>
<use x="751.74" y="103.00" xlink:href="#hd"/>
<path d="M748.24 103.00v33.90" class="stroke"/>
<use x="776.84" y="106.00" xlink:href="#hd"/>
<path d="M773.34 106.00v40.00" class="stroke"/>
<use x="776.84" y="127.00" xlink:href="#hd"/>
<use x="776.84" y="121.00" xlink:href="#hd"/>
<use x="776.84" y="115.00" xlink:href="#hd"/>
<defs>
<path id="r8e" class="fill" d="m 0 0
	c-1.5 1.5 -2.4 2 -3.6 2
	2.4 -2.8 -2.8 -4 -2.8 -1.2
	c0 2.7 4.3 2.4 5.9 0.6"/>
<g id="r8">
	<path d="m3.3 -4l-3.4 9.6" class="stroke"/>
	<use x="3.4" y="-4" xlink:href="#r8e"/>
</g>
</defs>
<use x="832.34" y="121.00" xlink:href="#r8"/>
<defs>
<path id="ubclef" class="fill" d="m-200 -87
	c124 -35 222 -78 254 -236
	43 -228 -167 -246 -192 -103
	59 -80 157 22 92 78
	-62 47 -115 -22 -106 -88
	21 -141 270 -136 274 52
	-1 175 -106 264 -322 297
	m357 -250
	c0 -36 51 -34 51 0
	0 37 -51 36 -51 0
	m-2 -129
	c0 -36 51 -34 51 0
	0 38 -51 37 -51 0"/>
<use id="bclef" transform="translate(0,18) scale(0.045)"
	xlink:href="#ubclef"/>
</defs>
<use x="23.54" y="173.00" xlink:href="#bclef"/>
<g font-family="serif" font-size="16" font-weight="bold" font-style="normal"
	transform="translate(42.04,190.50) scale(1.2,1)">
	<text text-anchor="middle">8</text>
	<text y="-12" text-anchor="middle">3</text>
</g>
<use x="84.14" y="176.00" xlink:href="#hd"/>
<path d="M80.64 176.00v25.00" class="stroke"/>
<use x="84.14" y="182.00" xlink:href="#hd"/>
<use x="146.74" y="179.00" xlink:href="#r8"/>
<use x="187.44" y="170.00" xlink:href="#hd"/>
<path d="M183.94 170.00v25.00" class="stroke"/>
<use x="187.44" y="176.00" xlink:href="#hd"/>
<use x="249.94" y="179.00" xlink:href="#r8"/>
<use x="290.64" y="191.00" xlink:href="#hd"/>
<path d="M294.14 191.00v-40.00" class="stroke"/>
<use x="290.64" y="170.00" xlink:href="#hd"/>
<use x="353.04" y="170.00" xlink:href="#hd"/>
<path d="M349.54 170.00v34.00" class="stroke"/>
<path class="fill"
	d="M349.54 204.00c0.6 -5.6 9.6 -9 5.6 -18.4
	1.6 6 -1.3 11.6 -5.6 12.8
"/>
<use x="353.04" y="185.00" xlink:href="#hd"/>
<use x="393.74" y="176.00" xlink:href="#hd"/>
<path d="M390.24 176.00v25.00" class="stroke"/>
<use x="393.74" y="182.00" xlink:href="#hd"/>
<use x="456.24" y="179.00" xlink:href="#r8"/>
<use x="492.04" y="167.00" xlink:href="#hd"/>
<path d="M488.54 167.00v34.00" class="stroke"/>
<use x="492.04" y="182.00" xlink:href="#hd"/>
<use x="535.84" y="167.00" xlink:href="#hd"/>
<path d="M532.34 167.00v34.00" class="stroke"/>
<path class="fill"
	d="M532.34 201.00c0.6 -5.6 9.6 -9 5.6 -18.4
	1.6 6 -1.3 11.6 -5.6 12.8
"/>
<use x="535.84" y="182.00" xlink:href="#hd"/>
<use x="565.74" y="185.00" xlink:href="#hd"/>
<path d="M569.24 185.00v-25.00" class="stroke"/>
<use x="565.74" y="179.00" xlink:href="#hd"/>
<use x="630.64" y="170.00" xlink:href="#hd"/>
<path d="M627.14 170.00v34.00" class="stroke"/>
<path class="fill"
	d="M627.14 204.00c0.6 -5.6 9.6 -9 5.6 -18.4
	1.6 6 -1.3 11.6 -5.6 12.8
"/>
<use x="630.64" y="185.00" xlink:href="#hd"/>
<path class="fill"
	d="M674.44 155.80l65.50 8.30v3.20l-65.50 -8.30"/>
<use x="671.34" y="182.00" xlink:href="#hd"/>
<path d="M674.84 182.00v-25.10" class="stroke"/>
<use x="702.54" y="179.00" xlink:href="#hd"/>
<path d="M706.04 179.00v-18.20" class="stroke"/>
<use x="736.14" y="197.00" xlink:href="#hl"/>
<use x="736.14" y="200.00" xlink:href="#hd"/>
<path d="M739.64 200.00v-35.00" class="stroke"/>
<path class="fill"
	d="M773.04 210.20l71.80 0.00v-3.20l-71.80 -0.00"/>
<path class="fill"
	d="M795.24 205.20l49.20 0.00v-3.20l-49.20 -0.00"/>
<use x="776.84" y="191.00" xlink:href="#hd"/>
<path d="M773.34 191.00v18.20" class="stroke"/>
<use x="798.74" y="170.00" xlink:href="#hd"/>
<path d="M795.24 170.00v39.20" class="stroke"/>
<use x="816.74" y="173.00" xlink:href="#hd"/>
<defs>
<path id="unat" class="fill" d="
	m96 -750
	h-32
	v716
	l32 -8
	182 -54
	v282
	h32
	v-706
	l-34 10
	-180 50
	v-290
	m0 592
	v-190
	l182 -52
	v188"/>
<use id="nt0" transform="translate(-3,5) scale(0.018)"
	xlink:href="#unat"/>
</defs>
<use x="807.74" y="173.00" xlink:href="#nt0"/>
<path d="M813.24 173.00v36.20" class="stroke"/>
<use x="832.34" y="176.00" xlink:href="#hd"/>
<path d="M828.84 176.00v33.20" class="stroke"/>
<use x="847.94" y="179.00" xlink:href="#hd"/>
<path d="M844.44 179.00v30.20" class="stroke"/>
</g>
<g stroke-width="0.70" transform="scale(0.867)" font-family="Times" font-size="13.00">
<path class="stroke" stroke-width="1"
	d="M11.54 324.00v-82.00"/>
<path class="fill"
	d="M6.54 239.00
	c10.5 1 12 -4.5 12 -3.5c0 1 -3.5 5.5 -8.5 5.5
	v84.00
	c5 0 8.5 4.5 8.5 5.5c0 1 -1.5 -4.5 -12 -3.5"/>
<use x="145.44" y="266.00" xlink:href="#rdots"/>
<path class="stroke" stroke-width="1"
	d="M141.44 266.00v-24.00"/>
<path class="stroke" stroke-width="3"
	d="M136.94 266.00v-24.00"/>
<use x="145.44" y="324.00" xlink:href="#rdots"/>
<path class="stroke" stroke-width="1"
	d="M141.44 324.00v-58.00"/>
<path class="stroke" stroke-width="3"
	d="M136.94 324.00v-58.00"/>
<path class="stroke" stroke-width="1"
	d="M247.44 266.00v-24.00"/>
<path class="stroke" stroke-width="1"
	d="M247.44 324.00v-58.00"/>
<path class="stroke" stroke-width="1"
	d="M348.74 266.00v-24.00"/>
<path class="stroke" stroke-width="1"
	d="M348.74 324.00v-58.00"/>
<path class="stroke" stroke-width="1"
	d="M450.04 266.00v-24.00"/>
<path class="stroke" stroke-width="1"
	d="M450.04 324.00v-58.00"/>
<path class="stroke" stroke-width="1"
	d="M540.64 266.00v-24.00"/>
<path class="stroke" stroke-width="1"
	d="M540.64 324.00v-58.00"/>
<path class="stroke" stroke-width="1"
	d="M641.94 266.00v-24.00"/>
<path class="stroke" stroke-width="1"
	d="M641.94 324.00v-58.00"/>
<path class="stroke" stroke-width="1"
	d="M714.14 266.00v-24.00"/>
<path class="stroke" stroke-width="1"
	d="M714.14 324.00v-58.00"/>
<path class="stroke" stroke-width="1"
	d="M786.34 266.00v-24.00"/>
<path class="stroke" stroke-width="1"
	d="M786.34 324.00v-58.00"/>
<path class="stroke" stroke-width="3"
	d="M860.54 266.00v-24.00"/>
<path class="stroke" stroke-width="1"
	d="M856.04 266.00v-24.00"/>
<use x="852.04" y="266.00" xlink:href="#rdots"/>
<path class="stroke" stroke-width="3"
	d="M860.54 324.00v-58.00"/>
<path class="stroke" stroke-width="1"
	d="M856.04 324.00v-58.00"/>
<use x="852.04" y="324.00" xlink:href="#rdots"/>
<path d="m11.54 266.00
	h850.50
	M11.54 260.00
	h850.50
	M11.54 254.00
	h850.50
	M11.54 248.00
	h850.50
	M11.54 242.00
	h850.50
	" class="stroke"/>
<path d="m11.54 324.00
	h850.50
	M11.54 318.00
	h850.50
	M11.54 312.00
	h850.50
	M11.54 306.00
	h850.50
	M11.54 300.00
	h850.50
	" class="stroke"/>
<path class="fill"
	d="M654.44 249.00c6.10 -5.32 32.63 -10.53 38.73 -7.60
	v-0.24c-7.26 -4.69 -31.47 0.52 -38.73 7.84"/>
<text x="47.54" y="227.40">2</text>
<path class="stroke"
	d="M43.54 216.00m0 20v-20h90.90v20"/>
<use x="23.54" y="260.00" xlink:href="#tclef"/>
<use x="56.04" y="239.00" xlink:href="#hd"/>
<path d="M52.54 239.00v40.00" class="stroke"/>
<use x="56.04" y="260.00" xlink:href="#hd"/>
<use x="56.04" y="254.00" xlink:href="#hd"/>
<use x="56.04" y="248.00" xlink:href="#hd"/>
<use x="110.64" y="254.00" xlink:href="#r8"/>
<path class="fill"
	d="M161.14 268.50l70.70 10.80v-3.20l-70.70 -10.80"/>
<path class="fill"
	d="M182.94 266.80l48.50 7.40v-3.20l-48.50 -7.40"/>
<use x="164.94" y="236.00" xlink:href="#hl"/>
<use x="164.94" y="230.00" xlink:href="#hl"/>
<use x="164.94" y="227.00" xlink:href="#hd"/>
<path d="M161.44 227.00v40.50" class="stroke"/>
<use x="186.44" y="236.00" xlink:href="#hl"/>
<use x="186.44" y="236.00" xlink:href="#hd"/>
<path d="M182.94 236.00v34.80" class="stroke"/>
<use x="204.44" y="242.00" xlink:href="#hd"/>
<use x="195.44" y="242.00" xlink:href="#sh0"/>
<path d="M200.94 242.00v31.60" class="stroke"/>
<use x="219.64" y="248.00" xlink:href="#hd"/>
<path d="M216.14 248.00v27.90" class="stroke"/>
<use x="234.94" y="257.00" xlink:href="#hd"/>
<path d="M231.44 257.00v21.20" class="stroke"/>
<path class="fill"
	d="M256.04 268.00l77.00 0.00v-3.20l-77.00 -0.00"/>
<path class="fill"
	d="M256.44 263.00l76.30 0.00v-3.20l-76.30 -0.00"/>
<use x="259.94" y="239.00" xlink:href="#hd"/>
<path d="M256.44 239.00v28.00" class="stroke"/>
<use x="275.14" y="248.00" xlink:href="#hd"/>
<path d="M271.64 248.00v19.00" class="stroke"/>
<use x="290.44" y="239.00" xlink:href="#hd"/>
<path d="M286.94 239.00v28.00" class="stroke"/>
<use x="305.74" y="236.00" xlink:href="#hl"/>
<use x="305.74" y="233.00" xlink:href="#hd"/>
<path d="M302.24 233.00v34.00" class="stroke"/>
<use x="320.94" y="239.00" xlink:href="#hd"/>
<path d="M317.44 239.00v28.00" class="stroke"/>
<use x="336.24" y="248.00" xlink:href="#hd"/>
<path d="M332.74 248.00v19.00" class="stroke"/>
<path class="fill"
	d="M357.44 269.00l61.70 0.00v-3.20l-61.70 -0.00"/>
<use x="361.24" y="245.00" xlink:href="#hd"/>
<path d="M357.74 245.00v23.00" class="stroke"/>
<use x="361.24" y="251.00" xlink:href="#hd"/>
<use x="391.74" y="245.00" xlink:href="#hd"/>
<path d="M388.24 245.00v23.00" class="stroke"/>
<use x="391.74" y="251.00" xlink:href="#hd"/>
<use x="422.34" y="245.00" xlink:href="#hd"/>
<path d="M418.84 245.00v23.00" class="stroke"/>
<use x="422.34" y="251.00" xlink:href="#hd"/>
<path class="fill"
	d="M458.74 272.90l61.70 6.40v-3.20l-61.70 -6.40"/>
<path class="fill"
	d="M459.04 267.90l45.80 4.70v-3.20l-45.80 -4.70"/>
<use x="462.54" y="245.00" xlink:href="#hd"/>
<path d="M459.04 245.00v26.90" class="stroke"/>
<use x="477.84" y="251.00" xlink:href="#hd"/>
<path d="M474.34 251.00v22.50" class="stroke"/>
<use x="493.14" y="248.00" xlink:href="#hd"/>
<path d="M489.64 248.00v27.10" class="stroke"/>
<use x="508.34" y="254.00" xlink:href="#hd"/>
<path d="M504.84 254.00v22.60" class="stroke"/>
<use x="523.64" y="260.00" xlink:href="#hd"/>
<path d="M520.14 260.00v18.20" class="stroke"/>
<path class="fill"
	d="M549.24 279.20l61.70 -7.00v-3.20l-61.70 7.00"/>
<use x="553.14" y="260.00" xlink:href="#hd"/>
<path d="M549.64 260.00v18.20" class="stroke"/>
<use x="583.64" y="251.00" xlink:href="#hd"/>
<path d="M580.14 251.00v23.70" class="stroke"/>
<use x="614.14" y="245.00" xlink:href="#hd"/>
<path d="M610.64 245.00v26.20" class="stroke"/>
<path class="fill"
	d="M650.54 279.30l43.40 -6.40v-3.20l-43.40 6.40"/>
<use x="654.44" y="260.00" xlink:href="#hd"/>
<path d="M650.94 260.00v18.20" class="stroke"/>
<use x="675.74" y="251.00" xlink:href="#hd"/>
<path d="M672.24 251.00v24.00" class="stroke"/>
<use x="697.14" y="245.00" xlink:href="#hd"/>
<path d="M693.64 245.00v26.90" class="stroke"/>
<path class="fill"
	d="M722.74 266.20l43.40 0.00v-3.20l-43.40 -0.00"/>
<use x="726.64" y="242.00" xlink:href="#hd"/>
<path d="M723.14 242.00v23.20" class="stroke"/>
<use x="747.94" y="248.00" xlink:href="#hd"/>
<path d="M744.44 248.00v17.20" class="stroke"/>
<use x="769.34" y="239.00" xlink:href="#hd"/>
<path d="M765.84 239.00v26.20" class="stroke"/>
<use x="798.84" y="251.00" xlink:href="#hd"/>
<path d="M795.34 251.00v21.00" class="stroke"/>
<use x="841.54" y="254.00" xlink:href="#r8"/>
<use x="23.54" y="306.00" xlink:href="#bclef"/>
<path class="fill"
	d="M52.24 343.20l70.60 -5.10v-3.20l-70.60 5.10"/>
<path class="fill"
	d="M73.94 336.70l48.50 -3.50v-3.20l-48.50 3.50"/>
<use x="56.04" y="324.00" xlink:href="#hd"/>
<path d="M52.54 324.00v18.20" class="stroke"/>
<use x="77.44" y="297.00" xlink:href="#hd"/>
<path d="M73.94 297.00v43.70" class="stroke"/>
<use x="92.64" y="303.00" xlink:href="#hd"/>
<path d="M89.14 303.00v36.60" class="stroke"/>
<use x="110.64" y="306.00" xlink:href="#hd"/>
<use x="101.64" y="306.00" xlink:href="#sh0"/>
<path d="M107.14 306.00v32.30" class="stroke"/>
<use x="125.94" y="309.00" xlink:href="#hd"/>
<path d="M122.44 309.00v28.20" class="stroke"/>
<use x="164.94" y="306.00" xlink:href="#hd"/>
<use x="155.94" y="306.00" xlink:href="#sh0"/>
<path d="M161.44 306.00v25.00" class="stroke"/>
<use x="164.94" y="312.00" xlink:href="#hd"/>
<use x="219.64" y="306.00" xlink:href="#hd"/>
<path d="M216.14 306.00v28.00" class="stroke"/>
<path class="fill"
	d="M216.14 334.00c0.6 -5.6 9.6 -9 5.6 -18.4
	1.6 6 -1.3 11.6 -5.6 12.8
"/>
<use x="219.64" y="315.00" xlink:href="#hd"/>
<use x="259.94" y="318.00" xlink:href="#hd"/>
<path d="M263.44 318.00v-25.00" class="stroke"/>
<use x="259.94" y="312.00" xlink:href="#hd"/>
<use x="320.94" y="318.00" xlink:href="#hd"/>
<path d="M324.44 318.00v-25.00" class="stroke"/>
<path class="fill"
	d="M324.44 293.00c0.6 5.6 9.6 9 5.6 18.4
	1.6 -6 -1.3 -11.6 -5.6 -12.8
"/>
<use x="320.94" y="312.00" xlink:href="#hd"/>
<path class="fill"
	d="M357.44 337.20l77.00 0.00v-3.20l-77.00 -0.00"/>
<path class="fill"
	d="M357.74 332.20l76.30 0.00v-3.20l-76.30 -0.00"/>
<use x="361.24" y="315.00" xlink:href="#hd"/>
<path d="M357.74 315.00v21.20" class="stroke"/>
<use x="376.54" y="309.00" xlink:href="#hd"/>
<path d="M373.04 309.00v27.20" class="stroke"/>
<use x="391.74" y="303.00" xlink:href="#hd"/>
<path d="M388.24 303.00v33.20" class="stroke"/>
<use x="407.04" y="309.00" xlink:href="#hd"/>
<path d="M403.54 309.00v27.20" class="stroke"/>
<use x="422.34" y="294.00" xlink:href="#hl"/>
<use x="422.34" y="294.00" xlink:href="#hd"/>
<path d="M418.84 294.00v42.20" class="stroke"/>
<use x="437.54" y="315.00" xlink:href="#hd"/>
<path d="M434.04 315.00v21.20" class="stroke"/>
<use x="462.54" y="303.00" xlink:href="#hd"/>
<path d="M459.04 303.00v21.00" class="stroke"/>
<use x="523.64" y="312.00" xlink:href="#r8"/>
<path class="fill"
	d="M549.24 331.90l77.00 0.00v-3.20l-77.00 -0.00"/>
<path class="fill"
	d="M549.64 326.90l76.30 0.00v-3.20l-76.30 -0.00"/>
<use x="553.14" y="309.00" xlink:href="#hd"/>
<path d="M549.64 309.00v21.90" class="stroke"/>
<use x="553.14" y="315.00" xlink:href="#hd"/>
<use x="568.34" y="303.00" xlink:href="#hd"/>
<path d="M564.84 303.00v27.90" class="stroke"/>
<use x="583.64" y="309.00" xlink:href="#hd"/>
<path d="M580.14 309.00v21.90" class="stroke"/>
<use x="583.64" y="315.00" xlink:href="#hd"/>
<use x="598.94" y="303.00" xlink:href="#hd"/>
<path d="M595.44 303.00v27.90" class="stroke"/>
<use x="614.14" y="309.00" xlink:href="#hd"/>
<path d="M610.64 309.00v21.90" class="stroke"/>
<use x="614.14" y="315.00" xlink:href="#hd"/>
<use x="629.44" y="303.00" xlink:href="#hd"/>
<path d="M625.94 303.00v27.90" class="stroke"/>
<use x="654.44" y="309.00" xlink:href="#hd"/>
<path d="M650.94 309.00v25.00" class="stroke"/>
<use x="654.44" y="315.00" xlink:href="#hd"/>
<use x="697.14" y="303.00" xlink:href="#hd"/>
<path d="M693.64 303.00v31.00" class="stroke"/>
<path class="fill"
	d="M693.64 334.00c0.6 -5.6 9.6 -9 5.6 -18.4
	1.6 6 -1.3 11.6 -5.6 12.8
"/>
<use x="697.14" y="315.00" xlink:href="#hd"/>
<path class="fill"
	d="M722.74 331.20l43.40 0.00v-3.20l-43.40 -0.00"/>
<use x="726.64" y="306.00" xlink:href="#hd"/>
<path d="M723.14 306.00v24.20" class="stroke"/>
<use x="747.94" y="312.00" xlink:href="#hd"/>
<path d="M744.44 312.00v18.20" class="stroke"/>
<use x="769.34" y="303.00" xlink:href="#hd"/>
<path d="M765.84 303.00v27.20" class="stroke"/>
<path class="fill"
	d="M801.94 295.70l43.40 9.90v3.20l-43.40 -9.90"/>
<use x="798.84" y="315.00" xlink:href="#hd"/>
<path d="M802.34 315.00v-18.20" class="stroke"/>
<use x="820.14" y="324.00" xlink:href="#hd"/>
<path d="M823.64 324.00v-22.30" class="stroke"/>
<use x="841.54" y="330.00" xlink:href="#hl"/>
<use x="841.54" y="336.00" xlink:href="#hl"/>
<use x="841.54" y="336.00" xlink:href="#hd"/>
<path d="M845.04 336.00v-29.40" class="stroke"/>
</g>
</svg>
