<?xml version="1.0" standalone="no"?>
<!DOCTYPE svg PUBLIC "-//W3C//DTD SVG 1.1//EN"
	"http://www.w3.org/Graphics/SVG/1.1/DTD/svg11.dtd">
<svg xmlns="http://www.w3.org/2000/svg" version="1.1"
	xmlns:xlink="http://www.w3.org/1999/xlink"
	color="black"
	width="757.10px" height="293.80px">
<style type="text/css">
.fill {fill: currentColor}
.stroke {stroke: currentColor; fill: none}
text{white-space: pre}
</style>
<title>./K516f-3-2-5-8-12-8-12-10-8-10-12-4-8-10-7-9.abc (1995) tune 1</title>
<!-- Creator: abcm2ps-8.13.8 -->
<!-- CreationDate: Sep  7, 2017 11:18 -->
<!-- CommandLine: ./K516f-3-2-5-8-12-8-12-10-8-10-12-4-8-10-7-9.abc -O ./K516f-3-2-5-8-12-8-12-10-8-10-12-4-8-10-7-9.svg -g -->
<rect width="100%" height="100%" fill="white"/>
<g stroke-width="0.70" transform="scale(0.867)">
<!-- title: 3-2-5-8-12-8-12-10-8-10-12-4-8-10-7-9 -->
</g>
<g stroke-width="0.70" transform="scale(0.867)" font-family="Times" font-size="20.00">
<text x="436.84" y="22.00" text-anchor="middle">3-2-5-8-12-8-12-10-8-10-12-4-8-10-7-9</text>
</g>
<g stroke-width="0.70" transform="scale(0.867)" font-family="Times" font-size="20.00">
<!-- subtitle: $1K.516f::32:22:113:53:28:133:106:123:16:77:108:132:43:38:23:111::$0 -->
</g>
<g stroke-width="0.70" transform="scale(0.867)" font-family="Courier" font-size="8.00" font-weight="bold">
<text x="436.84" y="41.80" text-anchor="middle">K.516f::32:22:113:53:28:133:106:123:16:77:108:132:43:38:23:111::</text>
</g>
<g stroke-width="0.70" transform="scale(0.867)" font-family="Courier" font-size="8.00" font-weight="bold">
<!-- subtitle: $1Perm. No.: 199510162713952$0 -->
<text x="436.84" y="60.80" text-anchor="middle">Perm. No.: 199510162713952</text>
</g>
<g stroke-width="0.70" transform="scale(0.607)" font-family="Courier" font-size="8.00" font-weight="bold">
<defs>
<ellipse id="hd" rx="4.1" ry="2.9"
	transform="rotate(-20)" class="fill"/>
</defs>
<use x="103.06" y="121.29" xlink:href="#hd"/>
<path d="M106.56 121.29v-21.00" class="stroke"/>
<path class="fill"
	d="M106.56 100.29c0.6 5.6 9.6 9 5.6 18.4
	1.6 -6 -1.3 -11.6 -5.6 -12.8
"/>
</g>
<g stroke-width="0.70" transform="scale(0.867)" font-family="Times" font-size="15.00" font-weight="bold">
<text x="81.24" y="87.00">= 111</text>
<path class="stroke" stroke-width="1"
	d="M11.54 183.00v-82.00"/>
<path class="fill"
	d="M6.54 98.00
	c10.5 1 12 -4.5 12 -3.5c0 1 -3.5 5.5 -8.5 5.5
	v84.00
	c5 0 8.5 4.5 8.5 5.5c0 1 -1.5 -4.5 -12 -3.5"/>
<defs>
<g id="rdots" class="fill">
	<circle cx="0" cy="-9" r="1.2"/>
	<circle cx="0" cy="-15" r="1.2"/>
</g>
</defs>
<use x="70.54" y="125.00" xlink:href="#rdots"/>
<path class="stroke" stroke-width="1"
	d="M66.54 125.00v-24.00"/>
<path class="stroke" stroke-width="3"
	d="M62.04 125.00v-24.00"/>
<use x="70.54" y="183.00" xlink:href="#rdots"/>
<path class="stroke" stroke-width="1"
	d="M66.54 183.00v-58.00"/>
<path class="stroke" stroke-width="3"
	d="M62.04 183.00v-58.00"/>
<path class="stroke" stroke-width="1"
	d="M155.64 125.00v-24.00"/>
<path class="stroke" stroke-width="1"
	d="M155.64 183.00v-58.00"/>
<path class="stroke" stroke-width="1"
	d="M239.74 125.00v-24.00"/>
<path class="stroke" stroke-width="1"
	d="M239.74 183.00v-58.00"/>
<path class="stroke" stroke-width="1"
	d="M323.84 125.00v-24.00"/>
<path class="stroke" stroke-width="1"
	d="M323.84 183.00v-58.00"/>
<path class="stroke" stroke-width="1"
	d="M418.44 125.00v-24.00"/>
<path class="stroke" stroke-width="1"
	d="M418.44 183.00v-58.00"/>
<path class="stroke" stroke-width="1"
	d="M539.94 125.00v-24.00"/>
<path class="stroke" stroke-width="1"
	d="M539.94 183.00v-58.00"/>
<path class="stroke" stroke-width="1"
	d="M646.64 125.00v-24.00"/>
<path class="stroke" stroke-width="1"
	d="M646.64 183.00v-58.00"/>
<path class="stroke" stroke-width="1"
	d="M753.24 125.00v-24.00"/>
<path class="stroke" stroke-width="1"
	d="M753.24 183.00v-58.00"/>
<path class="stroke" stroke-width="3"
	d="M860.54 125.00v-24.00"/>
<path class="stroke" stroke-width="1"
	d="M856.04 125.00v-24.00"/>
<use x="852.04" y="125.00" xlink:href="#rdots"/>
<path class="stroke" stroke-width="3"
	d="M860.54 183.00v-58.00"/>
<path class="stroke" stroke-width="1"
	d="M856.04 183.00v-58.00"/>
<use x="852.04" y="183.00" xlink:href="#rdots"/>
<path d="m11.54 125.00
	h850.50
	M11.54 119.00
	h850.50
	M11.54 113.00
	h850.50
	M11.54 107.00
	h850.50
	M11.54 101.00
	h850.50
	" class="stroke"/>
<path d="m11.54 183.00
	h850.50
	M11.54 177.00
	h850.50
	M11.54 171.00
	h850.50
	M11.54 165.00
	h850.50
	M11.54 159.00
	h850.50
	" class="stroke"/>
</g>
<g stroke-width="0.70" transform="scale(0.867)" font-family="Times" font-size="13.00">
<text x="757.24" y="86.40">1</text>
<path class="stroke"
	d="M753.24 75.00m0 20v-20h100.80v20"/>
<defs>
<path id="utclef" class="fill" d="m-50 -90
	c-72 -41 -72 -158 52 -188
	150 -10 220 188 90 256
	-114 52 -275 0 -293 -136
	-15 -181 93 -229 220 -334
	88 -87 79 -133 62 -210
	-51 33 -94 105 -89 186
	17 267 36 374 49 574
	6 96 -19 134 -77 135
	-80 1 -126 -93 -61 -133
	85 -41 133 101 31 105
	23 17 92 37 90 -92
	-10 -223 -39 -342 -50 -617
	0 -90 0 -162 96 -232
	56 72 63 230 22 289
	-74 106 -257 168 -255 316
	9 153 148 185 252 133
	86 -65 29 -192 -80 -176
	-71 12 -105 67 -59 124"/>
<use id="tclef" transform="translate(0,6) scale(0.045)"
	xlink:href="#utclef"/>
</defs>
<use x="23.54" y="119.00" xlink:href="#tclef"/>
<g font-family="serif" font-size="16" font-weight="bold" font-style="normal"
	transform="translate(42.04,124.50) scale(1.2,1)">
	<text text-anchor="middle">8</text>
	<text y="-12" text-anchor="middle">3</text>
</g>
<path class="fill"
	d="M81.74 138.20l51.10 -6.70v-3.20l-51.10 6.70"/>
<use x="85.54" y="119.00" xlink:href="#hd"/>
<path d="M82.04 119.00v18.20" class="stroke"/>
<use x="110.84" y="110.00" xlink:href="#hd"/>
<path d="M107.34 110.00v23.90" class="stroke"/>
<use x="136.04" y="104.00" xlink:href="#hd"/>
<path d="M132.54 104.00v26.60" class="stroke"/>
<path class="fill"
	d="M165.84 131.50l51.10 6.70v-3.20l-51.10 -6.70"/>
<use x="169.64" y="104.00" xlink:href="#hd"/>
<path d="M166.14 104.00v26.60" class="stroke"/>
<use x="194.94" y="110.00" xlink:href="#hd"/>
<path d="M191.44 110.00v23.90" class="stroke"/>
<use x="220.14" y="119.00" xlink:href="#hd"/>
<path d="M216.64 119.00v18.20" class="stroke"/>
<path class="fill"
	d="M249.94 124.00l51.10 8.20v-3.20l-51.10 -8.20"/>
<use x="253.84" y="101.00" xlink:href="#hd"/>
<path d="M250.34 101.00v22.10" class="stroke"/>
<use x="279.04" y="107.00" xlink:href="#hd"/>
<path d="M275.54 107.00v20.10" class="stroke"/>
<use x="304.24" y="113.00" xlink:href="#hd"/>
<path d="M300.74 113.00v18.20" class="stroke"/>
<path class="fill"
	d="M334.04 127.00l61.60 0.00v-3.20l-61.60 -0.00"/>
<path class="fill"
	d="M359.64 122.00l17.80 0.00v-3.20l-17.80 -0.00"/>
<use x="337.94" y="104.00" xlink:href="#hd"/>
<path d="M334.44 104.00v22.00" class="stroke"/>
<use x="337.94" y="110.00" xlink:href="#hd"/>
<use x="363.14" y="104.00" xlink:href="#hd"/>
<path d="M359.64 104.00v22.00" class="stroke"/>
<use x="363.14" y="110.00" xlink:href="#hd"/>
<use x="380.94" y="101.00" xlink:href="#hd"/>
<path d="M377.44 101.00v25.00" class="stroke"/>
<use x="380.94" y="107.00" xlink:href="#hd"/>
<use x="398.84" y="98.00" xlink:href="#hd"/>
<path d="M395.34 98.00v28.00" class="stroke"/>
<use x="398.84" y="104.00" xlink:href="#hd"/>
<path class="fill"
	d="M433.14 138.20l89.80 0.00v-3.20l-89.80 -0.00"/>
<path class="fill"
	d="M433.44 133.20l89.20 0.00v-3.20l-89.20 -0.00"/>
<use x="436.94" y="101.00" xlink:href="#hd"/>
<defs>
<path id="usharp" class="fill" d="
	m136 -702
	v890
	h32
	v-890
	m128 840
	h32
	v-888
	h-32
	m-232 286
	v116
	l338 -96
	v-116
	m-338 442
	v116
	l338 -98
	v-114"/>
<use id="sh0" transform="translate(-4,5) scale(0.018)"
	xlink:href="#usharp"/>
</defs>
<use x="427.94" y="101.00" xlink:href="#sh0"/>
<path d="M433.44 101.00v36.20" class="stroke"/>
<use x="454.74" y="107.00" xlink:href="#hd"/>
<path d="M451.24 107.00v30.20" class="stroke"/>
<use x="472.64" y="116.00" xlink:href="#hd"/>
<path d="M469.14 116.00v21.20" class="stroke"/>
<defs>
<path id="hl" class="stroke" d="m-6 0h12"/>
</defs>
<use x="490.44" y="95.00" xlink:href="#hl"/>
<use x="490.44" y="95.00" xlink:href="#hd"/>
<path d="M486.94 95.00v42.20" class="stroke"/>
<use x="508.24" y="101.00" xlink:href="#hd"/>
<path d="M504.74 101.00v36.20" class="stroke"/>
<use x="526.14" y="107.00" xlink:href="#hd"/>
<path d="M522.64 107.00v30.20" class="stroke"/>
<path class="fill"
	d="M550.14 135.20l79.40 0.00v-3.20l-79.40 -0.00"/>
<path class="fill"
	d="M575.74 130.20l53.50 0.00v-3.20l-53.50 -0.00"/>
<use x="554.04" y="107.00" xlink:href="#hd"/>
<path d="M550.54 107.00v27.20" class="stroke"/>
<use x="579.24" y="98.00" xlink:href="#hd"/>
<path d="M575.74 98.00v36.20" class="stroke"/>
<use x="597.04" y="107.00" xlink:href="#hd"/>
<path d="M593.54 107.00v27.20" class="stroke"/>
<use x="614.94" y="113.00" xlink:href="#hd"/>
<path d="M611.44 113.00v21.20" class="stroke"/>
<use x="632.74" y="107.00" xlink:href="#hd"/>
<path d="M629.24 107.00v27.20" class="stroke"/>
<path class="fill"
	d="M656.84 138.20l79.40 0.00v-3.20l-79.40 -0.00"/>
<path class="fill"
	d="M682.34 133.20l53.50 0.00v-3.20l-53.50 -0.00"/>
<use x="660.64" y="116.00" xlink:href="#hd"/>
<path d="M657.14 116.00v21.20" class="stroke"/>
<use x="685.84" y="107.00" xlink:href="#hd"/>
<path d="M682.34 107.00v30.20" class="stroke"/>
<use x="703.74" y="110.00" xlink:href="#hd"/>
<path d="M700.24 110.00v27.20" class="stroke"/>
<use x="721.54" y="113.00" xlink:href="#hd"/>
<path d="M718.04 113.00v24.20" class="stroke"/>
<use x="739.34" y="116.00" xlink:href="#hd"/>
<path d="M735.84 116.00v21.20" class="stroke"/>
<use x="767.24" y="98.00" xlink:href="#hd"/>
<path d="M763.74 98.00v40.00" class="stroke"/>
<use x="767.24" y="119.00" xlink:href="#hd"/>
<use x="767.24" y="113.00" xlink:href="#hd"/>
<use x="767.24" y="107.00" xlink:href="#hd"/>
<defs>
<path id="r8e" class="fill" d="m 0 0
	c-1.5 1.5 -2.4 2 -3.6 2
	2.4 -2.8 -2.8 -4 -2.8 -1.2
	c0 2.7 4.3 2.4 5.9 0.6"/>
<g id="r8">
	<path d="m3.3 -4l-3.4 9.6" class="stroke"/>
	<use x="3.4" y="-4" xlink:href="#r8e"/>
</g>
</defs>
<use x="828.34" y="113.00" xlink:href="#r8"/>
<defs>
<path id="ubclef" class="fill" d="m-200 -87
	c124 -35 222 -78 254 -236
	43 -228 -167 -246 -192 -103
	59 -80 157 22 92 78
	-62 47 -115 -22 -106 -88
	21 -141 270 -136 274 52
	-1 175 -106 264 -322 297
	m357 -250
	c0 -36 51 -34 51 0
	0 37 -51 36 -51 0
	m-2 -129
	c0 -36 51 -34 51 0
	0 38 -51 37 -51 0"/>
<use id="bclef" transform="translate(0,18) scale(0.045)"
	xlink:href="#ubclef"/>
</defs>
<use x="23.54" y="165.00" xlink:href="#bclef"/>
<g font-family="serif" font-size="16" font-weight="bold" font-style="normal"
	transform="translate(42.04,182.50) scale(1.2,1)">
	<text text-anchor="middle">8</text>
	<text y="-12" text-anchor="middle">3</text>
</g>
<use x="85.54" y="168.00" xlink:href="#hd"/>
<path d="M82.04 168.00v25.00" class="stroke"/>
<use x="85.54" y="174.00" xlink:href="#hd"/>
<use x="136.04" y="171.00" xlink:href="#r8"/>
<use x="169.64" y="174.00" xlink:href="#hd"/>
<path d="M173.14 174.00v-21.00" class="stroke"/>
<use x="220.14" y="171.00" xlink:href="#r8"/>
<use x="253.84" y="156.00" xlink:href="#hd"/>
<path d="M250.34 156.00v25.00" class="stroke"/>
<use x="253.84" y="162.00" xlink:href="#hd"/>
<use x="304.24" y="171.00" xlink:href="#r8"/>
<use x="337.94" y="174.00" xlink:href="#hd"/>
<path d="M341.44 174.00v-21.00" class="stroke"/>
<use x="398.84" y="171.00" xlink:href="#r8"/>
<use x="436.94" y="159.00" xlink:href="#hd"/>
<path d="M433.44 159.00v34.00" class="stroke"/>
<use x="436.94" y="174.00" xlink:href="#hd"/>
<use x="508.24" y="171.00" xlink:href="#r8"/>
<use x="554.04" y="162.00" xlink:href="#hd"/>
<path d="M550.54 162.00v34.00" class="stroke"/>
<use x="554.04" y="177.00" xlink:href="#hd"/>
<use x="614.94" y="171.00" xlink:href="#r8"/>
<path class="fill"
	d="M663.84 148.30l61.60 8.40v3.20l-61.60 -8.40"/>
<use x="660.64" y="174.00" xlink:href="#hd"/>
<path d="M664.14 174.00v-24.70" class="stroke"/>
<use x="685.84" y="171.00" xlink:href="#hd"/>
<path d="M689.34 171.00v-18.20" class="stroke"/>
<use x="721.54" y="189.00" xlink:href="#hl"/>
<use x="721.54" y="192.00" xlink:href="#hd"/>
<path d="M725.04 192.00v-34.30" class="stroke"/>
<path class="fill"
	d="M763.44 202.20l79.60 0.00v-3.20l-79.60 -0.00"/>
<path class="fill"
	d="M789.04 197.20l53.70 0.00v-3.20l-53.70 -0.00"/>
<use x="767.24" y="183.00" xlink:href="#hd"/>
<path d="M763.74 183.00v18.20" class="stroke"/>
<use x="792.54" y="162.00" xlink:href="#hd"/>
<path d="M789.04 162.00v39.20" class="stroke"/>
<use x="810.54" y="165.00" xlink:href="#hd"/>
<defs>
<path id="unat" class="fill" d="
	m96 -750
	h-32
	v716
	l32 -8
	182 -54
	v282
	h32
	v-706
	l-34 10
	-180 50
	v-290
	m0 592
	v-190
	l182 -52
	v188"/>
<use id="nt0" transform="translate(-3,5) scale(0.018)"
	xlink:href="#unat"/>
</defs>
<use x="801.54" y="165.00" xlink:href="#nt0"/>
<path d="M807.04 165.00v36.20" class="stroke"/>
<use x="828.34" y="168.00" xlink:href="#hd"/>
<path d="M824.84 168.00v33.20" class="stroke"/>
<use x="846.14" y="171.00" xlink:href="#hd"/>
<path d="M842.64 171.00v30.20" class="stroke"/>
</g>
<g stroke-width="0.70" transform="scale(0.867)" font-family="Times" font-size="13.00">
<path class="stroke" stroke-width="1"
	d="M11.54 316.00v-82.00"/>
<path class="fill"
	d="M6.54 231.00
	c10.5 1 12 -4.5 12 -3.5c0 1 -3.5 5.5 -8.5 5.5
	v84.00
	c5 0 8.5 4.5 8.5 5.5c0 1 -1.5 -4.5 -12 -3.5"/>
<use x="148.44" y="258.00" xlink:href="#rdots"/>
<path class="stroke" stroke-width="1"
	d="M144.44 258.00v-24.00"/>
<path class="stroke" stroke-width="3"
	d="M139.94 258.00v-24.00"/>
<use x="148.44" y="316.00" xlink:href="#rdots"/>
<path class="stroke" stroke-width="1"
	d="M144.44 316.00v-58.00"/>
<path class="stroke" stroke-width="3"
	d="M139.94 316.00v-58.00"/>
<path class="stroke" stroke-width="1"
	d="M230.94 258.00v-24.00"/>
<path class="stroke" stroke-width="1"
	d="M230.94 316.00v-58.00"/>
<path class="stroke" stroke-width="1"
	d="M316.04 258.00v-24.00"/>
<path class="stroke" stroke-width="1"
	d="M316.04 316.00v-58.00"/>
<path class="stroke" stroke-width="1"
	d="M391.64 258.00v-24.00"/>
<path class="stroke" stroke-width="1"
	d="M391.64 316.00v-58.00"/>
<path class="stroke" stroke-width="1"
	d="M476.74 258.00v-24.00"/>
<path class="stroke" stroke-width="1"
	d="M476.74 316.00v-58.00"/>
<path class="stroke" stroke-width="1"
	d="M572.74 258.00v-24.00"/>
<path class="stroke" stroke-width="1"
	d="M572.74 316.00v-58.00"/>
<path class="stroke" stroke-width="1"
	d="M678.14 258.00v-24.00"/>
<path class="stroke" stroke-width="1"
	d="M678.14 316.00v-58.00"/>
<path class="stroke" stroke-width="1"
	d="M783.64 258.00v-24.00"/>
<path class="stroke" stroke-width="1"
	d="M783.64 316.00v-58.00"/>
<path class="stroke" stroke-width="3"
	d="M860.54 258.00v-24.00"/>
<path class="stroke" stroke-width="1"
	d="M856.04 258.00v-24.00"/>
<use x="852.04" y="258.00" xlink:href="#rdots"/>
<path class="stroke" stroke-width="3"
	d="M860.54 316.00v-58.00"/>
<path class="stroke" stroke-width="1"
	d="M856.04 316.00v-58.00"/>
<use x="852.04" y="316.00" xlink:href="#rdots"/>
<path d="m11.54 258.00
	h850.50
	M11.54 252.00
	h850.50
	M11.54 246.00
	h850.50
	M11.54 240.00
	h850.50
	M11.54 234.00
	h850.50
	" class="stroke"/>
<path d="m11.54 316.00
	h850.50
	M11.54 310.00
	h850.50
	M11.54 304.00
	h850.50
	M11.54 298.00
	h850.50
	M11.54 292.00
	h850.50
	" class="stroke"/>
<path class="fill"
	d="M170.94 223.80c6.63 -3.52 35.75 -0.63 42.38 4.20
	v-0.24c-7.90 -6.59 -34.48 -9.47 -42.38 -3.96"/>
<path class="fill"
	d="M328.84 229.00c6.45 -5.82 34.66 -13.09 41.11 -10.60
	v-0.24c-7.69 -4.25 -33.43 3.02 -41.11 10.84"/>
<text x="47.54" y="219.40">2</text>
<path class="stroke"
	d="M43.54 208.00m0 20v-20h93.90v20"/>
<use x="23.54" y="252.00" xlink:href="#tclef"/>
<use x="56.34" y="231.00" xlink:href="#hd"/>
<path d="M52.84 231.00v40.00" class="stroke"/>
<use x="56.34" y="252.00" xlink:href="#hd"/>
<use x="56.34" y="246.00" xlink:href="#hd"/>
<use x="56.34" y="240.00" xlink:href="#hd"/>
<use x="112.84" y="246.00" xlink:href="#r8"/>
<path class="fill"
	d="M164.04 251.30l46.10 8.00v-3.20l-46.10 -8.00"/>
<use x="167.94" y="228.00" xlink:href="#hl"/>
<use x="167.94" y="228.00" xlink:href="#hd"/>
<path d="M164.44 228.00v22.40" class="stroke"/>
<use x="190.74" y="234.00" xlink:href="#hd"/>
<use x="181.74" y="234.00" xlink:href="#sh0"/>
<path d="M187.24 234.00v20.30" class="stroke"/>
<use x="213.24" y="240.00" xlink:href="#hd"/>
<path d="M209.74 240.00v18.20" class="stroke"/>
<path class="fill"
	d="M239.94 254.20l55.30 5.10v-3.20l-55.30 -5.10"/>
<path class="fill"
	d="M240.24 249.20l16.00 1.50v-3.20l-16.00 -1.50"/>
<use x="243.74" y="231.00" xlink:href="#hd"/>
<path d="M240.24 231.00v22.20" class="stroke"/>
<use x="259.74" y="228.00" xlink:href="#hl"/>
<use x="259.74" y="225.00" xlink:href="#hd"/>
<path d="M256.24 225.00v29.70" class="stroke"/>
<use x="275.74" y="231.00" xlink:href="#hd"/>
<path d="M272.24 231.00v25.10" class="stroke"/>
<use x="298.34" y="240.00" xlink:href="#hd"/>
<path d="M294.84 240.00v18.20" class="stroke"/>
<path class="fill"
	d="M324.94 256.30l45.80 -8.00v-3.20l-45.80 8.00"/>
<use x="328.84" y="237.00" xlink:href="#hd"/>
<path d="M325.34 237.00v18.20" class="stroke"/>
<use x="351.34" y="231.00" xlink:href="#hd"/>
<path d="M347.84 231.00v20.30" class="stroke"/>
<use x="373.94" y="228.00" xlink:href="#hl"/>
<use x="373.94" y="222.00" xlink:href="#hl"/>
<use x="373.94" y="222.00" xlink:href="#hd"/>
<path d="M370.44 222.00v25.40" class="stroke"/>
<path class="fill"
	d="M407.54 219.20l55.30 6.30v3.20l-55.30 -6.30"/>
<path class="fill"
	d="M430.44 226.80l16.00 1.80v3.20l-16.00 -1.80"/>
<use x="404.34" y="243.00" xlink:href="#hd"/>
<path d="M407.84 243.00v-22.80" class="stroke"/>
<use x="404.34" y="237.00" xlink:href="#hd"/>
<use x="426.94" y="252.00" xlink:href="#hd"/>
<path d="M430.44 252.00v-29.20" class="stroke"/>
<use x="426.94" y="240.00" xlink:href="#hd"/>
<use x="442.94" y="252.00" xlink:href="#hd"/>
<path d="M446.44 252.00v-27.40" class="stroke"/>
<use x="442.94" y="246.00" xlink:href="#hd"/>
<use x="458.94" y="252.00" xlink:href="#hd"/>
<path d="M462.44 252.00v-25.60" class="stroke"/>
<path class="fill"
	d="M485.64 256.10l71.30 9.10v-3.20l-71.30 -9.10"/>
<path class="fill"
	d="M508.54 254.00l48.10 6.20v-3.20l-48.10 -6.20"/>
<use x="489.44" y="231.00" xlink:href="#hd"/>
<path d="M485.94 231.00v24.20" class="stroke"/>
<use x="512.04" y="234.00" xlink:href="#hd"/>
<path d="M508.54 234.00v24.00" class="stroke"/>
<use x="528.04" y="237.00" xlink:href="#hd"/>
<path d="M524.54 237.00v23.10" class="stroke"/>
<use x="544.04" y="240.00" xlink:href="#hd"/>
<path d="M540.54 240.00v22.10" class="stroke"/>
<use x="560.04" y="243.00" xlink:href="#hd"/>
<path d="M556.54 243.00v21.20" class="stroke"/>
<path class="fill"
	d="M581.64 272.80l64.80 -3.30v-3.20l-64.80 3.30"/>
<use x="585.44" y="243.00" xlink:href="#hd"/>
<path d="M581.94 243.00v28.80" class="stroke"/>
<use x="617.54" y="252.00" xlink:href="#hd"/>
<path d="M614.04 252.00v18.20" class="stroke"/>
<use x="649.54" y="237.00" xlink:href="#hd"/>
<path d="M646.04 237.00v31.60" class="stroke"/>
<path class="fill"
	d="M687.14 260.00l80.80 0.00v-3.20l-80.80 -0.00"/>
<path class="fill"
	d="M687.44 255.00l80.10 0.00v-3.20l-80.10 -0.00"/>
<use x="690.94" y="234.00" xlink:href="#hd"/>
<path d="M687.44 234.00v25.00" class="stroke"/>
<use x="706.94" y="237.00" xlink:href="#hd"/>
<path d="M703.44 237.00v22.00" class="stroke"/>
<use x="722.94" y="240.00" xlink:href="#hd"/>
<path d="M719.44 240.00v19.00" class="stroke"/>
<use x="739.04" y="237.00" xlink:href="#hd"/>
<path d="M735.54 237.00v22.00" class="stroke"/>
<use x="755.04" y="234.00" xlink:href="#hd"/>
<path d="M751.54 234.00v25.00" class="stroke"/>
<use x="771.04" y="231.00" xlink:href="#hd"/>
<path d="M767.54 231.00v28.00" class="stroke"/>
<use x="796.44" y="243.00" xlink:href="#hd"/>
<path d="M792.94 243.00v21.00" class="stroke"/>
<use x="841.54" y="246.00" xlink:href="#r8"/>
<use x="23.54" y="298.00" xlink:href="#bclef"/>
<path class="fill"
	d="M52.44 335.20l73.30 -5.20v-3.20l-73.30 5.20"/>
<path class="fill"
	d="M75.34 328.60l50.00 -3.50v-3.20l-50.00 3.50"/>
<use x="56.34" y="316.00" xlink:href="#hd"/>
<path d="M52.84 316.00v18.20" class="stroke"/>
<use x="78.84" y="289.00" xlink:href="#hd"/>
<path d="M75.34 289.00v43.60" class="stroke"/>
<use x="94.84" y="295.00" xlink:href="#hd"/>
<path d="M91.34 295.00v36.50" class="stroke"/>
<use x="112.84" y="298.00" xlink:href="#hd"/>
<use x="103.84" y="298.00" xlink:href="#sh0"/>
<path d="M109.34 298.00v32.20" class="stroke"/>
<use x="128.94" y="301.00" xlink:href="#hd"/>
<path d="M125.44 301.00v28.10" class="stroke"/>
<use x="167.94" y="298.00" xlink:href="#hd"/>
<use x="158.94" y="298.00" xlink:href="#sh0"/>
<path d="M164.44 298.00v25.00" class="stroke"/>
<use x="167.94" y="304.00" xlink:href="#hd"/>
<use x="213.24" y="298.00" xlink:href="#hd"/>
<path d="M209.74 298.00v28.00" class="stroke"/>
<path class="fill"
	d="M209.74 326.00c0.6 -5.6 9.6 -9 5.6 -18.4
	1.6 6 -1.3 11.6 -5.6 12.8
"/>
<use x="213.24" y="307.00" xlink:href="#hd"/>
<use x="243.74" y="310.00" xlink:href="#hd"/>
<path d="M247.24 310.00v-25.00" class="stroke"/>
<use x="243.74" y="304.00" xlink:href="#hd"/>
<use x="298.34" y="295.00" xlink:href="#hd"/>
<path d="M294.84 295.00v34.00" class="stroke"/>
<path class="fill"
	d="M294.84 329.00c0.6 -5.6 9.6 -9 5.6 -18.4
	1.6 6 -1.3 11.6 -5.6 12.8
"/>
<use x="298.34" y="310.00" xlink:href="#hd"/>
<use x="328.84" y="295.00" xlink:href="#hd"/>
<path d="M325.34 295.00v31.00" class="stroke"/>
<use x="328.84" y="307.00" xlink:href="#hd"/>
<use x="373.94" y="301.00" xlink:href="#hd"/>
<path d="M370.44 301.00v25.00" class="stroke"/>
<path class="fill"
	d="M370.44 326.00c0.6 -5.6 9.6 -9 5.6 -18.4
	1.6 6 -1.3 11.6 -5.6 12.8
"/>
<use x="373.94" y="307.00" xlink:href="#hd"/>
<path class="fill"
	d="M407.54 275.70l23.20 7.60v3.20l-23.20 -7.60"/>
<use x="404.34" y="295.00" xlink:href="#hd"/>
<path d="M407.84 295.00v-18.20" class="stroke"/>
<use x="426.94" y="316.00" xlink:href="#hd"/>
<path d="M430.44 316.00v-31.90" class="stroke"/>
<use x="458.94" y="304.00" xlink:href="#r8"/>
<use x="489.44" y="301.00" xlink:href="#hd"/>
<path d="M485.94 301.00v25.00" class="stroke"/>
<use x="489.44" y="307.00" xlink:href="#hd"/>
<use x="544.04" y="304.00" xlink:href="#r8"/>
<path class="fill"
	d="M581.64 323.90l80.80 0.00v-3.20l-80.80 -0.00"/>
<path class="fill"
	d="M581.94 318.90l80.10 0.00v-3.20l-80.10 -0.00"/>
<use x="585.44" y="301.00" xlink:href="#hd"/>
<path d="M581.94 301.00v21.90" class="stroke"/>
<use x="585.44" y="307.00" xlink:href="#hd"/>
<use x="601.44" y="295.00" xlink:href="#hd"/>
<path d="M597.94 295.00v27.90" class="stroke"/>
<use x="617.54" y="301.00" xlink:href="#hd"/>
<path d="M614.04 301.00v21.90" class="stroke"/>
<use x="617.54" y="307.00" xlink:href="#hd"/>
<use x="633.54" y="295.00" xlink:href="#hd"/>
<path d="M630.04 295.00v27.90" class="stroke"/>
<use x="649.54" y="301.00" xlink:href="#hd"/>
<path d="M646.04 301.00v21.90" class="stroke"/>
<use x="649.54" y="307.00" xlink:href="#hd"/>
<use x="665.54" y="295.00" xlink:href="#hd"/>
<path d="M662.04 295.00v27.90" class="stroke"/>
<path class="fill"
	d="M687.14 317.90l80.80 0.00v-3.20l-80.80 -0.00"/>
<path class="fill"
	d="M687.44 312.90l80.10 0.00v-3.20l-80.10 -0.00"/>
<use x="690.94" y="292.00" xlink:href="#hd"/>
<path d="M687.44 292.00v25.00" class="stroke"/>
<use x="706.94" y="295.00" xlink:href="#hd"/>
<path d="M703.44 295.00v22.00" class="stroke"/>
<use x="722.94" y="298.00" xlink:href="#hd"/>
<path d="M719.44 298.00v19.00" class="stroke"/>
<use x="739.04" y="295.00" xlink:href="#hd"/>
<path d="M735.54 295.00v22.00" class="stroke"/>
<use x="755.04" y="292.00" xlink:href="#hd"/>
<path d="M751.54 292.00v25.00" class="stroke"/>
<use x="771.04" y="289.00" xlink:href="#hd"/>
<path d="M767.54 289.00v28.00" class="stroke"/>
<path class="fill"
	d="M799.54 287.70l45.80 10.20v3.20l-45.80 -10.20"/>
<use x="796.44" y="307.00" xlink:href="#hd"/>
<path d="M799.94 307.00v-18.20" class="stroke"/>
<use x="818.94" y="316.00" xlink:href="#hd"/>
<path d="M822.44 316.00v-22.20" class="stroke"/>
<use x="841.54" y="322.00" xlink:href="#hl"/>
<use x="841.54" y="328.00" xlink:href="#hl"/>
<use x="841.54" y="328.00" xlink:href="#hd"/>
<path d="M845.04 328.00v-29.20" class="stroke"/>
</g>
</svg>
