<?xml version="1.0" standalone="no"?>
<!DOCTYPE svg PUBLIC "-//W3C//DTD SVG 1.1//EN"
	"http://www.w3.org/Graphics/SVG/1.1/DTD/svg11.dtd">
<svg xmlns="http://www.w3.org/2000/svg" version="1.1"
	xmlns:xlink="http://www.w3.org/1999/xlink"
	color="black"
	width="757.10px" height="296.40px">
<style type="text/css">
.fill {fill: currentColor}
.stroke {stroke: currentColor; fill: none}
text{white-space: pre}
</style>
<title>./K516f-10-4-12-9-8-12-2-9-9-11-5-9-7-8-8-4.abc (2275) tune 1</title>
<!-- Creator: abcm2ps-8.13.8 -->
<!-- CreationDate: Sep  7, 2017 11:19 -->
<!-- CommandLine: ./K516f-10-4-12-9-8-12-2-9-9-11-5-9-7-8-8-4.abc -O ./K516f-10-4-12-9-8-12-2-9-9-11-5-9-7-8-8-4.svg -g -->
<rect width="100%" height="100%" fill="white"/>
<g stroke-width="0.70" transform="scale(0.867)">
<!-- title: 10-4-12-9-8-12-2-9-9-11-5-9-7-8-8-4 -->
</g>
<g stroke-width="0.70" transform="scale(0.867)" font-family="Times" font-size="20.00">
<text x="436.84" y="22.00" text-anchor="middle">10-4-12-9-8-12-2-9-9-11-5-9-7-8-8-4</text>
</g>
<g stroke-width="0.70" transform="scale(0.867)" font-family="Times" font-size="20.00">
<!-- subtitle: $1K.516f::98:95:10:50:99:37:11:94:120:4:7:166:101:168:89:79::$0 -->
</g>
<g stroke-width="0.70" transform="scale(0.867)" font-family="Courier" font-size="8.00" font-weight="bold">
<text x="436.84" y="41.80" text-anchor="middle">K.516f::98:95:10:50:99:37:11:94:120:4:7:166:101:168:89:79::</text>
</g>
<g stroke-width="0.70" transform="scale(0.867)" font-family="Courier" font-size="8.00" font-weight="bold">
<!-- subtitle: $1Perm. No.: 227584104641287$0 -->
<text x="436.84" y="60.80" text-anchor="middle">Perm. No.: 227584104641287</text>
</g>
<g stroke-width="0.70" transform="scale(0.607)" font-family="Courier" font-size="8.00" font-weight="bold">
<defs>
<ellipse id="hd" rx="4.1" ry="2.9"
	transform="rotate(-20)" class="fill"/>
</defs>
<use x="103.06" y="121.29" xlink:href="#hd"/>
<path d="M106.56 121.29v-21.00" class="stroke"/>
<path class="fill"
	d="M106.56 100.29c0.6 5.6 9.6 9 5.6 18.4
	1.6 -6 -1.3 -11.6 -5.6 -12.8
"/>
</g>
<g stroke-width="0.70" transform="scale(0.867)" font-family="Times" font-size="15.00" font-weight="bold">
<text x="81.24" y="87.00">= 111</text>
<path class="stroke" stroke-width="1"
	d="M11.54 183.00v-82.00"/>
<path class="fill"
	d="M6.54 98.00
	c10.5 1 12 -4.5 12 -3.5c0 1 -3.5 5.5 -8.5 5.5
	v84.00
	c5 0 8.5 4.5 8.5 5.5c0 1 -1.5 -4.5 -12 -3.5"/>
<defs>
<g id="rdots" class="fill">
	<circle cx="0" cy="-9" r="1.2"/>
	<circle cx="0" cy="-15" r="1.2"/>
</g>
</defs>
<use x="70.54" y="125.00" xlink:href="#rdots"/>
<path class="stroke" stroke-width="1"
	d="M66.54 125.00v-24.00"/>
<path class="stroke" stroke-width="3"
	d="M62.04 125.00v-24.00"/>
<use x="70.54" y="183.00" xlink:href="#rdots"/>
<path class="stroke" stroke-width="1"
	d="M66.54 183.00v-58.00"/>
<path class="stroke" stroke-width="3"
	d="M62.04 183.00v-58.00"/>
<path class="stroke" stroke-width="1"
	d="M182.34 125.00v-24.00"/>
<path class="stroke" stroke-width="1"
	d="M182.34 183.00v-58.00"/>
<path class="stroke" stroke-width="1"
	d="M261.84 125.00v-24.00"/>
<path class="stroke" stroke-width="1"
	d="M261.84 183.00v-58.00"/>
<path class="stroke" stroke-width="1"
	d="M372.74 125.00v-24.00"/>
<path class="stroke" stroke-width="1"
	d="M372.74 183.00v-58.00"/>
<path class="stroke" stroke-width="1"
	d="M462.14 125.00v-24.00"/>
<path class="stroke" stroke-width="1"
	d="M462.14 183.00v-58.00"/>
<path class="stroke" stroke-width="1"
	d="M546.84 125.00v-24.00"/>
<path class="stroke" stroke-width="1"
	d="M546.84 183.00v-58.00"/>
<path class="stroke" stroke-width="1"
	d="M646.14 125.00v-24.00"/>
<path class="stroke" stroke-width="1"
	d="M646.14 183.00v-58.00"/>
<path class="stroke" stroke-width="1"
	d="M758.14 125.00v-24.00"/>
<path class="stroke" stroke-width="1"
	d="M758.14 183.00v-58.00"/>
<path class="stroke" stroke-width="3"
	d="M860.54 125.00v-24.00"/>
<path class="stroke" stroke-width="1"
	d="M856.04 125.00v-24.00"/>
<use x="852.04" y="125.00" xlink:href="#rdots"/>
<path class="stroke" stroke-width="3"
	d="M860.54 183.00v-58.00"/>
<path class="stroke" stroke-width="1"
	d="M856.04 183.00v-58.00"/>
<use x="852.04" y="183.00" xlink:href="#rdots"/>
<path d="m11.54 125.00
	h850.50
	M11.54 119.00
	h850.50
	M11.54 113.00
	h850.50
	M11.54 107.00
	h850.50
	M11.54 101.00
	h850.50
	" class="stroke"/>
<path d="m11.54 183.00
	h850.50
	M11.54 177.00
	h850.50
	M11.54 171.00
	h850.50
	M11.54 165.00
	h850.50
	M11.54 159.00
	h850.50
	" class="stroke"/>
</g>
<g stroke-width="0.70" transform="scale(0.867)" font-family="Times" font-size="13.00">
<text x="762.14" y="86.40">1</text>
<path class="stroke"
	d="M758.14 75.00m0 20v-20h95.90v20"/>
<defs>
<path id="utclef" class="fill" d="m-50 -90
	c-72 -41 -72 -158 52 -188
	150 -10 220 188 90 256
	-114 52 -275 0 -293 -136
	-15 -181 93 -229 220 -334
	88 -87 79 -133 62 -210
	-51 33 -94 105 -89 186
	17 267 36 374 49 574
	6 96 -19 134 -77 135
	-80 1 -126 -93 -61 -133
	85 -41 133 101 31 105
	23 17 92 37 90 -92
	-10 -223 -39 -342 -50 -617
	0 -90 0 -162 96 -232
	56 72 63 230 22 289
	-74 106 -257 168 -255 316
	9 153 148 185 252 133
	86 -65 29 -192 -80 -176
	-71 12 -105 67 -59 124"/>
<use id="tclef" transform="translate(0,6) scale(0.045)"
	xlink:href="#utclef"/>
</defs>
<use x="23.54" y="119.00" xlink:href="#tclef"/>
<g font-family="serif" font-size="16" font-weight="bold" font-style="normal"
	transform="translate(42.04,124.50) scale(1.2,1)">
	<text text-anchor="middle">8</text>
	<text y="-12" text-anchor="middle">3</text>
</g>
<path class="fill"
	d="M81.04 139.80l68.10 -3.30v-3.20l-68.10 3.30"/>
<use x="84.94" y="110.00" xlink:href="#hd"/>
<path d="M81.44 110.00v28.80" class="stroke"/>
<use x="118.64" y="119.00" xlink:href="#hd"/>
<path d="M115.14 119.00v18.20" class="stroke"/>
<use x="152.34" y="104.00" xlink:href="#hd"/>
<path d="M148.84 104.00v31.60" class="stroke"/>
<path class="fill"
	d="M191.94 121.20l48.20 8.10v-3.20l-48.20 -8.10"/>
<use x="195.74" y="98.00" xlink:href="#hd"/>
<path d="M192.24 98.00v22.20" class="stroke"/>
<use x="219.54" y="104.00" xlink:href="#hd"/>
<path d="M216.04 104.00v20.20" class="stroke"/>
<use x="243.24" y="110.00" xlink:href="#hd"/>
<path d="M239.74 110.00v18.20" class="stroke"/>
<path class="fill"
	d="M271.44 138.20l84.90 0.00v-3.20l-84.90 -0.00"/>
<path class="fill"
	d="M271.74 133.20l84.30 0.00v-3.20l-84.30 -0.00"/>
<use x="275.24" y="113.00" xlink:href="#hd"/>
<path d="M271.74 113.00v24.20" class="stroke"/>
<use x="292.14" y="116.00" xlink:href="#hd"/>
<path d="M288.64 116.00v21.20" class="stroke"/>
<use x="308.94" y="113.00" xlink:href="#hd"/>
<path d="M305.44 113.00v24.20" class="stroke"/>
<use x="325.84" y="110.00" xlink:href="#hd"/>
<path d="M322.34 110.00v27.20" class="stroke"/>
<use x="342.64" y="107.00" xlink:href="#hd"/>
<path d="M339.14 107.00v30.20" class="stroke"/>
<use x="359.54" y="113.00" xlink:href="#hd"/>
<path d="M356.04 113.00v24.20" class="stroke"/>
<path class="fill"
	d="M382.24 133.50l58.20 4.70v-3.20l-58.20 -4.70"/>
<path class="fill"
	d="M406.34 130.50l16.90 1.40v-3.20l-16.90 -1.40"/>
<use x="386.04" y="110.00" xlink:href="#hd"/>
<path d="M382.54 110.00v22.60" class="stroke"/>
<use x="409.84" y="104.00" xlink:href="#hd"/>
<path d="M406.34 104.00v30.50" class="stroke"/>
<use x="426.74" y="110.00" xlink:href="#hd"/>
<path d="M423.24 110.00v25.80" class="stroke"/>
<use x="443.54" y="119.00" xlink:href="#hd"/>
<path d="M440.04 119.00v18.20" class="stroke"/>
<path class="fill"
	d="M476.84 123.10l48.20 3.20v-3.20l-48.20 -3.20"/>
<use x="480.64" y="101.00" xlink:href="#hd"/>
<defs>
<path id="usharp" class="fill" d="
	m136 -702
	v890
	h32
	v-890
	m128 840
	h32
	v-888
	h-32
	m-232 286
	v116
	l338 -96
	v-116
	m-338 442
	v116
	l338 -98
	v-114"/>
<use id="sh0" transform="translate(-4,5) scale(0.018)"
	xlink:href="#usharp"/>
</defs>
<use x="471.64" y="101.00" xlink:href="#sh0"/>
<path d="M477.14 101.00v21.10" class="stroke"/>
<defs>
<path id="hl" class="stroke" d="m-6 0h12"/>
</defs>
<use x="504.44" y="95.00" xlink:href="#hl"/>
<use x="504.44" y="95.00" xlink:href="#hd"/>
<path d="M500.94 95.00v28.60" class="stroke"/>
<use x="528.24" y="107.00" xlink:href="#hd"/>
<path d="M524.74 107.00v18.20" class="stroke"/>
<path class="fill"
	d="M556.34 124.00l68.10 8.30v-3.20l-68.10 -8.30"/>
<path class="fill"
	d="M556.64 119.00l50.60 6.10v-3.20l-50.60 -6.10"/>
<use x="560.14" y="98.00" xlink:href="#hd"/>
<path d="M556.64 98.00v25.00" class="stroke"/>
<use x="577.04" y="95.00" xlink:href="#hl"/>
<use x="577.04" y="92.00" xlink:href="#hd"/>
<path d="M573.54 92.00v33.10" class="stroke"/>
<use x="593.84" y="98.00" xlink:href="#hd"/>
<path d="M590.34 98.00v29.10" class="stroke"/>
<use x="610.74" y="107.00" xlink:href="#hd"/>
<path d="M607.24 107.00v22.20" class="stroke"/>
<use x="627.54" y="113.00" xlink:href="#hd"/>
<path d="M624.04 113.00v18.20" class="stroke"/>
<path class="fill"
	d="M662.64 81.80l86.10 8.40v3.20l-86.10 -8.40"/>
<path class="fill"
	d="M663.04 86.80l85.40 8.30v3.20l-85.40 -8.30"/>
<use x="659.54" y="104.00" xlink:href="#hd"/>
<path d="M663.04 104.00v-21.20" class="stroke"/>
<use x="676.34" y="110.00" xlink:href="#hd"/>
<path d="M679.84 110.00v-25.60" class="stroke"/>
<use x="693.24" y="113.00" xlink:href="#hd"/>
<path d="M696.74 113.00v-26.90" class="stroke"/>
<use x="710.04" y="116.00" xlink:href="#hd"/>
<path d="M713.54 116.00v-28.30" class="stroke"/>
<use x="726.94" y="119.00" xlink:href="#hd"/>
<path d="M730.44 119.00v-29.60" class="stroke"/>
<use x="744.94" y="122.00" xlink:href="#hd"/>
<use x="735.94" y="122.00" xlink:href="#sh0"/>
<path d="M748.44 122.00v-30.90" class="stroke"/>
<use x="771.54" y="98.00" xlink:href="#hd"/>
<path d="M768.04 98.00v40.00" class="stroke"/>
<use x="771.54" y="119.00" xlink:href="#hd"/>
<use x="771.54" y="113.00" xlink:href="#hd"/>
<use x="771.54" y="107.00" xlink:href="#hd"/>
<defs>
<path id="r8e" class="fill" d="m 0 0
	c-1.5 1.5 -2.4 2 -3.6 2
	2.4 -2.8 -2.8 -4 -2.8 -1.2
	c0 2.7 4.3 2.4 5.9 0.6"/>
<g id="r8">
	<path d="m3.3 -4l-3.4 9.6" class="stroke"/>
	<use x="3.4" y="-4" xlink:href="#r8e"/>
</g>
</defs>
<use x="830.14" y="113.00" xlink:href="#r8"/>
<defs>
<path id="ubclef" class="fill" d="m-200 -87
	c124 -35 222 -78 254 -236
	43 -228 -167 -246 -192 -103
	59 -80 157 22 92 78
	-62 47 -115 -22 -106 -88
	21 -141 270 -136 274 52
	-1 175 -106 264 -322 297
	m357 -250
	c0 -36 51 -34 51 0
	0 37 -51 36 -51 0
	m-2 -129
	c0 -36 51 -34 51 0
	0 38 -51 37 -51 0"/>
<use id="bclef" transform="translate(0,18) scale(0.045)"
	xlink:href="#ubclef"/>
</defs>
<use x="23.54" y="165.00" xlink:href="#bclef"/>
<g font-family="serif" font-size="16" font-weight="bold" font-style="normal"
	transform="translate(42.04,182.50) scale(1.2,1)">
	<text text-anchor="middle">8</text>
	<text y="-12" text-anchor="middle">3</text>
</g>
<path class="fill"
	d="M81.04 190.90l84.90 0.00v-3.20l-84.90 -0.00"/>
<path class="fill"
	d="M81.44 185.90l84.30 0.00v-3.20l-84.30 -0.00"/>
<use x="84.94" y="168.00" xlink:href="#hd"/>
<path d="M81.44 168.00v21.90" class="stroke"/>
<use x="84.94" y="174.00" xlink:href="#hd"/>
<use x="101.74" y="162.00" xlink:href="#hd"/>
<path d="M98.24 162.00v27.90" class="stroke"/>
<use x="118.64" y="168.00" xlink:href="#hd"/>
<path d="M115.14 168.00v21.90" class="stroke"/>
<use x="118.64" y="174.00" xlink:href="#hd"/>
<use x="135.44" y="162.00" xlink:href="#hd"/>
<path d="M131.94 162.00v27.90" class="stroke"/>
<use x="152.34" y="168.00" xlink:href="#hd"/>
<path d="M148.84 168.00v21.90" class="stroke"/>
<use x="152.34" y="174.00" xlink:href="#hd"/>
<use x="169.14" y="162.00" xlink:href="#hd"/>
<path d="M165.64 162.00v27.90" class="stroke"/>
<use x="195.74" y="168.00" xlink:href="#hd"/>
<path d="M199.24 168.00v-21.00" class="stroke"/>
<use x="243.24" y="171.00" xlink:href="#r8"/>
<use x="275.24" y="162.00" xlink:href="#hd"/>
<path d="M271.74 162.00v21.00" class="stroke"/>
<use x="342.64" y="171.00" xlink:href="#r8"/>
<use x="386.04" y="162.00" xlink:href="#hd"/>
<path d="M382.54 162.00v25.00" class="stroke"/>
<use x="386.04" y="168.00" xlink:href="#hd"/>
<use x="443.54" y="171.00" xlink:href="#r8"/>
<use x="480.64" y="159.00" xlink:href="#hd"/>
<path d="M477.14 159.00v34.00" class="stroke"/>
<use x="480.64" y="174.00" xlink:href="#hd"/>
<use x="528.24" y="159.00" xlink:href="#hd"/>
<path d="M524.74 159.00v34.00" class="stroke"/>
<path class="fill"
	d="M524.74 193.00c0.6 -5.6 9.6 -9 5.6 -18.4
	1.6 6 -1.3 11.6 -5.6 12.8
"/>
<use x="528.24" y="174.00" xlink:href="#hd"/>
<use x="560.14" y="177.00" xlink:href="#hd"/>
<path d="M563.64 177.00v-25.00" class="stroke"/>
<use x="560.14" y="171.00" xlink:href="#hd"/>
<use x="627.54" y="171.00" xlink:href="#r8"/>
<path class="fill"
	d="M662.64 147.70l68.10 8.30v3.20l-68.10 -8.30"/>
<use x="659.54" y="174.00" xlink:href="#hd"/>
<path d="M663.04 174.00v-25.30" class="stroke"/>
<use x="693.24" y="171.00" xlink:href="#hd"/>
<path d="M696.74 171.00v-18.20" class="stroke"/>
<use x="726.94" y="189.00" xlink:href="#hl"/>
<use x="726.94" y="192.00" xlink:href="#hd"/>
<path d="M730.44 192.00v-35.10" class="stroke"/>
<path class="fill"
	d="M767.64 202.20l76.20 0.00v-3.20l-76.20 -0.00"/>
<path class="fill"
	d="M791.74 197.20l51.70 0.00v-3.20l-51.70 -0.00"/>
<use x="771.54" y="183.00" xlink:href="#hd"/>
<path d="M768.04 183.00v18.20" class="stroke"/>
<use x="795.24" y="162.00" xlink:href="#hd"/>
<path d="M791.74 162.00v39.20" class="stroke"/>
<use x="813.24" y="165.00" xlink:href="#hd"/>
<defs>
<path id="unat" class="fill" d="
	m96 -750
	h-32
	v716
	l32 -8
	182 -54
	v282
	h32
	v-706
	l-34 10
	-180 50
	v-290
	m0 592
	v-190
	l182 -52
	v188"/>
<use id="nt0" transform="translate(-3,5) scale(0.018)"
	xlink:href="#unat"/>
</defs>
<use x="804.24" y="165.00" xlink:href="#nt0"/>
<path d="M809.74 165.00v36.20" class="stroke"/>
<use x="830.14" y="168.00" xlink:href="#hd"/>
<path d="M826.64 168.00v33.20" class="stroke"/>
<use x="846.94" y="171.00" xlink:href="#hd"/>
<path d="M843.44 171.00v30.20" class="stroke"/>
<use x="195.74" y="174.00" xlink:href="#hd"/>
<path d="M192.24 174.00v21.00" class="stroke"/>
</g>
<g stroke-width="0.70" transform="scale(0.867)" font-family="Times" font-size="13.00">
<path class="stroke" stroke-width="1"
	d="M11.54 316.00v-82.00"/>
<path class="fill"
	d="M6.54 231.00
	c10.5 1 12 -4.5 12 -3.5c0 1 -3.5 5.5 -8.5 5.5
	v84.00
	c5 0 8.5 4.5 8.5 5.5c0 1 -1.5 -4.5 -12 -3.5"/>
<use x="144.44" y="258.00" xlink:href="#rdots"/>
<path class="stroke" stroke-width="1"
	d="M140.44 258.00v-24.00"/>
<path class="stroke" stroke-width="3"
	d="M135.94 258.00v-24.00"/>
<use x="144.44" y="316.00" xlink:href="#rdots"/>
<path class="stroke" stroke-width="1"
	d="M140.44 316.00v-58.00"/>
<path class="stroke" stroke-width="3"
	d="M135.94 316.00v-58.00"/>
<path class="stroke" stroke-width="1"
	d="M245.44 258.00v-24.00"/>
<path class="stroke" stroke-width="1"
	d="M245.44 316.00v-58.00"/>
<path class="stroke" stroke-width="1"
	d="M327.14 258.00v-24.00"/>
<path class="stroke" stroke-width="1"
	d="M327.14 316.00v-58.00"/>
<path class="stroke" stroke-width="1"
	d="M427.14 258.00v-24.00"/>
<path class="stroke" stroke-width="1"
	d="M427.14 316.00v-58.00"/>
<path class="stroke" stroke-width="1"
	d="M516.24 258.00v-24.00"/>
<path class="stroke" stroke-width="1"
	d="M516.24 316.00v-58.00"/>
<path class="stroke" stroke-width="1"
	d="M616.24 258.00v-24.00"/>
<path class="stroke" stroke-width="1"
	d="M616.24 316.00v-58.00"/>
<path class="stroke" stroke-width="1"
	d="M707.14 258.00v-24.00"/>
<path class="stroke" stroke-width="1"
	d="M707.14 316.00v-58.00"/>
<path class="stroke" stroke-width="1"
	d="M787.24 258.00v-24.00"/>
<path class="stroke" stroke-width="1"
	d="M787.24 316.00v-58.00"/>
<path class="stroke" stroke-width="3"
	d="M860.54 258.00v-24.00"/>
<path class="stroke" stroke-width="1"
	d="M856.04 258.00v-24.00"/>
<use x="852.04" y="258.00" xlink:href="#rdots"/>
<path class="stroke" stroke-width="3"
	d="M860.54 316.00v-58.00"/>
<path class="stroke" stroke-width="1"
	d="M856.04 316.00v-58.00"/>
<use x="852.04" y="316.00" xlink:href="#rdots"/>
<path d="m11.54 258.00
	h850.50
	M11.54 252.00
	h850.50
	M11.54 246.00
	h850.50
	M11.54 240.00
	h850.50
	M11.54 234.00
	h850.50
	" class="stroke"/>
<path d="m11.54 316.00
	h850.50
	M11.54 310.00
	h850.50
	M11.54 304.00
	h850.50
	M11.54 298.00
	h850.50
	M11.54 292.00
	h850.50
	" class="stroke"/>
<text x="47.54" y="219.40">2</text>
<path class="stroke"
	d="M43.54 208.00m0 20v-20h89.90v20"/>
<use x="23.54" y="252.00" xlink:href="#tclef"/>
<use x="56.04" y="231.00" xlink:href="#hd"/>
<path d="M52.54 231.00v40.00" class="stroke"/>
<use x="56.04" y="252.00" xlink:href="#hd"/>
<use x="56.04" y="246.00" xlink:href="#hd"/>
<use x="56.04" y="240.00" xlink:href="#hd"/>
<use x="109.94" y="246.00" xlink:href="#r8"/>
<path class="fill"
	d="M160.14 260.60l69.70 10.70v-3.20l-69.70 -10.70"/>
<path class="fill"
	d="M181.44 258.80l48.00 7.40v-3.20l-48.00 -7.40"/>
<use x="163.94" y="228.00" xlink:href="#hl"/>
<use x="163.94" y="222.00" xlink:href="#hl"/>
<use x="163.94" y="219.00" xlink:href="#hd"/>
<path d="M160.44 219.00v40.60" class="stroke"/>
<use x="184.94" y="228.00" xlink:href="#hl"/>
<use x="184.94" y="228.00" xlink:href="#hd"/>
<path d="M181.44 228.00v34.80" class="stroke"/>
<use x="202.94" y="234.00" xlink:href="#hd"/>
<use x="193.94" y="234.00" xlink:href="#sh0"/>
<path d="M199.44 234.00v31.60" class="stroke"/>
<use x="217.94" y="240.00" xlink:href="#hd"/>
<path d="M214.44 240.00v27.90" class="stroke"/>
<use x="232.94" y="249.00" xlink:href="#hd"/>
<path d="M229.44 249.00v21.20" class="stroke"/>
<use x="257.94" y="231.00" xlink:href="#hd"/>
<path d="M254.44 231.00v21.00" class="stroke"/>
<path class="fill"
	d="M254.44 252.00c0.6 -5.6 9.6 -9 5.6 -18.4
	1.6 6 -1.3 11.6 -5.6 12.8
"/>
<use x="289.54" y="240.00" xlink:href="#hd"/>
<path d="M286.04 240.00v21.00" class="stroke"/>
<path class="fill"
	d="M335.84 266.60l75.60 -6.80v-3.20l-75.60 6.80"/>
<path class="fill"
	d="M336.14 261.50l74.90 -6.70v-3.20l-74.90 6.70"/>
<use x="339.64" y="237.00" xlink:href="#hd"/>
<path d="M336.14 237.00v28.50" class="stroke"/>
<use x="354.64" y="243.00" xlink:href="#hd"/>
<path d="M351.14 243.00v21.20" class="stroke"/>
<use x="369.64" y="237.00" xlink:href="#hd"/>
<path d="M366.14 237.00v25.90" class="stroke"/>
<use x="384.64" y="231.00" xlink:href="#hd"/>
<path d="M381.14 231.00v30.50" class="stroke"/>
<use x="399.64" y="228.00" xlink:href="#hl"/>
<use x="399.64" y="222.00" xlink:href="#hl"/>
<use x="399.64" y="222.00" xlink:href="#hd"/>
<path d="M396.14 222.00v38.20" class="stroke"/>
<use x="414.64" y="231.00" xlink:href="#hd"/>
<path d="M411.14 231.00v27.80" class="stroke"/>
<path class="fill"
	d="M435.74 262.20l60.60 5.40v-3.20l-60.60 -5.40"/>
<path class="fill"
	d="M436.14 257.20l45.00 4.00v-3.20l-45.00 -4.00"/>
<use x="439.64" y="240.00" xlink:href="#hd"/>
<path d="M436.14 240.00v21.20" class="stroke"/>
<use x="454.54" y="228.00" xlink:href="#hl"/>
<use x="454.54" y="225.00" xlink:href="#hd"/>
<path d="M451.04 225.00v37.50" class="stroke"/>
<use x="469.54" y="231.00" xlink:href="#hd"/>
<path d="M466.04 231.00v32.90" class="stroke"/>
<use x="484.54" y="240.00" xlink:href="#hd"/>
<path d="M481.04 240.00v25.20" class="stroke"/>
<use x="499.54" y="246.00" xlink:href="#hd"/>
<path d="M496.04 246.00v20.50" class="stroke"/>
<path class="fill"
	d="M524.94 263.50l75.60 -6.30v-3.20l-75.60 6.30"/>
<path class="fill"
	d="M525.24 258.40l74.90 -6.20v-3.20l-74.90 6.20"/>
<use x="528.74" y="237.00" xlink:href="#hd"/>
<path d="M525.24 237.00v25.40" class="stroke"/>
<use x="543.74" y="240.00" xlink:href="#hd"/>
<path d="M540.24 240.00v21.20" class="stroke"/>
<use x="558.74" y="237.00" xlink:href="#hd"/>
<path d="M555.24 237.00v23.00" class="stroke"/>
<use x="573.74" y="231.00" xlink:href="#hd"/>
<path d="M570.24 231.00v27.70" class="stroke"/>
<use x="588.74" y="228.00" xlink:href="#hl"/>
<use x="588.74" y="222.00" xlink:href="#hl"/>
<use x="588.74" y="222.00" xlink:href="#hd"/>
<path d="M585.24 222.00v35.50" class="stroke"/>
<use x="603.74" y="231.00" xlink:href="#hd"/>
<path d="M600.24 231.00v25.20" class="stroke"/>
<path class="fill"
	d="M624.84 256.30l66.60 9.00v-3.20l-66.60 -9.00"/>
<path class="fill"
	d="M646.14 254.10l45.00 6.10v-3.20l-45.00 -6.10"/>
<use x="628.74" y="231.00" xlink:href="#hd"/>
<path d="M625.24 231.00v24.30" class="stroke"/>
<use x="649.64" y="234.00" xlink:href="#hd"/>
<path d="M646.14 234.00v24.10" class="stroke"/>
<use x="664.64" y="237.00" xlink:href="#hd"/>
<path d="M661.14 237.00v23.20" class="stroke"/>
<use x="679.64" y="240.00" xlink:href="#hd"/>
<path d="M676.14 240.00v22.20" class="stroke"/>
<use x="694.64" y="243.00" xlink:href="#hd"/>
<path d="M691.14 243.00v21.20" class="stroke"/>
<path class="fill"
	d="M715.74 260.00l51.60 0.00v-3.20l-51.60 -0.00"/>
<path class="fill"
	d="M716.14 255.00l15.00 0.00v-3.20l-15.00 -0.00"/>
<use x="719.64" y="234.00" xlink:href="#hd"/>
<path d="M716.14 234.00v25.00" class="stroke"/>
<use x="734.54" y="237.00" xlink:href="#hd"/>
<path d="M731.04 237.00v22.00" class="stroke"/>
<use x="749.54" y="240.00" xlink:href="#hd"/>
<path d="M746.04 240.00v19.00" class="stroke"/>
<use x="770.54" y="231.00" xlink:href="#hd"/>
<path d="M767.04 231.00v28.00" class="stroke"/>
<use x="799.74" y="243.00" xlink:href="#hd"/>
<path d="M796.24 243.00v21.00" class="stroke"/>
<use x="841.54" y="246.00" xlink:href="#r8"/>
<use x="23.54" y="298.00" xlink:href="#bclef"/>
<path class="fill"
	d="M52.24 335.20l69.60 -5.00v-3.20l-69.60 5.00"/>
<path class="fill"
	d="M73.44 328.70l48.00 -3.50v-3.20l-48.00 3.50"/>
<use x="56.04" y="316.00" xlink:href="#hd"/>
<path d="M52.54 316.00v18.20" class="stroke"/>
<use x="76.94" y="289.00" xlink:href="#hd"/>
<path d="M73.44 289.00v43.70" class="stroke"/>
<use x="91.94" y="295.00" xlink:href="#hd"/>
<path d="M88.44 295.00v36.60" class="stroke"/>
<use x="109.94" y="298.00" xlink:href="#hd"/>
<use x="100.94" y="298.00" xlink:href="#sh0"/>
<path d="M106.44 298.00v32.30" class="stroke"/>
<use x="124.94" y="301.00" xlink:href="#hd"/>
<path d="M121.44 301.00v28.20" class="stroke"/>
<use x="163.94" y="298.00" xlink:href="#hd"/>
<use x="154.94" y="298.00" xlink:href="#sh0"/>
<path d="M160.44 298.00v25.00" class="stroke"/>
<use x="163.94" y="304.00" xlink:href="#hd"/>
<use x="217.94" y="298.00" xlink:href="#hd"/>
<path d="M214.44 298.00v28.00" class="stroke"/>
<path class="fill"
	d="M214.44 326.00c0.6 -5.6 9.6 -9 5.6 -18.4
	1.6 6 -1.3 11.6 -5.6 12.8
"/>
<use x="217.94" y="307.00" xlink:href="#hd"/>
<path class="fill"
	d="M254.14 338.30l53.20 -10.60v-3.20l-53.20 10.60"/>
<path class="fill"
	d="M254.44 333.20l15.00 -3.00v-3.20l-15.00 3.00"/>
<use x="257.94" y="316.00" xlink:href="#hd"/>
<path d="M254.44 316.00v21.20" class="stroke"/>
<use x="272.94" y="310.00" xlink:href="#hd"/>
<path d="M269.44 310.00v24.20" class="stroke"/>
<use x="289.54" y="295.00" xlink:href="#hd"/>
<path d="M286.04 295.00v35.90" class="stroke"/>
<use x="310.44" y="289.00" xlink:href="#hd"/>
<path d="M306.94 289.00v37.70" class="stroke"/>
<use x="339.64" y="295.00" xlink:href="#hd"/>
<path d="M336.14 295.00v31.00" class="stroke"/>
<use x="339.64" y="307.00" xlink:href="#hd"/>
<use x="399.64" y="304.00" xlink:href="#r8"/>
<use x="439.64" y="289.00" xlink:href="#hd"/>
<path d="M436.14 289.00v25.00" class="stroke"/>
<use x="439.64" y="295.00" xlink:href="#hd"/>
<use x="499.54" y="304.00" xlink:href="#r8"/>
<use x="528.74" y="295.00" xlink:href="#hd"/>
<path d="M532.24 295.00v-21.00" class="stroke"/>
<use x="588.74" y="301.00" xlink:href="#hd"/>
<path d="M592.24 301.00v-21.00" class="stroke"/>
<path class="fill"
	d="M592.24 280.00c0.6 5.6 9.6 9 5.6 18.4
	1.6 -6 -1.3 -11.6 -5.6 -12.8
"/>
<use x="628.74" y="301.00" xlink:href="#hd"/>
<path d="M625.24 301.00v25.00" class="stroke"/>
<use x="628.74" y="307.00" xlink:href="#hd"/>
<use x="679.64" y="295.00" xlink:href="#hd"/>
<path d="M676.14 295.00v25.00" class="stroke"/>
<path class="fill"
	d="M676.14 320.00c0.6 -5.6 9.6 -9 5.6 -18.4
	1.6 6 -1.3 11.6 -5.6 12.8
"/>
<use x="679.64" y="301.00" xlink:href="#hd"/>
<path class="fill"
	d="M715.74 323.90l51.60 0.00v-3.20l-51.60 -0.00"/>
<path class="fill"
	d="M716.14 318.90l15.00 0.00v-3.20l-15.00 -0.00"/>
<use x="719.64" y="298.00" xlink:href="#hd"/>
<path d="M716.14 298.00v24.90" class="stroke"/>
<use x="734.54" y="301.00" xlink:href="#hd"/>
<path d="M731.04 301.00v21.90" class="stroke"/>
<use x="749.54" y="304.00" xlink:href="#hd"/>
<path d="M746.04 304.00v18.90" class="stroke"/>
<use x="770.54" y="295.00" xlink:href="#hd"/>
<path d="M767.04 295.00v27.90" class="stroke"/>
<path class="fill"
	d="M802.84 287.70l42.50 9.80v3.20l-42.50 -9.80"/>
<use x="799.74" y="307.00" xlink:href="#hd"/>
<path d="M803.24 307.00v-18.20" class="stroke"/>
<use x="820.64" y="316.00" xlink:href="#hd"/>
<path d="M824.14 316.00v-22.40" class="stroke"/>
<use x="841.54" y="322.00" xlink:href="#hl"/>
<use x="841.54" y="328.00" xlink:href="#hl"/>
<use x="841.54" y="328.00" xlink:href="#hd"/>
<path d="M845.04 328.00v-29.50" class="stroke"/>
<use x="528.74" y="307.00" xlink:href="#hd"/>
<path d="M525.24 307.00v21.00" class="stroke"/>
<use x="588.74" y="307.00" xlink:href="#hd"/>
<path d="M585.24 307.00v21.00" class="stroke"/>
<path class="fill"
	d="M585.24 328.00c0.6 -5.6 9.6 -9 5.6 -18.4
	1.6 6 -1.3 11.6 -5.6 12.8
"/>
<defs>
<text id="trl" font-family="serif" font-size="16" font-style="italic"
	x="-2" y="-4">tr</text>
</defs>
<use x="289.54" y="232.00" xlink:href="#trl"/>
</g>
</svg>
