<?xml version="1.0" standalone="no"?>
<!DOCTYPE svg PUBLIC "-//W3C//DTD SVG 1.1//EN"
	"http://www.w3.org/Graphics/SVG/1.1/DTD/svg11.dtd">
<svg xmlns="http://www.w3.org/2000/svg" version="1.1"
	xmlns:xlink="http://www.w3.org/1999/xlink"
	color="black"
	width="757.10px" height="293.80px">
<style type="text/css">
.fill {fill: currentColor}
.stroke {stroke: currentColor; fill: none}
text{white-space: pre}
</style>
<title>./K516f-8-5-7-8-3-11-10-7-12-4-3-12-4-5-3-12.abc (4477) tune 1</title>
<!-- Creator: abcm2ps-8.13.8 -->
<!-- CreationDate: Sep  7, 2017 11:20 -->
<!-- CommandLine: ./K516f-8-5-7-8-3-11-10-7-12-4-3-12-4-5-3-12.abc -O ./K516f-8-5-7-8-3-11-10-7-12-4-3-12-4-5-3-12.svg -g -->
<rect width="100%" height="100%" fill="white"/>
<g stroke-width="0.70" transform="scale(0.867)">
<!-- title: 8-5-7-8-3-11-10-7-12-4-3-12-4-5-3-12 -->
</g>
<g stroke-width="0.70" transform="scale(0.867)" font-family="Times" font-size="20.00">
<text x="436.84" y="22.00" text-anchor="middle">8-5-7-8-3-11-10-7-12-4-3-12-4-5-3-12</text>
</g>
<g stroke-width="0.70" transform="scale(0.867)" font-family="Times" font-size="20.00">
<!-- subtitle: $1K.516f::152:17:27:53:146:47:62:91:35:139:126:92:73:160:116:131::$0 -->
</g>
<g stroke-width="0.70" transform="scale(0.867)" font-family="Courier" font-size="8.00" font-weight="bold">
<text x="436.84" y="41.80" text-anchor="middle">K.516f::152:17:27:53:146:47:62:91:35:139:126:92:73:160:116:131::</text>
</g>
<g stroke-width="0.70" transform="scale(0.867)" font-family="Courier" font-size="8.00" font-weight="bold">
<!-- subtitle: $1Perm. No.: 44770992043708$0 -->
<text x="436.84" y="60.80" text-anchor="middle">Perm. No.: 44770992043708</text>
</g>
<g stroke-width="0.70" transform="scale(0.607)" font-family="Courier" font-size="8.00" font-weight="bold">
<defs>
<ellipse id="hd" rx="4.1" ry="2.9"
	transform="rotate(-20)" class="fill"/>
</defs>
<use x="103.06" y="121.29" xlink:href="#hd"/>
<path d="M106.56 121.29v-21.00" class="stroke"/>
<path class="fill"
	d="M106.56 100.29c0.6 5.6 9.6 9 5.6 18.4
	1.6 -6 -1.3 -11.6 -5.6 -12.8
"/>
</g>
<g stroke-width="0.70" transform="scale(0.867)" font-family="Times" font-size="15.00" font-weight="bold">
<text x="81.24" y="87.00">= 111</text>
<path class="stroke" stroke-width="1"
	d="M11.54 183.00v-82.00"/>
<path class="fill"
	d="M6.54 98.00
	c10.5 1 12 -4.5 12 -3.5c0 1 -3.5 5.5 -8.5 5.5
	v84.00
	c5 0 8.5 4.5 8.5 5.5c0 1 -1.5 -4.5 -12 -3.5"/>
<defs>
<g id="rdots" class="fill">
	<circle cx="0" cy="-9" r="1.2"/>
	<circle cx="0" cy="-15" r="1.2"/>
</g>
</defs>
<use x="70.54" y="125.00" xlink:href="#rdots"/>
<path class="stroke" stroke-width="1"
	d="M66.54 125.00v-24.00"/>
<path class="stroke" stroke-width="3"
	d="M62.04 125.00v-24.00"/>
<use x="70.54" y="183.00" xlink:href="#rdots"/>
<path class="stroke" stroke-width="1"
	d="M66.54 183.00v-58.00"/>
<path class="stroke" stroke-width="3"
	d="M62.04 183.00v-58.00"/>
<path class="stroke" stroke-width="1"
	d="M170.84 125.00v-24.00"/>
<path class="stroke" stroke-width="1"
	d="M170.84 183.00v-58.00"/>
<path class="stroke" stroke-width="1"
	d="M280.04 125.00v-24.00"/>
<path class="stroke" stroke-width="1"
	d="M280.04 183.00v-58.00"/>
<path class="stroke" stroke-width="1"
	d="M389.14 125.00v-24.00"/>
<path class="stroke" stroke-width="1"
	d="M389.14 183.00v-58.00"/>
<path class="stroke" stroke-width="1"
	d="M477.14 125.00v-24.00"/>
<path class="stroke" stroke-width="1"
	d="M477.14 183.00v-58.00"/>
<path class="stroke" stroke-width="1"
	d="M560.94 125.00v-24.00"/>
<path class="stroke" stroke-width="1"
	d="M560.94 183.00v-58.00"/>
<path class="stroke" stroke-width="1"
	d="M648.94 125.00v-24.00"/>
<path class="stroke" stroke-width="1"
	d="M648.94 183.00v-58.00"/>
<path class="stroke" stroke-width="1"
	d="M759.54 125.00v-24.00"/>
<path class="stroke" stroke-width="1"
	d="M759.54 183.00v-58.00"/>
<path class="stroke" stroke-width="3"
	d="M860.54 125.00v-24.00"/>
<path class="stroke" stroke-width="1"
	d="M856.04 125.00v-24.00"/>
<use x="852.04" y="125.00" xlink:href="#rdots"/>
<path class="stroke" stroke-width="3"
	d="M860.54 183.00v-58.00"/>
<path class="stroke" stroke-width="1"
	d="M856.04 183.00v-58.00"/>
<use x="852.04" y="183.00" xlink:href="#rdots"/>
<path d="m11.54 125.00
	h850.50
	M11.54 119.00
	h850.50
	M11.54 113.00
	h850.50
	M11.54 107.00
	h850.50
	M11.54 101.00
	h850.50
	" class="stroke"/>
<path d="m11.54 183.00
	h850.50
	M11.54 177.00
	h850.50
	M11.54 171.00
	h850.50
	M11.54 165.00
	h850.50
	M11.54 159.00
	h850.50
	" class="stroke"/>
</g>
<g stroke-width="0.70" transform="scale(0.867)" font-family="Times" font-size="13.00">
<text x="763.54" y="86.40">1</text>
<path class="stroke"
	d="M759.54 75.00m0 20v-20h94.50v20"/>
<defs>
<path id="utclef" class="fill" d="m-50 -90
	c-72 -41 -72 -158 52 -188
	150 -10 220 188 90 256
	-114 52 -275 0 -293 -136
	-15 -181 93 -229 220 -334
	88 -87 79 -133 62 -210
	-51 33 -94 105 -89 186
	17 267 36 374 49 574
	6 96 -19 134 -77 135
	-80 1 -126 -93 -61 -133
	85 -41 133 101 31 105
	23 17 92 37 90 -92
	-10 -223 -39 -342 -50 -617
	0 -90 0 -162 96 -232
	56 72 63 230 22 289
	-74 106 -257 168 -255 316
	9 153 148 185 252 133
	86 -65 29 -192 -80 -176
	-71 12 -105 67 -59 124"/>
<use id="tclef" transform="translate(0,6) scale(0.045)"
	xlink:href="#utclef"/>
</defs>
<use x="23.54" y="119.00" xlink:href="#tclef"/>
<g font-family="serif" font-size="16" font-weight="bold" font-style="normal"
	transform="translate(42.04,124.50) scale(1.2,1)">
	<text text-anchor="middle">8</text>
	<text y="-12" text-anchor="middle">3</text>
</g>
<path class="fill"
	d="M80.84 123.00l73.80 9.20v-3.20l-73.80 -9.20"/>
<path class="fill"
	d="M104.54 121.00l49.70 6.20v-3.20l-49.70 -6.20"/>
<use x="84.74" y="98.00" xlink:href="#hd"/>
<path d="M81.24 98.00v24.10" class="stroke"/>
<use x="108.04" y="101.00" xlink:href="#hd"/>
<path d="M104.54 101.00v24.00" class="stroke"/>
<use x="124.64" y="104.00" xlink:href="#hd"/>
<path d="M121.14 104.00v23.10" class="stroke"/>
<use x="141.24" y="107.00" xlink:href="#hd"/>
<path d="M137.74 107.00v22.10" class="stroke"/>
<use x="157.84" y="110.00" xlink:href="#hd"/>
<path d="M154.34 110.00v21.20" class="stroke"/>
<path class="fill"
	d="M180.24 141.20l83.60 0.00v-3.20l-83.60 -0.00"/>
<path class="fill"
	d="M180.54 136.20l82.90 0.00v-3.20l-82.90 -0.00"/>
<use x="184.04" y="110.00" xlink:href="#hd"/>
<path d="M180.54 110.00v30.20" class="stroke"/>
<use x="200.64" y="119.00" xlink:href="#hd"/>
<path d="M197.14 119.00v21.20" class="stroke"/>
<use x="217.24" y="110.00" xlink:href="#hd"/>
<path d="M213.74 110.00v30.20" class="stroke"/>
<use x="233.84" y="104.00" xlink:href="#hd"/>
<path d="M230.34 104.00v36.20" class="stroke"/>
<use x="250.34" y="119.00" xlink:href="#hd"/>
<path d="M246.84 119.00v21.20" class="stroke"/>
<use x="266.94" y="110.00" xlink:href="#hd"/>
<path d="M263.44 110.00v30.20" class="stroke"/>
<path class="fill"
	d="M289.34 129.00l83.60 6.20v-3.20l-83.60 -6.20"/>
<path class="fill"
	d="M289.64 124.10l82.90 6.10v-3.20l-82.90 -6.10"/>
<use x="293.14" y="101.00" xlink:href="#hd"/>
<path d="M289.64 101.00v27.10" class="stroke"/>
<use x="309.74" y="104.00" xlink:href="#hd"/>
<path d="M306.24 104.00v25.30" class="stroke"/>
<use x="326.34" y="101.00" xlink:href="#hd"/>
<path d="M322.84 101.00v29.50" class="stroke"/>
<use x="342.94" y="107.00" xlink:href="#hd"/>
<path d="M339.44 107.00v24.70" class="stroke"/>
<use x="359.54" y="110.00" xlink:href="#hd"/>
<path d="M356.04 110.00v23.00" class="stroke"/>
<use x="376.04" y="113.00" xlink:href="#hd"/>
<path d="M372.54 113.00v21.20" class="stroke"/>
<path class="fill"
	d="M398.44 127.00l57.20 0.00v-3.20l-57.20 -0.00"/>
<path class="fill"
	d="M422.14 122.00l16.60 0.00v-3.20l-16.60 -0.00"/>
<use x="402.34" y="104.00" xlink:href="#hd"/>
<path d="M398.84 104.00v22.00" class="stroke"/>
<use x="402.34" y="110.00" xlink:href="#hd"/>
<use x="425.64" y="104.00" xlink:href="#hd"/>
<path d="M422.14 104.00v22.00" class="stroke"/>
<use x="425.64" y="110.00" xlink:href="#hd"/>
<use x="442.24" y="101.00" xlink:href="#hd"/>
<path d="M438.74 101.00v25.00" class="stroke"/>
<use x="442.24" y="107.00" xlink:href="#hd"/>
<use x="458.84" y="98.00" xlink:href="#hd"/>
<path d="M455.34 98.00v28.00" class="stroke"/>
<use x="458.84" y="104.00" xlink:href="#hd"/>
<path class="fill"
	d="M491.84 139.30l47.60 -8.30v-3.20l-47.60 8.30"/>
<use x="495.64" y="107.00" xlink:href="#hd"/>
<path d="M492.14 107.00v31.20" class="stroke"/>
<use x="495.64" y="122.00" xlink:href="#hd"/>
<defs>
<path id="usharp" class="fill" d="
	m136 -702
	v890
	h32
	v-890
	m128 840
	h32
	v-888
	h-32
	m-232 286
	v116
	l338 -96
	v-116
	m-338 442
	v116
	l338 -98
	v-114"/>
<use id="sh0" transform="translate(-4,5) scale(0.018)"
	xlink:href="#usharp"/>
</defs>
<use x="486.64" y="122.00" xlink:href="#sh0"/>
<use x="519.24" y="101.00" xlink:href="#hd"/>
<use x="510.24" y="101.00" xlink:href="#sh0"/>
<path d="M515.74 101.00v33.10" class="stroke"/>
<use x="519.24" y="107.00" xlink:href="#hd"/>
<defs>
<path id="hl" class="stroke" d="m-6 0h12"/>
</defs>
<use x="542.64" y="95.00" xlink:href="#hl"/>
<use x="542.64" y="95.00" xlink:href="#hd"/>
<path d="M539.14 95.00v35.00" class="stroke"/>
<use x="542.64" y="101.00" xlink:href="#hd"/>
<path class="fill"
	d="M570.24 127.00l57.20 0.00v-3.20l-57.20 -0.00"/>
<path class="fill"
	d="M593.94 122.00l16.60 0.00v-3.20l-16.60 -0.00"/>
<use x="574.14" y="98.00" xlink:href="#hd"/>
<path d="M570.64 98.00v28.00" class="stroke"/>
<use x="597.44" y="98.00" xlink:href="#hd"/>
<path d="M593.94 98.00v28.00" class="stroke"/>
<use x="614.04" y="107.00" xlink:href="#hd"/>
<path d="M610.54 107.00v19.00" class="stroke"/>
<use x="630.64" y="95.00" xlink:href="#hl"/>
<use x="630.64" y="92.00" xlink:href="#hd"/>
<path d="M627.14 92.00v34.00" class="stroke"/>
<path class="fill"
	d="M665.34 81.80l85.00 8.00v3.20l-85.00 -8.00"/>
<path class="fill"
	d="M665.64 86.80l84.30 8.00v3.20l-84.30 -8.00"/>
<use x="662.14" y="104.00" xlink:href="#hd"/>
<path d="M665.64 104.00v-21.20" class="stroke"/>
<use x="678.74" y="110.00" xlink:href="#hd"/>
<path d="M682.24 110.00v-25.60" class="stroke"/>
<use x="695.34" y="113.00" xlink:href="#hd"/>
<path d="M698.84 113.00v-27.10" class="stroke"/>
<use x="711.84" y="119.00" xlink:href="#hd"/>
<path d="M715.34 119.00v-31.50" class="stroke"/>
<use x="728.44" y="116.00" xlink:href="#hd"/>
<path d="M731.94 116.00v-26.90" class="stroke"/>
<use x="746.44" y="122.00" xlink:href="#hd"/>
<use x="737.44" y="122.00" xlink:href="#sh0"/>
<path d="M749.94 122.00v-31.20" class="stroke"/>
<use x="772.64" y="98.00" xlink:href="#hd"/>
<path d="M769.14 98.00v40.00" class="stroke"/>
<use x="772.64" y="119.00" xlink:href="#hd"/>
<use x="772.64" y="113.00" xlink:href="#hd"/>
<use x="772.64" y="107.00" xlink:href="#hd"/>
<defs>
<path id="r8e" class="fill" d="m 0 0
	c-1.5 1.5 -2.4 2 -3.6 2
	2.4 -2.8 -2.8 -4 -2.8 -1.2
	c0 2.7 4.3 2.4 5.9 0.6"/>
<g id="r8">
	<path d="m3.3 -4l-3.4 9.6" class="stroke"/>
	<use x="3.4" y="-4" xlink:href="#r8e"/>
</g>
</defs>
<use x="830.64" y="113.00" xlink:href="#r8"/>
<defs>
<path id="ubclef" class="fill" d="m-200 -87
	c124 -35 222 -78 254 -236
	43 -228 -167 -246 -192 -103
	59 -80 157 22 92 78
	-62 47 -115 -22 -106 -88
	21 -141 270 -136 274 52
	-1 175 -106 264 -322 297
	m357 -250
	c0 -36 51 -34 51 0
	0 37 -51 36 -51 0
	m-2 -129
	c0 -36 51 -34 51 0
	0 38 -51 37 -51 0"/>
<use id="bclef" transform="translate(0,18) scale(0.045)"
	xlink:href="#ubclef"/>
</defs>
<use x="23.54" y="165.00" xlink:href="#bclef"/>
<g font-family="serif" font-size="16" font-weight="bold" font-style="normal"
	transform="translate(42.04,182.50) scale(1.2,1)">
	<text text-anchor="middle">8</text>
	<text y="-12" text-anchor="middle">3</text>
</g>
<use x="84.74" y="168.00" xlink:href="#hd"/>
<path d="M81.24 168.00v25.00" class="stroke"/>
<use x="84.74" y="174.00" xlink:href="#hd"/>
<use x="141.24" y="171.00" xlink:href="#r8"/>
<use x="184.04" y="162.00" xlink:href="#hd"/>
<path d="M180.54 162.00v25.00" class="stroke"/>
<use x="184.04" y="168.00" xlink:href="#hd"/>
<use x="250.34" y="171.00" xlink:href="#r8"/>
<use x="293.14" y="156.00" xlink:href="#hd"/>
<path d="M289.64 156.00v25.00" class="stroke"/>
<use x="293.14" y="162.00" xlink:href="#hd"/>
<use x="359.54" y="171.00" xlink:href="#r8"/>
<use x="402.34" y="174.00" xlink:href="#hd"/>
<path d="M405.84 174.00v-21.00" class="stroke"/>
<use x="458.84" y="171.00" xlink:href="#r8"/>
<path class="fill"
	d="M498.84 153.00l47.60 0.00v3.20l-47.60 -0.00"/>
<use x="495.64" y="174.00" xlink:href="#hd"/>
<path d="M499.14 174.00v-20.00" class="stroke"/>
<use x="519.24" y="174.00" xlink:href="#hd"/>
<path d="M522.74 174.00v-20.00" class="stroke"/>
<use x="542.64" y="174.00" xlink:href="#hd"/>
<path d="M546.14 174.00v-20.00" class="stroke"/>
<use x="574.14" y="177.00" xlink:href="#hd"/>
<path d="M577.64 177.00v-25.00" class="stroke"/>
<use x="574.14" y="171.00" xlink:href="#hd"/>
<use x="630.64" y="171.00" xlink:href="#r8"/>
<path class="fill"
	d="M665.34 147.70l67.00 8.20v3.20l-67.00 -8.20"/>
<use x="662.14" y="174.00" xlink:href="#hd"/>
<path d="M665.64 174.00v-25.30" class="stroke"/>
<use x="695.34" y="171.00" xlink:href="#hd"/>
<path d="M698.84 171.00v-18.20" class="stroke"/>
<use x="728.44" y="189.00" xlink:href="#hl"/>
<use x="728.44" y="192.00" xlink:href="#hd"/>
<path d="M731.94 192.00v-35.10" class="stroke"/>
<path class="fill"
	d="M768.84 202.20l75.20 0.00v-3.20l-75.20 -0.00"/>
<path class="fill"
	d="M792.54 197.20l51.20 0.00v-3.20l-51.20 -0.00"/>
<use x="772.64" y="183.00" xlink:href="#hd"/>
<path d="M769.14 183.00v18.20" class="stroke"/>
<use x="796.04" y="162.00" xlink:href="#hd"/>
<path d="M792.54 162.00v39.20" class="stroke"/>
<use x="814.04" y="165.00" xlink:href="#hd"/>
<defs>
<path id="unat" class="fill" d="
	m96 -750
	h-32
	v716
	l32 -8
	182 -54
	v282
	h32
	v-706
	l-34 10
	-180 50
	v-290
	m0 592
	v-190
	l182 -52
	v188"/>
<use id="nt0" transform="translate(-3,5) scale(0.018)"
	xlink:href="#unat"/>
</defs>
<use x="805.04" y="165.00" xlink:href="#nt0"/>
<path d="M810.54 165.00v36.20" class="stroke"/>
<use x="830.64" y="168.00" xlink:href="#hd"/>
<path d="M827.14 168.00v33.20" class="stroke"/>
<use x="847.24" y="171.00" xlink:href="#hd"/>
<path d="M843.74 171.00v30.20" class="stroke"/>
</g>
<g stroke-width="0.70" transform="scale(0.867)" font-family="Times" font-size="13.00">
<path class="stroke" stroke-width="1"
	d="M11.54 316.00v-82.00"/>
<path class="fill"
	d="M6.54 231.00
	c10.5 1 12 -4.5 12 -3.5c0 1 -3.5 5.5 -8.5 5.5
	v84.00
	c5 0 8.5 4.5 8.5 5.5c0 1 -1.5 -4.5 -12 -3.5"/>
<use x="144.04" y="258.00" xlink:href="#rdots"/>
<path class="stroke" stroke-width="1"
	d="M140.04 258.00v-24.00"/>
<path class="stroke" stroke-width="3"
	d="M135.54 258.00v-24.00"/>
<use x="144.04" y="316.00" xlink:href="#rdots"/>
<path class="stroke" stroke-width="1"
	d="M140.04 316.00v-58.00"/>
<path class="stroke" stroke-width="3"
	d="M135.54 316.00v-58.00"/>
<path class="stroke" stroke-width="1"
	d="M222.24 258.00v-24.00"/>
<path class="stroke" stroke-width="1"
	d="M222.24 316.00v-58.00"/>
<path class="stroke" stroke-width="1"
	d="M310.74 258.00v-24.00"/>
<path class="stroke" stroke-width="1"
	d="M310.74 316.00v-58.00"/>
<path class="stroke" stroke-width="1"
	d="M410.04 258.00v-24.00"/>
<path class="stroke" stroke-width="1"
	d="M410.04 316.00v-58.00"/>
<path class="stroke" stroke-width="1"
	d="M489.64 258.00v-24.00"/>
<path class="stroke" stroke-width="1"
	d="M489.64 316.00v-58.00"/>
<path class="stroke" stroke-width="1"
	d="M588.94 258.00v-24.00"/>
<path class="stroke" stroke-width="1"
	d="M588.94 316.00v-58.00"/>
<path class="stroke" stroke-width="1"
	d="M688.24 258.00v-24.00"/>
<path class="stroke" stroke-width="1"
	d="M688.24 316.00v-58.00"/>
<path class="stroke" stroke-width="1"
	d="M787.54 258.00v-24.00"/>
<path class="stroke" stroke-width="1"
	d="M787.54 316.00v-58.00"/>
<path class="stroke" stroke-width="3"
	d="M860.54 258.00v-24.00"/>
<path class="stroke" stroke-width="1"
	d="M856.04 258.00v-24.00"/>
<use x="852.04" y="258.00" xlink:href="#rdots"/>
<path class="stroke" stroke-width="3"
	d="M860.54 316.00v-58.00"/>
<path class="stroke" stroke-width="1"
	d="M856.04 316.00v-58.00"/>
<use x="852.04" y="316.00" xlink:href="#rdots"/>
<path d="m11.54 258.00
	h850.50
	M11.54 252.00
	h850.50
	M11.54 246.00
	h850.50
	M11.54 240.00
	h850.50
	M11.54 234.00
	h850.50
	" class="stroke"/>
<path d="m11.54 316.00
	h850.50
	M11.54 310.00
	h850.50
	M11.54 304.00
	h850.50
	M11.54 298.00
	h850.50
	M11.54 292.00
	h850.50
	" class="stroke"/>
<text x="47.54" y="219.40">2</text>
<path class="stroke"
	d="M43.54 208.00m0 20v-20h89.50v20"/>
<use x="23.54" y="252.00" xlink:href="#tclef"/>
<use x="56.04" y="231.00" xlink:href="#hd"/>
<path d="M52.54 231.00v40.00" class="stroke"/>
<use x="56.04" y="252.00" xlink:href="#hd"/>
<use x="56.04" y="246.00" xlink:href="#hd"/>
<use x="56.04" y="240.00" xlink:href="#hd"/>
<use x="109.64" y="246.00" xlink:href="#r8"/>
<path class="fill"
	d="M159.64 268.30l42.90 -6.40v-3.20l-42.90 6.40"/>
<use x="163.54" y="249.00" xlink:href="#hd"/>
<path d="M160.04 249.00v18.20" class="stroke"/>
<use x="184.24" y="240.00" xlink:href="#hd"/>
<path d="M180.74 240.00v24.10" class="stroke"/>
<use x="205.74" y="234.00" xlink:href="#hd"/>
<use x="196.74" y="234.00" xlink:href="#sh0"/>
<path d="M202.24 234.00v26.90" class="stroke"/>
<path class="fill"
	d="M230.94 260.00l60.10 0.00v-3.20l-60.10 -0.00"/>
<path class="fill"
	d="M231.24 255.00l44.60 0.00v-3.20l-44.60 -0.00"/>
<use x="234.74" y="231.00" xlink:href="#hd"/>
<path d="M231.24 231.00v28.00" class="stroke"/>
<use x="249.64" y="228.00" xlink:href="#hl"/>
<use x="249.64" y="225.00" xlink:href="#hd"/>
<path d="M246.14 225.00v34.00" class="stroke"/>
<use x="264.44" y="231.00" xlink:href="#hd"/>
<path d="M260.94 231.00v28.00" class="stroke"/>
<use x="279.34" y="228.00" xlink:href="#hl"/>
<use x="279.34" y="225.00" xlink:href="#hd"/>
<path d="M275.84 225.00v34.00" class="stroke"/>
<use x="294.24" y="240.00" xlink:href="#hd"/>
<path d="M290.74 240.00v19.00" class="stroke"/>
<path class="fill"
	d="M319.44 274.20l75.00 0.00v-3.20l-75.00 -0.00"/>
<path class="fill"
	d="M319.74 269.20l74.30 0.00v-3.20l-74.30 -0.00"/>
<use x="323.24" y="243.00" xlink:href="#hd"/>
<path d="M319.74 243.00v30.20" class="stroke"/>
<use x="338.14" y="252.00" xlink:href="#hd"/>
<path d="M334.64 252.00v21.20" class="stroke"/>
<use x="352.94" y="243.00" xlink:href="#hd"/>
<path d="M349.44 243.00v30.20" class="stroke"/>
<use x="367.84" y="237.00" xlink:href="#hd"/>
<path d="M364.34 237.00v36.20" class="stroke"/>
<use x="382.74" y="231.00" xlink:href="#hd"/>
<path d="M379.24 231.00v42.20" class="stroke"/>
<use x="397.54" y="237.00" xlink:href="#hd"/>
<path d="M394.04 237.00v36.20" class="stroke"/>
<use x="397.54" y="243.00" xlink:href="#hd"/>
<path class="fill"
	d="M418.74 264.20l51.10 0.00v-3.20l-51.10 -0.00"/>
<path class="fill"
	d="M439.84 259.20l14.90 0.00v-3.20l-14.90 -0.00"/>
<use x="422.54" y="240.00" xlink:href="#hd"/>
<path d="M419.04 240.00v23.20" class="stroke"/>
<use x="422.54" y="246.00" xlink:href="#hd"/>
<use x="443.34" y="231.00" xlink:href="#hd"/>
<path d="M439.84 231.00v32.20" class="stroke"/>
<use x="458.14" y="228.00" xlink:href="#hl"/>
<use x="458.14" y="225.00" xlink:href="#hd"/>
<path d="M454.64 225.00v38.20" class="stroke"/>
<use x="473.04" y="240.00" xlink:href="#hd"/>
<path d="M469.54 240.00v23.20" class="stroke"/>
<path class="fill"
	d="M498.24 253.70l60.10 8.60v-3.20l-60.10 -8.60"/>
<use x="502.14" y="231.00" xlink:href="#hd"/>
<path d="M498.64 231.00v21.70" class="stroke"/>
<use x="531.84" y="237.00" xlink:href="#hd"/>
<path d="M528.34 237.00v20.00" class="stroke"/>
<use x="561.54" y="243.00" xlink:href="#hd"/>
<path d="M558.04 243.00v18.30" class="stroke"/>
<path class="fill"
	d="M597.54 274.20l75.00 0.00v-3.20l-75.00 -0.00"/>
<path class="fill"
	d="M597.94 269.20l74.30 0.00v-3.20l-74.30 -0.00"/>
<use x="601.44" y="243.00" xlink:href="#hd"/>
<path d="M597.94 243.00v30.20" class="stroke"/>
<use x="616.24" y="246.00" xlink:href="#hd"/>
<path d="M612.74 246.00v27.20" class="stroke"/>
<use x="631.14" y="243.00" xlink:href="#hd"/>
<path d="M627.64 243.00v30.20" class="stroke"/>
<use x="646.04" y="237.00" xlink:href="#hd"/>
<path d="M642.54 237.00v36.20" class="stroke"/>
<use x="660.84" y="252.00" xlink:href="#hd"/>
<path d="M657.34 252.00v21.20" class="stroke"/>
<use x="675.74" y="243.00" xlink:href="#hd"/>
<path d="M672.24 243.00v30.20" class="stroke"/>
<path class="fill"
	d="M696.94 266.00l75.00 0.00v-3.20l-75.00 -0.00"/>
<path class="fill"
	d="M697.24 261.00l74.30 0.00v-3.20l-74.30 -0.00"/>
<use x="700.74" y="240.00" xlink:href="#hd"/>
<path d="M697.24 240.00v24.90" class="stroke"/>
<use x="715.64" y="234.00" xlink:href="#hd"/>
<path d="M712.14 234.00v30.90" class="stroke"/>
<use x="730.44" y="228.00" xlink:href="#hl"/>
<use x="730.44" y="228.00" xlink:href="#hd"/>
<path d="M726.94 228.00v36.90" class="stroke"/>
<use x="745.34" y="234.00" xlink:href="#hd"/>
<path d="M741.84 234.00v30.90" class="stroke"/>
<use x="760.24" y="240.00" xlink:href="#hd"/>
<path d="M756.74 240.00v24.90" class="stroke"/>
<use x="775.04" y="246.00" xlink:href="#hd"/>
<path d="M771.54 246.00v18.90" class="stroke"/>
<use x="800.04" y="243.00" xlink:href="#hd"/>
<path d="M796.54 243.00v21.00" class="stroke"/>
<use x="841.54" y="246.00" xlink:href="#r8"/>
<use x="23.54" y="298.00" xlink:href="#bclef"/>
<path class="fill"
	d="M52.24 335.20l69.10 -5.00v-3.20l-69.10 5.00"/>
<path class="fill"
	d="M73.24 328.70l47.70 -3.50v-3.20l-47.70 3.50"/>
<use x="56.04" y="316.00" xlink:href="#hd"/>
<path d="M52.54 316.00v18.20" class="stroke"/>
<use x="76.74" y="289.00" xlink:href="#hd"/>
<path d="M73.24 289.00v43.70" class="stroke"/>
<use x="91.64" y="295.00" xlink:href="#hd"/>
<path d="M88.14 295.00v36.60" class="stroke"/>
<use x="109.64" y="298.00" xlink:href="#hd"/>
<use x="100.64" y="298.00" xlink:href="#sh0"/>
<path d="M106.14 298.00v32.30" class="stroke"/>
<use x="124.54" y="301.00" xlink:href="#hd"/>
<path d="M121.04 301.00v28.20" class="stroke"/>
<use x="163.54" y="298.00" xlink:href="#hd"/>
<use x="154.54" y="298.00" xlink:href="#sh0"/>
<path d="M160.04 298.00v25.00" class="stroke"/>
<use x="163.54" y="304.00" xlink:href="#hd"/>
<use x="205.74" y="292.00" xlink:href="#hd"/>
<path d="M202.24 292.00v34.00" class="stroke"/>
<path class="fill"
	d="M202.24 326.00c0.6 -5.6 9.6 -9 5.6 -18.4
	1.6 6 -1.3 11.6 -5.6 12.8
"/>
<use x="205.74" y="307.00" xlink:href="#hd"/>
<use x="234.74" y="310.00" xlink:href="#hd"/>
<path d="M238.24 310.00v-21.00" class="stroke"/>
<use x="294.24" y="304.00" xlink:href="#r8"/>
<use x="323.24" y="301.00" xlink:href="#hd"/>
<path d="M319.74 301.00v21.00" class="stroke"/>
<path class="fill"
	d="M378.84 325.80l15.50 3.50v-3.20l-15.50 -3.50"/>
<path class="fill"
	d="M379.24 320.90l14.90 3.30v-3.20l-14.90 -3.30"/>
<use x="382.74" y="301.00" xlink:href="#hd"/>
<path d="M379.24 301.00v23.90" class="stroke"/>
<use x="397.54" y="307.00" xlink:href="#hd"/>
<path d="M394.04 307.00v21.20" class="stroke"/>
<use x="422.54" y="316.00" xlink:href="#hd"/>
<path d="M426.04 316.00v-40.00" class="stroke"/>
<use x="422.54" y="295.00" xlink:href="#hd"/>
<use x="473.04" y="295.00" xlink:href="#hd"/>
<path d="M469.54 295.00v21.00" class="stroke"/>
<path class="fill"
	d="M469.54 316.00c0.6 -5.6 9.6 -9 5.6 -18.4
	1.6 6 -1.3 11.6 -5.6 12.8
"/>
<path class="fill"
	d="M498.24 323.90l75.00 0.00v-3.20l-75.00 -0.00"/>
<path class="fill"
	d="M498.64 318.90l74.30 0.00v-3.20l-74.30 -0.00"/>
<use x="502.14" y="301.00" xlink:href="#hd"/>
<path d="M498.64 301.00v21.90" class="stroke"/>
<use x="502.14" y="307.00" xlink:href="#hd"/>
<use x="516.94" y="295.00" xlink:href="#hd"/>
<path d="M513.44 295.00v27.90" class="stroke"/>
<use x="531.84" y="301.00" xlink:href="#hd"/>
<path d="M528.34 301.00v21.90" class="stroke"/>
<use x="531.84" y="307.00" xlink:href="#hd"/>
<use x="546.74" y="295.00" xlink:href="#hd"/>
<path d="M543.24 295.00v27.90" class="stroke"/>
<use x="561.54" y="301.00" xlink:href="#hd"/>
<path d="M558.04 301.00v21.90" class="stroke"/>
<use x="561.54" y="307.00" xlink:href="#hd"/>
<use x="576.44" y="295.00" xlink:href="#hd"/>
<path d="M572.94 295.00v27.90" class="stroke"/>
<use x="601.44" y="301.00" xlink:href="#hd"/>
<path d="M597.94 301.00v25.00" class="stroke"/>
<use x="601.44" y="307.00" xlink:href="#hd"/>
<use x="660.84" y="301.00" xlink:href="#hd"/>
<path d="M657.34 301.00v25.00" class="stroke"/>
<path class="fill"
	d="M657.34 326.00c0.6 -5.6 9.6 -9 5.6 -18.4
	1.6 6 -1.3 11.6 -5.6 12.8
"/>
<use x="660.84" y="307.00" xlink:href="#hd"/>
<use x="700.74" y="298.00" xlink:href="#hd"/>
<path d="M697.24 298.00v21.00" class="stroke"/>
<use x="760.24" y="295.00" xlink:href="#hd"/>
<path d="M756.74 295.00v21.00" class="stroke"/>
<path class="fill"
	d="M756.74 316.00c0.6 -5.6 9.6 -9 5.6 -18.4
	1.6 6 -1.3 11.6 -5.6 12.8
"/>
<path class="fill"
	d="M803.24 287.70l42.20 9.80v3.20l-42.20 -9.80"/>
<use x="800.04" y="307.00" xlink:href="#hd"/>
<path d="M803.54 307.00v-18.20" class="stroke"/>
<use x="820.84" y="316.00" xlink:href="#hd"/>
<path d="M824.34 316.00v-22.40" class="stroke"/>
<use x="841.54" y="322.00" xlink:href="#hl"/>
<use x="841.54" y="328.00" xlink:href="#hl"/>
<use x="841.54" y="328.00" xlink:href="#hd"/>
<path d="M845.04 328.00v-29.60" class="stroke"/>
</g>
</svg>
