<?xml version="1.0" standalone="no"?>
<!DOCTYPE svg PUBLIC "-//W3C//DTD SVG 1.1//EN"
	"http://www.w3.org/Graphics/SVG/1.1/DTD/svg11.dtd">
<svg xmlns="http://www.w3.org/2000/svg" version="1.1"
	xmlns:xlink="http://www.w3.org/1999/xlink"
	color="black"
	width="757.10px" height="293.80px">
<style type="text/css">
.fill {fill: currentColor}
.stroke {stroke: currentColor; fill: none}
text{white-space: pre}
</style>
<title>./K516f-11-4-4-3-7-6-10-11-7-5-2-8-8-11-3-6.abc (6463) tune 1</title>
<!-- Creator: abcm2ps-8.13.8 -->
<!-- CreationDate: Sep  7, 2017 11:17 -->
<!-- CommandLine: ./K516f-11-4-4-3-7-6-10-11-7-5-2-8-8-11-3-6.abc -O ./K516f-11-4-4-3-7-6-10-11-7-5-2-8-8-11-3-6.svg -g -->
<rect width="100%" height="100%" fill="white"/>
<g stroke-width="0.70" transform="scale(0.867)">
<!-- title: 11-4-4-3-7-6-10-11-7-5-2-8-8-11-3-6 -->
</g>
<g stroke-width="0.70" transform="scale(0.867)" font-family="Times" font-size="20.00">
<text x="436.84" y="22.00" text-anchor="middle">11-4-4-3-7-6-10-11-7-5-2-8-8-11-3-6</text>
</g>
<g stroke-width="0.70" transform="scale(0.867)" font-family="Times" font-size="20.00">
<!-- subtitle: $1K.516f::3:95:158:63:154:97:62:33:138:176:26:175:43:59:116:93::$0 -->
</g>
<g stroke-width="0.70" transform="scale(0.867)" font-family="Courier" font-size="8.00" font-weight="bold">
<text x="436.84" y="41.80" text-anchor="middle">K.516f::3:95:158:63:154:97:62:33:138:176:26:175:43:59:116:93::</text>
</g>
<g stroke-width="0.70" transform="scale(0.867)" font-family="Courier" font-size="8.00" font-weight="bold">
<!-- subtitle: $1Perm. No.: 64636817509692$0 -->
<text x="436.84" y="60.80" text-anchor="middle">Perm. No.: 64636817509692</text>
</g>
<g stroke-width="0.70" transform="scale(0.607)" font-family="Courier" font-size="8.00" font-weight="bold">
<defs>
<ellipse id="hd" rx="4.1" ry="2.9"
	transform="rotate(-20)" class="fill"/>
</defs>
<use x="103.06" y="121.29" xlink:href="#hd"/>
<path d="M106.56 121.29v-21.00" class="stroke"/>
<path class="fill"
	d="M106.56 100.29c0.6 5.6 9.6 9 5.6 18.4
	1.6 -6 -1.3 -11.6 -5.6 -12.8
"/>
</g>
<g stroke-width="0.70" transform="scale(0.867)" font-family="Times" font-size="15.00" font-weight="bold">
<text x="81.24" y="87.00">= 111</text>
<path class="stroke" stroke-width="1"
	d="M11.54 183.00v-82.00"/>
<path class="fill"
	d="M6.54 98.00
	c10.5 1 12 -4.5 12 -3.5c0 1 -3.5 5.5 -8.5 5.5
	v84.00
	c5 0 8.5 4.5 8.5 5.5c0 1 -1.5 -4.5 -12 -3.5"/>
<defs>
<g id="rdots" class="fill">
	<circle cx="0" cy="-9" r="1.2"/>
	<circle cx="0" cy="-15" r="1.2"/>
</g>
</defs>
<use x="70.54" y="125.00" xlink:href="#rdots"/>
<path class="stroke" stroke-width="1"
	d="M66.54 125.00v-24.00"/>
<path class="stroke" stroke-width="3"
	d="M62.04 125.00v-24.00"/>
<use x="70.54" y="183.00" xlink:href="#rdots"/>
<path class="stroke" stroke-width="1"
	d="M66.54 183.00v-58.00"/>
<path class="stroke" stroke-width="3"
	d="M62.04 183.00v-58.00"/>
<path class="stroke" stroke-width="1"
	d="M149.84 125.00v-24.00"/>
<path class="stroke" stroke-width="1"
	d="M149.84 183.00v-58.00"/>
<path class="stroke" stroke-width="1"
	d="M228.24 125.00v-24.00"/>
<path class="stroke" stroke-width="1"
	d="M228.24 183.00v-58.00"/>
<path class="stroke" stroke-width="1"
	d="M327.74 125.00v-24.00"/>
<path class="stroke" stroke-width="1"
	d="M327.74 183.00v-58.00"/>
<path class="stroke" stroke-width="1"
	d="M425.74 125.00v-24.00"/>
<path class="stroke" stroke-width="1"
	d="M425.74 183.00v-58.00"/>
<path class="stroke" stroke-width="1"
	d="M537.84 125.00v-24.00"/>
<path class="stroke" stroke-width="1"
	d="M537.84 183.00v-58.00"/>
<path class="stroke" stroke-width="1"
	d="M648.64 125.00v-24.00"/>
<path class="stroke" stroke-width="1"
	d="M648.64 183.00v-58.00"/>
<path class="stroke" stroke-width="1"
	d="M759.34 125.00v-24.00"/>
<path class="stroke" stroke-width="1"
	d="M759.34 183.00v-58.00"/>
<path class="stroke" stroke-width="3"
	d="M860.54 125.00v-24.00"/>
<path class="stroke" stroke-width="1"
	d="M856.04 125.00v-24.00"/>
<use x="852.04" y="125.00" xlink:href="#rdots"/>
<path class="stroke" stroke-width="3"
	d="M860.54 183.00v-58.00"/>
<path class="stroke" stroke-width="1"
	d="M856.04 183.00v-58.00"/>
<use x="852.04" y="183.00" xlink:href="#rdots"/>
<path d="m11.54 125.00
	h850.50
	M11.54 119.00
	h850.50
	M11.54 113.00
	h850.50
	M11.54 107.00
	h850.50
	M11.54 101.00
	h850.50
	" class="stroke"/>
<path d="m11.54 183.00
	h850.50
	M11.54 177.00
	h850.50
	M11.54 171.00
	h850.50
	M11.54 165.00
	h850.50
	M11.54 159.00
	h850.50
	" class="stroke"/>
</g>
<g stroke-width="0.70" transform="scale(0.867)" font-family="Times" font-size="13.00">
<text x="763.34" y="86.40">1</text>
<path class="stroke"
	d="M759.34 75.00m0 20v-20h94.70v20"/>
<defs>
<path id="utclef" class="fill" d="m-50 -90
	c-72 -41 -72 -158 52 -188
	150 -10 220 188 90 256
	-114 52 -275 0 -293 -136
	-15 -181 93 -229 220 -334
	88 -87 79 -133 62 -210
	-51 33 -94 105 -89 186
	17 267 36 374 49 574
	6 96 -19 134 -77 135
	-80 1 -126 -93 -61 -133
	85 -41 133 101 31 105
	23 17 92 37 90 -92
	-10 -223 -39 -342 -50 -617
	0 -90 0 -162 96 -232
	56 72 63 230 22 289
	-74 106 -257 168 -255 316
	9 153 148 185 252 133
	86 -65 29 -192 -80 -176
	-71 12 -105 67 -59 124"/>
<use id="tclef" transform="translate(0,6) scale(0.045)"
	xlink:href="#utclef"/>
</defs>
<use x="23.54" y="119.00" xlink:href="#tclef"/>
<g font-family="serif" font-size="16" font-weight="bold" font-style="normal"
	transform="translate(42.04,124.50) scale(1.2,1)">
	<text text-anchor="middle">8</text>
	<text y="-12" text-anchor="middle">3</text>
</g>
<path class="fill"
	d="M80.94 127.60l47.40 3.20v-3.20l-47.40 -3.20"/>
<use x="84.74" y="98.00" xlink:href="#hd"/>
<path d="M81.24 98.00v28.60" class="stroke"/>
<use x="108.14" y="110.00" xlink:href="#hd"/>
<path d="M104.64 110.00v18.20" class="stroke"/>
<use x="131.54" y="104.00" xlink:href="#hd"/>
<path d="M128.04 104.00v25.80" class="stroke"/>
<path class="fill"
	d="M159.24 121.20l47.40 8.00v-3.20l-47.40 -8.00"/>
<use x="163.14" y="98.00" xlink:href="#hd"/>
<path d="M159.64 98.00v22.30" class="stroke"/>
<use x="186.44" y="104.00" xlink:href="#hd"/>
<path d="M182.94 104.00v20.20" class="stroke"/>
<use x="209.84" y="110.00" xlink:href="#hd"/>
<path d="M206.34 110.00v18.20" class="stroke"/>
<path class="fill"
	d="M244.64 84.80l73.90 0.00v3.20l-73.90 -0.00"/>
<path class="fill"
	d="M268.34 89.80l49.80 0.00v3.20l-49.80 -0.00"/>
<use x="241.44" y="113.00" xlink:href="#hd"/>
<path d="M244.94 113.00v-27.20" class="stroke"/>
<use x="264.84" y="107.00" xlink:href="#hd"/>
<path d="M268.34 107.00v-21.20" class="stroke"/>
<use x="281.44" y="113.00" xlink:href="#hd"/>
<path d="M284.94 113.00v-27.20" class="stroke"/>
<use x="298.04" y="116.00" xlink:href="#hd"/>
<path d="M301.54 116.00v-30.20" class="stroke"/>
<use x="314.64" y="119.00" xlink:href="#hd"/>
<path d="M318.14 119.00v-33.20" class="stroke"/>
<path class="fill"
	d="M337.14 132.30l67.10 6.00v-3.20l-67.10 -6.00"/>
<path class="fill"
	d="M337.44 127.30l49.80 4.40v-3.20l-49.80 -4.40"/>
<use x="340.94" y="104.00" xlink:href="#hd"/>
<path d="M337.44 104.00v27.30" class="stroke"/>
<use x="357.54" y="110.00" xlink:href="#hd"/>
<path d="M354.04 110.00v22.80" class="stroke"/>
<use x="374.14" y="113.00" xlink:href="#hd"/>
<path d="M370.64 113.00v21.20" class="stroke"/>
<use x="390.74" y="110.00" xlink:href="#hd"/>
<path d="M387.24 110.00v25.70" class="stroke"/>
<use x="407.34" y="119.00" xlink:href="#hd"/>
<path d="M403.84 119.00v18.20" class="stroke"/>
<path class="fill"
	d="M435.14 133.00l86.50 0.00v-3.20l-86.50 -0.00"/>
<path class="fill"
	d="M435.44 128.00l85.80 0.00v-3.20l-85.80 -0.00"/>
<use x="438.94" y="107.00" xlink:href="#hd"/>
<path d="M435.44 107.00v24.90" class="stroke"/>
<use x="456.94" y="110.00" xlink:href="#hd"/>
<defs>
<path id="usharp" class="fill" d="
	m136 -702
	v890
	h32
	v-890
	m128 840
	h32
	v-888
	h-32
	m-232 286
	v116
	l338 -96
	v-116
	m-338 442
	v116
	l338 -98
	v-114"/>
<use id="sh0" transform="translate(-4,5) scale(0.018)"
	xlink:href="#usharp"/>
</defs>
<use x="447.94" y="110.00" xlink:href="#sh0"/>
<path d="M453.44 110.00v21.90" class="stroke"/>
<use x="473.54" y="107.00" xlink:href="#hd"/>
<path d="M470.04 107.00v24.90" class="stroke"/>
<use x="491.54" y="101.00" xlink:href="#hd"/>
<use x="482.54" y="101.00" xlink:href="#sh0"/>
<path d="M488.04 101.00v30.90" class="stroke"/>
<defs>
<path id="hl" class="stroke" d="m-6 0h12"/>
</defs>
<use x="508.14" y="95.00" xlink:href="#hl"/>
<use x="508.14" y="95.00" xlink:href="#hd"/>
<path d="M504.64 95.00v36.90" class="stroke"/>
<use x="524.74" y="101.00" xlink:href="#hd"/>
<path d="M521.24 101.00v30.90" class="stroke"/>
<path class="fill"
	d="M547.24 131.30l85.10 9.90v-3.20l-85.10 -9.90"/>
<path class="fill"
	d="M547.64 126.30l84.40 9.90v-3.20l-84.40 -9.90"/>
<use x="551.14" y="98.00" xlink:href="#hd"/>
<path d="M547.64 98.00v32.30" class="stroke"/>
<use x="569.14" y="101.00" xlink:href="#hd"/>
<use x="560.14" y="101.00" xlink:href="#sh0"/>
<path d="M565.64 101.00v31.40" class="stroke"/>
<use x="585.74" y="98.00" xlink:href="#hd"/>
<path d="M582.24 98.00v36.40" class="stroke"/>
<use x="602.34" y="107.00" xlink:href="#hd"/>
<path d="M598.84 107.00v29.30" class="stroke"/>
<use x="618.94" y="113.00" xlink:href="#hd"/>
<path d="M615.44 113.00v25.30" class="stroke"/>
<use x="635.54" y="119.00" xlink:href="#hd"/>
<path d="M632.04 119.00v21.20" class="stroke"/>
<path class="fill"
	d="M665.04 81.80l85.10 8.00v3.20l-85.10 -8.00"/>
<path class="fill"
	d="M665.34 86.80l84.40 8.00v3.20l-84.40 -8.00"/>
<use x="661.84" y="104.00" xlink:href="#hd"/>
<path d="M665.34 104.00v-21.20" class="stroke"/>
<use x="678.44" y="110.00" xlink:href="#hd"/>
<path d="M681.94 110.00v-25.60" class="stroke"/>
<use x="695.04" y="113.00" xlink:href="#hd"/>
<path d="M698.54 113.00v-27.10" class="stroke"/>
<use x="711.64" y="119.00" xlink:href="#hd"/>
<path d="M715.14 119.00v-31.50" class="stroke"/>
<use x="728.24" y="116.00" xlink:href="#hd"/>
<path d="M731.74 116.00v-26.90" class="stroke"/>
<use x="746.24" y="122.00" xlink:href="#hd"/>
<use x="737.24" y="122.00" xlink:href="#sh0"/>
<path d="M749.74 122.00v-31.20" class="stroke"/>
<use x="772.64" y="98.00" xlink:href="#hd"/>
<path d="M769.14 98.00v40.00" class="stroke"/>
<use x="772.64" y="119.00" xlink:href="#hd"/>
<use x="772.64" y="113.00" xlink:href="#hd"/>
<use x="772.64" y="107.00" xlink:href="#hd"/>
<defs>
<path id="r8e" class="fill" d="m 0 0
	c-1.5 1.5 -2.4 2 -3.6 2
	2.4 -2.8 -2.8 -4 -2.8 -1.2
	c0 2.7 4.3 2.4 5.9 0.6"/>
<g id="r8">
	<path d="m3.3 -4l-3.4 9.6" class="stroke"/>
	<use x="3.4" y="-4" xlink:href="#r8e"/>
</g>
</defs>
<use x="830.54" y="113.00" xlink:href="#r8"/>
<defs>
<path id="ubclef" class="fill" d="m-200 -87
	c124 -35 222 -78 254 -236
	43 -228 -167 -246 -192 -103
	59 -80 157 22 92 78
	-62 47 -115 -22 -106 -88
	21 -141 270 -136 274 52
	-1 175 -106 264 -322 297
	m357 -250
	c0 -36 51 -34 51 0
	0 37 -51 36 -51 0
	m-2 -129
	c0 -36 51 -34 51 0
	0 38 -51 37 -51 0"/>
<use id="bclef" transform="translate(0,18) scale(0.045)"
	xlink:href="#ubclef"/>
</defs>
<use x="23.54" y="165.00" xlink:href="#bclef"/>
<g font-family="serif" font-size="16" font-weight="bold" font-style="normal"
	transform="translate(42.04,182.50) scale(1.2,1)">
	<text text-anchor="middle">8</text>
	<text y="-12" text-anchor="middle">3</text>
</g>
<use x="84.74" y="168.00" xlink:href="#hd"/>
<path d="M81.24 168.00v25.00" class="stroke"/>
<use x="84.74" y="174.00" xlink:href="#hd"/>
<use x="131.54" y="171.00" xlink:href="#r8"/>
<use x="163.14" y="168.00" xlink:href="#hd"/>
<path d="M166.64 168.00v-21.00" class="stroke"/>
<use x="209.84" y="171.00" xlink:href="#r8"/>
<use x="241.44" y="162.00" xlink:href="#hd"/>
<path d="M237.94 162.00v21.00" class="stroke"/>
<use x="298.04" y="171.00" xlink:href="#r8"/>
<use x="340.94" y="174.00" xlink:href="#hd"/>
<path d="M344.44 174.00v-21.00" class="stroke"/>
<use x="407.34" y="171.00" xlink:href="#r8"/>
<use x="438.94" y="174.00" xlink:href="#hd"/>
<path d="M442.44 174.00v-21.00" class="stroke"/>
<use x="508.14" y="171.00" xlink:href="#r8"/>
<use x="551.14" y="177.00" xlink:href="#hd"/>
<path d="M554.64 177.00v-25.00" class="stroke"/>
<use x="551.14" y="171.00" xlink:href="#hd"/>
<use x="618.94" y="162.00" xlink:href="#hd"/>
<path d="M615.44 162.00v34.00" class="stroke"/>
<path class="fill"
	d="M615.44 196.00c0.6 -5.6 9.6 -9 5.6 -18.4
	1.6 6 -1.3 11.6 -5.6 12.8
"/>
<use x="618.94" y="177.00" xlink:href="#hd"/>
<path class="fill"
	d="M665.04 147.70l67.10 8.20v3.20l-67.10 -8.20"/>
<use x="661.84" y="174.00" xlink:href="#hd"/>
<path d="M665.34 174.00v-25.30" class="stroke"/>
<use x="695.04" y="171.00" xlink:href="#hd"/>
<path d="M698.54 171.00v-18.20" class="stroke"/>
<use x="728.24" y="189.00" xlink:href="#hl"/>
<use x="728.24" y="192.00" xlink:href="#hd"/>
<path d="M731.74 192.00v-35.10" class="stroke"/>
<path class="fill"
	d="M768.74 202.20l75.30 0.00v-3.20l-75.30 -0.00"/>
<path class="fill"
	d="M792.44 197.20l51.20 0.00v-3.20l-51.20 -0.00"/>
<use x="772.64" y="183.00" xlink:href="#hd"/>
<path d="M769.14 183.00v18.20" class="stroke"/>
<use x="795.94" y="162.00" xlink:href="#hd"/>
<path d="M792.44 162.00v39.20" class="stroke"/>
<use x="813.94" y="165.00" xlink:href="#hd"/>
<defs>
<path id="unat" class="fill" d="
	m96 -750
	h-32
	v716
	l32 -8
	182 -54
	v282
	h32
	v-706
	l-34 10
	-180 50
	v-290
	m0 592
	v-190
	l182 -52
	v188"/>
<use id="nt0" transform="translate(-3,5) scale(0.018)"
	xlink:href="#unat"/>
</defs>
<use x="804.94" y="165.00" xlink:href="#nt0"/>
<path d="M810.44 165.00v36.20" class="stroke"/>
<use x="830.54" y="168.00" xlink:href="#hd"/>
<path d="M827.04 168.00v33.20" class="stroke"/>
<use x="847.14" y="171.00" xlink:href="#hd"/>
<path d="M843.64 171.00v30.20" class="stroke"/>
<use x="163.14" y="174.00" xlink:href="#hd"/>
<path d="M159.64 174.00v21.00" class="stroke"/>
</g>
<g stroke-width="0.70" transform="scale(0.867)" font-family="Times" font-size="13.00">
<path class="stroke" stroke-width="1"
	d="M11.54 316.00v-82.00"/>
<path class="fill"
	d="M6.54 231.00
	c10.5 1 12 -4.5 12 -3.5c0 1 -3.5 5.5 -8.5 5.5
	v84.00
	c5 0 8.5 4.5 8.5 5.5c0 1 -1.5 -4.5 -12 -3.5"/>
<use x="139.84" y="258.00" xlink:href="#rdots"/>
<path class="stroke" stroke-width="1"
	d="M135.84 258.00v-24.00"/>
<path class="stroke" stroke-width="3"
	d="M131.34 258.00v-24.00"/>
<use x="139.84" y="316.00" xlink:href="#rdots"/>
<path class="stroke" stroke-width="1"
	d="M135.84 316.00v-58.00"/>
<path class="stroke" stroke-width="3"
	d="M131.34 316.00v-58.00"/>
<path class="stroke" stroke-width="1"
	d="M248.94 258.00v-24.00"/>
<path class="stroke" stroke-width="1"
	d="M248.94 316.00v-58.00"/>
<path class="stroke" stroke-width="1"
	d="M342.64 258.00v-24.00"/>
<path class="stroke" stroke-width="1"
	d="M342.64 316.00v-58.00"/>
<path class="stroke" stroke-width="1"
	d="M436.24 258.00v-24.00"/>
<path class="stroke" stroke-width="1"
	d="M436.24 316.00v-58.00"/>
<path class="stroke" stroke-width="1"
	d="M519.14 258.00v-24.00"/>
<path class="stroke" stroke-width="1"
	d="M519.14 316.00v-58.00"/>
<path class="stroke" stroke-width="1"
	d="M604.14 258.00v-24.00"/>
<path class="stroke" stroke-width="1"
	d="M604.14 316.00v-58.00"/>
<path class="stroke" stroke-width="1"
	d="M697.84 258.00v-24.00"/>
<path class="stroke" stroke-width="1"
	d="M697.84 316.00v-58.00"/>
<path class="stroke" stroke-width="1"
	d="M791.44 258.00v-24.00"/>
<path class="stroke" stroke-width="1"
	d="M791.44 316.00v-58.00"/>
<path class="stroke" stroke-width="3"
	d="M860.54 258.00v-24.00"/>
<path class="stroke" stroke-width="1"
	d="M856.04 258.00v-24.00"/>
<use x="852.04" y="258.00" xlink:href="#rdots"/>
<path class="stroke" stroke-width="3"
	d="M860.54 316.00v-58.00"/>
<path class="stroke" stroke-width="1"
	d="M856.04 316.00v-58.00"/>
<use x="852.04" y="316.00" xlink:href="#rdots"/>
<path d="m11.54 258.00
	h850.50
	M11.54 252.00
	h850.50
	M11.54 246.00
	h850.50
	M11.54 240.00
	h850.50
	M11.54 234.00
	h850.50
	" class="stroke"/>
<path d="m11.54 316.00
	h850.50
	M11.54 310.00
	h850.50
	M11.54 304.00
	h850.50
	M11.54 298.00
	h850.50
	M11.54 292.00
	h850.50
	" class="stroke"/>
<text x="47.54" y="219.40">2</text>
<path class="stroke"
	d="M43.54 208.00m0 20v-20h85.30v20"/>
<use x="23.54" y="252.00" xlink:href="#tclef"/>
<use x="56.04" y="231.00" xlink:href="#hd"/>
<path d="M52.54 231.00v40.00" class="stroke"/>
<use x="56.04" y="252.00" xlink:href="#hd"/>
<use x="56.04" y="246.00" xlink:href="#hd"/>
<use x="56.04" y="240.00" xlink:href="#hd"/>
<use x="106.54" y="246.00" xlink:href="#r8"/>
<use x="159.34" y="234.00" xlink:href="#hd"/>
<use x="150.34" y="234.00" xlink:href="#sh0"/>
<path d="M155.84 234.00v34.00" class="stroke"/>
<path class="fill"
	d="M155.84 268.00c0.6 -5.6 9.6 -9 5.6 -18.4
	1.6 6 -1.3 11.6 -5.6 12.8
"/>
<use x="159.34" y="249.00" xlink:href="#hd"/>
<use x="159.34" y="240.00" xlink:href="#hd"/>
<use x="191.04" y="234.00" xlink:href="#hd"/>
<path d="M187.54 234.00v21.00" class="stroke"/>
<path class="fill"
	d="M257.64 260.00l69.30 0.00v-3.20l-69.30 -0.00"/>
<path class="fill"
	d="M257.94 255.00l68.60 0.00v-3.20l-68.60 -0.00"/>
<use x="261.44" y="228.00" xlink:href="#hl"/>
<use x="261.44" y="228.00" xlink:href="#hd"/>
<path d="M257.94 228.00v31.00" class="stroke"/>
<use x="275.24" y="231.00" xlink:href="#hd"/>
<path d="M271.74 231.00v28.00" class="stroke"/>
<use x="288.94" y="228.00" xlink:href="#hl"/>
<use x="288.94" y="225.00" xlink:href="#hd"/>
<path d="M285.44 225.00v34.00" class="stroke"/>
<use x="302.64" y="231.00" xlink:href="#hd"/>
<path d="M299.14 231.00v28.00" class="stroke"/>
<use x="316.34" y="240.00" xlink:href="#hd"/>
<path d="M312.84 240.00v19.00" class="stroke"/>
<use x="330.14" y="231.00" xlink:href="#hd"/>
<path d="M326.64 231.00v28.00" class="stroke"/>
<path class="fill"
	d="M351.24 261.00l55.60 0.00v-3.20l-55.60 -0.00"/>
<use x="355.14" y="237.00" xlink:href="#hd"/>
<path d="M351.64 237.00v23.00" class="stroke"/>
<use x="355.14" y="243.00" xlink:href="#hd"/>
<use x="382.54" y="237.00" xlink:href="#hd"/>
<path d="M379.04 237.00v23.00" class="stroke"/>
<use x="382.54" y="243.00" xlink:href="#hd"/>
<use x="410.04" y="237.00" xlink:href="#hd"/>
<path d="M406.54 237.00v23.00" class="stroke"/>
<use x="410.04" y="243.00" xlink:href="#hd"/>
<path class="fill"
	d="M444.94 268.20l55.60 0.00v-3.20l-55.60 -0.00"/>
<path class="fill"
	d="M445.24 263.20l41.20 0.00v-3.20l-41.20 -0.00"/>
<use x="448.74" y="237.00" xlink:href="#hd"/>
<path d="M445.24 237.00v30.20" class="stroke"/>
<use x="462.44" y="243.00" xlink:href="#hd"/>
<path d="M458.94 243.00v24.20" class="stroke"/>
<use x="476.24" y="246.00" xlink:href="#hd"/>
<path d="M472.74 246.00v21.20" class="stroke"/>
<use x="489.94" y="240.00" xlink:href="#hd"/>
<path d="M486.44 240.00v27.20" class="stroke"/>
<use x="503.64" y="231.00" xlink:href="#hd"/>
<path d="M500.14 231.00v36.20" class="stroke"/>
<path class="fill"
	d="M527.84 256.50l60.70 8.70v-3.20l-60.70 -8.70"/>
<path class="fill"
	d="M546.94 254.30l41.20 5.90v-3.20l-41.20 -5.90"/>
<use x="531.64" y="231.00" xlink:href="#hd"/>
<path d="M528.14 231.00v24.60" class="stroke"/>
<use x="550.44" y="234.00" xlink:href="#hd"/>
<path d="M546.94 234.00v24.30" class="stroke"/>
<use x="564.24" y="237.00" xlink:href="#hd"/>
<path d="M560.74 237.00v23.20" class="stroke"/>
<use x="577.94" y="240.00" xlink:href="#hd"/>
<path d="M574.44 240.00v22.20" class="stroke"/>
<use x="591.64" y="243.00" xlink:href="#hd"/>
<path d="M588.14 243.00v21.20" class="stroke"/>
<path class="fill"
	d="M612.84 260.60l55.60 3.20v-3.20l-55.60 -3.20"/>
<use x="616.64" y="231.00" xlink:href="#hd"/>
<path d="M613.14 231.00v28.60" class="stroke"/>
<use x="644.14" y="243.00" xlink:href="#hd"/>
<path d="M640.64 243.00v18.20" class="stroke"/>
<use x="671.54" y="237.00" xlink:href="#hd"/>
<path d="M668.04 237.00v25.80" class="stroke"/>
<path class="fill"
	d="M706.44 266.00l69.30 0.00v-3.20l-69.30 -0.00"/>
<path class="fill"
	d="M706.84 261.00l68.60 0.00v-3.20l-68.60 -0.00"/>
<use x="710.34" y="240.00" xlink:href="#hd"/>
<path d="M706.84 240.00v24.90" class="stroke"/>
<use x="724.04" y="234.00" xlink:href="#hd"/>
<path d="M720.54 234.00v30.90" class="stroke"/>
<use x="737.74" y="228.00" xlink:href="#hl"/>
<use x="737.74" y="228.00" xlink:href="#hd"/>
<path d="M734.24 228.00v36.90" class="stroke"/>
<use x="751.44" y="234.00" xlink:href="#hd"/>
<path d="M747.94 234.00v30.90" class="stroke"/>
<use x="765.24" y="240.00" xlink:href="#hd"/>
<path d="M761.74 240.00v24.90" class="stroke"/>
<use x="778.94" y="246.00" xlink:href="#hd"/>
<path d="M775.44 246.00v18.90" class="stroke"/>
<use x="803.94" y="243.00" xlink:href="#hd"/>
<path d="M800.44 243.00v21.00" class="stroke"/>
<use x="841.54" y="246.00" xlink:href="#r8"/>
<use x="23.54" y="298.00" xlink:href="#bclef"/>
<path class="fill"
	d="M52.24 335.20l64.90 0.00v-3.20l-64.90 -0.00"/>
<path class="fill"
	d="M71.34 330.20l45.50 0.00v-3.20l-45.50 -0.00"/>
<use x="56.04" y="316.00" xlink:href="#hd"/>
<path d="M52.54 316.00v18.20" class="stroke"/>
<use x="74.84" y="289.00" xlink:href="#hd"/>
<path d="M71.34 289.00v45.20" class="stroke"/>
<use x="88.54" y="295.00" xlink:href="#hd"/>
<path d="M85.04 295.00v39.20" class="stroke"/>
<use x="106.54" y="298.00" xlink:href="#hd"/>
<use x="97.54" y="298.00" xlink:href="#sh0"/>
<path d="M103.04 298.00v36.20" class="stroke"/>
<use x="120.34" y="301.00" xlink:href="#hd"/>
<path d="M116.84 301.00v33.20" class="stroke"/>
<path class="fill"
	d="M162.44 283.00l77.90 -6.80v3.20l-77.90 6.80"/>
<path class="fill"
	d="M162.84 288.00l77.20 -6.70v3.20l-77.20 6.70"/>
<use x="159.34" y="322.00" xlink:href="#hl"/>
<use x="159.34" y="325.00" xlink:href="#hd"/>
<path d="M162.84 325.00v-41.00" class="stroke"/>
<use x="173.04" y="304.00" xlink:href="#hd"/>
<path d="M176.54 304.00v-21.20" class="stroke"/>
<use x="191.04" y="307.00" xlink:href="#hd"/>
<use x="182.04" y="307.00" xlink:href="#sh0"/>
<path d="M194.54 307.00v-25.80" class="stroke"/>
<use x="204.74" y="304.00" xlink:href="#hd"/>
<path d="M208.24 304.00v-24.00" class="stroke"/>
<use x="222.74" y="307.00" xlink:href="#hd"/>
<use x="213.74" y="307.00" xlink:href="#sh0"/>
<path d="M226.24 307.00v-28.50" class="stroke"/>
<use x="236.44" y="304.00" xlink:href="#hd"/>
<path d="M239.94 304.00v-26.70" class="stroke"/>
<use x="261.44" y="310.00" xlink:href="#hd"/>
<path d="M264.94 310.00v-25.00" class="stroke"/>
<use x="261.44" y="304.00" xlink:href="#hd"/>
<use x="316.34" y="310.00" xlink:href="#hd"/>
<path d="M319.84 310.00v-25.00" class="stroke"/>
<path class="fill"
	d="M319.84 285.00c0.6 5.6 9.6 9 5.6 18.4
	1.6 -6 -1.3 -11.6 -5.6 -12.8
"/>
<use x="316.34" y="304.00" xlink:href="#hd"/>
<path class="fill"
	d="M351.24 329.20l69.30 0.00v-3.20l-69.30 -0.00"/>
<path class="fill"
	d="M351.64 324.20l68.60 0.00v-3.20l-68.60 -0.00"/>
<use x="355.14" y="307.00" xlink:href="#hd"/>
<path d="M351.64 307.00v21.20" class="stroke"/>
<use x="368.84" y="301.00" xlink:href="#hd"/>
<path d="M365.34 301.00v27.20" class="stroke"/>
<use x="382.54" y="295.00" xlink:href="#hd"/>
<path d="M379.04 295.00v33.20" class="stroke"/>
<use x="396.24" y="301.00" xlink:href="#hd"/>
<path d="M392.74 301.00v27.20" class="stroke"/>
<use x="410.04" y="286.00" xlink:href="#hl"/>
<use x="410.04" y="286.00" xlink:href="#hd"/>
<path d="M406.54 286.00v42.20" class="stroke"/>
<use x="423.74" y="307.00" xlink:href="#hd"/>
<path d="M420.24 307.00v21.20" class="stroke"/>
<path class="fill"
	d="M451.94 275.70l28.10 8.50v3.20l-28.10 -8.50"/>
<use x="448.74" y="295.00" xlink:href="#hd"/>
<path d="M452.24 295.00v-18.20" class="stroke"/>
<use x="476.24" y="316.00" xlink:href="#hd"/>
<path d="M479.74 316.00v-30.90" class="stroke"/>
<use x="503.64" y="304.00" xlink:href="#r8"/>
<use x="531.64" y="301.00" xlink:href="#hd"/>
<path d="M528.14 301.00v25.00" class="stroke"/>
<use x="531.64" y="307.00" xlink:href="#hd"/>
<use x="577.94" y="304.00" xlink:href="#r8"/>
<path class="fill"
	d="M612.84 323.90l69.30 0.00v-3.20l-69.30 -0.00"/>
<path class="fill"
	d="M613.14 318.90l68.60 0.00v-3.20l-68.60 -0.00"/>
<use x="616.64" y="301.00" xlink:href="#hd"/>
<path d="M613.14 301.00v21.90" class="stroke"/>
<use x="616.64" y="307.00" xlink:href="#hd"/>
<use x="630.34" y="295.00" xlink:href="#hd"/>
<path d="M626.84 295.00v27.90" class="stroke"/>
<use x="644.14" y="301.00" xlink:href="#hd"/>
<path d="M640.64 301.00v21.90" class="stroke"/>
<use x="644.14" y="307.00" xlink:href="#hd"/>
<use x="657.84" y="295.00" xlink:href="#hd"/>
<path d="M654.34 295.00v27.90" class="stroke"/>
<use x="671.54" y="301.00" xlink:href="#hd"/>
<path d="M668.04 301.00v21.90" class="stroke"/>
<use x="671.54" y="307.00" xlink:href="#hd"/>
<use x="685.34" y="295.00" xlink:href="#hd"/>
<path d="M681.84 295.00v27.90" class="stroke"/>
<use x="710.34" y="298.00" xlink:href="#hd"/>
<path d="M706.84 298.00v21.00" class="stroke"/>
<use x="765.24" y="295.00" xlink:href="#hd"/>
<path d="M761.74 295.00v21.00" class="stroke"/>
<path class="fill"
	d="M761.74 316.00c0.6 -5.6 9.6 -9 5.6 -18.4
	1.6 6 -1.3 11.6 -5.6 12.8
"/>
<path class="fill"
	d="M807.04 287.70l38.30 9.40v3.20l-38.30 -9.40"/>
<use x="803.94" y="307.00" xlink:href="#hd"/>
<path d="M807.44 307.00v-18.20" class="stroke"/>
<use x="822.74" y="316.00" xlink:href="#hd"/>
<path d="M826.24 316.00v-22.60" class="stroke"/>
<use x="841.54" y="322.00" xlink:href="#hl"/>
<use x="841.54" y="328.00" xlink:href="#hl"/>
<use x="841.54" y="328.00" xlink:href="#hd"/>
<path d="M845.04 328.00v-30.00" class="stroke"/>
<defs>
<text id="trl" font-family="serif" font-size="16" font-style="italic"
	x="-2" y="-4">tr</text>
</defs>
<use x="191.04" y="228.00" xlink:href="#trl"/>
</g>
</svg>
